
<svg xmlns="http://www.w3.org/2000/svg" xmlns:xlink="http://www.w3.org/1999/xlink" width="22" height="22" viewBox="0 0 22 22" version="1.1">
<defs>
<linearGradient id="linear0" gradientUnits="userSpaceOnUse" x1="32" y1="59.999996" x2="31.999998" y2="3.999999" gradientTransform="matrix(0.34375,0,0,0.34375,0,0.00000000000003908)">
<stop offset="0" style="stop-color:rgb(0%,0%,0%);stop-opacity:0.2;"/>
<stop offset="1" style="stop-color:rgb(100%,100%,100%);stop-opacity:0;"/>
</linearGradient>
</defs>
<g id="surface1">
<path style=" stroke:none;fill-rule:nonzero;fill:rgb(100%,65.490198%,14.901961%);fill-opacity:1;" d="M 17.320312 2.734375 C 15.972656 1.390625 13.804688 1.390625 12.457031 2.734375 L 10.515625 4.679688 C 9.167969 6.027344 9.167969 8.195312 10.515625 9.542969 L 12.457031 11.484375 C 13.804688 12.832031 15.972656 12.832031 17.320312 11.484375 L 19.265625 9.542969 C 20.609375 8.195312 20.609375 6.027344 19.265625 4.679688 Z M 15.375 4.679688 L 17.320312 6.625 C 17.589844 6.894531 17.589844 7.328125 17.320312 7.597656 L 15.375 9.542969 C 15.105469 9.8125 14.671875 9.8125 14.402344 9.542969 L 12.457031 7.597656 C 12.1875 7.328125 12.1875 6.894531 12.457031 6.625 L 14.402344 4.679688 C 14.671875 4.410156 15.105469 4.410156 15.375 4.679688 Z M 15.375 4.679688 "/>
<path style=" stroke:none;fill-rule:nonzero;fill:rgb(100%,65.490198%,14.901961%);fill-opacity:1;" d="M 9.542969 10.515625 C 8.195312 9.167969 6.027344 9.167969 4.679688 10.515625 L 2.734375 12.457031 C 1.390625 13.804688 1.390625 15.972656 2.734375 17.320312 L 4.679688 19.265625 C 6.027344 20.609375 8.195312 20.609375 9.542969 19.265625 L 11.484375 17.320312 C 12.832031 15.972656 12.832031 13.804688 11.484375 12.457031 Z M 7.597656 12.457031 L 9.542969 14.402344 C 9.8125 14.671875 9.8125 15.105469 9.542969 15.375 L 7.597656 17.320312 C 7.328125 17.589844 6.894531 17.589844 6.625 17.320312 L 4.679688 15.375 C 4.410156 15.105469 4.410156 14.671875 4.679688 14.402344 L 6.625 12.457031 C 6.894531 12.1875 7.328125 12.1875 7.597656 12.457031 Z M 7.597656 12.457031 "/>
<path style=" stroke:none;fill-rule:nonzero;fill:rgb(0%,0%,0%);fill-opacity:0.4;" d="M 7.109375 11.921875 C 6.933594 11.921875 6.757812 11.988281 6.625 12.121094 L 4.679688 14.066406 C 4.503906 14.246094 4.441406 14.496094 4.5 14.722656 C 4.527344 14.605469 4.589844 14.496094 4.679688 14.402344 L 6.625 12.457031 C 6.894531 12.1875 7.328125 12.1875 7.597656 12.457031 L 9.542969 14.402344 C 9.632812 14.496094 9.691406 14.605469 9.722656 14.722656 C 9.777344 14.496094 9.71875 14.246094 9.542969 14.066406 L 7.597656 12.121094 C 7.460938 11.988281 7.285156 11.921875 7.109375 11.921875 Z M 1.730469 14.722656 C 1.683594 15.65625 2.019531 16.605469 2.734375 17.320312 L 4.679688 19.265625 C 6.027344 20.609375 8.195312 20.609375 9.542969 19.265625 L 11.484375 17.320312 C 12.203125 16.605469 12.539062 15.65625 12.492188 14.722656 C 12.453125 15.542969 12.117188 16.355469 11.484375 16.984375 L 9.542969 18.929688 C 8.195312 20.273438 6.027344 20.273438 4.679688 18.929688 L 2.734375 16.984375 C 2.105469 16.355469 1.769531 15.542969 1.730469 14.722656 Z M 1.730469 14.722656 "/>
<path style=" stroke:none;fill-rule:nonzero;fill:rgb(100%,100%,100%);fill-opacity:0.4;" d="M 7.109375 9.503906 C 6.230469 9.503906 5.355469 9.839844 4.679688 10.515625 L 2.734375 12.457031 C 2.019531 13.175781 1.683594 14.125 1.730469 15.0625 C 1.769531 14.242188 2.105469 13.429688 2.734375 12.800781 L 4.679688 10.859375 C 6.027344 9.511719 8.195312 9.511719 9.542969 10.859375 L 11.484375 12.800781 C 12.117188 13.429688 12.449219 14.242188 12.492188 15.0625 C 12.539062 14.125 12.203125 13.175781 11.484375 12.457031 L 9.542969 10.515625 C 8.867188 9.839844 7.988281 9.503906 7.109375 9.503906 Z M 4.5 15.0625 C 4.441406 15.289062 4.5 15.539062 4.679688 15.71875 L 6.625 17.664062 C 6.894531 17.933594 7.328125 17.933594 7.597656 17.664062 L 9.542969 15.71875 C 9.722656 15.539062 9.78125 15.289062 9.722656 15.0625 C 9.691406 15.175781 9.632812 15.285156 9.542969 15.375 L 7.597656 17.320312 C 7.328125 17.589844 6.894531 17.589844 6.625 17.320312 L 4.679688 15.375 C 4.589844 15.285156 4.53125 15.175781 4.5 15.0625 Z M 4.5 15.0625 "/>
<path style=" stroke:none;fill-rule:nonzero;fill:rgb(0%,0%,0%);fill-opacity:0.4;" d="M 14.890625 4.140625 C 14.714844 4.140625 14.539062 4.210938 14.402344 4.34375 L 12.457031 6.289062 C 12.28125 6.46875 12.222656 6.71875 12.277344 6.945312 C 12.308594 6.828125 12.367188 6.714844 12.457031 6.625 L 14.402344 4.679688 C 14.671875 4.410156 15.105469 4.410156 15.375 4.679688 L 17.320312 6.625 C 17.410156 6.714844 17.472656 6.828125 17.5 6.945312 C 17.558594 6.71875 17.496094 6.46875 17.320312 6.289062 L 15.375 4.34375 C 15.242188 4.210938 15.066406 4.140625 14.890625 4.140625 Z M 9.507812 6.945312 C 9.460938 7.878906 9.796875 8.824219 10.515625 9.542969 L 12.457031 11.484375 C 13.804688 12.832031 15.972656 12.832031 17.320312 11.484375 L 19.265625 9.542969 C 19.980469 8.824219 20.316406 7.878906 20.269531 6.945312 C 20.230469 7.765625 19.894531 8.574219 19.265625 9.207031 L 17.320312 11.148438 C 15.972656 12.496094 13.804688 12.496094 12.457031 11.148438 L 10.515625 9.207031 C 9.882812 8.574219 9.546875 7.765625 9.507812 6.945312 Z M 9.507812 6.945312 "/>
<path style=" stroke:none;fill-rule:nonzero;fill:rgb(100%,100%,100%);fill-opacity:0.4;" d="M 14.890625 1.726562 C 14.011719 1.726562 13.132812 2.0625 12.457031 2.734375 L 10.515625 4.679688 C 9.796875 5.398438 9.460938 6.347656 9.507812 7.28125 C 9.550781 6.460938 9.882812 5.652344 10.515625 5.023438 L 12.457031 3.078125 C 13.804688 1.734375 15.972656 1.734375 17.320312 3.078125 L 19.265625 5.023438 C 19.894531 5.652344 20.230469 6.460938 20.269531 7.28125 C 20.316406 6.347656 19.980469 5.398438 19.265625 4.679688 L 17.320312 2.734375 C 16.644531 2.0625 15.769531 1.726562 14.890625 1.726562 Z M 12.277344 7.28125 C 12.21875 7.511719 12.28125 7.761719 12.457031 7.941406 L 14.402344 9.886719 C 14.671875 10.15625 15.105469 10.15625 15.375 9.886719 L 17.320312 7.941406 C 17.5 7.761719 17.558594 7.511719 17.5 7.28125 C 17.46875 7.398438 17.410156 7.507812 17.320312 7.597656 L 15.375 9.542969 C 15.105469 9.8125 14.671875 9.8125 14.402344 9.542969 L 12.457031 7.597656 C 12.367188 7.507812 12.308594 7.398438 12.277344 7.28125 Z M 12.277344 7.28125 "/>
<path style=" stroke:none;fill-rule:nonzero;fill:rgb(100%,71.764708%,30.19608%);fill-opacity:1;" d="M 14.890625 7.109375 C 15.425781 7.648438 15.425781 8.519531 14.890625 9.054688 L 9.542969 14.402344 C 9.003906 14.941406 8.132812 14.941406 7.597656 14.402344 C 7.058594 13.867188 7.058594 12.996094 7.597656 12.457031 L 12.945312 7.109375 C 13.480469 6.574219 14.351562 6.574219 14.890625 7.109375 Z M 14.890625 7.109375 "/>
<path style=" stroke:none;fill-rule:nonzero;fill:rgb(100%,100%,100%);fill-opacity:0.4;" d="M 13.917969 6.707031 C 13.566406 6.707031 13.214844 6.839844 12.945312 7.109375 L 7.597656 12.457031 C 7.285156 12.773438 7.152344 13.195312 7.203125 13.601562 C 7.242188 13.308594 7.371094 13.027344 7.597656 12.800781 L 12.945312 7.453125 C 13.484375 6.917969 14.351562 6.914062 14.890625 7.453125 C 15.113281 7.679688 15.246094 7.964844 15.28125 8.253906 C 15.332031 7.847656 15.203125 7.425781 14.890625 7.109375 C 14.621094 6.839844 14.269531 6.707031 13.917969 6.707031 Z M 13.917969 6.707031 "/>
<path style=" stroke:none;fill-rule:nonzero;fill:rgb(0%,0%,0%);fill-opacity:0.4;" d="M 15.28125 7.914062 C 15.246094 8.210938 15.117188 8.492188 14.890625 8.71875 L 9.542969 14.066406 C 9.003906 14.605469 8.136719 14.605469 7.597656 14.066406 C 7.371094 13.839844 7.238281 13.554688 7.203125 13.261719 C 7.152344 13.667969 7.285156 14.089844 7.597656 14.402344 C 8.136719 14.941406 9.003906 14.941406 9.542969 14.402344 L 14.890625 9.054688 C 15.203125 8.742188 15.332031 8.320312 15.28125 7.914062 Z M 15.28125 7.914062 "/>
<path style=" stroke:none;fill-rule:nonzero;fill:url(#linear0);" d="M 14.890625 1.726562 C 14.011719 1.726562 13.132812 2.0625 12.457031 2.734375 L 10.515625 4.679688 C 9.167969 6.027344 9.167969 8.195312 10.515625 9.542969 L 9.542969 10.515625 C 8.195312 9.167969 6.027344 9.167969 4.679688 10.515625 L 2.734375 12.457031 C 1.390625 13.804688 1.390625 15.972656 2.734375 17.320312 L 4.679688 19.265625 C 6.027344 20.609375 8.195312 20.609375 9.542969 19.265625 L 11.484375 17.320312 C 12.832031 15.972656 12.832031 13.804688 11.484375 12.457031 L 12.457031 11.484375 C 13.804688 12.832031 15.972656 12.832031 17.320312 11.484375 L 19.265625 9.542969 C 20.609375 8.195312 20.609375 6.027344 19.265625 4.679688 L 17.320312 2.734375 C 16.644531 2.0625 15.769531 1.726562 14.890625 1.726562 Z M 14.890625 4.476562 C 15.066406 4.476562 15.242188 4.546875 15.375 4.679688 L 17.320312 6.625 C 17.589844 6.894531 17.589844 7.328125 17.320312 7.597656 L 15.375 9.542969 C 15.105469 9.8125 14.671875 9.8125 14.402344 9.542969 L 14.890625 9.054688 C 15.429688 8.515625 15.429688 7.648438 14.890625 7.109375 C 14.351562 6.570312 13.484375 6.570312 12.945312 7.109375 L 12.457031 7.597656 C 12.1875 7.328125 12.1875 6.894531 12.457031 6.625 L 14.402344 4.679688 C 14.539062 4.546875 14.714844 4.476562 14.890625 4.476562 Z M 7.109375 12.257812 C 7.285156 12.257812 7.460938 12.324219 7.597656 12.457031 C 7.058594 12.996094 7.058594 13.863281 7.597656 14.402344 C 8.136719 14.941406 9.003906 14.941406 9.542969 14.402344 C 9.8125 14.671875 9.8125 15.105469 9.542969 15.375 L 7.597656 17.320312 C 7.328125 17.589844 6.894531 17.589844 6.625 17.320312 L 4.679688 15.375 C 4.410156 15.105469 4.410156 14.671875 4.679688 14.402344 L 6.625 12.457031 C 6.757812 12.324219 6.933594 12.257812 7.109375 12.257812 Z M 7.109375 12.257812 "/>
<path style=" stroke:none;fill-rule:nonzero;fill:rgb(0%,0%,0%);fill-opacity:0.2;" d="M 14.890625 4.484375 C 14.714844 4.484375 14.539062 4.550781 14.402344 4.6875 L 12.457031 6.628906 C 12.257812 6.832031 12.207031 7.125 12.304688 7.371094 C 12.339844 7.289062 12.390625 7.207031 12.457031 7.140625 L 14.402344 5.195312 C 14.539062 5.0625 14.714844 4.992188 14.890625 4.992188 C 15.066406 4.992188 15.242188 5.0625 15.375 5.195312 L 17.320312 7.140625 C 17.386719 7.207031 17.4375 7.289062 17.472656 7.371094 C 17.570312 7.125 17.519531 6.832031 17.320312 6.628906 L 15.375 4.6875 C 15.242188 4.550781 15.066406 4.484375 14.890625 4.484375 Z M 9.515625 7.371094 C 9.449219 8.222656 9.703125 9.089844 10.273438 9.789062 L 10.515625 9.546875 C 9.90625 8.9375 9.574219 8.164062 9.515625 7.371094 Z M 20.265625 7.371094 C 20.203125 8.164062 19.871094 8.9375 19.265625 9.546875 L 17.320312 11.492188 C 15.972656 12.839844 13.804688 12.839844 12.457031 11.492188 L 11.484375 12.464844 C 11.574219 12.550781 11.652344 12.640625 11.726562 12.730469 L 12.457031 12 C 13.804688 13.347656 15.972656 13.347656 17.320312 12 L 19.265625 10.058594 C 20.003906 9.320312 20.335938 8.332031 20.265625 7.371094 Z M 15.269531 8.34375 C 15.21875 8.605469 15.09375 8.855469 14.890625 9.0625 L 14.402344 9.546875 C 14.496094 9.640625 14.609375 9.703125 14.730469 9.730469 L 14.890625 9.570312 C 15.222656 9.238281 15.351562 8.773438 15.269531 8.34375 Z M 7.109375 12.261719 C 6.933594 12.261719 6.757812 12.328125 6.625 12.464844 L 4.679688 14.410156 C 4.480469 14.609375 4.429688 14.902344 4.527344 15.148438 C 4.5625 15.066406 4.613281 14.988281 4.679688 14.917969 L 6.625 12.972656 C 6.757812 12.839844 6.933594 12.773438 7.109375 12.773438 C 7.1875 12.773438 7.269531 12.785156 7.34375 12.8125 C 7.40625 12.6875 7.492188 12.570312 7.597656 12.464844 C 7.460938 12.328125 7.285156 12.261719 7.109375 12.261719 Z M 7.214844 13.691406 C 7.136719 14.121094 7.261719 14.582031 7.597656 14.917969 C 8.136719 15.457031 9.003906 15.457031 9.542969 14.917969 C 9.609375 14.988281 9.660156 15.066406 9.695312 15.148438 C 9.792969 14.902344 9.742188 14.609375 9.542969 14.410156 C 9.003906 14.949219 8.136719 14.949219 7.597656 14.410156 C 7.394531 14.203125 7.265625 13.953125 7.214844 13.691406 Z M 1.734375 15.148438 C 1.664062 16.109375 1.996094 17.097656 2.734375 17.835938 L 4.679688 19.78125 C 6.027344 21.125 8.195312 21.125 9.542969 19.78125 L 11.484375 17.835938 C 12.222656 17.097656 12.558594 16.109375 12.484375 15.148438 C 12.425781 15.941406 12.09375 16.71875 11.484375 17.324219 L 9.542969 19.269531 C 8.195312 20.617188 6.027344 20.617188 4.679688 19.269531 L 2.734375 17.324219 C 2.128906 16.71875 1.796875 15.941406 1.734375 15.148438 Z M 1.734375 15.148438 "/>
</g>
</svg>
