
<svg xmlns="http://www.w3.org/2000/svg" xmlns:xlink="http://www.w3.org/1999/xlink" width="16" height="16" viewBox="0 0 16 16" version="1.1">
<defs>
<linearGradient id="linear0" gradientUnits="userSpaceOnUse" x1="8.466666" y1="-199.125" x2="8.466666" y2="-213.941666" gradientTransform="matrix(0.944882,0,0,0.944882,0,203.149617)">
<stop offset="0" style="stop-color:rgb(0%,0%,0%);stop-opacity:0.2;"/>
<stop offset="1" style="stop-color:rgb(100%,100%,100%);stop-opacity:0;"/>
</linearGradient>
</defs>
<g id="surface1">
<path style=" stroke:none;fill-rule:nonzero;fill:rgb(25.882354%,64.705884%,96.078432%);fill-opacity:1;" d="M 8 1.003906 C 4.953125 1.003906 2.496094 3.675781 2.5 7 C 2.503906 11 6.003906 14.996094 8 14.996094 C 10 14.996094 13.5 11 13.5 7 C 13.5 3.675781 11.046875 1.003906 8 1.003906 Z M 8 1.003906 "/>
<path style=" stroke:none;fill-rule:nonzero;fill:rgb(93.333334%,93.333334%,93.333334%);fill-opacity:1;" d="M 4 6.5 C 5.5 6.5 7.5 6.5 7.5 9.5 C 4 9.5 4 8 4 6.5 Z M 4 6.5 "/>
<path style=" stroke:none;fill-rule:nonzero;fill:rgb(93.333334%,93.333334%,93.333334%);fill-opacity:1;" d="M 12 6.5 C 10.5 6.5 8.5 6.5 8.5 9.5 C 12 9.5 12 8 12 6.5 Z M 12 6.5 "/>
<path style=" stroke:none;fill-rule:nonzero;fill:rgb(98.039216%,98.039216%,98.039216%);fill-opacity:1;" d="M 4.5 7 C 4.75 7 5.082031 7 5.082031 7.5 C 4.5 7.5 4.5 7.25 4.5 7 Z M 4.5 7 "/>
<path style=" stroke:none;fill-rule:nonzero;fill:rgb(98.039216%,98.039216%,98.039216%);fill-opacity:1;" d="M 9.875 7.195312 C 9.660156 7.195312 9.375 7.195312 9.375 7.625 C 9.875 7.625 9.875 7.410156 9.875 7.195312 Z M 9.875 7.195312 "/>
<path style=" stroke:none;fill-rule:nonzero;fill:rgb(100%,100%,100%);fill-opacity:0.4;" d="M 8 1.003906 C 4.953125 1.003906 2.496094 3.675781 2.5 7 C 2.5 7.039062 2.5 7.074219 2.5 7.109375 C 2.5625 3.851562 4.996094 1.25 8 1.25 C 11.007812 1.25 13.4375 3.859375 13.5 7.121094 C 13.5 7.082031 13.5 7.039062 13.5 7 C 13.5 3.675781 11.046875 1.003906 8 1.003906 Z M 8 1.003906 "/>
<path style=" stroke:none;fill-rule:nonzero;fill:rgb(0%,0%,0%);fill-opacity:0.4;" d="M 2.5 6.863281 C 2.5 6.910156 2.5 6.953125 2.5 7 C 2.503906 11 6.003906 14.996094 8 14.996094 C 10 14.996094 13.5 11 13.5 7 C 13.5 6.957031 13.5 6.917969 13.5 6.875 C 13.429688 10.832031 9.980469 14.75 8 14.75 C 6.019531 14.75 2.570312 10.824219 2.5 6.863281 Z M 2.5 6.863281 "/>
<path style=" stroke:none;fill-rule:nonzero;fill:rgb(0%,0%,0%);fill-opacity:0.2;" d="M 2.503906 7.191406 C 2.5 7.253906 2.5 7.3125 2.5 7.375 C 2.503906 11.375 6.003906 15.375 8 15.375 C 10 15.375 13.5 11.375 13.5 7.375 C 13.5 7.316406 13.5 7.257812 13.496094 7.199219 C 13.386719 11.128906 9.96875 15 8 15 C 6.035156 15 2.613281 11.125 2.503906 7.191406 Z M 2.503906 7.191406 "/>
<path style=" stroke:none;fill-rule:nonzero;fill:rgb(100%,100%,100%);fill-opacity:0.4;" d="M 4 6.5 C 4 6.542969 4 6.582031 4 6.625 C 5.480469 6.625 7.445312 6.625 7.5 9.5 C 7.5 6.5 5.5 6.5 4 6.5 Z M 11.859375 6.5 C 10.375 6.503906 8.5 6.59375 8.5 9.5 C 8.554688 6.714844 10.398438 6.628906 11.859375 6.625 C 11.90625 6.625 11.953125 6.625 12 6.625 C 12 6.582031 12 6.542969 12 6.5 C 11.953125 6.5 11.90625 6.5 11.859375 6.5 Z M 11.859375 6.5 "/>
<path style=" stroke:none;fill-rule:nonzero;fill:rgb(0%,0%,0%);fill-opacity:0.2;" d="M 4 6.75 C 4 8.25 4 9.75 7.5 9.75 C 7.5 9.664062 7.5 9.582031 7.496094 9.5 C 4.195312 9.5 4.011719 8.160156 4 6.75 Z M 12 6.75 C 11.988281 8.160156 11.804688 9.5 8.503906 9.5 C 8.5 9.582031 8.5 9.664062 8.5 9.75 C 12 9.75 12 8.25 12 6.75 Z M 12 6.75 "/>
<path style=" stroke:none;fill-rule:nonzero;fill:url(#linear0);" d="M 8 1.003906 C 4.953125 1.003906 2.496094 3.675781 2.5 7 C 2.503906 11 6.003906 14.996094 8 14.996094 C 10 14.996094 13.5 11 13.5 7 C 13.5 3.675781 11.046875 1.003906 8 1.003906 Z M 8 1.003906 "/>
</g>
</svg>
