
<svg xmlns="http://www.w3.org/2000/svg" xmlns:xlink="http://www.w3.org/1999/xlink" width="16" height="16" viewBox="0 0 16 16" version="1.1">
<defs>
<linearGradient id="linear0" gradientUnits="userSpaceOnUse" x1="8.466666" y1="-200.183334" x2="8.466666" y2="-212.883331" gradientTransform="matrix(0.944882,0,0,0.944882,-0.999999,203.149617)">
<stop offset="0" style="stop-color:rgb(0%,0%,0%);stop-opacity:0.2;"/>
<stop offset="1" style="stop-color:rgb(100%,100%,100%);stop-opacity:0;"/>
</linearGradient>
</defs>
<g id="surface1">
<path style=" stroke:none;fill-rule:nonzero;fill:rgb(38.039216%,38.039216%,38.039216%);fill-opacity:1;" d="M 2 2 L 14 2 C 14.550781 2 15 2.449219 15 3 L 15 13 C 15 13.550781 14.550781 14 14 14 L 2 14 C 1.449219 14 1 13.550781 1 13 L 1 3 C 1 2.449219 1.449219 2 2 2 Z M 2 2 "/>
<path style=" stroke:none;fill-rule:nonzero;fill:rgb(100%,100%,100%);fill-opacity:0.4;" d="M 2 2 C 1.445312 2 1 2.445312 1 3 L 1 3.242188 C 1 2.6875 1.445312 2.242188 2 2.242188 L 14 2.242188 C 14.554688 2.242188 15 2.6875 15 3.242188 L 15 3 C 15 2.445312 14.554688 2 14 2 Z M 2 2 "/>
<path style=" stroke:none;fill-rule:nonzero;fill:rgb(0.392157%,0.392157%,0.392157%);fill-opacity:0.4;" d="M 2 14 C 1.445312 14 1 13.550781 1 12.996094 L 1 12.753906 C 1 13.308594 1.445312 13.753906 2 13.753906 L 14 13.753906 C 14.554688 13.753906 15 13.308594 15 12.753906 L 15 12.996094 C 15 13.550781 14.554688 14 14 14 Z M 2 14 "/>
<path style=" stroke:none;fill-rule:nonzero;fill:rgb(0%,0%,0%);fill-opacity:0.2;" d="M 1 13 L 1 13.375 C 1 13.929688 1.445312 14.375 2 14.375 L 14 14.375 C 14.554688 14.375 15 13.929688 15 13.375 L 15 13 C 15 13.554688 14.554688 14 14 14 L 2 14 C 1.445312 14 1 13.554688 1 13 Z M 1 13 "/>
<path style=" stroke:none;fill-rule:nonzero;fill:rgb(55.29412%,43.137255%,38.82353%);fill-opacity:1;" d="M 2.5 3 L 13.5 3 C 13.777344 3 14 3.222656 14 3.5 L 14 12.5 C 14 12.777344 13.777344 13 13.5 13 L 2.5 13 C 2.222656 13 2 12.777344 2 12.5 L 2 3.5 C 2 3.222656 2.222656 3 2.5 3 Z M 2.5 3 "/>
<path style=" stroke:none;fill-rule:nonzero;fill:rgb(100%,100%,100%);fill-opacity:0.4;" d="M 2 12.5 L 2 12.75 C 2 13.027344 2.222656 13.25 2.5 13.25 L 13.5 13.25 C 13.777344 13.25 14 13.027344 14 12.75 L 14 12.5 C 14 12.777344 13.777344 13 13.5 13 L 2.5 13 C 2.222656 13 2 12.777344 2 12.5 Z M 2 12.5 "/>
<path style=" stroke:none;fill-rule:nonzero;fill:rgb(8.235294%,8.235294%,8.235294%);fill-opacity:0.4;" d="M 2 3.75 L 2 3.5 C 2 3.222656 2.222656 3 2.5 3 L 13.5 3 C 13.777344 3 14 3.222656 14 3.5 L 14 3.75 C 14 3.472656 13.777344 3.25 13.5 3.25 L 2.5 3.25 C 2.222656 3.25 2 3.472656 2 3.75 Z M 2 3.75 "/>
<path style=" stroke:none;fill-rule:nonzero;fill:rgb(87.843138%,87.843138%,87.843138%);fill-opacity:1;" d="M 5.632812 12.5 L 7.382812 12.5 C 7.449219 12.5 7.507812 12.554688 7.507812 12.625 L 7.507812 12.875 C 7.507812 12.945312 7.449219 13 7.382812 13 L 5.632812 13 C 5.5625 13 5.507812 12.945312 5.507812 12.875 L 5.507812 12.625 C 5.507812 12.554688 5.5625 12.5 5.632812 12.5 Z M 5.632812 12.5 "/>
<path style=" stroke:none;fill-rule:nonzero;fill:rgb(100%,100%,100%);fill-opacity:0.8;" d="M 5.625 12.5 C 5.558594 12.503906 5.507812 12.558594 5.507812 12.625 L 5.507812 12.742188 C 5.507812 12.675781 5.5625 12.625 5.632812 12.625 L 7.382812 12.625 C 7.449219 12.625 7.503906 12.675781 7.507812 12.742188 L 7.507812 12.625 C 7.507812 12.554688 7.449219 12.5 7.382812 12.5 L 5.632812 12.5 C 5.628906 12.5 5.628906 12.5 5.625 12.5 Z M 5.625 12.5 "/>
<path style=" stroke:none;fill-rule:nonzero;fill:rgb(0%,0%,0%);fill-opacity:0.4;" d="M 5.507812 12.757812 L 5.507812 12.875 C 5.507812 12.945312 5.5625 13 5.632812 13 L 7.382812 13 C 7.449219 13 7.507812 12.945312 7.507812 12.875 L 7.507812 12.757812 C 7.503906 12.824219 7.449219 12.875 7.382812 12.875 L 5.632812 12.875 C 5.5625 12.875 5.507812 12.824219 5.507812 12.757812 Z M 5.507812 12.757812 "/>
<path style=" stroke:none;fill-rule:nonzero;fill:rgb(92.54902%,25.098041%,47.843137%);fill-opacity:1;" d="M 8.632812 12.5 L 10.382812 12.5 C 10.449219 12.5 10.507812 12.554688 10.507812 12.625 L 10.507812 12.875 C 10.507812 12.945312 10.449219 13 10.382812 13 L 8.632812 13 C 8.5625 13 8.507812 12.945312 8.507812 12.875 L 8.507812 12.625 C 8.507812 12.554688 8.5625 12.5 8.632812 12.5 Z M 8.632812 12.5 "/>
<path style=" stroke:none;fill-rule:nonzero;fill:rgb(100%,100%,100%);fill-opacity:0.4;" d="M 8.625 12.5 C 8.558594 12.503906 8.507812 12.558594 8.507812 12.625 L 8.507812 12.742188 C 8.507812 12.675781 8.5625 12.625 8.632812 12.625 L 10.382812 12.625 C 10.449219 12.625 10.503906 12.675781 10.507812 12.742188 L 10.507812 12.625 C 10.507812 12.554688 10.449219 12.5 10.382812 12.5 L 8.632812 12.5 C 8.628906 12.5 8.628906 12.5 8.625 12.5 Z M 8.625 12.5 "/>
<path style=" stroke:none;fill-rule:nonzero;fill:rgb(0%,0%,0%);fill-opacity:0.4;" d="M 8.507812 12.757812 L 8.507812 12.875 C 8.507812 12.945312 8.5625 13 8.632812 13 L 10.382812 13 C 10.449219 13 10.507812 12.945312 10.507812 12.875 L 10.507812 12.757812 C 10.503906 12.824219 10.449219 12.875 10.382812 12.875 L 8.632812 12.875 C 8.5625 12.875 8.507812 12.824219 8.507812 12.757812 Z M 8.507812 12.757812 "/>
<path style=" stroke:none;fill-rule:nonzero;fill:rgb(87.843138%,87.843138%,87.843138%);fill-opacity:1;" d="M 7.996094 5 C 7.304688 5 6.75 6.339844 6.75 8 C 6.75 9.660156 7.304688 11 7.996094 11 L 8.003906 11 C 8.695312 11 9.25 9.660156 9.25 8 C 9.25 6.339844 8.695312 5 8.003906 5 Z M 8 5.5 C 8.554688 5.5 9 6.613281 9 8 C 9 9.386719 8.554688 10.5 8 10.5 C 7.445312 10.5 7 9.386719 7 8 C 7 6.613281 7.445312 5.5 8 5.5 Z M 8 5.5 "/>
<path style=" stroke:none;fill-rule:nonzero;fill:rgb(87.843138%,87.843138%,87.843138%);fill-opacity:1;" d="M 10.597656 6.496094 C 10.25 5.898438 8.8125 6.085938 7.375 6.917969 C 5.9375 7.75 5.054688 8.898438 5.398438 9.496094 L 5.402344 9.503906 C 5.75 10.101562 7.1875 9.914062 8.625 9.082031 C 10.0625 8.25 10.945312 7.101562 10.601562 6.503906 Z M 10.164062 6.75 C 10.441406 7.230469 9.699219 8.171875 8.5 8.867188 C 7.300781 9.558594 6.113281 9.730469 5.835938 9.25 C 5.558594 8.769531 6.300781 7.828125 7.5 7.132812 C 8.699219 6.441406 9.886719 6.269531 10.164062 6.75 Z M 10.164062 6.75 "/>
<path style=" stroke:none;fill-rule:nonzero;fill:rgb(87.843138%,87.843138%,87.843138%);fill-opacity:1;" d="M 10.601562 9.496094 C 10.945312 8.898438 10.0625 7.75 8.625 6.917969 C 7.1875 6.085938 5.75 5.898438 5.402344 6.496094 L 5.398438 6.503906 C 5.054688 7.101562 5.9375 8.25 7.375 9.082031 C 8.8125 9.914062 10.25 10.101562 10.597656 9.503906 Z M 10.164062 9.25 C 9.886719 9.730469 8.699219 9.558594 7.5 8.867188 C 6.300781 8.171875 5.558594 7.230469 5.835938 6.75 C 6.113281 6.269531 7.300781 6.441406 8.5 7.132812 C 9.699219 7.828125 10.441406 8.769531 10.164062 9.25 Z M 10.164062 9.25 "/>
<path style=" stroke:none;fill-rule:nonzero;fill:rgb(95.686275%,26.274511%,21.176471%);fill-opacity:1;" d="M 10.816406 6.375 C 10.953125 6.613281 10.871094 6.921875 10.632812 7.058594 C 10.390625 7.195312 10.085938 7.113281 9.949219 6.875 C 9.808594 6.636719 9.890625 6.328125 10.132812 6.191406 C 10.371094 6.054688 10.675781 6.136719 10.816406 6.375 Z M 10.816406 6.375 "/>
<path style=" stroke:none;fill-rule:nonzero;fill:rgb(25.882354%,64.705884%,96.078432%);fill-opacity:1;" d="M 6.050781 9.125 C 6.191406 9.363281 6.109375 9.671875 5.867188 9.808594 C 5.628906 9.945312 5.324219 9.863281 5.183594 9.625 C 5.046875 9.386719 5.128906 9.078125 5.367188 8.941406 C 5.609375 8.804688 5.914062 8.886719 6.050781 9.125 Z M 6.050781 9.125 "/>
<path style=" stroke:none;fill-rule:nonzero;fill:rgb(100%,100%,100%);fill-opacity:0.4;" d="M 10.367188 6.125 C 10.289062 6.125 10.207031 6.148438 10.132812 6.191406 C 9.949219 6.296875 9.859375 6.496094 9.886719 6.6875 C 9.902344 6.539062 9.988281 6.398438 10.132812 6.320312 C 10.371094 6.179688 10.675781 6.261719 10.8125 6.5 C 10.847656 6.5625 10.871094 6.625 10.878906 6.6875 C 10.890625 6.585938 10.871094 6.472656 10.8125 6.375 C 10.71875 6.210938 10.546875 6.121094 10.367188 6.125 Z M 10.367188 6.125 "/>
<path style=" stroke:none;fill-rule:nonzero;fill:rgb(0.784314%,0.784314%,0.784314%);fill-opacity:0.4;" d="M 10.367188 7.25 C 10.289062 7.25 10.207031 7.226562 10.132812 7.183594 C 9.949219 7.078125 9.859375 6.882812 9.886719 6.6875 C 9.902344 6.835938 9.988281 6.976562 10.132812 7.058594 C 10.371094 7.195312 10.675781 7.113281 10.816406 6.875 C 10.847656 6.816406 10.871094 6.75 10.878906 6.6875 C 10.890625 6.792969 10.871094 6.902344 10.816406 7 C 10.71875 7.164062 10.546875 7.257812 10.367188 7.25 Z M 10.367188 7.25 "/>
<path style=" stroke:none;fill-rule:nonzero;fill:rgb(100%,100%,100%);fill-opacity:0.4;" d="M 10.367188 6.125 C 10.289062 6.125 10.207031 6.148438 10.132812 6.191406 C 9.949219 6.296875 9.859375 6.496094 9.886719 6.6875 C 9.902344 6.539062 9.988281 6.398438 10.132812 6.320312 C 10.371094 6.179688 10.675781 6.261719 10.8125 6.5 C 10.847656 6.5625 10.871094 6.625 10.878906 6.6875 C 10.890625 6.585938 10.871094 6.472656 10.8125 6.375 C 10.71875 6.210938 10.546875 6.121094 10.367188 6.125 Z M 10.367188 6.125 "/>
<path style=" stroke:none;fill-rule:nonzero;fill:rgb(0.784314%,0.784314%,0.784314%);fill-opacity:0.4;" d="M 10.367188 7.25 C 10.289062 7.25 10.207031 7.226562 10.132812 7.183594 C 9.949219 7.078125 9.859375 6.882812 9.886719 6.6875 C 9.902344 6.835938 9.988281 6.976562 10.132812 7.058594 C 10.371094 7.195312 10.675781 7.113281 10.816406 6.875 C 10.847656 6.816406 10.871094 6.75 10.878906 6.6875 C 10.890625 6.792969 10.871094 6.902344 10.816406 7 C 10.71875 7.164062 10.546875 7.257812 10.367188 7.25 Z M 10.367188 7.25 "/>
<path style=" stroke:none;fill-rule:nonzero;fill:rgb(100%,100%,100%);fill-opacity:0.4;" d="M 5.605469 8.875 C 5.527344 8.875 5.445312 8.898438 5.371094 8.941406 C 5.1875 9.046875 5.097656 9.246094 5.125 9.4375 C 5.140625 9.289062 5.226562 9.152344 5.371094 9.070312 C 5.609375 8.929688 5.914062 9.011719 6.054688 9.25 C 6.085938 9.3125 6.109375 9.375 6.117188 9.4375 C 6.128906 9.335938 6.109375 9.222656 6.054688 9.125 C 5.957031 8.960938 5.785156 8.871094 5.605469 8.875 Z M 5.605469 8.875 "/>
<path style=" stroke:none;fill-rule:nonzero;fill:rgb(0.784314%,0.784314%,0.784314%);fill-opacity:0.4;" d="M 5.605469 10 C 5.527344 10 5.445312 9.976562 5.371094 9.933594 C 5.1875 9.828125 5.097656 9.632812 5.125 9.4375 C 5.140625 9.585938 5.226562 9.726562 5.371094 9.808594 C 5.609375 9.945312 5.914062 9.863281 6.054688 9.625 C 6.085938 9.566406 6.109375 9.5 6.117188 9.4375 C 6.128906 9.542969 6.109375 9.652344 6.054688 9.75 C 5.957031 9.917969 5.785156 10.007812 5.605469 10 Z M 5.605469 10 "/>
<path style=" stroke:none;fill-rule:nonzero;fill:url(#linear0);" d="M 2 2 L 14 2 C 14.550781 2 15 2.449219 15 3 L 15 13 C 15 13.550781 14.550781 14 14 14 L 2 14 C 1.449219 14 1 13.550781 1 13 L 1 3 C 1 2.449219 1.449219 2 2 2 Z M 2 2 "/>
</g>
</svg>
