
<svg xmlns="http://www.w3.org/2000/svg" xmlns:xlink="http://www.w3.org/1999/xlink" width="16" height="16" viewBox="0 0 16 16" version="1.1">
<defs>
<linearGradient id="linear0" gradientUnits="userSpaceOnUse" x1="8.466666" y1="-199.125" x2="8.466666" y2="-213.941666" gradientTransform="matrix(0.944882,0,0,0.944882,0,203.149617)">
<stop offset="0" style="stop-color:rgb(0%,0%,0%);stop-opacity:0.2;"/>
<stop offset="1" style="stop-color:rgb(100%,100%,100%);stop-opacity:0;"/>
</linearGradient>
</defs>
<g id="surface1">
<path style=" stroke:none;fill-rule:nonzero;fill:rgb(61.960787%,61.960787%,61.960787%);fill-opacity:1;" d="M 4.5 1 L 4.5 5 L 1 5 L 1 7 L 4.5 7 L 4.5 9.5 L 1 9.5 L 1 11.5 L 4.5 11.5 L 4.5 15 L 6.5 15 L 6.5 11.5 L 9.5 11.5 L 9.5 15 L 11.5 15 L 11.5 11.5 L 15 11.5 L 15 9.5 L 11.5 9.5 L 11.5 7 L 15 7 L 15 5 L 11.5 5 L 11.5 1 L 9.5 1 L 9.5 5 L 6.5 5 L 6.5 1 Z M 6.5 7 L 9.5 7 L 9.5 9.5 L 6.5 9.5 Z M 6.5 7 "/>
<path style=" stroke:none;fill-rule:nonzero;fill:rgb(93.333334%,93.333334%,93.333334%);fill-opacity:1;" d="M 10.5 10.5 L 10.5 15 L 14 15 C 14.554688 15 15 14.554688 15 14 L 15 10.5 Z M 10.5 10.5 "/>
<path style=" stroke:none;fill-rule:nonzero;fill:rgb(93.333334%,93.333334%,93.333334%);fill-opacity:1;" d="M 5.75 10.5 L 5.75 15 L 10.25 15 L 10.25 10.5 Z M 5.75 10.5 "/>
<path style=" stroke:none;fill-rule:nonzero;fill:rgb(87.843138%,87.843138%,87.843138%);fill-opacity:1;" d="M 1 10.75 L 1 14 C 1 14.554688 1.445312 15 2 15 L 5.5 15 L 5.5 10.75 Z M 1 10.75 "/>
<path style=" stroke:none;fill-rule:nonzero;fill:rgb(93.333334%,93.333334%,93.333334%);fill-opacity:1;" d="M 10.5 5.75 L 10.5 10.25 L 15 10.25 L 15 5.75 Z M 10.5 5.75 "/>
<path style=" stroke:none;fill-rule:nonzero;fill:rgb(93.333334%,93.333334%,93.333334%);fill-opacity:1;" d="M 5.75 5.75 L 5.75 10.25 L 10.25 10.25 L 10.25 5.75 Z M 5.75 5.75 "/>
<path style=" stroke:none;fill-rule:nonzero;fill:rgb(93.333334%,93.333334%,93.333334%);fill-opacity:1;" d="M 1 5.75 L 1 10.25 L 5.5 10.25 L 5.5 5.75 Z M 1 5.75 "/>
<path style=" stroke:none;fill-rule:nonzero;fill:rgb(93.333334%,93.333334%,93.333334%);fill-opacity:1;" d="M 10.5 1 L 10.5 5.5 L 15 5.5 L 15 2 C 15 1.445312 14.554688 1 14 1 Z M 10.5 1 "/>
<path style=" stroke:none;fill-rule:nonzero;fill:rgb(93.333334%,93.333334%,93.333334%);fill-opacity:1;" d="M 5.75 1 L 5.75 5.5 L 10.25 5.5 L 10.25 1 Z M 5.75 1 "/>
<path style=" stroke:none;fill-rule:nonzero;fill:rgb(93.333334%,93.333334%,93.333334%);fill-opacity:1;" d="M 2 1 C 1.445312 1 1 1.445312 1 2 L 1 5.5 L 5.5 5.5 L 5.5 1 Z M 2 1 "/>
<path style=" stroke:none;fill-rule:nonzero;fill:rgb(100%,100%,100%);fill-opacity:0.6;" d="M 10.5 10.5 L 10.5 10.75 L 15 10.75 L 15 10.5 Z M 10.5 10.5 "/>
<path style=" stroke:none;fill-rule:nonzero;fill:rgb(100%,100%,100%);fill-opacity:0.6;" d="M 5.75 10.5 L 5.75 10.75 L 10.25 10.75 L 10.25 10.5 Z M 5.75 10.5 "/>
<path style=" stroke:none;fill-rule:nonzero;fill:rgb(100%,100%,100%);fill-opacity:0.8;" d="M 10.5 5.75 L 10.5 6 L 15 6 L 15 5.75 Z M 10.5 5.75 "/>
<path style=" stroke:none;fill-rule:nonzero;fill:rgb(100%,100%,100%);fill-opacity:0.8;" d="M 5.75 5.75 L 5.75 6 L 10.25 6 L 10.25 5.75 Z M 5.75 5.75 "/>
<path style=" stroke:none;fill-rule:nonzero;fill:rgb(100%,100%,100%);fill-opacity:0.8;" d="M 1 5.75 L 1 6 L 5.5 6 L 5.5 5.75 Z M 1 5.75 "/>
<path style=" stroke:none;fill-rule:nonzero;fill:rgb(100%,100%,100%);fill-opacity:0.6;" d="M 10.5 1 L 10.5 1.25 L 14 1.25 C 14.554688 1.25 15 1.695312 15 2.25 L 15 2 C 15 1.445312 14.554688 1 14 1 Z M 10.5 1 "/>
<path style=" stroke:none;fill-rule:nonzero;fill:rgb(100%,100%,100%);fill-opacity:0.6;" d="M 5.75 1 L 5.75 1.25 L 10.25 1.25 L 10.25 1 Z M 5.75 1 "/>
<path style=" stroke:none;fill-rule:nonzero;fill:rgb(100%,100%,100%);fill-opacity:0.6;" d="M 2 1 C 1.445312 1 1 1.445312 1 2 L 1 2.25 C 1 1.695312 1.445312 1.25 2 1.25 L 5.5 1.25 L 5.5 1 Z M 2 1 "/>
<path style=" stroke:none;fill-rule:nonzero;fill:rgb(0%,0%,0%);fill-opacity:0.4;" d="M 1 5.5 L 1 5.75 L 5.5 5.75 L 5.5 5.5 Z M 5.75 5.5 L 5.75 5.75 L 10.25 5.75 L 10.25 5.5 Z M 10.5 5.5 L 10.5 5.75 L 15 5.75 L 15 5.5 Z M 1 10.25 L 1 10.5 L 5.5 10.5 L 5.5 10.25 Z M 5.75 10.25 L 5.75 10.5 L 10.25 10.5 L 10.25 10.25 Z M 10.5 10.25 L 10.5 10.5 L 15 10.5 L 15 10.25 Z M 1 14 L 1 14.25 C 1 14.804688 1.445312 15.25 2 15.25 L 5.5 15.25 L 5.5 15 L 2 15 C 1.445312 15 1 14.554688 1 14 Z M 15 14 C 15 14.554688 14.554688 15 14 15 L 10.5 15 L 10.5 15.25 L 14 15.25 C 14.554688 15.25 15 14.804688 15 14.25 Z M 5.75 15 L 5.75 15.25 L 10.25 15.25 L 10.25 15 Z M 5.75 15 "/>
<path style=" stroke:none;fill-rule:nonzero;fill:rgb(0%,0%,0%);fill-opacity:0.2;" d="M 1 14 L 1 14.375 C 1 14.929688 1.445312 15.375 2 15.375 L 14 15.375 C 14.554688 15.375 15 14.929688 15 14.375 L 15 14 C 15 14.550781 14.554688 15 14 15 L 2 15 C 1.445312 15 1 14.550781 1 14 Z M 1 14 "/>
<path style=" stroke:none;fill-rule:nonzero;fill:rgb(99.607843%,99.607843%,99.607843%);fill-opacity:0.6;" d="M 5.75 1 L 5.75 5.25 L 6 5.25 L 6 1.25 Z M 5.75 6 L 5.75 10 L 6 10 L 6 6 Z M 5.75 10.75 L 5.75 14.75 L 6 14.75 L 6 10.75 Z M 5.75 10.75 "/>
<path style=" stroke:none;fill-rule:nonzero;fill:rgb(99.607843%,99.607843%,99.607843%);fill-opacity:0.6;" d="M 10.5 1 L 10.5 5.25 L 10.75 5.25 L 10.75 1.25 Z M 10.5 6 L 10.5 10 L 10.75 10 L 10.75 6 Z M 10.5 10.75 L 10.5 14.75 L 10.75 14.75 L 10.75 10.75 Z M 10.5 10.75 "/>
<path style=" stroke:none;fill-rule:nonzero;fill:url(#linear0);" d="M 2 1 L 14 1 C 14.550781 1 15 1.449219 15 2 L 15 14 C 15 14.550781 14.550781 15 14 15 L 2 15 C 1.449219 15 1 14.550781 1 14 L 1 2 C 1 1.449219 1.449219 1 2 1 Z M 2 1 "/>
<path style=" stroke:none;fill-rule:nonzero;fill:rgb(47.058824%,56.470591%,61.176473%);fill-opacity:1;" d="M 3.609375 3.164062 C 3.757812 3.199219 3.867188 3.265625 3.945312 3.363281 C 4.023438 3.457031 4.0625 3.574219 4.0625 3.722656 C 4.0625 3.9375 3.976562 4.101562 3.8125 4.214844 C 3.644531 4.328125 3.402344 4.382812 3.085938 4.382812 C 2.972656 4.382812 2.859375 4.375 2.746094 4.355469 C 2.632812 4.339844 2.523438 4.3125 2.414062 4.277344 L 2.414062 3.839844 C 2.519531 3.894531 2.621094 3.933594 2.726562 3.960938 C 2.832031 3.988281 2.933594 4 3.035156 4 C 3.183594 4 3.296875 3.976562 3.375 3.921875 C 3.457031 3.871094 3.496094 3.796875 3.496094 3.699219 C 3.496094 3.601562 3.457031 3.527344 3.375 3.476562 C 3.292969 3.421875 3.171875 3.398438 3.011719 3.398438 L 2.789062 3.398438 L 2.789062 3.035156 L 3.023438 3.035156 C 3.167969 3.035156 3.273438 3.011719 3.339844 2.96875 C 3.410156 2.921875 3.445312 2.855469 3.445312 2.765625 C 3.445312 2.679688 3.410156 2.617188 3.34375 2.570312 C 3.277344 2.523438 3.183594 2.5 3.058594 2.5 C 2.96875 2.5 2.875 2.511719 2.785156 2.53125 C 2.691406 2.550781 2.597656 2.582031 2.507812 2.621094 L 2.507812 2.210938 C 2.617188 2.179688 2.726562 2.15625 2.835938 2.140625 C 2.945312 2.125 3.054688 2.117188 3.160156 2.117188 C 3.445312 2.117188 3.65625 2.164062 3.796875 2.257812 C 3.9375 2.347656 4.007812 2.488281 4.007812 2.675781 C 4.007812 2.804688 3.976562 2.910156 3.910156 2.992188 C 3.839844 3.074219 3.742188 3.128906 3.609375 3.164062 Z M 3.609375 3.164062 "/>
<path style=" stroke:none;fill-rule:nonzero;fill:rgb(47.058824%,56.470591%,61.176473%);fill-opacity:1;" d="M 7.371094 3.953125 L 7.867188 3.953125 L 7.867188 2.539062 L 7.359375 2.644531 L 7.359375 2.261719 L 7.867188 2.15625 L 8.402344 2.15625 L 8.402344 3.953125 L 8.898438 3.953125 L 8.898438 4.34375 L 7.371094 4.34375 Z M 7.371094 3.953125 "/>
<path style=" stroke:none;fill-rule:nonzero;fill:rgb(47.058824%,56.470591%,61.176473%);fill-opacity:1;" d="M 12.121094 3.953125 L 12.617188 3.953125 L 12.617188 2.539062 L 12.109375 2.644531 L 12.109375 2.261719 L 12.617188 2.15625 L 13.152344 2.15625 L 13.152344 3.953125 L 13.648438 3.953125 L 13.648438 4.34375 L 12.121094 4.34375 Z M 12.121094 3.953125 "/>
<path style=" stroke:none;fill-rule:nonzero;fill:rgb(47.058824%,56.470591%,61.176473%);fill-opacity:1;" d="M 8.371094 7.914062 C 8.519531 7.949219 8.632812 8.015625 8.707031 8.113281 C 8.785156 8.207031 8.824219 8.324219 8.824219 8.472656 C 8.824219 8.6875 8.742188 8.851562 8.574219 8.964844 C 8.410156 9.078125 8.167969 9.132812 7.847656 9.132812 C 7.734375 9.132812 7.625 9.125 7.511719 9.105469 C 7.398438 9.089844 7.285156 9.0625 7.175781 9.027344 L 7.175781 8.589844 C 7.28125 8.644531 7.386719 8.683594 7.488281 8.710938 C 7.59375 8.738281 7.695312 8.75 7.796875 8.75 C 7.945312 8.75 8.0625 8.726562 8.140625 8.671875 C 8.21875 8.621094 8.261719 8.546875 8.261719 8.449219 C 8.261719 8.351562 8.21875 8.277344 8.136719 8.226562 C 8.054688 8.171875 7.9375 8.148438 7.777344 8.148438 L 7.550781 8.148438 L 7.550781 7.785156 L 7.789062 7.785156 C 7.929688 7.785156 8.035156 7.761719 8.105469 7.71875 C 8.175781 7.671875 8.207031 7.605469 8.207031 7.515625 C 8.207031 7.429688 8.175781 7.367188 8.109375 7.320312 C 8.039062 7.273438 7.945312 7.25 7.820312 7.25 C 7.730469 7.25 7.640625 7.261719 7.546875 7.28125 C 7.453125 7.300781 7.363281 7.332031 7.269531 7.371094 L 7.269531 6.960938 C 7.382812 6.929688 7.492188 6.90625 7.601562 6.890625 C 7.710938 6.875 7.816406 6.867188 7.921875 6.867188 C 8.207031 6.867188 8.417969 6.914062 8.558594 7.007812 C 8.703125 7.097656 8.773438 7.238281 8.773438 7.425781 C 8.773438 7.554688 8.738281 7.660156 8.671875 7.742188 C 8.605469 7.824219 8.503906 7.878906 8.371094 7.914062 Z M 8.371094 7.914062 "/>
<path style=" stroke:none;fill-rule:nonzero;fill:rgb(47.058824%,56.470591%,61.176473%);fill-opacity:1;" d="M 13.121094 7.914062 C 13.269531 7.949219 13.382812 8.015625 13.457031 8.113281 C 13.535156 8.207031 13.574219 8.324219 13.574219 8.472656 C 13.574219 8.6875 13.492188 8.851562 13.324219 8.964844 C 13.160156 9.078125 12.917969 9.132812 12.597656 9.132812 C 12.484375 9.132812 12.375 9.125 12.261719 9.105469 C 12.148438 9.089844 12.035156 9.0625 11.925781 9.027344 L 11.925781 8.589844 C 12.03125 8.644531 12.136719 8.683594 12.238281 8.710938 C 12.34375 8.738281 12.445312 8.75 12.546875 8.75 C 12.695312 8.75 12.8125 8.726562 12.890625 8.671875 C 12.96875 8.621094 13.011719 8.546875 13.011719 8.449219 C 13.011719 8.351562 12.96875 8.277344 12.886719 8.226562 C 12.804688 8.171875 12.6875 8.148438 12.527344 8.148438 L 12.300781 8.148438 L 12.300781 7.785156 L 12.539062 7.785156 C 12.679688 7.785156 12.785156 7.761719 12.855469 7.71875 C 12.925781 7.671875 12.957031 7.605469 12.957031 7.515625 C 12.957031 7.429688 12.925781 7.367188 12.859375 7.320312 C 12.789062 7.273438 12.695312 7.25 12.570312 7.25 C 12.480469 7.25 12.390625 7.261719 12.296875 7.28125 C 12.203125 7.300781 12.113281 7.332031 12.019531 7.371094 L 12.019531 6.960938 C 12.132812 6.929688 12.242188 6.90625 12.351562 6.890625 C 12.460938 6.875 12.566406 6.867188 12.671875 6.867188 C 12.957031 6.867188 13.167969 6.914062 13.308594 7.007812 C 13.453125 7.097656 13.523438 7.238281 13.523438 7.425781 C 13.523438 7.554688 13.488281 7.660156 13.421875 7.742188 C 13.355469 7.824219 13.253906 7.878906 13.121094 7.914062 Z M 13.121094 7.914062 "/>
<path style=" stroke:none;fill-rule:nonzero;fill:rgb(36.078432%,41.960785%,75.294119%);fill-opacity:1;" d="M 3.621094 12.789062 C 3.769531 12.824219 3.882812 12.890625 3.957031 12.988281 C 4.035156 13.082031 4.074219 13.199219 4.074219 13.347656 C 4.074219 13.5625 3.992188 13.726562 3.824219 13.839844 C 3.660156 13.953125 3.417969 14.007812 3.097656 14.007812 C 2.984375 14.007812 2.875 14 2.761719 13.980469 C 2.648438 13.964844 2.535156 13.9375 2.425781 13.902344 L 2.425781 13.464844 C 2.53125 13.519531 2.636719 13.558594 2.738281 13.585938 C 2.84375 13.613281 2.945312 13.625 3.046875 13.625 C 3.195312 13.625 3.3125 13.601562 3.390625 13.546875 C 3.46875 13.496094 3.511719 13.421875 3.511719 13.324219 C 3.511719 13.226562 3.46875 13.152344 3.386719 13.101562 C 3.304688 13.046875 3.1875 13.023438 3.027344 13.023438 L 2.800781 13.023438 L 2.800781 12.660156 L 3.039062 12.660156 C 3.179688 12.660156 3.285156 12.636719 3.355469 12.59375 C 3.425781 12.546875 3.457031 12.480469 3.457031 12.390625 C 3.457031 12.304688 3.425781 12.242188 3.359375 12.195312 C 3.289062 12.148438 3.195312 12.125 3.070312 12.125 C 2.980469 12.125 2.890625 12.136719 2.796875 12.15625 C 2.703125 12.175781 2.613281 12.207031 2.519531 12.246094 L 2.519531 11.835938 C 2.632812 11.804688 2.742188 11.78125 2.851562 11.765625 C 2.960938 11.75 3.066406 11.742188 3.171875 11.742188 C 3.457031 11.742188 3.667969 11.789062 3.808594 11.882812 C 3.953125 11.972656 4.023438 12.113281 4.023438 12.300781 C 4.023438 12.429688 3.988281 12.535156 3.921875 12.617188 C 3.855469 12.699219 3.753906 12.753906 3.621094 12.789062 Z M 3.621094 12.789062 "/>
<path style=" stroke:none;fill-rule:nonzero;fill:rgb(47.058824%,56.470591%,61.176473%);fill-opacity:1;" d="M 3.082031 8.699219 L 4.042969 8.699219 L 4.042969 9.113281 L 2.457031 9.113281 L 2.457031 8.699219 L 3.253906 7.996094 C 3.324219 7.929688 3.378906 7.867188 3.410156 7.804688 C 3.445312 7.742188 3.464844 7.679688 3.464844 7.613281 C 3.464844 7.511719 3.429688 7.429688 3.359375 7.367188 C 3.289062 7.304688 3.199219 7.273438 3.085938 7.273438 C 2.996094 7.273438 2.902344 7.292969 2.796875 7.328125 C 2.691406 7.367188 2.582031 7.421875 2.460938 7.496094 L 2.460938 7.015625 C 2.589844 6.972656 2.714844 6.941406 2.835938 6.921875 C 2.960938 6.898438 3.082031 6.886719 3.203125 6.886719 C 3.464844 6.886719 3.667969 6.945312 3.8125 7.058594 C 3.957031 7.175781 4.03125 7.335938 4.03125 7.542969 C 4.03125 7.660156 4 7.773438 3.9375 7.875 C 3.875 7.976562 3.746094 8.117188 3.550781 8.289062 Z M 3.082031 8.699219 "/>
<path style=" stroke:none;fill-rule:nonzero;fill:rgb(47.058824%,56.470591%,61.176473%);fill-opacity:1;" d="M 7.832031 13.449219 L 8.792969 13.449219 L 8.792969 13.863281 L 7.207031 13.863281 L 7.207031 13.449219 L 8.003906 12.746094 C 8.074219 12.679688 8.128906 12.617188 8.160156 12.554688 C 8.195312 12.492188 8.214844 12.429688 8.214844 12.363281 C 8.214844 12.261719 8.179688 12.179688 8.109375 12.117188 C 8.039062 12.054688 7.949219 12.023438 7.835938 12.023438 C 7.746094 12.023438 7.652344 12.042969 7.546875 12.078125 C 7.441406 12.117188 7.332031 12.171875 7.210938 12.246094 L 7.210938 11.765625 C 7.339844 11.722656 7.464844 11.691406 7.585938 11.671875 C 7.710938 11.648438 7.832031 11.636719 7.953125 11.636719 C 8.214844 11.636719 8.417969 11.695312 8.5625 11.808594 C 8.707031 11.925781 8.78125 12.085938 8.78125 12.292969 C 8.78125 12.410156 8.75 12.523438 8.6875 12.625 C 8.625 12.726562 8.496094 12.867188 8.300781 13.039062 Z M 7.832031 13.449219 "/>
<path style=" stroke:none;fill-rule:nonzero;fill:rgb(100%,100%,100%);fill-opacity:0.6;" d="M 3.058594 2.5 C 2.96875 2.5 2.875 2.511719 2.785156 2.53125 C 2.691406 2.550781 2.597656 2.582031 2.507812 2.621094 L 2.507812 2.777344 C 2.597656 2.738281 2.691406 2.707031 2.785156 2.6875 C 2.875 2.667969 2.96875 2.65625 3.058594 2.65625 C 3.179688 2.65625 3.277344 2.679688 3.34375 2.726562 C 3.390625 2.757812 3.417969 2.796875 3.433594 2.84375 C 3.441406 2.820312 3.445312 2.792969 3.445312 2.765625 C 3.445312 2.679688 3.410156 2.617188 3.34375 2.570312 C 3.277344 2.523438 3.179688 2.5 3.058594 2.5 Z M 7.867188 2.539062 L 7.359375 2.644531 L 7.359375 2.800781 L 7.867188 2.695312 Z M 12.617188 2.539062 L 12.109375 2.644531 L 12.109375 2.800781 L 12.617188 2.695312 Z M 4.003906 2.769531 C 3.992188 2.855469 3.960938 2.929688 3.910156 2.992188 C 3.839844 3.074219 3.742188 3.128906 3.609375 3.164062 C 3.683594 3.183594 3.746094 3.207031 3.800781 3.238281 C 3.84375 3.214844 3.878906 3.183594 3.910156 3.148438 C 3.976562 3.066406 4.007812 2.960938 4.007812 2.832031 C 4.007812 2.808594 4.003906 2.789062 4.003906 2.769531 Z M 2.789062 3.398438 L 2.789062 3.554688 L 3.011719 3.554688 C 3.171875 3.554688 3.292969 3.578125 3.375 3.632812 C 3.433594 3.667969 3.46875 3.71875 3.484375 3.777344 C 3.492188 3.753906 3.496094 3.730469 3.496094 3.699219 C 3.496094 3.601562 3.457031 3.527344 3.375 3.476562 C 3.292969 3.421875 3.171875 3.398438 3.011719 3.398438 Z M 4.054688 3.804688 C 4.035156 3.980469 3.953125 4.117188 3.8125 4.214844 C 3.644531 4.328125 3.402344 4.382812 3.085938 4.382812 C 2.972656 4.382812 2.859375 4.375 2.746094 4.355469 C 2.632812 4.339844 2.523438 4.3125 2.414062 4.277344 L 2.414062 4.433594 C 2.523438 4.46875 2.632812 4.496094 2.746094 4.511719 C 2.859375 4.53125 2.972656 4.539062 3.085938 4.539062 C 3.402344 4.539062 3.644531 4.484375 3.8125 4.371094 C 3.976562 4.257812 4.0625 4.09375 4.0625 3.878906 C 4.0625 3.851562 4.058594 3.828125 4.054688 3.804688 Z M 7.371094 4.34375 L 7.371094 4.5 L 8.898438 4.5 L 8.898438 4.34375 Z M 12.121094 4.34375 L 12.121094 4.5 L 13.648438 4.5 L 13.648438 4.34375 Z M 7.820312 7.25 C 7.730469 7.25 7.640625 7.261719 7.546875 7.28125 C 7.453125 7.300781 7.363281 7.332031 7.269531 7.371094 L 7.269531 7.527344 C 7.363281 7.488281 7.453125 7.457031 7.546875 7.4375 C 7.640625 7.417969 7.730469 7.40625 7.820312 7.40625 C 7.945312 7.40625 8.039062 7.429688 8.109375 7.476562 C 8.152344 7.507812 8.179688 7.546875 8.195312 7.59375 C 8.203125 7.570312 8.207031 7.542969 8.207031 7.515625 C 8.207031 7.429688 8.175781 7.367188 8.109375 7.320312 C 8.039062 7.273438 7.945312 7.25 7.820312 7.25 Z M 12.570312 7.25 C 12.480469 7.25 12.390625 7.261719 12.296875 7.28125 C 12.203125 7.300781 12.109375 7.332031 12.019531 7.371094 L 12.019531 7.527344 C 12.109375 7.488281 12.203125 7.457031 12.296875 7.4375 C 12.390625 7.417969 12.480469 7.40625 12.570312 7.40625 C 12.695312 7.40625 12.789062 7.429688 12.859375 7.476562 C 12.902344 7.507812 12.929688 7.546875 12.945312 7.59375 C 12.953125 7.570312 12.957031 7.542969 12.957031 7.515625 C 12.957031 7.429688 12.925781 7.367188 12.859375 7.320312 C 12.789062 7.273438 12.695312 7.25 12.570312 7.25 Z M 3.085938 7.273438 C 2.996094 7.273438 2.902344 7.289062 2.796875 7.328125 C 2.691406 7.367188 2.578125 7.421875 2.460938 7.496094 L 2.460938 7.652344 C 2.578125 7.578125 2.691406 7.523438 2.796875 7.484375 C 2.902344 7.445312 2.996094 7.429688 3.085938 7.429688 C 3.199219 7.429688 3.289062 7.460938 3.359375 7.523438 C 3.40625 7.566406 3.4375 7.621094 3.453125 7.6875 C 3.457031 7.660156 3.460938 7.636719 3.460938 7.613281 C 3.464844 7.511719 3.429688 7.429688 3.359375 7.367188 C 3.289062 7.304688 3.199219 7.273438 3.085938 7.273438 Z M 8.765625 7.519531 C 8.753906 7.605469 8.722656 7.679688 8.671875 7.742188 C 8.605469 7.824219 8.503906 7.878906 8.371094 7.914062 C 8.445312 7.933594 8.507812 7.957031 8.5625 7.988281 C 8.605469 7.964844 8.640625 7.933594 8.671875 7.898438 C 8.738281 7.816406 8.773438 7.710938 8.773438 7.582031 C 8.773438 7.558594 8.769531 7.539062 8.765625 7.519531 Z M 13.515625 7.519531 C 13.503906 7.605469 13.472656 7.679688 13.421875 7.742188 C 13.355469 7.824219 13.253906 7.878906 13.121094 7.914062 C 13.195312 7.933594 13.257812 7.957031 13.3125 7.988281 C 13.355469 7.964844 13.390625 7.933594 13.421875 7.898438 C 13.488281 7.816406 13.523438 7.710938 13.523438 7.582031 C 13.523438 7.558594 13.519531 7.539062 13.515625 7.519531 Z M 4.023438 7.632812 C 4.011719 7.71875 3.984375 7.796875 3.9375 7.875 C 3.875 7.976562 3.746094 8.117188 3.550781 8.289062 L 3.082031 8.699219 L 3.261719 8.699219 L 3.550781 8.445312 C 3.746094 8.273438 3.875 8.132812 3.9375 8.03125 C 4 7.929688 4.03125 7.816406 4.03125 7.699219 C 4.03125 7.675781 4.023438 7.652344 4.023438 7.632812 Z M 7.550781 8.148438 L 7.550781 8.304688 L 7.777344 8.304688 C 7.9375 8.304688 8.054688 8.328125 8.136719 8.382812 C 8.195312 8.417969 8.230469 8.46875 8.25 8.527344 C 8.253906 8.503906 8.257812 8.480469 8.257812 8.449219 C 8.261719 8.351562 8.21875 8.277344 8.136719 8.226562 C 8.054688 8.171875 7.9375 8.148438 7.777344 8.148438 Z M 12.300781 8.148438 L 12.300781 8.304688 L 12.527344 8.304688 C 12.6875 8.304688 12.804688 8.328125 12.886719 8.382812 C 12.945312 8.417969 12.980469 8.46875 13 8.527344 C 13.003906 8.503906 13.011719 8.480469 13.007812 8.449219 C 13.007812 8.351562 12.96875 8.277344 12.886719 8.226562 C 12.804688 8.171875 12.6875 8.148438 12.527344 8.148438 Z M 8.820312 8.554688 C 8.800781 8.730469 8.71875 8.867188 8.574219 8.964844 C 8.410156 9.078125 8.167969 9.132812 7.847656 9.132812 C 7.734375 9.132812 7.625 9.125 7.507812 9.105469 C 7.398438 9.089844 7.285156 9.0625 7.175781 9.027344 L 7.175781 9.183594 C 7.285156 9.21875 7.398438 9.246094 7.507812 9.261719 C 7.625 9.28125 7.734375 9.289062 7.847656 9.289062 C 8.167969 9.289062 8.410156 9.234375 8.574219 9.121094 C 8.742188 9.007812 8.824219 8.84375 8.824219 8.628906 C 8.824219 8.601562 8.820312 8.578125 8.820312 8.554688 Z M 13.570312 8.554688 C 13.550781 8.730469 13.46875 8.867188 13.324219 8.964844 C 13.160156 9.078125 12.917969 9.132812 12.597656 9.132812 C 12.484375 9.132812 12.375 9.125 12.257812 9.105469 C 12.148438 9.089844 12.035156 9.0625 11.925781 9.027344 L 11.925781 9.183594 C 12.035156 9.21875 12.148438 9.246094 12.257812 9.261719 C 12.375 9.28125 12.484375 9.289062 12.597656 9.289062 C 12.917969 9.289062 13.160156 9.234375 13.324219 9.121094 C 13.492188 9.007812 13.574219 8.84375 13.574219 8.628906 C 13.574219 8.601562 13.570312 8.578125 13.570312 8.554688 Z M 2.457031 9.113281 L 2.457031 9.269531 L 4.042969 9.269531 L 4.042969 9.113281 Z M 7.835938 12.023438 C 7.746094 12.023438 7.652344 12.039062 7.546875 12.078125 C 7.441406 12.117188 7.328125 12.171875 7.210938 12.246094 L 7.210938 12.402344 C 7.328125 12.328125 7.441406 12.273438 7.546875 12.234375 C 7.652344 12.195312 7.746094 12.179688 7.835938 12.179688 C 7.949219 12.179688 8.039062 12.210938 8.109375 12.273438 C 8.15625 12.316406 8.1875 12.371094 8.203125 12.4375 C 8.207031 12.410156 8.210938 12.386719 8.210938 12.363281 C 8.210938 12.261719 8.179688 12.179688 8.109375 12.117188 C 8.039062 12.054688 7.949219 12.023438 7.835938 12.023438 Z M 12.585938 12.023438 C 12.496094 12.023438 12.402344 12.039062 12.296875 12.078125 C 12.191406 12.117188 12.078125 12.171875 11.960938 12.246094 L 11.960938 12.402344 C 12.078125 12.328125 12.191406 12.273438 12.296875 12.234375 C 12.402344 12.195312 12.496094 12.179688 12.585938 12.179688 C 12.699219 12.179688 12.789062 12.210938 12.859375 12.273438 C 12.90625 12.316406 12.9375 12.371094 12.953125 12.4375 C 12.957031 12.410156 12.960938 12.386719 12.960938 12.363281 C 12.964844 12.261719 12.929688 12.179688 12.859375 12.117188 C 12.789062 12.054688 12.699219 12.023438 12.585938 12.023438 Z M 3.070312 12.125 C 2.980469 12.125 2.890625 12.136719 2.796875 12.15625 C 2.703125 12.175781 2.613281 12.207031 2.519531 12.246094 L 2.519531 12.402344 C 2.613281 12.363281 2.703125 12.332031 2.796875 12.3125 C 2.890625 12.292969 2.980469 12.28125 3.070312 12.28125 C 3.195312 12.28125 3.289062 12.304688 3.359375 12.351562 C 3.402344 12.382812 3.429688 12.421875 3.445312 12.46875 C 3.453125 12.445312 3.457031 12.417969 3.457031 12.390625 C 3.457031 12.304688 3.425781 12.238281 3.359375 12.195312 C 3.289062 12.148438 3.195312 12.125 3.070312 12.125 Z M 8.773438 12.382812 C 8.761719 12.46875 8.734375 12.546875 8.6875 12.625 C 8.625 12.726562 8.496094 12.867188 8.300781 13.039062 L 7.832031 13.449219 L 8.011719 13.449219 L 8.300781 13.195312 C 8.496094 13.023438 8.625 12.882812 8.6875 12.78125 C 8.75 12.679688 8.78125 12.566406 8.78125 12.449219 C 8.78125 12.425781 8.773438 12.402344 8.773438 12.382812 Z M 13.523438 12.382812 C 13.511719 12.46875 13.484375 12.546875 13.4375 12.625 C 13.375 12.726562 13.246094 12.867188 13.050781 13.039062 L 12.582031 13.449219 L 12.761719 13.449219 L 13.050781 13.195312 C 13.246094 13.023438 13.375 12.882812 13.4375 12.78125 C 13.5 12.679688 13.53125 12.566406 13.53125 12.449219 C 13.53125 12.425781 13.523438 12.402344 13.523438 12.382812 Z M 4.015625 12.394531 C 4.003906 12.480469 3.972656 12.554688 3.921875 12.617188 C 3.855469 12.695312 3.753906 12.753906 3.621094 12.789062 C 3.695312 12.804688 3.757812 12.832031 3.8125 12.863281 C 3.855469 12.839844 3.890625 12.808594 3.921875 12.773438 C 3.988281 12.691406 4.023438 12.585938 4.023438 12.457031 C 4.023438 12.433594 4.019531 12.414062 4.015625 12.394531 Z M 2.800781 13.023438 L 2.800781 13.179688 L 3.027344 13.179688 C 3.1875 13.179688 3.304688 13.203125 3.386719 13.253906 C 3.445312 13.292969 3.484375 13.339844 3.5 13.402344 C 3.503906 13.378906 3.507812 13.351562 3.507812 13.324219 C 3.511719 13.226562 3.46875 13.148438 3.386719 13.097656 C 3.304688 13.046875 3.1875 13.023438 3.027344 13.023438 Z M 4.070312 13.429688 C 4.050781 13.605469 3.96875 13.742188 3.824219 13.839844 C 3.660156 13.953125 3.417969 14.007812 3.097656 14.007812 C 2.988281 14.007812 2.875 14 2.757812 13.980469 C 2.648438 13.964844 2.535156 13.9375 2.425781 13.902344 L 2.425781 14.058594 C 2.535156 14.09375 2.648438 14.121094 2.757812 14.136719 C 2.875 14.15625 2.988281 14.164062 3.097656 14.164062 C 3.417969 14.164062 3.660156 14.109375 3.824219 13.996094 C 3.992188 13.882812 4.074219 13.71875 4.074219 13.5 C 4.074219 13.476562 4.070312 13.453125 4.070312 13.429688 Z M 7.203125 13.863281 L 7.203125 14.019531 L 8.792969 14.019531 L 8.792969 13.863281 Z M 11.953125 13.863281 L 11.953125 14.019531 L 13.542969 14.019531 L 13.542969 13.863281 Z M 11.953125 13.863281 "/>
<path style=" stroke:none;fill-rule:nonzero;fill:rgb(47.058824%,56.470591%,61.176473%);fill-opacity:1;" d="M 12.582031 13.449219 L 13.542969 13.449219 L 13.542969 13.863281 L 11.957031 13.863281 L 11.957031 13.449219 L 12.753906 12.746094 C 12.824219 12.679688 12.878906 12.617188 12.910156 12.554688 C 12.945312 12.492188 12.964844 12.429688 12.964844 12.363281 C 12.964844 12.261719 12.929688 12.179688 12.859375 12.117188 C 12.789062 12.054688 12.699219 12.023438 12.585938 12.023438 C 12.496094 12.023438 12.402344 12.042969 12.296875 12.078125 C 12.191406 12.117188 12.082031 12.171875 11.960938 12.246094 L 11.960938 11.765625 C 12.089844 11.722656 12.214844 11.691406 12.335938 11.671875 C 12.460938 11.648438 12.582031 11.636719 12.703125 11.636719 C 12.964844 11.636719 13.167969 11.695312 13.3125 11.808594 C 13.457031 11.925781 13.53125 12.085938 13.53125 12.292969 C 13.53125 12.410156 13.5 12.523438 13.4375 12.625 C 13.375 12.726562 13.246094 12.867188 13.050781 13.039062 Z M 12.582031 13.449219 "/>
<path style=" stroke:none;fill-rule:nonzero;fill:rgb(97.647059%,97.647059%,97.647059%);fill-opacity:0.6;" d="M 1 6 L 1.25 6 L 1.25 10.25 L 1 10.25 Z M 1 6 "/>
<path style=" stroke:none;fill-rule:nonzero;fill:rgb(97.647059%,97.647059%,97.647059%);fill-opacity:0.6;" d="M 1 2 L 1.25 1.5 L 1.25 5.5 L 1 5.5 Z M 1 2 "/>
<path style=" stroke:none;fill-rule:nonzero;fill:rgb(0%,0%,0%);fill-opacity:0.4;" d="M 3.160156 2.117188 C 3.054688 2.117188 2.945312 2.125 2.835938 2.140625 C 2.726562 2.15625 2.617188 2.179688 2.507812 2.210938 L 2.507812 2.367188 C 2.617188 2.335938 2.726562 2.3125 2.835938 2.296875 C 2.945312 2.28125 3.054688 2.273438 3.160156 2.273438 C 3.445312 2.273438 3.65625 2.320312 3.796875 2.414062 C 3.921875 2.492188 3.988281 2.613281 4.003906 2.769531 C 4.007812 2.738281 4.007812 2.707031 4.007812 2.675781 C 4.007812 2.488281 3.9375 2.347656 3.796875 2.257812 C 3.65625 2.164062 3.445312 2.117188 3.160156 2.117188 Z M 7.867188 2.15625 L 7.359375 2.261719 L 7.359375 2.417969 L 7.867188 2.3125 L 8.402344 2.3125 L 8.402344 2.15625 Z M 12.617188 2.15625 L 12.109375 2.261719 L 12.109375 2.417969 L 12.617188 2.3125 L 13.152344 2.3125 L 13.152344 2.15625 Z M 3.433594 2.84375 C 3.417969 2.894531 3.386719 2.9375 3.339844 2.96875 C 3.273438 3.011719 3.167969 3.035156 3.023438 3.035156 L 2.789062 3.035156 L 2.789062 3.191406 L 3.023438 3.191406 C 3.167969 3.191406 3.273438 3.167969 3.339844 3.125 C 3.410156 3.078125 3.445312 3.011719 3.445312 2.921875 C 3.445312 2.894531 3.441406 2.867188 3.433594 2.84375 Z M 3.800781 3.238281 C 3.746094 3.273438 3.683594 3.300781 3.609375 3.320312 C 3.757812 3.355469 3.867188 3.421875 3.945312 3.519531 C 4.007812 3.597656 4.046875 3.691406 4.054688 3.804688 C 4.058594 3.777344 4.0625 3.75 4.0625 3.722656 C 4.0625 3.574219 4.023438 3.457031 3.945312 3.363281 C 3.90625 3.3125 3.859375 3.273438 3.800781 3.238281 Z M 3.484375 3.777344 C 3.46875 3.835938 3.433594 3.886719 3.375 3.921875 C 3.296875 3.976562 3.183594 4 3.035156 4 C 2.933594 4 2.832031 3.988281 2.726562 3.960938 C 2.621094 3.933594 2.519531 3.894531 2.414062 3.839844 L 2.414062 3.996094 C 2.519531 4.050781 2.621094 4.089844 2.726562 4.117188 C 2.832031 4.144531 2.933594 4.15625 3.035156 4.15625 C 3.183594 4.15625 3.296875 4.132812 3.375 4.078125 C 3.457031 4.027344 3.496094 3.953125 3.496094 3.855469 C 3.496094 3.828125 3.492188 3.800781 3.484375 3.777344 Z M 7.371094 3.953125 L 7.371094 4.109375 L 7.867188 4.109375 L 7.867188 3.953125 Z M 8.402344 3.953125 L 8.402344 4.109375 L 8.898438 4.109375 L 8.898438 3.953125 Z M 12.121094 3.953125 L 12.121094 4.109375 L 12.617188 4.109375 L 12.617188 3.953125 Z M 13.152344 3.953125 L 13.152344 4.109375 L 13.648438 4.109375 L 13.648438 3.953125 Z M 7.921875 6.867188 C 7.816406 6.867188 7.710938 6.875 7.601562 6.890625 C 7.492188 6.90625 7.382812 6.929688 7.269531 6.960938 L 7.269531 7.117188 C 7.382812 7.085938 7.492188 7.0625 7.601562 7.046875 C 7.710938 7.03125 7.816406 7.023438 7.921875 7.023438 C 8.207031 7.023438 8.417969 7.070312 8.558594 7.164062 C 8.683594 7.242188 8.75 7.363281 8.765625 7.519531 C 8.769531 7.488281 8.773438 7.457031 8.773438 7.425781 C 8.773438 7.238281 8.703125 7.097656 8.558594 7.007812 C 8.417969 6.914062 8.207031 6.867188 7.921875 6.867188 Z M 12.671875 6.867188 C 12.566406 6.867188 12.460938 6.875 12.351562 6.890625 C 12.242188 6.90625 12.128906 6.929688 12.019531 6.960938 L 12.019531 7.117188 C 12.128906 7.085938 12.242188 7.0625 12.351562 7.046875 C 12.460938 7.03125 12.566406 7.023438 12.671875 7.023438 C 12.957031 7.023438 13.167969 7.070312 13.308594 7.164062 C 13.433594 7.242188 13.5 7.363281 13.515625 7.519531 C 13.519531 7.488281 13.523438 7.457031 13.523438 7.425781 C 13.523438 7.238281 13.453125 7.097656 13.308594 7.007812 C 13.167969 6.914062 12.957031 6.867188 12.671875 6.867188 Z M 3.203125 6.886719 C 3.082031 6.886719 2.960938 6.898438 2.835938 6.921875 C 2.714844 6.941406 2.585938 6.972656 2.460938 7.015625 L 2.460938 7.171875 C 2.585938 7.128906 2.714844 7.097656 2.835938 7.078125 C 2.960938 7.054688 3.082031 7.042969 3.203125 7.042969 C 3.464844 7.042969 3.667969 7.101562 3.8125 7.214844 C 3.941406 7.316406 4.007812 7.457031 4.023438 7.632812 C 4.027344 7.601562 4.03125 7.570312 4.03125 7.542969 C 4.03125 7.335938 3.957031 7.175781 3.8125 7.058594 C 3.667969 6.945312 3.464844 6.886719 3.203125 6.886719 Z M 8.195312 7.59375 C 8.179688 7.644531 8.152344 7.6875 8.105469 7.71875 C 8.035156 7.761719 7.929688 7.785156 7.789062 7.785156 L 7.550781 7.785156 L 7.550781 7.941406 L 7.789062 7.941406 C 7.929688 7.941406 8.035156 7.917969 8.105469 7.875 C 8.175781 7.828125 8.207031 7.761719 8.207031 7.671875 C 8.207031 7.644531 8.203125 7.617188 8.195312 7.59375 Z M 12.945312 7.59375 C 12.929688 7.644531 12.902344 7.6875 12.855469 7.71875 C 12.785156 7.761719 12.679688 7.785156 12.539062 7.785156 L 12.300781 7.785156 L 12.300781 7.941406 L 12.539062 7.941406 C 12.679688 7.941406 12.785156 7.917969 12.855469 7.875 C 12.925781 7.828125 12.957031 7.761719 12.957031 7.671875 C 12.957031 7.644531 12.953125 7.617188 12.945312 7.59375 Z M 3.453125 7.6875 C 3.445312 7.726562 3.433594 7.765625 3.410156 7.804688 C 3.378906 7.867188 3.324219 7.929688 3.253906 7.992188 L 2.457031 8.699219 L 2.457031 8.855469 L 3.253906 8.148438 C 3.324219 8.085938 3.378906 8.023438 3.410156 7.960938 C 3.445312 7.898438 3.460938 7.835938 3.460938 7.769531 C 3.464844 7.738281 3.460938 7.710938 3.453125 7.6875 Z M 13.3125 7.988281 C 13.257812 8.023438 13.195312 8.050781 13.121094 8.070312 C 13.269531 8.105469 13.382812 8.171875 13.457031 8.269531 C 13.523438 8.347656 13.558594 8.441406 13.570312 8.554688 C 13.570312 8.527344 13.574219 8.5 13.574219 8.472656 C 13.574219 8.324219 13.535156 8.207031 13.457031 8.113281 C 13.417969 8.0625 13.371094 8.023438 13.3125 7.988281 Z M 8.5625 7.988281 C 8.507812 8.023438 8.445312 8.050781 8.371094 8.070312 C 8.519531 8.105469 8.632812 8.171875 8.707031 8.269531 C 8.773438 8.347656 8.808594 8.441406 8.820312 8.554688 C 8.824219 8.527344 8.824219 8.5 8.824219 8.472656 C 8.824219 8.324219 8.785156 8.207031 8.707031 8.113281 C 8.667969 8.0625 8.621094 8.023438 8.5625 7.988281 Z M 8.25 8.527344 C 8.234375 8.585938 8.195312 8.636719 8.140625 8.671875 C 8.0625 8.726562 7.945312 8.75 7.796875 8.75 C 7.695312 8.75 7.59375 8.738281 7.488281 8.710938 C 7.386719 8.683594 7.28125 8.644531 7.175781 8.589844 L 7.175781 8.746094 C 7.28125 8.800781 7.386719 8.839844 7.488281 8.867188 C 7.59375 8.894531 7.695312 8.90625 7.796875 8.90625 C 7.945312 8.90625 8.0625 8.882812 8.140625 8.828125 C 8.21875 8.777344 8.257812 8.703125 8.257812 8.605469 C 8.261719 8.578125 8.253906 8.550781 8.25 8.527344 Z M 13 8.527344 C 12.984375 8.585938 12.945312 8.636719 12.890625 8.671875 C 12.8125 8.726562 12.695312 8.75 12.546875 8.75 C 12.445312 8.75 12.34375 8.738281 12.238281 8.710938 C 12.136719 8.683594 12.03125 8.644531 11.925781 8.589844 L 11.925781 8.746094 C 12.03125 8.800781 12.136719 8.839844 12.238281 8.867188 C 12.34375 8.894531 12.445312 8.90625 12.546875 8.90625 C 12.695312 8.90625 12.8125 8.882812 12.890625 8.828125 C 12.96875 8.777344 13.011719 8.703125 13.007812 8.605469 C 13.007812 8.578125 13.003906 8.550781 13 8.527344 Z M 3.261719 8.699219 L 3.082031 8.855469 L 4.042969 8.855469 L 4.042969 8.699219 Z M 7.953125 11.636719 C 7.832031 11.636719 7.710938 11.648438 7.585938 11.671875 C 7.464844 11.691406 7.335938 11.722656 7.210938 11.765625 L 7.210938 11.921875 C 7.335938 11.878906 7.464844 11.847656 7.585938 11.828125 C 7.710938 11.804688 7.832031 11.792969 7.953125 11.792969 C 8.214844 11.792969 8.417969 11.851562 8.5625 11.964844 C 8.691406 12.066406 8.757812 12.207031 8.773438 12.382812 C 8.777344 12.351562 8.78125 12.320312 8.78125 12.292969 C 8.78125 12.085938 8.707031 11.925781 8.5625 11.808594 C 8.417969 11.695312 8.214844 11.636719 7.953125 11.636719 Z M 12.703125 11.636719 C 12.582031 11.636719 12.460938 11.648438 12.335938 11.671875 C 12.214844 11.691406 12.085938 11.722656 11.960938 11.765625 L 11.960938 11.921875 C 12.085938 11.878906 12.214844 11.847656 12.335938 11.828125 C 12.460938 11.804688 12.582031 11.792969 12.703125 11.792969 C 12.964844 11.792969 13.167969 11.851562 13.3125 11.964844 C 13.441406 12.066406 13.507812 12.207031 13.523438 12.382812 C 13.527344 12.351562 13.53125 12.320312 13.53125 12.292969 C 13.53125 12.085938 13.457031 11.925781 13.3125 11.808594 C 13.167969 11.695312 12.964844 11.636719 12.703125 11.636719 Z M 3.171875 11.742188 C 3.066406 11.742188 2.960938 11.75 2.851562 11.765625 C 2.742188 11.777344 2.632812 11.804688 2.519531 11.835938 L 2.519531 11.992188 C 2.632812 11.960938 2.742188 11.933594 2.851562 11.921875 C 2.960938 11.90625 3.066406 11.898438 3.171875 11.898438 C 3.457031 11.898438 3.667969 11.945312 3.808594 12.039062 C 3.933594 12.117188 4 12.238281 4.015625 12.394531 C 4.019531 12.363281 4.023438 12.332031 4.023438 12.300781 C 4.023438 12.113281 3.953125 11.972656 3.808594 11.882812 C 3.667969 11.789062 3.457031 11.742188 3.171875 11.742188 Z M 8.203125 12.4375 C 8.195312 12.476562 8.183594 12.515625 8.160156 12.554688 C 8.128906 12.617188 8.074219 12.679688 8.003906 12.742188 L 7.203125 13.449219 L 7.203125 13.605469 L 8.003906 12.898438 C 8.074219 12.835938 8.128906 12.773438 8.160156 12.710938 C 8.195312 12.648438 8.210938 12.585938 8.210938 12.519531 C 8.210938 12.488281 8.210938 12.460938 8.203125 12.4375 Z M 12.953125 12.4375 C 12.945312 12.476562 12.933594 12.515625 12.910156 12.554688 C 12.878906 12.617188 12.824219 12.679688 12.753906 12.742188 L 11.953125 13.449219 L 11.953125 13.605469 L 12.753906 12.898438 C 12.824219 12.835938 12.878906 12.773438 12.910156 12.710938 C 12.945312 12.648438 12.960938 12.585938 12.960938 12.519531 C 12.964844 12.488281 12.960938 12.460938 12.953125 12.4375 Z M 3.445312 12.46875 C 3.429688 12.519531 3.402344 12.5625 3.355469 12.59375 C 3.285156 12.636719 3.179688 12.660156 3.039062 12.660156 L 2.800781 12.660156 L 2.800781 12.816406 L 3.039062 12.816406 C 3.179688 12.816406 3.285156 12.792969 3.355469 12.75 C 3.425781 12.703125 3.457031 12.636719 3.457031 12.546875 C 3.457031 12.519531 3.453125 12.492188 3.445312 12.46875 Z M 3.8125 12.863281 C 3.757812 12.898438 3.695312 12.925781 3.621094 12.945312 C 3.769531 12.980469 3.882812 13.046875 3.957031 13.144531 C 4.023438 13.222656 4.058594 13.316406 4.070312 13.429688 C 4.074219 13.402344 4.074219 13.375 4.074219 13.34375 C 4.074219 13.199219 4.035156 13.082031 3.957031 12.988281 C 3.917969 12.9375 3.871094 12.898438 3.8125 12.863281 Z M 3.5 13.402344 C 3.484375 13.460938 3.445312 13.511719 3.390625 13.546875 C 3.3125 13.601562 3.195312 13.625 3.046875 13.625 C 2.945312 13.625 2.84375 13.613281 2.738281 13.585938 C 2.636719 13.558594 2.53125 13.519531 2.425781 13.464844 L 2.425781 13.621094 C 2.53125 13.675781 2.636719 13.714844 2.738281 13.742188 C 2.84375 13.769531 2.945312 13.78125 3.046875 13.78125 C 3.195312 13.78125 3.3125 13.757812 3.390625 13.703125 C 3.46875 13.652344 3.507812 13.578125 3.507812 13.480469 C 3.511719 13.453125 3.503906 13.425781 3.5 13.402344 Z M 8.011719 13.449219 L 7.832031 13.605469 L 8.792969 13.605469 L 8.792969 13.449219 Z M 12.761719 13.449219 L 12.582031 13.605469 L 13.542969 13.605469 L 13.542969 13.449219 Z M 12.761719 13.449219 "/>
</g>
</svg>
