
<svg xmlns="http://www.w3.org/2000/svg" xmlns:xlink="http://www.w3.org/1999/xlink" width="16" height="16" viewBox="0 0 16 16" version="1.1">
<defs>
<linearGradient id="linear0" gradientUnits="userSpaceOnUse" x1="31.999998" y1="57.999996" x2="31.999998" y2="8" gradientTransform="matrix(0.25,0,0,0.25,-0.000000170079,0)">
<stop offset="0" style="stop-color:rgb(0%,0%,0%);stop-opacity:0.2;"/>
<stop offset="1" style="stop-color:rgb(100%,100%,100%);stop-opacity:0;"/>
</linearGradient>
</defs>
<g id="surface1">
<path style=" stroke:none;fill-rule:nonzero;fill:rgb(36.078432%,41.960785%,75.294119%);fill-opacity:1;" d="M 2 1.996094 L 14 1.996094 C 14.550781 1.996094 15 2.441406 15 2.996094 L 15 12.996094 C 15 13.546875 14.550781 13.996094 14 13.996094 L 2 13.996094 C 1.449219 13.996094 1 13.546875 1 12.996094 L 1 2.996094 C 1 2.441406 1.449219 1.996094 2 1.996094 Z M 2 1.996094 "/>
<path style=" stroke:none;fill-rule:nonzero;fill:rgb(25.882354%,64.705884%,96.078432%);fill-opacity:1;" d="M 1.128906 2.5 L 8 7.996094 L 1.351562 13.757812 C 1.136719 13.574219 1 13.300781 1 12.996094 L 1 2.996094 C 1 2.816406 1.046875 2.644531 1.128906 2.5 Z M 1.128906 2.5 "/>
<path style=" stroke:none;fill-rule:nonzero;fill:rgb(47.058824%,56.470591%,61.176473%);fill-opacity:1;" d="M 8 7.996094 L 1.316406 13.722656 C 1.496094 13.890625 1.734375 13.996094 2 13.996094 L 14 13.996094 C 14.265625 13.996094 14.503906 13.890625 14.683594 13.722656 Z M 8 7.996094 "/>
<path style=" stroke:none;fill-rule:nonzero;fill:rgb(92.54902%,25.098041%,47.843137%);fill-opacity:1;" d="M 14.867188 2.5 L 8 7.996094 L 14.648438 13.757812 C 14.863281 13.574219 15 13.300781 15 12.996094 L 15 2.996094 C 15 2.816406 14.953125 2.644531 14.867188 2.5 Z M 14.867188 2.5 "/>
<path style=" stroke:none;fill-rule:nonzero;fill:rgb(0.392157%,0.392157%,0.392157%);fill-opacity:0.4;" d="M 1 12.75 L 1 13 C 1 13.554688 1.445312 14 2 14 L 14 14 C 14.554688 14 15 13.554688 15 13 L 15 12.75 C 15 13.304688 14.554688 13.75 14 13.75 L 2 13.75 C 1.445312 13.75 1 13.304688 1 12.75 Z M 1 12.75 "/>
<path style=" stroke:none;fill-rule:nonzero;fill:rgb(87.843138%,87.843138%,87.843138%);fill-opacity:1;" d="M 2.5 12 L 13.5 12 C 13.777344 12 14 12.222656 14 12.5 L 14 14 C 14 14.277344 13.777344 14.5 13.5 14.5 L 2.5 14.5 C 2.222656 14.5 2 14.277344 2 14 L 2 12.5 C 2 12.222656 2.222656 12 2.5 12 Z M 2.5 12 "/>
<path style=" stroke:none;fill-rule:nonzero;fill:rgb(87.843138%,87.843138%,87.843138%);fill-opacity:1;" d="M 2 2 C 1.445312 2 1 2.445312 1 3 L 15 3 C 15 2.445312 14.554688 2 14 2 Z M 2 2 "/>
<path style=" stroke:none;fill-rule:nonzero;fill:rgb(0%,0%,0%);fill-opacity:0.4;" d="M 1 3 L 1 3.25 L 15 3.25 L 15 3 Z M 2 13.75 L 2 14 C 2 14.277344 2.222656 14.5 2.5 14.5 L 13.5 14.5 C 13.777344 14.5 14 14.277344 14 14 L 14 13.75 C 14 14.027344 13.777344 14.25 13.5 14.25 L 2.5 14.25 C 2.222656 14.25 2 14.027344 2 13.75 Z M 2 13.75 "/>
<path style=" stroke:none;fill-rule:nonzero;fill:rgb(100%,100%,100%);fill-opacity:0.8;" d="M 2 2 C 1.445312 2 1 2.445312 1 3 L 1.03125 3 C 1.140625 2.5625 1.53125 2.242188 2 2.242188 L 14 2.242188 C 14.46875 2.242188 14.859375 2.5625 14.96875 3 L 15 3 C 15 2.445312 14.554688 2 14 2 Z M 2.5 12 C 2.222656 12 2 12.222656 2 12.5 L 2 12.742188 C 2 12.464844 2.222656 12.242188 2.5 12.242188 L 13.5 12.242188 C 13.777344 12.242188 14 12.464844 14 12.742188 L 14 12.5 C 14 12.222656 13.777344 12 13.5 12 Z M 2.5 12 "/>
<path style=" stroke:none;fill-rule:nonzero;fill:rgb(0%,0%,0%);fill-opacity:0.2;" d="M 1 13 L 1 13.375 C 1 13.929688 1.445312 14.375 2 14.375 C 2 14.652344 2.222656 14.875 2.5 14.875 L 13.5 14.875 C 13.777344 14.875 14 14.652344 14 14.375 C 14.554688 14.375 15 13.929688 15 13.375 L 15 13 C 15 13.554688 14.554688 14 14 14 C 14 14.277344 13.777344 14.5 13.5 14.5 L 2.5 14.5 C 2.222656 14.5 2 14.277344 2 14 C 1.445312 14 1 13.554688 1 13 Z M 1 13 "/>
<path style=" stroke:none;fill-rule:nonzero;fill:rgb(87.843138%,87.843138%,87.843138%);fill-opacity:1;" d="M 8 5.5 C 8.265625 5.5 8.675781 6.871094 8.890625 7.027344 C 9.105469 7.183594 10.535156 7.148438 10.617188 7.402344 C 10.699219 7.65625 9.523438 8.46875 9.441406 8.722656 C 9.359375 8.972656 9.832031 10.324219 9.617188 10.480469 C 9.402344 10.636719 8.265625 9.769531 8 9.769531 C 7.734375 9.769531 6.597656 10.636719 6.382812 10.480469 C 6.167969 10.324219 6.640625 8.972656 6.558594 8.722656 C 6.476562 8.46875 5.300781 7.65625 5.382812 7.402344 C 5.464844 7.148438 6.894531 7.183594 7.109375 7.027344 C 7.324219 6.871094 7.734375 5.5 8 5.5 Z M 8 5.5 "/>
<path style=" stroke:none;fill-rule:nonzero;fill:rgb(0%,0%,0%);fill-opacity:0.4;" d="M 5.394531 7.5 C 5.390625 7.511719 5.382812 7.519531 5.382812 7.527344 C 5.371094 7.554688 5.378906 7.585938 5.394531 7.625 C 5.390625 7.632812 5.382812 7.640625 5.382812 7.648438 C 5.300781 7.902344 6.476562 8.714844 6.558594 8.96875 C 6.5625 8.976562 6.5625 8.992188 6.566406 9.003906 C 6.570312 8.949219 6.570312 8.90625 6.566406 8.871094 C 6.570312 8.808594 6.570312 8.753906 6.558594 8.722656 C 6.488281 8.496094 5.539062 7.824219 5.394531 7.5 Z M 10.605469 7.5 C 10.460938 7.824219 9.511719 8.496094 9.441406 8.722656 C 9.429688 8.753906 9.429688 8.808594 9.433594 8.871094 C 9.429688 8.90625 9.429688 8.949219 9.433594 9.003906 C 9.4375 8.992188 9.4375 8.976562 9.441406 8.96875 C 9.523438 8.714844 10.699219 7.902344 10.617188 7.648438 C 10.617188 7.640625 10.609375 7.632812 10.605469 7.625 C 10.621094 7.585938 10.628906 7.554688 10.617188 7.527344 C 10.617188 7.519531 10.609375 7.511719 10.605469 7.5 Z M 8 9.769531 C 7.734375 9.769531 6.597656 10.636719 6.382812 10.480469 C 6.347656 10.457031 6.335938 10.40625 6.328125 10.335938 C 6.324219 10.382812 6.324219 10.425781 6.328125 10.464844 C 6.320312 10.59375 6.332031 10.691406 6.382812 10.726562 C 6.597656 10.882812 7.734375 10.015625 8 10.015625 C 8.265625 10.015625 9.402344 10.882812 9.617188 10.726562 C 9.667969 10.691406 9.679688 10.59375 9.671875 10.464844 C 9.675781 10.425781 9.675781 10.382812 9.671875 10.335938 C 9.664062 10.40625 9.652344 10.457031 9.617188 10.480469 C 9.402344 10.636719 8.265625 9.769531 8 9.769531 Z M 8 9.769531 "/>
<path style=" stroke:none;fill-rule:nonzero;fill:rgb(99.607843%,99.607843%,99.607843%);fill-opacity:0.4;" d="M 8 5.5 C 7.734375 5.5 7.324219 6.871094 7.109375 7.027344 C 6.894531 7.183594 5.464844 7.152344 5.382812 7.402344 C 5.371094 7.429688 5.378906 7.460938 5.394531 7.5 C 5.390625 7.511719 5.382812 7.519531 5.382812 7.527344 C 5.371094 7.554688 5.378906 7.589844 5.394531 7.625 C 5.566406 7.402344 6.902344 7.429688 7.109375 7.277344 C 7.324219 7.121094 7.734375 5.75 8 5.75 C 8.265625 5.75 8.675781 7.121094 8.890625 7.277344 C 9.097656 7.429688 10.433594 7.402344 10.605469 7.625 C 10.621094 7.589844 10.628906 7.554688 10.617188 7.527344 C 10.617188 7.519531 10.609375 7.511719 10.605469 7.5 C 10.621094 7.460938 10.628906 7.429688 10.617188 7.402344 C 10.535156 7.152344 9.105469 7.183594 8.890625 7.027344 C 8.675781 6.871094 8.265625 5.5 8 5.5 Z M 7.109375 7.152344 C 7.105469 7.15625 7.097656 7.164062 7.089844 7.167969 C 7.097656 7.164062 7.105469 7.15625 7.109375 7.152344 Z M 8.890625 7.152344 C 8.894531 7.15625 8.902344 7.164062 8.910156 7.167969 C 8.902344 7.164062 8.894531 7.15625 8.890625 7.152344 Z M 6.144531 7.308594 C 6.113281 7.3125 6.082031 7.316406 6.050781 7.320312 C 6.007812 7.328125 5.964844 7.332031 5.925781 7.335938 C 5.964844 7.332031 6.007812 7.328125 6.050781 7.320312 C 6.082031 7.316406 6.113281 7.3125 6.144531 7.308594 Z M 9.855469 7.308594 C 9.886719 7.3125 9.917969 7.316406 9.949219 7.320312 C 9.992188 7.328125 10.035156 7.332031 10.074219 7.335938 C 10.035156 7.332031 9.992188 7.328125 9.949219 7.320312 C 9.917969 7.316406 9.886719 7.3125 9.855469 7.308594 Z M 6.566406 8.882812 C 6.53125 9.246094 6.300781 10.007812 6.328125 10.335938 C 6.328125 10.332031 6.328125 10.324219 6.328125 10.320312 C 6.332031 10.292969 6.335938 10.265625 6.335938 10.238281 C 6.335938 10.265625 6.332031 10.292969 6.328125 10.320312 C 6.328125 10.371094 6.324219 10.421875 6.328125 10.460938 C 6.355469 10.03125 6.597656 9.246094 6.566406 9.007812 C 6.558594 9.09375 6.535156 9.210938 6.511719 9.335938 C 6.550781 9.136719 6.578125 8.972656 6.566406 8.882812 Z M 9.433594 8.882812 C 9.421875 8.972656 9.449219 9.136719 9.488281 9.335938 C 9.464844 9.210938 9.441406 9.09375 9.433594 9.007812 C 9.402344 9.246094 9.644531 10.03125 9.671875 10.460938 C 9.675781 10.421875 9.671875 10.371094 9.671875 10.320312 C 9.667969 10.292969 9.664062 10.265625 9.664062 10.238281 C 9.664062 10.265625 9.667969 10.292969 9.671875 10.320312 C 9.671875 10.324219 9.671875 10.332031 9.671875 10.335938 C 9.699219 10.007812 9.46875 9.246094 9.433594 8.882812 Z M 6.46875 9.539062 C 6.441406 9.675781 6.410156 9.816406 6.382812 9.949219 C 6.410156 9.816406 6.441406 9.675781 6.46875 9.539062 Z M 9.53125 9.539062 C 9.558594 9.675781 9.589844 9.816406 9.617188 9.949219 C 9.589844 9.816406 9.558594 9.675781 9.53125 9.539062 Z M 6.367188 10.050781 C 6.359375 10.082031 6.355469 10.113281 6.351562 10.144531 C 6.347656 10.171875 6.34375 10.195312 6.339844 10.21875 C 6.34375 10.195312 6.347656 10.171875 6.351562 10.144531 C 6.355469 10.113281 6.359375 10.082031 6.367188 10.050781 Z M 9.632812 10.050781 C 9.640625 10.082031 9.644531 10.113281 9.648438 10.144531 C 9.652344 10.171875 9.65625 10.195312 9.660156 10.21875 C 9.65625 10.195312 9.652344 10.171875 9.648438 10.144531 C 9.644531 10.113281 9.640625 10.082031 9.632812 10.050781 Z M 9.632812 10.050781 "/>
<path style=" stroke:none;fill-rule:nonzero;fill:url(#linear0);" d="M 2 2 C 1.445312 2 1 2.445312 1 3 L 1 13 C 1 13.554688 1.445312 14 2 14 C 2 14.277344 2.222656 14.5 2.5 14.5 L 13.5 14.5 C 13.777344 14.5 14 14.277344 14 14 C 14.554688 14 15 13.554688 15 13 L 15 3 C 15 2.445312 14.554688 2 14 2 Z M 2 2 "/>
</g>
</svg>
