
<svg xmlns="http://www.w3.org/2000/svg" xmlns:xlink="http://www.w3.org/1999/xlink" width="16" height="16" viewBox="0 0 16 16" version="1.1">
<defs>
<linearGradient id="linear0" gradientUnits="userSpaceOnUse" x1="31.999998" y1="57.999996" x2="31.999998" y2="8" gradientTransform="matrix(0.25,0,0,0.25,-0.000000170079,0)">
<stop offset="0" style="stop-color:rgb(0%,0%,0%);stop-opacity:0.2;"/>
<stop offset="1" style="stop-color:rgb(100%,100%,100%);stop-opacity:0;"/>
</linearGradient>
</defs>
<g id="surface1">
<path style=" stroke:none;fill-rule:nonzero;fill:rgb(36.078432%,41.960785%,75.294119%);fill-opacity:1;" d="M 2 1.996094 L 14 1.996094 C 14.550781 1.996094 15 2.441406 15 2.996094 L 15 12.996094 C 15 13.546875 14.550781 13.996094 14 13.996094 L 2 13.996094 C 1.449219 13.996094 1 13.546875 1 12.996094 L 1 2.996094 C 1 2.441406 1.449219 1.996094 2 1.996094 Z M 2 1.996094 "/>
<path style=" stroke:none;fill-rule:nonzero;fill:rgb(25.882354%,64.705884%,96.078432%);fill-opacity:1;" d="M 1.128906 2.5 L 8 7.996094 L 1.351562 13.757812 C 1.136719 13.574219 1 13.300781 1 12.996094 L 1 2.996094 C 1 2.816406 1.046875 2.644531 1.128906 2.5 Z M 1.128906 2.5 "/>
<path style=" stroke:none;fill-rule:nonzero;fill:rgb(47.058824%,56.470591%,61.176473%);fill-opacity:1;" d="M 8 7.996094 L 1.316406 13.722656 C 1.496094 13.890625 1.734375 13.996094 2 13.996094 L 14 13.996094 C 14.265625 13.996094 14.503906 13.890625 14.683594 13.722656 Z M 8 7.996094 "/>
<path style=" stroke:none;fill-rule:nonzero;fill:rgb(92.54902%,25.098041%,47.843137%);fill-opacity:1;" d="M 14.867188 2.5 L 8 7.996094 L 14.648438 13.757812 C 14.863281 13.574219 15 13.300781 15 12.996094 L 15 2.996094 C 15 2.816406 14.953125 2.644531 14.867188 2.5 Z M 14.867188 2.5 "/>
<path style=" stroke:none;fill-rule:nonzero;fill:rgb(0.392157%,0.392157%,0.392157%);fill-opacity:0.4;" d="M 1 12.75 L 1 13 C 1 13.554688 1.445312 14 2 14 L 14 14 C 14.554688 14 15 13.554688 15 13 L 15 12.75 C 15 13.304688 14.554688 13.75 14 13.75 L 2 13.75 C 1.445312 13.75 1 13.304688 1 12.75 Z M 1 12.75 "/>
<path style=" stroke:none;fill-rule:nonzero;fill:rgb(87.843138%,87.843138%,87.843138%);fill-opacity:1;" d="M 2.5 12 L 13.5 12 C 13.777344 12 14 12.222656 14 12.5 L 14 14 C 14 14.277344 13.777344 14.5 13.5 14.5 L 2.5 14.5 C 2.222656 14.5 2 14.277344 2 14 L 2 12.5 C 2 12.222656 2.222656 12 2.5 12 Z M 2.5 12 "/>
<path style=" stroke:none;fill-rule:nonzero;fill:rgb(87.843138%,87.843138%,87.843138%);fill-opacity:1;" d="M 2 2 C 1.445312 2 1 2.445312 1 3 L 15 3 C 15 2.445312 14.554688 2 14 2 Z M 2 2 "/>
<path style=" stroke:none;fill-rule:nonzero;fill:rgb(0%,0%,0%);fill-opacity:0.4;" d="M 1 3 L 1 3.25 L 15 3.25 L 15 3 Z M 2 13.75 L 2 14 C 2 14.277344 2.222656 14.5 2.5 14.5 L 13.5 14.5 C 13.777344 14.5 14 14.277344 14 14 L 14 13.75 C 14 14.027344 13.777344 14.25 13.5 14.25 L 2.5 14.25 C 2.222656 14.25 2 14.027344 2 13.75 Z M 2 13.75 "/>
<path style=" stroke:none;fill-rule:nonzero;fill:rgb(100%,100%,100%);fill-opacity:0.8;" d="M 2 2 C 1.445312 2 1 2.445312 1 3 L 1.03125 3 C 1.140625 2.5625 1.53125 2.242188 2 2.242188 L 14 2.242188 C 14.46875 2.242188 14.859375 2.5625 14.96875 3 L 15 3 C 15 2.445312 14.554688 2 14 2 Z M 2.5 12 C 2.222656 12 2 12.222656 2 12.5 L 2 12.742188 C 2 12.464844 2.222656 12.242188 2.5 12.242188 L 13.5 12.242188 C 13.777344 12.242188 14 12.464844 14 12.742188 L 14 12.5 C 14 12.222656 13.777344 12 13.5 12 Z M 2.5 12 "/>
<path style=" stroke:none;fill-rule:nonzero;fill:rgb(0%,0%,0%);fill-opacity:0.2;" d="M 1 13 L 1 13.375 C 1 13.929688 1.445312 14.375 2 14.375 C 2 14.652344 2.222656 14.875 2.5 14.875 L 13.5 14.875 C 13.777344 14.875 14 14.652344 14 14.375 C 14.554688 14.375 15 13.929688 15 13.375 L 15 13 C 15 13.554688 14.554688 14 14 14 C 14 14.277344 13.777344 14.5 13.5 14.5 L 2.5 14.5 C 2.222656 14.5 2 14.277344 2 14 C 1.445312 14 1 13.554688 1 13 Z M 1 13 "/>
<path style=" stroke:none;fill-rule:nonzero;fill:rgb(87.843138%,87.843138%,87.843138%);fill-opacity:0.996078;" d="M 2 3.5 C 1.722656 3.5 1.5 3.722656 1.5 4 L 1.5 7 C 3 7 5 5 5 3.5 Z M 2 3.5 "/>
<path style=" stroke:none;fill-rule:nonzero;fill:rgb(100%,100%,100%);fill-opacity:0.6;" d="M 2 3.5 C 1.722656 3.5 1.5 3.722656 1.5 4 L 1.5 4.25 C 1.5 3.972656 1.722656 3.75 2 3.75 L 4.984375 3.75 C 4.992188 3.664062 5 3.582031 5 3.5 Z M 2 3.5 "/>
<path style=" stroke:none;fill-rule:nonzero;fill:rgb(0%,0%,0%);fill-opacity:0.4;" d="M 4.984375 3.75 C 4.78125 5.210938 2.917969 7 1.5 7 L 1.5 7.25 C 3 7.25 5 5.25 5 3.75 Z M 4.984375 3.75 "/>
<path style=" stroke:none;fill-rule:nonzero;fill:rgb(87.843138%,87.843138%,87.843138%);fill-opacity:0.996078;" d="M 14 3.5 C 14.277344 3.5 14.5 3.722656 14.5 4 L 14.5 7 C 13 7 11 5 11 3.5 Z M 14 3.5 "/>
<path style=" stroke:none;fill-rule:nonzero;fill:rgb(100%,100%,100%);fill-opacity:0.6;" d="M 14 3.5 C 14.277344 3.5 14.5 3.722656 14.5 4 L 14.5 4.25 C 14.5 3.972656 14.277344 3.75 14 3.75 L 11.015625 3.75 C 11.007812 3.664062 11 3.582031 11 3.5 Z M 14 3.5 "/>
<path style=" stroke:none;fill-rule:nonzero;fill:rgb(0%,0%,0%);fill-opacity:0.4;" d="M 11.015625 3.75 C 11.21875 5.210938 13.082031 7 14.5 7 L 14.5 7.25 C 13 7.25 11 5.25 11 3.75 Z M 11.015625 3.75 "/>
<path style=" stroke:none;fill-rule:nonzero;fill:rgb(87.843138%,87.843138%,87.843138%);fill-opacity:0.996078;" d="M 2 3.5 C 1.722656 3.5 1.5 3.722656 1.5 4 L 1.5 7 C 3 7 5 5 5 3.5 Z M 2 3.5 "/>
<path style=" stroke:none;fill-rule:nonzero;fill:rgb(100%,100%,100%);fill-opacity:0.6;" d="M 2 3.5 C 1.722656 3.5 1.5 3.722656 1.5 4 L 1.5 4.25 C 1.5 3.972656 1.722656 3.75 2 3.75 L 4.984375 3.75 C 4.992188 3.664062 5 3.582031 5 3.5 Z M 2 3.5 "/>
<path style=" stroke:none;fill-rule:nonzero;fill:rgb(0%,0%,0%);fill-opacity:0.4;" d="M 4.984375 3.75 C 4.78125 5.210938 2.917969 7 1.5 7 L 1.5 7.25 C 3 7.25 5 5.25 5 3.75 Z M 4.984375 3.75 "/>
<path style=" stroke:none;fill-rule:nonzero;fill:rgb(87.843138%,87.843138%,87.843138%);fill-opacity:0.996078;" d="M 14 3.5 C 14.277344 3.5 14.5 3.722656 14.5 4 L 14.5 7 C 13 7 11 5 11 3.5 Z M 14 3.5 "/>
<path style=" stroke:none;fill-rule:nonzero;fill:rgb(100%,100%,100%);fill-opacity:0.6;" d="M 14 3.5 C 14.277344 3.5 14.5 3.722656 14.5 4 L 14.5 4.25 C 14.5 3.972656 14.277344 3.75 14 3.75 L 11.015625 3.75 C 11.007812 3.664062 11 3.582031 11 3.5 Z M 14 3.5 "/>
<path style=" stroke:none;fill-rule:nonzero;fill:rgb(0%,0%,0%);fill-opacity:0.4;" d="M 11.015625 3.75 C 11.21875 5.210938 13.082031 7 14.5 7 L 14.5 7.25 C 13 7.25 11 5.25 11 3.75 Z M 11.015625 3.75 "/>
<path style=" stroke:none;fill-rule:nonzero;fill:rgb(87.843138%,87.843138%,87.843138%);fill-opacity:0.996078;" d="M 2 11.5 C 1.722656 11.5 1.5 11.277344 1.5 11 L 1.5 8 C 3 8 5 10 5 11.5 Z M 2 11.5 "/>
<path style=" stroke:none;fill-rule:nonzero;fill:rgb(0%,0%,0%);fill-opacity:0.4;" d="M 2 11.75 C 1.722656 11.75 1.5 11.527344 1.5 11.25 L 1.5 11 C 1.5 11.277344 1.722656 11.5 2 11.5 L 4.984375 11.5 C 4.992188 11.585938 5 11.667969 5 11.75 Z M 2 11.75 "/>
<path style=" stroke:none;fill-rule:nonzero;fill:rgb(100%,100%,100%);fill-opacity:0.6;" d="M 4.984375 11.5 C 4.78125 10.039062 2.917969 8.25 1.5 8.25 L 1.5 8 C 3 8 5 10 5 11.5 Z M 4.984375 11.5 "/>
<path style=" stroke:none;fill-rule:nonzero;fill:rgb(87.843138%,87.843138%,87.843138%);fill-opacity:0.996078;" d="M 14 11.5 C 14.277344 11.5 14.5 11.277344 14.5 11 L 14.5 8 C 13 8 11 10 11 11.5 Z M 14 11.5 "/>
<path style=" stroke:none;fill-rule:nonzero;fill:rgb(0%,0%,0%);fill-opacity:0.4;" d="M 14 11.75 C 14.277344 11.75 14.5 11.527344 14.5 11.25 L 14.5 11 C 14.5 11.277344 14.277344 11.5 14 11.5 L 11.015625 11.5 C 11.007812 11.585938 11 11.667969 11 11.75 Z M 14 11.75 "/>
<path style=" stroke:none;fill-rule:nonzero;fill:rgb(100%,100%,100%);fill-opacity:0.6;" d="M 11.015625 11.5 C 11.21875 10.039062 13.082031 8.25 14.5 8.25 L 14.5 8 C 13 8 11 10 11 11.5 Z M 11.015625 11.5 "/>
<path style=" stroke:none;fill-rule:nonzero;fill:url(#linear0);" d="M 2 2 C 1.445312 2 1 2.445312 1 3 L 1 13 C 1 13.554688 1.445312 14 2 14 C 2 14.277344 2.222656 14.5 2.5 14.5 L 13.5 14.5 C 13.777344 14.5 14 14.277344 14 14 C 14.554688 14 15 13.554688 15 13 L 15 3 C 15 2.445312 14.554688 2 14 2 Z M 2 2 "/>
</g>
</svg>
