
<svg xmlns="http://www.w3.org/2000/svg" xmlns:xlink="http://www.w3.org/1999/xlink" width="16" height="16" viewBox="0 0 16 16" version="1.1">
<defs>
<linearGradient id="linear0" gradientUnits="userSpaceOnUse" x1="31.999998" y1="51.999996" x2="31.999998" y2="6" gradientTransform="matrix(0.25,0,0,0.25,0,0)">
<stop offset="0" style="stop-color:rgb(0%,0%,0%);stop-opacity:0.2;"/>
<stop offset="1" style="stop-color:rgb(100%,100%,100%);stop-opacity:0;"/>
</linearGradient>
</defs>
<g id="surface1">
<path style=" stroke:none;fill-rule:nonzero;fill:rgb(100%,59.607846%,0%);fill-opacity:0.996078;" d="M 11.75 2.003906 C 12.050781 2.175781 12.136719 2.582031 11.949219 2.914062 L 8.886719 8.21875 C 8.695312 8.546875 8.300781 8.671875 8 8.5 C 7.699219 8.328125 7.613281 7.921875 7.800781 7.59375 L 10.863281 2.289062 C 11.054688 1.957031 11.449219 1.832031 11.75 2.003906 Z M 11.75 2.003906 "/>
<path style=" stroke:none;fill-rule:nonzero;fill:rgb(100%,59.607846%,0%);fill-opacity:0.996078;" d="M 14.496094 4.75 C 14.667969 5.050781 14.542969 5.445312 14.210938 5.636719 L 8.90625 8.699219 C 8.578125 8.886719 8.171875 8.800781 8 8.5 C 7.828125 8.199219 7.953125 7.804688 8.28125 7.613281 L 13.585938 4.550781 C 13.917969 4.363281 14.324219 4.449219 14.496094 4.75 Z M 14.496094 4.75 "/>
<path style=" stroke:none;fill-rule:nonzero;fill:rgb(100%,59.607846%,0%);fill-opacity:0.996078;" d="M 4.25 2.003906 C 4.550781 1.832031 4.945312 1.957031 5.136719 2.289062 L 8.199219 7.59375 C 8.386719 7.921875 8.300781 8.328125 8 8.5 C 7.699219 8.671875 7.304688 8.546875 7.113281 8.21875 L 4.050781 2.914062 C 3.863281 2.582031 3.949219 2.175781 4.25 2.003906 Z M 4.25 2.003906 "/>
<path style=" stroke:none;fill-rule:nonzero;fill:rgb(100%,59.607846%,0%);fill-opacity:0.996078;" d="M 1.503906 4.75 C 1.675781 4.449219 2.082031 4.363281 2.414062 4.550781 L 7.71875 7.613281 C 8.046875 7.804688 8.171875 8.199219 8 8.5 C 7.828125 8.800781 7.421875 8.886719 7.09375 8.699219 L 1.789062 5.636719 C 1.457031 5.445312 1.332031 5.050781 1.503906 4.75 Z M 1.503906 4.75 "/>
<path style=" stroke:none;fill-rule:nonzero;fill:rgb(100%,100%,99.607843%);fill-opacity:0.4;" d="M 4.550781 1.925781 C 4.445312 1.925781 4.34375 1.949219 4.25 2.003906 C 4.019531 2.136719 3.917969 2.402344 3.964844 2.667969 C 3.996094 2.496094 4.09375 2.34375 4.25 2.253906 C 4.34375 2.199219 4.445312 2.171875 4.550781 2.175781 C 4.777344 2.179688 5.003906 2.308594 5.136719 2.535156 L 8 7.496094 L 10.863281 2.535156 C 11.054688 2.207031 11.449219 2.078125 11.75 2.253906 C 11.90625 2.34375 12.003906 2.496094 12.035156 2.667969 C 12.082031 2.402344 11.980469 2.136719 11.75 2.003906 C 11.449219 1.832031 11.054688 1.957031 10.863281 2.289062 L 8 7.25 L 5.136719 2.289062 C 5.003906 2.0625 4.777344 1.929688 4.550781 1.925781 Z M 2.027344 4.453125 C 1.8125 4.457031 1.613281 4.5625 1.503906 4.75 C 1.429688 4.878906 1.414062 5.023438 1.441406 5.160156 C 1.453125 5.105469 1.476562 5.050781 1.503906 5 C 1.679688 4.699219 2.082031 4.609375 2.414062 4.800781 L 6.292969 7.039062 L 6.078125 6.667969 L 2.414062 4.550781 C 2.289062 4.480469 2.15625 4.449219 2.027344 4.453125 Z M 13.972656 4.453125 C 13.84375 4.449219 13.710938 4.480469 13.585938 4.550781 L 9.921875 6.667969 L 9.707031 7.039062 L 13.585938 4.800781 C 13.917969 4.609375 14.320312 4.699219 14.496094 5 C 14.523438 5.050781 14.546875 5.105469 14.558594 5.160156 C 14.585938 5.023438 14.570312 4.878906 14.496094 4.75 C 14.386719 4.5625 14.1875 4.457031 13.972656 4.453125 Z M 13.972656 4.453125 "/>
<path style=" stroke:none;fill-rule:nonzero;fill:rgb(100%,65.490198%,14.901961%);fill-opacity:1;" d="M 8 3 C 4.894531 3 3.5 6 1.3125 7.574219 C 1.09375 7.714844 0.992188 7.855469 1.003906 8 C 0.992188 8.144531 1.09375 8.285156 1.3125 8.425781 C 3.5 10 4.894531 13 8 13 C 11.105469 13 12.5 10 14.6875 8.425781 C 14.898438 8.289062 15.007812 8.144531 15.007812 8 C 15.007812 7.855469 14.898438 7.710938 14.6875 7.574219 C 12.5 6 11.105469 3 8 3 Z M 8 3 "/>
<path style=" stroke:none;fill-rule:nonzero;fill:rgb(93.333334%,93.333334%,93.333334%);fill-opacity:0.996078;" d="M 8 4 C 10.210938 4 12 5.789062 12 8 C 12 10.210938 10.210938 12 8 12 C 5.789062 12 4 10.210938 4 8 C 4 5.789062 5.789062 4 8 4 Z M 8 4 "/>
<path style=" stroke:none;fill-rule:nonzero;fill:rgb(100%,43.921569%,26.274511%);fill-opacity:0.996078;" d="M 8 5.5 C 9.378906 5.5 10.5 6.621094 10.5 8 C 10.5 9.378906 9.378906 10.5 8 10.5 C 6.621094 10.5 5.5 9.378906 5.5 8 C 5.5 6.621094 6.621094 5.5 8 5.5 Z M 8 5.5 "/>
<path style=" stroke:none;fill-rule:nonzero;fill:rgb(100%,100%,100%);fill-opacity:0.4;" d="M 8 3 C 4.894531 3 3.5 6 1.3125 7.574219 C 1.039062 7.75 0.953125 7.925781 1.03125 8.109375 C 1.074219 8.011719 1.167969 7.917969 1.3125 7.824219 C 3.5 6.25 4.894531 3.25 8 3.25 C 11.105469 3.25 12.5 6.25 14.6875 7.824219 C 14.835938 7.921875 14.933594 8.023438 14.976562 8.125 C 15.058594 7.941406 14.960938 7.75 14.6875 7.574219 C 12.5 6 11.105469 3 8 3 Z M 8 3 "/>
<path style=" stroke:none;fill-rule:nonzero;fill:rgb(0%,0%,0%);fill-opacity:0.4;" d="M 1.023438 7.875 C 1.007812 7.917969 1 7.957031 1.003906 8 C 0.992188 8.144531 1.09375 8.285156 1.3125 8.425781 C 3.5 10 4.894531 13 8 13 C 11.105469 13 12.5 10 14.6875 8.425781 C 14.898438 8.289062 15.007812 8.144531 15.007812 8 C 15.007812 7.957031 14.996094 7.917969 14.980469 7.875 C 14.933594 7.976562 14.835938 8.078125 14.6875 8.175781 C 12.5 9.75 11.105469 12.75 8 12.75 C 4.894531 12.75 3.5 9.75 1.3125 8.175781 C 1.160156 8.078125 1.0625 7.976562 1.023438 7.875 Z M 1.023438 7.875 "/>
<path style=" stroke:none;fill-rule:nonzero;fill:rgb(0%,0%,0%);fill-opacity:0.2;" d="M 1.054688 8.1875 C 1.015625 8.25 1 8.3125 1.003906 8.375 C 0.992188 8.519531 1.09375 8.660156 1.3125 8.800781 C 3.5 10.375 4.894531 13.375 8 13.375 C 11.105469 13.375 12.5 10.375 14.6875 8.800781 C 14.898438 8.664062 15.007812 8.519531 15.007812 8.375 C 15.007812 8.3125 14.984375 8.25 14.945312 8.1875 C 14.890625 8.269531 14.804688 8.347656 14.6875 8.425781 C 12.5 10 11.105469 13 8 13 C 4.894531 13 3.5 10 1.3125 8.425781 C 1.191406 8.347656 1.105469 8.269531 1.054688 8.1875 Z M 1.054688 8.1875 "/>
<path style=" stroke:none;fill-rule:nonzero;fill:rgb(0%,0%,0%);fill-opacity:0.4;" d="M 8 4 C 5.785156 4 4 5.785156 4 8 C 4 8.039062 4 8.078125 4 8.117188 C 4.0625 5.957031 5.824219 4.234375 8 4.234375 C 10.175781 4.234375 11.9375 5.957031 12 8.117188 C 12 8.078125 12 8.039062 12 8 C 12 5.785156 10.214844 4 8 4 Z M 8 4 "/>
<path style=" stroke:none;fill-rule:nonzero;fill:rgb(93.333334%,93.333334%,93.333334%);fill-opacity:0.4;" d="M 4.003906 8.121094 C 4 8.164062 4 8.203125 4 8.246094 C 4 10.460938 5.785156 12.246094 8 12.246094 C 10.214844 12.246094 12 10.460938 12 8.246094 C 12 8.203125 12 8.164062 11.996094 8.121094 C 11.933594 10.277344 10.175781 11.996094 8 11.996094 C 5.824219 11.996094 4.066406 10.277344 4.003906 8.121094 Z M 4.003906 8.121094 "/>
<path style=" stroke:none;fill-rule:nonzero;fill:rgb(100%,100%,100%);fill-opacity:0.4;" d="M 8 5.5 C 6.613281 5.5 5.5 6.613281 5.5 8 C 5.5 8.042969 5.5 8.082031 5.503906 8.125 C 5.566406 6.796875 6.65625 5.75 8 5.75 C 9.34375 5.75 10.433594 6.796875 10.496094 8.125 C 10.5 8.082031 10.5 8.042969 10.5 8 C 10.5 6.613281 9.386719 5.5 8 5.5 Z M 8 5.5 "/>
<path style=" stroke:none;fill-rule:nonzero;fill:rgb(4.313726%,4.313726%,4.313726%);fill-opacity:0.4;" d="M 8 10.75 C 6.613281 10.75 5.5 9.636719 5.5 8.25 C 5.5 8.207031 5.5 8.167969 5.503906 8.125 C 5.566406 9.453125 6.65625 10.5 8 10.5 C 9.34375 10.5 10.433594 9.453125 10.496094 8.125 C 10.5 8.167969 10.5 8.207031 10.5 8.25 C 10.5 9.636719 9.386719 10.75 8 10.75 Z M 8 10.75 "/>
<path style=" stroke:none;fill-rule:nonzero;fill:rgb(100%,67.058825%,56.862748%);fill-opacity:0.996078;" d="M 7.140625 6.390625 C 7.285156 6.535156 7.207031 6.851562 6.964844 7.097656 C 6.71875 7.339844 6.402344 7.421875 6.257812 7.273438 C 6.109375 7.128906 6.1875 6.8125 6.433594 6.566406 C 6.675781 6.324219 6.992188 6.242188 7.140625 6.390625 Z M 7.140625 6.390625 "/>
<path style=" stroke:none;fill-rule:nonzero;fill:url(#linear0);" d="M 4.550781 1.925781 C 4.445312 1.925781 4.34375 1.949219 4.25 2.003906 C 3.949219 2.179688 3.863281 2.582031 4.050781 2.914062 L 4.824219 4.25 C 4.433594 4.570312 4.066406 4.925781 3.703125 5.296875 L 2.414062 4.550781 C 2.082031 4.363281 1.679688 4.449219 1.503906 4.75 C 1.332031 5.050781 1.457031 5.445312 1.789062 5.636719 L 2.8125 6.226562 C 2.335938 6.71875 1.847656 7.1875 1.3125 7.574219 C 1.09375 7.714844 0.992188 7.855469 1.003906 8 C 0.992188 8.144531 1.09375 8.285156 1.3125 8.425781 C 3.5 10 4.894531 13 8 13 C 11.105469 13 12.5 10 14.6875 8.425781 C 14.898438 8.289062 15.007812 8.144531 15.007812 8 C 15.007812 7.855469 14.898438 7.710938 14.6875 7.574219 C 14.152344 7.1875 13.664062 6.71875 13.1875 6.226562 L 14.210938 5.636719 C 14.542969 5.445312 14.667969 5.050781 14.496094 4.75 C 14.320312 4.449219 13.917969 4.363281 13.585938 4.550781 L 12.296875 5.296875 C 11.933594 4.925781 11.566406 4.570312 11.175781 4.25 L 11.949219 2.914062 C 12.136719 2.582031 12.050781 2.179688 11.75 2.003906 C 11.449219 1.832031 11.054688 1.957031 10.863281 2.289062 L 10.140625 3.542969 C 9.515625 3.207031 8.816406 3 8 3 C 7.183594 3 6.484375 3.207031 5.859375 3.542969 L 5.136719 2.289062 C 5.003906 2.0625 4.777344 1.929688 4.550781 1.925781 Z M 4.550781 1.925781 "/>
</g>
</svg>
