
<svg xmlns="http://www.w3.org/2000/svg" xmlns:xlink="http://www.w3.org/1999/xlink" width="24" height="24" viewBox="0 0 24 24" version="1.1">
<defs>
<linearGradient id="linear0" gradientUnits="userSpaceOnUse" x1="31.999998" y1="59.999996" x2="31.999998" y2="4" gradientTransform="matrix(0.375,0,0,0.375,0,0.000000000000042633)">
<stop offset="0" style="stop-color:rgb(0%,0%,0%);stop-opacity:0.2;"/>
<stop offset="1" style="stop-color:rgb(100%,100%,100%);stop-opacity:0;"/>
</linearGradient>
</defs>
<g id="surface1">
<path style=" stroke:none;fill-rule:nonzero;fill:rgb(74.117649%,74.117649%,74.117649%);fill-opacity:1;" d="M 9.75 1.5 L 14.25 1.5 C 15.90625 1.5 17.25 2.84375 17.25 4.5 L 17.25 14.25 C 17.25 15.90625 15.90625 17.25 14.25 17.25 L 9.75 17.25 C 8.09375 17.25 6.75 15.90625 6.75 14.25 L 6.75 4.5 C 6.75 2.84375 8.09375 1.5 9.75 1.5 Z M 9.75 1.5 "/>
<path style=" stroke:none;fill-rule:nonzero;fill:rgb(87.843138%,87.843138%,87.843138%);fill-opacity:1;" d="M 9.75 1.875 L 14.25 1.875 C 15.492188 1.875 16.5 2.882812 16.5 4.125 L 16.5 15 C 16.5 16.242188 15.492188 17.25 14.25 17.25 L 9.75 17.25 C 8.507812 17.25 7.5 16.242188 7.5 15 L 7.5 4.125 C 7.5 2.882812 8.507812 1.875 9.75 1.875 Z M 9.75 1.875 "/>
<path style=" stroke:none;fill-rule:nonzero;fill:rgb(38.039216%,38.039216%,38.039216%);fill-opacity:0.996078;" d="M 6.75 5.25 L 6.75 6 L 10.875 6 C 11.082031 6 11.25 5.832031 11.25 5.625 C 11.25 5.417969 11.082031 5.25 10.875 5.25 Z M 13.117188 5.25 C 12.914062 5.253906 12.75 5.421875 12.75 5.625 C 12.75 5.832031 12.917969 6 13.125 6 C 13.128906 6 13.132812 6 13.132812 6 L 17.25 6 L 17.25 5.25 L 13.132812 5.25 C 13.132812 5.25 13.128906 5.25 13.125 5.25 C 13.121094 5.25 13.117188 5.25 13.117188 5.25 Z M 6.75 6.75 L 6.75 7.5 L 10.875 7.5 C 11.082031 7.5 11.25 7.332031 11.25 7.125 C 11.25 6.917969 11.082031 6.75 10.875 6.75 Z M 13.117188 6.75 C 12.914062 6.753906 12.75 6.921875 12.75 7.125 C 12.75 7.332031 12.917969 7.5 13.125 7.5 C 13.128906 7.5 13.132812 7.5 13.132812 7.5 L 17.25 7.5 L 17.25 6.75 L 13.132812 6.75 C 13.132812 6.75 13.128906 6.75 13.125 6.75 C 13.121094 6.75 13.117188 6.75 13.117188 6.75 Z M 6.75 8.25 L 6.75 9 L 10.875 9 C 11.082031 9 11.25 8.832031 11.25 8.625 C 11.25 8.417969 11.082031 8.25 10.875 8.25 Z M 13.117188 8.25 C 12.914062 8.253906 12.75 8.421875 12.75 8.625 C 12.75 8.832031 12.917969 9 13.125 9 C 13.128906 9 13.132812 9 13.132812 9 L 17.25 9 L 17.25 8.25 L 13.132812 8.25 C 13.132812 8.25 13.128906 8.25 13.125 8.25 C 13.121094 8.25 13.117188 8.25 13.117188 8.25 Z M 6.75 9.75 L 6.75 10.5 L 10.875 10.5 C 11.082031 10.5 11.25 10.332031 11.25 10.125 C 11.25 9.917969 11.082031 9.75 10.875 9.75 Z M 13.117188 9.75 C 12.914062 9.753906 12.75 9.921875 12.75 10.125 C 12.75 10.332031 12.917969 10.5 13.125 10.5 C 13.128906 10.5 13.132812 10.5 13.132812 10.5 L 17.25 10.5 L 17.25 9.75 L 13.132812 9.75 C 13.132812 9.75 13.128906 9.75 13.125 9.75 C 13.121094 9.75 13.117188 9.75 13.117188 9.75 Z M 6.75 11.25 L 6.75 12 L 10.875 12 C 11.082031 12 11.25 11.832031 11.25 11.625 C 11.25 11.417969 11.082031 11.25 10.875 11.25 Z M 13.117188 11.25 C 12.914062 11.253906 12.75 11.421875 12.75 11.625 C 12.75 11.832031 12.917969 12 13.125 12 C 13.128906 12 13.132812 12 13.132812 12 L 17.25 12 L 17.25 11.25 L 13.132812 11.25 C 13.132812 11.25 13.128906 11.25 13.125 11.25 C 13.121094 11.25 13.117188 11.25 13.117188 11.25 Z M 6.75 12.75 L 6.75 13.5 L 10.875 13.5 C 11.082031 13.5 11.25 13.332031 11.25 13.125 C 11.25 12.917969 11.082031 12.75 10.875 12.75 Z M 13.117188 12.75 C 12.914062 12.753906 12.75 12.921875 12.75 13.125 C 12.75 13.332031 12.917969 13.5 13.125 13.5 C 13.128906 13.5 13.132812 13.5 13.132812 13.5 L 17.25 13.5 L 17.25 12.75 L 13.132812 12.75 C 13.132812 12.75 13.128906 12.75 13.125 12.75 C 13.121094 12.75 13.117188 12.75 13.117188 12.75 Z M 13.117188 12.75 "/>
<path style=" stroke:none;fill-rule:nonzero;fill:rgb(87.843138%,87.843138%,87.843138%);fill-opacity:1;" d="M 10.5 17.25 L 10.5 21.75 C 10.5 22.164062 10.835938 22.5 11.25 22.5 L 12.75 22.5 C 13.164062 22.5 13.5 22.164062 13.5 21.75 L 13.5 17.25 Z M 10.5 17.25 "/>
<path style=" stroke:none;fill-rule:nonzero;fill:rgb(0.392157%,0.392157%,0.392157%);fill-opacity:0.4;" d="M 6.75 5.25 L 6.75 5.4375 L 10.875 5.4375 C 11.050781 5.4375 11.195312 5.554688 11.238281 5.71875 C 11.246094 5.6875 11.25 5.65625 11.25 5.625 C 11.25 5.417969 11.082031 5.25 10.875 5.25 Z M 13.117188 5.25 C 12.914062 5.253906 12.75 5.421875 12.75 5.625 C 12.75 5.65625 12.753906 5.6875 12.761719 5.71875 C 12.804688 5.558594 12.945312 5.441406 13.117188 5.4375 C 13.117188 5.4375 13.121094 5.4375 13.125 5.4375 C 13.128906 5.4375 13.132812 5.4375 13.132812 5.4375 L 17.25 5.4375 L 17.25 5.25 L 13.132812 5.25 C 13.132812 5.25 13.128906 5.25 13.125 5.25 C 13.121094 5.25 13.117188 5.25 13.117188 5.25 Z M 6.75 6.75 L 6.75 6.9375 L 10.875 6.9375 C 11.050781 6.9375 11.195312 7.054688 11.238281 7.21875 C 11.246094 7.1875 11.25 7.15625 11.25 7.125 C 11.25 6.917969 11.082031 6.75 10.875 6.75 Z M 13.117188 6.75 C 12.914062 6.753906 12.75 6.921875 12.75 7.125 C 12.75 7.15625 12.753906 7.1875 12.761719 7.21875 C 12.804688 7.058594 12.945312 6.941406 13.117188 6.9375 C 13.117188 6.9375 13.121094 6.9375 13.125 6.9375 C 13.128906 6.9375 13.132812 6.9375 13.132812 6.9375 L 17.25 6.9375 L 17.25 6.75 L 13.132812 6.75 C 13.132812 6.75 13.128906 6.75 13.125 6.75 C 13.121094 6.75 13.117188 6.75 13.117188 6.75 Z M 6.75 8.25 L 6.75 8.4375 L 10.875 8.4375 C 11.050781 8.4375 11.195312 8.554688 11.238281 8.71875 C 11.246094 8.6875 11.25 8.65625 11.25 8.625 C 11.25 8.417969 11.082031 8.25 10.875 8.25 Z M 13.117188 8.25 C 12.914062 8.253906 12.75 8.421875 12.75 8.625 C 12.75 8.65625 12.753906 8.6875 12.761719 8.71875 C 12.804688 8.558594 12.945312 8.441406 13.117188 8.4375 C 13.117188 8.4375 13.121094 8.4375 13.125 8.4375 C 13.128906 8.4375 13.132812 8.4375 13.132812 8.4375 L 17.25 8.4375 L 17.25 8.25 L 13.132812 8.25 C 13.132812 8.25 13.128906 8.25 13.125 8.25 C 13.121094 8.25 13.117188 8.25 13.117188 8.25 Z M 6.75 9.75 L 6.75 9.9375 L 10.875 9.9375 C 11.050781 9.9375 11.195312 10.054688 11.238281 10.21875 C 11.246094 10.1875 11.25 10.15625 11.25 10.125 C 11.25 9.917969 11.082031 9.75 10.875 9.75 Z M 13.117188 9.75 C 12.914062 9.753906 12.75 9.921875 12.75 10.125 C 12.75 10.15625 12.753906 10.1875 12.761719 10.21875 C 12.804688 10.058594 12.945312 9.941406 13.117188 9.9375 C 13.117188 9.9375 13.121094 9.9375 13.125 9.9375 C 13.128906 9.9375 13.132812 9.9375 13.132812 9.9375 L 17.25 9.9375 L 17.25 9.75 L 13.132812 9.75 C 13.132812 9.75 13.128906 9.75 13.125 9.75 C 13.121094 9.75 13.117188 9.75 13.117188 9.75 Z M 6.75 11.25 L 6.75 11.4375 L 10.875 11.4375 C 11.050781 11.4375 11.195312 11.554688 11.238281 11.71875 C 11.246094 11.6875 11.25 11.65625 11.25 11.625 C 11.25 11.417969 11.082031 11.25 10.875 11.25 Z M 13.117188 11.25 C 12.914062 11.253906 12.75 11.421875 12.75 11.625 C 12.75 11.65625 12.753906 11.6875 12.761719 11.71875 C 12.804688 11.558594 12.945312 11.441406 13.117188 11.4375 C 13.117188 11.4375 13.121094 11.4375 13.125 11.4375 C 13.128906 11.4375 13.132812 11.4375 13.132812 11.4375 L 17.25 11.4375 L 17.25 11.25 L 13.132812 11.25 C 13.132812 11.25 13.128906 11.25 13.125 11.25 C 13.121094 11.25 13.117188 11.25 13.117188 11.25 Z M 6.75 12.75 L 6.75 12.9375 L 10.875 12.9375 C 11.050781 12.9375 11.195312 13.054688 11.238281 13.21875 C 11.246094 13.1875 11.25 13.15625 11.25 13.125 C 11.25 12.917969 11.082031 12.75 10.875 12.75 Z M 13.117188 12.75 C 12.914062 12.753906 12.75 12.921875 12.75 13.125 C 12.75 13.15625 12.753906 13.1875 12.761719 13.21875 C 12.804688 13.058594 12.945312 12.941406 13.117188 12.9375 C 13.117188 12.9375 13.121094 12.9375 13.125 12.9375 C 13.128906 12.9375 13.132812 12.9375 13.132812 12.9375 L 17.25 12.9375 L 17.25 12.75 L 13.132812 12.75 C 13.132812 12.75 13.128906 12.75 13.125 12.75 C 13.121094 12.75 13.117188 12.75 13.117188 12.75 Z M 13.117188 12.75 "/>
<path style=" stroke:none;fill-rule:nonzero;fill:rgb(100%,100%,100%);fill-opacity:0.6;" d="M 6.75 13.6875 L 6.75 13.5 L 10.875 13.5 C 11.050781 13.5 11.195312 13.382812 11.238281 13.21875 C 11.246094 13.25 11.25 13.28125 11.25 13.3125 C 11.25 13.519531 11.082031 13.6875 10.875 13.6875 Z M 13.117188 13.6875 C 12.914062 13.683594 12.75 13.515625 12.75 13.3125 C 12.75 13.28125 12.753906 13.25 12.761719 13.21875 C 12.804688 13.378906 12.945312 13.496094 13.117188 13.5 C 13.117188 13.5 13.121094 13.5 13.125 13.5 C 13.128906 13.5 13.132812 13.5 13.132812 13.5 L 17.25 13.5 L 17.25 13.6875 L 13.132812 13.6875 C 13.132812 13.6875 13.128906 13.6875 13.125 13.6875 C 13.121094 13.6875 13.117188 13.6875 13.117188 13.6875 Z M 6.75 12.1875 L 6.75 12 L 10.875 12 C 11.050781 12 11.195312 11.882812 11.238281 11.71875 C 11.246094 11.75 11.25 11.78125 11.25 11.8125 C 11.25 12.019531 11.082031 12.1875 10.875 12.1875 Z M 13.117188 12.1875 C 12.914062 12.183594 12.75 12.015625 12.75 11.8125 C 12.75 11.78125 12.753906 11.75 12.761719 11.71875 C 12.804688 11.878906 12.945312 11.996094 13.117188 12 C 13.117188 12 13.121094 12 13.125 12 C 13.128906 12 13.132812 12 13.132812 12 L 17.25 12 L 17.25 12.1875 L 13.132812 12.1875 C 13.132812 12.1875 13.128906 12.1875 13.125 12.1875 C 13.121094 12.1875 13.117188 12.1875 13.117188 12.1875 Z M 6.75 10.6875 L 6.75 10.5 L 10.875 10.5 C 11.050781 10.5 11.195312 10.382812 11.238281 10.21875 C 11.246094 10.25 11.25 10.28125 11.25 10.3125 C 11.25 10.519531 11.082031 10.6875 10.875 10.6875 Z M 13.117188 10.6875 C 12.914062 10.683594 12.75 10.515625 12.75 10.3125 C 12.75 10.28125 12.753906 10.25 12.761719 10.21875 C 12.804688 10.378906 12.945312 10.496094 13.117188 10.5 C 13.117188 10.5 13.121094 10.5 13.125 10.5 C 13.128906 10.5 13.132812 10.5 13.132812 10.5 L 17.25 10.5 L 17.25 10.6875 L 13.132812 10.6875 C 13.132812 10.6875 13.128906 10.6875 13.125 10.6875 C 13.121094 10.6875 13.117188 10.6875 13.117188 10.6875 Z M 6.75 9.1875 L 6.75 9 L 10.875 9 C 11.050781 9 11.195312 8.882812 11.238281 8.71875 C 11.246094 8.75 11.25 8.78125 11.25 8.8125 C 11.25 9.019531 11.082031 9.1875 10.875 9.1875 Z M 13.117188 9.1875 C 12.914062 9.183594 12.75 9.015625 12.75 8.8125 C 12.75 8.78125 12.753906 8.75 12.761719 8.71875 C 12.804688 8.878906 12.945312 8.996094 13.117188 9 C 13.117188 9 13.121094 9 13.125 9 C 13.128906 9 13.132812 9 13.132812 9 L 17.25 9 L 17.25 9.1875 L 13.132812 9.1875 C 13.132812 9.1875 13.128906 9.1875 13.125 9.1875 C 13.121094 9.1875 13.117188 9.1875 13.117188 9.1875 Z M 6.75 7.6875 L 6.75 7.5 L 10.875 7.5 C 11.050781 7.5 11.195312 7.382812 11.238281 7.21875 C 11.246094 7.25 11.25 7.28125 11.25 7.3125 C 11.25 7.519531 11.082031 7.6875 10.875 7.6875 Z M 13.117188 7.6875 C 12.914062 7.683594 12.75 7.515625 12.75 7.3125 C 12.75 7.28125 12.753906 7.25 12.761719 7.21875 C 12.804688 7.378906 12.945312 7.496094 13.117188 7.5 C 13.117188 7.5 13.121094 7.5 13.125 7.5 C 13.128906 7.5 13.132812 7.5 13.132812 7.5 L 17.25 7.5 L 17.25 7.6875 L 13.132812 7.6875 C 13.132812 7.6875 13.128906 7.6875 13.125 7.6875 C 13.121094 7.6875 13.117188 7.6875 13.117188 7.6875 Z M 6.75 6.1875 L 6.75 6 L 10.875 6 C 11.050781 6 11.195312 5.882812 11.238281 5.71875 C 11.246094 5.75 11.25 5.78125 11.25 5.8125 C 11.25 6.019531 11.082031 6.1875 10.875 6.1875 Z M 13.117188 6.1875 C 12.914062 6.183594 12.75 6.015625 12.75 5.8125 C 12.75 5.78125 12.753906 5.75 12.761719 5.71875 C 12.804688 5.878906 12.945312 5.996094 13.117188 6 C 13.117188 6 13.121094 6 13.125 6 C 13.128906 6 13.132812 6 13.132812 6 L 17.25 6 L 17.25 6.1875 L 13.132812 6.1875 C 13.132812 6.1875 13.128906 6.1875 13.125 6.1875 C 13.121094 6.1875 13.117188 6.1875 13.117188 6.1875 Z M 13.117188 6.1875 "/>
<path style=" stroke:none;fill-rule:nonzero;fill:rgb(38.039216%,38.039216%,38.039216%);fill-opacity:1;" d="M 10.125 1.5 L 9.375 1.5 L 9.375 3.742188 C 9.375 3.742188 9.375 3.746094 9.375 3.75 C 9.375 3.957031 9.542969 4.125 9.75 4.125 C 9.957031 4.125 10.125 3.957031 10.125 3.75 C 10.125 3.746094 10.125 3.742188 10.125 3.742188 Z M 10.875 1.5 L 10.875 3.75 C 10.875 3.957031 11.042969 4.125 11.25 4.125 C 11.457031 4.125 11.625 3.957031 11.625 3.75 C 11.625 3.746094 11.625 3.742188 11.625 3.742188 L 11.625 1.5 Z M 12.375 1.5 L 12.375 3.75 C 12.375 3.957031 12.542969 4.125 12.75 4.125 C 12.957031 4.125 13.125 3.957031 13.125 3.75 C 13.125 3.746094 13.125 3.742188 13.125 3.742188 L 13.125 1.5 Z M 13.875 1.5 L 13.875 3.75 C 13.875 3.957031 14.042969 4.125 14.25 4.125 C 14.457031 4.125 14.625 3.957031 14.625 3.75 C 14.625 3.746094 14.625 3.742188 14.625 3.742188 L 14.625 1.5 Z M 13.875 1.5 "/>
<path style=" stroke:none;fill-rule:nonzero;fill:rgb(100%,100%,100%);fill-opacity:0.6;" d="M 9.75 1.5 C 8.089844 1.5 6.75 2.839844 6.75 4.5 L 6.75 4.875 C 6.75 3.214844 8.089844 1.875 9.75 1.875 L 14.25 1.875 C 15.910156 1.875 17.25 3.214844 17.25 4.875 L 17.25 4.5 C 17.25 2.839844 15.910156 1.5 14.25 1.5 Z M 9.75 1.5 "/>
<path style=" stroke:none;fill-rule:nonzero;fill:rgb(87.843138%,87.843138%,87.843138%);fill-opacity:1;" d="M 12 7.125 C 13.242188 7.125 14.25 8.132812 14.25 9.375 C 14.25 10.617188 13.242188 11.625 12 11.625 C 10.757812 11.625 9.75 10.617188 9.75 9.375 C 9.75 8.132812 10.757812 7.125 12 7.125 Z M 12 7.125 "/>
<path style=" stroke:none;fill-rule:nonzero;fill:rgb(0%,0%,0%);fill-opacity:0.4;" d="M 12 7.875 C 12.828125 7.875 13.5 8.546875 13.5 9.375 C 13.5 10.203125 12.828125 10.875 12 10.875 C 11.171875 10.875 10.5 10.203125 10.5 9.375 C 10.5 8.546875 11.171875 7.875 12 7.875 Z M 12 7.875 "/>
<path style=" stroke:none;fill-rule:nonzero;fill:rgb(40.000001%,73.333335%,41.568628%);fill-opacity:0.996078;" d="M 12 8.25 C 12.621094 8.25 13.125 8.753906 13.125 9.375 C 13.125 9.996094 12.621094 10.5 12 10.5 C 11.378906 10.5 10.875 9.996094 10.875 9.375 C 10.875 8.753906 11.378906 8.25 12 8.25 Z M 12 8.25 "/>
<path style=" stroke:none;fill-rule:nonzero;fill:rgb(100%,100%,100%);fill-opacity:0.4;" d="M 11.679688 8.679688 C 11.753906 8.753906 11.695312 8.929688 11.546875 9.078125 C 11.402344 9.222656 11.222656 9.285156 11.148438 9.210938 C 11.078125 9.136719 11.136719 8.957031 11.28125 8.8125 C 11.429688 8.667969 11.605469 8.605469 11.679688 8.679688 Z M 11.679688 8.679688 "/>
<path style=" stroke:none;fill-rule:nonzero;fill:rgb(38.039216%,38.039216%,38.039216%);fill-opacity:0.996078;" d="M 9.742188 14.625 C 9.539062 14.628906 9.375 14.792969 9.375 15 L 9.375 17.25 L 10.125 17.25 L 10.125 15 C 10.125 14.792969 9.957031 14.625 9.75 14.625 C 9.746094 14.625 9.742188 14.625 9.742188 14.625 Z M 11.25 14.625 C 11.042969 14.625 10.875 14.792969 10.875 15 L 10.875 17.25 L 11.625 17.25 L 11.625 15 C 11.625 14.792969 11.460938 14.628906 11.257812 14.625 C 11.257812 14.625 11.253906 14.625 11.25 14.625 Z M 12.742188 14.625 C 12.539062 14.628906 12.375 14.792969 12.375 15 L 12.375 17.25 L 13.125 17.25 L 13.125 15 C 13.125 14.792969 12.957031 14.625 12.75 14.625 C 12.746094 14.625 12.742188 14.625 12.742188 14.625 Z M 14.242188 14.625 C 14.039062 14.628906 13.875 14.792969 13.875 15 L 13.875 17.25 L 14.625 17.25 L 14.625 15 C 14.625 14.792969 14.457031 14.625 14.25 14.625 C 14.246094 14.625 14.242188 14.625 14.242188 14.625 Z M 14.242188 14.625 "/>
<path style=" stroke:none;fill-rule:nonzero;fill:rgb(0%,0%,0%);fill-opacity:0.4;" d="M 12 7.875 C 11.167969 7.875 10.5 8.542969 10.5 9.375 C 10.5 9.40625 10.5 9.4375 10.503906 9.46875 C 10.550781 8.683594 11.199219 8.0625 12 8.0625 C 12.800781 8.0625 13.449219 8.683594 13.496094 9.46875 C 13.5 9.4375 13.5 9.40625 13.5 9.375 C 13.5 8.542969 12.832031 7.875 12 7.875 Z M 12 7.875 "/>
<path style=" stroke:none;fill-rule:nonzero;fill:rgb(100%,100%,100%);fill-opacity:0.6;" d="M 12 11.0625 C 11.167969 11.0625 10.5 10.394531 10.5 9.5625 C 10.5 9.53125 10.5 9.5 10.503906 9.46875 C 10.550781 10.257812 11.199219 10.875 12 10.875 C 12.800781 10.875 13.449219 10.257812 13.496094 9.46875 C 13.5 9.5 13.5 9.53125 13.5 9.5625 C 13.5 10.394531 12.832031 11.0625 12 11.0625 Z M 12 11.0625 "/>
<path style=" stroke:none;fill-rule:nonzero;fill:rgb(100%,100%,100%);fill-opacity:0.4;" d="M 12 8.25 C 11.375 8.25 10.875 8.75 10.875 9.375 C 10.875 9.40625 10.875 9.4375 10.878906 9.46875 C 10.925781 8.890625 11.410156 8.4375 12 8.4375 C 12.589844 8.4375 13.074219 8.890625 13.121094 9.46875 C 13.125 9.4375 13.125 9.40625 13.125 9.375 C 13.125 8.75 12.625 8.25 12 8.25 Z M 12 8.25 "/>
<path style=" stroke:none;fill-rule:nonzero;fill:rgb(0.392157%,0.392157%,0.392157%);fill-opacity:0.4;" d="M 12 10.6875 C 11.375 10.6875 10.875 10.1875 10.875 9.5625 C 10.875 9.53125 10.875 9.5 10.878906 9.46875 C 10.925781 10.046875 11.410156 10.5 12 10.5 C 12.589844 10.5 13.074219 10.046875 13.121094 9.46875 C 13.125 9.5 13.125 9.53125 13.125 9.5625 C 13.125 10.1875 12.625 10.6875 12 10.6875 Z M 12 10.6875 "/>
<path style=" stroke:none;fill-rule:nonzero;fill:rgb(0.392157%,0.392157%,0.392157%);fill-opacity:0.4;" d="M 11.253906 14.625 C 11.050781 14.628906 10.886719 14.796875 10.886719 15 C 10.886719 15.03125 10.890625 15.0625 10.898438 15.09375 C 10.941406 14.929688 11.085938 14.8125 11.261719 14.8125 C 11.4375 14.8125 11.582031 14.929688 11.625 15.09375 C 11.632812 15.0625 11.636719 15.03125 11.636719 15 C 11.636719 14.792969 11.46875 14.625 11.261719 14.625 C 11.257812 14.625 11.253906 14.625 11.253906 14.625 Z M 11.253906 14.625 "/>
<path style=" stroke:none;fill-rule:nonzero;fill:rgb(0.392157%,0.392157%,0.392157%);fill-opacity:0.4;" d="M 12.75 14.625 C 12.546875 14.628906 12.382812 14.796875 12.382812 15 C 12.382812 15.03125 12.386719 15.0625 12.394531 15.09375 C 12.4375 14.929688 12.585938 14.8125 12.757812 14.8125 C 12.933594 14.8125 13.082031 14.929688 13.121094 15.09375 C 13.128906 15.0625 13.132812 15.03125 13.132812 15 C 13.132812 14.792969 12.96875 14.625 12.757812 14.625 C 12.757812 14.625 12.753906 14.625 12.75 14.625 Z M 12.75 14.625 "/>
<path style=" stroke:none;fill-rule:nonzero;fill:rgb(0.392157%,0.392157%,0.392157%);fill-opacity:0.4;" d="M 14.253906 14.625 C 14.050781 14.628906 13.886719 14.796875 13.886719 15 C 13.886719 15.03125 13.890625 15.0625 13.898438 15.09375 C 13.941406 14.929688 14.085938 14.8125 14.261719 14.8125 C 14.4375 14.8125 14.582031 14.929688 14.625 15.09375 C 14.632812 15.0625 14.636719 15.03125 14.636719 15 C 14.636719 14.792969 14.46875 14.625 14.261719 14.625 C 14.257812 14.625 14.253906 14.625 14.253906 14.625 Z M 14.253906 14.625 "/>
<path style=" stroke:none;fill-rule:nonzero;fill:rgb(100%,100%,100%);fill-opacity:0.6;" d="M 9.398438 3.84375 C 9.390625 3.871094 9.386719 3.902344 9.386719 3.9375 C 9.386719 4.144531 9.554688 4.3125 9.761719 4.3125 C 9.96875 4.3125 10.136719 4.144531 10.136719 3.9375 C 10.136719 3.902344 10.132812 3.871094 10.125 3.84375 C 10.082031 4.003906 9.9375 4.125 9.761719 4.125 C 9.585938 4.125 9.441406 4.003906 9.398438 3.84375 Z M 9.398438 3.84375 "/>
<path style=" stroke:none;fill-rule:nonzero;fill:rgb(100%,100%,100%);fill-opacity:0.6;" d="M 10.898438 3.84375 C 10.890625 3.871094 10.886719 3.902344 10.886719 3.9375 C 10.886719 4.144531 11.054688 4.3125 11.261719 4.3125 C 11.46875 4.3125 11.636719 4.144531 11.636719 3.9375 C 11.636719 3.902344 11.632812 3.871094 11.625 3.84375 C 11.582031 4.003906 11.4375 4.125 11.261719 4.125 C 11.085938 4.125 10.941406 4.003906 10.898438 3.84375 Z M 10.898438 3.84375 "/>
<path style=" stroke:none;fill-rule:nonzero;fill:rgb(100%,100%,100%);fill-opacity:0.6;" d="M 12.398438 3.84375 C 12.390625 3.871094 12.386719 3.902344 12.386719 3.9375 C 12.386719 4.144531 12.554688 4.3125 12.761719 4.3125 C 12.96875 4.3125 13.136719 4.144531 13.136719 3.9375 C 13.136719 3.902344 13.132812 3.871094 13.125 3.84375 C 13.082031 4.003906 12.9375 4.125 12.761719 4.125 C 12.585938 4.125 12.441406 4.003906 12.398438 3.84375 Z M 12.398438 3.84375 "/>
<path style=" stroke:none;fill-rule:nonzero;fill:rgb(100%,100%,100%);fill-opacity:0.6;" d="M 13.898438 3.84375 C 13.890625 3.871094 13.886719 3.902344 13.886719 3.9375 C 13.886719 4.144531 14.054688 4.3125 14.261719 4.3125 C 14.46875 4.3125 14.636719 4.144531 14.636719 3.9375 C 14.636719 3.902344 14.632812 3.871094 14.625 3.84375 C 14.582031 4.003906 14.4375 4.125 14.261719 4.125 C 14.085938 4.125 13.941406 4.003906 13.898438 3.84375 Z M 13.898438 3.84375 "/>
<path style=" stroke:none;fill-rule:nonzero;fill:rgb(0%,0%,0%);fill-opacity:0.4;" d="M 9.75 17.25 C 8.089844 17.25 6.75 15.910156 6.75 14.25 L 6.75 13.875 C 6.75 15.535156 8.089844 16.875 9.75 16.875 L 14.25 16.875 C 15.910156 16.875 17.25 15.535156 17.25 13.875 L 17.25 14.25 C 17.25 15.910156 15.910156 17.25 14.25 17.25 Z M 9.75 17.25 "/>
<path style=" stroke:none;fill-rule:nonzero;fill:rgb(0.392157%,0.392157%,0.392157%);fill-opacity:0.4;" d="M 9.75 14.625 C 9.546875 14.628906 9.382812 14.796875 9.382812 15 C 9.382812 15.03125 9.386719 15.0625 9.394531 15.09375 C 9.4375 14.929688 9.585938 14.8125 9.757812 14.8125 C 9.933594 14.8125 10.082031 14.929688 10.121094 15.09375 C 10.128906 15.0625 10.132812 15.03125 10.132812 15 C 10.132812 14.792969 9.96875 14.625 9.757812 14.625 C 9.757812 14.625 9.753906 14.625 9.75 14.625 Z M 9.75 14.625 "/>
<path style=" stroke:none;fill-rule:nonzero;fill:rgb(0%,0%,0%);fill-opacity:0.4;" d="M 10.5 21.375 L 10.5 21.75 C 10.5 22.164062 10.835938 22.5 11.25 22.5 L 12.75 22.5 C 13.164062 22.5 13.5 22.164062 13.5 21.75 L 13.5 21.375 C 13.5 21.789062 13.164062 22.125 12.75 22.125 L 11.25 22.125 C 10.835938 22.125 10.5 21.789062 10.5 21.375 Z M 10.5 21.375 "/>
<path style=" stroke:none;fill-rule:nonzero;fill:rgb(0%,0%,0%);fill-opacity:0.2;" d="M 13.125 17.25 L 13.125 22.023438 C 13.347656 21.894531 13.5 21.652344 13.5 21.375 L 13.5 17.25 Z M 13.5 21.75 C 13.5 21.765625 13.5 21.78125 13.5 21.796875 C 13.5 21.78125 13.5 21.765625 13.5 21.75 Z M 13.496094 21.808594 C 13.496094 21.816406 13.496094 21.828125 13.492188 21.839844 C 13.496094 21.828125 13.496094 21.816406 13.496094 21.808594 Z M 13.496094 21.808594 "/>
<path style=" stroke:none;fill-rule:nonzero;fill:rgb(0%,0%,0%);fill-opacity:0.2;" d="M 10.875 17.25 L 10.875 22.027344 C 10.652344 21.894531 10.5 21.652344 10.5 21.375 L 10.5 17.25 Z M 10.5 21.75 C 10.5 21.765625 10.5 21.78125 10.5 21.796875 C 10.5 21.78125 10.5 21.765625 10.5 21.75 Z M 10.503906 21.808594 C 10.503906 21.820312 10.503906 21.828125 10.503906 21.839844 C 10.503906 21.828125 10.503906 21.816406 10.503906 21.808594 Z M 10.503906 21.808594 "/>
<path style=" stroke:none;fill-rule:nonzero;fill:rgb(0%,0.784314%,1.176471%);fill-opacity:0.4;" d="M 10.5 17.25 L 13.5 17.25 L 13.5 17.625 L 10.5 17.625 Z M 10.5 17.25 "/>
<path style=" stroke:none;fill-rule:nonzero;fill:rgb(93.333334%,93.333334%,93.333334%);fill-opacity:0.988235;" d="M 6 20.25 L 18 20.25 C 18.414062 20.25 18.75 20.585938 18.75 21 L 18.75 21.75 C 18.75 22.164062 18.414062 22.5 18 22.5 L 6 22.5 C 5.585938 22.5 5.25 22.164062 5.25 21.75 L 5.25 21 C 5.25 20.585938 5.585938 20.25 6 20.25 Z M 6 20.25 "/>
<path style=" stroke:none;fill-rule:nonzero;fill:rgb(100%,100%,100%);fill-opacity:0.8;" d="M 6 20.25 C 5.585938 20.25 5.25 20.585938 5.25 21 L 5.25 21.375 C 5.25 20.960938 5.585938 20.625 6 20.625 L 18 20.625 C 18.414062 20.625 18.75 20.960938 18.75 21.375 L 18.75 21 C 18.75 20.585938 18.414062 20.25 18 20.25 Z M 6 20.25 "/>
<path style=" stroke:none;fill-rule:nonzero;fill:rgb(38.039216%,38.039216%,38.039216%);fill-opacity:0.996078;" d="M 5.25 21 L 18.75 21 L 18.75 21.5625 L 5.25 21.5625 Z M 5.25 21 "/>
<path style=" stroke:none;fill-rule:nonzero;fill:rgb(0%,0%,0%);fill-opacity:0.4;" d="M 6 22.5 C 5.585938 22.5 5.25 22.164062 5.25 21.75 L 5.25 21.375 C 5.25 21.789062 5.585938 22.125 6 22.125 L 18 22.125 C 18.414062 22.125 18.75 21.789062 18.75 21.375 L 18.75 21.75 C 18.75 22.164062 18.414062 22.5 18 22.5 Z M 6 22.5 "/>
<path style=" stroke:none;fill-rule:nonzero;fill:rgb(0%,0%,0%);fill-opacity:0.2;" d="M 5.25 21.75 L 5.25 22.3125 C 5.25 22.726562 5.585938 23.0625 6 23.0625 L 18 23.0625 C 18.414062 23.0625 18.75 22.726562 18.75 22.3125 L 18.75 21.75 C 18.75 22.164062 18.414062 22.5 18 22.5 L 6 22.5 C 5.585938 22.5 5.25 22.164062 5.25 21.75 Z M 5.25 21.75 "/>
<path style=" stroke:none;fill-rule:nonzero;fill:rgb(0%,0%,0%);fill-opacity:0.2;" d="M 5.25 21 L 18.75 21 L 18.75 21.1875 L 5.25 21.1875 Z M 5.25 21 "/>
<path style=" stroke:none;fill-rule:nonzero;fill:rgb(100%,100%,100%);fill-opacity:0.6;" d="M 5.25 21.5625 L 18.75 21.5625 L 18.75 21.75 L 5.25 21.75 Z M 5.25 21.5625 "/>
<path style=" stroke:none;fill-rule:nonzero;fill:url(#linear0);" d="M 9.75 1.5 C 8.089844 1.5 6.75 2.839844 6.75 4.5 L 6.75 14.25 C 6.75 15.871094 8.027344 17.1875 9.632812 17.246094 C 9.671875 17.25 9.710938 17.25 9.75 17.25 L 10.5 17.25 L 10.5 20.25 L 6 20.25 C 5.585938 20.25 5.25 20.585938 5.25 21 L 5.25 21.75 C 5.25 22.164062 5.585938 22.5 6 22.5 L 18 22.5 C 18.414062 22.5 18.75 22.164062 18.75 21.75 L 18.75 21 C 18.75 20.585938 18.414062 20.25 18 20.25 L 13.5 20.25 L 13.5 17.25 L 14.25 17.25 C 14.289062 17.25 14.328125 17.25 14.367188 17.246094 C 15.972656 17.1875 17.25 15.871094 17.25 14.25 L 17.25 4.5 C 17.25 2.839844 15.910156 1.5 14.25 1.5 Z M 9.75 1.5 "/>
</g>
</svg>
