
<svg xmlns="http://www.w3.org/2000/svg" xmlns:xlink="http://www.w3.org/1999/xlink" width="24" height="24" viewBox="0 0 24 24" version="1.1">
<defs>
<linearGradient id="linear0" gradientUnits="userSpaceOnUse" x1="8.466666" y1="-199.125" x2="8.466666" y2="-213.941666" gradientTransform="matrix(1.417323,0,0,1.417323,-0.00000473573,304.724425)">
<stop offset="0" style="stop-color:rgb(0%,0%,0%);stop-opacity:0.2;"/>
<stop offset="1" style="stop-color:rgb(100%,100%,100%);stop-opacity:0;"/>
</linearGradient>
</defs>
<g id="surface1">
<path style=" stroke:none;fill-rule:nonzero;fill:rgb(100%,43.921569%,26.274511%);fill-opacity:1;" d="M 3 1.5 L 21 1.5 C 21.828125 1.5 22.5 2.171875 22.5 3 L 22.5 21 C 22.5 21.828125 21.828125 22.5 21 22.5 L 3 22.5 C 2.171875 22.5 1.5 21.828125 1.5 21 L 1.5 3 C 1.5 2.171875 2.171875 1.5 3 1.5 Z M 3 1.5 "/>
<path style=" stroke:none;fill-rule:nonzero;fill:rgb(0%,0%,0%);fill-opacity:0.4;" d="M 1.5 20.625 L 1.5 21 C 1.5 21.832031 2.167969 22.5 3 22.5 L 21 22.5 C 21.832031 22.5 22.5 21.832031 22.5 21 L 22.5 20.625 C 22.5 21.457031 21.832031 22.125 21 22.125 L 3 22.125 C 2.167969 22.125 1.5 21.457031 1.5 20.625 Z M 1.5 20.625 "/>
<path style=" stroke:none;fill-rule:nonzero;fill:rgb(0%,0%,0%);fill-opacity:0.2;" d="M 1.5 21 L 1.5 21.5625 C 1.5 22.394531 2.167969 23.0625 3 23.0625 L 21 23.0625 C 21.832031 23.0625 22.5 22.394531 22.5 21.5625 L 22.5 21 C 22.5 21.832031 21.832031 22.5 21 22.5 L 3 22.5 C 2.167969 22.5 1.5 21.832031 1.5 21 Z M 1.5 21 "/>
<path style=" stroke:none;fill-rule:nonzero;fill:rgb(100%,100%,100%);fill-opacity:0.4;" d="M 3 1.5 C 2.167969 1.5 1.5 2.167969 1.5 3 L 1.5 3.367188 C 1.5 2.539062 2.167969 1.867188 3 1.867188 L 21 1.867188 C 21.832031 1.867188 22.5 2.539062 22.5 3.367188 L 22.5 3 C 22.5 2.167969 21.832031 1.5 21 1.5 Z M 3 1.5 "/>
<path style=" stroke:none;fill-rule:nonzero;fill:rgb(87.843138%,87.843138%,87.843138%);fill-opacity:1;" d="M 12 3.75 L 12 5.25 C 8.261719 5.25 5.25 8.261719 5.25 12 C 5.25 15.738281 8.261719 18.75 12 18.75 C 15.738281 18.75 18.75 15.738281 18.75 12 L 15.75 12 C 15.75 14.078125 14.078125 15.75 12 15.75 C 9.921875 15.75 8.25 14.078125 8.25 12 C 8.25 9.921875 9.921875 8.25 12 8.25 L 12 9.75 L 15.75 6.75 Z M 12 3.75 "/>
<path style=" stroke:none;fill-rule:nonzero;fill:rgb(100%,100%,100%);fill-opacity:0.6;" d="M 12 3.75 L 12 4.125 L 15.515625 6.9375 L 15.75 6.75 Z M 12 5.25 C 8.261719 5.25 5.25 8.261719 5.25 12 C 5.25 12.050781 5.253906 12.105469 5.253906 12.15625 C 5.367188 8.519531 8.332031 5.625 12 5.625 Z M 15.75 12 C 15.75 14.078125 14.078125 15.75 12 15.75 C 9.972656 15.75 8.335938 14.15625 8.257812 12.148438 C 8.253906 12.226562 8.25 12.300781 8.25 12.375 C 8.25 14.453125 9.921875 16.125 12 16.125 C 14.078125 16.125 15.75 14.453125 15.75 12.375 L 18.738281 12.375 C 18.746094 12.25 18.75 12.125 18.75 12 Z M 15.75 12 "/>
<path style=" stroke:none;fill-rule:nonzero;fill:rgb(0%,0%,0%);fill-opacity:0.4;" d="M 15.515625 6.9375 L 12 9.75 L 12 10.125 L 15.75 7.125 Z M 12 8.25 C 9.921875 8.25 8.25 9.921875 8.25 12 C 8.25 12.0625 8.253906 12.121094 8.253906 12.179688 C 8.355469 10.195312 9.988281 8.625 12 8.625 Z M 5.253906 12.1875 C 5.25 12.25 5.25 12.3125 5.25 12.375 C 5.25 16.113281 8.261719 19.125 12 19.125 C 15.738281 19.125 18.75 16.113281 18.75 12.375 L 18.738281 12.375 C 18.546875 15.9375 15.613281 18.75 12 18.75 C 8.324219 18.75 5.351562 15.839844 5.253906 12.1875 Z M 5.253906 12.1875 "/>
<path style=" stroke:none;fill-rule:nonzero;fill:url(#linear0);" d="M 3 1.5 L 21 1.5 C 21.828125 1.5 22.5 2.171875 22.5 3 L 22.5 21 C 22.5 21.828125 21.828125 22.5 21 22.5 L 3 22.5 C 2.171875 22.5 1.5 21.828125 1.5 21 L 1.5 3 C 1.5 2.171875 2.171875 1.5 3 1.5 Z M 3 1.5 "/>
</g>
</svg>
