
<svg xmlns="http://www.w3.org/2000/svg" xmlns:xlink="http://www.w3.org/1999/xlink" width="32" height="32" viewBox="0 0 32 32" version="1.1">
<defs>
<linearGradient id="linear0" gradientUnits="userSpaceOnUse" x1="32" y1="59.499996" x2="31.999998" y2="3.999999" gradientTransform="matrix(0.5,0,0,0.5,0.0118903,0)">
<stop offset="0" style="stop-color:rgb(0%,0%,0%);stop-opacity:0.2;"/>
<stop offset="1" style="stop-color:rgb(100%,100%,100%);stop-opacity:0;"/>
</linearGradient>
</defs>
<g id="surface1">
<path style=" stroke:none;fill-rule:nonzero;fill:rgb(38.039216%,38.039216%,38.039216%);fill-opacity:1;" d="M 16 2.339844 C 15.636719 2.339844 15.269531 2.480469 14.992188 2.757812 L 11.75 6 L 7.414062 6 C 6.632812 6 6 6.632812 6 7.414062 L 6 11.75 L 2.757812 14.992188 C 2.199219 15.550781 2.199219 16.449219 2.757812 17.007812 L 6 20.25 L 6 24.585938 C 6 25.367188 6.632812 26 7.414062 26 L 11.75 26 L 14.992188 29.242188 C 15.550781 29.800781 16.449219 29.800781 17.007812 29.242188 L 20.25 26 L 24.585938 26 C 25.367188 26 26 25.367188 26 24.585938 L 26 20.25 L 29.242188 17.007812 C 29.800781 16.449219 29.800781 15.550781 29.242188 14.992188 L 26 11.75 L 26 7.414062 C 26 6.632812 25.367188 6 24.585938 6 L 20.25 6 L 17.007812 2.757812 C 16.730469 2.480469 16.363281 2.339844 16 2.339844 Z M 16 2.339844 "/>
<path style=" stroke:none;fill-rule:nonzero;fill:rgb(93.333334%,93.333334%,93.333334%);fill-opacity:1;" d="M 16 6 C 21.523438 6 26 10.476562 26 16 C 26 21.523438 21.523438 26 16 26 C 10.476562 26 6 21.523438 6 16 C 6 10.476562 10.476562 6 16 6 Z M 16 6 "/>
<path style=" stroke:none;fill-rule:nonzero;fill:rgb(38.039216%,38.039216%,38.039216%);fill-opacity:1;" d="M 16 7 C 11.015625 7 7 11.015625 7 16 C 7 20.984375 11.015625 25 16 25 Z M 16 7 "/>
<path style=" stroke:none;fill-rule:nonzero;fill:rgb(100%,100%,100%);fill-opacity:0.4;" d="M 16 2.339844 C 15.636719 2.339844 15.269531 2.480469 14.992188 2.757812 L 11.75 6 L 7.414062 6 C 6.632812 6 6 6.632812 6 7.414062 L 6 7.914062 C 6 7.132812 6.632812 6.5 7.414062 6.5 L 11.75 6.5 L 14.992188 3.257812 C 15.269531 2.980469 15.636719 2.839844 16 2.839844 C 16.363281 2.839844 16.730469 2.980469 17.007812 3.257812 L 20.25 6.5 L 24.585938 6.5 C 25.367188 6.5 26 7.132812 26 7.914062 L 26 7.414062 C 26 6.632812 25.367188 6 24.585938 6 L 20.25 6 L 17.007812 2.757812 C 16.730469 2.480469 16.363281 2.339844 16 2.339844 Z M 6 11.75 L 2.757812 14.992188 C 2.417969 15.332031 2.285156 15.804688 2.363281 16.246094 C 2.414062 15.96875 2.542969 15.707031 2.757812 15.492188 L 6 12.25 Z M 26 11.75 L 26 12.25 L 29.242188 15.492188 C 29.457031 15.707031 29.585938 15.96875 29.636719 16.246094 C 29.714844 15.804688 29.582031 15.332031 29.242188 14.992188 Z M 26 11.75 "/>
<path style=" stroke:none;fill-rule:nonzero;fill:rgb(0%,0%,0%);fill-opacity:0.4;" d="M 16 29.660156 C 15.636719 29.660156 15.269531 29.519531 14.992188 29.242188 L 11.75 26 L 7.417969 26 C 6.632812 26 6 25.367188 6 24.585938 L 6 24.085938 C 6 24.867188 6.632812 25.5 7.417969 25.5 L 11.75 25.5 L 14.992188 28.742188 C 15.269531 29.019531 15.636719 29.160156 16 29.160156 C 16.363281 29.160156 16.730469 29.019531 17.007812 28.742188 L 20.25 25.5 L 24.585938 25.5 C 25.367188 25.5 26 24.867188 26 24.085938 L 26 24.585938 C 26 25.367188 25.367188 26 24.585938 26 L 20.25 26 L 17.007812 29.242188 C 16.730469 29.519531 16.363281 29.660156 16 29.660156 Z M 6 20.25 L 2.757812 17.007812 C 2.417969 16.667969 2.285156 16.195312 2.363281 15.753906 C 2.414062 16.03125 2.542969 16.296875 2.757812 16.507812 L 6 19.75 Z M 26 20.25 L 26 19.75 L 29.242188 16.507812 C 29.457031 16.296875 29.585938 16.03125 29.636719 15.753906 C 29.714844 16.195312 29.582031 16.667969 29.242188 17.007812 Z M 26 20.25 "/>
<path style=" stroke:none;fill-rule:nonzero;fill:rgb(0%,0%,0%);fill-opacity:0.2;" d="M 2.390625 16.382812 C 2.261719 16.859375 2.382812 17.390625 2.757812 17.769531 L 6 21.011719 L 6 20.253906 L 2.757812 17.011719 C 2.578125 16.828125 2.457031 16.613281 2.390625 16.382812 Z M 29.609375 16.382812 C 29.542969 16.613281 29.421875 16.828125 29.242188 17.011719 L 26 20.253906 L 26 21.011719 L 29.242188 17.769531 C 29.617188 17.390625 29.738281 16.859375 29.609375 16.382812 Z M 6 24.585938 L 6 25.34375 C 6 26.128906 6.632812 26.761719 7.414062 26.761719 L 11.75 26.761719 L 14.992188 30 C 15.550781 30.5625 16.449219 30.5625 17.007812 30 L 20.25 26.761719 L 24.585938 26.761719 C 25.367188 26.761719 26 26.128906 26 25.34375 L 26 24.585938 C 26 25.371094 25.367188 26.003906 24.585938 26.003906 L 20.25 26.003906 L 17.007812 29.242188 C 16.449219 29.804688 15.550781 29.804688 14.992188 29.242188 L 11.75 26.003906 L 7.414062 26.003906 C 6.632812 26.003906 6 25.371094 6 24.585938 Z M 6 24.585938 "/>
<path style=" stroke:none;fill-rule:nonzero;fill:rgb(100%,100%,100%);fill-opacity:0.4;" d="M 16 6 C 10.460938 6 6 10.460938 6 16 C 6 16.054688 6 16.113281 6 16.167969 C 6.046875 10.664062 10.488281 6.25 16 6.25 C 21.511719 6.25 25.953125 10.664062 26 16.167969 C 26 16.113281 26 16.054688 26 16 C 26 10.460938 21.539062 6 16 6 Z M 16 6 "/>
<path style=" stroke:none;fill-rule:nonzero;fill:rgb(3.921569%,3.921569%,3.921569%);fill-opacity:0.4;" d="M 6.003906 16.257812 C 6 16.339844 6 16.417969 6 16.5 C 6 16.542969 6 16.585938 6 16.628906 C 6.003906 16.589844 6.003906 16.546875 6.003906 16.507812 C 6.140625 21.929688 10.546875 26.25 16 26.25 C 21.453125 26.25 25.859375 21.929688 25.996094 16.507812 C 25.996094 16.546875 25.996094 16.589844 26 16.628906 C 26 16.585938 26 16.542969 26 16.5 C 26 16.417969 26 16.339844 25.996094 16.257812 C 25.859375 21.679688 21.453125 26 16 26 C 10.546875 26 6.140625 21.679688 6.003906 16.257812 Z M 6.003906 16.257812 "/>
<path style=" stroke:none;fill-rule:nonzero;fill:rgb(93.333334%,93.333334%,93.333334%);fill-opacity:1;" d="M 16 7 C 20.984375 7 25 11.015625 25 16 C 25 20.984375 20.984375 25 16 25 Z M 16 7 "/>
<path style=" stroke:none;fill-rule:nonzero;fill:url(#linear0);" d="M 16.011719 2.339844 C 15.648438 2.339844 15.28125 2.480469 15.003906 2.757812 L 11.761719 6 L 7.429688 6 C 6.644531 6 6.011719 6.632812 6.011719 7.417969 L 6.011719 11.75 L 2.769531 14.992188 C 2.210938 15.550781 2.210938 16.449219 2.769531 17.007812 L 6.011719 20.25 L 6.011719 24.582031 C 6.011719 25.367188 6.644531 26 7.429688 26 L 11.761719 26 L 15.003906 29.242188 C 15.5625 29.800781 16.460938 29.800781 17.019531 29.242188 L 20.261719 26 L 24.597656 26 C 25.378906 26 26.011719 25.367188 26.011719 24.582031 L 26.011719 20.25 L 29.253906 17.007812 C 29.8125 16.449219 29.8125 15.550781 29.253906 14.992188 L 26.011719 11.75 L 26.011719 7.417969 C 26.011719 6.632812 25.378906 6 24.597656 6 L 20.261719 6 L 17.019531 2.757812 C 16.742188 2.480469 16.375 2.339844 16.011719 2.339844 Z M 16.011719 2.339844 "/>
<path style=" stroke:none;fill-rule:nonzero;fill:rgb(0%,0%,0%);fill-opacity:0.4;" d="M 16 7 C 11.015625 7 7 11.015625 7 16 C 7 16.070312 7.003906 16.136719 7.003906 16.207031 C 7.160156 11.359375 11.113281 7.5 16 7.5 C 20.886719 7.5 24.839844 11.359375 24.996094 16.207031 C 24.996094 16.136719 25 16.070312 25 16 C 25 11.015625 20.984375 7 16 7 Z M 16 7 "/>
<path style=" stroke:none;fill-rule:nonzero;fill:rgb(99.607843%,99.607843%,99.607843%);fill-opacity:0.4;" d="M 16 25.5 C 11.015625 25.5 7 21.484375 7 16.5 C 7 16.429688 7.003906 16.363281 7.003906 16.292969 C 7.160156 21.140625 11.113281 25 16 25 C 20.886719 25 24.839844 21.140625 24.996094 16.292969 C 24.996094 16.363281 25 16.429688 25 16.5 C 25 21.484375 20.984375 25.5 16 25.5 Z M 16 25.5 "/>
</g>
</svg>
