
<svg xmlns="http://www.w3.org/2000/svg" xmlns:xlink="http://www.w3.org/1999/xlink" width="32" height="32" viewBox="0 0 32 32" version="1.1">
<defs>
<linearGradient id="linear0" gradientUnits="userSpaceOnUse" x1="8.466666" y1="-200.183334" x2="8.466666" y2="-213.412506" gradientTransform="matrix(1.889764,0,0,1.889764,0,406.299234)">
<stop offset="0" style="stop-color:rgb(0%,0%,0%);stop-opacity:0.2;"/>
<stop offset="1" style="stop-color:rgb(100%,100%,100%);stop-opacity:0;"/>
</linearGradient>
</defs>
<g id="surface1">
<path style=" stroke:none;fill-rule:nonzero;fill:rgb(55.29412%,43.137255%,38.82353%);fill-opacity:1;" d="M 4 4 L 28 4 C 29.105469 4 30 4.894531 30 6 L 30 26 C 30 27.105469 29.105469 28 28 28 L 4 28 C 2.894531 28 2 27.105469 2 26 L 2 6 C 2 4.894531 2.894531 4 4 4 Z M 4 4 "/>
<path style=" stroke:none;fill-rule:nonzero;fill:rgb(100%,100%,100%);fill-opacity:0.4;" d="M 4 4 C 2.890625 4 2 4.890625 2 6 L 2 6.5 C 2 5.390625 2.890625 4.5 4 4.5 L 28 4.5 C 29.109375 4.5 30 5.390625 30 6.5 L 30 6 C 30 4.890625 29.109375 4 28 4 Z M 4 4 "/>
<path style=" stroke:none;fill-rule:nonzero;fill:rgb(0.392157%,0.392157%,0.392157%);fill-opacity:0.4;" d="M 4 28 C 2.890625 28 2 27.109375 2 26 L 2 25.5 C 2 26.609375 2.890625 27.5 4 27.5 L 28 27.5 C 29.109375 27.5 30 26.609375 30 25.5 L 30 26 C 30 27.109375 29.109375 28 28 28 Z M 4 28 "/>
<path style=" stroke:none;fill-rule:nonzero;fill:rgb(0%,0%,0%);fill-opacity:0.2;" d="M 2 26 L 2 26.75 C 2 27.859375 2.890625 28.75 4 28.75 L 28 28.75 C 29.109375 28.75 30 27.859375 30 26.75 L 30 26 C 30 27.109375 29.109375 28 28 28 L 4 28 C 2.890625 28 2 27.109375 2 26 Z M 2 26 "/>
<path style=" stroke:none;fill-rule:nonzero;fill:rgb(38.039216%,38.039216%,38.039216%);fill-opacity:0.996078;" d="M 8 7 L 21 7 C 23.210938 7 25 8.789062 25 11 L 25 20 C 25 22.210938 23.210938 24 21 24 L 8 24 C 5.789062 24 4 22.210938 4 20 L 4 11 C 4 8.789062 5.789062 7 8 7 Z M 8 7 "/>
<path style=" stroke:none;fill-rule:nonzero;fill:rgb(38.039216%,38.039216%,38.039216%);fill-opacity:1;" d="M 27.5 7 C 28.328125 7 29 7.671875 29 8.5 C 29 9.328125 28.328125 10 27.5 10 C 26.671875 10 26 9.328125 26 8.5 C 26 7.671875 26.671875 7 27.5 7 Z M 27.5 7 "/>
<path style=" stroke:none;fill-rule:nonzero;fill:rgb(0%,0%,0%);fill-opacity:0.4;" d="M 26.019531 8.75 C 26.007812 8.832031 26 8.914062 26 9 C 26 9.832031 26.667969 10.5 27.5 10.5 C 28.332031 10.5 29 9.832031 29 9 C 29 8.914062 28.992188 8.832031 28.980469 8.75 C 28.859375 9.460938 28.246094 10 27.5 10 C 26.753906 10 26.140625 9.460938 26.019531 8.75 Z M 26.019531 8.75 "/>
<path style=" stroke:none;fill-rule:nonzero;fill:rgb(100%,100%,100%);fill-opacity:0.4;" d="M 26.019531 8.75 C 26.007812 8.667969 26 8.585938 26 8.5 C 26 7.667969 26.667969 7 27.5 7 C 28.332031 7 29 7.667969 29 8.5 C 29 8.585938 28.992188 8.667969 28.980469 8.75 C 28.863281 8.039062 28.246094 7.5 27.5 7.5 C 26.753906 7.5 26.140625 8.039062 26.019531 8.75 Z M 26.019531 8.75 "/>
<path style=" stroke:none;fill-rule:nonzero;fill:rgb(45.882353%,45.882353%,45.882353%);fill-opacity:1;" d="M 27.25 7.25 L 27.75 7.25 C 27.886719 7.25 28 7.363281 28 7.5 L 28 9.5 C 28 9.636719 27.886719 9.75 27.75 9.75 L 27.25 9.75 C 27.113281 9.75 27 9.636719 27 9.5 L 27 7.5 C 27 7.363281 27.113281 7.25 27.25 7.25 Z M 27.25 7.25 "/>
<path style=" stroke:none;fill-rule:nonzero;fill:rgb(100%,100%,100%);fill-opacity:0.4;" d="M 27.238281 7.25 C 27.105469 7.257812 27 7.367188 27 7.5 L 27 7.738281 C 27.007812 7.605469 27.117188 7.5 27.25 7.5 L 27.75 7.5 C 27.882812 7.5 27.992188 7.605469 28 7.738281 L 28 7.5 C 28 7.363281 27.886719 7.25 27.75 7.25 L 27.25 7.25 C 27.246094 7.25 27.242188 7.25 27.238281 7.25 Z M 27.238281 7.25 "/>
<path style=" stroke:none;fill-rule:nonzero;fill:rgb(0.392157%,0.392157%,0.392157%);fill-opacity:0.4;" d="M 27.238281 9.988281 C 27.105469 9.980469 27 9.871094 27 9.738281 L 27 9.5 C 27.007812 9.632812 27.117188 9.738281 27.25 9.738281 L 27.75 9.738281 C 27.882812 9.738281 27.992188 9.632812 28 9.5 L 28 9.738281 C 28 9.875 27.886719 9.988281 27.75 9.988281 L 27.25 9.988281 C 27.246094 9.988281 27.242188 9.988281 27.238281 9.988281 Z M 27.238281 9.988281 "/>
<path style=" stroke:none;fill-rule:nonzero;fill:rgb(38.039216%,38.039216%,38.039216%);fill-opacity:1;" d="M 27.5 12 C 28.328125 12 29 12.671875 29 13.5 C 29 14.328125 28.328125 15 27.5 15 C 26.671875 15 26 14.328125 26 13.5 C 26 12.671875 26.671875 12 27.5 12 Z M 27.5 12 "/>
<path style=" stroke:none;fill-rule:nonzero;fill:rgb(0%,0%,0%);fill-opacity:0.4;" d="M 26.019531 13.75 C 26.007812 13.832031 26 13.914062 26 14 C 26 14.832031 26.667969 15.5 27.5 15.5 C 28.332031 15.5 29 14.832031 29 14 C 29 13.914062 28.992188 13.832031 28.980469 13.75 C 28.863281 14.460938 28.246094 15 27.5 15 C 26.753906 15 26.140625 14.460938 26.019531 13.75 Z M 26.019531 13.75 "/>
<path style=" stroke:none;fill-rule:nonzero;fill:rgb(100%,100%,100%);fill-opacity:0.4;" d="M 26.019531 13.75 C 26.007812 13.667969 26 13.585938 26 13.5 C 26 12.667969 26.667969 12 27.5 12 C 28.332031 12 29 12.667969 29 13.5 C 29 13.585938 28.992188 13.667969 28.980469 13.75 C 28.863281 13.039062 28.246094 12.5 27.5 12.5 C 26.753906 12.5 26.140625 13.039062 26.019531 13.75 Z M 26.019531 13.75 "/>
<path style=" stroke:none;fill-rule:nonzero;fill:rgb(45.882353%,45.882353%,45.882353%);fill-opacity:1;" d="M 27.25 12.25 L 27.75 12.25 C 27.886719 12.25 28 12.363281 28 12.5 L 28 14.5 C 28 14.636719 27.886719 14.75 27.75 14.75 L 27.25 14.75 C 27.113281 14.75 27 14.636719 27 14.5 L 27 12.5 C 27 12.363281 27.113281 12.25 27.25 12.25 Z M 27.25 12.25 "/>
<path style=" stroke:none;fill-rule:nonzero;fill:rgb(100%,100%,100%);fill-opacity:0.4;" d="M 27.238281 12.25 C 27.105469 12.257812 27 12.367188 27 12.5 L 27 12.738281 C 27.007812 12.605469 27.117188 12.5 27.25 12.5 L 27.75 12.5 C 27.882812 12.5 27.992188 12.605469 28 12.738281 L 28 12.5 C 28 12.363281 27.886719 12.25 27.75 12.25 L 27.25 12.25 C 27.246094 12.25 27.242188 12.25 27.238281 12.25 Z M 27.238281 12.25 "/>
<path style=" stroke:none;fill-rule:nonzero;fill:rgb(0.392157%,0.392157%,0.392157%);fill-opacity:0.4;" d="M 27.238281 14.988281 C 27.105469 14.980469 27 14.871094 27 14.738281 L 27 14.5 C 27.007812 14.632812 27.117188 14.738281 27.25 14.738281 L 27.75 14.738281 C 27.882812 14.738281 27.992188 14.632812 28 14.5 L 28 14.738281 C 28 14.875 27.886719 14.988281 27.75 14.988281 L 27.25 14.988281 C 27.246094 14.988281 27.242188 14.988281 27.238281 14.988281 Z M 27.238281 14.988281 "/>
<path style=" stroke:none;fill-rule:nonzero;fill:rgb(0%,0%,0%);fill-opacity:0.4;" d="M 26.25 17 L 28.75 17 C 28.886719 17 29 17.113281 29 17.25 L 29 17.75 C 29 17.886719 28.886719 18 28.75 18 L 26.25 18 C 26.113281 18 26 17.886719 26 17.75 L 26 17.25 C 26 17.113281 26.113281 17 26.25 17 Z M 26.25 17 "/>
<path style=" stroke:none;fill-rule:nonzero;fill:rgb(0%,0%,0%);fill-opacity:0.4;" d="M 26.238281 17 C 26.105469 17.007812 26 17.117188 26 17.25 L 26 17.488281 C 26.007812 17.355469 26.117188 17.25 26.25 17.25 L 28.75 17.25 C 28.882812 17.25 28.992188 17.355469 29 17.488281 L 29 17.25 C 29 17.113281 28.886719 17 28.75 17 L 26.25 17 C 26.246094 17 26.242188 17 26.238281 17 Z M 26.238281 17 "/>
<path style=" stroke:none;fill-rule:nonzero;fill:rgb(99.215686%,99.215686%,99.215686%);fill-opacity:0.4;" d="M 26.238281 18.238281 C 26.105469 18.230469 26 18.121094 26 17.988281 L 26 17.75 C 26.007812 17.882812 26.117188 17.988281 26.25 17.988281 L 28.75 17.988281 C 28.882812 17.988281 28.992188 17.882812 29 17.75 L 29 17.988281 C 29 18.125 28.886719 18.238281 28.75 18.238281 L 26.25 18.238281 C 26.246094 18.238281 26.242188 18.238281 26.238281 18.238281 Z M 26.238281 18.238281 "/>
<path style=" stroke:none;fill-rule:nonzero;fill:rgb(0%,0%,0%);fill-opacity:0.4;" d="M 26.25 19 L 28.75 19 C 28.886719 19 29 19.113281 29 19.25 L 29 19.75 C 29 19.886719 28.886719 20 28.75 20 L 26.25 20 C 26.113281 20 26 19.886719 26 19.75 L 26 19.25 C 26 19.113281 26.113281 19 26.25 19 Z M 26.25 19 "/>
<path style=" stroke:none;fill-rule:nonzero;fill:rgb(0%,0%,0%);fill-opacity:0.4;" d="M 26.238281 19 C 26.105469 19.007812 26 19.117188 26 19.25 L 26 19.488281 C 26.007812 19.355469 26.117188 19.25 26.25 19.25 L 28.75 19.25 C 28.882812 19.25 28.992188 19.355469 29 19.488281 L 29 19.25 C 29 19.113281 28.886719 19 28.75 19 L 26.25 19 C 26.246094 19 26.242188 19 26.238281 19 Z M 26.238281 19 "/>
<path style=" stroke:none;fill-rule:nonzero;fill:rgb(99.215686%,99.215686%,99.215686%);fill-opacity:0.4;" d="M 26.238281 20.238281 C 26.105469 20.230469 26 20.121094 26 19.988281 L 26 19.75 C 26.007812 19.882812 26.117188 19.988281 26.25 19.988281 L 28.75 19.988281 C 28.882812 19.988281 28.992188 19.882812 29 19.75 L 29 19.988281 C 29 20.125 28.886719 20.238281 28.75 20.238281 L 26.25 20.238281 C 26.246094 20.238281 26.242188 20.238281 26.238281 20.238281 Z M 26.238281 20.238281 "/>
<path style=" stroke:none;fill-rule:nonzero;fill:rgb(0%,0%,0%);fill-opacity:0.4;" d="M 26.25 21 L 28.75 21 C 28.886719 21 29 21.113281 29 21.25 L 29 21.75 C 29 21.886719 28.886719 22 28.75 22 L 26.25 22 C 26.113281 22 26 21.886719 26 21.75 L 26 21.25 C 26 21.113281 26.113281 21 26.25 21 Z M 26.25 21 "/>
<path style=" stroke:none;fill-rule:nonzero;fill:rgb(0%,0%,0%);fill-opacity:0.4;" d="M 26.238281 21 C 26.105469 21.007812 26 21.117188 26 21.25 L 26 21.488281 C 26.007812 21.355469 26.117188 21.25 26.25 21.25 L 28.75 21.25 C 28.882812 21.25 28.992188 21.355469 29 21.488281 L 29 21.25 C 29 21.113281 28.886719 21 28.75 21 L 26.25 21 C 26.246094 21 26.242188 21 26.238281 21 Z M 26.238281 21 "/>
<path style=" stroke:none;fill-rule:nonzero;fill:rgb(99.215686%,99.215686%,99.215686%);fill-opacity:0.4;" d="M 26.238281 22.238281 C 26.105469 22.230469 26 22.121094 26 21.988281 L 26 21.75 C 26.007812 21.882812 26.117188 21.988281 26.25 21.988281 L 28.75 21.988281 C 28.882812 21.988281 28.992188 21.882812 29 21.75 L 29 21.988281 C 29 22.125 28.886719 22.238281 28.75 22.238281 L 26.25 22.238281 C 26.246094 22.238281 26.242188 22.238281 26.238281 22.238281 Z M 26.238281 22.238281 "/>
<path style=" stroke:none;fill-rule:nonzero;fill:rgb(0%,0%,0%);fill-opacity:0.4;" d="M 26.25 23 L 28.75 23 C 28.886719 23 29 23.113281 29 23.25 L 29 23.75 C 29 23.886719 28.886719 24 28.75 24 L 26.25 24 C 26.113281 24 26 23.886719 26 23.75 L 26 23.25 C 26 23.113281 26.113281 23 26.25 23 Z M 26.25 23 "/>
<path style=" stroke:none;fill-rule:nonzero;fill:rgb(0%,0%,0%);fill-opacity:0.4;" d="M 26.238281 23 C 26.105469 23.007812 26 23.117188 26 23.25 L 26 23.488281 C 26.007812 23.355469 26.117188 23.25 26.25 23.25 L 28.75 23.25 C 28.882812 23.25 28.992188 23.355469 29 23.488281 L 29 23.25 C 29 23.113281 28.886719 23 28.75 23 L 26.25 23 C 26.246094 23 26.242188 23 26.238281 23 Z M 26.238281 23 "/>
<path style=" stroke:none;fill-rule:nonzero;fill:rgb(99.215686%,99.215686%,99.215686%);fill-opacity:0.4;" d="M 26.238281 24.238281 C 26.105469 24.230469 26 24.121094 26 23.988281 L 26 23.75 C 26.007812 23.882812 26.117188 23.988281 26.25 23.988281 L 28.75 23.988281 C 28.882812 23.988281 28.992188 23.882812 29 23.75 L 29 23.988281 C 29 24.125 28.886719 24.238281 28.75 24.238281 L 26.25 24.238281 C 26.246094 24.238281 26.242188 24.238281 26.238281 24.238281 Z M 26.238281 24.238281 "/>
<path style=" stroke:none;fill-rule:nonzero;fill:url(#linear0);" d="M 4 4 L 28 4 C 29.105469 4 30 4.894531 30 6 L 30 26 C 30 27.105469 29.105469 28 28 28 L 4 28 C 2.894531 28 2 27.105469 2 26 L 2 6 C 2 4.894531 2.894531 4 4 4 Z M 4 4 "/>
<path style=" stroke:none;fill-rule:nonzero;fill:rgb(100%,100%,100%);fill-opacity:0.4;" d="M 8 7 C 5.785156 7 4 8.785156 4 11 L 4 11.5 C 4 9.285156 5.785156 7.5 8 7.5 L 21 7.5 C 23.214844 7.5 25 9.285156 25 11.5 L 25 11 C 25 8.785156 23.214844 7 21 7 Z M 8 7 "/>
<path style=" stroke:none;fill-rule:nonzero;fill:rgb(0.392157%,0.392157%,0.392157%);fill-opacity:0.4;" d="M 21 24.5 C 23.214844 24.5 25 22.714844 25 20.5 L 25 20 C 25 22.214844 23.214844 24 21 24 L 8 24 C 5.785156 24 4 22.214844 4 20 L 4 20.5 C 4 22.714844 5.785156 24.5 8 24.5 Z M 21 24.5 "/>
<path style=" stroke:none;fill-rule:nonzero;fill:rgb(61.960787%,61.960787%,61.960787%);fill-opacity:0.854902;" d="M 7.605469 9.105469 C 7.796875 9.296875 7.640625 9.773438 7.25 10.164062 C 6.859375 10.554688 6.382812 10.714844 6.1875 10.519531 C 5.992188 10.324219 6.152344 9.847656 6.542969 9.457031 C 6.933594 9.066406 7.410156 8.910156 7.605469 9.105469 Z M 7.605469 9.105469 "/>
</g>
</svg>
