
<svg xmlns="http://www.w3.org/2000/svg" xmlns:xlink="http://www.w3.org/1999/xlink" width="22" height="22" viewBox="0 0 22 22" version="1.1">
<defs>
<linearGradient id="linear0" gradientUnits="userSpaceOnUse" x1="8.466666" y1="-199.125" x2="8.466666" y2="-213.941666" gradientTransform="matrix(1.299213,0,0,1.299213,0,279.330723)">
<stop offset="0" style="stop-color:rgb(0%,0%,0%);stop-opacity:0.2;"/>
<stop offset="1" style="stop-color:rgb(100%,100%,100%);stop-opacity:0;"/>
</linearGradient>
</defs>
<g id="surface1">
<path style=" stroke:none;fill-rule:nonzero;fill:rgb(61.176473%,80.000001%,39.607844%);fill-opacity:1;" d="M 11 1.378906 C 6.808594 1.378906 3.433594 5.058594 3.4375 9.625 C 3.441406 15.125 8.253906 20.621094 11 20.621094 C 13.75 20.621094 18.5625 15.125 18.5625 9.625 C 18.5625 5.058594 15.191406 1.378906 11 1.378906 Z M 11 1.378906 "/>
<path style=" stroke:none;fill-rule:nonzero;fill:rgb(38.039216%,38.039216%,38.039216%);fill-opacity:1;" d="M 5.5 8.9375 C 7.5625 8.9375 10.3125 8.9375 10.3125 13.0625 C 5.5 13.0625 5.5 11 5.5 8.9375 Z M 5.5 8.9375 "/>
<path style=" stroke:none;fill-rule:nonzero;fill:rgb(38.039216%,38.039216%,38.039216%);fill-opacity:1;" d="M 16.5 8.9375 C 14.4375 8.9375 11.6875 8.9375 11.6875 13.0625 C 16.5 13.0625 16.5 11 16.5 8.9375 Z M 16.5 8.9375 "/>
<path style=" stroke:none;fill-rule:nonzero;fill:rgb(61.960787%,61.960787%,61.960787%);fill-opacity:1;" d="M 6.1875 9.625 C 6.53125 9.625 6.988281 9.625 6.988281 10.3125 C 6.1875 10.3125 6.1875 9.96875 6.1875 9.625 Z M 6.1875 9.625 "/>
<path style=" stroke:none;fill-rule:nonzero;fill:rgb(61.960787%,61.960787%,61.960787%);fill-opacity:1;" d="M 13.578125 9.894531 C 13.285156 9.894531 12.890625 9.894531 12.890625 10.484375 C 13.578125 10.484375 13.578125 10.191406 13.578125 9.894531 Z M 13.578125 9.894531 "/>
<path style=" stroke:none;fill-rule:nonzero;fill:rgb(100%,100%,100%);fill-opacity:0.4;" d="M 11 1.378906 C 6.808594 1.378906 3.433594 5.058594 3.4375 9.625 C 3.4375 9.675781 3.4375 9.726562 3.441406 9.777344 C 3.527344 5.296875 6.867188 1.71875 11 1.71875 C 15.136719 1.71875 18.476562 5.304688 18.558594 9.792969 C 18.5625 9.738281 18.5625 9.679688 18.5625 9.625 C 18.5625 5.058594 15.191406 1.378906 11 1.378906 Z M 11 1.378906 "/>
<path style=" stroke:none;fill-rule:nonzero;fill:rgb(0%,0%,0%);fill-opacity:0.4;" d="M 3.441406 9.4375 C 3.4375 9.5 3.4375 9.5625 3.4375 9.625 C 3.441406 15.125 8.253906 20.621094 11 20.621094 C 13.753906 20.621094 18.5625 15.125 18.5625 9.625 C 18.5625 9.566406 18.5625 9.511719 18.558594 9.453125 C 18.464844 14.894531 13.722656 20.285156 11 20.285156 C 8.277344 20.285156 3.53125 14.886719 3.441406 9.4375 Z M 3.441406 9.4375 "/>
<path style=" stroke:none;fill-rule:nonzero;fill:rgb(0%,0%,0%);fill-opacity:0.2;" d="M 3.441406 9.886719 C 3.4375 9.972656 3.4375 10.054688 3.4375 10.140625 C 3.441406 15.640625 8.253906 21.136719 11 21.136719 C 13.753906 21.136719 18.5625 15.640625 18.5625 10.140625 C 18.5625 10.058594 18.5625 9.976562 18.558594 9.898438 C 18.40625 15.304688 13.707031 20.625 11 20.625 C 8.296875 20.625 3.59375 15.296875 3.441406 9.886719 Z M 3.441406 9.886719 "/>
<path style=" stroke:none;fill-rule:nonzero;fill:rgb(100%,100%,100%);fill-opacity:0.4;" d="M 5.5 8.9375 C 5.5 8.996094 5.5 9.050781 5.5 9.109375 C 7.535156 9.109375 10.234375 9.109375 10.308594 13.0625 C 10.3125 13.0625 10.3125 13.0625 10.3125 13.0625 C 10.3125 8.9375 7.5625 8.9375 5.5 8.9375 Z M 16.304688 8.9375 C 14.269531 8.941406 11.6875 9.066406 11.6875 13.0625 C 11.6875 13.0625 11.6875 13.0625 11.691406 13.0625 C 11.761719 9.234375 14.296875 9.113281 16.304688 9.109375 C 16.371094 9.109375 16.433594 9.109375 16.5 9.109375 C 16.5 9.050781 16.5 8.996094 16.5 8.9375 C 16.4375 8.9375 16.371094 8.9375 16.304688 8.9375 Z M 16.304688 8.9375 "/>
<path style=" stroke:none;fill-rule:nonzero;fill:rgb(0%,0%,0%);fill-opacity:0.2;" d="M 5.5 9.28125 C 5.5 11.34375 5.5 13.40625 10.3125 13.40625 C 10.3125 13.289062 10.308594 13.175781 10.304688 13.0625 C 5.769531 13.0625 5.515625 11.222656 5.5 9.28125 Z M 16.5 9.28125 C 16.484375 11.222656 16.230469 13.0625 11.695312 13.0625 C 11.691406 13.175781 11.6875 13.289062 11.6875 13.40625 C 16.5 13.40625 16.5 11.34375 16.5 9.28125 Z M 16.5 9.28125 "/>
<path style=" stroke:none;fill-rule:nonzero;fill:url(#linear0);" d="M 11 1.378906 C 6.808594 1.378906 3.433594 5.058594 3.4375 9.625 C 3.441406 15.125 8.253906 20.621094 11 20.621094 C 13.75 20.621094 18.5625 15.125 18.5625 9.625 C 18.5625 5.058594 15.191406 1.378906 11 1.378906 Z M 11 1.378906 "/>
</g>
</svg>
