
<svg xmlns="http://www.w3.org/2000/svg" xmlns:xlink="http://www.w3.org/1999/xlink" width="22" height="22" viewBox="0 0 22 22" version="1.1">
<defs>
<linearGradient id="linear0" gradientUnits="userSpaceOnUse" x1="8.466666" y1="-199.125" x2="8.466666" y2="-213.941666" gradientTransform="matrix(1.299213,0,0,1.299213,0.000427651,279.330723)">
<stop offset="0" style="stop-color:rgb(0%,0%,0%);stop-opacity:0.2;"/>
<stop offset="1" style="stop-color:rgb(100%,100%,100%);stop-opacity:0;"/>
</linearGradient>
</defs>
<g id="surface1">
<path style=" stroke:none;fill-rule:nonzero;fill:rgb(25.882354%,64.705884%,96.078432%);fill-opacity:1;" d="M 2.75 1.375 L 19.25 1.375 C 20.011719 1.375 20.625 1.992188 20.625 2.75 L 20.625 19.25 C 20.625 20.007812 20.011719 20.625 19.25 20.625 L 2.75 20.625 C 1.992188 20.625 1.375 20.007812 1.375 19.25 L 1.375 2.75 C 1.375 1.992188 1.992188 1.375 2.75 1.375 Z M 2.75 1.375 "/>
<path style=" stroke:none;fill-rule:nonzero;fill:rgb(56.470591%,79.215688%,97.647059%);fill-opacity:1;" d="M 2.921875 5.5 L 19.078125 5.5 L 19.078125 5.671875 L 2.921875 5.671875 Z M 2.921875 5.5 "/>
<path style=" stroke:none;fill-rule:nonzero;fill:rgb(56.470591%,79.215688%,97.647059%);fill-opacity:1;" d="M 2.921875 4.125 L 19.078125 4.125 L 19.078125 4.296875 L 2.921875 4.296875 Z M 2.921875 4.125 "/>
<path style=" stroke:none;fill-rule:nonzero;fill:rgb(56.470591%,79.215688%,97.647059%);fill-opacity:1;" d="M 2.921875 8.25 L 19.078125 8.25 L 19.078125 8.421875 L 2.921875 8.421875 Z M 2.921875 8.25 "/>
<path style=" stroke:none;fill-rule:nonzero;fill:rgb(56.470591%,79.215688%,97.647059%);fill-opacity:1;" d="M 2.921875 6.875 L 19.078125 6.875 L 19.078125 7.046875 L 2.921875 7.046875 Z M 2.921875 6.875 "/>
<path style=" stroke:none;fill-rule:nonzero;fill:rgb(56.470591%,79.215688%,97.647059%);fill-opacity:1;" d="M 2.921875 11 L 19.078125 11 L 19.078125 11.171875 L 2.921875 11.171875 Z M 2.921875 11 "/>
<path style=" stroke:none;fill-rule:nonzero;fill:rgb(56.470591%,79.215688%,97.647059%);fill-opacity:1;" d="M 2.921875 9.625 L 19.078125 9.625 L 19.078125 9.796875 L 2.921875 9.796875 Z M 2.921875 9.625 "/>
<path style=" stroke:none;fill-rule:nonzero;fill:rgb(56.470591%,79.215688%,97.647059%);fill-opacity:1;" d="M 2.921875 13.75 L 19.078125 13.75 L 19.078125 13.921875 L 2.921875 13.921875 Z M 2.921875 13.75 "/>
<path style=" stroke:none;fill-rule:nonzero;fill:rgb(56.470591%,79.215688%,97.647059%);fill-opacity:1;" d="M 2.921875 12.375 L 19.078125 12.375 L 19.078125 12.546875 L 2.921875 12.546875 Z M 2.921875 12.375 "/>
<path style=" stroke:none;fill-rule:nonzero;fill:rgb(56.470591%,79.215688%,97.647059%);fill-opacity:1;" d="M 2.921875 16.5 L 19.078125 16.5 L 19.078125 16.671875 L 2.921875 16.671875 Z M 2.921875 16.5 "/>
<path style=" stroke:none;fill-rule:nonzero;fill:rgb(56.470591%,79.215688%,97.647059%);fill-opacity:1;" d="M 2.921875 15.125 L 19.078125 15.125 L 19.078125 15.296875 L 2.921875 15.296875 Z M 2.921875 15.125 "/>
<path style=" stroke:none;fill-rule:nonzero;fill:rgb(56.470591%,79.215688%,97.647059%);fill-opacity:1;" d="M 2.921875 17.875 L 19.078125 17.875 L 19.078125 18.046875 L 2.921875 18.046875 Z M 2.921875 17.875 "/>
<path style=" stroke:none;fill-rule:nonzero;fill:rgb(56.470591%,79.215688%,97.647059%);fill-opacity:1;" d="M 16.585938 2.921875 L 16.585938 19.078125 L 16.414062 19.078125 L 16.414062 2.921875 Z M 16.585938 2.921875 "/>
<path style=" stroke:none;fill-rule:nonzero;fill:rgb(56.470591%,79.215688%,97.647059%);fill-opacity:1;" d="M 17.960938 2.921875 L 17.960938 19.078125 L 17.789062 19.078125 L 17.789062 2.921875 Z M 17.960938 2.921875 "/>
<path style=" stroke:none;fill-rule:nonzero;fill:rgb(56.470591%,79.215688%,97.647059%);fill-opacity:1;" d="M 13.835938 2.921875 L 13.835938 19.078125 L 13.664062 19.078125 L 13.664062 2.921875 Z M 13.835938 2.921875 "/>
<path style=" stroke:none;fill-rule:nonzero;fill:rgb(56.470591%,79.215688%,97.647059%);fill-opacity:1;" d="M 15.210938 2.921875 L 15.210938 19.078125 L 15.039062 19.078125 L 15.039062 2.921875 Z M 15.210938 2.921875 "/>
<path style=" stroke:none;fill-rule:nonzero;fill:rgb(56.470591%,79.215688%,97.647059%);fill-opacity:1;" d="M 11.085938 2.921875 L 11.085938 19.078125 L 10.914062 19.078125 L 10.914062 2.921875 Z M 11.085938 2.921875 "/>
<path style=" stroke:none;fill-rule:nonzero;fill:rgb(56.470591%,79.215688%,97.647059%);fill-opacity:1;" d="M 12.460938 2.921875 L 12.460938 19.078125 L 12.289062 19.078125 L 12.289062 2.921875 Z M 12.460938 2.921875 "/>
<path style=" stroke:none;fill-rule:nonzero;fill:rgb(56.470591%,79.215688%,97.647059%);fill-opacity:1;" d="M 8.335938 2.921875 L 8.335938 19.078125 L 8.164062 19.078125 L 8.164062 2.921875 Z M 8.335938 2.921875 "/>
<path style=" stroke:none;fill-rule:nonzero;fill:rgb(56.470591%,79.215688%,97.647059%);fill-opacity:1;" d="M 9.710938 2.921875 L 9.710938 19.078125 L 9.539062 19.078125 L 9.539062 2.921875 Z M 9.710938 2.921875 "/>
<path style=" stroke:none;fill-rule:nonzero;fill:rgb(56.470591%,79.215688%,97.647059%);fill-opacity:1;" d="M 5.585938 2.921875 L 5.585938 19.078125 L 5.414062 19.078125 L 5.414062 2.921875 Z M 5.585938 2.921875 "/>
<path style=" stroke:none;fill-rule:nonzero;fill:rgb(56.470591%,79.215688%,97.647059%);fill-opacity:1;" d="M 6.960938 2.921875 L 6.960938 19.078125 L 6.789062 19.078125 L 6.789062 2.921875 Z M 6.960938 2.921875 "/>
<path style=" stroke:none;fill-rule:nonzero;fill:rgb(56.470591%,79.215688%,97.647059%);fill-opacity:1;" d="M 4.210938 2.921875 L 4.210938 19.078125 L 4.039062 19.078125 L 4.039062 2.921875 Z M 4.210938 2.921875 "/>
<path style=" stroke:none;fill-rule:nonzero;fill:rgb(56.470591%,79.215688%,97.647059%);fill-opacity:1;" d="M 3.4375 2.75 C 3.054688 2.75 2.75 3.054688 2.75 3.4375 L 2.75 18.5625 C 2.75 18.945312 3.054688 19.25 3.4375 19.25 L 18.5625 19.25 C 18.945312 19.25 19.25 18.945312 19.25 18.5625 L 19.25 3.4375 C 19.25 3.054688 18.945312 2.75 18.5625 2.75 Z M 3.402344 2.921875 L 18.597656 2.921875 C 18.863281 2.921875 19.078125 3.136719 19.078125 3.402344 L 19.078125 18.597656 C 19.078125 18.863281 18.863281 19.078125 18.597656 19.078125 L 3.402344 19.078125 C 3.136719 19.078125 2.921875 18.863281 2.921875 18.597656 L 2.921875 3.402344 C 2.921875 3.136719 3.136719 2.921875 3.402344 2.921875 Z M 3.402344 2.921875 "/>
<path style=" stroke:none;fill-rule:nonzero;fill:rgb(0%,0%,0%);fill-opacity:0.4;" d="M 1.375 18.90625 L 1.375 19.25 C 1.375 20.011719 1.988281 20.625 2.75 20.625 L 19.25 20.625 C 20.011719 20.625 20.625 20.011719 20.625 19.25 L 20.625 18.90625 C 20.625 19.667969 20.011719 20.28125 19.25 20.28125 L 2.75 20.28125 C 1.988281 20.28125 1.375 19.667969 1.375 18.90625 Z M 1.375 18.90625 "/>
<path style=" stroke:none;fill-rule:nonzero;fill:rgb(0%,0%,0%);fill-opacity:0.2;" d="M 1.375 19.25 L 1.375 19.765625 C 1.375 20.527344 1.988281 21.140625 2.75 21.140625 L 19.25 21.140625 C 20.011719 21.140625 20.625 20.527344 20.625 19.765625 L 20.625 19.25 C 20.625 20.011719 20.011719 20.625 19.25 20.625 L 2.75 20.625 C 1.988281 20.625 1.375 20.011719 1.375 19.25 Z M 1.375 19.25 "/>
<path style=" stroke:none;fill-rule:nonzero;fill:rgb(100%,100%,100%);fill-opacity:0.4;" d="M 2.75 1.375 C 1.988281 1.375 1.375 1.988281 1.375 2.75 L 1.375 3.089844 C 1.375 2.328125 1.988281 1.714844 2.75 1.714844 L 19.25 1.714844 C 20.011719 1.714844 20.625 2.328125 20.625 3.089844 L 20.625 2.75 C 20.625 1.988281 20.011719 1.375 19.25 1.375 Z M 2.75 1.375 "/>
<path style=" stroke:none;fill-rule:nonzero;fill:rgb(0%,0%,0%);fill-opacity:0.4;" d="M 20.195312 12.726562 C 19.925781 14.347656 19.03125 15.75 17.765625 16.679688 L 17.902344 16.917969 C 19.183594 15.921875 20.054688 14.429688 20.242188 12.726562 Z M 14.09375 13.070312 L 11.957031 16.765625 C 12.011719 16.789062 12.066406 16.808594 12.121094 16.832031 L 14.09375 13.414062 L 16.066406 16.832031 C 16.121094 16.8125 16.175781 16.789062 16.226562 16.765625 Z M 11.613281 17.367188 L 10.5625 19.183594 C 10.441406 19.394531 10.222656 19.515625 10 19.527344 L 9.101562 20.453125 C 9.082031 20.519531 9.070312 20.566406 9.050781 20.625 L 9.269531 20.625 L 10 19.871094 C 10.222656 19.859375 10.441406 19.738281 10.5625 19.527344 L 11.613281 17.710938 C 12.371094 18.042969 13.210938 18.226562 14.09375 18.226562 C 14.976562 18.226562 15.816406 18.042969 16.574219 17.710938 L 17.625 19.527344 C 17.75 19.742188 17.972656 19.867188 18.203125 19.871094 C 18.441406 20.109375 18.726562 20.398438 18.941406 20.625 L 19.152344 20.625 L 19.101562 20.449219 C 18.890625 20.222656 18.507812 19.832031 18.203125 19.527344 C 17.972656 19.523438 17.75 19.398438 17.625 19.183594 L 16.574219 17.367188 C 15.816406 17.699219 14.976562 17.882812 14.09375 17.882812 C 13.210938 17.882812 12.371094 17.699219 11.613281 17.367188 Z M 9.300781 19.011719 C 9.269531 19.132812 9.273438 19.257812 9.308594 19.375 C 9.328125 19.308594 9.347656 19.234375 9.363281 19.171875 C 9.335938 19.121094 9.316406 19.066406 9.300781 19.011719 Z M 18.882812 19.011719 C 18.871094 19.0625 18.855469 19.109375 18.828125 19.15625 L 18.886719 19.351562 C 18.914062 19.242188 18.914062 19.125 18.882812 19.011719 Z M 18.882812 19.011719 "/>
<path style=" stroke:none;fill-rule:nonzero;fill:rgb(61.960787%,61.960787%,61.960787%);fill-opacity:0.996078;" d="M 13.75 9.460938 L 14.4375 9.460938 L 14.4375 10.664062 L 13.75 10.664062 Z M 13.75 9.460938 "/>
<path style=" stroke:none;fill-rule:nonzero;fill:rgb(61.960787%,61.960787%,61.960787%);fill-opacity:1;" d="M 8.9375 20.625 C 9.023438 20.476562 9.519531 18.582031 9.519531 18.582031 L 10.414062 19.097656 Z M 8.9375 20.625 "/>
<path style=" stroke:none;fill-rule:nonzero;fill:rgb(74.117649%,74.117649%,74.117649%);fill-opacity:0.996078;" d="M 14.4375 11.097656 C 14.765625 11.289062 14.878906 11.710938 14.6875 12.039062 L 10.5625 19.183594 C 10.371094 19.511719 9.953125 19.625 9.625 19.433594 C 9.292969 19.246094 9.183594 18.824219 9.371094 18.496094 L 13.496094 11.351562 C 13.6875 11.023438 14.105469 10.910156 14.4375 11.097656 Z M 14.4375 11.097656 "/>
<path style=" stroke:none;fill-rule:nonzero;fill:rgb(61.960787%,61.960787%,61.960787%);fill-opacity:0.996078;" d="M 19.550781 12.382812 C 19.214844 15.101562 16.90625 17.195312 14.09375 17.195312 C 12.839844 17.195312 11.691406 16.777344 10.769531 16.078125 L 10.421875 16.679688 C 11.445312 17.433594 12.714844 17.882812 14.09375 17.882812 C 17.289062 17.882812 19.902344 15.484375 20.242188 12.382812 Z M 19.550781 12.382812 "/>
<path style=" stroke:none;fill-rule:nonzero;fill:rgb(74.117649%,74.117649%,74.117649%);fill-opacity:1;" d="M 19.25 20.625 C 19.164062 20.476562 17.773438 19.097656 17.773438 19.097656 L 18.664062 18.582031 Z M 19.25 20.625 "/>
<path style=" stroke:none;fill-rule:nonzero;fill:rgb(87.843138%,87.843138%,87.843138%);fill-opacity:0.996078;" d="M 13.75 11.097656 C 14.078125 10.910156 14.5 11.023438 14.6875 11.351562 L 18.8125 18.496094 C 19.003906 18.824219 18.890625 19.246094 18.5625 19.433594 C 18.234375 19.625 17.8125 19.511719 17.625 19.183594 L 13.5 12.039062 C 13.308594 11.710938 13.421875 11.289062 13.75 11.097656 Z M 13.75 11.097656 "/>
<path style=" stroke:none;fill-rule:nonzero;fill:rgb(99.607843%,99.607843%,99.607843%);fill-opacity:0.4;" d="M 14.070312 11.007812 C 14.039062 11.007812 14.007812 11.011719 13.980469 11.015625 C 13.976562 11.015625 13.976562 11.015625 13.976562 11.015625 C 13.792969 11.046875 13.625 11.152344 13.515625 11.320312 C 13.511719 11.324219 13.511719 11.328125 13.507812 11.335938 C 13.503906 11.339844 13.5 11.34375 13.496094 11.351562 L 10.769531 16.078125 L 10.421875 16.679688 L 9.371094 18.496094 C 9.277344 18.65625 9.257812 18.84375 9.300781 19.011719 C 9.316406 18.953125 9.339844 18.894531 9.371094 18.839844 L 10.421875 17.023438 L 10.769531 16.421875 L 13.496094 11.695312 C 13.5 11.691406 13.503906 11.683594 13.507812 11.679688 C 13.511719 11.671875 13.511719 11.667969 13.515625 11.664062 C 13.625 11.496094 13.792969 11.390625 13.976562 11.359375 C 13.976562 11.359375 13.976562 11.359375 13.980469 11.359375 C 14.007812 11.355469 14.039062 11.351562 14.070312 11.351562 C 14.082031 11.347656 14.097656 11.347656 14.109375 11.351562 C 14.132812 11.351562 14.15625 11.351562 14.175781 11.355469 C 14.1875 11.355469 14.199219 11.359375 14.210938 11.359375 C 14.386719 11.390625 14.554688 11.492188 14.660156 11.648438 C 14.667969 11.660156 14.671875 11.667969 14.679688 11.679688 C 14.683594 11.683594 14.6875 11.6875 14.6875 11.695312 L 17.417969 16.421875 C 18.570312 15.550781 19.363281 14.234375 19.550781 12.726562 L 20.195312 12.726562 C 20.214844 12.613281 20.230469 12.496094 20.242188 12.382812 L 19.550781 12.382812 C 19.363281 13.890625 18.570312 15.207031 17.417969 16.078125 L 14.6875 11.351562 C 14.6875 11.34375 14.683594 11.339844 14.679688 11.335938 C 14.671875 11.324219 14.667969 11.316406 14.660156 11.304688 C 14.554688 11.148438 14.386719 11.046875 14.210938 11.015625 C 14.199219 11.015625 14.1875 11.011719 14.175781 11.011719 C 14.15625 11.007812 14.132812 11.003906 14.109375 11.003906 C 14.097656 11.003906 14.085938 11.003906 14.070312 11.003906 Z M 12.121094 16.828125 L 11.957031 17.109375 C 12.613281 17.386719 13.335938 17.539062 14.09375 17.539062 C 14.851562 17.539062 15.570312 17.386719 16.226562 17.109375 L 16.066406 16.828125 C 15.453125 17.0625 14.789062 17.195312 14.09375 17.195312 C 13.398438 17.195312 12.734375 17.0625 12.121094 16.828125 Z M 17.902344 16.917969 C 17.859375 16.953125 17.8125 16.988281 17.765625 17.023438 L 18.8125 18.839844 C 18.847656 18.894531 18.867188 18.953125 18.882812 19.007812 C 18.925781 18.839844 18.910156 18.65625 18.8125 18.496094 Z M 18.886719 19.351562 C 18.871094 19.402344 18.855469 19.453125 18.828125 19.5 L 19.101562 20.449219 C 19.179688 20.535156 19.234375 20.601562 19.25 20.625 Z M 9.308594 19.375 C 9.160156 19.914062 8.984375 20.542969 8.9375 20.625 L 9.101562 20.453125 C 9.1875 20.164062 9.285156 19.8125 9.363281 19.515625 C 9.363281 19.515625 9.363281 19.511719 9.363281 19.511719 C 9.339844 19.46875 9.320312 19.421875 9.308594 19.375 Z M 9.308594 19.375 "/>
<path style=" stroke:none;fill-rule:nonzero;fill:rgb(87.843138%,87.843138%,87.843138%);fill-opacity:0.996078;" d="M 14.09375 10.320312 C 14.851562 10.320312 15.46875 10.933594 15.46875 11.695312 C 15.46875 12.453125 14.851562 13.070312 14.09375 13.070312 C 13.332031 13.070312 12.71875 12.453125 12.71875 11.695312 C 12.71875 10.933594 13.332031 10.320312 14.09375 10.320312 Z M 14.09375 10.320312 "/>
<path style=" stroke:none;fill-rule:nonzero;fill:rgb(0%,0%,0%);fill-opacity:0.4;" d="M 14.09375 11.007812 C 14.472656 11.007812 14.78125 11.316406 14.78125 11.695312 C 14.78125 12.074219 14.472656 12.382812 14.09375 12.382812 C 13.714844 12.382812 13.40625 12.074219 13.40625 11.695312 C 13.40625 11.316406 13.714844 11.007812 14.09375 11.007812 Z M 14.09375 11.007812 "/>
<path style=" stroke:none;fill-rule:nonzero;fill:rgb(0%,0%,0%);fill-opacity:0.4;" d="M 14.074219 11.007812 C 13.703125 11.015625 13.40625 11.320312 13.40625 11.695312 C 13.40625 11.722656 13.40625 11.75 13.410156 11.78125 C 13.453125 11.445312 13.730469 11.1875 14.074219 11.179688 C 14.082031 11.179688 14.085938 11.179688 14.09375 11.179688 C 14.445312 11.179688 14.730469 11.4375 14.773438 11.777344 C 14.777344 11.75 14.78125 11.722656 14.78125 11.695312 C 14.78125 11.3125 14.472656 11.007812 14.09375 11.007812 C 14.085938 11.007812 14.082031 11.007812 14.074219 11.007812 Z M 14.074219 11.007812 "/>
<path style=" stroke:none;fill-rule:nonzero;fill:rgb(100%,100%,100%);fill-opacity:0.6;" d="M 13.410156 11.78125 C 13.40625 11.808594 13.40625 11.835938 13.40625 11.867188 C 13.40625 12.242188 13.703125 12.542969 14.074219 12.554688 C 14.082031 12.554688 14.085938 12.554688 14.09375 12.554688 C 14.472656 12.554688 14.78125 12.246094 14.78125 11.867188 C 14.78125 11.835938 14.777344 11.808594 14.773438 11.78125 C 14.734375 12.121094 14.445312 12.382812 14.09375 12.382812 C 14.085938 12.382812 14.082031 12.382812 14.074219 12.382812 C 13.730469 12.375 13.453125 12.113281 13.410156 11.78125 Z M 13.410156 11.78125 "/>
<path style=" stroke:none;fill-rule:nonzero;fill:rgb(38.039216%,38.039216%,38.039216%);fill-opacity:0.996078;" d="M 13.921875 6.882812 L 14.265625 6.882812 C 14.550781 6.882812 14.78125 7.113281 14.78125 7.398438 L 14.78125 9.460938 C 14.78125 9.746094 14.550781 9.976562 14.265625 9.976562 L 13.921875 9.976562 C 13.636719 9.976562 13.40625 9.746094 13.40625 9.460938 L 13.40625 7.398438 C 13.40625 7.113281 13.636719 6.882812 13.921875 6.882812 Z M 13.921875 6.882812 "/>
<path style=" stroke:none;fill-rule:nonzero;fill:rgb(11.764706%,11.764706%,11.764706%);fill-opacity:0.4;" d="M 16.757812 16.308594 C 17.003906 16.164062 17.320312 16.25 17.460938 16.496094 C 17.605469 16.742188 17.519531 17.058594 17.273438 17.203125 C 17.027344 17.34375 16.710938 17.257812 16.570312 17.011719 C 16.425781 16.765625 16.511719 16.449219 16.757812 16.308594 Z M 16.757812 16.308594 "/>
<path style=" stroke:none;fill-rule:nonzero;fill:rgb(11.764706%,11.764706%,11.764706%);fill-opacity:0.4;" d="M 17.003906 16.238281 C 16.917969 16.242188 16.835938 16.265625 16.757812 16.308594 C 16.574219 16.414062 16.480469 16.617188 16.503906 16.8125 C 16.519531 16.65625 16.609375 16.507812 16.757812 16.421875 C 17.003906 16.277344 17.320312 16.363281 17.460938 16.609375 C 17.5 16.671875 17.519531 16.742188 17.527344 16.808594 C 17.539062 16.707031 17.519531 16.597656 17.460938 16.496094 C 17.363281 16.328125 17.183594 16.234375 17.003906 16.238281 Z M 17.003906 16.238281 "/>
<path style=" stroke:none;fill-rule:nonzero;fill:rgb(99.607843%,99.607843%,99.607843%);fill-opacity:0.6;" d="M 17.003906 17.386719 C 16.917969 17.382812 16.835938 17.359375 16.757812 17.316406 C 16.574219 17.210938 16.480469 17.011719 16.503906 16.8125 C 16.519531 16.96875 16.609375 17.117188 16.757812 17.203125 C 17.003906 17.347656 17.320312 17.261719 17.460938 17.015625 C 17.5 16.953125 17.519531 16.882812 17.527344 16.816406 C 17.539062 16.917969 17.519531 17.027344 17.460938 17.128906 C 17.363281 17.296875 17.183594 17.390625 17.003906 17.386719 Z M 17.003906 17.386719 "/>
<path style=" stroke:none;fill-rule:nonzero;fill:rgb(87.843138%,87.843138%,87.843138%);fill-opacity:0.996078;" d="M 14.09375 11.179688 C 14.378906 11.179688 14.609375 11.410156 14.609375 11.695312 C 14.609375 11.980469 14.378906 12.210938 14.09375 12.210938 C 13.808594 12.210938 13.578125 11.980469 13.578125 11.695312 C 13.578125 11.410156 13.808594 11.179688 14.09375 11.179688 Z M 14.09375 11.179688 "/>
<path style=" stroke:none;fill-rule:nonzero;fill:rgb(87.843138%,87.843138%,87.843138%);fill-opacity:0.6;" d="M 14.09375 11.179688 C 14.378906 11.179688 14.609375 11.410156 14.609375 11.695312 C 14.609375 11.980469 14.378906 12.210938 14.09375 12.210938 C 13.808594 12.210938 13.578125 11.980469 13.578125 11.695312 C 13.578125 11.410156 13.808594 11.179688 14.09375 11.179688 Z M 14.09375 11.179688 "/>
<path style=" stroke:none;fill-rule:nonzero;fill:rgb(100%,100%,100%);fill-opacity:0.6;" d="M 14.078125 11.179688 C 13.800781 11.183594 13.578125 11.414062 13.578125 11.695312 C 13.578125 11.722656 13.582031 11.753906 13.585938 11.78125 C 13.625 11.535156 13.835938 11.351562 14.09375 11.351562 C 14.347656 11.351562 14.5625 11.535156 14.601562 11.78125 C 14.605469 11.753906 14.609375 11.722656 14.609375 11.695312 C 14.609375 11.410156 14.378906 11.179688 14.09375 11.179688 C 14.089844 11.179688 14.085938 11.179688 14.078125 11.179688 Z M 14.078125 11.179688 "/>
<path style=" stroke:none;fill-rule:nonzero;fill:rgb(1.176471%,1.176471%,1.176471%);fill-opacity:0.4;" d="M 14.078125 12.382812 C 13.800781 12.375 13.578125 12.148438 13.578125 11.867188 C 13.578125 11.835938 13.582031 11.808594 13.585938 11.78125 C 13.625 12.023438 13.835938 12.210938 14.09375 12.210938 C 14.347656 12.210938 14.5625 12.023438 14.601562 11.78125 C 14.605469 11.808594 14.609375 11.835938 14.609375 11.867188 C 14.609375 12.152344 14.378906 12.382812 14.09375 12.382812 C 14.089844 12.382812 14.085938 12.382812 14.078125 12.382812 Z M 14.078125 12.382812 "/>
<path style=" stroke:none;fill-rule:nonzero;fill:rgb(38.039216%,38.039216%,38.039216%);fill-opacity:1;" d="M 16.84375 16.457031 C 17.007812 16.363281 17.21875 16.417969 17.3125 16.582031 C 17.410156 16.746094 17.351562 16.957031 17.1875 17.050781 C 17.023438 17.148438 16.8125 17.089844 16.71875 16.925781 C 16.621094 16.761719 16.679688 16.550781 16.84375 16.457031 Z M 16.84375 16.457031 "/>
<path style=" stroke:none;fill-rule:nonzero;fill:rgb(100%,100%,100%);fill-opacity:0.4;" d="M 17.007812 16.410156 C 16.949219 16.410156 16.894531 16.425781 16.84375 16.457031 C 16.722656 16.527344 16.660156 16.660156 16.675781 16.792969 C 16.6875 16.691406 16.746094 16.59375 16.84375 16.535156 C 17.007812 16.441406 17.21875 16.496094 17.3125 16.664062 C 17.335938 16.703125 17.351562 16.75 17.355469 16.796875 C 17.367188 16.722656 17.351562 16.652344 17.3125 16.582031 C 17.246094 16.46875 17.128906 16.40625 17.007812 16.410156 Z M 17.007812 16.410156 "/>
<path style=" stroke:none;fill-rule:nonzero;fill:rgb(0%,0%,0%);fill-opacity:0.4;" d="M 16.675781 16.714844 C 16.664062 16.785156 16.679688 16.859375 16.71875 16.925781 C 16.8125 17.089844 17.023438 17.148438 17.1875 17.050781 C 17.3125 16.980469 17.371094 16.847656 17.355469 16.714844 C 17.34375 16.816406 17.285156 16.910156 17.1875 16.96875 C 17.023438 17.0625 16.8125 17.007812 16.71875 16.84375 C 16.695312 16.800781 16.679688 16.757812 16.675781 16.714844 Z M 16.675781 16.714844 "/>
<path style=" stroke:none;fill-rule:nonzero;fill:rgb(100%,100%,100%);fill-opacity:0.6;" d="M 14.09375 10.320312 C 13.332031 10.320312 12.71875 10.933594 12.71875 11.695312 C 12.71875 11.753906 12.722656 11.808594 12.726562 11.867188 C 12.8125 11.1875 13.390625 10.664062 14.09375 10.664062 C 14.796875 10.664062 15.375 11.1875 15.457031 11.867188 C 15.464844 11.808594 15.46875 11.753906 15.46875 11.695312 C 15.46875 10.933594 14.855469 10.320312 14.09375 10.320312 Z M 14.09375 10.320312 "/>
<path style=" stroke:none;fill-rule:nonzero;fill:rgb(4.705882%,4.705882%,4.705882%);fill-opacity:0.4;" d="M 14.09375 13.414062 C 13.332031 13.414062 12.71875 12.800781 12.71875 12.039062 C 12.71875 11.980469 12.722656 11.921875 12.726562 11.867188 C 12.8125 12.546875 13.390625 13.070312 14.09375 13.070312 C 14.796875 13.070312 15.375 12.546875 15.457031 11.867188 C 15.464844 11.921875 15.46875 11.980469 15.46875 12.039062 C 15.46875 12.800781 14.855469 13.414062 14.09375 13.414062 Z M 14.09375 13.414062 "/>
<path style=" stroke:none;fill-rule:nonzero;fill:rgb(100%,100%,100%);fill-opacity:0.4;" d="M 13.921875 6.882812 C 13.636719 6.882812 13.40625 7.113281 13.40625 7.398438 L 13.40625 7.742188 C 13.40625 7.457031 13.636719 7.226562 13.921875 7.226562 L 14.265625 7.226562 C 14.550781 7.226562 14.78125 7.457031 14.78125 7.742188 L 14.78125 7.398438 C 14.78125 7.113281 14.550781 6.882812 14.265625 6.882812 Z M 13.921875 6.882812 "/>
<path style=" stroke:none;fill-rule:nonzero;fill:rgb(30.980393%,30.980393%,30.980393%);fill-opacity:0.4;" d="M 13.921875 10.320312 C 13.636719 10.320312 13.40625 10.089844 13.40625 9.804688 L 13.40625 9.460938 C 13.40625 9.746094 13.636719 9.976562 13.921875 9.976562 L 14.265625 9.976562 C 14.550781 9.976562 14.78125 9.746094 14.78125 9.460938 L 14.78125 9.804688 C 14.78125 10.089844 14.550781 10.320312 14.265625 10.320312 Z M 13.921875 10.320312 "/>
<path style="fill-rule:nonzero;fill:rgb(93.333334%,93.333334%,93.333334%);fill-opacity:1;stroke-width:0.0529167;stroke-linecap:butt;stroke-linejoin:miter;stroke:rgb(95.686275%,95.686275%,95.686275%);stroke-opacity:0.498039;stroke-miterlimit:4;" d="M 4.167187 -209.708334 L 4.167187 -204.284376 L 7.474479 -204.284376 L 7.474479 -209.708334 Z M 4.299479 -209.576042 L 7.342187 -209.576042 L 7.342187 -204.416667 L 4.299479 -204.416667 Z M 4.299479 -209.576042 " transform="matrix(1.299213,0,0,1.299213,0,279.330723)"/>
<path style="fill-rule:nonzero;fill:rgb(93.333334%,93.333334%,93.333334%);fill-opacity:1;stroke-width:0.0529167;stroke-linecap:butt;stroke-linejoin:miter;stroke:rgb(95.686275%,95.686275%,95.686275%);stroke-opacity:0.498039;stroke-miterlimit:4;" d="M 2.645833 -209.708334 L 2.645833 -209.576042 L 5.291666 -209.576042 L 5.291666 -209.708334 Z M 2.645833 -209.708334 " transform="matrix(1.299213,0,0,1.299213,0,279.330723)"/>
<path style="fill-rule:nonzero;fill:rgb(93.333334%,93.333334%,93.333334%);fill-opacity:1;stroke-width:0.0529167;stroke-linecap:butt;stroke-linejoin:miter;stroke:rgb(95.686275%,95.686275%,95.686275%);stroke-opacity:0.498039;stroke-miterlimit:4;" d="M 2.645833 -204.416667 L 2.645833 -204.284376 L 5.291666 -204.284376 L 5.291666 -204.416667 Z M 2.645833 -204.416667 " transform="matrix(1.299213,0,0,1.299213,0,279.330723)"/>
<path style="fill-rule:nonzero;fill:rgb(93.333334%,93.333334%,93.333334%);fill-opacity:1;stroke-width:0.0529167;stroke-linecap:butt;stroke-linejoin:miter;stroke:rgb(95.686275%,95.686275%,95.686275%);stroke-opacity:0.498039;stroke-miterlimit:4;" d="M 3.108854 -209.443359 L 3.108854 -204.68086 L 3.241146 -204.68086 L 3.241146 -209.443359 Z M 3.108854 -209.443359 " transform="matrix(1.299213,0,0,1.299213,0,279.502091)"/>
<path style="fill-rule:evenodd;fill:rgb(93.333334%,93.333334%,93.333334%);fill-opacity:1;stroke-width:0.0529167;stroke-linecap:butt;stroke-linejoin:miter;stroke:rgb(95.686275%,95.686275%,95.686275%);stroke-opacity:0.498039;stroke-miterlimit:4;" d="M 3.175 -205.210026 L 2.910417 -205.47461 L 3.175 -204.548568 L 3.439583 -205.47461 Z M 3.175 -205.210026 " transform="matrix(1.299213,0,0,1.299213,0,279.502091)"/>
<path style="fill-rule:evenodd;fill:rgb(93.333334%,93.333334%,93.333334%);fill-opacity:1;stroke-width:0.0529167;stroke-linecap:butt;stroke-linejoin:miter;stroke:rgb(95.686275%,95.686275%,95.686275%);stroke-opacity:0.498039;stroke-miterlimit:4;" d="M 2.841264 -205.661021 L 3.175 -204.485429 L 3.511742 -205.661021 L 3.175 -205.327285 Z M 3.370431 -205.42049 L 3.175 -204.743999 L 2.982576 -205.417484 L 3.175 -205.22506 L 3.199053 -205.252119 Z M 3.370431 -205.42049 " transform="matrix(1.299213,0,0,1.299213,0,279.502091)"/>
<path style="fill-rule:evenodd;fill:rgb(93.333334%,93.333334%,93.333334%);fill-opacity:1;stroke-width:0.0529167;stroke-linecap:butt;stroke-linejoin:miter;stroke:rgb(95.686275%,95.686275%,95.686275%);stroke-opacity:0.498039;stroke-miterlimit:4;" d="M 3.175 -208.914193 L 3.439583 -208.64961 L 3.175 -209.575651 L 2.910417 -208.64961 Z M 3.175 -208.914193 " transform="matrix(1.299213,0,0,1.299213,0,279.502091)"/>
<path style="fill-rule:evenodd;fill:rgb(93.333334%,93.333334%,93.333334%);fill-opacity:1;stroke-width:0.0529167;stroke-linecap:butt;stroke-linejoin:miter;stroke:rgb(95.686275%,95.686275%,95.686275%);stroke-opacity:0.498039;stroke-miterlimit:4;" d="M 3.175 -209.771082 L 2.841264 -208.59549 L 3.175 -208.932233 L 3.511742 -208.59549 Z M 3.175 -209.512512 L 3.370431 -208.839027 L 3.175 -209.031451 L 3.150947 -209.004392 L 2.982576 -208.839027 Z M 3.175 -209.512512 " transform="matrix(1.299213,0,0,1.299213,0,279.502091)"/>
<path style=" stroke:none;fill-rule:nonzero;fill:url(#linear0);" d="M 2.75 1.375 L 19.25 1.375 C 20.011719 1.375 20.625 1.992188 20.625 2.75 L 20.625 19.25 C 20.625 20.007812 20.011719 20.625 19.25 20.625 L 2.75 20.625 C 1.992188 20.625 1.375 20.007812 1.375 19.25 L 1.375 2.75 C 1.375 1.992188 1.992188 1.375 2.75 1.375 Z M 2.75 1.375 "/>
</g>
</svg>
