
<svg xmlns="http://www.w3.org/2000/svg" xmlns:xlink="http://www.w3.org/1999/xlink" width="22" height="22" viewBox="0 0 22 22" version="1.1">
<defs>
<linearGradient id="linear0" gradientUnits="userSpaceOnUse" x1="8.466666" y1="-199.125" x2="8.466666" y2="-213.941666" gradientTransform="matrix(1.299213,0,0,1.299213,0.000000859293,279.330723)">
<stop offset="0" style="stop-color:rgb(0%,0%,0%);stop-opacity:0.2;"/>
<stop offset="1" style="stop-color:rgb(100%,100%,100%);stop-opacity:0;"/>
</linearGradient>
<linearGradient id="linear1" gradientUnits="userSpaceOnUse" x1="8.466666" y1="-211.824997" x2="8.466666" y2="-204.416672" gradientTransform="matrix(1.299213,0,0,1.299213,0.00402823,279.158848)">
<stop offset="0" style="stop-color:rgb(0%,0%,0%);stop-opacity:0.2;"/>
<stop offset="1" style="stop-color:rgb(100%,100%,100%);stop-opacity:0;"/>
</linearGradient>
<linearGradient id="linear2" gradientUnits="userSpaceOnUse" x1="8.466666" y1="-206.53334" x2="8.466666" y2="-209.708328" gradientTransform="matrix(1.299213,0,0,1.299213,0.00402823,279.158848)">
<stop offset="0" style="stop-color:rgb(0%,0%,0%);stop-opacity:0.2;"/>
<stop offset="1" style="stop-color:rgb(100%,100%,100%);stop-opacity:0;"/>
</linearGradient>
<radialGradient id="radial0" gradientUnits="userSpaceOnUse" cx="8.466666" cy="-207.59166" fx="8.466666" fy="-207.59166" r="2.116667" gradientTransform="matrix(0.974409,0,0,0.974409,2.750002,210.013611)">
<stop offset="0" style="stop-color:rgb(100%,100%,100%);stop-opacity:0.501961;"/>
<stop offset="1" style="stop-color:rgb(100%,100%,100%);stop-opacity:0;"/>
</radialGradient>
</defs>
<g id="surface1">
<path style=" stroke:none;fill-rule:nonzero;fill:rgb(38.039216%,38.039216%,38.039216%);fill-opacity:1;" d="M 4.8125 1.375 L 17.1875 1.375 C 17.945312 1.375 18.5625 1.992188 18.5625 2.75 L 18.5625 19.25 C 18.5625 20.007812 17.945312 20.625 17.1875 20.625 L 4.8125 20.625 C 4.054688 20.625 3.4375 20.007812 3.4375 19.25 L 3.4375 2.75 C 3.4375 1.992188 4.054688 1.375 4.8125 1.375 Z M 4.8125 1.375 "/>
<path style=" stroke:none;fill-rule:nonzero;fill:url(#linear0);" d="M 4.8125 1.375 L 17.1875 1.375 C 17.945312 1.375 18.5625 1.992188 18.5625 2.75 L 18.5625 19.25 C 18.5625 20.007812 17.945312 20.625 17.1875 20.625 L 4.8125 20.625 C 4.054688 20.625 3.4375 20.007812 3.4375 19.25 L 3.4375 2.75 C 3.4375 1.992188 4.054688 1.375 4.8125 1.375 Z M 4.8125 1.375 "/>
<path style=" stroke:none;fill-rule:nonzero;fill:rgb(45.882353%,45.882353%,45.882353%);fill-opacity:1;" d="M 6.523438 15.984375 C 7.09375 15.984375 7.554688 16.445312 7.554688 17.015625 C 7.554688 17.585938 7.09375 18.046875 6.523438 18.046875 C 5.953125 18.046875 5.492188 17.585938 5.492188 17.015625 C 5.492188 16.445312 5.953125 15.984375 6.523438 15.984375 Z M 6.523438 15.984375 "/>
<path style=" stroke:none;fill-rule:nonzero;fill:rgb(45.882353%,45.882353%,45.882353%);fill-opacity:1;" d="M 15.476562 15.984375 C 16.046875 15.984375 16.507812 16.445312 16.507812 17.015625 C 16.507812 17.585938 16.046875 18.046875 15.476562 18.046875 C 14.90625 18.046875 14.445312 17.585938 14.445312 17.015625 C 14.445312 16.445312 14.90625 15.984375 15.476562 15.984375 Z M 15.476562 15.984375 "/>
<path style=" stroke:none;fill-rule:nonzero;fill:rgb(0%,0%,0%);fill-opacity:0.4;" d="M 5.5 17.101562 C 5.496094 17.128906 5.492188 17.15625 5.492188 17.1875 C 5.492188 17.757812 5.953125 18.21875 6.523438 18.21875 C 7.09375 18.21875 7.554688 17.757812 7.554688 17.1875 C 7.554688 17.15625 7.546875 17.128906 7.546875 17.101562 C 7.5 17.632812 7.0625 18.046875 6.523438 18.046875 C 5.980469 18.046875 5.542969 17.632812 5.5 17.101562 Z M 5.5 17.101562 "/>
<path style=" stroke:none;fill-rule:nonzero;fill:rgb(100%,100%,100%);fill-opacity:0.4;" d="M 5.5 17.101562 C 5.496094 17.070312 5.492188 17.042969 5.492188 17.015625 C 5.492188 16.445312 5.953125 15.984375 6.523438 15.984375 C 7.09375 15.984375 7.554688 16.445312 7.554688 17.015625 C 7.554688 17.042969 7.546875 17.070312 7.546875 17.101562 C 7.5 16.570312 7.0625 16.15625 6.523438 16.15625 C 5.980469 16.15625 5.542969 16.570312 5.5 17.101562 Z M 5.5 17.101562 "/>
<path style=" stroke:none;fill-rule:nonzero;fill:rgb(40.000001%,73.333335%,41.568628%);fill-opacity:1;" d="M 6.523438 16.5 C 6.808594 16.5 7.039062 16.730469 7.039062 17.015625 C 7.039062 17.300781 6.808594 17.53125 6.523438 17.53125 C 6.238281 17.53125 6.007812 17.300781 6.007812 17.015625 C 6.007812 16.730469 6.238281 16.5 6.523438 16.5 Z M 6.523438 16.5 "/>
<path style=" stroke:none;fill-rule:nonzero;fill:rgb(100%,100%,100%);fill-opacity:0.4;" d="M 6.523438 16.5 C 6.238281 16.5 6.007812 16.730469 6.007812 17.015625 C 6.007812 17.046875 6.011719 17.074219 6.015625 17.101562 C 6.054688 16.855469 6.265625 16.671875 6.523438 16.671875 C 6.777344 16.671875 6.988281 16.855469 7.03125 17.101562 C 7.035156 17.074219 7.039062 17.046875 7.039062 17.015625 C 7.039062 16.730469 6.808594 16.5 6.523438 16.5 Z M 6.523438 16.5 "/>
<path style=" stroke:none;fill-rule:nonzero;fill:rgb(0%,0%,0%);fill-opacity:0.4;" d="M 6.523438 17.703125 C 6.238281 17.703125 6.007812 17.472656 6.007812 17.1875 C 6.007812 17.15625 6.011719 17.128906 6.015625 17.101562 C 6.054688 17.347656 6.265625 17.53125 6.523438 17.53125 C 6.777344 17.53125 6.988281 17.347656 7.03125 17.101562 C 7.035156 17.128906 7.039062 17.15625 7.039062 17.1875 C 7.039062 17.472656 6.808594 17.703125 6.523438 17.703125 Z M 6.523438 17.703125 "/>
<path style=" stroke:none;fill-rule:nonzero;fill:rgb(0%,0%,0%);fill-opacity:0.4;" d="M 14.453125 17.101562 C 14.453125 17.128906 14.445312 17.15625 14.445312 17.1875 C 14.445312 17.757812 14.90625 18.21875 15.476562 18.21875 C 16.050781 18.21875 16.507812 17.757812 16.507812 17.1875 C 16.507812 17.15625 16.503906 17.128906 16.5 17.101562 C 16.457031 17.632812 16.019531 18.046875 15.476562 18.046875 C 14.9375 18.046875 14.5 17.632812 14.453125 17.101562 Z M 14.453125 17.101562 "/>
<path style=" stroke:none;fill-rule:nonzero;fill:rgb(100%,100%,100%);fill-opacity:0.4;" d="M 14.453125 17.101562 C 14.453125 17.070312 14.445312 17.042969 14.445312 17.015625 C 14.445312 16.445312 14.90625 15.984375 15.476562 15.984375 C 16.050781 15.984375 16.507812 16.445312 16.507812 17.015625 C 16.507812 17.042969 16.503906 17.070312 16.5 17.101562 C 16.457031 16.570312 16.019531 16.15625 15.476562 16.15625 C 14.9375 16.15625 14.5 16.570312 14.453125 17.101562 Z M 14.453125 17.101562 "/>
<path style=" stroke:none;fill-rule:nonzero;fill:rgb(25.882354%,64.705884%,96.078432%);fill-opacity:1;" d="M 15.476562 16.5 C 15.761719 16.5 15.992188 16.730469 15.992188 17.015625 C 15.992188 17.300781 15.761719 17.53125 15.476562 17.53125 C 15.191406 17.53125 14.960938 17.300781 14.960938 17.015625 C 14.960938 16.730469 15.191406 16.5 15.476562 16.5 Z M 15.476562 16.5 "/>
<path style=" stroke:none;fill-rule:nonzero;fill:rgb(100%,100%,100%);fill-opacity:0.4;" d="M 15.476562 16.5 C 15.191406 16.5 14.960938 16.730469 14.960938 17.015625 C 14.960938 17.046875 14.964844 17.074219 14.96875 17.101562 C 15.011719 16.855469 15.222656 16.671875 15.476562 16.671875 C 15.734375 16.671875 15.945312 16.855469 15.984375 17.101562 C 15.988281 17.074219 15.992188 17.046875 15.992188 17.015625 C 15.992188 16.730469 15.761719 16.5 15.476562 16.5 Z M 15.476562 16.5 "/>
<path style=" stroke:none;fill-rule:nonzero;fill:rgb(0%,0%,0%);fill-opacity:0.4;" d="M 15.476562 17.703125 C 15.191406 17.703125 14.960938 17.472656 14.960938 17.1875 C 14.960938 17.15625 14.964844 17.128906 14.96875 17.101562 C 15.011719 17.347656 15.222656 17.53125 15.476562 17.53125 C 15.734375 17.53125 15.945312 17.347656 15.984375 17.101562 C 15.988281 17.128906 15.992188 17.15625 15.992188 17.1875 C 15.992188 17.472656 15.761719 17.703125 15.476562 17.703125 Z M 15.476562 17.703125 "/>
<path style=" stroke:none;fill-rule:nonzero;fill:rgb(0%,0%,0%);fill-opacity:0.2;" d="M 4.46875 2.0625 C 4.660156 2.0625 4.8125 2.214844 4.8125 2.40625 C 4.8125 2.597656 4.660156 2.75 4.46875 2.75 C 4.277344 2.75 4.125 2.597656 4.125 2.40625 C 4.125 2.214844 4.277344 2.0625 4.46875 2.0625 Z M 4.46875 2.0625 "/>
<path style=" stroke:none;fill-rule:nonzero;fill:rgb(0%,0%,0%);fill-opacity:0.4;" d="M 4.46875 2.0625 C 4.277344 2.0625 4.125 2.214844 4.125 2.40625 C 4.125 2.4375 4.136719 2.464844 4.140625 2.492188 C 4.179688 2.34375 4.308594 2.234375 4.46875 2.234375 C 4.628906 2.234375 4.757812 2.34375 4.796875 2.492188 C 4.800781 2.464844 4.8125 2.4375 4.8125 2.40625 C 4.8125 2.214844 4.660156 2.0625 4.46875 2.0625 Z M 4.46875 2.0625 "/>
<path style=" stroke:none;fill-rule:nonzero;fill:rgb(100%,100%,100%);fill-opacity:0.4;" d="M 4.46875 2.921875 C 4.277344 2.921875 4.125 2.769531 4.125 2.578125 C 4.125 2.546875 4.136719 2.519531 4.140625 2.492188 C 4.179688 2.640625 4.308594 2.75 4.46875 2.75 C 4.628906 2.75 4.757812 2.640625 4.796875 2.492188 C 4.800781 2.519531 4.8125 2.546875 4.8125 2.578125 C 4.8125 2.769531 4.660156 2.921875 4.46875 2.921875 Z M 4.46875 2.921875 "/>
<path style=" stroke:none;fill-rule:nonzero;fill:rgb(0%,0%,0%);fill-opacity:0.2;" d="M 17.546875 2.0625 C 17.738281 2.0625 17.890625 2.214844 17.890625 2.40625 C 17.890625 2.597656 17.738281 2.75 17.546875 2.75 C 17.359375 2.75 17.203125 2.597656 17.203125 2.40625 C 17.203125 2.214844 17.359375 2.0625 17.546875 2.0625 Z M 17.546875 2.0625 "/>
<path style=" stroke:none;fill-rule:nonzero;fill:rgb(0%,0%,0%);fill-opacity:0.4;" d="M 17.546875 2.0625 C 17.359375 2.0625 17.203125 2.214844 17.203125 2.40625 C 17.203125 2.4375 17.214844 2.464844 17.222656 2.492188 C 17.261719 2.34375 17.390625 2.234375 17.546875 2.234375 C 17.707031 2.234375 17.835938 2.34375 17.875 2.492188 C 17.882812 2.464844 17.890625 2.4375 17.890625 2.40625 C 17.890625 2.214844 17.738281 2.0625 17.546875 2.0625 Z M 17.546875 2.0625 "/>
<path style=" stroke:none;fill-rule:nonzero;fill:rgb(100%,100%,100%);fill-opacity:0.4;" d="M 17.546875 2.921875 C 17.359375 2.921875 17.203125 2.769531 17.203125 2.578125 C 17.203125 2.546875 17.214844 2.519531 17.222656 2.492188 C 17.261719 2.640625 17.390625 2.75 17.546875 2.75 C 17.707031 2.75 17.835938 2.640625 17.875 2.492188 C 17.882812 2.519531 17.890625 2.546875 17.890625 2.578125 C 17.890625 2.769531 17.738281 2.921875 17.546875 2.921875 Z M 17.546875 2.921875 "/>
<path style=" stroke:none;fill-rule:nonzero;fill:rgb(0%,0%,0%);fill-opacity:0.2;" d="M 4.46875 19.25 C 4.660156 19.25 4.8125 19.402344 4.8125 19.59375 C 4.8125 19.785156 4.660156 19.9375 4.46875 19.9375 C 4.277344 19.9375 4.125 19.785156 4.125 19.59375 C 4.125 19.402344 4.277344 19.25 4.46875 19.25 Z M 4.46875 19.25 "/>
<path style=" stroke:none;fill-rule:nonzero;fill:rgb(0%,0%,0%);fill-opacity:0.4;" d="M 4.46875 19.25 C 4.277344 19.25 4.125 19.402344 4.125 19.59375 C 4.125 19.625 4.136719 19.652344 4.140625 19.679688 C 4.179688 19.53125 4.308594 19.421875 4.46875 19.421875 C 4.628906 19.421875 4.757812 19.53125 4.796875 19.679688 C 4.800781 19.652344 4.8125 19.625 4.8125 19.59375 C 4.8125 19.402344 4.660156 19.25 4.46875 19.25 Z M 4.46875 19.25 "/>
<path style=" stroke:none;fill-rule:nonzero;fill:rgb(100%,100%,100%);fill-opacity:0.4;" d="M 4.46875 20.109375 C 4.277344 20.109375 4.125 19.957031 4.125 19.765625 C 4.125 19.734375 4.136719 19.707031 4.140625 19.679688 C 4.179688 19.828125 4.308594 19.9375 4.46875 19.9375 C 4.628906 19.9375 4.757812 19.828125 4.796875 19.679688 C 4.800781 19.707031 4.8125 19.734375 4.8125 19.765625 C 4.8125 19.957031 4.660156 20.109375 4.46875 20.109375 Z M 4.46875 20.109375 "/>
<path style=" stroke:none;fill-rule:nonzero;fill:rgb(0%,0%,0%);fill-opacity:0.2;" d="M 17.546875 19.25 C 17.738281 19.25 17.890625 19.402344 17.890625 19.59375 C 17.890625 19.785156 17.738281 19.9375 17.546875 19.9375 C 17.359375 19.9375 17.203125 19.785156 17.203125 19.59375 C 17.203125 19.402344 17.359375 19.25 17.546875 19.25 Z M 17.546875 19.25 "/>
<path style=" stroke:none;fill-rule:nonzero;fill:rgb(0%,0%,0%);fill-opacity:0.4;" d="M 17.546875 19.25 C 17.359375 19.25 17.203125 19.402344 17.203125 19.59375 C 17.203125 19.625 17.214844 19.652344 17.222656 19.679688 C 17.261719 19.53125 17.390625 19.421875 17.546875 19.421875 C 17.707031 19.421875 17.835938 19.53125 17.875 19.679688 C 17.882812 19.652344 17.890625 19.625 17.890625 19.59375 C 17.890625 19.402344 17.738281 19.25 17.546875 19.25 Z M 17.546875 19.25 "/>
<path style=" stroke:none;fill-rule:nonzero;fill:rgb(100%,100%,100%);fill-opacity:0.4;" d="M 17.546875 20.109375 C 17.359375 20.109375 17.203125 19.957031 17.203125 19.765625 C 17.203125 19.734375 17.214844 19.707031 17.222656 19.679688 C 17.261719 19.828125 17.390625 19.9375 17.546875 19.9375 C 17.707031 19.9375 17.835938 19.828125 17.875 19.679688 C 17.882812 19.707031 17.890625 19.734375 17.890625 19.765625 C 17.890625 19.957031 17.738281 20.109375 17.546875 20.109375 Z M 17.546875 20.109375 "/>
<path style=" stroke:none;fill-rule:nonzero;fill:rgb(87.843138%,87.843138%,87.843138%);fill-opacity:1;" d="M 11.003906 2.921875 C 14.230469 2.921875 16.847656 5.539062 16.847656 8.765625 C 16.847656 11.992188 14.230469 14.609375 11.003906 14.609375 C 7.777344 14.609375 5.160156 11.992188 5.160156 8.765625 C 5.160156 5.539062 7.777344 2.921875 11.003906 2.921875 Z M 11.003906 2.921875 "/>
<path style=" stroke:none;fill-rule:nonzero;fill:rgb(25.882354%,25.882354%,25.882354%);fill-opacity:1;" d="M 11.003906 3.953125 C 13.660156 3.953125 15.816406 6.109375 15.816406 8.765625 C 15.816406 11.421875 13.660156 13.578125 11.003906 13.578125 C 8.347656 13.578125 6.191406 11.421875 6.191406 8.765625 C 6.191406 6.109375 8.347656 3.953125 11.003906 3.953125 Z M 11.003906 3.953125 "/>
<path style=" stroke:none;fill-rule:nonzero;fill:url(#linear1);" d="M 11.003906 3.953125 C 13.660156 3.953125 15.816406 6.109375 15.816406 8.765625 C 15.816406 11.421875 13.660156 13.578125 11.003906 13.578125 C 8.347656 13.578125 6.191406 11.421875 6.191406 8.765625 C 6.191406 6.109375 8.347656 3.953125 11.003906 3.953125 Z M 11.003906 3.953125 "/>
<path style=" stroke:none;fill-rule:nonzero;fill:rgb(45.882353%,45.882353%,45.882353%);fill-opacity:1;" d="M 11.003906 6.703125 C 12.144531 6.703125 13.066406 7.625 13.066406 8.765625 C 13.066406 9.90625 12.144531 10.828125 11.003906 10.828125 C 9.863281 10.828125 8.941406 9.90625 8.941406 8.765625 C 8.941406 7.625 9.863281 6.703125 11.003906 6.703125 Z M 11.003906 6.703125 "/>
<path style=" stroke:none;fill-rule:nonzero;fill:rgb(0%,0%,0%);fill-opacity:0.4;" d="M 11.003906 3.953125 C 8.339844 3.953125 6.191406 6.097656 6.191406 8.765625 C 6.191406 8.792969 6.195312 8.824219 6.195312 8.851562 C 6.242188 6.226562 8.367188 4.125 11.003906 4.125 C 13.640625 4.125 15.765625 6.226562 15.8125 8.851562 C 15.8125 8.824219 15.816406 8.792969 15.816406 8.765625 C 15.816406 6.097656 13.671875 3.953125 11.003906 3.953125 Z M 11.003906 3.953125 "/>
<path style=" stroke:none;fill-rule:nonzero;fill:rgb(100%,100%,100%);fill-opacity:0.4;" d="M 11.003906 13.75 C 8.339844 13.75 6.191406 11.605469 6.191406 8.9375 C 6.191406 8.910156 6.195312 8.878906 6.195312 8.851562 C 6.242188 11.476562 8.367188 13.578125 11.003906 13.578125 C 13.640625 13.578125 15.765625 11.476562 15.8125 8.851562 C 15.8125 8.878906 15.816406 8.910156 15.816406 8.9375 C 15.816406 11.605469 13.671875 13.75 11.003906 13.75 Z M 11.003906 13.75 "/>
<path style=" stroke:none;fill-rule:nonzero;fill:url(#linear2);" d="M 11.003906 6.703125 C 12.144531 6.703125 13.066406 7.625 13.066406 8.765625 C 13.066406 9.90625 12.144531 10.828125 11.003906 10.828125 C 9.863281 10.828125 8.941406 9.90625 8.941406 8.765625 C 8.941406 7.625 9.863281 6.703125 11.003906 6.703125 Z M 11.003906 6.703125 "/>
<path style=" stroke:none;fill-rule:nonzero;fill:rgb(0%,0%,0%);fill-opacity:0.2;" d="M 3.4375 19.25 L 3.4375 19.59375 C 3.4375 20.355469 4.050781 20.96875 4.8125 20.96875 L 17.1875 20.96875 C 17.949219 20.96875 18.5625 20.355469 18.5625 19.59375 L 18.5625 19.25 C 18.5625 20.011719 17.949219 20.625 17.1875 20.625 L 4.8125 20.625 C 4.050781 20.625 3.4375 20.011719 3.4375 19.25 Z M 3.4375 19.25 "/>
<path style=" stroke:none;fill-rule:nonzero;fill:rgb(0%,0%,0%);fill-opacity:0.4;" d="M 5.164062 8.941406 C 5.160156 9 5.160156 9.058594 5.160156 9.121094 C 5.160156 12.355469 7.765625 14.964844 11.003906 14.964844 C 14.242188 14.964844 16.847656 12.355469 16.847656 9.121094 C 16.847656 9.058594 16.847656 9 16.84375 8.941406 C 16.75 12.097656 14.183594 14.609375 11.003906 14.609375 C 7.824219 14.609375 5.257812 12.097656 5.164062 8.941406 Z M 5.164062 8.941406 "/>
<path style=" stroke:none;fill-rule:nonzero;fill:rgb(100%,100%,100%);fill-opacity:1;" d="M 11.003906 2.921875 C 7.765625 2.921875 5.160156 5.527344 5.160156 8.765625 C 5.160156 8.792969 5.160156 8.816406 5.160156 8.84375 C 5.210938 5.648438 7.796875 3.09375 11.003906 3.09375 C 14.210938 3.09375 16.796875 5.648438 16.847656 8.84375 C 16.847656 8.816406 16.847656 8.792969 16.847656 8.765625 C 16.847656 5.527344 14.242188 2.921875 11.003906 2.921875 Z M 11.003906 2.921875 "/>
<path style=" stroke:none;fill-rule:nonzero;fill:rgb(100%,100%,100%);fill-opacity:0.4;" d="M 11.003906 6.703125 C 9.863281 6.703125 8.941406 7.621094 8.941406 8.765625 C 8.941406 8.792969 8.941406 8.820312 8.945312 8.847656 C 8.988281 7.746094 9.890625 6.875 11.003906 6.875 C 12.117188 6.875 13.019531 7.746094 13.066406 8.847656 C 13.066406 8.820312 13.066406 8.792969 13.066406 8.765625 C 13.066406 7.621094 12.148438 6.703125 11.003906 6.703125 Z M 11.003906 6.703125 "/>
<path style=" stroke:none;fill-rule:nonzero;fill:rgb(0.392157%,0.392157%,0.392157%);fill-opacity:0.4;" d="M 11.003906 11.171875 C 9.863281 11.171875 8.941406 10.253906 8.941406 9.109375 C 8.941406 9.050781 8.945312 8.992188 8.949219 8.9375 C 9.035156 10 9.917969 10.828125 11.003906 10.828125 C 12.089844 10.828125 12.972656 10 13.058594 8.9375 C 13.0625 8.992188 13.066406 9.050781 13.066406 9.109375 C 13.066406 10.253906 12.148438 11.171875 11.003906 11.171875 Z M 11.003906 11.171875 "/>
<path style=" stroke:none;fill-rule:nonzero;fill:rgb(100%,100%,100%);fill-opacity:0.4;" d="M 4.8125 1.375 C 4.050781 1.375 3.4375 1.988281 3.4375 2.75 L 3.4375 3.09375 C 3.4375 2.332031 4.050781 1.71875 4.8125 1.71875 L 17.1875 1.71875 C 17.949219 1.71875 18.5625 2.332031 18.5625 3.09375 L 18.5625 2.75 C 18.5625 1.988281 17.949219 1.375 17.1875 1.375 Z M 4.8125 1.375 "/>
<path style=" stroke:none;fill-rule:nonzero;fill:rgb(0%,0%,0%);fill-opacity:0.4;" d="M 4.8125 20.625 C 4.050781 20.625 3.4375 20.011719 3.4375 19.25 L 3.4375 18.90625 C 3.4375 19.667969 4.050781 20.28125 4.8125 20.28125 L 17.1875 20.28125 C 17.949219 20.28125 18.5625 19.667969 18.5625 18.90625 L 18.5625 19.25 C 18.5625 20.011719 17.949219 20.625 17.1875 20.625 Z M 4.8125 20.625 "/>
<path style=" stroke:none;fill-rule:nonzero;fill:url(#radial0);" d="M 11 6.703125 C 12.140625 6.703125 13.0625 7.625 13.0625 8.765625 C 13.0625 9.90625 12.140625 10.828125 11 10.828125 C 9.859375 10.828125 8.9375 9.90625 8.9375 8.765625 C 8.9375 7.625 9.859375 6.703125 11 6.703125 Z M 11 6.703125 "/>
</g>
</svg>
