
<svg xmlns="http://www.w3.org/2000/svg" xmlns:xlink="http://www.w3.org/1999/xlink" width="64" height="64" viewBox="0 0 64 64" version="1.1">
<defs>
<linearGradient id="linear0" gradientUnits="userSpaceOnUse" x1="31.999998" y1="57.999996" x2="31.999998" y2="8" gradientTransform="matrix(1,0,0,1,-0.000000680315,0)">
<stop offset="0" style="stop-color:rgb(0%,0%,0%);stop-opacity:0.2;"/>
<stop offset="1" style="stop-color:rgb(100%,100%,100%);stop-opacity:0;"/>
</linearGradient>
</defs>
<g id="surface1">
<path style=" stroke:none;fill-rule:nonzero;fill:rgb(36.078432%,41.960785%,75.294119%);fill-opacity:1;" d="M 8 7.980469 L 56 7.980469 C 58.210938 7.980469 60 9.769531 60 11.980469 L 60 51.980469 C 60 54.191406 58.210938 55.980469 56 55.980469 L 8 55.980469 C 5.789062 55.980469 4 54.191406 4 51.980469 L 4 11.980469 C 4 9.769531 5.789062 7.980469 8 7.980469 Z M 8 7.980469 "/>
<path style=" stroke:none;fill-rule:nonzero;fill:rgb(25.882354%,64.705884%,96.078432%);fill-opacity:1;" d="M 4.523438 10 L 32 31.980469 L 5.40625 55.027344 C 4.546875 54.292969 4 53.203125 4 51.980469 L 4 11.980469 C 4 11.257812 4.191406 10.582031 4.523438 10 Z M 4.523438 10 "/>
<path style=" stroke:none;fill-rule:nonzero;fill:rgb(47.058824%,56.470591%,61.176473%);fill-opacity:1;" d="M 32 31.980469 L 5.261719 54.894531 C 5.976562 55.566406 6.9375 55.980469 8 55.980469 L 56 55.980469 C 57.0625 55.980469 58.023438 55.566406 58.738281 54.894531 Z M 32 31.980469 "/>
<path style=" stroke:none;fill-rule:nonzero;fill:rgb(92.54902%,25.098041%,47.843137%);fill-opacity:1;" d="M 59.476562 10 L 32 31.980469 L 58.589844 55.027344 C 59.453125 54.292969 60 53.203125 60 51.980469 L 60 11.980469 C 60 11.257812 59.808594 10.582031 59.476562 10 Z M 59.476562 10 "/>
<path style=" stroke:none;fill-rule:nonzero;fill:rgb(0.392157%,0.392157%,0.392157%);fill-opacity:0.4;" d="M 4 51 L 4 52 C 4 54.214844 5.785156 56 8 56 L 56 56 C 58.214844 56 60 54.214844 60 52 L 60 51 C 60 53.214844 58.214844 55 56 55 L 8 55 C 5.785156 55 4 53.214844 4 51 Z M 4 51 "/>
<path style=" stroke:none;fill-rule:nonzero;fill:rgb(87.843138%,87.843138%,87.843138%);fill-opacity:1;" d="M 10 48 L 54 48 C 55.105469 48 56 48.894531 56 50 L 56 56 C 56 57.105469 55.105469 58 54 58 L 10 58 C 8.894531 58 8 57.105469 8 56 L 8 50 C 8 48.894531 8.894531 48 10 48 Z M 10 48 "/>
<path style=" stroke:none;fill-rule:nonzero;fill:rgb(87.843138%,87.843138%,87.843138%);fill-opacity:1;" d="M 8 8 C 5.785156 8 4 9.785156 4 12 L 60 12 C 60 9.785156 58.214844 8 56 8 Z M 8 8 "/>
<path style=" stroke:none;fill-rule:nonzero;fill:rgb(0%,0%,0%);fill-opacity:0.4;" d="M 4 12 L 4 13 L 60 13 L 60 12 Z M 8 55 L 8 56 C 8 57.109375 8.890625 58 10 58 L 54 58 C 55.109375 58 56 57.109375 56 56 L 56 55 C 56 56.109375 55.109375 57 54 57 L 10 57 C 8.890625 57 8 56.109375 8 55 Z M 8 55 "/>
<path style=" stroke:none;fill-rule:nonzero;fill:rgb(100%,100%,100%);fill-opacity:0.8;" d="M 8 8 C 5.785156 8 4 9.785156 4 12 L 4.125 12 C 4.554688 10.257812 6.121094 8.972656 8 8.972656 L 56 8.972656 C 57.878906 8.972656 59.445312 10.257812 59.875 12 L 60 12 C 60 9.785156 58.214844 8 56 8 Z M 10 48 C 8.890625 48 8 48.890625 8 50 L 8 50.972656 C 8 49.863281 8.890625 48.972656 10 48.972656 L 54 48.972656 C 55.109375 48.972656 56 49.863281 56 50.972656 L 56 50 C 56 48.890625 55.109375 48 54 48 Z M 10 48 "/>
<path style=" stroke:none;fill-rule:nonzero;fill:rgb(0%,0%,0%);fill-opacity:0.2;" d="M 4 52 L 4 53.5 C 4 55.71875 5.785156 57.5 8 57.5 C 8 58.609375 8.890625 59.5 10 59.5 L 54 59.5 C 55.109375 59.5 56 58.609375 56 57.5 C 58.214844 57.5 60 55.71875 60 53.5 L 60 52 C 60 54.214844 58.214844 56 56 56 C 56 57.109375 55.109375 58 54 58 L 10 58 C 8.890625 58 8 57.109375 8 56 C 5.785156 56 4 54.214844 4 52 Z M 4 52 "/>
<path style=" stroke:none;fill-rule:nonzero;fill:url(#linear0);" d="M 8 8 C 5.785156 8 4 9.785156 4 12 L 4 52 C 4 54.214844 5.785156 56 8 56 C 8 57.109375 8.890625 58 10 58 L 54 58 C 55.109375 58 56 57.109375 56 56 C 58.214844 56 60 54.214844 60 52 L 60 12 C 60 9.785156 58.214844 8 56 8 Z M 8 8 "/>
</g>
</svg>
