
<svg xmlns="http://www.w3.org/2000/svg" xmlns:xlink="http://www.w3.org/1999/xlink" width="64" height="64" viewBox="0 0 64 64" version="1.1">
<defs>
<linearGradient id="linear0" gradientUnits="userSpaceOnUse" x1="10.054166" y1="-199.125" x2="10.054166" y2="-213.941666" gradientTransform="matrix(3.779528,0,0,3.779528,-0.00126155,812.598468)">
<stop offset="0" style="stop-color:rgb(0%,0%,0%);stop-opacity:0.2;"/>
<stop offset="1" style="stop-color:rgb(100%,100%,100%);stop-opacity:0;"/>
</linearGradient>
</defs>
<g id="surface1">
<path style=" stroke:none;fill-rule:nonzero;fill:rgb(25.882354%,64.705884%,96.078432%);fill-opacity:1;" d="M 8 4 L 56 4 C 58.210938 4 60 5.789062 60 8 L 60 56 C 60 58.210938 58.210938 60 56 60 L 8 60 C 5.789062 60 4 58.210938 4 56 L 4 8 C 4 5.789062 5.789062 4 8 4 Z M 8 4 "/>
<path style=" stroke:none;fill-rule:nonzero;fill:rgb(0%,0%,0%);fill-opacity:0.4;" d="M 4 55 L 4 56 C 4 58.214844 5.785156 60 8 60 L 56 60 C 58.214844 60 60 58.214844 60 56 L 60 55 C 60 57.214844 58.214844 59 56 59 L 8 59 C 5.785156 59 4 57.214844 4 55 Z M 4 55 "/>
<path style=" stroke:none;fill-rule:nonzero;fill:rgb(0%,0%,0%);fill-opacity:0.2;" d="M 4 56 L 4 57.5 C 4 59.714844 5.785156 61.5 8 61.5 L 56 61.5 C 58.214844 61.5 60 59.714844 60 57.5 L 60 56 C 60 58.214844 58.214844 60 56 60 L 8 60 C 5.785156 60 4 58.214844 4 56 Z M 4 56 "/>
<path style=" stroke:none;fill-rule:nonzero;fill:rgb(100%,100%,100%);fill-opacity:0.4;" d="M 8 4 C 5.785156 4 4 5.785156 4 8 L 4 8.984375 C 4 6.769531 5.785156 4.984375 8 4.984375 L 56 4.984375 C 58.214844 4.984375 60 6.769531 60 8.984375 L 60 8 C 60 5.785156 58.214844 4 56 4 Z M 8 4 "/>
<path style=" stroke:none;fill-rule:nonzero;fill:rgb(93.333334%,93.333334%,93.333334%);fill-opacity:1;" d="M 32 14 L 12 34 L 18 34 L 18 46 C 18 48.214844 19.785156 50 22 50 L 42 50 C 43.121094 50 44.132812 49.542969 44.859375 48.800781 C 44.699219 48.75 44.542969 48.683594 44.394531 48.59375 L 37.832031 44.808594 C 36.171875 46.03125 34.257812 47 32.035156 47 C 26.515625 47 22.035156 42.519531 22.035156 37 C 22.035156 31.476562 26.515625 27.003906 32.035156 27.003906 L 32.035156 27 C 37.558594 27 42.039062 31.476562 42.039062 37 C 42.039062 38.046875 41.75 39.011719 41.449219 39.964844 L 46 42.59375 L 46 34 L 52 34 L 44 26 L 44 18 L 40 18 L 40 22 Z M 32.035156 28 C 27.050781 28 23.035156 32.015625 23.035156 37 C 23.035156 41.984375 27.050781 46 32.035156 46 C 34.328125 46 36.414062 45.152344 38 43.75 L 44.890625 47.734375 C 45.613281 48.148438 46.527344 47.902344 46.941406 47.183594 L 47.441406 46.316406 C 47.859375 45.597656 47.613281 44.683594 46.890625 44.265625 L 40.34375 40.484375 C 40.789062 39.414062 41.035156 38.238281 41.035156 37 C 41.035156 32.015625 37.023438 28 32.035156 28 Z M 32.035156 30 C 35.914062 30 39.035156 33.121094 39.035156 37 C 39.035156 40.878906 35.914062 44 32.035156 44 C 28.160156 44 25.035156 40.878906 25.035156 37 C 25.035156 33.121094 28.160156 30 32.035156 30 Z M 32.035156 31 C 28.714844 31 26.035156 33.675781 26.035156 37 L 28.035156 37 C 28.035156 34.785156 29.820312 33 32.035156 33 Z M 32.035156 31 "/>
<path style=" stroke:none;fill-rule:nonzero;fill:rgb(100%,100%,100%);fill-opacity:0.6;" d="M 32 14 L 12 34 L 13 34 L 32 15 L 40 23 L 40 22 Z M 40 18 L 40 19 L 44 19 L 44 18 Z M 44 26 L 44 27 L 51 34 L 52 34 Z M 32.035156 28 L 32.035156 28.003906 C 31.984375 28.003906 31.929688 28.007812 31.875 28.007812 C 31.628906 28.011719 31.382812 28.019531 31.140625 28.046875 C 31.128906 28.046875 31.117188 28.046875 31.109375 28.046875 C 26.5625 28.511719 23.035156 32.328125 23.035156 37 C 23.035156 37.140625 23.050781 37.277344 23.058594 37.414062 C 23.359375 32.703125 27.25 29 32.035156 29 C 36.828125 29 40.71875 32.707031 41.015625 37.421875 C 41.023438 37.28125 41.035156 37.140625 41.035156 37 C 41.035156 32.042969 37.066406 28.046875 32.117188 28.003906 C 32.089844 28.003906 32.0625 28 32.035156 28 Z M 32.035156 31 C 28.714844 31 26.035156 33.675781 26.035156 37 L 26.121094 37 C 26.59375 34.15625 29.054688 32 32.035156 32 Z M 42.015625 37.351562 C 41.960938 38.265625 41.714844 39.121094 41.449219 39.964844 L 41.703125 40.113281 C 41.894531 39.433594 42.039062 38.734375 42.039062 38 C 42.039062 37.78125 42.027344 37.566406 42.015625 37.351562 Z M 22.054688 37.398438 C 22.042969 37.597656 22.035156 37.796875 22.035156 38 C 22.035156 43.519531 26.515625 48 32.035156 48 C 34.257812 48 36.171875 47.03125 37.832031 45.808594 L 44.078125 49.414062 C 44.363281 49.242188 44.625 49.039062 44.859375 48.800781 C 44.699219 48.75 44.542969 48.683594 44.394531 48.59375 L 37.890625 44.84375 C 36.320312 46.1875 34.277344 47 32.035156 47 C 31.738281 47 31.445312 46.984375 31.15625 46.957031 C 31.003906 46.945312 30.859375 46.921875 30.714844 46.902344 C 30.675781 46.898438 30.636719 46.890625 30.597656 46.886719 C 25.890625 46.203125 22.246094 42.25 22.054688 37.398438 Z M 25.0625 37.457031 C 25.046875 37.636719 25.035156 37.816406 25.035156 38 C 25.035156 41.878906 28.160156 45 32.035156 45 C 35.914062 45 39.035156 41.878906 39.035156 38 C 39.035156 37.816406 39.027344 37.636719 39.015625 37.457031 C 38.777344 41.121094 35.761719 44 32.035156 44 C 28.3125 44 25.296875 41.121094 25.0625 37.457031 Z M 40.640625 40.65625 C 40.554688 40.9375 40.453125 41.214844 40.34375 41.484375 L 46.890625 45.265625 C 47.214844 45.453125 47.441406 45.742188 47.558594 46.0625 C 47.792969 45.394531 47.53125 44.636719 46.890625 44.265625 Z M 40.640625 40.65625 "/>
<path style=" stroke:none;fill-rule:nonzero;fill:rgb(0%,0%,0%);fill-opacity:0.4;" d="M 32.035156 27 L 32.035156 27.003906 C 26.515625 27.003906 22.035156 31.476562 22.035156 37 C 22.035156 37.160156 22.042969 37.324219 22.046875 37.484375 C 22.300781 32.511719 26.1875 28.503906 31.105469 28.046875 C 31.109375 28.046875 31.113281 28.046875 31.113281 28.046875 C 31.417969 28.015625 31.726562 28 32.035156 28 C 32.210938 28 32.378906 28.007812 32.550781 28.015625 C 32.5625 28.015625 32.578125 28.015625 32.589844 28.015625 C 37.667969 28.292969 41.734375 32.355469 42.019531 37.425781 C 42.03125 37.285156 42.039062 37.144531 42.039062 37 C 42.039062 31.476562 37.558594 27 32.035156 27 Z M 32.035156 30 C 28.160156 30 25.035156 33.121094 25.035156 37 C 25.035156 37.167969 25.046875 37.335938 25.058594 37.5 C 25.304688 33.964844 28.152344 31.167969 31.714844 31.007812 C 31.71875 31.007812 31.722656 31.007812 31.726562 31.007812 C 31.828125 31.003906 31.933594 31 32.035156 31 C 35.746094 31 38.761719 33.859375 39.015625 37.5 C 39.027344 37.335938 39.035156 37.167969 39.035156 37 C 39.035156 33.121094 35.914062 30 32.035156 30 Z M 32.035156 33 C 29.820312 33 28.035156 34.785156 28.035156 37 L 26.121094 37 C 26.066406 37.324219 26.035156 37.660156 26.035156 38 L 28.035156 38 C 28.035156 35.785156 29.820312 34 32.035156 34 Z M 13 34 L 12 35 L 18 35 L 18 34 Z M 46 34 L 46 35 L 52 35 L 51 34 Z M 23.050781 37.5 C 23.042969 37.664062 23.035156 37.832031 23.035156 38 C 23.035156 42.824219 26.796875 46.738281 31.558594 46.984375 C 31.5625 46.988281 31.566406 46.988281 31.574219 46.988281 C 31.726562 46.996094 31.882812 47 32.035156 47 C 34.257812 47 36.171875 46.03125 37.832031 44.808594 L 37.890625 44.84375 C 37.929688 44.8125 37.964844 44.78125 38 44.75 L 44.890625 48.734375 C 45.613281 49.148438 46.527344 48.902344 46.941406 48.183594 L 47.441406 47.316406 C 47.671875 46.917969 47.699219 46.464844 47.558594 46.066406 C 47.527344 46.152344 47.488281 46.234375 47.441406 46.316406 L 46.941406 47.183594 C 46.527344 47.902344 45.613281 48.148438 44.890625 47.734375 L 38 43.75 C 36.414062 45.152344 34.328125 46 32.035156 46 C 27.21875 46 23.308594 42.25 23.050781 37.5 Z M 41.023438 37.5 C 40.964844 38.554688 40.730469 39.558594 40.34375 40.484375 L 40.640625 40.65625 C 40.898438 39.816406 41.035156 38.925781 41.035156 38 C 41.035156 37.832031 41.03125 37.664062 41.023438 37.5 Z M 41.703125 40.113281 C 41.625 40.398438 41.539062 40.683594 41.449219 40.964844 L 46 43.59375 L 46 42.59375 Z M 18 46 L 18 47 C 18 49.214844 19.785156 51 22 51 L 42 51 C 43.121094 51 44.132812 50.542969 44.859375 49.800781 C 44.699219 49.75 44.542969 49.683594 44.394531 49.59375 L 44.082031 49.417969 C 43.476562 49.785156 42.765625 50 42 50 L 22 50 C 19.785156 50 18 48.214844 18 46 Z M 18 46 "/>
<path style=" stroke:none;fill-rule:nonzero;fill:url(#linear0);" d="M 8 4 L 56 4 C 58.210938 4 60 5.789062 60 8 L 60 56 C 60 58.210938 58.210938 60 56 60 L 8 60 C 5.789062 60 4 58.210938 4 56 L 4 8 C 4 5.789062 5.789062 4 8 4 Z M 8 4 "/>
</g>
</svg>
