
<svg xmlns="http://www.w3.org/2000/svg" xmlns:xlink="http://www.w3.org/1999/xlink" width="64" height="64" viewBox="0 0 64 64" version="1.1">
<defs>
<linearGradient id="linear0" gradientUnits="userSpaceOnUse" x1="31.999998" y1="61.499996" x2="31.999998" y2="3.999999" >
<stop offset="0" style="stop-color:rgb(0%,0%,0%);stop-opacity:0.2;"/>
<stop offset="1" style="stop-color:rgb(100%,100%,100%);stop-opacity:0;"/>
</linearGradient>
</defs>
<g id="surface1">
<path style=" stroke:none;fill-rule:nonzero;fill:rgb(9.803922%,46.27451%,82.352942%);fill-opacity:1;" d="M 10 16.5 L 4 20 L 4 44 L 10 47.5 Z M 10 16.5 "/>
<path style=" stroke:none;fill-rule:nonzero;fill:rgb(11.764706%,53.333336%,89.803922%);fill-opacity:1;" d="M 46.363281 4.339844 L 47.5 22 L 10.375 47.371094 C 9.828125 47.75 9.105469 47.757812 8.550781 47.386719 L 4.386719 44.609375 C 3.917969 44.296875 3.859375 43.628906 4.273438 43.246094 Z M 46.363281 4.339844 "/>
<path style=" stroke:none;fill-rule:nonzero;fill:rgb(100%,100%,100%);fill-opacity:0.4;" d="M 46.363281 4.339844 L 4.273438 43.246094 C 3.941406 43.550781 3.914062 44.039062 4.15625 44.382812 C 4.1875 44.335938 4.226562 44.285156 4.273438 44.246094 L 46.363281 5.339844 L 47.4375 22.042969 L 47.5 22 Z M 46.363281 4.339844 "/>
<path style=" stroke:none;fill-rule:nonzero;fill:rgb(0.392157%,0.392157%,0.392157%);fill-opacity:0.4;" d="M 9.464844 47.617188 C 9.144531 47.621094 8.828125 47.527344 8.550781 47.34375 L 4.386719 44.566406 C 3.96875 44.289062 3.878906 43.730469 4.15625 43.339844 C 4.214844 43.425781 4.292969 43.503906 4.386719 43.566406 L 8.550781 46.34375 C 9.105469 46.714844 9.828125 46.707031 10.375 46.328125 L 47.4375 21 L 47.5 21.957031 L 10.375 47.328125 C 10.101562 47.519531 9.785156 47.613281 9.464844 47.617188 Z M 9.464844 47.617188 "/>
<path style=" stroke:none;fill-rule:nonzero;fill:rgb(12.941177%,58.823532%,95.294118%);fill-opacity:1;" d="M 46.363281 59.660156 L 47.5 42 L 10.375 16.628906 C 9.828125 16.25 9.105469 16.242188 8.550781 16.613281 L 4.386719 19.390625 C 3.917969 19.703125 3.859375 20.371094 4.273438 20.753906 Z M 46.363281 59.660156 "/>
<path style=" stroke:none;fill-rule:nonzero;fill:rgb(100%,100%,100%);fill-opacity:0.4;" d="M 9.464844 16.339844 C 9.144531 16.335938 8.828125 16.429688 8.550781 16.613281 L 4.386719 19.390625 C 3.96875 19.667969 3.878906 20.226562 4.15625 20.617188 C 4.214844 20.53125 4.292969 20.453125 4.386719 20.390625 L 8.550781 17.613281 C 9.105469 17.242188 9.828125 17.25 10.375 17.628906 L 47.4375 42.957031 L 47.5 42 L 10.375 16.628906 C 10.101562 16.4375 9.785156 16.34375 9.464844 16.339844 Z M 9.464844 16.339844 "/>
<path style=" stroke:none;fill-rule:nonzero;fill:rgb(0.392157%,0.392157%,0.392157%);fill-opacity:0.4;" d="M 46.367188 59.660156 L 4.273438 20.753906 C 3.941406 20.449219 3.914062 19.960938 4.152344 19.617188 C 4.1875 19.664062 4.226562 19.710938 4.273438 19.753906 L 46.367188 58.660156 L 47.4375 41.957031 L 47.5 42 Z M 46.367188 59.660156 "/>
<path style=" stroke:none;fill-rule:nonzero;fill:rgb(25.882354%,64.705884%,96.078432%);fill-opacity:1;" d="M 46 5.195312 L 46 58.804688 C 46 59.242188 46.238281 59.648438 46.625 59.855469 C 47.007812 60.066406 47.476562 60.050781 47.847656 59.8125 L 58.152344 53.1875 C 59.304688 52.445312 60 51.171875 60 49.804688 L 60 14.195312 C 60 12.828125 59.304688 11.550781 58.152344 10.8125 L 47.847656 4.1875 C 47.476562 3.949219 47.007812 3.933594 46.625 4.144531 C 46.238281 4.351562 46 4.757812 46 5.195312 Z M 46 5.195312 "/>
<path style=" stroke:none;fill-rule:nonzero;fill:rgb(0.392157%,0.392157%,0.392157%);fill-opacity:0.4;" d="M 47.152344 60 C 46.507812 59.972656 46 59.445312 46 58.804688 L 46 57.800781 C 46 58.238281 46.238281 58.640625 46.625 58.851562 C 47.007812 59.058594 47.476562 59.042969 47.847656 58.808594 L 58.15625 52.183594 C 59.304688 51.441406 60 50.167969 60 48.800781 L 60 49.804688 C 60 51.171875 59.304688 52.445312 58.15625 53.1875 L 47.847656 59.8125 C 47.640625 59.945312 47.394531 60.007812 47.152344 60 Z M 47.152344 60 "/>
<path style=" stroke:none;fill-rule:nonzero;fill:url(#linear0);" d="M 47.152344 4 C 46.855469 4.015625 46.574219 4.140625 46.363281 4.351562 L 46.363281 4.339844 L 23.421875 25.546875 L 10.375 16.628906 C 9.828125 16.25 9.105469 16.242188 8.550781 16.613281 L 4.386719 19.390625 C 4.167969 19.535156 4.039062 19.761719 4.007812 19.996094 L 4 20 L 4 20.046875 C 3.996094 20.09375 3.996094 20.144531 4 20.191406 L 4 43.808594 C 3.996094 43.855469 3.996094 43.90625 4 43.953125 L 4 44 L 4.007812 44.003906 C 4.039062 44.238281 4.167969 44.464844 4.386719 44.609375 L 8.550781 47.386719 C 9.105469 47.757812 9.828125 47.75 10.375 47.371094 L 23.421875 38.453125 L 46.363281 59.660156 L 46.363281 59.648438 C 46.761719 60.039062 47.375 60.109375 47.84375 59.8125 L 58.15625 53.1875 C 59.304688 52.449219 60 51.171875 60 49.804688 L 60 14.195312 C 60 12.828125 59.304688 11.550781 58.15625 10.8125 L 47.84375 4.1875 C 47.640625 4.054688 47.394531 3.988281 47.152344 4 Z M 46 23.027344 L 46 40.972656 L 32.867188 32 Z M 10 26.046875 L 16.4375 32 L 10 37.953125 Z M 10 26.046875 "/>
<path style=" stroke:none;fill-rule:nonzero;fill:rgb(0%,0%,0%);fill-opacity:0.2;" d="M 46 23.027344 L 32.867188 32 L 33.960938 32.746094 L 46 24.519531 Z M 10 26.046875 L 10 27.542969 L 15.628906 32.746094 L 16.4375 32 Z M 23.421875 38.453125 L 10.375 47.371094 C 9.828125 47.75 9.105469 47.757812 8.550781 47.386719 L 4.386719 44.609375 C 4.167969 44.464844 4.039062 44.238281 4.007812 44.003906 L 4 44 L 4 45.300781 C 3.996094 45.351562 3.996094 45.398438 4 45.449219 L 4 45.496094 L 4.007812 45.5 C 4.039062 45.734375 4.167969 45.957031 4.386719 46.105469 L 8.550781 48.878906 C 9.105469 49.25 9.828125 49.242188 10.375 48.863281 L 23.421875 39.949219 L 46.363281 61.15625 L 46.363281 61.140625 C 46.761719 61.535156 47.375 61.601562 47.84375 61.308594 L 58.15625 54.683594 C 59.304688 53.941406 60 52.667969 60 51.296875 L 60 49.804688 C 60 51.171875 59.304688 52.449219 58.15625 53.1875 L 47.84375 59.8125 C 47.375 60.109375 46.761719 60.039062 46.363281 59.648438 L 46.363281 59.660156 Z M 23.421875 38.453125 "/>
<path style=" stroke:none;fill-rule:nonzero;fill:rgb(100%,100%,100%);fill-opacity:0.4;" d="M 47.152344 4 C 46.507812 4.023438 46 4.550781 46 5.195312 L 46 6.199219 C 46 5.761719 46.238281 5.359375 46.625 5.148438 C 47.007812 4.9375 47.476562 4.953125 47.84375 5.191406 L 58.15625 11.816406 C 59.304688 12.554688 60 13.832031 60 15.199219 L 60 14.195312 C 60 12.828125 59.304688 11.550781 58.15625 10.8125 L 47.84375 4.1875 C 47.640625 4.054688 47.394531 3.988281 47.152344 4 Z M 47.152344 4 "/>
</g>
</svg>
