
<svg xmlns="http://www.w3.org/2000/svg" xmlns:xlink="http://www.w3.org/1999/xlink" width="48" height="48" viewBox="0 0 48 48" version="1.1">
<defs>
<linearGradient id="linear0" gradientUnits="userSpaceOnUse" x1="8.466666" y1="-199.125" x2="8.466666" y2="-213.941666" gradientTransform="matrix(2.834646,0,0,2.834646,0,609.448851)">
<stop offset="0" style="stop-color:rgb(0%,0%,0%);stop-opacity:0.2;"/>
<stop offset="1" style="stop-color:rgb(100%,100%,100%);stop-opacity:0;"/>
</linearGradient>
</defs>
<g id="surface1">
<path style=" stroke:none;fill-rule:nonzero;fill:rgb(100%,56.078434%,0%);fill-opacity:1;" d="M 26.90625 2.824219 C 26.707031 2.804688 26.53125 2.945312 26.503906 3.144531 C 26.472656 3.351562 26.617188 3.539062 26.820312 3.570312 C 27.027344 3.597656 27.214844 3.453125 27.246094 3.25 C 27.273438 3.042969 27.128906 2.855469 26.925781 2.824219 C 26.917969 2.824219 26.914062 2.824219 26.90625 2.824219 Z M 32.21875 4.277344 C 32.050781 4.253906 31.882812 4.339844 31.8125 4.503906 C 31.734375 4.695312 31.824219 4.914062 32.011719 4.996094 C 32.207031 5.078125 32.425781 4.988281 32.503906 4.796875 C 32.585938 4.605469 32.496094 4.386719 32.304688 4.304688 C 32.300781 4.300781 32.292969 4.296875 32.289062 4.296875 C 32.265625 4.289062 32.242188 4.28125 32.21875 4.277344 Z M 21.421875 2.789062 C 21.394531 2.785156 21.371094 2.785156 21.34375 2.789062 C 21.136719 2.816406 20.992188 3.003906 21.019531 3.210938 C 21.042969 3.414062 21.230469 3.5625 21.4375 3.535156 C 21.441406 3.53125 21.449219 3.535156 21.457031 3.535156 L 21.457031 3.53125 C 21.652344 3.5 21.789062 3.316406 21.765625 3.117188 C 21.742188 2.933594 21.59375 2.800781 21.421875 2.789062 Z M 16.164062 4.179688 C 16.09375 4.164062 16.019531 4.171875 15.945312 4.199219 C 15.753906 4.277344 15.660156 4.496094 15.738281 4.6875 C 15.816406 4.882812 16.035156 4.972656 16.230469 4.894531 C 16.230469 4.890625 16.238281 4.886719 16.246094 4.886719 C 16.425781 4.804688 16.511719 4.59375 16.433594 4.40625 C 16.382812 4.285156 16.28125 4.207031 16.164062 4.179688 Z M 36.90625 7.046875 C 36.789062 7.039062 36.671875 7.089844 36.59375 7.191406 C 36.464844 7.355469 36.496094 7.589844 36.660156 7.714844 C 36.824219 7.84375 37.058594 7.816406 37.1875 7.652344 C 37.3125 7.488281 37.285156 7.253906 37.121094 7.125 C 37.113281 7.121094 37.109375 7.117188 37.105469 7.109375 L 37.105469 7.113281 C 37.042969 7.070312 36.972656 7.046875 36.90625 7.042969 Z M 11.375 6.886719 C 11.277344 6.875 11.179688 6.894531 11.097656 6.960938 C 10.929688 7.085938 10.898438 7.320312 11.023438 7.484375 C 11.148438 7.652344 11.382812 7.683594 11.546875 7.558594 C 11.550781 7.554688 11.554688 7.550781 11.5625 7.546875 L 11.566406 7.546875 C 11.714844 7.417969 11.742188 7.191406 11.621094 7.03125 C 11.558594 6.949219 11.46875 6.898438 11.375 6.886719 Z M 40.785156 10.949219 C 40.691406 10.941406 40.59375 10.960938 40.515625 11.023438 C 40.347656 11.148438 40.316406 11.382812 40.441406 11.550781 C 40.566406 11.714844 40.800781 11.746094 40.96875 11.621094 C 41.132812 11.496094 41.164062 11.261719 41.039062 11.097656 C 41.035156 11.09375 41.03125 11.085938 41.027344 11.082031 C 40.964844 11.003906 40.875 10.960938 40.785156 10.949219 Z M 43.523438 15.71875 C 43.453125 15.703125 43.378906 15.710938 43.308594 15.742188 C 43.117188 15.820312 43.027344 16.035156 43.105469 16.230469 C 43.183594 16.421875 43.402344 16.511719 43.59375 16.433594 C 43.785156 16.355469 43.878906 16.136719 43.800781 15.945312 C 43.796875 15.945312 43.792969 15.933594 43.792969 15.929688 C 43.742188 15.816406 43.636719 15.742188 43.523438 15.71875 Z M 7.445312 10.738281 C 7.324219 10.726562 7.203125 10.777344 7.125 10.878906 C 6.996094 11.042969 7.027344 11.277344 7.191406 11.40625 C 7.355469 11.535156 7.589844 11.503906 7.71875 11.339844 C 7.714844 11.335938 7.722656 11.332031 7.730469 11.324219 C 7.84375 11.160156 7.808594 10.9375 7.652344 10.8125 C 7.589844 10.765625 7.515625 10.742188 7.445312 10.738281 Z M 4.722656 15.472656 C 4.550781 15.4375 4.375 15.527344 4.304688 15.695312 C 4.222656 15.886719 4.3125 16.105469 4.503906 16.1875 C 4.695312 16.265625 4.914062 16.179688 4.996094 15.988281 C 4.996094 15.984375 5 15.976562 5.003906 15.96875 C 5.070312 15.78125 4.980469 15.574219 4.792969 15.496094 C 4.769531 15.484375 4.746094 15.480469 4.722656 15.46875 Z M 44.863281 21.015625 C 44.839844 21.015625 44.816406 21.015625 44.789062 21.019531 C 44.582031 21.046875 44.4375 21.230469 44.464844 21.4375 C 44.492188 21.644531 44.679688 21.789062 44.882812 21.765625 C 45.089844 21.738281 45.234375 21.550781 45.210938 21.347656 C 45.207031 21.34375 45.207031 21.335938 45.207031 21.324219 L 45.207031 21.328125 C 45.175781 21.15625 45.035156 21.03125 44.863281 21.019531 Z M 3.25 20.753906 C 3.042969 20.726562 2.855469 20.871094 2.824219 21.074219 C 2.796875 21.28125 2.941406 21.46875 3.144531 21.5 C 3.351562 21.527344 3.539062 21.382812 3.570312 21.179688 C 3.566406 21.175781 3.570312 21.167969 3.574219 21.15625 L 3.570312 21.15625 C 3.589844 20.960938 3.449219 20.78125 3.25 20.753906 Z M 44.855469 26.503906 C 44.648438 26.472656 44.460938 26.617188 44.429688 26.824219 C 44.402344 27.027344 44.546875 27.214844 44.75 27.246094 C 44.957031 27.273438 45.144531 27.128906 45.175781 26.925781 C 45.171875 26.921875 45.175781 26.914062 45.179688 26.90625 L 45.175781 26.90625 C 45.195312 26.707031 45.054688 26.527344 44.855469 26.5 Z M 3.191406 26.234375 C 3.164062 26.234375 3.140625 26.234375 3.117188 26.238281 C 2.910156 26.261719 2.765625 26.449219 2.789062 26.65625 C 2.816406 26.863281 3.003906 27.007812 3.207031 26.980469 C 3.414062 26.957031 3.5625 26.769531 3.535156 26.5625 C 3.53125 26.558594 3.53125 26.550781 3.535156 26.542969 L 3.53125 26.542969 C 3.5 26.371094 3.359375 26.246094 3.191406 26.234375 Z M 43.421875 31.792969 C 43.25 31.757812 43.074219 31.847656 43.003906 32.015625 C 42.921875 32.207031 43.011719 32.425781 43.203125 32.503906 C 43.394531 32.585938 43.613281 32.496094 43.695312 32.304688 C 43.695312 32.304688 43.699219 32.292969 43.703125 32.285156 L 43.703125 32.289062 C 43.769531 32.101562 43.679688 31.890625 43.496094 31.8125 C 43.46875 31.800781 43.445312 31.796875 43.421875 31.792969 Z M 4.617188 31.542969 C 4.550781 31.53125 4.476562 31.539062 4.40625 31.566406 C 4.210938 31.644531 4.121094 31.863281 4.199219 32.054688 C 4.277344 32.246094 4.496094 32.339844 4.6875 32.261719 C 4.878906 32.183594 4.972656 31.964844 4.894531 31.769531 C 4.890625 31.769531 4.890625 31.761719 4.886719 31.753906 C 4.835938 31.640625 4.734375 31.566406 4.617188 31.542969 Z M 40.601562 36.515625 C 40.484375 36.507812 40.363281 36.558594 40.28125 36.660156 C 40.152344 36.824219 40.183594 37.058594 40.347656 37.1875 C 40.511719 37.3125 40.746094 37.285156 40.875 37.121094 C 40.875 37.117188 40.882812 37.109375 40.886719 37.105469 C 41 36.941406 40.96875 36.71875 40.808594 36.59375 C 40.746094 36.546875 40.675781 36.519531 40.601562 36.515625 Z M 7.300781 36.304688 C 7.210938 36.296875 7.113281 36.316406 7.03125 36.378906 C 6.867188 36.503906 6.835938 36.738281 6.960938 36.90625 C 7.085938 37.070312 7.320312 37.101562 7.484375 36.976562 C 7.652344 36.851562 7.683594 36.617188 7.558594 36.453125 C 7.554688 36.449219 7.550781 36.441406 7.546875 36.4375 C 7.480469 36.359375 7.394531 36.316406 7.300781 36.304688 Z M 36.730469 40.371094 C 36.632812 40.359375 36.535156 40.378906 36.453125 40.441406 C 36.285156 40.566406 36.253906 40.800781 36.378906 40.96875 C 36.503906 41.132812 36.738281 41.164062 36.902344 41.039062 C 36.90625 41.039062 36.910156 41.035156 36.917969 41.027344 L 36.921875 41.027344 C 37.070312 40.898438 37.097656 40.675781 36.976562 40.515625 C 36.914062 40.433594 36.824219 40.382812 36.730469 40.371094 Z M 11.125 40.203125 C 11.007812 40.199219 10.890625 40.246094 10.8125 40.347656 C 10.6875 40.511719 10.714844 40.746094 10.878906 40.875 C 11.042969 41.003906 11.28125 40.972656 11.40625 40.808594 C 11.535156 40.644531 11.503906 40.410156 11.339844 40.28125 C 11.335938 40.28125 11.332031 40.273438 11.324219 40.269531 C 11.265625 40.226562 11.195312 40.207031 11.125 40.203125 Z M 31.988281 43.085938 C 31.917969 43.066406 31.84375 43.078125 31.769531 43.105469 C 31.578125 43.183594 31.488281 43.398438 31.566406 43.59375 C 31.644531 43.785156 31.863281 43.878906 32.054688 43.800781 C 32.054688 43.796875 32.066406 43.796875 32.074219 43.792969 L 32.070312 43.792969 C 32.25 43.710938 32.335938 43.496094 32.261719 43.308594 C 32.210938 43.191406 32.109375 43.109375 31.988281 43.085938 Z M 15.898438 42.980469 C 15.730469 42.953125 15.5625 43.042969 15.496094 43.203125 C 15.414062 43.394531 15.503906 43.613281 15.695312 43.695312 C 15.886719 43.777344 16.105469 43.6875 16.1875 43.496094 C 16.265625 43.304688 16.179688 43.085938 15.988281 43.003906 C 15.980469 43 15.972656 43 15.96875 42.996094 C 15.945312 42.988281 15.921875 42.984375 15.898438 42.976562 Z M 26.636719 44.464844 C 26.613281 44.460938 26.585938 44.460938 26.5625 44.464844 C 26.355469 44.492188 26.210938 44.679688 26.234375 44.882812 C 26.261719 45.089844 26.449219 45.234375 26.65625 45.207031 C 26.65625 45.207031 26.667969 45.207031 26.675781 45.210938 L 26.671875 45.207031 C 26.871094 45.171875 27.007812 44.992188 26.980469 44.789062 C 26.957031 44.609375 26.8125 44.476562 26.636719 44.464844 Z M 21.160156 44.429688 C 20.960938 44.410156 20.78125 44.550781 20.753906 44.75 C 20.726562 44.957031 20.871094 45.144531 21.074219 45.175781 C 21.28125 45.203125 21.46875 45.058594 21.496094 44.855469 C 21.527344 44.648438 21.382812 44.460938 21.179688 44.429688 C 21.171875 44.429688 21.164062 44.429688 21.160156 44.429688 Z M 21.160156 44.429688 "/>
<path style=" stroke:none;fill-rule:nonzero;fill:rgb(100%,56.078434%,0%);fill-opacity:1;" d="M 23.980469 2.625 C 23.78125 2.636719 23.625 2.796875 23.625 3 C 23.625 3.207031 23.792969 3.375 24 3.375 C 24.207031 3.375 24.375 3.207031 24.375 3 C 24.375 2.792969 24.207031 2.625 24 2.625 C 23.992188 2.625 23.988281 2.625 23.980469 2.625 Z M 29.441406 3.339844 C 29.273438 3.335938 29.117188 3.449219 29.074219 3.617188 C 29.019531 3.820312 29.136719 4.023438 29.339844 4.078125 C 29.539062 4.132812 29.742188 4.011719 29.796875 3.8125 C 29.851562 3.613281 29.734375 3.40625 29.53125 3.351562 C 29.527344 3.351562 29.519531 3.351562 29.511719 3.347656 C 29.488281 3.34375 29.464844 3.339844 29.441406 3.339844 Z M 18.542969 3.339844 C 18.515625 3.34375 18.492188 3.347656 18.46875 3.351562 C 18.265625 3.40625 18.148438 3.613281 18.203125 3.8125 C 18.257812 4.015625 18.460938 4.132812 18.660156 4.078125 C 18.664062 4.074219 18.671875 4.074219 18.679688 4.074219 L 18.679688 4.070312 C 18.867188 4.011719 18.980469 3.8125 18.925781 3.617188 C 18.878906 3.441406 18.714844 3.332031 18.542969 3.339844 Z M 13.527344 5.4375 C 13.453125 5.433594 13.378906 5.449219 13.3125 5.488281 C 13.132812 5.59375 13.070312 5.820312 13.175781 6 C 13.277344 6.179688 13.507812 6.242188 13.6875 6.136719 C 13.6875 6.136719 13.695312 6.132812 13.703125 6.128906 L 13.707031 6.128906 C 13.871094 6.019531 13.925781 5.800781 13.824219 5.625 C 13.757812 5.515625 13.644531 5.449219 13.527344 5.4375 Z M 34.464844 5.4375 C 34.347656 5.449219 34.238281 5.515625 34.175781 5.625 C 34.070312 5.804688 34.132812 6.035156 34.3125 6.136719 C 34.492188 6.242188 34.722656 6.179688 34.824219 6 C 34.929688 5.820312 34.867188 5.59375 34.6875 5.488281 C 34.683594 5.484375 34.675781 5.484375 34.671875 5.476562 C 34.605469 5.445312 34.53125 5.433594 34.464844 5.4375 Z M 9.152344 8.777344 C 9.054688 8.777344 8.960938 8.8125 8.886719 8.886719 C 8.738281 9.03125 8.738281 9.269531 8.886719 9.417969 C 9.03125 9.5625 9.269531 9.5625 9.417969 9.417969 C 9.417969 9.414062 9.421875 9.40625 9.429688 9.402344 C 9.5625 9.253906 9.558594 9.027344 9.417969 8.886719 C 9.34375 8.8125 9.246094 8.777344 9.152344 8.777344 Z M 38.839844 8.777344 C 38.746094 8.777344 38.65625 8.8125 38.582031 8.886719 C 38.4375 9.03125 38.4375 9.269531 38.582031 9.417969 C 38.730469 9.5625 38.96875 9.5625 39.113281 9.417969 C 39.261719 9.269531 39.261719 9.03125 39.113281 8.886719 C 39.109375 8.882812 39.105469 8.878906 39.101562 8.871094 C 39.027344 8.804688 38.933594 8.773438 38.839844 8.777344 Z M 42.207031 13.125 C 42.136719 13.121094 42.0625 13.136719 42 13.175781 C 41.820312 13.28125 41.757812 13.507812 41.859375 13.6875 C 41.964844 13.867188 42.195312 13.929688 42.375 13.824219 C 42.554688 13.722656 42.613281 13.492188 42.511719 13.3125 C 42.507812 13.308594 42.503906 13.300781 42.503906 13.296875 C 42.433594 13.191406 42.324219 13.132812 42.207031 13.125 Z M 5.785156 13.125 C 5.667969 13.136719 5.554688 13.199219 5.488281 13.3125 C 5.382812 13.492188 5.445312 13.722656 5.625 13.824219 C 5.804688 13.929688 6.035156 13.867188 6.136719 13.6875 C 6.136719 13.683594 6.144531 13.675781 6.148438 13.671875 L 6.148438 13.667969 C 6.238281 13.492188 6.175781 13.273438 6 13.175781 C 5.933594 13.136719 5.859375 13.121094 5.785156 13.125 Z M 3.738281 18.191406 C 3.5625 18.179688 3.398438 18.292969 3.351562 18.46875 C 3.300781 18.667969 3.417969 18.875 3.617188 18.925781 C 3.820312 18.980469 4.023438 18.863281 4.078125 18.660156 C 4.078125 18.660156 4.082031 18.648438 4.085938 18.640625 L 4.082031 18.644531 C 4.125 18.449219 4.007812 18.253906 3.8125 18.203125 C 3.785156 18.195312 3.761719 18.191406 3.738281 18.191406 Z M 44.261719 18.191406 C 44.234375 18.191406 44.210938 18.195312 44.1875 18.203125 C 43.984375 18.257812 43.867188 18.460938 43.921875 18.660156 C 43.976562 18.863281 44.179688 18.980469 44.382812 18.925781 C 44.582031 18.875 44.699219 18.667969 44.648438 18.46875 C 44.644531 18.464844 44.644531 18.457031 44.644531 18.449219 L 44.640625 18.449219 C 44.585938 18.285156 44.429688 18.179688 44.261719 18.191406 Z M 3 23.625 C 2.792969 23.625 2.625 23.792969 2.625 24 C 2.625 24.207031 2.792969 24.375 3 24.375 C 3.207031 24.375 3.375 24.207031 3.375 24 C 3.371094 23.996094 3.375 23.988281 3.375 23.980469 C 3.363281 23.78125 3.203125 23.625 3 23.625 Z M 45 23.625 C 44.792969 23.625 44.625 23.792969 44.625 24 C 44.625 24.207031 44.792969 24.375 45 24.375 C 45.207031 24.375 45.375 24.207031 45.375 24 C 45.371094 23.996094 45.375 23.988281 45.375 23.980469 C 45.363281 23.78125 45.203125 23.625 45 23.625 Z M 3.691406 29.0625 C 3.667969 29.0625 3.640625 29.066406 3.617188 29.074219 C 3.417969 29.128906 3.300781 29.332031 3.351562 29.53125 C 3.40625 29.734375 3.609375 29.851562 3.8125 29.796875 C 4.011719 29.742188 4.132812 29.539062 4.078125 29.339844 C 4.074219 29.335938 4.074219 29.328125 4.074219 29.320312 L 4.070312 29.320312 C 4.019531 29.15625 3.859375 29.050781 3.691406 29.0625 Z M 44.304688 29.0625 C 44.132812 29.050781 43.96875 29.164062 43.921875 29.339844 C 43.867188 29.539062 43.988281 29.746094 44.1875 29.796875 C 44.386719 29.851562 44.59375 29.734375 44.648438 29.53125 C 44.644531 29.53125 44.648438 29.519531 44.652344 29.511719 C 44.691406 29.320312 44.574219 29.125 44.378906 29.074219 C 44.355469 29.066406 44.332031 29.0625 44.304688 29.0625 Z M 5.832031 34.125 C 5.761719 34.121094 5.691406 34.136719 5.625 34.175781 C 5.445312 34.28125 5.386719 34.507812 5.488281 34.6875 C 5.59375 34.867188 5.820312 34.929688 6 34.824219 C 6.179688 34.722656 6.242188 34.492188 6.136719 34.3125 C 6.132812 34.308594 6.132812 34.300781 6.128906 34.296875 C 6.0625 34.191406 5.949219 34.132812 5.832031 34.125 Z M 42.160156 34.125 C 42.039062 34.136719 41.925781 34.199219 41.859375 34.3125 C 41.757812 34.492188 41.820312 34.722656 42 34.824219 C 42.179688 34.929688 42.40625 34.867188 42.511719 34.6875 C 42.511719 34.683594 42.515625 34.675781 42.519531 34.671875 L 42.523438 34.667969 C 42.613281 34.492188 42.546875 34.273438 42.375 34.175781 C 42.304688 34.136719 42.230469 34.121094 42.160156 34.125 Z M 9.140625 38.472656 C 9.050781 38.476562 8.957031 38.511719 8.886719 38.585938 C 8.738281 38.734375 8.738281 38.96875 8.886719 39.117188 C 9.03125 39.261719 9.269531 39.261719 9.417969 39.117188 C 9.5625 38.96875 9.5625 38.730469 9.417969 38.585938 C 9.410156 38.582031 9.40625 38.578125 9.402344 38.570312 C 9.328125 38.503906 9.234375 38.472656 9.140625 38.472656 Z M 38.847656 38.472656 C 38.753906 38.472656 38.65625 38.511719 38.582031 38.582031 C 38.4375 38.730469 38.4375 38.96875 38.582031 39.113281 C 38.730469 39.261719 38.96875 39.261719 39.113281 39.113281 C 39.113281 39.113281 39.121094 39.105469 39.128906 39.101562 L 39.128906 39.097656 C 39.261719 38.953125 39.257812 38.726562 39.113281 38.582031 C 39.039062 38.511719 38.945312 38.472656 38.847656 38.472656 Z M 13.464844 41.8125 C 13.347656 41.824219 13.238281 41.890625 13.175781 42 C 13.070312 42.179688 13.132812 42.40625 13.3125 42.511719 C 13.492188 42.617188 13.722656 42.554688 13.824219 42.375 C 13.929688 42.195312 13.867188 41.964844 13.6875 41.863281 C 13.683594 41.859375 13.675781 41.855469 13.671875 41.851562 C 13.605469 41.816406 13.53125 41.804688 13.464844 41.8125 Z M 34.527344 41.8125 C 34.453125 41.808594 34.378906 41.824219 34.3125 41.863281 C 34.132812 41.964844 34.070312 42.195312 34.175781 42.375 C 34.277344 42.554688 34.507812 42.617188 34.6875 42.511719 C 34.6875 42.507812 34.699219 42.503906 34.707031 42.503906 L 34.703125 42.503906 C 34.871094 42.394531 34.925781 42.171875 34.824219 42 C 34.761719 41.886719 34.644531 41.820312 34.527344 41.8125 Z M 18.570312 43.910156 C 18.402344 43.90625 18.246094 44.015625 18.203125 44.1875 C 18.148438 44.386719 18.265625 44.59375 18.46875 44.648438 C 18.667969 44.699219 18.875 44.582031 18.925781 44.382812 C 18.980469 44.179688 18.863281 43.976562 18.660156 43.921875 C 18.65625 43.921875 18.648438 43.917969 18.644531 43.917969 C 18.617188 43.914062 18.59375 43.910156 18.570312 43.910156 Z M 29.414062 43.910156 C 29.386719 43.910156 29.363281 43.914062 29.339844 43.921875 C 29.136719 43.976562 29.019531 44.179688 29.074219 44.382812 C 29.125 44.582031 29.332031 44.699219 29.53125 44.644531 C 29.535156 44.644531 29.542969 44.644531 29.550781 44.644531 C 29.738281 44.582031 29.851562 44.382812 29.796875 44.1875 C 29.75 44.011719 29.585938 43.898438 29.414062 43.910156 Z M 23.980469 44.625 C 23.78125 44.636719 23.625 44.796875 23.625 45 C 23.625 45.207031 23.792969 45.375 24 45.375 C 24.207031 45.375 24.375 45.207031 24.375 45 C 24.375 44.792969 24.207031 44.625 24 44.625 C 23.992188 44.625 23.988281 44.625 23.980469 44.625 Z M 23.980469 44.625 "/>
<path style=" stroke:none;fill-rule:nonzero;fill:rgb(100%,79.215688%,15.686275%);fill-opacity:0.992157;" d="M 24 6 C 33.941406 6 42 14.058594 42 24 C 42 33.941406 33.941406 42 24 42 C 14.058594 42 6 33.941406 6 24 C 6 14.058594 14.058594 6 24 6 Z M 24 6 "/>
<path style=" stroke:none;fill-rule:nonzero;fill:rgb(100%,87.843138%,50.980395%);fill-opacity:1;" d="M 24 2.996094 C 35.601562 2.996094 45.003906 12.398438 45.003906 24 C 45.003906 35.597656 35.601562 45.003906 24 45.003906 C 12.398438 45.003906 2.996094 35.597656 2.996094 24 C 2.996094 12.398438 12.398438 2.996094 24 2.996094 Z M 24 2.996094 "/>
<path style=" stroke:none;fill-rule:nonzero;fill:rgb(100%,100%,100%);fill-opacity:0.4;" d="M 24 3 C 12.402344 3 3 12.402344 3 24 C 3 24.125 3.003906 24.25 3.007812 24.375 C 3.207031 12.949219 12.527344 3.75 24 3.75 C 35.472656 3.75 44.792969 12.949219 44.996094 24.375 C 44.996094 24.25 45 24.125 45 24 C 45 12.402344 35.597656 3 24 3 Z M 24 3 "/>
<path style=" stroke:none;fill-rule:nonzero;fill:rgb(0%,0%,0%);fill-opacity:0.4;" d="M 3.011719 23.621094 C 3.007812 23.742188 3 23.867188 3 23.992188 C 3 35.589844 12.402344 44.992188 24 44.992188 C 35.597656 44.992188 45 35.589844 45 23.992188 C 45 23.867188 44.992188 23.742188 44.988281 23.621094 C 44.789062 35.042969 35.472656 44.246094 24 44.246094 C 12.527344 44.246094 3.210938 35.042969 3.011719 23.621094 Z M 3.011719 23.621094 "/>
<path style=" stroke:none;fill-rule:nonzero;fill:rgb(100%,79.215688%,15.686275%);fill-opacity:1;" d="M 24 4.5 C 34.769531 4.5 43.5 13.230469 43.5 24 C 43.5 34.769531 34.769531 43.496094 24 43.496094 C 13.230469 43.496094 4.5 34.769531 4.5 24 C 4.5 13.230469 13.230469 4.5 24 4.5 Z M 24 4.5 "/>
<path style=" stroke:none;fill-rule:nonzero;fill:rgb(0%,0%,0%);fill-opacity:0.2;" d="M 3.011719 24.5625 C 3.003906 24.75 3 24.9375 3 25.125 C 3 36.722656 12.402344 46.125 24 46.125 C 35.597656 46.125 45 36.722656 45 25.125 C 45 24.9375 44.996094 24.75 44.988281 24.5625 C 44.691406 35.898438 35.410156 44.996094 24 44.996094 C 12.589844 44.996094 3.308594 35.898438 3.011719 24.5625 Z M 3.011719 24.5625 "/>
<path style=" stroke:none;fill-rule:nonzero;fill:rgb(74.117649%,74.117649%,74.117649%);fill-opacity:1;" d="M 24 7.5 C 33.113281 7.5 40.5 14.886719 40.5 24 C 40.5 33.113281 33.113281 40.5 24 40.5 C 14.886719 40.5 7.5 33.113281 7.5 24 C 7.5 14.886719 14.886719 7.5 24 7.5 Z M 24 7.5 "/>
<path style=" stroke:none;fill-rule:nonzero;fill:rgb(0%,0%,0%);fill-opacity:0.4;" d="M 24 4.5 C 13.199219 4.5 4.5 13.195312 4.5 24 C 4.5 24.066406 4.503906 24.136719 4.503906 24.203125 C 4.613281 13.496094 13.265625 4.910156 24 4.910156 C 34.734375 4.910156 43.386719 13.496094 43.496094 24.203125 C 43.496094 24.136719 43.5 24.066406 43.5 24 C 43.5 13.195312 34.800781 4.5 24 4.5 Z M 24 4.5 "/>
<path style=" stroke:none;fill-rule:nonzero;fill:rgb(100%,100%,100%);fill-opacity:0.4;" d="M 24 43.875 C 13.199219 43.875 4.5 35.179688 4.5 24.375 C 4.5 24.308594 4.503906 24.238281 4.503906 24.171875 C 4.613281 34.878906 13.265625 43.464844 24 43.464844 C 34.734375 43.464844 43.386719 34.878906 43.496094 24.171875 C 43.496094 24.238281 43.5 24.308594 43.5 24.375 C 43.5 35.179688 34.800781 43.875 24 43.875 Z M 24 43.875 "/>
<path style=" stroke:none;fill-rule:nonzero;fill:rgb(0%,0%,0%);fill-opacity:0.4;" d="M 24 7.5 C 14.859375 7.5 7.5 14.855469 7.5 24 C 7.5 24.066406 7.5 24.132812 7.5 24.199219 C 7.609375 15.148438 14.925781 7.894531 24 7.894531 C 33.074219 7.894531 40.390625 15.148438 40.496094 24.199219 C 40.496094 24.132812 40.5 24.066406 40.5 24 C 40.5 14.855469 33.140625 7.5 24 7.5 Z M 24 7.5 "/>
<path style=" stroke:none;fill-rule:nonzero;fill:rgb(100%,100%,100%);fill-opacity:0.4;" d="M 24 40.875 C 14.859375 40.875 7.5 33.515625 7.5 24.375 C 7.5 24.308594 7.5 24.242188 7.5 24.175781 C 7.609375 33.222656 14.925781 40.476562 24 40.476562 C 33.074219 40.476562 40.390625 33.222656 40.496094 24.175781 C 40.496094 24.242188 40.5 24.308594 40.5 24.375 C 40.5 33.515625 33.140625 40.875 24 40.875 Z M 24 40.875 "/>
<path style=" stroke:none;fill-rule:nonzero;fill:rgb(87.843138%,87.843138%,87.843138%);fill-opacity:1;" d="M 24 13.941406 C 23.71875 13.9375 23.449219 14.050781 23.25 14.25 L 14.25 23.25 C 14.125 23.375 14.085938 23.566406 14.15625 23.730469 C 14.222656 23.894531 14.382812 24 14.558594 24 L 16.5 24 L 16.5 31.5 C 16.5 32.332031 17.167969 33 18 33 L 30 33 C 30.832031 33 31.5 32.332031 31.5 31.5 L 31.5 24 L 33.441406 24 C 33.617188 24 33.777344 23.894531 33.84375 23.730469 C 33.914062 23.566406 33.875 23.375 33.75 23.25 L 31.5 21 L 31.5 17.25 C 31.5 16.835938 31.164062 16.5 30.75 16.5 L 29.25 16.5 C 28.835938 16.5 28.5 16.835938 28.5 17.25 L 28.5 18 L 24.75 14.25 C 24.550781 14.050781 24.28125 13.9375 24 13.941406 Z M 24 13.941406 "/>
<path style=" stroke:none;fill-rule:nonzero;fill:rgb(100%,100%,100%);fill-opacity:0.4;" d="M 24 13.941406 C 23.71875 13.9375 23.449219 14.050781 23.25 14.25 L 14.25 23.25 C 14.164062 23.339844 14.121094 23.457031 14.128906 23.582031 C 14.136719 23.703125 14.195312 23.816406 14.292969 23.894531 L 23.25 14.933594 C 23.449219 14.738281 23.71875 14.625 24 14.625 C 24.28125 14.625 24.550781 14.738281 24.75 14.933594 L 28.5 18.683594 L 28.5 18 L 24.75 14.25 C 24.550781 14.050781 24.28125 13.9375 24 13.941406 Z M 29.25 16.5 C 28.835938 16.5 28.5 16.835938 28.5 17.25 L 28.5 17.933594 C 28.5 17.519531 28.835938 17.183594 29.25 17.183594 L 30.75 17.183594 C 31.164062 17.183594 31.5 17.519531 31.5 17.933594 L 31.5 17.25 C 31.5 16.835938 31.164062 16.5 30.75 16.5 Z M 31.5 21 L 31.5 21.683594 L 33.710938 23.898438 C 33.808594 23.820312 33.867188 23.707031 33.875 23.582031 C 33.882812 23.457031 33.835938 23.339844 33.75 23.25 Z M 31.5 21 "/>
<path style=" stroke:none;fill-rule:nonzero;fill:rgb(0%,0%,0%);fill-opacity:0.4;" d="M 14.324219 23.925781 L 14.25 24 C 14.125 24.125 14.085938 24.316406 14.15625 24.480469 C 14.222656 24.644531 14.382812 24.75 14.558594 24.75 L 16.5 24.75 L 16.5 24 L 14.558594 24 C 14.476562 24 14.394531 23.972656 14.324219 23.925781 Z M 33.675781 23.925781 C 33.605469 23.972656 33.523438 24 33.441406 24 L 31.5 24 L 31.5 24.75 L 33.441406 24.75 C 33.617188 24.75 33.777344 24.644531 33.84375 24.480469 C 33.914062 24.316406 33.875 24.125 33.75 24 Z M 16.5 31.5 L 16.5 32.25 C 16.5 33.082031 17.167969 33.75 18 33.75 L 30 33.75 C 30.832031 33.75 31.5 33.082031 31.5 32.25 L 31.5 31.5 C 31.5 32.332031 30.832031 33 30 33 L 18 33 C 17.167969 33 16.5 32.332031 16.5 31.5 Z M 16.5 31.5 "/>
<path style=" stroke:none;fill-rule:nonzero;fill:url(#linear0);" d="M 24 3 C 35.597656 3 45 12.402344 45 24 C 45 35.597656 35.597656 44.996094 24 44.996094 C 12.402344 44.996094 3 35.597656 3 24 C 3 12.402344 12.402344 3 24 3 Z M 24 3 "/>
</g>
</svg>
