
<svg xmlns="http://www.w3.org/2000/svg" xmlns:xlink="http://www.w3.org/1999/xlink" width="48" height="48" viewBox="0 0 48 48" version="1.1">
<defs>
<linearGradient id="linear0" gradientUnits="userSpaceOnUse" x1="31.999998" y1="60" x2="31.999998" y2="3.999999" gradientTransform="matrix(0.75,0,0,0.75,0,0.000000000000085265)">
<stop offset="0" style="stop-color:rgb(0%,0%,0%);stop-opacity:0.2;"/>
<stop offset="1" style="stop-color:rgb(100%,100%,100%);stop-opacity:0;"/>
</linearGradient>
</defs>
<g id="surface1">
<path style=" stroke:none;fill-rule:nonzero;fill:rgb(100%,70.19608%,0%);fill-opacity:0.996078;" d="M 24 36 C 26.484375 36 28.5 38.015625 28.5 40.5 C 28.5 42.984375 26.484375 45 24 45 C 21.515625 45 19.5 42.984375 19.5 40.5 C 19.5 38.015625 21.515625 36 24 36 Z M 24 36 "/>
<path style=" stroke:none;fill-rule:nonzero;fill:rgb(0%,0%,0%);fill-opacity:0.4;" d="M 19.515625 40.125 C 19.507812 40.25 19.5 40.375 19.5 40.5 C 19.5 42.992188 21.507812 45 24 45 C 26.492188 45 28.5 42.992188 28.5 40.5 C 28.5 40.375 28.492188 40.25 28.484375 40.125 C 28.292969 42.441406 26.367188 44.25 24 44.25 C 21.632812 44.25 19.707031 42.441406 19.515625 40.125 Z M 19.515625 40.125 "/>
<path style=" stroke:none;fill-rule:nonzero;fill:rgb(100%,70.19608%,0%);fill-opacity:0.996078;" d="M 24 3 C 25.65625 3 27 4.34375 27 6 C 27 7.65625 25.65625 9 24 9 C 22.34375 9 21 7.65625 21 6 C 21 4.34375 22.34375 3 24 3 Z M 24 3 "/>
<path style=" stroke:none;fill-rule:nonzero;fill:rgb(100%,79.215688%,15.686275%);fill-opacity:0.996078;" d="M 24 6 C 15.691406 6 9 12.019531 9 19.5 L 9 43.5 L 39 43.5 L 39 19.5 C 39 12.019531 32.308594 6 24 6 Z M 24 6 "/>
<path style=" stroke:none;fill-rule:nonzero;fill:rgb(100%,83.529413%,30.980393%);fill-opacity:1;" d="M 6 43.5 C 6 43.5 42 43.5 42 43.5 L 39 39 L 9 39 Z M 6 43.5 "/>
<path style=" stroke:none;fill-rule:nonzero;fill:rgb(100%,100%,100%);fill-opacity:0.4;" d="M 16.300781 12.054688 C 17.015625 12.46875 17.0625 13.734375 16.398438 14.882812 L 15.796875 15.921875 C 15.136719 17.070312 14.015625 17.664062 13.300781 17.25 C 12.582031 16.835938 12.539062 15.570312 13.199219 14.421875 L 13.800781 13.382812 C 14.460938 12.234375 15.582031 11.640625 16.300781 12.054688 Z M 16.300781 12.054688 "/>
<path style=" stroke:none;fill-rule:nonzero;fill:rgb(100%,100%,100%);fill-opacity:0.4;" d="M 24 6 C 15.691406 6 9 12.019531 9 19.5 L 9 20.25 C 9 12.769531 15.691406 6.75 24 6.75 C 32.308594 6.75 39 12.769531 39 20.25 L 39 19.5 C 39 12.019531 32.308594 6 24 6 Z M 24 6 "/>
<path style=" stroke:none;fill-rule:nonzero;fill:rgb(0%,0%,0%);fill-opacity:0.2;" d="M 6.5 42.75 L 6 43.5 L 42 43.5 L 41.5 42.75 Z M 6.5 42.75 "/>
<path style=" stroke:none;fill-rule:nonzero;fill:rgb(100%,100%,100%);fill-opacity:0.4;" d="M 24 3 C 22.339844 3 21 4.339844 21 6 C 21 6.125 21.007812 6.253906 21.023438 6.375 C 21.207031 4.890625 22.464844 3.75 24 3.75 C 25.535156 3.75 26.792969 4.890625 26.976562 6.375 C 26.992188 6.253906 27 6.125 27 6 C 27 4.339844 25.660156 3 24 3 Z M 24 3 "/>
<path style=" stroke:none;fill-rule:nonzero;fill:url(#linear0);" d="M 24 3 C 22.339844 3 21 4.339844 21 6 C 21 6.089844 21.003906 6.179688 21.011719 6.265625 C 14.144531 7.507812 9 12.941406 9 19.5 L 9 39 L 6 43.5 L 20.640625 43.5 C 21.460938 44.421875 22.660156 45 24 45 C 25.339844 45 26.539062 44.421875 27.359375 43.5 L 42 43.5 L 39 39 L 39 19.5 C 39 12.941406 33.855469 7.507812 26.988281 6.265625 C 26.996094 6.179688 27 6.089844 27 6 C 27 4.339844 25.660156 3 24 3 Z M 24 3 "/>
<path style=" stroke:none;fill-rule:nonzero;fill:rgb(0%,0%,0%);fill-opacity:0.2;" d="M 6.75 43.5 L 6 44.625 L 20.640625 44.625 C 21.460938 45.546875 22.660156 46.125 24 46.125 C 25.339844 46.125 26.539062 45.546875 27.359375 44.625 L 42 44.625 L 41.25 43.5 L 27.359375 43.5 C 26.539062 44.421875 25.339844 45 24 45 C 22.660156 45 21.460938 44.421875 20.640625 43.5 Z M 6.75 43.5 "/>
</g>
</svg>
