
<svg xmlns="http://www.w3.org/2000/svg" xmlns:xlink="http://www.w3.org/1999/xlink" width="64" height="64" viewBox="0 0 64 64" version="1.1">
<defs>
<radialGradient id="radial0" gradientUnits="userSpaceOnUse" cx="10.054166" cy="-208.649994" fx="10.054166" fy="-208.649994" r="0.529167" gradientTransform="matrix(3.779528,0,0,3.779528,0,812.598468)">
<stop offset="0" style="stop-color:rgb(40.000001%,73.333335%,41.568628%);stop-opacity:1;"/>
<stop offset="1" style="stop-color:rgb(40.000001%,73.333335%,41.568628%);stop-opacity:0;"/>
</radialGradient>
<radialGradient id="radial1" gradientUnits="userSpaceOnUse" cx="10.054166" cy="-208.649994" fx="10.054166" fy="-208.649994" r="0.529167" gradientTransform="matrix(3.779528,0,0,3.779528,5.999999,806.598474)">
<stop offset="0" style="stop-color:rgb(40.000001%,73.333335%,41.568628%);stop-opacity:1;"/>
<stop offset="1" style="stop-color:rgb(40.000001%,73.333335%,41.568628%);stop-opacity:0;"/>
</radialGradient>
<radialGradient id="radial2" gradientUnits="userSpaceOnUse" cx="37.499996" cy="28.785154" fx="37.499996" fy="28.785154" r="11" gradientTransform="matrix(0.771389,-0.771389,1.090909,1.090909,-20.329081,37.525108)">
<stop offset="0" style="stop-color:rgb(40.000001%,73.333335%,41.568628%);stop-opacity:1;"/>
<stop offset="1" style="stop-color:rgb(40.000001%,73.333335%,41.568628%);stop-opacity:0;"/>
</radialGradient>
<radialGradient id="radial3" gradientUnits="userSpaceOnUse" cx="10.054166" cy="-208.649994" fx="10.054166" fy="-208.649994" r="0.529167" gradientTransform="matrix(3.779528,0,0,3.779528,9.999999,826.598444)">
<stop offset="0" style="stop-color:rgb(40.000001%,73.333335%,41.568628%);stop-opacity:1;"/>
<stop offset="1" style="stop-color:rgb(40.000001%,73.333335%,41.568628%);stop-opacity:0;"/>
</radialGradient>
<linearGradient id="linear0" gradientUnits="userSpaceOnUse" x1="8.466666" y1="-199.125" x2="8.466666" y2="-213.941666" gradientTransform="matrix(3.779528,0,0,3.779528,0,812.598468)">
<stop offset="0" style="stop-color:rgb(0%,0%,0%);stop-opacity:0.2;"/>
<stop offset="1" style="stop-color:rgb(100%,100%,100%);stop-opacity:0;"/>
</linearGradient>
</defs>
<g id="surface1">
<path style=" stroke:none;fill-rule:nonzero;fill:rgb(87.843138%,87.843138%,87.843138%);fill-opacity:0.996078;" d="M 32 4 C 47.464844 4 60 16.535156 60 32 C 60 47.464844 47.464844 60 32 60 C 16.535156 60 4 47.464844 4 32 C 4 16.535156 16.535156 4 32 4 Z M 32 4 "/>
<path style=" stroke:none;fill-rule:nonzero;fill:rgb(38.039216%,38.039216%,38.039216%);fill-opacity:0.996078;" d="M 32 8 C 45.253906 8 56 18.746094 56 32 C 56 45.253906 45.253906 56 32 56 C 18.746094 56 8 45.253906 8 32 C 8 18.746094 18.746094 8 32 8 Z M 32 8 "/>
<path style=" stroke:none;fill-rule:nonzero;fill:rgb(100%,100%,100%);fill-opacity:0.6;" d="M 32 4 C 16.488281 4 4 16.488281 4 32 C 4 32.15625 4.003906 32.3125 4.007812 32.46875 C 4.253906 17.175781 16.644531 4.9375 32 4.9375 C 47.355469 4.9375 59.746094 17.175781 59.996094 32.46875 C 59.996094 32.3125 60 32.15625 60 32 C 60 16.488281 47.511719 4 32 4 Z M 32 4 "/>
<path style=" stroke:none;fill-rule:nonzero;fill:rgb(0%,0%,0%);fill-opacity:0.4;" d="M 32 60 C 16.488281 60 4 47.511719 4 32 C 4 31.84375 4.003906 31.6875 4.003906 31.53125 C 4.253906 46.824219 16.644531 59.0625 32 59.0625 C 47.355469 59.0625 59.746094 46.824219 59.996094 31.53125 C 59.996094 31.6875 60 31.84375 60 32 C 60 47.511719 47.511719 60 32 60 Z M 32 60 "/>
<path style=" stroke:none;fill-rule:nonzero;fill:rgb(0%,0%,0%);fill-opacity:0.4;" d="M 32 8 C 18.703125 8 8 18.703125 8 32 C 8 32.164062 8.003906 32.328125 8.007812 32.496094 C 8.265625 19.429688 18.871094 8.988281 32 8.988281 C 45.128906 8.988281 55.734375 19.429688 55.996094 32.496094 C 55.996094 32.328125 56 32.164062 56 32 C 56 18.703125 45.296875 8 32 8 Z M 32 8 "/>
<path style=" stroke:none;fill-rule:nonzero;fill:rgb(100%,100%,100%);fill-opacity:0.6;" d="M 32 57 C 18.703125 57 8 46.296875 8 33 C 8 32.835938 8.003906 32.671875 8.003906 32.507812 C 8.265625 45.570312 18.871094 56.011719 32 56.011719 C 45.128906 56.011719 55.734375 45.570312 55.996094 32.507812 C 55.996094 32.671875 56 32.835938 56 33 C 56 46.296875 45.296875 57 32 57 Z M 32 57 "/>
<path style=" stroke:none;fill-rule:nonzero;fill:rgb(64.705884%,83.92157%,65.490198%);fill-opacity:1;" d="M 32 18 C 24.242188 18 18 24.242188 18 32 C 18 39.757812 24.242188 46 32 46 C 39.757812 46 46 39.757812 46 32 C 46 24.242188 39.757812 18 32 18 Z M 32 19 C 39.203125 19 45 24.796875 45 32 C 45 39.203125 39.203125 45 32 45 C 24.796875 45 19 39.203125 19 32 C 19 24.796875 24.796875 19 32 19 Z M 32 19 "/>
<path style=" stroke:none;fill-rule:nonzero;fill:rgb(0%,0%,0%);fill-opacity:0.2;" d="M 4.007812 32.75 C 4.003906 33 4 33.25 4 33.5 C 4 49.011719 16.488281 61.5 32 61.5 C 47.511719 61.5 60 49.011719 60 33.5 C 60 33.25 59.996094 33 59.988281 32.75 C 59.59375 47.914062 47.261719 60 32 60 C 16.738281 60 4.40625 47.914062 4.007812 32.75 Z M 4.007812 32.75 "/>
<path style=" stroke:none;fill-rule:nonzero;fill:rgb(40.000001%,73.333335%,41.568628%);fill-opacity:1;" d="M 32 31.285156 L 32 32.734375 L 46.820312 47.558594 C 47.019531 47.757812 47.34375 47.757812 47.546875 47.558594 C 47.746094 47.355469 47.746094 47.03125 47.546875 46.832031 Z M 32 31.285156 "/>
<path style=" stroke:none;fill-rule:nonzero;fill:rgb(64.705884%,83.92157%,65.490198%);fill-opacity:1;" d="M 31.988281 10 C 32.269531 10 32.5 10.230469 32.5 10.511719 L 32.5 53.488281 C 32.5 53.769531 32.269531 54 31.988281 54 C 31.707031 54 31.476562 53.769531 31.476562 53.488281 L 31.476562 10.511719 C 31.476562 10.230469 31.707031 10 31.988281 10 Z M 31.988281 10 "/>
<path style=" stroke:none;fill-rule:nonzero;fill:rgb(64.705884%,83.92157%,65.490198%);fill-opacity:1;" d="M 53.988281 32 C 53.988281 32.28125 53.757812 32.511719 53.476562 32.511719 L 10.5 32.511719 C 10.21875 32.511719 9.988281 32.28125 9.988281 32 C 9.988281 31.71875 10.21875 31.488281 10.5 31.488281 L 53.476562 31.488281 C 53.757812 31.488281 53.988281 31.71875 53.988281 32 Z M 53.988281 32 "/>
<path style=" stroke:none;fill-rule:nonzero;fill:rgb(64.705884%,83.92157%,65.490198%);fill-opacity:1;" d="M 28.5 30 C 28.777344 30 29 30.230469 29 30.511719 L 29 33.488281 C 29 33.769531 28.777344 34 28.5 34 C 28.222656 34 28 33.769531 28 33.488281 L 28 30.511719 C 28 30.230469 28.222656 30 28.5 30 Z M 28.5 30 "/>
<path style=" stroke:none;fill-rule:nonzero;fill:rgb(64.705884%,83.92157%,65.490198%);fill-opacity:1;" d="M 24.5 30 C 24.777344 30 25 30.230469 25 30.511719 L 25 33.488281 C 25 33.769531 24.777344 34 24.5 34 C 24.222656 34 24 33.769531 24 33.488281 L 24 30.511719 C 24 30.230469 24.222656 30 24.5 30 Z M 24.5 30 "/>
<path style=" stroke:none;fill-rule:nonzero;fill:rgb(64.705884%,83.92157%,65.490198%);fill-opacity:1;" d="M 20.5 30 C 20.777344 30 21 30.230469 21 30.511719 L 21 33.488281 C 21 33.769531 20.777344 34 20.5 34 C 20.222656 34 20 33.769531 20 33.488281 L 20 30.511719 C 20 30.230469 20.222656 30 20.5 30 Z M 20.5 30 "/>
<path style=" stroke:none;fill-rule:nonzero;fill:rgb(64.705884%,83.92157%,65.490198%);fill-opacity:1;" d="M 16 30 C 16.277344 30 16.5 30.230469 16.5 30.511719 L 16.5 33.488281 C 16.5 33.769531 16.277344 34 16 34 C 15.722656 34 15.5 33.769531 15.5 33.488281 L 15.5 30.511719 C 15.5 30.230469 15.722656 30 16 30 Z M 16 30 "/>
<path style=" stroke:none;fill-rule:nonzero;fill:rgb(64.705884%,83.92157%,65.490198%);fill-opacity:1;" d="M 12 30 C 12.277344 30 12.5 30.230469 12.5 30.511719 L 12.5 33.488281 C 12.5 33.769531 12.277344 34 12 34 C 11.722656 34 11.5 33.769531 11.5 33.488281 L 11.5 30.511719 C 11.5 30.230469 11.722656 30 12 30 Z M 12 30 "/>
<path style=" stroke:none;fill-rule:nonzero;fill:rgb(64.705884%,83.92157%,65.490198%);fill-opacity:1;" d="M 52 30 C 52.277344 30 52.5 30.230469 52.5 30.511719 L 52.5 33.488281 C 52.5 33.769531 52.277344 34 52 34 C 51.722656 34 51.5 33.769531 51.5 33.488281 L 51.5 30.511719 C 51.5 30.230469 51.722656 30 52 30 Z M 52 30 "/>
<path style=" stroke:none;fill-rule:nonzero;fill:rgb(64.705884%,83.92157%,65.490198%);fill-opacity:1;" d="M 48 30 C 48.277344 30 48.5 30.230469 48.5 30.511719 L 48.5 33.488281 C 48.5 33.769531 48.277344 34 48 34 C 47.722656 34 47.5 33.769531 47.5 33.488281 L 47.5 30.511719 C 47.5 30.230469 47.722656 30 48 30 Z M 48 30 "/>
<path style=" stroke:none;fill-rule:nonzero;fill:rgb(64.705884%,83.92157%,65.490198%);fill-opacity:1;" d="M 43.5 30 C 43.777344 30 44 30.230469 44 30.511719 L 44 33.488281 C 44 33.769531 43.777344 34 43.5 34 C 43.222656 34 43 33.769531 43 33.488281 L 43 30.511719 C 43 30.230469 43.222656 30 43.5 30 Z M 43.5 30 "/>
<path style=" stroke:none;fill-rule:nonzero;fill:rgb(64.705884%,83.92157%,65.490198%);fill-opacity:1;" d="M 39.5 30 C 39.777344 30 40 30.230469 40 30.511719 L 40 33.488281 C 40 33.769531 39.777344 34 39.5 34 C 39.222656 34 39 33.769531 39 33.488281 L 39 30.511719 C 39 30.230469 39.222656 30 39.5 30 Z M 39.5 30 "/>
<path style=" stroke:none;fill-rule:nonzero;fill:rgb(64.705884%,83.92157%,65.490198%);fill-opacity:1;" d="M 35.5 30 C 35.777344 30 36 30.230469 36 30.511719 L 36 33.488281 C 36 33.769531 35.777344 34 35.5 34 C 35.222656 34 35 33.769531 35 33.488281 L 35 30.511719 C 35 30.230469 35.222656 30 35.5 30 Z M 35.5 30 "/>
<path style=" stroke:none;fill-rule:nonzero;fill:rgb(64.705884%,83.92157%,65.490198%);fill-opacity:1;" d="M 34 28.5 C 34 28.777344 33.769531 29 33.488281 29 L 30.511719 29 C 30.230469 29 30 28.777344 30 28.5 C 30 28.222656 30.230469 28 30.511719 28 L 33.488281 28 C 33.769531 28 34 28.222656 34 28.5 Z M 34 28.5 "/>
<path style=" stroke:none;fill-rule:nonzero;fill:rgb(64.705884%,83.92157%,65.490198%);fill-opacity:1;" d="M 34 24.5 C 34 24.777344 33.769531 25 33.488281 25 L 30.511719 25 C 30.230469 25 30 24.777344 30 24.5 C 30 24.222656 30.230469 24 30.511719 24 L 33.488281 24 C 33.769531 24 34 24.222656 34 24.5 Z M 34 24.5 "/>
<path style=" stroke:none;fill-rule:nonzero;fill:rgb(64.705884%,83.92157%,65.490198%);fill-opacity:1;" d="M 34 20.5 C 34 20.777344 33.769531 21 33.488281 21 L 30.511719 21 C 30.230469 21 30 20.777344 30 20.5 C 30 20.222656 30.230469 20 30.511719 20 L 33.488281 20 C 33.769531 20 34 20.222656 34 20.5 Z M 34 20.5 "/>
<path style=" stroke:none;fill-rule:nonzero;fill:rgb(64.705884%,83.92157%,65.490198%);fill-opacity:1;" d="M 34 16 C 34 16.277344 33.769531 16.5 33.488281 16.5 L 30.511719 16.5 C 30.230469 16.5 30 16.277344 30 16 C 30 15.722656 30.230469 15.5 30.511719 15.5 L 33.488281 15.5 C 33.769531 15.5 34 15.722656 34 16 Z M 34 16 "/>
<path style=" stroke:none;fill-rule:nonzero;fill:rgb(64.705884%,83.92157%,65.490198%);fill-opacity:1;" d="M 34 12 C 34 12.277344 33.769531 12.5 33.488281 12.5 L 30.511719 12.5 C 30.230469 12.5 30 12.277344 30 12 C 30 11.722656 30.230469 11.5 30.511719 11.5 L 33.488281 11.5 C 33.769531 11.5 34 11.722656 34 12 Z M 34 12 "/>
<path style=" stroke:none;fill-rule:nonzero;fill:rgb(64.705884%,83.92157%,65.490198%);fill-opacity:1;" d="M 34 52 C 34 52.277344 33.769531 52.5 33.488281 52.5 L 30.511719 52.5 C 30.230469 52.5 30 52.277344 30 52 C 30 51.722656 30.230469 51.5 30.511719 51.5 L 33.488281 51.5 C 33.769531 51.5 34 51.722656 34 52 Z M 34 52 "/>
<path style=" stroke:none;fill-rule:nonzero;fill:rgb(64.705884%,83.92157%,65.490198%);fill-opacity:1;" d="M 34 48 C 34 48.277344 33.769531 48.5 33.488281 48.5 L 30.511719 48.5 C 30.230469 48.5 30 48.277344 30 48 C 30 47.722656 30.230469 47.5 30.511719 47.5 L 33.488281 47.5 C 33.769531 47.5 34 47.722656 34 48 Z M 34 48 "/>
<path style=" stroke:none;fill-rule:nonzero;fill:rgb(64.705884%,83.92157%,65.490198%);fill-opacity:1;" d="M 34 43.5 C 34 43.777344 33.769531 44 33.488281 44 L 30.511719 44 C 30.230469 44 30 43.777344 30 43.5 C 30 43.222656 30.230469 43 30.511719 43 L 33.488281 43 C 33.769531 43 34 43.222656 34 43.5 Z M 34 43.5 "/>
<path style=" stroke:none;fill-rule:nonzero;fill:rgb(64.705884%,83.92157%,65.490198%);fill-opacity:1;" d="M 34 39.5 C 34 39.777344 33.769531 40 33.488281 40 L 30.511719 40 C 30.230469 40 30 39.777344 30 39.5 C 30 39.222656 30.230469 39 30.511719 39 L 33.488281 39 C 33.769531 39 34 39.222656 34 39.5 Z M 34 39.5 "/>
<path style=" stroke:none;fill-rule:nonzero;fill:rgb(64.705884%,83.92157%,65.490198%);fill-opacity:1;" d="M 34 35.5 C 34 35.777344 33.769531 36 33.488281 36 L 30.511719 36 C 30.230469 36 30 35.777344 30 35.5 C 30 35.222656 30.230469 35 30.511719 35 L 33.488281 35 C 33.769531 35 34 35.222656 34 35.5 Z M 34 35.5 "/>
<path style=" stroke:none;fill-rule:nonzero;fill:url(#radial0);" d="M 38 22 C 39.105469 22 40 22.894531 40 24 C 40 25.105469 39.105469 26 38 26 C 36.894531 26 36 25.105469 36 24 C 36 22.894531 36.894531 22 38 22 Z M 38 22 "/>
<path style=" stroke:none;fill-rule:nonzero;fill:url(#radial1);" d="M 44 16 C 45.105469 16 46 16.894531 46 18 C 46 19.105469 45.105469 20 44 20 C 42.894531 20 42 19.105469 42 18 C 42 16.894531 42.894531 16 44 16 Z M 44 16 "/>
<path style=" stroke:none;fill-rule:nonzero;fill:url(#radial2);" d="M 32 32 L 47.570312 47.570312 C 51.546875 43.59375 54 38.09375 54 32 Z M 32 32 "/>
<path style=" stroke:none;fill-rule:nonzero;fill:url(#radial3);" d="M 48 36 C 49.105469 36 50 36.894531 50 38 C 50 39.105469 49.105469 40 48 40 C 46.894531 40 46 39.105469 46 38 C 46 36.894531 46.894531 36 48 36 Z M 48 36 "/>
<path style=" stroke:none;fill-rule:nonzero;fill:rgb(100%,100%,100%);fill-opacity:0.101961;" d="M 32 8 C 18.703125 8 8 18.703125 8 32 C 8 36.980469 9.5 41.59375 12.078125 45.421875 C 22.511719 33.503906 37.84375 26 55 26 C 55.082031 26 55.167969 26.003906 55.25 26.003906 C 52.601562 15.628906 43.222656 8 32 8 Z M 32 8 "/>
<path style=" stroke:none;fill-rule:nonzero;fill:url(#linear0);" d="M 32 4 C 47.464844 4 60 16.535156 60 32 C 60 47.464844 47.464844 60 32 60 C 16.535156 60 4 47.464844 4 32 C 4 16.535156 16.535156 4 32 4 Z M 32 4 "/>
</g>
</svg>
