
<svg xmlns="http://www.w3.org/2000/svg" xmlns:xlink="http://www.w3.org/1999/xlink" width="48" height="48" viewBox="0 0 48 48" version="1.1">
<defs>
<linearGradient id="linear0" gradientUnits="userSpaceOnUse" x1="8.466666" y1="-199.125" x2="8.466666" y2="-213.941666" gradientTransform="matrix(2.834646,0,0,2.834646,0,609.448851)">
<stop offset="0" style="stop-color:rgb(0%,0%,0%);stop-opacity:0.2;"/>
<stop offset="1" style="stop-color:rgb(100%,100%,100%);stop-opacity:0;"/>
</linearGradient>
</defs>
<g id="surface1">
<path style=" stroke:none;fill-rule:nonzero;fill:rgb(100%,65.490198%,14.901961%);fill-opacity:1;" d="M 24 2.996094 C 35.601562 2.996094 45.003906 12.398438 45.003906 24 C 45.003906 35.597656 35.601562 45.003906 24 45.003906 C 12.398438 45.003906 2.996094 35.597656 2.996094 24 C 2.996094 12.398438 12.398438 2.996094 24 2.996094 Z M 24 2.996094 "/>
<path style=" stroke:none;fill-rule:nonzero;fill:rgb(100%,100%,100%);fill-opacity:0.4;" d="M 24 3 C 12.402344 3 3 12.402344 3 24 C 3 24.125 3.003906 24.25 3.007812 24.375 C 3.207031 12.949219 12.527344 3.75 24 3.75 C 35.472656 3.75 44.792969 12.949219 44.996094 24.375 C 44.996094 24.25 45 24.125 45 24 C 45 12.402344 35.597656 3 24 3 Z M 24 3 "/>
<path style=" stroke:none;fill-rule:nonzero;fill:rgb(0%,0%,0%);fill-opacity:0.4;" d="M 3.011719 23.621094 C 3.007812 23.742188 3 23.867188 3 23.992188 C 3 35.589844 12.402344 44.992188 24 44.992188 C 35.597656 44.992188 45 35.589844 45 23.992188 C 45 23.867188 44.992188 23.742188 44.988281 23.621094 C 44.789062 35.042969 35.472656 44.246094 24 44.246094 C 12.527344 44.246094 3.210938 35.042969 3.011719 23.621094 Z M 3.011719 23.621094 "/>
<path style=" stroke:none;fill-rule:nonzero;fill:rgb(0%,0%,0%);fill-opacity:0.2;" d="M 3.011719 24.5625 C 3.003906 24.75 3 24.9375 3 25.125 C 3 36.722656 12.402344 46.125 24 46.125 C 35.597656 46.125 45 36.722656 45 25.125 C 45 24.9375 44.996094 24.75 44.988281 24.5625 C 44.691406 35.898438 35.410156 44.996094 24 44.996094 C 12.589844 44.996094 3.308594 35.898438 3.011719 24.5625 Z M 3.011719 24.5625 "/>
<path style=" stroke:none;fill-rule:nonzero;fill:rgb(38.039216%,38.039216%,38.039216%);fill-opacity:1;" d="M 15.75 15 C 17.820312 15 19.5 16.679688 19.5 18.75 C 19.5 20.820312 17.820312 22.5 15.75 22.5 C 13.679688 22.5 12 20.820312 12 18.75 C 12 16.679688 13.679688 15 15.75 15 Z M 15.75 15 "/>
<path style=" stroke:none;fill-rule:nonzero;fill:rgb(38.039216%,38.039216%,38.039216%);fill-opacity:1;" d="M 32.25 15 C 34.320312 15 36 16.679688 36 18.75 C 36 20.820312 34.320312 22.5 32.25 22.5 C 30.179688 22.5 28.5 20.820312 28.5 18.75 C 28.5 16.679688 30.179688 15 32.25 15 Z M 32.25 15 "/>
<path style=" stroke:none;fill-rule:nonzero;fill:rgb(38.039216%,38.039216%,38.039216%);fill-opacity:1;" d="M 15.691406 30 C 14.472656 30.03125 13.5 31.023438 13.5 32.25 C 13.5 33.046875 13.910156 33.746094 14.535156 34.148438 C 14.539062 34.148438 14.542969 34.152344 14.546875 34.152344 C 20.40625 38.28125 27.605469 38.277344 33.464844 34.148438 C 33.464844 34.144531 33.46875 34.144531 33.46875 34.144531 C 33.5 34.121094 33.527344 34.101562 33.558594 34.082031 C 34.128906 33.675781 34.5 33.007812 34.5 32.25 C 34.5 31.003906 33.496094 30 32.25 30 C 31.738281 30 31.269531 30.167969 30.890625 30.453125 C 26.332031 33.6875 21.660156 33.683594 17.097656 30.445312 C 17.085938 30.4375 17.070312 30.425781 17.058594 30.417969 C 16.691406 30.15625 16.238281 30 15.75 30 C 15.730469 30 15.710938 30 15.691406 30 Z M 15.691406 30 "/>
<path style=" stroke:none;fill-rule:nonzero;fill:rgb(100%,100%,100%);fill-opacity:0.4;" d="M 15.75 15 C 13.671875 15 12 16.671875 12 18.75 C 12 18.875 12.003906 19 12.019531 19.125 C 12.203125 17.226562 13.800781 15.75 15.75 15.75 C 17.699219 15.75 19.296875 17.226562 19.480469 19.125 C 19.496094 19 19.5 18.875 19.5 18.75 C 19.5 16.671875 17.828125 15 15.75 15 Z M 15.75 15 "/>
<path style=" stroke:none;fill-rule:nonzero;fill:rgb(100%,100%,100%);fill-opacity:0.4;" d="M 32.25 15 C 30.171875 15 28.5 16.671875 28.5 18.75 C 28.5 18.875 28.503906 19 28.519531 19.125 C 28.703125 17.226562 30.300781 15.75 32.25 15.75 C 34.199219 15.75 35.796875 17.226562 35.980469 19.125 C 35.996094 19 36 18.875 36 18.75 C 36 16.671875 34.328125 15 32.25 15 Z M 32.25 15 "/>
<path style=" stroke:none;fill-rule:nonzero;fill:rgb(6.666667%,6.666667%,6.666667%);fill-opacity:0.4;" d="M 15.75 23.25 C 13.671875 23.25 12 21.578125 12 19.5 C 12 19.375 12.003906 19.25 12.015625 19.125 C 12.203125 21.023438 13.800781 22.5 15.75 22.5 C 17.699219 22.5 19.296875 21.023438 19.480469 19.125 C 19.496094 19.25 19.5 19.375 19.5 19.5 C 19.5 21.578125 17.828125 23.25 15.75 23.25 Z M 15.75 23.25 "/>
<path style=" stroke:none;fill-rule:nonzero;fill:rgb(6.666667%,6.666667%,6.666667%);fill-opacity:0.4;" d="M 32.25 23.25 C 30.171875 23.25 28.5 21.578125 28.5 19.5 C 28.5 19.375 28.503906 19.25 28.515625 19.125 C 28.703125 21.023438 30.300781 22.5 32.25 22.5 C 34.199219 22.5 35.796875 21.023438 35.980469 19.125 C 35.996094 19.25 36 19.375 36 19.5 C 36 21.578125 34.328125 23.25 32.25 23.25 Z M 32.25 23.25 "/>
<path style=" stroke:none;fill-rule:nonzero;fill:rgb(100%,100%,100%);fill-opacity:0.4;" d="M 15.691406 30 C 14.472656 30.03125 13.5 31.023438 13.5 32.25 C 13.5 32.371094 13.511719 32.492188 13.53125 32.605469 C 13.707031 31.558594 14.597656 30.761719 15.691406 30.734375 L 15.691406 30.730469 C 15.710938 30.730469 15.730469 30.730469 15.75 30.730469 C 16.238281 30.730469 16.691406 30.886719 17.058594 31.148438 C 17.070312 31.160156 17.085938 31.167969 17.097656 31.175781 C 21.660156 34.414062 26.332031 34.417969 30.890625 31.183594 C 31.269531 30.898438 31.738281 30.730469 32.25 30.730469 C 33.367188 30.730469 34.289062 31.539062 34.46875 32.605469 C 34.488281 32.492188 34.5 32.371094 34.5 32.25 C 34.5 31.003906 33.496094 30 32.25 30 C 31.738281 30 31.269531 30.167969 30.890625 30.453125 C 26.332031 33.6875 21.660156 33.683594 17.097656 30.445312 C 17.085938 30.4375 17.070312 30.425781 17.058594 30.417969 C 16.691406 30.15625 16.238281 30 15.75 30 C 15.730469 30 15.710938 30 15.691406 30 Z M 15.691406 30 "/>
<path style=" stroke:none;fill-rule:nonzero;fill:rgb(0%,0%,0%);fill-opacity:0.4;" d="M 13.527344 32.609375 C 13.511719 32.726562 13.5 32.847656 13.5 32.972656 C 13.5 33.769531 13.910156 34.46875 14.535156 34.867188 C 14.539062 34.871094 14.542969 34.871094 14.546875 34.875 C 20.40625 39 27.605469 39 33.464844 34.867188 C 33.464844 34.867188 33.46875 34.863281 33.46875 34.863281 C 33.5 34.84375 33.527344 34.820312 33.558594 34.800781 C 34.128906 34.394531 34.5 33.726562 34.5 32.96875 C 34.5 32.847656 34.488281 32.726562 34.472656 32.609375 C 34.375 33.21875 34.035156 33.746094 33.558594 34.085938 C 33.527344 34.105469 33.5 34.128906 33.46875 34.148438 C 33.46875 34.148438 33.464844 34.152344 33.464844 34.152344 C 27.605469 38.285156 20.40625 38.285156 14.546875 34.160156 C 14.542969 34.15625 14.539062 34.15625 14.535156 34.152344 C 14.007812 33.8125 13.632812 33.257812 13.527344 32.609375 Z M 13.527344 32.609375 "/>
<path style=" stroke:none;fill-rule:nonzero;fill:url(#linear0);" d="M 24 3 C 35.597656 3 45 12.402344 45 24 C 45 35.597656 35.597656 44.996094 24 44.996094 C 12.402344 44.996094 3 35.597656 3 24 C 3 12.402344 12.402344 3 24 3 Z M 24 3 "/>
</g>
</svg>
