
<svg xmlns="http://www.w3.org/2000/svg" xmlns:xlink="http://www.w3.org/1999/xlink" width="32" height="32" viewBox="0 0 32 32" version="1.1">
<defs>
<linearGradient id="linear0" gradientUnits="userSpaceOnUse" x1="8.466666" y1="-199.125" x2="8.466666" y2="-213.941666" gradientTransform="matrix(1.889764,0,0,1.889764,0,406.299234)">
<stop offset="0" style="stop-color:rgb(0%,0%,0%);stop-opacity:0.2;"/>
<stop offset="1" style="stop-color:rgb(100%,100%,100%);stop-opacity:0;"/>
</linearGradient>
</defs>
<g id="surface1">
<path style=" stroke:none;fill-rule:nonzero;fill:rgb(49.411765%,34.117648%,76.078433%);fill-opacity:1;" d="M 28 30 C 29.109375 30 30 29.109375 30 28 L 30 16 L 16 16 L 16 30 Z M 28 30 "/>
<path style=" stroke:none;fill-rule:nonzero;fill:rgb(100%,65.490198%,14.901961%);fill-opacity:1;" d="M 4 30 C 2.890625 30 2 29.109375 2 28 L 2 16 L 16 16 L 16 30 Z M 4 30 "/>
<path style=" stroke:none;fill-rule:nonzero;fill:rgb(25.882354%,64.705884%,96.078432%);fill-opacity:1;" d="M 28 2 C 29.109375 2 30 2.890625 30 4 L 30 16 L 16 16 L 16 2 Z M 28 2 "/>
<path style=" stroke:none;fill-rule:nonzero;fill:rgb(92.54902%,25.098041%,47.843137%);fill-opacity:1;" d="M 4 2 C 2.890625 2 2 2.890625 2 4 L 2 16 L 16 16 L 16 2 Z M 4 2 "/>
<path style=" stroke:none;fill-rule:nonzero;fill:rgb(38.039216%,38.039216%,38.039216%);fill-opacity:1;" d="M 7 6 L 25 6 C 25.550781 6 26 6.449219 26 7 L 26 25 C 26 25.550781 25.550781 26 25 26 L 7 26 C 6.449219 26 6 25.550781 6 25 L 6 7 C 6 6.449219 6.449219 6 7 6 Z M 7 6 "/>
<path style=" stroke:none;fill-rule:nonzero;fill:rgb(100%,100%,100%);fill-opacity:0.4;" d="M 7 6 C 6.445312 6 6 6.445312 6 7 L 6 7.5 C 6 6.945312 6.445312 6.5 7 6.5 L 25 6.5 C 25.554688 6.5 26 6.945312 26 7.5 L 26 7 C 26 6.445312 25.554688 6 25 6 Z M 7 6 "/>
<path style=" stroke:none;fill-rule:nonzero;fill:rgb(0.784314%,0.784314%,0.784314%);fill-opacity:0.4;" d="M 7 26.5 C 6.445312 26.5 6 26.054688 6 25.5 L 6 25 C 6 25.554688 6.445312 26 7 26 L 25 26 C 25.554688 26 26 25.554688 26 25 L 26 25.5 C 26 26.054688 25.554688 26.5 25 26.5 Z M 7 26.5 "/>
<path style=" stroke:none;fill-rule:nonzero;fill:rgb(100%,100%,100%);fill-opacity:0.4;" d="M 4 2 C 2.890625 2 2 2.890625 2 4 L 2 4.5 C 2 3.390625 2.890625 2.5 4 2.5 L 28 2.5 C 29.109375 2.5 30 3.390625 30 4.5 L 30 4 C 30 2.890625 29.109375 2 28 2 Z M 4 2 "/>
<path style=" stroke:none;fill-rule:nonzero;fill:rgb(0%,0%,0%);fill-opacity:0.4;" d="M 4 30 C 2.890625 30 2 29.109375 2 28 L 2 27.5 C 2 28.609375 2.890625 29.5 4 29.5 L 28 29.5 C 29.109375 29.5 30 28.609375 30 27.5 L 30 28 C 30 29.109375 29.109375 30 28 30 Z M 4 30 "/>
<path style=" stroke:none;fill-rule:nonzero;fill:rgb(0%,0%,0%);fill-opacity:0.2;" d="M 2 28 L 2 28.75 C 2 29.859375 2.890625 30.75 4 30.75 L 28 30.75 C 29.109375 30.75 30 29.859375 30 28.75 L 30 28 C 30 29.109375 29.109375 30 28 30 L 4 30 C 2.890625 30 2 29.109375 2 28 Z M 2 28 "/>
<path style=" stroke:none;fill-rule:nonzero;fill:rgb(93.333334%,93.333334%,93.333334%);fill-opacity:1;" d="M 11.5 11 L 12.5 11 C 12.777344 11 13 11.222656 13 11.5 L 13 20.5 C 13 20.777344 12.777344 21 12.5 21 L 11.5 21 C 11.222656 21 11 20.777344 11 20.5 L 11 11.5 C 11 11.222656 11.222656 11 11.5 11 Z M 11.5 11 "/>
<path style=" stroke:none;fill-rule:nonzero;fill:rgb(93.333334%,93.333334%,93.333334%);fill-opacity:1;" d="M 19.5 11 C 19.222656 11 19 11.222656 19 11.5 L 19 18 C 19 18.554688 18.554688 19 18 19 C 17.445312 19 17 18.554688 17 18 C 17 17.722656 16.777344 17.5 16.5 17.5 L 15.5 17.5 C 15.496094 17.5 15.492188 17.5 15.488281 17.5 C 15.214844 17.507812 15 17.726562 15 18 L 15 18.5 C 15 19.886719 16.339844 21 18 21 C 19.660156 21 21 19.886719 21 18.5 L 21 11.5 C 21 11.222656 20.777344 11 20.5 11 Z M 19.5 11 "/>
<path style=" stroke:none;fill-rule:nonzero;fill:rgb(100%,100%,100%);fill-opacity:0.6;" d="M 11.5 11 C 11.222656 11 11 11.222656 11 11.5 L 11 12 C 11 11.722656 11.222656 11.5 11.5 11.5 L 12.5 11.5 C 12.777344 11.5 13 11.722656 13 12 L 13 11.5 C 13 11.222656 12.777344 11 12.5 11 Z M 11.5 11 "/>
<path style=" stroke:none;fill-rule:nonzero;fill:rgb(100%,100%,100%);fill-opacity:0.6;" d="M 19.5 11 C 19.222656 11 19 11.222656 19 11.5 L 19 12 C 19 11.722656 19.222656 11.5 19.5 11.5 L 20.5 11.5 C 20.777344 11.5 21 11.722656 21 12 L 21 11.5 C 21 11.222656 20.777344 11 20.5 11 Z M 15.488281 17.5 C 15.214844 17.507812 15 17.726562 15 18 L 15 18.5 C 15 18.226562 15.214844 18.007812 15.488281 18 C 15.492188 18 15.496094 18 15.5 18 L 16.5 18 C 16.777344 18 17 18.222656 17 18.5 C 17 19.054688 17.445312 19.5 18 19.5 C 18.554688 19.5 19 19.054688 19 18.5 L 19 18 C 19 18.554688 18.554688 19 18 19 C 17.445312 19 17 18.554688 17 18 C 17 17.722656 16.777344 17.5 16.5 17.5 L 15.5 17.5 C 15.496094 17.5 15.492188 17.5 15.488281 17.5 Z M 15.488281 17.5 "/>
<path style=" stroke:none;fill-rule:nonzero;fill:rgb(0.784314%,0.784314%,0.784314%);fill-opacity:0.4;" d="M 11.5 21.5 C 11.222656 21.5 11 21.277344 11 21 L 11 20.5 C 11 20.777344 11.222656 21 11.5 21 L 12.5 21 C 12.777344 21 13 20.777344 13 20.5 L 13 21 C 13 21.277344 12.777344 21.5 12.5 21.5 Z M 11.5 21.5 "/>
<path style=" stroke:none;fill-rule:nonzero;fill:rgb(0%,0%,0%);fill-opacity:0.4;" d="M 15 18.5 L 15 18.992188 C 15 20.378906 16.339844 21.492188 18 21.492188 C 19.660156 21.492188 21 20.378906 21 18.992188 L 21 18.5 C 21 19.886719 19.660156 21 18 21 C 16.339844 21 15 19.886719 15 18.5 Z M 15 18.5 "/>
<path style=" stroke:none;fill-rule:nonzero;fill:url(#linear0);" d="M 4 2 L 28 2 C 29.105469 2 30 2.894531 30 4 L 30 28 C 30 29.105469 29.105469 30 28 30 L 4 30 C 2.894531 30 2 29.105469 2 28 L 2 4 C 2 2.894531 2.894531 2 4 2 Z M 4 2 "/>
</g>
</svg>
