
<svg xmlns="http://www.w3.org/2000/svg" xmlns:xlink="http://www.w3.org/1999/xlink" width="32" height="32" viewBox="0 0 32 32" version="1.1">
<defs>
<linearGradient id="linear0" gradientUnits="userSpaceOnUse" x1="15.999999" y1="24" x2="48" y2="24" gradientTransform="matrix(0.5,0,0,0.5,-0.0761727,0)">
<stop offset="0" style="stop-color:rgb(100%,100%,100%);stop-opacity:0;"/>
<stop offset="1" style="stop-color:rgb(0%,0%,0%);stop-opacity:0.2;"/>
</linearGradient>
<linearGradient id="linear1" gradientUnits="userSpaceOnUse" x1="32" y1="59.999996" x2="31.999998" y2="3.999999" gradientTransform="matrix(0.5,0,0,0.5,-0.225586,0.0000288355)">
<stop offset="0" style="stop-color:rgb(0%,0%,0%);stop-opacity:0.2;"/>
<stop offset="1" style="stop-color:rgb(100%,100%,100%);stop-opacity:0;"/>
</linearGradient>
</defs>
<g id="surface1">
<path style=" stroke:none;fill-rule:nonzero;fill:rgb(25.882354%,64.705884%,96.078432%);fill-opacity:0.4;" d="M 16.511719 17.960938 C 16.402344 17.972656 16.292969 17.980469 16.183594 17.988281 C 16.292969 17.980469 16.402344 17.972656 16.511719 17.960938 Z M 15.042969 17.964844 C 15.160156 17.976562 15.28125 17.984375 15.402344 17.992188 C 15.28125 17.984375 15.160156 17.976562 15.042969 17.964844 Z M 15.402344 17.992188 C 15.523438 17.996094 15.644531 18 15.769531 18 C 15.644531 18 15.523438 17.996094 15.402344 17.992188 Z M 15.769531 18 C 15.886719 18 16.007812 17.996094 16.125 17.992188 C 16.007812 17.996094 15.886719 18 15.769531 18 Z M 15.074219 19.015625 C 15.078125 22.398438 14.136719 25.234375 14.65625 27.527344 C 15.023438 27.511719 15.402344 27.5 15.785156 27.5 C 16.171875 27.5 16.550781 27.511719 16.917969 27.527344 C 17.441406 25.234375 16.496094 22.398438 16.5 19.015625 C 16.289062 19.089844 16.046875 19.128906 15.785156 19.128906 C 15.527344 19.128906 15.285156 19.089844 15.074219 19.015625 Z M 15.074219 19.015625 "/>
<path style=" stroke:none;fill-rule:nonzero;fill:rgb(56.470591%,79.215688%,97.647059%);fill-opacity:0.4;" d="M 15.789062 27.5 C 11.910156 27.5 8.789062 28.390625 8.789062 29.5 C 8.789062 29.777344 9.011719 30 9.289062 30 L 22.289062 30 C 22.5625 30 22.789062 29.777344 22.789062 29.5 C 22.789062 28.390625 19.664062 27.5 15.789062 27.5 Z M 15.789062 27.5 "/>
<path style=" stroke:none;fill-rule:nonzero;fill:rgb(56.470591%,79.215688%,97.647059%);fill-opacity:0.4;" d="M 17.242188 17.855469 C 16.761719 17.949219 16.269531 18 15.769531 18 C 15.277344 18 14.796875 17.953125 14.332031 17.859375 C 14.300781 17.9375 14.289062 18.015625 14.289062 18.09375 L 14.289062 18.164062 C 14.289062 18.699219 14.957031 19.128906 15.789062 19.128906 C 16.617188 19.128906 17.289062 18.699219 17.289062 18.164062 L 17.289062 18.09375 C 17.289062 18.011719 17.269531 17.929688 17.242188 17.855469 Z M 17.242188 17.855469 "/>
<path style=" stroke:none;fill-rule:nonzero;fill:rgb(89.019608%,94.901961%,99.215686%);fill-opacity:0.4;" d="M 15.1875 19.050781 C 15.535156 22.523438 14.355469 25.339844 15.035156 27.5 L 16.535156 27.5 C 17.21875 25.339844 16.039062 22.523438 16.386719 19.050781 C 16.203125 19.101562 16 19.128906 15.785156 19.128906 C 15.574219 19.128906 15.371094 19.101562 15.1875 19.050781 Z M 15.1875 19.050781 "/>
<path style=" stroke:none;fill-rule:nonzero;fill:rgb(100%,100%,100%);fill-opacity:0.8;" d="M 15.191406 19.050781 C 15.464844 22.457031 14.371094 25.390625 15.039062 27.5 C 16.160156 27.5 15.332031 23.117188 15.648438 19.125 C 15.484375 19.117188 15.332031 19.089844 15.191406 19.050781 Z M 15.191406 19.050781 "/>
<path style=" stroke:none;fill-rule:nonzero;fill:rgb(89.019608%,94.901961%,99.215686%);fill-opacity:0.4;" d="M 14.546875 18.019531 C 14.539062 18.046875 14.535156 18.074219 14.535156 18.101562 L 14.535156 18.15625 C 14.535156 18.558594 15.09375 18.878906 15.785156 18.878906 C 16.480469 18.878906 17.035156 18.558594 17.035156 18.15625 L 17.035156 18.101562 C 17.035156 18.074219 17.035156 18.046875 17.027344 18.019531 C 16.621094 18.113281 16.207031 18.160156 15.785156 18.160156 C 15.367188 18.160156 14.953125 18.113281 14.546875 18.019531 Z M 14.546875 18.019531 "/>
<path style=" stroke:none;fill-rule:nonzero;fill:rgb(0%,0%,0%);fill-opacity:0.4;" d="M 15.035156 19 C 15.042969 19.085938 15.046875 19.171875 15.050781 19.257812 C 15.269531 19.335938 15.519531 19.378906 15.789062 19.378906 C 16.054688 19.378906 16.304688 19.335938 16.523438 19.257812 C 16.527344 19.171875 16.53125 19.085938 16.539062 19 C 16.316406 19.082031 16.0625 19.128906 15.789062 19.128906 C 15.511719 19.128906 15.257812 19.082031 15.035156 19 Z M 15.035156 19 "/>
<path style=" stroke:none;fill-rule:nonzero;fill:rgb(100%,100%,100%);fill-opacity:0.4;" d="M 15.789062 27.5 C 11.910156 27.5 8.789062 28.390625 8.789062 29.5 C 8.789062 29.542969 8.792969 29.582031 8.800781 29.621094 C 9.035156 28.574219 12.0625 27.75 15.789062 27.75 C 19.511719 27.75 22.539062 28.574219 22.773438 29.621094 C 22.78125 29.582031 22.789062 29.542969 22.789062 29.5 C 22.789062 28.390625 19.664062 27.5 15.789062 27.5 Z M 15.789062 27.5 "/>
<path style=" stroke:none;fill-rule:nonzero;fill:rgb(0%,0%,0%);fill-opacity:0.2;" d="M 8.929688 29.847656 C 8.835938 29.976562 8.789062 30.113281 8.789062 30.25 C 8.789062 30.527344 9.011719 30.75 9.289062 30.75 L 22.289062 30.75 C 22.5625 30.75 22.789062 30.527344 22.789062 30.25 C 22.789062 30.113281 22.738281 29.976562 22.648438 29.847656 C 22.554688 29.941406 22.429688 30 22.289062 30 L 9.289062 30 C 9.144531 30 9.019531 29.941406 8.929688 29.847656 Z M 8.929688 29.847656 "/>
<path style=" stroke:none;fill-rule:nonzero;fill:rgb(0%,0%,0%);fill-opacity:0.4;" d="M 8.847656 29.238281 C 8.808594 29.324219 8.789062 29.410156 8.789062 29.5 C 8.789062 29.777344 9.011719 30 9.289062 30 L 22.289062 30 C 22.5625 30 22.789062 29.777344 22.789062 29.5 C 22.789062 29.410156 22.765625 29.324219 22.726562 29.238281 C 22.644531 29.394531 22.476562 29.5 22.289062 29.5 L 9.289062 29.5 C 9.097656 29.5 8.929688 29.394531 8.847656 29.238281 Z M 8.847656 29.238281 "/>
<path style=" stroke:none;fill-rule:nonzero;fill:rgb(56.470591%,79.215688%,97.647059%);fill-opacity:0.4;" d="M 7.742188 2 C 7.121094 3.5 6.769531 5.195312 6.769531 7 C 6.769531 13.09375 10.78125 18 15.769531 18 C 20.753906 18 24.765625 13.09375 24.765625 7 C 24.765625 5.195312 24.414062 3.5 23.792969 2 Z M 7.742188 2 "/>
<path style=" stroke:none;fill-rule:nonzero;fill:rgb(40.000001%,73.333335%,41.568628%);fill-opacity:0.8;" d="M 7.765625 7 C 7.765625 12.65625 11.4375 17 15.769531 17 C 20.097656 17 23.765625 12.65625 23.765625 7 Z M 7.765625 7 "/>
<path style=" stroke:none;fill-rule:nonzero;fill:url(#linear0);" d="M 7.921875 7 C 7.921875 12.65625 11.59375 17 15.921875 17 C 20.253906 17 23.921875 12.65625 23.921875 7 Z M 7.921875 7 "/>
<path style=" stroke:none;fill-rule:nonzero;fill:rgb(100%,100%,100%);fill-opacity:0.2;" d="M 8.832031 7 L 8.832031 7.332031 C 8.832031 11.632812 11.28125 15.058594 14.417969 15.835938 C 12.214844 13.832031 10.792969 10.628906 10.792969 7 Z M 8.832031 7 "/>
<path style=" stroke:none;fill-rule:nonzero;fill:rgb(100%,100%,100%);fill-opacity:0.2;" d="M 9.753906 3 C 9.167969 4.144531 8.835938 5.476562 8.832031 6.902344 L 8.832031 7 L 10.792969 7 C 10.792969 5.585938 11.007812 4.238281 11.402344 3 Z M 9.753906 3 "/>
<path style=" stroke:none;fill-rule:nonzero;fill:rgb(100%,100%,100%);fill-opacity:0.6;" d="M 8.976562 7 C 9.015625 9 9.765625 12 11.265625 13 C 10.515625 11.75 10.015625 8.933594 10.015625 7 Z M 8.976562 7 "/>
<path style=" stroke:none;fill-rule:nonzero;fill:rgb(100%,100%,100%);fill-opacity:0.6;" d="M 9.464844 4.871094 C 9.152344 5.480469 8.976562 6.1875 8.976562 6.945312 L 8.976562 7 L 10.015625 7 C 10.015625 6.246094 10.132812 5.53125 10.34375 4.871094 Z M 9.464844 4.871094 "/>
<path style=" stroke:none;fill-rule:nonzero;fill:rgb(0%,0%,0%);fill-opacity:0.4;" d="M 6.769531 6.921875 C 6.769531 6.945312 6.769531 6.972656 6.769531 7 C 6.769531 13.09375 10.78125 18 15.769531 18 C 20.753906 18 24.769531 13.09375 24.769531 7 C 24.769531 6.972656 24.765625 6.945312 24.765625 6.921875 C 24.6875 12.929688 20.707031 17.742188 15.769531 17.742188 C 10.832031 17.742188 6.847656 12.929688 6.769531 6.921875 Z M 6.769531 6.921875 "/>
<path style=" stroke:none;fill-rule:nonzero;fill:rgb(100%,100%,100%);fill-opacity:0.4;" d="M 7.96875 2 C 7.34375 3.5 6.992188 5.195312 6.992188 7 C 6.992188 7.089844 6.996094 7.175781 6.996094 7.265625 C 7.023438 5.550781 7.371094 3.933594 7.96875 2.5 L 24.015625 2.5 C 24.613281 3.933594 24.960938 5.550781 24.988281 7.265625 C 24.992188 7.175781 24.992188 7.089844 24.992188 7 C 24.992188 5.195312 24.640625 3.5 24.019531 2 Z M 7.96875 2 "/>
<path style=" stroke:none;fill-rule:nonzero;fill:rgb(0%,0%,0%);fill-opacity:0.4;" d="M 17.242188 17.855469 C 16.761719 17.949219 16.269531 18 15.769531 18 C 15.277344 18 14.796875 17.953125 14.332031 17.859375 C 14.300781 17.9375 14.289062 18.015625 14.289062 18.09375 L 14.289062 18.109375 C 14.769531 18.207031 15.261719 18.257812 15.769531 18.257812 C 16.285156 18.257812 16.792969 18.203125 17.289062 18.101562 L 17.289062 18.09375 C 17.289062 18.011719 17.269531 17.929688 17.242188 17.851562 Z M 17.242188 17.855469 "/>
<path style=" stroke:none;fill-rule:nonzero;fill:rgb(0.392157%,0.392157%,0.392157%);fill-opacity:0.0509804;" d="M 22.171875 2 C 22.851562 3.324219 23.238281 4.859375 23.238281 6.5 L 23.238281 7 C 23.238281 12.082031 20.273438 16.105469 16.527344 16.867188 C 16.441406 16.914062 16.355469 16.957031 16.265625 17 C 20.582031 16.980469 24.238281 12.644531 24.238281 7 L 24.238281 6.5 C 24.238281 4.859375 23.851562 3.320312 23.171875 2 Z M 22.171875 2 "/>
<path style=" stroke:none;fill-rule:nonzero;fill:rgb(100%,100%,100%);fill-opacity:0.8;" d="M 10.265625 29 C 10.765625 29.5 12.515625 28 14.765625 28.25 C 15.015625 27.5 9.515625 28.5 10.265625 29 Z M 10.265625 29 "/>
<path style=" stroke:none;fill-rule:nonzero;fill:url(#linear1);" d="M 7.75 2 C 7.136719 3.476562 6.785156 5.148438 6.777344 6.921875 C 6.777344 6.945312 6.773438 6.972656 6.773438 7 C 6.773438 12.496094 10.039062 17.023438 14.339844 17.859375 C 14.339844 17.859375 14.339844 17.863281 14.339844 17.863281 C 14.324219 17.898438 14.3125 17.933594 14.304688 17.972656 C 14.304688 17.976562 14.304688 17.984375 14.300781 17.988281 C 14.296875 18.015625 14.296875 18.042969 14.292969 18.070312 C 14.292969 18.078125 14.292969 18.085938 14.292969 18.09375 L 14.292969 18.164062 C 14.292969 18.523438 14.59375 18.832031 15.042969 19 C 15.050781 19.085938 15.054688 19.171875 15.058594 19.253906 C 15.066406 19.257812 15.074219 19.261719 15.082031 19.261719 C 15.039062 22.535156 14.15625 25.289062 14.664062 27.523438 C 11.492188 27.671875 9.046875 28.421875 8.8125 29.351562 C 8.808594 29.363281 8.808594 29.371094 8.804688 29.382812 C 8.804688 29.386719 8.804688 29.394531 8.800781 29.398438 C 8.800781 29.410156 8.800781 29.421875 8.796875 29.433594 C 8.796875 29.441406 8.796875 29.453125 8.792969 29.460938 C 8.792969 29.472656 8.792969 29.484375 8.792969 29.5 C 8.792969 29.515625 8.796875 29.535156 8.796875 29.550781 C 8.796875 29.558594 8.800781 29.5625 8.800781 29.570312 C 8.800781 29.585938 8.804688 29.601562 8.808594 29.617188 C 8.863281 29.835938 9.058594 30 9.292969 30 L 22.292969 30 C 22.53125 30 22.726562 29.835938 22.78125 29.617188 C 22.785156 29.601562 22.785156 29.582031 22.789062 29.566406 C 22.789062 29.5625 22.789062 29.554688 22.789062 29.550781 C 22.789062 29.550781 22.789062 29.546875 22.789062 29.546875 C 22.792969 29.53125 22.792969 29.515625 22.792969 29.5 C 22.792969 29.488281 22.792969 29.476562 22.792969 29.464844 C 22.792969 29.464844 22.792969 29.460938 22.792969 29.460938 C 22.792969 29.449219 22.792969 29.441406 22.789062 29.433594 C 22.789062 29.421875 22.785156 29.410156 22.785156 29.398438 C 22.785156 29.394531 22.785156 29.386719 22.78125 29.382812 C 22.78125 29.367188 22.777344 29.355469 22.773438 29.34375 C 22.773438 29.339844 22.769531 29.335938 22.769531 29.332031 C 22.765625 29.320312 22.761719 29.304688 22.757812 29.292969 C 22.699219 29.125 22.566406 28.960938 22.371094 28.808594 C 22.351562 28.792969 22.332031 28.777344 22.308594 28.761719 C 22.289062 28.75 22.269531 28.734375 22.246094 28.71875 C 22.222656 28.703125 22.199219 28.6875 22.175781 28.671875 C 22.109375 28.628906 22.03125 28.585938 21.949219 28.542969 C 21.925781 28.53125 21.898438 28.515625 21.867188 28.5 C 21.28125 28.207031 20.4375 27.960938 19.429688 27.785156 C 18.675781 27.65625 17.828125 27.566406 16.925781 27.523438 C 17.433594 25.289062 16.546875 22.535156 16.507812 19.261719 C 16.515625 19.261719 16.523438 19.257812 16.527344 19.253906 C 16.535156 19.171875 16.539062 19.085938 16.542969 19 C 16.992188 18.832031 17.292969 18.523438 17.292969 18.164062 L 17.292969 18.09375 C 17.292969 18.074219 17.292969 18.058594 17.292969 18.042969 C 17.292969 18.039062 17.292969 18.035156 17.289062 18.03125 C 17.289062 18.011719 17.285156 17.988281 17.28125 17.96875 C 17.28125 17.960938 17.277344 17.953125 17.277344 17.945312 C 17.273438 17.9375 17.273438 17.929688 17.269531 17.921875 C 17.269531 17.917969 17.269531 17.914062 17.265625 17.910156 C 17.265625 17.90625 17.265625 17.902344 17.261719 17.898438 C 17.257812 17.882812 17.253906 17.867188 17.246094 17.851562 C 17.363281 17.828125 17.476562 17.804688 17.59375 17.773438 C 17.738281 17.738281 17.882812 17.699219 18.027344 17.652344 C 21.917969 16.4375 24.773438 12.140625 24.773438 6.996094 C 24.773438 6.972656 24.773438 6.945312 24.773438 6.917969 C 24.761719 5.339844 24.484375 3.847656 23.992188 2.496094 L 24.023438 2.496094 C 24.621094 3.929688 24.96875 5.546875 24.996094 7.261719 C 25 7.175781 25 7.085938 25 6.996094 C 25 5.195312 24.648438 3.496094 24.023438 1.996094 L 23.796875 1.996094 Z M 7.75 2 "/>
<path style=" stroke:none;fill-rule:nonzero;fill:rgb(89.019608%,94.901961%,99.215686%);fill-opacity:0.4;" d="M 15.65625 27.941406 C 12.523438 27.941406 10.003906 28.519531 10.003906 29.234375 C 10.003906 29.414062 10.183594 29.558594 10.40625 29.558594 L 20.902344 29.558594 C 21.125 29.558594 21.304688 29.414062 21.304688 29.234375 C 21.304688 28.519531 18.785156 27.941406 15.65625 27.941406 Z M 15.65625 27.941406 "/>
</g>
</svg>
