
<svg xmlns="http://www.w3.org/2000/svg" xmlns:xlink="http://www.w3.org/1999/xlink" width="48" height="48" viewBox="0 0 48 48" version="1.1">
<defs>
<linearGradient id="linear0" gradientUnits="userSpaceOnUse" x1="8.466666" y1="-199.125" x2="8.466666" y2="-213.941666" gradientTransform="matrix(2.834646,0,0,2.834646,0,609.448851)">
<stop offset="0" style="stop-color:rgb(0%,0%,0%);stop-opacity:0.2;"/>
<stop offset="1" style="stop-color:rgb(100%,100%,100%);stop-opacity:0;"/>
</linearGradient>
<linearGradient id="linear1" gradientUnits="userSpaceOnUse" x1="8.466666" y1="-199.125" x2="8.466666" y2="-213.941666" gradientTransform="matrix(2.834646,0,0,2.834646,0,609.448851)">
<stop offset="0" style="stop-color:rgb(0%,0%,0%);stop-opacity:0.2;"/>
<stop offset="1" style="stop-color:rgb(100%,100%,100%);stop-opacity:0;"/>
</linearGradient>
<linearGradient id="linear2" gradientUnits="userSpaceOnUse" x1="5.55114" y1="-199.12381" x2="20.367807" y2="-199.12381" gradientTransform="matrix(0,-2.834646,-2.834646,0,-540.445494,60.735539)">
<stop offset="0" style="stop-color:rgb(0%,0%,0%);stop-opacity:0.2;"/>
<stop offset="1" style="stop-color:rgb(100%,100%,100%);stop-opacity:0;"/>
</linearGradient>
<linearGradient id="linear3" gradientUnits="userSpaceOnUse" x1="21.062702" y1="72.81855" x2="42.93729" y2="-8.818524" gradientTransform="matrix(0.480009,-0.128618,0.128618,0.480009,4.523933,12.755474)">
<stop offset="0" style="stop-color:rgb(0%,0%,0%);stop-opacity:0.2;"/>
<stop offset="1" style="stop-color:rgb(100%,100%,100%);stop-opacity:0;"/>
</linearGradient>
</defs>
<g id="surface1">
<path style=" stroke:none;fill-rule:nonzero;fill:rgb(100%,43.921569%,26.274511%);fill-opacity:1;" d="M 24 2.996094 C 35.601562 2.996094 45.003906 12.398438 45.003906 24 C 45.003906 35.597656 35.601562 45.003906 24 45.003906 C 12.398438 45.003906 2.996094 35.597656 2.996094 24 C 2.996094 12.398438 12.398438 2.996094 24 2.996094 Z M 24 2.996094 "/>
<path style=" stroke:none;fill-rule:nonzero;fill:rgb(100%,100%,100%);fill-opacity:0.4;" d="M 24 3 C 12.402344 3 3 12.402344 3 24 C 3 24.125 3.003906 24.25 3.007812 24.375 C 3.207031 12.949219 12.527344 3.75 24 3.75 C 35.472656 3.75 44.792969 12.949219 44.996094 24.375 C 44.996094 24.25 45 24.125 45 24 C 45 12.402344 35.597656 3 24 3 Z M 24 3 "/>
<path style=" stroke:none;fill-rule:nonzero;fill:rgb(0%,0%,0%);fill-opacity:0.4;" d="M 3.011719 23.621094 C 3.007812 23.742188 3 23.867188 3 23.992188 C 3 35.589844 12.402344 44.992188 24 44.992188 C 35.597656 44.992188 45 35.589844 45 23.992188 C 45 23.867188 44.992188 23.742188 44.988281 23.621094 C 44.789062 35.042969 35.472656 44.246094 24 44.246094 C 12.527344 44.246094 3.210938 35.042969 3.011719 23.621094 Z M 3.011719 23.621094 "/>
<path style=" stroke:none;fill-rule:nonzero;fill:rgb(0%,0%,0%);fill-opacity:0.2;" d="M 3.011719 24.5625 C 3.003906 24.75 3 24.9375 3 25.125 C 3 36.722656 12.402344 46.125 24 46.125 C 35.597656 46.125 45 36.722656 45 25.125 C 45 24.9375 44.996094 24.75 44.988281 24.5625 C 44.691406 35.898438 35.410156 44.996094 24 44.996094 C 12.589844 44.996094 3.308594 35.898438 3.011719 24.5625 Z M 3.011719 24.5625 "/>
<path style=" stroke:none;fill-rule:nonzero;fill:url(#linear0);" d="M 24 3 C 35.597656 3 45 12.402344 45 24 C 45 35.597656 35.597656 44.996094 24 44.996094 C 12.402344 44.996094 3 35.597656 3 24 C 3 12.402344 12.402344 3 24 3 Z M 24 3 "/>
<path style=" stroke:none;fill-rule:nonzero;fill:rgb(38.039216%,38.039216%,38.039216%);fill-opacity:1;" d="M 3 26.996094 C 3 27.828125 3.671875 28.5 4.503906 28.5 L 15.769531 28.5 L 15.769531 31.777344 C 15.769531 32.214844 16.304688 32.421875 16.601562 32.101562 L 23.660156 24.898438 C 24.128906 24.386719 24.144531 23.582031 23.660156 23.085938 L 16.601562 15.882812 C 16.304688 15.5625 15.769531 15.769531 15.769531 16.207031 L 15.769531 19.484375 L 4.503906 19.484375 C 3.671875 19.484375 3 20.15625 3 20.988281 Z M 3 26.996094 "/>
<path style=" stroke:none;fill-rule:nonzero;fill:url(#linear1);" d="M 3 26.996094 C 3 27.828125 3.671875 28.5 4.503906 28.5 L 15.769531 28.5 L 15.769531 31.777344 C 15.769531 32.214844 16.304688 32.421875 16.601562 32.101562 L 23.660156 24.898438 C 24.128906 24.386719 24.144531 23.582031 23.660156 23.085938 L 16.601562 15.882812 C 16.304688 15.5625 15.769531 15.769531 15.769531 16.207031 L 15.769531 19.484375 L 4.503906 19.484375 C 3.671875 19.484375 3 20.15625 3 20.988281 Z M 3 26.996094 "/>
<path style=" stroke:none;fill-rule:nonzero;fill:rgb(93.333334%,93.333334%,93.333334%);fill-opacity:1;" d="M 45.019531 26.996094 C 45.019531 27.828125 44.351562 28.5 43.519531 28.5 L 32.25 28.5 L 32.25 31.777344 C 32.25 32.214844 31.714844 32.421875 31.421875 32.101562 L 24.363281 24.898438 C 23.894531 24.386719 23.875 23.582031 24.363281 23.085938 L 31.421875 15.882812 C 31.714844 15.5625 32.25 15.769531 32.25 16.207031 L 32.25 19.484375 L 43.519531 19.484375 C 44.351562 19.484375 45.019531 20.15625 45.019531 20.988281 Z M 45.019531 26.996094 "/>
<path style=" stroke:none;fill-rule:nonzero;fill:url(#linear2);" d="M 45.019531 26.996094 C 45.019531 27.828125 44.351562 28.5 43.519531 28.5 L 32.25 28.5 L 32.25 31.777344 C 32.25 32.214844 31.714844 32.421875 31.421875 32.101562 L 24.363281 24.898438 C 23.894531 24.386719 23.875 23.582031 24.363281 23.085938 L 31.421875 15.882812 C 31.714844 15.5625 32.25 15.769531 32.25 16.207031 L 32.25 19.484375 L 43.519531 19.484375 C 44.351562 19.484375 45.019531 20.15625 45.019531 20.988281 Z M 45.019531 26.996094 "/>
<path style=" stroke:none;fill-rule:nonzero;fill:rgb(100%,100%,100%);fill-opacity:0.4;" d="M 16.277344 15.726562 C 16.023438 15.714844 15.769531 15.90625 15.769531 16.207031 L 15.769531 16.96875 C 15.769531 16.535156 16.304688 16.328125 16.597656 16.648438 L 23.660156 23.851562 C 23.804688 24 23.902344 24.175781 23.957031 24.363281 C 24.089844 23.921875 23.996094 23.433594 23.660156 23.085938 L 16.597656 15.882812 C 16.507812 15.78125 16.394531 15.734375 16.277344 15.726562 Z M 4.503906 19.484375 C 3.671875 19.484375 3 20.15625 3 20.988281 L 3 21.753906 C 3 20.921875 3.671875 20.25 4.503906 20.25 L 15.769531 20.25 L 15.769531 19.484375 Z M 4.503906 19.484375 "/>
<path style=" stroke:none;fill-rule:nonzero;fill:rgb(0%,0%,0%);fill-opacity:0.4;" d="M 23.957031 24.375 C 23.902344 24.5625 23.804688 24.738281 23.660156 24.886719 L 16.597656 32.089844 C 16.304688 32.410156 15.769531 32.203125 15.769531 31.769531 L 15.769531 32.53125 C 15.769531 32.832031 16.023438 33.023438 16.277344 33.011719 C 16.394531 33.003906 16.507812 32.957031 16.597656 32.855469 L 23.660156 25.652344 C 23.996094 25.304688 24.089844 24.816406 23.957031 24.375 Z M 3.382812 27.984375 C 3.441406 28.308594 3.511719 28.628906 3.589844 28.945312 C 3.839844 29.136719 4.160156 29.253906 4.503906 29.253906 L 15.769531 29.253906 L 15.769531 28.488281 L 4.503906 28.488281 C 4.054688 28.488281 3.65625 28.292969 3.382812 27.984375 Z M 3.382812 27.984375 "/>
<path style=" stroke:none;fill-rule:nonzero;fill:rgb(100%,100%,100%);fill-opacity:0.6;" d="M 31.730469 15.726562 C 31.980469 15.714844 32.234375 15.90625 32.234375 16.207031 L 32.234375 16.96875 C 32.234375 16.535156 31.699219 16.328125 31.40625 16.648438 L 24.347656 23.851562 C 24.203125 24 24.105469 24.175781 24.046875 24.363281 C 23.917969 23.921875 24.011719 23.433594 24.347656 23.085938 L 31.40625 15.882812 C 31.5 15.78125 31.613281 15.734375 31.730469 15.726562 Z M 43.503906 19.484375 C 44.335938 19.484375 45.003906 20.15625 45.003906 20.988281 L 45.003906 21.753906 C 45.003906 20.921875 44.335938 20.25 43.503906 20.25 L 32.234375 20.25 L 32.234375 19.484375 Z M 43.503906 19.484375 "/>
<path style=" stroke:none;fill-rule:nonzero;fill:rgb(0%,0%,0%);fill-opacity:0.4;" d="M 24.046875 24.375 C 24.105469 24.5625 24.203125 24.738281 24.347656 24.886719 L 31.40625 32.089844 C 31.699219 32.410156 32.234375 32.203125 32.234375 31.769531 L 32.234375 32.53125 C 32.234375 32.832031 31.980469 33.023438 31.730469 33.011719 C 31.613281 33.003906 31.5 32.957031 31.40625 32.855469 L 24.347656 25.652344 C 24.011719 25.304688 23.917969 24.816406 24.046875 24.375 Z M 44.625 27.984375 C 44.5625 28.308594 44.492188 28.628906 44.417969 28.945312 C 44.164062 29.136719 43.847656 29.253906 43.503906 29.253906 L 32.234375 29.253906 L 32.234375 28.488281 L 43.503906 28.488281 C 43.949219 28.488281 44.351562 28.292969 44.625 27.984375 Z M 44.625 27.984375 "/>
<path style=" stroke:none;fill-rule:nonzero;fill:rgb(100%,65.490198%,14.901961%);fill-opacity:1;" d="M 27.183594 18.488281 C 27.171875 18.480469 26.914062 21.78125 26.90625 21.769531 C 26.898438 21.757812 30.152344 22.367188 30.148438 22.351562 C 30.144531 22.339844 27.632812 24.492188 27.632812 24.476562 C 27.636719 24.464844 29.503906 27.195312 29.511719 27.183594 C 29.519531 27.171875 26.21875 26.914062 26.230469 26.90625 C 26.242188 26.898438 25.632812 30.152344 25.648438 30.148438 C 25.660156 30.144531 23.507812 27.632812 23.523438 27.632812 C 23.535156 27.636719 20.804688 29.503906 20.816406 29.511719 C 20.828125 29.519531 21.085938 26.21875 21.09375 26.230469 C 21.101562 26.242188 17.847656 25.632812 17.851562 25.648438 C 17.855469 25.660156 20.367188 23.507812 20.367188 23.523438 C 20.363281 23.535156 18.496094 20.804688 18.488281 20.816406 C 18.480469 20.828125 21.78125 21.085938 21.769531 21.09375 C 21.757812 21.101562 22.367188 17.847656 22.351562 17.851562 C 22.339844 17.855469 24.492188 20.367188 24.476562 20.367188 C 24.464844 20.363281 27.195312 18.496094 27.183594 18.488281 Z M 27.183594 18.488281 "/>
<path style=" stroke:none;fill-rule:nonzero;fill:rgb(95.686275%,26.274511%,21.176471%);fill-opacity:1;" d="M 25.855469 20.785156 C 25.847656 20.78125 25.699219 22.703125 25.695312 22.699219 C 25.691406 22.691406 27.585938 23.046875 27.585938 23.039062 C 27.582031 23.03125 26.117188 24.285156 26.121094 24.277344 C 26.121094 24.269531 27.210938 25.863281 27.214844 25.855469 C 27.21875 25.847656 25.296875 25.699219 25.300781 25.695312 C 25.308594 25.691406 24.953125 27.585938 24.960938 27.585938 C 24.96875 27.582031 23.714844 26.117188 23.722656 26.121094 C 23.730469 26.121094 22.136719 27.210938 22.144531 27.214844 C 22.152344 27.21875 22.300781 25.296875 22.304688 25.300781 C 22.308594 25.308594 20.414062 24.953125 20.414062 24.960938 C 20.417969 24.96875 21.882812 23.714844 21.878906 23.722656 C 21.878906 23.730469 20.789062 22.136719 20.785156 22.144531 C 20.78125 22.152344 22.703125 22.300781 22.699219 22.304688 C 22.691406 22.308594 23.046875 20.414062 23.039062 20.414062 C 23.03125 20.417969 24.285156 21.882812 24.277344 21.878906 C 24.269531 21.878906 25.863281 20.789062 25.855469 20.785156 Z M 25.855469 20.785156 "/>
<path style=" stroke:none;fill-rule:nonzero;fill:rgb(3.137255%,3.137255%,3.137255%);fill-opacity:0.4;" d="M 27.183594 19.308594 C 27.183594 19.308594 27.113281 19.359375 27.109375 19.359375 C 27.03125 20.300781 26.914062 21.777344 26.90625 21.769531 C 26.90625 21.769531 26.972656 21.78125 26.976562 21.78125 C 27.050781 20.863281 27.171875 19.304688 27.183594 19.308594 Z M 18.488281 21.636719 C 18.496094 21.628906 19.539062 23.148438 20.007812 23.824219 C 20.097656 23.75 20.367188 23.519531 20.367188 23.519531 C 20.367188 23.53125 19.652344 22.492188 19.097656 21.691406 C 18.914062 21.675781 18.488281 21.640625 18.488281 21.636719 Z M 29.34375 23.03125 C 28.601562 23.660156 27.632812 24.488281 27.632812 24.480469 C 27.632812 24.476562 27.878906 24.835938 27.992188 24.996094 C 28.519531 24.554688 30.144531 23.164062 30.144531 23.175781 C 30.148438 23.175781 29.644531 23.085938 29.34375 23.03125 Z M 18.65625 25.789062 C 18.308594 26.085938 17.855469 26.472656 17.855469 26.464844 C 17.851562 26.453125 20.902344 27.027344 21.023438 27.039062 C 21.050781 26.738281 21.089844 26.226562 21.09375 26.230469 C 21.097656 26.238281 19.5625 25.953125 18.65625 25.789062 Z M 26.230469 26.90625 C 26.242188 26.898438 25.632812 30.148438 25.644531 30.144531 C 25.660156 30.144531 23.507812 27.632812 23.519531 27.632812 C 23.535156 27.632812 21.019531 29.355469 20.890625 29.460938 C 20.863281 29.800781 20.820312 30.332031 20.816406 30.332031 C 20.804688 30.324219 23.535156 28.453125 23.519531 28.453125 C 23.507812 28.453125 25.660156 30.964844 25.644531 30.964844 C 25.632812 30.96875 26.242188 27.71875 26.230469 27.726562 C 26.21875 27.734375 29.515625 27.988281 29.511719 28.003906 C 29.507812 28.003906 29.167969 27.511719 28.902344 27.128906 C 28.097656 27.0625 26.222656 26.914062 26.230469 26.90625 Z M 26.230469 26.90625 "/>
<path style=" stroke:none;fill-rule:nonzero;fill:rgb(100%,100%,100%);fill-opacity:0.4;" d="M 22.355469 17.855469 C 22.367188 17.851562 21.757812 21.101562 21.769531 21.09375 C 21.78125 21.085938 18.484375 20.832031 18.488281 20.816406 C 18.492188 20.816406 18.8125 21.285156 19.046875 21.621094 C 19.8125 21.6875 21.777344 21.839844 21.769531 21.847656 C 21.757812 21.855469 22.367188 18.601562 22.355469 18.605469 C 22.339844 18.609375 24.492188 21.121094 24.480469 21.121094 C 24.464844 21.117188 26.996094 19.382812 27.113281 19.289062 C 27.140625 18.992188 27.179688 18.488281 27.183594 18.488281 C 27.195312 18.496094 24.464844 20.367188 24.480469 20.367188 C 24.492188 20.367188 22.339844 17.855469 22.355469 17.855469 Z M 26.96875 21.78125 C 26.949219 22.042969 26.910156 22.527344 26.90625 22.523438 C 26.902344 22.515625 28.527344 22.816406 29.410156 22.972656 C 29.714844 22.714844 30.144531 22.351562 30.144531 22.355469 C 30.148438 22.367188 27.082031 21.792969 26.96875 21.78125 Z M 20.039062 23.800781 C 19.539062 24.21875 17.855469 25.65625 17.855469 25.644531 C 17.851562 25.644531 18.332031 25.730469 18.589844 25.777344 C 19.328125 25.152344 20.367188 24.265625 20.367188 24.277344 C 20.367188 24.277344 20.132812 23.9375 20.039062 23.800781 Z M 27.960938 24.953125 C 27.886719 25.015625 27.632812 25.234375 27.632812 25.230469 C 27.632812 25.222656 28.402344 26.339844 28.953125 27.136719 C 29.109375 27.148438 29.511719 27.179688 29.511719 27.183594 C 29.503906 27.191406 28.410156 25.597656 27.960938 24.953125 Z M 21.03125 26.972656 C 20.957031 27.863281 20.828125 29.515625 20.816406 29.511719 C 20.816406 29.511719 20.882812 29.464844 20.886719 29.464844 C 20.960938 28.546875 21.085938 26.976562 21.09375 26.984375 C 21.09375 26.984375 21.03125 26.972656 21.03125 26.972656 Z M 21.03125 26.972656 "/>
<path style=" stroke:none;fill-rule:nonzero;fill:rgb(0%,0%,0%);fill-opacity:0.4;" d="M 23.039062 20.414062 C 23.046875 20.410156 22.691406 22.308594 22.699219 22.304688 C 22.707031 22.300781 20.78125 22.152344 20.785156 22.144531 C 20.785156 22.140625 21.011719 22.46875 21.21875 22.769531 C 21.738281 22.816406 22.703125 22.890625 22.699219 22.894531 C 22.691406 22.898438 23.046875 21.003906 23.039062 21.003906 C 23.03125 21.007812 24.285156 22.472656 24.277344 22.472656 C 24.269531 22.46875 25.710938 21.484375 25.804688 21.410156 C 25.824219 21.136719 25.855469 20.785156 25.855469 20.785156 C 25.863281 20.789062 24.269531 21.878906 24.277344 21.878906 C 24.285156 21.882812 23.03125 20.417969 23.039062 20.414062 Z M 25.746094 22.707031 C 25.726562 22.953125 25.699219 23.289062 25.695312 23.289062 C 25.691406 23.285156 26.453125 23.425781 27.011719 23.527344 C 27.285156 23.292969 27.585938 23.035156 27.585938 23.039062 C 27.589844 23.046875 25.832031 22.71875 25.746094 22.707031 Z M 21.621094 23.941406 C 21.273438 24.234375 20.414062 24.96875 20.414062 24.960938 C 20.414062 24.957031 20.746094 25.019531 20.988281 25.066406 C 21.414062 24.703125 21.882812 24.304688 21.878906 24.308594 C 21.878906 24.3125 21.714844 24.074219 21.621094 23.941406 Z M 26.378906 24.652344 C 26.304688 24.714844 26.121094 24.871094 26.121094 24.867188 C 26.121094 24.863281 26.464844 25.363281 26.78125 25.820312 C 26.933594 25.832031 27.214844 25.855469 27.214844 25.855469 C 27.210938 25.859375 26.679688 25.085938 26.378906 24.652344 Z M 22.253906 25.882812 C 22.210938 26.445312 22.148438 27.21875 22.144531 27.214844 C 22.144531 27.214844 22.195312 27.179688 22.195312 27.179688 C 22.242188 26.609375 22.300781 25.886719 22.304688 25.890625 C 22.304688 25.890625 22.257812 25.882812 22.253906 25.882812 Z M 22.253906 25.882812 "/>
<path style=" stroke:none;fill-rule:nonzero;fill:rgb(100%,100%,100%);fill-opacity:0.4;" d="M 25.855469 21.375 C 25.855469 21.375 25.804688 21.410156 25.804688 21.410156 C 25.757812 21.980469 25.699219 22.703125 25.695312 22.699219 C 25.695312 22.699219 25.742188 22.707031 25.746094 22.707031 C 25.789062 22.144531 25.851562 21.371094 25.855469 21.375 Z M 20.785156 22.734375 C 20.789062 22.730469 21.320312 23.503906 21.621094 23.941406 C 21.695312 23.875 21.878906 23.71875 21.878906 23.722656 C 21.878906 23.726562 21.535156 23.226562 21.21875 22.769531 C 21.066406 22.757812 20.785156 22.734375 20.785156 22.734375 Z M 27.011719 23.527344 C 26.585938 23.886719 26.117188 24.28125 26.121094 24.277344 C 26.121094 24.277344 26.285156 24.515625 26.378906 24.652344 C 26.726562 24.355469 27.585938 23.625 27.585938 23.628906 C 27.585938 23.632812 27.253906 23.570312 27.011719 23.527344 Z M 20.988281 25.066406 C 20.714844 25.296875 20.414062 25.554688 20.414062 25.550781 C 20.410156 25.542969 22.167969 25.871094 22.253906 25.882812 C 22.273438 25.636719 22.300781 25.300781 22.304688 25.300781 C 22.308594 25.304688 21.546875 25.167969 20.988281 25.066406 Z M 25.300781 25.695312 C 25.308594 25.691406 24.953125 27.589844 24.960938 27.585938 C 24.96875 27.582031 23.714844 26.117188 23.722656 26.121094 C 23.730469 26.121094 22.289062 27.105469 22.195312 27.179688 C 22.175781 27.453125 22.144531 27.804688 22.144531 27.804688 C 22.136719 27.800781 23.730469 26.710938 23.722656 26.710938 C 23.714844 26.707031 24.96875 28.175781 24.960938 28.175781 C 24.953125 28.179688 25.308594 26.28125 25.300781 26.285156 C 25.292969 26.292969 27.21875 26.4375 27.214844 26.445312 C 27.214844 26.449219 26.988281 26.121094 26.78125 25.820312 C 26.261719 25.777344 25.296875 25.699219 25.300781 25.695312 Z M 25.300781 25.695312 "/>
<path style=" stroke:none;fill-rule:nonzero;fill:url(#linear3);" d="M 27.183594 18.488281 C 27.171875 18.480469 26.914062 21.78125 26.90625 21.769531 C 26.898438 21.757812 30.152344 22.367188 30.148438 22.351562 C 30.144531 22.339844 27.632812 24.492188 27.632812 24.476562 C 27.636719 24.464844 29.503906 27.195312 29.511719 27.183594 C 29.519531 27.171875 26.21875 26.914062 26.230469 26.90625 C 26.242188 26.898438 25.632812 30.152344 25.648438 30.148438 C 25.660156 30.144531 23.507812 27.632812 23.523438 27.632812 C 23.535156 27.636719 20.804688 29.503906 20.816406 29.511719 C 20.828125 29.519531 21.085938 26.21875 21.09375 26.230469 C 21.101562 26.242188 17.847656 25.632812 17.851562 25.648438 C 17.855469 25.660156 20.367188 23.507812 20.367188 23.523438 C 20.363281 23.535156 18.496094 20.804688 18.488281 20.816406 C 18.480469 20.828125 21.78125 21.085938 21.769531 21.09375 C 21.757812 21.101562 22.367188 17.847656 22.351562 17.851562 C 22.339844 17.855469 24.492188 20.367188 24.476562 20.367188 C 24.464844 20.363281 27.195312 18.496094 27.183594 18.488281 Z M 27.183594 18.488281 "/>
</g>
</svg>
