
<svg xmlns="http://www.w3.org/2000/svg" xmlns:xlink="http://www.w3.org/1999/xlink" width="48" height="48" viewBox="0 0 48 48" version="1.1">
<defs>
<linearGradient id="linear0" gradientUnits="userSpaceOnUse" x1="8.466666" y1="-201.241669" x2="8.466666" y2="-212.354172" gradientTransform="matrix(2.834646,0,0,2.834646,0,609.448851)">
<stop offset="0" style="stop-color:rgb(0%,0%,0%);stop-opacity:0.2;"/>
<stop offset="1" style="stop-color:rgb(100%,100%,100%);stop-opacity:0;"/>
</linearGradient>
</defs>
<g id="surface1">
<path style=" stroke:none;fill-rule:nonzero;fill:rgb(71.764708%,10.980392%,10.980392%);fill-opacity:0.301961;" d="M 19.5 13.5 L 30 13.5 L 30 25.5 L 19.5 25.5 Z M 19.5 13.5 "/>
<path style=" stroke:none;fill-rule:nonzero;fill:rgb(87.843138%,87.843138%,87.843138%);fill-opacity:1;" d="M 34.125 14.625 C 31.425781 14.625 29.25 16.800781 29.25 19.5 C 29.25 22.199219 31.425781 24.375 34.125 24.375 C 36.824219 24.375 39 22.199219 39 19.5 C 39 16.800781 36.824219 14.625 34.125 14.625 Z M 34.125 16.125 C 34.460938 16.125 34.789062 16.175781 35.09375 16.265625 L 34.769531 17.34375 C 35.113281 17.445312 35.417969 17.625 35.671875 17.859375 L 36.441406 17.042969 C 36.671875 17.265625 36.878906 17.519531 37.046875 17.8125 C 37.214844 18.105469 37.335938 18.410156 37.410156 18.722656 L 36.316406 18.980469 C 36.355469 19.148438 36.375 19.320312 36.375 19.5 C 36.375 19.679688 36.355469 19.851562 36.316406 20.019531 L 37.410156 20.277344 C 37.335938 20.589844 37.214844 20.894531 37.046875 21.1875 C 36.878906 21.480469 36.671875 21.738281 36.441406 21.957031 L 35.671875 21.140625 C 35.417969 21.375 35.113281 21.554688 34.769531 21.65625 L 35.09375 22.734375 C 34.789062 22.824219 34.460938 22.875 34.125 22.875 C 33.789062 22.875 33.460938 22.824219 33.15625 22.734375 L 33.480469 21.65625 C 33.136719 21.554688 32.832031 21.375 32.578125 21.140625 L 31.808594 21.957031 C 31.578125 21.738281 31.371094 21.480469 31.203125 21.1875 C 31.035156 20.894531 30.914062 20.589844 30.839844 20.277344 L 31.933594 20.019531 C 31.894531 19.851562 31.875 19.679688 31.875 19.5 C 31.875 19.320312 31.894531 19.148438 31.933594 18.980469 L 30.839844 18.722656 C 30.914062 18.410156 31.035156 18.105469 31.203125 17.8125 C 31.371094 17.519531 31.578125 17.265625 31.808594 17.042969 L 32.578125 17.859375 C 32.832031 17.625 33.136719 17.445312 33.480469 17.34375 L 33.15625 16.265625 C 33.460938 16.175781 33.789062 16.125 34.125 16.125 Z M 34.125 16.125 "/>
<path style=" stroke:none;fill-rule:nonzero;fill:rgb(55.29412%,43.137255%,38.82353%);fill-opacity:0.996078;" d="M 13.875 13.875 C 10.757812 13.875 8.25 16.382812 8.25 19.5 C 8.25 22.617188 10.757812 25.125 13.875 25.125 L 23.128906 25.125 C 24.15625 23.5 24.75 21.574219 24.75 19.5 C 24.75 17.425781 24.15625 15.5 23.128906 13.875 Z M 14.25 15.75 C 16.328125 15.75 18 17.421875 18 19.5 C 18 21.578125 16.328125 23.25 14.25 23.25 C 12.171875 23.25 10.5 21.578125 10.5 19.5 C 10.5 17.421875 12.171875 15.75 14.25 15.75 Z M 14.25 15.75 "/>
<path style=" stroke:none;fill-rule:nonzero;fill:rgb(95.686275%,26.274511%,21.176471%);fill-opacity:0.996078;" d="M 6 7.5 C 4.339844 7.5 3 8.839844 3 10.5 L 3 36 C 3 37.660156 4.339844 39 6 39 L 42 39 C 43.660156 39 45 37.660156 45 36 L 45 10.5 C 45 8.839844 43.660156 7.5 42 7.5 Z M 14.25 13.875 L 34.125 13.875 C 37.242188 13.875 39.75 16.382812 39.75 19.5 C 39.75 22.617188 37.242188 25.125 34.125 25.125 L 14.25 25.125 C 11.132812 25.125 8.625 22.617188 8.625 19.5 C 8.625 16.382812 11.132812 13.875 14.25 13.875 Z M 16.847656 33.75 C 16.855469 33.75 16.867188 33.75 16.875 33.75 C 17.5 33.75 18 34.25 18 34.875 C 18 35.5 17.5 36 16.875 36 C 16.796875 36 16.722656 35.992188 16.648438 35.976562 C 16.132812 35.871094 15.75 35.421875 15.75 34.875 C 15.75 34.261719 16.234375 33.765625 16.847656 33.75 Z M 31.097656 33.75 C 31.105469 33.75 31.117188 33.75 31.125 33.75 C 31.75 33.75 32.25 34.25 32.25 34.875 C 32.25 35.5 31.75 36 31.125 36 C 30.5 36 30 35.5 30 34.875 C 30 34.796875 30.007812 34.722656 30.023438 34.652344 C 30.125 34.144531 30.5625 33.761719 31.097656 33.75 Z M 13.460938 34.5 C 13.472656 34.5 13.488281 34.5 13.5 34.5 C 13.605469 34.5 13.707031 34.511719 13.804688 34.53125 C 13.902344 34.550781 13.996094 34.578125 14.085938 34.617188 C 14.175781 34.65625 14.257812 34.699219 14.339844 34.753906 C 14.417969 34.808594 14.496094 34.871094 14.5625 34.9375 C 14.628906 35.003906 14.691406 35.082031 14.746094 35.160156 C 14.800781 35.242188 14.84375 35.324219 14.882812 35.414062 C 14.921875 35.503906 14.949219 35.597656 14.96875 35.695312 C 14.988281 35.792969 15 35.894531 15 36 C 15 36.105469 14.988281 36.207031 14.96875 36.304688 C 14.949219 36.402344 14.921875 36.496094 14.882812 36.585938 C 14.84375 36.675781 14.800781 36.757812 14.746094 36.839844 C 14.691406 36.917969 14.628906 36.996094 14.5625 37.0625 C 14.496094 37.128906 14.417969 37.191406 14.339844 37.246094 C 14.257812 37.300781 14.175781 37.34375 14.085938 37.382812 C 13.996094 37.421875 13.902344 37.449219 13.804688 37.46875 C 13.707031 37.488281 13.605469 37.5 13.5 37.5 C 13.394531 37.5 13.292969 37.488281 13.195312 37.46875 C 13.097656 37.449219 13.003906 37.421875 12.914062 37.382812 C 12.824219 37.34375 12.742188 37.300781 12.660156 37.246094 C 12.582031 37.191406 12.503906 37.128906 12.4375 37.0625 C 12.371094 36.996094 12.308594 36.917969 12.253906 36.839844 C 12.199219 36.757812 12.15625 36.675781 12.117188 36.585938 C 12.078125 36.496094 12.050781 36.402344 12.03125 36.304688 C 12.011719 36.207031 12 36.105469 12 36 C 12 35.898438 12.011719 35.796875 12.027344 35.699219 C 12.046875 35.605469 12.078125 35.511719 12.113281 35.421875 C 12.152344 35.335938 12.195312 35.25 12.246094 35.171875 C 12.300781 35.09375 12.359375 35.019531 12.425781 34.949219 C 12.492188 34.882812 12.5625 34.820312 12.640625 34.769531 C 12.71875 34.714844 12.800781 34.667969 12.890625 34.628906 C 12.976562 34.589844 13.070312 34.558594 13.164062 34.535156 C 13.261719 34.515625 13.359375 34.503906 13.460938 34.5 Z M 34.460938 34.5 C 34.472656 34.5 34.488281 34.5 34.5 34.5 C 34.605469 34.5 34.707031 34.511719 34.804688 34.53125 C 34.902344 34.550781 34.996094 34.578125 35.085938 34.617188 C 35.175781 34.65625 35.257812 34.699219 35.339844 34.753906 C 35.417969 34.808594 35.496094 34.871094 35.5625 34.9375 C 35.628906 35.003906 35.691406 35.082031 35.746094 35.160156 C 35.800781 35.242188 35.84375 35.324219 35.882812 35.414062 C 35.921875 35.503906 35.949219 35.597656 35.96875 35.695312 C 35.988281 35.792969 36 35.894531 36 36 C 36 36.105469 35.988281 36.207031 35.96875 36.304688 C 35.949219 36.402344 35.921875 36.496094 35.882812 36.585938 C 35.84375 36.675781 35.800781 36.757812 35.746094 36.839844 C 35.691406 36.917969 35.628906 36.996094 35.5625 37.0625 C 35.496094 37.128906 35.417969 37.191406 35.339844 37.246094 C 35.257812 37.300781 35.175781 37.34375 35.085938 37.382812 C 34.996094 37.421875 34.902344 37.449219 34.804688 37.46875 C 34.707031 37.488281 34.605469 37.5 34.5 37.5 C 34.394531 37.5 34.292969 37.488281 34.195312 37.46875 C 34.097656 37.449219 34.003906 37.421875 33.914062 37.382812 C 33.824219 37.34375 33.742188 37.300781 33.660156 37.246094 C 33.582031 37.191406 33.503906 37.128906 33.4375 37.0625 C 33.371094 36.996094 33.308594 36.917969 33.253906 36.839844 C 33.199219 36.757812 33.15625 36.675781 33.117188 36.585938 C 33.078125 36.496094 33.050781 36.402344 33.03125 36.304688 C 33.011719 36.207031 33 36.105469 33 36 C 33 35.898438 33.011719 35.796875 33.027344 35.699219 C 33.046875 35.605469 33.078125 35.511719 33.113281 35.421875 C 33.152344 35.335938 33.195312 35.25 33.246094 35.171875 C 33.300781 35.09375 33.359375 35.019531 33.425781 34.949219 C 33.492188 34.882812 33.5625 34.820312 33.640625 34.769531 C 33.71875 34.714844 33.800781 34.667969 33.890625 34.628906 C 33.976562 34.589844 34.070312 34.558594 34.164062 34.535156 C 34.261719 34.515625 34.359375 34.503906 34.460938 34.5 Z M 34.460938 34.5 "/>
<path style=" stroke:none;fill-rule:nonzero;fill:rgb(93.725491%,32.549021%,31.37255%);fill-opacity:1;" d="M 11.972656 31.5 C 11.117188 31.5 10.378906 32.105469 10.210938 32.941406 L 9 39 L 39 39 L 37.789062 32.941406 C 37.621094 32.105469 36.882812 31.5 36.027344 31.5 Z M 16.847656 33.75 C 16.855469 33.75 16.867188 33.75 16.875 33.75 C 17.5 33.75 18 34.25 18 34.875 C 18 35.5 17.5 36 16.875 36 C 16.25 36 15.75 35.5 15.75 34.875 C 15.75 34.261719 16.234375 33.765625 16.847656 33.75 Z M 31.097656 33.75 C 31.105469 33.75 31.117188 33.75 31.125 33.75 C 31.75 33.75 32.25 34.25 32.25 34.875 C 32.25 35.5 31.75 36 31.125 36 C 30.5 36 30 35.5 30 34.875 C 30 34.261719 30.484375 33.765625 31.097656 33.75 Z M 13.460938 34.5 C 13.472656 34.5 13.488281 34.5 13.5 34.5 C 14.332031 34.5 15 35.167969 15 36 C 15 36.832031 14.332031 37.5 13.5 37.5 C 12.667969 37.5 12 36.832031 12 36 C 12 35.183594 12.648438 34.519531 13.460938 34.5 Z M 34.460938 34.5 C 34.472656 34.5 34.488281 34.5 34.5 34.5 C 35.332031 34.5 36 35.167969 36 36 C 36 36.832031 35.332031 37.5 34.5 37.5 C 33.667969 37.5 33 36.832031 33 36 C 33 35.183594 33.648438 34.519531 34.460938 34.5 Z M 34.460938 34.5 "/>
<path style=" stroke:none;fill-rule:nonzero;fill:rgb(93.333334%,93.333334%,93.333334%);fill-opacity:0.996078;" d="M 6 9 C 5.167969 9 4.5 9.667969 4.5 10.5 L 4.5 19.5 L 8.625 19.5 C 8.625 16.382812 11.132812 13.875 14.25 13.875 L 34.125 13.875 C 37.242188 13.875 39.75 16.382812 39.75 19.5 L 43.5 19.5 L 43.5 10.5 C 43.5 9.667969 42.832031 9 42 9 Z M 14.25 16.125 C 14.417969 16.125 14.585938 16.136719 14.746094 16.160156 C 14.664062 16.148438 14.582031 16.140625 14.5 16.132812 C 14.417969 16.128906 14.335938 16.125 14.25 16.125 Z M 14.25 16.125 C 14.164062 16.125 14.082031 16.128906 14 16.132812 C 13.917969 16.140625 13.835938 16.148438 13.753906 16.160156 C 13.914062 16.136719 14.082031 16.125 14.25 16.125 Z M 13.753906 16.160156 C 13.671875 16.171875 13.59375 16.1875 13.511719 16.207031 C 13.433594 16.222656 13.355469 16.242188 13.28125 16.265625 C 13.433594 16.21875 13.589844 16.183594 13.753906 16.160156 Z M 14.746094 16.160156 C 14.910156 16.183594 15.066406 16.21875 15.21875 16.265625 C 15.144531 16.242188 15.066406 16.222656 14.988281 16.207031 C 14.90625 16.1875 14.828125 16.171875 14.746094 16.160156 Z M 11.933594 17.042969 C 11.875 17.097656 11.820312 17.15625 11.765625 17.214844 C 11.710938 17.273438 11.65625 17.335938 11.605469 17.402344 C 11.707031 17.273438 11.816406 17.152344 11.933594 17.042969 Z M 11.605469 17.402344 C 11.558594 17.464844 11.507812 17.53125 11.460938 17.601562 C 11.414062 17.667969 11.371094 17.738281 11.328125 17.8125 C 11.410156 17.667969 11.507812 17.527344 11.605469 17.402344 Z M 11.328125 17.8125 C 11.285156 17.886719 11.246094 17.960938 11.210938 18.035156 C 11.175781 18.109375 11.140625 18.183594 11.109375 18.261719 C 11.171875 18.109375 11.242188 17.957031 11.328125 17.8125 Z M 11.109375 18.261719 C 11.082031 18.335938 11.054688 18.414062 11.027344 18.488281 C 11.003906 18.566406 10.984375 18.644531 10.964844 18.722656 C 11 18.566406 11.050781 18.414062 11.109375 18.261719 Z M 16.566406 17.042969 C 16.683594 17.152344 16.792969 17.273438 16.894531 17.402344 C 16.84375 17.335938 16.789062 17.273438 16.734375 17.214844 C 16.679688 17.15625 16.625 17.097656 16.566406 17.042969 Z M 16.894531 17.402344 C 16.992188 17.527344 17.089844 17.667969 17.171875 17.8125 C 17.128906 17.738281 17.085938 17.667969 17.039062 17.601562 C 16.992188 17.53125 16.941406 17.464844 16.894531 17.402344 Z M 17.171875 17.8125 C 17.257812 17.957031 17.328125 18.109375 17.390625 18.261719 C 17.359375 18.183594 17.324219 18.109375 17.289062 18.035156 C 17.253906 17.960938 17.214844 17.886719 17.171875 17.8125 Z M 17.390625 18.261719 C 17.449219 18.414062 17.5 18.566406 17.535156 18.722656 C 17.515625 18.644531 17.496094 18.566406 17.472656 18.488281 C 17.445312 18.414062 17.417969 18.335938 17.390625 18.261719 Z M 17.390625 18.261719 "/>
<path style=" stroke:none;fill-rule:nonzero;fill:rgb(96.078432%,96.078432%,96.078432%);fill-opacity:0.996078;" d="M 4.5 19.5 L 4.5 28.5 C 4.5 29.332031 5.167969 30 6 30 L 42 30 C 42.832031 30 43.5 29.332031 43.5 28.5 L 43.5 19.5 L 39.75 19.5 C 39.75 22.617188 37.242188 25.125 34.125 25.125 L 14.25 25.125 C 11.132812 25.125 8.625 22.617188 8.625 19.5 Z M 10.964844 20.277344 C 10.984375 20.355469 11.003906 20.433594 11.027344 20.511719 C 11.054688 20.585938 11.082031 20.664062 11.109375 20.738281 C 11.050781 20.585938 11 20.433594 10.964844 20.277344 Z M 17.535156 20.277344 C 17.5 20.433594 17.449219 20.585938 17.390625 20.738281 C 17.417969 20.664062 17.445312 20.585938 17.472656 20.511719 C 17.496094 20.433594 17.515625 20.355469 17.535156 20.277344 Z M 11.109375 20.742188 C 11.140625 20.816406 11.175781 20.890625 11.210938 20.964844 C 11.246094 21.039062 11.285156 21.113281 11.328125 21.1875 C 11.242188 21.042969 11.171875 20.890625 11.109375 20.742188 Z M 11.328125 21.1875 C 11.371094 21.261719 11.414062 21.332031 11.460938 21.398438 C 11.507812 21.46875 11.558594 21.535156 11.605469 21.597656 C 11.507812 21.472656 11.410156 21.332031 11.328125 21.1875 Z M 11.605469 21.597656 C 11.65625 21.664062 11.710938 21.726562 11.765625 21.785156 C 11.820312 21.84375 11.875 21.902344 11.933594 21.957031 C 11.816406 21.847656 11.707031 21.726562 11.605469 21.597656 Z M 17.390625 20.742188 C 17.328125 20.890625 17.257812 21.042969 17.171875 21.1875 C 17.214844 21.113281 17.253906 21.039062 17.289062 20.964844 C 17.324219 20.890625 17.359375 20.816406 17.390625 20.742188 Z M 17.171875 21.1875 C 17.089844 21.332031 16.992188 21.472656 16.894531 21.597656 C 16.941406 21.535156 16.992188 21.46875 17.039062 21.398438 C 17.085938 21.332031 17.128906 21.261719 17.171875 21.1875 Z M 16.894531 21.597656 C 16.792969 21.726562 16.683594 21.847656 16.566406 21.957031 C 16.625 21.902344 16.679688 21.84375 16.734375 21.785156 C 16.789062 21.726562 16.84375 21.664062 16.894531 21.597656 Z M 13.28125 22.734375 C 13.355469 22.757812 13.433594 22.777344 13.511719 22.792969 C 13.59375 22.8125 13.671875 22.828125 13.753906 22.839844 C 13.589844 22.816406 13.433594 22.78125 13.28125 22.734375 Z M 13.753906 22.839844 C 13.835938 22.851562 13.917969 22.859375 14 22.867188 C 14.082031 22.871094 14.164062 22.875 14.25 22.875 C 14.082031 22.875 13.914062 22.863281 13.753906 22.839844 Z M 14.25 22.875 C 14.335938 22.875 14.417969 22.871094 14.5 22.867188 C 14.582031 22.859375 14.664062 22.851562 14.746094 22.839844 C 14.585938 22.863281 14.417969 22.875 14.25 22.875 Z M 14.746094 22.839844 C 14.828125 22.828125 14.90625 22.8125 14.988281 22.792969 C 15.066406 22.777344 15.144531 22.757812 15.21875 22.734375 C 15.066406 22.78125 14.910156 22.816406 14.746094 22.839844 Z M 14.746094 22.839844 "/>
<path style=" stroke:none;fill-rule:nonzero;fill:rgb(100%,100%,100%);fill-opacity:0.4;" d="M 11.972656 31.5 C 11.117188 31.5 10.378906 32.105469 10.210938 32.941406 L 9.148438 38.25 L 9.300781 38.25 L 10.210938 33.691406 C 10.378906 32.855469 11.117188 32.25 11.972656 32.25 L 36.027344 32.25 C 36.882812 32.25 37.621094 32.855469 37.789062 33.691406 L 38.699219 38.25 L 38.851562 38.25 L 37.789062 32.941406 C 37.621094 32.105469 36.882812 31.5 36.027344 31.5 Z M 9 38.996094 L 9 39 L 9.148438 39 L 9.152344 38.996094 Z M 38.847656 38.996094 L 38.851562 39 L 39 39 L 39 38.996094 Z M 38.847656 38.996094 "/>
<path style=" stroke:none;fill-rule:nonzero;fill:rgb(100%,100%,100%);fill-opacity:0.4;" d="M 6 7.5 C 4.339844 7.5 3 8.839844 3 10.5 L 3 11.246094 C 3 9.582031 4.339844 8.246094 6 8.246094 L 42 8.246094 C 43.660156 8.246094 45 9.582031 45 11.246094 L 45 10.5 C 45 8.839844 43.660156 7.5 42 7.5 Z M 6 7.5 "/>
<path style=" stroke:none;fill-rule:nonzero;fill:rgb(6.666667%,6.666667%,6.666667%);fill-opacity:0.4;" d="M 6 38.996094 C 4.339844 38.996094 3 37.65625 3 35.996094 L 3 35.25 C 3 36.910156 4.339844 38.25 6 38.25 L 42 38.25 C 43.660156 38.25 45 36.910156 45 35.25 L 45 35.996094 C 45 37.65625 43.660156 38.996094 42 38.996094 Z M 6 38.996094 "/>
<path style=" stroke:none;fill-rule:nonzero;fill:rgb(89.803922%,22.352941%,20.784314%);fill-opacity:0.996078;" d="M 24 33 C 24.414062 33 24.75 33.335938 24.75 33.75 C 24.75 34.164062 24.414062 34.5 24 34.5 C 23.585938 34.5 23.25 34.164062 23.25 33.75 C 23.25 33.335938 23.585938 33 24 33 Z M 24 33 "/>
<path style=" stroke:none;fill-rule:nonzero;fill:rgb(0%,0%,0%);fill-opacity:0.4;" d="M 23.980469 33 C 23.574219 33.011719 23.25 33.339844 23.25 33.75 C 23.25 33.8125 23.261719 33.875 23.273438 33.933594 C 23.359375 33.617188 23.640625 33.382812 23.980469 33.375 C 23.988281 33.375 23.992188 33.375 24 33.375 C 24.347656 33.375 24.640625 33.613281 24.726562 33.933594 C 24.738281 33.875 24.75 33.8125 24.75 33.75 C 24.75 33.335938 24.414062 33 24 33 C 23.992188 33 23.988281 33 23.980469 33 Z M 16.847656 33.75 C 16.234375 33.765625 15.75 34.261719 15.75 34.875 C 15.75 34.933594 15.757812 34.992188 15.769531 35.050781 C 15.859375 34.53125 16.304688 34.136719 16.847656 34.125 C 16.855469 34.125 16.867188 34.125 16.875 34.125 C 17.429688 34.125 17.886719 34.523438 17.980469 35.054688 C 17.992188 34.996094 18 34.9375 18 34.875 C 18 34.25 17.5 33.75 16.875 33.75 C 16.867188 33.75 16.855469 33.75 16.847656 33.75 Z M 31.097656 33.75 C 30.988281 33.753906 30.886719 33.769531 30.789062 33.800781 C 30.78125 33.800781 30.773438 33.804688 30.761719 33.808594 C 30.753906 33.8125 30.746094 33.8125 30.738281 33.816406 C 30.726562 33.820312 30.71875 33.824219 30.710938 33.828125 C 30.464844 33.925781 30.261719 34.105469 30.136719 34.335938 C 30.128906 34.34375 30.128906 34.355469 30.121094 34.363281 C 30.101562 34.402344 30.082031 34.445312 30.066406 34.488281 C 30.023438 34.609375 30 34.738281 30 34.875 C 30 34.933594 30.007812 34.992188 30.019531 35.050781 C 30.027344 34.984375 30.046875 34.921875 30.066406 34.863281 C 30.082031 34.820312 30.101562 34.78125 30.121094 34.738281 C 30.128906 34.730469 30.128906 34.722656 30.136719 34.710938 C 30.261719 34.480469 30.464844 34.300781 30.710938 34.203125 C 30.71875 34.195312 30.726562 34.195312 30.738281 34.191406 C 30.746094 34.191406 30.753906 34.1875 30.761719 34.183594 C 30.773438 34.179688 30.78125 34.175781 30.789062 34.175781 C 30.886719 34.144531 30.988281 34.128906 31.097656 34.125 C 31.105469 34.125 31.117188 34.125 31.125 34.125 C 31.308594 34.125 31.484375 34.171875 31.636719 34.25 C 31.945312 34.40625 32.171875 34.703125 32.230469 35.054688 C 32.242188 34.996094 32.25 34.9375 32.25 34.875 C 32.25 34.4375 32 34.058594 31.636719 33.871094 C 31.484375 33.792969 31.308594 33.75 31.125 33.75 C 31.117188 33.75 31.105469 33.75 31.097656 33.75 Z M 13.460938 34.5 C 12.648438 34.519531 12 35.183594 12 36 C 12 36.0625 12.003906 36.125 12.011719 36.183594 C 12.101562 35.457031 12.710938 34.894531 13.460938 34.875 C 13.472656 34.875 13.488281 34.875 13.5 34.875 C 13.578125 34.875 13.652344 34.882812 13.730469 34.894531 C 14.390625 34.992188 14.902344 35.519531 14.988281 36.1875 C 14.996094 36.125 15 36.0625 15 36 C 15 35.246094 14.449219 34.628906 13.730469 34.519531 C 13.652344 34.507812 13.578125 34.5 13.5 34.5 C 13.488281 34.5 13.472656 34.5 13.460938 34.5 Z M 34.460938 34.5 C 33.648438 34.519531 33 35.183594 33 36 C 33 36.0625 33.003906 36.125 33.011719 36.183594 C 33.101562 35.457031 33.710938 34.894531 34.460938 34.875 C 34.472656 34.875 34.488281 34.875 34.5 34.875 C 35.265625 34.875 35.894531 35.445312 35.988281 36.183594 C 35.996094 36.125 36 36.0625 36 36 C 36 35.167969 35.332031 34.5 34.5 34.5 C 34.488281 34.5 34.472656 34.5 34.460938 34.5 Z M 34.460938 34.5 "/>
<path style=" stroke:none;fill-rule:nonzero;fill:rgb(100%,100%,100%);fill-opacity:0.4;" d="M 23.273438 33.9375 C 23.257812 33.996094 23.25 34.058594 23.25 34.125 C 23.25 34.539062 23.585938 34.875 24 34.875 C 24.414062 34.875 24.75 34.539062 24.75 34.125 C 24.75 34.058594 24.742188 33.996094 24.726562 33.9375 C 24.644531 34.261719 24.351562 34.5 24 34.5 C 23.648438 34.5 23.355469 34.261719 23.273438 33.9375 Z M 15.769531 35.0625 C 15.757812 35.121094 15.75 35.183594 15.75 35.25 C 15.75 35.875 16.25 36.375 16.875 36.375 C 17.5 36.375 18 35.875 18 35.25 C 18 35.1875 17.992188 35.125 17.980469 35.0625 C 17.894531 35.59375 17.433594 36 16.875 36 C 16.316406 36 15.855469 35.59375 15.769531 35.0625 Z M 30.019531 35.0625 C 30.007812 35.121094 30 35.183594 30 35.25 C 30 35.875 30.5 36.375 31.125 36.375 C 31.75 36.375 32.25 35.875 32.25 35.25 C 32.25 35.1875 32.242188 35.125 32.230469 35.0625 C 32.144531 35.59375 31.683594 36 31.125 36 C 30.566406 36 30.105469 35.59375 30.019531 35.0625 Z M 12.011719 36.1875 C 12.003906 36.246094 12 36.3125 12 36.375 C 12 37.207031 12.667969 37.875 13.5 37.875 C 14.332031 37.875 15 37.207031 15 36.375 C 15 36.3125 14.996094 36.25 14.988281 36.1875 C 14.894531 36.929688 14.265625 37.5 13.5 37.5 C 12.730469 37.5 12.101562 36.929688 12.011719 36.1875 Z M 33.011719 36.1875 C 33.003906 36.246094 33 36.3125 33 36.375 C 33 37.207031 33.667969 37.875 34.5 37.875 C 35.332031 37.875 36 37.207031 36 36.375 C 36 36.3125 35.996094 36.25 35.988281 36.1875 C 35.894531 36.929688 35.265625 37.5 34.5 37.5 C 33.730469 37.5 33.101562 36.929688 33.011719 36.1875 Z M 33.011719 36.1875 "/>
<path style=" stroke:none;fill-rule:nonzero;fill:rgb(0%,0%,0%);fill-opacity:0.2;" d="M 3 36 L 3 37.125 C 3 38.785156 4.339844 40.125 6 40.125 L 42 40.125 C 43.660156 40.125 45 38.785156 45 37.125 L 45 36 C 45 37.660156 43.660156 39 42 39 L 6 39 C 4.339844 39 3 37.660156 3 36 Z M 3 36 "/>
<path style=" stroke:none;fill-rule:nonzero;fill:rgb(95.686275%,26.274511%,21.176471%);fill-opacity:1;" d="M 14.25 13.5 C 10.925781 13.5 8.25 16.175781 8.25 19.5 C 8.25 22.824219 10.925781 25.5 14.25 25.5 L 34.125 25.5 C 37.449219 25.5 40.125 22.824219 40.125 19.5 C 40.125 16.175781 37.449219 13.5 34.125 13.5 Z M 14.25 13.875 L 34.125 13.875 C 37.242188 13.875 39.75 16.382812 39.75 19.5 C 39.75 22.617188 37.242188 25.125 34.125 25.125 L 14.25 25.125 C 11.132812 25.125 8.625 22.617188 8.625 19.5 C 8.625 16.382812 11.132812 13.875 14.25 13.875 Z M 14.25 13.875 "/>
<path style=" stroke:none;fill-rule:nonzero;fill:rgb(55.29412%,43.137255%,38.82353%);fill-opacity:1;" d="M 29.15625 13.875 C 27.601562 15.246094 26.625 17.253906 26.625 19.5 C 26.625 21.746094 27.601562 23.753906 29.15625 25.125 L 34.125 25.125 C 37.242188 25.125 39.75 22.617188 39.75 19.5 C 39.75 16.382812 37.242188 13.875 34.125 13.875 Z M 34.125 14.625 C 36.824219 14.625 39 16.800781 39 19.5 C 39 22.199219 36.824219 24.375 34.125 24.375 C 31.425781 24.375 29.25 22.199219 29.25 19.5 C 29.25 16.800781 31.425781 14.625 34.125 14.625 Z M 34.125 14.625 "/>
<path style=" stroke:none;fill-rule:nonzero;fill:rgb(87.843138%,87.843138%,87.843138%);fill-opacity:1;" d="M 14.25 14.625 C 11.550781 14.625 9.375 16.800781 9.375 19.5 C 9.375 22.199219 11.550781 24.375 14.25 24.375 C 16.949219 24.375 19.125 22.199219 19.125 19.5 C 19.125 16.800781 16.949219 14.625 14.25 14.625 Z M 14.25 16.125 C 14.585938 16.125 14.914062 16.175781 15.21875 16.265625 L 14.894531 17.34375 C 15.238281 17.445312 15.542969 17.625 15.796875 17.859375 L 16.566406 17.042969 C 16.796875 17.261719 17.003906 17.519531 17.171875 17.8125 C 17.339844 18.105469 17.460938 18.410156 17.535156 18.722656 L 16.441406 18.980469 C 16.480469 19.148438 16.5 19.320312 16.5 19.5 C 16.5 19.679688 16.480469 19.851562 16.441406 20.019531 L 17.535156 20.277344 C 17.460938 20.589844 17.339844 20.894531 17.171875 21.1875 C 17.003906 21.480469 16.796875 21.734375 16.566406 21.957031 L 15.796875 21.140625 C 15.542969 21.375 15.238281 21.554688 14.894531 21.65625 L 15.21875 22.734375 C 14.914062 22.824219 14.585938 22.875 14.25 22.875 C 13.914062 22.875 13.585938 22.824219 13.28125 22.734375 L 13.605469 21.65625 C 13.261719 21.554688 12.957031 21.375 12.703125 21.140625 L 11.933594 21.957031 C 11.703125 21.738281 11.496094 21.480469 11.328125 21.1875 C 11.160156 20.894531 11.039062 20.589844 10.964844 20.277344 L 12.058594 20.019531 C 12.019531 19.851562 12 19.679688 12 19.5 C 12 19.320312 12.019531 19.148438 12.058594 18.980469 L 10.964844 18.722656 C 11.039062 18.410156 11.160156 18.105469 11.328125 17.8125 C 11.496094 17.519531 11.703125 17.265625 11.933594 17.042969 L 12.703125 17.859375 C 12.957031 17.625 13.261719 17.445312 13.605469 17.34375 L 13.28125 16.265625 C 13.585938 16.175781 13.914062 16.125 14.25 16.125 Z M 14.25 16.125 "/>
<path style=" stroke:none;fill-rule:nonzero;fill:rgb(74.117649%,74.117649%,74.117649%);fill-opacity:1;" d="M 14.25 15.375 C 11.964844 15.375 10.125 17.214844 10.125 19.5 C 10.125 21.785156 11.964844 23.625 14.25 23.625 C 16.535156 23.625 18.375 21.785156 18.375 19.5 C 18.375 17.214844 16.535156 15.375 14.25 15.375 Z M 14.25 16.125 C 14.585938 16.125 14.914062 16.175781 15.21875 16.265625 L 14.894531 17.34375 C 15.238281 17.445312 15.542969 17.625 15.796875 17.859375 L 16.566406 17.042969 C 16.796875 17.261719 17.003906 17.519531 17.171875 17.8125 C 17.339844 18.105469 17.460938 18.410156 17.535156 18.722656 L 16.441406 18.980469 C 16.480469 19.148438 16.5 19.320312 16.5 19.5 C 16.5 19.679688 16.480469 19.851562 16.441406 20.019531 L 17.535156 20.277344 C 17.460938 20.589844 17.339844 20.894531 17.171875 21.1875 C 17.003906 21.480469 16.796875 21.734375 16.566406 21.957031 L 15.796875 21.140625 C 15.542969 21.375 15.238281 21.554688 14.894531 21.65625 L 15.21875 22.734375 C 14.914062 22.824219 14.585938 22.875 14.25 22.875 C 13.914062 22.875 13.585938 22.824219 13.28125 22.734375 L 13.605469 21.65625 C 13.261719 21.554688 12.957031 21.375 12.703125 21.140625 L 11.933594 21.957031 C 11.703125 21.738281 11.496094 21.480469 11.328125 21.1875 C 11.160156 20.894531 11.039062 20.589844 10.964844 20.277344 L 12.058594 20.019531 C 12.019531 19.851562 12 19.679688 12 19.5 C 12 19.320312 12.019531 19.148438 12.058594 18.980469 L 10.964844 18.722656 C 11.039062 18.410156 11.160156 18.105469 11.328125 17.8125 C 11.496094 17.519531 11.703125 17.265625 11.933594 17.042969 L 12.703125 17.859375 C 12.957031 17.625 13.261719 17.445312 13.605469 17.34375 L 13.28125 16.265625 C 13.585938 16.175781 13.914062 16.125 14.25 16.125 Z M 14.25 16.125 "/>
<path style=" stroke:none;fill-rule:nonzero;fill:rgb(0%,0%,0%);fill-opacity:0.4;" d="M 14.25 15.375 C 11.964844 15.375 10.125 17.214844 10.125 19.5 C 10.125 19.5625 10.125 19.625 10.128906 19.6875 C 10.226562 17.488281 12.027344 15.75 14.25 15.75 C 16.472656 15.75 18.273438 17.488281 18.371094 19.6875 C 18.375 19.625 18.375 19.5625 18.375 19.5 C 18.375 17.214844 16.535156 15.375 14.25 15.375 Z M 14.25 15.375 "/>
<path style=" stroke:none;fill-rule:nonzero;fill:rgb(99.607843%,99.607843%,99.607843%);fill-opacity:0.4;" d="M 14.25 24 C 11.964844 24 10.125 22.160156 10.125 19.875 C 10.125 19.8125 10.125 19.75 10.128906 19.6875 C 10.226562 21.886719 12.027344 23.625 14.25 23.625 C 16.472656 23.625 18.273438 21.886719 18.371094 19.6875 C 18.375 19.75 18.375 19.8125 18.375 19.875 C 18.375 22.160156 16.535156 24 14.25 24 Z M 14.25 24 "/>
<path style=" stroke:none;fill-rule:nonzero;fill:rgb(100%,100%,100%);fill-opacity:0.8;" d="M 14.25 14.625 C 11.550781 14.625 9.375 16.800781 9.375 19.5 C 9.375 19.5625 9.375 19.625 9.378906 19.6875 C 9.476562 17.074219 11.613281 15 14.25 15 C 16.886719 15 19.023438 17.074219 19.121094 19.6875 C 19.125 19.625 19.125 19.5625 19.125 19.5 C 19.125 16.800781 16.949219 14.625 14.25 14.625 Z M 14.25 14.625 "/>
<path style=" stroke:none;fill-rule:nonzero;fill:rgb(100%,100%,100%);fill-opacity:0.8;" d="M 14.25 14.625 C 11.550781 14.625 9.375 16.800781 9.375 19.5 C 9.375 19.5625 9.375 19.625 9.378906 19.6875 C 9.476562 17.074219 11.613281 15 14.25 15 C 16.886719 15 19.023438 17.074219 19.121094 19.6875 C 19.125 19.625 19.125 19.5625 19.125 19.5 C 19.125 16.800781 16.949219 14.625 14.25 14.625 Z M 14.25 14.625 "/>
<path style=" stroke:none;fill-rule:nonzero;fill:rgb(0%,0%,0%);fill-opacity:0.4;" d="M 14.25 24.75 C 11.550781 24.75 9.375 22.574219 9.375 19.875 C 9.375 19.8125 9.375 19.75 9.378906 19.6875 C 9.476562 22.300781 11.613281 24.375 14.25 24.375 C 16.886719 24.375 19.023438 22.300781 19.121094 19.6875 C 19.125 19.75 19.125 19.8125 19.125 19.875 C 19.125 22.574219 16.949219 24.75 14.25 24.75 Z M 14.25 24.75 "/>
<path style=" stroke:none;fill-rule:nonzero;fill:rgb(74.117649%,74.117649%,74.117649%);fill-opacity:1;" d="M 34.125 15.375 C 31.839844 15.375 30 17.214844 30 19.5 C 30 21.785156 31.839844 23.625 34.125 23.625 C 36.410156 23.625 38.25 21.785156 38.25 19.5 C 38.25 17.214844 36.410156 15.375 34.125 15.375 Z M 34.125 16.125 C 34.460938 16.125 34.789062 16.175781 35.09375 16.265625 L 34.769531 17.34375 C 35.113281 17.445312 35.417969 17.625 35.671875 17.859375 L 36.441406 17.042969 C 36.671875 17.261719 36.878906 17.519531 37.046875 17.8125 C 37.214844 18.105469 37.335938 18.410156 37.410156 18.722656 L 36.316406 18.980469 C 36.355469 19.148438 36.375 19.320312 36.375 19.5 C 36.375 19.679688 36.355469 19.851562 36.316406 20.019531 L 37.410156 20.277344 C 37.335938 20.589844 37.214844 20.894531 37.046875 21.1875 C 36.878906 21.480469 36.671875 21.734375 36.441406 21.957031 L 35.671875 21.140625 C 35.417969 21.375 35.113281 21.554688 34.769531 21.65625 L 35.09375 22.734375 C 34.789062 22.824219 34.460938 22.875 34.125 22.875 C 33.789062 22.875 33.460938 22.824219 33.15625 22.734375 L 33.480469 21.65625 C 33.136719 21.554688 32.832031 21.375 32.578125 21.140625 L 31.808594 21.957031 C 31.578125 21.738281 31.371094 21.480469 31.203125 21.1875 C 31.035156 20.894531 30.914062 20.589844 30.839844 20.277344 L 31.933594 20.019531 C 31.894531 19.851562 31.875 19.679688 31.875 19.5 C 31.875 19.320312 31.894531 19.148438 31.933594 18.980469 L 30.839844 18.722656 C 30.914062 18.410156 31.035156 18.105469 31.203125 17.8125 C 31.371094 17.519531 31.578125 17.265625 31.808594 17.042969 L 32.578125 17.859375 C 32.832031 17.625 33.136719 17.445312 33.480469 17.34375 L 33.15625 16.265625 C 33.460938 16.175781 33.789062 16.125 34.125 16.125 Z M 34.125 16.125 "/>
<path style=" stroke:none;fill-rule:nonzero;fill:rgb(0%,0%,0%);fill-opacity:0.4;" d="M 34.125 15.375 C 31.839844 15.375 30 17.214844 30 19.5 C 30 19.5625 30 19.625 30.003906 19.6875 C 30.101562 17.488281 31.902344 15.75 34.125 15.75 C 36.347656 15.75 38.148438 17.488281 38.246094 19.6875 C 38.25 19.625 38.25 19.5625 38.25 19.5 C 38.25 17.214844 36.410156 15.375 34.125 15.375 Z M 34.125 15.375 "/>
<path style=" stroke:none;fill-rule:nonzero;fill:rgb(99.607843%,99.607843%,99.607843%);fill-opacity:0.4;" d="M 34.125 24 C 31.839844 24 30 22.160156 30 19.875 C 30 19.8125 30 19.75 30.003906 19.6875 C 30.101562 21.886719 31.902344 23.625 34.125 23.625 C 36.347656 23.625 38.148438 21.886719 38.246094 19.6875 C 38.25 19.75 38.25 19.8125 38.25 19.875 C 38.25 22.160156 36.410156 24 34.125 24 Z M 34.125 24 "/>
<path style=" stroke:none;fill-rule:nonzero;fill:rgb(100%,100%,100%);fill-opacity:0.8;" d="M 34.125 14.625 C 31.425781 14.625 29.25 16.800781 29.25 19.5 C 29.25 19.5625 29.25 19.625 29.253906 19.6875 C 29.351562 17.074219 31.488281 15 34.125 15 C 36.761719 15 38.898438 17.074219 38.996094 19.6875 C 39 19.625 39 19.5625 39 19.5 C 39 16.800781 36.824219 14.625 34.125 14.625 Z M 34.125 14.625 "/>
<path style=" stroke:none;fill-rule:nonzero;fill:rgb(100%,100%,100%);fill-opacity:0.8;" d="M 34.125 14.625 C 31.425781 14.625 29.25 16.800781 29.25 19.5 C 29.25 19.5625 29.25 19.625 29.253906 19.6875 C 29.351562 17.074219 31.488281 15 34.125 15 C 36.761719 15 38.898438 17.074219 38.996094 19.6875 C 39 19.625 39 19.5625 39 19.5 C 39 16.800781 36.824219 14.625 34.125 14.625 Z M 34.125 14.625 "/>
<path style=" stroke:none;fill-rule:nonzero;fill:rgb(0%,0%,0%);fill-opacity:0.4;" d="M 34.125 24.75 C 31.425781 24.75 29.25 22.574219 29.25 19.875 C 29.25 19.8125 29.25 19.75 29.253906 19.6875 C 29.351562 22.300781 31.488281 24.375 34.125 24.375 C 36.761719 24.375 38.898438 22.300781 38.996094 19.6875 C 39 19.75 39 19.8125 39 19.875 C 39 22.574219 36.824219 24.75 34.125 24.75 Z M 34.125 24.75 "/>
<path style=" stroke:none;fill-rule:nonzero;fill:rgb(0%,0%,0%);fill-opacity:0.4;" d="M 14.25 13.875 C 11.132812 13.875 8.625 16.382812 8.625 19.5 C 8.625 19.625 8.628906 19.75 8.636719 19.871094 C 8.828125 16.929688 11.257812 14.621094 14.25 14.621094 L 34.125 14.621094 C 37.117188 14.621094 39.546875 16.929688 39.738281 19.871094 C 39.746094 19.75 39.75 19.625 39.75 19.5 C 39.75 16.382812 37.242188 13.875 34.125 13.875 Z M 14.25 13.875 "/>
<path style=" stroke:none;fill-rule:nonzero;fill:rgb(0%,0%,0%);fill-opacity:0.4;" d="M 34.125 16.125 C 33.789062 16.125 33.460938 16.175781 33.15625 16.265625 L 33.257812 16.613281 C 33.535156 16.539062 33.824219 16.5 34.125 16.5 C 34.425781 16.5 34.714844 16.539062 34.992188 16.613281 L 35.09375 16.265625 C 34.789062 16.175781 34.460938 16.125 34.125 16.125 Z M 31.808594 17.042969 C 31.578125 17.265625 31.371094 17.519531 31.203125 17.8125 C 31.035156 18.105469 30.914062 18.410156 30.839844 18.722656 L 30.941406 18.746094 C 31.011719 18.558594 31.097656 18.367188 31.203125 18.1875 C 31.371094 17.894531 31.578125 17.640625 31.808594 17.417969 L 32.578125 18.234375 C 32.832031 18 33.136719 17.820312 33.480469 17.71875 L 33.375 17.378906 C 33.078125 17.480469 32.804688 17.648438 32.578125 17.859375 Z M 36.441406 17.042969 L 35.671875 17.859375 C 35.445312 17.648438 35.171875 17.484375 34.875 17.378906 L 34.769531 17.71875 C 35.113281 17.820312 35.417969 18 35.671875 18.234375 L 36.441406 17.417969 C 36.671875 17.636719 36.878906 17.894531 37.046875 18.1875 C 37.152344 18.367188 37.238281 18.558594 37.308594 18.746094 L 37.410156 18.722656 C 37.335938 18.410156 37.214844 18.105469 37.046875 17.8125 C 36.878906 17.519531 36.671875 17.261719 36.441406 17.042969 Z M 31.878906 19.34375 C 31.878906 19.394531 31.875 19.449219 31.875 19.5 C 31.875 19.5625 31.878906 19.625 31.882812 19.6875 C 31.890625 19.574219 31.910156 19.464844 31.933594 19.355469 Z M 36.371094 19.34375 L 36.316406 19.355469 C 36.339844 19.464844 36.359375 19.574219 36.367188 19.6875 C 36.371094 19.625 36.375 19.5625 36.375 19.5 C 36.375 19.449219 36.371094 19.394531 36.371094 19.34375 Z M 31.878906 20.03125 L 30.839844 20.277344 C 30.867188 20.394531 30.902344 20.511719 30.941406 20.628906 L 31.933594 20.394531 C 31.90625 20.277344 31.890625 20.15625 31.878906 20.03125 Z M 36.371094 20.03125 C 36.359375 20.15625 36.34375 20.277344 36.316406 20.394531 L 37.308594 20.628906 C 37.347656 20.511719 37.382812 20.394531 37.410156 20.277344 Z M 33.375 22 L 33.15625 22.734375 C 33.191406 22.746094 33.222656 22.753906 33.257812 22.761719 L 33.480469 22.03125 C 33.445312 22.019531 33.410156 22.011719 33.375 22 Z M 34.875 22 C 34.839844 22.011719 34.804688 22.019531 34.769531 22.03125 L 34.992188 22.761719 C 35.027344 22.753906 35.058594 22.746094 35.09375 22.734375 Z M 34.875 22 "/>
<path style=" stroke:none;fill-rule:nonzero;fill:rgb(100%,100%,100%);fill-opacity:0.4;" d="M 33.257812 16.613281 C 33.222656 16.621094 33.191406 16.628906 33.15625 16.640625 L 33.375 17.378906 C 33.410156 17.367188 33.445312 17.355469 33.480469 17.34375 Z M 34.992188 16.613281 L 34.769531 17.34375 C 34.804688 17.355469 34.839844 17.367188 34.875 17.378906 L 35.09375 16.640625 C 35.058594 16.628906 35.027344 16.621094 34.992188 16.613281 Z M 30.941406 18.746094 C 30.902344 18.863281 30.867188 18.980469 30.839844 19.097656 L 31.878906 19.34375 C 31.890625 19.21875 31.90625 19.097656 31.933594 18.980469 Z M 37.308594 18.746094 L 36.316406 18.980469 C 36.34375 19.097656 36.359375 19.21875 36.371094 19.34375 L 37.410156 19.097656 C 37.382812 18.980469 37.347656 18.863281 37.308594 18.746094 Z M 31.882812 19.6875 C 31.878906 19.75 31.875 19.8125 31.875 19.875 C 31.875 19.925781 31.878906 19.980469 31.878906 20.03125 L 31.933594 20.019531 C 31.910156 19.910156 31.890625 19.800781 31.882812 19.6875 Z M 36.367188 19.6875 C 36.359375 19.800781 36.339844 19.910156 36.316406 20.019531 L 36.371094 20.03125 C 36.371094 19.980469 36.375 19.925781 36.375 19.875 C 36.375 19.8125 36.371094 19.75 36.367188 19.6875 Z M 30.941406 20.628906 L 30.839844 20.652344 C 30.914062 20.964844 31.035156 21.269531 31.203125 21.5625 C 31.371094 21.855469 31.578125 22.113281 31.808594 22.332031 L 32.578125 21.515625 C 32.804688 21.726562 33.078125 21.894531 33.375 22 L 33.480469 21.65625 C 33.136719 21.554688 32.832031 21.375 32.578125 21.140625 L 31.808594 21.957031 C 31.578125 21.738281 31.371094 21.480469 31.203125 21.1875 C 31.097656 21.007812 31.011719 20.816406 30.941406 20.628906 Z M 37.308594 20.628906 C 37.238281 20.816406 37.152344 21.007812 37.046875 21.1875 C 36.878906 21.480469 36.671875 21.734375 36.441406 21.957031 L 35.671875 21.140625 C 35.417969 21.375 35.113281 21.554688 34.769531 21.65625 L 34.875 22 C 35.171875 21.894531 35.445312 21.726562 35.671875 21.515625 L 36.441406 22.332031 C 36.671875 22.109375 36.878906 21.855469 37.046875 21.5625 C 37.214844 21.269531 37.335938 20.964844 37.410156 20.652344 Z M 33.257812 22.761719 L 33.15625 23.109375 C 33.460938 23.199219 33.789062 23.25 34.125 23.25 C 34.460938 23.25 34.789062 23.199219 35.09375 23.109375 L 34.992188 22.761719 C 34.714844 22.835938 34.425781 22.875 34.125 22.875 C 33.824219 22.875 33.535156 22.835938 33.257812 22.761719 Z M 33.257812 22.761719 "/>
<path style=" stroke:none;fill-rule:nonzero;fill:rgb(0%,0%,0%);fill-opacity:0.4;" d="M 14.25 16.125 C 13.914062 16.125 13.585938 16.175781 13.28125 16.265625 L 13.382812 16.609375 C 13.660156 16.539062 13.949219 16.5 14.25 16.5 C 14.550781 16.5 14.839844 16.539062 15.117188 16.609375 L 15.21875 16.265625 C 14.914062 16.175781 14.585938 16.125 14.25 16.125 Z M 11.933594 17.042969 C 11.703125 17.265625 11.496094 17.519531 11.328125 17.8125 C 11.160156 18.105469 11.039062 18.410156 10.964844 18.722656 L 11.070312 18.746094 C 11.136719 18.558594 11.222656 18.371094 11.328125 18.1875 C 11.496094 17.894531 11.703125 17.640625 11.933594 17.417969 L 12.703125 18.238281 C 12.957031 18 13.261719 17.820312 13.605469 17.71875 L 13.5 17.378906 C 13.203125 17.484375 12.929688 17.648438 12.703125 17.863281 Z M 16.566406 17.042969 L 15.796875 17.859375 C 15.570312 17.648438 15.296875 17.484375 15 17.378906 L 14.894531 17.71875 C 15.238281 17.820312 15.542969 18 15.796875 18.234375 L 16.566406 17.417969 C 16.796875 17.640625 17.003906 17.894531 17.171875 18.1875 C 17.277344 18.371094 17.363281 18.558594 17.433594 18.746094 L 17.535156 18.722656 C 17.460938 18.410156 17.339844 18.105469 17.171875 17.8125 C 17.003906 17.519531 16.796875 17.261719 16.566406 17.042969 Z M 12.007812 19.34375 C 12.003906 19.394531 12 19.449219 12 19.5 C 12 19.5625 12.003906 19.625 12.007812 19.6875 C 12.015625 19.574219 12.035156 19.464844 12.058594 19.355469 Z M 16.496094 19.34375 L 16.441406 19.359375 C 16.464844 19.464844 16.484375 19.574219 16.492188 19.6875 C 16.496094 19.625 16.5 19.5625 16.5 19.5 C 16.5 19.449219 16.496094 19.394531 16.492188 19.34375 Z M 12.007812 20.03125 L 10.964844 20.277344 C 10.992188 20.394531 11.027344 20.511719 11.070312 20.628906 L 12.058594 20.394531 C 12.03125 20.277344 12.015625 20.15625 12.007812 20.03125 Z M 16.496094 20.03125 C 16.484375 20.15625 16.46875 20.277344 16.441406 20.394531 L 17.433594 20.628906 C 17.472656 20.511719 17.507812 20.394531 17.535156 20.277344 Z M 13.5 22 L 13.28125 22.734375 C 13.316406 22.746094 13.347656 22.753906 13.382812 22.761719 L 13.605469 22.03125 C 13.570312 22.019531 13.535156 22.011719 13.5 22 Z M 15 22 C 14.964844 22.011719 14.929688 22.023438 14.894531 22.03125 L 15.117188 22.765625 C 15.152344 22.753906 15.183594 22.742188 15.21875 22.734375 Z M 15 22 "/>
<path style=" stroke:none;fill-rule:nonzero;fill:rgb(100%,100%,100%);fill-opacity:0.4;" d="M 13.382812 16.613281 C 13.347656 16.621094 13.316406 16.632812 13.28125 16.640625 L 13.5 17.378906 C 13.535156 17.367188 13.570312 17.355469 13.605469 17.34375 Z M 15.117188 16.613281 L 14.894531 17.34375 C 14.929688 17.355469 14.964844 17.367188 15 17.378906 L 15.21875 16.640625 C 15.183594 16.628906 15.152344 16.621094 15.117188 16.613281 Z M 11.070312 18.746094 C 11.027344 18.863281 10.992188 18.980469 10.964844 19.097656 L 12.007812 19.34375 C 12.015625 19.21875 12.03125 19.097656 12.058594 18.980469 Z M 17.433594 18.746094 L 16.441406 18.980469 C 16.46875 19.097656 16.484375 19.21875 16.496094 19.34375 L 17.535156 19.097656 C 17.507812 18.980469 17.472656 18.863281 17.433594 18.746094 Z M 12.007812 19.6875 C 12.003906 19.75 12 19.8125 12 19.875 C 12 19.925781 12.003906 19.980469 12.007812 20.03125 L 12.058594 20.015625 C 12.035156 19.910156 12.015625 19.800781 12.007812 19.6875 Z M 16.492188 19.6875 C 16.484375 19.800781 16.464844 19.910156 16.441406 20.019531 L 16.496094 20.03125 C 16.496094 19.980469 16.5 19.929688 16.5 19.875 C 16.5 19.8125 16.496094 19.75 16.492188 19.6875 Z M 11.070312 20.628906 L 10.964844 20.652344 C 11.039062 20.964844 11.160156 21.269531 11.328125 21.5625 C 11.496094 21.855469 11.703125 22.113281 11.933594 22.332031 L 12.703125 21.515625 C 12.929688 21.726562 13.203125 21.894531 13.5 22 L 13.605469 21.65625 C 13.261719 21.554688 12.957031 21.375 12.703125 21.140625 L 11.933594 21.957031 C 11.703125 21.738281 11.496094 21.480469 11.328125 21.1875 C 11.222656 21.007812 11.136719 20.820312 11.066406 20.628906 Z M 17.433594 20.628906 C 17.363281 20.816406 17.277344 21.007812 17.171875 21.1875 C 17.003906 21.480469 16.796875 21.734375 16.566406 21.957031 L 15.796875 21.140625 C 15.542969 21.375 15.238281 21.554688 14.894531 21.65625 L 15 22 C 15.296875 21.894531 15.570312 21.726562 15.796875 21.515625 L 16.566406 22.332031 C 16.796875 22.109375 17.003906 21.855469 17.171875 21.5625 C 17.339844 21.269531 17.460938 20.964844 17.535156 20.652344 Z M 13.382812 22.765625 L 13.28125 23.109375 C 13.585938 23.199219 13.914062 23.25 14.25 23.25 C 14.585938 23.25 14.914062 23.199219 15.21875 23.109375 L 15.117188 22.765625 C 14.839844 22.835938 14.550781 22.875 14.25 22.875 C 13.949219 22.875 13.660156 22.835938 13.382812 22.765625 Z M 13.382812 22.765625 "/>
<path style=" stroke:none;fill-rule:nonzero;fill:rgb(100%,100%,100%);fill-opacity:0.8;" d="M 8.292969 20.945312 C 8.632812 23.941406 11.160156 26.253906 14.25 26.253906 L 34.125 26.253906 C 37.210938 26.253906 39.738281 23.945312 40.082031 20.953125 L 39.9375 20.953125 C 39.378906 23.207031 37.566406 24.949219 35.269531 25.386719 C 34.898438 25.464844 34.515625 25.503906 34.125 25.503906 L 14.25 25.503906 C 13.859375 25.503906 13.476562 25.464844 13.105469 25.386719 C 10.808594 24.949219 8.992188 23.203125 8.4375 20.949219 C 8.386719 20.949219 8.339844 20.945312 8.292969 20.945312 Z M 8.292969 20.945312 "/>
<path style=" stroke:none;fill-rule:nonzero;fill:url(#linear0);" d="M 6 7.5 L 42 7.5 C 43.65625 7.5 45 8.84375 45 10.5 L 45 36 C 45 37.65625 43.65625 39 42 39 L 6 39 C 4.34375 39 3 37.65625 3 36 L 3 10.5 C 3 8.84375 4.34375 7.5 6 7.5 Z M 6 7.5 "/>
<path style=" stroke:none;fill-rule:nonzero;fill:rgb(38.039216%,38.039216%,38.039216%);fill-opacity:1;" d="M 4.5 15 L 4.5 24 L 10.277344 24 C 9.03125 22.902344 8.25 21.296875 8.25 19.5 C 8.25 17.703125 9.03125 16.097656 10.277344 15 Z M 38.097656 15 C 39.34375 16.097656 40.125 17.703125 40.125 19.5 C 40.125 21.296875 39.34375 22.902344 38.097656 24 L 43.5 24 L 43.5 15 Z M 38.097656 15 "/>
</g>
</svg>
