
<svg xmlns="http://www.w3.org/2000/svg" xmlns:xlink="http://www.w3.org/1999/xlink" width="48" height="48" viewBox="0 0 48 48" version="1.1">
<defs>
<linearGradient id="linear0" gradientUnits="userSpaceOnUse" x1="6.35" y1="-199.125" x2="6.35" y2="-209.179169" gradientTransform="matrix(2.834646,0,0,2.834646,13.5,595.948851)">
<stop offset="0" style="stop-color:rgb(0%,0%,0%);stop-opacity:0.2;"/>
<stop offset="1" style="stop-color:rgb(100%,100%,100%);stop-opacity:0;"/>
</linearGradient>
<linearGradient id="linear1" gradientUnits="userSpaceOnUse" x1="6.35" y1="-199.125" x2="6.35" y2="-209.179169" gradientTransform="matrix(2.834646,0,0,2.834646,0,609.448851)">
<stop offset="0" style="stop-color:rgb(0%,0%,0%);stop-opacity:0.2;"/>
<stop offset="1" style="stop-color:rgb(100%,100%,100%);stop-opacity:0;"/>
</linearGradient>
</defs>
<g id="surface1">
<path style=" stroke:none;fill-rule:nonzero;fill:rgb(87.843138%,87.843138%,87.843138%);fill-opacity:1;" d="M 19.5 3 L 42 3 C 43.65625 3 45 4.34375 45 6 L 45 28.5 C 45 30.15625 43.65625 31.5 42 31.5 L 19.5 31.5 C 17.84375 31.5 16.5 30.15625 16.5 28.5 L 16.5 6 C 16.5 4.34375 17.84375 3 19.5 3 Z M 19.5 3 "/>
<path style=" stroke:none;fill-rule:nonzero;fill:rgb(100%,100%,100%);fill-opacity:0.6;" d="M 19.5 3 C 17.839844 3 16.5 4.339844 16.5 6 L 16.5 6.75 C 16.5 5.089844 17.839844 3.75 19.5 3.75 L 42 3.75 C 43.660156 3.75 45 5.089844 45 6.75 L 45 6 C 45 4.339844 43.660156 3 42 3 Z M 19.5 3 "/>
<path style=" stroke:none;fill-rule:nonzero;fill:rgb(0.784314%,0.784314%,0.784314%);fill-opacity:0.4;" d="M 19.5 31.5 C 17.839844 31.5 16.5 30.160156 16.5 28.5 L 16.5 27.75 C 16.5 29.410156 17.839844 30.75 19.5 30.75 L 42 30.75 C 43.660156 30.75 45 29.410156 45 27.75 L 45 28.5 C 45 30.160156 43.660156 31.5 42 31.5 Z M 19.5 31.5 "/>
<path style=" stroke:none;fill-rule:nonzero;fill:rgb(0%,0%,0%);fill-opacity:0.2;" d="M 16.5 28.5 L 16.5 29.625 C 16.5 31.285156 17.839844 32.625 19.5 32.625 L 42 32.625 C 43.660156 32.625 45 31.285156 45 29.625 L 45 28.5 C 45 30.160156 43.660156 31.5 42 31.5 L 19.5 31.5 C 17.839844 31.5 16.5 30.160156 16.5 28.5 Z M 16.5 28.5 "/>
<path style=" stroke:none;fill-rule:nonzero;fill:rgb(92.54902%,25.098041%,47.843137%);fill-opacity:1;" d="M 29.769531 8.996094 C 29.277344 8.976562 28.855469 9.335938 28.789062 9.824219 C 28.703125 10.371094 28.628906 10.914062 28.566406 11.449219 C 27.691406 11.449219 26.921875 11.371094 26.003906 11.257812 C 25.664062 11.210938 25.324219 11.351562 25.113281 11.628906 C 24.90625 11.902344 24.859375 12.269531 24.996094 12.585938 C 25.132812 12.902344 25.429688 13.121094 25.773438 13.15625 C 26.675781 13.265625 27.496094 13.34375 28.414062 13.351562 C 28.382812 14.042969 28.382812 14.71875 28.425781 15.382812 C 25.8125 16.445312 24.597656 18.726562 25.039062 20.59375 C 25.277344 21.609375 26.238281 22.484375 27.421875 22.5 C 28.359375 22.511719 29.351562 22.125 30.453125 21.316406 C 30.820312 21.578125 31.316406 21.554688 31.652344 21.257812 C 31.992188 20.957031 32.074219 20.464844 31.855469 20.074219 C 32.644531 19.246094 33.289062 18.464844 33.808594 17.652344 C 34.0625 17.839844 34.257812 18.019531 34.382812 18.183594 C 34.671875 18.546875 34.703125 18.785156 34.664062 19.03125 C 34.59375 19.527344 33.914062 20.253906 32.941406 20.589844 C 32.613281 20.695312 32.367188 20.976562 32.300781 21.3125 C 32.234375 21.652344 32.355469 22 32.617188 22.226562 C 32.878906 22.453125 33.242188 22.515625 33.566406 22.398438 C 35.015625 21.894531 36.324219 20.859375 36.558594 19.320312 C 36.675781 18.550781 36.441406 17.707031 35.890625 17 C 35.585938 16.613281 35.191406 16.265625 34.707031 15.9375 C 34.730469 15.878906 34.761719 15.824219 34.78125 15.765625 C 34.90625 15.464844 34.871094 15.121094 34.6875 14.855469 C 34.5 14.585938 34.191406 14.429688 33.867188 14.441406 C 33.480469 14.457031 33.144531 14.699219 33.003906 15.054688 C 33.003906 15.058594 33.003906 15.066406 33 15.070312 C 32.160156 14.816406 31.367188 14.714844 30.316406 14.875 C 30.296875 14.355469 30.304688 13.816406 30.332031 13.261719 C 31.566406 13.144531 33.054688 12.914062 35.046875 12.503906 C 35.539062 12.414062 35.878906 11.953125 35.820312 11.453125 C 35.761719 10.957031 35.328125 10.585938 34.824219 10.609375 C 34.773438 10.609375 34.71875 10.617188 34.664062 10.632812 C 32.890625 10.996094 31.578125 11.214844 30.507812 11.332031 C 30.558594 10.9375 30.613281 10.53125 30.679688 10.117188 C 30.722656 9.84375 30.648438 9.566406 30.476562 9.351562 C 30.304688 9.136719 30.046875 9.007812 29.769531 9 Z M 31.273438 16.664062 C 31.296875 16.664062 31.324219 16.664062 31.347656 16.664062 C 31.589844 16.667969 31.828125 16.71875 32.085938 16.792969 C 31.765625 17.269531 31.386719 17.746094 30.925781 18.257812 C 30.75 17.777344 30.617188 17.28125 30.519531 16.761719 C 30.816406 16.699219 31.054688 16.667969 31.273438 16.664062 Z M 28.691406 17.375 C 28.859375 18.171875 29.101562 18.9375 29.441406 19.675781 C 28.496094 20.382812 27.792969 20.589844 27.441406 20.585938 C 27.019531 20.582031 26.984375 20.5 26.902344 20.152344 C 26.765625 19.574219 27.171875 18.207031 28.691406 17.375 Z M 28.691406 17.375 "/>
<path style=" stroke:none;fill-rule:nonzero;fill:rgb(100%,100%,100%);fill-opacity:0.4;" d="M 29.679688 9 C 29.226562 9.023438 28.851562 9.363281 28.785156 9.820312 C 28.703125 10.371094 28.628906 10.914062 28.566406 11.449219 C 27.691406 11.449219 26.921875 11.371094 26.003906 11.257812 C 25.664062 11.210938 25.324219 11.351562 25.113281 11.628906 C 24.90625 11.902344 24.859375 12.265625 24.996094 12.582031 C 25.027344 12.511719 25.066406 12.441406 25.113281 12.378906 C 25.324219 12.101562 25.664062 11.960938 26.003906 12.007812 C 26.921875 12.121094 27.691406 12.199219 28.566406 12.199219 C 28.628906 11.664062 28.703125 11.121094 28.785156 10.570312 C 28.855469 10.082031 29.277344 9.730469 29.769531 9.75 C 30.046875 9.757812 30.304688 9.886719 30.476562 10.101562 C 30.546875 10.1875 30.601562 10.289062 30.636719 10.394531 C 30.652344 10.300781 30.664062 10.210938 30.679688 10.117188 C 30.722656 9.84375 30.648438 9.566406 30.476562 9.351562 C 30.304688 9.136719 30.046875 9.007812 29.769531 9 C 29.738281 8.996094 29.710938 8.996094 29.679688 9 Z M 34.824219 10.609375 C 34.773438 10.609375 34.71875 10.617188 34.664062 10.632812 C 32.945312 10.984375 31.664062 11.199219 30.609375 11.320312 C 30.574219 11.578125 30.539062 11.832031 30.507812 12.082031 C 31.578125 11.964844 32.890625 11.746094 34.664062 11.382812 C 34.71875 11.367188 34.773438 11.359375 34.824219 11.359375 C 35.234375 11.339844 35.597656 11.582031 35.75 11.9375 C 35.8125 11.789062 35.839844 11.625 35.820312 11.453125 C 35.761719 10.953125 35.328125 10.585938 34.824219 10.609375 Z M 28.394531 14.101562 C 28.390625 14.289062 28.390625 14.476562 28.394531 14.660156 C 28.398438 14.476562 28.40625 14.289062 28.414062 14.101562 C 28.40625 14.101562 28.402344 14.101562 28.394531 14.101562 Z M 33.867188 14.441406 C 33.480469 14.457031 33.144531 14.695312 33.003906 15.054688 C 33.003906 15.058594 33.003906 15.066406 33 15.070312 C 32.160156 14.816406 31.367188 14.714844 30.316406 14.878906 C 30.3125 14.8125 30.3125 14.75 30.308594 14.6875 C 30.304688 15.003906 30.304688 15.320312 30.316406 15.628906 C 31.367188 15.464844 32.160156 15.566406 33 15.820312 C 33.003906 15.816406 33.003906 15.808594 33.003906 15.804688 C 33.144531 15.445312 33.480469 15.207031 33.867188 15.191406 C 34.191406 15.179688 34.5 15.335938 34.6875 15.605469 C 34.722656 15.660156 34.753906 15.714844 34.78125 15.773438 C 34.78125 15.769531 34.78125 15.769531 34.78125 15.765625 C 34.90625 15.464844 34.871094 15.121094 34.6875 14.855469 C 34.5 14.585938 34.191406 14.429688 33.867188 14.441406 Z M 28.394531 15.394531 C 25.984375 16.386719 24.777344 18.417969 24.972656 20.195312 C 25.136719 18.617188 26.332031 16.984375 28.425781 16.132812 C 28.410156 15.886719 28.402344 15.640625 28.394531 15.394531 Z M 34.851562 16.039062 C 34.867188 16.199219 34.847656 16.363281 34.78125 16.515625 C 34.761719 16.574219 34.734375 16.628906 34.707031 16.6875 C 35.191406 17.015625 35.585938 17.363281 35.886719 17.75 C 36.261719 18.222656 36.488281 18.761719 36.5625 19.292969 C 36.667969 18.53125 36.4375 17.695312 35.886719 17 C 35.617188 16.652344 35.269531 16.335938 34.851562 16.039062 Z M 31.617188 17.4375 C 31.410156 17.703125 31.179688 17.976562 30.925781 18.257812 C 30.835938 18.003906 30.753906 17.746094 30.683594 17.480469 C 30.628906 17.488281 30.574219 17.5 30.519531 17.511719 C 30.617188 18.03125 30.75 18.53125 30.925781 19.007812 C 31.386719 18.496094 31.765625 18.019531 32.085938 17.542969 C 31.921875 17.496094 31.769531 17.457031 31.617188 17.4375 Z M 34.59375 19.265625 C 34.382812 19.734375 33.769531 20.300781 32.941406 20.589844 C 32.613281 20.695312 32.367188 20.976562 32.300781 21.3125 C 32.261719 21.503906 32.285156 21.699219 32.359375 21.875 C 32.46875 21.625 32.675781 21.425781 32.941406 21.339844 C 33.914062 21 34.589844 20.277344 34.664062 19.78125 C 34.691406 19.617188 34.683594 19.460938 34.59375 19.265625 Z M 29.199219 19.847656 C 28.375 20.414062 27.761719 20.589844 27.441406 20.585938 C 27.066406 20.582031 26.996094 20.515625 26.929688 20.257812 C 26.867188 20.515625 26.863281 20.742188 26.902344 20.902344 C 26.984375 21.25 27.019531 21.332031 27.441406 21.335938 C 27.792969 21.339844 28.496094 21.132812 29.441406 20.425781 C 29.355469 20.234375 29.273438 20.042969 29.199219 19.847656 Z M 31.960938 20.710938 C 31.925781 20.75 31.890625 20.785156 31.855469 20.824219 C 31.871094 20.855469 31.886719 20.886719 31.898438 20.917969 C 31.925781 20.851562 31.945312 20.78125 31.960938 20.710938 Z M 31.960938 20.710938 "/>
<path style=" stroke:none;fill-rule:nonzero;fill:rgb(0%,0%,0%);fill-opacity:0.4;" d="M 30.632812 10.417969 C 30.589844 10.730469 30.546875 11.039062 30.507812 11.339844 C 30.542969 11.335938 30.582031 11.332031 30.613281 11.328125 C 30.636719 11.183594 30.65625 11.042969 30.679688 10.898438 C 30.707031 10.734375 30.6875 10.570312 30.632812 10.417969 Z M 35.742188 11.957031 C 35.621094 12.238281 35.367188 12.453125 35.046875 12.511719 C 33.054688 12.917969 31.566406 13.152344 30.332031 13.265625 C 30.308594 13.761719 30.300781 14.238281 30.308594 14.707031 C 30.316406 14.488281 30.324219 14.269531 30.332031 14.042969 C 31.566406 13.929688 33.054688 13.695312 35.046875 13.289062 C 35.539062 13.195312 35.878906 12.738281 35.820312 12.238281 C 35.808594 12.140625 35.78125 12.046875 35.742188 11.957031 Z M 25.003906 12.601562 C 24.894531 12.84375 24.890625 13.121094 24.996094 13.371094 C 25.132812 13.683594 25.429688 13.90625 25.777344 13.941406 C 26.671875 14.050781 27.484375 14.128906 28.394531 14.132812 C 28.394531 13.878906 28.402344 13.617188 28.414062 13.359375 C 27.496094 13.351562 26.675781 13.273438 25.777344 13.164062 C 25.433594 13.128906 25.140625 12.914062 25.003906 12.601562 Z M 28.398438 14.679688 C 28.394531 14.921875 28.390625 15.164062 28.394531 15.402344 C 28.40625 15.398438 28.414062 15.390625 28.425781 15.386719 C 28.410156 15.152344 28.402344 14.917969 28.398438 14.679688 Z M 34.773438 15.792969 C 34.753906 15.84375 34.730469 15.894531 34.707031 15.945312 C 34.753906 15.976562 34.800781 16.011719 34.847656 16.042969 C 34.832031 15.957031 34.808594 15.875 34.773438 15.792969 Z M 31.269531 16.667969 L 31.269531 16.671875 C 31.054688 16.675781 30.816406 16.707031 30.519531 16.769531 C 30.566406 17.023438 30.625 17.269531 30.691406 17.511719 C 30.910156 17.472656 31.097656 17.449219 31.269531 17.449219 L 31.269531 17.445312 L 31.347656 17.445312 C 31.433594 17.445312 31.515625 17.453125 31.597656 17.464844 C 31.777344 17.242188 31.9375 17.019531 32.085938 16.800781 C 31.828125 16.726562 31.589844 16.671875 31.347656 16.667969 Z M 28.691406 17.382812 C 27.171875 18.214844 26.765625 19.582031 26.902344 20.160156 C 26.910156 20.203125 26.921875 20.242188 26.929688 20.277344 C 27.089844 19.621094 27.605469 18.753906 28.691406 18.160156 C 28.8125 18.742188 28.976562 19.308594 29.191406 19.863281 C 29.273438 19.804688 29.355469 19.746094 29.441406 19.683594 C 29.101562 18.945312 28.859375 18.175781 28.691406 17.382812 Z M 33.808594 17.65625 C 33.285156 18.46875 32.644531 19.25 31.855469 20.082031 C 31.972656 20.292969 32 20.53125 31.953125 20.753906 C 32.699219 19.960938 33.308594 19.210938 33.808594 18.433594 C 34.058594 18.621094 34.257812 18.804688 34.382812 18.964844 C 34.476562 19.085938 34.542969 19.1875 34.589844 19.285156 C 34.628906 19.199219 34.652344 19.117188 34.664062 19.039062 C 34.703125 18.792969 34.671875 18.554688 34.382812 18.191406 C 34.257812 18.027344 34.058594 17.847656 33.808594 17.65625 Z M 36.558594 19.316406 C 36.558594 19.320312 36.558594 19.324219 36.558594 19.328125 C 36.324219 20.863281 35.015625 21.902344 33.566406 22.40625 C 33.242188 22.523438 32.878906 22.457031 32.617188 22.234375 C 32.507812 22.140625 32.421875 22.023438 32.367188 21.894531 C 32.335938 21.957031 32.3125 22.027344 32.300781 22.097656 C 32.234375 22.4375 32.355469 22.785156 32.617188 23.011719 C 32.878906 23.234375 33.242188 23.300781 33.566406 23.183594 C 35.015625 22.679688 36.324219 21.640625 36.558594 20.105469 C 36.597656 19.847656 36.597656 19.582031 36.558594 19.316406 Z M 24.972656 20.21875 C 24.929688 20.613281 24.953125 21.003906 25.039062 21.375 C 25.277344 22.390625 26.242188 23.269531 27.421875 23.285156 C 28.359375 23.296875 29.351562 22.90625 30.457031 22.097656 C 30.820312 22.363281 31.316406 22.339844 31.652344 22.039062 C 31.96875 21.761719 32.058594 21.3125 31.894531 20.9375 C 31.839844 21.058594 31.757812 21.171875 31.652344 21.261719 C 31.316406 21.5625 30.820312 21.585938 30.457031 21.324219 C 29.351562 22.132812 28.359375 22.519531 27.421875 22.507812 C 26.242188 22.492188 25.277344 21.617188 25.039062 20.601562 C 25.011719 20.472656 24.988281 20.347656 24.972656 20.21875 Z M 24.972656 20.21875 "/>
<path style=" stroke:none;fill-rule:nonzero;fill:url(#linear0);" d="M 19.5 3 L 42 3 C 43.65625 3 45 4.34375 45 6 L 45 28.5 C 45 30.15625 43.65625 31.5 42 31.5 L 19.5 31.5 C 17.84375 31.5 16.5 30.15625 16.5 28.5 L 16.5 6 C 16.5 4.34375 17.84375 3 19.5 3 Z M 19.5 3 "/>
<path style=" stroke:none;fill-rule:nonzero;fill:rgb(49.411765%,34.117648%,76.078433%);fill-opacity:1;" d="M 6 16.5 L 28.5 16.5 C 30.15625 16.5 31.5 17.84375 31.5 19.5 L 31.5 42 C 31.5 43.65625 30.15625 45 28.5 45 L 6 45 C 4.34375 45 3 43.65625 3 42 L 3 19.5 C 3 17.84375 4.34375 16.5 6 16.5 Z M 6 16.5 "/>
<path style=" stroke:none;fill-rule:nonzero;fill:rgb(100%,100%,100%);fill-opacity:0.4;" d="M 6 16.5 C 4.339844 16.5 3 17.839844 3 19.5 L 3 20.25 C 3 18.589844 4.339844 17.25 6 17.25 L 28.5 17.25 C 30.160156 17.25 31.5 18.589844 31.5 20.25 L 31.5 19.5 C 31.5 17.839844 30.160156 16.5 28.5 16.5 Z M 6 16.5 "/>
<path style=" stroke:none;fill-rule:nonzero;fill:rgb(0.784314%,0.784314%,0.784314%);fill-opacity:0.4;" d="M 6 45 C 4.339844 45 3 43.660156 3 42 L 3 41.25 C 3 42.910156 4.339844 44.25 6 44.25 L 28.5 44.25 C 30.160156 44.25 31.5 42.910156 31.5 41.25 L 31.5 42 C 31.5 43.660156 30.160156 45 28.5 45 Z M 6 45 "/>
<path style=" stroke:none;fill-rule:nonzero;fill:rgb(0%,0%,0%);fill-opacity:0.2;" d="M 3 42 L 3 43.125 C 3 44.785156 4.339844 46.125 6 46.125 L 28.5 46.125 C 30.160156 46.125 31.5 44.785156 31.5 43.125 L 31.5 42 C 31.5 43.660156 30.160156 45 28.5 45 L 6 45 C 4.339844 45 3 43.660156 3 42 Z M 3 42 "/>
<path style=" stroke:none;fill-rule:nonzero;fill:rgb(93.333334%,93.333334%,93.333334%);fill-opacity:1;" d="M 17.25 24 C 14.757812 24 12.75 26.007812 12.75 28.5 L 12.75 36.355469 C 12.75 36.363281 12.75 36.367188 12.75 36.375 L 12.75 37.125 C 12.75 37.332031 12.917969 37.5 13.125 37.5 L 13.875 37.5 C 14.082031 37.5 14.25 37.332031 14.25 37.125 L 14.25 36.375 C 14.25 36.371094 14.25 36.363281 14.25 36.355469 L 14.25 33.75 L 20.25 33.75 L 20.25 36.355469 C 20.25 36.363281 20.25 36.367188 20.25 36.375 L 20.25 37.125 C 20.25 37.332031 20.417969 37.5 20.625 37.5 L 21.375 37.5 C 21.582031 37.5 21.75 37.332031 21.75 37.125 L 21.75 36.375 C 21.75 36.371094 21.75 36.363281 21.75 36.355469 L 21.75 28.5 C 21.75 26.007812 19.742188 24 17.25 24 Z M 17.25 25.5 C 18.910156 25.5 20.25 26.839844 20.25 28.5 L 20.25 32.25 L 14.25 32.25 L 14.25 28.5 C 14.25 26.839844 15.589844 25.5 17.25 25.5 Z M 17.25 25.5 "/>
<path style=" stroke:none;fill-rule:nonzero;fill:rgb(100%,100%,100%);fill-opacity:0.8;" d="M 17.25 24 C 14.757812 24 12.75 26.007812 12.75 28.5 L 12.75 29.25 C 12.75 26.757812 14.757812 24.75 17.25 24.75 C 19.742188 24.75 21.75 26.757812 21.75 29.25 L 21.75 28.5 C 21.75 26.007812 19.742188 24 17.25 24 Z M 14.25 32.25 L 14.25 33 L 20.25 33 L 20.25 32.25 Z M 14.25 32.25 "/>
<path style=" stroke:none;fill-rule:nonzero;fill:rgb(0%,0%,0%);fill-opacity:0.4;" d="M 17.25 25.5 C 15.589844 25.5 14.25 26.839844 14.25 28.5 L 14.25 29.25 C 14.25 27.589844 15.589844 26.25 17.25 26.25 C 18.910156 26.25 20.25 27.589844 20.25 29.25 L 20.25 28.5 C 20.25 26.839844 18.910156 25.5 17.25 25.5 Z M 14.25 33.75 L 14.25 34.5 L 20.25 34.5 L 20.25 33.75 Z M 12.75 37.125 L 12.75 37.875 C 12.75 38.085938 12.917969 38.25 13.125 38.25 L 13.875 38.25 C 14.082031 38.25 14.25 38.085938 14.25 37.875 L 14.25 37.125 C 14.25 37.335938 14.082031 37.5 13.875 37.5 L 13.125 37.5 C 12.917969 37.5 12.75 37.335938 12.75 37.125 Z M 20.25 37.125 L 20.25 37.875 C 20.25 38.085938 20.417969 38.25 20.625 38.25 L 21.375 38.25 C 21.582031 38.25 21.75 38.085938 21.75 37.875 L 21.75 37.125 C 21.75 37.335938 21.582031 37.5 21.375 37.5 L 20.625 37.5 C 20.417969 37.5 20.25 37.335938 20.25 37.125 Z M 20.25 37.125 "/>
<path style=" stroke:none;fill-rule:nonzero;fill:url(#linear1);" d="M 6 16.5 L 28.5 16.5 C 30.15625 16.5 31.5 17.84375 31.5 19.5 L 31.5 42 C 31.5 43.65625 30.15625 45 28.5 45 L 6 45 C 4.34375 45 3 43.65625 3 42 L 3 19.5 C 3 17.84375 4.34375 16.5 6 16.5 Z M 6 16.5 "/>
</g>
</svg>
