
<svg xmlns="http://www.w3.org/2000/svg" xmlns:xlink="http://www.w3.org/1999/xlink" width="22" height="22" viewBox="0 0 22 22" version="1.1">
<defs>
<linearGradient id="linear0" gradientUnits="userSpaceOnUse" x1="8.466666" y1="-199.125" x2="8.466666" y2="-213.941666" gradientTransform="matrix(1.299213,0,0,1.299213,0,279.330723)">
<stop offset="0" style="stop-color:rgb(0%,0%,0%);stop-opacity:0.2;"/>
<stop offset="1" style="stop-color:rgb(100%,100%,100%);stop-opacity:0;"/>
</linearGradient>
</defs>
<g id="surface1">
<path style=" stroke:none;fill-rule:nonzero;fill:rgb(36.078432%,41.960785%,75.294119%);fill-opacity:1;" d="M 2.75 1.375 L 19.25 1.375 C 20.007812 1.375 20.625 1.992188 20.625 2.75 L 20.625 19.25 C 20.625 20.007812 20.007812 20.625 19.25 20.625 L 2.75 20.625 C 1.992188 20.625 1.375 20.007812 1.375 19.25 L 1.375 2.75 C 1.375 1.992188 1.992188 1.375 2.75 1.375 Z M 2.75 1.375 "/>
<path style=" stroke:none;fill-rule:nonzero;fill:rgb(90.980393%,91.764706%,96.470588%);fill-opacity:1;" d="M 12.46875 3.4375 C 11.503906 3.582031 10.546875 3.726562 9.585938 3.875 L 9.585938 14.292969 C 10.546875 14.035156 11.503906 13.777344 12.46875 13.519531 L 12.46875 9.492188 C 13.425781 11.078125 14.386719 12.660156 15.347656 14.242188 C 16.308594 13.878906 17.269531 13.519531 18.230469 13.160156 C 17.027344 11.71875 15.828125 10.28125 14.628906 8.839844 C 15.828125 7.277344 17.03125 5.71875 18.230469 4.160156 C 17.296875 3.917969 16.367188 3.679688 15.433594 3.4375 C 14.445312 5.011719 13.457031 6.585938 12.46875 8.160156 Z M 6.601562 6.261719 C 6.242188 6.402344 6.027344 6.777344 5.730469 7.023438 C 5.542969 7.273438 5.054688 7.480469 5.277344 7.855469 C 5.667969 8.464844 6.058594 9.078125 6.449219 9.695312 C 6.390625 10.183594 6.097656 10.375 5.644531 10.398438 C 5.09375 10.53125 4.535156 10.632812 3.988281 10.78125 C 3.699219 10.976562 3.871094 11.382812 3.824219 11.679688 C 3.855469 11.988281 3.75 12.332031 3.902344 12.605469 C 4.4375 12.828125 5.039062 12.878906 5.601562 13.03125 C 5.886719 13.132812 6.34375 13.039062 6.335938 13.480469 C 6.605469 13.800781 6.195312 14.0625 6.070312 14.347656 C 5.792969 14.832031 5.417969 15.269531 5.210938 15.785156 C 5.328125 16.128906 5.699219 16.332031 5.929688 16.613281 C 6.179688 16.800781 6.351562 17.210938 6.699219 17.15625 C 7.339844 16.742188 7.984375 16.339844 8.625 15.925781 C 9.117188 15.996094 9.324219 16.28125 9.347656 16.742188 C 9.496094 17.320312 9.566406 17.929688 9.769531 18.484375 C 10.117188 18.640625 10.539062 18.527344 10.917969 18.5625 C 11.242188 18.519531 11.765625 18.71875 11.832031 18.253906 C 11.988281 17.539062 12.144531 16.824219 12.296875 16.105469 C 12.660156 15.933594 12.996094 15.699219 13.300781 16.082031 C 13.800781 16.441406 14.300781 16.804688 14.808594 17.15625 C 15.164062 17.207031 15.339844 16.785156 15.597656 16.59375 C 15.820312 16.320312 16.1875 16.125 16.296875 15.785156 C 16.128906 15.335938 15.789062 14.964844 15.546875 14.550781 C 15.082031 14.761719 14.925781 14.179688 14.714844 13.894531 C 14.582031 13.675781 14.453125 13.460938 14.324219 13.246094 C 13.597656 15.09375 11.367188 16.128906 9.488281 15.503906 C 7.65625 14.972656 6.417969 12.984375 6.753906 11.101562 C 6.957031 9.738281 7.9375 8.527344 9.226562 8.03125 L 9.226562 7.246094 C 8.878906 7.527344 8.492188 7.539062 8.164062 7.21875 C 7.640625 6.910156 7.148438 6.519531 6.601562 6.261719 Z M 6.601562 6.261719 "/>
<path style=" stroke:none;fill-rule:nonzero;fill:rgb(0%,0%,0%);fill-opacity:0.4;" d="M 18.011719 4.445312 C 16.882812 5.910156 15.753906 7.375 14.625 8.839844 C 14.671875 8.894531 14.71875 8.949219 14.765625 9.003906 C 15.917969 7.503906 17.074219 6.003906 18.230469 4.503906 C 18.15625 4.484375 18.082031 4.464844 18.011719 4.445312 Z M 5.273438 7.84375 C 5.210938 7.945312 5.195312 8.058594 5.277344 8.199219 C 5.648438 8.777344 6.019531 9.359375 6.390625 9.945312 C 6.417969 9.871094 6.4375 9.789062 6.449219 9.695312 C 6.058594 9.078125 5.667969 8.464844 5.277344 7.855469 C 5.277344 7.851562 5.273438 7.847656 5.273438 7.84375 Z M 9.226562 8.03125 C 7.9375 8.527344 6.957031 9.738281 6.753906 11.101562 C 6.707031 11.371094 6.691406 11.636719 6.703125 11.90625 C 6.710938 11.75 6.726562 11.597656 6.753906 11.445312 C 6.957031 10.082031 7.9375 8.871094 9.226562 8.375 Z M 12.46875 9.492188 L 12.46875 9.835938 C 13.425781 11.421875 14.386719 13.003906 15.347656 14.585938 C 16.308594 14.226562 17.269531 13.867188 18.230469 13.503906 C 18.15625 13.417969 18.082031 13.328125 18.011719 13.242188 C 17.125 13.574219 16.234375 13.910156 15.347656 14.242188 C 14.386719 12.660156 13.425781 11.078125 12.46875 9.492188 Z M 3.824219 11.394531 C 3.804688 11.53125 3.824219 11.683594 3.828125 11.832031 C 3.828125 11.78125 3.828125 11.730469 3.824219 11.679688 C 3.835938 11.59375 3.832031 11.496094 3.824219 11.394531 Z M 3.824219 12.34375 C 3.8125 12.554688 3.800781 12.769531 3.902344 12.949219 C 4.4375 13.171875 5.039062 13.222656 5.601562 13.375 C 5.882812 13.476562 6.34375 13.382812 6.335938 13.824219 C 6.351562 13.84375 6.363281 13.863281 6.375 13.882812 C 6.441406 13.753906 6.457031 13.625 6.335938 13.480469 C 6.34375 13.039062 5.882812 13.132812 5.601562 13.03125 C 5.039062 12.878906 4.4375 12.828125 3.902344 12.605469 C 3.859375 12.523438 3.835938 12.433594 3.824219 12.34375 Z M 12.46875 13.523438 C 11.507812 13.777344 10.546875 14.035156 9.585938 14.292969 L 9.585938 14.636719 C 10.546875 14.378906 11.507812 14.121094 12.46875 13.867188 Z M 12.945312 15.875 C 12.742188 15.867188 12.523438 16 12.296875 16.105469 C 12.144531 16.824219 11.988281 17.539062 11.832031 18.253906 C 11.765625 18.714844 11.242188 18.519531 10.917969 18.5625 C 10.539062 18.527344 10.117188 18.644531 9.769531 18.484375 C 9.566406 17.929688 9.496094 17.320312 9.347656 16.742188 C 9.324219 16.28125 9.117188 15.996094 8.625 15.925781 C 7.984375 16.339844 7.339844 16.742188 6.699219 17.15625 C 6.351562 17.210938 6.179688 16.800781 5.929688 16.613281 C 5.738281 16.382812 5.449219 16.199219 5.292969 15.949219 C 5.261719 16.007812 5.234375 16.066406 5.210938 16.128906 C 5.328125 16.472656 5.699219 16.675781 5.929688 16.957031 C 6.179688 17.144531 6.351562 17.554688 6.699219 17.5 C 7.339844 17.085938 7.984375 16.683594 8.625 16.269531 C 9.117188 16.339844 9.324219 16.625 9.347656 17.085938 C 9.496094 17.664062 9.566406 18.273438 9.769531 18.828125 C 10.117188 18.988281 10.539062 18.871094 10.917969 18.90625 C 11.242188 18.863281 11.765625 19.058594 11.832031 18.597656 C 11.988281 17.882812 12.144531 17.167969 12.296875 16.449219 C 12.660156 16.277344 12.996094 16.042969 13.296875 16.425781 C 13.800781 16.78125 14.300781 17.148438 14.808594 17.5 C 15.164062 17.550781 15.339844 17.128906 15.597656 16.941406 C 15.820312 16.664062 16.1875 16.46875 16.296875 16.128906 C 16.273438 16.066406 16.246094 16.007812 16.21875 15.949219 C 16.066406 16.195312 15.78125 16.367188 15.597656 16.597656 C 15.339844 16.785156 15.164062 17.207031 14.808594 17.15625 C 14.300781 16.804688 13.800781 16.4375 13.296875 16.082031 C 13.183594 15.9375 13.066406 15.882812 12.945312 15.875 Z M 12.945312 15.875 "/>
<path style=" stroke:none;fill-rule:nonzero;fill:rgb(0%,0%,0%);fill-opacity:0.4;" d="M 1.375 18.90625 L 1.375 19.25 C 1.375 20.011719 1.988281 20.625 2.75 20.625 L 19.25 20.625 C 20.011719 20.625 20.625 20.011719 20.625 19.25 L 20.625 18.90625 C 20.625 19.667969 20.011719 20.28125 19.25 20.28125 L 2.75 20.28125 C 1.988281 20.28125 1.375 19.667969 1.375 18.90625 Z M 1.375 18.90625 "/>
<path style=" stroke:none;fill-rule:nonzero;fill:rgb(0%,0%,0%);fill-opacity:0.2;" d="M 1.375 19.25 L 1.375 19.765625 C 1.375 20.527344 1.988281 21.140625 2.75 21.140625 L 19.25 21.140625 C 20.011719 21.140625 20.625 20.527344 20.625 19.765625 L 20.625 19.25 C 20.625 20.011719 20.011719 20.625 19.25 20.625 L 2.75 20.625 C 1.988281 20.625 1.375 20.011719 1.375 19.25 Z M 1.375 19.25 "/>
<path style=" stroke:none;fill-rule:nonzero;fill:rgb(100%,100%,100%);fill-opacity:0.4;" d="M 2.75 1.375 C 1.988281 1.375 1.375 1.988281 1.375 2.75 L 1.375 3.089844 C 1.375 2.328125 1.988281 1.714844 2.75 1.714844 L 19.25 1.714844 C 20.011719 1.714844 20.625 2.328125 20.625 3.089844 L 20.625 2.75 C 20.625 1.988281 20.011719 1.375 19.25 1.375 Z M 2.75 1.375 "/>
<path style=" stroke:none;fill-rule:nonzero;fill:rgb(99.215686%,99.215686%,99.215686%);fill-opacity:1;" d="M 12.46875 3.4375 C 11.507812 3.582031 10.546875 3.726562 9.585938 3.875 L 9.585938 4.21875 C 10.546875 4.070312 11.507812 3.925781 12.46875 3.78125 Z M 15.433594 3.4375 C 14.445312 5.011719 13.457031 6.585938 12.46875 8.160156 L 12.46875 8.503906 C 13.457031 6.929688 14.445312 5.355469 15.433594 3.78125 C 16.292969 4.003906 17.152344 4.222656 18.011719 4.445312 C 18.082031 4.351562 18.15625 4.253906 18.230469 4.160156 C 17.296875 3.917969 16.367188 3.679688 15.433594 3.4375 Z M 6.601562 6.261719 C 6.242188 6.402344 6.027344 6.777344 5.730469 7.023438 C 5.546875 7.269531 5.066406 7.476562 5.273438 7.84375 C 5.375 7.667969 5.613281 7.523438 5.730469 7.367188 C 6.027344 7.121094 6.242188 6.746094 6.601562 6.605469 C 7.148438 6.863281 7.640625 7.253906 8.167969 7.5625 C 8.492188 7.882812 8.878906 7.871094 9.226562 7.589844 L 9.226562 7.246094 C 8.878906 7.527344 8.492188 7.539062 8.167969 7.21875 C 7.640625 6.910156 7.148438 6.519531 6.601562 6.261719 Z M 14.765625 9.003906 C 14.71875 9.0625 14.671875 9.125 14.625 9.183594 C 15.753906 10.535156 16.882812 11.890625 18.011719 13.242188 C 18.082031 13.214844 18.15625 13.1875 18.230469 13.160156 C 17.074219 11.773438 15.917969 10.390625 14.765625 9.003906 Z M 6.390625 9.945312 C 6.273438 10.25 6.011719 10.378906 5.644531 10.402344 C 5.09375 10.53125 4.535156 10.632812 3.988281 10.78125 C 3.785156 10.917969 3.808594 11.160156 3.824219 11.394531 C 3.84375 11.289062 3.886719 11.191406 3.988281 11.125 C 4.535156 10.976562 5.09375 10.875 5.644531 10.746094 C 6.097656 10.71875 6.390625 10.527344 6.449219 10.039062 C 6.429688 10.007812 6.410156 9.976562 6.390625 9.945312 Z M 3.828125 11.832031 C 3.828125 12 3.804688 12.179688 3.824219 12.34375 C 3.828125 12.234375 3.835938 12.128906 3.824219 12.023438 C 3.832031 11.964844 3.832031 11.898438 3.828125 11.832031 Z M 6.703125 11.90625 C 6.621094 13.640625 7.804688 15.359375 9.488281 15.847656 C 11.367188 16.472656 13.597656 15.4375 14.324219 13.589844 C 14.453125 13.804688 14.582031 14.023438 14.714844 14.238281 C 14.921875 14.523438 15.082031 15.105469 15.546875 14.894531 C 15.757812 15.253906 16.039062 15.578125 16.21875 15.949219 C 16.25 15.898438 16.277344 15.84375 16.296875 15.78125 C 16.128906 15.335938 15.789062 14.964844 15.546875 14.550781 C 15.082031 14.761719 14.921875 14.179688 14.714844 13.894531 C 14.582031 13.679688 14.453125 13.460938 14.324219 13.246094 C 13.597656 15.09375 11.367188 16.128906 9.488281 15.503906 C 7.914062 15.046875 6.78125 13.519531 6.703125 11.90625 Z M 6.375 13.882812 C 6.296875 14.039062 6.140625 14.1875 6.070312 14.347656 C 5.792969 14.832031 5.417969 15.269531 5.210938 15.785156 C 5.230469 15.84375 5.257812 15.894531 5.292969 15.949219 C 5.503906 15.507812 5.824219 15.117188 6.070312 14.691406 C 6.1875 14.421875 6.558594 14.175781 6.375 13.882812 Z M 6.375 13.882812 "/>
<path style=" stroke:none;fill-rule:nonzero;fill:url(#linear0);" d="M 2.75 1.375 L 19.25 1.375 C 20.007812 1.375 20.625 1.992188 20.625 2.75 L 20.625 19.25 C 20.625 20.007812 20.007812 20.625 19.25 20.625 L 2.75 20.625 C 1.992188 20.625 1.375 20.007812 1.375 19.25 L 1.375 2.75 C 1.375 1.992188 1.992188 1.375 2.75 1.375 Z M 2.75 1.375 "/>
</g>
</svg>
