
<svg xmlns="http://www.w3.org/2000/svg" xmlns:xlink="http://www.w3.org/1999/xlink" width="32" height="32" viewBox="0 0 32 32" version="1.1">
<defs>
<linearGradient id="linear0" gradientUnits="userSpaceOnUse" x1="8.466666" y1="-199.125" x2="8.466666" y2="-213.941666" gradientTransform="matrix(1.889764,0,0,1.889764,-0.00000631431,406.299234)">
<stop offset="0" style="stop-color:rgb(0%,0%,0%);stop-opacity:0.2;"/>
<stop offset="1" style="stop-color:rgb(100%,100%,100%);stop-opacity:0;"/>
</linearGradient>
</defs>
<g id="surface1">
<path style=" stroke:none;fill-rule:nonzero;fill:rgb(95.686275%,26.274511%,21.176471%);fill-opacity:1;" d="M 4 2 L 28 2 C 29.105469 2 30 2.894531 30 4 L 30 28 C 30 29.105469 29.105469 30 28 30 L 4 30 C 2.894531 30 2 29.105469 2 28 L 2 4 C 2 2.894531 2.894531 2 4 2 Z M 4 2 "/>
<path style=" stroke:none;fill-rule:nonzero;fill:rgb(0%,0%,0%);fill-opacity:0.4;" d="M 2 27.5 L 2 28 C 2 29.109375 2.890625 30 4 30 L 28 30 C 29.109375 30 30 29.109375 30 28 L 30 27.5 C 30 28.609375 29.109375 29.5 28 29.5 L 4 29.5 C 2.890625 29.5 2 28.609375 2 27.5 Z M 2 27.5 "/>
<path style=" stroke:none;fill-rule:nonzero;fill:rgb(0%,0%,0%);fill-opacity:0.2;" d="M 2 28 L 2 28.75 C 2 29.859375 2.890625 30.75 4 30.75 L 28 30.75 C 29.109375 30.75 30 29.859375 30 28.75 L 30 28 C 30 29.109375 29.109375 30 28 30 L 4 30 C 2.890625 30 2 29.109375 2 28 Z M 2 28 "/>
<path style=" stroke:none;fill-rule:nonzero;fill:rgb(100%,100%,100%);fill-opacity:0.4;" d="M 4 2 C 2.890625 2 2 2.890625 2 4 L 2 4.492188 C 2 3.382812 2.890625 2.492188 4 2.492188 L 28 2.492188 C 29.109375 2.492188 30 3.382812 30 4.492188 L 30 4 C 30 2.890625 29.109375 2 28 2 Z M 4 2 "/>
<path style=" stroke:none;fill-rule:nonzero;fill:rgb(93.333334%,93.333334%,93.333334%);fill-opacity:1;" d="M 17 20 L 15 20 C 14.449219 20 14 19.550781 14 19 L 14 7 C 14 6.449219 14.449219 6 15 6 L 17 6 C 17.550781 6 18 6.449219 18 7 L 18 19 C 18 19.550781 17.550781 20 17 20 Z M 17 20 "/>
<path style=" stroke:none;fill-rule:nonzero;fill:rgb(100%,100%,100%);fill-opacity:0.6;" d="M 15 6 C 14.445312 6 14 6.445312 14 7 L 14 7.5 C 14 6.945312 14.445312 6.5 15 6.5 L 17 6.5 C 17.554688 6.5 18 6.945312 18 7.5 L 18 7 C 18 6.445312 17.554688 6 17 6 Z M 15 6 "/>
<path style=" stroke:none;fill-rule:nonzero;fill:rgb(0.392157%,0.392157%,0.392157%);fill-opacity:0.4;" d="M 15 20.5 C 14.445312 20.5 14 20.054688 14 19.5 L 14 19 C 14 19.554688 14.445312 20 15 20 L 17 20 C 17.554688 20 18 19.554688 18 19 L 18 19.5 C 18 20.054688 17.554688 20.5 17 20.5 Z M 15 20.5 "/>
<path style=" stroke:none;fill-rule:nonzero;fill:rgb(93.333334%,93.333334%,93.333334%);fill-opacity:1;" d="M 15 22 L 17 22 C 17.550781 22 18 22.449219 18 23 L 18 25 C 18 25.550781 17.550781 26 17 26 L 15 26 C 14.449219 26 14 25.550781 14 25 L 14 23 C 14 22.449219 14.449219 22 15 22 Z M 15 22 "/>
<path style=" stroke:none;fill-rule:nonzero;fill:rgb(99.607843%,99.607843%,99.607843%);fill-opacity:0.6;" d="M 15 22 C 14.445312 22 14 22.445312 14 23 L 14 23.5 C 14 22.945312 14.445312 22.5 15 22.5 L 17 22.5 C 17.554688 22.5 18 22.945312 18 23.5 L 18 23 C 18 22.445312 17.554688 22 17 22 Z M 15 22 "/>
<path style=" stroke:none;fill-rule:nonzero;fill:rgb(0%,0%,0%);fill-opacity:0.4;" d="M 15 26.5 C 14.445312 26.5 14 26.054688 14 25.5 L 14 25 C 14 25.554688 14.445312 26 15 26 L 17 26 C 17.554688 26 18 25.554688 18 25 L 18 25.5 C 18 26.054688 17.554688 26.5 17 26.5 Z M 15 26.5 "/>
<path style=" stroke:none;fill-rule:nonzero;fill:url(#linear0);" d="M 4 2 L 28 2 C 29.105469 2 30 2.894531 30 4 L 30 28 C 30 29.105469 29.105469 30 28 30 L 4 30 C 2.894531 30 2 29.105469 2 28 L 2 4 C 2 2.894531 2.894531 2 4 2 Z M 4 2 "/>
</g>
</svg>
