
<svg xmlns="http://www.w3.org/2000/svg" xmlns:xlink="http://www.w3.org/1999/xlink" width="22" height="22" viewBox="0 0 22 22" version="1.1">
<defs>
<linearGradient id="linear0" gradientUnits="userSpaceOnUse" x1="13.758332" y1="-206.53334" x2="3.175" y2="-206.53334" gradientTransform="matrix(0.00000000000000008,1.299213,-1.299213,0.00000000000000008,-257.330721,0.000000000000052683)">
<stop offset="0" style="stop-color:rgb(0%,0%,0%);stop-opacity:0.2;"/>
<stop offset="1" style="stop-color:rgb(100%,100%,100%);stop-opacity:0;"/>
</linearGradient>
</defs>
<g id="surface1">
<path style=" stroke:none;fill-rule:nonzero;fill:rgb(93.333334%,93.333334%,93.333334%);fill-opacity:0.996078;" d="M 20.625 5.5 L 20.625 16.5 C 20.625 17.257812 20.007812 17.875 19.25 17.875 L 2.75 17.875 C 1.992188 17.875 1.375 17.257812 1.375 16.5 L 1.375 5.5 C 1.375 4.742188 1.992188 4.125 2.75 4.125 L 19.25 4.125 C 20.007812 4.125 20.625 4.742188 20.625 5.5 Z M 20.625 5.5 "/>
<path style=" stroke:none;fill-rule:nonzero;fill:rgb(36.078432%,41.960785%,75.294119%);fill-opacity:0.996078;" d="M 2.75 4.125 C 1.988281 4.125 1.375 4.738281 1.375 5.5 L 1.375 6.875 L 20.625 6.875 L 20.625 5.5 C 20.625 4.738281 20.011719 4.125 19.25 4.125 Z M 2.75 4.125 "/>
<path style=" stroke:none;fill-rule:nonzero;fill:rgb(100%,100%,100%);fill-opacity:0.4;" d="M 2.75 4.125 C 1.988281 4.125 1.375 4.738281 1.375 5.5 L 1.375 5.84375 C 1.375 5.082031 1.988281 4.46875 2.75 4.46875 L 19.25 4.46875 C 20.011719 4.46875 20.625 5.082031 20.625 5.84375 L 20.625 5.5 C 20.625 4.738281 20.011719 4.125 19.25 4.125 Z M 2.75 4.125 "/>
<path style=" stroke:none;fill-rule:nonzero;fill:rgb(100%,65.490198%,14.901961%);fill-opacity:0.996078;" d="M 2.75 17.875 C 1.988281 17.875 1.375 17.261719 1.375 16.5 L 1.375 15.125 L 20.625 15.125 L 20.625 16.5 C 20.625 17.261719 20.011719 17.875 19.25 17.875 Z M 2.75 17.875 "/>
<path style=" stroke:none;fill-rule:nonzero;fill:rgb(0.392157%,0.392157%,0.392157%);fill-opacity:0.4;" d="M 2.75 17.875 C 1.988281 17.875 1.375 17.261719 1.375 16.5 L 1.375 16.15625 C 1.375 16.917969 1.988281 17.53125 2.75 17.53125 L 19.25 17.53125 C 20.011719 17.53125 20.625 16.917969 20.625 16.15625 L 20.625 16.5 C 20.625 17.261719 20.011719 17.875 19.25 17.875 Z M 2.75 17.875 "/>
<path style=" stroke:none;fill-rule:nonzero;fill:rgb(0.392157%,0.392157%,0.392157%);fill-opacity:0.2;" d="M 1.375 16.5 L 1.375 17.015625 C 1.375 17.777344 1.988281 18.390625 2.75 18.390625 L 19.25 18.390625 C 20.011719 18.390625 20.625 17.777344 20.625 17.015625 L 20.625 16.5 C 20.625 17.261719 20.011719 17.875 19.25 17.875 L 2.75 17.875 C 1.988281 17.875 1.375 17.261719 1.375 16.5 Z M 1.375 16.5 "/>
<path style=" stroke:none;fill-rule:nonzero;fill:rgb(100%,100%,100%);fill-opacity:0.4;" d="M 1.375 15.125 L 20.625 15.125 L 20.625 15.296875 L 1.375 15.296875 Z M 1.375 15.125 "/>
<path style=" stroke:none;fill-rule:nonzero;fill:rgb(0.784314%,0.784314%,0.784314%);fill-opacity:0.4;" d="M 1.375 6.875 L 20.625 6.875 L 20.625 7.046875 L 1.375 7.046875 Z M 1.375 6.875 "/>
<path style=" stroke:none;fill-rule:nonzero;fill:rgb(36.078432%,40.784314%,74.901962%);fill-opacity:1;" d="M 13.0625 8.507812 C 11.824219 8.507812 10.953125 9.167969 10.945312 10.113281 C 10.933594 10.808594 11.570312 11.199219 12.046875 11.429688 C 12.53125 11.667969 12.695312 11.820312 12.695312 12.03125 C 12.691406 12.359375 12.304688 12.507812 11.941406 12.507812 C 11.441406 12.507812 11.171875 12.429688 10.765625 12.25 L 10.601562 12.171875 L 10.425781 13.261719 C 10.71875 13.394531 11.261719 13.515625 11.824219 13.519531 C 13.140625 13.519531 13.996094 12.867188 14.007812 11.863281 C 14.011719 11.308594 13.675781 10.886719 12.957031 10.539062 C 12.515625 10.320312 12.246094 10.167969 12.246094 9.941406 C 12.253906 9.734375 12.472656 9.523438 12.96875 9.523438 C 13.375 9.515625 13.675781 9.609375 13.90625 9.710938 L 14.015625 9.761719 L 14.1875 8.714844 C 13.941406 8.617188 13.546875 8.507812 13.0625 8.507812 Z M 7.335938 8.59375 L 6.109375 11.902344 L 5.972656 11.234375 C 5.75 10.457031 5.035156 9.617188 4.238281 9.199219 L 5.367188 13.441406 L 6.691406 13.441406 L 8.664062 8.59375 Z M 9.167969 8.59375 L 8.386719 13.445312 L 9.640625 13.445312 L 10.425781 8.59375 Z M 16.433594 8.59375 C 16.136719 8.59375 15.90625 8.679688 15.777344 8.996094 L 13.914062 13.445312 L 15.234375 13.445312 C 15.234375 13.445312 15.449219 12.847656 15.496094 12.71875 L 17.105469 12.71875 C 17.140625 12.890625 17.253906 13.445312 17.253906 13.445312 L 18.417969 13.445312 L 17.40625 8.59375 Z M 16.523438 9.90625 L 16.609375 10.324219 C 16.609375 10.324219 16.847656 11.484375 16.898438 11.730469 L 15.855469 11.730469 C 15.960938 11.449219 16.355469 10.371094 16.355469 10.371094 C 16.351562 10.378906 16.460938 10.085938 16.523438 9.90625 Z M 16.523438 9.90625 "/>
<path style=" stroke:none;fill-rule:nonzero;fill:rgb(100%,65.098041%,13.725491%);fill-opacity:1;" d="M 4.96875 8.59375 L 2.949219 8.59375 L 2.925781 8.691406 C 4.503906 9.09375 5.546875 10.066406 5.972656 11.234375 L 5.535156 9 C 5.460938 8.691406 5.242188 8.605469 4.96875 8.59375 Z M 4.96875 8.59375 "/>
<path style=" stroke:none;fill-rule:nonzero;fill:rgb(100%,100%,100%);fill-opacity:0.4;" d="M 13.0625 8.507812 C 11.824219 8.507812 10.953125 9.167969 10.945312 10.113281 C 10.945312 10.140625 10.949219 10.167969 10.949219 10.195312 C 11.007812 9.296875 11.863281 8.679688 13.0625 8.679688 C 13.53125 8.679688 13.914062 8.78125 14.164062 8.875 L 14.1875 8.714844 C 13.941406 8.617188 13.546875 8.507812 13.0625 8.507812 Z M 2.949219 8.59375 L 2.925781 8.691406 C 3.011719 8.714844 3.09375 8.742188 3.175781 8.765625 L 4.96875 8.765625 C 5.242188 8.777344 5.460938 8.863281 5.535156 9.171875 L 5.972656 11.40625 L 6.109375 12.074219 L 7.335938 8.765625 L 8.59375 8.765625 L 8.664062 8.59375 L 7.335938 8.59375 L 6.109375 11.902344 L 5.972656 11.234375 L 5.535156 9 C 5.460938 8.691406 5.242188 8.605469 4.96875 8.59375 Z M 9.167969 8.59375 L 8.386719 13.445312 L 8.414062 13.445312 L 9.167969 8.765625 L 10.398438 8.765625 L 10.425781 8.59375 Z M 16.433594 8.59375 C 16.136719 8.59375 15.90625 8.679688 15.777344 8.996094 L 13.914062 13.445312 L 13.988281 13.445312 L 15.777344 9.167969 C 15.90625 8.851562 16.136719 8.765625 16.433594 8.765625 L 17.40625 8.765625 L 18.378906 13.445312 L 18.417969 13.445312 L 17.40625 8.59375 Z M 12.261719 10.027344 C 12.253906 10.058594 12.25 10.085938 12.246094 10.113281 C 12.246094 10.339844 12.515625 10.492188 12.953125 10.710938 C 13.628906 11.035156 13.964844 11.425781 14.003906 11.925781 C 14.003906 11.902344 14.007812 11.882812 14.007812 11.863281 C 14.011719 11.308594 13.675781 10.886719 12.953125 10.539062 C 12.574219 10.347656 12.324219 10.210938 12.261719 10.027344 Z M 15.917969 11.730469 C 15.898438 11.785156 15.867188 11.867188 15.855469 11.902344 L 16.898438 11.902344 C 16.890625 11.871094 16.875 11.78125 16.863281 11.730469 Z M 12.6875 12.113281 C 12.621094 12.382812 12.273438 12.507812 11.941406 12.507812 C 11.441406 12.507812 11.171875 12.429688 10.765625 12.25 L 10.601562 12.171875 L 10.425781 13.261719 C 10.433594 13.265625 10.441406 13.269531 10.453125 13.273438 L 10.601562 12.34375 L 10.765625 12.421875 C 11.171875 12.601562 11.441406 12.679688 11.941406 12.679688 C 12.304688 12.679688 12.691406 12.53125 12.695312 12.203125 C 12.695312 12.171875 12.691406 12.144531 12.6875 12.113281 Z M 12.6875 12.113281 "/>
<path style=" stroke:none;fill-rule:nonzero;fill:rgb(0%,0%,0%);fill-opacity:0.4;" d="M 2.949219 8.765625 L 2.925781 8.863281 C 3.417969 8.992188 3.859375 9.171875 4.246094 9.398438 L 5.367188 13.613281 L 6.691406 13.613281 L 8.664062 8.765625 L 8.59375 8.765625 L 6.691406 13.441406 L 5.367188 13.441406 L 4.246094 9.226562 C 3.929688 9.039062 3.574219 8.886719 3.183594 8.765625 Z M 10.398438 8.765625 L 9.640625 13.445312 L 8.414062 13.445312 L 8.386719 13.617188 L 9.640625 13.617188 L 10.425781 8.765625 Z M 14.164062 8.875 L 14.015625 9.761719 L 13.90625 9.710938 C 13.675781 9.609375 13.375 9.515625 12.96875 9.523438 C 12.472656 9.523438 12.253906 9.734375 12.246094 9.941406 C 12.246094 9.972656 12.253906 10.003906 12.261719 10.03125 C 12.316406 9.855469 12.539062 9.695312 12.96875 9.695312 C 13.375 9.6875 13.675781 9.78125 13.90625 9.882812 L 14.015625 9.933594 L 14.1875 8.886719 C 14.179688 8.882812 14.171875 8.878906 14.164062 8.875 Z M 16.523438 9.90625 C 16.460938 10.085938 16.351562 10.378906 16.355469 10.371094 C 16.355469 10.371094 15.960938 11.449219 15.855469 11.730469 L 15.917969 11.730469 C 16.066406 11.332031 16.355469 10.542969 16.355469 10.542969 C 16.351562 10.550781 16.460938 10.257812 16.523438 10.078125 L 16.609375 10.496094 C 16.609375 10.496094 16.785156 11.347656 16.863281 11.730469 L 16.898438 11.730469 C 16.847656 11.484375 16.609375 10.324219 16.609375 10.324219 Z M 10.949219 10.21875 C 10.949219 10.242188 10.945312 10.261719 10.945312 10.285156 C 10.933594 10.980469 11.570312 11.371094 12.046875 11.601562 C 12.460938 11.804688 12.644531 11.949219 12.6875 12.117188 C 12.691406 12.089844 12.695312 12.0625 12.695312 12.03125 C 12.695312 11.820312 12.53125 11.667969 12.046875 11.429688 C 11.597656 11.210938 11.003906 10.851562 10.949219 10.21875 Z M 14.003906 11.945312 C 13.949219 12.902344 13.105469 13.519531 11.824219 13.519531 C 11.277344 13.515625 10.75 13.402344 10.453125 13.273438 L 10.425781 13.433594 C 10.71875 13.566406 11.261719 13.6875 11.824219 13.691406 C 13.140625 13.691406 13.996094 13.039062 14.007812 12.035156 C 14.007812 12.003906 14.007812 11.972656 14.003906 11.945312 Z M 15.496094 12.71875 C 15.445312 12.847656 15.234375 13.445312 15.234375 13.445312 L 13.988281 13.445312 L 13.914062 13.617188 L 15.234375 13.617188 C 15.234375 13.617188 15.445312 13.019531 15.496094 12.890625 L 17.105469 12.890625 C 17.140625 13.0625 17.253906 13.617188 17.253906 13.617188 L 18.417969 13.617188 L 18.378906 13.445312 L 17.253906 13.445312 C 17.253906 13.445312 17.140625 12.890625 17.105469 12.71875 Z M 15.496094 12.71875 "/>
<path style=" stroke:none;fill-rule:nonzero;fill:url(#linear0);" d="M 20.625 5.5 L 20.625 16.5 C 20.625 17.257812 20.007812 17.875 19.25 17.875 L 2.75 17.875 C 1.992188 17.875 1.375 17.257812 1.375 16.5 L 1.375 5.5 C 1.375 4.742188 1.992188 4.125 2.75 4.125 L 19.25 4.125 C 20.007812 4.125 20.625 4.742188 20.625 5.5 Z M 20.625 5.5 "/>
</g>
</svg>
