
<svg xmlns="http://www.w3.org/2000/svg" xmlns:xlink="http://www.w3.org/1999/xlink" width="64" height="64" viewBox="0 0 64 64" version="1.1">
<defs>
<linearGradient id="linear0" gradientUnits="userSpaceOnUse" x1="8.466666" y1="-199.125" x2="8.466666" y2="-213.941666" gradientTransform="matrix(3.779528,0,0,3.779528,0.00000861732,812.598468)">
<stop offset="0" style="stop-color:rgb(0%,0%,0%);stop-opacity:0.2;"/>
<stop offset="1" style="stop-color:rgb(100%,100%,100%);stop-opacity:0;"/>
</linearGradient>
</defs>
<g id="surface1">
<path style=" stroke:none;fill-rule:nonzero;fill:rgb(100%,65.490198%,14.901961%);fill-opacity:1;" d="M 14 4 L 50 4 C 52.210938 4 54 5.789062 54 8 L 54 56 C 54 58.210938 52.210938 60 50 60 L 14 60 C 11.789062 60 10 58.210938 10 56 L 10 8 C 10 5.789062 11.789062 4 14 4 Z M 14 4 "/>
<path style="fill:none;stroke-width:0.7;stroke-linecap:round;stroke-linejoin:round;stroke:rgb(38.039216%,38.039216%,38.039216%);stroke-opacity:1;stroke-dasharray:2.1,2.1;stroke-dashoffset:0.63;stroke-miterlimit:4;" d="M 20 6 L 20 57.5 L 50 57.5 C 51.109375 57.5 52 56.609375 52 55.5 L 52 8 C 52 6.890625 51.109375 6 50 6 Z M 20 6 "/>
<path style=" stroke:none;fill-rule:nonzero;fill:rgb(38.039216%,38.039216%,38.039216%);fill-opacity:0.996078;" d="M 14 4 C 11.785156 4 10 5.785156 10 8 L 10 56 C 10 58.214844 11.785156 60 14 60 L 18 60 L 18 4 Z M 14 4 "/>
<path style=" stroke:none;fill-rule:nonzero;fill:rgb(45.882353%,45.882353%,45.882353%);fill-opacity:1;" d="M 10 40 L 18 40 L 18 44 L 10 44 Z M 10 40 "/>
<path style=" stroke:none;fill-rule:nonzero;fill:rgb(45.882353%,45.882353%,45.882353%);fill-opacity:0.996078;" d="M 10 18 L 18 18 L 18 22 L 10 22 Z M 10 18 "/>
<path style=" stroke:none;fill-rule:nonzero;fill:rgb(0.784314%,0.784314%,0.784314%);fill-opacity:0.4;" d="M 14 59.988281 C 11.785156 59.988281 10 58.203125 10 55.988281 L 10 55 C 10 57.214844 11.785156 59 14 59 L 50 59 C 52.214844 59 54 57.214844 54 55 L 54 55.988281 C 54 58.203125 52.214844 59.988281 50 59.988281 Z M 14 59.988281 "/>
<path style=" stroke:none;fill-rule:nonzero;fill:rgb(0%,0%,0%);fill-opacity:0.2;" d="M 10 56 L 10 57.5 C 10 59.714844 11.785156 61.5 14 61.5 L 50 61.5 C 52.214844 61.5 54 59.714844 54 57.5 L 54 56 C 54 58.214844 52.214844 60 50 60 L 14 60 C 11.785156 60 10 58.214844 10 56 Z M 10 56 "/>
<path style=" stroke:none;fill-rule:nonzero;fill:rgb(0%,0%,0%);fill-opacity:0.4;" d="M 10 22 L 18 22 L 18 23 L 10 23 Z M 10 22 "/>
<path style=" stroke:none;fill-rule:nonzero;fill:rgb(99.215686%,99.215686%,99.215686%);fill-opacity:0.4;" d="M 10 18 L 18 18 L 18 19 L 10 19 Z M 10 18 "/>
<path style=" stroke:none;fill-rule:nonzero;fill:rgb(0%,0%,0%);fill-opacity:0.4;" d="M 10 44 L 18 44 L 18 45 L 10 45 Z M 10 44 "/>
<path style=" stroke:none;fill-rule:nonzero;fill:rgb(99.215686%,99.215686%,99.215686%);fill-opacity:0.4;" d="M 10 40 L 18 40 L 18 41 L 10 41 Z M 10 40 "/>
<path style=" stroke:none;fill-rule:nonzero;fill:rgb(38.039216%,38.039216%,38.039216%);fill-opacity:1;" d="M 22 4 L 22 38 L 24 34 L 26 38 L 26 4 Z M 22 4 "/>
<path style=" stroke:none;fill-rule:nonzero;fill:rgb(99.607843%,99.607843%,99.607843%);fill-opacity:0.4;" d="M 14 4 C 11.785156 4 10 5.785156 10 8 L 10 8.988281 C 10 6.773438 11.785156 4.988281 14 4.988281 L 50 4.988281 C 52.214844 4.988281 54 6.773438 54 8.988281 L 54 8 C 54 5.785156 52.214844 4 50 4 Z M 14 4 "/>
<path style=" stroke:none;fill-rule:nonzero;fill:rgb(0%,0%,0%);fill-opacity:0.4;" d="M 24 34 L 22 38 L 22 39.5 L 24 35.5 L 26 39.5 L 26 38 Z M 24 34 "/>
<path style=" stroke:none;fill-rule:nonzero;fill:rgb(0%,0%,0%);fill-opacity:0.4;" d="M 27.265625 42 C 22.832031 42 19.265625 45.566406 19.265625 50 C 19.265625 50.167969 19.269531 50.335938 19.28125 50.5 C 19.535156 46.304688 23 43 27.265625 43 C 31.527344 43 34.992188 46.304688 35.25 50.5 C 35.257812 50.335938 35.265625 50.167969 35.265625 50 C 35.265625 45.566406 31.695312 42 27.265625 42 Z M 49.265625 42 C 44.832031 42 41.265625 45.566406 41.265625 50 C 41.265625 50.167969 41.269531 50.335938 41.28125 50.5 C 41.535156 46.304688 45 43 49.265625 43 C 51.039062 43 52.675781 43.574219 54 44.546875 L 54 43.546875 C 52.675781 42.574219 51.039062 42 49.265625 42 Z M 38.277344 49.511719 C 37.816406 49.511719 37.429688 49.691406 37.261719 50.148438 C 37.183594 55.621094 32.753906 60 27.265625 60 L 31.636719 60 C 34.929688 58.402344 37.207031 55.054688 37.261719 51.148438 C 37.429688 50.691406 37.816406 50.511719 38.277344 50.511719 C 38.738281 50.507812 39.109375 50.671875 39.265625 51.140625 C 39.320312 55.050781 41.59375 58.402344 44.890625 60 L 49.265625 60 C 43.769531 60 39.339844 55.617188 39.265625 50.140625 C 39.109375 49.671875 38.738281 49.507812 38.277344 49.511719 Z M 49.265625 60 L 50 60 C 50.429688 60 50.839844 59.933594 51.222656 59.808594 C 50.589844 59.933594 49.933594 60 49.265625 60 Z M 27.265625 60 C 21.890625 60 17.535156 55.804688 17.277344 50.5 C 17.269531 50.664062 17.265625 50.832031 17.265625 51 C 17.265625 54.96875 19.550781 58.382812 22.886719 60 Z M 27.265625 60 "/>
<path style=" stroke:none;fill-rule:nonzero;fill:rgb(38.039216%,38.039216%,38.039216%);fill-opacity:1;" d="M 27.265625 40 C 21.722656 40 17.265625 44.460938 17.265625 50 C 17.265625 55.539062 21.722656 60 27.265625 60 C 32.753906 60 37.183594 55.621094 37.261719 50.148438 C 37.429688 49.691406 37.816406 49.511719 38.277344 49.511719 C 38.738281 49.507812 39.109375 49.671875 39.265625 50.144531 C 39.339844 55.617188 43.769531 60 49.265625 60 C 54.804688 60 59.265625 55.539062 59.265625 50 C 59.265625 44.460938 54.804688 40 49.265625 40 C 44.492188 40 40.523438 43.308594 39.515625 47.765625 C 39.113281 47.59375 38.683594 47.507812 38.269531 47.507812 C 37.847656 47.511719 37.417969 47.601562 37.015625 47.777344 C 36.007812 43.3125 32.039062 40 27.265625 40 Z M 27.265625 42 C 31.695312 42 35.265625 45.566406 35.265625 50 C 35.265625 54.433594 31.695312 58 27.265625 58 C 22.832031 58 19.265625 54.433594 19.265625 50 C 19.265625 45.566406 22.832031 42 27.265625 42 Z M 49.265625 42 C 53.695312 42 57.265625 45.566406 57.265625 50 C 57.265625 54.433594 53.695312 58 49.265625 58 C 44.832031 58 41.265625 54.433594 41.265625 50 C 41.265625 45.566406 44.832031 42 49.265625 42 Z M 49.265625 42 "/>
<path style=" stroke:none;fill-rule:nonzero;fill:rgb(100%,100%,100%);fill-opacity:0.4;" d="M 27.265625 40 C 21.722656 40 17.265625 44.460938 17.265625 50 C 17.265625 50.066406 17.269531 50.132812 17.269531 50.199219 C 17.425781 44.800781 21.824219 40.5 27.261719 40.5 C 32.039062 40.5 36.007812 43.8125 37.015625 48.273438 C 37.417969 48.101562 37.847656 48.011719 38.265625 48.007812 C 38.683594 48.007812 39.113281 48.09375 39.511719 48.265625 C 40.523438 43.808594 44.492188 40.5 49.265625 40.5 C 54.703125 40.5 59.101562 44.800781 59.257812 50.199219 C 59.257812 50.132812 59.261719 50.066406 59.261719 50 C 59.261719 44.460938 54.804688 40 49.261719 40 C 44.492188 40 40.523438 43.308594 39.511719 47.765625 C 39.113281 47.59375 38.683594 47.507812 38.265625 47.507812 C 37.847656 47.511719 37.417969 47.601562 37.015625 47.773438 C 36.007812 43.3125 32.039062 40 27.261719 40 Z M 19.273438 50.160156 C 19.265625 50.273438 19.261719 50.386719 19.261719 50.5 C 19.261719 54.933594 22.832031 58.5 27.261719 58.5 C 31.695312 58.5 35.261719 54.933594 35.261719 50.5 C 35.261719 50.386719 35.261719 50.273438 35.257812 50.160156 C 35.171875 54.515625 31.640625 58 27.265625 58 C 22.886719 58 19.355469 54.515625 19.273438 50.160156 Z M 41.273438 50.160156 C 41.265625 50.273438 41.261719 50.386719 41.261719 50.5 C 41.261719 54.933594 44.832031 58.5 49.261719 58.5 C 53.695312 58.5 57.261719 54.933594 57.261719 50.5 C 57.261719 50.386719 57.261719 50.273438 57.253906 50.160156 C 57.171875 54.515625 53.640625 58 49.261719 58 C 44.886719 58 41.355469 54.515625 41.269531 50.160156 Z M 41.273438 50.160156 "/>
<path style=" stroke:none;fill-rule:nonzero;fill:rgb(73.333335%,87.058824%,98.431373%);fill-opacity:0.4;" d="M 49.265625 42 C 53.683594 42 57.261719 45.582031 57.261719 50 C 57.261719 54.417969 53.683594 58 49.265625 58 C 44.84375 58 41.265625 54.417969 41.265625 50 C 41.265625 45.582031 44.84375 42 49.265625 42 Z M 49.265625 42 "/>
<path style=" stroke:none;fill-rule:nonzero;fill:rgb(56.470591%,79.215688%,97.647059%);fill-opacity:0.4;" d="M 56.429688 46.429688 C 51.03125 47.664062 46.628906 51.457031 44.554688 56.476562 C 45.871094 57.433594 47.5 58 49.265625 58 C 53.695312 58 57.265625 54.433594 57.265625 50 C 57.265625 48.714844 56.964844 47.503906 56.429688 46.429688 Z M 56.429688 46.429688 "/>
<path style=" stroke:none;fill-rule:nonzero;fill:rgb(73.333335%,87.058824%,98.431373%);fill-opacity:0.4;" d="M 27.253906 42 C 31.671875 42 35.253906 45.582031 35.253906 50 C 35.253906 54.417969 31.671875 58 27.253906 58 C 22.835938 58 19.253906 54.417969 19.253906 50 C 19.253906 45.582031 22.835938 42 27.253906 42 Z M 27.253906 42 "/>
<path style=" stroke:none;fill-rule:nonzero;fill:rgb(56.470591%,79.215688%,97.647059%);fill-opacity:0.4;" d="M 34.421875 46.429688 C 29.019531 47.664062 24.617188 51.457031 22.542969 56.476562 C 23.863281 57.433594 25.488281 58 27.253906 58 C 31.6875 58 35.253906 54.433594 35.253906 50 C 35.253906 48.714844 34.953125 47.503906 34.421875 46.429688 Z M 34.421875 46.429688 "/>
<path style=" stroke:none;fill-rule:nonzero;fill:rgb(38.039216%,38.039216%,38.039216%);fill-opacity:1;" d="M 17.265625 48 C 16.265625 48 16.265625 52 17.265625 52 C 28.265625 52.5 49.265625 47.5 49.265625 58.5 C 49.265625 60.5 54.761719 60.5 54.761719 58 C 55.285156 45.5 39.265625 48 17.265625 48 Z M 17.265625 48 "/>
<path style=" stroke:none;fill-rule:nonzero;fill:rgb(100%,100%,100%);fill-opacity:0.4;" d="M 34.171875 47.796875 C 29.164062 47.800781 23.453125 48 17.265625 48 C 16.703125 48 16.457031 49.25 16.523438 50.355469 C 16.574219 49.484375 16.824219 48.707031 17.265625 48.707031 C 38.703125 48.707031 54.46875 46.332031 54.773438 57.785156 C 55.007812 48.996094 46.863281 47.777344 34.171875 47.796875 Z M 34.171875 47.796875 "/>
<path style=" stroke:none;fill-rule:nonzero;fill:rgb(0%,0%,0%);fill-opacity:0.4;" d="M 16.519531 49.75 C 16.472656 50.824219 16.722656 52 17.265625 52 C 28.265625 52.5 49.265625 47.5 49.265625 58.5 C 49.265625 60.5 54.765625 60.5 54.765625 58 C 54.773438 57.730469 54.777344 57.464844 54.773438 57.207031 C 54.769531 57.304688 54.769531 57.402344 54.765625 57.5 C 54.765625 60 49.265625 60 49.265625 58 C 49.265625 47 28.265625 52 17.265625 51.5 C 16.804688 51.5 16.558594 50.660156 16.519531 49.75 Z M 16.519531 49.75 "/>
<path style=" stroke:none;fill-rule:nonzero;fill:rgb(0%,0%,0%);fill-opacity:0.4;" d="M 16.527344 50.421875 C 16.453125 51.535156 16.695312 52.816406 17.265625 52.816406 C 28.265625 53.316406 49.265625 48.320312 49.265625 59.316406 C 49.265625 59.578125 49.359375 59.808594 49.519531 60 L 50 60 C 50.324219 60 50.636719 59.960938 50.9375 59.890625 C 50.003906 59.71875 49.265625 59.253906 49.265625 58.519531 C 49.265625 47.523438 28.265625 52.519531 17.265625 52.019531 C 16.832031 52.019531 16.585938 51.269531 16.527344 50.421875 Z M 16.527344 50.421875 "/>
<path style=" stroke:none;fill-rule:nonzero;fill:rgb(38.039216%,38.039216%,38.039216%);fill-opacity:1;" d="M 59.261719 48 C 60.265625 48 60.265625 52 59.261719 52 C 48.265625 52.5 27.265625 47.5 27.265625 58.5 C 27.265625 60.5 21.765625 60.5 21.765625 58 C 21.242188 45.5 37.265625 48 59.261719 48 Z M 59.261719 48 "/>
<path style=" stroke:none;fill-rule:nonzero;fill:rgb(100%,100%,100%);fill-opacity:0.4;" d="M 42.355469 47.796875 C 47.363281 47.800781 53.078125 48 59.261719 48 C 59.824219 48 60.070312 49.25 60.003906 50.355469 C 59.953125 49.484375 59.703125 48.707031 59.261719 48.707031 C 37.824219 48.707031 22.058594 46.332031 21.753906 57.785156 C 21.519531 48.996094 29.664062 47.777344 42.355469 47.796875 Z M 42.355469 47.796875 "/>
<path style=" stroke:none;fill-rule:nonzero;fill:rgb(0%,0%,0%);fill-opacity:0.301961;" d="M 40.394531 51.3125 C 33.191406 51.351562 27.265625 52.679688 27.265625 58.519531 C 27.265625 60.523438 21.765625 60.523438 21.765625 58.019531 C 21.761719 57.964844 21.757812 57.910156 21.757812 57.851562 C 21.75 58.164062 21.75 58.484375 21.765625 58.816406 C 21.765625 59.304688 21.972656 59.699219 22.3125 60 L 27.003906 60 C 27.167969 59.808594 27.265625 59.578125 27.265625 59.316406 C 27.265625 49.898438 42.667969 52.210938 54 52.753906 L 54 51.957031 C 49.695312 51.753906 44.808594 51.292969 40.394531 51.3125 Z M 40.394531 51.3125 "/>
<path style=" stroke:none;fill-rule:nonzero;fill:rgb(0%,0%,0%);fill-opacity:0.4;" d="M 60.007812 49.75 C 59.96875 50.660156 59.722656 51.5 59.265625 51.5 C 48.265625 52 27.265625 47 27.265625 58 C 27.265625 60 21.765625 60 21.765625 57.5 C 21.757812 57.402344 21.757812 57.304688 21.753906 57.207031 C 21.75 57.464844 21.753906 57.730469 21.765625 58 C 21.765625 60.5 27.265625 60.5 27.265625 58.5 C 27.265625 47.5 48.265625 52.5 59.265625 52 C 59.804688 52 60.054688 50.824219 60.007812 49.75 Z M 60.007812 49.75 "/>
<path style=" stroke:none;fill-rule:nonzero;fill:url(#linear0);" d="M 14 4 C 11.785156 4 10 5.785156 10 8 L 10 56 C 10 58.214844 11.785156 60 14 60 L 50 60 C 50.449219 60 50.882812 59.925781 51.285156 59.789062 C 55.199219 58.988281 58.269531 55.925781 59.0625 52.007812 C 59.128906 52.003906 59.199219 52.003906 59.261719 52 C 60.265625 52 60.265625 48 59.261719 48 C 59.195312 48 59.132812 48 59.0625 48 C 58.46875 45.042969 56.574219 42.574219 54 41.191406 L 54 8 C 54 5.785156 52.214844 4 50 4 Z M 14 4 "/>
</g>
</svg>
