
<svg xmlns="http://www.w3.org/2000/svg" xmlns:xlink="http://www.w3.org/1999/xlink" width="64" height="64" viewBox="0 0 64 64" version="1.1">
<defs>
<linearGradient id="linear0" gradientUnits="userSpaceOnUse" x1="8.466666" y1="-199.125" x2="8.466666" y2="-213.941666" gradientTransform="matrix(3.779528,0,0,3.779528,0,812.598468)">
<stop offset="0" style="stop-color:rgb(0%,0%,0%);stop-opacity:0.2;"/>
<stop offset="1" style="stop-color:rgb(100%,100%,100%);stop-opacity:0;"/>
</linearGradient>
</defs>
<g id="surface1">
<path style=" stroke:none;fill-rule:nonzero;fill:rgb(14.901961%,65.098041%,60.392159%);fill-opacity:1;" d="M 56 60 C 58.214844 60 60 58.214844 60 56 L 60 32 L 32 32 L 32 60 Z M 56 60 "/>
<path style=" stroke:none;fill-rule:nonzero;fill:rgb(49.411765%,34.117648%,76.078433%);fill-opacity:1;" d="M 8 60 C 5.785156 60 4 58.214844 4 56 L 4 32 L 32 32 L 32 60 Z M 8 60 "/>
<path style=" stroke:none;fill-rule:nonzero;fill:rgb(92.54902%,25.098041%,47.843137%);fill-opacity:1;" d="M 56 4 C 58.214844 4 60 5.785156 60 8 L 60 32 L 32 32 L 32 4 Z M 56 4 "/>
<path style=" stroke:none;fill-rule:nonzero;fill:rgb(14.901961%,65.098041%,60.392159%);fill-opacity:1;" d="M 8 4 C 5.785156 4 4 5.785156 4 8 L 4 32 L 32 32 L 32 4 Z M 8 4 "/>
<path style=" stroke:none;fill-rule:nonzero;fill:rgb(38.039216%,38.039216%,38.039216%);fill-opacity:1;" d="M 14 12 L 50 12 C 51.105469 12 52 12.894531 52 14 L 52 50 C 52 51.105469 51.105469 52 50 52 L 14 52 C 12.894531 52 12 51.105469 12 50 L 12 14 C 12 12.894531 12.894531 12 14 12 Z M 14 12 "/>
<path style=" stroke:none;fill-rule:nonzero;fill:rgb(100%,100%,100%);fill-opacity:0.4;" d="M 14 12 C 12.890625 12 12 12.890625 12 14 L 12 15 C 12 13.890625 12.890625 13 14 13 L 50 13 C 51.109375 13 52 13.890625 52 15 L 52 14 C 52 12.890625 51.109375 12 50 12 Z M 14 12 "/>
<path style=" stroke:none;fill-rule:nonzero;fill:rgb(0.784314%,0.784314%,0.784314%);fill-opacity:0.4;" d="M 14 53 C 12.890625 53 12 52.109375 12 51 L 12 50 C 12 51.109375 12.890625 52 14 52 L 50 52 C 51.109375 52 52 51.109375 52 50 L 52 51 C 52 52.109375 51.109375 53 50 53 Z M 14 53 "/>
<path style=" stroke:none;fill-rule:nonzero;fill:rgb(100%,100%,100%);fill-opacity:0.4;" d="M 8 4 C 5.785156 4 4 5.785156 4 8 L 4 9 C 4 6.785156 5.785156 5 8 5 L 56 5 C 58.214844 5 60 6.785156 60 9 L 60 8 C 60 5.785156 58.214844 4 56 4 Z M 8 4 "/>
<path style=" stroke:none;fill-rule:nonzero;fill:rgb(0%,0%,0%);fill-opacity:0.4;" d="M 8 60 C 5.785156 60 4 58.214844 4 56 L 4 55 C 4 57.214844 5.785156 59 8 59 L 56 59 C 58.214844 59 60 57.214844 60 55 L 60 56 C 60 58.214844 58.214844 60 56 60 Z M 8 60 "/>
<path style=" stroke:none;fill-rule:nonzero;fill:rgb(0%,0%,0%);fill-opacity:0.2;" d="M 4 56 L 4 57.5 C 4 59.714844 5.785156 61.5 8 61.5 L 56 61.5 C 58.214844 61.5 60 59.714844 60 57.5 L 60 56 C 60 58.214844 58.214844 60 56 60 L 8 60 C 5.785156 60 4 58.214844 4 56 Z M 4 56 "/>
<path style=" stroke:none;fill-rule:nonzero;fill:rgb(93.333334%,93.333334%,93.333334%);fill-opacity:1;" d="M 40 22 C 36.675781 22 34 24.675781 34 28 L 34 36 C 34 39.324219 36.675781 42 40 42 C 43.324219 42 46 39.324219 46 36 L 46 35.527344 C 46 35.519531 46 35.511719 46 35.5 L 46 32.5 C 46 32.222656 45.777344 32 45.5 32 L 41.5 32 C 41.222656 32 41 32.222656 41 32.5 L 41 35.5 C 41 35.777344 41.222656 36 41.5 36 L 42 36 C 42 37.105469 41.109375 38 40 38 C 38.890625 38 38 37.105469 38 36 L 38 28 C 38 26.890625 38.890625 26 40 26 C 41.109375 26 42 26.890625 42 28 C 42 28.554688 42.445312 29 43 29 L 45 29 C 45.554688 29 46 28.554688 46 28 C 46 24.675781 43.324219 22 40 22 Z M 40 22 "/>
<path style=" stroke:none;fill-rule:nonzero;fill:rgb(93.333334%,93.333334%,93.333334%);fill-opacity:1;" d="M 18.5 22 C 18.222656 22 18 22.222656 18 22.5 L 18 41.5 C 18 41.777344 18.222656 42 18.5 42 L 24 42 C 27.324219 42 30 39.324219 30 36 L 30 28 C 30 24.675781 27.324219 22 24 22 Z M 22 26 L 24 26 C 25.109375 26 26 26.890625 26 28 L 26 36 C 26 37.109375 25.109375 38 24 38 L 22 38 Z M 22 26 "/>
<path style=" stroke:none;fill-rule:nonzero;fill:rgb(100%,100%,100%);fill-opacity:0.6;" d="M 40 22 C 36.675781 22 34 24.675781 34 28 L 34 29 C 34 25.675781 36.675781 23 40 23 C 43.082031 23 45.605469 25.300781 45.957031 28.285156 C 45.984375 28.195312 46 28.097656 46 28 C 46 24.675781 43.324219 22 40 22 Z M 41.5 32 C 41.222656 32 41 32.222656 41 32.5 L 41 33.5 C 41 33.222656 41.222656 33 41.5 33 L 45.5 33 C 45.777344 33 46 33.222656 46 33.5 L 46 32.5 C 46 32.222656 45.777344 32 45.5 32 Z M 38 36 L 38 37 C 38 38.105469 38.890625 39 40 39 C 41.109375 39 42 38.105469 42 37 L 41.734375 37 C 41.390625 37.597656 40.742188 38 40 38 C 38.890625 38 38 37.105469 38 36 Z M 38 36 "/>
<path style=" stroke:none;fill-rule:nonzero;fill:rgb(100%,100%,100%);fill-opacity:0.6;" d="M 18.5 22 C 18.222656 22 18 22.222656 18 22.5 L 18 23.5 C 18 23.222656 18.222656 23 18.5 23 L 24 23 C 27.324219 23 30 25.675781 30 29 L 30 28 C 30 24.675781 27.324219 22 24 22 Z M 26 36 C 26 37.109375 25.109375 38 24 38 L 22 38 L 22 39 L 24 39 C 25.109375 39 26 38.109375 26 37 Z M 26 36 "/>
<path style=" stroke:none;fill-rule:nonzero;fill:rgb(0%,0%,0%);fill-opacity:0.4;" d="M 40 26 C 38.890625 26 38 26.890625 38 28 L 38 29 C 38 27.890625 38.890625 27 40 27 C 41.109375 27 42 27.890625 42 29 C 42 29.554688 42.445312 30 43 30 L 45 30 C 45.554688 30 46 29.554688 46 29 C 46 28.757812 45.984375 28.523438 45.957031 28.289062 C 45.832031 28.703125 45.453125 29 45 29 L 43 29 C 42.445312 29 42 28.554688 42 28 C 42 26.890625 41.109375 26 40 26 Z M 41 35.5 L 41 36.5 C 41 36.777344 41.222656 37 41.5 37 L 41.734375 37 C 41.902344 36.707031 42 36.363281 42 36 L 41.5 36 C 41.222656 36 41 35.777344 41 35.5 Z M 34 36 L 34 37 C 34 40.324219 36.675781 43 40 43 C 43.324219 43 46 40.324219 46 37 L 46 36.527344 C 46 36.519531 46 36.511719 46 36.5 L 46 36 C 46 39.324219 43.324219 42 40 42 C 36.675781 42 34 39.324219 34 36 Z M 34 36 "/>
<path style=" stroke:none;fill-rule:nonzero;fill:rgb(0%,0%,0%);fill-opacity:0.4;" d="M 22 26 L 22 27 L 24 27 C 25.109375 27 26 27.894531 26 29 L 26 28 C 26 26.894531 25.109375 26 24 26 Z M 30 36 C 30 39.324219 27.324219 42 24 42 L 18.5 42 C 18.222656 42 18 41.777344 18 41.5 L 18 42.5 C 18 42.777344 18.222656 43 18.5 43 L 24 43 C 27.324219 43 30 40.324219 30 37 Z M 30 36 "/>
<path style=" stroke:none;fill-rule:nonzero;fill:url(#linear0);" d="M 8 4 L 56 4 C 58.210938 4 60 5.789062 60 8 L 60 56 C 60 58.210938 58.210938 60 56 60 L 8 60 C 5.789062 60 4 58.210938 4 56 L 4 8 C 4 5.789062 5.789062 4 8 4 Z M 8 4 "/>
</g>
</svg>
