
<svg xmlns="http://www.w3.org/2000/svg" xmlns:xlink="http://www.w3.org/1999/xlink" width="64" height="64" viewBox="0 0 64 64" version="1.1">
<defs>
<linearGradient id="linear0" gradientUnits="userSpaceOnUse" x1="31.999998" y1="60" x2="31.999998" y2="3.999999" >
<stop offset="0" style="stop-color:rgb(0%,0%,0%);stop-opacity:0.2;"/>
<stop offset="1" style="stop-color:rgb(100%,100%,100%);stop-opacity:0;"/>
</linearGradient>
</defs>
<g id="surface1">
<path style=" stroke:none;fill-rule:nonzero;fill:rgb(12.941177%,58.823532%,95.294118%);fill-opacity:1;" d="M 38 8 C 36.511719 8 35.222656 8.804688 34.53125 10 L 10 10 C 7.785156 10 6 11.785156 6 14 L 6 20 C 6 22.214844 7.785156 24 10 24 L 54 24 C 56.214844 24 58 22.214844 58 20 L 58 12 C 58 9.785156 56.214844 8 54 8 Z M 38 8 "/>
<path style=" stroke:none;fill-rule:nonzero;fill:rgb(100%,100%,100%);fill-opacity:0.4;" d="M 38 8 C 36.511719 8 35.222656 8.804688 34.53125 10 L 10 10 C 7.785156 10 6 11.785156 6 14 L 6 14.074219 C 6.210938 12.058594 7.90625 10.5 9.976562 10.5 L 34.511719 10.5 C 35.199219 9.304688 36.488281 8.5 37.976562 8.5 L 53.976562 8.5 C 56.191406 8.5 57.976562 10.285156 57.976562 12.5 L 57.976562 20.421875 C 57.992188 20.285156 58 20.144531 58 20 L 58 12 C 58 9.785156 56.214844 8 54 8 Z M 38 8 "/>
<path style=" stroke:none;fill-rule:nonzero;fill:rgb(25.882354%,64.705884%,96.078432%);fill-opacity:1;" d="M 8 12 C 5.785156 12 4 13.785156 4 16 L 4 52 C 4 54.214844 5.785156 56 8 56 L 56 56 C 58.214844 56 60 54.214844 60 52 L 60 20 C 60 17.785156 58.214844 16 56 16 L 38.050781 16 C 38.035156 16 38.015625 16 38 16 C 36.890625 16 36 15.109375 36 14 C 36 12.890625 35.109375 12 34 12 Z M 8 12 "/>
<path style=" stroke:none;fill-rule:nonzero;fill:rgb(100%,100%,100%);fill-opacity:0.4;" d="M 8 12 C 5.785156 12 4 13.785156 4 16 L 4 17 C 4 14.785156 5.785156 13 8 13 L 34 13 C 35.109375 13 36 13.890625 36 15 C 36 16.109375 36.890625 17 38 17 C 38.015625 17 38.035156 17 38.050781 17 L 56 17 C 58.214844 17 60 18.785156 60 21 L 60 20 C 60 17.785156 58.214844 16 56 16 L 38.050781 16 C 38.035156 16 38.015625 16 38 16 C 36.890625 16 36 15.109375 36 14 C 36 12.890625 35.109375 12 34 12 Z M 8 12 "/>
<path style=" stroke:none;fill-rule:nonzero;fill:rgb(0%,0%,0%);fill-opacity:0.4;" d="M 4 51 L 4 52 C 4 54.214844 5.785156 56 8 56 L 56 56 C 58.214844 56 60 54.214844 60 52 L 60 51 C 60 53.214844 58.214844 55 56 55 L 8 55 C 5.785156 55 4 53.214844 4 51 Z M 4 51 "/>
<path style=" stroke:none;fill-rule:nonzero;fill:rgb(0%,0%,0%);fill-opacity:0.2;" d="M 4 52 L 4 53.5 C 4 55.714844 5.785156 57.5 8 57.5 L 56 57.5 C 58.214844 57.5 60 55.714844 60 53.5 L 60 52 C 60 54.214844 58.214844 56 56 56 L 8 56 C 5.785156 56 4 54.214844 4 52 Z M 4 52 "/>
<path style=" stroke:none;fill-rule:nonzero;fill:rgb(56.470591%,79.215688%,97.647059%);fill-opacity:1;" d="M 24 24 C 22.890625 24 22 24.890625 22 26 L 22 33 L 31 33 L 31 24 Z M 33 24 L 33 33 L 42 33 L 42 26 C 42 24.890625 41.109375 24 40 24 Z M 22 35 L 22 42 C 22 43.109375 22.890625 44 24 44 L 31 44 L 31 35 Z M 33 35 L 33 44 L 40 44 C 41.109375 44 42 43.109375 42 42 L 42 35 Z M 33 35 "/>
<path style=" stroke:none;fill-rule:nonzero;fill:rgb(100%,100%,100%);fill-opacity:0.4;" d="M 24 24 C 22.890625 24 22 24.890625 22 26 L 22 26.5 C 22 25.390625 22.890625 24.5 24 24.5 L 31 24.5 L 31 24 Z M 33 24 L 33 24.5 L 40 24.5 C 41.109375 24.5 42 25.390625 42 26.5 L 42 26 C 42 24.890625 41.109375 24 40 24 Z M 22 35 L 22 35.5 L 31 35.5 L 31 35 Z M 33 35 L 33 35.5 L 42 35.5 L 42 35 Z M 33 35 "/>
<path style=" stroke:none;fill-rule:nonzero;fill:rgb(0%,0%,0%);fill-opacity:0.4;" d="M 24 44.5 C 22.890625 44.5 22 43.609375 22 42.5 L 22 42 C 22 43.109375 22.890625 44 24 44 L 31 44 L 31 44.5 Z M 33 44.5 L 33 44 L 40 44 C 41.109375 44 42 43.109375 42 42 L 42 42.5 C 42 43.609375 41.109375 44.5 40 44.5 Z M 22 33.5 L 22 33 L 31 33 L 31 33.5 Z M 33 33.5 L 33 33 L 42 33 L 42 33.5 Z M 33 33.5 "/>
<path style=" stroke:none;fill-rule:nonzero;fill:url(#linear0);" d="M 38 8 C 36.511719 8 35.222656 8.804688 34.53125 10 L 10 10 C 8.371094 10 6.976562 10.960938 6.351562 12.351562 C 4.960938 12.976562 4 14.371094 4 16 L 4 52 C 4 54.214844 5.785156 56 8 56 L 56 56 C 58.214844 56 60 54.214844 60 52 L 60 20 C 60 18.515625 59.195312 17.226562 58 16.535156 L 58 12 C 58 9.785156 56.214844 8 54 8 Z M 38 8 "/>
</g>
</svg>
