
<svg xmlns="http://www.w3.org/2000/svg" xmlns:xlink="http://www.w3.org/1999/xlink" width="24" height="24" viewBox="0 0 24 24" version="1.1">
<defs>
<linearGradient id="linear0" gradientUnits="userSpaceOnUse" x1="8.466666" y1="-199.125" x2="8.466666" y2="-213.941666" gradientTransform="matrix(1.417323,0,0,1.417323,0.000000788976,304.72508)">
<stop offset="0" style="stop-color:rgb(0%,0%,0%);stop-opacity:0.2;"/>
<stop offset="1" style="stop-color:rgb(100%,100%,100%);stop-opacity:0;"/>
</linearGradient>
</defs>
<g id="surface1">
<path style=" stroke:none;fill-rule:nonzero;fill:rgb(0%,0%,0%);fill-opacity:0.2;" d="M 1.503906 12.296875 C 1.503906 12.394531 1.5 12.488281 1.5 12.585938 C 1.5 18.382812 6.203125 23.085938 12 23.085938 C 17.796875 23.085938 22.5 18.382812 22.5 12.585938 C 22.5 12.488281 22.496094 12.394531 22.496094 12.296875 C 22.34375 17.964844 17.703125 22.511719 12 22.511719 C 6.296875 22.511719 1.65625 17.964844 1.503906 12.296875 Z M 1.503906 12.296875 "/>
<path style=" stroke:none;fill-rule:nonzero;fill:rgb(87.843138%,87.843138%,87.843138%);fill-opacity:1;" d="M 16.046875 5.25 C 13.558594 5.25 13.089844 9.039062 14.488281 9.039062 C 15.890625 9.039062 18.539062 5.25 16.046875 5.25 Z M 12.210938 5.832031 C 12.167969 5.832031 12.128906 5.835938 12.085938 5.835938 C 10.671875 6.015625 11.167969 8.40625 11.921875 8.453125 C 12.648438 8.496094 13.445312 5.835938 12.207031 5.832031 Z M 9.761719 6.714844 C 9.675781 6.707031 9.582031 6.726562 9.472656 6.769531 C 8.339844 7.234375 9.300781 9.160156 9.9375 9.03125 C 10.515625 8.914062 10.597656 6.769531 9.761719 6.714844 Z M 7.910156 8.289062 C 7.808594 8.28125 7.703125 8.320312 7.589844 8.402344 C 6.683594 9.082031 7.898438 10.71875 8.429688 10.464844 C 8.898438 10.242188 8.601562 8.3125 7.910156 8.289062 Z M 13.277344 9.851562 C 11.308594 9.816406 8.710938 10.816406 8.265625 12.824219 C 7.789062 14.996094 10.242188 18.007812 12.800781 18.007812 C 14.0625 18.007812 15.511719 16.855469 15.785156 15.398438 C 15.992188 14.285156 13.34375 14.734375 13.4375 15.46875 C 13.550781 16.351562 12.796875 16.785156 12.0625 16.21875 C 9.710938 14.40625 15.949219 13.507812 15.539062 11.03125 C 15.410156 10.265625 14.453125 9.871094 13.273438 9.851562 Z M 13.277344 9.851562 "/>
<path style=" stroke:none;fill-rule:nonzero;fill:rgb(38.039216%,38.039216%,38.039216%);fill-opacity:1;" d="M 12 1.5 C 17.796875 1.5 22.5 6.199219 22.5 12 C 22.5 17.796875 17.796875 22.5 12 22.5 C 6.203125 22.5 1.5 17.796875 1.5 12 C 1.5 6.199219 6.203125 1.5 12 1.5 Z M 12 1.5 "/>
<path style=" stroke:none;fill-rule:nonzero;fill:rgb(45.882353%,45.882353%,45.882353%);fill-opacity:1;" d="M 12 3 C 16.96875 3 21 7.027344 21 12 C 21 16.96875 16.96875 21 12 21 C 7.03125 21 3 16.96875 3 12 C 3 7.027344 7.03125 3 12 3 Z M 12 3 "/>
<path style=" stroke:none;fill-rule:nonzero;fill:rgb(55.29412%,43.137255%,38.82353%);fill-opacity:1;" d="M 16.046875 5.25 C 13.558594 5.25 13.089844 9.039062 14.488281 9.039062 C 15.890625 9.039062 18.539062 5.25 16.046875 5.25 Z M 12.210938 5.832031 C 12.167969 5.832031 12.128906 5.835938 12.085938 5.835938 C 10.671875 6.015625 11.167969 8.40625 11.921875 8.453125 C 12.648438 8.496094 13.445312 5.835938 12.207031 5.832031 Z M 9.761719 6.714844 C 9.675781 6.707031 9.582031 6.726562 9.472656 6.769531 C 8.339844 7.234375 9.300781 9.160156 9.9375 9.03125 C 10.515625 8.914062 10.597656 6.769531 9.761719 6.714844 Z M 7.910156 8.289062 C 7.808594 8.28125 7.703125 8.320312 7.589844 8.402344 C 6.683594 9.082031 7.898438 10.71875 8.429688 10.464844 C 8.898438 10.242188 8.601562 8.3125 7.910156 8.289062 Z M 13.277344 9.851562 C 11.308594 9.816406 8.710938 10.816406 8.265625 12.824219 C 7.789062 14.996094 10.242188 18.007812 12.800781 18.007812 C 14.0625 18.007812 15.511719 16.855469 15.785156 15.398438 C 15.992188 14.285156 13.34375 14.734375 13.4375 15.46875 C 13.550781 16.351562 12.796875 16.785156 12.0625 16.21875 C 9.710938 14.40625 15.949219 13.507812 15.539062 11.03125 C 15.410156 10.265625 14.453125 9.871094 13.273438 9.851562 Z M 13.277344 9.851562 "/>
<path style=" stroke:none;fill-rule:nonzero;fill:rgb(93.333334%,93.333334%,93.333334%);fill-opacity:1;" d="M 16.046875 5.25 C 13.558594 5.25 13.089844 9.039062 14.488281 9.039062 C 15.890625 9.039062 18.539062 5.25 16.046875 5.25 Z M 12.210938 5.832031 C 12.167969 5.832031 12.128906 5.835938 12.085938 5.835938 C 10.671875 6.015625 11.167969 8.40625 11.921875 8.453125 C 12.648438 8.496094 13.445312 5.835938 12.207031 5.832031 Z M 9.761719 6.714844 C 9.675781 6.707031 9.582031 6.726562 9.472656 6.769531 C 8.339844 7.234375 9.300781 9.160156 9.9375 9.03125 C 10.515625 8.914062 10.597656 6.769531 9.761719 6.714844 Z M 7.910156 8.289062 C 7.808594 8.28125 7.703125 8.320312 7.589844 8.402344 C 6.683594 9.082031 7.898438 10.71875 8.429688 10.464844 C 8.898438 10.242188 8.601562 8.3125 7.910156 8.289062 Z M 13.277344 9.851562 C 11.308594 9.816406 8.710938 10.816406 8.265625 12.824219 C 7.789062 14.996094 10.242188 18.007812 12.800781 18.007812 C 14.0625 18.007812 15.511719 16.855469 15.785156 15.398438 C 15.992188 14.285156 13.34375 14.734375 13.4375 15.46875 C 13.550781 16.351562 12.796875 16.785156 12.0625 16.21875 C 9.710938 14.40625 15.949219 13.507812 15.539062 11.03125 C 15.410156 10.265625 14.453125 9.871094 13.273438 9.851562 Z M 13.277344 9.851562 "/>
<path style=" stroke:none;fill-rule:nonzero;fill:rgb(100%,100%,100%);fill-opacity:0.4;" d="M 12 1.5 C 6.203125 1.5 1.5 6.199219 1.5 12 C 1.5 12.0625 1.5 12.125 1.503906 12.1875 C 1.601562 6.476562 6.265625 1.875 12 1.875 C 17.734375 1.875 22.398438 6.476562 22.496094 12.1875 C 22.5 12.125 22.5 12.0625 22.5 12 C 22.5 6.199219 17.796875 1.5 12 1.5 Z M 12 1.5 "/>
<path style=" stroke:none;fill-rule:nonzero;fill:rgb(0.392157%,0.392157%,0.392157%);fill-opacity:0.4;" d="M 12 22.5 C 6.203125 22.5 1.5 17.800781 1.5 12 C 1.5 11.9375 1.5 11.875 1.503906 11.8125 C 1.601562 17.523438 6.265625 22.125 12 22.125 C 17.734375 22.125 22.398438 17.523438 22.496094 11.8125 C 22.5 11.875 22.5 11.9375 22.5 12 C 22.5 17.800781 17.796875 22.5 12 22.5 Z M 12 22.5 "/>
<path style=" stroke:none;fill-rule:nonzero;fill:rgb(0%,0%,0%);fill-opacity:0.4;" d="M 17.058594 6.257812 C 16.890625 7.378906 15.417969 9.039062 14.492188 9.039062 C 14.023438 9.039062 13.765625 8.617188 13.71875 8.054688 C 13.660156 8.796875 13.921875 9.417969 14.492188 9.417969 C 15.53125 9.417969 17.257812 7.332031 17.058594 6.257812 Z M 12.84375 6.882812 C 12.769531 7.625 12.335938 8.476562 11.921875 8.453125 C 11.554688 8.429688 11.25 7.851562 11.195312 7.246094 C 11.125 7.96875 11.476562 8.804688 11.921875 8.832031 C 12.410156 8.863281 12.929688 7.671875 12.84375 6.882812 Z M 8.960938 7.796875 C 8.84375 8.523438 9.476562 9.503906 9.9375 9.410156 C 10.25 9.347656 10.414062 8.695312 10.371094 8.097656 C 10.339844 8.5625 10.183594 8.980469 9.9375 9.03125 C 9.554688 9.109375 9.054688 8.441406 8.960938 7.796875 Z M 7.28125 9.265625 C 7.128906 10.027344 8 11.050781 8.429688 10.847656 C 8.617188 10.757812 8.683594 10.394531 8.648438 9.992188 C 8.625 10.226562 8.554688 10.40625 8.429688 10.464844 C 8.070312 10.640625 7.398438 9.941406 7.28125 9.265625 Z M 15.542969 11.453125 C 15.28125 13.339844 11.144531 14.265625 11.5625 15.601562 C 11.941406 14.375 15.816406 13.40625 15.542969 11.453125 Z M 8.210938 13.585938 C 8.070312 15.710938 10.390625 18.386719 12.800781 18.386719 C 14.0625 18.386719 15.511719 17.238281 15.785156 15.777344 C 15.804688 15.667969 15.796875 15.570312 15.765625 15.488281 C 15.453125 16.902344 14.035156 18.007812 12.800781 18.007812 C 10.53125 18.007812 8.34375 15.636719 8.210938 13.585938 Z M 13.445312 15.738281 C 13.4375 15.761719 13.433594 15.789062 13.4375 15.8125 C 13.4375 15.789062 13.441406 15.765625 13.445312 15.738281 Z M 13.445312 15.738281 "/>
<path style=" stroke:none;fill-rule:nonzero;fill:rgb(0%,0%,0%);fill-opacity:0.4;" d="M 12 3 C 7.03125 3 3 7.027344 3 12 C 3 12.0625 3 12.125 3.003906 12.1875 C 3.101562 7.304688 7.09375 3.375 12 3.375 C 16.90625 3.375 20.898438 7.304688 20.996094 12.1875 C 21 12.125 21 12.0625 21 12 C 21 7.027344 16.96875 3 12 3 Z M 12 3 "/>
<path style=" stroke:none;fill-rule:nonzero;fill:rgb(99.607843%,99.607843%,99.607843%);fill-opacity:0.4;" d="M 12 21.375 C 7.03125 21.375 3 17.347656 3 12.375 C 3 12.3125 3 12.25 3.003906 12.1875 C 3.101562 17.070312 7.09375 21 12 21 C 16.90625 21 20.898438 17.070312 20.996094 12.1875 C 21 12.25 21 12.3125 21 12.375 C 21 17.347656 16.96875 21.375 12 21.375 Z M 12 21.375 "/>
<path style=" stroke:none;fill-rule:nonzero;fill:url(#linear0);" d="M 12 1.5 C 17.796875 1.5 22.5 6.203125 22.5 12 C 22.5 17.796875 17.796875 22.5 12 22.5 C 6.203125 22.5 1.5 17.796875 1.5 12 C 1.5 6.203125 6.203125 1.5 12 1.5 Z M 12 1.5 "/>
<path style=" stroke:none;fill-rule:nonzero;fill:rgb(100%,100%,100%);fill-opacity:0.8;" d="M 16.046875 5.25 C 14.386719 5.25 13.625 6.929688 13.71875 8.054688 C 13.796875 6.96875 14.5625 5.625 16.046875 5.625 C 16.691406 5.625 16.992188 5.878906 17.058594 6.253906 C 17.144531 5.679688 16.886719 5.25 16.046875 5.25 Z M 12.207031 5.828125 L 12.210938 5.832031 C 12.167969 5.832031 12.128906 5.835938 12.085938 5.835938 C 11.359375 5.929688 11.136719 6.601562 11.195312 7.242188 C 11.242188 6.738281 11.5 6.285156 12.085938 6.210938 C 12.128906 6.210938 12.167969 6.207031 12.210938 6.207031 L 12.207031 6.203125 C 12.617188 6.207031 12.800781 6.496094 12.84375 6.882812 C 12.894531 6.324219 12.738281 5.832031 12.207031 5.828125 Z M 9.761719 6.714844 C 9.675781 6.710938 9.582031 6.726562 9.472656 6.765625 C 9.023438 6.953125 8.90625 7.367188 8.960938 7.792969 C 9.007812 7.511719 9.160156 7.273438 9.472656 7.140625 C 9.582031 7.101562 9.675781 7.085938 9.761719 7.089844 C 10.148438 7.113281 10.335938 7.582031 10.371094 8.09375 C 10.417969 7.464844 10.242188 6.746094 9.761719 6.714844 Z M 7.871094 8.289062 C 7.785156 8.292969 7.6875 8.328125 7.589844 8.402344 C 7.296875 8.621094 7.226562 8.9375 7.28125 9.261719 C 7.316406 9.078125 7.414062 8.910156 7.589844 8.777344 C 7.703125 8.695312 7.808594 8.65625 7.910156 8.664062 C 8.324219 8.679688 8.597656 9.382812 8.648438 9.988281 C 8.710938 9.347656 8.414062 8.308594 7.910156 8.289062 C 7.898438 8.289062 7.882812 8.289062 7.871094 8.289062 Z M 13.089844 9.851562 C 11.144531 9.882812 8.695312 10.878906 8.265625 12.824219 C 8.210938 13.070312 8.195312 13.324219 8.210938 13.582031 C 8.222656 13.453125 8.238281 13.324219 8.265625 13.199219 C 8.710938 11.191406 11.304688 10.191406 13.273438 10.226562 C 14.453125 10.246094 15.410156 10.640625 15.539062 11.40625 C 15.539062 11.421875 15.542969 11.4375 15.542969 11.449219 C 15.5625 11.316406 15.5625 11.175781 15.539062 11.03125 C 15.410156 10.265625 14.453125 9.871094 13.273438 9.851562 C 13.214844 9.851562 13.152344 9.851562 13.089844 9.851562 Z M 14.886719 14.726562 C 14.199219 14.734375 13.382812 15.054688 13.4375 15.46875 C 13.449219 15.558594 13.453125 15.644531 13.445312 15.726562 C 13.601562 15.132812 15.503906 14.796875 15.765625 15.484375 C 15.773438 15.453125 15.78125 15.425781 15.785156 15.398438 C 15.875 14.910156 15.421875 14.722656 14.886719 14.726562 Z M 11.558594 15.597656 C 11.464844 15.90625 11.59375 16.230469 12.0625 16.589844 C 12.796875 17.160156 13.550781 16.726562 13.4375 15.84375 C 13.4375 15.832031 13.4375 15.824219 13.4375 15.8125 C 13.335938 16.453125 12.691406 16.703125 12.0625 16.214844 C 11.777344 16 11.621094 15.792969 11.558594 15.597656 Z M 11.558594 15.597656 "/>
</g>
</svg>
