
<svg xmlns="http://www.w3.org/2000/svg" xmlns:xlink="http://www.w3.org/1999/xlink" width="24" height="24" viewBox="0 0 24 24" version="1.1">
<defs>
<linearGradient id="linear0" gradientUnits="userSpaceOnUse" x1="8.466666" y1="-199.125" x2="8.466666" y2="-213.941666" gradientTransform="matrix(1.417323,0,0,1.417323,0.00000209972,304.724425)">
<stop offset="0" style="stop-color:rgb(0%,0%,0%);stop-opacity:0.2;"/>
<stop offset="1" style="stop-color:rgb(100%,100%,100%);stop-opacity:0;"/>
</linearGradient>
</defs>
<g id="surface1">
<path style=" stroke:none;fill-rule:nonzero;fill:rgb(49.411765%,34.117648%,76.078433%);fill-opacity:1;" d="M 5.25 1.5 L 18.75 1.5 C 19.578125 1.5 20.25 2.171875 20.25 3 L 20.25 21 C 20.25 21.828125 19.578125 22.5 18.75 22.5 L 5.25 22.5 C 4.421875 22.5 3.75 21.828125 3.75 21 L 3.75 3 C 3.75 2.171875 4.421875 1.5 5.25 1.5 Z M 5.25 1.5 "/>
<path style=" stroke:none;fill-rule:nonzero;fill:rgb(93.333334%,93.333334%,93.333334%);fill-opacity:1;" d="M 10.125 8.25 L 16.875 8.25 C 17.082031 8.25 17.25 8.417969 17.25 8.625 L 17.25 9.375 C 17.25 9.582031 17.082031 9.75 16.875 9.75 L 10.125 9.75 C 9.917969 9.75 9.75 9.582031 9.75 9.375 L 9.75 8.625 C 9.75 8.417969 9.917969 8.25 10.125 8.25 Z M 10.125 8.25 "/>
<path style=" stroke:none;fill-rule:nonzero;fill:rgb(100%,100%,100%);fill-opacity:0.8;" d="M 10.125 8.25 C 9.917969 8.25 9.75 8.417969 9.75 8.625 L 9.75 9 C 9.75 8.792969 9.917969 8.625 10.125 8.625 L 16.875 8.625 C 17.082031 8.625 17.25 8.792969 17.25 9 L 17.25 8.625 C 17.25 8.417969 17.082031 8.25 16.875 8.25 Z M 10.125 8.25 "/>
<path style=" stroke:none;fill-rule:nonzero;fill:rgb(0.392157%,0.392157%,0.392157%);fill-opacity:0.4;" d="M 10.125 10.125 C 9.917969 10.125 9.75 9.957031 9.75 9.75 L 9.75 9.375 C 9.75 9.582031 9.917969 9.75 10.125 9.75 L 16.875 9.75 C 17.082031 9.75 17.25 9.582031 17.25 9.375 L 17.25 9.75 C 17.25 9.957031 17.082031 10.125 16.875 10.125 Z M 10.125 10.125 "/>
<path style="fill:none;stroke-width:0.7;stroke-linecap:round;stroke-linejoin:round;stroke:rgb(61.960787%,61.960787%,61.960787%);stroke-opacity:1;stroke-dasharray:2.1,2.1;stroke-dashoffset:0.63;stroke-miterlimit:4;" d="M 20 6 L 20 57.5 L 50 57.5 C 51.104167 57.5 52 56.604167 52 55.5 L 52 8 C 52 6.895833 51.104167 6 50 6 Z M 20 6 " transform="matrix(0.375,0,0,0.375,0,0)"/>
<path style=" stroke:none;fill-rule:nonzero;fill:rgb(38.039216%,38.039216%,38.039216%);fill-opacity:0.996078;" d="M 5.25 1.5 C 4.417969 1.5 3.75 2.167969 3.75 3 L 3.75 21 C 3.75 21.832031 4.417969 22.5 5.25 22.5 L 6.75 22.5 L 6.75 1.5 Z M 5.25 1.5 "/>
<path style=" stroke:none;fill-rule:nonzero;fill:rgb(45.882353%,45.882353%,45.882353%);fill-opacity:1;" d="M 3.75 15 L 6.75 15 L 6.75 16.5 L 3.75 16.5 Z M 3.75 15 "/>
<path style=" stroke:none;fill-rule:nonzero;fill:rgb(45.882353%,45.882353%,45.882353%);fill-opacity:0.996078;" d="M 3.75 6.75 L 6.75 6.75 L 6.75 8.25 L 3.75 8.25 Z M 3.75 6.75 "/>
<path style=" stroke:none;fill-rule:nonzero;fill:rgb(0.784314%,0.784314%,0.784314%);fill-opacity:0.4;" d="M 5.25 22.496094 C 4.417969 22.496094 3.75 21.828125 3.75 20.996094 L 3.75 20.625 C 3.75 21.457031 4.417969 22.125 5.25 22.125 L 18.75 22.125 C 19.582031 22.125 20.25 21.457031 20.25 20.625 L 20.25 20.996094 C 20.25 21.828125 19.582031 22.496094 18.75 22.496094 Z M 5.25 22.496094 "/>
<path style=" stroke:none;fill-rule:nonzero;fill:rgb(0%,0%,0%);fill-opacity:0.2;" d="M 3.75 21 L 3.75 21.5625 C 3.75 22.394531 4.417969 23.0625 5.25 23.0625 L 18.75 23.0625 C 19.582031 23.0625 20.25 22.394531 20.25 21.5625 L 20.25 21 C 20.25 21.832031 19.582031 22.5 18.75 22.5 L 5.25 22.5 C 4.417969 22.5 3.75 21.832031 3.75 21 Z M 3.75 21 "/>
<path style=" stroke:none;fill-rule:nonzero;fill:rgb(0%,0%,0%);fill-opacity:0.4;" d="M 3.75 8.25 L 6.75 8.25 L 6.75 8.625 L 3.75 8.625 Z M 3.75 8.25 "/>
<path style=" stroke:none;fill-rule:nonzero;fill:rgb(99.215686%,99.215686%,99.215686%);fill-opacity:0.4;" d="M 3.75 6.75 L 6.75 6.75 L 6.75 7.125 L 3.75 7.125 Z M 3.75 6.75 "/>
<path style=" stroke:none;fill-rule:nonzero;fill:rgb(0%,0%,0%);fill-opacity:0.4;" d="M 3.75 16.5 L 6.75 16.5 L 6.75 16.875 L 3.75 16.875 Z M 3.75 16.5 "/>
<path style=" stroke:none;fill-rule:nonzero;fill:rgb(99.215686%,99.215686%,99.215686%);fill-opacity:0.4;" d="M 3.75 15 L 6.75 15 L 6.75 15.375 L 3.75 15.375 Z M 3.75 15 "/>
<path style=" stroke:none;fill-rule:nonzero;fill:rgb(99.607843%,99.607843%,99.607843%);fill-opacity:0.4;" d="M 5.25 1.5 C 4.417969 1.5 3.75 2.167969 3.75 3 L 3.75 3.371094 C 3.75 2.539062 4.417969 1.871094 5.25 1.871094 L 18.75 1.871094 C 19.582031 1.871094 20.25 2.539062 20.25 3.371094 L 20.25 3 C 20.25 2.167969 19.582031 1.5 18.75 1.5 Z M 5.25 1.5 "/>
<path style=" stroke:none;fill-rule:nonzero;fill:url(#linear0);" d="M 5.25 1.5 L 18.75 1.5 C 19.578125 1.5 20.25 2.171875 20.25 3 L 20.25 21 C 20.25 21.828125 19.578125 22.5 18.75 22.5 L 5.25 22.5 C 4.421875 22.5 3.75 21.828125 3.75 21 L 3.75 3 C 3.75 2.171875 4.421875 1.5 5.25 1.5 Z M 5.25 1.5 "/>
</g>
</svg>
