
<svg xmlns="http://www.w3.org/2000/svg" xmlns:xlink="http://www.w3.org/1999/xlink" width="24" height="24" viewBox="0 0 24 24" version="1.1">
<defs>
<linearGradient id="linear0" gradientUnits="userSpaceOnUse" x1="8.466666" y1="-199.125" x2="8.466666" y2="-212.883331" gradientTransform="matrix(1.417323,0,0,1.417323,0,304.724425)">
<stop offset="0" style="stop-color:rgb(0%,0%,0%);stop-opacity:0.2;"/>
<stop offset="1" style="stop-color:rgb(100%,100%,100%);stop-opacity:0;"/>
</linearGradient>
</defs>
<g id="surface1">
<path style=" stroke:none;fill-rule:nonzero;fill:rgb(93.725491%,32.549021%,31.37255%);fill-opacity:1;" d="M 21.226562 5.40625 C 22.925781 6.617188 22.925781 17.382812 21.226562 18.59375 C 19.53125 19.808594 4.46875 19.808594 2.773438 18.59375 C 1.074219 17.382812 1.074219 6.617188 2.773438 5.40625 C 4.46875 4.191406 19.53125 4.191406 21.226562 5.40625 Z M 21.226562 5.40625 "/>
<path style=" stroke:none;fill-rule:nonzero;fill:rgb(93.333334%,93.333334%,93.333334%);fill-opacity:1;" d="M 10.375 8.316406 L 15.445312 11.597656 C 15.582031 11.683594 15.664062 11.835938 15.664062 12 C 15.664062 12.164062 15.582031 12.316406 15.445312 12.402344 L 10.375 15.683594 C 10.25 15.765625 10.089844 15.769531 9.960938 15.699219 C 9.832031 15.628906 9.75 15.492188 9.75 15.34375 L 9.75 8.65625 C 9.75 8.507812 9.832031 8.371094 9.960938 8.300781 C 10.089844 8.226562 10.25 8.234375 10.375 8.316406 Z M 10.375 8.316406 "/>
<path style=" stroke:none;fill-rule:nonzero;fill:rgb(100%,100%,100%);fill-opacity:0.0392157;" d="M 10.375 8.316406 L 15.445312 11.597656 C 15.582031 11.683594 15.664062 11.835938 15.664062 12 C 15.664062 12.164062 15.582031 12.316406 15.445312 12.402344 L 10.375 15.683594 C 10.25 15.765625 10.089844 15.769531 9.960938 15.699219 C 9.832031 15.628906 9.75 15.492188 9.75 15.34375 L 9.75 8.65625 C 9.75 8.507812 9.832031 8.371094 9.960938 8.300781 C 10.089844 8.226562 10.25 8.234375 10.375 8.316406 Z M 10.375 8.316406 "/>
<path style=" stroke:none;fill-rule:nonzero;fill:rgb(0%,0%,0%);fill-opacity:0.4;" d="M 15.625 12.199219 C 15.589844 12.289062 15.523438 12.363281 15.445312 12.414062 L 10.375 15.695312 C 10.25 15.777344 10.089844 15.78125 9.960938 15.710938 C 9.832031 15.640625 9.75 15.503906 9.75 15.355469 L 9.75 15.730469 C 9.75 15.878906 9.832031 16.015625 9.960938 16.085938 C 10.089844 16.15625 10.25 16.152344 10.375 16.070312 L 15.445312 12.789062 C 15.640625 12.664062 15.714844 12.414062 15.625 12.199219 Z M 15.625 12.199219 "/>
<path style=" stroke:none;fill-rule:nonzero;fill:rgb(100%,100%,100%);fill-opacity:0.6;" d="M 10.125 8.25 C 9.914062 8.265625 9.75 8.441406 9.75 8.65625 L 9.75 9.035156 C 9.75 8.886719 9.832031 8.75 9.960938 8.679688 C 10.089844 8.609375 10.25 8.613281 10.375 8.695312 L 15.445312 11.976562 C 15.523438 12.027344 15.585938 12.101562 15.625 12.191406 C 15.71875 11.972656 15.640625 11.722656 15.445312 11.597656 L 10.375 8.316406 C 10.300781 8.265625 10.214844 8.246094 10.125 8.25 Z M 10.125 8.25 "/>
<path style=" stroke:none;fill-rule:nonzero;fill:rgb(100%,100%,100%);fill-opacity:0.4;" d="M 12 4.496094 C 7.808594 4.496094 3.621094 4.796875 2.773438 5.40625 C 1.90625 6.023438 1.484375 9.128906 1.5 12.1875 C 1.519531 9.253906 1.941406 6.371094 2.773438 5.777344 C 4.46875 4.566406 19.53125 4.566406 21.226562 5.777344 C 22.058594 6.371094 22.480469 9.253906 22.5 12.1875 C 22.515625 9.128906 22.09375 6.023438 21.226562 5.40625 C 20.378906 4.796875 16.191406 4.496094 12 4.496094 Z M 12 4.496094 "/>
<path style=" stroke:none;fill-rule:nonzero;fill:rgb(4.313726%,4.313726%,4.313726%);fill-opacity:0.4;" d="M 12 19.5 C 7.808594 19.5 3.621094 19.195312 2.773438 18.589844 C 1.90625 17.972656 1.484375 14.863281 1.5 11.808594 C 1.519531 14.738281 1.941406 17.625 2.773438 18.21875 C 4.46875 19.429688 19.53125 19.429688 21.230469 18.21875 C 22.058594 17.625 22.480469 14.738281 22.5 11.808594 C 22.515625 14.863281 22.09375 17.972656 21.230469 18.589844 C 20.378906 19.195312 16.191406 19.5 12 19.5 Z M 12 19.5 "/>
<path style=" stroke:none;fill-rule:nonzero;fill:rgb(0%,0%,0%);fill-opacity:0.2;" d="M 1.5 12.28125 C 1.476562 15.367188 1.898438 18.527344 2.773438 19.152344 C 4.46875 20.363281 19.53125 20.363281 21.226562 19.152344 C 22.101562 18.527344 22.523438 15.367188 22.5 12.28125 C 22.472656 15.183594 22.050781 18.011719 21.226562 18.601562 C 19.53125 19.8125 4.46875 19.8125 2.773438 18.601562 C 1.949219 18.011719 1.527344 15.183594 1.5 12.28125 Z M 1.5 12.28125 "/>
<path style=" stroke:none;fill-rule:nonzero;fill:url(#linear0);" d="M 21.226562 5.40625 C 22.925781 6.617188 22.925781 17.382812 21.226562 18.59375 C 19.53125 19.808594 4.46875 19.808594 2.773438 18.59375 C 1.074219 17.382812 1.074219 6.617188 2.773438 5.40625 C 4.46875 4.191406 19.53125 4.191406 21.226562 5.40625 Z M 21.226562 5.40625 "/>
</g>
</svg>
