
<svg xmlns="http://www.w3.org/2000/svg" xmlns:xlink="http://www.w3.org/1999/xlink" width="32" height="32" viewBox="0 0 32 32" version="1.1">
<defs>
<linearGradient id="linear0" gradientUnits="userSpaceOnUse" x1="8.466666" y1="-199.125" x2="8.466666" y2="-213.941666" gradientTransform="matrix(1.889764,0,0,1.889764,-0.00000631431,406.299234)">
<stop offset="0" style="stop-color:rgb(0%,0%,0%);stop-opacity:0.2;"/>
<stop offset="1" style="stop-color:rgb(100%,100%,100%);stop-opacity:0;"/>
</linearGradient>
<linearGradient id="linear1" gradientUnits="userSpaceOnUse" x1="46" y1="60" x2="46" y2="29.999998" gradientTransform="matrix(0.5,0,0,0.5,-0.00000313701,0)">
<stop offset="0" style="stop-color:rgb(0%,0%,0%);stop-opacity:0.2;"/>
<stop offset="1" style="stop-color:rgb(100%,100%,100%);stop-opacity:0;"/>
</linearGradient>
</defs>
<g id="surface1">
<path style=" stroke:none;fill-rule:nonzero;fill:rgb(92.54902%,25.098041%,47.843137%);fill-opacity:1;" d="M 4 2 L 28 2 C 29.105469 2 30 2.894531 30 4 L 30 28 C 30 29.105469 29.105469 30 28 30 L 4 30 C 2.894531 30 2 29.105469 2 28 L 2 4 C 2 2.894531 2.894531 2 4 2 Z M 4 2 "/>
<path style=" stroke:none;fill-rule:nonzero;fill:rgb(100%,99.215686%,99.215686%);fill-opacity:0.4;" d="M 2 16.25 L 30 16.25 L 30 16.75 L 2 16.75 Z M 2 16.25 "/>
<path style=" stroke:none;fill-rule:nonzero;fill:rgb(99.607843%,99.607843%,99.607843%);fill-opacity:0.2;" d="M 2.945312 10 L 2 11.640625 L 2 21 L 6.609375 23.660156 L 11.609375 15 Z M 13.339844 16 L 8.339844 24.660156 L 17 29.660156 L 22 21 Z M 2 23.308594 L 2 28 C 2 28.773438 2.4375 29.441406 3.078125 29.773438 L 5.609375 25.390625 Z M 7.339844 26.390625 L 5.257812 30 L 13.585938 30 Z M 7.339844 26.390625 "/>
<path style=" stroke:none;fill-rule:nonzero;fill:rgb(0%,0%,0%);fill-opacity:0.4;" d="M 2 27.5 L 2 28 C 2 29.109375 2.890625 30 4 30 L 28 30 C 29.109375 30 30 29.109375 30 28 L 30 27.5 C 30 28.609375 29.109375 29.5 28 29.5 L 4 29.5 C 2.890625 29.5 2 28.609375 2 27.5 Z M 2 27.5 "/>
<path style=" stroke:none;fill-rule:nonzero;fill:rgb(0%,0%,0%);fill-opacity:0.2;" d="M 2 28 L 2 28.75 C 2 29.859375 2.890625 30.75 4 30.75 L 22.5 30.75 C 21.320312 30.75 20.207031 30.480469 19.21875 30 L 4 30 C 2.890625 30 2 29.109375 2 28 Z M 22.5 30.75 L 28 30.75 C 29.109375 30.75 30 29.859375 30 28.75 L 30 28 C 30 29.109375 29.109375 30 28 30 L 25.78125 30 C 24.792969 30.480469 23.679688 30.75 22.5 30.75 Z M 22.5 30.75 "/>
<path style=" stroke:none;fill-rule:nonzero;fill:rgb(100%,100%,100%);fill-opacity:0.8;" d="M 4 2 C 2.890625 2 2 2.890625 2 4 L 2 4.492188 C 2 3.382812 2.890625 2.492188 4 2.492188 L 28 2.492188 C 29.109375 2.492188 30 3.382812 30 4.492188 L 30 4 C 30 2.890625 29.109375 2 28 2 Z M 4 2 "/>
<path style=" stroke:none;fill-rule:nonzero;fill:rgb(0.392157%,0.392157%,0.392157%);fill-opacity:0.4;" d="M 7 19.5 C 6.722656 19.5 6.5 19.277344 6.5 19 L 6.5 18.75 C 6.5 19.027344 6.722656 19.25 7 19.25 L 10 19.25 C 10.277344 19.25 10.5 19.027344 10.5 18.75 L 10.5 19 C 10.5 19.277344 10.277344 19.5 10 19.5 Z M 7 13.75 L 7 13.5 C 7 13.363281 7.113281 13.25 7.25 13.25 L 9.75 13.25 C 9.886719 13.25 10 13.363281 10 13.5 L 10 13.75 C 10 13.613281 9.886719 13.5 9.75 13.5 L 7.25 13.5 C 7.113281 13.5 7 13.613281 7 13.75 Z M 7 13.75 "/>
<path style=" stroke:none;fill-rule:nonzero;fill:rgb(0.392157%,0%,0%);fill-opacity:0.4;" d="M 2 15.75 L 30 15.75 L 30 16.25 L 2 16.25 Z M 2 15.75 "/>
<path style=" stroke:none;fill-rule:nonzero;fill:rgb(0%,0%,0%);fill-opacity:0.2;" d="M 7 11 L 10 11 C 10.550781 11 11 11.449219 11 12 L 11 20 C 11 20.550781 10.550781 21 10 21 L 7 21 C 6.449219 21 6 20.550781 6 20 L 6 12 C 6 11.449219 6.449219 11 7 11 Z M 7 11 "/>
<path style=" stroke:none;fill-rule:nonzero;fill:rgb(87.843138%,87.843138%,87.843138%);fill-opacity:1;" d="M 7 12.75 C 6.722656 12.75 6.5 12.972656 6.5 13.25 L 6.5 18.75 C 6.5 19.027344 6.722656 19.25 7 19.25 L 10 19.25 C 10.277344 19.25 10.5 19.027344 10.5 18.75 L 10.5 13.25 C 10.5 12.972656 10.277344 12.75 10 12.75 Z M 7.25 13.25 L 9.75 13.25 C 9.886719 13.25 10 13.363281 10 13.5 L 10 18.5 C 10 18.636719 9.886719 18.75 9.75 18.75 L 7.25 18.75 C 7.113281 18.75 7 18.636719 7 18.5 L 7 13.5 C 7 13.363281 7.113281 13.25 7.25 13.25 Z M 7.25 13.25 "/>
<path style=" stroke:none;fill-rule:nonzero;fill:rgb(100%,100%,100%);fill-opacity:0.4;" d="M 7 21.5 C 6.445312 21.5 6 21.054688 6 20.5 L 6 20 C 6 20.554688 6.445312 21 7 21 L 10 21 C 10.554688 21 11 20.554688 11 20 L 11 20.5 C 11 21.054688 10.554688 21.5 10 21.5 Z M 7 21.5 "/>
<path style=" stroke:none;fill-rule:nonzero;fill:rgb(0%,0%,0%);fill-opacity:0.4;" d="M 7 11 C 6.445312 11 6 11.445312 6 12 L 6 12.5 C 6 11.945312 6.445312 11.5 7 11.5 L 10 11.5 C 10.554688 11.5 11 11.945312 11 12.5 L 11 12 C 11 11.445312 10.554688 11 10 11 Z M 7 11 "/>
<path style=" stroke:none;fill-rule:nonzero;fill:rgb(100%,100%,100%);fill-opacity:0.4;" d="M 7 12.75 C 6.722656 12.75 6.5 12.972656 6.5 13.25 L 6.5 13.5 C 6.5 13.222656 6.722656 13 7 13 L 10 13 C 10.277344 13 10.5 13.222656 10.5 13.5 L 10.5 13.25 C 10.5 12.972656 10.277344 12.75 10 12.75 Z M 7 18.5 L 7 18.75 C 7 18.886719 7.113281 19 7.25 19 L 9.75 19 C 9.886719 19 10 18.886719 10 18.75 L 10 18.5 C 10 18.636719 9.886719 18.75 9.75 18.75 L 7.25 18.75 C 7.113281 18.75 7 18.636719 7 18.5 Z M 7 18.5 "/>
<path style=" stroke:none;fill-rule:nonzero;fill:rgb(94.117647%,38.431373%,57.254905%);fill-opacity:1;" d="M 7.5 17.5 L 9.5 17.5 C 9.777344 17.5 10 17.722656 10 18 L 10 20 C 10 20.277344 9.777344 20.5 9.5 20.5 L 7.5 20.5 C 7.222656 20.5 7 20.277344 7 20 L 7 18 C 7 17.722656 7.222656 17.5 7.5 17.5 Z M 7.5 17.5 "/>
<path style=" stroke:none;fill-rule:nonzero;fill:rgb(0%,0%,0%);fill-opacity:0.4;" d="M 7 20 L 7 20.5 C 7 20.777344 7.222656 21 7.5 21 L 9.5 21 C 9.777344 21 10 20.777344 10 20.5 L 10 20 C 10 20.277344 9.777344 20.5 9.5 20.5 L 7.5 20.5 C 7.222656 20.5 7 20.277344 7 20 Z M 7 20 "/>
<path style=" stroke:none;fill-rule:nonzero;fill:rgb(0%,0%,0%);fill-opacity:0.4;" d="M 7 13.5 L 7 14 C 7 14.277344 7.222656 14.5 7.5 14.5 L 9.5 14.5 C 9.777344 14.5 10 14.277344 10 14 L 10 13.5 C 10 13.777344 9.777344 14 9.5 14 L 7.5 14 C 7.222656 14 7 13.777344 7 13.5 Z M 7 13.5 "/>
<path style=" stroke:none;fill-rule:nonzero;fill:rgb(100%,100%,100%);fill-opacity:0.4;" d="M 7 18.5 L 7 18 C 7 17.722656 7.222656 17.5 7.5 17.5 L 9.5 17.5 C 9.777344 17.5 10 17.722656 10 18 L 10 18.5 C 10 18.222656 9.777344 18 9.5 18 L 7.5 18 C 7.222656 18 7 18.222656 7 18.5 Z M 7 18.5 "/>
<path style=" stroke:none;fill-rule:nonzero;fill:rgb(0.392157%,0.392157%,0.392157%);fill-opacity:0.4;" d="M 22 19.5 C 21.722656 19.5 21.5 19.277344 21.5 19 L 21.5 18.75 C 21.5 19.027344 21.722656 19.25 22 19.25 L 25 19.25 C 25.277344 19.25 25.5 19.027344 25.5 18.75 L 25.5 19 C 25.5 19.277344 25.277344 19.5 25 19.5 Z M 22 13.75 L 22 13.5 C 22 13.363281 22.113281 13.25 22.25 13.25 L 24.75 13.25 C 24.886719 13.25 25 13.363281 25 13.5 L 25 13.75 C 25 13.613281 24.886719 13.5 24.75 13.5 L 22.25 13.5 C 22.113281 13.5 22 13.613281 22 13.75 Z M 22 13.75 "/>
<path style=" stroke:none;fill-rule:nonzero;fill:rgb(0%,0%,0%);fill-opacity:0.2;" d="M 22 11 L 25 11 C 25.550781 11 26 11.449219 26 12 L 26 20 C 26 20.550781 25.550781 21 25 21 L 22 21 C 21.449219 21 21 20.550781 21 20 L 21 12 C 21 11.449219 21.449219 11 22 11 Z M 22 11 "/>
<path style=" stroke:none;fill-rule:nonzero;fill:rgb(87.843138%,87.843138%,87.843138%);fill-opacity:1;" d="M 22 12.75 C 21.722656 12.75 21.5 12.972656 21.5 13.25 L 21.5 18.75 C 21.5 19.027344 21.722656 19.25 22 19.25 L 25 19.25 C 25.277344 19.25 25.5 19.027344 25.5 18.75 L 25.5 13.25 C 25.5 12.972656 25.277344 12.75 25 12.75 Z M 22.25 13.25 L 24.75 13.25 C 24.886719 13.25 25 13.363281 25 13.5 L 25 18.5 C 25 18.636719 24.886719 18.75 24.75 18.75 L 22.25 18.75 C 22.113281 18.75 22 18.636719 22 18.5 L 22 13.5 C 22 13.363281 22.113281 13.25 22.25 13.25 Z M 22.25 13.25 "/>
<path style=" stroke:none;fill-rule:nonzero;fill:rgb(100%,100%,100%);fill-opacity:0.4;" d="M 22 12.75 C 21.722656 12.75 21.5 12.972656 21.5 13.25 L 21.5 13.5 C 21.5 13.222656 21.722656 13 22 13 L 25 13 C 25.277344 13 25.5 13.222656 25.5 13.5 L 25.5 13.25 C 25.5 12.972656 25.277344 12.75 25 12.75 Z M 22 18.5 L 22 18.75 C 22 18.886719 22.113281 19 22.25 19 L 24.75 19 C 24.886719 19 25 18.886719 25 18.75 L 25 18.5 C 25 18.636719 24.886719 18.75 24.75 18.75 L 22.25 18.75 C 22.113281 18.75 22 18.636719 22 18.5 Z M 22 18.5 "/>
<path style=" stroke:none;fill-rule:nonzero;fill:rgb(94.117647%,38.431373%,57.254905%);fill-opacity:0.996078;" d="M 7.5 12 L 9.5 12 C 9.777344 12 10 12.222656 10 12.5 L 10 13.5 C 10 13.777344 9.777344 14 9.5 14 L 7.5 14 C 7.222656 14 7 13.777344 7 13.5 L 7 12.5 C 7 12.222656 7.222656 12 7.5 12 Z M 7.5 12 "/>
<path style=" stroke:none;fill-rule:nonzero;fill:rgb(94.117647%,38.431373%,57.254905%);fill-opacity:0.996078;" d="M 22.5 12 L 24.5 12 C 24.777344 12 25 12.222656 25 12.5 L 25 13.5 C 25 13.777344 24.777344 14 24.5 14 L 22.5 14 C 22.222656 14 22 13.777344 22 13.5 L 22 12.5 C 22 12.222656 22.222656 12 22.5 12 Z M 22.5 12 "/>
<path style=" stroke:none;fill-rule:nonzero;fill:rgb(99.607843%,99.607843%,99.607843%);fill-opacity:0.4;" d="M 7 13 L 7 12.5 C 7 12.222656 7.222656 12 7.5 12 L 9.5 12 C 9.777344 12 10 12.222656 10 12.5 L 10 13 C 10 12.722656 9.777344 12.5 9.5 12.5 L 7.5 12.5 C 7.222656 12.5 7 12.722656 7 13 Z M 7 13 "/>
<path style=" stroke:none;fill-rule:nonzero;fill:rgb(100%,100%,100%);fill-opacity:0.4;" d="M 22 21.5 C 21.445312 21.5 21 21.054688 21 20.5 L 21 20 C 21 20.554688 21.445312 21 22 21 L 25 21 C 25.554688 21 26 20.554688 26 20 L 26 20.5 C 26 21.054688 25.554688 21.5 25 21.5 Z M 22 21.5 "/>
<path style=" stroke:none;fill-rule:nonzero;fill:rgb(0%,0%,0%);fill-opacity:0.4;" d="M 22 11 C 21.445312 11 21 11.445312 21 12 L 21 12.5 C 21 11.945312 21.445312 11.5 22 11.5 L 25 11.5 C 25.554688 11.5 26 11.945312 26 12.5 L 26 12 C 26 11.445312 25.554688 11 25 11 Z M 22 11 "/>
<path style=" stroke:none;fill-rule:nonzero;fill:rgb(87.843138%,87.843138%,87.843138%);fill-opacity:1;" d="M 22.5 17.5 L 24.5 17.5 C 24.777344 17.5 25 17.722656 25 18 L 25 20 C 25 20.277344 24.777344 20.5 24.5 20.5 L 22.5 20.5 C 22.222656 20.5 22 20.277344 22 20 L 22 18 C 22 17.722656 22.222656 17.5 22.5 17.5 Z M 22.5 17.5 "/>
<path style=" stroke:none;fill-rule:nonzero;fill:rgb(0%,0%,0%);fill-opacity:0.4;" d="M 22 20 L 22 20.5 C 22 20.777344 22.222656 21 22.5 21 L 24.5 21 C 24.777344 21 25 20.777344 25 20.5 L 25 20 C 25 20.277344 24.777344 20.5 24.5 20.5 L 22.5 20.5 C 22.222656 20.5 22 20.277344 22 20 Z M 22 20 "/>
<path style=" stroke:none;fill-rule:nonzero;fill:rgb(0%,0%,0%);fill-opacity:0.4;" d="M 22 13.5 L 22 14 C 22 14.277344 22.222656 14.5 22.5 14.5 L 24.5 14.5 C 24.777344 14.5 25 14.277344 25 14 L 25 13.5 C 25 13.777344 24.777344 14 24.5 14 L 22.5 14 C 22.222656 14 22 13.777344 22 13.5 Z M 22 13.5 "/>
<path style=" stroke:none;fill-rule:nonzero;fill:rgb(100%,100%,100%);fill-opacity:0.8;" d="M 22 18.5 L 22 18 C 22 17.722656 22.222656 17.5 22.5 17.5 L 24.5 17.5 C 24.777344 17.5 25 17.722656 25 18 L 25 18.5 C 25 18.222656 24.777344 18 24.5 18 L 22.5 18 C 22.222656 18 22 18.222656 22 18.5 Z M 22 18.5 "/>
<path style=" stroke:none;fill-rule:nonzero;fill:rgb(99.607843%,99.607843%,99.607843%);fill-opacity:0.4;" d="M 22 13 L 22 12.5 C 22 12.222656 22.222656 12 22.5 12 L 24.5 12 C 24.777344 12 25 12.222656 25 12.5 L 25 13 C 25 12.722656 24.777344 12.5 24.5 12.5 L 22.5 12.5 C 22.222656 12.5 22 12.722656 22 13 Z M 22 13 "/>
<path style=" stroke:none;fill-rule:nonzero;fill:url(#linear0);" d="M 4 2 L 28 2 C 29.105469 2 30 2.894531 30 4 L 30 28 C 30 29.105469 29.105469 30 28 30 L 4 30 C 2.894531 30 2 29.105469 2 28 L 2 4 C 2 2.894531 2.894531 2 4 2 Z M 4 2 "/>
<path style=" stroke:none;fill-rule:nonzero;fill:rgb(0%,0%,0%);fill-opacity:0.4;" d="M 23 15 L 23 15.5 L 22 15.5 C 21.445312 15.5 21 15.945312 21 16.5 L 21 16 C 21 15.445312 21.445312 15 22 15 Z M 23 15 "/>
<path style=" stroke:none;fill-rule:nonzero;fill:rgb(100%,100%,100%);fill-opacity:0.4;" d="M 23 25.5 L 23 25 L 22 25 C 21.445312 25 21 24.554688 21 24 L 21 24.5 C 21 25.054688 21.445312 25.5 22 25.5 Z M 23 25.5 "/>
<path style=" stroke:none;fill-rule:nonzero;fill:rgb(93.333334%,93.333334%,93.333334%);fill-opacity:0.996078;" d="M 22.5 15 C 18.34375 15 15 18.34375 15 22.5 C 15 26.65625 18.34375 30 22.5 30 C 26.65625 30 30 26.65625 30 22.5 C 30 18.34375 26.65625 15 22.5 15 Z M 22.460938 21 C 22.472656 21 22.488281 21 22.5 21 C 23.332031 21 24 21.667969 24 22.5 C 24 23.332031 23.332031 24 22.5 24 C 21.667969 24 21 23.332031 21 22.5 C 21 21.683594 21.648438 21.019531 22.460938 21 Z M 22.460938 21 "/>
<path style=" stroke:none;fill-rule:nonzero;fill:rgb(87.843138%,87.843138%,87.843138%);fill-opacity:0.996078;" d="M 22.5 19 C 20.5625 19 19 20.5625 19 22.5 C 19 24.4375 20.5625 26 22.5 26 C 24.4375 26 26 24.4375 26 22.5 C 26 20.5625 24.4375 19 22.5 19 Z M 22.460938 21 C 22.472656 21 22.488281 21 22.5 21 C 23.332031 21 24 21.667969 24 22.5 C 24 23.332031 23.332031 24 22.5 24 C 21.667969 24 21 23.332031 21 22.5 C 21 21.683594 21.648438 21.019531 22.460938 21 Z M 22.460938 21 "/>
<path style=" stroke:none;fill-rule:nonzero;fill:rgb(100%,100%,100%);fill-opacity:0.6;" d="M 22.5 19 C 20.5625 19 19 20.5625 19 22.5 C 19 22.539062 19 22.574219 19.003906 22.613281 C 19.074219 20.738281 20.605469 19.25 22.5 19.25 C 24.394531 19.25 25.925781 20.738281 25.996094 22.613281 C 26 22.574219 26 22.539062 26 22.5 C 26 20.5625 24.4375 19 22.5 19 Z M 23.992188 22.621094 C 23.933594 23.394531 23.289062 24 22.5 24 C 21.710938 24 21.066406 23.394531 21.003906 22.621094 C 21.003906 22.664062 21 22.707031 21 22.75 C 21 23.582031 21.667969 24.25 22.5 24.25 C 23.332031 24.25 24 23.582031 24 22.75 C 24 22.707031 23.996094 22.664062 23.996094 22.621094 Z M 23.992188 22.621094 "/>
<path style=" stroke:none;fill-rule:nonzero;fill:rgb(0%,0%,0%);fill-opacity:0.4;" d="M 22.5 26.25 C 20.5625 26.25 19 24.6875 19 22.75 C 19 22.710938 19 22.675781 19.003906 22.636719 C 19.074219 24.511719 20.605469 26 22.5 26 C 24.394531 26 25.925781 24.511719 25.996094 22.636719 C 26 22.675781 26 22.710938 26 22.75 C 26 24.6875 24.4375 26.25 22.5 26.25 Z M 23.992188 22.628906 C 23.933594 21.855469 23.289062 21.25 22.5 21.25 C 21.710938 21.25 21.066406 21.855469 21.003906 22.628906 C 21.003906 22.585938 21 22.542969 21 22.5 C 21 21.667969 21.667969 21 22.5 21 C 23.332031 21 24 21.667969 24 22.5 C 24 22.542969 23.996094 22.585938 23.996094 22.628906 Z M 23.992188 22.628906 "/>
<path style=" stroke:none;fill-rule:nonzero;fill:rgb(100%,100%,100%);fill-opacity:0.4;" d="M 22.5 15 C 18.34375 15 15 18.34375 15 22.5 C 15 22.523438 15 22.546875 15 22.570312 C 15.097656 18.5 18.40625 15.25 22.5 15.25 C 26.59375 15.25 29.902344 18.5 29.996094 22.570312 C 30 22.546875 30 22.523438 30 22.5 C 30 18.34375 26.65625 15 22.5 15 Z M 23.992188 22.621094 C 23.933594 23.394531 23.289062 24 22.5 24 C 21.710938 24 21.066406 23.394531 21.003906 22.621094 C 21.003906 22.664062 21 22.707031 21 22.75 C 21 23.582031 21.667969 24.25 22.5 24.25 C 23.332031 24.25 24 23.582031 24 22.75 C 24 22.707031 23.996094 22.664062 23.996094 22.621094 Z M 23.992188 22.621094 "/>
<path style=" stroke:none;fill-rule:nonzero;fill:rgb(100%,100%,100%);fill-opacity:0.8;" d="M 17.792969 17.792969 C 17.222656 18.363281 16.753906 19.035156 16.414062 19.78125 L 17.445312 20.246094 C 18.007812 19.003906 19.003906 18.007812 20.246094 17.445312 L 19.78125 16.414062 C 19.035156 16.753906 18.363281 17.222656 17.792969 17.792969 Z M 18.988281 18.992188 C 18.5625 19.417969 18.210938 19.921875 17.957031 20.480469 L 18.984375 20.949219 C 19.378906 20.078125 20.078125 19.378906 20.949219 18.984375 L 20.480469 17.957031 C 19.921875 18.210938 19.417969 18.5625 18.988281 18.992188 Z M 24.214844 26.179688 L 24.683594 27.207031 C 25.242188 26.953125 25.746094 26.601562 26.175781 26.175781 C 26.601562 25.746094 26.953125 25.242188 27.207031 24.683594 L 26.179688 24.214844 C 25.785156 25.085938 25.085938 25.785156 24.214844 26.179688 Z M 24.917969 27.722656 L 25.382812 28.75 C 26.128906 28.414062 26.800781 27.945312 27.375 27.375 C 27.945312 26.800781 28.414062 26.128906 28.75 25.382812 L 27.722656 24.917969 C 27.160156 26.160156 26.160156 27.160156 24.917969 27.722656 Z M 24.917969 27.722656 "/>
<path style=" stroke:none;fill-rule:nonzero;fill:rgb(0.392157%,0.392157%,0.392157%);fill-opacity:0.4;" d="M 22.5 30 C 18.34375 30 15 26.65625 15 22.5 C 15 22.476562 15 22.453125 15 22.429688 C 15.097656 26.5 18.40625 29.75 22.5 29.75 C 26.59375 29.75 29.902344 26.5 29.996094 22.429688 C 30 22.453125 30 22.476562 30 22.5 C 30 26.65625 26.65625 30 22.5 30 Z M 23.992188 22.382812 C 23.933594 21.605469 23.289062 21 22.5 21 C 21.710938 21 21.066406 21.605469 21.003906 22.378906 C 21.003906 22.335938 21 22.292969 21 22.25 C 21 21.417969 21.667969 20.75 22.5 20.75 C 23.332031 20.75 24 21.417969 24 22.25 C 24 22.292969 23.996094 22.335938 23.996094 22.382812 Z M 23.992188 22.382812 "/>
<path style=" stroke:none;fill-rule:nonzero;fill:url(#linear1);" d="M 22.5 15 C 18.34375 15 15 18.34375 15 22.5 C 15 26.65625 18.34375 30 22.5 30 C 26.65625 30 30 26.65625 30 22.5 C 30 18.34375 26.65625 15 22.5 15 Z M 22.460938 21 C 22.472656 21 22.488281 21 22.5 21 C 23.332031 21 24 21.667969 24 22.5 C 24 23.332031 23.332031 24 22.5 24 C 21.667969 24 21 23.332031 21 22.5 C 21 21.683594 21.648438 21.019531 22.460938 21 Z M 22.460938 21 "/>
<path style=" stroke:none;fill-rule:nonzero;fill:rgb(0%,0%,0%);fill-opacity:0.2;" d="M 22.460938 21 C 21.648438 21.019531 21 21.683594 21 22.5 C 21 22.628906 21.015625 22.757812 21.046875 22.875 C 21.210938 22.238281 21.777344 21.765625 22.460938 21.75 C 22.472656 21.75 22.488281 21.75 22.5 21.75 C 23.199219 21.75 23.789062 22.226562 23.953125 22.875 C 23.984375 22.753906 24 22.628906 24 22.5 C 24 21.667969 23.332031 21 22.5 21 C 22.488281 21 22.472656 21 22.460938 21 Z M 15.007812 22.875 C 15.003906 23 15 23.125 15 23.25 C 15 27.40625 18.34375 30.75 22.5 30.75 C 26.65625 30.75 30 27.40625 30 23.25 C 30 23.125 29.996094 23 29.992188 22.875 C 29.796875 26.855469 26.527344 30 22.5 30 C 18.472656 30 15.203125 26.855469 15.007812 22.875 Z M 15.007812 22.875 "/>
</g>
</svg>
