
<svg xmlns="http://www.w3.org/2000/svg" xmlns:xlink="http://www.w3.org/1999/xlink" width="32" height="32" viewBox="0 0 32 32" version="1.1">
<defs>
<linearGradient id="linear0" gradientUnits="userSpaceOnUse" x1="8.466666" y1="-199.125" x2="8.466666" y2="-213.941666" gradientTransform="matrix(1.889764,0,0,1.889764,0.00000105197,406.300106)">
<stop offset="0" style="stop-color:rgb(0%,0%,0%);stop-opacity:0.2;"/>
<stop offset="1" style="stop-color:rgb(100%,100%,100%);stop-opacity:0;"/>
</linearGradient>
</defs>
<g id="surface1">
<path style=" stroke:none;fill-rule:nonzero;fill:rgb(0%,0%,0%);fill-opacity:0.2;" d="M 2.007812 16.398438 C 2.003906 16.523438 2 16.652344 2 16.78125 C 2 24.511719 8.269531 30.78125 16 30.78125 C 23.730469 30.78125 30 24.511719 30 16.78125 C 30 16.652344 29.996094 16.523438 29.992188 16.398438 C 29.789062 23.953125 23.601562 30.015625 16 30.015625 C 8.398438 30.015625 2.210938 23.953125 2.007812 16.398438 Z M 2.007812 16.398438 "/>
<path style=" stroke:none;fill-rule:nonzero;fill:rgb(87.843138%,87.843138%,87.843138%);fill-opacity:1;" d="M 21.394531 7 C 18.074219 7 17.453125 12.050781 19.320312 12.050781 C 21.1875 12.050781 24.71875 7 21.394531 7 Z M 16.28125 7.777344 C 16.226562 7.777344 16.171875 7.785156 16.113281 7.785156 C 14.230469 8.023438 14.890625 11.207031 15.894531 11.269531 C 16.863281 11.328125 17.925781 7.78125 16.277344 7.773438 Z M 13.015625 8.953125 C 12.898438 8.945312 12.773438 8.96875 12.632812 9.023438 C 11.117188 9.648438 12.402344 12.210938 13.25 12.039062 C 14.019531 11.886719 14.128906 9.023438 13.015625 8.953125 Z M 10.546875 11.050781 C 10.414062 11.042969 10.269531 11.09375 10.121094 11.203125 C 8.910156 12.109375 10.53125 14.292969 11.242188 13.953125 C 11.867188 13.65625 11.46875 11.082031 10.546875 11.050781 Z M 17.699219 13.136719 C 15.074219 13.089844 11.613281 14.421875 11.023438 17.097656 C 10.382812 19.992188 13.65625 24.007812 17.066406 24.007812 C 18.75 24.007812 20.683594 22.476562 21.046875 20.53125 C 21.324219 19.050781 17.792969 19.644531 17.917969 20.625 C 18.070312 21.800781 17.0625 22.378906 16.082031 21.621094 C 12.949219 19.210938 21.265625 18.007812 20.71875 14.710938 C 20.546875 13.6875 19.273438 13.160156 17.699219 13.136719 Z M 17.699219 13.136719 "/>
<path style=" stroke:none;fill-rule:nonzero;fill:rgb(38.039216%,38.039216%,38.039216%);fill-opacity:1;" d="M 16 2 C 23.730469 2 30 8.269531 30 16 C 30 23.730469 23.730469 30 16 30 C 8.269531 30 2 23.730469 2 16 C 2 8.269531 8.269531 2 16 2 Z M 16 2 "/>
<path style=" stroke:none;fill-rule:nonzero;fill:rgb(45.882353%,45.882353%,45.882353%);fill-opacity:1;" d="M 16 4 C 22.625 4 28 9.371094 28 16 C 28 22.625 22.625 28 16 28 C 9.375 28 4 22.625 4 16 C 4 9.371094 9.375 4 16 4 Z M 16 4 "/>
<path style=" stroke:none;fill-rule:nonzero;fill:rgb(55.29412%,43.137255%,38.82353%);fill-opacity:1;" d="M 21.394531 7 C 18.074219 7 17.453125 12.050781 19.320312 12.050781 C 21.1875 12.050781 24.71875 7 21.394531 7 Z M 16.28125 7.777344 C 16.226562 7.777344 16.171875 7.785156 16.113281 7.785156 C 14.230469 8.023438 14.890625 11.207031 15.894531 11.269531 C 16.863281 11.328125 17.925781 7.78125 16.277344 7.773438 Z M 13.015625 8.953125 C 12.898438 8.945312 12.773438 8.96875 12.632812 9.023438 C 11.117188 9.648438 12.402344 12.210938 13.25 12.039062 C 14.019531 11.886719 14.128906 9.023438 13.015625 8.953125 Z M 10.546875 11.050781 C 10.414062 11.042969 10.269531 11.09375 10.121094 11.203125 C 8.910156 12.109375 10.53125 14.292969 11.242188 13.953125 C 11.867188 13.65625 11.46875 11.082031 10.546875 11.050781 Z M 17.699219 13.136719 C 15.074219 13.089844 11.613281 14.421875 11.023438 17.097656 C 10.382812 19.992188 13.65625 24.007812 17.066406 24.007812 C 18.75 24.007812 20.683594 22.476562 21.046875 20.53125 C 21.324219 19.050781 17.792969 19.644531 17.917969 20.625 C 18.070312 21.800781 17.0625 22.378906 16.082031 21.621094 C 12.949219 19.210938 21.265625 18.007812 20.71875 14.710938 C 20.546875 13.6875 19.273438 13.160156 17.699219 13.136719 Z M 17.699219 13.136719 "/>
<path style=" stroke:none;fill-rule:nonzero;fill:rgb(93.333334%,93.333334%,93.333334%);fill-opacity:1;" d="M 21.394531 7 C 18.074219 7 17.453125 12.050781 19.320312 12.050781 C 21.1875 12.050781 24.71875 7 21.394531 7 Z M 16.28125 7.777344 C 16.226562 7.777344 16.171875 7.785156 16.113281 7.785156 C 14.230469 8.023438 14.890625 11.207031 15.894531 11.269531 C 16.863281 11.328125 17.925781 7.78125 16.277344 7.773438 Z M 13.015625 8.953125 C 12.898438 8.945312 12.773438 8.96875 12.632812 9.023438 C 11.117188 9.648438 12.402344 12.210938 13.25 12.039062 C 14.019531 11.886719 14.128906 9.023438 13.015625 8.953125 Z M 10.546875 11.050781 C 10.414062 11.042969 10.269531 11.09375 10.121094 11.203125 C 8.910156 12.109375 10.53125 14.292969 11.242188 13.953125 C 11.867188 13.65625 11.46875 11.082031 10.546875 11.050781 Z M 17.699219 13.136719 C 15.074219 13.089844 11.613281 14.421875 11.023438 17.097656 C 10.382812 19.992188 13.65625 24.007812 17.066406 24.007812 C 18.75 24.007812 20.683594 22.476562 21.046875 20.53125 C 21.324219 19.050781 17.792969 19.644531 17.917969 20.625 C 18.070312 21.800781 17.0625 22.378906 16.082031 21.621094 C 12.949219 19.210938 21.265625 18.007812 20.71875 14.710938 C 20.546875 13.6875 19.273438 13.160156 17.699219 13.136719 Z M 17.699219 13.136719 "/>
<path style=" stroke:none;fill-rule:nonzero;fill:rgb(100%,100%,100%);fill-opacity:0.4;" d="M 16 2 C 8.269531 2 2 8.269531 2 16 C 2 16.082031 2.003906 16.164062 2.003906 16.25 C 2.136719 8.632812 8.351562 2.5 16 2.5 C 23.648438 2.5 29.863281 8.632812 29.996094 16.25 C 29.996094 16.164062 30 16.082031 30 16 C 30 8.269531 23.730469 2 16 2 Z M 16 2 "/>
<path style=" stroke:none;fill-rule:nonzero;fill:rgb(0.392157%,0.392157%,0.392157%);fill-opacity:0.4;" d="M 16 30 C 8.269531 30 2 23.730469 2 16 C 2 15.917969 2.003906 15.835938 2.003906 15.75 C 2.136719 23.367188 8.351562 29.5 16 29.5 C 23.648438 29.5 29.863281 23.367188 29.996094 15.75 C 29.996094 15.835938 30 15.917969 30 16 C 30 23.730469 23.730469 30 16 30 Z M 16 30 "/>
<path style=" stroke:none;fill-rule:nonzero;fill:rgb(0%,0%,0%);fill-opacity:0.4;" d="M 22.742188 8.34375 C 22.519531 9.835938 20.558594 12.050781 19.320312 12.050781 C 18.699219 12.050781 18.351562 11.488281 18.289062 10.742188 C 18.214844 11.726562 18.5625 12.558594 19.320312 12.558594 C 20.707031 12.558594 23.007812 9.777344 22.742188 8.34375 Z M 17.125 9.179688 C 17.027344 10.164062 16.445312 11.300781 15.894531 11.269531 C 15.40625 11.238281 15 10.472656 14.929688 9.664062 C 14.832031 10.625 15.304688 11.742188 15.894531 11.777344 C 16.546875 11.816406 17.238281 10.226562 17.125 9.179688 Z M 11.949219 10.394531 C 11.792969 11.363281 12.636719 12.671875 13.25 12.546875 C 13.664062 12.464844 13.886719 11.589844 13.828125 10.796875 C 13.785156 11.417969 13.578125 11.972656 13.25 12.039062 C 12.738281 12.144531 12.070312 11.253906 11.949219 10.394531 Z M 9.710938 12.351562 C 9.503906 13.367188 10.667969 14.738281 11.242188 14.460938 C 11.492188 14.34375 11.578125 13.859375 11.53125 13.320312 C 11.5 13.632812 11.40625 13.875 11.242188 13.953125 C 10.757812 14.183594 9.863281 13.257812 9.710938 12.351562 Z M 20.726562 15.273438 C 20.375 17.785156 14.859375 19.019531 15.414062 20.800781 C 15.921875 19.164062 21.085938 17.875 20.726562 15.273438 Z M 10.949219 18.113281 C 10.757812 20.949219 13.851562 24.515625 17.066406 24.515625 C 18.75 24.515625 20.683594 22.984375 21.046875 21.039062 C 21.074219 20.886719 21.0625 20.757812 21.019531 20.648438 C 20.601562 22.539062 18.714844 24.007812 17.066406 24.007812 C 14.042969 24.007812 11.125 20.847656 10.949219 18.113281 Z M 17.925781 20.984375 C 17.917969 21.015625 17.914062 21.050781 17.914062 21.085938 C 17.917969 21.050781 17.925781 21.019531 17.925781 20.984375 Z M 17.925781 20.984375 "/>
<path style=" stroke:none;fill-rule:nonzero;fill:rgb(0%,0%,0%);fill-opacity:0.4;" d="M 16 4 C 9.375 4 4 9.371094 4 16 C 4 16.082031 4.003906 16.164062 4.003906 16.25 C 4.136719 9.738281 9.457031 4.5 16 4.5 C 22.542969 4.5 27.863281 9.738281 27.996094 16.25 C 27.996094 16.164062 28 16.082031 28 16 C 28 9.371094 22.625 4 16 4 Z M 16 4 "/>
<path style=" stroke:none;fill-rule:nonzero;fill:rgb(99.607843%,99.607843%,99.607843%);fill-opacity:0.4;" d="M 16 28.5 C 9.375 28.5 4 23.128906 4 16.5 C 4 16.417969 4.003906 16.335938 4.003906 16.25 C 4.136719 22.761719 9.457031 28 16 28 C 22.542969 28 27.863281 22.761719 27.996094 16.25 C 27.996094 16.335938 28 16.417969 28 16.5 C 28 23.128906 22.625 28.5 16 28.5 Z M 16 28.5 "/>
<path style=" stroke:none;fill-rule:nonzero;fill:url(#linear0);" d="M 16 2 C 23.730469 2 30 8.269531 30 16 C 30 23.730469 23.730469 30 16 30 C 8.269531 30 2 23.730469 2 16 C 2 8.269531 8.269531 2 16 2 Z M 16 2 "/>
<path style=" stroke:none;fill-rule:nonzero;fill:rgb(100%,100%,100%);fill-opacity:0.8;" d="M 21.394531 7 C 19.183594 7 18.167969 9.242188 18.289062 10.738281 C 18.398438 9.289062 19.417969 7.5 21.394531 7.5 C 22.253906 7.5 22.65625 7.835938 22.746094 8.335938 C 22.855469 7.574219 22.515625 7 21.394531 7 Z M 16.277344 7.773438 L 16.28125 7.777344 C 16.226562 7.777344 16.171875 7.78125 16.113281 7.78125 C 15.144531 7.90625 14.851562 8.804688 14.925781 9.65625 C 14.992188 8.984375 15.335938 8.382812 16.113281 8.28125 C 16.171875 8.28125 16.226562 8.277344 16.28125 8.277344 L 16.277344 8.273438 C 16.820312 8.277344 17.066406 8.660156 17.125 9.175781 C 17.191406 8.433594 16.984375 7.777344 16.277344 7.773438 Z M 13.015625 8.953125 C 12.898438 8.945312 12.773438 8.96875 12.632812 9.023438 C 12.03125 9.269531 11.871094 9.824219 11.949219 10.390625 C 12.007812 10.019531 12.214844 9.695312 12.632812 9.523438 C 12.773438 9.46875 12.898438 9.445312 13.015625 9.453125 C 13.527344 9.484375 13.78125 10.109375 13.828125 10.789062 C 13.890625 9.949219 13.652344 8.992188 13.015625 8.953125 Z M 10.496094 11.050781 C 10.378906 11.058594 10.253906 11.105469 10.117188 11.203125 C 9.730469 11.496094 9.636719 11.917969 9.707031 12.347656 C 9.757812 12.101562 9.882812 11.878906 10.117188 11.703125 C 10.269531 11.59375 10.414062 11.542969 10.546875 11.550781 C 11.101562 11.570312 11.464844 12.507812 11.53125 13.320312 C 11.613281 12.460938 11.222656 11.074219 10.546875 11.050781 C 10.53125 11.050781 10.511719 11.050781 10.496094 11.050781 Z M 17.453125 13.136719 C 14.863281 13.175781 11.59375 14.507812 11.023438 17.101562 C 10.949219 17.425781 10.929688 17.765625 10.949219 18.109375 C 10.960938 17.9375 10.984375 17.765625 11.023438 17.601562 C 11.613281 14.921875 15.074219 13.589844 17.699219 13.636719 C 19.273438 13.664062 20.546875 14.1875 20.71875 15.210938 C 20.71875 15.230469 20.722656 15.246094 20.726562 15.265625 C 20.75 15.085938 20.75 14.902344 20.71875 14.710938 C 20.546875 13.6875 19.273438 13.164062 17.699219 13.136719 C 17.617188 13.132812 17.535156 13.132812 17.453125 13.136719 Z M 19.847656 19.636719 C 18.933594 19.644531 17.847656 20.070312 17.917969 20.625 C 17.933594 20.746094 17.9375 20.859375 17.929688 20.96875 C 18.132812 20.179688 20.671875 19.730469 21.023438 20.644531 C 21.03125 20.605469 21.039062 20.566406 21.046875 20.53125 C 21.167969 19.882812 20.558594 19.632812 19.847656 19.636719 Z M 15.414062 20.796875 C 15.289062 21.207031 15.457031 21.640625 16.082031 22.121094 C 17.0625 22.878906 18.070312 22.300781 17.917969 21.125 C 17.914062 21.109375 17.914062 21.097656 17.914062 21.085938 C 17.78125 21.9375 16.925781 22.269531 16.082031 21.621094 C 15.703125 21.332031 15.492188 21.058594 15.414062 20.796875 Z M 15.414062 20.796875 "/>
</g>
</svg>
