
<svg xmlns="http://www.w3.org/2000/svg" xmlns:xlink="http://www.w3.org/1999/xlink" width="32" height="32" viewBox="0 0 32 32" version="1.1">
<defs>
<linearGradient id="linear0" gradientUnits="userSpaceOnUse" x1="31.999998" y1="59.999996" x2="31.999998" y2="4" gradientTransform="matrix(0.5,0,0,0.5,0,0)">
<stop offset="0" style="stop-color:rgb(0%,0%,0%);stop-opacity:0.2;"/>
<stop offset="1" style="stop-color:rgb(100%,100%,100%);stop-opacity:0;"/>
</linearGradient>
</defs>
<g id="surface1">
<path style=" stroke:none;fill-rule:nonzero;fill:rgb(0%,0%,0%);fill-opacity:0.2;" d="M 15.953125 10.898438 L 11.570312 13.457031 L 11.542969 13.46875 L 11.546875 14.21875 L 11.570312 14.207031 L 15.953125 11.648438 L 15.976562 11.664062 L 20.382812 14.179688 L 20.382812 14.203125 L 20.40625 18.535156 L 20.410156 18.535156 L 20.382812 13.453125 L 20.382812 13.429688 L 15.976562 10.914062 Z M 3.617188 22.132812 L 3.617188 22.882812 C 3.617188 23.1875 3.699219 23.488281 3.851562 23.75 C 4.003906 24.015625 4.222656 24.234375 4.488281 24.390625 L 11.609375 28.5 L 15.109375 30.523438 C 15.371094 30.671875 15.671875 30.753906 15.976562 30.753906 C 16.277344 30.753906 16.578125 30.671875 16.84375 30.523438 L 23.878906 26.460938 L 23.96875 26.410156 L 27.464844 24.390625 C 27.730469 24.238281 27.949219 24.019531 28.101562 23.757812 C 28.253906 23.492188 28.335938 23.191406 28.335938 22.882812 L 28.335938 22.132812 C 28.335938 22.441406 28.253906 22.742188 28.101562 23.007812 C 27.949219 23.269531 27.730469 23.488281 27.464844 23.640625 L 23.96875 25.660156 L 23.878906 25.710938 L 16.84375 29.773438 C 16.578125 29.921875 16.277344 30.003906 15.976562 30.003906 C 15.671875 30.003906 15.371094 29.921875 15.109375 29.773438 L 11.609375 27.75 L 4.488281 23.640625 C 4.222656 23.484375 4.003906 23.265625 3.851562 23 C 3.699219 22.738281 3.617188 22.4375 3.617188 22.132812 Z M 3.617188 22.132812 "/>
<path style=" stroke:none;fill-rule:nonzero;fill:rgb(100%,79.215688%,14.901961%);fill-opacity:1;" d="M 15.976562 2 C 15.675781 2 15.375 2.082031 15.109375 2.234375 L 7.988281 6.34375 L 15.976562 10.910156 L 20.433594 13.457031 L 20.433594 4.304688 L 16.84375 2.234375 C 16.582031 2.082031 16.28125 2 15.976562 2 Z M 15.976562 2 "/>
<path style=" stroke:none;fill-rule:nonzero;fill:rgb(67.058825%,27.058825%,72.941178%);fill-opacity:1;" d="M 15.976562 30.003906 C 16.277344 30.003906 16.578125 29.921875 16.84375 29.769531 L 23.964844 25.660156 L 15.976562 21.09375 L 11.519531 18.546875 L 11.519531 27.699219 L 15.109375 29.769531 C 15.371094 29.921875 15.671875 30 15.976562 30.003906 Z M 15.976562 30.003906 "/>
<path style=" stroke:none;fill-rule:nonzero;fill:rgb(40.000001%,72.941178%,40.784314%);fill-opacity:1;" d="M 3.851562 8.996094 C 3.699219 9.261719 3.621094 9.5625 3.621094 9.871094 L 3.621094 18.09375 L 11.566406 13.457031 L 16 10.871094 L 8.074219 6.292969 L 4.488281 8.363281 C 4.222656 8.515625 4.003906 8.734375 3.851562 8.996094 Z M 3.851562 8.996094 "/>
<path style=" stroke:none;fill-rule:nonzero;fill:rgb(93.333334%,31.764707%,30.980393%);fill-opacity:1;" d="M 28.101562 23.003906 C 28.253906 22.738281 28.332031 22.441406 28.332031 22.132812 L 28.332031 13.910156 L 20.386719 18.546875 L 15.953125 21.132812 L 23.878906 25.710938 L 27.464844 23.636719 C 27.730469 23.484375 27.949219 23.269531 28.101562 23.003906 Z M 28.101562 23.003906 "/>
<path style=" stroke:none;fill-rule:nonzero;fill:rgb(24.705882%,63.921571%,96.078432%);fill-opacity:1;" d="M 3.851562 23 C 4.003906 23.265625 4.222656 23.484375 4.488281 23.636719 L 11.609375 27.75 L 11.566406 18.546875 L 11.542969 13.414062 L 3.621094 17.992188 L 3.621094 22.132812 C 3.621094 22.4375 3.699219 22.738281 3.851562 23 Z M 3.851562 23 "/>
<path style=" stroke:none;fill-rule:nonzero;fill:rgb(100%,65.098041%,13.725491%);fill-opacity:1;" d="M 28.101562 9.003906 C 27.949219 8.738281 27.730469 8.519531 27.464844 8.363281 L 20.34375 4.253906 L 20.386719 13.457031 L 20.410156 18.585938 L 28.332031 14.011719 L 28.332031 9.871094 C 28.332031 9.566406 28.253906 9.265625 28.101562 9.003906 Z M 28.101562 9.003906 "/>
<path style=" stroke:none;fill-rule:nonzero;fill:rgb(0%,0%,0%);fill-opacity:0.2;" d="M 8.167969 6.394531 L 7.984375 6.5 L 15.382812 10.726562 L 15.566406 10.625 Z M 8.167969 6.394531 "/>
<path style=" stroke:none;fill-rule:nonzero;fill:rgb(0%,0%,0%);fill-opacity:0.2;" d="M 11.542969 13.414062 L 5.0625 17.15625 L 3.617188 18 L 3.617188 18.25 L 11.546875 13.625 Z M 11.542969 13.414062 "/>
<path style=" stroke:none;fill-rule:nonzero;fill:rgb(0%,0%,0%);fill-opacity:0.2;" d="M 20.34375 4.414062 L 20.382812 13.617188 L 20.410156 18.75 L 28.335938 14.171875 L 28.335938 14.011719 L 20.410156 18.585938 L 20.382812 13.453125 L 20.347656 4.414062 Z M 20.34375 4.414062 "/>
<path style=" stroke:none;fill-rule:nonzero;fill:rgb(0%,0%,0%);fill-opacity:0.2;" d="M 16.054688 21.191406 L 15.953125 21.25 L 23.34375 25.515625 L 23.445312 25.460938 Z M 16.054688 21.191406 "/>
<path style=" stroke:none;fill-rule:nonzero;fill:url(#linear0);" d="M 15.976562 2 C 15.675781 2 15.375 2.082031 15.109375 2.234375 L 8.074219 6.292969 L 7.984375 6.34375 L 4.488281 8.363281 C 4.222656 8.515625 4.003906 8.734375 3.851562 9 C 3.699219 9.261719 3.617188 9.5625 3.617188 9.871094 L 3.617188 22.132812 C 3.617188 22.4375 3.699219 22.734375 3.851562 23 C 4.003906 23.265625 4.222656 23.484375 4.488281 23.640625 L 11.609375 27.75 L 15.109375 29.769531 C 15.371094 29.921875 15.671875 30 15.976562 30.003906 C 16.277344 30.003906 16.578125 29.921875 16.84375 29.769531 L 23.878906 25.707031 L 23.96875 25.65625 L 27.464844 23.636719 C 27.730469 23.488281 27.949219 23.269531 28.101562 23.003906 C 28.253906 22.738281 28.335938 22.4375 28.335938 22.132812 L 28.335938 9.871094 C 28.335938 9.566406 28.253906 9.265625 28.101562 9.003906 C 27.949219 8.738281 27.730469 8.519531 27.464844 8.363281 L 20.34375 4.253906 L 16.84375 2.234375 C 16.582031 2.082031 16.28125 2 15.976562 2 Z M 15.953125 10.898438 L 15.976562 10.910156 L 20.382812 13.429688 L 20.382812 13.453125 L 20.410156 18.535156 L 20.382812 18.546875 L 16 21.105469 L 15.976562 21.09375 L 11.570312 18.574219 L 11.570312 18.546875 L 11.542969 13.46875 L 11.570312 13.457031 Z M 15.953125 10.898438 "/>
<path style=" stroke:none;fill-rule:nonzero;fill:rgb(100%,100%,100%);fill-opacity:0.4;" d="M 15.976562 2 C 15.675781 2 15.375 2.082031 15.109375 2.234375 L 8.074219 6.292969 L 7.984375 6.34375 L 4.488281 8.363281 C 4.222656 8.515625 4.003906 8.734375 3.851562 9 C 3.699219 9.261719 3.621094 9.5625 3.617188 9.871094 L 3.617188 10.371094 C 3.621094 10.0625 3.699219 9.761719 3.851562 9.5 C 4.003906 9.234375 4.222656 9.015625 4.488281 8.863281 L 7.984375 6.84375 L 8.074219 6.792969 L 15.109375 2.734375 C 15.375 2.582031 15.675781 2.5 15.976562 2.5 C 16.28125 2.5 16.582031 2.582031 16.84375 2.734375 L 20.34375 4.753906 L 27.464844 8.863281 C 27.730469 9.019531 27.949219 9.238281 28.101562 9.503906 C 28.253906 9.765625 28.335938 10.066406 28.335938 10.371094 L 28.335938 9.871094 C 28.335938 9.566406 28.253906 9.265625 28.101562 9.003906 C 27.949219 8.738281 27.730469 8.519531 27.464844 8.363281 L 20.34375 4.253906 L 16.84375 2.234375 C 16.582031 2.082031 16.28125 2 15.976562 2 Z M 11.546875 13.96875 L 11.542969 13.96875 L 11.570312 19.046875 L 11.570312 19.074219 L 15.976562 21.589844 L 16 21.605469 L 20.382812 19.046875 L 20.410156 19.03125 L 20.40625 18.535156 L 20.382812 18.546875 L 16 21.105469 L 15.976562 21.09375 L 11.570312 18.574219 L 11.570312 18.546875 Z M 11.546875 13.96875 "/>
<path style=" stroke:none;fill-rule:nonzero;fill:rgb(0%,0%,0%);fill-opacity:0.4;" d="M 15.980469 30 C 15.675781 30 15.375 29.917969 15.109375 29.765625 L 8.074219 25.707031 L 7.988281 25.65625 L 4.488281 23.636719 C 4.222656 23.484375 4.003906 23.265625 3.851562 23 C 3.699219 22.738281 3.621094 22.4375 3.621094 22.128906 L 3.621094 21.628906 C 3.621094 21.9375 3.699219 22.238281 3.851562 22.5 C 4.003906 22.765625 4.222656 22.984375 4.488281 23.136719 L 7.988281 25.15625 L 8.074219 25.207031 L 15.109375 29.265625 C 15.375 29.417969 15.675781 29.5 15.980469 29.5 C 16.28125 29.5 16.582031 29.417969 16.84375 29.265625 L 20.347656 27.246094 L 27.464844 23.136719 C 27.730469 22.980469 27.949219 22.761719 28.101562 22.496094 C 28.253906 22.234375 28.335938 21.933594 28.335938 21.628906 L 28.335938 22.128906 C 28.335938 22.433594 28.253906 22.734375 28.101562 22.996094 C 27.949219 23.261719 27.730469 23.480469 27.464844 23.636719 L 20.347656 27.746094 L 16.84375 29.765625 C 16.582031 29.917969 16.28125 30 15.980469 30 Z M 11.546875 18.03125 L 11.542969 18.03125 L 11.570312 12.953125 L 11.570312 12.925781 L 15.976562 10.410156 L 16 10.394531 L 20.386719 12.953125 L 20.410156 12.96875 L 20.40625 13.464844 L 20.386719 13.453125 L 16 10.894531 L 15.976562 10.90625 L 11.570312 13.425781 L 11.570312 13.453125 Z M 11.546875 18.03125 "/>
</g>
</svg>
