
<svg xmlns="http://www.w3.org/2000/svg" xmlns:xlink="http://www.w3.org/1999/xlink" width="32" height="32" viewBox="0 0 32 32" version="1.1">
<defs>
<linearGradient id="linear0" gradientUnits="userSpaceOnUse" x1="31.999998" y1="57.999996" x2="31.999998" y2="8" gradientTransform="matrix(0.5,0,0,0.5,-0.000000340157,0)">
<stop offset="0" style="stop-color:rgb(0%,0%,0%);stop-opacity:0.2;"/>
<stop offset="1" style="stop-color:rgb(100%,100%,100%);stop-opacity:0;"/>
</linearGradient>
</defs>
<g id="surface1">
<path style=" stroke:none;fill-rule:nonzero;fill:rgb(36.078432%,41.960785%,75.294119%);fill-opacity:1;" d="M 4 4 L 28 4 C 29.105469 4 30 4.894531 30 6 L 30 26 C 30 27.105469 29.105469 28 28 28 L 4 28 C 2.894531 28 2 27.105469 2 26 L 2 6 C 2 4.894531 2.894531 4 4 4 Z M 4 4 "/>
<path style=" stroke:none;fill-rule:nonzero;fill:rgb(25.882354%,64.705884%,96.078432%);fill-opacity:1;" d="M 2.261719 5.007812 L 16 16 L 2.703125 27.523438 C 2.273438 27.15625 2 26.613281 2 26 L 2 6 C 2 5.640625 2.097656 5.300781 2.261719 5.007812 Z M 2.261719 5.007812 "/>
<path style=" stroke:none;fill-rule:nonzero;fill:rgb(47.058824%,56.470591%,61.176473%);fill-opacity:1;" d="M 16 16 L 2.632812 27.457031 C 2.988281 27.792969 3.46875 28 4 28 L 28 28 C 28.53125 28 29.011719 27.792969 29.367188 27.457031 Z M 16 16 "/>
<path style=" stroke:none;fill-rule:nonzero;fill:rgb(92.54902%,25.098041%,47.843137%);fill-opacity:1;" d="M 29.738281 5.007812 L 16 16 L 29.296875 27.523438 C 29.726562 27.15625 30 26.613281 30 26 L 30 6 C 30 5.640625 29.902344 5.300781 29.738281 5.007812 Z M 29.738281 5.007812 "/>
<path style=" stroke:none;fill-rule:nonzero;fill:rgb(0.392157%,0.392157%,0.392157%);fill-opacity:0.4;" d="M 2 25.5 L 2 26 C 2 27.109375 2.890625 28 4 28 L 28 28 C 29.109375 28 30 27.109375 30 26 L 30 25.5 C 30 26.609375 29.109375 27.5 28 27.5 L 4 27.5 C 2.890625 27.5 2 26.609375 2 25.5 Z M 2 25.5 "/>
<path style=" stroke:none;fill-rule:nonzero;fill:rgb(87.843138%,87.843138%,87.843138%);fill-opacity:1;" d="M 5 24 L 27 24 C 27.550781 24 28 24.449219 28 25 L 28 28 C 28 28.550781 27.550781 29 27 29 L 5 29 C 4.449219 29 4 28.550781 4 28 L 4 25 C 4 24.449219 4.449219 24 5 24 Z M 5 24 "/>
<path style=" stroke:none;fill-rule:nonzero;fill:rgb(87.843138%,87.843138%,87.843138%);fill-opacity:1;" d="M 4 4 C 2.890625 4 2 4.890625 2 6 L 30 6 C 30 4.890625 29.109375 4 28 4 Z M 4 4 "/>
<path style=" stroke:none;fill-rule:nonzero;fill:rgb(0%,0%,0%);fill-opacity:0.4;" d="M 2 6 L 2 6.5 L 30 6.5 L 30 6 Z M 4 27.5 L 4 28 C 4 28.554688 4.445312 29 5 29 L 27 29 C 27.554688 29 28 28.554688 28 28 L 28 27.5 C 28 28.054688 27.554688 28.5 27 28.5 L 5 28.5 C 4.445312 28.5 4 28.054688 4 27.5 Z M 4 27.5 "/>
<path style=" stroke:none;fill-rule:nonzero;fill:rgb(100%,100%,100%);fill-opacity:0.8;" d="M 4 4 C 2.890625 4 2 4.890625 2 6 L 2.0625 6 C 2.277344 5.128906 3.058594 4.484375 4 4.484375 L 28 4.484375 C 28.941406 4.484375 29.722656 5.128906 29.9375 6 L 30 6 C 30 4.890625 29.109375 4 28 4 Z M 5 24 C 4.445312 24 4 24.445312 4 25 L 4 25.484375 C 4 24.933594 4.445312 24.484375 5 24.484375 L 27 24.484375 C 27.554688 24.484375 28 24.933594 28 25.484375 L 28 25 C 28 24.445312 27.554688 24 27 24 Z M 5 24 "/>
<path style=" stroke:none;fill-rule:nonzero;fill:rgb(0%,0%,0%);fill-opacity:0.2;" d="M 2 26 L 2 26.75 C 2 27.859375 2.890625 28.75 4 28.75 C 4 29.304688 4.445312 29.75 5 29.75 L 27 29.75 C 27.554688 29.75 28 29.304688 28 28.75 C 29.109375 28.75 30 27.859375 30 26.75 L 30 26 C 30 27.109375 29.109375 28 28 28 C 28 28.554688 27.554688 29 27 29 L 5 29 C 4.445312 29 4 28.554688 4 28 C 2.890625 28 2 27.109375 2 26 Z M 2 26 "/>
<path style=" stroke:none;fill-rule:nonzero;fill:rgb(0.392157%,0.392157%,0.784314%);fill-opacity:0.4;" d="M 19.5 25 L 21.5 25 C 21.777344 25 22 25.222656 22 25.5 L 22 27.5 C 22 27.777344 21.777344 28 21.5 28 L 19.5 28 C 19.222656 28 19 27.777344 19 27.5 L 19 25.5 C 19 25.222656 19.222656 25 19.5 25 Z M 19.5 25 "/>
<path style=" stroke:none;fill-rule:nonzero;fill:rgb(0.392157%,0%,0.392157%);fill-opacity:0.4;" d="M 19.5 25 C 19.222656 25 19 25.222656 19 25.5 L 19 25.75 C 19 25.472656 19.222656 25.25 19.5 25.25 L 21.5 25.25 C 21.777344 25.25 22 25.472656 22 25.75 L 22 25.5 C 22 25.222656 21.777344 25 21.5 25 Z M 19.5 25 "/>
<path style=" stroke:none;fill-rule:nonzero;fill:rgb(99.607843%,99.607843%,100%);fill-opacity:0.4;" d="M 19.5 28.25 C 19.222656 28.25 19 28.027344 19 27.75 L 19 27.5 C 19 27.777344 19.222656 28 19.5 28 L 21.5 28 C 21.777344 28 22 27.777344 22 27.5 L 22 27.75 C 22 28.027344 21.777344 28.25 21.5 28.25 Z M 19.5 28.25 "/>
<path style=" stroke:none;fill-rule:nonzero;fill:rgb(0.392157%,0.392157%,0.784314%);fill-opacity:0.4;" d="M 23.5 25 L 25.5 25 C 25.777344 25 26 25.222656 26 25.5 L 26 27.5 C 26 27.777344 25.777344 28 25.5 28 L 23.5 28 C 23.222656 28 23 27.777344 23 27.5 L 23 25.5 C 23 25.222656 23.222656 25 23.5 25 Z M 23.5 25 "/>
<path style=" stroke:none;fill-rule:nonzero;fill:rgb(0.392157%,0%,0.392157%);fill-opacity:0.4;" d="M 23.5 25 C 23.222656 25 23 25.222656 23 25.5 L 23 25.75 C 23 25.472656 23.222656 25.25 23.5 25.25 L 25.5 25.25 C 25.777344 25.25 26 25.472656 26 25.75 L 26 25.5 C 26 25.222656 25.777344 25 25.5 25 Z M 23.5 25 "/>
<path style=" stroke:none;fill-rule:nonzero;fill:rgb(99.607843%,99.607843%,100%);fill-opacity:0.4;" d="M 23.5 28.25 C 23.222656 28.25 23 28.027344 23 27.75 L 23 27.5 C 23 27.777344 23.222656 28 23.5 28 L 25.5 28 C 25.777344 28 26 27.777344 26 27.5 L 26 27.75 C 26 28.027344 25.777344 28.25 25.5 28.25 Z M 23.5 28.25 "/>
<path style=" stroke:none;fill-rule:nonzero;fill:url(#linear0);" d="M 4 4 C 2.890625 4 2 4.890625 2 6 L 2 26 C 2 27.109375 2.890625 28 4 28 C 4 28.554688 4.445312 29 5 29 L 27 29 C 27.554688 29 28 28.554688 28 28 C 29.109375 28 30 27.109375 30 26 L 30 6 C 30 4.890625 29.109375 4 28 4 Z M 4 4 "/>
</g>
</svg>
