
<svg xmlns="http://www.w3.org/2000/svg" xmlns:xlink="http://www.w3.org/1999/xlink" width="32" height="32" viewBox="0 0 32 32" version="1.1">
<defs>
<linearGradient id="linear0" gradientUnits="userSpaceOnUse" x1="31.999998" y1="59.999996" x2="31.999998" y2="4" gradientTransform="matrix(0.5,0,0,0.5,0,0)">
<stop offset="0" style="stop-color:rgb(0%,0%,0%);stop-opacity:0.2;"/>
<stop offset="1" style="stop-color:rgb(100%,100%,100%);stop-opacity:0;"/>
</linearGradient>
</defs>
<g id="surface1">
<path style=" stroke:none;fill-rule:nonzero;fill:rgb(47.450981%,33.333334%,28.235295%);fill-opacity:1;" d="M 25.679688 2 C 25.84375 2.003906 25.96875 2.136719 25.96875 2.300781 L 25.96875 3.574219 C 25.96875 3.738281 25.835938 3.875 25.667969 3.875 C 25.410156 3.875 25.160156 3.773438 24.898438 3.644531 C 24.636719 3.511719 24.378906 3.34375 24.183594 3.148438 C 24.039062 3.003906 24.078125 2.757812 24.261719 2.667969 L 25.535156 2.03125 C 25.582031 2.007812 25.628906 2 25.679688 2 Z M 25.679688 2 "/>
<path style=" stroke:none;fill-rule:nonzero;fill:rgb(25.882354%,25.882354%,25.882354%);fill-opacity:1;" d="M 28.230469 4.542969 C 28.578125 4.542969 28.863281 4.828125 28.863281 5.175781 L 28.863281 5.183594 C 28.863281 5.535156 28.578125 5.816406 28.230469 5.816406 C 27.878906 5.816406 27.597656 5.535156 27.597656 5.183594 L 27.597656 5.175781 C 27.597656 4.828125 27.878906 4.542969 28.230469 4.542969 Z M 28.230469 4.542969 "/>
<path style=" stroke:none;fill-rule:nonzero;fill:rgb(61.960787%,61.960787%,61.960787%);fill-opacity:1;" d="M 27.996094 4.703125 C 28.128906 4.703125 28.234375 4.808594 28.234375 4.941406 L 28.234375 4.945312 C 28.234375 5.074219 28.128906 5.179688 27.996094 5.179688 C 27.863281 5.179688 27.757812 5.074219 27.757812 4.945312 L 27.757812 4.941406 C 27.757812 4.808594 27.863281 4.703125 27.996094 4.703125 Z M 27.996094 4.703125 "/>
<path style=" stroke:none;fill-rule:nonzero;fill:rgb(100%,65.490198%,14.901961%);fill-opacity:1;" d="M 16.136719 3.273438 C 23.164062 3.273438 28.863281 8.96875 28.863281 15.996094 C 28.863281 23.023438 23.164062 28.71875 16.136719 28.71875 C 9.109375 28.71875 3.414062 23.023438 3.414062 15.996094 C 3.414062 8.96875 9.109375 3.273438 16.136719 3.273438 Z M 16.136719 3.273438 "/>
<path style=" stroke:none;fill-rule:nonzero;fill:rgb(96.078432%,48.627451%,0%);fill-opacity:1;" d="M 19.953125 3.273438 C 19.519531 3.390625 17.671875 4.046875 17.902344 4.914062 C 18.320312 6.738281 20.84375 7.457031 20.816406 8.796875 C 20.792969 9.902344 20.820312 12.585938 18.617188 11.316406 C 17.789062 10.839844 18.480469 9.746094 17.507812 8.726562 C 16.539062 7.707031 14.773438 6.523438 13.425781 7.582031 C 12.238281 8.367188 11.601562 9.46875 11.285156 10.019531 L 10.902344 6.863281 C 13.65625 4.632812 21.300781 2.214844 19.953125 3.273438 Z M 19.953125 3.273438 "/>
<path style=" stroke:none;fill-rule:nonzero;fill:rgb(55.29412%,43.137255%,38.82353%);fill-opacity:1;" d="M 16.136719 2 C 7.230469 2 2.140625 8.242188 2.140625 15.996094 C 2.140625 23.75 8.382812 29.992188 16.136719 29.992188 C 21.226562 29.992188 28.226562 26.8125 29.496094 19.8125 C 27.644531 21.375 24.34375 26.289062 17.347656 26.273438 C 11.445312 26.261719 9.140625 21.722656 9.140625 17.269531 C 9.140625 8.363281 19.320312 8.363281 25.042969 10.269531 C 26.636719 10.90625 27.589844 10.90625 28.863281 9.632812 C 30.769531 7.726562 29.523438 6.058594 28.542969 5.65625 C 28.542969 5.023438 28.863281 3.910156 26.316406 2.636719 C 24.523438 1.90625 22.816406 1.683594 20.589844 2.636719 C 17.410156 2 17.410156 2 16.136719 2 Z M 16.136719 2 "/>
<path style=" stroke:none;fill-rule:nonzero;fill:rgb(84.313726%,80.000001%,78.431374%);fill-opacity:1;" d="M 5.957031 15.996094 C 5.957031 23.066406 10.414062 27.445312 17.410156 27.445312 C 25.042969 27.445312 29.496094 19.8125 29.496094 19.8125 C 28.863281 20.449219 23.773438 25.476562 17.410156 25.511719 C 12.320312 25.539062 9.140625 22.359375 9.140625 17.269531 C 9.140625 8.363281 19.320312 8.363281 25.042969 10.269531 C 26.636719 10.90625 27.589844 10.90625 28.863281 9.632812 C 30.769531 7.726562 29.523438 6.058594 28.542969 5.65625 C 29.167969 6.140625 27.589844 7.089844 25.679688 6.453125 C 13.59375 3.910156 6.21875 7.636719 5.957031 15.996094 Z M 5.957031 15.996094 "/>
<path style=" stroke:none;fill-rule:nonzero;fill:rgb(25.882354%,25.882354%,25.882354%);fill-opacity:1;" d="M 25.675781 5.5 C 26.109375 5.5 26.464844 5.851562 26.464844 6.289062 L 26.464844 6.300781 C 26.464844 6.734375 26.109375 7.089844 25.675781 7.089844 C 25.238281 7.089844 24.882812 6.734375 24.882812 6.300781 L 24.882812 6.289062 C 24.882812 5.851562 25.238281 5.5 25.675781 5.5 Z M 25.675781 5.5 "/>
<path style=" stroke:none;fill-rule:nonzero;fill:rgb(74.117649%,74.117649%,74.117649%);fill-opacity:1;" d="M 25.382812 5.699219 C 25.546875 5.699219 25.679688 5.832031 25.679688 5.992188 L 25.679688 6 C 25.679688 6.160156 25.546875 6.292969 25.382812 6.292969 C 25.214844 6.292969 25.082031 6.160156 25.082031 6 L 25.082031 5.992188 C 25.082031 5.832031 25.214844 5.699219 25.382812 5.699219 Z M 25.382812 5.699219 "/>
<path style=" stroke:none;fill-rule:nonzero;fill:rgb(25.882354%,25.882354%,25.882354%);fill-opacity:1;" d="M 29.179688 6.453125 C 29.058594 6.332031 28.914062 6.25 28.757812 6.207031 C 28.632812 6.730469 28.542969 6.929688 27.574219 6.921875 C 27.503906 7.230469 27.589844 7.5625 27.828125 7.804688 C 28.199219 8.175781 28.800781 8.175781 29.171875 7.804688 L 29.179688 7.792969 C 29.550781 7.421875 29.550781 6.824219 29.179688 6.453125 Z M 29.179688 6.453125 "/>
<path style=" stroke:none;fill-rule:nonzero;fill:rgb(55.29412%,43.137255%,38.82353%);fill-opacity:1;" d="M 10.09375 7.726562 C 9.777344 8.042969 8.503906 9.539062 9.140625 10.175781 C 10.414062 11.542969 12.957031 10.90625 13.601562 12.078125 C 14.136719 13.046875 15.5 15.359375 12.957031 15.359375 C 12.003906 15.359375 12.054688 14.070312 10.703125 13.671875 C 9.351562 13.273438 7.230469 13.132812 6.59375 14.722656 C 5.957031 15.996094 5.957031 17.269531 5.957031 17.90625 L 4.050781 15.359375 C 5.316406 12.054688 10.730469 6.136719 10.09375 7.726562 Z M 10.09375 7.726562 "/>
<path style=" stroke:none;fill-rule:nonzero;fill:rgb(100%,100%,100%);fill-opacity:0.4;" d="M 16.136719 2 C 7.230469 2 2.140625 8.242188 2.140625 15.996094 C 2.140625 16.039062 2.144531 16.085938 2.144531 16.128906 C 2.300781 8.542969 7.371094 2.496094 16.136719 2.496094 C 17.410156 2.496094 17.410156 2.496094 20.589844 3.132812 C 22.816406 2.175781 24.523438 2.402344 26.316406 3.132812 C 28.164062 4.054688 28.5 4.894531 28.546875 5.527344 C 28.574219 4.878906 28.703125 3.828125 26.316406 2.636719 C 24.523438 1.90625 22.816406 1.679688 20.589844 2.636719 C 17.410156 2 17.410156 2 16.136719 2 Z M 28.554688 5.664062 C 28.558594 5.847656 28.542969 6.011719 28.542969 6.15625 C 29.09375 6.378906 29.726562 7.003906 29.839844 7.84375 C 29.960938 6.761719 29.203125 5.933594 28.554688 5.664062 Z M 12.324219 11.34375 C 12.136719 11.464844 11.957031 11.589844 11.78125 11.726562 C 12.585938 11.875 13.300781 12.027344 13.601562 12.574219 C 13.863281 13.046875 14.320312 13.839844 14.425781 14.527344 C 14.5625 13.765625 13.929688 12.671875 13.601562 12.078125 C 13.371094 11.660156 12.894531 11.472656 12.324219 11.34375 Z M 9.140625 17.484375 C 9.140625 17.578125 9.140625 17.671875 9.140625 17.765625 C 9.140625 17.867188 9.140625 17.972656 9.144531 18.078125 C 9.144531 18.128906 9.148438 18.183594 9.148438 18.234375 C 9.339844 23.050781 12.480469 26.035156 17.410156 26.007812 C 22.671875 25.980469 27.054688 22.542969 28.777344 20.992188 C 28.988281 20.777344 29.1875 20.585938 29.371094 20.421875 C 29.417969 20.222656 29.460938 20.019531 29.5 19.8125 C 29.28125 19.996094 29.039062 20.230469 28.777344 20.496094 C 27.054688 22.046875 22.671875 25.484375 17.410156 25.511719 C 12.480469 25.539062 9.339844 22.554688 9.148438 17.742188 C 9.148438 17.6875 9.144531 17.632812 9.144531 17.582031 C 9.144531 17.550781 9.144531 17.519531 9.140625 17.484375 Z M 9.140625 17.484375 "/>
<path style=" stroke:none;fill-rule:nonzero;fill:rgb(0%,0%,0%);fill-opacity:0.4;" d="M 28.546875 5.539062 C 28.546875 5.585938 28.542969 5.632812 28.542969 5.675781 C 28.546875 5.675781 28.550781 5.679688 28.554688 5.679688 C 28.554688 5.632812 28.550781 5.585938 28.546875 5.539062 Z M 29.84375 7.871094 C 29.777344 8.414062 29.492188 9.019531 28.859375 9.652344 C 28.78125 9.730469 28.703125 9.804688 28.625 9.875 C 28.546875 9.945312 28.472656 10.011719 28.398438 10.070312 C 28.320312 10.128906 28.246094 10.1875 28.171875 10.238281 C 28.097656 10.289062 28.027344 10.335938 27.953125 10.375 C 27.585938 10.589844 27.226562 10.691406 26.847656 10.703125 C 26.769531 10.707031 26.691406 10.707031 26.617188 10.703125 C 26.539062 10.699219 26.457031 10.691406 26.378906 10.679688 C 25.976562 10.625 25.539062 10.488281 25.042969 10.289062 C 24.863281 10.226562 24.683594 10.171875 24.496094 10.117188 C 24.308594 10.058594 24.117188 10.003906 23.921875 9.953125 C 23.726562 9.902344 23.53125 9.855469 23.328125 9.808594 C 23.128906 9.761719 22.921875 9.71875 22.71875 9.675781 C 22.511719 9.632812 22.300781 9.59375 22.089844 9.558594 C 21.878906 9.523438 21.664062 9.492188 21.449219 9.460938 C 21.234375 9.433594 21.019531 9.40625 20.800781 9.382812 C 18.402344 9.128906 15.859375 9.28125 13.757812 10.125 C 13.570312 10.199219 13.382812 10.285156 13.199219 10.371094 C 12.691406 10.617188 12.214844 10.910156 11.78125 11.25 C 11.964844 11.285156 12.144531 11.316406 12.3125 11.355469 C 12.597656 11.171875 12.890625 11.007812 13.199219 10.859375 C 13.382812 10.769531 13.570312 10.6875 13.757812 10.613281 C 15.859375 9.769531 18.402344 9.617188 20.800781 9.871094 C 21.019531 9.894531 21.234375 9.917969 21.449219 9.949219 C 21.664062 9.980469 21.878906 10.011719 22.089844 10.046875 C 22.300781 10.082031 22.511719 10.121094 22.71875 10.164062 C 22.921875 10.203125 23.128906 10.25 23.328125 10.296875 C 23.53125 10.339844 23.726562 10.390625 23.921875 10.441406 C 24.117188 10.492188 24.308594 10.546875 24.496094 10.601562 C 24.683594 10.660156 24.863281 10.714844 25.042969 10.777344 C 25.539062 10.972656 25.976562 11.109375 26.378906 11.167969 C 26.457031 11.175781 26.539062 11.183594 26.617188 11.191406 C 26.691406 11.191406 26.769531 11.191406 26.847656 11.191406 C 27.226562 11.179688 27.585938 11.074219 27.953125 10.863281 C 28.027344 10.820312 28.097656 10.777344 28.171875 10.726562 C 28.246094 10.671875 28.320312 10.617188 28.398438 10.558594 C 28.472656 10.496094 28.546875 10.433594 28.625 10.363281 C 28.703125 10.292969 28.78125 10.21875 28.859375 10.140625 C 29.691406 9.308594 29.921875 8.527344 29.84375 7.871094 Z M 9.9375 13.511719 C 9.429688 14.539062 9.140625 15.785156 9.140625 17.285156 C 9.140625 17.355469 9.140625 17.421875 9.144531 17.488281 C 9.175781 16.117188 9.460938 14.960938 9.9375 14 C 10.207031 14.046875 10.46875 14.105469 10.703125 14.175781 C 12.054688 14.574219 12.003906 15.863281 12.957031 15.863281 C 14.253906 15.863281 14.535156 15.265625 14.429688 14.550781 C 14.339844 15.03125 13.941406 15.375 12.957031 15.375 C 12.003906 15.375 12.054688 14.085938 10.703125 13.6875 C 10.46875 13.621094 10.207031 13.558594 9.9375 13.511719 Z M 2.144531 15.71875 C 2.144531 15.8125 2.140625 15.902344 2.140625 15.992188 C 2.140625 23.746094 8.382812 29.988281 16.136719 29.988281 C 21.226562 29.988281 28.226562 26.804688 29.496094 19.808594 C 29.457031 19.84375 29.414062 19.878906 29.371094 19.917969 C 27.820312 26.5 21.078125 29.5 16.136719 29.5 C 8.457031 29.5 2.257812 23.375 2.144531 15.71875 Z M 2.144531 15.71875 "/>
<path style=" stroke:none;fill-rule:nonzero;fill:rgb(63.137257%,53.333336%,49.803922%);fill-opacity:1;" d="M 20.898438 2.019531 C 20.738281 2.023438 20.609375 2.15625 20.609375 2.316406 L 20.609375 3.589844 C 20.609375 3.757812 20.742188 3.890625 20.910156 3.890625 C 21.167969 3.890625 21.417969 3.792969 21.679688 3.660156 C 21.941406 3.527344 22.199219 3.363281 22.394531 3.167969 C 22.539062 3.023438 22.5 2.777344 22.316406 2.683594 L 21.042969 2.050781 C 21 2.027344 20.949219 2.015625 20.898438 2.019531 Z M 20.898438 2.019531 "/>
<path style=" stroke:none;fill-rule:nonzero;fill:rgb(36.470589%,25.098041%,21.568628%);fill-opacity:1;" d="M 21.105469 2.316406 C 20.996094 2.320312 20.910156 2.414062 20.910156 2.523438 L 20.910156 3.386719 C 20.910156 3.5 21 3.589844 21.113281 3.589844 C 21.289062 3.589844 21.457031 3.523438 21.636719 3.433594 C 21.816406 3.34375 21.988281 3.230469 22.121094 3.097656 C 22.21875 3 22.195312 2.835938 22.070312 2.773438 L 21.203125 2.339844 C 21.175781 2.324219 21.140625 2.316406 21.105469 2.316406 Z M 21.105469 2.316406 "/>
<path style=" stroke:none;fill-rule:nonzero;fill:url(#linear0);" d="M 16.136719 2 C 7.230469 2 2.140625 8.242188 2.140625 15.996094 C 2.140625 23.75 8.382812 29.992188 16.136719 29.992188 C 21.226562 29.992188 28.226562 26.8125 29.5 19.8125 C 29.28125 19.996094 29.039062 20.230469 28.777344 20.496094 C 28.472656 20.769531 28.089844 21.097656 27.628906 21.460938 C 29.332031 17.894531 29.238281 13.882812 27.632812 10.515625 C 28.03125 10.355469 28.425781 10.066406 28.859375 9.632812 C 30.726562 7.769531 29.578125 6.136719 28.613281 5.6875 C 28.765625 5.574219 28.859375 5.390625 28.859375 5.1875 L 28.859375 5.175781 C 28.859375 4.910156 28.695312 4.683594 28.464844 4.589844 C 28.28125 4.027344 27.761719 3.359375 26.316406 2.636719 C 26.199219 2.589844 26.085938 2.542969 25.96875 2.5 L 25.96875 2.300781 C 25.96875 2.140625 25.84375 2.003906 25.679688 2 C 25.628906 2 25.582031 2.007812 25.535156 2.03125 L 25.128906 2.234375 C 24 1.933594 22.851562 1.898438 21.53125 2.292969 L 21.042969 2.046875 C 21 2.027344 20.949219 2.015625 20.898438 2.015625 C 20.738281 2.023438 20.609375 2.15625 20.609375 2.320312 L 20.609375 2.628906 C 20.601562 2.632812 20.597656 2.632812 20.589844 2.636719 C 17.410156 2 17.410156 2 16.136719 2 Z M 16.136719 2 "/>
<path style=" stroke:none;fill-rule:nonzero;fill:rgb(0.784314%,0.784314%,0.784314%);fill-opacity:0.2;" d="M 28.734375 5.5625 C 28.699219 5.609375 28.660156 5.652344 28.613281 5.6875 C 28.691406 5.726562 28.769531 5.769531 28.847656 5.820312 C 28.832031 5.726562 28.792969 5.636719 28.734375 5.5625 Z M 29.820312 7.996094 C 29.726562 8.5 29.4375 9.058594 28.859375 9.632812 C 28.425781 10.066406 28.03125 10.355469 27.632812 10.515625 C 27.730469 10.726562 27.824219 10.933594 27.914062 11.144531 C 28.21875 10.976562 28.527344 10.730469 28.859375 10.398438 C 29.746094 9.511719 29.953125 8.675781 29.820312 7.996094 Z M 2.148438 16.359375 C 2.144531 16.492188 2.140625 16.625 2.140625 16.757812 C 2.140625 24.511719 8.382812 30.753906 16.136719 30.757812 C 21.226562 30.757812 28.226562 27.574219 29.5 20.578125 C 29.429688 20.636719 29.359375 20.699219 29.285156 20.765625 C 27.578125 27.101562 20.988281 29.992188 16.136719 29.992188 C 8.507812 29.992188 2.339844 23.945312 2.148438 16.359375 Z M 28.867188 16.375 C 28.8125 18.09375 28.410156 19.824219 27.628906 21.460938 C 27.800781 21.324219 27.960938 21.195312 28.113281 21.070312 C 28.667969 19.535156 28.914062 17.941406 28.867188 16.375 Z M 28.867188 16.375 "/>
</g>
</svg>
