
<svg xmlns="http://www.w3.org/2000/svg" xmlns:xlink="http://www.w3.org/1999/xlink" width="32" height="32" viewBox="0 0 32 32" version="1.1">
<defs>
<linearGradient id="linear0" gradientUnits="userSpaceOnUse" x1="10.054166" y1="-199.125" x2="10.054166" y2="-213.941666" gradientTransform="matrix(1.889764,0,0,1.889764,-0.000632289,406.299234)">
<stop offset="0" style="stop-color:rgb(0%,0%,0%);stop-opacity:0.2;"/>
<stop offset="1" style="stop-color:rgb(100%,100%,100%);stop-opacity:0;"/>
</linearGradient>
</defs>
<g id="surface1">
<path style=" stroke:none;fill-rule:nonzero;fill:rgb(38.039216%,38.039216%,38.039216%);fill-opacity:1;" d="M 4 2 L 28 2 C 29.105469 2 30 2.894531 30 4 L 30 28 C 30 29.105469 29.105469 30 28 30 L 4 30 C 2.894531 30 2 29.105469 2 28 L 2 4 C 2 2.894531 2.894531 2 4 2 Z M 4 2 "/>
<path style=" stroke:none;fill-rule:nonzero;fill:rgb(0%,0%,0%);fill-opacity:0.4;" d="M 2 27.5 L 2 28 C 2 29.109375 2.890625 30 4 30 L 28 30 C 29.109375 30 30 29.109375 30 28 L 30 27.5 C 30 28.609375 29.109375 29.5 28 29.5 L 4 29.5 C 2.890625 29.5 2 28.609375 2 27.5 Z M 2 27.5 "/>
<path style=" stroke:none;fill-rule:nonzero;fill:rgb(0%,0%,0%);fill-opacity:0.2;" d="M 2 28 L 2 28.75 C 2 29.859375 2.890625 30.75 4 30.75 L 28 30.75 C 29.109375 30.75 30 29.859375 30 28.75 L 30 28 C 30 29.109375 29.109375 30 28 30 L 4 30 C 2.890625 30 2 29.109375 2 28 Z M 2 28 "/>
<path style=" stroke:none;fill-rule:nonzero;fill:rgb(100%,100%,100%);fill-opacity:0.4;" d="M 4 2 C 2.890625 2 2 2.890625 2 4 L 2 4.492188 C 2 3.382812 2.890625 2.492188 4 2.492188 L 28 2.492188 C 29.109375 2.492188 30 3.382812 30 4.492188 L 30 4 C 30 2.890625 29.109375 2 28 2 Z M 4 2 "/>
<path style=" stroke:none;fill-rule:nonzero;fill:rgb(63.137257%,53.333336%,49.803922%);fill-opacity:0.996078;" d="M 14.75 14 L 17.25 14 C 17.664062 14 18 14.335938 18 14.75 L 18 17.25 C 18 17.664062 17.664062 18 17.25 18 L 14.75 18 C 14.335938 18 14 17.664062 14 17.25 L 14 14.75 C 14 14.335938 14.335938 14 14.75 14 Z M 14.75 14 "/>
<path style=" stroke:none;fill-rule:nonzero;fill:rgb(99.607843%,99.607843%,99.607843%);fill-opacity:0.4;" d="M 14.75 14 C 14.335938 14 14 14.335938 14 14.75 L 14 15.25 C 14 14.835938 14.335938 14.5 14.75 14.5 L 17.25 14.5 C 17.664062 14.5 18 14.835938 18 15.25 L 18 14.75 C 18 14.335938 17.664062 14 17.25 14 Z M 14.75 14 "/>
<path style=" stroke:none;fill-rule:nonzero;fill:rgb(0%,0%,0%);fill-opacity:0.4;" d="M 14.75 18.5 C 14.335938 18.5 14 18.164062 14 17.75 L 14 17.25 C 14 17.664062 14.335938 18 14.75 18 L 17.25 18 C 17.664062 18 18 17.664062 18 17.25 L 18 17.75 C 18 18.164062 17.664062 18.5 17.25 18.5 Z M 14.75 18.5 "/>
<path style=" stroke:none;fill-rule:nonzero;fill:rgb(61.176473%,80.000001%,39.607844%);fill-opacity:0.996078;" d="M 14.75 9.25 L 17.25 9.25 C 17.664062 9.25 18 9.585938 18 10 L 18 12.5 C 18 12.914062 17.664062 13.25 17.25 13.25 L 14.75 13.25 C 14.335938 13.25 14 12.914062 14 12.5 L 14 10 C 14 9.585938 14.335938 9.25 14.75 9.25 Z M 14.75 9.25 "/>
<path style=" stroke:none;fill-rule:nonzero;fill:rgb(99.607843%,99.607843%,99.607843%);fill-opacity:0.4;" d="M 14.75 9.25 C 14.335938 9.25 14 9.585938 14 10 L 14 10.5 C 14 10.085938 14.335938 9.75 14.75 9.75 L 17.25 9.75 C 17.664062 9.75 18 10.085938 18 10.5 L 18 10 C 18 9.585938 17.664062 9.25 17.25 9.25 Z M 14.75 9.25 "/>
<path style=" stroke:none;fill-rule:nonzero;fill:rgb(0%,0%,0%);fill-opacity:0.4;" d="M 14.75 13.75 C 14.335938 13.75 14 13.414062 14 13 L 14 12.5 C 14 12.914062 14.335938 13.25 14.75 13.25 L 17.25 13.25 C 17.664062 13.25 18 12.914062 18 12.5 L 18 13 C 18 13.414062 17.664062 13.75 17.25 13.75 Z M 14.75 13.75 "/>
<path style=" stroke:none;fill-rule:nonzero;fill:rgb(61.176473%,80.000001%,39.607844%);fill-opacity:0.996078;" d="M 19.5 14 L 22 14 C 22.414062 14 22.75 14.335938 22.75 14.75 L 22.75 17.25 C 22.75 17.664062 22.414062 18 22 18 L 19.5 18 C 19.085938 18 18.75 17.664062 18.75 17.25 L 18.75 14.75 C 18.75 14.335938 19.085938 14 19.5 14 Z M 19.5 14 "/>
<path style=" stroke:none;fill-rule:nonzero;fill:rgb(99.607843%,99.607843%,99.607843%);fill-opacity:0.4;" d="M 19.5 14 C 19.085938 14 18.75 14.335938 18.75 14.75 L 18.75 15.25 C 18.75 14.835938 19.085938 14.5 19.5 14.5 L 22 14.5 C 22.414062 14.5 22.75 14.835938 22.75 15.25 L 22.75 14.75 C 22.75 14.335938 22.414062 14 22 14 Z M 19.5 14 "/>
<path style=" stroke:none;fill-rule:nonzero;fill:rgb(0%,0%,0%);fill-opacity:0.4;" d="M 19.5 18.5 C 19.085938 18.5 18.75 18.164062 18.75 17.75 L 18.75 17.25 C 18.75 17.664062 19.085938 18 19.5 18 L 22 18 C 22.414062 18 22.75 17.664062 22.75 17.25 L 22.75 17.75 C 22.75 18.164062 22.414062 18.5 22 18.5 Z M 19.5 18.5 "/>
<path style=" stroke:none;fill-rule:nonzero;fill:rgb(47.058824%,56.470591%,61.176473%);fill-opacity:0.996078;" d="M 19.5 9.25 L 22 9.25 C 22.414062 9.25 22.75 9.585938 22.75 10 L 22.75 12.5 C 22.75 12.914062 22.414062 13.25 22 13.25 L 19.5 13.25 C 19.085938 13.25 18.75 12.914062 18.75 12.5 L 18.75 10 C 18.75 9.585938 19.085938 9.25 19.5 9.25 Z M 19.5 9.25 "/>
<path style=" stroke:none;fill-rule:nonzero;fill:rgb(99.607843%,99.607843%,99.607843%);fill-opacity:0.4;" d="M 19.5 9.25 C 19.085938 9.25 18.75 9.585938 18.75 10 L 18.75 10.5 C 18.75 10.085938 19.085938 9.75 19.5 9.75 L 22 9.75 C 22.414062 9.75 22.75 10.085938 22.75 10.5 L 22.75 10 C 22.75 9.585938 22.414062 9.25 22 9.25 Z M 19.5 9.25 "/>
<path style=" stroke:none;fill-rule:nonzero;fill:rgb(0%,0%,0%);fill-opacity:0.4;" d="M 19.5 13.75 C 19.085938 13.75 18.75 13.414062 18.75 13 L 18.75 12.5 C 18.75 12.914062 19.085938 13.25 19.5 13.25 L 22 13.25 C 22.414062 13.25 22.75 12.914062 22.75 12.5 L 22.75 13 C 22.75 13.414062 22.414062 13.75 22 13.75 Z M 19.5 13.75 "/>
<path style=" stroke:none;fill-rule:nonzero;fill:rgb(84.313726%,80.000001%,78.431374%);fill-opacity:0.996078;" d="M 24.25 14 L 26.75 14 C 27.164062 14 27.5 14.335938 27.5 14.75 L 27.5 17.25 C 27.5 17.664062 27.164062 18 26.75 18 L 24.25 18 C 23.835938 18 23.5 17.664062 23.5 17.25 L 23.5 14.75 C 23.5 14.335938 23.835938 14 24.25 14 Z M 24.25 14 "/>
<path style=" stroke:none;fill-rule:nonzero;fill:rgb(99.607843%,99.607843%,99.607843%);fill-opacity:0.4;" d="M 24.25 14 C 23.835938 14 23.5 14.335938 23.5 14.75 L 23.5 15.25 C 23.5 14.835938 23.835938 14.5 24.25 14.5 L 26.75 14.5 C 27.164062 14.5 27.5 14.835938 27.5 15.25 L 27.5 14.75 C 27.5 14.335938 27.164062 14 26.75 14 Z M 24.25 14 "/>
<path style=" stroke:none;fill-rule:nonzero;fill:rgb(0%,0%,0%);fill-opacity:0.4;" d="M 24.25 18.5 C 23.835938 18.5 23.5 18.164062 23.5 17.75 L 23.5 17.25 C 23.5 17.664062 23.835938 18 24.25 18 L 26.75 18 C 27.164062 18 27.5 17.664062 27.5 17.25 L 27.5 17.75 C 27.5 18.164062 27.164062 18.5 26.75 18.5 Z M 24.25 18.5 "/>
<path style=" stroke:none;fill-rule:nonzero;fill:rgb(61.176473%,80.000001%,39.607844%);fill-opacity:0.996078;" d="M 24.25 9.25 L 26.75 9.25 C 27.164062 9.25 27.5 9.585938 27.5 10 L 27.5 12.5 C 27.5 12.914062 27.164062 13.25 26.75 13.25 L 24.25 13.25 C 23.835938 13.25 23.5 12.914062 23.5 12.5 L 23.5 10 C 23.5 9.585938 23.835938 9.25 24.25 9.25 Z M 24.25 9.25 "/>
<path style=" stroke:none;fill-rule:nonzero;fill:rgb(99.607843%,99.607843%,99.607843%);fill-opacity:0.4;" d="M 24.25 9.25 C 23.835938 9.25 23.5 9.585938 23.5 10 L 23.5 10.5 C 23.5 10.085938 23.835938 9.75 24.25 9.75 L 26.75 9.75 C 27.164062 9.75 27.5 10.085938 27.5 10.5 L 27.5 10 C 27.5 9.585938 27.164062 9.25 26.75 9.25 Z M 24.25 9.25 "/>
<path style=" stroke:none;fill-rule:nonzero;fill:rgb(0%,0%,0%);fill-opacity:0.4;" d="M 24.25 13.75 C 23.835938 13.75 23.5 13.414062 23.5 13 L 23.5 12.5 C 23.5 12.914062 23.835938 13.25 24.25 13.25 L 26.75 13.25 C 27.164062 13.25 27.5 12.914062 27.5 12.5 L 27.5 13 C 27.5 13.414062 27.164062 13.75 26.75 13.75 Z M 24.25 13.75 "/>
<path style=" stroke:none;fill-rule:nonzero;fill:rgb(84.313726%,80.000001%,78.431374%);fill-opacity:0.996078;" d="M 10 23.5 L 12.5 23.5 C 12.914062 23.5 13.25 23.835938 13.25 24.25 L 13.25 26.75 C 13.25 27.164062 12.914062 27.5 12.5 27.5 L 10 27.5 C 9.585938 27.5 9.25 27.164062 9.25 26.75 L 9.25 24.25 C 9.25 23.835938 9.585938 23.5 10 23.5 Z M 10 23.5 "/>
<path style=" stroke:none;fill-rule:nonzero;fill:rgb(99.607843%,99.607843%,99.607843%);fill-opacity:0.4;" d="M 10 23.5 C 9.585938 23.5 9.25 23.835938 9.25 24.25 L 9.25 24.75 C 9.25 24.335938 9.585938 24 10 24 L 12.5 24 C 12.914062 24 13.25 24.335938 13.25 24.75 L 13.25 24.25 C 13.25 23.835938 12.914062 23.5 12.5 23.5 Z M 10 23.5 "/>
<path style=" stroke:none;fill-rule:nonzero;fill:rgb(0%,0%,0%);fill-opacity:0.4;" d="M 10 28 C 9.585938 28 9.25 27.664062 9.25 27.25 L 9.25 26.75 C 9.25 27.164062 9.585938 27.5 10 27.5 L 12.5 27.5 C 12.914062 27.5 13.25 27.164062 13.25 26.75 L 13.25 27.25 C 13.25 27.664062 12.914062 28 12.5 28 Z M 10 28 "/>
<path style=" stroke:none;fill-rule:nonzero;fill:rgb(47.058824%,56.470591%,61.176473%);fill-opacity:0.996078;" d="M 10 18.75 L 12.5 18.75 C 12.914062 18.75 13.25 19.085938 13.25 19.5 L 13.25 22 C 13.25 22.414062 12.914062 22.75 12.5 22.75 L 10 22.75 C 9.585938 22.75 9.25 22.414062 9.25 22 L 9.25 19.5 C 9.25 19.085938 9.585938 18.75 10 18.75 Z M 10 18.75 "/>
<path style=" stroke:none;fill-rule:nonzero;fill:rgb(99.607843%,99.607843%,99.607843%);fill-opacity:0.4;" d="M 10 18.75 C 9.585938 18.75 9.25 19.085938 9.25 19.5 L 9.25 20 C 9.25 19.585938 9.585938 19.25 10 19.25 L 12.5 19.25 C 12.914062 19.25 13.25 19.585938 13.25 20 L 13.25 19.5 C 13.25 19.085938 12.914062 18.75 12.5 18.75 Z M 10 18.75 "/>
<path style=" stroke:none;fill-rule:nonzero;fill:rgb(0%,0%,0%);fill-opacity:0.4;" d="M 10 23.25 C 9.585938 23.25 9.25 22.914062 9.25 22.5 L 9.25 22 C 9.25 22.414062 9.585938 22.75 10 22.75 L 12.5 22.75 C 12.914062 22.75 13.25 22.414062 13.25 22 L 13.25 22.5 C 13.25 22.914062 12.914062 23.25 12.5 23.25 Z M 10 23.25 "/>
<path style=" stroke:none;fill-rule:nonzero;fill:rgb(55.29412%,43.137255%,38.82353%);fill-opacity:0.996078;" d="M 14.75 23.5 L 17.25 23.5 C 17.664062 23.5 18 23.835938 18 24.25 L 18 26.75 C 18 27.164062 17.664062 27.5 17.25 27.5 L 14.75 27.5 C 14.335938 27.5 14 27.164062 14 26.75 L 14 24.25 C 14 23.835938 14.335938 23.5 14.75 23.5 Z M 14.75 23.5 "/>
<path style=" stroke:none;fill-rule:nonzero;fill:rgb(99.607843%,99.607843%,99.607843%);fill-opacity:0.4;" d="M 14.75 23.5 C 14.335938 23.5 14 23.835938 14 24.25 L 14 24.75 C 14 24.335938 14.335938 24 14.75 24 L 17.25 24 C 17.664062 24 18 24.335938 18 24.75 L 18 24.25 C 18 23.835938 17.664062 23.5 17.25 23.5 Z M 14.75 23.5 "/>
<path style=" stroke:none;fill-rule:nonzero;fill:rgb(0%,0%,0%);fill-opacity:0.4;" d="M 14.75 28 C 14.335938 28 14 27.664062 14 27.25 L 14 26.75 C 14 27.164062 14.335938 27.5 14.75 27.5 L 17.25 27.5 C 17.664062 27.5 18 27.164062 18 26.75 L 18 27.25 C 18 27.664062 17.664062 28 17.25 28 Z M 14.75 28 "/>
<path style=" stroke:none;fill-rule:nonzero;fill:rgb(84.313726%,80.000001%,78.431374%);fill-opacity:0.996078;" d="M 14.75 18.75 L 17.25 18.75 C 17.664062 18.75 18 19.085938 18 19.5 L 18 22 C 18 22.414062 17.664062 22.75 17.25 22.75 L 14.75 22.75 C 14.335938 22.75 14 22.414062 14 22 L 14 19.5 C 14 19.085938 14.335938 18.75 14.75 18.75 Z M 14.75 18.75 "/>
<path style=" stroke:none;fill-rule:nonzero;fill:rgb(99.607843%,99.607843%,99.607843%);fill-opacity:0.4;" d="M 14.75 18.75 C 14.335938 18.75 14 19.085938 14 19.5 L 14 20 C 14 19.585938 14.335938 19.25 14.75 19.25 L 17.25 19.25 C 17.664062 19.25 18 19.585938 18 20 L 18 19.5 C 18 19.085938 17.664062 18.75 17.25 18.75 Z M 14.75 18.75 "/>
<path style=" stroke:none;fill-rule:nonzero;fill:rgb(0%,0%,0%);fill-opacity:0.4;" d="M 14.75 23.25 C 14.335938 23.25 14 22.914062 14 22.5 L 14 22 C 14 22.414062 14.335938 22.75 14.75 22.75 L 17.25 22.75 C 17.664062 22.75 18 22.414062 18 22 L 18 22.5 C 18 22.914062 17.664062 23.25 17.25 23.25 Z M 14.75 23.25 "/>
<path style=" stroke:none;fill-rule:nonzero;fill:rgb(73.725492%,66.666669%,64.313728%);fill-opacity:0.996078;" d="M 19.5 23.5 L 22 23.5 C 22.414062 23.5 22.75 23.835938 22.75 24.25 L 22.75 26.75 C 22.75 27.164062 22.414062 27.5 22 27.5 L 19.5 27.5 C 19.085938 27.5 18.75 27.164062 18.75 26.75 L 18.75 24.25 C 18.75 23.835938 19.085938 23.5 19.5 23.5 Z M 19.5 23.5 "/>
<path style=" stroke:none;fill-rule:nonzero;fill:rgb(99.607843%,99.607843%,99.607843%);fill-opacity:0.4;" d="M 19.5 23.5 C 19.085938 23.5 18.75 23.835938 18.75 24.25 L 18.75 24.75 C 18.75 24.335938 19.085938 24 19.5 24 L 22 24 C 22.414062 24 22.75 24.335938 22.75 24.75 L 22.75 24.25 C 22.75 23.835938 22.414062 23.5 22 23.5 Z M 19.5 23.5 "/>
<path style=" stroke:none;fill-rule:nonzero;fill:rgb(0%,0%,0%);fill-opacity:0.4;" d="M 19.5 28 C 19.085938 28 18.75 27.664062 18.75 27.25 L 18.75 26.75 C 18.75 27.164062 19.085938 27.5 19.5 27.5 L 22 27.5 C 22.414062 27.5 22.75 27.164062 22.75 26.75 L 22.75 27.25 C 22.75 27.664062 22.414062 28 22 28 Z M 19.5 28 "/>
<path style=" stroke:none;fill-rule:nonzero;fill:rgb(55.29412%,43.137255%,38.82353%);fill-opacity:0.996078;" d="M 19.5 18.75 L 22 18.75 C 22.414062 18.75 22.75 19.085938 22.75 19.5 L 22.75 22 C 22.75 22.414062 22.414062 22.75 22 22.75 L 19.5 22.75 C 19.085938 22.75 18.75 22.414062 18.75 22 L 18.75 19.5 C 18.75 19.085938 19.085938 18.75 19.5 18.75 Z M 19.5 18.75 "/>
<path style=" stroke:none;fill-rule:nonzero;fill:rgb(99.607843%,99.607843%,99.607843%);fill-opacity:0.4;" d="M 19.5 18.75 C 19.085938 18.75 18.75 19.085938 18.75 19.5 L 18.75 20 C 18.75 19.585938 19.085938 19.25 19.5 19.25 L 22 19.25 C 22.414062 19.25 22.75 19.585938 22.75 20 L 22.75 19.5 C 22.75 19.085938 22.414062 18.75 22 18.75 Z M 19.5 18.75 "/>
<path style=" stroke:none;fill-rule:nonzero;fill:rgb(0%,0%,0%);fill-opacity:0.4;" d="M 19.5 23.25 C 19.085938 23.25 18.75 22.914062 18.75 22.5 L 18.75 22 C 18.75 22.414062 19.085938 22.75 19.5 22.75 L 22 22.75 C 22.414062 22.75 22.75 22.414062 22.75 22 L 22.75 22.5 C 22.75 22.914062 22.414062 23.25 22 23.25 Z M 19.5 23.25 "/>
<path style=" stroke:none;fill-rule:nonzero;fill:rgb(55.29412%,43.137255%,38.82353%);fill-opacity:0.996078;" d="M 24.25 23.5 L 26.75 23.5 C 27.164062 23.5 27.5 23.835938 27.5 24.25 L 27.5 26.75 C 27.5 27.164062 27.164062 27.5 26.75 27.5 L 24.25 27.5 C 23.835938 27.5 23.5 27.164062 23.5 26.75 L 23.5 24.25 C 23.5 23.835938 23.835938 23.5 24.25 23.5 Z M 24.25 23.5 "/>
<path style=" stroke:none;fill-rule:nonzero;fill:rgb(99.607843%,99.607843%,99.607843%);fill-opacity:0.4;" d="M 24.25 23.5 C 23.835938 23.5 23.5 23.835938 23.5 24.25 L 23.5 24.75 C 23.5 24.335938 23.835938 24 24.25 24 L 26.75 24 C 27.164062 24 27.5 24.335938 27.5 24.75 L 27.5 24.25 C 27.5 23.835938 27.164062 23.5 26.75 23.5 Z M 24.25 23.5 "/>
<path style=" stroke:none;fill-rule:nonzero;fill:rgb(0%,0%,0%);fill-opacity:0.4;" d="M 24.25 28 C 23.835938 28 23.5 27.664062 23.5 27.25 L 23.5 26.75 C 23.5 27.164062 23.835938 27.5 24.25 27.5 L 26.75 27.5 C 27.164062 27.5 27.5 27.164062 27.5 26.75 L 27.5 27.25 C 27.5 27.664062 27.164062 28 26.75 28 Z M 24.25 28 "/>
<path style=" stroke:none;fill-rule:nonzero;fill:rgb(84.313726%,80.000001%,78.431374%);fill-opacity:0.996078;" d="M 24.25 18.75 L 26.75 18.75 C 27.164062 18.75 27.5 19.085938 27.5 19.5 L 27.5 22 C 27.5 22.414062 27.164062 22.75 26.75 22.75 L 24.25 22.75 C 23.835938 22.75 23.5 22.414062 23.5 22 L 23.5 19.5 C 23.5 19.085938 23.835938 18.75 24.25 18.75 Z M 24.25 18.75 "/>
<path style=" stroke:none;fill-rule:nonzero;fill:rgb(99.607843%,99.607843%,99.607843%);fill-opacity:0.4;" d="M 24.25 18.75 C 23.835938 18.75 23.5 19.085938 23.5 19.5 L 23.5 20 C 23.5 19.585938 23.835938 19.25 24.25 19.25 L 26.75 19.25 C 27.164062 19.25 27.5 19.585938 27.5 20 L 27.5 19.5 C 27.5 19.085938 27.164062 18.75 26.75 18.75 Z M 24.25 18.75 "/>
<path style=" stroke:none;fill-rule:nonzero;fill:rgb(0%,0%,0%);fill-opacity:0.4;" d="M 24.25 23.25 C 23.835938 23.25 23.5 22.914062 23.5 22.5 L 23.5 22 C 23.5 22.414062 23.835938 22.75 24.25 22.75 L 26.75 22.75 C 27.164062 22.75 27.5 22.414062 27.5 22 L 27.5 22.5 C 27.5 22.914062 27.164062 23.25 26.75 23.25 Z M 24.25 23.25 "/>
<path style=" stroke:none;fill-rule:nonzero;fill:rgb(47.058824%,56.470591%,61.176473%);fill-opacity:0.996078;" d="M 5.25 14 L 7.75 14 C 8.164062 14 8.5 14.335938 8.5 14.75 L 8.5 17.25 C 8.5 17.664062 8.164062 18 7.75 18 L 5.25 18 C 4.835938 18 4.5 17.664062 4.5 17.25 L 4.5 14.75 C 4.5 14.335938 4.835938 14 5.25 14 Z M 5.25 14 "/>
<path style=" stroke:none;fill-rule:nonzero;fill:rgb(99.607843%,99.607843%,99.607843%);fill-opacity:0.4;" d="M 5.25 14 C 4.835938 14 4.5 14.335938 4.5 14.75 L 4.5 15.25 C 4.5 14.835938 4.835938 14.5 5.25 14.5 L 7.75 14.5 C 8.164062 14.5 8.5 14.835938 8.5 15.25 L 8.5 14.75 C 8.5 14.335938 8.164062 14 7.75 14 Z M 5.25 14 "/>
<path style=" stroke:none;fill-rule:nonzero;fill:rgb(0%,0%,0%);fill-opacity:0.4;" d="M 5.25 18.5 C 4.835938 18.5 4.5 18.164062 4.5 17.75 L 4.5 17.25 C 4.5 17.664062 4.835938 18 5.25 18 L 7.75 18 C 8.164062 18 8.5 17.664062 8.5 17.25 L 8.5 17.75 C 8.5 18.164062 8.164062 18.5 7.75 18.5 Z M 5.25 18.5 "/>
<path style=" stroke:none;fill-rule:nonzero;fill:rgb(61.176473%,80.000001%,39.607844%);fill-opacity:0.996078;" d="M 5.25 9.25 L 7.75 9.25 C 8.164062 9.25 8.5 9.585938 8.5 10 L 8.5 12.5 C 8.5 12.914062 8.164062 13.25 7.75 13.25 L 5.25 13.25 C 4.835938 13.25 4.5 12.914062 4.5 12.5 L 4.5 10 C 4.5 9.585938 4.835938 9.25 5.25 9.25 Z M 5.25 9.25 "/>
<path style=" stroke:none;fill-rule:nonzero;fill:rgb(99.607843%,99.607843%,99.607843%);fill-opacity:0.4;" d="M 5.25 9.25 C 4.835938 9.25 4.5 9.585938 4.5 10 L 4.5 10.5 C 4.5 10.085938 4.835938 9.75 5.25 9.75 L 7.75 9.75 C 8.164062 9.75 8.5 10.085938 8.5 10.5 L 8.5 10 C 8.5 9.585938 8.164062 9.25 7.75 9.25 Z M 5.25 9.25 "/>
<path style=" stroke:none;fill-rule:nonzero;fill:rgb(0%,0%,0%);fill-opacity:0.4;" d="M 5.25 13.75 C 4.835938 13.75 4.5 13.414062 4.5 13 L 4.5 12.5 C 4.5 12.914062 4.835938 13.25 5.25 13.25 L 7.75 13.25 C 8.164062 13.25 8.5 12.914062 8.5 12.5 L 8.5 13 C 8.5 13.414062 8.164062 13.75 7.75 13.75 Z M 5.25 13.75 "/>
<path style=" stroke:none;fill-rule:nonzero;fill:rgb(84.313726%,80.000001%,78.431374%);fill-opacity:0.996078;" d="M 10 14 L 12.5 14 C 12.914062 14 13.25 14.335938 13.25 14.75 L 13.25 17.25 C 13.25 17.664062 12.914062 18 12.5 18 L 10 18 C 9.585938 18 9.25 17.664062 9.25 17.25 L 9.25 14.75 C 9.25 14.335938 9.585938 14 10 14 Z M 10 14 "/>
<path style=" stroke:none;fill-rule:nonzero;fill:rgb(99.607843%,99.607843%,99.607843%);fill-opacity:0.4;" d="M 10 14 C 9.585938 14 9.25 14.335938 9.25 14.75 L 9.25 15.25 C 9.25 14.835938 9.585938 14.5 10 14.5 L 12.5 14.5 C 12.914062 14.5 13.25 14.835938 13.25 15.25 L 13.25 14.75 C 13.25 14.335938 12.914062 14 12.5 14 Z M 10 14 "/>
<path style=" stroke:none;fill-rule:nonzero;fill:rgb(0%,0%,0%);fill-opacity:0.4;" d="M 10 18.5 C 9.585938 18.5 9.25 18.164062 9.25 17.75 L 9.25 17.25 C 9.25 17.664062 9.585938 18 10 18 L 12.5 18 C 12.914062 18 13.25 17.664062 13.25 17.25 L 13.25 17.75 C 13.25 18.164062 12.914062 18.5 12.5 18.5 Z M 10 18.5 "/>
<path style=" stroke:none;fill-rule:nonzero;fill:rgb(84.313726%,80.000001%,78.431374%);fill-opacity:0.996078;" d="M 10 9.25 L 12.5 9.25 C 12.914062 9.25 13.25 9.585938 13.25 10 L 13.25 12.5 C 13.25 12.914062 12.914062 13.25 12.5 13.25 L 10 13.25 C 9.585938 13.25 9.25 12.914062 9.25 12.5 L 9.25 10 C 9.25 9.585938 9.585938 9.25 10 9.25 Z M 10 9.25 "/>
<path style=" stroke:none;fill-rule:nonzero;fill:rgb(99.607843%,99.607843%,99.607843%);fill-opacity:0.4;" d="M 10 9.25 C 9.585938 9.25 9.25 9.585938 9.25 10 L 9.25 10.5 C 9.25 10.085938 9.585938 9.75 10 9.75 L 12.5 9.75 C 12.914062 9.75 13.25 10.085938 13.25 10.5 L 13.25 10 C 13.25 9.585938 12.914062 9.25 12.5 9.25 Z M 10 9.25 "/>
<path style=" stroke:none;fill-rule:nonzero;fill:rgb(0%,0%,0%);fill-opacity:0.4;" d="M 10 13.75 C 9.585938 13.75 9.25 13.414062 9.25 13 L 9.25 12.5 C 9.25 12.914062 9.585938 13.25 10 13.25 L 12.5 13.25 C 12.914062 13.25 13.25 12.914062 13.25 12.5 L 13.25 13 C 13.25 13.414062 12.914062 13.75 12.5 13.75 Z M 10 13.75 "/>
<path style=" stroke:none;fill-rule:nonzero;fill:rgb(47.058824%,56.470591%,61.176473%);fill-opacity:0.996078;" d="M 5.25 23.5 L 7.75 23.5 C 8.164062 23.5 8.5 23.835938 8.5 24.25 L 8.5 26.75 C 8.5 27.164062 8.164062 27.5 7.75 27.5 L 5.25 27.5 C 4.835938 27.5 4.5 27.164062 4.5 26.75 L 4.5 24.25 C 4.5 23.835938 4.835938 23.5 5.25 23.5 Z M 5.25 23.5 "/>
<path style=" stroke:none;fill-rule:nonzero;fill:rgb(99.607843%,99.607843%,99.607843%);fill-opacity:0.4;" d="M 5.25 23.5 C 4.835938 23.5 4.5 23.835938 4.5 24.25 L 4.5 24.75 C 4.5 24.335938 4.835938 24 5.25 24 L 7.75 24 C 8.164062 24 8.5 24.335938 8.5 24.75 L 8.5 24.25 C 8.5 23.835938 8.164062 23.5 7.75 23.5 Z M 5.25 23.5 "/>
<path style=" stroke:none;fill-rule:nonzero;fill:rgb(0%,0%,0%);fill-opacity:0.4;" d="M 5.25 28 C 4.835938 28 4.5 27.664062 4.5 27.25 L 4.5 26.75 C 4.5 27.164062 4.835938 27.5 5.25 27.5 L 7.75 27.5 C 8.164062 27.5 8.5 27.164062 8.5 26.75 L 8.5 27.25 C 8.5 27.664062 8.164062 28 7.75 28 Z M 5.25 28 "/>
<path style=" stroke:none;fill-rule:nonzero;fill:rgb(63.137257%,53.333336%,49.803922%);fill-opacity:0.996078;" d="M 5.25 18.75 L 7.75 18.75 C 8.164062 18.75 8.5 19.085938 8.5 19.5 L 8.5 22 C 8.5 22.414062 8.164062 22.75 7.75 22.75 L 5.25 22.75 C 4.835938 22.75 4.5 22.414062 4.5 22 L 4.5 19.5 C 4.5 19.085938 4.835938 18.75 5.25 18.75 Z M 5.25 18.75 "/>
<path style=" stroke:none;fill-rule:nonzero;fill:rgb(99.607843%,99.607843%,99.607843%);fill-opacity:0.4;" d="M 5.25 18.75 C 4.835938 18.75 4.5 19.085938 4.5 19.5 L 4.5 20 C 4.5 19.585938 4.835938 19.25 5.25 19.25 L 7.75 19.25 C 8.164062 19.25 8.5 19.585938 8.5 20 L 8.5 19.5 C 8.5 19.085938 8.164062 18.75 7.75 18.75 Z M 5.25 18.75 "/>
<path style=" stroke:none;fill-rule:nonzero;fill:rgb(0%,0%,0%);fill-opacity:0.4;" d="M 5.25 23.25 C 4.835938 23.25 4.5 22.914062 4.5 22.5 L 4.5 22 C 4.5 22.414062 4.835938 22.75 5.25 22.75 L 7.75 22.75 C 8.164062 22.75 8.5 22.414062 8.5 22 L 8.5 22.5 C 8.5 22.914062 8.164062 23.25 7.75 23.25 Z M 5.25 23.25 "/>
<path style=" stroke:none;fill-rule:nonzero;fill:rgb(77.254903%,88.235295%,64.705884%);fill-opacity:0.996078;" d="M 14.75 4.5 L 17.25 4.5 C 17.664062 4.5 18 4.835938 18 5.25 L 18 7.75 C 18 8.164062 17.664062 8.5 17.25 8.5 L 14.75 8.5 C 14.335938 8.5 14 8.164062 14 7.75 L 14 5.25 C 14 4.835938 14.335938 4.5 14.75 4.5 Z M 14.75 4.5 "/>
<path style=" stroke:none;fill-rule:nonzero;fill:rgb(99.607843%,99.607843%,99.607843%);fill-opacity:0.4;" d="M 14.75 4.5 C 14.335938 4.5 14 4.835938 14 5.25 L 14 5.75 C 14 5.335938 14.335938 5 14.75 5 L 17.25 5 C 17.664062 5 18 5.335938 18 5.75 L 18 5.25 C 18 4.835938 17.664062 4.5 17.25 4.5 Z M 14.75 4.5 "/>
<path style=" stroke:none;fill-rule:nonzero;fill:rgb(0%,0%,0%);fill-opacity:0.4;" d="M 14.75 9 C 14.335938 9 14 8.664062 14 8.25 L 14 7.75 C 14 8.164062 14.335938 8.5 14.75 8.5 L 17.25 8.5 C 17.664062 8.5 18 8.164062 18 7.75 L 18 8.25 C 18 8.664062 17.664062 9 17.25 9 Z M 14.75 9 "/>
<path style=" stroke:none;fill-rule:nonzero;fill:rgb(61.176473%,80.000001%,39.607844%);fill-opacity:0.996078;" d="M 19.5 4.5 L 22 4.5 C 22.414062 4.5 22.75 4.835938 22.75 5.25 L 22.75 7.75 C 22.75 8.164062 22.414062 8.5 22 8.5 L 19.5 8.5 C 19.085938 8.5 18.75 8.164062 18.75 7.75 L 18.75 5.25 C 18.75 4.835938 19.085938 4.5 19.5 4.5 Z M 19.5 4.5 "/>
<path style=" stroke:none;fill-rule:nonzero;fill:rgb(99.607843%,99.607843%,99.607843%);fill-opacity:0.4;" d="M 19.5 4.5 C 19.085938 4.5 18.75 4.835938 18.75 5.25 L 18.75 5.75 C 18.75 5.335938 19.085938 5 19.5 5 L 22 5 C 22.414062 5 22.75 5.335938 22.75 5.75 L 22.75 5.25 C 22.75 4.835938 22.414062 4.5 22 4.5 Z M 19.5 4.5 "/>
<path style=" stroke:none;fill-rule:nonzero;fill:rgb(0%,0%,0%);fill-opacity:0.4;" d="M 19.5 9 C 19.085938 9 18.75 8.664062 18.75 8.25 L 18.75 7.75 C 18.75 8.164062 19.085938 8.5 19.5 8.5 L 22 8.5 C 22.414062 8.5 22.75 8.164062 22.75 7.75 L 22.75 8.25 C 22.75 8.664062 22.414062 9 22 9 Z M 19.5 9 "/>
<path style=" stroke:none;fill-rule:nonzero;fill:rgb(77.254903%,88.235295%,64.705884%);fill-opacity:0.996078;" d="M 24.25 4.5 L 26.75 4.5 C 27.164062 4.5 27.5 4.835938 27.5 5.25 L 27.5 7.75 C 27.5 8.164062 27.164062 8.5 26.75 8.5 L 24.25 8.5 C 23.835938 8.5 23.5 8.164062 23.5 7.75 L 23.5 5.25 C 23.5 4.835938 23.835938 4.5 24.25 4.5 Z M 24.25 4.5 "/>
<path style=" stroke:none;fill-rule:nonzero;fill:rgb(99.607843%,99.607843%,99.607843%);fill-opacity:0.4;" d="M 24.25 4.5 C 23.835938 4.5 23.5 4.835938 23.5 5.25 L 23.5 5.75 C 23.5 5.335938 23.835938 5 24.25 5 L 26.75 5 C 27.164062 5 27.5 5.335938 27.5 5.75 L 27.5 5.25 C 27.5 4.835938 27.164062 4.5 26.75 4.5 Z M 24.25 4.5 "/>
<path style=" stroke:none;fill-rule:nonzero;fill:rgb(0%,0%,0%);fill-opacity:0.4;" d="M 24.25 9 C 23.835938 9 23.5 8.664062 23.5 8.25 L 23.5 7.75 C 23.5 8.164062 23.835938 8.5 24.25 8.5 L 26.75 8.5 C 27.164062 8.5 27.5 8.164062 27.5 7.75 L 27.5 8.25 C 27.5 8.664062 27.164062 9 26.75 9 Z M 24.25 9 "/>
<path style=" stroke:none;fill-rule:nonzero;fill:rgb(68.235296%,83.529413%,50.588238%);fill-opacity:0.996078;" d="M 5.25 4.5 L 7.75 4.5 C 8.164062 4.5 8.5 4.835938 8.5 5.25 L 8.5 7.75 C 8.5 8.164062 8.164062 8.5 7.75 8.5 L 5.25 8.5 C 4.835938 8.5 4.5 8.164062 4.5 7.75 L 4.5 5.25 C 4.5 4.835938 4.835938 4.5 5.25 4.5 Z M 5.25 4.5 "/>
<path style=" stroke:none;fill-rule:nonzero;fill:rgb(99.607843%,99.607843%,99.607843%);fill-opacity:0.4;" d="M 5.25 4.5 C 4.835938 4.5 4.5 4.835938 4.5 5.25 L 4.5 5.75 C 4.5 5.335938 4.835938 5 5.25 5 L 7.75 5 C 8.164062 5 8.5 5.335938 8.5 5.75 L 8.5 5.25 C 8.5 4.835938 8.164062 4.5 7.75 4.5 Z M 5.25 4.5 "/>
<path style=" stroke:none;fill-rule:nonzero;fill:rgb(0%,0%,0%);fill-opacity:0.4;" d="M 5.25 9 C 4.835938 9 4.5 8.664062 4.5 8.25 L 4.5 7.75 C 4.5 8.164062 4.835938 8.5 5.25 8.5 L 7.75 8.5 C 8.164062 8.5 8.5 8.164062 8.5 7.75 L 8.5 8.25 C 8.5 8.664062 8.164062 9 7.75 9 Z M 5.25 9 "/>
<path style=" stroke:none;fill-rule:nonzero;fill:rgb(61.176473%,80.000001%,39.607844%);fill-opacity:0.996078;" d="M 10 4.5 L 12.5 4.5 C 12.914062 4.5 13.25 4.835938 13.25 5.25 L 13.25 7.75 C 13.25 8.164062 12.914062 8.5 12.5 8.5 L 10 8.5 C 9.585938 8.5 9.25 8.164062 9.25 7.75 L 9.25 5.25 C 9.25 4.835938 9.585938 4.5 10 4.5 Z M 10 4.5 "/>
<path style=" stroke:none;fill-rule:nonzero;fill:rgb(99.607843%,99.607843%,99.607843%);fill-opacity:0.4;" d="M 10 4.5 C 9.585938 4.5 9.25 4.835938 9.25 5.25 L 9.25 5.75 C 9.25 5.335938 9.585938 5 10 5 L 12.5 5 C 12.914062 5 13.25 5.335938 13.25 5.75 L 13.25 5.25 C 13.25 4.835938 12.914062 4.5 12.5 4.5 Z M 10 4.5 "/>
<path style=" stroke:none;fill-rule:nonzero;fill:rgb(0%,0%,0%);fill-opacity:0.4;" d="M 10 9 C 9.585938 9 9.25 8.664062 9.25 8.25 L 9.25 7.75 C 9.25 8.164062 9.585938 8.5 10 8.5 L 12.5 8.5 C 12.914062 8.5 13.25 8.164062 13.25 7.75 L 13.25 8.25 C 13.25 8.664062 12.914062 9 12.5 9 Z M 10 9 "/>
<path style=" stroke:none;fill-rule:nonzero;fill:url(#linear0);" d="M 4 2 L 28 2 C 29.105469 2 30 2.894531 30 4 L 30 28 C 30 29.105469 29.105469 30 28 30 L 4 30 C 2.894531 30 2 29.105469 2 28 L 2 4 C 2 2.894531 2.894531 2 4 2 Z M 4 2 "/>
</g>
</svg>
