
<svg xmlns="http://www.w3.org/2000/svg" xmlns:xlink="http://www.w3.org/1999/xlink" width="32" height="32" viewBox="0 0 32 32" version="1.1">
<defs>
<linearGradient id="linear0" gradientUnits="userSpaceOnUse" x1="31.999998" y1="59.999996" x2="31.999998" y2="4" gradientTransform="matrix(0.5,0,0,0.5,0,0)">
<stop offset="0" style="stop-color:rgb(0%,0%,0%);stop-opacity:0.2;"/>
<stop offset="1" style="stop-color:rgb(100%,100%,100%);stop-opacity:0;"/>
</linearGradient>
</defs>
<g id="surface1">
<path style=" stroke:none;fill-rule:nonzero;fill:rgb(25.882354%,64.705884%,96.078432%);fill-opacity:0.996078;" d="M 4 2 L 13 2 C 14.105469 2 15 2.894531 15 4 L 15 13 C 15 14.105469 14.105469 15 13 15 L 4 15 C 2.894531 15 2 14.105469 2 13 L 2 4 C 2 2.894531 2.894531 2 4 2 Z M 4 2 "/>
<path style=" stroke:none;fill-rule:nonzero;fill:rgb(25.882354%,64.705884%,96.078432%);fill-opacity:0.996078;" d="M 19 2 L 28 2 C 29.105469 2 30 2.894531 30 4 L 30 13 C 30 14.105469 29.105469 15 28 15 L 19 15 C 17.894531 15 17 14.105469 17 13 L 17 4 C 17 2.894531 17.894531 2 19 2 Z M 19 2 "/>
<path style=" stroke:none;fill-rule:nonzero;fill:rgb(40.000001%,73.333335%,41.568628%);fill-opacity:0.996078;" d="M 4 17 L 13 17 C 14.105469 17 15 17.894531 15 19 L 15 28 C 15 29.105469 14.105469 30 13 30 L 4 30 C 2.894531 30 2 29.105469 2 28 L 2 19 C 2 17.894531 2.894531 17 4 17 Z M 4 17 "/>
<path style=" stroke:none;fill-rule:nonzero;fill:rgb(25.882354%,64.705884%,96.078432%);fill-opacity:0.996078;" d="M 19 17 L 28 17 C 29.105469 17 30 17.894531 30 19 L 30 28 C 30 29.105469 29.105469 30 28 30 L 19 30 C 17.894531 30 17 29.105469 17 28 L 17 19 C 17 17.894531 17.894531 17 19 17 Z M 19 17 "/>
<path style=" stroke:none;fill-rule:nonzero;fill:rgb(100%,100%,100%);fill-opacity:0.4;" d="M 4 2 C 2.890625 2 2 2.890625 2 4 L 2 4.5 C 2 3.390625 2.890625 2.5 4 2.5 L 13 2.5 C 14.109375 2.5 15 3.390625 15 4.5 L 15 4 C 15 2.890625 14.109375 2 13 2 Z M 4 2 "/>
<path style=" stroke:none;fill-rule:nonzero;fill:rgb(0%,0%,0%);fill-opacity:0.4;" d="M 4 15 C 2.890625 15 2 14.109375 2 13 L 2 12.5 C 2 13.609375 2.890625 14.5 4 14.5 L 13 14.5 C 14.109375 14.5 15 13.609375 15 12.5 L 15 13 C 15 14.109375 14.109375 15 13 15 Z M 4 15 "/>
<path style=" stroke:none;fill-rule:nonzero;fill:rgb(100%,100%,100%);fill-opacity:0.4;" d="M 19 2 C 17.890625 2 17 2.890625 17 4 L 17 4.5 C 17 3.390625 17.890625 2.5 19 2.5 L 28 2.5 C 29.109375 2.5 30 3.390625 30 4.5 L 30 4 C 30 2.890625 29.109375 2 28 2 Z M 19 2 "/>
<path style=" stroke:none;fill-rule:nonzero;fill:rgb(0%,0%,0%);fill-opacity:0.4;" d="M 19 15 C 17.890625 15 17 14.109375 17 13 L 17 12.5 C 17 13.609375 17.890625 14.5 19 14.5 L 28 14.5 C 29.109375 14.5 30 13.609375 30 12.5 L 30 13 C 30 14.109375 29.109375 15 28 15 Z M 19 15 "/>
<path style=" stroke:none;fill-rule:nonzero;fill:rgb(100%,100%,100%);fill-opacity:0.4;" d="M 19 17 C 17.890625 17 17 17.890625 17 19 L 17 19.5 C 17 18.390625 17.890625 17.5 19 17.5 L 28 17.5 C 29.109375 17.5 30 18.390625 30 19.5 L 30 19 C 30 17.890625 29.109375 17 28 17 Z M 19 17 "/>
<path style=" stroke:none;fill-rule:nonzero;fill:rgb(0%,0%,0%);fill-opacity:0.4;" d="M 19 30 C 17.890625 30 17 29.109375 17 28 L 17 27.5 C 17 28.609375 17.890625 29.5 19 29.5 L 28 29.5 C 29.109375 29.5 30 28.609375 30 27.5 L 30 28 C 30 29.109375 29.109375 30 28 30 Z M 19 30 "/>
<path style=" stroke:none;fill-rule:nonzero;fill:rgb(100%,100%,100%);fill-opacity:0.4;" d="M 4 17 C 2.890625 17 2 17.890625 2 19 L 2 19.5 C 2 18.390625 2.890625 17.5 4 17.5 L 13 17.5 C 14.109375 17.5 15 18.390625 15 19.5 L 15 19 C 15 17.890625 14.109375 17 13 17 Z M 4 17 "/>
<path style=" stroke:none;fill-rule:nonzero;fill:rgb(0%,0%,0%);fill-opacity:0.4;" d="M 4 30 C 2.890625 30 2 29.109375 2 28 L 2 27.5 C 2 28.609375 2.890625 29.5 4 29.5 L 13 29.5 C 14.109375 29.5 15 28.609375 15 27.5 L 15 28 C 15 29.109375 14.109375 30 13 30 Z M 4 30 "/>
<path style=" stroke:none;fill-rule:nonzero;fill:rgb(11.764706%,53.333336%,89.803922%);fill-opacity:1;" d="M 8.5 4 C 10.984375 4 13 6.015625 13 8.5 C 13 10.984375 10.984375 13 8.5 13 C 6.015625 13 4 10.984375 4 8.5 C 4 6.015625 6.015625 4 8.5 4 Z M 8.5 4 "/>
<path style=" stroke:none;fill-rule:nonzero;fill:rgb(0%,0%,0%);fill-opacity:0.4;" d="M 8.5 4 C 6.007812 4 4 6.007812 4 8.5 C 4 8.582031 4.003906 8.667969 4.007812 8.75 C 4.136719 6.375 6.089844 4.5 8.5 4.5 C 10.910156 4.5 12.863281 6.375 12.992188 8.75 C 12.996094 8.667969 13 8.582031 13 8.5 C 13 6.007812 10.992188 4 8.5 4 Z M 8.5 4 "/>
<path style=" stroke:none;fill-rule:nonzero;fill:rgb(100%,100%,100%);fill-opacity:0.4;" d="M 8.5 13.5 C 6.007812 13.5 4 11.492188 4 9 C 4 8.917969 4.003906 8.832031 4.007812 8.75 C 4.136719 11.125 6.089844 13 8.5 13 C 10.910156 13 12.863281 11.125 12.992188 8.75 C 12.996094 8.832031 13 8.917969 13 9 C 13 11.492188 10.992188 13.5 8.5 13.5 Z M 8.5 13.5 "/>
<path style=" stroke:none;fill-rule:nonzero;fill:rgb(11.764706%,53.333336%,89.803922%);fill-opacity:1;" d="M 23.507812 4 C 25.992188 4 28.007812 6.015625 28.007812 8.5 C 28.007812 10.984375 25.992188 13 23.507812 13 C 21.023438 13 19.007812 10.984375 19.007812 8.5 C 19.007812 6.015625 21.023438 4 23.507812 4 Z M 23.507812 4 "/>
<path style=" stroke:none;fill-rule:nonzero;fill:rgb(0%,0%,0%);fill-opacity:0.4;" d="M 23.507812 4 C 21.015625 4 19.007812 6.007812 19.007812 8.5 C 19.007812 8.582031 19.007812 8.667969 19.011719 8.75 C 19.140625 6.375 21.097656 4.5 23.507812 4.5 C 25.914062 4.5 27.871094 6.375 28 8.75 C 28.003906 8.667969 28.007812 8.582031 28.007812 8.5 C 28.007812 6.007812 26 4 23.507812 4 Z M 23.507812 4 "/>
<path style=" stroke:none;fill-rule:nonzero;fill:rgb(100%,100%,100%);fill-opacity:0.4;" d="M 23.507812 13.5 C 21.015625 13.5 19.007812 11.492188 19.007812 9 C 19.007812 8.917969 19.007812 8.832031 19.011719 8.75 C 19.140625 11.125 21.097656 13 23.507812 13 C 25.914062 13 27.871094 11.125 28 8.75 C 28.003906 8.832031 28.007812 8.917969 28.007812 9 C 28.007812 11.492188 26 13.5 23.507812 13.5 Z M 23.507812 13.5 "/>
<path style=" stroke:none;fill-rule:nonzero;fill:rgb(11.764706%,53.333336%,89.803922%);fill-opacity:1;" d="M 23.507812 19 C 25.992188 19 28.007812 21.015625 28.007812 23.5 C 28.007812 25.984375 25.992188 28 23.507812 28 C 21.023438 28 19.007812 25.984375 19.007812 23.5 C 19.007812 21.015625 21.023438 19 23.507812 19 Z M 23.507812 19 "/>
<path style=" stroke:none;fill-rule:nonzero;fill:rgb(0%,0%,0%);fill-opacity:0.4;" d="M 23.507812 19 C 21.015625 19 19.007812 21.007812 19.007812 23.5 C 19.007812 23.582031 19.007812 23.667969 19.011719 23.75 C 19.140625 21.375 21.097656 19.5 23.507812 19.5 C 25.914062 19.5 27.871094 21.375 28 23.75 C 28.003906 23.667969 28.007812 23.582031 28.007812 23.5 C 28.007812 21.007812 26 19 23.507812 19 Z M 23.507812 19 "/>
<path style=" stroke:none;fill-rule:nonzero;fill:rgb(100%,100%,100%);fill-opacity:0.4;" d="M 23.507812 28.5 C 21.015625 28.5 19.007812 26.492188 19.007812 24 C 19.007812 23.917969 19.007812 23.832031 19.011719 23.75 C 19.140625 26.125 21.097656 28 23.507812 28 C 25.914062 28 27.871094 26.125 28 23.75 C 28.003906 23.832031 28.007812 23.917969 28.007812 24 C 28.007812 26.492188 26 28.5 23.507812 28.5 Z M 23.507812 28.5 "/>
<path style=" stroke:none;fill-rule:nonzero;fill:rgb(26.274511%,62.7451%,27.843139%);fill-opacity:1;" d="M 8.507812 19 C 10.992188 19 13.007812 21.015625 13.007812 23.5 C 13.007812 25.984375 10.992188 28 8.507812 28 C 6.023438 28 4.007812 25.984375 4.007812 23.5 C 4.007812 21.015625 6.023438 19 8.507812 19 Z M 8.507812 19 "/>
<path style=" stroke:none;fill-rule:nonzero;fill:rgb(0%,0%,0%);fill-opacity:0.4;" d="M 8.507812 19 C 6.015625 19 4.007812 21.007812 4.007812 23.5 C 4.007812 23.582031 4.007812 23.667969 4.015625 23.75 C 4.140625 21.375 6.097656 19.5 8.507812 19.5 C 10.914062 19.5 12.871094 21.375 13 23.75 C 13.003906 23.667969 13.007812 23.582031 13.007812 23.5 C 13.007812 21.007812 11 19 8.507812 19 Z M 8.507812 19 "/>
<path style=" stroke:none;fill-rule:nonzero;fill:rgb(100%,100%,100%);fill-opacity:0.4;" d="M 8.507812 28.5 C 6.015625 28.5 4.007812 26.492188 4.007812 24 C 4.007812 23.917969 4.007812 23.832031 4.015625 23.75 C 4.140625 26.125 6.097656 28 8.507812 28 C 10.914062 28 12.871094 26.125 13 23.75 C 13.003906 23.832031 13.007812 23.917969 13.007812 24 C 13.007812 26.492188 11 28.5 8.507812 28.5 Z M 8.507812 28.5 "/>
<path style=" stroke:none;fill-rule:nonzero;fill:url(#linear0);" d="M 4 2 C 2.890625 2 2 2.890625 2 4 L 2 13 C 2 14.109375 2.890625 15 4 15 L 13 15 C 14.109375 15 15 14.109375 15 13 L 15 4 C 15 2.890625 14.109375 2 13 2 Z M 19 2 C 17.890625 2 17 2.890625 17 4 L 17 13 C 17 14.109375 17.890625 15 19 15 L 28 15 C 29.109375 15 30 14.109375 30 13 L 30 4 C 30 2.890625 29.109375 2 28 2 Z M 4 17 C 2.890625 17 2 17.890625 2 19 L 2 28 C 2 29.109375 2.890625 30 4 30 L 13 30 C 14.109375 30 15 29.109375 15 28 L 15 19 C 15 17.890625 14.109375 17 13 17 Z M 19 17 C 17.890625 17 17 17.890625 17 19 L 17 28 C 17 29.109375 17.890625 30 19 30 L 28 30 C 29.109375 30 30 29.109375 30 28 L 30 19 C 30 17.890625 29.109375 17 28 17 Z M 19 17 "/>
<path style=" stroke:none;fill-rule:nonzero;fill:rgb(0%,0%,0%);fill-opacity:0.2;" d="M 2 13 L 2 13.75 C 2 14.859375 2.890625 15.75 4 15.75 L 13 15.75 C 14.109375 15.75 15 14.859375 15 13.75 L 15 13 C 15 14.109375 14.109375 15 13 15 L 4 15 C 2.890625 15 2 14.109375 2 13 Z M 17 13 L 17 13.75 C 17 14.859375 17.890625 15.75 19 15.75 L 28 15.75 C 29.109375 15.75 30 14.859375 30 13.75 L 30 13 C 30 14.109375 29.109375 15 28 15 L 19 15 C 17.890625 15 17 14.109375 17 13 Z M 2 28 L 2 28.75 C 2 29.859375 2.890625 30.75 4 30.75 L 13 30.75 C 14.109375 30.75 15 29.859375 15 28.75 L 15 28 C 15 29.109375 14.109375 30 13 30 L 4 30 C 2.890625 30 2 29.109375 2 28 Z M 17 28 L 17 28.75 C 17 29.859375 17.890625 30.75 19 30.75 L 28 30.75 C 29.109375 30.75 30 29.859375 30 28.75 L 30 28 C 30 29.109375 29.109375 30 28 30 L 19 30 C 17.890625 30 17 29.109375 17 28 Z M 17 28 "/>
</g>
</svg>
