
<svg xmlns="http://www.w3.org/2000/svg" xmlns:xlink="http://www.w3.org/1999/xlink" width="48" height="48" viewBox="0 0 48 48" version="1.1">
<defs>
<linearGradient id="linear0" gradientUnits="userSpaceOnUse" x1="31.999998" y1="59.999996" x2="31.999998" y2="4" gradientTransform="matrix(0.75,0,0,0.75,0,0.000000000000085265)">
<stop offset="0" style="stop-color:rgb(0%,0%,0%);stop-opacity:0.2;"/>
<stop offset="1" style="stop-color:rgb(100%,100%,100%);stop-opacity:0;"/>
</linearGradient>
</defs>
<g id="surface1">
<path style=" stroke:none;fill-rule:nonzero;fill:rgb(73.725492%,66.666669%,64.313728%);fill-opacity:1;" d="M 9 3 C 7.339844 3 6 4.339844 6 6 L 6 10.5 C 7.660156 10.5 9 11.839844 9 13.5 C 9 15.160156 7.660156 16.5 6 16.5 L 6 21 C 7.660156 21 9 22.339844 9 24 C 9 25.660156 7.660156 27 6 27 L 6 31.5 C 7.660156 31.5 9 32.839844 9 34.5 C 9 36.160156 7.660156 37.5 6 37.5 L 6 42 C 6 43.660156 7.339844 45 9 45 L 13.5 45 C 15.160156 45 16.5 43.660156 16.5 42 L 16.5 23.925781 L 31.5 38.925781 L 31.5 42 C 31.5 43.660156 32.839844 45 34.5 45 L 39 45 C 40.660156 45 42 43.660156 42 42 L 42 37.5 C 40.339844 37.5 39 36.160156 39 34.5 C 39 32.839844 40.339844 31.5 42 31.5 L 42 27 C 40.339844 27 39 25.660156 39 24 C 39 22.339844 40.339844 21 42 21 L 42 16.5 C 40.339844 16.5 39 15.160156 39 13.5 C 39 11.839844 40.339844 10.5 42 10.5 L 42 6 C 42 4.339844 40.660156 3 39 3 L 34.5 3 C 32.839844 3 31.5 4.339844 31.5 6 L 31.5 24.074219 L 16.5 9.074219 L 16.5 6 C 16.5 4.339844 15.160156 3 13.5 3 Z M 9 3 "/>
<path style=" stroke:none;fill-rule:nonzero;fill:rgb(0%,67.450982%,75.686276%);fill-opacity:0.996078;" d="M 6 10.5 C 7.660156 10.5 9 11.839844 9 13.5 C 9 15.160156 7.660156 16.5 6 16.5 L 23.925781 16.5 L 17.925781 10.5 Z M 31.5 10.5 L 31.5 16.5 L 42 16.5 C 40.339844 16.5 39 15.160156 39 13.5 C 39 11.839844 40.339844 10.5 42 10.5 Z M 6 21 C 7.660156 21 9 22.339844 9 24 C 9 25.660156 7.660156 27 6 27 L 16.5 27 L 16.5 23.925781 L 19.574219 27 L 42 27 C 40.339844 27 39 25.660156 39 24 C 39 22.339844 40.339844 21 42 21 L 31.5 21 L 31.5 24.074219 L 28.425781 21 Z M 6 31.5 C 7.660156 31.5 9 32.839844 9 34.5 C 9 36.160156 7.660156 37.5 6 37.5 L 16.5 37.5 L 16.5 31.5 Z M 24.074219 31.5 L 30.074219 37.5 L 42 37.5 C 40.339844 37.5 39 36.160156 39 34.5 C 39 32.839844 40.339844 31.5 42 31.5 Z M 24.074219 31.5 "/>
<path style=" stroke:none;fill-rule:nonzero;fill:rgb(63.137257%,53.333336%,49.803922%);fill-opacity:0.996078;" d="M 6 10.5 C 7.660156 10.5 9 11.839844 9 13.5 C 9 15.160156 7.660156 16.5 6 16.5 L 23.925781 16.5 L 17.925781 10.5 Z M 31.5 10.5 L 31.5 16.5 L 42 16.5 C 40.339844 16.5 39 15.160156 39 13.5 C 39 11.839844 40.339844 10.5 42 10.5 Z M 6 21 C 7.660156 21 9 22.339844 9 24 C 9 25.660156 7.660156 27 6 27 L 16.5 27 L 16.5 23.925781 L 19.574219 27 L 42 27 C 40.339844 27 39 25.660156 39 24 C 39 22.339844 40.339844 21 42 21 L 31.5 21 L 31.5 24.074219 L 28.425781 21 Z M 6 31.5 C 7.660156 31.5 9 32.839844 9 34.5 C 9 36.160156 7.660156 37.5 6 37.5 L 16.5 37.5 L 16.5 31.5 Z M 24.074219 31.5 L 30.074219 37.5 L 42 37.5 C 40.339844 37.5 39 36.160156 39 34.5 C 39 32.839844 40.339844 31.5 42 31.5 Z M 24.074219 31.5 "/>
<path style=" stroke:none;fill-rule:nonzero;fill:rgb(100%,100%,100%);fill-opacity:0.4;" d="M 9 3 C 7.339844 3 6 4.339844 6 6 L 6 6.75 C 6 5.089844 7.339844 3.75 9 3.75 L 13.5 3.75 C 15.160156 3.75 16.5 5.089844 16.5 6.75 L 16.5 6 C 16.5 4.339844 15.160156 3 13.5 3 Z M 34.5 3 C 32.839844 3 31.5 4.339844 31.5 6 L 31.5 6.75 C 31.5 5.089844 32.839844 3.75 34.5 3.75 L 39 3.75 C 40.660156 3.75 42 5.089844 42 6.75 L 42 6 C 42 4.339844 40.660156 3 39 3 Z M 16.5 9.074219 L 16.5 9.824219 L 17.175781 10.5 L 17.925781 10.5 Z M 17.550781 10.875 L 23.175781 16.5 L 7.980469 16.5 C 8.605469 15.949219 9 15.148438 9 14.25 C 9 14.121094 8.992188 13.992188 8.976562 13.871094 C 8.792969 15.355469 7.535156 16.5 6 16.5 L 6 17.25 C 6.527344 17.25 7.023438 17.113281 7.457031 16.875 L 23.550781 16.875 L 27.675781 21 L 28.425781 21 L 18.300781 10.875 Z M 39.023438 13.871094 C 39.007812 13.992188 39 14.121094 39 14.25 C 39 15.148438 39.394531 15.949219 40.019531 16.5 L 31.5 16.5 L 31.5 16.875 L 40.542969 16.875 C 40.976562 17.113281 41.472656 17.25 42 17.25 L 42 16.5 C 40.464844 16.5 39.207031 15.355469 39.023438 13.871094 Z M 28.050781 21.375 L 31.5 24.824219 L 31.5 24.074219 L 28.800781 21.375 Z M 8.976562 24.371094 C 8.792969 25.855469 7.535156 27 6 27 L 6 27.75 C 6.527344 27.75 7.023438 27.613281 7.457031 27.375 L 16.5 27.375 L 16.5 27 L 7.980469 27 C 8.605469 26.449219 9 25.648438 9 24.75 C 9 24.621094 8.992188 24.492188 8.976562 24.371094 Z M 39.023438 24.371094 C 39.007812 24.492188 39 24.621094 39 24.75 C 39 25.648438 39.394531 26.449219 40.019531 27 L 20.324219 27 L 20.699219 27.375 L 40.542969 27.375 C 40.976562 27.613281 41.472656 27.75 42 27.75 L 42 27 C 40.464844 27 39.207031 25.855469 39.023438 24.371094 Z M 8.976562 34.871094 C 8.792969 36.355469 7.535156 37.5 6 37.5 L 6 38.25 C 6.527344 38.25 7.023438 38.113281 7.457031 37.875 L 16.5 37.875 L 16.5 37.5 L 7.980469 37.5 C 8.605469 36.949219 9 36.148438 9 35.25 C 9 35.121094 8.992188 34.992188 8.976562 34.871094 Z M 39.023438 34.871094 C 39.007812 34.992188 39 35.121094 39 35.25 C 39 36.148438 39.394531 36.949219 40.019531 37.5 L 30.824219 37.5 L 31.199219 37.875 L 40.542969 37.875 C 40.976562 38.113281 41.472656 38.25 42 38.25 L 42 37.5 C 40.464844 37.5 39.207031 36.355469 39.023438 34.871094 Z M 39.023438 34.871094 "/>
<path style=" stroke:none;fill-rule:nonzero;fill:rgb(0%,0%,0%);fill-opacity:0.4;" d="M 6 9.75 L 6 10.5 C 6.117188 10.5 6.234375 10.507812 6.347656 10.523438 C 6.382812 10.527344 6.417969 10.53125 6.453125 10.539062 C 6.539062 10.550781 6.621094 10.566406 6.703125 10.585938 C 6.730469 10.59375 6.761719 10.597656 6.789062 10.605469 C 6.898438 10.636719 7 10.667969 7.101562 10.710938 C 8.105469 11.105469 8.839844 12.023438 8.976562 13.128906 C 8.992188 13.007812 9 12.878906 9 12.75 C 9 12.039062 8.753906 11.386719 8.34375 10.875 L 18.300781 10.875 L 17.925781 10.5 L 7.980469 10.5 C 7.453125 10.035156 6.761719 9.75 6 9.75 Z M 42 9.75 C 41.238281 9.75 40.546875 10.035156 40.019531 10.5 L 31.5 10.5 L 31.5 10.875 L 39.65625 10.875 C 39.246094 11.386719 39 12.039062 39 12.75 C 39 12.878906 39.007812 13.007812 39.023438 13.128906 C 39.160156 12.023438 39.894531 11.105469 40.898438 10.710938 C 41 10.667969 41.101562 10.636719 41.207031 10.605469 C 41.238281 10.597656 41.269531 10.59375 41.296875 10.585938 C 41.378906 10.566406 41.460938 10.550781 41.546875 10.539062 C 41.582031 10.53125 41.617188 10.527344 41.652344 10.523438 C 41.765625 10.507812 41.882812 10.5 42 10.5 Z M 6 20.25 L 6 21 C 6.117188 21 6.234375 21.007812 6.347656 21.023438 C 6.382812 21.027344 6.417969 21.03125 6.453125 21.039062 C 6.539062 21.050781 6.621094 21.066406 6.703125 21.085938 C 6.730469 21.09375 6.761719 21.097656 6.789062 21.105469 C 6.898438 21.136719 7 21.167969 7.101562 21.210938 C 8.105469 21.605469 8.839844 22.523438 8.976562 23.628906 C 8.992188 23.507812 9 23.378906 9 23.25 C 9 22.539062 8.753906 21.886719 8.34375 21.375 L 28.800781 21.375 L 28.425781 21 L 7.980469 21 C 7.453125 20.535156 6.761719 20.25 6 20.25 Z M 42 20.25 C 41.238281 20.25 40.546875 20.535156 40.019531 21 L 31.5 21 L 31.5 21.375 L 39.65625 21.375 C 39.246094 21.886719 39 22.539062 39 23.25 C 39 23.378906 39.007812 23.507812 39.023438 23.628906 C 39.160156 22.523438 39.894531 21.605469 40.898438 21.210938 C 41 21.167969 41.101562 21.136719 41.207031 21.105469 C 41.238281 21.097656 41.269531 21.09375 41.296875 21.085938 C 41.378906 21.066406 41.460938 21.050781 41.546875 21.039062 C 41.582031 21.03125 41.617188 21.027344 41.652344 21.023438 C 41.765625 21.007812 41.882812 21 42 21 Z M 16.5 23.175781 L 16.5 23.925781 L 31.5 38.925781 L 31.5 38.175781 L 25.199219 31.875 L 39.65625 31.875 C 39.246094 32.386719 39 33.039062 39 33.75 C 39 33.878906 39.007812 34.007812 39.023438 34.128906 C 39.160156 33.023438 39.894531 32.105469 40.898438 31.710938 C 41 31.667969 41.101562 31.636719 41.207031 31.605469 C 41.238281 31.597656 41.269531 31.59375 41.296875 31.585938 C 41.378906 31.566406 41.460938 31.550781 41.546875 31.539062 C 41.582031 31.53125 41.617188 31.527344 41.652344 31.523438 C 41.765625 31.507812 41.882812 31.5 42 31.5 L 42 30.75 C 41.238281 30.75 40.546875 31.035156 40.019531 31.5 L 24.824219 31.5 Z M 6 30.75 L 6 31.5 C 6.117188 31.5 6.234375 31.507812 6.347656 31.523438 C 6.382812 31.527344 6.417969 31.53125 6.453125 31.539062 C 6.539062 31.550781 6.621094 31.566406 6.703125 31.585938 C 6.730469 31.59375 6.761719 31.597656 6.789062 31.605469 C 6.898438 31.636719 7 31.667969 7.101562 31.710938 C 8.105469 32.105469 8.839844 33.023438 8.976562 34.128906 C 8.992188 34.007812 9 33.878906 9 33.75 C 9 33.039062 8.753906 32.386719 8.34375 31.875 L 16.5 31.875 L 16.5 31.5 L 7.980469 31.5 C 7.453125 31.035156 6.761719 30.75 6 30.75 Z M 6 41.25 L 6 42 C 6 43.660156 7.339844 45 9 45 L 13.5 45 C 15.160156 45 16.5 43.660156 16.5 42 L 16.5 41.25 C 16.5 42.910156 15.160156 44.25 13.5 44.25 L 9 44.25 C 7.339844 44.25 6 42.910156 6 41.25 Z M 31.5 41.25 L 31.5 42 C 31.5 43.660156 32.839844 45 34.5 45 L 39 45 C 40.660156 45 42 43.660156 42 42 L 42 41.25 C 42 42.910156 40.660156 44.25 39 44.25 L 34.5 44.25 C 32.839844 44.25 31.5 42.910156 31.5 41.25 Z M 31.5 41.25 "/>
<path style=" stroke:none;fill-rule:nonzero;fill:url(#linear0);" d="M 9 3 C 7.339844 3 6 4.339844 6 6 L 6 10.5 C 7.660156 10.5 9 11.839844 9 13.5 C 9 15.160156 7.660156 16.5 6 16.5 L 6 21 C 7.660156 21 9 22.339844 9 24 C 9 25.660156 7.660156 27 6 27 L 6 31.5 C 7.660156 31.5 9 32.839844 9 34.5 C 9 36.160156 7.660156 37.5 6 37.5 L 6 42 C 6 43.660156 7.339844 45 9 45 L 13.5 45 C 15.160156 45 16.5 43.660156 16.5 42 L 16.5 23.925781 L 31.5 38.925781 L 31.5 42 C 31.5 43.660156 32.839844 45 34.5 45 L 39 45 C 40.660156 45 42 43.660156 42 42 L 42 37.5 C 40.339844 37.5 39 36.160156 39 34.5 C 39 32.839844 40.339844 31.5 42 31.5 L 42 27 C 40.339844 27 39 25.660156 39 24 C 39 22.339844 40.339844 21 42 21 L 42 16.5 C 40.339844 16.5 39 15.160156 39 13.5 C 39 11.839844 40.339844 10.5 42 10.5 L 42 6 C 42 4.339844 40.660156 3 39 3 L 34.5 3 C 32.839844 3 31.5 4.339844 31.5 6 L 31.5 24.074219 L 16.5 9.074219 L 16.5 6 C 16.5 4.339844 15.160156 3 13.5 3 Z M 9 3 "/>
<path style=" stroke:none;fill-rule:nonzero;fill:rgb(0%,0%,0%);fill-opacity:0.2;" d="M 6 10.496094 L 6 11.621094 C 7.46875 11.621094 8.683594 12.664062 8.949219 14.058594 C 8.980469 13.875 9 13.6875 9 13.496094 C 9 11.832031 7.660156 10.496094 6 10.496094 Z M 42 10.496094 C 40.339844 10.496094 39 11.832031 39 13.496094 C 39 13.6875 39.019531 13.875 39.050781 14.058594 C 39.316406 12.664062 40.53125 11.621094 42 11.621094 Z M 6 20.996094 L 6 22.121094 C 7.46875 22.121094 8.683594 23.164062 8.949219 24.558594 C 8.980469 24.375 9 24.1875 9 23.996094 C 9 22.332031 7.660156 20.996094 6 20.996094 Z M 42 20.996094 C 40.339844 20.996094 39 22.332031 39 23.996094 C 39 24.1875 39.019531 24.375 39.050781 24.558594 C 39.316406 23.164062 40.53125 22.121094 42 22.121094 Z M 16.5 23.917969 L 16.5 25.042969 L 31.5 40.042969 L 31.5 38.917969 Z M 6 31.496094 L 6 32.621094 C 7.46875 32.621094 8.683594 33.664062 8.949219 35.058594 C 8.980469 34.875 9 34.6875 9 34.496094 C 9 32.832031 7.660156 31.496094 6 31.496094 Z M 42 31.496094 C 40.339844 31.496094 39 32.832031 39 34.496094 C 39 34.6875 39.019531 34.875 39.050781 35.058594 C 39.316406 33.664062 40.53125 32.621094 42 32.621094 Z M 6 41.996094 L 6 43.121094 C 6 44.78125 7.339844 46.121094 9 46.121094 L 13.5 46.121094 C 15.160156 46.121094 16.5 44.78125 16.5 43.121094 L 16.5 41.996094 C 16.5 43.65625 15.160156 44.996094 13.5 44.996094 L 9 44.996094 C 7.339844 44.996094 6 43.65625 6 41.996094 Z M 31.5 41.996094 L 31.5 43.121094 C 31.5 44.78125 32.839844 46.121094 34.5 46.121094 L 39 46.121094 C 40.660156 46.121094 42 44.78125 42 43.121094 L 42 41.996094 C 42 43.65625 40.660156 44.996094 39 44.996094 L 34.5 44.996094 C 32.839844 44.996094 31.5 43.65625 31.5 41.996094 Z M 31.5 41.996094 "/>
</g>
</svg>
