
<svg xmlns="http://www.w3.org/2000/svg" xmlns:xlink="http://www.w3.org/1999/xlink" width="16" height="16" viewBox="0 0 16 16" version="1.1">
<defs>
<linearGradient id="linear0" gradientUnits="userSpaceOnUse" x1="8.466666" y1="-201.241669" x2="8.466666" y2="-212.883331" gradientTransform="matrix(0.944882,0,0,0.944882,-1,203.649617)">
<stop offset="0" style="stop-color:rgb(0%,0%,0%);stop-opacity:0.2;"/>
<stop offset="1" style="stop-color:rgb(100%,100%,100%);stop-opacity:0;"/>
</linearGradient>
</defs>
<g id="surface1">
<path style=" stroke:none;fill-rule:nonzero;fill:rgb(100%,100%,100%);fill-opacity:0.4;" d="M 8 7 L 1.304688 13.21875 C 1.324219 13.238281 1.347656 13.257812 1.371094 13.277344 L 8 7.125 L 14.628906 13.277344 C 14.652344 13.257812 14.675781 13.238281 14.695312 13.21875 Z M 8 7 "/>
<path style=" stroke:none;fill-rule:nonzero;fill:rgb(74.117649%,74.117649%,74.117649%);fill-opacity:1;" d="M 2 2.5 L 14 2.5 C 14.550781 2.5 15 2.949219 15 3.5 L 15 12.5 C 15 13.050781 14.550781 13.5 14 13.5 L 2 13.5 C 1.449219 13.5 1 13.050781 1 12.5 L 1 3.5 C 1 2.949219 1.449219 2.5 2 2.5 Z M 2 2.5 "/>
<path style=" stroke:none;fill-rule:nonzero;fill:rgb(61.960787%,61.960787%,61.960787%);fill-opacity:1;" d="M 8 7 L 1.304688 13.21875 C 1.484375 13.390625 1.726562 13.5 2 13.5 L 14 13.5 C 14.273438 13.5 14.515625 13.390625 14.695312 13.21875 Z M 8 7 "/>
<path style=" stroke:none;fill-rule:nonzero;fill:rgb(0.392157%,0.392157%,0.392157%);fill-opacity:0.4;" d="M 8 6.972656 L 1.429688 13.070312 C 1.457031 13.089844 1.480469 13.105469 1.507812 13.121094 L 8 7.097656 L 14.492188 13.121094 C 14.519531 13.105469 14.542969 13.089844 14.570312 13.070312 Z M 8 6.972656 "/>
<path style=" stroke:none;fill-rule:nonzero;fill:rgb(87.843138%,87.843138%,87.843138%);fill-opacity:1;" d="M 7.480469 8.519531 L 1.304688 2.78125 C 1.484375 2.609375 1.726562 2.5 2 2.5 L 14 2.5 C 14.273438 2.5 14.515625 2.609375 14.695312 2.78125 L 8.519531 8.519531 C 8.226562 8.789062 7.773438 8.789062 7.480469 8.519531 Z M 7.480469 8.519531 "/>
<path style=" stroke:none;fill-rule:nonzero;fill:rgb(100%,100%,100%);fill-opacity:0.4;" d="M 2 2.507812 C 1.445312 2.507812 1 2.953125 1 3.507812 L 1 3.75 C 1 3.195312 1.445312 2.75 2 2.75 L 14 2.75 C 14.554688 2.75 15 3.195312 15 3.75 L 15 3.507812 C 15 2.953125 14.554688 2.507812 14 2.507812 Z M 2 2.507812 "/>
<path style=" stroke:none;fill-rule:nonzero;fill:rgb(0.392157%,0.392157%,0.392157%);fill-opacity:0.4;" d="M 2 13.492188 C 1.445312 13.492188 1 13.046875 1 12.492188 L 1 12.25 C 1 12.804688 1.445312 13.25 2 13.25 L 14 13.25 C 14.554688 13.25 15 12.804688 15 12.25 L 15 12.492188 C 15 13.046875 14.554688 13.492188 14 13.492188 Z M 2 13.492188 "/>
<path style=" stroke:none;fill-rule:nonzero;fill:rgb(0%,0%,0%);fill-opacity:0.2;" d="M 1 12.492188 L 1 12.867188 C 1 13.421875 1.445312 13.867188 2 13.867188 L 14 13.867188 C 14.554688 13.867188 15 13.421875 15 12.867188 L 15 12.492188 C 15 13.046875 14.554688 13.492188 14 13.492188 L 2 13.492188 C 1.445312 13.492188 1 13.046875 1 12.492188 Z M 1 12.492188 "/>
<path style=" stroke:none;fill-rule:nonzero;fill:rgb(0%,0%,0%);fill-opacity:0.2;" d="M 1.449219 2.914062 C 1.398438 2.949219 1.347656 2.988281 1.304688 3.03125 L 7.484375 8.769531 C 7.773438 9.039062 8.226562 9.039062 8.515625 8.769531 L 14.695312 3.03125 C 14.652344 2.988281 14.601562 2.949219 14.550781 2.914062 L 8.515625 8.515625 C 8.226562 8.789062 7.773438 8.789062 7.484375 8.515625 Z M 1.449219 2.914062 "/>
<path style=" stroke:none;fill-rule:nonzero;fill:url(#linear0);" d="M 2 2.5 L 14 2.5 C 14.550781 2.5 15 2.949219 15 3.5 L 15 12.5 C 15 13.050781 14.550781 13.5 14 13.5 L 2 13.5 C 1.449219 13.5 1 13.050781 1 12.5 L 1 3.5 C 1 2.949219 1.449219 2.5 2 2.5 Z M 2 2.5 "/>
</g>
</svg>
