
<svg xmlns="http://www.w3.org/2000/svg" xmlns:xlink="http://www.w3.org/1999/xlink" width="16" height="16" viewBox="0 0 16 16" version="1.1">
<defs>
<linearGradient id="linear0" gradientUnits="userSpaceOnUse" x1="10.054166" y1="-199.125" x2="10.054166" y2="-213.941666" gradientTransform="matrix(0.944882,0,0,0.944882,-0.000316144,203.149617)">
<stop offset="0" style="stop-color:rgb(0%,0%,0%);stop-opacity:0.2;"/>
<stop offset="1" style="stop-color:rgb(100%,100%,100%);stop-opacity:0;"/>
</linearGradient>
</defs>
<g id="surface1">
<path style=" stroke:none;fill-rule:nonzero;fill:rgb(25.882354%,64.705884%,96.078432%);fill-opacity:1;" d="M 2 1 L 14 1 C 14.550781 1 15 1.449219 15 2 L 15 14 C 15 14.550781 14.550781 15 14 15 L 2 15 C 1.449219 15 1 14.550781 1 14 L 1 2 C 1 1.449219 1.449219 1 2 1 Z M 2 1 "/>
<path style=" stroke:none;fill-rule:nonzero;fill:rgb(0%,0%,0%);fill-opacity:0.4;" d="M 1 13.75 L 1 14 C 1 14.554688 1.445312 15 2 15 L 14 15 C 14.554688 15 15 14.554688 15 14 L 15 13.75 C 15 14.304688 14.554688 14.75 14 14.75 L 2 14.75 C 1.445312 14.75 1 14.304688 1 13.75 Z M 1 13.75 "/>
<path style=" stroke:none;fill-rule:nonzero;fill:rgb(0%,0%,0%);fill-opacity:0.2;" d="M 1 14 L 1 14.375 C 1 14.929688 1.445312 15.375 2 15.375 L 14 15.375 C 14.554688 15.375 15 14.929688 15 14.375 L 15 14 C 15 14.554688 14.554688 15 14 15 L 2 15 C 1.445312 15 1 14.554688 1 14 Z M 1 14 "/>
<path style=" stroke:none;fill-rule:nonzero;fill:rgb(100%,100%,100%);fill-opacity:0.4;" d="M 2 1 C 1.445312 1 1 1.445312 1 2 L 1 2.246094 C 1 1.691406 1.445312 1.246094 2 1.246094 L 14 1.246094 C 14.554688 1.246094 15 1.691406 15 2.246094 L 15 2 C 15 1.445312 14.554688 1 14 1 Z M 2 1 "/>
<path style=" stroke:none;fill-rule:nonzero;fill:rgb(93.333334%,93.333334%,93.333334%);fill-opacity:1;" d="M 8 5 C 6.339844 5 5 6.339844 5 8 C 5 9.660156 6.339844 11 8 11 C 9.660156 11 11 9.660156 11 8 C 11 6.339844 9.660156 5 8 5 Z M 8 6 C 9.109375 6 10 6.890625 10 8 C 10 9.109375 9.109375 10 8 10 C 6.890625 10 6 9.109375 6 8 C 6 6.890625 6.890625 6 8 6 Z M 8 6 "/>
<path style=" stroke:none;fill-rule:nonzero;fill:rgb(93.333334%,93.333334%,93.333334%);fill-opacity:1;" d="M 3.375 6 C 2.265625 6 1.375 6.890625 1.375 8 C 1.375 9.109375 2.265625 10 3.375 10 C 4.484375 10 5.375 9.109375 5.375 8 C 5.375 6.890625 4.484375 6 3.375 6 Z M 3.375 7 C 3.929688 7 4.375 7.445312 4.375 8 C 4.375 8.554688 3.929688 9 3.375 9 C 2.820312 9 2.375 8.554688 2.375 8 C 2.375 7.445312 2.820312 7 3.375 7 Z M 3.375 7 "/>
<path style=" stroke:none;fill-rule:nonzero;fill:rgb(93.333334%,93.333334%,93.333334%);fill-opacity:1;" d="M 12.621094 6 C 11.511719 6 10.621094 6.890625 10.621094 8 C 10.621094 9.109375 11.511719 10 12.621094 10 C 13.730469 10 14.621094 9.109375 14.621094 8 C 14.621094 6.890625 13.730469 6 12.621094 6 Z M 12.621094 7 C 13.175781 7 13.621094 7.445312 13.621094 8 C 13.621094 8.554688 13.175781 9 12.621094 9 C 12.066406 9 11.621094 8.554688 11.621094 8 C 11.621094 7.445312 12.066406 7 12.621094 7 Z M 12.621094 7 "/>
<path style=" stroke:none;fill-rule:nonzero;fill:rgb(0%,0%,0%);fill-opacity:0.4;" d="M 8 6 C 6.890625 6 6 6.890625 6 8 C 6 8.042969 6 8.082031 6.003906 8.125 C 6.066406 7.074219 6.933594 6.25 8 6.25 C 9.066406 6.25 9.933594 7.074219 9.996094 8.125 C 10 8.082031 10 8.042969 10 8 C 10 6.890625 9.109375 6 8 6 Z M 3.375 7 C 2.820312 7 2.375 7.445312 2.375 8 C 2.375 8.042969 2.378906 8.085938 2.382812 8.125 C 2.445312 7.628906 2.863281 7.25 3.375 7.25 C 3.886719 7.25 4.304688 7.628906 4.367188 8.125 C 4.371094 8.085938 4.375 8.042969 4.375 8 C 4.375 7.445312 3.929688 7 3.375 7 Z M 12.621094 7 C 12.066406 7 11.621094 7.445312 11.621094 8 C 11.621094 8.042969 11.625 8.085938 11.628906 8.125 C 11.691406 7.628906 12.109375 7.25 12.621094 7.25 C 13.132812 7.25 13.550781 7.628906 13.613281 8.125 C 13.617188 8.085938 13.621094 8.042969 13.621094 8 C 13.621094 7.445312 13.175781 7 12.621094 7 Z M 1.378906 8.125 C 1.375 8.167969 1.375 8.207031 1.375 8.25 C 1.375 9.359375 2.265625 10.25 3.375 10.25 C 4.144531 10.25 4.8125 9.816406 5.148438 9.179688 C 5.535156 10.382812 6.664062 11.25 8 11.25 C 9.335938 11.25 10.460938 10.386719 10.851562 9.183594 C 11.1875 9.820312 11.851562 10.25 12.621094 10.25 C 13.730469 10.25 14.621094 9.359375 14.621094 8.25 C 14.621094 8.207031 14.621094 8.167969 14.617188 8.125 C 14.554688 9.175781 13.6875 10 12.621094 10 C 11.851562 10 11.1875 9.570312 10.851562 8.933594 C 10.460938 10.136719 9.335938 11 8 11 C 6.664062 11 5.535156 10.132812 5.148438 8.929688 C 4.8125 9.566406 4.144531 10 3.375 10 C 2.308594 10 1.441406 9.175781 1.378906 8.125 Z M 1.378906 8.125 "/>
<path style=" stroke:none;fill-rule:nonzero;fill:rgb(100%,100%,100%);fill-opacity:0.6;" d="M 8 5 C 6.664062 5 5.535156 5.867188 5.148438 7.070312 C 4.8125 6.433594 4.144531 6 3.375 6 C 2.265625 6 1.375 6.890625 1.375 8 C 1.375 8.035156 1.378906 8.074219 1.378906 8.109375 C 1.453125 7.066406 2.316406 6.25 3.375 6.25 C 4.144531 6.25 4.8125 6.683594 5.148438 7.320312 C 5.535156 6.117188 6.664062 5.25 8 5.25 C 9.335938 5.25 10.460938 6.113281 10.851562 7.316406 C 11.1875 6.679688 11.851562 6.25 12.621094 6.25 C 13.683594 6.25 14.542969 7.066406 14.617188 8.109375 C 14.617188 8.074219 14.621094 8.035156 14.621094 8 C 14.621094 6.890625 13.730469 6 12.621094 6 C 11.851562 6 11.1875 6.429688 10.851562 7.066406 C 10.460938 5.863281 9.335938 5 8 5 Z M 6.003906 8.109375 C 6.003906 8.15625 6 8.203125 6 8.25 C 6 9.359375 6.890625 10.25 8 10.25 C 9.109375 10.25 10 9.359375 10 8.25 C 10 8.203125 9.996094 8.15625 9.996094 8.109375 C 9.9375 9.164062 9.070312 10 8 10 C 6.929688 10 6.0625 9.164062 6.003906 8.109375 Z M 2.382812 8.125 C 2.378906 8.164062 2.375 8.207031 2.375 8.25 C 2.375 8.804688 2.820312 9.25 3.375 9.25 C 3.929688 9.25 4.375 8.804688 4.375 8.25 C 4.375 8.207031 4.371094 8.164062 4.367188 8.125 C 4.304688 8.617188 3.886719 9 3.375 9 C 2.863281 9 2.445312 8.617188 2.382812 8.125 Z M 11.628906 8.125 C 11.625 8.164062 11.621094 8.207031 11.621094 8.25 C 11.621094 8.804688 12.066406 9.25 12.621094 9.25 C 13.175781 9.25 13.621094 8.804688 13.621094 8.25 C 13.621094 8.207031 13.617188 8.164062 13.613281 8.125 C 13.554688 8.617188 13.132812 9 12.621094 9 C 12.109375 9 11.691406 8.617188 11.628906 8.125 Z M 11.628906 8.125 "/>
<path style=" stroke:none;fill-rule:nonzero;fill:url(#linear0);" d="M 2 1 L 14 1 C 14.550781 1 15 1.449219 15 2 L 15 14 C 15 14.550781 14.550781 15 14 15 L 2 15 C 1.449219 15 1 14.550781 1 14 L 1 2 C 1 1.449219 1.449219 1 2 1 Z M 2 1 "/>
</g>
</svg>
