
<svg xmlns="http://www.w3.org/2000/svg" xmlns:xlink="http://www.w3.org/1999/xlink" width="16" height="16" viewBox="0 0 16 16" version="1.1">
<defs>
<linearGradient id="linear0" gradientUnits="userSpaceOnUse" x1="2.645833" y1="-211.03125" x2="14.287498" y2="-211.03125" gradientTransform="matrix(1.116679,0,0,0.472446,-1.454545,103.325928)">
<stop offset="0" style="stop-color:rgb(100%,100%,100%);stop-opacity:0;"/>
<stop offset="0.498862" style="stop-color:rgb(100%,100%,100%);stop-opacity:0.2;"/>
<stop offset="1" style="stop-color:rgb(95.686275%,26.274511%,21.176471%);stop-opacity:0;"/>
</linearGradient>
<linearGradient id="linear1" gradientUnits="userSpaceOnUse" x1="8.466666" y1="-200.183334" x2="8.466666" y2="-212.883331" gradientTransform="matrix(0.944882,0,0,0.944882,-1.000002,203.149617)">
<stop offset="0" style="stop-color:rgb(0%,0%,0%);stop-opacity:0.2;"/>
<stop offset="1" style="stop-color:rgb(100%,100%,100%);stop-opacity:0;"/>
</linearGradient>
<linearGradient id="linear2" gradientUnits="userSpaceOnUse" x1="9.657291" y1="-204.416672" x2="9.657291" y2="-208.649994" gradientTransform="matrix(0.944882,0,0,0.944882,-3.625001,201.37276)">
<stop offset="0" style="stop-color:rgb(0%,0%,0%);stop-opacity:0.2;"/>
<stop offset="1" style="stop-color:rgb(100%,100%,100%);stop-opacity:0;"/>
</linearGradient>
<linearGradient id="linear3" gradientUnits="userSpaceOnUse" x1="12.165949" y1="-199.12706" x2="12.165949" y2="-207.06456" gradientTransform="matrix(0.944882,0,0,0.944882,0.000221065,202.15158)">
<stop offset="0" style="stop-color:rgb(0%,0%,0%);stop-opacity:0.2;"/>
<stop offset="1" style="stop-color:rgb(100%,100%,100%);stop-opacity:0;"/>
</linearGradient>
</defs>
<g id="surface1">
<path style=" stroke:none;fill-rule:nonzero;fill:rgb(38.039216%,38.039216%,38.039216%);fill-opacity:1;" d="M 2 2 L 14 2 C 14.550781 2 15 2.449219 15 3 L 15 13 C 15 13.550781 14.550781 14 14 14 L 2 14 C 1.449219 14 1 13.550781 1 13 L 1 3 C 1 2.449219 1.449219 2 2 2 Z M 2 2 "/>
<path style=" stroke:none;fill-rule:nonzero;fill:url(#linear0);" d="M 8 3.5 C 4.398438 3.5 1.5 3.554688 1.5 3.625 C 1.5 3.695312 4.398438 3.75 8 3.75 C 11.601562 3.75 14.5 3.695312 14.5 3.625 C 14.5 3.554688 11.601562 3.5 8 3.5 Z M 8 4.25 C 4.398438 4.25 1.5 4.304688 1.5 4.375 C 1.5 4.445312 4.398438 4.5 8 4.5 C 11.601562 4.5 14.5 4.445312 14.5 4.375 C 14.5 4.304688 11.601562 4.25 8 4.25 Z M 8 5 C 4.398438 5 1.5 5.054688 1.5 5.125 C 1.5 5.195312 4.398438 5.25 8 5.25 C 11.601562 5.25 14.5 5.195312 14.5 5.125 C 14.5 5.054688 11.601562 5 8 5 Z M 8 5.75 C 4.398438 5.75 1.5 5.804688 1.5 5.875 C 1.5 5.945312 4.398438 6 8 6 C 11.601562 6 14.5 5.945312 14.5 5.875 C 14.5 5.804688 11.601562 5.75 8 5.75 Z M 8 6.5 C 4.398438 6.5 1.5 6.554688 1.5 6.625 C 1.5 6.695312 4.398438 6.75 8 6.75 C 11.601562 6.75 14.5 6.695312 14.5 6.625 C 14.5 6.554688 11.601562 6.5 8 6.5 Z M 8 7.25 C 4.398438 7.25 1.5 7.304688 1.5 7.375 C 1.5 7.445312 4.398438 7.5 8 7.5 C 11.601562 7.5 14.5 7.445312 14.5 7.375 C 14.5 7.304688 11.601562 7.25 8 7.25 Z M 8 8 C 4.398438 8 1.5 8.054688 1.5 8.125 C 1.5 8.195312 4.398438 8.25 8 8.25 C 11.601562 8.25 14.5 8.195312 14.5 8.125 C 14.5 8.054688 11.601562 8 8 8 Z M 8 8.75 C 4.398438 8.75 1.5 8.804688 1.5 8.875 C 1.5 8.945312 4.398438 9 8 9 C 11.601562 9 14.5 8.945312 14.5 8.875 C 14.5 8.804688 11.601562 8.75 8 8.75 Z M 8 9.5 C 4.398438 9.5 1.5 9.554688 1.5 9.625 C 1.5 9.695312 4.398438 9.75 8 9.75 C 11.601562 9.75 14.5 9.695312 14.5 9.625 C 14.5 9.554688 11.601562 9.5 8 9.5 Z M 8 10.25 C 4.398438 10.25 1.5 10.304688 1.5 10.375 C 1.5 10.445312 4.398438 10.5 8 10.5 C 11.601562 10.5 14.5 10.445312 14.5 10.375 C 14.5 10.304688 11.601562 10.25 8 10.25 Z M 8 11 C 4.398438 11 1.5 11.054688 1.5 11.125 C 1.5 11.195312 4.398438 11.25 8 11.25 C 11.601562 11.25 14.5 11.195312 14.5 11.125 C 14.5 11.054688 11.601562 11 8 11 Z M 8 11.75 C 4.398438 11.75 1.5 11.804688 1.5 11.875 C 1.5 11.945312 4.398438 12 8 12 C 11.601562 12 14.5 11.945312 14.5 11.875 C 14.5 11.804688 11.601562 11.75 8 11.75 Z M 8 12.5 C 4.398438 12.5 1.5 12.554688 1.5 12.625 C 1.5 12.695312 4.398438 12.75 8 12.75 C 11.601562 12.75 14.5 12.695312 14.5 12.625 C 14.5 12.554688 11.601562 12.5 8 12.5 Z M 8 12.5 "/>
<path style=" stroke:none;fill-rule:nonzero;fill:url(#linear1);" d="M 2 2 L 14 2 C 14.550781 2 15 2.449219 15 3 L 15 13 C 15 13.550781 14.550781 14 14 14 L 2 14 C 1.449219 14 1 13.550781 1 13 L 1 3 C 1 2.449219 1.449219 2 2 2 Z M 2 2 "/>
<path style=" stroke:none;fill-rule:nonzero;fill:rgb(87.843138%,87.843138%,87.843138%);fill-opacity:1;" d="M 3.625 4.222656 C 3.554688 4.222656 3.5 4.277344 3.5 4.347656 L 3.5 4.746094 C 2.988281 4.835938 2.65625 5.195312 2.65625 5.597656 C 2.65625 6 2.988281 6.359375 3.5 6.449219 L 3.5 7.179688 C 3.300781 7.105469 3.207031 6.960938 3.207031 6.960938 C 3.171875 6.90625 3.113281 6.867188 3.050781 6.851562 C 2.984375 6.839844 2.917969 6.851562 2.859375 6.890625 C 2.804688 6.925781 2.765625 6.984375 2.753906 7.046875 C 2.742188 7.113281 2.753906 7.179688 2.789062 7.238281 C 2.789062 7.238281 3.039062 7.589844 3.5 7.695312 L 3.5 8.097656 C 3.5 8.167969 3.554688 8.222656 3.625 8.222656 L 3.875 8.222656 C 3.945312 8.222656 4 8.167969 4 8.097656 L 4 7.703125 C 4.515625 7.613281 4.84375 7.25 4.84375 6.847656 C 4.84375 6.449219 4.515625 6.085938 4 5.996094 L 4 5.265625 C 4.199219 5.34375 4.292969 5.488281 4.292969 5.488281 C 4.367188 5.601562 4.523438 5.632812 4.636719 5.554688 C 4.753906 5.480469 4.785156 5.324219 4.707031 5.210938 C 4.707031 5.210938 4.460938 4.855469 4 4.753906 L 4 4.347656 C 4 4.277344 3.945312 4.222656 3.875 4.222656 Z M 3.5 5.25 L 3.5 5.945312 C 3.238281 5.882812 3.15625 5.726562 3.15625 5.597656 C 3.15625 5.46875 3.238281 5.3125 3.5 5.25 Z M 4 6.5 C 4.261719 6.5625 4.34375 6.722656 4.34375 6.847656 C 4.34375 6.976562 4.261719 7.136719 4 7.195312 Z M 5.125 7.722656 C 5.054688 7.722656 5 7.777344 5 7.847656 L 5 8.097656 C 5 8.167969 5.054688 8.222656 5.125 8.222656 L 6.375 8.222656 C 6.445312 8.222656 6.5 8.167969 6.5 8.097656 L 6.5 7.847656 C 6.5 7.777344 6.445312 7.722656 6.375 7.722656 Z M 5.125 7.722656 "/>
<path style=" stroke:none;fill-rule:nonzero;fill:url(#linear2);" d="M 3.625 4.222656 C 3.554688 4.222656 3.5 4.277344 3.5 4.347656 L 3.5 4.746094 C 2.988281 4.835938 2.65625 5.195312 2.65625 5.597656 C 2.65625 6 2.988281 6.359375 3.5 6.449219 L 3.5 7.179688 C 3.300781 7.105469 3.207031 6.960938 3.207031 6.960938 C 3.171875 6.90625 3.113281 6.867188 3.050781 6.851562 C 2.984375 6.839844 2.917969 6.851562 2.859375 6.890625 C 2.804688 6.925781 2.765625 6.984375 2.753906 7.046875 C 2.742188 7.113281 2.753906 7.179688 2.789062 7.238281 C 2.789062 7.238281 3.039062 7.589844 3.5 7.695312 L 3.5 8.097656 C 3.5 8.167969 3.554688 8.222656 3.625 8.222656 L 3.875 8.222656 C 3.945312 8.222656 4 8.167969 4 8.097656 L 4 7.703125 C 4.515625 7.613281 4.84375 7.25 4.84375 6.847656 C 4.84375 6.449219 4.515625 6.085938 4 5.996094 L 4 5.265625 C 4.199219 5.34375 4.292969 5.488281 4.292969 5.488281 C 4.367188 5.601562 4.523438 5.632812 4.636719 5.554688 C 4.753906 5.480469 4.785156 5.324219 4.707031 5.210938 C 4.707031 5.210938 4.460938 4.855469 4 4.753906 L 4 4.347656 C 4 4.277344 3.945312 4.222656 3.875 4.222656 Z M 3.5 5.25 L 3.5 5.945312 C 3.238281 5.882812 3.15625 5.726562 3.15625 5.597656 C 3.15625 5.46875 3.238281 5.3125 3.5 5.25 Z M 4 6.5 C 4.261719 6.5625 4.34375 6.722656 4.34375 6.847656 C 4.34375 6.976562 4.261719 7.136719 4 7.195312 Z M 5.125 7.722656 C 5.054688 7.722656 5 7.777344 5 7.847656 L 5 8.097656 C 5 8.167969 5.054688 8.222656 5.125 8.222656 L 6.375 8.222656 C 6.445312 8.222656 6.5 8.167969 6.5 8.097656 L 6.5 7.847656 C 6.5 7.777344 6.445312 7.722656 6.375 7.722656 Z M 5.125 7.722656 "/>
<path style=" stroke:none;fill-rule:nonzero;fill:rgb(0%,0%,0%);fill-opacity:0.4;" d="M 3.5 5.25 C 3.238281 5.3125 3.15625 5.46875 3.15625 5.597656 C 3.15625 5.617188 3.164062 5.640625 3.167969 5.660156 C 3.191406 5.546875 3.277344 5.425781 3.5 5.375 Z M 4 5.265625 L 4 5.390625 C 4.199219 5.46875 4.292969 5.613281 4.292969 5.613281 C 4.367188 5.726562 4.523438 5.757812 4.636719 5.679688 C 4.726562 5.621094 4.769531 5.511719 4.742188 5.410156 C 4.726562 5.46875 4.6875 5.519531 4.636719 5.554688 C 4.523438 5.632812 4.367188 5.601562 4.292969 5.488281 C 4.292969 5.488281 4.199219 5.34375 4 5.265625 Z M 2.664062 5.660156 C 2.660156 5.679688 2.65625 5.703125 2.65625 5.722656 C 2.65625 6.125 2.988281 6.484375 3.5 6.574219 L 3.5 6.449219 C 3.011719 6.363281 2.695312 6.035156 2.664062 5.660156 Z M 4 6.5 L 4 6.625 C 4.222656 6.675781 4.308594 6.796875 4.332031 6.910156 C 4.335938 6.890625 4.34375 6.871094 4.34375 6.847656 C 4.34375 6.722656 4.261719 6.5625 4 6.5 Z M 4.835938 6.910156 C 4.804688 7.285156 4.488281 7.617188 4 7.703125 L 4 7.828125 C 4.515625 7.738281 4.84375 7.375 4.84375 6.972656 C 4.84375 6.953125 4.839844 6.933594 4.835938 6.910156 Z M 2.757812 7.160156 C 2.738281 7.230469 2.75 7.300781 2.792969 7.363281 C 2.792969 7.363281 3.039062 7.714844 3.5 7.820312 L 3.5 7.695312 C 3.039062 7.589844 2.792969 7.238281 2.792969 7.238281 C 2.777344 7.214844 2.765625 7.1875 2.757812 7.160156 Z M 3.5 8.097656 L 3.5 8.222656 C 3.5 8.292969 3.554688 8.347656 3.625 8.347656 L 3.875 8.347656 C 3.945312 8.347656 4 8.292969 4 8.222656 L 4 8.097656 C 4 8.167969 3.945312 8.222656 3.875 8.222656 L 3.625 8.222656 C 3.554688 8.222656 3.5 8.167969 3.5 8.097656 Z M 5 8.097656 L 5 8.222656 C 5 8.292969 5.054688 8.347656 5.125 8.347656 L 6.375 8.347656 C 6.445312 8.347656 6.5 8.292969 6.5 8.222656 L 6.5 8.097656 C 6.5 8.167969 6.445312 8.222656 6.375 8.222656 L 5.125 8.222656 C 5.054688 8.222656 5 8.167969 5 8.097656 Z M 5 8.097656 "/>
<path style=" stroke:none;fill-rule:nonzero;fill:rgb(99.607843%,99.607843%,99.607843%);fill-opacity:0.4;" d="M 3.625 4.222656 C 3.554688 4.222656 3.5 4.277344 3.5 4.347656 L 3.5 4.472656 C 3.5 4.402344 3.554688 4.347656 3.625 4.347656 L 3.875 4.347656 C 3.945312 4.347656 4 4.402344 4 4.472656 L 4 4.347656 C 4 4.277344 3.945312 4.222656 3.875 4.222656 Z M 3.5 4.746094 C 2.988281 4.835938 2.65625 5.195312 2.65625 5.597656 C 2.65625 5.617188 2.660156 5.640625 2.664062 5.660156 C 2.695312 5.285156 3.011719 4.957031 3.5 4.871094 Z M 4 4.753906 L 4 4.878906 C 4.460938 4.980469 4.707031 5.335938 4.707031 5.335938 C 4.722656 5.359375 4.734375 5.382812 4.742188 5.410156 C 4.757812 5.339844 4.746094 5.269531 4.707031 5.210938 C 4.707031 5.210938 4.460938 4.855469 4 4.753906 Z M 3.167969 5.660156 C 3.164062 5.679688 3.15625 5.703125 3.15625 5.722656 C 3.15625 5.851562 3.238281 6.007812 3.5 6.070312 L 3.5 5.945312 C 3.277344 5.894531 3.191406 5.773438 3.167969 5.660156 Z M 4 5.996094 L 4 6.121094 C 4.488281 6.203125 4.804688 6.535156 4.835938 6.910156 C 4.839844 6.890625 4.84375 6.871094 4.84375 6.847656 C 4.84375 6.449219 4.515625 6.085938 4 5.996094 Z M 2.992188 6.847656 C 2.945312 6.847656 2.902344 6.863281 2.859375 6.890625 C 2.773438 6.949219 2.730469 7.058594 2.757812 7.160156 C 2.773438 7.101562 2.808594 7.046875 2.859375 7.015625 C 2.917969 6.976562 2.984375 6.964844 3.050781 6.976562 C 3.113281 6.992188 3.171875 7.03125 3.207031 7.085938 C 3.207031 7.085938 3.300781 7.230469 3.5 7.304688 L 3.5 7.179688 C 3.300781 7.105469 3.207031 6.960938 3.207031 6.960938 C 3.160156 6.886719 3.078125 6.847656 2.992188 6.847656 Z M 4.332031 6.910156 C 4.308594 7.023438 4.222656 7.144531 4 7.195312 L 4 7.320312 C 4.261719 7.261719 4.34375 7.101562 4.34375 6.972656 C 4.34375 6.953125 4.335938 6.933594 4.332031 6.910156 Z M 5.125 7.722656 C 5.054688 7.722656 5 7.777344 5 7.847656 L 5 7.972656 C 5 7.902344 5.054688 7.847656 5.125 7.847656 L 6.375 7.847656 C 6.445312 7.847656 6.5 7.902344 6.5 7.972656 L 6.5 7.847656 C 6.5 7.777344 6.445312 7.722656 6.375 7.722656 Z M 5.125 7.722656 "/>
<path style=" stroke:none;fill-rule:nonzero;fill:rgb(0%,0%,0%);fill-opacity:0.4;" d="M 1.75 2.5 C 1.886719 2.5 2 2.613281 2 2.75 C 2 2.886719 1.886719 3 1.75 3 C 1.613281 3 1.5 2.886719 1.5 2.75 C 1.5 2.613281 1.613281 2.5 1.75 2.5 Z M 1.75 2.5 "/>
<path style=" stroke:none;fill-rule:nonzero;fill:rgb(0%,0%,0%);fill-opacity:0.4;" d="M 1.75 2.5 C 1.613281 2.5 1.5 2.613281 1.5 2.75 C 1.5 2.773438 1.507812 2.792969 1.511719 2.8125 C 1.539062 2.707031 1.632812 2.625 1.75 2.625 C 1.867188 2.625 1.960938 2.707031 1.988281 2.8125 C 1.992188 2.792969 2 2.773438 2 2.75 C 2 2.613281 1.886719 2.5 1.75 2.5 Z M 1.75 2.5 "/>
<path style=" stroke:none;fill-rule:nonzero;fill:rgb(100%,100%,100%);fill-opacity:0.4;" d="M 1.75 3.125 C 1.613281 3.125 1.5 3.011719 1.5 2.875 C 1.5 2.851562 1.507812 2.832031 1.511719 2.8125 C 1.539062 2.917969 1.632812 3 1.75 3 C 1.867188 3 1.960938 2.917969 1.988281 2.8125 C 1.992188 2.832031 2 2.851562 2 2.875 C 2 3.011719 1.886719 3.125 1.75 3.125 Z M 1.75 3.125 "/>
<path style=" stroke:none;fill-rule:nonzero;fill:rgb(0%,0%,0%);fill-opacity:0.4;" d="M 14.261719 2.5 C 14.402344 2.5 14.511719 2.613281 14.511719 2.75 C 14.511719 2.886719 14.402344 3 14.261719 3 C 14.125 3 14.011719 2.886719 14.011719 2.75 C 14.011719 2.613281 14.125 2.5 14.261719 2.5 Z M 14.261719 2.5 "/>
<path style=" stroke:none;fill-rule:nonzero;fill:rgb(0%,0%,0%);fill-opacity:0.4;" d="M 14.261719 2.5 C 14.125 2.5 14.011719 2.613281 14.011719 2.75 C 14.011719 2.773438 14.019531 2.792969 14.027344 2.8125 C 14.054688 2.707031 14.144531 2.625 14.261719 2.625 C 14.378906 2.625 14.472656 2.707031 14.5 2.8125 C 14.503906 2.792969 14.511719 2.773438 14.511719 2.75 C 14.511719 2.613281 14.402344 2.5 14.261719 2.5 Z M 14.261719 2.5 "/>
<path style=" stroke:none;fill-rule:nonzero;fill:rgb(100%,100%,100%);fill-opacity:0.4;" d="M 14.261719 3.125 C 14.125 3.125 14.011719 3.011719 14.011719 2.875 C 14.011719 2.851562 14.019531 2.832031 14.027344 2.8125 C 14.054688 2.917969 14.144531 3 14.261719 3 C 14.378906 3 14.472656 2.917969 14.5 2.8125 C 14.503906 2.832031 14.511719 2.851562 14.511719 2.875 C 14.511719 3.011719 14.402344 3.125 14.261719 3.125 Z M 14.261719 3.125 "/>
<path style=" stroke:none;fill-rule:nonzero;fill:rgb(0%,0%,0%);fill-opacity:0.4;" d="M 1.75 12.875 C 1.886719 12.875 2 12.988281 2 13.125 C 2 13.261719 1.886719 13.375 1.75 13.375 C 1.613281 13.375 1.5 13.261719 1.5 13.125 C 1.5 12.988281 1.613281 12.875 1.75 12.875 Z M 1.75 12.875 "/>
<path style=" stroke:none;fill-rule:nonzero;fill:rgb(0%,0%,0%);fill-opacity:0.4;" d="M 1.75 12.875 C 1.613281 12.875 1.5 12.988281 1.5 13.125 C 1.5 13.148438 1.507812 13.167969 1.511719 13.1875 C 1.539062 13.082031 1.632812 13 1.75 13 C 1.867188 13 1.960938 13.082031 1.988281 13.1875 C 1.992188 13.167969 2 13.148438 2 13.125 C 2 12.988281 1.886719 12.875 1.75 12.875 Z M 1.75 12.875 "/>
<path style=" stroke:none;fill-rule:nonzero;fill:rgb(100%,100%,100%);fill-opacity:0.4;" d="M 1.75 13.5 C 1.613281 13.5 1.5 13.386719 1.5 13.25 C 1.5 13.226562 1.507812 13.207031 1.511719 13.1875 C 1.539062 13.292969 1.632812 13.375 1.75 13.375 C 1.867188 13.375 1.960938 13.292969 1.988281 13.1875 C 1.992188 13.207031 2 13.226562 2 13.25 C 2 13.386719 1.886719 13.5 1.75 13.5 Z M 1.75 13.5 "/>
<path style=" stroke:none;fill-rule:nonzero;fill:rgb(0%,0%,0%);fill-opacity:0.4;" d="M 14.261719 12.875 C 14.402344 12.875 14.511719 12.988281 14.511719 13.125 C 14.511719 13.261719 14.402344 13.375 14.261719 13.375 C 14.125 13.375 14.011719 13.261719 14.011719 13.125 C 14.011719 12.988281 14.125 12.875 14.261719 12.875 Z M 14.261719 12.875 "/>
<path style=" stroke:none;fill-rule:nonzero;fill:rgb(0%,0%,0%);fill-opacity:0.4;" d="M 14.261719 12.875 C 14.125 12.875 14.011719 12.988281 14.011719 13.125 C 14.011719 13.148438 14.019531 13.167969 14.027344 13.1875 C 14.054688 13.082031 14.144531 13 14.261719 13 C 14.378906 13 14.472656 13.082031 14.5 13.1875 C 14.503906 13.167969 14.511719 13.148438 14.511719 13.125 C 14.511719 12.988281 14.402344 12.875 14.261719 12.875 Z M 14.261719 12.875 "/>
<path style=" stroke:none;fill-rule:nonzero;fill:rgb(100%,100%,100%);fill-opacity:0.4;" d="M 14.261719 13.5 C 14.125 13.5 14.011719 13.386719 14.011719 13.25 C 14.011719 13.226562 14.019531 13.207031 14.027344 13.1875 C 14.054688 13.292969 14.144531 13.375 14.261719 13.375 C 14.378906 13.375 14.472656 13.292969 14.5 13.1875 C 14.503906 13.207031 14.511719 13.226562 14.511719 13.25 C 14.511719 13.386719 14.402344 13.5 14.261719 13.5 Z M 14.261719 13.5 "/>
<path style=" stroke:none;fill-rule:nonzero;fill:rgb(100%,100%,100%);fill-opacity:0.4;" d="M 2 2 C 1.445312 2 1 2.445312 1 3 L 1 3.242188 C 1 2.6875 1.445312 2.242188 2 2.242188 L 14 2.242188 C 14.554688 2.242188 15 2.6875 15 3.242188 L 15 3 C 15 2.445312 14.554688 2 14 2 Z M 2 2 "/>
<path style=" stroke:none;fill-rule:nonzero;fill:rgb(0.392157%,0.392157%,0.392157%);fill-opacity:0.4;" d="M 2 14 C 1.445312 14 1 13.550781 1 12.996094 L 1 12.753906 C 1 13.308594 1.445312 13.753906 2 13.753906 L 14 13.753906 C 14.554688 13.753906 15 13.308594 15 12.753906 L 15 12.996094 C 15 13.550781 14.554688 14 14 14 Z M 2 14 "/>
<path style=" stroke:none;fill-rule:nonzero;fill:rgb(0%,0%,0%);fill-opacity:0.2;" d="M 1 13 L 1 13.375 C 1 13.929688 1.445312 14.375 2 14.375 L 14 14.375 C 14.554688 14.375 15 13.929688 15 13.375 L 15 13 C 15 13.554688 14.554688 14 14 14 L 2 14 C 1.445312 14 1 13.554688 1 13 Z M 1 13 "/>
<path style=" stroke:none;fill-rule:nonzero;fill:rgb(87.843138%,87.843138%,87.843138%);fill-opacity:1;" d="M 11.453125 6.632812 C 11.210938 6.636719 10.976562 6.664062 10.75 6.710938 L 10.503906 7.9375 C 10.300781 8.019531 10.109375 8.132812 9.9375 8.261719 L 8.753906 7.863281 C 8.585938 8.046875 8.4375 8.25 8.308594 8.476562 C 8.179688 8.699219 8.078125 8.929688 8 9.164062 L 8.941406 9.992188 C 8.929688 10.097656 8.921875 10.207031 8.921875 10.316406 C 8.921875 10.425781 8.929688 10.535156 8.941406 10.640625 L 8 11.46875 C 8.078125 11.703125 8.179688 11.933594 8.308594 12.160156 C 8.4375 12.382812 8.585938 12.585938 8.753906 12.769531 L 9.9375 12.371094 C 10.109375 12.5 10.300781 12.613281 10.503906 12.695312 L 10.75 13.921875 C 10.992188 13.972656 11.242188 14 11.5 14 C 11.757812 14 12.007812 13.972656 12.253906 13.921875 L 12.496094 12.695312 C 12.699219 12.613281 12.890625 12.5 13.0625 12.371094 L 14.25 12.769531 C 14.414062 12.585938 14.5625 12.382812 14.691406 12.160156 C 14.820312 11.933594 14.921875 11.703125 15 11.46875 L 14.058594 10.640625 C 14.070312 10.535156 14.078125 10.425781 14.078125 10.316406 C 14.078125 10.207031 14.070312 10.097656 14.058594 9.992188 L 15 9.164062 C 14.921875 8.929688 14.820312 8.699219 14.691406 8.476562 C 14.5625 8.25 14.414062 8.046875 14.25 7.863281 L 13.0625 8.261719 C 12.890625 8.132812 12.699219 8.023438 12.496094 7.9375 L 12.253906 6.710938 C 12.007812 6.660156 11.757812 6.632812 11.5 6.632812 C 11.484375 6.632812 11.46875 6.632812 11.453125 6.632812 Z M 11.5 8.84375 C 12.316406 8.84375 12.972656 9.5 12.972656 10.316406 C 12.972656 11.132812 12.316406 11.789062 11.5 11.789062 C 10.683594 11.789062 10.027344 11.132812 10.027344 10.316406 C 10.027344 9.5 10.683594 8.84375 11.5 8.84375 Z M 11.5 8.84375 "/>
<path style=" stroke:none;fill-rule:nonzero;fill:rgb(100%,100%,100%);fill-opacity:0.4;" d="M 11.453125 6.632812 C 11.210938 6.636719 10.976562 6.664062 10.75 6.710938 L 10.503906 7.9375 C 10.300781 8.019531 10.109375 8.132812 9.9375 8.261719 L 8.753906 7.863281 C 8.585938 8.046875 8.4375 8.25 8.308594 8.472656 C 8.179688 8.699219 8.078125 8.929688 8 9.164062 L 8.066406 9.222656 C 8.132812 9.050781 8.214844 8.882812 8.308594 8.714844 C 8.4375 8.492188 8.585938 8.289062 8.753906 8.105469 L 9.9375 8.503906 C 10.109375 8.375 10.300781 8.261719 10.503906 8.179688 L 10.75 6.949219 C 10.976562 6.90625 11.210938 6.878906 11.453125 6.875 C 11.46875 6.875 11.484375 6.875 11.5 6.875 C 11.757812 6.875 12.007812 6.902344 12.253906 6.949219 L 12.496094 8.179688 C 12.699219 8.261719 12.890625 8.375 13.0625 8.503906 L 14.25 8.105469 C 14.414062 8.289062 14.5625 8.492188 14.691406 8.714844 C 14.785156 8.882812 14.867188 9.050781 14.933594 9.222656 L 15 9.164062 C 14.921875 8.929688 14.820312 8.699219 14.691406 8.472656 C 14.5625 8.25 14.414062 8.046875 14.25 7.863281 L 13.0625 8.261719 C 12.890625 8.132812 12.699219 8.019531 12.496094 7.9375 L 12.253906 6.710938 C 12.007812 6.660156 11.757812 6.632812 11.5 6.632812 C 11.484375 6.632812 11.46875 6.632812 11.453125 6.632812 Z M 8.925781 10.21875 C 8.921875 10.25 8.921875 10.28125 8.921875 10.316406 C 8.921875 10.355469 8.921875 10.398438 8.925781 10.4375 C 8.929688 10.367188 8.933594 10.300781 8.941406 10.234375 Z M 14.078125 10.21875 L 14.058594 10.234375 C 14.066406 10.300781 14.074219 10.367188 14.074219 10.4375 C 14.078125 10.398438 14.078125 10.355469 14.078125 10.316406 C 14.078125 10.285156 14.078125 10.25 14.078125 10.21875 Z M 10.03125 10.4375 C 10.027344 10.476562 10.027344 10.519531 10.027344 10.558594 C 10.027344 11.375 10.683594 12.03125 11.5 12.03125 C 12.316406 12.03125 12.972656 11.375 12.972656 10.558594 C 12.972656 10.519531 12.972656 10.476562 12.96875 10.4375 C 12.90625 11.195312 12.277344 11.789062 11.5 11.789062 C 10.722656 11.789062 10.09375 11.195312 10.03125 10.4375 Z M 14.078125 10.65625 C 14.074219 10.734375 14.066406 10.808594 14.058594 10.882812 L 14.933594 11.652344 C 14.957031 11.59375 14.980469 11.53125 15 11.46875 Z M 8.925781 10.65625 L 8 11.46875 C 8.019531 11.53125 8.042969 11.589844 8.066406 11.652344 L 8.941406 10.882812 C 8.933594 10.808594 8.925781 10.734375 8.925781 10.65625 Z M 8.925781 10.65625 "/>
<path style=" stroke:none;fill-rule:nonzero;fill:url(#linear3);" d="M 11.453125 6.632812 C 11.210938 6.636719 10.976562 6.664062 10.75 6.710938 L 10.503906 7.9375 C 10.300781 8.019531 10.109375 8.132812 9.9375 8.261719 L 8.753906 7.863281 C 8.585938 8.046875 8.4375 8.25 8.308594 8.476562 C 8.179688 8.699219 8.078125 8.929688 8 9.164062 L 8.941406 9.992188 C 8.929688 10.097656 8.921875 10.207031 8.921875 10.316406 C 8.921875 10.425781 8.929688 10.535156 8.941406 10.640625 L 8 11.46875 C 8.078125 11.703125 8.179688 11.933594 8.308594 12.160156 C 8.4375 12.382812 8.585938 12.585938 8.753906 12.769531 L 9.9375 12.371094 C 10.109375 12.5 10.300781 12.613281 10.503906 12.695312 L 10.75 13.921875 C 10.992188 13.972656 11.242188 14 11.5 14 C 11.757812 14 12.007812 13.972656 12.253906 13.921875 L 12.496094 12.695312 C 12.699219 12.613281 12.890625 12.5 13.0625 12.371094 L 14.25 12.769531 C 14.414062 12.585938 14.5625 12.382812 14.691406 12.160156 C 14.820312 11.933594 14.921875 11.703125 15 11.46875 L 14.058594 10.640625 C 14.070312 10.535156 14.078125 10.425781 14.078125 10.316406 C 14.078125 10.207031 14.070312 10.097656 14.058594 9.992188 L 15 9.164062 C 14.921875 8.929688 14.820312 8.699219 14.691406 8.476562 C 14.5625 8.25 14.414062 8.046875 14.25 7.863281 L 13.0625 8.261719 C 12.890625 8.132812 12.699219 8.023438 12.496094 7.9375 L 12.253906 6.710938 C 12.007812 6.660156 11.757812 6.632812 11.5 6.632812 C 11.484375 6.632812 11.46875 6.632812 11.453125 6.632812 Z M 11.5 8.84375 C 12.316406 8.84375 12.972656 9.5 12.972656 10.316406 C 12.972656 11.132812 12.316406 11.789062 11.5 11.789062 C 10.683594 11.789062 10.027344 11.132812 10.027344 10.316406 C 10.027344 9.5 10.683594 8.84375 11.5 8.84375 Z M 11.5 8.84375 "/>
<path style=" stroke:none;fill-rule:nonzero;fill:rgb(0.784314%,0.784314%,0.784314%);fill-opacity:0.2;" d="M 11.5 8.847656 C 10.683594 8.847656 10.027344 9.503906 10.027344 10.320312 C 10.027344 10.359375 10.027344 10.402344 10.03125 10.441406 C 10.09375 9.679688 10.722656 9.089844 11.5 9.089844 C 12.277344 9.089844 12.90625 9.679688 12.96875 10.441406 C 12.972656 10.402344 12.972656 10.359375 12.972656 10.320312 C 12.972656 9.503906 12.316406 8.847656 11.5 8.847656 Z M 14.933594 9.226562 L 14.058594 9.996094 C 14.066406 10.070312 14.074219 10.144531 14.078125 10.222656 L 14.933594 9.46875 Z M 8.066406 9.226562 C 8.042969 9.285156 8.019531 9.347656 8 9.410156 L 8.925781 10.21875 C 8.925781 10.144531 8.933594 10.070312 8.941406 9.996094 Z M 8.925781 10.441406 C 8.921875 10.480469 8.921875 10.519531 8.921875 10.5625 C 8.921875 10.59375 8.921875 10.628906 8.925781 10.660156 L 8.941406 10.644531 C 8.933594 10.578125 8.929688 10.507812 8.925781 10.441406 Z M 14.074219 10.441406 C 14.074219 10.507812 14.066406 10.578125 14.058594 10.644531 L 14.078125 10.660156 C 14.078125 10.628906 14.078125 10.59375 14.078125 10.5625 C 14.078125 10.519531 14.078125 10.480469 14.074219 10.441406 Z M 8.066406 11.65625 L 8 11.714844 C 8.078125 11.949219 8.179688 12.179688 8.308594 12.402344 C 8.4375 12.625 8.585938 12.832031 8.753906 13.015625 L 9.9375 12.617188 C 10.109375 12.746094 10.300781 12.855469 10.503906 12.941406 L 10.714844 14 L 11.34375 14 C 11.140625 13.992188 10.941406 13.964844 10.75 13.925781 L 10.503906 12.699219 C 10.300781 12.613281 10.109375 12.503906 9.9375 12.375 L 8.753906 12.773438 C 8.585938 12.589844 8.4375 12.382812 8.308594 12.160156 C 8.214844 11.996094 8.132812 11.828125 8.066406 11.65625 Z M 14.933594 11.65625 C 14.867188 11.828125 14.785156 11.996094 14.691406 12.160156 C 14.5625 12.382812 14.414062 12.589844 14.25 12.773438 L 13.0625 12.375 C 12.890625 12.503906 12.699219 12.613281 12.496094 12.699219 L 12.253906 13.925781 C 12.054688 13.96875 11.851562 13.992188 11.644531 14 L 12.285156 14 L 12.496094 12.941406 C 12.699219 12.855469 12.890625 12.746094 13.0625 12.617188 L 14.25 13.015625 C 14.414062 12.832031 14.5625 12.625 14.691406 12.402344 C 14.785156 12.238281 14.867188 12.070312 14.933594 11.898438 Z M 14.933594 11.65625 "/>
</g>
</svg>
