
<svg xmlns="http://www.w3.org/2000/svg" xmlns:xlink="http://www.w3.org/1999/xlink" width="16" height="16" viewBox="0 0 16 16" version="1.1">
<defs>
<linearGradient id="linear0" gradientUnits="userSpaceOnUse" x1="31.999998" y1="57.999996" x2="31.999998" y2="8" gradientTransform="matrix(0.25,0,0,0.25,-0.000000170079,0)">
<stop offset="0" style="stop-color:rgb(0%,0%,0%);stop-opacity:0.2;"/>
<stop offset="1" style="stop-color:rgb(100%,100%,100%);stop-opacity:0;"/>
</linearGradient>
</defs>
<g id="surface1">
<path style=" stroke:none;fill-rule:nonzero;fill:rgb(36.078432%,41.960785%,75.294119%);fill-opacity:1;" d="M 2 2 L 14 2 C 14.550781 2 15 2.449219 15 3 L 15 13 C 15 13.550781 14.550781 14 14 14 L 2 14 C 1.449219 14 1 13.550781 1 13 L 1 3 C 1 2.449219 1.449219 2 2 2 Z M 2 2 "/>
<path style=" stroke:none;fill-rule:nonzero;fill:rgb(25.882354%,64.705884%,96.078432%);fill-opacity:1;" d="M 1.128906 2.503906 L 8 8 L 1.351562 13.761719 C 1.136719 13.578125 1 13.304688 1 13 L 1 3 C 1 2.820312 1.046875 2.652344 1.128906 2.503906 Z M 1.128906 2.503906 "/>
<path style=" stroke:none;fill-rule:nonzero;fill:rgb(47.058824%,56.470591%,61.176473%);fill-opacity:1;" d="M 8 8 L 1.316406 13.730469 C 1.496094 13.898438 1.734375 14 2 14 L 14 14 C 14.265625 14 14.503906 13.898438 14.683594 13.730469 Z M 8 8 "/>
<path style=" stroke:none;fill-rule:nonzero;fill:rgb(92.54902%,25.098041%,47.843137%);fill-opacity:1;" d="M 14.867188 2.503906 L 8 8 L 14.648438 13.761719 C 14.863281 13.578125 15 13.304688 15 13 L 15 3 C 15 2.820312 14.953125 2.652344 14.867188 2.503906 Z M 14.867188 2.503906 "/>
<path style=" stroke:none;fill-rule:nonzero;fill:rgb(0.392157%,0.392157%,0.392157%);fill-opacity:0.4;" d="M 1 12.75 L 1 13 C 1 13.554688 1.445312 14 2 14 L 14 14 C 14.554688 14 15 13.554688 15 13 L 15 12.75 C 15 13.304688 14.554688 13.75 14 13.75 L 2 13.75 C 1.445312 13.75 1 13.304688 1 12.75 Z M 1 12.75 "/>
<path style=" stroke:none;fill-rule:nonzero;fill:rgb(87.843138%,87.843138%,87.843138%);fill-opacity:1;" d="M 2.5 12 L 13.5 12 C 13.777344 12 14 12.222656 14 12.5 L 14 14 C 14 14.277344 13.777344 14.5 13.5 14.5 L 2.5 14.5 C 2.222656 14.5 2 14.277344 2 14 L 2 12.5 C 2 12.222656 2.222656 12 2.5 12 Z M 2.5 12 "/>
<path style=" stroke:none;fill-rule:nonzero;fill:rgb(87.843138%,87.843138%,87.843138%);fill-opacity:1;" d="M 2 2 C 1.445312 2 1 2.445312 1 3 L 15 3 C 15 2.445312 14.554688 2 14 2 Z M 2 2 "/>
<path style=" stroke:none;fill-rule:nonzero;fill:rgb(0%,0%,0%);fill-opacity:0.4;" d="M 1 3 L 1 3.25 L 15 3.25 L 15 3 Z M 2 13.75 L 2 14 C 2 14.277344 2.222656 14.5 2.5 14.5 L 13.5 14.5 C 13.777344 14.5 14 14.277344 14 14 L 14 13.75 C 14 14.027344 13.777344 14.25 13.5 14.25 L 2.5 14.25 C 2.222656 14.25 2 14.027344 2 13.75 Z M 2 13.75 "/>
<path style=" stroke:none;fill-rule:nonzero;fill:rgb(100%,100%,100%);fill-opacity:0.8;" d="M 2 2 C 1.445312 2 1 2.445312 1 3 L 1.03125 3 C 1.140625 2.5625 1.53125 2.242188 2 2.242188 L 14 2.242188 C 14.46875 2.242188 14.859375 2.5625 14.96875 3 L 15 3 C 15 2.445312 14.554688 2 14 2 Z M 2.5 12 C 2.222656 12 2 12.222656 2 12.5 L 2 12.742188 C 2 12.464844 2.222656 12.242188 2.5 12.242188 L 13.5 12.242188 C 13.777344 12.242188 14 12.464844 14 12.742188 L 14 12.5 C 14 12.222656 13.777344 12 13.5 12 Z M 2.5 12 "/>
<path style=" stroke:none;fill-rule:nonzero;fill:rgb(0%,0%,0%);fill-opacity:0.2;" d="M 1 13 L 1 13.375 C 1 13.929688 1.445312 14.375 2 14.375 C 2 14.652344 2.222656 14.875 2.5 14.875 L 13.5 14.875 C 13.777344 14.875 14 14.652344 14 14.375 C 14.554688 14.375 15 13.929688 15 13.375 L 15 13 C 15 13.554688 14.554688 14 14 14 C 14 14.277344 13.777344 14.5 13.5 14.5 L 2.5 14.5 C 2.222656 14.5 2 14.277344 2 14 C 1.445312 14 1 13.554688 1 13 Z M 1 13 "/>
<path style=" stroke:none;fill-rule:nonzero;fill:rgb(87.843138%,87.843138%,87.843138%);fill-opacity:1;" d="M 4 4.5 L 12 4.5 C 12.277344 4.5 12.5 4.722656 12.5 5 L 12.5 7 C 12.5 7.277344 12.277344 7.5 12 7.5 L 4 7.5 C 3.722656 7.5 3.5 7.277344 3.5 7 L 3.5 5 C 3.5 4.722656 3.722656 4.5 4 4.5 Z M 4 4.5 "/>
<path style=" stroke:none;fill-rule:nonzero;fill:rgb(74.117649%,74.117649%,74.117649%);fill-opacity:0.992157;" d="M 4.25 5 L 11.75 5 C 11.886719 5 12 5.113281 12 5.25 L 12 6.75 C 12 6.886719 11.886719 7 11.75 7 L 4.25 7 C 4.113281 7 4 6.886719 4 6.75 L 4 5.25 C 4 5.113281 4.113281 5 4.25 5 Z M 4.25 5 "/>
<path style=" stroke:none;fill-rule:nonzero;fill:rgb(74.117649%,74.117649%,74.117649%);fill-opacity:1;" d="M 4.25 5 L 11.75 5 C 11.886719 5 12 5.113281 12 5.25 L 12 6.75 C 12 6.886719 11.886719 7 11.75 7 L 4.25 7 C 4.113281 7 4 6.886719 4 6.75 L 4 5.25 C 4 5.113281 4.113281 5 4.25 5 Z M 4.25 5 "/>
<path style=" stroke:none;fill-rule:nonzero;fill:rgb(0%,0%,0%);fill-opacity:0.4;" d="M 4.25 5 C 4.113281 5 4 5.113281 4 5.25 L 4 5.5 C 4 5.363281 4.113281 5.25 4.25 5.25 L 11.75 5.25 C 11.886719 5.25 12 5.363281 12 5.5 L 12 5.25 C 12 5.113281 11.886719 5 11.75 5 Z M 4.25 5 "/>
<path style=" stroke:none;fill-rule:nonzero;fill:rgb(100%,100%,100%);fill-opacity:0.6;" d="M 4.25 7.25 C 4.113281 7.25 4 7.136719 4 7 L 4 6.75 C 4 6.886719 4.113281 7 4.25 7 L 11.75 7 C 11.886719 7 12 6.886719 12 6.75 L 12 7 C 12 7.136719 11.886719 7.25 11.75 7.25 Z M 4.25 7.25 "/>
<path style=" stroke:none;fill-rule:nonzero;fill:rgb(100%,100%,100%);fill-opacity:0.6;" d="M 4 4.5 C 3.722656 4.5 3.5 4.722656 3.5 5 L 3.5 5.25 C 3.5 4.972656 3.722656 4.75 4 4.75 L 12 4.75 C 12.277344 4.75 12.5 4.972656 12.5 5.25 L 12.5 5 C 12.5 4.722656 12.277344 4.5 12 4.5 Z M 4 4.5 "/>
<path style=" stroke:none;fill-rule:nonzero;fill:rgb(0%,0%,0%);fill-opacity:0.4;" d="M 4 7.75 C 3.722656 7.75 3.5 7.527344 3.5 7.25 L 3.5 7 C 3.5 7.277344 3.722656 7.5 4 7.5 L 12 7.5 C 12.277344 7.5 12.5 7.277344 12.5 7 L 12.5 7.25 C 12.5 7.527344 12.277344 7.75 12 7.75 Z M 4 7.75 "/>
<path style=" stroke:none;fill-rule:nonzero;fill:rgb(87.843138%,87.843138%,87.843138%);fill-opacity:1;" d="M 4 8 L 12 8 C 12.277344 8 12.5 8.222656 12.5 8.5 L 12.5 10.5 C 12.5 10.777344 12.277344 11 12 11 L 4 11 C 3.722656 11 3.5 10.777344 3.5 10.5 L 3.5 8.5 C 3.5 8.222656 3.722656 8 4 8 Z M 4 8 "/>
<path style=" stroke:none;fill-rule:nonzero;fill:rgb(74.117649%,74.117649%,74.117649%);fill-opacity:0.992157;" d="M 4.25 8.5 L 11.75 8.5 C 11.886719 8.5 12 8.613281 12 8.75 L 12 10.25 C 12 10.386719 11.886719 10.5 11.75 10.5 L 4.25 10.5 C 4.113281 10.5 4 10.386719 4 10.25 L 4 8.75 C 4 8.613281 4.113281 8.5 4.25 8.5 Z M 4.25 8.5 "/>
<path style=" stroke:none;fill-rule:nonzero;fill:rgb(74.117649%,74.117649%,74.117649%);fill-opacity:1;" d="M 4.25 8.5 L 11.75 8.5 C 11.886719 8.5 12 8.613281 12 8.75 L 12 10.25 C 12 10.386719 11.886719 10.5 11.75 10.5 L 4.25 10.5 C 4.113281 10.5 4 10.386719 4 10.25 L 4 8.75 C 4 8.613281 4.113281 8.5 4.25 8.5 Z M 4.25 8.5 "/>
<path style=" stroke:none;fill-rule:nonzero;fill:rgb(0%,0%,0%);fill-opacity:0.4;" d="M 4.25 8.5 C 4.113281 8.5 4 8.613281 4 8.75 L 4 9 C 4 8.863281 4.113281 8.75 4.25 8.75 L 11.75 8.75 C 11.886719 8.75 12 8.863281 12 9 L 12 8.75 C 12 8.613281 11.886719 8.5 11.75 8.5 Z M 4.25 8.5 "/>
<path style=" stroke:none;fill-rule:nonzero;fill:rgb(100%,100%,100%);fill-opacity:0.6;" d="M 4.25 10.75 C 4.113281 10.75 4 10.636719 4 10.5 L 4 10.25 C 4 10.386719 4.113281 10.5 4.25 10.5 L 11.75 10.5 C 11.886719 10.5 12 10.386719 12 10.25 L 12 10.5 C 12 10.636719 11.886719 10.75 11.75 10.75 Z M 4.25 10.75 "/>
<path style=" stroke:none;fill-rule:nonzero;fill:rgb(100%,100%,100%);fill-opacity:0.6;" d="M 4 8 C 3.722656 8 3.5 8.222656 3.5 8.5 L 3.5 8.75 C 3.5 8.472656 3.722656 8.25 4 8.25 L 12 8.25 C 12.277344 8.25 12.5 8.472656 12.5 8.75 L 12.5 8.5 C 12.5 8.222656 12.277344 8 12 8 Z M 4 8 "/>
<path style=" stroke:none;fill-rule:nonzero;fill:rgb(0%,0%,0%);fill-opacity:0.4;" d="M 4 11.25 C 3.722656 11.25 3.5 11.027344 3.5 10.75 L 3.5 10.5 C 3.5 10.777344 3.722656 11 4 11 L 12 11 C 12.277344 11 12.5 10.777344 12.5 10.5 L 12.5 10.75 C 12.5 11.027344 12.277344 11.25 12 11.25 Z M 4 11.25 "/>
<path style=" stroke:none;fill-rule:nonzero;fill:rgb(0%,0%,0%);fill-opacity:0.4;" d="M 8.945312 8.875 C 8.875 8.878906 8.816406 8.9375 8.816406 9.011719 L 8.816406 9.296875 L 8.617188 9.09375 C 8.589844 9.066406 8.550781 9.054688 8.511719 9.054688 C 8.480469 9.054688 8.449219 9.070312 8.421875 9.09375 C 8.371094 9.148438 8.371094 9.234375 8.421875 9.289062 L 8.625 9.488281 L 8.339844 9.488281 C 8.265625 9.488281 8.203125 9.550781 8.203125 9.625 C 8.203125 9.699219 8.265625 9.761719 8.339844 9.761719 L 8.625 9.761719 L 8.421875 9.960938 C 8.371094 10.015625 8.371094 10.101562 8.421875 10.15625 C 8.476562 10.207031 8.5625 10.207031 8.617188 10.15625 L 8.816406 9.953125 L 8.816406 10.238281 C 8.816406 10.3125 8.878906 10.375 8.953125 10.375 C 9.03125 10.375 9.089844 10.3125 9.089844 10.238281 L 9.089844 9.953125 L 9.292969 10.15625 C 9.34375 10.207031 9.429688 10.207031 9.484375 10.15625 C 9.539062 10.101562 9.539062 10.015625 9.484375 9.960938 L 9.28125 9.761719 L 9.566406 9.761719 C 9.644531 9.761719 9.703125 9.699219 9.703125 9.625 C 9.703125 9.550781 9.644531 9.488281 9.566406 9.488281 L 9.28125 9.488281 L 9.484375 9.289062 C 9.539062 9.234375 9.539062 9.148438 9.484375 9.09375 C 9.429688 9.042969 9.34375 9.042969 9.292969 9.09375 L 9.089844 9.296875 L 9.089844 9.011719 C 9.089844 8.9375 9.03125 8.875 8.953125 8.875 C 8.953125 8.875 8.949219 8.875 8.949219 8.875 Z M 8.945312 8.875 "/>
<path style=" stroke:none;fill-rule:nonzero;fill:rgb(0%,0%,0%);fill-opacity:0.4;" d="M 5.164062 8.875 C 5.09375 8.878906 5.035156 8.9375 5.035156 9.011719 L 5.035156 9.296875 L 4.832031 9.09375 C 4.804688 9.066406 4.765625 9.054688 4.730469 9.054688 C 4.699219 9.054688 4.664062 9.070312 4.640625 9.09375 C 4.585938 9.148438 4.585938 9.234375 4.640625 9.289062 L 4.839844 9.488281 L 4.558594 9.488281 C 4.480469 9.488281 4.421875 9.550781 4.421875 9.625 C 4.421875 9.699219 4.480469 9.761719 4.558594 9.761719 L 4.84375 9.761719 L 4.640625 9.960938 C 4.585938 10.015625 4.585938 10.101562 4.640625 10.15625 C 4.695312 10.207031 4.78125 10.207031 4.832031 10.15625 L 5.035156 9.953125 L 5.035156 10.238281 C 5.035156 10.3125 5.09375 10.375 5.171875 10.375 C 5.246094 10.375 5.308594 10.3125 5.308594 10.238281 L 5.308594 9.953125 L 5.507812 10.15625 C 5.5625 10.207031 5.648438 10.207031 5.703125 10.15625 C 5.753906 10.101562 5.753906 10.015625 5.703125 9.960938 L 5.5 9.761719 L 5.785156 9.761719 C 5.859375 9.761719 5.921875 9.699219 5.921875 9.625 C 5.921875 9.550781 5.859375 9.488281 5.785156 9.488281 L 5.5 9.488281 L 5.703125 9.289062 C 5.753906 9.234375 5.753906 9.148438 5.703125 9.09375 C 5.648438 9.042969 5.5625 9.042969 5.507812 9.09375 L 5.308594 9.296875 L 5.308594 9.011719 C 5.308594 8.9375 5.246094 8.875 5.171875 8.875 C 5.167969 8.875 5.167969 8.875 5.164062 8.875 Z M 5.164062 8.875 "/>
<path style=" stroke:none;fill-rule:nonzero;fill:rgb(0%,0%,0%);fill-opacity:0.4;" d="M 10.789062 8.875 C 10.71875 8.878906 10.660156 8.9375 10.660156 9.011719 L 10.660156 9.296875 L 10.457031 9.09375 C 10.429688 9.066406 10.390625 9.054688 10.355469 9.054688 C 10.324219 9.054688 10.289062 9.070312 10.265625 9.09375 C 10.210938 9.148438 10.210938 9.234375 10.265625 9.289062 L 10.46875 9.488281 L 10.183594 9.488281 C 10.105469 9.488281 10.046875 9.550781 10.046875 9.625 C 10.046875 9.699219 10.105469 9.761719 10.183594 9.761719 L 10.46875 9.761719 L 10.265625 9.960938 C 10.210938 10.015625 10.210938 10.101562 10.265625 10.15625 C 10.320312 10.207031 10.40625 10.207031 10.457031 10.15625 L 10.660156 9.953125 L 10.660156 10.238281 C 10.660156 10.3125 10.71875 10.375 10.796875 10.375 C 10.871094 10.375 10.933594 10.3125 10.933594 10.238281 L 10.933594 9.953125 L 11.132812 10.15625 C 11.1875 10.207031 11.273438 10.207031 11.328125 10.15625 C 11.378906 10.101562 11.378906 10.015625 11.328125 9.960938 L 11.125 9.761719 L 11.410156 9.761719 C 11.484375 9.761719 11.546875 9.699219 11.546875 9.625 C 11.546875 9.550781 11.484375 9.488281 11.410156 9.488281 L 11.125 9.488281 L 11.328125 9.289062 C 11.378906 9.234375 11.378906 9.148438 11.328125 9.09375 C 11.273438 9.042969 11.1875 9.042969 11.132812 9.09375 L 10.933594 9.296875 L 10.933594 9.011719 C 10.933594 8.9375 10.871094 8.875 10.796875 8.875 C 10.792969 8.875 10.792969 8.875 10.789062 8.875 Z M 10.789062 8.875 "/>
<path style=" stroke:none;fill-rule:nonzero;fill:rgb(0%,0%,0%);fill-opacity:0.4;" d="M 7.074219 8.875 C 7 8.878906 6.941406 8.9375 6.941406 9.011719 L 6.941406 9.296875 L 6.742188 9.09375 C 6.714844 9.066406 6.675781 9.054688 6.640625 9.054688 C 6.605469 9.054688 6.574219 9.070312 6.546875 9.09375 C 6.496094 9.148438 6.496094 9.234375 6.546875 9.289062 L 6.75 9.488281 L 6.464844 9.488281 C 6.390625 9.488281 6.328125 9.550781 6.328125 9.625 C 6.328125 9.699219 6.390625 9.761719 6.464844 9.761719 L 6.75 9.761719 L 6.546875 9.960938 C 6.496094 10.015625 6.496094 10.101562 6.546875 10.15625 C 6.601562 10.207031 6.6875 10.207031 6.742188 10.15625 L 6.941406 9.953125 L 6.941406 10.238281 C 6.941406 10.3125 7.003906 10.375 7.078125 10.375 C 7.15625 10.375 7.214844 10.3125 7.214844 10.238281 L 7.214844 9.953125 L 7.417969 10.15625 C 7.46875 10.207031 7.554688 10.207031 7.609375 10.15625 C 7.664062 10.101562 7.664062 10.015625 7.609375 9.960938 L 7.40625 9.761719 L 7.691406 9.761719 C 7.769531 9.761719 7.828125 9.699219 7.828125 9.625 C 7.828125 9.550781 7.769531 9.488281 7.691406 9.488281 L 7.40625 9.488281 L 7.609375 9.289062 C 7.664062 9.234375 7.664062 9.148438 7.609375 9.09375 C 7.554688 9.042969 7.46875 9.042969 7.417969 9.09375 L 7.214844 9.296875 L 7.214844 9.011719 C 7.214844 8.9375 7.15625 8.875 7.078125 8.875 C 7.078125 8.875 7.074219 8.875 7.074219 8.875 Z M 7.074219 8.875 "/>
<path style=" stroke:none;fill-rule:nonzero;fill:url(#linear0);" d="M 2 2 C 1.445312 2 1 2.445312 1 3 L 1 13 C 1 13.554688 1.445312 14 2 14 C 2 14.277344 2.222656 14.5 2.5 14.5 L 13.5 14.5 C 13.777344 14.5 14 14.277344 14 14 C 14.554688 14 15 13.554688 15 13 L 15 3 C 15 2.445312 14.554688 2 14 2 Z M 2 2 "/>
</g>
</svg>
