
<svg xmlns="http://www.w3.org/2000/svg" xmlns:xlink="http://www.w3.org/1999/xlink" width="16" height="16" viewBox="0 0 16 16" version="1.1">
<defs>
<linearGradient id="linear0" gradientUnits="userSpaceOnUse" x1="8.466666" y1="-199.125" x2="8.466666" y2="-213.941666" gradientTransform="matrix(0.944882,0,0,0.944882,0.0000000407537,203.149617)">
<stop offset="0" style="stop-color:rgb(0%,0%,0%);stop-opacity:0.2;"/>
<stop offset="1" style="stop-color:rgb(100%,100%,100%);stop-opacity:0;"/>
</linearGradient>
</defs>
<g id="surface1">
<path style=" stroke:none;fill-rule:nonzero;fill:rgb(100%,65.490198%,14.901961%);fill-opacity:1;" d="M 14 15 C 14.554688 15 15 14.554688 15 14 L 15 8 L 8 8 L 8 15 Z M 14 15 "/>
<path style=" stroke:none;fill-rule:nonzero;fill:rgb(14.901961%,65.098041%,60.392159%);fill-opacity:1;" d="M 2 15 C 1.445312 15 1 14.554688 1 14 L 1 8 L 8 8 L 8 15 Z M 2 15 "/>
<path style=" stroke:none;fill-rule:nonzero;fill:rgb(25.882354%,64.705884%,96.078432%);fill-opacity:1;" d="M 14 1 C 14.554688 1 15 1.445312 15 2 L 15 8 L 8 8 L 8 1 Z M 14 1 "/>
<path style=" stroke:none;fill-rule:nonzero;fill:rgb(61.176473%,80.000001%,39.607844%);fill-opacity:1;" d="M 2 1 C 1.445312 1 1 1.445312 1 2 L 1 8 L 8 8 L 8 1 Z M 2 1 "/>
<path style=" stroke:none;fill-rule:nonzero;fill:rgb(38.039216%,38.039216%,38.039216%);fill-opacity:1;" d="M 3.5 3 L 12.5 3 C 12.777344 3 13 3.222656 13 3.5 L 13 12.5 C 13 12.777344 12.777344 13 12.5 13 L 3.5 13 C 3.222656 13 3 12.777344 3 12.5 L 3 3.5 C 3 3.222656 3.222656 3 3.5 3 Z M 3.5 3 "/>
<path style=" stroke:none;fill-rule:nonzero;fill:rgb(100%,100%,100%);fill-opacity:0.4;" d="M 3.5 3 C 3.222656 3 3 3.222656 3 3.5 L 3 3.75 C 3 3.472656 3.222656 3.25 3.5 3.25 L 12.5 3.25 C 12.777344 3.25 13 3.472656 13 3.75 L 13 3.5 C 13 3.222656 12.777344 3 12.5 3 Z M 3.5 3 "/>
<path style=" stroke:none;fill-rule:nonzero;fill:rgb(0.784314%,0.784314%,0.784314%);fill-opacity:0.4;" d="M 3.5 13.25 C 3.222656 13.25 3 13.027344 3 12.75 L 3 12.5 C 3 12.777344 3.222656 13 3.5 13 L 12.5 13 C 12.777344 13 13 12.777344 13 12.5 L 13 12.75 C 13 13.027344 12.777344 13.25 12.5 13.25 Z M 3.5 13.25 "/>
<path style=" stroke:none;fill-rule:nonzero;fill:rgb(100%,100%,100%);fill-opacity:0.4;" d="M 2 1 C 1.445312 1 1 1.445312 1 2 L 1 2.25 C 1 1.695312 1.445312 1.25 2 1.25 L 14 1.25 C 14.554688 1.25 15 1.695312 15 2.25 L 15 2 C 15 1.445312 14.554688 1 14 1 Z M 2 1 "/>
<path style=" stroke:none;fill-rule:nonzero;fill:rgb(0%,0%,0%);fill-opacity:0.4;" d="M 2 15 C 1.445312 15 1 14.554688 1 14 L 1 13.75 C 1 14.304688 1.445312 14.75 2 14.75 L 14 14.75 C 14.554688 14.75 15 14.304688 15 13.75 L 15 14 C 15 14.554688 14.554688 15 14 15 Z M 2 15 "/>
<path style=" stroke:none;fill-rule:nonzero;fill:rgb(0%,0%,0%);fill-opacity:0.2;" d="M 1 14 L 1 14.375 C 1 14.929688 1.445312 15.375 2 15.375 L 14 15.375 C 14.554688 15.375 15 14.929688 15 14.375 L 15 14 C 15 14.554688 14.554688 15 14 15 L 2 15 C 1.445312 15 1 14.554688 1 14 Z M 1 14 "/>
<path style=" stroke:none;fill-rule:nonzero;fill:rgb(93.333334%,93.333334%,93.333334%);fill-opacity:1;" d="M 4.75 5.5 C 4.613281 5.5 4.5 5.613281 4.5 5.75 L 4.5 10.25 C 4.5 10.386719 4.613281 10.5 4.75 10.5 L 5.25 10.5 C 5.386719 10.5 5.5 10.386719 5.5 10.25 L 5.5 8.464844 C 5.601562 8.488281 5.703125 8.5 5.8125 8.5 L 6.1875 8.5 C 6.914062 8.5 7.5 7.914062 7.5 7.1875 L 7.5 6.8125 C 7.5 6.085938 6.914062 5.5 6.1875 5.5 Z M 5.5 6.5 L 6 6.5 C 6.277344 6.5 6.5 6.722656 6.5 7 C 6.5 7.277344 6.277344 7.5 6 7.5 L 5.5 7.5 Z M 5.5 6.5 "/>
<path style=" stroke:none;fill-rule:nonzero;fill:rgb(100%,100%,100%);fill-opacity:0.6;" d="M 4.75 5.5 C 4.613281 5.5 4.5 5.613281 4.5 5.75 L 4.5 6 C 4.5 5.863281 4.613281 5.75 4.75 5.75 L 6.1875 5.75 C 6.914062 5.75 7.5 6.335938 7.5 7.0625 L 7.5 6.8125 C 7.5 6.085938 6.914062 5.5 6.1875 5.5 Z M 6.484375 7.125 C 6.429688 7.339844 6.234375 7.5 6 7.5 L 5.5 7.5 L 5.5 7.75 L 6 7.75 C 6.277344 7.75 6.5 7.527344 6.5 7.25 C 6.5 7.207031 6.496094 7.164062 6.484375 7.125 Z M 6.484375 7.125 "/>
<path style=" stroke:none;fill-rule:nonzero;fill:rgb(0%,0%,0%);fill-opacity:0.4;" d="M 5.5 6.5 L 5.5 6.75 L 6 6.75 C 6.234375 6.75 6.429688 6.910156 6.484375 7.125 C 6.496094 7.085938 6.5 7.042969 6.5 7 C 6.5 6.722656 6.277344 6.5 6 6.5 Z M 7.5 7.1875 C 7.5 7.914062 6.914062 8.5 6.1875 8.5 L 5.8125 8.5 C 5.703125 8.5 5.601562 8.488281 5.5 8.460938 L 5.5 8.714844 C 5.601562 8.738281 5.703125 8.75 5.8125 8.75 L 6.1875 8.75 C 6.914062 8.75 7.5 8.167969 7.5 7.4375 Z M 4.5 10.25 L 4.5 10.5 C 4.5 10.640625 4.613281 10.75 4.75 10.75 L 5.25 10.75 C 5.386719 10.75 5.5 10.640625 5.5 10.5 L 5.5 10.25 C 5.5 10.386719 5.386719 10.5 5.25 10.5 L 4.75 10.5 C 4.613281 10.5 4.5 10.386719 4.5 10.25 Z M 4.5 10.25 "/>
<path style=" stroke:none;fill-rule:nonzero;fill:rgb(93.333334%,93.333334%,93.333334%);fill-opacity:1;" d="M 8.75 5.5 C 8.746094 5.5 8.742188 5.5 8.738281 5.5 C 8.734375 5.5 8.730469 5.5 8.722656 5.5 C 8.71875 5.5 8.714844 5.503906 8.710938 5.503906 C 8.707031 5.503906 8.703125 5.503906 8.699219 5.503906 C 8.695312 5.507812 8.691406 5.507812 8.6875 5.507812 C 8.683594 5.507812 8.679688 5.511719 8.675781 5.511719 C 8.671875 5.511719 8.667969 5.515625 8.664062 5.515625 C 8.660156 5.515625 8.65625 5.519531 8.652344 5.519531 C 8.644531 5.523438 8.636719 5.527344 8.628906 5.53125 C 8.628906 5.53125 8.625 5.535156 8.621094 5.535156 C 8.617188 5.539062 8.613281 5.539062 8.609375 5.542969 C 8.601562 5.546875 8.597656 5.554688 8.589844 5.558594 C 8.585938 5.5625 8.578125 5.570312 8.574219 5.574219 C 8.566406 5.578125 8.5625 5.585938 8.558594 5.589844 C 8.550781 5.597656 8.546875 5.605469 8.542969 5.609375 C 8.539062 5.613281 8.539062 5.617188 8.535156 5.621094 C 8.535156 5.625 8.53125 5.628906 8.53125 5.632812 C 8.527344 5.636719 8.523438 5.644531 8.519531 5.652344 C 8.519531 5.65625 8.515625 5.660156 8.515625 5.664062 C 8.515625 5.667969 8.511719 5.671875 8.511719 5.675781 C 8.511719 5.679688 8.507812 5.683594 8.507812 5.6875 C 8.507812 5.691406 8.503906 5.695312 8.503906 5.699219 C 8.503906 5.703125 8.503906 5.710938 8.503906 5.714844 C 8.503906 5.714844 8.5 5.722656 8.5 5.726562 C 8.5 5.730469 8.5 5.734375 8.5 5.738281 C 8.5 5.742188 8.5 5.746094 8.5 5.75 L 8.5 10.25 C 8.5 10.390625 8.613281 10.5 8.75 10.5 L 11.25 10.5 C 11.386719 10.5 11.5 10.390625 11.5 10.25 L 11.5 9.75 C 11.5 9.613281 11.386719 9.5 11.25 9.5 L 9.5 9.5 L 9.5 8.5 L 10.75 8.5 C 10.886719 8.5 11 8.390625 11 8.25 L 11 7.75 C 11 7.613281 10.886719 7.5 10.75 7.5 L 9.5 7.5 L 9.5 6.5 L 11.25 6.5 C 11.386719 6.5 11.5 6.390625 11.5 6.25 L 11.5 5.75 C 11.5 5.613281 11.386719 5.5 11.25 5.5 Z M 8.75 5.5 "/>
<path style=" stroke:none;fill-rule:nonzero;fill:rgb(100%,100%,100%);fill-opacity:0.6;" d="M 8.75 5.5 C 8.746094 5.5 8.742188 5.5 8.738281 5.5 C 8.734375 5.5 8.730469 5.5 8.726562 5.5 C 8.71875 5.5 8.714844 5.503906 8.710938 5.503906 C 8.707031 5.503906 8.703125 5.503906 8.699219 5.503906 C 8.695312 5.507812 8.691406 5.507812 8.6875 5.507812 C 8.683594 5.507812 8.679688 5.511719 8.675781 5.511719 C 8.671875 5.511719 8.667969 5.515625 8.664062 5.515625 C 8.660156 5.515625 8.65625 5.519531 8.652344 5.519531 C 8.644531 5.523438 8.636719 5.527344 8.632812 5.53125 C 8.628906 5.53125 8.625 5.535156 8.621094 5.535156 C 8.617188 5.539062 8.613281 5.539062 8.609375 5.542969 C 8.601562 5.546875 8.597656 5.554688 8.589844 5.558594 C 8.585938 5.5625 8.578125 5.570312 8.574219 5.574219 C 8.566406 5.578125 8.5625 5.585938 8.558594 5.59375 C 8.550781 5.597656 8.546875 5.605469 8.542969 5.609375 C 8.539062 5.613281 8.539062 5.617188 8.535156 5.621094 C 8.535156 5.625 8.53125 5.628906 8.53125 5.632812 C 8.527344 5.636719 8.523438 5.644531 8.519531 5.652344 C 8.519531 5.65625 8.515625 5.660156 8.515625 5.664062 C 8.515625 5.667969 8.511719 5.671875 8.511719 5.675781 C 8.511719 5.679688 8.507812 5.683594 8.507812 5.6875 C 8.507812 5.691406 8.503906 5.695312 8.503906 5.699219 C 8.503906 5.703125 8.503906 5.710938 8.503906 5.710938 C 8.503906 5.714844 8.5 5.722656 8.5 5.726562 C 8.5 5.730469 8.5 5.734375 8.5 5.738281 C 8.5 5.742188 8.5 5.746094 8.5 5.75 L 8.5 6 C 8.5 5.996094 8.5 5.992188 8.5 5.988281 C 8.5 5.984375 8.5 5.976562 8.5 5.976562 C 8.5 5.96875 8.503906 5.964844 8.503906 5.960938 C 8.503906 5.957031 8.503906 5.953125 8.503906 5.949219 C 8.503906 5.945312 8.507812 5.941406 8.507812 5.9375 C 8.507812 5.933594 8.511719 5.929688 8.511719 5.925781 C 8.511719 5.921875 8.515625 5.917969 8.515625 5.914062 C 8.515625 5.910156 8.519531 5.90625 8.519531 5.902344 C 8.523438 5.894531 8.527344 5.886719 8.53125 5.882812 C 8.53125 5.878906 8.535156 5.875 8.535156 5.871094 C 8.539062 5.867188 8.539062 5.863281 8.542969 5.859375 C 8.546875 5.851562 8.550781 5.847656 8.558594 5.839844 C 8.5625 5.835938 8.566406 5.828125 8.574219 5.824219 C 8.578125 5.816406 8.585938 5.8125 8.589844 5.808594 C 8.597656 5.800781 8.601562 5.796875 8.609375 5.792969 C 8.613281 5.789062 8.617188 5.789062 8.621094 5.785156 C 8.625 5.785156 8.628906 5.78125 8.632812 5.78125 C 8.636719 5.777344 8.644531 5.773438 8.652344 5.769531 C 8.65625 5.769531 8.660156 5.765625 8.664062 5.765625 C 8.667969 5.765625 8.671875 5.761719 8.675781 5.761719 C 8.679688 5.757812 8.683594 5.757812 8.6875 5.757812 C 8.691406 5.757812 8.695312 5.753906 8.699219 5.753906 C 8.703125 5.753906 8.707031 5.753906 8.710938 5.753906 C 8.714844 5.75 8.71875 5.75 8.726562 5.75 C 8.730469 5.75 8.734375 5.75 8.738281 5.75 C 8.742188 5.75 8.746094 5.75 8.75 5.75 L 11.25 5.75 C 11.386719 5.75 11.5 5.863281 11.5 6 L 11.5 5.75 C 11.5 5.613281 11.386719 5.5 11.25 5.5 Z M 9.5 7.5 L 9.5 7.75 L 10.75 7.75 C 10.886719 7.75 11 7.863281 11 8 L 11 7.75 C 11 7.613281 10.886719 7.5 10.75 7.5 Z M 9.5 9.5 L 9.5 9.75 L 11.25 9.75 C 11.386719 9.75 11.5 9.863281 11.5 10 L 11.5 9.75 C 11.5 9.613281 11.386719 9.5 11.25 9.5 Z M 9.5 9.5 "/>
<path style=" stroke:none;fill-rule:nonzero;fill:rgb(0%,0%,0%);fill-opacity:0.4;" d="M 8.75 10.75 C 8.746094 10.75 8.742188 10.75 8.738281 10.75 C 8.734375 10.75 8.730469 10.75 8.726562 10.75 C 8.71875 10.75 8.714844 10.75 8.710938 10.746094 C 8.707031 10.746094 8.703125 10.746094 8.699219 10.746094 C 8.695312 10.746094 8.691406 10.742188 8.6875 10.742188 C 8.683594 10.742188 8.679688 10.742188 8.675781 10.738281 C 8.671875 10.738281 8.667969 10.734375 8.664062 10.734375 C 8.660156 10.734375 8.65625 10.734375 8.652344 10.730469 C 8.644531 10.726562 8.636719 10.722656 8.632812 10.71875 C 8.628906 10.71875 8.625 10.714844 8.621094 10.714844 C 8.617188 10.710938 8.613281 10.710938 8.609375 10.707031 C 8.601562 10.703125 8.597656 10.699219 8.589844 10.691406 C 8.585938 10.6875 8.578125 10.683594 8.574219 10.675781 C 8.566406 10.671875 8.5625 10.664062 8.558594 10.660156 C 8.550781 10.652344 8.546875 10.648438 8.542969 10.640625 C 8.539062 10.636719 8.539062 10.632812 8.535156 10.628906 C 8.535156 10.625 8.53125 10.621094 8.53125 10.621094 C 8.527344 10.613281 8.523438 10.605469 8.519531 10.597656 C 8.519531 10.59375 8.515625 10.589844 8.515625 10.585938 C 8.515625 10.582031 8.511719 10.578125 8.511719 10.574219 C 8.511719 10.570312 8.507812 10.566406 8.507812 10.5625 C 8.507812 10.558594 8.503906 10.554688 8.503906 10.550781 C 8.503906 10.546875 8.503906 10.542969 8.503906 10.539062 C 8.503906 10.535156 8.5 10.53125 8.5 10.527344 C 8.5 10.523438 8.5 10.515625 8.5 10.511719 C 8.5 10.507812 8.5 10.503906 8.5 10.5 L 8.5 10.25 C 8.5 10.253906 8.5 10.257812 8.5 10.265625 C 8.5 10.269531 8.5 10.273438 8.5 10.277344 C 8.5 10.28125 8.503906 10.285156 8.503906 10.289062 C 8.503906 10.292969 8.503906 10.296875 8.503906 10.300781 C 8.503906 10.304688 8.507812 10.308594 8.507812 10.3125 C 8.507812 10.316406 8.511719 10.320312 8.511719 10.324219 C 8.511719 10.328125 8.515625 10.332031 8.515625 10.335938 C 8.515625 10.339844 8.519531 10.34375 8.519531 10.347656 C 8.523438 10.355469 8.527344 10.363281 8.53125 10.371094 C 8.53125 10.375 8.535156 10.375 8.535156 10.382812 C 8.539062 10.386719 8.539062 10.386719 8.542969 10.390625 C 8.546875 10.398438 8.550781 10.402344 8.558594 10.410156 C 8.5625 10.417969 8.566406 10.421875 8.574219 10.429688 C 8.578125 10.433594 8.585938 10.4375 8.589844 10.445312 C 8.597656 10.449219 8.601562 10.453125 8.609375 10.457031 C 8.613281 10.460938 8.617188 10.464844 8.621094 10.464844 C 8.625 10.46875 8.628906 10.46875 8.632812 10.472656 C 8.636719 10.476562 8.644531 10.476562 8.652344 10.480469 C 8.65625 10.484375 8.660156 10.484375 8.664062 10.488281 C 8.667969 10.488281 8.671875 10.488281 8.675781 10.488281 C 8.679688 10.492188 8.683594 10.492188 8.6875 10.492188 C 8.691406 10.496094 8.695312 10.496094 8.699219 10.496094 C 8.703125 10.496094 8.707031 10.496094 8.710938 10.5 C 8.714844 10.5 8.71875 10.5 8.726562 10.5 C 8.730469 10.5 8.734375 10.5 8.738281 10.5 C 8.742188 10.5 8.746094 10.503906 8.75 10.503906 L 9.25 10.5 L 11.25 10.5 C 11.386719 10.5 11.5 10.390625 11.5 10.25 L 11.5 10.5 C 11.5 10.636719 11.386719 10.75 11.25 10.75 Z M 9.5 8.75 L 9.5 8.5 L 10.75 8.5 C 10.886719 8.5 11 8.390625 11 8.25 L 11 8.5 C 11 8.636719 10.886719 8.75 10.75 8.75 Z M 9.5 6.75 L 9.5 6.5 L 11.25 6.5 C 11.386719 6.5 11.5 6.390625 11.5 6.25 L 11.5 6.5 C 11.5 6.636719 11.386719 6.75 11.25 6.75 Z M 9.5 6.75 "/>
<path style=" stroke:none;fill-rule:nonzero;fill:url(#linear0);" d="M 2 1 L 14 1 C 14.550781 1 15 1.449219 15 2 L 15 14 C 15 14.550781 14.550781 15 14 15 L 2 15 C 1.449219 15 1 14.550781 1 14 L 1 2 C 1 1.449219 1.449219 1 2 1 Z M 2 1 "/>
</g>
</svg>
