
<svg xmlns="http://www.w3.org/2000/svg" xmlns:xlink="http://www.w3.org/1999/xlink" width="16" height="16" viewBox="0 0 16 16" version="1.1">
<defs>
<linearGradient id="linear0" gradientUnits="userSpaceOnUse" x1="31.999998" y1="59.999996" x2="31.999998" y2="4" gradientTransform="matrix(0.25,0,0,0.25,0,0)">
<stop offset="0" style="stop-color:rgb(0%,0%,0%);stop-opacity:0.2;"/>
<stop offset="1" style="stop-color:rgb(100%,100%,100%);stop-opacity:0;"/>
</linearGradient>
</defs>
<g id="surface1">
<path style=" stroke:none;fill-rule:nonzero;fill:rgb(98.431373%,54.901963%,0%);fill-opacity:1;" d="M 15 1.398438 L 15 3.601562 C 15 3.910156 14.792969 4.179688 14.492188 4.257812 L 1.507812 7.617188 C 1.386719 7.648438 1.257812 7.625 1.15625 7.546875 C 1.058594 7.46875 1 7.351562 1 7.226562 L 1 5.023438 C 1 4.714844 1.207031 4.445312 1.507812 4.367188 L 14.492188 1.007812 C 14.613281 0.976562 14.742188 1 14.84375 1.078125 C 14.941406 1.15625 15 1.273438 15 1.398438 Z M 15 1.398438 "/>
<path style=" stroke:none;fill-rule:nonzero;fill:rgb(0.784314%,0.784314%,0.784314%);fill-opacity:0.4;" d="M 1.402344 7.632812 C 1.4375 7.632812 1.472656 7.628906 1.507812 7.621094 L 14.492188 4.257812 C 14.792969 4.179688 15 3.910156 15 3.601562 L 15 3.347656 C 15 3.65625 14.792969 3.925781 14.492188 4.003906 L 1.507812 7.363281 C 1.386719 7.394531 1.257812 7.371094 1.15625 7.292969 C 1.058594 7.214844 1 7.097656 1 6.972656 L 1 7.226562 C 1 7.449219 1.179688 7.632812 1.402344 7.632812 Z M 1.402344 7.632812 "/>
<path style=" stroke:none;fill-rule:nonzero;fill:rgb(100%,100%,100%);fill-opacity:0.4;" d="M 14.597656 0.992188 C 14.5625 0.992188 14.527344 0.996094 14.492188 1.007812 L 1.507812 4.367188 C 1.207031 4.445312 1 4.714844 1 5.023438 L 1 5.277344 C 1 4.96875 1.207031 4.699219 1.507812 4.625 L 14.492188 1.261719 C 14.613281 1.230469 14.742188 1.257812 14.84375 1.332031 C 14.941406 1.410156 15 1.527344 15 1.652344 L 15 1.398438 C 15 1.175781 14.820312 0.996094 14.597656 0.992188 Z M 14.597656 0.992188 "/>
<path style=" stroke:none;fill-rule:nonzero;fill:rgb(98.431373%,54.901963%,0%);fill-opacity:1;" d="M 15 8.773438 L 15 10.976562 C 15 11.285156 14.792969 11.554688 14.492188 11.632812 L 1.507812 14.996094 C 1.386719 15.027344 1.257812 15 1.15625 14.921875 C 1.058594 14.847656 1 14.726562 1 14.601562 L 1 12.398438 C 1 12.089844 1.207031 11.824219 1.507812 11.746094 L 14.492188 8.382812 C 14.613281 8.351562 14.742188 8.378906 14.84375 8.453125 C 14.941406 8.53125 15 8.648438 15 8.773438 Z M 15 8.773438 "/>
<path style=" stroke:none;fill-rule:nonzero;fill:rgb(0.784314%,0.784314%,0.784314%);fill-opacity:0.4;" d="M 1.402344 15.007812 C 1.4375 15.007812 1.472656 15.003906 1.507812 14.996094 L 14.492188 11.632812 C 14.792969 11.554688 15 11.289062 15 10.980469 L 15 10.722656 C 15 11.03125 14.792969 11.300781 14.492188 11.378906 L 1.507812 14.742188 C 1.386719 14.773438 1.257812 14.746094 1.15625 14.667969 C 1.058594 14.59375 1 14.472656 1 14.347656 L 1 14.605469 C 1 14.828125 1.179688 15.007812 1.402344 15.007812 Z M 1.402344 15.007812 "/>
<path style=" stroke:none;fill-rule:nonzero;fill:rgb(100%,100%,100%);fill-opacity:0.4;" d="M 14.597656 8.371094 C 14.5625 8.371094 14.527344 8.375 14.492188 8.382812 L 1.507812 11.746094 C 1.207031 11.824219 1 12.089844 1 12.398438 L 1 12.65625 C 1 12.347656 1.207031 12.078125 1.507812 12 L 14.492188 8.636719 C 14.613281 8.605469 14.742188 8.632812 14.84375 8.710938 C 14.941406 8.785156 15 8.90625 15 9.03125 L 15 8.773438 C 15 8.550781 14.820312 8.371094 14.597656 8.371094 Z M 14.597656 8.371094 "/>
<path style=" stroke:none;fill-rule:nonzero;fill:rgb(100%,65.490198%,14.901961%);fill-opacity:1;" d="M 1.546875 4.359375 L 1.507812 4.367188 C 1.207031 4.445312 1 4.714844 1 5.023438 L 1 7.289062 C 1 7.597656 1.207031 7.867188 1.507812 7.945312 L 14.4375 11.292969 C 14.503906 11.324219 14.550781 11.390625 14.550781 11.472656 C 14.550781 11.546875 14.511719 11.609375 14.453125 11.644531 L 14.492188 11.632812 C 14.792969 11.554688 15 11.285156 15 10.976562 L 15 8.710938 C 15 8.402344 14.792969 8.132812 14.492188 8.054688 L 1.558594 4.707031 C 1.492188 4.675781 1.449219 4.609375 1.449219 4.53125 C 1.449219 4.457031 1.488281 4.390625 1.546875 4.359375 Z M 1.546875 4.359375 "/>
<path style=" stroke:none;fill-rule:nonzero;fill:rgb(100%,100%,100%);fill-opacity:0.4;" d="M 1.546875 4.359375 L 1.507812 4.367188 C 1.207031 4.445312 1 4.714844 1 5.023438 L 1 5.277344 C 1 4.980469 1.195312 4.722656 1.476562 4.632812 C 1.460938 4.605469 1.449219 4.566406 1.449219 4.53125 C 1.449219 4.457031 1.488281 4.390625 1.546875 4.359375 Z M 1.496094 4.65625 C 1.464844 4.691406 1.449219 4.734375 1.449219 4.785156 C 1.449219 4.863281 1.492188 4.929688 1.558594 4.960938 L 14.492188 8.3125 C 14.792969 8.386719 15 8.65625 15 8.964844 L 15 8.710938 C 15 8.402344 14.792969 8.132812 14.492188 8.054688 L 1.558594 4.707031 C 1.535156 4.695312 1.515625 4.675781 1.496094 4.65625 Z M 14.503906 11.597656 C 14.488281 11.613281 14.472656 11.632812 14.453125 11.644531 L 14.492188 11.632812 C 14.503906 11.628906 14.511719 11.625 14.523438 11.625 C 14.515625 11.613281 14.511719 11.605469 14.503906 11.597656 Z M 14.503906 11.597656 "/>
<path style=" stroke:none;fill-rule:nonzero;fill:rgb(0.784314%,0.784314%,0.784314%);fill-opacity:0.4;" d="M 14.453125 11.644531 L 14.492188 11.632812 C 14.792969 11.554688 15 11.289062 15 10.980469 L 15 10.722656 C 15 11.019531 14.804688 11.28125 14.523438 11.367188 C 14.539062 11.398438 14.550781 11.433594 14.550781 11.472656 C 14.550781 11.546875 14.511719 11.609375 14.449219 11.644531 Z M 14.503906 11.347656 C 14.535156 11.3125 14.550781 11.265625 14.550781 11.21875 C 14.550781 11.140625 14.507812 11.070312 14.441406 11.039062 L 1.507812 7.691406 C 1.207031 7.613281 1 7.34375 1 7.035156 L 1 7.292969 C 1 7.601562 1.207031 7.867188 1.507812 7.945312 L 14.441406 11.296875 C 14.464844 11.308594 14.484375 11.324219 14.503906 11.347656 Z M 14.503906 11.347656 "/>
<path style=" stroke:none;fill-rule:nonzero;fill:rgb(0%,0%,0%);fill-opacity:0.2;" d="M 15 3.601562 C 15 3.910156 14.792969 4.179688 14.492188 4.257812 L 7.15625 6.15625 L 7.855469 6.335938 L 14.492188 4.621094 C 14.792969 4.542969 15 4.273438 15 3.964844 Z M 1 7.289062 L 1 7.652344 C 1 7.960938 1.207031 8.230469 1.507812 8.308594 L 8.144531 10.027344 L 8.847656 9.84375 L 1.507812 7.945312 C 1.207031 7.867188 1 7.597656 1 7.289062 Z M 15 10.996094 C 15 11.039062 14.992188 11.082031 14.984375 11.125 C 14.972656 11.171875 14.957031 11.21875 14.9375 11.265625 C 14.914062 11.308594 14.890625 11.351562 14.859375 11.390625 C 14.828125 11.429688 14.792969 11.464844 14.753906 11.5 C 14.753906 11.5 14.75 11.5 14.75 11.503906 C 14.714844 11.53125 14.675781 11.554688 14.636719 11.578125 C 14.632812 11.578125 14.628906 11.582031 14.625 11.582031 C 14.585938 11.601562 14.542969 11.617188 14.5 11.628906 C 14.5 11.632812 14.496094 11.632812 14.492188 11.632812 L 1.507812 14.996094 C 1.386719 15.027344 1.257812 15 1.15625 14.921875 C 1.058594 14.847656 1 14.726562 1 14.601562 L 1 14.964844 C 1 15.089844 1.058594 15.210938 1.15625 15.285156 C 1.257812 15.363281 1.386719 15.390625 1.507812 15.359375 L 14.492188 11.996094 C 14.496094 11.996094 14.5 11.996094 14.5 11.992188 C 14.542969 11.980469 14.585938 11.964844 14.625 11.945312 C 14.628906 11.945312 14.632812 11.941406 14.636719 11.941406 C 14.675781 11.917969 14.714844 11.894531 14.75 11.867188 C 14.75 11.863281 14.753906 11.863281 14.753906 11.859375 C 14.792969 11.828125 14.828125 11.792969 14.859375 11.753906 C 14.890625 11.714844 14.914062 11.671875 14.9375 11.628906 C 14.957031 11.582031 14.972656 11.535156 14.984375 11.488281 C 14.996094 11.441406 15 11.390625 15 11.339844 Z M 15 10.996094 "/>
<path style=" stroke:none;fill-rule:nonzero;fill:url(#linear0);" d="M 14.597656 0.992188 C 14.5625 0.992188 14.527344 0.996094 14.492188 1.007812 L 1.546875 4.359375 L 1.507812 4.367188 C 1.445312 4.386719 1.382812 4.414062 1.328125 4.449219 C 1.3125 4.457031 1.300781 4.464844 1.285156 4.476562 C 1.230469 4.511719 1.183594 4.558594 1.140625 4.609375 C 1.101562 4.664062 1.070312 4.71875 1.046875 4.78125 C 1.042969 4.796875 1.035156 4.8125 1.03125 4.828125 C 1.011719 4.890625 1 4.957031 1 5.023438 L 1 7.289062 C 1 7.597656 1.207031 7.867188 1.507812 7.945312 L 8.847656 9.84375 L 1.507812 11.746094 C 1.207031 11.824219 1 12.089844 1 12.398438 L 1 14.601562 C 1 14.726562 1.058594 14.847656 1.15625 14.921875 C 1.257812 15 1.386719 15.027344 1.507812 14.996094 L 14.492188 11.632812 C 14.496094 11.632812 14.5 11.632812 14.5 11.628906 C 14.542969 11.617188 14.585938 11.601562 14.625 11.582031 C 14.628906 11.582031 14.632812 11.578125 14.636719 11.578125 C 14.675781 11.554688 14.714844 11.53125 14.75 11.503906 C 14.75 11.5 14.753906 11.5 14.753906 11.5 C 14.792969 11.464844 14.828125 11.429688 14.859375 11.390625 C 14.890625 11.351562 14.914062 11.308594 14.9375 11.265625 C 14.957031 11.21875 14.972656 11.171875 14.984375 11.125 C 14.996094 11.078125 15 11.027344 15 10.976562 L 15 8.710938 C 15 8.402344 14.792969 8.132812 14.492188 8.054688 L 7.15625 6.15625 L 14.492188 4.257812 C 14.792969 4.179688 15 3.910156 15 3.601562 L 15 1.398438 C 15 1.175781 14.820312 0.996094 14.597656 0.992188 Z M 14.597656 0.992188 "/>
</g>
</svg>
