
<svg xmlns="http://www.w3.org/2000/svg" xmlns:xlink="http://www.w3.org/1999/xlink" width="24" height="24" viewBox="0 0 24 24" version="1.1">
<defs>
<linearGradient id="linear0" gradientUnits="userSpaceOnUse" x1="31.999998" y1="60" x2="31.999998" y2="4" gradientTransform="matrix(0.375,0,0,0.375,-0.000000283465,0.000000000000042633)">
<stop offset="0" style="stop-color:rgb(0%,0%,0%);stop-opacity:0.2;"/>
<stop offset="1" style="stop-color:rgb(100%,100%,100%);stop-opacity:0;"/>
</linearGradient>
</defs>
<g id="surface1">
<path style=" stroke:none;fill-rule:nonzero;fill:rgb(49.411765%,34.117648%,76.078433%);fill-opacity:1;" d="M 15 1.5 L 4.875 1.5 C 4.25 1.5 3.75 2 3.75 2.625 L 3.75 21.375 C 3.75 22 4.25 22.5 4.875 22.5 L 19.125 22.5 C 19.75 22.5 20.25 22 20.25 21.375 L 20.25 6.75 Z M 15 1.5 "/>
<path style=" stroke:none;fill-rule:nonzero;fill:rgb(0%,0%,0%);fill-opacity:0.4;" d="M 15 5.625 L 15 6 C 15 6.625 15.5 7.125 16.125 7.125 L 20.25 7.125 L 19.875 6.75 L 16.125 6.75 C 15.5 6.75 15 6.25 15 5.625 Z M 15 5.625 "/>
<path style=" stroke:none;fill-rule:nonzero;fill:rgb(58.431375%,45.882353%,80.392158%);fill-opacity:0.996078;" d="M 20.25 6.75 L 15 1.5 L 15 5.625 C 15 6.25 15.5 6.75 16.125 6.75 Z M 20.25 6.75 "/>
<path style=" stroke:none;fill-rule:nonzero;fill:rgb(100%,100%,100%);fill-opacity:0.4;" d="M 4.875 1.5 C 4.25 1.5 3.75 2 3.75 2.625 L 3.75 3 C 3.75 2.375 4.25 1.875 4.875 1.875 L 15 1.875 L 20.25 7.125 L 20.25 6.75 L 15 1.5 Z M 4.875 1.5 "/>
<path style=" stroke:none;fill-rule:nonzero;fill:rgb(0%,0%,0%);fill-opacity:0.2;" d="M 3.75 21.371094 L 3.75 21.9375 C 3.75 22.5625 4.25 23.0625 4.875 23.0625 L 19.125 23.0625 C 19.75 23.0625 20.25 22.5625 20.25 21.9375 L 20.25 21.371094 C 20.25 21.992188 19.75 22.496094 19.125 22.496094 L 4.875 22.496094 C 4.25 22.496094 3.75 21.992188 3.75 21.371094 Z M 3.75 21.371094 "/>
<path style=" stroke:none;fill-rule:nonzero;fill:rgb(0%,0%,0%);fill-opacity:0.4;" d="M 3.75 21.046875 L 3.75 21.375 C 3.75 22 4.25 22.5 4.875 22.5 L 19.125 22.5 C 19.75 22.5 20.25 22 20.25 21.375 L 20.25 21.046875 C 20.25 21.671875 19.75 22.171875 19.125 22.171875 L 4.875 22.171875 C 4.25 22.171875 3.75 21.671875 3.75 21.046875 Z M 3.75 21.046875 "/>
<path style=" stroke:none;fill-rule:nonzero;fill:rgb(70.19608%,61.56863%,85.882354%);fill-opacity:1;" d="M 12 9 C 9.921875 9 8.25 9.320312 8.25 9.71875 L 8.25 9.90625 C 8.25 9.882812 8.253906 9.863281 8.265625 9.84375 C 8.425781 10.214844 10.03125 10.5 12 10.5 C 13.96875 10.5 15.574219 10.214844 15.734375 9.84375 C 15.746094 9.863281 15.75 9.882812 15.75 9.90625 L 15.75 9.71875 C 15.75 9.320312 14.078125 9 12 9 Z M 8.25 9.96875 L 8.25 11.371094 C 8.25 11.355469 8.253906 11.339844 8.257812 11.328125 C 8.375 11.703125 10 12 12 12 C 14 12 15.625 11.703125 15.742188 11.328125 C 15.746094 11.339844 15.75 11.355469 15.75 11.371094 L 15.75 9.96875 C 15.75 10.367188 14.078125 10.6875 12 10.6875 C 9.921875 10.6875 8.25 10.367188 8.25 9.96875 Z M 8.25 11.4375 L 8.25 12.871094 C 8.25 12.851562 8.253906 12.832031 8.261719 12.808594 C 8.421875 13.179688 10.027344 13.46875 12 13.46875 C 13.972656 13.46875 15.578125 13.179688 15.738281 12.808594 C 15.746094 12.832031 15.75 12.851562 15.75 12.871094 L 15.75 11.4375 C 15.75 11.835938 14.078125 12.15625 12 12.15625 C 9.921875 12.15625 8.25 11.835938 8.25 11.4375 Z M 8.25 12.9375 L 8.25 14.40625 C 8.25 14.378906 8.257812 14.351562 8.269531 14.328125 C 8.472656 14.6875 10.058594 14.96875 12 14.96875 C 13.941406 14.96875 15.527344 14.6875 15.730469 14.328125 C 15.742188 14.351562 15.75 14.378906 15.75 14.40625 L 15.75 12.9375 C 15.75 13.335938 14.078125 13.65625 12 13.65625 C 9.921875 13.65625 8.25 13.335938 8.25 12.9375 Z M 8.25 14.46875 L 8.25 15.78125 C 8.25 16.179688 9.921875 16.5 12 16.5 C 14.078125 16.5 15.75 16.179688 15.75 15.78125 L 15.75 14.46875 C 15.75 14.867188 14.078125 15.1875 12 15.1875 C 9.921875 15.1875 8.25 14.867188 8.25 14.46875 Z M 8.25 14.46875 "/>
<path style=" stroke:none;fill-rule:nonzero;fill:rgb(92.54902%,92.54902%,92.54902%);fill-opacity:0.4;" d="M 12 9 C 9.921875 9 8.25 9.320312 8.25 9.71875 L 8.25 9.90625 C 8.25 9.894531 8.25 9.886719 8.253906 9.875 C 8.335938 9.492188 9.976562 9.1875 12 9.1875 C 14.023438 9.1875 15.664062 9.492188 15.746094 9.875 C 15.75 9.886719 15.75 9.894531 15.75 9.90625 L 15.75 9.71875 C 15.75 9.320312 14.078125 9 12 9 Z M 8.265625 10.03125 C 8.253906 10.050781 8.25 10.070312 8.25 10.09375 L 8.25 10.15625 C 8.25 10.554688 9.921875 10.875 12 10.875 C 14.078125 10.875 15.75 10.554688 15.75 10.15625 L 15.75 10.09375 C 15.75 10.070312 15.746094 10.050781 15.734375 10.03125 C 15.734375 10.035156 15.734375 10.035156 15.734375 10.039062 C 15.730469 10.042969 15.730469 10.042969 15.726562 10.046875 C 15.726562 10.046875 15.726562 10.050781 15.726562 10.050781 C 15.722656 10.058594 15.714844 10.070312 15.707031 10.078125 C 15.699219 10.089844 15.6875 10.105469 15.671875 10.117188 C 15.660156 10.128906 15.648438 10.136719 15.632812 10.148438 C 15.632812 10.152344 15.628906 10.152344 15.628906 10.152344 C 15.617188 10.160156 15.605469 10.167969 15.59375 10.175781 C 15.585938 10.179688 15.578125 10.183594 15.570312 10.1875 C 15.539062 10.210938 15.503906 10.230469 15.460938 10.246094 C 15.460938 10.25 15.457031 10.25 15.457031 10.25 C 15.453125 10.25 15.453125 10.25 15.453125 10.253906 C 15.40625 10.273438 15.355469 10.292969 15.296875 10.3125 C 15.242188 10.332031 15.183594 10.351562 15.121094 10.367188 C 15.117188 10.371094 15.113281 10.371094 15.109375 10.371094 C 15.109375 10.371094 15.105469 10.375 15.101562 10.375 C 14.976562 10.410156 14.832031 10.441406 14.679688 10.472656 C 14.675781 10.472656 14.671875 10.472656 14.667969 10.476562 C 14.652344 10.476562 14.632812 10.480469 14.617188 10.484375 C 14.542969 10.5 14.464844 10.511719 14.386719 10.523438 C 14.296875 10.539062 14.199219 10.550781 14.097656 10.566406 C 14.003906 10.578125 13.90625 10.589844 13.808594 10.597656 C 13.796875 10.601562 13.789062 10.601562 13.777344 10.601562 C 13.675781 10.613281 13.574219 10.621094 13.464844 10.632812 C 13.464844 10.632812 13.464844 10.632812 13.460938 10.632812 C 13.355469 10.640625 13.246094 10.648438 13.136719 10.652344 C 13.121094 10.65625 13.105469 10.65625 13.085938 10.65625 C 13.078125 10.65625 13.070312 10.65625 13.0625 10.65625 C 12.96875 10.664062 12.875 10.667969 12.78125 10.671875 C 12.773438 10.671875 12.765625 10.671875 12.757812 10.671875 C 12.746094 10.671875 12.730469 10.675781 12.71875 10.675781 C 12.625 10.679688 12.527344 10.679688 12.429688 10.683594 C 12.40625 10.683594 12.386719 10.683594 12.363281 10.683594 C 12.355469 10.683594 12.34375 10.683594 12.335938 10.683594 C 12.226562 10.6875 12.113281 10.6875 12 10.6875 C 11.886719 10.6875 11.773438 10.6875 11.664062 10.683594 C 11.65625 10.683594 11.644531 10.683594 11.636719 10.683594 C 11.613281 10.683594 11.59375 10.683594 11.570312 10.683594 C 11.472656 10.679688 11.375 10.679688 11.28125 10.675781 C 11.269531 10.675781 11.253906 10.671875 11.242188 10.671875 C 11.234375 10.671875 11.226562 10.671875 11.21875 10.671875 C 11.125 10.667969 11.03125 10.664062 10.9375 10.65625 C 10.929688 10.65625 10.921875 10.65625 10.914062 10.65625 C 10.894531 10.65625 10.878906 10.65625 10.863281 10.652344 C 10.753906 10.648438 10.644531 10.640625 10.539062 10.632812 C 10.539062 10.632812 10.535156 10.632812 10.535156 10.632812 C 10.425781 10.621094 10.324219 10.613281 10.222656 10.601562 C 10.210938 10.601562 10.203125 10.601562 10.191406 10.597656 C 10.09375 10.589844 9.996094 10.578125 9.902344 10.566406 C 9.800781 10.550781 9.703125 10.539062 9.613281 10.523438 C 9.535156 10.511719 9.457031 10.5 9.382812 10.484375 C 9.367188 10.480469 9.347656 10.476562 9.332031 10.476562 C 9.328125 10.472656 9.324219 10.472656 9.320312 10.472656 C 9.167969 10.441406 9.023438 10.410156 8.898438 10.375 C 8.898438 10.375 8.898438 10.375 8.894531 10.375 C 8.890625 10.371094 8.886719 10.371094 8.878906 10.367188 C 8.816406 10.351562 8.757812 10.332031 8.703125 10.3125 C 8.644531 10.292969 8.59375 10.273438 8.546875 10.253906 C 8.546875 10.25 8.542969 10.25 8.539062 10.246094 C 8.496094 10.230469 8.460938 10.210938 8.429688 10.1875 C 8.421875 10.183594 8.414062 10.179688 8.40625 10.175781 C 8.394531 10.167969 8.382812 10.160156 8.371094 10.152344 C 8.367188 10.152344 8.367188 10.148438 8.367188 10.148438 C 8.351562 10.136719 8.339844 10.128906 8.328125 10.117188 C 8.3125 10.105469 8.300781 10.089844 8.292969 10.078125 C 8.285156 10.070312 8.277344 10.058594 8.273438 10.050781 C 8.273438 10.050781 8.273438 10.046875 8.273438 10.046875 C 8.269531 10.042969 8.269531 10.042969 8.265625 10.039062 C 8.265625 10.035156 8.265625 10.035156 8.265625 10.03125 Z M 8.257812 11.515625 C 8.253906 11.527344 8.25 11.542969 8.25 11.558594 L 8.25 11.625 C 8.25 12.023438 9.921875 12.34375 12 12.34375 C 14.078125 12.34375 15.75 12.023438 15.75 11.625 L 15.75 11.558594 C 15.75 11.542969 15.746094 11.527344 15.742188 11.515625 C 15.625 11.890625 14 12.1875 12 12.1875 C 10 12.1875 8.375 11.890625 8.257812 11.515625 Z M 8.261719 12.996094 C 8.253906 13.019531 8.25 13.039062 8.25 13.058594 L 8.25 13.125 C 8.25 13.523438 9.921875 13.84375 12 13.84375 C 14.078125 13.84375 15.75 13.523438 15.75 13.125 L 15.75 13.058594 C 15.75 13.039062 15.746094 13.019531 15.738281 12.996094 C 15.734375 13 15.734375 13 15.734375 13.003906 C 15.730469 13.007812 15.730469 13.011719 15.726562 13.015625 C 15.726562 13.015625 15.726562 13.019531 15.726562 13.019531 C 15.71875 13.027344 15.714844 13.039062 15.707031 13.046875 C 15.691406 13.0625 15.675781 13.082031 15.65625 13.097656 C 15.652344 13.101562 15.652344 13.101562 15.648438 13.105469 C 15.640625 13.113281 15.628906 13.117188 15.617188 13.125 C 15.617188 13.128906 15.613281 13.128906 15.613281 13.132812 C 15.609375 13.132812 15.605469 13.132812 15.605469 13.136719 C 15.59375 13.144531 15.582031 13.152344 15.570312 13.15625 C 15.539062 13.175781 15.507812 13.191406 15.46875 13.210938 C 15.460938 13.214844 15.453125 13.21875 15.445312 13.222656 C 15.410156 13.238281 15.367188 13.253906 15.328125 13.269531 C 15.3125 13.273438 15.296875 13.28125 15.285156 13.285156 C 15.285156 13.285156 15.28125 13.285156 15.28125 13.285156 C 15.234375 13.300781 15.179688 13.320312 15.125 13.335938 C 15.121094 13.335938 15.117188 13.335938 15.109375 13.339844 C 15.109375 13.339844 15.105469 13.339844 15.101562 13.339844 C 15.039062 13.359375 14.972656 13.375 14.898438 13.394531 C 14.898438 13.394531 14.898438 13.394531 14.894531 13.394531 C 14.894531 13.394531 14.890625 13.394531 14.890625 13.394531 C 14.828125 13.410156 14.761719 13.421875 14.691406 13.4375 C 14.683594 13.4375 14.675781 13.441406 14.671875 13.441406 C 14.648438 13.445312 14.625 13.449219 14.601562 13.453125 C 14.535156 13.464844 14.46875 13.480469 14.398438 13.488281 C 14.390625 13.492188 14.378906 13.492188 14.375 13.492188 C 14.289062 13.507812 14.203125 13.519531 14.113281 13.53125 C 14.101562 13.53125 14.09375 13.53125 14.085938 13.535156 C 13.996094 13.546875 13.902344 13.554688 13.808594 13.566406 C 13.792969 13.566406 13.777344 13.570312 13.761719 13.570312 C 13.664062 13.582031 13.566406 13.589844 13.460938 13.597656 C 13.367188 13.605469 13.265625 13.613281 13.167969 13.617188 C 13.140625 13.621094 13.113281 13.621094 13.085938 13.625 C 13.078125 13.625 13.070312 13.625 13.0625 13.625 C 12.96875 13.628906 12.871094 13.636719 12.777344 13.640625 C 12.769531 13.640625 12.761719 13.640625 12.757812 13.640625 C 12.746094 13.640625 12.730469 13.640625 12.71875 13.640625 C 12.625 13.644531 12.527344 13.648438 12.429688 13.648438 C 12.40625 13.648438 12.386719 13.652344 12.363281 13.652344 C 12.355469 13.652344 12.34375 13.652344 12.335938 13.652344 C 12.226562 13.652344 12.113281 13.65625 12 13.65625 C 11.886719 13.65625 11.773438 13.652344 11.664062 13.652344 C 11.65625 13.652344 11.644531 13.652344 11.636719 13.652344 C 11.613281 13.652344 11.59375 13.648438 11.570312 13.648438 C 11.472656 13.648438 11.375 13.644531 11.28125 13.640625 C 11.265625 13.640625 11.253906 13.640625 11.242188 13.640625 C 11.238281 13.640625 11.230469 13.640625 11.222656 13.640625 C 11.128906 13.636719 11.03125 13.628906 10.9375 13.625 C 10.929688 13.625 10.921875 13.625 10.914062 13.625 C 10.886719 13.621094 10.859375 13.621094 10.832031 13.617188 C 10.734375 13.613281 10.632812 13.605469 10.539062 13.597656 C 10.433594 13.589844 10.335938 13.582031 10.238281 13.570312 C 10.222656 13.570312 10.207031 13.566406 10.191406 13.566406 C 10.097656 13.554688 10.003906 13.546875 9.914062 13.535156 C 9.90625 13.53125 9.898438 13.53125 9.886719 13.53125 C 9.796875 13.519531 9.710938 13.507812 9.625 13.492188 C 9.621094 13.492188 9.609375 13.492188 9.601562 13.488281 C 9.53125 13.480469 9.464844 13.464844 9.398438 13.453125 C 9.375 13.449219 9.351562 13.445312 9.328125 13.441406 C 9.324219 13.441406 9.316406 13.4375 9.308594 13.4375 C 9.238281 13.421875 9.171875 13.410156 9.109375 13.394531 C 9.109375 13.394531 9.105469 13.394531 9.101562 13.394531 C 9.027344 13.375 8.960938 13.359375 8.898438 13.339844 C 8.894531 13.339844 8.894531 13.339844 8.894531 13.339844 C 8.886719 13.339844 8.882812 13.335938 8.875 13.335938 C 8.820312 13.320312 8.765625 13.300781 8.71875 13.285156 C 8.71875 13.285156 8.714844 13.285156 8.714844 13.285156 C 8.703125 13.28125 8.6875 13.273438 8.671875 13.269531 C 8.632812 13.253906 8.589844 13.238281 8.554688 13.222656 C 8.546875 13.21875 8.539062 13.214844 8.53125 13.210938 C 8.492188 13.191406 8.460938 13.175781 8.429688 13.15625 C 8.417969 13.152344 8.40625 13.144531 8.394531 13.136719 C 8.390625 13.132812 8.386719 13.128906 8.382812 13.125 C 8.371094 13.117188 8.359375 13.113281 8.351562 13.105469 C 8.328125 13.085938 8.308594 13.066406 8.292969 13.046875 C 8.285156 13.039062 8.28125 13.027344 8.273438 13.019531 C 8.273438 13.019531 8.273438 13.015625 8.273438 13.015625 C 8.269531 13.011719 8.269531 13.007812 8.265625 13.003906 C 8.265625 13 8.265625 13 8.261719 12.996094 Z M 8.265625 14.53125 C 8.253906 14.550781 8.25 14.570312 8.25 14.59375 L 8.25 14.65625 C 8.25 15.054688 9.921875 15.375 12 15.375 C 14.078125 15.375 15.75 15.054688 15.75 14.65625 L 15.75 14.59375 C 15.75 14.570312 15.746094 14.550781 15.734375 14.53125 C 15.578125 14.898438 13.972656 15.1875 12 15.1875 C 10.027344 15.1875 8.421875 14.898438 8.265625 14.53125 Z M 8.265625 14.53125 "/>
<path style=" stroke:none;fill-rule:nonzero;fill:rgb(0%,0%,0%);fill-opacity:0.4;" d="M 8.265625 9.839844 C 8.261719 9.84375 8.261719 9.847656 8.261719 9.847656 C 8.253906 9.867188 8.25 9.886719 8.25 9.90625 L 8.25 9.964844 C 8.25 10.363281 9.921875 10.679688 12 10.679688 C 14.078125 10.679688 15.75 10.363281 15.75 9.964844 L 15.75 9.90625 C 15.75 9.886719 15.746094 9.867188 15.738281 9.847656 C 15.738281 9.847656 15.738281 9.84375 15.734375 9.839844 C 15.570312 10.207031 13.964844 10.492188 12 10.492188 C 10.035156 10.492188 8.429688 10.207031 8.265625 9.839844 Z M 8.257812 11.320312 C 8.253906 11.335938 8.25 11.351562 8.25 11.367188 L 8.25 11.429688 C 8.25 11.828125 9.921875 12.148438 12 12.148438 C 14.078125 12.148438 15.75 11.828125 15.75 11.429688 L 15.75 11.367188 C 15.75 11.351562 15.746094 11.335938 15.742188 11.320312 C 15.625 11.699219 14 11.992188 12 11.992188 C 10 11.992188 8.375 11.699219 8.257812 11.320312 Z M 8.261719 12.804688 C 8.253906 12.824219 8.25 12.84375 8.25 12.867188 L 8.25 12.929688 C 8.25 13.328125 9.921875 13.648438 12 13.648438 C 14.078125 13.648438 15.75 13.328125 15.75 12.929688 L 15.75 12.867188 C 15.75 12.84375 15.746094 12.824219 15.738281 12.804688 C 15.578125 13.171875 13.972656 13.460938 12 13.460938 C 10.027344 13.460938 8.421875 13.171875 8.261719 12.804688 Z M 8.269531 14.320312 C 8.257812 14.347656 8.25 14.371094 8.25 14.398438 L 8.25 14.464844 C 8.25 14.484375 8.253906 14.507812 8.265625 14.527344 C 8.265625 14.523438 8.269531 14.519531 8.269531 14.515625 C 8.472656 14.875 10.058594 15.15625 12 15.15625 C 13.941406 15.15625 15.527344 14.875 15.730469 14.515625 C 15.730469 14.519531 15.734375 14.523438 15.734375 14.527344 C 15.746094 14.507812 15.75 14.484375 15.75 14.464844 L 15.75 14.398438 C 15.75 14.371094 15.742188 14.347656 15.730469 14.320312 C 15.527344 14.683594 13.941406 14.960938 12 14.960938 C 10.058594 14.960938 8.472656 14.683594 8.269531 14.320312 Z M 8.25 15.777344 L 8.25 15.96875 C 8.25 16.367188 9.921875 16.6875 12 16.6875 C 14.078125 16.6875 15.75 16.367188 15.75 15.96875 L 15.75 15.777344 C 15.75 16.175781 14.078125 16.492188 12 16.492188 C 9.921875 16.492188 8.25 16.175781 8.25 15.777344 Z M 8.25 15.777344 "/>
<path style=" stroke:none;fill-rule:nonzero;fill:url(#linear0);" d="M 15 1.5 L 4.875 1.5 C 4.25 1.5 3.75 2 3.75 2.625 L 3.75 21.375 C 3.75 22 4.25 22.5 4.875 22.5 L 19.125 22.5 C 19.75 22.5 20.25 22 20.25 21.375 L 20.25 6.75 Z M 15 1.5 "/>
</g>
</svg>
