
<svg xmlns="http://www.w3.org/2000/svg" xmlns:xlink="http://www.w3.org/1999/xlink" width="48" height="48" viewBox="0 0 48 48" version="1.1">
<defs>
<linearGradient id="linear0" gradientUnits="userSpaceOnUse" x1="10.054166" y1="-209.708328" x2="10.054166" y2="-212.883331" gradientTransform="matrix(2.834646,0,0,2.834646,0,609.448851)">
<stop offset="0" style="stop-color:rgb(0%,0%,0%);stop-opacity:0.2;"/>
<stop offset="1" style="stop-color:rgb(100%,100%,100%);stop-opacity:0;"/>
</linearGradient>
<linearGradient id="linear1" gradientUnits="userSpaceOnUse" x1="8.995832" y1="-200.183334" x2="8.995832" y2="-211.824997" gradientTransform="matrix(2.834646,0,0,2.834646,0,609.448851)">
<stop offset="0" style="stop-color:rgb(0%,0%,0%);stop-opacity:0.2;"/>
<stop offset="1" style="stop-color:rgb(100%,100%,100%);stop-opacity:0;"/>
</linearGradient>
</defs>
<g id="surface1">
<path style=" stroke:none;fill-rule:nonzero;fill:rgb(100%,75.686276%,2.745098%);fill-opacity:1;" d="M 15 6 L 42 6 C 43.65625 6 45 7.34375 45 9 L 45 18 C 45 19.65625 43.65625 21 42 21 L 15 21 C 13.34375 21 12 19.65625 12 18 L 12 9 C 12 7.34375 13.34375 6 15 6 Z M 15 6 "/>
<path style=" stroke:none;fill-rule:nonzero;fill:url(#linear0);" d="M 15 6 L 42 6 C 43.65625 6 45 7.34375 45 9 L 45 18 C 45 19.65625 43.65625 21 42 21 L 15 21 C 13.34375 21 12 19.65625 12 18 L 12 9 C 12 7.34375 13.34375 6 15 6 Z M 15 6 "/>
<path style=" stroke:none;fill-rule:nonzero;fill:rgb(100%,79.215688%,15.686275%);fill-opacity:1;" d="M 6 9 C 4.339844 9 3 10.339844 3 12 L 3 39 C 3 40.660156 4.339844 42 6 42 L 42 42 C 43.660156 42 45 40.660156 45 39 L 45 15 L 15 15 C 13.339844 15 12 13.660156 12 12 L 12 9 Z M 6 9 "/>
<path style=" stroke:none;fill-rule:nonzero;fill:rgb(100%,79.215688%,15.686275%);fill-opacity:1;" d="M 6 9 C 4.339844 9 3 10.339844 3 12 L 3 39 C 3 40.660156 4.339844 42 6 42 L 42 42 C 43.660156 42 45 40.660156 45 39 L 45 15 L 15 15 C 13.339844 15 12 13.660156 12 12 L 12 9 Z M 6 9 "/>
<path style=" stroke:none;fill-rule:nonzero;fill:rgb(0.392157%,0.392157%,0.392157%);fill-opacity:0.4;" d="M 6 41.996094 C 4.339844 41.996094 3 40.65625 3 38.992188 L 3 38.265625 C 3 39.929688 4.339844 41.265625 6 41.265625 L 42 41.265625 C 43.660156 41.265625 45 39.929688 45 38.265625 L 45 38.992188 C 45 40.65625 43.660156 41.996094 42 41.996094 Z M 6 41.996094 "/>
<path style=" stroke:none;fill-rule:nonzero;fill:rgb(0%,0%,0%);fill-opacity:0.2;" d="M 3 39 L 3 40.125 C 3 41.785156 4.339844 43.125 6 43.125 L 42 43.125 C 43.660156 43.125 45 41.785156 45 40.125 L 45 39 C 45 40.660156 43.660156 42 42 42 L 6 42 C 4.339844 42 3 40.660156 3 39 Z M 3 39 "/>
<path style=" stroke:none;fill-rule:nonzero;fill:rgb(100%,100%,100%);fill-opacity:0.4;" d="M 6 9 C 4.339844 9 3 10.339844 3 12 L 3 12.75 C 3 11.089844 4.339844 9.75 6 9.75 L 12 9.75 L 12 9 Z M 12 12 L 12 12.75 C 12 14.410156 13.339844 15.75 15 15.75 L 45 15.75 L 45 15 L 15 15 C 13.339844 15 12 13.660156 12 12 Z M 12 12 "/>
<path style=" stroke:none;fill-rule:nonzero;fill:rgb(100%,100%,100%);fill-opacity:0.4;" d="M 15 6 C 13.339844 6 12 7.339844 12 9 L 12 9.375 C 12 7.714844 13.339844 6.375 15 6.375 L 42 6.375 C 43.660156 6.375 45 7.714844 45 9.375 L 45 9 C 45 7.339844 43.660156 6 42 6 Z M 15 6 "/>
<path style=" stroke:none;fill-rule:nonzero;fill:rgb(100%,92.54902%,70.19608%);fill-opacity:1;" d="M 22.105469 19.5 C 21.90625 19.511719 21.75 19.671875 21.75 19.875 L 21.75 21 L 21 21 C 19.339844 21 18 22.339844 18 24 L 18 24.75 C 18 26.410156 19.339844 27.75 21 27.75 L 24 27.75 C 24.832031 27.75 25.5 28.417969 25.5 29.25 L 25.5 30 C 25.5 30.832031 24.832031 31.5 24 31.5 L 21 31.5 C 20.167969 31.5 19.5 30.832031 19.5 30 C 19.5 29.792969 19.332031 29.625 19.125 29.625 L 18.375 29.625 C 18.167969 29.625 18 29.792969 18 30 C 18 30.007812 18 30.015625 18 30.023438 C 18.011719 31.671875 19.34375 33 21 33 L 21.75 33 L 21.75 34.125 C 21.75 34.332031 21.917969 34.5 22.125 34.5 L 22.875 34.5 C 23.082031 34.5 23.25 34.332031 23.25 34.125 L 23.25 33 L 24 33 C 25.660156 33 27 31.660156 27 30 L 27 29.25 C 27 27.589844 25.660156 26.25 24 26.25 L 21 26.25 C 20.167969 26.25 19.5 25.582031 19.5 24.75 L 19.5 24 C 19.5 23.167969 20.167969 22.5 21 22.5 L 24 22.5 C 24.824219 22.5 25.488281 23.160156 25.5 23.980469 C 25.5 23.984375 25.5 23.988281 25.5 23.988281 C 25.5 23.992188 25.5 23.996094 25.5 24 C 25.5 24.207031 25.667969 24.375 25.875 24.375 L 26.625 24.375 C 26.832031 24.375 27 24.207031 27 24 C 27 22.339844 25.660156 21 24 21 L 23.25 21 L 23.25 19.875 C 23.25 19.667969 23.082031 19.5 22.875 19.5 L 22.125 19.5 C 22.117188 19.5 22.113281 19.5 22.105469 19.5 Z M 27.355469 33 C 27.15625 33.011719 27 33.171875 27 33.375 L 27 34.125 C 27 34.332031 27.167969 34.5 27.375 34.5 L 29.625 34.5 C 29.832031 34.5 30 34.332031 30 34.125 L 30 33.375 C 30 33.167969 29.832031 33 29.625 33 L 27.375 33 C 27.367188 33 27.363281 33 27.355469 33 Z M 27.355469 33 "/>
<path style=" stroke:none;fill-rule:nonzero;fill:rgb(100%,100%,100%);fill-opacity:0.4;" d="M 22.105469 19.5 C 21.90625 19.511719 21.75 19.671875 21.75 19.875 L 21.75 20.25 C 21.75 20.046875 21.90625 19.886719 22.105469 19.875 C 22.113281 19.875 22.117188 19.875 22.125 19.875 L 22.875 19.875 C 23.082031 19.875 23.25 20.042969 23.25 20.25 L 23.25 19.875 C 23.25 19.667969 23.082031 19.5 22.875 19.5 L 22.125 19.5 C 22.117188 19.5 22.113281 19.5 22.105469 19.5 Z M 21 21 C 19.339844 21 18 22.339844 18 24 L 18 24.375 C 18 22.714844 19.339844 21.375 21 21.375 L 21.75 21.375 L 21.75 21 Z M 23.25 21 L 23.25 21.375 L 24 21.375 C 25.566406 21.375 26.84375 22.566406 26.984375 24.097656 C 26.992188 24.066406 27 24.035156 27 24 C 27 22.339844 25.660156 21 24 21 Z M 19.5 24.75 L 19.5 25.125 C 19.5 25.957031 20.167969 26.625 21 26.625 L 24 26.625 C 25.660156 26.625 27 27.964844 27 29.625 L 27 29.25 C 27 27.589844 25.660156 26.25 24 26.25 L 21 26.25 C 20.167969 26.25 19.5 25.582031 19.5 24.75 Z M 18.375 29.625 C 18.167969 29.625 18 29.792969 18 30 C 18 30.007812 18 30.015625 18 30.023438 C 18 30.105469 18.007812 30.1875 18.015625 30.269531 C 18.058594 30.113281 18.203125 30 18.375 30 L 19.125 30 C 19.332031 30 19.5 30.167969 19.5 30.375 C 19.5 31.207031 20.167969 31.875 21 31.875 L 24 31.875 C 24.832031 31.875 25.5 31.207031 25.5 30.375 L 25.5 30 C 25.5 30.832031 24.832031 31.5 24 31.5 L 21 31.5 C 20.167969 31.5 19.5 30.832031 19.5 30 C 19.5 29.792969 19.332031 29.625 19.125 29.625 Z M 27.355469 33 C 27.15625 33.011719 27 33.171875 27 33.375 L 27 33.75 C 27 33.546875 27.15625 33.386719 27.355469 33.375 C 27.363281 33.375 27.367188 33.375 27.375 33.375 L 29.625 33.375 C 29.832031 33.375 30 33.542969 30 33.75 L 30 33.375 C 30 33.167969 29.832031 33 29.625 33 L 27.375 33 C 27.367188 33 27.363281 33 27.355469 33 Z M 27.355469 33 "/>
<path style=" stroke:none;fill-rule:nonzero;fill:rgb(0%,0%,0%);fill-opacity:0.4;" d="M 21 22.5 C 20.167969 22.5 19.5 23.167969 19.5 24 L 19.5 24.375 C 19.5 23.542969 20.167969 22.875 21 22.875 L 24 22.875 C 24.824219 22.875 25.488281 23.535156 25.5 24.355469 C 25.5 24.359375 25.5 24.363281 25.5 24.363281 C 25.5 24.367188 25.5 24.371094 25.5 24.375 C 25.5 24.585938 25.667969 24.75 25.875 24.75 L 26.625 24.75 C 26.832031 24.75 27 24.585938 27 24.375 C 27 24.285156 26.996094 24.191406 26.988281 24.101562 C 26.941406 24.261719 26.796875 24.375 26.625 24.375 L 25.875 24.375 C 25.667969 24.375 25.5 24.210938 25.5 24 C 25.5 23.996094 25.5 23.992188 25.5 23.988281 C 25.5 23.988281 25.5 23.984375 25.5 23.980469 C 25.488281 23.160156 24.824219 22.5 24 22.5 Z M 18 24.75 L 18 25.125 C 18 26.785156 19.339844 28.125 21 28.125 L 24 28.125 C 24.832031 28.125 25.5 28.792969 25.5 29.625 L 25.5 29.25 C 25.5 28.417969 24.832031 27.75 24 27.75 L 21 27.75 C 19.339844 27.75 18 26.410156 18 24.75 Z M 27 30 C 27 31.660156 25.660156 33 24 33 L 23.25 33 L 23.25 33.375 L 24 33.375 C 25.660156 33.375 27 32.035156 27 30.375 Z M 18.011719 30.277344 C 18.003906 30.308594 18 30.339844 18 30.375 C 18 30.382812 18 30.386719 18 30.398438 C 18.011719 32.046875 19.34375 33.375 21 33.375 L 21.75 33.375 L 21.75 33 L 21 33 C 19.429688 33 18.152344 31.808594 18.011719 30.277344 Z M 21.75 34.125 L 21.75 34.5 C 21.75 34.707031 21.917969 34.875 22.125 34.875 L 22.875 34.875 C 23.082031 34.875 23.25 34.707031 23.25 34.5 L 23.25 34.125 C 23.25 34.332031 23.082031 34.5 22.875 34.5 L 22.125 34.5 C 21.917969 34.5 21.75 34.332031 21.75 34.125 Z M 27 34.125 L 27 34.5 C 27 34.707031 27.167969 34.875 27.375 34.875 L 29.625 34.875 C 29.832031 34.875 30 34.707031 30 34.5 L 30 34.125 C 30 34.332031 29.832031 34.5 29.625 34.5 L 27.375 34.5 C 27.167969 34.5 27 34.332031 27 34.125 Z M 27 34.125 "/>
<path style=" stroke:none;fill-rule:nonzero;fill:url(#linear1);" d="M 6 9 C 4.339844 9 3 10.339844 3 12 L 3 39 C 3 40.660156 4.339844 42 6 42 L 42 42 C 43.660156 42 45 40.660156 45 39 L 45 15 L 15 15 C 13.339844 15 12 13.660156 12 12 L 12 9 Z M 6 9 "/>
</g>
</svg>
