
<svg xmlns="http://www.w3.org/2000/svg" xmlns:xlink="http://www.w3.org/1999/xlink" width="24" height="24" viewBox="0 0 24 24" version="1.1">
<defs>
<linearGradient id="linear0" gradientUnits="userSpaceOnUse" x1="10.054166" y1="-199.125" x2="10.054166" y2="-213.941666" gradientTransform="matrix(1.417323,0,0,1.417323,-0.000474216,304.724425)">
<stop offset="0" style="stop-color:rgb(0%,0%,0%);stop-opacity:0.2;"/>
<stop offset="1" style="stop-color:rgb(100%,100%,100%);stop-opacity:0;"/>
</linearGradient>
</defs>
<g id="surface1">
<path style=" stroke:none;fill-rule:nonzero;fill:rgb(95.686275%,26.274511%,21.176471%);fill-opacity:1;" d="M 3 1.5 L 21 1.5 C 21.828125 1.5 22.5 2.171875 22.5 3 L 22.5 21 C 22.5 21.828125 21.828125 22.5 21 22.5 L 3 22.5 C 2.171875 22.5 1.5 21.828125 1.5 21 L 1.5 3 C 1.5 2.171875 2.171875 1.5 3 1.5 Z M 3 1.5 "/>
<path style=" stroke:none;fill-rule:nonzero;fill:rgb(0%,0%,0%);fill-opacity:0.4;" d="M 1.5 20.625 L 1.5 21 C 1.5 21.832031 2.167969 22.5 3 22.5 L 21 22.5 C 21.832031 22.5 22.5 21.832031 22.5 21 L 22.5 20.625 C 22.5 21.457031 21.832031 22.125 21 22.125 L 3 22.125 C 2.167969 22.125 1.5 21.457031 1.5 20.625 Z M 1.5 20.625 "/>
<path style=" stroke:none;fill-rule:nonzero;fill:rgb(0%,0%,0%);fill-opacity:0.2;" d="M 1.5 21 L 1.5 21.5625 C 1.5 22.394531 2.167969 23.0625 3 23.0625 L 21 23.0625 C 21.832031 23.0625 22.5 22.394531 22.5 21.5625 L 22.5 21 C 22.5 21.832031 21.832031 22.5 21 22.5 L 3 22.5 C 2.167969 22.5 1.5 21.832031 1.5 21 Z M 1.5 21 "/>
<path style=" stroke:none;fill-rule:nonzero;fill:rgb(100%,100%,100%);fill-opacity:0.4;" d="M 3 1.5 C 2.167969 1.5 1.5 2.167969 1.5 3 L 1.5 3.367188 C 1.5 2.539062 2.167969 1.867188 3 1.867188 L 21 1.867188 C 21.832031 1.867188 22.5 2.539062 22.5 3.367188 L 22.5 3 C 22.5 2.167969 21.832031 1.5 21 1.5 Z M 3 1.5 "/>
<path style=" stroke:none;fill-rule:nonzero;fill:rgb(93.333334%,93.333334%,93.333334%);fill-opacity:1;" d="M 6 5.25 C 5.792969 5.25 5.605469 5.332031 5.46875 5.46875 L 9 9 L 14.625 9 C 14.832031 9 15 9.167969 15 9.375 L 15 15 L 18.53125 18.53125 C 18.667969 18.394531 18.75 18.207031 18.75 18 L 18.75 6 C 18.75 5.585938 18.414062 5.25 18 5.25 Z M 9 9.375 L 5.25 13.125 L 5.25 18 C 5.25 18.414062 5.585938 18.75 6 18.75 L 10.875 18.75 L 14.625 15 L 9.375 15 C 9.167969 15 9 14.832031 9 14.625 Z M 9 9.375 "/>
<path style=" stroke:none;fill-rule:nonzero;fill:rgb(100%,100%,100%);fill-opacity:0.6;" d="M 6 5.25 C 5.792969 5.25 5.605469 5.332031 5.46875 5.46875 L 5.691406 5.691406 C 5.785156 5.648438 5.890625 5.621094 6 5.621094 L 18 5.621094 C 18.414062 5.621094 18.75 5.957031 18.75 6.371094 L 18.75 6 C 18.75 5.585938 18.414062 5.25 18 5.25 Z M 9 9.375 L 5.25 13.125 L 5.25 13.496094 L 9 9.746094 Z M 9 14.625 L 9 14.996094 C 9 15.207031 9.167969 15.371094 9.375 15.371094 L 14.253906 15.371094 L 14.625 15 L 9.375 15 C 9.167969 15 9 14.832031 9 14.625 Z M 9 14.625 "/>
<path style=" stroke:none;fill-rule:nonzero;fill:rgb(0%,0%,0%);fill-opacity:0.4;" d="M 5.691406 5.691406 C 5.609375 5.730469 5.53125 5.78125 5.46875 5.84375 L 9 9.375 L 14.625 9.375 C 14.832031 9.375 15 9.542969 15 9.75 L 15 9.375 C 15 9.167969 14.832031 9 14.625 9 L 9 9 Z M 15 15 L 15 15.375 L 18.53125 18.90625 C 18.667969 18.769531 18.75 18.582031 18.75 18.375 L 18.75 18 C 18.75 18.207031 18.667969 18.394531 18.53125 18.53125 Z M 14.25 15.375 L 10.875 18.75 L 6 18.75 C 5.585938 18.75 5.25 18.414062 5.25 18 L 5.25 18.375 C 5.25 18.789062 5.585938 19.125 6 19.125 L 10.875 19.125 L 14.625 15.375 Z M 14.25 15.375 "/>
<path style=" stroke:none;fill-rule:nonzero;fill:url(#linear0);" d="M 3 1.5 L 21 1.5 C 21.828125 1.5 22.5 2.171875 22.5 3 L 22.5 21 C 22.5 21.828125 21.828125 22.5 21 22.5 L 3 22.5 C 2.171875 22.5 1.5 21.828125 1.5 21 L 1.5 3 C 1.5 2.171875 2.171875 1.5 3 1.5 Z M 3 1.5 "/>
</g>
</svg>
