
<svg xmlns="http://www.w3.org/2000/svg" xmlns:xlink="http://www.w3.org/1999/xlink" width="24" height="24" viewBox="0 0 24 24" version="1.1">
<defs>
<linearGradient id="linear0" gradientUnits="userSpaceOnUse" x1="10.054166" y1="-199.125" x2="10.054166" y2="-213.941666" gradientTransform="matrix(1.417323,0,0,1.417323,-0.000474216,304.724425)">
<stop offset="0" style="stop-color:rgb(0%,0%,0%);stop-opacity:0.2;"/>
<stop offset="1" style="stop-color:rgb(100%,100%,100%);stop-opacity:0;"/>
</linearGradient>
</defs>
<g id="surface1">
<path style=" stroke:none;fill-rule:nonzero;fill:rgb(25.882354%,64.705884%,96.078432%);fill-opacity:1;" d="M 3 1.5 L 21 1.5 C 21.828125 1.5 22.5 2.171875 22.5 3 L 22.5 21 C 22.5 21.828125 21.828125 22.5 21 22.5 L 3 22.5 C 2.171875 22.5 1.5 21.828125 1.5 21 L 1.5 3 C 1.5 2.171875 2.171875 1.5 3 1.5 Z M 3 1.5 "/>
<path style=" stroke:none;fill-rule:nonzero;fill:rgb(0%,0%,0%);fill-opacity:0.4;" d="M 1.5 20.625 L 1.5 21 C 1.5 21.832031 2.167969 22.5 3 22.5 L 21 22.5 C 21.832031 22.5 22.5 21.832031 22.5 21 L 22.5 20.625 C 22.5 21.457031 21.832031 22.125 21 22.125 L 3 22.125 C 2.167969 22.125 1.5 21.457031 1.5 20.625 Z M 1.5 20.625 "/>
<path style=" stroke:none;fill-rule:nonzero;fill:rgb(0%,0%,0%);fill-opacity:0.2;" d="M 1.5 21 L 1.5 21.5625 C 1.5 22.394531 2.167969 23.0625 3 23.0625 L 21 23.0625 C 21.832031 23.0625 22.5 22.394531 22.5 21.5625 L 22.5 21 C 22.5 21.832031 21.832031 22.5 21 22.5 L 3 22.5 C 2.167969 22.5 1.5 21.832031 1.5 21 Z M 1.5 21 "/>
<path style=" stroke:none;fill-rule:nonzero;fill:rgb(100%,100%,100%);fill-opacity:0.4;" d="M 3 1.5 C 2.167969 1.5 1.5 2.167969 1.5 3 L 1.5 3.367188 C 1.5 2.539062 2.167969 1.867188 3 1.867188 L 21 1.867188 C 21.832031 1.867188 22.5 2.539062 22.5 3.367188 L 22.5 3 C 22.5 2.167969 21.832031 1.5 21 1.5 Z M 3 1.5 "/>
<path style=" stroke:none;fill-rule:nonzero;fill:rgb(87.843138%,87.843138%,87.843138%);fill-opacity:1;" d="M 9.699219 5.25 C 9.457031 5.253906 9.214844 5.28125 8.984375 5.328125 L 8.734375 6.578125 C 8.527344 6.664062 8.335938 6.773438 8.160156 6.910156 L 6.953125 6.5 C 6.785156 6.691406 6.632812 6.898438 6.503906 7.125 C 6.371094 7.351562 6.265625 7.585938 6.1875 7.828125 L 7.144531 8.667969 C 7.132812 8.777344 7.125 8.886719 7.125 9 C 7.125 9.113281 7.132812 9.222656 7.144531 9.332031 L 6.1875 10.171875 C 6.265625 10.414062 6.371094 10.648438 6.503906 10.875 C 6.632812 11.101562 6.785156 11.3125 6.953125 11.5 L 8.160156 11.089844 C 8.335938 11.226562 8.527344 11.335938 8.734375 11.421875 L 8.984375 12.671875 C 9.230469 12.722656 9.488281 12.75 9.75 12.75 C 10.011719 12.75 10.269531 12.722656 10.515625 12.671875 L 10.765625 11.421875 C 10.972656 11.335938 11.164062 11.226562 11.339844 11.089844 L 12.546875 11.5 C 12.714844 11.308594 12.867188 11.101562 12.996094 10.875 C 13.128906 10.648438 13.234375 10.414062 13.3125 10.171875 L 12.355469 9.332031 C 12.367188 9.222656 12.375 9.113281 12.375 9 C 12.375 8.886719 12.367188 8.777344 12.355469 8.667969 L 13.3125 7.828125 C 13.234375 7.585938 13.128906 7.351562 12.996094 7.125 C 12.867188 6.898438 12.714844 6.691406 12.546875 6.5 L 11.339844 6.910156 C 11.164062 6.773438 10.972656 6.664062 10.765625 6.578125 L 10.515625 5.328125 C 10.269531 5.277344 10.011719 5.25 9.75 5.25 C 9.734375 5.25 9.71875 5.25 9.699219 5.25 Z M 9.75 7.5 C 10.582031 7.5 11.25 8.167969 11.25 9 C 11.25 9.832031 10.582031 10.5 9.75 10.5 C 8.917969 10.5 8.25 9.832031 8.25 9 C 8.25 8.167969 8.917969 7.5 9.75 7.5 Z M 9.75 7.5 "/>
<path style=" stroke:none;fill-rule:nonzero;fill:rgb(100%,100%,100%);fill-opacity:0.8;" d="M 9.699219 5.25 C 9.457031 5.253906 9.214844 5.28125 8.984375 5.328125 L 8.734375 6.578125 C 8.527344 6.664062 8.335938 6.773438 8.160156 6.910156 L 6.953125 6.5 C 6.785156 6.691406 6.632812 6.898438 6.503906 7.125 C 6.371094 7.351562 6.265625 7.585938 6.1875 7.828125 L 6.269531 7.898438 C 6.335938 7.738281 6.414062 7.578125 6.503906 7.421875 C 6.632812 7.195312 6.785156 6.988281 6.953125 6.796875 L 8.160156 7.207031 C 8.335938 7.074219 8.527344 6.960938 8.734375 6.875 L 8.984375 5.625 C 9.214844 5.578125 9.457031 5.550781 9.699219 5.546875 C 9.71875 5.546875 9.734375 5.546875 9.75 5.546875 C 10.011719 5.546875 10.269531 5.574219 10.515625 5.625 L 10.765625 6.875 C 10.972656 6.960938 11.164062 7.074219 11.339844 7.207031 L 12.546875 6.796875 C 12.714844 6.988281 12.867188 7.195312 12.996094 7.421875 C 13.085938 7.578125 13.164062 7.738281 13.230469 7.898438 L 13.3125 7.828125 C 13.234375 7.585938 13.128906 7.351562 12.996094 7.125 C 12.867188 6.898438 12.714844 6.691406 12.546875 6.5 L 11.339844 6.910156 C 11.164062 6.773438 10.972656 6.664062 10.765625 6.578125 L 10.515625 5.328125 C 10.269531 5.277344 10.011719 5.25 9.75 5.25 C 9.734375 5.25 9.71875 5.25 9.699219 5.25 Z M 7.125 8.949219 C 7.125 8.964844 7.125 8.984375 7.125 9 C 7.125 9.050781 7.125 9.097656 7.128906 9.148438 C 7.132812 9.085938 7.136719 9.027344 7.144531 8.964844 Z M 12.375 8.949219 L 12.355469 8.964844 C 12.363281 9.027344 12.367188 9.085938 12.371094 9.148438 C 12.375 9.097656 12.375 9.050781 12.375 9 C 12.375 8.984375 12.375 8.964844 12.375 8.949219 Z M 8.257812 9.148438 C 8.253906 9.199219 8.25 9.246094 8.25 9.296875 C 8.25 10.128906 8.917969 10.796875 9.75 10.796875 C 10.582031 10.796875 11.25 10.128906 11.25 9.296875 C 11.25 9.246094 11.246094 9.199219 11.242188 9.148438 C 11.167969 9.910156 10.53125 10.5 9.75 10.5 C 8.96875 10.5 8.332031 9.910156 8.257812 9.148438 Z M 7.125 9.347656 L 6.1875 10.171875 C 6.210938 10.25 6.238281 10.324219 6.269531 10.398438 L 7.144531 9.628906 C 7.132812 9.535156 7.128906 9.441406 7.125 9.347656 Z M 12.375 9.347656 C 12.371094 9.441406 12.367188 9.535156 12.355469 9.628906 L 13.230469 10.398438 C 13.261719 10.324219 13.289062 10.25 13.3125 10.171875 Z M 12.375 9.347656 "/>
<path style=" stroke:none;fill-rule:nonzero;fill:rgb(0%,0%,0%);fill-opacity:0.4;" d="M 9.75 7.5 C 8.917969 7.5 8.25 8.167969 8.25 9 C 8.25 9.054688 8.253906 9.105469 8.257812 9.15625 C 8.335938 8.398438 8.972656 7.8125 9.75 7.8125 C 10.527344 7.8125 11.164062 8.398438 11.242188 9.15625 C 11.246094 9.105469 11.25 9.054688 11.25 9 C 11.25 8.167969 10.582031 7.5 9.75 7.5 Z M 6.277344 7.90625 C 6.242188 7.984375 6.214844 8.0625 6.1875 8.140625 L 7.125 8.964844 C 7.128906 8.867188 7.132812 8.765625 7.144531 8.667969 Z M 13.226562 7.90625 L 12.355469 8.667969 C 12.367188 8.765625 12.371094 8.867188 12.375 8.964844 L 13.3125 8.140625 C 13.285156 8.0625 13.257812 7.984375 13.222656 7.90625 Z M 7.128906 9.15625 C 7.128906 9.207031 7.125 9.261719 7.125 9.3125 C 7.125 9.324219 7.125 9.335938 7.125 9.347656 L 7.144531 9.332031 C 7.136719 9.273438 7.132812 9.214844 7.128906 9.15625 Z M 12.371094 9.15625 C 12.367188 9.214844 12.363281 9.273438 12.355469 9.332031 L 12.375 9.347656 C 12.375 9.335938 12.375 9.324219 12.375 9.3125 C 12.375 9.261719 12.371094 9.207031 12.371094 9.15625 Z M 6.277344 10.410156 L 6.1875 10.488281 C 6.265625 10.726562 6.371094 10.960938 6.503906 11.1875 C 6.632812 11.414062 6.785156 11.625 6.953125 11.8125 L 8.160156 11.40625 C 8.335938 11.539062 8.527344 11.648438 8.734375 11.738281 L 8.984375 12.984375 C 9.230469 13.035156 9.488281 13.0625 9.75 13.0625 C 10.011719 13.0625 10.269531 13.035156 10.515625 12.984375 L 10.765625 11.738281 C 10.972656 11.648438 11.164062 11.539062 11.339844 11.40625 L 12.546875 11.8125 C 12.714844 11.625 12.867188 11.414062 12.996094 11.1875 C 13.128906 10.960938 13.234375 10.726562 13.3125 10.488281 L 13.226562 10.410156 C 13.160156 10.566406 13.085938 10.722656 12.996094 10.875 C 12.867188 11.101562 12.714844 11.308594 12.546875 11.5 L 11.339844 11.089844 C 11.164062 11.226562 10.972656 11.335938 10.765625 11.421875 L 10.515625 12.671875 C 10.269531 12.722656 10.011719 12.75 9.75 12.75 C 9.488281 12.75 9.230469 12.722656 8.984375 12.671875 L 8.734375 11.421875 C 8.527344 11.335938 8.335938 11.226562 8.160156 11.089844 L 6.953125 11.5 C 6.785156 11.308594 6.632812 11.101562 6.503906 10.875 C 6.414062 10.722656 6.339844 10.566406 6.277344 10.410156 Z M 6.277344 10.410156 "/>
<path style=" stroke:none;fill-rule:nonzero;fill:rgb(87.843138%,87.843138%,87.843138%);fill-opacity:1;" d="M 14.949219 10.5 C 14.707031 10.503906 14.464844 10.53125 14.234375 10.578125 L 13.984375 11.828125 C 13.777344 11.914062 13.585938 12.023438 13.410156 12.160156 L 12.203125 11.75 C 12.035156 11.941406 11.882812 12.148438 11.753906 12.375 C 11.621094 12.601562 11.515625 12.835938 11.4375 13.078125 L 12.394531 13.917969 C 12.382812 14.027344 12.375 14.136719 12.375 14.25 C 12.375 14.363281 12.382812 14.472656 12.394531 14.582031 L 11.4375 15.421875 C 11.515625 15.664062 11.621094 15.898438 11.753906 16.125 C 11.882812 16.351562 12.035156 16.558594 12.203125 16.75 L 13.410156 16.339844 C 13.585938 16.476562 13.777344 16.585938 13.984375 16.671875 L 14.234375 17.921875 C 14.480469 17.972656 14.738281 18 15 18 C 15.261719 18 15.519531 17.972656 15.765625 17.921875 L 16.015625 16.671875 C 16.222656 16.585938 16.414062 16.476562 16.589844 16.339844 L 17.796875 16.75 C 17.964844 16.558594 18.117188 16.351562 18.246094 16.125 C 18.378906 15.898438 18.484375 15.664062 18.5625 15.421875 L 17.605469 14.582031 C 17.617188 14.472656 17.625 14.363281 17.625 14.25 C 17.625 14.136719 17.617188 14.027344 17.605469 13.917969 L 18.5625 13.078125 C 18.484375 12.835938 18.378906 12.601562 18.246094 12.375 C 18.117188 12.148438 17.964844 11.941406 17.796875 11.75 L 16.589844 12.160156 C 16.414062 12.023438 16.222656 11.914062 16.015625 11.828125 L 15.765625 10.578125 C 15.519531 10.527344 15.261719 10.5 15 10.5 C 14.984375 10.5 14.96875 10.5 14.949219 10.5 Z M 15 12.75 C 15.832031 12.75 16.5 13.417969 16.5 14.25 C 16.5 15.082031 15.832031 15.75 15 15.75 C 14.167969 15.75 13.5 15.082031 13.5 14.25 C 13.5 13.417969 14.167969 12.75 15 12.75 Z M 15 12.75 "/>
<path style=" stroke:none;fill-rule:nonzero;fill:rgb(100%,100%,100%);fill-opacity:0.8;" d="M 14.949219 10.5 C 14.707031 10.503906 14.464844 10.53125 14.234375 10.578125 L 13.984375 11.828125 C 13.777344 11.914062 13.585938 12.023438 13.410156 12.160156 L 12.203125 11.75 C 12.035156 11.941406 11.882812 12.148438 11.753906 12.375 C 11.621094 12.601562 11.515625 12.835938 11.4375 13.078125 L 11.519531 13.148438 C 11.585938 12.988281 11.664062 12.828125 11.753906 12.671875 C 11.882812 12.445312 12.035156 12.238281 12.203125 12.046875 L 13.410156 12.457031 C 13.585938 12.324219 13.777344 12.210938 13.984375 12.125 L 14.234375 10.875 C 14.464844 10.828125 14.707031 10.800781 14.949219 10.796875 C 14.96875 10.796875 14.984375 10.796875 15 10.796875 C 15.261719 10.796875 15.519531 10.824219 15.765625 10.875 L 16.015625 12.125 C 16.222656 12.210938 16.414062 12.324219 16.589844 12.457031 L 17.796875 12.046875 C 17.964844 12.238281 18.117188 12.445312 18.246094 12.671875 C 18.335938 12.828125 18.414062 12.988281 18.480469 13.148438 L 18.5625 13.078125 C 18.484375 12.835938 18.378906 12.601562 18.246094 12.375 C 18.117188 12.148438 17.964844 11.941406 17.796875 11.75 L 16.589844 12.160156 C 16.414062 12.023438 16.222656 11.914062 16.015625 11.828125 L 15.765625 10.578125 C 15.519531 10.527344 15.261719 10.5 15 10.5 C 14.984375 10.5 14.96875 10.5 14.949219 10.5 Z M 12.375 14.199219 C 12.375 14.214844 12.375 14.234375 12.375 14.25 C 12.375 14.300781 12.375 14.347656 12.378906 14.398438 C 12.382812 14.335938 12.386719 14.277344 12.394531 14.214844 Z M 17.625 14.199219 L 17.605469 14.214844 C 17.613281 14.277344 17.617188 14.335938 17.621094 14.398438 C 17.625 14.347656 17.625 14.300781 17.625 14.25 C 17.625 14.234375 17.625 14.214844 17.625 14.199219 Z M 13.507812 14.398438 C 13.503906 14.449219 13.5 14.496094 13.5 14.546875 C 13.5 15.378906 14.167969 16.046875 15 16.046875 C 15.832031 16.046875 16.5 15.378906 16.5 14.546875 C 16.5 14.496094 16.496094 14.449219 16.492188 14.398438 C 16.417969 15.160156 15.78125 15.75 15 15.75 C 14.21875 15.75 13.582031 15.160156 13.507812 14.398438 Z M 12.375 14.597656 L 11.4375 15.421875 C 11.460938 15.5 11.488281 15.574219 11.519531 15.648438 L 12.394531 14.878906 C 12.382812 14.785156 12.378906 14.691406 12.375 14.597656 Z M 17.625 14.597656 C 17.621094 14.691406 17.617188 14.785156 17.605469 14.878906 L 18.480469 15.648438 C 18.511719 15.574219 18.539062 15.5 18.5625 15.421875 Z M 17.625 14.597656 "/>
<path style=" stroke:none;fill-rule:nonzero;fill:rgb(0%,0%,0%);fill-opacity:0.4;" d="M 15 12.75 C 14.167969 12.75 13.5 13.417969 13.5 14.25 C 13.5 14.304688 13.503906 14.355469 13.507812 14.40625 C 13.585938 13.648438 14.222656 13.0625 15 13.0625 C 15.777344 13.0625 16.414062 13.648438 16.492188 14.40625 C 16.496094 14.355469 16.5 14.304688 16.5 14.25 C 16.5 13.417969 15.832031 12.75 15 12.75 Z M 11.523438 13.152344 C 11.492188 13.234375 11.464844 13.3125 11.4375 13.390625 L 12.375 14.214844 C 12.378906 14.117188 12.382812 14.015625 12.394531 13.917969 Z M 18.472656 13.152344 L 17.605469 13.917969 C 17.617188 14.015625 17.621094 14.117188 17.625 14.214844 L 18.5625 13.390625 C 18.535156 13.3125 18.507812 13.234375 18.472656 13.152344 Z M 12.378906 14.40625 C 12.378906 14.457031 12.375 14.511719 12.375 14.5625 C 12.375 14.574219 12.375 14.585938 12.375 14.597656 L 12.394531 14.582031 C 12.386719 14.523438 12.382812 14.464844 12.378906 14.40625 Z M 17.621094 14.40625 C 17.617188 14.464844 17.613281 14.523438 17.605469 14.582031 L 17.625 14.597656 C 17.625 14.585938 17.625 14.574219 17.625 14.5625 C 17.625 14.511719 17.621094 14.457031 17.621094 14.40625 Z M 11.523438 15.660156 L 11.4375 15.738281 C 11.515625 15.976562 11.621094 16.210938 11.753906 16.4375 C 11.882812 16.664062 12.035156 16.875 12.203125 17.0625 L 13.410156 16.65625 C 13.585938 16.789062 13.777344 16.898438 13.984375 16.984375 L 14.234375 18.234375 C 14.480469 18.285156 14.738281 18.3125 15 18.3125 C 15.261719 18.3125 15.519531 18.285156 15.765625 18.234375 L 16.015625 16.984375 C 16.222656 16.898438 16.414062 16.789062 16.589844 16.65625 L 17.796875 17.0625 C 17.964844 16.875 18.117188 16.664062 18.246094 16.4375 C 18.378906 16.210938 18.484375 15.976562 18.5625 15.738281 L 18.472656 15.660156 C 18.410156 15.816406 18.335938 15.972656 18.246094 16.125 C 18.117188 16.351562 17.964844 16.558594 17.796875 16.75 L 16.589844 16.339844 C 16.414062 16.476562 16.222656 16.585938 16.015625 16.671875 L 15.765625 17.921875 C 15.519531 17.972656 15.261719 18 15 18 C 14.738281 18 14.480469 17.972656 14.234375 17.921875 L 13.984375 16.671875 C 13.777344 16.585938 13.585938 16.476562 13.410156 16.339844 L 12.203125 16.75 C 12.035156 16.558594 11.882812 16.351562 11.753906 16.125 C 11.664062 15.972656 11.589844 15.816406 11.523438 15.660156 Z M 11.523438 15.660156 "/>
<path style=" stroke:none;fill-rule:nonzero;fill:url(#linear0);" d="M 3 1.5 L 21 1.5 C 21.828125 1.5 22.5 2.171875 22.5 3 L 22.5 21 C 22.5 21.828125 21.828125 22.5 21 22.5 L 3 22.5 C 2.171875 22.5 1.5 21.828125 1.5 21 L 1.5 3 C 1.5 2.171875 2.171875 1.5 3 1.5 Z M 3 1.5 "/>
</g>
</svg>
