
<svg xmlns="http://www.w3.org/2000/svg" xmlns:xlink="http://www.w3.org/1999/xlink" width="24" height="24" viewBox="0 0 24 24" version="1.1">
<defs>
<linearGradient id="linear0" gradientUnits="userSpaceOnUse" x1="31.999998" y1="59.999996" x2="31.999998" y2="4" gradientTransform="matrix(0.375,0,0,0.375,0,0.000000000000042633)">
<stop offset="0" style="stop-color:rgb(0%,0%,0%);stop-opacity:0.2;"/>
<stop offset="1" style="stop-color:rgb(100%,100%,100%);stop-opacity:0;"/>
</linearGradient>
</defs>
<g id="surface1">
<path style=" stroke:none;fill-rule:nonzero;fill:rgb(47.450981%,33.333334%,28.235295%);fill-opacity:1;" d="M 19.261719 1.5 C 19.382812 1.503906 19.476562 1.605469 19.476562 1.726562 L 19.476562 2.679688 C 19.476562 2.804688 19.375 2.90625 19.253906 2.90625 C 19.058594 2.90625 18.871094 2.832031 18.675781 2.730469 C 18.476562 2.632812 18.285156 2.507812 18.136719 2.363281 C 18.03125 2.253906 18.058594 2.070312 18.195312 2 L 19.152344 1.523438 C 19.183594 1.507812 19.222656 1.5 19.261719 1.5 Z M 19.261719 1.5 "/>
<path style=" stroke:none;fill-rule:nonzero;fill:rgb(25.882354%,25.882354%,25.882354%);fill-opacity:1;" d="M 21.171875 3.410156 C 21.433594 3.410156 21.644531 3.621094 21.644531 3.882812 L 21.644531 3.890625 C 21.644531 4.152344 21.433594 4.363281 21.171875 4.363281 C 20.910156 4.363281 20.699219 4.152344 20.699219 3.890625 L 20.699219 3.882812 C 20.699219 3.621094 20.910156 3.410156 21.171875 3.410156 Z M 21.171875 3.410156 "/>
<path style=" stroke:none;fill-rule:nonzero;fill:rgb(61.960787%,61.960787%,61.960787%);fill-opacity:1;" d="M 20.996094 3.527344 C 21.09375 3.527344 21.175781 3.605469 21.175781 3.707031 C 21.175781 3.804688 21.09375 3.886719 20.996094 3.886719 C 20.898438 3.886719 20.816406 3.804688 20.816406 3.707031 C 20.816406 3.605469 20.898438 3.527344 20.996094 3.527344 Z M 20.996094 3.527344 "/>
<path style=" stroke:none;fill-rule:nonzero;fill:rgb(100%,65.490198%,14.901961%);fill-opacity:1;" d="M 12.101562 2.453125 C 17.375 2.453125 21.644531 6.726562 21.644531 11.996094 C 21.644531 17.265625 17.375 21.539062 12.101562 21.539062 C 6.832031 21.539062 2.5625 17.265625 2.5625 11.996094 C 2.5625 6.726562 6.832031 2.453125 12.101562 2.453125 Z M 12.101562 2.453125 "/>
<path style=" stroke:none;fill-rule:nonzero;fill:rgb(96.078432%,48.627451%,0%);fill-opacity:1;" d="M 14.964844 2.453125 C 14.640625 2.542969 13.253906 3.035156 13.429688 3.6875 C 13.742188 5.054688 15.632812 5.59375 15.613281 6.597656 C 15.59375 7.425781 15.617188 9.441406 13.960938 8.488281 C 13.34375 8.128906 13.859375 7.308594 13.132812 6.546875 C 12.402344 5.78125 11.078125 4.894531 10.070312 5.6875 C 9.179688 6.273438 8.703125 7.101562 8.464844 7.515625 L 8.179688 5.144531 C 10.242188 3.472656 15.976562 1.660156 14.964844 2.453125 Z M 14.964844 2.453125 "/>
<path style=" stroke:none;fill-rule:nonzero;fill:rgb(55.29412%,43.137255%,38.82353%);fill-opacity:1;" d="M 12.101562 1.5 C 5.421875 1.5 1.605469 6.179688 1.605469 11.996094 C 1.605469 17.8125 6.289062 22.492188 12.101562 22.492188 C 15.921875 22.492188 21.167969 20.109375 22.125 14.859375 C 20.734375 16.03125 18.257812 19.71875 13.011719 19.707031 C 8.582031 19.695312 6.855469 16.292969 6.855469 12.953125 C 6.855469 6.269531 14.488281 6.269531 18.785156 7.703125 C 19.976562 8.179688 20.691406 8.179688 21.644531 7.226562 C 23.078125 5.792969 22.144531 4.542969 21.40625 4.242188 C 21.40625 3.765625 21.644531 2.929688 19.738281 1.976562 C 18.390625 1.429688 17.113281 1.261719 15.441406 1.976562 C 13.058594 1.5 13.058594 1.5 12.101562 1.5 Z M 12.101562 1.5 "/>
<path style=" stroke:none;fill-rule:nonzero;fill:rgb(84.313726%,80.000001%,78.431374%);fill-opacity:1;" d="M 4.46875 11.996094 C 4.46875 17.300781 7.808594 20.585938 13.058594 20.585938 C 18.785156 20.585938 22.125 14.859375 22.125 14.859375 C 21.644531 15.335938 17.828125 19.109375 13.058594 19.132812 C 9.242188 19.152344 6.855469 16.769531 6.855469 12.953125 C 6.855469 6.269531 14.488281 6.269531 18.785156 7.703125 C 19.976562 8.179688 20.691406 8.179688 21.644531 7.226562 C 23.078125 5.792969 22.144531 4.542969 21.40625 4.242188 C 21.875 4.605469 20.691406 5.316406 19.261719 4.839844 C 10.195312 2.929688 4.664062 5.726562 4.46875 11.996094 Z M 4.46875 11.996094 "/>
<path style=" stroke:none;fill-rule:nonzero;fill:rgb(25.882354%,25.882354%,25.882354%);fill-opacity:1;" d="M 19.253906 4.125 C 19.582031 4.125 19.847656 4.390625 19.847656 4.714844 L 19.847656 4.726562 C 19.847656 5.050781 19.582031 5.316406 19.253906 5.316406 C 18.929688 5.316406 18.664062 5.050781 18.664062 4.726562 L 18.664062 4.714844 C 18.664062 4.390625 18.929688 4.125 19.253906 4.125 Z M 19.253906 4.125 "/>
<path style=" stroke:none;fill-rule:nonzero;fill:rgb(74.117649%,74.117649%,74.117649%);fill-opacity:1;" d="M 19.035156 4.273438 C 19.160156 4.273438 19.257812 4.371094 19.257812 4.496094 L 19.257812 4.5 C 19.257812 4.621094 19.160156 4.71875 19.035156 4.71875 C 18.914062 4.71875 18.8125 4.621094 18.8125 4.5 L 18.8125 4.496094 C 18.8125 4.371094 18.914062 4.273438 19.035156 4.273438 Z M 19.035156 4.273438 "/>
<path style=" stroke:none;fill-rule:nonzero;fill:rgb(25.882354%,25.882354%,25.882354%);fill-opacity:1;" d="M 21.882812 4.839844 C 21.792969 4.75 21.683594 4.6875 21.570312 4.65625 C 21.472656 5.046875 21.40625 5.199219 20.679688 5.191406 C 20.628906 5.421875 20.691406 5.671875 20.871094 5.851562 C 21.152344 6.128906 21.597656 6.128906 21.878906 5.851562 L 21.882812 5.84375 C 22.164062 5.566406 22.164062 5.117188 21.882812 4.839844 Z M 21.882812 4.839844 "/>
<path style=" stroke:none;fill-rule:nonzero;fill:rgb(55.29412%,43.137255%,38.82353%);fill-opacity:1;" d="M 7.570312 5.792969 C 7.332031 6.03125 6.378906 7.152344 6.855469 7.628906 C 7.808594 8.65625 9.71875 8.179688 10.203125 9.058594 C 10.601562 9.785156 11.625 11.519531 9.71875 11.519531 C 9.003906 11.519531 9.042969 10.550781 8.027344 10.253906 C 7.015625 9.957031 5.421875 9.851562 4.945312 11.042969 C 4.46875 11.996094 4.46875 12.953125 4.46875 13.429688 L 3.039062 11.519531 C 3.988281 9.039062 8.046875 4.601562 7.570312 5.792969 Z M 7.570312 5.792969 "/>
<path style=" stroke:none;fill-rule:nonzero;fill:rgb(100%,100%,100%);fill-opacity:0.4;" d="M 12.101562 1.5 C 5.421875 1.5 1.605469 6.183594 1.605469 11.996094 C 1.605469 12.03125 1.609375 12.0625 1.609375 12.097656 C 1.726562 6.410156 5.527344 1.871094 12.101562 1.871094 C 13.058594 1.871094 13.058594 1.871094 15.441406 2.347656 C 17.113281 1.632812 18.390625 1.800781 19.738281 2.347656 C 21.121094 3.042969 21.375 3.671875 21.410156 4.144531 C 21.429688 3.65625 21.527344 2.871094 19.738281 1.976562 C 18.390625 1.429688 17.113281 1.261719 15.441406 1.976562 C 13.058594 1.5 13.058594 1.5 12.101562 1.5 Z M 21.414062 4.246094 C 21.417969 4.386719 21.40625 4.511719 21.40625 4.617188 C 21.820312 4.785156 22.296875 5.253906 22.378906 5.882812 C 22.472656 5.070312 21.902344 4.449219 21.414062 4.246094 Z M 9.242188 8.507812 C 9.101562 8.597656 8.96875 8.695312 8.835938 8.796875 C 9.441406 8.90625 9.976562 9.019531 10.203125 9.429688 C 10.398438 9.785156 10.738281 10.378906 10.820312 10.894531 C 10.921875 10.324219 10.445312 9.503906 10.203125 9.058594 C 10.027344 8.746094 9.671875 8.605469 9.242188 8.507812 Z M 6.855469 13.113281 C 6.855469 13.183594 6.855469 13.253906 6.855469 13.324219 C 6.855469 13.402344 6.855469 13.480469 6.859375 13.558594 C 6.859375 13.597656 6.859375 13.636719 6.863281 13.675781 C 7.003906 17.289062 9.359375 19.527344 13.058594 19.507812 C 17.003906 19.484375 20.292969 16.90625 21.582031 15.742188 C 21.742188 15.582031 21.890625 15.4375 22.027344 15.316406 C 22.0625 15.167969 22.09375 15.015625 22.125 14.859375 C 21.960938 15 21.777344 15.171875 21.582031 15.371094 C 20.292969 16.535156 17.003906 19.113281 13.058594 19.132812 C 9.359375 19.152344 7.003906 16.914062 6.863281 13.304688 C 6.859375 13.265625 6.859375 13.226562 6.859375 13.1875 C 6.859375 13.160156 6.859375 13.136719 6.855469 13.113281 Z M 6.855469 13.113281 "/>
<path style=" stroke:none;fill-rule:nonzero;fill:rgb(0%,0%,0%);fill-opacity:0.4;" d="M 21.410156 4.15625 C 21.410156 4.1875 21.40625 4.226562 21.40625 4.257812 C 21.410156 4.257812 21.414062 4.257812 21.414062 4.261719 C 21.414062 4.226562 21.414062 4.191406 21.410156 4.15625 Z M 22.382812 5.902344 C 22.332031 6.308594 22.121094 6.765625 21.644531 7.238281 C 21.585938 7.296875 21.527344 7.355469 21.46875 7.40625 C 21.410156 7.460938 21.355469 7.507812 21.296875 7.554688 C 21.242188 7.597656 21.183594 7.640625 21.128906 7.679688 C 21.074219 7.714844 21.019531 7.75 20.964844 7.78125 C 20.6875 7.941406 20.421875 8.019531 20.136719 8.027344 C 20.078125 8.03125 20.019531 8.03125 19.960938 8.027344 C 19.902344 8.023438 19.84375 8.015625 19.785156 8.007812 C 19.480469 7.96875 19.15625 7.863281 18.78125 7.714844 C 18.648438 7.671875 18.511719 7.628906 18.371094 7.585938 C 18.230469 7.542969 18.085938 7.503906 17.941406 7.464844 C 17.796875 7.425781 17.648438 7.390625 17.496094 7.355469 C 17.347656 7.320312 17.191406 7.289062 17.039062 7.257812 C 16.882812 7.226562 16.726562 7.195312 16.566406 7.167969 C 16.410156 7.144531 16.25 7.117188 16.085938 7.097656 C 15.925781 7.074219 15.765625 7.054688 15.601562 7.039062 C 13.800781 6.847656 11.894531 6.960938 10.320312 7.59375 C 10.175781 7.652344 10.035156 7.710938 9.898438 7.777344 C 9.519531 7.960938 9.160156 8.183594 8.835938 8.4375 C 8.972656 8.460938 9.109375 8.488281 9.234375 8.515625 C 9.445312 8.378906 9.667969 8.253906 9.898438 8.144531 C 10.035156 8.078125 10.175781 8.015625 10.320312 7.957031 C 11.894531 7.324219 13.800781 7.210938 15.601562 7.402344 C 15.765625 7.417969 15.925781 7.441406 16.085938 7.460938 C 16.25 7.484375 16.410156 7.507812 16.566406 7.535156 C 16.726562 7.5625 16.882812 7.589844 17.039062 7.621094 C 17.191406 7.652344 17.347656 7.6875 17.496094 7.722656 C 17.648438 7.757812 17.796875 7.792969 17.941406 7.832031 C 18.085938 7.871094 18.230469 7.910156 18.371094 7.953125 C 18.511719 7.992188 18.648438 8.035156 18.78125 8.082031 C 19.15625 8.230469 19.480469 8.332031 19.785156 8.375 C 19.84375 8.382812 19.902344 8.390625 19.960938 8.390625 C 20.019531 8.394531 20.078125 8.394531 20.136719 8.394531 C 20.421875 8.382812 20.6875 8.308594 20.964844 8.148438 C 21.019531 8.117188 21.074219 8.082031 21.128906 8.042969 C 21.183594 8.003906 21.242188 7.964844 21.296875 7.917969 C 21.355469 7.871094 21.410156 7.824219 21.46875 7.773438 C 21.527344 7.71875 21.585938 7.664062 21.644531 7.605469 C 22.269531 6.980469 22.441406 6.394531 22.382812 5.902344 Z M 7.453125 10.132812 C 7.070312 10.90625 6.855469 11.839844 6.855469 12.964844 C 6.855469 13.015625 6.855469 13.066406 6.855469 13.117188 C 6.882812 12.085938 7.097656 11.222656 7.453125 10.5 C 7.65625 10.535156 7.851562 10.582031 8.027344 10.632812 C 9.042969 10.929688 9.003906 11.898438 9.71875 11.898438 C 10.6875 11.898438 10.898438 11.449219 10.820312 10.914062 C 10.753906 11.273438 10.457031 11.53125 9.71875 11.53125 C 9.003906 11.53125 9.042969 10.566406 8.027344 10.265625 C 7.851562 10.214844 7.65625 10.167969 7.453125 10.132812 Z M 1.609375 11.789062 C 1.605469 11.859375 1.605469 11.925781 1.605469 11.992188 C 1.605469 17.808594 6.289062 22.492188 12.101562 22.492188 C 15.921875 22.492188 21.167969 20.105469 22.125 14.855469 C 22.09375 14.882812 22.0625 14.910156 22.03125 14.9375 C 20.867188 19.875 15.808594 22.125 12.101562 22.125 C 6.34375 22.125 1.695312 17.53125 1.609375 11.789062 Z M 1.609375 11.789062 "/>
<path style=" stroke:none;fill-rule:nonzero;fill:rgb(63.137257%,53.333336%,49.803922%);fill-opacity:1;" d="M 15.671875 1.511719 C 15.550781 1.519531 15.457031 1.617188 15.457031 1.738281 L 15.457031 2.691406 C 15.457031 2.816406 15.558594 2.917969 15.683594 2.917969 C 15.875 2.917969 16.0625 2.84375 16.261719 2.746094 C 16.457031 2.648438 16.648438 2.519531 16.796875 2.375 C 16.90625 2.265625 16.875 2.082031 16.738281 2.015625 L 15.78125 1.535156 C 15.75 1.519531 15.710938 1.511719 15.671875 1.511719 Z M 15.671875 1.511719 "/>
<path style=" stroke:none;fill-rule:nonzero;fill:rgb(36.470589%,25.098041%,21.568628%);fill-opacity:1;" d="M 15.828125 1.738281 C 15.746094 1.742188 15.683594 1.808594 15.683594 1.890625 L 15.683594 2.539062 C 15.683594 2.625 15.75 2.691406 15.835938 2.691406 C 15.96875 2.691406 16.09375 2.640625 16.226562 2.574219 C 16.359375 2.507812 16.492188 2.421875 16.589844 2.324219 C 16.664062 2.25 16.644531 2.125 16.550781 2.078125 L 15.902344 1.753906 C 15.878906 1.742188 15.855469 1.738281 15.828125 1.738281 Z M 15.828125 1.738281 "/>
<path style=" stroke:none;fill-rule:nonzero;fill:url(#linear0);" d="M 12.101562 1.5 C 5.421875 1.5 1.605469 6.183594 1.605469 11.996094 C 1.605469 17.8125 6.289062 22.492188 12.101562 22.492188 C 15.921875 22.496094 21.167969 20.109375 22.125 14.859375 C 21.960938 15 21.777344 15.171875 21.582031 15.371094 C 21.355469 15.578125 21.066406 15.824219 20.722656 16.09375 C 22 13.417969 21.925781 10.410156 20.726562 7.886719 C 21.023438 7.765625 21.320312 7.550781 21.644531 7.226562 C 23.042969 5.828125 22.183594 4.601562 21.460938 4.265625 C 21.574219 4.179688 21.644531 4.042969 21.644531 3.890625 L 21.644531 3.882812 C 21.644531 3.683594 21.523438 3.511719 21.347656 3.441406 C 21.210938 3.019531 20.820312 2.519531 19.738281 1.976562 C 19.648438 1.941406 19.5625 1.90625 19.476562 1.875 L 19.476562 1.726562 C 19.476562 1.605469 19.382812 1.503906 19.261719 1.5 C 19.222656 1.5 19.183594 1.507812 19.152344 1.523438 L 18.847656 1.675781 C 18 1.453125 17.140625 1.421875 16.148438 1.71875 L 15.78125 1.535156 C 15.75 1.519531 15.710938 1.511719 15.671875 1.511719 C 15.550781 1.515625 15.457031 1.617188 15.457031 1.738281 L 15.457031 1.972656 C 15.453125 1.972656 15.449219 1.976562 15.441406 1.976562 C 13.058594 1.5 13.058594 1.5 12.101562 1.5 Z M 12.101562 1.5 "/>
<path style=" stroke:none;fill-rule:nonzero;fill:rgb(0.784314%,0.784314%,0.784314%);fill-opacity:0.2;" d="M 21.550781 4.171875 C 21.523438 4.207031 21.496094 4.238281 21.460938 4.265625 C 21.519531 4.292969 21.578125 4.328125 21.636719 4.367188 C 21.621094 4.292969 21.59375 4.226562 21.550781 4.171875 Z M 22.367188 5.996094 C 22.292969 6.375 22.078125 6.792969 21.644531 7.226562 C 21.320312 7.550781 21.023438 7.765625 20.726562 7.886719 C 20.796875 8.042969 20.867188 8.199219 20.933594 8.359375 C 21.164062 8.230469 21.398438 8.046875 21.644531 7.796875 C 22.3125 7.132812 22.464844 6.507812 22.367188 5.996094 Z M 1.609375 12.269531 C 1.609375 12.371094 1.605469 12.46875 1.605469 12.570312 C 1.605469 18.386719 6.289062 23.066406 12.101562 23.066406 C 15.921875 23.066406 21.167969 20.679688 22.125 15.433594 C 22.070312 15.476562 22.019531 15.523438 21.964844 15.574219 C 20.683594 20.324219 15.742188 22.496094 12.101562 22.492188 C 6.378906 22.492188 1.753906 17.957031 1.609375 12.269531 Z M 21.648438 12.28125 C 21.609375 13.570312 21.308594 14.867188 20.722656 16.09375 C 20.851562 15.992188 20.972656 15.894531 21.085938 15.800781 C 21.5 14.648438 21.683594 13.457031 21.648438 12.28125 Z M 21.648438 12.28125 "/>
</g>
</svg>
