
<svg xmlns="http://www.w3.org/2000/svg" xmlns:xlink="http://www.w3.org/1999/xlink" width="64" height="64" viewBox="0 0 64 64" version="1.1">
<defs>
<linearGradient id="linear0" gradientUnits="userSpaceOnUse" x1="8.466666" y1="-199.125" x2="8.466666" y2="-213.941666" gradientTransform="matrix(3.779528,0,0,3.779528,0,812.598468)">
<stop offset="0" style="stop-color:rgb(0%,0%,0%);stop-opacity:0.2;"/>
<stop offset="1" style="stop-color:rgb(100%,100%,100%);stop-opacity:0;"/>
</linearGradient>
</defs>
<g id="surface1">
<path style=" stroke:none;fill-rule:nonzero;fill:rgb(95.686275%,26.274511%,21.176471%);fill-opacity:1;" d="M 32 3.992188 C 47.464844 3.992188 60.003906 16.53125 60.003906 32 C 60.003906 47.464844 47.464844 60.003906 32 60.003906 C 16.53125 60.003906 3.992188 47.464844 3.992188 32 C 3.992188 16.53125 16.53125 3.992188 32 3.992188 Z M 32 3.992188 "/>
<path style=" stroke:none;fill-rule:nonzero;fill:rgb(100%,100%,100%);fill-opacity:0.4;" d="M 32 4 C 16.539062 4 4 16.535156 4 32 C 4 32.164062 4.003906 32.332031 4.007812 32.5 C 4.273438 17.265625 16.703125 5 32 5 C 47.296875 5 59.726562 17.265625 59.992188 32.5 C 59.996094 32.332031 60 32.164062 60 32 C 60 16.535156 47.460938 4 32 4 Z M 32 4 "/>
<path style=" stroke:none;fill-rule:nonzero;fill:rgb(0%,0%,0%);fill-opacity:0.4;" d="M 4.015625 31.492188 C 4.011719 31.660156 4 31.824219 4 31.988281 C 4 47.453125 16.539062 59.988281 32 59.988281 C 47.460938 59.988281 59.996094 47.453125 59.996094 31.988281 C 59.996094 31.824219 59.988281 31.660156 59.984375 31.492188 C 59.71875 46.726562 47.296875 58.996094 32 58.996094 C 16.703125 58.996094 4.28125 46.726562 4.015625 31.492188 Z M 4.015625 31.492188 "/>
<path style=" stroke:none;fill-rule:nonzero;fill:rgb(0%,0%,0%);fill-opacity:0.2;" d="M 4.015625 32.75 C 4.007812 33 4 33.25 4 33.5 C 4 48.960938 16.539062 61.5 32 61.5 C 47.460938 61.5 60 48.960938 60 33.5 C 60 33.25 59.992188 33 59.984375 32.75 C 59.585938 47.863281 47.210938 59.996094 32 59.996094 C 16.789062 59.996094 4.414062 47.863281 4.015625 32.75 Z M 4.015625 32.75 "/>
<path style=" stroke:none;fill-rule:nonzero;fill:rgb(100%,80.392158%,82.352942%);fill-opacity:1;" d="M 26.996094 43.820312 C 26.542969 43.820312 26.429688 43.820312 26.089844 42.6875 L 24.28125 35.449219 L 46 16.445312 C 44.378906 27.371094 26.996094 43.59375 26.996094 43.820312 Z M 26.996094 43.820312 "/>
<path style=" stroke:none;fill-rule:nonzero;fill:rgb(74.117649%,74.117649%,74.117649%);fill-opacity:1;" d="M 26.996094 43.820312 C 28.015625 43.933594 30.164062 40.878906 31.519531 39.070312 L 29.710938 38.164062 C 28.804688 40.425781 28.355469 42.238281 26.996094 43.820312 Z M 26.996094 43.820312 "/>
<path style=" stroke:none;fill-rule:nonzero;fill:rgb(100%,92.156863%,93.333334%);fill-opacity:1;" d="M 29.710938 38.164062 L 40.359375 47.5 C 41.902344 48.351562 43.015625 47.910156 43.398438 46.070312 L 47.808594 17.804688 C 48.261719 15.089844 45.546875 15.539062 44.644531 15.992188 L 14.269531 29.992188 C 12.066406 30.875 12.078125 32.105469 13.867188 32.65625 L 24.28125 35.449219 L 42.378906 20.066406 C 42.832031 19.613281 46.453125 16.898438 44.191406 20.066406 Z M 29.710938 38.164062 "/>
<path style=" stroke:none;fill-rule:nonzero;fill:rgb(0%,0%,0%);fill-opacity:0.4;" d="M 47.8125 17.773438 C 47.8125 17.78125 47.8125 17.789062 47.808594 17.800781 L 43.398438 46.066406 C 43.015625 47.910156 41.902344 48.351562 40.359375 47.5 L 31.210938 39.480469 C 29.855469 41.304688 27.941406 43.925781 26.996094 43.820312 C 26.542969 43.820312 26.429688 43.820312 26.089844 42.6875 L 24.28125 35.449219 L 13.867188 32.652344 C 13.332031 32.488281 12.953125 32.265625 12.75 32.003906 C 12.292969 32.652344 12.703125 33.296875 13.867188 33.652344 L 24.28125 36.449219 L 26.089844 43.6875 C 26.429688 44.820312 26.542969 44.820312 26.996094 44.820312 C 26.996094 44.808594 27.042969 44.757812 27.105469 44.6875 C 27.070312 44.730469 27.035156 44.777344 26.996094 44.820312 C 27.941406 44.925781 29.855469 42.304688 31.210938 40.480469 L 40.359375 48.5 C 41.902344 49.351562 43.015625 48.910156 43.398438 47.066406 L 47.808594 18.800781 C 47.878906 18.386719 47.875 18.046875 47.8125 17.769531 Z M 26.996094 43.820312 C 27.035156 43.777344 27.070312 43.730469 27.105469 43.6875 C 27.042969 43.757812 26.996094 43.808594 26.996094 43.820312 Z M 26.996094 43.820312 "/>
<path style=" stroke:none;fill-rule:nonzero;fill:rgb(100%,100%,100%);fill-opacity:0.8;" d="M 46.160156 15.652344 C 45.574219 15.65625 44.980469 15.824219 44.640625 15.992188 L 14.269531 29.992188 C 12.789062 30.585938 12.3125 31.335938 12.699219 31.929688 C 12.921875 31.554688 13.4375 31.171875 14.269531 30.839844 L 44.640625 16.839844 C 44.980469 16.671875 45.574219 16.503906 46.160156 16.5 C 46.917969 16.496094 47.65625 16.769531 47.824219 17.679688 C 48.039062 16.085938 47.113281 15.648438 46.160156 15.652344 Z M 46.160156 15.652344 "/>
<path style=" stroke:none;fill-rule:nonzero;fill:url(#linear0);" d="M 32 4 C 47.460938 4 60 16.535156 60 32 C 60 47.460938 47.460938 59.996094 32 59.996094 C 16.539062 59.996094 4 47.460938 4 32 C 4 16.535156 16.539062 4 32 4 Z M 32 4 "/>
</g>
</svg>
