
<svg xmlns="http://www.w3.org/2000/svg" xmlns:xlink="http://www.w3.org/1999/xlink" width="24" height="24" viewBox="0 0 24 24" version="1.1">
<defs>
<linearGradient id="linear0" gradientUnits="userSpaceOnUse" x1="8.466666" y1="-203.358337" x2="8.466666" y2="-213.941666" gradientTransform="matrix(1.417323,0,0,1.417323,0,304.724419)">
<stop offset="0" style="stop-color:rgb(0%,0%,0%);stop-opacity:0.2;"/>
<stop offset="1" style="stop-color:rgb(100%,100%,100%);stop-opacity:0;"/>
</linearGradient>
</defs>
<g id="surface1">
<path style=" stroke:none;fill-rule:nonzero;fill:rgb(38.039216%,38.039216%,38.039216%);fill-opacity:1;" d="M 11.625 5.0625 L 12.375 5.0625 C 12.480469 5.0625 12.5625 5.144531 12.5625 5.25 L 12.5625 7.3125 C 12.5625 7.417969 12.480469 7.5 12.375 7.5 L 11.625 7.5 C 11.519531 7.5 11.4375 7.417969 11.4375 7.3125 L 11.4375 5.25 C 11.4375 5.144531 11.519531 5.0625 11.625 5.0625 Z M 11.625 5.0625 "/>
<path style=" stroke:none;fill-rule:nonzero;fill:rgb(87.843138%,87.843138%,87.843138%);fill-opacity:1;" d="M 6 7.3125 C 3.507812 7.3125 1.5 9.320312 1.5 11.8125 C 1.5 14.304688 3.507812 16.3125 6 16.3125 C 7.339844 16.3125 8.535156 15.734375 9.359375 14.8125 L 14.640625 14.8125 C 15.464844 15.734375 16.660156 16.3125 18 16.3125 C 20.492188 16.3125 22.5 14.304688 22.5 11.8125 C 22.5 9.320312 20.492188 7.3125 18 7.3125 Z M 6 7.3125 "/>
<path style=" stroke:none;fill-rule:nonzero;fill:rgb(100%,100%,100%);fill-opacity:0.4;" d="M 2.253906 11.90625 C 2.25 11.9375 2.25 11.96875 2.25 12 C 2.25 14.078125 3.921875 15.75 6 15.75 C 7.230469 15.75 8.320312 15.160156 9.003906 14.25 L 14.996094 14.25 C 15.679688 15.160156 16.769531 15.75 18 15.75 C 20.078125 15.75 21.75 14.078125 21.75 12 C 21.75 11.96875 21.75 11.9375 21.746094 11.90625 C 21.699219 13.9375 20.046875 15.5625 18 15.5625 C 16.769531 15.5625 15.679688 14.972656 14.996094 14.0625 L 9.003906 14.0625 C 8.320312 14.972656 7.230469 15.5625 6 15.5625 C 3.953125 15.5625 2.300781 13.9375 2.253906 11.90625 Z M 2.253906 11.90625 "/>
<path style=" stroke:none;fill-rule:nonzero;fill:rgb(74.117649%,74.117649%,74.117649%);fill-opacity:1;" d="M 6 8.0625 C 3.921875 8.0625 2.25 9.734375 2.25 11.8125 C 2.25 13.890625 3.921875 15.5625 6 15.5625 C 7.230469 15.5625 8.320312 14.972656 9.003906 14.0625 L 14.996094 14.0625 C 15.679688 14.972656 16.769531 15.5625 18 15.5625 C 20.078125 15.5625 21.75 13.890625 21.75 11.8125 C 21.75 9.734375 20.078125 8.0625 18 8.0625 Z M 6 8.0625 "/>
<path style=" stroke:none;fill-rule:nonzero;fill:rgb(61.960787%,61.960787%,61.960787%);fill-opacity:1;" d="M 10.320312 10.5 L 13.695312 10.5 C 14.003906 10.5 14.257812 10.75 14.257812 11.0625 C 14.257812 11.371094 14.003906 11.625 13.695312 11.625 L 10.320312 11.625 C 10.007812 11.625 9.757812 11.371094 9.757812 11.0625 C 9.757812 10.75 10.007812 10.5 10.320312 10.5 Z M 10.320312 10.5 "/>
<path style=" stroke:none;fill-rule:nonzero;fill:rgb(4.313726%,5.490196%,5.882353%);fill-opacity:0.4;" d="M 10.320312 10.5 C 10.007812 10.5 9.757812 10.75 9.757812 11.0625 C 9.757812 11.09375 9.757812 11.125 9.765625 11.15625 C 9.808594 10.890625 10.039062 10.6875 10.320312 10.6875 L 13.695312 10.6875 C 13.972656 10.6875 14.203125 10.890625 14.246094 11.15625 C 14.253906 11.125 14.257812 11.09375 14.257812 11.0625 C 14.257812 10.75 14.003906 10.5 13.695312 10.5 Z M 10.320312 10.5 "/>
<path style=" stroke:none;fill-rule:nonzero;fill:rgb(99.215686%,99.215686%,99.607843%);fill-opacity:0.4;" d="M 10.320312 11.8125 C 10.007812 11.8125 9.757812 11.5625 9.757812 11.25 C 9.757812 11.21875 9.757812 11.1875 9.765625 11.15625 C 9.808594 11.421875 10.039062 11.625 10.320312 11.625 L 13.695312 11.625 C 13.972656 11.625 14.203125 11.421875 14.246094 11.15625 C 14.253906 11.1875 14.257812 11.21875 14.257812 11.25 C 14.257812 11.5625 14.003906 11.8125 13.695312 11.8125 Z M 10.320312 11.8125 "/>
<path style=" stroke:none;fill-rule:nonzero;fill:rgb(38.039216%,38.039216%,38.039216%);fill-opacity:1;" d="M 10.414062 10.6875 L 11.351562 10.6875 C 11.503906 10.6875 11.632812 10.8125 11.632812 10.96875 C 11.632812 11.125 11.503906 11.25 11.351562 11.25 L 10.414062 11.25 C 10.257812 11.25 10.132812 11.125 10.132812 10.96875 C 10.132812 10.8125 10.257812 10.6875 10.414062 10.6875 Z M 10.414062 10.6875 "/>
<path style=" stroke:none;fill-rule:nonzero;fill:rgb(38.039216%,38.039216%,38.039216%);fill-opacity:1;" d="M 12.664062 10.6875 L 13.601562 10.6875 C 13.753906 10.6875 13.882812 10.8125 13.882812 10.96875 C 13.882812 11.125 13.753906 11.25 13.601562 11.25 L 12.664062 11.25 C 12.507812 11.25 12.382812 11.125 12.382812 10.96875 C 12.382812 10.8125 12.507812 10.6875 12.664062 10.6875 Z M 12.664062 10.6875 "/>
<path style=" stroke:none;fill-rule:nonzero;fill:rgb(38.039216%,38.039216%,38.039216%);fill-opacity:1;" d="M 10.414062 10.6875 L 11.351562 10.6875 C 11.503906 10.6875 11.632812 10.8125 11.632812 10.96875 C 11.632812 11.125 11.503906 11.25 11.351562 11.25 L 10.414062 11.25 C 10.257812 11.25 10.132812 11.125 10.132812 10.96875 C 10.132812 10.8125 10.257812 10.6875 10.414062 10.6875 Z M 10.414062 10.6875 "/>
<path style=" stroke:none;fill-rule:nonzero;fill:rgb(38.039216%,38.039216%,38.039216%);fill-opacity:1;" d="M 12.664062 10.6875 L 13.601562 10.6875 C 13.753906 10.6875 13.882812 10.8125 13.882812 10.96875 C 13.882812 11.125 13.753906 11.25 13.601562 11.25 L 12.664062 11.25 C 12.507812 11.25 12.382812 11.125 12.382812 10.96875 C 12.382812 10.8125 12.507812 10.6875 12.664062 10.6875 Z M 12.664062 10.6875 "/>
<path style=" stroke:none;fill-rule:nonzero;fill:rgb(100%,100%,100%);fill-opacity:0.4;" d="M 10.398438 10.6875 C 10.25 10.695312 10.132812 10.816406 10.132812 10.96875 C 10.132812 11 10.136719 11.03125 10.148438 11.0625 C 10.183594 10.957031 10.28125 10.878906 10.398438 10.875 C 10.402344 10.875 10.40625 10.875 10.414062 10.875 L 11.351562 10.875 C 11.472656 10.875 11.574219 10.953125 11.613281 11.0625 C 11.625 11.03125 11.632812 11 11.632812 10.96875 C 11.632812 10.8125 11.503906 10.6875 11.351562 10.6875 L 10.414062 10.6875 C 10.40625 10.6875 10.402344 10.6875 10.398438 10.6875 Z M 12.648438 10.6875 C 12.5 10.695312 12.382812 10.816406 12.382812 10.96875 C 12.382812 11 12.386719 11.03125 12.398438 11.0625 C 12.433594 10.957031 12.53125 10.878906 12.648438 10.875 C 12.652344 10.875 12.65625 10.875 12.664062 10.875 L 13.601562 10.875 C 13.722656 10.875 13.824219 10.953125 13.863281 11.0625 C 13.875 11.03125 13.882812 11 13.882812 10.96875 C 13.882812 10.8125 13.753906 10.6875 13.601562 10.6875 L 12.664062 10.6875 C 12.65625 10.6875 12.652344 10.6875 12.648438 10.6875 Z M 12.648438 10.6875 "/>
<path style=" stroke:none;fill-rule:nonzero;fill:rgb(15.294118%,15.294118%,15.294118%);fill-opacity:0.4;" d="M 10.398438 11.4375 C 10.25 11.429688 10.132812 11.304688 10.132812 11.15625 C 10.132812 11.121094 10.136719 11.089844 10.148438 11.0625 C 10.183594 11.167969 10.28125 11.242188 10.398438 11.25 C 10.402344 11.25 10.40625 11.25 10.414062 11.25 L 11.351562 11.25 C 11.472656 11.25 11.574219 11.171875 11.613281 11.0625 C 11.625 11.089844 11.632812 11.121094 11.632812 11.15625 C 11.632812 11.3125 11.503906 11.4375 11.351562 11.4375 L 10.414062 11.4375 C 10.40625 11.4375 10.402344 11.4375 10.398438 11.4375 Z M 12.648438 11.4375 C 12.5 11.429688 12.382812 11.304688 12.382812 11.15625 C 12.382812 11.121094 12.386719 11.089844 12.398438 11.0625 C 12.433594 11.167969 12.53125 11.242188 12.648438 11.25 C 12.652344 11.25 12.65625 11.25 12.664062 11.25 L 13.601562 11.25 C 13.722656 11.25 13.824219 11.171875 13.863281 11.0625 C 13.875 11.089844 13.882812 11.121094 13.882812 11.15625 C 13.882812 11.3125 13.753906 11.4375 13.601562 11.4375 L 12.664062 11.4375 C 12.65625 11.4375 12.652344 11.4375 12.648438 11.4375 Z M 12.648438 11.4375 "/>
<path style=" stroke:none;fill-rule:nonzero;fill:rgb(38.039216%,38.039216%,38.039216%);fill-opacity:1;" d="M 5.625 9.75 C 5.417969 9.75 5.25 9.917969 5.25 10.125 L 5.25 11.0625 L 4.3125 11.0625 C 4.105469 11.0625 3.9375 11.230469 3.9375 11.4375 L 3.9375 11.8125 C 3.9375 12.019531 4.105469 12.1875 4.3125 12.1875 L 5.25 12.1875 L 5.25 13.125 C 5.25 13.332031 5.417969 13.5 5.625 13.5 L 6 13.5 C 6.207031 13.5 6.375 13.332031 6.375 13.125 L 6.375 12.1875 L 7.3125 12.1875 C 7.519531 12.1875 7.6875 12.019531 7.6875 11.8125 L 7.6875 11.4375 C 7.6875 11.230469 7.519531 11.0625 7.3125 11.0625 L 6.375 11.0625 L 6.375 10.125 C 6.375 9.917969 6.207031 9.75 6 9.75 Z M 5.625 9.75 "/>
<path style=" stroke:none;fill-rule:nonzero;fill:rgb(15.686275%,15.686275%,15.686275%);fill-opacity:0.4;" d="M 3.9375 11.8125 L 3.9375 12 C 3.9375 12.207031 4.105469 12.375 4.3125 12.375 L 5.25 12.375 L 5.25 12.1875 L 4.3125 12.1875 C 4.105469 12.1875 3.9375 12.019531 3.9375 11.8125 Z M 7.6875 11.8125 C 7.6875 12.019531 7.519531 12.1875 7.3125 12.1875 L 6.375 12.1875 L 6.375 12.375 L 7.3125 12.375 C 7.519531 12.375 7.6875 12.207031 7.6875 12 Z M 5.25 13.125 L 5.25 13.3125 C 5.25 13.519531 5.417969 13.6875 5.625 13.6875 L 6 13.6875 C 6.207031 13.6875 6.375 13.519531 6.375 13.3125 L 6.375 13.125 C 6.375 13.332031 6.207031 13.5 6 13.5 L 5.625 13.5 C 5.417969 13.5 5.25 13.332031 5.25 13.125 Z M 5.25 13.125 "/>
<path style=" stroke:none;fill-rule:nonzero;fill:rgb(100%,100%,100%);fill-opacity:0.4;" d="M 5.625 9.75 C 5.417969 9.75 5.25 9.917969 5.25 10.125 L 5.25 10.3125 C 5.25 10.105469 5.417969 9.9375 5.625 9.9375 L 6 9.9375 C 6.207031 9.9375 6.375 10.105469 6.375 10.3125 L 6.375 10.125 C 6.375 9.917969 6.207031 9.75 6 9.75 Z M 4.3125 11.0625 C 4.105469 11.0625 3.9375 11.230469 3.9375 11.4375 L 3.9375 11.625 C 3.9375 11.417969 4.105469 11.25 4.3125 11.25 L 5.25 11.25 L 5.25 11.0625 Z M 6.375 11.0625 L 6.375 11.25 L 7.3125 11.25 C 7.519531 11.25 7.6875 11.417969 7.6875 11.625 L 7.6875 11.4375 C 7.6875 11.230469 7.519531 11.0625 7.3125 11.0625 Z M 6.375 11.0625 "/>
<path style=" stroke:none;fill-rule:nonzero;fill:rgb(0%,0%,0%);fill-opacity:0.4;" d="M 6 8.0625 C 3.921875 8.0625 2.25 9.734375 2.25 11.8125 C 2.25 11.84375 2.25 11.875 2.253906 11.90625 C 2.300781 9.875 3.953125 8.253906 6 8.253906 L 18 8.253906 C 20.046875 8.253906 21.699219 9.875 21.746094 11.90625 C 21.75 11.875 21.75 11.84375 21.75 11.8125 C 21.75 9.734375 20.078125 8.0625 18 8.0625 Z M 6 8.0625 "/>
<path style=" stroke:none;fill-rule:nonzero;fill:rgb(100%,100%,100%);fill-opacity:0.4;" d="M 6 7.3125 C 3.507812 7.3125 1.5 9.320312 1.5 11.8125 C 1.5 11.875 1.5 11.9375 1.503906 11.996094 C 1.601562 9.59375 3.570312 7.683594 6 7.683594 L 18 7.683594 C 20.429688 7.683594 22.398438 9.59375 22.496094 11.996094 C 22.5 11.9375 22.5 11.875 22.5 11.8125 C 22.5 9.320312 20.492188 7.3125 18 7.3125 Z M 6 7.3125 "/>
<path style=" stroke:none;fill-rule:nonzero;fill:rgb(38.039216%,38.039216%,38.039216%);fill-opacity:1;" d="M 18.375 1.5 C 18.375 2.316406 18.566406 3.238281 18.5 3.886719 C 18.464844 4.210938 18.378906 4.441406 18.222656 4.59375 C 18.066406 4.75 17.816406 4.867188 17.324219 4.875 C 16.820312 4.882812 16.628906 4.757812 16.472656 4.5625 C 16.320312 4.367188 16.21875 4.042969 16.121094 3.667969 C 16.019531 3.292969 15.917969 2.863281 15.636719 2.496094 C 15.359375 2.128906 14.875 1.875 14.21875 1.875 C 13.027344 1.875 12.277344 2.339844 11.941406 3.023438 C 11.605469 3.703125 11.625 4.5 11.625 5.25 L 12.375 5.25 C 12.375 4.5 12.394531 3.796875 12.613281 3.351562 C 12.832031 2.910156 13.195312 2.625 14.21875 2.625 C 14.707031 2.625 14.890625 2.75 15.042969 2.949219 C 15.195312 3.152344 15.292969 3.480469 15.394531 3.859375 C 15.496094 4.238281 15.597656 4.664062 15.886719 5.03125 C 16.175781 5.394531 16.671875 5.636719 17.335938 5.625 C 17.953125 5.613281 18.433594 5.445312 18.75 5.125 C 19.070312 4.808594 19.199219 4.386719 19.246094 3.964844 C 19.332031 3.121094 19.125 2.183594 19.125 1.5 Z M 18.375 1.5 "/>
<path style=" stroke:none;fill-rule:nonzero;fill:rgb(40.000001%,73.333335%,41.568628%);fill-opacity:1;" d="M 16.496094 10.875 C 16.910156 10.875 17.246094 11.210938 17.246094 11.625 C 17.246094 12.039062 16.910156 12.375 16.496094 12.375 C 16.078125 12.375 15.746094 12.039062 15.746094 11.625 C 15.746094 11.210938 16.078125 10.875 16.496094 10.875 Z M 16.496094 10.875 "/>
<path style=" stroke:none;fill-rule:nonzero;fill:rgb(100%,65.490198%,14.901961%);fill-opacity:1;" d="M 18.183594 12.375 C 18.597656 12.375 18.933594 12.710938 18.933594 13.125 C 18.933594 13.539062 18.597656 13.875 18.183594 13.875 C 17.765625 13.875 17.433594 13.539062 17.433594 13.125 C 17.433594 12.710938 17.765625 12.375 18.183594 12.375 Z M 18.183594 12.375 "/>
<path style=" stroke:none;fill-rule:nonzero;fill:rgb(95.686275%,26.274511%,21.176471%);fill-opacity:1;" d="M 19.871094 10.875 C 20.285156 10.875 20.621094 11.210938 20.621094 11.625 C 20.621094 12.039062 20.285156 12.375 19.871094 12.375 C 19.453125 12.375 19.121094 12.039062 19.121094 11.625 C 19.121094 11.210938 19.453125 10.875 19.871094 10.875 Z M 19.871094 10.875 "/>
<path style=" stroke:none;fill-rule:nonzero;fill:rgb(25.882354%,64.705884%,96.078432%);fill-opacity:1;" d="M 18.183594 9.375 C 18.597656 9.375 18.933594 9.710938 18.933594 10.125 C 18.933594 10.539062 18.597656 10.875 18.183594 10.875 C 17.765625 10.875 17.433594 10.539062 17.433594 10.125 C 17.433594 9.710938 17.765625 9.375 18.183594 9.375 Z M 18.183594 9.375 "/>
<path style=" stroke:none;fill-rule:nonzero;fill:rgb(100%,100%,100%);fill-opacity:0.4;" d="M 18.160156 9.375 C 17.753906 9.386719 17.433594 9.714844 17.433594 10.125 C 17.433594 10.15625 17.433594 10.1875 17.4375 10.21875 C 17.484375 9.851562 17.789062 9.570312 18.160156 9.5625 C 18.167969 9.5625 18.175781 9.5625 18.179688 9.5625 C 18.566406 9.5625 18.878906 9.847656 18.925781 10.21875 C 18.929688 10.1875 18.929688 10.15625 18.929688 10.125 C 18.929688 9.710938 18.597656 9.375 18.179688 9.375 C 18.175781 9.375 18.167969 9.375 18.160156 9.375 Z M 16.472656 10.875 C 16.066406 10.886719 15.746094 11.214844 15.746094 11.625 C 15.746094 11.65625 15.746094 11.6875 15.75 11.71875 C 15.796875 11.351562 16.101562 11.070312 16.472656 11.0625 C 16.480469 11.0625 16.488281 11.0625 16.492188 11.0625 C 16.878906 11.0625 17.191406 11.347656 17.238281 11.71875 C 17.242188 11.6875 17.242188 11.65625 17.242188 11.625 C 17.242188 11.210938 16.910156 10.875 16.492188 10.875 C 16.488281 10.875 16.480469 10.875 16.472656 10.875 Z M 19.847656 10.875 C 19.441406 10.886719 19.121094 11.214844 19.121094 11.625 C 19.121094 11.65625 19.121094 11.6875 19.125 11.71875 C 19.171875 11.351562 19.476562 11.070312 19.847656 11.0625 C 19.855469 11.0625 19.863281 11.0625 19.867188 11.0625 C 20.253906 11.0625 20.566406 11.347656 20.613281 11.71875 C 20.617188 11.6875 20.617188 11.65625 20.617188 11.625 C 20.617188 11.210938 20.285156 10.875 19.867188 10.875 C 19.863281 10.875 19.855469 10.875 19.847656 10.875 Z M 18.160156 12.375 C 17.753906 12.386719 17.433594 12.714844 17.433594 13.125 C 17.433594 13.15625 17.433594 13.1875 17.4375 13.21875 C 17.484375 12.851562 17.789062 12.570312 18.160156 12.5625 C 18.167969 12.5625 18.175781 12.5625 18.179688 12.5625 C 18.566406 12.5625 18.878906 12.847656 18.925781 13.21875 C 18.929688 13.1875 18.929688 13.15625 18.929688 13.125 C 18.929688 12.710938 18.597656 12.375 18.179688 12.375 C 18.175781 12.375 18.167969 12.375 18.160156 12.375 Z M 18.160156 12.375 "/>
<path style=" stroke:none;fill-rule:nonzero;fill:rgb(0%,0%,0%);fill-opacity:0.4;" d="M 18.160156 14.0625 C 17.753906 14.050781 17.433594 13.722656 17.433594 13.3125 C 17.433594 13.28125 17.433594 13.25 17.4375 13.21875 C 17.484375 13.585938 17.789062 13.867188 18.160156 13.875 C 18.167969 13.875 18.175781 13.875 18.179688 13.875 C 18.566406 13.875 18.878906 13.589844 18.925781 13.21875 C 18.929688 13.25 18.929688 13.28125 18.929688 13.3125 C 18.929688 13.726562 18.597656 14.0625 18.179688 14.0625 C 18.175781 14.0625 18.167969 14.0625 18.160156 14.0625 Z M 16.472656 12.5625 C 16.066406 12.550781 15.746094 12.222656 15.746094 11.8125 C 15.746094 11.78125 15.746094 11.75 15.75 11.71875 C 15.796875 12.085938 16.101562 12.367188 16.472656 12.375 C 16.480469 12.375 16.488281 12.375 16.492188 12.375 C 16.878906 12.375 17.191406 12.089844 17.238281 11.71875 C 17.242188 11.75 17.242188 11.78125 17.242188 11.8125 C 17.242188 12.226562 16.910156 12.5625 16.492188 12.5625 C 16.488281 12.5625 16.480469 12.5625 16.472656 12.5625 Z M 19.847656 12.5625 C 19.441406 12.550781 19.121094 12.222656 19.121094 11.8125 C 19.121094 11.78125 19.121094 11.75 19.125 11.71875 C 19.171875 12.085938 19.476562 12.367188 19.847656 12.375 C 19.855469 12.375 19.863281 12.375 19.867188 12.375 C 20.253906 12.375 20.566406 12.089844 20.613281 11.71875 C 20.617188 11.75 20.617188 11.78125 20.617188 11.8125 C 20.617188 12.226562 20.285156 12.5625 19.867188 12.5625 C 19.863281 12.5625 19.855469 12.5625 19.847656 12.5625 Z M 18.160156 11.0625 C 17.753906 11.050781 17.433594 10.722656 17.433594 10.3125 C 17.433594 10.28125 17.433594 10.25 17.4375 10.21875 C 17.484375 10.585938 17.789062 10.867188 18.160156 10.875 C 18.167969 10.875 18.175781 10.875 18.179688 10.875 C 18.566406 10.875 18.878906 10.589844 18.925781 10.21875 C 18.929688 10.25 18.929688 10.28125 18.929688 10.3125 C 18.929688 10.726562 18.597656 11.0625 18.179688 11.0625 C 18.175781 11.0625 18.167969 11.0625 18.160156 11.0625 Z M 18.160156 11.0625 "/>
<path style=" stroke:none;fill-rule:nonzero;fill:rgb(0%,0%,0%);fill-opacity:0.4;" d="M 1.503906 11.625 C 1.5 11.6875 1.5 11.75 1.5 11.8125 C 1.5 14.304688 3.507812 16.3125 6 16.3125 C 7.339844 16.3125 8.535156 15.734375 9.359375 14.8125 L 14.640625 14.8125 C 15.464844 15.734375 16.660156 16.3125 18 16.3125 C 20.492188 16.3125 22.5 14.304688 22.5 11.8125 C 22.5 11.75 22.5 11.6875 22.496094 11.625 C 22.398438 14.03125 20.429688 15.9375 18 15.9375 C 16.660156 15.9375 15.464844 15.359375 14.640625 14.4375 L 9.359375 14.4375 C 8.535156 15.359375 7.339844 15.9375 6 15.9375 C 3.570312 15.9375 1.601562 14.03125 1.503906 11.625 Z M 1.503906 11.625 "/>
<path style=" stroke:none;fill-rule:nonzero;fill:rgb(0%,0%,0%);fill-opacity:0.2;" d="M 1.507812 12.09375 C 1.503906 12.1875 1.5 12.28125 1.5 12.378906 C 1.5 14.871094 3.507812 16.878906 6 16.878906 C 7.339844 16.878906 8.535156 16.296875 9.359375 15.378906 L 14.640625 15.378906 C 15.464844 16.296875 16.660156 16.878906 18 16.878906 C 20.492188 16.878906 22.5 14.871094 22.5 12.378906 C 22.5 12.28125 22.496094 12.1875 22.492188 12.09375 C 22.34375 14.453125 20.398438 16.3125 18 16.3125 C 16.660156 16.3125 15.464844 15.734375 14.640625 14.8125 L 9.359375 14.8125 C 8.535156 15.734375 7.339844 16.3125 6 16.3125 C 3.601562 16.3125 1.65625 14.453125 1.507812 12.09375 Z M 1.507812 12.09375 "/>
<path style=" stroke:none;fill-rule:nonzero;fill:url(#linear0);" d="M 18.375 1.5 C 18.375 2.316406 18.566406 3.238281 18.5 3.886719 C 18.464844 4.210938 18.378906 4.441406 18.222656 4.59375 C 18.070312 4.75 17.816406 4.867188 17.324219 4.875 C 16.820312 4.882812 16.628906 4.757812 16.472656 4.5625 C 16.320312 4.367188 16.21875 4.042969 16.117188 3.667969 C 16.019531 3.292969 15.917969 2.863281 15.636719 2.496094 C 15.359375 2.128906 14.871094 1.875 14.21875 1.875 C 13.023438 1.875 12.277344 2.339844 11.941406 3.023438 C 11.632812 3.648438 11.625 4.367188 11.625 5.0625 C 11.519531 5.0625 11.4375 5.148438 11.4375 5.25 C 11.332031 5.25 11.25 5.332031 11.25 5.4375 C 11.25 5.542969 11.332031 5.625 11.4375 5.625 L 11.4375 6 C 11.332031 6 11.25 6.082031 11.25 6.1875 C 11.25 6.292969 11.332031 6.375 11.4375 6.375 L 11.4375 6.75 C 11.332031 6.75 11.25 6.832031 11.25 6.9375 C 11.25 7.042969 11.332031 7.125 11.4375 7.125 L 11.4375 7.3125 L 6 7.3125 C 3.507812 7.3125 1.5 9.320312 1.5 11.8125 C 1.5 14.304688 3.507812 16.3125 6 16.3125 C 7.339844 16.3125 8.535156 15.734375 9.359375 14.8125 L 14.640625 14.8125 C 15.464844 15.734375 16.660156 16.3125 18 16.3125 C 20.492188 16.3125 22.5 14.304688 22.5 11.8125 C 22.5 9.320312 20.492188 7.3125 18 7.3125 L 12.5625 7.3125 L 12.5625 7.125 C 12.667969 7.125 12.75 7.042969 12.75 6.9375 C 12.75 6.832031 12.667969 6.75 12.5625 6.75 L 12.5625 6.375 C 12.667969 6.375 12.75 6.292969 12.75 6.1875 C 12.75 6.082031 12.667969 6 12.5625 6 L 12.5625 5.625 C 12.667969 5.625 12.75 5.542969 12.75 5.4375 C 12.75 5.332031 12.667969 5.25 12.5625 5.25 C 12.5625 5.144531 12.480469 5.0625 12.375 5.0625 C 12.378906 4.382812 12.414062 3.757812 12.613281 3.351562 C 12.832031 2.910156 13.195312 2.625 14.21875 2.625 C 14.707031 2.625 14.890625 2.75 15.042969 2.949219 C 15.195312 3.152344 15.292969 3.480469 15.394531 3.859375 C 15.496094 4.238281 15.597656 4.664062 15.886719 5.03125 C 16.175781 5.394531 16.671875 5.636719 17.335938 5.625 C 17.953125 5.613281 18.433594 5.445312 18.753906 5.125 C 19.070312 4.808594 19.199219 4.386719 19.246094 3.964844 C 19.332031 3.121094 19.125 2.183594 19.125 1.5 Z M 18.375 1.5 "/>
<path style=" stroke:none;fill-rule:nonzero;fill:rgb(100%,100%,100%);fill-opacity:0.2;" d="M 18.375 1.5 C 18.375 1.5625 18.375 1.625 18.378906 1.6875 L 19.125 1.6875 C 19.125 2.230469 19.257812 2.933594 19.265625 3.621094 C 19.28125 2.875 19.125 2.09375 19.125 1.5 Z M 14.21875 1.875 C 13.023438 1.875 12.277344 2.339844 11.941406 3.023438 C 11.621094 3.675781 11.621094 4.433594 11.625 5.15625 C 11.625 4.492188 11.648438 3.804688 11.941406 3.210938 C 12.277344 2.527344 13.023438 2.0625 14.21875 2.0625 C 14.871094 2.0625 15.359375 2.316406 15.636719 2.683594 C 15.917969 3.050781 16.019531 3.480469 16.117188 3.855469 C 16.21875 4.230469 16.320312 4.554688 16.472656 4.75 C 16.628906 4.945312 16.820312 5.070312 17.324219 5.0625 C 17.816406 5.054688 18.070312 4.9375 18.222656 4.78125 C 18.378906 4.628906 18.464844 4.398438 18.5 4.074219 C 18.511719 3.949219 18.515625 3.816406 18.511719 3.675781 C 18.511719 3.75 18.507812 3.820312 18.5 3.886719 C 18.464844 4.210938 18.378906 4.441406 18.222656 4.59375 C 18.070312 4.75 17.816406 4.867188 17.324219 4.875 C 16.820312 4.882812 16.628906 4.757812 16.472656 4.5625 C 16.320312 4.367188 16.21875 4.042969 16.117188 3.667969 C 16.019531 3.292969 15.917969 2.863281 15.636719 2.496094 C 15.359375 2.128906 14.871094 1.875 14.21875 1.875 Z M 14.21875 1.875 "/>
<path style=" stroke:none;fill-rule:nonzero;fill:rgb(0.784314%,0.784314%,0.784314%);fill-opacity:0.4;" d="M 18.375 1.5 C 18.375 2.160156 18.5 2.890625 18.511719 3.488281 C 18.527344 2.914062 18.398438 2.179688 18.378906 1.5 Z M 14.21875 2.4375 C 13.195312 2.4375 12.832031 2.71875 12.613281 3.164062 C 12.394531 3.609375 12.375 4.125 12.375 4.875 L 11.625 4.875 C 11.625 4.9375 11.625 5 11.625 5.0625 L 12.375 5.0625 C 12.375 4.3125 12.394531 3.796875 12.613281 3.351562 C 12.832031 2.910156 13.195312 2.625 14.21875 2.625 C 14.707031 2.625 14.890625 2.75 15.042969 2.949219 C 15.195312 3.152344 15.292969 3.480469 15.394531 3.859375 C 15.496094 4.238281 15.597656 4.664062 15.886719 5.03125 C 16.175781 5.394531 16.671875 5.636719 17.335938 5.625 C 17.953125 5.613281 18.433594 5.445312 18.753906 5.125 C 19.070312 4.808594 19.199219 4.386719 19.246094 3.964844 C 19.261719 3.789062 19.269531 3.613281 19.265625 3.433594 C 19.261719 3.550781 19.257812 3.664062 19.246094 3.777344 C 19.199219 4.199219 19.070312 4.621094 18.753906 4.9375 C 18.433594 5.257812 17.953125 5.425781 17.335938 5.4375 C 16.671875 5.449219 16.175781 5.207031 15.886719 4.84375 C 15.597656 4.476562 15.496094 4.050781 15.394531 3.671875 C 15.292969 3.292969 15.195312 2.964844 15.042969 2.761719 C 14.890625 2.5625 14.707031 2.4375 14.21875 2.4375 Z M 14.21875 2.4375 "/>
<path style=" stroke:none;fill-rule:nonzero;fill:rgb(45.882353%,45.882353%,45.882353%);fill-opacity:1;" d="M 11.4375 5.25 L 12.5625 5.25 C 12.667969 5.25 12.75 5.332031 12.75 5.4375 C 12.75 5.542969 12.667969 5.625 12.5625 5.625 L 11.4375 5.625 C 11.332031 5.625 11.25 5.542969 11.25 5.4375 C 11.25 5.332031 11.332031 5.25 11.4375 5.25 Z M 11.4375 5.25 "/>
<path style=" stroke:none;fill-rule:nonzero;fill:rgb(100%,100%,100%);fill-opacity:0.4;" d="M 11.429688 5.25 C 11.328125 5.253906 11.25 5.335938 11.25 5.4375 C 11.25 5.472656 11.257812 5.503906 11.273438 5.53125 C 11.308594 5.476562 11.367188 5.4375 11.4375 5.4375 L 12.5625 5.4375 C 12.632812 5.4375 12.691406 5.476562 12.726562 5.53125 C 12.742188 5.503906 12.75 5.472656 12.75 5.4375 C 12.75 5.332031 12.667969 5.25 12.5625 5.25 L 11.4375 5.25 C 11.433594 5.25 11.429688 5.25 11.429688 5.25 Z M 11.429688 5.25 "/>
<path style=" stroke:none;fill-rule:nonzero;fill:rgb(0.784314%,0.784314%,0.784314%);fill-opacity:0.4;" d="M 11.4375 5.625 L 12.5625 5.625 L 12.5625 5.8125 L 11.4375 5.8125 Z M 11.4375 5.625 "/>
<path style=" stroke:none;fill-rule:nonzero;fill:rgb(45.882353%,45.882353%,45.882353%);fill-opacity:1;" d="M 11.4375 6 L 12.5625 6 C 12.667969 6 12.75 6.082031 12.75 6.1875 C 12.75 6.292969 12.667969 6.375 12.5625 6.375 L 11.4375 6.375 C 11.332031 6.375 11.25 6.292969 11.25 6.1875 C 11.25 6.082031 11.332031 6 11.4375 6 Z M 11.4375 6 "/>
<path style=" stroke:none;fill-rule:nonzero;fill:rgb(100%,100%,100%);fill-opacity:0.4;" d="M 11.429688 6 C 11.328125 6.003906 11.25 6.085938 11.25 6.1875 C 11.25 6.222656 11.257812 6.253906 11.273438 6.28125 C 11.308594 6.226562 11.367188 6.1875 11.4375 6.1875 L 12.5625 6.1875 C 12.632812 6.1875 12.691406 6.226562 12.726562 6.28125 C 12.742188 6.253906 12.75 6.222656 12.75 6.1875 C 12.75 6.082031 12.667969 6 12.5625 6 L 11.4375 6 C 11.433594 6 11.429688 6 11.429688 6 Z M 11.429688 6 "/>
<path style=" stroke:none;fill-rule:nonzero;fill:rgb(0.784314%,0.784314%,0.784314%);fill-opacity:0.4;" d="M 11.4375 6.375 L 12.5625 6.375 L 12.5625 6.5625 L 11.4375 6.5625 Z M 11.4375 6.375 "/>
<path style=" stroke:none;fill-rule:nonzero;fill:rgb(45.882353%,45.882353%,45.882353%);fill-opacity:1;" d="M 11.4375 6.75 L 12.5625 6.75 C 12.667969 6.75 12.75 6.832031 12.75 6.9375 C 12.75 7.042969 12.667969 7.125 12.5625 7.125 L 11.4375 7.125 C 11.332031 7.125 11.25 7.042969 11.25 6.9375 C 11.25 6.832031 11.332031 6.75 11.4375 6.75 Z M 11.4375 6.75 "/>
<path style=" stroke:none;fill-rule:nonzero;fill:rgb(100%,100%,100%);fill-opacity:0.4;" d="M 11.429688 6.75 C 11.328125 6.753906 11.25 6.835938 11.25 6.9375 C 11.25 6.972656 11.257812 7.003906 11.273438 7.03125 C 11.308594 6.976562 11.367188 6.9375 11.4375 6.9375 L 12.5625 6.9375 C 12.632812 6.9375 12.691406 6.976562 12.726562 7.03125 C 12.742188 7.003906 12.75 6.972656 12.75 6.9375 C 12.75 6.832031 12.667969 6.75 12.5625 6.75 L 11.4375 6.75 C 11.433594 6.75 11.429688 6.75 11.429688 6.75 Z M 11.429688 6.75 "/>
<path style=" stroke:none;fill-rule:nonzero;fill:rgb(0.784314%,0.784314%,0.784314%);fill-opacity:0.4;" d="M 11.4375 7.125 L 12.5625 7.125 L 12.5625 7.3125 L 11.4375 7.3125 Z M 11.4375 7.125 "/>
</g>
</svg>
