
<svg xmlns="http://www.w3.org/2000/svg" xmlns:xlink="http://www.w3.org/1999/xlink" width="32" height="32" viewBox="0 0 32 32" version="1.1">
<defs>
<linearGradient id="linear0" gradientUnits="userSpaceOnUse" x1="8.466666" y1="-199.125" x2="8.466666" y2="-213.941666" gradientTransform="matrix(1.889764,0,0,1.889764,0.00000105197,406.300106)">
<stop offset="0" style="stop-color:rgb(0%,0%,0%);stop-opacity:0.2;"/>
<stop offset="1" style="stop-color:rgb(100%,100%,100%);stop-opacity:0;"/>
</linearGradient>
</defs>
<g id="surface1">
<path style=" stroke:none;fill-rule:nonzero;fill:rgb(87.843138%,87.843138%,87.843138%);fill-opacity:1;" d="M 17.402344 8.628906 C 15.773438 9.585938 13.976562 11.503906 12.535156 14 C 10.042969 18.316406 9.582031 22.6875 11.5 23.792969 C 12.453125 24.34375 13.804688 23.984375 15.230469 22.957031 C 15.003906 22.757812 14.777344 22.542969 14.550781 22.316406 C 13.539062 23.035156 12.625 23.289062 12 22.929688 C 10.5625 22.097656 11.1875 18.339844 13.402344 14.5 C 15.617188 10.664062 18.558594 8.242188 20 9.070312 C 20.921875 9.605469 20.996094 11.339844 20.347656 13.527344 L 20.363281 13.554688 C 20.582031 13.9375 20.789062 14.324219 20.980469 14.710938 C 22.035156 11.648438 21.925781 9.027344 20.5 8.207031 C 19.691406 7.738281 18.589844 7.929688 17.402344 8.628906 Z M 17.402344 8.628906 "/>
<path style=" stroke:none;fill-rule:nonzero;fill:rgb(0%,0%,0%);fill-opacity:0.2;" d="M 2.007812 16.398438 C 2.003906 16.523438 2 16.652344 2 16.78125 C 2 24.511719 8.269531 30.78125 16 30.78125 C 23.730469 30.78125 30 24.511719 30 16.78125 C 30 16.652344 29.996094 16.523438 29.992188 16.398438 C 29.789062 23.953125 23.601562 30.015625 16 30.015625 C 8.398438 30.015625 2.210938 23.953125 2.007812 16.398438 Z M 2.007812 16.398438 "/>
<path style=" stroke:none;fill-rule:nonzero;fill:rgb(100%,71.764708%,30.19608%);fill-opacity:1;" d="M 16 2 C 23.730469 2 30 8.269531 30 16 C 30 23.730469 23.730469 30 16 30 C 8.269531 30 2 23.730469 2 16 C 2 8.269531 8.269531 2 16 2 Z M 16 2 "/>
<path style=" stroke:none;fill-rule:nonzero;fill:rgb(100%,65.490198%,14.901961%);fill-opacity:1;" d="M 16 4 C 22.625 4 28 9.371094 28 16 C 28 22.625 22.625 28 16 28 C 9.375 28 4 22.625 4 16 C 4 9.371094 9.375 4 16 4 Z M 16 4 "/>
<path style=" stroke:none;fill-rule:nonzero;fill:rgb(100%,100%,100%);fill-opacity:0.4;" d="M 16 2 C 8.269531 2 2 8.269531 2 16 C 2 16.082031 2.003906 16.164062 2.003906 16.25 C 2.136719 8.632812 8.351562 2.5 16 2.5 C 23.648438 2.5 29.863281 8.632812 29.996094 16.25 C 29.996094 16.164062 30 16.082031 30 16 C 30 8.269531 23.730469 2 16 2 Z M 16 2 "/>
<path style=" stroke:none;fill-rule:nonzero;fill:rgb(0.392157%,0.392157%,0.392157%);fill-opacity:0.4;" d="M 16 30 C 8.269531 30 2 23.730469 2 16 C 2 15.917969 2.003906 15.835938 2.003906 15.75 C 2.136719 23.367188 8.351562 29.5 16 29.5 C 23.648438 29.5 29.863281 23.367188 29.996094 15.75 C 29.996094 15.835938 30 15.917969 30 16 C 30 23.730469 23.730469 30 16 30 Z M 16 30 "/>
<path style=" stroke:none;fill-rule:nonzero;fill:rgb(0%,0%,0%);fill-opacity:0.4;" d="M 16 4 C 9.375 4 4 9.371094 4 16 C 4 16.082031 4.003906 16.164062 4.003906 16.25 C 4.136719 9.738281 9.457031 4.5 16 4.5 C 22.542969 4.5 27.863281 9.738281 27.996094 16.25 C 27.996094 16.164062 28 16.082031 28 16 C 28 9.371094 22.625 4 16 4 Z M 16 4 "/>
<path style=" stroke:none;fill-rule:nonzero;fill:rgb(99.607843%,99.607843%,99.607843%);fill-opacity:0.4;" d="M 16 28.5 C 9.375 28.5 4 23.128906 4 16.5 C 4 16.417969 4.003906 16.335938 4.003906 16.25 C 4.136719 22.761719 9.457031 28 16 28 C 22.542969 28 27.863281 22.761719 27.996094 16.25 C 27.996094 16.335938 28 16.417969 28 16.5 C 28 23.128906 22.625 28.5 16 28.5 Z M 16 28.5 "/>
<path style=" stroke:none;fill-rule:nonzero;fill:rgb(38.039216%,38.039216%,38.039216%);fill-opacity:1;" d="M 11.5 8.207031 C 9.582031 9.3125 10.042969 13.683594 12.535156 18 C 15.027344 22.316406 18.582031 24.902344 20.5 23.792969 C 22.40625 22.695312 21.960938 18.378906 19.515625 14.09375 L 18.28125 13.972656 C 18.386719 14.148438 18.496094 14.320312 18.597656 14.5 C 20.8125 18.339844 21.4375 22.097656 20 22.929688 C 18.5625 23.757812 15.617188 21.339844 13.402344 17.5 C 11.1875 13.660156 10.5625 9.902344 12 9.070312 C 12.621094 8.710938 13.523438 8.960938 14.527344 9.667969 L 15.105469 8.957031 C 13.726562 7.996094 12.421875 7.671875 11.5 8.207031 Z M 11.5 8.207031 "/>
<path style=" stroke:none;fill-rule:nonzero;fill:rgb(38.039216%,38.039216%,38.039216%);fill-opacity:1;" d="M 17.402344 8.628906 C 15.773438 9.585938 13.976562 11.503906 12.535156 14 C 10.042969 18.316406 9.582031 22.6875 11.5 23.792969 C 12.53125 24.386719 14.027344 23.917969 15.582031 22.691406 L 14.769531 22.152344 C 13.671875 22.996094 12.671875 23.316406 12 22.929688 C 10.5625 22.097656 11.1875 18.339844 13.402344 14.5 C 15.617188 10.664062 18.558594 8.242188 20 9.070312 C 20.65625 9.449219 20.882812 10.4375 20.726562 11.765625 L 21.605469 12.164062 C 21.859375 10.265625 21.507812 8.789062 20.5 8.207031 C 19.691406 7.738281 18.589844 7.929688 17.402344 8.628906 Z M 17.402344 8.628906 "/>
<path style=" stroke:none;fill-rule:nonzero;fill:rgb(38.039216%,38.039216%,38.039216%);fill-opacity:1;" d="M 8.785156 13.605469 C 7.664062 14.269531 7 15.101562 7 16 C 7 17.167969 8.117188 18.214844 9.902344 18.945312 L 9.996094 17.984375 C 8.753906 17.457031 8 16.761719 8 16 C 8 14.335938 11.566406 13 16 13 C 20.433594 13 24 14.339844 24 16 C 24 16.730469 23.3125 17.398438 22.164062 17.917969 L 22.222656 18.894531 C 23.933594 18.167969 25 17.140625 25 16 C 25 13.785156 20.984375 12 16 12 C 13.039062 12 10.421875 12.628906 8.785156 13.605469 Z M 8.785156 13.605469 "/>
<path style=" stroke:none;fill-rule:nonzero;fill:rgb(38.039216%,38.039216%,38.039216%);fill-opacity:1;" d="M 16 15 C 16.550781 15 17 15.449219 17 16 C 17 16.550781 16.550781 17 16 17 C 15.449219 17 15 16.550781 15 16 C 15 15.449219 15.449219 15 16 15 Z M 16 15 "/>
<path style=" stroke:none;fill-rule:nonzero;fill:rgb(100%,100%,100%);fill-opacity:0.4;" d="M 19.476562 7.949219 C 18.851562 7.953125 18.144531 8.191406 17.402344 8.628906 C 16.210938 9.328125 14.929688 10.542969 13.761719 12.125 C 12.921875 12.21875 12.132812 12.367188 11.40625 12.554688 C 11.308594 12.085938 11.25 11.648438 11.234375 11.25 C 11.207031 11.769531 11.265625 12.382812 11.40625 13.054688 C 12.132812 12.867188 12.921875 12.71875 13.761719 12.625 C 14.929688 11.042969 16.210938 9.828125 17.402344 9.128906 C 18.144531 8.691406 18.851562 8.453125 19.476562 8.449219 C 19.851562 8.449219 20.195312 8.53125 20.5 8.707031 C 21.242188 9.136719 21.628906 10.054688 21.679688 11.269531 C 21.722656 9.808594 21.34375 8.691406 20.5 8.207031 C 20.195312 8.03125 19.851562 7.949219 19.476562 7.949219 Z M 12.46875 7.949219 C 12.113281 7.957031 11.789062 8.039062 11.5 8.207031 C 10.652344 8.695312 10.273438 9.816406 10.320312 11.289062 C 10.367188 10.0625 10.753906 9.136719 11.5 8.707031 C 12.363281 8.207031 13.5625 8.457031 14.84375 9.28125 L 15.105469 8.957031 C 14.15625 8.296875 13.246094 7.9375 12.46875 7.949219 Z M 20.765625 11.269531 C 20.757812 11.429688 20.746094 11.59375 20.726562 11.765625 L 20.765625 11.78125 C 20.773438 11.605469 20.773438 11.433594 20.765625 11.269531 Z M 16 12 C 15.832031 12 15.667969 12.007812 15.503906 12.011719 C 15.363281 12.175781 15.222656 12.34375 15.082031 12.523438 C 15.382812 12.507812 15.691406 12.5 16 12.5 C 20.792969 12.5 24.6875 14.148438 24.980469 16.246094 C 24.992188 16.164062 25 16.082031 25 16 C 25 13.785156 20.984375 12 16 12 Z M 10.421875 12.859375 C 9.808594 13.074219 9.253906 13.324219 8.78125 13.601562 C 7.664062 14.269531 7 15.101562 7 16 C 7 16.082031 7.007812 16.164062 7.015625 16.246094 C 7.128906 15.445312 7.769531 14.707031 8.78125 14.101562 C 9.273438 13.8125 9.855469 13.550781 10.507812 13.328125 C 10.472656 13.167969 10.449219 13.011719 10.421875 12.859375 Z M 13.011719 13.714844 C 12.898438 13.734375 12.785156 13.75 12.675781 13.769531 C 12.628906 13.847656 12.582031 13.921875 12.535156 14 C 12.382812 14.269531 12.234375 14.539062 12.09375 14.804688 C 11.980469 14.515625 11.882812 14.230469 11.789062 13.949219 C 11.738281 13.960938 11.6875 13.96875 11.640625 13.984375 C 11.765625 14.40625 11.917969 14.851562 12.09375 15.304688 C 12.234375 15.039062 12.382812 14.769531 12.535156 14.5 C 12.691406 14.230469 12.851562 13.96875 13.011719 13.714844 Z M 18.28125 13.972656 C 18.386719 14.144531 18.492188 14.320312 18.597656 14.5 C 18.597656 14.5 18.597656 14.503906 18.601562 14.503906 L 19.515625 14.59375 C 20.875 16.96875 21.613281 19.355469 21.679688 21.195312 C 21.746094 19.300781 21 16.691406 19.515625 14.09375 Z M 15.972656 15 C 15.433594 15.011719 15 15.453125 15 16 C 15 16.085938 15.011719 16.164062 15.03125 16.242188 C 15.144531 15.824219 15.519531 15.511719 15.972656 15.5 C 15.980469 15.5 15.992188 15.5 16 15.5 C 16.464844 15.5 16.851562 15.816406 16.964844 16.246094 C 16.984375 16.167969 17 16.085938 17 16 C 17 15.445312 16.554688 15 16 15 C 15.992188 15 15.980469 15 15.972656 15 Z M 8.027344 16.246094 C 8.007812 16.328125 8 16.414062 8 16.5 C 8 17.253906 8.734375 17.941406 9.949219 18.464844 L 9.996094 17.984375 C 8.886719 17.515625 8.171875 16.914062 8.027344 16.246094 Z M 12.738281 16.246094 C 12.695312 16.332031 12.652344 16.417969 12.613281 16.5 C 12.847656 16.996094 13.113281 17.496094 13.402344 18 C 15.617188 21.839844 18.5625 24.257812 20 23.429688 C 20.578125 23.09375 20.824219 22.285156 20.765625 21.1875 C 20.730469 22.027344 20.488281 22.648438 20 22.929688 C 18.5625 23.757812 15.617188 21.339844 13.402344 17.5 C 13.160156 17.078125 12.941406 16.660156 12.738281 16.246094 Z M 23.972656 16.25 C 23.835938 16.878906 23.179688 17.457031 22.164062 17.917969 L 22.191406 18.402344 C 23.324219 17.886719 24 17.222656 24 16.5 C 24 16.414062 23.988281 16.332031 23.972656 16.25 Z M 11.421875 16.253906 C 10.664062 18.0625 10.289062 19.773438 10.324219 21.132812 C 10.382812 19.796875 10.789062 18.183594 11.523438 16.5 C 11.488281 16.417969 11.453125 16.335938 11.421875 16.253906 Z M 11.234375 21.242188 C 11.183594 22.3125 11.429688 23.097656 12 23.429688 C 12.671875 23.816406 13.671875 23.496094 14.769531 22.652344 L 15.230469 22.957031 C 15.347656 22.871094 15.464844 22.785156 15.582031 22.691406 L 14.769531 22.152344 C 13.671875 22.996094 12.671875 23.316406 12 22.929688 C 11.523438 22.652344 11.273438 22.054688 11.234375 21.242188 Z M 11.234375 21.242188 "/>
<path style=" stroke:none;fill-rule:nonzero;fill:rgb(0%,0%,0%);fill-opacity:0.4;" d="M 12.660156 8.910156 C 12.414062 8.90625 12.195312 8.960938 12 9.070312 C 11.433594 9.398438 11.1875 10.183594 11.234375 11.25 C 11.277344 10.441406 11.523438 9.847656 12 9.570312 C 12.621094 9.214844 13.523438 9.460938 14.527344 10.167969 L 15.105469 9.457031 C 15.019531 9.394531 14.929688 9.335938 14.84375 9.28125 L 14.527344 9.667969 C 13.835938 9.183594 13.195312 8.914062 12.660156 8.910156 Z M 19.296875 8.910156 C 18.171875 8.949219 16.589844 10.128906 15.082031 12.023438 C 15.222656 12.015625 15.367188 12.011719 15.507812 12.007812 C 17.230469 10.011719 18.988281 8.988281 20 9.570312 C 20.480469 9.847656 20.726562 10.453125 20.765625 11.273438 C 20.816406 10.195312 20.570312 9.402344 20 9.070312 C 19.792969 8.953125 19.558594 8.902344 19.296875 8.910156 Z M 21.679688 11.289062 C 21.667969 11.570312 21.644531 11.863281 21.605469 12.164062 L 20.765625 11.78125 C 20.757812 11.9375 20.746094 12.097656 20.726562 12.265625 L 21.605469 12.664062 C 21.667969 12.175781 21.695312 11.714844 21.679688 11.289062 Z M 10.320312 11.292969 C 10.304688 11.773438 10.339844 12.296875 10.421875 12.859375 C 10.453125 12.847656 10.476562 12.835938 10.507812 12.828125 C 10.398438 12.285156 10.335938 11.769531 10.320312 11.292969 Z M 16 13 C 15.417969 13 14.851562 13.023438 14.304688 13.070312 C 13.996094 13.519531 13.691406 13.996094 13.402344 14.5 C 13.113281 15.003906 12.847656 15.503906 12.613281 16 C 12.652344 16.082031 12.695312 16.167969 12.734375 16.25 C 12.941406 15.835938 13.160156 15.417969 13.402344 15 C 13.691406 14.496094 13.996094 14.019531 14.304688 13.570312 C 14.851562 13.523438 15.417969 13.5 16 13.5 C 20.207031 13.5 23.636719 14.707031 23.972656 16.25 C 23.992188 16.167969 24 16.085938 24 16 C 24 14.339844 20.433594 13 16 13 Z M 13.011719 13.214844 C 12.53125 13.289062 12.070312 13.378906 11.640625 13.484375 C 11.683594 13.636719 11.734375 13.792969 11.789062 13.949219 C 12.070312 13.882812 12.367188 13.824219 12.671875 13.769531 C 12.785156 13.582031 12.898438 13.398438 13.011719 13.214844 Z M 10.722656 13.742188 C 9.050781 14.292969 8 15.097656 8 16 C 8 16.082031 8.007812 16.167969 8.027344 16.25 C 8.203125 15.449219 9.210938 14.742188 10.722656 14.242188 C 10.898438 14.890625 11.128906 15.5625 11.417969 16.25 C 11.453125 16.167969 11.488281 16.082031 11.523438 16 C 11.1875 15.226562 10.917969 14.46875 10.722656 13.742188 Z M 18.28125 14.472656 C 18.386719 14.644531 18.492188 14.820312 18.597656 15 C 19.933594 17.316406 20.691406 19.601562 20.765625 21.234375 C 20.847656 19.589844 20.078125 17.066406 18.601562 14.503906 Z M 7.015625 16.25 C 7.007812 16.332031 7 16.414062 7 16.5 C 7 17.667969 8.117188 18.71875 9.902344 19.445312 L 9.996094 18.484375 C 9.980469 18.480469 9.964844 18.472656 9.949219 18.464844 L 9.902344 18.945312 C 8.246094 18.269531 7.164062 17.316406 7.015625 16.25 Z M 15.03125 16.25 C 15.011719 16.328125 15 16.414062 15 16.5 C 15 17.054688 15.445312 17.5 16 17.5 C 16.554688 17.5 17 17.054688 17 16.5 C 17 16.414062 16.988281 16.328125 16.96875 16.25 C 16.855469 16.683594 16.46875 17 16 17 C 15.53125 17 15.140625 16.679688 15.03125 16.25 Z M 24.984375 16.25 C 24.839844 17.289062 23.808594 18.21875 22.222656 18.894531 L 22.191406 18.402344 C 22.183594 18.40625 22.171875 18.414062 22.164062 18.417969 L 22.222656 19.394531 C 23.9375 18.667969 25 17.640625 25 16.5 C 25 16.417969 24.992188 16.332031 24.984375 16.25 Z M 12.09375 17.195312 C 11.480469 18.761719 11.179688 20.1875 11.234375 21.242188 C 11.277344 20.253906 11.574219 19.027344 12.09375 17.695312 C 12.234375 17.964844 12.382812 18.230469 12.535156 18.5 C 15.027344 22.816406 18.582031 25.402344 20.5 24.292969 C 21.34375 23.804688 21.726562 22.6875 21.679688 21.21875 C 21.632812 22.441406 21.246094 23.363281 20.5 23.792969 C 18.582031 24.902344 15.027344 22.316406 12.535156 18 C 12.382812 17.730469 12.234375 17.464844 12.09375 17.195312 Z M 10.320312 21.210938 C 10.269531 22.683594 10.652344 23.804688 11.5 24.292969 C 12.53125 24.886719 14.027344 24.417969 15.582031 23.191406 L 15.230469 22.957031 C 13.804688 23.984375 12.453125 24.34375 11.5 23.792969 C 10.753906 23.363281 10.367188 22.433594 10.320312 21.210938 Z M 10.320312 21.210938 "/>
<path style=" stroke:none;fill-rule:nonzero;fill:url(#linear0);" d="M 16 2 C 23.730469 2 30 8.269531 30 16 C 30 23.730469 23.730469 30 16 30 C 8.269531 30 2 23.730469 2 16 C 2 8.269531 8.269531 2 16 2 Z M 16 2 "/>
</g>
</svg>
