
<svg xmlns="http://www.w3.org/2000/svg" xmlns:xlink="http://www.w3.org/1999/xlink" width="32" height="32" viewBox="0 0 32 32" version="1.1">
<defs>
<linearGradient id="linear0" gradientUnits="userSpaceOnUse" x1="8.466666" y1="-199.125" x2="8.466666" y2="-213.941666" gradientTransform="matrix(1.889764,0,0,1.889764,0.0000000815074,406.299234)">
<stop offset="0" style="stop-color:rgb(0%,0%,0%);stop-opacity:0.2;"/>
<stop offset="1" style="stop-color:rgb(100%,100%,100%);stop-opacity:0;"/>
</linearGradient>
</defs>
<g id="surface1">
<path style=" stroke:none;fill-rule:nonzero;fill:rgb(14.901961%,65.098041%,60.392159%);fill-opacity:1;" d="M 28 30 C 29.109375 30 30 29.109375 30 28 L 30 16 L 16 16 L 16 30 Z M 28 30 "/>
<path style=" stroke:none;fill-rule:nonzero;fill:rgb(25.882354%,64.705884%,96.078432%);fill-opacity:1;" d="M 4 30 C 2.890625 30 2 29.109375 2 28 L 2 16 L 16 16 L 16 30 Z M 4 30 "/>
<path style=" stroke:none;fill-rule:nonzero;fill:rgb(92.54902%,25.098041%,47.843137%);fill-opacity:1;" d="M 28 2 C 29.109375 2 30 2.890625 30 4 L 30 16 L 16 16 L 16 2 Z M 28 2 "/>
<path style=" stroke:none;fill-rule:nonzero;fill:rgb(14.901961%,65.098041%,60.392159%);fill-opacity:1;" d="M 4 2 C 2.890625 2 2 2.890625 2 4 L 2 16 L 16 16 L 16 2 Z M 4 2 "/>
<path style=" stroke:none;fill-rule:nonzero;fill:rgb(38.039216%,38.039216%,38.039216%);fill-opacity:1;" d="M 7 6 L 25 6 C 25.550781 6 26 6.449219 26 7 L 26 25 C 26 25.550781 25.550781 26 25 26 L 7 26 C 6.449219 26 6 25.550781 6 25 L 6 7 C 6 6.449219 6.449219 6 7 6 Z M 7 6 "/>
<path style=" stroke:none;fill-rule:nonzero;fill:rgb(100%,100%,100%);fill-opacity:0.4;" d="M 7 6 C 6.445312 6 6 6.445312 6 7 L 6 7.5 C 6 6.945312 6.445312 6.5 7 6.5 L 25 6.5 C 25.554688 6.5 26 6.945312 26 7.5 L 26 7 C 26 6.445312 25.554688 6 25 6 Z M 7 6 "/>
<path style=" stroke:none;fill-rule:nonzero;fill:rgb(0.784314%,0.784314%,0.784314%);fill-opacity:0.4;" d="M 7 26.5 C 6.445312 26.5 6 26.054688 6 25.5 L 6 25 C 6 25.554688 6.445312 26 7 26 L 25 26 C 25.554688 26 26 25.554688 26 25 L 26 25.5 C 26 26.054688 25.554688 26.5 25 26.5 Z M 7 26.5 "/>
<path style=" stroke:none;fill-rule:nonzero;fill:rgb(100%,100%,100%);fill-opacity:0.4;" d="M 4 2 C 2.890625 2 2 2.890625 2 4 L 2 4.5 C 2 3.390625 2.890625 2.5 4 2.5 L 28 2.5 C 29.109375 2.5 30 3.390625 30 4.5 L 30 4 C 30 2.890625 29.109375 2 28 2 Z M 4 2 "/>
<path style=" stroke:none;fill-rule:nonzero;fill:rgb(0%,0%,0%);fill-opacity:0.4;" d="M 4 30 C 2.890625 30 2 29.109375 2 28 L 2 27.5 C 2 28.609375 2.890625 29.5 4 29.5 L 28 29.5 C 29.109375 29.5 30 28.609375 30 27.5 L 30 28 C 30 29.109375 29.109375 30 28 30 Z M 4 30 "/>
<path style=" stroke:none;fill-rule:nonzero;fill:rgb(0%,0%,0%);fill-opacity:0.2;" d="M 2 28 L 2 28.75 C 2 29.859375 2.890625 30.75 4 30.75 L 28 30.75 C 29.109375 30.75 30 29.859375 30 28.75 L 30 28 C 30 29.109375 29.109375 30 28 30 L 4 30 C 2.890625 30 2 29.109375 2 28 Z M 2 28 "/>
<path style=" stroke:none;fill-rule:nonzero;fill:rgb(93.333334%,93.333334%,93.333334%);fill-opacity:1;" d="M 12 11 C 10.339844 11 9 12.339844 9 14 L 9 18 C 9 19.660156 10.339844 21 12 21 C 13.660156 21 15 19.660156 15 18 L 15 17.75 C 15 17.613281 14.832031 17.5 14.625 17.5 L 13.375 17.5 C 13.167969 17.5 13 17.613281 13 17.75 L 13 18 C 13 18.554688 12.554688 19 12 19 C 11.445312 19 11 18.554688 11 18 L 11 14 C 11 13.445312 11.445312 13 12 13 C 12.554688 13 13 13.445312 13 14 L 13 14.25 C 13 14.386719 13.167969 14.5 13.375 14.5 L 14.625 14.5 C 14.832031 14.5 15 14.386719 15 14.25 L 15 14 C 15 12.339844 13.660156 11 12 11 Z M 12 11 "/>
<path style=" stroke:none;fill-rule:nonzero;fill:rgb(100%,100%,100%);fill-opacity:0.6;" d="M 12 11 C 10.339844 11 9 12.339844 9 14 L 9 14.5 C 9 12.839844 10.339844 11.5 12 11.5 C 13.59375 11.5 14.890625 12.730469 14.992188 14.296875 C 14.996094 14.28125 15 14.265625 15 14.25 L 15 14 C 15 12.339844 13.660156 11 12 11 Z M 13.375 17.5 C 13.167969 17.5 13 17.613281 13 17.75 L 13 18 C 13 18.554688 12.554688 19 12 19 C 11.445312 19 11 18.554688 11 18 L 11 18.5 C 11 19.054688 11.445312 19.5 12 19.5 C 12.554688 19.5 13 19.054688 13 18.5 L 13 18.25 C 13 18.113281 13.167969 18 13.375 18 L 14.625 18 C 14.808594 18 14.957031 18.085938 14.992188 18.199219 C 14.996094 18.132812 15 18.066406 15 18 L 15 17.75 C 15 17.613281 14.832031 17.5 14.625 17.5 Z M 13.375 17.5 "/>
<path style=" stroke:none;fill-rule:nonzero;fill:rgb(0.392157%,0.392157%,0.392157%);fill-opacity:0.4;" d="M 12 21.5 C 10.339844 21.5 9 20.160156 9 18.5 L 9 18 C 9 19.660156 10.339844 21 12 21 C 13.59375 21 14.890625 19.769531 14.992188 18.203125 C 14.996094 18.21875 15 18.234375 15 18.25 L 15 18.5 C 15 20.160156 13.660156 21.5 12 21.5 Z M 13.375 15 C 13.167969 15 13 14.886719 13 14.75 L 13 14.5 C 13 13.945312 12.554688 13.5 12 13.5 C 11.445312 13.5 11 13.945312 11 14.5 L 11 14 C 11 13.445312 11.445312 13 12 13 C 12.554688 13 13 13.445312 13 14 L 13 14.25 C 13 14.386719 13.167969 14.5 13.375 14.5 L 14.625 14.5 C 14.808594 14.5 14.957031 14.414062 14.992188 14.300781 C 14.996094 14.367188 15 14.433594 15 14.5 L 15 14.75 C 15 14.886719 14.832031 15 14.625 15 Z M 13.375 15 "/>
<path style=" stroke:none;fill-rule:nonzero;fill:rgb(93.333334%,93.333334%,93.333334%);fill-opacity:0.996078;" d="M 17.5 11 C 17.222656 11 17 11.222656 17 11.5 L 17 20.5 C 17 20.570312 17.015625 20.636719 17.039062 20.695312 C 17.046875 20.710938 17.054688 20.722656 17.0625 20.738281 C 17.066406 20.75 17.074219 20.765625 17.085938 20.78125 C 17.09375 20.792969 17.105469 20.804688 17.113281 20.816406 C 17.125 20.832031 17.136719 20.84375 17.148438 20.851562 C 17.15625 20.863281 17.167969 20.875 17.179688 20.886719 C 17.195312 20.894531 17.207031 20.90625 17.21875 20.914062 C 17.234375 20.925781 17.246094 20.933594 17.261719 20.941406 C 17.277344 20.945312 17.289062 20.953125 17.304688 20.960938 C 17.363281 20.988281 17.429688 21 17.5 21 L 22.5 21 C 22.777344 21 23 20.777344 23 20.5 L 23 19.5 C 23 19.222656 22.777344 19 22.5 19 L 19 19 L 19 11.5 C 19 11.222656 18.777344 11 18.5 11 Z M 17.5 11 "/>
<path style=" stroke:none;fill-rule:nonzero;fill:rgb(100%,100%,100%);fill-opacity:0.6;" d="M 17.5 11 C 17.222656 11 17 11.222656 17 11.5 L 17 12 C 17 11.722656 17.222656 11.5 17.5 11.5 L 18.5 11.5 C 18.777344 11.5 19 11.722656 19 12 L 19 11.5 C 19 11.222656 18.777344 11 18.5 11 Z M 19 19 L 19 19.5 L 22.5 19.5 C 22.777344 19.5 23 19.722656 23 20 L 23 19.5 C 23 19.222656 22.777344 19 22.5 19 Z M 19 19 "/>
<path style=" stroke:none;fill-rule:nonzero;fill:rgb(0%,0%,0%);fill-opacity:0.4;" d="M 17 20.5 L 17 21 C 17 21.070312 17.015625 21.136719 17.039062 21.195312 C 17.046875 21.210938 17.054688 21.222656 17.0625 21.238281 C 17.066406 21.25 17.074219 21.265625 17.085938 21.28125 C 17.09375 21.292969 17.105469 21.304688 17.113281 21.320312 C 17.125 21.332031 17.136719 21.34375 17.148438 21.351562 C 17.15625 21.363281 17.167969 21.375 17.179688 21.386719 C 17.195312 21.394531 17.207031 21.40625 17.21875 21.414062 C 17.234375 21.425781 17.246094 21.433594 17.261719 21.4375 C 17.277344 21.445312 17.289062 21.453125 17.304688 21.460938 C 17.363281 21.484375 17.429688 21.5 17.5 21.5 L 22.5 21.5 C 22.777344 21.5 23 21.277344 23 21 L 23 20.5 C 23 20.777344 22.777344 21 22.5 21 L 17.5 21 C 17.429688 21 17.363281 20.984375 17.304688 20.960938 C 17.289062 20.953125 17.277344 20.945312 17.261719 20.9375 C 17.246094 20.933594 17.234375 20.925781 17.21875 20.914062 C 17.207031 20.90625 17.195312 20.894531 17.179688 20.886719 C 17.167969 20.875 17.15625 20.863281 17.148438 20.851562 C 17.136719 20.84375 17.125 20.832031 17.113281 20.820312 C 17.105469 20.804688 17.09375 20.792969 17.085938 20.78125 C 17.074219 20.765625 17.066406 20.75 17.0625 20.738281 C 17.054688 20.722656 17.046875 20.710938 17.039062 20.695312 C 17.015625 20.636719 17 20.570312 17 20.5 Z M 17 20.5 "/>
<path style=" stroke:none;fill-rule:nonzero;fill:url(#linear0);" d="M 4 2 L 28 2 C 29.105469 2 30 2.894531 30 4 L 30 28 C 30 29.105469 29.105469 30 28 30 L 4 30 C 2.894531 30 2 29.105469 2 28 L 2 4 C 2 2.894531 2.894531 2 4 2 Z M 4 2 "/>
</g>
</svg>
