
<svg xmlns="http://www.w3.org/2000/svg" xmlns:xlink="http://www.w3.org/1999/xlink" width="32" height="32" viewBox="0 0 32 32" version="1.1">
<defs>
<linearGradient id="linear0" gradientUnits="userSpaceOnUse" x1="8.466666" y1="-199.125" x2="8.466666" y2="-213.941666" gradientTransform="matrix(1.889764,0,0,1.889764,0.00000202927,406.299234)">
<stop offset="0" style="stop-color:rgb(0%,0%,0%);stop-opacity:0.2;"/>
<stop offset="1" style="stop-color:rgb(100%,100%,100%);stop-opacity:0;"/>
</linearGradient>
</defs>
<g id="surface1">
<path style=" stroke:none;fill-rule:nonzero;fill:rgb(87.843138%,87.843138%,87.843138%);fill-opacity:1;" d="M 7 2 L 25 2 C 26.105469 2 27 2.894531 27 4 L 27 28 C 27 29.105469 26.105469 30 25 30 L 7 30 C 5.894531 30 5 29.105469 5 28 L 5 4 C 5 2.894531 5.894531 2 7 2 Z M 7 2 "/>
<path style="fill:none;stroke-width:0.7;stroke-linecap:round;stroke-linejoin:round;stroke:rgb(38.039216%,38.039216%,38.039216%);stroke-opacity:1;stroke-dasharray:2.1,2.1;stroke-dashoffset:0.63;stroke-miterlimit:4;" d="M 20 6 L 20 57.5 L 50 57.5 C 51.109375 57.5 52 56.609375 52 55.5 L 52 8 C 52 6.890625 51.109375 6 50 6 Z M 20 6 " transform="matrix(0.5,0,0,0.5,0,0)"/>
<path style=" stroke:none;fill-rule:nonzero;fill:rgb(45.882353%,45.882353%,45.882353%);fill-opacity:0.996078;" d="M 7 2 C 5.890625 2 5 2.890625 5 4 L 5 28 C 5 29.109375 5.890625 30 7 30 L 9 30 L 9 2 Z M 7 2 "/>
<path style=" stroke:none;fill-rule:nonzero;fill:rgb(61.960787%,61.960787%,61.960787%);fill-opacity:1;" d="M 5 20 L 9 20 L 9 22 L 5 22 Z M 5 20 "/>
<path style=" stroke:none;fill-rule:nonzero;fill:rgb(61.960787%,61.960787%,61.960787%);fill-opacity:0.996078;" d="M 5 9 L 9 9 L 9 11 L 5 11 Z M 5 9 "/>
<path style=" stroke:none;fill-rule:nonzero;fill:rgb(0.784314%,0.784314%,0.784314%);fill-opacity:0.4;" d="M 7 29.996094 C 5.890625 29.996094 5 29.101562 5 27.996094 L 5 27.5 C 5 28.609375 5.890625 29.5 7 29.5 L 25 29.5 C 26.109375 29.5 27 28.609375 27 27.5 L 27 27.996094 C 27 29.101562 26.109375 29.996094 25 29.996094 Z M 7 29.996094 "/>
<path style=" stroke:none;fill-rule:nonzero;fill:rgb(0%,0%,0%);fill-opacity:0.2;" d="M 5 28 L 5 28.75 C 5 29.859375 5.890625 30.75 7 30.75 L 25 30.75 C 26.109375 30.75 27 29.859375 27 28.75 L 27 28 C 27 29.109375 26.109375 30 25 30 L 7 30 C 5.890625 30 5 29.109375 5 28 Z M 5 28 "/>
<path style=" stroke:none;fill-rule:nonzero;fill:rgb(0%,0%,0%);fill-opacity:0.4;" d="M 5 11 L 9 11 L 9 11.5 L 5 11.5 Z M 5 11 "/>
<path style=" stroke:none;fill-rule:nonzero;fill:rgb(99.215686%,99.215686%,99.215686%);fill-opacity:0.4;" d="M 5 9 L 9 9 L 9 9.5 L 5 9.5 Z M 5 9 "/>
<path style=" stroke:none;fill-rule:nonzero;fill:rgb(0%,0%,0%);fill-opacity:0.4;" d="M 5 22 L 9 22 L 9 22.5 L 5 22.5 Z M 5 22 "/>
<path style=" stroke:none;fill-rule:nonzero;fill:rgb(99.215686%,99.215686%,99.215686%);fill-opacity:0.4;" d="M 5 20 L 9 20 L 9 20.5 L 5 20.5 Z M 5 20 "/>
<path style=" stroke:none;fill-rule:nonzero;fill:rgb(99.607843%,99.607843%,99.607843%);fill-opacity:0.4;" d="M 7 2 C 5.890625 2 5 2.890625 5 4 L 5 4.492188 C 5 3.386719 5.890625 2.492188 7 2.492188 L 25 2.492188 C 26.109375 2.492188 27 3.386719 27 4.492188 L 27 4 C 27 2.890625 26.109375 2 25 2 Z M 7 2 "/>
<path style=" stroke:none;fill-rule:nonzero;fill:rgb(38.039216%,38.039216%,38.039216%);fill-opacity:1;" d="M 14.5 10 C 13.390625 10 12.5 10.890625 12.5 12 L 12.5 17.488281 C 12.5 17.492188 12.5 17.496094 12.5 17.5 L 12.5 17.75 C 12.5 17.890625 12.613281 18 12.75 18 L 13.25 18 C 13.386719 18 13.5 17.890625 13.5 17.75 L 13.5 17.5 C 13.5 17.496094 13.5 17.492188 13.5 17.488281 L 13.5 16 L 16.5 16 L 16.5 17.75 C 16.5 17.890625 16.613281 18 16.75 18 L 17.25 18 C 17.386719 18 17.5 17.890625 17.5 17.75 L 17.5 17.5 C 17.5 17.496094 17.5 17.492188 17.5 17.488281 L 17.5 12 C 17.5 10.890625 16.609375 10 15.5 10 Z M 14.5 11 L 15.5 11 C 16.054688 11 16.5 11.445312 16.5 12 L 16.5 15 L 13.5 15 L 13.5 12 C 13.5 11.445312 13.945312 11 14.5 11 Z M 14.5 11 "/>
<path style=" stroke:none;fill-rule:nonzero;fill:rgb(38.039216%,38.039216%,38.039216%);fill-opacity:1;" d="M 20.5 15 C 19.390625 15 18.5 15.890625 18.5 17 L 18.5 18 C 18.5 19.109375 19.390625 20 20.5 20 L 23.25 20 C 23.386719 20 23.5 19.886719 23.5 19.75 L 23.5 15.25 C 23.5 15.113281 23.386719 15 23.25 15 Z M 20.5 16 L 22.5 16 L 22.5 19 L 20.5 19 C 19.945312 19 19.5 18.554688 19.5 18 L 19.5 17 C 19.5 16.445312 19.945312 16 20.5 16 Z M 20.5 16 "/>
<path style=" stroke:none;fill-rule:nonzero;fill:rgb(0.784314%,0.784314%,0.784314%);fill-opacity:0.4;" d="M 14.5 11 C 13.945312 11 13.5 11.445312 13.5 12 L 13.5 12.5 C 13.5 11.945312 13.945312 11.5 14.5 11.5 L 15.5 11.5 C 16.054688 11.5 16.5 11.945312 16.5 12.5 L 16.5 12 C 16.5 11.445312 16.054688 11 15.5 11 Z M 13.5 16 L 13.5 16.5 L 16.5 16.5 L 16.5 16 Z M 20.5 16 C 19.945312 16 19.5 16.445312 19.5 17 L 19.5 17.5 C 19.5 16.945312 19.945312 16.5 20.5 16.5 L 22.5 16.5 L 22.5 16 Z M 12.5 17.75 L 12.5 18.25 C 12.5 18.390625 12.613281 18.5 12.75 18.5 L 13.25 18.5 C 13.386719 18.5 13.5 18.390625 13.5 18.25 L 13.5 17.75 C 13.5 17.890625 13.386719 18 13.25 18 L 12.75 18 C 12.613281 18 12.5 17.890625 12.5 17.75 Z M 16.5 17.75 L 16.5 18.25 C 16.5 18.390625 16.613281 18.5 16.75 18.5 L 17.25 18.5 C 17.386719 18.5 17.5 18.390625 17.5 18.25 L 17.5 17.75 C 17.5 17.890625 17.386719 18 17.25 18 L 16.75 18 C 16.613281 18 16.5 17.890625 16.5 17.75 Z M 18.5 18 L 18.5 18.5 C 18.5 19.609375 19.390625 20.5 20.5 20.5 L 23.25 20.5 C 23.386719 20.5 23.5 20.386719 23.5 20.25 L 23.5 19.75 C 23.5 19.886719 23.386719 20 23.25 20 L 20.5 20 C 19.390625 20 18.5 19.109375 18.5 18 Z M 18.5 18 "/>
<path style=" stroke:none;fill-rule:nonzero;fill:rgb(100%,100%,100%);fill-opacity:0.4;" d="M 14.5 10 C 13.390625 10 12.5 10.890625 12.5 12 L 12.5 12.5 C 12.5 11.390625 13.390625 10.5 14.5 10.5 L 15.5 10.5 C 16.609375 10.5 17.5 11.390625 17.5 12.5 L 17.5 12 C 17.5 10.890625 16.609375 10 15.5 10 Z M 13.5 15 L 13.5 15.5 L 16.5 15.5 L 16.5 15 Z M 20.5 15 C 19.390625 15 18.5 15.890625 18.5 17 L 18.5 17.5 C 18.5 16.390625 19.390625 15.5 20.5 15.5 L 23.25 15.5 C 23.386719 15.5 23.5 15.613281 23.5 15.75 L 23.5 15.25 C 23.5 15.113281 23.386719 15 23.25 15 Z M 19.5 18 L 19.5 18.5 C 19.5 19.054688 19.945312 19.5 20.5 19.5 L 22.5 19.5 L 22.5 19 L 20.5 19 C 19.945312 19 19.5 18.554688 19.5 18 Z M 19.5 18 "/>
<path style=" stroke:none;fill-rule:nonzero;fill:url(#linear0);" d="M 7 2 L 25 2 C 26.105469 2 27 2.894531 27 4 L 27 28 C 27 29.105469 26.105469 30 25 30 L 7 30 C 5.894531 30 5 29.105469 5 28 L 5 4 C 5 2.894531 5.894531 2 7 2 Z M 7 2 "/>
</g>
</svg>
