
<svg xmlns="http://www.w3.org/2000/svg" xmlns:xlink="http://www.w3.org/1999/xlink" width="16" height="16" viewBox="0 0 16 16" version="1.1">
<defs>
<linearGradient id="linear0" gradientUnits="userSpaceOnUse" x1="8.466666" y1="-199.125" x2="8.466666" y2="-213.941666" gradientTransform="matrix(0.944882,0,0,0.944882,0,203.149617)">
<stop offset="0" style="stop-color:rgb(0%,0%,0%);stop-opacity:0.2;"/>
<stop offset="1" style="stop-color:rgb(100%,100%,100%);stop-opacity:0;"/>
</linearGradient>
</defs>
<g id="surface1">
<path style=" stroke:none;fill-rule:nonzero;fill:rgb(25.882354%,64.705884%,96.078432%);fill-opacity:1;" d="M 8 1 C 11.867188 1 15 4.132812 15 8 C 15 11.867188 11.867188 15 8 15 C 4.132812 15 1 11.867188 1 8 C 1 4.132812 4.132812 1 8 1 Z M 8 1 "/>
<path style=" stroke:none;fill-rule:nonzero;fill:rgb(100%,100%,100%);fill-opacity:0.4;" d="M 8 1 C 4.132812 1 1 4.132812 1 8 C 1 8.042969 1 8.082031 1 8.125 C 1.070312 4.316406 4.175781 1.25 8 1.25 C 11.824219 1.25 14.929688 4.316406 15 8.125 C 15 8.082031 15 8.042969 15 8 C 15 4.132812 11.867188 1 8 1 Z M 8 1 "/>
<path style=" stroke:none;fill-rule:nonzero;fill:rgb(0%,0%,0%);fill-opacity:0.4;" d="M 1.003906 7.875 C 1.003906 7.914062 1 7.957031 1 7.996094 C 1 11.863281 4.132812 14.996094 8 14.996094 C 11.867188 14.996094 15 11.863281 15 7.996094 C 15 7.957031 14.996094 7.914062 14.996094 7.875 C 14.929688 11.679688 11.824219 14.75 8 14.75 C 4.175781 14.75 1.070312 11.679688 1.003906 7.875 Z M 1.003906 7.875 "/>
<path style=" stroke:none;fill-rule:nonzero;fill:rgb(0%,0%,0%);fill-opacity:0.2;" d="M 1.003906 8.1875 C 1 8.25 1 8.3125 1 8.375 C 1 12.242188 4.132812 15.375 8 15.375 C 11.867188 15.375 15 12.242188 15 8.375 C 15 8.3125 15 8.25 14.996094 8.1875 C 14.898438 11.964844 11.804688 15 8 15 C 4.195312 15 1.101562 11.964844 1.003906 8.1875 Z M 1.003906 8.1875 "/>
<path style=" stroke:none;fill-rule:nonzero;fill:rgb(93.333334%,93.333334%,93.333334%);fill-opacity:1;" d="M 7.839844 3.5 L 6.339844 7.5 L 7.839844 8 L 6.898438 10.199219 L 6.050781 9.164062 L 5.714844 12.5 L 8.585938 10.765625 L 7.265625 10.441406 L 9.839844 7.5 L 7.839844 7 L 10.839844 3.5 Z M 7.839844 3.5 "/>
<path style=" stroke:none;fill-rule:nonzero;fill:rgb(100%,100%,100%);fill-opacity:0.8;" d="M 7.839844 3.5 L 6.339844 7.5 L 6.421875 7.527344 L 7.839844 3.75 L 10.625 3.75 L 10.839844 3.5 Z M 8.015625 7.042969 L 7.839844 7.25 L 9.660156 7.703125 L 9.839844 7.5 Z M 7.746094 8.21875 L 6.898438 10.199219 L 6.050781 9.164062 L 5.714844 12.5 L 5.742188 12.484375 L 6.050781 9.414062 L 6.898438 10.449219 L 7.839844 8.25 Z M 7.445312 10.484375 L 7.265625 10.691406 L 8.292969 10.941406 L 8.585938 10.765625 Z M 7.445312 10.484375 "/>
<path style=" stroke:none;fill-rule:nonzero;fill:rgb(0%,0%,0%);fill-opacity:0.4;" d="M 10.625 3.75 L 7.839844 7 L 8.015625 7.042969 L 10.839844 3.75 Z M 6.421875 7.527344 L 6.339844 7.75 L 7.746094 8.21875 L 7.839844 8 Z M 9.660156 7.703125 L 7.265625 10.441406 L 7.445312 10.484375 L 9.839844 7.75 Z M 8.292969 10.941406 L 5.742188 12.484375 L 5.714844 12.75 L 8.585938 11.015625 Z M 8.292969 10.941406 "/>
<path style=" stroke:none;fill-rule:nonzero;fill:url(#linear0);" d="M 8 1 C 11.867188 1 15 4.132812 15 8 C 15 11.867188 11.867188 15 8 15 C 4.132812 15 1 11.867188 1 8 C 1 4.132812 4.132812 1 8 1 Z M 8 1 "/>
</g>
</svg>
