
<svg xmlns="http://www.w3.org/2000/svg" xmlns:xlink="http://www.w3.org/1999/xlink" width="22" height="22" viewBox="0 0 22 22" version="1.1">
<defs>
<linearGradient id="linear0" gradientUnits="userSpaceOnUse" x1="31.999998" y1="59.999996" x2="31.999998" y2="4" gradientTransform="matrix(0.34375,0,0,0.34375,0,0.00000000000003908)">
<stop offset="0" style="stop-color:rgb(0%,0%,0%);stop-opacity:0.2;"/>
<stop offset="1" style="stop-color:rgb(100%,100%,100%);stop-opacity:0;"/>
</linearGradient>
</defs>
<g id="surface1">
<path style=" stroke:none;fill-rule:nonzero;fill:rgb(47.450981%,33.333334%,28.235295%);fill-opacity:1;" d="M 17.65625 1.375 C 17.765625 1.378906 17.855469 1.46875 17.855469 1.582031 L 17.855469 2.457031 C 17.855469 2.570312 17.761719 2.664062 17.648438 2.664062 C 17.46875 2.664062 17.296875 2.59375 17.117188 2.503906 C 16.9375 2.414062 16.761719 2.296875 16.625 2.164062 C 16.527344 2.066406 16.554688 1.898438 16.679688 1.835938 L 17.554688 1.398438 C 17.585938 1.382812 17.621094 1.375 17.65625 1.375 Z M 17.65625 1.375 "/>
<path style=" stroke:none;fill-rule:nonzero;fill:rgb(25.882354%,25.882354%,25.882354%);fill-opacity:1;" d="M 19.40625 3.125 C 19.648438 3.125 19.84375 3.320312 19.84375 3.558594 L 19.84375 3.566406 C 19.84375 3.804688 19.648438 4 19.40625 4 C 19.167969 4 18.972656 3.804688 18.972656 3.566406 L 18.972656 3.558594 C 18.972656 3.320312 19.167969 3.125 19.40625 3.125 Z M 19.40625 3.125 "/>
<path style=" stroke:none;fill-rule:nonzero;fill:rgb(61.960787%,61.960787%,61.960787%);fill-opacity:1;" d="M 19.246094 3.234375 C 19.335938 3.234375 19.410156 3.308594 19.410156 3.398438 C 19.410156 3.488281 19.335938 3.5625 19.246094 3.5625 C 19.15625 3.5625 19.082031 3.488281 19.082031 3.398438 C 19.082031 3.308594 19.15625 3.234375 19.246094 3.234375 Z M 19.246094 3.234375 "/>
<path style=" stroke:none;fill-rule:nonzero;fill:rgb(100%,65.490198%,14.901961%);fill-opacity:1;" d="M 11.09375 2.25 C 15.925781 2.25 19.84375 6.167969 19.84375 10.996094 C 19.84375 15.828125 15.925781 19.746094 11.09375 19.746094 C 6.261719 19.746094 2.347656 15.828125 2.347656 10.996094 C 2.347656 6.167969 6.261719 2.25 11.09375 2.25 Z M 11.09375 2.25 "/>
<path style=" stroke:none;fill-rule:nonzero;fill:rgb(96.078432%,48.627451%,0%);fill-opacity:1;" d="M 13.71875 2.25 C 13.421875 2.328125 12.148438 2.78125 12.308594 3.378906 C 12.597656 4.632812 14.328125 5.128906 14.3125 6.046875 C 14.296875 6.808594 14.3125 8.652344 12.800781 7.777344 C 12.230469 7.449219 12.707031 6.703125 12.039062 6 C 11.371094 5.296875 10.15625 4.484375 9.230469 5.214844 C 8.414062 5.753906 7.976562 6.511719 7.757812 6.890625 L 7.496094 4.71875 C 9.386719 3.183594 14.644531 1.523438 13.71875 2.25 Z M 13.71875 2.25 "/>
<path style=" stroke:none;fill-rule:nonzero;fill:rgb(55.29412%,43.137255%,38.82353%);fill-opacity:1;" d="M 11.09375 1.375 C 4.972656 1.375 1.472656 5.667969 1.472656 10.996094 C 1.472656 16.328125 5.765625 20.621094 11.09375 20.621094 C 14.59375 20.621094 19.40625 18.433594 20.28125 13.621094 C 19.003906 14.695312 16.738281 18.074219 11.925781 18.0625 C 7.867188 18.054688 6.285156 14.933594 6.285156 11.871094 C 6.285156 5.75 13.28125 5.75 17.21875 7.0625 C 18.3125 7.5 18.96875 7.5 19.84375 6.625 C 21.15625 5.3125 20.296875 4.164062 19.625 3.890625 C 19.625 3.453125 19.84375 2.6875 18.09375 1.8125 C 16.859375 1.308594 15.6875 1.15625 14.15625 1.8125 C 11.96875 1.375 11.96875 1.375 11.09375 1.375 Z M 11.09375 1.375 "/>
<path style=" stroke:none;fill-rule:nonzero;fill:rgb(84.313726%,80.000001%,78.431374%);fill-opacity:1;" d="M 4.097656 10.996094 C 4.097656 15.859375 7.160156 18.871094 11.96875 18.871094 C 17.21875 18.871094 20.28125 13.621094 20.28125 13.621094 C 19.84375 14.058594 16.34375 17.515625 11.96875 17.539062 C 8.46875 17.558594 6.285156 15.371094 6.285156 11.871094 C 6.285156 5.75 13.28125 5.75 17.21875 7.0625 C 18.3125 7.5 18.96875 7.5 19.84375 6.625 C 21.15625 5.3125 20.296875 4.164062 19.625 3.890625 C 20.050781 4.222656 18.96875 4.875 17.65625 4.4375 C 9.34375 2.6875 4.277344 5.25 4.097656 10.996094 Z M 4.097656 10.996094 "/>
<path style=" stroke:none;fill-rule:nonzero;fill:rgb(25.882354%,25.882354%,25.882354%);fill-opacity:1;" d="M 17.652344 3.78125 C 17.949219 3.78125 18.195312 4.023438 18.195312 4.324219 L 18.195312 4.332031 C 18.195312 4.632812 17.949219 4.875 17.652344 4.875 C 17.351562 4.875 17.109375 4.632812 17.109375 4.332031 L 17.109375 4.324219 C 17.109375 4.023438 17.351562 3.78125 17.652344 3.78125 Z M 17.652344 3.78125 "/>
<path style=" stroke:none;fill-rule:nonzero;fill:rgb(74.117649%,74.117649%,74.117649%);fill-opacity:1;" d="M 17.449219 3.917969 C 17.5625 3.917969 17.65625 4.007812 17.65625 4.121094 L 17.65625 4.125 C 17.65625 4.234375 17.5625 4.328125 17.449219 4.328125 C 17.335938 4.328125 17.246094 4.234375 17.246094 4.125 L 17.246094 4.121094 C 17.246094 4.007812 17.335938 3.917969 17.449219 3.917969 Z M 17.449219 3.917969 "/>
<path style=" stroke:none;fill-rule:nonzero;fill:rgb(25.882354%,25.882354%,25.882354%);fill-opacity:1;" d="M 20.0625 4.4375 C 19.976562 4.351562 19.878906 4.296875 19.773438 4.269531 C 19.683594 4.628906 19.625 4.765625 18.957031 4.757812 C 18.910156 4.96875 18.96875 5.199219 19.132812 5.363281 C 19.386719 5.621094 19.800781 5.621094 20.054688 5.363281 L 20.0625 5.359375 C 20.316406 5.101562 20.316406 4.691406 20.0625 4.4375 Z M 20.0625 4.4375 "/>
<path style=" stroke:none;fill-rule:nonzero;fill:rgb(55.29412%,43.137255%,38.82353%);fill-opacity:1;" d="M 6.941406 5.3125 C 6.722656 5.53125 5.847656 6.558594 6.285156 6.996094 C 7.160156 7.9375 8.90625 7.5 9.351562 8.304688 C 9.71875 8.972656 10.65625 10.558594 8.90625 10.558594 C 8.25 10.558594 8.289062 9.671875 7.359375 9.398438 C 6.429688 9.125 4.972656 9.027344 4.535156 10.121094 C 4.097656 10.996094 4.097656 11.871094 4.097656 12.308594 L 2.785156 10.558594 C 3.65625 8.285156 7.378906 4.21875 6.941406 5.3125 Z M 6.941406 5.3125 "/>
<path style=" stroke:none;fill-rule:nonzero;fill:rgb(100%,100%,100%);fill-opacity:0.4;" d="M 11.09375 1.375 C 4.972656 1.375 1.472656 5.667969 1.472656 10.996094 C 1.472656 11.027344 1.476562 11.058594 1.476562 11.089844 C 1.582031 5.875 5.066406 1.714844 11.09375 1.714844 C 11.96875 1.714844 11.96875 1.714844 14.15625 2.152344 C 15.6875 1.496094 16.859375 1.652344 18.09375 2.152344 C 19.363281 2.789062 19.59375 3.363281 19.625 3.800781 C 19.644531 3.351562 19.734375 2.632812 18.09375 1.8125 C 16.859375 1.308594 15.6875 1.15625 14.15625 1.8125 C 11.96875 1.375 11.96875 1.375 11.09375 1.375 Z M 19.628906 3.894531 C 19.632812 4.019531 19.625 4.132812 19.625 4.230469 C 20 4.386719 20.4375 4.816406 20.515625 5.394531 C 20.597656 4.648438 20.078125 4.078125 19.628906 3.894531 Z M 8.472656 7.796875 C 8.34375 7.878906 8.21875 7.96875 8.101562 8.0625 C 8.652344 8.164062 9.144531 8.269531 9.351562 8.644531 C 9.53125 8.96875 9.84375 9.515625 9.917969 9.988281 C 10.011719 9.464844 9.574219 8.710938 9.351562 8.304688 C 9.191406 8.015625 8.867188 7.886719 8.472656 7.796875 Z M 6.285156 12.023438 C 6.285156 12.085938 6.285156 12.148438 6.285156 12.214844 C 6.285156 12.285156 6.285156 12.355469 6.285156 12.429688 C 6.289062 12.464844 6.289062 12.5 6.289062 12.539062 C 6.421875 15.847656 8.582031 17.898438 11.96875 17.878906 C 15.585938 17.859375 18.601562 15.496094 19.785156 14.429688 C 19.929688 14.285156 20.066406 14.152344 20.191406 14.039062 C 20.222656 13.902344 20.253906 13.761719 20.28125 13.621094 C 20.128906 13.75 19.964844 13.910156 19.785156 14.089844 C 18.601562 15.15625 15.585938 17.519531 11.96875 17.539062 C 8.582031 17.558594 6.421875 15.503906 6.289062 12.195312 C 6.289062 12.160156 6.289062 12.125 6.285156 12.085938 C 6.285156 12.066406 6.285156 12.042969 6.285156 12.023438 Z M 6.285156 12.023438 "/>
<path style=" stroke:none;fill-rule:nonzero;fill:rgb(0%,0%,0%);fill-opacity:0.4;" d="M 19.625 3.808594 C 19.625 3.839844 19.625 3.875 19.625 3.902344 C 19.625 3.902344 19.628906 3.90625 19.632812 3.90625 C 19.628906 3.875 19.628906 3.839844 19.625 3.808594 Z M 20.515625 5.410156 C 20.472656 5.785156 20.277344 6.199219 19.84375 6.636719 C 19.789062 6.691406 19.734375 6.742188 19.679688 6.789062 C 19.628906 6.835938 19.574219 6.882812 19.523438 6.921875 C 19.472656 6.964844 19.417969 7.003906 19.367188 7.039062 C 19.316406 7.074219 19.265625 7.105469 19.21875 7.132812 C 18.964844 7.28125 18.71875 7.351562 18.457031 7.359375 C 18.40625 7.359375 18.351562 7.359375 18.296875 7.359375 C 18.246094 7.355469 18.191406 7.347656 18.136719 7.339844 C 17.859375 7.304688 17.558594 7.210938 17.21875 7.074219 C 17.09375 7.03125 16.96875 6.992188 16.839844 6.953125 C 16.710938 6.914062 16.578125 6.878906 16.445312 6.84375 C 16.3125 6.808594 16.175781 6.773438 16.039062 6.742188 C 15.902344 6.710938 15.761719 6.679688 15.617188 6.652344 C 15.476562 6.625 15.332031 6.597656 15.1875 6.570312 C 15.042969 6.546875 14.894531 6.527344 14.746094 6.503906 C 14.597656 6.484375 14.449219 6.464844 14.300781 6.449219 C 12.652344 6.277344 10.902344 6.378906 9.460938 6.960938 C 9.328125 7.011719 9.199219 7.070312 9.074219 7.128906 C 8.722656 7.300781 8.398438 7.5 8.101562 7.734375 C 8.226562 7.757812 8.347656 7.78125 8.464844 7.808594 C 8.660156 7.679688 8.863281 7.566406 9.074219 7.464844 C 9.199219 7.40625 9.328125 7.347656 9.460938 7.296875 C 10.902344 6.714844 12.652344 6.609375 14.300781 6.785156 C 14.449219 6.800781 14.597656 6.820312 14.746094 6.839844 C 14.894531 6.859375 15.042969 6.882812 15.1875 6.90625 C 15.332031 6.933594 15.476562 6.957031 15.617188 6.988281 C 15.761719 7.015625 15.902344 7.046875 16.039062 7.078125 C 16.175781 7.109375 16.3125 7.144531 16.445312 7.179688 C 16.578125 7.214844 16.710938 7.25 16.839844 7.289062 C 16.96875 7.328125 17.09375 7.367188 17.21875 7.40625 C 17.558594 7.542969 17.859375 7.640625 18.136719 7.675781 C 18.191406 7.683594 18.246094 7.691406 18.296875 7.691406 C 18.351562 7.695312 18.40625 7.695312 18.457031 7.695312 C 18.71875 7.683594 18.964844 7.613281 19.21875 7.46875 C 19.265625 7.441406 19.316406 7.410156 19.367188 7.375 C 19.417969 7.339844 19.472656 7.300781 19.523438 7.257812 C 19.574219 7.21875 19.628906 7.171875 19.679688 7.125 C 19.734375 7.078125 19.789062 7.023438 19.84375 6.96875 C 20.414062 6.398438 20.570312 5.863281 20.515625 5.410156 Z M 6.832031 9.289062 C 6.484375 9.996094 6.285156 10.851562 6.285156 11.882812 C 6.285156 11.929688 6.285156 11.976562 6.285156 12.023438 C 6.308594 11.078125 6.503906 10.285156 6.832031 9.625 C 7.019531 9.65625 7.195312 9.699219 7.359375 9.746094 C 8.289062 10.019531 8.25 10.90625 8.90625 10.90625 C 9.796875 10.90625 9.992188 10.496094 9.917969 10.003906 C 9.859375 10.332031 9.585938 10.570312 8.90625 10.570312 C 8.25 10.570312 8.289062 9.683594 7.359375 9.410156 C 7.195312 9.363281 7.019531 9.320312 6.832031 9.289062 Z M 1.472656 10.808594 C 1.472656 10.871094 1.472656 10.933594 1.472656 10.992188 C 1.472656 16.324219 5.765625 20.617188 11.09375 20.617188 C 14.59375 20.617188 19.40625 18.429688 20.28125 13.617188 C 20.253906 13.640625 20.222656 13.667969 20.195312 13.695312 C 19.128906 18.21875 14.492188 20.28125 11.09375 20.28125 C 5.8125 20.28125 1.554688 16.070312 1.472656 10.808594 Z M 1.472656 10.808594 "/>
<path style=" stroke:none;fill-rule:nonzero;fill:rgb(63.137257%,53.333336%,49.803922%);fill-opacity:1;" d="M 14.367188 1.386719 C 14.257812 1.390625 14.167969 1.484375 14.167969 1.59375 L 14.167969 2.46875 C 14.167969 2.582031 14.261719 2.675781 14.375 2.675781 C 14.554688 2.675781 14.722656 2.605469 14.90625 2.515625 C 15.085938 2.425781 15.261719 2.3125 15.394531 2.175781 C 15.496094 2.078125 15.46875 1.910156 15.34375 1.847656 L 14.46875 1.410156 C 14.4375 1.394531 14.402344 1.386719 14.367188 1.386719 Z M 14.367188 1.386719 "/>
<path style=" stroke:none;fill-rule:nonzero;fill:rgb(36.470589%,25.098041%,21.568628%);fill-opacity:1;" d="M 14.511719 1.59375 C 14.433594 1.597656 14.375 1.660156 14.375 1.734375 L 14.375 2.328125 C 14.375 2.40625 14.4375 2.46875 14.515625 2.46875 C 14.636719 2.46875 14.753906 2.421875 14.875 2.359375 C 14.996094 2.300781 15.117188 2.222656 15.207031 2.128906 C 15.277344 2.0625 15.257812 1.949219 15.171875 1.90625 L 14.578125 1.609375 C 14.558594 1.597656 14.535156 1.59375 14.511719 1.59375 Z M 14.511719 1.59375 "/>
<path style=" stroke:none;fill-rule:nonzero;fill:url(#linear0);" d="M 11.09375 1.375 C 4.972656 1.375 1.472656 5.667969 1.472656 10.996094 C 1.472656 16.328125 5.765625 20.621094 11.09375 20.621094 C 14.59375 20.621094 19.40625 18.433594 20.28125 13.621094 C 20.128906 13.75 19.964844 13.910156 19.785156 14.089844 C 19.574219 14.277344 19.3125 14.503906 18.996094 14.753906 C 20.167969 12.300781 20.101562 9.542969 18.996094 7.230469 C 19.269531 7.117188 19.542969 6.921875 19.84375 6.625 C 21.125 5.339844 20.335938 4.21875 19.671875 3.910156 C 19.773438 3.832031 19.84375 3.707031 19.84375 3.566406 L 19.84375 3.558594 C 19.84375 3.375 19.730469 3.21875 19.570312 3.15625 C 19.445312 2.769531 19.085938 2.308594 18.09375 1.8125 C 18.011719 1.78125 17.933594 1.75 17.855469 1.71875 L 17.855469 1.582031 C 17.855469 1.46875 17.765625 1.378906 17.65625 1.375 C 17.621094 1.375 17.585938 1.382812 17.554688 1.398438 L 17.277344 1.535156 C 16.5 1.332031 15.710938 1.304688 14.804688 1.578125 L 14.46875 1.410156 C 14.4375 1.394531 14.402344 1.386719 14.367188 1.386719 C 14.257812 1.390625 14.167969 1.484375 14.167969 1.59375 L 14.167969 1.808594 C 14.164062 1.808594 14.160156 1.808594 14.15625 1.8125 C 11.96875 1.375 11.96875 1.375 11.09375 1.375 Z M 11.09375 1.375 "/>
<path style=" stroke:none;fill-rule:nonzero;fill:rgb(0.784314%,0.784314%,0.784314%);fill-opacity:0.2;" d="M 19.753906 3.824219 C 19.730469 3.855469 19.703125 3.886719 19.671875 3.910156 C 19.726562 3.9375 19.777344 3.964844 19.832031 4 C 19.820312 3.9375 19.792969 3.875 19.753906 3.824219 Z M 20.503906 5.496094 C 20.4375 5.84375 20.238281 6.226562 19.84375 6.625 C 19.542969 6.921875 19.269531 7.117188 18.996094 7.230469 C 19.066406 7.375 19.128906 7.515625 19.191406 7.664062 C 19.398438 7.546875 19.613281 7.375 19.84375 7.148438 C 20.453125 6.539062 20.59375 5.964844 20.503906 5.496094 Z M 1.476562 11.25 C 1.472656 11.339844 1.472656 11.429688 1.472656 11.523438 C 1.472656 16.851562 5.765625 21.144531 11.09375 21.144531 C 14.59375 21.144531 19.40625 18.957031 20.28125 14.148438 C 20.234375 14.1875 20.183594 14.230469 20.132812 14.277344 C 18.960938 18.632812 14.429688 20.621094 11.09375 20.621094 C 5.847656 20.621094 1.609375 16.460938 1.476562 11.25 Z M 19.84375 11.257812 C 19.808594 12.4375 19.53125 13.628906 18.996094 14.753906 C 19.113281 14.660156 19.222656 14.570312 19.328125 14.484375 C 19.710938 13.429688 19.878906 12.335938 19.84375 11.257812 Z M 19.84375 11.257812 "/>
</g>
</svg>
