
<svg xmlns="http://www.w3.org/2000/svg" xmlns:xlink="http://www.w3.org/1999/xlink" width="22" height="22" viewBox="0 0 22 22" version="1.1">
<defs>
<linearGradient id="linear0" gradientUnits="userSpaceOnUse" x1="31.999998" y1="57.999996" x2="31.999998" y2="8" gradientTransform="matrix(0.34375,0,0,0.34375,-0.000000753543,0.00000000000003908)">
<stop offset="0" style="stop-color:rgb(0%,0%,0%);stop-opacity:0.2;"/>
<stop offset="1" style="stop-color:rgb(100%,100%,100%);stop-opacity:0;"/>
</linearGradient>
</defs>
<g id="surface1">
<path style=" stroke:none;fill-rule:nonzero;fill:rgb(38.039216%,38.039216%,38.039216%);fill-opacity:1;" d="M 2.75 2.75 L 19.25 2.75 C 20.007812 2.75 20.625 3.367188 20.625 4.125 L 20.625 17.875 C 20.625 18.632812 20.007812 19.25 19.25 19.25 L 2.75 19.25 C 1.992188 19.25 1.375 18.632812 1.375 17.875 L 1.375 4.125 C 1.375 3.367188 1.992188 2.75 2.75 2.75 Z M 2.75 2.75 "/>
<path style=" stroke:none;fill-rule:nonzero;fill:rgb(0.392157%,0.392157%,0.392157%);fill-opacity:0.4;" d="M 1.375 17.53125 L 1.375 17.875 C 1.375 18.636719 1.988281 19.25 2.75 19.25 L 19.25 19.25 C 20.011719 19.25 20.625 18.636719 20.625 17.875 L 20.625 17.53125 C 20.625 18.292969 20.011719 18.90625 19.25 18.90625 L 2.75 18.90625 C 1.988281 18.90625 1.375 18.292969 1.375 17.53125 Z M 1.375 17.53125 "/>
<path style=" stroke:none;fill-rule:nonzero;fill:rgb(87.843138%,87.843138%,87.843138%);fill-opacity:1;" d="M 3.4375 16.5 C 3.054688 16.5 2.75 16.804688 2.75 17.1875 L 2.75 19.25 C 2.75 19.632812 3.054688 19.9375 3.4375 19.9375 L 18.5625 19.9375 C 18.945312 19.9375 19.25 19.632812 19.25 19.25 L 19.25 17.1875 C 19.25 16.804688 18.945312 16.5 18.5625 16.5 L 17.53125 16.5 L 17.53125 17.359375 C 17.53125 17.835938 17.148438 18.21875 16.671875 18.21875 L 15.640625 18.21875 C 15.164062 18.21875 14.78125 17.835938 14.78125 17.359375 L 14.78125 16.5 L 14.09375 16.5 L 14.09375 17.359375 C 14.09375 17.835938 13.710938 18.21875 13.234375 18.21875 L 12.203125 18.21875 C 11.726562 18.21875 11.34375 17.835938 11.34375 17.359375 L 11.34375 16.5 L 10.65625 16.5 L 10.65625 17.359375 C 10.65625 17.835938 10.273438 18.21875 9.796875 18.21875 L 8.765625 18.21875 C 8.289062 18.21875 7.90625 17.835938 7.90625 17.359375 L 7.90625 16.5 L 7.21875 16.5 L 7.21875 17.359375 C 7.21875 17.835938 6.835938 18.21875 6.359375 18.21875 L 5.328125 18.21875 C 4.851562 18.21875 4.46875 17.835938 4.46875 17.359375 L 4.46875 16.5 Z M 3.4375 16.5 "/>
<path style=" stroke:none;fill-rule:nonzero;fill:rgb(87.843138%,87.843138%,87.843138%);fill-opacity:1;" d="M 2.75 2.75 C 1.988281 2.75 1.375 3.363281 1.375 4.125 L 20.625 4.125 C 20.625 3.363281 20.011719 2.75 19.25 2.75 Z M 2.75 2.75 "/>
<path style=" stroke:none;fill-rule:nonzero;fill:rgb(0%,0%,0%);fill-opacity:0.4;" d="M 1.375 4.125 L 1.375 4.46875 L 20.625 4.46875 L 20.625 4.125 Z M 2.75 18.90625 L 2.75 19.25 C 2.75 19.632812 3.054688 19.9375 3.4375 19.9375 L 18.5625 19.9375 C 18.945312 19.9375 19.25 19.632812 19.25 19.25 L 19.25 18.90625 C 19.25 19.289062 18.945312 19.59375 18.5625 19.59375 L 3.4375 19.59375 C 3.054688 19.59375 2.75 19.289062 2.75 18.90625 Z M 2.75 18.90625 "/>
<path style=" stroke:none;fill-rule:nonzero;fill:rgb(100%,100%,100%);fill-opacity:0.8;" d="M 2.75 2.75 C 1.988281 2.75 1.375 3.363281 1.375 4.125 L 1.417969 4.125 C 1.566406 3.527344 2.105469 3.085938 2.75 3.085938 L 19.25 3.085938 C 19.894531 3.085938 20.433594 3.527344 20.582031 4.125 L 20.625 4.125 C 20.625 3.363281 20.011719 2.75 19.25 2.75 Z M 2.75 2.75 "/>
<path style=" stroke:none;fill-rule:nonzero;fill:rgb(0%,0%,0%);fill-opacity:0.2;" d="M 1.375 17.875 L 1.375 18.390625 C 1.375 19.152344 1.988281 19.765625 2.75 19.765625 C 2.75 20.148438 3.054688 20.453125 3.4375 20.453125 L 18.5625 20.453125 C 18.945312 20.453125 19.25 20.148438 19.25 19.765625 C 20.011719 19.765625 20.625 19.152344 20.625 18.390625 L 20.625 17.875 C 20.625 18.636719 20.011719 19.25 19.25 19.25 C 19.25 19.632812 18.945312 19.9375 18.5625 19.9375 L 3.4375 19.9375 C 3.054688 19.9375 2.75 19.632812 2.75 19.25 C 1.988281 19.25 1.375 18.636719 1.375 17.875 Z M 1.375 17.875 "/>
<path style=" stroke:none;fill-rule:nonzero;fill:rgb(100%,79.215688%,15.686275%);fill-opacity:1;" d="M 5.5 15.8125 L 6.1875 15.8125 C 6.566406 15.8125 6.875 16.121094 6.875 16.5 L 6.875 17.1875 C 6.875 17.566406 6.566406 17.875 6.1875 17.875 L 5.5 17.875 C 5.121094 17.875 4.8125 17.566406 4.8125 17.1875 L 4.8125 16.5 C 4.8125 16.121094 5.121094 15.8125 5.5 15.8125 Z M 5.5 15.8125 "/>
<path style=" stroke:none;fill-rule:nonzero;fill:rgb(67.058825%,27.843139%,73.725492%);fill-opacity:1;" d="M 12.375 15.8125 L 13.0625 15.8125 C 13.441406 15.8125 13.75 16.121094 13.75 16.5 L 13.75 17.1875 C 13.75 17.566406 13.441406 17.875 13.0625 17.875 L 12.375 17.875 C 11.996094 17.875 11.6875 17.566406 11.6875 17.1875 L 11.6875 16.5 C 11.6875 16.121094 11.996094 15.8125 12.375 15.8125 Z M 12.375 15.8125 "/>
<path style=" stroke:none;fill-rule:nonzero;fill:rgb(40.000001%,73.333335%,41.568628%);fill-opacity:1;" d="M 8.9375 15.8125 L 9.625 15.8125 C 10.003906 15.8125 10.3125 16.121094 10.3125 16.5 L 10.3125 17.1875 C 10.3125 17.566406 10.003906 17.875 9.625 17.875 L 8.9375 17.875 C 8.558594 17.875 8.25 17.566406 8.25 17.1875 L 8.25 16.5 C 8.25 16.121094 8.558594 15.8125 8.9375 15.8125 Z M 8.9375 15.8125 "/>
<path style=" stroke:none;fill-rule:nonzero;fill:rgb(25.882354%,64.705884%,96.078432%);fill-opacity:1;" d="M 15.8125 15.8125 L 16.5 15.8125 C 16.878906 15.8125 17.1875 16.121094 17.1875 16.5 L 17.1875 17.1875 C 17.1875 17.566406 16.878906 17.875 16.5 17.875 L 15.8125 17.875 C 15.433594 17.875 15.125 17.566406 15.125 17.1875 L 15.125 16.5 C 15.125 16.121094 15.433594 15.8125 15.8125 15.8125 Z M 15.8125 15.8125 "/>
<path style=" stroke:none;fill-rule:nonzero;fill:rgb(100%,100%,100%);fill-opacity:0.8;" d="M 3.4375 16.5 C 3.054688 16.5 2.75 16.804688 2.75 17.1875 L 2.75 17.53125 C 2.75 17.148438 3.054688 16.84375 3.4375 16.84375 L 4.46875 16.84375 L 4.46875 16.5 Z M 7.21875 16.5 L 7.21875 16.84375 L 7.90625 16.84375 L 7.90625 16.5 Z M 10.65625 16.5 L 10.65625 16.84375 L 11.34375 16.84375 L 11.34375 16.5 Z M 14.09375 16.5 L 14.09375 16.84375 L 14.78125 16.84375 L 14.78125 16.5 Z M 17.53125 16.5 L 17.53125 16.84375 L 18.5625 16.84375 C 18.945312 16.84375 19.25 17.148438 19.25 17.53125 L 19.25 17.1875 C 19.25 16.804688 18.945312 16.5 18.5625 16.5 Z M 4.46875 17.359375 L 4.46875 17.703125 C 4.46875 18.179688 4.851562 18.5625 5.328125 18.5625 L 6.359375 18.5625 C 6.835938 18.5625 7.21875 18.179688 7.21875 17.703125 L 7.21875 17.359375 C 7.21875 17.835938 6.835938 18.21875 6.359375 18.21875 L 5.328125 18.21875 C 4.851562 18.21875 4.46875 17.835938 4.46875 17.359375 Z M 7.90625 17.359375 L 7.90625 17.703125 C 7.90625 18.179688 8.289062 18.5625 8.765625 18.5625 L 9.796875 18.5625 C 10.273438 18.5625 10.65625 18.179688 10.65625 17.703125 L 10.65625 17.359375 C 10.65625 17.835938 10.273438 18.21875 9.796875 18.21875 L 8.765625 18.21875 C 8.289062 18.21875 7.90625 17.835938 7.90625 17.359375 Z M 11.34375 17.359375 L 11.34375 17.703125 C 11.34375 18.179688 11.726562 18.5625 12.203125 18.5625 L 13.234375 18.5625 C 13.710938 18.5625 14.09375 18.179688 14.09375 17.703125 L 14.09375 17.359375 C 14.09375 17.835938 13.710938 18.21875 13.234375 18.21875 L 12.203125 18.21875 C 11.726562 18.21875 11.34375 17.835938 11.34375 17.359375 Z M 14.78125 17.359375 L 14.78125 17.703125 C 14.78125 18.179688 15.164062 18.5625 15.640625 18.5625 L 16.671875 18.5625 C 17.148438 18.5625 17.53125 18.179688 17.53125 17.703125 L 17.53125 17.359375 C 17.53125 17.835938 17.148438 18.21875 16.671875 18.21875 L 15.640625 18.21875 C 15.164062 18.21875 14.78125 17.835938 14.78125 17.359375 Z M 14.78125 17.359375 "/>
<path style=" stroke:none;fill-rule:nonzero;fill:rgb(100%,100%,100%);fill-opacity:0.4;" d="M 5.480469 15.8125 C 5.109375 15.820312 4.8125 16.125 4.8125 16.5 L 4.8125 16.84375 C 4.8125 16.46875 5.109375 16.164062 5.480469 16.15625 C 5.488281 16.15625 5.492188 16.15625 5.5 16.15625 L 6.1875 16.15625 C 6.570312 16.15625 6.875 16.460938 6.875 16.84375 L 6.875 16.5 C 6.875 16.117188 6.570312 15.8125 6.1875 15.8125 L 5.5 15.8125 C 5.492188 15.8125 5.488281 15.8125 5.480469 15.8125 Z M 8.917969 15.8125 C 8.546875 15.820312 8.25 16.125 8.25 16.5 L 8.25 16.84375 C 8.25 16.46875 8.546875 16.164062 8.917969 16.15625 C 8.925781 16.15625 8.929688 16.15625 8.9375 16.15625 L 9.625 16.15625 C 10.007812 16.15625 10.3125 16.460938 10.3125 16.84375 L 10.3125 16.5 C 10.3125 16.117188 10.007812 15.8125 9.625 15.8125 L 8.9375 15.8125 C 8.929688 15.8125 8.925781 15.8125 8.917969 15.8125 Z M 12.355469 15.8125 C 11.984375 15.820312 11.6875 16.125 11.6875 16.5 L 11.6875 16.84375 C 11.6875 16.46875 11.984375 16.164062 12.355469 16.15625 C 12.363281 16.15625 12.367188 16.15625 12.375 16.15625 L 13.0625 16.15625 C 13.445312 16.15625 13.75 16.460938 13.75 16.84375 L 13.75 16.5 C 13.75 16.117188 13.445312 15.8125 13.0625 15.8125 L 12.375 15.8125 C 12.367188 15.8125 12.363281 15.8125 12.355469 15.8125 Z M 15.792969 15.8125 C 15.421875 15.820312 15.125 16.125 15.125 16.5 L 15.125 16.84375 C 15.125 16.46875 15.421875 16.164062 15.792969 16.15625 C 15.800781 16.15625 15.804688 16.15625 15.8125 16.15625 L 16.5 16.15625 C 16.882812 16.15625 17.1875 16.460938 17.1875 16.84375 L 17.1875 16.5 C 17.1875 16.117188 16.882812 15.8125 16.5 15.8125 L 15.8125 15.8125 C 15.804688 15.8125 15.800781 15.8125 15.792969 15.8125 Z M 15.792969 15.8125 "/>
<path style=" stroke:none;fill-rule:nonzero;fill:rgb(0%,0%,0%);fill-opacity:0.4;" d="M 5.480469 18.21875 C 5.109375 18.210938 4.8125 17.90625 4.8125 17.53125 L 4.8125 17.1875 C 4.8125 17.5625 5.109375 17.867188 5.480469 17.875 C 5.488281 17.875 5.492188 17.875 5.5 17.875 L 6.1875 17.875 C 6.570312 17.875 6.875 17.570312 6.875 17.1875 L 6.875 17.53125 C 6.875 17.914062 6.570312 18.21875 6.1875 18.21875 L 5.5 18.21875 C 5.492188 18.21875 5.488281 18.21875 5.480469 18.21875 Z M 8.917969 18.21875 C 8.546875 18.210938 8.25 17.90625 8.25 17.53125 L 8.25 17.1875 C 8.25 17.5625 8.546875 17.867188 8.917969 17.875 C 8.925781 17.875 8.929688 17.875 8.9375 17.875 L 9.625 17.875 C 10.007812 17.875 10.3125 17.570312 10.3125 17.1875 L 10.3125 17.53125 C 10.3125 17.914062 10.007812 18.21875 9.625 18.21875 L 8.9375 18.21875 C 8.929688 18.21875 8.925781 18.21875 8.917969 18.21875 Z M 12.355469 18.21875 C 11.984375 18.210938 11.6875 17.90625 11.6875 17.53125 L 11.6875 17.1875 C 11.6875 17.5625 11.984375 17.867188 12.355469 17.875 C 12.363281 17.875 12.367188 17.875 12.375 17.875 L 13.0625 17.875 C 13.445312 17.875 13.75 17.570312 13.75 17.1875 L 13.75 17.53125 C 13.75 17.914062 13.445312 18.21875 13.0625 18.21875 L 12.375 18.21875 C 12.367188 18.21875 12.363281 18.21875 12.355469 18.21875 Z M 15.792969 18.21875 C 15.421875 18.210938 15.125 17.90625 15.125 17.53125 L 15.125 17.1875 C 15.125 17.5625 15.421875 17.867188 15.792969 17.875 C 15.800781 17.875 15.804688 17.875 15.8125 17.875 L 16.5 17.875 C 16.882812 17.875 17.1875 17.570312 17.1875 17.1875 L 17.1875 17.53125 C 17.1875 17.914062 16.882812 18.21875 16.5 18.21875 L 15.8125 18.21875 C 15.804688 18.21875 15.800781 18.21875 15.792969 18.21875 Z M 15.792969 18.21875 "/>
<path style=" stroke:none;fill-rule:nonzero;fill:url(#linear0);" d="M 2.75 2.75 C 1.988281 2.75 1.375 3.363281 1.375 4.125 L 1.375 17.875 C 1.375 18.636719 1.988281 19.25 2.75 19.25 C 2.75 19.632812 3.054688 19.9375 3.4375 19.9375 L 18.5625 19.9375 C 18.945312 19.9375 19.25 19.632812 19.25 19.25 C 20.011719 19.25 20.625 18.636719 20.625 17.875 L 20.625 4.125 C 20.625 3.363281 20.011719 2.75 19.25 2.75 Z M 2.75 2.75 "/>
</g>
</svg>
