
<svg xmlns="http://www.w3.org/2000/svg" xmlns:xlink="http://www.w3.org/1999/xlink" width="64" height="64" viewBox="0 0 64 64" version="1.1">
<defs>
<linearGradient id="linear0" gradientUnits="userSpaceOnUse" x1="32" y1="59.999996" x2="31.999998" y2="3.999999" >
<stop offset="0" style="stop-color:rgb(0%,0%,0%);stop-opacity:0.2;"/>
<stop offset="1" style="stop-color:rgb(100%,100%,100%);stop-opacity:0;"/>
</linearGradient>
</defs>
<g id="surface1">
<path style=" stroke:none;fill-rule:nonzero;fill:rgb(0%,0%,0%);fill-opacity:0.2;" d="M 4.097656 13.75 C 4.035156 13.988281 4 14.242188 4 14.5 C 4 16.160156 5.339844 17.5 7 17.5 L 8 17.5 L 8 16 L 7 16 C 5.597656 16 4.429688 15.046875 4.097656 13.75 Z M 59.902344 13.75 C 59.570312 15.046875 58.402344 16 57 16 L 56 16 L 56 17.5 L 57 17.5 C 58.660156 17.5 60 16.160156 60 14.5 C 60 14.242188 59.964844 13.988281 59.902344 13.75 Z M 8 23 L 8 24.5 C 8 26.160156 9.339844 27.5 11 27.5 L 18 27.5 L 18 26 L 11 26 C 9.339844 26 8 24.660156 8 23 Z M 56 23 C 56 24.660156 54.660156 26 53 26 L 46 26 L 46 27.5 L 53 27.5 C 54.660156 27.5 56 26.160156 56 24.5 Z M 14 44 L 14 45.5 L 18.140625 45.5 C 19.105469 52.300781 24.921875 57.5 32 57.5 C 39.078125 57.5 44.894531 52.300781 45.859375 45.5 L 50 45.5 L 50 44 L 45.859375 44 C 44.894531 50.800781 39.078125 56 32 56 C 24.921875 56 19.105469 50.800781 18.140625 44 Z M 4.097656 51.75 C 4.035156 51.988281 4 52.242188 4 52.5 C 4 54.160156 5.339844 55.5 7 55.5 L 8 55.5 L 8 54 L 7 54 C 5.597656 54 4.429688 53.046875 4.097656 51.75 Z M 59.902344 51.75 C 59.570312 53.046875 58.402344 54 57 54 L 56 54 L 56 55.5 L 57 55.5 C 58.660156 55.5 60 54.160156 60 52.5 C 60 52.242188 59.964844 51.988281 59.902344 51.75 Z M 8 57 L 8 58.5 C 8 60.160156 9.339844 61.5 11 61.5 C 12.660156 61.5 14 60.160156 14 58.5 L 14 57 C 14 58.660156 12.660156 60 11 60 C 9.339844 60 8 58.660156 8 57 Z M 50 57 L 50 58.5 C 50 60.160156 51.339844 61.5 53 61.5 C 54.660156 61.5 56 60.160156 56 58.5 L 56 57 C 56 58.660156 54.660156 60 53 60 C 51.339844 60 50 58.660156 50 57 Z M 50 57 "/>
<path style=" stroke:none;fill-rule:nonzero;fill:rgb(54.509807%,76.47059%,29.019609%);fill-opacity:1;" d="M 11 4 C 9.339844 4 8 5.339844 8 7 L 8 10 L 7 10 C 5.339844 10 4 11.339844 4 13 C 4 14.660156 5.339844 16 7 16 L 8 16 L 8 23 C 8 24.660156 9.339844 26 11 26 L 53 26 C 54.660156 26 56 24.660156 56 23 L 56 16 L 57 16 C 58.660156 16 60 14.660156 60 13 C 60 11.339844 58.660156 10 57 10 L 56 10 L 56 7 C 56 5.339844 54.660156 4 53 4 C 51.339844 4 50 5.339844 50 7 L 50 20 L 14 20 L 14 7 C 14 5.339844 12.660156 4 11 4 Z M 11 38 C 9.339844 38 8 39.339844 8 41 L 8 48 L 7 48 C 5.339844 48 4 49.339844 4 51 C 4 52.660156 5.339844 54 7 54 L 8 54 L 8 57 C 8 58.660156 9.339844 60 11 60 C 12.660156 60 14 58.660156 14 57 L 14 44 L 50 44 L 50 57 C 50 58.660156 51.339844 60 53 60 C 54.660156 60 56 58.660156 56 57 L 56 54 L 57 54 C 58.660156 54 60 52.660156 60 51 C 60 49.339844 58.660156 48 57 48 L 56 48 L 56 41 C 56 39.339844 54.660156 38 53 38 Z M 11 38 "/>
<path style=" stroke:none;fill-rule:nonzero;fill:rgb(0.392157%,0.392157%,0.392157%);fill-opacity:0.4;" d="M 11 60 C 9.339844 60 8 58.660156 8 57 L 8 56 C 8 57.660156 9.339844 59 11 59 C 12.660156 59 14 57.660156 14 56 L 14 57 C 14 58.660156 12.660156 60 11 60 Z M 53 60 C 51.339844 60 50 58.660156 50 57 L 50 56 C 50 57.660156 51.339844 59 53 59 C 54.660156 59 56 57.660156 56 56 L 56 57 C 56 58.660156 54.660156 60 53 60 Z M 7 54 C 5.339844 54 4 52.660156 4 51 C 4 50.835938 4.023438 50.679688 4.046875 50.523438 C 4.296875 51.933594 5.515625 53 7 53 L 8 53 L 8 54 Z M 56 54 L 56 53 L 57 53 C 58.484375 53 59.703125 51.933594 59.953125 50.523438 C 59.976562 50.679688 60 50.835938 60 51 C 60 52.660156 58.660156 54 57 54 Z M 14 44 L 14 43 L 50 43 L 50 44 Z M 11 26 C 9.339844 26 8 24.660156 8 23 L 8 22 C 8 23.660156 9.339844 25 11 25 L 53 25 C 54.660156 25 56 23.660156 56 22 L 56 23 C 56 24.660156 54.660156 26 53 26 Z M 7 16 C 5.339844 16 4 14.660156 4 13 C 4 12.835938 4.023438 12.679688 4.046875 12.523438 C 4.296875 13.933594 5.515625 15 7 15 L 8 15 L 8 16 Z M 56 16 L 56 15 L 57 15 C 58.484375 15 59.703125 13.933594 59.953125 12.523438 C 59.976562 12.679688 60 12.835938 60 13 C 60 14.660156 58.660156 16 57 16 Z M 56 16 "/>
<path style=" stroke:none;fill-rule:nonzero;fill:rgb(100%,100%,100%);fill-opacity:0.4;" d="M 11 4 C 9.339844 4 8 5.339844 8 7 L 8 8 C 8 6.339844 9.339844 5 11 5 C 12.660156 5 14 6.339844 14 8 L 14 7 C 14 5.339844 12.660156 4 11 4 Z M 53 4 C 51.339844 4 50 5.339844 50 7 L 50 8 C 50 6.339844 51.339844 5 53 5 C 54.660156 5 56 6.339844 56 8 L 56 7 C 56 5.339844 54.660156 4 53 4 Z M 7 10 C 5.339844 10 4 11.339844 4 13 C 4 13.164062 4.023438 13.320312 4.046875 13.480469 C 4.296875 12.066406 5.515625 11 7 11 L 8 11 L 8 10 Z M 56 10 L 56 11 L 57 11 C 58.484375 11 59.703125 12.066406 59.953125 13.480469 C 59.976562 13.320312 60 13.164062 60 13 C 60 11.339844 58.660156 10 57 10 Z M 14 20 L 14 21 L 50 21 L 50 20 Z M 11 38 C 9.339844 38 8 39.339844 8 41 L 8 42 C 8 40.339844 9.339844 39 11 39 L 53 39 C 54.660156 39 56 40.339844 56 42 L 56 41 C 56 39.339844 54.660156 38 53 38 Z M 7 48 C 5.339844 48 4 49.339844 4 51 C 4 51.164062 4.023438 51.320312 4.046875 51.480469 C 4.296875 50.066406 5.515625 49 7 49 L 8 49 L 8 48 Z M 56 48 L 56 49 L 57 49 C 58.484375 49 59.703125 50.066406 59.953125 51.480469 C 59.976562 51.320312 60 51.164062 60 51 C 60 49.339844 58.660156 48 57 48 Z M 56 48 "/>
<path style=" stroke:none;fill-rule:nonzero;fill:rgb(61.176473%,80.000001%,39.607844%);fill-opacity:1;" d="M 32 8 C 39.730469 8 46 14.269531 46 22 L 46 42 C 46 49.730469 39.730469 56 32 56 C 24.269531 56 18 49.730469 18 42 L 18 22 C 18 14.269531 24.269531 8 32 8 Z M 32 8 "/>
<path style=" stroke:none;fill-rule:nonzero;fill:rgb(100%,100%,100%);fill-opacity:0.4;" d="M 32 8 C 24.242188 8 18 14.242188 18 22 L 18 22.996094 C 18 15.238281 24.242188 8.992188 32 8.992188 C 39.757812 8.992188 46 15.238281 46 22.996094 L 46 22 C 46 14.242188 39.757812 8 32 8 Z M 32 8 "/>
<path style=" stroke:none;fill-rule:nonzero;fill:rgb(38.039216%,38.039216%,38.039216%);fill-opacity:1;" d="M 23 10 C 25.761719 10 28 12.238281 28 15 C 28 17.761719 25.761719 20 23 20 C 20.238281 20 18 17.761719 18 15 C 18 12.238281 20.238281 10 23 10 Z M 23 10 "/>
<path style=" stroke:none;fill-rule:nonzero;fill:rgb(61.960787%,61.960787%,61.960787%);fill-opacity:1;" d="M 22 12 C 23.105469 12 24 12.894531 24 14 C 24 15.105469 23.105469 16 22 16 C 20.894531 16 20 15.105469 20 14 C 20 12.894531 20.894531 12 22 12 Z M 22 12 "/>
<path style=" stroke:none;fill-rule:nonzero;fill:rgb(38.039216%,38.039216%,38.039216%);fill-opacity:1;" d="M 41 10 C 38.238281 10 36 12.238281 36 15 C 36 17.761719 38.238281 20 41 20 C 43.761719 20 46 17.761719 46 15 C 46 12.238281 43.761719 10 41 10 Z M 41 10 "/>
<path style=" stroke:none;fill-rule:nonzero;fill:rgb(61.960787%,61.960787%,61.960787%);fill-opacity:1;" d="M 42 12 C 40.894531 12 40 12.894531 40 14 C 40 15.105469 40.894531 16 42 16 C 43.105469 16 44 15.105469 44 14 C 44 12.894531 43.105469 12 42 12 Z M 42 12 "/>
<path style=" stroke:none;fill-rule:nonzero;fill:rgb(0%,0%,0%);fill-opacity:0.4;" d="M 32 56 C 24.242188 56 18 49.757812 18 42 L 18 41.007812 C 18 48.761719 24.242188 55.003906 32 55.003906 C 39.757812 55.003906 46 48.761719 46 41.007812 L 46 42 C 46 49.757812 39.757812 56 32 56 Z M 32 56 "/>
<path style=" stroke:none;fill-rule:nonzero;fill:rgb(100%,100%,100%);fill-opacity:0.4;" d="M 23 10 C 20.230469 10 18 12.230469 18 15 C 18 15.167969 18.007812 15.335938 18.023438 15.5 C 18.273438 12.96875 20.398438 11 23 11 C 25.601562 11 27.726562 12.96875 27.976562 15.5 C 27.992188 15.335938 28 15.167969 28 15 C 28 12.230469 25.769531 10 23 10 Z M 23 10 "/>
<path style=" stroke:none;fill-rule:nonzero;fill:rgb(100%,100%,100%);fill-opacity:0.4;" d="M 41 10 C 38.230469 10 36 12.230469 36 15 C 36 15.167969 36.007812 15.335938 36.023438 15.5 C 36.273438 12.96875 38.398438 11 41 11 C 43.601562 11 45.726562 12.96875 45.976562 15.5 C 45.992188 15.335938 46 15.167969 46 15 C 46 12.230469 43.769531 10 41 10 Z M 41 10 "/>
<path style=" stroke:none;fill-rule:nonzero;fill:rgb(0.392157%,0.392157%,0.392157%);fill-opacity:0.4;" d="M 27.976562 15.5 C 27.726562 18.03125 25.601562 20 23 20 C 21.171875 20 19.582031 19.03125 18.707031 17.578125 C 18.640625 17.789062 18.574219 18 18.515625 18.21875 C 19.328125 19.867188 21.027344 21 23 21 C 25.769531 21 28 18.769531 28 16 C 28 15.832031 27.992188 15.664062 27.976562 15.5 Z M 27.976562 15.5 "/>
<path style=" stroke:none;fill-rule:nonzero;fill:rgb(0.392157%,0.392157%,0.392157%);fill-opacity:0.4;" d="M 36.023438 15.5 C 36.007812 15.664062 36 15.832031 36 16 C 36 18.769531 38.230469 21 41 21 C 42.972656 21 44.671875 19.867188 45.484375 18.21875 C 45.425781 18 45.359375 17.789062 45.292969 17.578125 C 44.417969 19.03125 42.828125 20 41 20 C 38.398438 20 36.273438 18.03125 36.023438 15.5 Z M 36.023438 15.5 "/>
<path style=" stroke:none;fill-rule:nonzero;fill:rgb(95.686275%,26.274511%,21.176471%);fill-opacity:0.992157;" d="M 32 27.75 C 33.105469 27.75 34 28.644531 34 29.75 C 34 30.855469 33.105469 31.75 32 31.75 C 30.894531 31.75 30 30.855469 30 29.75 C 30 28.644531 30.894531 27.75 32 27.75 Z M 32 27.75 "/>
<path style=" stroke:none;fill-rule:nonzero;fill:rgb(100%,100%,100%);fill-opacity:0.4;" d="M 31.949219 27.75 C 30.863281 27.777344 30 28.660156 30 29.75 C 30 29.835938 30.003906 29.917969 30.015625 30 C 30.136719 29.011719 30.976562 28.25 32 28.25 C 33.023438 28.25 33.863281 29.011719 33.984375 30 C 33.996094 29.917969 34 29.835938 34 29.75 C 34 28.640625 33.109375 27.75 32 27.75 C 31.984375 27.75 31.964844 27.75 31.949219 27.75 Z M 31.949219 27.75 "/>
<path style=" stroke:none;fill-rule:nonzero;fill:rgb(0%,0%,0%);fill-opacity:0.4;" d="M 31.949219 32.25 C 30.863281 32.222656 30 31.339844 30 30.25 C 30 30.164062 30.003906 30.082031 30.015625 30 C 30.136719 30.988281 30.976562 31.75 32 31.75 C 33.023438 31.75 33.863281 30.988281 33.984375 30 C 33.996094 30.082031 34 30.164062 34 30.25 C 34 31.359375 33.109375 32.25 32 32.25 C 31.984375 32.25 31.964844 32.25 31.945312 32.25 Z M 31.949219 32.25 "/>
<path style=" stroke:none;fill-rule:nonzero;fill:rgb(95.686275%,26.274511%,21.176471%);fill-opacity:0.992157;" d="M 32 33.75 C 33.105469 33.75 34 34.644531 34 35.75 C 34 36.855469 33.105469 37.75 32 37.75 C 30.894531 37.75 30 36.855469 30 35.75 C 30 34.644531 30.894531 33.75 32 33.75 Z M 32 33.75 "/>
<path style=" stroke:none;fill-rule:nonzero;fill:rgb(100%,100%,100%);fill-opacity:0.4;" d="M 31.949219 33.75 C 30.863281 33.777344 30 34.660156 30 35.75 C 30 35.835938 30.003906 35.917969 30.015625 36 C 30.136719 35.011719 30.976562 34.25 32 34.25 C 33.023438 34.25 33.863281 35.011719 33.984375 36 C 33.996094 35.917969 34 35.835938 34 35.75 C 34 34.640625 33.109375 33.75 32 33.75 C 31.984375 33.75 31.964844 33.75 31.949219 33.75 Z M 31.949219 33.75 "/>
<path style=" stroke:none;fill-rule:nonzero;fill:rgb(0%,0%,0%);fill-opacity:0.4;" d="M 31.949219 38.25 C 30.863281 38.222656 30 37.339844 30 36.25 C 30 36.164062 30.003906 36.082031 30.015625 36 C 30.136719 36.988281 30.976562 37.75 32 37.75 C 33.023438 37.75 33.863281 36.988281 33.984375 36 C 33.996094 36.082031 34 36.164062 34 36.25 C 34 37.359375 33.109375 38.25 32 38.25 C 31.984375 38.25 31.964844 38.25 31.945312 38.25 Z M 31.949219 38.25 "/>
<path style=" stroke:none;fill-rule:nonzero;fill:rgb(95.686275%,26.274511%,21.176471%);fill-opacity:0.992157;" d="M 32 39.75 C 33.105469 39.75 34 40.644531 34 41.75 C 34 42.855469 33.105469 43.75 32 43.75 C 30.894531 43.75 30 42.855469 30 41.75 C 30 40.644531 30.894531 39.75 32 39.75 Z M 32 39.75 "/>
<path style=" stroke:none;fill-rule:nonzero;fill:rgb(100%,100%,100%);fill-opacity:0.4;" d="M 31.949219 39.75 C 30.863281 39.777344 30 40.660156 30 41.75 C 30 41.835938 30.003906 41.917969 30.015625 42 C 30.136719 41.011719 30.976562 40.25 32 40.25 C 33.023438 40.25 33.863281 41.011719 33.984375 42 C 33.996094 41.917969 34 41.835938 34 41.75 C 34 40.640625 33.109375 39.75 32 39.75 C 31.984375 39.75 31.964844 39.75 31.949219 39.75 Z M 31.949219 39.75 "/>
<path style=" stroke:none;fill-rule:nonzero;fill:rgb(0%,0%,0%);fill-opacity:0.4;" d="M 31.949219 44.25 C 30.863281 44.222656 30 43.339844 30 42.25 C 30 42.164062 30.003906 42.082031 30.015625 42 C 30.136719 42.988281 30.976562 43.75 32 43.75 C 33.023438 43.75 33.863281 42.988281 33.984375 42 C 33.996094 42.082031 34 42.164062 34 42.25 C 34 43.359375 33.109375 44.25 32 44.25 C 31.984375 44.25 31.964844 44.25 31.945312 44.25 Z M 31.949219 44.25 "/>
<path style=" stroke:none;fill-rule:nonzero;fill:rgb(95.686275%,26.274511%,21.176471%);fill-opacity:0.992157;" d="M 32 45.75 C 33.105469 45.75 34 46.644531 34 47.75 C 34 48.855469 33.105469 49.75 32 49.75 C 30.894531 49.75 30 48.855469 30 47.75 C 30 46.644531 30.894531 45.75 32 45.75 Z M 32 45.75 "/>
<path style=" stroke:none;fill-rule:nonzero;fill:rgb(100%,100%,100%);fill-opacity:0.4;" d="M 31.949219 45.75 C 30.863281 45.777344 30 46.660156 30 47.75 C 30 47.835938 30.003906 47.917969 30.015625 48 C 30.136719 47.011719 30.976562 46.25 32 46.25 C 33.023438 46.25 33.863281 47.011719 33.984375 48 C 33.996094 47.917969 34 47.835938 34 47.75 C 34 46.640625 33.109375 45.75 32 45.75 C 31.984375 45.75 31.964844 45.75 31.949219 45.75 Z M 31.949219 45.75 "/>
<path style=" stroke:none;fill-rule:nonzero;fill:rgb(0%,0%,0%);fill-opacity:0.4;" d="M 31.949219 50.25 C 30.863281 50.222656 30 49.339844 30 48.25 C 30 48.164062 30.003906 48.082031 30.015625 48 C 30.136719 48.988281 30.976562 49.75 32 49.75 C 33.023438 49.75 33.863281 48.988281 33.984375 48 C 33.996094 48.082031 34 48.164062 34 48.25 C 34 49.359375 33.109375 50.25 32 50.25 C 31.984375 50.25 31.964844 50.25 31.945312 50.25 Z M 31.949219 50.25 "/>
<path style=" stroke:none;fill-rule:nonzero;fill:url(#linear0);" d="M 11 4 C 9.339844 4 8 5.339844 8 7 L 8 10 L 7 10 C 5.339844 10 4 11.339844 4 13 C 4 14.660156 5.339844 16 7 16 L 8 16 L 8 23 C 8 24.660156 9.339844 26 11 26 L 18 26 L 18 38 L 11 38 C 9.339844 38 8 39.339844 8 41 L 8 48 L 7 48 C 5.339844 48 4 49.339844 4 51 C 4 52.660156 5.339844 54 7 54 L 8 54 L 8 57 C 8 58.660156 9.339844 60 11 60 C 12.660156 60 14 58.660156 14 57 L 14 44 L 18.140625 44 C 19.105469 50.800781 24.921875 56 32 56 C 39.078125 56 44.894531 50.800781 45.859375 44 L 50 44 L 50 57 C 50 58.660156 51.339844 60 53 60 C 54.660156 60 56 58.660156 56 57 L 56 54 L 57 54 C 58.660156 54 60 52.660156 60 51 C 60 49.339844 58.660156 48 57 48 L 56 48 L 56 41 C 56 39.339844 54.660156 38 53 38 L 46 38 L 46 26 L 53 26 C 54.660156 26 56 24.660156 56 23 L 56 16 L 57 16 C 58.660156 16 60 14.660156 60 13 C 60 11.339844 58.660156 10 57 10 L 56 10 L 56 7 C 56 5.339844 54.660156 4 53 4 C 51.339844 4 50 5.339844 50 7 L 50 20 L 45.859375 20 C 45.742188 19.164062 45.550781 18.351562 45.292969 17.574219 C 45.742188 16.820312 46 15.941406 46 15 C 46 12.230469 43.769531 10 41 10 C 40.5 10 40.023438 10.074219 39.566406 10.207031 C 37.390625 8.808594 34.792969 8 32 8 C 29.207031 8 26.609375 8.808594 24.433594 10.207031 C 23.976562 10.074219 23.5 10 23 10 C 20.230469 10 18 12.230469 18 15 C 18 15.941406 18.257812 16.820312 18.707031 17.574219 C 18.449219 18.351562 18.257812 19.164062 18.140625 20 L 14 20 L 14 7 C 14 5.339844 12.660156 4 11 4 Z M 11 4 "/>
</g>
</svg>
