
<svg xmlns="http://www.w3.org/2000/svg" xmlns:xlink="http://www.w3.org/1999/xlink" width="24" height="24" viewBox="0 0 24 24" version="1.1">
<defs>
<linearGradient id="linear0" gradientUnits="userSpaceOnUse" x1="8.466666" y1="-199.125" x2="8.466666" y2="-213.941666" gradientTransform="matrix(1.417323,0,0,1.417323,0,304.724425)">
<stop offset="0" style="stop-color:rgb(0%,0%,0%);stop-opacity:0.2;"/>
<stop offset="1" style="stop-color:rgb(100%,100%,100%);stop-opacity:0;"/>
</linearGradient>
</defs>
<g id="surface1">
<path style=" stroke:none;fill-rule:nonzero;fill:rgb(47.058824%,56.470591%,61.176473%);fill-opacity:1;" d="M 3 1.5 L 21 1.5 C 21.828125 1.5 22.5 2.171875 22.5 3 L 22.5 21 C 22.5 21.828125 21.828125 22.5 21 22.5 L 3 22.5 C 2.171875 22.5 1.5 21.828125 1.5 21 L 1.5 3 C 1.5 2.171875 2.171875 1.5 3 1.5 Z M 3 1.5 "/>
<path style=" stroke:none;fill-rule:nonzero;fill:rgb(0%,0%,0%);fill-opacity:0.4;" d="M 1.5 20.625 L 1.5 21 C 1.5 21.832031 2.167969 22.5 3 22.5 L 21 22.5 C 21.832031 22.5 22.5 21.832031 22.5 21 L 22.5 20.625 C 22.5 21.457031 21.832031 22.125 21 22.125 L 3 22.125 C 2.167969 22.125 1.5 21.457031 1.5 20.625 Z M 1.5 20.625 "/>
<path style=" stroke:none;fill-rule:nonzero;fill:rgb(0%,0%,0%);fill-opacity:0.2;" d="M 1.5 21 L 1.5 21.5625 C 1.5 22.394531 2.167969 23.0625 3 23.0625 L 21 23.0625 C 21.832031 23.0625 22.5 22.394531 22.5 21.5625 L 22.5 21 C 22.5 21.832031 21.832031 22.5 21 22.5 L 3 22.5 C 2.167969 22.5 1.5 21.832031 1.5 21 Z M 1.5 21 "/>
<path style=" stroke:none;fill-rule:nonzero;fill:rgb(100%,100%,100%);fill-opacity:0.4;" d="M 3 1.5 C 2.167969 1.5 1.5 2.167969 1.5 3 L 1.5 3.367188 C 1.5 2.539062 2.167969 1.867188 3 1.867188 L 21 1.867188 C 21.832031 1.867188 22.5 2.539062 22.5 3.367188 L 22.5 3 C 22.5 2.167969 21.832031 1.5 21 1.5 Z M 3 1.5 "/>
<path style=" stroke:none;fill-rule:nonzero;fill:rgb(100%,43.921569%,26.274511%);fill-opacity:1;" d="M 1.699219 2.25 C 1.574219 2.46875 1.5 2.726562 1.5 3 L 1.5 8.25 L 3.75 8.25 C 4.164062 8.25 4.5 7.914062 4.5 7.5 L 4.5 3 C 4.5 2.585938 4.164062 2.25 3.75 2.25 Z M 6 2.25 C 5.585938 2.25 5.25 2.585938 5.25 3 L 5.25 7.5 C 5.25 7.914062 5.585938 8.25 6 8.25 L 18 8.25 C 18.414062 8.25 18.75 7.914062 18.75 7.5 L 18.75 3 C 18.75 2.585938 18.414062 2.25 18 2.25 Z M 20.25 2.25 C 19.835938 2.25 19.5 2.585938 19.5 3 L 19.5 7.5 C 19.5 7.914062 19.835938 8.25 20.25 8.25 L 22.5 8.25 L 22.5 3 C 22.5 2.726562 22.425781 2.46875 22.300781 2.25 Z M 1.5 9 L 1.5 15 L 10.875 15 C 11.289062 15 11.625 14.664062 11.625 14.25 L 11.625 9.75 C 11.625 9.335938 11.289062 9 10.875 9 Z M 13.125 9 C 12.710938 9 12.375 9.335938 12.375 9.75 L 12.375 14.25 C 12.375 14.664062 12.710938 15 13.125 15 L 22.5 15 L 22.5 9 Z M 1.5 15.75 L 1.5 21 C 1.5 21.273438 1.574219 21.53125 1.699219 21.75 L 3.75 21.75 C 4.164062 21.75 4.5 21.414062 4.5 21 L 4.5 16.5 C 4.5 16.085938 4.164062 15.75 3.75 15.75 Z M 6 15.75 C 5.585938 15.75 5.25 16.085938 5.25 16.5 L 5.25 21 C 5.25 21.414062 5.585938 21.75 6 21.75 L 18 21.75 C 18.414062 21.75 18.75 21.414062 18.75 21 L 18.75 16.5 C 18.75 16.085938 18.414062 15.75 18 15.75 Z M 20.25 15.75 C 19.835938 15.75 19.5 16.085938 19.5 16.5 L 19.5 21 C 19.5 21.414062 19.835938 21.75 20.25 21.75 L 22.300781 21.75 C 22.425781 21.53125 22.5 21.273438 22.5 21 L 22.5 15.75 Z M 20.25 15.75 "/>
<path style=" stroke:none;fill-rule:nonzero;fill:rgb(100%,100%,100%);fill-opacity:0.4;" d="M 1.699219 2.25 C 1.574219 2.46875 1.5 2.726562 1.5 3 L 1.5 3.375 C 1.5 3.101562 1.574219 2.84375 1.699219 2.625 L 3.75 2.625 C 4.164062 2.625 4.5 2.960938 4.5 3.375 L 4.5 3 C 4.5 2.585938 4.164062 2.25 3.75 2.25 Z M 6 2.25 C 5.585938 2.25 5.25 2.585938 5.25 3 L 5.25 3.375 C 5.25 2.960938 5.585938 2.625 6 2.625 L 18 2.625 C 18.414062 2.625 18.75 2.960938 18.75 3.375 L 18.75 3 C 18.75 2.585938 18.414062 2.25 18 2.25 Z M 20.25 2.25 C 19.835938 2.25 19.5 2.585938 19.5 3 L 19.5 3.375 C 19.5 2.960938 19.835938 2.625 20.25 2.625 L 22.300781 2.625 C 22.425781 2.84375 22.5 3.101562 22.5 3.375 L 22.5 3 C 22.5 2.726562 22.425781 2.46875 22.300781 2.25 Z M 1.5 9 L 1.5 9.375 L 10.875 9.375 C 11.289062 9.375 11.625 9.710938 11.625 10.125 L 11.625 9.75 C 11.625 9.335938 11.289062 9 10.875 9 Z M 13.125 9 C 12.710938 9 12.375 9.335938 12.375 9.75 L 12.375 10.125 C 12.375 9.710938 12.710938 9.375 13.125 9.375 L 22.5 9.375 L 22.5 9 Z M 1.5 15.75 L 1.5 16.125 L 3.75 16.125 C 4.164062 16.125 4.5 16.460938 4.5 16.875 L 4.5 16.5 C 4.5 16.085938 4.164062 15.75 3.75 15.75 Z M 6 15.75 C 5.585938 15.75 5.25 16.085938 5.25 16.5 L 5.25 16.875 C 5.25 16.460938 5.585938 16.125 6 16.125 L 18 16.125 C 18.414062 16.125 18.75 16.460938 18.75 16.875 L 18.75 16.5 C 18.75 16.085938 18.414062 15.75 18 15.75 Z M 20.25 15.75 C 19.835938 15.75 19.5 16.085938 19.5 16.5 L 19.5 16.875 C 19.5 16.460938 19.835938 16.125 20.25 16.125 L 22.5 16.125 L 22.5 15.75 Z M 20.25 15.75 "/>
<path style=" stroke:none;fill-rule:nonzero;fill:rgb(0%,0%,0%);fill-opacity:0.4;" d="M 1.699219 22.125 C 1.574219 21.90625 1.5 21.648438 1.5 21.375 L 1.5 21 C 1.5 21.273438 1.574219 21.53125 1.699219 21.75 L 3.75 21.75 C 4.164062 21.75 4.5 21.414062 4.5 21 L 4.5 21.375 C 4.5 21.789062 4.164062 22.125 3.75 22.125 Z M 6 22.125 C 5.585938 22.125 5.25 21.789062 5.25 21.375 L 5.25 21 C 5.25 21.414062 5.585938 21.75 6 21.75 L 18 21.75 C 18.414062 21.75 18.75 21.414062 18.75 21 L 18.75 21.375 C 18.75 21.789062 18.414062 22.125 18 22.125 Z M 20.25 22.125 C 19.835938 22.125 19.5 21.789062 19.5 21.375 L 19.5 21 C 19.5 21.414062 19.835938 21.75 20.25 21.75 L 22.300781 21.75 C 22.425781 21.53125 22.5 21.273438 22.5 21 L 22.5 21.375 C 22.5 21.648438 22.425781 21.90625 22.300781 22.125 Z M 1.5 15.375 L 1.5 15 L 10.875 15 C 11.289062 15 11.625 14.664062 11.625 14.25 L 11.625 14.625 C 11.625 15.039062 11.289062 15.375 10.875 15.375 Z M 13.125 15.375 C 12.710938 15.375 12.375 15.039062 12.375 14.625 L 12.375 14.25 C 12.375 14.664062 12.710938 15 13.125 15 L 22.5 15 L 22.5 15.375 Z M 1.5 8.625 L 1.5 8.25 L 3.75 8.25 C 4.164062 8.25 4.5 7.914062 4.5 7.5 L 4.5 7.875 C 4.5 8.289062 4.164062 8.625 3.75 8.625 Z M 6 8.625 C 5.585938 8.625 5.25 8.289062 5.25 7.875 L 5.25 7.5 C 5.25 7.914062 5.585938 8.25 6 8.25 L 18 8.25 C 18.414062 8.25 18.75 7.914062 18.75 7.5 L 18.75 7.875 C 18.75 8.289062 18.414062 8.625 18 8.625 Z M 20.25 8.625 C 19.835938 8.625 19.5 8.289062 19.5 7.875 L 19.5 7.5 C 19.5 7.914062 19.835938 8.25 20.25 8.25 L 22.5 8.25 L 22.5 8.625 Z M 20.25 8.625 "/>
<path style=" stroke:none;fill-rule:nonzero;fill:url(#linear0);" d="M 3 1.5 L 21 1.5 C 21.828125 1.5 22.5 2.171875 22.5 3 L 22.5 21 C 22.5 21.828125 21.828125 22.5 21 22.5 L 3 22.5 C 2.171875 22.5 1.5 21.828125 1.5 21 L 1.5 3 C 1.5 2.171875 2.171875 1.5 3 1.5 Z M 3 1.5 "/>
</g>
</svg>
