
<svg xmlns="http://www.w3.org/2000/svg" xmlns:xlink="http://www.w3.org/1999/xlink" width="24" height="24" viewBox="0 0 24 24" version="1.1">
<defs>
<linearGradient id="linear0" gradientUnits="userSpaceOnUse" x1="8.466666" y1="-199.125" x2="8.466666" y2="-213.941666" gradientTransform="matrix(1.417323,0,0,1.417323,0,304.724425)">
<stop offset="0" style="stop-color:rgb(0%,0%,0%);stop-opacity:0.2;"/>
<stop offset="1" style="stop-color:rgb(100%,100%,100%);stop-opacity:0;"/>
</linearGradient>
</defs>
<g id="surface1">
<path style=" stroke:none;fill-rule:nonzero;fill:rgb(87.843138%,87.843138%,87.843138%);fill-opacity:1;" d="M 3 1.5 L 21 1.5 C 21.828125 1.5 22.5 2.171875 22.5 3 L 22.5 21 C 22.5 21.828125 21.828125 22.5 21 22.5 L 3 22.5 C 2.171875 22.5 1.5 21.828125 1.5 21 L 1.5 3 C 1.5 2.171875 2.171875 1.5 3 1.5 Z M 3 1.5 "/>
<path style=" stroke:none;fill-rule:nonzero;fill:rgb(25.882354%,64.705884%,96.078432%);fill-opacity:1;" d="M 3 2.25 L 21 2.25 C 21.414062 2.25 21.75 2.585938 21.75 3 L 21.75 21 C 21.75 21.414062 21.414062 21.75 21 21.75 L 3 21.75 C 2.585938 21.75 2.25 21.414062 2.25 21 L 2.25 3 C 2.25 2.585938 2.585938 2.25 3 2.25 Z M 3 2.25 "/>
<path style=" stroke:none;fill-rule:nonzero;fill:rgb(38.039216%,38.039216%,38.039216%);fill-opacity:0.996078;" d="M 12 4.503906 C 7.667969 4.5 7.128906 8.289062 7.128906 10.996094 L 7.128906 14.785156 C 7.128906 17.484375 9.300781 19.65625 12 19.65625 C 14.699219 19.65625 16.871094 17.484375 16.871094 14.785156 L 16.871094 10.996094 C 16.871094 8.289062 16.332031 4.5 12 4.503906 Z M 12 4.503906 "/>
<path style=" stroke:none;fill-rule:nonzero;fill:rgb(0%,0%,0%);fill-opacity:0.4;" d="M 11.863281 4.5 L 11.863281 6.125 L 12.136719 6.125 L 12.136719 4.5 Z M 11.863281 4.5 "/>
<path style=" stroke:none;fill-rule:nonzero;fill:rgb(100%,100%,100%);fill-opacity:0.4;" d="M 12 4.503906 C 7.667969 4.5 7.128906 8.289062 7.128906 10.996094 L 7.128906 11.179688 C 7.128906 8.472656 7.667969 4.683594 12 4.6875 C 16.332031 4.683594 16.871094 8.472656 16.871094 11.179688 L 16.871094 10.996094 C 16.871094 8.289062 16.332031 4.5 12 4.503906 Z M 12 4.503906 "/>
<path style=" stroke:none;fill-rule:nonzero;fill:rgb(0%,0%,0%);fill-opacity:0.4;" d="M 7.128906 14.523438 L 7.128906 14.785156 C 7.128906 17.484375 9.300781 19.65625 12 19.65625 C 14.699219 19.65625 16.871094 17.484375 16.871094 14.785156 L 16.871094 14.523438 C 16.871094 17.222656 14.699219 19.394531 12 19.394531 C 9.300781 19.394531 7.128906 17.222656 7.128906 14.523438 Z M 7.128906 14.523438 "/>
<path style=" stroke:none;fill-rule:nonzero;fill:rgb(0%,0%,0%);fill-opacity:0.2;" d="M 7.128906 14.785156 L 7.128906 15.191406 C 7.128906 17.890625 9.300781 20.0625 12 20.0625 C 14.699219 20.0625 16.871094 17.890625 16.871094 15.191406 L 16.871094 14.785156 C 16.871094 17.484375 14.699219 19.65625 12 19.65625 C 9.300781 19.65625 7.128906 17.484375 7.128906 14.785156 Z M 7.128906 14.785156 "/>
<path style=" stroke:none;fill-rule:nonzero;fill:rgb(0%,0%,0%);fill-opacity:0.4;" d="M 11.457031 6.125 L 12.542969 6.125 C 12.839844 6.125 13.082031 6.367188 13.082031 6.664062 L 13.082031 9.914062 C 13.082031 10.210938 12.839844 10.453125 12.542969 10.453125 L 11.457031 10.453125 C 11.160156 10.453125 10.917969 10.210938 10.917969 9.914062 L 10.917969 6.664062 C 10.917969 6.367188 11.160156 6.125 11.457031 6.125 Z M 11.457031 6.125 "/>
<path style=" stroke:none;fill-rule:nonzero;fill:rgb(0%,0%,0%);fill-opacity:0.4;" d="M 11.457031 6.125 C 11.160156 6.125 10.917969 6.367188 10.917969 6.664062 L 10.917969 6.9375 C 10.917969 6.636719 11.160156 6.394531 11.457031 6.394531 L 12.542969 6.394531 C 12.839844 6.394531 13.082031 6.636719 13.082031 6.9375 L 13.082031 6.664062 C 13.082031 6.367188 12.839844 6.125 12.542969 6.125 Z M 11.457031 6.125 "/>
<path style=" stroke:none;fill-rule:nonzero;fill:rgb(100%,100%,100%);fill-opacity:0.4;" d="M 11.457031 10.726562 C 11.160156 10.726562 10.917969 10.484375 10.917969 10.183594 L 10.917969 9.914062 C 10.917969 10.214844 11.160156 10.453125 11.457031 10.453125 L 12.542969 10.453125 C 12.839844 10.453125 13.082031 10.214844 13.082031 9.914062 L 13.082031 10.183594 C 13.082031 10.484375 12.839844 10.726562 12.542969 10.726562 Z M 11.457031 10.726562 "/>
<path style=" stroke:none;fill-rule:nonzero;fill:rgb(61.960787%,61.960787%,61.960787%);fill-opacity:1;" d="M 11.59375 6.53125 L 12.40625 6.53125 C 12.628906 6.53125 12.8125 6.710938 12.8125 6.9375 L 12.8125 9.777344 C 12.8125 10 12.628906 10.183594 12.40625 10.183594 L 11.59375 10.183594 C 11.371094 10.183594 11.1875 10 11.1875 9.777344 L 11.1875 6.9375 C 11.1875 6.710938 11.371094 6.53125 11.59375 6.53125 Z M 11.59375 6.53125 "/>
<path style=" stroke:none;fill-rule:nonzero;fill:rgb(74.117649%,74.117649%,74.117649%);fill-opacity:1;" d="M 11.457031 6.808594 L 12.542969 6.808594 C 12.617188 6.808594 12.675781 6.867188 12.675781 6.941406 L 12.675781 7.078125 C 12.675781 7.152344 12.617188 7.214844 12.542969 7.214844 L 11.457031 7.214844 C 11.382812 7.214844 11.324219 7.152344 11.324219 7.078125 L 11.324219 6.941406 C 11.324219 6.867188 11.382812 6.808594 11.457031 6.808594 Z M 11.457031 6.808594 "/>
<path style=" stroke:none;fill-rule:nonzero;fill:rgb(100%,100%,100%);fill-opacity:0.4;" d="M 11.453125 6.808594 C 11.378906 6.8125 11.324219 6.871094 11.324219 6.941406 L 11.324219 7.070312 C 11.328125 7 11.386719 6.941406 11.457031 6.941406 L 12.542969 6.941406 C 12.613281 6.941406 12.671875 7 12.675781 7.070312 L 12.675781 6.941406 C 12.675781 6.867188 12.617188 6.808594 12.542969 6.808594 L 11.457031 6.808594 C 11.457031 6.808594 11.453125 6.808594 11.453125 6.808594 Z M 11.453125 6.808594 "/>
<path style=" stroke:none;fill-rule:nonzero;fill:rgb(0%,0%,0%);fill-opacity:0.4;" d="M 11.324219 7.085938 L 11.324219 7.214844 C 11.324219 7.289062 11.382812 7.347656 11.457031 7.347656 L 12.542969 7.347656 C 12.617188 7.347656 12.675781 7.289062 12.675781 7.214844 L 12.675781 7.085938 C 12.671875 7.15625 12.613281 7.214844 12.542969 7.214844 L 11.457031 7.214844 C 11.386719 7.214844 11.328125 7.15625 11.324219 7.085938 Z M 11.324219 7.085938 "/>
<path style=" stroke:none;fill-rule:nonzero;fill:rgb(74.117649%,74.117649%,74.117649%);fill-opacity:1;" d="M 11.457031 7.625 L 12.542969 7.625 C 12.617188 7.625 12.675781 7.6875 12.675781 7.761719 L 12.675781 7.898438 C 12.675781 7.972656 12.617188 8.03125 12.542969 8.03125 L 11.457031 8.03125 C 11.382812 8.03125 11.324219 7.972656 11.324219 7.898438 L 11.324219 7.761719 C 11.324219 7.6875 11.382812 7.625 11.457031 7.625 Z M 11.457031 7.625 "/>
<path style=" stroke:none;fill-rule:nonzero;fill:rgb(100%,100%,100%);fill-opacity:0.4;" d="M 11.453125 7.625 C 11.378906 7.628906 11.324219 7.6875 11.324219 7.761719 L 11.324219 7.890625 C 11.328125 7.816406 11.386719 7.761719 11.457031 7.761719 L 12.542969 7.761719 C 12.613281 7.761719 12.671875 7.816406 12.675781 7.890625 L 12.675781 7.761719 C 12.675781 7.6875 12.617188 7.625 12.542969 7.625 L 11.457031 7.625 C 11.457031 7.625 11.453125 7.625 11.453125 7.625 Z M 11.453125 7.625 "/>
<path style=" stroke:none;fill-rule:nonzero;fill:rgb(0%,0%,0%);fill-opacity:0.4;" d="M 11.324219 7.902344 L 11.324219 8.03125 C 11.324219 8.105469 11.382812 8.167969 11.457031 8.167969 L 12.542969 8.167969 C 12.617188 8.167969 12.675781 8.105469 12.675781 8.03125 L 12.675781 7.902344 C 12.671875 7.976562 12.613281 8.03125 12.542969 8.03125 L 11.457031 8.03125 C 11.386719 8.03125 11.328125 7.976562 11.324219 7.902344 Z M 11.324219 7.902344 "/>
<path style=" stroke:none;fill-rule:nonzero;fill:rgb(74.117649%,74.117649%,74.117649%);fill-opacity:1;" d="M 11.457031 8.429688 L 12.542969 8.429688 C 12.617188 8.429688 12.675781 8.492188 12.675781 8.566406 L 12.675781 8.703125 C 12.675781 8.777344 12.617188 8.835938 12.542969 8.835938 L 11.457031 8.835938 C 11.382812 8.835938 11.324219 8.777344 11.324219 8.703125 L 11.324219 8.566406 C 11.324219 8.492188 11.382812 8.429688 11.457031 8.429688 Z M 11.457031 8.429688 "/>
<path style=" stroke:none;fill-rule:nonzero;fill:rgb(100%,100%,100%);fill-opacity:0.4;" d="M 11.453125 8.429688 C 11.378906 8.433594 11.324219 8.492188 11.324219 8.566406 L 11.324219 8.695312 C 11.328125 8.625 11.386719 8.566406 11.457031 8.566406 L 12.542969 8.566406 C 12.613281 8.566406 12.671875 8.625 12.675781 8.695312 L 12.675781 8.566406 C 12.675781 8.492188 12.617188 8.429688 12.542969 8.429688 L 11.457031 8.429688 C 11.457031 8.429688 11.453125 8.429688 11.453125 8.429688 Z M 11.453125 8.429688 "/>
<path style=" stroke:none;fill-rule:nonzero;fill:rgb(0%,0%,0%);fill-opacity:0.4;" d="M 11.324219 8.707031 L 11.324219 8.835938 C 11.324219 8.914062 11.382812 8.972656 11.457031 8.972656 L 12.542969 8.972656 C 12.617188 8.972656 12.675781 8.914062 12.675781 8.835938 L 12.675781 8.707031 C 12.671875 8.78125 12.613281 8.835938 12.542969 8.835938 L 11.457031 8.835938 C 11.386719 8.835938 11.328125 8.78125 11.324219 8.707031 Z M 11.324219 8.707031 "/>
<path style=" stroke:none;fill-rule:nonzero;fill:rgb(74.117649%,74.117649%,74.117649%);fill-opacity:1;" d="M 11.457031 9.257812 L 12.542969 9.257812 C 12.617188 9.257812 12.675781 9.316406 12.675781 9.390625 L 12.675781 9.527344 C 12.675781 9.601562 12.617188 9.664062 12.542969 9.664062 L 11.457031 9.664062 C 11.382812 9.664062 11.324219 9.601562 11.324219 9.527344 L 11.324219 9.390625 C 11.324219 9.316406 11.382812 9.257812 11.457031 9.257812 Z M 11.457031 9.257812 "/>
<path style=" stroke:none;fill-rule:nonzero;fill:rgb(100%,100%,100%);fill-opacity:0.4;" d="M 11.453125 9.257812 C 11.378906 9.261719 11.324219 9.320312 11.324219 9.390625 L 11.324219 9.519531 C 11.328125 9.449219 11.386719 9.390625 11.457031 9.390625 L 12.542969 9.390625 C 12.613281 9.390625 12.671875 9.449219 12.675781 9.519531 L 12.675781 9.390625 C 12.675781 9.316406 12.617188 9.257812 12.542969 9.257812 L 11.457031 9.257812 C 11.457031 9.257812 11.453125 9.257812 11.453125 9.257812 Z M 11.453125 9.257812 "/>
<path style=" stroke:none;fill-rule:nonzero;fill:rgb(0%,0%,0%);fill-opacity:0.4;" d="M 11.324219 9.535156 L 11.324219 9.664062 C 11.324219 9.738281 11.382812 9.796875 11.457031 9.796875 L 12.542969 9.796875 C 12.617188 9.796875 12.675781 9.738281 12.675781 9.664062 L 12.675781 9.535156 C 12.671875 9.605469 12.613281 9.664062 12.542969 9.664062 L 11.457031 9.664062 C 11.386719 9.664062 11.328125 9.605469 11.324219 9.535156 Z M 11.324219 9.535156 "/>
<path style=" stroke:none;fill-rule:nonzero;fill:rgb(0%,0%,0%);fill-opacity:0.2;" d="M 11.863281 10.726562 L 11.863281 11.941406 L 12.136719 11.941406 L 12.136719 10.726562 Z M 11.863281 10.726562 "/>
<path style=" stroke:none;fill-rule:nonzero;fill:rgb(0%,0%,0%);fill-opacity:0.4;" d="M 7.128906 11.941406 L 7.128906 12.078125 L 16.871094 12.078125 L 16.871094 11.941406 Z M 7.128906 11.941406 "/>
<path style=" stroke:none;fill-rule:nonzero;fill:rgb(0%,0%,0%);fill-opacity:0.2;" d="M 7.128906 12.078125 L 7.128906 12.214844 L 16.871094 12.214844 L 16.871094 12.078125 Z M 7.128906 12.078125 "/>
<path style=" stroke:none;fill-rule:nonzero;fill:rgb(100%,100%,100%);fill-opacity:0.4;" d="M 7.128906 12.214844 L 7.128906 12.347656 L 16.871094 12.347656 L 16.871094 12.214844 Z M 7.128906 12.214844 "/>
<path style=" stroke:none;fill-rule:nonzero;fill:rgb(0%,0%,0%);fill-opacity:0.4;" d="M 11.863281 10.726562 L 11.863281 11.941406 L 12.136719 11.941406 L 12.136719 10.726562 Z M 11.863281 10.726562 "/>
<path style=" stroke:none;fill-rule:nonzero;fill:rgb(100%,79.215688%,15.686275%);fill-opacity:0.996078;" d="M 7.128906 12.347656 L 7.128906 14.515625 L 7.667969 14.515625 C 7.96875 14.515625 8.210938 14.273438 8.210938 13.972656 L 8.210938 12.347656 Z M 7.128906 12.347656 "/>
<path style=" stroke:none;fill-rule:nonzero;fill:rgb(100%,79.215688%,15.686275%);fill-opacity:0.996078;" d="M 16.871094 12.347656 L 16.871094 14.515625 L 16.332031 14.515625 C 16.03125 14.515625 15.789062 14.273438 15.789062 13.972656 L 15.789062 12.347656 Z M 16.871094 12.347656 "/>
<path style=" stroke:none;fill-rule:nonzero;fill:rgb(100%,79.215688%,15.686275%);fill-opacity:0.996078;" d="M 7.128906 11.941406 L 7.128906 9.777344 L 7.667969 9.777344 C 7.96875 9.777344 8.210938 10.019531 8.210938 10.320312 L 8.210938 11.941406 Z M 7.128906 11.941406 "/>
<path style=" stroke:none;fill-rule:nonzero;fill:rgb(100%,79.215688%,15.686275%);fill-opacity:0.996078;" d="M 16.871094 11.941406 L 16.871094 9.777344 L 16.332031 9.777344 C 16.03125 9.777344 15.789062 10.019531 15.789062 10.320312 L 15.789062 11.941406 Z M 16.871094 11.941406 "/>
<path style=" stroke:none;fill-rule:nonzero;fill:rgb(0%,0%,0%);fill-opacity:0.4;" d="M 7.128906 9.777344 L 7.128906 9.914062 L 7.667969 9.914062 C 7.96875 9.914062 8.210938 10.15625 8.210938 10.453125 L 8.210938 10.320312 C 8.210938 10.019531 7.96875 9.777344 7.667969 9.777344 Z M 16.316406 9.777344 C 16.023438 9.785156 15.789062 10.023438 15.789062 10.320312 L 15.789062 10.453125 C 15.789062 10.160156 16.023438 9.921875 16.316406 9.914062 C 16.320312 9.914062 16.324219 9.914062 16.332031 9.914062 L 16.871094 9.914062 L 16.871094 9.777344 L 16.332031 9.777344 C 16.324219 9.777344 16.320312 9.777344 16.316406 9.777344 Z M 7.128906 12.347656 L 7.128906 12.484375 L 8.210938 12.484375 L 8.210938 12.347656 Z M 15.789062 12.347656 L 15.789062 12.484375 L 16.871094 12.484375 L 16.871094 12.347656 Z M 15.789062 12.347656 "/>
<path style=" stroke:none;fill-rule:nonzero;fill:rgb(99.607843%,99.607843%,99.607843%);fill-opacity:0.4;" d="M 7.128906 14.648438 L 7.128906 14.515625 L 7.667969 14.515625 C 7.96875 14.515625 8.210938 14.273438 8.210938 13.972656 L 8.210938 14.109375 C 8.210938 14.40625 7.96875 14.648438 7.667969 14.648438 Z M 16.316406 14.648438 C 16.023438 14.640625 15.789062 14.402344 15.789062 14.109375 L 15.789062 13.972656 C 15.789062 14.269531 16.023438 14.507812 16.316406 14.515625 C 16.320312 14.515625 16.324219 14.515625 16.332031 14.515625 L 16.871094 14.515625 L 16.871094 14.648438 L 16.332031 14.648438 C 16.324219 14.648438 16.320312 14.648438 16.316406 14.648438 Z M 7.128906 12.078125 L 7.128906 11.941406 L 8.210938 11.941406 L 8.210938 12.078125 Z M 15.789062 12.078125 L 15.789062 11.941406 L 16.871094 11.941406 L 16.871094 12.078125 Z M 15.789062 12.078125 "/>
<path style=" stroke:none;fill-rule:nonzero;fill:rgb(99.607843%,99.607843%,99.607843%);fill-opacity:0.4;" d="M 3 1.5 C 2.167969 1.5 1.5 2.167969 1.5 3 L 1.5 3.363281 C 1.5 2.535156 2.167969 1.863281 3 1.863281 L 21 1.863281 C 21.832031 1.863281 22.5 2.535156 22.5 3.363281 L 22.5 3 C 22.5 2.167969 21.832031 1.5 21 1.5 Z M 3 1.5 "/>
<path style=" stroke:none;fill-rule:nonzero;fill:rgb(4.705882%,4.705882%,4.705882%);fill-opacity:0.4;" d="M 3 22.488281 C 2.167969 22.488281 1.5 21.820312 1.5 20.988281 L 1.5 20.625 C 1.5 21.457031 2.167969 22.125 3 22.125 L 21 22.125 C 21.832031 22.125 22.5 21.457031 22.5 20.625 L 22.5 20.988281 C 22.5 21.820312 21.832031 22.488281 21 22.488281 Z M 3 22.488281 "/>
<path style=" stroke:none;fill-rule:nonzero;fill:url(#linear0);" d="M 3 1.5 L 21 1.5 C 21.828125 1.5 22.5 2.171875 22.5 3 L 22.5 21 C 22.5 21.828125 21.828125 22.5 21 22.5 L 3 22.5 C 2.171875 22.5 1.5 21.828125 1.5 21 L 1.5 3 C 1.5 2.171875 2.171875 1.5 3 1.5 Z M 3 1.5 "/>
</g>
</svg>
