
<svg xmlns="http://www.w3.org/2000/svg" xmlns:xlink="http://www.w3.org/1999/xlink" width="64" height="64" viewBox="0 0 64 64" version="1.1">
<defs>
<linearGradient id="linear0" gradientUnits="userSpaceOnUse" x1="10.054166" y1="-209.708328" x2="10.054166" y2="-212.883331" gradientTransform="matrix(3.779528,0,0,3.779528,0,812.598468)">
<stop offset="0" style="stop-color:rgb(0%,0%,0%);stop-opacity:0.2;"/>
<stop offset="1" style="stop-color:rgb(100%,100%,100%);stop-opacity:0;"/>
</linearGradient>
<linearGradient id="linear1" gradientUnits="userSpaceOnUse" x1="8.995832" y1="-200.183334" x2="8.995832" y2="-211.824997" gradientTransform="matrix(3.779528,0,0,3.779528,0,812.598468)">
<stop offset="0" style="stop-color:rgb(0%,0%,0%);stop-opacity:0.2;"/>
<stop offset="1" style="stop-color:rgb(100%,100%,100%);stop-opacity:0;"/>
</linearGradient>
</defs>
<g id="surface1">
<path style=" stroke:none;fill-rule:nonzero;fill:rgb(40.392157%,22.745098%,71.764708%);fill-opacity:1;" d="M 20 8 L 56 8 C 58.210938 8 60 9.789062 60 12 L 60 24 C 60 26.210938 58.210938 28 56 28 L 20 28 C 17.789062 28 16 26.210938 16 24 L 16 12 C 16 9.789062 17.789062 8 20 8 Z M 20 8 "/>
<path style=" stroke:none;fill-rule:nonzero;fill:url(#linear0);" d="M 20 8 L 56 8 C 58.210938 8 60 9.789062 60 12 L 60 24 C 60 26.210938 58.210938 28 56 28 L 20 28 C 17.789062 28 16 26.210938 16 24 L 16 12 C 16 9.789062 17.789062 8 20 8 Z M 20 8 "/>
<path style=" stroke:none;fill-rule:nonzero;fill:rgb(49.411765%,34.117648%,76.078433%);fill-opacity:1;" d="M 8 12 C 5.785156 12 4 13.785156 4 16 L 4 52 C 4 54.214844 5.785156 56 8 56 L 56 56 C 58.214844 56 60 54.214844 60 52 L 60 20 L 20 20 C 17.785156 20 16 18.214844 16 16 L 16 12 Z M 8 12 "/>
<path style=" stroke:none;fill-rule:nonzero;fill:rgb(49.411765%,34.117648%,76.078433%);fill-opacity:1;" d="M 8 12 C 5.785156 12 4 13.785156 4 16 L 4 52 C 4 54.214844 5.785156 56 8 56 L 56 56 C 58.214844 56 60 54.214844 60 52 L 60 20 L 20 20 C 17.785156 20 16 18.214844 16 16 L 16 12 Z M 8 12 "/>
<path style=" stroke:none;fill-rule:nonzero;fill:rgb(0.392157%,0.392157%,0.392157%);fill-opacity:0.4;" d="M 8 55.992188 C 5.785156 55.992188 4 54.207031 4 51.992188 L 4 51.023438 C 4 53.238281 5.785156 55.023438 8 55.023438 L 56 55.023438 C 58.214844 55.023438 60 53.238281 60 51.023438 L 60 51.992188 C 60 54.207031 58.214844 55.992188 56 55.992188 Z M 8 55.992188 "/>
<path style=" stroke:none;fill-rule:nonzero;fill:rgb(0%,0%,0%);fill-opacity:0.2;" d="M 4 52 L 4 53.5 C 4 55.714844 5.785156 57.5 8 57.5 L 56 57.5 C 58.214844 57.5 60 55.714844 60 53.5 L 60 52 C 60 54.214844 58.214844 56 56 56 L 8 56 C 5.785156 56 4 54.214844 4 52 Z M 4 52 "/>
<path style=" stroke:none;fill-rule:nonzero;fill:rgb(100%,100%,100%);fill-opacity:0.4;" d="M 8 12 C 5.785156 12 4 13.785156 4 16 L 4 17 C 4 14.785156 5.785156 13 8 13 L 16 13 L 16 12 Z M 16 16 L 16 17 C 16 19.214844 17.785156 21 20 21 L 60 21 L 60 20 L 20 20 C 17.785156 20 16 18.214844 16 16 Z M 16 16 "/>
<path style=" stroke:none;fill-rule:nonzero;fill:rgb(100%,100%,100%);fill-opacity:0.4;" d="M 20 8 C 17.785156 8 16 9.785156 16 12 L 16 12.5 C 16 10.285156 17.785156 8.5 20 8.5 L 56 8.5 C 58.214844 8.5 60 10.285156 60 12.5 L 60 12 C 60 9.785156 58.214844 8 56 8 Z M 20 8 "/>
<path style=" stroke:none;fill-rule:nonzero;fill:rgb(70.19608%,61.56863%,85.882354%);fill-opacity:1;" d="M 38 26 L 38 45.5 C 38 45.777344 37.777344 46 37.5 46 L 35.5 46 C 35.222656 46 35 45.777344 35 45.5 L 35 38 L 32.457031 38 L 27.984375 45.75 C 27.84375 45.988281 27.539062 46.070312 27.300781 45.933594 L 26.433594 45.433594 C 26.195312 45.296875 26.113281 44.988281 26.25 44.75 L 30.148438 38 L 30 38 C 27.785156 38 26 36.214844 26 34 L 26 30 C 26 27.785156 27.785156 26 30 26 Z M 35 28 L 30 28 C 28.890625 28 28 28.890625 28 30 L 28 34 C 28 35.109375 28.890625 36 30 36 L 35 36 Z M 35 28 "/>
<path style=" stroke:none;fill-rule:nonzero;fill:rgb(100%,100%,100%);fill-opacity:0.4;" d="M 38 26 L 38 26.5 L 30 26.5 C 27.785156 26.5 26 28.285156 26 30.5 L 26 30 C 26 27.785156 27.785156 26 30 26 Z M 28 34 C 28 35.109375 28.890625 36 30 36 L 35 36 L 35 36.5 L 30 36.5 C 28.890625 36.5 28 35.609375 28 34.5 Z M 29.863281 38.496094 C 29.90625 38.496094 29.953125 38.5 30 38.5 L 30.148438 38.5 L 26.25 45.246094 C 26.167969 45.097656 26.15625 44.910156 26.25 44.75 Z M 29.863281 38.496094 "/>
<path style=" stroke:none;fill-rule:nonzero;fill:rgb(0.392157%,0.392157%,0.392157%);fill-opacity:0.4;" d="M 35 28 L 35 28.5 L 30 28.5 C 28.890625 28.5 28 29.390625 28 30.5 L 28 30 C 28 28.890625 28.890625 28 30 28 Z M 26 34 C 26 36.214844 27.785156 38 30 38 L 30.148438 38 L 29.863281 38.496094 C 27.710938 38.421875 26 36.667969 26 34.5 Z M 35 38 L 35 38.5 L 32.457031 38.5 L 27.984375 46.25 C 27.84375 46.488281 27.539062 46.570312 27.300781 46.433594 L 26.433594 45.933594 C 26.195312 45.796875 26.113281 45.488281 26.25 45.25 C 26.292969 45.324219 26.355469 45.386719 26.433594 45.433594 L 27.300781 45.933594 C 27.539062 46.070312 27.84375 45.988281 27.984375 45.75 L 32.457031 38 Z M 38 45.5 L 38 46 C 38 46.277344 37.777344 46.5 37.5 46.5 L 35.5 46.5 C 35.222656 46.5 35 46.277344 35 46 L 35 45.5 C 35 45.777344 35.222656 46 35.5 46 L 37.5 46 C 37.777344 46 38 45.777344 38 45.5 Z M 38 45.5 "/>
<path style=" stroke:none;fill-rule:nonzero;fill:url(#linear1);" d="M 8 12 C 5.785156 12 4 13.785156 4 16 L 4 52 C 4 54.214844 5.785156 56 8 56 L 56 56 C 58.214844 56 60 54.214844 60 52 L 60 20 L 20 20 C 17.785156 20 16 18.214844 16 16 L 16 12 Z M 8 12 "/>
</g>
</svg>
