
<svg xmlns="http://www.w3.org/2000/svg" xmlns:xlink="http://www.w3.org/1999/xlink" width="32" height="32" viewBox="0 0 32 32" version="1.1">
<defs>
<linearGradient id="linear0" gradientUnits="userSpaceOnUse" x1="38" y1="59.999996" x2="38" y2="3.999999" gradientTransform="matrix(0.5,0,0,0.5,0,0)">
<stop offset="0" style="stop-color:rgb(0%,0%,0%);stop-opacity:0.2;"/>
<stop offset="1" style="stop-color:rgb(100%,100%,100%);stop-opacity:0;"/>
</linearGradient>
</defs>
<g id="surface1">
<path style=" stroke:none;fill-rule:nonzero;fill:rgb(12.941177%,58.823532%,95.294118%);fill-opacity:1;" d="M 11 23 L 19.449219 28.070312 C 19.730469 28.238281 20.078125 28.226562 20.347656 28.042969 C 20.617188 27.859375 20.757812 27.539062 20.703125 27.214844 L 20 23 Z M 11 23 "/>
<path style=" stroke:none;fill-rule:nonzero;fill:rgb(0%,0%,0%);fill-opacity:0.4;" d="M 11 23 L 19.449219 28.070312 C 19.726562 28.238281 20.078125 28.226562 20.347656 28.046875 C 20.617188 27.863281 20.757812 27.542969 20.703125 27.21875 C 20.660156 27.496094 20.484375 27.730469 20.234375 27.847656 C 19.980469 27.96875 19.6875 27.953125 19.449219 27.808594 L 11.433594 23 Z M 11 23 "/>
<path style=" stroke:none;fill-rule:nonzero;fill:rgb(12.941177%,58.823532%,95.294118%);fill-opacity:1;" d="M 11 9 L 19.449219 3.929688 C 19.730469 3.761719 20.078125 3.773438 20.347656 3.957031 C 20.617188 4.140625 20.757812 4.460938 20.703125 4.785156 L 20 9 Z M 11 9 "/>
<path style=" stroke:none;fill-rule:nonzero;fill:rgb(100%,100%,100%);fill-opacity:0.4;" d="M 19.902344 3.8125 C 19.742188 3.808594 19.585938 3.847656 19.449219 3.929688 L 11 9 L 11.441406 9 L 19.449219 4.195312 C 19.6875 4.054688 19.980469 4.039062 20.230469 4.15625 C 20.484375 4.273438 20.660156 4.507812 20.703125 4.78125 C 20.742188 4.546875 20.675781 4.300781 20.523438 4.117188 C 20.371094 3.929688 20.144531 3.820312 19.902344 3.8125 Z M 19.902344 3.8125 "/>
<path style=" stroke:none;fill-rule:nonzero;fill:rgb(39.215687%,70.980394%,96.470588%);fill-opacity:1;" d="M 29.839844 6 C 29.648438 6.003906 29.363281 6.144531 29 6.433594 C 27.625 7.535156 25.632812 9.09375 23.652344 10.640625 C 21.46875 8.429688 17.964844 7 14 7 C 7.351562 7 2 11.015625 2 16 C 2 20.984375 7.351562 25 14 25 C 17.9375 25 21.421875 23.589844 23.605469 21.40625 L 28.960938 25.613281 C 29.183594 25.789062 29.5 25.796875 29.730469 25.628906 C 29.960938 25.460938 30.054688 25.160156 29.957031 24.890625 L 27.492188 18.109375 C 26.996094 16.746094 26.996094 15.253906 27.492188 13.890625 L 29.957031 7.109375 C 30.222656 6.378906 30.160156 5.996094 29.839844 6 Z M 29.839844 6 "/>
<path style=" stroke:none;fill-rule:nonzero;fill:rgb(25.882354%,64.705884%,96.078432%);fill-opacity:1;" d="M 2 16 C 2 20.984375 7.351562 25 14 25 C 17.9375 25 21.421875 23.589844 23.605469 21.40625 L 28.960938 25.613281 C 29.464844 26.011719 30.175781 25.496094 29.957031 24.890625 L 27.492188 18.109375 C 27.246094 17.433594 27.117188 16.71875 27.117188 16 C 17.949219 19.636719 10.046875 17.496094 2 16 Z M 2 16 "/>
<path style=" stroke:none;fill-rule:nonzero;fill:rgb(56.470591%,79.215688%,97.647059%);fill-opacity:1;" d="M 10.394531 7.410156 C 5.519531 8.554688 2 11.957031 2 16 C 2 20.042969 5.519531 23.445312 10.394531 24.589844 C 12.621094 22.414062 14 19.375 14 16 C 14 12.625 12.621094 9.585938 10.394531 7.410156 Z M 10.394531 7.410156 "/>
<path style=" stroke:none;fill-rule:nonzero;fill:rgb(100%,65.490198%,14.901961%);fill-opacity:1;" d="M 7 12 C 8.105469 12 9 12.894531 9 14 C 9 15.105469 8.105469 16 7 16 C 5.894531 16 5 15.105469 5 14 C 5 12.894531 5.894531 12 7 12 Z M 7 12 "/>
<path style=" stroke:none;fill-rule:nonzero;fill:rgb(38.039216%,38.039216%,38.039216%);fill-opacity:1;" d="M 6.5 13 C 7.050781 13 7.5 13.449219 7.5 14 C 7.5 14.550781 7.050781 15 6.5 15 C 5.949219 15 5.5 14.550781 5.5 14 C 5.5 13.449219 5.949219 13 6.5 13 Z M 6.5 13 "/>
<path style=" stroke:none;fill-rule:nonzero;fill:rgb(61.960787%,61.960787%,61.960787%);fill-opacity:1;" d="M 6.125 13.25 C 6.332031 13.25 6.5 13.417969 6.5 13.625 C 6.5 13.832031 6.332031 14 6.125 14 C 5.917969 14 5.75 13.832031 5.75 13.625 C 5.75 13.417969 5.917969 13.25 6.125 13.25 Z M 6.125 13.25 "/>
<path style=" stroke:none;fill-rule:nonzero;fill:rgb(100%,100%,100%);fill-opacity:0.4;" d="M 29.839844 6 C 29.648438 6.003906 29.363281 6.144531 29 6.433594 C 27.625 7.535156 25.632812 9.09375 23.652344 10.640625 C 21.46875 8.429688 17.964844 7 14 7 C 7.351562 7 2 11.015625 2 16 C 2 16.066406 2.003906 16.132812 2.007812 16.199219 C 2.207031 11.347656 7.480469 7.484375 14 7.484375 C 17.964844 7.484375 21.46875 8.914062 23.652344 11.125 C 25.632812 9.582031 27.625 8.023438 29 6.921875 C 29.363281 6.628906 29.648438 6.488281 29.839844 6.484375 C 29.960938 6.484375 30.046875 6.539062 30.089844 6.648438 C 30.175781 6.222656 30.082031 5.996094 29.839844 6 Z M 27.132812 16.136719 C 27.082031 16.972656 27.207031 17.808594 27.492188 18.59375 L 29.941406 25.335938 C 30 25.195312 30.003906 25.035156 29.957031 24.890625 L 27.492188 18.109375 C 27.265625 17.472656 27.140625 16.808594 27.132812 16.136719 Z M 27.132812 16.136719 "/>
<path style=" stroke:none;fill-rule:nonzero;fill:rgb(0%,0%,0%);fill-opacity:0.4;" d="M 30.085938 6.164062 C 30.0625 6.292969 30.019531 6.441406 29.957031 6.609375 L 27.492188 13.398438 C 27.203125 14.183594 27.082031 15.019531 27.132812 15.859375 C 27.144531 15.1875 27.265625 14.523438 27.492188 13.890625 L 29.957031 7.109375 C 30.121094 6.65625 30.160156 6.339844 30.085938 6.164062 Z M 2.007812 15.796875 C 2.003906 15.863281 2 15.929688 2 16 C 2 20.984375 7.351562 25 14 25 C 17.9375 25 21.421875 23.589844 23.605469 21.40625 L 28.960938 25.613281 C 29.183594 25.789062 29.5 25.796875 29.730469 25.628906 C 29.960938 25.460938 30.054688 25.160156 29.957031 24.890625 L 29.945312 24.859375 C 29.867188 25.042969 29.710938 25.179688 29.515625 25.230469 C 29.324219 25.28125 29.117188 25.242188 28.960938 25.117188 L 23.605469 20.910156 C 21.421875 23.09375 17.9375 24.503906 14 24.503906 C 7.480469 24.503906 2.210938 20.644531 2.007812 15.796875 Z M 2.007812 15.796875 "/>
<path style=" stroke:none;fill-rule:nonzero;fill:rgb(0%,0%,0%);fill-opacity:0.2;" d="M 20.125 23.738281 C 18.425781 24.5 16.457031 24.957031 14.34375 25.007812 L 15.109375 25.464844 C 16.964844 25.335938 18.691406 24.886719 20.199219 24.199219 Z M 20.125 23.738281 "/>
<path style=" stroke:none;fill-rule:nonzero;fill:rgb(100%,100%,100%);fill-opacity:0.4;" d="M 7 12 C 5.890625 12 5 12.890625 5 14 C 5 14.042969 5 14.082031 5.003906 14.125 C 5.066406 13.074219 5.933594 12.25 7 12.25 C 8.066406 12.25 8.933594 13.074219 8.996094 14.125 C 9 14.082031 9 14.042969 9 14 C 9 12.890625 8.109375 12 7 12 Z M 7 12 "/>
<path style=" stroke:none;fill-rule:nonzero;fill:rgb(0.392157%,0.392157%,0.392157%);fill-opacity:0.4;" d="M 7 16.25 C 5.890625 16.25 5 15.359375 5 14.25 C 5 14.207031 5 14.167969 5.003906 14.125 C 5.066406 15.175781 5.933594 16 7 16 C 8.066406 16 8.933594 15.175781 8.996094 14.125 C 9 14.167969 9 14.207031 9 14.25 C 9 15.359375 8.109375 16.25 7 16.25 Z M 7 16.25 "/>
<path style=" stroke:none;fill-rule:nonzero;fill:rgb(16.078432%,71.372551%,96.470588%);fill-opacity:0.992157;" d="M 6 6 C 6.550781 6 7 6.449219 7 7 C 7 7.550781 6.550781 8 6 8 C 5.449219 8 5 7.550781 5 7 C 5 6.449219 5.449219 6 6 6 Z M 6 6 "/>
<path style=" stroke:none;fill-rule:nonzero;fill:rgb(16.078432%,71.372551%,96.470588%);fill-opacity:0.992157;" d="M 10 2 C 11.105469 2 12 2.894531 12 4 C 12 5.105469 11.105469 6 10 6 C 8.894531 6 8 5.105469 8 4 C 8 2.894531 8.894531 2 10 2 Z M 10 2 "/>
<path style=" stroke:none;fill-rule:nonzero;fill:rgb(50.588238%,83.137256%,98.039216%);fill-opacity:0.992157;" d="M 9.5 2.5 C 9.914062 2.5 10.25 2.835938 10.25 3.25 C 10.25 3.664062 9.914062 4 9.5 4 C 9.085938 4 8.75 3.664062 8.75 3.25 C 8.75 2.835938 9.085938 2.5 9.5 2.5 Z M 9.5 2.5 "/>
<path style=" stroke:none;fill-rule:nonzero;fill:rgb(50.588238%,83.137256%,98.039216%);fill-opacity:0.992157;" d="M 5.625 6.25 C 5.832031 6.25 6 6.417969 6 6.625 C 6 6.832031 5.832031 7 5.625 7 C 5.417969 7 5.25 6.832031 5.25 6.625 C 5.25 6.417969 5.417969 6.25 5.625 6.25 Z M 5.625 6.25 "/>
<path style=" stroke:none;fill-rule:nonzero;fill:url(#linear0);" d="M 10 2 C 8.890625 2 8 2.890625 8 4 C 8 5.109375 8.890625 6 10 6 C 11.109375 6 12 5.109375 12 4 C 12 2.890625 11.109375 2 10 2 Z M 19.902344 3.8125 C 19.742188 3.808594 19.585938 3.847656 19.449219 3.929688 L 14.320312 7.007812 C 14.214844 7.003906 14.109375 7 14 7 C 7.351562 7 2 11.015625 2 16 C 2 20.984375 7.351562 25 14 25 C 14.109375 25 14.214844 24.996094 14.320312 24.992188 L 19.449219 28.070312 C 19.730469 28.238281 20.078125 28.226562 20.347656 28.042969 C 20.617188 27.859375 20.757812 27.539062 20.703125 27.214844 L 20.125 23.746094 C 21.480469 23.144531 22.664062 22.347656 23.605469 21.40625 L 28.960938 25.613281 C 29.183594 25.789062 29.5 25.796875 29.730469 25.628906 C 29.960938 25.460938 30.054688 25.160156 29.957031 24.890625 L 27.492188 18.109375 C 26.996094 16.746094 26.996094 15.253906 27.492188 13.890625 L 29.957031 7.109375 C 30.222656 6.378906 30.160156 5.996094 29.839844 6 C 29.648438 6.003906 29.363281 6.144531 29 6.433594 C 27.625 7.535156 25.632812 9.09375 23.652344 10.640625 C 22.703125 9.675781 21.503906 8.863281 20.125 8.25 L 20.703125 4.785156 C 20.742188 4.546875 20.679688 4.300781 20.523438 4.117188 C 20.371094 3.929688 20.144531 3.820312 19.902344 3.8125 Z M 5.972656 6 C 5.433594 6.011719 5 6.453125 5 7 C 5 7.554688 5.445312 8 6 8 C 6.554688 8 7 7.554688 7 7 C 7 6.445312 6.554688 6 6 6 C 5.992188 6 5.980469 6 5.972656 6 Z M 5.972656 6 "/>
</g>
</svg>
