
<svg xmlns="http://www.w3.org/2000/svg" xmlns:xlink="http://www.w3.org/1999/xlink" width="32" height="32" viewBox="0 0 32 32" version="1.1">
<defs>
<linearGradient id="linear0" gradientUnits="userSpaceOnUse" x1="32" y1="59.999996" x2="32" y2="4" gradientTransform="matrix(-0.5,0,0,0.5,31.999802,0)">
<stop offset="0" style="stop-color:rgb(0%,0%,0%);stop-opacity:0.2;"/>
<stop offset="1" style="stop-color:rgb(100%,100%,100%);stop-opacity:0;"/>
</linearGradient>
</defs>
<g id="surface1">
<path style=" stroke:none;fill-rule:nonzero;fill:rgb(40.000001%,73.333335%,41.568628%);fill-opacity:1;" d="M 29.410156 11.667969 C 30.773438 14.027344 29.675781 16.0625 27.117188 17.539062 C 24.558594 19.015625 20.886719 16.589844 16 16 C 17.933594 11.472656 17.667969 7.078125 20.226562 5.601562 C 22.785156 4.125 25.09375 4.191406 26.457031 6.550781 C 27.011719 7.511719 27.207031 8.578125 27.085938 9.597656 C 28.03125 10.003906 28.855469 10.707031 29.410156 11.667969 Z M 29.410156 11.667969 "/>
<path style=" stroke:none;fill-rule:nonzero;fill:rgb(40.000001%,73.333335%,41.568628%);fill-opacity:1;" d="M 5.542969 25.449219 C 6.90625 27.808594 9.214844 27.875 11.773438 26.398438 C 14.332031 24.921875 14.066406 20.527344 16 16 C 11.113281 15.410156 7.441406 12.984375 4.882812 14.460938 C 2.324219 15.9375 1.226562 17.972656 2.589844 20.332031 C 3.144531 21.292969 3.96875 21.996094 4.914062 22.402344 C 4.792969 23.421875 4.988281 24.488281 5.542969 25.449219 Z M 5.542969 25.449219 "/>
<path style=" stroke:none;fill-rule:nonzero;fill:rgb(40.000001%,73.333335%,41.568628%);fill-opacity:1;" d="M 11.667969 2.589844 C 14.027344 1.226562 16.0625 2.324219 17.539062 4.882812 C 19.015625 7.441406 16.589844 11.113281 16 16 C 11.472656 14.066406 7.078125 14.332031 5.601562 11.773438 C 4.125 9.214844 4.191406 6.90625 6.550781 5.542969 C 7.511719 4.988281 8.578125 4.792969 9.597656 4.914062 C 10.003906 3.96875 10.707031 3.144531 11.667969 2.589844 Z M 11.667969 2.589844 "/>
<path style=" stroke:none;fill-rule:nonzero;fill:rgb(40.000001%,73.333335%,41.568628%);fill-opacity:1;" d="M 25.449219 26.457031 C 27.808594 25.09375 27.875 22.785156 26.398438 20.226562 C 24.921875 17.667969 20.527344 17.933594 16 16 C 15.410156 20.886719 12.984375 24.558594 14.460938 27.117188 C 15.9375 29.675781 17.972656 30.773438 20.332031 29.410156 C 21.292969 28.855469 21.996094 28.03125 22.402344 27.085938 C 23.417969 27.207031 24.488281 27.011719 25.449219 26.457031 Z M 25.449219 26.457031 "/>
<path style=" stroke:none;fill-rule:nonzero;fill:rgb(100%,100%,100%);fill-opacity:0.4;" d="M 23.382812 4.613281 C 24.625 4.621094 25.691406 5.222656 26.457031 6.550781 C 26.953125 7.40625 27.160156 8.347656 27.113281 9.265625 C 27.074219 8.511719 26.863281 7.753906 26.457031 7.050781 C 25.09375 4.691406 22.785156 4.628906 20.226562 6.105469 C 17.757812 7.527344 17.917969 11.671875 16.195312 16.023438 C 16.128906 16.015625 16.066406 16.007812 16 16 C 17.933594 11.472656 17.667969 7.078125 20.226562 5.601562 C 21.347656 4.957031 22.417969 4.605469 23.382812 4.613281 Z M 27.117188 9.613281 C 28.050781 10.019531 28.863281 10.71875 29.410156 11.667969 C 29.863281 12.453125 30.046875 13.203125 29.988281 13.910156 C 29.945312 13.351562 29.757812 12.769531 29.410156 12.167969 C 28.855469 11.207031 28.03125 10.503906 27.085938 10.101562 C 27.105469 9.9375 27.117188 9.777344 27.117188 9.613281 Z M 27.117188 9.613281 "/>
<path style=" stroke:none;fill-rule:nonzero;fill:rgb(100%,100%,100%);fill-opacity:0.4;" d="M 6.863281 13.992188 C 9.226562 14.023438 12.257812 15.550781 16 16 C 15.933594 16.160156 15.867188 16.316406 15.804688 16.476562 C 11.015625 15.847656 7.40625 13.507812 4.882812 14.964844 C 3.175781 15.949219 2.121094 17.179688 2.007812 18.59375 C 1.882812 16.96875 2.976562 15.5625 4.882812 14.460938 C 5.480469 14.117188 6.140625 13.984375 6.863281 13.992188 Z M 4.878906 22.886719 C 4.890625 22.890625 4.902344 22.898438 4.914062 22.902344 C 4.898438 23.015625 4.890625 23.125 4.886719 23.238281 C 4.878906 23.121094 4.878906 23.003906 4.878906 22.886719 Z M 4.878906 22.886719 "/>
<path style=" stroke:none;fill-rule:nonzero;fill:rgb(100%,100%,100%);fill-opacity:0.4;" d="M 13.675781 2 C 15.1875 2.007812 16.5 3.082031 17.539062 4.882812 C 17.914062 5.53125 18.035156 6.253906 18 7.050781 C 17.972656 6.449219 17.832031 5.894531 17.539062 5.382812 C 16.0625 2.828125 14.027344 1.726562 11.667969 3.089844 C 10.707031 3.644531 10.003906 4.472656 9.597656 5.414062 C 8.582031 5.292969 7.511719 5.488281 6.550781 6.042969 C 5.304688 6.761719 4.699219 7.746094 4.621094 8.890625 C 4.539062 7.53125 5.125 6.363281 6.550781 5.542969 C 7.511719 4.988281 8.582031 4.792969 9.597656 4.914062 C 10.003906 3.96875 10.707031 3.144531 11.667969 2.589844 C 12.367188 2.183594 13.039062 1.996094 13.675781 2 Z M 13.675781 2 "/>
<path style=" stroke:none;fill-rule:nonzero;fill:rgb(100%,100%,100%);fill-opacity:0.4;" d="M 16 16 C 20.527344 17.933594 24.921875 17.671875 26.398438 20.226562 C 27.09375 21.433594 27.445312 22.585938 27.378906 23.609375 C 27.324219 22.71875 26.984375 21.742188 26.398438 20.730469 C 24.921875 18.171875 20.527344 18.433594 16 16.5 C 15.5625 20.144531 14.101562 23.113281 14 25.449219 C 13.882812 23.042969 15.527344 19.910156 16 16 Z M 16 16 "/>
<path style=" stroke:none;fill-rule:nonzero;fill:rgb(0%,0%,0%);fill-opacity:0.4;" d="M 27.113281 8.765625 C 27.121094 8.882812 27.121094 9 27.117188 9.117188 C 27.109375 9.113281 27.097656 9.105469 27.085938 9.101562 C 27.101562 8.988281 27.109375 8.878906 27.113281 8.765625 Z M 29.992188 13.410156 C 30.117188 15.03125 29.019531 16.4375 27.117188 17.539062 C 24.558594 19.015625 20.886719 16.589844 16 16 C 16.066406 15.84375 16.132812 15.683594 16.191406 15.527344 C 20.984375 16.15625 24.59375 18.5 27.117188 17.042969 C 28.824219 16.054688 29.882812 14.824219 29.992188 13.410156 Z M 29.992188 13.410156 "/>
<path style=" stroke:none;fill-rule:nonzero;fill:rgb(0%,0%,0%);fill-opacity:0.4;" d="M 15.804688 15.976562 C 15.871094 15.984375 15.933594 15.992188 16 16 C 14.066406 20.527344 14.328125 24.921875 11.773438 26.398438 C 9.214844 27.875 6.90625 27.808594 5.542969 25.449219 C 5.046875 24.59375 4.839844 23.652344 4.886719 22.738281 C 4.925781 23.492188 5.136719 24.25 5.542969 24.949219 C 6.90625 27.3125 9.214844 27.375 11.773438 25.898438 C 14.242188 24.476562 14.082031 20.332031 15.804688 15.976562 Z M 2.007812 18.09375 C 2.050781 18.648438 2.238281 19.230469 2.589844 19.835938 C 3.144531 20.796875 3.96875 21.5 4.914062 21.902344 C 4.894531 22.0625 4.882812 22.222656 4.878906 22.386719 C 3.949219 21.980469 3.136719 21.28125 2.589844 20.332031 C 2.136719 19.546875 1.953125 18.796875 2.007812 18.09375 Z M 2.007812 18.09375 "/>
<path style=" stroke:none;fill-rule:nonzero;fill:rgb(0%,0%,0%);fill-opacity:0.4;" d="M 18 6.550781 C 18.117188 8.957031 16.472656 12.089844 16 16 C 11.472656 14.066406 7.078125 14.328125 5.601562 11.773438 C 4.90625 10.566406 4.554688 9.414062 4.621094 8.390625 C 4.675781 9.285156 5.015625 10.261719 5.601562 11.273438 C 7.078125 13.832031 11.472656 13.570312 16 15.503906 C 16.4375 11.859375 17.898438 8.886719 18 6.550781 Z M 18 6.550781 "/>
<path style=" stroke:none;fill-rule:nonzero;fill:rgb(0%,0%,0%);fill-opacity:0.4;" d="M 27.378906 23.109375 C 27.457031 24.46875 26.871094 25.636719 25.449219 26.457031 C 24.488281 27.011719 23.417969 27.210938 22.398438 27.085938 C 21.996094 28.03125 21.292969 28.855469 20.332031 29.410156 C 17.972656 30.773438 15.9375 29.675781 14.460938 27.117188 C 14.085938 26.46875 13.964844 25.746094 14 24.953125 C 14.027344 25.550781 14.167969 26.109375 14.460938 26.621094 C 15.9375 29.175781 17.972656 30.277344 20.332031 28.914062 C 21.292969 28.359375 21.996094 27.535156 22.398438 26.589844 C 23.417969 26.710938 24.488281 26.515625 25.449219 25.960938 C 26.695312 25.242188 27.300781 24.257812 27.378906 23.109375 Z M 27.378906 23.109375 "/>
<path style=" stroke:none;fill-rule:nonzero;fill:rgb(100%,100%,100%);fill-opacity:0.101961;" d="M 13.675781 2 C 15.1875 2.007812 16.5 3.082031 17.539062 4.882812 C 19.015625 7.4375 16.589844 11.113281 16 16 C 11.472656 14.066406 7.078125 14.328125 5.601562 11.773438 C 4.125 9.214844 4.191406 6.90625 6.550781 5.542969 C 7.511719 4.988281 8.582031 4.792969 9.597656 4.914062 C 10.003906 3.96875 10.707031 3.144531 11.667969 2.589844 C 12.367188 2.183594 13.039062 1.996094 13.675781 2 Z M 16 16 C 15.578125 16.988281 15.265625 17.964844 15 18.910156 C 11.601562 20.496094 7.890625 21.519531 3.972656 21.867188 C 3.425781 21.472656 2.949219 20.957031 2.589844 20.332031 C 1.226562 17.972656 2.324219 15.9375 4.882812 14.460938 C 7.4375 12.984375 11.113281 15.410156 16 16 Z M 16 16 C 16.890625 16.382812 17.777344 16.675781 18.636719 16.925781 C 17.628906 17.5625 16.582031 18.144531 15.5 18.671875 C 15.707031 17.824219 15.886719 16.933594 16 16 Z M 16 16 C 17.933594 11.472656 17.667969 7.078125 20.226562 5.601562 C 22.785156 4.125 25.09375 4.191406 26.457031 6.550781 C 26.945312 7.394531 27.15625 8.316406 27.117188 9.214844 C 24.882812 12.105469 22.179688 14.605469 19.117188 16.613281 C 18.136719 16.359375 17.101562 16.132812 16 16 Z M 16 16 "/>
<path style=" stroke:none;fill-rule:nonzero;fill:url(#linear0);" d="M 13.675781 2 C 15.1875 2.007812 16.5 3.082031 17.539062 4.882812 C 19.015625 7.4375 16.589844 11.113281 16 16 C 11.472656 14.066406 7.078125 14.328125 5.601562 11.773438 C 4.125 9.214844 4.191406 6.90625 6.550781 5.542969 C 7.511719 4.988281 8.582031 4.792969 9.597656 4.914062 C 10.003906 3.96875 10.707031 3.144531 11.667969 2.589844 C 12.367188 2.183594 13.039062 1.996094 13.675781 2 Z M 16 16 C 14.066406 20.527344 14.328125 24.921875 11.773438 26.398438 C 9.214844 27.875 6.90625 27.808594 5.542969 25.449219 C 4.988281 24.488281 4.789062 23.417969 4.914062 22.402344 C 3.96875 21.996094 3.144531 21.292969 2.589844 20.332031 C 1.226562 17.972656 2.324219 15.9375 4.882812 14.460938 C 7.4375 12.984375 11.113281 15.410156 16 16 Z M 16 16 C 20.527344 17.933594 24.921875 17.671875 26.398438 20.226562 C 27.875 22.785156 27.808594 25.09375 25.449219 26.457031 C 24.488281 27.011719 23.417969 27.210938 22.398438 27.085938 C 21.996094 28.03125 21.292969 28.855469 20.332031 29.410156 C 17.972656 30.773438 15.9375 29.675781 14.460938 27.117188 C 12.984375 24.5625 15.410156 20.886719 16 16 Z M 16 16 C 17.933594 11.472656 17.667969 7.078125 20.226562 5.601562 C 22.785156 4.125 25.09375 4.191406 26.457031 6.550781 C 27.011719 7.511719 27.207031 8.582031 27.085938 9.597656 C 28.03125 10.003906 28.855469 10.707031 29.410156 11.667969 C 30.773438 14.027344 29.675781 16.0625 27.117188 17.539062 C 24.558594 19.015625 20.886719 16.589844 16 16 Z M 16 16 "/>
<path style=" stroke:none;fill-rule:nonzero;fill:rgb(0%,0%,0%);fill-opacity:0.2;" d="M 17.992188 7.175781 C 18.15625 9.351562 16.808594 12.132812 16.183594 15.554688 C 16.125 15.703125 16.0625 15.851562 16 16 C 16.429688 12.421875 17.847656 9.492188 17.992188 7.175781 Z M 16 16 C 12.460938 15.574219 9.558594 14.183594 7.253906 14.011719 C 6.542969 13.644531 5.976562 13.175781 5.601562 12.523438 C 4.878906 11.273438 4.527344 10.082031 4.632812 9.03125 C 4.710938 9.886719 5.046875 10.8125 5.601562 11.773438 C 7.078125 14.328125 11.472656 14.066406 16 16 Z M 16 16 C 15.972656 16.238281 15.9375 16.476562 15.898438 16.710938 C 15.847656 16.6875 15.792969 16.664062 15.738281 16.644531 C 15.824219 16.429688 15.90625 16.214844 16 16 Z M 16 16 C 16.035156 16.003906 16.070312 16.007812 16.105469 16.011719 C 16.105469 16.023438 16.101562 16.03125 16.101562 16.042969 C 16.066406 16.027344 16.035156 16.015625 16 16 Z M 27.105469 9.398438 C 27.113281 9.46875 27.117188 9.542969 27.117188 9.613281 C 27.109375 9.609375 27.097656 9.605469 27.085938 9.597656 C 27.09375 9.53125 27.101562 9.464844 27.105469 9.398438 Z M 29.976562 14.039062 C 30.171875 15.710938 29.070312 17.164062 27.117188 18.289062 C 26.414062 18.695312 25.625 18.804688 24.746094 18.742188 C 22.726562 17.691406 19.542969 17.453125 16.257812 16.105469 C 16.269531 16.085938 16.277344 16.0625 16.285156 16.039062 C 21.03125 16.683594 24.609375 18.984375 27.117188 17.539062 C 28.769531 16.582031 29.8125 15.394531 29.976562 14.039062 Z M 15.714844 16.710938 C 15.773438 16.71875 15.835938 16.730469 15.894531 16.738281 C 15.871094 16.890625 15.84375 17.042969 15.816406 17.195312 C 14.082031 21.5625 14.246094 25.71875 11.773438 27.148438 C 9.214844 28.625 6.90625 28.5625 5.542969 26.199219 C 5.023438 25.300781 4.816406 24.3125 4.890625 23.355469 C 4.945312 24.070312 5.160156 24.785156 5.542969 25.449219 C 6.90625 27.808594 9.214844 27.875 11.773438 26.398438 C 14.195312 25 14.085938 20.980469 15.714844 16.710938 Z M 2.023438 18.714844 C 2.082031 19.234375 2.265625 19.773438 2.589844 20.332031 C 3.144531 21.292969 3.96875 21.996094 4.914062 22.402344 C 4.882812 22.644531 4.871094 22.890625 4.878906 23.136719 C 3.949219 22.730469 3.136719 22.035156 2.589844 21.082031 C 2.105469 20.25 1.933594 19.457031 2.023438 18.714844 Z M 27.367188 23.71875 C 27.5 25.136719 26.921875 26.359375 25.449219 27.210938 C 24.488281 27.765625 23.417969 27.960938 22.398438 27.835938 C 21.996094 28.78125 21.292969 29.605469 20.332031 30.160156 C 17.972656 31.527344 15.9375 30.425781 14.460938 27.871094 C 14.066406 27.183594 13.953125 26.421875 14.007812 25.578125 C 14.046875 26.128906 14.1875 26.644531 14.460938 27.117188 C 15.9375 29.675781 17.972656 30.773438 20.332031 29.410156 C 21.292969 28.855469 21.996094 28.03125 22.398438 27.085938 C 23.417969 27.210938 24.488281 27.011719 25.449219 26.457031 C 26.65625 25.761719 27.261719 24.816406 27.367188 23.71875 Z M 27.367188 23.71875 "/>
</g>
</svg>
