
<svg xmlns="http://www.w3.org/2000/svg" xmlns:xlink="http://www.w3.org/1999/xlink" width="48" height="48" viewBox="0 0 48 48" version="1.1">
<defs>
<linearGradient id="linear0" gradientUnits="userSpaceOnUse" x1="31.999998" y1="57.999996" x2="31.999998" y2="8" gradientTransform="matrix(0.75,0,0,0.75,-0.000000510236,0.000000000000085265)">
<stop offset="0" style="stop-color:rgb(0%,0%,0%);stop-opacity:0.2;"/>
<stop offset="1" style="stop-color:rgb(100%,100%,100%);stop-opacity:0;"/>
</linearGradient>
</defs>
<g id="surface1">
<path style=" stroke:none;fill-rule:nonzero;fill:rgb(36.078432%,41.960785%,75.294119%);fill-opacity:1;" d="M 6 6 L 42 6 C 43.65625 6 45 7.34375 45 9 L 45 39 C 45 40.65625 43.65625 42 42 42 L 6 42 C 4.34375 42 3 40.65625 3 39 L 3 9 C 3 7.34375 4.34375 6 6 6 Z M 6 6 "/>
<path style=" stroke:none;fill-rule:nonzero;fill:rgb(25.882354%,64.705884%,96.078432%);fill-opacity:1;" d="M 3.390625 7.515625 L 24 24 L 4.054688 41.285156 C 3.410156 40.734375 3 39.917969 3 39 L 3 9 C 3 8.457031 3.144531 7.953125 3.390625 7.515625 Z M 3.390625 7.515625 "/>
<path style=" stroke:none;fill-rule:nonzero;fill:rgb(47.058824%,56.470591%,61.176473%);fill-opacity:1;" d="M 24 24 L 3.949219 41.1875 C 4.484375 41.691406 5.203125 42 6 42 L 42 42 C 42.796875 42 43.515625 41.691406 44.050781 41.1875 Z M 24 24 "/>
<path style=" stroke:none;fill-rule:nonzero;fill:rgb(92.54902%,25.098041%,47.843137%);fill-opacity:1;" d="M 44.605469 7.515625 L 24 24 L 43.945312 41.285156 C 44.589844 40.734375 45 39.917969 45 39 L 45 9 C 45 8.457031 44.855469 7.953125 44.605469 7.515625 Z M 44.605469 7.515625 "/>
<path style=" stroke:none;fill-rule:nonzero;fill:rgb(0.392157%,0.392157%,0.392157%);fill-opacity:0.4;" d="M 3 38.25 L 3 39 C 3 40.660156 4.339844 42 6 42 L 42 42 C 43.660156 42 45 40.660156 45 39 L 45 38.25 C 45 39.910156 43.660156 41.25 42 41.25 L 6 41.25 C 4.339844 41.25 3 39.910156 3 38.25 Z M 3 38.25 "/>
<path style=" stroke:none;fill-rule:nonzero;fill:rgb(87.843138%,87.843138%,87.843138%);fill-opacity:1;" d="M 7.5 36 L 40.5 36 C 41.328125 36 42 36.671875 42 37.5 L 42 42 C 42 42.828125 41.328125 43.5 40.5 43.5 L 7.5 43.5 C 6.671875 43.5 6 42.828125 6 42 L 6 37.5 C 6 36.671875 6.671875 36 7.5 36 Z M 7.5 36 "/>
<path style=" stroke:none;fill-rule:nonzero;fill:rgb(87.843138%,87.843138%,87.843138%);fill-opacity:1;" d="M 6 6 C 4.339844 6 3 7.339844 3 9 L 45 9 C 45 7.339844 43.660156 6 42 6 Z M 6 6 "/>
<path style=" stroke:none;fill-rule:nonzero;fill:rgb(0%,0%,0%);fill-opacity:0.4;" d="M 3 9 L 3 9.75 L 45 9.75 L 45 9 Z M 6 41.25 L 6 42 C 6 42.832031 6.667969 43.5 7.5 43.5 L 40.5 43.5 C 41.332031 43.5 42 42.832031 42 42 L 42 41.25 C 42 42.082031 41.332031 42.75 40.5 42.75 L 7.5 42.75 C 6.667969 42.75 6 42.082031 6 41.25 Z M 6 41.25 "/>
<path style=" stroke:none;fill-rule:nonzero;fill:rgb(100%,100%,100%);fill-opacity:0.8;" d="M 6 6 C 4.339844 6 3 7.339844 3 9 L 3.09375 9 C 3.417969 7.691406 4.589844 6.730469 6 6.730469 L 42 6.730469 C 43.410156 6.730469 44.582031 7.691406 44.90625 9 L 45 9 C 45 7.339844 43.660156 6 42 6 Z M 7.5 36 C 6.667969 36 6 36.667969 6 37.5 L 6 38.230469 C 6 37.398438 6.667969 36.730469 7.5 36.730469 L 40.5 36.730469 C 41.332031 36.730469 42 37.398438 42 38.230469 L 42 37.5 C 42 36.667969 41.332031 36 40.5 36 Z M 7.5 36 "/>
<path style=" stroke:none;fill-rule:nonzero;fill:rgb(0%,0%,0%);fill-opacity:0.2;" d="M 3 39 L 3 40.125 C 3 41.789062 4.339844 43.125 6 43.125 C 6 43.957031 6.667969 44.625 7.5 44.625 L 40.5 44.625 C 41.332031 44.625 42 43.957031 42 43.125 C 43.660156 43.125 45 41.789062 45 40.125 L 45 39 C 45 40.660156 43.660156 42 42 42 C 42 42.832031 41.332031 43.5 40.5 43.5 L 7.5 43.5 C 6.667969 43.5 6 42.832031 6 42 C 4.339844 42 3 40.660156 3 39 Z M 3 39 "/>
<path style=" stroke:none;fill-rule:nonzero;fill:rgb(0.392157%,0.392157%,0.784314%);fill-opacity:0.4;" d="M 29.25 37.5 L 32.25 37.5 C 32.664062 37.5 33 37.835938 33 38.25 L 33 41.25 C 33 41.664062 32.664062 42 32.25 42 L 29.25 42 C 28.835938 42 28.5 41.664062 28.5 41.25 L 28.5 38.25 C 28.5 37.835938 28.835938 37.5 29.25 37.5 Z M 29.25 37.5 "/>
<path style=" stroke:none;fill-rule:nonzero;fill:rgb(0.392157%,0%,0.392157%);fill-opacity:0.4;" d="M 29.25 37.5 C 28.835938 37.5 28.5 37.835938 28.5 38.25 L 28.5 38.625 C 28.5 38.210938 28.835938 37.875 29.25 37.875 L 32.25 37.875 C 32.664062 37.875 33 38.210938 33 38.625 L 33 38.25 C 33 37.835938 32.664062 37.5 32.25 37.5 Z M 29.25 37.5 "/>
<path style=" stroke:none;fill-rule:nonzero;fill:rgb(99.607843%,99.607843%,100%);fill-opacity:0.4;" d="M 29.25 42.375 C 28.835938 42.375 28.5 42.039062 28.5 41.625 L 28.5 41.25 C 28.5 41.664062 28.835938 42 29.25 42 L 32.25 42 C 32.664062 42 33 41.664062 33 41.25 L 33 41.625 C 33 42.039062 32.664062 42.375 32.25 42.375 Z M 29.25 42.375 "/>
<path style=" stroke:none;fill-rule:nonzero;fill:rgb(0.392157%,0.392157%,0.784314%);fill-opacity:0.4;" d="M 35.25 37.5 L 38.25 37.5 C 38.664062 37.5 39 37.835938 39 38.25 L 39 41.25 C 39 41.664062 38.664062 42 38.25 42 L 35.25 42 C 34.835938 42 34.5 41.664062 34.5 41.25 L 34.5 38.25 C 34.5 37.835938 34.835938 37.5 35.25 37.5 Z M 35.25 37.5 "/>
<path style=" stroke:none;fill-rule:nonzero;fill:rgb(0.392157%,0%,0.392157%);fill-opacity:0.4;" d="M 35.25 37.5 C 34.835938 37.5 34.5 37.835938 34.5 38.25 L 34.5 38.625 C 34.5 38.210938 34.835938 37.875 35.25 37.875 L 38.25 37.875 C 38.664062 37.875 39 38.210938 39 38.625 L 39 38.25 C 39 37.835938 38.664062 37.5 38.25 37.5 Z M 35.25 37.5 "/>
<path style=" stroke:none;fill-rule:nonzero;fill:rgb(99.607843%,99.607843%,100%);fill-opacity:0.4;" d="M 35.25 42.375 C 34.835938 42.375 34.5 42.039062 34.5 41.625 L 34.5 41.25 C 34.5 41.664062 34.835938 42 35.25 42 L 38.25 42 C 38.664062 42 39 41.664062 39 41.25 L 39 41.625 C 39 42.039062 38.664062 42.375 38.25 42.375 Z M 35.25 42.375 "/>
<path style=" stroke:none;fill-rule:nonzero;fill:url(#linear0);" d="M 6 6 C 4.339844 6 3 7.339844 3 9 L 3 39 C 3 40.660156 4.339844 42 6 42 C 6 42.832031 6.667969 43.5 7.5 43.5 L 40.5 43.5 C 41.332031 43.5 42 42.832031 42 42 C 43.660156 42 45 40.660156 45 39 L 45 9 C 45 7.339844 43.660156 6 42 6 Z M 6 6 "/>
</g>
</svg>
