
<svg xmlns="http://www.w3.org/2000/svg" xmlns:xlink="http://www.w3.org/1999/xlink" width="48" height="48" viewBox="0 0 48 48" version="1.1">
<defs>
<linearGradient id="linear0" gradientUnits="userSpaceOnUse" x1="31.999998" y1="59.999996" x2="31.999998" y2="4" gradientTransform="matrix(0.75,0,0,0.75,0,0.000000000000085265)">
<stop offset="0" style="stop-color:rgb(0%,0%,0%);stop-opacity:0.2;"/>
<stop offset="1" style="stop-color:rgb(100%,100%,100%);stop-opacity:0;"/>
</linearGradient>
</defs>
<g id="surface1">
<path style=" stroke:none;fill-rule:nonzero;fill:rgb(36.078432%,41.960785%,75.294119%);fill-opacity:0.996078;" d="M 6 3 L 19.5 3 C 21.15625 3 22.5 4.34375 22.5 6 L 22.5 19.5 C 22.5 21.15625 21.15625 22.5 19.5 22.5 L 6 22.5 C 4.34375 22.5 3 21.15625 3 19.5 L 3 6 C 3 4.34375 4.34375 3 6 3 Z M 6 3 "/>
<path style=" stroke:none;fill-rule:nonzero;fill:rgb(25.882354%,64.705884%,96.078432%);fill-opacity:0.996078;" d="M 28.5 3 L 42 3 C 43.65625 3 45 4.34375 45 6 L 45 19.5 C 45 21.15625 43.65625 22.5 42 22.5 L 28.5 22.5 C 26.84375 22.5 25.5 21.15625 25.5 19.5 L 25.5 6 C 25.5 4.34375 26.84375 3 28.5 3 Z M 28.5 3 "/>
<path style=" stroke:none;fill-rule:nonzero;fill:rgb(25.882354%,64.705884%,96.078432%);fill-opacity:0.996078;" d="M 6 25.5 L 19.5 25.5 C 21.15625 25.5 22.5 26.84375 22.5 28.5 L 22.5 42 C 22.5 43.65625 21.15625 45 19.5 45 L 6 45 C 4.34375 45 3 43.65625 3 42 L 3 28.5 C 3 26.84375 4.34375 25.5 6 25.5 Z M 6 25.5 "/>
<path style=" stroke:none;fill-rule:nonzero;fill:rgb(36.078432%,41.960785%,75.294119%);fill-opacity:0.996078;" d="M 28.5 25.5 L 42 25.5 C 43.65625 25.5 45 26.84375 45 28.5 L 45 42 C 45 43.65625 43.65625 45 42 45 L 28.5 45 C 26.84375 45 25.5 43.65625 25.5 42 L 25.5 28.5 C 25.5 26.84375 26.84375 25.5 28.5 25.5 Z M 28.5 25.5 "/>
<path style=" stroke:none;fill-rule:nonzero;fill:rgb(100%,100%,100%);fill-opacity:0.4;" d="M 6 3 C 4.339844 3 3 4.339844 3 6 L 3 6.75 C 3 5.089844 4.339844 3.75 6 3.75 L 19.5 3.75 C 21.160156 3.75 22.5 5.089844 22.5 6.75 L 22.5 6 C 22.5 4.339844 21.160156 3 19.5 3 Z M 6 3 "/>
<path style=" stroke:none;fill-rule:nonzero;fill:rgb(0%,0%,0%);fill-opacity:0.4;" d="M 6 22.5 C 4.339844 22.5 3 21.160156 3 19.5 L 3 18.75 C 3 20.410156 4.339844 21.75 6 21.75 L 19.5 21.75 C 21.160156 21.75 22.5 20.410156 22.5 18.75 L 22.5 19.5 C 22.5 21.160156 21.160156 22.5 19.5 22.5 Z M 6 22.5 "/>
<path style=" stroke:none;fill-rule:nonzero;fill:rgb(100%,100%,100%);fill-opacity:0.4;" d="M 28.5 3 C 26.839844 3 25.5 4.339844 25.5 6 L 25.5 6.75 C 25.5 5.089844 26.839844 3.75 28.5 3.75 L 42 3.75 C 43.660156 3.75 45 5.089844 45 6.75 L 45 6 C 45 4.339844 43.660156 3 42 3 Z M 28.5 3 "/>
<path style=" stroke:none;fill-rule:nonzero;fill:rgb(0%,0%,0%);fill-opacity:0.4;" d="M 28.5 22.5 C 26.839844 22.5 25.5 21.160156 25.5 19.5 L 25.5 18.75 C 25.5 20.410156 26.839844 21.75 28.5 21.75 L 42 21.75 C 43.660156 21.75 45 20.410156 45 18.75 L 45 19.5 C 45 21.160156 43.660156 22.5 42 22.5 Z M 28.5 22.5 "/>
<path style=" stroke:none;fill-rule:nonzero;fill:rgb(100%,100%,100%);fill-opacity:0.4;" d="M 28.5 25.5 C 26.839844 25.5 25.5 26.839844 25.5 28.5 L 25.5 29.25 C 25.5 27.589844 26.839844 26.25 28.5 26.25 L 42 26.25 C 43.660156 26.25 45 27.589844 45 29.25 L 45 28.5 C 45 26.839844 43.660156 25.5 42 25.5 Z M 28.5 25.5 "/>
<path style=" stroke:none;fill-rule:nonzero;fill:rgb(0%,0%,0%);fill-opacity:0.4;" d="M 28.5 45 C 26.839844 45 25.5 43.660156 25.5 42 L 25.5 41.25 C 25.5 42.910156 26.839844 44.25 28.5 44.25 L 42 44.25 C 43.660156 44.25 45 42.910156 45 41.25 L 45 42 C 45 43.660156 43.660156 45 42 45 Z M 28.5 45 "/>
<path style=" stroke:none;fill-rule:nonzero;fill:rgb(100%,100%,100%);fill-opacity:0.4;" d="M 6 25.5 C 4.339844 25.5 3 26.839844 3 28.5 L 3 29.25 C 3 27.589844 4.339844 26.25 6 26.25 L 19.5 26.25 C 21.160156 26.25 22.5 27.589844 22.5 29.25 L 22.5 28.5 C 22.5 26.839844 21.160156 25.5 19.5 25.5 Z M 6 25.5 "/>
<path style=" stroke:none;fill-rule:nonzero;fill:rgb(0%,0%,0%);fill-opacity:0.4;" d="M 6 45 C 4.339844 45 3 43.660156 3 42 L 3 41.25 C 3 42.910156 4.339844 44.25 6 44.25 L 19.5 44.25 C 21.160156 44.25 22.5 42.910156 22.5 41.25 L 22.5 42 C 22.5 43.660156 21.160156 45 19.5 45 Z M 6 45 "/>
<path style=" stroke:none;fill-rule:nonzero;fill:url(#linear0);" d="M 6 3 C 4.339844 3 3 4.339844 3 6 L 3 19.5 C 3 21.160156 4.339844 22.5 6 22.5 L 19.5 22.5 C 21.160156 22.5 22.5 21.160156 22.5 19.5 L 22.5 6 C 22.5 4.339844 21.160156 3 19.5 3 Z M 28.5 3 C 26.839844 3 25.5 4.339844 25.5 6 L 25.5 19.5 C 25.5 21.160156 26.839844 22.5 28.5 22.5 L 42 22.5 C 43.660156 22.5 45 21.160156 45 19.5 L 45 6 C 45 4.339844 43.660156 3 42 3 Z M 6 25.5 C 4.339844 25.5 3 26.839844 3 28.5 L 3 42 C 3 43.660156 4.339844 45 6 45 L 19.5 45 C 21.160156 45 22.5 43.660156 22.5 42 L 22.5 28.5 C 22.5 26.839844 21.160156 25.5 19.5 25.5 Z M 28.5 25.5 C 26.839844 25.5 25.5 26.839844 25.5 28.5 L 25.5 42 C 25.5 43.660156 26.839844 45 28.5 45 L 42 45 C 43.660156 45 45 43.660156 45 42 L 45 28.5 C 45 26.839844 43.660156 25.5 42 25.5 Z M 28.5 25.5 "/>
<path style=" stroke:none;fill-rule:nonzero;fill:rgb(0%,0%,0%);fill-opacity:0.2;" d="M 3 19.5 L 3 20.625 C 3 22.285156 4.339844 23.625 6 23.625 L 19.5 23.625 C 21.160156 23.625 22.5 22.285156 22.5 20.625 L 22.5 19.5 C 22.5 21.160156 21.160156 22.5 19.5 22.5 L 6 22.5 C 4.339844 22.5 3 21.160156 3 19.5 Z M 25.5 19.5 L 25.5 20.625 C 25.5 22.285156 26.839844 23.625 28.5 23.625 L 42 23.625 C 43.660156 23.625 45 22.285156 45 20.625 L 45 19.5 C 45 21.160156 43.660156 22.5 42 22.5 L 28.5 22.5 C 26.839844 22.5 25.5 21.160156 25.5 19.5 Z M 3 42 L 3 43.125 C 3 44.785156 4.339844 46.125 6 46.125 L 19.5 46.125 C 21.160156 46.125 22.5 44.785156 22.5 43.125 L 22.5 42 C 22.5 43.660156 21.160156 45 19.5 45 L 6 45 C 4.339844 45 3 43.660156 3 42 Z M 25.5 42 L 25.5 43.125 C 25.5 44.785156 26.839844 46.125 28.5 46.125 L 42 46.125 C 43.660156 46.125 45 44.785156 45 43.125 L 45 42 C 45 43.660156 43.660156 45 42 45 L 28.5 45 C 26.839844 45 25.5 43.660156 25.5 42 Z M 25.5 42 "/>
</g>
</svg>
