
<svg xmlns="http://www.w3.org/2000/svg" xmlns:xlink="http://www.w3.org/1999/xlink" width="48" height="48" viewBox="0 0 48 48" version="1.1">
<defs>
<linearGradient id="linear0" gradientUnits="userSpaceOnUse" x1="8.466666" y1="-199.125" x2="8.466666" y2="-213.941666" gradientTransform="matrix(2.834646,0,0,2.834646,0,609.448851)">
<stop offset="0" style="stop-color:rgb(0%,0%,0%);stop-opacity:0.2;"/>
<stop offset="1" style="stop-color:rgb(100%,100%,100%);stop-opacity:0;"/>
</linearGradient>
</defs>
<g id="surface1">
<path style=" stroke:none;fill-rule:nonzero;fill:rgb(93.333334%,93.333334%,93.333334%);fill-opacity:1;" d="M 24 2.996094 C 35.601562 2.996094 45.003906 12.398438 45.003906 24 C 45.003906 35.597656 35.601562 45.003906 24 45.003906 C 12.398438 45.003906 2.996094 35.597656 2.996094 24 C 2.996094 12.398438 12.398438 2.996094 24 2.996094 Z M 24 2.996094 "/>
<path style=" stroke:none;fill-rule:nonzero;fill:rgb(100%,100%,100%);fill-opacity:0.6;" d="M 24 3 C 12.402344 3 3 12.402344 3 24 C 3 24.125 3.003906 24.25 3.007812 24.375 C 3.207031 12.949219 12.527344 3.75 24 3.75 C 35.472656 3.75 44.792969 12.949219 44.996094 24.375 C 44.996094 24.25 45 24.125 45 24 C 45 12.402344 35.597656 3 24 3 Z M 24 3 "/>
<path style=" stroke:none;fill-rule:nonzero;fill:rgb(0%,0%,0%);fill-opacity:0.4;" d="M 3.011719 23.621094 C 3.007812 23.742188 3 23.867188 3 23.992188 C 3 35.589844 12.402344 44.992188 24 44.992188 C 35.597656 44.992188 45 35.589844 45 23.992188 C 45 23.867188 44.992188 23.742188 44.988281 23.621094 C 44.789062 35.042969 35.472656 44.246094 24 44.246094 C 12.527344 44.246094 3.210938 35.042969 3.011719 23.621094 Z M 3.011719 23.621094 "/>
<path style=" stroke:none;fill-rule:nonzero;fill:rgb(0%,0%,0%);fill-opacity:0.2;" d="M 3.011719 24.5625 C 3.003906 24.75 3 24.9375 3 25.125 C 3 36.722656 12.402344 46.125 24 46.125 C 35.597656 46.125 45 36.722656 45 25.125 C 45 24.9375 44.996094 24.75 44.988281 24.5625 C 44.691406 35.898438 35.410156 44.996094 24 44.996094 C 12.589844 44.996094 3.308594 35.898438 3.011719 24.5625 Z M 3.011719 24.5625 "/>
<path style=" stroke:none;fill-rule:nonzero;fill:rgb(87.843138%,87.843138%,87.843138%);fill-opacity:1;" d="M 24 6 C 33.941406 6 41.996094 14.058594 41.996094 24 C 41.996094 33.9375 33.941406 41.996094 24 41.996094 C 14.058594 41.996094 6 33.9375 6 24 C 6 14.058594 14.058594 6 24 6 Z M 24 6 "/>
<path style=" stroke:none;fill-rule:nonzero;fill:rgb(38.039216%,38.039216%,38.039216%);fill-opacity:1;" d="M 24 6 C 28.140625 6 31.5 9.359375 31.5 13.5 C 31.5 17.640625 28.140625 21 24 21 C 19.859375 21 16.5 17.640625 16.5 13.5 C 16.5 9.359375 19.859375 6 24 6 Z M 24 6 "/>
<path style=" stroke:none;fill-rule:nonzero;fill:rgb(38.039216%,38.039216%,38.039216%);fill-opacity:1;" d="M 24 6 C 19.429688 6 15.75 9.679688 15.75 14.25 C 15.75 18.820312 19.429688 22.5 24 22.5 C 27.191406 22.5 29.949219 20.707031 31.320312 18.066406 C 39.390625 18.828125 42.957031 26.570312 39.75 32.625 C 39.777344 32.613281 39.804688 32.597656 39.835938 32.585938 C 41.214844 30.039062 42 27.113281 42 24 C 42 14.027344 33.972656 6 24 6 Z M 24 6 "/>
<path style=" stroke:none;fill-rule:nonzero;fill:rgb(38.039216%,38.039216%,38.039216%);fill-opacity:1;" d="M 24 6 C 19.429688 6 15.75 9.679688 15.75 14.25 C 15.75 18.820312 19.429688 22.5 24 22.5 C 27.191406 22.5 29.949219 20.707031 31.320312 18.066406 C 39.390625 18.828125 42.957031 26.570312 39.75 32.625 C 39.777344 32.613281 39.804688 32.597656 39.835938 32.585938 C 41.214844 30.039062 42 27.113281 42 24 C 42 14.027344 33.972656 6 24 6 Z M 24 6 "/>
<path style=" stroke:none;fill-rule:nonzero;fill:rgb(38.039216%,38.039216%,38.039216%);fill-opacity:1;" d="M 39.589844 33 C 41.875 29.042969 40.527344 24.015625 36.570312 21.730469 C 32.609375 19.445312 27.585938 20.792969 25.300781 24.75 C 23.703125 27.515625 23.878906 30.796875 25.476562 33.308594 C 20.78125 39.914062 12.296875 39.132812 8.65625 33.328125 C 8.652344 33.359375 8.648438 33.386719 8.644531 33.417969 C 10.164062 35.890625 12.304688 38.03125 15.003906 39.585938 C 23.636719 44.574219 34.601562 41.632812 39.589844 33 Z M 39.589844 33 "/>
<path style=" stroke:none;fill-rule:nonzero;fill:rgb(38.039216%,38.039216%,38.039216%);fill-opacity:1;" d="M 8.410156 33 C 10.695312 36.957031 15.722656 38.304688 19.679688 36.019531 C 23.640625 33.734375 24.984375 28.707031 22.699219 24.75 C 21.105469 21.988281 18.171875 20.496094 15.203125 20.625 C 11.824219 13.253906 16.746094 6.300781 23.59375 6.046875 C 23.570312 6.027344 23.542969 6.011719 23.519531 5.992188 C 20.621094 6.074219 17.695312 6.855469 15 8.414062 C 6.363281 13.398438 3.425781 24.367188 8.414062 33 Z M 8.410156 33 "/>
<path style=" stroke:none;fill-rule:nonzero;fill:rgb(0%,0%,0%);fill-opacity:0.4;" d="M 24 6 C 14.027344 6 6 14.027344 6 24 C 6 24.125 6 24.25 6.003906 24.375 C 6.203125 14.578125 14.152344 6.75 24 6.75 C 33.847656 6.75 41.796875 14.578125 41.996094 24.375 C 41.996094 24.25 42 24.125 42 24 C 42 14.027344 33.972656 6 24 6 Z M 24 6 "/>
<path style=" stroke:none;fill-rule:nonzero;fill:rgb(100%,100%,100%);fill-opacity:0.4;" d="M 24 42.75 C 14.027344 42.75 6 34.722656 6 24.75 C 6 24.625 6 24.5 6.003906 24.375 C 6.203125 34.171875 14.152344 42 24 42 C 33.847656 42 41.796875 34.171875 41.996094 24.375 C 41.996094 24.5 42 24.625 42 24.75 C 42 34.722656 33.972656 42.75 24 42.75 Z M 24 42.75 "/>
<path style=" stroke:none;fill-rule:nonzero;fill:rgb(100%,100%,100%);fill-opacity:0.4;" d="M 32.261719 20.621094 C 29.480469 20.679688 26.800781 22.152344 25.300781 24.75 C 24.480469 26.171875 24.128906 27.726562 24.195312 29.246094 C 24.253906 27.964844 24.609375 26.675781 25.300781 25.484375 C 27.585938 21.527344 32.609375 20.179688 36.566406 22.464844 C 39.105469 23.929688 40.566406 26.519531 40.691406 29.234375 C 40.820312 26.261719 39.332031 23.328125 36.566406 21.730469 C 35.207031 20.945312 33.722656 20.585938 32.261719 20.621094 Z M 8.65625 33.328125 C 8.652344 33.359375 8.648438 33.386719 8.644531 33.417969 C 9.488281 34.789062 10.519531 36.054688 11.734375 37.179688 C 15.90625 39.847656 21.832031 39.171875 25.476562 34.042969 C 25.390625 33.910156 25.3125 33.773438 25.234375 33.636719 C 20.496094 39.886719 12.234375 39.03125 8.65625 33.328125 Z M 8.65625 33.328125 "/>
<path style=" stroke:none;fill-rule:nonzero;fill:rgb(100%,100%,100%);fill-opacity:0.4;" d="M 23.519531 5.992188 C 20.621094 6.074219 17.695312 6.855469 15 8.414062 C 9.105469 11.816406 5.867188 18.007812 5.988281 24.34375 C 6.121094 18.269531 9.332031 12.421875 15 9.148438 C 16.195312 8.457031 17.4375 7.921875 18.699219 7.527344 C 20.121094 6.648438 21.792969 6.113281 23.597656 6.046875 C 23.570312 6.027344 23.542969 6.011719 23.519531 5.992188 Z M 14.117188 16.21875 C 14.0625 17.851562 14.394531 19.59375 15.203125 21.363281 C 18.171875 21.230469 21.105469 22.722656 22.699219 25.484375 C 23.386719 26.671875 23.746094 27.957031 23.804688 29.238281 C 23.871094 27.71875 23.519531 26.167969 22.699219 24.75 C 21.105469 21.988281 18.171875 20.496094 15.203125 20.625 C 14.511719 19.121094 14.171875 17.636719 14.117188 16.21875 Z M 14.117188 16.21875 "/>
<path style=" stroke:none;fill-rule:nonzero;fill:rgb(0%,0%,0%);fill-opacity:0.4;" d="M 15.761719 13.839844 C 15.753906 13.972656 15.75 14.113281 15.75 14.25 C 15.75 18.820312 19.429688 22.5 24 22.5 C 27.191406 22.5 29.949219 20.707031 31.320312 18.066406 C 37.210938 18.621094 40.699219 22.894531 40.910156 27.515625 C 41.097656 22.59375 37.558594 17.839844 31.320312 17.25 C 29.949219 19.886719 27.191406 21.683594 24 21.683594 C 19.566406 21.683594 15.96875 18.21875 15.761719 13.839844 Z M 41.988281 23.457031 C 41.957031 25.703125 41.519531 27.851562 40.738281 29.824219 C 40.554688 30.777344 40.230469 31.71875 39.75 32.625 C 39.777344 32.613281 39.804688 32.597656 39.835938 32.585938 C 41.214844 30.039062 42 27.113281 42 24 C 42 23.816406 41.996094 23.636719 41.988281 23.457031 Z M 41.988281 23.457031 "/>
<path style=" stroke:none;fill-rule:nonzero;fill:rgb(0%,0%,0%);fill-opacity:0.4;" d="M 40.6875 28.453125 C 40.625 29.726562 40.269531 31 39.589844 32.183594 C 34.601562 40.816406 23.636719 43.753906 15 38.769531 C 13.914062 38.144531 12.921875 37.417969 12.019531 36.621094 C 10.699219 35.835938 9.535156 34.730469 8.65625 33.328125 C 8.652344 33.359375 8.648438 33.386719 8.644531 33.417969 C 10.164062 35.890625 12.304688 38.03125 15 39.585938 C 23.636719 44.574219 34.601562 41.636719 39.589844 33 C 40.417969 31.566406 40.765625 29.988281 40.6875 28.453125 Z M 24.199219 28.472656 C 24.121094 30 24.472656 31.519531 25.207031 32.851562 C 25.300781 32.734375 25.386719 32.613281 25.476562 32.488281 C 24.707031 31.28125 24.269531 29.894531 24.199219 28.472656 Z M 24.199219 28.472656 "/>
<path style=" stroke:none;fill-rule:nonzero;fill:rgb(0%,0%,0%);fill-opacity:0.4;" d="M 23.519531 5.992188 C 21.816406 6.039062 20.109375 6.332031 18.441406 6.878906 C 15.710938 8.695312 13.972656 11.84375 14.121094 15.441406 C 14.320312 10.285156 18.402344 6.238281 23.597656 6.046875 C 23.570312 6.027344 23.542969 6.011719 23.519531 5.992188 Z M 5.988281 23.589844 C 5.917969 26.777344 6.695312 30.027344 8.414062 33 L 8.410156 33 C 10.695312 36.957031 15.722656 38.304688 19.683594 36.019531 C 22.464844 34.414062 23.953125 31.453125 23.800781 28.464844 C 23.667969 31.164062 22.207031 33.742188 19.683594 35.203125 C 15.722656 37.488281 10.695312 36.140625 8.410156 32.183594 L 8.414062 32.183594 C 6.84375 29.464844 6.058594 26.511719 5.988281 23.589844 Z M 5.988281 23.589844 "/>
<path style=" stroke:none;fill-rule:nonzero;fill:url(#linear0);" d="M 24 3 C 35.597656 3 45 12.402344 45 24 C 45 35.597656 35.597656 44.996094 24 44.996094 C 12.402344 44.996094 3 35.597656 3 24 C 3 12.402344 12.402344 3 24 3 Z M 24 3 "/>
</g>
</svg>
