
<svg xmlns="http://www.w3.org/2000/svg" xmlns:xlink="http://www.w3.org/1999/xlink" width="48" height="48" viewBox="0 0 48 48" version="1.1">
<defs>
<linearGradient id="linear0" gradientUnits="userSpaceOnUse" x1="8.466666" y1="-199.125" x2="8.466666" y2="-213.941666" gradientTransform="matrix(2.834646,0,0,2.834646,0,609.448851)">
<stop offset="0" style="stop-color:rgb(0%,0%,0%);stop-opacity:0.2;"/>
<stop offset="1" style="stop-color:rgb(100%,100%,100%);stop-opacity:0;"/>
</linearGradient>
</defs>
<g id="surface1">
<path style=" stroke:none;fill-rule:nonzero;fill:rgb(95.686275%,26.274511%,21.176471%);fill-opacity:1;" d="M 10.5 3 L 37.5 3 C 39.15625 3 40.5 4.34375 40.5 6 L 40.5 42 C 40.5 43.65625 39.15625 45 37.5 45 L 10.5 45 C 8.84375 45 7.5 43.65625 7.5 42 L 7.5 6 C 7.5 4.34375 8.84375 3 10.5 3 Z M 10.5 3 "/>
<path style=" stroke:none;fill-rule:nonzero;fill:rgb(93.333334%,93.333334%,93.333334%);fill-opacity:1;" d="M 10.5 3 C 10.476562 3 10.449219 3 10.425781 3 C 13.539062 10.851562 11.644531 12.882812 13.371094 15.878906 C 15.035156 18.757812 18.691406 19.734375 21.566406 18.074219 C 24.445312 16.410156 25.425781 12.757812 23.765625 9.878906 C 22.246094 7.246094 19.972656 7.410156 15.886719 3 Z M 40.5 8.78125 C 33.679688 11.21875 31.714844 9.617188 28.886719 11.25 C 26.007812 12.910156 25.027344 16.566406 26.691406 19.445312 C 28.351562 22.324219 32.007812 23.304688 34.886719 21.640625 C 37.238281 20.285156 37.359375 18.324219 40.5 15.011719 Z M 14.839844 20.191406 C 13.875 20.21875 12.898438 20.480469 12 21 C 9.964844 22.175781 9.601562 23.804688 7.5 26.371094 L 7.5 33.484375 C 13.433594 31.59375 15.332031 32.933594 18 31.390625 C 20.878906 29.730469 21.859375 26.074219 20.195312 23.195312 C 19.054688 21.214844 16.96875 20.136719 14.839844 20.191406 Z M 28.160156 23.761719 C 27.195312 23.789062 26.21875 24.050781 25.316406 24.566406 C 22.441406 26.230469 21.460938 29.886719 23.121094 32.765625 C 25.09375 36.179688 28.332031 34.875 35.164062 45 L 37.5 45 C 37.964844 45 38.402344 44.894531 38.792969 44.710938 C 32.507812 32.511719 35.570312 30.320312 33.515625 26.765625 C 32.371094 24.785156 30.285156 23.703125 28.160156 23.761719 Z M 28.160156 23.761719 "/>
<path style=" stroke:none;fill-rule:nonzero;fill:rgb(0.784314%,0.784314%,0.784314%);fill-opacity:0.4;" d="M 10.5 44.992188 C 8.839844 44.992188 7.5 43.652344 7.5 41.992188 L 7.5 41.25 C 7.5 42.910156 8.839844 44.25 10.5 44.25 L 37.5 44.25 C 39.160156 44.25 40.5 42.910156 40.5 41.25 L 40.5 41.992188 C 40.5 43.652344 39.160156 44.992188 37.5 44.992188 Z M 10.5 44.992188 "/>
<path style=" stroke:none;fill-rule:nonzero;fill:rgb(0%,0%,0%);fill-opacity:0.2;" d="M 7.5 42 L 7.5 43.125 C 7.5 44.785156 8.839844 46.125 10.5 46.125 L 37.5 46.125 C 39.160156 46.125 40.5 44.785156 40.5 43.125 L 40.5 42 C 40.5 43.660156 39.160156 45 37.5 45 L 10.5 45 C 8.839844 45 7.5 43.660156 7.5 42 Z M 7.5 42 "/>
<path style=" stroke:none;fill-rule:nonzero;fill:rgb(0%,0%,0%);fill-opacity:0.4;" d="M 10.5 3 C 10.476562 3 10.449219 3 10.425781 3 C 10.53125 3.261719 10.613281 3.5 10.707031 3.75 L 15.886719 3.75 C 19.972656 8.160156 22.246094 7.996094 23.765625 10.628906 C 24.242188 11.453125 24.503906 12.347656 24.5625 13.238281 C 24.628906 12.105469 24.378906 10.9375 23.765625 9.878906 C 22.246094 7.246094 19.972656 7.410156 15.886719 3 Z M 40.5 8.78125 C 33.679688 11.21875 31.714844 9.617188 28.886719 11.25 C 26.855469 12.421875 25.773438 14.589844 25.898438 16.777344 C 26.03125 14.855469 27.089844 13.039062 28.886719 12 C 31.714844 10.367188 33.679688 11.96875 40.5 9.53125 Z M 14.839844 20.191406 C 13.875 20.21875 12.898438 20.480469 12 21 C 9.964844 22.175781 9.601562 23.804688 7.5 26.371094 L 7.5 27.121094 C 9.601562 24.554688 9.964844 22.925781 12 21.75 C 12.898438 21.230469 13.875 20.96875 14.839844 20.941406 C 16.96875 20.886719 19.054688 21.964844 20.195312 23.945312 C 20.671875 24.773438 20.933594 25.664062 20.992188 26.554688 C 21.058594 25.421875 20.808594 24.257812 20.195312 23.195312 C 19.054688 21.214844 16.96875 20.136719 14.839844 20.191406 Z M 28.160156 23.761719 C 27.195312 23.789062 26.21875 24.050781 25.316406 24.566406 C 23.285156 25.742188 22.207031 27.90625 22.328125 30.09375 C 22.460938 28.175781 23.519531 26.355469 25.316406 25.316406 C 26.21875 24.800781 27.195312 24.535156 28.160156 24.511719 C 30.285156 24.453125 32.371094 25.535156 33.515625 27.515625 C 35.53125 31.007812 32.621094 33.191406 38.480469 44.835938 C 38.585938 44.800781 38.691406 44.757812 38.792969 44.710938 C 32.507812 32.511719 35.570312 30.320312 33.515625 26.765625 C 32.371094 24.785156 30.285156 23.703125 28.160156 23.761719 Z M 28.160156 23.761719 "/>
<path style=" stroke:none;fill-rule:nonzero;fill:rgb(100%,100%,100%);fill-opacity:0.4;" d="M 10.5 3.738281 C 10.476562 3.738281 10.449219 3.742188 10.425781 3.742188 C 13.539062 11.59375 11.644531 13.621094 13.371094 16.617188 C 15.035156 19.496094 18.691406 20.476562 21.566406 18.8125 C 23.617188 17.628906 24.703125 15.4375 24.5625 13.238281 C 24.4375 15.171875 23.378906 17.007812 21.566406 18.054688 C 18.691406 19.71875 15.035156 18.738281 13.371094 15.859375 C 11.699219 12.964844 13.417969 10.96875 10.714844 3.738281 Z M 40.5 14.996094 C 37.359375 18.308594 37.238281 20.265625 34.886719 21.625 C 32.007812 23.285156 28.351562 22.308594 26.691406 19.429688 C 26.210938 18.597656 25.953125 17.703125 25.894531 16.808594 C 25.824219 17.949219 26.074219 19.121094 26.691406 20.183594 C 28.351562 23.0625 32.007812 24.042969 34.886719 22.382812 C 37.238281 21.023438 37.359375 19.066406 40.5 15.75 Z M 20.992188 26.554688 C 20.871094 28.488281 19.8125 30.328125 18 31.375 C 15.332031 32.914062 13.433594 31.578125 7.5 33.464844 L 7.5 34.222656 C 13.433594 32.332031 15.332031 33.671875 18 32.132812 C 20.046875 30.949219 21.132812 28.757812 20.992188 26.554688 Z M 22.328125 30.128906 C 22.253906 31.265625 22.507812 32.4375 23.121094 33.503906 C 25.042969 36.832031 28.175781 35.710938 34.644531 45 L 37.5 45 C 37.84375 45 38.175781 44.941406 38.484375 44.835938 C 38.480469 44.832031 38.476562 44.824219 38.476562 44.820312 C 38.171875 44.925781 37.84375 44.984375 37.5 44.980469 L 35.164062 44.980469 C 28.332031 34.859375 25.09375 36.164062 23.121094 32.746094 C 22.644531 31.917969 22.386719 31.019531 22.328125 30.128906 Z M 22.328125 30.128906 "/>
<path style=" stroke:none;fill-rule:nonzero;fill:rgb(99.607843%,99.607843%,99.607843%);fill-opacity:0.4;" d="M 10.5 3 C 8.839844 3 7.5 4.339844 7.5 6 L 7.5 6.742188 C 7.5 5.078125 8.839844 3.742188 10.5 3.742188 L 37.5 3.742188 C 39.160156 3.742188 40.5 5.078125 40.5 6.742188 L 40.5 6 C 40.5 4.339844 39.160156 3 37.5 3 Z M 10.5 3 "/>
<path style=" stroke:none;fill-rule:nonzero;fill:url(#linear0);" d="M 10.5 3 L 37.5 3 C 39.15625 3 40.5 4.34375 40.5 6 L 40.5 42 C 40.5 43.65625 39.15625 45 37.5 45 L 10.5 45 C 8.84375 45 7.5 43.65625 7.5 42 L 7.5 6 C 7.5 4.34375 8.84375 3 10.5 3 Z M 10.5 3 "/>
</g>
</svg>
