
<svg xmlns="http://www.w3.org/2000/svg" xmlns:xlink="http://www.w3.org/1999/xlink" width="32" height="32" viewBox="0 0 32 32" version="1.1">
<defs>
<linearGradient id="linear0" gradientUnits="userSpaceOnUse" x1="31.999998" y1="60" x2="31.999998" y2="3.999999" gradientTransform="matrix(0.5,0,0,0.5,0,0)">
<stop offset="0" style="stop-color:rgb(0%,0%,0%);stop-opacity:0.2;"/>
<stop offset="1" style="stop-color:rgb(100%,100%,100%);stop-opacity:0;"/>
</linearGradient>
</defs>
<g id="surface1">
<path style=" stroke:none;fill-rule:nonzero;fill:rgb(23.137255%,59.215689%,63.529414%);fill-opacity:1;" d="M 19 4 C 18.257812 4 17.613281 4.402344 17.265625 5 L 5 5 C 3.890625 5 3 5.890625 3 7 L 3 10 C 3 11.109375 3.890625 12 5 12 L 27 12 C 28.109375 12 29 11.109375 29 10 L 29 6 C 29 4.890625 28.109375 4 27 4 Z M 19 4 "/>
<path style=" stroke:none;fill-rule:nonzero;fill:rgb(100%,100%,100%);fill-opacity:0.4;" d="M 19 4 C 18.257812 4 17.613281 4.402344 17.265625 5 L 5 5 C 3.890625 5 3 5.890625 3 7 L 3 7.039062 C 3.105469 6.03125 3.953125 5.25 4.988281 5.25 L 17.253906 5.25 C 17.601562 4.652344 18.246094 4.25 18.988281 4.25 L 26.988281 4.25 C 28.097656 4.25 28.988281 5.140625 28.988281 6.25 L 28.988281 10.210938 C 28.996094 10.140625 29 10.070312 29 10 L 29 6 C 29 4.890625 28.109375 4 27 4 Z M 19 4 "/>
<path style=" stroke:none;fill-rule:nonzero;fill:rgb(28.235295%,72.549021%,78.039217%);fill-opacity:1;" d="M 4 6 C 2.890625 6 2 6.890625 2 8 L 2 26 C 2 27.109375 2.890625 28 4 28 L 28 28 C 29.109375 28 30 27.109375 30 26 L 30 10 C 30 8.890625 29.109375 8 28 8 L 19.027344 8 C 19.019531 8 19.007812 8 19 8 C 18.445312 8 18 7.554688 18 7 C 18 6.445312 17.554688 6 17 6 Z M 4 6 "/>
<path style=" stroke:none;fill-rule:nonzero;fill:rgb(100%,100%,100%);fill-opacity:0.4;" d="M 4 6 C 2.890625 6 2 6.890625 2 8 L 2 8.5 C 2 7.390625 2.890625 6.5 4 6.5 L 17 6.5 C 17.554688 6.5 18 6.945312 18 7.5 C 18 8.054688 18.445312 8.5 19 8.5 C 19.007812 8.5 19.019531 8.5 19.027344 8.5 L 28 8.5 C 29.109375 8.5 30 9.390625 30 10.5 L 30 10 C 30 8.890625 29.109375 8 28 8 L 19.027344 8 C 19.019531 8 19.007812 8 19 8 C 18.445312 8 18 7.554688 18 7 C 18 6.445312 17.554688 6 17 6 Z M 4 6 "/>
<path style=" stroke:none;fill-rule:nonzero;fill:rgb(0%,0%,0%);fill-opacity:0.4;" d="M 2 25.5 L 2 26 C 2 27.109375 2.890625 28 4 28 L 28 28 C 29.109375 28 30 27.109375 30 26 L 30 25.5 C 30 26.609375 29.109375 27.5 28 27.5 L 4 27.5 C 2.890625 27.5 2 26.609375 2 25.5 Z M 2 25.5 "/>
<path style=" stroke:none;fill-rule:nonzero;fill:rgb(0%,0%,0%);fill-opacity:0.2;" d="M 2 26 L 2 26.75 C 2 27.859375 2.890625 28.75 4 28.75 L 28 28.75 C 29.109375 28.75 30 27.859375 30 26.75 L 30 26 C 30 27.109375 29.109375 28 28 28 L 4 28 C 2.890625 28 2 27.109375 2 26 Z M 2 26 "/>
<path style=" stroke:none;fill-rule:nonzero;fill:rgb(62.7451%,86.274511%,87.058824%);fill-opacity:1;" d="M 11.25 12.34375 L 11.25 20.214844 C 11.25 20.488281 11.433594 20.730469 11.703125 20.8125 L 15.546875 21.933594 C 15.84375 22.019531 16.15625 22.019531 16.453125 21.933594 L 20.296875 20.8125 C 20.566406 20.730469 20.75 20.488281 20.75 20.214844 L 20.75 12.34375 C 20.75 12.234375 20.695312 12.132812 20.609375 12.066406 C 20.519531 12 20.402344 11.980469 20.296875 12.011719 L 16.453125 13.136719 C 16.15625 13.222656 15.84375 13.222656 15.546875 13.136719 L 11.703125 12.011719 C 11.597656 11.980469 11.480469 12 11.390625 12.066406 C 11.304688 12.132812 11.25 12.234375 11.25 12.34375 Z M 11.25 12.34375 "/>
<path style=" stroke:none;fill-rule:nonzero;fill:rgb(99.607843%,99.607843%,99.607843%);fill-opacity:0.4;" d="M 11.613281 12 C 11.515625 11.996094 11.425781 12.03125 11.355469 12.097656 C 11.289062 12.160156 11.25 12.25 11.25 12.34375 L 11.25 12.59375 C 11.25 12.484375 11.304688 12.378906 11.390625 12.316406 C 11.480469 12.25 11.597656 12.230469 11.707031 12.261719 L 15.546875 13.386719 C 15.839844 13.472656 16.160156 13.472656 16.457031 13.386719 L 20.296875 12.261719 C 20.402344 12.230469 20.519531 12.25 20.609375 12.316406 C 20.695312 12.378906 20.75 12.484375 20.75 12.59375 L 20.75 12.34375 C 20.75 12.234375 20.695312 12.132812 20.609375 12.066406 C 20.519531 12 20.402344 11.980469 20.296875 12.011719 L 16.457031 13.136719 C 16.160156 13.222656 15.839844 13.222656 15.546875 13.136719 L 11.707031 12.011719 C 11.675781 12.003906 11.644531 12 11.613281 11.996094 Z M 11.613281 12 "/>
<path style=" stroke:none;fill-rule:nonzero;fill:rgb(0.784314%,0.784314%,0.784314%);fill-opacity:0.4;" d="M 11.25 20.21875 L 11.25 20.46875 C 11.25 20.742188 11.433594 20.984375 11.707031 21.066406 L 15.546875 22.1875 C 15.839844 22.273438 16.160156 22.273438 16.457031 22.1875 L 20.296875 21.066406 C 20.566406 20.984375 20.75 20.742188 20.75 20.46875 L 20.75 20.21875 C 20.75 20.496094 20.566406 20.738281 20.296875 20.816406 L 16.457031 21.941406 C 16.160156 22.027344 15.839844 22.027344 15.546875 21.941406 L 11.707031 20.816406 C 11.433594 20.738281 11.25 20.496094 11.25 20.21875 Z M 11.25 20.21875 "/>
<path style=" stroke:none;fill-rule:nonzero;fill:url(#linear0);" d="M 19 4 C 18.257812 4 17.613281 4.402344 17.265625 5 L 5 5 C 4.1875 5 3.488281 5.480469 3.175781 6.175781 C 2.480469 6.488281 2 7.1875 2 8 L 2 26 C 2 27.109375 2.890625 28 4 28 L 28 28 C 29.109375 28 30 27.109375 30 26 L 30 10 C 30 9.257812 29.597656 8.613281 29 8.265625 L 29 6 C 29 4.890625 28.109375 4 27 4 Z M 19 4 "/>
</g>
</svg>
