
<svg xmlns="http://www.w3.org/2000/svg" xmlns:xlink="http://www.w3.org/1999/xlink" width="16" height="16" viewBox="0 0 16 16" version="1.1">
<defs>
<linearGradient id="linear0" gradientUnits="userSpaceOnUse" x1="32" y1="59.999996" x2="32" y2="4" gradientTransform="matrix(0.25,0,0,0.25,0,0)">
<stop offset="0" style="stop-color:rgb(0%,0%,0%);stop-opacity:0.2;"/>
<stop offset="1" style="stop-color:rgb(100%,100%,100%);stop-opacity:0;"/>
</linearGradient>
</defs>
<g id="surface1">
<path style=" stroke:none;fill-rule:nonzero;fill:rgb(0%,0%,0%);fill-opacity:0.2;" d="M 3.828125 4.34375 C 3.761719 4.453125 3.753906 4.59375 3.828125 4.71875 L 4.769531 6.347656 C 4.804688 6.28125 4.835938 6.214844 4.875 6.152344 Z M 12.171875 4.34375 L 11.125 6.152344 C 11.164062 6.214844 11.195312 6.28125 11.230469 6.34375 L 12.171875 4.71875 C 12.246094 4.59375 12.238281 4.453125 12.171875 4.34375 Z M 1.050781 8.1875 C 0.941406 8.386719 1.015625 8.671875 1.28125 8.746094 L 4.609375 9.671875 C 4.65625 9.792969 4.710938 9.914062 4.769531 10.03125 L 4.875 9.847656 C 4.769531 9.671875 4.683594 9.484375 4.609375 9.292969 L 1.28125 8.367188 C 1.171875 8.335938 1.09375 8.269531 1.050781 8.1875 Z M 14.949219 8.1875 C 14.898438 8.273438 14.820312 8.339844 14.71875 8.367188 L 11.390625 9.289062 C 11.320312 9.484375 11.230469 9.671875 11.125 9.847656 L 11.230469 10.03125 C 11.289062 9.914062 11.34375 9.792969 11.390625 9.667969 L 14.71875 8.746094 C 14.886719 8.699219 15 8.550781 15 8.378906 C 15 8.308594 14.980469 8.246094 14.949219 8.1875 Z M 6.152344 11.125 L 4.339844 12.171875 C 4.195312 12.257812 4.007812 12.234375 3.886719 12.113281 C 3.863281 12.089844 3.84375 12.0625 3.828125 12.035156 L 3.828125 12.039062 C 3.742188 12.183594 3.765625 12.371094 3.886719 12.492188 C 4.007812 12.609375 4.195312 12.636719 4.339844 12.550781 L 6.152344 11.503906 C 6.328125 11.605469 6.515625 11.695312 6.707031 11.769531 L 7.632812 15.097656 C 7.738281 15.46875 8.265625 15.46875 8.367188 15.097656 L 9.292969 11.769531 C 9.488281 11.695312 9.671875 11.605469 9.847656 11.503906 L 11.660156 12.550781 C 11.808594 12.636719 11.992188 12.609375 12.113281 12.492188 C 12.234375 12.371094 12.257812 12.183594 12.171875 12.039062 L 12.171875 12.035156 C 12.15625 12.0625 12.136719 12.089844 12.113281 12.113281 C 11.992188 12.234375 11.808594 12.257812 11.660156 12.171875 L 9.847656 11.125 C 9.671875 11.230469 9.488281 11.316406 9.292969 11.390625 L 8.367188 14.71875 C 8.265625 15.089844 7.738281 15.089844 7.632812 14.71875 L 6.707031 11.390625 C 6.515625 11.316406 6.328125 11.226562 6.152344 11.125 Z M 6.152344 11.125 "/>
<path style=" stroke:none;fill-rule:nonzero;fill:rgb(10.980392%,52.941179%,89.019608%);fill-opacity:1;" d="M 8 1 C 7.828125 1 7.679688 1.117188 7.632812 1.277344 L 6.25 6.25 L 1.28125 7.632812 C 0.90625 7.738281 0.90625 8.265625 1.28125 8.367188 L 6.25 9.75 L 7.632812 14.722656 C 7.738281 15.09375 8.265625 15.09375 8.367188 14.722656 L 9.75 9.75 L 14.71875 8.367188 C 14.886719 8.320312 15 8.171875 15 8 C 15 7.828125 14.886719 7.679688 14.71875 7.632812 L 9.75 6.25 L 8.367188 1.277344 C 8.320312 1.113281 8.171875 1 8 1 Z M 8 1 "/>
<path style=" stroke:none;fill-rule:nonzero;fill:rgb(0%,0%,0%);fill-opacity:0.4;" d="M 8 15 C 7.828125 15 7.679688 14.882812 7.632812 14.722656 L 6.25 9.746094 L 1.28125 8.367188 C 1.042969 8.300781 0.957031 8.066406 1.019531 7.875 C 1.058594 7.984375 1.144531 8.078125 1.28125 8.117188 L 6.25 9.5 L 7.632812 14.472656 C 7.679688 14.632812 7.828125 14.75 8 14.75 C 8.171875 14.75 8.320312 14.636719 8.367188 14.472656 L 9.75 9.5 L 14.71875 8.117188 C 14.84375 8.082031 14.9375 7.988281 14.980469 7.875 C 14.992188 7.914062 15 7.957031 15 8 C 15 8.171875 14.886719 8.320312 14.71875 8.367188 L 9.75 9.746094 L 8.367188 14.722656 C 8.320312 14.886719 8.171875 15 8 15 Z M 8 15 "/>
<path style=" stroke:none;fill-rule:nonzero;fill:rgb(100%,100%,100%);fill-opacity:0.4;" d="M 8 1 C 7.828125 1 7.679688 1.117188 7.632812 1.277344 L 6.25 6.25 L 1.28125 7.632812 C 1.042969 7.699219 0.957031 7.933594 1.023438 8.125 C 1.058594 8.015625 1.144531 7.921875 1.28125 7.882812 L 6.25 6.5 L 7.632812 1.527344 C 7.679688 1.367188 7.828125 1.25 8 1.25 C 8.171875 1.25 8.320312 1.363281 8.367188 1.527344 L 9.75 6.5 L 14.71875 7.882812 C 14.84375 7.917969 14.9375 8.011719 14.976562 8.125 C 14.992188 8.085938 15 8.042969 15 8 C 15 7.828125 14.886719 7.679688 14.71875 7.632812 L 9.75 6.25 L 8.367188 1.277344 C 8.320312 1.113281 8.171875 1 8 1 Z M 8 1 "/>
<path style=" stroke:none;fill-rule:nonzero;fill:rgb(24.705882%,63.921571%,96.078432%);fill-opacity:1;" d="M 4.148438 3.777344 C 3.863281 3.78125 3.683594 4.089844 3.828125 4.34375 L 4.875 6.152344 C 4.554688 6.691406 4.375 7.324219 4.375 8 C 4.375 8.675781 4.554688 9.308594 4.875 9.847656 L 3.828125 11.660156 C 3.742188 11.808594 3.765625 11.992188 3.886719 12.113281 C 4.007812 12.234375 4.195312 12.257812 4.339844 12.175781 L 6.152344 11.125 C 6.691406 11.445312 7.324219 11.628906 8 11.628906 C 8.675781 11.628906 9.308594 11.445312 9.847656 11.125 L 11.660156 12.175781 C 11.808594 12.257812 11.992188 12.234375 12.113281 12.113281 C 12.234375 11.992188 12.257812 11.808594 12.171875 11.660156 L 11.125 9.847656 C 11.445312 9.308594 11.628906 8.675781 11.628906 8 C 11.628906 7.324219 11.445312 6.691406 11.125 6.152344 L 12.171875 4.34375 C 12.320312 4.089844 12.136719 3.773438 11.84375 3.777344 C 11.78125 3.777344 11.714844 3.792969 11.660156 3.828125 L 9.847656 4.875 C 9.308594 4.554688 8.675781 4.371094 8 4.371094 C 7.324219 4.371094 6.691406 4.554688 6.152344 4.875 L 4.339844 3.828125 C 4.285156 3.796875 4.226562 3.777344 4.160156 3.777344 C 4.160156 3.777344 4.152344 3.777344 4.148438 3.777344 Z M 4.148438 3.777344 "/>
<path style=" stroke:none;fill-rule:nonzero;fill:rgb(93.333334%,93.333334%,93.333334%);fill-opacity:1;" d="M 8 5.5 C 9.378906 5.5 10.5 6.621094 10.5 8 C 10.5 9.382812 9.378906 10.5 8 10.5 C 6.621094 10.5 5.5 9.382812 5.5 8 C 5.5 6.621094 6.621094 5.5 8 5.5 Z M 8 5.5 "/>
<path style=" stroke:none;fill-rule:nonzero;fill:rgb(38.039216%,38.039216%,38.039216%);fill-opacity:1;" d="M 8 6.5 C 8.828125 6.5 9.5 7.171875 9.5 8 C 9.5 8.828125 8.828125 9.5 8 9.5 C 7.171875 9.5 6.5 8.828125 6.5 8 C 6.5 7.171875 7.171875 6.5 8 6.5 Z M 8 6.5 "/>
<path style=" stroke:none;fill-rule:nonzero;fill:rgb(100%,100%,100%);fill-opacity:0.8;" d="M 8 5.5 C 6.621094 5.5 5.5 6.621094 5.5 8 C 5.5 8.042969 5.5 8.082031 5.503906 8.125 C 5.566406 6.804688 6.660156 5.75 8 5.75 C 9.339844 5.75 10.433594 6.804688 10.496094 8.125 C 10.5 8.082031 10.5 8.042969 10.5 8 C 10.5 6.621094 9.378906 5.5 8 5.5 Z M 8 5.5 "/>
<path style=" stroke:none;fill-rule:nonzero;fill:rgb(0%,0%,0%);fill-opacity:0.4;" d="M 8 6.5 C 7.171875 6.5 6.5 7.171875 6.5 8 C 6.5 8.042969 6.503906 8.082031 6.507812 8.125 C 6.570312 7.355469 7.214844 6.75 8 6.75 C 8.785156 6.75 9.429688 7.355469 9.496094 8.125 C 9.5 8.082031 9.5 8.042969 9.5 8 C 9.5 7.171875 8.828125 6.5 8 6.5 Z M 8 6.5 "/>
<path style=" stroke:none;fill-rule:nonzero;fill:rgb(100%,100%,100%);fill-opacity:0.8;" d="M 8 9.75 C 7.171875 9.75 6.5 9.078125 6.5 8.25 C 6.5 8.207031 6.503906 8.167969 6.503906 8.125 C 6.570312 8.894531 7.214844 9.5 8 9.5 C 8.785156 9.5 9.429688 8.894531 9.496094 8.125 C 9.5 8.167969 9.5 8.207031 9.5 8.25 C 9.5 9.078125 8.828125 9.75 8 9.75 Z M 8 9.75 "/>
<path style=" stroke:none;fill-rule:nonzero;fill:rgb(0%,0%,0%);fill-opacity:0.4;" d="M 8 10.75 C 6.621094 10.75 5.5 9.628906 5.5 8.25 C 5.5 8.207031 5.5 8.167969 5.503906 8.125 C 5.566406 9.445312 6.660156 10.5 8 10.5 C 9.339844 10.5 10.433594 9.445312 10.496094 8.125 C 10.5 8.167969 10.5 8.207031 10.5 8.25 C 10.5 9.628906 9.378906 10.75 8 10.75 Z M 8 10.75 "/>
<path style=" stroke:none;fill-rule:nonzero;fill:rgb(100%,100%,100%);fill-opacity:0.4;" d="M 4.148438 3.777344 C 3.886719 3.78125 3.710938 4.042969 3.796875 4.277344 C 3.847656 4.136719 3.980469 4.027344 4.148438 4.027344 C 4.152344 4.027344 4.160156 4.027344 4.164062 4.027344 C 4.226562 4.027344 4.285156 4.046875 4.339844 4.078125 L 6.152344 5.125 C 6.691406 4.804688 7.324219 4.621094 8 4.621094 C 8.675781 4.621094 9.308594 4.804688 9.847656 5.125 L 11.660156 4.078125 C 11.714844 4.042969 11.78125 4.027344 11.84375 4.027344 C 12.019531 4.027344 12.152344 4.136719 12.203125 4.28125 C 12.289062 4.039062 12.113281 3.773438 11.84375 3.777344 C 11.78125 3.777344 11.714844 3.792969 11.660156 3.828125 L 9.847656 4.875 C 9.308594 4.554688 8.675781 4.371094 8 4.371094 C 7.324219 4.371094 6.691406 4.554688 6.152344 4.875 L 4.339844 3.828125 C 4.285156 3.796875 4.226562 3.777344 4.164062 3.777344 C 4.160156 3.777344 4.152344 3.777344 4.148438 3.777344 Z M 11.195312 6.277344 L 11.125 6.402344 C 11.425781 6.910156 11.605469 7.496094 11.625 8.125 C 11.628906 8.082031 11.628906 8.042969 11.628906 8 C 11.628906 7.375 11.472656 6.789062 11.195312 6.277344 Z M 4.804688 6.28125 C 4.527344 6.789062 4.375 7.375 4.375 8 C 4.375 8.042969 4.375 8.082031 4.375 8.125 C 4.398438 7.496094 4.574219 6.910156 4.875 6.402344 Z M 4.804688 9.972656 L 3.828125 11.660156 C 3.769531 11.757812 3.761719 11.871094 3.796875 11.972656 C 3.804688 11.949219 3.816406 11.929688 3.828125 11.910156 L 4.875 10.097656 C 4.851562 10.058594 4.828125 10.015625 4.804688 9.972656 Z M 11.195312 9.972656 C 11.171875 10.015625 11.148438 10.058594 11.125 10.097656 L 12.171875 11.910156 C 12.183594 11.929688 12.195312 11.953125 12.203125 11.972656 C 12.238281 11.871094 12.230469 11.757812 12.171875 11.660156 Z M 11.195312 9.972656 "/>
<path style=" stroke:none;fill-rule:nonzero;fill:rgb(4.705882%,4.705882%,4.705882%);fill-opacity:0.4;" d="M 4.375 8.125 C 4.375 8.167969 4.375 8.207031 4.375 8.25 C 4.375 8.601562 4.421875 8.945312 4.515625 9.265625 L 4.609375 9.292969 C 4.472656 8.929688 4.390625 8.535156 4.375 8.125 Z M 11.625 8.125 C 11.613281 8.535156 11.53125 8.929688 11.390625 9.292969 L 11.484375 9.265625 C 11.578125 8.945312 11.628906 8.601562 11.628906 8.25 C 11.628906 8.207031 11.628906 8.167969 11.625 8.125 Z M 6.707031 11.390625 L 6.785156 11.667969 C 7.164062 11.804688 7.574219 11.878906 8 11.878906 C 8.425781 11.878906 8.835938 11.804688 9.214844 11.671875 L 9.292969 11.390625 C 8.890625 11.542969 8.457031 11.628906 8 11.628906 C 7.542969 11.628906 7.109375 11.542969 6.707031 11.390625 Z M 6.707031 11.390625 "/>
<path style=" stroke:none;fill-rule:nonzero;fill:url(#linear0);" d="M 8 1 C 7.828125 1 7.679688 1.117188 7.632812 1.277344 L 6.707031 4.609375 C 6.515625 4.683594 6.328125 4.769531 6.152344 4.875 L 4.339844 3.828125 C 4.285156 3.796875 4.226562 3.777344 4.164062 3.777344 C 4.160156 3.777344 4.152344 3.777344 4.148438 3.777344 C 3.863281 3.78125 3.683594 4.089844 3.828125 4.34375 L 4.875 6.152344 C 4.769531 6.328125 4.683594 6.515625 4.609375 6.707031 L 1.28125 7.632812 C 0.90625 7.738281 0.90625 8.265625 1.28125 8.367188 L 4.609375 9.292969 C 4.683594 9.488281 4.769531 9.671875 4.875 9.847656 L 3.828125 11.660156 C 3.742188 11.804688 3.765625 11.992188 3.886719 12.113281 C 4.007812 12.234375 4.195312 12.257812 4.339844 12.171875 L 6.152344 11.125 C 6.328125 11.230469 6.515625 11.320312 6.707031 11.390625 L 7.632812 14.722656 C 7.738281 15.09375 8.265625 15.09375 8.367188 14.722656 L 9.292969 11.390625 C 9.488281 11.320312 9.671875 11.230469 9.847656 11.125 L 11.660156 12.171875 C 11.808594 12.257812 11.992188 12.234375 12.113281 12.113281 C 12.234375 11.992188 12.257812 11.804688 12.171875 11.660156 L 11.125 9.847656 C 11.230469 9.671875 11.320312 9.484375 11.390625 9.292969 L 14.71875 8.367188 C 14.886719 8.320312 15 8.171875 15 8 C 15 7.828125 14.886719 7.679688 14.71875 7.632812 L 11.390625 6.707031 C 11.320312 6.515625 11.230469 6.328125 11.125 6.152344 L 12.171875 4.34375 C 12.320312 4.089844 12.136719 3.773438 11.84375 3.777344 C 11.78125 3.777344 11.714844 3.792969 11.660156 3.828125 L 9.847656 4.875 C 9.671875 4.769531 9.488281 4.679688 9.292969 4.609375 L 8.367188 1.277344 C 8.320312 1.113281 8.171875 1 8 1 Z M 8 1 "/>
</g>
</svg>
