
<svg xmlns="http://www.w3.org/2000/svg" xmlns:xlink="http://www.w3.org/1999/xlink" width="16" height="16" viewBox="0 0 16 16" version="1.1">
<defs>
<linearGradient id="linear0" gradientUnits="userSpaceOnUse" x1="31.999998" y1="55.999996" x2="31.999998" y2="8" gradientTransform="matrix(0.25,0,0,0.25,0,0)">
<stop offset="0" style="stop-color:rgb(0%,0%,0%);stop-opacity:0.2;"/>
<stop offset="1" style="stop-color:rgb(100%,100%,100%);stop-opacity:0;"/>
</linearGradient>
</defs>
<g id="surface1">
<path style=" stroke:none;fill-rule:nonzero;fill:rgb(38.039216%,38.039216%,38.039216%);fill-opacity:1;" d="M 3 2.5 L 13 2.5 C 13.550781 2.5 14 2.949219 14 3.5 L 14 12.5 C 14 13.050781 13.550781 13.5 13 13.5 L 3 13.5 C 2.449219 13.5 2 13.050781 2 12.5 L 2 3.5 C 2 2.949219 2.449219 2.5 3 2.5 Z M 3 2.5 "/>
<path style=" stroke:none;fill-rule:nonzero;fill:rgb(25.882354%,64.705884%,96.078432%);fill-opacity:1;" d="M 2 2 C 1.445312 2 1 2.445312 1 3 L 1 7.5 L 7.5 7.5 L 7.5 2 Z M 8.5 2 L 8.5 7.5 L 15 7.5 L 15 3 C 15 2.445312 14.554688 2 14 2 Z M 1 8.5 L 1 13 C 1 13.554688 1.445312 14 2 14 L 7.5 14 L 7.5 8.5 Z M 8.5 8.5 L 8.5 14 L 14 14 C 14.554688 14 15 13.554688 15 13 L 15 8.5 Z M 8.5 8.5 "/>
<path style=" stroke:none;fill-rule:nonzero;fill:rgb(100%,100%,100%);fill-opacity:0.4;" d="M 2 2 C 1.445312 2 1 2.445312 1 3 L 1 3.246094 C 1 2.691406 1.445312 2.246094 2 2.246094 L 7.5 2.246094 L 7.5 2 Z M 8.5 2 L 8.5 2.246094 L 14 2.246094 C 14.554688 2.246094 15 2.691406 15 3.246094 L 15 3 C 15 2.445312 14.554688 2 14 2 Z M 1 8.5 L 1 8.746094 L 7.5 8.746094 L 7.5 8.5 Z M 8.5 8.5 L 8.5 8.746094 L 15 8.746094 L 15 8.5 Z M 8.5 8.5 "/>
<path style=" stroke:none;fill-rule:nonzero;fill:rgb(0%,0%,0%);fill-opacity:0.4;" d="M 1 7.25 L 1 7.5 L 7.5 7.5 L 7.5 7.25 Z M 8.5 7.25 L 8.5 7.5 L 15 7.5 L 15 7.25 Z M 1 12.75 L 1 13 C 1 13.554688 1.445312 14 2 14 L 7.5 14 L 7.5 13.75 L 2 13.75 C 1.445312 13.75 1 13.304688 1 12.75 Z M 15 12.75 C 15 13.304688 14.554688 13.75 14 13.75 L 8.5 13.75 L 8.5 14 L 14 14 C 14.554688 14 15 13.554688 15 13 Z M 15 12.75 "/>
<path style=" stroke:none;fill-rule:nonzero;fill:rgb(0%,0%,0%);fill-opacity:0.2;" d="M 1 7.5 L 1 7.875 L 7.5 7.875 L 7.5 7.5 Z M 8.5 7.5 L 8.5 7.875 L 15 7.875 L 15 7.5 Z M 1 13 L 1 13.375 C 1 13.929688 1.445312 14.375 2 14.375 L 7.5 14.375 L 7.5 14 L 2 14 C 1.445312 14 1 13.554688 1 13 Z M 15 13 C 15 13.554688 14.554688 14 14 14 L 8.5 14 L 8.5 14.375 L 14 14.375 C 14.554688 14.375 15 13.929688 15 13.375 Z M 15 13 "/>
<path style=" stroke:none;fill-rule:nonzero;fill:rgb(87.843138%,87.843138%,87.843138%);fill-opacity:1;" d="M 10 3.5 L 10 4.5 L 5 4.5 C 4.722656 4.5 4.5 4.722656 4.5 5 L 4.5 8 C 4.5 8.035156 4.503906 8.070312 4.511719 8.101562 C 4.511719 8.109375 4.511719 8.117188 4.515625 8.125 C 4.570312 8.339844 4.765625 8.5 5 8.5 L 10.5 8.5 L 10.5 10.5 L 6 10.5 L 6 9.5 L 4 11 L 6 12.5 L 6 11.5 L 11 11.5 C 11.015625 11.5 11.035156 11.5 11.050781 11.496094 C 11.304688 11.472656 11.5 11.28125 11.5 11.046875 L 11.5 8 C 11.5 7.957031 11.496094 7.914062 11.484375 7.875 C 11.480469 7.867188 11.480469 7.859375 11.476562 7.851562 C 11.425781 7.6875 11.292969 7.558594 11.125 7.515625 C 11.117188 7.511719 11.109375 7.511719 11.101562 7.511719 C 11.070312 7.503906 11.035156 7.5 11 7.5 L 5.5 7.5 L 5.5 5.5 L 10 5.5 L 10 6.5 L 12 5 Z M 10 3.5 "/>
<path style=" stroke:none;fill-rule:nonzero;fill:rgb(100%,100%,100%);fill-opacity:0.6;" d="M 10 3.5 L 10 3.75 L 11.832031 5.125 L 12 5 Z M 5 4.5 C 4.722656 4.5 4.5 4.722656 4.5 5 L 4.5 5.25 C 4.5 4.972656 4.722656 4.75 5 4.75 L 10 4.75 L 10 4.5 Z M 5.5 7.5 L 5.5 7.75 L 11 7.75 C 11.035156 7.75 11.070312 7.753906 11.101562 7.757812 C 11.109375 7.761719 11.117188 7.761719 11.125 7.765625 C 11.292969 7.808594 11.425781 7.9375 11.476562 8.101562 C 11.480469 8.109375 11.480469 8.117188 11.484375 8.125 C 11.496094 8.164062 11.5 8.207031 11.5 8.25 L 11.5 8 C 11.5 7.957031 11.496094 7.914062 11.484375 7.875 C 11.480469 7.867188 11.480469 7.859375 11.476562 7.851562 C 11.425781 7.6875 11.292969 7.558594 11.125 7.515625 C 11.117188 7.511719 11.109375 7.511719 11.101562 7.511719 C 11.070312 7.503906 11.035156 7.5 11 7.5 Z M 6 9.5 L 4 11 L 4.167969 11.125 L 6 9.75 Z M 6 10.5 L 6 10.75 L 10.5 10.75 L 10.5 10.5 Z M 6 10.5 "/>
<path style=" stroke:none;fill-rule:nonzero;fill:rgb(0%,0%,0%);fill-opacity:0.4;" d="M 11.832031 5.078125 L 10 6.453125 L 10 6.703125 L 12 5.203125 Z M 5.5 5.453125 L 5.5 5.703125 L 10 5.703125 L 10 5.453125 Z M 4.5 7.953125 L 4.5 8.203125 C 4.5 8.238281 4.503906 8.273438 4.511719 8.304688 C 4.511719 8.3125 4.511719 8.320312 4.515625 8.328125 C 4.570312 8.546875 4.765625 8.703125 5 8.703125 L 10.5 8.703125 L 10.5 8.453125 L 5 8.453125 C 4.765625 8.453125 4.570312 8.296875 4.515625 8.078125 C 4.511719 8.070312 4.511719 8.0625 4.511719 8.054688 C 4.503906 8.023438 4.5 7.988281 4.5 7.953125 Z M 11.5 11 C 11.5 11.234375 11.304688 11.425781 11.050781 11.449219 C 11.035156 11.453125 11.015625 11.453125 11 11.453125 L 6 11.453125 L 6 11.703125 L 11 11.703125 C 11.015625 11.703125 11.035156 11.703125 11.050781 11.699219 C 11.304688 11.675781 11.5 11.484375 11.5 11.25 Z M 4.167969 11.078125 L 4 11.203125 L 6 12.703125 L 6 12.453125 Z M 4.167969 11.078125 "/>
<path style=" stroke:none;fill-rule:nonzero;fill:url(#linear0);" d="M 2 2 C 1.445312 2 1 2.445312 1 3 L 1 7.5 L 2 7.5 L 2 8.5 L 1 8.5 L 1 13 C 1 13.554688 1.445312 14 2 14 L 7.5 14 L 7.5 13.5 L 8.5 13.5 L 8.5 14 L 14 14 C 14.554688 14 15 13.554688 15 13 L 15 8.5 L 14 8.5 L 14 7.5 L 15 7.5 L 15 3 C 15 2.445312 14.554688 2 14 2 L 8.5 2 L 8.5 2.5 L 7.5 2.5 L 7.5 2 Z M 2 2 "/>
</g>
</svg>
