
<svg xmlns="http://www.w3.org/2000/svg" xmlns:xlink="http://www.w3.org/1999/xlink" width="16" height="16" viewBox="0 0 16 16" version="1.1">
<defs>
<linearGradient id="linear0" gradientUnits="userSpaceOnUse" x1="8.466666" y1="-199.125" x2="8.466666" y2="-213.941666" gradientTransform="matrix(0.944882,0,0,0.944882,0,203.149617)">
<stop offset="0" style="stop-color:rgb(0%,0%,0%);stop-opacity:0.2;"/>
<stop offset="1" style="stop-color:rgb(100%,100%,100%);stop-opacity:0;"/>
</linearGradient>
</defs>
<g id="surface1">
<path style=" stroke:none;fill-rule:nonzero;fill:rgb(69.01961%,74.509805%,77.254903%);fill-opacity:1;" d="M 2.441406 13.738281 C 5.761719 15.421875 10.238281 15.421875 13.558594 13.738281 C 14 13.5 14 13 13.984375 13 C 13.753906 9.300781 11.015625 7.039062 9.5 4.984375 C 9.5 3.652344 10.199219 3.105469 10.785156 2.234375 C 10.914062 2.042969 10.847656 1.777344 10.65625 1.652344 L 9.84375 1.109375 C 9.660156 0.988281 9.414062 1.054688 9.316406 1.25 L 9.183594 1.511719 C 9.109375 1.664062 8.890625 1.664062 8.816406 1.511719 L 8.683594 1.25 C 8.601562 1.085938 8.371094 1.070312 8.269531 1.222656 L 7.730469 2.035156 C 7.621094 2.199219 7.378906 2.199219 7.269531 2.035156 L 6.730469 1.222656 C 6.597656 1.027344 6.339844 0.960938 6.128906 1.066406 L 4.871094 1.695312 C 4.664062 1.796875 4.621094 2.019531 4.78125 2.183594 C 5.671875 3.089844 6.5 3.640625 6.5 5 C 4.847656 7.058594 2.234375 9.300781 2.015625 13 C 2.015625 13 2.023438 13.511719 2.441406 13.738281 Z M 2.441406 13.738281 "/>
<path style=" stroke:none;fill-rule:nonzero;fill:rgb(0%,0%,0%);fill-opacity:0.4;" d="M 9.738281 5.175781 C 9.726562 5.203125 9.703125 5.230469 9.675781 5.242188 C 9.316406 5.402344 8.988281 5.511719 8.664062 5.570312 C 8.675781 5.597656 8.6875 5.625 8.699219 5.65625 C 9.011719 5.597656 9.328125 5.492188 9.675781 5.335938 C 9.738281 5.308594 9.765625 5.238281 9.738281 5.175781 Z M 6.257812 5.175781 C 6.257812 5.175781 6.257812 5.179688 6.257812 5.179688 C 6.234375 5.242188 6.265625 5.316406 6.332031 5.339844 C 7.117188 5.625 7.71875 5.75 8.300781 5.710938 C 8.3125 5.675781 8.324219 5.644531 8.335938 5.617188 C 7.742188 5.660156 7.132812 5.539062 6.332031 5.246094 C 6.300781 5.234375 6.273438 5.207031 6.257812 5.175781 Z M 8.507812 5.871094 C 8.390625 6.199219 8.171875 6.71875 7.855469 7.195312 C 7.835938 7.222656 7.808594 7.242188 7.773438 7.25 C 7.742188 7.257812 7.707031 7.25 7.679688 7.230469 C 7.660156 7.21875 7.644531 7.199219 7.636719 7.175781 C 7.613281 7.230469 7.632812 7.292969 7.679688 7.324219 C 7.707031 7.34375 7.742188 7.351562 7.773438 7.34375 C 7.808594 7.335938 7.835938 7.316406 7.855469 7.289062 C 8.171875 6.8125 8.390625 6.292969 8.507812 5.964844 C 8.65625 6.371094 8.878906 7.125 8.890625 7.921875 C 8.898438 7.089844 8.660156 6.292969 8.507812 5.871094 Z M 9.140625 7.9375 C 9.140625 8.046875 9.132812 8.15625 9.125 8.265625 C 9.117188 8.332031 9.058594 8.382812 8.988281 8.378906 C 8.9375 8.371094 8.890625 8.335938 8.878906 8.28125 C 8.878906 8.300781 8.875 8.316406 8.875 8.335938 C 8.871094 8.367188 8.882812 8.402344 8.902344 8.425781 C 8.925781 8.453125 8.957031 8.46875 8.988281 8.472656 C 9.058594 8.476562 9.117188 8.425781 9.125 8.359375 C 9.136719 8.21875 9.140625 8.074219 9.140625 7.9375 Z M 9.140625 7.9375 "/>
<path style=" stroke:none;fill-rule:nonzero;fill:rgb(100%,100%,100%);fill-opacity:0.4;" d="M 6.335938 1.015625 C 6.265625 1.015625 6.195312 1.03125 6.128906 1.066406 L 4.871094 1.695312 C 4.703125 1.78125 4.644531 1.945312 4.714844 2.09375 C 4.746094 2.035156 4.796875 1.984375 4.871094 1.945312 L 6.128906 1.316406 C 6.339844 1.210938 6.597656 1.277344 6.730469 1.476562 L 7.269531 2.289062 C 7.378906 2.449219 7.621094 2.449219 7.730469 2.289062 L 8.269531 1.476562 C 8.375 1.324219 8.601562 1.335938 8.683594 1.5 L 8.816406 1.761719 C 8.890625 1.914062 9.109375 1.914062 9.183594 1.761719 L 9.316406 1.5 C 9.414062 1.304688 9.660156 1.238281 9.84375 1.359375 L 10.65625 1.902344 C 10.742188 1.960938 10.800781 2.042969 10.832031 2.140625 C 10.886719 1.964844 10.816406 1.757812 10.65625 1.652344 L 9.84375 1.109375 C 9.660156 0.988281 9.414062 1.054688 9.316406 1.25 L 9.183594 1.511719 C 9.109375 1.664062 8.890625 1.664062 8.816406 1.511719 L 8.683594 1.25 C 8.601562 1.085938 8.375 1.070312 8.269531 1.222656 L 7.730469 2.035156 C 7.621094 2.199219 7.378906 2.199219 7.269531 2.035156 L 6.730469 1.222656 C 6.640625 1.089844 6.488281 1.015625 6.335938 1.015625 Z M 9.507812 4.996094 C 9.503906 5.074219 9.5 5.152344 9.5 5.234375 C 11.003906 7.269531 13.703125 9.507812 13.976562 13.148438 C 13.992188 13.058594 13.988281 13 13.984375 13 C 13.757812 9.304688 11.027344 7.046875 9.507812 4.996094 Z M 6.492188 5.011719 C 4.835938 7.066406 2.230469 9.308594 2.015625 13 C 2.015625 13 2.015625 13.039062 2.023438 13.097656 C 2.304688 9.488281 4.871094 7.28125 6.5 5.25 C 6.5 5.167969 6.496094 5.089844 6.492188 5.011719 Z M 6.492188 5.011719 "/>
<path style=" stroke:none;fill-rule:nonzero;fill:rgb(0%,0%,0%);fill-opacity:0.4;" d="M 4.714844 1.839844 C 4.660156 1.949219 4.679688 2.078125 4.78125 2.183594 C 5.617188 3.035156 6.398438 3.574219 6.492188 4.761719 C 6.492188 4.757812 6.496094 4.753906 6.5 4.75 C 6.5 3.390625 5.671875 2.839844 4.78125 1.933594 C 4.753906 1.902344 4.730469 1.871094 4.714844 1.839844 Z M 10.832031 1.886719 C 10.820312 1.921875 10.804688 1.953125 10.785156 1.984375 C 10.199219 2.855469 9.5 3.402344 9.5 4.734375 C 9.503906 4.738281 9.503906 4.742188 9.507812 4.746094 C 9.585938 3.582031 10.234375 3.050781 10.785156 2.234375 C 10.855469 2.128906 10.867188 2.003906 10.832031 1.886719 Z M 2.023438 12.847656 C 2.019531 12.898438 2.019531 12.949219 2.015625 13 C 2.015625 13 2.023438 13.511719 2.4375 13.738281 C 5.761719 15.421875 10.238281 15.421875 13.5625 13.738281 C 14 13.5 14 13 13.984375 13 C 13.984375 12.964844 13.980469 12.933594 13.976562 12.898438 C 13.945312 13.0625 13.847656 13.332031 13.5625 13.488281 C 10.238281 15.171875 5.761719 15.171875 2.4375 13.488281 C 2.136719 13.324219 2.050781 13.003906 2.023438 12.847656 Z M 2.023438 12.847656 "/>
<path style=" stroke:none;fill-rule:nonzero;fill:rgb(0%,0%,0%);fill-opacity:0.2;" d="M 4.757812 2.15625 C 4.65625 2.269531 4.65625 2.433594 4.78125 2.558594 C 5.59375 3.382812 6.347656 3.914062 6.480469 5.023438 C 6.488281 5.015625 6.492188 5.007812 6.5 5 C 6.5 3.640625 5.671875 3.089844 4.78125 2.183594 C 4.773438 2.175781 4.765625 2.164062 4.757812 2.15625 Z M 10.804688 2.199219 C 10.800781 2.210938 10.792969 2.222656 10.785156 2.234375 C 10.199219 3.105469 9.5 3.652344 9.5 4.984375 C 9.503906 4.992188 9.511719 5 9.515625 5.007812 C 9.628906 3.921875 10.253906 3.398438 10.785156 2.609375 C 10.867188 2.484375 10.867188 2.328125 10.804688 2.199219 Z M 2.03125 13.136719 C 2.027344 13.214844 2.019531 13.296875 2.015625 13.375 C 2.015625 13.375 2.023438 13.886719 2.4375 14.113281 C 5.761719 15.796875 10.238281 15.796875 13.5625 14.113281 C 14 13.875 14 13.375 13.984375 13.375 C 13.980469 13.3125 13.976562 13.246094 13.96875 13.183594 C 13.933594 13.351562 13.828125 13.59375 13.5625 13.738281 C 10.238281 15.421875 5.761719 15.421875 2.4375 13.738281 C 2.15625 13.585938 2.066406 13.304688 2.03125 13.136719 Z M 2.03125 13.136719 "/>
<path style=" stroke:none;fill-rule:nonzero;fill:rgb(67.058825%,27.843139%,73.725492%);fill-opacity:1;" d="M 6.417969 5.007812 C 6.386719 4.996094 6.351562 4.996094 6.324219 5.011719 C 6.292969 5.027344 6.269531 5.050781 6.257812 5.082031 C 6.234375 5.148438 6.265625 5.21875 6.332031 5.242188 C 7.71875 5.746094 8.53125 5.746094 9.675781 5.238281 C 9.738281 5.210938 9.765625 5.136719 9.738281 5.074219 C 9.710938 5.011719 9.636719 4.984375 9.574219 5.011719 C 8.46875 5.503906 7.78125 5.5 6.417969 5.007812 Z M 6.417969 5.007812 "/>
<path style=" stroke:none;fill-rule:nonzero;fill:rgb(100%,100%,100%);fill-opacity:0.4;" d="M 6.363281 5 C 6.316406 5.003906 6.273438 5.035156 6.257812 5.082031 C 6.25 5.105469 6.25 5.132812 6.257812 5.15625 C 6.273438 5.109375 6.316406 5.078125 6.363281 5.070312 C 6.382812 5.070312 6.402344 5.074219 6.417969 5.078125 C 7.78125 5.574219 8.46875 5.574219 9.574219 5.082031 C 9.636719 5.054688 9.710938 5.082031 9.738281 5.148438 C 9.742188 5.152344 9.742188 5.15625 9.742188 5.160156 C 9.753906 5.132812 9.75 5.101562 9.738281 5.074219 C 9.710938 5.011719 9.636719 4.984375 9.574219 5.011719 C 8.46875 5.5 7.78125 5.5 6.417969 5.007812 C 6.402344 5 6.382812 5 6.363281 5 Z M 8.691406 5.636719 C 8.683594 5.636719 8.675781 5.636719 8.664062 5.640625 C 8.792969 5.960938 9.128906 6.882812 9.140625 7.894531 C 9.144531 6.910156 8.835938 6.007812 8.691406 5.636719 Z M 8.335938 5.683594 C 8.324219 5.683594 8.316406 5.683594 8.308594 5.6875 C 8.203125 5.988281 7.980469 6.550781 7.644531 7.054688 C 7.628906 7.085938 7.625 7.121094 7.632812 7.152344 C 7.636719 7.144531 7.640625 7.136719 7.644531 7.125 C 8.011719 6.582031 8.242188 5.960938 8.335938 5.683594 Z M 8.890625 7.902344 C 8.890625 8.011719 8.886719 8.125 8.875 8.238281 C 8.875 8.246094 8.875 8.253906 8.878906 8.261719 C 8.886719 8.140625 8.890625 8.019531 8.890625 7.902344 Z M 8.890625 7.902344 "/>
<path style=" stroke:none;fill-rule:nonzero;fill:rgb(67.058825%,27.843139%,73.725492%);fill-opacity:1;" d="M 8.535156 5.378906 C 8.46875 5.363281 8.398438 5.398438 8.378906 5.464844 C 8.378906 5.464844 8.132812 6.328125 7.644531 7.054688 C 7.628906 7.082031 7.621094 7.117188 7.628906 7.148438 C 7.632812 7.183594 7.652344 7.210938 7.679688 7.230469 C 7.707031 7.246094 7.742188 7.253906 7.773438 7.246094 C 7.808594 7.242188 7.835938 7.222656 7.855469 7.195312 C 8.367188 6.421875 8.621094 5.535156 8.621094 5.535156 C 8.628906 5.503906 8.625 5.46875 8.609375 5.4375 C 8.59375 5.410156 8.566406 5.386719 8.535156 5.378906 Z M 8.535156 5.378906 "/>
<path style=" stroke:none;fill-rule:nonzero;fill:rgb(67.058825%,27.843139%,73.725492%);fill-opacity:1;" d="M 8.542969 5.382812 C 8.511719 5.371094 8.480469 5.371094 8.449219 5.386719 C 8.386719 5.414062 8.359375 5.488281 8.386719 5.550781 C 8.386719 5.550781 8.996094 6.90625 8.875 8.238281 C 8.871094 8.273438 8.882812 8.304688 8.902344 8.332031 C 8.925781 8.355469 8.957031 8.371094 8.988281 8.375 C 9.058594 8.378906 9.117188 8.332031 9.125 8.261719 C 9.253906 6.84375 8.613281 5.449219 8.613281 5.449219 C 8.601562 5.417969 8.574219 5.394531 8.542969 5.382812 Z M 8.542969 5.382812 "/>
<path style=" stroke:none;fill-rule:nonzero;fill:rgb(72.941178%,40.784314%,78.431374%);fill-opacity:1;" d="M 8.5 5.25 C 8.636719 5.25 8.75 5.363281 8.75 5.5 C 8.75 5.636719 8.636719 5.75 8.5 5.75 C 8.363281 5.75 8.25 5.636719 8.25 5.5 C 8.25 5.363281 8.363281 5.25 8.5 5.25 Z M 8.5 5.25 "/>
<path style=" stroke:none;fill-rule:nonzero;fill:rgb(100%,100%,100%);fill-opacity:0.4;" d="M 8.492188 5.25 C 8.359375 5.253906 8.25 5.363281 8.25 5.5 C 8.25 5.523438 8.253906 5.542969 8.257812 5.5625 C 8.285156 5.453125 8.382812 5.375 8.5 5.375 C 8.617188 5.375 8.714844 5.453125 8.742188 5.5625 C 8.746094 5.542969 8.75 5.523438 8.75 5.5 C 8.75 5.363281 8.636719 5.25 8.5 5.25 C 8.496094 5.25 8.496094 5.25 8.492188 5.25 Z M 8.492188 5.25 "/>
<path style=" stroke:none;fill-rule:nonzero;fill:rgb(0%,0%,0%);fill-opacity:0.4;" d="M 8.492188 5.875 C 8.359375 5.871094 8.25 5.761719 8.25 5.625 C 8.25 5.601562 8.253906 5.582031 8.257812 5.5625 C 8.285156 5.671875 8.382812 5.75 8.5 5.75 C 8.617188 5.75 8.714844 5.671875 8.742188 5.5625 C 8.746094 5.582031 8.75 5.601562 8.75 5.625 C 8.75 5.761719 8.636719 5.875 8.5 5.875 C 8.496094 5.875 8.496094 5.875 8.492188 5.875 Z M 8.492188 5.875 "/>
<path style=" stroke:none;fill-rule:nonzero;fill:url(#linear0);" d="M 2.441406 13.738281 C 5.761719 15.421875 10.238281 15.421875 13.558594 13.738281 C 14 13.5 14 13 13.984375 13 C 13.753906 9.300781 11.015625 7.039062 9.5 4.984375 C 9.5 3.652344 10.199219 3.105469 10.785156 2.234375 C 10.914062 2.042969 10.847656 1.777344 10.65625 1.652344 L 9.84375 1.109375 C 9.660156 0.988281 9.414062 1.054688 9.316406 1.25 L 9.183594 1.511719 C 9.109375 1.664062 8.890625 1.664062 8.816406 1.511719 L 8.683594 1.25 C 8.601562 1.085938 8.371094 1.070312 8.269531 1.222656 L 7.730469 2.035156 C 7.621094 2.199219 7.378906 2.199219 7.269531 2.035156 L 6.730469 1.222656 C 6.597656 1.027344 6.339844 0.960938 6.128906 1.066406 L 4.871094 1.695312 C 4.664062 1.796875 4.621094 2.019531 4.78125 2.183594 C 5.671875 3.089844 6.5 3.640625 6.5 5 C 4.847656 7.058594 2.234375 9.300781 2.015625 13 C 2.015625 13 2.023438 13.511719 2.441406 13.738281 Z M 2.441406 13.738281 "/>
</g>
</svg>
