
<svg xmlns="http://www.w3.org/2000/svg" xmlns:xlink="http://www.w3.org/1999/xlink" width="48" height="48" viewBox="0 0 48 48" version="1.1">
<defs>
<linearGradient id="linear0" gradientUnits="userSpaceOnUse" x1="31.999998" y1="60" x2="31.999998" y2="4" gradientTransform="matrix(0.75,0,0,0.75,0,0.000000000000085265)">
<stop offset="0" style="stop-color:rgb(0%,0%,0%);stop-opacity:0.2;"/>
<stop offset="1" style="stop-color:rgb(100%,100%,100%);stop-opacity:0;"/>
</linearGradient>
</defs>
<g id="surface1">
<path style=" stroke:none;fill-rule:nonzero;fill:rgb(92.54902%,25.098041%,47.843137%);fill-opacity:1;" d="M 30 3 L 9.75 3 C 8.503906 3 7.5 4.003906 7.5 5.25 L 7.5 42.75 C 7.5 43.996094 8.503906 45 9.75 45 L 38.25 45 C 39.496094 45 40.5 43.996094 40.5 42.75 L 40.5 13.5 Z M 30 3 "/>
<path style=" stroke:none;fill-rule:nonzero;fill:rgb(0%,0%,0%);fill-opacity:0.4;" d="M 30 11.25 L 30 12 C 30 13.246094 31.003906 14.25 32.25 14.25 L 40.5 14.25 L 39.75 13.5 L 32.25 13.5 C 31.003906 13.5 30 12.496094 30 11.25 Z M 30 11.25 "/>
<path style=" stroke:none;fill-rule:nonzero;fill:rgb(94.117647%,38.431373%,57.254905%);fill-opacity:0.996078;" d="M 40.5 13.5 L 30 3 L 30 11.25 C 30 12.496094 31.003906 13.5 32.25 13.5 Z M 40.5 13.5 "/>
<path style=" stroke:none;fill-rule:nonzero;fill:rgb(100%,100%,100%);fill-opacity:0.4;" d="M 9.75 3 C 8.503906 3 7.5 4.003906 7.5 5.25 L 7.5 6 C 7.5 4.753906 8.503906 3.75 9.75 3.75 L 30 3.75 L 40.5 14.25 L 40.5 13.5 L 30 3 Z M 9.75 3 "/>
<path style=" stroke:none;fill-rule:nonzero;fill:rgb(0%,0%,0%);fill-opacity:0.2;" d="M 7.5 42.738281 L 7.5 43.875 C 7.5 45.121094 8.503906 46.125 9.75 46.125 L 38.25 46.125 C 39.496094 46.125 40.5 45.121094 40.5 43.875 L 40.5 42.738281 C 40.5 43.984375 39.496094 44.988281 38.25 44.988281 L 9.75 44.988281 C 8.503906 44.988281 7.5 43.984375 7.5 42.738281 Z M 7.5 42.738281 "/>
<path style=" stroke:none;fill-rule:nonzero;fill:rgb(0%,0%,0%);fill-opacity:0.4;" d="M 7.5 42.09375 L 7.5 42.75 C 7.5 43.996094 8.503906 45 9.75 45 L 38.25 45 C 39.496094 45 40.5 43.996094 40.5 42.75 L 40.5 42.09375 C 40.5 43.339844 39.496094 44.34375 38.25 44.34375 L 9.75 44.34375 C 8.503906 44.34375 7.5 43.339844 7.5 42.09375 Z M 7.5 42.09375 "/>
<path style=" stroke:none;fill-rule:nonzero;fill:rgb(95.686275%,56.078434%,69.411767%);fill-opacity:1;" d="M 20.679688 17.980469 C 20.171875 17.984375 19.78125 18.039062 19.367188 18.316406 C 19.035156 18.535156 18.847656 18.945312 18.796875 19.261719 C 18.742188 19.578125 18.75 19.878906 18.75 20.253906 L 18.75 24 L 17.550781 24.898438 C 17.359375 25.039062 17.25 25.261719 17.25 25.5 C 17.25 25.734375 17.359375 25.957031 17.550781 26.097656 L 18.75 27 L 18.75 30.75 C 18.75 31.125 18.742188 31.421875 18.796875 31.738281 C 18.847656 32.058594 19.035156 32.464844 19.367188 32.6875 C 20.03125 33.128906 20.628906 33.003906 21.753906 33.003906 C 22.167969 33 22.5 32.664062 22.5 32.25 C 22.5 31.839844 22.164062 31.503906 21.753906 31.503906 C 20.757812 31.503906 20.304688 31.410156 20.273438 31.433594 C 20.257812 31.316406 20.253906 31.09375 20.253906 30.75 L 20.253906 26.625 C 20.25 26.390625 20.136719 26.167969 19.949219 26.027344 L 19.246094 25.5 L 19.949219 24.972656 C 20.136719 24.832031 20.25 24.613281 20.253906 24.375 L 20.253906 20.25 C 20.253906 19.90625 20.261719 19.679688 20.273438 19.5625 C 20.304688 19.585938 20.757812 19.5 21.753906 19.5 C 22.164062 19.5 22.5 19.164062 22.5 18.75 C 22.5 18.335938 22.167969 18 21.753906 18 C 21.332031 18 20.984375 17.980469 20.679688 17.980469 Z M 27.164062 17.980469 C 26.898438 17.984375 26.601562 18 26.25 18 C 25.835938 18 25.5 18.335938 25.5 18.75 C 25.503906 19.164062 25.835938 19.5 26.25 19.5 C 27.242188 19.5 27.699219 19.585938 27.726562 19.5625 C 27.742188 19.679688 27.75 19.90625 27.75 20.25 L 27.75 24.375 C 27.75 24.613281 27.859375 24.832031 28.046875 24.972656 L 28.75 25.5 L 28.046875 26.027344 C 27.859375 26.167969 27.75 26.390625 27.75 26.625 L 27.75 30.75 C 27.75 31.09375 27.742188 31.316406 27.726562 31.433594 C 27.699219 31.410156 27.242188 31.5 26.25 31.5 C 25.835938 31.503906 25.503906 31.835938 25.5 32.25 C 25.5 32.664062 25.835938 33 26.25 33.003906 C 27.375 33.003906 27.96875 33.128906 28.636719 32.6875 C 28.96875 32.464844 29.152344 32.058594 29.203125 31.738281 C 29.257812 31.421875 29.25 31.125 29.25 30.75 L 29.25 27 L 30.449219 26.097656 C 30.640625 25.957031 30.75 25.734375 30.75 25.5 C 30.75 25.261719 30.640625 25.039062 30.449219 24.898438 L 29.25 24 L 29.25 20.25 C 29.25 19.875 29.257812 19.578125 29.203125 19.261719 C 29.152344 18.945312 28.96875 18.535156 28.636719 18.316406 C 28.175781 18.011719 27.75 17.972656 27.164062 17.980469 Z M 27.164062 17.980469 "/>
<path style=" stroke:none;fill-rule:nonzero;fill:rgb(100%,100%,100%);fill-opacity:0.4;" d="M 20.679688 17.980469 C 20.171875 17.984375 19.78125 18.039062 19.367188 18.316406 C 19.035156 18.535156 18.847656 18.945312 18.796875 19.261719 C 18.742188 19.578125 18.75 19.878906 18.75 20.253906 C 18.753906 20.046875 18.761719 19.851562 18.796875 19.652344 C 18.847656 19.335938 19.035156 18.925781 19.367188 18.707031 C 19.78125 18.429688 20.171875 18.375 20.679688 18.375 C 20.984375 18.375 21.332031 18.390625 21.753906 18.390625 C 22.089844 18.390625 22.382812 18.617188 22.472656 18.941406 C 22.488281 18.878906 22.5 18.816406 22.5 18.75 C 22.5 18.335938 22.167969 18 21.753906 18 C 21.332031 18 20.984375 17.980469 20.679688 17.980469 Z M 27.164062 17.980469 C 26.898438 17.984375 26.601562 18 26.25 18 C 25.835938 18 25.5 18.339844 25.5 18.753906 C 25.503906 18.820312 25.511719 18.882812 25.53125 18.945312 C 25.617188 18.621094 25.910156 18.394531 26.25 18.390625 C 26.601562 18.390625 26.898438 18.375 27.164062 18.375 C 27.75 18.367188 28.175781 18.402344 28.636719 18.707031 C 28.96875 18.929688 29.152344 19.335938 29.203125 19.652344 C 29.242188 19.890625 29.25 20.121094 29.25 20.375 L 29.25 20.253906 C 29.25 19.878906 29.257812 19.582031 29.203125 19.261719 C 29.152344 18.945312 28.96875 18.539062 28.636719 18.316406 C 28.175781 18.011719 27.75 17.976562 27.164062 17.984375 Z M 18.75 24 L 17.550781 24.898438 C 17.304688 25.082031 17.195312 25.398438 17.277344 25.695312 C 17.320312 25.53125 17.417969 25.390625 17.550781 25.289062 L 18.75 24.390625 Z M 29.25 24 L 29.25 24.394531 L 30.449219 25.289062 C 30.582031 25.390625 30.679688 25.535156 30.722656 25.695312 C 30.804688 25.398438 30.695312 25.082031 30.449219 24.898438 Z M 19.503906 25.695312 L 19.246094 25.890625 L 19.949219 26.417969 C 20.136719 26.558594 20.25 26.78125 20.253906 27.015625 L 20.253906 26.625 C 20.25 26.390625 20.136719 26.167969 19.949219 26.027344 Z M 28.488281 25.695312 L 28.046875 26.027344 C 27.859375 26.167969 27.75 26.390625 27.75 26.625 L 27.75 27.019531 C 27.75 26.78125 27.859375 26.558594 28.046875 26.417969 L 28.75 25.894531 Z M 20.253906 30.75 L 20.253906 31.140625 C 20.253906 31.484375 20.257812 31.707031 20.273438 31.824219 C 20.304688 31.800781 20.757812 31.894531 21.753906 31.894531 C 22.089844 31.898438 22.386719 32.125 22.472656 32.453125 C 22.492188 32.386719 22.5 32.316406 22.5 32.25 C 22.5 31.839844 22.164062 31.503906 21.753906 31.503906 C 20.757812 31.503906 20.304688 31.410156 20.273438 31.433594 C 20.257812 31.316406 20.253906 31.09375 20.253906 30.75 Z M 27.75 30.75 C 27.75 31.09375 27.742188 31.316406 27.726562 31.433594 C 27.699219 31.410156 27.242188 31.503906 26.25 31.503906 C 25.835938 31.503906 25.503906 31.839844 25.5 32.25 C 25.503906 32.320312 25.511719 32.386719 25.53125 32.449219 C 25.617188 32.125 25.910156 31.898438 26.25 31.894531 C 27.242188 31.894531 27.699219 31.800781 27.726562 31.828125 C 27.742188 31.707031 27.75 31.484375 27.75 31.140625 Z M 27.75 30.75 "/>
<path style=" stroke:none;fill-rule:nonzero;fill:rgb(8.235294%,8.235294%,8.235294%);fill-opacity:0.4;" d="M 20.679688 33.378906 L 20.679688 33.375 C 20.171875 33.375 19.78125 33.320312 19.367188 33.042969 C 19.035156 32.824219 18.847656 32.414062 18.796875 32.097656 C 18.742188 31.78125 18.75 31.480469 18.75 31.105469 C 18.753906 31.3125 18.761719 31.507812 18.796875 31.707031 C 18.847656 32.023438 19.035156 32.429688 19.367188 32.652344 C 19.78125 32.929688 20.171875 32.984375 20.679688 32.984375 C 20.984375 32.984375 21.332031 32.96875 21.753906 32.96875 C 22.089844 32.964844 22.382812 32.742188 22.472656 32.417969 C 22.488281 32.480469 22.5 32.542969 22.5 32.605469 C 22.5 33.019531 22.167969 33.359375 21.753906 33.359375 C 21.332031 33.359375 20.984375 33.375 20.679688 33.375 Z M 27.164062 33.375 C 26.898438 33.375 26.601562 33.359375 26.25 33.359375 C 25.835938 33.359375 25.5 33.019531 25.5 32.605469 C 25.503906 32.542969 25.511719 32.476562 25.53125 32.414062 C 25.617188 32.738281 25.910156 32.964844 26.25 32.96875 C 26.601562 32.96875 26.898438 32.984375 27.164062 32.984375 C 27.75 32.992188 28.175781 32.957031 28.636719 32.652344 C 28.96875 32.429688 29.152344 32.023438 29.203125 31.707031 C 29.242188 31.46875 29.25 31.238281 29.25 30.984375 L 29.25 31.105469 C 29.25 31.480469 29.257812 31.777344 29.203125 32.097656 C 29.152344 32.414062 28.96875 32.820312 28.636719 33.042969 C 28.175781 33.347656 27.75 33.382812 27.164062 33.375 Z M 18.75 27.359375 L 17.550781 26.460938 C 17.304688 26.277344 17.195312 25.960938 17.277344 25.664062 C 17.320312 25.824219 17.417969 25.96875 17.550781 26.070312 L 18.75 26.96875 Z M 29.25 27.359375 L 29.25 26.964844 L 30.449219 26.070312 C 30.582031 25.96875 30.679688 25.824219 30.722656 25.664062 C 30.804688 25.960938 30.695312 26.273438 30.449219 26.460938 Z M 19.507812 25.664062 L 19.246094 25.46875 L 19.949219 24.941406 C 20.136719 24.800781 20.25 24.578125 20.253906 24.34375 L 20.253906 24.734375 C 20.25 24.96875 20.136719 25.191406 19.949219 25.332031 Z M 28.488281 25.664062 L 28.046875 25.332031 C 27.859375 25.191406 27.75 24.96875 27.75 24.734375 L 27.75 24.339844 C 27.75 24.578125 27.859375 24.796875 28.046875 24.941406 L 28.75 25.464844 Z M 20.253906 20.609375 L 20.253906 20.21875 C 20.253906 19.875 20.257812 19.652344 20.273438 19.535156 C 20.304688 19.558594 20.757812 19.464844 21.753906 19.464844 C 22.089844 19.460938 22.386719 19.234375 22.472656 18.90625 C 22.492188 18.972656 22.5 19.039062 22.5 19.109375 C 22.5 19.519531 22.164062 19.855469 21.753906 19.855469 C 20.757812 19.855469 20.304688 19.949219 20.273438 19.925781 C 20.257812 20.042969 20.253906 20.265625 20.253906 20.609375 Z M 27.75 20.609375 C 27.75 20.265625 27.742188 20.042969 27.726562 19.921875 C 27.699219 19.949219 27.242188 19.855469 26.25 19.855469 C 25.835938 19.855469 25.503906 19.519531 25.5 19.105469 C 25.503906 19.039062 25.511719 18.972656 25.53125 18.910156 C 25.617188 19.234375 25.910156 19.460938 26.25 19.464844 C 27.242188 19.464844 27.699219 19.558594 27.726562 19.53125 C 27.742188 19.652344 27.75 19.875 27.75 20.21875 Z M 27.75 20.609375 "/>
<path style=" stroke:none;fill-rule:nonzero;fill:url(#linear0);" d="M 30 3 L 9.75 3 C 8.503906 3 7.5 4.003906 7.5 5.25 L 7.5 42.75 C 7.5 43.996094 8.503906 45 9.75 45 L 38.25 45 C 39.496094 45 40.5 43.996094 40.5 42.75 L 40.5 13.5 Z M 30 3 "/>
</g>
</svg>
