
<svg xmlns="http://www.w3.org/2000/svg" xmlns:xlink="http://www.w3.org/1999/xlink" width="48" height="48" viewBox="0 0 48 48" version="1.1">
<defs>
<linearGradient id="linear0" gradientUnits="userSpaceOnUse" x1="8.466666" y1="-199.125" x2="8.466666" y2="-213.941666" gradientTransform="matrix(2.834646,0,0,2.834646,0,609.448851)">
<stop offset="0" style="stop-color:rgb(0%,0%,0%);stop-opacity:0.2;"/>
<stop offset="1" style="stop-color:rgb(100%,100%,100%);stop-opacity:0;"/>
</linearGradient>
</defs>
<g id="surface1">
<path style=" stroke:none;fill-rule:nonzero;fill:rgb(92.54902%,25.098041%,47.843137%);fill-opacity:1;" d="M 42 45 C 43.660156 45 45 43.660156 45 42 L 45 24 L 24 24 L 24 45 Z M 42 45 "/>
<path style=" stroke:none;fill-rule:nonzero;fill:rgb(36.078432%,41.960785%,75.294119%);fill-opacity:1;" d="M 6 45 C 4.339844 45 3 43.660156 3 42 L 3 24 L 24 24 L 24 45 Z M 6 45 "/>
<path style=" stroke:none;fill-rule:nonzero;fill:rgb(36.078432%,41.960785%,75.294119%);fill-opacity:1;" d="M 42 3 C 43.660156 3 45 4.339844 45 6 L 45 24 L 24 24 L 24 3 Z M 42 3 "/>
<path style=" stroke:none;fill-rule:nonzero;fill:rgb(92.54902%,25.098041%,47.843137%);fill-opacity:1;" d="M 6 3 C 4.339844 3 3 4.339844 3 6 L 3 24 L 24 24 L 24 3 Z M 6 3 "/>
<path style=" stroke:none;fill-rule:nonzero;fill:rgb(38.039216%,38.039216%,38.039216%);fill-opacity:1;" d="M 10.5 9 L 37.5 9 C 38.328125 9 39 9.671875 39 10.5 L 39 37.5 C 39 38.328125 38.328125 39 37.5 39 L 10.5 39 C 9.671875 39 9 38.328125 9 37.5 L 9 10.5 C 9 9.671875 9.671875 9 10.5 9 Z M 10.5 9 "/>
<path style=" stroke:none;fill-rule:nonzero;fill:rgb(100%,100%,100%);fill-opacity:0.4;" d="M 10.5 9 C 9.667969 9 9 9.667969 9 10.5 L 9 11.25 C 9 10.417969 9.667969 9.75 10.5 9.75 L 37.5 9.75 C 38.332031 9.75 39 10.417969 39 11.25 L 39 10.5 C 39 9.667969 38.332031 9 37.5 9 Z M 10.5 9 "/>
<path style=" stroke:none;fill-rule:nonzero;fill:rgb(0.784314%,0.784314%,0.784314%);fill-opacity:0.4;" d="M 10.5 39.75 C 9.667969 39.75 9 39.082031 9 38.25 L 9 37.5 C 9 38.332031 9.667969 39 10.5 39 L 37.5 39 C 38.332031 39 39 38.332031 39 37.5 L 39 38.25 C 39 39.082031 38.332031 39.75 37.5 39.75 Z M 10.5 39.75 "/>
<path style=" stroke:none;fill-rule:nonzero;fill:rgb(100%,100%,100%);fill-opacity:0.4;" d="M 6 3 C 4.339844 3 3 4.339844 3 6 L 3 6.75 C 3 5.089844 4.339844 3.75 6 3.75 L 42 3.75 C 43.660156 3.75 45 5.089844 45 6.75 L 45 6 C 45 4.339844 43.660156 3 42 3 Z M 6 3 "/>
<path style=" stroke:none;fill-rule:nonzero;fill:rgb(0%,0%,0%);fill-opacity:0.4;" d="M 6 45 C 4.339844 45 3 43.660156 3 42 L 3 41.25 C 3 42.910156 4.339844 44.25 6 44.25 L 42 44.25 C 43.660156 44.25 45 42.910156 45 41.25 L 45 42 C 45 43.660156 43.660156 45 42 45 Z M 6 45 "/>
<path style=" stroke:none;fill-rule:nonzero;fill:rgb(0%,0%,0%);fill-opacity:0.2;" d="M 3 42 L 3 43.125 C 3 44.785156 4.339844 46.125 6 46.125 L 42 46.125 C 43.660156 46.125 45 44.785156 45 43.125 L 45 42 C 45 43.660156 43.660156 45 42 45 L 6 45 C 4.339844 45 3 43.660156 3 42 Z M 3 42 "/>
<path style=" stroke:none;fill-rule:nonzero;fill:rgb(93.333334%,93.333334%,93.333334%);fill-opacity:1;" d="M 14.25 16.5 C 13.835938 16.5 13.5 16.835938 13.5 17.25 L 13.5 30.75 C 13.5 31.164062 13.835938 31.5 14.25 31.5 L 15.75 31.5 C 16.164062 31.5 16.5 31.164062 16.5 30.75 L 16.5 25.390625 C 16.800781 25.460938 17.113281 25.5 17.4375 25.5 L 18.5625 25.5 C 20.742188 25.5 22.5 23.742188 22.5 21.5625 L 22.5 20.4375 C 22.5 18.257812 20.742188 16.5 18.5625 16.5 Z M 16.5 19.5 L 18 19.5 C 18.832031 19.5 19.5 20.167969 19.5 21 C 19.5 21.832031 18.832031 22.5 18 22.5 L 16.5 22.5 Z M 16.5 19.5 "/>
<path style=" stroke:none;fill-rule:nonzero;fill:rgb(93.333334%,93.333334%,93.333334%);fill-opacity:0.996078;" d="M 30 16.5 C 27.507812 16.5 25.5 18.507812 25.5 21 C 25.5 23.492188 27.507812 25.5 30 25.5 C 30.832031 25.5 31.5 26.167969 31.5 27 C 31.5 27.832031 30.832031 28.5 30 28.5 L 26.25 28.5 C 25.835938 28.5 25.5 28.835938 25.5 29.25 L 25.5 30.75 C 25.5 31.164062 25.835938 31.5 26.25 31.5 L 30 31.5 C 32.492188 31.5 34.5 29.492188 34.5 27 C 34.5 24.507812 32.492188 22.5 30 22.5 C 29.167969 22.5 28.5 21.832031 28.5 21 C 28.5 20.167969 29.167969 19.5 30 19.5 L 33.75 19.5 C 34.164062 19.5 34.5 19.164062 34.5 18.75 L 34.5 17.25 C 34.5 16.835938 34.164062 16.5 33.75 16.5 Z M 30 16.5 "/>
<path style=" stroke:none;fill-rule:nonzero;fill:rgb(100%,100%,100%);fill-opacity:0.6;" d="M 14.25 16.5 C 13.835938 16.5 13.5 16.835938 13.5 17.25 L 13.5 18 C 13.5 17.585938 13.835938 17.25 14.25 17.25 L 18.5625 17.25 C 20.742188 17.25 22.5 19.007812 22.5 21.1875 L 22.5 20.4375 C 22.5 18.257812 20.742188 16.5 18.5625 16.5 Z M 19.453125 21.375 C 19.289062 22.023438 18.699219 22.5 18 22.5 L 16.5 22.5 L 16.5 23.25 L 18 23.25 C 18.832031 23.25 19.5 22.582031 19.5 21.75 C 19.5 21.621094 19.484375 21.496094 19.453125 21.375 Z M 19.453125 21.375 "/>
<path style=" stroke:none;fill-rule:nonzero;fill:rgb(100%,100%,100%);fill-opacity:0.6;" d="M 30 16.5 C 27.507812 16.5 25.5 18.507812 25.5 21 C 25.5 21.128906 25.503906 21.257812 25.515625 21.382812 C 25.703125 19.0625 27.628906 17.25 30 17.25 L 33.75 17.25 C 34.164062 17.25 34.5 17.585938 34.5 18 L 34.5 17.25 C 34.5 16.835938 34.164062 16.5 33.75 16.5 Z M 28.546875 21.378906 C 28.519531 21.5 28.5 21.621094 28.5 21.75 C 28.5 22.582031 29.167969 23.25 30 23.25 C 32.371094 23.25 34.296875 25.0625 34.484375 27.382812 C 34.496094 27.257812 34.5 27.128906 34.5 27 C 34.5 24.507812 32.492188 22.5 30 22.5 C 29.300781 22.5 28.714844 22.023438 28.546875 21.378906 Z M 31.453125 27.378906 C 31.285156 28.027344 30.699219 28.5 30 28.5 L 26.25 28.5 C 25.835938 28.5 25.5 28.835938 25.5 29.25 L 25.5 30 C 25.5 29.585938 25.835938 29.25 26.25 29.25 L 30 29.25 C 30.832031 29.25 31.5 28.582031 31.5 27.75 C 31.5 27.621094 31.480469 27.5 31.453125 27.378906 Z M 31.453125 27.378906 "/>
<path style=" stroke:none;fill-rule:nonzero;fill:rgb(0%,0%,0%);fill-opacity:0.4;" d="M 16.5 19.5 L 16.5 20.253906 L 18 20.253906 C 18.699219 20.253906 19.285156 20.730469 19.453125 21.378906 C 19.484375 21.257812 19.5 21.128906 19.5 21 C 19.5 20.167969 18.832031 19.5 18 19.5 Z M 22.5 21.5625 C 22.5 23.742188 20.742188 25.5 18.5625 25.5 L 17.4375 25.5 C 17.113281 25.5 16.800781 25.460938 16.5 25.386719 L 16.5 26.144531 C 16.800781 26.21875 17.113281 26.253906 17.4375 26.253906 L 18.5625 26.253906 C 20.742188 26.253906 22.5 24.5 22.5 22.316406 Z M 13.5 30.75 L 13.5 31.503906 C 13.5 31.921875 13.835938 32.253906 14.25 32.253906 L 15.75 32.253906 C 16.164062 32.253906 16.5 31.921875 16.5 31.503906 L 16.5 30.75 C 16.5 31.164062 16.164062 31.5 15.75 31.5 L 14.25 31.5 C 13.835938 31.5 13.5 31.164062 13.5 30.75 Z M 13.5 30.75 "/>
<path style=" stroke:none;fill-rule:nonzero;fill:rgb(0%,0%,0%);fill-opacity:0.4;" d="M 34.5 18.75 C 34.5 19.164062 34.164062 19.5 33.75 19.5 L 30 19.5 C 29.167969 19.5 28.5 20.167969 28.5 21 C 28.5 21.128906 28.515625 21.257812 28.546875 21.378906 C 28.714844 20.730469 29.300781 20.253906 30 20.253906 L 33.75 20.253906 C 34.164062 20.253906 34.5 19.921875 34.5 19.503906 Z M 25.515625 21.378906 C 25.503906 21.503906 25.5 21.628906 25.5 21.753906 C 25.5 24.25 27.507812 26.253906 30 26.253906 C 30.699219 26.253906 31.285156 26.730469 31.453125 27.375 C 31.484375 27.257812 31.5 27.128906 31.5 27 C 31.5 26.167969 30.832031 25.5 30 25.5 C 27.632812 25.5 25.707031 23.691406 25.515625 21.378906 Z M 34.484375 27.378906 C 34.292969 29.691406 32.367188 31.5 30 31.5 L 26.25 31.5 C 25.835938 31.5 25.5 31.164062 25.5 30.75 L 25.5 31.503906 C 25.5 31.921875 25.835938 32.253906 26.25 32.253906 L 30 32.253906 C 32.492188 32.253906 34.5 30.25 34.5 27.753906 C 34.5 27.628906 34.496094 27.503906 34.484375 27.378906 Z M 34.484375 27.378906 "/>
<path style=" stroke:none;fill-rule:nonzero;fill:url(#linear0);" d="M 6 3 L 42 3 C 43.65625 3 45 4.34375 45 6 L 45 42 C 45 43.65625 43.65625 45 42 45 L 6 45 C 4.34375 45 3 43.65625 3 42 L 3 6 C 3 4.34375 4.34375 3 6 3 Z M 6 3 "/>
</g>
</svg>
