
<svg xmlns="http://www.w3.org/2000/svg" xmlns:xlink="http://www.w3.org/1999/xlink" width="48" height="48" viewBox="0 0 48 48" version="1.1">
<defs>
<linearGradient id="linear0" gradientUnits="userSpaceOnUse" x1="32" y1="59.999996" x2="32" y2="4" gradientTransform="matrix(0.75,0,0,0.75,0,0.000000000000085265)">
<stop offset="0" style="stop-color:rgb(0%,0%,0%);stop-opacity:0.2;"/>
<stop offset="1" style="stop-color:rgb(100%,100%,100%);stop-opacity:0;"/>
</linearGradient>
</defs>
<g id="surface1">
<path style=" stroke:none;fill-rule:nonzero;fill:rgb(25.098041%,70.588237%,38.039216%);fill-opacity:1;" d="M 6 3 C 4.339844 3 3 4.339844 3 6 L 3 42 C 3 43.660156 4.339844 45 6 45 L 15 45 L 15 15 L 30 15 L 30 3 Z M 33 3 L 33 45 L 42 45 C 43.660156 45 45 43.660156 45 42 L 45 6 C 45 4.339844 43.660156 3 42 3 Z M 18 18 L 18 45 L 30 45 L 30 18 Z M 18 18 "/>
<path style=" stroke:none;fill-rule:nonzero;fill:rgb(100%,100%,100%);fill-opacity:0.4;" d="M 6 3 C 4.339844 3 3 4.339844 3 6 L 3 6.75 C 3 5.089844 4.339844 3.75 6 3.75 L 30 3.75 L 30 3 Z M 33 3 L 33 3.75 L 42 3.75 C 43.660156 3.75 45 5.089844 45 6.75 L 45 6 C 45 4.339844 43.660156 3 42 3 Z M 18 18 L 18 18.75 L 30 18.75 L 30 18 Z M 18 18 "/>
<path style=" stroke:none;fill-rule:nonzero;fill:rgb(0%,0%,0%);fill-opacity:0.4;" d="M 15 14.25 L 15 15 L 30 15 L 30 14.25 Z M 3 41.25 L 3 42 C 3 43.660156 4.339844 45 6 45 L 15 45 L 15 44.25 L 6 44.25 C 4.339844 44.25 3 42.910156 3 41.25 Z M 45 41.25 C 45 42.910156 43.660156 44.25 42 44.25 L 33 44.25 L 33 45 L 42 45 C 43.660156 45 45 43.660156 45 42 Z M 18 44.25 L 18 45 L 30 45 L 30 44.25 Z M 18 44.25 "/>
<path style=" stroke:none;fill-rule:nonzero;fill:rgb(0%,0%,0%);fill-opacity:0.2;" d="M 15 15 L 15 16.125 L 30 16.125 L 30 15 Z M 3 42 L 3 43.125 C 3 44.785156 4.339844 46.125 6 46.125 L 15 46.125 L 15 45 L 6 45 C 4.339844 45 3 43.660156 3 42 Z M 45 42 C 45 43.660156 43.660156 45 42 45 L 33 45 L 33 46.125 L 42 46.125 C 43.660156 46.125 45 44.785156 45 43.125 Z M 18 45 L 18 46.125 L 30 46.125 L 30 45 Z M 18 45 "/>
<path style=" stroke:none;fill-rule:nonzero;fill:url(#linear0);" d="M 6 3 C 4.339844 3 3 4.339844 3 6 L 3 42 C 3 43.660156 4.339844 45 6 45 L 15 45 L 15 15 L 30 15 L 30 3 Z M 33 3 L 33 45 L 42 45 C 43.660156 45 45 43.660156 45 42 L 45 6 C 45 4.339844 43.660156 3 42 3 Z M 18 18 L 18 45 L 30 45 L 30 18 Z M 18 18 "/>
</g>
</svg>
