
<svg xmlns="http://www.w3.org/2000/svg" xmlns:xlink="http://www.w3.org/1999/xlink" width="48" height="48" viewBox="0 0 48 48" version="1.1">
<defs>
<linearGradient id="linear0" gradientUnits="userSpaceOnUse" x1="31.999998" y1="57.999996" x2="31.999998" y2="6" gradientTransform="matrix(0.75,0,0,0.75,0,0.000000000000085265)">
<stop offset="0" style="stop-color:rgb(0%,0%,0%);stop-opacity:0.2;"/>
<stop offset="1" style="stop-color:rgb(100%,100%,100%);stop-opacity:0;"/>
</linearGradient>
</defs>
<g id="surface1">
<path style=" stroke:none;fill-rule:nonzero;fill:rgb(100%,70.19608%,0%);fill-opacity:1;" d="M 22.5 9.246094 L 25.5 9.246094 L 25.5 14.496094 L 22.5 14.496094 Z M 22.5 9.246094 "/>
<path style=" stroke:none;fill-rule:nonzero;fill:rgb(0%,58.823532%,53.333336%);fill-opacity:1;" d="M 33 28.5 C 37.5 28.5 45 30 45 18 C 39 15 35.558594 19.597656 31.5 22.5 Z M 33 28.5 "/>
<path style=" stroke:none;fill-rule:nonzero;fill:rgb(0%,0%,0%);fill-opacity:0.4;" d="M 44.988281 17.996094 C 44.683594 29.1875 37.40625 27.75 33 27.75 L 31.660156 22.382812 C 31.605469 22.421875 31.554688 22.460938 31.5 22.5 L 33 28.5 C 37.5 28.5 45 30 45 18 C 44.996094 18 44.992188 17.996094 44.988281 17.996094 Z M 44.988281 17.996094 "/>
<path style=" stroke:none;fill-rule:nonzero;fill:rgb(100%,100%,100%);fill-opacity:0.4;" d="M 41.164062 17.023438 C 37.351562 17.0625 34.609375 20.277344 31.5 22.5 L 31.660156 23.132812 C 35.648438 20.226562 39.074219 15.792969 44.988281 18.746094 C 44.996094 18.503906 45 18.253906 45 18 C 43.59375 17.296875 42.328125 17.011719 41.160156 17.023438 Z M 41.164062 17.023438 "/>
<path style=" stroke:none;fill-rule:nonzero;fill:rgb(14.901961%,65.098041%,60.392159%);fill-opacity:1;" d="M 15 28.5 C 10.5 28.5 3 30 3 18 C 9 15 12.441406 19.597656 16.5 22.5 Z M 15 28.5 "/>
<path style=" stroke:none;fill-rule:nonzero;fill:rgb(0%,0%,0%);fill-opacity:0.4;" d="M 3.011719 17.996094 C 3.007812 17.996094 3.003906 18 3 18 C 3 30 10.5 28.5 15 28.5 L 16.5 22.5 C 16.445312 22.464844 16.394531 22.425781 16.339844 22.386719 L 15 27.75 C 10.59375 27.75 3.316406 29.1875 3.011719 17.996094 Z M 3.011719 17.996094 "/>
<path style=" stroke:none;fill-rule:nonzero;fill:rgb(100%,100%,100%);fill-opacity:0.4;" d="M 6.839844 17.023438 C 5.671875 17.011719 4.40625 17.296875 3 18 C 3 18.253906 3.003906 18.503906 3.011719 18.746094 C 8.925781 15.792969 12.351562 20.226562 16.34375 23.132812 L 16.5 22.5 C 13.390625 20.277344 10.648438 17.0625 6.839844 17.023438 Z M 6.839844 17.023438 "/>
<path style=" stroke:none;fill-rule:nonzero;fill:rgb(14.901961%,65.098041%,60.392159%);fill-opacity:1;" d="M 24 13.5 C 32.285156 13.5 39 20.214844 39 28.5 C 39 36.785156 32.285156 43.5 24 43.5 C 15.714844 43.5 9 36.785156 9 28.5 C 9 20.214844 15.714844 13.5 24 13.5 Z M 24 13.5 "/>
<path style=" stroke:none;fill-rule:nonzero;fill:rgb(100%,79.215688%,15.686275%);fill-opacity:1;" d="M 24 4.371094 C 25.65625 4.371094 27 5.710938 27 7.371094 C 27 9.027344 25.65625 10.371094 24 10.371094 C 22.34375 10.371094 21 9.027344 21 7.371094 C 21 5.710938 22.34375 4.371094 24 4.371094 Z M 24 4.371094 "/>
<path style=" stroke:none;fill-rule:nonzero;fill:rgb(30.19608%,71.372551%,67.450982%);fill-opacity:1;" d="M 24 13.5 C 15.691406 13.5 9 20.191406 9 28.5 C 9 36.808594 15.691406 43.5 24 43.5 Z M 24 13.5 "/>
<path style=" stroke:none;fill-rule:nonzero;fill:rgb(38.039216%,38.039216%,38.039216%);fill-opacity:1;" d="M 15 24 C 15.828125 24 16.5 25.007812 16.5 26.25 C 16.5 27.492188 15.828125 28.5 15 28.5 C 14.171875 28.5 13.5 27.492188 13.5 26.25 C 13.5 25.007812 14.171875 24 15 24 Z M 15 24 "/>
<path style=" stroke:none;fill-rule:nonzero;fill:rgb(38.039216%,38.039216%,38.039216%);fill-opacity:1;" d="M 21.910156 38.027344 L 18.753906 36.046875 C 17.636719 35.339844 17.226562 33.871094 17.886719 32.71875 C 18.582031 31.523438 20.132812 31.144531 21.304688 31.875 L 22.910156 32.890625 C 23.570312 33.3125 24.414062 33.3125 25.078125 32.890625 L 26.683594 31.875 C 27.824219 31.15625 29.328125 31.5 30.054688 32.640625 C 30.773438 33.777344 30.433594 35.28125 29.292969 36.011719 L 26.089844 38.027344 C 24.804688 38.824219 23.183594 38.824219 21.910156 38.027344 Z M 21.910156 38.027344 "/>
<path style=" stroke:none;fill-rule:nonzero;fill:rgb(95.686275%,26.274511%,21.176471%);fill-opacity:1;" d="M 24 35.25 C 22.574219 35.25 21.359375 36.125 20.863281 37.371094 L 21.910156 38.027344 C 23.183594 38.828125 24.804688 38.828125 26.089844 38.027344 L 27.136719 37.371094 C 26.640625 36.125 25.425781 35.25 24 35.25 Z M 24 35.25 "/>
<path style=" stroke:none;fill-rule:nonzero;fill:rgb(0%,0%,0%);fill-opacity:0.4;" d="M 27.941406 31.5 C 27.507812 31.503906 27.074219 31.628906 26.683594 31.875 L 25.078125 32.890625 C 24.414062 33.3125 23.574219 33.3125 22.910156 32.890625 L 21.304688 31.875 C 20.132812 31.144531 18.582031 31.523438 17.886719 32.71875 C 17.605469 33.207031 17.519531 33.753906 17.597656 34.273438 C 17.636719 33.988281 17.734375 33.707031 17.886719 33.4375 C 18.582031 32.242188 20.132812 31.867188 21.304688 32.597656 L 22.910156 33.609375 C 23.574219 34.03125 24.414062 34.03125 25.078125 33.609375 L 26.683594 32.597656 C 27.820312 31.878906 29.328125 32.222656 30.054688 33.359375 C 30.242188 33.65625 30.355469 33.972656 30.40625 34.296875 C 30.488281 33.738281 30.378906 33.152344 30.054688 32.636719 C 29.578125 31.890625 28.765625 31.488281 27.941406 31.5 Z M 27.941406 31.5 "/>
<path style=" stroke:none;fill-rule:nonzero;fill:rgb(100%,100%,100%);fill-opacity:0.4;" d="M 23.933594 35.25 C 22.535156 35.277344 21.351562 36.144531 20.863281 37.371094 L 20.996094 37.457031 C 21.554688 36.367188 22.6875 35.625 24 35.625 C 25.3125 35.625 26.445312 36.367188 27.003906 37.453125 L 27.136719 37.371094 C 26.640625 36.125 25.425781 35.25 24 35.25 C 23.976562 35.25 23.953125 35.25 23.933594 35.25 Z M 23.933594 35.25 "/>
<path style=" stroke:none;fill-rule:nonzero;fill:rgb(100%,100%,100%);fill-opacity:0.4;" d="M 17.597656 34.289062 C 17.449219 35.246094 17.890625 36.246094 18.753906 36.792969 L 21.910156 38.777344 C 23.183594 39.574219 24.804688 39.574219 26.089844 38.777344 L 29.292969 36.757812 C 30.140625 36.214844 30.546875 35.242188 30.402344 34.308594 C 30.300781 34.984375 29.914062 35.613281 29.292969 36.011719 L 26.089844 38.03125 C 24.804688 38.828125 23.183594 38.828125 21.910156 38.03125 L 18.753906 36.046875 C 18.113281 35.644531 17.707031 34.988281 17.597656 34.289062 Z M 17.597656 34.289062 "/>
<path style=" stroke:none;fill-rule:nonzero;fill:rgb(100%,100%,100%);fill-opacity:0.4;" d="M 15 24 C 14.167969 24 13.5 25.003906 13.5 26.25 C 13.5 26.375 13.507812 26.5 13.523438 26.617188 C 13.640625 25.554688 14.253906 24.75 15 24.75 C 15.746094 24.75 16.359375 25.554688 16.476562 26.617188 C 16.492188 26.5 16.5 26.375 16.5 26.25 C 16.5 25.003906 15.832031 24 15 24 Z M 15 24 "/>
<path style=" stroke:none;fill-rule:nonzero;fill:rgb(0.784314%,0.784314%,0.784314%);fill-opacity:0.4;" d="M 15 29.25 C 14.167969 29.25 13.5 28.246094 13.5 27 C 13.5 26.875 13.507812 26.75 13.523438 26.628906 C 13.640625 27.695312 14.253906 28.5 15 28.5 C 15.746094 28.5 16.359375 27.695312 16.476562 26.628906 C 16.492188 26.75 16.5 26.875 16.5 27 C 16.5 28.246094 15.832031 29.25 15 29.25 Z M 15 29.25 "/>
<path style=" stroke:none;fill-rule:nonzero;fill:rgb(100%,100%,100%);fill-opacity:0.4;" d="M 24 13.5 C 15.691406 13.5 9 20.191406 9 28.5 C 9 28.613281 9 28.726562 9.003906 28.839844 C 9.207031 20.710938 15.820312 14.226562 24 14.226562 C 32.179688 14.226562 38.792969 20.710938 38.996094 28.839844 C 39 28.726562 39 28.613281 39 28.5 C 39 20.191406 32.308594 13.5 24 13.5 Z M 24 13.5 "/>
<path style=" stroke:none;fill-rule:nonzero;fill:rgb(0.392157%,0.392157%,0.392157%);fill-opacity:0.4;" d="M 24 43.5 C 15.691406 43.5 9 36.808594 9 28.5 C 9 28.386719 9 28.273438 9.003906 28.160156 C 9.207031 36.289062 15.820312 42.773438 24 42.773438 C 32.179688 42.773438 38.792969 36.289062 38.996094 28.160156 C 39 28.273438 39 28.386719 39 28.5 C 39 36.808594 32.308594 43.5 24 43.5 Z M 24 43.5 "/>
<path style=" stroke:none;fill-rule:nonzero;fill:rgb(100%,100%,100%);fill-opacity:0.4;" d="M 24 4.371094 C 22.339844 4.371094 21 5.707031 21 7.371094 C 21 7.496094 21.007812 7.621094 21.023438 7.746094 C 21.207031 6.261719 22.464844 5.121094 24 5.121094 C 25.535156 5.121094 26.792969 6.261719 26.976562 7.746094 C 26.992188 7.621094 27 7.496094 27 7.371094 C 27 5.707031 25.660156 4.371094 24 4.371094 Z M 24 4.371094 "/>
<path style=" stroke:none;fill-rule:nonzero;fill:rgb(11.372549%,11.372549%,11.372549%);fill-opacity:0.4;" d="M 22.5 9.972656 L 22.5 10.71875 C 22.941406 10.972656 23.453125 11.121094 24 11.121094 C 24.546875 11.121094 25.058594 10.972656 25.5 10.71875 L 25.5 9.972656 C 25.058594 10.222656 24.546875 10.371094 24 10.371094 C 23.453125 10.371094 22.941406 10.222656 22.5 9.972656 Z M 22.5 9.972656 "/>
<path style=" stroke:none;fill-rule:nonzero;fill:rgb(38.039216%,38.039216%,38.039216%);fill-opacity:1;" d="M 33 24 C 33.828125 24 34.5 25.007812 34.5 26.25 C 34.5 27.492188 33.828125 28.5 33 28.5 C 32.171875 28.5 31.5 27.492188 31.5 26.25 C 31.5 25.007812 32.171875 24 33 24 Z M 33 24 "/>
<path style=" stroke:none;fill-rule:nonzero;fill:rgb(100%,100%,100%);fill-opacity:0.4;" d="M 33 24 C 32.167969 24 31.5 25.003906 31.5 26.25 C 31.5 26.375 31.507812 26.5 31.523438 26.617188 C 31.640625 25.554688 32.253906 24.75 33 24.75 C 33.746094 24.75 34.359375 25.554688 34.476562 26.617188 C 34.492188 26.5 34.5 26.375 34.5 26.25 C 34.5 25.003906 33.832031 24 33 24 Z M 33 24 "/>
<path style=" stroke:none;fill-rule:nonzero;fill:rgb(0.784314%,0.784314%,0.784314%);fill-opacity:0.4;" d="M 33 29.25 C 32.167969 29.25 31.5 28.246094 31.5 27 C 31.5 26.875 31.507812 26.75 31.523438 26.628906 C 31.640625 27.695312 32.253906 28.5 33 28.5 C 33.746094 28.5 34.359375 27.695312 34.476562 26.628906 C 34.492188 26.75 34.5 26.875 34.5 27 C 34.5 28.246094 33.832031 29.25 33 29.25 Z M 33 29.25 "/>
<path style=" stroke:none;fill-rule:nonzero;fill:rgb(0%,0%,0%);fill-opacity:0.2;" d="M 9.011719 29.082031 C 9.003906 29.269531 9 29.457031 9 29.648438 C 9 37.957031 15.691406 44.648438 24 44.648438 C 32.308594 44.648438 39 37.957031 39 29.648438 C 39 29.457031 38.996094 29.269531 38.988281 29.082031 C 38.691406 37.125 32.121094 43.511719 24 43.511719 C 15.878906 43.511719 9.308594 37.125 9.011719 29.082031 Z M 9.011719 29.082031 "/>
<path style=" stroke:none;fill-rule:nonzero;fill:url(#linear0);" d="M 24 4.371094 C 22.339844 4.371094 21 5.707031 21 7.371094 C 21 8.484375 21.601562 9.453125 22.5 9.96875 L 22.5 13.574219 C 18.34375 13.984375 14.695312 16.078125 12.242188 19.167969 C 9.65625 17.285156 6.859375 16.070312 3 18 C 3 25.332031 5.800781 27.621094 9.003906 28.296875 C 9.003906 28.363281 9 28.433594 9 28.5 C 9 36.808594 15.691406 43.5 24 43.5 C 32.308594 43.5 39 36.808594 39 28.5 C 39 28.433594 38.996094 28.363281 38.996094 28.296875 C 42.199219 27.621094 45 25.332031 45 18 C 41.140625 16.070312 38.34375 17.285156 35.757812 19.167969 C 33.304688 16.078125 29.65625 13.984375 25.5 13.574219 L 25.5 9.96875 C 26.398438 9.453125 27 8.484375 27 7.371094 C 27 5.707031 25.660156 4.371094 24 4.371094 Z M 24 4.371094 "/>
</g>
</svg>
