
<svg xmlns="http://www.w3.org/2000/svg" xmlns:xlink="http://www.w3.org/1999/xlink" width="22" height="22" viewBox="0 0 22 22" version="1.1">
<defs>
<linearGradient id="linear0" gradientUnits="userSpaceOnUse" x1="31.999998" y1="60" x2="31.999998" y2="3.999999" gradientTransform="matrix(0.34375,0,0,0.34375,0,0.00000000000003908)">
<stop offset="0" style="stop-color:rgb(0%,0%,0%);stop-opacity:0.2;"/>
<stop offset="1" style="stop-color:rgb(100%,100%,100%);stop-opacity:0;"/>
</linearGradient>
</defs>
<g id="surface1">
<path style=" stroke:none;fill-rule:nonzero;fill:rgb(12.54902%,59.215689%,54.901963%);fill-opacity:1;" d="M 13.0625 2.75 C 12.550781 2.75 12.109375 3.027344 11.871094 3.4375 L 3.4375 3.4375 C 2.675781 3.4375 2.0625 4.050781 2.0625 4.8125 L 2.0625 6.875 C 2.0625 7.636719 2.675781 8.25 3.4375 8.25 L 18.5625 8.25 C 19.324219 8.25 19.9375 7.636719 19.9375 6.875 L 19.9375 4.125 C 19.9375 3.363281 19.324219 2.75 18.5625 2.75 Z M 13.0625 2.75 "/>
<path style=" stroke:none;fill-rule:nonzero;fill:rgb(100%,100%,100%);fill-opacity:0.4;" d="M 13.0625 2.75 C 12.550781 2.75 12.109375 3.027344 11.871094 3.4375 L 3.4375 3.4375 C 2.675781 3.4375 2.0625 4.050781 2.0625 4.8125 L 2.0625 4.839844 C 2.136719 4.144531 2.71875 3.609375 3.429688 3.609375 L 11.863281 3.609375 C 12.101562 3.199219 12.542969 2.921875 13.054688 2.921875 L 18.554688 2.921875 C 19.316406 2.921875 19.929688 3.535156 19.929688 4.296875 L 19.929688 7.019531 C 19.933594 6.972656 19.9375 6.925781 19.9375 6.875 L 19.9375 4.125 C 19.9375 3.363281 19.324219 2.75 18.5625 2.75 Z M 13.0625 2.75 "/>
<path style=" stroke:none;fill-rule:nonzero;fill:rgb(9.019608%,72.156864%,61.176473%);fill-opacity:1;" d="M 2.75 4.125 C 1.988281 4.125 1.375 4.738281 1.375 5.5 L 1.375 17.875 C 1.375 18.636719 1.988281 19.25 2.75 19.25 L 19.25 19.25 C 20.011719 19.25 20.625 18.636719 20.625 17.875 L 20.625 6.875 C 20.625 6.113281 20.011719 5.5 19.25 5.5 L 13.082031 5.5 C 13.074219 5.5 13.070312 5.5 13.0625 5.5 C 12.679688 5.5 12.375 5.195312 12.375 4.8125 C 12.375 4.429688 12.070312 4.125 11.6875 4.125 Z M 2.75 4.125 "/>
<path style=" stroke:none;fill-rule:nonzero;fill:rgb(100%,100%,100%);fill-opacity:0.4;" d="M 2.75 4.125 C 1.988281 4.125 1.375 4.738281 1.375 5.5 L 1.375 5.84375 C 1.375 5.082031 1.988281 4.46875 2.75 4.46875 L 11.6875 4.46875 C 12.070312 4.46875 12.375 4.773438 12.375 5.15625 C 12.375 5.539062 12.679688 5.84375 13.0625 5.84375 C 13.070312 5.84375 13.074219 5.84375 13.082031 5.84375 L 19.25 5.84375 C 20.011719 5.84375 20.625 6.457031 20.625 7.21875 L 20.625 6.875 C 20.625 6.113281 20.011719 5.5 19.25 5.5 L 13.082031 5.5 C 13.074219 5.5 13.070312 5.5 13.0625 5.5 C 12.679688 5.5 12.375 5.195312 12.375 4.8125 C 12.375 4.429688 12.070312 4.125 11.6875 4.125 Z M 2.75 4.125 "/>
<path style=" stroke:none;fill-rule:nonzero;fill:rgb(0%,0%,0%);fill-opacity:0.4;" d="M 1.375 17.53125 L 1.375 17.875 C 1.375 18.636719 1.988281 19.25 2.75 19.25 L 19.25 19.25 C 20.011719 19.25 20.625 18.636719 20.625 17.875 L 20.625 17.53125 C 20.625 18.292969 20.011719 18.90625 19.25 18.90625 L 2.75 18.90625 C 1.988281 18.90625 1.375 18.292969 1.375 17.53125 Z M 1.375 17.53125 "/>
<path style=" stroke:none;fill-rule:nonzero;fill:rgb(0%,0%,0%);fill-opacity:0.2;" d="M 1.375 17.875 L 1.375 18.390625 C 1.375 19.152344 1.988281 19.765625 2.75 19.765625 L 19.25 19.765625 C 20.011719 19.765625 20.625 19.152344 20.625 18.390625 L 20.625 17.875 C 20.625 18.636719 20.011719 19.25 19.25 19.25 L 2.75 19.25 C 1.988281 19.25 1.375 18.636719 1.375 17.875 Z M 1.375 17.875 "/>
<path style=" stroke:none;fill-rule:nonzero;fill:rgb(20%,90.196079%,77.64706%);fill-opacity:1;" d="M 9.96875 8.253906 C 8.253906 8.253906 6.875 9.632812 6.875 11.347656 C 6.875 13.058594 8.253906 14.441406 9.96875 14.441406 C 10.757812 14.441406 11.472656 14.148438 12.019531 13.667969 L 14.386719 15.035156 C 14.636719 15.179688 14.949219 15.09375 15.09375 14.847656 L 15.265625 14.546875 C 15.40625 14.300781 15.324219 13.988281 15.074219 13.84375 L 12.824219 12.542969 C 12.976562 12.175781 13.0625 11.769531 13.0625 11.347656 C 13.0625 9.632812 11.683594 8.253906 9.96875 8.253906 Z M 9.96875 8.941406 C 11.300781 8.941406 12.375 10.011719 12.375 11.347656 C 12.375 12.679688 11.300781 13.753906 9.96875 13.753906 C 8.636719 13.753906 7.5625 12.679688 7.5625 11.347656 C 7.5625 10.011719 8.636719 8.941406 9.96875 8.941406 Z M 9.96875 9.285156 C 8.824219 9.285156 7.90625 10.203125 7.90625 11.347656 L 8.59375 11.347656 C 8.59375 10.585938 9.207031 9.972656 9.96875 9.972656 Z M 9.96875 9.285156 "/>
<path style=" stroke:none;fill-rule:nonzero;fill:rgb(0%,0%,0%);fill-opacity:0.4;" d="M 9.96875 8.9375 C 8.636719 8.9375 7.5625 10.011719 7.5625 11.34375 C 7.5625 11.371094 7.5625 11.402344 7.566406 11.429688 C 7.609375 10.136719 8.664062 9.109375 9.96875 9.109375 C 11.273438 9.109375 12.328125 10.136719 12.371094 11.429688 C 12.375 11.402344 12.375 11.371094 12.375 11.34375 C 12.375 10.011719 11.300781 8.9375 9.96875 8.9375 Z M 9.96875 9.96875 C 9.207031 9.96875 8.59375 10.582031 8.59375 11.34375 L 7.914062 11.34375 C 7.910156 11.402344 7.90625 11.457031 7.90625 11.515625 L 8.59375 11.515625 C 8.59375 10.753906 9.207031 10.140625 9.96875 10.140625 Z M 13.0625 11.429688 C 13.050781 11.824219 12.96875 12.199219 12.824219 12.542969 L 12.878906 12.574219 C 12.996094 12.242188 13.0625 11.886719 13.0625 11.515625 C 13.0625 11.488281 13.0625 11.457031 13.0625 11.429688 Z M 6.875 11.429688 C 6.875 11.460938 6.875 11.488281 6.875 11.515625 C 6.875 13.230469 8.253906 14.609375 9.96875 14.609375 C 10.757812 14.609375 11.472656 14.320312 12.019531 13.839844 L 14.386719 15.207031 C 14.636719 15.347656 14.949219 15.265625 15.09375 15.019531 L 15.265625 14.71875 C 15.328125 14.609375 15.347656 14.488281 15.328125 14.375 C 15.316406 14.433594 15.296875 14.492188 15.265625 14.546875 L 15.09375 14.84375 C 14.949219 15.09375 14.636719 15.175781 14.386719 15.03125 L 12.019531 13.664062 C 11.472656 14.144531 10.757812 14.4375 9.96875 14.4375 C 8.285156 14.4375 6.921875 13.105469 6.875 11.429688 Z M 6.875 11.429688 "/>
<path style=" stroke:none;fill-rule:nonzero;fill:rgb(99.607843%,99.607843%,99.607843%);fill-opacity:0.4;" d="M 9.96875 8.253906 C 8.253906 8.253906 6.875 9.632812 6.875 11.347656 C 6.875 11.375 6.875 11.402344 6.875 11.433594 C 6.921875 9.757812 8.285156 8.425781 9.96875 8.425781 C 11.652344 8.425781 13.015625 9.757812 13.0625 11.429688 C 13.0625 11.402344 13.0625 11.375 13.0625 11.347656 C 13.0625 9.632812 11.683594 8.253906 9.96875 8.253906 Z M 9.96875 9.285156 C 8.824219 9.285156 7.90625 10.203125 7.90625 11.347656 L 7.914062 11.347656 C 8 10.285156 8.882812 9.457031 9.96875 9.457031 Z M 7.566406 11.433594 C 7.5625 11.460938 7.5625 11.488281 7.5625 11.519531 C 7.5625 12.851562 8.636719 13.925781 9.96875 13.925781 C 11.300781 13.925781 12.375 12.851562 12.375 11.519531 C 12.375 11.488281 12.375 11.460938 12.371094 11.433594 C 12.328125 12.726562 11.273438 13.753906 9.96875 13.753906 C 8.664062 13.753906 7.609375 12.726562 7.566406 11.433594 Z M 12.878906 12.574219 C 12.859375 12.621094 12.84375 12.667969 12.824219 12.714844 L 15.074219 14.015625 C 15.214844 14.097656 15.300781 14.230469 15.328125 14.375 C 15.359375 14.167969 15.265625 13.953125 15.074219 13.84375 Z M 12.878906 12.574219 "/>
<path style=" stroke:none;fill-rule:nonzero;fill:url(#linear0);" d="M 13.0625 2.75 C 12.550781 2.75 12.109375 3.027344 11.871094 3.4375 L 3.4375 3.4375 C 2.878906 3.4375 2.398438 3.769531 2.183594 4.246094 C 1.707031 4.460938 1.375 4.941406 1.375 5.5 L 1.375 17.875 C 1.375 18.636719 1.988281 19.25 2.75 19.25 L 19.25 19.25 C 20.011719 19.25 20.625 18.636719 20.625 17.875 L 20.625 6.875 C 20.625 6.363281 20.347656 5.921875 19.9375 5.683594 L 19.9375 4.125 C 19.9375 3.363281 19.324219 2.75 18.5625 2.75 Z M 13.0625 2.75 "/>
</g>
</svg>
