
<svg xmlns="http://www.w3.org/2000/svg" xmlns:xlink="http://www.w3.org/1999/xlink" width="22" height="22" viewBox="0 0 22 22" version="1.1">
<defs>
<linearGradient id="linear0" gradientUnits="userSpaceOnUse" x1="8.466666" y1="-199.125" x2="8.466666" y2="-213.941666" gradientTransform="matrix(1.299213,0,0,1.299213,0,279.330723)">
<stop offset="0" style="stop-color:rgb(0%,0%,0%);stop-opacity:0.2;"/>
<stop offset="1" style="stop-color:rgb(100%,100%,100%);stop-opacity:0;"/>
</linearGradient>
</defs>
<g id="surface1">
<path style=" stroke:none;fill-rule:nonzero;fill:rgb(36.078432%,41.960785%,75.294119%);fill-opacity:1;" d="M 11 1.371094 C 16.316406 1.371094 20.625 5.683594 20.625 11 C 20.625 16.316406 16.316406 20.625 11 20.625 C 5.683594 20.625 1.371094 16.316406 1.371094 11 C 1.371094 5.683594 5.683594 1.371094 11 1.371094 Z M 11 1.371094 "/>
<path style=" stroke:none;fill-rule:nonzero;fill:rgb(100%,100%,100%);fill-opacity:0.4;" d="M 11 1.375 C 5.683594 1.375 1.375 5.683594 1.375 11 C 1.375 11.058594 1.375 11.113281 1.378906 11.171875 C 1.46875 5.933594 5.742188 1.71875 11 1.71875 C 16.257812 1.71875 20.53125 5.933594 20.621094 11.171875 C 20.625 11.113281 20.625 11.058594 20.625 11 C 20.625 5.683594 16.316406 1.375 11 1.375 Z M 11 1.375 "/>
<path style=" stroke:none;fill-rule:nonzero;fill:rgb(0%,0%,0%);fill-opacity:0.4;" d="M 1.378906 10.824219 C 1.378906 10.882812 1.375 10.9375 1.375 10.996094 C 1.375 16.3125 5.683594 20.621094 11 20.621094 C 16.316406 20.621094 20.625 16.3125 20.625 10.996094 C 20.625 10.9375 20.621094 10.882812 20.621094 10.824219 C 20.527344 16.0625 16.257812 20.28125 11 20.28125 C 5.742188 20.28125 1.472656 16.0625 1.378906 10.824219 Z M 1.378906 10.824219 "/>
<path style=" stroke:none;fill-rule:nonzero;fill:rgb(0%,0%,0%);fill-opacity:0.2;" d="M 1.378906 11.257812 C 1.378906 11.34375 1.375 11.429688 1.375 11.515625 C 1.375 16.832031 5.683594 21.140625 11 21.140625 C 16.316406 21.140625 20.625 16.832031 20.625 11.515625 C 20.625 11.429688 20.621094 11.34375 20.621094 11.257812 C 20.484375 16.453125 16.230469 20.625 11 20.625 C 5.769531 20.625 1.515625 16.453125 1.378906 11.257812 Z M 1.378906 11.257812 "/>
<path style=" stroke:none;fill-rule:nonzero;fill:rgb(93.333334%,93.333334%,93.333334%);fill-opacity:1;" d="M 14.125 6.195312 C 14.050781 6.195312 13.96875 6.207031 13.875 6.238281 C 13.277344 6.332031 13.496094 7.25 13.75 8.113281 C 13.769531 8.332031 13.539062 8.234375 13.40625 8.003906 C 12.945312 6.769531 12.75 6.789062 12.625 6.75 C 12.5 6.722656 12.066406 6.988281 12.078125 7.488281 C 12.078125 7.632812 12.246094 8.308594 12.246094 8.519531 C 11.964844 8.765625 11.953125 9.328125 11.652344 9.535156 C 10.9375 8.847656 8.128906 8.320312 7.019531 9.421875 C 5.855469 8.085938 4.074219 7.097656 3.300781 6.925781 C 3.144531 6.890625 2.792969 6.75 2.441406 6.59375 C 2.398438 6.675781 2.359375 6.753906 2.320312 6.835938 C 3 7.195312 3.808594 7.621094 4.289062 7.921875 C 5.261719 8.519531 6.574219 9.734375 6.675781 9.9375 C 5.667969 11.699219 6.125 13.253906 6.007812 13.421875 C 5.917969 13.558594 5.125 14.433594 5.382812 14.558594 C 5.636719 14.6875 6.039062 14.488281 6.101562 14.449219 C 6.226562 14.371094 6.359375 14.257812 6.304688 14.480469 C 6.195312 14.941406 5.707031 16.042969 6.378906 15.808594 C 6.460938 15.761719 7.546875 14.570312 7.675781 14.527344 C 9.832031 15.089844 12.242188 14.832031 12.6875 14.621094 C 12.917969 14.636719 13.578125 15.050781 13.953125 15.25 C 14.328125 15.445312 15.347656 15.933594 15.046875 15.042969 C 14.953125 14.761719 14.28125 14.046875 14.390625 14 C 14.628906 13.902344 15.222656 14.246094 15.453125 14.308594 C 16.132812 14.5 16.226562 14.234375 15.796875 13.652344 C 15.367188 13.070312 15.304688 13.160156 15.171875 12.890625 C 15.066406 12.671875 15.171875 12.433594 15.25 12.375 C 15.386719 12.269531 17.425781 11.136719 17.90625 10.703125 C 18.613281 10.058594 17.90625 9.257812 17.730469 9.140625 C 16.261719 8.085938 14.753906 8.308594 14.734375 8.140625 C 14.703125 7.519531 14.839844 6.195312 14.125 6.195312 Z M 17.472656 7.265625 C 17.472656 7.265625 17.46875 7.265625 17.464844 7.269531 C 17.183594 7.570312 17.234375 8.699219 17.292969 8.691406 C 17.570312 8.632812 17.554688 7.265625 17.472656 7.265625 Z M 18.269531 7.433594 C 18.179688 7.441406 17.511719 8.402344 17.636719 8.769531 C 17.695312 8.933594 18.378906 7.730469 18.277344 7.4375 C 18.277344 7.433594 18.273438 7.433594 18.269531 7.433594 Z M 14.390625 9.164062 L 14.4375 9.207031 C 14.535156 9.582031 15.179688 9.742188 15.351562 9.765625 C 15.421875 9.773438 14.902344 10.074219 14.640625 9.9375 C 14.402344 9.796875 14.335938 9.226562 14.390625 9.164062 Z M 15.972656 10.632812 C 15.996094 10.632812 16.011719 10.636719 16.03125 10.640625 C 16.171875 10.675781 15.027344 11.269531 14.9375 11.1875 C 14.882812 11.136719 15.546875 10.707031 15.90625 10.640625 C 15.929688 10.636719 15.953125 10.632812 15.972656 10.632812 Z M 16.191406 11.015625 C 16.195312 11.015625 16.199219 11.015625 16.203125 11.015625 C 16.320312 11.023438 15.542969 11.835938 15.453125 11.75 C 15.390625 11.691406 15.941406 11.019531 16.191406 11.015625 Z M 16.191406 11.015625 "/>
<path style=" stroke:none;fill-rule:nonzero;fill:rgb(100%,100%,100%);fill-opacity:0.8;" d="M 14.125 6.195312 C 14.050781 6.195312 13.96875 6.207031 13.875 6.238281 C 13.546875 6.289062 13.46875 6.59375 13.503906 6.996094 C 13.535156 6.769531 13.644531 6.613281 13.875 6.578125 C 13.96875 6.546875 14.050781 6.53125 14.125 6.53125 C 14.839844 6.53125 14.703125 7.859375 14.734375 8.480469 C 14.753906 8.648438 16.261719 8.421875 17.730469 9.480469 C 17.832031 9.546875 18.121094 9.851562 18.195312 10.226562 C 18.304688 9.714844 17.863281 9.230469 17.730469 9.140625 C 17.714844 9.128906 17.699219 9.121094 17.683594 9.109375 C 17.660156 9.125 17.644531 9.125 17.636719 9.105469 C 17.632812 9.097656 17.632812 9.085938 17.628906 9.074219 C 17.550781 9.023438 17.472656 8.972656 17.394531 8.925781 C 17.367188 8.980469 17.332031 9.019531 17.292969 9.027344 C 17.277344 9.03125 17.261719 8.957031 17.253906 8.84375 C 15.953125 8.132812 14.75 8.292969 14.734375 8.140625 C 14.703125 7.519531 14.839844 6.195312 14.125 6.195312 Z M 2.441406 6.59375 C 2.398438 6.675781 2.359375 6.753906 2.320312 6.835938 C 2.453125 6.90625 2.597656 6.984375 2.734375 7.058594 C 2.976562 7.160156 3.191406 7.238281 3.300781 7.261719 C 4.074219 7.433594 5.855469 8.425781 7.019531 9.761719 C 8.128906 8.65625 10.9375 9.183594 11.652344 9.871094 C 11.953125 9.667969 11.964844 9.101562 12.246094 8.855469 C 12.246094 8.792969 12.230469 8.683594 12.207031 8.5625 C 11.964844 8.824219 11.9375 9.339844 11.652344 9.535156 C 10.9375 8.847656 8.128906 8.320312 7.019531 9.421875 C 5.855469 8.085938 4.074219 7.097656 3.300781 6.925781 C 3.144531 6.890625 2.792969 6.75 2.441406 6.59375 Z M 12.625 6.75 C 12.5 6.722656 12.066406 6.988281 12.078125 7.488281 C 12.078125 7.515625 12.085938 7.574219 12.097656 7.632812 C 12.183594 7.257812 12.519531 7.066406 12.625 7.089844 C 12.75 7.125 12.945312 7.105469 13.40625 8.339844 C 13.539062 8.574219 13.769531 8.667969 13.75 8.449219 C 13.726562 8.378906 13.707031 8.308594 13.6875 8.234375 C 13.613281 8.242188 13.492188 8.152344 13.40625 8.003906 C 12.945312 6.769531 12.75 6.789062 12.625 6.75 Z M 17.472656 7.265625 C 17.472656 7.265625 17.46875 7.265625 17.464844 7.269531 C 17.269531 7.476562 17.234375 8.078125 17.25 8.429688 C 17.269531 8.109375 17.324219 7.753906 17.464844 7.605469 C 17.46875 7.601562 17.472656 7.601562 17.472656 7.601562 C 17.496094 7.601562 17.511719 7.707031 17.519531 7.855469 C 17.53125 7.542969 17.511719 7.265625 17.472656 7.265625 Z M 18.269531 7.433594 C 18.179688 7.441406 17.511719 8.402344 17.636719 8.769531 C 17.640625 8.78125 17.648438 8.785156 17.660156 8.78125 C 17.769531 8.410156 18.09375 7.929688 18.222656 7.804688 C 18.277344 7.648438 18.304688 7.511719 18.277344 7.4375 C 18.277344 7.433594 18.273438 7.433594 18.269531 7.433594 Z M 14.390625 9.5 C 14.335938 9.5625 14.402344 10.132812 14.640625 10.277344 C 14.902344 10.414062 15.421875 10.109375 15.351562 10.101562 C 15.269531 10.089844 15.082031 10.046875 14.894531 9.964844 C 14.804688 9.980469 14.714844 9.976562 14.640625 9.9375 C 14.519531 9.867188 14.445312 9.683594 14.40625 9.511719 Z M 6.570312 10.136719 C 6.039062 11.171875 5.988281 12.113281 6.003906 12.726562 C 6.019531 12.082031 6.140625 11.207031 6.675781 10.273438 C 6.664062 10.246094 6.625 10.199219 6.570312 10.136719 Z M 15.972656 10.972656 C 15.953125 10.972656 15.929688 10.972656 15.90625 10.976562 C 15.546875 11.042969 14.882812 11.472656 14.9375 11.523438 C 15.027344 11.609375 16.171875 11.011719 16.03125 10.976562 C 16.011719 10.976562 15.996094 10.972656 15.972656 10.972656 Z M 16.191406 11.351562 C 15.941406 11.355469 15.390625 12.03125 15.453125 12.089844 C 15.542969 12.171875 16.320312 11.363281 16.203125 11.355469 C 16.199219 11.351562 16.195312 11.355469 16.191406 11.355469 Z M 15.15625 12.855469 C 15.121094 12.960938 15.105469 13.097656 15.171875 13.226562 C 15.304688 13.496094 15.367188 13.40625 15.796875 13.992188 C 15.890625 14.117188 15.957031 14.226562 16 14.320312 C 16.117188 14.226562 16.046875 13.992188 15.796875 13.652344 C 15.367188 13.070312 15.304688 13.160156 15.171875 12.890625 C 15.164062 12.878906 15.160156 12.867188 15.15625 12.855469 Z M 6.019531 13.382812 C 6.015625 13.398438 6.011719 13.414062 6.007812 13.421875 C 5.917969 13.558594 5.125 14.433594 5.382812 14.558594 C 5.390625 14.566406 5.402344 14.566406 5.414062 14.570312 C 5.582031 14.265625 5.949219 13.851562 6.007812 13.757812 C 6.035156 13.714844 6.03125 13.585938 6.019531 13.382812 Z M 14.496094 14.320312 C 14.453125 14.320312 14.417969 14.324219 14.390625 14.335938 C 14.28125 14.382812 14.953125 15.101562 15.046875 15.382812 C 15.054688 15.40625 15.0625 15.429688 15.066406 15.453125 C 15.113281 15.375 15.113281 15.246094 15.046875 15.042969 C 14.992188 14.878906 14.742188 14.566406 14.5625 14.324219 C 14.539062 14.320312 14.515625 14.320312 14.496094 14.320312 Z M 6.285156 14.6875 C 6.273438 14.6875 6.257812 14.691406 6.242188 14.699219 C 6.136719 15.042969 5.976562 15.511719 6.054688 15.722656 C 6.105469 15.421875 6.25 15.042969 6.304688 14.820312 C 6.328125 14.722656 6.316406 14.6875 6.285156 14.6875 Z M 6.285156 14.6875 "/>
<path style=" stroke:none;fill-rule:nonzero;fill:rgb(0%,0%,0%);fill-opacity:0.4;" d="M 2.441406 6.925781 C 2.398438 7.003906 2.359375 7.085938 2.320312 7.167969 C 3 7.523438 3.808594 7.953125 4.289062 8.253906 C 5.132812 8.769531 6.226562 9.75 6.574219 10.132812 C 6.609375 10.066406 6.640625 10.003906 6.675781 9.9375 C 6.574219 9.734375 5.261719 8.519531 4.289062 7.921875 C 3.886719 7.671875 3.265625 7.335938 2.671875 7.023438 C 2.597656 6.992188 2.519531 6.960938 2.441406 6.925781 Z M 13.503906 6.992188 C 13.457031 7.3125 13.558594 7.769531 13.691406 8.234375 C 13.730469 8.226562 13.757812 8.191406 13.75 8.113281 C 13.636719 7.722656 13.53125 7.324219 13.503906 6.992188 Z M 12.09375 7.628906 C 12.082031 7.6875 12.074219 7.75 12.078125 7.816406 C 12.078125 7.917969 12.160156 8.28125 12.210938 8.558594 C 12.222656 8.546875 12.234375 8.53125 12.246094 8.519531 C 12.246094 8.347656 12.136719 7.878906 12.09375 7.628906 Z M 18.269531 7.761719 C 18.261719 7.765625 18.246094 7.777344 18.230469 7.792969 C 18.089844 8.207031 17.75 8.773438 17.65625 8.78125 C 17.625 8.894531 17.613281 8.996094 17.632812 9.078125 C 17.644531 9.085938 17.660156 9.09375 17.675781 9.105469 C 17.832031 9.015625 18.367188 8.03125 18.277344 7.769531 C 18.277344 7.765625 18.273438 7.765625 18.269531 7.765625 Z M 17.519531 7.847656 C 17.507812 8.230469 17.445312 8.660156 17.292969 8.691406 C 17.273438 8.691406 17.257812 8.582031 17.25 8.425781 C 17.242188 8.585938 17.246094 8.734375 17.253906 8.84375 C 17.300781 8.871094 17.347656 8.894531 17.394531 8.921875 C 17.507812 8.703125 17.535156 8.171875 17.519531 7.847656 Z M 14.390625 9.164062 C 14.363281 9.191406 14.367188 9.34375 14.402344 9.503906 L 14.4375 9.535156 C 14.492188 9.734375 14.699219 9.875 14.90625 9.964844 C 15.148438 9.925781 15.402344 9.769531 15.351562 9.765625 C 15.179688 9.742188 14.535156 9.582031 14.4375 9.207031 Z M 18.195312 10.222656 C 18.164062 10.382812 18.074219 10.550781 17.90625 10.703125 C 17.425781 11.136719 15.386719 12.269531 15.25 12.375 C 15.175781 12.429688 15.078125 12.644531 15.15625 12.851562 C 15.179688 12.78125 15.21875 12.726562 15.25 12.703125 C 15.386719 12.597656 17.425781 11.46875 17.90625 11.035156 C 18.195312 10.769531 18.246094 10.480469 18.195312 10.222656 Z M 15.972656 10.632812 C 15.953125 10.632812 15.929688 10.636719 15.90625 10.640625 C 15.546875 10.707031 14.882812 11.136719 14.9375 11.1875 C 15.027344 11.269531 16.171875 10.675781 16.03125 10.640625 C 16.011719 10.636719 15.996094 10.632812 15.972656 10.632812 Z M 16.191406 11.015625 C 15.941406 11.019531 15.390625 11.691406 15.453125 11.75 C 15.542969 11.835938 16.320312 11.023438 16.203125 11.015625 C 16.199219 11.015625 16.195312 11.015625 16.191406 11.015625 Z M 6.003906 12.722656 C 6 12.984375 6.011719 13.210938 6.019531 13.382812 C 6.039062 13.285156 6.015625 13.050781 6.003906 12.722656 Z M 14.496094 13.980469 C 14.453125 13.980469 14.417969 13.988281 14.390625 14 C 14.347656 14.015625 14.4375 14.152344 14.558594 14.316406 C 14.839844 14.351562 15.265625 14.589844 15.453125 14.640625 C 15.984375 14.789062 16.15625 14.660156 16 14.320312 C 15.917969 14.390625 15.738281 14.390625 15.453125 14.308594 C 15.25 14.253906 14.773438 13.984375 14.496094 13.980469 Z M 6.269531 14.351562 C 6.226562 14.363281 6.164062 14.410156 6.101562 14.449219 C 6.042969 14.484375 5.664062 14.667969 5.410156 14.570312 C 5.328125 14.722656 5.296875 14.847656 5.382812 14.890625 C 5.636719 15.015625 6.039062 14.816406 6.101562 14.777344 C 6.152344 14.746094 6.203125 14.710938 6.246094 14.691406 C 6.269531 14.613281 6.289062 14.542969 6.304688 14.480469 C 6.332031 14.371094 6.3125 14.339844 6.269531 14.351562 Z M 7.675781 14.527344 C 7.546875 14.570312 6.460938 15.761719 6.378906 15.808594 C 6.183594 15.878906 6.089844 15.832031 6.050781 15.722656 C 5.996094 16.03125 6.039062 16.257812 6.378906 16.140625 C 6.460938 16.09375 7.546875 14.898438 7.675781 14.859375 C 9.832031 15.417969 12.242188 15.164062 12.6875 14.953125 C 12.917969 14.96875 13.578125 15.382812 13.953125 15.578125 C 14.316406 15.769531 15.285156 16.234375 15.070312 15.449219 C 14.921875 15.726562 14.242188 15.402344 13.953125 15.25 C 13.578125 15.050781 12.917969 14.636719 12.6875 14.621094 C 12.242188 14.832031 9.832031 15.089844 7.675781 14.527344 Z M 7.675781 14.527344 "/>
<path style=" stroke:none;fill-rule:nonzero;fill:url(#linear0);" d="M 11 1.375 C 16.316406 1.375 20.625 5.683594 20.625 11 C 20.625 16.316406 16.316406 20.625 11 20.625 C 5.683594 20.625 1.375 16.316406 1.375 11 C 1.375 5.683594 5.683594 1.375 11 1.375 Z M 11 1.375 "/>
</g>
</svg>
