
<svg xmlns="http://www.w3.org/2000/svg" xmlns:xlink="http://www.w3.org/1999/xlink" width="22" height="22" viewBox="0 0 22 22" version="1.1">
<defs>
<linearGradient id="linear0" gradientUnits="userSpaceOnUse" x1="31.999998" y1="59.999996" x2="31.999998" y2="3.999999" gradientTransform="matrix(0.34375,0,0,0.34375,0,0.00000000000003908)">
<stop offset="0" style="stop-color:rgb(0%,0%,0%);stop-opacity:0.2;"/>
<stop offset="1" style="stop-color:rgb(100%,100%,100%);stop-opacity:0;"/>
</linearGradient>
</defs>
<g id="surface1">
<path style=" stroke:none;fill-rule:nonzero;fill:rgb(40.000001%,73.333335%,41.568628%);fill-opacity:1;" d="M 11 1.375 C 6.808594 1.375 3.4375 4.746094 3.4375 8.9375 L 3.4375 18.5625 C 3.4375 19.707031 4.355469 20.625 5.5 20.625 C 6.644531 20.625 7.5625 19.707031 7.5625 18.5625 L 7.5625 15.8125 C 7.5625 15.4375 7.859375 15.132812 8.230469 15.125 C 8.238281 15.125 8.242188 15.125 8.25 15.125 C 8.632812 15.125 8.9375 15.429688 8.9375 15.8125 L 8.9375 18.5625 C 8.9375 19.707031 9.855469 20.625 11 20.625 C 12.144531 20.625 13.0625 19.707031 13.0625 18.5625 L 13.0625 15.8125 C 13.0625 15.4375 13.359375 15.132812 13.730469 15.125 C 13.738281 15.125 13.742188 15.125 13.75 15.125 C 14.132812 15.125 14.4375 15.429688 14.4375 15.8125 L 14.4375 18.5625 C 14.4375 19.707031 15.355469 20.625 16.5 20.625 C 17.644531 20.625 18.5625 19.707031 18.5625 18.5625 L 18.5625 8.9375 C 18.5625 4.746094 15.191406 1.375 11 1.375 Z M 11 1.375 "/>
<path style=" stroke:none;fill-rule:nonzero;fill:rgb(93.333334%,93.333334%,93.333334%);fill-opacity:0.996078;" d="M 14.09375 6.875 C 15.042969 6.875 15.8125 7.644531 15.8125 8.59375 C 15.8125 9.542969 15.042969 10.3125 14.09375 10.3125 C 13.144531 10.3125 12.375 9.542969 12.375 8.59375 C 12.375 7.644531 13.144531 6.875 14.09375 6.875 Z M 14.09375 6.875 "/>
<path style=" stroke:none;fill-rule:nonzero;fill:rgb(56.470591%,64.313728%,68.235296%);fill-opacity:0.4;" d="M 26.46875 13.0625 C 29.695312 13.0625 32.3125 13.070312 32.3125 13.085938 C 32.3125 13.097656 29.695312 13.105469 26.46875 13.105469 C 23.242188 13.105469 20.625 13.097656 20.625 13.085938 C 20.625 13.070312 23.242188 13.0625 26.46875 13.0625 Z M 26.46875 13.0625 "/>
<path style=" stroke:none;fill-rule:nonzero;fill:rgb(93.333334%,93.333334%,93.333334%);fill-opacity:0.996078;" d="M 7.90625 6.875 C 8.855469 6.875 9.625 7.644531 9.625 8.59375 C 9.625 9.542969 8.855469 10.3125 7.90625 10.3125 C 6.957031 10.3125 6.1875 9.542969 6.1875 8.59375 C 6.1875 7.644531 6.957031 6.875 7.90625 6.875 Z M 7.90625 6.875 "/>
<path style=" stroke:none;fill-rule:nonzero;fill:rgb(38.039216%,38.039216%,38.039216%);fill-opacity:0.996078;" d="M 8.421875 7.5625 C 8.992188 7.5625 9.453125 8.023438 9.453125 8.59375 C 9.453125 9.164062 8.992188 9.625 8.421875 9.625 C 7.851562 9.625 7.390625 9.164062 7.390625 8.59375 C 7.390625 8.023438 7.851562 7.5625 8.421875 7.5625 Z M 8.421875 7.5625 "/>
<path style=" stroke:none;fill-rule:nonzero;fill:rgb(87.843138%,87.843138%,87.843138%);fill-opacity:0.996078;" d="M 8.078125 7.90625 C 8.269531 7.90625 8.421875 8.058594 8.421875 8.25 C 8.421875 8.441406 8.269531 8.59375 8.078125 8.59375 C 7.886719 8.59375 7.734375 8.441406 7.734375 8.25 C 7.734375 8.058594 7.886719 7.90625 8.078125 7.90625 Z M 8.078125 7.90625 "/>
<path style=" stroke:none;fill-rule:nonzero;fill:rgb(38.039216%,38.039216%,38.039216%);fill-opacity:0.996078;" d="M 14.609375 7.5625 C 15.179688 7.5625 15.640625 8.023438 15.640625 8.59375 C 15.640625 9.164062 15.179688 9.625 14.609375 9.625 C 14.039062 9.625 13.578125 9.164062 13.578125 8.59375 C 13.578125 8.023438 14.039062 7.5625 14.609375 7.5625 Z M 14.609375 7.5625 "/>
<path style=" stroke:none;fill-rule:nonzero;fill:rgb(87.843138%,87.843138%,87.843138%);fill-opacity:0.996078;" d="M 14.265625 7.90625 C 14.457031 7.90625 14.609375 8.058594 14.609375 8.25 C 14.609375 8.441406 14.457031 8.59375 14.265625 8.59375 C 14.074219 8.59375 13.921875 8.441406 13.921875 8.25 C 13.921875 8.058594 14.074219 7.90625 14.265625 7.90625 Z M 14.265625 7.90625 "/>
<path style=" stroke:none;fill-rule:nonzero;fill:rgb(100%,100%,100%);fill-opacity:0.4;" d="M 11 1.375 C 6.808594 1.375 3.4375 4.746094 3.4375 8.9375 L 3.4375 9.28125 C 3.4375 5.089844 6.808594 1.71875 11 1.71875 C 15.191406 1.71875 18.5625 5.089844 18.5625 9.28125 L 18.5625 8.9375 C 18.5625 4.746094 15.191406 1.375 11 1.375 Z M 11 1.375 "/>
<path style=" stroke:none;fill-rule:nonzero;fill:rgb(0%,0%,0%);fill-opacity:0.4;" d="M 8.230469 14.777344 C 7.859375 14.789062 7.5625 15.09375 7.5625 15.464844 L 7.5625 15.8125 C 7.5625 15.4375 7.859375 15.132812 8.230469 15.125 C 8.238281 15.125 8.242188 15.125 8.25 15.125 C 8.632812 15.125 8.9375 15.429688 8.9375 15.8125 L 8.9375 15.464844 C 8.9375 15.085938 8.632812 14.777344 8.25 14.777344 C 8.242188 14.777344 8.238281 14.777344 8.230469 14.777344 Z M 13.730469 14.777344 C 13.359375 14.789062 13.0625 15.09375 13.0625 15.464844 L 13.0625 15.8125 C 13.0625 15.4375 13.359375 15.132812 13.730469 15.125 C 13.738281 15.125 13.742188 15.125 13.75 15.125 C 14.132812 15.125 14.4375 15.429688 14.4375 15.8125 L 14.4375 15.464844 C 14.4375 15.085938 14.132812 14.777344 13.75 14.777344 C 13.742188 14.777344 13.738281 14.777344 13.730469 14.777344 Z M 3.4375 18.214844 L 3.4375 18.5625 C 3.4375 19.707031 4.355469 20.625 5.5 20.625 C 6.644531 20.625 7.5625 19.707031 7.5625 18.5625 L 7.5625 18.214844 C 7.5625 19.359375 6.644531 20.277344 5.5 20.277344 C 4.355469 20.277344 3.4375 19.359375 3.4375 18.214844 Z M 8.9375 18.214844 L 8.9375 18.5625 C 8.9375 19.707031 9.855469 20.625 11 20.625 C 12.144531 20.625 13.0625 19.707031 13.0625 18.5625 L 13.0625 18.214844 C 13.0625 19.359375 12.144531 20.277344 11 20.277344 C 9.855469 20.277344 8.9375 19.359375 8.9375 18.214844 Z M 14.4375 18.214844 L 14.4375 18.5625 C 14.4375 19.707031 15.355469 20.625 16.5 20.625 C 17.644531 20.625 18.5625 19.707031 18.5625 18.5625 L 18.5625 18.214844 C 18.5625 19.359375 17.644531 20.277344 16.5 20.277344 C 15.355469 20.277344 14.4375 19.359375 14.4375 18.214844 Z M 14.4375 18.214844 "/>
<path style=" stroke:none;fill-rule:nonzero;fill:rgb(0%,0%,0%);fill-opacity:0.2;" d="M 8.230469 15.125 C 7.859375 15.132812 7.5625 15.4375 7.5625 15.8125 L 7.5625 16.328125 C 7.5625 15.953125 7.859375 15.648438 8.230469 15.640625 C 8.238281 15.640625 8.242188 15.640625 8.25 15.640625 C 8.632812 15.640625 8.9375 15.945312 8.9375 16.328125 L 8.9375 15.8125 C 8.9375 15.429688 8.632812 15.125 8.25 15.125 C 8.242188 15.125 8.238281 15.125 8.230469 15.125 Z M 13.730469 15.125 C 13.359375 15.132812 13.0625 15.4375 13.0625 15.8125 L 13.0625 16.328125 C 13.0625 15.953125 13.359375 15.648438 13.730469 15.640625 C 13.738281 15.640625 13.742188 15.640625 13.75 15.640625 C 14.132812 15.640625 14.4375 15.945312 14.4375 16.328125 L 14.4375 15.8125 C 14.4375 15.429688 14.132812 15.125 13.75 15.125 C 13.742188 15.125 13.738281 15.125 13.730469 15.125 Z M 3.4375 18.5625 L 3.4375 19.078125 C 3.4375 20.222656 4.355469 21.140625 5.5 21.140625 C 6.644531 21.140625 7.5625 20.222656 7.5625 19.078125 L 7.5625 18.5625 C 7.5625 19.707031 6.644531 20.625 5.5 20.625 C 4.355469 20.625 3.4375 19.707031 3.4375 18.5625 Z M 8.9375 18.5625 L 8.9375 19.078125 C 8.9375 20.222656 9.855469 21.140625 11 21.140625 C 12.144531 21.140625 13.0625 20.222656 13.0625 19.078125 L 13.0625 18.5625 C 13.0625 19.707031 12.144531 20.625 11 20.625 C 9.855469 20.625 8.9375 19.707031 8.9375 18.5625 Z M 14.4375 18.5625 L 14.4375 19.078125 C 14.4375 20.222656 15.355469 21.140625 16.5 21.140625 C 17.644531 21.140625 18.5625 20.222656 18.5625 19.078125 L 18.5625 18.5625 C 18.5625 19.707031 17.644531 20.625 16.5 20.625 C 15.355469 20.625 14.4375 19.707031 14.4375 18.5625 Z M 14.4375 18.5625 "/>
<path style=" stroke:none;fill-rule:nonzero;fill:rgb(100%,100%,100%);fill-opacity:0.6;" d="M 7.90625 6.875 C 6.953125 6.875 6.1875 7.640625 6.1875 8.59375 C 6.1875 8.621094 6.1875 8.648438 6.191406 8.675781 C 6.234375 7.765625 6.984375 7.046875 7.90625 7.046875 C 8.828125 7.046875 9.578125 7.765625 9.621094 8.675781 C 9.625 8.648438 9.625 8.621094 9.625 8.59375 C 9.625 7.640625 8.859375 6.875 7.90625 6.875 Z M 7.90625 6.875 "/>
<path style=" stroke:none;fill-rule:nonzero;fill:rgb(100%,100%,100%);fill-opacity:0.6;" d="M 14.09375 6.875 C 13.140625 6.875 12.375 7.640625 12.375 8.59375 C 12.375 8.621094 12.375 8.648438 12.378906 8.675781 C 12.421875 7.765625 13.171875 7.046875 14.09375 7.046875 C 15.015625 7.046875 15.765625 7.765625 15.808594 8.675781 C 15.8125 8.648438 15.8125 8.621094 15.8125 8.59375 C 15.8125 7.640625 15.046875 6.875 14.09375 6.875 Z M 14.09375 6.875 "/>
<path style=" stroke:none;fill-rule:nonzero;fill:rgb(0%,0%,0%);fill-opacity:0.4;" d="M 7.90625 10.484375 C 6.953125 10.484375 6.1875 9.71875 6.1875 8.765625 C 6.1875 8.738281 6.1875 8.710938 6.191406 8.683594 C 6.234375 9.59375 6.984375 10.3125 7.90625 10.3125 C 8.828125 10.3125 9.578125 9.59375 9.621094 8.683594 C 9.625 8.710938 9.625 8.738281 9.625 8.765625 C 9.625 9.71875 8.859375 10.484375 7.90625 10.484375 Z M 7.90625 10.484375 "/>
<path style=" stroke:none;fill-rule:nonzero;fill:rgb(0%,0%,0%);fill-opacity:0.4;" d="M 14.09375 10.484375 C 13.140625 10.484375 12.375 9.71875 12.375 8.765625 C 12.375 8.738281 12.375 8.710938 12.378906 8.683594 C 12.421875 9.59375 13.171875 10.3125 14.09375 10.3125 C 15.015625 10.3125 15.765625 9.59375 15.808594 8.683594 C 15.8125 8.710938 15.8125 8.738281 15.8125 8.765625 C 15.8125 9.71875 15.046875 10.484375 14.09375 10.484375 Z M 14.09375 10.484375 "/>
<path style=" stroke:none;fill-rule:nonzero;fill:rgb(100%,100%,100%);fill-opacity:0.4;" d="M 8.421875 7.5625 C 7.851562 7.5625 7.390625 8.023438 7.390625 8.59375 C 7.390625 8.621094 7.390625 8.652344 7.394531 8.679688 C 7.4375 8.148438 7.878906 7.734375 8.421875 7.734375 C 8.964844 7.734375 9.40625 8.148438 9.449219 8.679688 C 9.453125 8.652344 9.453125 8.621094 9.453125 8.59375 C 9.453125 8.023438 8.992188 7.5625 8.421875 7.5625 Z M 8.421875 7.5625 "/>
<path style=" stroke:none;fill-rule:nonzero;fill:rgb(100%,100%,100%);fill-opacity:0.4;" d="M 14.609375 7.5625 C 14.039062 7.5625 13.578125 8.023438 13.578125 8.59375 C 13.578125 8.621094 13.578125 8.652344 13.582031 8.679688 C 13.625 8.148438 14.066406 7.734375 14.609375 7.734375 C 15.152344 7.734375 15.59375 8.148438 15.636719 8.679688 C 15.640625 8.652344 15.640625 8.621094 15.640625 8.59375 C 15.640625 8.023438 15.179688 7.5625 14.609375 7.5625 Z M 14.609375 7.5625 "/>
<path style=" stroke:none;fill-rule:nonzero;fill:rgb(0%,0%,0%);fill-opacity:0.4;" d="M 8.421875 9.796875 C 7.851562 9.796875 7.390625 9.335938 7.390625 8.765625 C 7.390625 8.738281 7.390625 8.707031 7.394531 8.679688 C 7.4375 9.210938 7.878906 9.625 8.421875 9.625 C 8.964844 9.625 9.40625 9.210938 9.449219 8.679688 C 9.453125 8.707031 9.453125 8.738281 9.453125 8.765625 C 9.453125 9.335938 8.992188 9.796875 8.421875 9.796875 Z M 8.421875 9.796875 "/>
<path style=" stroke:none;fill-rule:nonzero;fill:rgb(0%,0%,0%);fill-opacity:0.4;" d="M 14.609375 9.796875 C 14.039062 9.796875 13.578125 9.335938 13.578125 8.765625 C 13.578125 8.738281 13.578125 8.707031 13.582031 8.679688 C 13.625 9.210938 14.066406 9.625 14.609375 9.625 C 15.152344 9.625 15.59375 9.210938 15.636719 8.679688 C 15.640625 8.707031 15.640625 8.738281 15.640625 8.765625 C 15.640625 9.335938 15.179688 9.796875 14.609375 9.796875 Z M 14.609375 9.796875 "/>
<path style=" stroke:none;fill-rule:nonzero;fill:url(#linear0);" d="M 11 1.375 C 6.808594 1.375 3.4375 4.746094 3.4375 8.9375 L 3.4375 18.5625 C 3.4375 19.707031 4.355469 20.625 5.5 20.625 C 6.644531 20.625 7.5625 19.707031 7.5625 18.5625 L 7.5625 15.8125 C 7.5625 15.4375 7.859375 15.132812 8.230469 15.125 C 8.238281 15.125 8.242188 15.125 8.25 15.125 C 8.632812 15.125 8.9375 15.429688 8.9375 15.8125 L 8.9375 18.5625 C 8.9375 19.707031 9.855469 20.625 11 20.625 C 12.144531 20.625 13.0625 19.707031 13.0625 18.5625 L 13.0625 15.8125 C 13.0625 15.4375 13.359375 15.132812 13.730469 15.125 C 13.738281 15.125 13.742188 15.125 13.75 15.125 C 14.132812 15.125 14.4375 15.429688 14.4375 15.8125 L 14.4375 18.5625 C 14.4375 19.707031 15.355469 20.625 16.5 20.625 C 17.644531 20.625 18.5625 19.707031 18.5625 18.5625 L 18.5625 8.9375 C 18.5625 4.746094 15.191406 1.375 11 1.375 Z M 11 1.375 "/>
</g>
</svg>
