
<svg xmlns="http://www.w3.org/2000/svg" xmlns:xlink="http://www.w3.org/1999/xlink" width="22" height="22" viewBox="0 0 22 22" version="1.1">
<defs>
<linearGradient id="linear0" gradientUnits="userSpaceOnUse" x1="8.466666" y1="-199.125" x2="8.466666" y2="-213.941666" gradientTransform="matrix(1.299213,0,0,1.299213,-0.00000514469,279.330723)">
<stop offset="0" style="stop-color:rgb(0%,0%,0%);stop-opacity:0.2;"/>
<stop offset="1" style="stop-color:rgb(100%,100%,100%);stop-opacity:0;"/>
</linearGradient>
</defs>
<g id="surface1">
<path style=" stroke:none;fill-rule:nonzero;fill:rgb(100%,79.215688%,15.686275%);fill-opacity:1;" d="M 2.75 1.375 L 19.25 1.375 C 20.011719 1.375 20.625 1.992188 20.625 2.75 L 20.625 19.25 C 20.625 20.007812 20.011719 20.625 19.25 20.625 L 2.75 20.625 C 1.992188 20.625 1.375 20.007812 1.375 19.25 L 1.375 2.75 C 1.375 1.992188 1.992188 1.375 2.75 1.375 Z M 2.75 1.375 "/>
<path style=" stroke:none;fill-rule:nonzero;fill:rgb(0%,0%,0%);fill-opacity:0.4;" d="M 1.375 18.90625 L 1.375 19.25 C 1.375 20.011719 1.988281 20.625 2.75 20.625 L 19.25 20.625 C 20.011719 20.625 20.625 20.011719 20.625 19.25 L 20.625 18.90625 C 20.625 19.667969 20.011719 20.28125 19.25 20.28125 L 2.75 20.28125 C 1.988281 20.28125 1.375 19.667969 1.375 18.90625 Z M 1.375 18.90625 "/>
<path style=" stroke:none;fill-rule:nonzero;fill:rgb(0%,0%,0%);fill-opacity:0.2;" d="M 1.375 19.25 L 1.375 19.765625 C 1.375 20.527344 1.988281 21.140625 2.75 21.140625 L 19.25 21.140625 C 20.011719 21.140625 20.625 20.527344 20.625 19.765625 L 20.625 19.25 C 20.625 20.011719 20.011719 20.625 19.25 20.625 L 2.75 20.625 C 1.988281 20.625 1.375 20.011719 1.375 19.25 Z M 1.375 19.25 "/>
<path style=" stroke:none;fill-rule:nonzero;fill:rgb(100%,100%,100%);fill-opacity:0.4;" d="M 2.75 1.375 C 1.988281 1.375 1.375 1.988281 1.375 2.75 L 1.375 3.089844 C 1.375 2.328125 1.988281 1.714844 2.75 1.714844 L 19.25 1.714844 C 20.011719 1.714844 20.625 2.328125 20.625 3.089844 L 20.625 2.75 C 20.625 1.988281 20.011719 1.375 19.25 1.375 Z M 2.75 1.375 "/>
<path style=" stroke:none;fill-rule:nonzero;fill:rgb(38.039216%,38.039216%,38.039216%);fill-opacity:1;" d="M 7.898438 5.5 C 6.753906 5.5 5.835938 6.417969 5.835938 7.5625 C 5.835938 8.707031 6.753906 9.625 7.898438 9.625 C 9.039062 9.625 9.960938 8.707031 9.960938 7.5625 C 9.960938 6.417969 9.039062 5.5 7.898438 5.5 Z M 7.898438 10.3125 C 5.613281 10.3125 3.773438 10.925781 3.773438 11.6875 L 3.773438 15.8125 C 3.773438 16.195312 4.078125 16.5 4.460938 16.5 C 4.839844 16.5 5.148438 16.195312 5.148438 15.8125 L 5.148438 12.71875 C 5.148438 12.53125 5.296875 12.378906 5.484375 12.375 C 5.484375 12.375 5.488281 12.375 5.492188 12.375 C 5.683594 12.375 5.835938 12.527344 5.835938 12.71875 L 5.835938 15.8125 C 5.835938 16.195312 6.140625 16.5 6.523438 16.5 L 9.273438 16.5 C 9.652344 16.5 9.960938 16.195312 9.960938 15.8125 L 9.960938 12.71875 C 9.960938 12.53125 10.109375 12.378906 10.296875 12.375 C 10.296875 12.375 10.300781 12.375 10.304688 12.375 C 10.496094 12.375 10.648438 12.527344 10.648438 12.71875 L 10.648438 15.8125 C 10.648438 16.195312 10.953125 16.5 11.335938 16.5 C 11.714844 16.5 12.023438 16.195312 12.023438 15.8125 L 12.023438 11.6875 C 12.023438 10.925781 10.183594 10.3125 7.898438 10.3125 Z M 7.898438 10.3125 "/>
<path style=" stroke:none;fill-rule:nonzero;fill:rgb(38.039216%,38.039216%,38.039216%);fill-opacity:1;" d="M 15.460938 9.625 C 14.746094 9.625 14.171875 10.199219 14.171875 10.914062 C 14.171875 11.628906 14.746094 12.203125 15.460938 12.203125 C 16.175781 12.203125 16.75 11.628906 16.75 10.914062 C 16.75 10.199219 16.175781 9.625 15.460938 9.625 Z M 15.460938 12.632812 C 14.03125 12.632812 12.882812 13.015625 12.882812 13.492188 L 12.882812 16.070312 C 12.882812 16.308594 13.074219 16.5 13.3125 16.5 C 13.550781 16.5 13.742188 16.308594 13.742188 16.070312 L 13.742188 14.136719 C 13.742188 14.019531 13.835938 13.925781 13.953125 13.921875 C 13.953125 13.921875 13.953125 13.921875 13.957031 13.921875 C 14.074219 13.921875 14.171875 14.019531 14.171875 14.136719 L 14.171875 16.070312 C 14.171875 16.308594 14.363281 16.5 14.601562 16.5 L 16.320312 16.5 C 16.558594 16.5 16.75 16.308594 16.75 16.070312 L 16.75 14.136719 C 16.75 14.019531 16.84375 13.925781 16.960938 13.921875 C 16.960938 13.921875 16.960938 13.921875 16.964844 13.921875 C 17.082031 13.921875 17.179688 14.019531 17.179688 14.136719 L 17.179688 16.070312 C 17.179688 16.308594 17.371094 16.5 17.609375 16.5 C 17.847656 16.5 18.039062 16.308594 18.039062 16.070312 L 18.039062 13.492188 C 18.039062 13.015625 16.890625 12.632812 15.460938 12.632812 Z M 15.460938 12.632812 "/>
<path style=" stroke:none;fill-rule:nonzero;fill:rgb(100%,100%,100%);fill-opacity:0.4;" d="M 7.898438 5.5 C 6.753906 5.5 5.835938 6.417969 5.835938 7.5625 C 5.835938 7.617188 5.839844 7.671875 5.84375 7.726562 C 5.933594 6.667969 6.816406 5.84375 7.898438 5.84375 C 8.980469 5.84375 9.863281 6.667969 9.953125 7.726562 C 9.957031 7.671875 9.960938 7.617188 9.960938 7.5625 C 9.960938 6.417969 9.039062 5.5 7.898438 5.5 Z M 15.460938 9.625 C 14.746094 9.625 14.171875 10.199219 14.171875 10.914062 C 14.171875 10.972656 14.175781 11.027344 14.183594 11.082031 C 14.269531 10.453125 14.804688 9.96875 15.460938 9.96875 C 16.113281 9.96875 16.652344 10.453125 16.738281 11.082031 C 16.746094 11.027344 16.75 10.972656 16.75 10.914062 C 16.75 10.199219 16.175781 9.625 15.460938 9.625 Z M 7.898438 10.3125 C 5.613281 10.3125 3.773438 10.925781 3.773438 11.6875 L 3.773438 12.03125 C 3.773438 11.269531 5.613281 10.65625 7.898438 10.65625 C 10.183594 10.65625 12.023438 11.269531 12.023438 12.03125 L 12.023438 11.6875 C 12.023438 10.925781 10.183594 10.3125 7.898438 10.3125 Z M 15.460938 12.632812 C 14.03125 12.632812 12.882812 13.015625 12.882812 13.492188 L 12.882812 13.835938 C 12.882812 13.359375 14.03125 12.976562 15.460938 12.976562 C 16.890625 12.976562 18.039062 13.359375 18.039062 13.835938 L 18.039062 13.492188 C 18.039062 13.015625 16.890625 12.632812 15.460938 12.632812 Z M 15.460938 12.632812 "/>
<path style=" stroke:none;fill-rule:nonzero;fill:rgb(0%,0%,0%);fill-opacity:0.4;" d="M 5.84375 7.738281 C 5.839844 7.792969 5.835938 7.851562 5.835938 7.910156 C 5.835938 9.054688 6.753906 9.972656 7.898438 9.972656 C 9.039062 9.972656 9.960938 9.054688 9.960938 7.910156 C 9.960938 7.851562 9.957031 7.792969 9.953125 7.738281 C 9.863281 8.796875 8.980469 9.625 7.898438 9.625 C 6.8125 9.625 5.933594 8.796875 5.84375 7.738281 Z M 5.484375 12.375 C 5.296875 12.378906 5.148438 12.53125 5.148438 12.71875 L 5.148438 13.0625 C 5.152344 12.878906 5.296875 12.730469 5.484375 12.722656 C 5.484375 12.722656 5.488281 12.722656 5.492188 12.722656 C 5.679688 12.722656 5.832031 12.875 5.835938 13.0625 L 5.835938 12.71875 C 5.835938 12.527344 5.683594 12.375 5.492188 12.375 C 5.488281 12.375 5.484375 12.375 5.484375 12.375 Z M 10.296875 12.375 C 10.109375 12.378906 9.960938 12.53125 9.960938 12.71875 L 9.960938 13.0625 C 9.964844 12.878906 10.109375 12.730469 10.296875 12.722656 C 10.296875 12.722656 10.300781 12.722656 10.304688 12.722656 C 10.492188 12.722656 10.644531 12.875 10.648438 13.0625 L 10.648438 12.71875 C 10.648438 12.527344 10.496094 12.375 10.304688 12.375 C 10.300781 12.375 10.296875 12.375 10.296875 12.375 Z M 3.773438 15.8125 L 3.773438 16.160156 C 3.773438 16.542969 4.078125 16.847656 4.460938 16.847656 C 4.839844 16.847656 5.148438 16.542969 5.148438 16.160156 L 5.148438 15.8125 C 5.148438 16.195312 4.839844 16.5 4.460938 16.5 C 4.078125 16.5 3.773438 16.195312 3.773438 15.8125 Z M 5.835938 15.8125 L 5.835938 16.160156 C 5.835938 16.542969 6.140625 16.847656 6.523438 16.847656 L 9.273438 16.847656 C 9.652344 16.847656 9.960938 16.542969 9.960938 16.160156 L 9.960938 15.8125 C 9.960938 16.195312 9.652344 16.5 9.273438 16.5 L 6.523438 16.5 C 6.140625 16.5 5.835938 16.195312 5.835938 15.8125 Z M 10.648438 15.8125 L 10.648438 16.160156 C 10.648438 16.542969 10.953125 16.847656 11.335938 16.847656 C 11.714844 16.847656 12.023438 16.542969 12.023438 16.160156 L 12.023438 15.8125 C 12.023438 16.195312 11.714844 16.5 11.335938 16.5 C 10.953125 16.5 10.648438 16.195312 10.648438 15.8125 Z M 10.648438 15.8125 "/>
<path style=" stroke:none;fill-rule:nonzero;fill:rgb(0%,0%,0%);fill-opacity:0.4;" d="M 14.183594 11.09375 C 14.175781 11.152344 14.171875 11.210938 14.171875 11.273438 C 14.171875 11.988281 14.746094 12.5625 15.460938 12.5625 C 16.175781 12.5625 16.75 11.988281 16.75 11.273438 C 16.75 11.210938 16.746094 11.152344 16.738281 11.09375 C 16.648438 11.722656 16.113281 12.203125 15.460938 12.203125 C 14.808594 12.203125 14.273438 11.722656 14.183594 11.09375 Z M 13.953125 13.921875 C 13.835938 13.925781 13.742188 14.019531 13.742188 14.136719 L 13.742188 14.496094 C 13.742188 14.378906 13.835938 14.285156 13.953125 14.28125 C 13.953125 14.28125 13.953125 14.28125 13.957031 14.28125 C 14.074219 14.28125 14.171875 14.378906 14.171875 14.496094 L 14.171875 14.136719 C 14.171875 14.019531 14.074219 13.921875 13.957031 13.921875 C 13.953125 13.921875 13.953125 13.921875 13.953125 13.921875 Z M 16.960938 13.921875 C 16.84375 13.925781 16.75 14.019531 16.75 14.136719 L 16.75 14.496094 C 16.75 14.378906 16.84375 14.285156 16.960938 14.28125 C 16.960938 14.28125 16.960938 14.28125 16.964844 14.28125 C 17.082031 14.28125 17.179688 14.378906 17.179688 14.496094 L 17.179688 14.136719 C 17.179688 14.019531 17.082031 13.921875 16.964844 13.921875 C 16.960938 13.921875 16.960938 13.921875 16.960938 13.921875 Z M 12.882812 16.070312 L 12.882812 16.429688 C 12.882812 16.667969 13.074219 16.859375 13.3125 16.859375 C 13.550781 16.859375 13.742188 16.667969 13.742188 16.429688 L 13.742188 16.070312 C 13.742188 16.308594 13.550781 16.5 13.3125 16.5 C 13.074219 16.5 12.882812 16.308594 12.882812 16.070312 Z M 14.171875 16.070312 L 14.171875 16.429688 C 14.171875 16.667969 14.363281 16.859375 14.601562 16.859375 L 16.320312 16.859375 C 16.558594 16.859375 16.75 16.667969 16.75 16.429688 L 16.75 16.070312 C 16.75 16.308594 16.558594 16.5 16.320312 16.5 L 14.601562 16.5 C 14.363281 16.5 14.171875 16.308594 14.171875 16.070312 Z M 17.179688 16.070312 L 17.179688 16.429688 C 17.179688 16.667969 17.371094 16.859375 17.609375 16.859375 C 17.847656 16.859375 18.039062 16.667969 18.039062 16.429688 L 18.039062 16.070312 C 18.039062 16.308594 17.847656 16.5 17.609375 16.5 C 17.371094 16.5 17.179688 16.308594 17.179688 16.070312 Z M 17.179688 16.070312 "/>
<path style=" stroke:none;fill-rule:nonzero;fill:url(#linear0);" d="M 2.75 1.375 L 19.25 1.375 C 20.007812 1.375 20.625 1.992188 20.625 2.75 L 20.625 19.25 C 20.625 20.007812 20.007812 20.625 19.25 20.625 L 2.75 20.625 C 1.992188 20.625 1.375 20.007812 1.375 19.25 L 1.375 2.75 C 1.375 1.992188 1.992188 1.375 2.75 1.375 Z M 2.75 1.375 "/>
</g>
</svg>
