
<svg xmlns="http://www.w3.org/2000/svg" xmlns:xlink="http://www.w3.org/1999/xlink" width="22" height="22" viewBox="0 0 22 22" version="1.1">
<defs>
<linearGradient id="linear0" gradientUnits="userSpaceOnUse" x1="8.466666" y1="-199.125" x2="8.466666" y2="-213.941666" gradientTransform="matrix(1.299213,0,0,1.299213,0,279.330723)">
<stop offset="0" style="stop-color:rgb(0%,0%,0%);stop-opacity:0.2;"/>
<stop offset="1" style="stop-color:rgb(100%,100%,100%);stop-opacity:0;"/>
</linearGradient>
</defs>
<g id="surface1">
<path style=" stroke:none;fill-rule:nonzero;fill:rgb(40.000001%,73.333335%,41.568628%);fill-opacity:1;" d="M 11 1.371094 C 16.316406 1.371094 20.625 5.683594 20.625 11 C 20.625 16.316406 16.316406 20.625 11 20.625 C 5.683594 20.625 1.371094 16.316406 1.371094 11 C 1.371094 5.683594 5.683594 1.371094 11 1.371094 Z M 11 1.371094 "/>
<path style=" stroke:none;fill-rule:nonzero;fill:rgb(0%,0%,0%);fill-opacity:0.4;" d="M 12.28125 7.699219 C 11.808594 7.707031 11.355469 7.890625 11.011719 8.210938 C 10.640625 8.558594 10.425781 9.027344 10.40625 9.535156 C 10.40625 9.625 10.410156 9.710938 10.417969 9.796875 C 10.464844 9.335938 10.671875 8.917969 11.011719 8.601562 C 11.355469 8.277344 11.808594 8.097656 12.28125 8.089844 C 12.3125 8.089844 12.34375 8.089844 12.375 8.089844 C 13.335938 8.125 14.105469 8.871094 14.203125 9.800781 C 14.207031 9.757812 14.210938 9.714844 14.214844 9.671875 C 14.246094 8.625 13.421875 7.742188 12.375 7.699219 C 12.34375 7.699219 12.3125 7.699219 12.28125 7.699219 Z M 12.625 8.910156 C 12.308594 8.910156 12.046875 9.074219 12.03125 9.289062 L 12.03125 9.324219 C 12.035156 9.390625 12.0625 9.449219 12.109375 9.5 C 12.210938 9.378906 12.40625 9.296875 12.625 9.296875 L 12.625 9.300781 C 12.851562 9.300781 13.042969 9.382812 13.148438 9.5 C 13.191406 9.449219 13.222656 9.390625 13.226562 9.324219 L 13.226562 9.289062 C 13.226562 9.28125 13.226562 9.273438 13.222656 9.269531 C 13.195312 9.066406 12.9375 8.910156 12.625 8.910156 Z M 11.023438 9.773438 C 11.015625 9.824219 11.011719 9.875 11.011719 9.925781 C 10.984375 10.671875 11.566406 11.300781 12.3125 11.324219 C 12.671875 11.335938 13.019531 11.210938 13.285156 10.964844 C 13.546875 10.71875 13.703125 10.378906 13.710938 10.019531 C 13.714844 9.941406 13.710938 9.859375 13.699219 9.78125 C 13.65625 10.082031 13.511719 10.363281 13.285156 10.574219 C 13.019531 10.820312 12.671875 10.949219 12.3125 10.9375 C 11.648438 10.914062 11.113281 10.410156 11.023438 9.773438 Z M 8.152344 10.3125 C 8.1875 10.394531 8.285156 10.621094 8.382812 10.847656 C 10.132812 11.980469 11.59375 12.605469 12.722656 12.703125 C 14.035156 12.820312 15.054688 12.105469 15.492188 11.800781 C 15.578125 11.742188 15.644531 11.695312 15.671875 11.6875 L 15.699219 11.640625 C 15.6875 11.570312 15.664062 11.457031 15.628906 11.320312 C 15.59375 11.339844 15.550781 11.375 15.492188 11.410156 C 15.054688 11.714844 14.035156 12.433594 12.722656 12.3125 C 11.542969 12.210938 10.007812 11.535156 8.152344 10.3125 Z M 1.378906 11.179688 C 1.378906 11.214844 1.378906 11.246094 1.378906 11.277344 C 1.457031 14.097656 2.738281 16.609375 4.730469 18.316406 C 5.054688 17.679688 5.433594 16.804688 5.578125 15.941406 C 5.792969 14.660156 6.808594 14.777344 8.214844 14.933594 C 8.675781 14.988281 9.203125 15.046875 9.742188 15.0625 C 11.257812 15.070312 12.882812 14.792969 13.886719 14.355469 C 14.539062 14.070312 14.953125 13.878906 15.210938 13.644531 C 15.304688 13.566406 15.355469 13.441406 15.40625 13.308594 L 15.441406 13.21875 C 15.484375 13.109375 15.542969 12.878906 15.570312 12.75 C 15.582031 12.695312 15.585938 12.636719 15.550781 12.605469 L 15.507812 12.613281 C 15.484375 12.695312 15.460938 12.777344 15.441406 12.832031 L 15.40625 12.917969 C 15.355469 13.050781 15.304688 13.175781 15.210938 13.253906 C 14.953125 13.488281 14.539062 13.679688 13.886719 13.964844 C 12.882812 14.402344 11.257812 14.679688 9.742188 14.671875 C 9.203125 14.660156 8.675781 14.597656 8.214844 14.546875 C 6.808594 14.386719 5.792969 14.269531 5.578125 15.550781 C 5.414062 16.535156 4.941406 17.546875 4.601562 18.1875 C 2.664062 16.464844 1.429688 13.96875 1.378906 11.179688 Z M 1.378906 11.179688 "/>
<path style=" stroke:none;fill-rule:nonzero;fill:rgb(87.843138%,87.843138%,87.843138%);fill-opacity:1;" d="M 7.402344 5.820312 L 7.367188 5.828125 L 7.355469 5.855469 C 7.355469 5.855469 7.339844 6.777344 7.335938 6.882812 C 7.097656 6.800781 4.910156 6.359375 2.789062 5.972656 C 1.894531 7.4375 1.375 9.15625 1.375 11 C 1.375 13.859375 2.621094 16.425781 4.601562 18.1875 C 4.941406 17.546875 5.414062 16.535156 5.578125 15.550781 C 5.792969 14.269531 6.808594 14.386719 8.214844 14.546875 C 8.675781 14.597656 9.203125 14.660156 9.742188 14.671875 C 11.257812 14.679688 12.882812 14.402344 13.886719 13.964844 C 14.539062 13.679688 14.953125 13.488281 15.210938 13.253906 C 15.304688 13.175781 15.355469 13.050781 15.40625 12.917969 L 15.441406 12.832031 C 15.484375 12.71875 15.542969 12.488281 15.570312 12.363281 C 15.582031 12.304688 15.585938 12.246094 15.550781 12.214844 L 15.410156 12.238281 C 14.96875 12.503906 13.867188 13.007812 12.835938 13.027344 C 11.558594 13.050781 8.980469 11.742188 8.710938 11.605469 L 8.6875 11.578125 C 8.621094 11.421875 8.238281 10.503906 8.152344 10.3125 C 10.007812 11.535156 11.542969 12.210938 12.722656 12.3125 C 14.035156 12.433594 15.054688 11.714844 15.492188 11.410156 C 15.578125 11.355469 15.644531 11.304688 15.671875 11.296875 L 15.699219 11.25 C 15.628906 10.789062 14.941406 8.5625 14.421875 8.027344 C 14.28125 7.878906 14.167969 7.738281 13.933594 7.601562 C 12.058594 6.511719 7.609375 5.851562 7.402344 5.820312 Z M 12.28125 7.699219 C 12.3125 7.699219 12.34375 7.699219 12.375 7.699219 C 13.421875 7.742188 14.246094 8.625 14.214844 9.671875 C 14.195312 10.179688 13.980469 10.652344 13.609375 10.996094 C 13.238281 11.34375 12.753906 11.523438 12.242188 11.507812 C 11.195312 11.464844 10.375 10.585938 10.40625 9.535156 C 10.425781 9.027344 10.640625 8.558594 11.011719 8.210938 C 11.355469 7.890625 11.808594 7.707031 12.28125 7.699219 Z M 12.339844 8.230469 C 12.007812 8.238281 11.683594 8.363281 11.4375 8.59375 C 11.171875 8.835938 11.019531 9.175781 11.011719 9.535156 C 10.984375 10.28125 11.566406 10.910156 12.3125 10.9375 C 12.671875 10.949219 13.019531 10.820312 13.285156 10.574219 C 13.546875 10.328125 13.703125 9.988281 13.710938 9.632812 C 13.738281 8.886719 13.15625 8.257812 12.410156 8.234375 C 12.386719 8.230469 12.363281 8.230469 12.339844 8.230469 Z M 12.625 8.910156 C 12.9375 8.910156 13.195312 9.066406 13.222656 9.269531 C 13.226562 9.273438 13.226562 9.28125 13.226562 9.289062 L 13.226562 9.324219 C 13.210938 9.535156 12.949219 9.703125 12.625 9.703125 C 12.308594 9.703125 12.046875 9.535156 12.03125 9.324219 L 12.03125 9.289062 C 12.046875 9.074219 12.308594 8.910156 12.625 8.910156 Z M 12.625 8.910156 "/>
<path style=" stroke:none;fill-rule:nonzero;fill:rgb(100%,100%,100%);fill-opacity:0.8;" d="M 7.402344 5.820312 L 7.367188 5.828125 L 7.355469 5.855469 C 7.355469 5.855469 7.339844 6.777344 7.335938 6.882812 C 7.097656 6.800781 4.910156 6.359375 2.789062 5.972656 C 1.894531 7.4375 1.375 9.15625 1.375 11 C 1.375 11.039062 1.378906 11.078125 1.378906 11.121094 C 1.421875 9.371094 1.933594 7.738281 2.789062 6.339844 C 4.910156 6.726562 7.097656 7.167969 7.335938 7.25 C 7.339844 7.144531 7.355469 6.222656 7.355469 6.222656 L 7.367188 6.195312 L 7.402344 6.1875 C 7.609375 6.214844 12.058594 6.878906 13.933594 7.96875 C 14.167969 8.105469 14.28125 8.246094 14.421875 8.394531 C 14.867188 8.851562 15.433594 10.550781 15.632812 11.320312 C 15.644531 11.3125 15.664062 11.300781 15.671875 11.296875 L 15.699219 11.25 C 15.628906 10.789062 14.941406 8.5625 14.421875 8.027344 C 14.28125 7.878906 14.167969 7.738281 13.933594 7.601562 C 12.058594 6.511719 7.609375 5.851562 7.402344 5.820312 Z M 12.339844 8.230469 C 12.007812 8.238281 11.683594 8.363281 11.4375 8.59375 C 11.171875 8.835938 11.019531 9.175781 11.011719 9.535156 C 11.007812 9.613281 11.011719 9.6875 11.023438 9.757812 C 11.0625 9.453125 11.210938 9.171875 11.4375 8.960938 C 11.683594 8.730469 12.007812 8.605469 12.339844 8.597656 C 12.363281 8.597656 12.386719 8.597656 12.410156 8.601562 C 13.078125 8.625 13.613281 9.128906 13.699219 9.769531 C 13.707031 9.726562 13.710938 9.679688 13.710938 9.632812 C 13.738281 8.886719 13.15625 8.257812 12.410156 8.234375 C 12.386719 8.230469 12.363281 8.230469 12.339844 8.230469 Z M 12.101562 9.488281 C 12.058594 9.539062 12.035156 9.59375 12.03125 9.65625 L 12.03125 9.691406 C 12.046875 9.902344 12.308594 10.070312 12.625 10.070312 C 12.949219 10.070312 13.210938 9.902344 13.226562 9.691406 L 13.226562 9.65625 C 13.226562 9.648438 13.226562 9.640625 13.222656 9.636719 C 13.214844 9.582031 13.191406 9.535156 13.15625 9.488281 C 13.054688 9.617188 12.859375 9.703125 12.625 9.703125 C 12.398438 9.703125 12.199219 9.617188 12.101562 9.488281 Z M 10.417969 9.777344 C 10.414062 9.820312 10.410156 9.859375 10.40625 9.902344 C 10.375 10.953125 11.195312 11.832031 12.242188 11.875 C 12.753906 11.890625 13.238281 11.710938 13.609375 11.363281 C 13.980469 11.019531 14.195312 10.546875 14.214844 10.039062 C 14.214844 9.953125 14.210938 9.867188 14.203125 9.785156 C 14.160156 10.25 13.953125 10.675781 13.609375 10.996094 C 13.238281 11.34375 12.753906 11.523438 12.242188 11.507812 C 11.277344 11.46875 10.507812 10.71875 10.417969 9.777344 Z M 8.152344 10.679688 C 8.238281 10.871094 8.621094 11.789062 8.6875 11.945312 L 8.710938 11.972656 C 8.980469 12.109375 11.558594 13.417969 12.835938 13.394531 C 13.867188 13.375 14.96875 12.871094 15.410156 12.605469 L 15.515625 12.589844 C 15.535156 12.507812 15.558594 12.421875 15.570312 12.363281 C 15.582031 12.304688 15.585938 12.246094 15.550781 12.214844 L 15.410156 12.238281 C 14.96875 12.503906 13.867188 13.007812 12.835938 13.027344 C 11.558594 13.050781 8.980469 11.742188 8.710938 11.605469 L 8.6875 11.578125 C 8.648438 11.484375 8.503906 11.140625 8.367188 10.820312 C 8.296875 10.773438 8.226562 10.726562 8.152344 10.679688 Z M 8.152344 10.679688 "/>
<path style=" stroke:none;fill-rule:nonzero;fill:rgb(0%,0%,0%);fill-opacity:0.2;" d="M 1.378906 11.257812 C 1.378906 11.34375 1.375 11.429688 1.375 11.515625 C 1.375 16.832031 5.683594 21.140625 11 21.140625 C 16.316406 21.140625 20.625 16.832031 20.625 11.515625 C 20.625 11.429688 20.621094 11.34375 20.621094 11.257812 C 20.484375 16.453125 16.230469 20.625 11 20.625 C 5.769531 20.625 1.515625 16.453125 1.378906 11.257812 Z M 1.378906 11.257812 "/>
<path style=" stroke:none;fill-rule:nonzero;fill:rgb(0%,0%,0%);fill-opacity:0.4;" d="M 11 2.75 C 6.429688 2.75 2.75 6.429688 2.75 11 C 2.75 11.058594 2.75 11.121094 2.753906 11.179688 C 2.847656 6.691406 6.488281 3.109375 11 3.109375 C 15.511719 3.109375 19.152344 6.691406 19.246094 11.179688 C 19.25 11.121094 19.25 11.058594 19.25 11 C 19.25 6.429688 15.570312 2.75 11 2.75 Z M 11 2.75 "/>
<path style=" stroke:none;fill-rule:nonzero;fill:rgb(100%,100%,100%);fill-opacity:0.8;" d="M 11 19.59375 C 6.429688 19.59375 2.75 15.914062 2.75 11.34375 C 2.75 11.285156 2.75 11.222656 2.753906 11.164062 C 2.847656 15.652344 6.488281 19.234375 11 19.234375 C 15.511719 19.234375 19.152344 15.652344 19.246094 11.164062 C 19.25 11.222656 19.25 11.285156 19.25 11.34375 C 19.25 15.914062 15.570312 19.59375 11 19.59375 Z M 11 19.59375 "/>
<path style=" stroke:none;fill-rule:nonzero;fill:rgb(93.333334%,93.333334%,93.333334%);fill-opacity:1;" d="M 11 1.371094 C 5.667969 1.371094 1.375 5.667969 1.375 11 C 1.375 16.332031 5.667969 20.628906 11 20.628906 C 16.332031 20.628906 20.625 16.332031 20.625 11 C 20.625 5.667969 16.332031 1.371094 11 1.371094 Z M 11 2.75 C 15.570312 2.75 19.25 6.429688 19.25 11 C 19.25 15.570312 15.570312 19.25 11 19.25 C 6.429688 19.25 2.75 15.570312 2.75 11 C 2.75 6.429688 6.429688 2.75 11 2.75 Z M 11 2.75 "/>
<path style=" stroke:none;fill-rule:nonzero;fill:rgb(0%,0%,0%);fill-opacity:0.4;" d="M 1.378906 10.824219 C 1.378906 10.882812 1.375 10.9375 1.375 10.996094 C 1.375 16.3125 5.683594 20.621094 11 20.621094 C 16.316406 20.621094 20.625 16.3125 20.625 10.996094 C 20.625 10.9375 20.621094 10.882812 20.621094 10.824219 C 20.527344 16.0625 16.257812 20.28125 11 20.28125 C 5.742188 20.28125 1.472656 16.0625 1.378906 10.824219 Z M 1.378906 10.824219 "/>
<path style=" stroke:none;fill-rule:nonzero;fill:rgb(100%,100%,100%);fill-opacity:0.6;" d="M 11 1.375 C 5.683594 1.375 1.375 5.683594 1.375 11 C 1.375 11.058594 1.375 11.113281 1.378906 11.171875 C 1.46875 5.933594 5.742188 1.71875 11 1.71875 C 16.257812 1.71875 20.53125 5.933594 20.621094 11.171875 C 20.625 11.113281 20.625 11.058594 20.625 11 C 20.625 5.683594 16.316406 1.375 11 1.375 Z M 11 1.375 "/>
<path style=" stroke:none;fill-rule:nonzero;fill:url(#linear0);" d="M 11 1.375 C 16.316406 1.375 20.625 5.683594 20.625 11 C 20.625 16.316406 16.316406 20.625 11 20.625 C 5.683594 20.625 1.375 16.316406 1.375 11 C 1.375 5.683594 5.683594 1.375 11 1.375 Z M 11 1.375 "/>
</g>
</svg>
