
<svg xmlns="http://www.w3.org/2000/svg" xmlns:xlink="http://www.w3.org/1999/xlink" width="24" height="24" viewBox="0 0 24 24" version="1.1">
<defs>
<linearGradient id="linear0" gradientUnits="userSpaceOnUse" x1="31.999998" y1="59.999996" x2="31.999998" y2="3.999999" gradientTransform="matrix(0.375,0,0,0.375,0,0.000000000000042633)">
<stop offset="0" style="stop-color:rgb(0%,0%,0%);stop-opacity:0.2;"/>
<stop offset="1" style="stop-color:rgb(100%,100%,100%);stop-opacity:0;"/>
</linearGradient>
</defs>
<g id="surface1">
<path style=" stroke:none;fill-rule:nonzero;fill:rgb(25.882354%,64.705884%,96.078432%);fill-opacity:1;" d="M 11.996094 2.253906 C 11.234375 2.253906 10.996094 3.09375 10.65625 3.648438 C 7.652344 9.097656 4.632812 14.542969 1.640625 20 C 1.445312 20.402344 1.457031 20.722656 1.625 20.980469 L 1.996094 20.679688 C 4.585938 18.585938 7.203125 16.5 9.757812 14.398438 C 10.925781 13.449219 12.089844 12.503906 13.253906 11.554688 C 13.273438 11.5 13.1875 11.039062 13.167969 10.832031 C 12.777344 7.972656 12.386719 5.113281 11.996094 2.253906 Z M 11.996094 2.253906 "/>
<path style=" stroke:none;fill-rule:nonzero;fill:rgb(40.000001%,72.941178%,40.784314%);fill-opacity:1;" d="M 8.738281 15.261719 L 1.625 20.984375 C 1.789062 21.328125 2.140625 21.566406 2.542969 21.566406 L 21.410156 21.566406 C 21.785156 21.566406 22.109375 21.363281 22.285156 21.0625 L 11.378906 16.386719 Z M 8.738281 15.261719 "/>
<path style=" stroke:none;fill-rule:nonzero;fill:rgb(93.333334%,31.764707%,30.980393%);fill-opacity:1;" d="M 11.996094 2.25 L 14.042969 17.519531 C 13.15625 17.140625 12.269531 16.765625 11.382812 16.386719 L 22.285156 21.0625 C 22.792969 20.367188 22.195312 19.632812 21.871094 19.015625 C 18.855469 13.5625 15.863281 8.097656 12.832031 2.65625 C 12.644531 2.394531 12.308594 2.246094 11.996094 2.25 Z M 8.722656 15.253906 C 6.359375 17.164062 3.988281 19.074219 1.625 20.984375 C 3.996094 19.074219 6.367188 17.167969 8.738281 15.261719 Z M 1.523438 20.523438 L 1.523438 20.550781 Z M 1.523438 20.5625 L 1.523438 20.585938 Z M 1.523438 20.589844 L 1.527344 20.609375 Z M 1.527344 20.621094 L 1.527344 20.640625 Z M 1.53125 20.648438 L 1.53125 20.667969 Z M 1.53125 20.679688 L 1.535156 20.703125 Z M 1.535156 20.707031 L 1.542969 20.738281 Z M 1.550781 20.777344 L 1.554688 20.789062 Z M 1.5625 20.828125 L 1.570312 20.839844 Z M 1.582031 20.875 L 1.585938 20.890625 Z M 1.601562 20.929688 L 1.605469 20.9375 Z M 1.617188 20.96875 L 1.625 20.980469 Z M 1.640625 21.015625 L 1.652344 21.035156 Z M 1.660156 21.054688 L 1.675781 21.074219 Z M 22.285156 21.0625 L 22.269531 21.085938 Z M 22.269531 21.089844 L 22.25 21.113281 Z M 1.683594 21.09375 L 1.703125 21.121094 Z M 22.25 21.117188 L 22.230469 21.140625 Z M 1.71875 21.140625 L 1.730469 21.15625 Z M 22.230469 21.140625 L 22.210938 21.167969 Z M 22.210938 21.167969 L 22.195312 21.191406 Z M 1.746094 21.175781 L 1.757812 21.191406 Z M 22.191406 21.195312 L 22.175781 21.214844 Z M 1.78125 21.21875 L 1.792969 21.234375 Z M 22.167969 21.21875 L 22.152344 21.238281 Z M 22.148438 21.246094 L 22.128906 21.261719 Z M 1.8125 21.25 L 1.824219 21.265625 Z M 22.125 21.265625 L 22.105469 21.285156 Z M 1.847656 21.285156 L 1.867188 21.300781 Z M 22.101562 21.289062 L 22.082031 21.304688 Z M 22.078125 21.3125 L 22.058594 21.324219 Z M 1.886719 21.320312 L 1.898438 21.332031 Z M 22.050781 21.332031 L 22.03125 21.34375 Z M 1.921875 21.347656 L 1.933594 21.355469 Z M 22.027344 21.351562 L 22.007812 21.363281 Z M 21.996094 21.371094 L 21.984375 21.382812 Z M 1.964844 21.378906 L 1.980469 21.386719 Z M 21.972656 21.390625 L 21.953125 21.402344 Z M 2.003906 21.402344 L 2.015625 21.410156 Z M 21.945312 21.40625 L 21.925781 21.417969 Z M 21.914062 21.425781 L 21.894531 21.433594 Z M 2.050781 21.429688 L 2.0625 21.433594 Z M 21.886719 21.4375 L 21.867188 21.449219 Z M 2.089844 21.453125 L 2.105469 21.457031 Z M 21.855469 21.453125 L 21.839844 21.460938 Z M 21.824219 21.46875 L 21.808594 21.472656 Z M 2.136719 21.472656 L 2.148438 21.476562 Z M 21.792969 21.480469 L 21.777344 21.488281 Z M 2.1875 21.492188 L 2.199219 21.492188 Z M 21.765625 21.492188 L 21.746094 21.496094 Z M 21.734375 21.503906 L 21.714844 21.507812 Z M 2.230469 21.507812 L 2.242188 21.507812 Z M 21.699219 21.511719 L 21.683594 21.515625 Z M 21.671875 21.519531 L 21.648438 21.523438 Z M 21.636719 21.527344 L 21.617188 21.53125 Z M 2.332031 21.53125 L 2.339844 21.53125 Z M 21.601562 21.535156 L 21.585938 21.539062 Z M 2.378906 21.539062 L 2.390625 21.542969 Z M 21.566406 21.542969 L 21.550781 21.542969 Z M 21.527344 21.546875 L 21.515625 21.546875 Z M 2.433594 21.546875 L 2.464844 21.550781 Z M 21.492188 21.550781 L 21.480469 21.550781 Z M 2.46875 21.550781 L 2.5 21.550781 Z M 21.460938 21.550781 L 21.445312 21.550781 Z M 2.507812 21.550781 L 2.542969 21.550781 Z M 2.507812 21.550781 "/>
<path style=" stroke:none;fill-rule:nonzero;fill:rgb(0%,0%,0%);fill-opacity:0.2;" d="M 13.246094 11.558594 C 12.082031 12.503906 10.921875 13.453125 9.757812 14.398438 C 9.121094 14.921875 8.476562 15.445312 7.832031 15.96875 C 8.128906 15.730469 8.425781 15.492188 8.722656 15.253906 L 8.738281 15.261719 L 9.167969 15.441406 C 9.363281 15.28125 9.5625 15.117188 9.757812 14.957031 C 10.921875 14.011719 12.082031 13.066406 13.246094 12.117188 L 13.964844 17.484375 C 13.988281 17.496094 14.015625 17.507812 14.042969 17.515625 Z M 5.101562 18.175781 C 4.066406 19.007812 3.03125 19.84375 1.996094 20.675781 L 1.625 20.980469 C 1.589844 20.925781 1.5625 20.871094 1.542969 20.8125 C 1.460938 21.097656 1.492188 21.339844 1.625 21.539062 L 1.890625 21.324219 C 1.878906 21.3125 1.863281 21.300781 1.851562 21.289062 L 1.847656 21.285156 C 1.828125 21.269531 1.8125 21.25 1.792969 21.234375 L 1.78125 21.21875 C 1.753906 21.1875 1.726562 21.152344 1.703125 21.117188 L 1.695312 21.105469 C 1.667969 21.066406 1.644531 21.023438 1.625 20.980469 C 2.78125 20.046875 3.941406 19.109375 5.101562 18.175781 Z M 22.445312 20.746094 C 22.414062 20.851562 22.363281 20.957031 22.285156 21.058594 C 22.109375 21.359375 21.785156 21.5625 21.414062 21.5625 L 2.542969 21.5625 C 2.292969 21.5625 2.070312 21.472656 1.890625 21.324219 C 1.804688 21.398438 1.714844 21.46875 1.625 21.542969 C 1.644531 21.585938 1.667969 21.625 1.695312 21.664062 L 1.703125 21.679688 C 1.726562 21.714844 1.753906 21.746094 1.78125 21.78125 L 1.792969 21.792969 C 1.8125 21.808594 1.828125 21.828125 1.847656 21.84375 L 1.851562 21.847656 C 2.03125 22.019531 2.273438 22.125 2.542969 22.125 L 21.414062 22.125 C 21.785156 22.125 22.109375 21.921875 22.285156 21.617188 C 22.496094 21.332031 22.515625 21.035156 22.445312 20.746094 Z M 1.71875 21.699219 L 1.730469 21.714844 Z M 1.71875 21.699219 "/>
<path style=" stroke:none;fill-rule:nonzero;fill:rgb(100%,100%,100%);fill-opacity:0.4;" d="M 11.996094 2.25 L 12.03125 2.496094 C 12.019531 2.417969 12.007812 2.335938 11.996094 2.253906 C 11.234375 2.253906 10.996094 3.09375 10.65625 3.648438 C 7.652344 9.101562 4.632812 14.542969 1.640625 20 C 1.507812 20.277344 1.472656 20.515625 1.515625 20.722656 C 1.539062 20.609375 1.582031 20.496094 1.640625 20.371094 C 4.632812 14.914062 7.652344 9.46875 10.65625 4.019531 C 10.996094 3.464844 11.234375 2.625 11.996094 2.625 C 12.007812 2.707031 12.019531 2.785156 12.03125 2.867188 L 11.996094 2.621094 C 12.308594 2.617188 12.644531 2.765625 12.832031 3.027344 C 15.863281 8.46875 18.855469 13.933594 21.871094 19.386719 C 22.074219 19.777344 22.390625 20.214844 22.464844 20.65625 C 22.574219 20.089844 22.132812 19.515625 21.871094 19.015625 C 18.855469 13.5625 15.863281 8.097656 12.832031 2.65625 C 12.644531 2.398438 12.308594 2.246094 11.996094 2.25 Z M 9.015625 15.378906 C 8.621094 15.699219 8.226562 16.023438 7.832031 16.34375 C 8.128906 16.101562 8.425781 15.863281 8.722656 15.625 L 8.738281 15.632812 L 11.378906 16.757812 L 22.054688 21.332031 L 11.382812 16.757812 C 12.269531 17.132812 13.15625 17.511719 14.042969 17.890625 L 13.992188 17.503906 L 11.378906 16.386719 Z M 11.382812 16.386719 L 13.992188 17.503906 L 13.992188 17.496094 C 13.121094 17.125 12.25 16.757812 11.382812 16.386719 Z M 5.101562 18.546875 C 4.066406 19.378906 3.03125 20.214844 1.996094 21.050781 L 1.785156 21.222656 C 2.890625 20.332031 3.996094 19.4375 5.101562 18.546875 Z M 1.71875 21.511719 L 1.730469 21.527344 Z M 1.71875 21.511719 "/>
<path style=" stroke:none;fill-rule:nonzero;fill:rgb(0%,0%,0%);fill-opacity:0.4;" d="M 13.246094 11.125 C 12.082031 12.070312 10.921875 13.015625 9.757812 13.960938 C 9.121094 14.488281 8.476562 15.011719 7.832031 15.535156 C 8.128906 15.296875 8.425781 15.058594 8.722656 14.820312 L 8.738281 14.824219 L 9.066406 14.964844 C 9.296875 14.777344 9.53125 14.589844 9.757812 14.398438 C 10.921875 13.453125 12.082031 12.507812 13.246094 11.5625 L 13.980469 17.054688 C 14 17.066406 14.023438 17.074219 14.042969 17.082031 Z M 5.101562 17.738281 C 4.066406 18.574219 3.03125 19.40625 1.996094 20.242188 L 1.625 20.542969 C 1.578125 20.476562 1.546875 20.402344 1.523438 20.324219 C 1.46875 20.578125 1.503906 20.796875 1.625 20.980469 L 1.820312 20.824219 C 1.8125 20.8125 1.800781 20.804688 1.792969 20.796875 L 1.78125 20.785156 C 1.753906 20.753906 1.726562 20.71875 1.703125 20.683594 L 1.695312 20.671875 C 1.667969 20.632812 1.644531 20.589844 1.625 20.546875 C 2.78125 19.609375 3.941406 18.675781 5.101562 17.738281 Z M 22.460938 20.253906 C 22.429688 20.378906 22.375 20.503906 22.285156 20.625 C 22.214844 20.75 22.117188 20.855469 22 20.9375 C 21.835938 21.058594 21.632812 21.128906 21.414062 21.128906 L 2.542969 21.128906 C 2.273438 21.128906 2.03125 21.023438 1.851562 20.855469 L 1.847656 20.851562 C 1.835938 20.84375 1.828125 20.832031 1.820312 20.824219 C 1.753906 20.878906 1.691406 20.929688 1.625 20.984375 C 1.644531 21.027344 1.667969 21.066406 1.695312 21.109375 L 1.703125 21.121094 C 1.726562 21.15625 1.753906 21.191406 1.78125 21.222656 L 1.792969 21.234375 C 1.8125 21.253906 1.828125 21.269531 1.847656 21.289062 L 1.851562 21.289062 C 2.03125 21.460938 2.273438 21.566406 2.542969 21.566406 L 21.414062 21.566406 C 21.785156 21.566406 22.109375 21.363281 22.285156 21.0625 C 22.480469 20.796875 22.511719 20.523438 22.460938 20.253906 Z M 1.71875 21.140625 L 1.730469 21.15625 Z M 1.746094 21.175781 L 1.753906 21.191406 Z M 1.746094 21.175781 "/>
<path style=" stroke:none;fill-rule:nonzero;fill:url(#linear0);" d="M 11.996094 2.25 L 12.03125 2.496094 C 12.019531 2.417969 12.007812 2.335938 11.996094 2.253906 C 11.234375 2.253906 10.996094 3.09375 10.65625 3.648438 C 7.652344 9.101562 4.632812 14.542969 1.640625 20 C 1.445312 20.402344 1.457031 20.722656 1.625 20.980469 L 1.996094 20.679688 C 3.03125 19.84375 4.066406 19.011719 5.101562 18.175781 C 3.941406 19.109375 2.78125 20.046875 1.625 20.984375 C 1.644531 21.027344 1.667969 21.066406 1.695312 21.109375 L 1.703125 21.121094 C 1.726562 21.15625 1.753906 21.191406 1.78125 21.222656 L 1.792969 21.234375 C 1.8125 21.253906 1.828125 21.269531 1.847656 21.289062 L 1.851562 21.289062 C 2.03125 21.460938 2.273438 21.566406 2.542969 21.566406 L 21.414062 21.566406 C 21.785156 21.566406 22.109375 21.363281 22.285156 21.0625 L 11.378906 16.386719 L 8.738281 15.261719 L 8.722656 15.253906 C 8.425781 15.492188 8.128906 15.734375 7.832031 15.972656 C 8.476562 15.449219 9.121094 14.925781 9.757812 14.398438 C 10.921875 13.453125 12.082031 12.507812 13.246094 11.5625 L 14.042969 17.519531 C 13.15625 17.140625 12.269531 16.765625 11.382812 16.386719 L 22.285156 21.0625 C 22.792969 20.367188 22.195312 19.632812 21.871094 19.015625 C 18.855469 13.5625 15.863281 8.097656 12.832031 2.65625 C 12.644531 2.398438 12.308594 2.246094 11.996094 2.25 Z M 1.71875 21.140625 L 1.730469 21.15625 Z M 1.746094 21.175781 L 1.753906 21.191406 Z M 1.746094 21.175781 "/>
</g>
</svg>
