
<svg xmlns="http://www.w3.org/2000/svg" xmlns:xlink="http://www.w3.org/1999/xlink" width="24" height="24" viewBox="0 0 24 24" version="1.1">
<defs>
<linearGradient id="linear0" gradientUnits="userSpaceOnUse" x1="8.466666" y1="-199.125" x2="8.466666" y2="-213.412506" gradientTransform="matrix(1.417323,0,0,1.417323,0,304.724425)">
<stop offset="0" style="stop-color:rgb(0%,0%,0%);stop-opacity:0.2;"/>
<stop offset="1" style="stop-color:rgb(100%,100%,100%);stop-opacity:0;"/>
</linearGradient>
</defs>
<g id="surface1">
<path style=" stroke:none;fill-rule:nonzero;fill:rgb(38.039216%,38.039216%,38.039216%);fill-opacity:1;" d="M 5.25 2.25 L 18.75 2.25 C 19.578125 2.25 20.25 2.921875 20.25 3.75 L 20.25 21 C 20.25 21.828125 19.578125 22.5 18.75 22.5 L 5.25 22.5 C 4.421875 22.5 3.75 21.828125 3.75 21 L 3.75 3.75 C 3.75 2.921875 4.421875 2.25 5.25 2.25 Z M 5.25 2.25 "/>
<path style=" stroke:none;fill-rule:nonzero;fill:rgb(87.843138%,87.843138%,87.843138%);fill-opacity:0.996078;" d="M 5.25 3 L 18.75 3 C 19.164062 3 19.5 3.335938 19.5 3.75 L 19.5 21 C 19.5 21.414062 19.164062 21.75 18.75 21.75 L 5.25 21.75 C 4.835938 21.75 4.5 21.414062 4.5 21 L 4.5 3.75 C 4.5 3.335938 4.835938 3 5.25 3 Z M 5.25 3 "/>
<path style=" stroke:none;fill-rule:nonzero;fill:rgb(45.882353%,45.882353%,45.882353%);fill-opacity:0.996078;" d="M 5.25 3 C 4.835938 3 4.5 3.335938 4.5 3.75 L 4.5 6 L 19.5 6 L 19.5 3.75 C 19.5 3.335938 19.164062 3 18.75 3 Z M 5.25 3 "/>
<path style=" stroke:none;fill-rule:nonzero;fill:rgb(100%,100%,100%);fill-opacity:0.4;" d="M 5.25 3 C 4.835938 3 4.5 3.335938 4.5 3.75 L 4.5 3.9375 C 4.5 3.523438 4.835938 3.1875 5.25 3.1875 L 18.75 3.1875 C 19.164062 3.1875 19.5 3.523438 19.5 3.9375 L 19.5 3.75 C 19.5 3.335938 19.164062 3 18.75 3 Z M 5.25 3 "/>
<path style=" stroke:none;fill-rule:nonzero;fill:rgb(98.039216%,98.039216%,98.039216%);fill-opacity:0.996078;" d="M 19.5 18 L 15.75 21.75 L 18.75 21.75 C 19.164062 21.75 19.5 21.414062 19.5 21 Z M 19.5 18 "/>
<path style=" stroke:none;fill-rule:nonzero;fill:rgb(100%,100%,100%);fill-opacity:0.4;" d="M 5.25 2.25 C 4.417969 2.25 3.75 2.917969 3.75 3.75 L 3.75 4.121094 C 3.75 3.292969 4.417969 2.621094 5.25 2.621094 L 18.75 2.621094 C 19.582031 2.621094 20.25 3.292969 20.25 4.121094 L 20.25 3.75 C 20.25 2.917969 19.582031 2.25 18.75 2.25 Z M 5.25 2.25 "/>
<path style=" stroke:none;fill-rule:nonzero;fill:rgb(0.392157%,0.392157%,0.392157%);fill-opacity:0.4;" d="M 6.75 3.554688 C 7.0625 3.554688 7.3125 3.804688 7.3125 4.117188 C 7.3125 4.425781 7.0625 4.679688 6.75 4.679688 C 6.4375 4.679688 6.1875 4.425781 6.1875 4.117188 C 6.1875 3.804688 6.4375 3.554688 6.75 3.554688 Z M 6.75 3.554688 "/>
<path style=" stroke:none;fill-rule:nonzero;fill:rgb(0.392157%,0.392157%,0.392157%);fill-opacity:0.4;" d="M 6.734375 3.554688 C 6.429688 3.558594 6.1875 3.808594 6.1875 4.117188 C 6.1875 4.148438 6.191406 4.179688 6.195312 4.210938 C 6.238281 3.941406 6.46875 3.742188 6.75 3.742188 C 7.03125 3.742188 7.261719 3.941406 7.304688 4.210938 C 7.308594 4.179688 7.3125 4.148438 7.3125 4.117188 C 7.3125 3.804688 7.0625 3.554688 6.75 3.554688 C 6.746094 3.554688 6.738281 3.554688 6.734375 3.554688 Z M 6.734375 3.554688 "/>
<path style=" stroke:none;fill-rule:nonzero;fill:rgb(100%,100%,100%);fill-opacity:0.4;" d="M 6.734375 4.867188 C 6.429688 4.859375 6.1875 4.609375 6.1875 4.304688 C 6.1875 4.269531 6.191406 4.238281 6.195312 4.210938 C 6.238281 4.476562 6.46875 4.679688 6.75 4.679688 C 7.03125 4.679688 7.261719 4.476562 7.304688 4.210938 C 7.308594 4.238281 7.3125 4.269531 7.3125 4.304688 C 7.3125 4.613281 7.0625 4.867188 6.75 4.867188 C 6.746094 4.867188 6.738281 4.867188 6.734375 4.867188 Z M 6.734375 4.867188 "/>
<path style=" stroke:none;fill-rule:nonzero;fill:rgb(100%,65.490198%,14.901961%);fill-opacity:0.996078;" d="M 6.75 1.507812 C 6.855469 1.507812 6.9375 1.59375 6.9375 1.695312 L 6.9375 4.125 C 6.9375 4.230469 6.855469 4.3125 6.75 4.3125 C 6.644531 4.3125 6.5625 4.230469 6.5625 4.125 L 6.5625 1.695312 C 6.5625 1.59375 6.644531 1.507812 6.75 1.507812 Z M 6.75 1.507812 "/>
<path style=" stroke:none;fill-rule:nonzero;fill:rgb(100%,100%,100%);fill-opacity:0.4;" d="M 6.742188 1.507812 C 6.640625 1.515625 6.5625 1.597656 6.5625 1.695312 L 6.5625 1.875 C 6.566406 1.777344 6.644531 1.703125 6.742188 1.695312 C 6.742188 1.695312 6.746094 1.695312 6.75 1.695312 C 6.851562 1.695312 6.933594 1.777344 6.9375 1.875 L 6.9375 1.695312 C 6.9375 1.59375 6.855469 1.507812 6.75 1.507812 C 6.746094 1.507812 6.742188 1.507812 6.742188 1.507812 Z M 6.742188 1.507812 "/>
<path style=" stroke:none;fill-rule:nonzero;fill:rgb(0.392157%,0.392157%,0.392157%);fill-opacity:0.4;" d="M 6.5625 4.125 L 6.5625 4.304688 C 6.5625 4.402344 6.640625 4.484375 6.742188 4.492188 C 6.742188 4.492188 6.746094 4.492188 6.75 4.492188 C 6.855469 4.492188 6.9375 4.40625 6.9375 4.304688 L 6.9375 4.125 C 6.933594 4.222656 6.851562 4.304688 6.75 4.304688 C 6.746094 4.304688 6.742188 4.304688 6.742188 4.304688 C 6.644531 4.296875 6.566406 4.222656 6.5625 4.125 Z M 6.5625 4.125 "/>
<path style=" stroke:none;fill-rule:nonzero;fill:rgb(0.392157%,0.392157%,0.392157%);fill-opacity:0.4;" d="M 5.25 22.5 C 4.417969 22.5 3.75 21.832031 3.75 21 L 3.75 20.628906 C 3.75 21.457031 4.417969 22.128906 5.25 22.128906 L 18.75 22.128906 C 19.582031 22.128906 20.25 21.457031 20.25 20.628906 L 20.25 21 C 20.25 21.832031 19.582031 22.5 18.75 22.5 Z M 5.25 22.5 "/>
<path style=" stroke:none;fill-rule:nonzero;fill:rgb(0.392157%,0.392157%,0.392157%);fill-opacity:0.2;" d="M 3.75 21 L 3.75 21.558594 C 3.75 22.390625 4.417969 23.058594 5.25 23.058594 L 18.75 23.058594 C 19.582031 23.058594 20.25 22.390625 20.25 21.558594 L 20.25 21 C 20.25 21.832031 19.582031 22.5 18.75 22.5 L 5.25 22.5 C 4.417969 22.5 3.75 21.832031 3.75 21 Z M 3.75 21 "/>
<path style=" stroke:none;fill-rule:nonzero;fill:rgb(25.490198%,25.490198%,25.490198%);fill-opacity:0.6;" d="M 5.25 21.9375 C 4.835938 21.9375 4.5 21.601562 4.5 21.1875 L 4.5 21 C 4.5 21.414062 4.835938 21.75 5.25 21.75 L 18.75 21.75 C 19.164062 21.75 19.5 21.414062 19.5 21 L 19.5 21.1875 C 19.5 21.601562 19.164062 21.9375 18.75 21.9375 Z M 5.25 21.9375 "/>
<path style=" stroke:none;fill-rule:nonzero;fill:rgb(0.392157%,0.392157%,0.392157%);fill-opacity:0.4;" d="M 8.25 3.554688 C 8.5625 3.554688 8.8125 3.804688 8.8125 4.117188 C 8.8125 4.425781 8.5625 4.679688 8.25 4.679688 C 7.9375 4.679688 7.6875 4.425781 7.6875 4.117188 C 7.6875 3.804688 7.9375 3.554688 8.25 3.554688 Z M 8.25 3.554688 "/>
<path style=" stroke:none;fill-rule:nonzero;fill:rgb(0.392157%,0.392157%,0.392157%);fill-opacity:0.4;" d="M 8.234375 3.554688 C 7.929688 3.558594 7.6875 3.808594 7.6875 4.117188 C 7.6875 4.148438 7.691406 4.179688 7.695312 4.210938 C 7.738281 3.941406 7.96875 3.742188 8.25 3.742188 C 8.53125 3.742188 8.761719 3.941406 8.804688 4.210938 C 8.808594 4.179688 8.8125 4.148438 8.8125 4.117188 C 8.8125 3.804688 8.5625 3.554688 8.25 3.554688 C 8.246094 3.554688 8.238281 3.554688 8.234375 3.554688 Z M 8.234375 3.554688 "/>
<path style=" stroke:none;fill-rule:nonzero;fill:rgb(100%,100%,100%);fill-opacity:0.4;" d="M 8.234375 4.867188 C 7.929688 4.859375 7.6875 4.609375 7.6875 4.304688 C 7.6875 4.269531 7.691406 4.238281 7.695312 4.210938 C 7.738281 4.476562 7.96875 4.679688 8.25 4.679688 C 8.53125 4.679688 8.761719 4.476562 8.804688 4.210938 C 8.808594 4.238281 8.8125 4.269531 8.8125 4.304688 C 8.8125 4.613281 8.5625 4.867188 8.25 4.867188 C 8.246094 4.867188 8.238281 4.867188 8.234375 4.867188 Z M 8.234375 4.867188 "/>
<path style=" stroke:none;fill-rule:nonzero;fill:rgb(100%,65.490198%,14.901961%);fill-opacity:0.996078;" d="M 8.25 1.507812 C 8.355469 1.507812 8.4375 1.59375 8.4375 1.695312 L 8.4375 4.125 C 8.4375 4.230469 8.355469 4.3125 8.25 4.3125 C 8.144531 4.3125 8.0625 4.230469 8.0625 4.125 L 8.0625 1.695312 C 8.0625 1.59375 8.144531 1.507812 8.25 1.507812 Z M 8.25 1.507812 "/>
<path style=" stroke:none;fill-rule:nonzero;fill:rgb(100%,100%,100%);fill-opacity:0.4;" d="M 8.242188 1.507812 C 8.140625 1.515625 8.0625 1.597656 8.0625 1.695312 L 8.0625 1.875 C 8.066406 1.777344 8.144531 1.703125 8.242188 1.695312 C 8.242188 1.695312 8.246094 1.695312 8.25 1.695312 C 8.351562 1.695312 8.433594 1.777344 8.4375 1.875 L 8.4375 1.695312 C 8.4375 1.59375 8.355469 1.507812 8.25 1.507812 C 8.246094 1.507812 8.242188 1.507812 8.242188 1.507812 Z M 8.242188 1.507812 "/>
<path style=" stroke:none;fill-rule:nonzero;fill:rgb(0.392157%,0.392157%,0.392157%);fill-opacity:0.4;" d="M 8.0625 4.125 L 8.0625 4.304688 C 8.0625 4.402344 8.140625 4.484375 8.242188 4.492188 C 8.242188 4.492188 8.246094 4.492188 8.25 4.492188 C 8.355469 4.492188 8.4375 4.40625 8.4375 4.304688 L 8.4375 4.125 C 8.433594 4.222656 8.351562 4.304688 8.25 4.304688 C 8.246094 4.304688 8.242188 4.304688 8.242188 4.304688 C 8.144531 4.296875 8.066406 4.222656 8.0625 4.125 Z M 8.0625 4.125 "/>
<path style=" stroke:none;fill-rule:nonzero;fill:rgb(0.392157%,0.392157%,0.392157%);fill-opacity:0.4;" d="M 9.75 3.554688 C 10.0625 3.554688 10.3125 3.804688 10.3125 4.117188 C 10.3125 4.425781 10.0625 4.679688 9.75 4.679688 C 9.4375 4.679688 9.1875 4.425781 9.1875 4.117188 C 9.1875 3.804688 9.4375 3.554688 9.75 3.554688 Z M 9.75 3.554688 "/>
<path style=" stroke:none;fill-rule:nonzero;fill:rgb(0.392157%,0.392157%,0.392157%);fill-opacity:0.4;" d="M 9.734375 3.554688 C 9.429688 3.558594 9.1875 3.808594 9.1875 4.117188 C 9.1875 4.148438 9.191406 4.179688 9.195312 4.210938 C 9.238281 3.941406 9.46875 3.742188 9.75 3.742188 C 10.03125 3.742188 10.261719 3.941406 10.304688 4.210938 C 10.308594 4.179688 10.3125 4.148438 10.3125 4.117188 C 10.3125 3.804688 10.0625 3.554688 9.75 3.554688 C 9.746094 3.554688 9.738281 3.554688 9.734375 3.554688 Z M 9.734375 3.554688 "/>
<path style=" stroke:none;fill-rule:nonzero;fill:rgb(100%,100%,100%);fill-opacity:0.4;" d="M 9.734375 4.867188 C 9.429688 4.859375 9.1875 4.609375 9.1875 4.304688 C 9.1875 4.269531 9.191406 4.238281 9.195312 4.210938 C 9.238281 4.476562 9.46875 4.679688 9.75 4.679688 C 10.03125 4.679688 10.261719 4.476562 10.304688 4.210938 C 10.308594 4.238281 10.3125 4.269531 10.3125 4.304688 C 10.3125 4.613281 10.0625 4.867188 9.75 4.867188 C 9.746094 4.867188 9.738281 4.867188 9.734375 4.867188 Z M 9.734375 4.867188 "/>
<path style=" stroke:none;fill-rule:nonzero;fill:rgb(100%,65.490198%,14.901961%);fill-opacity:0.996078;" d="M 9.75 1.507812 C 9.855469 1.507812 9.9375 1.59375 9.9375 1.695312 L 9.9375 4.125 C 9.9375 4.230469 9.855469 4.3125 9.75 4.3125 C 9.644531 4.3125 9.5625 4.230469 9.5625 4.125 L 9.5625 1.695312 C 9.5625 1.59375 9.644531 1.507812 9.75 1.507812 Z M 9.75 1.507812 "/>
<path style=" stroke:none;fill-rule:nonzero;fill:rgb(100%,100%,100%);fill-opacity:0.4;" d="M 9.742188 1.507812 C 9.640625 1.515625 9.5625 1.597656 9.5625 1.695312 L 9.5625 1.875 C 9.566406 1.777344 9.644531 1.703125 9.742188 1.695312 C 9.742188 1.695312 9.746094 1.695312 9.75 1.695312 C 9.851562 1.695312 9.933594 1.777344 9.9375 1.875 L 9.9375 1.695312 C 9.9375 1.59375 9.855469 1.507812 9.75 1.507812 C 9.746094 1.507812 9.742188 1.507812 9.742188 1.507812 Z M 9.742188 1.507812 "/>
<path style=" stroke:none;fill-rule:nonzero;fill:rgb(0.392157%,0.392157%,0.392157%);fill-opacity:0.4;" d="M 9.5625 4.125 L 9.5625 4.304688 C 9.5625 4.402344 9.640625 4.484375 9.742188 4.492188 C 9.742188 4.492188 9.746094 4.492188 9.75 4.492188 C 9.855469 4.492188 9.9375 4.40625 9.9375 4.304688 L 9.9375 4.125 C 9.933594 4.222656 9.851562 4.304688 9.75 4.304688 C 9.746094 4.304688 9.742188 4.304688 9.742188 4.304688 C 9.644531 4.296875 9.566406 4.222656 9.5625 4.125 Z M 9.5625 4.125 "/>
<path style=" stroke:none;fill-rule:nonzero;fill:rgb(0.392157%,0.392157%,0.392157%);fill-opacity:0.4;" d="M 11.25 3.554688 C 11.5625 3.554688 11.8125 3.804688 11.8125 4.117188 C 11.8125 4.425781 11.5625 4.679688 11.25 4.679688 C 10.9375 4.679688 10.6875 4.425781 10.6875 4.117188 C 10.6875 3.804688 10.9375 3.554688 11.25 3.554688 Z M 11.25 3.554688 "/>
<path style=" stroke:none;fill-rule:nonzero;fill:rgb(0.392157%,0.392157%,0.392157%);fill-opacity:0.4;" d="M 11.234375 3.554688 C 10.929688 3.558594 10.6875 3.808594 10.6875 4.117188 C 10.6875 4.148438 10.691406 4.179688 10.695312 4.210938 C 10.738281 3.941406 10.96875 3.742188 11.25 3.742188 C 11.53125 3.742188 11.761719 3.941406 11.804688 4.210938 C 11.808594 4.179688 11.8125 4.148438 11.8125 4.117188 C 11.8125 3.804688 11.5625 3.554688 11.25 3.554688 C 11.246094 3.554688 11.238281 3.554688 11.234375 3.554688 Z M 11.234375 3.554688 "/>
<path style=" stroke:none;fill-rule:nonzero;fill:rgb(100%,100%,100%);fill-opacity:0.4;" d="M 11.234375 4.867188 C 10.929688 4.859375 10.6875 4.609375 10.6875 4.304688 C 10.6875 4.269531 10.691406 4.238281 10.695312 4.210938 C 10.738281 4.476562 10.96875 4.679688 11.25 4.679688 C 11.53125 4.679688 11.761719 4.476562 11.804688 4.210938 C 11.808594 4.238281 11.8125 4.269531 11.8125 4.304688 C 11.8125 4.613281 11.5625 4.867188 11.25 4.867188 C 11.246094 4.867188 11.238281 4.867188 11.234375 4.867188 Z M 11.234375 4.867188 "/>
<path style=" stroke:none;fill-rule:nonzero;fill:rgb(100%,65.490198%,14.901961%);fill-opacity:0.996078;" d="M 11.25 1.507812 C 11.355469 1.507812 11.4375 1.59375 11.4375 1.695312 L 11.4375 4.125 C 11.4375 4.230469 11.355469 4.3125 11.25 4.3125 C 11.144531 4.3125 11.0625 4.230469 11.0625 4.125 L 11.0625 1.695312 C 11.0625 1.59375 11.144531 1.507812 11.25 1.507812 Z M 11.25 1.507812 "/>
<path style=" stroke:none;fill-rule:nonzero;fill:rgb(100%,100%,100%);fill-opacity:0.4;" d="M 11.242188 1.507812 C 11.140625 1.515625 11.0625 1.597656 11.0625 1.695312 L 11.0625 1.875 C 11.066406 1.777344 11.144531 1.703125 11.242188 1.695312 C 11.242188 1.695312 11.246094 1.695312 11.25 1.695312 C 11.351562 1.695312 11.433594 1.777344 11.4375 1.875 L 11.4375 1.695312 C 11.4375 1.59375 11.355469 1.507812 11.25 1.507812 C 11.246094 1.507812 11.242188 1.507812 11.242188 1.507812 Z M 11.242188 1.507812 "/>
<path style=" stroke:none;fill-rule:nonzero;fill:rgb(0.392157%,0.392157%,0.392157%);fill-opacity:0.4;" d="M 11.0625 4.125 L 11.0625 4.304688 C 11.0625 4.402344 11.140625 4.484375 11.242188 4.492188 C 11.242188 4.492188 11.246094 4.492188 11.25 4.492188 C 11.355469 4.492188 11.4375 4.40625 11.4375 4.304688 L 11.4375 4.125 C 11.433594 4.222656 11.351562 4.304688 11.25 4.304688 C 11.246094 4.304688 11.242188 4.304688 11.242188 4.304688 C 11.144531 4.296875 11.066406 4.222656 11.0625 4.125 Z M 11.0625 4.125 "/>
<path style=" stroke:none;fill-rule:nonzero;fill:rgb(0.392157%,0.392157%,0.392157%);fill-opacity:0.4;" d="M 12.75 3.554688 C 13.0625 3.554688 13.3125 3.804688 13.3125 4.117188 C 13.3125 4.425781 13.0625 4.679688 12.75 4.679688 C 12.4375 4.679688 12.1875 4.425781 12.1875 4.117188 C 12.1875 3.804688 12.4375 3.554688 12.75 3.554688 Z M 12.75 3.554688 "/>
<path style=" stroke:none;fill-rule:nonzero;fill:rgb(0.392157%,0.392157%,0.392157%);fill-opacity:0.4;" d="M 12.734375 3.554688 C 12.429688 3.558594 12.1875 3.808594 12.1875 4.117188 C 12.1875 4.148438 12.191406 4.179688 12.195312 4.210938 C 12.238281 3.941406 12.46875 3.742188 12.75 3.742188 C 13.03125 3.742188 13.261719 3.941406 13.304688 4.210938 C 13.308594 4.179688 13.3125 4.148438 13.3125 4.117188 C 13.3125 3.804688 13.0625 3.554688 12.75 3.554688 C 12.746094 3.554688 12.738281 3.554688 12.734375 3.554688 Z M 12.734375 3.554688 "/>
<path style=" stroke:none;fill-rule:nonzero;fill:rgb(100%,100%,100%);fill-opacity:0.4;" d="M 12.734375 4.867188 C 12.429688 4.859375 12.1875 4.609375 12.1875 4.304688 C 12.1875 4.269531 12.191406 4.238281 12.195312 4.210938 C 12.238281 4.476562 12.46875 4.679688 12.75 4.679688 C 13.03125 4.679688 13.261719 4.476562 13.304688 4.210938 C 13.308594 4.238281 13.3125 4.269531 13.3125 4.304688 C 13.3125 4.613281 13.0625 4.867188 12.75 4.867188 C 12.746094 4.867188 12.738281 4.867188 12.734375 4.867188 Z M 12.734375 4.867188 "/>
<path style=" stroke:none;fill-rule:nonzero;fill:rgb(100%,65.490198%,14.901961%);fill-opacity:0.996078;" d="M 12.75 1.507812 C 12.855469 1.507812 12.9375 1.59375 12.9375 1.695312 L 12.9375 4.125 C 12.9375 4.230469 12.855469 4.3125 12.75 4.3125 C 12.644531 4.3125 12.5625 4.230469 12.5625 4.125 L 12.5625 1.695312 C 12.5625 1.59375 12.644531 1.507812 12.75 1.507812 Z M 12.75 1.507812 "/>
<path style=" stroke:none;fill-rule:nonzero;fill:rgb(100%,100%,100%);fill-opacity:0.4;" d="M 12.742188 1.507812 C 12.640625 1.515625 12.5625 1.597656 12.5625 1.695312 L 12.5625 1.875 C 12.566406 1.777344 12.644531 1.703125 12.742188 1.695312 C 12.742188 1.695312 12.746094 1.695312 12.75 1.695312 C 12.851562 1.695312 12.933594 1.777344 12.9375 1.875 L 12.9375 1.695312 C 12.9375 1.59375 12.855469 1.507812 12.75 1.507812 C 12.746094 1.507812 12.742188 1.507812 12.742188 1.507812 Z M 12.742188 1.507812 "/>
<path style=" stroke:none;fill-rule:nonzero;fill:rgb(0.392157%,0.392157%,0.392157%);fill-opacity:0.4;" d="M 12.5625 4.125 L 12.5625 4.304688 C 12.5625 4.402344 12.640625 4.484375 12.742188 4.492188 C 12.742188 4.492188 12.746094 4.492188 12.75 4.492188 C 12.855469 4.492188 12.9375 4.40625 12.9375 4.304688 L 12.9375 4.125 C 12.933594 4.222656 12.851562 4.304688 12.75 4.304688 C 12.746094 4.304688 12.742188 4.304688 12.742188 4.304688 C 12.644531 4.296875 12.566406 4.222656 12.5625 4.125 Z M 12.5625 4.125 "/>
<path style=" stroke:none;fill-rule:nonzero;fill:rgb(0.392157%,0.392157%,0.392157%);fill-opacity:0.4;" d="M 14.25 3.554688 C 14.5625 3.554688 14.8125 3.804688 14.8125 4.117188 C 14.8125 4.425781 14.5625 4.679688 14.25 4.679688 C 13.9375 4.679688 13.6875 4.425781 13.6875 4.117188 C 13.6875 3.804688 13.9375 3.554688 14.25 3.554688 Z M 14.25 3.554688 "/>
<path style=" stroke:none;fill-rule:nonzero;fill:rgb(0.392157%,0.392157%,0.392157%);fill-opacity:0.4;" d="M 14.234375 3.554688 C 13.929688 3.558594 13.6875 3.808594 13.6875 4.117188 C 13.6875 4.148438 13.691406 4.179688 13.695312 4.210938 C 13.738281 3.941406 13.96875 3.742188 14.25 3.742188 C 14.53125 3.742188 14.761719 3.941406 14.804688 4.210938 C 14.808594 4.179688 14.8125 4.148438 14.8125 4.117188 C 14.8125 3.804688 14.5625 3.554688 14.25 3.554688 C 14.246094 3.554688 14.242188 3.554688 14.234375 3.554688 Z M 14.234375 3.554688 "/>
<path style=" stroke:none;fill-rule:nonzero;fill:rgb(100%,100%,100%);fill-opacity:0.4;" d="M 14.234375 4.867188 C 13.929688 4.859375 13.6875 4.609375 13.6875 4.304688 C 13.6875 4.269531 13.691406 4.238281 13.695312 4.210938 C 13.738281 4.476562 13.96875 4.679688 14.25 4.679688 C 14.53125 4.679688 14.761719 4.476562 14.804688 4.210938 C 14.808594 4.238281 14.8125 4.269531 14.8125 4.304688 C 14.8125 4.613281 14.5625 4.867188 14.25 4.867188 C 14.246094 4.867188 14.238281 4.867188 14.234375 4.867188 Z M 14.234375 4.867188 "/>
<path style=" stroke:none;fill-rule:nonzero;fill:rgb(100%,65.490198%,14.901961%);fill-opacity:0.996078;" d="M 14.25 1.507812 C 14.355469 1.507812 14.4375 1.59375 14.4375 1.695312 L 14.4375 4.125 C 14.4375 4.230469 14.355469 4.3125 14.25 4.3125 C 14.144531 4.3125 14.0625 4.230469 14.0625 4.125 L 14.0625 1.695312 C 14.0625 1.59375 14.144531 1.507812 14.25 1.507812 Z M 14.25 1.507812 "/>
<path style=" stroke:none;fill-rule:nonzero;fill:rgb(100%,100%,100%);fill-opacity:0.4;" d="M 14.242188 1.507812 C 14.140625 1.515625 14.0625 1.597656 14.0625 1.695312 L 14.0625 1.875 C 14.066406 1.777344 14.144531 1.703125 14.242188 1.695312 C 14.242188 1.695312 14.246094 1.695312 14.25 1.695312 C 14.351562 1.695312 14.433594 1.777344 14.4375 1.875 L 14.4375 1.695312 C 14.4375 1.59375 14.355469 1.507812 14.25 1.507812 C 14.246094 1.507812 14.242188 1.507812 14.242188 1.507812 Z M 14.242188 1.507812 "/>
<path style=" stroke:none;fill-rule:nonzero;fill:rgb(0.392157%,0.392157%,0.392157%);fill-opacity:0.4;" d="M 14.0625 4.125 L 14.0625 4.304688 C 14.0625 4.402344 14.140625 4.484375 14.242188 4.492188 C 14.242188 4.492188 14.246094 4.492188 14.25 4.492188 C 14.355469 4.492188 14.4375 4.40625 14.4375 4.304688 L 14.4375 4.125 C 14.433594 4.222656 14.351562 4.304688 14.25 4.304688 C 14.246094 4.304688 14.242188 4.304688 14.242188 4.304688 C 14.144531 4.296875 14.066406 4.222656 14.0625 4.125 Z M 14.0625 4.125 "/>
<path style=" stroke:none;fill-rule:nonzero;fill:rgb(0.392157%,0.392157%,0.392157%);fill-opacity:0.4;" d="M 15.75 3.554688 C 16.0625 3.554688 16.3125 3.804688 16.3125 4.117188 C 16.3125 4.425781 16.0625 4.679688 15.75 4.679688 C 15.4375 4.679688 15.1875 4.425781 15.1875 4.117188 C 15.1875 3.804688 15.4375 3.554688 15.75 3.554688 Z M 15.75 3.554688 "/>
<path style=" stroke:none;fill-rule:nonzero;fill:rgb(0.392157%,0.392157%,0.392157%);fill-opacity:0.4;" d="M 15.734375 3.554688 C 15.429688 3.558594 15.1875 3.808594 15.1875 4.117188 C 15.1875 4.148438 15.191406 4.179688 15.195312 4.210938 C 15.238281 3.941406 15.46875 3.742188 15.75 3.742188 C 16.03125 3.742188 16.261719 3.941406 16.304688 4.210938 C 16.308594 4.179688 16.3125 4.148438 16.3125 4.117188 C 16.3125 3.804688 16.0625 3.554688 15.75 3.554688 C 15.746094 3.554688 15.742188 3.554688 15.734375 3.554688 Z M 15.734375 3.554688 "/>
<path style=" stroke:none;fill-rule:nonzero;fill:rgb(100%,100%,100%);fill-opacity:0.4;" d="M 15.734375 4.867188 C 15.429688 4.859375 15.1875 4.609375 15.1875 4.304688 C 15.1875 4.269531 15.191406 4.238281 15.195312 4.210938 C 15.238281 4.476562 15.46875 4.679688 15.75 4.679688 C 16.03125 4.679688 16.261719 4.476562 16.304688 4.210938 C 16.308594 4.238281 16.3125 4.269531 16.3125 4.304688 C 16.3125 4.613281 16.0625 4.867188 15.75 4.867188 C 15.746094 4.867188 15.742188 4.867188 15.734375 4.867188 Z M 15.734375 4.867188 "/>
<path style=" stroke:none;fill-rule:nonzero;fill:rgb(100%,65.490198%,14.901961%);fill-opacity:0.996078;" d="M 15.75 1.507812 C 15.855469 1.507812 15.9375 1.59375 15.9375 1.695312 L 15.9375 4.125 C 15.9375 4.230469 15.855469 4.3125 15.75 4.3125 C 15.644531 4.3125 15.5625 4.230469 15.5625 4.125 L 15.5625 1.695312 C 15.5625 1.59375 15.644531 1.507812 15.75 1.507812 Z M 15.75 1.507812 "/>
<path style=" stroke:none;fill-rule:nonzero;fill:rgb(100%,100%,100%);fill-opacity:0.4;" d="M 15.742188 1.507812 C 15.640625 1.515625 15.5625 1.597656 15.5625 1.695312 L 15.5625 1.875 C 15.566406 1.777344 15.644531 1.703125 15.742188 1.695312 C 15.742188 1.695312 15.746094 1.695312 15.75 1.695312 C 15.851562 1.695312 15.933594 1.777344 15.9375 1.875 L 15.9375 1.695312 C 15.9375 1.59375 15.855469 1.507812 15.75 1.507812 C 15.746094 1.507812 15.742188 1.507812 15.742188 1.507812 Z M 15.742188 1.507812 "/>
<path style=" stroke:none;fill-rule:nonzero;fill:rgb(0.392157%,0.392157%,0.392157%);fill-opacity:0.4;" d="M 15.5625 4.125 L 15.5625 4.304688 C 15.5625 4.402344 15.640625 4.484375 15.742188 4.492188 C 15.742188 4.492188 15.746094 4.492188 15.75 4.492188 C 15.855469 4.492188 15.9375 4.40625 15.9375 4.304688 L 15.9375 4.125 C 15.933594 4.222656 15.851562 4.304688 15.75 4.304688 C 15.746094 4.304688 15.742188 4.304688 15.742188 4.304688 C 15.644531 4.296875 15.566406 4.222656 15.5625 4.125 Z M 15.5625 4.125 "/>
<path style=" stroke:none;fill-rule:nonzero;fill:rgb(0.392157%,0.392157%,0.392157%);fill-opacity:0.4;" d="M 17.25 3.554688 C 17.5625 3.554688 17.8125 3.804688 17.8125 4.117188 C 17.8125 4.425781 17.5625 4.679688 17.25 4.679688 C 16.9375 4.679688 16.6875 4.425781 16.6875 4.117188 C 16.6875 3.804688 16.9375 3.554688 17.25 3.554688 Z M 17.25 3.554688 "/>
<path style=" stroke:none;fill-rule:nonzero;fill:rgb(0.392157%,0.392157%,0.392157%);fill-opacity:0.4;" d="M 17.234375 3.554688 C 16.929688 3.558594 16.6875 3.808594 16.6875 4.117188 C 16.6875 4.148438 16.691406 4.179688 16.695312 4.210938 C 16.738281 3.941406 16.96875 3.742188 17.25 3.742188 C 17.53125 3.742188 17.761719 3.941406 17.804688 4.210938 C 17.808594 4.179688 17.8125 4.148438 17.8125 4.117188 C 17.8125 3.804688 17.5625 3.554688 17.25 3.554688 C 17.246094 3.554688 17.242188 3.554688 17.234375 3.554688 Z M 17.234375 3.554688 "/>
<path style=" stroke:none;fill-rule:nonzero;fill:rgb(100%,100%,100%);fill-opacity:0.4;" d="M 17.234375 4.867188 C 16.929688 4.859375 16.6875 4.609375 16.6875 4.304688 C 16.6875 4.269531 16.691406 4.238281 16.695312 4.210938 C 16.738281 4.476562 16.96875 4.679688 17.25 4.679688 C 17.53125 4.679688 17.761719 4.476562 17.804688 4.210938 C 17.808594 4.238281 17.8125 4.269531 17.8125 4.304688 C 17.8125 4.613281 17.5625 4.867188 17.25 4.867188 C 17.246094 4.867188 17.242188 4.867188 17.234375 4.867188 Z M 17.234375 4.867188 "/>
<path style=" stroke:none;fill-rule:nonzero;fill:rgb(100%,65.490198%,14.901961%);fill-opacity:0.996078;" d="M 17.25 1.507812 C 17.355469 1.507812 17.4375 1.59375 17.4375 1.695312 L 17.4375 4.125 C 17.4375 4.230469 17.355469 4.3125 17.25 4.3125 C 17.144531 4.3125 17.0625 4.230469 17.0625 4.125 L 17.0625 1.695312 C 17.0625 1.59375 17.144531 1.507812 17.25 1.507812 Z M 17.25 1.507812 "/>
<path style=" stroke:none;fill-rule:nonzero;fill:rgb(100%,100%,100%);fill-opacity:0.4;" d="M 17.242188 1.507812 C 17.140625 1.515625 17.0625 1.597656 17.0625 1.695312 L 17.0625 1.875 C 17.066406 1.777344 17.144531 1.703125 17.242188 1.695312 C 17.242188 1.695312 17.246094 1.695312 17.25 1.695312 C 17.351562 1.695312 17.433594 1.777344 17.4375 1.875 L 17.4375 1.695312 C 17.4375 1.59375 17.355469 1.507812 17.25 1.507812 C 17.246094 1.507812 17.242188 1.507812 17.242188 1.507812 Z M 17.242188 1.507812 "/>
<path style=" stroke:none;fill-rule:nonzero;fill:rgb(0.392157%,0.392157%,0.392157%);fill-opacity:0.4;" d="M 17.0625 4.125 L 17.0625 4.304688 C 17.0625 4.402344 17.140625 4.484375 17.242188 4.492188 C 17.242188 4.492188 17.246094 4.492188 17.25 4.492188 C 17.355469 4.492188 17.4375 4.40625 17.4375 4.304688 L 17.4375 4.125 C 17.433594 4.222656 17.351562 4.304688 17.25 4.304688 C 17.246094 4.304688 17.242188 4.304688 17.242188 4.304688 C 17.144531 4.296875 17.066406 4.222656 17.0625 4.125 Z M 17.0625 4.125 "/>
<path style=" stroke:none;fill-rule:nonzero;fill:rgb(100%,95.294118%,87.843138%);fill-opacity:1;" d="M 4.5 6 L 19.5 6 L 18.75 6.75 L 18.1875 6.1875 L 17.8125 6.5625 L 17.4375 6.1875 L 16.875 6.75 L 16.3125 6.1875 L 15.9375 6.5625 L 15.5625 6.1875 L 15 6.75 L 14.4375 6.1875 L 14.0625 6.5625 L 13.6875 6.1875 L 13.3125 6.75 L 12.9375 6.1875 L 12.5625 6.5625 L 12.375 6.1875 L 12 6.5625 L 11.625 6.1875 L 11.0625 6.75 L 10.5 6.1875 L 10.125 6.5625 L 9.75 6.1875 L 9.375 6.5625 L 9 6.1875 L 8.625 6.75 L 8.25 6.1875 L 7.875 6.5625 L 7.5 6.1875 L 7.125 6.75 L 6.75 6.1875 L 6.5625 6.5625 L 6.1875 6.1875 L 5.8125 6.5625 L 5.4375 6.1875 L 5.0625 6.75 Z M 4.5 6 "/>
<path style=" stroke:none;fill-rule:nonzero;fill:rgb(0%,0%,0%);fill-opacity:0.4;" d="M 4.5 6 L 19.5 6 L 18.75 6.9375 L 18.1875 6.375 L 17.8125 6.75 L 17.4375 6.375 L 16.875 6.9375 L 16.3125 6.375 L 15.9375 6.75 L 15.5625 6.375 L 15 6.9375 L 14.4375 6.375 L 14.0625 6.75 L 13.6875 6.375 L 13.3125 6.9375 L 12.9375 6.375 L 12.5625 6.75 L 12.375 6.375 L 12 6.75 L 11.625 6.375 L 11.0625 6.9375 L 10.5 6.375 L 10.125 6.75 L 9.75 6.375 L 9.375 6.75 L 9 6.375 L 8.625 6.9375 L 8.25 6.375 L 7.875 6.75 L 7.5 6.375 L 7.125 6.9375 L 6.75 6.375 L 6.5625 6.75 L 6.1875 6.375 L 5.8125 6.75 L 5.4375 6.375 L 5.0625 6.9375 Z M 4.5 6 "/>
<path style=" stroke:none;fill-rule:nonzero;fill:rgb(98.039216%,98.039216%,98.039216%);fill-opacity:1;" d="M 4.5 6 L 19.5 6 L 18.75 6.75 L 18.1875 6.1875 L 17.8125 6.5625 L 17.4375 6.1875 L 16.875 6.75 L 16.3125 6.1875 L 15.9375 6.5625 L 15.5625 6.1875 L 15 6.75 L 14.4375 6.1875 L 14.0625 6.5625 L 13.6875 6.1875 L 13.3125 6.75 L 12.9375 6.1875 L 12.5625 6.5625 L 12.375 6.1875 L 12 6.5625 L 11.625 6.1875 L 11.0625 6.75 L 10.5 6.1875 L 10.125 6.5625 L 9.75 6.1875 L 9.375 6.5625 L 9 6.1875 L 8.625 6.75 L 8.25 6.1875 L 7.875 6.5625 L 7.5 6.1875 L 7.125 6.75 L 6.75 6.1875 L 6.5625 6.5625 L 6.1875 6.1875 L 5.8125 6.5625 L 5.4375 6.1875 L 5.0625 6.75 Z M 4.5 6 "/>
<path style=" stroke:none;fill-rule:nonzero;fill:rgb(100%,43.921569%,26.274511%);fill-opacity:1;" d="M 12.925781 12.871094 C 12.960938 12.910156 13.046875 12.992188 13.191406 13.125 C 15.210938 15.171875 16.179688 16.085938 16.101562 16.332031 C 16.046875 16.511719 15.882812 16.664062 15.617188 16.789062 C 15.351562 16.90625 15.109375 16.960938 14.894531 16.949219 C 14.726562 16.941406 13.921875 16.3125 12.484375 14.597656 C 12.191406 14.238281 12.023438 14.035156 11.972656 13.988281 C 11.761719 14.210938 11.445312 14.671875 11.023438 15.367188 C 10.484375 16.480469 9.773438 17.507812 9.367188 18.679688 C 9.242188 19.09375 8.925781 19.285156 8.417969 19.257812 C 8.152344 19.246094 7.988281 19.15625 7.925781 18.992188 C 7.863281 18.828125 7.890625 18.570312 8 18.226562 C 8.214844 17.53125 9.242188 15.851562 11.082031 13.183594 C 11.070312 13.066406 10.808594 12.636719 10.292969 11.898438 C 9.773438 11.160156 9.363281 10.601562 9.058594 10.316406 C 8.730469 10.003906 8.59375 9.765625 8.648438 9.601562 C 8.773438 9.191406 9.164062 9 9.824219 9.035156 C 10.144531 9.050781 10.71875 9.742188 11.539062 11.015625 C 11.890625 11.542969 12.121094 11.859375 12.230469 11.976562 C 12.421875 11.804688 12.691406 11.484375 13.042969 11.019531 C 13.394531 10.542969 13.636719 10.160156 13.773438 9.867188 C 13.90625 9.597656 14.117188 9.378906 14.40625 9.21875 C 14.691406 9.058594 14.964844 8.984375 15.222656 8.996094 C 15.625 9.015625 15.769531 9.195312 15.660156 9.535156 C 15.535156 9.945312 14.8125 10.851562 13.488281 12.25 C 13.144531 12.613281 12.957031 12.820312 12.925781 12.871094 "/>
<path style=" stroke:none;fill-rule:nonzero;fill:rgb(100%,100%,100%);fill-opacity:0.4;" d="M 15.175781 8.996094 C 14.929688 8.992188 14.675781 9.066406 14.40625 9.21875 C 14.117188 9.378906 13.90625 9.597656 13.773438 9.867188 C 13.636719 10.160156 13.394531 10.542969 13.042969 11.019531 C 12.691406 11.484375 12.421875 11.804688 12.230469 11.976562 C 12.121094 11.859375 11.890625 11.542969 11.539062 11.019531 C 10.71875 9.742188 10.144531 9.050781 9.824219 9.035156 C 9.164062 9 8.773438 9.191406 8.648438 9.601562 C 8.625 9.675781 8.636719 9.765625 8.691406 9.871094 C 8.851562 9.535156 9.226562 9.382812 9.824219 9.414062 C 10.144531 9.429688 10.71875 10.125 11.539062 11.398438 C 11.890625 11.921875 12.121094 12.242188 12.230469 12.355469 C 12.421875 12.183594 12.691406 11.863281 13.042969 11.398438 C 13.394531 10.925781 13.636719 10.539062 13.773438 10.246094 C 13.90625 9.976562 14.117188 9.757812 14.40625 9.597656 C 14.691406 9.4375 14.964844 9.363281 15.222656 9.375 C 15.445312 9.386719 15.585938 9.445312 15.652344 9.554688 C 15.65625 9.546875 15.65625 9.542969 15.660156 9.535156 C 15.769531 9.195312 15.625 9.015625 15.222656 8.996094 C 15.207031 8.996094 15.191406 8.996094 15.175781 8.996094 Z M 13.105469 13.042969 C 13.003906 13.152344 12.941406 13.222656 12.925781 13.25 C 12.960938 13.289062 13.046875 13.375 13.191406 13.507812 C 14.8125 15.148438 15.753906 16.058594 16.023438 16.484375 C 16.058594 16.433594 16.085938 16.382812 16.101562 16.332031 C 16.179688 16.085938 15.210938 15.171875 13.191406 13.125 C 13.15625 13.09375 13.132812 13.070312 13.105469 13.042969 Z M 10.980469 13.328125 C 9.207031 15.910156 8.210938 17.546875 8 18.226562 C 7.898438 18.546875 7.871094 18.785156 7.914062 18.953125 C 7.929688 18.847656 7.960938 18.734375 8 18.605469 C 8.214844 17.914062 9.242188 16.230469 11.082031 13.5625 C 11.078125 13.523438 11.042969 13.441406 10.980469 13.328125 Z M 10.980469 13.328125 "/>
<path style=" stroke:none;fill-rule:nonzero;fill:rgb(0%,0%,0%);fill-opacity:0.4;" d="M 15.652344 9.554688 C 15.511719 9.976562 14.789062 10.875 13.488281 12.25 C 13.144531 12.613281 12.957031 12.820312 12.925781 12.871094 C 12.953125 12.898438 13.015625 12.960938 13.105469 13.042969 C 13.199219 12.941406 13.324219 12.804688 13.488281 12.632812 C 14.8125 11.234375 15.535156 10.328125 15.660156 9.917969 C 15.710938 9.765625 15.707031 9.644531 15.652344 9.554688 Z M 8.691406 9.871094 C 8.675781 9.90625 8.660156 9.945312 8.648438 9.984375 C 8.59375 10.148438 8.730469 10.386719 9.058594 10.695312 C 9.363281 10.984375 9.773438 11.542969 10.292969 12.28125 C 10.628906 12.765625 10.859375 13.113281 10.980469 13.328125 C 11.015625 13.28125 11.046875 13.230469 11.082031 13.183594 C 11.070312 13.0625 10.808594 12.636719 10.292969 11.898438 C 9.773438 11.160156 9.363281 10.601562 9.058594 10.316406 C 8.878906 10.144531 8.757812 10 8.691406 9.871094 Z M 11.96875 13.988281 C 11.761719 14.210938 11.445312 14.671875 11.023438 15.367188 C 10.484375 16.480469 9.773438 17.507812 9.367188 18.679688 C 9.242188 19.09375 8.925781 19.285156 8.417969 19.257812 C 8.152344 19.246094 7.988281 19.15625 7.925781 18.992188 C 7.921875 18.980469 7.917969 18.96875 7.914062 18.957031 C 7.886719 19.128906 7.886719 19.269531 7.925781 19.375 C 7.988281 19.539062 8.152344 19.625 8.417969 19.640625 C 8.925781 19.667969 9.242188 19.472656 9.367188 19.0625 C 9.773438 17.886719 10.484375 16.859375 11.023438 15.75 C 11.445312 15.050781 11.761719 14.589844 11.96875 14.367188 C 12.019531 14.414062 12.191406 14.617188 12.484375 14.976562 C 13.921875 16.695312 14.726562 17.324219 14.894531 17.332031 C 15.109375 17.34375 15.351562 17.289062 15.617188 17.171875 C 15.882812 17.046875 16.046875 16.894531 16.101562 16.710938 C 16.117188 16.664062 16.089844 16.589844 16.023438 16.484375 C 15.941406 16.597656 15.804688 16.703125 15.617188 16.789062 C 15.351562 16.910156 15.109375 16.960938 14.894531 16.949219 C 14.726562 16.941406 13.921875 16.3125 12.484375 14.597656 C 12.191406 14.238281 12.019531 14.035156 11.96875 13.988281 Z M 11.96875 13.988281 "/>
<path style=" stroke:none;fill-rule:nonzero;fill:url(#linear0);" d="M 5.25 2.25 L 18.75 2.25 C 19.578125 2.25 20.25 2.921875 20.25 3.75 L 20.25 21 C 20.25 21.828125 19.578125 22.5 18.75 22.5 L 5.25 22.5 C 4.421875 22.5 3.75 21.828125 3.75 21 L 3.75 3.75 C 3.75 2.921875 4.421875 2.25 5.25 2.25 Z M 5.25 2.25 "/>
</g>
</svg>
