
<svg xmlns="http://www.w3.org/2000/svg" xmlns:xlink="http://www.w3.org/1999/xlink" width="16" height="16" viewBox="0 0 16 16" version="1.1">
<defs>
<linearGradient id="linear0" gradientUnits="userSpaceOnUse" x1="8.466666" y1="-199.125" x2="8.466666" y2="-213.941666" gradientTransform="matrix(0.944882,0,0,0.944882,0.000000525984,203.150053)">
<stop offset="0" style="stop-color:rgb(0%,0%,0%);stop-opacity:0.2;"/>
<stop offset="1" style="stop-color:rgb(100%,100%,100%);stop-opacity:0;"/>
</linearGradient>
</defs>
<g id="surface1">
<path style=" stroke:none;fill-rule:nonzero;fill:rgb(87.843138%,87.843138%,87.843138%);fill-opacity:1;" d="M 8.699219 4.3125 C 7.886719 4.792969 6.988281 5.75 6.269531 7 C 5.023438 9.160156 4.789062 11.34375 5.75 11.898438 C 6.226562 12.171875 6.902344 11.992188 7.617188 11.476562 C 7.5 11.378906 7.386719 11.269531 7.273438 11.160156 C 6.769531 11.519531 6.3125 11.644531 6 11.464844 C 5.28125 11.046875 5.59375 9.167969 6.699219 7.25 C 7.808594 5.332031 9.28125 4.121094 10 4.535156 C 10.460938 4.800781 10.496094 5.671875 10.171875 6.765625 L 10.179688 6.777344 C 10.292969 6.96875 10.394531 7.164062 10.488281 7.355469 C 11.019531 5.824219 10.960938 4.515625 10.25 4.101562 C 9.84375 3.871094 9.296875 3.964844 8.699219 4.3125 Z M 8.699219 4.3125 "/>
<path style=" stroke:none;fill-rule:nonzero;fill:rgb(0%,0%,0%);fill-opacity:0.2;" d="M 1.003906 8.199219 C 1 8.261719 1 8.324219 1 8.390625 C 1 12.253906 4.132812 15.390625 8 15.390625 C 11.867188 15.390625 15 12.253906 15 8.390625 C 15 8.324219 15 8.261719 14.996094 8.199219 C 14.894531 11.976562 11.800781 15.007812 8 15.007812 C 4.199219 15.007812 1.105469 11.976562 1.003906 8.199219 Z M 1.003906 8.199219 "/>
<path style=" stroke:none;fill-rule:nonzero;fill:rgb(100%,71.764708%,30.19608%);fill-opacity:1;" d="M 8 1 C 11.867188 1 15 4.132812 15 8 C 15 11.867188 11.867188 15 8 15 C 4.132812 15 1 11.867188 1 8 C 1 4.132812 4.132812 1 8 1 Z M 8 1 "/>
<path style=" stroke:none;fill-rule:nonzero;fill:rgb(100%,65.490198%,14.901961%);fill-opacity:1;" d="M 8 2 C 11.3125 2 14 4.6875 14 8 C 14 11.3125 11.3125 14 8 14 C 4.6875 14 2 11.3125 2 8 C 2 4.6875 4.6875 2 8 2 Z M 8 2 "/>
<path style=" stroke:none;fill-rule:nonzero;fill:rgb(100%,100%,100%);fill-opacity:0.4;" d="M 8 1 C 4.132812 1 1 4.132812 1 8 C 1 8.042969 1 8.082031 1 8.125 C 1.070312 4.316406 4.175781 1.25 8 1.25 C 11.824219 1.25 14.929688 4.316406 15 8.125 C 15 8.082031 15 8.042969 15 8 C 15 4.132812 11.867188 1 8 1 Z M 8 1 "/>
<path style=" stroke:none;fill-rule:nonzero;fill:rgb(0.392157%,0.392157%,0.392157%);fill-opacity:0.4;" d="M 8 15 C 4.132812 15 1 11.867188 1 8 C 1 7.957031 1 7.917969 1 7.875 C 1.070312 11.683594 4.175781 14.75 8 14.75 C 11.824219 14.75 14.929688 11.683594 15 7.875 C 15 7.917969 15 7.957031 15 8 C 15 11.867188 11.867188 15 8 15 Z M 8 15 "/>
<path style=" stroke:none;fill-rule:nonzero;fill:rgb(0%,0%,0%);fill-opacity:0.4;" d="M 8 2 C 4.6875 2 2 4.6875 2 8 C 2 8.042969 2 8.082031 2 8.125 C 2.070312 4.867188 4.726562 2.25 8 2.25 C 11.273438 2.25 13.929688 4.867188 14 8.125 C 14 8.082031 14 8.042969 14 8 C 14 4.6875 11.3125 2 8 2 Z M 8 2 "/>
<path style=" stroke:none;fill-rule:nonzero;fill:rgb(99.607843%,99.607843%,99.607843%);fill-opacity:0.4;" d="M 8 14.25 C 4.6875 14.25 2 11.5625 2 8.25 C 2 8.207031 2 8.167969 2 8.125 C 2.070312 11.382812 4.726562 14 8 14 C 11.273438 14 13.929688 11.382812 14 8.125 C 14 8.167969 14 8.207031 14 8.25 C 14 11.5625 11.3125 14.25 8 14.25 Z M 8 14.25 "/>
<path style=" stroke:none;fill-rule:nonzero;fill:rgb(38.039216%,38.039216%,38.039216%);fill-opacity:1;" d="M 5.75 4.101562 C 4.789062 4.65625 5.019531 6.839844 6.269531 9 C 7.515625 11.160156 9.289062 12.449219 10.25 11.898438 C 11.203125 11.347656 10.980469 9.191406 9.757812 7.046875 L 9.140625 6.988281 C 9.195312 7.074219 9.246094 7.160156 9.300781 7.25 C 10.40625 9.167969 10.71875 11.046875 10 11.464844 C 9.28125 11.878906 7.808594 10.667969 6.699219 8.75 C 5.59375 6.832031 5.28125 4.953125 6 4.535156 C 6.3125 4.355469 6.761719 4.480469 7.261719 4.835938 L 7.554688 4.476562 C 6.863281 4 6.210938 3.835938 5.75 4.101562 Z M 5.75 4.101562 "/>
<path style=" stroke:none;fill-rule:nonzero;fill:rgb(38.039216%,38.039216%,38.039216%);fill-opacity:1;" d="M 8.699219 4.3125 C 7.886719 4.792969 6.988281 5.75 6.269531 7 C 5.023438 9.160156 4.789062 11.34375 5.75 11.898438 C 6.265625 12.195312 7.015625 11.960938 7.792969 11.34375 L 7.382812 11.078125 C 6.835938 11.496094 6.335938 11.65625 6 11.464844 C 5.28125 11.046875 5.59375 9.167969 6.699219 7.25 C 7.808594 5.332031 9.28125 4.121094 10 4.535156 C 10.328125 4.726562 10.441406 5.21875 10.363281 5.882812 L 10.800781 6.082031 C 10.929688 5.132812 10.753906 4.394531 10.25 4.101562 C 9.84375 3.871094 9.296875 3.964844 8.699219 4.3125 Z M 8.699219 4.3125 "/>
<path style=" stroke:none;fill-rule:nonzero;fill:rgb(38.039216%,38.039216%,38.039216%);fill-opacity:1;" d="M 4.390625 6.800781 C 3.832031 7.136719 3.5 7.550781 3.5 8 C 3.5 8.585938 4.058594 9.109375 4.953125 9.472656 L 5 8.992188 C 4.378906 8.730469 4 8.382812 4 8 C 4 7.167969 5.785156 6.5 8 6.5 C 10.214844 6.5 12 7.167969 12 8 C 12 8.363281 11.65625 8.699219 11.082031 8.957031 L 11.109375 9.449219 C 11.96875 9.082031 12.5 8.570312 12.5 8 C 12.5 6.890625 10.492188 6 8 6 C 6.519531 6 5.210938 6.3125 4.390625 6.800781 Z M 4.390625 6.800781 "/>
<path style=" stroke:none;fill-rule:nonzero;fill:rgb(38.039216%,38.039216%,38.039216%);fill-opacity:1;" d="M 8 7.5 C 8.277344 7.5 8.5 7.722656 8.5 8 C 8.5 8.277344 8.277344 8.5 8 8.5 C 7.722656 8.5 7.5 8.277344 7.5 8 C 7.5 7.722656 7.722656 7.5 8 7.5 Z M 8 7.5 "/>
<path style=" stroke:none;fill-rule:nonzero;fill:rgb(100%,100%,100%);fill-opacity:0.4;" d="M 9.738281 3.976562 C 9.425781 3.976562 9.070312 4.09375 8.699219 4.3125 C 8.105469 4.664062 7.464844 5.273438 6.882812 6.0625 C 6.460938 6.109375 6.066406 6.183594 5.703125 6.277344 C 5.652344 6.042969 5.625 5.824219 5.617188 5.625 C 5.601562 5.886719 5.632812 6.191406 5.703125 6.527344 C 6.066406 6.433594 6.460938 6.359375 6.882812 6.3125 C 7.464844 5.523438 8.105469 4.914062 8.699219 4.5625 C 9.070312 4.34375 9.425781 4.226562 9.738281 4.226562 C 9.925781 4.222656 10.097656 4.265625 10.25 4.351562 C 10.621094 4.566406 10.8125 5.027344 10.839844 5.632812 C 10.863281 4.902344 10.671875 4.347656 10.25 4.101562 C 10.097656 4.015625 9.925781 3.972656 9.738281 3.976562 Z M 6.234375 3.976562 C 6.058594 3.976562 5.894531 4.019531 5.75 4.101562 C 5.328125 4.347656 5.136719 4.910156 5.160156 5.644531 C 5.183594 5.03125 5.375 4.570312 5.75 4.351562 C 6.183594 4.101562 6.78125 4.230469 7.421875 4.640625 L 7.554688 4.476562 C 7.078125 4.148438 6.621094 3.96875 6.234375 3.976562 Z M 10.382812 5.636719 C 10.378906 5.714844 10.371094 5.796875 10.363281 5.882812 L 10.382812 5.890625 C 10.386719 5.800781 10.386719 5.714844 10.382812 5.636719 Z M 8 6 C 7.917969 6 7.835938 6.003906 7.753906 6.007812 C 7.683594 6.085938 7.609375 6.171875 7.539062 6.261719 C 7.691406 6.253906 7.84375 6.25 8 6.25 C 10.398438 6.25 12.34375 7.074219 12.492188 8.125 C 12.496094 8.082031 12.5 8.042969 12.5 8 C 12.5 6.890625 10.492188 6 8 6 Z M 5.210938 6.429688 C 4.902344 6.539062 4.625 6.660156 4.390625 6.800781 C 3.832031 7.136719 3.5 7.550781 3.5 8 C 3.5 8.042969 3.503906 8.082031 3.507812 8.125 C 3.566406 7.722656 3.882812 7.355469 4.390625 7.050781 C 4.636719 6.90625 4.925781 6.773438 5.253906 6.664062 C 5.238281 6.585938 5.222656 6.507812 5.210938 6.429688 Z M 6.507812 6.859375 C 6.449219 6.867188 6.394531 6.875 6.335938 6.886719 C 6.316406 6.925781 6.289062 6.960938 6.269531 7 C 6.191406 7.132812 6.117188 7.269531 6.046875 7.402344 C 5.988281 7.257812 5.941406 7.113281 5.894531 6.972656 C 5.871094 6.980469 5.84375 6.984375 5.820312 6.992188 C 5.882812 7.203125 5.957031 7.425781 6.046875 7.652344 C 6.117188 7.519531 6.191406 7.382812 6.269531 7.25 C 6.34375 7.117188 6.425781 6.984375 6.507812 6.859375 Z M 9.140625 6.984375 C 9.195312 7.074219 9.246094 7.160156 9.296875 7.25 C 9.300781 7.25 9.300781 7.25 9.300781 7.25 L 9.757812 7.296875 C 10.4375 8.484375 10.804688 9.675781 10.839844 10.597656 C 10.871094 9.648438 10.5 8.347656 9.757812 7.046875 Z M 7.988281 7.5 C 7.714844 7.507812 7.5 7.726562 7.5 8 C 7.5 8.042969 7.507812 8.082031 7.515625 8.121094 C 7.570312 7.910156 7.761719 7.753906 7.988281 7.75 C 7.992188 7.75 7.996094 7.75 8 7.75 C 8.234375 7.75 8.425781 7.90625 8.484375 8.121094 C 8.492188 8.082031 8.5 8.042969 8.5 8 C 8.5 7.722656 8.277344 7.5 8 7.5 C 7.996094 7.5 7.992188 7.5 7.988281 7.5 Z M 4.015625 8.125 C 4.003906 8.164062 4 8.207031 4 8.25 C 4 8.625 4.367188 8.96875 4.976562 9.234375 L 5 8.992188 C 4.445312 8.757812 4.085938 8.457031 4.015625 8.125 Z M 6.367188 8.125 C 6.347656 8.164062 6.328125 8.207031 6.308594 8.25 C 6.425781 8.496094 6.554688 8.75 6.703125 9 C 7.808594 10.917969 9.28125 12.128906 10 11.714844 C 10.289062 11.546875 10.410156 11.140625 10.382812 10.59375 C 10.367188 11.011719 10.242188 11.324219 10 11.464844 C 9.28125 11.878906 7.808594 10.667969 6.703125 8.75 C 6.578125 8.539062 6.46875 8.332031 6.367188 8.125 Z M 11.984375 8.125 C 11.917969 8.441406 11.589844 8.730469 11.082031 8.957031 L 11.097656 9.203125 C 11.660156 8.941406 12 8.613281 12 8.25 C 12 8.207031 11.996094 8.164062 11.984375 8.125 Z M 5.710938 8.125 C 5.332031 9.03125 5.144531 9.886719 5.160156 10.566406 C 5.191406 9.898438 5.394531 9.09375 5.761719 8.25 C 5.746094 8.207031 5.726562 8.167969 5.710938 8.125 Z M 5.617188 10.621094 C 5.59375 11.15625 5.714844 11.550781 6 11.714844 C 6.335938 11.90625 6.835938 11.746094 7.382812 11.328125 L 7.613281 11.476562 C 7.671875 11.4375 7.734375 11.390625 7.792969 11.34375 L 7.382812 11.078125 C 6.835938 11.496094 6.335938 11.65625 6 11.464844 C 5.761719 11.328125 5.636719 11.027344 5.617188 10.621094 Z M 5.617188 10.621094 "/>
<path style=" stroke:none;fill-rule:nonzero;fill:rgb(0%,0%,0%);fill-opacity:0.4;" d="M 6.328125 4.453125 C 6.207031 4.453125 6.097656 4.480469 6 4.535156 C 5.714844 4.699219 5.59375 5.09375 5.617188 5.625 C 5.636719 5.21875 5.761719 4.921875 6 4.785156 C 6.3125 4.605469 6.761719 4.730469 7.261719 5.085938 L 7.554688 4.726562 C 7.507812 4.699219 7.464844 4.667969 7.421875 4.640625 L 7.261719 4.835938 C 6.917969 4.589844 6.597656 4.457031 6.328125 4.453125 Z M 9.648438 4.453125 C 9.085938 4.472656 8.292969 5.066406 7.539062 6.011719 C 7.613281 6.007812 7.683594 6.003906 7.753906 6.003906 C 8.617188 5.007812 9.492188 4.492188 10 4.785156 C 10.238281 4.925781 10.363281 5.226562 10.382812 5.636719 C 10.410156 5.097656 10.285156 4.703125 10 4.535156 C 9.898438 4.476562 9.777344 4.449219 9.648438 4.453125 Z M 10.839844 5.644531 C 10.835938 5.785156 10.824219 5.929688 10.800781 6.082031 L 10.382812 5.890625 C 10.378906 5.96875 10.371094 6.050781 10.363281 6.132812 L 10.800781 6.332031 C 10.835938 6.089844 10.847656 5.859375 10.839844 5.644531 Z M 5.160156 5.648438 C 5.152344 5.886719 5.167969 6.148438 5.210938 6.429688 C 5.226562 6.425781 5.238281 6.417969 5.253906 6.414062 C 5.199219 6.144531 5.167969 5.886719 5.160156 5.648438 Z M 8 6.5 C 7.710938 6.5 7.425781 6.511719 7.152344 6.535156 C 7 6.757812 6.847656 7 6.703125 7.25 C 6.554688 7.5 6.425781 7.753906 6.308594 8 C 6.328125 8.042969 6.347656 8.082031 6.367188 8.125 C 6.46875 7.917969 6.582031 7.710938 6.703125 7.5 C 6.847656 7.25 7 7.007812 7.152344 6.785156 C 7.425781 6.761719 7.710938 6.75 8 6.75 C 10.105469 6.75 11.816406 7.351562 11.984375 8.125 C 11.996094 8.082031 12 8.042969 12 8 C 12 7.167969 10.214844 6.5 8 6.5 Z M 6.507812 6.609375 C 6.265625 6.644531 6.035156 6.6875 5.820312 6.742188 C 5.84375 6.816406 5.867188 6.894531 5.894531 6.976562 C 6.035156 6.941406 6.183594 6.910156 6.335938 6.886719 C 6.390625 6.792969 6.449219 6.699219 6.507812 6.609375 Z M 5.359375 6.871094 C 4.527344 7.144531 4 7.550781 4 8 C 4 8.042969 4.003906 8.082031 4.015625 8.125 C 4.101562 7.726562 4.605469 7.371094 5.359375 7.121094 C 5.449219 7.445312 5.566406 7.78125 5.710938 8.125 C 5.726562 8.082031 5.742188 8.042969 5.761719 8 C 5.59375 7.613281 5.460938 7.234375 5.359375 6.871094 Z M 9.140625 7.234375 C 9.195312 7.324219 9.246094 7.410156 9.296875 7.5 C 9.96875 8.65625 10.347656 9.800781 10.382812 10.617188 C 10.421875 9.796875 10.039062 8.53125 9.300781 7.25 Z M 3.507812 8.125 C 3.503906 8.167969 3.5 8.207031 3.5 8.25 C 3.5 8.835938 4.058594 9.359375 4.953125 9.722656 L 5 9.242188 C 4.992188 9.238281 4.984375 9.238281 4.976562 9.234375 L 4.953125 9.472656 C 4.121094 9.132812 3.582031 8.660156 3.507812 8.125 Z M 7.515625 8.125 C 7.503906 8.164062 7.5 8.207031 7.5 8.25 C 7.5 8.527344 7.722656 8.75 8 8.75 C 8.277344 8.75 8.5 8.527344 8.5 8.25 C 8.5 8.207031 8.492188 8.164062 8.484375 8.125 C 8.429688 8.339844 8.234375 8.5 8 8.5 C 7.765625 8.5 7.570312 8.339844 7.515625 8.125 Z M 12.492188 8.125 C 12.417969 8.644531 11.90625 9.109375 11.109375 9.445312 L 11.097656 9.203125 C 11.089844 9.203125 11.085938 9.207031 11.082031 9.207031 L 11.109375 9.695312 C 11.96875 9.332031 12.5 8.820312 12.5 8.25 C 12.5 8.207031 12.496094 8.167969 12.492188 8.125 Z M 6.046875 8.597656 C 5.742188 9.378906 5.589844 10.09375 5.617188 10.621094 C 5.640625 10.128906 5.785156 9.511719 6.046875 8.847656 C 6.117188 8.980469 6.191406 9.117188 6.269531 9.25 C 7.515625 11.410156 9.289062 12.699219 10.25 12.148438 C 10.671875 11.902344 10.863281 11.34375 10.839844 10.609375 C 10.816406 11.21875 10.621094 11.683594 10.25 11.898438 C 9.289062 12.449219 7.515625 11.160156 6.269531 9 C 6.191406 8.867188 6.117188 8.730469 6.046875 8.597656 Z M 5.160156 10.605469 C 5.136719 11.339844 5.328125 11.902344 5.75 12.148438 C 6.265625 12.445312 7.015625 12.210938 7.792969 11.59375 L 7.613281 11.480469 C 6.902344 11.992188 6.226562 12.171875 5.75 11.898438 C 5.375 11.679688 5.183594 11.21875 5.160156 10.605469 Z M 5.160156 10.605469 "/>
<path style=" stroke:none;fill-rule:nonzero;fill:url(#linear0);" d="M 8 1 C 11.867188 1 15 4.132812 15 8 C 15 11.867188 11.867188 15 8 15 C 4.132812 15 1 11.867188 1 8 C 1 4.132812 4.132812 1 8 1 Z M 8 1 "/>
</g>
</svg>
