
<svg xmlns="http://www.w3.org/2000/svg" xmlns:xlink="http://www.w3.org/1999/xlink" width="16" height="16" viewBox="0 0 16 16" version="1.1">
<defs>
<linearGradient id="linear0" gradientUnits="userSpaceOnUse" x1="15.999999" y1="24" x2="48" y2="24" gradientTransform="matrix(0.25,0,0,0.25,-0.000976803,-0.00000529402)">
<stop offset="0" style="stop-color:rgb(100%,100%,100%);stop-opacity:0;"/>
<stop offset="1" style="stop-color:rgb(0%,0%,0%);stop-opacity:0.2;"/>
</linearGradient>
<linearGradient id="linear1" gradientUnits="userSpaceOnUse" x1="32" y1="59.999996" x2="31.999998" y2="3.999999" gradientTransform="matrix(0.25,0,0,0.25,-0.0756824,0.00000912374)">
<stop offset="0" style="stop-color:rgb(0%,0%,0%);stop-opacity:0.2;"/>
<stop offset="1" style="stop-color:rgb(100%,100%,100%);stop-opacity:0;"/>
</linearGradient>
<linearGradient id="linear2" gradientUnits="userSpaceOnUse" x1="8.466666" y1="-199.125" x2="8.466666" y2="-213.941666" gradientTransform="matrix(0.470964,0,0,0.470964,7.448873,108.777572)">
<stop offset="0" style="stop-color:rgb(0%,0%,0%);stop-opacity:0.2;"/>
<stop offset="1" style="stop-color:rgb(100%,100%,100%);stop-opacity:0;"/>
</linearGradient>
</defs>
<g id="surface1">
<path style=" stroke:none;fill-rule:nonzero;fill:rgb(25.882354%,64.705884%,96.078432%);fill-opacity:0.4;" d="M 8.292969 8.980469 C 8.238281 8.988281 8.183594 8.992188 8.128906 8.992188 C 8.183594 8.992188 8.238281 8.988281 8.292969 8.980469 Z M 7.558594 8.980469 C 7.617188 8.988281 7.679688 8.992188 7.738281 8.996094 C 7.675781 8.992188 7.617188 8.988281 7.558594 8.980469 Z M 7.738281 8.996094 C 7.796875 9 7.859375 9 7.921875 9 C 7.859375 9 7.800781 9 7.738281 8.996094 Z M 7.921875 9 C 7.980469 9 8.039062 9 8.101562 8.996094 C 8.039062 9 7.980469 9 7.921875 9 Z M 7.574219 9.507812 C 7.578125 11.199219 7.105469 12.617188 7.367188 13.761719 C 7.550781 13.753906 7.738281 13.75 7.929688 13.75 C 8.125 13.75 8.3125 13.753906 8.496094 13.761719 C 8.757812 12.617188 8.285156 11.199219 8.289062 9.507812 C 8.179688 9.542969 8.058594 9.566406 7.929688 9.566406 C 7.800781 9.566406 7.679688 9.542969 7.574219 9.507812 Z M 7.574219 9.507812 "/>
<path style=" stroke:none;fill-rule:nonzero;fill:rgb(56.470591%,79.215688%,97.647059%);fill-opacity:0.4;" d="M 7.929688 13.75 C 5.992188 13.75 4.429688 14.195312 4.429688 14.75 C 4.429688 14.886719 4.542969 15 4.679688 15 L 11.179688 15 C 11.320312 15 11.429688 14.886719 11.429688 14.75 C 11.429688 14.195312 9.871094 13.75 7.929688 13.75 Z M 7.929688 13.75 "/>
<path style=" stroke:none;fill-rule:nonzero;fill:rgb(56.470591%,79.215688%,97.647059%);fill-opacity:0.4;" d="M 8.65625 8.925781 C 8.417969 8.976562 8.171875 9 7.921875 9 C 7.675781 9 7.4375 8.976562 7.203125 8.929688 C 7.1875 8.96875 7.179688 9.007812 7.179688 9.046875 L 7.179688 9.082031 C 7.179688 9.351562 7.515625 9.566406 7.929688 9.566406 C 8.347656 9.566406 8.679688 9.351562 8.679688 9.082031 L 8.679688 9.046875 C 8.679688 9.003906 8.671875 8.964844 8.65625 8.925781 Z M 8.65625 8.925781 "/>
<path style=" stroke:none;fill-rule:nonzero;fill:rgb(89.019608%,94.901961%,99.215686%);fill-opacity:0.4;" d="M 7.632812 9.523438 C 7.804688 11.261719 7.214844 12.667969 7.554688 13.75 L 8.304688 13.75 C 8.648438 12.667969 8.054688 11.261719 8.230469 9.523438 C 8.136719 9.550781 8.039062 9.566406 7.929688 9.566406 C 7.824219 9.566406 7.722656 9.550781 7.632812 9.523438 Z M 7.632812 9.523438 "/>
<path style=" stroke:none;fill-rule:nonzero;fill:rgb(100%,100%,100%);fill-opacity:0.8;" d="M 7.632812 9.523438 C 7.769531 11.226562 7.222656 12.695312 7.554688 13.75 C 8.117188 13.75 7.703125 11.558594 7.859375 9.5625 C 7.78125 9.558594 7.703125 9.546875 7.632812 9.523438 Z M 7.632812 9.523438 "/>
<path style=" stroke:none;fill-rule:nonzero;fill:rgb(89.019608%,94.901961%,99.215686%);fill-opacity:0.4;" d="M 7.308594 9.011719 C 7.308594 9.023438 7.304688 9.039062 7.304688 9.050781 L 7.304688 9.078125 C 7.304688 9.277344 7.585938 9.441406 7.929688 9.441406 C 8.277344 9.441406 8.554688 9.277344 8.554688 9.078125 L 8.554688 9.050781 C 8.554688 9.039062 8.554688 9.023438 8.550781 9.011719 C 8.347656 9.054688 8.140625 9.082031 7.929688 9.082031 C 7.71875 9.082031 7.511719 9.054688 7.308594 9.011719 Z M 7.308594 9.011719 "/>
<path style=" stroke:none;fill-rule:nonzero;fill:rgb(0%,0%,0%);fill-opacity:0.4;" d="M 7.554688 9.5 C 7.558594 9.542969 7.5625 9.585938 7.5625 9.628906 C 7.671875 9.667969 7.796875 9.691406 7.929688 9.691406 C 8.066406 9.691406 8.191406 9.667969 8.296875 9.628906 C 8.300781 9.585938 8.304688 9.542969 8.304688 9.5 C 8.195312 9.542969 8.066406 9.566406 7.929688 9.566406 C 7.792969 9.566406 7.664062 9.539062 7.554688 9.5 Z M 7.554688 9.5 "/>
<path style=" stroke:none;fill-rule:nonzero;fill:rgb(100%,100%,100%);fill-opacity:0.4;" d="M 7.929688 13.75 C 5.992188 13.75 4.429688 14.195312 4.429688 14.75 C 4.429688 14.769531 4.433594 14.789062 4.4375 14.808594 C 4.554688 14.285156 6.066406 13.875 7.929688 13.875 C 9.792969 13.875 11.308594 14.285156 11.421875 14.808594 C 11.429688 14.789062 11.429688 14.769531 11.429688 14.75 C 11.429688 14.195312 9.871094 13.75 7.929688 13.75 Z M 7.929688 13.75 "/>
<path style=" stroke:none;fill-rule:nonzero;fill:rgb(0%,0%,0%);fill-opacity:0.4;" d="M 4.460938 14.617188 C 4.441406 14.660156 4.429688 14.707031 4.429688 14.75 C 4.429688 14.886719 4.542969 15 4.679688 15 L 11.179688 15 C 11.320312 15 11.429688 14.886719 11.429688 14.75 C 11.429688 14.707031 11.421875 14.660156 11.402344 14.617188 C 11.359375 14.695312 11.277344 14.75 11.179688 14.75 L 4.679688 14.75 C 4.585938 14.75 4.503906 14.695312 4.460938 14.617188 Z M 4.460938 14.617188 "/>
<path style=" stroke:none;fill-rule:nonzero;fill:rgb(56.470591%,79.215688%,97.647059%);fill-opacity:0.4;" d="M 3.910156 1 C 3.597656 1.75 3.421875 2.597656 3.421875 3.5 C 3.421875 6.546875 5.429688 9 7.921875 9 C 10.414062 9 12.421875 6.546875 12.421875 3.5 C 12.421875 2.597656 12.246094 1.75 11.933594 1 Z M 3.910156 1 "/>
<path style=" stroke:none;fill-rule:nonzero;fill:rgb(92.54902%,25.098041%,47.843137%);fill-opacity:0.8;" d="M 3.921875 3.5 C 3.921875 6.328125 5.757812 8.5 7.921875 8.5 C 10.085938 8.5 11.921875 6.328125 11.921875 3.5 Z M 3.921875 3.5 "/>
<path style=" stroke:none;fill-rule:nonzero;fill:url(#linear0);" d="M 4 3.5 C 4 6.328125 5.835938 8.5 8 8.5 C 10.164062 8.5 12 6.328125 12 3.5 Z M 4 3.5 "/>
<path style=" stroke:none;fill-rule:nonzero;fill:rgb(100%,100%,100%);fill-opacity:0.2;" d="M 4.453125 3.5 L 4.453125 3.667969 C 4.453125 5.816406 5.679688 7.53125 7.246094 7.917969 C 6.144531 6.917969 5.433594 5.3125 5.433594 3.5 Z M 4.453125 3.5 "/>
<path style=" stroke:none;fill-rule:nonzero;fill:rgb(100%,100%,100%);fill-opacity:0.2;" d="M 4.914062 1.5 C 4.621094 2.074219 4.453125 2.738281 4.453125 3.449219 L 4.453125 3.5 L 5.433594 3.5 C 5.433594 2.792969 5.542969 2.121094 5.738281 1.5 Z M 4.914062 1.5 "/>
<path style=" stroke:none;fill-rule:nonzero;fill:rgb(100%,100%,100%);fill-opacity:0.6;" d="M 4.523438 3.5 C 4.546875 4.5 4.921875 6 5.671875 6.5 C 5.296875 5.875 5.046875 4.464844 5.046875 3.5 Z M 4.523438 3.5 "/>
<path style=" stroke:none;fill-rule:nonzero;fill:rgb(100%,100%,100%);fill-opacity:0.6;" d="M 4.769531 2.433594 C 4.613281 2.738281 4.523438 3.09375 4.523438 3.472656 L 4.523438 3.5 L 5.046875 3.5 C 5.046875 3.125 5.105469 2.765625 5.207031 2.433594 Z M 4.769531 2.433594 "/>
<path style=" stroke:none;fill-rule:nonzero;fill:rgb(0%,0%,0%);fill-opacity:0.4;" d="M 3.421875 3.460938 C 3.421875 3.472656 3.421875 3.488281 3.421875 3.5 C 3.421875 6.546875 5.429688 9 7.921875 9 C 10.414062 9 12.421875 6.546875 12.421875 3.5 C 12.421875 3.488281 12.421875 3.472656 12.421875 3.460938 C 12.382812 6.464844 10.390625 8.871094 7.921875 8.871094 C 5.453125 8.871094 3.460938 6.464844 3.421875 3.460938 Z M 3.421875 3.460938 "/>
<path style=" stroke:none;fill-rule:nonzero;fill:rgb(100%,100%,100%);fill-opacity:0.4;" d="M 4.023438 1 C 3.710938 1.75 3.535156 2.597656 3.535156 3.5 C 3.535156 3.542969 3.535156 3.589844 3.535156 3.632812 C 3.550781 2.773438 3.722656 1.964844 4.023438 1.25 L 12.046875 1.25 C 12.34375 1.964844 12.519531 2.773438 12.53125 3.632812 C 12.53125 3.589844 12.535156 3.542969 12.535156 3.5 C 12.535156 2.597656 12.359375 1.75 12.046875 1 Z M 4.023438 1 "/>
<path style=" stroke:none;fill-rule:nonzero;fill:rgb(0%,0%,0%);fill-opacity:0.4;" d="M 8.65625 8.925781 C 8.417969 8.972656 8.171875 9 7.921875 9 C 7.675781 9 7.4375 8.976562 7.203125 8.929688 C 7.1875 8.96875 7.179688 9.007812 7.179688 9.046875 L 7.179688 9.054688 C 7.421875 9.101562 7.667969 9.128906 7.921875 9.128906 C 8.179688 9.128906 8.433594 9.101562 8.679688 9.050781 L 8.679688 9.046875 C 8.679688 9.003906 8.671875 8.964844 8.65625 8.925781 Z M 8.65625 8.925781 "/>
<path style=" stroke:none;fill-rule:nonzero;fill:rgb(0.392157%,0.392157%,0.392157%);fill-opacity:0.0509804;" d="M 11.125 1 C 11.460938 1.660156 11.65625 2.429688 11.65625 3.25 L 11.65625 3.5 C 11.65625 6.039062 10.171875 8.050781 8.300781 8.433594 C 8.257812 8.457031 8.214844 8.480469 8.167969 8.5 C 10.328125 8.488281 12.15625 6.320312 12.15625 3.5 L 12.15625 3.25 C 12.15625 2.429688 11.960938 1.660156 11.625 1 Z M 11.125 1 "/>
<path style=" stroke:none;fill-rule:nonzero;fill:rgb(100%,100%,100%);fill-opacity:0.8;" d="M 5.171875 14.5 C 5.421875 14.75 6.296875 14 7.421875 14.125 C 7.546875 13.75 4.796875 14.25 5.171875 14.5 Z M 5.171875 14.5 "/>
<path style=" stroke:none;fill-rule:nonzero;fill:url(#linear1);" d="M 3.910156 1 C 3.605469 1.738281 3.429688 2.574219 3.425781 3.460938 C 3.425781 3.472656 3.425781 3.488281 3.425781 3.5 C 3.425781 6.246094 5.058594 8.511719 7.207031 8.929688 C 7.199219 8.949219 7.195312 8.96875 7.191406 8.984375 C 7.191406 8.988281 7.1875 8.992188 7.1875 8.992188 C 7.1875 9.007812 7.183594 9.019531 7.183594 9.035156 C 7.183594 9.039062 7.183594 9.042969 7.183594 9.046875 L 7.183594 9.082031 C 7.183594 9.261719 7.335938 9.417969 7.558594 9.5 C 7.5625 9.542969 7.5625 9.585938 7.566406 9.628906 C 7.570312 9.628906 7.574219 9.628906 7.578125 9.632812 C 7.558594 11.269531 7.113281 12.644531 7.367188 13.761719 C 5.78125 13.835938 4.558594 14.210938 4.445312 14.675781 C 4.441406 14.679688 4.441406 14.6875 4.441406 14.691406 C 4.4375 14.695312 4.4375 14.695312 4.4375 14.699219 C 4.4375 14.707031 4.4375 14.710938 4.4375 14.714844 C 4.433594 14.722656 4.433594 14.726562 4.433594 14.730469 C 4.433594 14.738281 4.433594 14.742188 4.433594 14.75 C 4.433594 14.757812 4.433594 14.765625 4.433594 14.773438 C 4.433594 14.773438 4.433594 14.777344 4.433594 14.777344 C 4.4375 14.777344 4.4375 14.78125 4.4375 14.785156 C 4.4375 14.792969 4.441406 14.800781 4.441406 14.808594 C 4.46875 14.917969 4.566406 15 4.683594 15 L 11.183594 15 C 11.300781 15 11.398438 14.917969 11.425781 14.808594 C 11.429688 14.800781 11.429688 14.792969 11.433594 14.78125 C 11.433594 14.78125 11.433594 14.777344 11.433594 14.773438 C 11.433594 14.765625 11.433594 14.757812 11.433594 14.75 C 11.433594 14.742188 11.433594 14.738281 11.433594 14.730469 C 11.433594 14.726562 11.433594 14.71875 11.433594 14.714844 C 11.429688 14.710938 11.429688 14.703125 11.429688 14.699219 C 11.429688 14.695312 11.429688 14.695312 11.429688 14.691406 C 11.425781 14.683594 11.425781 14.679688 11.421875 14.671875 C 11.421875 14.667969 11.421875 14.667969 11.421875 14.667969 C 11.421875 14.660156 11.417969 14.652344 11.414062 14.644531 C 11.386719 14.5625 11.320312 14.480469 11.222656 14.402344 C 11.210938 14.398438 11.203125 14.390625 11.191406 14.382812 C 11.179688 14.375 11.171875 14.367188 11.160156 14.359375 C 11.148438 14.351562 11.136719 14.34375 11.125 14.335938 C 11.089844 14.316406 11.054688 14.292969 11.011719 14.269531 C 11 14.265625 10.984375 14.257812 10.972656 14.25 C 10.675781 14.105469 10.257812 13.980469 9.75 13.894531 C 9.375 13.828125 8.953125 13.78125 8.5 13.761719 C 8.753906 12.644531 8.3125 11.269531 8.289062 9.632812 C 8.292969 9.628906 8.296875 9.628906 8.300781 9.628906 C 8.304688 9.585938 8.304688 9.542969 8.308594 9.5 C 8.535156 9.417969 8.683594 9.261719 8.683594 9.082031 L 8.683594 9.046875 C 8.683594 9.039062 8.683594 9.03125 8.683594 9.023438 C 8.683594 9.019531 8.683594 9.019531 8.683594 9.015625 C 8.679688 9.003906 8.679688 8.996094 8.679688 8.984375 C 8.675781 8.980469 8.675781 8.976562 8.675781 8.972656 C 8.675781 8.96875 8.671875 8.964844 8.671875 8.960938 C 8.671875 8.957031 8.671875 8.957031 8.671875 8.957031 C 8.671875 8.953125 8.667969 8.949219 8.667969 8.949219 C 8.667969 8.941406 8.664062 8.933594 8.660156 8.925781 C 8.71875 8.914062 8.777344 8.902344 8.832031 8.886719 C 8.90625 8.871094 8.980469 8.847656 9.050781 8.828125 C 10.996094 8.21875 12.425781 6.070312 12.425781 3.5 C 12.425781 3.484375 12.421875 3.472656 12.421875 3.460938 C 12.421875 3.460938 12.421875 3.457031 12.421875 3.457031 C 12.417969 2.671875 12.28125 1.921875 12.03125 1.25 L 12.050781 1.25 C 12.347656 1.964844 12.519531 2.773438 12.535156 3.632812 C 12.535156 3.585938 12.539062 3.542969 12.539062 3.5 C 12.539062 2.597656 12.359375 1.75 12.050781 1 Z M 3.910156 1 "/>
<path style=" stroke:none;fill-rule:nonzero;fill:rgb(89.019608%,94.901961%,99.215686%);fill-opacity:0.4;" d="M 7.863281 13.972656 C 6.296875 13.972656 5.039062 14.257812 5.039062 14.617188 C 5.039062 14.707031 5.128906 14.777344 5.238281 14.777344 L 10.488281 14.777344 C 10.601562 14.777344 10.691406 14.707031 10.691406 14.617188 C 10.691406 14.257812 9.429688 13.972656 7.863281 13.972656 Z M 7.863281 13.972656 "/>
<path style=" stroke:none;fill-rule:nonzero;fill:rgb(0%,0%,0%);fill-opacity:0.2;" d="M 7.953125 11.703125 C 7.949219 11.769531 7.949219 11.832031 7.949219 11.898438 C 7.949219 13.25 8.714844 14.421875 9.835938 15 L 4.679688 15 C 4.609375 15 4.546875 14.96875 4.5 14.921875 C 4.453125 14.988281 4.429688 15.054688 4.429688 15.125 C 4.429688 15.261719 4.542969 15.375 4.679688 15.375 L 11.144531 15.375 C 11.242188 15.382812 11.339844 15.386719 11.4375 15.386719 C 13.363281 15.386719 14.925781 13.824219 14.925781 11.898438 C 14.925781 11.832031 14.921875 11.769531 14.917969 11.703125 C 14.820312 13.539062 13.296875 14.996094 11.4375 14.996094 C 11.425781 14.996094 11.414062 14.996094 11.402344 14.996094 C 11.390625 14.972656 11.375 14.945312 11.359375 14.921875 C 11.328125 14.957031 11.289062 14.980469 11.246094 14.992188 C 9.472656 14.894531 8.050781 13.476562 7.953125 11.703125 Z M 7.953125 11.703125 "/>
<path style=" stroke:none;fill-rule:nonzero;fill:rgb(87.843138%,87.843138%,87.843138%);fill-opacity:1;" d="M 11.4375 8.019531 C 9.503906 8.019531 7.945312 9.574219 7.945312 11.507812 C 7.945312 13.441406 9.503906 14.996094 11.4375 14.996094 C 13.371094 14.996094 14.925781 13.441406 14.925781 11.507812 C 14.925781 9.574219 13.371094 8.019531 11.4375 8.019531 Z M 11.4375 10.011719 C 12.265625 10.011719 12.929688 10.679688 12.929688 11.507812 C 12.929688 12.335938 12.265625 13.003906 11.4375 13.003906 C 10.609375 13.003906 9.941406 12.335938 9.941406 11.507812 C 9.941406 10.679688 10.609375 10.011719 11.4375 10.011719 Z M 11.4375 10.011719 "/>
<path style=" stroke:none;fill-rule:nonzero;fill:rgb(95.686275%,26.274511%,21.176471%);fill-opacity:1;" d="M 10.140625 8.265625 C 9.714844 8.4375 9.316406 8.695312 8.96875 9.039062 C 8.621094 9.386719 8.363281 9.785156 8.195312 10.210938 L 10.046875 10.953125 C 10.199219 10.570312 10.5 10.269531 10.878906 10.117188 Z M 12.734375 8.265625 L 11.992188 10.117188 C 12.371094 10.269531 12.675781 10.570312 12.824219 10.953125 L 14.679688 10.210938 C 14.507812 9.785156 14.25 9.386719 13.902344 9.039062 C 13.558594 8.695312 13.160156 8.4375 12.734375 8.265625 Z M 10.046875 12.0625 L 8.195312 12.804688 C 8.363281 13.230469 8.621094 13.628906 8.96875 13.976562 C 9.316406 14.320312 9.714844 14.578125 10.140625 14.75 L 10.878906 12.894531 C 10.5 12.746094 10.199219 12.441406 10.046875 12.0625 Z M 12.824219 12.0625 C 12.675781 12.441406 12.371094 12.746094 11.992188 12.898438 L 12.734375 14.75 C 13.160156 14.578125 13.558594 14.320312 13.902344 13.976562 C 14.25 13.628906 14.507812 13.230469 14.679688 12.804688 Z M 12.824219 12.0625 "/>
<path style=" stroke:none;fill-rule:nonzero;fill:rgb(98.039216%,98.039216%,98.039216%);fill-opacity:0.4;" d="M 11.4375 8.019531 C 9.503906 8.019531 7.945312 9.574219 7.945312 11.507812 C 7.945312 11.523438 7.949219 11.535156 7.949219 11.550781 C 7.992188 9.65625 9.53125 8.144531 11.4375 8.144531 C 13.34375 8.144531 14.882812 9.65625 14.925781 11.550781 C 14.925781 11.535156 14.925781 11.523438 14.925781 11.507812 C 14.925781 9.574219 13.371094 8.019531 11.4375 8.019531 Z M 9.941406 11.550781 C 9.941406 11.578125 9.941406 11.605469 9.941406 11.632812 C 9.941406 12.460938 10.609375 13.128906 11.4375 13.128906 C 12.265625 13.128906 12.929688 12.460938 12.929688 11.632812 C 12.929688 11.605469 12.929688 11.578125 12.929688 11.550781 C 12.90625 12.359375 12.25 13.003906 11.4375 13.003906 C 10.621094 13.003906 9.964844 12.359375 9.941406 11.550781 Z M 9.941406 11.550781 "/>
<path style=" stroke:none;fill-rule:nonzero;fill:rgb(0%,0%,0%);fill-opacity:0.4;" d="M 11.4375 14.996094 C 9.503906 14.996094 7.945312 13.441406 7.945312 11.507812 C 7.945312 11.492188 7.949219 11.476562 7.949219 11.464844 C 7.992188 13.359375 9.53125 14.871094 11.4375 14.871094 C 13.34375 14.871094 14.882812 13.359375 14.925781 11.464844 C 14.925781 11.476562 14.925781 11.492188 14.925781 11.507812 C 14.925781 13.441406 13.371094 14.996094 11.4375 14.996094 Z M 9.941406 11.464844 C 9.941406 11.4375 9.941406 11.410156 9.941406 11.382812 C 9.941406 10.554688 10.609375 9.886719 11.4375 9.886719 C 12.265625 9.886719 12.929688 10.554688 12.929688 11.382812 C 12.929688 11.410156 12.929688 11.4375 12.929688 11.464844 C 12.90625 10.65625 12.25 10.011719 11.4375 10.011719 C 10.621094 10.011719 9.964844 10.65625 9.941406 11.464844 Z M 9.941406 11.464844 "/>
<path style=" stroke:none;fill-rule:nonzero;fill:url(#linear2);" d="M 11.4375 8.019531 C 13.363281 8.019531 14.925781 9.582031 14.925781 11.507812 C 14.925781 13.433594 13.363281 14.996094 11.4375 14.996094 C 9.507812 14.996094 7.949219 13.433594 7.949219 11.507812 C 7.949219 9.582031 9.507812 8.019531 11.4375 8.019531 Z M 11.4375 8.019531 "/>
</g>
</svg>
