
<svg xmlns="http://www.w3.org/2000/svg" xmlns:xlink="http://www.w3.org/1999/xlink" width="64" height="64" viewBox="0 0 64 64" version="1.1">
<defs>
<linearGradient id="linear0" gradientUnits="userSpaceOnUse" x1="8.466666" y1="-199.125" x2="8.466666" y2="-213.941666" gradientTransform="matrix(3.779528,0,0,3.779528,0,812.598468)">
<stop offset="0" style="stop-color:rgb(0%,0%,0%);stop-opacity:0.2;"/>
<stop offset="1" style="stop-color:rgb(100%,100%,100%);stop-opacity:0;"/>
</linearGradient>
</defs>
<g id="surface1">
<path style=" stroke:none;fill-rule:nonzero;fill:rgb(40.000001%,73.333335%,41.568628%);fill-opacity:1;" d="M 32 3.992188 C 47.464844 3.992188 60.003906 16.53125 60.003906 32 C 60.003906 47.464844 47.464844 60.003906 32 60.003906 C 16.53125 60.003906 3.992188 47.464844 3.992188 32 C 3.992188 16.53125 16.53125 3.992188 32 3.992188 Z M 32 3.992188 "/>
<path style=" stroke:none;fill-rule:nonzero;fill:rgb(0%,0%,0%);fill-opacity:0.4;" d="M 35.722656 22.402344 C 34.355469 22.421875 33.035156 22.949219 32.03125 23.890625 C 30.949219 24.894531 30.332031 26.261719 30.277344 27.738281 C 30.265625 27.996094 30.277344 28.25 30.304688 28.496094 C 30.445312 27.164062 31.042969 25.941406 32.03125 25.023438 C 33.035156 24.082031 34.355469 23.554688 35.722656 23.53125 C 35.816406 23.53125 35.910156 23.53125 36 23.535156 C 38.792969 23.640625 41.035156 25.808594 41.316406 28.515625 C 41.332031 28.390625 41.34375 28.265625 41.347656 28.140625 C 41.445312 25.089844 39.050781 22.519531 36 22.402344 C 35.910156 22.398438 35.816406 22.398438 35.722656 22.402344 Z M 36.734375 25.917969 C 35.804688 25.917969 35.042969 26.398438 34.996094 27.015625 L 34.996094 27.128906 C 35.011719 27.3125 35.09375 27.484375 35.222656 27.636719 C 35.523438 27.285156 36.085938 27.050781 36.734375 27.050781 L 36.734375 27.058594 C 37.382812 27.058594 37.949219 27.292969 38.25 27.640625 C 38.378906 27.488281 38.464844 27.316406 38.480469 27.128906 L 38.480469 27.015625 C 38.480469 27 38.480469 26.980469 38.46875 26.96875 C 38.382812 26.378906 37.640625 25.921875 36.734375 25.921875 Z M 32.066406 28.4375 C 32.046875 28.582031 32.035156 28.726562 32.03125 28.875 C 31.953125 31.046875 33.648438 32.871094 35.824219 32.949219 C 36.863281 32.980469 37.878906 32.609375 38.652344 31.894531 C 39.414062 31.183594 39.859375 30.195312 39.890625 29.152344 C 39.898438 28.914062 39.882812 28.683594 39.851562 28.453125 C 39.726562 29.335938 39.304688 30.148438 38.652344 30.765625 C 37.878906 31.476562 36.863281 31.847656 35.824219 31.8125 C 33.886719 31.746094 32.332031 30.289062 32.066406 28.4375 Z M 23.71875 30 C 23.824219 30.238281 24.097656 30.894531 24.378906 31.5625 C 29.480469 34.847656 33.726562 36.667969 37.011719 36.953125 C 40.824219 37.300781 43.796875 35.214844 45.074219 34.328125 C 45.324219 34.164062 45.507812 34.019531 45.585938 34 L 45.671875 33.863281 C 45.640625 33.664062 45.566406 33.332031 45.460938 32.933594 C 45.363281 32.996094 45.234375 33.089844 45.074219 33.195312 C 43.796875 34.082031 40.824219 36.167969 37.011719 35.820312 C 33.585938 35.519531 29.117188 33.5625 23.71875 30 Z M 4.007812 32.527344 C 4.003906 32.621094 4.007812 32.714844 4.007812 32.808594 C 4.238281 41.015625 7.96875 48.320312 13.765625 53.285156 C 14.703125 51.429688 15.808594 48.890625 16.230469 46.375 C 16.847656 42.648438 19.808594 42.984375 23.902344 43.449219 C 25.242188 43.601562 26.769531 43.777344 28.34375 43.8125 C 32.746094 43.839844 37.476562 43.03125 40.402344 41.757812 C 42.292969 40.925781 43.496094 40.375 44.25 39.6875 C 44.519531 39.46875 44.667969 39.101562 44.8125 38.71875 L 44.917969 38.457031 C 45.042969 38.136719 45.214844 37.460938 45.292969 37.09375 C 45.332031 36.933594 45.339844 36.757812 45.234375 36.671875 L 45.113281 36.691406 C 45.046875 36.9375 44.976562 37.171875 44.917969 37.324219 L 44.8125 37.582031 C 44.667969 37.96875 44.519531 38.335938 44.25 38.558594 C 43.496094 39.242188 42.292969 39.792969 40.402344 40.625 C 37.476562 41.898438 32.746094 42.707031 28.34375 42.683594 C 26.769531 42.644531 25.242188 42.46875 23.902344 42.3125 C 19.808594 41.851562 16.847656 41.515625 16.230469 45.238281 C 15.753906 48.097656 14.375 51.039062 13.386719 52.910156 C 7.75 47.894531 4.160156 40.632812 4.007812 32.527344 Z M 4.007812 32.527344 "/>
<path style=" stroke:none;fill-rule:nonzero;fill:rgb(87.843138%,87.843138%,87.843138%);fill-opacity:1;" d="M 21.539062 16.933594 L 21.433594 16.957031 L 21.394531 17.035156 C 21.394531 17.035156 21.347656 19.71875 21.339844 20.019531 C 20.652344 19.789062 14.28125 18.503906 8.117188 17.378906 C 5.507812 21.632812 4 26.640625 4 32 C 4 40.316406 7.628906 47.785156 13.386719 52.910156 C 14.375 51.039062 15.753906 48.097656 16.230469 45.238281 C 16.847656 41.515625 19.808594 41.851562 23.902344 42.3125 C 25.242188 42.46875 26.769531 42.644531 28.34375 42.683594 C 32.746094 42.707031 37.476562 41.898438 40.402344 40.625 C 42.292969 39.792969 43.496094 39.242188 44.25 38.558594 C 44.519531 38.335938 44.667969 37.96875 44.8125 37.582031 L 44.917969 37.324219 C 45.042969 37.003906 45.214844 36.328125 45.292969 35.964844 C 45.332031 35.800781 45.339844 35.625 45.234375 35.539062 L 44.832031 35.609375 C 43.550781 36.371094 40.347656 37.839844 37.34375 37.894531 C 33.628906 37.964844 26.125 34.160156 25.34375 33.753906 L 25.277344 33.675781 C 25.085938 33.222656 23.960938 30.558594 23.71875 30 C 29.117188 33.5625 33.585938 35.519531 37.011719 35.820312 C 40.824219 36.167969 43.796875 34.082031 45.074219 33.195312 C 45.324219 33.03125 45.507812 32.886719 45.585938 32.871094 L 45.671875 32.734375 C 45.460938 31.390625 43.464844 24.902344 41.957031 23.347656 C 41.542969 22.925781 41.214844 22.511719 40.539062 22.117188 C 35.085938 18.941406 22.136719 17.019531 21.539062 16.933594 Z M 35.722656 22.402344 C 35.816406 22.398438 35.910156 22.398438 36 22.402344 C 39.050781 22.519531 41.445312 25.089844 41.347656 28.140625 C 41.289062 29.617188 40.667969 30.984375 39.589844 31.988281 C 38.507812 33 37.097656 33.519531 35.609375 33.472656 C 32.570312 33.355469 30.179688 30.789062 30.277344 27.738281 C 30.332031 26.261719 30.949219 24.894531 32.03125 23.890625 C 33.035156 22.949219 34.355469 22.421875 35.722656 22.402344 Z M 35.902344 23.949219 C 34.929688 23.960938 33.984375 24.332031 33.277344 25 C 32.503906 25.703125 32.058594 26.699219 32.03125 27.738281 C 31.953125 29.914062 33.648438 31.738281 35.824219 31.8125 C 36.863281 31.847656 37.878906 31.476562 38.652344 30.765625 C 39.414062 30.050781 39.859375 29.0625 39.890625 28.019531 C 39.964844 25.847656 38.269531 24.027344 36.097656 23.949219 C 36.03125 23.945312 35.96875 23.945312 35.902344 23.949219 Z M 36.734375 25.917969 L 36.734375 25.921875 C 37.640625 25.921875 38.382812 26.378906 38.46875 26.96875 C 38.480469 26.980469 38.480469 27 38.480469 27.015625 L 38.480469 27.128906 C 38.429688 27.738281 37.667969 28.230469 36.734375 28.230469 C 35.804688 28.230469 35.042969 27.738281 34.996094 27.128906 L 34.996094 27.015625 C 35.042969 26.398438 35.804688 25.917969 36.734375 25.917969 Z M 36.734375 25.917969 "/>
<path style=" stroke:none;fill-rule:nonzero;fill:rgb(100%,100%,100%);fill-opacity:0.8;" d="M 21.539062 16.933594 L 21.433594 16.957031 L 21.394531 17.035156 C 21.394531 17.035156 21.347656 19.71875 21.339844 20.019531 C 20.652344 19.789062 14.28125 18.503906 8.117188 17.378906 C 5.507812 21.632812 4 26.640625 4 32 C 4 32.117188 4.011719 32.230469 4.011719 32.347656 C 4.140625 27.261719 5.625 22.511719 8.117188 18.449219 C 14.28125 19.570312 20.652344 20.855469 21.339844 21.089844 C 21.347656 20.789062 21.394531 18.105469 21.394531 18.105469 L 21.433594 18.027344 L 21.539062 18 C 22.136719 18.085938 35.085938 20.007812 40.539062 23.183594 C 41.214844 23.578125 41.542969 23.992188 41.957031 24.417969 C 43.25 25.75 44.898438 30.699219 45.476562 32.933594 C 45.515625 32.910156 45.5625 32.875 45.585938 32.871094 L 45.671875 32.734375 C 45.460938 31.390625 43.464844 24.902344 41.957031 23.347656 C 41.542969 22.925781 41.214844 22.511719 40.539062 22.117188 C 35.085938 18.941406 22.136719 17.019531 21.539062 16.933594 Z M 35.902344 23.949219 C 34.929688 23.960938 33.984375 24.332031 33.277344 25 C 32.503906 25.703125 32.058594 26.699219 32.03125 27.738281 C 32.023438 27.960938 32.035156 28.179688 32.0625 28.390625 C 32.183594 27.503906 32.609375 26.675781 33.277344 26.066406 C 33.984375 25.398438 34.929688 25.03125 35.902344 25.015625 C 35.96875 25.015625 36.03125 25.015625 36.097656 25.015625 C 38.042969 25.085938 39.605469 26.558594 39.855469 28.425781 C 39.875 28.292969 39.886719 28.15625 39.890625 28.019531 C 39.964844 25.847656 38.269531 24.027344 36.097656 23.949219 C 36.03125 23.945312 35.96875 23.945312 35.902344 23.949219 Z M 35.199219 27.605469 C 35.082031 27.75 35.011719 27.910156 34.996094 28.085938 L 34.996094 28.199219 C 35.042969 28.804688 35.804688 29.296875 36.734375 29.296875 C 37.667969 29.296875 38.429688 28.804688 38.480469 28.199219 L 38.480469 28.085938 C 38.480469 28.070312 38.480469 28.050781 38.46875 28.035156 C 38.449219 27.878906 38.378906 27.734375 38.273438 27.605469 C 37.980469 27.972656 37.402344 28.230469 36.734375 28.230469 C 36.066406 28.230469 35.492188 27.972656 35.199219 27.605469 Z M 30.300781 28.449219 C 30.289062 28.566406 30.28125 28.6875 30.277344 28.808594 C 30.179688 31.859375 32.570312 34.425781 35.609375 34.542969 C 37.097656 34.589844 38.507812 34.070312 39.589844 33.058594 C 40.667969 32.050781 41.289062 30.683594 41.347656 29.207031 C 41.355469 28.953125 41.34375 28.707031 41.320312 28.460938 C 41.191406 29.8125 40.589844 31.058594 39.589844 31.988281 C 38.507812 33 37.097656 33.519531 35.609375 33.472656 C 32.808594 33.367188 30.5625 31.175781 30.300781 28.449219 Z M 23.71875 31.066406 C 23.960938 31.628906 25.085938 34.292969 25.277344 34.746094 L 25.34375 34.824219 C 26.125 35.230469 33.628906 39.035156 37.34375 38.964844 C 40.347656 38.90625 43.550781 37.4375 44.832031 36.675781 L 45.132812 36.625 C 45.195312 36.382812 45.257812 36.136719 45.292969 35.964844 C 45.332031 35.800781 45.339844 35.625 45.234375 35.539062 L 44.832031 35.609375 C 43.550781 36.371094 40.347656 37.839844 37.34375 37.894531 C 33.628906 37.964844 26.125 34.160156 25.34375 33.753906 L 25.277344 33.675781 C 25.160156 33.40625 24.738281 32.402344 24.34375 31.472656 C 24.136719 31.339844 23.929688 31.207031 23.71875 31.066406 Z M 23.71875 31.066406 "/>
<path style=" stroke:none;fill-rule:nonzero;fill:rgb(0%,0%,0%);fill-opacity:0.2;" d="M 4.015625 32.75 C 4.007812 33 4 33.25 4 33.5 C 4 48.960938 16.539062 61.5 32 61.5 C 47.460938 61.5 60 48.960938 60 33.5 C 60 33.25 59.992188 33 59.984375 32.75 C 59.585938 47.863281 47.210938 59.996094 32 59.996094 C 16.789062 59.996094 4.414062 47.863281 4.015625 32.75 Z M 4.015625 32.75 "/>
<path style=" stroke:none;fill-rule:nonzero;fill:rgb(0%,0%,0%);fill-opacity:0.4;" d="M 32 8 C 18.703125 8 8 18.703125 8 32 C 8 32.175781 8.003906 32.347656 8.007812 32.523438 C 8.28125 19.46875 18.878906 9.046875 32 9.046875 C 45.121094 9.046875 55.71875 19.46875 55.996094 32.523438 C 55.996094 32.347656 56 32.175781 56 32 C 56 18.703125 45.296875 8 32 8 Z M 32 8 "/>
<path style=" stroke:none;fill-rule:nonzero;fill:rgb(100%,100%,100%);fill-opacity:0.8;" d="M 32 57 C 18.703125 57 8 46.296875 8 33 C 8 32.824219 8.003906 32.652344 8.003906 32.476562 C 8.28125 45.53125 18.878906 55.953125 32 55.953125 C 45.121094 55.953125 55.71875 45.53125 55.996094 32.476562 C 55.996094 32.652344 56 32.824219 56 33 C 56 46.296875 45.296875 57 32 57 Z M 32 57 "/>
<path style=" stroke:none;fill-rule:nonzero;fill:rgb(93.333334%,93.333334%,93.333334%);fill-opacity:1;" d="M 32 3.992188 C 16.484375 3.992188 3.996094 16.484375 3.996094 32 C 3.996094 47.515625 16.484375 60.007812 32 60.007812 C 47.515625 60.007812 60.003906 47.515625 60.003906 32 C 60.003906 16.484375 47.515625 3.992188 32 3.992188 Z M 32 8 C 45.296875 8 56 18.703125 56 32 C 56 45.296875 45.296875 56 32 56 C 18.703125 56 8 45.296875 8 32 C 8 18.703125 18.703125 8 32 8 Z M 32 8 "/>
<path style=" stroke:none;fill-rule:nonzero;fill:rgb(0%,0%,0%);fill-opacity:0.4;" d="M 4.015625 31.492188 C 4.011719 31.660156 4 31.824219 4 31.988281 C 4 47.453125 16.539062 59.988281 32 59.988281 C 47.460938 59.988281 59.996094 47.453125 59.996094 31.988281 C 59.996094 31.824219 59.988281 31.660156 59.984375 31.492188 C 59.71875 46.726562 47.296875 58.996094 32 58.996094 C 16.703125 58.996094 4.28125 46.726562 4.015625 31.492188 Z M 4.015625 31.492188 "/>
<path style=" stroke:none;fill-rule:nonzero;fill:rgb(100%,100%,100%);fill-opacity:0.6;" d="M 32 4 C 16.539062 4 4 16.535156 4 32 C 4 32.164062 4.003906 32.332031 4.007812 32.5 C 4.273438 17.265625 16.703125 5 32 5 C 47.296875 5 59.726562 17.265625 59.992188 32.5 C 59.996094 32.332031 60 32.164062 60 32 C 60 16.535156 47.460938 4 32 4 Z M 32 4 "/>
<path style=" stroke:none;fill-rule:nonzero;fill:url(#linear0);" d="M 32 4 C 47.460938 4 60 16.535156 60 32 C 60 47.460938 47.460938 59.996094 32 59.996094 C 16.539062 59.996094 4 47.460938 4 32 C 4 16.535156 16.539062 4 32 4 Z M 32 4 "/>
</g>
</svg>
