
<svg xmlns="http://www.w3.org/2000/svg" xmlns:xlink="http://www.w3.org/1999/xlink" width="24" height="24" viewBox="0 0 24 24" version="1.1">
<defs>
<linearGradient id="linear0" gradientUnits="userSpaceOnUse" x1="31.999998" y1="60" x2="31.999998" y2="4" gradientTransform="matrix(0.375,0,0,0.375,-0.00000102047,0.000000000000042633)">
<stop offset="0" style="stop-color:rgb(0%,0%,0%);stop-opacity:0.2;"/>
<stop offset="1" style="stop-color:rgb(100%,100%,100%);stop-opacity:0;"/>
</linearGradient>
</defs>
<g id="surface1">
<path style=" stroke:none;fill-rule:nonzero;fill:rgb(47.058824%,56.470591%,61.176473%);fill-opacity:1;" d="M 15 1.5 L 4.875 1.5 C 4.25 1.5 3.75 2 3.75 2.625 L 3.75 21.375 C 3.75 22 4.25 22.5 4.875 22.5 L 19.125 22.5 C 19.75 22.5 20.25 22 20.25 21.375 L 20.25 6.75 Z M 15 1.5 "/>
<path style=" stroke:none;fill-rule:nonzero;fill:rgb(0%,0%,0%);fill-opacity:0.4;" d="M 15 5.625 L 15 6 C 15 6.625 15.5 7.125 16.125 7.125 L 20.25 7.125 L 19.875 6.75 L 16.125 6.75 C 15.5 6.75 15 6.25 15 5.625 Z M 15 5.625 "/>
<path style=" stroke:none;fill-rule:nonzero;fill:rgb(56.470591%,64.313728%,68.235296%);fill-opacity:0.996078;" d="M 20.25 6.75 L 15 1.5 L 15 5.625 C 15 6.25 15.5 6.75 16.125 6.75 Z M 20.25 6.75 "/>
<path style=" stroke:none;fill-rule:nonzero;fill:rgb(100%,100%,100%);fill-opacity:0.4;" d="M 4.875 1.5 C 4.25 1.5 3.75 2 3.75 2.625 L 3.75 3 C 3.75 2.375 4.25 1.875 4.875 1.875 L 15 1.875 L 20.25 7.125 L 20.25 6.75 L 15 1.5 Z M 4.875 1.5 "/>
<path style=" stroke:none;fill-rule:nonzero;fill:rgb(0%,0%,0%);fill-opacity:0.2;" d="M 3.75 21.371094 L 3.75 21.9375 C 3.75 22.5625 4.25 23.0625 4.875 23.0625 L 19.125 23.0625 C 19.75 23.0625 20.25 22.5625 20.25 21.9375 L 20.25 21.371094 C 20.25 21.992188 19.75 22.496094 19.125 22.496094 L 4.875 22.496094 C 4.25 22.496094 3.75 21.992188 3.75 21.371094 Z M 3.75 21.371094 "/>
<path style=" stroke:none;fill-rule:nonzero;fill:rgb(0%,0%,0%);fill-opacity:0.4;" d="M 3.75 21.046875 L 3.75 21.375 C 3.75 22 4.25 22.5 4.875 22.5 L 19.125 22.5 C 19.75 22.5 20.25 22 20.25 21.375 L 20.25 21.046875 C 20.25 21.671875 19.75 22.171875 19.125 22.171875 L 4.875 22.171875 C 4.25 22.171875 3.75 21.671875 3.75 21.046875 Z M 3.75 21.046875 "/>
<path style=" stroke:none;fill-rule:nonzero;fill:rgb(69.01961%,74.509805%,77.254903%);fill-opacity:1;" d="M 10.1875 9.058594 C 10.160156 9.058594 10.128906 9.066406 10.101562 9.085938 L 9.773438 9.273438 C 9.683594 9.324219 9.65625 9.4375 9.707031 9.527344 L 11.566406 12.75 L 9.707031 15.972656 C 9.65625 16.0625 9.683594 16.175781 9.773438 16.226562 L 10.101562 16.414062 C 10.191406 16.46875 10.304688 16.4375 10.355469 16.347656 L 12 13.5 L 13.644531 16.347656 C 13.695312 16.4375 13.808594 16.46875 13.898438 16.414062 L 14.226562 16.226562 C 14.316406 16.175781 14.34375 16.0625 14.292969 15.972656 L 12.433594 12.75 L 14.292969 9.527344 C 14.34375 9.4375 14.316406 9.324219 14.226562 9.273438 L 13.898438 9.085938 C 13.808594 9.03125 13.695312 9.0625 13.644531 9.152344 L 12 12 L 10.355469 9.152344 C 10.320312 9.089844 10.253906 9.058594 10.1875 9.058594 Z M 10.1875 9.058594 "/>
<path style=" stroke:none;fill-rule:nonzero;fill:rgb(100%,100%,100%);fill-opacity:0.4;" d="M 10.1875 9.058594 C 10.160156 9.058594 10.128906 9.066406 10.101562 9.085938 L 9.773438 9.273438 C 9.683594 9.324219 9.65625 9.4375 9.707031 9.527344 L 9.714844 9.542969 C 9.730469 9.519531 9.75 9.503906 9.773438 9.488281 L 10.101562 9.300781 C 10.128906 9.285156 10.160156 9.277344 10.1875 9.273438 C 10.253906 9.273438 10.320312 9.308594 10.355469 9.367188 L 12 12.21875 L 13.644531 9.367188 C 13.695312 9.277344 13.808594 9.25 13.898438 9.300781 L 14.226562 9.488281 C 14.25 9.503906 14.269531 9.519531 14.285156 9.542969 L 14.292969 9.527344 C 14.34375 9.4375 14.316406 9.324219 14.226562 9.273438 L 13.898438 9.085938 C 13.808594 9.03125 13.695312 9.0625 13.644531 9.152344 L 12 12 L 10.355469 9.152344 C 10.320312 9.089844 10.253906 9.058594 10.1875 9.058594 Z M 11.503906 12.859375 L 9.707031 15.972656 C 9.667969 16.039062 9.675781 16.117188 9.714844 16.175781 L 11.566406 12.96875 Z M 12.496094 12.859375 L 12.433594 12.96875 L 14.285156 16.175781 C 14.324219 16.117188 14.332031 16.039062 14.292969 15.972656 Z M 12.496094 12.859375 "/>
<path style=" stroke:none;fill-rule:nonzero;fill:rgb(0.784314%,0.784314%,0.784314%);fill-opacity:0.4;" d="M 10.1875 16.65625 C 10.160156 16.65625 10.128906 16.644531 10.101562 16.628906 L 9.773438 16.441406 C 9.683594 16.390625 9.65625 16.277344 9.707031 16.1875 L 9.714844 16.171875 C 9.730469 16.191406 9.75 16.210938 9.773438 16.226562 L 10.101562 16.414062 C 10.128906 16.429688 10.160156 16.4375 10.1875 16.4375 C 10.253906 16.441406 10.320312 16.40625 10.355469 16.34375 L 12 13.496094 L 13.644531 16.34375 C 13.695312 16.433594 13.808594 16.464844 13.898438 16.414062 L 14.226562 16.226562 C 14.25 16.210938 14.269531 16.191406 14.285156 16.171875 L 14.292969 16.1875 C 14.34375 16.277344 14.316406 16.390625 14.226562 16.441406 L 13.898438 16.628906 C 13.808594 16.683594 13.695312 16.652344 13.644531 16.5625 L 12 13.714844 L 10.355469 16.5625 C 10.320312 16.625 10.253906 16.65625 10.1875 16.65625 Z M 11.503906 12.855469 L 9.707031 9.742188 C 9.667969 9.675781 9.675781 9.597656 9.714844 9.539062 L 11.566406 12.746094 Z M 12.496094 12.855469 L 12.433594 12.746094 L 14.285156 9.539062 C 14.324219 9.597656 14.332031 9.675781 14.292969 9.742188 Z M 12.496094 12.855469 "/>
<path style=" stroke:none;fill-rule:nonzero;fill:url(#linear0);" d="M 15 1.5 L 4.875 1.5 C 4.25 1.5 3.75 2 3.75 2.625 L 3.75 21.375 C 3.75 22 4.25 22.5 4.875 22.5 L 19.125 22.5 C 19.75 22.5 20.25 22 20.25 21.375 L 20.25 6.75 Z M 15 1.5 "/>
</g>
</svg>
