
<svg xmlns="http://www.w3.org/2000/svg" xmlns:xlink="http://www.w3.org/1999/xlink" width="32" height="32" viewBox="0 0 32 32" version="1.1">
<defs>
<linearGradient id="linear0" gradientUnits="userSpaceOnUse" x1="10.054166" y1="-199.125" x2="10.054166" y2="-213.941666" gradientTransform="matrix(1.889764,0,0,1.889764,-0.000632289,406.299234)">
<stop offset="0" style="stop-color:rgb(0%,0%,0%);stop-opacity:0.2;"/>
<stop offset="1" style="stop-color:rgb(100%,100%,100%);stop-opacity:0;"/>
</linearGradient>
</defs>
<g id="surface1">
<path style=" stroke:none;fill-rule:nonzero;fill:rgb(87.843138%,87.843138%,87.843138%);fill-opacity:1;" d="M 4 2 L 28 2 C 29.105469 2 30 2.894531 30 4 L 30 28 C 30 29.105469 29.105469 30 28 30 L 4 30 C 2.894531 30 2 29.105469 2 28 L 2 4 C 2 2.894531 2.894531 2 4 2 Z M 4 2 "/>
<path style=" stroke:none;fill-rule:nonzero;fill:rgb(100%,100%,100%);fill-opacity:0.6;" d="M 5 8.5 C 4.445312 8.5 4 8.058594 4 7.507812 L 4 7.492188 C 4 7.410156 4.011719 7.328125 4.03125 7.25 C 4.140625 7.683594 4.53125 8 5 8 L 27 8 C 27.46875 8 27.859375 7.683594 27.96875 7.25 C 27.988281 7.328125 28 7.410156 28 7.492188 L 28 7.507812 C 28 8.058594 27.554688 8.5 27 8.5 Z M 5 8.5 "/>
<path style=" stroke:none;fill-rule:nonzero;fill:rgb(0%,0%,0%);fill-opacity:0.4;" d="M 2 27.5 L 2 28 C 2 29.109375 2.890625 30 4 30 L 28 30 C 29.109375 30 30 29.109375 30 28 L 30 27.5 C 30 28.609375 29.109375 29.5 28 29.5 L 4 29.5 C 2.890625 29.5 2 28.609375 2 27.5 Z M 2 27.5 "/>
<path style=" stroke:none;fill-rule:nonzero;fill:rgb(0%,0%,0%);fill-opacity:0.2;" d="M 2 28 L 2 28.75 C 2 29.859375 2.890625 30.75 4 30.75 L 28 30.75 C 29.109375 30.75 30 29.859375 30 28.75 L 30 28 C 30 29.109375 29.109375 30 28 30 L 4 30 C 2.890625 30 2 29.109375 2 28 Z M 2 28 "/>
<path style=" stroke:none;fill-rule:nonzero;fill:rgb(100%,100%,100%);fill-opacity:0.6;" d="M 4 2 C 2.890625 2 2 2.890625 2 4 L 2 4.492188 C 2 3.382812 2.890625 2.492188 4 2.492188 L 28 2.492188 C 29.109375 2.492188 30 3.382812 30 4.492188 L 30 4 C 30 2.890625 29.109375 2 28 2 Z M 4 2 "/>
<path style=" stroke:none;fill-rule:nonzero;fill:rgb(0%,0%,0%);fill-opacity:0.4;" d="M 28 6.992188 L 28 7.007812 C 28 7.554688 27.550781 8 27 8 L 5 8 C 4.449219 8 4 7.554688 4 7.007812 L 4 6.992188 C 4 6.445312 4.449219 6 5 6 L 27 6 C 27.550781 6 28 6.445312 28 6.992188 Z M 28 6.992188 "/>
<path style=" stroke:none;fill-rule:nonzero;fill:rgb(14.901961%,65.098041%,60.392159%);fill-opacity:1;" d="M 19.011719 7 C 19.011719 7.550781 18.5625 8 18.011719 8 L 5 8 C 4.449219 8 4 7.550781 4 7 C 4 6.449219 4.449219 6 5 6 L 18.011719 6 C 18.5625 6 19.011719 6.449219 19.011719 7 Z M 19.011719 7 "/>
<path style=" stroke:none;fill-rule:nonzero;fill:rgb(0.784314%,0.784314%,0.784314%);fill-opacity:0.4;" d="M 5 6 C 4.445312 6 4 6.441406 4 6.992188 L 4 7.007812 C 4 7.089844 4.011719 7.171875 4.03125 7.25 C 4.140625 6.816406 4.53125 6.5 5 6.5 L 27 6.5 C 27.46875 6.5 27.859375 6.816406 27.96875 7.25 C 27.988281 7.171875 28 7.089844 28 7.007812 L 28 6.992188 C 28 6.441406 27.554688 6 27 6 Z M 5 6 "/>
<path style=" stroke:none;fill-rule:nonzero;fill:rgb(0%,0%,0%);fill-opacity:0.4;" d="M 15.023438 7.25 C 15.015625 7.332031 15.011719 7.414062 15.011719 7.5 C 15.011719 9.160156 16.347656 10.5 18.011719 10.5 C 19.671875 10.5 21.011719 9.160156 21.011719 7.5 C 21.011719 7.414062 21.007812 7.332031 21 7.25 C 20.875 8.792969 19.589844 10 18.011719 10 C 16.433594 10 15.148438 8.792969 15.019531 7.25 Z M 15.023438 7.25 "/>
<path style=" stroke:none;fill-rule:nonzero;fill:rgb(74.117649%,74.117649%,74.117649%);fill-opacity:0.992157;" d="M 18.011719 4 C 19.667969 4 21.011719 5.34375 21.011719 7 C 21.011719 8.65625 19.667969 10 18.011719 10 C 16.355469 10 15.011719 8.65625 15.011719 7 C 15.011719 5.34375 16.355469 4 18.011719 4 Z M 18.011719 4 "/>
<path style=" stroke:none;fill-rule:nonzero;fill:rgb(99.607843%,99.607843%,99.607843%);fill-opacity:0.4;" d="M 15.023438 7.25 C 15.015625 7.167969 15.011719 7.085938 15.011719 7 C 15.011719 5.339844 16.347656 4 18.011719 4 C 19.671875 4 21.011719 5.339844 21.011719 7 C 21.011719 7.085938 21.007812 7.167969 21 7.25 C 20.875 5.707031 19.589844 4.5 18.011719 4.5 C 16.433594 4.5 15.148438 5.707031 15.019531 7.25 Z M 15.023438 7.25 "/>
<path style=" stroke:none;fill-rule:nonzero;fill:rgb(0.392157%,0.784314%,0.784314%);fill-opacity:0.4;" d="M 18.011719 5 C 19.117188 5 20.011719 5.894531 20.011719 7 C 20.011719 8.105469 19.117188 9 18.011719 9 C 16.90625 9 16.011719 8.105469 16.011719 7 C 16.011719 5.894531 16.90625 5 18.011719 5 Z M 18.011719 5 "/>
<path style=" stroke:none;fill-rule:nonzero;fill:rgb(0.392157%,0.784314%,0.784314%);fill-opacity:0.4;" d="M 18.011719 5 C 16.902344 5 16.011719 5.890625 16.011719 7 C 16.011719 7.085938 16.015625 7.167969 16.027344 7.25 C 16.148438 6.261719 16.988281 5.5 18.011719 5.5 C 19.035156 5.5 19.875 6.261719 19.996094 7.25 C 20.007812 7.167969 20.011719 7.085938 20.011719 7 C 20.011719 5.890625 19.117188 5 18.011719 5 Z M 18.011719 5 "/>
<path style=" stroke:none;fill-rule:nonzero;fill:rgb(99.215686%,99.607843%,99.607843%);fill-opacity:0.4;" d="M 18.011719 9.5 C 16.902344 9.5 16.011719 8.609375 16.011719 7.5 C 16.011719 7.414062 16.015625 7.332031 16.027344 7.25 C 16.148438 8.238281 16.988281 9 18.011719 9 C 19.035156 9 19.875 8.238281 19.996094 7.25 C 20.007812 7.332031 20.011719 7.414062 20.011719 7.5 C 20.011719 8.609375 19.117188 9.5 18.011719 9.5 Z M 18.011719 9.5 "/>
<path style=" stroke:none;fill-rule:nonzero;fill:rgb(74.117649%,74.117649%,74.117649%);fill-opacity:0.996078;" d="M 5 12 L 27 12 C 27.550781 12 28 12.449219 28 13 L 28 17 C 28 17.550781 27.550781 18 27 18 L 5 18 C 4.449219 18 4 17.550781 4 17 L 4 13 C 4 12.449219 4.449219 12 5 12 Z M 5 12 "/>
<path style=" stroke:none;fill-rule:nonzero;fill:rgb(25.882354%,64.705884%,96.078432%);fill-opacity:0.996078;" d="M 5 20 L 27 20 C 27.550781 20 28 20.449219 28 21 L 28 25 C 28 25.550781 27.550781 26 27 26 L 5 26 C 4.449219 26 4 25.550781 4 25 L 4 21 C 4 20.449219 4.449219 20 5 20 Z M 5 20 "/>
<path style=" stroke:none;fill-rule:nonzero;fill:rgb(100%,100%,100%);fill-opacity:0.4;" d="M 5 20 C 4.445312 20 4 20.445312 4 21 L 4 21.507812 C 4 20.953125 4.445312 20.507812 5 20.507812 L 27 20.507812 C 27.554688 20.507812 28 20.953125 28 21.507812 L 28 21 C 28 20.445312 27.554688 20 27 20 Z M 5 20 "/>
<path style=" stroke:none;fill-rule:nonzero;fill:rgb(3.921569%,3.921569%,3.921569%);fill-opacity:0.4;" d="M 5 26.507812 C 4.445312 26.507812 4 26.0625 4 25.507812 L 4 25 C 4 25.554688 4.445312 26 5 26 L 27 26 C 27.554688 26 28 25.554688 28 25 L 28 25.507812 C 28 26.0625 27.554688 26.507812 27 26.507812 Z M 5 26.507812 "/>
<path style=" stroke:none;fill-rule:nonzero;fill:rgb(100%,100%,100%);fill-opacity:0.4;" d="M 5 18.507812 C 4.445312 18.507812 4 18.0625 4 17.507812 L 4 17 C 4 17.554688 4.445312 18 5 18 L 27 18 C 27.554688 18 28 17.554688 28 17 L 28 17.507812 C 28 18.0625 27.554688 18.507812 27 18.507812 Z M 5 18.507812 "/>
<path style=" stroke:none;fill-rule:nonzero;fill:rgb(3.921569%,3.921569%,3.921569%);fill-opacity:0.4;" d="M 5 12 C 4.445312 12 4 12.445312 4 13 L 4 13.507812 C 4 12.953125 4.445312 12.507812 5 12.507812 L 27 12.507812 C 27.554688 12.507812 28 12.953125 28 13.507812 L 28 13 C 28 12.445312 27.554688 12 27 12 Z M 5 12 "/>
<path style=" stroke:none;fill-rule:nonzero;fill:rgb(95.686275%,26.274511%,21.176471%);fill-opacity:0.996078;" d="M 22.230469 14.4375 C 22.035156 14.636719 22.035156 14.949219 22.230469 15.148438 L 23.644531 16.5625 C 23.660156 16.570312 23.671875 16.582031 23.683594 16.59375 C 23.882812 16.753906 24.171875 16.746094 24.355469 16.5625 L 26.476562 14.4375 C 26.671875 14.242188 26.671875 13.929688 26.476562 13.730469 C 26.277344 13.535156 25.964844 13.535156 25.769531 13.730469 L 24 15.5 L 22.9375 14.4375 C 22.742188 14.242188 22.429688 14.242188 22.230469 14.4375 Z M 22.230469 14.4375 "/>
<path style=" stroke:none;fill-rule:nonzero;fill:rgb(100%,100%,100%);fill-opacity:0.4;" d="M 26.121094 13.585938 C 25.992188 13.585938 25.867188 13.632812 25.765625 13.734375 L 24 15.5 L 22.9375 14.4375 C 22.742188 14.242188 22.429688 14.242188 22.234375 14.4375 C 22.101562 14.570312 22.058594 14.753906 22.101562 14.917969 C 22.125 14.835938 22.167969 14.753906 22.234375 14.6875 C 22.429688 14.492188 22.742188 14.492188 22.9375 14.6875 L 24 15.75 L 25.765625 13.984375 C 25.964844 13.785156 26.277344 13.785156 26.476562 13.984375 C 26.539062 14.046875 26.582031 14.128906 26.605469 14.210938 C 26.648438 14.046875 26.605469 13.863281 26.476562 13.734375 C 26.375 13.632812 26.25 13.585938 26.121094 13.585938 Z M 26.121094 13.585938 "/>
<path style=" stroke:none;fill-rule:nonzero;fill:rgb(0%,0%,0%);fill-opacity:0.4;" d="M 26.605469 14.210938 C 26.582031 14.292969 26.539062 14.375 26.476562 14.4375 L 24.351562 16.5625 C 24.171875 16.742188 23.882812 16.753906 23.6875 16.59375 C 23.6875 16.59375 23.683594 16.59375 23.683594 16.59375 C 23.671875 16.582031 23.660156 16.570312 23.648438 16.5625 L 22.234375 15.148438 C 22.167969 15.082031 22.125 15 22.101562 14.917969 C 22.058594 15.082031 22.101562 15.265625 22.234375 15.398438 L 23.648438 16.8125 C 23.660156 16.820312 23.671875 16.832031 23.683594 16.84375 C 23.683594 16.84375 23.6875 16.84375 23.6875 16.84375 C 23.882812 17.003906 24.171875 16.992188 24.351562 16.8125 L 26.476562 14.6875 C 26.605469 14.558594 26.648438 14.375 26.605469 14.210938 Z M 26.605469 14.210938 "/>
<path style=" stroke:none;fill-rule:nonzero;fill:url(#linear0);" d="M 4 2 L 28 2 C 29.105469 2 30 2.894531 30 4 L 30 28 C 30 29.105469 29.105469 30 28 30 L 4 30 C 2.894531 30 2 29.105469 2 28 L 2 4 C 2 2.894531 2.894531 2 4 2 Z M 4 2 "/>
</g>
</svg>
