
<svg xmlns="http://www.w3.org/2000/svg" xmlns:xlink="http://www.w3.org/1999/xlink" width="48" height="48" viewBox="0 0 48 48" version="1.1">
<defs>
<linearGradient id="linear0" gradientUnits="userSpaceOnUse" x1="32" y1="59.999996" x2="32" y2="4" gradientTransform="matrix(0.75,0,0,0.75,0,0.000000000000085265)">
<stop offset="0" style="stop-color:rgb(0%,0%,0%);stop-opacity:0.2;"/>
<stop offset="1" style="stop-color:rgb(100%,100%,100%);stop-opacity:0;"/>
</linearGradient>
</defs>
<g id="surface1">
<path style=" stroke:none;fill-rule:nonzero;fill:rgb(74.117649%,74.117649%,74.117649%);fill-opacity:1;" d="M 18 3 L 30 3 C 30.828125 3 31.5 3.671875 31.5 4.5 L 31.5 7.5 C 31.5 8.328125 30.828125 9 30 9 L 18 9 C 17.171875 9 16.5 8.328125 16.5 7.5 L 16.5 4.5 C 16.5 3.671875 17.171875 3 18 3 Z M 18 3 "/>
<path style=" stroke:none;fill-rule:nonzero;fill:rgb(87.843138%,87.843138%,87.843138%);fill-opacity:1;" d="M 15 6 L 33 6 C 34.65625 6 36 7.34375 36 9 L 36 42 C 36 43.65625 34.65625 45 33 45 L 15 45 C 13.34375 45 12 43.65625 12 42 L 12 9 C 12 7.34375 13.34375 6 15 6 Z M 15 6 "/>
<path style=" stroke:none;fill-rule:nonzero;fill:rgb(0.392157%,0.392157%,0.392157%);fill-opacity:0.2;" d="M 12 42 L 12 43.121094 C 12 44.785156 13.339844 46.121094 15 46.121094 L 33 46.121094 C 34.660156 46.121094 36 44.785156 36 43.121094 L 36 42 C 36 43.660156 34.660156 45 33 45 L 15 45 C 13.339844 45 12 43.660156 12 42 Z M 12 42 "/>
<path style=" stroke:none;fill-rule:nonzero;fill:rgb(0%,0%,0%);fill-opacity:0.4;" d="M 12 41.25 L 12 42 C 12 43.660156 13.339844 45 15 45 L 33 45 C 34.664062 45 36 43.660156 36 42 L 36 41.25 C 36 42.910156 34.664062 44.25 33 44.25 L 15 44.25 C 13.339844 44.25 12 42.910156 12 41.25 Z M 12 41.25 "/>
<path style=" stroke:none;fill-rule:nonzero;fill:rgb(100%,100%,100%);fill-opacity:0.6;" d="M 15 6 C 13.339844 6 12 7.339844 12 9 L 12 9.75 C 12 8.089844 13.339844 6.75 15 6.75 L 33 6.75 C 34.664062 6.75 36 8.089844 36 9.75 L 36 9 C 36 7.339844 34.664062 6 33 6 Z M 15 6 "/>
<path style=" stroke:none;fill-rule:nonzero;fill:rgb(100%,100%,100%);fill-opacity:0.4;" d="M 18 3 C 17.167969 3 16.5 3.667969 16.5 4.5 L 16.5 5.25 C 16.5 4.417969 17.167969 3.75 18 3.75 L 30 3.75 C 30.832031 3.75 31.5 4.417969 31.5 5.25 L 31.5 4.5 C 31.5 3.667969 30.832031 3 30 3 Z M 18 3 "/>
<path style=" stroke:none;fill-rule:nonzero;fill:rgb(40.000001%,73.333335%,41.568628%);fill-opacity:0.996078;" d="M 13.5 16.5 L 13.5 42 C 13.5 42.832031 14.167969 43.5 15 43.5 L 33 43.5 C 33.832031 43.5 34.5 42.832031 34.5 42 L 34.5 16.5 Z M 13.5 16.5 "/>
<path style=" stroke:none;fill-rule:nonzero;fill:rgb(74.117649%,74.117649%,74.117649%);fill-opacity:0.996078;" d="M 13.5 16.5 L 34.5 16.5 L 34.5 9 C 34.5 8.167969 33.832031 7.5 33 7.5 L 15 7.5 C 14.167969 7.5 13.5 8.167969 13.5 9 Z M 13.5 16.5 "/>
<path style=" stroke:none;fill-rule:nonzero;fill:rgb(61.960787%,61.960787%,61.960787%);fill-opacity:0.4;" d="M 13.5 16.5 L 34.5 16.5 L 34.5 9 C 34.5 8.167969 33.832031 7.5 33 7.5 L 15 7.5 C 14.167969 7.5 13.5 8.167969 13.5 9 Z M 13.5 16.5 "/>
<path style=" stroke:none;fill-rule:nonzero;fill:rgb(0%,0%,0%);fill-opacity:0.4;" d="M 15 7.5 C 14.167969 7.5 13.5 8.167969 13.5 9 L 13.5 9.375 C 13.5 8.542969 14.167969 7.875 15 7.875 L 33 7.875 C 33.832031 7.875 34.5 8.542969 34.5 9.375 L 34.5 9 C 34.5 8.167969 33.832031 7.5 33 7.5 Z M 15 7.5 "/>
<path style=" stroke:none;fill-rule:nonzero;fill:rgb(100%,100%,100%);fill-opacity:0.4;" d="M 13.5 42 L 13.5 42.375 C 13.5 43.207031 14.167969 43.875 15 43.875 L 33 43.875 C 33.832031 43.875 34.5 43.207031 34.5 42.375 L 34.5 42 C 34.5 42.832031 33.832031 43.5 33 43.5 L 15 43.5 C 14.167969 43.5 13.5 42.832031 13.5 42 Z M 13.5 42 "/>
<path style=" stroke:none;fill-rule:nonzero;fill:url(#linear0);" d="M 18 3 C 17.167969 3 16.5 3.667969 16.5 4.5 L 16.5 6 L 15 6 C 13.339844 6 12 7.339844 12 9 L 12 42 C 12 43.660156 13.339844 45 15 45 L 33 45 C 34.664062 45 36 43.660156 36 42 L 36 9 C 36 7.339844 34.664062 6 33 6 L 31.5 6 L 31.5 4.5 C 31.5 3.667969 30.832031 3 30 3 Z M 18 3 "/>
</g>
</svg>
