
<svg xmlns="http://www.w3.org/2000/svg" xmlns:xlink="http://www.w3.org/1999/xlink" width="16" height="16" viewBox="0 0 16 16" version="1.1">
<defs>
<linearGradient id="linear0" gradientUnits="userSpaceOnUse" x1="31.999998" y1="60" x2="31.999998" y2="4" gradientTransform="matrix(0.25,0,0,0.25,-0.000000680315,0)">
<stop offset="0" style="stop-color:rgb(0%,0%,0%);stop-opacity:0.2;"/>
<stop offset="1" style="stop-color:rgb(100%,100%,100%);stop-opacity:0;"/>
</linearGradient>
</defs>
<g id="surface1">
<path style=" stroke:none;fill-rule:nonzero;fill:rgb(14.901961%,77.64706%,85.490197%);fill-opacity:1;" d="M 10 1 L 3.25 1 C 2.835938 1 2.5 1.335938 2.5 1.75 L 2.5 14.25 C 2.5 14.664062 2.835938 15 3.25 15 L 12.75 15 C 13.164062 15 13.5 14.664062 13.5 14.25 L 13.5 4.5 Z M 10 1 "/>
<path style=" stroke:none;fill-rule:nonzero;fill:rgb(0%,0%,0%);fill-opacity:0.4;" d="M 10 3.75 L 10 4 C 10 4.414062 10.335938 4.75 10.75 4.75 L 13.5 4.75 L 13.25 4.5 L 10.75 4.5 C 10.335938 4.5 10 4.164062 10 3.75 Z M 10 3.75 "/>
<path style=" stroke:none;fill-rule:nonzero;fill:rgb(30.19608%,81.568629%,88.235295%);fill-opacity:0.996078;" d="M 13.5 4.5 L 10 1 L 10 3.75 C 10 4.164062 10.335938 4.5 10.75 4.5 Z M 13.5 4.5 "/>
<path style=" stroke:none;fill-rule:nonzero;fill:rgb(100%,100%,100%);fill-opacity:0.4;" d="M 3.25 1 C 2.835938 1 2.5 1.335938 2.5 1.75 L 2.5 2 C 2.5 1.585938 2.835938 1.25 3.25 1.25 L 10 1.25 L 13.5 4.75 L 13.5 4.5 L 10 1 Z M 3.25 1 "/>
<path style=" stroke:none;fill-rule:nonzero;fill:rgb(0%,0%,0%);fill-opacity:0.2;" d="M 2.5 14.246094 L 2.5 14.625 C 2.5 15.039062 2.835938 15.375 3.25 15.375 L 12.75 15.375 C 13.164062 15.375 13.5 15.039062 13.5 14.625 L 13.5 14.246094 C 13.5 14.660156 13.164062 14.996094 12.75 14.996094 L 3.25 14.996094 C 2.835938 14.996094 2.5 14.660156 2.5 14.246094 Z M 2.5 14.246094 "/>
<path style=" stroke:none;fill-rule:nonzero;fill:rgb(0%,0%,0%);fill-opacity:0.4;" d="M 2.5 14.03125 L 2.5 14.25 C 2.5 14.664062 2.835938 15 3.25 15 L 12.75 15 C 13.164062 15 13.5 14.664062 13.5 14.25 L 13.5 14.03125 C 13.5 14.445312 13.164062 14.78125 12.75 14.78125 L 3.25 14.78125 C 2.835938 14.78125 2.5 14.445312 2.5 14.03125 Z M 2.5 14.03125 "/>
<path style=" stroke:none;fill-rule:nonzero;fill:rgb(50.196081%,87.058824%,91.764706%);fill-opacity:1;" d="M 8.5 6 C 7.667969 6 7 6.667969 7 7.5 C 7 7.875 7.136719 8.214844 7.359375 8.476562 L 6.316406 10.28125 C 6.179688 10.519531 6.253906 10.824219 6.492188 10.957031 L 6.507812 10.96875 C 6.746094 11.105469 7.042969 11.019531 7.183594 10.78125 L 7.460938 10.796875 L 7.523438 10.6875 L 7.371094 10.457031 L 7.433594 10.347656 L 7.710938 10.363281 L 7.835938 10.148438 L 7.683594 9.914062 L 7.746094 9.804688 L 8.085938 9.714844 L 8.273438 9.390625 L 8.183594 9.050781 L 8.226562 8.976562 C 8.316406 8.992188 8.40625 9 8.5 9 C 9.332031 9 10 8.332031 10 7.5 C 10 6.667969 9.332031 6 8.5 6 Z M 8.738281 6.5 C 8.742188 6.5 8.746094 6.5 8.75 6.5 C 9.027344 6.5 9.25 6.722656 9.25 7 C 9.25 7.277344 9.027344 7.5 8.75 7.5 C 8.472656 7.5 8.25 7.277344 8.25 7 C 8.25 6.726562 8.464844 6.507812 8.738281 6.5 Z M 8.738281 6.5 "/>
<path style=" stroke:none;fill-rule:nonzero;fill:rgb(100%,100%,100%);fill-opacity:0.4;" d="M 8.5 6 C 7.667969 6 7 6.667969 7 7.5 C 7 7.515625 7 7.53125 7 7.546875 C 7.042969 6.75 7.695312 6.125 8.5 6.125 C 9.308594 6.125 9.964844 6.757812 10 7.558594 C 10 7.539062 10 7.519531 10 7.5 C 10 6.667969 9.332031 6 8.5 6 Z M 8.253906 7.0625 C 8.25 7.082031 8.25 7.101562 8.25 7.125 C 8.25 7.402344 8.472656 7.625 8.75 7.625 C 9.027344 7.625 9.25 7.402344 9.25 7.125 C 9.25 7.101562 9.25 7.082031 9.246094 7.0625 C 9.214844 7.308594 9.007812 7.5 8.75 7.5 C 8.492188 7.5 8.285156 7.308594 8.253906 7.0625 Z M 7.316406 8.550781 L 6.316406 10.28125 C 6.257812 10.382812 6.238281 10.492188 6.253906 10.597656 C 6.261719 10.53125 6.28125 10.46875 6.316406 10.40625 L 7.359375 8.601562 C 7.34375 8.585938 7.332031 8.566406 7.316406 8.550781 Z M 8.207031 9.132812 L 8.183594 9.175781 L 8.25 9.429688 L 8.273438 9.390625 Z M 7.722656 9.972656 L 7.683594 10.039062 L 7.796875 10.214844 L 7.835938 10.148438 Z M 7.410156 10.515625 L 7.371094 10.582031 L 7.484375 10.757812 L 7.523438 10.6875 Z M 7.410156 10.515625 "/>
<path style=" stroke:none;fill-rule:nonzero;fill:rgb(0%,0%,0%);fill-opacity:0.4;" d="M 8.738281 6.5 C 8.464844 6.507812 8.25 6.726562 8.25 7 C 8.25 7.019531 8.25 7.042969 8.253906 7.0625 C 8.285156 6.820312 8.488281 6.632812 8.738281 6.625 C 8.742188 6.625 8.746094 6.625 8.75 6.625 C 9.003906 6.625 9.214844 6.816406 9.246094 7.0625 C 9.25 7.042969 9.25 7.019531 9.25 7 C 9.25 6.722656 9.027344 6.5 8.75 6.5 C 8.746094 6.5 8.742188 6.5 8.738281 6.5 Z M 10 7.5625 C 9.964844 8.363281 9.308594 9 8.5 9 C 8.40625 9 8.316406 8.992188 8.226562 8.976562 L 8.183594 9.050781 L 8.207031 9.132812 L 8.226562 9.101562 C 8.316406 9.117188 8.40625 9.125 8.5 9.125 C 9.332031 9.125 10 8.457031 10 7.625 C 10 7.605469 10 7.582031 10 7.5625 Z M 7 7.5625 C 7 7.582031 7 7.605469 7 7.625 C 7 7.972656 7.117188 8.296875 7.316406 8.550781 L 7.359375 8.476562 C 7.148438 8.230469 7.015625 7.910156 7 7.5625 Z M 8.25 9.429688 L 8.085938 9.714844 L 7.746094 9.804688 L 7.683594 9.914062 L 7.722656 9.972656 L 7.746094 9.929688 L 8.085938 9.839844 L 8.273438 9.515625 Z M 7.796875 10.214844 L 7.710938 10.363281 L 7.433594 10.347656 L 7.371094 10.457031 L 7.410156 10.515625 L 7.433594 10.472656 L 7.710938 10.488281 L 7.835938 10.273438 Z M 6.25 10.597656 C 6.226562 10.789062 6.316406 10.984375 6.492188 11.082031 L 6.507812 11.09375 C 6.746094 11.230469 7.042969 11.144531 7.183594 10.90625 L 7.460938 10.921875 L 7.523438 10.8125 L 7.484375 10.757812 L 7.460938 10.796875 L 7.183594 10.78125 C 7.042969 11.019531 6.746094 11.105469 6.507812 10.96875 L 6.492188 10.957031 C 6.355469 10.878906 6.269531 10.746094 6.25 10.597656 Z M 6.25 10.597656 "/>
<path style=" stroke:none;fill-rule:nonzero;fill:url(#linear0);" d="M 10 1 L 3.25 1 C 2.835938 1 2.5 1.335938 2.5 1.75 L 2.5 14.25 C 2.5 14.664062 2.835938 15 3.25 15 L 12.75 15 C 13.164062 15 13.5 14.664062 13.5 14.25 L 13.5 4.5 Z M 10 1 "/>
</g>
</svg>
