
<svg xmlns="http://www.w3.org/2000/svg" xmlns:xlink="http://www.w3.org/1999/xlink" width="48" height="48" viewBox="0 0 48 48" version="1.1">
<defs>
<linearGradient id="linear0" gradientUnits="userSpaceOnUse" x1="10.054166" y1="-199.125" x2="10.054166" y2="-213.941666" gradientTransform="matrix(2.834646,0,0,2.834646,-0.000948433,609.448851)">
<stop offset="0" style="stop-color:rgb(0%,0%,0%);stop-opacity:0.2;"/>
<stop offset="1" style="stop-color:rgb(100%,100%,100%);stop-opacity:0;"/>
</linearGradient>
</defs>
<g id="surface1">
<path style=" stroke:none;fill-rule:nonzero;fill:rgb(38.039216%,38.039216%,38.039216%);fill-opacity:1;" d="M 6 3 L 42 3 C 43.65625 3 45 4.34375 45 6 L 45 42 C 45 43.65625 43.65625 45 42 45 L 6 45 C 4.34375 45 3 43.65625 3 42 L 3 6 C 3 4.34375 4.34375 3 6 3 Z M 6 3 "/>
<path style=" stroke:none;fill-rule:nonzero;fill:rgb(0%,0%,0%);fill-opacity:0.4;" d="M 3 41.25 L 3 42 C 3 43.660156 4.339844 45 6 45 L 42 45 C 43.660156 45 45 43.660156 45 42 L 45 41.25 C 45 42.910156 43.660156 44.25 42 44.25 L 6 44.25 C 4.339844 44.25 3 42.910156 3 41.25 Z M 3 41.25 "/>
<path style=" stroke:none;fill-rule:nonzero;fill:rgb(0%,0%,0%);fill-opacity:0.2;" d="M 3 42 L 3 43.125 C 3 44.785156 4.339844 46.125 6 46.125 L 42 46.125 C 43.660156 46.125 45 44.785156 45 43.125 L 45 42 C 45 43.660156 43.660156 45 42 45 L 6 45 C 4.339844 45 3 43.660156 3 42 Z M 3 42 "/>
<path style=" stroke:none;fill-rule:nonzero;fill:rgb(100%,100%,100%);fill-opacity:0.4;" d="M 6 3 C 4.339844 3 3 4.339844 3 6 L 3 6.738281 C 3 5.078125 4.339844 3.738281 6 3.738281 L 42 3.738281 C 43.660156 3.738281 45 5.078125 45 6.738281 L 45 6 C 45 4.339844 43.660156 3 42 3 Z M 6 3 "/>
<path style=" stroke:none;fill-rule:nonzero;fill:rgb(87.843138%,87.843138%,87.843138%);fill-opacity:1;" d="M 19.402344 10.5 C 18.910156 10.507812 18.433594 10.558594 17.96875 10.65625 L 17.46875 13.15625 C 17.054688 13.328125 16.667969 13.550781 16.316406 13.816406 L 13.902344 13.003906 C 13.570312 13.378906 13.265625 13.796875 13.003906 14.25 C 12.742188 14.703125 12.53125 15.175781 12.375 15.652344 L 14.292969 17.339844 C 14.265625 17.554688 14.25 17.777344 14.25 18 C 14.25 18.222656 14.265625 18.445312 14.292969 18.664062 L 12.375 20.347656 C 12.53125 20.824219 12.742188 21.296875 13.003906 21.75 C 13.265625 22.203125 13.570312 22.621094 13.90625 23 L 16.320312 22.183594 C 16.671875 22.449219 17.054688 22.671875 17.46875 22.847656 L 17.96875 25.34375 C 18.464844 25.445312 18.976562 25.5 19.5 25.5 C 20.023438 25.5 20.535156 25.445312 21.03125 25.34375 L 21.53125 22.847656 C 21.945312 22.671875 22.332031 22.449219 22.683594 22.183594 L 25.097656 23 C 25.429688 22.621094 25.734375 22.203125 25.996094 21.75 C 26.257812 21.296875 26.46875 20.824219 26.625 20.347656 L 24.707031 18.664062 C 24.734375 18.445312 24.75 18.222656 24.75 18 C 24.75 17.777344 24.734375 17.554688 24.707031 17.339844 L 26.625 15.652344 C 26.46875 15.175781 26.257812 14.703125 25.996094 14.25 C 25.734375 13.796875 25.429688 13.378906 25.097656 13.003906 L 22.683594 13.816406 C 22.332031 13.550781 21.945312 13.328125 21.53125 13.15625 L 21.03125 10.65625 C 20.535156 10.554688 20.023438 10.5 19.5 10.5 C 19.46875 10.5 19.433594 10.5 19.402344 10.5 Z M 19.5 15 C 21.160156 15 22.5 16.339844 22.5 18 C 22.5 19.660156 21.160156 21 19.5 21 C 17.839844 21 16.5 19.660156 16.5 18 C 16.5 16.339844 17.839844 15 19.5 15 Z M 19.5 15 "/>
<path style=" stroke:none;fill-rule:nonzero;fill:rgb(100%,100%,100%);fill-opacity:0.8;" d="M 19.402344 10.5 C 18.910156 10.503906 18.433594 10.558594 17.96875 10.65625 L 17.46875 13.15625 C 17.054688 13.328125 16.667969 13.550781 16.316406 13.816406 L 13.902344 13.003906 C 13.570312 13.378906 13.265625 13.796875 13.003906 14.25 C 12.742188 14.703125 12.53125 15.175781 12.375 15.652344 L 12.539062 15.800781 C 12.671875 15.476562 12.824219 15.15625 13.003906 14.84375 C 13.265625 14.390625 13.570312 13.972656 13.902344 13.597656 L 16.316406 14.414062 C 16.667969 14.144531 17.054688 13.921875 17.46875 13.75 L 17.96875 11.25 C 18.433594 11.15625 18.910156 11.101562 19.402344 11.09375 C 19.433594 11.09375 19.46875 11.09375 19.5 11.09375 C 20.023438 11.09375 20.535156 11.148438 21.03125 11.25 L 21.53125 13.75 C 21.945312 13.921875 22.332031 14.144531 22.683594 14.414062 L 25.097656 13.597656 C 25.429688 13.972656 25.734375 14.390625 25.996094 14.84375 C 26.175781 15.15625 26.328125 15.476562 26.460938 15.800781 L 26.625 15.652344 C 26.46875 15.175781 26.257812 14.703125 25.996094 14.25 C 25.734375 13.796875 25.429688 13.378906 25.097656 13.003906 L 22.683594 13.816406 C 22.332031 13.550781 21.945312 13.328125 21.53125 13.15625 L 21.03125 10.65625 C 20.535156 10.554688 20.023438 10.5 19.5 10.5 C 19.46875 10.5 19.433594 10.5 19.402344 10.5 Z M 14.25 17.898438 C 14.25 17.933594 14.25 17.964844 14.25 18 C 14.25 18.101562 14.253906 18.199219 14.257812 18.296875 C 14.265625 18.175781 14.277344 18.054688 14.292969 17.933594 Z M 24.75 17.898438 L 24.710938 17.933594 C 24.722656 18.054688 24.734375 18.175781 24.742188 18.296875 C 24.746094 18.199219 24.75 18.101562 24.75 18 C 24.75 17.964844 24.75 17.933594 24.75 17.898438 Z M 16.515625 18.296875 C 16.503906 18.394531 16.5 18.496094 16.5 18.59375 C 16.5 20.257812 17.839844 21.59375 19.5 21.59375 C 21.160156 21.59375 22.5 20.257812 22.5 18.59375 C 22.5 18.496094 22.496094 18.394531 22.484375 18.296875 C 22.335938 19.820312 21.0625 21 19.5 21 C 17.9375 21 16.664062 19.820312 16.515625 18.296875 Z M 14.25 18.699219 L 12.375 20.347656 C 12.421875 20.496094 12.480469 20.648438 12.539062 20.796875 L 14.292969 19.257812 C 14.269531 19.074219 14.253906 18.886719 14.25 18.699219 Z M 24.75 18.699219 C 24.746094 18.886719 24.730469 19.074219 24.710938 19.257812 L 26.460938 20.796875 C 26.519531 20.648438 26.578125 20.496094 26.625 20.347656 Z M 24.75 18.699219 "/>
<path style=" stroke:none;fill-rule:nonzero;fill:rgb(0%,0%,0%);fill-opacity:0.4;" d="M 19.5 15 C 17.839844 15 16.5 16.339844 16.5 18 C 16.5 18.105469 16.507812 18.210938 16.519531 18.3125 C 16.671875 16.800781 17.945312 15.628906 19.5 15.628906 C 21.054688 15.628906 22.328125 16.800781 22.484375 18.3125 C 22.492188 18.210938 22.5 18.105469 22.5 18 C 22.5 16.339844 21.160156 15 19.5 15 Z M 12.550781 15.808594 C 12.488281 15.964844 12.425781 16.121094 12.375 16.28125 L 14.25 17.929688 C 14.253906 17.730469 14.265625 17.53125 14.289062 17.339844 Z M 26.449219 15.808594 L 24.707031 17.339844 C 24.734375 17.53125 24.746094 17.730469 24.75 17.929688 L 26.625 16.28125 C 26.574219 16.121094 26.511719 15.964844 26.449219 15.808594 Z M 14.261719 18.3125 C 14.253906 18.417969 14.25 18.523438 14.25 18.628906 C 14.25 18.648438 14.25 18.671875 14.25 18.695312 L 14.292969 18.664062 C 14.277344 18.546875 14.265625 18.429688 14.261719 18.3125 Z M 24.738281 18.3125 C 24.734375 18.429688 24.722656 18.546875 24.707031 18.664062 L 24.75 18.695312 C 24.75 18.671875 24.75 18.648438 24.75 18.628906 C 24.75 18.523438 24.746094 18.417969 24.738281 18.3125 Z M 12.550781 20.820312 L 12.375 20.972656 C 12.53125 21.453125 12.742188 21.921875 13.003906 22.378906 C 13.265625 22.832031 13.570312 23.246094 13.902344 23.625 L 16.316406 22.808594 C 16.667969 23.078125 17.054688 23.300781 17.46875 23.472656 L 17.96875 25.972656 C 18.464844 26.074219 18.976562 26.128906 19.5 26.128906 C 20.023438 26.128906 20.535156 26.074219 21.03125 25.972656 L 21.53125 23.472656 C 21.945312 23.300781 22.332031 23.078125 22.683594 22.808594 L 25.097656 23.625 C 25.429688 23.246094 25.734375 22.832031 25.996094 22.378906 C 26.257812 21.921875 26.46875 21.453125 26.625 20.972656 L 26.449219 20.820312 C 26.320312 21.132812 26.171875 21.445312 25.996094 21.75 C 25.734375 22.203125 25.429688 22.621094 25.097656 23 L 22.683594 22.183594 C 22.332031 22.449219 21.945312 22.671875 21.53125 22.847656 L 21.03125 25.34375 C 20.535156 25.445312 20.023438 25.5 19.5 25.5 C 18.976562 25.5 18.464844 25.445312 17.96875 25.34375 L 17.46875 22.847656 C 17.054688 22.671875 16.667969 22.449219 16.316406 22.183594 L 13.902344 23 C 13.570312 22.621094 13.265625 22.203125 13.003906 21.75 C 12.828125 21.445312 12.679688 21.132812 12.550781 20.820312 Z M 12.550781 20.820312 "/>
<path style=" stroke:none;fill-rule:nonzero;fill:rgb(87.843138%,87.843138%,87.843138%);fill-opacity:1;" d="M 29.902344 21 C 29.410156 21.007812 28.933594 21.058594 28.46875 21.15625 L 27.96875 23.652344 C 27.554688 23.828125 27.167969 24.050781 26.816406 24.316406 L 24.402344 23.5 C 24.070312 23.878906 23.765625 24.296875 23.503906 24.75 C 23.242188 25.203125 23.03125 25.675781 22.875 26.152344 L 24.789062 27.835938 C 24.765625 28.054688 24.75 28.277344 24.75 28.5 C 24.75 28.722656 24.765625 28.945312 24.792969 29.160156 L 22.875 30.847656 C 23.03125 31.324219 23.242188 31.796875 23.503906 32.25 C 23.765625 32.703125 24.070312 33.121094 24.40625 33.496094 L 26.820312 32.683594 C 27.171875 32.949219 27.554688 33.171875 27.96875 33.34375 L 28.46875 35.84375 C 28.964844 35.945312 29.476562 36 30 36 C 30.523438 36 31.035156 35.945312 31.53125 35.84375 L 32.03125 33.34375 C 32.445312 33.171875 32.828125 32.949219 33.179688 32.683594 L 35.59375 33.496094 C 35.929688 33.121094 36.234375 32.703125 36.496094 32.25 C 36.757812 31.796875 36.96875 31.324219 37.125 30.847656 L 35.207031 29.160156 C 35.234375 28.945312 35.25 28.722656 35.25 28.5 C 35.25 28.277344 35.234375 28.054688 35.207031 27.835938 L 37.125 26.152344 C 36.96875 25.675781 36.757812 25.203125 36.496094 24.75 C 36.234375 24.296875 35.929688 23.878906 35.59375 23.5 L 33.179688 24.316406 C 32.828125 24.050781 32.445312 23.828125 32.03125 23.652344 L 31.53125 21.15625 C 31.035156 21.054688 30.523438 21 30 21 C 29.96875 21 29.933594 21 29.902344 21 Z M 30 25.5 C 31.660156 25.5 33 26.839844 33 28.5 C 33 30.160156 31.660156 31.5 30 31.5 C 28.339844 31.5 27 30.160156 27 28.5 C 27 26.839844 28.339844 25.5 30 25.5 Z M 30 25.5 "/>
<path style=" stroke:none;fill-rule:nonzero;fill:rgb(100%,100%,100%);fill-opacity:0.8;" d="M 29.902344 21 C 29.410156 21.003906 28.933594 21.058594 28.46875 21.15625 L 27.96875 23.652344 C 27.554688 23.828125 27.167969 24.050781 26.816406 24.316406 L 24.402344 23.5 C 24.070312 23.878906 23.765625 24.296875 23.503906 24.75 C 23.242188 25.203125 23.03125 25.675781 22.875 26.152344 L 23.039062 26.300781 C 23.171875 25.976562 23.324219 25.65625 23.503906 25.34375 C 23.765625 24.890625 24.070312 24.472656 24.402344 24.097656 L 26.816406 24.914062 C 27.167969 24.644531 27.554688 24.421875 27.96875 24.25 L 28.46875 21.75 C 28.933594 21.65625 29.410156 21.601562 29.902344 21.59375 C 29.933594 21.59375 29.96875 21.59375 30 21.59375 C 30.523438 21.59375 31.035156 21.648438 31.53125 21.75 L 32.03125 24.25 C 32.445312 24.421875 32.828125 24.644531 33.179688 24.914062 L 35.59375 24.097656 C 35.929688 24.472656 36.234375 24.890625 36.496094 25.34375 C 36.675781 25.65625 36.828125 25.976562 36.960938 26.300781 L 37.125 26.152344 C 36.96875 25.675781 36.757812 25.203125 36.496094 24.75 C 36.234375 24.296875 35.929688 23.878906 35.59375 23.5 L 33.179688 24.316406 C 32.828125 24.050781 32.445312 23.828125 32.03125 23.652344 L 31.53125 21.15625 C 31.035156 21.054688 30.523438 21 30 21 C 29.96875 21 29.933594 21 29.902344 21 Z M 24.75 28.398438 C 24.75 28.433594 24.75 28.464844 24.75 28.5 C 24.75 28.601562 24.753906 28.699219 24.757812 28.796875 C 24.765625 28.675781 24.777344 28.554688 24.792969 28.433594 Z M 35.25 28.398438 L 35.210938 28.433594 C 35.222656 28.554688 35.234375 28.675781 35.242188 28.796875 C 35.246094 28.699219 35.25 28.601562 35.25 28.5 C 35.25 28.464844 35.25 28.433594 35.25 28.398438 Z M 27.015625 28.796875 C 27.003906 28.894531 27 28.996094 27 29.09375 C 27 30.757812 28.339844 32.09375 30 32.09375 C 31.660156 32.09375 33 30.757812 33 29.09375 C 33 28.996094 32.996094 28.894531 32.984375 28.796875 C 32.835938 30.320312 31.5625 31.5 30 31.5 C 28.4375 31.5 27.164062 30.320312 27.015625 28.796875 Z M 24.75 29.195312 L 22.875 30.847656 C 22.921875 30.996094 22.980469 31.148438 23.039062 31.292969 L 24.789062 29.757812 C 24.769531 29.574219 24.753906 29.386719 24.75 29.195312 Z M 35.25 29.195312 C 35.246094 29.386719 35.230469 29.574219 35.210938 29.757812 L 36.960938 31.292969 C 37.019531 31.148438 37.078125 30.996094 37.125 30.847656 Z M 35.25 29.195312 "/>
<path style=" stroke:none;fill-rule:nonzero;fill:rgb(0%,0%,0%);fill-opacity:0.4;" d="M 30 25.5 C 28.339844 25.5 27 26.839844 27 28.5 C 27 28.605469 27.007812 28.710938 27.019531 28.8125 C 27.171875 27.300781 28.445312 26.125 30 26.125 C 31.554688 26.125 32.828125 27.300781 32.984375 28.8125 C 32.992188 28.710938 33 28.605469 33 28.5 C 33 26.839844 31.660156 25.5 30 25.5 Z M 23.050781 26.308594 C 22.988281 26.464844 22.925781 26.621094 22.875 26.78125 L 24.75 28.429688 C 24.753906 28.230469 24.765625 28.03125 24.789062 27.835938 Z M 36.949219 26.308594 L 35.207031 27.835938 C 35.234375 28.03125 35.246094 28.230469 35.25 28.429688 L 37.125 26.78125 C 37.074219 26.621094 37.011719 26.464844 36.949219 26.308594 Z M 24.761719 28.8125 C 24.753906 28.917969 24.75 29.023438 24.75 29.125 C 24.75 29.148438 24.75 29.171875 24.75 29.195312 L 24.792969 29.160156 C 24.777344 29.046875 24.765625 28.929688 24.761719 28.8125 Z M 35.238281 28.8125 C 35.234375 28.929688 35.222656 29.046875 35.207031 29.160156 L 35.25 29.195312 C 35.25 29.171875 35.25 29.148438 35.25 29.125 C 35.25 29.023438 35.246094 28.917969 35.238281 28.8125 Z M 23.050781 31.316406 L 22.875 31.472656 C 23.03125 31.953125 23.242188 32.421875 23.503906 32.875 C 23.765625 33.332031 24.070312 33.746094 24.402344 34.125 L 26.816406 33.308594 C 27.167969 33.578125 27.554688 33.800781 27.96875 33.972656 L 28.46875 36.472656 C 28.964844 36.574219 29.476562 36.625 30 36.625 C 30.523438 36.625 31.035156 36.574219 31.53125 36.472656 L 32.03125 33.972656 C 32.445312 33.800781 32.828125 33.578125 33.179688 33.308594 L 35.59375 34.125 C 35.929688 33.746094 36.234375 33.332031 36.496094 32.875 C 36.757812 32.421875 36.96875 31.953125 37.125 31.472656 L 36.949219 31.316406 C 36.820312 31.632812 36.671875 31.945312 36.496094 32.25 C 36.234375 32.703125 35.929688 33.121094 35.59375 33.496094 L 33.179688 32.683594 C 32.828125 32.949219 32.445312 33.171875 32.03125 33.34375 L 31.53125 35.84375 C 31.035156 35.945312 30.523438 36 30 36 C 29.476562 36 28.964844 35.945312 28.46875 35.84375 L 27.96875 33.34375 C 27.554688 33.171875 27.167969 32.949219 26.816406 32.683594 L 24.402344 33.496094 C 24.070312 33.121094 23.765625 32.703125 23.503906 32.25 C 23.328125 31.945312 23.179688 31.632812 23.050781 31.316406 Z M 23.050781 31.316406 "/>
<path style=" stroke:none;fill-rule:nonzero;fill:url(#linear0);" d="M 6 3 L 42 3 C 43.65625 3 45 4.34375 45 6 L 45 42 C 45 43.65625 43.65625 45 42 45 L 6 45 C 4.34375 45 3 43.65625 3 42 L 3 6 C 3 4.34375 4.34375 3 6 3 Z M 6 3 "/>
</g>
</svg>
