
<svg xmlns="http://www.w3.org/2000/svg" xmlns:xlink="http://www.w3.org/1999/xlink" width="32" height="32" viewBox="0 0 32 32" version="1.1">
<defs>
<linearGradient id="linear0" gradientUnits="userSpaceOnUse" x1="31.999998" y1="59.999996" x2="31.999998" y2="4" gradientTransform="matrix(0.5,0,0,0.5,0,0)">
<stop offset="0" style="stop-color:rgb(0%,0%,0%);stop-opacity:0.2;"/>
<stop offset="1" style="stop-color:rgb(100%,100%,100%);stop-opacity:0;"/>
</linearGradient>
</defs>
<g id="surface1">
<path style=" stroke:none;fill-rule:nonzero;fill:rgb(0%,0%,0%);fill-opacity:0.2;" d="M 23.988281 2.761719 C 23.988281 2.773438 23.988281 2.78125 23.992188 2.792969 C 23.992188 2.78125 23.992188 2.773438 23.992188 2.761719 C 23.992188 2.761719 23.988281 2.761719 23.988281 2.761719 Z M 29.992188 12.785156 C 29.796875 19.257812 24.523438 24.410156 18 24.410156 C 13.960938 24.410156 9.753906 22.769531 7.796875 20.585938 C 6.839844 20.628906 5.730469 20.355469 4.683594 19.75 C 3.183594 18.882812 2.210938 17.578125 2.03125 16.378906 C 1.8125 17.75 2.859375 19.457031 4.683594 20.511719 C 5.730469 21.117188 6.839844 21.390625 7.796875 21.351562 C 9.753906 23.53125 13.960938 25.171875 18 25.171875 C 24.648438 25.171875 30 19.820312 30 13.171875 C 30 13.042969 30 12.914062 29.992188 12.785156 Z M 29.992188 12.785156 "/>
<path style=" stroke:none;fill-rule:nonzero;fill:rgb(55.29412%,43.137255%,38.82353%);fill-opacity:1;" d="M 23.988281 2 C 23.996094 2.136719 24 2.273438 24 2.410156 C 24 6.84375 20.433594 10.410156 16 10.410156 C 12.515625 10.410156 11.101562 8.207031 10 5.109375 C 9.535156 8.109375 8.566406 14.625 7.472656 15.972656 C 4.238281 19.964844 11.351562 24.410156 18 24.410156 C 24.648438 24.410156 30 19.058594 30 12.410156 C 30 7.949219 27.585938 4.066406 23.988281 2 Z M 23.988281 2 "/>
<path style=" stroke:none;fill-rule:nonzero;fill:rgb(0%,0%,0%);fill-opacity:0.4;" d="M 23.988281 2 C 23.992188 2.058594 23.996094 2.117188 23.996094 2.175781 C 23.996094 2.121094 24 2.0625 24 2.007812 C 23.996094 2.003906 23.992188 2 23.988281 2 Z M 29.996094 12.207031 C 29.855469 18.730469 24.558594 23.9375 18 23.9375 C 12.625 23.9375 6.945312 21.03125 6.679688 17.808594 C 6.390625 21.214844 12.363281 24.410156 18 24.410156 C 24.648438 24.410156 30 19.058594 30 12.410156 C 30 12.34375 30 12.273438 29.996094 12.207031 Z M 29.996094 12.207031 "/>
<path style=" stroke:none;fill-rule:nonzero;fill:rgb(100%,100%,100%);fill-opacity:0.4;" d="M 23.988281 2 C 23.996094 2.136719 24 2.273438 24 2.410156 C 24 2.441406 24 2.472656 24 2.507812 C 27.53125 4.542969 29.917969 8.324219 29.996094 12.695312 C 30 12.601562 30 12.507812 30 12.410156 C 30 7.949219 27.585938 4.066406 23.988281 2 Z M 23.996094 2.664062 C 23.863281 6.976562 20.347656 10.410156 16 10.410156 C 12.515625 10.410156 11.101562 8.207031 10 5.109375 C 9.535156 8.109375 8.566406 14.625 7.472656 15.972656 C 6.851562 16.742188 6.613281 17.527344 6.679688 18.296875 C 6.734375 17.6875 6.984375 17.074219 7.472656 16.472656 C 8.566406 15.125 9.535156 8.609375 10 5.609375 C 11.101562 8.707031 12.515625 10.910156 16 10.910156 C 20.433594 10.910156 24 7.34375 24 2.910156 C 24 2.828125 23.996094 2.746094 23.996094 2.664062 Z M 23.996094 2.664062 "/>
<path style=" stroke:none;fill-rule:nonzero;fill:rgb(38.039216%,38.039216%,38.039216%);fill-opacity:1;" d="M 7.683594 14.554688 C 9.835938 15.796875 10.90625 17.96875 10.078125 19.402344 C 9.25 20.835938 6.835938 20.992188 4.683594 19.75 C 2.53125 18.507812 1.457031 16.335938 2.285156 14.902344 C 3.113281 13.46875 5.53125 13.3125 7.683594 14.554688 Z M 7.683594 14.554688 "/>
<path style=" stroke:none;fill-rule:nonzero;fill:rgb(87.843138%,87.843138%,87.843138%);fill-opacity:1;" d="M 11 10 C 12.65625 10 14 11.34375 14 13 C 14 14.65625 12.65625 16 11 16 C 9.34375 16 8 14.65625 8 13 C 8 11.34375 9.34375 10 11 10 Z M 11 10 "/>
<path style=" stroke:none;fill-rule:nonzero;fill:rgb(87.843138%,87.843138%,87.843138%);fill-opacity:1;" d="M 16.5 9 C 18.433594 9 20 10.566406 20 12.5 C 20 14.433594 18.433594 16 16.5 16 C 14.566406 16 13 14.433594 13 12.5 C 13 10.566406 14.566406 9 16.5 9 Z M 16.5 9 "/>
<path style=" stroke:none;fill-rule:nonzero;fill:rgb(38.039216%,38.039216%,38.039216%);fill-opacity:1;" d="M 11.75 12 C 12.714844 12 13.5 12.785156 13.5 13.75 C 13.5 14.714844 12.714844 15.5 11.75 15.5 C 10.785156 15.5 10 14.714844 10 13.75 C 10 12.785156 10.785156 12 11.75 12 Z M 11.75 12 "/>
<path style=" stroke:none;fill-rule:nonzero;fill:rgb(38.039216%,38.039216%,38.039216%);fill-opacity:1;" d="M 17.25 12 C 18.214844 12 19 12.785156 19 13.75 C 19 14.714844 18.214844 15.5 17.25 15.5 C 16.285156 15.5 15.5 14.714844 15.5 13.75 C 15.5 12.785156 16.285156 12 17.25 12 Z M 17.25 12 "/>
<path style=" stroke:none;fill-rule:nonzero;fill:rgb(87.843138%,87.843138%,87.843138%);fill-opacity:1;" d="M 16.5 12.5 C 16.777344 12.5 17 12.722656 17 13 C 17 13.277344 16.777344 13.5 16.5 13.5 C 16.222656 13.5 16 13.277344 16 13 C 16 12.722656 16.222656 12.5 16.5 12.5 Z M 16.5 12.5 "/>
<path style=" stroke:none;fill-rule:nonzero;fill:rgb(87.843138%,87.843138%,87.843138%);fill-opacity:1;" d="M 11 12.5 C 11.277344 12.5 11.5 12.722656 11.5 13 C 11.5 13.277344 11.277344 13.5 11 13.5 C 10.722656 13.5 10.5 13.277344 10.5 13 C 10.5 12.722656 10.722656 12.5 11 12.5 Z M 11 12.5 "/>
<path style=" stroke:none;fill-rule:nonzero;fill:rgb(61.960787%,61.960787%,61.960787%);fill-opacity:1;" d="M 3.304688 14.5 C 3.6875 14.5 4 15.003906 4 15.625 C 4 16.246094 3.6875 16.75 3.304688 16.75 C 2.921875 16.75 2.609375 16.246094 2.609375 15.625 C 2.609375 15.003906 2.921875 14.5 3.304688 14.5 Z M 3.304688 14.5 "/>
<path style=" stroke:none;fill-rule:nonzero;fill:rgb(100%,100%,100%);fill-opacity:0.4;" d="M 4.765625 13.710938 C 3.664062 13.710938 2.738281 14.113281 2.285156 14.902344 C 2.074219 15.265625 1.988281 15.679688 2.007812 16.109375 C 2.027344 15.769531 2.117188 15.449219 2.285156 15.15625 C 3.117188 13.71875 5.523438 13.5625 7.683594 14.808594 C 9.289062 15.738281 10.292969 17.171875 10.359375 18.441406 C 10.425781 17.113281 9.398438 15.542969 7.683594 14.554688 C 6.703125 13.988281 5.675781 13.710938 4.765625 13.710938 Z M 4.765625 13.710938 "/>
<path style=" stroke:none;fill-rule:nonzero;fill:rgb(0%,0%,0%);fill-opacity:0.4;" d="M 2.007812 15.859375 C 1.933594 17.183594 2.964844 18.757812 4.683594 19.75 C 6.839844 20.996094 9.25 20.839844 10.078125 19.402344 C 10.289062 19.035156 10.378906 18.621094 10.359375 18.1875 C 10.339844 18.53125 10.25 18.855469 10.078125 19.152344 C 9.25 20.589844 6.839844 20.746094 4.683594 19.5 C 3.070312 18.570312 2.066406 17.128906 2.007812 15.859375 Z M 2.007812 15.859375 "/>
<path style=" stroke:none;fill-rule:nonzero;fill:rgb(100%,100%,100%);fill-opacity:0.8;" d="M 16.5 9 C 15.070312 9 13.847656 9.847656 13.300781 11.070312 C 12.753906 10.417969 11.925781 10 11 10 C 9.339844 10 8 11.339844 8 13 C 8 13.082031 8.003906 13.164062 8.011719 13.246094 C 8.140625 11.703125 9.425781 10.5 11 10.5 C 11.925781 10.5 12.753906 10.917969 13.300781 11.570312 C 13.847656 10.347656 15.070312 9.5 16.5 9.5 C 18.351562 9.5 19.859375 10.921875 19.992188 12.742188 C 19.996094 12.660156 20 12.582031 20 12.5 C 20 10.5625 18.4375 9 16.5 9 Z M 16.5 9 "/>
<path style=" stroke:none;fill-rule:nonzero;fill:rgb(0%,0%,0%);fill-opacity:0.4;" d="M 19.992188 12.757812 C 19.859375 14.574219 18.351562 16 16.5 16 C 15.296875 16 14.242188 15.398438 13.609375 14.480469 C 13.097656 15.386719 12.121094 16 11 16 C 9.425781 16 8.144531 14.796875 8.011719 13.257812 C 8.003906 13.34375 8 13.429688 8 13.519531 C 8 15.179688 9.339844 16.519531 11 16.519531 C 12.121094 16.519531 13.097656 15.90625 13.609375 15 C 14.242188 15.917969 15.296875 16.519531 16.5 16.519531 C 18.4375 16.519531 20 14.957031 20 13.019531 C 20 12.929688 19.996094 12.84375 19.992188 12.757812 Z M 19.992188 12.757812 "/>
<path style=" stroke:none;fill-rule:nonzero;fill:rgb(42.745098%,29.803923%,25.490198%);fill-opacity:1;" d="M 16.75 20.5 C 20.75 20.5 22.027344 19.109375 22.75 18.5 C 23.75 22.5 20.75 21.5 16.75 20.5 Z M 16.75 20.5 "/>
<path style=" stroke:none;fill-rule:nonzero;fill:rgb(100%,65.490198%,14.901961%);fill-opacity:1;" d="M 23.578125 23.648438 C 22.402344 22.867188 21.449219 21.894531 20.691406 20.757812 C 20.546875 20.324219 21.410156 19.460938 21.84375 19.605469 C 22.992188 20.371094 23.957031 21.328125 24.734375 22.492188 Z M 23.578125 23.648438 "/>
<path style=" stroke:none;fill-rule:nonzero;fill:rgb(74.117649%,74.117649%,74.117649%);fill-opacity:1;" d="M 25.886719 25.957031 C 25.308594 25.378906 23 23.648438 23 23.648438 C 23 22.78125 23.867188 21.914062 24.734375 21.914062 L 27.042969 24.800781 Z M 25.886719 25.957031 "/>
<path style=" stroke:none;fill-rule:nonzero;fill:rgb(38.039216%,38.039216%,38.039216%);fill-opacity:0.992157;" d="M 25.886719 24.800781 C 25.246094 25.441406 25.246094 26.472656 25.886719 27.113281 C 26.609375 27.835938 28.199219 28.265625 29.929688 30 C 29.929688 26.535156 28.921875 25.523438 28.199219 24.800781 C 27.558594 24.160156 26.527344 24.160156 25.886719 24.800781 Z M 25.886719 24.800781 "/>
<path style=" stroke:none;fill-rule:nonzero;fill:rgb(100%,100%,100%);fill-opacity:0.4;" d="M 21.734375 19.585938 C 21.28125 19.59375 20.554688 20.359375 20.6875 20.757812 C 20.703125 20.777344 20.714844 20.796875 20.726562 20.816406 C 20.910156 20.386719 21.507812 19.886719 21.84375 20 C 22.707031 20.574219 23.464844 21.257812 24.117188 22.054688 C 24.195312 22.019531 24.277344 21.988281 24.359375 21.964844 C 23.65625 21.035156 22.8125 20.25 21.84375 19.601562 C 21.8125 19.59375 21.773438 19.585938 21.734375 19.585938 Z M 21.734375 19.585938 "/>
<path style=" stroke:none;fill-rule:nonzero;fill:rgb(100%,100%,100%);fill-opacity:0.4;" d="M 24.734375 21.914062 C 23.867188 21.914062 23 22.78125 23 23.648438 C 23 23.648438 23.027344 23.667969 23.035156 23.671875 C 23.207031 22.921875 23.96875 22.25 24.734375 22.25 L 26.472656 24.425781 C 26.542969 24.398438 26.617188 24.378906 26.691406 24.359375 Z M 24.734375 21.914062 "/>
<path style=" stroke:none;fill-rule:nonzero;fill:rgb(100%,100%,100%);fill-opacity:0.4;" d="M 27.042969 24.320312 C 26.625 24.320312 26.207031 24.480469 25.886719 24.800781 C 25.558594 25.132812 25.398438 25.566406 25.410156 25.996094 C 25.457031 25.660156 25.613281 25.335938 25.871094 25.074219 C 26.511719 24.433594 27.542969 24.433594 28.183594 25.074219 C 28.882812 25.777344 29.855469 26.75 29.914062 29.984375 C 29.917969 29.988281 29.925781 29.992188 29.929688 30 C 29.929688 26.535156 28.921875 25.523438 28.199219 24.800781 C 27.878906 24.480469 27.460938 24.320312 27.042969 24.320312 Z M 27.042969 24.320312 "/>
<path style=" stroke:none;fill-rule:nonzero;fill:rgb(0%,0%,0%);fill-opacity:0.4;" d="M 20.707031 20.476562 C 20.671875 20.578125 20.664062 20.675781 20.6875 20.757812 C 21.332031 21.71875 22.113281 22.5625 23.050781 23.273438 C 23.074219 23.191406 23.105469 23.109375 23.140625 23.03125 C 22.171875 22.316406 21.367188 21.457031 20.707031 20.476562 Z M 20.707031 20.476562 "/>
<path style=" stroke:none;fill-rule:nonzero;fill:rgb(0%,0%,0%);fill-opacity:0.4;" d="M 23.015625 23.449219 C 23.003906 23.515625 23 23.582031 23 23.648438 C 23 23.648438 24.582031 24.832031 25.453125 25.570312 C 25.46875 25.515625 25.484375 25.460938 25.503906 25.40625 C 24.664062 24.691406 23.082031 23.5 23.015625 23.449219 Z M 23.015625 23.449219 "/>
<path style=" stroke:none;fill-rule:nonzero;fill:rgb(0%,0%,0%);fill-opacity:0.4;" d="M 25.414062 25.832031 C 25.378906 26.289062 25.535156 26.761719 25.886719 27.113281 C 26.609375 27.835938 28.199219 28.265625 29.929688 30 C 29.929688 29.914062 29.929688 29.832031 29.929688 29.75 C 28.195312 28.015625 26.609375 27.582031 25.886719 26.863281 C 25.601562 26.574219 25.441406 26.207031 25.414062 25.832031 Z M 25.414062 25.832031 "/>
<path style=" stroke:none;fill-rule:nonzero;fill:rgb(99.607843%,99.607843%,99.607843%);fill-opacity:0.4;" d="M 27.144531 24.894531 C 27.339844 25.089844 27.261719 25.488281 26.96875 25.78125 C 26.675781 26.074219 26.28125 26.152344 26.085938 25.957031 C 25.890625 25.761719 25.96875 25.367188 26.261719 25.074219 C 26.554688 24.78125 26.953125 24.703125 27.144531 24.894531 Z M 27.144531 24.894531 "/>
<path style=" stroke:none;fill-rule:nonzero;fill:rgb(0%,0%,0%);fill-opacity:0.2;" d="M 20.757812 20.863281 C 20.683594 21.011719 20.652344 21.152344 20.6875 21.265625 C 21.242188 22.09375 21.898438 22.832031 22.667969 23.476562 C 22.804688 23.417969 22.941406 23.355469 23.078125 23.292969 C 22.164062 22.605469 21.398438 21.789062 20.757812 20.863281 Z M 20.757812 20.863281 "/>
<path style=" stroke:none;fill-rule:nonzero;fill:url(#linear0);" d="M 23.988281 2 C 23.996094 2.136719 24 2.273438 24 2.410156 C 24 5.839844 21.863281 8.753906 18.84375 9.894531 C 18.222656 9.335938 17.402344 9 16.5 9 C 15.496094 9 14.589844 9.417969 13.953125 10.09375 C 11.898438 9.378906 10.855469 7.511719 10 5.109375 C 9.621094 7.566406 8.902344 12.382812 8.054688 14.785156 C 7.933594 14.703125 7.808594 14.628906 7.683594 14.554688 C 5.523438 13.308594 3.117188 13.464844 2.285156 14.902344 C 1.453125 16.339844 2.523438 18.503906 4.683594 19.75 C 5.730469 20.355469 6.839844 20.628906 7.796875 20.585938 C 9.753906 22.769531 13.960938 24.410156 18 24.410156 C 19.804688 24.410156 21.511719 24.015625 23.042969 23.3125 C 23.015625 23.421875 23 23.535156 23 23.648438 C 23 23.648438 24.582031 24.832031 25.453125 25.570312 C 25.324219 26.105469 25.46875 26.691406 25.886719 27.113281 C 26.609375 27.835938 28.199219 28.265625 29.929688 30 C 29.929688 26.535156 28.921875 25.523438 28.199219 24.800781 C 27.789062 24.390625 27.214844 24.246094 26.691406 24.359375 L 24.960938 22.199219 C 28.015625 20.027344 30 16.460938 30 12.410156 C 30 7.949219 27.585938 4.066406 23.988281 2 Z M 23.988281 2 "/>
</g>
</svg>
