
<svg xmlns="http://www.w3.org/2000/svg" xmlns:xlink="http://www.w3.org/1999/xlink" width="22" height="22" viewBox="0 0 22 22" version="1.1">
<defs>
<linearGradient id="linear0" gradientUnits="userSpaceOnUse" x1="31.999998" y1="60" x2="31.999998" y2="3.999999" gradientTransform="matrix(0.34375,0,0,0.34375,0,0.00000000000003908)">
<stop offset="0" style="stop-color:rgb(0%,0%,0%);stop-opacity:0.2;"/>
<stop offset="1" style="stop-color:rgb(100%,100%,100%);stop-opacity:0;"/>
</linearGradient>
</defs>
<g id="surface1">
<path style=" stroke:none;fill-rule:nonzero;fill:rgb(12.941177%,58.823532%,95.294118%);fill-opacity:1;" d="M 13.0625 2.75 C 12.550781 2.75 12.109375 3.027344 11.871094 3.4375 L 3.4375 3.4375 C 2.675781 3.4375 2.0625 4.050781 2.0625 4.8125 L 2.0625 6.875 C 2.0625 7.636719 2.675781 8.25 3.4375 8.25 L 18.5625 8.25 C 19.324219 8.25 19.9375 7.636719 19.9375 6.875 L 19.9375 4.125 C 19.9375 3.363281 19.324219 2.75 18.5625 2.75 Z M 13.0625 2.75 "/>
<path style=" stroke:none;fill-rule:nonzero;fill:rgb(100%,100%,100%);fill-opacity:0.4;" d="M 13.0625 2.75 C 12.550781 2.75 12.109375 3.027344 11.871094 3.4375 L 3.4375 3.4375 C 2.675781 3.4375 2.0625 4.050781 2.0625 4.8125 L 2.0625 4.839844 C 2.136719 4.144531 2.71875 3.609375 3.429688 3.609375 L 11.863281 3.609375 C 12.101562 3.199219 12.542969 2.921875 13.054688 2.921875 L 18.554688 2.921875 C 19.316406 2.921875 19.929688 3.535156 19.929688 4.296875 L 19.929688 7.019531 C 19.933594 6.972656 19.9375 6.925781 19.9375 6.875 L 19.9375 4.125 C 19.9375 3.363281 19.324219 2.75 18.5625 2.75 Z M 13.0625 2.75 "/>
<path style=" stroke:none;fill-rule:nonzero;fill:rgb(25.882354%,64.705884%,96.078432%);fill-opacity:1;" d="M 2.75 4.125 C 1.988281 4.125 1.375 4.738281 1.375 5.5 L 1.375 17.875 C 1.375 18.636719 1.988281 19.25 2.75 19.25 L 19.25 19.25 C 20.011719 19.25 20.625 18.636719 20.625 17.875 L 20.625 6.875 C 20.625 6.113281 20.011719 5.5 19.25 5.5 L 13.082031 5.5 C 13.074219 5.5 13.070312 5.5 13.0625 5.5 C 12.679688 5.5 12.375 5.195312 12.375 4.8125 C 12.375 4.429688 12.070312 4.125 11.6875 4.125 Z M 2.75 4.125 "/>
<path style=" stroke:none;fill-rule:nonzero;fill:rgb(100%,100%,100%);fill-opacity:0.4;" d="M 2.75 4.125 C 1.988281 4.125 1.375 4.738281 1.375 5.5 L 1.375 5.84375 C 1.375 5.082031 1.988281 4.46875 2.75 4.46875 L 11.6875 4.46875 C 12.070312 4.46875 12.375 4.773438 12.375 5.15625 C 12.375 5.539062 12.679688 5.84375 13.0625 5.84375 C 13.070312 5.84375 13.074219 5.84375 13.082031 5.84375 L 19.25 5.84375 C 20.011719 5.84375 20.625 6.457031 20.625 7.21875 L 20.625 6.875 C 20.625 6.113281 20.011719 5.5 19.25 5.5 L 13.082031 5.5 C 13.074219 5.5 13.070312 5.5 13.0625 5.5 C 12.679688 5.5 12.375 5.195312 12.375 4.8125 C 12.375 4.429688 12.070312 4.125 11.6875 4.125 Z M 2.75 4.125 "/>
<path style=" stroke:none;fill-rule:nonzero;fill:rgb(0%,0%,0%);fill-opacity:0.4;" d="M 1.375 17.53125 L 1.375 17.875 C 1.375 18.636719 1.988281 19.25 2.75 19.25 L 19.25 19.25 C 20.011719 19.25 20.625 18.636719 20.625 17.875 L 20.625 17.53125 C 20.625 18.292969 20.011719 18.90625 19.25 18.90625 L 2.75 18.90625 C 1.988281 18.90625 1.375 18.292969 1.375 17.53125 Z M 1.375 17.53125 "/>
<path style=" stroke:none;fill-rule:nonzero;fill:rgb(0%,0%,0%);fill-opacity:0.2;" d="M 1.375 17.875 L 1.375 18.390625 C 1.375 19.152344 1.988281 19.765625 2.75 19.765625 L 19.25 19.765625 C 20.011719 19.765625 20.625 19.152344 20.625 18.390625 L 20.625 17.875 C 20.625 18.636719 20.011719 19.25 19.25 19.25 L 2.75 19.25 C 1.988281 19.25 1.375 18.636719 1.375 17.875 Z M 1.375 17.875 "/>
<path style=" stroke:none;fill-rule:nonzero;fill:rgb(56.470591%,79.215688%,97.647059%);fill-opacity:1;" d="M 11 8.25 C 10.144531 8.25 9.453125 8.941406 9.453125 9.796875 C 9.453125 10.652344 10.144531 11.34375 11 11.34375 C 11.855469 11.34375 12.546875 10.652344 12.546875 9.796875 C 12.546875 8.941406 11.855469 8.25 11 8.25 Z M 11 11.6875 C 9.476562 11.6875 8.25 12.300781 8.25 13.0625 L 8.25 14.4375 C 8.25 14.820312 8.554688 15.125 8.9375 15.125 L 13.0625 15.125 C 13.445312 15.125 13.75 14.820312 13.75 14.4375 L 13.75 13.0625 C 13.75 12.300781 12.523438 11.6875 11 11.6875 Z M 11 11.6875 "/>
<path style=" stroke:none;fill-rule:nonzero;fill:rgb(100%,100%,100%);fill-opacity:0.4;" d="M 11 8.25 C 10.144531 8.25 9.453125 8.941406 9.453125 9.796875 C 9.453125 9.820312 9.457031 9.84375 9.457031 9.867188 C 9.507812 9.058594 10.175781 8.421875 11 8.421875 C 11.824219 8.421875 12.492188 9.058594 12.542969 9.867188 C 12.542969 9.84375 12.546875 9.820312 12.546875 9.796875 C 12.546875 8.941406 11.855469 8.25 11 8.25 Z M 11 11.6875 C 9.476562 11.6875 8.25 12.300781 8.25 13.0625 L 8.25 13.234375 C 8.25 12.472656 9.476562 11.859375 11 11.859375 C 12.523438 11.859375 13.75 12.472656 13.75 13.234375 L 13.75 13.0625 C 13.75 12.300781 12.523438 11.6875 11 11.6875 Z M 11 11.6875 "/>
<path style=" stroke:none;fill-rule:nonzero;fill:rgb(0%,0%,0%);fill-opacity:0.4;" d="M 9.457031 9.882812 C 9.453125 9.914062 9.453125 9.941406 9.453125 9.972656 C 9.453125 10.828125 10.144531 11.519531 11 11.519531 C 11.855469 11.519531 12.546875 10.828125 12.546875 9.972656 C 12.546875 9.941406 12.546875 9.914062 12.542969 9.882812 C 12.5 10.699219 11.828125 11.34375 11 11.34375 C 10.171875 11.34375 9.5 10.699219 9.457031 9.882812 Z M 8.25 14.4375 L 8.25 14.613281 C 8.25 14.992188 8.554688 15.300781 8.9375 15.300781 L 13.0625 15.300781 C 13.445312 15.300781 13.75 14.992188 13.75 14.613281 L 13.75 14.4375 C 13.75 14.820312 13.445312 15.125 13.0625 15.125 L 8.9375 15.125 C 8.554688 15.125 8.25 14.820312 8.25 14.4375 Z M 8.25 14.4375 "/>
<path style=" stroke:none;fill-rule:nonzero;fill:url(#linear0);" d="M 13.0625 2.75 C 12.550781 2.75 12.109375 3.027344 11.871094 3.4375 L 3.4375 3.4375 C 2.878906 3.4375 2.398438 3.769531 2.183594 4.246094 C 1.707031 4.460938 1.375 4.941406 1.375 5.5 L 1.375 17.875 C 1.375 18.636719 1.988281 19.25 2.75 19.25 L 19.25 19.25 C 20.011719 19.25 20.625 18.636719 20.625 17.875 L 20.625 6.875 C 20.625 6.363281 20.347656 5.921875 19.9375 5.683594 L 19.9375 4.125 C 19.9375 3.363281 19.324219 2.75 18.5625 2.75 Z M 13.0625 2.75 "/>
</g>
</svg>
