
<svg xmlns="http://www.w3.org/2000/svg" xmlns:xlink="http://www.w3.org/1999/xlink" width="16" height="16" viewBox="0 0 16 16" version="1.1">
<defs>
<linearGradient id="linear0" gradientUnits="userSpaceOnUse" x1="31.999998" y1="60" x2="31.999998" y2="4" gradientTransform="matrix(0.25,0,0,0.25,-0.000000680315,0)">
<stop offset="0" style="stop-color:rgb(0%,0%,0%);stop-opacity:0.2;"/>
<stop offset="1" style="stop-color:rgb(100%,100%,100%);stop-opacity:0;"/>
</linearGradient>
</defs>
<g id="surface1">
<path style=" stroke:none;fill-rule:nonzero;fill:rgb(38.039216%,38.039216%,38.039216%);fill-opacity:1;" d="M 10 1 L 3.25 1 C 2.835938 1 2.5 1.335938 2.5 1.75 L 2.5 14.25 C 2.5 14.664062 2.835938 15 3.25 15 L 12.75 15 C 13.164062 15 13.5 14.664062 13.5 14.25 L 13.5 4.5 Z M 10 1 "/>
<path style=" stroke:none;fill-rule:nonzero;fill:rgb(0%,0%,0%);fill-opacity:0.4;" d="M 10 3.75 L 10 4 C 10 4.414062 10.335938 4.75 10.75 4.75 L 13.5 4.75 L 13.25 4.5 L 10.75 4.5 C 10.335938 4.5 10 4.164062 10 3.75 Z M 10 3.75 "/>
<path style=" stroke:none;fill-rule:nonzero;fill:rgb(45.882353%,45.882353%,45.882353%);fill-opacity:0.996078;" d="M 13.5 4.5 L 10 1 L 10 3.75 C 10 4.164062 10.335938 4.5 10.75 4.5 Z M 13.5 4.5 "/>
<path style=" stroke:none;fill-rule:nonzero;fill:rgb(100%,100%,100%);fill-opacity:0.4;" d="M 3.25 1 C 2.835938 1 2.5 1.335938 2.5 1.75 L 2.5 2 C 2.5 1.585938 2.835938 1.25 3.25 1.25 L 10 1.25 L 13.5 4.75 L 13.5 4.5 L 10 1 Z M 3.25 1 "/>
<path style=" stroke:none;fill-rule:nonzero;fill:rgb(0%,0%,0%);fill-opacity:0.2;" d="M 2.5 14.246094 L 2.5 14.625 C 2.5 15.039062 2.835938 15.375 3.25 15.375 L 12.75 15.375 C 13.164062 15.375 13.5 15.039062 13.5 14.625 L 13.5 14.246094 C 13.5 14.660156 13.164062 14.996094 12.75 14.996094 L 3.25 14.996094 C 2.835938 14.996094 2.5 14.660156 2.5 14.246094 Z M 2.5 14.246094 "/>
<path style=" stroke:none;fill-rule:nonzero;fill:rgb(0%,0%,0%);fill-opacity:0.4;" d="M 2.5 14.03125 L 2.5 14.25 C 2.5 14.664062 2.835938 15 3.25 15 L 12.75 15 C 13.164062 15 13.5 14.664062 13.5 14.25 L 13.5 14.03125 C 13.5 14.445312 13.164062 14.78125 12.75 14.78125 L 3.25 14.78125 C 2.835938 14.78125 2.5 14.445312 2.5 14.03125 Z M 2.5 14.03125 "/>
<path style=" stroke:none;fill-rule:nonzero;fill:rgb(61.960787%,61.960787%,61.960787%);fill-opacity:1;" d="M 9.5 6 C 9.390625 6 9.296875 6.070312 9.261719 6.171875 L 7.96875 10.058594 L 7.226562 8.398438 C 7.1875 8.308594 7.097656 8.25 7 8.25 L 6.125 8.25 C 6.054688 8.25 6 8.304688 6 8.375 L 6 8.625 C 6 8.695312 6.054688 8.75 6.125 8.75 L 6.625 8.75 C 6.628906 8.75 6.632812 8.75 6.636719 8.75 L 6.835938 8.75 L 7.773438 10.851562 C 7.8125 10.945312 7.910156 11.003906 8.011719 11 C 8.113281 10.992188 8.203125 10.925781 8.234375 10.828125 L 9.679688 6.5 L 11.375 6.5 C 11.445312 6.5 11.5 6.445312 11.5 6.375 L 11.5 6.125 C 11.5 6.054688 11.445312 6 11.375 6 Z M 9.5 6 "/>
<path style=" stroke:none;fill-rule:nonzero;fill:rgb(100%,100%,100%);fill-opacity:0.4;" d="M 9.5 6 C 9.390625 6 9.296875 6.070312 9.261719 6.171875 L 7.96875 10.058594 L 7.226562 8.398438 C 7.1875 8.308594 7.097656 8.25 7 8.25 L 6.125 8.25 C 6.054688 8.25 6 8.304688 6 8.375 L 6 8.5 C 6 8.429688 6.054688 8.375 6.125 8.375 L 7 8.375 C 7.097656 8.375 7.1875 8.433594 7.226562 8.523438 L 7.96875 10.183594 L 9.261719 6.296875 C 9.296875 6.195312 9.390625 6.125 9.5 6.125 L 11.375 6.125 C 11.445312 6.125 11.5 6.179688 11.5 6.25 L 11.5 6.125 C 11.5 6.054688 11.445312 6 11.375 6 Z M 9.5 6 "/>
<path style=" stroke:none;fill-rule:nonzero;fill:rgb(0%,0%,0%);fill-opacity:0.4;" d="M 11.5 6.375 C 11.5 6.445312 11.445312 6.5 11.375 6.5 L 9.679688 6.5 L 8.234375 10.828125 C 8.203125 10.925781 8.113281 10.992188 8.011719 11 C 7.910156 11.003906 7.8125 10.945312 7.773438 10.851562 L 6.835938 8.75 L 6.636719 8.75 C 6.632812 8.75 6.628906 8.75 6.625 8.75 L 6.125 8.75 C 6.054688 8.75 6 8.695312 6 8.625 L 6 8.75 C 6 8.820312 6.054688 8.875 6.125 8.875 L 6.625 8.875 C 6.628906 8.875 6.632812 8.875 6.636719 8.875 L 6.835938 8.875 L 7.773438 10.976562 C 7.8125 11.070312 7.910156 11.128906 8.011719 11.125 C 8.113281 11.117188 8.203125 11.050781 8.234375 10.953125 L 9.679688 6.625 L 11.375 6.625 C 11.445312 6.625 11.5 6.570312 11.5 6.5 Z M 11.5 6.375 "/>
<path style=" stroke:none;fill-rule:nonzero;fill:url(#linear0);" d="M 10 1 L 3.25 1 C 2.835938 1 2.5 1.335938 2.5 1.75 L 2.5 14.25 C 2.5 14.664062 2.835938 15 3.25 15 L 12.75 15 C 13.164062 15 13.5 14.664062 13.5 14.25 L 13.5 4.5 Z M 10 1 "/>
</g>
</svg>
