
<svg xmlns="http://www.w3.org/2000/svg" xmlns:xlink="http://www.w3.org/1999/xlink" width="64" height="64" viewBox="0 0 64 64" version="1.1">
<defs>
<linearGradient id="linear0" gradientUnits="userSpaceOnUse" x1="31.999998" y1="60" x2="31.999998" y2="4" gradientTransform="matrix(1,0,0,1,-0.00000347717,0)">
<stop offset="0" style="stop-color:rgb(0%,0%,0%);stop-opacity:0.2;"/>
<stop offset="1" style="stop-color:rgb(100%,100%,100%);stop-opacity:0;"/>
</linearGradient>
</defs>
<g id="surface1">
<path style=" stroke:none;fill-rule:nonzero;fill:rgb(100%,65.490198%,14.901961%);fill-opacity:1;" d="M 40 4 L 13 4 C 11.339844 4 10 5.339844 10 7 L 10 57 C 10 58.660156 11.339844 60 13 60 L 51 60 C 52.660156 60 54 58.660156 54 57 L 54 18 Z M 40 4 "/>
<path style=" stroke:none;fill-rule:nonzero;fill:rgb(0%,0%,0%);fill-opacity:0.4;" d="M 40 15 L 40 16 C 40 17.660156 41.339844 19 43 19 L 54 19 L 53 18 L 43 18 C 41.339844 18 40 16.660156 40 15 Z M 40 15 "/>
<path style=" stroke:none;fill-rule:nonzero;fill:rgb(100%,71.764708%,30.19608%);fill-opacity:0.996078;" d="M 54 18 L 40 4 L 40 15 C 40 16.660156 41.339844 18 43 18 Z M 54 18 "/>
<path style=" stroke:none;fill-rule:nonzero;fill:rgb(100%,100%,100%);fill-opacity:0.4;" d="M 13 4 C 11.339844 4 10 5.339844 10 7 L 10 8 C 10 6.339844 11.339844 5 13 5 L 40 5 L 54 19 L 54 18 L 40 4 Z M 13 4 "/>
<path style=" stroke:none;fill-rule:nonzero;fill:rgb(0%,0%,0%);fill-opacity:0.2;" d="M 10 56.984375 L 10 58.5 C 10 60.164062 11.339844 61.5 13 61.5 L 51 61.5 C 52.660156 61.5 54 60.164062 54 58.5 L 54 56.984375 C 54 58.648438 52.660156 59.984375 51 59.984375 L 13 59.984375 C 11.339844 59.984375 10 58.648438 10 56.984375 Z M 10 56.984375 "/>
<path style=" stroke:none;fill-rule:nonzero;fill:rgb(0%,0%,0%);fill-opacity:0.4;" d="M 10 56.125 L 10 57 C 10 58.660156 11.339844 60 13 60 L 51 60 C 52.660156 60 54 58.660156 54 57 L 54 56.125 C 54 57.785156 52.660156 59.125 51 59.125 L 13 59.125 C 11.339844 59.125 10 57.785156 10 56.125 Z M 10 56.125 "/>
<path style=" stroke:none;fill-rule:nonzero;fill:rgb(100%,80.000001%,50.196081%);fill-opacity:0.996078;" d="M 24 36 C 24 40.433594 27.566406 44 32 44 C 36.433594 44 40 40.433594 40 36 C 40 30 34 28 32 24 C 30 28 24 30 24 36 Z M 24 36 "/>
<path style=" stroke:none;fill-rule:nonzero;fill:rgb(0%,0%,0%);fill-opacity:0.4;" d="M 24.003906 36.292969 C 24.003906 36.363281 24 36.429688 24 36.5 C 24 40.933594 27.566406 44.5 32 44.5 C 36.433594 44.5 40 40.933594 40 36.5 C 40 36.429688 39.996094 36.363281 39.996094 36.292969 C 39.839844 40.589844 36.332031 44 32 44 C 27.667969 44 24.160156 40.589844 24.003906 36.292969 Z M 24.003906 36.292969 "/>
<path style=" stroke:none;fill-rule:nonzero;fill:rgb(99.607843%,99.607843%,99.607843%);fill-opacity:0.4;" d="M 32 24 C 30 28 24 30 24 36 C 24 36.082031 24 36.164062 24.003906 36.25 C 24.167969 30.441406 30.027344 28.445312 32 24.5 C 33.972656 28.445312 39.832031 30.441406 39.996094 36.25 C 40 36.164062 40 36.082031 40 36 C 40 30 34 28 32 24 Z M 32 24 "/>
<path style=" stroke:none;fill-rule:nonzero;fill:url(#linear0);" d="M 40 4 L 13 4 C 11.339844 4 10 5.339844 10 7 L 10 57 C 10 58.660156 11.339844 60 13 60 L 51 60 C 52.660156 60 54 58.660156 54 57 L 54 18 Z M 40 4 "/>
</g>
</svg>
