
<svg xmlns="http://www.w3.org/2000/svg" xmlns:xlink="http://www.w3.org/1999/xlink" width="22" height="22" viewBox="0 0 22 22" version="1.1">
<defs>
<linearGradient id="linear0" gradientUnits="userSpaceOnUse" x1="31.999998" y1="60" x2="31.999998" y2="4" gradientTransform="matrix(0.34375,0,0,0.34375,0,0.00000000000003908)">
<stop offset="0" style="stop-color:rgb(0%,0%,0%);stop-opacity:0.2;"/>
<stop offset="1" style="stop-color:rgb(100%,100%,100%);stop-opacity:0;"/>
</linearGradient>
</defs>
<g id="surface1">
<path style=" stroke:none;fill-rule:nonzero;fill:rgb(93.333334%,93.333334%,93.333334%);fill-opacity:0.996078;" d="M 11 1.375 C 5.667969 1.375 1.375 5.667969 1.375 11 C 1.375 16.332031 5.667969 20.625 11 20.625 C 16.332031 20.625 20.625 16.332031 20.625 11 C 20.625 5.667969 16.332031 1.375 11 1.375 Z M 11 9.625 C 11.761719 9.625 12.375 10.238281 12.375 11 C 12.375 11.761719 11.761719 12.375 11 12.375 C 10.238281 12.375 9.625 11.761719 9.625 11 C 9.625 10.238281 10.238281 9.625 11 9.625 Z M 11 9.625 "/>
<path style=" stroke:none;fill-rule:nonzero;fill:rgb(87.843138%,87.843138%,87.843138%);fill-opacity:0.996078;" d="M 11 2.0625 C 6.046875 2.0625 2.0625 6.046875 2.0625 11 C 2.0625 15.953125 6.046875 19.9375 11 19.9375 C 15.953125 19.9375 19.9375 15.953125 19.9375 11 C 19.9375 6.046875 15.953125 2.0625 11 2.0625 Z M 11 9.625 C 11.761719 9.625 12.375 10.238281 12.375 11 C 12.375 11.761719 11.761719 12.375 11 12.375 C 10.238281 12.375 9.625 11.761719 9.625 11 C 9.625 10.238281 10.238281 9.625 11 9.625 Z M 11 9.625 "/>
<path style=" stroke:none;fill-rule:nonzero;fill:rgb(96.078432%,96.078432%,96.078432%);fill-opacity:1;" d="M 11 6.875 C 8.714844 6.875 6.875 8.714844 6.875 11 C 6.875 13.285156 8.714844 15.125 11 15.125 C 13.285156 15.125 15.125 13.285156 15.125 11 C 15.125 8.714844 13.285156 6.875 11 6.875 Z M 11 9.625 C 11.761719 9.625 12.375 10.238281 12.375 11 C 12.375 11.761719 11.761719 12.375 11 12.375 C 10.238281 12.375 9.625 11.761719 9.625 11 C 9.625 10.238281 10.238281 9.625 11 9.625 Z M 11 9.625 "/>
<path style=" stroke:none;fill-rule:nonzero;fill:rgb(100%,100%,100%);fill-opacity:0.8;" d="M 11 6.875 C 8.714844 6.875 6.875 8.714844 6.875 11 C 6.875 11.027344 6.875 11.058594 6.875 11.085938 C 6.921875 8.839844 8.742188 7.046875 11 7.046875 C 13.257812 7.046875 15.078125 8.839844 15.125 11.085938 C 15.125 11.058594 15.125 11.027344 15.125 11 C 15.125 8.714844 13.285156 6.875 11 6.875 Z M 9.628906 11.085938 C 9.625 11.113281 9.625 11.144531 9.625 11.171875 C 9.625 11.933594 10.238281 12.546875 11 12.546875 C 11.761719 12.546875 12.375 11.933594 12.375 11.171875 C 12.375 11.144531 12.375 11.113281 12.371094 11.085938 C 12.328125 11.808594 11.734375 12.375 11 12.375 C 10.265625 12.375 9.671875 11.808594 9.628906 11.085938 Z M 9.628906 11.085938 "/>
<path style=" stroke:none;fill-rule:nonzero;fill:rgb(0%,0%,0%);fill-opacity:0.4;" d="M 11 9.625 C 10.238281 9.625 9.625 10.238281 9.625 11 C 9.625 11.027344 9.625 11.058594 9.628906 11.085938 C 9.671875 10.363281 10.265625 9.796875 11 9.796875 C 11.734375 9.796875 12.328125 10.363281 12.371094 11.085938 C 12.375 11.058594 12.375 11.027344 12.375 11 C 12.375 10.238281 11.761719 9.625 11 9.625 Z M 6.875 11.085938 C 6.875 11.113281 6.875 11.144531 6.875 11.171875 C 6.875 13.457031 8.714844 15.296875 11 15.296875 C 13.285156 15.296875 15.125 13.457031 15.125 11.171875 C 15.125 11.144531 15.125 11.113281 15.125 11.085938 C 15.078125 13.332031 13.257812 15.125 11 15.125 C 8.742188 15.125 6.921875 13.332031 6.875 11.085938 Z M 6.875 11.085938 "/>
<path style=" stroke:none;fill-rule:nonzero;fill:url(#linear0);" d="M 11 1.375 C 5.667969 1.375 1.375 5.667969 1.375 11 C 1.375 16.332031 5.667969 20.625 11 20.625 C 16.332031 20.625 20.625 16.332031 20.625 11 C 20.625 5.667969 16.332031 1.375 11 1.375 Z M 11 9.625 C 11.761719 9.625 12.375 10.238281 12.375 11 C 12.375 11.761719 11.761719 12.375 11 12.375 C 10.238281 12.375 9.625 11.761719 9.625 11 C 9.625 10.238281 10.238281 9.625 11 9.625 Z M 11 9.625 "/>
<path style=" stroke:none;fill-rule:nonzero;fill:rgb(0%,0%,0%);fill-opacity:0.2;" d="M 11 9.628906 C 10.238281 9.628906 9.625 10.242188 9.625 11.003906 C 9.625 11.09375 9.632812 11.179688 9.648438 11.261719 C 9.769531 10.621094 10.324219 10.140625 11 10.140625 C 11.675781 10.140625 12.230469 10.621094 12.351562 11.261719 C 12.367188 11.179688 12.375 11.09375 12.375 11.003906 C 12.375 10.242188 11.761719 9.628906 11 9.628906 Z M 1.378906 11.261719 C 1.375 11.34375 1.375 11.429688 1.375 11.515625 C 1.375 16.847656 5.667969 21.140625 11 21.140625 C 16.332031 21.140625 20.625 16.847656 20.625 11.515625 C 20.625 11.429688 20.625 11.34375 20.621094 11.261719 C 20.488281 16.472656 16.246094 20.628906 11 20.628906 C 5.753906 20.628906 1.511719 16.472656 1.378906 11.261719 Z M 1.378906 11.261719 "/>
<path style=" stroke:none;fill-rule:nonzero;fill:rgb(0%,0%,0%);fill-opacity:0.4;" d="M 11 9.441406 C 10.296875 9.441406 9.722656 9.964844 9.636719 10.644531 C 9.632812 10.621094 9.632812 10.597656 9.628906 10.570312 C 9.628906 10.601562 9.625 10.628906 9.625 10.65625 C 9.625 10.714844 9.628906 10.773438 9.636719 10.828125 C 9.722656 10.148438 10.296875 9.625 11 9.625 C 11.703125 9.625 12.277344 10.148438 12.363281 10.828125 C 12.371094 10.773438 12.375 10.714844 12.375 10.65625 C 12.375 10.628906 12.371094 10.601562 12.371094 10.570312 C 12.367188 10.597656 12.367188 10.621094 12.363281 10.644531 C 12.277344 9.964844 11.703125 9.441406 11 9.441406 Z M 1.375 10.941406 C 1.375 10.960938 1.375 10.980469 1.375 11 C 1.375 16.332031 5.667969 20.625 11 20.625 C 16.332031 20.625 20.625 16.332031 20.625 11 C 20.625 10.980469 20.625 10.960938 20.625 10.941406 C 20.558594 16.214844 16.289062 20.441406 11 20.441406 C 5.710938 20.441406 1.441406 16.214844 1.375 10.941406 Z M 1.375 10.941406 "/>
<path style=" stroke:none;fill-rule:nonzero;fill:rgb(99.215686%,99.215686%,99.215686%);fill-opacity:0.6;" d="M 11 1.375 C 5.667969 1.375 1.375 5.667969 1.375 11 C 1.375 11.019531 1.375 11.035156 1.375 11.054688 C 1.4375 5.777344 5.707031 1.546875 11 1.546875 C 16.292969 1.546875 20.5625 5.777344 20.625 11.054688 C 20.625 11.035156 20.625 11.019531 20.625 11 C 20.625 5.667969 16.332031 1.375 11 1.375 Z M 9.636719 11.171875 C 9.628906 11.226562 9.625 11.285156 9.625 11.34375 C 9.625 11.371094 9.628906 11.394531 9.628906 11.421875 C 9.632812 11.394531 9.632812 11.371094 9.636719 11.34375 C 9.722656 12.023438 10.296875 12.546875 11 12.546875 C 11.703125 12.546875 12.277344 12.023438 12.363281 11.34375 C 12.367188 11.371094 12.367188 11.394531 12.371094 11.421875 C 12.371094 11.394531 12.375 11.371094 12.375 11.34375 C 12.375 11.285156 12.371094 11.226562 12.363281 11.171875 C 12.277344 11.851562 11.703125 12.375 11 12.375 C 10.296875 12.375 9.722656 11.851562 9.636719 11.171875 Z M 9.636719 11.171875 "/>
</g>
</svg>
