
<svg xmlns="http://www.w3.org/2000/svg" xmlns:xlink="http://www.w3.org/1999/xlink" width="64" height="64" viewBox="0 0 64 64" version="1.1">
<defs>
<linearGradient id="linear0" gradientUnits="userSpaceOnUse" x1="25.1406" y1="45.488903" x2="25.1406" y2="5.792903" gradientTransform="matrix(1.254972,0,0,1.254972,-8.113557,-3.441345)">
<stop offset="0" style="stop-color:rgb(25.882354%,64.705884%,96.078432%);stop-opacity:1;"/>
<stop offset="1" style="stop-color:rgb(39.215687%,70.980394%,96.470588%);stop-opacity:1;"/>
</linearGradient>
<linearGradient id="linear1" gradientUnits="userSpaceOnUse" x1="31.999998" y1="60" x2="31.999998" y2="4" >
<stop offset="0" style="stop-color:rgb(0%,0%,0%);stop-opacity:0.2;"/>
<stop offset="1" style="stop-color:rgb(100%,100%,100%);stop-opacity:0;"/>
</linearGradient>
</defs>
<g id="surface1">
<path style=" stroke:none;fill-rule:nonzero;fill:rgb(93.333334%,93.333334%,93.333334%);fill-opacity:0.996078;" d="M 32 16 C 44.148438 16 54 25.851562 54 38 C 54 50.148438 44.148438 60 32 60 C 19.851562 60 10 50.148438 10 38 C 10 25.851562 19.851562 16 32 16 Z M 32 16 "/>
<path style=" stroke:none;fill-rule:nonzero;fill:rgb(100%,100%,100%);fill-opacity:0.6;" d="M 32 16 C 19.8125 16 10 25.8125 10 38 C 10 38.167969 10.003906 38.332031 10.007812 38.5 C 10.273438 26.542969 19.980469 17 32 17 C 44.019531 17 53.726562 26.542969 53.992188 38.5 C 53.996094 38.332031 54 38.167969 54 38 C 54 25.8125 44.1875 16 32 16 Z M 32 16 "/>
<path style=" stroke:none;fill-rule:nonzero;fill:url(#linear0);" d="M 6 20 C 12.421875 14.164062 13.574219 13.332031 20.113281 12.320312 L 20.113281 46.984375 C 20.113281 48.359375 21.226562 49.476562 22.601562 49.472656 C 33.394531 49.472656 47.609375 46.539062 47.609375 37.195312 C 47.609375 27.851562 34.261719 30.523438 24.921875 34.527344 L 24.921875 6.5 C 24.9375 -2.527344 8.855469 15.03125 6 20 Z M 40.9375 35.859375 C 40.9375 39.863281 31.5625 45.203125 24.921875 45.203125 L 24.921875 37.195312 C 31.417969 33.871094 40.9375 31.855469 40.9375 35.859375 Z M 40.9375 35.859375 "/>
<path style=" stroke:none;fill-rule:nonzero;fill:rgb(0.784314%,0.784314%,0.784314%);fill-opacity:0.4;" d="M 32 60 C 19.8125 60 10 50.1875 10 38 C 10 37.832031 10.003906 37.664062 10.007812 37.5 C 10.273438 49.457031 19.980469 59 32 59 C 44.019531 59 53.726562 49.457031 53.992188 37.5 C 53.996094 37.664062 54 37.832031 54 38 C 54 50.1875 44.1875 60 32 60 Z M 32 60 "/>
<path style=" stroke:none;fill-rule:nonzero;fill:rgb(25.882354%,64.705884%,96.078432%);fill-opacity:1;" d="M 6 20 C 12.421875 14.164062 13.574219 13.332031 20.113281 12.320312 L 20.113281 46.984375 C 20.113281 48.359375 21.226562 49.476562 22.601562 49.472656 C 33.394531 49.472656 47.609375 46.539062 47.609375 37.195312 C 47.609375 27.851562 34.261719 30.523438 24.921875 34.527344 L 24.921875 6.5 C 24.9375 -2.527344 8.855469 15.03125 6 20 Z M 40.9375 35.859375 C 40.9375 39.863281 31.5625 45.203125 24.921875 45.203125 L 24.921875 37.195312 C 31.417969 33.871094 40.9375 31.855469 40.9375 35.859375 Z M 40.9375 35.859375 "/>
<path style=" stroke:none;fill-rule:nonzero;fill:rgb(100%,100%,100%);fill-opacity:0.4;" d="M 23.183594 3.960938 C 18.949219 4.085938 8.277344 16.039062 6 20 C 6.734375 19.332031 7.394531 18.738281 8.007812 18.191406 C 13.207031 11.523438 24.933594 -0.164062 24.921875 7.550781 L 24.921875 6.5 C 24.921875 4.667969 24.261719 3.929688 23.183594 3.960938 Z M 39.765625 30.859375 C 35.261719 30.859375 29.589844 32.527344 24.921875 34.53125 L 24.921875 35.578125 C 34.078125 31.652344 47.09375 29.007812 47.59375 37.71875 C 47.601562 37.546875 47.609375 37.375 47.609375 37.199219 C 47.609375 32.523438 44.269531 30.855469 39.765625 30.859375 Z M 40.878906 36.40625 C 40.097656 40.332031 31.261719 45.203125 24.921875 45.203125 L 24.921875 46.253906 C 31.558594 46.253906 40.9375 40.914062 40.9375 36.910156 C 40.9375 36.730469 40.917969 36.5625 40.878906 36.40625 Z M 40.878906 36.40625 "/>
<path style=" stroke:none;fill-rule:nonzero;fill:rgb(0%,0%,0%);fill-opacity:0.4;" d="M 37.0625 33.640625 C 33.703125 33.707031 28.777344 35.21875 24.921875 37.195312 L 24.921875 38.171875 C 31.148438 34.984375 40.148438 33.003906 40.886719 36.367188 C 40.917969 36.195312 40.9375 36.027344 40.9375 35.859375 C 40.9375 34.234375 39.367188 33.597656 37.0625 33.640625 Z M 47.59375 37.683594 C 47.109375 46.640625 33.203125 49.46875 22.605469 49.46875 C 21.226562 49.472656 20.113281 48.359375 20.113281 46.984375 L 20.113281 47.960938 C 20.113281 49.335938 21.226562 50.449219 22.605469 50.449219 C 33.394531 50.449219 47.609375 47.515625 47.609375 38.171875 C 47.609375 38.003906 47.601562 37.839844 47.59375 37.683594 Z M 47.59375 37.683594 "/>
<path style=" stroke:none;fill-rule:nonzero;fill:rgb(0%,0%,0%);fill-opacity:0.2;" d="M 20.113281 12.324219 C 14.839844 13.136719 13.066406 13.839844 9.210938 17.140625 C 7.75 18.898438 6.589844 20.464844 6 21.492188 C 12.421875 15.65625 13.574219 14.824219 20.113281 13.8125 Z M 10.015625 38.722656 C 10.003906 38.980469 10 39.234375 10 39.492188 C 10 51.679688 19.8125 61.492188 32 61.492188 C 44.1875 61.492188 54 51.679688 54 39.492188 C 54 39.242188 53.996094 38.992188 53.984375 38.746094 C 53.59375 50.585938 43.9375 60 32 60 C 20.054688 60 10.394531 50.574219 10.015625 38.722656 Z M 10.015625 38.722656 "/>
<path style=" stroke:none;fill-rule:nonzero;fill:url(#linear1);" d="M 23.183594 3.960938 C 18.949219 4.085938 8.277344 16.039062 6 20 C 12.421875 14.164062 13.574219 13.332031 20.113281 12.324219 L 20.113281 19.464844 C 14.019531 23.367188 10 30.195312 10 38 C 10 50.1875 19.8125 60 32 60 C 44.1875 60 54 50.1875 54 38 C 54 25.8125 44.1875 16 32 16 C 29.519531 16 27.140625 16.40625 24.921875 17.15625 L 24.921875 6.5 C 24.921875 4.667969 24.261719 3.929688 23.183594 3.960938 Z M 23.183594 3.960938 "/>
</g>
</svg>
