
<svg xmlns="http://www.w3.org/2000/svg" xmlns:xlink="http://www.w3.org/1999/xlink" width="48" height="48" viewBox="0 0 48 48" version="1.1">
<defs>
<linearGradient id="linear0" gradientUnits="userSpaceOnUse" x1="8.466666" y1="-199.125" x2="8.466666" y2="-213.941666" gradientTransform="matrix(2.834646,0,0,2.834646,0,609.448851)">
<stop offset="0" style="stop-color:rgb(0%,0%,0%);stop-opacity:0.2;"/>
<stop offset="1" style="stop-color:rgb(100%,100%,100%);stop-opacity:0;"/>
</linearGradient>
</defs>
<g id="surface1">
<path style=" stroke:none;fill-rule:nonzero;fill:rgb(38.039216%,38.039216%,38.039216%);fill-opacity:1;" d="M 24 2.996094 C 35.601562 2.996094 45.003906 12.398438 45.003906 24 C 45.003906 35.597656 35.601562 45.003906 24 45.003906 C 12.398438 45.003906 2.996094 35.597656 2.996094 24 C 2.996094 12.398438 12.398438 2.996094 24 2.996094 Z M 24 2.996094 "/>
<path style=" stroke:none;fill-rule:nonzero;fill:rgb(93.333334%,93.333334%,93.333334%);fill-opacity:1;" d="M 24 6 C 33.941406 6 42 14.058594 42 24 C 42 33.9375 33.941406 41.996094 24 41.996094 C 14.058594 41.996094 6 33.9375 6 24 C 6 14.058594 14.058594 6 24 6 Z M 24 6 "/>
<path style=" stroke:none;fill-rule:nonzero;fill:rgb(100%,100%,100%);fill-opacity:0.4;" d="M 24 3 C 12.402344 3 3 12.402344 3 24 C 3 24.125 3.003906 24.25 3.007812 24.375 C 3.207031 12.949219 12.527344 3.75 24 3.75 C 35.472656 3.75 44.792969 12.949219 44.996094 24.375 C 44.996094 24.25 45 24.125 45 24 C 45 12.402344 35.597656 3 24 3 Z M 24 3 "/>
<path style=" stroke:none;fill-rule:nonzero;fill:rgb(0%,0%,0%);fill-opacity:0.4;" d="M 3.011719 23.621094 C 3.007812 23.742188 3 23.867188 3 23.992188 C 3 35.589844 12.402344 44.992188 24 44.992188 C 35.597656 44.992188 45 35.589844 45 23.992188 C 45 23.867188 44.992188 23.742188 44.988281 23.621094 C 44.789062 35.042969 35.472656 44.246094 24 44.246094 C 12.527344 44.246094 3.210938 35.042969 3.011719 23.621094 Z M 3.011719 23.621094 "/>
<path style=" stroke:none;fill-rule:nonzero;fill:rgb(0%,0%,0%);fill-opacity:0.2;" d="M 3.011719 24.5625 C 3.003906 24.75 3 24.9375 3 25.125 C 3 36.722656 12.402344 46.125 24 46.125 C 35.597656 46.125 45 36.722656 45 25.125 C 45 24.9375 44.996094 24.75 44.988281 24.5625 C 44.691406 35.898438 35.410156 44.996094 24 44.996094 C 12.589844 44.996094 3.308594 35.898438 3.011719 24.5625 Z M 3.011719 24.5625 "/>
<path style=" stroke:none;fill-rule:nonzero;fill:rgb(25.882354%,64.705884%,96.078432%);fill-opacity:0.996078;" d="M 25.3125 12 C 24.375 12 24 12.667969 24 13.5 L 24 26.253906 C 22.929688 25.777344 21.640625 25.5 20.25 25.5 C 16.511719 25.5 13.5 27.507812 13.5 30 C 13.5 32.492188 16.511719 34.5 20.25 34.5 C 23.988281 34.5 27 32.492188 27 30 L 27 15.152344 C 29.113281 15.191406 31.105469 16.328125 30 25.5 C 29.765625 26.941406 31.695312 27.046875 32.949219 25.886719 C 39 19.5 31.5 12 25.3125 12 Z M 25.3125 12 "/>
<path style=" stroke:none;fill-rule:nonzero;fill:rgb(100%,100%,100%);fill-opacity:0.4;" d="M 25.3125 12 C 24.375 12 24 12.667969 24 13.5 L 24 14.25 C 24 13.417969 24.375 12.75 25.3125 12.75 C 29.753906 12.75 34.875 16.617188 35.167969 21.164062 C 35.429688 16.300781 30 12 25.3125 12 Z M 30.308594 21.277344 C 30.296875 22.449219 30.199219 23.839844 30 25.5 C 29.964844 25.703125 29.980469 25.878906 30.023438 26.027344 C 30.25 24.105469 30.335938 22.542969 30.308594 21.277344 Z M 20.25 25.5 C 16.511719 25.5 13.5 27.507812 13.5 30 C 13.5 30.125 13.507812 30.25 13.523438 30.375 C 13.808594 28.058594 16.699219 26.25 20.25 26.25 C 21.640625 26.25 22.929688 26.527344 24 27.003906 L 24 26.253906 C 22.929688 25.777344 21.640625 25.5 20.25 25.5 Z M 20.25 25.5 "/>
<path style=" stroke:none;fill-rule:nonzero;fill:rgb(0%,0%,0%);fill-opacity:0.4;" d="M 27 15.152344 L 27 15.902344 C 28.648438 15.929688 30.226562 16.628906 30.3125 21.304688 C 30.386719 15.957031 28.734375 15.179688 27 15.152344 Z M 35.167969 21.1875 C 35.078125 22.734375 34.410156 24.34375 32.949219 25.882812 C 31.875 26.875 30.304688 26.941406 30.023438 26.035156 C 30.015625 26.105469 30.007812 26.171875 30 26.246094 C 29.765625 27.6875 31.695312 27.792969 32.949219 26.632812 C 34.648438 24.84375 35.277344 22.964844 35.167969 21.1875 Z M 27 29.996094 C 27 32.488281 23.988281 34.496094 20.25 34.496094 C 16.699219 34.496094 13.808594 32.6875 13.523438 30.371094 C 13.507812 30.496094 13.5 30.621094 13.5 30.746094 C 13.5 33.238281 16.511719 35.246094 20.25 35.246094 C 23.988281 35.246094 27 33.238281 27 30.746094 Z M 27 29.996094 "/>
<path style=" stroke:none;fill-rule:nonzero;fill:rgb(0%,0%,0%);fill-opacity:0.4;" d="M 24 6 C 14.027344 6 6 14.027344 6 24 C 6 24.121094 6 24.246094 6.003906 24.367188 C 6.199219 14.566406 14.152344 6.738281 24 6.738281 C 33.847656 6.738281 41.800781 14.566406 41.996094 24.367188 C 41.996094 24.246094 42 24.121094 42 24 C 42 14.027344 33.972656 6 24 6 Z M 24 6 "/>
<path style=" stroke:none;fill-rule:nonzero;fill:rgb(100%,100%,100%);fill-opacity:0.4;" d="M 24 42.75 C 14.027344 42.75 6 34.722656 6 24.75 C 6 24.628906 6 24.503906 6.003906 24.382812 C 6.199219 34.183594 14.152344 42.011719 24 42.011719 C 33.847656 42.011719 41.800781 34.183594 41.996094 24.382812 C 41.996094 24.503906 42 24.628906 42 24.75 C 42 34.722656 33.972656 42.75 24 42.75 Z M 24 42.75 "/>
<path style=" stroke:none;fill-rule:nonzero;fill:url(#linear0);" d="M 24 3 C 35.597656 3 45 12.402344 45 24 C 45 35.597656 35.597656 44.996094 24 44.996094 C 12.402344 44.996094 3 35.597656 3 24 C 3 12.402344 12.402344 3 24 3 Z M 24 3 "/>
</g>
</svg>
