
<svg xmlns="http://www.w3.org/2000/svg" xmlns:xlink="http://www.w3.org/1999/xlink" width="48" height="48" viewBox="0 0 48 48" version="1.1">
<defs>
<linearGradient id="linear0" gradientUnits="userSpaceOnUse" x1="10.054166" y1="-199.125" x2="10.054166" y2="-213.941666" gradientTransform="matrix(2.834646,0,0,2.834646,-0.000948433,609.448851)">
<stop offset="0" style="stop-color:rgb(0%,0%,0%);stop-opacity:0.2;"/>
<stop offset="1" style="stop-color:rgb(100%,100%,100%);stop-opacity:0;"/>
</linearGradient>
</defs>
<g id="surface1">
<path style=" stroke:none;fill-rule:nonzero;fill:rgb(25.882354%,64.705884%,96.078432%);fill-opacity:1;" d="M 6 3 L 42 3 C 43.65625 3 45 4.34375 45 6 L 45 42 C 45 43.65625 43.65625 45 42 45 L 6 45 C 4.34375 45 3 43.65625 3 42 L 3 6 C 3 4.34375 4.34375 3 6 3 Z M 6 3 "/>
<path style=" stroke:none;fill-rule:nonzero;fill:rgb(0%,0%,0%);fill-opacity:0.4;" d="M 3 41.25 L 3 42 C 3 43.660156 4.339844 45 6 45 L 42 45 C 43.660156 45 45 43.660156 45 42 L 45 41.25 C 45 42.910156 43.660156 44.25 42 44.25 L 6 44.25 C 4.339844 44.25 3 42.910156 3 41.25 Z M 3 41.25 "/>
<path style=" stroke:none;fill-rule:nonzero;fill:rgb(0%,0%,0%);fill-opacity:0.2;" d="M 3 42 L 3 43.125 C 3 44.785156 4.339844 46.125 6 46.125 L 42 46.125 C 43.660156 46.125 45 44.785156 45 43.125 L 45 42 C 45 43.660156 43.660156 45 42 45 L 6 45 C 4.339844 45 3 43.660156 3 42 Z M 3 42 "/>
<path style=" stroke:none;fill-rule:nonzero;fill:rgb(100%,100%,100%);fill-opacity:0.4;" d="M 6 3 C 4.339844 3 3 4.339844 3 6 L 3 6.738281 C 3 5.078125 4.339844 3.738281 6 3.738281 L 42 3.738281 C 43.660156 3.738281 45 5.078125 45 6.738281 L 45 6 C 45 4.339844 43.660156 3 42 3 Z M 6 3 "/>
<path style=" stroke:none;fill-rule:nonzero;fill:rgb(93.333334%,93.333334%,93.333334%);fill-opacity:1;" d="M 24 15 C 19.015625 15 15 19.015625 15 24 C 15 28.984375 19.015625 33 24 33 C 28.984375 33 33 28.984375 33 24 C 33 19.015625 28.984375 15 24 15 Z M 24 18 C 27.324219 18 30 20.675781 30 24 C 30 27.324219 27.324219 30 24 30 C 20.675781 30 18 27.324219 18 24 C 18 20.675781 20.675781 18 24 18 Z M 24 18 "/>
<path style=" stroke:none;fill-rule:nonzero;fill:rgb(93.333334%,93.333334%,93.333334%);fill-opacity:1;" d="M 10.125 18 C 6.800781 18 4.125 20.675781 4.125 24 C 4.125 27.324219 6.800781 30 10.125 30 C 13.449219 30 16.125 27.324219 16.125 24 C 16.125 20.675781 13.449219 18 10.125 18 Z M 10.125 21 C 11.785156 21 13.125 22.339844 13.125 24 C 13.125 25.660156 11.785156 27 10.125 27 C 8.464844 27 7.125 25.660156 7.125 24 C 7.125 22.339844 8.464844 21 10.125 21 Z M 10.125 21 "/>
<path style=" stroke:none;fill-rule:nonzero;fill:rgb(93.333334%,93.333334%,93.333334%);fill-opacity:1;" d="M 37.863281 18 C 34.539062 18 31.863281 20.675781 31.863281 24 C 31.863281 27.324219 34.539062 30 37.863281 30 C 41.1875 30 43.863281 27.324219 43.863281 24 C 43.863281 20.675781 41.1875 18 37.863281 18 Z M 37.863281 21 C 39.527344 21 40.863281 22.339844 40.863281 24 C 40.863281 25.660156 39.527344 27 37.863281 27 C 36.203125 27 34.863281 25.660156 34.863281 24 C 34.863281 22.339844 36.203125 21 37.863281 21 Z M 37.863281 21 "/>
<path style=" stroke:none;fill-rule:nonzero;fill:rgb(0%,0%,0%);fill-opacity:0.4;" d="M 24 18 C 20.675781 18 18 20.675781 18 24 C 18 24.125 18.003906 24.25 18.011719 24.375 C 18.203125 21.226562 20.800781 18.75 24 18.75 C 27.199219 18.75 29.796875 21.226562 29.988281 24.375 C 29.996094 24.25 30 24.125 30 24 C 30 20.675781 27.324219 18 24 18 Z M 10.125 21 C 8.464844 21 7.125 22.339844 7.125 24 C 7.125 24.128906 7.132812 24.253906 7.148438 24.375 C 7.332031 22.890625 8.589844 21.75 10.125 21.75 C 11.660156 21.75 12.917969 22.890625 13.101562 24.375 C 13.117188 24.253906 13.125 24.128906 13.125 24 C 13.125 22.339844 11.785156 21 10.125 21 Z M 37.863281 21 C 36.203125 21 34.863281 22.339844 34.863281 24 C 34.863281 24.128906 34.875 24.253906 34.890625 24.375 C 35.074219 22.890625 36.328125 21.75 37.863281 21.75 C 39.398438 21.75 40.65625 22.890625 40.839844 24.375 C 40.855469 24.253906 40.863281 24.128906 40.863281 24 C 40.863281 22.339844 39.527344 21 37.863281 21 Z M 4.136719 24.375 C 4.128906 24.5 4.125 24.625 4.125 24.75 C 4.125 28.074219 6.800781 30.75 10.125 30.75 C 12.4375 30.75 14.4375 29.453125 15.441406 27.542969 C 16.609375 31.152344 19.992188 33.75 24 33.75 C 28.003906 33.75 31.382812 31.160156 32.554688 27.554688 C 33.558594 29.457031 35.554688 30.75 37.863281 30.75 C 41.1875 30.75 43.863281 28.074219 43.863281 24.75 C 43.863281 24.625 43.859375 24.5 43.851562 24.375 C 43.660156 27.523438 41.0625 30 37.863281 30 C 35.554688 30 33.558594 28.707031 32.554688 26.804688 C 31.382812 30.410156 28.003906 33 24 33 C 19.992188 33 16.609375 30.402344 15.441406 26.792969 C 14.4375 28.703125 12.4375 30 10.125 30 C 6.925781 30 4.328125 27.523438 4.136719 24.375 Z M 4.136719 24.375 "/>
<path style=" stroke:none;fill-rule:nonzero;fill:rgb(100%,100%,100%);fill-opacity:0.6;" d="M 24 15 C 19.992188 15 16.609375 17.597656 15.441406 21.207031 C 14.4375 19.296875 12.4375 18 10.125 18 C 6.800781 18 4.125 20.675781 4.125 24 C 4.125 24.109375 4.136719 24.21875 4.140625 24.324219 C 4.359375 21.203125 6.945312 18.75 10.125 18.75 C 12.4375 18.75 14.4375 20.046875 15.441406 21.957031 C 16.609375 18.347656 19.992188 15.75 24 15.75 C 28.003906 15.75 31.382812 18.339844 32.554688 21.945312 C 33.558594 20.042969 35.554688 18.75 37.863281 18.75 C 41.046875 18.75 43.632812 21.203125 43.847656 24.324219 C 43.855469 24.21875 43.863281 24.109375 43.863281 24 C 43.863281 20.675781 41.1875 18 37.863281 18 C 35.554688 18 33.558594 19.292969 32.554688 21.195312 C 31.382812 17.589844 28.003906 15 24 15 Z M 18.015625 24.324219 C 18.007812 24.464844 18 24.605469 18 24.75 C 18 28.074219 20.675781 30.75 24 30.75 C 27.324219 30.75 30 28.074219 30 24.75 C 30 24.605469 29.992188 24.464844 29.984375 24.324219 C 29.816406 27.496094 27.214844 30 24 30 C 20.785156 30 18.183594 27.496094 18.015625 24.324219 Z M 7.148438 24.371094 C 7.132812 24.492188 7.125 24.621094 7.125 24.75 C 7.125 26.410156 8.464844 27.75 10.125 27.75 C 11.785156 27.75 13.125 26.410156 13.125 24.75 C 13.125 24.621094 13.117188 24.492188 13.101562 24.371094 C 12.917969 25.855469 11.660156 27 10.125 27 C 8.589844 27 7.332031 25.855469 7.148438 24.371094 Z M 34.890625 24.371094 C 34.875 24.492188 34.863281 24.621094 34.863281 24.75 C 34.863281 26.410156 36.203125 27.75 37.863281 27.75 C 39.527344 27.75 40.863281 26.410156 40.863281 24.75 C 40.863281 24.621094 40.855469 24.492188 40.839844 24.371094 C 40.660156 25.855469 39.402344 27 37.863281 27 C 36.328125 27 35.070312 25.855469 34.890625 24.371094 Z M 34.890625 24.371094 "/>
<path style=" stroke:none;fill-rule:nonzero;fill:url(#linear0);" d="M 6 3 L 42 3 C 43.65625 3 45 4.34375 45 6 L 45 42 C 45 43.65625 43.65625 45 42 45 L 6 45 C 4.34375 45 3 43.65625 3 42 L 3 6 C 3 4.34375 4.34375 3 6 3 Z M 6 3 "/>
</g>
</svg>
