
<svg xmlns="http://www.w3.org/2000/svg" xmlns:xlink="http://www.w3.org/1999/xlink" width="48" height="48" viewBox="0 0 48 48" version="1.1">
<defs>
<linearGradient id="linear0" gradientUnits="userSpaceOnUse" x1="31.999998" y1="60" x2="31.999998" y2="4" gradientTransform="matrix(0.75,0,0,0.75,0,0.000000000000085265)">
<stop offset="0" style="stop-color:rgb(0%,0%,0%);stop-opacity:0.2;"/>
<stop offset="1" style="stop-color:rgb(100%,100%,100%);stop-opacity:0;"/>
</linearGradient>
</defs>
<g id="surface1">
<path style=" stroke:none;fill-rule:nonzero;fill:rgb(38.039216%,38.039216%,38.039216%);fill-opacity:0.996078;" d="M 3.75 40.5 L 44.25 40.5 C 44.664062 40.5 45 40.835938 45 41.25 C 45 41.664062 44.664062 42 44.25 42 L 3.75 42 C 3.335938 42 3 41.664062 3 41.25 C 3 40.835938 3.335938 40.5 3.75 40.5 Z M 3.75 40.5 "/>
<path style=" stroke:none;fill-rule:nonzero;fill:rgb(0.392157%,0.392157%,0.392157%);fill-opacity:0.4;" d="M 3.75 42.003906 C 3.335938 42.003906 3 41.667969 3 41.253906 C 3 41.1875 3.007812 41.125 3.023438 41.066406 C 3.105469 41.390625 3.398438 41.628906 3.75 41.628906 L 44.25 41.628906 C 44.601562 41.628906 44.894531 41.390625 44.976562 41.066406 C 44.992188 41.125 45 41.1875 45 41.253906 C 45 41.667969 44.664062 42.003906 44.25 42.003906 Z M 3.75 42.003906 "/>
<path style=" stroke:none;fill-rule:nonzero;fill:rgb(36.078432%,41.960785%,75.294119%);fill-opacity:1;" d="M 6 2.984375 L 42 2.984375 C 43.65625 2.984375 45 4.328125 45 5.984375 L 45 35.984375 C 45 37.640625 43.65625 38.984375 42 38.984375 L 6 38.984375 C 4.34375 38.984375 3 37.640625 3 35.984375 L 3 5.984375 C 3 4.328125 4.34375 2.984375 6 2.984375 Z M 6 2.984375 "/>
<path style=" stroke:none;fill-rule:nonzero;fill:rgb(25.882354%,64.705884%,96.078432%);fill-opacity:1;" d="M 3.390625 4.5 L 24 20.984375 L 4.054688 38.269531 C 3.410156 37.722656 3 36.902344 3 35.984375 L 3 5.984375 C 3 5.445312 3.144531 4.9375 3.390625 4.5 Z M 3.390625 4.5 "/>
<path style=" stroke:none;fill-rule:nonzero;fill:rgb(47.058824%,56.470591%,61.176473%);fill-opacity:1;" d="M 24 20.984375 L 3.949219 38.171875 C 4.484375 38.675781 5.203125 38.984375 6 38.984375 L 42 38.984375 C 42.796875 38.984375 43.515625 38.675781 44.050781 38.171875 Z M 24 20.984375 "/>
<path style=" stroke:none;fill-rule:nonzero;fill:rgb(92.54902%,25.098041%,47.843137%);fill-opacity:1;" d="M 44.605469 4.5 L 24 20.984375 L 43.945312 38.269531 C 44.589844 37.722656 45 36.902344 45 35.984375 L 45 5.984375 C 45 5.445312 44.855469 4.9375 44.605469 4.5 Z M 44.605469 4.5 "/>
<path style=" stroke:none;fill-rule:nonzero;fill:rgb(0.392157%,0.392157%,0.392157%);fill-opacity:0.4;" d="M 3 35.234375 L 3 35.984375 C 3 37.648438 4.339844 38.984375 6 38.984375 L 42 38.984375 C 43.660156 38.984375 45 37.648438 45 35.984375 L 45 35.234375 C 45 36.898438 43.660156 38.234375 42 38.234375 L 6 38.234375 C 4.339844 38.234375 3 36.898438 3 35.234375 Z M 3 35.234375 "/>
<path style=" stroke:none;fill-rule:nonzero;fill:rgb(100%,100%,100%);fill-opacity:0.4;" d="M 3.75 40.5 C 3.335938 40.5 3 40.835938 3 41.25 C 3 41.316406 3.007812 41.378906 3.023438 41.4375 C 3.105469 41.113281 3.398438 40.875 3.75 40.875 L 44.25 40.875 C 44.601562 40.875 44.894531 41.113281 44.976562 41.4375 C 44.992188 41.378906 45 41.316406 45 41.25 C 45 40.835938 44.664062 40.5 44.25 40.5 Z M 3.75 40.5 "/>
<path style=" stroke:none;fill-rule:nonzero;fill:rgb(38.039216%,38.039216%,38.039216%);fill-opacity:1;" d="M 19.125 34.5 L 19.875 34.5 C 20.082031 34.5 20.25 34.667969 20.25 34.875 L 20.25 38.625 C 20.25 38.832031 20.082031 39 19.875 39 L 19.125 39 C 18.917969 39 18.75 38.832031 18.75 38.625 L 18.75 34.875 C 18.75 34.667969 18.917969 34.5 19.125 34.5 Z M 19.125 34.5 "/>
<path style=" stroke:none;fill-rule:nonzero;fill:rgb(100%,100%,100%);fill-opacity:0.4;" d="M 19.105469 34.5 C 18.90625 34.511719 18.75 34.671875 18.75 34.875 L 18.75 35.230469 C 18.761719 35.03125 18.921875 34.875 19.125 34.875 L 19.875 34.875 C 20.078125 34.875 20.238281 35.03125 20.25 35.230469 L 20.25 34.875 C 20.25 34.667969 20.082031 34.5 19.875 34.5 L 19.125 34.5 C 19.117188 34.5 19.113281 34.5 19.105469 34.5 Z M 19.105469 34.5 "/>
<path style=" stroke:none;fill-rule:nonzero;fill:rgb(38.039216%,38.039216%,38.039216%);fill-opacity:1;" d="M 22.125 34.5 L 22.875 34.5 C 23.082031 34.5 23.25 34.667969 23.25 34.875 L 23.25 38.625 C 23.25 38.832031 23.082031 39 22.875 39 L 22.125 39 C 21.917969 39 21.75 38.832031 21.75 38.625 L 21.75 34.875 C 21.75 34.667969 21.917969 34.5 22.125 34.5 Z M 22.125 34.5 "/>
<path style=" stroke:none;fill-rule:nonzero;fill:rgb(100%,100%,100%);fill-opacity:0.4;" d="M 22.105469 34.5 C 21.90625 34.511719 21.75 34.671875 21.75 34.875 L 21.75 35.230469 C 21.761719 35.03125 21.921875 34.875 22.125 34.875 L 22.875 34.875 C 23.078125 34.875 23.238281 35.03125 23.25 35.230469 L 23.25 34.875 C 23.25 34.667969 23.082031 34.5 22.875 34.5 L 22.125 34.5 C 22.117188 34.5 22.113281 34.5 22.105469 34.5 Z M 22.105469 34.5 "/>
<path style=" stroke:none;fill-rule:nonzero;fill:rgb(38.039216%,38.039216%,38.039216%);fill-opacity:1;" d="M 25.125 34.5 L 25.875 34.5 C 26.082031 34.5 26.25 34.667969 26.25 34.875 L 26.25 38.625 C 26.25 38.832031 26.082031 39 25.875 39 L 25.125 39 C 24.917969 39 24.75 38.832031 24.75 38.625 L 24.75 34.875 C 24.75 34.667969 24.917969 34.5 25.125 34.5 Z M 25.125 34.5 "/>
<path style=" stroke:none;fill-rule:nonzero;fill:rgb(100%,100%,100%);fill-opacity:0.4;" d="M 25.105469 34.5 C 24.90625 34.511719 24.75 34.671875 24.75 34.875 L 24.75 35.230469 C 24.761719 35.03125 24.921875 34.875 25.125 34.875 L 25.875 34.875 C 26.078125 34.875 26.238281 35.03125 26.25 35.230469 L 26.25 34.875 C 26.25 34.667969 26.082031 34.5 25.875 34.5 L 25.125 34.5 C 25.117188 34.5 25.113281 34.5 25.105469 34.5 Z M 25.105469 34.5 "/>
<path style=" stroke:none;fill-rule:nonzero;fill:rgb(38.039216%,38.039216%,38.039216%);fill-opacity:1;" d="M 28.125 34.5 L 28.875 34.5 C 29.082031 34.5 29.25 34.667969 29.25 34.875 L 29.25 38.625 C 29.25 38.832031 29.082031 39 28.875 39 L 28.125 39 C 27.917969 39 27.75 38.832031 27.75 38.625 L 27.75 34.875 C 27.75 34.667969 27.917969 34.5 28.125 34.5 Z M 28.125 34.5 "/>
<path style=" stroke:none;fill-rule:nonzero;fill:rgb(100%,100%,100%);fill-opacity:0.4;" d="M 28.105469 34.5 C 27.90625 34.511719 27.75 34.671875 27.75 34.875 L 27.75 35.230469 C 27.761719 35.03125 27.921875 34.875 28.125 34.875 L 28.875 34.875 C 29.078125 34.875 29.238281 35.03125 29.25 35.230469 L 29.25 34.875 C 29.25 34.667969 29.082031 34.5 28.875 34.5 L 28.125 34.5 C 28.117188 34.5 28.113281 34.5 28.105469 34.5 Z M 28.105469 34.5 "/>
<path style=" stroke:none;fill-rule:nonzero;fill:rgb(87.843138%,87.843138%,87.843138%);fill-opacity:1;" d="M 18 37.5 L 30 37.5 C 30.828125 37.5 31.5 38.171875 31.5 39 L 31.5 43.5 C 31.5 44.328125 30.828125 45 30 45 L 18 45 C 17.171875 45 16.5 44.328125 16.5 43.5 L 16.5 39 C 16.5 38.171875 17.171875 37.5 18 37.5 Z M 18 37.5 "/>
<path style=" stroke:none;fill-rule:nonzero;fill:rgb(87.843138%,87.843138%,87.843138%);fill-opacity:1;" d="M 6 2.984375 C 4.339844 2.984375 3 4.324219 3 5.984375 L 45 5.984375 C 45 4.324219 43.660156 2.984375 42 2.984375 Z M 6 2.984375 "/>
<path style=" stroke:none;fill-rule:nonzero;fill:rgb(0%,0%,0%);fill-opacity:0.4;" d="M 3 6 L 3 6.75 L 45 6.75 L 45 6 Z M 16.5 42.75 L 16.5 43.5 C 16.5 44.332031 17.167969 45 18 45 L 30 45 C 30.832031 45 31.5 44.332031 31.5 43.5 L 31.5 42.75 C 31.5 43.582031 30.832031 44.25 30 44.25 L 18 44.25 C 17.167969 44.25 16.5 43.582031 16.5 42.75 Z M 16.5 42.75 "/>
<path style=" stroke:none;fill-rule:nonzero;fill:rgb(56.470591%,64.313728%,68.235296%);fill-opacity:0.996078;" d="M 26.25 15 C 29.148438 15 31.5 17.351562 31.5 20.25 C 31.5 23.148438 29.148438 25.5 26.25 25.5 C 23.351562 25.5 21 23.148438 21 20.25 C 21 17.351562 23.351562 15 26.25 15 Z M 26.25 15 "/>
<path style=" stroke:none;fill-rule:nonzero;fill:rgb(100%,100%,100%);fill-opacity:0.6;" d="M 6 2.984375 C 4.339844 2.984375 3 4.324219 3 5.984375 L 3.09375 5.984375 C 3.417969 4.679688 4.589844 3.714844 6 3.714844 L 42 3.714844 C 43.410156 3.714844 44.582031 4.679688 44.90625 5.984375 L 45 5.984375 C 45 4.324219 43.660156 2.984375 42 2.984375 Z M 18 37.519531 C 17.167969 37.519531 16.5 38.191406 16.5 39.019531 L 16.5 39.75 C 16.5 38.917969 17.167969 38.25 18 38.25 L 30 38.25 C 30.832031 38.25 31.5 38.917969 31.5 39.75 L 31.5 39.019531 C 31.5 38.191406 30.832031 37.519531 30 37.519531 Z M 18 37.519531 "/>
<path style=" stroke:none;fill-rule:nonzero;fill:rgb(56.470591%,64.313728%,68.235296%);fill-opacity:0.996078;" d="M 20.25 18 C 22.320312 18 24 19.679688 24 21.75 C 24 23.820312 22.320312 25.5 20.25 25.5 C 18.179688 25.5 16.5 23.820312 16.5 21.75 C 16.5 19.679688 18.179688 18 20.25 18 Z M 20.25 18 "/>
<path style=" stroke:none;fill-rule:nonzero;fill:rgb(100%,100%,100%);fill-opacity:0.4;" d="M 26.25 15 C 24.074219 15 22.21875 16.308594 21.417969 18.183594 C 21.050781 18.066406 20.660156 18 20.25 18 C 18.171875 18 16.5 19.671875 16.5 21.75 C 16.5 21.8125 16.5 21.871094 16.503906 21.933594 C 16.605469 19.945312 18.238281 18.375 20.25 18.375 C 20.660156 18.375 21.050781 18.441406 21.417969 18.558594 C 22.21875 16.683594 24.074219 15.375 26.25 15.375 C 29.089844 15.375 31.386719 17.605469 31.496094 20.417969 C 31.496094 20.363281 31.5 20.304688 31.5 20.25 C 31.5 17.339844 29.160156 15 26.25 15 Z M 26.25 15 "/>
<path style=" stroke:none;fill-rule:nonzero;fill:rgb(81.176472%,84.705883%,86.274511%);fill-opacity:0.996078;" d="M 23.207031 18 C 20.523438 18 18.320312 19.996094 18 22.589844 C 17.761719 22.53125 17.511719 22.5 17.253906 22.5 L 17.160156 22.5 C 15.527344 22.5 14.207031 23.773438 14.207031 25.359375 L 14.207031 25.640625 C 14.207031 27.226562 15.527344 28.5 17.160156 28.5 L 29.207031 28.5 C 31.703125 28.5 33.707031 26.492188 33.707031 24 C 33.707031 21.507812 31.703125 19.5 29.207031 19.5 C 28.519531 19.5 27.863281 19.65625 27.28125 19.929688 C 26.320312 18.75 24.855469 18 23.207031 18 Z M 23.207031 18 "/>
<path style=" stroke:none;fill-rule:nonzero;fill:rgb(50.588238%,78.039217%,51.764709%);fill-opacity:1;" d="M 24 39.375 C 25.035156 39.375 25.875 40.214844 25.875 41.25 C 25.875 42.285156 25.035156 43.125 24 43.125 C 22.964844 43.125 22.125 42.285156 22.125 41.25 C 22.125 40.214844 22.964844 39.375 24 39.375 Z M 24 39.375 "/>
<path style=" stroke:none;fill-rule:nonzero;fill:rgb(40.000001%,73.333335%,41.568628%);fill-opacity:1;" d="M 25.765625 40.613281 C 24.488281 40.820312 23.304688 41.296875 22.273438 41.988281 C 22.558594 42.65625 23.222656 43.125 24 43.125 C 25.039062 43.125 25.875 42.289062 25.875 41.25 C 25.875 41.027344 25.835938 40.8125 25.765625 40.613281 Z M 25.765625 40.613281 "/>
<path style=" stroke:none;fill-rule:nonzero;fill:rgb(99.215686%,99.215686%,99.215686%);fill-opacity:0.4;" d="M 23.953125 39.375 C 22.933594 39.402344 22.125 40.226562 22.125 41.25 C 22.125 41.3125 22.128906 41.375 22.136719 41.4375 C 22.230469 40.488281 23.023438 39.75 24 39.75 C 24.976562 39.75 25.769531 40.488281 25.863281 41.4375 C 25.871094 41.375 25.875 41.3125 25.875 41.25 C 25.875 40.210938 25.039062 39.375 24 39.375 C 23.984375 39.375 23.96875 39.375 23.953125 39.375 Z M 23.953125 39.375 "/>
<path style=" stroke:none;fill-rule:nonzero;fill:rgb(0%,0%,0%);fill-opacity:0.4;" d="M 23.953125 43.5 C 22.933594 43.472656 22.125 42.648438 22.125 41.625 C 22.125 41.5625 22.128906 41.5 22.136719 41.4375 C 22.230469 42.386719 23.023438 43.125 24 43.125 C 24.976562 43.125 25.769531 42.386719 25.863281 41.4375 C 25.871094 41.5 25.875 41.5625 25.875 41.625 C 25.875 42.664062 25.039062 43.5 24 43.5 C 23.984375 43.5 23.96875 43.5 23.953125 43.5 Z M 23.953125 43.5 "/>
<path style=" stroke:none;fill-rule:nonzero;fill:rgb(100%,100%,100%);fill-opacity:0.4;" d="M 23.207031 18 C 20.523438 18 18.320312 19.996094 18 22.589844 C 17.761719 22.53125 17.511719 22.5 17.253906 22.5 L 17.160156 22.5 C 15.527344 22.5 14.207031 23.773438 14.207031 25.359375 L 14.207031 25.640625 C 14.207031 25.71875 14.210938 25.796875 14.21875 25.875 C 14.339844 24.402344 15.609375 23.25 17.160156 23.25 L 17.253906 23.25 C 17.511719 23.25 17.761719 23.28125 18 23.339844 C 18.320312 20.746094 20.523438 18.75 23.207031 18.75 C 24.855469 18.75 26.320312 19.5 27.28125 20.679688 C 27.863281 20.40625 28.519531 20.25 29.207031 20.25 C 31.574219 20.25 33.503906 22.058594 33.691406 24.375 C 33.703125 24.25 33.707031 24.125 33.707031 24 C 33.707031 21.507812 31.703125 19.5 29.207031 19.5 C 28.519531 19.5 27.863281 19.65625 27.28125 19.929688 C 26.320312 18.75 24.855469 18 23.207031 18 Z M 23.207031 18 "/>
<path style=" stroke:none;fill-rule:nonzero;fill:rgb(0%,0%,0%);fill-opacity:0.4;" d="M 33.695312 24.347656 C 33.519531 26.675781 31.585938 28.5 29.207031 28.5 L 17.160156 28.5 C 15.597656 28.5 14.328125 27.335938 14.21875 25.847656 C 14.210938 25.914062 14.207031 25.984375 14.207031 26.054688 L 14.207031 26.335938 C 14.207031 27.917969 15.527344 29.195312 17.160156 29.195312 L 29.207031 29.195312 C 31.703125 29.195312 33.707031 27.1875 33.707031 24.695312 C 33.707031 24.578125 33.703125 24.460938 33.695312 24.347656 Z M 33.695312 24.347656 "/>
<path style=" stroke:none;fill-rule:nonzero;fill:url(#linear0);" d="M 5.984375 3 C 4.332031 3 3 4.332031 3 5.984375 L 3 36.015625 C 3 37.667969 4.332031 39 5.984375 39 L 16.5 39 L 16.5 40.5 L 3.75 40.5 C 3.335938 40.5 3 40.835938 3 41.25 C 3 41.664062 3.335938 42 3.75 42 L 16.5 42 L 16.5 43.5 C 16.5 44.332031 17.167969 45 18 45 L 30 45 C 30.832031 45 31.5 44.332031 31.5 43.5 L 31.5 42 L 44.25 42 C 44.664062 42 45 41.664062 45 41.25 C 45 40.835938 44.664062 40.5 44.25 40.5 L 31.5 40.5 L 31.5 39 L 42.015625 39 C 43.667969 39 45 37.667969 45 36.015625 L 45 5.984375 C 45 4.332031 43.667969 3 42.015625 3 Z M 5.984375 3 "/>
<path style=" stroke:none;fill-rule:nonzero;fill:rgb(0%,0%,0%);fill-opacity:0.2;" d="M 3 36.027344 L 3 37.140625 C 3 38.792969 4.332031 40.125 5.984375 40.125 L 16.5 40.125 L 16.5 39.011719 L 5.984375 39.011719 C 4.332031 39.011719 3 37.679688 3 36.027344 Z M 45 36.027344 C 45 37.679688 43.667969 39.011719 42.015625 39.011719 L 31.5 39.011719 L 31.5 40.125 L 42.015625 40.125 C 43.667969 40.125 45 38.792969 45 37.140625 Z M 3.25 41.816406 C 3.097656 41.957031 3 42.152344 3 42.375 C 3 42.789062 3.335938 43.125 3.75 43.125 L 16.5 43.125 L 16.5 42.011719 L 3.75 42.011719 C 3.558594 42.011719 3.382812 41.9375 3.25 41.816406 Z M 44.75 41.816406 C 44.617188 41.9375 44.441406 42.011719 44.25 42.011719 L 31.5 42.011719 L 31.5 43.125 L 44.25 43.125 C 44.664062 43.125 45 42.789062 45 42.375 C 45 42.152344 44.902344 41.957031 44.75 41.816406 Z M 16.5 43.511719 L 16.5 44.625 C 16.5 45.457031 17.167969 46.125 18 46.125 L 30 46.125 C 30.832031 46.125 31.5 45.457031 31.5 44.625 L 31.5 43.511719 C 31.5 44.34375 30.832031 45.011719 30 45.011719 L 18 45.011719 C 17.167969 45.011719 16.5 44.34375 16.5 43.511719 Z M 16.5 43.511719 "/>
</g>
</svg>
