
<svg xmlns="http://www.w3.org/2000/svg" xmlns:xlink="http://www.w3.org/1999/xlink" width="48" height="48" viewBox="0 0 48 48" version="1.1">
<defs>
<linearGradient id="linear0" gradientUnits="userSpaceOnUse" x1="8.466666" y1="-199.125" x2="8.466666" y2="-213.941666" gradientTransform="matrix(2.834646,0,0,2.834646,0,609.448851)">
<stop offset="0" style="stop-color:rgb(0%,0%,0%);stop-opacity:0.2;"/>
<stop offset="1" style="stop-color:rgb(100%,100%,100%);stop-opacity:0;"/>
</linearGradient>
</defs>
<g id="surface1">
<path style=" stroke:none;fill-rule:nonzero;fill:rgb(87.843138%,87.843138%,87.843138%);fill-opacity:1;" d="M 24 2.996094 C 35.601562 2.996094 45.003906 12.398438 45.003906 24 C 45.003906 35.597656 35.601562 45.003906 24 45.003906 C 12.398438 45.003906 2.996094 35.597656 2.996094 24 C 2.996094 12.398438 12.398438 2.996094 24 2.996094 Z M 24 2.996094 "/>
<path style=" stroke:none;fill-rule:nonzero;fill:rgb(36.078432%,41.960785%,75.294119%);fill-opacity:1;" d="M 24 6 C 33.941406 6 42 14.058594 42 24 C 42 33.9375 33.941406 41.996094 24 41.996094 C 14.058594 41.996094 6 33.9375 6 24 C 6 14.058594 14.058594 6 24 6 Z M 24 6 "/>
<path style=" stroke:none;fill-rule:nonzero;fill:rgb(100%,100%,100%);fill-opacity:0.4;" d="M 24 3 C 12.402344 3 3 12.402344 3 24 C 3 24.125 3.003906 24.25 3.007812 24.375 C 3.207031 12.949219 12.527344 3.75 24 3.75 C 35.472656 3.75 44.792969 12.949219 44.996094 24.375 C 44.996094 24.25 45 24.125 45 24 C 45 12.402344 35.597656 3 24 3 Z M 24 3 "/>
<path style=" stroke:none;fill-rule:nonzero;fill:rgb(0%,0%,0%);fill-opacity:0.4;" d="M 3.011719 23.621094 C 3.007812 23.742188 3 23.867188 3 23.992188 C 3 35.589844 12.402344 44.992188 24 44.992188 C 35.597656 44.992188 45 35.589844 45 23.992188 C 45 23.867188 44.992188 23.742188 44.988281 23.621094 C 44.789062 35.042969 35.472656 44.246094 24 44.246094 C 12.527344 44.246094 3.210938 35.042969 3.011719 23.621094 Z M 3.011719 23.621094 "/>
<path style=" stroke:none;fill-rule:nonzero;fill:rgb(0%,0%,0%);fill-opacity:0.2;" d="M 3.011719 24.5625 C 3.003906 24.75 3 24.9375 3 25.125 C 3 36.722656 12.402344 46.125 24 46.125 C 35.597656 46.125 45 36.722656 45 25.125 C 45 24.9375 44.996094 24.75 44.988281 24.5625 C 44.691406 35.898438 35.410156 44.996094 24 44.996094 C 12.589844 44.996094 3.308594 35.898438 3.011719 24.5625 Z M 3.011719 24.5625 "/>
<path style=" stroke:none;fill-rule:nonzero;fill:rgb(0%,0%,0%);fill-opacity:0.4;" d="M 24 6 C 14.027344 6 6 14.027344 6 24 C 6 24.121094 6 24.246094 6.003906 24.367188 C 6.199219 14.566406 14.152344 6.738281 24 6.738281 C 33.847656 6.738281 41.800781 14.566406 41.996094 24.367188 C 41.996094 24.246094 42 24.121094 42 24 C 42 14.027344 33.972656 6 24 6 Z M 24 6 "/>
<path style=" stroke:none;fill-rule:nonzero;fill:rgb(100%,100%,100%);fill-opacity:0.4;" d="M 24 42.75 C 14.027344 42.75 6 34.722656 6 24.75 C 6 24.628906 6 24.503906 6.003906 24.382812 C 6.199219 34.183594 14.152344 42.011719 24 42.011719 C 33.847656 42.011719 41.800781 34.183594 41.996094 24.382812 C 41.996094 24.503906 42 24.628906 42 24.75 C 42 34.722656 33.972656 42.75 24 42.75 Z M 24 42.75 "/>
<path style=" stroke:none;fill-rule:nonzero;fill:rgb(87.843138%,87.843138%,87.843138%);fill-opacity:1;" d="M 26.15625 9.75 C 25.378906 9.75 24.75 10.417969 24.75 11.25 L 24.75 26.25 C 24.75 27.910156 26.089844 29.25 27.75 29.25 L 32.25 29.25 C 33.910156 29.25 35.25 27.910156 35.25 26.25 L 35.25 21.75 C 35.25 20.089844 33.910156 18.75 32.25 18.75 L 27.75 18.75 L 27.75 11.25 C 27.75 10.417969 27.121094 9.75 26.34375 9.75 Z M 15.75 18.75 C 14.089844 18.75 12.75 20.089844 12.75 21.75 L 12.75 26.25 C 12.75 27.910156 14.089844 29.25 15.75 29.25 L 20.25 29.25 L 20.25 36.75 C 20.25 37.582031 20.878906 38.25 21.65625 38.25 L 21.84375 38.25 C 22.621094 38.25 23.25 37.582031 23.25 36.75 L 23.25 21.75 C 23.25 20.089844 21.910156 18.75 20.25 18.75 Z M 17.210938 21.75 C 17.222656 21.75 17.238281 21.75 17.25 21.75 L 18.75 21.75 C 19.582031 21.75 20.25 22.417969 20.25 23.25 L 20.25 24.75 C 20.25 25.582031 19.582031 26.25 18.75 26.25 L 17.25 26.25 C 16.417969 26.25 15.75 25.582031 15.75 24.75 L 15.75 23.25 C 15.75 22.433594 16.398438 21.769531 17.210938 21.75 Z M 29.25 21.75 L 30.75 21.75 C 31.582031 21.75 32.25 22.417969 32.25 23.25 L 32.25 24.75 C 32.25 25.566406 31.601562 26.230469 30.789062 26.25 C 30.777344 26.25 30.761719 26.25 30.75 26.25 L 29.25 26.25 C 28.417969 26.25 27.75 25.582031 27.75 24.75 L 27.75 23.25 C 27.75 22.417969 28.417969 21.75 29.25 21.75 Z M 29.25 21.75 "/>
<path style=" stroke:none;fill-rule:nonzero;fill:rgb(100%,100%,100%);fill-opacity:0.8;" d="M 26.15625 9.75 C 25.378906 9.75 24.75 10.417969 24.75 11.25 L 24.75 12 C 24.75 11.167969 25.378906 10.5 26.15625 10.5 L 26.34375 10.5 C 27.121094 10.5 27.75 11.167969 27.75 12 L 27.75 11.25 C 27.75 10.417969 27.121094 9.75 26.34375 9.75 Z M 15.75 18.75 C 14.089844 18.75 12.75 20.089844 12.75 21.75 L 12.75 22.5 C 12.75 20.839844 14.089844 19.5 15.75 19.5 L 20.25 19.5 C 21.910156 19.5 23.25 20.839844 23.25 22.5 L 23.25 21.75 C 23.25 20.089844 21.910156 18.75 20.25 18.75 Z M 27.75 18.75 L 27.75 19.5 L 32.25 19.5 C 33.910156 19.5 35.25 20.839844 35.25 22.5 L 35.25 21.75 C 35.25 20.089844 33.910156 18.75 32.25 18.75 Z M 15.75 24.75 L 15.75 25.5 C 15.75 26.332031 16.417969 27 17.25 27 L 18.75 27 C 19.582031 27 20.25 26.332031 20.25 25.5 L 20.25 24.75 C 20.25 25.582031 19.582031 26.25 18.75 26.25 L 17.25 26.25 C 16.417969 26.25 15.75 25.582031 15.75 24.75 Z M 27.75 24.75 L 27.75 25.5 C 27.75 26.332031 28.417969 27 29.25 27 L 30.75 27 C 30.761719 27 30.777344 27 30.789062 27 C 31.601562 26.980469 32.25 26.316406 32.25 25.5 L 32.25 24.75 C 32.25 25.566406 31.601562 26.230469 30.789062 26.25 C 30.777344 26.25 30.761719 26.25 30.75 26.25 L 29.25 26.25 C 28.417969 26.25 27.75 25.582031 27.75 24.75 Z M 27.75 24.75 "/>
<path style=" stroke:none;fill-rule:nonzero;fill:rgb(0%,0%,0%);fill-opacity:0.4;" d="M 17.210938 21.75 C 16.398438 21.769531 15.75 22.433594 15.75 23.25 L 15.75 23.996094 C 15.75 23.175781 16.398438 22.515625 17.210938 22.496094 C 17.222656 22.496094 17.238281 22.496094 17.25 22.496094 L 18.75 22.496094 C 19.582031 22.496094 20.25 23.164062 20.25 23.996094 L 20.25 23.25 C 20.25 22.417969 19.582031 21.75 18.75 21.75 L 17.25 21.75 C 17.238281 21.75 17.222656 21.75 17.210938 21.75 Z M 29.25 21.75 C 28.417969 21.75 27.75 22.417969 27.75 23.25 L 27.75 23.996094 C 27.75 23.164062 28.417969 22.496094 29.25 22.496094 L 30.75 22.496094 C 31.582031 22.496094 32.25 23.164062 32.25 23.996094 L 32.25 23.25 C 32.25 22.417969 31.582031 21.75 30.75 21.75 Z M 12.75 26.25 L 12.75 26.996094 C 12.75 28.65625 14.089844 29.996094 15.75 29.996094 L 20.25 29.996094 L 20.25 29.25 L 15.75 29.25 C 14.089844 29.25 12.75 27.910156 12.75 26.25 Z M 24.75 26.25 L 24.75 26.996094 C 24.75 28.65625 26.089844 29.996094 27.75 29.996094 L 32.25 29.996094 C 33.910156 29.996094 35.25 28.65625 35.25 26.996094 L 35.25 26.25 C 35.25 27.910156 33.910156 29.25 32.25 29.25 L 27.75 29.25 C 26.089844 29.25 24.75 27.910156 24.75 26.25 Z M 20.25 36.75 L 20.25 37.496094 C 20.25 38.328125 20.878906 38.996094 21.65625 38.996094 L 21.84375 38.996094 C 22.621094 38.996094 23.25 38.328125 23.25 37.496094 L 23.25 36.75 C 23.25 37.582031 22.621094 38.25 21.84375 38.25 L 21.65625 38.25 C 20.878906 38.25 20.25 37.582031 20.25 36.75 Z M 20.25 36.75 "/>
<path style=" stroke:none;fill-rule:nonzero;fill:url(#linear0);" d="M 24 3 C 35.597656 3 45 12.402344 45 24 C 45 35.597656 35.597656 44.996094 24 44.996094 C 12.402344 44.996094 3 35.597656 3 24 C 3 12.402344 12.402344 3 24 3 Z M 24 3 "/>
</g>
</svg>
