
<svg xmlns="http://www.w3.org/2000/svg" xmlns:xlink="http://www.w3.org/1999/xlink" width="48" height="48" viewBox="0 0 48 48" version="1.1">
<defs>
<linearGradient id="linear0" gradientUnits="userSpaceOnUse" x1="32" y1="53.999996" x2="32" y2="13.999999" gradientTransform="matrix(0.75,0,0,0.75,0.0337143,-3.000003)">
<stop offset="0" style="stop-color:rgb(0%,0%,0%);stop-opacity:0.2;"/>
<stop offset="1" style="stop-color:rgb(100%,100%,100%);stop-opacity:0;"/>
</linearGradient>
</defs>
<g id="surface1">
<path style=" stroke:none;fill-rule:nonzero;fill:rgb(69.01961%,74.509805%,77.254903%);fill-opacity:1;" d="M 45 15.75 L 45 34.5 C 45 36.160156 43.660156 37.5 42 37.5 C 36 37.5 39 27 28.5 22.5 L 40.714844 15.75 Z M 45 15.75 "/>
<path style=" stroke:none;fill-rule:nonzero;fill:rgb(69.01961%,74.509805%,77.254903%);fill-opacity:1;" d="M 3 15.75 L 3 34.5 C 3 36.160156 4.339844 37.5 6 37.5 C 12 37.5 9 27 19.5 22.5 L 7.285156 15.75 Z M 3 15.75 "/>
<path style=" stroke:none;fill-rule:nonzero;fill:rgb(0%,0%,0%);fill-opacity:0.4;" d="M 18.753906 22.089844 C 9.144531 26.753906 11.851562 36.746094 6 36.746094 C 4.339844 36.746094 3 35.40625 3 33.746094 L 3 34.5 C 3 36.160156 4.339844 37.5 6 37.5 C 12 37.5 9 27 19.5 22.5 Z M 29.246094 22.089844 L 28.5 22.5 C 39 27 36 37.5 42 37.5 C 43.660156 37.5 45 36.160156 45 34.5 L 45 33.746094 C 45 35.40625 43.660156 36.746094 42 36.746094 C 36.148438 36.746094 38.855469 26.753906 29.246094 22.089844 Z M 29.246094 22.089844 "/>
<path style=" stroke:none;fill-rule:nonzero;fill:rgb(0%,0%,0%);fill-opacity:0.4;" d="M 3.007812 16.875 C 3.003906 17 3 17.125 3 17.25 C 3 22.234375 7.015625 26.25 12 26.25 C 12.890625 26.25 13.75 26.117188 14.5625 25.878906 C 14.984375 25.429688 15.457031 24.992188 15.980469 24.574219 C 14.78125 25.164062 13.433594 25.5 12 25.5 C 7.140625 25.5 3.203125 21.683594 3.007812 16.875 Z M 44.992188 16.875 C 44.796875 21.683594 40.859375 25.5 36 25.5 C 34.566406 25.5 33.21875 25.164062 32.019531 24.574219 C 32.542969 24.992188 33.015625 25.429688 33.441406 25.878906 C 34.25 26.117188 35.109375 26.25 36 26.25 C 40.984375 26.25 45 22.234375 45 17.25 C 45 17.125 44.996094 17 44.992188 16.875 Z M 18.71875 22.5 C 18.472656 22.777344 18.203125 23.035156 17.925781 23.277344 C 18.414062 23.003906 18.933594 22.742188 19.5 22.5 Z M 28.5 22.5 C 29.066406 22.742188 29.585938 23.003906 30.074219 23.277344 C 29.796875 23.035156 29.527344 22.777344 29.28125 22.5 Z M 28.5 22.5 "/>
<path style=" stroke:none;fill-rule:nonzero;fill:rgb(81.176472%,84.705883%,86.274511%);fill-opacity:1;" d="M 12 7.5 C 7.015625 7.5 3 11.515625 3 16.5 C 3 21.484375 7.015625 25.5 12 25.5 C 14.675781 25.5 17.070312 24.34375 18.71875 22.5 L 29.28125 22.5 C 30.929688 24.34375 33.324219 25.5 36 25.5 C 40.984375 25.5 45 21.484375 45 16.5 C 45 11.515625 40.984375 7.5 36 7.5 Z M 12 7.5 "/>
<path style=" stroke:none;fill-rule:nonzero;fill:rgb(100%,100%,100%);fill-opacity:0.4;" d="M 4.503906 16.6875 C 4.503906 16.75 4.5 16.8125 4.5 16.875 C 4.5 21.03125 7.84375 24.375 12 24.375 C 14.464844 24.375 16.640625 23.199219 18.007812 21.375 L 29.992188 21.375 C 31.359375 23.199219 33.535156 24.375 36 24.375 C 40.15625 24.375 43.5 21.03125 43.5 16.875 C 43.5 16.8125 43.496094 16.75 43.496094 16.6875 C 43.398438 20.753906 40.09375 24 36 24 C 33.535156 24 31.359375 22.824219 29.992188 21 L 18.007812 21 C 16.640625 22.824219 14.464844 24 12 24 C 7.90625 24 4.605469 20.753906 4.503906 16.6875 Z M 4.503906 16.6875 "/>
<path style=" stroke:none;fill-rule:nonzero;fill:rgb(69.01961%,74.509805%,77.254903%);fill-opacity:1;" d="M 12 9 C 7.84375 9 4.5 12.34375 4.5 16.5 C 4.5 20.65625 7.84375 24 12 24 C 14.464844 24 16.640625 22.824219 18.007812 21 L 29.992188 21 C 31.359375 22.824219 33.535156 24 36 24 C 40.15625 24 43.5 20.65625 43.5 16.5 C 43.5 12.34375 40.15625 9 36 9 Z M 12 9 "/>
<path style=" stroke:none;fill-rule:nonzero;fill:rgb(56.470591%,64.313728%,68.235296%);fill-opacity:1;" d="M 20.636719 13.125 L 27.386719 13.125 C 28.007812 13.125 28.511719 13.628906 28.511719 14.25 C 28.511719 14.871094 28.007812 15.375 27.386719 15.375 L 20.636719 15.375 C 20.015625 15.375 19.511719 14.871094 19.511719 14.25 C 19.511719 13.628906 20.015625 13.125 20.636719 13.125 Z M 20.636719 13.125 "/>
<path style=" stroke:none;fill-rule:nonzero;fill:rgb(4.313726%,5.490196%,5.882353%);fill-opacity:0.4;" d="M 20.636719 13.125 C 20.011719 13.125 19.511719 13.625 19.511719 14.25 C 19.511719 14.3125 19.519531 14.375 19.527344 14.4375 C 19.617188 13.90625 20.078125 13.5 20.636719 13.5 L 27.386719 13.5 C 27.945312 13.5 28.40625 13.90625 28.496094 14.4375 C 28.507812 14.375 28.511719 14.3125 28.511719 14.25 C 28.511719 13.625 28.011719 13.125 27.386719 13.125 Z M 20.636719 13.125 "/>
<path style=" stroke:none;fill-rule:nonzero;fill:rgb(99.215686%,99.215686%,99.607843%);fill-opacity:0.4;" d="M 20.636719 15.75 C 20.011719 15.75 19.511719 15.25 19.511719 14.625 C 19.511719 14.5625 19.519531 14.5 19.527344 14.4375 C 19.617188 14.96875 20.078125 15.375 20.636719 15.375 L 27.386719 15.375 C 27.945312 15.375 28.40625 14.96875 28.496094 14.4375 C 28.507812 14.5 28.511719 14.5625 28.511719 14.625 C 28.511719 15.25 28.011719 15.75 27.386719 15.75 Z M 20.636719 15.75 "/>
<path style=" stroke:none;fill-rule:nonzero;fill:rgb(38.039216%,38.039216%,38.039216%);fill-opacity:1;" d="M 20.824219 13.5 L 22.699219 13.5 C 23.011719 13.5 23.261719 13.753906 23.261719 14.0625 C 23.261719 14.375 23.011719 14.625 22.699219 14.625 L 20.824219 14.625 C 20.511719 14.625 20.261719 14.375 20.261719 14.0625 C 20.261719 13.753906 20.511719 13.5 20.824219 13.5 Z M 20.824219 13.5 "/>
<path style=" stroke:none;fill-rule:nonzero;fill:rgb(38.039216%,38.039216%,38.039216%);fill-opacity:1;" d="M 25.324219 13.5 L 27.199219 13.5 C 27.511719 13.5 27.761719 13.753906 27.761719 14.0625 C 27.761719 14.375 27.511719 14.625 27.199219 14.625 L 25.324219 14.625 C 25.011719 14.625 24.761719 14.375 24.761719 14.0625 C 24.761719 13.753906 25.011719 13.5 25.324219 13.5 Z M 25.324219 13.5 "/>
<path style=" stroke:none;fill-rule:nonzero;fill:rgb(38.039216%,38.039216%,38.039216%);fill-opacity:1;" d="M 20.824219 13.5 L 22.699219 13.5 C 23.011719 13.5 23.261719 13.753906 23.261719 14.0625 C 23.261719 14.375 23.011719 14.625 22.699219 14.625 L 20.824219 14.625 C 20.511719 14.625 20.261719 14.375 20.261719 14.0625 C 20.261719 13.753906 20.511719 13.5 20.824219 13.5 Z M 20.824219 13.5 "/>
<path style=" stroke:none;fill-rule:nonzero;fill:rgb(38.039216%,38.039216%,38.039216%);fill-opacity:1;" d="M 25.324219 13.5 L 27.199219 13.5 C 27.511719 13.5 27.761719 13.753906 27.761719 14.0625 C 27.761719 14.375 27.511719 14.625 27.199219 14.625 L 25.324219 14.625 C 25.011719 14.625 24.761719 14.375 24.761719 14.0625 C 24.761719 13.753906 25.011719 13.5 25.324219 13.5 Z M 25.324219 13.5 "/>
<path style=" stroke:none;fill-rule:nonzero;fill:rgb(100%,100%,100%);fill-opacity:0.4;" d="M 20.796875 13.5 C 20.496094 13.515625 20.261719 13.761719 20.261719 14.0625 C 20.261719 14.128906 20.273438 14.191406 20.292969 14.25 C 20.367188 14.039062 20.5625 13.886719 20.796875 13.875 C 20.804688 13.875 20.816406 13.875 20.824219 13.875 L 22.699219 13.875 C 22.945312 13.875 23.152344 14.03125 23.230469 14.25 C 23.25 14.191406 23.261719 14.128906 23.261719 14.0625 C 23.261719 13.753906 23.011719 13.5 22.699219 13.5 L 20.824219 13.5 C 20.816406 13.5 20.804688 13.5 20.796875 13.5 Z M 25.296875 13.5 C 24.996094 13.515625 24.761719 13.761719 24.761719 14.0625 C 24.761719 14.128906 24.773438 14.191406 24.792969 14.25 C 24.867188 14.039062 25.0625 13.886719 25.296875 13.875 C 25.304688 13.875 25.316406 13.875 25.324219 13.875 L 27.199219 13.875 C 27.445312 13.875 27.652344 14.03125 27.730469 14.25 C 27.75 14.191406 27.761719 14.128906 27.761719 14.0625 C 27.761719 13.753906 27.511719 13.5 27.199219 13.5 L 25.324219 13.5 C 25.316406 13.5 25.304688 13.5 25.296875 13.5 Z M 25.296875 13.5 "/>
<path style=" stroke:none;fill-rule:nonzero;fill:rgb(15.294118%,15.294118%,15.294118%);fill-opacity:0.4;" d="M 20.796875 15 C 20.496094 14.984375 20.261719 14.738281 20.261719 14.4375 C 20.261719 14.371094 20.273438 14.308594 20.292969 14.25 C 20.367188 14.460938 20.5625 14.613281 20.796875 14.625 C 20.804688 14.625 20.816406 14.625 20.824219 14.625 L 22.699219 14.625 C 22.945312 14.625 23.152344 14.46875 23.230469 14.25 C 23.25 14.308594 23.261719 14.371094 23.261719 14.4375 C 23.261719 14.75 23.011719 15 22.699219 15 L 20.824219 15 C 20.816406 15 20.804688 15 20.796875 15 Z M 25.296875 15 C 24.996094 14.984375 24.761719 14.738281 24.761719 14.4375 C 24.761719 14.371094 24.773438 14.308594 24.792969 14.25 C 24.867188 14.460938 25.0625 14.613281 25.296875 14.625 C 25.304688 14.625 25.316406 14.625 25.324219 14.625 L 27.199219 14.625 C 27.445312 14.625 27.652344 14.46875 27.730469 14.25 C 27.75 14.308594 27.761719 14.371094 27.761719 14.4375 C 27.761719 14.75 27.511719 15 27.199219 15 L 25.324219 15 C 25.316406 15 25.304688 15 25.296875 15 Z M 25.296875 15 "/>
<path style=" stroke:none;fill-rule:nonzero;fill:rgb(40.000001%,73.333335%,41.568628%);fill-opacity:1;" d="M 33 14.625 C 33.828125 14.625 34.5 15.296875 34.5 16.125 C 34.5 16.953125 33.828125 17.625 33 17.625 C 32.171875 17.625 31.5 16.953125 31.5 16.125 C 31.5 15.296875 32.171875 14.625 33 14.625 Z M 33 14.625 "/>
<path style=" stroke:none;fill-rule:nonzero;fill:rgb(100%,65.490198%,14.901961%);fill-opacity:1;" d="M 36.375 17.625 C 37.203125 17.625 37.875 18.296875 37.875 19.125 C 37.875 19.953125 37.203125 20.625 36.375 20.625 C 35.546875 20.625 34.875 19.953125 34.875 19.125 C 34.875 18.296875 35.546875 17.625 36.375 17.625 Z M 36.375 17.625 "/>
<path style=" stroke:none;fill-rule:nonzero;fill:rgb(95.686275%,26.274511%,21.176471%);fill-opacity:1;" d="M 39.75 14.625 C 40.578125 14.625 41.25 15.296875 41.25 16.125 C 41.25 16.953125 40.578125 17.625 39.75 17.625 C 38.921875 17.625 38.25 16.953125 38.25 16.125 C 38.25 15.296875 38.921875 14.625 39.75 14.625 Z M 39.75 14.625 "/>
<path style=" stroke:none;fill-rule:nonzero;fill:rgb(38.039216%,38.039216%,38.039216%);fill-opacity:1;" d="M 11.25 12.375 C 10.835938 12.375 10.5 12.710938 10.5 13.125 L 10.5 15 L 8.625 15 C 8.210938 15 7.875 15.335938 7.875 15.75 L 7.875 16.5 C 7.875 16.914062 8.210938 17.25 8.625 17.25 L 10.5 17.25 L 10.5 19.125 C 10.5 19.539062 10.835938 19.875 11.25 19.875 L 12 19.875 C 12.414062 19.875 12.75 19.539062 12.75 19.125 L 12.75 17.25 L 14.625 17.25 C 15.039062 17.25 15.375 16.914062 15.375 16.5 L 15.375 15.75 C 15.375 15.335938 15.039062 15 14.625 15 L 12.75 15 L 12.75 13.125 C 12.75 12.710938 12.414062 12.375 12 12.375 Z M 11.25 12.375 "/>
<path style=" stroke:none;fill-rule:nonzero;fill:rgb(15.686275%,15.686275%,15.686275%);fill-opacity:0.4;" d="M 7.875 16.5 L 7.875 16.875 C 7.875 17.289062 8.210938 17.625 8.625 17.625 L 10.5 17.625 L 10.5 17.25 L 8.625 17.25 C 8.210938 17.25 7.875 16.914062 7.875 16.5 Z M 15.375 16.5 C 15.375 16.914062 15.039062 17.25 14.625 17.25 L 12.75 17.25 L 12.75 17.625 L 14.625 17.625 C 15.039062 17.625 15.375 17.289062 15.375 16.875 Z M 10.5 19.125 L 10.5 19.5 C 10.5 19.914062 10.835938 20.25 11.25 20.25 L 12 20.25 C 12.414062 20.25 12.75 19.914062 12.75 19.5 L 12.75 19.125 C 12.75 19.539062 12.414062 19.875 12 19.875 L 11.25 19.875 C 10.835938 19.875 10.5 19.539062 10.5 19.125 Z M 10.5 19.125 "/>
<path style=" stroke:none;fill-rule:nonzero;fill:rgb(100%,100%,100%);fill-opacity:0.4;" d="M 11.25 12.375 C 10.835938 12.375 10.5 12.710938 10.5 13.125 L 10.5 13.5 C 10.5 13.085938 10.835938 12.75 11.25 12.75 L 12 12.75 C 12.414062 12.75 12.75 13.085938 12.75 13.5 L 12.75 13.125 C 12.75 12.710938 12.414062 12.375 12 12.375 Z M 8.625 15 C 8.210938 15 7.875 15.335938 7.875 15.75 L 7.875 16.125 C 7.875 15.710938 8.210938 15.375 8.625 15.375 L 10.5 15.375 L 10.5 15 Z M 12.75 15 L 12.75 15.375 L 14.625 15.375 C 15.039062 15.375 15.375 15.710938 15.375 16.125 L 15.375 15.75 C 15.375 15.335938 15.039062 15 14.625 15 Z M 12.75 15 "/>
<path style=" stroke:none;fill-rule:nonzero;fill:rgb(81.176472%,84.705883%,86.274511%);fill-opacity:1;" d="M 19.875 18 C 21.53125 18 22.875 19.34375 22.875 21 C 22.875 22.65625 21.53125 24 19.875 24 C 18.21875 24 16.875 22.65625 16.875 21 C 16.875 19.34375 18.21875 18 19.875 18 Z M 19.875 18 "/>
<path style=" stroke:none;fill-rule:nonzero;fill:rgb(81.176472%,84.705883%,86.274511%);fill-opacity:1;" d="M 28.5 18 C 30.15625 18 31.5 19.34375 31.5 21 C 31.5 22.65625 30.15625 24 28.5 24 C 26.84375 24 25.5 22.65625 25.5 21 C 25.5 19.34375 26.84375 18 28.5 18 Z M 28.5 18 "/>
<path style=" stroke:none;fill-rule:nonzero;fill:rgb(56.470591%,64.313728%,68.235296%);fill-opacity:1;" d="M 28.5 18.75 C 29.742188 18.75 30.75 19.757812 30.75 21 C 30.75 22.242188 29.742188 23.25 28.5 23.25 C 27.257812 23.25 26.25 22.242188 26.25 21 C 26.25 19.757812 27.257812 18.75 28.5 18.75 Z M 28.5 18.75 "/>
<path style=" stroke:none;fill-rule:nonzero;fill:rgb(0%,0%,0%);fill-opacity:0.4;" d="M 12 9 C 7.84375 9 4.5 12.34375 4.5 16.5 C 4.5 16.5625 4.503906 16.625 4.503906 16.691406 C 4.605469 12.625 7.910156 9.378906 12 9.378906 L 36 9.378906 C 40.089844 9.378906 43.394531 12.625 43.496094 16.691406 C 43.496094 16.625 43.5 16.5625 43.5 16.5 C 43.5 12.34375 40.15625 9 36 9 Z M 12 9 "/>
<path style=" stroke:none;fill-rule:nonzero;fill:rgb(100%,100%,100%);fill-opacity:0.4;" d="M 12 7.5 C 7.015625 7.5 3 11.515625 3 16.5 C 3 16.625 3.003906 16.75 3.007812 16.871094 C 3.203125 12.0625 7.140625 8.246094 12 8.246094 L 36 8.246094 C 40.859375 8.246094 44.796875 12.0625 44.992188 16.871094 C 44.996094 16.75 45 16.625 45 16.5 C 45 11.515625 40.984375 7.5 36 7.5 Z M 12 7.5 "/>
<path style=" stroke:none;fill-rule:nonzero;fill:rgb(0%,0%,0%);fill-opacity:0.2;" d="M 22.476562 22.5 C 21.957031 23.398438 20.988281 24 19.875 24 C 19.128906 24 18.445312 23.730469 17.921875 23.28125 C 17.332031 23.800781 16.671875 24.242188 15.957031 24.589844 C 9.644531 29.621094 11.195312 37.5 6 37.5 C 4.339844 37.5 3 36.160156 3 34.5 L 3 35.617188 C 3 37.28125 4.339844 38.617188 6 38.617188 C 11.195312 38.617188 9.644531 30.742188 15.957031 25.710938 C 16.671875 25.359375 17.332031 24.917969 17.921875 24.402344 C 18.445312 24.847656 19.128906 25.117188 19.875 25.117188 C 20.988281 25.117188 21.957031 24.515625 22.476562 23.617188 L 25.898438 23.617188 C 26.417969 24.515625 27.386719 25.117188 28.5 25.117188 C 29.15625 25.117188 29.761719 24.910156 30.253906 24.554688 C 30.800781 25.007812 31.398438 25.394531 32.042969 25.710938 C 38.355469 30.742188 36.804688 38.617188 42 38.617188 C 43.660156 38.617188 45 37.28125 45 35.617188 L 45 34.5 C 45 36.160156 43.660156 37.5 42 37.5 C 36.804688 37.5 38.355469 29.621094 32.042969 24.589844 C 31.398438 24.277344 30.800781 23.886719 30.253906 23.4375 C 29.761719 23.789062 29.15625 24 28.5 24 C 27.386719 24 26.417969 23.398438 25.898438 22.5 Z M 22.476562 22.5 "/>
<path style=" stroke:none;fill-rule:nonzero;fill:rgb(38.039216%,38.039216%,38.039216%);fill-opacity:1;" d="M 28.5 19.125 C 29.535156 19.125 30.375 19.964844 30.375 21 C 30.375 22.035156 29.535156 22.875 28.5 22.875 C 27.464844 22.875 26.625 22.035156 26.625 21 C 26.625 19.964844 27.464844 19.125 28.5 19.125 Z M 28.5 19.125 "/>
<path style=" stroke:none;fill-rule:nonzero;fill:rgb(100%,100%,100%);fill-opacity:0.4;" d="M 28.5 18 C 26.839844 18 25.5 19.339844 25.5 21 C 25.5 21.0625 25.503906 21.125 25.507812 21.1875 C 25.601562 19.613281 26.902344 18.375 28.5 18.375 C 30.097656 18.375 31.398438 19.613281 31.496094 21.1875 C 31.496094 21.125 31.5 21.0625 31.5 21 C 31.5 19.339844 30.160156 18 28.5 18 Z M 28.5 18 "/>
<path style=" stroke:none;fill-rule:nonzero;fill:rgb(56.470591%,64.313728%,68.235296%);fill-opacity:1;" d="M 19.875 18.75 C 21.117188 18.75 22.125 19.757812 22.125 21 C 22.125 22.242188 21.117188 23.25 19.875 23.25 C 18.632812 23.25 17.625 22.242188 17.625 21 C 17.625 19.757812 18.632812 18.75 19.875 18.75 Z M 19.875 18.75 "/>
<path style=" stroke:none;fill-rule:nonzero;fill:rgb(38.039216%,38.039216%,38.039216%);fill-opacity:1;" d="M 19.875 19.125 C 20.910156 19.125 21.75 19.964844 21.75 21 C 21.75 22.035156 20.910156 22.875 19.875 22.875 C 18.839844 22.875 18 22.035156 18 21 C 18 19.964844 18.839844 19.125 19.875 19.125 Z M 19.875 19.125 "/>
<path style=" stroke:none;fill-rule:nonzero;fill:rgb(100%,100%,100%);fill-opacity:0.4;" d="M 19.875 18 C 18.214844 18 16.875 19.339844 16.875 21 C 16.875 21.0625 16.878906 21.125 16.882812 21.1875 C 16.976562 19.613281 18.277344 18.375 19.875 18.375 C 21.472656 18.375 22.773438 19.613281 22.871094 21.1875 C 22.871094 21.125 22.875 21.0625 22.875 21 C 22.875 19.339844 21.535156 18 19.875 18 Z M 19.875 18 "/>
<path style=" stroke:none;fill-rule:nonzero;fill:rgb(0%,0%,0%);fill-opacity:0.2;" d="M 18.011719 21.050781 C 18.011719 21.082031 18.011719 21.117188 18.011719 21.148438 C 18.011719 22.1875 18.847656 23.023438 19.886719 23.023438 C 20.925781 23.023438 21.761719 22.1875 21.761719 21.148438 C 21.761719 21.125 21.757812 21.101562 21.757812 21.078125 C 21.71875 22.082031 20.898438 22.878906 19.886719 22.878906 C 18.863281 22.878906 18.039062 22.066406 18.011719 21.050781 Z M 26.636719 21.050781 C 26.636719 21.082031 26.636719 21.117188 26.636719 21.148438 C 26.636719 22.1875 27.472656 23.023438 28.511719 23.023438 C 29.550781 23.023438 30.386719 22.1875 30.386719 21.148438 C 30.386719 21.125 30.382812 21.101562 30.382812 21.078125 C 30.34375 22.082031 29.523438 22.878906 28.511719 22.878906 C 27.488281 22.878906 26.664062 22.066406 26.636719 21.050781 Z M 26.636719 21.050781 "/>
<path style=" stroke:none;fill-rule:nonzero;fill:rgb(100%,100%,100%);fill-opacity:0.4;" d="M 19.875 19.125 C 18.835938 19.125 18 19.960938 18 21 C 18 21.035156 18 21.070312 18.003906 21.105469 C 18.042969 20.105469 18.863281 19.308594 19.875 19.308594 C 20.882812 19.308594 21.695312 20.09375 21.746094 21.085938 C 21.75 21.058594 21.75 21.027344 21.75 21 C 21.75 19.960938 20.914062 19.125 19.875 19.125 Z M 28.5 19.125 C 27.460938 19.125 26.625 19.960938 26.625 21 C 26.625 21.035156 26.625 21.070312 26.628906 21.105469 C 26.667969 20.105469 27.488281 19.308594 28.5 19.308594 C 29.507812 19.308594 30.320312 20.09375 30.371094 21.085938 C 30.375 21.058594 30.375 21.027344 30.375 21 C 30.375 19.960938 29.539062 19.125 28.5 19.125 Z M 28.5 19.125 "/>
<path style=" stroke:none;fill-rule:nonzero;fill:rgb(25.882354%,64.705884%,96.078432%);fill-opacity:1;" d="M 36.375 11.625 C 37.203125 11.625 37.875 12.296875 37.875 13.125 C 37.875 13.953125 37.203125 14.625 36.375 14.625 C 35.546875 14.625 34.875 13.953125 34.875 13.125 C 34.875 12.296875 35.546875 11.625 36.375 11.625 Z M 36.375 11.625 "/>
<path style=" stroke:none;fill-rule:nonzero;fill:rgb(100%,100%,100%);fill-opacity:0.4;" d="M 36.335938 11.625 C 35.523438 11.644531 34.875 12.308594 34.875 13.125 C 34.875 13.1875 34.878906 13.25 34.886719 13.308594 C 34.976562 12.582031 35.585938 12.019531 36.335938 12 C 36.347656 12 36.363281 12 36.375 12 C 37.140625 12 37.769531 12.570312 37.863281 13.308594 C 37.871094 13.25 37.875 13.1875 37.875 13.125 C 37.875 12.292969 37.207031 11.625 36.375 11.625 C 36.363281 11.625 36.347656 11.625 36.335938 11.625 Z M 32.960938 14.625 C 32.148438 14.644531 31.5 15.308594 31.5 16.125 C 31.5 16.1875 31.503906 16.25 31.511719 16.308594 C 31.601562 15.582031 32.210938 15.019531 32.960938 15 C 32.972656 15 32.988281 15 33 15 C 33.765625 15 34.394531 15.570312 34.488281 16.308594 C 34.496094 16.25 34.5 16.1875 34.5 16.125 C 34.5 15.292969 33.832031 14.625 33 14.625 C 32.988281 14.625 32.972656 14.625 32.960938 14.625 Z M 39.710938 14.625 C 38.898438 14.644531 38.25 15.308594 38.25 16.125 C 38.25 16.1875 38.253906 16.25 38.261719 16.308594 C 38.351562 15.582031 38.960938 15.019531 39.710938 15 C 39.722656 15 39.738281 15 39.75 15 C 40.515625 15 41.144531 15.570312 41.238281 16.308594 C 41.246094 16.25 41.25 16.1875 41.25 16.125 C 41.25 15.292969 40.582031 14.625 39.75 14.625 C 39.738281 14.625 39.722656 14.625 39.710938 14.625 Z M 36.335938 17.625 C 35.523438 17.644531 34.875 18.308594 34.875 19.125 C 34.875 19.1875 34.878906 19.25 34.886719 19.308594 C 34.976562 18.582031 35.585938 18.019531 36.335938 18 C 36.347656 18 36.363281 18 36.375 18 C 37.140625 18 37.769531 18.570312 37.863281 19.308594 C 37.871094 19.25 37.875 19.1875 37.875 19.125 C 37.875 18.292969 37.207031 17.625 36.375 17.625 C 36.363281 17.625 36.347656 17.625 36.335938 17.625 Z M 36.335938 17.625 "/>
<path style=" stroke:none;fill-rule:nonzero;fill:rgb(0%,0%,0%);fill-opacity:0.4;" d="M 36.335938 21 C 35.523438 20.980469 34.875 20.316406 34.875 19.5 C 34.875 19.4375 34.878906 19.375 34.886719 19.316406 C 34.976562 20.042969 35.585938 20.605469 36.335938 20.625 C 36.347656 20.625 36.363281 20.625 36.375 20.625 C 37.140625 20.625 37.769531 20.054688 37.863281 19.316406 C 37.871094 19.375 37.875 19.4375 37.875 19.5 C 37.875 20.332031 37.207031 21 36.375 21 C 36.363281 21 36.347656 21 36.335938 21 Z M 32.960938 18 C 32.148438 17.980469 31.5 17.316406 31.5 16.5 C 31.5 16.4375 31.503906 16.375 31.511719 16.316406 C 31.601562 17.042969 32.210938 17.605469 32.960938 17.625 C 32.972656 17.625 32.988281 17.625 33 17.625 C 33.765625 17.625 34.394531 17.054688 34.488281 16.316406 C 34.496094 16.375 34.5 16.4375 34.5 16.5 C 34.5 17.332031 33.832031 18 33 18 C 32.988281 18 32.972656 18 32.960938 18 Z M 39.710938 18 C 38.898438 17.980469 38.25 17.316406 38.25 16.5 C 38.25 16.4375 38.253906 16.375 38.261719 16.316406 C 38.351562 17.042969 38.960938 17.605469 39.710938 17.625 C 39.722656 17.625 39.738281 17.625 39.75 17.625 C 40.515625 17.625 41.144531 17.054688 41.238281 16.316406 C 41.246094 16.375 41.25 16.4375 41.25 16.5 C 41.25 17.332031 40.582031 18 39.75 18 C 39.738281 18 39.722656 18 39.710938 18 Z M 36.335938 15 C 35.523438 14.980469 34.875 14.316406 34.875 13.5 C 34.875 13.4375 34.878906 13.375 34.886719 13.316406 C 34.976562 14.042969 35.585938 14.605469 36.335938 14.625 C 36.347656 14.625 36.363281 14.625 36.375 14.625 C 37.140625 14.625 37.769531 14.054688 37.863281 13.316406 C 37.871094 13.375 37.875 13.4375 37.875 13.5 C 37.875 14.332031 37.207031 15 36.375 15 C 36.363281 15 36.347656 15 36.335938 15 Z M 36.335938 15 "/>
<path style=" stroke:none;fill-rule:nonzero;fill:url(#linear0);" d="M 12.035156 7.5 C 7.300781 7.5 3.445312 11.117188 3.066406 15.75 L 3.035156 15.75 L 3.035156 34.5 C 3.035156 36.160156 4.371094 37.5 6.035156 37.5 C 11.230469 37.5 9.675781 29.625 15.992188 24.589844 C 16.707031 24.242188 17.363281 23.800781 17.957031 23.28125 C 18.480469 23.730469 19.160156 24 19.910156 24 C 21.023438 24 21.992188 23.398438 22.507812 22.5 L 25.933594 22.5 C 26.449219 23.398438 27.417969 24 28.535156 24 C 29.191406 24 29.796875 23.792969 30.289062 23.4375 C 30.832031 23.886719 31.433594 24.277344 32.074219 24.589844 C 38.390625 29.625 36.835938 37.5 42.035156 37.5 C 43.695312 37.5 45.035156 36.160156 45.035156 34.5 L 45.035156 15.75 L 45 15.75 C 44.621094 11.117188 40.765625 7.5 36.035156 7.5 Z M 12.035156 7.5 "/>
</g>
</svg>
