
<svg xmlns="http://www.w3.org/2000/svg" xmlns:xlink="http://www.w3.org/1999/xlink" width="48" height="48" viewBox="0 0 48 48" version="1.1">
<defs>
<linearGradient id="linear0" gradientUnits="userSpaceOnUse" x1="10.054166" y1="-199.125" x2="10.054166" y2="-213.941666" gradientTransform="matrix(2.834646,0,0,2.834646,-0.000948433,609.448851)">
<stop offset="0" style="stop-color:rgb(0%,0%,0%);stop-opacity:0.2;"/>
<stop offset="1" style="stop-color:rgb(100%,100%,100%);stop-opacity:0;"/>
</linearGradient>
</defs>
<g id="surface1">
<path style=" stroke:none;fill-rule:nonzero;fill:rgb(95.686275%,26.274511%,21.176471%);fill-opacity:1;" d="M 6 3 L 42 3 C 43.65625 3 45 4.34375 45 6 L 45 42 C 45 43.65625 43.65625 45 42 45 L 6 45 C 4.34375 45 3 43.65625 3 42 L 3 6 C 3 4.34375 4.34375 3 6 3 Z M 6 3 "/>
<path style=" stroke:none;fill-rule:nonzero;fill:rgb(0%,0%,0%);fill-opacity:0.4;" d="M 3 41.25 L 3 42 C 3 43.660156 4.339844 45 6 45 L 42 45 C 43.660156 45 45 43.660156 45 42 L 45 41.25 C 45 42.910156 43.660156 44.25 42 44.25 L 6 44.25 C 4.339844 44.25 3 42.910156 3 41.25 Z M 3 41.25 "/>
<path style=" stroke:none;fill-rule:nonzero;fill:rgb(0%,0%,0%);fill-opacity:0.2;" d="M 3 42 L 3 43.125 C 3 44.785156 4.339844 46.125 6 46.125 L 42 46.125 C 43.660156 46.125 45 44.785156 45 43.125 L 45 42 C 45 43.660156 43.660156 45 42 45 L 6 45 C 4.339844 45 3 43.660156 3 42 Z M 3 42 "/>
<path style=" stroke:none;fill-rule:nonzero;fill:rgb(100%,100%,100%);fill-opacity:0.4;" d="M 6 3 C 4.339844 3 3 4.339844 3 6 L 3 6.738281 C 3 5.078125 4.339844 3.738281 6 3.738281 L 42 3.738281 C 43.660156 3.738281 45 5.078125 45 6.738281 L 45 6 C 45 4.339844 43.660156 3 42 3 Z M 6 3 "/>
<path style=" stroke:none;fill-rule:nonzero;fill:rgb(93.333334%,93.333334%,93.333334%);fill-opacity:1;" d="M 7.5 6 C 6.667969 6 6 6.667969 6 7.5 L 6 21 L 12 21 L 12 15 L 18 15 L 18 18 L 24 18 L 24 10.5 L 30 10.5 L 30 16.5 L 36 16.5 L 36 21 L 42 21 L 42 7.5 C 42 6.667969 41.332031 6 40.5 6 Z M 6 27 L 6 40.5 C 6 41.332031 6.667969 42 7.5 42 L 40.5 42 C 41.332031 42 42 41.332031 42 40.5 L 42 27 L 36 27 L 36 31.5 L 30 31.5 L 30 37.5 L 24 37.5 L 24 30 L 18 30 L 18 33 L 12 33 L 12 27 Z M 6 27 "/>
<path style=" stroke:none;fill-rule:nonzero;fill:rgb(100%,100%,100%);fill-opacity:0.6;" d="M 7.5 6 C 6.667969 6 6 6.667969 6 7.5 L 6 8.25 C 6 7.417969 6.667969 6.75 7.5 6.75 L 40.5 6.75 C 41.332031 6.75 42 7.417969 42 8.25 L 42 7.5 C 42 6.667969 41.332031 6 40.5 6 Z M 6 27 L 6 27.75 L 12 27.75 L 12 27 Z M 36 27 L 36 27.75 L 42 27.75 L 42 27 Z M 18 30 L 18 30.75 L 24 30.75 L 24 30 Z M 30 31.5 L 30 32.25 L 36 32.25 L 36 31.5 Z M 12 33 L 12 33.75 L 18 33.75 L 18 33 Z M 24 37.5 L 24 38.25 L 30 38.25 L 30 37.5 Z M 24 37.5 "/>
<path style=" stroke:none;fill-rule:nonzero;fill:rgb(0%,0%,0%);fill-opacity:0.4;" d="M 7.5 42.75 C 6.667969 42.75 6 42.082031 6 41.25 L 6 40.5 C 6 41.332031 6.667969 42 7.5 42 L 40.5 42 C 41.332031 42 42 41.332031 42 40.5 L 42 41.25 C 42 42.082031 41.332031 42.75 40.5 42.75 Z M 6 21.75 L 6 21 L 12 21 L 12 21.75 Z M 36 21.75 L 36 21 L 42 21 L 42 21.75 Z M 18 18.75 L 18 18 L 24 18 L 24 18.75 Z M 30 17.25 L 30 16.5 L 36 16.5 L 36 17.25 Z M 12 15.75 L 12 15 L 18 15 L 18 15.75 Z M 24 11.25 L 24 10.5 L 30 10.5 L 30 11.25 Z M 24 11.25 "/>
<path style=" stroke:none;fill-rule:nonzero;fill:url(#linear0);" d="M 6 3 L 42 3 C 43.65625 3 45 4.34375 45 6 L 45 42 C 45 43.65625 43.65625 45 42 45 L 6 45 C 4.34375 45 3 43.65625 3 42 L 3 6 C 3 4.34375 4.34375 3 6 3 Z M 6 3 "/>
</g>
</svg>
