
<svg xmlns="http://www.w3.org/2000/svg" xmlns:xlink="http://www.w3.org/1999/xlink" width="48" height="48" viewBox="0 0 48 48" version="1.1">
<defs>
<linearGradient id="linear0" gradientUnits="userSpaceOnUse" x1="34" y1="59.999996" x2="34" y2="4" gradientTransform="matrix(0.75,0,0,0.75,0,0.000000000000085265)">
<stop offset="0" style="stop-color:rgb(0%,0%,0%);stop-opacity:0.2;"/>
<stop offset="1" style="stop-color:rgb(100%,100%,100%);stop-opacity:0;"/>
</linearGradient>
<linearGradient id="linear1" gradientUnits="userSpaceOnUse" x1="42" y1="59.999996" x2="42" y2="4" gradientTransform="matrix(0.75,0,0,0.75,0,0.000000000000085265)">
<stop offset="0" style="stop-color:rgb(0%,0%,0%);stop-opacity:0.2;"/>
<stop offset="1" style="stop-color:rgb(100%,100%,100%);stop-opacity:0;"/>
</linearGradient>
</defs>
<g id="surface1">
<path style=" stroke:none;fill-rule:nonzero;fill:rgb(1.176471%,66.274512%,95.686275%);fill-opacity:1;" d="M 7.5 34.5 L 3 45 L 18 39 Z M 7.5 34.5 "/>
<path style=" stroke:none;fill-rule:nonzero;fill:rgb(16.078432%,71.372551%,96.470588%);fill-opacity:1;" d="M 24 3 C 35.597656 3 45 11.730469 45 22.5 C 45 33.269531 35.597656 42 24 42 C 12.402344 42 3 33.269531 3 22.5 C 3 11.730469 12.402344 3 24 3 Z M 24 3 "/>
<path style=" stroke:none;fill-rule:nonzero;fill:rgb(100%,100%,100%);fill-opacity:0.4;" d="M 24 3 C 12.367188 3 3 11.695312 3 22.5 C 3 22.628906 3.003906 22.753906 3.007812 22.878906 C 3.222656 12.253906 12.503906 3.761719 24 3.761719 C 35.496094 3.761719 44.777344 12.253906 44.996094 22.878906 C 44.996094 22.753906 45 22.628906 45 22.5 C 45 11.695312 35.632812 3 24 3 Z M 24 3 "/>
<path style=" stroke:none;fill-rule:nonzero;fill:rgb(0%,0%,0%);fill-opacity:0.4;" d="M 3.007812 22.136719 C 3.003906 22.257812 3 22.378906 3 22.5 C 3 33.304688 12.367188 42 24 42 C 35.632812 42 45 33.304688 45 22.5 C 45 22.378906 44.996094 22.257812 44.996094 22.136719 C 44.785156 32.769531 35.503906 41.269531 24 41.269531 C 12.496094 41.269531 3.214844 32.769531 3.007812 22.136719 Z M 3.007812 22.136719 "/>
<path style=" stroke:none;fill-rule:nonzero;fill:rgb(0%,0%,0%);fill-opacity:0.2;" d="M 7.476562 34.558594 L 7.269531 35.039062 C 9.121094 37.304688 11.496094 39.175781 14.230469 40.507812 L 15.082031 40.167969 C 12.089844 38.871094 9.488281 36.9375 7.476562 34.558594 Z M 7.476562 34.558594 "/>
<path style=" stroke:none;fill-rule:nonzero;fill:rgb(0%,0%,0%);fill-opacity:0.2;" d="M 44.988281 23.0625 C 44.671875 33.601562 35.429688 42 24 42 C 20.804688 42 17.785156 41.34375 15.078125 40.167969 L 3.582031 44.765625 L 3 46.125 L 15.078125 41.292969 C 17.785156 42.46875 20.804688 43.125 24 43.125 C 35.632812 43.125 45 34.429688 45 23.625 C 45 23.4375 44.996094 23.25 44.988281 23.0625 Z M 3.007812 23.070312 C 3.003906 23.253906 3 23.4375 3 23.625 C 3 28.011719 4.542969 32.050781 7.15625 35.300781 L 7.472656 34.558594 C 4.785156 31.382812 3.140625 27.410156 3.007812 23.070312 Z M 3.007812 23.070312 "/>
<path style=" stroke:none;fill-rule:nonzero;fill:rgb(38.039216%,38.039216%,38.039216%);fill-opacity:1;" d="M 34.515625 13.125 C 37 13.125 39.015625 15.140625 39.015625 17.625 C 39.015625 20.109375 37 22.125 34.515625 22.125 C 32.03125 22.125 30.015625 20.109375 30.015625 17.625 C 30.015625 15.140625 32.03125 13.125 34.515625 13.125 Z M 34.515625 13.125 "/>
<path style=" stroke:none;fill-rule:nonzero;fill:rgb(100%,100%,100%);fill-opacity:0.4;" d="M 34.515625 13.125 C 32.023438 13.125 30.015625 15.132812 30.015625 17.625 C 30.015625 17.75 30.023438 17.875 30.03125 18 C 30.222656 15.683594 32.148438 13.875 34.515625 13.875 C 36.882812 13.875 38.8125 15.683594 39 18 C 39.011719 17.875 39.015625 17.75 39.015625 17.625 C 39.015625 15.132812 37.007812 13.125 34.515625 13.125 Z M 34.515625 13.125 "/>
<path style=" stroke:none;fill-rule:nonzero;fill:rgb(0%,0%,0%);fill-opacity:0.4;" d="M 34.515625 22.875 C 32.023438 22.875 30.015625 20.867188 30.015625 18.375 C 30.015625 18.25 30.023438 18.125 30.03125 18 C 30.222656 20.316406 32.148438 22.125 34.515625 22.125 C 36.882812 22.125 38.8125 20.316406 39 18 C 39.011719 18.125 39.015625 18.25 39.015625 18.375 C 39.015625 20.867188 37.007812 22.875 34.515625 22.875 Z M 34.515625 22.875 "/>
<path style=" stroke:none;fill-rule:nonzero;fill:rgb(38.039216%,38.039216%,38.039216%);fill-opacity:1;" d="M 13.515625 13.125 C 16 13.125 18.015625 15.140625 18.015625 17.625 C 18.015625 20.109375 16 22.125 13.515625 22.125 C 11.03125 22.125 9.015625 20.109375 9.015625 17.625 C 9.015625 15.140625 11.03125 13.125 13.515625 13.125 Z M 13.515625 13.125 "/>
<path style=" stroke:none;fill-rule:nonzero;fill:rgb(100%,100%,100%);fill-opacity:0.4;" d="M 13.515625 13.125 C 11.023438 13.125 9.015625 15.132812 9.015625 17.625 C 9.015625 17.75 9.023438 17.875 9.03125 18 C 9.222656 15.683594 11.148438 13.875 13.515625 13.875 C 15.882812 13.875 17.8125 15.683594 18 18 C 18.011719 17.875 18.015625 17.75 18.015625 17.625 C 18.015625 15.132812 16.007812 13.125 13.515625 13.125 Z M 13.515625 13.125 "/>
<path style=" stroke:none;fill-rule:nonzero;fill:rgb(0%,0%,0%);fill-opacity:0.4;" d="M 13.515625 22.875 C 11.023438 22.875 9.015625 20.867188 9.015625 18.375 C 9.015625 18.25 9.023438 18.125 9.03125 18 C 9.222656 20.316406 11.148438 22.125 13.515625 22.125 C 15.882812 22.125 17.8125 20.316406 18 18 C 18.011719 18.125 18.015625 18.25 18.015625 18.375 C 18.015625 20.867188 16.007812 22.875 13.515625 22.875 Z M 13.515625 22.875 "/>
<path style=" stroke:none;fill-rule:nonzero;fill:rgb(87.843138%,87.843138%,87.843138%);fill-opacity:1;" d="M 40.5 34.5 L 45 45 L 30 39 Z M 40.5 34.5 "/>
<path style=" stroke:none;fill-rule:nonzero;fill:url(#linear0);" d="M 24 3 C 12.367188 3 3 11.695312 3 22.5 C 3 27.0625 4.667969 31.246094 7.472656 34.558594 L 3 45 L 15.078125 40.167969 C 17.785156 41.34375 20.804688 42 24 42 C 35.632812 42 45 33.304688 45 22.5 C 45 11.695312 35.632812 3 24 3 Z M 24 3 "/>
<path style=" stroke:none;fill-rule:nonzero;fill:rgb(93.333334%,93.333334%,93.333334%);fill-opacity:1;" d="M 30.75 18 C 38.621094 18 45 23.707031 45 30.75 C 45 37.792969 38.621094 43.5 30.75 43.5 C 22.878906 43.5 16.5 37.792969 16.5 30.75 C 16.5 23.707031 22.878906 18 30.75 18 Z M 30.75 18 "/>
<path style=" stroke:none;fill-rule:nonzero;fill:rgb(0%,0%,0%);fill-opacity:0.4;" d="M 30.75 43.5 C 22.855469 43.5 16.5 37.8125 16.5 30.75 C 16.5 30.621094 16.503906 30.492188 16.507812 30.367188 C 16.734375 37.25 23 42.730469 30.75 42.730469 C 38.5 42.730469 44.765625 37.25 44.992188 30.367188 C 44.996094 30.492188 45 30.621094 45 30.75 C 45 37.8125 38.644531 43.5 30.75 43.5 Z M 30.75 43.5 "/>
<path style=" stroke:none;fill-rule:nonzero;fill:rgb(100%,100%,100%);fill-opacity:0.6;" d="M 30.75 18 C 22.855469 18 16.5 23.6875 16.5 30.75 C 16.5 30.878906 16.503906 31.007812 16.507812 31.132812 C 16.734375 24.25 23 18.769531 30.75 18.769531 C 38.5 18.769531 44.765625 24.25 44.992188 31.132812 C 44.996094 31.007812 45 30.878906 45 30.75 C 45 23.6875 38.644531 18 30.75 18 Z M 30.75 18 "/>
<path style=" stroke:none;fill-rule:nonzero;fill:rgb(0%,0%,0%);fill-opacity:0.4;" d="M 42.167969 38.390625 C 40.925781 39.878906 39.332031 41.113281 37.488281 41.996094 L 38.335938 42.332031 C 39.925781 41.441406 41.304688 40.273438 42.386719 38.902344 Z M 42.167969 38.390625 "/>
<path style=" stroke:none;fill-rule:nonzero;fill:rgb(0%,0%,0%);fill-opacity:0.2;" d="M 16.515625 31.316406 C 16.503906 31.5 16.5 31.6875 16.5 31.875 C 16.5 38.9375 22.855469 44.625 30.75 44.625 C 33.191406 44.625 35.484375 44.082031 37.488281 43.121094 L 45 46.125 L 44.417969 44.773438 L 37.488281 42 C 35.484375 42.960938 33.191406 43.503906 30.75 43.503906 C 23.066406 43.503906 16.839844 38.117188 16.515625 31.316406 Z M 44.984375 31.328125 C 44.855469 33.980469 43.828125 36.414062 42.167969 38.398438 L 42.484375 39.128906 C 44.070312 37.074219 45 34.574219 45 31.875 C 45 31.691406 44.992188 31.511719 44.984375 31.328125 Z M 44.984375 31.328125 "/>
<path style=" stroke:none;fill-rule:nonzero;fill:rgb(38.039216%,38.039216%,38.039216%);fill-opacity:1;" d="M 24 25.5 C 25.65625 25.5 27 26.84375 27 28.5 C 27 30.15625 25.65625 31.5 24 31.5 C 22.34375 31.5 21 30.15625 21 28.5 C 21 26.84375 22.34375 25.5 24 25.5 Z M 24 25.5 "/>
<path style=" stroke:none;fill-rule:nonzero;fill:rgb(38.039216%,38.039216%,38.039216%);fill-opacity:1;" d="M 37.5 25.5 C 39.15625 25.5 40.5 26.84375 40.5 28.5 C 40.5 30.15625 39.15625 31.5 37.5 31.5 C 35.84375 31.5 34.5 30.15625 34.5 28.5 C 34.5 26.84375 35.84375 25.5 37.5 25.5 Z M 37.5 25.5 "/>
<path style=" stroke:none;fill-rule:nonzero;fill:rgb(100%,100%,100%);fill-opacity:0.4;" d="M 24 25.5 C 22.339844 25.5 21 26.839844 21 28.5 C 21 28.625 21.011719 28.746094 21.023438 28.871094 C 21.210938 27.386719 22.46875 26.25 24 26.25 C 25.53125 26.25 26.789062 27.386719 26.976562 28.871094 C 26.988281 28.746094 27 28.625 27 28.5 C 27 26.839844 25.660156 25.5 24 25.5 Z M 37.5 25.5 C 35.839844 25.5 34.5 26.839844 34.5 28.5 C 34.5 28.625 34.511719 28.746094 34.523438 28.871094 C 34.710938 27.386719 35.96875 26.25 37.5 26.25 C 39.03125 26.25 40.289062 27.386719 40.476562 28.871094 C 40.488281 28.746094 40.5 28.625 40.5 28.5 C 40.5 26.839844 39.160156 25.5 37.5 25.5 Z M 37.5 25.5 "/>
<path style=" stroke:none;fill-rule:nonzero;fill:rgb(0%,0%,0%);fill-opacity:0.4;" d="M 24 32.25 C 22.339844 32.25 21 30.910156 21 29.25 C 21 29.125 21.011719 29.003906 21.023438 28.878906 C 21.210938 30.363281 22.46875 31.5 24 31.5 C 25.53125 31.5 26.789062 30.363281 26.976562 28.878906 C 26.988281 29 27 29.125 27 29.25 C 27 30.910156 25.660156 32.25 24 32.25 Z M 37.5 32.25 C 35.839844 32.25 34.5 30.910156 34.5 29.25 C 34.5 29.125 34.511719 29.003906 34.523438 28.878906 C 34.710938 30.363281 35.96875 31.5 37.5 31.5 C 39.03125 31.5 40.289062 30.363281 40.476562 28.878906 C 40.488281 29 40.5 29.125 40.5 29.25 C 40.5 30.910156 39.160156 32.25 37.5 32.25 Z M 37.5 32.25 "/>
<path style=" stroke:none;fill-rule:nonzero;fill:url(#linear1);" d="M 30.75 18 C 22.855469 18 16.5 23.6875 16.5 30.75 C 16.5 37.8125 22.855469 43.5 30.75 43.5 C 33.191406 43.5 35.484375 42.957031 37.488281 41.996094 L 45 45 L 42.167969 38.394531 C 43.949219 36.269531 45 33.621094 45 30.75 C 45 23.6875 38.644531 18 30.75 18 Z M 30.75 18 "/>
</g>
</svg>
