
<svg xmlns="http://www.w3.org/2000/svg" xmlns:xlink="http://www.w3.org/1999/xlink" width="48" height="48" viewBox="0 0 48 48" version="1.1">
<defs>
<linearGradient id="linear0" gradientUnits="userSpaceOnUse" x1="8.466666" y1="-199.125" x2="8.466666" y2="-212.883331" gradientTransform="matrix(2.834646,0,0,2.834646,0,609.448851)">
<stop offset="0" style="stop-color:rgb(0%,0%,0%);stop-opacity:0.2;"/>
<stop offset="1" style="stop-color:rgb(100%,100%,100%);stop-opacity:0;"/>
</linearGradient>
<linearGradient id="linear1" gradientUnits="userSpaceOnUse" x1="31.999998" y1="60" x2="31.999998" y2="4" gradientTransform="matrix(0.75,0,0,0.75,-0.000000532755,0.000000000000085265)">
<stop offset="0" style="stop-color:rgb(0%,0%,0%);stop-opacity:0.2;"/>
<stop offset="1" style="stop-color:rgb(100%,100%,100%);stop-opacity:0;"/>
</linearGradient>
<linearGradient id="linear2" gradientUnits="userSpaceOnUse" x1="8.466666" y1="-199.125" x2="8.466666" y2="-213.941666" gradientTransform="matrix(2.834646,0,0,2.834646,0,609.448851)">
<stop offset="0" style="stop-color:rgb(0%,0%,0%);stop-opacity:0.2;"/>
<stop offset="1" style="stop-color:rgb(100%,100%,100%);stop-opacity:0;"/>
</linearGradient>
</defs>
<g id="surface1">
<path style=" stroke:none;fill-rule:nonzero;fill:rgb(38.039216%,38.039216%,38.039216%);fill-opacity:1;" d="M 42.457031 10.808594 C 45.851562 13.234375 45.851562 34.765625 42.457031 37.191406 C 39.0625 39.617188 8.9375 39.617188 5.542969 37.191406 C 2.148438 34.765625 2.148438 13.234375 5.542969 10.808594 C 8.9375 8.382812 39.0625 8.382812 42.457031 10.808594 Z M 42.457031 10.808594 "/>
<path style=" stroke:none;fill-rule:nonzero;fill:rgb(100%,100%,100%);fill-opacity:0.4;" d="M 24 8.988281 C 15.621094 8.988281 7.238281 9.597656 5.542969 10.808594 C 3.8125 12.046875 2.964844 18.261719 3 24.371094 C 3.035156 18.507812 3.882812 12.742188 5.542969 11.554688 C 8.9375 9.128906 39.0625 9.128906 42.457031 11.554688 C 44.117188 12.742188 44.964844 18.507812 45 24.371094 C 45.035156 18.261719 44.1875 12.046875 42.457031 10.808594 C 40.761719 9.597656 32.378906 8.988281 24 8.988281 Z M 24 8.988281 "/>
<path style=" stroke:none;fill-rule:nonzero;fill:rgb(4.313726%,4.313726%,4.313726%);fill-opacity:0.4;" d="M 24 39 C 15.621094 39 7.238281 38.394531 5.542969 37.179688 C 3.8125 35.941406 2.964844 29.730469 3 23.617188 C 3.035156 29.480469 3.882812 35.246094 5.542969 36.433594 C 8.9375 38.859375 39.0625 38.859375 42.457031 36.433594 C 44.117188 35.246094 44.964844 29.480469 45 23.617188 C 45.035156 29.730469 44.1875 35.941406 42.457031 37.179688 C 40.761719 38.394531 32.378906 39 24 39 Z M 24 39 "/>
<path style=" stroke:none;fill-rule:nonzero;fill:rgb(0%,0%,0%);fill-opacity:0.2;" d="M 3.003906 24.5625 C 2.949219 30.730469 3.792969 37.054688 5.542969 38.304688 C 8.9375 40.730469 39.0625 40.730469 42.457031 38.304688 C 44.207031 37.054688 45.050781 30.730469 44.996094 24.5625 C 44.945312 30.363281 44.101562 36.027344 42.457031 37.203125 C 39.0625 39.628906 8.9375 39.628906 5.542969 37.203125 C 3.898438 36.027344 3.054688 30.363281 3.003906 24.5625 Z M 3.003906 24.5625 "/>
<path style=" stroke:none;fill-rule:nonzero;fill:url(#linear0);" d="M 42.457031 10.808594 C 45.851562 13.234375 45.851562 34.765625 42.457031 37.191406 C 39.0625 39.617188 8.9375 39.617188 5.542969 37.191406 C 2.148438 34.765625 2.148438 13.234375 5.542969 10.808594 C 8.9375 8.382812 39.0625 8.382812 42.457031 10.808594 Z M 42.457031 10.808594 "/>
<path style=" stroke:none;fill-rule:nonzero;fill:rgb(93.333334%,93.333334%,93.333334%);fill-opacity:0.996078;" d="M 18 3 L 30 3 C 31.65625 3 33 4.34375 33 6 L 33 33 C 33 34.65625 31.65625 36 30 36 L 18 36 C 16.34375 36 15 34.65625 15 33 L 15 6 C 15 4.34375 16.34375 3 18 3 Z M 18 3 "/>
<path style=" stroke:none;fill-rule:nonzero;fill:rgb(40.000001%,73.333335%,41.568628%);fill-opacity:1;" d="M 22.191406 44.25 L 7.808594 30.15625 C 7.167969 29.570312 7.582031 28.5 8.453125 28.5 L 39.546875 28.5 C 40.417969 28.5 40.832031 29.570312 40.191406 30.15625 L 25.808594 44.25 C 24.816406 45.21875 23.214844 45.1875 22.191406 44.25 Z M 22.191406 44.25 "/>
<path style=" stroke:none;fill-rule:nonzero;fill:rgb(100%,100%,100%);fill-opacity:0.4;" d="M 18 3 C 16.339844 3 15 4.339844 15 6 L 15 6.75 C 15 5.089844 16.339844 3.75 18 3.75 L 30 3.75 C 31.660156 3.75 33 5.089844 33 6.75 L 33 6 C 33 4.339844 31.660156 3 30 3 Z M 18 3 "/>
<path style=" stroke:none;fill-rule:nonzero;fill:rgb(100%,100%,100%);fill-opacity:0.4;" d="M 8.453125 28.5 C 7.726562 28.5 7.316406 29.246094 7.574219 29.835938 C 7.710938 29.503906 8.027344 29.25 8.453125 29.25 L 15 29.25 L 15 28.5 Z M 33 28.5 L 33 29.25 L 39.546875 29.25 C 39.972656 29.25 40.289062 29.503906 40.425781 29.835938 C 40.683594 29.246094 40.273438 28.5 39.546875 28.5 Z M 33 28.5 "/>
<path style=" stroke:none;fill-rule:nonzero;fill:rgb(0%,0%,0%);fill-opacity:0.4;" d="M 7.574219 29.085938 C 7.429688 29.429688 7.480469 29.855469 7.808594 30.15625 L 22.191406 44.25 C 23.214844 45.1875 24.816406 45.21875 25.808594 44.25 L 40.191406 30.15625 C 40.519531 29.855469 40.570312 29.429688 40.425781 29.085938 C 40.375 29.199219 40.296875 29.308594 40.191406 29.40625 L 25.808594 43.5 C 24.816406 44.46875 23.214844 44.4375 22.191406 43.5 L 7.808594 29.40625 C 7.703125 29.308594 7.625 29.199219 7.574219 29.085938 Z M 7.574219 29.085938 "/>
<path style=" stroke:none;fill-rule:nonzero;fill:rgb(0%,0%,0%);fill-opacity:0.2;" d="M 7.679688 30.015625 C 7.421875 30.382812 7.414062 30.921875 7.808594 31.28125 L 22.191406 45.375 C 23.214844 46.3125 24.816406 46.34375 25.808594 45.375 L 40.191406 31.28125 C 40.585938 30.921875 40.578125 30.382812 40.316406 30.015625 C 40.28125 30.066406 40.238281 30.113281 40.191406 30.15625 L 25.808594 44.25 C 24.816406 45.21875 23.214844 45.1875 22.191406 44.25 L 7.808594 30.15625 C 7.761719 30.113281 7.71875 30.066406 7.679688 30.015625 Z M 7.679688 30.015625 "/>
<path style=" stroke:none;fill-rule:nonzero;fill:rgb(93.333334%,93.333334%,93.333334%);fill-opacity:1;" d="M 22.191406 44.25 L 7.808594 30.15625 C 7.167969 29.570312 7.582031 28.5 8.453125 28.5 L 39.546875 28.5 C 40.417969 28.5 40.832031 29.570312 40.191406 30.15625 L 25.808594 44.25 C 24.816406 45.21875 23.214844 45.1875 22.191406 44.25 Z M 22.191406 44.25 "/>
<path style=" stroke:none;fill-rule:nonzero;fill:url(#linear1);" d="M 18 3 C 16.339844 3 15 4.339844 15 6 L 15 28.5 L 8.453125 28.5 C 7.582031 28.5 7.167969 29.570312 7.808594 30.15625 L 22.191406 44.25 C 23.214844 45.1875 24.816406 45.21875 25.808594 44.25 L 40.191406 30.15625 C 40.832031 29.570312 40.417969 28.5 39.546875 28.5 L 33 28.5 L 33 6 C 33 4.339844 31.660156 3 30 3 Z M 18 3 "/>
<path style=" stroke:none;fill-rule:nonzero;fill:rgb(95.686275%,26.274511%,21.176471%);fill-opacity:1;" d="M 18 4.5 C 17.140625 4.5 16.5 5.144531 16.5 6 L 16.5 28.5 C 16.5 28.898438 16.339844 29.28125 16.058594 29.5625 C 15.777344 29.84375 15.394531 30.003906 15 30 L 9.789062 30 L 23.203125 43.144531 C 23.664062 43.566406 24.351562 43.578125 24.753906 43.183594 L 38.210938 30 L 33.003906 30 C 32.605469 30.003906 32.222656 29.84375 31.941406 29.5625 C 31.660156 29.28125 31.503906 28.898438 31.503906 28.5 L 31.503906 6 C 31.503906 5.144531 30.859375 4.5 30 4.5 Z M 18 4.5 "/>
<path style=" stroke:none;fill-rule:nonzero;fill:rgb(0%,0%,0%);fill-opacity:0.4;" d="M 18 4.5 C 17.140625 4.5 16.5 5.144531 16.5 6 L 16.5 6.757812 C 16.5 5.898438 17.140625 5.257812 18 5.257812 L 30 5.257812 C 30.859375 5.257812 31.503906 5.898438 31.503906 6.757812 L 31.503906 6 C 31.503906 5.144531 30.859375 4.5 30 4.5 Z M 16.5 28.5 C 16.5 29.328125 15.828125 30 15 30 L 9.789062 30 L 10.558594 30.753906 L 15 30.753906 C 15.828125 30.757812 16.5 30.085938 16.5 29.253906 Z M 31.503906 28.5 L 31.503906 29.253906 C 31.503906 30.085938 32.175781 30.757812 33.003906 30.753906 L 37.441406 30.753906 L 38.210938 30 L 33.003906 30 C 32.175781 30 31.503906 29.328125 31.503906 28.5 Z M 31.503906 28.5 "/>
<path style=" stroke:none;fill-rule:nonzero;fill:url(#linear2);" d="M 18 4.5 C 17.140625 4.5 16.5 5.144531 16.5 6 L 16.5 28.5 C 16.5 28.898438 16.339844 29.28125 16.058594 29.5625 C 15.777344 29.84375 15.394531 30.003906 15 30 L 9.789062 30 L 23.203125 43.144531 C 23.664062 43.566406 24.351562 43.578125 24.753906 43.183594 L 38.210938 30 L 33.003906 30 C 32.605469 30.003906 32.222656 29.84375 31.941406 29.5625 C 31.660156 29.28125 31.503906 28.898438 31.503906 28.5 L 31.503906 6 C 31.503906 5.144531 30.859375 4.5 30 4.5 Z M 18 4.5 "/>
<path style=" stroke:none;fill-rule:nonzero;fill:rgb(100%,100%,100%);fill-opacity:0.4;" d="M 9.789062 30.761719 L 23.203125 43.90625 C 23.664062 44.328125 24.351562 44.339844 24.753906 43.945312 L 38.210938 30.761719 L 37.445312 30.761719 L 24.753906 43.195312 C 24.351562 43.589844 23.664062 43.578125 23.203125 43.15625 L 10.554688 30.761719 Z M 9.789062 30.761719 "/>
</g>
</svg>
