
<svg xmlns="http://www.w3.org/2000/svg" xmlns:xlink="http://www.w3.org/1999/xlink" width="64" height="64" viewBox="0 0 64 64" version="1.1">
<defs>
<linearGradient id="linear0" gradientUnits="userSpaceOnUse" x1="10.054166" y1="-199.125" x2="10.054166" y2="-213.941666" gradientTransform="matrix(3.779528,0,0,3.779528,-0.00126458,812.598468)">
<stop offset="0" style="stop-color:rgb(0%,0%,0%);stop-opacity:0.2;"/>
<stop offset="1" style="stop-color:rgb(100%,100%,100%);stop-opacity:0;"/>
</linearGradient>
</defs>
<g id="surface1">
<path style=" stroke:none;fill-rule:nonzero;fill:rgb(25.882354%,64.705884%,96.078432%);fill-opacity:0.996078;" d="M 20 22 C 14.460938 22 10 26.460938 10 32 C 10 37.539062 14.460938 42 20 42 C 25.539062 42 30 37.539062 30 32 C 30 26.460938 25.539062 22 20 22 Z M 44 22 C 38.460938 22 34 26.460938 34 32 C 34 37.539062 38.460938 42 44 42 C 49.539062 42 54 37.539062 54 32 C 54 26.460938 49.539062 22 44 22 Z M 44 22 "/>
<path style=" stroke:none;fill-rule:nonzero;fill:rgb(93.333334%,93.333334%,93.333334%);fill-opacity:1;" d="M 8 4 L 56 4 C 58.210938 4 60 5.789062 60 8 L 60 56 C 60 58.210938 58.210938 60 56 60 L 8 60 C 5.789062 60 4 58.210938 4 56 L 4 8 C 4 5.789062 5.789062 4 8 4 Z M 8 4 "/>
<path style=" stroke:none;fill-rule:nonzero;fill:rgb(0%,0%,0%);fill-opacity:0.4;" d="M 4 55 L 4 56 C 4 58.214844 5.785156 60 8 60 L 56 60 C 58.214844 60 60 58.214844 60 56 L 60 55 C 60 57.214844 58.214844 59 56 59 L 8 59 C 5.785156 59 4 57.214844 4 55 Z M 4 55 "/>
<path style=" stroke:none;fill-rule:nonzero;fill:rgb(0%,0%,0%);fill-opacity:0.2;" d="M 4 56 L 4 57.5 C 4 59.714844 5.785156 61.5 8 61.5 L 56 61.5 C 58.214844 61.5 60 59.714844 60 57.5 L 60 56 C 60 58.214844 58.214844 60 56 60 L 8 60 C 5.785156 60 4 58.214844 4 56 Z M 4 56 "/>
<path style=" stroke:none;fill-rule:nonzero;fill:rgb(100%,100%,100%);fill-opacity:0.4;" d="M 8 4 C 5.785156 4 4 5.785156 4 8 L 4 8.984375 C 4 6.769531 5.785156 4.984375 8 4.984375 L 56 4.984375 C 58.214844 4.984375 60 6.769531 60 8.984375 L 60 8 C 60 5.785156 58.214844 4 56 4 Z M 8 4 "/>
<path style=" stroke:none;fill-rule:nonzero;fill:rgb(25.882354%,64.705884%,96.078432%);fill-opacity:0.996078;" d="M 20 22 C 25.523438 22 30 26.476562 30 32 C 30 37.523438 25.523438 42 20 42 C 14.476562 42 10 37.523438 10 32 C 10 26.476562 14.476562 22 20 22 Z M 20 22 "/>
<path style=" stroke:none;fill-rule:nonzero;fill:rgb(92.54902%,25.098041%,47.843137%);fill-opacity:0.996078;" d="M 44 22 C 49.523438 22 54 26.476562 54 32 C 54 37.523438 49.523438 42 44 42 C 38.476562 42 34 37.523438 34 32 C 34 26.476562 38.476562 22 44 22 Z M 44 22 "/>
<path style=" stroke:none;fill-rule:nonzero;fill:rgb(100%,100%,100%);fill-opacity:0.4;" d="M 20 22 C 14.460938 22 10 26.460938 10 32 C 10 32.164062 10.007812 32.324219 10.015625 32.484375 C 10.28125 27.1875 14.632812 23 20 23 C 25.367188 23 29.71875 27.1875 29.984375 32.484375 C 29.992188 32.324219 30 32.164062 30 32 C 30 26.460938 25.539062 22 20 22 Z M 44 22 C 38.460938 22 34 26.460938 34 32 C 34 32.164062 34.007812 32.324219 34.015625 32.484375 C 34.28125 27.1875 38.632812 23 44 23 C 49.367188 23 53.71875 27.1875 53.984375 32.484375 C 53.992188 32.324219 54 32.164062 54 32 C 54 26.460938 49.539062 22 44 22 Z M 44 22 "/>
<path style=" stroke:none;fill-rule:nonzero;fill:rgb(0.392157%,0.392157%,0.392157%);fill-opacity:0.4;" d="M 44 43 C 49.539062 43 54 38.539062 54 33 C 54 32.835938 53.992188 32.675781 53.988281 32.515625 C 53.71875 37.8125 49.367188 42 44 42 C 38.632812 42 34.28125 37.8125 34.015625 32.515625 C 34.007812 32.675781 34 32.835938 34 33 C 34 38.539062 38.460938 43 44 43 Z M 20 43 C 25.539062 43 30 38.539062 30 33 C 30 32.835938 29.992188 32.675781 29.984375 32.515625 C 29.71875 37.8125 25.367188 42 20 42 C 14.632812 42 10.28125 37.8125 10.011719 32.515625 C 10.007812 32.675781 10 32.835938 10 33 C 10 38.539062 14.460938 43 20 43 Z M 20 43 "/>
<path style=" stroke:none;fill-rule:nonzero;fill:url(#linear0);" d="M 8 4 L 56 4 C 58.210938 4 60 5.789062 60 8 L 60 56 C 60 58.210938 58.210938 60 56 60 L 8 60 C 5.789062 60 4 58.210938 4 56 L 4 8 C 4 5.789062 5.789062 4 8 4 Z M 8 4 "/>
</g>
</svg>
