
<svg xmlns="http://www.w3.org/2000/svg" xmlns:xlink="http://www.w3.org/1999/xlink" width="64" height="64" viewBox="0 0 64 64" version="1.1">
<defs>
<linearGradient id="linear0" gradientUnits="userSpaceOnUse" x1="32" y1="59.999996" x2="32" y2="4" >
<stop offset="0" style="stop-color:rgb(0%,0%,0%);stop-opacity:0.2;"/>
<stop offset="1" style="stop-color:rgb(100%,100%,100%);stop-opacity:0;"/>
</linearGradient>
</defs>
<g id="surface1">
<path style=" stroke:none;fill-rule:nonzero;fill:rgb(47.058824%,56.470591%,61.176473%);fill-opacity:0.996078;" d="M 36 4 C 49.253906 4 60 14.746094 60 28 C 60 41.253906 49.253906 52 36 52 C 22.746094 52 12 41.253906 12 28 C 12 14.746094 22.746094 4 36 4 Z M 36 4 "/>
<path style=" stroke:none;fill-rule:nonzero;fill:rgb(100%,100%,100%);fill-opacity:0.4;" d="M 36 4 C 22.703125 4 12 14.703125 12 28 C 12 28.167969 12.003906 28.332031 12.003906 28.5 C 12.269531 15.4375 22.871094 5 36 5 C 49.128906 5 59.730469 15.4375 59.996094 28.5 C 59.996094 28.332031 60 28.167969 60 28 C 60 14.703125 49.296875 4 36 4 Z M 36 4 "/>
<path style=" stroke:none;fill-rule:nonzero;fill:rgb(0.392157%,0.392157%,0.392157%);fill-opacity:0.4;" d="M 36 52 C 22.703125 52 12 41.296875 12 28 C 12 27.832031 12.003906 27.667969 12.003906 27.5 C 12.269531 40.5625 22.871094 51 36 51 C 49.128906 51 59.730469 40.5625 59.996094 27.5 C 59.996094 27.667969 60 27.832031 60 28 C 60 41.296875 49.296875 52 36 52 Z M 36 52 "/>
<path style=" stroke:none;fill-rule:nonzero;fill:rgb(0.392157%,0.392157%,0.392157%);fill-opacity:0.2;" d="M 12.003906 28.5 C 12.003906 28.667969 12 28.832031 12 29 C 12 29.082031 12.003906 29.160156 12.003906 29.238281 C 12.003906 29.328125 12 29.414062 12 29.5 C 12 42.796875 22.703125 53.5 36 53.5 C 49.296875 53.5 60 42.796875 60 29.5 C 60 29.414062 59.996094 29.328125 59.996094 29.238281 C 59.996094 29.160156 60 29.082031 60 29 C 60 28.832031 59.996094 28.667969 59.996094 28.5 C 59.730469 41.5625 49.128906 52 36 52 C 22.871094 52 12.269531 41.5625 12.003906 28.5 Z M 12.003906 28.5 "/>
<path style=" stroke:none;fill-rule:nonzero;fill:rgb(61.960787%,61.960787%,61.960787%);fill-opacity:0.996078;" d="M 18 54.5 C 19.65625 54.5 21 55.730469 21 57.25 C 21 58.769531 19.65625 60 18 60 C 16.34375 60 15 58.769531 15 57.25 C 15 55.730469 16.34375 54.5 18 54.5 Z M 18 54.5 "/>
<path style=" stroke:none;fill-rule:nonzero;fill:rgb(74.117649%,74.117649%,74.117649%);fill-opacity:1;" d="M 12 46 L 12 54 C 12 56.214844 13.785156 58 16 58 L 20 58 C 22.214844 58 24 56.214844 24 54 L 24 46 C 20 44 16 44 12 46 Z M 12 46 "/>
<path style=" stroke:none;fill-rule:nonzero;fill:rgb(89.803922%,22.352941%,20.784314%);fill-opacity:0.992157;" d="M 18 44.5 C 14.953125 44.5 12.5 45.167969 12.5 46 C 12.5 46.097656 12.535156 46.1875 12.59375 46.28125 C 14.398438 47.089844 16.199219 47.5 18 47.5 C 19.800781 47.5 21.601562 47.089844 23.40625 46.28125 C 23.464844 46.1875 23.5 46.097656 23.5 46 C 23.5 45.167969 21.046875 44.5 18 44.5 Z M 18 44.5 "/>
<path style=" stroke:none;fill-rule:nonzero;fill:rgb(100%,97.647059%,76.862746%);fill-opacity:1;" d="M 26.167969 31.527344 C 26.039062 31.480469 25.898438 31.492188 25.777344 31.550781 L 21.996094 33.441406 L 18.226562 31.550781 C 18.085938 31.480469 17.917969 31.480469 17.777344 31.550781 L 14.003906 33.441406 L 10.222656 31.550781 C 10.035156 31.453125 9.804688 31.484375 9.652344 31.632812 C 9.496094 31.777344 9.449219 32.007812 9.539062 32.199219 L 15.539062 46.195312 C 15.589844 46.320312 15.6875 46.414062 15.8125 46.464844 C 15.933594 46.515625 16.074219 46.515625 16.195312 46.460938 C 16.316406 46.410156 16.414062 46.3125 16.464844 46.1875 C 16.515625 46.066406 16.511719 45.925781 16.460938 45.804688 L 11 33.0625 L 13.773438 34.453125 C 13.917969 34.523438 14.082031 34.523438 14.226562 34.453125 L 17.996094 32.5625 L 21.777344 34.453125 C 21.917969 34.523438 22.085938 34.523438 22.226562 34.453125 L 25.003906 33.0625 L 19.539062 45.804688 C 19.488281 45.925781 19.488281 46.066406 19.535156 46.1875 C 19.585938 46.3125 19.683594 46.410156 19.804688 46.460938 C 19.929688 46.515625 20.066406 46.515625 20.1875 46.464844 C 20.3125 46.414062 20.410156 46.320312 20.460938 46.195312 L 26.457031 32.199219 C 26.511719 32.074219 26.511719 31.929688 26.457031 31.800781 C 26.402344 31.675781 26.300781 31.574219 26.167969 31.527344 Z M 26.167969 31.527344 "/>
<path style=" stroke:none;fill-rule:nonzero;fill:rgb(95.686275%,26.274511%,21.176471%);fill-opacity:0.8;" d="M 18 16 C 10.242188 16 4 22.242188 4 30 C 4 42 12 42 12 46 C 16 48 20 48 24 46 C 24 42 32 42 32 30 C 32 22.242188 25.757812 16 18 16 Z M 18 16 "/>
<path style=" stroke:none;fill-rule:nonzero;fill:rgb(100%,100%,100%);fill-opacity:0.4;" d="M 18 16 C 10.242188 16 4 22.242188 4 30 C 4 30.164062 4.007812 30.3125 4.007812 30.472656 C 4.285156 22.960938 10.421875 17 18 17 C 25.578125 17 31.714844 22.960938 31.988281 30.472656 C 31.992188 30.3125 32 30.164062 32 30 C 32 22.242188 25.757812 16 18 16 Z M 18 16 "/>
<path style=" stroke:none;fill-rule:nonzero;fill:rgb(93.725491%,60.392159%,60.392159%);fill-opacity:0.8;" d="M 11.730469 21 C 12.6875 21.550781 12.570312 23.550781 11.464844 25.464844 C 10.359375 27.378906 8.6875 28.480469 7.730469 27.929688 C 6.777344 27.375 6.894531 25.378906 8 23.464844 C 9.105469 21.550781 10.777344 20.449219 11.730469 21 Z M 11.730469 21 "/>
<path style=" stroke:none;fill-rule:nonzero;fill:rgb(87.843138%,87.843138%,87.843138%);fill-opacity:1;" d="M 23.777344 48.046875 C 20.859375 49.46875 14.925781 49.976562 12.085938 49.503906 C 11.953125 49.480469 11.820312 49.511719 11.710938 49.589844 C 11.601562 49.667969 11.53125 49.785156 11.507812 49.917969 C 11.464844 50.1875 11.644531 50.445312 11.914062 50.492188 C 15.070312 51.019531 20.929688 50.550781 24.21875 48.949219 C 24.339844 48.890625 24.429688 48.785156 24.472656 48.660156 C 24.515625 48.535156 24.507812 48.398438 24.449219 48.277344 C 24.390625 48.15625 24.285156 48.066406 24.160156 48.023438 C 24.035156 47.980469 23.894531 47.988281 23.777344 48.046875 Z M 23.777344 48.046875 "/>
<path style=" stroke:none;fill-rule:nonzero;fill:rgb(87.843138%,87.843138%,87.843138%);fill-opacity:1;" d="M 23.777344 50.050781 C 20.859375 51.46875 14.925781 51.976562 12.085938 51.503906 C 11.953125 51.480469 11.820312 51.511719 11.710938 51.589844 C 11.601562 51.667969 11.53125 51.785156 11.507812 51.917969 C 11.464844 52.1875 11.644531 52.445312 11.914062 52.492188 C 15.070312 53.019531 20.929688 52.550781 24.21875 50.949219 C 24.339844 50.890625 24.429688 50.789062 24.472656 50.660156 C 24.515625 50.535156 24.507812 50.398438 24.449219 50.277344 C 24.390625 50.160156 24.285156 50.066406 24.160156 50.023438 C 24.035156 49.980469 23.894531 49.992188 23.777344 50.050781 Z M 23.777344 50.050781 "/>
<path style=" stroke:none;fill-rule:nonzero;fill:rgb(87.843138%,87.843138%,87.843138%);fill-opacity:1;" d="M 23.777344 52.050781 C 20.859375 53.46875 14.925781 53.976562 12.085938 53.503906 C 11.953125 53.480469 11.820312 53.515625 11.710938 53.589844 C 11.601562 53.667969 11.53125 53.785156 11.507812 53.917969 C 11.464844 54.1875 11.644531 54.445312 11.914062 54.492188 C 15.070312 55.019531 20.929688 54.550781 24.21875 52.949219 C 24.339844 52.890625 24.429688 52.789062 24.472656 52.660156 C 24.515625 52.535156 24.507812 52.398438 24.449219 52.277344 C 24.390625 52.160156 24.285156 52.066406 24.160156 52.023438 C 24.035156 51.980469 23.894531 51.992188 23.777344 52.050781 Z M 23.777344 52.050781 "/>
<path style=" stroke:none;fill-rule:nonzero;fill:rgb(87.843138%,87.843138%,87.843138%);fill-opacity:1;" d="M 23.777344 54.050781 C 20.839844 55.480469 15.429688 55.980469 12.578125 55.503906 C 12.449219 55.484375 12.3125 55.515625 12.207031 55.589844 C 12.097656 55.667969 12.023438 55.785156 12.003906 55.917969 C 11.980469 56.050781 12.011719 56.183594 12.089844 56.292969 C 12.167969 56.398438 12.285156 56.472656 12.417969 56.492188 C 15.566406 57.019531 20.949219 56.542969 24.21875 54.949219 C 24.339844 54.890625 24.429688 54.789062 24.472656 54.664062 C 24.515625 54.535156 24.507812 54.398438 24.449219 54.277344 C 24.390625 54.160156 24.285156 54.066406 24.160156 54.023438 C 24.035156 53.980469 23.894531 53.992188 23.777344 54.050781 Z M 23.777344 54.050781 "/>
<path style=" stroke:none;fill-rule:nonzero;fill:rgb(100%,100%,100%);fill-opacity:0.6;" d="M 23.996094 47.996094 C 23.917969 47.996094 23.84375 48.015625 23.777344 48.046875 C 20.859375 49.46875 14.925781 49.976562 12.082031 49.503906 C 11.8125 49.457031 11.554688 49.644531 11.507812 49.917969 C 11.492188 50.03125 11.515625 50.148438 11.574219 50.246094 C 11.679688 50.070312 11.882812 49.976562 12.082031 50.007812 C 14.925781 50.480469 20.859375 49.972656 23.777344 48.550781 C 23.84375 48.519531 23.917969 48.5 23.996094 48.5 C 24.175781 48.5 24.34375 48.59375 24.433594 48.75 C 24.515625 48.605469 24.523438 48.429688 24.449219 48.277344 C 24.363281 48.105469 24.1875 47.996094 23.996094 47.996094 Z M 23.996094 50 C 23.917969 50 23.84375 50.015625 23.777344 50.046875 C 20.859375 51.46875 14.925781 51.976562 12.082031 51.503906 C 11.8125 51.457031 11.554688 51.644531 11.507812 51.917969 C 11.492188 52.03125 11.515625 52.148438 11.574219 52.246094 C 11.679688 52.070312 11.882812 51.976562 12.082031 52.007812 C 14.925781 52.480469 20.859375 51.972656 23.777344 50.550781 C 23.84375 50.519531 23.917969 50.503906 23.996094 50.5 C 24.175781 50.5 24.339844 50.597656 24.433594 50.75 C 24.515625 50.605469 24.523438 50.429688 24.449219 50.277344 C 24.363281 50.105469 24.1875 49.996094 23.996094 50 Z M 23.996094 52 C 23.917969 52 23.84375 52.015625 23.777344 52.046875 C 20.859375 53.46875 14.925781 53.976562 12.082031 53.503906 C 11.953125 53.480469 11.816406 53.511719 11.710938 53.589844 C 11.601562 53.667969 11.527344 53.785156 11.507812 53.917969 C 11.492188 54.03125 11.515625 54.148438 11.574219 54.246094 C 11.679688 54.070312 11.882812 53.976562 12.082031 54.007812 C 14.925781 54.480469 20.859375 53.972656 23.777344 52.550781 C 23.84375 52.519531 23.917969 52.503906 23.996094 52.5 C 24.175781 52.5 24.34375 52.597656 24.433594 52.753906 C 24.515625 52.609375 24.523438 52.429688 24.449219 52.28125 C 24.363281 52.105469 24.1875 51.996094 23.996094 52 Z M 23.996094 54 C 23.917969 54 23.84375 54.015625 23.777344 54.050781 C 20.839844 55.480469 15.429688 55.980469 12.578125 55.503906 C 12.304688 55.460938 12.046875 55.644531 12.003906 55.917969 C 11.988281 56.03125 12.011719 56.148438 12.070312 56.25 C 12.175781 56.070312 12.375 55.976562 12.578125 56.007812 C 15.429688 56.484375 20.839844 55.984375 23.777344 54.554688 C 23.84375 54.519531 23.917969 54.503906 23.996094 54.5 C 24.175781 54.5 24.34375 54.597656 24.433594 54.753906 C 24.515625 54.609375 24.523438 54.429688 24.449219 54.28125 C 24.363281 54.105469 24.1875 53.996094 23.996094 54 Z M 23.996094 54 "/>
<path style=" stroke:none;fill-rule:nonzero;fill:rgb(0%,0%,0%);fill-opacity:0.4;" d="M 24 49.054688 C 20.707031 50.558594 15.105469 51.003906 12 50.511719 L 12 51.011719 C 15.105469 51.503906 20.707031 51.058594 24 49.554688 Z M 24 51.054688 C 20.707031 52.558594 15.105469 53.003906 12 52.511719 L 12 53.011719 C 15.105469 53.503906 20.707031 53.058594 24 51.554688 Z M 24 53.058594 C 20.71875 54.554688 15.148438 55 12.035156 54.515625 C 12.058594 54.691406 12.089844 54.863281 12.132812 55.03125 C 15.265625 55.488281 20.75 55.039062 24 53.558594 Z M 23.839844 55.128906 C 20.722656 56.503906 16 56.953125 12.933594 56.570312 C 13.105469 56.777344 13.296875 56.964844 13.503906 57.128906 C 16.484375 57.386719 20.691406 56.945312 23.609375 55.730469 C 23.703125 55.539062 23.777344 55.335938 23.839844 55.128906 Z M 23.839844 55.128906 "/>
<path style=" stroke:none;fill-rule:nonzero;fill:rgb(0%,0%,0%);fill-opacity:0.4;" d="M 15.082031 57.894531 C 15.195312 58.332031 15.421875 58.722656 15.730469 59.050781 C 15.820312 59.058594 15.910156 59.0625 16 59.0625 L 20 59.0625 C 20.089844 59.0625 20.179688 59.058594 20.269531 59.050781 C 20.578125 58.722656 20.804688 58.332031 20.917969 57.894531 C 20.625 57.964844 20.316406 58 20 58 L 16 58 C 15.683594 58 15.375 57.964844 15.082031 57.894531 Z M 15.082031 57.894531 "/>
<path style=" stroke:none;fill-rule:nonzero;fill:rgb(0%,0%,0%);fill-opacity:0.4;" d="M 31.996094 30.570312 C 31.746094 42 24 42.0625 24 46 C 20 48 16 48 12 46 L 12 47 C 16 49 20 49 24 47 C 24 43 32 43 32 31 C 32 30.855469 32 30.710938 31.996094 30.570312 Z M 31.996094 30.570312 "/>
<path style=" stroke:none;fill-rule:nonzero;fill:url(#linear0);" d="M 36 4 C 26.949219 4 19.101562 8.960938 15.011719 16.320312 C 8.703125 17.683594 4 23.269531 4 30 C 4 42 12 42 12 46 L 12 49.5 C 11.757812 49.5 11.550781 49.675781 11.507812 49.917969 C 11.460938 50.1875 11.644531 50.445312 11.914062 50.492188 C 11.941406 50.496094 11.972656 50.5 12 50.503906 L 12 51.5 C 11.757812 51.5 11.550781 51.675781 11.507812 51.917969 C 11.460938 52.1875 11.644531 52.445312 11.914062 52.492188 C 11.941406 52.496094 11.972656 52.5 12 52.503906 L 12 53.5 C 11.757812 53.5 11.546875 53.675781 11.507812 53.917969 C 11.464844 54.1875 11.644531 54.445312 11.914062 54.492188 C 11.953125 54.5 11.996094 54.503906 12.035156 54.511719 C 12.082031 54.871094 12.171875 55.214844 12.304688 55.539062 C 12.144531 55.605469 12.03125 55.75 12.003906 55.917969 C 11.957031 56.191406 12.144531 56.449219 12.417969 56.496094 C 12.582031 56.523438 12.753906 56.546875 12.933594 56.566406 C 13.476562 57.21875 14.226562 57.695312 15.082031 57.894531 C 15.398438 59.105469 16.582031 60 18 60 C 19.417969 60 20.601562 59.105469 20.917969 57.894531 C 22.324219 57.566406 23.4375 56.5 23.839844 55.125 C 23.96875 55.070312 24.097656 55.011719 24.21875 54.953125 C 24.339844 54.894531 24.429688 54.789062 24.472656 54.664062 C 24.515625 54.535156 24.507812 54.398438 24.449219 54.28125 C 24.367188 54.109375 24.191406 54 24 54 L 24 53.054688 C 24.074219 53.019531 24.148438 52.984375 24.21875 52.953125 C 24.339844 52.894531 24.429688 52.789062 24.472656 52.664062 C 24.515625 52.535156 24.507812 52.398438 24.449219 52.28125 C 24.367188 52.109375 24.191406 52 24 52 L 24 51.050781 C 24.074219 51.019531 24.148438 50.984375 24.21875 50.949219 C 24.339844 50.890625 24.429688 50.785156 24.472656 50.660156 C 24.515625 50.535156 24.507812 50.398438 24.449219 50.277344 C 24.363281 50.105469 24.191406 49.996094 24 50 L 24 49.050781 C 24.074219 49.019531 24.148438 48.984375 24.21875 48.949219 C 24.226562 48.945312 24.230469 48.945312 24.234375 48.941406 C 27.707031 50.890625 31.71875 52 36 52 C 49.296875 52 60 41.296875 60 28 C 60 14.703125 49.296875 4 36 4 Z M 36 4 "/>
<path style=" stroke:none;fill-rule:nonzero;fill:rgb(0%,0%,0%);fill-opacity:0.2;" d="M 59.988281 28.75 C 59.597656 41.695312 49.046875 52 36 52 C 31.71875 52 27.707031 50.890625 24.234375 48.941406 C 24.230469 48.945312 24.226562 48.949219 24.21875 48.953125 C 24.148438 48.984375 24.074219 49.019531 24 49.054688 L 24 50 C 24.191406 50 24.363281 50.109375 24.449219 50.28125 C 24.496094 50.371094 24.511719 50.476562 24.496094 50.578125 C 27.90625 52.4375 31.824219 53.496094 36 53.496094 C 49.296875 53.496094 60 42.789062 60 29.496094 C 60 29.246094 59.996094 28.996094 59.988281 28.75 Z M 4.015625 30.84375 C 4.003906 31.058594 4 31.273438 4 31.492188 C 4 43.492188 12 43.492188 12 47.492188 L 12 46 C 12 42.097656 4.382812 42 4.015625 30.84375 Z M 12 50.992188 C 11.757812 50.992188 11.550781 51.167969 11.507812 51.40625 C 11.492188 51.523438 11.519531 51.640625 11.582031 51.738281 C 11.671875 51.59375 11.832031 51.503906 12 51.5 Z M 24 51.492188 L 24 52 C 24.175781 52.003906 24.339844 52.101562 24.425781 52.253906 C 24.515625 52.109375 24.523438 51.925781 24.449219 51.769531 C 24.363281 51.601562 24.191406 51.492188 24 51.492188 Z M 12 52.996094 C 11.757812 52.996094 11.550781 53.171875 11.507812 53.410156 C 11.492188 53.527344 11.519531 53.640625 11.582031 53.738281 C 11.671875 53.59375 11.828125 53.503906 12 53.5 Z M 24 53.492188 L 24 54 C 24.175781 54.003906 24.339844 54.101562 24.425781 54.253906 C 24.515625 54.109375 24.523438 53.925781 24.449219 53.773438 C 24.367188 53.601562 24.191406 53.492188 24 53.492188 Z M 12 54.507812 L 12 54.996094 C 11.753906 54.996094 11.546875 55.171875 11.507812 55.414062 C 11.464844 55.683594 11.644531 55.9375 11.914062 55.984375 C 11.945312 55.992188 11.980469 55.996094 12.011719 56 C 12.007812 55.976562 12.003906 55.949219 12.003906 55.921875 C 12.03125 55.75 12.144531 55.605469 12.304688 55.542969 C 12.171875 55.21875 12.082031 54.875 12.035156 54.515625 C 12.023438 54.511719 12.011719 54.507812 12 54.507812 Z M 24 55.054688 C 23.945312 55.078125 23.894531 55.105469 23.839844 55.128906 C 23.4375 56.503906 22.324219 57.570312 20.917969 57.894531 C 20.601562 59.105469 19.417969 60 18 60 C 16.582031 60 15.398438 59.105469 15.082031 57.894531 C 14.226562 57.695312 13.476562 57.222656 12.933594 56.570312 C 12.753906 56.546875 12.582031 56.523438 12.417969 56.496094 C 12.269531 56.464844 12.140625 56.371094 12.074219 56.238281 C 12.121094 56.515625 12.199219 56.78125 12.304688 57.03125 C 12.144531 57.097656 12.03125 57.242188 12.003906 57.410156 C 11.957031 57.683594 12.144531 57.941406 12.417969 57.988281 C 12.582031 58.015625 12.753906 58.039062 12.933594 58.0625 C 13.476562 58.714844 14.226562 59.1875 15.082031 59.390625 C 15.398438 60.597656 16.582031 61.496094 18 61.496094 C 19.417969 61.496094 20.601562 60.597656 20.917969 59.390625 C 22.324219 59.0625 23.4375 57.996094 23.839844 56.621094 C 23.96875 56.5625 24.097656 56.503906 24.21875 56.445312 C 24.339844 56.386719 24.429688 56.28125 24.472656 56.15625 C 24.515625 56.03125 24.507812 55.894531 24.449219 55.773438 C 24.367188 55.601562 24.191406 55.492188 24 55.492188 Z M 24 55.054688 "/>
</g>
</svg>
