
<svg xmlns="http://www.w3.org/2000/svg" xmlns:xlink="http://www.w3.org/1999/xlink" width="48" height="48" viewBox="0 0 48 48" version="1.1">
<defs>
<linearGradient id="linear0" gradientUnits="userSpaceOnUse" x1="31.999998" y1="60" x2="31.999998" y2="4" gradientTransform="matrix(0.75,0,0,0.75,-0.000000283465,0.000000000000085265)">
<stop offset="0" style="stop-color:rgb(0%,0%,0%);stop-opacity:0.2;"/>
<stop offset="1" style="stop-color:rgb(100%,100%,100%);stop-opacity:0;"/>
</linearGradient>
</defs>
<g id="surface1">
<path style=" stroke:none;fill-rule:nonzero;fill:rgb(49.411765%,34.117648%,76.078433%);fill-opacity:1;" d="M 30 3 L 9.75 3 C 8.503906 3 7.5 4.003906 7.5 5.25 L 7.5 42.75 C 7.5 43.996094 8.503906 45 9.75 45 L 38.25 45 C 39.496094 45 40.5 43.996094 40.5 42.75 L 40.5 13.5 Z M 30 3 "/>
<path style=" stroke:none;fill-rule:nonzero;fill:rgb(0%,0%,0%);fill-opacity:0.4;" d="M 30 11.25 L 30 12 C 30 13.246094 31.003906 14.25 32.25 14.25 L 40.5 14.25 L 39.75 13.5 L 32.25 13.5 C 31.003906 13.5 30 12.496094 30 11.25 Z M 30 11.25 "/>
<path style=" stroke:none;fill-rule:nonzero;fill:rgb(58.431375%,45.882353%,80.392158%);fill-opacity:0.996078;" d="M 40.5 13.5 L 30 3 L 30 11.25 C 30 12.496094 31.003906 13.5 32.25 13.5 Z M 40.5 13.5 "/>
<path style=" stroke:none;fill-rule:nonzero;fill:rgb(100%,100%,100%);fill-opacity:0.4;" d="M 9.75 3 C 8.503906 3 7.5 4.003906 7.5 5.25 L 7.5 6 C 7.5 4.753906 8.503906 3.75 9.75 3.75 L 30 3.75 L 40.5 14.25 L 40.5 13.5 L 30 3 Z M 9.75 3 "/>
<path style=" stroke:none;fill-rule:nonzero;fill:rgb(0%,0%,0%);fill-opacity:0.2;" d="M 7.5 42.738281 L 7.5 43.875 C 7.5 45.121094 8.503906 46.125 9.75 46.125 L 38.25 46.125 C 39.496094 46.125 40.5 45.121094 40.5 43.875 L 40.5 42.738281 C 40.5 43.984375 39.496094 44.988281 38.25 44.988281 L 9.75 44.988281 C 8.503906 44.988281 7.5 43.984375 7.5 42.738281 Z M 7.5 42.738281 "/>
<path style=" stroke:none;fill-rule:nonzero;fill:rgb(0%,0%,0%);fill-opacity:0.4;" d="M 7.5 42.09375 L 7.5 42.75 C 7.5 43.996094 8.503906 45 9.75 45 L 38.25 45 C 39.496094 45 40.5 43.996094 40.5 42.75 L 40.5 42.09375 C 40.5 43.339844 39.496094 44.34375 38.25 44.34375 L 9.75 44.34375 C 8.503906 44.34375 7.5 43.339844 7.5 42.09375 Z M 7.5 42.09375 "/>
<path style=" stroke:none;fill-rule:nonzero;fill:rgb(70.19608%,61.56863%,85.882354%);fill-opacity:1;" d="M 18.75 18 C 17.089844 18 15.75 19.339844 15.75 21 L 15.75 29.230469 C 15.75 29.238281 15.75 29.242188 15.75 29.25 L 15.75 29.625 C 15.75 29.832031 15.917969 30 16.125 30 L 16.875 30 C 17.082031 30 17.25 29.832031 17.25 29.625 L 17.25 29.25 C 17.25 29.246094 17.25 29.238281 17.25 29.230469 L 17.25 27 L 21.75 27 L 21.75 29.625 C 21.75 29.832031 21.917969 30 22.125 30 L 22.875 30 C 23.082031 30 23.25 29.832031 23.25 29.625 L 23.25 29.25 C 23.25 29.246094 23.25 29.238281 23.25 29.230469 L 23.25 21 C 23.25 19.339844 21.910156 18 20.25 18 Z M 18.75 19.5 L 20.25 19.5 C 21.082031 19.5 21.75 20.167969 21.75 21 L 21.75 25.5 L 17.25 25.5 L 17.25 21 C 17.25 20.167969 17.917969 19.5 18.75 19.5 Z M 18.75 19.5 "/>
<path style=" stroke:none;fill-rule:nonzero;fill:rgb(70.19608%,61.56863%,85.882354%);fill-opacity:1;" d="M 27.75 25.5 C 26.089844 25.5 24.75 26.839844 24.75 28.5 L 24.75 30 C 24.75 31.660156 26.089844 33 27.75 33 L 31.875 33 C 32.082031 33 32.25 32.832031 32.25 32.625 L 32.25 25.875 C 32.25 25.667969 32.082031 25.5 31.875 25.5 Z M 27.75 27 L 30.75 27 L 30.75 31.5 L 27.75 31.5 C 26.917969 31.5 26.25 30.832031 26.25 30 L 26.25 28.5 C 26.25 27.667969 26.917969 27 27.75 27 Z M 27.75 27 "/>
<path style=" stroke:none;fill-rule:nonzero;fill:rgb(0.784314%,0.784314%,0.784314%);fill-opacity:0.4;" d="M 18.75 19.5 C 17.917969 19.5 17.25 20.167969 17.25 21 L 17.25 21.375 C 17.25 20.542969 17.917969 19.875 18.75 19.875 L 20.25 19.875 C 21.082031 19.875 21.75 20.542969 21.75 21.375 L 21.75 21 C 21.75 20.167969 21.082031 19.5 20.25 19.5 Z M 17.25 27 L 17.25 27.375 L 21.75 27.375 L 21.75 27 Z M 27.75 27 C 26.917969 27 26.25 27.667969 26.25 28.5 L 26.25 28.875 C 26.25 28.042969 26.917969 27.375 27.75 27.375 L 30.75 27.375 L 30.75 27 Z M 15.75 29.625 L 15.75 30 C 15.75 30.210938 15.917969 30.375 16.125 30.375 L 16.875 30.375 C 17.082031 30.375 17.25 30.210938 17.25 30 L 17.25 29.625 C 17.25 29.835938 17.082031 30 16.875 30 L 16.125 30 C 15.917969 30 15.75 29.835938 15.75 29.625 Z M 21.75 29.625 L 21.75 30 C 21.75 30.210938 21.917969 30.375 22.125 30.375 L 22.875 30.375 C 23.082031 30.375 23.25 30.210938 23.25 30 L 23.25 29.625 C 23.25 29.835938 23.082031 30 22.875 30 L 22.125 30 C 21.917969 30 21.75 29.835938 21.75 29.625 Z M 24.75 30 L 24.75 30.375 C 24.75 32.035156 26.089844 33.375 27.75 33.375 L 31.875 33.375 C 32.082031 33.375 32.25 33.207031 32.25 33 L 32.25 32.625 C 32.25 32.832031 32.082031 33 31.875 33 L 27.75 33 C 26.089844 33 24.75 31.660156 24.75 30 Z M 24.75 30 "/>
<path style=" stroke:none;fill-rule:nonzero;fill:rgb(100%,100%,100%);fill-opacity:0.4;" d="M 18.75 18 C 17.089844 18 15.75 19.339844 15.75 21 L 15.75 21.375 C 15.75 19.714844 17.089844 18.375 18.75 18.375 L 20.25 18.375 C 21.910156 18.375 23.25 19.714844 23.25 21.375 L 23.25 21 C 23.25 19.339844 21.910156 18 20.25 18 Z M 17.25 25.5 L 17.25 25.875 L 21.75 25.875 L 21.75 25.5 Z M 27.75 25.5 C 26.089844 25.5 24.75 26.839844 24.75 28.5 L 24.75 28.875 C 24.75 27.214844 26.089844 25.875 27.75 25.875 L 31.875 25.875 C 32.082031 25.875 32.25 26.042969 32.25 26.25 L 32.25 25.875 C 32.25 25.667969 32.082031 25.5 31.875 25.5 Z M 26.25 30 L 26.25 30.375 C 26.25 31.207031 26.917969 31.875 27.75 31.875 L 30.75 31.875 L 30.75 31.5 L 27.75 31.5 C 26.917969 31.5 26.25 30.832031 26.25 30 Z M 26.25 30 "/>
<path style=" stroke:none;fill-rule:nonzero;fill:url(#linear0);" d="M 30 3 L 9.75 3 C 8.503906 3 7.5 4.003906 7.5 5.25 L 7.5 42.75 C 7.5 43.996094 8.503906 45 9.75 45 L 38.25 45 C 39.496094 45 40.5 43.996094 40.5 42.75 L 40.5 13.5 Z M 30 3 "/>
</g>
</svg>
