
<svg xmlns="http://www.w3.org/2000/svg" xmlns:xlink="http://www.w3.org/1999/xlink" width="48" height="48" viewBox="0 0 48 48" version="1.1">
<defs>
<linearGradient id="linear0" gradientUnits="userSpaceOnUse" x1="31.999998" y1="60" x2="31.999998" y2="4" gradientTransform="matrix(0.75,0,0,0.75,-0.000000226772,0.000000000000085265)">
<stop offset="0" style="stop-color:rgb(0%,0%,0%);stop-opacity:0.2;"/>
<stop offset="1" style="stop-color:rgb(100%,100%,100%);stop-opacity:0;"/>
</linearGradient>
</defs>
<g id="surface1">
<path style=" stroke:none;fill-rule:nonzero;fill:rgb(47.058824%,56.470591%,61.176473%);fill-opacity:1;" d="M 30 3 L 9.75 3 C 8.503906 3 7.5 4.003906 7.5 5.25 L 7.5 42.75 C 7.5 43.996094 8.503906 45 9.75 45 L 38.25 45 C 39.496094 45 40.5 43.996094 40.5 42.75 L 40.5 13.5 Z M 30 3 "/>
<path style=" stroke:none;fill-rule:nonzero;fill:rgb(0%,0%,0%);fill-opacity:0.4;" d="M 30 11.25 L 30 12 C 30 13.246094 31.003906 14.25 32.25 14.25 L 40.5 14.25 L 39.75 13.5 L 32.25 13.5 C 31.003906 13.5 30 12.496094 30 11.25 Z M 30 11.25 "/>
<path style=" stroke:none;fill-rule:nonzero;fill:rgb(56.470591%,64.313728%,68.235296%);fill-opacity:0.996078;" d="M 40.5 13.5 L 30 3 L 30 11.25 C 30 12.496094 31.003906 13.5 32.25 13.5 Z M 40.5 13.5 "/>
<path style=" stroke:none;fill-rule:nonzero;fill:rgb(100%,100%,100%);fill-opacity:0.4;" d="M 9.75 3 C 8.503906 3 7.5 4.003906 7.5 5.25 L 7.5 6 C 7.5 4.753906 8.503906 3.75 9.75 3.75 L 30 3.75 L 40.5 14.25 L 40.5 13.5 L 30 3 Z M 9.75 3 "/>
<path style=" stroke:none;fill-rule:nonzero;fill:rgb(0%,0%,0%);fill-opacity:0.2;" d="M 7.5 42.738281 L 7.5 43.875 C 7.5 45.121094 8.503906 46.125 9.75 46.125 L 38.25 46.125 C 39.496094 46.125 40.5 45.121094 40.5 43.875 L 40.5 42.738281 C 40.5 43.984375 39.496094 44.988281 38.25 44.988281 L 9.75 44.988281 C 8.503906 44.988281 7.5 43.984375 7.5 42.738281 Z M 7.5 42.738281 "/>
<path style=" stroke:none;fill-rule:nonzero;fill:rgb(0%,0%,0%);fill-opacity:0.4;" d="M 7.5 42.09375 L 7.5 42.75 C 7.5 43.996094 8.503906 45 9.75 45 L 38.25 45 C 39.496094 45 40.5 43.996094 40.5 42.75 L 40.5 42.09375 C 40.5 43.339844 39.496094 44.34375 38.25 44.34375 L 9.75 44.34375 C 8.503906 44.34375 7.5 43.339844 7.5 42.09375 Z M 7.5 42.09375 "/>
<path style=" stroke:none;fill-rule:nonzero;fill:rgb(69.01961%,74.509805%,77.254903%);fill-opacity:1;" d="M 22.5 18 C 22.085938 18 21.75 18.335938 21.75 18.75 L 21.75 27.597656 C 21.125 27.222656 20.34375 27 19.5 27 C 17.421875 27 15.75 28.339844 15.75 30 C 15.75 31.660156 17.421875 33 19.5 33 C 21.578125 33 23.25 31.660156 23.25 30 L 23.25 18 Z M 24.375 18 C 24.167969 18 24 18.167969 24 18.375 L 24 19.125 C 24 19.332031 24.167969 19.5 24.375 19.5 L 32.625 19.5 C 32.832031 19.5 33 19.332031 33 19.125 L 33 18.375 C 33 18.167969 32.832031 18 32.625 18 Z M 24.375 21 C 24.167969 21 24 21.167969 24 21.375 L 24 22.125 C 24 22.332031 24.167969 22.5 24.375 22.5 L 32.625 22.5 C 32.832031 22.5 33 22.332031 33 22.125 L 33 21.375 C 33 21.167969 32.832031 21 32.625 21 Z M 24.375 24 C 24.167969 24 24 24.167969 24 24.375 L 24 25.125 C 24 25.332031 24.167969 25.5 24.375 25.5 L 32.625 25.5 C 32.832031 25.5 33 25.332031 33 25.125 L 33 24.375 C 33 24.167969 32.832031 24 32.625 24 Z M 24.375 27 C 24.167969 27 24 27.167969 24 27.375 L 24 28.125 C 24 28.332031 24.167969 28.5 24.375 28.5 L 32.625 28.5 C 32.832031 28.5 33 28.332031 33 28.125 L 33 27.375 C 33 27.167969 32.832031 27 32.625 27 Z M 24.375 27 "/>
<path style=" stroke:none;fill-rule:nonzero;fill:rgb(0%,0%,0%);fill-opacity:0.4;" d="M 24 19.125 L 24 19.5 C 24 19.707031 24.167969 19.875 24.375 19.875 L 32.625 19.875 C 32.832031 19.875 33 19.707031 33 19.5 L 33 19.125 C 33 19.332031 32.832031 19.5 32.625 19.5 L 24.375 19.5 C 24.167969 19.5 24 19.332031 24 19.125 Z M 24 22.125 L 24 22.5 C 24 22.707031 24.167969 22.875 24.375 22.875 L 32.625 22.875 C 32.832031 22.875 33 22.707031 33 22.5 L 33 22.125 C 33 22.332031 32.832031 22.5 32.625 22.5 L 24.375 22.5 C 24.167969 22.5 24 22.332031 24 22.125 Z M 24 25.125 L 24 25.5 C 24 25.707031 24.167969 25.875 24.375 25.875 L 32.625 25.875 C 32.832031 25.875 33 25.707031 33 25.5 L 33 25.125 C 33 25.332031 32.832031 25.5 32.625 25.5 L 24.375 25.5 C 24.167969 25.5 24 25.332031 24 25.125 Z M 24 28.125 L 24 28.5 C 24 28.707031 24.167969 28.875 24.375 28.875 L 32.625 28.875 C 32.832031 28.875 33 28.707031 33 28.5 L 33 28.125 C 33 28.332031 32.832031 28.5 32.625 28.5 L 24.375 28.5 C 24.167969 28.5 24 28.332031 24 28.125 Z M 23.25 30 C 23.25 31.660156 21.578125 33 19.5 33 C 17.5 33 15.878906 31.761719 15.757812 30.1875 C 15.753906 30.25 15.75 30.3125 15.75 30.375 C 15.75 32.035156 17.421875 33.375 19.5 33.375 C 21.578125 33.375 23.25 32.035156 23.25 30.375 Z M 23.25 30 "/>
<path style=" stroke:none;fill-rule:nonzero;fill:rgb(100%,100%,100%);fill-opacity:0.4;" d="M 22.5 18 C 22.085938 18 21.75 18.335938 21.75 18.75 L 21.75 19.125 C 21.75 18.710938 22.085938 18.375 22.5 18.375 L 23.25 18.375 L 23.25 18 Z M 24.375 18 C 24.167969 18 24 18.167969 24 18.375 L 24 18.75 C 24 18.542969 24.167969 18.375 24.375 18.375 L 32.625 18.375 C 32.832031 18.375 33 18.542969 33 18.75 L 33 18.375 C 33 18.167969 32.832031 18 32.625 18 Z M 24.375 21 C 24.167969 21 24 21.167969 24 21.375 L 24 21.75 C 24 21.542969 24.167969 21.375 24.375 21.375 L 32.625 21.375 C 32.832031 21.375 33 21.542969 33 21.75 L 33 21.375 C 33 21.167969 32.832031 21 32.625 21 Z M 24.375 24 C 24.167969 24 24 24.167969 24 24.375 L 24 24.75 C 24 24.542969 24.167969 24.375 24.375 24.375 L 32.625 24.375 C 32.832031 24.375 33 24.542969 33 24.75 L 33 24.375 C 33 24.167969 32.832031 24 32.625 24 Z M 19.5 27 C 17.421875 27 15.75 28.339844 15.75 30 C 15.75 30.0625 15.753906 30.125 15.757812 30.1875 C 15.878906 28.613281 17.5 27.375 19.5 27.375 C 20.34375 27.375 21.125 27.597656 21.75 27.972656 L 21.75 27.597656 C 21.125 27.222656 20.34375 27 19.5 27 Z M 24.375 27 C 24.167969 27 24 27.167969 24 27.375 L 24 27.75 C 24 27.542969 24.167969 27.375 24.375 27.375 L 32.625 27.375 C 32.832031 27.375 33 27.542969 33 27.75 L 33 27.375 C 33 27.167969 32.832031 27 32.625 27 Z M 24.375 27 "/>
<path style=" stroke:none;fill-rule:nonzero;fill:url(#linear0);" d="M 30 3 L 9.75 3 C 8.503906 3 7.5 4.003906 7.5 5.25 L 7.5 42.75 C 7.5 43.996094 8.503906 45 9.75 45 L 38.25 45 C 39.496094 45 40.5 43.996094 40.5 42.75 L 40.5 13.5 Z M 30 3 "/>
</g>
</svg>
