
<svg xmlns="http://www.w3.org/2000/svg" xmlns:xlink="http://www.w3.org/1999/xlink" width="64" height="64" viewBox="0 0 64 64" version="1.1">
<defs>
<linearGradient id="linear0" gradientUnits="userSpaceOnUse" x1="31.999998" y1="60" x2="31.999998" y2="3.999999" >
<stop offset="0" style="stop-color:rgb(0%,0%,0%);stop-opacity:0.2;"/>
<stop offset="1" style="stop-color:rgb(100%,100%,100%);stop-opacity:0;"/>
</linearGradient>
</defs>
<g id="surface1">
<path style=" stroke:none;fill-rule:nonzero;fill:rgb(100%,70.19608%,0%);fill-opacity:1;" d="M 38 8 C 36.511719 8 35.222656 8.804688 34.53125 10 L 10 10 C 7.785156 10 6 11.785156 6 14 L 6 20 C 6 22.214844 7.785156 24 10 24 L 54 24 C 56.214844 24 58 22.214844 58 20 L 58 12 C 58 9.785156 56.214844 8 54 8 Z M 38 8 "/>
<path style=" stroke:none;fill-rule:nonzero;fill:rgb(100%,100%,100%);fill-opacity:0.4;" d="M 38 8 C 36.511719 8 35.222656 8.804688 34.53125 10 L 10 10 C 7.785156 10 6 11.785156 6 14 L 6 14.074219 C 6.210938 12.058594 7.90625 10.5 9.976562 10.5 L 34.511719 10.5 C 35.199219 9.304688 36.488281 8.5 37.976562 8.5 L 53.976562 8.5 C 56.191406 8.5 57.976562 10.285156 57.976562 12.5 L 57.976562 20.421875 C 57.992188 20.285156 58 20.144531 58 20 L 58 12 C 58 9.785156 56.214844 8 54 8 Z M 38 8 "/>
<path style=" stroke:none;fill-rule:nonzero;fill:rgb(100%,79.215688%,15.686275%);fill-opacity:1;" d="M 8 12 C 5.785156 12 4 13.785156 4 16 L 4 52 C 4 54.214844 5.785156 56 8 56 L 56 56 C 58.214844 56 60 54.214844 60 52 L 60 20 C 60 17.785156 58.214844 16 56 16 L 38.050781 16 C 38.035156 16 38.015625 16 38 16 C 36.890625 16 36 15.109375 36 14 C 36 12.890625 35.109375 12 34 12 Z M 8 12 "/>
<path style=" stroke:none;fill-rule:nonzero;fill:rgb(100%,100%,100%);fill-opacity:0.4;" d="M 8 12 C 5.785156 12 4 13.785156 4 16 L 4 17 C 4 14.785156 5.785156 13 8 13 L 34 13 C 35.109375 13 36 13.890625 36 15 C 36 16.109375 36.890625 17 38 17 C 38.015625 17 38.035156 17 38.050781 17 L 56 17 C 58.214844 17 60 18.785156 60 21 L 60 20 C 60 17.785156 58.214844 16 56 16 L 38.050781 16 C 38.035156 16 38.015625 16 38 16 C 36.890625 16 36 15.109375 36 14 C 36 12.890625 35.109375 12 34 12 Z M 8 12 "/>
<path style=" stroke:none;fill-rule:nonzero;fill:rgb(0%,0%,0%);fill-opacity:0.4;" d="M 4 51 L 4 52 C 4 54.214844 5.785156 56 8 56 L 56 56 C 58.214844 56 60 54.214844 60 52 L 60 51 C 60 53.214844 58.214844 55 56 55 L 8 55 C 5.785156 55 4 53.214844 4 51 Z M 4 51 "/>
<path style=" stroke:none;fill-rule:nonzero;fill:rgb(0%,0%,0%);fill-opacity:0.2;" d="M 4 52 L 4 53.5 C 4 55.714844 5.785156 57.5 8 57.5 L 56 57.5 C 58.214844 57.5 60 55.714844 60 53.5 L 60 52 C 60 54.214844 58.214844 56 56 56 L 8 56 C 5.785156 56 4 54.214844 4 52 Z M 4 52 "/>
<path style=" stroke:none;fill-rule:nonzero;fill:rgb(100%,92.54902%,70.19608%);fill-opacity:1;" d="M 29 24.007812 C 24.015625 24.007812 20 28.019531 20 33.007812 C 20 37.992188 24.015625 42.007812 29 42.007812 C 31.292969 42.007812 33.378906 41.15625 34.964844 39.757812 L 41.855469 43.738281 C 42.574219 44.152344 43.492188 43.910156 43.90625 43.191406 L 44.40625 42.324219 C 44.820312 41.601562 44.574219 40.6875 43.855469 40.273438 L 37.304688 36.492188 C 37.753906 35.417969 38 34.242188 38 33.007812 C 38 28.019531 33.984375 24.007812 29 24.007812 Z M 29 26.007812 C 32.878906 26.007812 36 29.128906 36 33.007812 C 36 36.882812 32.878906 40.007812 29 40.007812 C 25.121094 40.007812 22 36.882812 22 33.007812 C 22 29.128906 25.121094 26.007812 29 26.007812 Z M 29 27.007812 C 25.675781 27.007812 23 29.683594 23 33.007812 L 25 33.007812 C 25 30.789062 26.785156 29.007812 29 29.007812 Z M 29 27.007812 "/>
<path style=" stroke:none;fill-rule:nonzero;fill:rgb(0%,0%,0%);fill-opacity:0.4;" d="M 29 26 C 25.121094 26 22 29.121094 22 33 C 22 33.085938 22.003906 33.167969 22.007812 33.253906 C 22.136719 29.492188 25.207031 26.503906 29 26.503906 C 32.792969 26.503906 35.863281 29.492188 35.996094 33.253906 C 35.996094 33.167969 36 33.085938 36 33 C 36 29.121094 32.878906 26 29 26 Z M 29 29 C 26.785156 29 25 30.785156 25 33 L 23.023438 33 C 23.007812 33.167969 23 33.335938 23 33.503906 L 25 33.503906 C 25 31.289062 26.785156 29.503906 29 29.503906 Z M 37.996094 33.25 C 37.96875 34.394531 37.722656 35.484375 37.304688 36.484375 L 37.464844 36.578125 C 37.8125 35.617188 38 34.585938 38 33.503906 C 38 33.417969 38 33.335938 37.996094 33.25 Z M 20.003906 33.253906 C 20 33.335938 20 33.417969 20 33.503906 C 20 38.488281 24.015625 42.503906 29 42.503906 C 31.292969 42.503906 33.378906 41.65625 34.960938 40.257812 L 41.855469 44.238281 C 42.574219 44.652344 43.492188 44.40625 43.90625 43.6875 L 44.40625 42.820312 C 44.589844 42.503906 44.644531 42.148438 44.585938 41.8125 C 44.558594 41.984375 44.5 42.15625 44.40625 42.316406 L 43.90625 43.183594 C 43.492188 43.902344 42.574219 44.148438 41.855469 43.734375 L 34.964844 39.753906 C 33.378906 41.152344 31.292969 42 29 42 C 24.097656 42 20.132812 38.121094 20.003906 33.253906 Z M 20.003906 33.253906 "/>
<path style=" stroke:none;fill-rule:nonzero;fill:rgb(99.607843%,99.607843%,99.607843%);fill-opacity:0.4;" d="M 29 24.007812 C 24.015625 24.007812 20 28.019531 20 33.007812 C 20 33.089844 20 33.171875 20.003906 33.253906 C 20.132812 28.386719 24.097656 24.503906 29 24.503906 C 33.902344 24.503906 37.867188 28.386719 37.996094 33.253906 C 38 33.171875 38 33.089844 38 33.007812 C 38 28.019531 33.984375 24.007812 29 24.007812 Z M 29 27.007812 C 25.675781 27.007812 23 29.683594 23 33.007812 L 23.019531 33.007812 C 23.273438 29.917969 25.84375 27.507812 29 27.507812 Z M 22.007812 33.257812 C 22.003906 33.339844 22 33.421875 22 33.503906 C 22 37.382812 25.121094 40.503906 29 40.503906 C 32.878906 40.503906 36 37.382812 36 33.503906 C 36 33.421875 35.996094 33.339844 35.992188 33.257812 C 35.863281 37.015625 32.792969 40.007812 29 40.007812 C 25.207031 40.007812 22.136719 37.015625 22.003906 33.257812 Z M 37.464844 36.582031 C 37.414062 36.71875 37.359375 36.855469 37.304688 36.992188 L 43.855469 40.773438 C 44.257812 41.007812 44.511719 41.394531 44.585938 41.816406 C 44.683594 41.21875 44.414062 40.59375 43.855469 40.273438 Z M 37.464844 36.582031 "/>
<path style=" stroke:none;fill-rule:nonzero;fill:url(#linear0);" d="M 38 8 C 36.511719 8 35.222656 8.804688 34.53125 10 L 10 10 C 8.371094 10 6.976562 10.960938 6.351562 12.351562 C 4.960938 12.976562 4 14.371094 4 16 L 4 52 C 4 54.214844 5.785156 56 8 56 L 56 56 C 58.214844 56 60 54.214844 60 52 L 60 20 C 60 18.515625 59.195312 17.226562 58 16.535156 L 58 12 C 58 9.785156 56.214844 8 54 8 Z M 38 8 "/>
</g>
</svg>
