
<svg xmlns="http://www.w3.org/2000/svg" xmlns:xlink="http://www.w3.org/1999/xlink" width="22" height="22" viewBox="0 0 22 22" version="1.1">
<defs>
<linearGradient id="linear0" gradientUnits="userSpaceOnUse" x1="32" y1="51.999996" x2="31.999998" y2="12" gradientTransform="matrix(0.34375,0,0,0.34375,0,0.00000000000003908)">
<stop offset="0" style="stop-color:rgb(0%,0%,0%);stop-opacity:0.2;"/>
<stop offset="1" style="stop-color:rgb(100%,100%,100%);stop-opacity:0;"/>
</linearGradient>
</defs>
<g id="surface1">
<path style=" stroke:none;fill-rule:nonzero;fill:rgb(39.215687%,70.980394%,96.470588%);fill-opacity:1;" d="M 2.0625 9.625 L 19.9375 9.625 C 20.316406 9.625 20.625 9.933594 20.625 10.3125 L 20.625 11.6875 C 20.625 12.066406 20.316406 12.375 19.9375 12.375 L 2.0625 12.375 C 1.683594 12.375 1.375 12.066406 1.375 11.6875 L 1.375 10.3125 C 1.375 9.933594 1.683594 9.625 2.0625 9.625 Z M 2.0625 9.625 "/>
<path style=" stroke:none;fill-rule:nonzero;fill:rgb(25.882354%,64.705884%,96.078432%);fill-opacity:1;" d="M 1.375 11 L 1.375 11.6875 C 1.375 12.070312 1.679688 12.375 2.0625 12.375 L 19.9375 12.375 C 20.320312 12.375 20.625 12.070312 20.625 11.6875 L 20.625 11 Z M 1.375 11 "/>
<path style=" stroke:none;fill-rule:nonzero;fill:rgb(0.784314%,0.784314%,0.784314%);fill-opacity:0.4;" d="M 2.0625 12.375 C 1.679688 12.375 1.375 12.070312 1.375 11.6875 L 1.375 11.34375 C 1.375 11.726562 1.679688 12.03125 2.0625 12.03125 L 19.9375 12.03125 C 20.320312 12.03125 20.625 11.726562 20.625 11.34375 L 20.625 11.6875 C 20.625 12.070312 20.320312 12.375 19.9375 12.375 Z M 2.0625 12.375 "/>
<path style=" stroke:none;fill-rule:nonzero;fill:rgb(100%,100%,100%);fill-opacity:0.4;" d="M 2.0625 9.625 C 1.679688 9.625 1.375 9.929688 1.375 10.3125 L 1.375 10.65625 C 1.375 10.273438 1.679688 9.96875 2.0625 9.96875 L 19.9375 9.96875 C 20.320312 9.96875 20.625 10.273438 20.625 10.65625 L 20.625 10.3125 C 20.625 9.929688 20.320312 9.625 19.9375 9.625 Z M 2.0625 9.625 "/>
<path style=" stroke:none;fill-rule:nonzero;fill:rgb(89.803922%,22.352941%,20.784314%);fill-opacity:1;" d="M 3.09375 5.5 L 3.78125 5.5 C 4.351562 5.5 4.8125 5.960938 4.8125 6.53125 L 4.8125 15.46875 C 4.8125 16.039062 4.351562 16.5 3.78125 16.5 L 3.09375 16.5 C 2.523438 16.5 2.0625 16.039062 2.0625 15.46875 L 2.0625 6.53125 C 2.0625 5.960938 2.523438 5.5 3.09375 5.5 Z M 3.09375 5.5 "/>
<path style=" stroke:none;fill-rule:nonzero;fill:rgb(89.803922%,22.352941%,20.784314%);fill-opacity:1;" d="M 18.21875 5.5 L 18.90625 5.5 C 19.476562 5.5 19.9375 5.960938 19.9375 6.53125 L 19.9375 15.46875 C 19.9375 16.039062 19.476562 16.5 18.90625 16.5 L 18.21875 16.5 C 17.648438 16.5 17.1875 16.039062 17.1875 15.46875 L 17.1875 6.53125 C 17.1875 5.960938 17.648438 5.5 18.21875 5.5 Z M 18.21875 5.5 "/>
<path style=" stroke:none;fill-rule:nonzero;fill:rgb(95.686275%,26.274511%,21.176471%);fill-opacity:1;" d="M 5.84375 4.125 L 6.53125 4.125 C 7.101562 4.125 7.5625 4.585938 7.5625 5.15625 L 7.5625 16.84375 C 7.5625 17.414062 7.101562 17.875 6.53125 17.875 L 5.84375 17.875 C 5.273438 17.875 4.8125 17.414062 4.8125 16.84375 L 4.8125 5.15625 C 4.8125 4.585938 5.273438 4.125 5.84375 4.125 Z M 5.84375 4.125 "/>
<path style=" stroke:none;fill-rule:nonzero;fill:rgb(95.686275%,26.274511%,21.176471%);fill-opacity:1;" d="M 15.46875 4.125 L 16.15625 4.125 C 16.726562 4.125 17.1875 4.585938 17.1875 5.15625 L 17.1875 16.84375 C 17.1875 17.414062 16.726562 17.875 16.15625 17.875 L 15.46875 17.875 C 14.898438 17.875 14.4375 17.414062 14.4375 16.84375 L 14.4375 5.15625 C 14.4375 4.585938 14.898438 4.125 15.46875 4.125 Z M 15.46875 4.125 "/>
<path style=" stroke:none;fill-rule:nonzero;fill:rgb(93.725491%,60.392159%,60.392159%);fill-opacity:0.2;" d="M 2.0625 8.25 L 7.5625 8.25 L 7.5625 9.625 L 2.0625 9.625 Z M 2.0625 8.25 "/>
<path style=" stroke:none;fill-rule:nonzero;fill:rgb(93.725491%,60.392159%,60.392159%);fill-opacity:0.2;" d="M 14.4375 8.25 L 19.9375 8.25 L 19.9375 9.625 L 14.4375 9.625 Z M 14.4375 8.25 "/>
<path style=" stroke:none;fill-rule:nonzero;fill:rgb(100%,100%,100%);fill-opacity:0.4;" d="M 3.09375 5.5 C 2.523438 5.5 2.0625 5.960938 2.0625 6.53125 L 2.0625 6.875 C 2.0625 6.304688 2.523438 5.84375 3.09375 5.84375 L 3.78125 5.84375 C 4.351562 5.84375 4.8125 6.304688 4.8125 6.875 L 4.8125 6.53125 C 4.8125 5.960938 4.351562 5.5 3.78125 5.5 Z M 3.09375 5.5 "/>
<path style=" stroke:none;fill-rule:nonzero;fill:rgb(100%,100%,100%);fill-opacity:0.4;" d="M 18.21875 5.5 C 17.648438 5.5 17.1875 5.960938 17.1875 6.53125 L 17.1875 6.875 C 17.1875 6.304688 17.648438 5.84375 18.21875 5.84375 L 18.90625 5.84375 C 19.476562 5.84375 19.9375 6.304688 19.9375 6.875 L 19.9375 6.53125 C 19.9375 5.960938 19.476562 5.5 18.90625 5.5 Z M 18.21875 5.5 "/>
<path style=" stroke:none;fill-rule:nonzero;fill:rgb(100%,100%,100%);fill-opacity:0.4;" d="M 5.84375 4.125 C 5.273438 4.125 4.8125 4.585938 4.8125 5.15625 L 4.8125 5.5 C 4.8125 4.929688 5.273438 4.46875 5.84375 4.46875 L 6.53125 4.46875 C 7.101562 4.46875 7.5625 4.929688 7.5625 5.5 L 7.5625 5.15625 C 7.5625 4.585938 7.101562 4.125 6.53125 4.125 Z M 5.84375 4.125 "/>
<path style=" stroke:none;fill-rule:nonzero;fill:rgb(100%,100%,100%);fill-opacity:0.4;" d="M 15.46875 4.125 C 14.898438 4.125 14.4375 4.585938 14.4375 5.15625 L 14.4375 5.5 C 14.4375 4.929688 14.898438 4.46875 15.46875 4.46875 L 16.15625 4.46875 C 16.726562 4.46875 17.1875 4.929688 17.1875 5.5 L 17.1875 5.15625 C 17.1875 4.585938 16.726562 4.125 16.15625 4.125 Z M 15.46875 4.125 "/>
<path style=" stroke:none;fill-rule:nonzero;fill:rgb(0.784314%,0.784314%,0.784314%);fill-opacity:0.4;" d="M 3.09375 16.5 C 2.523438 16.5 2.0625 16.039062 2.0625 15.46875 L 2.0625 15.125 C 2.0625 15.695312 2.523438 16.15625 3.09375 16.15625 L 3.78125 16.15625 C 4.351562 16.15625 4.8125 15.695312 4.8125 15.125 L 4.8125 15.46875 C 4.8125 16.039062 4.351562 16.5 3.78125 16.5 Z M 3.09375 16.5 "/>
<path style=" stroke:none;fill-rule:nonzero;fill:rgb(0.784314%,0.784314%,0.784314%);fill-opacity:0.4;" d="M 18.21875 16.5 C 17.648438 16.5 17.1875 16.039062 17.1875 15.46875 L 17.1875 15.125 C 17.1875 15.695312 17.648438 16.15625 18.21875 16.15625 L 18.90625 16.15625 C 19.476562 16.15625 19.9375 15.695312 19.9375 15.125 L 19.9375 15.46875 C 19.9375 16.039062 19.476562 16.5 18.90625 16.5 Z M 18.21875 16.5 "/>
<path style=" stroke:none;fill-rule:nonzero;fill:rgb(0.784314%,0.784314%,0.784314%);fill-opacity:0.4;" d="M 5.84375 17.875 C 5.273438 17.875 4.8125 17.414062 4.8125 16.84375 L 4.8125 16.5 C 4.8125 17.070312 5.273438 17.53125 5.84375 17.53125 L 6.53125 17.53125 C 7.101562 17.53125 7.5625 17.070312 7.5625 16.5 L 7.5625 16.84375 C 7.5625 17.414062 7.101562 17.875 6.53125 17.875 Z M 5.84375 17.875 "/>
<path style=" stroke:none;fill-rule:nonzero;fill:rgb(0.784314%,0.784314%,0.784314%);fill-opacity:0.4;" d="M 15.46875 17.875 C 14.898438 17.875 14.4375 17.414062 14.4375 16.84375 L 14.4375 16.5 C 14.4375 17.070312 14.898438 17.53125 15.46875 17.53125 L 16.15625 17.53125 C 16.726562 17.53125 17.1875 17.070312 17.1875 16.5 L 17.1875 16.84375 C 17.1875 17.414062 16.726562 17.875 16.15625 17.875 Z M 15.46875 17.875 "/>
<path style=" stroke:none;fill-rule:nonzero;fill:rgb(0%,0%,0%);fill-opacity:0.2;" d="M 2.0625 15.46875 L 2.0625 15.984375 C 2.0625 16.554688 2.523438 17.015625 3.09375 17.015625 L 3.78125 17.015625 C 4.351562 17.015625 4.8125 16.554688 4.8125 15.984375 L 4.8125 15.46875 C 4.8125 16.039062 4.351562 16.5 3.78125 16.5 L 3.09375 16.5 C 2.523438 16.5 2.0625 16.039062 2.0625 15.46875 Z M 17.1875 15.46875 L 17.1875 15.984375 C 17.1875 16.554688 17.648438 17.015625 18.21875 17.015625 L 18.90625 17.015625 C 19.476562 17.015625 19.9375 16.554688 19.9375 15.984375 L 19.9375 15.46875 C 19.9375 16.039062 19.476562 16.5 18.90625 16.5 L 18.21875 16.5 C 17.648438 16.5 17.1875 16.039062 17.1875 15.46875 Z M 4.8125 16.84375 L 4.8125 17.359375 C 4.8125 17.929688 5.273438 18.390625 5.84375 18.390625 L 6.53125 18.390625 C 7.101562 18.390625 7.5625 17.929688 7.5625 17.359375 L 7.5625 16.84375 C 7.5625 17.414062 7.101562 17.875 6.53125 17.875 L 5.84375 17.875 C 5.273438 17.875 4.8125 17.414062 4.8125 16.84375 Z M 14.4375 16.84375 L 14.4375 17.359375 C 14.4375 17.929688 14.898438 18.390625 15.46875 18.390625 L 16.15625 18.390625 C 16.726562 18.390625 17.1875 17.929688 17.1875 17.359375 L 17.1875 16.84375 C 17.1875 17.414062 16.726562 17.875 16.15625 17.875 L 15.46875 17.875 C 14.898438 17.875 14.4375 17.414062 14.4375 16.84375 Z M 14.4375 16.84375 "/>
<path style=" stroke:none;fill-rule:nonzero;fill:url(#linear0);" d="M 5.84375 4.125 C 5.273438 4.125 4.8125 4.585938 4.8125 5.15625 L 4.8125 6.53125 C 4.8125 5.960938 4.351562 5.5 3.78125 5.5 L 3.09375 5.5 C 2.523438 5.5 2.0625 5.960938 2.0625 6.53125 L 2.0625 9.625 C 1.679688 9.625 1.375 9.929688 1.375 10.3125 L 1.375 11.6875 C 1.375 12.070312 1.679688 12.375 2.0625 12.375 L 2.0625 15.46875 C 2.0625 16.039062 2.523438 16.5 3.09375 16.5 L 3.78125 16.5 C 4.351562 16.5 4.8125 16.039062 4.8125 15.46875 L 4.8125 16.84375 C 4.8125 17.414062 5.273438 17.875 5.84375 17.875 L 6.53125 17.875 C 7.101562 17.875 7.5625 17.414062 7.5625 16.84375 L 7.5625 12.375 L 14.4375 12.375 L 14.4375 16.84375 C 14.4375 17.414062 14.898438 17.875 15.46875 17.875 L 16.15625 17.875 C 16.726562 17.875 17.1875 17.414062 17.1875 16.84375 L 17.1875 15.46875 C 17.1875 16.039062 17.648438 16.5 18.21875 16.5 L 18.90625 16.5 C 19.476562 16.5 19.9375 16.039062 19.9375 15.46875 L 19.9375 12.375 C 20.320312 12.375 20.625 12.070312 20.625 11.6875 L 20.625 10.3125 C 20.625 9.929688 20.320312 9.625 19.9375 9.625 L 19.9375 6.53125 C 19.9375 5.960938 19.476562 5.5 18.90625 5.5 L 18.21875 5.5 C 17.648438 5.5 17.1875 5.960938 17.1875 6.53125 L 17.1875 5.15625 C 17.1875 4.585938 16.726562 4.125 16.15625 4.125 L 15.46875 4.125 C 14.898438 4.125 14.4375 4.585938 14.4375 5.15625 L 14.4375 9.625 L 7.5625 9.625 L 7.5625 5.15625 C 7.5625 4.585938 7.101562 4.125 6.53125 4.125 Z M 5.84375 4.125 "/>
</g>
</svg>
