
<svg xmlns="http://www.w3.org/2000/svg" xmlns:xlink="http://www.w3.org/1999/xlink" width="22" height="22" viewBox="0 0 22 22" version="1.1">
<defs>
<linearGradient id="linear0" gradientUnits="userSpaceOnUse" x1="17.282227" y1="16.089746" x2="16.372635" y2="10.859601" gradientTransform="matrix(1.113962,0,0,1.113962,-1.221694,-0.844223)">
<stop offset="0" style="stop-color:rgb(92.54902%,25.098041%,47.843137%);stop-opacity:0;"/>
<stop offset="1" style="stop-color:rgb(100%,79.215688%,15.686275%);stop-opacity:1;"/>
</linearGradient>
<linearGradient id="linear1" gradientUnits="userSpaceOnUse" x1="13.643896" y1="16.544556" x2="18.191862" y2="12.451387" gradientTransform="matrix(1.113962,0,0,1.113962,-1.221694,-0.844223)">
<stop offset="0" style="stop-color:rgb(92.54902%,25.098041%,47.843137%);stop-opacity:0;"/>
<stop offset="1" style="stop-color:rgb(100%,79.215688%,15.686275%);stop-opacity:1;"/>
</linearGradient>
<linearGradient id="linear2" gradientUnits="userSpaceOnUse" x1="8.466666" y1="-199.125" x2="8.466666" y2="-213.941666" gradientTransform="matrix(0.626365,0,0,0.626365,5.69678,140.364866)">
<stop offset="0" style="stop-color:rgb(0%,0%,0%);stop-opacity:0.2;"/>
<stop offset="1" style="stop-color:rgb(100%,100%,100%);stop-opacity:0;"/>
</linearGradient>
<linearGradient id="linear3" gradientUnits="userSpaceOnUse" x1="17.282227" y1="16.089746" x2="16.372635" y2="10.859601" gradientTransform="matrix(1.113962,0,0,1.113962,-1.221694,-0.844223)">
<stop offset="0" style="stop-color:rgb(92.54902%,25.098041%,47.843137%);stop-opacity:0;"/>
<stop offset="1" style="stop-color:rgb(100%,79.215688%,15.686275%);stop-opacity:1;"/>
</linearGradient>
<linearGradient id="linear4" gradientUnits="userSpaceOnUse" x1="13.643896" y1="16.544556" x2="18.191862" y2="12.451387" gradientTransform="matrix(1.113962,0,0,1.113962,-1.221694,-0.844223)">
<stop offset="0" style="stop-color:rgb(92.54902%,25.098041%,47.843137%);stop-opacity:0;"/>
<stop offset="1" style="stop-color:rgb(100%,79.215688%,15.686275%);stop-opacity:1;"/>
</linearGradient>
<linearGradient id="linear5" gradientUnits="userSpaceOnUse" x1="31.999998" y1="59.999996" x2="31.999998" y2="3.999999" gradientTransform="matrix(0.34375,0,0,0.34375,0.000155572,-0.000515435)">
<stop offset="0" style="stop-color:rgb(0%,0%,0%);stop-opacity:0.2;"/>
<stop offset="1" style="stop-color:rgb(100%,100%,100%);stop-opacity:0;"/>
</linearGradient>
</defs>
<g id="surface1">
<path style=" stroke:none;fill-rule:nonzero;fill:url(#linear0);" d="M 12.460938 8.972656 C 14.699219 9.949219 14.992188 11.679688 14.992188 14.285156 C 14.992188 17.40625 12.765625 19.980469 9.804688 20.519531 C 10.175781 20.589844 10.550781 20.625 10.9375 20.625 C 14.304688 20.625 17.015625 17.914062 17.015625 14.546875 C 17.015625 11.261719 15.710938 9.101562 12.460938 8.972656 Z M 12.460938 8.972656 "/>
<path style=" stroke:none;fill-rule:nonzero;fill:url(#linear1);" d="M 17.015625 4.414062 C 18.929688 5.933594 18.765625 7.679688 18.089844 10.199219 C 17.28125 13.210938 16.46875 15.296875 13.46875 15.050781 C 13.808594 15.210938 11.957031 19.476562 12.332031 19.578125 C 15.585938 20.449219 19.542969 15.894531 20.417969 12.644531 C 21.265625 9.46875 20.121094 5.382812 17.015625 4.414062 Z M 17.015625 4.414062 "/>
<path style=" stroke:none;fill-rule:nonzero;fill:rgb(49.411765%,34.117648%,76.078433%);fill-opacity:1;" d="M 10.9375 6.441406 C 13.457031 6.441406 15.496094 8.480469 15.496094 11 C 15.496094 13.519531 13.457031 15.5625 10.9375 15.5625 C 8.421875 15.5625 6.375 13.519531 6.375 11 C 6.375 8.480469 8.421875 6.441406 10.9375 6.441406 Z M 10.9375 6.441406 "/>
<path style=" stroke:none;fill-rule:nonzero;fill:rgb(100%,43.921569%,26.274511%);fill-opacity:1;" d="M 12.964844 1.375 C 11.457031 2.929688 11 4.0625 10.949219 5.425781 C 10.945312 5.425781 10.941406 5.425781 10.9375 5.425781 L 10.9375 6.441406 C 13.464844 6.441406 15.496094 8.472656 15.496094 11 C 15.496094 13.523438 13.464844 15.5625 10.9375 15.5625 C 8.414062 15.5625 6.375 13.523438 6.375 11 C 6.351562 7.652344 10.9375 9.988281 11.445312 7.957031 C 10.429688 7.453125 8.914062 5.679688 8.402344 5.425781 C 7.859375 5.101562 7.390625 4.414062 6.375 4.414062 C 6.375 3.65625 6.601562 2.800781 6.796875 2.300781 C 3.546875 3.84375 1.3125 7.148438 1.3125 11 C 1.3125 16.332031 5.605469 20.625 10.9375 20.625 C 16.269531 20.625 20.5625 16.332031 20.5625 11 C 20.5625 5.933594 15.671875 4.742188 12.964844 1.375 Z M 12.964844 1.375 "/>
<path style=" stroke:none;fill-rule:nonzero;fill:url(#linear2);" d="M 11 6.359375 C 13.5625 6.359375 15.640625 8.4375 15.640625 11 C 15.640625 13.5625 13.5625 15.640625 11 15.640625 C 8.4375 15.640625 6.359375 13.5625 6.359375 11 C 6.359375 8.4375 8.4375 6.359375 11 6.359375 Z M 11 6.359375 "/>
<path style=" stroke:none;fill-rule:nonzero;fill:url(#linear3);" d="M 12.460938 8.972656 C 14.699219 9.949219 14.992188 11.679688 14.992188 14.285156 C 14.992188 17.40625 12.765625 19.980469 9.804688 20.519531 C 10.175781 20.589844 10.550781 20.625 10.9375 20.625 C 14.304688 20.625 17.015625 17.914062 17.015625 14.546875 C 17.015625 11.261719 15.710938 9.101562 12.460938 8.972656 Z M 12.460938 8.972656 "/>
<path style=" stroke:none;fill-rule:nonzero;fill:url(#linear4);" d="M 17.015625 4.414062 C 18.929688 5.933594 18.765625 7.679688 18.089844 10.199219 C 17.28125 13.210938 16.46875 15.296875 13.46875 15.050781 C 13.808594 15.210938 11.957031 19.476562 12.332031 19.578125 C 15.585938 20.449219 19.542969 15.894531 20.417969 12.644531 C 21.265625 9.46875 20.121094 5.382812 17.015625 4.414062 Z M 17.015625 4.414062 "/>
<path style=" stroke:none;fill-rule:nonzero;fill:url(#linear5);" d="M 12.964844 1.375 C 11.457031 2.929688 11 4.0625 10.949219 5.425781 L 10.9375 5.425781 L 10.9375 6.4375 C 13.109375 6.4375 14.914062 7.941406 15.378906 9.96875 C 14.667969 9.371094 13.707031 9.023438 12.460938 8.972656 C 14.355469 9.796875 14.855469 11.164062 14.964844 13.144531 C 14.199219 14.582031 12.6875 15.558594 10.9375 15.558594 C 8.894531 15.558594 7.167969 14.226562 6.585938 12.378906 C 6.582031 12.363281 6.578125 12.347656 6.574219 12.335938 C 6.574219 12.332031 6.574219 12.328125 6.570312 12.328125 C 5.800781 9.667969 7.230469 9.183594 9.953125 8.898438 C 10.019531 8.890625 10.089844 8.878906 10.15625 8.871094 C 10.210938 8.863281 10.265625 8.851562 10.316406 8.84375 C 10.335938 8.839844 10.355469 8.835938 10.375 8.832031 C 10.90625 8.714844 11.3125 8.484375 11.445312 7.957031 C 10.429688 7.453125 8.914062 5.679688 8.402344 5.425781 C 7.859375 5.097656 7.390625 4.410156 6.375 4.410156 C 6.375 3.65625 6.601562 2.800781 6.796875 2.300781 C 3.546875 3.839844 1.3125 7.148438 1.3125 11 C 1.3125 16.28125 5.527344 20.546875 10.792969 20.621094 C 10.839844 20.625 10.886719 20.625 10.9375 20.625 C 10.992188 20.625 11.042969 20.625 11.097656 20.621094 C 15.8125 20.546875 19.679688 17.113281 20.429688 12.601562 C 21.257812 9.433594 20.109375 5.378906 17.015625 4.410156 C 17.648438 4.914062 18.050781 5.441406 18.289062 6.015625 C 16.648438 4.449219 14.46875 3.246094 12.964844 1.375 Z M 12.964844 1.375 "/>
<path style=" stroke:none;fill-rule:nonzero;fill:rgb(100%,79.215688%,15.686275%);fill-opacity:1;" d="M 6.375 9.480469 C 5.957031 10.738281 6.238281 11.652344 6.628906 12.507812 C 6.46875 12.035156 6.375 11.527344 6.375 11 C 6.351562 7.714844 10.765625 9.898438 11.410156 8.066406 C 10.628906 8.199219 9.28125 8.25 7.730469 7.882812 C 4.125 6.875 2.363281 8.722656 6.375 9.480469 Z M 6.375 9.480469 "/>
<path style=" stroke:none;fill-rule:nonzero;fill:rgb(0%,0%,0%);fill-opacity:0.4;" d="M 6.664062 2.695312 C 6.660156 2.703125 6.660156 2.707031 6.65625 2.714844 C 6.617188 2.734375 6.582031 2.757812 6.546875 2.773438 C 6.449219 3.183594 6.375 3.640625 6.375 4.070312 C 6.382812 4.070312 6.386719 4.070312 6.390625 4.070312 C 6.429688 3.585938 6.539062 3.09375 6.664062 2.695312 Z M 17.320312 4.523438 C 17.335938 4.527344 17.347656 4.535156 17.363281 4.539062 C 17.347656 4.535156 17.335938 4.527344 17.320312 4.523438 Z M 17.316406 4.671875 C 17.351562 4.703125 17.378906 4.734375 17.410156 4.765625 C 17.378906 4.734375 17.351562 4.703125 17.316406 4.671875 Z M 17.59375 4.953125 C 17.703125 5.070312 17.800781 5.1875 17.886719 5.308594 C 18.023438 5.425781 18.15625 5.546875 18.289062 5.671875 C 18.230469 5.53125 18.15625 5.390625 18.078125 5.257812 C 17.941406 5.167969 17.800781 5.085938 17.652344 5.011719 C 17.632812 4.992188 17.613281 4.972656 17.59375 4.953125 Z M 10.9375 6.097656 L 10.9375 6.441406 C 12.945312 6.441406 14.636719 7.726562 15.25 9.523438 C 15.292969 9.554688 15.335938 9.589844 15.378906 9.625 C 14.914062 7.597656 13.109375 6.097656 10.9375 6.097656 Z M 11.390625 8.117188 C 11.375 8.160156 11.351562 8.199219 11.332031 8.238281 C 11.351562 8.199219 11.375 8.160156 11.390625 8.117188 Z M 11.148438 8.128906 C 10.953125 8.3125 10.683594 8.421875 10.375 8.488281 C 10.355469 8.492188 10.335938 8.496094 10.316406 8.5 C 10.261719 8.507812 10.210938 8.519531 10.15625 8.527344 C 10.089844 8.539062 10.019531 8.546875 9.953125 8.554688 C 7.632812 8.800781 6.25 9.1875 6.371094 10.945312 C 6.449219 9.480469 7.792969 9.125 9.953125 8.898438 C 10.019531 8.890625 10.089844 8.882812 10.15625 8.871094 C 10.210938 8.863281 10.261719 8.851562 10.316406 8.84375 C 10.335938 8.839844 10.355469 8.835938 10.375 8.832031 C 10.796875 8.738281 11.140625 8.570312 11.328125 8.242188 C 11.269531 8.207031 11.210938 8.167969 11.148438 8.128906 Z M 12.859375 9.167969 C 12.867188 9.171875 12.875 9.175781 12.878906 9.179688 C 12.875 9.175781 12.867188 9.171875 12.859375 9.167969 Z M 13.230469 9.390625 C 14.417969 10.183594 14.816406 11.324219 14.9375 12.847656 C 14.949219 12.832031 14.957031 12.816406 14.964844 12.800781 C 14.886719 11.410156 14.617188 10.324219 13.808594 9.515625 C 13.625 9.464844 13.433594 9.421875 13.230469 9.390625 Z M 20.683594 10.476562 C 20.683594 10.480469 20.683594 10.488281 20.683594 10.492188 C 20.683594 10.496094 20.683594 10.503906 20.683594 10.507812 C 20.683594 10.496094 20.683594 10.488281 20.683594 10.476562 Z M 20.679688 10.546875 C 20.65625 11.128906 20.574219 11.707031 20.429688 12.257812 C 19.679688 16.769531 15.8125 20.203125 11.097656 20.28125 C 11.042969 20.28125 10.988281 20.28125 10.9375 20.28125 C 10.886719 20.28125 10.839844 20.28125 10.792969 20.28125 C 5.644531 20.203125 1.503906 16.125 1.320312 11.007812 C 1.316406 11.054688 1.316406 11.097656 1.3125 11.144531 C 1.3125 11.144531 1.3125 11.148438 1.3125 11.148438 C 1.390625 16.363281 5.578125 20.546875 10.792969 20.625 C 10.839844 20.625 10.886719 20.625 10.9375 20.625 C 10.988281 20.625 11.042969 20.625 11.097656 20.625 C 15.8125 20.546875 19.679688 17.113281 20.429688 12.601562 C 20.597656 11.953125 20.675781 11.269531 20.679688 10.582031 C 20.679688 10.570312 20.679688 10.558594 20.679688 10.546875 Z M 20.679688 10.546875 "/>
<path style=" stroke:none;fill-rule:nonzero;fill:rgb(100%,100%,100%);fill-opacity:0.4;" d="M 12.964844 1.375 C 11.457031 2.929688 11 4.0625 10.949219 5.425781 L 10.9375 5.425781 L 10.9375 5.769531 L 10.949219 5.769531 C 11 4.40625 11.457031 3.273438 12.964844 1.71875 C 14.46875 3.589844 16.648438 4.792969 18.289062 6.359375 C 18.191406 6.121094 18.0625 5.894531 17.90625 5.671875 C 16.320312 4.265625 14.355469 3.105469 12.964844 1.375 Z M 6.796875 2.300781 C 3.546875 3.84375 1.3125 7.148438 1.3125 11 C 1.3125 11.050781 1.3125 11.097656 1.3125 11.148438 C 1.386719 7.4375 3.539062 4.257812 6.65625 2.714844 C 6.703125 2.5625 6.75 2.421875 6.796875 2.300781 Z M 17.015625 4.414062 C 17.261719 4.609375 17.472656 4.808594 17.652344 5.011719 C 19.613281 5.980469 20.625 8.308594 20.683594 10.65625 C 20.726562 7.953125 19.5 5.1875 17.015625 4.414062 Z M 6.390625 4.414062 C 6.382812 4.527344 6.375 4.644531 6.375 4.757812 C 7.390625 4.757812 7.859375 5.445312 8.402344 5.769531 C 8.894531 6.011719 10.320312 7.667969 11.328125 8.242188 C 11.378906 8.15625 11.417969 8.066406 11.445312 7.957031 C 10.429688 7.453125 8.914062 5.679688 8.402344 5.425781 C 7.863281 5.101562 7.394531 4.417969 6.390625 4.414062 Z M 12.457031 8.972656 C 12.75 9.097656 13.003906 9.238281 13.230469 9.390625 C 14.113281 9.53125 14.824219 9.84375 15.378906 10.3125 C 15.34375 10.164062 15.300781 10.015625 15.253906 9.875 C 14.554688 9.335938 13.636719 9.019531 12.457031 8.972656 Z M 6.371094 11.210938 C 6.339844 11.609375 6.402344 12.085938 6.570312 12.671875 C 6.574219 12.671875 6.574219 12.675781 6.574219 12.679688 C 6.578125 12.695312 6.582031 12.707031 6.585938 12.722656 C 7.167969 14.570312 8.894531 15.90625 10.9375 15.90625 C 12.6875 15.90625 14.199219 14.925781 14.964844 13.488281 C 14.957031 13.382812 14.949219 13.28125 14.941406 13.179688 C 14.171875 14.601562 12.671875 15.5625 10.9375 15.5625 C 8.894531 15.5625 7.167969 14.226562 6.585938 12.378906 C 6.582031 12.363281 6.578125 12.347656 6.574219 12.335938 C 6.574219 12.332031 6.574219 12.332031 6.570312 12.328125 C 6.449219 11.902344 6.386719 11.535156 6.371094 11.210938 Z M 6.371094 11.210938 "/>
<path style=" stroke:none;fill-rule:nonzero;fill:rgb(0%,0%,0%);fill-opacity:0.2;" d="M 6.796875 2.816406 C 6.730469 2.847656 6.664062 2.882812 6.601562 2.914062 C 6.476562 3.371094 6.375 3.914062 6.375 4.414062 C 6.382812 4.414062 6.386719 4.414062 6.390625 4.414062 C 6.394531 4.414062 6.402344 4.414062 6.40625 4.414062 C 6.476562 3.808594 6.644531 3.207031 6.796875 2.816406 Z M 10.9375 6.441406 L 10.9375 6.957031 C 12.859375 6.957031 14.492188 8.132812 15.164062 9.808594 C 15.1875 9.820312 15.203125 9.835938 15.222656 9.851562 C 15.234375 9.859375 15.246094 9.867188 15.253906 9.875 C 15.296875 9.90625 15.339844 9.9375 15.378906 9.972656 C 14.914062 7.945312 13.109375 6.441406 10.9375 6.441406 Z M 11.25 8.367188 C 11.050781 8.617188 10.742188 8.753906 10.375 8.832031 C 10.355469 8.835938 10.335938 8.839844 10.316406 8.84375 C 10.261719 8.855469 10.210938 8.867188 10.15625 8.875 C 10.089844 8.882812 10.019531 8.894531 9.953125 8.902344 C 7.667969 9.140625 6.300781 9.527344 6.371094 11.214844 C 6.375 11.25 6.378906 11.289062 6.378906 11.324219 C 6.535156 9.972656 7.859375 9.632812 9.953125 9.414062 C 10.019531 9.40625 10.089844 9.398438 10.15625 9.386719 C 10.210938 9.378906 10.261719 9.367188 10.316406 9.359375 C 10.335938 9.355469 10.355469 9.351562 10.375 9.347656 C 10.90625 9.230469 11.3125 9 11.445312 8.472656 C 11.382812 8.441406 11.316406 8.40625 11.25 8.367188 Z M 12.457031 9.488281 C 14.207031 10.246094 14.765625 11.46875 14.929688 13.203125 C 14.933594 13.195312 14.9375 13.1875 14.941406 13.179688 C 14.941406 13.183594 14.941406 13.183594 14.941406 13.183594 C 14.949219 13.171875 14.957031 13.160156 14.964844 13.148438 C 14.878906 11.617188 14.5625 10.453125 13.542969 9.621094 C 13.210938 9.546875 12.847656 9.503906 12.457031 9.488281 Z M 20.683594 10.796875 C 20.664062 11.414062 20.582031 12.023438 20.429688 12.605469 C 19.679688 17.117188 15.8125 20.550781 11.097656 20.625 C 11.042969 20.628906 10.988281 20.628906 10.9375 20.628906 C 10.886719 20.628906 10.839844 20.628906 10.792969 20.625 C 5.621094 20.550781 1.460938 16.433594 1.316406 11.28125 C 1.3125 11.359375 1.3125 11.4375 1.3125 11.515625 C 1.3125 16.796875 5.527344 21.0625 10.792969 21.140625 C 10.839844 21.140625 10.886719 21.140625 10.9375 21.140625 C 10.988281 21.140625 11.042969 21.140625 11.097656 21.140625 C 15.8125 21.0625 19.679688 17.628906 20.429688 13.117188 C 20.621094 12.375 20.707031 11.585938 20.683594 10.796875 Z M 20.683594 10.796875 "/>
</g>
</svg>
