
<svg xmlns="http://www.w3.org/2000/svg" xmlns:xlink="http://www.w3.org/1999/xlink" width="22" height="22" viewBox="0 0 22 22" version="1.1">
<defs>
<linearGradient id="linear0" gradientUnits="userSpaceOnUse" x1="31.999998" y1="59.999996" x2="31.999998" y2="3.999999" gradientTransform="matrix(0.34375,0,0,0.34375,0,0.00000000000003908)">
<stop offset="0" style="stop-color:rgb(0%,0%,0%);stop-opacity:0.2;"/>
<stop offset="1" style="stop-color:rgb(100%,100%,100%);stop-opacity:0;"/>
</linearGradient>
</defs>
<g id="surface1">
<path style=" stroke:none;fill-rule:nonzero;fill:rgb(38.039216%,38.039216%,38.039216%);fill-opacity:0.996078;" d="M 13.75 6.875 L 8.25 6.875 L 8.25 4.8125 L 13.75 4.8125 Z M 13.75 6.875 "/>
<path style=" stroke:none;fill-rule:nonzero;fill:rgb(0.392157%,0.392157%,0.392157%);fill-opacity:0.4;" d="M 8.25 6.53125 L 8.25 6.875 L 13.75 6.875 L 13.75 6.53125 Z M 8.25 6.53125 "/>
<path style=" stroke:none;fill-rule:nonzero;fill:rgb(38.039216%,38.039216%,38.039216%);fill-opacity:0.996078;" d="M 13.75 17.1875 L 8.25 17.1875 L 8.25 15.125 L 13.75 15.125 Z M 13.75 17.1875 "/>
<path style=" stroke:none;fill-rule:nonzero;fill:rgb(100%,100%,100%);fill-opacity:0.4;" d="M 8.25 15.125 L 8.25 15.46875 L 13.75 15.46875 L 13.75 15.125 Z M 8.25 15.125 "/>
<path style=" stroke:none;fill-rule:nonzero;fill:rgb(38.039216%,38.039216%,38.039216%);fill-opacity:0.996078;" d="M 6.875 7.5625 L 6.875 13.0625 L 4.8125 13.0625 L 4.8125 7.5625 Z M 6.875 7.5625 "/>
<path style=" stroke:none;fill-rule:nonzero;fill:rgb(38.039216%,38.039216%,38.039216%);fill-opacity:0.996078;" d="M 17.1875 7.5625 L 17.1875 13.0625 L 15.125 13.0625 L 15.125 7.5625 Z M 17.1875 7.5625 "/>
<path style=" stroke:none;fill-rule:nonzero;fill:rgb(100%,100%,100%);fill-opacity:0.4;" d="M 8.25 4.8125 L 8.25 5.15625 L 13.75 5.15625 L 13.75 4.8125 Z M 8.25 4.8125 "/>
<path style=" stroke:none;fill-rule:nonzero;fill:rgb(95.686275%,26.274511%,21.176471%);fill-opacity:0.996078;" d="M 16.15625 1.375 C 18.625 1.375 20.625 3.375 20.625 5.84375 C 20.625 8.3125 18.625 10.3125 16.15625 10.3125 C 13.6875 10.3125 11.6875 8.3125 11.6875 5.84375 C 11.6875 3.375 13.6875 1.375 16.15625 1.375 Z M 16.15625 1.375 "/>
<path style=" stroke:none;fill-rule:nonzero;fill:rgb(67.058825%,27.843139%,73.725492%);fill-opacity:0.996078;" d="M 2.75 2.75 L 8.9375 2.75 C 9.695312 2.75 10.3125 3.367188 10.3125 4.125 L 10.3125 7.5625 C 10.3125 8.320312 9.695312 8.9375 8.9375 8.9375 L 2.75 8.9375 C 1.992188 8.9375 1.375 8.320312 1.375 7.5625 L 1.375 4.125 C 1.375 3.367188 1.992188 2.75 2.75 2.75 Z M 2.75 2.75 "/>
<path style=" stroke:none;fill-rule:nonzero;fill:rgb(1.568628%,1.568628%,1.568628%);fill-opacity:0.4;" d="M 8.25 16.84375 L 8.25 17.1875 L 13.75 17.1875 L 13.75 16.84375 Z M 8.25 16.84375 "/>
<path style=" stroke:none;fill-rule:nonzero;fill:rgb(25.882354%,64.705884%,96.078432%);fill-opacity:0.996078;" d="M 8.9375 13.0625 L 8.9375 19.25 C 8.9375 20.007812 8.320312 20.625 7.5625 20.625 L 4.125 20.625 C 3.367188 20.625 2.75 20.007812 2.75 19.25 L 2.75 13.0625 C 2.75 12.304688 3.367188 11.6875 4.125 11.6875 L 7.5625 11.6875 C 8.320312 11.6875 8.9375 12.304688 8.9375 13.0625 Z M 8.9375 13.0625 "/>
<path style=" stroke:none;fill-rule:nonzero;fill:rgb(40.000001%,73.333335%,41.568628%);fill-opacity:0.996078;" d="M 13.0625 11.6875 L 19.25 11.6875 C 20.007812 11.6875 20.625 12.304688 20.625 13.0625 L 20.625 19.25 C 20.625 20.007812 20.007812 20.625 19.25 20.625 L 13.0625 20.625 C 12.304688 20.625 11.6875 20.007812 11.6875 19.25 L 11.6875 13.0625 C 11.6875 12.304688 12.304688 11.6875 13.0625 11.6875 Z M 13.0625 11.6875 "/>
<path style=" stroke:none;fill-rule:nonzero;fill:rgb(100%,100%,100%);fill-opacity:0.4;" d="M 16.15625 1.375 C 13.679688 1.375 11.6875 3.367188 11.6875 5.84375 C 11.6875 5.902344 11.6875 5.957031 11.691406 6.015625 C 11.78125 3.621094 13.738281 1.71875 16.15625 1.71875 C 18.574219 1.71875 20.53125 3.621094 20.621094 6.015625 C 20.625 5.957031 20.625 5.902344 20.625 5.84375 C 20.625 3.367188 18.632812 1.375 16.15625 1.375 Z M 16.15625 1.375 "/>
<path style=" stroke:none;fill-rule:nonzero;fill:rgb(100%,100%,100%);fill-opacity:0.4;" d="M 2.75 2.75 C 1.988281 2.75 1.375 3.363281 1.375 4.125 L 1.375 4.46875 C 1.375 3.707031 1.988281 3.09375 2.75 3.09375 L 8.9375 3.09375 C 9.699219 3.09375 10.3125 3.707031 10.3125 4.46875 L 10.3125 4.125 C 10.3125 3.363281 9.699219 2.75 8.9375 2.75 Z M 2.75 2.75 "/>
<path style=" stroke:none;fill-rule:nonzero;fill:rgb(100%,100%,100%);fill-opacity:0.4;" d="M 4.125 11.6875 C 3.363281 11.6875 2.75 12.300781 2.75 13.0625 L 2.75 13.40625 C 2.75 12.644531 3.363281 12.03125 4.125 12.03125 L 7.5625 12.03125 C 8.324219 12.03125 8.9375 12.644531 8.9375 13.40625 L 8.9375 13.0625 C 8.9375 12.300781 8.324219 11.6875 7.5625 11.6875 Z M 4.125 11.6875 "/>
<path style=" stroke:none;fill-rule:nonzero;fill:rgb(100%,100%,100%);fill-opacity:0.4;" d="M 13.0625 11.6875 C 12.300781 11.6875 11.6875 12.300781 11.6875 13.0625 L 11.6875 13.40625 C 11.6875 12.644531 12.300781 12.03125 13.0625 12.03125 L 19.25 12.03125 C 20.011719 12.03125 20.625 12.644531 20.625 13.40625 L 20.625 13.0625 C 20.625 12.300781 20.011719 11.6875 19.25 11.6875 Z M 13.0625 11.6875 "/>
<path style=" stroke:none;fill-rule:nonzero;fill:rgb(0.784314%,0.784314%,0.784314%);fill-opacity:0.4;" d="M 13.0625 20.625 C 12.300781 20.625 11.6875 20.011719 11.6875 19.25 L 11.6875 18.90625 C 11.6875 19.667969 12.300781 20.28125 13.0625 20.28125 L 19.25 20.28125 C 20.011719 20.28125 20.625 19.667969 20.625 18.90625 L 20.625 19.25 C 20.625 20.011719 20.011719 20.625 19.25 20.625 Z M 13.0625 20.625 "/>
<path style=" stroke:none;fill-rule:nonzero;fill:rgb(0.784314%,0.784314%,0.784314%);fill-opacity:0.4;" d="M 4.125 20.625 C 3.363281 20.625 2.75 20.011719 2.75 19.25 L 2.75 18.90625 C 2.75 19.667969 3.363281 20.28125 4.125 20.28125 L 7.5625 20.28125 C 8.324219 20.28125 8.9375 19.667969 8.9375 18.90625 L 8.9375 19.25 C 8.9375 20.011719 8.324219 20.625 7.5625 20.625 Z M 4.125 20.625 "/>
<path style=" stroke:none;fill-rule:nonzero;fill:rgb(8.235294%,8.235294%,8.235294%);fill-opacity:0.4;" d="M 16.15625 10.3125 C 13.679688 10.3125 11.6875 8.320312 11.6875 5.84375 C 11.6875 5.785156 11.6875 5.730469 11.691406 5.671875 C 11.78125 8.066406 13.738281 9.96875 16.15625 9.96875 C 18.574219 9.96875 20.53125 8.066406 20.621094 5.671875 C 20.625 5.730469 20.625 5.785156 20.625 5.84375 C 20.625 8.320312 18.632812 10.3125 16.15625 10.3125 Z M 16.15625 10.3125 "/>
<path style=" stroke:none;fill-rule:nonzero;fill:rgb(8.235294%,8.235294%,8.235294%);fill-opacity:0.4;" d="M 2.75 8.9375 C 1.988281 8.9375 1.375 8.324219 1.375 7.5625 L 1.375 7.21875 C 1.375 7.980469 1.988281 8.59375 2.75 8.59375 L 8.9375 8.59375 C 9.699219 8.59375 10.3125 7.980469 10.3125 7.21875 L 10.3125 7.5625 C 10.3125 8.324219 9.699219 8.9375 8.9375 8.9375 Z M 2.75 8.9375 "/>
<path style=" stroke:none;fill-rule:nonzero;fill:rgb(8.235294%,8.235294%,8.235294%);fill-opacity:0.2;" d="M 15.125 10.195312 L 15.125 10.539062 C 15.457031 10.613281 15.800781 10.65625 16.15625 10.65625 C 16.511719 10.65625 16.855469 10.613281 17.1875 10.539062 L 17.1875 10.195312 C 16.855469 10.269531 16.511719 10.3125 16.15625 10.3125 C 15.800781 10.3125 15.457031 10.269531 15.125 10.195312 Z M 15.125 10.195312 "/>
<path style=" stroke:none;fill-rule:nonzero;fill:rgb(8.235294%,8.235294%,8.235294%);fill-opacity:0.2;" d="M 4.8125 8.9375 L 6.875 8.9375 L 6.875 9.28125 L 4.8125 9.28125 Z M 4.8125 8.9375 "/>
<path style=" stroke:none;fill-rule:nonzero;fill:rgb(0%,0%,0%);fill-opacity:0.2;" d="M 2.75 19.25 L 2.75 19.765625 C 2.75 20.527344 3.363281 21.140625 4.125 21.140625 L 7.5625 21.140625 C 8.324219 21.140625 8.9375 20.527344 8.9375 19.765625 L 8.9375 19.25 C 8.9375 20.011719 8.324219 20.625 7.5625 20.625 L 4.125 20.625 C 3.363281 20.625 2.75 20.011719 2.75 19.25 Z M 2.75 19.25 "/>
<path style=" stroke:none;fill-rule:nonzero;fill:rgb(0%,0%,0%);fill-opacity:0.2;" d="M 11.6875 19.25 L 11.6875 19.765625 C 11.6875 20.527344 12.300781 21.140625 13.0625 21.140625 L 19.25 21.140625 C 20.011719 21.140625 20.625 20.527344 20.625 19.765625 L 20.625 19.25 C 20.625 20.011719 20.011719 20.625 19.25 20.625 L 13.0625 20.625 C 12.300781 20.625 11.6875 20.011719 11.6875 19.25 Z M 11.6875 19.25 "/>
<path style=" stroke:none;fill-rule:nonzero;fill:url(#linear0);" d="M 16.15625 1.375 C 14.035156 1.375 12.269531 2.835938 11.804688 4.8125 L 10.3125 4.8125 L 10.3125 4.125 C 10.3125 3.363281 9.699219 2.75 8.9375 2.75 L 2.75 2.75 C 1.988281 2.75 1.375 3.363281 1.375 4.125 L 1.375 7.5625 C 1.375 8.324219 1.988281 8.9375 2.75 8.9375 L 4.8125 8.9375 L 4.8125 11.6875 L 4.125 11.6875 C 3.363281 11.6875 2.75 12.300781 2.75 13.0625 L 2.75 19.25 C 2.75 20.011719 3.363281 20.625 4.125 20.625 L 7.5625 20.625 C 8.324219 20.625 8.9375 20.011719 8.9375 19.25 L 8.9375 17.1875 L 11.6875 17.1875 L 11.6875 19.25 C 11.6875 20.011719 12.300781 20.625 13.0625 20.625 L 19.25 20.625 C 20.011719 20.625 20.625 20.011719 20.625 19.25 L 20.625 13.0625 C 20.625 12.300781 20.011719 11.6875 19.25 11.6875 L 17.1875 11.6875 L 17.1875 10.195312 C 19.164062 9.730469 20.625 7.964844 20.625 5.84375 C 20.625 3.367188 18.632812 1.375 16.15625 1.375 Z M 10.3125 6.875 L 11.804688 6.875 C 12.191406 8.519531 13.480469 9.808594 15.125 10.195312 L 15.125 11.6875 L 13.0625 11.6875 C 12.300781 11.6875 11.6875 12.300781 11.6875 13.0625 L 11.6875 15.125 L 8.9375 15.125 L 8.9375 13.0625 C 8.9375 12.300781 8.324219 11.6875 7.5625 11.6875 L 6.875 11.6875 L 6.875 8.9375 L 8.9375 8.9375 C 9.699219 8.9375 10.3125 8.324219 10.3125 7.5625 Z M 10.3125 6.875 "/>
</g>
</svg>
