
<svg xmlns="http://www.w3.org/2000/svg" xmlns:xlink="http://www.w3.org/1999/xlink" width="22" height="22" viewBox="0 0 22 22" version="1.1">
<defs>
<linearGradient id="linear0" gradientUnits="userSpaceOnUse" x1="5.291667" y1="-200.183334" x2="5.291667" y2="-212.883331" gradientTransform="matrix(1.299213,0,0,1.299213,9.625001,288.268223)">
<stop offset="0" style="stop-color:rgb(0%,0%,0%);stop-opacity:0.2;"/>
<stop offset="1" style="stop-color:rgb(100%,100%,100%);stop-opacity:0;"/>
</linearGradient>
<linearGradient id="linear1" gradientUnits="userSpaceOnUse" x1="5.291667" y1="-200.183334" x2="5.291667" y2="-212.883331" gradientTransform="matrix(1.299213,0,0,1.299213,9.625001,288.268223)">
<stop offset="0" style="stop-color:rgb(0%,0%,0%);stop-opacity:0.2;"/>
<stop offset="1" style="stop-color:rgb(100%,100%,100%);stop-opacity:0;"/>
</linearGradient>
<linearGradient id="linear2" gradientUnits="userSpaceOnUse" x1="5.291667" y1="-200.183334" x2="5.291667" y2="-212.883331" gradientTransform="matrix(1.299213,0,0,1.299213,4.8125,283.455723)">
<stop offset="0" style="stop-color:rgb(0%,0%,0%);stop-opacity:0.2;"/>
<stop offset="1" style="stop-color:rgb(100%,100%,100%);stop-opacity:0;"/>
</linearGradient>
<linearGradient id="linear3" gradientUnits="userSpaceOnUse" x1="5.291667" y1="-200.183334" x2="5.291667" y2="-212.883331" gradientTransform="matrix(1.299213,0,0,1.299213,0,279.330723)">
<stop offset="0" style="stop-color:rgb(0%,0%,0%);stop-opacity:0.2;"/>
<stop offset="1" style="stop-color:rgb(100%,100%,100%);stop-opacity:0;"/>
</linearGradient>
</defs>
<g id="surface1">
<path style=" stroke:none;fill-rule:nonzero;fill:rgb(87.843138%,87.843138%,87.843138%);fill-opacity:1;" d="M 11.6875 11.6875 L 19.9375 11.6875 C 20.316406 11.6875 20.625 11.996094 20.625 12.375 L 20.625 18.5625 C 20.625 18.941406 20.316406 19.25 19.9375 19.25 L 11.6875 19.25 C 11.308594 19.25 11 18.941406 11 18.5625 L 11 12.375 C 11 11.996094 11.308594 11.6875 11.6875 11.6875 Z M 11.6875 11.6875 "/>
<path style=" stroke:none;fill-rule:nonzero;fill:rgb(38.039216%,38.039216%,38.039216%);fill-opacity:1;" d="M 11.6875 11.6875 C 11.304688 11.6875 11 11.992188 11 12.375 L 11 13.0625 L 20.625 13.0625 L 20.625 12.375 C 20.625 11.992188 20.320312 11.6875 19.9375 11.6875 Z M 11.6875 11.6875 "/>
<path style=" stroke:none;fill-rule:nonzero;fill:rgb(0%,0%,0%);fill-opacity:0.4;" d="M 11 13.0625 L 20.625 13.0625 L 20.625 13.40625 L 11 13.40625 Z M 11 13.0625 "/>
<path style=" stroke:none;fill-rule:nonzero;fill:rgb(100%,100%,100%);fill-opacity:0.4;" d="M 11.6875 11.6875 C 11.304688 11.6875 11 11.992188 11 12.375 L 11 12.546875 C 11 12.164062 11.304688 11.859375 11.6875 11.859375 L 19.9375 11.859375 C 20.320312 11.859375 20.625 12.164062 20.625 12.546875 L 20.625 12.375 C 20.625 11.992188 20.320312 11.6875 19.9375 11.6875 Z M 11.6875 11.6875 "/>
<path style=" stroke:none;fill-rule:nonzero;fill:rgb(0%,0%,0%);fill-opacity:0.4;" d="M 11 18.21875 L 11 18.5625 C 11 18.945312 11.304688 19.25 11.6875 19.25 L 19.9375 19.25 C 20.320312 19.25 20.625 18.945312 20.625 18.5625 L 20.625 18.21875 C 20.625 18.601562 20.320312 18.90625 19.9375 18.90625 L 11.6875 18.90625 C 11.304688 18.90625 11 18.601562 11 18.21875 Z M 11 18.21875 "/>
<path style=" stroke:none;fill-rule:nonzero;fill:rgb(0%,0%,0%);fill-opacity:0.2;" d="M 11 18.5625 L 11 19.078125 C 11 19.460938 11.304688 19.765625 11.6875 19.765625 L 19.9375 19.765625 C 20.320312 19.765625 20.625 19.460938 20.625 19.078125 L 20.625 18.5625 C 20.625 18.945312 20.320312 19.25 19.9375 19.25 L 11.6875 19.25 C 11.304688 19.25 11 18.945312 11 18.5625 Z M 11 18.5625 "/>
<path style=" stroke:none;fill-rule:nonzero;fill:rgb(95.686275%,26.274511%,21.176471%);fill-opacity:1;" d="M 19.679688 12.03125 C 19.917969 12.03125 20.109375 12.222656 20.109375 12.460938 C 20.109375 12.699219 19.917969 12.890625 19.679688 12.890625 C 19.441406 12.890625 19.25 12.699219 19.25 12.460938 C 19.25 12.222656 19.441406 12.03125 19.679688 12.03125 Z M 19.679688 12.03125 "/>
<path style=" stroke:none;fill-rule:nonzero;fill:rgb(100%,65.490198%,14.901961%);fill-opacity:1;" d="M 18.648438 12.03125 C 18.886719 12.03125 19.078125 12.222656 19.078125 12.460938 C 19.078125 12.699219 18.886719 12.890625 18.648438 12.890625 C 18.410156 12.890625 18.21875 12.699219 18.21875 12.460938 C 18.21875 12.222656 18.410156 12.03125 18.648438 12.03125 Z M 18.648438 12.03125 "/>
<path style=" stroke:none;fill-rule:nonzero;fill:rgb(40.000001%,73.333335%,41.568628%);fill-opacity:1;" d="M 17.617188 12.03125 C 17.855469 12.03125 18.046875 12.222656 18.046875 12.460938 C 18.046875 12.699219 17.855469 12.890625 17.617188 12.890625 C 17.378906 12.890625 17.1875 12.699219 17.1875 12.460938 C 17.1875 12.222656 17.378906 12.03125 17.617188 12.03125 Z M 17.617188 12.03125 "/>
<path style=" stroke:none;fill-rule:nonzero;fill:rgb(0%,0%,0%);fill-opacity:0.4;" d="M 17.605469 12.03125 C 17.371094 12.039062 17.1875 12.226562 17.1875 12.460938 C 17.1875 12.492188 17.191406 12.519531 17.195312 12.546875 C 17.234375 12.355469 17.402344 12.207031 17.605469 12.203125 C 17.609375 12.203125 17.613281 12.203125 17.617188 12.203125 C 17.824219 12.203125 18 12.351562 18.039062 12.546875 C 18.042969 12.519531 18.046875 12.488281 18.046875 12.460938 C 18.046875 12.222656 17.855469 12.03125 17.617188 12.03125 C 17.613281 12.03125 17.609375 12.03125 17.605469 12.03125 Z M 18.636719 12.03125 C 18.402344 12.039062 18.21875 12.226562 18.21875 12.460938 C 18.21875 12.492188 18.222656 12.519531 18.226562 12.546875 C 18.265625 12.355469 18.433594 12.207031 18.636719 12.203125 C 18.640625 12.203125 18.644531 12.203125 18.648438 12.203125 C 18.855469 12.203125 19.03125 12.351562 19.070312 12.546875 C 19.074219 12.519531 19.078125 12.488281 19.078125 12.460938 C 19.078125 12.222656 18.886719 12.03125 18.648438 12.03125 C 18.644531 12.03125 18.640625 12.03125 18.636719 12.03125 Z M 19.667969 12.03125 C 19.433594 12.039062 19.25 12.226562 19.25 12.460938 C 19.25 12.492188 19.253906 12.519531 19.257812 12.546875 C 19.296875 12.355469 19.464844 12.207031 19.667969 12.203125 C 19.671875 12.203125 19.675781 12.203125 19.679688 12.203125 C 19.886719 12.203125 20.0625 12.351562 20.101562 12.546875 C 20.105469 12.519531 20.109375 12.488281 20.109375 12.460938 C 20.109375 12.222656 19.917969 12.03125 19.679688 12.03125 C 19.675781 12.03125 19.671875 12.03125 19.667969 12.03125 Z M 19.667969 12.03125 "/>
<path style=" stroke:none;fill-rule:nonzero;fill:rgb(99.215686%,99.215686%,99.215686%);fill-opacity:0.4;" d="M 17.605469 13.0625 C 17.371094 13.054688 17.1875 12.867188 17.1875 12.632812 C 17.1875 12.601562 17.191406 12.574219 17.195312 12.546875 C 17.234375 12.738281 17.402344 12.886719 17.605469 12.890625 C 17.609375 12.890625 17.613281 12.890625 17.617188 12.890625 C 17.824219 12.890625 18 12.742188 18.039062 12.546875 C 18.042969 12.574219 18.046875 12.605469 18.046875 12.632812 C 18.046875 12.871094 17.855469 13.0625 17.617188 13.0625 C 17.613281 13.0625 17.609375 13.0625 17.605469 13.0625 Z M 18.636719 13.0625 C 18.402344 13.054688 18.21875 12.867188 18.21875 12.632812 C 18.21875 12.601562 18.222656 12.574219 18.226562 12.546875 C 18.265625 12.738281 18.433594 12.886719 18.636719 12.890625 C 18.640625 12.890625 18.644531 12.890625 18.648438 12.890625 C 18.855469 12.890625 19.03125 12.742188 19.070312 12.546875 C 19.074219 12.574219 19.078125 12.605469 19.078125 12.632812 C 19.078125 12.871094 18.886719 13.0625 18.648438 13.0625 C 18.644531 13.0625 18.640625 13.0625 18.636719 13.0625 Z M 19.667969 13.0625 C 19.433594 13.054688 19.25 12.867188 19.25 12.632812 C 19.25 12.601562 19.253906 12.574219 19.257812 12.546875 C 19.296875 12.738281 19.464844 12.886719 19.667969 12.890625 C 19.671875 12.890625 19.675781 12.890625 19.679688 12.890625 C 19.886719 12.890625 20.0625 12.742188 20.101562 12.546875 C 20.105469 12.574219 20.109375 12.605469 20.109375 12.632812 C 20.109375 12.871094 19.917969 13.0625 19.679688 13.0625 C 19.675781 13.0625 19.671875 13.0625 19.667969 13.0625 Z M 19.667969 13.0625 "/>
<path style=" stroke:none;fill-rule:nonzero;fill:url(#linear0);" d="M 11.6875 11.6875 L 19.9375 11.6875 C 20.316406 11.6875 20.625 11.996094 20.625 12.375 L 20.625 18.5625 C 20.625 18.941406 20.316406 19.25 19.9375 19.25 L 11.6875 19.25 C 11.308594 19.25 11 18.941406 11 18.5625 L 11 12.375 C 11 11.996094 11.308594 11.6875 11.6875 11.6875 Z M 11.6875 11.6875 "/>
<path style=" stroke:none;fill-rule:nonzero;fill:rgb(87.843138%,87.843138%,87.843138%);fill-opacity:1;" d="M 11.6875 11.6875 L 19.9375 11.6875 C 20.316406 11.6875 20.625 11.996094 20.625 12.375 L 20.625 18.5625 C 20.625 18.941406 20.316406 19.25 19.9375 19.25 L 11.6875 19.25 C 11.308594 19.25 11 18.941406 11 18.5625 L 11 12.375 C 11 11.996094 11.308594 11.6875 11.6875 11.6875 Z M 11.6875 11.6875 "/>
<path style=" stroke:none;fill-rule:nonzero;fill:rgb(38.039216%,38.039216%,38.039216%);fill-opacity:1;" d="M 11.6875 11.6875 C 11.304688 11.6875 11 11.992188 11 12.375 L 11 13.0625 L 20.625 13.0625 L 20.625 12.375 C 20.625 11.992188 20.320312 11.6875 19.9375 11.6875 Z M 11.6875 11.6875 "/>
<path style=" stroke:none;fill-rule:nonzero;fill:rgb(0%,0%,0%);fill-opacity:0.4;" d="M 11 13.0625 L 20.625 13.0625 L 20.625 13.40625 L 11 13.40625 Z M 11 13.0625 "/>
<path style=" stroke:none;fill-rule:nonzero;fill:rgb(100%,100%,100%);fill-opacity:0.4;" d="M 11.6875 11.6875 C 11.304688 11.6875 11 11.992188 11 12.375 L 11 12.546875 C 11 12.164062 11.304688 11.859375 11.6875 11.859375 L 19.9375 11.859375 C 20.320312 11.859375 20.625 12.164062 20.625 12.546875 L 20.625 12.375 C 20.625 11.992188 20.320312 11.6875 19.9375 11.6875 Z M 11.6875 11.6875 "/>
<path style=" stroke:none;fill-rule:nonzero;fill:rgb(0%,0%,0%);fill-opacity:0.4;" d="M 11 18.21875 L 11 18.5625 C 11 18.945312 11.304688 19.25 11.6875 19.25 L 19.9375 19.25 C 20.320312 19.25 20.625 18.945312 20.625 18.5625 L 20.625 18.21875 C 20.625 18.601562 20.320312 18.90625 19.9375 18.90625 L 11.6875 18.90625 C 11.304688 18.90625 11 18.601562 11 18.21875 Z M 11 18.21875 "/>
<path style=" stroke:none;fill-rule:nonzero;fill:rgb(95.686275%,26.274511%,21.176471%);fill-opacity:1;" d="M 19.679688 12.03125 C 19.917969 12.03125 20.109375 12.222656 20.109375 12.460938 C 20.109375 12.699219 19.917969 12.890625 19.679688 12.890625 C 19.441406 12.890625 19.25 12.699219 19.25 12.460938 C 19.25 12.222656 19.441406 12.03125 19.679688 12.03125 Z M 19.679688 12.03125 "/>
<path style=" stroke:none;fill-rule:nonzero;fill:rgb(100%,65.490198%,14.901961%);fill-opacity:1;" d="M 18.648438 12.03125 C 18.886719 12.03125 19.078125 12.222656 19.078125 12.460938 C 19.078125 12.699219 18.886719 12.890625 18.648438 12.890625 C 18.410156 12.890625 18.21875 12.699219 18.21875 12.460938 C 18.21875 12.222656 18.410156 12.03125 18.648438 12.03125 Z M 18.648438 12.03125 "/>
<path style=" stroke:none;fill-rule:nonzero;fill:rgb(40.000001%,73.333335%,41.568628%);fill-opacity:1;" d="M 17.617188 12.03125 C 17.855469 12.03125 18.046875 12.222656 18.046875 12.460938 C 18.046875 12.699219 17.855469 12.890625 17.617188 12.890625 C 17.378906 12.890625 17.1875 12.699219 17.1875 12.460938 C 17.1875 12.222656 17.378906 12.03125 17.617188 12.03125 Z M 17.617188 12.03125 "/>
<path style=" stroke:none;fill-rule:nonzero;fill:rgb(0%,0%,0%);fill-opacity:0.4;" d="M 17.605469 12.03125 C 17.371094 12.039062 17.1875 12.226562 17.1875 12.460938 C 17.1875 12.492188 17.191406 12.519531 17.195312 12.546875 C 17.234375 12.355469 17.402344 12.207031 17.605469 12.203125 C 17.609375 12.203125 17.613281 12.203125 17.617188 12.203125 C 17.824219 12.203125 18 12.351562 18.039062 12.546875 C 18.042969 12.519531 18.046875 12.488281 18.046875 12.460938 C 18.046875 12.222656 17.855469 12.03125 17.617188 12.03125 C 17.613281 12.03125 17.609375 12.03125 17.605469 12.03125 Z M 18.636719 12.03125 C 18.402344 12.039062 18.21875 12.226562 18.21875 12.460938 C 18.21875 12.492188 18.222656 12.519531 18.226562 12.546875 C 18.265625 12.355469 18.433594 12.207031 18.636719 12.203125 C 18.640625 12.203125 18.644531 12.203125 18.648438 12.203125 C 18.855469 12.203125 19.03125 12.351562 19.070312 12.546875 C 19.074219 12.519531 19.078125 12.488281 19.078125 12.460938 C 19.078125 12.222656 18.886719 12.03125 18.648438 12.03125 C 18.644531 12.03125 18.640625 12.03125 18.636719 12.03125 Z M 19.667969 12.03125 C 19.433594 12.039062 19.25 12.226562 19.25 12.460938 C 19.25 12.492188 19.253906 12.519531 19.257812 12.546875 C 19.296875 12.355469 19.464844 12.207031 19.667969 12.203125 C 19.671875 12.203125 19.675781 12.203125 19.679688 12.203125 C 19.886719 12.203125 20.0625 12.351562 20.101562 12.546875 C 20.105469 12.519531 20.109375 12.488281 20.109375 12.460938 C 20.109375 12.222656 19.917969 12.03125 19.679688 12.03125 C 19.675781 12.03125 19.671875 12.03125 19.667969 12.03125 Z M 19.667969 12.03125 "/>
<path style=" stroke:none;fill-rule:nonzero;fill:rgb(99.215686%,99.215686%,99.215686%);fill-opacity:0.4;" d="M 17.605469 13.0625 C 17.371094 13.054688 17.1875 12.867188 17.1875 12.632812 C 17.1875 12.601562 17.191406 12.574219 17.195312 12.546875 C 17.234375 12.738281 17.402344 12.886719 17.605469 12.890625 C 17.609375 12.890625 17.613281 12.890625 17.617188 12.890625 C 17.824219 12.890625 18 12.742188 18.039062 12.546875 C 18.042969 12.574219 18.046875 12.605469 18.046875 12.632812 C 18.046875 12.871094 17.855469 13.0625 17.617188 13.0625 C 17.613281 13.0625 17.609375 13.0625 17.605469 13.0625 Z M 18.636719 13.0625 C 18.402344 13.054688 18.21875 12.867188 18.21875 12.632812 C 18.21875 12.601562 18.222656 12.574219 18.226562 12.546875 C 18.265625 12.738281 18.433594 12.886719 18.636719 12.890625 C 18.640625 12.890625 18.644531 12.890625 18.648438 12.890625 C 18.855469 12.890625 19.03125 12.742188 19.070312 12.546875 C 19.074219 12.574219 19.078125 12.605469 19.078125 12.632812 C 19.078125 12.871094 18.886719 13.0625 18.648438 13.0625 C 18.644531 13.0625 18.640625 13.0625 18.636719 13.0625 Z M 19.667969 13.0625 C 19.433594 13.054688 19.25 12.867188 19.25 12.632812 C 19.25 12.601562 19.253906 12.574219 19.257812 12.546875 C 19.296875 12.738281 19.464844 12.886719 19.667969 12.890625 C 19.671875 12.890625 19.675781 12.890625 19.679688 12.890625 C 19.886719 12.890625 20.0625 12.742188 20.101562 12.546875 C 20.105469 12.574219 20.109375 12.605469 20.109375 12.632812 C 20.109375 12.871094 19.917969 13.0625 19.679688 13.0625 C 19.675781 13.0625 19.671875 13.0625 19.667969 13.0625 Z M 19.667969 13.0625 "/>
<path style=" stroke:none;fill-rule:nonzero;fill:url(#linear1);" d="M 11.6875 11.6875 L 19.9375 11.6875 C 20.316406 11.6875 20.625 11.996094 20.625 12.375 L 20.625 18.5625 C 20.625 18.941406 20.316406 19.25 19.9375 19.25 L 11.6875 19.25 C 11.308594 19.25 11 18.941406 11 18.5625 L 11 12.375 C 11 11.996094 11.308594 11.6875 11.6875 11.6875 Z M 11.6875 11.6875 "/>
<path style=" stroke:none;fill-rule:nonzero;fill:rgb(87.843138%,87.843138%,87.843138%);fill-opacity:1;" d="M 6.875 6.875 L 15.125 6.875 C 15.503906 6.875 15.8125 7.183594 15.8125 7.5625 L 15.8125 13.75 C 15.8125 14.128906 15.503906 14.4375 15.125 14.4375 L 6.875 14.4375 C 6.496094 14.4375 6.1875 14.128906 6.1875 13.75 L 6.1875 7.5625 C 6.1875 7.183594 6.496094 6.875 6.875 6.875 Z M 6.875 6.875 "/>
<path style=" stroke:none;fill-rule:nonzero;fill:rgb(38.039216%,38.039216%,38.039216%);fill-opacity:1;" d="M 6.875 6.875 C 6.492188 6.875 6.1875 7.179688 6.1875 7.5625 L 6.1875 8.25 L 15.8125 8.25 L 15.8125 7.5625 C 15.8125 7.179688 15.507812 6.875 15.125 6.875 Z M 6.875 6.875 "/>
<path style=" stroke:none;fill-rule:nonzero;fill:rgb(0%,0%,0%);fill-opacity:0.4;" d="M 6.1875 8.25 L 15.8125 8.25 L 15.8125 8.59375 L 6.1875 8.59375 Z M 6.1875 8.25 "/>
<path style=" stroke:none;fill-rule:nonzero;fill:rgb(100%,100%,100%);fill-opacity:0.4;" d="M 6.875 6.875 C 6.492188 6.875 6.1875 7.179688 6.1875 7.5625 L 6.1875 7.734375 C 6.1875 7.351562 6.492188 7.046875 6.875 7.046875 L 15.125 7.046875 C 15.507812 7.046875 15.8125 7.351562 15.8125 7.734375 L 15.8125 7.5625 C 15.8125 7.179688 15.507812 6.875 15.125 6.875 Z M 6.875 6.875 "/>
<path style=" stroke:none;fill-rule:nonzero;fill:rgb(0%,0%,0%);fill-opacity:0.4;" d="M 6.1875 13.40625 L 6.1875 13.75 C 6.1875 14.132812 6.492188 14.4375 6.875 14.4375 L 15.125 14.4375 C 15.507812 14.4375 15.8125 14.132812 15.8125 13.75 L 15.8125 13.40625 C 15.8125 13.789062 15.507812 14.09375 15.125 14.09375 L 6.875 14.09375 C 6.492188 14.09375 6.1875 13.789062 6.1875 13.40625 Z M 6.1875 13.40625 "/>
<path style=" stroke:none;fill-rule:nonzero;fill:rgb(0%,0%,0%);fill-opacity:0.2;" d="M 15.8125 13.75 C 15.8125 14.132812 15.507812 14.4375 15.125 14.4375 L 11 14.4375 L 11 14.953125 L 15.125 14.953125 C 15.507812 14.953125 15.8125 14.648438 15.8125 14.265625 Z M 15.8125 13.75 "/>
<path style=" stroke:none;fill-rule:nonzero;fill:rgb(95.686275%,26.274511%,21.176471%);fill-opacity:1;" d="M 14.867188 7.21875 C 15.105469 7.21875 15.296875 7.410156 15.296875 7.648438 C 15.296875 7.886719 15.105469 8.078125 14.867188 8.078125 C 14.628906 8.078125 14.4375 7.886719 14.4375 7.648438 C 14.4375 7.410156 14.628906 7.21875 14.867188 7.21875 Z M 14.867188 7.21875 "/>
<path style=" stroke:none;fill-rule:nonzero;fill:rgb(100%,65.490198%,14.901961%);fill-opacity:1;" d="M 13.835938 7.21875 C 14.074219 7.21875 14.265625 7.410156 14.265625 7.648438 C 14.265625 7.886719 14.074219 8.078125 13.835938 8.078125 C 13.597656 8.078125 13.40625 7.886719 13.40625 7.648438 C 13.40625 7.410156 13.597656 7.21875 13.835938 7.21875 Z M 13.835938 7.21875 "/>
<path style=" stroke:none;fill-rule:nonzero;fill:rgb(40.000001%,73.333335%,41.568628%);fill-opacity:1;" d="M 12.804688 7.21875 C 13.042969 7.21875 13.234375 7.410156 13.234375 7.648438 C 13.234375 7.886719 13.042969 8.078125 12.804688 8.078125 C 12.566406 8.078125 12.375 7.886719 12.375 7.648438 C 12.375 7.410156 12.566406 7.21875 12.804688 7.21875 Z M 12.804688 7.21875 "/>
<path style=" stroke:none;fill-rule:nonzero;fill:rgb(0%,0%,0%);fill-opacity:0.4;" d="M 12.792969 7.21875 C 12.558594 7.226562 12.375 7.414062 12.375 7.648438 C 12.375 7.679688 12.378906 7.707031 12.382812 7.734375 C 12.421875 7.542969 12.589844 7.394531 12.792969 7.390625 C 12.796875 7.390625 12.800781 7.390625 12.804688 7.390625 C 13.011719 7.390625 13.1875 7.539062 13.226562 7.734375 C 13.230469 7.707031 13.234375 7.679688 13.234375 7.648438 C 13.234375 7.410156 13.042969 7.21875 12.804688 7.21875 C 12.800781 7.21875 12.796875 7.21875 12.792969 7.21875 Z M 13.824219 7.21875 C 13.589844 7.226562 13.40625 7.414062 13.40625 7.648438 C 13.40625 7.679688 13.410156 7.707031 13.414062 7.734375 C 13.453125 7.542969 13.621094 7.394531 13.824219 7.390625 C 13.828125 7.390625 13.832031 7.390625 13.835938 7.390625 C 14.042969 7.390625 14.21875 7.539062 14.257812 7.734375 C 14.261719 7.707031 14.265625 7.679688 14.265625 7.648438 C 14.265625 7.410156 14.074219 7.21875 13.835938 7.21875 C 13.832031 7.21875 13.828125 7.21875 13.824219 7.21875 Z M 14.855469 7.21875 C 14.621094 7.226562 14.4375 7.414062 14.4375 7.648438 C 14.4375 7.679688 14.441406 7.707031 14.445312 7.734375 C 14.484375 7.542969 14.652344 7.394531 14.855469 7.390625 C 14.859375 7.390625 14.863281 7.390625 14.867188 7.390625 C 15.074219 7.390625 15.25 7.539062 15.289062 7.734375 C 15.292969 7.707031 15.296875 7.679688 15.296875 7.648438 C 15.296875 7.410156 15.105469 7.21875 14.867188 7.21875 C 14.863281 7.21875 14.859375 7.21875 14.855469 7.21875 Z M 14.855469 7.21875 "/>
<path style=" stroke:none;fill-rule:nonzero;fill:rgb(99.215686%,99.215686%,99.215686%);fill-opacity:0.4;" d="M 12.792969 8.25 C 12.558594 8.242188 12.375 8.054688 12.375 7.820312 C 12.375 7.789062 12.378906 7.761719 12.382812 7.734375 C 12.421875 7.925781 12.589844 8.074219 12.792969 8.078125 C 12.796875 8.078125 12.800781 8.078125 12.804688 8.078125 C 13.011719 8.078125 13.1875 7.929688 13.226562 7.734375 C 13.230469 7.761719 13.234375 7.792969 13.234375 7.820312 C 13.234375 8.058594 13.042969 8.25 12.804688 8.25 C 12.800781 8.25 12.796875 8.25 12.792969 8.25 Z M 13.824219 8.25 C 13.589844 8.242188 13.40625 8.054688 13.40625 7.820312 C 13.40625 7.789062 13.410156 7.761719 13.414062 7.734375 C 13.453125 7.925781 13.621094 8.074219 13.824219 8.078125 C 13.828125 8.078125 13.832031 8.078125 13.835938 8.078125 C 14.042969 8.078125 14.21875 7.929688 14.257812 7.734375 C 14.261719 7.761719 14.265625 7.792969 14.265625 7.820312 C 14.265625 8.058594 14.074219 8.25 13.835938 8.25 C 13.832031 8.25 13.828125 8.25 13.824219 8.25 Z M 14.855469 8.25 C 14.621094 8.242188 14.4375 8.054688 14.4375 7.820312 C 14.4375 7.789062 14.441406 7.761719 14.445312 7.734375 C 14.484375 7.925781 14.652344 8.074219 14.855469 8.078125 C 14.859375 8.078125 14.863281 8.078125 14.867188 8.078125 C 15.074219 8.078125 15.25 7.929688 15.289062 7.734375 C 15.292969 7.761719 15.296875 7.792969 15.296875 7.820312 C 15.296875 8.058594 15.105469 8.25 14.867188 8.25 C 14.863281 8.25 14.859375 8.25 14.855469 8.25 Z M 14.855469 8.25 "/>
<path style=" stroke:none;fill-rule:nonzero;fill:url(#linear2);" d="M 6.875 6.875 L 15.125 6.875 C 15.503906 6.875 15.8125 7.183594 15.8125 7.5625 L 15.8125 13.75 C 15.8125 14.128906 15.503906 14.4375 15.125 14.4375 L 6.875 14.4375 C 6.496094 14.4375 6.1875 14.128906 6.1875 13.75 L 6.1875 7.5625 C 6.1875 7.183594 6.496094 6.875 6.875 6.875 Z M 6.875 6.875 "/>
<path style=" stroke:none;fill-rule:nonzero;fill:rgb(87.843138%,87.843138%,87.843138%);fill-opacity:1;" d="M 2.0625 2.75 L 10.3125 2.75 C 10.691406 2.75 11 3.058594 11 3.4375 L 11 9.625 C 11 10.003906 10.691406 10.3125 10.3125 10.3125 L 2.0625 10.3125 C 1.683594 10.3125 1.375 10.003906 1.375 9.625 L 1.375 3.4375 C 1.375 3.058594 1.683594 2.75 2.0625 2.75 Z M 2.0625 2.75 "/>
<path style=" stroke:none;fill-rule:nonzero;fill:rgb(38.039216%,38.039216%,38.039216%);fill-opacity:1;" d="M 2.0625 2.75 C 1.679688 2.75 1.375 3.054688 1.375 3.4375 L 1.375 4.125 L 11 4.125 L 11 3.4375 C 11 3.054688 10.695312 2.75 10.3125 2.75 Z M 2.0625 2.75 "/>
<path style=" stroke:none;fill-rule:nonzero;fill:rgb(0%,0%,0%);fill-opacity:0.4;" d="M 1.375 4.125 L 11 4.125 L 11 4.46875 L 1.375 4.46875 Z M 1.375 4.125 "/>
<path style=" stroke:none;fill-rule:nonzero;fill:rgb(100%,100%,100%);fill-opacity:0.4;" d="M 2.0625 2.75 C 1.679688 2.75 1.375 3.054688 1.375 3.4375 L 1.375 3.609375 C 1.375 3.226562 1.679688 2.921875 2.0625 2.921875 L 10.3125 2.921875 C 10.695312 2.921875 11 3.226562 11 3.609375 L 11 3.4375 C 11 3.054688 10.695312 2.75 10.3125 2.75 Z M 2.0625 2.75 "/>
<path style=" stroke:none;fill-rule:nonzero;fill:rgb(0%,0%,0%);fill-opacity:0.4;" d="M 1.375 9.28125 L 1.375 9.625 C 1.375 10.007812 1.679688 10.3125 2.0625 10.3125 L 10.3125 10.3125 C 10.695312 10.3125 11 10.007812 11 9.625 L 11 9.28125 C 11 9.664062 10.695312 9.96875 10.3125 9.96875 L 2.0625 9.96875 C 1.679688 9.96875 1.375 9.664062 1.375 9.28125 Z M 1.375 9.28125 "/>
<path style=" stroke:none;fill-rule:nonzero;fill:rgb(0%,0%,0%);fill-opacity:0.2;" d="M 11 9.625 C 11 10.007812 10.695312 10.3125 10.3125 10.3125 L 6.1875 10.3125 L 6.1875 10.828125 L 10.3125 10.828125 C 10.695312 10.828125 11 10.523438 11 10.140625 Z M 11 9.625 "/>
<path style=" stroke:none;fill-rule:nonzero;fill:rgb(95.686275%,26.274511%,21.176471%);fill-opacity:1;" d="M 10.054688 3.09375 C 10.292969 3.09375 10.484375 3.285156 10.484375 3.523438 C 10.484375 3.761719 10.292969 3.953125 10.054688 3.953125 C 9.816406 3.953125 9.625 3.761719 9.625 3.523438 C 9.625 3.285156 9.816406 3.09375 10.054688 3.09375 Z M 10.054688 3.09375 "/>
<path style=" stroke:none;fill-rule:nonzero;fill:rgb(100%,65.490198%,14.901961%);fill-opacity:1;" d="M 9.023438 3.09375 C 9.261719 3.09375 9.453125 3.285156 9.453125 3.523438 C 9.453125 3.761719 9.261719 3.953125 9.023438 3.953125 C 8.785156 3.953125 8.59375 3.761719 8.59375 3.523438 C 8.59375 3.285156 8.785156 3.09375 9.023438 3.09375 Z M 9.023438 3.09375 "/>
<path style=" stroke:none;fill-rule:nonzero;fill:rgb(40.000001%,73.333335%,41.568628%);fill-opacity:1;" d="M 7.992188 3.09375 C 8.230469 3.09375 8.421875 3.285156 8.421875 3.523438 C 8.421875 3.761719 8.230469 3.953125 7.992188 3.953125 C 7.753906 3.953125 7.5625 3.761719 7.5625 3.523438 C 7.5625 3.285156 7.753906 3.09375 7.992188 3.09375 Z M 7.992188 3.09375 "/>
<path style=" stroke:none;fill-rule:nonzero;fill:rgb(0%,0%,0%);fill-opacity:0.4;" d="M 7.980469 3.09375 C 7.746094 3.101562 7.5625 3.289062 7.5625 3.523438 C 7.5625 3.554688 7.566406 3.582031 7.570312 3.609375 C 7.609375 3.417969 7.777344 3.269531 7.980469 3.265625 C 7.984375 3.265625 7.988281 3.265625 7.992188 3.265625 C 8.199219 3.265625 8.375 3.414062 8.414062 3.609375 C 8.417969 3.582031 8.421875 3.550781 8.421875 3.523438 C 8.421875 3.285156 8.230469 3.09375 7.992188 3.09375 C 7.988281 3.09375 7.984375 3.09375 7.980469 3.09375 Z M 9.011719 3.09375 C 8.777344 3.101562 8.59375 3.289062 8.59375 3.523438 C 8.59375 3.554688 8.597656 3.582031 8.601562 3.609375 C 8.640625 3.417969 8.808594 3.269531 9.011719 3.265625 C 9.015625 3.265625 9.019531 3.265625 9.023438 3.265625 C 9.230469 3.265625 9.40625 3.414062 9.445312 3.609375 C 9.449219 3.582031 9.453125 3.550781 9.453125 3.523438 C 9.453125 3.285156 9.261719 3.09375 9.023438 3.09375 C 9.019531 3.09375 9.015625 3.09375 9.011719 3.09375 Z M 10.042969 3.09375 C 9.808594 3.101562 9.625 3.289062 9.625 3.523438 C 9.625 3.554688 9.628906 3.582031 9.632812 3.609375 C 9.671875 3.417969 9.839844 3.269531 10.042969 3.265625 C 10.046875 3.265625 10.050781 3.265625 10.054688 3.265625 C 10.261719 3.265625 10.4375 3.414062 10.476562 3.609375 C 10.480469 3.582031 10.484375 3.550781 10.484375 3.523438 C 10.484375 3.285156 10.292969 3.09375 10.054688 3.09375 C 10.050781 3.09375 10.046875 3.09375 10.042969 3.09375 Z M 10.042969 3.09375 "/>
<path style=" stroke:none;fill-rule:nonzero;fill:rgb(99.215686%,99.215686%,99.215686%);fill-opacity:0.4;" d="M 7.980469 4.125 C 7.746094 4.117188 7.5625 3.929688 7.5625 3.695312 C 7.5625 3.664062 7.566406 3.636719 7.570312 3.609375 C 7.609375 3.800781 7.777344 3.949219 7.980469 3.953125 C 7.984375 3.953125 7.988281 3.953125 7.992188 3.953125 C 8.199219 3.953125 8.375 3.804688 8.414062 3.609375 C 8.417969 3.636719 8.421875 3.667969 8.421875 3.695312 C 8.421875 3.933594 8.230469 4.125 7.992188 4.125 C 7.988281 4.125 7.984375 4.125 7.980469 4.125 Z M 9.011719 4.125 C 8.777344 4.117188 8.59375 3.929688 8.59375 3.695312 C 8.59375 3.664062 8.597656 3.636719 8.601562 3.609375 C 8.640625 3.800781 8.808594 3.949219 9.011719 3.953125 C 9.015625 3.953125 9.019531 3.953125 9.023438 3.953125 C 9.230469 3.953125 9.40625 3.804688 9.445312 3.609375 C 9.449219 3.636719 9.453125 3.667969 9.453125 3.695312 C 9.453125 3.933594 9.261719 4.125 9.023438 4.125 C 9.019531 4.125 9.015625 4.125 9.011719 4.125 Z M 10.042969 4.125 C 9.808594 4.117188 9.625 3.929688 9.625 3.695312 C 9.625 3.664062 9.628906 3.636719 9.632812 3.609375 C 9.671875 3.800781 9.839844 3.949219 10.042969 3.953125 C 10.046875 3.953125 10.050781 3.953125 10.054688 3.953125 C 10.261719 3.953125 10.4375 3.804688 10.476562 3.609375 C 10.480469 3.636719 10.484375 3.667969 10.484375 3.695312 C 10.484375 3.933594 10.292969 4.125 10.054688 4.125 C 10.050781 4.125 10.046875 4.125 10.042969 4.125 Z M 10.042969 4.125 "/>
<path style=" stroke:none;fill-rule:nonzero;fill:url(#linear3);" d="M 2.0625 2.75 L 10.3125 2.75 C 10.691406 2.75 11 3.058594 11 3.4375 L 11 9.625 C 11 10.003906 10.691406 10.3125 10.3125 10.3125 L 2.0625 10.3125 C 1.683594 10.3125 1.375 10.003906 1.375 9.625 L 1.375 3.4375 C 1.375 3.058594 1.683594 2.75 2.0625 2.75 Z M 2.0625 2.75 "/>
</g>
</svg>
