
<svg xmlns="http://www.w3.org/2000/svg" xmlns:xlink="http://www.w3.org/1999/xlink" width="16" height="16" viewBox="0 0 16 16" version="1.1">
<defs>
<linearGradient id="linear0" gradientUnits="userSpaceOnUse" x1="10.054166" y1="-199.125" x2="10.054166" y2="-213.941666" gradientTransform="matrix(0.944882,0,0,0.944882,-0.000316144,203.149617)">
<stop offset="0" style="stop-color:rgb(0%,0%,0%);stop-opacity:0.2;"/>
<stop offset="1" style="stop-color:rgb(100%,100%,100%);stop-opacity:0;"/>
</linearGradient>
</defs>
<g id="surface1">
<path style=" stroke:none;fill-rule:nonzero;fill:rgb(16.078432%,71.372551%,96.470588%);fill-opacity:1;" d="M 2 1 L 14 1 C 14.550781 1 15 1.449219 15 2 L 15 14 C 15 14.550781 14.550781 15 14 15 L 2 15 C 1.449219 15 1 14.550781 1 14 L 1 2 C 1 1.449219 1.449219 1 2 1 Z M 2 1 "/>
<path style=" stroke:none;fill-rule:nonzero;fill:rgb(0%,0%,0%);fill-opacity:0.4;" d="M 1 13.75 L 1 14 C 1 14.554688 1.445312 15 2 15 L 14 15 C 14.554688 15 15 14.554688 15 14 L 15 13.75 C 15 14.304688 14.554688 14.75 14 14.75 L 2 14.75 C 1.445312 14.75 1 14.304688 1 13.75 Z M 1 13.75 "/>
<path style=" stroke:none;fill-rule:nonzero;fill:rgb(0%,0%,0%);fill-opacity:0.2;" d="M 1 14 L 1 14.375 C 1 14.929688 1.445312 15.375 2 15.375 L 14 15.375 C 14.554688 15.375 15 14.929688 15 14.375 L 15 14 C 15 14.554688 14.554688 15 14 15 L 2 15 C 1.445312 15 1 14.554688 1 14 Z M 1 14 "/>
<path style=" stroke:none;fill-rule:nonzero;fill:rgb(100%,100%,100%);fill-opacity:0.4;" d="M 2 1 C 1.445312 1 1 1.445312 1 2 L 1 2.246094 C 1 1.691406 1.445312 1.246094 2 1.246094 L 14 1.246094 C 14.554688 1.246094 15 1.691406 15 2.246094 L 15 2 C 15 1.445312 14.554688 1 14 1 Z M 2 1 "/>
<path style=" stroke:none;fill-rule:nonzero;fill:rgb(50.588238%,83.137256%,98.039216%);fill-opacity:1;" d="M 7.988281 3.5 C 7.714844 3.507812 7.5 3.726562 7.5 4 C 7.5 4.277344 7.277344 4.5 7 4.5 C 6.722656 4.5 6.5 4.277344 6.5 4 L 6.5 8 L 9.5 8 L 9.5 4 C 9.5 4.277344 9.277344 4.5 9 4.5 C 8.722656 4.5 8.5 4.277344 8.5 4 C 8.5 3.722656 8.277344 3.5 8 3.5 C 7.996094 3.5 7.992188 3.5 7.988281 3.5 Z M 7.988281 3.5 "/>
<path style=" stroke:none;fill-rule:nonzero;fill:rgb(70.19608%,89.803922%,98.823529%);fill-opacity:1;" d="M 6.988281 5.5 C 6.714844 5.507812 6.5 5.726562 6.5 6 C 6.5 6.003906 6.5 6.007812 6.5 6.011719 L 6.5 9 L 9.5 9 L 9.5 6 C 9.5 5.722656 9.277344 5.5 9 5.5 C 8.722656 5.5 8.5 5.722656 8.5 6 C 8.5 6.277344 8.277344 6.5 8 6.5 C 7.722656 6.5 7.5 6.277344 7.5 6 C 7.5 5.722656 7.277344 5.5 7 5.5 C 6.996094 5.5 6.992188 5.5 6.988281 5.5 Z M 6.988281 5.5 "/>
<path style=" stroke:none;fill-rule:nonzero;fill:rgb(93.333334%,93.333334%,93.333334%);fill-opacity:1;" d="M 7.988281 7.5 C 7.714844 7.507812 7.5 7.726562 7.5 8 C 7.5 8.277344 7.277344 8.5 7 8.5 C 6.722656 8.5 6.5 8.277344 6.5 8 L 6.5 9.5 L 4.5 9.5 L 8 12.5 L 11.5 9.5 L 9.5 9.5 L 9.5 8 C 9.5 8.277344 9.277344 8.5 9 8.5 C 8.722656 8.5 8.5 8.277344 8.5 8 C 8.5 7.722656 8.277344 7.5 8 7.5 C 7.996094 7.5 7.992188 7.5 7.988281 7.5 Z M 7.988281 7.5 "/>
<path style=" stroke:none;fill-rule:nonzero;fill:rgb(0%,0%,0%);fill-opacity:0.4;" d="M 4.5 9.75 L 8 12.75 L 11.5 9.75 L 11.207031 9.75 L 8 12.5 L 4.792969 9.75 Z M 4.5 9.75 "/>
<path style=" stroke:none;fill-rule:nonzero;fill:rgb(100%,100%,100%);fill-opacity:0.6;" d="M 7.988281 7.5 C 7.714844 7.507812 7.5 7.726562 7.5 8 C 7.5 8.277344 7.277344 8.5 7 8.5 C 6.722656 8.5 6.5 8.277344 6.5 8 L 6.5 8.25 C 6.5 8.527344 6.722656 8.75 7 8.75 C 7.277344 8.75 7.5 8.527344 7.5 8.25 C 7.5 7.976562 7.714844 7.757812 7.988281 7.75 C 7.992188 7.75 7.996094 7.75 8 7.75 C 8.277344 7.75 8.5 7.972656 8.5 8.25 C 8.5 8.527344 8.722656 8.75 9 8.75 C 9.277344 8.75 9.5 8.527344 9.5 8.25 L 9.5 8 C 9.5 8.277344 9.277344 8.5 9 8.5 C 8.722656 8.5 8.5 8.277344 8.5 8 C 8.5 7.722656 8.277344 7.5 8 7.5 C 7.996094 7.5 7.992188 7.5 7.988281 7.5 Z M 4.5 9.5 L 4.792969 9.75 L 6.5 9.75 L 6.5 9.5 Z M 9.5 9.5 L 9.5 9.75 L 11.207031 9.75 L 11.5 9.5 Z M 9.5 9.5 "/>
<path style=" stroke:none;fill-rule:nonzero;fill:rgb(100%,100%,100%);fill-opacity:0.4;" d="M 6.988281 5.5 C 6.714844 5.507812 6.5 5.726562 6.5 6 C 6.5 6.003906 6.5 6.007812 6.5 6.011719 L 6.5 6.25 C 6.5 5.976562 6.714844 5.757812 6.988281 5.75 C 6.992188 5.75 6.996094 5.75 7 5.75 C 7.277344 5.75 7.5 5.972656 7.5 6.25 C 7.5 6.527344 7.722656 6.75 8 6.75 C 8.277344 6.75 8.5 6.527344 8.5 6.25 C 8.5 5.972656 8.722656 5.75 9 5.75 C 9.277344 5.75 9.5 5.972656 9.5 6.25 L 9.5 6 C 9.5 5.722656 9.277344 5.5 9 5.5 C 8.722656 5.5 8.5 5.722656 8.5 6 C 8.5 6.277344 8.277344 6.5 8 6.5 C 7.722656 6.5 7.5 6.277344 7.5 6 C 7.5 5.722656 7.277344 5.5 7 5.5 C 6.996094 5.5 6.992188 5.5 6.988281 5.5 Z M 6.988281 5.5 "/>
<path style=" stroke:none;fill-rule:nonzero;fill:rgb(100%,100%,100%);fill-opacity:0.4;" d="M 7.988281 3.5 C 7.714844 3.507812 7.5 3.726562 7.5 4 C 7.5 4.277344 7.277344 4.5 7 4.5 C 6.722656 4.5 6.5 4.277344 6.5 4 L 6.5 4.25 C 6.5 4.527344 6.722656 4.75 7 4.75 C 7.277344 4.75 7.5 4.527344 7.5 4.25 C 7.5 3.976562 7.714844 3.757812 7.988281 3.75 C 7.992188 3.75 7.996094 3.75 8 3.75 C 8.277344 3.75 8.5 3.972656 8.5 4.25 C 8.5 4.527344 8.722656 4.75 9 4.75 C 9.277344 4.75 9.5 4.527344 9.5 4.25 L 9.5 4 C 9.5 4.277344 9.277344 4.5 9 4.5 C 8.722656 4.5 8.5 4.277344 8.5 4 C 8.5 3.722656 8.277344 3.5 8 3.5 C 7.996094 3.5 7.992188 3.5 7.988281 3.5 Z M 7.988281 3.5 "/>
<path style=" stroke:none;fill-rule:nonzero;fill:url(#linear0);" d="M 2 1 L 14 1 C 14.550781 1 15 1.449219 15 2 L 15 14 C 15 14.550781 14.550781 15 14 15 L 2 15 C 1.449219 15 1 14.550781 1 14 L 1 2 C 1 1.449219 1.449219 1 2 1 Z M 2 1 "/>
</g>
</svg>
