
<svg xmlns="http://www.w3.org/2000/svg" xmlns:xlink="http://www.w3.org/1999/xlink" width="16" height="16" viewBox="0 0 16 16" version="1.1">
<defs>
<linearGradient id="linear0" gradientUnits="userSpaceOnUse" x1="31.999998" y1="66.000038" x2="31.999998" y2="10.000037" gradientTransform="matrix(0.25,0,0,0.25,0,-1.500009)">
<stop offset="0" style="stop-color:rgb(0%,0%,0%);stop-opacity:0.2;"/>
<stop offset="1" style="stop-color:rgb(100%,100%,100%);stop-opacity:0;"/>
</linearGradient>
</defs>
<g id="surface1">
<path style=" stroke:none;fill-rule:nonzero;fill:rgb(74.117649%,74.117649%,74.117649%);fill-opacity:1;" d="M 9.75 2.5 C 8.21875 2.5 6.910156 3.40625 6.324219 4.714844 C 5.996094 4.578125 5.632812 4.5 5.25 4.5 C 3.726562 4.5 2.5 5.726562 2.5 7.25 C 2.5 8.773438 3.726562 10 5.25 10 C 6.066406 10 6.792969 9.648438 7.296875 9.089844 C 7.953125 9.65625 8.808594 10 9.75 10 C 11.828125 10 13.5 8.328125 13.5 6.25 C 13.5 4.171875 11.828125 2.5 9.75 2.5 Z M 9.75 2.5 "/>
<path style=" stroke:none;fill-rule:nonzero;fill:rgb(87.843138%,87.843138%,87.843138%);fill-opacity:0.996078;" d="M 7.75 4.507812 C 5.90625 4.507812 4.382812 5.824219 4.0625 7.574219 C 3.882812 7.53125 3.695312 7.507812 3.5 7.507812 C 2.113281 7.507812 1 8.625 1 10.007812 C 1 11.394531 2.113281 12.507812 3.5 12.507812 L 12 12.507812 L 12 12.5 C 13.683594 12.371094 15 10.976562 15 9.257812 C 15 7.457031 13.550781 6.007812 11.75 6.007812 C 11.4375 6.007812 11.132812 6.054688 10.847656 6.136719 C 10.171875 5.152344 9.039062 4.507812 7.75 4.507812 Z M 7.75 4.507812 "/>
<path style=" stroke:none;fill-rule:nonzero;fill:rgb(100%,100%,100%);fill-opacity:0.4;" d="M 7.75 4.507812 C 5.90625 4.507812 4.382812 5.824219 4.0625 7.574219 C 3.882812 7.53125 3.695312 7.507812 3.5 7.507812 C 2.113281 7.507812 1 8.625 1 10.007812 C 1 10.050781 1 10.089844 1.003906 10.128906 C 1.066406 8.800781 2.15625 7.75 3.5 7.75 C 3.695312 7.75 3.882812 7.773438 4.0625 7.8125 C 4.382812 6.066406 5.90625 4.75 7.75 4.75 C 9.039062 4.75 10.171875 5.394531 10.847656 6.378906 C 11.132812 6.296875 11.4375 6.25 11.75 6.25 C 13.511719 6.25 14.9375 7.636719 14.996094 9.382812 C 15 9.34375 15 9.300781 15 9.257812 C 15 7.457031 13.550781 6.007812 11.75 6.007812 C 11.4375 6.007812 11.132812 6.054688 10.847656 6.136719 C 10.171875 5.152344 9.039062 4.507812 7.75 4.507812 Z M 7.75 4.507812 "/>
<path style=" stroke:none;fill-rule:nonzero;fill:rgb(0%,0%,0%);fill-opacity:0.4;" d="M 14.996094 9.136719 C 14.929688 10.792969 13.640625 12.121094 12 12.246094 L 12 12.253906 L 3.5 12.253906 C 2.160156 12.253906 1.070312 11.207031 1.003906 9.882812 C 1 9.925781 1 9.96875 1 10.007812 C 1 11.394531 2.113281 12.507812 3.5 12.507812 L 12 12.507812 L 12 12.5 C 13.683594 12.371094 15 10.976562 15 9.257812 C 15 9.21875 15 9.175781 14.996094 9.136719 Z M 14.996094 9.136719 "/>
<path style=" stroke:none;fill-rule:nonzero;fill:rgb(0%,0%,0%);fill-opacity:0.2;" d="M 14.996094 9.445312 C 14.90625 11.078125 13.621094 12.382812 12 12.503906 L 12 12.515625 L 3.5 12.515625 C 2.175781 12.515625 1.101562 11.496094 1.007812 10.199219 C 1.003906 10.257812 1 10.316406 1 10.378906 C 1 11.765625 2.113281 12.878906 3.5 12.878906 L 12 12.878906 L 12 12.871094 C 13.683594 12.742188 15 11.347656 15 9.628906 C 15 9.566406 14.996094 9.507812 14.996094 9.445312 Z M 14.996094 9.445312 "/>
<path style=" stroke:none;fill-rule:nonzero;fill:rgb(100%,100%,100%);fill-opacity:0.4;" d="M 9.75 2.5 C 8.21875 2.5 6.910156 3.40625 6.324219 4.714844 C 5.996094 4.578125 5.632812 4.5 5.25 4.5 C 3.726562 4.5 2.5 5.726562 2.5 7.25 C 2.5 7.289062 2.5 7.332031 2.503906 7.371094 C 2.570312 5.910156 3.769531 4.75 5.25 4.75 C 5.632812 4.75 5.996094 4.828125 6.324219 4.964844 C 6.910156 3.65625 8.21875 2.75 9.75 2.75 C 11.78125 2.75 13.421875 4.347656 13.496094 6.359375 C 13.5 6.324219 13.5 6.285156 13.5 6.25 C 13.5 4.171875 11.828125 2.5 9.75 2.5 Z M 9.75 2.5 "/>
<path style=" stroke:none;fill-rule:nonzero;fill:rgb(45.882353%,45.882353%,45.882353%);fill-opacity:1;" d="M 8 6 C 7.375 6 6.875 6.5 6.875 7.125 C 6.875 7.75 7.375 8.25 8 8.25 C 8.625 8.25 9.125 7.75 9.125 7.125 C 9.125 6.5 8.625 6 8 6 Z M 8 8.5 C 6.890625 8.5 6 8.945312 6 9.5 L 6 10.5 C 6 10.777344 6.222656 11 6.5 11 L 9.5 11 C 9.777344 11 10 10.777344 10 10.5 L 10 9.5 C 10 8.945312 9.109375 8.5 8 8.5 Z M 8 8.5 "/>
<path style=" stroke:none;fill-rule:nonzero;fill:rgb(100%,100%,100%);fill-opacity:0.4;" d="M 8 6 C 7.375 6 6.875 6.5 6.875 7.125 C 6.875 7.140625 6.875 7.15625 6.878906 7.175781 C 6.875 7.203125 6.875 7.226562 6.875 7.25 C 6.875 7.269531 6.875 7.285156 6.878906 7.300781 C 6.914062 6.714844 7.402344 6.25 8 6.25 C 8.597656 6.25 9.085938 6.714844 9.121094 7.300781 C 9.125 7.285156 9.125 7.269531 9.125 7.25 C 9.125 7.226562 9.125 7.203125 9.121094 7.175781 C 9.125 7.15625 9.125 7.140625 9.125 7.125 C 9.125 6.5 8.625 6 8 6 Z M 7.800781 6.144531 C 7.789062 6.144531 7.78125 6.144531 7.773438 6.148438 C 7.78125 6.144531 7.789062 6.144531 7.800781 6.144531 Z M 8.203125 6.144531 C 8.210938 6.144531 8.21875 6.144531 8.226562 6.148438 C 8.21875 6.144531 8.210938 6.144531 8.203125 6.144531 Z M 7.59375 6.199219 C 7.582031 6.203125 7.570312 6.207031 7.5625 6.214844 C 7.546875 6.21875 7.53125 6.226562 7.519531 6.234375 C 7.53125 6.226562 7.546875 6.21875 7.5625 6.214844 C 7.570312 6.207031 7.582031 6.203125 7.59375 6.199219 Z M 8.410156 6.199219 C 8.417969 6.203125 8.425781 6.207031 8.433594 6.210938 C 8.425781 6.207031 8.417969 6.203125 8.410156 6.199219 Z M 8.449219 6.21875 C 8.460938 6.222656 8.46875 6.226562 8.480469 6.230469 C 8.46875 6.226562 8.460938 6.222656 8.449219 6.21875 Z M 7.449219 6.269531 C 7.4375 6.273438 7.429688 6.28125 7.417969 6.285156 C 7.429688 6.28125 7.4375 6.273438 7.449219 6.269531 Z M 7.277344 6.386719 C 7.269531 6.394531 7.261719 6.398438 7.257812 6.402344 C 7.261719 6.398438 7.269531 6.394531 7.277344 6.386719 Z M 8.722656 6.386719 C 8.730469 6.394531 8.738281 6.398438 8.742188 6.402344 C 8.738281 6.398438 8.730469 6.394531 8.722656 6.386719 Z M 7.039062 6.664062 C 7.03125 6.675781 7.027344 6.683594 7.023438 6.691406 C 7.027344 6.683594 7.03125 6.675781 7.039062 6.664062 Z M 8.960938 6.664062 C 8.96875 6.675781 8.972656 6.683594 8.976562 6.691406 C 8.972656 6.683594 8.96875 6.675781 8.960938 6.664062 Z M 6.90625 6.996094 C 6.902344 7.003906 6.898438 7.011719 6.898438 7.023438 C 6.898438 7.011719 6.902344 7.003906 6.90625 6.996094 Z M 9.097656 6.996094 C 9.097656 7.003906 9.101562 7.011719 9.101562 7.023438 C 9.101562 7.011719 9.097656 7.003906 9.097656 6.996094 Z M 8 8.5 C 6.890625 8.5 6 8.945312 6 9.5 L 6 9.75 C 6 9.195312 6.890625 8.75 8 8.75 C 9.109375 8.75 10 9.195312 10 9.75 L 10 9.5 C 10 8.945312 9.109375 8.5 8 8.5 Z M 8 8.5 "/>
<path style=" stroke:none;fill-rule:nonzero;fill:rgb(4.313726%,4.313726%,4.313726%);fill-opacity:0.4;" d="M 6.878906 7.1875 C 6.875 7.210938 6.875 7.230469 6.875 7.253906 C 6.875 7.273438 6.875 7.292969 6.878906 7.316406 C 6.875 7.335938 6.875 7.355469 6.875 7.378906 C 6.875 8 7.375 8.503906 8 8.503906 C 8.625 8.503906 9.125 8 9.125 7.378906 C 9.125 7.355469 9.125 7.335938 9.121094 7.316406 C 9.121094 7.316406 9.125 7.316406 9.121094 7.3125 C 9.125 7.292969 9.125 7.273438 9.125 7.253906 C 9.125 7.230469 9.125 7.210938 9.121094 7.1875 C 9.089844 7.78125 8.601562 8.25 8 8.25 C 7.398438 8.25 6.910156 7.78125 6.875 7.1875 Z M 6 10.5 L 6 10.753906 C 6 11.027344 6.222656 11.253906 6.5 11.253906 L 9.5 11.253906 C 9.777344 11.253906 10 11.027344 10 10.753906 L 10 10.5 C 10 10.777344 9.777344 11 9.5 11 L 6.5 11 C 6.222656 11 6 10.777344 6 10.5 Z M 6 10.5 "/>
<path style=" stroke:none;fill-rule:nonzero;fill:url(#linear0);" d="M 9.75 2.5 C 8.21875 2.5 6.910156 3.40625 6.324219 4.714844 C 5.996094 4.578125 5.632812 4.5 5.25 4.5 C 3.726562 4.5 2.5 5.726562 2.5 7.25 C 2.5 7.402344 2.511719 7.554688 2.539062 7.699219 C 1.632812 8.074219 1 8.964844 1 10.007812 C 1 11.394531 2.113281 12.507812 3.5 12.507812 L 12 12.507812 L 12 12.5 C 13.683594 12.375 15 10.976562 15 9.257812 C 15 8.101562 14.398438 7.085938 13.488281 6.511719 C 13.496094 6.425781 13.5 6.339844 13.5 6.25 C 13.5 4.171875 11.828125 2.5 9.75 2.5 Z M 9.75 2.5 "/>
</g>
</svg>
