
<svg xmlns="http://www.w3.org/2000/svg" xmlns:xlink="http://www.w3.org/1999/xlink" width="16" height="16" viewBox="0 0 16 16" version="1.1">
<defs>
<linearGradient id="linear0" gradientUnits="userSpaceOnUse" x1="10.054166" y1="-199.125" x2="10.054166" y2="-213.941666" gradientTransform="matrix(0.944882,0,0,0.944882,-0.000316144,203.149617)">
<stop offset="0" style="stop-color:rgb(0%,0%,0%);stop-opacity:0.2;"/>
<stop offset="1" style="stop-color:rgb(100%,100%,100%);stop-opacity:0;"/>
</linearGradient>
</defs>
<g id="surface1">
<path style=" stroke:none;fill-rule:nonzero;fill:rgb(92.54902%,25.098041%,47.843137%);fill-opacity:1;" d="M 2 1 L 14 1 C 14.550781 1 15 1.449219 15 2 L 15 14 C 15 14.550781 14.550781 15 14 15 L 2 15 C 1.449219 15 1 14.550781 1 14 L 1 2 C 1 1.449219 1.449219 1 2 1 Z M 2 1 "/>
<path style=" stroke:none;fill-rule:nonzero;fill:rgb(0%,0%,0%);fill-opacity:0.4;" d="M 1 13.75 L 1 14 C 1 14.554688 1.445312 15 2 15 L 14 15 C 14.554688 15 15 14.554688 15 14 L 15 13.75 C 15 14.304688 14.554688 14.75 14 14.75 L 2 14.75 C 1.445312 14.75 1 14.304688 1 13.75 Z M 1 13.75 "/>
<path style=" stroke:none;fill-rule:nonzero;fill:rgb(0%,0%,0%);fill-opacity:0.2;" d="M 1 14 L 1 14.375 C 1 14.929688 1.445312 15.375 2 15.375 L 14 15.375 C 14.554688 15.375 15 14.929688 15 14.375 L 15 14 C 15 14.554688 14.554688 15 14 15 L 2 15 C 1.445312 15 1 14.554688 1 14 Z M 1 14 "/>
<path style=" stroke:none;fill-rule:nonzero;fill:rgb(100%,100%,100%);fill-opacity:0.4;" d="M 2 1 C 1.445312 1 1 1.445312 1 2 L 1 2.246094 C 1 1.691406 1.445312 1.246094 2 1.246094 L 14 1.246094 C 14.554688 1.246094 15 1.691406 15 2.246094 L 15 2 C 15 1.445312 14.554688 1 14 1 Z M 2 1 "/>
<path style=" stroke:none;fill-rule:nonzero;fill:rgb(93.333334%,93.333334%,93.333334%);fill-opacity:1;" d="M 5.5 3.5 C 5.222656 3.5 5 3.722656 5 4 L 5 12 C 5 12.210938 5.128906 12.398438 5.328125 12.46875 C 5.527344 12.542969 5.75 12.480469 5.882812 12.320312 L 8.234375 9.5 L 10 9.5 C 10.238281 9.5 10.441406 9.332031 10.488281 9.097656 L 11.488281 4.097656 C 11.519531 3.953125 11.480469 3.800781 11.386719 3.683594 C 11.292969 3.570312 11.152344 3.5 11 3.5 Z M 6 4.5 L 10.390625 4.5 L 10.089844 6 L 8 6 C 7.726562 6.003906 7.507812 6.226562 7.507812 6.5 C 7.507812 6.773438 7.726562 6.996094 8 7 L 9.890625 7 L 9.589844 8.5 L 8 8.5 C 7.851562 8.5 7.710938 8.566406 7.617188 8.679688 L 6 10.617188 Z M 6 4.5 "/>
<path style=" stroke:none;fill-rule:nonzero;fill:rgb(99.607843%,99.607843%,99.607843%);fill-opacity:1;" d="M 5.5 3.5 C 5.222656 3.5 5 3.722656 5 4 L 5 4.25 C 5 3.972656 5.222656 3.75 5.5 3.75 L 11 3.75 C 11.230469 3.753906 11.425781 3.90625 11.484375 4.128906 L 11.488281 4.097656 C 11.519531 3.953125 11.480469 3.800781 11.386719 3.683594 C 11.292969 3.570312 11.152344 3.5 11 3.5 Z M 10.339844 4.75 L 10.089844 6 L 8 6 C 7.726562 6.003906 7.507812 6.226562 7.507812 6.5 C 7.507812 6.542969 7.515625 6.585938 7.523438 6.625 C 7.582031 6.40625 7.777344 6.253906 8 6.25 L 10.089844 6.25 L 10.390625 4.75 Z M 9.839844 7.25 L 9.589844 8.5 L 8 8.5 C 7.851562 8.5 7.710938 8.566406 7.617188 8.679688 L 6 10.617188 L 6 10.871094 L 7.617188 8.929688 C 7.710938 8.816406 7.851562 8.75 8 8.75 L 9.589844 8.75 L 9.890625 7.25 Z M 9.839844 7.25 "/>
<path style=" stroke:none;fill-rule:nonzero;fill:rgb(0%,0%,0%);fill-opacity:0.4;" d="M 11.484375 4.128906 L 10.988281 6.597656 L 10.488281 9.097656 C 10.441406 9.332031 10.238281 9.5 10 9.5 L 8.234375 9.5 L 5.882812 12.320312 C 5.75 12.484375 5.527344 12.542969 5.328125 12.46875 C 5.128906 12.398438 5 12.210938 5 12 L 5 12.25 C 5 12.460938 5.128906 12.648438 5.328125 12.71875 C 5.527344 12.792969 5.75 12.734375 5.882812 12.570312 L 8.234375 9.75 L 10 9.75 C 10.238281 9.75 10.441406 9.582031 10.488281 9.347656 L 10.988281 6.847656 L 11.488281 4.351562 C 11.503906 4.277344 11.503906 4.199219 11.484375 4.128906 Z M 6 4.5 L 6 4.75 L 10.339844 4.75 L 10.390625 4.5 Z M 7.523438 6.625 C 7.515625 6.667969 7.507812 6.707031 7.507812 6.75 C 7.507812 7.023438 7.726562 7.246094 8 7.25 L 9.839844 7.25 L 9.890625 7 L 8 7 C 7.777344 6.996094 7.582031 6.84375 7.523438 6.625 Z M 7.523438 6.625 "/>
<path style=" stroke:none;fill-rule:nonzero;fill:url(#linear0);" d="M 2 1 L 14 1 C 14.550781 1 15 1.449219 15 2 L 15 14 C 15 14.550781 14.550781 15 14 15 L 2 15 C 1.449219 15 1 14.550781 1 14 L 1 2 C 1 1.449219 1.449219 1 2 1 Z M 2 1 "/>
</g>
</svg>
