
<svg xmlns="http://www.w3.org/2000/svg" xmlns:xlink="http://www.w3.org/1999/xlink" width="16" height="16" viewBox="0 0 16 16" version="1.1">
<defs>
<linearGradient id="linear0" gradientUnits="userSpaceOnUse" x1="8.466666" y1="-199.125" x2="8.466666" y2="-213.941666" gradientTransform="matrix(0.944882,0,0,0.944882,-0.00000127337,203.149617)">
<stop offset="0" style="stop-color:rgb(0%,0%,0%);stop-opacity:0.2;"/>
<stop offset="1" style="stop-color:rgb(100%,100%,100%);stop-opacity:0;"/>
</linearGradient>
</defs>
<g id="surface1">
<path style=" stroke:none;fill-rule:nonzero;fill:rgb(92.54902%,25.098041%,47.843137%);fill-opacity:1;" d="M 14 15 C 14.554688 15 15 14.554688 15 14 L 15 8 L 8 8 L 8 15 Z M 14 15 "/>
<path style=" stroke:none;fill-rule:nonzero;fill:rgb(100%,65.490198%,14.901961%);fill-opacity:1;" d="M 2 15 C 1.445312 15 1 14.554688 1 14 L 1 8 L 8 8 L 8 15 Z M 2 15 "/>
<path style=" stroke:none;fill-rule:nonzero;fill:rgb(36.078432%,41.960785%,75.294119%);fill-opacity:1;" d="M 14 1 C 14.554688 1 15 1.445312 15 2 L 15 8 L 8 8 L 8 1 Z M 14 1 "/>
<path style=" stroke:none;fill-rule:nonzero;fill:rgb(92.54902%,25.098041%,47.843137%);fill-opacity:1;" d="M 2 1 C 1.445312 1 1 1.445312 1 2 L 1 8 L 8 8 L 8 1 Z M 2 1 "/>
<path style=" stroke:none;fill-rule:nonzero;fill:rgb(38.039216%,38.039216%,38.039216%);fill-opacity:1;" d="M 3.5 3 L 12.5 3 C 12.777344 3 13 3.222656 13 3.5 L 13 12.5 C 13 12.777344 12.777344 13 12.5 13 L 3.5 13 C 3.222656 13 3 12.777344 3 12.5 L 3 3.5 C 3 3.222656 3.222656 3 3.5 3 Z M 3.5 3 "/>
<path style=" stroke:none;fill-rule:nonzero;fill:rgb(100%,100%,100%);fill-opacity:0.4;" d="M 3.5 3 C 3.222656 3 3 3.222656 3 3.5 L 3 3.75 C 3 3.472656 3.222656 3.25 3.5 3.25 L 12.5 3.25 C 12.777344 3.25 13 3.472656 13 3.75 L 13 3.5 C 13 3.222656 12.777344 3 12.5 3 Z M 3.5 3 "/>
<path style=" stroke:none;fill-rule:nonzero;fill:rgb(0.784314%,0.784314%,0.784314%);fill-opacity:0.4;" d="M 3.5 13.25 C 3.222656 13.25 3 13.027344 3 12.75 L 3 12.5 C 3 12.777344 3.222656 13 3.5 13 L 12.5 13 C 12.777344 13 13 12.777344 13 12.5 L 13 12.75 C 13 13.027344 12.777344 13.25 12.5 13.25 Z M 3.5 13.25 "/>
<path style=" stroke:none;fill-rule:nonzero;fill:rgb(100%,100%,100%);fill-opacity:0.4;" d="M 2 1 C 1.445312 1 1 1.445312 1 2 L 1 2.25 C 1 1.695312 1.445312 1.25 2 1.25 L 14 1.25 C 14.554688 1.25 15 1.695312 15 2.25 L 15 2 C 15 1.445312 14.554688 1 14 1 Z M 2 1 "/>
<path style=" stroke:none;fill-rule:nonzero;fill:rgb(0%,0%,0%);fill-opacity:0.4;" d="M 2 15 C 1.445312 15 1 14.554688 1 14 L 1 13.75 C 1 14.304688 1.445312 14.75 2 14.75 L 14 14.75 C 14.554688 14.75 15 14.304688 15 13.75 L 15 14 C 15 14.554688 14.554688 15 14 15 Z M 2 15 "/>
<path style=" stroke:none;fill-rule:nonzero;fill:rgb(0%,0%,0%);fill-opacity:0.2;" d="M 1 14 L 1 14.375 C 1 14.929688 1.445312 15.375 2 15.375 L 14 15.375 C 14.554688 15.375 15 14.929688 15 14.375 L 15 14 C 15 14.554688 14.554688 15 14 15 L 2 15 C 1.445312 15 1 14.554688 1 14 Z M 1 14 "/>
<path style=" stroke:none;fill-rule:nonzero;fill:rgb(93.333334%,93.333334%,93.333334%);fill-opacity:1;" d="M 4.5 5.5 C 4.363281 5.5 4.25 5.613281 4.25 5.75 L 4.25 10.25 C 4.25 10.386719 4.363281 10.5 4.5 10.5 L 5 10.5 C 5.136719 10.5 5.25 10.386719 5.25 10.25 L 5.25 8.5 L 5.765625 8.5 L 6.851562 10.375 C 6.917969 10.496094 7.070312 10.535156 7.191406 10.464844 L 7.625 10.214844 C 7.746094 10.148438 7.785156 9.996094 7.714844 9.875 L 6.851562 8.375 C 7.378906 8.144531 7.75 7.617188 7.75 7 C 7.75 6.167969 7.082031 5.5 6.25 5.5 Z M 5.25 6.5 L 6.25 6.5 C 6.527344 6.5 6.75 6.722656 6.75 7 C 6.75 7.277344 6.527344 7.5 6.25 7.5 L 5.25 7.5 Z M 5.25 6.5 "/>
<path style=" stroke:none;fill-rule:nonzero;fill:rgb(100%,100%,100%);fill-opacity:0.6;" d="M 4.5 5.5 C 4.363281 5.5 4.25 5.613281 4.25 5.75 L 4.25 6 C 4.25 5.863281 4.363281 5.75 4.5 5.75 L 6.25 5.75 C 7.039062 5.75 7.679688 6.351562 7.746094 7.125 C 7.746094 7.082031 7.75 7.042969 7.75 7 C 7.75 6.167969 7.082031 5.5 6.25 5.5 Z M 6.734375 7.125 C 6.679688 7.339844 6.484375 7.5 6.25 7.5 L 5.25 7.5 L 5.25 7.75 L 6.25 7.75 C 6.527344 7.75 6.75 7.527344 6.75 7.25 C 6.75 7.207031 6.746094 7.164062 6.734375 7.125 Z M 6.960938 8.570312 C 6.925781 8.589844 6.886719 8.609375 6.851562 8.625 L 7.714844 10.125 C 7.757812 10.050781 7.761719 9.953125 7.714844 9.875 Z M 6.960938 8.570312 "/>
<path style=" stroke:none;fill-rule:nonzero;fill:rgb(0%,0%,0%);fill-opacity:0.4;" d="M 5.25 6.5 L 5.25 6.75 L 6.25 6.75 C 6.484375 6.75 6.679688 6.910156 6.734375 7.125 C 6.746094 7.085938 6.75 7.042969 6.75 7 C 6.75 6.722656 6.527344 6.5 6.25 6.5 Z M 7.746094 7.125 C 7.699219 7.6875 7.34375 8.160156 6.851562 8.375 L 6.960938 8.570312 C 7.433594 8.316406 7.75 7.824219 7.75 7.25 C 7.75 7.207031 7.746094 7.164062 7.746094 7.125 Z M 5.25 8.5 L 5.25 8.75 L 5.765625 8.75 L 6.851562 10.625 C 6.917969 10.746094 7.070312 10.785156 7.191406 10.714844 L 7.625 10.464844 C 7.746094 10.398438 7.785156 10.246094 7.714844 10.125 C 7.695312 10.160156 7.664062 10.195312 7.625 10.21875 L 7.191406 10.46875 C 7.070312 10.535156 6.917969 10.496094 6.851562 10.375 L 5.765625 8.5 Z M 4.25 10.25 L 4.25 10.5 C 4.25 10.636719 4.363281 10.75 4.5 10.75 L 5 10.75 C 5.136719 10.75 5.25 10.636719 5.25 10.5 L 5.25 10.25 C 5.25 10.390625 5.136719 10.5 5 10.5 L 4.5 10.5 C 4.363281 10.5 4.25 10.390625 4.25 10.25 Z M 4.25 10.25 "/>
<path style=" stroke:none;fill-rule:nonzero;fill:rgb(93.333334%,93.333334%,93.333334%);fill-opacity:1;" d="M 8.875 5.5 C 8.804688 5.5 8.75 5.554688 8.75 5.625 L 8.75 10.375 C 8.75 10.445312 8.804688 10.5 8.875 10.5 L 10.25 10.5 C 11.082031 10.5 11.75 9.832031 11.75 9 L 11.75 7 C 11.75 6.167969 11.082031 5.5 10.25 5.5 Z M 9.75 6.5 L 10.25 6.5 C 10.527344 6.5 10.75 6.722656 10.75 7 L 10.75 9 C 10.75 9.277344 10.527344 9.5 10.25 9.5 L 9.75 9.5 Z M 9.75 6.5 "/>
<path style=" stroke:none;fill-rule:nonzero;fill:rgb(100%,100%,100%);fill-opacity:0.6;" d="M 8.875 5.5 C 8.804688 5.5 8.75 5.554688 8.75 5.625 L 8.75 5.875 C 8.75 5.804688 8.804688 5.75 8.875 5.75 L 10.25 5.75 C 11.082031 5.75 11.75 6.417969 11.75 7.25 L 11.75 7 C 11.75 6.167969 11.082031 5.5 10.25 5.5 Z M 10.75 9 C 10.75 9.277344 10.527344 9.5 10.25 9.5 L 9.75 9.5 L 9.75 9.75 L 10.25 9.75 C 10.527344 9.75 10.75 9.527344 10.75 9.25 Z M 10.75 9 "/>
<path style=" stroke:none;fill-rule:nonzero;fill:rgb(0%,0%,0%);fill-opacity:0.4;" d="M 9.75 6.5 L 9.75 6.75 L 10.25 6.75 C 10.527344 6.75 10.75 6.972656 10.75 7.25 L 10.75 7 C 10.75 6.722656 10.527344 6.5 10.25 6.5 Z M 11.75 9 C 11.75 9.832031 11.082031 10.5 10.25 10.5 L 8.875 10.5 C 8.804688 10.5 8.75 10.445312 8.75 10.375 L 8.75 10.625 C 8.75 10.695312 8.804688 10.75 8.875 10.75 L 10.25 10.75 C 11.082031 10.75 11.75 10.082031 11.75 9.25 Z M 11.75 9 "/>
<path style=" stroke:none;fill-rule:nonzero;fill:url(#linear0);" d="M 2 1 L 14 1 C 14.550781 1 15 1.449219 15 2 L 15 14 C 15 14.550781 14.550781 15 14 15 L 2 15 C 1.449219 15 1 14.550781 1 14 L 1 2 C 1 1.449219 1.449219 1 2 1 Z M 2 1 "/>
</g>
</svg>
