
<svg xmlns="http://www.w3.org/2000/svg" xmlns:xlink="http://www.w3.org/1999/xlink" width="16" height="16" viewBox="0 0 16 16" version="1.1">
<defs>
<linearGradient id="linear0" gradientUnits="userSpaceOnUse" x1="8.466666" y1="-199.125" x2="8.466666" y2="-213.941666" gradientTransform="matrix(0.944882,0,0,0.944882,-0.0704362,203.14864)">
<stop offset="0" style="stop-color:rgb(0%,0%,0%);stop-opacity:0.2;"/>
<stop offset="1" style="stop-color:rgb(100%,100%,100%);stop-opacity:0;"/>
</linearGradient>
<linearGradient id="linear1" gradientUnits="userSpaceOnUse" x1="-61.999996" y1="60" x2="-61.999996" y2="4" gradientTransform="matrix(0.25,0,0,0.25,23.691403,0)">
<stop offset="0" style="stop-color:rgb(0%,0%,0%);stop-opacity:0.2;"/>
<stop offset="1" style="stop-color:rgb(100%,100%,100%);stop-opacity:0;"/>
</linearGradient>
</defs>
<g id="surface1">
<path style=" stroke:none;fill-rule:nonzero;fill:rgb(38.039216%,38.039216%,38.039216%);fill-opacity:1;" d="M 1.570312 2.054688 C 5.730469 0.691406 10.269531 0.691406 14.429688 2.054688 C 14.746094 2.15625 15 2.519531 14.988281 2.851562 C 14.816406 7.726562 12.542969 13.070312 8.558594 14.898438 C 8.253906 15.035156 7.746094 15.035156 7.441406 14.898438 C 3.457031 13.070312 1.183594 7.726562 1.011719 2.851562 C 1 2.519531 1.253906 2.15625 1.570312 2.054688 Z M 1.570312 2.054688 "/>
<path style=" stroke:none;fill-rule:nonzero;fill:rgb(100%,100%,100%);fill-opacity:0.4;" d="M 8 1.03125 C 5.824219 1.03125 3.648438 1.371094 1.570312 2.054688 C 1.253906 2.15625 1 2.519531 1.011719 2.851562 C 1.011719 2.902344 1.015625 2.949219 1.015625 3 C 1.058594 2.699219 1.289062 2.402344 1.570312 2.3125 C 5.730469 0.949219 10.269531 0.949219 14.429688 2.3125 C 14.710938 2.402344 14.941406 2.699219 14.984375 3 C 14.984375 2.949219 14.988281 2.902344 14.988281 2.851562 C 15 2.519531 14.746094 2.15625 14.429688 2.054688 C 12.351562 1.371094 10.175781 1.03125 8 1.03125 Z M 8 1.03125 "/>
<path style=" stroke:none;fill-rule:nonzero;fill:rgb(0.392157%,0.392157%,0.392157%);fill-opacity:0.4;" d="M 1.015625 2.742188 C 1.011719 2.78125 1.007812 2.816406 1.011719 2.851562 C 1.183594 7.726562 3.457031 13.070312 7.441406 14.898438 C 7.746094 15.035156 8.253906 15.035156 8.558594 14.898438 C 12.542969 13.070312 14.816406 7.726562 14.988281 2.851562 C 14.992188 2.816406 14.988281 2.78125 14.984375 2.742188 C 14.769531 7.578125 12.503906 12.835938 8.558594 14.640625 C 8.253906 14.78125 7.746094 14.78125 7.441406 14.640625 C 3.496094 12.835938 1.230469 7.578125 1.015625 2.742188 Z M 1.015625 2.742188 "/>
<path style=" stroke:none;fill-rule:nonzero;fill:rgb(0%,0%,0%);fill-opacity:0.2;" d="M 1.019531 3.089844 C 1.011719 3.136719 1.007812 3.183594 1.011719 3.226562 C 1.183594 8.101562 3.457031 13.445312 7.441406 15.269531 C 7.746094 15.410156 8.253906 15.410156 8.558594 15.269531 C 12.542969 13.445312 14.816406 8.101562 14.988281 3.226562 C 14.992188 3.183594 14.988281 3.136719 14.980469 3.089844 C 14.742188 7.898438 12.476562 13.101562 8.558594 14.898438 C 8.253906 15.035156 7.746094 15.035156 7.441406 14.898438 C 3.523438 13.101562 1.257812 7.898438 1.019531 3.089844 Z M 1.019531 3.089844 "/>
<path style=" stroke:none;fill-rule:nonzero;fill:rgb(100%,71.764708%,30.19608%);fill-opacity:1;" d="M 8 2 C 6.125 2 4.253906 2.292969 2.460938 2.878906 C 2.1875 2.96875 1.96875 3.28125 1.980469 3.570312 C 2.023438 4.832031 2.234375 6.128906 2.597656 7.371094 C 3.441406 10.261719 5.117188 12.84375 7.519531 13.945312 C 7.648438 14.003906 7.824219 14.03125 8 14.03125 Z M 8 2 "/>
<path style=" stroke:none;fill-rule:nonzero;fill:rgb(100%,65.490198%,14.901961%);fill-opacity:1;" d="M 8 2 L 8 14.03125 C 8.175781 14.03125 8.351562 14.003906 8.480469 13.945312 C 10.882812 12.84375 12.558594 10.261719 13.402344 7.371094 C 13.765625 6.128906 13.976562 4.832031 14.019531 3.570312 C 14.03125 3.28125 13.8125 2.96875 13.539062 2.878906 C 11.746094 2.292969 9.875 2 8 2 Z M 8 2 "/>
<path style=" stroke:none;fill-rule:nonzero;fill:rgb(100%,100%,100%);fill-opacity:0.4;" d="M 8 2 L 8 2.25 C 6.125 2.25 4.253906 2.542969 2.460938 3.128906 C 2.222656 3.207031 2.027344 3.457031 1.984375 3.707031 C 1.984375 3.660156 1.980469 3.613281 1.980469 3.566406 C 1.96875 3.28125 2.1875 2.96875 2.460938 2.878906 C 4.253906 2.292969 6.125 2 8 2 Z M 8 2 "/>
<path style=" stroke:none;fill-rule:nonzero;fill:rgb(100%,100%,100%);fill-opacity:0.4;" d="M 8 2 C 9.875 2 11.746094 2.292969 13.539062 2.878906 C 13.8125 2.96875 14.03125 3.28125 14.019531 3.566406 C 14.019531 3.613281 14.015625 3.660156 14.015625 3.707031 C 13.972656 3.457031 13.777344 3.207031 13.539062 3.128906 C 11.746094 2.542969 9.875 2.25 8 2.25 Z M 8 2 "/>
<path style=" stroke:none;fill-rule:nonzero;fill:rgb(0%,0%,0%);fill-opacity:0.4;" d="M 14.015625 3.6875 C 13.832031 7.855469 11.878906 12.386719 8.480469 13.941406 C 8.351562 14.003906 8.175781 14.03125 8 14.03125 L 8 14.25 C 8.175781 14.25 8.351562 14.21875 8.480469 14.160156 C 11.910156 12.589844 13.871094 7.984375 14.019531 3.785156 C 14.023438 3.753906 14.019531 3.722656 14.015625 3.6875 Z M 14.015625 3.6875 "/>
<path style=" stroke:none;fill-rule:nonzero;fill:rgb(0%,0%,0%);fill-opacity:0.4;" d="M 1.984375 3.6875 C 1.980469 3.722656 1.976562 3.753906 1.980469 3.785156 C 2.128906 7.984375 4.089844 12.589844 7.519531 14.160156 C 7.648438 14.21875 7.824219 14.25 8 14.25 L 8 14.03125 C 7.824219 14.03125 7.648438 14.003906 7.519531 13.941406 C 4.121094 12.386719 2.167969 7.855469 1.984375 3.6875 Z M 1.984375 3.6875 "/>
<path style=" stroke:none;fill-rule:nonzero;fill:rgb(100%,100%,100%);fill-opacity:0.4;" d="M 3.445312 3.238281 C 3.296875 3.285156 3.148438 3.328125 3 3.378906 C 2.753906 3.457031 2.554688 3.742188 2.566406 4 C 2.582031 4.425781 2.617188 4.859375 2.671875 5.289062 C 2.828125 5.246094 2.996094 5.199219 3.160156 5.15625 C 3.132812 4.902344 3.117188 4.652344 3.109375 4.402344 C 3.101562 4.167969 3.277344 3.914062 3.5 3.839844 C 3.585938 3.8125 3.671875 3.785156 3.757812 3.761719 Z M 3.445312 3.238281 "/>
<path style=" stroke:none;fill-rule:nonzero;fill:url(#linear0);" d="M 1.5 2.050781 C 5.660156 0.691406 10.199219 0.691406 14.359375 2.050781 C 14.675781 2.15625 14.929688 2.519531 14.917969 2.851562 C 14.742188 7.726562 12.472656 13.070312 8.488281 14.894531 C 8.183594 15.035156 7.675781 15.035156 7.371094 14.894531 C 3.386719 13.070312 1.113281 7.726562 0.941406 2.851562 C 0.929688 2.519531 1.183594 2.15625 1.5 2.050781 Z M 1.5 2.050781 "/>
<path style=" stroke:none;fill-rule:nonzero;fill:rgb(56.470591%,64.313728%,68.235296%);fill-opacity:1;" d="M 10.371094 4.214844 L 11.785156 5.628906 L 10.015625 6.691406 L 9.308594 5.984375 Z M 10.371094 4.214844 "/>
<path style=" stroke:none;fill-rule:nonzero;fill:rgb(38.039216%,38.039216%,38.039216%);fill-opacity:1;" d="M 13.199219 2.09375 L 13.90625 2.800781 L 11.429688 5.277344 L 10.722656 4.570312 Z M 13.199219 2.09375 "/>
<path style=" stroke:none;fill-rule:nonzero;fill:rgb(100%,100%,100%);fill-opacity:0.4;" d="M 13.199219 2.09375 L 10.722656 4.570312 L 10.800781 4.648438 L 13.199219 2.25 L 13.828125 2.878906 L 13.90625 2.800781 Z M 13.199219 2.09375 "/>
<path style=" stroke:none;fill-rule:nonzero;fill:rgb(0%,0%,0%);fill-opacity:0.4;" d="M 13.816406 2.714844 L 11.429688 5.101562 L 10.8125 4.480469 L 10.722656 4.570312 L 11.429688 5.277344 L 13.90625 2.800781 Z M 13.816406 2.714844 "/>
<path style=" stroke:none;fill-rule:nonzero;fill:rgb(38.039216%,38.039216%,38.039216%);fill-opacity:1;" d="M 10.015625 3.15625 L 12.84375 5.984375 L 12.492188 6.339844 L 9.660156 3.507812 Z M 10.015625 3.15625 "/>
<path style=" stroke:none;fill-rule:nonzero;fill:rgb(100%,100%,100%);fill-opacity:0.4;" d="M 10.015625 3.15625 L 9.664062 3.507812 L 9.710938 3.554688 L 10.015625 3.25 L 12.796875 6.03125 L 12.84375 5.984375 Z M 10.015625 3.15625 "/>
<path style=" stroke:none;fill-rule:nonzero;fill:rgb(45.882353%,45.882353%,45.882353%);fill-opacity:0.996078;" d="M 13.375 5.808594 C 13.667969 6.101562 13.667969 6.574219 13.375 6.867188 C 13.082031 7.160156 12.605469 7.160156 12.3125 6.867188 C 12.019531 6.574219 12.019531 6.101562 12.3125 5.808594 C 12.605469 5.515625 13.082031 5.515625 13.375 5.808594 Z M 13.375 5.808594 "/>
<path style=" stroke:none;fill-rule:nonzero;fill:rgb(45.882353%,45.882353%,45.882353%);fill-opacity:0.996078;" d="M 10.191406 2.625 C 10.484375 2.917969 10.484375 3.394531 10.191406 3.6875 C 9.898438 3.980469 9.425781 3.980469 9.132812 3.6875 C 8.839844 3.394531 8.839844 2.917969 9.132812 2.625 C 9.425781 2.332031 9.898438 2.332031 10.191406 2.625 Z M 10.191406 2.625 "/>
<path style=" stroke:none;fill-rule:nonzero;fill:rgb(81.176472%,84.705883%,86.274511%);fill-opacity:1;" d="M 10.371094 4.214844 L 1.355469 13.230469 L 1 15 L 10.015625 5.984375 Z M 10.371094 4.214844 "/>
<path style=" stroke:none;fill-rule:nonzero;fill:rgb(45.882353%,45.882353%,45.882353%);fill-opacity:0.996078;" d="M 14.613281 1.386719 C 15.003906 1.777344 15.003906 2.410156 14.613281 2.800781 C 14.222656 3.191406 13.589844 3.191406 13.199219 2.800781 C 12.808594 2.410156 12.808594 1.777344 13.199219 1.386719 C 13.589844 0.996094 14.222656 0.996094 14.613281 1.386719 Z M 14.613281 1.386719 "/>
<path style=" stroke:none;fill-rule:nonzero;fill:rgb(100%,100%,100%);fill-opacity:0.4;" d="M 10.367188 4.21875 L 1.351562 13.234375 L 1 15 L 1.070312 14.929688 L 1.351562 13.515625 L 10.296875 4.570312 Z M 10.367188 4.21875 "/>
<path style=" stroke:none;fill-rule:nonzero;fill:rgb(69.01961%,74.509805%,77.254903%);fill-opacity:1;" d="M 11.785156 5.628906 L 2.769531 14.644531 L 1 15 L 10.015625 5.984375 Z M 11.785156 5.628906 "/>
<path style=" stroke:none;fill-rule:nonzero;fill:rgb(100%,100%,100%);fill-opacity:0.4;" d="M 13.90625 1.09375 C 13.648438 1.09375 13.394531 1.191406 13.199219 1.386719 C 12.964844 1.621094 12.871094 1.933594 12.914062 2.234375 C 12.941406 2.027344 13.039062 1.828125 13.199219 1.667969 C 13.589844 1.277344 14.21875 1.277344 14.613281 1.667969 C 14.773438 1.828125 14.867188 2.027344 14.894531 2.234375 C 14.9375 1.933594 14.84375 1.621094 14.613281 1.386719 C 14.414062 1.191406 14.160156 1.09375 13.90625 1.09375 Z M 13.90625 1.09375 "/>
<path style=" stroke:none;fill-rule:nonzero;fill:rgb(0%,0%,0%);fill-opacity:0.4;" d="M 12.9375 2.355469 L 12.90625 2.390625 C 12.90625 2.640625 13.003906 2.890625 13.199219 3.082031 C 13.273438 3.15625 13.355469 3.21875 13.445312 3.261719 L 13.644531 3.0625 C 13.480469 3.015625 13.328125 2.929688 13.199219 2.800781 C 13.070312 2.671875 12.980469 2.519531 12.9375 2.355469 Z M 12.9375 2.355469 "/>
<path style=" stroke:none;fill-rule:nonzero;fill:rgb(0%,0%,0%);fill-opacity:0.4;" d="M 10.367188 4.21875 L 10.296875 4.289062 L 11.710938 5.703125 L 11.78125 5.632812 Z M 10.367188 4.21875 "/>
<path style=" stroke:none;fill-rule:nonzero;fill:rgb(100%,100%,100%);fill-opacity:0.4;" d="M 12.828125 5.585938 C 12.640625 5.59375 12.457031 5.664062 12.3125 5.808594 C 12.148438 5.972656 12.074219 6.199219 12.097656 6.414062 C 12.113281 6.25 12.1875 6.089844 12.3125 5.960938 C 12.605469 5.667969 13.082031 5.667969 13.375 5.960938 C 13.5 6.089844 13.574219 6.25 13.589844 6.414062 C 13.613281 6.199219 13.542969 5.972656 13.375 5.808594 C 13.222656 5.65625 13.023438 5.582031 12.828125 5.585938 Z M 12.828125 5.585938 "/>
<path style=" stroke:none;fill-rule:nonzero;fill:rgb(100%,100%,100%);fill-opacity:0.4;" d="M 9.644531 2.40625 C 9.457031 2.410156 9.273438 2.484375 9.132812 2.625 C 8.964844 2.792969 8.894531 3.015625 8.914062 3.234375 C 8.933594 3.066406 9.003906 2.90625 9.132812 2.78125 C 9.425781 2.488281 9.898438 2.488281 10.191406 2.78125 C 10.320312 2.90625 10.390625 3.066406 10.410156 3.234375 C 10.429688 3.015625 10.359375 2.792969 10.191406 2.625 C 10.039062 2.472656 9.839844 2.402344 9.644531 2.40625 Z M 9.644531 2.40625 "/>
<path style=" stroke:none;fill-rule:nonzero;fill:rgb(0%,0%,0%);fill-opacity:0.4;" d="M 12.097656 6.265625 C 12.074219 6.480469 12.148438 6.703125 12.3125 6.867188 C 12.605469 7.160156 13.082031 7.160156 13.375 6.867188 C 13.539062 6.703125 13.613281 6.480469 13.589844 6.265625 C 13.574219 6.429688 13.503906 6.59375 13.375 6.71875 C 13.082031 7.011719 12.605469 7.011719 12.3125 6.71875 C 12.1875 6.59375 12.113281 6.429688 12.097656 6.265625 Z M 12.097656 6.265625 "/>
<path style=" stroke:none;fill-rule:nonzero;fill:rgb(0%,0%,0%);fill-opacity:0.4;" d="M 8.914062 3.082031 C 8.894531 3.296875 8.964844 3.519531 9.132812 3.6875 C 9.425781 3.980469 9.898438 3.980469 10.191406 3.6875 C 10.359375 3.519531 10.429688 3.296875 10.410156 3.082031 C 10.390625 3.246094 10.320312 3.410156 10.191406 3.539062 C 9.898438 3.832031 9.425781 3.832031 9.132812 3.539062 C 9.003906 3.410156 8.929688 3.246094 8.914062 3.082031 Z M 8.914062 3.082031 "/>
<path style=" stroke:none;fill-rule:nonzero;fill:rgb(74.117649%,74.117649%,74.117649%);fill-opacity:0.4;" d="M 9.535156 2.660156 C 9.585938 2.710938 9.546875 2.828125 9.449219 2.925781 C 9.351562 3.023438 9.230469 3.0625 9.183594 3.015625 C 9.132812 2.964844 9.171875 2.847656 9.269531 2.75 C 9.367188 2.652344 9.488281 2.613281 9.535156 2.660156 Z M 9.535156 2.660156 "/>
<path style=" stroke:none;fill-rule:nonzero;fill:rgb(74.117649%,74.117649%,74.117649%);fill-opacity:0.4;" d="M 12.839844 5.839844 C 12.886719 5.886719 12.847656 6.007812 12.75 6.105469 C 12.652344 6.203125 12.535156 6.242188 12.484375 6.191406 C 12.4375 6.144531 12.476562 6.023438 12.574219 5.925781 C 12.671875 5.828125 12.789062 5.789062 12.839844 5.839844 Z M 12.839844 5.839844 "/>
<path style=" stroke:none;fill-rule:nonzero;fill:rgb(74.117649%,74.117649%,74.117649%);fill-opacity:0.4;" d="M 13.714844 1.464844 C 13.761719 1.511719 13.722656 1.632812 13.625 1.730469 C 13.527344 1.828125 13.410156 1.867188 13.359375 1.816406 C 13.3125 1.769531 13.351562 1.648438 13.449219 1.550781 C 13.546875 1.453125 13.664062 1.414062 13.714844 1.464844 Z M 13.714844 1.464844 "/>
<path style=" stroke:none;fill-rule:nonzero;fill:rgb(0%,0%,0%);fill-opacity:0.4;" d="M 11.78125 5.632812 L 11.464844 5.695312 L 2.765625 14.390625 L 1.320312 14.679688 L 1 15 L 2.765625 14.648438 Z M 11.78125 5.632812 "/>
<path style=" stroke:none;fill-rule:nonzero;fill:rgb(56.470591%,64.313728%,68.235296%);fill-opacity:1;" d="M 5.628906 4.214844 L 4.214844 5.628906 L 5.984375 6.691406 L 6.691406 5.984375 Z M 5.628906 4.214844 "/>
<path style=" stroke:none;fill-rule:nonzero;fill:rgb(38.039216%,38.039216%,38.039216%);fill-opacity:1;" d="M 2.800781 2.09375 L 2.09375 2.800781 L 4.570312 5.277344 L 5.277344 4.570312 Z M 2.800781 2.09375 "/>
<path style=" stroke:none;fill-rule:nonzero;fill:rgb(100%,100%,100%);fill-opacity:0.4;" d="M 2.800781 2.09375 L 5.277344 4.570312 L 5.199219 4.648438 L 2.800781 2.25 L 2.171875 2.878906 L 2.09375 2.800781 Z M 2.800781 2.09375 "/>
<path style=" stroke:none;fill-rule:nonzero;fill:rgb(0%,0%,0%);fill-opacity:0.4;" d="M 2.183594 2.714844 L 4.570312 5.101562 L 5.1875 4.480469 L 5.277344 4.570312 L 4.570312 5.277344 L 2.09375 2.800781 Z M 2.183594 2.714844 "/>
<path style=" stroke:none;fill-rule:nonzero;fill:rgb(38.039216%,38.039216%,38.039216%);fill-opacity:1;" d="M 5.984375 3.15625 L 3.15625 5.984375 L 3.507812 6.339844 L 6.339844 3.507812 Z M 5.984375 3.15625 "/>
<path style=" stroke:none;fill-rule:nonzero;fill:rgb(100%,100%,100%);fill-opacity:0.4;" d="M 5.984375 3.15625 L 6.335938 3.507812 L 6.289062 3.554688 L 5.984375 3.25 L 3.203125 6.03125 L 3.15625 5.984375 Z M 5.984375 3.15625 "/>
<path style=" stroke:none;fill-rule:nonzero;fill:rgb(45.882353%,45.882353%,45.882353%);fill-opacity:0.996078;" d="M 2.625 5.808594 C 2.332031 6.101562 2.332031 6.574219 2.625 6.867188 C 2.917969 7.160156 3.394531 7.160156 3.6875 6.867188 C 3.980469 6.574219 3.980469 6.101562 3.6875 5.808594 C 3.394531 5.515625 2.917969 5.515625 2.625 5.808594 Z M 2.625 5.808594 "/>
<path style=" stroke:none;fill-rule:nonzero;fill:rgb(45.882353%,45.882353%,45.882353%);fill-opacity:0.996078;" d="M 5.808594 2.625 C 5.515625 2.917969 5.515625 3.394531 5.808594 3.6875 C 6.101562 3.980469 6.574219 3.980469 6.867188 3.6875 C 7.160156 3.394531 7.160156 2.917969 6.867188 2.625 C 6.574219 2.332031 6.101562 2.332031 5.808594 2.625 Z M 5.808594 2.625 "/>
<path style=" stroke:none;fill-rule:nonzero;fill:rgb(81.176472%,84.705883%,86.274511%);fill-opacity:1;" d="M 5.628906 4.214844 L 14.644531 13.230469 L 15 15 L 5.984375 5.984375 Z M 5.628906 4.214844 "/>
<path style=" stroke:none;fill-rule:nonzero;fill:rgb(45.882353%,45.882353%,45.882353%);fill-opacity:0.996078;" d="M 1.386719 1.386719 C 0.996094 1.777344 0.996094 2.410156 1.386719 2.800781 C 1.777344 3.191406 2.410156 3.191406 2.800781 2.800781 C 3.191406 2.410156 3.191406 1.777344 2.800781 1.386719 C 2.410156 0.996094 1.777344 0.996094 1.386719 1.386719 Z M 1.386719 1.386719 "/>
<path style=" stroke:none;fill-rule:nonzero;fill:rgb(100%,100%,100%);fill-opacity:0.4;" d="M 5.632812 4.21875 L 14.648438 13.234375 L 15 15 L 14.929688 14.929688 L 14.648438 13.515625 L 5.703125 4.570312 Z M 5.632812 4.21875 "/>
<path style=" stroke:none;fill-rule:nonzero;fill:rgb(69.01961%,74.509805%,77.254903%);fill-opacity:1;" d="M 4.214844 5.628906 L 13.230469 14.644531 L 15 15 L 5.984375 5.984375 Z M 4.214844 5.628906 "/>
<path style=" stroke:none;fill-rule:nonzero;fill:rgb(100%,100%,100%);fill-opacity:0.4;" d="M 2.09375 1.09375 C 2.351562 1.09375 2.605469 1.191406 2.800781 1.386719 C 3.035156 1.621094 3.128906 1.933594 3.085938 2.234375 C 3.058594 2.027344 2.960938 1.828125 2.800781 1.667969 C 2.410156 1.277344 1.78125 1.277344 1.386719 1.667969 C 1.226562 1.828125 1.132812 2.027344 1.105469 2.234375 C 1.0625 1.933594 1.15625 1.621094 1.386719 1.386719 C 1.585938 1.191406 1.839844 1.09375 2.09375 1.09375 Z M 2.09375 1.09375 "/>
<path style=" stroke:none;fill-rule:nonzero;fill:rgb(0%,0%,0%);fill-opacity:0.4;" d="M 3.0625 2.355469 L 3.09375 2.390625 C 3.09375 2.640625 2.996094 2.890625 2.800781 3.082031 C 2.726562 3.15625 2.644531 3.21875 2.554688 3.261719 L 2.355469 3.0625 C 2.519531 3.015625 2.671875 2.929688 2.800781 2.800781 C 2.929688 2.671875 3.019531 2.519531 3.0625 2.355469 Z M 3.0625 2.355469 "/>
<path style=" stroke:none;fill-rule:nonzero;fill:rgb(0%,0%,0%);fill-opacity:0.4;" d="M 5.632812 4.21875 L 5.703125 4.289062 L 4.289062 5.703125 L 4.21875 5.632812 Z M 5.632812 4.21875 "/>
<path style=" stroke:none;fill-rule:nonzero;fill:rgb(100%,100%,100%);fill-opacity:0.4;" d="M 3.171875 5.585938 C 3.359375 5.59375 3.542969 5.664062 3.6875 5.808594 C 3.851562 5.972656 3.925781 6.199219 3.902344 6.414062 C 3.886719 6.25 3.8125 6.089844 3.6875 5.960938 C 3.394531 5.667969 2.917969 5.667969 2.625 5.960938 C 2.5 6.089844 2.425781 6.25 2.410156 6.414062 C 2.386719 6.199219 2.457031 5.972656 2.625 5.808594 C 2.777344 5.65625 2.976562 5.582031 3.171875 5.585938 Z M 3.171875 5.585938 "/>
<path style=" stroke:none;fill-rule:nonzero;fill:rgb(100%,100%,100%);fill-opacity:0.4;" d="M 6.355469 2.40625 C 6.542969 2.410156 6.726562 2.484375 6.867188 2.625 C 7.035156 2.792969 7.105469 3.015625 7.085938 3.234375 C 7.066406 3.066406 6.996094 2.90625 6.867188 2.78125 C 6.574219 2.488281 6.101562 2.488281 5.808594 2.78125 C 5.679688 2.90625 5.609375 3.066406 5.589844 3.234375 C 5.570312 3.015625 5.640625 2.792969 5.808594 2.625 C 5.960938 2.472656 6.160156 2.402344 6.355469 2.40625 Z M 6.355469 2.40625 "/>
<path style=" stroke:none;fill-rule:nonzero;fill:rgb(0%,0%,0%);fill-opacity:0.4;" d="M 3.902344 6.265625 C 3.925781 6.480469 3.851562 6.703125 3.6875 6.867188 C 3.394531 7.160156 2.917969 7.160156 2.625 6.867188 C 2.460938 6.703125 2.386719 6.480469 2.410156 6.265625 C 2.425781 6.429688 2.496094 6.59375 2.625 6.71875 C 2.917969 7.011719 3.394531 7.011719 3.6875 6.71875 C 3.8125 6.59375 3.886719 6.429688 3.902344 6.265625 Z M 3.902344 6.265625 "/>
<path style=" stroke:none;fill-rule:nonzero;fill:rgb(0%,0%,0%);fill-opacity:0.4;" d="M 7.085938 3.082031 C 7.105469 3.296875 7.035156 3.519531 6.867188 3.6875 C 6.574219 3.980469 6.101562 3.980469 5.808594 3.6875 C 5.640625 3.519531 5.570312 3.296875 5.589844 3.082031 C 5.609375 3.246094 5.679688 3.410156 5.808594 3.539062 C 6.101562 3.832031 6.574219 3.832031 6.867188 3.539062 C 6.996094 3.410156 7.070312 3.246094 7.085938 3.082031 Z M 7.085938 3.082031 "/>
<path style=" stroke:none;fill-rule:nonzero;fill:rgb(74.117649%,74.117649%,74.117649%);fill-opacity:0.4;" d="M 6.285156 2.660156 C 6.335938 2.710938 6.296875 2.828125 6.199219 2.925781 C 6.101562 3.023438 5.980469 3.0625 5.933594 3.015625 C 5.882812 2.964844 5.921875 2.847656 6.019531 2.75 C 6.117188 2.652344 6.238281 2.613281 6.285156 2.660156 Z M 6.285156 2.660156 "/>
<path style=" stroke:none;fill-rule:nonzero;fill:rgb(74.117649%,74.117649%,74.117649%);fill-opacity:0.4;" d="M 3.035156 5.839844 C 3.085938 5.886719 3.046875 6.007812 2.949219 6.105469 C 2.851562 6.203125 2.730469 6.242188 2.683594 6.191406 C 2.632812 6.144531 2.671875 6.023438 2.769531 5.925781 C 2.867188 5.828125 2.988281 5.789062 3.035156 5.839844 Z M 3.035156 5.839844 "/>
<path style=" stroke:none;fill-rule:nonzero;fill:rgb(74.117649%,74.117649%,74.117649%);fill-opacity:0.4;" d="M 1.859375 1.464844 C 1.90625 1.511719 1.867188 1.632812 1.769531 1.730469 C 1.671875 1.828125 1.554688 1.867188 1.503906 1.816406 C 1.457031 1.769531 1.496094 1.648438 1.59375 1.550781 C 1.691406 1.453125 1.808594 1.414062 1.859375 1.464844 Z M 1.859375 1.464844 "/>
<path style=" stroke:none;fill-rule:nonzero;fill:rgb(0%,0%,0%);fill-opacity:0.4;" d="M 4.21875 5.632812 L 4.535156 5.695312 L 13.234375 14.390625 L 14.679688 14.679688 L 15 15 L 13.234375 14.648438 Z M 4.21875 5.632812 "/>
<path style=" stroke:none;fill-rule:nonzero;fill:url(#linear1);" d="M 2.09375 1.09375 C 1.839844 1.09375 1.585938 1.191406 1.386719 1.386719 C 0.996094 1.78125 0.996094 2.410156 1.386719 2.800781 C 1.652344 3.066406 2.019531 3.152344 2.355469 3.0625 L 4.214844 4.921875 L 3.480469 5.660156 C 3.199219 5.527344 2.855469 5.574219 2.625 5.808594 C 2.332031 6.101562 2.332031 6.574219 2.625 6.867188 C 2.917969 7.160156 3.390625 7.160156 3.6875 6.867188 C 3.917969 6.636719 3.96875 6.292969 3.832031 6.015625 L 4.214844 5.632812 L 6.585938 8 L 1.351562 13.230469 L 1 15 L 2.765625 14.644531 L 8 9.414062 L 13.230469 14.644531 L 15 15 L 14.644531 13.230469 L 9.414062 8 L 11.78125 5.632812 L 12.167969 6.015625 C 12.03125 6.292969 12.082031 6.636719 12.3125 6.867188 C 12.605469 7.160156 13.082031 7.160156 13.375 6.867188 C 13.667969 6.574219 13.667969 6.101562 13.375 5.808594 C 13.144531 5.574219 12.800781 5.527344 12.519531 5.660156 L 11.78125 4.921875 L 13.644531 3.0625 C 13.980469 3.152344 14.347656 3.066406 14.613281 2.800781 C 15.003906 2.410156 15.003906 1.78125 14.613281 1.386719 C 14.21875 0.996094 13.589844 0.996094 13.195312 1.386719 C 12.933594 1.652344 12.847656 2.019531 12.9375 2.355469 L 11.074219 4.21875 L 10.339844 3.480469 C 10.472656 3.199219 10.425781 2.855469 10.191406 2.625 C 9.898438 2.332031 9.425781 2.332031 9.132812 2.625 C 8.839844 2.917969 8.839844 3.394531 9.132812 3.6875 C 9.363281 3.917969 9.707031 3.96875 9.984375 3.832031 L 10.367188 4.21875 L 8 6.585938 L 5.628906 4.21875 L 6.015625 3.832031 C 6.292969 3.96875 6.636719 3.917969 6.867188 3.6875 C 7.160156 3.394531 7.160156 2.917969 6.867188 2.625 C 6.574219 2.332031 6.101562 2.332031 5.808594 2.625 C 5.574219 2.855469 5.527344 3.199219 5.660156 3.480469 L 4.921875 4.21875 L 3.0625 2.355469 C 3.152344 2.019531 3.066406 1.652344 2.800781 1.386719 C 2.605469 1.191406 2.351562 1.09375 2.09375 1.09375 Z M 2.09375 1.09375 "/>
<path style=" stroke:none;fill-rule:nonzero;fill:rgb(0%,0%,0%);fill-opacity:0.2;" d="M 12.921875 2.28125 C 12.914062 2.316406 12.910156 2.351562 12.90625 2.382812 L 12.9375 2.355469 C 12.929688 2.332031 12.925781 2.304688 12.921875 2.28125 Z M 3.078125 2.28125 C 3.074219 2.304688 3.070312 2.332031 3.0625 2.355469 L 3.09375 2.386719 C 3.089844 2.351562 3.085938 2.316406 3.078125 2.28125 Z M 1.113281 2.28125 C 1.050781 2.597656 1.144531 2.933594 1.386719 3.175781 C 1.652344 3.441406 2.019531 3.527344 2.355469 3.4375 L 4.03125 5.109375 L 4.21875 4.921875 L 2.355469 3.0625 C 2.019531 3.152344 1.652344 3.066406 1.386719 2.800781 C 1.242188 2.65625 1.148438 2.472656 1.113281 2.28125 Z M 14.886719 2.28125 C 14.851562 2.472656 14.757812 2.65625 14.613281 2.800781 C 14.347656 3.066406 13.980469 3.152344 13.644531 3.0625 L 11.78125 4.921875 L 11.96875 5.109375 L 13.644531 3.4375 C 13.980469 3.527344 14.347656 3.441406 14.613281 3.175781 C 14.855469 2.933594 14.949219 2.597656 14.886719 2.28125 Z M 5.609375 3.34375 C 5.59375 3.410156 5.585938 3.480469 5.589844 3.550781 L 5.660156 3.480469 C 5.640625 3.433594 5.625 3.390625 5.609375 3.34375 Z M 10.390625 3.34375 C 10.375 3.390625 10.359375 3.433594 10.339844 3.480469 L 10.410156 3.550781 C 10.414062 3.480469 10.40625 3.410156 10.390625 3.34375 Z M 7.0625 3.34375 C 7.03125 3.46875 6.964844 3.589844 6.867188 3.6875 C 6.636719 3.917969 6.292969 3.96875 6.015625 3.832031 L 5.632812 4.21875 L 5.820312 4.40625 L 6.015625 4.207031 C 6.292969 4.34375 6.636719 4.292969 6.867188 4.0625 C 7.0625 3.867188 7.128906 3.59375 7.0625 3.34375 Z M 8.9375 3.34375 C 8.871094 3.59375 8.9375 3.867188 9.132812 4.0625 C 9.363281 4.292969 9.707031 4.34375 9.984375 4.207031 L 10.179688 4.40625 L 10.367188 4.21875 L 9.984375 3.832031 C 9.707031 3.96875 9.363281 3.917969 9.132812 3.6875 C 9.035156 3.589844 8.96875 3.46875 8.9375 3.34375 Z M 4.214844 5.632812 L 3.832031 6.015625 C 3.878906 6.109375 3.902344 6.210938 3.90625 6.316406 L 4.214844 6.007812 L 6.398438 8.1875 L 6.585938 8 Z M 11.78125 5.632812 L 9.414062 8 L 9.601562 8.1875 L 11.78125 6.007812 L 12.09375 6.316406 C 12.097656 6.214844 12.121094 6.109375 12.167969 6.015625 Z M 2.429688 6.523438 C 2.367188 6.773438 2.429688 7.046875 2.625 7.242188 C 2.917969 7.535156 3.390625 7.535156 3.6875 7.242188 C 3.882812 7.046875 3.945312 6.773438 3.882812 6.523438 C 3.851562 6.652344 3.785156 6.769531 3.6875 6.867188 C 3.390625 7.160156 2.917969 7.160156 2.625 6.867188 C 2.527344 6.769531 2.460938 6.652344 2.429688 6.523438 Z M 13.570312 6.523438 C 13.539062 6.652344 13.472656 6.769531 13.375 6.867188 C 13.082031 7.160156 12.605469 7.160156 12.3125 6.867188 C 12.214844 6.769531 12.148438 6.652344 12.117188 6.527344 C 12.054688 6.773438 12.117188 7.046875 12.3125 7.242188 C 12.605469 7.535156 13.082031 7.535156 13.375 7.242188 C 13.570312 7.046875 13.632812 6.773438 13.570312 6.523438 Z M 8 9.414062 L 2.765625 14.648438 L 1.078125 14.984375 L 1 15.375 L 2.765625 15.023438 L 8 9.789062 L 13.230469 15.023438 L 15 15.375 L 14.921875 14.984375 L 13.230469 14.648438 Z M 8 9.414062 "/>
</g>
</svg>
