
<svg xmlns="http://www.w3.org/2000/svg" xmlns:xlink="http://www.w3.org/1999/xlink" width="24" height="24" viewBox="0 0 24 24" version="1.1">
<defs>
<linearGradient id="linear0" gradientUnits="userSpaceOnUse" x1="31.999998" y1="60" x2="31.999998" y2="4" gradientTransform="matrix(0.375,0,0,0.375,0,0.000000000000042633)">
<stop offset="0" style="stop-color:rgb(0%,0%,0%);stop-opacity:0.2;"/>
<stop offset="1" style="stop-color:rgb(100%,100%,100%);stop-opacity:0;"/>
</linearGradient>
</defs>
<g id="surface1">
<path style=" stroke:none;fill-rule:nonzero;fill:rgb(38.039216%,38.039216%,38.039216%);fill-opacity:1;" d="M 12 1.496094 C 6.183594 1.496094 1.496094 6.179688 1.496094 12 L 8.25 12 C 8.25 9.921875 9.921875 8.25 12 8.25 Z M 15.75 12 C 15.75 14.078125 14.078125 15.75 12 15.75 L 12 22.5 C 17.816406 22.5 22.5 17.816406 22.5 12 Z M 15.75 12 "/>
<path style=" stroke:none;fill-rule:nonzero;fill:rgb(0%,0%,0%);fill-opacity:0.4;" d="M 12 7.875 C 9.921875 7.875 8.25 9.546875 8.25 11.625 L 1.507812 11.625 C 1.503906 11.75 1.496094 11.875 1.496094 12 L 8.25 12 C 8.25 9.921875 9.921875 8.25 12 8.25 Z M 22.492188 12 C 22.296875 17.644531 17.691406 22.125 12 22.125 L 12 22.5 C 17.816406 22.5 22.5 17.816406 22.5 12 Z M 22.492188 12 "/>
<path style=" stroke:none;fill-rule:nonzero;fill:rgb(100%,100%,100%);fill-opacity:0.4;" d="M 12 1.496094 C 6.183594 1.496094 1.496094 6.179688 1.496094 12 L 1.503906 12 C 1.703125 6.359375 6.308594 1.875 12 1.875 Z M 15.75 12 C 15.75 14.078125 14.078125 15.75 12 15.75 L 12 16.128906 C 14.078125 16.128906 15.75 14.457031 15.75 12.378906 L 22.492188 12.378906 C 22.496094 12.253906 22.5 12.125 22.5 12 Z M 15.75 12 "/>
<path style=" stroke:none;fill-rule:nonzero;fill:rgb(47.058824%,56.470591%,61.176473%);fill-opacity:1;" d="M 12 3.75 C 7.429688 3.75 3.75 7.429688 3.75 12 C 3.75 16.570312 7.429688 20.25 12 20.25 C 16.570312 20.25 20.25 16.570312 20.25 12 L 15.75 12 C 15.75 14.078125 14.078125 15.75 12 15.75 C 9.921875 15.75 8.25 14.078125 8.25 12 C 8.25 9.921875 9.921875 8.25 12 8.25 Z M 12 3.75 "/>
<path style=" stroke:none;fill-rule:nonzero;fill:rgb(100%,100%,100%);fill-opacity:0.4;" d="M 12 3.75 C 7.429688 3.75 3.75 7.429688 3.75 12 C 3.75 12.046875 3.753906 12.09375 3.753906 12.140625 C 3.875 7.679688 7.507812 4.125 12 4.125 Z M 15.75 12 C 15.75 14.078125 14.078125 15.75 12 15.75 C 9.972656 15.75 8.335938 14.15625 8.257812 12.148438 C 8.253906 12.226562 8.25 12.300781 8.25 12.375 C 8.25 14.453125 9.921875 16.125 12 16.125 C 14.078125 16.125 15.75 14.453125 15.75 12.375 L 20.238281 12.375 C 20.246094 12.25 20.25 12.125 20.25 12 Z M 15.75 12 "/>
<path style=" stroke:none;fill-rule:nonzero;fill:rgb(14.901961%,65.098041%,60.392159%);fill-opacity:1;" d="M 12 6 C 8.675781 6 6 8.675781 6 12 C 6 15.324219 8.675781 18 12 18 C 15.324219 18 18 15.324219 18 12 C 18 8.675781 15.324219 6 12 6 Z M 12 8.25 C 14.078125 8.25 15.75 9.921875 15.75 12 C 15.75 14.078125 14.078125 15.75 12 15.75 C 9.921875 15.75 8.25 14.078125 8.25 12 C 8.25 9.921875 9.921875 8.25 12 8.25 Z M 12 8.25 "/>
<path style=" stroke:none;fill-rule:nonzero;fill:rgb(100%,100%,100%);fill-opacity:0.4;" d="M 12 6 C 8.675781 6 6 8.675781 6 12 C 6 12.054688 6.003906 12.109375 6.003906 12.164062 C 6.113281 8.9375 8.746094 6.375 12 6.375 C 15.253906 6.375 17.886719 8.9375 17.996094 12.164062 C 17.996094 12.109375 18 12.054688 18 12 C 18 8.675781 15.324219 6 12 6 Z M 8.253906 12.1875 C 8.253906 12.25 8.25 12.3125 8.25 12.375 C 8.25 14.453125 9.921875 16.125 12 16.125 C 14.078125 16.125 15.75 14.453125 15.75 12.375 C 15.75 12.3125 15.746094 12.25 15.746094 12.1875 C 15.648438 14.175781 14.015625 15.75 12 15.75 C 9.984375 15.75 8.351562 14.175781 8.253906 12.1875 Z M 8.253906 12.1875 "/>
<path style=" stroke:none;fill-rule:nonzero;fill:rgb(0%,0%,0%);fill-opacity:0.4;" d="M 6.003906 12.210938 C 6.003906 12.265625 6 12.320312 6 12.378906 C 6 15.703125 8.675781 18.378906 12 18.378906 C 15.324219 18.378906 18 15.703125 18 12.378906 C 18 12.320312 17.996094 12.265625 17.996094 12.210938 C 17.886719 15.4375 15.253906 18.003906 12 18.003906 C 8.746094 18.003906 6.113281 15.4375 6.003906 12.210938 Z M 6.003906 12.210938 "/>
<path style=" stroke:none;fill-rule:nonzero;fill:rgb(0%,0%,0%);fill-opacity:0.4;" d="M 3.753906 12.1875 C 3.75 12.25 3.75 12.3125 3.75 12.375 C 3.75 16.945312 7.429688 20.625 12 20.625 C 16.570312 20.625 20.25 16.945312 20.25 12.375 L 20.242188 12.375 C 20.046875 16.769531 16.445312 20.25 12 20.25 C 7.492188 20.25 3.851562 16.667969 3.753906 12.1875 Z M 3.753906 12.1875 "/>
<path style=" stroke:none;fill-rule:nonzero;fill:rgb(0%,0%,0%);fill-opacity:0.2;" d="M 12 8.25 C 10.050781 8.25 8.460938 9.71875 8.269531 11.613281 C 8.257812 11.742188 8.25 11.867188 8.25 12 C 8.25 12.09375 8.253906 12.183594 8.261719 12.277344 C 8.261719 12.242188 8.265625 12.210938 8.269531 12.175781 C 8.460938 10.28125 10.050781 8.8125 12 8.8125 C 13.984375 8.8125 15.59375 10.335938 15.738281 12.28125 C 15.746094 12.1875 15.75 12.09375 15.75 12 C 15.75 9.921875 14.078125 8.25 12 8.25 Z M 1.511719 12 C 1.503906 12.183594 1.496094 12.371094 1.496094 12.558594 L 1.496094 12.5625 L 3.75 12.5625 C 3.75 17.128906 7.429688 20.808594 12 20.808594 L 12 20.246094 C 7.429688 20.246094 3.75 16.566406 3.75 12 Z M 22.484375 12.5625 C 22.195312 18.117188 17.628906 22.5 12 22.5 L 12 23.0625 C 17.816406 23.0625 22.5 18.378906 22.5 12.5625 Z M 22.484375 12.5625 "/>
<path style=" stroke:none;fill-rule:nonzero;fill:url(#linear0);" d="M 12 1.496094 C 6.183594 1.496094 1.496094 6.179688 1.496094 12 L 3.75 12 C 3.75 16.570312 7.429688 20.25 12 20.25 L 12 22.5 C 17.816406 22.5 22.5 17.816406 22.5 12 L 18 12 C 18 8.675781 15.324219 6 12 6 Z M 12 8.25 C 14.078125 8.25 15.75 9.921875 15.75 12 C 15.75 14.078125 14.078125 15.75 12 15.75 C 9.921875 15.75 8.25 14.078125 8.25 12 C 8.25 11.871094 8.257812 11.742188 8.269531 11.617188 C 8.460938 9.71875 10.050781 8.25 12 8.25 Z M 12 8.25 "/>
</g>
</svg>
