
<svg xmlns="http://www.w3.org/2000/svg" xmlns:xlink="http://www.w3.org/1999/xlink" width="24" height="24" viewBox="0 0 24 24" version="1.1">
<defs>
<linearGradient id="linear0" gradientUnits="userSpaceOnUse" x1="31.999998" y1="60" x2="31.999998" y2="4" gradientTransform="matrix(0.375,0,0,0.375,-0.00000102047,0.000000000000042633)">
<stop offset="0" style="stop-color:rgb(0%,0%,0%);stop-opacity:0.2;"/>
<stop offset="1" style="stop-color:rgb(100%,100%,100%);stop-opacity:0;"/>
</linearGradient>
</defs>
<g id="surface1">
<path style=" stroke:none;fill-rule:nonzero;fill:rgb(38.039216%,38.039216%,38.039216%);fill-opacity:1;" d="M 15 1.5 L 4.875 1.5 C 4.25 1.5 3.75 2 3.75 2.625 L 3.75 21.375 C 3.75 22 4.25 22.5 4.875 22.5 L 19.125 22.5 C 19.75 22.5 20.25 22 20.25 21.375 L 20.25 6.75 Z M 15 1.5 "/>
<path style=" stroke:none;fill-rule:nonzero;fill:rgb(0%,0%,0%);fill-opacity:0.4;" d="M 15 5.625 L 15 6 C 15 6.625 15.5 7.125 16.125 7.125 L 20.25 7.125 L 19.875 6.75 L 16.125 6.75 C 15.5 6.75 15 6.25 15 5.625 Z M 15 5.625 "/>
<path style=" stroke:none;fill-rule:nonzero;fill:rgb(45.882353%,45.882353%,45.882353%);fill-opacity:0.996078;" d="M 20.25 6.75 L 15 1.5 L 15 5.625 C 15 6.25 15.5 6.75 16.125 6.75 Z M 20.25 6.75 "/>
<path style=" stroke:none;fill-rule:nonzero;fill:rgb(100%,100%,100%);fill-opacity:0.4;" d="M 4.875 1.5 C 4.25 1.5 3.75 2 3.75 2.625 L 3.75 3 C 3.75 2.375 4.25 1.875 4.875 1.875 L 15 1.875 L 20.25 7.125 L 20.25 6.75 L 15 1.5 Z M 4.875 1.5 "/>
<path style=" stroke:none;fill-rule:nonzero;fill:rgb(0%,0%,0%);fill-opacity:0.2;" d="M 3.75 21.371094 L 3.75 21.9375 C 3.75 22.5625 4.25 23.0625 4.875 23.0625 L 19.125 23.0625 C 19.75 23.0625 20.25 22.5625 20.25 21.9375 L 20.25 21.371094 C 20.25 21.992188 19.75 22.496094 19.125 22.496094 L 4.875 22.496094 C 4.25 22.496094 3.75 21.992188 3.75 21.371094 Z M 3.75 21.371094 "/>
<path style=" stroke:none;fill-rule:nonzero;fill:rgb(0%,0%,0%);fill-opacity:0.4;" d="M 3.75 21.046875 L 3.75 21.375 C 3.75 22 4.25 22.5 4.875 22.5 L 19.125 22.5 C 19.75 22.5 20.25 22 20.25 21.375 L 20.25 21.046875 C 20.25 21.671875 19.75 22.171875 19.125 22.171875 L 4.875 22.171875 C 4.25 22.171875 3.75 21.671875 3.75 21.046875 Z M 3.75 21.046875 "/>
<path style=" stroke:none;fill-rule:nonzero;fill:rgb(61.960787%,61.960787%,61.960787%);fill-opacity:1;" d="M 10.960938 9 C 10.519531 9 9.921875 9.359375 9.921875 9.804688 C 9.921875 9.820312 9.921875 9.835938 9.921875 9.851562 C 9.839844 9.820312 9.75 9.804688 9.65625 9.804688 C 9.207031 9.804688 8.851562 10.164062 8.851562 10.609375 C 8.851562 10.714844 8.871094 10.8125 8.90625 10.902344 C 8.566406 10.996094 8.316406 11.308594 8.316406 11.679688 C 8.316406 11.886719 8.390625 12.074219 8.519531 12.214844 C 8.390625 12.355469 8.316406 12.542969 8.316406 12.75 C 8.316406 12.957031 8.390625 13.144531 8.519531 13.285156 C 8.390625 13.429688 8.316406 13.613281 8.316406 13.820312 C 8.316406 14.195312 8.566406 14.503906 8.90625 14.597656 C 8.871094 14.6875 8.851562 14.789062 8.851562 14.890625 C 8.851562 15.253906 9.085938 15.554688 9.410156 15.660156 C 9.515625 16.140625 10.183594 16.5 10.695312 16.5 C 11.195312 16.5 11.613281 16.160156 11.734375 15.695312 C 11.765625 15.429688 11.753906 15.070312 11.765625 14.757812 L 11.765625 9.804688 C 11.765625 9.359375 11.40625 9 10.960938 9 Z M 13.039062 9 C 12.59375 9 12.234375 9.359375 12.234375 9.804688 L 12.234375 14.757812 C 12.246094 15.070312 12.234375 15.429688 12.265625 15.695312 C 12.386719 16.160156 12.804688 16.5 13.304688 16.5 C 13.816406 16.5 14.484375 16.140625 14.589844 15.660156 C 14.914062 15.558594 15.148438 15.253906 15.148438 14.890625 C 15.148438 14.789062 15.128906 14.6875 15.09375 14.597656 C 15.4375 14.503906 15.683594 14.195312 15.683594 13.820312 C 15.683594 13.613281 15.609375 13.429688 15.480469 13.285156 C 15.609375 13.144531 15.683594 12.957031 15.683594 12.75 C 15.683594 12.542969 15.609375 12.355469 15.480469 12.214844 C 15.609375 12.074219 15.683594 11.886719 15.683594 11.679688 C 15.683594 11.308594 15.4375 10.996094 15.09375 10.902344 C 15.128906 10.8125 15.148438 10.714844 15.148438 10.609375 C 15.148438 10.164062 14.792969 9.804688 14.347656 9.804688 C 14.25 9.804688 14.160156 9.820312 14.078125 9.851562 C 14.078125 9.835938 14.078125 9.820312 14.078125 9.804688 C 14.078125 9.359375 13.480469 9 13.039062 9 Z M 13.039062 9 "/>
<path style=" stroke:none;fill-rule:nonzero;fill:rgb(100%,100%,100%);fill-opacity:0.4;" d="M 10.960938 9 C 10.519531 9 9.921875 9.359375 9.921875 9.804688 C 9.921875 9.820312 9.921875 9.835938 9.921875 9.851562 C 9.839844 9.820312 9.75 9.804688 9.65625 9.804688 C 9.210938 9.804688 8.851562 10.160156 8.851562 10.609375 C 8.851562 10.640625 8.855469 10.671875 8.855469 10.703125 C 8.902344 10.300781 9.242188 9.992188 9.65625 9.992188 C 9.75 9.992188 9.839844 10.007812 9.921875 10.039062 C 9.921875 10.023438 9.921875 10.007812 9.921875 9.992188 C 9.921875 9.546875 10.519531 9.1875 10.960938 9.1875 C 11.40625 9.1875 11.765625 9.546875 11.765625 9.992188 L 11.765625 9.804688 C 11.765625 9.359375 11.40625 9 10.960938 9 Z M 13.039062 9 C 12.59375 9 12.234375 9.359375 12.234375 9.804688 L 12.234375 9.992188 C 12.234375 9.546875 12.59375 9.1875 13.039062 9.1875 C 13.480469 9.1875 14.078125 9.546875 14.078125 9.992188 C 14.078125 10.007812 14.078125 10.023438 14.078125 10.039062 C 14.160156 10.007812 14.25 9.992188 14.347656 9.992188 C 14.761719 9.992188 15.097656 10.300781 15.144531 10.699219 C 15.148438 10.667969 15.148438 10.640625 15.148438 10.609375 C 15.148438 10.160156 14.792969 9.804688 14.347656 9.804688 C 14.25 9.804688 14.160156 9.820312 14.078125 9.851562 C 14.078125 9.835938 14.078125 9.820312 14.078125 9.804688 C 14.078125 9.359375 13.480469 9 13.039062 9 Z M 8.859375 10.917969 C 8.542969 11.023438 8.316406 11.324219 8.316406 11.679688 C 8.316406 11.710938 8.316406 11.742188 8.320312 11.769531 C 8.359375 11.441406 8.59375 11.175781 8.90625 11.089844 C 8.882812 11.035156 8.871094 10.980469 8.859375 10.917969 Z M 15.140625 10.917969 C 15.128906 10.980469 15.117188 11.035156 15.09375 11.09375 C 15.40625 11.175781 15.640625 11.445312 15.679688 11.773438 C 15.683594 11.742188 15.683594 11.710938 15.683594 11.679688 C 15.683594 11.324219 15.457031 11.023438 15.140625 10.917969 Z M 8.445312 12.308594 C 8.363281 12.433594 8.316406 12.585938 8.316406 12.75 C 8.316406 12.78125 8.316406 12.8125 8.320312 12.84375 C 8.339844 12.675781 8.410156 12.519531 8.519531 12.402344 C 8.492188 12.371094 8.46875 12.339844 8.445312 12.308594 Z M 15.554688 12.308594 C 15.53125 12.339844 15.507812 12.371094 15.480469 12.402344 C 15.589844 12.519531 15.660156 12.675781 15.679688 12.84375 C 15.683594 12.8125 15.683594 12.78125 15.683594 12.75 C 15.683594 12.585938 15.636719 12.433594 15.554688 12.308594 Z M 8.449219 13.378906 C 8.363281 13.507812 8.316406 13.65625 8.316406 13.820312 C 8.316406 13.855469 8.316406 13.886719 8.320312 13.917969 C 8.339844 13.746094 8.410156 13.59375 8.519531 13.472656 C 8.492188 13.445312 8.46875 13.414062 8.449219 13.378906 Z M 15.554688 13.378906 C 15.53125 13.414062 15.507812 13.445312 15.480469 13.472656 C 15.589844 13.59375 15.660156 13.746094 15.679688 13.914062 C 15.683594 13.882812 15.683594 13.851562 15.683594 13.820312 C 15.683594 13.65625 15.636719 13.507812 15.554688 13.378906 Z M 8.859375 14.769531 C 8.855469 14.808594 8.851562 14.851562 8.851562 14.890625 C 8.851562 14.921875 8.855469 14.953125 8.855469 14.984375 C 8.863281 14.914062 8.882812 14.847656 8.90625 14.785156 C 8.890625 14.78125 8.875 14.773438 8.859375 14.769531 Z M 15.140625 14.769531 C 15.125 14.773438 15.109375 14.777344 15.09375 14.785156 C 15.117188 14.847656 15.136719 14.917969 15.144531 14.988281 C 15.148438 14.957031 15.148438 14.925781 15.148438 14.890625 C 15.148438 14.851562 15.144531 14.808594 15.140625 14.769531 Z M 15.140625 14.769531 "/>
<path style=" stroke:none;fill-rule:nonzero;fill:rgb(0%,0%,0%);fill-opacity:0.4;" d="M 15.144531 10.699219 C 15.136719 10.773438 15.117188 10.839844 15.09375 10.90625 C 15.109375 10.910156 15.125 10.914062 15.140625 10.917969 C 15.148438 10.878906 15.148438 10.839844 15.148438 10.796875 C 15.148438 10.765625 15.148438 10.730469 15.144531 10.699219 Z M 8.855469 10.703125 C 8.855469 10.734375 8.851562 10.765625 8.851562 10.796875 C 8.851562 10.839844 8.855469 10.878906 8.859375 10.917969 C 8.875 10.914062 8.890625 10.910156 8.90625 10.90625 C 8.882812 10.84375 8.863281 10.773438 8.855469 10.703125 Z M 8.320312 11.773438 C 8.316406 11.804688 8.316406 11.835938 8.316406 11.867188 C 8.316406 12.03125 8.363281 12.183594 8.445312 12.308594 C 8.46875 12.277344 8.492188 12.246094 8.519531 12.214844 C 8.410156 12.09375 8.339844 11.941406 8.320312 11.773438 Z M 15.679688 11.773438 C 15.660156 11.941406 15.589844 12.097656 15.480469 12.214844 C 15.507812 12.246094 15.53125 12.277344 15.554688 12.308594 C 15.636719 12.183594 15.683594 12.03125 15.683594 11.867188 C 15.683594 11.835938 15.683594 11.804688 15.679688 11.773438 Z M 8.320312 12.847656 C 8.316406 12.875 8.316406 12.910156 8.316406 12.941406 C 8.316406 13.101562 8.363281 13.253906 8.445312 13.378906 C 8.46875 13.347656 8.492188 13.316406 8.519531 13.285156 C 8.410156 13.167969 8.339844 13.015625 8.320312 12.847656 Z M 15.679688 12.847656 C 15.660156 13.015625 15.589844 13.167969 15.480469 13.285156 C 15.507812 13.316406 15.53125 13.347656 15.554688 13.378906 C 15.636719 13.253906 15.683594 13.101562 15.683594 12.941406 C 15.683594 12.910156 15.683594 12.875 15.679688 12.84375 Z M 15.679688 13.917969 C 15.640625 14.246094 15.40625 14.511719 15.09375 14.597656 C 15.117188 14.652344 15.128906 14.710938 15.140625 14.769531 C 15.457031 14.664062 15.683594 14.367188 15.683594 14.011719 C 15.683594 13.980469 15.683594 13.949219 15.679688 13.917969 Z M 8.320312 13.917969 C 8.316406 13.949219 8.316406 13.980469 8.316406 14.011719 C 8.316406 14.367188 8.542969 14.664062 8.859375 14.769531 C 8.867188 14.710938 8.882812 14.652344 8.90625 14.597656 C 8.59375 14.511719 8.359375 14.246094 8.320312 13.917969 Z M 11.765625 14.757812 C 11.753906 15.070312 11.765625 15.429688 11.734375 15.695312 C 11.613281 16.160156 11.195312 16.5 10.695312 16.5 C 10.179688 16.5 9.515625 16.140625 9.410156 15.660156 C 9.113281 15.566406 8.894531 15.304688 8.855469 14.984375 C 8.855469 15.015625 8.851562 15.050781 8.851562 15.082031 C 8.851562 15.441406 9.085938 15.746094 9.410156 15.847656 C 9.515625 16.332031 10.179688 16.6875 10.695312 16.6875 C 11.195312 16.6875 11.613281 16.347656 11.734375 15.886719 C 11.765625 15.617188 11.753906 15.261719 11.765625 14.949219 Z M 12.234375 14.757812 L 12.234375 14.949219 C 12.246094 15.261719 12.234375 15.617188 12.265625 15.886719 C 12.386719 16.347656 12.804688 16.6875 13.304688 16.6875 C 13.820312 16.6875 14.484375 16.332031 14.589844 15.847656 C 14.914062 15.746094 15.148438 15.441406 15.148438 15.082031 C 15.148438 15.050781 15.148438 15.019531 15.144531 14.988281 C 15.105469 15.308594 14.886719 15.566406 14.589844 15.660156 C 14.484375 16.140625 13.820312 16.5 13.304688 16.5 C 12.804688 16.5 12.386719 16.160156 12.265625 15.695312 C 12.234375 15.429688 12.246094 15.070312 12.234375 14.757812 Z M 12.234375 14.757812 "/>
<path style=" stroke:none;fill-rule:nonzero;fill:url(#linear0);" d="M 15 1.5 L 4.875 1.5 C 4.25 1.5 3.75 2 3.75 2.625 L 3.75 21.375 C 3.75 22 4.25 22.5 4.875 22.5 L 19.125 22.5 C 19.75 22.5 20.25 22 20.25 21.375 L 20.25 6.75 Z M 15 1.5 "/>
</g>
</svg>
