
<svg xmlns="http://www.w3.org/2000/svg" xmlns:xlink="http://www.w3.org/1999/xlink" width="24" height="24" viewBox="0 0 24 24" version="1.1">
<defs>
<linearGradient id="linear0" gradientUnits="userSpaceOnUse" x1="31.999998" y1="60" x2="31.999998" y2="4" gradientTransform="matrix(0.375,0,0,0.375,0,0.000000000000042633)">
<stop offset="0" style="stop-color:rgb(0%,0%,0%);stop-opacity:0.2;"/>
<stop offset="1" style="stop-color:rgb(100%,100%,100%);stop-opacity:0;"/>
</linearGradient>
</defs>
<g id="surface1">
<path style=" stroke:none;fill-rule:nonzero;fill:rgb(100%,65.490198%,14.901961%);fill-opacity:1;" d="M 15 1.5 L 4.875 1.5 C 4.25 1.5 3.75 2 3.75 2.625 L 3.75 21.375 C 3.75 22 4.25 22.5 4.875 22.5 L 19.125 22.5 C 19.75 22.5 20.25 22 20.25 21.375 L 20.25 6.75 Z M 15 1.5 "/>
<path style=" stroke:none;fill-rule:nonzero;fill:rgb(0%,0%,0%);fill-opacity:0.4;" d="M 15 5.625 L 15 6 C 15 6.625 15.5 7.125 16.125 7.125 L 20.25 7.125 L 19.875 6.75 L 16.125 6.75 C 15.5 6.75 15 6.25 15 5.625 Z M 15 5.625 "/>
<path style=" stroke:none;fill-rule:nonzero;fill:rgb(100%,71.764708%,30.19608%);fill-opacity:0.996078;" d="M 20.25 6.75 L 15 1.5 L 15 5.625 C 15 6.25 15.5 6.75 16.125 6.75 Z M 20.25 6.75 "/>
<path style=" stroke:none;fill-rule:nonzero;fill:rgb(100%,100%,100%);fill-opacity:0.4;" d="M 4.875 1.5 C 4.25 1.5 3.75 2 3.75 2.625 L 3.75 3 C 3.75 2.375 4.25 1.875 4.875 1.875 L 15 1.875 L 20.25 7.125 L 20.25 6.75 L 15 1.5 Z M 4.875 1.5 "/>
<path style=" stroke:none;fill-rule:nonzero;fill:rgb(0%,0%,0%);fill-opacity:0.2;" d="M 3.75 21.371094 L 3.75 21.9375 C 3.75 22.5625 4.25 23.0625 4.875 23.0625 L 19.125 23.0625 C 19.75 23.0625 20.25 22.5625 20.25 21.9375 L 20.25 21.371094 C 20.25 21.992188 19.75 22.496094 19.125 22.496094 L 4.875 22.496094 C 4.25 22.496094 3.75 21.992188 3.75 21.371094 Z M 3.75 21.371094 "/>
<path style=" stroke:none;fill-rule:nonzero;fill:rgb(0%,0%,0%);fill-opacity:0.4;" d="M 3.75 21.046875 L 3.75 21.375 C 3.75 22 4.25 22.5 4.875 22.5 L 19.125 22.5 C 19.75 22.5 20.25 22 20.25 21.375 L 20.25 21.046875 C 20.25 21.671875 19.75 22.171875 19.125 22.171875 L 4.875 22.171875 C 4.25 22.171875 3.75 21.671875 3.75 21.046875 Z M 3.75 21.046875 "/>
<path style=" stroke:none;fill-rule:nonzero;fill:rgb(100%,80.000001%,50.196081%);fill-opacity:1;" d="M 11.0625 9 C 10.589844 9 10.210938 9.265625 10.210938 9.597656 C 10.210938 9.9375 11.0625 10.277344 10.210938 10.875 L 8.761719 10.875 C 8.476562 10.875 8.25 11.101562 8.25 11.386719 L 8.25 12.835938 C 8.847656 13.6875 9.1875 12.835938 9.527344 12.835938 C 9.859375 12.835938 10.125 13.214844 10.125 13.6875 C 10.125 14.160156 9.859375 14.539062 9.527344 14.539062 C 9.1875 14.539062 8.847656 13.6875 8.25 14.539062 L 8.25 15.988281 C 8.25 16.273438 8.476562 16.5 8.761719 16.5 L 10.210938 16.5 C 11.0625 15.902344 10.210938 15.5625 10.210938 15.222656 C 10.210938 14.890625 10.589844 14.625 11.0625 14.625 C 11.535156 14.625 11.914062 14.890625 11.914062 15.222656 C 11.914062 15.5625 11.0625 15.902344 11.914062 16.5 L 13.363281 16.5 C 13.648438 16.5 13.875 16.273438 13.875 15.988281 L 13.875 14.539062 C 14.472656 13.6875 14.8125 14.539062 15.152344 14.539062 C 15.484375 14.539062 15.75 14.160156 15.75 13.6875 C 15.75 13.214844 15.484375 12.835938 15.152344 12.835938 C 14.8125 12.835938 14.472656 13.6875 13.875 12.835938 L 13.875 11.386719 C 13.875 11.101562 13.648438 10.875 13.363281 10.875 L 11.914062 10.875 C 11.0625 10.277344 11.914062 9.9375 11.914062 9.597656 C 11.914062 9.265625 11.535156 9 11.0625 9 Z M 11.0625 9 "/>
<path style=" stroke:none;fill-rule:nonzero;fill:rgb(100%,100%,100%);fill-opacity:0.4;" d="M 11.0625 9 C 10.589844 9 10.210938 9.265625 10.210938 9.597656 C 10.210938 9.625 10.214844 9.648438 10.226562 9.675781 C 10.296875 9.398438 10.644531 9.1875 11.0625 9.1875 C 11.480469 9.1875 11.828125 9.398438 11.898438 9.675781 C 11.910156 9.648438 11.914062 9.625 11.914062 9.597656 C 11.914062 9.265625 11.535156 9 11.0625 9 Z M 10.578125 10.445312 C 10.542969 10.574219 10.4375 10.714844 10.210938 10.875 L 8.761719 10.875 C 8.476562 10.875 8.25 11.101562 8.25 11.386719 L 8.25 11.574219 C 8.25 11.289062 8.476562 11.0625 8.761719 11.0625 L 10.210938 11.0625 C 10.554688 10.820312 10.621094 10.621094 10.578125 10.445312 Z M 11.546875 10.445312 C 11.503906 10.621094 11.570312 10.820312 11.914062 11.0625 L 13.363281 11.0625 C 13.648438 11.0625 13.875 11.289062 13.875 11.574219 L 13.875 11.386719 C 13.875 11.101562 13.648438 10.875 13.363281 10.875 L 11.914062 10.875 C 11.6875 10.714844 11.582031 10.574219 11.546875 10.445312 Z M 13.875 12.835938 L 13.875 13.023438 C 14.472656 13.875 14.8125 13.023438 15.152344 13.023438 C 15.460938 13.023438 15.714844 13.355469 15.746094 13.78125 C 15.75 13.75 15.75 13.71875 15.75 13.6875 C 15.75 13.214844 15.484375 12.835938 15.152344 12.835938 C 14.8125 12.835938 14.472656 13.6875 13.875 12.835938 Z M 10.121094 13.78125 C 10.089844 14.207031 9.835938 14.539062 9.527344 14.539062 C 9.1875 14.539062 8.847656 13.6875 8.25 14.539062 L 8.25 14.726562 C 8.847656 13.875 9.1875 14.726562 9.527344 14.726562 C 9.859375 14.726562 10.125 14.347656 10.125 13.875 C 10.125 13.84375 10.125 13.8125 10.121094 13.78125 Z M 10.226562 15.300781 C 10.214844 15.335938 10.210938 15.371094 10.210938 15.410156 C 10.210938 15.613281 10.511719 15.816406 10.578125 16.070312 C 10.65625 15.757812 10.300781 15.523438 10.226562 15.300781 Z M 11.898438 15.300781 C 11.824219 15.523438 11.46875 15.757812 11.546875 16.070312 C 11.613281 15.816406 11.914062 15.613281 11.914062 15.410156 C 11.914062 15.371094 11.910156 15.335938 11.898438 15.300781 Z M 11.898438 15.300781 "/>
<path style=" stroke:none;fill-rule:nonzero;fill:rgb(0%,0%,0%);fill-opacity:0.4;" d="M 10.226562 9.675781 C 10.214844 9.710938 10.210938 9.746094 10.210938 9.785156 C 10.210938 9.988281 10.511719 10.191406 10.578125 10.445312 C 10.65625 10.132812 10.300781 9.898438 10.226562 9.675781 Z M 11.898438 9.675781 C 11.824219 9.898438 11.46875 10.132812 11.546875 10.445312 C 11.613281 10.191406 11.914062 9.988281 11.914062 9.785156 C 11.914062 9.746094 11.910156 9.710938 11.898438 9.675781 Z M 8.25 12.835938 L 8.25 13.023438 C 8.847656 13.875 9.1875 13.023438 9.527344 13.023438 C 9.835938 13.023438 10.089844 13.355469 10.121094 13.78125 C 10.125 13.75 10.125 13.71875 10.125 13.6875 C 10.125 13.214844 9.859375 12.835938 9.527344 12.835938 C 9.1875 12.835938 8.847656 13.6875 8.25 12.835938 Z M 15.746094 13.78125 C 15.714844 14.207031 15.460938 14.539062 15.152344 14.539062 C 14.8125 14.539062 14.472656 13.6875 13.875 14.539062 L 13.875 14.726562 C 14.472656 13.875 14.8125 14.726562 15.152344 14.726562 C 15.484375 14.726562 15.75 14.347656 15.75 13.875 C 15.75 13.84375 15.75 13.8125 15.746094 13.78125 Z M 11.0625 14.625 C 10.589844 14.625 10.210938 14.890625 10.210938 15.222656 C 10.210938 15.25 10.214844 15.273438 10.226562 15.300781 C 10.296875 15.023438 10.644531 14.8125 11.0625 14.8125 C 11.480469 14.8125 11.828125 15.023438 11.898438 15.300781 C 11.910156 15.273438 11.914062 15.25 11.914062 15.222656 C 11.914062 14.890625 11.535156 14.625 11.0625 14.625 Z M 8.25 15.988281 L 8.25 16.175781 C 8.25 16.460938 8.476562 16.6875 8.761719 16.6875 L 10.210938 16.6875 C 10.554688 16.445312 10.621094 16.246094 10.578125 16.070312 C 10.542969 16.199219 10.4375 16.339844 10.210938 16.5 L 8.761719 16.5 C 8.476562 16.5 8.25 16.273438 8.25 15.988281 Z M 13.875 15.988281 C 13.875 16.273438 13.648438 16.5 13.363281 16.5 L 11.914062 16.5 C 11.6875 16.339844 11.582031 16.199219 11.546875 16.070312 C 11.503906 16.246094 11.570312 16.445312 11.914062 16.6875 L 13.363281 16.6875 C 13.648438 16.6875 13.875 16.460938 13.875 16.175781 Z M 13.875 15.988281 "/>
<path style=" stroke:none;fill-rule:nonzero;fill:url(#linear0);" d="M 15 1.5 L 4.875 1.5 C 4.25 1.5 3.75 2 3.75 2.625 L 3.75 21.375 C 3.75 22 4.25 22.5 4.875 22.5 L 19.125 22.5 C 19.75 22.5 20.25 22 20.25 21.375 L 20.25 6.75 Z M 15 1.5 "/>
</g>
</svg>
