
<svg xmlns="http://www.w3.org/2000/svg" xmlns:xlink="http://www.w3.org/1999/xlink" width="64" height="64" viewBox="0 0 64 64" version="1.1">
<defs>
<linearGradient id="linear0" gradientUnits="userSpaceOnUse" x1="8.466666" y1="-199.125" x2="8.466666" y2="-213.941666" gradientTransform="matrix(3.779528,0,0,3.779528,-0.0000044654,812.598468)">
<stop offset="0" style="stop-color:rgb(0%,0%,0%);stop-opacity:0.2;"/>
<stop offset="1" style="stop-color:rgb(100%,100%,100%);stop-opacity:0;"/>
</linearGradient>
</defs>
<g id="surface1">
<path style=" stroke:none;fill-rule:nonzero;fill:rgb(93.333334%,93.333334%,93.333334%);fill-opacity:1;" d="M 32 60 L 32 32 L 60 32 L 60 56 C 60 58.214844 58.214844 60 56 60 Z M 32 60 "/>
<path style=" stroke:none;fill-rule:nonzero;fill:rgb(93.333334%,93.333334%,93.333334%);fill-opacity:1;" d="M 32 4 L 32 32 L 4 32 L 4 8 C 4 5.785156 5.785156 4 8 4 Z M 32 4 "/>
<path style=" stroke:none;fill-rule:nonzero;fill:rgb(0%,0%,0%);fill-opacity:0.4;" d="M 30.3125 10.953125 C 30.523438 11.898438 30.910156 12.832031 31.113281 13.515625 C 31.136719 13.511719 31.160156 13.507812 31.1875 13.503906 C 31.410156 13.191406 30.988281 12.230469 30.625 11.109375 C 30.519531 11.054688 30.417969 11.003906 30.3125 10.953125 Z M 28.816406 14.867188 C 28.480469 14.964844 28.140625 15.097656 27.804688 15.285156 C 28.035156 15.359375 28.253906 15.4375 28.445312 15.539062 C 28.644531 15.484375 28.84375 15.429688 29.066406 15.371094 C 29.03125 15.164062 28.941406 15 28.816406 14.867188 Z M 26.480469 27.160156 C 25.96875 27.171875 25.445312 27.722656 24.246094 28.921875 C 22.496094 30.671875 19.832031 28.808594 19.832031 28.808594 L 19.8125 29.25 C 19.8125 29.25 19.058594 29.1875 18.0625 27.5 C 18.007812 27.414062 17.96875 27.335938 17.933594 27.265625 C 17.789062 27.574219 17.628906 27.714844 18.0625 28.449219 C 19.058594 30.132812 19.8125 30.199219 19.8125 30.199219 L 19.832031 29.753906 C 19.832031 29.753906 22.496094 31.617188 24.246094 29.871094 C 25.992188 28.121094 26.304688 27.753906 27.234375 28.410156 C 28.523438 29.460938 30.421875 29.257812 31.761719 28.875 C 32.183594 28.425781 32.578125 27.96875 32.9375 27.5 C 31.871094 28.007812 28.984375 28.890625 27.234375 27.464844 C 26.945312 27.261719 26.714844 27.15625 26.480469 27.160156 Z M 44.09375 27.9375 C 44.027344 30.960938 43.335938 33.996094 42.203125 36.554688 C 41.167969 38.984375 40.90625 40.746094 40.996094 42.011719 C 41.066406 40.851562 41.40625 39.375 42.203125 37.5 C 43.457031 34.675781 44.167969 31.269531 44.09375 27.9375 Z M 21.421875 43.6875 C 21.390625 44.402344 21.429688 45.152344 21.5625 45.949219 L 42.558594 45.949219 C 42.558594 45.949219 42.042969 45.710938 41.601562 45 L 21.5625 45 C 21.488281 44.550781 21.441406 44.113281 21.421875 43.6875 Z M 21.421875 43.6875 "/>
<path style=" stroke:none;fill-rule:nonzero;fill:rgb(61.960787%,61.960787%,61.960787%);fill-opacity:0.992157;" d="M 32 4 L 32 32 L 60 32 L 60 8 C 60 5.785156 58.214844 4 56 4 Z M 32 4 "/>
<path style=" stroke:none;fill-rule:nonzero;fill:rgb(100%,100%,100%);fill-opacity:0.6;" d="M 8 4 C 5.785156 4 4 5.785156 4 8 L 4 9 C 4 6.785156 5.785156 5 8 5 L 32 5 L 32 4 Z M 8 4 "/>
<path style=" stroke:none;fill-rule:nonzero;fill:rgb(61.960787%,61.960787%,61.960787%);fill-opacity:1;" d="M 32 60 L 32 32 L 4 32 L 4 56 C 4 58.214844 5.785156 60 8 60 Z M 32 60 "/>
<path style=" stroke:none;fill-rule:nonzero;fill:rgb(100%,100%,100%);fill-opacity:0.4;" d="M 56 4 C 58.214844 4 60 5.785156 60 8 L 60 9 C 60 6.785156 58.214844 5 56 5 L 32 5 L 32 4 Z M 56 4 "/>
<path style=" stroke:none;fill-rule:nonzero;fill:rgb(0%,0%,0%);fill-opacity:0.4;" d="M 8 60 C 5.785156 60 4 58.214844 4 56 L 4 55 C 4 57.214844 5.785156 59 8 59 L 32 59 L 32 60 Z M 8 60 "/>
<path style=" stroke:none;fill-rule:nonzero;fill:rgb(0%,0%,0%);fill-opacity:0.4;" d="M 56 60 C 58.214844 60 60 58.214844 60 56 L 60 55 C 60 57.214844 58.214844 59 56 59 L 32 59 L 32 60 Z M 56 60 "/>
<path style=" stroke:none;fill-rule:nonzero;fill:rgb(100%,99.215686%,99.215686%);fill-opacity:0.4;" d="M 32 5 L 32 32 L 33 31 L 33 4 Z M 32 5 "/>
<path style=" stroke:none;fill-rule:nonzero;fill:rgb(0.392157%,0.392157%,0.392157%);fill-opacity:0.2;" d="M 31 4 L 31 59 L 32 60 L 32 5 Z M 31 4 "/>
<path style=" stroke:none;fill-rule:nonzero;fill:rgb(99.607843%,99.607843%,99.607843%);fill-opacity:0.8;" d="M 32 32 L 32 60 L 33 59 L 33 32 Z M 32 32 "/>
<path style=" stroke:none;fill-rule:nonzero;fill:rgb(100%,99.215686%,99.215686%);fill-opacity:0.4;" d="M 4 32 L 32 32 L 32 33 L 4 33 Z M 4 32 "/>
<path style=" stroke:none;fill-rule:nonzero;fill:rgb(0.392157%,0.392157%,0.392157%);fill-opacity:0.2;" d="M 32 31 L 60 31 L 60 32 L 32 32 Z M 32 31 "/>
<path style=" stroke:none;fill-rule:nonzero;fill:rgb(99.607843%,99.607843%,99.607843%);fill-opacity:0.8;" d="M 32 32 L 60 32 L 60 33 L 32 33 Z M 32 32 "/>
<path style=" stroke:none;fill-rule:nonzero;fill:rgb(0.392157%,0.392157%,0.392157%);fill-opacity:0.2;" d="M 4 31 L 32 31 L 32 32 L 4 32 Z M 4 31 "/>
<path style=" stroke:none;fill-rule:nonzero;fill:rgb(38.039216%,38.039216%,38.039216%);fill-opacity:1;" d="M 30.3125 10.003906 C 30.660156 11.558594 31.480469 13.085938 31.1875 13.5 C 30.058594 13.71875 28.929688 13.699219 27.804688 14.339844 C 28.414062 14.527344 28.964844 14.769531 29.066406 15.363281 C 26.507812 16.054688 25.539062 16.328125 24.40625 18.59375 C 24.40625 18.59375 18.097656 23.742188 18.082031 24.617188 L 18.0625 25.75 C 18.046875 26.621094 17.4375 26.445312 18.0625 27.5 C 19.058594 29.183594 19.8125 29.25 19.8125 29.25 L 19.832031 28.804688 C 19.832031 28.804688 22.496094 30.667969 24.246094 28.921875 C 25.992188 27.171875 26.304688 26.804688 27.234375 27.460938 C 28.984375 28.886719 31.871094 28.003906 32.9375 27.496094 C 28.929688 32.777344 20.164062 36.484375 21.5625 45 L 42.558594 45 C 42.558594 45 39.25 43.496094 42.203125 36.550781 C 45.746094 28.566406 44.984375 15.917969 34.21875 13.421875 C 33.8125 11.753906 32.0625 10.878906 30.3125 10.003906 Z M 30.3125 10.003906 "/>
<path style=" stroke:none;fill-rule:nonzero;fill:rgb(0%,0%,0%);fill-opacity:0.2;" d="M 4 56 L 4 57.5 C 4 59.714844 5.785156 61.5 8 61.5 L 56 61.5 C 58.214844 61.5 60 59.714844 60 57.5 L 60 56 C 60 58.214844 58.214844 60 56 60 L 8 60 C 5.785156 60 4 58.214844 4 56 Z M 4 56 "/>
<path style=" stroke:none;fill-rule:nonzero;fill:rgb(38.039216%,38.039216%,38.039216%);fill-opacity:1;" d="M 19.5 45 L 44.5 45 C 45.328125 45 46 45.671875 46 46.5 L 46 50.5 C 46 51.328125 45.328125 52 44.5 52 L 19.5 52 C 18.671875 52 18 51.328125 18 50.5 L 18 46.5 C 18 45.671875 18.671875 45 19.5 45 Z M 19.5 45 "/>
<path style=" stroke:none;fill-rule:nonzero;fill:rgb(100%,100%,100%);fill-opacity:0.4;" d="M 19.5 45 C 18.667969 45 18 45.667969 18 46.5 L 18 47.5 C 18 46.667969 18.667969 46 19.5 46 L 44.5 46 C 45.332031 46 46 46.667969 46 47.5 L 46 46.5 C 46 45.667969 45.332031 45 44.5 45 Z M 19.5 45 "/>
<path style=" stroke:none;fill-rule:nonzero;fill:rgb(0%,0%,0%);fill-opacity:0.4;" d="M 19.5 53 C 18.667969 53 18 52.332031 18 51.5 L 18 50.5 C 18 51.332031 18.667969 52 19.5 52 L 44.5 52 C 45.332031 52 46 51.332031 46 50.5 L 46 51.5 C 46 52.332031 45.332031 53 44.5 53 Z M 19.5 53 "/>
<path style=" stroke:none;fill-rule:nonzero;fill:rgb(100%,100%,100%);fill-opacity:0.4;" d="M 30.3125 10.003906 C 30.402344 10.402344 30.519531 10.792969 30.644531 11.171875 C 32.277344 11.992188 33.835938 12.859375 34.21875 14.421875 C 41.136719 16.023438 43.925781 21.824219 44.09375 27.878906 C 44.214844 21.472656 41.519531 15.113281 34.21875 13.421875 C 33.8125 11.753906 32.0625 10.878906 30.3125 10.003906 Z M 31.097656 13.515625 C 30 13.714844 28.902344 13.714844 27.804688 14.339844 C 28.226562 14.46875 28.617188 14.628906 28.851562 14.90625 C 29.628906 14.691406 30.40625 14.652344 31.1875 14.5 C 31.304688 14.332031 31.238281 13.976562 31.097656 13.515625 Z M 28.375 15.554688 C 26.328125 16.125 25.425781 16.550781 24.40625 18.59375 C 24.40625 18.59375 18.097656 23.742188 18.082031 24.617188 L 18.0625 25.75 C 18.046875 26.554688 17.539062 26.476562 17.949219 27.28125 C 18.003906 27.152344 18.054688 26.992188 18.0625 26.75 L 18.082031 25.617188 C 18.097656 24.742188 24.40625 19.59375 24.40625 19.59375 C 25.539062 17.328125 26.507812 17.054688 29.066406 16.363281 C 28.996094 15.964844 28.726562 15.726562 28.375 15.554688 Z M 32.9375 28.496094 C 32.636719 28.636719 32.195312 28.808594 31.679688 28.949219 C 27.613281 33.246094 21.128906 36.839844 21.425781 43.675781 C 21.804688 36.757812 29.3125 33.269531 32.9375 28.496094 Z M 41 41.980469 C 40.894531 43.421875 41.199219 44.382812 41.566406 45 L 42.558594 45 C 42.558594 45 41.160156 44.347656 41 41.980469 Z M 41 41.980469 "/>
<path style=" stroke:none;fill-rule:nonzero;fill:url(#linear0);" d="M 8 4 L 56 4 C 58.210938 4 60 5.789062 60 8 L 60 56 C 60 58.210938 58.210938 60 56 60 L 8 60 C 5.789062 60 4 58.210938 4 56 L 4 8 C 4 5.789062 5.789062 4 8 4 Z M 8 4 "/>
</g>
</svg>
