
<svg xmlns="http://www.w3.org/2000/svg" xmlns:xlink="http://www.w3.org/1999/xlink" width="64" height="64" viewBox="0 0 64 64" version="1.1">
<defs>
<linearGradient id="linear0" gradientUnits="userSpaceOnUse" x1="31.999998" y1="59.999996" x2="32" y2="4" >
<stop offset="0" style="stop-color:rgb(0%,0%,0%);stop-opacity:0.2;"/>
<stop offset="1" style="stop-color:rgb(100%,100%,100%);stop-opacity:0;"/>
</linearGradient>
</defs>
<g id="surface1">
<path style=" stroke:none;fill-rule:nonzero;fill:rgb(25.882354%,64.705884%,96.078432%);fill-opacity:1;" d="M 22 4 L 42 4 C 43.105469 4 44 4.894531 44 6 L 44 26 C 44 27.105469 43.105469 28 42 28 L 22 28 C 20.894531 28 20 27.105469 20 26 L 20 6 C 20 4.894531 20.894531 4 22 4 Z M 22 4 "/>
<path style=" stroke:none;fill-rule:nonzero;fill:rgb(12.54902%,12.54902%,12.54902%);fill-opacity:0.4;" d="M 22 28 C 20.890625 28 20 27.109375 20 26 L 20 25 C 20 26.109375 20.890625 27 22 27 L 42 27 C 43.109375 27 44 26.109375 44 25 L 44 26 C 44 27.109375 43.109375 28 42 28 Z M 22 28 "/>
<path style=" stroke:none;fill-rule:nonzero;fill:rgb(61.176473%,80.000001%,39.607844%);fill-opacity:1;" d="M 38 24 L 58 24 C 59.105469 24 60 24.894531 60 26 L 60 46 C 60 47.105469 59.105469 48 58 48 L 38 48 C 36.894531 48 36 47.105469 36 46 L 36 26 C 36 24.894531 36.894531 24 38 24 Z M 38 24 "/>
<path style=" stroke:none;fill-rule:nonzero;fill:rgb(12.54902%,12.54902%,12.54902%);fill-opacity:0.4;" d="M 38 48 C 36.890625 48 36 47.109375 36 46 L 36 45 C 36 46.109375 36.890625 47 38 47 L 58 47 C 59.109375 47 60 46.109375 60 45 L 60 46 C 60 47.109375 59.109375 48 58 48 Z M 38 48 "/>
<path style=" stroke:none;fill-rule:nonzero;fill:rgb(100%,65.490198%,14.901961%);fill-opacity:1;" d="M 22 36 L 42 36 C 43.105469 36 44 36.894531 44 38 L 44 58 C 44 59.105469 43.105469 60 42 60 L 22 60 C 20.894531 60 20 59.105469 20 58 L 20 38 C 20 36.894531 20.894531 36 22 36 Z M 22 36 "/>
<path style=" stroke:none;fill-rule:nonzero;fill:rgb(100%,100%,100%);fill-opacity:0.4;" d="M 22 36 C 20.890625 36 20 36.890625 20 38 L 20 39 C 20 37.890625 20.890625 37 22 37 L 42 37 C 43.109375 37 44 37.890625 44 39 L 44 38 C 44 36.890625 43.109375 36 42 36 Z M 22 36 "/>
<path style=" stroke:none;fill-rule:nonzero;fill:rgb(95.686275%,26.274511%,21.176471%);fill-opacity:1;" d="M 6 20 L 26 20 C 27.105469 20 28 20.894531 28 22 L 28 42 C 28 43.105469 27.105469 44 26 44 L 6 44 C 4.894531 44 4 43.105469 4 42 L 4 22 C 4 20.894531 4.894531 20 6 20 Z M 6 20 "/>
<path style=" stroke:none;fill-rule:nonzero;fill:rgb(100%,100%,100%);fill-opacity:0.4;" d="M 22 4 C 20.890625 4 20 4.890625 20 6 L 20 7 C 20 5.890625 20.890625 5 22 5 L 42 5 C 43.109375 5 44 5.890625 44 7 L 44 6 C 44 4.890625 43.109375 4 42 4 Z M 22 4 "/>
<path style=" stroke:none;fill-rule:nonzero;fill:rgb(100%,100%,100%);fill-opacity:0.4;" d="M 38 24 C 36.890625 24 36 24.890625 36 26 L 36 27 C 36 25.890625 36.890625 25 38 25 L 58 25 C 59.109375 25 60 25.890625 60 27 L 60 26 C 60 24.890625 59.109375 24 58 24 Z M 38 24 "/>
<path style=" stroke:none;fill-rule:nonzero;fill:rgb(100%,100%,100%);fill-opacity:0.4;" d="M 6 20 C 4.890625 20 4 20.890625 4 22 L 4 23 C 4 21.890625 4.890625 21 6 21 L 26 21 C 27.109375 21 28 21.890625 28 23 L 28 22 C 28 20.890625 27.109375 20 26 20 Z M 6 20 "/>
<path style=" stroke:none;fill-rule:nonzero;fill:rgb(12.54902%,12.54902%,12.54902%);fill-opacity:0.4;" d="M 22 60 C 20.890625 60 20 59.109375 20 58 L 20 57 C 20 58.109375 20.890625 59 22 59 L 42 59 C 43.109375 59 44 58.109375 44 57 L 44 58 C 44 59.109375 43.109375 60 42 60 Z M 22 60 "/>
<path style=" stroke:none;fill-rule:nonzero;fill:rgb(12.54902%,12.54902%,12.54902%);fill-opacity:0.4;" d="M 6 44 C 4.890625 44 4 43.109375 4 42 L 4 41 C 4 42.109375 4.890625 43 6 43 L 26 43 C 27.109375 43 28 42.109375 28 41 L 28 42 C 28 43.109375 27.109375 44 26 44 Z M 6 44 "/>
<path style=" stroke:none;fill-rule:nonzero;fill:rgb(0%,0%,0%);fill-opacity:0.2;" d="M 28 28 L 28 29.5 L 36 29.5 L 36 28 Z M 4 42 L 4 43.5 C 4 44.609375 4.890625 45.5 6 45.5 L 20 45.5 L 20 44 L 6 44 C 4.890625 44 4 43.109375 4 42 Z M 60 46 C 60 47.109375 59.109375 48 58 48 L 44 48 L 44 49.5 L 58 49.5 C 59.109375 49.5 60 48.609375 60 47.5 Z M 20 58 L 20 59.5 C 20 60.609375 20.890625 61.5 22 61.5 L 42 61.5 C 43.109375 61.5 44 60.609375 44 59.5 L 44 58 C 44 59.109375 43.109375 60 42 60 L 22 60 C 20.890625 60 20 59.109375 20 58 Z M 20 58 "/>
<path style=" stroke:none;fill-rule:nonzero;fill:url(#linear0);" d="M 22 4 C 20.890625 4 20 4.890625 20 6 L 20 20 L 6 20 C 4.890625 20 4 20.890625 4 22 L 4 42 C 4 43.109375 4.890625 44 6 44 L 20 44 L 20 58 C 20 59.109375 20.890625 60 22 60 L 42 60 C 43.109375 60 44 59.109375 44 58 L 44 48 L 58 48 C 59.109375 48 60 47.109375 60 46 L 60 26 C 60 24.890625 59.109375 24 58 24 L 44 24 L 44 6 C 44 4.890625 43.109375 4 42 4 Z M 28 28 L 36 28 L 36 36 L 28 36 Z M 28 28 "/>
</g>
</svg>
