
<svg xmlns="http://www.w3.org/2000/svg" xmlns:xlink="http://www.w3.org/1999/xlink" width="24" height="24" viewBox="0 0 24 24" version="1.1">
<defs>
<linearGradient id="linear0" gradientUnits="userSpaceOnUse" x1="10.054166" y1="-199.125" x2="10.054166" y2="-213.941666" gradientTransform="matrix(1.417323,0,0,1.417323,-0.000474216,304.724425)">
<stop offset="0" style="stop-color:rgb(0%,0%,0%);stop-opacity:0.2;"/>
<stop offset="1" style="stop-color:rgb(100%,100%,100%);stop-opacity:0;"/>
</linearGradient>
</defs>
<g id="surface1">
<path style=" stroke:none;fill-rule:nonzero;fill:rgb(87.843138%,87.843138%,87.843138%);fill-opacity:1;" d="M 3 1.5 L 21 1.5 C 21.828125 1.5 22.5 2.171875 22.5 3 L 22.5 21 C 22.5 21.828125 21.828125 22.5 21 22.5 L 3 22.5 C 2.171875 22.5 1.5 21.828125 1.5 21 L 1.5 3 C 1.5 2.171875 2.171875 1.5 3 1.5 Z M 3 1.5 "/>
<path style=" stroke:none;fill-rule:nonzero;fill:rgb(0%,0%,0%);fill-opacity:0.4;" d="M 1.5 20.625 L 1.5 21 C 1.5 21.832031 2.167969 22.5 3 22.5 L 21 22.5 C 21.832031 22.5 22.5 21.832031 22.5 21 L 22.5 20.625 C 22.5 21.457031 21.832031 22.125 21 22.125 L 3 22.125 C 2.167969 22.125 1.5 21.457031 1.5 20.625 Z M 1.5 20.625 "/>
<path style=" stroke:none;fill-rule:nonzero;fill:rgb(0%,0%,0%);fill-opacity:0.2;" d="M 1.5 21 L 1.5 21.5625 C 1.5 22.394531 2.167969 23.0625 3 23.0625 L 21 23.0625 C 21.832031 23.0625 22.5 22.394531 22.5 21.5625 L 22.5 21 C 22.5 21.832031 21.832031 22.5 21 22.5 L 3 22.5 C 2.167969 22.5 1.5 21.832031 1.5 21 Z M 1.5 21 "/>
<path style=" stroke:none;fill-rule:nonzero;fill:rgb(100%,100%,100%);fill-opacity:0.4;" d="M 3 1.5 C 2.167969 1.5 1.5 2.167969 1.5 3 L 1.5 3.367188 C 1.5 2.539062 2.167969 1.867188 3 1.867188 L 21 1.867188 C 21.832031 1.867188 22.5 2.539062 22.5 3.367188 L 22.5 3 C 22.5 2.167969 21.832031 1.5 21 1.5 Z M 3 1.5 "/>
<path style=" stroke:none;fill-rule:nonzero;fill:rgb(95.686275%,26.274511%,21.176471%);fill-opacity:0.996078;" d="M 5.25 4.5 C 4.835938 4.5 4.5 4.835938 4.5 5.25 L 4.5 15 C 4.5 17.492188 6.507812 19.5 9 19.5 L 9 5.25 C 9 4.835938 8.664062 4.5 8.25 4.5 Z M 5.25 4.5 "/>
<path style=" stroke:none;fill-rule:nonzero;fill:rgb(95.686275%,26.274511%,21.176471%);fill-opacity:0.996078;" d="M 9.75 8.25 C 9.75 8.664062 10.085938 9 10.5 9 L 15 9 C 17.492188 9 19.5 6.992188 19.5 4.5 L 10.5 4.5 C 10.085938 4.5 9.75 4.835938 9.75 5.25 Z M 9.75 8.25 "/>
<path style=" stroke:none;fill-rule:nonzero;fill:rgb(25.882354%,64.705884%,96.078432%);fill-opacity:1;" d="M 9.75 10.625 L 9.75 14.875 C 9.75 15.054688 9.847656 15.222656 10.003906 15.3125 C 10.160156 15.40625 10.351562 15.40625 10.511719 15.316406 L 14.238281 13.183594 C 14.394531 13.09375 14.492188 12.929688 14.492188 12.75 C 14.492188 12.570312 14.394531 12.40625 14.238281 12.316406 L 10.511719 10.183594 C 10.351562 10.09375 10.160156 10.09375 10.003906 10.1875 C 9.847656 10.277344 9.75 10.445312 9.75 10.625 Z M 9.75 10.625 "/>
<path style=" stroke:none;fill-rule:nonzero;fill:rgb(100%,100%,100%);fill-opacity:0.4;" d="M 5.25 4.5 C 4.835938 4.5 4.5 4.835938 4.5 5.25 L 4.5 5.625 C 4.5 5.210938 4.835938 4.875 5.25 4.875 L 8.25 4.875 C 8.664062 4.875 9 5.210938 9 5.625 L 9 5.25 C 9 4.835938 8.664062 4.5 8.25 4.5 Z M 10.5 4.5 C 10.085938 4.5 9.75 4.835938 9.75 5.25 L 9.75 5.625 C 9.75 5.210938 10.085938 4.875 10.5 4.875 L 19.484375 4.875 C 19.492188 4.75 19.5 4.625 19.5 4.5 Z M 10.277344 10.117188 C 10.136719 10.113281 10.003906 10.164062 9.90625 10.261719 C 9.804688 10.355469 9.75 10.488281 9.75 10.625 L 9.75 11 C 9.75 10.863281 9.804688 10.730469 9.90625 10.636719 C 10.003906 10.539062 10.136719 10.488281 10.277344 10.492188 C 10.359375 10.496094 10.4375 10.519531 10.511719 10.558594 L 14.238281 12.691406 C 14.335938 12.746094 14.410156 12.832031 14.453125 12.933594 C 14.542969 12.703125 14.453125 12.441406 14.238281 12.316406 L 10.511719 10.183594 C 10.4375 10.144531 10.359375 10.121094 10.277344 10.117188 Z M 10.277344 10.117188 "/>
<path style=" stroke:none;fill-rule:nonzero;fill:rgb(0%,0%,0%);fill-opacity:0.4;" d="M 19.484375 4.875 C 19.296875 7.191406 17.367188 9 15 9 L 10.5 9 C 10.085938 9 9.75 8.664062 9.75 8.25 L 9.75 8.625 C 9.75 9.039062 10.085938 9.375 10.5 9.375 L 15 9.375 C 17.492188 9.375 19.5 7.367188 19.5 4.875 Z M 14.453125 12.9375 C 14.410156 13.042969 14.335938 13.128906 14.238281 13.183594 L 10.511719 15.316406 C 10.351562 15.40625 10.160156 15.40625 10.003906 15.3125 C 9.847656 15.222656 9.75 15.054688 9.75 14.875 L 9.75 15.25 C 9.75 15.429688 9.847656 15.597656 10.003906 15.6875 C 10.160156 15.78125 10.351562 15.78125 10.511719 15.691406 L 14.238281 13.558594 C 14.457031 13.433594 14.546875 13.167969 14.453125 12.9375 Z M 4.5 15 L 4.5 15.375 C 4.5 17.867188 6.507812 19.875 9 19.875 L 9 19.5 C 6.507812 19.5 4.5 17.492188 4.5 15 Z M 4.5 15 "/>
<path style=" stroke:none;fill-rule:nonzero;fill:url(#linear0);" d="M 3 1.5 L 21 1.5 C 21.828125 1.5 22.5 2.171875 22.5 3 L 22.5 21 C 22.5 21.828125 21.828125 22.5 21 22.5 L 3 22.5 C 2.171875 22.5 1.5 21.828125 1.5 21 L 1.5 3 C 1.5 2.171875 2.171875 1.5 3 1.5 Z M 3 1.5 "/>
</g>
</svg>
