
<svg xmlns="http://www.w3.org/2000/svg" xmlns:xlink="http://www.w3.org/1999/xlink" width="24" height="24" viewBox="0 0 24 24" version="1.1">
<defs>
<linearGradient id="linear0" gradientUnits="userSpaceOnUse" x1="31.999998" y1="60" x2="31.999998" y2="4" gradientTransform="matrix(0.375,0,0,0.375,-0.000000283465,0.000000000000042633)">
<stop offset="0" style="stop-color:rgb(0%,0%,0%);stop-opacity:0.2;"/>
<stop offset="1" style="stop-color:rgb(100%,100%,100%);stop-opacity:0;"/>
</linearGradient>
</defs>
<g id="surface1">
<path style=" stroke:none;fill-rule:nonzero;fill:rgb(100%,65.490198%,14.901961%);fill-opacity:1;" d="M 15 1.5 L 4.875 1.5 C 4.25 1.5 3.75 2 3.75 2.625 L 3.75 21.375 C 3.75 22 4.25 22.5 4.875 22.5 L 19.125 22.5 C 19.75 22.5 20.25 22 20.25 21.375 L 20.25 6.75 Z M 15 1.5 "/>
<path style=" stroke:none;fill-rule:nonzero;fill:rgb(0%,0%,0%);fill-opacity:0.4;" d="M 15 5.625 L 15 6 C 15 6.625 15.5 7.125 16.125 7.125 L 20.25 7.125 L 19.875 6.75 L 16.125 6.75 C 15.5 6.75 15 6.25 15 5.625 Z M 15 5.625 "/>
<path style=" stroke:none;fill-rule:nonzero;fill:rgb(100%,71.764708%,30.19608%);fill-opacity:0.996078;" d="M 20.25 6.75 L 15 1.5 L 15 5.625 C 15 6.25 15.5 6.75 16.125 6.75 Z M 20.25 6.75 "/>
<path style=" stroke:none;fill-rule:nonzero;fill:rgb(100%,100%,100%);fill-opacity:0.4;" d="M 4.875 1.5 C 4.25 1.5 3.75 2 3.75 2.625 L 3.75 3 C 3.75 2.375 4.25 1.875 4.875 1.875 L 15 1.875 L 20.25 7.125 L 20.25 6.75 L 15 1.5 Z M 4.875 1.5 "/>
<path style=" stroke:none;fill-rule:nonzero;fill:rgb(0%,0%,0%);fill-opacity:0.2;" d="M 3.75 21.371094 L 3.75 21.9375 C 3.75 22.5625 4.25 23.0625 4.875 23.0625 L 19.125 23.0625 C 19.75 23.0625 20.25 22.5625 20.25 21.9375 L 20.25 21.371094 C 20.25 21.992188 19.75 22.496094 19.125 22.496094 L 4.875 22.496094 C 4.25 22.496094 3.75 21.992188 3.75 21.371094 Z M 3.75 21.371094 "/>
<path style=" stroke:none;fill-rule:nonzero;fill:rgb(0%,0%,0%);fill-opacity:0.4;" d="M 3.75 21.046875 L 3.75 21.375 C 3.75 22 4.25 22.5 4.875 22.5 L 19.125 22.5 C 19.75 22.5 20.25 22 20.25 21.375 L 20.25 21.046875 C 20.25 21.671875 19.75 22.171875 19.125 22.171875 L 4.875 22.171875 C 4.25 22.171875 3.75 21.671875 3.75 21.046875 Z M 3.75 21.046875 "/>
<path style=" stroke:none;fill-rule:nonzero;fill:rgb(98.431373%,54.901963%,0%);fill-opacity:1;" d="M 11.980469 9 C 11.574219 9.011719 11.25 9.339844 11.25 9.75 C 11.25 9.792969 11.253906 9.832031 11.261719 9.875 C 11.175781 9.902344 11.097656 9.933594 11.019531 9.972656 C 10.996094 9.941406 10.96875 9.910156 10.9375 9.878906 C 10.644531 9.585938 10.171875 9.585938 9.878906 9.878906 C 9.585938 10.171875 9.585938 10.644531 9.878906 10.9375 C 9.910156 10.96875 9.941406 10.996094 9.972656 11.019531 C 9.933594 11.097656 9.902344 11.175781 9.875 11.261719 C 9.832031 11.253906 9.792969 11.25 9.75 11.25 C 9.335938 11.25 9 11.585938 9 12 C 9 12.414062 9.335938 12.75 9.75 12.75 C 9.792969 12.75 9.832031 12.746094 9.875 12.738281 C 9.902344 12.824219 9.933594 12.902344 9.972656 12.980469 C 9.941406 13.003906 9.910156 13.03125 9.878906 13.0625 C 9.585938 13.355469 9.585938 13.828125 9.878906 14.121094 C 10.050781 14.292969 10.277344 14.363281 10.5 14.335938 L 10.5 16.5 L 12 15 L 13.5 16.5 L 13.5 14.335938 C 13.722656 14.363281 13.949219 14.292969 14.121094 14.121094 C 14.414062 13.828125 14.414062 13.355469 14.121094 13.0625 C 14.089844 13.03125 14.058594 13.003906 14.027344 12.980469 C 14.066406 12.902344 14.097656 12.824219 14.125 12.738281 C 14.167969 12.746094 14.207031 12.75 14.25 12.75 C 14.664062 12.75 15 12.414062 15 12 C 15 11.585938 14.664062 11.25 14.25 11.25 C 14.207031 11.25 14.167969 11.253906 14.125 11.261719 C 14.097656 11.175781 14.066406 11.097656 14.027344 11.019531 C 14.058594 10.996094 14.089844 10.96875 14.121094 10.9375 C 14.414062 10.644531 14.414062 10.171875 14.121094 9.878906 C 13.828125 9.585938 13.355469 9.585938 13.0625 9.878906 C 13.03125 9.910156 13.003906 9.941406 12.980469 9.972656 C 12.902344 9.933594 12.824219 9.902344 12.738281 9.875 C 12.746094 9.832031 12.75 9.792969 12.75 9.75 C 12.75 9.335938 12.414062 9 12 9 C 11.992188 9 11.988281 9 11.980469 9 Z M 11.980469 9 "/>
<path style=" stroke:none;fill-rule:nonzero;fill:rgb(100%,80.000001%,50.196081%);fill-opacity:1;" d="M 11.980469 9 C 11.574219 9.011719 11.25 9.339844 11.25 9.75 C 11.25 9.792969 11.253906 9.832031 11.261719 9.875 C 11.175781 9.902344 11.097656 9.933594 11.019531 9.972656 C 10.996094 9.941406 10.96875 9.910156 10.9375 9.878906 C 10.644531 9.585938 10.171875 9.585938 9.878906 9.878906 C 9.585938 10.171875 9.585938 10.644531 9.878906 10.9375 C 9.910156 10.96875 9.941406 10.996094 9.972656 11.019531 C 9.933594 11.097656 9.902344 11.175781 9.875 11.261719 C 9.832031 11.253906 9.792969 11.25 9.75 11.25 C 9.335938 11.25 9 11.585938 9 12 C 9 12.414062 9.335938 12.75 9.75 12.75 C 9.792969 12.75 9.832031 12.746094 9.875 12.738281 C 9.902344 12.824219 9.933594 12.902344 9.972656 12.980469 C 9.941406 13.003906 9.910156 13.03125 9.878906 13.0625 C 9.585938 13.355469 9.585938 13.828125 9.878906 14.121094 C 10.050781 14.292969 10.277344 14.363281 10.5 14.335938 L 10.5 16.5 L 12 15 L 13.5 16.5 L 13.5 14.335938 C 13.722656 14.363281 13.949219 14.292969 14.121094 14.121094 C 14.414062 13.828125 14.414062 13.355469 14.121094 13.0625 C 14.089844 13.03125 14.058594 13.003906 14.027344 12.980469 C 14.066406 12.902344 14.097656 12.824219 14.125 12.738281 C 14.167969 12.746094 14.207031 12.75 14.25 12.75 C 14.664062 12.75 15 12.414062 15 12 C 15 11.585938 14.664062 11.25 14.25 11.25 C 14.207031 11.25 14.167969 11.253906 14.125 11.261719 C 14.097656 11.175781 14.066406 11.097656 14.027344 11.019531 C 14.058594 10.996094 14.089844 10.96875 14.121094 10.9375 C 14.414062 10.644531 14.414062 10.171875 14.121094 9.878906 C 13.828125 9.585938 13.355469 9.585938 13.0625 9.878906 C 13.03125 9.910156 13.003906 9.941406 12.980469 9.972656 C 12.902344 9.933594 12.824219 9.902344 12.738281 9.875 C 12.746094 9.832031 12.75 9.792969 12.75 9.75 C 12.75 9.335938 12.414062 9 12 9 C 11.992188 9 11.988281 9 11.980469 9 Z M 11.980469 9 "/>
<path style=" stroke:none;fill-rule:nonzero;fill:rgb(100%,100%,100%);fill-opacity:0.4;" d="M 11.980469 9 C 11.574219 9.011719 11.25 9.339844 11.25 9.75 C 11.25 9.78125 11.253906 9.808594 11.257812 9.839844 C 11.304688 9.476562 11.605469 9.195312 11.980469 9.1875 C 11.988281 9.1875 11.992188 9.1875 12 9.1875 C 12.382812 9.1875 12.695312 9.472656 12.742188 9.839844 C 12.746094 9.8125 12.75 9.78125 12.75 9.75 C 12.75 9.335938 12.414062 9 12 9 C 11.992188 9 11.988281 9 11.980469 9 Z M 10.410156 9.660156 C 10.21875 9.660156 10.027344 9.730469 9.878906 9.878906 C 9.707031 10.050781 9.636719 10.28125 9.664062 10.5 C 9.683594 10.34375 9.757812 10.1875 9.878906 10.066406 C 10.171875 9.773438 10.644531 9.773438 10.9375 10.066406 C 10.96875 10.097656 10.996094 10.128906 11.019531 10.160156 C 11.097656 10.121094 11.175781 10.089844 11.261719 10.0625 C 11.253906 10.019531 11.25 9.980469 11.25 9.9375 C 11.25 9.917969 11.25 9.898438 11.253906 9.875 C 11.171875 9.90625 11.09375 9.9375 11.019531 9.972656 C 10.996094 9.941406 10.96875 9.910156 10.9375 9.878906 C 10.792969 9.730469 10.601562 9.660156 10.410156 9.660156 Z M 13.589844 9.660156 C 13.398438 9.660156 13.207031 9.730469 13.0625 9.878906 C 13.03125 9.910156 13.003906 9.941406 12.980469 9.972656 C 12.90625 9.9375 12.828125 9.90625 12.746094 9.875 C 12.75 9.898438 12.75 9.917969 12.75 9.9375 C 12.75 9.980469 12.746094 10.019531 12.738281 10.0625 C 12.824219 10.089844 12.902344 10.121094 12.980469 10.160156 C 13.003906 10.128906 13.03125 10.097656 13.0625 10.066406 C 13.355469 9.773438 13.828125 9.773438 14.121094 10.066406 C 14.242188 10.1875 14.316406 10.34375 14.335938 10.5 C 14.363281 10.28125 14.292969 10.050781 14.121094 9.878906 C 13.972656 9.730469 13.78125 9.660156 13.589844 9.660156 Z M 9.914062 11.160156 C 9.898438 11.191406 9.886719 11.226562 9.875 11.261719 C 9.832031 11.253906 9.792969 11.25 9.75 11.25 C 9.335938 11.25 9 11.585938 9 12 C 9 12.03125 9.003906 12.0625 9.007812 12.09375 C 9.050781 11.722656 9.367188 11.4375 9.75 11.4375 C 9.792969 11.4375 9.832031 11.441406 9.875 11.449219 C 9.902344 11.363281 9.933594 11.285156 9.972656 11.207031 C 9.953125 11.191406 9.933594 11.175781 9.914062 11.160156 Z M 14.085938 11.160156 C 14.066406 11.175781 14.046875 11.191406 14.027344 11.207031 C 14.066406 11.285156 14.097656 11.367188 14.125 11.449219 C 14.167969 11.441406 14.207031 11.4375 14.25 11.4375 C 14.632812 11.4375 14.949219 11.722656 14.992188 12.09375 C 14.996094 12.0625 15 12.03125 15 12 C 15 11.585938 14.664062 11.25 14.25 11.25 C 14.207031 11.25 14.167969 11.253906 14.125 11.261719 C 14.113281 11.226562 14.101562 11.191406 14.085938 11.160156 Z M 9.910156 13.03125 C 9.902344 13.039062 9.890625 13.050781 9.878906 13.0625 C 9.707031 13.230469 9.636719 13.460938 9.664062 13.683594 C 9.683594 13.523438 9.757812 13.371094 9.878906 13.25 C 9.910156 13.21875 9.941406 13.191406 9.972656 13.167969 C 9.949219 13.125 9.929688 13.078125 9.910156 13.03125 Z M 14.089844 13.03125 C 14.070312 13.078125 14.050781 13.125 14.027344 13.167969 C 14.058594 13.191406 14.089844 13.21875 14.121094 13.25 C 14.242188 13.371094 14.316406 13.523438 14.335938 13.683594 C 14.363281 13.460938 14.292969 13.230469 14.121094 13.0625 C 14.109375 13.050781 14.097656 13.039062 14.089844 13.03125 Z M 14.089844 13.03125 "/>
<path style=" stroke:none;fill-rule:nonzero;fill:rgb(1.176471%,1.176471%,1.176471%);fill-opacity:0.4;" d="M 11.257812 9.839844 C 11.253906 9.851562 11.253906 9.863281 11.253906 9.875 C 11.253906 9.875 11.257812 9.875 11.261719 9.875 C 11.257812 9.863281 11.257812 9.851562 11.257812 9.839844 Z M 12.742188 9.839844 C 12.742188 9.851562 12.742188 9.863281 12.738281 9.875 C 12.742188 9.875 12.746094 9.875 12.746094 9.875 C 12.746094 9.863281 12.746094 9.851562 12.742188 9.839844 Z M 9.664062 10.503906 C 9.636719 10.722656 9.707031 10.957031 9.878906 11.125 C 9.890625 11.136719 9.902344 11.148438 9.910156 11.15625 C 9.929688 11.109375 9.949219 11.0625 9.972656 11.019531 C 9.941406 10.996094 9.910156 10.96875 9.878906 10.9375 C 9.757812 10.816406 9.683594 10.660156 9.664062 10.503906 Z M 14.335938 10.503906 C 14.316406 10.660156 14.242188 10.816406 14.121094 10.9375 C 14.089844 10.96875 14.058594 10.996094 14.027344 11.019531 C 14.050781 11.0625 14.070312 11.109375 14.089844 11.15625 C 14.097656 11.148438 14.109375 11.136719 14.121094 11.125 C 14.292969 10.957031 14.363281 10.722656 14.335938 10.503906 Z M 9.007812 12.09375 C 9.003906 12.125 9 12.15625 9 12.1875 C 9 12.605469 9.335938 12.9375 9.75 12.9375 C 9.792969 12.9375 9.832031 12.933594 9.875 12.929688 C 9.886719 12.960938 9.898438 12.996094 9.910156 13.03125 C 9.929688 13.011719 9.953125 12.996094 9.972656 12.980469 C 9.933594 12.902344 9.902344 12.820312 9.875 12.738281 C 9.832031 12.746094 9.792969 12.75 9.75 12.75 C 9.367188 12.75 9.050781 12.464844 9.007812 12.09375 Z M 14.992188 12.09375 C 14.949219 12.464844 14.632812 12.75 14.25 12.75 C 14.207031 12.75 14.167969 12.746094 14.125 12.738281 C 14.097656 12.824219 14.066406 12.902344 14.027344 12.980469 C 14.046875 12.996094 14.070312 13.011719 14.089844 13.03125 C 14.101562 12.996094 14.113281 12.960938 14.125 12.929688 C 14.167969 12.933594 14.207031 12.9375 14.25 12.9375 C 14.664062 12.9375 15 12.605469 15 12.1875 C 15 12.15625 14.996094 12.125 14.992188 12.09375 Z M 9.664062 13.683594 C 9.636719 13.90625 9.707031 14.136719 9.878906 14.308594 C 10.050781 14.480469 10.277344 14.550781 10.5 14.523438 L 10.5 14.335938 C 10.277344 14.363281 10.050781 14.292969 9.878906 14.121094 C 9.757812 14 9.683594 13.84375 9.664062 13.683594 Z M 14.335938 13.683594 C 14.316406 13.84375 14.242188 14 14.121094 14.121094 C 13.949219 14.292969 13.722656 14.363281 13.5 14.335938 L 13.5 14.523438 C 13.722656 14.550781 13.949219 14.480469 14.121094 14.308594 C 14.292969 14.136719 14.363281 13.90625 14.335938 13.683594 Z M 12 15 L 10.5 16.5 L 10.5 16.6875 L 12 15.1875 L 13.5 16.6875 L 13.5 16.5 Z M 12 15 "/>
<path style=" stroke:none;fill-rule:nonzero;fill:url(#linear0);" d="M 15 1.5 L 4.875 1.5 C 4.25 1.5 3.75 2 3.75 2.625 L 3.75 21.375 C 3.75 22 4.25 22.5 4.875 22.5 L 19.125 22.5 C 19.75 22.5 20.25 22 20.25 21.375 L 20.25 6.75 Z M 15 1.5 "/>
</g>
</svg>
