
<svg xmlns="http://www.w3.org/2000/svg" xmlns:xlink="http://www.w3.org/1999/xlink" width="24" height="24" viewBox="0 0 24 24" version="1.1">
<defs>
<linearGradient id="linear0" gradientUnits="userSpaceOnUse" x1="31.999998" y1="60" x2="31.999998" y2="4" gradientTransform="matrix(0.375,0,0,0.375,-0.00000102047,0.000000000000042633)">
<stop offset="0" style="stop-color:rgb(0%,0%,0%);stop-opacity:0.2;"/>
<stop offset="1" style="stop-color:rgb(100%,100%,100%);stop-opacity:0;"/>
</linearGradient>
</defs>
<g id="surface1">
<path style=" stroke:none;fill-rule:nonzero;fill:rgb(16.078432%,71.372551%,96.470588%);fill-opacity:1;" d="M 15 1.5 L 4.875 1.5 C 4.25 1.5 3.75 2 3.75 2.625 L 3.75 21.375 C 3.75 22 4.25 22.5 4.875 22.5 L 19.125 22.5 C 19.75 22.5 20.25 22 20.25 21.375 L 20.25 6.75 Z M 15 1.5 "/>
<path style=" stroke:none;fill-rule:nonzero;fill:rgb(50.588238%,83.137256%,98.039216%);fill-opacity:0.996078;" d="M 9.9375 9 C 9.832031 9 9.75 9.082031 9.75 9.1875 L 9.75 10.5 L 8.4375 10.5 C 8.332031 10.5 8.25 10.582031 8.25 10.6875 L 8.25 11.0625 C 8.25 11.167969 8.332031 11.25 8.4375 11.25 L 9.75 11.25 L 9.75 12.5625 C 9.75 12.667969 9.832031 12.75 9.9375 12.75 L 10.3125 12.75 C 10.417969 12.75 10.5 12.667969 10.5 12.5625 L 10.5 11.25 L 11.8125 11.25 C 11.917969 11.25 12 11.167969 12 11.0625 L 12 10.6875 C 12 10.582031 11.917969 10.5 11.8125 10.5 L 10.5 10.5 L 10.5 9.1875 C 10.5 9.082031 10.417969 9 10.3125 9 Z M 13.6875 12.75 C 13.582031 12.75 13.5 12.832031 13.5 12.9375 L 13.5 14.25 L 12.1875 14.25 C 12.082031 14.25 12 14.332031 12 14.4375 L 12 14.8125 C 12 14.917969 12.082031 15 12.1875 15 L 13.5 15 L 13.5 16.3125 C 13.5 16.417969 13.582031 16.5 13.6875 16.5 L 14.0625 16.5 C 14.167969 16.5 14.25 16.417969 14.25 16.3125 L 14.25 15 L 15.5625 15 C 15.667969 15 15.75 14.917969 15.75 14.8125 L 15.75 14.4375 C 15.75 14.332031 15.667969 14.25 15.5625 14.25 L 14.25 14.25 L 14.25 12.9375 C 14.25 12.832031 14.167969 12.75 14.0625 12.75 Z M 13.6875 12.75 "/>
<path style=" stroke:none;fill-rule:nonzero;fill:rgb(0%,0%,0%);fill-opacity:0.4;" d="M 15 5.625 L 15 6 C 15 6.625 15.5 7.125 16.125 7.125 L 20.25 7.125 L 19.875 6.75 L 16.125 6.75 C 15.5 6.75 15 6.25 15 5.625 Z M 15 5.625 "/>
<path style=" stroke:none;fill-rule:nonzero;fill:rgb(30.980393%,76.47059%,96.862745%);fill-opacity:0.996078;" d="M 20.25 6.75 L 15 1.5 L 15 5.625 C 15 6.25 15.5 6.75 16.125 6.75 Z M 20.25 6.75 "/>
<path style=" stroke:none;fill-rule:nonzero;fill:rgb(100%,100%,100%);fill-opacity:0.4;" d="M 4.875 1.5 C 4.25 1.5 3.75 2 3.75 2.625 L 3.75 3 C 3.75 2.375 4.25 1.875 4.875 1.875 L 15 1.875 L 20.25 7.125 L 20.25 6.75 L 15 1.5 Z M 4.875 1.5 "/>
<path style=" stroke:none;fill-rule:nonzero;fill:rgb(0%,0%,0%);fill-opacity:0.2;" d="M 3.75 21.371094 L 3.75 21.9375 C 3.75 22.5625 4.25 23.0625 4.875 23.0625 L 19.125 23.0625 C 19.75 23.0625 20.25 22.5625 20.25 21.9375 L 20.25 21.371094 C 20.25 21.992188 19.75 22.496094 19.125 22.496094 L 4.875 22.496094 C 4.25 22.496094 3.75 21.992188 3.75 21.371094 Z M 3.75 21.371094 "/>
<path style=" stroke:none;fill-rule:nonzero;fill:rgb(0%,0%,0%);fill-opacity:0.4;" d="M 3.75 21.046875 L 3.75 21.375 C 3.75 22 4.25 22.5 4.875 22.5 L 19.125 22.5 C 19.75 22.5 20.25 22 20.25 21.375 L 20.25 21.046875 C 20.25 21.671875 19.75 22.171875 19.125 22.171875 L 4.875 22.171875 C 4.25 22.171875 3.75 21.671875 3.75 21.046875 Z M 3.75 21.046875 "/>
<path style=" stroke:none;fill-rule:nonzero;fill:rgb(100%,100%,100%);fill-opacity:0.4;" d="M 9.9375 9 C 9.832031 9 9.75 9.082031 9.75 9.1875 L 9.75 9.375 C 9.75 9.269531 9.832031 9.1875 9.9375 9.1875 L 10.3125 9.1875 C 10.417969 9.1875 10.5 9.269531 10.5 9.375 L 10.5 9.1875 C 10.5 9.082031 10.417969 9 10.3125 9 Z M 8.4375 10.5 C 8.332031 10.5 8.25 10.582031 8.25 10.6875 L 8.25 10.875 C 8.25 10.769531 8.332031 10.6875 8.4375 10.6875 L 9.75 10.6875 L 9.75 10.5 Z M 10.5 10.5 L 10.5 10.6875 L 11.8125 10.6875 C 11.917969 10.6875 12 10.769531 12 10.875 L 12 10.6875 C 12 10.582031 11.917969 10.5 11.8125 10.5 Z M 13.6875 12.75 C 13.582031 12.75 13.5 12.832031 13.5 12.9375 L 13.5 13.125 C 13.5 13.019531 13.582031 12.9375 13.6875 12.9375 L 14.0625 12.9375 C 14.167969 12.9375 14.25 13.019531 14.25 13.125 L 14.25 12.9375 C 14.25 12.832031 14.167969 12.75 14.0625 12.75 Z M 12.1875 14.25 C 12.082031 14.25 12 14.332031 12 14.4375 L 12 14.625 C 12 14.519531 12.082031 14.4375 12.1875 14.4375 L 13.5 14.4375 L 13.5 14.25 Z M 14.25 14.25 L 14.25 14.4375 L 15.5625 14.4375 C 15.667969 14.4375 15.75 14.519531 15.75 14.625 L 15.75 14.4375 C 15.75 14.332031 15.667969 14.25 15.5625 14.25 Z M 14.25 14.25 "/>
<path style=" stroke:none;fill-rule:nonzero;fill:rgb(0%,0%,0%);fill-opacity:0.4;" d="M 14.0625 16.6875 C 14.167969 16.6875 14.25 16.605469 14.25 16.5 L 14.25 16.3125 C 14.25 16.417969 14.167969 16.5 14.0625 16.5 L 13.6875 16.5 C 13.582031 16.5 13.5 16.417969 13.5 16.3125 L 13.5 16.5 C 13.5 16.605469 13.582031 16.6875 13.6875 16.6875 Z M 15.5625 15.1875 C 15.667969 15.1875 15.75 15.105469 15.75 15 L 15.75 14.8125 C 15.75 14.917969 15.667969 15 15.5625 15 L 14.25 15 L 14.25 15.1875 Z M 13.5 15.1875 L 13.5 15 L 12.1875 15 C 12.082031 15 12 14.917969 12 14.8125 L 12 15 C 12 15.105469 12.082031 15.1875 12.1875 15.1875 Z M 10.3125 12.9375 C 10.417969 12.9375 10.5 12.855469 10.5 12.75 L 10.5 12.5625 C 10.5 12.667969 10.417969 12.75 10.3125 12.75 L 9.9375 12.75 C 9.832031 12.75 9.75 12.667969 9.75 12.5625 L 9.75 12.75 C 9.75 12.855469 9.832031 12.9375 9.9375 12.9375 Z M 11.8125 11.4375 C 11.917969 11.4375 12 11.355469 12 11.25 L 12 11.0625 C 12 11.167969 11.917969 11.25 11.8125 11.25 L 10.5 11.25 L 10.5 11.4375 Z M 9.75 11.4375 L 9.75 11.25 L 8.4375 11.25 C 8.332031 11.25 8.25 11.167969 8.25 11.0625 L 8.25 11.25 C 8.25 11.355469 8.332031 11.4375 8.4375 11.4375 Z M 9.75 11.4375 "/>
<path style=" stroke:none;fill-rule:nonzero;fill:url(#linear0);" d="M 15 1.5 L 4.875 1.5 C 4.25 1.5 3.75 2 3.75 2.625 L 3.75 21.375 C 3.75 22 4.25 22.5 4.875 22.5 L 19.125 22.5 C 19.75 22.5 20.25 22 20.25 21.375 L 20.25 6.75 Z M 15 1.5 "/>
</g>
</svg>
