
<svg xmlns="http://www.w3.org/2000/svg" xmlns:xlink="http://www.w3.org/1999/xlink" width="48" height="48" viewBox="0 0 48 48" version="1.1">
<defs>
<linearGradient id="linear0" gradientUnits="userSpaceOnUse" x1="8.466666" y1="-199.125" x2="8.466666" y2="-213.941666" gradientTransform="matrix(2.834646,0,0,2.834646,0,609.448851)">
<stop offset="0" style="stop-color:rgb(0%,0%,0%);stop-opacity:0.2;"/>
<stop offset="1" style="stop-color:rgb(100%,100%,100%);stop-opacity:0;"/>
</linearGradient>
</defs>
<g id="surface1">
<path style=" stroke:none;fill-rule:nonzero;fill:rgb(100%,65.490198%,14.901961%);fill-opacity:1;" d="M 9.003906 3 C 5.6875 3 3 5.6875 3 9.003906 L 3 39 C 3 42.3125 5.6875 45 9.003906 45 L 15 45 C 16.433594 45 17.820312 44.488281 18.90625 43.554688 L 24.785156 38.511719 L 28.390625 42.839844 C 29.53125 44.210938 31.222656 45 33.003906 45 L 39 45 C 42.3125 45 45 42.3125 45 39 C 44.996094 35.6875 42.3125 33 39 33.003906 L 35.808594 33.003906 L 30.105469 26.160156 C 29.078125 24.925781 27.601562 24.160156 26 24.023438 C 24.402344 23.890625 22.816406 24.402344 21.597656 25.445312 L 15 31.097656 L 15 9.003906 C 15 5.691406 12.316406 3.003906 9.003906 3 Z M 9.003906 3 "/>
<path style=" stroke:none;fill-rule:nonzero;fill:rgb(67.058825%,27.843139%,73.725492%);fill-opacity:0.996078;" d="M 3 16.5 L 3 27 L 15 27 L 15 16.5 Z M 3 16.5 "/>
<path style=" stroke:none;fill-rule:nonzero;fill:rgb(67.058825%,27.843139%,73.725492%);fill-opacity:1;" d="M 15 31.5 L 3 38.882812 L 3 39 C 3 42.3125 5.6875 45 9.003906 45 L 15 45 C 16.027344 44.996094 17.039062 44.726562 17.933594 44.21875 Z M 15 31.5 "/>
<path style=" stroke:none;fill-rule:nonzero;fill:rgb(67.058825%,27.843139%,73.725492%);fill-opacity:0.996078;" d="M 25.570312 24.003906 C 25.546875 24.003906 25.523438 24.007812 25.5 24.007812 L 25.5 39.367188 L 28.390625 42.839844 C 29.53125 44.210938 31.222656 45 33.003906 45 L 36 45 L 36 33.003906 L 35.808594 33.003906 L 30.105469 26.160156 C 28.984375 24.8125 27.324219 24.023438 25.570312 24.003906 Z M 25.570312 24.003906 "/>
<path style=" stroke:none;fill-rule:nonzero;fill:rgb(38.039216%,38.039216%,38.039216%);fill-opacity:0.996078;" d="M 5.4375 7.5 C 6.164062 7.5 6.75 8.085938 6.75 8.8125 C 6.75 9.539062 6.164062 10.125 5.4375 10.125 C 4.710938 10.125 4.125 9.539062 4.125 8.8125 C 4.125 8.085938 4.710938 7.5 5.4375 7.5 Z M 5.4375 7.5 "/>
<path style=" stroke:none;fill-rule:nonzero;fill:rgb(74.117649%,74.117649%,74.117649%);fill-opacity:0.996078;" d="M 4.875 8.25 C 5.082031 8.25 5.25 8.417969 5.25 8.625 C 5.25 8.832031 5.082031 9 4.875 9 C 4.667969 9 4.5 8.832031 4.5 8.625 C 4.5 8.417969 4.667969 8.25 4.875 8.25 Z M 4.875 8.25 "/>
<path style=" stroke:none;fill-rule:nonzero;fill:rgb(100%,100%,100%);fill-opacity:0.4;" d="M 5.402344 7.5 C 4.691406 7.519531 4.125 8.097656 4.125 8.8125 C 4.125 8.875 4.128906 8.9375 4.136719 9 C 4.230469 8.363281 4.773438 7.875 5.4375 7.875 C 6.101562 7.875 6.644531 8.363281 6.738281 9 C 6.746094 8.9375 6.75 8.875 6.75 8.8125 C 6.75 8.085938 6.164062 7.5 5.4375 7.5 C 5.425781 7.5 5.414062 7.5 5.402344 7.5 Z M 5.402344 7.5 "/>
<path style=" stroke:none;fill-rule:nonzero;fill:rgb(0%,0%,0%);fill-opacity:0.4;" d="M 5.402344 10.5 C 4.691406 10.484375 4.125 9.902344 4.125 9.1875 C 4.125 9.125 4.128906 9.0625 4.136719 9 C 4.230469 9.636719 4.773438 10.125 5.4375 10.125 C 6.101562 10.125 6.644531 9.636719 6.738281 9 C 6.746094 9.0625 6.75 9.125 6.75 9.1875 C 6.75 9.914062 6.164062 10.5 5.4375 10.5 C 5.425781 10.5 5.414062 10.5 5.402344 10.5 Z M 5.402344 10.5 "/>
<path style=" stroke:none;fill-rule:nonzero;fill:rgb(38.039216%,38.039216%,38.039216%);fill-opacity:0.996078;" d="M 10.300781 7.5 C 11.023438 7.5 11.613281 8.085938 11.613281 8.8125 C 11.613281 9.539062 11.023438 10.125 10.300781 10.125 C 9.574219 10.125 8.988281 9.539062 8.988281 8.8125 C 8.988281 8.085938 9.574219 7.5 10.300781 7.5 Z M 10.300781 7.5 "/>
<path style=" stroke:none;fill-rule:nonzero;fill:rgb(74.117649%,74.117649%,74.117649%);fill-opacity:0.996078;" d="M 9.738281 8.25 C 9.945312 8.25 10.113281 8.417969 10.113281 8.625 C 10.113281 8.832031 9.945312 9 9.738281 9 C 9.53125 9 9.363281 8.832031 9.363281 8.625 C 9.363281 8.417969 9.53125 8.25 9.738281 8.25 Z M 9.738281 8.25 "/>
<path style=" stroke:none;fill-rule:nonzero;fill:rgb(100%,100%,100%);fill-opacity:0.4;" d="M 10.265625 7.5 C 9.554688 7.515625 8.988281 8.097656 8.988281 8.8125 C 8.988281 8.875 8.992188 8.9375 9 9 C 9.089844 8.363281 9.636719 7.875 10.300781 7.875 C 10.960938 7.875 11.507812 8.363281 11.597656 9 C 11.605469 8.9375 11.613281 8.875 11.613281 8.8125 C 11.613281 8.085938 11.027344 7.5 10.300781 7.5 C 10.289062 7.5 10.277344 7.5 10.265625 7.5 Z M 10.265625 7.5 "/>
<path style=" stroke:none;fill-rule:nonzero;fill:rgb(0%,0%,0%);fill-opacity:0.4;" d="M 10.265625 10.5 C 9.554688 10.484375 8.988281 9.902344 8.988281 9.1875 C 8.988281 9.125 8.992188 9.0625 9 9 C 9.089844 9.636719 9.636719 10.125 10.300781 10.125 C 10.960938 10.125 11.507812 9.636719 11.597656 9 C 11.605469 9.0625 11.613281 9.125 11.613281 9.1875 C 11.613281 9.914062 11.027344 10.5 10.300781 10.5 C 10.289062 10.5 10.277344 10.5 10.265625 10.5 Z M 10.265625 10.5 "/>
<path style=" stroke:none;fill-rule:nonzero;fill:rgb(100%,100%,100%);fill-opacity:0.4;" d="M 9.003906 3 C 5.6875 3 3 5.6875 3 9.003906 L 3 9.75 C 3 6.4375 5.6875 3.75 9.003906 3.75 C 12.316406 3.753906 15 6.4375 15 9.75 L 15 9.003906 C 15 5.691406 12.316406 3.003906 9.003906 3 Z M 25.570312 24.003906 C 24.113281 23.988281 22.703125 24.5 21.597656 25.445312 L 15 31.097656 L 15 31.847656 L 21.597656 26.195312 C 22.816406 25.152344 24.402344 24.640625 26 24.773438 C 27.601562 24.90625 29.078125 25.675781 30.105469 26.910156 L 35.808594 33.75 L 39 33.75 C 42.199219 33.757812 44.832031 36.273438 44.980469 39.472656 C 44.992188 39.3125 45 39.15625 45 39 C 44.996094 35.6875 42.3125 33.003906 39 33.003906 L 35.808594 33.003906 L 30.105469 26.160156 C 28.984375 24.8125 27.324219 24.023438 25.570312 24.003906 Z M 25.570312 24.003906 "/>
<path style=" stroke:none;fill-rule:nonzero;fill:rgb(0%,0%,0%);fill-opacity:0.4;" d="M 24.785156 37.773438 L 18.90625 42.816406 C 17.816406 43.75 16.433594 44.261719 15 44.261719 L 9.003906 44.261719 C 5.6875 44.261719 3 41.574219 3 38.261719 L 3 39 C 3 42.3125 5.6875 45 9.003906 45 L 15 45 C 16.433594 45 17.816406 44.488281 18.90625 43.554688 L 24.785156 38.511719 L 28.390625 42.839844 C 29.53125 44.210938 31.222656 45 33.003906 45 L 39 45 C 42.3125 45 45 42.3125 45 39 C 44.996094 38.90625 44.988281 38.816406 44.980469 38.726562 C 44.738281 41.851562 42.132812 44.261719 39 44.261719 L 33.003906 44.261719 C 31.222656 44.261719 29.53125 43.472656 28.390625 42.101562 Z M 24.785156 37.773438 "/>
<path style=" stroke:none;fill-rule:nonzero;fill:rgb(0%,0%,0%);fill-opacity:0.2;" d="M 24.785156 38.511719 L 18.90625 43.554688 C 17.816406 44.488281 16.433594 45 15 45 L 9.003906 45 C 5.6875 45 3 42.3125 3 39 L 3 40.117188 C 3 43.433594 5.6875 46.121094 9.003906 46.121094 L 15 46.121094 C 16.433594 46.121094 17.816406 45.609375 18.90625 44.675781 L 24.785156 39.628906 L 28.390625 43.960938 C 29.53125 45.328125 31.222656 46.121094 33.003906 46.121094 L 39 46.121094 C 42.3125 46.121094 45 43.433594 45 40.117188 C 44.996094 39.957031 44.984375 39.796875 44.964844 39.636719 C 44.640625 42.6875 42.066406 45 39 45 L 33.003906 45 C 31.222656 45 29.53125 44.210938 28.390625 42.839844 Z M 24.785156 38.511719 "/>
<path style=" stroke:none;fill-rule:nonzero;fill:rgb(93.725491%,32.549021%,31.37255%);fill-opacity:1;" d="M 5.25 12.75 L 10.5 12.75 C 9 14.625 6.75 14.625 5.25 12.75 Z M 5.25 12.75 "/>
<path style=" stroke:none;fill-rule:nonzero;fill:rgb(100%,100%,100%);fill-opacity:0.4;" d="M 5.25 13.125 C 6.75 15 9 15 10.5 13.125 L 10.167969 13.125 C 8.796875 14.5 6.953125 14.5 5.585938 13.125 Z M 5.25 13.125 "/>
<path style=" stroke:none;fill-rule:nonzero;fill:rgb(0%,0%,0%);fill-opacity:0.4;" d="M 5.25 12.75 C 5.359375 12.882812 5.46875 13.011719 5.585938 13.125 L 10.167969 13.125 C 10.28125 13.011719 10.390625 12.882812 10.5 12.75 Z M 5.25 12.75 "/>
<path style=" stroke:none;fill-rule:nonzero;fill:rgb(100%,100%,100%);fill-opacity:0.2;" d="M 6 16.5 C 5.171875 16.5 4.5 17.171875 4.5 18 L 4.5 35.996094 C 4.5 37.457031 5.070312 38.753906 6.023438 39.511719 C 6.976562 40.273438 8.117188 40.5 9.183594 40.5 C 11.316406 40.5 13.28125 39.839844 14.5625 38.5625 C 16.601562 36.769531 18.816406 34.566406 20.851562 32.832031 C 22.90625 31.078125 24.917969 30 25.5 30 C 25.625 30 26.09375 30.175781 26.722656 30.765625 C 27.351562 31.355469 28.078125 32.246094 28.828125 33.183594 C 29.578125 34.121094 30.355469 35.101562 31.226562 35.921875 C 32.097656 36.738281 33.121094 37.5 34.496094 37.5 L 38.25 37.5 C 39.078125 37.5 39.75 36.828125 39.75 35.996094 C 39.75 35.167969 39.078125 34.496094 38.25 34.496094 L 34.496094 34.496094 C 34.371094 34.496094 33.902344 34.324219 33.273438 33.734375 C 32.644531 33.144531 31.921875 32.25 31.171875 31.3125 C 30.421875 30.375 29.648438 29.394531 28.777344 28.578125 C 27.90625 27.761719 26.875 27 25.5 27 C 23.085938 27 21.09375 28.671875 18.902344 30.542969 C 16.707031 32.414062 14.453125 34.671875 12.511719 36.367188 C 12.488281 36.390625 12.464844 36.414062 12.441406 36.441406 C 12.21875 36.660156 10.429688 37.5 9.183594 37.5 C 8.5625 37.5 8.121094 37.347656 7.902344 37.171875 C 7.679688 36.996094 7.5 36.789062 7.5 35.996094 L 7.5 18 C 7.503906 17.171875 6.832031 16.5 6 16.5 Z M 6 16.5 "/>
<path style=" stroke:none;fill-rule:nonzero;fill:url(#linear0);" d="M 9.003906 3 C 5.6875 3 3 5.6875 3 9.003906 L 3 39 C 3 42.3125 5.6875 45 9.003906 45 L 15 45 C 16.433594 45 17.820312 44.488281 18.90625 43.554688 L 24.785156 38.511719 L 28.390625 42.839844 C 29.53125 44.210938 31.222656 45 33.003906 45 L 39 45 C 42.3125 45 45 42.3125 45 39 C 44.996094 35.6875 42.3125 33 39 33.003906 L 35.808594 33.003906 L 30.105469 26.160156 C 29.078125 24.925781 27.601562 24.160156 26 24.023438 C 24.402344 23.890625 22.816406 24.402344 21.597656 25.445312 L 15 31.097656 L 15 9.003906 C 15 5.691406 12.316406 3.003906 9.003906 3 Z M 9.003906 3 "/>
</g>
</svg>
