
<svg xmlns="http://www.w3.org/2000/svg" xmlns:xlink="http://www.w3.org/1999/xlink" width="16" height="16" viewBox="0 0 16 16" version="1.1">
<defs>
<linearGradient id="linear0" gradientUnits="userSpaceOnUse" x1="32" y1="59.999996" x2="32" y2="4" gradientTransform="matrix(0.25,0,0,0.25,0.000000129134,0)">
<stop offset="0" style="stop-color:rgb(0%,0%,0%);stop-opacity:0.2;"/>
<stop offset="1" style="stop-color:rgb(100%,100%,100%);stop-opacity:0;"/>
</linearGradient>
</defs>
<g id="surface1">
<path style=" stroke:none;fill-rule:nonzero;fill:rgb(61.176473%,80.000001%,39.607844%);fill-opacity:1;" d="M 8.714844 1.171875 C 9.921875 1.875 12.34375 3.273438 13.554688 3.964844 C 13.953125 4.195312 14.273438 4.746094 14.269531 5.203125 C 14.265625 6.601562 14.265625 9.398438 14.269531 10.796875 C 14.273438 11.253906 13.953125 11.804688 13.554688 12.035156 C 12.34375 12.726562 9.921875 14.125 8.714844 14.828125 C 8.320312 15.058594 7.679688 15.058594 7.285156 14.828125 C 6.078125 14.125 3.65625 12.726562 2.445312 12.035156 C 2.046875 11.804688 1.726562 11.253906 1.730469 10.796875 C 1.734375 9.398438 1.734375 6.601562 1.730469 5.203125 C 1.726562 4.746094 2.046875 4.195312 2.445312 3.964844 C 3.65625 3.273438 6.078125 1.875 7.285156 1.171875 C 7.679688 0.941406 8.320312 0.941406 8.714844 1.171875 Z M 8.714844 1.171875 "/>
<path style=" stroke:none;fill-rule:nonzero;fill:rgb(38.039216%,38.039216%,38.039216%);fill-opacity:1;" d="M 8.714844 1.171875 C 9.921875 1.875 12.34375 3.273438 13.554688 3.964844 C 13.953125 4.195312 14.273438 4.746094 14.269531 5.203125 C 14.265625 6.601562 14.265625 9.398438 14.269531 10.796875 C 14.273438 11.253906 13.953125 11.804688 13.554688 12.035156 C 12.34375 12.726562 9.921875 14.125 8.714844 14.828125 C 8.320312 15.058594 7.679688 15.058594 7.285156 14.828125 C 6.078125 14.125 3.65625 12.726562 2.445312 12.035156 C 2.046875 11.804688 1.726562 11.253906 1.730469 10.796875 C 1.734375 9.398438 1.734375 6.601562 1.730469 5.203125 C 1.726562 4.746094 2.046875 4.195312 2.445312 3.964844 C 3.65625 3.273438 6.078125 1.875 7.285156 1.171875 C 7.679688 0.941406 8.320312 0.941406 8.714844 1.171875 Z M 8.714844 1.171875 "/>
<path style=" stroke:none;fill-rule:nonzero;fill:rgb(95.686275%,26.274511%,21.176471%);fill-opacity:1;" d="M 8.25 8.433594 L 8.25 14.980469 C 8.417969 14.957031 8.582031 14.90625 8.714844 14.828125 C 9.921875 14.125 12.34375 12.726562 13.554688 12.035156 C 13.691406 11.957031 13.8125 11.839844 13.921875 11.707031 Z M 8.25 8.433594 "/>
<path style=" stroke:none;fill-rule:nonzero;fill:rgb(67.058825%,27.843139%,73.725492%);fill-opacity:1;" d="M 7.75 8.433594 L 2.078125 11.707031 C 2.1875 11.839844 2.308594 11.957031 2.445312 12.035156 C 3.65625 12.726562 6.078125 14.125 7.285156 14.828125 C 7.417969 14.90625 7.582031 14.957031 7.75 14.980469 Z M 7.75 8.433594 "/>
<path style=" stroke:none;fill-rule:nonzero;fill:rgb(100%,43.921569%,26.274511%);fill-opacity:1;" d="M 14.171875 4.726562 L 8.5 8 L 14.171875 11.273438 C 14.234375 11.113281 14.273438 10.949219 14.269531 10.796875 C 14.265625 9.398438 14.265625 6.601562 14.269531 5.203125 C 14.273438 5.050781 14.234375 4.886719 14.171875 4.726562 Z M 14.171875 4.726562 "/>
<path style=" stroke:none;fill-rule:nonzero;fill:rgb(36.078432%,41.960785%,75.294119%);fill-opacity:1;" d="M 1.828125 4.726562 C 1.765625 4.886719 1.726562 5.050781 1.730469 5.203125 C 1.734375 6.601562 1.734375 9.398438 1.730469 10.796875 C 1.726562 10.949219 1.765625 11.113281 1.828125 11.273438 L 7.5 8 Z M 1.828125 4.726562 "/>
<path style=" stroke:none;fill-rule:nonzero;fill:rgb(61.176473%,80.000001%,39.607844%);fill-opacity:1;" d="M 8.25 1.019531 L 8.25 7.566406 L 13.921875 4.292969 C 13.8125 4.160156 13.691406 4.042969 13.554688 3.964844 C 12.34375 3.273438 9.921875 1.875 8.714844 1.171875 C 8.582031 1.09375 8.417969 1.042969 8.25 1.019531 Z M 8.25 1.019531 "/>
<path style=" stroke:none;fill-rule:nonzero;fill:rgb(25.882354%,64.705884%,96.078432%);fill-opacity:1;" d="M 7.75 1.019531 C 7.582031 1.042969 7.417969 1.09375 7.285156 1.171875 C 6.078125 1.875 3.65625 3.273438 2.445312 3.964844 C 2.308594 4.042969 2.1875 4.160156 2.078125 4.292969 L 7.75 7.566406 Z M 7.75 1.019531 "/>
<path style=" stroke:none;fill-rule:nonzero;fill:rgb(0.784314%,0.784314%,0.784314%);fill-opacity:0.4;" d="M 13.617188 11.765625 C 13.597656 11.777344 13.578125 11.789062 13.554688 11.804688 C 12.34375 12.496094 9.921875 13.894531 8.714844 14.597656 C 8.582031 14.675781 8.417969 14.726562 8.25 14.75 L 8.25 14.980469 C 8.417969 14.957031 8.582031 14.90625 8.714844 14.828125 C 9.921875 14.125 12.34375 12.726562 13.554688 12.035156 C 13.636719 11.988281 13.710938 11.925781 13.78125 11.859375 Z M 13.851562 11.789062 C 13.832031 11.8125 13.808594 11.832031 13.785156 11.855469 C 13.808594 11.832031 13.832031 11.8125 13.851562 11.789062 Z M 13.851562 11.789062 "/>
<path style=" stroke:none;fill-rule:nonzero;fill:rgb(0.784314%,0.784314%,0.784314%);fill-opacity:0.4;" d="M 2.382812 11.765625 L 2.21875 11.859375 C 2.289062 11.925781 2.363281 11.988281 2.445312 12.035156 C 3.65625 12.726562 6.078125 14.125 7.285156 14.828125 C 7.417969 14.90625 7.582031 14.957031 7.75 14.980469 L 7.75 14.75 C 7.582031 14.726562 7.417969 14.675781 7.285156 14.597656 C 6.078125 13.894531 3.65625 12.496094 2.445312 11.804688 C 2.421875 11.789062 2.402344 11.777344 2.382812 11.765625 Z M 2.148438 11.789062 C 2.167969 11.8125 2.191406 11.832031 2.214844 11.855469 C 2.191406 11.832031 2.167969 11.8125 2.148438 11.789062 Z M 2.148438 11.789062 "/>
<path style=" stroke:none;fill-rule:nonzero;fill:rgb(0.784314%,0.784314%,0.784314%);fill-opacity:0.4;" d="M 14.269531 5.195312 C 14.269531 5.925781 14.265625 6.917969 14.265625 7.929688 C 14.265625 6.90625 14.269531 5.882812 14.269531 5.203125 C 14.269531 5.203125 14.269531 5.199219 14.269531 5.195312 Z M 8.699219 7.882812 L 8.5 8 L 14.171875 11.273438 C 14.234375 11.113281 14.273438 10.949219 14.269531 10.796875 C 14.269531 10.742188 14.269531 10.636719 14.269531 10.578125 C 14.269531 10.726562 14.230469 10.886719 14.171875 11.042969 Z M 14.265625 8.195312 C 14.269531 8.945312 14.269531 9.644531 14.269531 10.210938 C 14.269531 9.613281 14.269531 8.949219 14.265625 8.195312 Z M 14.265625 8.195312 "/>
<path style=" stroke:none;fill-rule:nonzero;fill:rgb(0.784314%,0.784314%,0.784314%);fill-opacity:0.4;" d="M 1.730469 5.195312 C 1.730469 5.199219 1.730469 5.203125 1.730469 5.203125 C 1.730469 5.882812 1.734375 6.90625 1.734375 7.929688 C 1.734375 6.917969 1.730469 5.925781 1.730469 5.195312 Z M 7.300781 7.882812 L 1.828125 11.042969 C 1.769531 10.886719 1.730469 10.726562 1.730469 10.578125 C 1.730469 10.636719 1.730469 10.742188 1.730469 10.796875 C 1.726562 10.949219 1.765625 11.113281 1.828125 11.273438 L 7.5 8 Z M 1.734375 8.195312 C 1.730469 8.949219 1.730469 9.613281 1.730469 10.210938 C 1.730469 9.644531 1.730469 8.945312 1.734375 8.195312 Z M 1.734375 8.195312 "/>
<path style=" stroke:none;fill-rule:nonzero;fill:rgb(0.784314%,0.784314%,0.784314%);fill-opacity:0.4;" d="M 13.78125 4.140625 L 8.25 7.335938 L 8.25 7.566406 L 13.921875 4.292969 C 13.878906 4.238281 13.832031 4.1875 13.78125 4.140625 Z M 13.78125 4.140625 "/>
<path style=" stroke:none;fill-rule:nonzero;fill:rgb(0.784314%,0.784314%,0.784314%);fill-opacity:0.4;" d="M 2.21875 4.140625 C 2.167969 4.1875 2.121094 4.238281 2.078125 4.292969 L 7.75 7.566406 L 7.75 7.335938 Z M 2.21875 4.140625 "/>
<path style=" stroke:none;fill-rule:nonzero;fill:rgb(100%,100%,100%);fill-opacity:0.4;" d="M 8.25 8.433594 L 8.25 8.664062 L 12.015625 10.839844 C 12.070312 10.800781 12.125 10.753906 12.175781 10.699219 Z M 12.304688 10.773438 C 12.269531 10.832031 12.226562 10.886719 12.183594 10.9375 L 13.78125 11.859375 C 13.832031 11.8125 13.878906 11.761719 13.921875 11.707031 Z M 12.304688 10.773438 "/>
<path style=" stroke:none;fill-rule:nonzero;fill:rgb(100%,100%,100%);fill-opacity:0.4;" d="M 7.75 8.433594 L 3.824219 10.699219 C 3.875 10.753906 3.929688 10.800781 3.984375 10.839844 L 7.75 8.664062 Z M 3.695312 10.773438 L 2.078125 11.707031 C 2.121094 11.761719 2.167969 11.8125 2.21875 11.859375 L 3.816406 10.933594 C 3.773438 10.886719 3.730469 10.832031 3.695312 10.773438 Z M 3.695312 10.773438 "/>
<path style=" stroke:none;fill-rule:nonzero;fill:rgb(100%,100%,100%);fill-opacity:0.4;" d="M 14.171875 4.726562 L 8.5 8 L 8.699219 8.117188 L 14.171875 4.957031 C 14.230469 5.113281 14.269531 5.273438 14.269531 5.421875 C 14.269531 5.363281 14.269531 5.257812 14.269531 5.203125 C 14.273438 5.050781 14.234375 4.886719 14.171875 4.726562 Z M 14.269531 5.789062 C 14.269531 6.355469 14.269531 7.054688 14.265625 7.804688 C 14.269531 7.050781 14.269531 6.386719 14.269531 5.789062 Z M 14.265625 8.070312 C 14.265625 9.082031 14.269531 10.074219 14.269531 10.804688 C 14.269531 10.800781 14.269531 10.796875 14.269531 10.796875 C 14.269531 10.117188 14.265625 9.09375 14.265625 8.070312 Z M 14.265625 8.070312 "/>
<path style=" stroke:none;fill-rule:nonzero;fill:rgb(100%,100%,100%);fill-opacity:0.4;" d="M 1.828125 4.726562 C 1.765625 4.886719 1.726562 5.050781 1.730469 5.203125 C 1.730469 5.257812 1.730469 5.363281 1.730469 5.421875 C 1.730469 5.273438 1.769531 5.113281 1.828125 4.957031 L 7.300781 8.117188 L 7.5 8 Z M 1.730469 5.789062 C 1.730469 6.386719 1.730469 7.050781 1.734375 7.804688 C 1.730469 7.054688 1.730469 6.355469 1.730469 5.789062 Z M 1.734375 8.070312 C 1.734375 9.09375 1.730469 10.117188 1.730469 10.796875 C 1.730469 10.796875 1.730469 10.800781 1.730469 10.804688 C 1.730469 10.074219 1.734375 9.082031 1.734375 8.070312 Z M 1.734375 8.070312 "/>
<path style=" stroke:none;fill-rule:nonzero;fill:rgb(100%,100%,100%);fill-opacity:0.4;" d="M 8.25 1.019531 L 8.25 1.25 C 8.417969 1.273438 8.582031 1.324219 8.714844 1.402344 C 9.921875 2.105469 12.34375 3.503906 13.554688 4.195312 C 13.578125 4.210938 13.597656 4.222656 13.617188 4.234375 L 13.78125 4.140625 C 13.710938 4.074219 13.636719 4.011719 13.554688 3.964844 C 12.34375 3.273438 9.921875 1.875 8.714844 1.171875 C 8.582031 1.09375 8.417969 1.042969 8.25 1.019531 Z M 13.785156 4.144531 C 13.808594 4.167969 13.832031 4.1875 13.851562 4.210938 C 13.832031 4.1875 13.808594 4.167969 13.785156 4.144531 Z M 13.785156 4.144531 "/>
<path style=" stroke:none;fill-rule:nonzero;fill:rgb(100%,100%,100%);fill-opacity:0.4;" d="M 7.75 1.019531 C 7.582031 1.042969 7.417969 1.09375 7.285156 1.171875 C 6.078125 1.875 3.65625 3.273438 2.445312 3.964844 C 2.363281 4.011719 2.289062 4.074219 2.21875 4.140625 L 2.382812 4.234375 C 2.402344 4.222656 2.421875 4.210938 2.445312 4.195312 C 3.65625 3.503906 6.078125 2.105469 7.285156 1.402344 C 7.417969 1.324219 7.582031 1.273438 7.75 1.25 Z M 2.214844 4.144531 C 2.191406 4.167969 2.167969 4.1875 2.148438 4.210938 C 2.167969 4.1875 2.191406 4.167969 2.214844 4.144531 Z M 2.214844 4.144531 "/>
<path style=" stroke:none;fill-rule:nonzero;fill:rgb(0.784314%,0.784314%,0.784314%);fill-opacity:0.2;" d="M 14.269531 5.429688 C 14.269531 5.765625 14.269531 6.167969 14.269531 6.59375 C 14.269531 6.160156 14.269531 5.757812 14.269531 5.4375 C 14.269531 5.4375 14.269531 5.433594 14.269531 5.429688 Z M 8.699219 8.117188 L 8.5 8.234375 L 14.085938 11.457031 C 14.117188 11.398438 14.144531 11.335938 14.171875 11.277344 Z M 14.265625 8.429688 C 14.269531 9.183594 14.269531 9.847656 14.269531 10.445312 C 14.269531 9.875 14.269531 9.179688 14.265625 8.429688 Z M 14.257812 10.953125 C 14.257812 10.960938 14.257812 10.972656 14.253906 10.984375 C 14.257812 10.972656 14.257812 10.960938 14.257812 10.953125 Z M 14.222656 11.117188 C 14.21875 11.140625 14.210938 11.164062 14.203125 11.1875 C 14.210938 11.164062 14.21875 11.140625 14.222656 11.117188 Z M 14.222656 11.117188 "/>
<path style=" stroke:none;fill-rule:nonzero;fill:rgb(0.784314%,0.784314%,0.784314%);fill-opacity:0.2;" d="M 1.730469 5.429688 C 1.730469 5.433594 1.730469 5.433594 1.730469 5.4375 C 1.730469 5.753906 1.730469 6.15625 1.730469 6.589844 C 1.730469 6.167969 1.730469 5.765625 1.730469 5.429688 Z M 7.300781 8.117188 L 1.828125 11.277344 C 1.855469 11.335938 1.882812 11.398438 1.914062 11.457031 L 7.5 8.234375 Z M 1.742188 10.953125 C 1.742188 10.960938 1.742188 10.972656 1.746094 10.984375 C 1.742188 10.972656 1.742188 10.960938 1.742188 10.953125 Z M 1.777344 11.117188 C 1.78125 11.140625 1.789062 11.164062 1.796875 11.1875 C 1.789062 11.164062 1.78125 11.140625 1.777344 11.117188 Z M 1.777344 11.117188 "/>
<path style=" stroke:none;fill-rule:nonzero;fill:rgb(0.784314%,0.784314%,0.784314%);fill-opacity:0.2;" d="M 13.921875 4.296875 L 8.46875 7.445312 L 8.46875 7.675781 L 14.039062 4.460938 C 14.003906 4.402344 13.964844 4.347656 13.921875 4.296875 Z M 13.921875 4.296875 "/>
<path style=" stroke:none;fill-rule:nonzero;fill:rgb(0.784314%,0.784314%,0.784314%);fill-opacity:0.2;" d="M 2.078125 4.296875 C 2.035156 4.347656 1.996094 4.402344 1.960938 4.460938 L 7.53125 7.675781 L 7.53125 7.445312 Z M 2.078125 4.296875 "/>
<path style=" stroke:none;fill-rule:nonzero;fill:rgb(38.039216%,38.039216%,38.039216%);fill-opacity:1;" d="M 8.511719 3.125 C 9.371094 3.625 11.101562 4.625 11.964844 5.121094 C 12.25 5.28125 12.476562 5.675781 12.476562 6.003906 C 12.472656 7 12.472656 9 12.476562 9.996094 C 12.476562 10.324219 12.25 10.71875 11.964844 10.878906 C 11.101562 11.375 9.371094 12.375 8.511719 12.875 C 8.226562 13.039062 7.773438 13.039062 7.488281 12.875 C 6.628906 12.375 4.898438 11.375 4.035156 10.878906 C 3.75 10.71875 3.523438 10.324219 3.523438 9.996094 C 3.527344 9 3.527344 7 3.523438 6.003906 C 3.523438 5.675781 3.75 5.28125 4.035156 5.121094 C 4.898438 4.625 6.628906 3.625 7.488281 3.125 C 7.773438 2.960938 8.226562 2.960938 8.511719 3.125 Z M 8.511719 3.125 "/>
<path style=" stroke:none;fill-rule:nonzero;fill:rgb(100%,79.215688%,15.686275%);fill-opacity:1;" d="M 8.3125 5 C 8.84375 5.308594 9.910156 5.921875 10.441406 6.226562 C 10.617188 6.328125 10.757812 6.570312 10.753906 6.773438 C 10.753906 7.386719 10.753906 8.613281 10.753906 9.226562 C 10.753906 9.429688 10.617188 9.671875 10.441406 9.773438 C 9.910156 10.078125 8.84375 10.691406 8.3125 11 C 8.140625 11.101562 7.859375 11.101562 7.6875 11 C 7.15625 10.691406 6.089844 10.078125 5.558594 9.773438 C 5.382812 9.671875 5.246094 9.429688 5.246094 9.226562 C 5.246094 8.613281 5.246094 7.386719 5.246094 6.773438 C 5.242188 6.570312 5.382812 6.328125 5.558594 6.226562 C 6.089844 5.921875 7.15625 5.308594 7.6875 5 C 7.859375 4.898438 8.140625 4.898438 8.3125 5 Z M 8.3125 5 "/>
<path style=" stroke:none;fill-rule:nonzero;fill:rgb(0.784314%,0.784314%,0.784314%);fill-opacity:0.4;" d="M 5.246094 6.765625 C 5.246094 6.765625 5.246094 6.769531 5.246094 6.773438 C 5.246094 7.050781 5.246094 7.46875 5.246094 7.882812 C 5.246094 7.464844 5.246094 7.089844 5.246094 6.765625 Z M 10.753906 6.765625 C 10.753906 7.089844 10.753906 7.464844 10.753906 7.882812 C 10.753906 7.46875 10.753906 7.050781 10.753906 6.773438 C 10.753906 6.769531 10.753906 6.765625 10.753906 6.765625 Z M 5.246094 9.003906 C 5.246094 9.070312 5.246094 9.171875 5.246094 9.226562 C 5.242188 9.429688 5.382812 9.671875 5.558594 9.773438 C 6.089844 10.078125 7.15625 10.691406 7.6875 11 C 7.859375 11.101562 8.140625 11.101562 8.3125 11 C 8.84375 10.691406 9.910156 10.078125 10.441406 9.773438 C 10.617188 9.671875 10.757812 9.429688 10.753906 9.226562 C 10.753906 9.171875 10.753906 9.070312 10.753906 9.003906 C 10.753906 9.203125 10.613281 9.441406 10.441406 9.539062 C 9.910156 9.84375 8.84375 10.460938 8.3125 10.769531 C 8.140625 10.871094 7.859375 10.871094 7.6875 10.769531 C 7.15625 10.460938 6.089844 9.84375 5.558594 9.539062 C 5.386719 9.441406 5.246094 9.203125 5.246094 9.003906 Z M 5.246094 9.003906 "/>
<path style=" stroke:none;fill-rule:nonzero;fill:rgb(100%,100%,100%);fill-opacity:0.4;" d="M 8 4.921875 C 7.886719 4.925781 7.773438 4.949219 7.6875 5 C 7.15625 5.308594 6.089844 5.921875 5.558594 6.226562 C 5.382812 6.328125 5.242188 6.570312 5.246094 6.773438 C 5.246094 6.828125 5.246094 6.929688 5.246094 6.996094 C 5.246094 6.796875 5.386719 6.558594 5.558594 6.460938 C 6.089844 6.15625 7.15625 5.539062 7.6875 5.230469 C 7.859375 5.128906 8.140625 5.128906 8.3125 5.230469 C 8.84375 5.539062 9.910156 6.15625 10.441406 6.460938 C 10.613281 6.558594 10.753906 6.796875 10.753906 6.996094 C 10.753906 6.929688 10.753906 6.828125 10.753906 6.773438 C 10.757812 6.570312 10.617188 6.328125 10.441406 6.226562 C 9.910156 5.921875 8.84375 5.308594 8.3125 5 C 8.226562 4.949219 8.113281 4.921875 8 4.921875 Z M 5.246094 8.117188 C 5.246094 8.53125 5.246094 8.949219 5.246094 9.226562 C 5.246094 9.230469 5.246094 9.234375 5.246094 9.234375 C 5.246094 8.910156 5.246094 8.535156 5.246094 8.117188 Z M 10.753906 8.117188 C 10.753906 8.535156 10.753906 8.910156 10.753906 9.234375 C 10.753906 9.234375 10.753906 9.230469 10.753906 9.226562 C 10.753906 8.949219 10.753906 8.53125 10.753906 8.117188 Z M 10.753906 8.117188 "/>
<path style=" stroke:none;fill-rule:nonzero;fill:rgb(0.784314%,0.784314%,0.784314%);fill-opacity:0.2;" d="M 5.246094 7 C 5.246094 7 5.246094 7.003906 5.246094 7.003906 C 5.246094 7.28125 5.246094 7.703125 5.246094 8.117188 C 5.246094 7.699219 5.246094 7.324219 5.246094 7 Z M 10.753906 7 C 10.753906 7.324219 10.753906 7.699219 10.753906 8.117188 C 10.753906 7.703125 10.753906 7.28125 10.753906 7.003906 C 10.753906 7.003906 10.753906 7 10.753906 7 Z M 5.246094 9.238281 C 5.246094 9.300781 5.246094 9.40625 5.246094 9.460938 C 5.242188 9.664062 5.382812 9.90625 5.558594 10.003906 C 6.089844 10.308594 7.15625 10.925781 7.6875 11.234375 C 7.859375 11.335938 8.140625 11.335938 8.3125 11.234375 C 8.84375 10.925781 9.910156 10.308594 10.441406 10.003906 C 10.617188 9.90625 10.757812 9.664062 10.753906 9.460938 C 10.753906 9.40625 10.753906 9.300781 10.753906 9.238281 C 10.753906 9.4375 10.613281 9.675781 10.441406 9.773438 C 9.910156 10.078125 8.84375 10.695312 8.3125 11.003906 C 8.140625 11.105469 7.859375 11.105469 7.6875 11.003906 C 7.15625 10.695312 6.089844 10.078125 5.558594 9.773438 C 5.386719 9.675781 5.246094 9.4375 5.246094 9.238281 Z M 5.246094 9.238281 "/>
<path style=" stroke:none;fill-rule:nonzero;fill:rgb(0%,0%,0%);fill-opacity:0.4;" d="M 7.75 3.027344 C 7.65625 3.046875 7.566406 3.082031 7.488281 3.125 C 6.628906 3.625 4.898438 4.625 4.03125 5.121094 C 3.957031 5.164062 3.886719 5.226562 3.820312 5.296875 L 3.992188 5.398438 C 4.007812 5.390625 4.019531 5.378906 4.03125 5.371094 C 4.898438 4.875 6.628906 3.875 7.488281 3.375 C 7.566406 3.332031 7.65625 3.296875 7.75 3.277344 Z M 8.25 3.027344 L 8.25 3.277344 C 8.34375 3.296875 8.433594 3.332031 8.511719 3.375 C 9.371094 3.875 11.101562 4.875 11.96875 5.371094 C 11.980469 5.378906 11.992188 5.390625 12.007812 5.398438 L 12.179688 5.296875 C 12.113281 5.226562 12.042969 5.164062 11.96875 5.121094 C 11.101562 4.625 9.371094 3.625 8.511719 3.125 C 8.433594 3.082031 8.34375 3.046875 8.25 3.027344 Z M 3.570312 5.730469 C 3.539062 5.824219 3.523438 5.914062 3.523438 6.003906 C 3.523438 6.066406 3.523438 6.179688 3.523438 6.246094 C 3.523438 6.09375 3.574219 5.929688 3.65625 5.78125 Z M 12.429688 5.730469 L 12.34375 5.78125 C 12.425781 5.929688 12.476562 6.09375 12.476562 6.246094 C 12.476562 6.179688 12.476562 6.066406 12.476562 6.003906 C 12.476562 5.914062 12.460938 5.824219 12.429688 5.730469 Z M 3.523438 8.125 C 3.523438 8.824219 3.523438 9.527344 3.523438 9.996094 C 3.523438 9.996094 3.523438 10 3.523438 10.003906 C 3.523438 9.480469 3.527344 8.828125 3.523438 8.125 Z M 12.476562 8.125 C 12.472656 8.828125 12.476562 9.480469 12.476562 10.003906 C 12.476562 10 12.476562 9.996094 12.476562 9.996094 C 12.476562 9.527344 12.476562 8.824219 12.476562 8.125 Z M 12.476562 8.125 "/>
<path style=" stroke:none;fill-rule:nonzero;fill:rgb(99.215686%,99.215686%,99.215686%);fill-opacity:0.4;" d="M 3.523438 6.238281 C 3.523438 6.238281 3.523438 6.242188 3.523438 6.242188 C 3.523438 6.351562 3.523438 6.507812 3.523438 6.636719 C 3.523438 6.515625 3.523438 6.347656 3.523438 6.238281 Z M 12.476562 6.238281 C 12.476562 6.347656 12.476562 6.515625 12.476562 6.636719 C 12.476562 6.507812 12.476562 6.351562 12.476562 6.242188 C 12.476562 6.242188 12.476562 6.238281 12.476562 6.238281 Z M 3.523438 9.992188 C 3.523438 10.058594 3.523438 10.175781 3.523438 10.234375 C 3.523438 10.253906 3.527344 10.273438 3.527344 10.292969 L 3.574219 10.265625 C 3.542969 10.175781 3.523438 10.082031 3.523438 9.992188 Z M 12.476562 9.992188 C 12.476562 10.082031 12.457031 10.175781 12.425781 10.265625 L 12.472656 10.292969 C 12.472656 10.273438 12.476562 10.253906 12.476562 10.234375 C 12.476562 10.175781 12.476562 10.058594 12.476562 9.992188 Z M 3.824219 10.699219 L 3.777344 10.726562 L 3.695312 10.773438 C 3.785156 10.917969 3.902344 11.042969 4.03125 11.117188 C 4.898438 11.613281 6.628906 12.613281 7.488281 13.113281 C 7.566406 13.160156 7.65625 13.191406 7.75 13.210938 L 7.75 12.960938 C 7.65625 12.941406 7.566406 12.910156 7.488281 12.863281 C 6.628906 12.363281 4.898438 11.363281 4.03125 10.867188 C 3.957031 10.828125 3.890625 10.769531 3.824219 10.699219 Z M 12.175781 10.699219 C 12.109375 10.769531 12.042969 10.828125 11.96875 10.867188 C 11.101562 11.363281 9.371094 12.363281 8.511719 12.863281 C 8.433594 12.910156 8.34375 12.941406 8.25 12.960938 L 8.25 13.210938 C 8.34375 13.191406 8.433594 13.160156 8.511719 13.113281 C 9.371094 12.613281 11.101562 11.613281 11.96875 11.117188 C 12.097656 11.042969 12.214844 10.917969 12.304688 10.773438 Z M 12.175781 10.699219 "/>
<path style=" stroke:none;fill-rule:nonzero;fill:rgb(0%,0%,0%);fill-opacity:0.2;" d="M 1.730469 5.570312 C 1.730469 5.574219 1.730469 5.578125 1.730469 5.582031 C 1.730469 6.230469 1.730469 7.210938 1.734375 8.1875 C 1.734375 7.207031 1.730469 6.304688 1.730469 5.570312 Z M 14.269531 5.570312 C 14.269531 6.304688 14.265625 7.207031 14.265625 8.1875 C 14.269531 7.210938 14.269531 6.230469 14.269531 5.582031 C 14.269531 5.578125 14.269531 5.574219 14.269531 5.570312 Z M 1.730469 10.804688 C 1.730469 10.910156 1.730469 11.078125 1.730469 11.171875 C 1.726562 11.628906 2.046875 12.179688 2.445312 12.410156 C 3.65625 13.101562 6.078125 14.503906 7.285156 15.203125 C 7.679688 15.433594 8.320312 15.433594 8.714844 15.203125 C 9.921875 14.503906 12.34375 13.101562 13.554688 12.410156 C 13.953125 12.179688 14.273438 11.628906 14.269531 11.171875 C 14.269531 11.078125 14.269531 10.910156 14.269531 10.804688 C 14.265625 11.261719 13.949219 11.808594 13.554688 12.03125 C 12.34375 12.726562 9.921875 14.125 8.714844 14.828125 C 8.320312 15.058594 7.679688 15.058594 7.285156 14.828125 C 6.078125 14.125 3.65625 12.726562 2.445312 12.035156 C 2.050781 11.808594 1.734375 11.261719 1.730469 10.804688 Z M 1.730469 10.804688 "/>
<path style=" stroke:none;fill-rule:nonzero;fill:url(#linear0);" d="M 8.714844 1.171875 C 9.921875 1.875 12.34375 3.273438 13.554688 3.964844 C 13.953125 4.195312 14.273438 4.746094 14.269531 5.203125 C 14.265625 6.601562 14.265625 9.398438 14.269531 10.796875 C 14.273438 11.253906 13.953125 11.804688 13.554688 12.035156 C 12.34375 12.726562 9.921875 14.125 8.714844 14.828125 C 8.320312 15.058594 7.679688 15.058594 7.285156 14.828125 C 6.078125 14.125 3.65625 12.726562 2.445312 12.035156 C 2.046875 11.804688 1.726562 11.253906 1.730469 10.796875 C 1.734375 9.398438 1.734375 6.601562 1.730469 5.203125 C 1.726562 4.746094 2.046875 4.195312 2.445312 3.964844 C 3.65625 3.273438 6.078125 1.875 7.285156 1.171875 C 7.679688 0.941406 8.320312 0.941406 8.714844 1.171875 Z M 8.714844 1.171875 "/>
</g>
</svg>
