
<svg xmlns="http://www.w3.org/2000/svg" xmlns:xlink="http://www.w3.org/1999/xlink" width="64" height="64" viewBox="0 0 64 64" version="1.1">
<defs>
<linearGradient id="linear0" gradientUnits="userSpaceOnUse" x1="31.999998" y1="60" x2="31.999998" y2="3.999999" >
<stop offset="0" style="stop-color:rgb(0%,0%,0%);stop-opacity:0.2;"/>
<stop offset="1" style="stop-color:rgb(100%,100%,100%);stop-opacity:0;"/>
</linearGradient>
</defs>
<g id="surface1">
<path style=" stroke:none;fill-rule:nonzero;fill:rgb(83.92157%,30.980393%,12.156863%);fill-opacity:1;" d="M 38 8 C 36.511719 8 35.222656 8.804688 34.53125 10 L 10 10 C 7.785156 10 6 11.785156 6 14 L 6 20 C 6 22.214844 7.785156 24 10 24 L 54 24 C 56.214844 24 58 22.214844 58 20 L 58 12 C 58 9.785156 56.214844 8 54 8 Z M 38 8 "/>
<path style=" stroke:none;fill-rule:nonzero;fill:rgb(100%,100%,100%);fill-opacity:0.4;" d="M 38 8 C 36.511719 8 35.222656 8.804688 34.53125 10 L 10 10 C 7.785156 10 6 11.785156 6 14 L 6 14.074219 C 6.210938 12.058594 7.90625 10.5 9.976562 10.5 L 34.511719 10.5 C 35.199219 9.304688 36.488281 8.5 37.976562 8.5 L 53.976562 8.5 C 56.191406 8.5 57.976562 10.285156 57.976562 12.5 L 57.976562 20.421875 C 57.992188 20.285156 58 20.144531 58 20 L 58 12 C 58 9.785156 56.214844 8 54 8 Z M 38 8 "/>
<path style=" stroke:none;fill-rule:nonzero;fill:rgb(89.411765%,42.745098%,26.274511%);fill-opacity:1;" d="M 8 12 C 5.785156 12 4 13.785156 4 16 L 4 52 C 4 54.214844 5.785156 56 8 56 L 56 56 C 58.214844 56 60 54.214844 60 52 L 60 20 C 60 17.785156 58.214844 16 56 16 L 38.050781 16 C 38.035156 16 38.015625 16 38 16 C 36.890625 16 36 15.109375 36 14 C 36 12.890625 35.109375 12 34 12 Z M 8 12 "/>
<path style=" stroke:none;fill-rule:nonzero;fill:rgb(100%,100%,100%);fill-opacity:0.4;" d="M 8 12 C 5.785156 12 4 13.785156 4 16 L 4 17 C 4 14.785156 5.785156 13 8 13 L 34 13 C 35.109375 13 36 13.890625 36 15 C 36 16.109375 36.890625 17 38 17 C 38.015625 17 38.035156 17 38.050781 17 L 56 17 C 58.214844 17 60 18.785156 60 21 L 60 20 C 60 17.785156 58.214844 16 56 16 L 38.050781 16 C 38.035156 16 38.015625 16 38 16 C 36.890625 16 36 15.109375 36 14 C 36 12.890625 35.109375 12 34 12 Z M 8 12 "/>
<path style=" stroke:none;fill-rule:nonzero;fill:rgb(0%,0%,0%);fill-opacity:0.4;" d="M 4 51 L 4 52 C 4 54.214844 5.785156 56 8 56 L 56 56 C 58.214844 56 60 54.214844 60 52 L 60 51 C 60 53.214844 58.214844 55 56 55 L 8 55 C 5.785156 55 4 53.214844 4 51 Z M 4 51 "/>
<path style=" stroke:none;fill-rule:nonzero;fill:rgb(0%,0%,0%);fill-opacity:0.2;" d="M 4 52 L 4 53.5 C 4 55.714844 5.785156 57.5 8 57.5 L 56 57.5 C 58.214844 57.5 60 55.714844 60 53.5 L 60 52 C 60 54.214844 58.214844 56 56 56 L 8 56 C 5.785156 56 4 54.214844 4 52 Z M 4 52 "/>
<path style=" stroke:none;fill-rule:nonzero;fill:rgb(93.333334%,64.313728%,54.11765%);fill-opacity:1;" d="M 29.472656 24 C 29.210938 24.011719 29 24.230469 29 24.5 L 29 26 L 28 26 C 25.785156 26 24 27.785156 24 30 L 24 31 C 24 33.214844 25.785156 35 28 35 L 32 35 C 33.109375 35 34 35.890625 34 37 L 34 38 C 34 39.109375 33.109375 40 32 40 L 28 40 C 26.890625 40 26 39.109375 26 38 C 26 37.722656 25.777344 37.5 25.5 37.5 L 24.5 37.5 C 24.222656 37.5 24 37.722656 24 38 C 24 38.011719 24 38.019531 24 38.03125 C 24.015625 40.230469 25.792969 42 28 42 L 29 42 L 29 43.5 C 29 43.777344 29.222656 44 29.5 44 L 30.5 44 C 30.777344 44 31 43.777344 31 43.5 L 31 42 L 32 42 C 34.214844 42 36 40.214844 36 38 L 36 37 C 36 34.785156 34.214844 33 32 33 L 28 33 C 26.890625 33 26 32.109375 26 31 L 26 30 C 26 28.890625 26.890625 28 28 28 L 32 28 C 33.097656 28 33.988281 28.878906 34 29.976562 C 34 29.980469 34 29.980469 34 29.988281 C 34 29.992188 34 29.996094 34 30 C 34 30.277344 34.222656 30.5 34.5 30.5 L 35.5 30.5 C 35.777344 30.5 36 30.277344 36 30 C 36 27.785156 34.214844 26 32 26 L 31 26 L 31 24.5 C 31 24.222656 30.777344 24 30.5 24 L 29.5 24 C 29.492188 24 29.484375 24 29.476562 24 Z M 36.472656 42 C 36.210938 42.011719 36 42.230469 36 42.5 L 36 43.5 C 36 43.777344 36.222656 44 36.5 44 L 39.5 44 C 39.777344 44 40 43.777344 40 43.5 L 40 42.5 C 40 42.222656 39.777344 42 39.5 42 L 36.5 42 C 36.492188 42 36.484375 42 36.476562 42 Z M 36.472656 42 "/>
<path style=" stroke:none;fill-rule:nonzero;fill:rgb(99.607843%,99.607843%,99.607843%);fill-opacity:0.4;" d="M 29.472656 24 C 29.210938 24.015625 29 24.230469 29 24.5 L 29 25 C 29 24.730469 29.210938 24.515625 29.472656 24.5 L 29.472656 24.503906 C 29.484375 24.5 29.492188 24.503906 29.5 24.503906 L 30.5 24.503906 C 30.777344 24.503906 31 24.726562 31 25.003906 L 31 24.5 C 31 24.222656 30.777344 24 30.5 24 L 29.5 24 C 29.492188 24 29.484375 24 29.472656 24 Z M 28 26 C 25.785156 26 24 27.785156 24 30 L 24 30.5 C 24 28.285156 25.785156 26.5 28 26.5 L 29 26.5 L 29 26 Z M 31 26 L 31 26.503906 L 32 26.503906 C 34.089844 26.503906 35.792969 28.089844 35.980469 30.128906 C 35.992188 30.085938 36 30.046875 36 30 C 36 27.785156 34.214844 26 32 26 Z M 26 31 L 26 31.5 C 26 32.609375 26.890625 33.5 28 33.5 L 32 33.5 C 34.214844 33.5 36 35.285156 36 37.5 L 36 37 C 36 34.785156 34.214844 33 32 33 L 28 33 C 26.890625 33 26 32.109375 26 31 Z M 24.5 37.5 C 24.222656 37.5 24 37.722656 24 38 C 24 38.011719 24 38.019531 24 38.03125 C 24 38.140625 24.011719 38.253906 24.019531 38.363281 C 24.078125 38.152344 24.273438 38 24.5 38 L 25.5 38 C 25.777344 38 26 38.222656 26 38.5 C 26 39.609375 26.890625 40.5 28 40.5 L 32 40.5 C 33.109375 40.5 34 39.609375 34 38.5 L 34 38 C 34 39.109375 33.109375 40 32 40 L 28 40 C 26.890625 40 26 39.109375 26 38 C 26 37.722656 25.777344 37.5 25.5 37.5 Z M 36.476562 42 C 36.210938 42.015625 36 42.230469 36 42.5 L 36 43 C 36 42.730469 36.210938 42.515625 36.476562 42.5 C 36.484375 42.5 36.492188 42.5 36.5 42.5 L 39.5 42.5 C 39.777344 42.5 40 42.722656 40 43 L 40 42.5 C 40 42.222656 39.777344 42 39.5 42 L 36.5 42 C 36.492188 42 36.484375 42 36.476562 42 Z M 36.476562 42 "/>
<path style=" stroke:none;fill-rule:nonzero;fill:rgb(0%,0%,0%);fill-opacity:0.4;" d="M 28 28 C 26.890625 28 26 28.890625 26 30 L 26 30.5 C 26 29.390625 26.890625 28.5 28 28.5 L 32 28.5 C 33.097656 28.5 33.988281 29.378906 34 30.476562 C 34 30.476562 34 30.480469 34 30.484375 C 34 30.488281 34 30.492188 34 30.5 C 34 30.777344 34.222656 31 34.5 31 L 35.5 31 C 35.777344 31 36 30.777344 36 30.5 C 36 30.378906 35.992188 30.257812 35.980469 30.136719 C 35.921875 30.347656 35.730469 30.5 35.5 30.5 L 34.5 30.5 C 34.222656 30.5 34 30.277344 34 30 C 34 29.992188 34 29.988281 34 29.984375 C 34 29.980469 34 29.976562 34 29.972656 C 33.984375 28.878906 33.097656 28 32 28 Z M 24 31 L 24 31.5 C 24 33.714844 25.785156 35.5 28 35.5 L 32 35.5 C 33.109375 35.5 34 36.390625 34 37.5 L 34 37 C 34 35.890625 33.109375 35 32 35 L 28 35 C 25.785156 35 24 33.214844 24 31 Z M 36 38 C 36 40.214844 34.214844 42 32 42 L 31 42 L 31 42.5 L 32 42.5 C 34.214844 42.5 36 40.714844 36 38.5 Z M 24.019531 38.367188 C 24.007812 38.410156 24 38.453125 24 38.5 C 24 38.511719 24 38.519531 24 38.53125 C 24.015625 40.734375 25.792969 42.5 28 42.5 L 29 42.5 L 29 42 L 28 42 C 25.90625 42 24.203125 40.410156 24.015625 38.367188 Z M 29 43.5 L 29 44 C 29 44.277344 29.222656 44.5 29.5 44.5 L 30.5 44.5 C 30.777344 44.5 31 44.277344 31 44 L 31 43.5 C 31 43.777344 30.777344 44 30.5 44 L 29.5 44 C 29.222656 44 29 43.777344 29 43.5 Z M 36 43.5 L 36 44 C 36 44.277344 36.222656 44.5 36.5 44.5 L 39.5 44.5 C 39.777344 44.5 40 44.277344 40 44 L 40 43.5 C 40 43.777344 39.777344 44 39.5 44 L 36.5 44 C 36.222656 44 36 43.777344 36 43.5 Z M 36 43.5 "/>
<path style=" stroke:none;fill-rule:nonzero;fill:url(#linear0);" d="M 38 8 C 36.511719 8 35.222656 8.804688 34.53125 10 L 10 10 C 8.371094 10 6.976562 10.960938 6.351562 12.351562 C 4.960938 12.976562 4 14.371094 4 16 L 4 52 C 4 54.214844 5.785156 56 8 56 L 56 56 C 58.214844 56 60 54.214844 60 52 L 60 20 C 60 18.515625 59.195312 17.226562 58 16.535156 L 58 12 C 58 9.785156 56.214844 8 54 8 Z M 38 8 "/>
</g>
</svg>
