
<svg xmlns="http://www.w3.org/2000/svg" xmlns:xlink="http://www.w3.org/1999/xlink" width="64" height="64" viewBox="0 0 64 64" version="1.1">
<defs>
<linearGradient id="linear0" gradientUnits="userSpaceOnUse" x1="31.999998" y1="60" x2="31.999998" y2="3.999999" >
<stop offset="0" style="stop-color:rgb(0%,0%,0%);stop-opacity:0.2;"/>
<stop offset="1" style="stop-color:rgb(100%,100%,100%);stop-opacity:0;"/>
</linearGradient>
</defs>
<g id="surface1">
<path style=" stroke:none;fill-rule:nonzero;fill:rgb(83.92157%,30.980393%,12.156863%);fill-opacity:1;" d="M 38 8 C 36.511719 8 35.222656 8.804688 34.53125 10 L 10 10 C 7.785156 10 6 11.785156 6 14 L 6 20 C 6 22.214844 7.785156 24 10 24 L 54 24 C 56.214844 24 58 22.214844 58 20 L 58 12 C 58 9.785156 56.214844 8 54 8 Z M 38 8 "/>
<path style=" stroke:none;fill-rule:nonzero;fill:rgb(100%,100%,100%);fill-opacity:0.4;" d="M 38 8 C 36.511719 8 35.222656 8.804688 34.53125 10 L 10 10 C 7.785156 10 6 11.785156 6 14 L 6 14.074219 C 6.210938 12.058594 7.90625 10.5 9.976562 10.5 L 34.511719 10.5 C 35.199219 9.304688 36.488281 8.5 37.976562 8.5 L 53.976562 8.5 C 56.191406 8.5 57.976562 10.285156 57.976562 12.5 L 57.976562 20.421875 C 57.992188 20.285156 58 20.144531 58 20 L 58 12 C 58 9.785156 56.214844 8 54 8 Z M 38 8 "/>
<path style=" stroke:none;fill-rule:nonzero;fill:rgb(89.411765%,42.745098%,26.274511%);fill-opacity:1;" d="M 8 12 C 5.785156 12 4 13.785156 4 16 L 4 52 C 4 54.214844 5.785156 56 8 56 L 56 56 C 58.214844 56 60 54.214844 60 52 L 60 20 C 60 17.785156 58.214844 16 56 16 L 38.050781 16 C 38.035156 16 38.015625 16 38 16 C 36.890625 16 36 15.109375 36 14 C 36 12.890625 35.109375 12 34 12 Z M 8 12 "/>
<path style=" stroke:none;fill-rule:nonzero;fill:rgb(100%,100%,100%);fill-opacity:0.4;" d="M 8 12 C 5.785156 12 4 13.785156 4 16 L 4 17 C 4 14.785156 5.785156 13 8 13 L 34 13 C 35.109375 13 36 13.890625 36 15 C 36 16.109375 36.890625 17 38 17 C 38.015625 17 38.035156 17 38.050781 17 L 56 17 C 58.214844 17 60 18.785156 60 21 L 60 20 C 60 17.785156 58.214844 16 56 16 L 38.050781 16 C 38.035156 16 38.015625 16 38 16 C 36.890625 16 36 15.109375 36 14 C 36 12.890625 35.109375 12 34 12 Z M 8 12 "/>
<path style=" stroke:none;fill-rule:nonzero;fill:rgb(0%,0%,0%);fill-opacity:0.4;" d="M 4 51 L 4 52 C 4 54.214844 5.785156 56 8 56 L 56 56 C 58.214844 56 60 54.214844 60 52 L 60 51 C 60 53.214844 58.214844 55 56 55 L 8 55 C 5.785156 55 4 53.214844 4 51 Z M 4 51 "/>
<path style=" stroke:none;fill-rule:nonzero;fill:rgb(0%,0%,0%);fill-opacity:0.2;" d="M 4 52 L 4 53.5 C 4 55.714844 5.785156 57.5 8 57.5 L 56 57.5 C 58.214844 57.5 60 55.714844 60 53.5 L 60 52 C 60 54.214844 58.214844 56 56 56 L 8 56 C 5.785156 56 4 54.214844 4 52 Z M 4 52 "/>
<path style=" stroke:none;fill-rule:nonzero;fill:rgb(93.333334%,64.313728%,54.11765%);fill-opacity:1;" d="M 22.5 24.6875 L 22.5 40.429688 C 22.5 40.980469 22.871094 41.464844 23.410156 41.621094 L 31.089844 43.867188 C 31.683594 44.042969 32.316406 44.042969 32.910156 43.867188 L 40.589844 41.621094 C 41.128906 41.464844 41.5 40.980469 41.5 40.429688 L 41.5 24.6875 C 41.5 24.46875 41.394531 24.261719 41.214844 24.132812 C 41.035156 24.003906 40.804688 23.964844 40.589844 24.027344 L 32.910156 26.273438 C 32.316406 26.445312 31.683594 26.445312 31.089844 26.273438 L 23.410156 24.027344 C 23.195312 23.964844 22.964844 24.003906 22.785156 24.132812 C 22.605469 24.261719 22.5 24.46875 22.5 24.6875 Z M 22.5 24.6875 "/>
<path style=" stroke:none;fill-rule:nonzero;fill:rgb(99.607843%,99.607843%,99.607843%);fill-opacity:0.4;" d="M 23.226562 23.996094 C 23.035156 23.992188 22.847656 24.0625 22.714844 24.191406 C 22.578125 24.320312 22.5 24.5 22.5 24.6875 L 22.5 25.183594 C 22.5 24.964844 22.605469 24.761719 22.785156 24.628906 C 22.964844 24.5 23.195312 24.460938 23.410156 24.523438 L 31.089844 26.769531 C 31.683594 26.941406 32.316406 26.941406 32.910156 26.769531 L 40.589844 24.523438 C 40.804688 24.460938 41.035156 24.5 41.214844 24.628906 C 41.394531 24.761719 41.5 24.964844 41.5 25.183594 L 41.5 24.6875 C 41.5 24.46875 41.394531 24.261719 41.214844 24.132812 C 41.035156 24.003906 40.804688 23.960938 40.589844 24.027344 L 32.910156 26.273438 C 32.316406 26.445312 31.683594 26.445312 31.089844 26.273438 L 23.410156 24.027344 C 23.351562 24.007812 23.289062 23.996094 23.226562 23.996094 Z M 23.226562 23.996094 "/>
<path style=" stroke:none;fill-rule:nonzero;fill:rgb(0.784314%,0.784314%,0.784314%);fill-opacity:0.4;" d="M 22.5 40.441406 L 22.5 40.9375 C 22.5 41.488281 22.871094 41.972656 23.410156 42.128906 L 31.089844 44.375 C 31.683594 44.546875 32.316406 44.546875 32.910156 44.375 L 40.589844 42.128906 C 41.128906 41.972656 41.5 41.488281 41.5 40.9375 L 41.5 40.441406 C 41.5 40.988281 41.128906 41.476562 40.589844 41.632812 L 32.910156 43.878906 C 32.316406 44.050781 31.683594 44.050781 31.089844 43.878906 L 23.410156 41.632812 C 22.871094 41.476562 22.5 40.988281 22.5 40.441406 Z M 22.5 40.441406 "/>
<path style=" stroke:none;fill-rule:nonzero;fill:url(#linear0);" d="M 38 8 C 36.511719 8 35.222656 8.804688 34.53125 10 L 10 10 C 8.371094 10 6.976562 10.960938 6.351562 12.351562 C 4.960938 12.976562 4 14.371094 4 16 L 4 52 C 4 54.214844 5.785156 56 8 56 L 56 56 C 58.214844 56 60 54.214844 60 52 L 60 20 C 60 18.515625 59.195312 17.226562 58 16.535156 L 58 12 C 58 9.785156 56.214844 8 54 8 Z M 38 8 "/>
</g>
</svg>
