
<svg xmlns="http://www.w3.org/2000/svg" xmlns:xlink="http://www.w3.org/1999/xlink" width="64" height="64" viewBox="0 0 64 64" version="1.1">
<defs>
<linearGradient id="linear0" gradientUnits="userSpaceOnUse" x1="31.999998" y1="60" x2="31.999998" y2="4" gradientTransform="matrix(1,0,0,1,-0.00000272126,0)">
<stop offset="0" style="stop-color:rgb(0%,0%,0%);stop-opacity:0.2;"/>
<stop offset="1" style="stop-color:rgb(100%,100%,100%);stop-opacity:0;"/>
</linearGradient>
</defs>
<g id="surface1">
<path style=" stroke:none;fill-rule:nonzero;fill:rgb(38.039216%,38.039216%,38.039216%);fill-opacity:1;" d="M 40 4 L 13 4 C 11.339844 4 10 5.339844 10 7 L 10 57 C 10 58.660156 11.339844 60 13 60 L 51 60 C 52.660156 60 54 58.660156 54 57 L 54 18 Z M 40 4 "/>
<path style=" stroke:none;fill-rule:nonzero;fill:rgb(0%,0%,0%);fill-opacity:0.4;" d="M 40 15 L 40 16 C 40 17.660156 41.339844 19 43 19 L 54 19 L 53 18 L 43 18 C 41.339844 18 40 16.660156 40 15 Z M 40 15 "/>
<path style=" stroke:none;fill-rule:nonzero;fill:rgb(45.882353%,45.882353%,45.882353%);fill-opacity:0.996078;" d="M 54 18 L 40 4 L 40 15 C 40 16.660156 41.339844 18 43 18 Z M 54 18 "/>
<path style=" stroke:none;fill-rule:nonzero;fill:rgb(100%,100%,100%);fill-opacity:0.4;" d="M 13 4 C 11.339844 4 10 5.339844 10 7 L 10 8 C 10 6.339844 11.339844 5 13 5 L 40 5 L 54 19 L 54 18 L 40 4 Z M 13 4 "/>
<path style=" stroke:none;fill-rule:nonzero;fill:rgb(0%,0%,0%);fill-opacity:0.2;" d="M 10 56.984375 L 10 58.5 C 10 60.164062 11.339844 61.5 13 61.5 L 51 61.5 C 52.660156 61.5 54 60.164062 54 58.5 L 54 56.984375 C 54 58.648438 52.660156 59.984375 51 59.984375 L 13 59.984375 C 11.339844 59.984375 10 58.648438 10 56.984375 Z M 10 56.984375 "/>
<path style=" stroke:none;fill-rule:nonzero;fill:rgb(0%,0%,0%);fill-opacity:0.4;" d="M 10 56.125 L 10 57 C 10 58.660156 11.339844 60 13 60 L 51 60 C 52.660156 60 54 58.660156 54 57 L 54 56.125 C 54 57.785156 52.660156 59.125 51 59.125 L 13 59.125 C 11.339844 59.125 10 57.785156 10 56.125 Z M 10 56.125 "/>
<path style=" stroke:none;fill-rule:nonzero;fill:rgb(61.960787%,61.960787%,61.960787%);fill-opacity:1;" d="M 31.871094 24 C 31.214844 24.007812 30.578125 24.078125 29.957031 24.207031 L 29.292969 27.539062 C 28.742188 27.769531 28.226562 28.066406 27.757812 28.425781 L 24.539062 27.335938 C 24.09375 27.839844 23.691406 28.394531 23.339844 29 C 22.988281 29.605469 22.710938 30.234375 22.5 30.871094 L 25.054688 33.117188 C 25.019531 33.40625 25 33.699219 25 34 C 25 34.300781 25.019531 34.59375 25.054688 34.882812 L 22.5 37.128906 C 22.710938 37.765625 22.988281 38.394531 23.339844 39 C 23.691406 39.605469 24.09375 40.160156 24.539062 40.664062 L 27.757812 39.578125 C 28.226562 39.933594 28.742188 40.230469 29.292969 40.460938 L 29.960938 43.792969 C 30.617188 43.929688 31.300781 44 32 44 C 32.699219 44 33.382812 43.929688 34.042969 43.792969 L 34.707031 40.460938 C 35.257812 40.230469 35.773438 39.933594 36.242188 39.578125 L 39.460938 40.664062 C 39.90625 40.160156 40.308594 39.605469 40.660156 39 C 41.011719 38.394531 41.289062 37.765625 41.503906 37.128906 L 38.945312 34.882812 C 38.980469 34.59375 39 34.300781 39 34 C 39 33.699219 38.980469 33.40625 38.945312 33.117188 L 41.5 30.871094 C 41.289062 30.234375 41.011719 29.605469 40.660156 29 C 40.308594 28.394531 39.90625 27.839844 39.460938 27.335938 L 36.242188 28.425781 C 35.773438 28.066406 35.257812 27.769531 34.707031 27.539062 L 34.042969 24.207031 C 33.382812 24.070312 32.699219 24 32 24 C 31.957031 24 31.914062 24 31.871094 24 Z M 32 30 C 34.214844 30 36 31.785156 36 34 C 36 36.214844 34.214844 38 32 38 C 29.785156 38 28 36.214844 28 34 C 28 31.785156 29.785156 30 32 30 Z M 32 30 "/>
<path style=" stroke:none;fill-rule:nonzero;fill:rgb(0%,0%,0%);fill-opacity:0.4;" d="M 32 29.996094 C 29.785156 29.996094 28 31.78125 28 33.996094 C 28 34.082031 28.003906 34.164062 28.011719 34.25 C 28.140625 32.152344 29.867188 30.5 32 30.5 C 34.132812 30.5 35.859375 32.152344 35.992188 34.25 C 35.996094 34.164062 36 34.082031 36 33.996094 C 36 31.78125 34.214844 29.996094 32 29.996094 Z M 22.636719 30.988281 C 22.585938 31.117188 22.539062 31.242188 22.496094 31.371094 L 25.011719 33.582031 C 25.019531 33.421875 25.035156 33.265625 25.054688 33.113281 Z M 41.367188 30.988281 L 38.945312 33.113281 C 38.964844 33.265625 38.980469 33.421875 38.988281 33.582031 L 41.503906 31.371094 C 41.460938 31.242188 41.414062 31.117188 41.367188 30.988281 Z M 25.007812 34.25 C 25.003906 34.332031 25 34.414062 25 34.5 C 25 34.640625 25.003906 34.777344 25.011719 34.917969 L 25.054688 34.878906 C 25.027344 34.671875 25.011719 34.460938 25.007812 34.246094 Z M 38.996094 34.25 C 38.988281 34.460938 38.972656 34.671875 38.945312 34.878906 L 38.988281 34.917969 C 38.996094 34.777344 39 34.640625 39 34.5 C 39 34.417969 38.996094 34.332031 38.992188 34.25 Z M 22.636719 37.507812 L 22.496094 37.628906 C 22.710938 38.265625 22.988281 38.894531 23.339844 39.5 C 23.691406 40.105469 24.09375 40.660156 24.539062 41.164062 L 27.757812 40.074219 C 28.226562 40.433594 28.742188 40.730469 29.292969 40.960938 L 29.960938 44.292969 C 30.617188 44.429688 31.300781 44.5 32 44.5 C 32.699219 44.5 33.382812 44.429688 34.042969 44.292969 L 34.707031 40.960938 C 35.257812 40.730469 35.773438 40.433594 36.242188 40.074219 L 39.460938 41.164062 C 39.90625 40.660156 40.308594 40.105469 40.660156 39.5 C 41.011719 38.894531 41.289062 38.265625 41.503906 37.628906 L 41.367188 37.507812 C 41.175781 38.015625 40.941406 38.511719 40.660156 38.996094 C 40.308594 39.601562 39.90625 40.15625 39.460938 40.660156 L 36.242188 39.574219 C 35.773438 39.929688 35.257812 40.226562 34.707031 40.457031 L 34.042969 43.789062 C 33.382812 43.925781 32.699219 43.996094 32 43.996094 C 31.300781 43.996094 30.617188 43.925781 29.960938 43.789062 L 29.292969 40.457031 C 28.742188 40.226562 28.226562 39.929688 27.757812 39.574219 L 24.539062 40.660156 C 24.09375 40.15625 23.691406 39.601562 23.339844 38.996094 C 23.058594 38.511719 22.824219 38.015625 22.636719 37.507812 Z M 22.636719 37.507812 "/>
<path style=" stroke:none;fill-rule:nonzero;fill:rgb(100%,100%,100%);fill-opacity:0.4;" d="M 32 38.5 C 29.785156 38.5 28 36.71875 28 34.5 C 28 34.417969 28.003906 34.332031 28.011719 34.25 C 28.140625 36.347656 29.867188 37.996094 32 37.996094 C 34.132812 37.996094 35.859375 36.347656 35.992188 34.25 C 35.996094 34.332031 36 34.417969 36 34.5 C 36 36.71875 34.214844 38.5 32 38.5 Z M 22.636719 37.507812 C 22.585938 37.382812 22.539062 37.253906 22.496094 37.125 L 25.011719 34.917969 C 25.019531 35.074219 25.035156 35.230469 25.054688 35.382812 Z M 41.367188 37.507812 L 38.945312 35.382812 C 38.964844 35.230469 38.980469 35.074219 38.988281 34.917969 L 41.503906 37.125 C 41.460938 37.253906 41.414062 37.382812 41.367188 37.507812 Z M 25.007812 34.25 C 25.003906 34.164062 25 34.082031 25 33.996094 C 25 33.859375 25.003906 33.71875 25.011719 33.582031 L 25.054688 33.617188 C 25.027344 33.824219 25.011719 34.039062 25.007812 34.25 Z M 38.996094 34.25 C 38.988281 34.035156 38.972656 33.824219 38.945312 33.617188 L 38.988281 33.582031 C 38.996094 33.71875 39 33.855469 39 33.996094 C 39 34.082031 38.996094 34.164062 38.996094 34.25 Z M 22.636719 30.988281 L 22.496094 30.867188 C 22.710938 30.230469 22.988281 29.605469 23.339844 28.996094 C 23.691406 28.390625 24.09375 27.835938 24.539062 27.332031 L 27.757812 28.421875 C 28.226562 28.066406 28.742188 27.765625 29.292969 27.535156 L 29.960938 24.203125 C 30.617188 24.070312 31.300781 23.996094 32 23.996094 C 32.699219 23.996094 33.382812 24.070312 34.039062 24.203125 L 34.707031 27.535156 C 35.257812 27.765625 35.773438 28.066406 36.242188 28.421875 L 39.460938 27.332031 C 39.90625 27.835938 40.308594 28.390625 40.660156 28.996094 C 41.011719 29.605469 41.289062 30.230469 41.503906 30.867188 L 41.367188 30.988281 C 41.175781 30.484375 40.941406 29.984375 40.660156 29.5 C 40.308594 28.894531 39.90625 28.339844 39.460938 27.835938 L 36.242188 28.925781 C 35.773438 28.570312 35.257812 28.269531 34.707031 28.039062 L 34.042969 24.707031 C 33.382812 24.574219 32.699219 24.5 32 24.5 C 31.300781 24.5 30.617188 24.574219 29.960938 24.707031 L 29.292969 28.039062 C 28.742188 28.269531 28.226562 28.570312 27.757812 28.925781 L 24.539062 27.835938 C 24.09375 28.339844 23.691406 28.894531 23.339844 29.5 C 23.058594 29.984375 22.824219 30.484375 22.636719 30.988281 Z M 22.636719 30.988281 "/>
<path style=" stroke:none;fill-rule:nonzero;fill:url(#linear0);" d="M 40 4 L 13 4 C 11.339844 4 10 5.339844 10 7 L 10 57 C 10 58.660156 11.339844 60 13 60 L 51 60 C 52.660156 60 54 58.660156 54 57 L 54 18 Z M 40 4 "/>
</g>
</svg>
