
<svg xmlns="http://www.w3.org/2000/svg" xmlns:xlink="http://www.w3.org/1999/xlink" width="22" height="22" viewBox="0 0 22 22" version="1.1">
<defs>
<linearGradient id="linear0" gradientUnits="userSpaceOnUse" x1="8.466666" y1="-199.125" x2="8.466666" y2="-213.941666" gradientTransform="matrix(1.299213,0,0,1.299213,0,279.330723)">
<stop offset="0" style="stop-color:rgb(0%,0%,0%);stop-opacity:0.2;"/>
<stop offset="1" style="stop-color:rgb(100%,100%,100%);stop-opacity:0;"/>
</linearGradient>
</defs>
<g id="surface1">
<path style=" stroke:none;fill-rule:nonzero;fill:rgb(100%,43.921569%,26.274511%);fill-opacity:1;" d="M 11 1.371094 C 16.316406 1.371094 20.625 5.683594 20.625 11 C 20.625 16.316406 16.316406 20.625 11 20.625 C 5.683594 20.625 1.371094 16.316406 1.371094 11 C 1.371094 5.683594 5.683594 1.371094 11 1.371094 Z M 11 1.371094 "/>
<path style=" stroke:none;fill-rule:nonzero;fill:rgb(100%,100%,100%);fill-opacity:0.4;" d="M 11 1.375 C 5.683594 1.375 1.375 5.683594 1.375 11 C 1.375 11.058594 1.375 11.113281 1.378906 11.171875 C 1.46875 5.933594 5.742188 1.71875 11 1.71875 C 16.257812 1.71875 20.53125 5.933594 20.621094 11.171875 C 20.625 11.113281 20.625 11.058594 20.625 11 C 20.625 5.683594 16.316406 1.375 11 1.375 Z M 11 1.375 "/>
<path style=" stroke:none;fill-rule:nonzero;fill:rgb(0%,0%,0%);fill-opacity:0.4;" d="M 1.378906 10.824219 C 1.378906 10.882812 1.375 10.9375 1.375 10.996094 C 1.375 16.3125 5.683594 20.621094 11 20.621094 C 16.316406 20.621094 20.625 16.3125 20.625 10.996094 C 20.625 10.9375 20.621094 10.882812 20.621094 10.824219 C 20.527344 16.0625 16.257812 20.28125 11 20.28125 C 5.742188 20.28125 1.472656 16.0625 1.378906 10.824219 Z M 1.378906 10.824219 "/>
<path style=" stroke:none;fill-rule:nonzero;fill:rgb(0%,0%,0%);fill-opacity:0.2;" d="M 1.378906 11.257812 C 1.378906 11.34375 1.375 11.429688 1.375 11.515625 C 1.375 16.832031 5.683594 21.140625 11 21.140625 C 16.316406 21.140625 20.625 16.832031 20.625 11.515625 C 20.625 11.429688 20.621094 11.34375 20.621094 11.257812 C 20.484375 16.453125 16.230469 20.625 11 20.625 C 5.769531 20.625 1.515625 16.453125 1.378906 11.257812 Z M 1.378906 11.257812 "/>
<path style=" stroke:none;fill-rule:nonzero;fill:rgb(100%,87.843138%,69.803923%);fill-opacity:1;" d="M 11 2.75 C 15.554688 2.75 19.25 6.441406 19.25 11 C 19.25 15.554688 15.554688 19.25 11 19.25 C 6.441406 19.25 2.75 15.554688 2.75 11 C 2.75 6.441406 6.441406 2.75 11 2.75 Z M 11 2.75 "/>
<path style=" stroke:none;fill-rule:nonzero;fill:rgb(100%,43.921569%,26.274511%);fill-opacity:1;" d="M 11 3.4375 C 9.855469 3.4375 8.9375 4.359375 8.9375 5.5 L 11 10.3125 L 13.0625 5.5 C 13.0625 4.359375 12.144531 3.4375 11 3.4375 Z M 11 3.4375 "/>
<path style=" stroke:none;fill-rule:nonzero;fill:rgb(100%,43.921569%,26.274511%);fill-opacity:1;" d="M 11 18.5625 C 9.855469 18.5625 8.9375 17.640625 8.9375 16.5 L 11 11.6875 L 13.0625 16.5 C 13.0625 17.640625 12.144531 18.5625 11 18.5625 Z M 11 18.5625 "/>
<path style=" stroke:none;fill-rule:nonzero;fill:rgb(100%,43.921569%,26.274511%);fill-opacity:1;" d="M 11 3.4375 C 9.855469 3.4375 8.9375 4.359375 8.9375 5.5 L 11 10.3125 L 13.0625 5.5 C 13.0625 4.359375 12.144531 3.4375 11 3.4375 Z M 7.109375 5.046875 C 6.585938 5.046875 6.054688 5.25 5.652344 5.652344 C 4.84375 6.460938 4.84375 7.761719 5.652344 8.570312 L 10.515625 10.515625 L 8.570312 5.652344 C 8.164062 5.246094 7.636719 5.046875 7.109375 5.046875 Z M 14.890625 5.046875 C 14.363281 5.046875 13.835938 5.246094 13.429688 5.652344 L 11.484375 10.515625 L 16.347656 8.570312 C 17.15625 7.761719 17.15625 6.460938 16.347656 5.652344 C 15.945312 5.25 15.414062 5.046875 14.890625 5.046875 Z M 5.5 8.9375 C 4.359375 8.9375 3.4375 9.855469 3.4375 11 C 3.4375 12.144531 4.359375 13.0625 5.5 13.0625 L 10.3125 11 Z M 16.5 8.9375 L 11.6875 11 L 16.5 13.0625 C 17.640625 13.0625 18.5625 12.144531 18.5625 11 C 18.5625 9.855469 17.640625 8.9375 16.5 8.9375 Z M 10.515625 11.484375 L 5.652344 13.429688 C 4.84375 14.238281 4.84375 15.539062 5.652344 16.347656 C 6.460938 17.15625 7.761719 17.15625 8.570312 16.347656 Z M 11.484375 11.484375 L 13.429688 16.347656 C 14.238281 17.15625 15.539062 17.15625 16.347656 16.347656 C 17.15625 15.539062 17.15625 14.238281 16.347656 13.429688 Z M 11 11.6875 L 8.9375 16.5 C 8.9375 17.640625 9.855469 18.5625 11 18.5625 C 12.144531 18.5625 13.0625 17.640625 13.0625 16.5 Z M 11 11.6875 "/>
<path style=" stroke:none;fill-rule:nonzero;fill:rgb(100%,100%,100%);fill-opacity:0.4;" d="M 11 3.4375 C 9.855469 3.4375 8.9375 4.359375 8.9375 5.5 L 8.957031 5.550781 C 9.101562 4.546875 9.957031 3.78125 11 3.78125 C 12.042969 3.78125 12.898438 4.546875 13.042969 5.550781 L 13.0625 5.5 C 13.0625 4.359375 12.144531 3.4375 11 3.4375 Z M 7.109375 5.046875 C 6.585938 5.046875 6.054688 5.25 5.652344 5.652344 C 5.207031 6.097656 5.007812 6.695312 5.054688 7.277344 C 5.09375 6.8125 5.292969 6.355469 5.652344 5.996094 C 6.054688 5.59375 6.585938 5.390625 7.109375 5.390625 C 7.636719 5.390625 8.164062 5.589844 8.570312 5.996094 L 10.351562 10.449219 L 10.515625 10.515625 L 8.570312 5.652344 C 8.164062 5.246094 7.636719 5.046875 7.109375 5.046875 Z M 14.890625 5.046875 C 14.363281 5.046875 13.835938 5.246094 13.429688 5.652344 L 11.484375 10.515625 L 11.648438 10.449219 L 13.429688 5.996094 C 13.835938 5.589844 14.363281 5.390625 14.890625 5.390625 C 15.414062 5.390625 15.945312 5.59375 16.347656 5.996094 C 16.707031 6.355469 16.90625 6.8125 16.945312 7.277344 C 16.992188 6.695312 16.792969 6.097656 16.347656 5.652344 C 15.945312 5.25 15.414062 5.046875 14.890625 5.046875 Z M 5.5 8.9375 C 4.359375 8.9375 3.4375 9.855469 3.4375 11 C 3.4375 11.054688 3.441406 11.109375 3.445312 11.164062 C 3.535156 10.105469 4.417969 9.28125 5.5 9.28125 L 9.910156 11.171875 L 10.3125 11 Z M 16.5 8.9375 L 11.6875 11 L 12.089844 11.171875 L 16.5 9.28125 C 17.582031 9.28125 18.464844 10.105469 18.554688 11.164062 C 18.558594 11.109375 18.5625 11.054688 18.5625 11 C 18.5625 9.855469 17.640625 8.9375 16.5 8.9375 Z M 10.515625 11.484375 L 5.652344 13.429688 C 5.207031 13.878906 5.007812 14.476562 5.054688 15.054688 C 5.09375 14.589844 5.292969 14.132812 5.652344 13.773438 L 10.351562 11.894531 Z M 11.484375 11.484375 L 11.648438 11.894531 L 16.347656 13.773438 C 16.707031 14.132812 16.90625 14.589844 16.945312 15.054688 C 16.992188 14.476562 16.792969 13.878906 16.347656 13.429688 Z M 11 11.6875 L 8.9375 16.5 C 8.9375 16.597656 8.945312 16.695312 8.960938 16.789062 L 11 12.03125 L 13.039062 16.789062 C 13.054688 16.695312 13.0625 16.597656 13.0625 16.5 Z M 11 11.6875 "/>
<path style=" stroke:none;fill-rule:nonzero;fill:rgb(0%,0%,0%);fill-opacity:0.4;" d="M 11 18.90625 C 9.855469 18.90625 8.9375 17.984375 8.9375 16.84375 L 8.957031 16.792969 C 9.101562 17.796875 9.957031 18.5625 11 18.5625 C 12.042969 18.5625 12.898438 17.796875 13.042969 16.792969 L 13.0625 16.84375 C 13.0625 17.984375 12.144531 18.90625 11 18.90625 Z M 7.113281 17.296875 C 6.585938 17.296875 6.054688 17.09375 5.652344 16.691406 C 5.207031 16.246094 5.007812 15.648438 5.054688 15.066406 C 5.09375 15.53125 5.292969 15.988281 5.652344 16.347656 C 6.054688 16.75 6.585938 16.953125 7.113281 16.953125 C 7.636719 16.953125 8.164062 16.753906 8.570312 16.347656 L 10.351562 11.894531 L 10.515625 11.828125 L 8.570312 16.691406 C 8.164062 17.097656 7.636719 17.296875 7.113281 17.296875 Z M 14.886719 17.296875 C 14.363281 17.296875 13.835938 17.097656 13.429688 16.691406 L 11.484375 11.828125 L 11.648438 11.894531 L 13.429688 16.347656 C 13.835938 16.753906 14.363281 16.953125 14.886719 16.953125 C 15.414062 16.953125 15.945312 16.75 16.347656 16.347656 C 16.707031 15.988281 16.90625 15.53125 16.945312 15.066406 C 16.992188 15.648438 16.792969 16.246094 16.347656 16.691406 C 15.945312 17.09375 15.414062 17.296875 14.886719 17.296875 Z M 5.5 13.40625 C 4.359375 13.40625 3.4375 12.488281 3.4375 11.34375 C 3.4375 11.289062 3.441406 11.234375 3.445312 11.179688 C 3.535156 12.238281 4.417969 13.0625 5.5 13.0625 L 9.910156 11.171875 L 10.3125 11.34375 Z M 16.5 13.40625 L 11.6875 11.34375 L 12.089844 11.171875 L 16.5 13.0625 C 17.582031 13.0625 18.464844 12.238281 18.554688 11.179688 C 18.558594 11.234375 18.5625 11.289062 18.5625 11.34375 C 18.5625 12.488281 17.640625 13.40625 16.5 13.40625 Z M 10.515625 10.859375 L 5.652344 8.914062 C 5.207031 8.464844 5.007812 7.867188 5.054688 7.289062 C 5.09375 7.753906 5.292969 8.210938 5.652344 8.570312 L 10.351562 10.449219 Z M 11.484375 10.859375 L 11.648438 10.449219 L 16.347656 8.570312 C 16.707031 8.210938 16.90625 7.753906 16.945312 7.289062 C 16.992188 7.867188 16.792969 8.464844 16.347656 8.914062 Z M 11 10.65625 L 8.9375 5.84375 C 8.9375 5.746094 8.945312 5.648438 8.960938 5.554688 L 11 10.3125 L 13.039062 5.554688 C 13.054688 5.648438 13.0625 5.746094 13.0625 5.84375 Z M 11 10.65625 "/>
<path style=" stroke:none;fill-rule:nonzero;fill:rgb(0%,0%,0%);fill-opacity:0.4;" d="M 11 2.75 C 6.429688 2.75 2.75 6.429688 2.75 11 C 2.75 11.027344 2.75 11.058594 2.75 11.089844 C 2.796875 6.558594 6.460938 2.925781 11 2.925781 C 15.539062 2.925781 19.203125 6.558594 19.25 11.089844 C 19.25 11.058594 19.25 11.027344 19.25 11 C 19.25 6.429688 15.570312 2.75 11 2.75 Z M 11 2.75 "/>
<path style=" stroke:none;fill-rule:nonzero;fill:rgb(99.607843%,99.607843%,99.607843%);fill-opacity:0.4;" d="M 11 19.421875 C 6.429688 19.421875 2.75 15.742188 2.75 11.171875 C 2.75 11.140625 2.75 11.113281 2.75 11.082031 C 2.796875 15.613281 6.460938 19.246094 11 19.246094 C 15.539062 19.246094 19.203125 15.613281 19.25 11.082031 C 19.25 11.113281 19.25 11.140625 19.25 11.171875 C 19.25 15.742188 15.570312 19.421875 11 19.421875 Z M 11 19.421875 "/>
<path style=" stroke:none;fill-rule:nonzero;fill:url(#linear0);" d="M 11 1.375 C 16.316406 1.375 20.625 5.683594 20.625 11 C 20.625 16.316406 16.316406 20.625 11 20.625 C 5.683594 20.625 1.375 16.316406 1.375 11 C 1.375 5.683594 5.683594 1.375 11 1.375 Z M 11 1.375 "/>
</g>
</svg>
