
<svg xmlns="http://www.w3.org/2000/svg" xmlns:xlink="http://www.w3.org/1999/xlink" width="22" height="22" viewBox="0 0 22 22" version="1.1">
<defs>
<linearGradient id="linear0" gradientUnits="userSpaceOnUse" x1="31.999998" y1="60" x2="31.999998" y2="4" gradientTransform="matrix(0.34375,0,0,0.34375,-0.000000935433,0.00000000000003908)">
<stop offset="0" style="stop-color:rgb(0%,0%,0%);stop-opacity:0.2;"/>
<stop offset="1" style="stop-color:rgb(100%,100%,100%);stop-opacity:0;"/>
</linearGradient>
</defs>
<g id="surface1">
<path style=" stroke:none;fill-rule:nonzero;fill:rgb(95.686275%,26.274511%,21.176471%);fill-opacity:1;" d="M 13.75 1.375 L 4.46875 1.375 C 3.898438 1.375 3.4375 1.835938 3.4375 2.40625 L 3.4375 19.59375 C 3.4375 20.164062 3.898438 20.625 4.46875 20.625 L 17.53125 20.625 C 18.101562 20.625 18.5625 20.164062 18.5625 19.59375 L 18.5625 6.1875 Z M 13.75 1.375 "/>
<path style=" stroke:none;fill-rule:nonzero;fill:rgb(0%,0%,0%);fill-opacity:0.4;" d="M 13.75 5.15625 L 13.75 5.5 C 13.75 6.070312 14.210938 6.53125 14.78125 6.53125 L 18.5625 6.53125 L 18.21875 6.1875 L 14.78125 6.1875 C 14.210938 6.1875 13.75 5.726562 13.75 5.15625 Z M 13.75 5.15625 "/>
<path style=" stroke:none;fill-rule:nonzero;fill:rgb(93.725491%,32.549021%,31.37255%);fill-opacity:0.996078;" d="M 18.5625 6.1875 L 13.75 1.375 L 13.75 5.15625 C 13.75 5.726562 14.210938 6.1875 14.78125 6.1875 Z M 18.5625 6.1875 "/>
<path style=" stroke:none;fill-rule:nonzero;fill:rgb(100%,100%,100%);fill-opacity:0.4;" d="M 4.46875 1.375 C 3.898438 1.375 3.4375 1.835938 3.4375 2.40625 L 3.4375 2.75 C 3.4375 2.179688 3.898438 1.71875 4.46875 1.71875 L 13.75 1.71875 L 18.5625 6.53125 L 18.5625 6.1875 L 13.75 1.375 Z M 4.46875 1.375 "/>
<path style=" stroke:none;fill-rule:nonzero;fill:rgb(0%,0%,0%);fill-opacity:0.2;" d="M 3.4375 19.589844 L 3.4375 20.109375 C 3.4375 20.679688 3.898438 21.140625 4.46875 21.140625 L 17.53125 21.140625 C 18.101562 21.140625 18.5625 20.679688 18.5625 20.109375 L 18.5625 19.589844 C 18.5625 20.160156 18.101562 20.621094 17.53125 20.621094 L 4.46875 20.621094 C 3.898438 20.621094 3.4375 20.160156 3.4375 19.589844 Z M 3.4375 19.589844 "/>
<path style=" stroke:none;fill-rule:nonzero;fill:rgb(0%,0%,0%);fill-opacity:0.4;" d="M 3.4375 19.292969 L 3.4375 19.59375 C 3.4375 20.164062 3.898438 20.625 4.46875 20.625 L 17.53125 20.625 C 18.101562 20.625 18.5625 20.164062 18.5625 19.59375 L 18.5625 19.292969 C 18.5625 19.863281 18.101562 20.324219 17.53125 20.324219 L 4.46875 20.324219 C 3.898438 20.324219 3.4375 19.863281 3.4375 19.292969 Z M 3.4375 19.292969 "/>
<path style=" stroke:none;fill-rule:nonzero;fill:rgb(0.392157%,0.392157%,0.392157%);fill-opacity:0.4;" d="M 10.601562 9.367188 C 10.558594 9.898438 10.117188 10.3125 9.574219 10.3125 C 9.03125 10.3125 8.589844 9.898438 8.546875 9.367188 C 8.546875 9.394531 8.542969 9.425781 8.542969 9.453125 C 8.542969 10.023438 9.003906 10.484375 9.574219 10.484375 C 10.144531 10.484375 10.605469 10.023438 10.605469 9.453125 C 10.605469 9.425781 10.605469 9.394531 10.601562 9.367188 Z M 13.921875 14.972656 C 13.886719 15.0625 13.796875 15.125 13.699219 15.125 L 8.199219 15.125 C 8.105469 15.125 8.019531 15.0625 7.984375 14.976562 C 7.953125 15.050781 7.964844 15.128906 8.007812 15.195312 C 8.050781 15.257812 8.121094 15.296875 8.199219 15.296875 L 13.699219 15.296875 C 13.777344 15.296875 13.851562 15.257812 13.894531 15.195312 C 13.941406 15.128906 13.949219 15.046875 13.921875 14.976562 Z M 13.921875 14.972656 "/>
<path style=" stroke:none;fill-rule:nonzero;fill:rgb(93.725491%,60.392159%,60.392159%);fill-opacity:0.996078;" d="M 9.546875 8.25 C 8.988281 8.265625 8.542969 8.71875 8.542969 9.28125 C 8.542969 9.851562 9.003906 10.3125 9.574219 10.3125 C 10.144531 10.3125 10.605469 9.851562 10.605469 9.28125 C 10.605469 8.710938 10.144531 8.25 9.574219 8.25 C 9.566406 8.25 9.558594 8.25 9.546875 8.25 Z M 11.9375 10.234375 C 11.808594 10.246094 11.699219 10.328125 11.652344 10.445312 L 10.933594 12.242188 C 10.863281 12.421875 10.703125 12.554688 10.511719 12.597656 C 10.316406 12.636719 10.117188 12.574219 9.980469 12.4375 L 9.855469 12.3125 C 9.71875 12.175781 9.519531 12.113281 9.328125 12.152344 C 9.132812 12.195312 8.976562 12.328125 8.902344 12.507812 L 7.984375 14.804688 C 7.953125 14.878906 7.964844 14.957031 8.007812 15.023438 C 8.050781 15.085938 8.121094 15.125 8.199219 15.125 L 13.699219 15.125 C 13.777344 15.125 13.851562 15.085938 13.894531 15.023438 C 13.941406 14.957031 13.949219 14.875 13.921875 14.804688 L 12.292969 10.453125 C 12.238281 10.308594 12.089844 10.21875 11.9375 10.234375 Z M 11.9375 10.234375 "/>
<path style=" stroke:none;fill-rule:nonzero;fill:rgb(99.607843%,99.607843%,99.607843%);fill-opacity:0.4;" d="M 9.546875 8.25 C 8.988281 8.265625 8.542969 8.71875 8.542969 9.28125 C 8.542969 9.308594 8.546875 9.339844 8.546875 9.367188 C 8.589844 8.84375 9.015625 8.433594 9.546875 8.421875 C 9.558594 8.421875 9.566406 8.421875 9.574219 8.421875 C 10.117188 8.421875 10.558594 8.835938 10.601562 9.367188 C 10.605469 9.339844 10.605469 9.308594 10.605469 9.28125 C 10.605469 8.710938 10.144531 8.25 9.574219 8.25 C 9.566406 8.25 9.558594 8.25 9.546875 8.25 Z M 11.9375 10.234375 C 11.808594 10.246094 11.699219 10.328125 11.652344 10.445312 L 10.933594 12.242188 C 10.863281 12.421875 10.703125 12.554688 10.511719 12.597656 C 10.316406 12.636719 10.117188 12.574219 9.980469 12.4375 L 9.855469 12.3125 C 9.71875 12.175781 9.519531 12.113281 9.328125 12.152344 C 9.132812 12.195312 8.976562 12.328125 8.902344 12.507812 L 7.984375 14.804688 C 7.960938 14.859375 7.964844 14.921875 7.984375 14.976562 L 8.902344 12.679688 C 8.976562 12.5 9.132812 12.367188 9.328125 12.324219 C 9.519531 12.285156 9.71875 12.347656 9.855469 12.484375 L 9.980469 12.609375 C 10.117188 12.746094 10.316406 12.808594 10.511719 12.769531 C 10.703125 12.726562 10.863281 12.59375 10.933594 12.414062 L 11.652344 10.617188 C 11.699219 10.5 11.808594 10.417969 11.9375 10.40625 C 12.089844 10.390625 12.238281 10.480469 12.292969 10.625 L 13.921875 14.972656 C 13.941406 14.917969 13.941406 14.859375 13.921875 14.804688 L 12.292969 10.453125 C 12.238281 10.308594 12.089844 10.21875 11.9375 10.234375 Z M 11.9375 10.234375 "/>
<path style=" stroke:none;fill-rule:nonzero;fill:url(#linear0);" d="M 13.75 1.375 L 4.46875 1.375 C 3.898438 1.375 3.4375 1.835938 3.4375 2.40625 L 3.4375 19.59375 C 3.4375 20.164062 3.898438 20.625 4.46875 20.625 L 17.53125 20.625 C 18.101562 20.625 18.5625 20.164062 18.5625 19.59375 L 18.5625 6.1875 Z M 13.75 1.375 "/>
</g>
</svg>
