
<svg xmlns="http://www.w3.org/2000/svg" xmlns:xlink="http://www.w3.org/1999/xlink" width="48" height="48" viewBox="0 0 48 48" version="1.1">
<defs>
<linearGradient id="linear0" gradientUnits="userSpaceOnUse" x1="8.466666" y1="-199.125" x2="8.466666" y2="-213.941666" gradientTransform="matrix(2.834646,0,0,2.834646,-0.00000947146,609.448851)">
<stop offset="0" style="stop-color:rgb(0%,0%,0%);stop-opacity:0.2;"/>
<stop offset="1" style="stop-color:rgb(100%,100%,100%);stop-opacity:0;"/>
</linearGradient>
</defs>
<g id="surface1">
<path style=" stroke:none;fill-rule:nonzero;fill:rgb(16.078432%,71.372551%,96.470588%);fill-opacity:1;" d="M 6 3 L 42 3 C 43.65625 3 45 4.34375 45 6 L 45 42 C 45 43.65625 43.65625 45 42 45 L 6 45 C 4.34375 45 3 43.65625 3 42 L 3 6 C 3 4.34375 4.34375 3 6 3 Z M 6 3 "/>
<path style=" stroke:none;fill-rule:nonzero;fill:rgb(100%,99.215686%,99.215686%);fill-opacity:0.4;" d="M 3 15.375 L 45 15.375 L 45 16.125 L 3 16.125 Z M 3 15.375 "/>
<path style=" stroke:none;fill-rule:nonzero;fill:rgb(0%,0%,0%);fill-opacity:0.4;" d="M 3 41.25 L 3 42 C 3 43.660156 4.339844 45 6 45 L 42 45 C 43.660156 45 45 43.660156 45 42 L 45 41.25 C 45 42.910156 43.660156 44.25 42 44.25 L 6 44.25 C 4.339844 44.25 3 42.910156 3 41.25 Z M 3 41.25 "/>
<path style=" stroke:none;fill-rule:nonzero;fill:rgb(0%,0%,0%);fill-opacity:0.2;" d="M 3 42 L 3 43.125 C 3 44.785156 4.339844 46.125 6 46.125 L 42 46.125 C 43.660156 46.125 45 44.785156 45 43.125 L 45 42 C 45 43.660156 43.660156 45 42 45 L 6 45 C 4.339844 45 3 43.660156 3 42 Z M 3 42 "/>
<path style=" stroke:none;fill-rule:nonzero;fill:rgb(100%,100%,100%);fill-opacity:0.4;" d="M 6 3 C 4.339844 3 3 4.339844 3 6 L 3 6.738281 C 3 5.078125 4.339844 3.738281 6 3.738281 L 42 3.738281 C 43.660156 3.738281 45 5.078125 45 6.738281 L 45 6 C 45 4.339844 43.660156 3 42 3 Z M 6 3 "/>
<path style=" stroke:none;fill-rule:nonzero;fill:rgb(0.392157%,0.392157%,0.392157%);fill-opacity:0.4;" d="M 10.5 20.25 C 10.085938 20.25 9.75 19.914062 9.75 19.5 L 9.75 19.125 C 9.75 19.539062 10.085938 19.875 10.5 19.875 L 15 19.875 C 15.414062 19.875 15.75 19.539062 15.75 19.125 L 15.75 19.5 C 15.75 19.914062 15.414062 20.25 15 20.25 Z M 10.5 11.625 L 10.5 11.25 C 10.5 11.042969 10.667969 10.875 10.875 10.875 L 14.625 10.875 C 14.832031 10.875 15 11.042969 15 11.25 L 15 11.625 C 15 11.417969 14.832031 11.25 14.625 11.25 L 10.875 11.25 C 10.667969 11.25 10.5 11.417969 10.5 11.625 Z M 10.5 11.625 "/>
<path style=" stroke:none;fill-rule:nonzero;fill:rgb(0.392157%,0%,0%);fill-opacity:0.4;" d="M 3 14.625 L 45 14.625 L 45 15.375 L 3 15.375 Z M 3 14.625 "/>
<path style=" stroke:none;fill-rule:nonzero;fill:rgb(0%,0%,0%);fill-opacity:0.2;" d="M 10.5 7.5 L 15 7.5 C 15.828125 7.5 16.5 8.171875 16.5 9 L 16.5 21 C 16.5 21.828125 15.828125 22.5 15 22.5 L 10.5 22.5 C 9.671875 22.5 9 21.828125 9 21 L 9 9 C 9 8.171875 9.671875 7.5 10.5 7.5 Z M 10.5 7.5 "/>
<path style=" stroke:none;fill-rule:nonzero;fill:rgb(74.117649%,74.117649%,74.117649%);fill-opacity:1;" d="M 10.5 10.125 C 10.085938 10.125 9.75 10.460938 9.75 10.875 L 9.75 19.125 C 9.75 19.539062 10.085938 19.875 10.5 19.875 L 15 19.875 C 15.414062 19.875 15.75 19.539062 15.75 19.125 L 15.75 10.875 C 15.75 10.460938 15.414062 10.125 15 10.125 Z M 10.875 10.875 L 14.625 10.875 C 14.832031 10.875 15 11.042969 15 11.25 L 15 18.75 C 15 18.957031 14.832031 19.125 14.625 19.125 L 10.875 19.125 C 10.667969 19.125 10.5 18.957031 10.5 18.75 L 10.5 11.25 C 10.5 11.042969 10.667969 10.875 10.875 10.875 Z M 10.875 10.875 "/>
<path style=" stroke:none;fill-rule:nonzero;fill:rgb(100%,100%,100%);fill-opacity:0.4;" d="M 10.5 23.25 C 9.667969 23.25 9 22.582031 9 21.75 L 9 21 C 9 21.832031 9.667969 22.5 10.5 22.5 L 15 22.5 C 15.832031 22.5 16.5 21.832031 16.5 21 L 16.5 21.75 C 16.5 22.582031 15.832031 23.25 15 23.25 Z M 10.5 23.25 "/>
<path style=" stroke:none;fill-rule:nonzero;fill:rgb(0%,0%,0%);fill-opacity:0.4;" d="M 10.5 7.5 C 9.667969 7.5 9 8.167969 9 9 L 9 9.75 C 9 8.917969 9.667969 8.25 10.5 8.25 L 15 8.25 C 15.832031 8.25 16.5 8.917969 16.5 9.75 L 16.5 9 C 16.5 8.167969 15.832031 7.5 15 7.5 Z M 10.5 7.5 "/>
<path style=" stroke:none;fill-rule:nonzero;fill:rgb(100%,100%,100%);fill-opacity:0.4;" d="M 10.5 10.125 C 10.085938 10.125 9.75 10.460938 9.75 10.875 L 9.75 11.25 C 9.75 10.835938 10.085938 10.5 10.5 10.5 L 15 10.5 C 15.414062 10.5 15.75 10.835938 15.75 11.25 L 15.75 10.875 C 15.75 10.460938 15.414062 10.125 15 10.125 Z M 10.5 18.75 L 10.5 19.125 C 10.5 19.332031 10.667969 19.5 10.875 19.5 L 14.625 19.5 C 14.832031 19.5 15 19.332031 15 19.125 L 15 18.75 C 15 18.957031 14.832031 19.125 14.625 19.125 L 10.875 19.125 C 10.667969 19.125 10.5 18.957031 10.5 18.75 Z M 10.5 18.75 "/>
<path style=" stroke:none;fill-rule:nonzero;fill:rgb(87.843138%,87.843138%,87.843138%);fill-opacity:1;" d="M 11.25 17.25 L 14.25 17.25 C 14.664062 17.25 15 17.585938 15 18 L 15 21 C 15 21.414062 14.664062 21.75 14.25 21.75 L 11.25 21.75 C 10.835938 21.75 10.5 21.414062 10.5 21 L 10.5 18 C 10.5 17.585938 10.835938 17.25 11.25 17.25 Z M 11.25 17.25 "/>
<path style=" stroke:none;fill-rule:nonzero;fill:rgb(0%,0%,0%);fill-opacity:0.4;" d="M 10.5 21 L 10.5 21.75 C 10.5 22.164062 10.835938 22.5 11.25 22.5 L 14.25 22.5 C 14.664062 22.5 15 22.164062 15 21.75 L 15 21 C 15 21.414062 14.664062 21.75 14.25 21.75 L 11.25 21.75 C 10.835938 21.75 10.5 21.414062 10.5 21 Z M 10.5 21 "/>
<path style=" stroke:none;fill-rule:nonzero;fill:rgb(0%,0%,0%);fill-opacity:0.4;" d="M 10.5 11.25 L 10.5 12 C 10.5 12.414062 10.835938 12.75 11.25 12.75 L 14.25 12.75 C 14.664062 12.75 15 12.414062 15 12 L 15 11.25 C 15 11.664062 14.664062 12 14.25 12 L 11.25 12 C 10.835938 12 10.5 11.664062 10.5 11.25 Z M 10.5 11.25 "/>
<path style=" stroke:none;fill-rule:nonzero;fill:rgb(100%,100%,100%);fill-opacity:0.8;" d="M 10.5 18.75 L 10.5 18 C 10.5 17.585938 10.835938 17.25 11.25 17.25 L 14.25 17.25 C 14.664062 17.25 15 17.585938 15 18 L 15 18.75 C 15 18.335938 14.664062 18 14.25 18 L 11.25 18 C 10.835938 18 10.5 18.335938 10.5 18.75 Z M 10.5 18.75 "/>
<path style=" stroke:none;fill-rule:nonzero;fill:rgb(0.392157%,0.392157%,0.392157%);fill-opacity:0.4;" d="M 33 20.25 C 32.585938 20.25 32.25 19.914062 32.25 19.5 L 32.25 19.125 C 32.25 19.539062 32.585938 19.875 33 19.875 L 37.5 19.875 C 37.914062 19.875 38.25 19.539062 38.25 19.125 L 38.25 19.5 C 38.25 19.914062 37.914062 20.25 37.5 20.25 Z M 33 11.625 L 33 11.25 C 33 11.042969 33.167969 10.875 33.375 10.875 L 37.125 10.875 C 37.332031 10.875 37.5 11.042969 37.5 11.25 L 37.5 11.625 C 37.5 11.417969 37.332031 11.25 37.125 11.25 L 33.375 11.25 C 33.167969 11.25 33 11.417969 33 11.625 Z M 33 11.625 "/>
<path style=" stroke:none;fill-rule:nonzero;fill:rgb(0%,0%,0%);fill-opacity:0.2;" d="M 33 7.5 L 37.5 7.5 C 38.328125 7.5 39 8.171875 39 9 L 39 21 C 39 21.828125 38.328125 22.5 37.5 22.5 L 33 22.5 C 32.171875 22.5 31.5 21.828125 31.5 21 L 31.5 9 C 31.5 8.171875 32.171875 7.5 33 7.5 Z M 33 7.5 "/>
<path style=" stroke:none;fill-rule:nonzero;fill:rgb(74.117649%,74.117649%,74.117649%);fill-opacity:1;" d="M 33 10.125 C 32.585938 10.125 32.25 10.460938 32.25 10.875 L 32.25 19.125 C 32.25 19.539062 32.585938 19.875 33 19.875 L 37.5 19.875 C 37.914062 19.875 38.25 19.539062 38.25 19.125 L 38.25 10.875 C 38.25 10.460938 37.914062 10.125 37.5 10.125 Z M 33.375 10.875 L 37.125 10.875 C 37.332031 10.875 37.5 11.042969 37.5 11.25 L 37.5 18.75 C 37.5 18.957031 37.332031 19.125 37.125 19.125 L 33.375 19.125 C 33.167969 19.125 33 18.957031 33 18.75 L 33 11.25 C 33 11.042969 33.167969 10.875 33.375 10.875 Z M 33.375 10.875 "/>
<path style=" stroke:none;fill-rule:nonzero;fill:rgb(100%,100%,100%);fill-opacity:0.4;" d="M 33 10.125 C 32.585938 10.125 32.25 10.460938 32.25 10.875 L 32.25 11.25 C 32.25 10.835938 32.585938 10.5 33 10.5 L 37.5 10.5 C 37.914062 10.5 38.25 10.835938 38.25 11.25 L 38.25 10.875 C 38.25 10.460938 37.914062 10.125 37.5 10.125 Z M 33 18.75 L 33 19.125 C 33 19.332031 33.167969 19.5 33.375 19.5 L 37.125 19.5 C 37.332031 19.5 37.5 19.332031 37.5 19.125 L 37.5 18.75 C 37.5 18.957031 37.332031 19.125 37.125 19.125 L 33.375 19.125 C 33.167969 19.125 33 18.957031 33 18.75 Z M 33 18.75 "/>
<path style=" stroke:none;fill-rule:nonzero;fill:rgb(50.588238%,83.137256%,98.039216%);fill-opacity:0.996078;" d="M 11.25 9 L 14.25 9 C 14.664062 9 15 9.335938 15 9.75 L 15 11.25 C 15 11.664062 14.664062 12 14.25 12 L 11.25 12 C 10.835938 12 10.5 11.664062 10.5 11.25 L 10.5 9.75 C 10.5 9.335938 10.835938 9 11.25 9 Z M 11.25 9 "/>
<path style=" stroke:none;fill-rule:nonzero;fill:rgb(50.588238%,83.137256%,98.039216%);fill-opacity:0.996078;" d="M 33.75 9 L 36.75 9 C 37.164062 9 37.5 9.335938 37.5 9.75 L 37.5 11.25 C 37.5 11.664062 37.164062 12 36.75 12 L 33.75 12 C 33.335938 12 33 11.664062 33 11.25 L 33 9.75 C 33 9.335938 33.335938 9 33.75 9 Z M 33.75 9 "/>
<path style=" stroke:none;fill-rule:nonzero;fill:rgb(99.607843%,99.607843%,99.607843%);fill-opacity:0.4;" d="M 10.5 10.5 L 10.5 9.75 C 10.5 9.335938 10.835938 9 11.25 9 L 14.25 9 C 14.664062 9 15 9.335938 15 9.75 L 15 10.5 C 15 10.085938 14.664062 9.75 14.25 9.75 L 11.25 9.75 C 10.835938 9.75 10.5 10.085938 10.5 10.5 Z M 10.5 10.5 "/>
<path style=" stroke:none;fill-rule:nonzero;fill:rgb(100%,100%,100%);fill-opacity:0.4;" d="M 33 23.25 C 32.167969 23.25 31.5 22.582031 31.5 21.75 L 31.5 21 C 31.5 21.832031 32.167969 22.5 33 22.5 L 37.5 22.5 C 38.332031 22.5 39 21.832031 39 21 L 39 21.75 C 39 22.582031 38.332031 23.25 37.5 23.25 Z M 33 23.25 "/>
<path style=" stroke:none;fill-rule:nonzero;fill:rgb(0%,0%,0%);fill-opacity:0.4;" d="M 33 7.5 C 32.167969 7.5 31.5 8.167969 31.5 9 L 31.5 9.75 C 31.5 8.917969 32.167969 8.25 33 8.25 L 37.5 8.25 C 38.332031 8.25 39 8.917969 39 9.75 L 39 9 C 39 8.167969 38.332031 7.5 37.5 7.5 Z M 33 7.5 "/>
<path style=" stroke:none;fill-rule:nonzero;fill:rgb(87.843138%,87.843138%,87.843138%);fill-opacity:1;" d="M 33.75 17.25 L 36.75 17.25 C 37.164062 17.25 37.5 17.585938 37.5 18 L 37.5 21 C 37.5 21.414062 37.164062 21.75 36.75 21.75 L 33.75 21.75 C 33.335938 21.75 33 21.414062 33 21 L 33 18 C 33 17.585938 33.335938 17.25 33.75 17.25 Z M 33.75 17.25 "/>
<path style=" stroke:none;fill-rule:nonzero;fill:rgb(0%,0%,0%);fill-opacity:0.4;" d="M 33 21 L 33 21.75 C 33 22.164062 33.335938 22.5 33.75 22.5 L 36.75 22.5 C 37.164062 22.5 37.5 22.164062 37.5 21.75 L 37.5 21 C 37.5 21.414062 37.164062 21.75 36.75 21.75 L 33.75 21.75 C 33.335938 21.75 33 21.414062 33 21 Z M 33 21 "/>
<path style=" stroke:none;fill-rule:nonzero;fill:rgb(0%,0%,0%);fill-opacity:0.4;" d="M 33 11.25 L 33 12 C 33 12.414062 33.335938 12.75 33.75 12.75 L 36.75 12.75 C 37.164062 12.75 37.5 12.414062 37.5 12 L 37.5 11.25 C 37.5 11.664062 37.164062 12 36.75 12 L 33.75 12 C 33.335938 12 33 11.664062 33 11.25 Z M 33 11.25 "/>
<path style=" stroke:none;fill-rule:nonzero;fill:rgb(100%,100%,100%);fill-opacity:0.8;" d="M 33 18.75 L 33 18 C 33 17.585938 33.335938 17.25 33.75 17.25 L 36.75 17.25 C 37.164062 17.25 37.5 17.585938 37.5 18 L 37.5 18.75 C 37.5 18.335938 37.164062 18 36.75 18 L 33.75 18 C 33.335938 18 33 18.335938 33 18.75 Z M 33 18.75 "/>
<path style=" stroke:none;fill-rule:nonzero;fill:rgb(99.607843%,99.607843%,99.607843%);fill-opacity:0.4;" d="M 33 10.5 L 33 9.75 C 33 9.335938 33.335938 9 33.75 9 L 36.75 9 C 37.164062 9 37.5 9.335938 37.5 9.75 L 37.5 10.5 C 37.5 10.085938 37.164062 9.75 36.75 9.75 L 33.75 9.75 C 33.335938 9.75 33 10.085938 33 10.5 Z M 33 10.5 "/>
<path style=" stroke:none;fill-rule:nonzero;fill:rgb(50.588238%,83.137256%,98.039216%);fill-opacity:1;" d="M 23.902344 25.5 C 23.410156 25.507812 22.933594 25.558594 22.46875 25.65625 L 21.96875 28.15625 C 21.554688 28.328125 21.167969 28.550781 20.816406 28.816406 L 18.402344 28.003906 C 18.070312 28.378906 17.765625 28.796875 17.503906 29.25 C 17.242188 29.703125 17.03125 30.175781 16.875 30.652344 L 18.792969 32.339844 C 18.765625 32.554688 18.75 32.777344 18.75 33 C 18.75 33.222656 18.765625 33.445312 18.792969 33.664062 L 16.875 35.347656 C 17.03125 35.824219 17.242188 36.296875 17.503906 36.75 C 17.765625 37.203125 18.070312 37.621094 18.40625 38 L 20.820312 37.183594 C 21.171875 37.449219 21.554688 37.671875 21.96875 37.847656 L 22.46875 40.34375 C 22.964844 40.445312 23.476562 40.5 24 40.5 C 24.523438 40.5 25.035156 40.445312 25.53125 40.34375 L 26.03125 37.847656 C 26.445312 37.671875 26.832031 37.449219 27.183594 37.183594 L 29.597656 38 C 29.929688 37.621094 30.234375 37.203125 30.496094 36.75 C 30.757812 36.296875 30.96875 35.824219 31.125 35.347656 L 29.207031 33.664062 C 29.234375 33.445312 29.25 33.222656 29.25 33 C 29.25 32.777344 29.234375 32.554688 29.207031 32.339844 L 31.125 30.652344 C 30.96875 30.175781 30.757812 29.703125 30.496094 29.25 C 30.234375 28.796875 29.929688 28.378906 29.597656 28.003906 L 27.183594 28.816406 C 26.832031 28.550781 26.445312 28.328125 26.03125 28.15625 L 25.53125 25.65625 C 25.035156 25.554688 24.523438 25.5 24 25.5 C 23.96875 25.5 23.933594 25.5 23.902344 25.5 Z M 24 30 C 25.660156 30 27 31.339844 27 33 C 27 34.660156 25.660156 36 24 36 C 22.339844 36 21 34.660156 21 33 C 21 31.339844 22.339844 30 24 30 Z M 24 30 "/>
<path style=" stroke:none;fill-rule:nonzero;fill:rgb(0.784314%,0.784314%,0.784314%);fill-opacity:0.4;" d="M 24 29.996094 C 22.339844 29.996094 21 31.335938 21 32.996094 C 21 33.0625 21.003906 33.125 21.007812 33.1875 C 21.105469 31.613281 22.402344 30.375 24 30.375 C 25.597656 30.375 26.894531 31.613281 26.992188 33.1875 C 26.996094 33.125 27 33.0625 27 32.996094 C 27 31.335938 25.660156 29.996094 24 29.996094 Z M 16.976562 30.742188 C 16.941406 30.835938 16.90625 30.933594 16.875 31.027344 L 18.757812 32.683594 C 18.765625 32.566406 18.777344 32.449219 18.792969 32.335938 Z M 31.023438 30.742188 L 29.207031 32.335938 C 29.222656 32.449219 29.234375 32.566406 29.242188 32.683594 L 31.125 31.027344 C 31.09375 30.933594 31.058594 30.835938 31.023438 30.742188 Z M 18.753906 33.1875 C 18.753906 33.25 18.75 33.3125 18.75 33.375 C 18.75 33.480469 18.753906 33.582031 18.757812 33.6875 L 18.792969 33.660156 C 18.773438 33.503906 18.761719 33.34375 18.753906 33.1875 Z M 29.246094 33.1875 C 29.238281 33.34375 29.226562 33.503906 29.207031 33.660156 L 29.242188 33.6875 C 29.246094 33.585938 29.25 33.480469 29.25 33.375 C 29.25 33.3125 29.246094 33.25 29.246094 33.1875 Z M 16.976562 35.632812 L 16.875 35.722656 C 17.03125 36.199219 17.242188 36.671875 17.503906 37.125 C 17.765625 37.578125 18.070312 37.996094 18.40625 38.371094 L 20.820312 37.558594 C 21.171875 37.824219 21.554688 38.046875 21.96875 38.21875 L 22.46875 40.71875 C 22.964844 40.820312 23.476562 40.875 24 40.875 C 24.523438 40.875 25.035156 40.820312 25.53125 40.71875 L 26.03125 38.21875 C 26.445312 38.046875 26.832031 37.824219 27.183594 37.558594 L 29.597656 38.371094 C 29.929688 37.996094 30.234375 37.578125 30.496094 37.125 C 30.757812 36.671875 30.96875 36.199219 31.125 35.722656 L 31.023438 35.632812 C 30.878906 36.011719 30.703125 36.382812 30.496094 36.746094 C 30.234375 37.203125 29.929688 37.617188 29.597656 37.996094 L 27.183594 37.179688 C 26.832031 37.445312 26.445312 37.671875 26.03125 37.84375 L 25.53125 40.34375 C 25.035156 40.445312 24.523438 40.496094 24 40.496094 C 23.476562 40.496094 22.964844 40.445312 22.46875 40.34375 L 21.96875 37.84375 C 21.554688 37.671875 21.171875 37.445312 20.820312 37.179688 L 18.40625 37.996094 C 18.070312 37.617188 17.765625 37.203125 17.503906 36.746094 C 17.296875 36.382812 17.121094 36.011719 16.976562 35.632812 Z M 16.976562 35.632812 "/>
<path style=" stroke:none;fill-rule:nonzero;fill:rgb(98.823529%,98.823529%,98.823529%);fill-opacity:0.4;" d="M 24 36.375 C 22.339844 36.375 21 35.039062 21 33.375 C 21 33.3125 21.003906 33.25 21.007812 33.1875 C 21.105469 34.761719 22.402344 35.996094 24 35.996094 C 25.597656 35.996094 26.894531 34.761719 26.992188 33.1875 C 26.996094 33.25 27 33.3125 27 33.375 C 27 35.039062 25.660156 36.375 24 36.375 Z M 16.976562 35.632812 C 16.941406 35.535156 16.90625 35.441406 16.875 35.34375 L 18.757812 33.6875 C 18.765625 33.804688 18.777344 33.921875 18.792969 34.039062 Z M 31.023438 35.632812 L 29.207031 34.039062 C 29.222656 33.921875 29.234375 33.804688 29.242188 33.6875 L 31.125 35.34375 C 31.09375 35.441406 31.058594 35.535156 31.023438 35.632812 Z M 18.753906 33.1875 C 18.753906 33.125 18.75 33.0625 18.75 32.996094 C 18.75 32.894531 18.753906 32.789062 18.757812 32.6875 L 18.792969 32.714844 C 18.773438 32.871094 18.761719 33.027344 18.753906 33.1875 Z M 29.246094 33.1875 C 29.238281 33.027344 29.226562 32.867188 29.207031 32.714844 L 29.242188 32.683594 C 29.246094 32.789062 29.25 32.894531 29.25 32.996094 C 29.25 33.0625 29.246094 33.125 29.246094 33.1875 Z M 16.976562 30.742188 L 16.875 30.652344 C 17.03125 30.171875 17.242188 29.703125 17.503906 29.25 C 17.765625 28.792969 18.070312 28.378906 18.40625 28 L 20.820312 28.816406 C 21.171875 28.546875 21.554688 28.324219 21.96875 28.152344 L 22.46875 25.652344 C 22.964844 25.550781 23.476562 25.496094 24 25.496094 C 24.523438 25.496094 25.035156 25.550781 25.53125 25.652344 L 26.03125 28.152344 C 26.445312 28.324219 26.832031 28.546875 27.183594 28.816406 L 29.597656 28 C 29.929688 28.378906 30.234375 28.792969 30.496094 29.25 C 30.757812 29.703125 30.96875 30.171875 31.125 30.652344 L 31.023438 30.742188 C 30.878906 30.363281 30.703125 29.988281 30.496094 29.625 C 30.234375 29.171875 29.929688 28.753906 29.597656 28.378906 L 27.183594 29.195312 C 26.832031 28.925781 26.445312 28.703125 26.03125 28.53125 L 25.53125 26.03125 C 25.035156 25.929688 24.523438 25.875 24 25.875 C 23.476562 25.875 22.964844 25.929688 22.46875 26.03125 L 21.96875 28.53125 C 21.554688 28.703125 21.171875 28.925781 20.820312 29.195312 L 18.40625 28.378906 C 18.070312 28.753906 17.765625 29.171875 17.503906 29.625 C 17.296875 29.988281 17.121094 30.363281 16.976562 30.742188 Z M 16.976562 30.742188 "/>
<path style=" stroke:none;fill-rule:nonzero;fill:url(#linear0);" d="M 6 3 L 42 3 C 43.65625 3 45 4.34375 45 6 L 45 42 C 45 43.65625 43.65625 45 42 45 L 6 45 C 4.34375 45 3 43.65625 3 42 L 3 6 C 3 4.34375 4.34375 3 6 3 Z M 6 3 "/>
</g>
</svg>
