
<svg xmlns="http://www.w3.org/2000/svg" xmlns:xlink="http://www.w3.org/1999/xlink" width="48" height="48" viewBox="0 0 48 48" version="1.1">
<defs>
<linearGradient id="linear0" gradientUnits="userSpaceOnUse" x1="31.999998" y1="60" x2="31.999998" y2="4" gradientTransform="matrix(0.75,0,0,0.75,-0.000000340157,0.000000000000085265)">
<stop offset="0" style="stop-color:rgb(0%,0%,0%);stop-opacity:0.2;"/>
<stop offset="1" style="stop-color:rgb(100%,100%,100%);stop-opacity:0;"/>
</linearGradient>
</defs>
<g id="surface1">
<path style=" stroke:none;fill-rule:nonzero;fill:rgb(49.411765%,34.117648%,76.078433%);fill-opacity:1;" d="M 30 3 L 9.75 3 C 8.503906 3 7.5 4.003906 7.5 5.25 L 7.5 42.75 C 7.5 43.996094 8.503906 45 9.75 45 L 38.25 45 C 39.496094 45 40.5 43.996094 40.5 42.75 L 40.5 13.5 Z M 30 3 "/>
<path style=" stroke:none;fill-rule:nonzero;fill:rgb(0%,0%,0%);fill-opacity:0.4;" d="M 30 11.25 L 30 12 C 30 13.246094 31.003906 14.25 32.25 14.25 L 40.5 14.25 L 39.75 13.5 L 32.25 13.5 C 31.003906 13.5 30 12.496094 30 11.25 Z M 30 11.25 "/>
<path style=" stroke:none;fill-rule:nonzero;fill:rgb(58.431375%,45.882353%,80.392158%);fill-opacity:0.996078;" d="M 40.5 13.5 L 30 3 L 30 11.25 C 30 12.496094 31.003906 13.5 32.25 13.5 Z M 40.5 13.5 "/>
<path style=" stroke:none;fill-rule:nonzero;fill:rgb(100%,100%,100%);fill-opacity:0.4;" d="M 9.75 3 C 8.503906 3 7.5 4.003906 7.5 5.25 L 7.5 6 C 7.5 4.753906 8.503906 3.75 9.75 3.75 L 30 3.75 L 40.5 14.25 L 40.5 13.5 L 30 3 Z M 9.75 3 "/>
<path style=" stroke:none;fill-rule:nonzero;fill:rgb(0%,0%,0%);fill-opacity:0.2;" d="M 7.5 42.738281 L 7.5 43.875 C 7.5 45.121094 8.503906 46.125 9.75 46.125 L 38.25 46.125 C 39.496094 46.125 40.5 45.121094 40.5 43.875 L 40.5 42.738281 C 40.5 43.984375 39.496094 44.988281 38.25 44.988281 L 9.75 44.988281 C 8.503906 44.988281 7.5 43.984375 7.5 42.738281 Z M 7.5 42.738281 "/>
<path style=" stroke:none;fill-rule:nonzero;fill:rgb(0%,0%,0%);fill-opacity:0.4;" d="M 7.5 42.09375 L 7.5 42.75 C 7.5 43.996094 8.503906 45 9.75 45 L 38.25 45 C 39.496094 45 40.5 43.996094 40.5 42.75 L 40.5 42.09375 C 40.5 43.339844 39.496094 44.34375 38.25 44.34375 L 9.75 44.34375 C 8.503906 44.34375 7.5 43.339844 7.5 42.09375 Z M 7.5 42.09375 "/>
<path style=" stroke:none;fill-rule:nonzero;fill:rgb(70.19608%,61.56863%,85.882354%);fill-opacity:1;" d="M 30.828125 18 C 29.789062 18 28.574219 18.191406 27.527344 18.734375 C 26.480469 19.277344 25.578125 20.304688 25.578125 21.703125 C 25.582031 21.71875 25.585938 21.734375 25.589844 21.75 L 25.578125 21.75 L 25.578125 22.125 C 25.578125 22.332031 25.746094 22.5 25.953125 22.5 L 26.703125 22.5 C 26.910156 22.5 27.078125 22.332031 27.078125 22.125 L 27.078125 21.75 C 27.078125 21.734375 27.082031 21.71875 27.082031 21.703125 C 27.082031 20.898438 27.484375 20.445312 28.21875 20.0625 C 28.953125 19.683594 29.988281 19.5 30.828125 19.5 C 31.636719 19.5 32.65625 19.726562 33.398438 20.140625 C 34.136719 20.554688 34.550781 21.0625 34.570312 21.757812 C 34.566406 22.316406 34.398438 22.664062 34.066406 23.03125 C 33.734375 23.402344 33.222656 23.753906 32.660156 24.128906 C 32.097656 24.503906 31.484375 24.902344 30.972656 25.46875 C 30.460938 26.035156 30.074219 26.8125 30.074219 27.75 L 30.074219 28.5 L 30.078125 28.5 L 30.078125 28.875 C 30.078125 29.085938 30.246094 29.25 30.453125 29.25 L 31.203125 29.25 C 31.410156 29.25 31.578125 29.085938 31.578125 28.875 L 31.578125 28.5 L 31.574219 28.5 L 31.574219 27.75 C 31.574219 27.1875 31.757812 26.839844 32.089844 26.46875 C 32.421875 26.101562 32.929688 25.75 33.492188 25.375 C 34.054688 25 34.667969 24.601562 35.179688 24.035156 C 35.691406 23.464844 36.074219 22.691406 36.074219 21.753906 L 36.074219 21.734375 C 36.046875 20.40625 35.164062 19.410156 34.132812 18.835938 C 33.105469 18.257812 31.894531 18 30.828125 18 Z M 30.796875 30.75 C 30.1875 30.765625 29.703125 31.230469 29.703125 31.808594 L 29.703125 31.941406 C 29.703125 32.527344 30.203125 33 30.828125 33 C 31.449219 33 31.953125 32.527344 31.953125 31.941406 L 31.953125 31.808594 C 31.953125 31.222656 31.449219 30.75 30.828125 30.75 C 30.816406 30.75 30.808594 30.75 30.796875 30.75 Z M 30.796875 30.75 "/>
<path style=" stroke:none;fill-rule:nonzero;fill:rgb(100%,100%,100%);fill-opacity:0.4;" d="M 30.828125 18 C 29.789062 18 28.574219 18.191406 27.527344 18.734375 C 26.480469 19.277344 25.578125 20.304688 25.578125 21.703125 C 25.582031 21.71875 25.585938 21.734375 25.589844 21.75 L 25.578125 21.75 L 25.578125 22.125 L 25.589844 22.125 C 25.585938 22.109375 25.582031 22.09375 25.578125 22.078125 C 25.578125 20.679688 26.480469 19.65625 27.527344 19.113281 C 28.574219 18.566406 29.789062 18.375 30.828125 18.375 C 31.894531 18.375 33.105469 18.636719 34.132812 19.210938 C 35.117188 19.761719 35.96875 20.691406 36.066406 21.929688 C 36.070312 21.871094 36.078125 21.8125 36.078125 21.753906 C 36.078125 21.753906 36.078125 21.75 36.078125 21.75 C 36.078125 21.746094 36.078125 21.746094 36.078125 21.746094 C 36.078125 21.746094 36.078125 21.746094 36.078125 21.742188 C 36.078125 21.742188 36.078125 21.738281 36.078125 21.738281 C 36.078125 21.734375 36.078125 21.734375 36.078125 21.734375 C 36.046875 20.40625 35.164062 19.410156 34.132812 18.835938 C 33.105469 18.257812 31.894531 18 30.828125 18 Z M 34.558594 21.976562 C 34.515625 22.410156 34.351562 22.714844 34.066406 23.03125 C 33.734375 23.402344 33.222656 23.753906 32.660156 24.128906 C 32.097656 24.503906 31.484375 24.902344 30.972656 25.46875 C 30.460938 26.035156 30.074219 26.8125 30.074219 27.75 L 30.074219 28.125 C 30.074219 27.1875 30.460938 26.410156 30.972656 25.84375 C 31.484375 25.277344 32.097656 24.878906 32.660156 24.503906 C 33.222656 24.128906 33.734375 23.777344 34.066406 23.40625 C 34.398438 23.039062 34.570312 22.691406 34.570312 22.136719 C 34.570312 22.082031 34.566406 22.03125 34.558594 21.976562 Z M 31.574219 29.25 L 31.574219 29.625 L 31.578125 29.625 L 31.578125 29.25 Z M 30.796875 30.75 C 30.1875 30.765625 29.703125 31.230469 29.703125 31.808594 L 29.703125 31.941406 C 29.703125 31.984375 29.707031 32.023438 29.710938 32.0625 C 29.773438 31.542969 30.230469 31.140625 30.796875 31.125 C 30.808594 31.125 30.816406 31.125 30.828125 31.125 C 31.40625 31.125 31.882812 31.535156 31.945312 32.0625 C 31.949219 32.023438 31.953125 31.984375 31.953125 31.941406 L 31.953125 31.808594 C 31.953125 31.222656 31.449219 30.75 30.828125 30.75 C 30.816406 30.75 30.808594 30.75 30.796875 30.75 Z M 30.796875 30.75 "/>
<path style=" stroke:none;fill-rule:nonzero;fill:rgb(0%,0%,0%);fill-opacity:0.4;" d="M 30.828125 19.5 C 29.988281 19.5 28.953125 19.683594 28.21875 20.066406 C 27.484375 20.449219 27.082031 20.902344 27.082031 21.703125 C 27.082031 21.722656 27.078125 21.734375 27.078125 21.75 L 27.078125 22.125 C 27.078125 22.109375 27.082031 22.09375 27.082031 22.078125 C 27.082031 21.277344 27.484375 20.820312 28.21875 20.441406 C 28.953125 20.058594 29.988281 19.875 30.828125 19.875 C 31.636719 19.875 32.65625 20.101562 33.398438 20.519531 C 34.078125 20.902344 34.488281 21.363281 34.558594 21.980469 C 34.566406 21.910156 34.570312 21.835938 34.570312 21.761719 C 34.550781 21.066406 34.136719 20.558594 33.398438 20.144531 C 32.65625 19.726562 31.636719 19.5 30.828125 19.5 Z M 36.070312 21.960938 C 36.015625 22.804688 35.652344 23.507812 35.179688 24.035156 C 34.667969 24.601562 34.054688 25 33.492188 25.375 C 32.929688 25.75 32.421875 26.101562 32.089844 26.472656 C 31.757812 26.839844 31.574219 27.1875 31.574219 27.75 L 31.574219 28.125 C 31.574219 27.5625 31.757812 27.214844 32.089844 26.847656 C 32.421875 26.476562 32.929688 26.125 33.492188 25.75 C 34.054688 25.375 34.667969 24.976562 35.179688 24.410156 C 35.691406 23.84375 36.078125 23.066406 36.078125 22.128906 L 36.078125 22.113281 C 36.074219 22.058594 36.074219 22.007812 36.070312 21.957031 Z M 25.578125 22.125 L 25.578125 22.5 C 25.578125 22.710938 25.746094 22.875 25.953125 22.875 L 26.703125 22.875 C 26.910156 22.875 27.078125 22.710938 27.078125 22.5 L 27.078125 22.128906 C 27.074219 22.335938 26.910156 22.5 26.703125 22.5 L 25.953125 22.5 C 25.746094 22.5 25.578125 22.335938 25.578125 22.125 Z M 30.074219 28.503906 L 30.074219 28.878906 L 30.078125 28.878906 L 30.078125 28.503906 Z M 30.078125 28.878906 L 30.078125 29.253906 C 30.078125 29.460938 30.246094 29.628906 30.453125 29.628906 L 31.203125 29.628906 C 31.410156 29.628906 31.578125 29.460938 31.578125 29.253906 L 31.578125 28.878906 C 31.578125 29.085938 31.410156 29.253906 31.203125 29.253906 L 30.453125 29.253906 C 30.246094 29.253906 30.078125 29.085938 30.078125 28.878906 Z M 31.945312 32.0625 C 31.882812 32.59375 31.40625 33 30.828125 33 C 30.25 33 29.773438 32.59375 29.710938 32.066406 C 29.707031 32.105469 29.703125 32.144531 29.703125 32.183594 L 29.703125 32.320312 C 29.703125 32.90625 30.203125 33.375 30.828125 33.375 C 31.449219 33.375 31.953125 32.90625 31.953125 32.320312 L 31.953125 32.183594 C 31.953125 32.144531 31.949219 32.105469 31.945312 32.0625 Z M 31.945312 32.0625 "/>
<path style=" stroke:none;fill-rule:nonzero;fill:rgb(70.19608%,61.56863%,85.882354%);fill-opacity:0.996078;" d="M 23.410156 18.160156 L 24.136719 18.351562 C 24.335938 18.40625 24.453125 18.613281 24.398438 18.8125 L 20.710938 32.578125 C 20.65625 32.777344 20.453125 32.894531 20.253906 32.839844 L 19.527344 32.648438 C 19.328125 32.59375 19.210938 32.386719 19.261719 32.1875 L 22.949219 18.421875 C 23.003906 18.222656 23.210938 18.105469 23.410156 18.160156 Z M 23.410156 18.160156 "/>
<path style=" stroke:none;fill-rule:nonzero;fill:rgb(100%,100%,100%);fill-opacity:0.4;" d="M 23.296875 18.148438 C 23.136719 18.152344 22.996094 18.261719 22.953125 18.421875 L 19.261719 32.1875 C 19.238281 32.273438 19.246094 32.359375 19.28125 32.433594 L 22.949219 18.738281 C 23.003906 18.535156 23.210938 18.417969 23.410156 18.472656 L 24.132812 18.667969 C 24.25 18.699219 24.339844 18.777344 24.382812 18.878906 L 24.398438 18.8125 C 24.453125 18.609375 24.335938 18.40625 24.132812 18.351562 L 23.410156 18.15625 C 23.371094 18.148438 23.335938 18.144531 23.296875 18.148438 Z M 23.296875 18.148438 "/>
<path style=" stroke:none;fill-rule:nonzero;fill:rgb(0%,0%,0%);fill-opacity:0.4;" d="M 24.375 18.90625 L 20.710938 32.578125 C 20.65625 32.777344 20.453125 32.894531 20.253906 32.839844 L 19.527344 32.648438 C 19.417969 32.617188 19.335938 32.542969 19.289062 32.449219 L 19.261719 32.546875 C 19.207031 32.746094 19.328125 32.949219 19.527344 33.003906 L 20.253906 33.199219 C 20.453125 33.253906 20.65625 33.132812 20.710938 32.933594 L 24.398438 19.167969 C 24.425781 19.078125 24.414062 18.984375 24.375 18.90625 Z M 24.375 18.90625 "/>
<path style=" stroke:none;fill-rule:nonzero;fill:rgb(70.19608%,61.56863%,85.882354%);fill-opacity:0.996078;" d="M 16.871094 20.460938 C 17.015625 20.316406 17.253906 20.316406 17.398438 20.460938 L 17.929688 20.992188 C 18.078125 21.140625 18.078125 21.375 17.929688 21.523438 L 13.953125 25.5 L 17.929688 29.476562 C 18.078125 29.625 18.078125 29.859375 17.929688 30.007812 L 17.398438 30.539062 C 17.253906 30.683594 17.015625 30.683594 16.871094 30.539062 L 12.625 26.296875 L 12.097656 25.765625 C 11.949219 25.617188 11.949219 25.382812 12.097656 25.234375 L 12.625 24.703125 Z M 16.871094 20.460938 "/>
<path style=" stroke:none;fill-rule:nonzero;fill:rgb(100%,100%,100%);fill-opacity:0.4;" d="M 17.132812 20.351562 C 17.039062 20.351562 16.941406 20.390625 16.871094 20.460938 L 12.097656 25.234375 C 11.976562 25.351562 11.957031 25.527344 12.027344 25.671875 C 12.046875 25.636719 12.066406 25.605469 12.097656 25.578125 L 16.871094 20.804688 C 17.015625 20.65625 17.253906 20.65625 17.398438 20.804688 L 17.929688 21.335938 C 17.957031 21.363281 17.980469 21.394531 18 21.429688 C 18.070312 21.285156 18.046875 21.109375 17.929688 20.992188 L 17.398438 20.460938 C 17.324219 20.390625 17.230469 20.351562 17.132812 20.351562 Z M 14.121094 25.671875 L 13.953125 25.839844 L 17.929688 29.820312 C 17.957031 29.847656 17.980469 29.878906 18 29.914062 C 18.070312 29.773438 18.046875 29.597656 17.929688 29.476562 Z M 14.121094 25.671875 "/>
<path style=" stroke:none;fill-rule:nonzero;fill:rgb(5.882353%,5.882353%,5.882353%);fill-opacity:0.4;" d="M 17.132812 30.984375 C 17.039062 30.984375 16.941406 30.949219 16.871094 30.875 L 12.097656 26.101562 C 11.976562 25.984375 11.957031 25.808594 12.027344 25.667969 C 12.046875 25.699219 12.066406 25.730469 12.097656 25.761719 L 12.628906 26.289062 L 16.871094 30.53125 C 17.015625 30.679688 17.253906 30.679688 17.398438 30.53125 L 17.929688 30.003906 C 17.957031 29.972656 17.980469 29.941406 18 29.910156 C 18.070312 30.050781 18.046875 30.226562 17.929688 30.34375 L 17.398438 30.875 C 17.324219 30.949219 17.230469 30.984375 17.132812 30.984375 Z M 14.121094 25.667969 L 13.953125 25.496094 L 17.929688 21.515625 C 17.957031 21.488281 17.980469 21.457031 18 21.421875 C 18.070312 21.5625 18.046875 21.742188 17.929688 21.859375 Z M 14.121094 25.667969 "/>
<path style=" stroke:none;fill-rule:nonzero;fill:url(#linear0);" d="M 30 3 L 9.75 3 C 8.503906 3 7.5 4.003906 7.5 5.25 L 7.5 42.75 C 7.5 43.996094 8.503906 45 9.75 45 L 38.25 45 C 39.496094 45 40.5 43.996094 40.5 42.75 L 40.5 13.5 Z M 30 3 "/>
</g>
</svg>
