
<svg xmlns="http://www.w3.org/2000/svg" xmlns:xlink="http://www.w3.org/1999/xlink" width="22" height="22" viewBox="0 0 22 22" version="1.1">
<defs>
<linearGradient id="linear0" gradientUnits="userSpaceOnUse" x1="31.999998" y1="60" x2="31.999998" y2="4" gradientTransform="matrix(0.34375,0,0,0.34375,-0.000000155905,0.00000000000003908)">
<stop offset="0" style="stop-color:rgb(0%,0%,0%);stop-opacity:0.2;"/>
<stop offset="1" style="stop-color:rgb(100%,100%,100%);stop-opacity:0;"/>
</linearGradient>
</defs>
<g id="surface1">
<path style=" stroke:none;fill-rule:nonzero;fill:rgb(49.411765%,34.117648%,76.078433%);fill-opacity:1;" d="M 13.75 1.375 L 4.46875 1.375 C 3.898438 1.375 3.4375 1.835938 3.4375 2.40625 L 3.4375 19.59375 C 3.4375 20.164062 3.898438 20.625 4.46875 20.625 L 17.53125 20.625 C 18.101562 20.625 18.5625 20.164062 18.5625 19.59375 L 18.5625 6.1875 Z M 13.75 1.375 "/>
<path style=" stroke:none;fill-rule:nonzero;fill:rgb(0%,0%,0%);fill-opacity:0.4;" d="M 13.75 5.15625 L 13.75 5.5 C 13.75 6.070312 14.210938 6.53125 14.78125 6.53125 L 18.5625 6.53125 L 18.21875 6.1875 L 14.78125 6.1875 C 14.210938 6.1875 13.75 5.726562 13.75 5.15625 Z M 13.75 5.15625 "/>
<path style=" stroke:none;fill-rule:nonzero;fill:rgb(58.431375%,45.882353%,80.392158%);fill-opacity:0.996078;" d="M 18.5625 6.1875 L 13.75 1.375 L 13.75 5.15625 C 13.75 5.726562 14.210938 6.1875 14.78125 6.1875 Z M 18.5625 6.1875 "/>
<path style=" stroke:none;fill-rule:nonzero;fill:rgb(100%,100%,100%);fill-opacity:0.4;" d="M 4.46875 1.375 C 3.898438 1.375 3.4375 1.835938 3.4375 2.40625 L 3.4375 2.75 C 3.4375 2.179688 3.898438 1.71875 4.46875 1.71875 L 13.75 1.71875 L 18.5625 6.53125 L 18.5625 6.1875 L 13.75 1.375 Z M 4.46875 1.375 "/>
<path style=" stroke:none;fill-rule:nonzero;fill:rgb(0%,0%,0%);fill-opacity:0.2;" d="M 3.4375 19.589844 L 3.4375 20.109375 C 3.4375 20.679688 3.898438 21.140625 4.46875 21.140625 L 17.53125 21.140625 C 18.101562 21.140625 18.5625 20.679688 18.5625 20.109375 L 18.5625 19.589844 C 18.5625 20.160156 18.101562 20.621094 17.53125 20.621094 L 4.46875 20.621094 C 3.898438 20.621094 3.4375 20.160156 3.4375 19.589844 Z M 3.4375 19.589844 "/>
<path style=" stroke:none;fill-rule:nonzero;fill:rgb(0%,0%,0%);fill-opacity:0.4;" d="M 3.4375 19.292969 L 3.4375 19.59375 C 3.4375 20.164062 3.898438 20.625 4.46875 20.625 L 17.53125 20.625 C 18.101562 20.625 18.5625 20.164062 18.5625 19.59375 L 18.5625 19.292969 C 18.5625 19.863281 18.101562 20.324219 17.53125 20.324219 L 4.46875 20.324219 C 3.898438 20.324219 3.4375 19.863281 3.4375 19.292969 Z M 3.4375 19.292969 "/>
<path style=" stroke:none;fill-rule:nonzero;fill:rgb(70.19608%,61.56863%,85.882354%);fill-opacity:1;" d="M 14.128906 8.25 C 13.652344 8.25 13.097656 8.335938 12.617188 8.585938 C 12.136719 8.835938 11.722656 9.304688 11.722656 9.949219 C 11.726562 9.953125 11.726562 9.960938 11.726562 9.96875 L 11.722656 9.96875 L 11.722656 10.140625 C 11.722656 10.234375 11.800781 10.3125 11.894531 10.3125 L 12.238281 10.3125 C 12.332031 10.3125 12.410156 10.234375 12.410156 10.140625 L 12.410156 9.96875 C 12.410156 9.960938 12.410156 9.953125 12.410156 9.949219 C 12.410156 9.578125 12.597656 9.371094 12.933594 9.195312 C 13.269531 9.019531 13.746094 8.9375 14.128906 8.9375 C 14.5 8.9375 14.964844 9.039062 15.308594 9.230469 C 15.644531 9.421875 15.835938 9.652344 15.84375 9.972656 C 15.84375 10.226562 15.765625 10.386719 15.613281 10.554688 C 15.460938 10.726562 15.226562 10.886719 14.96875 11.058594 C 14.710938 11.230469 14.429688 11.414062 14.195312 11.671875 C 13.960938 11.933594 13.785156 12.289062 13.785156 12.71875 L 13.785156 13.234375 C 13.785156 13.332031 13.863281 13.40625 13.957031 13.40625 L 14.300781 13.40625 C 14.394531 13.40625 14.472656 13.332031 14.472656 13.234375 L 14.472656 12.71875 C 14.472656 12.460938 14.554688 12.300781 14.707031 12.132812 C 14.859375 11.960938 15.09375 11.800781 15.351562 11.628906 C 15.609375 11.457031 15.890625 11.277344 16.125 11.015625 C 16.359375 10.753906 16.535156 10.398438 16.535156 9.96875 L 16.535156 9.960938 C 16.523438 9.351562 16.117188 8.898438 15.644531 8.632812 C 15.171875 8.367188 14.617188 8.25 14.128906 8.25 Z M 14.117188 14.09375 C 13.835938 14.101562 13.613281 14.3125 13.613281 14.578125 L 13.613281 14.640625 C 13.613281 14.910156 13.84375 15.125 14.128906 15.125 C 14.414062 15.125 14.644531 14.910156 14.644531 14.640625 L 14.644531 14.578125 C 14.644531 14.308594 14.414062 14.09375 14.128906 14.09375 C 14.125 14.09375 14.121094 14.09375 14.117188 14.09375 Z M 14.117188 14.09375 "/>
<path style=" stroke:none;fill-rule:nonzero;fill:rgb(100%,100%,100%);fill-opacity:0.4;" d="M 14.128906 8.25 C 13.652344 8.25 13.097656 8.335938 12.617188 8.585938 C 12.136719 8.835938 11.722656 9.304688 11.722656 9.949219 C 11.726562 9.953125 11.726562 9.960938 11.726562 9.96875 L 11.722656 9.96875 L 11.722656 10.140625 L 11.726562 10.140625 C 11.726562 10.132812 11.726562 10.128906 11.722656 10.121094 C 11.722656 9.476562 12.136719 9.007812 12.617188 8.757812 C 13.097656 8.511719 13.652344 8.421875 14.128906 8.421875 C 14.617188 8.421875 15.171875 8.539062 15.644531 8.804688 C 16.09375 9.058594 16.484375 9.484375 16.53125 10.050781 C 16.53125 10.023438 16.535156 9.996094 16.535156 9.96875 C 16.535156 9.96875 16.535156 9.96875 16.535156 9.964844 C 16.535156 9.964844 16.535156 9.960938 16.535156 9.960938 C 16.523438 9.351562 16.117188 8.898438 15.644531 8.632812 C 15.171875 8.367188 14.617188 8.25 14.128906 8.25 Z M 15.839844 10.074219 C 15.820312 10.273438 15.746094 10.410156 15.613281 10.554688 C 15.460938 10.726562 15.226562 10.886719 14.96875 11.058594 C 14.710938 11.230469 14.429688 11.414062 14.195312 11.671875 C 13.960938 11.933594 13.785156 12.289062 13.785156 12.71875 L 13.785156 12.890625 C 13.785156 12.460938 13.960938 12.105469 14.195312 11.84375 C 14.429688 11.585938 14.710938 11.402344 14.96875 11.230469 C 15.226562 11.058594 15.460938 10.898438 15.613281 10.730469 C 15.765625 10.558594 15.84375 10.402344 15.84375 10.144531 C 15.84375 10.121094 15.84375 10.097656 15.839844 10.074219 Z M 14.472656 13.40625 L 14.472656 13.578125 Z M 14.117188 14.09375 C 13.835938 14.101562 13.613281 14.3125 13.613281 14.578125 L 13.613281 14.640625 C 13.613281 14.660156 13.613281 14.675781 13.617188 14.695312 C 13.644531 14.457031 13.855469 14.273438 14.117188 14.265625 C 14.121094 14.265625 14.125 14.265625 14.128906 14.265625 C 14.394531 14.265625 14.613281 14.453125 14.640625 14.695312 C 14.644531 14.675781 14.644531 14.660156 14.644531 14.640625 L 14.644531 14.578125 C 14.644531 14.308594 14.414062 14.09375 14.128906 14.09375 C 14.125 14.09375 14.121094 14.09375 14.117188 14.09375 Z M 14.117188 14.09375 "/>
<path style=" stroke:none;fill-rule:nonzero;fill:rgb(0%,0%,0%);fill-opacity:0.4;" d="M 14.128906 8.9375 C 13.746094 8.9375 13.269531 9.023438 12.933594 9.195312 C 12.597656 9.371094 12.410156 9.578125 12.410156 9.949219 C 12.410156 9.957031 12.410156 9.960938 12.410156 9.96875 L 12.410156 10.140625 C 12.410156 10.132812 12.410156 10.125 12.410156 10.121094 C 12.410156 9.75 12.597656 9.542969 12.933594 9.367188 C 13.269531 9.195312 13.746094 9.109375 14.128906 9.109375 C 14.5 9.109375 14.96875 9.214844 15.308594 9.402344 C 15.621094 9.578125 15.804688 9.792969 15.839844 10.074219 C 15.84375 10.042969 15.84375 10.007812 15.84375 9.972656 C 15.835938 9.65625 15.644531 9.421875 15.308594 9.230469 C 14.964844 9.042969 14.5 8.9375 14.128906 8.9375 Z M 16.53125 10.066406 C 16.507812 10.453125 16.339844 10.773438 16.125 11.015625 C 15.890625 11.277344 15.609375 11.457031 15.351562 11.628906 C 15.09375 11.800781 14.859375 11.964844 14.707031 12.132812 C 14.554688 12.300781 14.472656 12.460938 14.472656 12.71875 L 14.472656 12.890625 C 14.472656 12.632812 14.554688 12.472656 14.707031 12.304688 C 14.859375 12.136719 15.09375 11.972656 15.351562 11.800781 C 15.609375 11.628906 15.890625 11.449219 16.125 11.1875 C 16.359375 10.929688 16.535156 10.574219 16.535156 10.144531 L 16.535156 10.132812 C 16.535156 10.109375 16.535156 10.085938 16.53125 10.066406 Z M 11.722656 10.140625 L 11.722656 10.3125 C 11.722656 10.410156 11.800781 10.484375 11.894531 10.484375 L 12.238281 10.484375 C 12.332031 10.484375 12.410156 10.410156 12.410156 10.3125 L 12.410156 10.144531 C 12.410156 10.238281 12.332031 10.3125 12.238281 10.3125 L 11.894531 10.3125 C 11.800781 10.3125 11.722656 10.238281 11.722656 10.140625 Z M 13.785156 13.0625 L 13.785156 13.234375 Z M 13.785156 13.234375 L 13.785156 13.40625 C 13.785156 13.503906 13.863281 13.578125 13.957031 13.578125 L 14.300781 13.578125 C 14.394531 13.578125 14.472656 13.503906 14.472656 13.40625 L 14.472656 13.234375 C 14.472656 13.332031 14.394531 13.40625 14.300781 13.40625 L 13.957031 13.40625 C 13.863281 13.40625 13.785156 13.332031 13.785156 13.234375 Z M 14.640625 14.695312 C 14.613281 14.9375 14.394531 15.125 14.128906 15.125 C 13.863281 15.125 13.644531 14.9375 13.617188 14.695312 C 13.613281 14.714844 13.613281 14.734375 13.613281 14.75 L 13.613281 14.8125 C 13.613281 15.082031 13.84375 15.296875 14.128906 15.296875 C 14.414062 15.296875 14.644531 15.082031 14.644531 14.8125 L 14.644531 14.75 C 14.644531 14.730469 14.644531 14.714844 14.640625 14.695312 Z M 14.640625 14.695312 "/>
<path style=" stroke:none;fill-rule:nonzero;fill:rgb(70.19608%,61.56863%,85.882354%);fill-opacity:0.996078;" d="M 10.730469 8.324219 L 11.0625 8.410156 C 11.152344 8.4375 11.207031 8.53125 11.183594 8.621094 L 9.492188 14.929688 C 9.46875 15.023438 9.375 15.078125 9.28125 15.050781 L 8.949219 14.964844 C 8.859375 14.9375 8.804688 14.84375 8.828125 14.753906 L 10.519531 8.445312 C 10.542969 8.351562 10.636719 8.296875 10.730469 8.324219 Z M 10.730469 8.324219 "/>
<path style=" stroke:none;fill-rule:nonzero;fill:rgb(100%,100%,100%);fill-opacity:0.4;" d="M 10.679688 8.316406 C 10.605469 8.320312 10.539062 8.371094 10.519531 8.445312 L 8.828125 14.753906 C 8.816406 14.792969 8.820312 14.832031 8.835938 14.867188 L 10.519531 8.585938 C 10.542969 8.496094 10.636719 8.441406 10.730469 8.464844 L 11.0625 8.554688 C 11.113281 8.570312 11.15625 8.605469 11.175781 8.652344 L 11.183594 8.621094 C 11.207031 8.53125 11.152344 8.4375 11.0625 8.410156 L 10.730469 8.324219 C 10.710938 8.316406 10.695312 8.316406 10.679688 8.316406 Z M 10.679688 8.316406 "/>
<path style=" stroke:none;fill-rule:nonzero;fill:rgb(0%,0%,0%);fill-opacity:0.4;" d="M 11.171875 8.664062 L 9.492188 14.929688 C 9.46875 15.023438 9.375 15.078125 9.28125 15.050781 L 8.949219 14.964844 C 8.898438 14.949219 8.863281 14.917969 8.839844 14.875 L 8.828125 14.917969 C 8.804688 15.007812 8.859375 15.101562 8.949219 15.128906 L 9.28125 15.214844 C 9.375 15.242188 9.46875 15.1875 9.492188 15.09375 L 11.183594 8.785156 C 11.195312 8.742188 11.191406 8.703125 11.171875 8.664062 Z M 11.171875 8.664062 "/>
<path style=" stroke:none;fill-rule:nonzero;fill:rgb(70.19608%,61.56863%,85.882354%);fill-opacity:0.996078;" d="M 7.730469 9.378906 C 7.800781 9.3125 7.90625 9.3125 7.976562 9.378906 L 8.21875 9.621094 C 8.285156 9.6875 8.285156 9.796875 8.21875 9.863281 L 6.394531 11.6875 L 8.21875 13.511719 C 8.285156 13.578125 8.285156 13.6875 8.21875 13.753906 L 7.976562 13.996094 C 7.90625 14.0625 7.800781 14.0625 7.730469 13.996094 L 5.789062 12.050781 L 5.542969 11.808594 C 5.476562 11.742188 5.476562 11.632812 5.542969 11.566406 L 5.789062 11.324219 Z M 7.730469 9.378906 "/>
<path style=" stroke:none;fill-rule:nonzero;fill:rgb(100%,100%,100%);fill-opacity:0.4;" d="M 7.851562 9.328125 C 7.808594 9.328125 7.765625 9.34375 7.730469 9.378906 L 5.789062 11.324219 L 5.542969 11.566406 C 5.488281 11.621094 5.480469 11.699219 5.511719 11.765625 C 5.519531 11.75 5.53125 11.734375 5.542969 11.722656 L 5.789062 11.480469 L 7.730469 9.535156 C 7.800781 9.46875 7.90625 9.46875 7.976562 9.535156 L 8.21875 9.777344 C 8.230469 9.792969 8.242188 9.804688 8.25 9.820312 C 8.28125 9.757812 8.273438 9.675781 8.21875 9.621094 L 7.976562 9.378906 C 7.941406 9.34375 7.898438 9.328125 7.851562 9.328125 Z M 6.472656 11.765625 L 6.394531 11.84375 L 8.21875 13.667969 C 8.230469 13.679688 8.242188 13.695312 8.25 13.710938 C 8.28125 13.644531 8.273438 13.566406 8.21875 13.511719 Z M 6.472656 11.765625 "/>
<path style=" stroke:none;fill-rule:nonzero;fill:rgb(5.882353%,5.882353%,5.882353%);fill-opacity:0.4;" d="M 7.851562 14.203125 C 7.808594 14.203125 7.765625 14.183594 7.730469 14.152344 L 5.789062 12.207031 L 5.542969 11.964844 C 5.488281 11.910156 5.480469 11.828125 5.511719 11.765625 C 5.519531 11.78125 5.53125 11.792969 5.542969 11.808594 L 5.789062 12.050781 L 7.730469 13.996094 C 7.800781 14.0625 7.90625 14.0625 7.976562 13.996094 L 8.21875 13.75 C 8.230469 13.738281 8.242188 13.722656 8.25 13.707031 C 8.28125 13.773438 8.273438 13.855469 8.21875 13.90625 L 7.976562 14.152344 C 7.941406 14.183594 7.898438 14.203125 7.851562 14.203125 Z M 6.472656 11.765625 L 6.394531 11.683594 L 8.21875 9.863281 C 8.230469 9.847656 8.242188 9.835938 8.25 9.820312 C 8.28125 9.882812 8.273438 9.964844 8.21875 10.019531 Z M 6.472656 11.765625 "/>
<path style=" stroke:none;fill-rule:nonzero;fill:url(#linear0);" d="M 13.75 1.375 L 4.46875 1.375 C 3.898438 1.375 3.4375 1.835938 3.4375 2.40625 L 3.4375 19.59375 C 3.4375 20.164062 3.898438 20.625 4.46875 20.625 L 17.53125 20.625 C 18.101562 20.625 18.5625 20.164062 18.5625 19.59375 L 18.5625 6.1875 Z M 13.75 1.375 "/>
</g>
</svg>
