
<svg xmlns="http://www.w3.org/2000/svg" xmlns:xlink="http://www.w3.org/1999/xlink" width="24" height="24" viewBox="0 0 24 24" version="1.1">
<defs>
<linearGradient id="linear0" gradientUnits="userSpaceOnUse" x1="8.466666" y1="-199.125" x2="8.466666" y2="-213.941666" gradientTransform="matrix(1.417323,0,0,1.417323,0,304.724425)">
<stop offset="0" style="stop-color:rgb(0%,0%,0%);stop-opacity:0.2;"/>
<stop offset="1" style="stop-color:rgb(100%,100%,100%);stop-opacity:0;"/>
</linearGradient>
</defs>
<g id="surface1">
<path style=" stroke:none;fill-rule:nonzero;fill:rgb(38.039216%,38.039216%,38.039216%);fill-opacity:1;" d="M 12 1.496094 C 17.800781 1.496094 22.5 6.199219 22.5 12 C 22.5 17.800781 17.800781 22.5 12 22.5 C 6.199219 22.5 1.496094 17.800781 1.496094 12 C 1.496094 6.199219 6.199219 1.496094 12 1.496094 Z M 12 1.496094 "/>
<path style=" stroke:none;fill-rule:nonzero;fill:rgb(100%,100%,100%);fill-opacity:0.4;" d="M 12 1.5 C 6.203125 1.5 1.5 6.199219 1.5 12 C 1.5 12.0625 1.5 12.125 1.503906 12.1875 C 1.601562 6.476562 6.265625 1.875 12 1.875 C 17.734375 1.875 22.398438 6.476562 22.496094 12.1875 C 22.5 12.125 22.5 12.0625 22.5 12 C 22.5 6.199219 17.796875 1.5 12 1.5 Z M 12 1.5 "/>
<path style=" stroke:none;fill-rule:nonzero;fill:rgb(0%,0%,0%);fill-opacity:0.4;" d="M 1.507812 11.808594 C 1.503906 11.871094 1.5 11.933594 1.5 11.996094 C 1.5 17.792969 6.203125 22.496094 12 22.496094 C 17.796875 22.496094 22.5 17.792969 22.5 11.996094 C 22.5 11.933594 22.496094 11.871094 22.496094 11.808594 C 22.394531 17.523438 17.734375 22.125 12 22.125 C 6.265625 22.125 1.605469 17.523438 1.507812 11.808594 Z M 1.507812 11.808594 "/>
<path style=" stroke:none;fill-rule:nonzero;fill:rgb(0%,0%,0%);fill-opacity:0.2;" d="M 1.503906 12.28125 C 1.503906 12.375 1.5 12.46875 1.5 12.5625 C 1.5 18.359375 6.203125 23.0625 12 23.0625 C 17.796875 23.0625 22.5 18.359375 22.5 12.5625 C 22.5 12.46875 22.496094 12.375 22.496094 12.28125 C 22.34375 17.949219 17.703125 22.5 12 22.5 C 6.296875 22.5 1.65625 17.949219 1.503906 12.28125 Z M 1.503906 12.28125 "/>
<path style=" stroke:none;fill-rule:nonzero;fill:rgb(93.333334%,93.333334%,93.333334%);fill-opacity:1;" d="M 11.25 3.75 C 10.835938 3.75 10.5 4.085938 10.5 4.5 L 10.5 10.046875 L 5.144531 8.609375 C 4.742188 8.503906 4.332031 8.738281 4.226562 9.140625 L 3.835938 10.589844 C 3.730469 10.992188 3.964844 11.398438 4.367188 11.507812 L 9.722656 12.941406 L 6.949219 17.746094 C 6.742188 18.105469 6.867188 18.5625 7.226562 18.769531 L 8.523438 19.519531 C 8.882812 19.726562 9.339844 19.605469 9.550781 19.246094 L 12 15 L 14.449219 19.246094 C 14.660156 19.605469 15.117188 19.726562 15.476562 19.519531 L 16.773438 18.769531 C 17.132812 18.5625 17.257812 18.105469 17.050781 17.746094 L 14.277344 12.941406 L 19.632812 11.507812 C 20.035156 11.398438 20.269531 10.992188 20.164062 10.589844 L 19.773438 9.140625 C 19.667969 8.738281 19.257812 8.503906 18.855469 8.609375 L 13.5 10.046875 L 13.5 4.5 C 13.5 4.085938 13.164062 3.75 12.75 3.75 Z M 11.25 3.75 "/>
<path style=" stroke:none;fill-rule:nonzero;fill:rgb(100%,100%,100%);fill-opacity:0.6;" d="M 11.25 3.75 C 10.835938 3.75 10.5 4.085938 10.5 4.5 L 10.5 4.875 C 10.5 4.460938 10.835938 4.125 11.25 4.125 L 12.75 4.125 C 13.164062 4.125 13.5 4.460938 13.5 4.875 L 13.5 4.5 C 13.5 4.085938 13.164062 3.75 12.75 3.75 Z M 4.992188 8.585938 C 4.644531 8.5625 4.320312 8.789062 4.226562 9.140625 L 3.835938 10.589844 C 3.804688 10.71875 3.808594 10.847656 3.835938 10.964844 L 4.226562 9.515625 C 4.332031 9.113281 4.742188 8.878906 5.144531 8.984375 L 10.5 10.421875 L 10.5 10.046875 L 5.144531 8.609375 C 5.09375 8.597656 5.042969 8.589844 4.992188 8.585938 Z M 19.007812 8.585938 C 18.957031 8.589844 18.90625 8.597656 18.855469 8.609375 L 13.5 10.046875 L 13.5 10.421875 L 18.855469 8.984375 C 19.257812 8.878906 19.667969 9.113281 19.773438 9.515625 L 20.164062 10.964844 C 20.191406 10.847656 20.195312 10.71875 20.164062 10.589844 L 19.773438 9.140625 C 19.679688 8.789062 19.355469 8.5625 19.007812 8.585938 Z M 9.535156 13.265625 L 6.949219 17.746094 C 6.847656 17.921875 6.828125 18.125 6.875 18.308594 C 6.890625 18.242188 6.914062 18.179688 6.949219 18.121094 L 9.722656 13.316406 Z M 14.464844 13.265625 L 14.277344 13.316406 L 17.050781 18.121094 C 17.085938 18.179688 17.109375 18.242188 17.125 18.308594 C 17.171875 18.125 17.152344 17.921875 17.050781 17.746094 Z M 14.464844 13.265625 "/>
<path style=" stroke:none;fill-rule:nonzero;fill:rgb(0%,0%,0%);fill-opacity:0.4;" d="M 3.835938 10.972656 C 3.734375 11.371094 3.96875 11.777344 4.367188 11.882812 L 9.535156 13.265625 L 9.722656 12.941406 L 4.367188 11.507812 C 4.097656 11.433594 3.902344 11.226562 3.835938 10.972656 Z M 20.164062 10.972656 C 20.097656 11.226562 19.902344 11.433594 19.632812 11.507812 L 14.277344 12.941406 L 14.464844 13.265625 L 19.632812 11.882812 C 20.03125 11.777344 20.265625 11.371094 20.164062 10.972656 Z M 12 15 L 9.550781 19.246094 C 9.339844 19.605469 8.882812 19.726562 8.523438 19.519531 L 7.226562 18.769531 C 7.042969 18.664062 6.921875 18.496094 6.875 18.308594 C 6.792969 18.628906 6.925781 18.972656 7.226562 19.144531 L 8.523438 19.894531 C 8.882812 20.101562 9.339844 19.980469 9.550781 19.621094 L 12 15.375 L 14.449219 19.621094 C 14.660156 19.980469 15.117188 20.101562 15.476562 19.894531 L 16.773438 19.144531 C 17.074219 18.972656 17.207031 18.628906 17.125 18.308594 C 17.078125 18.496094 16.957031 18.664062 16.773438 18.769531 L 15.476562 19.519531 C 15.117188 19.726562 14.660156 19.605469 14.449219 19.246094 Z M 12 15 "/>
<path style=" stroke:none;fill-rule:nonzero;fill:url(#linear0);" d="M 12 1.5 C 17.796875 1.5 22.5 6.199219 22.5 12 C 22.5 17.796875 17.796875 22.5 12 22.5 C 6.203125 22.5 1.5 17.796875 1.5 12 C 1.5 6.199219 6.203125 1.5 12 1.5 Z M 12 1.5 "/>
</g>
</svg>
