
<svg xmlns="http://www.w3.org/2000/svg" xmlns:xlink="http://www.w3.org/1999/xlink" width="24" height="24" viewBox="0 0 24 24" version="1.1">
<defs>
<linearGradient id="linear0" gradientUnits="userSpaceOnUse" x1="8.466666" y1="-199.125" x2="8.466666" y2="-213.941666" gradientTransform="matrix(1.417323,0,0,1.417323,0,304.724425)">
<stop offset="0" style="stop-color:rgb(0%,0%,0%);stop-opacity:0.2;"/>
<stop offset="1" style="stop-color:rgb(100%,100%,100%);stop-opacity:0;"/>
</linearGradient>
</defs>
<g id="surface1">
<path style=" stroke:none;fill-rule:nonzero;fill:rgb(87.843138%,87.843138%,87.843138%);fill-opacity:1;" d="M 12 1.496094 C 6.183594 1.496094 1.496094 6.179688 1.496094 12 C 1.496094 17.816406 6.183594 22.5 12 22.5 C 17.816406 22.5 22.5 17.816406 22.5 12 C 22.5 6.179688 17.816406 1.496094 12 1.496094 Z M 12 7.5 C 14.492188 7.5 16.5 9.507812 16.5 12 C 16.5 14.492188 14.492188 16.5 12 16.5 C 9.507812 16.5 7.5 14.492188 7.5 12 C 7.5 9.507812 9.507812 7.5 12 7.5 Z M 12 7.5 "/>
<path style=" stroke:none;fill-rule:nonzero;fill:rgb(0%,0%,0%);fill-opacity:0.2;" d="M 1.503906 12.28125 C 1.503906 12.375 1.5 12.46875 1.5 12.5625 C 1.5 18.359375 6.203125 23.0625 12 23.0625 C 17.796875 23.0625 22.5 18.359375 22.5 12.5625 C 22.5 12.46875 22.496094 12.375 22.496094 12.28125 C 22.34375 17.949219 17.703125 22.5 12 22.5 C 6.296875 22.5 1.65625 17.949219 1.503906 12.28125 Z M 1.503906 12.28125 "/>
<path style=" stroke:none;fill-rule:nonzero;fill:rgb(95.686275%,26.274511%,21.176471%);fill-opacity:1;" d="M 8.097656 2.242188 C 6.816406 2.753906 5.613281 3.53125 4.574219 4.574219 C 3.53125 5.613281 2.757812 6.816406 2.242188 8.097656 L 7.820312 10.328125 C 8.273438 9.183594 9.183594 8.273438 10.328125 7.820312 Z M 15.902344 2.242188 L 13.671875 7.820312 C 14.816406 8.273438 15.726562 9.183594 16.179688 10.328125 L 21.757812 8.097656 C 21.242188 6.816406 20.46875 5.613281 19.425781 4.574219 C 18.386719 3.53125 17.183594 2.753906 15.902344 2.242188 Z M 7.820312 13.671875 L 2.242188 15.902344 C 2.757812 17.183594 3.535156 18.386719 4.574219 19.425781 C 5.613281 20.46875 6.816406 21.242188 8.097656 21.757812 L 10.328125 16.179688 C 9.183594 15.722656 8.273438 14.816406 7.820312 13.671875 Z M 16.179688 13.671875 C 15.722656 14.816406 14.816406 15.726562 13.671875 16.179688 L 15.902344 21.757812 C 17.183594 21.242188 18.382812 20.464844 19.425781 19.425781 C 20.464844 18.386719 21.242188 17.183594 21.757812 15.902344 Z M 16.179688 13.671875 "/>
<path style=" stroke:none;fill-rule:nonzero;fill:rgb(98.039216%,98.039216%,98.039216%);fill-opacity:0.4;" d="M 12 1.496094 C 6.183594 1.496094 1.496094 6.179688 1.496094 12 C 1.496094 12.042969 1.5 12.085938 1.5 12.128906 C 1.632812 6.425781 6.265625 1.875 12 1.875 C 17.734375 1.875 22.367188 6.425781 22.496094 12.128906 C 22.5 12.085938 22.5 12.042969 22.5 12 C 22.5 6.179688 17.816406 1.496094 12 1.496094 Z M 7.507812 12.132812 C 7.503906 12.214844 7.5 12.296875 7.5 12.378906 C 7.5 14.871094 9.507812 16.875 12 16.875 C 14.492188 16.875 16.5 14.871094 16.5 12.378906 C 16.5 12.296875 16.496094 12.214844 16.492188 12.132812 C 16.421875 14.5625 14.449219 16.5 12 16.5 C 9.550781 16.5 7.578125 14.5625 7.507812 12.132812 Z M 7.507812 12.132812 "/>
<path style=" stroke:none;fill-rule:nonzero;fill:rgb(0%,0%,0%);fill-opacity:0.4;" d="M 12 22.5 C 6.183594 22.5 1.496094 17.816406 1.496094 12 C 1.496094 11.953125 1.5 11.910156 1.5 11.867188 C 1.632812 17.570312 6.265625 22.121094 12 22.121094 C 17.734375 22.121094 22.367188 17.570312 22.496094 11.867188 C 22.5 11.910156 22.5 11.953125 22.5 12 C 22.5 17.816406 17.816406 22.5 12 22.5 Z M 7.507812 11.863281 C 7.503906 11.785156 7.5 11.703125 7.5 11.621094 C 7.5 9.128906 9.507812 7.121094 12 7.121094 C 14.492188 7.121094 16.5 9.128906 16.5 11.621094 C 16.5 11.703125 16.496094 11.785156 16.492188 11.863281 C 16.421875 9.433594 14.449219 7.5 12 7.5 C 9.550781 7.5 7.578125 9.433594 7.507812 11.863281 Z M 7.507812 11.863281 "/>
<path style=" stroke:none;fill-rule:nonzero;fill:url(#linear0);" d="M 12 1.5 C 17.796875 1.5 22.5 6.199219 22.5 12 C 22.5 17.796875 17.796875 22.5 12 22.5 C 6.203125 22.5 1.5 17.796875 1.5 12 C 1.5 6.199219 6.203125 1.5 12 1.5 Z M 12 1.5 "/>
</g>
</svg>
