
<svg xmlns="http://www.w3.org/2000/svg" xmlns:xlink="http://www.w3.org/1999/xlink" width="22" height="22" viewBox="0 0 22 22" version="1.1">
<defs>
<linearGradient id="linear0" gradientUnits="userSpaceOnUse" x1="31.999998" y1="60" x2="31.999998" y2="3.999999" gradientTransform="matrix(0.34375,0,0,0.34375,0,0.00000000000003908)">
<stop offset="0" style="stop-color:rgb(0%,0%,0%);stop-opacity:0.2;"/>
<stop offset="1" style="stop-color:rgb(100%,100%,100%);stop-opacity:0;"/>
</linearGradient>
</defs>
<g id="surface1">
<path style=" stroke:none;fill-rule:nonzero;fill:rgb(100%,70.19608%,0%);fill-opacity:1;" d="M 13.0625 2.75 C 12.550781 2.75 12.109375 3.027344 11.871094 3.4375 L 3.4375 3.4375 C 2.675781 3.4375 2.0625 4.050781 2.0625 4.8125 L 2.0625 6.875 C 2.0625 7.636719 2.675781 8.25 3.4375 8.25 L 18.5625 8.25 C 19.324219 8.25 19.9375 7.636719 19.9375 6.875 L 19.9375 4.125 C 19.9375 3.363281 19.324219 2.75 18.5625 2.75 Z M 13.0625 2.75 "/>
<path style=" stroke:none;fill-rule:nonzero;fill:rgb(100%,100%,100%);fill-opacity:0.4;" d="M 13.0625 2.75 C 12.550781 2.75 12.109375 3.027344 11.871094 3.4375 L 3.4375 3.4375 C 2.675781 3.4375 2.0625 4.050781 2.0625 4.8125 L 2.0625 4.839844 C 2.136719 4.144531 2.71875 3.609375 3.429688 3.609375 L 11.863281 3.609375 C 12.101562 3.199219 12.542969 2.921875 13.054688 2.921875 L 18.554688 2.921875 C 19.316406 2.921875 19.929688 3.535156 19.929688 4.296875 L 19.929688 7.019531 C 19.933594 6.972656 19.9375 6.925781 19.9375 6.875 L 19.9375 4.125 C 19.9375 3.363281 19.324219 2.75 18.5625 2.75 Z M 13.0625 2.75 "/>
<path style=" stroke:none;fill-rule:nonzero;fill:rgb(100%,79.215688%,15.686275%);fill-opacity:1;" d="M 2.75 4.125 C 1.988281 4.125 1.375 4.738281 1.375 5.5 L 1.375 17.875 C 1.375 18.636719 1.988281 19.25 2.75 19.25 L 19.25 19.25 C 20.011719 19.25 20.625 18.636719 20.625 17.875 L 20.625 6.875 C 20.625 6.113281 20.011719 5.5 19.25 5.5 L 13.082031 5.5 C 13.074219 5.5 13.070312 5.5 13.0625 5.5 C 12.679688 5.5 12.375 5.195312 12.375 4.8125 C 12.375 4.429688 12.070312 4.125 11.6875 4.125 Z M 2.75 4.125 "/>
<path style=" stroke:none;fill-rule:nonzero;fill:rgb(100%,100%,100%);fill-opacity:0.4;" d="M 2.75 4.125 C 1.988281 4.125 1.375 4.738281 1.375 5.5 L 1.375 5.84375 C 1.375 5.082031 1.988281 4.46875 2.75 4.46875 L 11.6875 4.46875 C 12.070312 4.46875 12.375 4.773438 12.375 5.15625 C 12.375 5.539062 12.679688 5.84375 13.0625 5.84375 C 13.070312 5.84375 13.074219 5.84375 13.082031 5.84375 L 19.25 5.84375 C 20.011719 5.84375 20.625 6.457031 20.625 7.21875 L 20.625 6.875 C 20.625 6.113281 20.011719 5.5 19.25 5.5 L 13.082031 5.5 C 13.074219 5.5 13.070312 5.5 13.0625 5.5 C 12.679688 5.5 12.375 5.195312 12.375 4.8125 C 12.375 4.429688 12.070312 4.125 11.6875 4.125 Z M 2.75 4.125 "/>
<path style=" stroke:none;fill-rule:nonzero;fill:rgb(0%,0%,0%);fill-opacity:0.4;" d="M 1.375 17.53125 L 1.375 17.875 C 1.375 18.636719 1.988281 19.25 2.75 19.25 L 19.25 19.25 C 20.011719 19.25 20.625 18.636719 20.625 17.875 L 20.625 17.53125 C 20.625 18.292969 20.011719 18.90625 19.25 18.90625 L 2.75 18.90625 C 1.988281 18.90625 1.375 18.292969 1.375 17.53125 Z M 1.375 17.53125 "/>
<path style=" stroke:none;fill-rule:nonzero;fill:rgb(0%,0%,0%);fill-opacity:0.2;" d="M 1.375 17.875 L 1.375 18.390625 C 1.375 19.152344 1.988281 19.765625 2.75 19.765625 L 19.25 19.765625 C 20.011719 19.765625 20.625 19.152344 20.625 18.390625 L 20.625 17.875 C 20.625 18.636719 20.011719 19.25 19.25 19.25 L 2.75 19.25 C 1.988281 19.25 1.375 18.636719 1.375 17.875 Z M 1.375 17.875 "/>
<path style=" stroke:none;fill-rule:nonzero;fill:rgb(100%,92.54902%,70.19608%);fill-opacity:1;" d="M 9.625 8.59375 L 9.625 12.648438 C 9.339844 12.476562 8.980469 12.375 8.59375 12.375 C 7.640625 12.375 6.875 12.988281 6.875 13.75 C 6.875 14.511719 7.640625 15.125 8.59375 15.125 C 9.546875 15.125 10.3125 14.511719 10.3125 13.75 L 10.3125 9.96875 C 10.3125 9.777344 10.464844 9.625 10.65625 9.625 L 13.40625 9.625 C 13.597656 9.625 13.75 9.777344 13.75 9.96875 L 13.75 11.960938 C 13.464844 11.789062 13.105469 11.6875 12.71875 11.6875 C 11.765625 11.6875 11 12.300781 11 13.0625 C 11 13.824219 11.765625 14.4375 12.71875 14.4375 C 13.671875 14.4375 14.4375 13.824219 14.4375 13.0625 L 14.4375 8.59375 C 14.4375 8.402344 14.285156 8.25 14.09375 8.25 L 9.96875 8.25 C 9.777344 8.25 9.625 8.402344 9.625 8.59375 Z M 9.625 8.59375 "/>
<path style=" stroke:none;fill-rule:nonzero;fill:rgb(100%,100%,100%);fill-opacity:0.4;" d="M 9.96875 8.25 C 9.777344 8.25 9.625 8.402344 9.625 8.59375 L 9.625 8.765625 C 9.625 8.574219 9.777344 8.421875 9.96875 8.421875 L 14.09375 8.421875 C 14.285156 8.421875 14.4375 8.574219 14.4375 8.765625 L 14.4375 8.59375 C 14.4375 8.402344 14.285156 8.25 14.09375 8.25 Z M 12.71875 11.6875 C 11.765625 11.6875 11 12.300781 11 13.0625 C 11 13.085938 11.003906 13.113281 11.003906 13.136719 C 11.066406 12.421875 11.808594 11.859375 12.71875 11.859375 C 13.105469 11.859375 13.464844 11.960938 13.75 12.132812 L 13.75 11.960938 C 13.464844 11.789062 13.105469 11.6875 12.71875 11.6875 Z M 8.59375 12.375 C 7.640625 12.375 6.875 12.988281 6.875 13.75 C 6.875 13.773438 6.878906 13.800781 6.878906 13.824219 C 6.941406 13.109375 7.683594 12.546875 8.59375 12.546875 C 8.980469 12.546875 9.339844 12.648438 9.625 12.820312 L 9.625 12.648438 C 9.339844 12.476562 8.980469 12.375 8.59375 12.375 Z M 8.59375 12.375 "/>
<path style=" stroke:none;fill-rule:nonzero;fill:rgb(0.392157%,0.392157%,0.392157%);fill-opacity:0.4;" d="M 10.65625 9.625 C 10.464844 9.625 10.3125 9.777344 10.3125 9.96875 L 10.3125 10.140625 C 10.3125 9.949219 10.464844 9.796875 10.65625 9.796875 L 13.40625 9.796875 C 13.597656 9.796875 13.75 9.949219 13.75 10.140625 L 13.75 9.96875 C 13.75 9.777344 13.597656 9.625 13.40625 9.625 Z M 14.4375 13.0625 C 14.4375 13.824219 13.671875 14.4375 12.71875 14.4375 C 11.800781 14.4375 11.058594 13.871094 11.003906 13.148438 C 11 13.175781 11 13.207031 11 13.234375 C 11 13.996094 11.765625 14.609375 12.71875 14.609375 C 13.671875 14.609375 14.4375 13.996094 14.4375 13.234375 Z M 10.3125 13.75 C 10.3125 14.511719 9.546875 15.125 8.59375 15.125 C 7.675781 15.125 6.933594 14.558594 6.878906 13.835938 C 6.875 13.863281 6.875 13.894531 6.875 13.921875 C 6.875 14.683594 7.640625 15.296875 8.59375 15.296875 C 9.546875 15.296875 10.3125 14.683594 10.3125 13.921875 Z M 10.3125 13.75 "/>
<path style=" stroke:none;fill-rule:nonzero;fill:url(#linear0);" d="M 13.0625 2.75 C 12.550781 2.75 12.109375 3.027344 11.871094 3.4375 L 3.4375 3.4375 C 2.878906 3.4375 2.398438 3.769531 2.183594 4.246094 C 1.707031 4.460938 1.375 4.941406 1.375 5.5 L 1.375 17.875 C 1.375 18.636719 1.988281 19.25 2.75 19.25 L 19.25 19.25 C 20.011719 19.25 20.625 18.636719 20.625 17.875 L 20.625 6.875 C 20.625 6.363281 20.347656 5.921875 19.9375 5.683594 L 19.9375 4.125 C 19.9375 3.363281 19.324219 2.75 18.5625 2.75 Z M 13.0625 2.75 "/>
</g>
</svg>
