
<svg xmlns="http://www.w3.org/2000/svg" xmlns:xlink="http://www.w3.org/1999/xlink" width="16" height="16" viewBox="0 0 16 16" version="1.1">
<defs>
<linearGradient id="linear0" gradientUnits="userSpaceOnUse" x1="31.999998" y1="59.999996" x2="32" y2="4" gradientTransform="matrix(0.25,0,0,0.25,0,0)">
<stop offset="0" style="stop-color:rgb(0%,0%,0%);stop-opacity:0.2;"/>
<stop offset="1" style="stop-color:rgb(100%,100%,100%);stop-opacity:0;"/>
</linearGradient>
</defs>
<g id="surface1">
<path style=" stroke:none;fill-rule:nonzero;fill:rgb(38.039216%,38.039216%,38.039216%);fill-opacity:0.996078;" d="M 3.5 3.5 L 12.5 3.5 C 13.050781 3.5 13.5 3.949219 13.5 4.5 L 13.5 11 C 13.5 11.550781 13.050781 12 12.5 12 L 3.5 12 C 2.949219 12 2.5 11.550781 2.5 11 L 2.5 4.5 C 2.5 3.949219 2.949219 3.5 3.5 3.5 Z M 3.5 3.5 "/>
<path style=" stroke:none;fill-rule:nonzero;fill:rgb(87.843138%,87.843138%,87.843138%);fill-opacity:0.996078;" d="M 2.5 1 L 13.5 1 C 14.050781 1 14.5 1.449219 14.5 2 L 14.5 4.5 C 14.5 5.050781 14.050781 5.5 13.5 5.5 L 2.5 5.5 C 1.949219 5.5 1.5 5.050781 1.5 4.5 L 1.5 2 C 1.5 1.449219 1.949219 1 2.5 1 Z M 2.5 1 "/>
<path style=" stroke:none;fill-rule:nonzero;fill:rgb(40.000001%,73.333335%,41.568628%);fill-opacity:0.996078;" d="M 3 2.75 C 3.277344 2.75 3.5 2.972656 3.5 3.25 C 3.5 3.527344 3.277344 3.75 3 3.75 C 2.722656 3.75 2.5 3.527344 2.5 3.25 C 2.5 2.972656 2.722656 2.75 3 2.75 Z M 3 2.75 "/>
<path style=" stroke:none;fill-rule:nonzero;fill:rgb(0%,0%,0%);fill-opacity:0.4;" d="M 2.988281 2.75 C 2.714844 2.757812 2.5 2.976562 2.5 3.25 C 2.5 3.269531 2.5 3.292969 2.503906 3.3125 C 2.535156 3.066406 2.746094 2.875 3 2.875 C 3.253906 2.875 3.464844 3.066406 3.496094 3.3125 C 3.5 3.292969 3.5 3.269531 3.5 3.25 C 3.5 2.972656 3.277344 2.75 3 2.75 C 2.996094 2.75 2.992188 2.75 2.988281 2.75 Z M 2.988281 2.75 "/>
<path style=" stroke:none;fill-rule:nonzero;fill:rgb(100%,100%,100%);fill-opacity:0.8;" d="M 2.988281 3.875 C 2.714844 3.867188 2.5 3.648438 2.5 3.375 C 2.5 3.355469 2.5 3.332031 2.503906 3.3125 C 2.535156 3.558594 2.746094 3.75 3 3.75 C 3.253906 3.75 3.464844 3.558594 3.496094 3.3125 C 3.5 3.332031 3.5 3.355469 3.5 3.375 C 3.5 3.652344 3.277344 3.875 3 3.875 C 2.996094 3.875 2.992188 3.875 2.988281 3.875 Z M 2.988281 3.875 "/>
<path style=" stroke:none;fill-rule:nonzero;fill:rgb(40.000001%,73.333335%,41.568628%);fill-opacity:0.996078;" d="M 4.511719 2.75 C 4.789062 2.75 5.011719 2.972656 5.011719 3.25 C 5.011719 3.527344 4.789062 3.75 4.511719 3.75 C 4.238281 3.75 4.011719 3.527344 4.011719 3.25 C 4.011719 2.972656 4.238281 2.75 4.511719 2.75 Z M 4.511719 2.75 "/>
<path style=" stroke:none;fill-rule:nonzero;fill:rgb(0%,0%,0%);fill-opacity:0.4;" d="M 4.5 2.75 C 4.230469 2.757812 4.011719 2.976562 4.011719 3.25 C 4.011719 3.269531 4.015625 3.292969 4.015625 3.3125 C 4.046875 3.066406 4.257812 2.875 4.511719 2.875 C 4.769531 2.875 4.980469 3.066406 5.007812 3.3125 C 5.011719 3.292969 5.011719 3.269531 5.011719 3.25 C 5.011719 2.972656 4.789062 2.75 4.511719 2.75 C 4.507812 2.75 4.503906 2.75 4.5 2.75 Z M 4.5 2.75 "/>
<path style=" stroke:none;fill-rule:nonzero;fill:rgb(100%,100%,100%);fill-opacity:0.8;" d="M 4.5 3.875 C 4.230469 3.867188 4.011719 3.648438 4.011719 3.375 C 4.011719 3.355469 4.015625 3.332031 4.015625 3.3125 C 4.046875 3.558594 4.257812 3.75 4.511719 3.75 C 4.769531 3.75 4.980469 3.558594 5.007812 3.3125 C 5.011719 3.332031 5.011719 3.355469 5.011719 3.375 C 5.011719 3.652344 4.789062 3.875 4.511719 3.875 C 4.507812 3.875 4.503906 3.875 4.5 3.875 Z M 4.5 3.875 "/>
<path style=" stroke:none;fill-rule:nonzero;fill:rgb(95.686275%,26.274511%,21.176471%);fill-opacity:0.996078;" d="M 6.011719 2.75 C 6.289062 2.75 6.511719 2.972656 6.511719 3.25 C 6.511719 3.527344 6.289062 3.75 6.011719 3.75 C 5.738281 3.75 5.511719 3.527344 5.511719 3.25 C 5.511719 2.972656 5.738281 2.75 6.011719 2.75 Z M 6.011719 2.75 "/>
<path style=" stroke:none;fill-rule:nonzero;fill:rgb(0%,0%,0%);fill-opacity:0.4;" d="M 6 2.75 C 5.730469 2.757812 5.511719 2.976562 5.511719 3.25 C 5.511719 3.269531 5.515625 3.292969 5.515625 3.3125 C 5.546875 3.066406 5.757812 2.875 6.011719 2.875 C 6.269531 2.875 6.480469 3.066406 6.507812 3.3125 C 6.511719 3.292969 6.511719 3.269531 6.511719 3.25 C 6.511719 2.972656 6.289062 2.75 6.011719 2.75 C 6.007812 2.75 6.003906 2.75 6 2.75 Z M 6 2.75 "/>
<path style=" stroke:none;fill-rule:nonzero;fill:rgb(100%,100%,100%);fill-opacity:0.8;" d="M 6 3.875 C 5.730469 3.867188 5.511719 3.648438 5.511719 3.375 C 5.511719 3.355469 5.515625 3.332031 5.515625 3.3125 C 5.546875 3.558594 5.757812 3.75 6.011719 3.75 C 6.269531 3.75 6.480469 3.558594 6.507812 3.3125 C 6.511719 3.332031 6.511719 3.355469 6.511719 3.375 C 6.511719 3.652344 6.289062 3.875 6.011719 3.875 C 6.007812 3.875 6.003906 3.875 6 3.875 Z M 6 3.875 "/>
<path style=" stroke:none;fill-rule:nonzero;fill:rgb(100%,100%,100%);fill-opacity:0.6;" d="M 2.5 1 C 1.945312 1 1.5 1.445312 1.5 2 L 1.5 2.25 C 1.5 1.695312 1.945312 1.25 2.5 1.25 L 13.5 1.25 C 14.054688 1.25 14.5 1.695312 14.5 2.25 L 14.5 2 C 14.5 1.445312 14.054688 1 13.5 1 Z M 2.5 1 "/>
<path style=" stroke:none;fill-rule:nonzero;fill:rgb(0%,0%,0%);fill-opacity:0.4;" d="M 2.5 5.5 C 1.945312 5.5 1.5 5.054688 1.5 4.5 L 1.5 4.25 C 1.5 4.804688 1.945312 5.25 2.5 5.25 L 13.5 5.25 C 14.054688 5.25 14.5 4.804688 14.5 4.25 L 14.5 4.5 C 14.5 5.054688 14.054688 5.5 13.5 5.5 Z M 2.5 5.5 "/>
<path style=" stroke:none;fill-rule:nonzero;fill:rgb(87.843138%,87.843138%,87.843138%);fill-opacity:0.996078;" d="M 2.5 10.5 L 13.5 10.5 C 14.050781 10.5 14.5 10.949219 14.5 11.5 L 14.5 14 C 14.5 14.550781 14.050781 15 13.5 15 L 2.5 15 C 1.949219 15 1.5 14.550781 1.5 14 L 1.5 11.5 C 1.5 10.949219 1.949219 10.5 2.5 10.5 Z M 2.5 10.5 "/>
<path style=" stroke:none;fill-rule:nonzero;fill:rgb(87.843138%,87.843138%,87.843138%);fill-opacity:0.996078;" d="M 2.5 5.75 L 13.5 5.75 C 14.050781 5.75 14.5 6.199219 14.5 6.75 L 14.5 9.25 C 14.5 9.800781 14.050781 10.25 13.5 10.25 L 2.5 10.25 C 1.949219 10.25 1.5 9.800781 1.5 9.25 L 1.5 6.75 C 1.5 6.199219 1.949219 5.75 2.5 5.75 Z M 2.5 5.75 "/>
<path style=" stroke:none;fill-rule:nonzero;fill:rgb(100%,100%,100%);fill-opacity:0.6;" d="M 2.5 5.75 C 1.945312 5.75 1.5 6.195312 1.5 6.75 L 1.5 7 C 1.5 6.445312 1.945312 6 2.5 6 L 13.5 6 C 14.054688 6 14.5 6.445312 14.5 7 L 14.5 6.75 C 14.5 6.195312 14.054688 5.75 13.5 5.75 Z M 2.5 5.75 "/>
<path style=" stroke:none;fill-rule:nonzero;fill:rgb(0%,0%,0%);fill-opacity:0.4;" d="M 2.5 10.25 C 1.945312 10.25 1.5 9.804688 1.5 9.25 L 1.5 9 C 1.5 9.554688 1.945312 10 2.5 10 L 13.5 10 C 14.054688 10 14.5 9.554688 14.5 9 L 14.5 9.25 C 14.5 9.804688 14.054688 10.25 13.5 10.25 Z M 2.5 10.25 "/>
<path style=" stroke:none;fill-rule:nonzero;fill:rgb(100%,100%,100%);fill-opacity:0.6;" d="M 2.5 10.492188 C 1.945312 10.492188 1.5 10.9375 1.5 11.492188 L 1.5 11.742188 C 1.5 11.1875 1.945312 10.742188 2.5 10.742188 L 13.5 10.742188 C 14.054688 10.742188 14.5 11.1875 14.5 11.742188 L 14.5 11.492188 C 14.5 10.9375 14.054688 10.492188 13.5 10.492188 Z M 2.5 10.492188 "/>
<path style=" stroke:none;fill-rule:nonzero;fill:rgb(0%,0%,0%);fill-opacity:0.4;" d="M 2.5 14.992188 C 1.945312 14.992188 1.5 14.546875 1.5 13.992188 L 1.5 13.742188 C 1.5 14.296875 1.945312 14.742188 2.5 14.742188 L 13.5 14.742188 C 14.054688 14.742188 14.5 14.296875 14.5 13.742188 L 14.5 13.992188 C 14.5 14.546875 14.054688 14.992188 13.5 14.992188 Z M 2.5 14.992188 "/>
<path style=" stroke:none;fill-rule:nonzero;fill:rgb(40.000001%,73.333335%,41.568628%);fill-opacity:0.996078;" d="M 3 7.5 C 3.277344 7.5 3.5 7.722656 3.5 8 C 3.5 8.277344 3.277344 8.5 3 8.5 C 2.722656 8.5 2.5 8.277344 2.5 8 C 2.5 7.722656 2.722656 7.5 3 7.5 Z M 3 7.5 "/>
<path style=" stroke:none;fill-rule:nonzero;fill:rgb(0%,0%,0%);fill-opacity:0.4;" d="M 2.988281 7.5 C 2.714844 7.507812 2.5 7.726562 2.5 8 C 2.5 8.019531 2.5 8.042969 2.503906 8.0625 C 2.535156 7.816406 2.746094 7.625 3 7.625 C 3.253906 7.625 3.464844 7.816406 3.496094 8.0625 C 3.5 8.042969 3.5 8.019531 3.5 8 C 3.5 7.722656 3.277344 7.5 3 7.5 C 2.996094 7.5 2.992188 7.5 2.988281 7.5 Z M 2.988281 7.5 "/>
<path style=" stroke:none;fill-rule:nonzero;fill:rgb(100%,100%,100%);fill-opacity:0.8;" d="M 2.988281 8.625 C 2.714844 8.617188 2.5 8.398438 2.5 8.125 C 2.5 8.105469 2.5 8.082031 2.503906 8.0625 C 2.535156 8.308594 2.746094 8.5 3 8.5 C 3.253906 8.5 3.464844 8.308594 3.496094 8.0625 C 3.5 8.082031 3.5 8.105469 3.5 8.125 C 3.5 8.402344 3.277344 8.625 3 8.625 C 2.996094 8.625 2.992188 8.625 2.988281 8.625 Z M 2.988281 8.625 "/>
<path style=" stroke:none;fill-rule:nonzero;fill:rgb(40.000001%,73.333335%,41.568628%);fill-opacity:0.996078;" d="M 4.511719 7.5 C 4.789062 7.5 5.011719 7.722656 5.011719 8 C 5.011719 8.277344 4.789062 8.5 4.511719 8.5 C 4.238281 8.5 4.011719 8.277344 4.011719 8 C 4.011719 7.722656 4.238281 7.5 4.511719 7.5 Z M 4.511719 7.5 "/>
<path style=" stroke:none;fill-rule:nonzero;fill:rgb(0%,0%,0%);fill-opacity:0.4;" d="M 4.5 7.5 C 4.230469 7.507812 4.011719 7.726562 4.011719 8 C 4.011719 8.019531 4.015625 8.042969 4.015625 8.0625 C 4.046875 7.816406 4.257812 7.625 4.511719 7.625 C 4.769531 7.625 4.980469 7.816406 5.007812 8.0625 C 5.011719 8.042969 5.011719 8.019531 5.011719 8 C 5.011719 7.722656 4.789062 7.5 4.511719 7.5 C 4.507812 7.5 4.503906 7.5 4.5 7.5 Z M 4.5 7.5 "/>
<path style=" stroke:none;fill-rule:nonzero;fill:rgb(100%,100%,100%);fill-opacity:0.8;" d="M 4.5 8.625 C 4.230469 8.617188 4.011719 8.398438 4.011719 8.125 C 4.011719 8.105469 4.015625 8.082031 4.015625 8.0625 C 4.046875 8.308594 4.257812 8.5 4.511719 8.5 C 4.769531 8.5 4.980469 8.308594 5.007812 8.0625 C 5.011719 8.082031 5.011719 8.105469 5.011719 8.125 C 5.011719 8.402344 4.789062 8.625 4.511719 8.625 C 4.507812 8.625 4.503906 8.625 4.5 8.625 Z M 4.5 8.625 "/>
<path style=" stroke:none;fill-rule:nonzero;fill:rgb(95.686275%,26.274511%,21.176471%);fill-opacity:0.996078;" d="M 6.011719 7.5 C 6.289062 7.5 6.511719 7.722656 6.511719 8 C 6.511719 8.277344 6.289062 8.5 6.011719 8.5 C 5.738281 8.5 5.511719 8.277344 5.511719 8 C 5.511719 7.722656 5.738281 7.5 6.011719 7.5 Z M 6.011719 7.5 "/>
<path style=" stroke:none;fill-rule:nonzero;fill:rgb(0%,0%,0%);fill-opacity:0.4;" d="M 6 7.5 C 5.730469 7.507812 5.511719 7.726562 5.511719 8 C 5.511719 8.019531 5.515625 8.042969 5.515625 8.0625 C 5.546875 7.816406 5.757812 7.625 6.011719 7.625 C 6.269531 7.625 6.480469 7.816406 6.507812 8.0625 C 6.511719 8.042969 6.511719 8.019531 6.511719 8 C 6.511719 7.722656 6.289062 7.5 6.011719 7.5 C 6.007812 7.5 6.003906 7.5 6 7.5 Z M 6 7.5 "/>
<path style=" stroke:none;fill-rule:nonzero;fill:rgb(100%,100%,100%);fill-opacity:0.8;" d="M 6 8.625 C 5.730469 8.617188 5.511719 8.398438 5.511719 8.125 C 5.511719 8.105469 5.515625 8.082031 5.515625 8.0625 C 5.546875 8.308594 5.757812 8.5 6.011719 8.5 C 6.269531 8.5 6.480469 8.308594 6.507812 8.0625 C 6.511719 8.082031 6.511719 8.105469 6.511719 8.125 C 6.511719 8.402344 6.289062 8.625 6.011719 8.625 C 6.007812 8.625 6.003906 8.625 6 8.625 Z M 6 8.625 "/>
<path style=" stroke:none;fill-rule:nonzero;fill:rgb(40.000001%,73.333335%,41.568628%);fill-opacity:0.996078;" d="M 3 12.25 C 3.277344 12.25 3.5 12.472656 3.5 12.75 C 3.5 13.027344 3.277344 13.25 3 13.25 C 2.722656 13.25 2.5 13.027344 2.5 12.75 C 2.5 12.472656 2.722656 12.25 3 12.25 Z M 3 12.25 "/>
<path style=" stroke:none;fill-rule:nonzero;fill:rgb(0%,0%,0%);fill-opacity:0.4;" d="M 2.988281 12.25 C 2.714844 12.257812 2.5 12.476562 2.5 12.75 C 2.5 12.769531 2.5 12.792969 2.503906 12.8125 C 2.535156 12.566406 2.746094 12.375 3 12.375 C 3.253906 12.375 3.464844 12.566406 3.496094 12.8125 C 3.5 12.792969 3.5 12.769531 3.5 12.75 C 3.5 12.472656 3.277344 12.25 3 12.25 C 2.996094 12.25 2.992188 12.25 2.988281 12.25 Z M 2.988281 12.25 "/>
<path style=" stroke:none;fill-rule:nonzero;fill:rgb(100%,100%,100%);fill-opacity:0.8;" d="M 2.988281 13.375 C 2.714844 13.367188 2.5 13.148438 2.5 12.875 C 2.5 12.855469 2.5 12.832031 2.503906 12.8125 C 2.535156 13.058594 2.746094 13.25 3 13.25 C 3.253906 13.25 3.464844 13.058594 3.496094 12.8125 C 3.5 12.832031 3.5 12.855469 3.5 12.875 C 3.5 13.152344 3.277344 13.375 3 13.375 C 2.996094 13.375 2.992188 13.375 2.988281 13.375 Z M 2.988281 13.375 "/>
<path style=" stroke:none;fill-rule:nonzero;fill:rgb(40.000001%,73.333335%,41.568628%);fill-opacity:0.996078;" d="M 4.511719 12.25 C 4.789062 12.25 5.011719 12.472656 5.011719 12.75 C 5.011719 13.027344 4.789062 13.25 4.511719 13.25 C 4.238281 13.25 4.011719 13.027344 4.011719 12.75 C 4.011719 12.472656 4.238281 12.25 4.511719 12.25 Z M 4.511719 12.25 "/>
<path style=" stroke:none;fill-rule:nonzero;fill:rgb(0%,0%,0%);fill-opacity:0.4;" d="M 4.5 12.25 C 4.230469 12.257812 4.011719 12.476562 4.011719 12.75 C 4.011719 12.769531 4.015625 12.792969 4.015625 12.8125 C 4.046875 12.566406 4.257812 12.375 4.511719 12.375 C 4.769531 12.375 4.980469 12.566406 5.007812 12.8125 C 5.011719 12.792969 5.011719 12.769531 5.011719 12.75 C 5.011719 12.472656 4.789062 12.25 4.511719 12.25 C 4.507812 12.25 4.503906 12.25 4.5 12.25 Z M 4.5 12.25 "/>
<path style=" stroke:none;fill-rule:nonzero;fill:rgb(100%,100%,100%);fill-opacity:0.8;" d="M 4.5 13.375 C 4.230469 13.367188 4.011719 13.148438 4.011719 12.875 C 4.011719 12.855469 4.015625 12.832031 4.015625 12.8125 C 4.046875 13.058594 4.257812 13.25 4.511719 13.25 C 4.769531 13.25 4.980469 13.058594 5.007812 12.8125 C 5.011719 12.832031 5.011719 12.855469 5.011719 12.875 C 5.011719 13.152344 4.789062 13.375 4.511719 13.375 C 4.507812 13.375 4.503906 13.375 4.5 13.375 Z M 4.5 13.375 "/>
<path style=" stroke:none;fill-rule:nonzero;fill:rgb(95.686275%,26.274511%,21.176471%);fill-opacity:0.996078;" d="M 6.011719 12.25 C 6.289062 12.25 6.511719 12.472656 6.511719 12.75 C 6.511719 13.027344 6.289062 13.25 6.011719 13.25 C 5.738281 13.25 5.511719 13.027344 5.511719 12.75 C 5.511719 12.472656 5.738281 12.25 6.011719 12.25 Z M 6.011719 12.25 "/>
<path style=" stroke:none;fill-rule:nonzero;fill:rgb(0%,0%,0%);fill-opacity:0.4;" d="M 6 12.25 C 5.730469 12.257812 5.511719 12.476562 5.511719 12.75 C 5.511719 12.769531 5.515625 12.792969 5.515625 12.8125 C 5.546875 12.566406 5.757812 12.375 6.011719 12.375 C 6.269531 12.375 6.480469 12.566406 6.507812 12.8125 C 6.511719 12.792969 6.511719 12.769531 6.511719 12.75 C 6.511719 12.472656 6.289062 12.25 6.011719 12.25 C 6.007812 12.25 6.003906 12.25 6 12.25 Z M 6 12.25 "/>
<path style=" stroke:none;fill-rule:nonzero;fill:rgb(100%,100%,100%);fill-opacity:0.8;" d="M 6 13.375 C 5.730469 13.367188 5.511719 13.148438 5.511719 12.875 C 5.511719 12.855469 5.515625 12.832031 5.515625 12.8125 C 5.546875 13.058594 5.757812 13.25 6.011719 13.25 C 6.269531 13.25 6.480469 13.058594 6.507812 12.8125 C 6.511719 12.832031 6.511719 12.855469 6.511719 12.875 C 6.511719 13.152344 6.289062 13.375 6.011719 13.375 C 6.007812 13.375 6.003906 13.375 6 13.375 Z M 6 13.375 "/>
<path style=" stroke:none;fill-rule:nonzero;fill:rgb(0%,0%,0%);fill-opacity:0.2;" d="M 1.5 14 L 1.5 14.375 C 1.5 14.929688 1.945312 15.375 2.5 15.375 L 13.5 15.375 C 14.054688 15.375 14.5 14.929688 14.5 14.375 L 14.5 14 C 14.5 14.554688 14.054688 15 13.5 15 L 2.5 15 C 1.945312 15 1.5 14.554688 1.5 14 Z M 1.5 14 "/>
<path style=" stroke:none;fill-rule:nonzero;fill:url(#linear0);" d="M 2.5 1 C 1.945312 1 1.5 1.445312 1.5 2 L 1.5 4.5 C 1.5 5.054688 1.945312 5.5 2.5 5.5 L 2.5 5.75 C 1.945312 5.75 1.5 6.195312 1.5 6.75 L 1.5 9.25 C 1.5 9.804688 1.945312 10.25 2.5 10.25 L 2.5 10.5 C 1.945312 10.5 1.5 10.945312 1.5 11.5 L 1.5 14 C 1.5 14.554688 1.945312 15 2.5 15 L 13.5 15 C 14.054688 15 14.5 14.554688 14.5 14 L 14.5 11.5 C 14.5 10.945312 14.054688 10.5 13.5 10.5 L 13.5 10.25 C 14.054688 10.25 14.5 9.804688 14.5 9.25 L 14.5 6.75 C 14.5 6.195312 14.054688 5.75 13.5 5.75 L 13.5 5.5 C 14.054688 5.5 14.5 5.054688 14.5 4.5 L 14.5 2 C 14.5 1.445312 14.054688 1 13.5 1 Z M 2.5 1 "/>
</g>
</svg>
