
<svg xmlns="http://www.w3.org/2000/svg" xmlns:xlink="http://www.w3.org/1999/xlink" width="16" height="16" viewBox="0 0 16 16" version="1.1">
<defs>
<linearGradient id="linear0" gradientUnits="userSpaceOnUse" x1="31.999998" y1="60" x2="31.999998" y2="4" gradientTransform="matrix(0.25,0,0,0.25,-0.000000680315,0)">
<stop offset="0" style="stop-color:rgb(0%,0%,0%);stop-opacity:0.2;"/>
<stop offset="1" style="stop-color:rgb(100%,100%,100%);stop-opacity:0;"/>
</linearGradient>
</defs>
<g id="surface1">
<path style=" stroke:none;fill-rule:nonzero;fill:rgb(38.039216%,38.039216%,38.039216%);fill-opacity:1;" d="M 10 1 L 3.25 1 C 2.835938 1 2.5 1.335938 2.5 1.75 L 2.5 14.25 C 2.5 14.664062 2.835938 15 3.25 15 L 12.75 15 C 13.164062 15 13.5 14.664062 13.5 14.25 L 13.5 4.5 Z M 10 1 "/>
<path style=" stroke:none;fill-rule:nonzero;fill:rgb(0%,0%,0%);fill-opacity:0.4;" d="M 10 3.75 L 10 4 C 10 4.414062 10.335938 4.75 10.75 4.75 L 13.5 4.75 L 13.25 4.5 L 10.75 4.5 C 10.335938 4.5 10 4.164062 10 3.75 Z M 10 3.75 "/>
<path style=" stroke:none;fill-rule:nonzero;fill:rgb(45.882353%,45.882353%,45.882353%);fill-opacity:0.996078;" d="M 13.5 4.5 L 10 1 L 10 3.75 C 10 4.164062 10.335938 4.5 10.75 4.5 Z M 13.5 4.5 "/>
<path style=" stroke:none;fill-rule:nonzero;fill:rgb(100%,100%,100%);fill-opacity:0.4;" d="M 3.25 1 C 2.835938 1 2.5 1.335938 2.5 1.75 L 2.5 2 C 2.5 1.585938 2.835938 1.25 3.25 1.25 L 10 1.25 L 13.5 4.75 L 13.5 4.5 L 10 1 Z M 3.25 1 "/>
<path style=" stroke:none;fill-rule:nonzero;fill:rgb(0%,0%,0%);fill-opacity:0.2;" d="M 2.5 14.246094 L 2.5 14.625 C 2.5 15.039062 2.835938 15.375 3.25 15.375 L 12.75 15.375 C 13.164062 15.375 13.5 15.039062 13.5 14.625 L 13.5 14.246094 C 13.5 14.660156 13.164062 14.996094 12.75 14.996094 L 3.25 14.996094 C 2.835938 14.996094 2.5 14.660156 2.5 14.246094 Z M 2.5 14.246094 "/>
<path style=" stroke:none;fill-rule:nonzero;fill:rgb(0%,0%,0%);fill-opacity:0.4;" d="M 2.5 14.03125 L 2.5 14.25 C 2.5 14.664062 2.835938 15 3.25 15 L 12.75 15 C 13.164062 15 13.5 14.664062 13.5 14.25 L 13.5 14.03125 C 13.5 14.445312 13.164062 14.78125 12.75 14.78125 L 3.25 14.78125 C 2.835938 14.78125 2.5 14.445312 2.5 14.03125 Z M 2.5 14.03125 "/>
<path style=" stroke:none;fill-rule:nonzero;fill:rgb(61.960787%,61.960787%,61.960787%);fill-opacity:1;" d="M 7.5 6 C 6.945312 6 6.5 6.445312 6.5 7 L 6.5 10 C 6.5 10.554688 6.945312 11 7.5 11 L 8.5 11 C 9.054688 11 9.5 10.554688 9.5 10 L 9.5 9.5 C 9.5 9.429688 9.445312 9.375 9.375 9.375 L 9.125 9.375 C 9.054688 9.375 9 9.429688 9 9.5 L 9 9.625 C 9 9.625 9 9.628906 9 9.632812 L 9 10 C 9 10.277344 8.777344 10.5 8.5 10.5 L 7.75 10.5 C 7.472656 10.5 7.25 10.277344 7.25 10 L 7.25 7 C 7.25 6.722656 7.472656 6.5 7.75 6.5 L 8.5 6.5 C 8.777344 6.5 9 6.722656 9 7 L 9 7.367188 C 9 7.371094 9 7.371094 9 7.375 L 9 7.5 C 9 7.570312 9.054688 7.625 9.125 7.625 L 9.375 7.625 C 9.445312 7.625 9.5 7.570312 9.5 7.5 L 9.5 7.375 C 9.5 7.375 9.5 7.371094 9.5 7.367188 L 9.5 7 C 9.5 6.445312 9.054688 6 8.5 6 Z M 7.5 6 "/>
<path style=" stroke:none;fill-rule:nonzero;fill:rgb(99.607843%,99.607843%,99.607843%);fill-opacity:0.4;" d="M 7.5 6 C 6.945312 6 6.5 6.445312 6.5 7 L 6.5 7.125 C 6.5 6.570312 6.945312 6.125 7.5 6.125 L 8.5 6.125 C 9.054688 6.125 9.5 6.570312 9.5 7.125 L 9.5 7 C 9.5 6.445312 9.054688 6 8.5 6 Z M 9.125 9.375 C 9.054688 9.375 9 9.429688 9 9.5 L 9 9.625 C 9 9.554688 9.054688 9.5 9.125 9.5 L 9.375 9.5 C 9.445312 9.5 9.5 9.554688 9.5 9.625 L 9.5 9.5 C 9.5 9.429688 9.445312 9.375 9.375 9.375 Z M 7.25 10 L 7.25 10.125 C 7.25 10.402344 7.472656 10.625 7.75 10.625 L 8.5 10.625 C 8.777344 10.625 9 10.402344 9 10.125 L 9 10 C 9 10.277344 8.777344 10.5 8.5 10.5 L 7.75 10.5 C 7.472656 10.5 7.25 10.277344 7.25 10 Z M 7.25 10 "/>
<path style=" stroke:none;fill-rule:nonzero;fill:rgb(0%,0%,0%);fill-opacity:0.4;" d="M 7.5 11.125 C 6.945312 11.125 6.5 10.679688 6.5 10.125 L 6.5 10 C 6.5 10.554688 6.945312 11 7.5 11 L 8.5 11 C 9.054688 11 9.5 10.554688 9.5 10 L 9.5 10.125 C 9.5 10.679688 9.054688 11.125 8.5 11.125 Z M 9.125 7.75 C 9.054688 7.75 9 7.695312 9 7.625 L 9 7.5 C 9 7.570312 9.054688 7.625 9.125 7.625 L 9.375 7.625 C 9.445312 7.625 9.5 7.570312 9.5 7.5 L 9.5 7.625 C 9.5 7.695312 9.445312 7.75 9.375 7.75 Z M 7.25 7.125 L 7.25 7 C 7.25 6.722656 7.472656 6.5 7.75 6.5 L 8.5 6.5 C 8.777344 6.5 9 6.722656 9 7 L 9 7.125 C 9 6.847656 8.777344 6.625 8.5 6.625 L 7.75 6.625 C 7.472656 6.625 7.25 6.847656 7.25 7.125 Z M 7.25 7.125 "/>
<path style=" stroke:none;fill-rule:nonzero;fill:url(#linear0);" d="M 10 1 L 3.25 1 C 2.835938 1 2.5 1.335938 2.5 1.75 L 2.5 14.25 C 2.5 14.664062 2.835938 15 3.25 15 L 12.75 15 C 13.164062 15 13.5 14.664062 13.5 14.25 L 13.5 4.5 Z M 10 1 "/>
</g>
</svg>
