
<svg xmlns="http://www.w3.org/2000/svg" xmlns:xlink="http://www.w3.org/1999/xlink" width="32" height="32" viewBox="0 0 32 32" version="1.1">
<defs>
<linearGradient id="linear0" gradientUnits="userSpaceOnUse" x1="10.054166" y1="-209.708328" x2="10.054166" y2="-212.883331" gradientTransform="matrix(1.889764,0,0,1.889764,0,406.299234)">
<stop offset="0" style="stop-color:rgb(0%,0%,0%);stop-opacity:0.2;"/>
<stop offset="1" style="stop-color:rgb(100%,100%,100%);stop-opacity:0;"/>
</linearGradient>
<linearGradient id="linear1" gradientUnits="userSpaceOnUse" x1="8.995832" y1="-200.183334" x2="8.995832" y2="-211.824997" gradientTransform="matrix(1.889764,0,0,1.889764,0,406.299234)">
<stop offset="0" style="stop-color:rgb(0%,0%,0%);stop-opacity:0.2;"/>
<stop offset="1" style="stop-color:rgb(100%,100%,100%);stop-opacity:0;"/>
</linearGradient>
</defs>
<g id="surface1">
<path style=" stroke:none;fill-rule:nonzero;fill:rgb(23.137255%,59.215689%,63.529414%);fill-opacity:1;" d="M 10 4 L 28 4 C 29.105469 4 30 4.894531 30 6 L 30 12 C 30 13.105469 29.105469 14 28 14 L 10 14 C 8.894531 14 8 13.105469 8 12 L 8 6 C 8 4.894531 8.894531 4 10 4 Z M 10 4 "/>
<path style=" stroke:none;fill-rule:nonzero;fill:url(#linear0);" d="M 10 4 L 28 4 C 29.105469 4 30 4.894531 30 6 L 30 12 C 30 13.105469 29.105469 14 28 14 L 10 14 C 8.894531 14 8 13.105469 8 12 L 8 6 C 8 4.894531 8.894531 4 10 4 Z M 10 4 "/>
<path style=" stroke:none;fill-rule:nonzero;fill:rgb(28.235295%,72.549021%,78.039217%);fill-opacity:1;" d="M 4 6 C 2.890625 6 2 6.890625 2 8 L 2 26 C 2 27.109375 2.890625 28 4 28 L 28 28 C 29.109375 28 30 27.109375 30 26 L 30 10 L 10 10 C 8.890625 10 8 9.109375 8 8 L 8 6 Z M 4 6 "/>
<path style=" stroke:none;fill-rule:nonzero;fill:rgb(28.235295%,72.549021%,78.039217%);fill-opacity:1;" d="M 4 6 C 2.890625 6 2 6.890625 2 8 L 2 26 C 2 27.109375 2.890625 28 4 28 L 28 28 C 29.109375 28 30 27.109375 30 26 L 30 10 L 10 10 C 8.890625 10 8 9.109375 8 8 L 8 6 Z M 4 6 "/>
<path style=" stroke:none;fill-rule:nonzero;fill:rgb(0.392157%,0.392157%,0.392157%);fill-opacity:0.4;" d="M 4 27.996094 C 2.890625 27.996094 2 27.105469 2 25.996094 L 2 25.511719 C 2 26.621094 2.890625 27.511719 4 27.511719 L 28 27.511719 C 29.109375 27.511719 30 26.621094 30 25.511719 L 30 25.996094 C 30 27.105469 29.109375 27.996094 28 27.996094 Z M 4 27.996094 "/>
<path style=" stroke:none;fill-rule:nonzero;fill:rgb(0%,0%,0%);fill-opacity:0.2;" d="M 2 26 L 2 26.75 C 2 27.859375 2.890625 28.75 4 28.75 L 28 28.75 C 29.109375 28.75 30 27.859375 30 26.75 L 30 26 C 30 27.109375 29.109375 28 28 28 L 4 28 C 2.890625 28 2 27.109375 2 26 Z M 2 26 "/>
<path style=" stroke:none;fill-rule:nonzero;fill:rgb(100%,100%,100%);fill-opacity:0.4;" d="M 4 6 C 2.890625 6 2 6.890625 2 8 L 2 8.5 C 2 7.390625 2.890625 6.5 4 6.5 L 8 6.5 L 8 6 Z M 8 8 L 8 8.5 C 8 9.609375 8.890625 10.5 10 10.5 L 30 10.5 L 30 10 L 10 10 C 8.890625 10 8 9.109375 8 8 Z M 8 8 "/>
<path style=" stroke:none;fill-rule:nonzero;fill:rgb(100%,100%,100%);fill-opacity:0.4;" d="M 10 4 C 8.890625 4 8 4.890625 8 6 L 8 6.25 C 8 5.140625 8.890625 4.25 10 4.25 L 28 4.25 C 29.109375 4.25 30 5.140625 30 6.25 L 30 6 C 30 4.890625 29.109375 4 28 4 Z M 10 4 "/>
<path style=" stroke:none;fill-rule:nonzero;fill:rgb(62.7451%,86.274511%,87.058824%);fill-opacity:1;" d="M 12.460938 13 C 11.648438 13.019531 11 13.683594 11 14.5 C 11 15.15625 11.417969 15.710938 12 15.914062 L 12 19.5 C 12 20.054688 12.445312 20.5 13 20.5 L 14.0625 20.5 C 14.242188 21.207031 14.796875 21.757812 15.5 21.9375 L 15.5 23 L 16.5 23 L 16.5 21.9375 C 17.203125 21.757812 17.757812 21.203125 17.9375 20.5 L 19 20.5 C 19.554688 20.5 20 20.054688 20 19.5 L 20 15.914062 C 20.582031 15.710938 21 15.15625 21 14.5 C 21 13.667969 20.332031 13 19.5 13 C 18.667969 13 18 13.667969 18 14.5 C 18 15.15625 18.417969 15.710938 19 15.914062 L 19 19 C 19 19.277344 18.777344 19.5 18.5 19.5 L 17.9375 19.5 C 17.714844 18.636719 16.933594 18 16 18 C 15.066406 18 14.285156 18.636719 14.0625 19.5 L 13.5 19.5 C 13.222656 19.5 13 19.277344 13 19 L 13 15.914062 C 13.582031 15.710938 14 15.15625 14 14.5 C 14 13.667969 13.332031 13 12.5 13 C 12.488281 13 12.472656 13 12.460938 13 Z M 12.460938 13 "/>
<path style=" stroke:none;fill-rule:nonzero;fill:rgb(100%,100%,100%);fill-opacity:0.4;" d="M 12.460938 13 C 11.648438 13.019531 11 13.683594 11 14.5 C 11 14.539062 11 14.582031 11.003906 14.621094 C 11.0625 13.859375 11.6875 13.261719 12.460938 13.242188 C 12.472656 13.242188 12.488281 13.242188 12.5 13.242188 C 13.289062 13.242188 13.933594 13.847656 13.996094 14.621094 C 14 14.582031 14 14.539062 14 14.5 C 14 13.667969 13.332031 13 12.5 13 C 12.488281 13 12.472656 13 12.460938 13 Z M 19.5 13 C 18.667969 13 18 13.667969 18 14.5 C 18 14.539062 18 14.582031 18.003906 14.621094 C 18.066406 13.847656 18.710938 13.242188 19.5 13.242188 C 20.289062 13.242188 20.933594 13.847656 20.996094 14.621094 C 21 14.582031 21 14.539062 21 14.5 C 21 13.667969 20.332031 13 19.5 13 Z M 16 18 C 15.066406 18 14.285156 18.636719 14.0625 19.5 L 13.5 19.5 C 13.222656 19.5 13 19.277344 13 19 L 13 19.242188 C 13 19.519531 13.222656 19.742188 13.5 19.742188 L 14.0625 19.742188 C 14.285156 18.878906 15.066406 18.242188 16 18.242188 C 16.933594 18.242188 17.714844 18.875 17.9375 19.742188 L 18.5 19.742188 C 18.777344 19.742188 19 19.519531 19 19.242188 L 19 19 C 19 19.277344 18.777344 19.5 18.5 19.5 L 17.9375 19.5 C 17.714844 18.636719 16.933594 18 16 18 Z M 16 18 "/>
<path style=" stroke:none;fill-rule:nonzero;fill:rgb(0.392157%,0.392157%,0.392157%);fill-opacity:0.4;" d="M 11.007812 14.628906 C 11.003906 14.667969 11 14.707031 11 14.75 C 11 15.40625 11.417969 15.960938 12 16.164062 L 12 15.914062 C 11.453125 15.722656 11.054688 15.226562 11.007812 14.628906 Z M 13.992188 14.628906 C 13.945312 15.226562 13.546875 15.722656 13 15.914062 L 13 16.164062 C 13.582031 15.960938 14 15.40625 14 14.75 C 14 14.707031 13.996094 14.667969 13.992188 14.628906 Z M 18.007812 14.628906 C 18.003906 14.667969 18 14.707031 18 14.75 C 18 15.40625 18.417969 15.960938 19 16.164062 L 19 15.914062 C 18.453125 15.722656 18.054688 15.226562 18.007812 14.628906 Z M 20.992188 14.628906 C 20.945312 15.226562 20.546875 15.722656 20 15.914062 L 20 16.164062 C 20.582031 15.960938 21 15.40625 21 14.75 C 21 14.707031 20.996094 14.667969 20.992188 14.628906 Z M 12 19.5 L 12 19.75 C 12 20.304688 12.445312 20.75 13 20.75 L 14.0625 20.75 C 14.242188 21.457031 14.796875 22.007812 15.5 22.1875 L 15.5 21.9375 C 14.796875 21.757812 14.242188 21.207031 14.0625 20.5 L 13 20.5 C 12.445312 20.5 12 20.054688 12 19.5 Z M 20 19.5 C 20 20.054688 19.554688 20.5 19 20.5 L 17.9375 20.5 C 17.757812 21.203125 17.203125 21.757812 16.5 21.9375 L 16.5 22.1875 C 17.203125 22.007812 17.757812 21.453125 17.9375 20.75 L 19 20.75 C 19.554688 20.75 20 20.304688 20 19.75 Z M 15.5 23 L 15.5 23.25 L 16.5 23.25 L 16.5 23 Z M 15.5 23 "/>
<path style=" stroke:none;fill-rule:nonzero;fill:url(#linear1);" d="M 4 6 C 2.890625 6 2 6.890625 2 8 L 2 26 C 2 27.109375 2.890625 28 4 28 L 28 28 C 29.109375 28 30 27.109375 30 26 L 30 10 L 10 10 C 8.890625 10 8 9.109375 8 8 L 8 6 Z M 4 6 "/>
</g>
</svg>
