
<svg xmlns="http://www.w3.org/2000/svg" xmlns:xlink="http://www.w3.org/1999/xlink" width="22" height="22" viewBox="0 0 22 22" version="1.1">
<defs>
<linearGradient id="linear0" gradientUnits="userSpaceOnUse" x1="31.999998" y1="57.999996" x2="31.999998" y2="8" gradientTransform="matrix(0.34375,0,0,0.34375,0,0.00000000000003908)">
<stop offset="0" style="stop-color:rgb(0%,0%,0%);stop-opacity:0.2;"/>
<stop offset="1" style="stop-color:rgb(100%,100%,100%);stop-opacity:0;"/>
</linearGradient>
</defs>
<g id="surface1">
<path style=" stroke:none;fill-rule:nonzero;fill:rgb(74.117649%,74.117649%,74.117649%);fill-opacity:0.996078;" d="M 3.4375 2.75 L 18.5625 2.75 C 19.320312 2.75 19.9375 3.367188 19.9375 4.125 L 19.9375 17.1875 C 19.9375 17.945312 19.320312 18.5625 18.5625 18.5625 L 3.4375 18.5625 C 2.679688 18.5625 2.0625 17.945312 2.0625 17.1875 L 2.0625 4.125 C 2.0625 3.367188 2.679688 2.75 3.4375 2.75 Z M 3.4375 2.75 "/>
<path style=" stroke:none;fill-rule:nonzero;fill:rgb(93.333334%,93.333334%,93.333334%);fill-opacity:1;" d="M 3.09375 17.1875 C 2.902344 17.1875 2.75 17.339844 2.75 17.53125 L 2.75 17.875 L 4.125 17.875 L 4.125 17.53125 C 4.125 17.339844 3.972656 17.1875 3.78125 17.1875 Z M 3.09375 17.1875 "/>
<path style=" stroke:none;fill-rule:nonzero;fill:rgb(93.333334%,93.333334%,93.333334%);fill-opacity:1;" d="M 4.8125 17.1875 C 4.621094 17.1875 4.46875 17.339844 4.46875 17.53125 L 4.46875 17.875 L 5.84375 17.875 L 5.84375 17.53125 C 5.84375 17.339844 5.691406 17.1875 5.5 17.1875 Z M 4.8125 17.1875 "/>
<path style=" stroke:none;fill-rule:nonzero;fill:rgb(93.333334%,93.333334%,93.333334%);fill-opacity:1;" d="M 18.21875 17.1875 C 18.027344 17.1875 17.875 17.339844 17.875 17.53125 L 17.875 17.875 L 19.25 17.875 L 19.25 17.53125 C 19.25 17.339844 19.097656 17.1875 18.90625 17.1875 Z M 18.21875 17.1875 "/>
<path style=" stroke:none;fill-rule:nonzero;fill:rgb(93.333334%,93.333334%,93.333334%);fill-opacity:1;" d="M 16.5 17.1875 C 16.308594 17.1875 16.15625 17.339844 16.15625 17.53125 L 16.15625 17.875 L 17.53125 17.875 L 17.53125 17.53125 C 17.53125 17.339844 17.378906 17.1875 17.1875 17.1875 Z M 16.5 17.1875 "/>
<path style=" stroke:none;fill-rule:nonzero;fill:rgb(93.333334%,93.333334%,93.333334%);fill-opacity:1;" d="M 8.25 17.1875 C 8.058594 17.1875 7.90625 17.339844 7.90625 17.53125 L 7.90625 17.875 L 14.09375 17.875 L 14.09375 17.53125 C 14.09375 17.339844 13.941406 17.1875 13.75 17.1875 Z M 8.25 17.1875 "/>
<path style=" stroke:none;fill-rule:nonzero;fill:rgb(93.333334%,93.333334%,93.333334%);fill-opacity:1;" d="M 6.53125 17.1875 C 6.339844 17.1875 6.1875 17.339844 6.1875 17.53125 L 6.1875 17.875 L 7.5625 17.875 L 7.5625 17.53125 C 7.5625 17.339844 7.410156 17.1875 7.21875 17.1875 Z M 6.53125 17.1875 "/>
<path style=" stroke:none;fill-rule:nonzero;fill:rgb(93.333334%,93.333334%,93.333334%);fill-opacity:1;" d="M 14.78125 17.1875 C 14.589844 17.1875 14.4375 17.339844 14.4375 17.53125 L 14.4375 17.875 L 15.8125 17.875 L 15.8125 17.53125 C 15.8125 17.339844 15.660156 17.1875 15.46875 17.1875 Z M 14.78125 17.1875 "/>
<path style=" stroke:none;fill-rule:nonzero;fill:rgb(38.039216%,38.039216%,38.039216%);fill-opacity:1;" d="M 3.4375 3.4375 L 18.5625 3.4375 C 18.941406 3.4375 19.25 3.746094 19.25 4.125 L 19.25 15.125 C 19.25 15.503906 18.941406 15.8125 18.5625 15.8125 L 3.4375 15.8125 C 3.058594 15.8125 2.75 15.503906 2.75 15.125 L 2.75 4.125 C 2.75 3.746094 3.058594 3.4375 3.4375 3.4375 Z M 3.4375 3.4375 "/>
<path style=" stroke:none;fill-rule:nonzero;fill:rgb(87.843138%,87.843138%,87.843138%);fill-opacity:1;" d="M 2.0625 17.875 L 19.9375 17.875 C 20.316406 17.875 20.625 18.183594 20.625 18.5625 L 20.625 19.25 C 20.625 19.628906 20.316406 19.9375 19.9375 19.9375 L 2.0625 19.9375 C 1.683594 19.9375 1.375 19.628906 1.375 19.25 L 1.375 18.5625 C 1.375 18.183594 1.683594 17.875 2.0625 17.875 Z M 2.0625 17.875 "/>
<path style=" stroke:none;fill-rule:nonzero;fill:rgb(100%,100%,100%);fill-opacity:0.4;" d="M 3.4375 2.75 C 2.675781 2.75 2.0625 3.363281 2.0625 4.125 L 2.0625 4.46875 C 2.0625 3.707031 2.675781 3.09375 3.4375 3.09375 L 18.5625 3.09375 C 19.324219 3.09375 19.9375 3.707031 19.9375 4.46875 L 19.9375 4.125 C 19.9375 3.363281 19.324219 2.75 18.5625 2.75 Z M 3.4375 2.75 "/>
<path style=" stroke:none;fill-rule:nonzero;fill:rgb(100%,100%,100%);fill-opacity:0.4;" d="M 2.0625 17.875 C 1.679688 17.875 1.375 18.179688 1.375 18.5625 L 1.375 18.90625 C 1.375 18.523438 1.679688 18.21875 2.0625 18.21875 L 19.9375 18.21875 C 20.320312 18.21875 20.625 18.523438 20.625 18.90625 L 20.625 18.5625 C 20.625 18.179688 20.320312 17.875 19.9375 17.875 Z M 2.0625 17.875 "/>
<path style=" stroke:none;fill-rule:nonzero;fill:rgb(0%,0%,0%);fill-opacity:0.4;" d="M 2.0625 19.9375 C 1.679688 19.9375 1.375 19.632812 1.375 19.25 L 1.375 18.90625 C 1.375 19.289062 1.679688 19.59375 2.0625 19.59375 L 19.9375 19.59375 C 20.320312 19.59375 20.625 19.289062 20.625 18.90625 L 20.625 19.25 C 20.625 19.632812 20.320312 19.9375 19.9375 19.9375 Z M 2.0625 19.9375 "/>
<path style=" stroke:none;fill-rule:nonzero;fill:rgb(0%,0%,0%);fill-opacity:0.4;" d="M 3.4375 3.4375 C 3.054688 3.4375 2.75 3.742188 2.75 4.125 L 2.75 4.296875 C 2.75 3.914062 3.054688 3.609375 3.4375 3.609375 L 18.5625 3.609375 C 18.945312 3.609375 19.25 3.914062 19.25 4.296875 L 19.25 4.125 C 19.25 3.742188 18.945312 3.4375 18.5625 3.4375 Z M 3.4375 3.4375 "/>
<path style=" stroke:none;fill-rule:nonzero;fill:rgb(100%,100%,100%);fill-opacity:0.4;" d="M 3.4375 15.984375 C 3.054688 15.984375 2.75 15.679688 2.75 15.296875 L 2.75 15.125 C 2.75 15.507812 3.054688 15.8125 3.4375 15.8125 L 18.5625 15.8125 C 18.945312 15.8125 19.25 15.507812 19.25 15.125 L 19.25 15.296875 C 19.25 15.679688 18.945312 15.984375 18.5625 15.984375 Z M 3.4375 15.984375 "/>
<path style=" stroke:none;fill-rule:nonzero;fill:rgb(100%,100%,100%);fill-opacity:0.6;" d="M 3.085938 17.1875 C 2.898438 17.191406 2.75 17.34375 2.75 17.53125 L 2.75 17.875 L 4.125 17.875 L 4.125 17.53125 C 4.125 17.339844 3.972656 17.1875 3.78125 17.1875 L 3.09375 17.1875 C 3.089844 17.1875 3.089844 17.1875 3.085938 17.1875 Z M 4.804688 17.1875 C 4.617188 17.191406 4.46875 17.34375 4.46875 17.53125 L 4.46875 17.875 L 5.84375 17.875 L 5.84375 17.53125 C 5.84375 17.339844 5.691406 17.1875 5.5 17.1875 L 4.8125 17.1875 C 4.808594 17.1875 4.808594 17.1875 4.804688 17.1875 Z M 6.523438 17.1875 C 6.335938 17.191406 6.1875 17.34375 6.1875 17.53125 L 6.1875 17.875 L 7.5625 17.875 L 7.5625 17.53125 C 7.5625 17.339844 7.410156 17.1875 7.21875 17.1875 L 6.53125 17.1875 C 6.527344 17.1875 6.527344 17.1875 6.523438 17.1875 Z M 8.25 17.1875 C 8.058594 17.1875 7.90625 17.339844 7.90625 17.53125 L 7.90625 17.875 L 14.09375 17.875 L 14.09375 17.53125 C 14.09375 17.339844 13.941406 17.1875 13.75 17.1875 Z M 14.773438 17.1875 C 14.585938 17.191406 14.4375 17.34375 14.4375 17.53125 L 14.4375 17.875 L 15.8125 17.875 L 15.8125 17.53125 C 15.8125 17.339844 15.660156 17.1875 15.46875 17.1875 L 14.78125 17.1875 C 14.777344 17.1875 14.777344 17.1875 14.773438 17.1875 Z M 16.492188 17.1875 C 16.304688 17.191406 16.15625 17.34375 16.15625 17.53125 L 16.15625 17.875 L 17.53125 17.875 L 17.53125 17.53125 C 17.53125 17.339844 17.378906 17.1875 17.1875 17.1875 L 16.5 17.1875 C 16.496094 17.1875 16.496094 17.1875 16.492188 17.1875 Z M 18.210938 17.1875 C 18.023438 17.191406 17.875 17.34375 17.875 17.53125 L 17.875 17.875 L 19.25 17.875 L 19.25 17.53125 C 19.25 17.339844 19.097656 17.1875 18.90625 17.1875 L 18.21875 17.1875 C 18.214844 17.1875 18.214844 17.1875 18.210938 17.1875 Z M 18.210938 17.1875 "/>
<path style=" stroke:none;fill-rule:nonzero;fill:rgb(100%,100%,100%);fill-opacity:0.8;" d="M 3.085938 17.1875 C 2.898438 17.191406 2.75 17.34375 2.75 17.53125 L 2.75 17.703125 C 2.75 17.515625 2.898438 17.363281 3.085938 17.359375 C 3.089844 17.359375 3.089844 17.359375 3.09375 17.359375 L 3.78125 17.359375 C 3.972656 17.359375 4.125 17.511719 4.125 17.703125 L 4.125 17.53125 C 4.125 17.339844 3.972656 17.1875 3.78125 17.1875 L 3.09375 17.1875 C 3.089844 17.1875 3.089844 17.1875 3.085938 17.1875 Z M 4.804688 17.1875 C 4.617188 17.191406 4.46875 17.34375 4.46875 17.53125 L 4.46875 17.703125 C 4.46875 17.515625 4.617188 17.363281 4.804688 17.359375 C 4.808594 17.359375 4.808594 17.359375 4.8125 17.359375 L 5.5 17.359375 C 5.691406 17.359375 5.84375 17.511719 5.84375 17.703125 L 5.84375 17.53125 C 5.84375 17.339844 5.691406 17.1875 5.5 17.1875 L 4.8125 17.1875 C 4.808594 17.1875 4.808594 17.1875 4.804688 17.1875 Z M 6.523438 17.1875 C 6.335938 17.191406 6.1875 17.34375 6.1875 17.53125 L 6.1875 17.703125 C 6.1875 17.515625 6.335938 17.363281 6.523438 17.359375 C 6.527344 17.359375 6.527344 17.359375 6.53125 17.359375 L 7.21875 17.359375 C 7.410156 17.359375 7.5625 17.511719 7.5625 17.703125 L 7.5625 17.53125 C 7.5625 17.339844 7.410156 17.1875 7.21875 17.1875 L 6.53125 17.1875 C 6.527344 17.1875 6.527344 17.1875 6.523438 17.1875 Z M 8.25 17.1875 C 8.058594 17.1875 7.90625 17.339844 7.90625 17.53125 L 7.90625 17.703125 C 7.90625 17.511719 8.058594 17.359375 8.25 17.359375 L 13.75 17.359375 C 13.941406 17.359375 14.09375 17.511719 14.09375 17.703125 L 14.09375 17.53125 C 14.09375 17.339844 13.941406 17.1875 13.75 17.1875 Z M 14.773438 17.1875 C 14.585938 17.191406 14.4375 17.34375 14.4375 17.53125 L 14.4375 17.703125 C 14.4375 17.515625 14.585938 17.363281 14.773438 17.359375 C 14.777344 17.359375 14.777344 17.359375 14.78125 17.359375 L 15.46875 17.359375 C 15.660156 17.359375 15.8125 17.511719 15.8125 17.703125 L 15.8125 17.53125 C 15.8125 17.339844 15.660156 17.1875 15.46875 17.1875 L 14.78125 17.1875 C 14.777344 17.1875 14.777344 17.1875 14.773438 17.1875 Z M 16.492188 17.1875 C 16.304688 17.191406 16.15625 17.34375 16.15625 17.53125 L 16.15625 17.703125 C 16.15625 17.515625 16.304688 17.363281 16.492188 17.359375 C 16.496094 17.359375 16.496094 17.359375 16.5 17.359375 L 17.1875 17.359375 C 17.378906 17.359375 17.53125 17.511719 17.53125 17.703125 L 17.53125 17.53125 C 17.53125 17.339844 17.378906 17.1875 17.1875 17.1875 L 16.5 17.1875 C 16.496094 17.1875 16.496094 17.1875 16.492188 17.1875 Z M 18.210938 17.1875 C 18.023438 17.191406 17.875 17.34375 17.875 17.53125 L 17.875 17.703125 C 17.875 17.515625 18.023438 17.363281 18.210938 17.359375 C 18.214844 17.359375 18.214844 17.359375 18.21875 17.359375 L 18.90625 17.359375 C 19.097656 17.359375 19.25 17.511719 19.25 17.703125 L 19.25 17.53125 C 19.25 17.339844 19.097656 17.1875 18.90625 17.1875 L 18.21875 17.1875 C 18.214844 17.1875 18.214844 17.1875 18.210938 17.1875 Z M 18.210938 17.1875 "/>
<path style=" stroke:none;fill-rule:nonzero;fill:rgb(0%,0%,0%);fill-opacity:0.2;" d="M 1.375 19.253906 L 1.375 19.769531 C 1.375 20.148438 1.679688 20.457031 2.0625 20.457031 L 19.9375 20.457031 C 20.320312 20.457031 20.625 20.148438 20.625 19.769531 L 20.625 19.253906 C 20.625 19.632812 20.320312 19.941406 19.9375 19.941406 L 2.0625 19.941406 C 1.679688 19.941406 1.375 19.632812 1.375 19.253906 Z M 1.375 19.253906 "/>
<path style=" stroke:none;fill-rule:nonzero;fill:url(#linear0);" d="M 3.4375 2.75 C 2.675781 2.75 2.0625 3.363281 2.0625 4.125 L 2.0625 17.1875 C 2.0625 17.4375 2.128906 17.671875 2.246094 17.875 L 2.0625 17.875 C 1.679688 17.875 1.375 18.179688 1.375 18.5625 L 1.375 19.25 C 1.375 19.632812 1.679688 19.9375 2.0625 19.9375 L 19.9375 19.9375 C 20.320312 19.9375 20.625 19.632812 20.625 19.25 L 20.625 18.5625 C 20.625 18.179688 20.320312 17.875 19.9375 17.875 L 19.753906 17.875 C 19.871094 17.671875 19.9375 17.4375 19.9375 17.1875 L 19.9375 4.125 C 19.9375 3.363281 19.324219 2.75 18.5625 2.75 Z M 3.4375 2.75 "/>
</g>
</svg>
