
<svg xmlns="http://www.w3.org/2000/svg" xmlns:xlink="http://www.w3.org/1999/xlink" width="32" height="32" viewBox="0 0 32 32" version="1.1">
<defs>
<linearGradient id="linear0" gradientUnits="userSpaceOnUse" x1="8.466666" y1="-201.241669" x2="8.466666" y2="-212.354172" gradientTransform="matrix(1.889764,0,0,1.889764,0,406.299234)">
<stop offset="0" style="stop-color:rgb(0%,0%,0%);stop-opacity:0.2;"/>
<stop offset="1" style="stop-color:rgb(100%,100%,100%);stop-opacity:0;"/>
</linearGradient>
</defs>
<g id="surface1">
<path style=" stroke:none;fill-rule:nonzero;fill:rgb(36.078432%,41.960785%,75.294119%);fill-opacity:0.301961;" d="M 13 9 L 20 9 L 20 17 L 13 17 Z M 13 9 "/>
<path style=" stroke:none;fill-rule:nonzero;fill:rgb(87.843138%,87.843138%,87.843138%);fill-opacity:1;" d="M 22.75 9.75 C 20.949219 9.75 19.5 11.199219 19.5 13 C 19.5 14.800781 20.949219 16.25 22.75 16.25 C 24.550781 16.25 26 14.800781 26 13 C 26 11.199219 24.550781 9.75 22.75 9.75 Z M 22.75 10.75 C 22.976562 10.75 23.191406 10.78125 23.398438 10.84375 L 23.179688 11.5625 C 23.40625 11.628906 23.613281 11.75 23.78125 11.90625 L 24.292969 11.363281 C 24.449219 11.507812 24.585938 11.679688 24.699219 11.875 C 24.8125 12.070312 24.890625 12.273438 24.941406 12.480469 L 24.210938 12.65625 C 24.238281 12.765625 24.25 12.882812 24.25 13 C 24.25 13.117188 24.238281 13.234375 24.210938 13.347656 L 24.941406 13.519531 C 24.890625 13.726562 24.8125 13.929688 24.699219 14.125 C 24.585938 14.320312 24.449219 14.492188 24.292969 14.636719 L 23.78125 14.09375 C 23.613281 14.25 23.40625 14.371094 23.179688 14.4375 L 23.398438 15.15625 C 23.191406 15.21875 22.976562 15.25 22.75 15.25 C 22.523438 15.25 22.308594 15.21875 22.101562 15.15625 L 22.320312 14.4375 C 22.09375 14.371094 21.886719 14.25 21.71875 14.09375 L 21.207031 14.636719 C 21.050781 14.492188 20.914062 14.320312 20.800781 14.125 C 20.6875 13.929688 20.609375 13.726562 20.558594 13.519531 L 21.289062 13.347656 C 21.261719 13.234375 21.25 13.117188 21.25 13 C 21.25 12.882812 21.261719 12.765625 21.289062 12.65625 L 20.558594 12.480469 C 20.609375 12.273438 20.6875 12.070312 20.800781 11.875 C 20.914062 11.679688 21.050781 11.507812 21.207031 11.363281 L 21.71875 11.90625 C 21.886719 11.75 22.09375 11.628906 22.320312 11.5625 L 22.101562 10.84375 C 22.308594 10.78125 22.523438 10.75 22.75 10.75 Z M 22.75 10.75 "/>
<path style=" stroke:none;fill-rule:nonzero;fill:rgb(55.29412%,43.137255%,38.82353%);fill-opacity:0.996078;" d="M 9.25 9.25 C 7.171875 9.25 5.5 10.921875 5.5 13 C 5.5 15.078125 7.171875 16.75 9.25 16.75 L 15.417969 16.75 C 16.105469 15.667969 16.5 14.382812 16.5 13 C 16.5 11.617188 16.105469 10.332031 15.417969 9.25 Z M 9.5 10.5 C 10.886719 10.5 12 11.613281 12 13 C 12 14.386719 10.886719 15.5 9.5 15.5 C 8.113281 15.5 7 14.386719 7 13 C 7 11.613281 8.113281 10.5 9.5 10.5 Z M 9.5 10.5 "/>
<path style=" stroke:none;fill-rule:nonzero;fill:rgb(38.039216%,38.039216%,38.039216%);fill-opacity:0.996078;" d="M 4 5 C 2.890625 5 2 5.890625 2 7 L 2 24 C 2 25.109375 2.890625 26 4 26 L 28 26 C 29.109375 26 30 25.109375 30 24 L 30 7 C 30 5.890625 29.109375 5 28 5 Z M 9.5 9.25 L 22.75 9.25 C 24.828125 9.25 26.5 10.921875 26.5 13 C 26.5 15.078125 24.828125 16.75 22.75 16.75 L 9.5 16.75 C 7.421875 16.75 5.75 15.078125 5.75 13 C 5.75 10.921875 7.421875 9.25 9.5 9.25 Z M 11.230469 22.5 C 11.238281 22.5 11.242188 22.5 11.25 22.5 C 11.664062 22.5 12 22.835938 12 23.25 C 12 23.664062 11.664062 24 11.25 24 C 11.199219 24 11.148438 23.996094 11.097656 23.984375 C 10.757812 23.914062 10.5 23.613281 10.5 23.25 C 10.5 22.839844 10.824219 22.511719 11.230469 22.5 Z M 20.730469 22.5 C 20.738281 22.5 20.742188 22.5 20.75 22.5 C 21.164062 22.5 21.5 22.835938 21.5 23.25 C 21.5 23.664062 21.164062 24 20.75 24 C 20.335938 24 20 23.664062 20 23.25 C 20 23.199219 20.003906 23.148438 20.015625 23.101562 C 20.082031 22.761719 20.375 22.507812 20.730469 22.5 Z M 8.972656 23 C 8.980469 23 8.992188 23 9 23 C 9.070312 23 9.136719 23.007812 9.203125 23.019531 C 9.265625 23.035156 9.328125 23.054688 9.390625 23.078125 C 9.449219 23.101562 9.507812 23.132812 9.558594 23.171875 C 9.613281 23.207031 9.664062 23.246094 9.707031 23.292969 C 9.753906 23.335938 9.792969 23.386719 9.828125 23.441406 C 9.867188 23.492188 9.898438 23.550781 9.921875 23.609375 C 9.945312 23.671875 9.964844 23.734375 9.980469 23.796875 C 9.992188 23.863281 10 23.929688 10 24 C 10 24.070312 9.992188 24.136719 9.980469 24.203125 C 9.964844 24.265625 9.945312 24.328125 9.921875 24.390625 C 9.898438 24.449219 9.867188 24.507812 9.828125 24.558594 C 9.792969 24.613281 9.753906 24.664062 9.707031 24.707031 C 9.664062 24.753906 9.613281 24.792969 9.558594 24.828125 C 9.507812 24.867188 9.449219 24.898438 9.390625 24.921875 C 9.328125 24.945312 9.265625 24.964844 9.203125 24.980469 C 9.136719 24.992188 9.070312 25 9 25 C 8.929688 25 8.863281 24.992188 8.796875 24.980469 C 8.734375 24.964844 8.671875 24.945312 8.609375 24.921875 C 8.550781 24.898438 8.492188 24.867188 8.441406 24.828125 C 8.386719 24.792969 8.335938 24.753906 8.292969 24.707031 C 8.246094 24.664062 8.207031 24.613281 8.171875 24.558594 C 8.132812 24.507812 8.101562 24.449219 8.078125 24.390625 C 8.054688 24.328125 8.035156 24.265625 8.019531 24.203125 C 8.007812 24.136719 8 24.070312 8 24 C 8 23.933594 8.007812 23.863281 8.019531 23.800781 C 8.03125 23.738281 8.050781 23.675781 8.078125 23.617188 C 8.101562 23.554688 8.128906 23.5 8.164062 23.445312 C 8.199219 23.394531 8.238281 23.347656 8.28125 23.300781 C 8.328125 23.253906 8.375 23.214844 8.429688 23.179688 C 8.480469 23.144531 8.535156 23.109375 8.59375 23.085938 C 8.652344 23.058594 8.710938 23.039062 8.777344 23.023438 C 8.839844 23.011719 8.90625 23 8.972656 23 Z M 22.972656 23 C 22.980469 23 22.992188 23 23 23 C 23.070312 23 23.136719 23.007812 23.203125 23.019531 C 23.265625 23.035156 23.328125 23.054688 23.390625 23.078125 C 23.449219 23.101562 23.507812 23.132812 23.558594 23.171875 C 23.613281 23.207031 23.664062 23.246094 23.707031 23.292969 C 23.753906 23.335938 23.792969 23.386719 23.828125 23.441406 C 23.867188 23.492188 23.898438 23.550781 23.921875 23.609375 C 23.945312 23.671875 23.964844 23.734375 23.980469 23.796875 C 23.992188 23.863281 24 23.929688 24 24 C 24 24.070312 23.992188 24.136719 23.980469 24.203125 C 23.964844 24.265625 23.945312 24.328125 23.921875 24.390625 C 23.898438 24.449219 23.867188 24.507812 23.828125 24.558594 C 23.792969 24.613281 23.753906 24.664062 23.707031 24.707031 C 23.664062 24.753906 23.613281 24.792969 23.558594 24.828125 C 23.507812 24.867188 23.449219 24.898438 23.390625 24.921875 C 23.328125 24.945312 23.265625 24.964844 23.203125 24.980469 C 23.136719 24.992188 23.070312 25 23 25 C 22.929688 25 22.863281 24.992188 22.796875 24.980469 C 22.734375 24.964844 22.671875 24.945312 22.609375 24.921875 C 22.550781 24.898438 22.492188 24.867188 22.441406 24.828125 C 22.386719 24.792969 22.335938 24.753906 22.292969 24.707031 C 22.246094 24.664062 22.207031 24.613281 22.171875 24.558594 C 22.132812 24.507812 22.101562 24.449219 22.078125 24.390625 C 22.054688 24.328125 22.035156 24.265625 22.019531 24.203125 C 22.007812 24.136719 22 24.070312 22 24 C 22 23.933594 22.007812 23.863281 22.019531 23.800781 C 22.03125 23.738281 22.050781 23.675781 22.078125 23.617188 C 22.101562 23.554688 22.128906 23.5 22.164062 23.445312 C 22.199219 23.394531 22.238281 23.347656 22.28125 23.300781 C 22.328125 23.253906 22.375 23.214844 22.429688 23.179688 C 22.480469 23.144531 22.535156 23.109375 22.59375 23.085938 C 22.652344 23.058594 22.710938 23.039062 22.777344 23.023438 C 22.839844 23.011719 22.90625 23 22.972656 23 Z M 22.972656 23 "/>
<path style=" stroke:none;fill-rule:nonzero;fill:rgb(45.882353%,45.882353%,45.882353%);fill-opacity:1;" d="M 7.980469 21 C 7.410156 21 6.917969 21.402344 6.808594 21.960938 L 6 26 L 26 26 L 25.191406 21.960938 C 25.082031 21.402344 24.589844 21 24.019531 21 Z M 11.230469 22.5 C 11.238281 22.5 11.242188 22.5 11.25 22.5 C 11.664062 22.5 12 22.835938 12 23.25 C 12 23.664062 11.664062 24 11.25 24 C 10.835938 24 10.5 23.664062 10.5 23.25 C 10.5 22.839844 10.824219 22.511719 11.230469 22.5 Z M 20.730469 22.5 C 20.738281 22.5 20.742188 22.5 20.75 22.5 C 21.164062 22.5 21.5 22.835938 21.5 23.25 C 21.5 23.664062 21.164062 24 20.75 24 C 20.335938 24 20 23.664062 20 23.25 C 20 22.839844 20.324219 22.511719 20.730469 22.5 Z M 8.972656 23 C 8.980469 23 8.992188 23 9 23 C 9.554688 23 10 23.445312 10 24 C 10 24.554688 9.554688 25 9 25 C 8.445312 25 8 24.554688 8 24 C 8 23.453125 8.433594 23.011719 8.972656 23 Z M 22.972656 23 C 22.980469 23 22.992188 23 23 23 C 23.554688 23 24 23.445312 24 24 C 24 24.554688 23.554688 25 23 25 C 22.445312 25 22 24.554688 22 24 C 22 23.453125 22.433594 23.011719 22.972656 23 Z M 22.972656 23 "/>
<path style=" stroke:none;fill-rule:nonzero;fill:rgb(100%,43.921569%,26.274511%);fill-opacity:0.996078;" d="M 4 6 C 3.445312 6 3 6.445312 3 7 L 3 13 L 5.75 13 C 5.75 10.921875 7.421875 9.25 9.5 9.25 L 22.75 9.25 C 24.828125 9.25 26.5 10.921875 26.5 13 L 29 13 L 29 7 C 29 6.445312 28.554688 6 28 6 Z M 9.5 10.75 C 9.613281 10.75 9.722656 10.757812 9.832031 10.773438 C 9.777344 10.765625 9.722656 10.761719 9.667969 10.757812 C 9.613281 10.75 9.554688 10.75 9.5 10.75 Z M 9.5 10.75 C 9.445312 10.75 9.386719 10.75 9.332031 10.757812 C 9.277344 10.761719 9.222656 10.765625 9.167969 10.773438 C 9.277344 10.757812 9.386719 10.75 9.5 10.75 Z M 9.167969 10.773438 C 9.113281 10.78125 9.0625 10.792969 9.007812 10.804688 C 8.957031 10.816406 8.90625 10.828125 8.851562 10.84375 C 8.957031 10.8125 9.0625 10.789062 9.167969 10.773438 Z M 9.832031 10.773438 C 9.9375 10.789062 10.042969 10.8125 10.148438 10.84375 C 10.09375 10.828125 10.042969 10.816406 9.992188 10.804688 C 9.9375 10.792969 9.886719 10.78125 9.832031 10.773438 Z M 7.957031 11.363281 C 7.917969 11.398438 7.878906 11.4375 7.84375 11.476562 C 7.808594 11.515625 7.773438 11.558594 7.738281 11.601562 C 7.804688 11.515625 7.878906 11.4375 7.957031 11.363281 Z M 7.738281 11.601562 C 7.703125 11.644531 7.671875 11.6875 7.640625 11.734375 C 7.609375 11.777344 7.578125 11.828125 7.550781 11.875 C 7.609375 11.777344 7.671875 11.6875 7.738281 11.601562 Z M 7.550781 11.875 C 7.523438 11.921875 7.496094 11.972656 7.472656 12.023438 C 7.449219 12.070312 7.425781 12.125 7.40625 12.171875 C 7.449219 12.074219 7.496094 11.972656 7.550781 11.875 Z M 7.40625 12.171875 C 7.386719 12.222656 7.367188 12.273438 7.351562 12.328125 C 7.335938 12.378906 7.320312 12.429688 7.308594 12.480469 C 7.335938 12.378906 7.367188 12.273438 7.40625 12.171875 Z M 11.042969 11.363281 C 11.121094 11.4375 11.195312 11.515625 11.261719 11.601562 C 11.226562 11.558594 11.191406 11.515625 11.15625 11.476562 C 11.121094 11.4375 11.082031 11.398438 11.042969 11.363281 Z M 11.261719 11.601562 C 11.328125 11.6875 11.390625 11.777344 11.449219 11.875 C 11.421875 11.828125 11.390625 11.777344 11.359375 11.734375 C 11.328125 11.6875 11.296875 11.644531 11.261719 11.601562 Z M 11.449219 11.875 C 11.503906 11.972656 11.550781 12.074219 11.59375 12.171875 C 11.574219 12.125 11.550781 12.070312 11.527344 12.023438 C 11.503906 11.972656 11.476562 11.921875 11.449219 11.875 Z M 11.59375 12.171875 C 11.632812 12.273438 11.664062 12.378906 11.691406 12.480469 C 11.679688 12.429688 11.664062 12.378906 11.648438 12.328125 C 11.632812 12.273438 11.613281 12.222656 11.59375 12.171875 Z M 11.59375 12.171875 "/>
<path style=" stroke:none;fill-rule:nonzero;fill:rgb(100%,43.921569%,26.274511%);fill-opacity:0.996078;" d="M 3 13 L 3 19 C 3 19.554688 3.445312 20 4 20 L 28 20 C 28.554688 20 29 19.554688 29 19 L 29 13 L 26.5 13 C 26.5 15.078125 24.828125 16.75 22.75 16.75 L 9.5 16.75 C 7.421875 16.75 5.75 15.078125 5.75 13 Z M 7.308594 13.519531 C 7.320312 13.570312 7.335938 13.621094 7.351562 13.671875 C 7.367188 13.726562 7.386719 13.777344 7.40625 13.828125 C 7.367188 13.726562 7.335938 13.621094 7.308594 13.519531 Z M 11.691406 13.519531 C 11.664062 13.621094 11.632812 13.726562 11.59375 13.828125 C 11.613281 13.777344 11.632812 13.726562 11.648438 13.671875 C 11.664062 13.621094 11.679688 13.570312 11.691406 13.519531 Z M 7.40625 13.828125 C 7.425781 13.878906 7.449219 13.929688 7.472656 13.976562 C 7.496094 14.027344 7.523438 14.078125 7.550781 14.125 C 7.496094 14.027344 7.449219 13.929688 7.40625 13.828125 Z M 7.550781 14.125 C 7.578125 14.171875 7.609375 14.222656 7.640625 14.265625 C 7.671875 14.3125 7.703125 14.355469 7.738281 14.398438 C 7.671875 14.3125 7.609375 14.222656 7.550781 14.125 Z M 7.738281 14.398438 C 7.773438 14.441406 7.808594 14.484375 7.84375 14.523438 C 7.878906 14.5625 7.917969 14.601562 7.957031 14.636719 C 7.878906 14.5625 7.804688 14.484375 7.738281 14.398438 Z M 11.59375 13.828125 C 11.550781 13.929688 11.503906 14.027344 11.449219 14.125 C 11.476562 14.078125 11.503906 14.027344 11.527344 13.976562 C 11.550781 13.929688 11.574219 13.878906 11.59375 13.828125 Z M 11.449219 14.125 C 11.390625 14.222656 11.328125 14.3125 11.261719 14.398438 C 11.296875 14.355469 11.328125 14.3125 11.359375 14.265625 C 11.390625 14.222656 11.421875 14.171875 11.449219 14.125 Z M 11.261719 14.398438 C 11.195312 14.484375 11.121094 14.5625 11.042969 14.636719 C 11.082031 14.601562 11.121094 14.5625 11.15625 14.523438 C 11.191406 14.484375 11.226562 14.441406 11.261719 14.398438 Z M 8.851562 15.15625 C 8.90625 15.171875 8.957031 15.183594 9.007812 15.195312 C 9.0625 15.207031 9.113281 15.21875 9.167969 15.226562 C 9.0625 15.210938 8.957031 15.1875 8.851562 15.15625 Z M 9.167969 15.226562 C 9.222656 15.234375 9.277344 15.238281 9.332031 15.242188 C 9.386719 15.25 9.445312 15.25 9.5 15.25 C 9.386719 15.25 9.277344 15.242188 9.167969 15.226562 Z M 9.5 15.25 C 9.554688 15.25 9.613281 15.25 9.667969 15.242188 C 9.722656 15.238281 9.777344 15.234375 9.832031 15.226562 C 9.722656 15.242188 9.613281 15.25 9.5 15.25 Z M 9.832031 15.226562 C 9.886719 15.21875 9.9375 15.207031 9.992188 15.195312 C 10.042969 15.183594 10.09375 15.171875 10.148438 15.15625 C 10.042969 15.1875 9.9375 15.210938 9.832031 15.226562 Z M 9.832031 15.226562 "/>
<path style=" stroke:none;fill-rule:nonzero;fill:rgb(100%,100%,100%);fill-opacity:0.4;" d="M 7.980469 21 C 7.410156 21 6.917969 21.402344 6.808594 21.960938 L 6.101562 25.5 L 6.199219 25.5 L 6.808594 22.460938 C 6.917969 21.902344 7.410156 21.5 7.980469 21.5 L 24.019531 21.5 C 24.589844 21.5 25.082031 21.902344 25.191406 22.460938 L 25.800781 25.5 L 25.898438 25.5 L 25.191406 21.960938 C 25.082031 21.402344 24.589844 21 24.019531 21 Z M 6 25.996094 L 6 26 L 6.101562 26 L 6.101562 25.996094 Z M 25.898438 25.996094 L 25.898438 26 L 26 26 L 26 25.996094 Z M 25.898438 25.996094 "/>
<path style=" stroke:none;fill-rule:nonzero;fill:rgb(100%,100%,100%);fill-opacity:0.4;" d="M 4 5 C 2.890625 5 2 5.890625 2 7 L 2 7.496094 C 2 6.390625 2.890625 5.496094 4 5.496094 L 28 5.496094 C 29.109375 5.496094 30 6.390625 30 7.496094 L 30 7 C 30 5.890625 29.109375 5 28 5 Z M 4 5 "/>
<path style=" stroke:none;fill-rule:nonzero;fill:rgb(6.666667%,6.666667%,6.666667%);fill-opacity:0.4;" d="M 4 25.996094 C 2.890625 25.996094 2 25.105469 2 23.996094 L 2 23.5 C 2 24.609375 2.890625 25.5 4 25.5 L 28 25.5 C 29.109375 25.5 30 24.609375 30 23.5 L 30 23.996094 C 30 25.105469 29.109375 25.996094 28 25.996094 Z M 4 25.996094 "/>
<path style=" stroke:none;fill-rule:nonzero;fill:rgb(38.039216%,38.039216%,38.039216%);fill-opacity:0.996078;" d="M 16 22 C 16.277344 22 16.5 22.222656 16.5 22.5 C 16.5 22.777344 16.277344 23 16 23 C 15.722656 23 15.5 22.777344 15.5 22.5 C 15.5 22.222656 15.722656 22 16 22 Z M 16 22 "/>
<path style=" stroke:none;fill-rule:nonzero;fill:rgb(0%,0%,0%);fill-opacity:0.4;" d="M 15.988281 22 C 15.714844 22.007812 15.5 22.226562 15.5 22.5 C 15.5 22.542969 15.507812 22.582031 15.515625 22.625 C 15.570312 22.414062 15.761719 22.257812 15.988281 22.25 C 15.992188 22.25 15.996094 22.25 16 22.25 C 16.234375 22.25 16.425781 22.40625 16.484375 22.625 C 16.492188 22.582031 16.5 22.542969 16.5 22.5 C 16.5 22.222656 16.277344 22 16 22 C 15.996094 22 15.992188 22 15.988281 22 Z M 11.230469 22.5 C 10.824219 22.511719 10.5 22.839844 10.5 23.25 C 10.5 23.289062 10.503906 23.328125 10.511719 23.367188 C 10.574219 23.019531 10.867188 22.757812 11.230469 22.75 C 11.238281 22.75 11.242188 22.75 11.25 22.75 C 11.621094 22.75 11.925781 23.015625 11.988281 23.367188 C 11.992188 23.328125 12 23.289062 12 23.25 C 12 22.835938 11.664062 22.5 11.25 22.5 C 11.242188 22.5 11.238281 22.5 11.230469 22.5 Z M 20.730469 22.5 C 20.660156 22.5 20.589844 22.511719 20.527344 22.53125 C 20.519531 22.535156 20.515625 22.535156 20.507812 22.539062 C 20.503906 22.542969 20.496094 22.542969 20.492188 22.546875 C 20.484375 22.546875 20.480469 22.550781 20.476562 22.550781 C 20.308594 22.617188 20.171875 22.738281 20.089844 22.890625 C 20.085938 22.898438 20.085938 22.902344 20.082031 22.90625 C 20.066406 22.933594 20.054688 22.960938 20.046875 22.992188 C 20.015625 23.070312 20 23.160156 20 23.25 C 20 23.289062 20.003906 23.328125 20.011719 23.367188 C 20.019531 23.324219 20.03125 23.28125 20.046875 23.242188 C 20.054688 23.214844 20.066406 23.1875 20.082031 23.160156 C 20.085938 23.152344 20.085938 23.148438 20.089844 23.140625 C 20.171875 22.988281 20.308594 22.867188 20.476562 22.800781 C 20.480469 22.796875 20.484375 22.796875 20.492188 22.796875 C 20.496094 22.792969 20.503906 22.789062 20.507812 22.789062 C 20.515625 22.789062 20.519531 22.785156 20.527344 22.78125 C 20.589844 22.761719 20.660156 22.75 20.730469 22.75 C 20.738281 22.75 20.742188 22.75 20.75 22.75 C 20.875 22.75 20.988281 22.78125 21.09375 22.832031 C 21.296875 22.9375 21.445312 23.132812 21.488281 23.371094 C 21.496094 23.332031 21.5 23.292969 21.5 23.25 C 21.5 22.957031 21.335938 22.707031 21.09375 22.582031 C 20.988281 22.53125 20.875 22.5 20.75 22.5 C 20.742188 22.5 20.738281 22.5 20.730469 22.5 Z M 8.972656 23 C 8.433594 23.011719 8 23.453125 8 24 C 8 24.042969 8.003906 24.082031 8.007812 24.125 C 8.070312 23.636719 8.472656 23.261719 8.972656 23.25 C 8.980469 23.25 8.992188 23.25 9 23.25 C 9.050781 23.25 9.101562 23.253906 9.152344 23.261719 C 9.59375 23.328125 9.9375 23.679688 9.992188 24.125 C 9.996094 24.082031 10 24.042969 10 24 C 10 23.496094 9.632812 23.085938 9.152344 23.011719 C 9.101562 23.003906 9.050781 23 9 23 C 8.992188 23 8.980469 23 8.972656 23 Z M 22.972656 23 C 22.433594 23.011719 22 23.453125 22 24 C 22 24.042969 22.003906 24.082031 22.007812 24.125 C 22.070312 23.636719 22.472656 23.261719 22.972656 23.25 C 22.980469 23.25 22.992188 23.25 23 23.25 C 23.511719 23.25 23.929688 23.628906 23.992188 24.125 C 23.996094 24.082031 24 24.042969 24 24 C 24 23.445312 23.554688 23 23 23 C 22.992188 23 22.980469 23 22.972656 23 Z M 22.972656 23 "/>
<path style=" stroke:none;fill-rule:nonzero;fill:rgb(100%,100%,100%);fill-opacity:0.4;" d="M 15.515625 22.625 C 15.503906 22.664062 15.5 22.707031 15.5 22.75 C 15.5 23.027344 15.722656 23.25 16 23.25 C 16.277344 23.25 16.5 23.027344 16.5 22.75 C 16.5 22.707031 16.496094 22.664062 16.484375 22.625 C 16.429688 22.839844 16.234375 23 16 23 C 15.765625 23 15.570312 22.839844 15.515625 22.625 Z M 10.511719 23.375 C 10.503906 23.414062 10.5 23.457031 10.5 23.5 C 10.5 23.914062 10.835938 24.25 11.25 24.25 C 11.664062 24.25 12 23.914062 12 23.5 C 12 23.457031 11.996094 23.414062 11.988281 23.375 C 11.929688 23.730469 11.621094 24 11.25 24 C 10.875 24 10.570312 23.730469 10.511719 23.375 Z M 20.011719 23.375 C 20.003906 23.414062 20 23.457031 20 23.5 C 20 23.914062 20.335938 24.25 20.75 24.25 C 21.164062 24.25 21.5 23.914062 21.5 23.5 C 21.5 23.457031 21.496094 23.414062 21.488281 23.375 C 21.429688 23.730469 21.121094 24 20.75 24 C 20.375 24 20.070312 23.730469 20.011719 23.375 Z M 8.007812 24.125 C 8.003906 24.164062 8 24.207031 8 24.25 C 8 24.804688 8.445312 25.25 9 25.25 C 9.554688 25.25 10 24.804688 10 24.25 C 10 24.207031 9.996094 24.164062 9.992188 24.125 C 9.929688 24.621094 9.511719 25 9 25 C 8.488281 25 8.070312 24.617188 8.007812 24.125 Z M 22.007812 24.125 C 22.003906 24.164062 22 24.207031 22 24.25 C 22 24.804688 22.445312 25.25 23 25.25 C 23.554688 25.25 24 24.804688 24 24.25 C 24 24.207031 23.996094 24.164062 23.992188 24.125 C 23.929688 24.621094 23.511719 25 23 25 C 22.488281 25 22.070312 24.617188 22.007812 24.125 Z M 22.007812 24.125 "/>
<path style=" stroke:none;fill-rule:nonzero;fill:rgb(0%,0%,0%);fill-opacity:0.2;" d="M 2 24 L 2 24.75 C 2 25.859375 2.890625 26.75 4 26.75 L 28 26.75 C 29.109375 26.75 30 25.859375 30 24.75 L 30 24 C 30 25.109375 29.109375 26 28 26 L 4 26 C 2.890625 26 2 25.109375 2 24 Z M 2 24 "/>
<path style=" stroke:none;fill-rule:nonzero;fill:rgb(38.039216%,38.039216%,38.039216%);fill-opacity:1;" d="M 9.5 9 C 7.285156 9 5.5 10.785156 5.5 13 C 5.5 15.214844 7.285156 17 9.5 17 L 22.75 17 C 24.964844 17 26.75 15.214844 26.75 13 C 26.75 10.785156 24.964844 9 22.75 9 Z M 9.5 9.25 L 22.75 9.25 C 24.828125 9.25 26.5 10.921875 26.5 13 C 26.5 15.078125 24.828125 16.75 22.75 16.75 L 9.5 16.75 C 7.421875 16.75 5.75 15.078125 5.75 13 C 5.75 10.921875 7.421875 9.25 9.5 9.25 Z M 9.5 9.25 "/>
<path style=" stroke:none;fill-rule:nonzero;fill:rgb(55.29412%,43.137255%,38.82353%);fill-opacity:1;" d="M 19.4375 9.25 C 18.402344 10.164062 17.75 11.503906 17.75 13 C 17.75 14.496094 18.402344 15.835938 19.4375 16.75 L 22.75 16.75 C 24.828125 16.75 26.5 15.078125 26.5 13 C 26.5 10.921875 24.828125 9.25 22.75 9.25 Z M 22.75 9.75 C 24.550781 9.75 26 11.199219 26 13 C 26 14.800781 24.550781 16.25 22.75 16.25 C 20.949219 16.25 19.5 14.800781 19.5 13 C 19.5 11.199219 20.949219 9.75 22.75 9.75 Z M 22.75 9.75 "/>
<path style=" stroke:none;fill-rule:nonzero;fill:rgb(87.843138%,87.843138%,87.843138%);fill-opacity:1;" d="M 9.5 9.75 C 7.699219 9.75 6.25 11.199219 6.25 13 C 6.25 14.800781 7.699219 16.25 9.5 16.25 C 11.300781 16.25 12.75 14.800781 12.75 13 C 12.75 11.199219 11.300781 9.75 9.5 9.75 Z M 9.5 10.75 C 9.726562 10.75 9.941406 10.78125 10.148438 10.84375 L 9.929688 11.5625 C 10.15625 11.628906 10.363281 11.75 10.53125 11.90625 L 11.042969 11.363281 C 11.199219 11.507812 11.335938 11.679688 11.449219 11.875 C 11.5625 12.070312 11.640625 12.273438 11.691406 12.480469 L 10.960938 12.65625 C 10.988281 12.765625 11 12.882812 11 13 C 11 13.117188 10.988281 13.234375 10.960938 13.34375 L 11.691406 13.519531 C 11.640625 13.726562 11.5625 13.929688 11.449219 14.125 C 11.335938 14.320312 11.199219 14.492188 11.042969 14.636719 L 10.53125 14.09375 C 10.363281 14.25 10.15625 14.371094 9.929688 14.4375 L 10.148438 15.15625 C 9.941406 15.21875 9.726562 15.25 9.5 15.25 C 9.273438 15.25 9.058594 15.21875 8.851562 15.15625 L 9.070312 14.4375 C 8.84375 14.371094 8.636719 14.25 8.46875 14.09375 L 7.957031 14.636719 C 7.800781 14.492188 7.664062 14.320312 7.550781 14.125 C 7.4375 13.929688 7.359375 13.726562 7.308594 13.519531 L 8.039062 13.34375 C 8.011719 13.234375 8 13.117188 8 13 C 8 12.882812 8.011719 12.765625 8.039062 12.65625 L 7.308594 12.480469 C 7.359375 12.273438 7.4375 12.070312 7.550781 11.875 C 7.664062 11.679688 7.800781 11.507812 7.957031 11.363281 L 8.46875 11.90625 C 8.636719 11.75 8.84375 11.628906 9.070312 11.5625 L 8.851562 10.84375 C 9.058594 10.78125 9.273438 10.75 9.5 10.75 Z M 9.5 10.75 "/>
<path style=" stroke:none;fill-rule:nonzero;fill:rgb(74.117649%,74.117649%,74.117649%);fill-opacity:1;" d="M 9.5 10.25 C 7.976562 10.25 6.75 11.476562 6.75 13 C 6.75 14.523438 7.976562 15.75 9.5 15.75 C 11.023438 15.75 12.25 14.523438 12.25 13 C 12.25 11.476562 11.023438 10.25 9.5 10.25 Z M 9.5 10.75 C 9.726562 10.75 9.941406 10.78125 10.148438 10.84375 L 9.929688 11.5625 C 10.15625 11.628906 10.363281 11.75 10.53125 11.90625 L 11.042969 11.363281 C 11.199219 11.507812 11.335938 11.679688 11.449219 11.875 C 11.5625 12.070312 11.640625 12.273438 11.691406 12.480469 L 10.960938 12.65625 C 10.988281 12.765625 11 12.882812 11 13 C 11 13.117188 10.988281 13.234375 10.960938 13.34375 L 11.691406 13.519531 C 11.640625 13.726562 11.5625 13.929688 11.449219 14.125 C 11.335938 14.320312 11.199219 14.492188 11.042969 14.636719 L 10.53125 14.09375 C 10.363281 14.25 10.15625 14.371094 9.929688 14.4375 L 10.148438 15.15625 C 9.941406 15.21875 9.726562 15.25 9.5 15.25 C 9.273438 15.25 9.058594 15.21875 8.851562 15.15625 L 9.070312 14.4375 C 8.84375 14.371094 8.636719 14.25 8.46875 14.09375 L 7.957031 14.636719 C 7.800781 14.492188 7.664062 14.320312 7.550781 14.125 C 7.4375 13.929688 7.359375 13.726562 7.308594 13.519531 L 8.039062 13.34375 C 8.011719 13.234375 8 13.117188 8 13 C 8 12.882812 8.011719 12.765625 8.039062 12.65625 L 7.308594 12.480469 C 7.359375 12.273438 7.4375 12.070312 7.550781 11.875 C 7.664062 11.679688 7.800781 11.507812 7.957031 11.363281 L 8.46875 11.90625 C 8.636719 11.75 8.84375 11.628906 9.070312 11.5625 L 8.851562 10.84375 C 9.058594 10.78125 9.273438 10.75 9.5 10.75 Z M 9.5 10.75 "/>
<path style=" stroke:none;fill-rule:nonzero;fill:rgb(0%,0%,0%);fill-opacity:0.4;" d="M 9.5 10.25 C 7.976562 10.25 6.75 11.476562 6.75 13 C 6.75 13.042969 6.75 13.082031 6.753906 13.125 C 6.816406 11.660156 8.019531 10.5 9.5 10.5 C 10.980469 10.5 12.183594 11.660156 12.246094 13.125 C 12.25 13.082031 12.25 13.042969 12.25 13 C 12.25 11.476562 11.023438 10.25 9.5 10.25 Z M 9.5 10.25 "/>
<path style=" stroke:none;fill-rule:nonzero;fill:rgb(99.607843%,99.607843%,99.607843%);fill-opacity:0.4;" d="M 9.5 16 C 7.976562 16 6.75 14.773438 6.75 13.25 C 6.75 13.207031 6.75 13.167969 6.753906 13.125 C 6.816406 14.589844 8.019531 15.75 9.5 15.75 C 10.980469 15.75 12.183594 14.589844 12.246094 13.125 C 12.25 13.167969 12.25 13.207031 12.25 13.25 C 12.25 14.773438 11.023438 16 9.5 16 Z M 9.5 16 "/>
<path style=" stroke:none;fill-rule:nonzero;fill:rgb(100%,100%,100%);fill-opacity:0.8;" d="M 9.5 9.75 C 7.699219 9.75 6.25 11.199219 6.25 13 C 6.25 13.042969 6.25 13.082031 6.25 13.125 C 6.316406 11.382812 7.742188 10 9.5 10 C 11.257812 10 12.683594 11.382812 12.746094 13.125 C 12.75 13.082031 12.75 13.042969 12.75 13 C 12.75 11.199219 11.300781 9.75 9.5 9.75 Z M 9.5 9.75 "/>
<path style=" stroke:none;fill-rule:nonzero;fill:rgb(100%,100%,100%);fill-opacity:0.8;" d="M 9.5 9.75 C 7.699219 9.75 6.25 11.199219 6.25 13 C 6.25 13.042969 6.25 13.082031 6.25 13.125 C 6.316406 11.382812 7.742188 10 9.5 10 C 11.257812 10 12.683594 11.382812 12.746094 13.125 C 12.75 13.082031 12.75 13.042969 12.75 13 C 12.75 11.199219 11.300781 9.75 9.5 9.75 Z M 9.5 9.75 "/>
<path style=" stroke:none;fill-rule:nonzero;fill:rgb(0%,0%,0%);fill-opacity:0.4;" d="M 9.5 16.5 C 7.699219 16.5 6.25 15.050781 6.25 13.25 C 6.25 13.207031 6.25 13.167969 6.25 13.125 C 6.316406 14.867188 7.742188 16.25 9.5 16.25 C 11.257812 16.25 12.683594 14.867188 12.746094 13.125 C 12.75 13.167969 12.75 13.207031 12.75 13.25 C 12.75 15.050781 11.300781 16.5 9.5 16.5 Z M 9.5 16.5 "/>
<path style=" stroke:none;fill-rule:nonzero;fill:rgb(74.117649%,74.117649%,74.117649%);fill-opacity:1;" d="M 22.75 10.25 C 21.226562 10.25 20 11.476562 20 13 C 20 14.523438 21.226562 15.75 22.75 15.75 C 24.273438 15.75 25.5 14.523438 25.5 13 C 25.5 11.476562 24.273438 10.25 22.75 10.25 Z M 22.75 10.75 C 22.976562 10.75 23.191406 10.78125 23.398438 10.84375 L 23.179688 11.5625 C 23.40625 11.628906 23.613281 11.75 23.78125 11.90625 L 24.292969 11.363281 C 24.449219 11.507812 24.585938 11.679688 24.699219 11.875 C 24.8125 12.070312 24.890625 12.273438 24.941406 12.480469 L 24.210938 12.65625 C 24.238281 12.765625 24.25 12.882812 24.25 13 C 24.25 13.117188 24.238281 13.234375 24.210938 13.34375 L 24.941406 13.519531 C 24.890625 13.726562 24.8125 13.929688 24.699219 14.125 C 24.585938 14.320312 24.449219 14.492188 24.292969 14.636719 L 23.78125 14.09375 C 23.613281 14.25 23.40625 14.371094 23.179688 14.4375 L 23.398438 15.15625 C 23.191406 15.21875 22.976562 15.25 22.75 15.25 C 22.523438 15.25 22.308594 15.21875 22.101562 15.15625 L 22.320312 14.4375 C 22.09375 14.371094 21.886719 14.25 21.71875 14.09375 L 21.207031 14.636719 C 21.050781 14.492188 20.914062 14.320312 20.800781 14.125 C 20.6875 13.929688 20.609375 13.726562 20.558594 13.519531 L 21.289062 13.34375 C 21.261719 13.234375 21.25 13.117188 21.25 13 C 21.25 12.882812 21.261719 12.765625 21.289062 12.65625 L 20.558594 12.480469 C 20.609375 12.273438 20.6875 12.070312 20.800781 11.875 C 20.914062 11.679688 21.050781 11.507812 21.207031 11.363281 L 21.71875 11.90625 C 21.886719 11.75 22.09375 11.628906 22.320312 11.5625 L 22.101562 10.84375 C 22.308594 10.78125 22.523438 10.75 22.75 10.75 Z M 22.75 10.75 "/>
<path style=" stroke:none;fill-rule:nonzero;fill:rgb(0%,0%,0%);fill-opacity:0.4;" d="M 22.75 10.25 C 21.226562 10.25 20 11.476562 20 13 C 20 13.042969 20 13.082031 20.003906 13.125 C 20.066406 11.660156 21.269531 10.5 22.75 10.5 C 24.230469 10.5 25.433594 11.660156 25.496094 13.125 C 25.5 13.082031 25.5 13.042969 25.5 13 C 25.5 11.476562 24.273438 10.25 22.75 10.25 Z M 22.75 10.25 "/>
<path style=" stroke:none;fill-rule:nonzero;fill:rgb(99.607843%,99.607843%,99.607843%);fill-opacity:0.4;" d="M 22.75 16 C 21.226562 16 20 14.773438 20 13.25 C 20 13.207031 20 13.167969 20.003906 13.125 C 20.066406 14.589844 21.269531 15.75 22.75 15.75 C 24.230469 15.75 25.433594 14.589844 25.496094 13.125 C 25.5 13.167969 25.5 13.207031 25.5 13.25 C 25.5 14.773438 24.273438 16 22.75 16 Z M 22.75 16 "/>
<path style=" stroke:none;fill-rule:nonzero;fill:rgb(100%,100%,100%);fill-opacity:0.8;" d="M 22.75 9.75 C 20.949219 9.75 19.5 11.199219 19.5 13 C 19.5 13.042969 19.5 13.082031 19.5 13.125 C 19.566406 11.382812 20.992188 10 22.75 10 C 24.507812 10 25.933594 11.382812 25.996094 13.125 C 26 13.082031 26 13.042969 26 13 C 26 11.199219 24.550781 9.75 22.75 9.75 Z M 22.75 9.75 "/>
<path style=" stroke:none;fill-rule:nonzero;fill:rgb(100%,100%,100%);fill-opacity:0.8;" d="M 22.75 9.75 C 20.949219 9.75 19.5 11.199219 19.5 13 C 19.5 13.042969 19.5 13.082031 19.5 13.125 C 19.566406 11.382812 20.992188 10 22.75 10 C 24.507812 10 25.933594 11.382812 25.996094 13.125 C 26 13.082031 26 13.042969 26 13 C 26 11.199219 24.550781 9.75 22.75 9.75 Z M 22.75 9.75 "/>
<path style=" stroke:none;fill-rule:nonzero;fill:rgb(0%,0%,0%);fill-opacity:0.4;" d="M 22.75 16.5 C 20.949219 16.5 19.5 15.050781 19.5 13.25 C 19.5 13.207031 19.5 13.167969 19.5 13.125 C 19.566406 14.867188 20.992188 16.25 22.75 16.25 C 24.507812 16.25 25.933594 14.867188 25.996094 13.125 C 26 13.167969 26 13.207031 26 13.25 C 26 15.050781 24.550781 16.5 22.75 16.5 Z M 22.75 16.5 "/>
<path style=" stroke:none;fill-rule:nonzero;fill:rgb(0%,0%,0%);fill-opacity:0.4;" d="M 9.5 9.25 C 7.421875 9.25 5.75 10.921875 5.75 13 C 5.75 13.082031 5.753906 13.164062 5.757812 13.25 C 5.886719 11.289062 7.507812 9.746094 9.5 9.746094 L 22.75 9.746094 C 24.742188 9.746094 26.363281 11.289062 26.492188 13.25 C 26.496094 13.164062 26.5 13.082031 26.5 13 C 26.5 10.921875 24.828125 9.25 22.75 9.25 Z M 9.5 9.25 "/>
<path style=" stroke:none;fill-rule:nonzero;fill:rgb(0%,0%,0%);fill-opacity:0.4;" d="M 22.75 10.75 C 22.523438 10.75 22.308594 10.78125 22.101562 10.84375 L 22.171875 11.074219 C 22.355469 11.027344 22.550781 11 22.75 11 C 22.949219 11 23.144531 11.027344 23.328125 11.074219 L 23.398438 10.84375 C 23.191406 10.78125 22.976562 10.75 22.75 10.75 Z M 21.207031 11.363281 C 21.050781 11.507812 20.914062 11.679688 20.800781 11.875 C 20.6875 12.070312 20.609375 12.273438 20.558594 12.480469 L 20.628906 12.5 C 20.675781 12.371094 20.730469 12.246094 20.800781 12.125 C 20.914062 11.929688 21.050781 11.757812 21.207031 11.613281 L 21.71875 12.15625 C 21.886719 12 22.09375 11.878906 22.320312 11.8125 L 22.25 11.585938 C 22.050781 11.65625 21.871094 11.765625 21.71875 11.90625 Z M 24.292969 11.363281 L 23.78125 11.90625 C 23.628906 11.765625 23.449219 11.65625 23.25 11.585938 L 23.179688 11.8125 C 23.40625 11.878906 23.613281 12 23.78125 12.15625 L 24.292969 11.613281 C 24.449219 11.757812 24.585938 11.929688 24.699219 12.125 C 24.769531 12.246094 24.824219 12.371094 24.871094 12.5 L 24.941406 12.480469 C 24.890625 12.273438 24.8125 12.070312 24.699219 11.875 C 24.585938 11.679688 24.449219 11.507812 24.292969 11.363281 Z M 21.253906 12.894531 C 21.25 12.929688 21.25 12.964844 21.25 13 C 21.25 13.042969 21.25 13.082031 21.253906 13.125 C 21.261719 13.050781 21.273438 12.976562 21.289062 12.90625 Z M 24.246094 12.894531 L 24.210938 12.90625 C 24.226562 12.976562 24.238281 13.050781 24.246094 13.125 C 24.25 13.082031 24.25 13.042969 24.25 13 C 24.25 12.964844 24.25 12.929688 24.246094 12.894531 Z M 21.253906 13.355469 L 20.558594 13.519531 C 20.578125 13.597656 20.601562 13.675781 20.628906 13.75 L 21.289062 13.59375 C 21.269531 13.515625 21.257812 13.4375 21.253906 13.355469 Z M 24.246094 13.355469 C 24.242188 13.4375 24.230469 13.515625 24.210938 13.59375 L 24.871094 13.75 C 24.898438 13.675781 24.921875 13.597656 24.941406 13.519531 Z M 22.25 14.664062 L 22.101562 15.15625 C 22.125 15.164062 22.148438 15.167969 22.171875 15.175781 L 22.320312 14.6875 C 22.296875 14.679688 22.273438 14.675781 22.25 14.664062 Z M 23.25 14.664062 C 23.226562 14.675781 23.203125 14.679688 23.179688 14.6875 L 23.328125 15.175781 C 23.351562 15.167969 23.375 15.164062 23.398438 15.15625 Z M 23.25 14.664062 "/>
<path style=" stroke:none;fill-rule:nonzero;fill:rgb(100%,100%,100%);fill-opacity:0.4;" d="M 22.171875 11.074219 C 22.148438 11.082031 22.125 11.085938 22.101562 11.09375 L 22.25 11.585938 C 22.273438 11.578125 22.296875 11.570312 22.320312 11.5625 Z M 23.328125 11.074219 L 23.179688 11.5625 C 23.203125 11.570312 23.226562 11.578125 23.25 11.585938 L 23.398438 11.09375 C 23.375 11.085938 23.351562 11.082031 23.328125 11.074219 Z M 20.628906 12.5 C 20.601562 12.574219 20.578125 12.652344 20.558594 12.730469 L 21.253906 12.894531 C 21.257812 12.8125 21.269531 12.734375 21.289062 12.65625 Z M 24.871094 12.5 L 24.210938 12.65625 C 24.230469 12.734375 24.242188 12.8125 24.246094 12.894531 L 24.941406 12.730469 C 24.921875 12.652344 24.898438 12.574219 24.871094 12.5 Z M 21.253906 13.125 C 21.25 13.167969 21.25 13.207031 21.25 13.25 C 21.25 13.285156 21.25 13.320312 21.253906 13.355469 L 21.289062 13.34375 C 21.273438 13.273438 21.261719 13.199219 21.253906 13.125 Z M 24.246094 13.125 C 24.238281 13.199219 24.226562 13.273438 24.210938 13.34375 L 24.246094 13.355469 C 24.25 13.320312 24.25 13.285156 24.25 13.25 C 24.25 13.207031 24.25 13.167969 24.246094 13.125 Z M 20.628906 13.75 L 20.558594 13.769531 C 20.609375 13.976562 20.6875 14.179688 20.800781 14.375 C 20.914062 14.570312 21.050781 14.742188 21.207031 14.886719 L 21.71875 14.34375 C 21.871094 14.484375 22.050781 14.597656 22.25 14.664062 L 22.320312 14.4375 C 22.09375 14.371094 21.886719 14.25 21.71875 14.09375 L 21.207031 14.636719 C 21.050781 14.492188 20.914062 14.320312 20.800781 14.125 C 20.730469 14.003906 20.675781 13.878906 20.628906 13.75 Z M 24.871094 13.75 C 24.824219 13.878906 24.769531 14.003906 24.699219 14.125 C 24.585938 14.320312 24.449219 14.492188 24.292969 14.636719 L 23.78125 14.09375 C 23.613281 14.25 23.40625 14.371094 23.179688 14.4375 L 23.25 14.664062 C 23.449219 14.597656 23.628906 14.484375 23.78125 14.34375 L 24.292969 14.886719 C 24.449219 14.742188 24.585938 14.570312 24.699219 14.375 C 24.8125 14.179688 24.890625 13.976562 24.941406 13.769531 Z M 22.171875 15.175781 L 22.101562 15.40625 C 22.308594 15.46875 22.523438 15.5 22.75 15.5 C 22.976562 15.5 23.191406 15.46875 23.398438 15.40625 L 23.328125 15.175781 C 23.144531 15.222656 22.949219 15.25 22.75 15.25 C 22.550781 15.25 22.355469 15.222656 22.171875 15.175781 Z M 22.171875 15.175781 "/>
<path style=" stroke:none;fill-rule:nonzero;fill:rgb(0%,0%,0%);fill-opacity:0.4;" d="M 9.5 10.75 C 9.273438 10.75 9.058594 10.78125 8.855469 10.84375 L 8.921875 11.074219 C 9.105469 11.027344 9.300781 11 9.5 11 C 9.699219 11 9.894531 11.027344 10.078125 11.074219 L 10.148438 10.84375 C 9.941406 10.78125 9.726562 10.75 9.5 10.75 Z M 7.957031 11.363281 C 7.800781 11.507812 7.664062 11.679688 7.550781 11.875 C 7.4375 12.070312 7.359375 12.273438 7.308594 12.480469 L 7.378906 12.5 C 7.425781 12.371094 7.480469 12.246094 7.550781 12.125 C 7.664062 11.929688 7.800781 11.757812 7.957031 11.613281 L 8.46875 12.15625 C 8.636719 12 8.84375 11.878906 9.070312 11.8125 L 9 11.585938 C 8.800781 11.65625 8.621094 11.765625 8.46875 11.90625 Z M 11.042969 11.363281 L 10.53125 11.90625 C 10.378906 11.765625 10.199219 11.65625 10 11.585938 L 9.929688 11.8125 C 10.15625 11.878906 10.363281 12 10.53125 12.15625 L 11.042969 11.613281 C 11.199219 11.757812 11.335938 11.929688 11.449219 12.125 C 11.519531 12.246094 11.574219 12.371094 11.621094 12.5 L 11.691406 12.480469 C 11.640625 12.273438 11.5625 12.070312 11.449219 11.875 C 11.335938 11.679688 11.199219 11.507812 11.042969 11.363281 Z M 8.003906 12.894531 C 8 12.929688 8 12.964844 8 13 C 8 13.042969 8 13.082031 8.003906 13.125 C 8.011719 13.050781 8.023438 12.976562 8.039062 12.902344 Z M 10.996094 12.894531 L 10.960938 12.90625 C 10.976562 12.976562 10.988281 13.050781 10.996094 13.125 C 11 13.085938 11 13.042969 11 13 C 11 12.964844 11 12.929688 10.996094 12.894531 Z M 8.003906 13.355469 L 7.308594 13.519531 C 7.328125 13.597656 7.351562 13.675781 7.378906 13.75 L 8.039062 13.59375 C 8.019531 13.515625 8.007812 13.4375 8.003906 13.355469 Z M 10.996094 13.355469 C 10.992188 13.4375 10.980469 13.515625 10.960938 13.59375 L 11.621094 13.753906 C 11.648438 13.675781 11.671875 13.597656 11.691406 13.519531 Z M 9 14.667969 L 8.855469 15.15625 C 8.875 15.164062 8.898438 15.167969 8.921875 15.175781 L 9.070312 14.6875 C 9.046875 14.679688 9.023438 14.675781 9 14.664062 Z M 10 14.667969 C 9.976562 14.671875 9.953125 14.679688 9.929688 14.6875 L 10.078125 15.175781 C 10.101562 15.171875 10.125 15.164062 10.148438 15.15625 Z M 10 14.667969 "/>
<path style=" stroke:none;fill-rule:nonzero;fill:rgb(100%,100%,100%);fill-opacity:0.4;" d="M 8.921875 11.074219 C 8.898438 11.078125 8.875 11.085938 8.855469 11.09375 L 9 11.585938 C 9.023438 11.578125 9.046875 11.570312 9.070312 11.5625 Z M 10.078125 11.074219 L 9.929688 11.5625 C 9.953125 11.570312 9.976562 11.578125 10 11.585938 L 10.148438 11.09375 C 10.125 11.085938 10.101562 11.082031 10.078125 11.074219 Z M 7.378906 12.5 C 7.351562 12.574219 7.328125 12.652344 7.308594 12.730469 L 8.003906 12.894531 C 8.007812 12.8125 8.019531 12.730469 8.039062 12.652344 Z M 11.621094 12.5 L 10.960938 12.65625 C 10.980469 12.734375 10.992188 12.8125 10.996094 12.894531 L 11.691406 12.730469 C 11.671875 12.652344 11.648438 12.574219 11.621094 12.5 Z M 8.003906 13.125 C 8 13.167969 8 13.207031 8 13.25 C 8 13.285156 8 13.320312 8.003906 13.355469 L 8.039062 13.34375 C 8.023438 13.273438 8.011719 13.199219 8.003906 13.125 Z M 10.996094 13.125 C 10.988281 13.199219 10.976562 13.273438 10.960938 13.34375 L 10.996094 13.355469 C 11 13.320312 11 13.285156 11 13.25 C 11 13.207031 11 13.167969 10.996094 13.125 Z M 7.378906 13.753906 L 7.308594 13.769531 C 7.359375 13.976562 7.4375 14.179688 7.550781 14.375 C 7.664062 14.570312 7.800781 14.742188 7.957031 14.886719 L 8.46875 14.34375 C 8.621094 14.484375 8.800781 14.597656 9 14.667969 L 9.070312 14.4375 C 8.84375 14.371094 8.636719 14.25 8.46875 14.09375 L 7.957031 14.636719 C 7.800781 14.492188 7.664062 14.320312 7.550781 14.125 C 7.480469 14.003906 7.425781 13.878906 7.378906 13.753906 Z M 11.621094 13.753906 C 11.574219 13.878906 11.519531 14.003906 11.449219 14.125 C 11.335938 14.320312 11.199219 14.492188 11.042969 14.636719 L 10.53125 14.09375 C 10.363281 14.25 10.15625 14.371094 9.929688 14.4375 L 10 14.667969 C 10.199219 14.597656 10.378906 14.484375 10.53125 14.34375 L 11.042969 14.886719 C 11.199219 14.742188 11.335938 14.570312 11.449219 14.375 C 11.5625 14.179688 11.640625 13.976562 11.691406 13.769531 Z M 8.921875 15.175781 L 8.855469 15.40625 C 9.058594 15.46875 9.273438 15.5 9.5 15.5 C 9.726562 15.5 9.941406 15.46875 10.148438 15.40625 L 10.078125 15.175781 C 9.894531 15.222656 9.699219 15.25 9.5 15.25 C 9.300781 15.25 9.105469 15.222656 8.921875 15.175781 Z M 8.921875 15.175781 "/>
<path style=" stroke:none;fill-rule:nonzero;fill:rgb(100%,100%,100%);fill-opacity:0.4;" d="M 5.527344 13.960938 C 5.753906 15.960938 7.441406 17.503906 9.5 17.503906 L 22.75 17.503906 C 24.808594 17.503906 26.492188 15.964844 26.71875 13.96875 L 26.625 13.96875 C 26.253906 15.46875 25.042969 16.632812 23.511719 16.925781 C 23.265625 16.976562 23.011719 17.003906 22.75 17.003906 L 9.5 17.003906 C 9.238281 17.003906 8.984375 16.976562 8.738281 16.925781 C 7.207031 16.632812 5.996094 15.46875 5.625 13.964844 C 5.59375 13.964844 5.558594 13.964844 5.527344 13.960938 Z M 5.527344 13.960938 "/>
<path style=" stroke:none;fill-rule:nonzero;fill:url(#linear0);" d="M 4 5 L 28 5 C 29.105469 5 30 5.894531 30 7 L 30 24 C 30 25.105469 29.105469 26 28 26 L 4 26 C 2.894531 26 2 25.105469 2 24 L 2 7 C 2 5.894531 2.894531 5 4 5 Z M 4 5 "/>
<path style=" stroke:none;fill-rule:nonzero;fill:rgb(87.843138%,87.843138%,87.843138%);fill-opacity:1;" d="M 3 10 L 3 16 L 6.851562 16 C 6.023438 15.269531 5.5 14.199219 5.5 13 C 5.5 11.800781 6.023438 10.730469 6.851562 10 Z M 25.398438 10 C 26.226562 10.730469 26.75 11.800781 26.75 13 C 26.75 14.199219 26.226562 15.269531 25.398438 16 L 29 16 L 29 10 Z M 25.398438 10 "/>
</g>
</svg>
