
<svg xmlns="http://www.w3.org/2000/svg" xmlns:xlink="http://www.w3.org/1999/xlink" width="64" height="64" viewBox="0 0 64 64" version="1.1">
<defs>
<linearGradient id="linear0" gradientUnits="userSpaceOnUse" x1="8.466666" y1="-199.125" x2="8.466666" y2="-213.941666" gradientTransform="matrix(3.779528,0,0,3.779528,0,812.598468)">
<stop offset="0" style="stop-color:rgb(0%,0%,0%);stop-opacity:0.2;"/>
<stop offset="1" style="stop-color:rgb(100%,100%,100%);stop-opacity:0;"/>
</linearGradient>
</defs>
<g id="surface1">
<path style=" stroke:none;fill-rule:nonzero;fill:rgb(47.058824%,56.470591%,61.176473%);fill-opacity:0.996078;" d="M 14 4 L 50 4 C 52.210938 4 54 5.789062 54 8 L 54 56 C 54 58.210938 52.210938 60 50 60 L 14 60 C 11.789062 60 10 58.210938 10 56 L 10 8 C 10 5.789062 11.789062 4 14 4 Z M 14 4 "/>
<path style=" stroke:none;fill-rule:nonzero;fill:rgb(100%,100%,100%);fill-opacity:0.4;" d="M 14 4 C 11.785156 4 10 5.785156 10 8 L 10 9 C 10 6.785156 11.785156 5 14 5 L 50 5 C 52.214844 5 54 6.785156 54 9 L 54 8 C 54 5.785156 52.214844 4 50 4 Z M 14 4 "/>
<path style=" stroke:none;fill-rule:nonzero;fill:rgb(1.568628%,1.568628%,1.568628%);fill-opacity:0.4;" d="M 14 60 C 11.785156 60 10 58.214844 10 56 L 10 55 C 10 57.214844 11.785156 59 14 59 L 50 59 C 52.214844 59 54 57.214844 54 55 L 54 56 C 54 58.214844 52.214844 60 50 60 Z M 14 60 "/>
<path style=" stroke:none;fill-rule:nonzero;fill:rgb(1.568628%,1.568628%,1.568628%);fill-opacity:0.2;" d="M 10 56 L 10 57.5 C 10 59.714844 11.785156 61.5 14 61.5 L 50 61.5 C 52.214844 61.5 54 59.714844 54 57.5 L 54 56 C 54 58.214844 52.214844 60 50 60 L 14 60 C 11.785156 60 10 58.214844 10 56 Z M 10 56 "/>
<path style=" stroke:none;fill-rule:nonzero;fill:rgb(69.01961%,74.509805%,77.254903%);fill-opacity:0.996078;" d="M 32 14 C 29.507812 14 27.5 16.007812 27.5 18.5 C 27.5 20.992188 29.507812 23 32 23 C 34.492188 23 36.5 20.992188 36.5 18.5 C 36.5 16.007812 34.492188 14 32 14 Z M 32 24 C 27.566406 24 24 25.785156 24 28 L 24 32 C 24 33.109375 24.890625 34 26 34 L 38 34 C 39.109375 34 40 33.109375 40 32 L 40 28 C 40 25.785156 36.433594 24 32 24 Z M 14.5 38 C 14.222656 38 14 38.199219 14 38.441406 L 14 39.558594 C 14 39.800781 14.222656 40 14.5 40 L 29.5 40 C 29.777344 40 30 39.800781 30 39.558594 L 30 38.441406 C 30 38.199219 29.777344 38 29.5 38 Z M 34.5 38 C 34.222656 38 34 38.199219 34 38.441406 L 34 39.558594 C 34 39.800781 34.222656 40 34.5 40 L 49.5 40 C 49.777344 40 50 39.800781 50 39.558594 L 50 38.441406 C 50 38.199219 49.777344 38 49.5 38 Z M 14.5 42 C 14.222656 42 14 42.199219 14 42.441406 L 14 43.558594 C 14 43.800781 14.222656 44 14.5 44 L 29.5 44 C 29.777344 44 30 43.800781 30 43.558594 L 30 42.441406 C 30 42.199219 29.777344 42 29.5 42 Z M 34.5 42 C 34.222656 42 34 42.199219 34 42.441406 L 34 43.558594 C 34 43.800781 34.222656 44 34.5 44 L 49.5 44 C 49.777344 44 50 43.800781 50 43.558594 L 50 42.441406 C 50 42.199219 49.777344 42 49.5 42 Z M 14.5 46 C 14.222656 46 14 46.199219 14 46.441406 L 14 47.558594 C 14 47.800781 14.222656 48 14.5 48 L 29.5 48 C 29.777344 48 30 47.800781 30 47.558594 L 30 46.441406 C 30 46.199219 29.777344 46 29.5 46 Z M 34.5 46 C 34.222656 46 34 46.199219 34 46.441406 L 34 47.558594 C 34 47.800781 34.222656 48 34.5 48 L 49.5 48 C 49.777344 48 50 47.800781 50 47.558594 L 50 46.441406 C 50 46.199219 49.777344 46 49.5 46 Z M 34.5 46 "/>
<path style=" stroke:none;fill-rule:nonzero;fill:rgb(100%,100%,100%);fill-opacity:0.4;" d="M 32 14 C 29.507812 14 27.5 16.007812 27.5 18.5 C 27.5 18.570312 27.507812 18.636719 27.511719 18.707031 C 27.660156 16.351562 29.605469 14.5 32 14.5 C 34.394531 14.5 36.339844 16.351562 36.488281 18.707031 C 36.492188 18.636719 36.5 18.570312 36.5 18.5 C 36.5 16.007812 34.492188 14 32 14 Z M 32 24 C 27.566406 24 24 25.785156 24 28 L 24 28.5 C 24 26.285156 27.566406 24.5 32 24.5 C 36.433594 24.5 40 26.285156 40 28.5 L 40 28 C 40 25.785156 36.433594 24 32 24 Z M 14.5 38 C 14.222656 38 14 38.199219 14 38.441406 L 14 38.941406 C 14 38.699219 14.222656 38.5 14.5 38.5 L 29.5 38.5 C 29.777344 38.5 30 38.699219 30 38.941406 L 30 38.441406 C 30 38.199219 29.777344 38 29.5 38 Z M 34.5 38 C 34.222656 38 34 38.199219 34 38.441406 L 34 38.941406 C 34 38.699219 34.222656 38.5 34.5 38.5 L 49.5 38.5 C 49.777344 38.5 50 38.699219 50 38.941406 L 50 38.441406 C 50 38.199219 49.777344 38 49.5 38 Z M 14.5 42 C 14.222656 42 14 42.199219 14 42.441406 L 14 42.941406 C 14 42.699219 14.222656 42.5 14.5 42.5 L 29.5 42.5 C 29.777344 42.5 30 42.699219 30 42.941406 L 30 42.441406 C 30 42.199219 29.777344 42 29.5 42 Z M 34.5 42 C 34.222656 42 34 42.199219 34 42.441406 L 34 42.941406 C 34 42.699219 34.222656 42.5 34.5 42.5 L 49.5 42.5 C 49.777344 42.5 50 42.699219 50 42.941406 L 50 42.441406 C 50 42.199219 49.777344 42 49.5 42 Z M 14.5 46 C 14.222656 46 14 46.199219 14 46.441406 L 14 46.941406 C 14 46.699219 14.222656 46.5 14.5 46.5 L 29.5 46.5 C 29.777344 46.5 30 46.699219 30 46.941406 L 30 46.441406 C 30 46.199219 29.777344 46 29.5 46 Z M 34.5 46 C 34.222656 46 34 46.199219 34 46.441406 L 34 46.941406 C 34 46.699219 34.222656 46.5 34.5 46.5 L 49.5 46.5 C 49.777344 46.5 50 46.699219 50 46.941406 L 50 46.441406 C 50 46.199219 49.777344 46 49.5 46 Z M 34.5 46 "/>
<path style=" stroke:none;fill-rule:nonzero;fill:rgb(0%,0%,0%);fill-opacity:0.4;" d="M 27.507812 18.75 C 27.503906 18.832031 27.5 18.917969 27.5 19 C 27.5 21.492188 29.507812 23.5 32 23.5 C 34.492188 23.5 36.5 21.492188 36.5 19 C 36.5 18.917969 36.496094 18.832031 36.492188 18.75 C 36.363281 21.125 34.410156 23 32 23 C 29.589844 23 27.636719 21.125 27.507812 18.75 Z M 24 32 L 24 32.5 C 24 33.609375 24.890625 34.5 26 34.5 L 38 34.5 C 39.109375 34.5 40 33.609375 40 32.5 L 40 32 C 40 33.109375 39.109375 34 38 34 L 26 34 C 24.890625 34 24 33.109375 24 32 Z M 14 39.558594 L 14 40.058594 C 14 40.300781 14.222656 40.5 14.5 40.5 L 29.5 40.5 C 29.777344 40.5 30 40.300781 30 40.058594 L 30 39.558594 C 30 39.800781 29.777344 40 29.5 40 L 14.5 40 C 14.222656 40 14 39.800781 14 39.558594 Z M 34 39.558594 L 34 40.058594 C 34 40.300781 34.222656 40.5 34.5 40.5 L 49.5 40.5 C 49.777344 40.5 50 40.300781 50 40.058594 L 50 39.558594 C 50 39.800781 49.777344 40 49.5 40 L 34.5 40 C 34.222656 40 34 39.800781 34 39.558594 Z M 14 43.558594 L 14 44.058594 C 14 44.300781 14.222656 44.5 14.5 44.5 L 29.5 44.5 C 29.777344 44.5 30 44.300781 30 44.058594 L 30 43.558594 C 30 43.800781 29.777344 44 29.5 44 L 14.5 44 C 14.222656 44 14 43.800781 14 43.558594 Z M 34 43.558594 L 34 44.058594 C 34 44.300781 34.222656 44.5 34.5 44.5 L 49.5 44.5 C 49.777344 44.5 50 44.300781 50 44.058594 L 50 43.558594 C 50 43.800781 49.777344 44 49.5 44 L 34.5 44 C 34.222656 44 34 43.800781 34 43.558594 Z M 14 47.558594 L 14 48.058594 C 14 48.300781 14.222656 48.5 14.5 48.5 L 29.5 48.5 C 29.777344 48.5 30 48.300781 30 48.058594 L 30 47.558594 C 30 47.800781 29.777344 48 29.5 48 L 14.5 48 C 14.222656 48 14 47.800781 14 47.558594 Z M 34 47.558594 L 34 48.058594 C 34 48.300781 34.222656 48.5 34.5 48.5 L 49.5 48.5 C 49.777344 48.5 50 48.300781 50 48.058594 L 50 47.558594 C 50 47.800781 49.777344 48 49.5 48 L 34.5 48 C 34.222656 48 34 47.800781 34 47.558594 Z M 34 47.558594 "/>
<path style=" stroke:none;fill-rule:nonzero;fill:url(#linear0);" d="M 14 4 L 50 4 C 52.210938 4 54 5.789062 54 8 L 54 56 C 54 58.210938 52.210938 60 50 60 L 14 60 C 11.789062 60 10 58.210938 10 56 L 10 8 C 10 5.789062 11.789062 4 14 4 Z M 14 4 "/>
</g>
</svg>
