
<svg xmlns="http://www.w3.org/2000/svg" xmlns:xlink="http://www.w3.org/1999/xlink" width="24" height="24" viewBox="0 0 24 24" version="1.1">
<defs>
<linearGradient id="linear0" gradientUnits="userSpaceOnUse" x1="10.054166" y1="-209.708328" x2="10.054166" y2="-212.883331" gradientTransform="matrix(1.417323,0,0,1.417323,0,304.724425)">
<stop offset="0" style="stop-color:rgb(0%,0%,0%);stop-opacity:0.2;"/>
<stop offset="1" style="stop-color:rgb(100%,100%,100%);stop-opacity:0;"/>
</linearGradient>
<linearGradient id="linear1" gradientUnits="userSpaceOnUse" x1="8.995832" y1="-200.183334" x2="8.995832" y2="-211.824997" gradientTransform="matrix(1.417323,0,0,1.417323,0,304.724425)">
<stop offset="0" style="stop-color:rgb(0%,0%,0%);stop-opacity:0.2;"/>
<stop offset="1" style="stop-color:rgb(100%,100%,100%);stop-opacity:0;"/>
</linearGradient>
</defs>
<g id="surface1">
<path style=" stroke:none;fill-rule:nonzero;fill:rgb(55.29412%,43.137255%,38.82353%);fill-opacity:0.996078;" d="M 7.5 3 L 21 3 C 21.828125 3 22.5 3.671875 22.5 4.5 L 22.5 9 C 22.5 9.828125 21.828125 10.5 21 10.5 L 7.5 10.5 C 6.671875 10.5 6 9.828125 6 9 L 6 4.5 C 6 3.671875 6.671875 3 7.5 3 Z M 7.5 3 "/>
<path style=" stroke:none;fill-rule:nonzero;fill:url(#linear0);" d="M 7.5 3 L 21 3 C 21.828125 3 22.5 3.671875 22.5 4.5 L 22.5 9 C 22.5 9.828125 21.828125 10.5 21 10.5 L 7.5 10.5 C 6.671875 10.5 6 9.828125 6 9 L 6 4.5 C 6 3.671875 6.671875 3 7.5 3 Z M 7.5 3 "/>
<path style=" stroke:none;fill-rule:nonzero;fill:rgb(73.725492%,66.666669%,64.313728%);fill-opacity:1;" d="M 3 4.5 C 2.167969 4.5 1.5 5.167969 1.5 6 L 1.5 19.5 C 1.5 20.332031 2.167969 21 3 21 L 21 21 C 21.832031 21 22.5 20.332031 22.5 19.5 L 22.5 7.5 L 7.5 7.5 C 6.667969 7.5 6 6.832031 6 6 L 6 4.5 Z M 3 4.5 "/>
<path style=" stroke:none;fill-rule:nonzero;fill:rgb(73.725492%,66.666669%,64.313728%);fill-opacity:1;" d="M 3 4.5 C 2.167969 4.5 1.5 5.167969 1.5 6 L 1.5 19.5 C 1.5 20.332031 2.167969 21 3 21 L 21 21 C 21.832031 21 22.5 20.332031 22.5 19.5 L 22.5 7.5 L 7.5 7.5 C 6.667969 7.5 6 6.832031 6 6 L 6 4.5 Z M 3 4.5 "/>
<path style=" stroke:none;fill-rule:nonzero;fill:rgb(0.392157%,0.392157%,0.392157%);fill-opacity:0.4;" d="M 3 20.996094 C 2.167969 20.996094 1.5 20.328125 1.5 19.496094 L 1.5 19.132812 C 1.5 19.964844 2.167969 20.632812 3 20.632812 L 21 20.632812 C 21.832031 20.632812 22.5 19.964844 22.5 19.132812 L 22.5 19.496094 C 22.5 20.328125 21.832031 20.996094 21 20.996094 Z M 3 20.996094 "/>
<path style=" stroke:none;fill-rule:nonzero;fill:rgb(0%,0%,0%);fill-opacity:0.2;" d="M 1.5 19.5 L 1.5 20.0625 C 1.5 20.894531 2.167969 21.5625 3 21.5625 L 21 21.5625 C 21.832031 21.5625 22.5 20.894531 22.5 20.0625 L 22.5 19.5 C 22.5 20.332031 21.832031 21 21 21 L 3 21 C 2.167969 21 1.5 20.332031 1.5 19.5 Z M 1.5 19.5 "/>
<path style=" stroke:none;fill-rule:nonzero;fill:rgb(100%,100%,100%);fill-opacity:0.4;" d="M 3 4.5 C 2.167969 4.5 1.5 5.167969 1.5 6 L 1.5 6.375 C 1.5 5.542969 2.167969 4.875 3 4.875 L 6 4.875 L 6 4.5 Z M 6 6 L 6 6.375 C 6 7.207031 6.667969 7.875 7.5 7.875 L 22.5 7.875 L 22.5 7.5 L 7.5 7.5 C 6.667969 7.5 6 6.832031 6 6 Z M 6 6 "/>
<path style=" stroke:none;fill-rule:nonzero;fill:url(#linear1);" d="M 3 4.5 C 2.167969 4.5 1.5 5.167969 1.5 6 L 1.5 19.5 C 1.5 20.332031 2.167969 21 3 21 L 21 21 C 21.832031 21 22.5 20.332031 22.5 19.5 L 22.5 7.5 L 7.5 7.5 C 6.667969 7.5 6 6.832031 6 6 L 6 4.5 Z M 3 4.5 "/>
<path style=" stroke:none;fill-rule:nonzero;fill:rgb(100%,100%,100%);fill-opacity:0.4;" d="M 7.5 3 C 6.667969 3 6 3.667969 6 4.5 L 6 4.6875 C 6 3.855469 6.667969 3.1875 7.5 3.1875 L 21 3.1875 C 21.832031 3.1875 22.5 3.855469 22.5 4.6875 L 22.5 4.5 C 22.5 3.667969 21.832031 3 21 3 Z M 7.5 3 "/>
</g>
</svg>
