
<svg xmlns="http://www.w3.org/2000/svg" xmlns:xlink="http://www.w3.org/1999/xlink" width="64" height="64" viewBox="0 0 64 64" version="1.1">
<defs>
<linearGradient id="linear0" gradientUnits="userSpaceOnUse" x1="31.999998" y1="60" x2="31.999998" y2="4" gradientTransform="matrix(1,0,0,1,-0.00000272126,0)">
<stop offset="0" style="stop-color:rgb(0%,0%,0%);stop-opacity:0.2;"/>
<stop offset="1" style="stop-color:rgb(100%,100%,100%);stop-opacity:0;"/>
</linearGradient>
</defs>
<g id="surface1">
<path style=" stroke:none;fill-rule:nonzero;fill:rgb(92.54902%,25.098041%,47.843137%);fill-opacity:1;" d="M 40 4 L 13 4 C 11.339844 4 10 5.339844 10 7 L 10 57 C 10 58.660156 11.339844 60 13 60 L 51 60 C 52.660156 60 54 58.660156 54 57 L 54 18 Z M 40 4 "/>
<path style=" stroke:none;fill-rule:nonzero;fill:rgb(0%,0%,0%);fill-opacity:0.4;" d="M 40 15 L 40 16 C 40 17.660156 41.339844 19 43 19 L 54 19 L 53 18 L 43 18 C 41.339844 18 40 16.660156 40 15 Z M 40 15 "/>
<path style=" stroke:none;fill-rule:nonzero;fill:rgb(94.117647%,38.431373%,57.254905%);fill-opacity:0.996078;" d="M 54 18 L 40 4 L 40 15 C 40 16.660156 41.339844 18 43 18 Z M 54 18 "/>
<path style=" stroke:none;fill-rule:nonzero;fill:rgb(100%,100%,100%);fill-opacity:0.4;" d="M 13 4 C 11.339844 4 10 5.339844 10 7 L 10 8 C 10 6.339844 11.339844 5 13 5 L 40 5 L 54 19 L 54 18 L 40 4 Z M 13 4 "/>
<path style=" stroke:none;fill-rule:nonzero;fill:rgb(0%,0%,0%);fill-opacity:0.2;" d="M 10 56.984375 L 10 58.5 C 10 60.164062 11.339844 61.5 13 61.5 L 51 61.5 C 52.660156 61.5 54 60.164062 54 58.5 L 54 56.984375 C 54 58.648438 52.660156 59.984375 51 59.984375 L 13 59.984375 C 11.339844 59.984375 10 58.648438 10 56.984375 Z M 10 56.984375 "/>
<path style=" stroke:none;fill-rule:nonzero;fill:rgb(0%,0%,0%);fill-opacity:0.4;" d="M 10 56.125 L 10 57 C 10 58.660156 11.339844 60 13 60 L 51 60 C 52.660156 60 54 58.660156 54 57 L 54 56.125 C 54 57.785156 52.660156 59.125 51 59.125 L 13 59.125 C 11.339844 59.125 10 57.785156 10 56.125 Z M 10 56.125 "/>
<path style=" stroke:none;fill-rule:nonzero;fill:rgb(95.686275%,56.078434%,69.411767%);fill-opacity:1;" d="M 44.105469 35.476562 C 43.125 35.488281 42.273438 35.707031 41.5625 36.042969 C 41.300781 35.546875 41.042969 35.113281 40.996094 34.789062 C 40.945312 34.414062 40.890625 34.1875 40.945312 33.738281 C 41.003906 33.289062 41.28125 32.65625 41.28125 32.601562 C 41.273438 32.554688 41.21875 32.324219 40.65625 32.320312 C 40.097656 32.3125 39.609375 32.421875 39.550781 32.5625 C 39.496094 32.707031 39.390625 33.03125 39.316406 33.363281 C 39.21875 33.851562 38.191406 35.585938 37.605469 36.5 C 37.410156 36.144531 37.253906 35.835938 37.214844 35.582031 C 37.167969 35.207031 37.109375 34.976562 37.167969 34.527344 C 37.230469 34.082031 37.503906 33.449219 37.503906 33.398438 C 37.492188 33.347656 37.441406 33.117188 36.875 33.113281 C 36.316406 33.105469 35.828125 33.214844 35.773438 33.355469 C 35.714844 33.5 35.65625 33.832031 35.539062 34.152344 C 35.425781 34.480469 34.054688 37.378906 33.699219 38.132812 C 33.523438 38.519531 33.359375 38.824219 33.246094 39.035156 C 33.132812 39.242188 33.242188 39.050781 33.230469 39.074219 C 33.132812 39.246094 33.078125 39.347656 33.078125 39.347656 L 33.078125 39.359375 C 33 39.492188 32.917969 39.613281 32.882812 39.613281 C 32.855469 39.613281 32.800781 39.265625 32.890625 38.785156 C 33.09375 37.78125 33.585938 36.210938 33.578125 36.15625 C 33.578125 36.128906 33.675781 35.855469 33.261719 35.710938 C 32.863281 35.570312 32.71875 35.804688 32.6875 35.804688 C 32.65625 35.804688 32.625 35.886719 32.625 35.886719 C 32.625 35.886719 33.070312 34.125 31.777344 34.125 C 30.96875 34.125 29.855469 34.957031 29.304688 35.722656 C 28.949219 35.910156 28.210938 36.292969 27.421875 36.707031 C 27.121094 36.863281 26.804688 37.027344 26.515625 37.179688 L 26.453125 37.117188 C 24.886719 35.523438 21.996094 34.402344 22.113281 32.265625 C 22.15625 31.488281 22.445312 29.4375 27.671875 26.960938 C 31.957031 24.921875 35.386719 25.480469 35.980469 26.722656 C 36.828125 28.496094 34.148438 31.789062 29.695312 32.265625 C 28 32.445312 27.105469 31.820312 26.882812 31.585938 C 26.652344 31.34375 26.613281 31.332031 26.527344 31.375 C 26.386719 31.453125 26.476562 31.667969 26.527344 31.800781 C 26.660156 32.128906 27.207031 32.710938 28.136719 33.003906 C 28.949219 33.261719 30.941406 33.398438 33.351562 32.511719 C 36.046875 31.515625 38.152344 28.753906 37.535156 26.449219 C 36.90625 24.097656 32.816406 23.328125 28.949219 24.632812 C 26.644531 25.414062 24.148438 26.636719 22.355469 28.234375 C 20.222656 30.132812 19.882812 31.789062 20.027344 32.480469 C 20.523438 34.933594 24.074219 36.53125 25.496094 37.71875 C 25.425781 37.753906 25.363281 37.792969 25.296875 37.820312 C 24.585938 38.15625 21.878906 39.503906 21.203125 40.933594 C 20.433594 42.546875 21.320312 43.714844 21.914062 43.867188 C 23.738281 44.351562 25.609375 43.480469 26.625 42.046875 C 27.628906 40.613281 27.507812 38.753906 27.042969 37.90625 L 27.027344 37.875 L 27.589844 37.5625 C 27.945312 37.359375 28.304688 37.167969 28.613281 37.007812 C 28.4375 37.460938 28.3125 38.003906 28.246094 38.78125 C 28.167969 39.699219 28.5625 40.882812 29.085938 41.355469 C 29.308594 41.5625 29.589844 41.566406 29.753906 41.566406 C 30.359375 41.566406 30.632812 41.089844 30.933594 40.523438 C 31.304688 39.832031 31.632812 39.023438 31.632812 39.023438 C 31.632812 39.023438 31.222656 41.199219 32.34375 41.199219 C 32.753906 41.199219 33.164062 40.695312 33.351562 40.433594 L 33.351562 40.445312 C 33.351562 40.445312 33.359375 40.429688 33.382812 40.390625 C 33.425781 40.332031 33.449219 40.292969 33.449219 40.292969 L 33.449219 40.285156 C 33.609375 40.011719 33.976562 39.390625 34.527344 38.363281 C 35.234375 37.039062 35.90625 35.382812 35.90625 35.382812 C 35.90625 35.382812 35.972656 35.789062 36.179688 36.453125 C 36.296875 36.851562 36.5625 37.289062 36.761719 37.710938 C 36.601562 37.929688 36.5 38.054688 36.5 38.054688 L 36.503906 38.0625 C 36.375 38.230469 36.226562 38.40625 36.074219 38.585938 C 35.515625 39.222656 34.847656 39.945312 34.761719 40.15625 C 34.660156 40.394531 34.679688 40.582031 34.878906 40.726562 C 35.027344 40.828125 35.289062 40.851562 35.566406 40.828125 C 36.074219 40.800781 36.421875 40.679688 36.597656 40.605469 C 36.871094 40.511719 37.1875 40.371094 37.484375 40.164062 C 38.03125 39.777344 38.367188 39.230469 38.332031 38.503906 C 38.320312 38.09375 38.179688 37.707031 38.007812 37.324219 C 38.058594 37.261719 38.109375 37.191406 38.15625 37.121094 C 39.023438 35.914062 39.691406 34.585938 39.691406 34.585938 C 39.691406 34.585938 39.757812 35 39.957031 35.664062 C 40.058594 36.007812 40.265625 36.371094 40.457031 36.734375 C 39.644531 37.371094 39.136719 38.09375 38.964844 38.582031 C 38.636719 39.464844 38.890625 39.867188 39.367188 39.960938 C 39.582031 40 39.886719 39.910156 40.117188 39.8125 C 40.402344 39.726562 40.746094 39.574219 41.058594 39.351562 C 41.609375 38.960938 42.132812 38.429688 42.109375 37.707031 C 42.089844 37.371094 41.996094 37.042969 41.871094 36.730469 C 42.558594 36.457031 43.449219 36.300781 44.582031 36.433594 C 47.015625 36.703125 47.496094 38.152344 47.40625 38.753906 C 47.3125 39.363281 46.804688 39.695312 46.636719 39.796875 C 46.464844 39.894531 46.414062 39.933594 46.425781 40.007812 C 46.445312 40.113281 46.527344 40.109375 46.675781 40.09375 C 46.875 40.0625 47.953125 39.59375 48 38.480469 C 48.066406 37.046875 46.636719 35.484375 44.105469 35.5 Z M 25.328125 41.507812 C 24.527344 42.347656 23.394531 42.667969 22.910156 42.398438 C 22.390625 42.109375 22.597656 40.871094 23.585938 39.984375 C 24.1875 39.4375 24.96875 38.941406 25.480469 38.628906 C 25.597656 38.5625 25.773438 38.46875 25.984375 38.34375 C 26.015625 38.328125 26.035156 38.316406 26.035156 38.316406 C 26.074219 38.296875 26.117188 38.265625 26.160156 38.242188 C 26.527344 39.511719 26.175781 40.625 25.328125 41.507812 Z M 31.210938 37.699219 C 30.933594 38.347656 30.339844 40.023438 29.988281 39.929688 C 29.675781 39.851562 29.496094 38.585938 29.925781 37.335938 C 30.144531 36.699219 30.609375 35.953125 30.886719 35.660156 C 31.324219 35.1875 31.808594 35.039062 31.925781 35.230469 C 32.070312 35.476562 31.386719 37.289062 31.210938 37.699219 Z M 36.058594 39.910156 C 35.945312 39.964844 35.832031 40.007812 35.78125 39.976562 C 35.75 39.953125 35.832031 39.878906 35.832031 39.878906 C 35.832031 39.878906 36.441406 39.257812 36.679688 38.972656 C 36.820312 38.800781 36.980469 38.609375 37.15625 38.394531 L 37.15625 38.453125 C 37.15625 39.199219 36.402344 39.703125 36.058594 39.90625 Z M 39.804688 39.09375 C 39.714844 39.035156 39.726562 38.839844 40.023438 38.234375 C 40.136719 37.996094 40.402344 37.59375 40.851562 37.214844 C 40.914062 37.367188 40.941406 37.523438 40.9375 37.660156 C 40.929688 38.601562 40.230469 38.949219 39.804688 39.09375 Z M 39.804688 39.09375 "/>
<path style=" stroke:none;fill-rule:nonzero;fill:rgb(100%,100%,100%);fill-opacity:0.4;" d="M 32.527344 24 C 31.386719 24.019531 30.15625 24.226562 28.949219 24.636719 C 26.644531 25.417969 24.144531 26.636719 22.355469 28.234375 C 20.292969 30.070312 19.90625 31.683594 20.015625 32.40625 C 20.109375 31.566406 20.675781 30.222656 22.355469 28.730469 C 24.144531 27.132812 26.644531 25.914062 28.949219 25.128906 C 32.816406 23.824219 36.90625 24.59375 37.53125 26.945312 C 37.585938 27.140625 37.617188 27.339844 37.632812 27.542969 C 37.660156 27.171875 37.628906 26.804688 37.53125 26.449219 C 37.101562 24.832031 35.035156 23.960938 32.527344 24 Z M 36.121094 27.699219 C 35.898438 29.5 33.417969 31.867188 29.695312 32.265625 C 28 32.445312 27.105469 31.820312 26.886719 31.589844 C 26.652344 31.34375 26.613281 31.332031 26.53125 31.375 C 26.386719 31.453125 26.476562 31.667969 26.53125 31.800781 C 26.535156 31.820312 26.542969 31.839844 26.554688 31.859375 C 26.625 31.832031 26.675781 31.867188 26.886719 32.082031 C 27.105469 32.316406 28 32.941406 29.695312 32.761719 C 33.773438 32.328125 36.359375 29.53125 36.121094 27.699219 Z M 40.65625 32.316406 C 40.097656 32.3125 39.609375 32.421875 39.550781 32.5625 C 39.496094 32.707031 39.390625 33.03125 39.316406 33.363281 C 39.21875 33.851562 38.191406 35.585938 37.605469 36.5 C 37.410156 36.144531 37.25 35.832031 37.214844 35.582031 C 37.191406 35.414062 37.171875 35.273438 37.15625 35.128906 C 37.121094 35.511719 37.171875 35.734375 37.214844 36.078125 C 37.25 36.328125 37.410156 36.640625 37.605469 37 C 38.191406 36.082031 39.21875 34.347656 39.316406 33.859375 C 39.390625 33.527344 39.496094 33.203125 39.550781 33.058594 C 39.609375 32.917969 40.097656 32.808594 40.65625 32.8125 C 40.929688 32.816406 41.082031 32.871094 41.167969 32.933594 C 41.230469 32.761719 41.28125 32.625 41.28125 32.597656 C 41.277344 32.554688 41.21875 32.320312 40.65625 32.316406 Z M 22.125 32.625 C 22.117188 32.675781 22.117188 32.71875 22.113281 32.761719 C 21.996094 34.898438 24.886719 36.019531 26.453125 37.613281 L 26.515625 37.675781 C 26.804688 37.523438 27.121094 37.359375 27.421875 37.203125 C 28.210938 36.789062 28.949219 36.40625 29.300781 36.21875 C 29.855469 35.453125 30.96875 34.621094 31.777344 34.621094 C 32.425781 34.621094 32.636719 35.066406 32.6875 35.511719 C 32.734375 34.992188 32.683594 34.125 31.777344 34.125 C 30.96875 34.125 29.855469 34.957031 29.300781 35.722656 C 28.949219 35.910156 28.210938 36.289062 27.421875 36.703125 C 27.121094 36.859375 26.804688 37.027344 26.515625 37.179688 L 26.453125 37.117188 C 24.980469 35.617188 22.328125 34.535156 22.125 32.625 Z M 36.875 33.109375 C 36.316406 33.105469 35.824219 33.214844 35.773438 33.355469 C 35.714844 33.5 35.65625 33.832031 35.535156 34.152344 C 35.425781 34.476562 34.054688 37.378906 33.699219 38.128906 C 33.519531 38.519531 33.359375 38.824219 33.246094 39.035156 C 33.132812 39.242188 33.242188 39.050781 33.230469 39.074219 C 33.132812 39.246094 33.078125 39.347656 33.078125 39.347656 L 33.078125 39.359375 C 33 39.492188 32.917969 39.613281 32.878906 39.613281 C 32.871094 39.613281 32.863281 39.578125 32.855469 39.519531 C 32.820312 39.871094 32.859375 40.109375 32.878906 40.109375 C 32.917969 40.109375 33 39.988281 33.078125 39.855469 L 33.078125 39.84375 C 33.078125 39.84375 33.132812 39.742188 33.230469 39.566406 C 33.242188 39.546875 33.132812 39.738281 33.246094 39.53125 C 33.359375 39.320312 33.519531 39.015625 33.699219 38.625 C 34.054688 37.875 35.425781 34.972656 35.535156 34.648438 C 35.65625 34.328125 35.714844 33.996094 35.773438 33.851562 C 35.824219 33.710938 36.316406 33.601562 36.875 33.609375 C 37.152344 33.609375 37.304688 33.664062 37.390625 33.730469 C 37.453125 33.554688 37.503906 33.417969 37.503906 33.394531 C 37.492188 33.347656 37.441406 33.113281 36.875 33.109375 Z M 40.9375 34.328125 C 40.898438 34.71875 40.949219 34.941406 41 35.285156 C 41.042969 35.609375 41.300781 36.042969 41.5625 36.535156 C 42.277344 36.203125 43.125 35.984375 44.105469 35.972656 L 44.105469 35.996094 C 46.433594 35.980469 47.828125 37.304688 47.984375 38.628906 C 47.992188 38.582031 47.996094 38.53125 48 38.480469 C 48.066406 37.046875 46.636719 35.484375 44.105469 35.5 L 44.105469 35.480469 C 43.125 35.488281 42.277344 35.707031 41.5625 36.042969 C 41.300781 35.546875 41.042969 35.113281 41 34.789062 C 40.972656 34.617188 40.949219 34.476562 40.9375 34.328125 Z M 33.007812 35.667969 C 32.816406 35.671875 32.726562 35.78125 32.699219 35.800781 C 32.691406 36.121094 32.625 36.382812 32.625 36.382812 C 32.625 36.382812 32.65625 36.300781 32.6875 36.300781 C 32.71875 36.300781 32.863281 36.0625 33.265625 36.203125 C 33.394531 36.25 33.472656 36.3125 33.519531 36.375 C 33.554688 36.253906 33.578125 36.164062 33.578125 36.15625 C 33.578125 36.128906 33.675781 35.851562 33.265625 35.707031 C 33.164062 35.671875 33.078125 35.664062 33.007812 35.667969 Z M 31.894531 35.6875 C 31.75 36.328125 31.339844 37.398438 31.210938 37.703125 C 30.933594 38.347656 30.339844 40.023438 29.988281 39.929688 C 29.832031 39.890625 29.710938 39.558594 29.679688 39.078125 C 29.636719 39.8125 29.785156 40.375 29.988281 40.425781 C 30.339844 40.519531 30.933594 38.84375 31.210938 38.199219 C 31.386719 37.785156 32.070312 35.976562 31.925781 35.726562 C 31.917969 35.714844 31.90625 35.699219 31.894531 35.6875 Z M 40.273438 36.886719 C 39.570312 37.480469 39.125 38.132812 38.964844 38.578125 C 38.816406 38.980469 38.789062 39.28125 38.84375 39.5 C 38.867188 39.371094 38.90625 39.230469 38.964844 39.078125 C 39.136719 38.589844 39.644531 37.867188 40.457031 37.234375 C 40.398438 37.117188 40.332031 37 40.273438 36.886719 Z M 42.019531 37.171875 C 41.96875 37.1875 41.917969 37.207031 41.871094 37.222656 C 41.972656 37.476562 42.050781 37.734375 42.089844 38 C 42.105469 37.90625 42.113281 37.808594 42.109375 37.707031 C 42.097656 37.527344 42.066406 37.347656 42.019531 37.171875 Z M 28.613281 37.503906 C 28.554688 37.535156 28.488281 37.570312 28.425781 37.605469 C 28.347656 37.933594 28.289062 38.3125 28.25 38.78125 C 28.234375 38.9375 28.234375 39.105469 28.25 39.277344 C 28.316406 38.496094 28.433594 37.957031 28.613281 37.503906 Z M 38.140625 37.640625 C 38.097656 37.703125 38.054688 37.765625 38.007812 37.820312 C 38.15625 38.152344 38.28125 38.488281 38.316406 38.835938 C 38.332031 38.730469 38.335938 38.617188 38.328125 38.5 C 38.320312 38.207031 38.246094 37.921875 38.140625 37.640625 Z M 36.613281 37.90625 C 36.546875 37.996094 36.5 38.054688 36.5 38.054688 L 36.503906 38.0625 C 36.375 38.230469 36.226562 38.40625 36.074219 38.582031 C 35.515625 39.222656 34.847656 39.941406 34.765625 40.15625 C 34.683594 40.34375 34.675781 40.5 34.777344 40.625 C 34.894531 40.390625 35.535156 39.695312 36.074219 39.078125 C 36.226562 38.902344 36.375 38.726562 36.503906 38.558594 L 36.5 38.550781 C 36.5 38.550781 36.601562 38.425781 36.765625 38.207031 C 36.71875 38.109375 36.664062 38.007812 36.613281 37.90625 Z M 25.105469 37.914062 C 24.207031 38.351562 21.832031 39.601562 21.203125 40.933594 C 20.9375 41.484375 20.871094 41.984375 20.917969 42.40625 C 20.949219 42.105469 21.035156 41.777344 21.203125 41.425781 C 21.878906 39.996094 24.585938 38.648438 25.296875 38.316406 C 25.363281 38.285156 25.421875 38.25 25.496094 38.214844 C 25.378906 38.117188 25.246094 38.015625 25.105469 37.914062 Z M 40.917969 37.921875 C 40.800781 38.625 40.253906 38.925781 39.871094 39.066406 C 39.730469 39.414062 39.734375 39.542969 39.804688 39.589844 C 40.230469 39.445312 40.929688 39.097656 40.9375 38.15625 C 40.941406 38.082031 40.933594 38 40.917969 37.921875 Z M 27.203125 38.277344 L 27.03125 38.375 L 27.042969 38.402344 C 27.226562 38.734375 27.355469 39.226562 27.382812 39.785156 C 27.414062 39.214844 27.339844 38.6875 27.203125 38.277344 Z M 47.390625 38.835938 C 47.265625 39.390625 46.796875 39.699219 46.636719 39.796875 C 46.464844 39.894531 46.414062 39.933594 46.425781 40.007812 C 46.445312 40.113281 46.527344 40.109375 46.675781 40.09375 C 46.742188 40.082031 46.90625 40.023438 47.09375 39.90625 C 47.238281 39.742188 47.363281 39.523438 47.40625 39.25 C 47.421875 39.136719 47.421875 38.996094 47.390625 38.835938 Z M 37.15625 38.890625 C 36.980469 39.101562 36.820312 39.296875 36.675781 39.46875 C 36.441406 39.753906 35.832031 40.375 35.832031 40.375 C 35.832031 40.375 35.746094 40.449219 35.78125 40.472656 C 35.832031 40.503906 35.945312 40.460938 36.0625 40.40625 C 36.402344 40.199219 37.15625 39.699219 37.15625 38.949219 Z M 26.296875 39.46875 C 26.234375 40.238281 25.890625 40.921875 25.328125 41.507812 C 24.527344 42.347656 23.394531 42.667969 22.910156 42.398438 C 22.78125 42.328125 22.699219 42.199219 22.660156 42.03125 C 22.589844 42.433594 22.675781 42.761719 22.910156 42.894531 C 23.394531 43.164062 24.527344 42.84375 25.328125 42.003906 C 26.007812 41.296875 26.367188 40.4375 26.296875 39.46875 Z M 31.632812 39.519531 C 31.632812 39.519531 31.605469 39.585938 31.5625 39.6875 C 31.558594 39.820312 31.558594 39.960938 31.566406 40.105469 C 31.585938 39.773438 31.632812 39.519531 31.632812 39.519531 Z M 31.632812 39.519531 "/>
<path style=" stroke:none;fill-rule:nonzero;fill:rgb(0%,0%,0%);fill-opacity:0.4;" d="M 32.929688 25.613281 C 31.5 25.625 29.679688 26.011719 27.671875 26.964844 C 22.445312 29.441406 22.15625 31.488281 22.113281 32.265625 C 22.105469 32.394531 22.109375 32.519531 22.125 32.640625 C 22.203125 31.773438 22.734375 29.820312 27.671875 27.476562 C 31.957031 25.4375 35.386719 25.996094 35.984375 27.238281 C 36.050781 27.386719 36.097656 27.546875 36.121094 27.710938 C 36.164062 27.355469 36.121094 27.019531 35.984375 26.726562 C 35.664062 26.066406 34.550781 25.601562 32.929688 25.613281 Z M 37.632812 27.558594 C 37.480469 29.578125 35.625 31.675781 33.351562 32.515625 C 30.941406 33.402344 28.953125 33.265625 28.136719 33.003906 C 27.269531 32.734375 26.738281 32.210938 26.5625 31.875 C 26.550781 31.878906 26.542969 31.882812 26.53125 31.890625 C 26.386719 31.96875 26.476562 32.183594 26.53125 32.316406 C 26.660156 32.644531 27.207031 33.226562 28.136719 33.515625 C 28.953125 33.777344 30.941406 33.914062 33.351562 33.03125 C 35.820312 32.117188 37.792969 29.722656 37.632812 27.558594 Z M 20.015625 32.417969 C 19.992188 32.648438 19.996094 32.847656 20.027344 32.996094 C 20.480469 35.242188 23.496094 36.773438 25.09375 37.925781 C 25.164062 37.890625 25.246094 37.847656 25.296875 37.824219 C 25.363281 37.792969 25.421875 37.757812 25.496094 37.71875 C 24.070312 36.535156 20.523438 34.9375 20.027344 32.484375 C 20.023438 32.464844 20.019531 32.441406 20.015625 32.417969 Z M 41.164062 32.949219 C 41.082031 33.183594 40.980469 33.484375 40.945312 33.738281 C 40.914062 33.988281 40.921875 34.167969 40.9375 34.339844 C 40.941406 34.3125 40.941406 34.28125 40.945312 34.25 C 41.003906 33.804688 41.28125 33.171875 41.28125 33.113281 C 41.277344 33.089844 41.261719 33.015625 41.164062 32.949219 Z M 37.386719 33.746094 C 37.304688 33.976562 37.203125 34.28125 37.167969 34.53125 C 37.136719 34.78125 37.136719 34.964844 37.15625 35.140625 C 37.160156 35.109375 37.164062 35.078125 37.167969 35.042969 C 37.230469 34.597656 37.503906 33.964844 37.503906 33.910156 C 37.5 33.886719 37.480469 33.8125 37.386719 33.746094 Z M 39.6875 34.59375 C 39.6875 34.59375 39.023438 35.917969 38.15625 37.125 C 38.109375 37.195312 38.058594 37.265625 38.007812 37.328125 C 38.054688 37.4375 38.101562 37.546875 38.140625 37.65625 C 38.148438 37.648438 38.152344 37.644531 38.15625 37.636719 C 39.023438 36.429688 39.6875 35.105469 39.6875 35.105469 C 39.6875 35.105469 39.757812 35.515625 39.957031 36.183594 C 40.027344 36.410156 40.144531 36.648438 40.269531 36.890625 C 40.332031 36.839844 40.390625 36.789062 40.457031 36.738281 C 40.269531 36.378906 40.0625 36.011719 39.957031 35.671875 C 39.757812 35.003906 39.6875 34.59375 39.6875 34.59375 Z M 31.71875 35.15625 C 31.511719 35.167969 31.1875 35.339844 30.886719 35.664062 C 30.609375 35.957031 30.144531 36.703125 29.925781 37.339844 C 29.707031 37.96875 29.648438 38.605469 29.683594 39.089844 C 29.703125 38.707031 29.777344 38.277344 29.925781 37.847656 C 30.144531 37.214844 30.609375 36.46875 30.886719 36.175781 C 31.292969 35.742188 31.730469 35.578125 31.890625 35.707031 C 31.945312 35.476562 31.964844 35.300781 31.925781 35.234375 C 31.890625 35.175781 31.816406 35.148438 31.71875 35.15625 Z M 35.90625 35.386719 C 35.90625 35.386719 35.234375 37.042969 34.527344 38.363281 C 33.976562 39.394531 33.609375 40.015625 33.449219 40.289062 L 33.449219 40.296875 C 33.449219 40.296875 33.425781 40.335938 33.378906 40.394531 C 33.359375 40.433594 33.351562 40.449219 33.351562 40.449219 L 33.351562 40.4375 C 33.164062 40.699219 32.753906 41.203125 32.34375 41.203125 C 31.785156 41.203125 31.605469 40.660156 31.566406 40.117188 C 31.53125 40.761719 31.601562 41.714844 32.34375 41.714844 C 32.753906 41.714844 33.164062 41.210938 33.351562 40.949219 L 33.351562 40.957031 C 33.351562 40.957031 33.359375 40.945312 33.378906 40.90625 C 33.425781 40.847656 33.449219 40.808594 33.449219 40.808594 L 33.449219 40.800781 C 33.609375 40.527344 33.976562 39.90625 34.527344 38.875 C 35.234375 37.554688 35.90625 35.898438 35.90625 35.898438 C 35.90625 35.898438 35.972656 36.304688 36.175781 36.96875 C 36.269531 37.273438 36.441406 37.59375 36.609375 37.917969 C 36.652344 37.863281 36.699219 37.800781 36.765625 37.714844 C 36.5625 37.292969 36.296875 36.855469 36.175781 36.457031 C 35.972656 35.792969 35.90625 35.386719 35.90625 35.386719 Z M 32.6875 35.519531 C 32.664062 35.738281 32.625 35.890625 32.625 35.890625 C 32.625 35.890625 32.65625 35.8125 32.6875 35.8125 C 32.691406 35.8125 32.695312 35.804688 32.699219 35.804688 C 32.699219 35.714844 32.695312 35.617188 32.6875 35.519531 Z M 33.519531 36.390625 C 33.386719 36.863281 33.050781 37.996094 32.890625 38.789062 C 32.824219 39.128906 32.835938 39.398438 32.855469 39.53125 C 32.863281 39.457031 32.875 39.382812 32.890625 39.300781 C 33.09375 38.296875 33.585938 36.726562 33.578125 36.671875 C 33.578125 36.652344 33.621094 36.515625 33.519531 36.390625 Z M 43.777344 36.390625 C 43.015625 36.390625 42.386719 36.53125 41.871094 36.734375 C 41.929688 36.882812 41.984375 37.035156 42.023438 37.1875 C 42.691406 36.953125 43.527344 36.828125 44.582031 36.949219 C 46.554688 37.167969 47.246094 38.160156 47.386719 38.847656 C 47.394531 38.820312 47.402344 38.789062 47.40625 38.757812 C 47.5 38.152344 47.015625 36.707031 44.582031 36.4375 C 44.296875 36.402344 44.03125 36.390625 43.777344 36.390625 Z M 28.613281 37.015625 C 28.300781 37.171875 27.945312 37.363281 27.589844 37.5625 L 27.03125 37.878906 L 27.042969 37.910156 C 27.105469 38.019531 27.15625 38.152344 27.203125 38.292969 L 27.589844 38.078125 C 27.875 37.914062 28.160156 37.761719 28.421875 37.625 C 28.476562 37.398438 28.539062 37.199219 28.613281 37.015625 Z M 40.855469 37.21875 C 40.402344 37.597656 40.136719 38 40.023438 38.238281 C 39.726562 38.84375 39.714844 39.039062 39.804688 39.097656 C 39.828125 39.089844 39.855469 39.078125 39.878906 39.070312 C 39.917969 38.976562 39.960938 38.875 40.023438 38.75 C 40.136719 38.511719 40.402344 38.109375 40.855469 37.730469 C 40.878906 37.796875 40.898438 37.867188 40.914062 37.933594 C 40.929688 37.847656 40.9375 37.761719 40.9375 37.664062 C 40.941406 37.527344 40.914062 37.371094 40.855469 37.21875 Z M 42.085938 38.007812 C 41.980469 38.582031 41.53125 39.023438 41.0625 39.355469 C 40.746094 39.578125 40.402344 39.730469 40.113281 39.816406 C 39.886719 39.914062 39.582031 40.003906 39.367188 39.96875 C 39.109375 39.914062 38.914062 39.769531 38.84375 39.511719 C 38.730469 40.109375 38.972656 40.398438 39.367188 40.480469 C 39.582031 40.515625 39.886719 40.425781 40.113281 40.328125 C 40.402344 40.242188 40.746094 40.089844 41.0625 39.867188 C 41.609375 39.476562 42.136719 38.945312 42.109375 38.222656 C 42.105469 38.152344 42.097656 38.078125 42.085938 38.007812 Z M 26.160156 38.246094 C 26.117188 38.269531 26.070312 38.300781 26.035156 38.316406 C 26.035156 38.316406 26.015625 38.332031 25.984375 38.347656 C 25.773438 38.472656 25.597656 38.566406 25.480469 38.636719 C 24.96875 38.945312 24.1875 39.441406 23.589844 39.984375 C 22.839844 40.660156 22.539062 41.53125 22.660156 42.042969 C 22.75 41.5625 23.050781 40.980469 23.589844 40.5 C 24.1875 39.953125 24.96875 39.457031 25.480469 39.144531 C 25.597656 39.078125 25.773438 38.984375 25.984375 38.859375 C 26.015625 38.84375 26.035156 38.828125 26.035156 38.828125 C 26.070312 38.8125 26.117188 38.78125 26.160156 38.753906 C 26.234375 39.003906 26.277344 39.246094 26.296875 39.480469 C 26.328125 39.089844 26.285156 38.675781 26.160156 38.246094 Z M 37.15625 38.394531 C 36.980469 38.609375 36.820312 38.804688 36.675781 38.972656 C 36.441406 39.261719 35.832031 39.882812 35.832031 39.882812 C 35.832031 39.882812 35.746094 39.957031 35.78125 39.984375 C 35.832031 40.011719 35.945312 39.96875 36.0625 39.910156 C 36.402344 39.707031 37.15625 39.207031 37.15625 38.457031 Z M 47.984375 38.640625 C 47.898438 39.277344 47.472656 39.679688 47.125 39.894531 C 46.945312 40.117188 46.734375 40.253906 46.636719 40.3125 C 46.464844 40.410156 46.414062 40.449219 46.425781 40.523438 C 46.445312 40.628906 46.527344 40.625 46.675781 40.609375 C 46.875 40.578125 47.953125 40.109375 48 38.996094 C 48.003906 38.878906 48 38.761719 47.984375 38.640625 Z M 38.316406 38.847656 C 38.25 39.40625 37.941406 39.84375 37.484375 40.167969 C 37.1875 40.375 36.871094 40.515625 36.59375 40.609375 C 36.421875 40.683594 36.074219 40.804688 35.566406 40.832031 C 35.289062 40.855469 35.023438 40.835938 34.875 40.730469 C 34.835938 40.699219 34.804688 40.667969 34.78125 40.636719 C 34.773438 40.648438 34.769531 40.660156 34.765625 40.671875 C 34.660156 40.910156 34.675781 41.097656 34.875 41.242188 C 35.023438 41.347656 35.289062 41.367188 35.566406 41.34375 C 36.074219 41.316406 36.421875 41.195312 36.59375 41.125 C 36.871094 41.027344 37.1875 40.886719 37.484375 40.675781 C 38.03125 40.292969 38.367188 39.742188 38.328125 39.015625 C 38.328125 38.960938 38.324219 38.90625 38.316406 38.847656 Z M 31.632812 39.03125 C 31.632812 39.03125 31.304688 39.835938 30.933594 40.53125 C 30.632812 41.097656 30.359375 41.570312 29.753906 41.570312 C 29.589844 41.570312 29.308594 41.566406 29.082031 41.359375 C 28.65625 40.972656 28.3125 40.101562 28.25 39.296875 C 28.171875 40.214844 28.5625 41.398438 29.082031 41.871094 C 29.308594 42.078125 29.589844 42.082031 29.753906 42.082031 C 30.359375 42.082031 30.632812 41.609375 30.933594 41.042969 C 31.203125 40.535156 31.449219 39.976562 31.5625 39.707031 C 31.578125 39.328125 31.632812 39.03125 31.632812 39.03125 Z M 27.382812 39.796875 C 27.339844 40.539062 27.121094 41.34375 26.625 42.050781 C 25.609375 43.484375 23.742188 44.355469 21.914062 43.871094 C 21.523438 43.769531 21.007812 43.234375 20.917969 42.421875 C 20.800781 43.515625 21.449219 44.261719 21.914062 44.382812 C 23.742188 44.867188 25.609375 43.996094 26.625 42.5625 C 27.234375 41.691406 27.429688 40.660156 27.382812 39.796875 Z M 27.382812 39.796875 "/>
<path style=" stroke:none;fill-rule:nonzero;fill:url(#linear0);" d="M 40 4 L 13 4 C 11.339844 4 10 5.339844 10 7 L 10 57 C 10 58.660156 11.339844 60 13 60 L 51 60 C 52.660156 60 54 58.660156 54 57 L 54 18 Z M 40 4 "/>
</g>
</svg>
