
<svg xmlns="http://www.w3.org/2000/svg" xmlns:xlink="http://www.w3.org/1999/xlink" width="64" height="64" viewBox="0 0 64 64" version="1.1">
<defs>
<linearGradient id="linear0" gradientUnits="userSpaceOnUse" x1="32" y1="53.999996" x2="32" y2="13.999999" gradientTransform="matrix(1,0,0,1,0.0449523,-4.000004)">
<stop offset="0" style="stop-color:rgb(0%,0%,0%);stop-opacity:0.2;"/>
<stop offset="1" style="stop-color:rgb(100%,100%,100%);stop-opacity:0;"/>
</linearGradient>
</defs>
<g id="surface1">
<path style=" stroke:none;fill-rule:nonzero;fill:rgb(36.078432%,41.960785%,75.294119%);fill-opacity:1;" d="M 60 21 L 60 46 C 60 48.214844 58.214844 50 56 50 C 48 50 52 36 38 30 L 54.285156 21 Z M 60 21 "/>
<path style=" stroke:none;fill-rule:nonzero;fill:rgb(36.078432%,41.960785%,75.294119%);fill-opacity:1;" d="M 4 21 L 4 46 C 4 48.214844 5.785156 50 8 50 C 16 50 12 36 26 30 L 9.714844 21 Z M 4 21 "/>
<path style=" stroke:none;fill-rule:nonzero;fill:rgb(0%,0%,0%);fill-opacity:0.4;" d="M 25.007812 29.449219 C 12.191406 35.671875 15.804688 48.992188 8 48.992188 C 5.785156 48.992188 4 47.210938 4 44.992188 L 4 46 C 4 48.214844 5.785156 50 8 50 C 16 50 12 36 26 30 Z M 38.996094 29.449219 L 38 30 C 52 36 48 50 56 50 C 58.214844 50 60 48.214844 60 46 L 60 44.992188 C 60 47.210938 58.214844 48.992188 56 48.992188 C 48.195312 48.992188 51.808594 35.671875 38.996094 29.449219 Z M 38.996094 29.449219 "/>
<path style=" stroke:none;fill-rule:nonzero;fill:rgb(0%,0%,0%);fill-opacity:0.4;" d="M 4.011719 22.5 C 4.003906 22.664062 4 22.832031 4 23 C 4 29.648438 9.351562 35 16 35 C 17.1875 35 18.332031 34.824219 19.414062 34.503906 C 19.980469 33.90625 20.609375 33.324219 21.308594 32.765625 C 19.710938 33.554688 17.910156 34 16 34 C 9.519531 34 4.273438 28.914062 4.011719 22.5 Z M 59.988281 22.5 C 59.726562 28.914062 54.480469 34 48 34 C 46.089844 34 44.289062 33.554688 42.691406 32.765625 C 43.390625 33.324219 44.019531 33.90625 44.585938 34.503906 C 45.667969 34.824219 46.8125 35 48 35 C 54.648438 35 60 29.648438 60 23 C 60 22.832031 59.996094 22.664062 59.988281 22.5 Z M 24.957031 30 C 24.628906 30.367188 24.273438 30.714844 23.902344 31.039062 C 24.554688 30.671875 25.246094 30.324219 26 30 Z M 38 30 C 38.753906 30.324219 39.445312 30.671875 40.101562 31.039062 C 39.726562 30.714844 39.371094 30.367188 39.042969 30 Z M 38 30 "/>
<path style=" stroke:none;fill-rule:nonzero;fill:rgb(47.450981%,52.549022%,79.607844%);fill-opacity:1;" d="M 16 10 C 9.351562 10 4 15.351562 4 22 C 4 28.648438 9.351562 34 16 34 C 19.570312 34 22.761719 32.457031 24.957031 30 L 39.042969 30 C 41.238281 32.457031 44.429688 34 48 34 C 54.648438 34 60 28.648438 60 22 C 60 15.351562 54.648438 10 48 10 Z M 16 10 "/>
<path style=" stroke:none;fill-rule:nonzero;fill:rgb(100%,100%,100%);fill-opacity:0.4;" d="M 6.007812 22.25 C 6.003906 22.332031 6 22.414062 6 22.5 C 6 28.039062 10.460938 32.5 16 32.5 C 19.285156 32.5 22.1875 30.929688 24.011719 28.5 L 39.992188 28.5 C 41.8125 30.929688 44.714844 32.5 48 32.5 C 53.539062 32.5 58 28.039062 58 22.5 C 58 22.414062 57.996094 22.332031 57.996094 22.25 C 57.863281 27.671875 53.457031 32 48 32 C 44.714844 32 41.8125 30.429688 39.992188 28 L 24.011719 28 C 22.1875 30.429688 19.285156 32 16 32 C 10.542969 32 6.136719 27.671875 6.007812 22.25 Z M 6.007812 22.25 "/>
<path style=" stroke:none;fill-rule:nonzero;fill:rgb(36.078432%,41.960785%,75.294119%);fill-opacity:1;" d="M 16 12 C 10.460938 12 6 16.460938 6 22 C 6 27.539062 10.460938 32 16 32 C 19.285156 32 22.1875 30.429688 24.011719 28 L 39.992188 28 C 41.8125 30.429688 44.714844 32 48 32 C 53.539062 32 58 27.539062 58 22 C 58 16.460938 53.539062 12 48 12 Z M 16 12 "/>
<path style=" stroke:none;fill-rule:nonzero;fill:rgb(36.078432%,41.960785%,75.294119%);fill-opacity:1;" d="M 27.515625 17.5 L 36.515625 17.5 C 37.34375 17.5 38.015625 18.171875 38.015625 19 C 38.015625 19.828125 37.34375 20.5 36.515625 20.5 L 27.515625 20.5 C 26.6875 20.5 26.015625 19.828125 26.015625 19 C 26.015625 18.171875 26.6875 17.5 27.515625 17.5 Z M 27.515625 17.5 "/>
<path style=" stroke:none;fill-rule:nonzero;fill:rgb(4.313726%,5.490196%,5.882353%);fill-opacity:0.4;" d="M 27.515625 17.5 C 26.683594 17.5 26.015625 18.167969 26.015625 19 C 26.015625 19.085938 26.023438 19.167969 26.039062 19.25 C 26.15625 18.539062 26.769531 18 27.515625 18 L 36.515625 18 C 37.261719 18 37.875 18.539062 37.996094 19.25 C 38.007812 19.167969 38.015625 19.085938 38.015625 19 C 38.015625 18.167969 37.347656 17.5 36.515625 17.5 Z M 27.515625 17.5 "/>
<path style=" stroke:none;fill-rule:nonzero;fill:rgb(99.215686%,99.215686%,99.607843%);fill-opacity:0.4;" d="M 27.515625 21 C 26.683594 21 26.015625 20.332031 26.015625 19.5 C 26.015625 19.414062 26.023438 19.332031 26.039062 19.25 C 26.15625 19.960938 26.769531 20.5 27.515625 20.5 L 36.515625 20.5 C 37.261719 20.5 37.875 19.960938 37.996094 19.25 C 38.007812 19.332031 38.015625 19.414062 38.015625 19.5 C 38.015625 20.332031 37.347656 21 36.515625 21 Z M 27.515625 21 "/>
<path style=" stroke:none;fill-rule:nonzero;fill:rgb(38.039216%,38.039216%,38.039216%);fill-opacity:1;" d="M 27.765625 18 L 30.265625 18 C 30.679688 18 31.015625 18.335938 31.015625 18.75 C 31.015625 19.167969 30.679688 19.5 30.265625 19.5 L 27.765625 19.5 C 27.351562 19.5 27.015625 19.167969 27.015625 18.75 C 27.015625 18.335938 27.351562 18 27.765625 18 Z M 27.765625 18 "/>
<path style=" stroke:none;fill-rule:nonzero;fill:rgb(38.039216%,38.039216%,38.039216%);fill-opacity:1;" d="M 33.765625 18 L 36.265625 18 C 36.679688 18 37.015625 18.335938 37.015625 18.75 C 37.015625 19.167969 36.679688 19.5 36.265625 19.5 L 33.765625 19.5 C 33.351562 19.5 33.015625 19.167969 33.015625 18.75 C 33.015625 18.335938 33.351562 18 33.765625 18 Z M 33.765625 18 "/>
<path style=" stroke:none;fill-rule:nonzero;fill:rgb(74.117649%,74.117649%,74.117649%);fill-opacity:1;" d="M 27.765625 18 L 30.265625 18 C 30.679688 18 31.015625 18.335938 31.015625 18.75 C 31.015625 19.167969 30.679688 19.5 30.265625 19.5 L 27.765625 19.5 C 27.351562 19.5 27.015625 19.167969 27.015625 18.75 C 27.015625 18.335938 27.351562 18 27.765625 18 Z M 27.765625 18 "/>
<path style=" stroke:none;fill-rule:nonzero;fill:rgb(74.117649%,74.117649%,74.117649%);fill-opacity:1;" d="M 33.765625 18 L 36.265625 18 C 36.679688 18 37.015625 18.335938 37.015625 18.75 C 37.015625 19.167969 36.679688 19.5 36.265625 19.5 L 33.765625 19.5 C 33.351562 19.5 33.015625 19.167969 33.015625 18.75 C 33.015625 18.335938 33.351562 18 33.765625 18 Z M 33.765625 18 "/>
<path style=" stroke:none;fill-rule:nonzero;fill:rgb(100%,100%,100%);fill-opacity:0.4;" d="M 27.726562 18 C 27.328125 18.019531 27.015625 18.347656 27.015625 18.75 C 27.015625 18.839844 27.03125 18.921875 27.058594 19 C 27.15625 18.71875 27.417969 18.515625 27.726562 18.5 C 27.738281 18.5 27.753906 18.5 27.765625 18.5 L 30.265625 18.5 C 30.59375 18.5 30.871094 18.710938 30.972656 19 C 31 18.921875 31.015625 18.839844 31.015625 18.75 C 31.015625 18.335938 30.679688 18 30.265625 18 L 27.765625 18 C 27.753906 18 27.738281 18 27.726562 18 Z M 33.726562 18 C 33.328125 18.019531 33.015625 18.347656 33.015625 18.75 C 33.015625 18.839844 33.03125 18.921875 33.058594 19 C 33.15625 18.71875 33.417969 18.515625 33.726562 18.5 C 33.738281 18.5 33.753906 18.5 33.765625 18.5 L 36.265625 18.5 C 36.59375 18.5 36.871094 18.710938 36.972656 19 C 37 18.921875 37.015625 18.839844 37.015625 18.75 C 37.015625 18.335938 36.679688 18 36.265625 18 L 33.765625 18 C 33.753906 18 33.738281 18 33.726562 18 Z M 33.726562 18 "/>
<path style=" stroke:none;fill-rule:nonzero;fill:rgb(15.294118%,15.294118%,15.294118%);fill-opacity:0.4;" d="M 27.726562 20 C 27.328125 19.980469 27.015625 19.652344 27.015625 19.25 C 27.015625 19.164062 27.03125 19.078125 27.058594 19 C 27.15625 19.28125 27.417969 19.484375 27.726562 19.5 C 27.738281 19.5 27.753906 19.5 27.765625 19.5 L 30.265625 19.5 C 30.59375 19.5 30.871094 19.292969 30.972656 19 C 31 19.078125 31.015625 19.164062 31.015625 19.25 C 31.015625 19.664062 30.679688 20 30.265625 20 L 27.765625 20 C 27.753906 20 27.738281 20 27.726562 20 Z M 33.726562 20 C 33.328125 19.980469 33.015625 19.652344 33.015625 19.25 C 33.015625 19.164062 33.03125 19.078125 33.058594 19 C 33.15625 19.28125 33.417969 19.484375 33.726562 19.5 C 33.738281 19.5 33.753906 19.5 33.765625 19.5 L 36.265625 19.5 C 36.59375 19.5 36.871094 19.292969 36.972656 19 C 37 19.078125 37.015625 19.164062 37.015625 19.25 C 37.015625 19.664062 36.679688 20 36.265625 20 L 33.765625 20 C 33.753906 20 33.738281 20 33.726562 20 Z M 33.726562 20 "/>
<path style=" stroke:none;fill-rule:nonzero;fill:rgb(74.117649%,74.117649%,74.117649%);fill-opacity:1;" d="M 44 19.5 C 45.105469 19.5 46 20.394531 46 21.5 C 46 22.605469 45.105469 23.5 44 23.5 C 42.894531 23.5 42 22.605469 42 21.5 C 42 20.394531 42.894531 19.5 44 19.5 Z M 44 19.5 "/>
<path style=" stroke:none;fill-rule:nonzero;fill:rgb(74.117649%,74.117649%,74.117649%);fill-opacity:1;" d="M 48.5 23.5 C 49.605469 23.5 50.5 24.394531 50.5 25.5 C 50.5 26.605469 49.605469 27.5 48.5 27.5 C 47.394531 27.5 46.5 26.605469 46.5 25.5 C 46.5 24.394531 47.394531 23.5 48.5 23.5 Z M 48.5 23.5 "/>
<path style=" stroke:none;fill-rule:nonzero;fill:rgb(74.117649%,74.117649%,74.117649%);fill-opacity:1;" d="M 53 19.5 C 54.105469 19.5 55 20.394531 55 21.5 C 55 22.605469 54.105469 23.5 53 23.5 C 51.894531 23.5 51 22.605469 51 21.5 C 51 20.394531 51.894531 19.5 53 19.5 Z M 53 19.5 "/>
<path style=" stroke:none;fill-rule:nonzero;fill:rgb(74.117649%,74.117649%,74.117649%);fill-opacity:1;" d="M 15 16.5 C 14.445312 16.5 14 16.945312 14 17.5 L 14 20 L 11.5 20 C 10.945312 20 10.5 20.445312 10.5 21 L 10.5 22 C 10.5 22.554688 10.945312 23 11.5 23 L 14 23 L 14 25.5 C 14 26.054688 14.445312 26.5 15 26.5 L 16 26.5 C 16.554688 26.5 17 26.054688 17 25.5 L 17 23 L 19.5 23 C 20.054688 23 20.5 22.554688 20.5 22 L 20.5 21 C 20.5 20.445312 20.054688 20 19.5 20 L 17 20 L 17 17.5 C 17 16.945312 16.554688 16.5 16 16.5 Z M 15 16.5 "/>
<path style=" stroke:none;fill-rule:nonzero;fill:rgb(15.686275%,15.686275%,15.686275%);fill-opacity:0.4;" d="M 10.5 22 L 10.5 22.5 C 10.5 23.054688 10.945312 23.5 11.5 23.5 L 14 23.5 L 14 23 L 11.5 23 C 10.945312 23 10.5 22.554688 10.5 22 Z M 20.5 22 C 20.5 22.554688 20.054688 23 19.5 23 L 17 23 L 17 23.5 L 19.5 23.5 C 20.054688 23.5 20.5 23.054688 20.5 22.5 Z M 14 25.5 L 14 26 C 14 26.554688 14.445312 27 15 27 L 16 27 C 16.554688 27 17 26.554688 17 26 L 17 25.5 C 17 26.054688 16.554688 26.5 16 26.5 L 15 26.5 C 14.445312 26.5 14 26.054688 14 25.5 Z M 14 25.5 "/>
<path style=" stroke:none;fill-rule:nonzero;fill:rgb(100%,100%,100%);fill-opacity:0.4;" d="M 15 16.5 C 14.445312 16.5 14 16.945312 14 17.5 L 14 18 C 14 17.445312 14.445312 17 15 17 L 16 17 C 16.554688 17 17 17.445312 17 18 L 17 17.5 C 17 16.945312 16.554688 16.5 16 16.5 Z M 11.5 20 C 10.945312 20 10.5 20.445312 10.5 21 L 10.5 21.5 C 10.5 20.945312 10.945312 20.5 11.5 20.5 L 14 20.5 L 14 20 Z M 17 20 L 17 20.5 L 19.5 20.5 C 20.054688 20.5 20.5 20.945312 20.5 21.5 L 20.5 21 C 20.5 20.445312 20.054688 20 19.5 20 Z M 17 20 "/>
<path style=" stroke:none;fill-rule:nonzero;fill:rgb(47.450981%,52.549022%,79.607844%);fill-opacity:1;" d="M 26.5 24 C 28.710938 24 30.5 25.789062 30.5 28 C 30.5 30.210938 28.710938 32 26.5 32 C 24.289062 32 22.5 30.210938 22.5 28 C 22.5 25.789062 24.289062 24 26.5 24 Z M 26.5 24 "/>
<path style=" stroke:none;fill-rule:nonzero;fill:rgb(47.450981%,52.549022%,79.607844%);fill-opacity:1;" d="M 38 24 C 40.210938 24 42 25.789062 42 28 C 42 30.210938 40.210938 32 38 32 C 35.789062 32 34 30.210938 34 28 C 34 25.789062 35.789062 24 38 24 Z M 38 24 "/>
<path style=" stroke:none;fill-rule:nonzero;fill:rgb(36.078432%,41.960785%,75.294119%);fill-opacity:1;" d="M 38 25 C 39.65625 25 41 26.34375 41 28 C 41 29.65625 39.65625 31 38 31 C 36.34375 31 35 29.65625 35 28 C 35 26.34375 36.34375 25 38 25 Z M 38 25 "/>
<path style=" stroke:none;fill-rule:nonzero;fill:rgb(0%,0%,0%);fill-opacity:0.4;" d="M 16 12 C 10.460938 12 6 16.460938 6 22 C 6 22.085938 6.003906 22.167969 6.003906 22.253906 C 6.140625 16.832031 10.546875 12.507812 16 12.507812 L 48 12.507812 C 53.453125 12.507812 57.859375 16.832031 57.996094 22.253906 C 57.996094 22.167969 58 22.085938 58 22 C 58 16.460938 53.539062 12 48 12 Z M 16 12 "/>
<path style=" stroke:none;fill-rule:nonzero;fill:rgb(100%,100%,100%);fill-opacity:0.4;" d="M 16 10 C 9.351562 10 4 15.351562 4 22 C 4 22.167969 4.003906 22.332031 4.011719 22.496094 C 4.273438 16.082031 9.519531 10.992188 16 10.992188 L 48 10.992188 C 54.480469 10.992188 59.726562 16.082031 59.988281 22.496094 C 59.996094 22.332031 60 22.167969 60 22 C 60 15.351562 54.648438 10 48 10 Z M 16 10 "/>
<path style=" stroke:none;fill-rule:nonzero;fill:rgb(0%,0%,0%);fill-opacity:0.2;" d="M 29.96875 30 C 29.277344 31.195312 27.988281 32 26.5 32 C 25.503906 32 24.59375 31.640625 23.898438 31.042969 C 23.105469 31.730469 22.230469 32.320312 21.277344 32.785156 C 12.859375 39.496094 14.929688 50 8 50 C 5.785156 50 4 48.214844 4 46 L 4 47.492188 C 4 49.707031 5.785156 51.492188 8 51.492188 C 14.929688 51.492188 12.859375 40.988281 21.277344 34.277344 C 22.230469 33.8125 23.105469 33.222656 23.898438 32.535156 C 24.59375 33.132812 25.503906 33.492188 26.5 33.492188 C 27.988281 33.492188 29.277344 32.6875 29.96875 31.492188 L 34.535156 31.492188 C 35.222656 32.6875 36.511719 33.492188 38 33.492188 C 38.875 33.492188 39.683594 33.214844 40.339844 32.738281 C 41.066406 33.34375 41.863281 33.859375 42.722656 34.277344 C 51.140625 40.988281 49.070312 51.492188 56 51.492188 C 58.214844 51.492188 60 49.707031 60 47.492188 L 60 46 C 60 48.214844 58.214844 50 56 50 C 49.070312 50 51.140625 39.496094 42.722656 32.785156 C 41.863281 32.367188 41.066406 31.851562 40.339844 31.246094 C 39.683594 31.722656 38.875 32 38 32 C 36.511719 32 35.222656 31.195312 34.535156 30 Z M 29.96875 30 "/>
<path style=" stroke:none;fill-rule:nonzero;fill:rgb(74.117649%,74.117649%,74.117649%);fill-opacity:1;" d="M 38 25.5 C 39.378906 25.5 40.5 26.621094 40.5 28 C 40.5 29.378906 39.378906 30.5 38 30.5 C 36.621094 30.5 35.5 29.378906 35.5 28 C 35.5 26.621094 36.621094 25.5 38 25.5 Z M 38 25.5 "/>
<path style=" stroke:none;fill-rule:nonzero;fill:rgb(100%,100%,100%);fill-opacity:0.4;" d="M 38 24 C 35.785156 24 34 25.785156 34 28 C 34 28.082031 34.003906 28.167969 34.007812 28.25 C 34.136719 26.152344 35.867188 24.5 38 24.5 C 40.132812 24.5 41.863281 26.152344 41.992188 28.25 C 41.996094 28.167969 42 28.082031 42 28 C 42 25.785156 40.214844 24 38 24 Z M 38 24 "/>
<path style=" stroke:none;fill-rule:nonzero;fill:rgb(36.078432%,41.960785%,75.294119%);fill-opacity:1;" d="M 26.5 25 C 28.15625 25 29.5 26.34375 29.5 28 C 29.5 29.65625 28.15625 31 26.5 31 C 24.84375 31 23.5 29.65625 23.5 28 C 23.5 26.34375 24.84375 25 26.5 25 Z M 26.5 25 "/>
<path style=" stroke:none;fill-rule:nonzero;fill:rgb(74.117649%,74.117649%,74.117649%);fill-opacity:1;" d="M 26.5 25.5 C 27.878906 25.5 29 26.621094 29 28 C 29 29.378906 27.878906 30.5 26.5 30.5 C 25.121094 30.5 24 29.378906 24 28 C 24 26.621094 25.121094 25.5 26.5 25.5 Z M 26.5 25.5 "/>
<path style=" stroke:none;fill-rule:nonzero;fill:rgb(100%,100%,100%);fill-opacity:0.4;" d="M 26.5 24 C 24.285156 24 22.5 25.785156 22.5 28 C 22.5 28.082031 22.503906 28.167969 22.507812 28.25 C 22.636719 26.152344 24.367188 24.5 26.5 24.5 C 28.632812 24.5 30.363281 26.152344 30.492188 28.25 C 30.496094 28.167969 30.5 28.082031 30.5 28 C 30.5 25.785156 28.714844 24 26.5 24 Z M 26.5 24 "/>
<path style=" stroke:none;fill-rule:nonzero;fill:rgb(0%,0%,0%);fill-opacity:0.2;" d="M 24.015625 28.066406 C 24.015625 28.109375 24.015625 28.15625 24.015625 28.199219 C 24.015625 29.585938 25.128906 30.699219 26.515625 30.699219 C 27.898438 30.699219 29.015625 29.585938 29.015625 28.199219 C 29.015625 28.167969 29.011719 28.136719 29.011719 28.105469 C 28.957031 29.441406 27.863281 30.503906 26.515625 30.503906 C 25.148438 30.503906 24.050781 29.421875 24.015625 28.066406 Z M 35.515625 28.066406 C 35.515625 28.109375 35.515625 28.15625 35.515625 28.199219 C 35.515625 29.585938 36.628906 30.699219 38.015625 30.699219 C 39.398438 30.699219 40.515625 29.585938 40.515625 28.199219 C 40.515625 28.167969 40.511719 28.136719 40.511719 28.105469 C 40.457031 29.441406 39.363281 30.503906 38.015625 30.503906 C 36.648438 30.503906 35.550781 29.421875 35.515625 28.066406 Z M 35.515625 28.066406 "/>
<path style=" stroke:none;fill-rule:nonzero;fill:rgb(100%,100%,100%);fill-opacity:0.4;" d="M 26.5 25.5 C 25.113281 25.5 24 26.613281 24 28 C 24 28.046875 24 28.09375 24.003906 28.140625 C 24.058594 26.804688 25.148438 25.742188 26.5 25.742188 C 27.839844 25.742188 28.929688 26.789062 28.996094 28.113281 C 29 28.078125 29 28.039062 29 28 C 29 26.613281 27.886719 25.5 26.5 25.5 Z M 38 25.5 C 36.613281 25.5 35.5 26.613281 35.5 28 C 35.5 28.046875 35.5 28.09375 35.503906 28.140625 C 35.558594 26.804688 36.648438 25.742188 38 25.742188 C 39.339844 25.742188 40.429688 26.789062 40.496094 28.113281 C 40.5 28.078125 40.5 28.039062 40.5 28 C 40.5 26.613281 39.386719 25.5 38 25.5 Z M 38 25.5 "/>
<path style=" stroke:none;fill-rule:nonzero;fill:rgb(74.117649%,74.117649%,74.117649%);fill-opacity:1;" d="M 48.5 15.5 C 49.605469 15.5 50.5 16.394531 50.5 17.5 C 50.5 18.605469 49.605469 19.5 48.5 19.5 C 47.394531 19.5 46.5 18.605469 46.5 17.5 C 46.5 16.394531 47.394531 15.5 48.5 15.5 Z M 48.5 15.5 "/>
<path style=" stroke:none;fill-rule:nonzero;fill:rgb(100%,100%,100%);fill-opacity:0.4;" d="M 48.449219 15.5 C 47.363281 15.527344 46.5 16.410156 46.5 17.5 C 46.5 17.582031 46.503906 17.664062 46.515625 17.746094 C 46.636719 16.777344 47.449219 16.023438 48.449219 16 C 48.464844 16 48.484375 16 48.5 16 C 49.523438 16 50.359375 16.757812 50.484375 17.746094 C 50.496094 17.664062 50.5 17.582031 50.5 17.5 C 50.5 16.390625 49.609375 15.5 48.5 15.5 C 48.484375 15.5 48.464844 15.5 48.449219 15.5 Z M 43.949219 19.5 C 42.863281 19.527344 42 20.410156 42 21.5 C 42 21.582031 42.003906 21.664062 42.015625 21.746094 C 42.136719 20.777344 42.949219 20.023438 43.949219 20 C 43.964844 20 43.984375 20 44 20 C 45.023438 20 45.859375 20.757812 45.984375 21.746094 C 45.996094 21.664062 46 21.582031 46 21.5 C 46 20.390625 45.109375 19.5 44 19.5 C 43.984375 19.5 43.964844 19.5 43.949219 19.5 Z M 52.949219 19.5 C 51.863281 19.527344 51 20.410156 51 21.5 C 51 21.582031 51.003906 21.664062 51.015625 21.746094 C 51.136719 20.777344 51.949219 20.023438 52.949219 20 C 52.964844 20 52.984375 20 53 20 C 54.023438 20 54.859375 20.757812 54.984375 21.746094 C 54.996094 21.664062 55 21.582031 55 21.5 C 55 20.390625 54.109375 19.5 53 19.5 C 52.984375 19.5 52.964844 19.5 52.949219 19.5 Z M 48.449219 23.5 C 47.363281 23.527344 46.5 24.410156 46.5 25.5 C 46.5 25.582031 46.503906 25.664062 46.515625 25.746094 C 46.636719 24.777344 47.449219 24.023438 48.449219 24 C 48.464844 24 48.484375 24 48.5 24 C 49.523438 24 50.359375 24.757812 50.484375 25.746094 C 50.496094 25.664062 50.5 25.582031 50.5 25.5 C 50.5 24.390625 49.609375 23.5 48.5 23.5 C 48.484375 23.5 48.464844 23.5 48.449219 23.5 Z M 48.449219 23.5 "/>
<path style=" stroke:none;fill-rule:nonzero;fill:rgb(0%,0%,0%);fill-opacity:0.4;" d="M 48.449219 28 C 47.363281 27.972656 46.5 27.089844 46.5 26 C 46.5 25.917969 46.503906 25.835938 46.515625 25.753906 C 46.636719 26.722656 47.449219 27.476562 48.445312 27.5 C 48.464844 27.5 48.484375 27.5 48.5 27.5 C 49.523438 27.5 50.359375 26.742188 50.484375 25.753906 C 50.492188 25.835938 50.5 25.917969 50.5 26 C 50.5 27.109375 49.609375 28 48.5 28 C 48.480469 28 48.464844 28 48.445312 28 Z M 43.949219 24 C 42.863281 23.972656 42 23.089844 42 22 C 42 21.917969 42.003906 21.835938 42.015625 21.753906 C 42.136719 22.722656 42.949219 23.476562 43.945312 23.5 C 43.964844 23.5 43.984375 23.5 44 23.5 C 45.023438 23.5 45.859375 22.742188 45.984375 21.753906 C 45.992188 21.835938 46 21.917969 46 22 C 46 23.109375 45.109375 24 44 24 C 43.980469 24 43.964844 24 43.945312 24 Z M 52.949219 24 C 51.863281 23.972656 51 23.089844 51 22 C 51 21.917969 51.003906 21.835938 51.015625 21.753906 C 51.136719 22.722656 51.949219 23.476562 52.945312 23.5 C 52.964844 23.5 52.984375 23.5 53 23.5 C 54.023438 23.5 54.859375 22.742188 54.984375 21.753906 C 54.992188 21.835938 55 21.917969 55 22 C 55 23.109375 54.109375 24 53 24 C 52.980469 24 52.964844 24 52.945312 24 Z M 48.449219 20 C 47.363281 19.972656 46.5 19.089844 46.5 18 C 46.5 17.917969 46.503906 17.835938 46.515625 17.753906 C 46.636719 18.722656 47.449219 19.476562 48.445312 19.5 C 48.464844 19.5 48.484375 19.5 48.5 19.5 C 49.523438 19.5 50.359375 18.742188 50.484375 17.753906 C 50.492188 17.835938 50.5 17.917969 50.5 18 C 50.5 19.109375 49.609375 20 48.5 20 C 48.480469 20 48.464844 20 48.445312 20 Z M 48.449219 20 "/>
<path style=" stroke:none;fill-rule:nonzero;fill:url(#linear0);" d="M 16.046875 10 C 9.734375 10 4.59375 14.824219 4.089844 21 L 4.046875 21 L 4.046875 46 C 4.046875 48.214844 5.828125 50 8.046875 50 C 14.972656 50 12.902344 39.496094 21.324219 32.785156 C 22.273438 32.320312 23.152344 31.730469 23.941406 31.042969 C 24.640625 31.640625 25.550781 32 26.546875 32 C 28.03125 32 29.320312 31.195312 30.011719 30 L 34.578125 30 C 35.269531 31.195312 36.558594 32 38.046875 32 C 38.921875 32 39.726562 31.722656 40.386719 31.246094 C 41.113281 31.851562 41.910156 32.367188 42.769531 32.785156 C 51.1875 39.496094 49.117188 50 56.046875 50 C 58.261719 50 60.046875 48.214844 60.046875 46 L 60.046875 21 L 60 21 C 59.496094 14.824219 54.355469 10 48.046875 10 Z M 16.046875 10 "/>
</g>
</svg>
