
<svg xmlns="http://www.w3.org/2000/svg" xmlns:xlink="http://www.w3.org/1999/xlink" width="16" height="16" viewBox="0 0 16 16" version="1.1">
<defs>
<linearGradient id="linear0" gradientUnits="userSpaceOnUse" x1="32" y1="59.999996" x2="32" y2="4" gradientTransform="matrix(-0.25,0,0,0.25,15.999901,0)">
<stop offset="0" style="stop-color:rgb(0%,0%,0%);stop-opacity:0.2;"/>
<stop offset="1" style="stop-color:rgb(100%,100%,100%);stop-opacity:0;"/>
</linearGradient>
</defs>
<g id="surface1">
<path style=" stroke:none;fill-rule:nonzero;fill:rgb(40.000001%,73.333335%,41.568628%);fill-opacity:1;" d="M 14.707031 5.832031 C 15.386719 7.015625 14.835938 8.03125 13.558594 8.769531 C 12.28125 9.507812 10.441406 8.292969 8 8 C 8.964844 5.738281 8.835938 3.539062 10.113281 2.800781 C 11.390625 2.0625 12.546875 2.09375 13.230469 3.277344 C 13.507812 3.757812 13.605469 4.289062 13.542969 4.800781 C 14.015625 5 14.429688 5.351562 14.707031 5.832031 Z M 14.707031 5.832031 "/>
<path style=" stroke:none;fill-rule:nonzero;fill:rgb(40.000001%,73.333335%,41.568628%);fill-opacity:1;" d="M 2.769531 12.722656 C 3.453125 13.90625 4.609375 13.9375 5.886719 13.199219 C 7.164062 12.460938 7.03125 10.261719 8 8 C 5.554688 7.707031 3.71875 6.492188 2.441406 7.230469 C 1.164062 7.96875 0.613281 8.984375 1.292969 10.167969 C 1.570312 10.648438 1.984375 11 2.457031 11.199219 C 2.394531 11.710938 2.492188 12.242188 2.769531 12.722656 Z M 2.769531 12.722656 "/>
<path style=" stroke:none;fill-rule:nonzero;fill:rgb(40.000001%,73.333335%,41.568628%);fill-opacity:1;" d="M 5.832031 1.292969 C 7.015625 0.613281 8.03125 1.164062 8.769531 2.441406 C 9.507812 3.71875 8.292969 5.558594 8 8 C 5.738281 7.035156 3.539062 7.164062 2.800781 5.886719 C 2.0625 4.609375 2.09375 3.453125 3.277344 2.769531 C 3.757812 2.492188 4.289062 2.394531 4.800781 2.457031 C 5 1.984375 5.351562 1.570312 5.832031 1.292969 Z M 5.832031 1.292969 "/>
<path style=" stroke:none;fill-rule:nonzero;fill:rgb(40.000001%,73.333335%,41.568628%);fill-opacity:1;" d="M 12.722656 13.230469 C 13.90625 12.546875 13.9375 11.390625 13.199219 10.113281 C 12.460938 8.835938 10.261719 8.964844 8 8 C 7.707031 10.441406 6.492188 12.28125 7.230469 13.558594 C 7.96875 14.835938 8.984375 15.386719 10.167969 14.707031 C 10.648438 14.429688 11 14.015625 11.199219 13.542969 C 11.710938 13.605469 12.242188 13.507812 12.722656 13.230469 Z M 12.722656 13.230469 "/>
<path style=" stroke:none;fill-rule:nonzero;fill:rgb(100%,100%,100%);fill-opacity:0.4;" d="M 11.691406 2.304688 C 12.3125 2.3125 12.84375 2.613281 13.230469 3.277344 C 13.476562 3.703125 13.582031 4.175781 13.558594 4.632812 C 13.539062 4.253906 13.429688 3.875 13.230469 3.527344 C 12.546875 2.34375 11.390625 2.3125 10.113281 3.050781 C 8.878906 3.765625 8.957031 5.835938 8.097656 8.011719 C 8.066406 8.007812 8.03125 8.003906 8 8 C 8.964844 5.738281 8.835938 3.539062 10.113281 2.800781 C 10.671875 2.476562 11.207031 2.304688 11.691406 2.308594 Z M 13.558594 4.808594 C 14.023438 5.011719 14.429688 5.359375 14.707031 5.832031 C 14.933594 6.226562 15.023438 6.601562 14.996094 6.953125 C 14.972656 6.675781 14.878906 6.386719 14.707031 6.082031 C 14.429688 5.601562 14.015625 5.253906 13.542969 5.050781 C 13.554688 4.96875 13.558594 4.886719 13.558594 4.808594 Z M 13.558594 4.808594 "/>
<path style=" stroke:none;fill-rule:nonzero;fill:rgb(100%,100%,100%);fill-opacity:0.4;" d="M 3.433594 6.996094 C 4.613281 7.011719 6.128906 7.773438 8 8 C 7.964844 8.078125 7.933594 8.160156 7.902344 8.238281 C 5.507812 7.925781 3.703125 6.753906 2.441406 7.480469 C 1.589844 7.972656 1.058594 8.589844 1.003906 9.296875 C 0.941406 8.484375 1.488281 7.78125 2.441406 7.230469 C 2.742188 7.058594 3.070312 6.992188 3.433594 6.996094 Z M 2.441406 11.445312 C 2.445312 11.445312 2.449219 11.449219 2.457031 11.453125 C 2.449219 11.507812 2.445312 11.5625 2.441406 11.617188 C 2.441406 11.558594 2.4375 11.503906 2.441406 11.445312 Z M 2.441406 11.445312 "/>
<path style=" stroke:none;fill-rule:nonzero;fill:rgb(100%,100%,100%);fill-opacity:0.4;" d="M 6.839844 1 C 7.59375 1.003906 8.25 1.542969 8.769531 2.441406 C 8.957031 2.765625 9.019531 3.128906 9 3.527344 C 8.984375 3.226562 8.917969 2.949219 8.769531 2.691406 C 8.03125 1.414062 7.015625 0.863281 5.832031 1.542969 C 5.351562 1.824219 5 2.234375 4.800781 2.707031 C 4.289062 2.644531 3.757812 2.742188 3.277344 3.023438 C 2.652344 3.382812 2.351562 3.875 2.3125 4.445312 C 2.269531 3.765625 2.5625 3.183594 3.277344 2.769531 C 3.757812 2.492188 4.289062 2.394531 4.800781 2.457031 C 5 1.984375 5.351562 1.570312 5.832031 1.292969 C 6.183594 1.09375 6.519531 0.996094 6.839844 1 Z M 6.839844 1 "/>
<path style=" stroke:none;fill-rule:nonzero;fill:rgb(100%,100%,100%);fill-opacity:0.4;" d="M 8 8 C 10.261719 8.964844 12.460938 8.835938 13.199219 10.113281 C 13.546875 10.71875 13.722656 11.292969 13.6875 11.804688 C 13.660156 11.359375 13.492188 10.871094 13.199219 10.363281 C 12.460938 9.085938 10.261719 9.21875 8 8.25 C 7.78125 10.074219 7.050781 11.558594 7 12.726562 C 6.941406 11.523438 7.765625 9.957031 8 8 Z M 8 8 "/>
<path style=" stroke:none;fill-rule:nonzero;fill:rgb(0%,0%,0%);fill-opacity:0.4;" d="M 13.558594 4.382812 C 13.558594 4.441406 13.5625 4.5 13.558594 4.558594 C 13.554688 4.554688 13.546875 4.554688 13.542969 4.550781 C 13.550781 4.496094 13.554688 4.4375 13.558594 4.382812 Z M 14.996094 6.707031 C 15.058594 7.515625 14.511719 8.21875 13.558594 8.769531 C 12.28125 9.507812 10.441406 8.292969 8 8 C 8.035156 7.921875 8.066406 7.84375 8.097656 7.761719 C 10.492188 8.078125 12.296875 9.25 13.558594 8.519531 C 14.410156 8.027344 14.941406 7.410156 14.996094 6.707031 Z M 14.996094 6.707031 "/>
<path style=" stroke:none;fill-rule:nonzero;fill:rgb(0%,0%,0%);fill-opacity:0.4;" d="M 7.902344 7.988281 C 7.933594 7.992188 7.96875 7.996094 8 8 C 7.03125 10.261719 7.164062 12.460938 5.886719 13.199219 C 4.605469 13.9375 3.453125 13.90625 2.769531 12.722656 C 2.523438 12.296875 2.417969 11.828125 2.441406 11.367188 C 2.460938 11.746094 2.570312 12.125 2.769531 12.476562 C 3.453125 13.65625 4.605469 13.6875 5.886719 12.949219 C 7.121094 12.238281 7.042969 10.164062 7.902344 7.988281 Z M 1.003906 9.046875 C 1.027344 9.324219 1.121094 9.617188 1.292969 9.917969 C 1.570312 10.398438 1.984375 10.75 2.457031 10.953125 C 2.445312 11.03125 2.441406 11.113281 2.441406 11.191406 C 1.976562 10.988281 1.570312 10.640625 1.292969 10.167969 C 1.066406 9.773438 0.976562 9.398438 1.003906 9.046875 Z M 1.003906 9.046875 "/>
<path style=" stroke:none;fill-rule:nonzero;fill:rgb(0%,0%,0%);fill-opacity:0.4;" d="M 9 3.277344 C 9.058594 4.480469 8.234375 6.046875 8 8 C 5.738281 7.035156 3.539062 7.164062 2.800781 5.886719 C 2.453125 5.28125 2.277344 4.707031 2.3125 4.195312 C 2.335938 4.640625 2.507812 5.128906 2.800781 5.636719 C 3.539062 6.917969 5.738281 6.785156 8 7.75 C 8.21875 5.929688 8.949219 4.445312 9 3.277344 Z M 9 3.277344 "/>
<path style=" stroke:none;fill-rule:nonzero;fill:rgb(0%,0%,0%);fill-opacity:0.4;" d="M 13.6875 11.554688 C 13.730469 12.234375 13.4375 12.816406 12.722656 13.230469 C 12.242188 13.507812 11.710938 13.605469 11.199219 13.542969 C 11 14.015625 10.648438 14.429688 10.167969 14.707031 C 8.984375 15.386719 7.96875 14.835938 7.230469 13.558594 C 7.042969 13.234375 6.980469 12.875 7 12.476562 C 7.015625 12.777344 7.082031 13.054688 7.230469 13.308594 C 7.96875 14.589844 8.984375 15.140625 10.167969 14.457031 C 10.648438 14.179688 11 13.765625 11.199219 13.296875 C 11.710938 13.355469 12.242188 13.257812 12.722656 12.980469 C 13.347656 12.621094 13.652344 12.128906 13.6875 11.554688 Z M 13.6875 11.554688 "/>
<path style=" stroke:none;fill-rule:nonzero;fill:rgb(100%,100%,100%);fill-opacity:0.101961;" d="M 6.839844 1 C 7.59375 1.003906 8.25 1.542969 8.769531 2.441406 C 9.507812 3.71875 8.292969 5.558594 8 8 C 5.738281 7.035156 3.539062 7.164062 2.800781 5.886719 C 2.0625 4.609375 2.09375 3.453125 3.277344 2.769531 C 3.757812 2.492188 4.289062 2.394531 4.800781 2.457031 C 5 1.984375 5.351562 1.570312 5.832031 1.292969 C 6.183594 1.09375 6.519531 0.996094 6.839844 1 Z M 8 8 C 7.789062 8.492188 7.632812 8.980469 7.5 9.453125 C 5.800781 10.246094 3.945312 10.761719 1.988281 10.933594 C 1.714844 10.734375 1.476562 10.480469 1.292969 10.167969 C 0.613281 8.984375 1.160156 7.96875 2.441406 7.230469 C 3.71875 6.492188 5.554688 7.707031 8 8 Z M 8 8 C 8.445312 8.191406 8.886719 8.335938 9.320312 8.460938 C 8.8125 8.78125 8.289062 9.074219 7.75 9.335938 C 7.851562 8.914062 7.945312 8.46875 8 8 Z M 8 8 C 8.964844 5.738281 8.835938 3.539062 10.113281 2.800781 C 11.390625 2.0625 12.546875 2.09375 13.230469 3.277344 C 13.472656 3.695312 13.578125 4.15625 13.558594 4.609375 C 12.441406 6.050781 11.089844 7.304688 9.558594 8.308594 C 9.070312 8.179688 8.550781 8.066406 8 8 Z M 8 8 "/>
<path style=" stroke:none;fill-rule:nonzero;fill:url(#linear0);" d="M 6.839844 1 C 7.59375 1.003906 8.25 1.542969 8.769531 2.441406 C 9.507812 3.71875 8.292969 5.558594 8 8 C 5.738281 7.035156 3.539062 7.164062 2.800781 5.886719 C 2.0625 4.609375 2.09375 3.453125 3.277344 2.769531 C 3.757812 2.492188 4.289062 2.394531 4.800781 2.457031 C 5 1.984375 5.351562 1.570312 5.832031 1.292969 C 6.183594 1.09375 6.519531 0.996094 6.839844 1 Z M 8 8 C 7.03125 10.261719 7.164062 12.460938 5.886719 13.199219 C 4.605469 13.9375 3.453125 13.90625 2.769531 12.722656 C 2.492188 12.242188 2.394531 11.710938 2.457031 11.199219 C 1.984375 11 1.570312 10.648438 1.292969 10.167969 C 0.613281 8.984375 1.160156 7.96875 2.441406 7.230469 C 3.71875 6.492188 5.554688 7.707031 8 8 Z M 8 8 C 10.261719 8.964844 12.460938 8.835938 13.199219 10.113281 C 13.9375 11.390625 13.90625 12.546875 12.722656 13.230469 C 12.242188 13.507812 11.710938 13.605469 11.199219 13.542969 C 11 14.015625 10.648438 14.429688 10.167969 14.707031 C 8.984375 15.386719 7.96875 14.835938 7.230469 13.558594 C 6.492188 12.28125 7.707031 10.441406 8 8 Z M 8 8 C 8.964844 5.738281 8.835938 3.539062 10.113281 2.800781 C 11.390625 2.0625 12.546875 2.09375 13.230469 3.277344 C 13.507812 3.757812 13.605469 4.289062 13.542969 4.800781 C 14.015625 5 14.429688 5.351562 14.707031 5.832031 C 15.386719 7.015625 14.835938 8.03125 13.558594 8.769531 C 12.28125 9.507812 10.441406 8.292969 8 8 Z M 8 8 "/>
<path style=" stroke:none;fill-rule:nonzero;fill:rgb(0%,0%,0%);fill-opacity:0.2;" d="M 8.996094 3.585938 C 9.078125 4.675781 8.402344 6.066406 8.089844 7.777344 C 8.0625 7.851562 8.03125 7.925781 8 8 C 8.214844 6.210938 8.921875 4.746094 8.996094 3.585938 Z M 8 8 C 6.230469 7.785156 4.777344 7.09375 3.625 7.003906 C 3.273438 6.820312 2.988281 6.585938 2.800781 6.261719 C 2.441406 5.636719 2.265625 5.042969 2.316406 4.515625 C 2.355469 4.941406 2.523438 5.40625 2.800781 5.886719 C 3.539062 7.164062 5.738281 7.035156 8 8 Z M 8 8 C 7.984375 8.121094 7.96875 8.238281 7.949219 8.355469 C 7.921875 8.34375 7.898438 8.332031 7.871094 8.320312 C 7.910156 8.214844 7.953125 8.109375 8 8 Z M 8 8 C 8.019531 8 8.035156 8.003906 8.050781 8.007812 C 8.050781 8.011719 8.050781 8.015625 8.050781 8.019531 C 8.035156 8.015625 8.015625 8.007812 8 8 Z M 13.554688 4.699219 C 13.554688 4.734375 13.558594 4.769531 13.558594 4.808594 C 13.554688 4.804688 13.546875 4.800781 13.542969 4.800781 C 13.546875 4.765625 13.550781 4.730469 13.554688 4.699219 Z M 14.988281 7.019531 C 15.085938 7.855469 14.535156 8.582031 13.558594 9.144531 C 13.207031 9.347656 12.8125 9.402344 12.375 9.371094 C 11.363281 8.84375 9.769531 8.726562 8.128906 8.054688 C 8.132812 8.042969 8.136719 8.03125 8.144531 8.019531 C 10.515625 8.34375 12.304688 9.492188 13.558594 8.769531 C 14.386719 8.292969 14.90625 7.699219 14.988281 7.019531 Z M 7.855469 8.355469 C 7.886719 8.359375 7.917969 8.363281 7.949219 8.367188 C 7.933594 8.445312 7.921875 8.523438 7.910156 8.597656 C 7.039062 10.78125 7.121094 12.859375 5.886719 13.574219 C 4.605469 14.3125 3.453125 14.28125 2.769531 13.097656 C 2.511719 12.652344 2.410156 12.15625 2.445312 11.675781 C 2.472656 12.035156 2.578125 12.390625 2.769531 12.722656 C 3.453125 13.90625 4.605469 13.9375 5.886719 13.199219 C 7.097656 12.5 7.042969 10.492188 7.855469 8.355469 Z M 1.011719 9.355469 C 1.042969 9.617188 1.132812 9.886719 1.292969 10.167969 C 1.570312 10.648438 1.984375 11 2.457031 11.199219 C 2.441406 11.320312 2.4375 11.445312 2.441406 11.570312 C 1.976562 11.367188 1.570312 11.015625 1.292969 10.542969 C 1.054688 10.125 0.964844 9.726562 1.011719 9.355469 Z M 13.683594 11.859375 C 13.75 12.570312 13.460938 13.179688 12.722656 13.605469 C 12.242188 13.882812 11.710938 13.980469 11.199219 13.917969 C 11 14.390625 10.648438 14.804688 10.167969 15.082031 C 8.984375 15.761719 7.96875 15.214844 7.230469 13.933594 C 7.035156 13.59375 6.976562 13.210938 7.003906 12.789062 C 7.023438 13.066406 7.09375 13.320312 7.230469 13.558594 C 7.96875 14.835938 8.984375 15.386719 10.167969 14.707031 C 10.648438 14.429688 11 14.015625 11.199219 13.542969 C 11.710938 13.605469 12.242188 13.507812 12.722656 13.230469 C 13.328125 12.878906 13.628906 12.410156 13.683594 11.859375 Z M 13.683594 11.859375 "/>
</g>
</svg>
