
<svg xmlns="http://www.w3.org/2000/svg" xmlns:xlink="http://www.w3.org/1999/xlink" width="24" height="24" viewBox="0 0 24 24" version="1.1">
<defs>
<linearGradient id="linear0" gradientUnits="userSpaceOnUse" x1="31.999998" y1="60" x2="31.999998" y2="4" gradientTransform="matrix(0.375,0,0,0.375,-0.00000102047,0.000000000000042633)">
<stop offset="0" style="stop-color:rgb(0%,0%,0%);stop-opacity:0.2;"/>
<stop offset="1" style="stop-color:rgb(100%,100%,100%);stop-opacity:0;"/>
</linearGradient>
</defs>
<g id="surface1">
<path style=" stroke:none;fill-rule:nonzero;fill:rgb(87.843138%,87.843138%,87.843138%);fill-opacity:1;" d="M 15 1.5 L 4.875 1.5 C 4.25 1.5 3.75 2 3.75 2.625 L 3.75 21.375 C 3.75 22 4.25 22.5 4.875 22.5 L 19.125 22.5 C 19.75 22.5 20.25 22 20.25 21.375 L 20.25 6.75 Z M 15 1.5 "/>
<path style=" stroke:none;fill-rule:nonzero;fill:rgb(0%,0%,0%);fill-opacity:0.4;" d="M 15 5.625 L 15 6 C 15 6.625 15.5 7.125 16.125 7.125 L 20.25 7.125 L 19.875 6.75 L 16.125 6.75 C 15.5 6.75 15 6.25 15 5.625 Z M 15 5.625 "/>
<path style=" stroke:none;fill-rule:nonzero;fill:rgb(93.333334%,93.333334%,93.333334%);fill-opacity:0.996078;" d="M 20.25 6.75 L 15 1.5 L 15 5.625 C 15 6.25 15.5 6.75 16.125 6.75 Z M 20.25 6.75 "/>
<path style=" stroke:none;fill-rule:nonzero;fill:rgb(100%,100%,100%);fill-opacity:0.4;" d="M 4.875 1.5 C 4.25 1.5 3.75 2 3.75 2.625 L 3.75 3 C 3.75 2.375 4.25 1.875 4.875 1.875 L 15 1.875 L 20.25 7.125 L 20.25 6.75 L 15 1.5 Z M 4.875 1.5 "/>
<path style=" stroke:none;fill-rule:nonzero;fill:rgb(0%,0%,0%);fill-opacity:0.2;" d="M 3.75 21.371094 L 3.75 21.9375 C 3.75 22.5625 4.25 23.0625 4.875 23.0625 L 19.125 23.0625 C 19.75 23.0625 20.25 22.5625 20.25 21.9375 L 20.25 21.371094 C 20.25 21.992188 19.75 22.496094 19.125 22.496094 L 4.875 22.496094 C 4.25 22.496094 3.75 21.992188 3.75 21.371094 Z M 3.75 21.371094 "/>
<path style=" stroke:none;fill-rule:nonzero;fill:rgb(0%,0%,0%);fill-opacity:0.4;" d="M 3.75 21.046875 L 3.75 21.375 C 3.75 22 4.25 22.5 4.875 22.5 L 19.125 22.5 C 19.75 22.5 20.25 22 20.25 21.375 L 20.25 21.046875 C 20.25 21.671875 19.75 22.171875 19.125 22.171875 L 4.875 22.171875 C 4.25 22.171875 3.75 21.671875 3.75 21.046875 Z M 3.75 21.046875 "/>
<path style=" stroke:none;fill-rule:nonzero;fill:url(#linear0);" d="M 15 1.5 L 4.875 1.5 C 4.25 1.5 3.75 2 3.75 2.625 L 3.75 21.375 C 3.75 22 4.25 22.5 4.875 22.5 L 19.125 22.5 C 19.75 22.5 20.25 22 20.25 21.375 L 20.25 6.75 Z M 15 1.5 "/>
</g>
</svg>
