
<svg xmlns="http://www.w3.org/2000/svg" xmlns:xlink="http://www.w3.org/1999/xlink" width="64" height="64" viewBox="0 0 64 64" version="1.1">
<defs>
<linearGradient id="linear0" gradientUnits="userSpaceOnUse" x1="31.999998" y1="60" x2="31.999998" y2="4" gradientTransform="matrix(1,0,0,1,-0.00000272126,0)">
<stop offset="0" style="stop-color:rgb(0%,0%,0%);stop-opacity:0.2;"/>
<stop offset="1" style="stop-color:rgb(100%,100%,100%);stop-opacity:0;"/>
</linearGradient>
</defs>
<g id="surface1">
<path style=" stroke:none;fill-rule:nonzero;fill:rgb(95.686275%,26.274511%,21.176471%);fill-opacity:1;" d="M 40 4 L 13 4 C 11.339844 4 10 5.339844 10 7 L 10 57 C 10 58.660156 11.339844 60 13 60 L 51 60 C 52.660156 60 54 58.660156 54 57 L 54 18 Z M 40 4 "/>
<path style=" stroke:none;fill-rule:nonzero;fill:rgb(0%,0%,0%);fill-opacity:0.4;" d="M 40 15 L 40 16 C 40 17.660156 41.339844 19 43 19 L 54 19 L 53 18 L 43 18 C 41.339844 18 40 16.660156 40 15 Z M 40 15 "/>
<path style=" stroke:none;fill-rule:nonzero;fill:rgb(93.725491%,32.549021%,31.37255%);fill-opacity:0.996078;" d="M 54 18 L 40 4 L 40 15 C 40 16.660156 41.339844 18 43 18 Z M 54 18 "/>
<path style=" stroke:none;fill-rule:nonzero;fill:rgb(100%,100%,100%);fill-opacity:0.4;" d="M 13 4 C 11.339844 4 10 5.339844 10 7 L 10 8 C 10 6.339844 11.339844 5 13 5 L 40 5 L 54 19 L 54 18 L 40 4 Z M 13 4 "/>
<path style=" stroke:none;fill-rule:nonzero;fill:rgb(0%,0%,0%);fill-opacity:0.2;" d="M 10 56.984375 L 10 58.5 C 10 60.164062 11.339844 61.5 13 61.5 L 51 61.5 C 52.660156 61.5 54 60.164062 54 58.5 L 54 56.984375 C 54 58.648438 52.660156 59.984375 51 59.984375 L 13 59.984375 C 11.339844 59.984375 10 58.648438 10 56.984375 Z M 10 56.984375 "/>
<path style=" stroke:none;fill-rule:nonzero;fill:rgb(0%,0%,0%);fill-opacity:0.4;" d="M 10 56.125 L 10 57 C 10 58.660156 11.339844 60 13 60 L 51 60 C 52.660156 60 54 58.660156 54 57 L 54 56.125 C 54 57.785156 52.660156 59.125 51 59.125 L 13 59.125 C 11.339844 59.125 10 57.785156 10 56.125 Z M 10 56.125 "/>
<path style=" stroke:none;fill-rule:nonzero;fill:rgb(89.803922%,45.09804%,45.09804%);fill-opacity:0.996078;" d="M 39.195312 24.101562 L 24.804688 25.898438 C 24.34375 25.957031 24 26.347656 24 26.8125 L 24 29.1875 C 24 29.394531 24.089844 29.589844 24.242188 29.726562 C 24.398438 29.863281 24.601562 29.925781 24.804688 29.898438 L 39.195312 28.101562 C 39.65625 28.042969 40 27.652344 40 27.1875 L 40 24.8125 C 40 24.605469 39.910156 24.410156 39.757812 24.273438 C 39.601562 24.136719 39.398438 24.074219 39.195312 24.101562 Z M 39.195312 31.101562 L 24.804688 32.898438 C 24.34375 32.957031 24 33.347656 24 33.8125 L 24 36.1875 C 24 36.394531 24.089844 36.589844 24.242188 36.726562 C 24.398438 36.863281 24.601562 36.925781 24.804688 36.898438 L 39.195312 35.101562 C 39.65625 35.042969 40 34.652344 40 34.1875 L 40 31.8125 C 40 31.605469 39.910156 31.410156 39.757812 31.273438 C 39.601562 31.136719 39.398438 31.074219 39.195312 31.101562 Z M 39.195312 38.101562 L 24.804688 39.898438 C 24.34375 39.957031 24 40.347656 24 40.8125 L 24 43.1875 C 24 43.394531 24.089844 43.589844 24.242188 43.726562 C 24.398438 43.863281 24.601562 43.925781 24.804688 43.898438 L 39.195312 42.101562 C 39.65625 42.042969 40 41.652344 40 41.1875 L 40 38.8125 C 40 38.605469 39.910156 38.410156 39.757812 38.273438 C 39.601562 38.136719 39.398438 38.074219 39.195312 38.101562 Z M 39.195312 38.101562 "/>
<path style=" stroke:none;fill-rule:nonzero;fill:rgb(93.725491%,60.392159%,60.392159%);fill-opacity:0.996078;" d="M 39.195312 24.101562 L 24.804688 25.898438 C 24.34375 25.957031 24 26.347656 24 26.8125 L 24 29.1875 C 24 29.394531 24.089844 29.589844 24.242188 29.726562 C 24.398438 29.863281 24.601562 29.925781 24.804688 29.898438 L 39.195312 28.101562 C 39.65625 28.042969 40 27.652344 40 27.1875 L 40 24.8125 C 40 24.605469 39.910156 24.410156 39.757812 24.273438 C 39.601562 24.136719 39.398438 24.074219 39.195312 24.101562 Z M 39.195312 31.101562 L 24.804688 32.898438 C 24.34375 32.957031 24 33.347656 24 33.8125 L 24 36.1875 C 24 36.394531 24.089844 36.589844 24.242188 36.726562 C 24.398438 36.863281 24.601562 36.925781 24.804688 36.898438 L 39.195312 35.101562 C 39.65625 35.042969 40 34.652344 40 34.1875 L 40 31.8125 C 40 31.605469 39.910156 31.410156 39.757812 31.273438 C 39.601562 31.136719 39.398438 31.074219 39.195312 31.101562 Z M 39.195312 38.101562 L 24.804688 39.898438 C 24.34375 39.957031 24 40.347656 24 40.8125 L 24 43.1875 C 24 43.394531 24.089844 43.589844 24.242188 43.726562 C 24.398438 43.863281 24.601562 43.925781 24.804688 43.898438 L 39.195312 42.101562 C 39.65625 42.042969 40 41.652344 40 41.1875 L 40 38.8125 C 40 38.605469 39.910156 38.410156 39.757812 38.273438 C 39.601562 38.136719 39.398438 38.074219 39.195312 38.101562 Z M 39.195312 38.101562 "/>
<path style=" stroke:none;fill-rule:nonzero;fill:rgb(100%,100%,100%);fill-opacity:0.4;" d="M 39.328125 24.097656 C 39.28125 24.09375 39.238281 24.097656 39.191406 24.101562 L 24.808594 25.898438 C 24.34375 25.957031 24 26.347656 24 26.8125 L 24 27.308594 C 24 26.84375 24.347656 26.453125 24.808594 26.394531 L 39.191406 24.597656 C 39.398438 24.570312 39.601562 24.636719 39.757812 24.769531 C 39.910156 24.90625 40 25.101562 40 25.308594 L 40 24.8125 C 40 24.433594 39.707031 24.121094 39.328125 24.097656 Z M 39.328125 31.097656 C 39.28125 31.09375 39.238281 31.097656 39.191406 31.101562 L 24.808594 32.898438 C 24.34375 32.957031 24 33.347656 24 33.8125 L 24 34.308594 C 24 33.84375 24.347656 33.453125 24.808594 33.394531 L 39.191406 31.597656 C 39.398438 31.570312 39.601562 31.636719 39.757812 31.769531 C 39.910156 31.90625 40 32.101562 40 32.308594 L 40 31.8125 C 40 31.433594 39.707031 31.121094 39.328125 31.097656 Z M 39.328125 38.097656 C 39.28125 38.09375 39.238281 38.097656 39.191406 38.101562 L 24.808594 39.898438 C 24.34375 39.957031 24 40.347656 24 40.8125 L 24 41.308594 C 24 40.84375 24.347656 40.453125 24.808594 40.394531 L 39.191406 38.597656 C 39.398438 38.570312 39.601562 38.636719 39.757812 38.769531 C 39.910156 38.90625 40 39.101562 40 39.308594 L 40 38.8125 C 40 38.433594 39.707031 38.121094 39.328125 38.097656 Z M 39.328125 38.097656 "/>
<path style=" stroke:none;fill-rule:nonzero;fill:rgb(0.392157%,0.392157%,0.392157%);fill-opacity:0.4;" d="M 24.671875 44.394531 C 24.71875 44.398438 24.761719 44.394531 24.804688 44.390625 L 39.191406 42.59375 C 39.65625 42.535156 40 42.144531 40 41.679688 L 40 41.183594 C 40 41.648438 39.652344 42.039062 39.191406 42.09375 L 24.804688 43.894531 C 24.601562 43.921875 24.398438 43.855469 24.242188 43.722656 C 24.089844 43.585938 24 43.390625 24 43.183594 L 24 43.679688 C 24 44.058594 24.292969 44.371094 24.671875 44.394531 Z M 24.671875 37.394531 C 24.71875 37.398438 24.761719 37.394531 24.804688 37.390625 L 39.191406 35.59375 C 39.65625 35.535156 40 35.144531 40 34.679688 L 40 34.183594 C 40 34.648438 39.652344 35.039062 39.191406 35.097656 L 24.804688 36.894531 C 24.601562 36.921875 24.398438 36.855469 24.242188 36.722656 C 24.089844 36.585938 24 36.390625 24 36.183594 L 24 36.679688 C 24 37.058594 24.292969 37.371094 24.671875 37.394531 Z M 24.671875 30.394531 C 24.71875 30.398438 24.761719 30.394531 24.804688 30.390625 L 39.191406 28.59375 C 39.65625 28.535156 40 28.144531 40 27.679688 L 40 27.183594 C 40 27.648438 39.652344 28.039062 39.191406 28.097656 L 24.804688 29.894531 C 24.601562 29.921875 24.398438 29.855469 24.242188 29.722656 C 24.089844 29.585938 24 29.390625 24 29.183594 L 24 29.679688 C 24 30.058594 24.292969 30.371094 24.671875 30.394531 Z M 24.671875 30.394531 "/>
<path style=" stroke:none;fill-rule:nonzero;fill:url(#linear0);" d="M 40 4 L 13 4 C 11.339844 4 10 5.339844 10 7 L 10 57 C 10 58.660156 11.339844 60 13 60 L 51 60 C 52.660156 60 54 58.660156 54 57 L 54 18 Z M 40 4 "/>
</g>
</svg>
