
<svg xmlns="http://www.w3.org/2000/svg" xmlns:xlink="http://www.w3.org/1999/xlink" width="48" height="48" viewBox="0 0 48 48" version="1.1">
<defs>
<linearGradient id="linear0" gradientUnits="userSpaceOnUse" x1="31.999998" y1="60" x2="31.999998" y2="4" gradientTransform="matrix(0.75,0,0,0.75,-0.00000204095,0.000000000000085265)">
<stop offset="0" style="stop-color:rgb(0%,0%,0%);stop-opacity:0.2;"/>
<stop offset="1" style="stop-color:rgb(100%,100%,100%);stop-opacity:0;"/>
</linearGradient>
</defs>
<g id="surface1">
<path style=" stroke:none;fill-rule:nonzero;fill:rgb(87.843138%,87.843138%,87.843138%);fill-opacity:1;" d="M 30 3 L 9.75 3 C 8.503906 3 7.5 4.003906 7.5 5.25 L 7.5 42.75 C 7.5 43.996094 8.503906 45 9.75 45 L 38.25 45 C 39.496094 45 40.5 43.996094 40.5 42.75 L 40.5 13.5 Z M 30 3 "/>
<path style=" stroke:none;fill-rule:nonzero;fill:rgb(0%,0%,0%);fill-opacity:0.4;" d="M 30 11.25 L 30 12 C 30 13.246094 31.003906 14.25 32.25 14.25 L 40.5 14.25 L 39.75 13.5 L 32.25 13.5 C 31.003906 13.5 30 12.496094 30 11.25 Z M 30 11.25 "/>
<path style=" stroke:none;fill-rule:nonzero;fill:rgb(93.333334%,93.333334%,93.333334%);fill-opacity:0.996078;" d="M 40.5 13.5 L 30 3 L 30 11.25 C 30 12.496094 31.003906 13.5 32.25 13.5 Z M 40.5 13.5 "/>
<path style=" stroke:none;fill-rule:nonzero;fill:rgb(100%,100%,100%);fill-opacity:0.4;" d="M 9.75 3 C 8.503906 3 7.5 4.003906 7.5 5.25 L 7.5 6 C 7.5 4.753906 8.503906 3.75 9.75 3.75 L 30 3.75 L 40.5 14.25 L 40.5 13.5 L 30 3 Z M 9.75 3 "/>
<path style=" stroke:none;fill-rule:nonzero;fill:rgb(0%,0%,0%);fill-opacity:0.2;" d="M 7.5 42.738281 L 7.5 43.875 C 7.5 45.121094 8.503906 46.125 9.75 46.125 L 38.25 46.125 C 39.496094 46.125 40.5 45.121094 40.5 43.875 L 40.5 42.738281 C 40.5 43.984375 39.496094 44.988281 38.25 44.988281 L 9.75 44.988281 C 8.503906 44.988281 7.5 43.984375 7.5 42.738281 Z M 7.5 42.738281 "/>
<path style=" stroke:none;fill-rule:nonzero;fill:rgb(0%,0%,0%);fill-opacity:0.4;" d="M 7.5 42.09375 L 7.5 42.75 C 7.5 43.996094 8.503906 45 9.75 45 L 38.25 45 C 39.496094 45 40.5 43.996094 40.5 42.75 L 40.5 42.09375 C 40.5 43.339844 39.496094 44.34375 38.25 44.34375 L 9.75 44.34375 C 8.503906 44.34375 7.5 43.339844 7.5 42.09375 Z M 7.5 42.09375 "/>
<path style=" stroke:none;fill-rule:nonzero;fill:rgb(38.039216%,38.039216%,38.039216%);fill-opacity:1;" d="M 18.75 18 C 18.335938 18 18 18.335938 18 18.75 L 18 21.75 C 18 22.164062 18.335938 22.5 18.75 22.5 C 19.164062 22.5 19.5 22.164062 19.5 21.75 L 19.5 19.5 L 28.5 19.5 L 28.5 21.75 C 28.5 22.164062 28.835938 22.5 29.25 22.5 C 29.664062 22.5 30 22.164062 30 21.75 L 30 18.75 C 30 18.335938 29.664062 18 29.25 18 Z M 22.5 21 C 21.667969 21 21 21.667969 21 22.5 L 21 28.5 L 18 28.5 L 24 33 L 30 28.5 L 27 28.5 L 27 22.5 C 27 21.667969 26.332031 21 25.5 21 Z M 22.5 21 "/>
<path style=" stroke:none;fill-rule:nonzero;fill:rgb(100%,100%,100%);fill-opacity:0.4;" d="M 18.75 18 C 18.335938 18 18 18.335938 18 18.75 L 18 19.125 C 18 18.710938 18.335938 18.375 18.75 18.375 L 29.25 18.375 C 29.664062 18.375 30 18.710938 30 19.125 L 30 18.75 C 30 18.335938 29.664062 18 29.25 18 Z M 22.5 21 C 21.667969 21 21 21.667969 21 22.5 L 21 22.875 C 21 22.042969 21.667969 21.375 22.5 21.375 L 25.5 21.375 C 26.332031 21.375 27 22.042969 27 22.875 L 27 22.5 C 27 21.667969 26.332031 21 25.5 21 Z M 18 28.5 L 18.5 28.875 L 21 28.875 L 21 28.5 Z M 27 28.5 L 27 28.875 L 29.5 28.875 L 30 28.5 Z M 27 28.5 "/>
<path style=" stroke:none;fill-rule:nonzero;fill:rgb(0%,0%,0%);fill-opacity:0.4;" d="M 19.5 19.5 L 19.5 19.875 L 28.5 19.875 L 28.5 19.5 Z M 18 21.75 L 18 22.125 C 18 22.539062 18.335938 22.875 18.75 22.875 C 19.164062 22.875 19.5 22.539062 19.5 22.125 L 19.5 21.75 C 19.5 22.164062 19.164062 22.5 18.75 22.5 C 18.335938 22.5 18 22.164062 18 21.75 Z M 28.5 21.75 L 28.5 22.125 C 28.5 22.539062 28.835938 22.875 29.25 22.875 C 29.664062 22.875 30 22.539062 30 22.125 L 30 21.75 C 30 22.164062 29.664062 22.5 29.25 22.5 C 28.835938 22.5 28.5 22.164062 28.5 21.75 Z M 18 28.875 L 24 33.375 L 30 28.875 L 29.5 28.875 L 24 33 L 18.5 28.875 Z M 18 28.875 "/>
<path style=" stroke:none;fill-rule:nonzero;fill:url(#linear0);" d="M 30 3 L 9.75 3 C 8.503906 3 7.5 4.003906 7.5 5.25 L 7.5 42.75 C 7.5 43.996094 8.503906 45 9.75 45 L 38.25 45 C 39.496094 45 40.5 43.996094 40.5 42.75 L 40.5 13.5 Z M 30 3 "/>
</g>
</svg>
