
<svg xmlns="http://www.w3.org/2000/svg" xmlns:xlink="http://www.w3.org/1999/xlink" width="48" height="48" viewBox="0 0 48 48" version="1.1">
<defs>
<linearGradient id="linear0" gradientUnits="userSpaceOnUse" x1="31.999998" y1="60" x2="31.999998" y2="4" gradientTransform="matrix(0.75,0,0,0.75,0,0.000000000000085265)">
<stop offset="0" style="stop-color:rgb(0%,0%,0%);stop-opacity:0.2;"/>
<stop offset="1" style="stop-color:rgb(100%,100%,100%);stop-opacity:0;"/>
</linearGradient>
</defs>
<g id="surface1">
<path style=" stroke:none;fill-rule:nonzero;fill:rgb(100%,65.490198%,14.901961%);fill-opacity:1;" d="M 30 3 L 9.75 3 C 8.503906 3 7.5 4.003906 7.5 5.25 L 7.5 42.75 C 7.5 43.996094 8.503906 45 9.75 45 L 38.25 45 C 39.496094 45 40.5 43.996094 40.5 42.75 L 40.5 13.5 Z M 30 3 "/>
<path style=" stroke:none;fill-rule:nonzero;fill:rgb(0%,0%,0%);fill-opacity:0.4;" d="M 30 11.25 L 30 12 C 30 13.246094 31.003906 14.25 32.25 14.25 L 40.5 14.25 L 39.75 13.5 L 32.25 13.5 C 31.003906 13.5 30 12.496094 30 11.25 Z M 30 11.25 "/>
<path style=" stroke:none;fill-rule:nonzero;fill:rgb(100%,71.764708%,30.19608%);fill-opacity:0.996078;" d="M 40.5 13.5 L 30 3 L 30 11.25 C 30 12.496094 31.003906 13.5 32.25 13.5 Z M 40.5 13.5 "/>
<path style=" stroke:none;fill-rule:nonzero;fill:rgb(100%,100%,100%);fill-opacity:0.4;" d="M 9.75 3 C 8.503906 3 7.5 4.003906 7.5 5.25 L 7.5 6 C 7.5 4.753906 8.503906 3.75 9.75 3.75 L 30 3.75 L 40.5 14.25 L 40.5 13.5 L 30 3 Z M 9.75 3 "/>
<path style=" stroke:none;fill-rule:nonzero;fill:rgb(0%,0%,0%);fill-opacity:0.2;" d="M 7.5 42.738281 L 7.5 43.875 C 7.5 45.121094 8.503906 46.125 9.75 46.125 L 38.25 46.125 C 39.496094 46.125 40.5 45.121094 40.5 43.875 L 40.5 42.738281 C 40.5 43.984375 39.496094 44.988281 38.25 44.988281 L 9.75 44.988281 C 8.503906 44.988281 7.5 43.984375 7.5 42.738281 Z M 7.5 42.738281 "/>
<path style=" stroke:none;fill-rule:nonzero;fill:rgb(0%,0%,0%);fill-opacity:0.4;" d="M 7.5 42.09375 L 7.5 42.75 C 7.5 43.996094 8.503906 45 9.75 45 L 38.25 45 C 39.496094 45 40.5 43.996094 40.5 42.75 L 40.5 42.09375 C 40.5 43.339844 39.496094 44.34375 38.25 44.34375 L 9.75 44.34375 C 8.503906 44.34375 7.5 43.339844 7.5 42.09375 Z M 7.5 42.09375 "/>
<path style=" stroke:none;fill-rule:nonzero;fill:rgb(100%,80.000001%,50.196081%);fill-opacity:1;" d="M 22.125 18 C 21.179688 18 20.421875 18.53125 20.421875 19.191406 C 20.421875 19.875 22.125 20.558594 20.421875 21.75 L 17.523438 21.75 C 16.957031 21.75 16.5 22.207031 16.5 22.773438 L 16.5 25.671875 C 17.691406 27.375 18.375 25.671875 19.058594 25.671875 C 19.71875 25.671875 20.25 26.429688 20.25 27.375 C 20.25 28.320312 19.71875 29.078125 19.058594 29.078125 C 18.375 29.078125 17.691406 27.375 16.5 29.078125 L 16.5 31.976562 C 16.5 32.542969 16.957031 33 17.523438 33 L 20.421875 33 C 22.125 31.808594 20.421875 31.125 20.421875 30.441406 C 20.421875 29.78125 21.179688 29.25 22.125 29.25 C 23.070312 29.25 23.828125 29.78125 23.828125 30.441406 C 23.828125 31.125 22.125 31.808594 23.828125 33 L 26.726562 33 C 27.292969 33 27.75 32.542969 27.75 31.976562 L 27.75 29.078125 C 28.941406 27.375 29.625 29.078125 30.308594 29.078125 C 30.96875 29.078125 31.5 28.320312 31.5 27.375 C 31.5 26.429688 30.96875 25.671875 30.308594 25.671875 C 29.625 25.671875 28.941406 27.375 27.75 25.671875 L 27.75 22.773438 C 27.75 22.207031 27.292969 21.75 26.726562 21.75 L 23.828125 21.75 C 22.125 20.558594 23.828125 19.875 23.828125 19.191406 C 23.828125 18.53125 23.070312 18 22.125 18 Z M 22.125 18 "/>
<path style=" stroke:none;fill-rule:nonzero;fill:rgb(100%,100%,100%);fill-opacity:0.4;" d="M 22.125 18 C 21.179688 18 20.417969 18.53125 20.417969 19.195312 C 20.417969 19.246094 20.429688 19.296875 20.449219 19.351562 C 20.59375 18.792969 21.285156 18.375 22.125 18.375 C 22.964844 18.375 23.65625 18.792969 23.800781 19.351562 C 23.820312 19.296875 23.832031 19.246094 23.832031 19.195312 C 23.832031 18.53125 23.070312 18 22.125 18 Z M 21.152344 20.894531 C 21.085938 21.148438 20.875 21.429688 20.417969 21.75 L 17.523438 21.75 C 16.957031 21.75 16.5 22.207031 16.5 22.773438 L 16.5 23.148438 C 16.5 22.582031 16.957031 22.125 17.523438 22.125 L 20.417969 22.125 C 21.109375 21.640625 21.242188 21.242188 21.152344 20.894531 Z M 23.097656 20.894531 C 23.007812 21.242188 23.140625 21.640625 23.832031 22.125 L 26.726562 22.125 C 27.292969 22.125 27.75 22.582031 27.75 23.148438 L 27.75 22.773438 C 27.75 22.207031 27.292969 21.75 26.726562 21.75 L 23.832031 21.75 C 23.375 21.429688 23.164062 21.148438 23.097656 20.894531 Z M 27.75 25.667969 L 27.75 26.042969 C 28.941406 27.75 29.625 26.042969 30.304688 26.042969 C 30.921875 26.042969 31.425781 26.707031 31.492188 27.5625 C 31.496094 27.5 31.5 27.4375 31.5 27.375 C 31.5 26.429688 30.96875 25.667969 30.304688 25.667969 C 29.625 25.667969 28.941406 27.375 27.75 25.667969 Z M 20.242188 27.5625 C 20.175781 28.417969 19.671875 29.082031 19.054688 29.082031 C 18.375 29.082031 17.691406 27.375 16.5 29.082031 L 16.5 29.457031 C 17.691406 27.75 18.375 29.457031 19.054688 29.457031 C 19.71875 29.457031 20.25 28.695312 20.25 27.75 C 20.25 27.6875 20.246094 27.625 20.242188 27.5625 Z M 20.449219 30.601562 C 20.429688 30.671875 20.417969 30.746094 20.417969 30.820312 C 20.417969 31.222656 21.023438 31.628906 21.152344 32.144531 C 21.316406 31.515625 20.601562 31.050781 20.449219 30.601562 Z M 23.800781 30.601562 C 23.648438 31.050781 22.933594 31.515625 23.097656 32.144531 C 23.226562 31.628906 23.832031 31.222656 23.832031 30.820312 C 23.832031 30.746094 23.820312 30.671875 23.800781 30.601562 Z M 23.800781 30.601562 "/>
<path style=" stroke:none;fill-rule:nonzero;fill:rgb(0%,0%,0%);fill-opacity:0.4;" d="M 20.449219 19.351562 C 20.429688 19.421875 20.417969 19.496094 20.417969 19.570312 C 20.417969 19.972656 21.023438 20.378906 21.152344 20.894531 C 21.316406 20.265625 20.601562 19.800781 20.449219 19.351562 Z M 23.800781 19.351562 C 23.648438 19.800781 22.933594 20.265625 23.097656 20.894531 C 23.226562 20.378906 23.832031 19.972656 23.832031 19.570312 C 23.832031 19.496094 23.820312 19.421875 23.800781 19.351562 Z M 16.5 25.667969 L 16.5 26.042969 C 17.691406 27.75 18.375 26.042969 19.054688 26.042969 C 19.671875 26.042969 20.175781 26.707031 20.242188 27.5625 C 20.246094 27.5 20.25 27.4375 20.25 27.375 C 20.25 26.429688 19.71875 25.667969 19.054688 25.667969 C 18.375 25.667969 17.691406 27.375 16.5 25.667969 Z M 31.492188 27.5625 C 31.425781 28.417969 30.921875 29.082031 30.304688 29.082031 C 29.625 29.082031 28.941406 27.375 27.75 29.082031 L 27.75 29.457031 C 28.941406 27.75 29.625 29.457031 30.304688 29.457031 C 30.96875 29.457031 31.5 28.695312 31.5 27.75 C 31.5 27.6875 31.496094 27.625 31.492188 27.5625 Z M 22.125 29.25 C 21.179688 29.25 20.417969 29.78125 20.417969 30.445312 C 20.417969 30.496094 20.429688 30.546875 20.449219 30.601562 C 20.59375 30.042969 21.285156 29.625 22.125 29.625 C 22.964844 29.625 23.65625 30.042969 23.800781 30.601562 C 23.820312 30.546875 23.832031 30.496094 23.832031 30.445312 C 23.828125 29.78125 23.070312 29.25 22.125 29.25 Z M 16.5 31.976562 L 16.5 32.351562 C 16.5 32.917969 16.957031 33.375 17.523438 33.375 L 20.417969 33.375 C 21.109375 32.890625 21.242188 32.492188 21.152344 32.144531 C 21.085938 32.398438 20.875 32.679688 20.417969 33 L 17.523438 33 C 16.957031 33 16.5 32.542969 16.5 31.976562 Z M 27.75 31.976562 C 27.75 32.542969 27.292969 33 26.726562 33 L 23.832031 33 C 23.375 32.679688 23.164062 32.398438 23.097656 32.144531 C 23.007812 32.492188 23.140625 32.890625 23.832031 33.375 L 26.726562 33.375 C 27.292969 33.375 27.75 32.917969 27.75 32.351562 Z M 27.75 31.976562 "/>
<path style=" stroke:none;fill-rule:nonzero;fill:url(#linear0);" d="M 30 3 L 9.75 3 C 8.503906 3 7.5 4.003906 7.5 5.25 L 7.5 42.75 C 7.5 43.996094 8.503906 45 9.75 45 L 38.25 45 C 39.496094 45 40.5 43.996094 40.5 42.75 L 40.5 13.5 Z M 30 3 "/>
</g>
</svg>
