
<svg xmlns="http://www.w3.org/2000/svg" xmlns:xlink="http://www.w3.org/1999/xlink" width="16" height="16" viewBox="0 0 16 16" version="1.1">
<defs>
<linearGradient id="linear0" gradientUnits="userSpaceOnUse" x1="31.999998" y1="60" x2="31.999998" y2="4" gradientTransform="matrix(0.25,0,0,0.25,-0.000000680315,0)">
<stop offset="0" style="stop-color:rgb(0%,0%,0%);stop-opacity:0.2;"/>
<stop offset="1" style="stop-color:rgb(100%,100%,100%);stop-opacity:0;"/>
</linearGradient>
</defs>
<g id="surface1">
<path style=" stroke:none;fill-rule:nonzero;fill:rgb(38.039216%,38.039216%,38.039216%);fill-opacity:1;" d="M 10 1 L 3.25 1 C 2.835938 1 2.5 1.335938 2.5 1.75 L 2.5 14.25 C 2.5 14.664062 2.835938 15 3.25 15 L 12.75 15 C 13.164062 15 13.5 14.664062 13.5 14.25 L 13.5 4.5 Z M 10 1 "/>
<path style=" stroke:none;fill-rule:nonzero;fill:rgb(0%,0%,0%);fill-opacity:0.4;" d="M 10 3.75 L 10 4 C 10 4.414062 10.335938 4.75 10.75 4.75 L 13.5 4.75 L 13.25 4.5 L 10.75 4.5 C 10.335938 4.5 10 4.164062 10 3.75 Z M 10 3.75 "/>
<path style=" stroke:none;fill-rule:nonzero;fill:rgb(45.882353%,45.882353%,45.882353%);fill-opacity:0.996078;" d="M 13.5 4.5 L 10 1 L 10 3.75 C 10 4.164062 10.335938 4.5 10.75 4.5 Z M 13.5 4.5 "/>
<path style=" stroke:none;fill-rule:nonzero;fill:rgb(100%,100%,100%);fill-opacity:0.4;" d="M 3.25 1 C 2.835938 1 2.5 1.335938 2.5 1.75 L 2.5 2 C 2.5 1.585938 2.835938 1.25 3.25 1.25 L 10 1.25 L 13.5 4.75 L 13.5 4.5 L 10 1 Z M 3.25 1 "/>
<path style=" stroke:none;fill-rule:nonzero;fill:rgb(0%,0%,0%);fill-opacity:0.2;" d="M 2.5 14.246094 L 2.5 14.625 C 2.5 15.039062 2.835938 15.375 3.25 15.375 L 12.75 15.375 C 13.164062 15.375 13.5 15.039062 13.5 14.625 L 13.5 14.246094 C 13.5 14.660156 13.164062 14.996094 12.75 14.996094 L 3.25 14.996094 C 2.835938 14.996094 2.5 14.660156 2.5 14.246094 Z M 2.5 14.246094 "/>
<path style=" stroke:none;fill-rule:nonzero;fill:rgb(0%,0%,0%);fill-opacity:0.4;" d="M 2.5 14.03125 L 2.5 14.25 C 2.5 14.664062 2.835938 15 3.25 15 L 12.75 15 C 13.164062 15 13.5 14.664062 13.5 14.25 L 13.5 14.03125 C 13.5 14.445312 13.164062 14.78125 12.75 14.78125 L 3.25 14.78125 C 2.835938 14.78125 2.5 14.445312 2.5 14.03125 Z M 2.5 14.03125 "/>
<path style=" stroke:none;fill-rule:nonzero;fill:rgb(61.960787%,61.960787%,61.960787%);fill-opacity:1;" d="M 5.75 6 C 5.613281 6 5.5 6.113281 5.5 6.25 L 5.5 8.148438 L 7.644531 6 Z M 8.355469 6 L 8.175781 6.175781 L 5.5 8.851562 L 5.5 10.644531 L 10.144531 6 Z M 8.175781 8.675781 L 5.851562 11 L 10.25 11 C 10.320312 11 10.382812 10.972656 10.425781 10.925781 Z M 8.175781 8.675781 "/>
<path style=" stroke:none;fill-rule:nonzero;fill:rgb(100%,100%,100%);fill-opacity:0.4;" d="M 5.75 6 C 5.613281 6 5.5 6.113281 5.5 6.25 L 5.5 6.375 C 5.5 6.238281 5.613281 6.125 5.75 6.125 L 7.519531 6.125 L 7.644531 6 Z M 8.355469 6 L 8.175781 6.175781 L 5.5 8.851562 L 5.5 8.976562 L 8.175781 6.300781 L 8.355469 6.125 L 10.019531 6.125 L 10.144531 6 Z M 8.175781 8.675781 L 5.851562 11 L 5.976562 11 L 8.175781 8.800781 L 10.351562 10.976562 C 10.378906 10.964844 10.40625 10.949219 10.425781 10.925781 Z M 8.175781 8.675781 "/>
<path style=" stroke:none;fill-rule:nonzero;fill:rgb(0%,0%,0%);fill-opacity:0.4;" d="M 7.519531 6.125 L 5.5 8.148438 L 5.5 8.273438 L 7.644531 6.125 Z M 10.019531 6.125 L 5.5 10.644531 L 5.5 10.769531 L 10.144531 6.125 Z M 10.351562 10.976562 C 10.320312 10.992188 10.285156 11 10.25 11 L 5.976562 11 L 5.851562 11.125 L 10.25 11.125 C 10.320312 11.125 10.382812 11.097656 10.425781 11.050781 Z M 10.351562 10.976562 "/>
<path style=" stroke:none;fill-rule:nonzero;fill:url(#linear0);" d="M 10 1 L 3.25 1 C 2.835938 1 2.5 1.335938 2.5 1.75 L 2.5 14.25 C 2.5 14.664062 2.835938 15 3.25 15 L 12.75 15 C 13.164062 15 13.5 14.664062 13.5 14.25 L 13.5 4.5 Z M 10 1 "/>
</g>
</svg>
