
<svg xmlns="http://www.w3.org/2000/svg" xmlns:xlink="http://www.w3.org/1999/xlink" width="16" height="16" viewBox="0 0 16 16" version="1.1">
<defs>
<linearGradient id="linear0" gradientUnits="userSpaceOnUse" x1="8.466666" y1="-199.125" x2="8.466666" y2="-213.941666" gradientTransform="matrix(0.944882,0,0,0.944882,0,203.149617)">
<stop offset="0" style="stop-color:rgb(0%,0%,0%);stop-opacity:0.2;"/>
<stop offset="1" style="stop-color:rgb(100%,100%,100%);stop-opacity:0;"/>
</linearGradient>
</defs>
<g id="surface1">
<path style=" stroke:none;fill-rule:nonzero;fill:rgb(38.039216%,38.039216%,38.039216%);fill-opacity:1;" d="M 8 1 C 11.867188 1 15 4.132812 15 8 C 15 11.867188 11.867188 15 8 15 C 4.132812 15 1 11.867188 1 8 C 1 4.132812 4.132812 1 8 1 Z M 8 1 "/>
<path style=" stroke:none;fill-rule:nonzero;fill:rgb(100%,100%,100%);fill-opacity:0.4;" d="M 8 1 C 4.132812 1 1 4.132812 1 8 C 1 8.042969 1 8.082031 1 8.125 C 1.070312 4.316406 4.175781 1.25 8 1.25 C 11.824219 1.25 14.929688 4.316406 15 8.125 C 15 8.082031 15 8.042969 15 8 C 15 4.132812 11.867188 1 8 1 Z M 8 1 "/>
<path style=" stroke:none;fill-rule:nonzero;fill:rgb(0%,0%,0%);fill-opacity:0.4;" d="M 1.003906 7.875 C 1.003906 7.914062 1 7.957031 1 7.996094 C 1 11.863281 4.132812 14.996094 8 14.996094 C 11.867188 14.996094 15 11.863281 15 7.996094 C 15 7.957031 14.996094 7.914062 14.996094 7.875 C 14.929688 11.679688 11.824219 14.75 8 14.75 C 4.175781 14.75 1.070312 11.679688 1.003906 7.875 Z M 1.003906 7.875 "/>
<path style=" stroke:none;fill-rule:nonzero;fill:rgb(0%,0%,0%);fill-opacity:0.2;" d="M 1.003906 8.1875 C 1 8.25 1 8.3125 1 8.375 C 1 12.242188 4.132812 15.375 8 15.375 C 11.867188 15.375 15 12.242188 15 8.375 C 15 8.3125 15 8.25 14.996094 8.1875 C 14.898438 11.964844 11.804688 15 8 15 C 4.195312 15 1.101562 11.964844 1.003906 8.1875 Z M 1.003906 8.1875 "/>
<path style=" stroke:none;fill-rule:nonzero;fill:rgb(93.333334%,93.333334%,93.333334%);fill-opacity:1;" d="M 7.5 2.5 C 7.222656 2.5 7 2.722656 7 3 L 7 6.695312 L 3.429688 5.738281 C 3.160156 5.667969 2.886719 5.828125 2.816406 6.09375 L 2.558594 7.058594 C 2.488281 7.328125 2.644531 7.601562 2.910156 7.671875 L 6.484375 8.628906 L 4.632812 11.828125 C 4.496094 12.070312 4.578125 12.375 4.816406 12.511719 L 5.683594 13.011719 C 5.921875 13.152344 6.226562 13.070312 6.367188 12.828125 L 8 10 L 9.632812 12.828125 C 9.773438 13.070312 10.078125 13.152344 10.316406 13.011719 L 11.183594 12.511719 C 11.421875 12.375 11.503906 12.070312 11.367188 11.828125 L 9.515625 8.628906 L 13.089844 7.671875 C 13.355469 7.601562 13.511719 7.328125 13.441406 7.058594 L 13.183594 6.09375 C 13.113281 5.828125 12.839844 5.667969 12.570312 5.738281 L 9 6.695312 L 9 3 C 9 2.722656 8.777344 2.5 8.5 2.5 Z M 7.5 2.5 "/>
<path style=" stroke:none;fill-rule:nonzero;fill:rgb(100%,100%,100%);fill-opacity:0.6;" d="M 7.5 2.5 C 7.222656 2.5 7 2.722656 7 3 L 7 3.25 C 7 2.972656 7.222656 2.75 7.5 2.75 L 8.5 2.75 C 8.777344 2.75 9 2.972656 9 3.25 L 9 3 C 9 2.722656 8.777344 2.5 8.5 2.5 Z M 3.328125 5.722656 C 3.097656 5.710938 2.878906 5.859375 2.816406 6.09375 L 2.558594 7.058594 C 2.535156 7.144531 2.539062 7.230469 2.558594 7.3125 C 2.558594 7.308594 2.558594 7.308594 2.558594 7.308594 L 2.816406 6.34375 C 2.886719 6.078125 3.160156 5.917969 3.429688 5.988281 L 7 6.945312 L 7 6.695312 L 3.429688 5.738281 C 3.394531 5.730469 3.363281 5.726562 3.328125 5.722656 Z M 12.671875 5.722656 C 12.636719 5.726562 12.605469 5.730469 12.570312 5.738281 L 9 6.695312 L 9 6.945312 L 12.570312 5.988281 C 12.839844 5.917969 13.113281 6.078125 13.183594 6.34375 L 13.441406 7.308594 C 13.441406 7.308594 13.441406 7.308594 13.441406 7.3125 C 13.460938 7.230469 13.464844 7.144531 13.441406 7.058594 L 13.183594 6.09375 C 13.121094 5.859375 12.902344 5.710938 12.671875 5.722656 Z M 6.359375 8.84375 L 4.632812 11.828125 C 4.566406 11.949219 4.550781 12.082031 4.582031 12.207031 C 4.59375 12.164062 4.609375 12.121094 4.632812 12.078125 L 6.484375 8.878906 Z M 9.640625 8.84375 L 9.515625 8.878906 L 11.367188 12.078125 C 11.390625 12.121094 11.40625 12.164062 11.417969 12.207031 C 11.449219 12.082031 11.433594 11.949219 11.367188 11.828125 Z M 9.640625 8.84375 "/>
<path style=" stroke:none;fill-rule:nonzero;fill:rgb(0%,0%,0%);fill-opacity:0.4;" d="M 2.558594 7.316406 C 2.488281 7.582031 2.644531 7.851562 2.910156 7.921875 L 6.359375 8.84375 L 6.484375 8.628906 L 2.910156 7.671875 C 2.730469 7.625 2.601562 7.484375 2.558594 7.316406 Z M 13.441406 7.316406 C 13.398438 7.484375 13.269531 7.625 13.089844 7.671875 L 9.515625 8.628906 L 9.640625 8.84375 L 13.089844 7.921875 C 13.355469 7.851562 13.511719 7.582031 13.441406 7.316406 Z M 8 10 L 6.367188 12.828125 C 6.226562 13.070312 5.921875 13.152344 5.683594 13.011719 L 4.816406 12.511719 C 4.695312 12.441406 4.613281 12.332031 4.582031 12.207031 C 4.527344 12.417969 4.617188 12.648438 4.816406 12.761719 L 5.683594 13.261719 C 5.921875 13.402344 6.226562 13.320312 6.367188 13.078125 L 8 10.25 L 9.632812 13.078125 C 9.773438 13.320312 10.078125 13.402344 10.316406 13.261719 L 11.183594 12.761719 C 11.382812 12.648438 11.472656 12.417969 11.417969 12.207031 C 11.386719 12.332031 11.304688 12.441406 11.183594 12.511719 L 10.316406 13.011719 C 10.078125 13.152344 9.773438 13.070312 9.632812 12.828125 Z M 8 10 "/>
<path style=" stroke:none;fill-rule:nonzero;fill:url(#linear0);" d="M 8 1 C 11.867188 1 15 4.132812 15 8 C 15 11.867188 11.867188 15 8 15 C 4.132812 15 1 11.867188 1 8 C 1 4.132812 4.132812 1 8 1 Z M 8 1 "/>
</g>
</svg>
