
<svg xmlns="http://www.w3.org/2000/svg" xmlns:xlink="http://www.w3.org/1999/xlink" width="16" height="16" viewBox="0 0 16 16" version="1.1">
<defs>
<linearGradient id="linear0" gradientUnits="userSpaceOnUse" x1="31.999998" y1="60" x2="31.999998" y2="4" gradientTransform="matrix(0.25,0,0,0.25,0,0)">
<stop offset="0" style="stop-color:rgb(0%,0%,0%);stop-opacity:0.2;"/>
<stop offset="1" style="stop-color:rgb(100%,100%,100%);stop-opacity:0;"/>
</linearGradient>
</defs>
<g id="surface1">
<path style=" stroke:none;fill-rule:nonzero;fill:rgb(38.039216%,38.039216%,38.039216%);fill-opacity:0.996078;" d="M 1.25 13.5 L 14.75 13.5 C 14.886719 13.5 15 13.613281 15 13.75 C 15 13.886719 14.886719 14 14.75 14 L 1.25 14 C 1.113281 14 1 13.886719 1 13.75 C 1 13.613281 1.113281 13.5 1.25 13.5 Z M 1.25 13.5 "/>
<path style=" stroke:none;fill-rule:nonzero;fill:rgb(0.392157%,0.392157%,0.392157%);fill-opacity:0.4;" d="M 1.25 14 C 1.113281 14 1 13.890625 1 13.75 C 1 13.730469 1.003906 13.707031 1.007812 13.6875 C 1.035156 13.796875 1.132812 13.875 1.25 13.875 L 14.75 13.875 C 14.867188 13.875 14.964844 13.796875 14.992188 13.6875 C 14.996094 13.707031 15 13.730469 15 13.75 C 15 13.890625 14.886719 14 14.75 14 Z M 1.25 14 "/>
<path style=" stroke:none;fill-rule:nonzero;fill:rgb(36.078432%,41.960785%,75.294119%);fill-opacity:1;" d="M 2 0.996094 L 14 0.996094 C 14.550781 0.996094 15 1.441406 15 1.996094 L 15 11.996094 C 15 12.546875 14.550781 12.996094 14 12.996094 L 2 12.996094 C 1.449219 12.996094 1 12.546875 1 11.996094 L 1 1.996094 C 1 1.441406 1.449219 0.996094 2 0.996094 Z M 2 0.996094 "/>
<path style=" stroke:none;fill-rule:nonzero;fill:rgb(25.882354%,64.705884%,96.078432%);fill-opacity:1;" d="M 1.128906 1.5 L 8 6.996094 L 1.351562 12.757812 C 1.136719 12.574219 1 12.300781 1 11.996094 L 1 1.996094 C 1 1.816406 1.046875 1.644531 1.128906 1.5 Z M 1.128906 1.5 "/>
<path style=" stroke:none;fill-rule:nonzero;fill:rgb(47.058824%,56.470591%,61.176473%);fill-opacity:1;" d="M 8 6.996094 L 1.316406 12.722656 C 1.496094 12.890625 1.734375 12.996094 2 12.996094 L 14 12.996094 C 14.265625 12.996094 14.503906 12.890625 14.683594 12.722656 Z M 8 6.996094 "/>
<path style=" stroke:none;fill-rule:nonzero;fill:rgb(92.54902%,25.098041%,47.843137%);fill-opacity:1;" d="M 14.867188 1.5 L 8 6.996094 L 14.648438 12.757812 C 14.863281 12.574219 15 12.300781 15 11.996094 L 15 1.996094 C 15 1.816406 14.953125 1.644531 14.867188 1.5 Z M 14.867188 1.5 "/>
<path style=" stroke:none;fill-rule:nonzero;fill:rgb(0.392157%,0.392157%,0.392157%);fill-opacity:0.4;" d="M 1 11.746094 L 1 11.996094 C 1 12.550781 1.445312 12.996094 2 12.996094 L 14 12.996094 C 14.554688 12.996094 15 12.550781 15 11.996094 L 15 11.746094 C 15 12.300781 14.554688 12.746094 14 12.746094 L 2 12.746094 C 1.445312 12.746094 1 12.300781 1 11.746094 Z M 1 11.746094 "/>
<path style=" stroke:none;fill-rule:nonzero;fill:rgb(100%,100%,100%);fill-opacity:0.4;" d="M 1.25 13.5 C 1.113281 13.5 1 13.613281 1 13.75 C 1 13.773438 1.003906 13.792969 1.007812 13.8125 C 1.035156 13.703125 1.132812 13.625 1.25 13.625 L 14.75 13.625 C 14.867188 13.625 14.964844 13.703125 14.992188 13.8125 C 14.996094 13.792969 15 13.773438 15 13.75 C 15 13.613281 14.886719 13.5 14.75 13.5 Z M 1.25 13.5 "/>
<path style=" stroke:none;fill-rule:nonzero;fill:rgb(38.039216%,38.039216%,38.039216%);fill-opacity:1;" d="M 6.375 11.5 L 6.625 11.5 C 6.695312 11.5 6.75 11.554688 6.75 11.625 L 6.75 12.875 C 6.75 12.945312 6.695312 13 6.625 13 L 6.375 13 C 6.304688 13 6.25 12.945312 6.25 12.875 L 6.25 11.625 C 6.25 11.554688 6.304688 11.5 6.375 11.5 Z M 6.375 11.5 "/>
<path style=" stroke:none;fill-rule:nonzero;fill:rgb(100%,100%,100%);fill-opacity:0.4;" d="M 6.367188 11.5 C 6.300781 11.503906 6.25 11.558594 6.25 11.625 L 6.25 11.742188 C 6.253906 11.675781 6.308594 11.625 6.375 11.625 L 6.625 11.625 C 6.691406 11.625 6.746094 11.675781 6.75 11.742188 L 6.75 11.625 C 6.75 11.554688 6.695312 11.5 6.625 11.5 L 6.375 11.5 C 6.371094 11.5 6.371094 11.5 6.367188 11.5 Z M 6.367188 11.5 "/>
<path style=" stroke:none;fill-rule:nonzero;fill:rgb(38.039216%,38.039216%,38.039216%);fill-opacity:1;" d="M 7.375 11.5 L 7.625 11.5 C 7.695312 11.5 7.75 11.554688 7.75 11.625 L 7.75 12.875 C 7.75 12.945312 7.695312 13 7.625 13 L 7.375 13 C 7.304688 13 7.25 12.945312 7.25 12.875 L 7.25 11.625 C 7.25 11.554688 7.304688 11.5 7.375 11.5 Z M 7.375 11.5 "/>
<path style=" stroke:none;fill-rule:nonzero;fill:rgb(100%,100%,100%);fill-opacity:0.4;" d="M 7.367188 11.5 C 7.300781 11.503906 7.25 11.558594 7.25 11.625 L 7.25 11.742188 C 7.253906 11.675781 7.308594 11.625 7.375 11.625 L 7.625 11.625 C 7.691406 11.625 7.746094 11.675781 7.75 11.742188 L 7.75 11.625 C 7.75 11.554688 7.695312 11.5 7.625 11.5 L 7.375 11.5 C 7.371094 11.5 7.371094 11.5 7.367188 11.5 Z M 7.367188 11.5 "/>
<path style=" stroke:none;fill-rule:nonzero;fill:rgb(38.039216%,38.039216%,38.039216%);fill-opacity:1;" d="M 8.375 11.5 L 8.625 11.5 C 8.695312 11.5 8.75 11.554688 8.75 11.625 L 8.75 12.875 C 8.75 12.945312 8.695312 13 8.625 13 L 8.375 13 C 8.304688 13 8.25 12.945312 8.25 12.875 L 8.25 11.625 C 8.25 11.554688 8.304688 11.5 8.375 11.5 Z M 8.375 11.5 "/>
<path style=" stroke:none;fill-rule:nonzero;fill:rgb(100%,100%,100%);fill-opacity:0.4;" d="M 8.367188 11.5 C 8.300781 11.503906 8.25 11.558594 8.25 11.625 L 8.25 11.742188 C 8.253906 11.675781 8.308594 11.625 8.375 11.625 L 8.625 11.625 C 8.691406 11.625 8.746094 11.675781 8.75 11.742188 L 8.75 11.625 C 8.75 11.554688 8.695312 11.5 8.625 11.5 L 8.375 11.5 C 8.371094 11.5 8.371094 11.5 8.367188 11.5 Z M 8.367188 11.5 "/>
<path style=" stroke:none;fill-rule:nonzero;fill:rgb(38.039216%,38.039216%,38.039216%);fill-opacity:1;" d="M 9.375 11.5 L 9.625 11.5 C 9.695312 11.5 9.75 11.554688 9.75 11.625 L 9.75 12.875 C 9.75 12.945312 9.695312 13 9.625 13 L 9.375 13 C 9.304688 13 9.25 12.945312 9.25 12.875 L 9.25 11.625 C 9.25 11.554688 9.304688 11.5 9.375 11.5 Z M 9.375 11.5 "/>
<path style=" stroke:none;fill-rule:nonzero;fill:rgb(100%,100%,100%);fill-opacity:0.4;" d="M 9.367188 11.5 C 9.300781 11.503906 9.25 11.558594 9.25 11.625 L 9.25 11.742188 C 9.253906 11.675781 9.308594 11.625 9.375 11.625 L 9.625 11.625 C 9.691406 11.625 9.746094 11.675781 9.75 11.742188 L 9.75 11.625 C 9.75 11.554688 9.695312 11.5 9.625 11.5 L 9.375 11.5 C 9.371094 11.5 9.371094 11.5 9.367188 11.5 Z M 9.367188 11.5 "/>
<path style=" stroke:none;fill-rule:nonzero;fill:rgb(87.843138%,87.843138%,87.843138%);fill-opacity:1;" d="M 6 12.5 L 10 12.5 C 10.277344 12.5 10.5 12.722656 10.5 13 L 10.5 14.5 C 10.5 14.777344 10.277344 15 10 15 L 6 15 C 5.722656 15 5.5 14.777344 5.5 14.5 L 5.5 13 C 5.5 12.722656 5.722656 12.5 6 12.5 Z M 6 12.5 "/>
<path style=" stroke:none;fill-rule:nonzero;fill:rgb(87.843138%,87.843138%,87.843138%);fill-opacity:1;" d="M 2 0.996094 C 1.445312 0.996094 1 1.441406 1 1.996094 L 15 1.996094 C 15 1.441406 14.554688 0.996094 14 0.996094 Z M 2 0.996094 "/>
<path style=" stroke:none;fill-rule:nonzero;fill:rgb(0%,0%,0%);fill-opacity:0.4;" d="M 1 2 L 1 2.25 L 15 2.25 L 15 2 Z M 5.5 14.25 L 5.5 14.5 C 5.5 14.777344 5.722656 15 6 15 L 10 15 C 10.277344 15 10.5 14.777344 10.5 14.5 L 10.5 14.25 C 10.5 14.527344 10.277344 14.75 10 14.75 L 6 14.75 C 5.722656 14.75 5.5 14.527344 5.5 14.25 Z M 5.5 14.25 "/>
<path style=" stroke:none;fill-rule:nonzero;fill:rgb(56.470591%,64.313728%,68.235296%);fill-opacity:0.996078;" d="M 8.75 5 C 9.714844 5 10.5 5.785156 10.5 6.75 C 10.5 7.714844 9.714844 8.5 8.75 8.5 C 7.785156 8.5 7 7.714844 7 6.75 C 7 5.785156 7.785156 5 8.75 5 Z M 8.75 5 "/>
<path style=" stroke:none;fill-rule:nonzero;fill:rgb(100%,100%,100%);fill-opacity:0.6;" d="M 2 0.996094 C 1.445312 0.996094 1 1.441406 1 1.996094 L 1.03125 1.996094 C 1.140625 1.558594 1.53125 1.238281 2 1.238281 L 14 1.238281 C 14.46875 1.238281 14.859375 1.558594 14.96875 1.996094 L 15 1.996094 C 15 1.441406 14.554688 0.996094 14 0.996094 Z M 6 12.507812 C 5.722656 12.507812 5.5 12.730469 5.5 13.007812 L 5.5 13.25 C 5.5 12.972656 5.722656 12.75 6 12.75 L 10 12.75 C 10.277344 12.75 10.5 12.972656 10.5 13.25 L 10.5 13.007812 C 10.5 12.730469 10.277344 12.507812 10 12.507812 Z M 6 12.507812 "/>
<path style=" stroke:none;fill-rule:nonzero;fill:rgb(56.470591%,64.313728%,68.235296%);fill-opacity:0.996078;" d="M 6.75 6 C 7.441406 6 8 6.558594 8 7.25 C 8 7.941406 7.441406 8.5 6.75 8.5 C 6.058594 8.5 5.5 7.941406 5.5 7.25 C 5.5 6.558594 6.058594 6 6.75 6 Z M 6.75 6 "/>
<path style=" stroke:none;fill-rule:nonzero;fill:rgb(100%,100%,100%);fill-opacity:0.4;" d="M 8.75 5 C 8.023438 5 7.40625 5.4375 7.140625 6.0625 C 7.015625 6.023438 6.886719 6 6.75 6 C 6.058594 6 5.5 6.558594 5.5 7.25 C 5.5 7.269531 5.5 7.289062 5.5 7.3125 C 5.535156 6.648438 6.078125 6.125 6.75 6.125 C 6.886719 6.125 7.015625 6.148438 7.140625 6.1875 C 7.40625 5.5625 8.023438 5.125 8.75 5.125 C 9.695312 5.125 10.460938 5.867188 10.5 6.804688 C 10.5 6.789062 10.5 6.769531 10.5 6.75 C 10.5 5.78125 9.71875 5 8.75 5 Z M 8.75 5 "/>
<path style=" stroke:none;fill-rule:nonzero;fill:rgb(81.176472%,84.705883%,86.274511%);fill-opacity:0.996078;" d="M 7.734375 6 C 6.839844 6 6.105469 6.664062 6 7.53125 C 5.921875 7.511719 5.835938 7.5 5.75 7.5 L 5.71875 7.5 C 5.175781 7.5 4.734375 7.925781 4.734375 8.453125 L 4.734375 8.546875 C 4.734375 9.074219 5.175781 9.5 5.71875 9.5 L 9.734375 9.5 C 10.566406 9.5 11.234375 8.832031 11.234375 8 C 11.234375 7.167969 10.566406 6.5 9.734375 6.5 C 9.507812 6.5 9.289062 6.550781 9.09375 6.644531 C 8.773438 6.25 8.285156 6 7.734375 6 Z M 7.734375 6 "/>
<path style=" stroke:none;fill-rule:nonzero;fill:rgb(50.588238%,78.039217%,51.764709%);fill-opacity:1;" d="M 8 13.125 C 8.34375 13.125 8.625 13.40625 8.625 13.75 C 8.625 14.09375 8.34375 14.375 8 14.375 C 7.65625 14.375 7.375 14.09375 7.375 13.75 C 7.375 13.40625 7.65625 13.125 8 13.125 Z M 8 13.125 "/>
<path style=" stroke:none;fill-rule:nonzero;fill:rgb(40.000001%,73.333335%,41.568628%);fill-opacity:1;" d="M 8.589844 13.539062 C 8.164062 13.605469 7.769531 13.765625 7.425781 13.996094 C 7.519531 14.21875 7.742188 14.375 8 14.375 C 8.347656 14.375 8.625 14.097656 8.625 13.75 C 8.625 13.675781 8.613281 13.605469 8.589844 13.539062 Z M 8.589844 13.539062 "/>
<path style=" stroke:none;fill-rule:nonzero;fill:rgb(99.215686%,99.215686%,99.215686%);fill-opacity:0.4;" d="M 7.984375 13.125 C 7.644531 13.132812 7.375 13.410156 7.375 13.75 C 7.375 13.769531 7.375 13.792969 7.378906 13.8125 C 7.410156 13.496094 7.675781 13.25 8 13.25 C 8.324219 13.25 8.589844 13.496094 8.621094 13.8125 C 8.625 13.792969 8.625 13.769531 8.625 13.75 C 8.625 13.402344 8.347656 13.125 8 13.125 C 7.996094 13.125 7.988281 13.125 7.984375 13.125 Z M 7.984375 13.125 "/>
<path style=" stroke:none;fill-rule:nonzero;fill:rgb(0%,0%,0%);fill-opacity:0.4;" d="M 7.984375 14.5 C 7.644531 14.492188 7.375 14.214844 7.375 13.875 C 7.375 13.855469 7.375 13.832031 7.378906 13.8125 C 7.410156 14.128906 7.675781 14.375 8 14.375 C 8.324219 14.375 8.589844 14.128906 8.621094 13.8125 C 8.625 13.832031 8.625 13.855469 8.625 13.875 C 8.625 14.222656 8.347656 14.5 8 14.5 C 7.996094 14.5 7.988281 14.5 7.984375 14.5 Z M 7.984375 14.5 "/>
<path style=" stroke:none;fill-rule:nonzero;fill:rgb(100%,100%,100%);fill-opacity:0.4;" d="M 7.734375 6 C 6.839844 6 6.105469 6.664062 6 7.53125 C 5.921875 7.511719 5.835938 7.5 5.75 7.5 L 5.71875 7.5 C 5.175781 7.5 4.734375 7.925781 4.734375 8.453125 L 4.734375 8.546875 C 4.734375 8.574219 4.738281 8.597656 4.738281 8.625 C 4.78125 8.132812 5.203125 7.75 5.71875 7.75 L 5.75 7.75 C 5.835938 7.75 5.921875 7.761719 6 7.78125 C 6.105469 6.914062 6.839844 6.25 7.734375 6.25 C 8.285156 6.25 8.773438 6.5 9.09375 6.894531 C 9.289062 6.800781 9.507812 6.75 9.734375 6.75 C 10.523438 6.75 11.167969 7.351562 11.230469 8.125 C 11.234375 8.082031 11.234375 8.042969 11.234375 8 C 11.234375 7.167969 10.566406 6.5 9.734375 6.5 C 9.507812 6.5 9.289062 6.550781 9.09375 6.644531 C 8.773438 6.25 8.285156 6 7.734375 6 Z M 7.734375 6 "/>
<path style=" stroke:none;fill-rule:nonzero;fill:rgb(0%,0%,0%);fill-opacity:0.4;" d="M 11.230469 8.117188 C 11.171875 8.890625 10.527344 9.5 9.734375 9.5 L 5.71875 9.5 C 5.199219 9.5 4.777344 9.113281 4.738281 8.617188 C 4.738281 8.636719 4.734375 8.660156 4.734375 8.683594 L 4.734375 8.777344 C 4.734375 9.304688 5.175781 9.730469 5.71875 9.730469 L 9.734375 9.730469 C 10.566406 9.730469 11.234375 9.0625 11.234375 8.230469 C 11.234375 8.191406 11.234375 8.152344 11.230469 8.117188 Z M 11.230469 8.117188 "/>
<path style=" stroke:none;fill-rule:nonzero;fill:url(#linear0);" d="M 1.996094 1 C 1.445312 1 1 1.445312 1 1.996094 L 1 12.003906 C 1 12.554688 1.445312 13 1.996094 13 L 5.5 13 L 5.5 13.5 L 1.25 13.5 C 1.113281 13.5 1 13.613281 1 13.75 C 1 13.886719 1.113281 14 1.25 14 L 5.5 14 L 5.5 14.5 C 5.5 14.777344 5.722656 15 6 15 L 10 15 C 10.277344 15 10.5 14.777344 10.5 14.5 L 10.5 14 L 14.75 14 C 14.886719 14 15 13.886719 15 13.75 C 15 13.613281 14.886719 13.5 14.75 13.5 L 10.5 13.5 L 10.5 13 L 14.003906 13 C 14.554688 13 15 12.554688 15 12.003906 L 15 1.996094 C 15 1.445312 14.554688 1 14.003906 1 Z M 1.996094 1 "/>
<path style=" stroke:none;fill-rule:nonzero;fill:rgb(0%,0%,0%);fill-opacity:0.2;" d="M 1 12.007812 L 1 12.378906 C 1 12.929688 1.445312 13.375 1.996094 13.375 L 5.5 13.375 L 5.5 13.003906 L 1.996094 13.003906 C 1.445312 13.003906 1 12.558594 1 12.007812 Z M 15 12.007812 C 15 12.558594 14.554688 13.003906 14.003906 13.003906 L 10.5 13.003906 L 10.5 13.375 L 14.003906 13.375 C 14.554688 13.375 15 12.929688 15 12.378906 Z M 1.082031 13.9375 C 1.03125 13.984375 1 14.050781 1 14.125 C 1 14.261719 1.113281 14.375 1.25 14.375 L 5.5 14.375 L 5.5 14.003906 L 1.25 14.003906 C 1.1875 14.003906 1.128906 13.980469 1.082031 13.9375 Z M 14.917969 13.9375 C 14.871094 13.980469 14.8125 14.003906 14.75 14.003906 L 10.5 14.003906 L 10.5 14.375 L 14.75 14.375 C 14.886719 14.375 15 14.261719 15 14.125 C 15 14.050781 14.96875 13.984375 14.917969 13.9375 Z M 5.5 14.503906 L 5.5 14.875 C 5.5 15.152344 5.722656 15.375 6 15.375 L 10 15.375 C 10.277344 15.375 10.5 15.152344 10.5 14.875 L 10.5 14.503906 C 10.5 14.78125 10.277344 15.003906 10 15.003906 L 6 15.003906 C 5.722656 15.003906 5.5 14.78125 5.5 14.503906 Z M 5.5 14.503906 "/>
</g>
</svg>
