
<svg xmlns="http://www.w3.org/2000/svg" xmlns:xlink="http://www.w3.org/1999/xlink" width="16" height="16" viewBox="0 0 16 16" version="1.1">
<defs>
<linearGradient id="linear0" gradientUnits="userSpaceOnUse" x1="32" y1="59.999996" x2="32" y2="4" gradientTransform="matrix(0.25,0,0,0.25,0,0)">
<stop offset="0" style="stop-color:rgb(0%,0%,0%);stop-opacity:0.2;"/>
<stop offset="1" style="stop-color:rgb(100%,100%,100%);stop-opacity:0;"/>
</linearGradient>
</defs>
<g id="surface1">
<path style=" stroke:none;fill-rule:nonzero;fill:rgb(100%,43.921569%,26.274511%);fill-opacity:1;" d="M 8 1 C 8.59375 1 9.121094 1.386719 9.292969 1.957031 L 13 14 L 3 14 L 6.707031 1.957031 C 6.878906 1.386719 7.40625 1 8 1 Z M 8 1 "/>
<path style=" stroke:none;fill-rule:nonzero;fill:rgb(100%,100%,100%);fill-opacity:0.4;" d="M 8 1 C 7.40625 1 6.882812 1.386719 6.707031 1.957031 L 3 14 L 3.078125 14 L 6.707031 2.207031 C 6.882812 1.636719 7.40625 1.25 8 1.25 C 8.59375 1.25 9.117188 1.636719 9.292969 2.207031 L 12.921875 14 L 13 14 L 9.292969 1.957031 C 9.117188 1.386719 8.59375 1 8 1 Z M 8 1 "/>
<path style=" stroke:none;fill-rule:nonzero;fill:rgb(100%,43.921569%,26.274511%);fill-opacity:1;" d="M 1.5 13.5 L 14.5 13.5 C 14.777344 13.5 15 13.722656 15 14 L 15 14.5 C 15 14.777344 14.777344 15 14.5 15 L 1.5 15 C 1.222656 15 1 14.777344 1 14.5 L 1 14 C 1 13.722656 1.222656 13.5 1.5 13.5 Z M 1.5 13.5 "/>
<path style=" stroke:none;fill-rule:nonzero;fill:rgb(93.333334%,93.333334%,93.333334%);fill-opacity:1;" d="M 6.382812 3 L 5.460938 6 L 10.539062 6 L 9.617188 3 Z M 4.691406 8.5 L 3.769531 11.5 L 12.230469 11.5 L 11.308594 8.5 Z M 4.691406 8.5 "/>
<path style=" stroke:none;fill-rule:nonzero;fill:rgb(0%,0%,0%);fill-opacity:0.2;" d="M 1 14.5 L 1 14.875 C 1 15.152344 1.222656 15.375 1.5 15.375 L 14.5 15.375 C 14.777344 15.375 15 15.152344 15 14.875 L 15 14.5 C 15 14.777344 14.777344 15 14.5 15 L 1.5 15 C 1.222656 15 1 14.777344 1 14.5 Z M 1 14.5 "/>
<path style=" stroke:none;fill-rule:nonzero;fill:rgb(100%,100%,100%);fill-opacity:0.4;" d="M 1.5 13.5 C 1.222656 13.5 1 13.722656 1 14 L 1 14.25 C 1 13.972656 1.222656 13.75 1.5 13.75 L 14.5 13.75 C 14.777344 13.75 15 13.972656 15 14.25 L 15 14 C 15 13.722656 14.777344 13.5 14.5 13.5 Z M 1.5 13.5 "/>
<path style=" stroke:none;fill-rule:nonzero;fill:rgb(0%,0%,0%);fill-opacity:0.4;" d="M 1.5 15 C 1.222656 15 1 14.777344 1 14.5 L 1 14.25 C 1 14.527344 1.222656 14.75 1.5 14.75 L 14.5 14.75 C 14.777344 14.75 15 14.527344 15 14.25 L 15 14.5 C 15 14.777344 14.777344 15 14.5 15 Z M 1.5 15 "/>
<path style=" stroke:none;fill-rule:nonzero;fill:url(#linear0);" d="M 8 1 C 7.40625 1 6.882812 1.386719 6.707031 1.957031 L 3.152344 13.5 L 1.5 13.5 C 1.222656 13.5 1 13.722656 1 14 L 1 14.5 C 1 14.777344 1.222656 15 1.5 15 L 14.5 15 C 14.777344 15 15 14.777344 15 14.5 L 15 14 C 15 13.722656 14.777344 13.5 14.5 13.5 L 12.847656 13.5 L 9.292969 1.957031 C 9.117188 1.386719 8.59375 1 8 1 Z M 8 1 "/>
</g>
</svg>
