
<svg xmlns="http://www.w3.org/2000/svg" xmlns:xlink="http://www.w3.org/1999/xlink" width="16" height="16" viewBox="0 0 16 16" version="1.1">
<defs>
<linearGradient id="linear0" gradientUnits="userSpaceOnUse" x1="32" y1="59.999996" x2="32" y2="4" gradientTransform="matrix(0.25,0,0,0.25,0,0)">
<stop offset="0" style="stop-color:rgb(0%,0%,0%);stop-opacity:0.2;"/>
<stop offset="1" style="stop-color:rgb(100%,100%,100%);stop-opacity:0;"/>
</linearGradient>
</defs>
<g id="surface1">
<path style=" stroke:none;fill-rule:nonzero;fill:rgb(25.882354%,64.705884%,96.078432%);fill-opacity:1;" d="M 2 1 C 1.445312 1 1 1.445312 1 2 L 1 5.988281 C 1 5.992188 1 5.996094 1 6 C 1 6.277344 1.222656 6.5 1.5 6.5 L 2.5 6.5 C 2.777344 6.5 3 6.277344 3 6 C 3 5.996094 3 5.992188 3 5.988281 L 3 4.414062 L 5 6.414062 L 5 7.5 L 7 7.5 L 7 7.125 C 7 7.054688 7.054688 7 7.125 7 L 7.5 7 L 7.5 5 L 6.414062 5 L 4.414062 3 L 6 3 C 6.277344 3 6.5 2.777344 6.5 2.5 L 6.5 1.5 C 6.5 1.222656 6.277344 1 6 1 Z M 9.988281 1 C 9.714844 1.007812 9.5 1.226562 9.5 1.5 L 9.5 2.5 C 9.5 2.777344 9.722656 3 10 3 L 11.585938 3 L 9.585938 5 L 8.5 5 L 8.5 7 L 8.875 7 C 8.945312 7 9 7.054688 9 7.125 L 9 7.5 L 11 7.5 L 11 6.414062 L 13 4.414062 L 13 5.988281 C 13 5.992188 13 5.996094 13 6 C 13 6.277344 13.222656 6.5 13.5 6.5 L 14.5 6.5 C 14.777344 6.5 15 6.277344 15 6 C 15 5.996094 15 5.992188 15 5.988281 L 15 2 C 15 1.445312 14.554688 1 14 1 L 10 1 C 9.996094 1 9.992188 1 9.988281 1 Z M 5 8.5 L 5 9.585938 L 3 11.585938 L 3 10 C 3 9.722656 2.777344 9.5 2.5 9.5 L 1.5 9.5 C 1.222656 9.5 1 9.722656 1 10 C 1 10.003906 1 10.007812 1 10.011719 L 1 14 C 1 14.554688 1.445312 15 2 15 L 6 15 C 6.277344 15 6.5 14.777344 6.5 14.5 L 6.5 13.5 C 6.5 13.222656 6.277344 13 6 13 L 4.414062 13 L 6.414062 11 L 7.5 11 L 7.5 9 L 7.125 9 C 7.054688 9 7 8.945312 7 8.875 L 7 8.5 Z M 9 8.5 L 9 8.875 C 9 8.945312 8.945312 9 8.875 9 L 8.5 9 L 8.5 11 L 9.585938 11 L 11.585938 13 L 10 13 C 9.722656 13 9.5 13.222656 9.5 13.5 L 9.5 14.5 C 9.5 14.777344 9.722656 15 10 15 L 14 15 C 14.554688 15 15 14.554688 15 14 L 15 10 C 15 9.722656 14.777344 9.5 14.5 9.5 L 13.5 9.5 C 13.222656 9.5 13 9.722656 13 10 C 13 10.003906 13 10.007812 13 10.011719 L 13 11.585938 L 11 9.585938 L 11 8.5 Z M 9 8.5 "/>
<path style=" stroke:none;fill-rule:nonzero;fill:url(#linear0);" d="M 2 1 C 1.445312 1 1 1.445312 1 2 L 1 5.988281 C 1 5.992188 1 5.996094 1 6 C 1 6.277344 1.222656 6.5 1.5 6.5 L 2.5 6.5 C 2.777344 6.5 3 6.277344 3 6 C 3 5.996094 3 5.992188 3 5.988281 L 3 4.414062 L 5 6.414062 L 5 7.5 L 7 7.5 L 7 7.125 C 7 7.054688 7.054688 7 7.125 7 L 7.5 7 L 7.5 5 L 6.414062 5 L 4.414062 3 L 6 3 C 6.277344 3 6.5 2.777344 6.5 2.5 L 6.5 1.5 C 6.5 1.222656 6.277344 1 6 1 Z M 9.988281 1 C 9.714844 1.007812 9.5 1.226562 9.5 1.5 L 9.5 2.5 C 9.5 2.777344 9.722656 3 10 3 L 11.585938 3 L 9.585938 5 L 8.5 5 L 8.5 7 L 8.875 7 C 8.945312 7 9 7.054688 9 7.125 L 9 7.5 L 11 7.5 L 11 6.414062 L 13 4.414062 L 13 5.988281 C 13 5.992188 13 5.996094 13 6 C 13 6.277344 13.222656 6.5 13.5 6.5 L 14.5 6.5 C 14.777344 6.5 15 6.277344 15 6 C 15 5.996094 15 5.992188 15 5.988281 L 15 2 C 15 1.445312 14.554688 1 14 1 L 10 1 C 9.996094 1 9.992188 1 9.988281 1 Z M 5 8.5 L 5 9.585938 L 3 11.585938 L 3 10 C 3 9.722656 2.777344 9.5 2.5 9.5 L 1.5 9.5 C 1.222656 9.5 1 9.722656 1 10 C 1 10.003906 1 10.007812 1 10.011719 L 1 14 C 1 14.554688 1.445312 15 2 15 L 6 15 C 6.277344 15 6.5 14.777344 6.5 14.5 L 6.5 13.5 C 6.5 13.222656 6.277344 13 6 13 L 4.414062 13 L 6.414062 11 L 7.5 11 L 7.5 9 L 7.125 9 C 7.054688 9 7 8.945312 7 8.875 L 7 8.5 Z M 9 8.5 L 9 8.875 C 9 8.945312 8.945312 9 8.875 9 L 8.5 9 L 8.5 11 L 9.585938 11 L 11.585938 13 L 10 13 C 9.722656 13 9.5 13.222656 9.5 13.5 L 9.5 14.5 C 9.5 14.777344 9.722656 15 10 15 L 14 15 C 14.554688 15 15 14.554688 15 14 L 15 10 C 15 9.722656 14.777344 9.5 14.5 9.5 L 13.5 9.5 C 13.222656 9.5 13 9.722656 13 10 C 13 10.003906 13 10.007812 13 10.011719 L 13 11.585938 L 11 9.585938 L 11 8.5 Z M 9 8.5 "/>
<path style=" stroke:none;fill-rule:nonzero;fill:rgb(100%,100%,100%);fill-opacity:0.4;" d="M 2 1 C 1.445312 1 1 1.445312 1 2 L 1 2.25 C 1 1.695312 1.445312 1.25 2 1.25 L 6 1.25 C 6.277344 1.25 6.5 1.472656 6.5 1.75 L 6.5 1.5 C 6.5 1.222656 6.277344 1 6 1 Z M 9.988281 1 C 9.714844 1.007812 9.5 1.226562 9.5 1.5 L 9.5 1.75 C 9.5 1.476562 9.714844 1.257812 9.988281 1.25 C 9.992188 1.25 9.996094 1.25 10 1.25 L 14 1.25 C 14.554688 1.25 15 1.695312 15 2.25 L 15 2 C 15 1.445312 14.554688 1 14 1 L 10 1 C 9.996094 1 9.992188 1 9.988281 1 Z M 4.414062 3.25 L 6.414062 5.25 L 7.5 5.25 L 7.5 5 L 6.414062 5 L 4.664062 3.25 Z M 11.335938 3.25 L 9.585938 5 L 8.5 5 L 8.5 5.25 L 9.585938 5.25 L 11.585938 3.25 Z M 5 8.5 L 5 8.75 L 7 8.75 L 7 8.5 Z M 9 8.5 L 9 8.75 L 11 8.75 L 11 8.5 Z M 7 8.875 L 7 9.125 C 7 9.195312 7.054688 9.25 7.125 9.25 L 7.5 9.25 L 7.5 9 L 7.125 9 C 7.054688 9 7 8.945312 7 8.875 Z M 9 8.875 C 9 8.945312 8.945312 9 8.875 9 L 8.5 9 L 8.5 9.25 L 8.875 9.25 C 8.945312 9.25 9 9.195312 9 9.125 Z M 1.5 9.5 C 1.222656 9.5 1 9.722656 1 10 C 1 10.003906 1 10.007812 1 10.011719 L 1 10.25 C 1 9.972656 1.222656 9.75 1.5 9.75 L 2.5 9.75 C 2.777344 9.75 3 9.972656 3 10.25 L 3 10 C 3 9.722656 2.777344 9.5 2.5 9.5 Z M 13.5 9.5 C 13.222656 9.5 13 9.722656 13 10 C 13 10.003906 13 10.007812 13 10.011719 L 13 10.25 C 13 9.972656 13.222656 9.75 13.5 9.75 L 14.5 9.75 C 14.777344 9.75 15 9.972656 15 10.25 L 15 10 C 15 9.722656 14.777344 9.5 14.5 9.5 Z M 5 9.585938 L 3 11.585938 L 3 11.835938 L 5 9.835938 Z M 11 9.585938 L 11 9.835938 L 13 11.835938 L 13 11.585938 Z M 4.664062 13 L 4.414062 13.25 L 6 13.25 C 6.277344 13.25 6.5 13.472656 6.5 13.75 L 6.5 13.5 C 6.5 13.222656 6.277344 13 6 13 Z M 10 13 C 9.722656 13 9.5 13.222656 9.5 13.5 L 9.5 13.75 C 9.5 13.472656 9.722656 13.25 10 13.25 L 11.585938 13.25 L 11.335938 13 Z M 10 13 "/>
<path style=" stroke:none;fill-rule:nonzero;fill:rgb(0%,0%,0%);fill-opacity:0.4;" d="M 2 15 C 1.445312 15 1 14.554688 1 14 L 1 13.75 C 1 14.304688 1.445312 14.75 2 14.75 L 6 14.75 C 6.277344 14.75 6.5 14.527344 6.5 14.25 L 6.5 14.5 C 6.5 14.777344 6.277344 15 6 15 Z M 9.988281 15 C 9.714844 14.992188 9.5 14.773438 9.5 14.5 L 9.5 14.25 C 9.5 14.523438 9.714844 14.742188 9.988281 14.75 C 9.992188 14.75 9.996094 14.75 10 14.75 L 14 14.75 C 14.554688 14.75 15 14.304688 15 13.75 L 15 14 C 15 14.554688 14.554688 15 14 15 L 10 15 C 9.996094 15 9.992188 15 9.988281 15 Z M 4.414062 12.75 L 6.414062 10.75 L 7.5 10.75 L 7.5 11 L 6.414062 11 L 4.664062 12.75 Z M 11.335938 12.75 L 9.585938 11 L 8.5 11 L 8.5 10.75 L 9.585938 10.75 L 11.585938 12.75 Z M 5 7.5 L 5 7.25 L 7 7.25 L 7 7.5 Z M 9 7.5 L 9 7.25 L 11 7.25 L 11 7.5 Z M 7 7.125 L 7 6.875 C 7 6.804688 7.054688 6.75 7.125 6.75 L 7.5 6.75 L 7.5 7 L 7.125 7 C 7.054688 7 7 7.054688 7 7.125 Z M 9 7.125 C 9 7.054688 8.945312 7 8.875 7 L 8.5 7 L 8.5 6.75 L 8.875 6.75 C 8.945312 6.75 9 6.804688 9 6.875 Z M 1.5 6.5 C 1.222656 6.5 1 6.277344 1 6 C 1 5.996094 1 5.992188 1 5.988281 L 1 5.75 C 1 6.027344 1.222656 6.25 1.5 6.25 L 2.5 6.25 C 2.777344 6.25 3 6.027344 3 5.75 L 3 6 C 3 6.277344 2.777344 6.5 2.5 6.5 Z M 13.5 6.5 C 13.222656 6.5 13 6.277344 13 6 C 13 5.996094 13 5.992188 13 5.988281 L 13 5.75 C 13 6.027344 13.222656 6.25 13.5 6.25 L 14.5 6.25 C 14.777344 6.25 15 6.027344 15 5.75 L 15 6 C 15 6.277344 14.777344 6.5 14.5 6.5 Z M 5 6.414062 L 3 4.414062 L 3 4.164062 L 5 6.164062 Z M 11 6.414062 L 11 6.164062 L 13 4.164062 L 13 4.414062 Z M 4.664062 3 L 4.414062 2.75 L 6 2.75 C 6.277344 2.75 6.5 2.527344 6.5 2.25 L 6.5 2.5 C 6.5 2.777344 6.277344 3 6 3 Z M 10 3 C 9.722656 3 9.5 2.777344 9.5 2.5 L 9.5 2.25 C 9.5 2.527344 9.722656 2.75 10 2.75 L 11.585938 2.75 L 11.335938 3 Z M 10 3 "/>
<path style=" stroke:none;fill-rule:nonzero;fill:rgb(0%,0%,0%);fill-opacity:0.2;" d="M 6.5 2.5 C 6.5 2.777344 6.277344 3 6 3 L 4.414062 3 L 4.789062 3.375 L 6 3.375 C 6.277344 3.375 6.5 3.152344 6.5 2.875 Z M 9.5 2.5 L 9.5 2.875 C 9.5 3.152344 9.722656 3.375 10 3.375 L 11.210938 3.375 L 11.585938 3 L 10 3 C 9.722656 3 9.5 2.777344 9.5 2.5 Z M 3 4.414062 L 3 4.789062 L 5 6.789062 L 5 6.414062 Z M 13 4.414062 L 11 6.414062 L 11 6.789062 L 13 4.789062 Z M 1 6 L 1 6.359375 C 1 6.367188 1 6.371094 1 6.375 C 1 6.652344 1.222656 6.875 1.5 6.875 L 2.5 6.875 C 2.777344 6.875 3 6.652344 3 6.375 C 3 6.371094 3 6.367188 3 6.359375 L 3 6 C 3 6.277344 2.777344 6.5 2.5 6.5 L 1.5 6.5 C 1.222656 6.5 1 6.277344 1 6 Z M 13 6 L 13 6.359375 C 13 6.367188 13 6.371094 13 6.375 C 13 6.652344 13.222656 6.875 13.5 6.875 L 14.5 6.875 C 14.777344 6.875 15 6.652344 15 6.375 C 15 6.371094 15 6.367188 15 6.359375 L 15 6 C 15 6.277344 14.777344 6.5 14.5 6.5 L 13.5 6.5 C 13.222656 6.5 13 6.277344 13 6 Z M 7.125 7 C 7.054688 7 7 7.054688 7 7.125 L 7 7.5 C 7 7.429688 7.054688 7.375 7.125 7.375 L 7.5 7.375 L 7.5 7 Z M 7 7.5 L 5 7.5 L 5 7.875 L 7 7.875 Z M 8.5 7 L 8.5 7.375 L 8.875 7.375 C 8.945312 7.375 9 7.429688 9 7.5 L 9 7.125 C 9 7.054688 8.945312 7 8.875 7 Z M 9 7.5 L 9 7.875 L 11 7.875 L 11 7.5 Z M 6.414062 11 L 4.414062 13 L 4.789062 13 L 6.414062 11.375 L 7.5 11.375 L 7.5 11 Z M 8.5 11 L 8.5 11.375 L 9.585938 11.375 L 11.210938 13 L 11.585938 13 L 9.585938 11 Z M 1 14 L 1 14.375 C 1 14.929688 1.445312 15.375 2 15.375 L 6 15.375 C 6.277344 15.375 6.5 15.152344 6.5 14.875 L 6.5 14.5 C 6.5 14.777344 6.277344 15 6 15 L 2 15 C 1.445312 15 1 14.554688 1 14 Z M 15 14 C 15 14.554688 14.554688 15 14 15 L 10 15 C 9.722656 15 9.5 14.777344 9.5 14.5 L 9.5 14.875 C 9.5 15.152344 9.722656 15.375 10 15.375 L 14 15.375 C 14.554688 15.375 15 14.929688 15 14.375 Z M 15 14 "/>
</g>
</svg>
