
<svg xmlns="http://www.w3.org/2000/svg" xmlns:xlink="http://www.w3.org/1999/xlink" width="22" height="22" viewBox="0 0 22 22" version="1.1">
<defs>
<linearGradient id="linear0" gradientUnits="userSpaceOnUse" x1="8.466666" y1="-213.941666" x2="8.466666" y2="-199.125" gradientTransform="matrix(1.299213,0,0,1.299213,0.000000477457,279.330723)">
<stop offset="0" style="stop-color:rgb(0%,0%,0%);stop-opacity:0.2;"/>
<stop offset="1" style="stop-color:rgb(100%,100%,100%);stop-opacity:0;"/>
</linearGradient>
<linearGradient id="linear1" gradientUnits="userSpaceOnUse" x1="10.054166" y1="-199.125" x2="10.054166" y2="-213.941666" gradientTransform="matrix(1.299213,0,0,1.299213,0,279.330723)">
<stop offset="0" style="stop-color:rgb(0%,0%,0%);stop-opacity:0.2;"/>
<stop offset="1" style="stop-color:rgb(100%,100%,100%);stop-opacity:0;"/>
</linearGradient>
</defs>
<g id="surface1">
<path style=" stroke:none;fill-rule:nonzero;fill:rgb(74.117649%,74.117649%,74.117649%);fill-opacity:1;" d="M 2.75 1.375 L 19.25 1.375 C 20.011719 1.375 20.625 1.992188 20.625 2.75 L 20.625 19.25 C 20.625 20.007812 20.011719 20.625 19.25 20.625 L 2.75 20.625 C 1.992188 20.625 1.375 20.007812 1.375 19.25 L 1.375 2.75 C 1.375 1.992188 1.992188 1.375 2.75 1.375 Z M 2.75 1.375 "/>
<path style=" stroke:none;fill-rule:nonzero;fill:rgb(93.333334%,93.333334%,93.333334%);fill-opacity:1;" d="M 2.75 1.375 C 1.988281 1.375 1.375 1.988281 1.375 2.75 L 1.375 4.125 L 20.625 4.125 L 20.625 2.75 C 20.625 1.988281 20.011719 1.375 19.25 1.375 Z M 2.75 1.375 "/>
<path style=" stroke:none;fill-rule:nonzero;fill:rgb(87.843138%,87.843138%,87.843138%);fill-opacity:0.996078;" d="M 20.222656 1.777344 C 20.472656 2.027344 20.625 2.367188 20.625 2.75 L 20.625 19.25 C 20.625 19.632812 20.472656 19.972656 20.222656 20.222656 L 15.125 7.5625 Z M 20.222656 1.777344 "/>
<path style=" stroke:none;fill-rule:nonzero;fill:rgb(0%,0%,0%);fill-opacity:0.4;" d="M 1.375 18.90625 L 1.375 19.25 C 1.375 20.011719 1.988281 20.625 2.75 20.625 L 19.25 20.625 C 20.011719 20.625 20.625 20.011719 20.625 19.25 L 20.625 18.90625 C 20.625 19.667969 20.011719 20.28125 19.25 20.28125 L 2.75 20.28125 C 1.988281 20.28125 1.375 19.667969 1.375 18.90625 Z M 1.375 18.90625 "/>
<path style=" stroke:none;fill-rule:nonzero;fill:rgb(0%,0%,0%);fill-opacity:0.2;" d="M 1.375 19.25 L 1.375 19.765625 C 1.375 20.527344 1.988281 21.140625 2.75 21.140625 L 19.25 21.140625 C 20.011719 21.140625 20.625 20.527344 20.625 19.765625 L 20.625 19.25 C 20.625 20.011719 20.011719 20.625 19.25 20.625 L 2.75 20.625 C 1.988281 20.625 1.375 20.011719 1.375 19.25 Z M 1.375 19.25 "/>
<path style=" stroke:none;fill-rule:nonzero;fill:rgb(100%,100%,100%);fill-opacity:0.6;" d="M 2.75 1.375 C 1.988281 1.375 1.375 1.988281 1.375 2.75 L 1.375 3.089844 C 1.375 2.328125 1.988281 1.714844 2.75 1.714844 L 19.25 1.714844 C 20.011719 1.714844 20.625 2.328125 20.625 3.089844 L 20.625 2.75 C 20.625 1.988281 20.011719 1.375 19.25 1.375 Z M 2.75 1.375 "/>
<path style=" stroke:none;fill-rule:nonzero;fill:rgb(96.078432%,96.078432%,96.078432%);fill-opacity:0.996078;" d="M 1.777344 1.777344 C 1.527344 2.027344 1.375 2.367188 1.375 2.75 L 1.375 19.25 C 1.375 19.632812 1.527344 19.972656 1.777344 20.222656 L 6.875 7.5625 Z M 1.777344 1.777344 "/>
<path style=" stroke:none;fill-rule:nonzero;fill:rgb(74.117649%,74.117649%,74.117649%);fill-opacity:1;" d="M 3.4375 2.75 L 18.5625 2.75 C 18.941406 2.75 19.25 3.058594 19.25 3.4375 L 19.25 16.5 C 19.25 16.878906 18.941406 17.1875 18.5625 17.1875 L 3.4375 17.1875 C 3.058594 17.1875 2.75 16.878906 2.75 16.5 L 2.75 3.4375 C 2.75 3.058594 3.058594 2.75 3.4375 2.75 Z M 3.4375 2.75 "/>
<path style=" stroke:none;fill-rule:nonzero;fill:url(#linear0);" d="M 3.4375 2.75 L 18.5625 2.75 C 18.941406 2.75 19.25 3.058594 19.25 3.4375 L 19.25 16.5 C 19.25 16.878906 18.941406 17.1875 18.5625 17.1875 L 3.4375 17.1875 C 3.058594 17.1875 2.75 16.878906 2.75 16.5 L 2.75 3.4375 C 2.75 3.058594 3.058594 2.75 3.4375 2.75 Z M 3.4375 2.75 "/>
<path style=" stroke:none;fill-rule:nonzero;fill:rgb(99.607843%,99.607843%,99.607843%);fill-opacity:0.4;" d="M 3.4375 17.53125 C 3.054688 17.53125 2.75 17.226562 2.75 16.84375 L 2.75 16.5 C 2.75 16.882812 3.054688 17.1875 3.4375 17.1875 L 18.5625 17.1875 C 18.945312 17.1875 19.25 16.882812 19.25 16.5 L 19.25 16.84375 C 19.25 17.226562 18.945312 17.53125 18.5625 17.53125 Z M 3.4375 17.53125 "/>
<path style=" stroke:none;fill-rule:nonzero;fill:rgb(38.039216%,38.039216%,38.039216%);fill-opacity:1;" d="M 9.625 5.5 C 8.863281 5.5 8.25 6.113281 8.25 6.875 L 8.25 14.09375 C 8.25 14.285156 8.402344 14.4375 8.59375 14.4375 L 9.28125 14.4375 C 9.472656 14.4375 9.625 14.285156 9.625 14.09375 L 9.625 11 L 12.375 11 L 12.375 14.09375 C 12.375 14.285156 12.527344 14.4375 12.71875 14.4375 L 13.40625 14.4375 C 13.597656 14.4375 13.75 14.285156 13.75 14.09375 L 13.75 7.90625 C 13.75 7.871094 13.746094 7.835938 13.734375 7.804688 C 13.746094 7.785156 13.75 7.757812 13.75 7.734375 L 13.75 7.5625 C 13.75 7.558594 13.75 7.558594 13.75 7.554688 L 13.75 6.875 C 13.75 6.113281 13.136719 5.5 12.375 5.5 Z M 10.3125 6.875 L 11.6875 6.875 C 12.070312 6.875 12.375 7.179688 12.375 7.5625 L 12.375 7.734375 C 12.375 7.757812 12.378906 7.785156 12.390625 7.804688 C 12.378906 7.835938 12.375 7.871094 12.375 7.90625 L 12.375 9.625 L 9.625 9.625 L 9.625 7.5625 C 9.625 7.179688 9.929688 6.875 10.3125 6.875 Z M 10.3125 6.875 "/>
<path style=" stroke:none;fill-rule:nonzero;fill:rgb(0%,0%,0%);fill-opacity:0.4;" d="M 9.625 5.5 C 8.863281 5.5 8.25 6.113281 8.25 6.875 L 8.25 6.976562 C 8.25 6.214844 8.863281 5.601562 9.625 5.601562 L 12.375 5.601562 C 13.136719 5.601562 13.75 6.214844 13.75 6.976562 L 13.75 6.875 C 13.75 6.113281 13.136719 5.5 12.375 5.5 Z M 12.378906 7.867188 C 12.375 7.878906 12.375 7.890625 12.375 7.90625 L 12.375 8.007812 C 12.375 7.972656 12.378906 7.9375 12.390625 7.90625 C 12.386719 7.894531 12.382812 7.878906 12.378906 7.867188 Z M 13.746094 7.867188 C 13.742188 7.878906 13.738281 7.894531 13.734375 7.90625 C 13.746094 7.9375 13.75 7.972656 13.75 8.007812 L 13.75 7.90625 C 13.75 7.890625 13.75 7.878906 13.746094 7.867188 Z M 9.625 9.625 L 9.625 9.726562 L 12.375 9.726562 L 12.375 9.625 Z M 9.625 9.625 "/>
<path style=" stroke:none;fill-rule:nonzero;fill:rgb(100%,100%,100%);fill-opacity:0.4;" d="M 10.3125 6.875 C 9.929688 6.875 9.625 7.183594 9.625 7.5625 L 9.625 7.734375 C 9.625 7.351562 9.929688 7.046875 10.3125 7.046875 L 11.6875 7.046875 C 12.070312 7.046875 12.375 7.351562 12.375 7.734375 L 12.375 7.5625 C 12.375 7.183594 12.070312 6.875 11.6875 6.875 Z M 12.375 7.734375 L 12.375 7.90625 C 12.375 7.871094 12.378906 7.835938 12.390625 7.804688 C 12.378906 7.785156 12.375 7.761719 12.375 7.734375 Z M 13.75 7.734375 C 13.75 7.761719 13.746094 7.785156 13.734375 7.804688 C 13.746094 7.835938 13.75 7.871094 13.75 7.90625 Z M 9.625 11 L 9.625 11.171875 L 12.375 11.171875 L 12.375 11 Z M 8.25 14.09375 L 8.25 14.265625 C 8.25 14.457031 8.402344 14.609375 8.59375 14.609375 L 9.28125 14.609375 C 9.472656 14.609375 9.625 14.457031 9.625 14.265625 L 9.625 14.09375 C 9.625 14.285156 9.472656 14.4375 9.28125 14.4375 L 8.59375 14.4375 C 8.402344 14.4375 8.25 14.285156 8.25 14.09375 Z M 12.375 14.09375 L 12.375 14.265625 C 12.375 14.457031 12.527344 14.609375 12.71875 14.609375 L 13.40625 14.609375 C 13.597656 14.609375 13.75 14.457031 13.75 14.265625 L 13.75 14.09375 C 13.75 14.285156 13.597656 14.4375 13.40625 14.4375 L 12.71875 14.4375 C 12.527344 14.4375 12.375 14.285156 12.375 14.09375 Z M 12.375 14.09375 "/>
<path style=" stroke:none;fill-rule:nonzero;fill:url(#linear1);" d="M 2.75 1.375 L 19.25 1.375 C 20.011719 1.375 20.625 1.992188 20.625 2.75 L 20.625 19.25 C 20.625 20.007812 20.011719 20.625 19.25 20.625 L 2.75 20.625 C 1.992188 20.625 1.375 20.007812 1.375 19.25 L 1.375 2.75 C 1.375 1.992188 1.992188 1.375 2.75 1.375 Z M 2.75 1.375 "/>
</g>
</svg>
