
<svg xmlns="http://www.w3.org/2000/svg" xmlns:xlink="http://www.w3.org/1999/xlink" width="22" height="22" viewBox="0 0 22 22" version="1.1">
<defs>
<linearGradient id="linear0" gradientUnits="userSpaceOnUse" x1="10.054166" y1="-199.125" x2="10.054166" y2="-213.941666" gradientTransform="matrix(1.299213,0,0,1.299213,-0.000434698,279.330723)">
<stop offset="0" style="stop-color:rgb(0%,0%,0%);stop-opacity:0.2;"/>
<stop offset="1" style="stop-color:rgb(100%,100%,100%);stop-opacity:0;"/>
</linearGradient>
</defs>
<g id="surface1">
<path style=" stroke:none;fill-rule:nonzero;fill:rgb(92.54902%,25.098041%,47.843137%);fill-opacity:1;" d="M 2.75 1.375 L 19.25 1.375 C 20.011719 1.375 20.625 1.992188 20.625 2.75 L 20.625 19.25 C 20.625 20.007812 20.011719 20.625 19.25 20.625 L 2.75 20.625 C 1.992188 20.625 1.375 20.007812 1.375 19.25 L 1.375 2.75 C 1.375 1.992188 1.992188 1.375 2.75 1.375 Z M 2.75 1.375 "/>
<path style=" stroke:none;fill-rule:nonzero;fill:rgb(0%,0%,0%);fill-opacity:0.4;" d="M 1.375 18.90625 L 1.375 19.25 C 1.375 20.011719 1.988281 20.625 2.75 20.625 L 19.25 20.625 C 20.011719 20.625 20.625 20.011719 20.625 19.25 L 20.625 18.90625 C 20.625 19.667969 20.011719 20.28125 19.25 20.28125 L 2.75 20.28125 C 1.988281 20.28125 1.375 19.667969 1.375 18.90625 Z M 1.375 18.90625 "/>
<path style=" stroke:none;fill-rule:nonzero;fill:rgb(0%,0%,0%);fill-opacity:0.2;" d="M 1.375 19.25 L 1.375 19.765625 C 1.375 20.527344 1.988281 21.140625 2.75 21.140625 L 19.25 21.140625 C 20.011719 21.140625 20.625 20.527344 20.625 19.765625 L 20.625 19.25 C 20.625 20.011719 20.011719 20.625 19.25 20.625 L 2.75 20.625 C 1.988281 20.625 1.375 20.011719 1.375 19.25 Z M 1.375 19.25 "/>
<path style=" stroke:none;fill-rule:nonzero;fill:rgb(100%,100%,100%);fill-opacity:0.4;" d="M 2.75 1.375 C 1.988281 1.375 1.375 1.988281 1.375 2.75 L 1.375 3.089844 C 1.375 2.328125 1.988281 1.714844 2.75 1.714844 L 19.25 1.714844 C 20.011719 1.714844 20.625 2.328125 20.625 3.089844 L 20.625 2.75 C 20.625 1.988281 20.011719 1.375 19.25 1.375 Z M 2.75 1.375 "/>
<path style=" stroke:none;fill-rule:nonzero;fill:rgb(93.333334%,93.333334%,93.333334%);fill-opacity:0.996078;" d="M 6.875 4.8125 C 6.683594 4.8125 6.53125 4.964844 6.53125 5.15625 L 6.53125 5.84375 C 6.53125 6.035156 6.683594 6.1875 6.875 6.1875 L 8.25 6.1875 C 8.441406 6.1875 8.59375 6.035156 8.59375 5.84375 L 8.59375 5.15625 C 8.59375 4.964844 8.441406 4.8125 8.25 4.8125 Z M 13.75 4.8125 C 13.558594 4.8125 13.40625 4.964844 13.40625 5.15625 L 13.40625 5.84375 C 13.40625 6.035156 13.558594 6.1875 13.75 6.1875 L 15.125 6.1875 C 15.316406 6.1875 15.46875 6.035156 15.46875 5.84375 L 15.46875 5.15625 C 15.46875 4.964844 15.316406 4.8125 15.125 4.8125 Z M 3.4375 6.1875 C 3.246094 6.1875 3.09375 6.339844 3.09375 6.53125 L 3.09375 7.21875 C 3.09375 7.410156 3.246094 7.5625 3.4375 7.5625 L 4.8125 7.5625 C 5.003906 7.5625 5.15625 7.410156 5.15625 7.21875 L 5.15625 6.53125 C 5.15625 6.339844 5.003906 6.1875 4.8125 6.1875 Z M 17.1875 6.1875 C 16.996094 6.1875 16.84375 6.339844 16.84375 6.53125 L 16.84375 7.21875 C 16.84375 7.410156 16.996094 7.5625 17.1875 7.5625 L 18.5625 7.5625 C 18.753906 7.5625 18.90625 7.410156 18.90625 7.21875 L 18.90625 6.53125 C 18.90625 6.339844 18.753906 6.1875 18.5625 6.1875 Z M 6.875 7.5625 C 6.683594 7.5625 6.53125 7.714844 6.53125 7.90625 L 6.53125 8.59375 C 6.53125 8.785156 6.683594 8.9375 6.875 8.9375 L 8.25 8.9375 C 8.441406 8.9375 8.59375 8.785156 8.59375 8.59375 L 8.59375 7.90625 C 8.59375 7.714844 8.441406 7.5625 8.25 7.5625 Z M 10.3125 7.5625 C 10.121094 7.5625 9.96875 7.714844 9.96875 7.90625 L 9.96875 8.59375 C 9.96875 8.785156 10.121094 8.9375 10.3125 8.9375 L 11.6875 8.9375 C 11.878906 8.9375 12.03125 8.785156 12.03125 8.59375 L 12.03125 7.90625 C 12.03125 7.714844 11.878906 7.5625 11.6875 7.5625 Z M 13.75 7.5625 C 13.558594 7.5625 13.40625 7.714844 13.40625 7.90625 L 13.40625 8.59375 C 13.40625 8.785156 13.558594 8.9375 13.75 8.9375 L 15.125 8.9375 C 15.316406 8.9375 15.46875 8.785156 15.46875 8.59375 L 15.46875 7.90625 C 15.46875 7.714844 15.316406 7.5625 15.125 7.5625 Z M 3.4375 8.9375 C 3.246094 8.9375 3.09375 9.089844 3.09375 9.28125 L 3.09375 9.96875 C 3.09375 10.160156 3.246094 10.3125 3.4375 10.3125 L 4.8125 10.3125 C 5.003906 10.3125 5.15625 10.160156 5.15625 9.96875 L 5.15625 9.28125 C 5.15625 9.089844 5.003906 8.9375 4.8125 8.9375 Z M 17.1875 8.9375 C 16.996094 8.9375 16.84375 9.089844 16.84375 9.28125 L 16.84375 9.96875 C 16.84375 10.160156 16.996094 10.3125 17.1875 10.3125 L 18.5625 10.3125 C 18.753906 10.3125 18.90625 10.160156 18.90625 9.96875 L 18.90625 9.28125 C 18.90625 9.089844 18.753906 8.9375 18.5625 8.9375 Z M 6.875 10.3125 C 6.683594 10.3125 6.53125 10.464844 6.53125 10.65625 L 6.53125 11.34375 C 6.53125 11.535156 6.683594 11.6875 6.875 11.6875 L 8.25 11.6875 C 8.441406 11.6875 8.59375 11.535156 8.59375 11.34375 L 8.59375 10.65625 C 8.59375 10.464844 8.441406 10.3125 8.25 10.3125 Z M 10.3125 10.3125 C 10.121094 10.3125 9.96875 10.464844 9.96875 10.65625 L 9.96875 11.34375 C 9.96875 11.535156 10.121094 11.6875 10.3125 11.6875 L 11.6875 11.6875 C 11.878906 11.6875 12.03125 11.535156 12.03125 11.34375 L 12.03125 10.65625 C 12.03125 10.464844 11.878906 10.3125 11.6875 10.3125 Z M 13.75 10.3125 C 13.558594 10.3125 13.40625 10.464844 13.40625 10.65625 L 13.40625 11.34375 C 13.40625 11.535156 13.558594 11.6875 13.75 11.6875 L 15.125 11.6875 C 15.316406 11.6875 15.46875 11.535156 15.46875 11.34375 L 15.46875 10.65625 C 15.46875 10.464844 15.316406 10.3125 15.125 10.3125 Z M 3.4375 11.6875 C 3.246094 11.6875 3.09375 11.839844 3.09375 12.03125 L 3.09375 12.71875 C 3.09375 12.910156 3.246094 13.0625 3.4375 13.0625 L 4.8125 13.0625 C 5.003906 13.0625 5.15625 12.910156 5.15625 12.71875 L 5.15625 12.03125 C 5.15625 11.839844 5.003906 11.6875 4.8125 11.6875 Z M 17.1875 11.6875 C 16.996094 11.6875 16.84375 11.839844 16.84375 12.03125 L 16.84375 12.71875 C 16.84375 12.910156 16.996094 13.0625 17.1875 13.0625 L 18.5625 13.0625 C 18.753906 13.0625 18.90625 12.910156 18.90625 12.71875 L 18.90625 12.03125 C 18.90625 11.839844 18.753906 11.6875 18.5625 11.6875 Z M 6.875 13.0625 C 6.683594 13.0625 6.53125 13.214844 6.53125 13.40625 L 6.53125 14.09375 C 6.53125 14.285156 6.683594 14.4375 6.875 14.4375 L 8.25 14.4375 C 8.441406 14.4375 8.59375 14.285156 8.59375 14.09375 L 8.59375 13.40625 C 8.59375 13.214844 8.441406 13.0625 8.25 13.0625 Z M 10.3125 13.0625 C 10.121094 13.0625 9.96875 13.214844 9.96875 13.40625 L 9.96875 14.09375 C 9.96875 14.285156 10.121094 14.4375 10.3125 14.4375 L 11.6875 14.4375 C 11.878906 14.4375 12.03125 14.285156 12.03125 14.09375 L 12.03125 13.40625 C 12.03125 13.214844 11.878906 13.0625 11.6875 13.0625 Z M 13.75 13.0625 C 13.558594 13.0625 13.40625 13.214844 13.40625 13.40625 L 13.40625 14.09375 C 13.40625 14.285156 13.558594 14.4375 13.75 14.4375 L 15.125 14.4375 C 15.316406 14.4375 15.46875 14.285156 15.46875 14.09375 L 15.46875 13.40625 C 15.46875 13.214844 15.316406 13.0625 15.125 13.0625 Z M 10.3125 15.8125 C 10.121094 15.8125 9.96875 15.964844 9.96875 16.15625 L 9.96875 16.84375 C 9.96875 17.035156 10.121094 17.1875 10.3125 17.1875 L 11.6875 17.1875 C 11.878906 17.1875 12.03125 17.035156 12.03125 16.84375 L 12.03125 16.15625 C 12.03125 15.964844 11.878906 15.8125 11.6875 15.8125 Z M 10.3125 15.8125 "/>
<path style=" stroke:none;fill-rule:nonzero;fill:rgb(100%,100%,100%);fill-opacity:0.6;" d="M 6.875 4.8125 C 6.683594 4.8125 6.53125 4.964844 6.53125 5.15625 L 6.53125 5.5 C 6.53125 5.308594 6.683594 5.15625 6.875 5.15625 L 8.25 5.15625 C 8.441406 5.15625 8.59375 5.308594 8.59375 5.5 L 8.59375 5.15625 C 8.59375 4.964844 8.441406 4.8125 8.25 4.8125 Z M 13.75 4.8125 C 13.558594 4.8125 13.40625 4.964844 13.40625 5.15625 L 13.40625 5.5 C 13.40625 5.308594 13.558594 5.15625 13.75 5.15625 L 15.125 5.15625 C 15.316406 5.15625 15.46875 5.308594 15.46875 5.5 L 15.46875 5.15625 C 15.46875 4.964844 15.316406 4.8125 15.125 4.8125 Z M 3.4375 6.1875 C 3.246094 6.1875 3.09375 6.339844 3.09375 6.53125 L 3.09375 6.875 C 3.09375 6.683594 3.246094 6.53125 3.4375 6.53125 L 4.8125 6.53125 C 5.003906 6.53125 5.15625 6.683594 5.15625 6.875 L 5.15625 6.53125 C 5.15625 6.339844 5.003906 6.1875 4.8125 6.1875 Z M 17.1875 6.1875 C 16.996094 6.1875 16.84375 6.339844 16.84375 6.53125 L 16.84375 6.875 C 16.84375 6.683594 16.996094 6.53125 17.1875 6.53125 L 18.5625 6.53125 C 18.753906 6.53125 18.90625 6.683594 18.90625 6.875 L 18.90625 6.53125 C 18.90625 6.339844 18.753906 6.1875 18.5625 6.1875 Z M 6.875 7.5625 C 6.683594 7.5625 6.53125 7.714844 6.53125 7.90625 L 6.53125 8.25 C 6.53125 8.058594 6.683594 7.90625 6.875 7.90625 L 8.25 7.90625 C 8.441406 7.90625 8.59375 8.058594 8.59375 8.25 L 8.59375 7.90625 C 8.59375 7.714844 8.441406 7.5625 8.25 7.5625 Z M 10.3125 7.5625 C 10.121094 7.5625 9.96875 7.714844 9.96875 7.90625 L 9.96875 8.25 C 9.96875 8.058594 10.121094 7.90625 10.3125 7.90625 L 11.6875 7.90625 C 11.878906 7.90625 12.03125 8.058594 12.03125 8.25 L 12.03125 7.90625 C 12.03125 7.714844 11.878906 7.5625 11.6875 7.5625 Z M 13.75 7.5625 C 13.558594 7.5625 13.40625 7.714844 13.40625 7.90625 L 13.40625 8.25 C 13.40625 8.058594 13.558594 7.90625 13.75 7.90625 L 15.125 7.90625 C 15.316406 7.90625 15.46875 8.058594 15.46875 8.25 L 15.46875 7.90625 C 15.46875 7.714844 15.316406 7.5625 15.125 7.5625 Z M 3.4375 8.9375 C 3.246094 8.9375 3.09375 9.089844 3.09375 9.28125 L 3.09375 9.625 C 3.09375 9.433594 3.246094 9.28125 3.4375 9.28125 L 4.8125 9.28125 C 5.003906 9.28125 5.15625 9.433594 5.15625 9.625 L 5.15625 9.28125 C 5.15625 9.089844 5.003906 8.9375 4.8125 8.9375 Z M 17.1875 8.9375 C 16.996094 8.9375 16.84375 9.089844 16.84375 9.28125 L 16.84375 9.625 C 16.84375 9.433594 16.996094 9.28125 17.1875 9.28125 L 18.5625 9.28125 C 18.753906 9.28125 18.90625 9.433594 18.90625 9.625 L 18.90625 9.28125 C 18.90625 9.089844 18.753906 8.9375 18.5625 8.9375 Z M 6.875 10.3125 C 6.683594 10.3125 6.53125 10.464844 6.53125 10.65625 L 6.53125 11 C 6.53125 10.808594 6.683594 10.65625 6.875 10.65625 L 8.25 10.65625 C 8.441406 10.65625 8.59375 10.808594 8.59375 11 L 8.59375 10.65625 C 8.59375 10.464844 8.441406 10.3125 8.25 10.3125 Z M 10.3125 10.3125 C 10.121094 10.3125 9.96875 10.464844 9.96875 10.65625 L 9.96875 11 C 9.96875 10.808594 10.121094 10.65625 10.3125 10.65625 L 11.6875 10.65625 C 11.878906 10.65625 12.03125 10.808594 12.03125 11 L 12.03125 10.65625 C 12.03125 10.464844 11.878906 10.3125 11.6875 10.3125 Z M 13.75 10.3125 C 13.558594 10.3125 13.40625 10.464844 13.40625 10.65625 L 13.40625 11 C 13.40625 10.808594 13.558594 10.65625 13.75 10.65625 L 15.125 10.65625 C 15.316406 10.65625 15.46875 10.808594 15.46875 11 L 15.46875 10.65625 C 15.46875 10.464844 15.316406 10.3125 15.125 10.3125 Z M 3.4375 11.6875 C 3.246094 11.6875 3.09375 11.839844 3.09375 12.03125 L 3.09375 12.375 C 3.09375 12.183594 3.246094 12.03125 3.4375 12.03125 L 4.8125 12.03125 C 5.003906 12.03125 5.15625 12.183594 5.15625 12.375 L 5.15625 12.03125 C 5.15625 11.839844 5.003906 11.6875 4.8125 11.6875 Z M 17.1875 11.6875 C 16.996094 11.6875 16.84375 11.839844 16.84375 12.03125 L 16.84375 12.375 C 16.84375 12.183594 16.996094 12.03125 17.1875 12.03125 L 18.5625 12.03125 C 18.753906 12.03125 18.90625 12.183594 18.90625 12.375 L 18.90625 12.03125 C 18.90625 11.839844 18.753906 11.6875 18.5625 11.6875 Z M 6.875 13.0625 C 6.683594 13.0625 6.53125 13.214844 6.53125 13.40625 L 6.53125 13.75 C 6.53125 13.558594 6.683594 13.40625 6.875 13.40625 L 8.25 13.40625 C 8.441406 13.40625 8.59375 13.558594 8.59375 13.75 L 8.59375 13.40625 C 8.59375 13.214844 8.441406 13.0625 8.25 13.0625 Z M 10.3125 13.0625 C 10.121094 13.0625 9.96875 13.214844 9.96875 13.40625 L 9.96875 13.75 C 9.96875 13.558594 10.121094 13.40625 10.3125 13.40625 L 11.6875 13.40625 C 11.878906 13.40625 12.03125 13.558594 12.03125 13.75 L 12.03125 13.40625 C 12.03125 13.214844 11.878906 13.0625 11.6875 13.0625 Z M 13.75 13.0625 C 13.558594 13.0625 13.40625 13.214844 13.40625 13.40625 L 13.40625 13.75 C 13.40625 13.558594 13.558594 13.40625 13.75 13.40625 L 15.125 13.40625 C 15.316406 13.40625 15.46875 13.558594 15.46875 13.75 L 15.46875 13.40625 C 15.46875 13.214844 15.316406 13.0625 15.125 13.0625 Z M 10.3125 15.8125 C 10.121094 15.8125 9.96875 15.964844 9.96875 16.15625 L 9.96875 16.5 C 9.96875 16.308594 10.121094 16.15625 10.3125 16.15625 L 11.6875 16.15625 C 11.878906 16.15625 12.03125 16.308594 12.03125 16.5 L 12.03125 16.15625 C 12.03125 15.964844 11.878906 15.8125 11.6875 15.8125 Z M 10.3125 15.8125 "/>
<path style=" stroke:none;fill-rule:nonzero;fill:rgb(0%,0%,0%);fill-opacity:0.4;" d="M 6.53125 5.84375 L 6.53125 6.1875 C 6.53125 6.378906 6.683594 6.53125 6.875 6.53125 L 8.25 6.53125 C 8.441406 6.53125 8.59375 6.378906 8.59375 6.1875 L 8.59375 5.84375 C 8.59375 6.035156 8.441406 6.1875 8.25 6.1875 L 6.875 6.1875 C 6.683594 6.1875 6.53125 6.035156 6.53125 5.84375 Z M 13.40625 5.84375 L 13.40625 6.1875 C 13.40625 6.378906 13.558594 6.53125 13.75 6.53125 L 15.125 6.53125 C 15.316406 6.53125 15.46875 6.378906 15.46875 6.1875 L 15.46875 5.84375 C 15.46875 6.035156 15.316406 6.1875 15.125 6.1875 L 13.75 6.1875 C 13.558594 6.1875 13.40625 6.035156 13.40625 5.84375 Z M 3.09375 7.21875 L 3.09375 7.5625 C 3.09375 7.753906 3.246094 7.90625 3.4375 7.90625 L 4.8125 7.90625 C 5.003906 7.90625 5.15625 7.753906 5.15625 7.5625 L 5.15625 7.21875 C 5.15625 7.410156 5.003906 7.5625 4.8125 7.5625 L 3.4375 7.5625 C 3.246094 7.5625 3.09375 7.410156 3.09375 7.21875 Z M 16.84375 7.21875 L 16.84375 7.5625 C 16.84375 7.753906 16.996094 7.90625 17.1875 7.90625 L 18.5625 7.90625 C 18.753906 7.90625 18.90625 7.753906 18.90625 7.5625 L 18.90625 7.21875 C 18.90625 7.410156 18.753906 7.5625 18.5625 7.5625 L 17.1875 7.5625 C 16.996094 7.5625 16.84375 7.410156 16.84375 7.21875 Z M 6.53125 8.59375 L 6.53125 8.9375 C 6.53125 9.128906 6.683594 9.28125 6.875 9.28125 L 8.25 9.28125 C 8.441406 9.28125 8.59375 9.128906 8.59375 8.9375 L 8.59375 8.59375 C 8.59375 8.785156 8.441406 8.9375 8.25 8.9375 L 6.875 8.9375 C 6.683594 8.9375 6.53125 8.785156 6.53125 8.59375 Z M 9.96875 8.59375 L 9.96875 8.9375 C 9.96875 9.128906 10.121094 9.28125 10.3125 9.28125 L 11.6875 9.28125 C 11.878906 9.28125 12.03125 9.128906 12.03125 8.9375 L 12.03125 8.59375 C 12.03125 8.785156 11.878906 8.9375 11.6875 8.9375 L 10.3125 8.9375 C 10.121094 8.9375 9.96875 8.785156 9.96875 8.59375 Z M 13.40625 8.59375 L 13.40625 8.9375 C 13.40625 9.128906 13.558594 9.28125 13.75 9.28125 L 15.125 9.28125 C 15.316406 9.28125 15.46875 9.128906 15.46875 8.9375 L 15.46875 8.59375 C 15.46875 8.785156 15.316406 8.9375 15.125 8.9375 L 13.75 8.9375 C 13.558594 8.9375 13.40625 8.785156 13.40625 8.59375 Z M 3.09375 9.96875 L 3.09375 10.3125 C 3.09375 10.503906 3.246094 10.65625 3.4375 10.65625 L 4.8125 10.65625 C 5.003906 10.65625 5.15625 10.503906 5.15625 10.3125 L 5.15625 9.96875 C 5.15625 10.160156 5.003906 10.3125 4.8125 10.3125 L 3.4375 10.3125 C 3.246094 10.3125 3.09375 10.160156 3.09375 9.96875 Z M 16.84375 9.96875 L 16.84375 10.3125 C 16.84375 10.503906 16.996094 10.65625 17.1875 10.65625 L 18.5625 10.65625 C 18.753906 10.65625 18.90625 10.503906 18.90625 10.3125 L 18.90625 9.96875 C 18.90625 10.160156 18.753906 10.3125 18.5625 10.3125 L 17.1875 10.3125 C 16.996094 10.3125 16.84375 10.160156 16.84375 9.96875 Z M 6.53125 11.34375 L 6.53125 11.6875 C 6.53125 11.878906 6.683594 12.03125 6.875 12.03125 L 8.25 12.03125 C 8.441406 12.03125 8.59375 11.878906 8.59375 11.6875 L 8.59375 11.34375 C 8.59375 11.535156 8.441406 11.6875 8.25 11.6875 L 6.875 11.6875 C 6.683594 11.6875 6.53125 11.535156 6.53125 11.34375 Z M 9.96875 11.34375 L 9.96875 11.6875 C 9.96875 11.878906 10.121094 12.03125 10.3125 12.03125 L 11.6875 12.03125 C 11.878906 12.03125 12.03125 11.878906 12.03125 11.6875 L 12.03125 11.34375 C 12.03125 11.535156 11.878906 11.6875 11.6875 11.6875 L 10.3125 11.6875 C 10.121094 11.6875 9.96875 11.535156 9.96875 11.34375 Z M 13.40625 11.34375 L 13.40625 11.6875 C 13.40625 11.878906 13.558594 12.03125 13.75 12.03125 L 15.125 12.03125 C 15.316406 12.03125 15.46875 11.878906 15.46875 11.6875 L 15.46875 11.34375 C 15.46875 11.535156 15.316406 11.6875 15.125 11.6875 L 13.75 11.6875 C 13.558594 11.6875 13.40625 11.535156 13.40625 11.34375 Z M 3.09375 12.71875 L 3.09375 13.0625 C 3.09375 13.253906 3.246094 13.40625 3.4375 13.40625 L 4.8125 13.40625 C 5.003906 13.40625 5.15625 13.253906 5.15625 13.0625 L 5.15625 12.71875 C 5.15625 12.910156 5.003906 13.0625 4.8125 13.0625 L 3.4375 13.0625 C 3.246094 13.0625 3.09375 12.910156 3.09375 12.71875 Z M 16.84375 12.71875 L 16.84375 13.0625 C 16.84375 13.253906 16.996094 13.40625 17.1875 13.40625 L 18.5625 13.40625 C 18.753906 13.40625 18.90625 13.253906 18.90625 13.0625 L 18.90625 12.71875 C 18.90625 12.910156 18.753906 13.0625 18.5625 13.0625 L 17.1875 13.0625 C 16.996094 13.0625 16.84375 12.910156 16.84375 12.71875 Z M 6.53125 14.09375 L 6.53125 14.4375 C 6.53125 14.628906 6.683594 14.78125 6.875 14.78125 L 8.25 14.78125 C 8.441406 14.78125 8.59375 14.628906 8.59375 14.4375 L 8.59375 14.09375 C 8.59375 14.285156 8.441406 14.4375 8.25 14.4375 L 6.875 14.4375 C 6.683594 14.4375 6.53125 14.285156 6.53125 14.09375 Z M 9.96875 14.09375 L 9.96875 14.4375 C 9.96875 14.628906 10.121094 14.78125 10.3125 14.78125 L 11.6875 14.78125 C 11.878906 14.78125 12.03125 14.628906 12.03125 14.4375 L 12.03125 14.09375 C 12.03125 14.285156 11.878906 14.4375 11.6875 14.4375 L 10.3125 14.4375 C 10.121094 14.4375 9.96875 14.285156 9.96875 14.09375 Z M 13.40625 14.09375 L 13.40625 14.4375 C 13.40625 14.628906 13.558594 14.78125 13.75 14.78125 L 15.125 14.78125 C 15.316406 14.78125 15.46875 14.628906 15.46875 14.4375 L 15.46875 14.09375 C 15.46875 14.285156 15.316406 14.4375 15.125 14.4375 L 13.75 14.4375 C 13.558594 14.4375 13.40625 14.285156 13.40625 14.09375 Z M 9.96875 16.84375 L 9.96875 17.1875 C 9.96875 17.378906 10.121094 17.53125 10.3125 17.53125 L 11.6875 17.53125 C 11.878906 17.53125 12.03125 17.378906 12.03125 17.1875 L 12.03125 16.84375 C 12.03125 17.035156 11.878906 17.1875 11.6875 17.1875 L 10.3125 17.1875 C 10.121094 17.1875 9.96875 17.035156 9.96875 16.84375 Z M 9.96875 16.84375 "/>
<path style=" stroke:none;fill-rule:nonzero;fill:url(#linear0);" d="M 2.75 1.375 L 19.25 1.375 C 20.007812 1.375 20.625 1.992188 20.625 2.75 L 20.625 19.25 C 20.625 20.007812 20.007812 20.625 19.25 20.625 L 2.75 20.625 C 1.988281 20.625 1.375 20.007812 1.375 19.25 L 1.375 2.75 C 1.375 1.992188 1.988281 1.375 2.75 1.375 Z M 2.75 1.375 "/>
</g>
</svg>
