
<svg xmlns="http://www.w3.org/2000/svg" xmlns:xlink="http://www.w3.org/1999/xlink" width="22" height="22" viewBox="0 0 22 22" version="1.1">
<defs>
<linearGradient id="linear0" gradientUnits="userSpaceOnUse" x1="32" y1="59.999996" x2="32" y2="4" gradientTransform="matrix(0.34375,0,0,0.34375,0,0.00000000000003908)">
<stop offset="0" style="stop-color:rgb(0%,0%,0%);stop-opacity:0.2;"/>
<stop offset="1" style="stop-color:rgb(100%,100%,100%);stop-opacity:0;"/>
</linearGradient>
</defs>
<g id="surface1">
<path style=" stroke:none;fill-rule:nonzero;fill:rgb(25.098041%,70.588237%,38.039216%);fill-opacity:1;" d="M 2.75 1.375 C 1.988281 1.375 1.375 1.988281 1.375 2.75 L 1.375 19.25 C 1.375 20.011719 1.988281 20.625 2.75 20.625 L 6.875 20.625 L 6.875 6.875 L 13.75 6.875 L 13.75 1.375 Z M 15.125 1.375 L 15.125 20.625 L 19.25 20.625 C 20.011719 20.625 20.625 20.011719 20.625 19.25 L 20.625 2.75 C 20.625 1.988281 20.011719 1.375 19.25 1.375 Z M 8.25 8.25 L 8.25 20.625 L 13.75 20.625 L 13.75 8.25 Z M 8.25 8.25 "/>
<path style=" stroke:none;fill-rule:nonzero;fill:rgb(100%,100%,100%);fill-opacity:0.4;" d="M 2.75 1.375 C 1.988281 1.375 1.375 1.988281 1.375 2.75 L 1.375 3.09375 C 1.375 2.332031 1.988281 1.71875 2.75 1.71875 L 13.75 1.71875 L 13.75 1.375 Z M 15.125 1.375 L 15.125 1.71875 L 19.25 1.71875 C 20.011719 1.71875 20.625 2.332031 20.625 3.09375 L 20.625 2.75 C 20.625 1.988281 20.011719 1.375 19.25 1.375 Z M 8.25 8.25 L 8.25 8.59375 L 13.75 8.59375 L 13.75 8.25 Z M 8.25 8.25 "/>
<path style=" stroke:none;fill-rule:nonzero;fill:rgb(0%,0%,0%);fill-opacity:0.4;" d="M 6.875 6.53125 L 6.875 6.875 L 13.75 6.875 L 13.75 6.53125 Z M 1.375 18.90625 L 1.375 19.25 C 1.375 20.011719 1.988281 20.625 2.75 20.625 L 6.875 20.625 L 6.875 20.28125 L 2.75 20.28125 C 1.988281 20.28125 1.375 19.667969 1.375 18.90625 Z M 20.625 18.90625 C 20.625 19.667969 20.011719 20.28125 19.25 20.28125 L 15.125 20.28125 L 15.125 20.625 L 19.25 20.625 C 20.011719 20.625 20.625 20.011719 20.625 19.25 Z M 8.25 20.28125 L 8.25 20.625 L 13.75 20.625 L 13.75 20.28125 Z M 8.25 20.28125 "/>
<path style=" stroke:none;fill-rule:nonzero;fill:rgb(0%,0%,0%);fill-opacity:0.2;" d="M 6.875 6.875 L 6.875 7.390625 L 13.75 7.390625 L 13.75 6.875 Z M 1.375 19.25 L 1.375 19.765625 C 1.375 20.527344 1.988281 21.140625 2.75 21.140625 L 6.875 21.140625 L 6.875 20.625 L 2.75 20.625 C 1.988281 20.625 1.375 20.011719 1.375 19.25 Z M 20.625 19.25 C 20.625 20.011719 20.011719 20.625 19.25 20.625 L 15.125 20.625 L 15.125 21.140625 L 19.25 21.140625 C 20.011719 21.140625 20.625 20.527344 20.625 19.765625 Z M 8.25 20.625 L 8.25 21.140625 L 13.75 21.140625 L 13.75 20.625 Z M 8.25 20.625 "/>
<path style=" stroke:none;fill-rule:nonzero;fill:url(#linear0);" d="M 2.75 1.375 C 1.988281 1.375 1.375 1.988281 1.375 2.75 L 1.375 19.25 C 1.375 20.011719 1.988281 20.625 2.75 20.625 L 6.875 20.625 L 6.875 6.875 L 13.75 6.875 L 13.75 1.375 Z M 15.125 1.375 L 15.125 20.625 L 19.25 20.625 C 20.011719 20.625 20.625 20.011719 20.625 19.25 L 20.625 2.75 C 20.625 1.988281 20.011719 1.375 19.25 1.375 Z M 8.25 8.25 L 8.25 20.625 L 13.75 20.625 L 13.75 8.25 Z M 8.25 8.25 "/>
</g>
</svg>
