
<svg xmlns="http://www.w3.org/2000/svg" xmlns:xlink="http://www.w3.org/1999/xlink" width="22" height="22" viewBox="0 0 22 22" version="1.1">
<defs>
<linearGradient id="linear0" gradientUnits="userSpaceOnUse" x1="10.054166" y1="-199.125" x2="10.054166" y2="-213.941666" gradientTransform="matrix(1.299213,0,0,1.299213,-0.000434698,279.330723)">
<stop offset="0" style="stop-color:rgb(0%,0%,0%);stop-opacity:0.2;"/>
<stop offset="1" style="stop-color:rgb(100%,100%,100%);stop-opacity:0;"/>
</linearGradient>
</defs>
<g id="surface1">
<path style=" stroke:none;fill-rule:nonzero;fill:rgb(38.039216%,38.039216%,38.039216%);fill-opacity:1;" d="M 2.75 1.375 L 19.25 1.375 C 20.011719 1.375 20.625 1.992188 20.625 2.75 L 20.625 19.25 C 20.625 20.007812 20.011719 20.625 19.25 20.625 L 2.75 20.625 C 1.992188 20.625 1.375 20.007812 1.375 19.25 L 1.375 2.75 C 1.375 1.992188 1.992188 1.375 2.75 1.375 Z M 2.75 1.375 "/>
<path style=" stroke:none;fill-rule:nonzero;fill:rgb(0%,0%,0%);fill-opacity:0.4;" d="M 1.375 18.90625 L 1.375 19.25 C 1.375 20.011719 1.988281 20.625 2.75 20.625 L 19.25 20.625 C 20.011719 20.625 20.625 20.011719 20.625 19.25 L 20.625 18.90625 C 20.625 19.667969 20.011719 20.28125 19.25 20.28125 L 2.75 20.28125 C 1.988281 20.28125 1.375 19.667969 1.375 18.90625 Z M 1.375 18.90625 "/>
<path style=" stroke:none;fill-rule:nonzero;fill:rgb(0%,0%,0%);fill-opacity:0.2;" d="M 1.375 19.25 L 1.375 19.765625 C 1.375 20.527344 1.988281 21.140625 2.75 21.140625 L 19.25 21.140625 C 20.011719 21.140625 20.625 20.527344 20.625 19.765625 L 20.625 19.25 C 20.625 20.011719 20.011719 20.625 19.25 20.625 L 2.75 20.625 C 1.988281 20.625 1.375 20.011719 1.375 19.25 Z M 1.375 19.25 "/>
<path style=" stroke:none;fill-rule:nonzero;fill:rgb(100%,100%,100%);fill-opacity:0.4;" d="M 2.75 1.375 C 1.988281 1.375 1.375 1.988281 1.375 2.75 L 1.375 3.089844 C 1.375 2.328125 1.988281 1.714844 2.75 1.714844 L 19.25 1.714844 C 20.011719 1.714844 20.625 2.328125 20.625 3.089844 L 20.625 2.75 C 20.625 1.988281 20.011719 1.375 19.25 1.375 Z M 2.75 1.375 "/>
<path style=" stroke:none;fill-rule:nonzero;fill:rgb(87.843138%,87.843138%,87.843138%);fill-opacity:1;" d="M 8.890625 4.8125 C 8.667969 4.816406 8.449219 4.839844 8.234375 4.882812 L 8.007812 6.027344 C 7.816406 6.109375 7.640625 6.210938 7.480469 6.332031 L 6.371094 5.960938 C 6.21875 6.132812 6.082031 6.324219 5.960938 6.53125 C 5.839844 6.738281 5.742188 6.953125 5.671875 7.175781 L 6.550781 7.945312 C 6.539062 8.046875 6.53125 8.148438 6.53125 8.25 C 6.53125 8.351562 6.539062 8.453125 6.550781 8.554688 L 5.671875 9.324219 C 5.742188 9.546875 5.839844 9.761719 5.960938 9.96875 C 6.082031 10.175781 6.21875 10.367188 6.371094 10.539062 L 7.480469 10.167969 C 7.640625 10.289062 7.816406 10.390625 8.007812 10.472656 L 8.234375 11.617188 C 8.460938 11.664062 8.695312 11.6875 8.9375 11.6875 C 9.179688 11.6875 9.414062 11.664062 9.640625 11.617188 L 9.867188 10.472656 C 10.058594 10.390625 10.234375 10.289062 10.394531 10.167969 L 11.503906 10.539062 C 11.65625 10.367188 11.792969 10.175781 11.914062 9.96875 C 12.035156 9.761719 12.132812 9.546875 12.203125 9.324219 L 11.324219 8.554688 C 11.335938 8.453125 11.34375 8.351562 11.34375 8.25 C 11.34375 8.148438 11.335938 8.046875 11.324219 7.945312 L 12.203125 7.175781 C 12.132812 6.953125 12.035156 6.738281 11.914062 6.53125 C 11.792969 6.324219 11.65625 6.132812 11.503906 5.960938 L 10.394531 6.332031 C 10.234375 6.210938 10.058594 6.109375 9.867188 6.027344 L 9.640625 4.882812 C 9.414062 4.835938 9.179688 4.8125 8.9375 4.8125 C 8.921875 4.8125 8.90625 4.8125 8.890625 4.8125 Z M 8.9375 6.875 C 9.699219 6.875 10.3125 7.488281 10.3125 8.25 C 10.3125 9.011719 9.699219 9.625 8.9375 9.625 C 8.175781 9.625 7.5625 9.011719 7.5625 8.25 C 7.5625 7.488281 8.175781 6.875 8.9375 6.875 Z M 8.9375 6.875 "/>
<path style=" stroke:none;fill-rule:nonzero;fill:rgb(100%,100%,100%);fill-opacity:0.8;" d="M 8.890625 4.8125 C 8.667969 4.816406 8.449219 4.839844 8.234375 4.882812 L 8.007812 6.027344 C 7.816406 6.109375 7.640625 6.210938 7.480469 6.332031 L 6.371094 5.960938 C 6.21875 6.132812 6.082031 6.324219 5.960938 6.53125 C 5.839844 6.738281 5.742188 6.953125 5.671875 7.175781 L 5.746094 7.242188 C 5.808594 7.09375 5.878906 6.945312 5.960938 6.804688 C 6.082031 6.59375 6.21875 6.40625 6.371094 6.230469 L 7.480469 6.605469 C 7.640625 6.484375 7.816406 6.378906 8.007812 6.300781 L 8.234375 5.15625 C 8.449219 5.113281 8.667969 5.085938 8.890625 5.085938 C 8.90625 5.085938 8.921875 5.085938 8.9375 5.085938 C 9.179688 5.085938 9.414062 5.109375 9.640625 5.15625 L 9.867188 6.300781 C 10.058594 6.378906 10.234375 6.484375 10.394531 6.605469 L 11.503906 6.230469 C 11.65625 6.40625 11.792969 6.59375 11.914062 6.804688 C 11.996094 6.945312 12.066406 7.09375 12.128906 7.242188 L 12.203125 7.175781 C 12.132812 6.953125 12.035156 6.738281 11.914062 6.53125 C 11.792969 6.324219 11.65625 6.132812 11.503906 5.960938 L 10.394531 6.332031 C 10.234375 6.210938 10.058594 6.109375 9.867188 6.027344 L 9.640625 4.882812 C 9.414062 4.835938 9.179688 4.8125 8.9375 4.8125 C 8.921875 4.8125 8.90625 4.8125 8.890625 4.8125 Z M 6.53125 8.203125 C 6.53125 8.21875 6.53125 8.234375 6.53125 8.25 C 6.53125 8.296875 6.53125 8.339844 6.535156 8.386719 C 6.539062 8.328125 6.542969 8.273438 6.550781 8.21875 Z M 11.34375 8.203125 L 11.324219 8.21875 C 11.332031 8.273438 11.335938 8.328125 11.339844 8.386719 C 11.34375 8.339844 11.34375 8.296875 11.34375 8.25 C 11.34375 8.234375 11.34375 8.21875 11.34375 8.203125 Z M 7.570312 8.386719 C 7.566406 8.429688 7.5625 8.476562 7.5625 8.523438 C 7.5625 9.285156 8.175781 9.898438 8.9375 9.898438 C 9.699219 9.898438 10.3125 9.285156 10.3125 8.523438 C 10.3125 8.476562 10.308594 8.429688 10.304688 8.386719 C 10.238281 9.082031 9.652344 9.625 8.9375 9.625 C 8.222656 9.625 7.636719 9.082031 7.570312 8.386719 Z M 6.53125 8.570312 L 5.671875 9.324219 C 5.695312 9.394531 5.71875 9.464844 5.746094 9.53125 L 6.550781 8.824219 C 6.539062 8.742188 6.535156 8.65625 6.53125 8.570312 Z M 11.34375 8.570312 C 11.339844 8.65625 11.335938 8.742188 11.324219 8.824219 L 12.128906 9.53125 C 12.15625 9.464844 12.179688 9.394531 12.203125 9.324219 Z M 11.34375 8.570312 "/>
<path style=" stroke:none;fill-rule:nonzero;fill:rgb(0%,0%,0%);fill-opacity:0.4;" d="M 8.9375 6.875 C 8.175781 6.875 7.5625 7.488281 7.5625 8.25 C 7.5625 8.296875 7.566406 8.347656 7.570312 8.394531 C 7.640625 7.699219 8.222656 7.164062 8.9375 7.164062 C 9.652344 7.164062 10.234375 7.699219 10.304688 8.394531 C 10.308594 8.347656 10.3125 8.296875 10.3125 8.25 C 10.3125 7.488281 9.699219 6.875 8.9375 6.875 Z M 5.753906 7.246094 C 5.722656 7.316406 5.695312 7.390625 5.671875 7.460938 L 6.53125 8.21875 C 6.53125 8.125 6.539062 8.035156 6.550781 7.945312 Z M 12.121094 7.246094 L 11.324219 7.945312 C 11.335938 8.035156 11.34375 8.125 11.34375 8.21875 L 12.203125 7.460938 C 12.179688 7.390625 12.152344 7.316406 12.121094 7.246094 Z M 6.535156 8.394531 C 6.53125 8.441406 6.53125 8.488281 6.53125 8.539062 C 6.53125 8.546875 6.53125 8.558594 6.53125 8.570312 L 6.550781 8.554688 C 6.542969 8.5 6.539062 8.449219 6.535156 8.394531 Z M 11.339844 8.394531 C 11.335938 8.449219 11.332031 8.5 11.324219 8.554688 L 11.34375 8.570312 C 11.34375 8.558594 11.34375 8.546875 11.34375 8.539062 C 11.34375 8.488281 11.34375 8.441406 11.339844 8.394531 Z M 5.753906 9.542969 L 5.671875 9.613281 C 5.742188 9.832031 5.839844 10.046875 5.960938 10.257812 C 6.082031 10.464844 6.21875 10.65625 6.371094 10.828125 L 7.480469 10.453125 C 7.640625 10.578125 7.816406 10.679688 8.007812 10.757812 L 8.234375 11.902344 C 8.460938 11.949219 8.695312 11.976562 8.9375 11.976562 C 9.179688 11.976562 9.414062 11.949219 9.640625 11.902344 L 9.867188 10.757812 C 10.058594 10.679688 10.234375 10.578125 10.394531 10.453125 L 11.503906 10.828125 C 11.65625 10.65625 11.792969 10.464844 11.914062 10.257812 C 12.035156 10.046875 12.132812 9.832031 12.203125 9.613281 L 12.121094 9.542969 C 12.0625 9.6875 11.996094 9.828125 11.914062 9.96875 C 11.792969 10.175781 11.65625 10.367188 11.503906 10.539062 L 10.394531 10.167969 C 10.234375 10.289062 10.058594 10.390625 9.867188 10.472656 L 9.640625 11.617188 C 9.414062 11.664062 9.179688 11.6875 8.9375 11.6875 C 8.695312 11.6875 8.460938 11.664062 8.234375 11.617188 L 8.007812 10.472656 C 7.816406 10.390625 7.640625 10.289062 7.480469 10.167969 L 6.371094 10.539062 C 6.21875 10.367188 6.082031 10.175781 5.960938 9.96875 C 5.878906 9.828125 5.8125 9.6875 5.753906 9.542969 Z M 5.753906 9.542969 "/>
<path style=" stroke:none;fill-rule:nonzero;fill:rgb(87.843138%,87.843138%,87.843138%);fill-opacity:1;" d="M 13.703125 9.625 C 13.480469 9.628906 13.261719 9.652344 13.046875 9.695312 L 12.820312 10.839844 C 12.628906 10.921875 12.453125 11.023438 12.292969 11.144531 L 11.183594 10.773438 C 11.03125 10.945312 10.894531 11.136719 10.773438 11.34375 C 10.652344 11.550781 10.554688 11.765625 10.484375 11.988281 L 11.363281 12.757812 C 11.351562 12.859375 11.34375 12.960938 11.34375 13.0625 C 11.34375 13.164062 11.351562 13.265625 11.363281 13.367188 L 10.484375 14.136719 C 10.554688 14.359375 10.652344 14.574219 10.773438 14.78125 C 10.894531 14.988281 11.03125 15.179688 11.183594 15.351562 L 12.292969 14.980469 C 12.453125 15.101562 12.628906 15.203125 12.820312 15.285156 L 13.046875 16.429688 C 13.273438 16.476562 13.507812 16.5 13.75 16.5 C 13.992188 16.5 14.226562 16.476562 14.453125 16.429688 L 14.679688 15.285156 C 14.871094 15.203125 15.046875 15.101562 15.207031 14.980469 L 16.316406 15.351562 C 16.46875 15.179688 16.605469 14.988281 16.726562 14.78125 C 16.847656 14.574219 16.945312 14.359375 17.015625 14.136719 L 16.136719 13.367188 C 16.148438 13.265625 16.15625 13.164062 16.15625 13.0625 C 16.15625 12.960938 16.148438 12.859375 16.136719 12.757812 L 17.015625 11.988281 C 16.945312 11.765625 16.847656 11.550781 16.726562 11.34375 C 16.605469 11.136719 16.46875 10.945312 16.316406 10.773438 L 15.207031 11.144531 C 15.046875 11.023438 14.871094 10.921875 14.679688 10.839844 L 14.453125 9.695312 C 14.226562 9.648438 13.992188 9.625 13.75 9.625 C 13.734375 9.625 13.71875 9.625 13.703125 9.625 Z M 13.75 11.6875 C 14.511719 11.6875 15.125 12.300781 15.125 13.0625 C 15.125 13.824219 14.511719 14.4375 13.75 14.4375 C 12.988281 14.4375 12.375 13.824219 12.375 13.0625 C 12.375 12.300781 12.988281 11.6875 13.75 11.6875 Z M 13.75 11.6875 "/>
<path style=" stroke:none;fill-rule:nonzero;fill:rgb(100%,100%,100%);fill-opacity:0.8;" d="M 13.703125 9.625 C 13.480469 9.628906 13.261719 9.652344 13.046875 9.695312 L 12.820312 10.839844 C 12.628906 10.921875 12.453125 11.023438 12.292969 11.144531 L 11.183594 10.773438 C 11.03125 10.945312 10.894531 11.136719 10.773438 11.34375 C 10.652344 11.550781 10.554688 11.765625 10.484375 11.988281 L 10.558594 12.054688 C 10.621094 11.90625 10.691406 11.757812 10.773438 11.617188 C 10.894531 11.40625 11.03125 11.21875 11.183594 11.042969 L 12.292969 11.417969 C 12.453125 11.296875 12.628906 11.191406 12.820312 11.113281 L 13.046875 9.96875 C 13.261719 9.925781 13.480469 9.898438 13.703125 9.898438 C 13.71875 9.898438 13.734375 9.898438 13.75 9.898438 C 13.992188 9.898438 14.226562 9.921875 14.453125 9.96875 L 14.679688 11.113281 C 14.871094 11.191406 15.046875 11.296875 15.207031 11.417969 L 16.316406 11.042969 C 16.46875 11.21875 16.605469 11.40625 16.726562 11.617188 C 16.808594 11.757812 16.878906 11.90625 16.941406 12.054688 L 17.015625 11.988281 C 16.945312 11.765625 16.847656 11.550781 16.726562 11.34375 C 16.605469 11.136719 16.46875 10.945312 16.316406 10.773438 L 15.207031 11.144531 C 15.046875 11.023438 14.871094 10.921875 14.679688 10.839844 L 14.453125 9.695312 C 14.226562 9.648438 13.992188 9.625 13.75 9.625 C 13.734375 9.625 13.71875 9.625 13.703125 9.625 Z M 11.34375 13.015625 C 11.34375 13.03125 11.34375 13.046875 11.34375 13.0625 C 11.34375 13.109375 11.34375 13.152344 11.347656 13.199219 C 11.351562 13.140625 11.355469 13.085938 11.363281 13.03125 Z M 16.15625 13.015625 L 16.136719 13.03125 C 16.144531 13.085938 16.148438 13.140625 16.152344 13.199219 C 16.15625 13.152344 16.15625 13.109375 16.15625 13.0625 C 16.15625 13.046875 16.15625 13.03125 16.15625 13.015625 Z M 12.382812 13.199219 C 12.378906 13.242188 12.375 13.289062 12.375 13.335938 C 12.375 14.097656 12.988281 14.710938 13.75 14.710938 C 14.511719 14.710938 15.125 14.097656 15.125 13.335938 C 15.125 13.289062 15.121094 13.242188 15.117188 13.199219 C 15.050781 13.894531 14.464844 14.4375 13.75 14.4375 C 13.035156 14.4375 12.449219 13.894531 12.382812 13.199219 Z M 11.34375 13.382812 L 10.484375 14.136719 C 10.507812 14.207031 10.53125 14.277344 10.558594 14.34375 L 11.363281 13.636719 C 11.351562 13.554688 11.347656 13.46875 11.34375 13.382812 Z M 16.15625 13.382812 C 16.152344 13.46875 16.148438 13.554688 16.136719 13.636719 L 16.941406 14.34375 C 16.96875 14.277344 16.992188 14.207031 17.015625 14.136719 Z M 16.15625 13.382812 "/>
<path style=" stroke:none;fill-rule:nonzero;fill:rgb(0%,0%,0%);fill-opacity:0.4;" d="M 13.75 11.6875 C 12.988281 11.6875 12.375 12.300781 12.375 13.0625 C 12.375 13.109375 12.378906 13.160156 12.382812 13.207031 C 12.453125 12.511719 13.035156 11.976562 13.75 11.976562 C 14.464844 11.976562 15.046875 12.511719 15.117188 13.207031 C 15.121094 13.160156 15.125 13.109375 15.125 13.0625 C 15.125 12.300781 14.511719 11.6875 13.75 11.6875 Z M 10.566406 12.058594 C 10.535156 12.128906 10.507812 12.203125 10.484375 12.273438 L 11.34375 13.03125 C 11.34375 12.9375 11.351562 12.847656 11.363281 12.757812 Z M 16.933594 12.058594 L 16.136719 12.757812 C 16.148438 12.847656 16.15625 12.9375 16.15625 13.03125 L 17.015625 12.273438 C 16.992188 12.203125 16.964844 12.128906 16.933594 12.058594 Z M 11.347656 13.207031 C 11.34375 13.253906 11.34375 13.300781 11.34375 13.351562 C 11.34375 13.359375 11.34375 13.371094 11.34375 13.382812 L 11.363281 13.367188 C 11.355469 13.3125 11.351562 13.261719 11.347656 13.207031 Z M 16.152344 13.207031 C 16.148438 13.261719 16.144531 13.3125 16.136719 13.367188 L 16.15625 13.382812 C 16.15625 13.371094 16.15625 13.359375 16.15625 13.351562 C 16.15625 13.300781 16.15625 13.253906 16.152344 13.207031 Z M 10.566406 14.355469 L 10.484375 14.425781 C 10.554688 14.644531 10.652344 14.859375 10.773438 15.070312 C 10.894531 15.277344 11.03125 15.46875 11.183594 15.640625 L 12.292969 15.265625 C 12.453125 15.390625 12.628906 15.492188 12.820312 15.570312 L 13.046875 16.714844 C 13.273438 16.761719 13.507812 16.789062 13.75 16.789062 C 13.992188 16.789062 14.226562 16.761719 14.453125 16.714844 L 14.679688 15.570312 C 14.871094 15.492188 15.046875 15.390625 15.207031 15.265625 L 16.316406 15.640625 C 16.46875 15.46875 16.605469 15.277344 16.726562 15.070312 C 16.847656 14.859375 16.945312 14.644531 17.015625 14.425781 L 16.933594 14.355469 C 16.875 14.5 16.808594 14.640625 16.726562 14.78125 C 16.605469 14.988281 16.46875 15.179688 16.316406 15.351562 L 15.207031 14.980469 C 15.046875 15.101562 14.871094 15.203125 14.679688 15.285156 L 14.453125 16.429688 C 14.226562 16.476562 13.992188 16.5 13.75 16.5 C 13.507812 16.5 13.273438 16.476562 13.046875 16.429688 L 12.820312 15.285156 C 12.628906 15.203125 12.453125 15.101562 12.292969 14.980469 L 11.183594 15.351562 C 11.03125 15.179688 10.894531 14.988281 10.773438 14.78125 C 10.691406 14.640625 10.625 14.5 10.566406 14.355469 Z M 10.566406 14.355469 "/>
<path style=" stroke:none;fill-rule:nonzero;fill:url(#linear0);" d="M 2.75 1.375 L 19.25 1.375 C 20.007812 1.375 20.625 1.992188 20.625 2.75 L 20.625 19.25 C 20.625 20.007812 20.007812 20.625 19.25 20.625 L 2.75 20.625 C 1.988281 20.625 1.375 20.007812 1.375 19.25 L 1.375 2.75 C 1.375 1.992188 1.988281 1.375 2.75 1.375 Z M 2.75 1.375 "/>
</g>
</svg>
