
<svg xmlns="http://www.w3.org/2000/svg" xmlns:xlink="http://www.w3.org/1999/xlink" width="22" height="22" viewBox="0 0 22 22" version="1.1">
<defs>
<linearGradient id="linear0" gradientUnits="userSpaceOnUse" x1="8.466666" y1="-199.125" x2="8.466666" y2="-213.941666" gradientTransform="matrix(1.299213,0,0,1.299213,0,279.330717)">
<stop offset="0" style="stop-color:rgb(0%,0%,0%);stop-opacity:0.2;"/>
<stop offset="1" style="stop-color:rgb(100%,100%,100%);stop-opacity:0;"/>
</linearGradient>
</defs>
<g id="surface1">
<path style=" stroke:none;fill-rule:nonzero;fill:rgb(87.843138%,87.843138%,87.843138%);fill-opacity:1;" d="M 11 1.371094 C 16.316406 1.371094 20.625 5.683594 20.625 11 C 20.625 16.316406 16.316406 20.625 11 20.625 C 5.683594 20.625 1.371094 16.316406 1.371094 11 C 1.371094 5.683594 5.683594 1.371094 11 1.371094 Z M 11 1.371094 "/>
<path style=" stroke:none;fill-rule:nonzero;fill:rgb(40.000001%,73.333335%,41.568628%);fill-opacity:1;" d="M 11 2.75 C 15.554688 2.75 19.25 6.445312 19.25 11 C 19.25 15.554688 15.554688 19.25 11 19.25 C 6.445312 19.25 2.75 15.554688 2.75 11 C 2.75 6.445312 6.445312 2.75 11 2.75 Z M 11 2.75 "/>
<path style=" stroke:none;fill-rule:nonzero;fill:rgb(100%,100%,100%);fill-opacity:0.4;" d="M 11 1.375 C 5.683594 1.375 1.375 5.683594 1.375 11 C 1.375 11.058594 1.375 11.113281 1.378906 11.171875 C 1.46875 5.933594 5.742188 1.71875 11 1.71875 C 16.257812 1.71875 20.53125 5.933594 20.621094 11.171875 C 20.625 11.113281 20.625 11.058594 20.625 11 C 20.625 5.683594 16.316406 1.375 11 1.375 Z M 11 1.375 "/>
<path style=" stroke:none;fill-rule:nonzero;fill:rgb(0%,0%,0%);fill-opacity:0.4;" d="M 1.378906 10.824219 C 1.378906 10.882812 1.375 10.9375 1.375 10.996094 C 1.375 16.3125 5.683594 20.621094 11 20.621094 C 16.316406 20.621094 20.625 16.3125 20.625 10.996094 C 20.625 10.9375 20.621094 10.882812 20.621094 10.824219 C 20.527344 16.0625 16.257812 20.28125 11 20.28125 C 5.742188 20.28125 1.472656 16.0625 1.378906 10.824219 Z M 1.378906 10.824219 "/>
<path style=" stroke:none;fill-rule:nonzero;fill:rgb(0%,0%,0%);fill-opacity:0.2;" d="M 1.378906 11.257812 C 1.378906 11.34375 1.375 11.429688 1.375 11.515625 C 1.375 16.832031 5.683594 21.140625 11 21.140625 C 13.621094 21.140625 15.996094 20.089844 17.734375 18.390625 L 17.875 18.390625 C 18.066406 18.390625 18.21875 18.238281 18.21875 18.046875 C 18.21875 17.953125 18.226562 17.894531 18.246094 17.847656 C 18.332031 17.75 18.414062 17.652344 18.496094 17.550781 C 18.621094 17.441406 18.785156 17.3125 18.992188 17.167969 C 19.292969 16.953125 19.667969 16.699219 20.007812 16.292969 C 20.351562 15.886719 20.625 15.28125 20.625 14.609375 C 20.625 14.515625 20.621094 14.421875 20.613281 14.328125 C 20.558594 14.90625 20.308594 15.417969 20.007812 15.777344 C 19.761719 16.070312 19.5 16.28125 19.257812 16.460938 C 20.125 15.015625 20.625 13.324219 20.625 11.515625 C 20.625 11.429688 20.621094 11.34375 20.621094 11.257812 C 20.5625 13.511719 19.726562 15.574219 18.375 17.183594 C 18.371094 17.1875 18.367188 17.191406 18.363281 17.195312 C 18.34375 17.21875 18.320312 17.246094 18.300781 17.269531 C 18.121094 17.480469 17.929688 17.679688 17.734375 17.875 C 17.691406 17.914062 17.648438 17.953125 17.609375 17.992188 C 17.546875 18.050781 17.484375 18.109375 17.421875 18.167969 C 17.378906 18.203125 17.335938 18.242188 17.292969 18.277344 C 15.605469 19.738281 13.40625 20.625 11 20.625 C 5.769531 20.625 1.515625 16.453125 1.378906 11.257812 Z M 16.15625 20.28125 L 16.15625 20.796875 C 16.15625 20.988281 16.308594 21.140625 16.5 21.140625 L 17.875 21.140625 C 18.066406 21.140625 18.21875 20.988281 18.21875 20.796875 L 18.21875 20.28125 C 18.21875 20.472656 18.066406 20.625 17.875 20.625 L 16.5 20.625 C 16.308594 20.625 16.15625 20.472656 16.15625 20.28125 Z M 16.15625 20.28125 "/>
<path style=" stroke:none;fill-rule:nonzero;fill:rgb(0%,0%,0%);fill-opacity:0.4;" d="M 11 2.75 C 6.429688 2.75 2.75 6.429688 2.75 11 C 2.75 11.054688 2.75 11.113281 2.753906 11.167969 C 2.839844 6.675781 6.484375 3.085938 11 3.085938 C 15.515625 3.085938 19.15625 6.675781 19.246094 11.167969 C 19.25 11.113281 19.25 11.054688 19.25 11 C 19.25 6.429688 15.570312 2.75 11 2.75 Z M 11 2.75 "/>
<path style=" stroke:none;fill-rule:nonzero;fill:rgb(100%,100%,100%);fill-opacity:0.4;" d="M 11 19.59375 C 6.429688 19.59375 2.75 15.914062 2.75 11.34375 C 2.75 11.289062 2.75 11.230469 2.753906 11.175781 C 2.839844 15.667969 6.484375 19.257812 11 19.257812 C 15.515625 19.257812 19.15625 15.667969 19.246094 11.175781 C 19.25 11.230469 19.25 11.289062 19.25 11.34375 C 19.25 15.914062 15.570312 19.59375 11 19.59375 Z M 11 19.59375 "/>
<path style=" stroke:none;fill-rule:nonzero;fill:rgb(87.843138%,87.843138%,87.843138%);fill-opacity:0.996078;" d="M 12.375 4.8125 L 11.6875 4.8125 C 11.496094 4.8125 11.34375 4.964844 11.34375 5.15625 L 11.34375 6.875 L 11 6.875 C 10.808594 6.875 10.65625 7.027344 10.65625 7.21875 L 10.65625 7.90625 C 10.65625 8.097656 10.808594 8.25 11 8.25 L 11.34375 8.25 L 11.34375 13.40625 C 11.34375 13.597656 11.496094 13.75 11.6875 13.75 L 15.46875 13.75 C 16.230469 13.75 16.84375 13.136719 16.84375 12.375 L 16.84375 11.6875 C 16.84375 11.496094 16.691406 11.34375 16.5 11.34375 L 15.8125 11.34375 C 15.621094 11.34375 15.46875 11.496094 15.46875 11.6875 C 15.46875 12.066406 15.164062 12.375 14.78125 12.375 L 12.71875 12.375 L 12.71875 8.25 L 15.125 8.25 C 15.316406 8.25 15.46875 8.097656 15.46875 7.90625 L 15.46875 7.21875 C 15.46875 7.027344 15.316406 6.875 15.125 6.875 L 12.71875 6.875 L 12.71875 5.15625 C 12.71875 4.964844 12.566406 4.8125 12.375 4.8125 Z M 6.53125 8.25 C 5.769531 8.25 5.15625 8.863281 5.15625 9.625 L 5.15625 12.375 C 5.15625 13.136719 5.769531 13.75 6.53125 13.75 L 9.28125 13.75 L 9.28125 16.84375 C 9.28125 17.035156 9.433594 17.1875 9.625 17.1875 L 10.3125 17.1875 C 10.503906 17.1875 10.65625 17.035156 10.65625 16.84375 L 10.65625 8.59375 C 10.65625 8.402344 10.503906 8.25 10.3125 8.25 Z M 7.21875 9.625 L 9.28125 9.625 L 9.28125 12.375 L 7.21875 12.375 C 6.835938 12.375 6.53125 12.070312 6.53125 11.6875 L 6.53125 10.3125 C 6.53125 9.929688 6.835938 9.625 7.21875 9.625 Z M 7.21875 9.625 "/>
<path style=" stroke:none;fill-rule:nonzero;fill:rgb(87.843138%,87.843138%,87.843138%);fill-opacity:0.996078;" d="M 12.375 4.8125 L 11.6875 4.8125 C 11.496094 4.8125 11.34375 4.964844 11.34375 5.15625 L 11.34375 6.875 L 11 6.875 C 10.808594 6.875 10.65625 7.027344 10.65625 7.21875 L 10.65625 7.90625 C 10.65625 8.097656 10.808594 8.25 11 8.25 L 11.34375 8.25 L 11.34375 13.40625 C 11.34375 13.597656 11.496094 13.75 11.6875 13.75 L 15.46875 13.75 C 16.230469 13.75 16.84375 13.136719 16.84375 12.375 L 16.84375 11.6875 C 16.84375 11.496094 16.691406 11.34375 16.5 11.34375 L 15.8125 11.34375 C 15.621094 11.34375 15.46875 11.496094 15.46875 11.6875 C 15.46875 12.066406 15.164062 12.375 14.78125 12.375 L 12.71875 12.375 L 12.71875 8.25 L 15.125 8.25 C 15.316406 8.25 15.46875 8.097656 15.46875 7.90625 L 15.46875 7.21875 C 15.46875 7.027344 15.316406 6.875 15.125 6.875 L 12.71875 6.875 L 12.71875 5.15625 C 12.71875 4.964844 12.566406 4.8125 12.375 4.8125 Z M 6.53125 8.25 C 5.769531 8.25 5.15625 8.863281 5.15625 9.625 L 5.15625 12.375 C 5.15625 13.136719 5.769531 13.75 6.53125 13.75 L 9.28125 13.75 L 9.28125 16.84375 C 9.28125 17.035156 9.433594 17.1875 9.625 17.1875 L 10.3125 17.1875 C 10.503906 17.1875 10.65625 17.035156 10.65625 16.84375 L 10.65625 8.59375 C 10.65625 8.402344 10.503906 8.25 10.3125 8.25 Z M 7.21875 9.625 L 9.28125 9.625 L 9.28125 12.375 L 7.21875 12.375 C 6.835938 12.375 6.53125 12.070312 6.53125 11.6875 L 6.53125 10.3125 C 6.53125 9.929688 6.835938 9.625 7.21875 9.625 Z M 7.21875 9.625 "/>
<path style=" stroke:none;fill-rule:nonzero;fill:rgb(100%,100%,100%);fill-opacity:0.6;" d="M 12.375 4.8125 L 11.6875 4.8125 C 11.496094 4.8125 11.34375 4.964844 11.34375 5.15625 L 11.34375 5.5 C 11.34375 5.308594 11.496094 5.15625 11.6875 5.15625 L 12.375 5.15625 C 12.566406 5.15625 12.71875 5.308594 12.71875 5.5 L 12.71875 5.15625 C 12.71875 4.964844 12.566406 4.8125 12.375 4.8125 Z M 12.71875 6.875 L 12.71875 7.21875 L 15.125 7.21875 C 15.316406 7.21875 15.46875 7.371094 15.46875 7.5625 L 15.46875 7.21875 C 15.46875 7.027344 15.316406 6.875 15.125 6.875 Z M 11 6.875 C 10.808594 6.875 10.65625 7.027344 10.65625 7.21875 L 10.65625 7.5625 C 10.65625 7.371094 10.808594 7.21875 11 7.21875 L 11.34375 7.21875 L 11.34375 6.875 Z M 6.53125 8.25 C 5.769531 8.25 5.15625 8.863281 5.15625 9.625 L 5.15625 9.96875 C 5.15625 9.207031 5.769531 8.59375 6.53125 8.59375 L 10.3125 8.59375 C 10.503906 8.59375 10.65625 8.746094 10.65625 8.9375 L 10.65625 8.59375 C 10.65625 8.402344 10.503906 8.25 10.3125 8.25 Z M 15.8125 11.34375 C 15.621094 11.34375 15.46875 11.496094 15.46875 11.6875 C 15.46875 12.066406 15.164062 12.375 14.78125 12.375 L 12.71875 12.375 L 12.71875 12.71875 L 14.78125 12.71875 C 15.164062 12.71875 15.46875 12.414062 15.46875 12.03125 C 15.46875 11.839844 15.621094 11.6875 15.8125 11.6875 L 16.5 11.6875 C 16.691406 11.6875 16.84375 11.839844 16.84375 12.03125 L 16.84375 11.6875 C 16.84375 11.496094 16.691406 11.34375 16.5 11.34375 Z M 6.53125 11.6875 L 6.53125 12.03125 C 6.53125 12.414062 6.835938 12.71875 7.21875 12.71875 L 9.28125 12.71875 L 9.28125 12.375 L 7.21875 12.375 C 6.835938 12.375 6.53125 12.070312 6.53125 11.6875 Z M 6.53125 11.6875 "/>
<path style=" stroke:none;fill-rule:nonzero;fill:rgb(0%,0%,0%);fill-opacity:0.4;" d="M 15.46875 7.90625 C 15.46875 8.097656 15.316406 8.25 15.125 8.25 L 12.71875 8.25 L 12.71875 8.59375 L 15.125 8.59375 C 15.316406 8.59375 15.46875 8.441406 15.46875 8.25 Z M 10.65625 7.90625 L 10.65625 8.25 C 10.65625 8.441406 10.808594 8.59375 11 8.59375 L 11.34375 8.59375 L 11.34375 8.25 L 11 8.25 C 10.808594 8.25 10.65625 8.097656 10.65625 7.90625 Z M 7.21875 9.625 C 6.835938 9.625 6.53125 9.933594 6.53125 10.3125 L 6.53125 10.65625 C 6.53125 10.273438 6.835938 9.96875 7.21875 9.96875 L 9.28125 9.96875 L 9.28125 9.625 Z M 5.15625 12.375 L 5.15625 12.71875 C 5.15625 13.480469 5.769531 14.09375 6.53125 14.09375 L 9.28125 14.09375 L 9.28125 13.75 L 6.53125 13.75 C 5.769531 13.75 5.15625 13.136719 5.15625 12.375 Z M 16.84375 12.375 C 16.84375 13.136719 16.230469 13.75 15.46875 13.75 L 11.6875 13.75 C 11.496094 13.75 11.34375 13.597656 11.34375 13.40625 L 11.34375 13.75 C 11.34375 13.941406 11.496094 14.09375 11.6875 14.09375 L 15.46875 14.09375 C 16.230469 14.09375 16.84375 13.480469 16.84375 12.71875 Z M 9.28125 16.84375 L 9.28125 17.1875 C 9.28125 17.378906 9.433594 17.53125 9.625 17.53125 L 10.3125 17.53125 C 10.503906 17.53125 10.65625 17.378906 10.65625 17.1875 L 10.65625 16.84375 C 10.65625 17.035156 10.503906 17.1875 10.3125 17.1875 L 9.625 17.1875 C 9.433594 17.1875 9.28125 17.035156 9.28125 16.84375 Z M 9.28125 16.84375 "/>
<path style=" stroke:none;fill-rule:nonzero;fill:rgb(67.058825%,27.843139%,73.725492%);fill-opacity:1;" d="M 17.53125 11 C 16.585938 11 15.710938 11.40625 15.179688 12.074219 C 14.652344 12.730469 14.441406 13.5625 14.4375 14.410156 C 14.4375 14.421875 14.4375 14.429688 14.4375 14.4375 C 14.4375 14.628906 14.589844 14.78125 14.78125 14.78125 L 16.15625 14.78125 C 16.347656 14.78125 16.5 14.628906 16.5 14.4375 C 16.5 14.429688 16.5 14.425781 16.5 14.417969 C 16.503906 13.914062 16.636719 13.554688 16.789062 13.363281 C 16.945312 13.167969 17.101562 13.0625 17.53125 13.0625 C 17.960938 13.0625 18.152344 13.1875 18.308594 13.359375 C 18.460938 13.535156 18.5625 13.808594 18.5625 14.09375 C 18.5625 14.28125 18.535156 14.320312 18.425781 14.449219 C 18.316406 14.582031 18.089844 14.757812 17.789062 14.972656 C 17.488281 15.1875 17.113281 15.441406 16.773438 15.847656 C 16.429688 16.253906 16.15625 16.863281 16.15625 17.53125 C 16.15625 17.722656 16.308594 17.875 16.5 17.875 L 17.875 17.875 C 18.066406 17.875 18.21875 17.722656 18.21875 17.53125 C 18.21875 17.34375 18.246094 17.304688 18.355469 17.175781 C 18.464844 17.042969 18.691406 16.867188 18.992188 16.652344 C 19.292969 16.4375 19.667969 16.183594 20.007812 15.777344 C 20.351562 15.371094 20.625 14.765625 20.625 14.09375 C 20.625 13.347656 20.382812 12.589844 19.847656 11.988281 C 19.316406 11.390625 18.476562 11 17.53125 11 Z M 16.5 18.5625 C 16.308594 18.5625 16.15625 18.714844 16.15625 18.90625 L 16.15625 20.28125 C 16.15625 20.472656 16.308594 20.625 16.5 20.625 L 17.875 20.625 C 18.066406 20.625 18.21875 20.472656 18.21875 20.28125 L 18.21875 18.90625 C 18.21875 18.714844 18.066406 18.5625 17.875 18.5625 Z M 16.5 18.5625 "/>
<path style=" stroke:none;fill-rule:nonzero;fill:rgb(0%,0%,0%);fill-opacity:0.4;" d="M 17.53125 12.726562 C 17.101562 12.726562 16.945312 12.832031 16.789062 13.023438 C 16.636719 13.214844 16.503906 13.574219 16.5 14.078125 C 16.5 14.085938 16.5 14.09375 16.5 14.101562 C 16.5 14.289062 16.347656 14.445312 16.15625 14.445312 L 14.78125 14.445312 C 14.617188 14.445312 14.484375 14.332031 14.445312 14.179688 C 14.441406 14.257812 14.4375 14.335938 14.4375 14.410156 C 14.4375 14.421875 14.4375 14.429688 14.4375 14.4375 C 14.4375 14.628906 14.589844 14.78125 14.78125 14.78125 L 16.15625 14.78125 C 16.347656 14.78125 16.5 14.628906 16.5 14.4375 C 16.5 14.429688 16.5 14.425781 16.5 14.417969 C 16.503906 13.914062 16.636719 13.554688 16.789062 13.363281 C 16.945312 13.167969 17.101562 13.0625 17.53125 13.0625 C 17.960938 13.0625 18.152344 13.1875 18.308594 13.359375 C 18.429688 13.496094 18.515625 13.699219 18.546875 13.917969 C 18.558594 13.875 18.5625 13.828125 18.5625 13.757812 C 18.5625 13.46875 18.460938 13.195312 18.308594 13.023438 C 18.152344 12.847656 17.960938 12.726562 17.53125 12.726562 Z M 20.621094 13.914062 C 20.582031 14.523438 20.324219 15.066406 20.007812 15.441406 C 19.667969 15.847656 19.292969 16.097656 18.992188 16.3125 C 18.691406 16.527344 18.464844 16.707031 18.355469 16.835938 C 18.246094 16.964844 18.21875 17.003906 18.21875 17.195312 C 18.21875 17.382812 18.066406 17.539062 17.875 17.539062 L 16.5 17.539062 C 16.339844 17.539062 16.207031 17.429688 16.167969 17.285156 C 16.160156 17.367188 16.15625 17.449219 16.15625 17.53125 C 16.15625 17.722656 16.308594 17.875 16.5 17.875 L 17.875 17.875 C 18.066406 17.875 18.21875 17.722656 18.21875 17.53125 C 18.21875 17.34375 18.246094 17.304688 18.355469 17.175781 C 18.464844 17.042969 18.691406 16.867188 18.992188 16.652344 C 19.292969 16.4375 19.667969 16.183594 20.007812 15.777344 C 20.351562 15.371094 20.625 14.765625 20.625 14.09375 C 20.625 14.035156 20.621094 13.972656 20.621094 13.914062 Z M 16.15625 19.945312 L 16.15625 20.28125 C 16.15625 20.472656 16.308594 20.625 16.5 20.625 L 17.875 20.625 C 18.066406 20.625 18.21875 20.472656 18.21875 20.28125 L 18.21875 19.945312 C 18.21875 20.132812 18.066406 20.289062 17.875 20.289062 L 16.5 20.289062 C 16.308594 20.289062 16.15625 20.132812 16.15625 19.945312 Z M 16.15625 19.945312 "/>
<path style=" stroke:none;fill-rule:nonzero;fill:rgb(100%,100%,100%);fill-opacity:0.4;" d="M 17.53125 11 C 16.585938 11 15.710938 11.40625 15.179688 12.074219 C 14.652344 12.730469 14.441406 13.5625 14.4375 14.410156 C 14.4375 14.421875 14.4375 14.429688 14.4375 14.4375 C 14.4375 14.464844 14.441406 14.488281 14.445312 14.511719 C 14.488281 13.75 14.703125 13.011719 15.179688 12.417969 C 15.710938 11.75 16.585938 11.34375 17.53125 11.34375 C 18.476562 11.34375 19.316406 11.734375 19.847656 12.332031 C 20.335938 12.882812 20.582031 13.566406 20.621094 14.25 C 20.621094 14.199219 20.625 14.144531 20.625 14.09375 C 20.625 13.347656 20.382812 12.589844 19.847656 11.988281 C 19.316406 11.390625 18.476562 11 17.53125 11 Z M 18.546875 14.25 C 18.53125 14.320312 18.496094 14.367188 18.425781 14.449219 C 18.316406 14.582031 18.089844 14.757812 17.789062 14.972656 C 17.488281 15.1875 17.113281 15.441406 16.773438 15.847656 C 16.429688 16.253906 16.15625 16.863281 16.15625 17.53125 C 16.15625 17.5625 16.160156 17.59375 16.167969 17.621094 C 16.226562 17.054688 16.476562 16.546875 16.773438 16.191406 C 17.113281 15.785156 17.488281 15.53125 17.789062 15.316406 C 18.089844 15.101562 18.316406 14.925781 18.425781 14.792969 C 18.535156 14.664062 18.5625 14.625 18.5625 14.4375 C 18.5625 14.375 18.554688 14.308594 18.546875 14.25 Z M 16.5 18.5625 C 16.308594 18.5625 16.15625 18.714844 16.15625 18.90625 L 16.15625 19.25 C 16.15625 19.058594 16.308594 18.90625 16.5 18.90625 L 17.875 18.90625 C 18.066406 18.90625 18.21875 19.058594 18.21875 19.25 L 18.21875 18.90625 C 18.21875 18.714844 18.066406 18.5625 17.875 18.5625 Z M 16.5 18.5625 "/>
<path style=" stroke:none;fill-rule:nonzero;fill:rgb(0%,0%,0%);fill-opacity:0.2;" d="M 17.53125 13.0625 C 17.101562 13.0625 16.945312 13.167969 16.789062 13.363281 C 16.636719 13.554688 16.503906 13.914062 16.5 14.417969 C 16.5 14.425781 16.5 14.429688 16.5 14.4375 C 16.5 14.628906 16.347656 14.78125 16.15625 14.78125 L 14.78125 14.78125 C 14.617188 14.78125 14.484375 14.667969 14.449219 14.515625 C 14.441406 14.601562 14.4375 14.6875 14.4375 14.773438 C 14.4375 14.785156 14.4375 14.792969 14.4375 14.800781 C 14.4375 14.992188 14.589844 15.144531 14.78125 15.144531 L 16.15625 15.144531 C 16.347656 15.144531 16.5 14.992188 16.5 14.800781 C 16.5 14.792969 16.5 14.789062 16.5 14.78125 C 16.503906 14.277344 16.636719 13.917969 16.789062 13.726562 C 16.945312 13.53125 17.101562 13.425781 17.53125 13.425781 C 17.960938 13.425781 18.152344 13.550781 18.308594 13.722656 C 18.425781 13.855469 18.511719 14.046875 18.546875 14.257812 C 18.554688 14.214844 18.5625 14.167969 18.5625 14.09375 C 18.5625 13.808594 18.460938 13.535156 18.308594 13.359375 C 18.152344 13.1875 17.960938 13.0625 17.53125 13.0625 Z M 18.5 17.03125 C 18.441406 17.082031 18.390625 17.132812 18.355469 17.175781 C 18.296875 17.242188 18.265625 17.285156 18.246094 17.335938 C 18.332031 17.234375 18.417969 17.132812 18.5 17.03125 Z M 16.171875 17.628906 C 16.160156 17.714844 16.15625 17.804688 16.15625 17.894531 C 16.15625 18.085938 16.308594 18.238281 16.5 18.238281 L 17.339844 18.238281 C 17.476562 18.121094 17.605469 18 17.734375 17.875 L 16.5 17.875 C 16.34375 17.875 16.214844 17.769531 16.171875 17.628906 Z M 16.171875 17.628906 "/>
<path style=" stroke:none;fill-rule:nonzero;fill:url(#linear0);" d="M 11 1.375 C 5.683594 1.375 1.375 5.683594 1.375 11 C 1.375 16.316406 5.683594 20.625 11 20.625 C 12.898438 20.625 14.664062 20.074219 16.15625 19.128906 L 16.15625 20.28125 C 16.15625 20.472656 16.308594 20.625 16.5 20.625 L 17.875 20.625 C 18.066406 20.625 18.21875 20.472656 18.21875 20.28125 L 18.21875 18.90625 C 18.21875 18.714844 18.066406 18.5625 17.875 18.5625 L 16.953125 18.5625 C 17.226562 18.347656 17.484375 18.117188 17.734375 17.875 L 17.875 17.875 C 18.066406 17.875 18.21875 17.722656 18.21875 17.53125 C 18.21875 17.4375 18.226562 17.382812 18.246094 17.332031 C 18.332031 17.234375 18.417969 17.132812 18.5 17.03125 C 18.621094 16.921875 18.789062 16.796875 18.992188 16.652344 C 19.292969 16.4375 19.667969 16.183594 20.007812 15.777344 C 20.351562 15.371094 20.625 14.765625 20.625 14.09375 C 20.625 13.710938 20.558594 13.324219 20.425781 12.957031 C 20.554688 12.324219 20.625 11.671875 20.625 11 C 20.625 5.683594 16.316406 1.375 11 1.375 Z M 11 1.375 "/>
</g>
</svg>
