
<svg xmlns="http://www.w3.org/2000/svg" xmlns:xlink="http://www.w3.org/1999/xlink" width="22" height="22" viewBox="0 0 22 22" version="1.1">
<defs>
<linearGradient id="linear0" gradientUnits="userSpaceOnUse" x1="2.645833" y1="-211.03125" x2="14.287498" y2="-211.03125" gradientTransform="matrix(1.535433,0,0,0.649614,-2,142.073151)">
<stop offset="0" style="stop-color:rgb(100%,100%,100%);stop-opacity:0;"/>
<stop offset="0.498862" style="stop-color:rgb(100%,100%,100%);stop-opacity:0.2;"/>
<stop offset="1" style="stop-color:rgb(95.686275%,26.274511%,21.176471%);stop-opacity:0;"/>
</linearGradient>
<linearGradient id="linear1" gradientUnits="userSpaceOnUse" x1="8.466666" y1="-200.183334" x2="8.466666" y2="-212.883331" gradientTransform="matrix(1.299213,0,0,1.299213,-1.375002,279.330723)">
<stop offset="0" style="stop-color:rgb(0%,0%,0%);stop-opacity:0.2;"/>
<stop offset="1" style="stop-color:rgb(100%,100%,100%);stop-opacity:0;"/>
</linearGradient>
</defs>
<g id="surface1">
<path style=" stroke:none;fill-rule:nonzero;fill:rgb(38.039216%,38.039216%,38.039216%);fill-opacity:1;" d="M 2.75 2.75 L 19.25 2.75 C 20.007812 2.75 20.625 3.367188 20.625 4.125 L 20.625 17.875 C 20.625 18.632812 20.007812 19.25 19.25 19.25 L 2.75 19.25 C 1.992188 19.25 1.375 18.632812 1.375 17.875 L 1.375 4.125 C 1.375 3.367188 1.992188 2.75 2.75 2.75 Z M 2.75 2.75 "/>
<path style=" stroke:none;fill-rule:nonzero;fill:url(#linear0);" d="M 11 4.8125 C 6.046875 4.8125 2.0625 4.890625 2.0625 4.984375 C 2.0625 5.078125 6.046875 5.15625 11 5.15625 C 15.953125 5.15625 19.9375 5.078125 19.9375 4.984375 C 19.9375 4.890625 15.953125 4.8125 11 4.8125 Z M 11 5.84375 C 6.046875 5.84375 2.0625 5.921875 2.0625 6.015625 C 2.0625 6.109375 6.046875 6.1875 11 6.1875 C 15.953125 6.1875 19.9375 6.109375 19.9375 6.015625 C 19.9375 5.921875 15.953125 5.84375 11 5.84375 Z M 11 6.875 C 6.046875 6.875 2.0625 6.953125 2.0625 7.046875 C 2.0625 7.140625 6.046875 7.21875 11 7.21875 C 15.953125 7.21875 19.9375 7.140625 19.9375 7.046875 C 19.9375 6.953125 15.953125 6.875 11 6.875 Z M 11 7.90625 C 6.046875 7.90625 2.0625 7.984375 2.0625 8.078125 C 2.0625 8.171875 6.046875 8.25 11 8.25 C 15.953125 8.25 19.9375 8.171875 19.9375 8.078125 C 19.9375 7.984375 15.953125 7.90625 11 7.90625 Z M 11 8.9375 C 6.046875 8.9375 2.0625 9.015625 2.0625 9.109375 C 2.0625 9.203125 6.046875 9.28125 11 9.28125 C 15.953125 9.28125 19.9375 9.203125 19.9375 9.109375 C 19.9375 9.015625 15.953125 8.9375 11 8.9375 Z M 11 9.96875 C 6.046875 9.96875 2.0625 10.046875 2.0625 10.140625 C 2.0625 10.234375 6.046875 10.3125 11 10.3125 C 15.953125 10.3125 19.9375 10.234375 19.9375 10.140625 C 19.9375 10.046875 15.953125 9.96875 11 9.96875 Z M 11 11 C 6.046875 11 2.0625 11.078125 2.0625 11.171875 C 2.0625 11.265625 6.046875 11.34375 11 11.34375 C 15.953125 11.34375 19.9375 11.265625 19.9375 11.171875 C 19.9375 11.078125 15.953125 11 11 11 Z M 11 12.03125 C 6.046875 12.03125 2.0625 12.109375 2.0625 12.203125 C 2.0625 12.296875 6.046875 12.375 11 12.375 C 15.953125 12.375 19.9375 12.296875 19.9375 12.203125 C 19.9375 12.109375 15.953125 12.03125 11 12.03125 Z M 11 13.0625 C 6.046875 13.0625 2.0625 13.140625 2.0625 13.234375 C 2.0625 13.328125 6.046875 13.40625 11 13.40625 C 15.953125 13.40625 19.9375 13.328125 19.9375 13.234375 C 19.9375 13.140625 15.953125 13.0625 11 13.0625 Z M 11 14.09375 C 6.046875 14.09375 2.0625 14.171875 2.0625 14.265625 C 2.0625 14.359375 6.046875 14.4375 11 14.4375 C 15.953125 14.4375 19.9375 14.359375 19.9375 14.265625 C 19.9375 14.171875 15.953125 14.09375 11 14.09375 Z M 11 15.125 C 6.046875 15.125 2.0625 15.203125 2.0625 15.296875 C 2.0625 15.390625 6.046875 15.46875 11 15.46875 C 15.953125 15.46875 19.9375 15.390625 19.9375 15.296875 C 19.9375 15.203125 15.953125 15.125 11 15.125 Z M 11 16.15625 C 6.046875 16.15625 2.0625 16.234375 2.0625 16.328125 C 2.0625 16.421875 6.046875 16.5 11 16.5 C 15.953125 16.5 19.9375 16.421875 19.9375 16.328125 C 19.9375 16.234375 15.953125 16.15625 11 16.15625 Z M 11 17.1875 C 6.046875 17.1875 2.0625 17.265625 2.0625 17.359375 C 2.0625 17.453125 6.046875 17.53125 11 17.53125 C 15.953125 17.53125 19.9375 17.453125 19.9375 17.359375 C 19.9375 17.265625 15.953125 17.1875 11 17.1875 Z M 11 17.1875 "/>
<path style=" stroke:none;fill-rule:nonzero;fill:rgb(0%,0%,0%);fill-opacity:0.4;" d="M 2.40625 3.4375 C 2.597656 3.4375 2.75 3.589844 2.75 3.78125 C 2.75 3.972656 2.597656 4.125 2.40625 4.125 C 2.214844 4.125 2.0625 3.972656 2.0625 3.78125 C 2.0625 3.589844 2.214844 3.4375 2.40625 3.4375 Z M 2.40625 3.4375 "/>
<path style=" stroke:none;fill-rule:nonzero;fill:rgb(0%,0%,0%);fill-opacity:0.4;" d="M 2.40625 3.4375 C 2.214844 3.4375 2.0625 3.589844 2.0625 3.78125 C 2.0625 3.8125 2.074219 3.839844 2.078125 3.867188 C 2.117188 3.71875 2.246094 3.609375 2.40625 3.609375 C 2.566406 3.609375 2.695312 3.71875 2.734375 3.867188 C 2.738281 3.839844 2.75 3.8125 2.75 3.78125 C 2.75 3.589844 2.597656 3.4375 2.40625 3.4375 Z M 2.40625 3.4375 "/>
<path style=" stroke:none;fill-rule:nonzero;fill:rgb(100%,100%,100%);fill-opacity:0.4;" d="M 2.40625 4.296875 C 2.214844 4.296875 2.0625 4.144531 2.0625 3.953125 C 2.0625 3.921875 2.074219 3.894531 2.078125 3.867188 C 2.117188 4.015625 2.246094 4.125 2.40625 4.125 C 2.566406 4.125 2.695312 4.015625 2.734375 3.867188 C 2.738281 3.894531 2.75 3.921875 2.75 3.953125 C 2.75 4.144531 2.597656 4.296875 2.40625 4.296875 Z M 2.40625 4.296875 "/>
<path style=" stroke:none;fill-rule:nonzero;fill:rgb(0%,0%,0%);fill-opacity:0.4;" d="M 19.609375 3.4375 C 19.800781 3.4375 19.953125 3.589844 19.953125 3.78125 C 19.953125 3.972656 19.800781 4.125 19.609375 4.125 C 19.421875 4.125 19.265625 3.972656 19.265625 3.78125 C 19.265625 3.589844 19.421875 3.4375 19.609375 3.4375 Z M 19.609375 3.4375 "/>
<path style=" stroke:none;fill-rule:nonzero;fill:rgb(0%,0%,0%);fill-opacity:0.4;" d="M 19.609375 3.4375 C 19.421875 3.4375 19.265625 3.589844 19.265625 3.78125 C 19.265625 3.8125 19.277344 3.839844 19.285156 3.867188 C 19.324219 3.71875 19.453125 3.609375 19.609375 3.609375 C 19.769531 3.609375 19.898438 3.71875 19.9375 3.867188 C 19.945312 3.839844 19.953125 3.8125 19.953125 3.78125 C 19.953125 3.589844 19.800781 3.4375 19.609375 3.4375 Z M 19.609375 3.4375 "/>
<path style=" stroke:none;fill-rule:nonzero;fill:rgb(100%,100%,100%);fill-opacity:0.4;" d="M 19.609375 4.296875 C 19.421875 4.296875 19.265625 4.144531 19.265625 3.953125 C 19.265625 3.921875 19.277344 3.894531 19.285156 3.867188 C 19.324219 4.015625 19.453125 4.125 19.609375 4.125 C 19.769531 4.125 19.898438 4.015625 19.9375 3.867188 C 19.945312 3.894531 19.953125 3.921875 19.953125 3.953125 C 19.953125 4.144531 19.800781 4.296875 19.609375 4.296875 Z M 19.609375 4.296875 "/>
<path style=" stroke:none;fill-rule:nonzero;fill:rgb(0%,0%,0%);fill-opacity:0.4;" d="M 2.40625 17.703125 C 2.597656 17.703125 2.75 17.855469 2.75 18.046875 C 2.75 18.238281 2.597656 18.390625 2.40625 18.390625 C 2.214844 18.390625 2.0625 18.238281 2.0625 18.046875 C 2.0625 17.855469 2.214844 17.703125 2.40625 17.703125 Z M 2.40625 17.703125 "/>
<path style=" stroke:none;fill-rule:nonzero;fill:rgb(0%,0%,0%);fill-opacity:0.4;" d="M 2.40625 17.703125 C 2.214844 17.703125 2.0625 17.855469 2.0625 18.046875 C 2.0625 18.078125 2.074219 18.105469 2.078125 18.132812 C 2.117188 17.984375 2.246094 17.875 2.40625 17.875 C 2.566406 17.875 2.695312 17.984375 2.734375 18.132812 C 2.738281 18.105469 2.75 18.078125 2.75 18.046875 C 2.75 17.855469 2.597656 17.703125 2.40625 17.703125 Z M 2.40625 17.703125 "/>
<path style=" stroke:none;fill-rule:nonzero;fill:rgb(100%,100%,100%);fill-opacity:0.4;" d="M 2.40625 18.5625 C 2.214844 18.5625 2.0625 18.410156 2.0625 18.21875 C 2.0625 18.1875 2.074219 18.160156 2.078125 18.132812 C 2.117188 18.28125 2.246094 18.390625 2.40625 18.390625 C 2.566406 18.390625 2.695312 18.28125 2.734375 18.132812 C 2.738281 18.160156 2.75 18.1875 2.75 18.21875 C 2.75 18.410156 2.597656 18.5625 2.40625 18.5625 Z M 2.40625 18.5625 "/>
<path style=" stroke:none;fill-rule:nonzero;fill:rgb(0%,0%,0%);fill-opacity:0.4;" d="M 19.609375 17.703125 C 19.800781 17.703125 19.953125 17.855469 19.953125 18.046875 C 19.953125 18.238281 19.800781 18.390625 19.609375 18.390625 C 19.421875 18.390625 19.265625 18.238281 19.265625 18.046875 C 19.265625 17.855469 19.421875 17.703125 19.609375 17.703125 Z M 19.609375 17.703125 "/>
<path style=" stroke:none;fill-rule:nonzero;fill:rgb(0%,0%,0%);fill-opacity:0.4;" d="M 19.609375 17.703125 C 19.421875 17.703125 19.265625 17.855469 19.265625 18.046875 C 19.265625 18.078125 19.277344 18.105469 19.285156 18.132812 C 19.324219 17.984375 19.453125 17.875 19.609375 17.875 C 19.769531 17.875 19.898438 17.984375 19.9375 18.132812 C 19.945312 18.105469 19.953125 18.078125 19.953125 18.046875 C 19.953125 17.855469 19.800781 17.703125 19.609375 17.703125 Z M 19.609375 17.703125 "/>
<path style=" stroke:none;fill-rule:nonzero;fill:rgb(100%,100%,100%);fill-opacity:0.4;" d="M 19.609375 18.5625 C 19.421875 18.5625 19.265625 18.410156 19.265625 18.21875 C 19.265625 18.1875 19.277344 18.160156 19.285156 18.132812 C 19.324219 18.28125 19.453125 18.390625 19.609375 18.390625 C 19.769531 18.390625 19.898438 18.28125 19.9375 18.132812 C 19.945312 18.160156 19.953125 18.1875 19.953125 18.21875 C 19.953125 18.410156 19.800781 18.5625 19.609375 18.5625 Z M 19.609375 18.5625 "/>
<path style=" stroke:none;fill-rule:nonzero;fill:rgb(100%,100%,100%);fill-opacity:0.4;" d="M 2.75 2.75 C 1.988281 2.75 1.375 3.363281 1.375 4.125 L 1.375 4.457031 C 1.375 3.695312 1.988281 3.082031 2.75 3.082031 L 19.25 3.082031 C 20.011719 3.082031 20.625 3.695312 20.625 4.457031 L 20.625 4.125 C 20.625 3.363281 20.011719 2.75 19.25 2.75 Z M 2.75 2.75 "/>
<path style=" stroke:none;fill-rule:nonzero;fill:rgb(0.392157%,0.392157%,0.392157%);fill-opacity:0.4;" d="M 2.75 19.246094 C 1.988281 19.246094 1.375 18.632812 1.375 17.871094 L 1.375 17.539062 C 1.375 18.300781 1.988281 18.914062 2.75 18.914062 L 19.25 18.914062 C 20.011719 18.914062 20.625 18.300781 20.625 17.539062 L 20.625 17.871094 C 20.625 18.632812 20.011719 19.246094 19.25 19.246094 Z M 2.75 19.246094 "/>
<path style=" stroke:none;fill-rule:nonzero;fill:rgb(0%,0%,0%);fill-opacity:0.2;" d="M 1.375 17.875 L 1.375 18.390625 C 1.375 19.152344 1.988281 19.765625 2.75 19.765625 L 19.25 19.765625 C 20.011719 19.765625 20.625 19.152344 20.625 18.390625 L 20.625 17.875 C 20.625 18.636719 20.011719 19.25 19.25 19.25 L 2.75 19.25 C 1.988281 19.25 1.375 18.636719 1.375 17.875 Z M 1.375 17.875 "/>
<path style=" stroke:none;fill-rule:nonzero;fill:rgb(50.588238%,78.039217%,51.764709%);fill-opacity:0.996078;" d="M 3.78125 5.5 L 5.15625 5.5 C 5.347656 5.5 5.5 5.652344 5.5 5.84375 C 5.5 6.035156 5.347656 6.1875 5.15625 6.1875 L 3.78125 6.1875 C 3.589844 6.1875 3.4375 6.035156 3.4375 5.84375 C 3.4375 5.652344 3.589844 5.5 3.78125 5.5 Z M 3.78125 5.5 "/>
<path style=" stroke:none;fill-rule:nonzero;fill:rgb(87.843138%,87.843138%,87.843138%);fill-opacity:0.996078;" d="M 7.21875 5.5 L 18.21875 5.5 C 18.410156 5.5 18.5625 5.652344 18.5625 5.84375 C 18.5625 6.035156 18.410156 6.1875 18.21875 6.1875 L 7.21875 6.1875 C 7.027344 6.1875 6.875 6.035156 6.875 5.84375 C 6.875 5.652344 7.027344 5.5 7.21875 5.5 Z M 7.21875 5.5 "/>
<path style=" stroke:none;fill-rule:nonzero;fill:rgb(100%,100%,100%);fill-opacity:0.4;" d="M 3.78125 5.5 C 3.589844 5.5 3.4375 5.652344 3.4375 5.84375 C 3.4375 5.90625 3.457031 5.964844 3.484375 6.015625 C 3.542969 5.914062 3.652344 5.84375 3.78125 5.84375 L 5.15625 5.84375 C 5.285156 5.84375 5.394531 5.914062 5.453125 6.015625 C 5.480469 5.964844 5.5 5.90625 5.5 5.84375 C 5.5 5.652344 5.347656 5.5 5.15625 5.5 Z M 7.21875 5.5 C 7.027344 5.5 6.875 5.652344 6.875 5.84375 C 6.875 5.90625 6.894531 5.964844 6.921875 6.015625 C 6.980469 5.914062 7.089844 5.84375 7.21875 5.84375 L 18.21875 5.84375 C 18.347656 5.84375 18.457031 5.914062 18.515625 6.015625 C 18.542969 5.964844 18.5625 5.90625 18.5625 5.84375 C 18.5625 5.652344 18.410156 5.5 18.21875 5.5 Z M 7.21875 5.5 "/>
<path style=" stroke:none;fill-rule:nonzero;fill:rgb(0%,0%,0%);fill-opacity:0.4;" d="M 3.476562 6.015625 C 3.453125 6.0625 3.4375 6.117188 3.4375 6.179688 C 3.4375 6.367188 3.589844 6.523438 3.78125 6.523438 L 5.15625 6.523438 C 5.347656 6.523438 5.5 6.367188 5.5 6.179688 C 5.5 6.117188 5.484375 6.0625 5.460938 6.015625 C 5.402344 6.121094 5.289062 6.195312 5.15625 6.195312 L 3.78125 6.195312 C 3.648438 6.195312 3.535156 6.121094 3.476562 6.015625 Z M 6.914062 6.015625 C 6.890625 6.0625 6.875 6.117188 6.875 6.179688 C 6.875 6.367188 7.027344 6.523438 7.21875 6.523438 L 18.21875 6.523438 C 18.410156 6.523438 18.5625 6.367188 18.5625 6.179688 C 18.5625 6.117188 18.546875 6.0625 18.523438 6.015625 C 18.464844 6.121094 18.351562 6.195312 18.21875 6.195312 L 7.21875 6.195312 C 7.085938 6.195312 6.972656 6.121094 6.914062 6.015625 Z M 6.914062 6.015625 "/>
<path style=" stroke:none;fill-rule:nonzero;fill:rgb(50.588238%,78.039217%,51.764709%);fill-opacity:0.996078;" d="M 3.78125 7.5625 L 5.15625 7.5625 C 5.347656 7.5625 5.5 7.71875 5.5 7.90625 C 5.5 8.097656 5.347656 8.25 5.15625 8.25 L 3.78125 8.25 C 3.589844 8.25 3.4375 8.097656 3.4375 7.90625 C 3.4375 7.71875 3.589844 7.5625 3.78125 7.5625 Z M 3.78125 7.5625 "/>
<path style=" stroke:none;fill-rule:nonzero;fill:rgb(87.843138%,87.843138%,87.843138%);fill-opacity:0.996078;" d="M 7.21875 7.5625 L 13.40625 7.5625 C 13.597656 7.5625 13.75 7.71875 13.75 7.90625 C 13.75 8.097656 13.597656 8.25 13.40625 8.25 L 7.21875 8.25 C 7.027344 8.25 6.875 8.097656 6.875 7.90625 C 6.875 7.71875 7.027344 7.5625 7.21875 7.5625 Z M 7.21875 7.5625 "/>
<path style=" stroke:none;fill-rule:nonzero;fill:rgb(100%,100%,100%);fill-opacity:0.4;" d="M 3.78125 7.5625 C 3.589844 7.5625 3.4375 7.714844 3.4375 7.90625 C 3.4375 7.96875 3.457031 8.027344 3.484375 8.078125 C 3.542969 7.976562 3.652344 7.90625 3.78125 7.90625 L 5.15625 7.90625 C 5.285156 7.90625 5.394531 7.976562 5.453125 8.078125 C 5.480469 8.027344 5.5 7.96875 5.5 7.90625 C 5.5 7.714844 5.347656 7.5625 5.15625 7.5625 Z M 7.21875 7.5625 C 7.027344 7.5625 6.875 7.714844 6.875 7.90625 C 6.875 7.96875 6.894531 8.027344 6.921875 8.078125 C 6.980469 7.976562 7.089844 7.90625 7.21875 7.90625 L 13.40625 7.90625 C 13.53125 7.90625 13.640625 7.976562 13.703125 8.078125 C 13.730469 8.027344 13.75 7.96875 13.75 7.90625 C 13.75 7.714844 13.59375 7.5625 13.40625 7.5625 Z M 7.21875 7.5625 "/>
<path style=" stroke:none;fill-rule:nonzero;fill:rgb(0%,0%,0%);fill-opacity:0.4;" d="M 3.476562 8.078125 C 3.453125 8.125 3.4375 8.183594 3.4375 8.242188 C 3.4375 8.433594 3.589844 8.585938 3.78125 8.585938 L 5.15625 8.585938 C 5.347656 8.585938 5.5 8.433594 5.5 8.242188 C 5.5 8.183594 5.484375 8.125 5.460938 8.078125 C 5.402344 8.183594 5.289062 8.257812 5.15625 8.257812 L 3.78125 8.257812 C 3.648438 8.257812 3.535156 8.183594 3.476562 8.078125 Z M 6.914062 8.078125 C 6.890625 8.125 6.875 8.183594 6.875 8.242188 C 6.875 8.433594 7.027344 8.585938 7.21875 8.585938 L 13.40625 8.585938 C 13.597656 8.585938 13.75 8.433594 13.75 8.242188 C 13.75 8.183594 13.734375 8.125 13.710938 8.078125 C 13.652344 8.183594 13.539062 8.257812 13.40625 8.257812 L 7.21875 8.257812 C 7.085938 8.257812 6.972656 8.183594 6.914062 8.078125 Z M 6.914062 8.078125 "/>
<path style=" stroke:none;fill-rule:nonzero;fill:rgb(50.588238%,78.039217%,51.764709%);fill-opacity:0.996078;" d="M 3.78125 9.625 L 5.15625 9.625 C 5.347656 9.625 5.5 9.777344 5.5 9.96875 C 5.5 10.15625 5.347656 10.3125 5.15625 10.3125 L 3.78125 10.3125 C 3.589844 10.3125 3.4375 10.15625 3.4375 9.96875 C 3.4375 9.777344 3.589844 9.625 3.78125 9.625 Z M 3.78125 9.625 "/>
<path style=" stroke:none;fill-rule:nonzero;fill:rgb(87.843138%,87.843138%,87.843138%);fill-opacity:0.996078;" d="M 7.21875 9.625 L 16.15625 9.625 C 16.347656 9.625 16.5 9.777344 16.5 9.96875 C 16.5 10.160156 16.347656 10.3125 16.15625 10.3125 L 7.21875 10.3125 C 7.027344 10.3125 6.875 10.160156 6.875 9.96875 C 6.875 9.777344 7.027344 9.625 7.21875 9.625 Z M 7.21875 9.625 "/>
<path style=" stroke:none;fill-rule:nonzero;fill:rgb(100%,100%,100%);fill-opacity:0.4;" d="M 3.78125 9.625 C 3.589844 9.625 3.4375 9.777344 3.4375 9.96875 C 3.4375 10.03125 3.457031 10.089844 3.484375 10.140625 C 3.542969 10.035156 3.652344 9.96875 3.78125 9.96875 L 5.15625 9.96875 C 5.285156 9.96875 5.394531 10.035156 5.453125 10.140625 C 5.480469 10.089844 5.5 10.03125 5.5 9.96875 C 5.5 9.777344 5.347656 9.625 5.15625 9.625 Z M 7.21875 9.625 C 7.027344 9.625 6.875 9.777344 6.875 9.96875 C 6.875 10.03125 6.894531 10.089844 6.921875 10.140625 C 6.980469 10.035156 7.089844 9.96875 7.21875 9.96875 L 16.152344 9.96875 C 16.28125 9.96875 16.390625 10.035156 16.449219 10.140625 C 16.476562 10.089844 16.496094 10.03125 16.496094 9.96875 C 16.496094 9.777344 16.34375 9.625 16.152344 9.625 Z M 7.21875 9.625 "/>
<path style=" stroke:none;fill-rule:nonzero;fill:rgb(0%,0%,0%);fill-opacity:0.4;" d="M 3.476562 10.136719 C 3.453125 10.1875 3.4375 10.242188 3.4375 10.300781 C 3.4375 10.492188 3.589844 10.644531 3.78125 10.644531 L 5.15625 10.644531 C 5.347656 10.644531 5.5 10.492188 5.5 10.300781 C 5.5 10.242188 5.484375 10.1875 5.460938 10.136719 C 5.402344 10.246094 5.289062 10.320312 5.15625 10.320312 L 3.78125 10.320312 C 3.648438 10.320312 3.535156 10.246094 3.476562 10.136719 Z M 6.914062 10.136719 C 6.890625 10.1875 6.875 10.242188 6.875 10.300781 C 6.875 10.492188 7.027344 10.644531 7.21875 10.644531 L 16.152344 10.644531 C 16.34375 10.644531 16.496094 10.492188 16.496094 10.300781 C 16.496094 10.242188 16.480469 10.1875 16.457031 10.136719 C 16.398438 10.246094 16.285156 10.320312 16.152344 10.320312 L 7.21875 10.320312 C 7.085938 10.320312 6.972656 10.246094 6.914062 10.136719 Z M 6.914062 10.136719 "/>
<path style=" stroke:none;fill-rule:nonzero;fill:rgb(50.588238%,78.039217%,51.764709%);fill-opacity:0.996078;" d="M 3.78125 11.6875 L 5.15625 11.6875 C 5.347656 11.6875 5.5 11.839844 5.5 12.03125 C 5.5 12.222656 5.347656 12.375 5.15625 12.375 L 3.78125 12.375 C 3.589844 12.375 3.4375 12.222656 3.4375 12.03125 C 3.4375 11.839844 3.589844 11.6875 3.78125 11.6875 Z M 3.78125 11.6875 "/>
<path style=" stroke:none;fill-rule:nonzero;fill:rgb(87.843138%,87.843138%,87.843138%);fill-opacity:0.996078;" d="M 7.21875 11.6875 L 12.03125 11.6875 C 12.222656 11.6875 12.375 11.839844 12.375 12.03125 C 12.375 12.21875 12.222656 12.375 12.03125 12.375 L 7.21875 12.375 C 7.027344 12.375 6.875 12.21875 6.875 12.03125 C 6.875 11.839844 7.027344 11.6875 7.21875 11.6875 Z M 7.21875 11.6875 "/>
<path style=" stroke:none;fill-rule:nonzero;fill:rgb(100%,100%,100%);fill-opacity:0.4;" d="M 3.78125 11.6875 C 3.589844 11.6875 3.4375 11.839844 3.4375 12.03125 C 3.4375 12.09375 3.457031 12.152344 3.484375 12.203125 C 3.542969 12.101562 3.652344 12.03125 3.78125 12.03125 L 5.15625 12.03125 C 5.285156 12.03125 5.394531 12.101562 5.453125 12.203125 C 5.480469 12.152344 5.5 12.09375 5.5 12.03125 C 5.5 11.839844 5.347656 11.6875 5.15625 11.6875 Z M 7.21875 11.6875 C 7.027344 11.6875 6.875 11.839844 6.875 12.03125 C 6.875 12.09375 6.894531 12.152344 6.921875 12.203125 C 6.980469 12.101562 7.089844 12.03125 7.21875 12.03125 L 12.03125 12.03125 C 12.15625 12.03125 12.265625 12.101562 12.328125 12.203125 C 12.355469 12.152344 12.375 12.09375 12.375 12.03125 C 12.375 11.839844 12.21875 11.6875 12.03125 11.6875 Z M 7.21875 11.6875 "/>
<path style=" stroke:none;fill-rule:nonzero;fill:rgb(0%,0%,0%);fill-opacity:0.4;" d="M 3.476562 12.203125 C 3.453125 12.25 3.4375 12.304688 3.4375 12.367188 C 3.4375 12.554688 3.589844 12.710938 3.78125 12.710938 L 5.15625 12.710938 C 5.347656 12.710938 5.5 12.554688 5.5 12.367188 C 5.5 12.304688 5.484375 12.25 5.460938 12.203125 C 5.402344 12.308594 5.289062 12.382812 5.15625 12.382812 L 3.78125 12.382812 C 3.648438 12.382812 3.535156 12.308594 3.476562 12.203125 Z M 6.914062 12.203125 C 6.890625 12.25 6.875 12.304688 6.875 12.367188 C 6.875 12.554688 7.027344 12.710938 7.21875 12.710938 L 12.03125 12.710938 C 12.222656 12.710938 12.375 12.554688 12.375 12.367188 C 12.375 12.304688 12.359375 12.25 12.335938 12.203125 C 12.277344 12.308594 12.164062 12.382812 12.03125 12.382812 L 7.21875 12.382812 C 7.085938 12.382812 6.972656 12.308594 6.914062 12.203125 Z M 6.914062 12.203125 "/>
<path style=" stroke:none;fill-rule:nonzero;fill:rgb(50.588238%,78.039217%,51.764709%);fill-opacity:0.996078;" d="M 3.78125 13.75 L 5.15625 13.75 C 5.347656 13.75 5.5 13.902344 5.5 14.09375 C 5.5 14.28125 5.347656 14.4375 5.15625 14.4375 L 3.78125 14.4375 C 3.589844 14.4375 3.4375 14.28125 3.4375 14.09375 C 3.4375 13.902344 3.589844 13.75 3.78125 13.75 Z M 3.78125 13.75 "/>
<path style=" stroke:none;fill-rule:nonzero;fill:rgb(87.843138%,87.843138%,87.843138%);fill-opacity:0.996078;" d="M 7.21875 13.75 L 18.21875 13.75 C 18.410156 13.75 18.5625 13.902344 18.5625 14.09375 C 18.5625 14.28125 18.410156 14.4375 18.21875 14.4375 L 7.21875 14.4375 C 7.027344 14.4375 6.875 14.28125 6.875 14.09375 C 6.875 13.902344 7.027344 13.75 7.21875 13.75 Z M 7.21875 13.75 "/>
<path style=" stroke:none;fill-rule:nonzero;fill:rgb(100%,100%,100%);fill-opacity:0.4;" d="M 3.78125 13.75 C 3.589844 13.75 3.4375 13.902344 3.4375 14.09375 C 3.4375 14.15625 3.457031 14.214844 3.484375 14.265625 C 3.542969 14.160156 3.652344 14.09375 3.78125 14.09375 L 5.15625 14.09375 C 5.285156 14.09375 5.394531 14.160156 5.453125 14.265625 C 5.480469 14.214844 5.5 14.15625 5.5 14.09375 C 5.5 13.902344 5.347656 13.75 5.15625 13.75 Z M 7.21875 13.75 C 7.027344 13.75 6.875 13.902344 6.875 14.09375 C 6.875 14.15625 6.894531 14.214844 6.921875 14.265625 C 6.980469 14.160156 7.089844 14.09375 7.21875 14.09375 L 18.21875 14.09375 C 18.347656 14.09375 18.457031 14.160156 18.515625 14.265625 C 18.542969 14.214844 18.5625 14.15625 18.5625 14.09375 C 18.5625 13.902344 18.410156 13.75 18.21875 13.75 Z M 7.21875 13.75 "/>
<path style=" stroke:none;fill-rule:nonzero;fill:rgb(0%,0%,0%);fill-opacity:0.4;" d="M 3.476562 14.261719 C 3.453125 14.3125 3.4375 14.367188 3.4375 14.425781 C 3.4375 14.617188 3.589844 14.769531 3.78125 14.769531 L 5.15625 14.769531 C 5.347656 14.769531 5.5 14.617188 5.5 14.425781 C 5.5 14.367188 5.484375 14.3125 5.460938 14.261719 C 5.402344 14.371094 5.289062 14.445312 5.15625 14.445312 L 3.78125 14.445312 C 3.648438 14.445312 3.535156 14.371094 3.476562 14.261719 Z M 6.914062 14.261719 C 6.890625 14.3125 6.875 14.367188 6.875 14.425781 C 6.875 14.617188 7.027344 14.769531 7.21875 14.769531 L 18.21875 14.769531 C 18.410156 14.769531 18.5625 14.617188 18.5625 14.425781 C 18.5625 14.367188 18.546875 14.3125 18.523438 14.261719 C 18.464844 14.371094 18.351562 14.445312 18.21875 14.445312 L 7.21875 14.445312 C 7.085938 14.445312 6.972656 14.371094 6.914062 14.261719 Z M 6.914062 14.261719 "/>
<path style=" stroke:none;fill-rule:nonzero;fill:rgb(50.588238%,78.039217%,51.764709%);fill-opacity:0.996078;" d="M 3.78125 15.8125 L 5.15625 15.8125 C 5.347656 15.8125 5.5 15.964844 5.5 16.15625 C 5.5 16.347656 5.347656 16.5 5.15625 16.5 L 3.78125 16.5 C 3.589844 16.5 3.4375 16.347656 3.4375 16.15625 C 3.4375 15.964844 3.589844 15.8125 3.78125 15.8125 Z M 3.78125 15.8125 "/>
<path style=" stroke:none;fill-rule:nonzero;fill:rgb(87.843138%,87.843138%,87.843138%);fill-opacity:0.996078;" d="M 7.21875 15.8125 L 13.40625 15.8125 C 13.597656 15.8125 13.75 15.964844 13.75 16.15625 C 13.75 16.34375 13.597656 16.5 13.40625 16.5 L 7.21875 16.5 C 7.027344 16.5 6.875 16.34375 6.875 16.15625 C 6.875 15.964844 7.027344 15.8125 7.21875 15.8125 Z M 7.21875 15.8125 "/>
<path style=" stroke:none;fill-rule:nonzero;fill:rgb(100%,100%,100%);fill-opacity:0.4;" d="M 3.78125 15.8125 C 3.589844 15.8125 3.4375 15.964844 3.4375 16.15625 C 3.4375 16.21875 3.457031 16.277344 3.484375 16.328125 C 3.542969 16.226562 3.652344 16.15625 3.78125 16.15625 L 5.15625 16.15625 C 5.285156 16.15625 5.394531 16.226562 5.453125 16.328125 C 5.480469 16.277344 5.5 16.21875 5.5 16.15625 C 5.5 15.964844 5.347656 15.8125 5.15625 15.8125 Z M 7.21875 15.8125 C 7.027344 15.8125 6.875 15.964844 6.875 16.15625 C 6.875 16.21875 6.894531 16.277344 6.921875 16.328125 C 6.980469 16.226562 7.089844 16.15625 7.21875 16.15625 L 13.40625 16.15625 C 13.53125 16.15625 13.640625 16.226562 13.703125 16.328125 C 13.730469 16.277344 13.75 16.21875 13.75 16.15625 C 13.75 15.964844 13.59375 15.8125 13.40625 15.8125 Z M 7.21875 15.8125 "/>
<path style=" stroke:none;fill-rule:nonzero;fill:rgb(0%,0%,0%);fill-opacity:0.4;" d="M 3.476562 16.328125 C 3.453125 16.375 3.4375 16.429688 3.4375 16.492188 C 3.4375 16.679688 3.589844 16.835938 3.78125 16.835938 L 5.15625 16.835938 C 5.347656 16.835938 5.5 16.679688 5.5 16.492188 C 5.5 16.429688 5.484375 16.375 5.460938 16.328125 C 5.402344 16.433594 5.289062 16.507812 5.15625 16.507812 L 3.78125 16.507812 C 3.648438 16.507812 3.535156 16.433594 3.476562 16.328125 Z M 6.914062 16.328125 C 6.890625 16.375 6.875 16.429688 6.875 16.492188 C 6.875 16.679688 7.027344 16.835938 7.21875 16.835938 L 13.40625 16.835938 C 13.597656 16.835938 13.75 16.679688 13.75 16.492188 C 13.75 16.429688 13.734375 16.375 13.710938 16.328125 C 13.652344 16.433594 13.539062 16.507812 13.40625 16.507812 L 7.21875 16.507812 C 7.085938 16.507812 6.972656 16.433594 6.914062 16.328125 Z M 6.914062 16.328125 "/>
<path style=" stroke:none;fill-rule:nonzero;fill:url(#linear1);" d="M 2.75 2.75 L 19.25 2.75 C 20.007812 2.75 20.625 3.367188 20.625 4.125 L 20.625 17.875 C 20.625 18.632812 20.007812 19.25 19.25 19.25 L 2.75 19.25 C 1.992188 19.25 1.375 18.632812 1.375 17.875 L 1.375 4.125 C 1.375 3.367188 1.992188 2.75 2.75 2.75 Z M 2.75 2.75 "/>
</g>
</svg>
