
<svg xmlns="http://www.w3.org/2000/svg" xmlns:xlink="http://www.w3.org/1999/xlink" width="16" height="16" viewBox="0 0 16 16" version="1.1">
<defs>
<linearGradient id="linear0" gradientUnits="userSpaceOnUse" x1="8.466666" y1="-199.125" x2="8.466666" y2="-213.941666" gradientTransform="matrix(0.944882,0,0,0.944882,-0.00000315715,203.149617)">
<stop offset="0" style="stop-color:rgb(0%,0%,0%);stop-opacity:0.2;"/>
<stop offset="1" style="stop-color:rgb(100%,100%,100%);stop-opacity:0;"/>
</linearGradient>
</defs>
<g id="surface1">
<path style=" stroke:none;fill-rule:nonzero;fill:rgb(92.54902%,25.098041%,47.843137%);fill-opacity:1;" d="M 2 1 L 14 1 C 14.550781 1 15 1.449219 15 2 L 15 14 C 15 14.550781 14.550781 15 14 15 L 2 15 C 1.449219 15 1 14.550781 1 14 L 1 2 C 1 1.449219 1.449219 1 2 1 Z M 2 1 "/>
<path style=" stroke:none;fill-rule:nonzero;fill:rgb(100%,99.215686%,99.215686%);fill-opacity:0.4;" d="M 1 8.125 L 15 8.125 L 15 8.375 L 1 8.375 Z M 1 8.125 "/>
<path style=" stroke:none;fill-rule:nonzero;fill:rgb(0%,0%,0%);fill-opacity:0.4;" d="M 1 13.75 L 1 14 C 1 14.554688 1.445312 15 2 15 L 14 15 C 14.554688 15 15 14.554688 15 14 L 15 13.75 C 15 14.304688 14.554688 14.75 14 14.75 L 2 14.75 C 1.445312 14.75 1 14.304688 1 13.75 Z M 1 13.75 "/>
<path style=" stroke:none;fill-rule:nonzero;fill:rgb(0%,0%,0%);fill-opacity:0.2;" d="M 1 14 L 1 14.375 C 1 14.929688 1.445312 15.375 2 15.375 L 14 15.375 C 14.554688 15.375 15 14.929688 15 14.375 L 15 14 C 15 14.554688 14.554688 15 14 15 L 2 15 C 1.445312 15 1 14.554688 1 14 Z M 1 14 "/>
<path style=" stroke:none;fill-rule:nonzero;fill:rgb(100%,100%,100%);fill-opacity:0.4;" d="M 2 1 C 1.445312 1 1 1.445312 1 2 L 1 2.246094 C 1 1.691406 1.445312 1.246094 2 1.246094 L 14 1.246094 C 14.554688 1.246094 15 1.691406 15 2.246094 L 15 2 C 15 1.445312 14.554688 1 14 1 Z M 2 1 "/>
<path style=" stroke:none;fill-rule:nonzero;fill:rgb(0.392157%,0.392157%,0.392157%);fill-opacity:0.4;" d="M 3.5 9.75 C 3.363281 9.75 3.25 9.636719 3.25 9.5 L 3.25 9.375 C 3.25 9.511719 3.363281 9.625 3.5 9.625 L 5 9.625 C 5.136719 9.625 5.25 9.511719 5.25 9.375 L 5.25 9.5 C 5.25 9.636719 5.136719 9.75 5 9.75 Z M 3.5 6.875 L 3.5 6.75 C 3.5 6.679688 3.554688 6.625 3.625 6.625 L 4.875 6.625 C 4.945312 6.625 5 6.679688 5 6.75 L 5 6.875 C 5 6.804688 4.945312 6.75 4.875 6.75 L 3.625 6.75 C 3.554688 6.75 3.5 6.804688 3.5 6.875 Z M 3.5 6.875 "/>
<path style=" stroke:none;fill-rule:nonzero;fill:rgb(0.392157%,0%,0%);fill-opacity:0.4;" d="M 1 7.875 L 15 7.875 L 15 8.125 L 1 8.125 Z M 1 7.875 "/>
<path style=" stroke:none;fill-rule:nonzero;fill:rgb(0%,0%,0%);fill-opacity:0.2;" d="M 3.5 5.5 L 5 5.5 C 5.277344 5.5 5.5 5.722656 5.5 6 L 5.5 10 C 5.5 10.277344 5.277344 10.5 5 10.5 L 3.5 10.5 C 3.222656 10.5 3 10.277344 3 10 L 3 6 C 3 5.722656 3.222656 5.5 3.5 5.5 Z M 3.5 5.5 "/>
<path style=" stroke:none;fill-rule:nonzero;fill:rgb(74.117649%,74.117649%,74.117649%);fill-opacity:1;" d="M 3.5 6.375 C 3.363281 6.375 3.25 6.488281 3.25 6.625 L 3.25 9.375 C 3.25 9.511719 3.363281 9.625 3.5 9.625 L 5 9.625 C 5.136719 9.625 5.25 9.511719 5.25 9.375 L 5.25 6.625 C 5.25 6.488281 5.136719 6.375 5 6.375 Z M 3.625 6.625 L 4.875 6.625 C 4.945312 6.625 5 6.679688 5 6.75 L 5 9.25 C 5 9.320312 4.945312 9.375 4.875 9.375 L 3.625 9.375 C 3.554688 9.375 3.5 9.320312 3.5 9.25 L 3.5 6.75 C 3.5 6.679688 3.554688 6.625 3.625 6.625 Z M 3.625 6.625 "/>
<path style=" stroke:none;fill-rule:nonzero;fill:rgb(100%,100%,100%);fill-opacity:0.4;" d="M 3.5 10.75 C 3.222656 10.75 3 10.527344 3 10.25 L 3 10 C 3 10.277344 3.222656 10.5 3.5 10.5 L 5 10.5 C 5.277344 10.5 5.5 10.277344 5.5 10 L 5.5 10.25 C 5.5 10.527344 5.277344 10.75 5 10.75 Z M 3.5 10.75 "/>
<path style=" stroke:none;fill-rule:nonzero;fill:rgb(0%,0%,0%);fill-opacity:0.4;" d="M 3.5 5.5 C 3.222656 5.5 3 5.722656 3 6 L 3 6.25 C 3 5.972656 3.222656 5.75 3.5 5.75 L 5 5.75 C 5.277344 5.75 5.5 5.972656 5.5 6.25 L 5.5 6 C 5.5 5.722656 5.277344 5.5 5 5.5 Z M 3.5 5.5 "/>
<path style=" stroke:none;fill-rule:nonzero;fill:rgb(100%,100%,100%);fill-opacity:0.4;" d="M 3.5 6.375 C 3.363281 6.375 3.25 6.488281 3.25 6.625 L 3.25 6.75 C 3.25 6.613281 3.363281 6.5 3.5 6.5 L 5 6.5 C 5.136719 6.5 5.25 6.613281 5.25 6.75 L 5.25 6.625 C 5.25 6.488281 5.136719 6.375 5 6.375 Z M 3.5 9.25 L 3.5 9.375 C 3.5 9.445312 3.554688 9.5 3.625 9.5 L 4.875 9.5 C 4.945312 9.5 5 9.445312 5 9.375 L 5 9.25 C 5 9.320312 4.945312 9.375 4.875 9.375 L 3.625 9.375 C 3.554688 9.375 3.5 9.320312 3.5 9.25 Z M 3.5 9.25 "/>
<path style=" stroke:none;fill-rule:nonzero;fill:rgb(87.843138%,87.843138%,87.843138%);fill-opacity:1;" d="M 3.75 8.75 L 4.75 8.75 C 4.886719 8.75 5 8.863281 5 9 L 5 10 C 5 10.136719 4.886719 10.25 4.75 10.25 L 3.75 10.25 C 3.613281 10.25 3.5 10.136719 3.5 10 L 3.5 9 C 3.5 8.863281 3.613281 8.75 3.75 8.75 Z M 3.75 8.75 "/>
<path style=" stroke:none;fill-rule:nonzero;fill:rgb(0%,0%,0%);fill-opacity:0.4;" d="M 3.5 10 L 3.5 10.25 C 3.5 10.386719 3.613281 10.5 3.75 10.5 L 4.75 10.5 C 4.886719 10.5 5 10.386719 5 10.25 L 5 10 C 5 10.136719 4.886719 10.25 4.75 10.25 L 3.75 10.25 C 3.613281 10.25 3.5 10.136719 3.5 10 Z M 3.5 10 "/>
<path style=" stroke:none;fill-rule:nonzero;fill:rgb(0%,0%,0%);fill-opacity:0.4;" d="M 3.5 6.75 L 3.5 7 C 3.5 7.136719 3.613281 7.25 3.75 7.25 L 4.75 7.25 C 4.886719 7.25 5 7.136719 5 7 L 5 6.75 C 5 6.886719 4.886719 7 4.75 7 L 3.75 7 C 3.613281 7 3.5 6.886719 3.5 6.75 Z M 3.5 6.75 "/>
<path style=" stroke:none;fill-rule:nonzero;fill:rgb(100%,100%,100%);fill-opacity:0.8;" d="M 3.5 9.25 L 3.5 9 C 3.5 8.863281 3.613281 8.75 3.75 8.75 L 4.75 8.75 C 4.886719 8.75 5 8.863281 5 9 L 5 9.25 C 5 9.113281 4.886719 9 4.75 9 L 3.75 9 C 3.613281 9 3.5 9.113281 3.5 9.25 Z M 3.5 9.25 "/>
<path style=" stroke:none;fill-rule:nonzero;fill:rgb(0.392157%,0.392157%,0.392157%);fill-opacity:0.4;" d="M 11 9.75 C 10.863281 9.75 10.75 9.636719 10.75 9.5 L 10.75 9.375 C 10.75 9.511719 10.863281 9.625 11 9.625 L 12.5 9.625 C 12.636719 9.625 12.75 9.511719 12.75 9.375 L 12.75 9.5 C 12.75 9.636719 12.636719 9.75 12.5 9.75 Z M 11 6.875 L 11 6.75 C 11 6.679688 11.054688 6.625 11.125 6.625 L 12.375 6.625 C 12.445312 6.625 12.5 6.679688 12.5 6.75 L 12.5 6.875 C 12.5 6.804688 12.445312 6.75 12.375 6.75 L 11.125 6.75 C 11.054688 6.75 11 6.804688 11 6.875 Z M 11 6.875 "/>
<path style=" stroke:none;fill-rule:nonzero;fill:rgb(0%,0%,0%);fill-opacity:0.2;" d="M 11 5.5 L 12.5 5.5 C 12.777344 5.5 13 5.722656 13 6 L 13 10 C 13 10.277344 12.777344 10.5 12.5 10.5 L 11 10.5 C 10.722656 10.5 10.5 10.277344 10.5 10 L 10.5 6 C 10.5 5.722656 10.722656 5.5 11 5.5 Z M 11 5.5 "/>
<path style=" stroke:none;fill-rule:nonzero;fill:rgb(74.117649%,74.117649%,74.117649%);fill-opacity:1;" d="M 11 6.375 C 10.863281 6.375 10.75 6.488281 10.75 6.625 L 10.75 9.375 C 10.75 9.511719 10.863281 9.625 11 9.625 L 12.5 9.625 C 12.636719 9.625 12.75 9.511719 12.75 9.375 L 12.75 6.625 C 12.75 6.488281 12.636719 6.375 12.5 6.375 Z M 11.125 6.625 L 12.375 6.625 C 12.445312 6.625 12.5 6.679688 12.5 6.75 L 12.5 9.25 C 12.5 9.320312 12.445312 9.375 12.375 9.375 L 11.125 9.375 C 11.054688 9.375 11 9.320312 11 9.25 L 11 6.75 C 11 6.679688 11.054688 6.625 11.125 6.625 Z M 11.125 6.625 "/>
<path style=" stroke:none;fill-rule:nonzero;fill:rgb(100%,100%,100%);fill-opacity:0.4;" d="M 11 6.375 C 10.863281 6.375 10.75 6.488281 10.75 6.625 L 10.75 6.75 C 10.75 6.613281 10.863281 6.5 11 6.5 L 12.5 6.5 C 12.636719 6.5 12.75 6.613281 12.75 6.75 L 12.75 6.625 C 12.75 6.488281 12.636719 6.375 12.5 6.375 Z M 11 9.25 L 11 9.375 C 11 9.445312 11.054688 9.5 11.125 9.5 L 12.375 9.5 C 12.445312 9.5 12.5 9.445312 12.5 9.375 L 12.5 9.25 C 12.5 9.320312 12.445312 9.375 12.375 9.375 L 11.125 9.375 C 11.054688 9.375 11 9.320312 11 9.25 Z M 11 9.25 "/>
<path style=" stroke:none;fill-rule:nonzero;fill:rgb(95.686275%,56.078434%,69.411767%);fill-opacity:0.996078;" d="M 3.75 6 L 4.75 6 C 4.886719 6 5 6.113281 5 6.25 L 5 6.75 C 5 6.886719 4.886719 7 4.75 7 L 3.75 7 C 3.613281 7 3.5 6.886719 3.5 6.75 L 3.5 6.25 C 3.5 6.113281 3.613281 6 3.75 6 Z M 3.75 6 "/>
<path style=" stroke:none;fill-rule:nonzero;fill:rgb(95.686275%,56.078434%,69.411767%);fill-opacity:0.996078;" d="M 11.25 6 L 12.25 6 C 12.386719 6 12.5 6.113281 12.5 6.25 L 12.5 6.75 C 12.5 6.886719 12.386719 7 12.25 7 L 11.25 7 C 11.113281 7 11 6.886719 11 6.75 L 11 6.25 C 11 6.113281 11.113281 6 11.25 6 Z M 11.25 6 "/>
<path style=" stroke:none;fill-rule:nonzero;fill:rgb(99.607843%,99.607843%,99.607843%);fill-opacity:0.4;" d="M 3.5 6.5 L 3.5 6.25 C 3.5 6.113281 3.613281 6 3.75 6 L 4.75 6 C 4.886719 6 5 6.113281 5 6.25 L 5 6.5 C 5 6.363281 4.886719 6.25 4.75 6.25 L 3.75 6.25 C 3.613281 6.25 3.5 6.363281 3.5 6.5 Z M 3.5 6.5 "/>
<path style=" stroke:none;fill-rule:nonzero;fill:rgb(100%,100%,100%);fill-opacity:0.4;" d="M 11 10.75 C 10.722656 10.75 10.5 10.527344 10.5 10.25 L 10.5 10 C 10.5 10.277344 10.722656 10.5 11 10.5 L 12.5 10.5 C 12.777344 10.5 13 10.277344 13 10 L 13 10.25 C 13 10.527344 12.777344 10.75 12.5 10.75 Z M 11 10.75 "/>
<path style=" stroke:none;fill-rule:nonzero;fill:rgb(0%,0%,0%);fill-opacity:0.4;" d="M 11 5.5 C 10.722656 5.5 10.5 5.722656 10.5 6 L 10.5 6.25 C 10.5 5.972656 10.722656 5.75 11 5.75 L 12.5 5.75 C 12.777344 5.75 13 5.972656 13 6.25 L 13 6 C 13 5.722656 12.777344 5.5 12.5 5.5 Z M 11 5.5 "/>
<path style=" stroke:none;fill-rule:nonzero;fill:rgb(87.843138%,87.843138%,87.843138%);fill-opacity:1;" d="M 11.25 8.75 L 12.25 8.75 C 12.386719 8.75 12.5 8.863281 12.5 9 L 12.5 10 C 12.5 10.136719 12.386719 10.25 12.25 10.25 L 11.25 10.25 C 11.113281 10.25 11 10.136719 11 10 L 11 9 C 11 8.863281 11.113281 8.75 11.25 8.75 Z M 11.25 8.75 "/>
<path style=" stroke:none;fill-rule:nonzero;fill:rgb(0%,0%,0%);fill-opacity:0.4;" d="M 11 10 L 11 10.25 C 11 10.386719 11.113281 10.5 11.25 10.5 L 12.25 10.5 C 12.386719 10.5 12.5 10.386719 12.5 10.25 L 12.5 10 C 12.5 10.136719 12.386719 10.25 12.25 10.25 L 11.25 10.25 C 11.113281 10.25 11 10.136719 11 10 Z M 11 10 "/>
<path style=" stroke:none;fill-rule:nonzero;fill:rgb(0%,0%,0%);fill-opacity:0.4;" d="M 11 6.75 L 11 7 C 11 7.136719 11.113281 7.25 11.25 7.25 L 12.25 7.25 C 12.386719 7.25 12.5 7.136719 12.5 7 L 12.5 6.75 C 12.5 6.886719 12.386719 7 12.25 7 L 11.25 7 C 11.113281 7 11 6.886719 11 6.75 Z M 11 6.75 "/>
<path style=" stroke:none;fill-rule:nonzero;fill:rgb(100%,100%,100%);fill-opacity:0.8;" d="M 11 9.25 L 11 9 C 11 8.863281 11.113281 8.75 11.25 8.75 L 12.25 8.75 C 12.386719 8.75 12.5 8.863281 12.5 9 L 12.5 9.25 C 12.5 9.113281 12.386719 9 12.25 9 L 11.25 9 C 11.113281 9 11 9.113281 11 9.25 Z M 11 9.25 "/>
<path style=" stroke:none;fill-rule:nonzero;fill:rgb(99.607843%,99.607843%,99.607843%);fill-opacity:0.4;" d="M 11 6.5 L 11 6.25 C 11 6.113281 11.113281 6 11.25 6 L 12.25 6 C 12.386719 6 12.5 6.113281 12.5 6.25 L 12.5 6.5 C 12.5 6.363281 12.386719 6.25 12.25 6.25 L 11.25 6.25 C 11.113281 6.25 11 6.363281 11 6.5 Z M 11 6.5 "/>
<path style=" stroke:none;fill-rule:nonzero;fill:url(#linear0);" d="M 2 1 L 14 1 C 14.550781 1 15 1.449219 15 2 L 15 14 C 15 14.550781 14.550781 15 14 15 L 2 15 C 1.449219 15 1 14.550781 1 14 L 1 2 C 1 1.449219 1.449219 1 2 1 Z M 2 1 "/>
</g>
</svg>
