
<svg xmlns="http://www.w3.org/2000/svg" xmlns:xlink="http://www.w3.org/1999/xlink" width="64" height="64" viewBox="0 0 64 64" version="1.1">
<defs>
<linearGradient id="linear0" gradientUnits="userSpaceOnUse" x1="8.466666" y1="-200.183334" x2="8.466666" y2="-212.883331" gradientTransform="matrix(3.779528,0,0,3.779528,0,812.598468)">
<stop offset="0" style="stop-color:rgb(0%,0%,0%);stop-opacity:0.2;"/>
<stop offset="1" style="stop-color:rgb(100%,100%,100%);stop-opacity:0;"/>
</linearGradient>
</defs>
<g id="surface1">
<path style=" stroke:none;fill-rule:nonzero;fill:rgb(93.333334%,93.333334%,93.333334%);fill-opacity:1;" d="M 8 8 L 56 8 C 58.210938 8 60 9.789062 60 12 L 60 52 C 60 54.210938 58.210938 56 56 56 L 8 56 C 5.789062 56 4 54.210938 4 52 L 4 12 C 4 9.789062 5.789062 8 8 8 Z M 8 8 "/>
<path style=" stroke:none;fill-rule:nonzero;fill:rgb(38.039216%,38.039216%,38.039216%);fill-opacity:1;" d="M 8 8 C 5.785156 8 4 9.785156 4 12 L 4 18 L 60 18 L 60 12 C 60 9.785156 58.21875 8 56 8 Z M 8 8 "/>
<path style=" stroke:none;fill-rule:nonzero;fill:rgb(100%,100%,100%);fill-opacity:0.4;" d="M 8 8 C 5.785156 8 4 9.785156 4 12 L 4 13 C 4 10.785156 5.785156 9 8 9 L 56 9 C 58.21875 9 60 10.785156 60 13 L 60 12 C 60 9.785156 58.21875 8 56 8 Z M 8 8 "/>
<path style=" stroke:none;fill-rule:nonzero;fill:rgb(0%,0%,0%);fill-opacity:0.4;" d="M 4 18 L 60 18 L 60 19 L 4 19 Z M 4 18 "/>
<path style=" stroke:none;fill-rule:nonzero;fill:rgb(0%,0%,0%);fill-opacity:0.2;" d="M 4 52.042969 L 4 53.535156 C 4 55.75 5.785156 57.535156 8 57.535156 L 56 57.535156 C 58.214844 57.535156 60 55.75 60 53.535156 L 60 52.042969 C 60 54.257812 58.214844 56.042969 56 56.042969 L 8 56.042969 C 5.785156 56.042969 4 54.257812 4 52.042969 Z M 4 52.042969 "/>
<path style=" stroke:none;fill-rule:nonzero;fill:rgb(0%,0%,0%);fill-opacity:0.4;" d="M 4 51.003906 L 4 52 C 4 54.214844 5.785156 56 8 56 L 56 56 C 58.214844 56 60 54.214844 60 52 L 60 51.003906 C 60 53.21875 58.214844 55.003906 56 55.003906 L 8 55.003906 C 5.785156 55.003906 4 53.21875 4 51.003906 Z M 4 51.003906 "/>
<path style=" stroke:none;fill-rule:nonzero;fill:rgb(38.039216%,38.039216%,38.039216%);fill-opacity:1;" d="M 56 11 C 57.105469 11 58 11.894531 58 13 C 58 14.105469 57.105469 15 56 15 C 54.894531 15 54 14.105469 54 13 C 54 11.894531 54.894531 11 56 11 Z M 56 11 "/>
<path style=" stroke:none;fill-rule:nonzero;fill:rgb(38.039216%,38.039216%,38.039216%);fill-opacity:1;" d="M 50 11 C 51.105469 11 52 11.894531 52 13 C 52 14.105469 51.105469 15 50 15 C 48.894531 15 48 14.105469 48 13 C 48 11.894531 48.894531 11 50 11 Z M 50 11 "/>
<path style=" stroke:none;fill-rule:nonzero;fill:rgb(40.000001%,73.333335%,41.568628%);fill-opacity:0.988235;" d="M 44 11 C 45.105469 11 46 11.894531 46 13 C 46 14.105469 45.105469 15 44 15 C 42.894531 15 42 14.105469 42 13 C 42 11.894531 42.894531 11 44 11 Z M 44 11 "/>
<path style=" stroke:none;fill-rule:nonzero;fill:rgb(38.039216%,38.039216%,38.039216%);fill-opacity:0.988235;" d="M 44 11 C 45.105469 11 46 11.894531 46 13 C 46 14.105469 45.105469 15 44 15 C 42.894531 15 42 14.105469 42 13 C 42 11.894531 42.894531 11 44 11 Z M 44 11 "/>
<path style=" stroke:none;fill-rule:nonzero;fill:rgb(100%,100%,100%);fill-opacity:0.4;" d="M 42.015625 13.246094 C 42.003906 13.328125 42 13.414062 42 13.5 C 42 14.605469 42.890625 15.5 44 15.5 C 45.109375 15.5 46 14.605469 46 13.5 C 46 13.414062 45.996094 13.328125 45.984375 13.246094 C 45.863281 14.234375 45.023438 15 44 15 C 42.976562 15 42.136719 14.234375 42.015625 13.246094 Z M 48.015625 13.246094 C 48.003906 13.328125 48 13.414062 48 13.5 C 48 14.605469 48.890625 15.5 50 15.5 C 51.109375 15.5 52 14.605469 52 13.5 C 52 13.414062 51.996094 13.328125 51.984375 13.246094 C 51.863281 14.234375 51.023438 15 50 15 C 48.976562 15 48.136719 14.234375 48.015625 13.246094 Z M 54.015625 13.246094 C 54.003906 13.328125 54 13.414062 54 13.5 C 54 14.605469 54.890625 15.5 56 15.5 C 57.109375 15.5 58 14.605469 58 13.5 C 58 13.414062 57.996094 13.328125 57.984375 13.246094 C 57.863281 14.234375 57.023438 15 56 15 C 54.976562 15 54.136719 14.234375 54.015625 13.246094 Z M 54.015625 13.246094 "/>
<path style=" stroke:none;fill-rule:nonzero;fill:rgb(0%,0%,0%);fill-opacity:0.4;" d="M 44 11 C 42.890625 11 42 11.894531 42 13 C 42 13.085938 42.003906 13.171875 42.015625 13.253906 C 42.136719 12.265625 42.976562 11.5 44 11.5 C 45.023438 11.5 45.863281 12.265625 45.984375 13.253906 C 45.996094 13.171875 46 13.085938 46 13 C 46 11.894531 45.109375 11 44 11 Z M 50 11 C 48.890625 11 48 11.894531 48 13 C 48 13.085938 48.003906 13.171875 48.015625 13.253906 C 48.136719 12.265625 48.976562 11.5 50 11.5 C 51.023438 11.5 51.863281 12.265625 51.984375 13.253906 C 51.996094 13.171875 52 13.085938 52 13 C 52 11.894531 51.109375 11 50 11 Z M 56 11 C 54.890625 11 54 11.894531 54 13 C 54 13.085938 54.003906 13.171875 54.015625 13.253906 C 54.136719 12.265625 54.976562 11.5 56 11.5 C 57.023438 11.5 57.863281 12.265625 57.984375 13.253906 C 57.996094 13.171875 58 13.085938 58 13 C 58 11.894531 57.109375 11 56 11 Z M 56 11 "/>
<path style=" stroke:none;fill-rule:nonzero;fill:rgb(40.000001%,73.333335%,41.568628%);fill-opacity:1;" d="M 31.871094 24 C 31.214844 24.007812 30.578125 24.078125 29.957031 24.207031 L 29.292969 27.539062 C 28.742188 27.769531 28.226562 28.066406 27.757812 28.425781 L 24.539062 27.335938 C 24.09375 27.839844 23.691406 28.394531 23.339844 29 C 22.988281 29.605469 22.710938 30.234375 22.5 30.871094 L 25.054688 33.117188 C 25.019531 33.40625 25 33.699219 25 34 C 25 34.300781 25.019531 34.59375 25.054688 34.882812 L 22.5 37.128906 C 22.710938 37.765625 22.988281 38.394531 23.339844 39 C 23.691406 39.605469 24.09375 40.160156 24.539062 40.664062 L 27.757812 39.578125 C 28.226562 39.933594 28.742188 40.230469 29.292969 40.460938 L 29.960938 43.792969 C 30.617188 43.929688 31.300781 44 32 44 C 32.699219 44 33.382812 43.929688 34.042969 43.792969 L 34.707031 40.460938 C 35.257812 40.230469 35.773438 39.933594 36.242188 39.578125 L 39.460938 40.664062 C 39.90625 40.160156 40.308594 39.605469 40.660156 39 C 41.011719 38.394531 41.289062 37.765625 41.5 37.128906 L 38.945312 34.882812 C 38.980469 34.59375 39 34.300781 39 34 C 39 33.699219 38.980469 33.40625 38.945312 33.117188 L 41.5 30.871094 C 41.289062 30.234375 41.011719 29.605469 40.660156 29 C 40.308594 28.394531 39.90625 27.839844 39.460938 27.335938 L 36.242188 28.425781 C 35.773438 28.066406 35.257812 27.769531 34.707031 27.539062 L 34.042969 24.207031 C 33.382812 24.070312 32.699219 24 32 24 C 31.957031 24 31.914062 24 31.871094 24 Z M 32 30 C 34.214844 30 36 31.785156 36 34 C 36 36.214844 34.214844 38 32 38 C 29.785156 38 28 36.214844 28 34 C 28 31.785156 29.785156 30 32 30 Z M 32 30 "/>
<path style=" stroke:none;fill-rule:nonzero;fill:rgb(99.607843%,99.607843%,99.607843%);fill-opacity:0.4;" d="M 31.871094 24 C 31.214844 24.007812 30.578125 24.078125 29.957031 24.207031 L 29.292969 27.539062 C 28.742188 27.769531 28.226562 28.066406 27.757812 28.421875 L 24.539062 27.335938 C 24.09375 27.839844 23.691406 28.394531 23.339844 29 C 22.988281 29.605469 22.710938 30.234375 22.5 30.871094 L 22.78125 31.121094 C 22.941406 30.742188 23.128906 30.367188 23.339844 30 C 23.691406 29.394531 24.09375 28.839844 24.539062 28.335938 L 27.757812 29.421875 C 28.226562 29.066406 28.742188 28.769531 29.292969 28.539062 L 29.957031 25.207031 C 30.578125 25.078125 31.214844 25.007812 31.871094 25 C 31.914062 25 31.957031 25 32 25 C 32.699219 25 33.382812 25.070312 34.042969 25.207031 L 34.707031 28.539062 C 35.257812 28.769531 35.773438 29.066406 36.242188 29.421875 L 39.460938 28.335938 C 39.90625 28.839844 40.308594 29.394531 40.660156 30 C 40.871094 30.367188 41.058594 30.742188 41.21875 31.121094 L 41.5 30.871094 C 41.289062 30.234375 41.011719 29.605469 40.660156 29 C 40.308594 28.394531 39.90625 27.839844 39.460938 27.335938 L 36.242188 28.421875 C 35.773438 28.066406 35.257812 27.769531 34.707031 27.539062 L 34.042969 24.207031 C 33.382812 24.070312 32.699219 24 32 24 C 31.957031 24 31.914062 24 31.871094 24 Z M 25 34.070312 C 25.003906 34.214844 25.007812 34.359375 25.015625 34.5 C 25.027344 34.371094 25.039062 34.242188 25.054688 34.117188 Z M 39 34.070312 L 38.945312 34.117188 C 38.960938 34.242188 38.972656 34.371094 38.984375 34.5 C 38.992188 34.359375 38.996094 34.214844 39 34.070312 Z M 28.03125 34.5 C 28.011719 34.664062 28 34.832031 28 35 C 28 37.214844 29.785156 39 32 39 C 34.214844 39 36 37.214844 36 35 C 36 34.832031 35.988281 34.664062 35.96875 34.5 C 35.722656 36.476562 34.046875 38 32 38 C 29.953125 38 28.277344 36.476562 28.03125 34.5 Z M 25 34.929688 L 22.5 37.128906 C 22.582031 37.382812 22.675781 37.632812 22.78125 37.878906 L 25.054688 35.882812 C 25.019531 35.59375 25 35.300781 25 35 C 25 34.976562 25 34.953125 25 34.929688 Z M 39 34.929688 C 39 34.953125 39 34.976562 39 35 C 39 35.300781 38.980469 35.59375 38.945312 35.882812 L 41.21875 37.878906 C 41.324219 37.632812 41.417969 37.378906 41.5 37.128906 Z M 39 34.929688 "/>
<path style=" stroke:none;fill-rule:nonzero;fill:rgb(0%,0%,0%);fill-opacity:0.4;" d="M 32 30.039062 C 29.785156 30.039062 28 31.824219 28 34.039062 C 28 34.207031 28.011719 34.375 28.03125 34.539062 C 28.277344 32.5625 29.953125 31.039062 32 31.039062 C 34.046875 31.039062 35.722656 32.5625 35.96875 34.539062 C 35.988281 34.375 36 34.207031 36 34.039062 C 36 31.824219 34.214844 30.039062 32 30.039062 Z M 22.78125 31.160156 C 22.675781 31.40625 22.582031 31.660156 22.5 31.910156 L 25 34.109375 C 25 34.085938 25 34.0625 25 34.039062 C 25 33.738281 25.019531 33.445312 25.054688 33.15625 Z M 41.21875 31.160156 L 38.945312 33.15625 C 38.980469 33.445312 39 33.738281 39 34.039062 C 39 34.0625 39 34.085938 39 34.109375 L 41.5 31.910156 C 41.417969 31.660156 41.324219 31.40625 41.21875 31.160156 Z M 25.015625 34.539062 C 25.007812 34.679688 25.003906 34.824219 25 34.96875 L 25.054688 34.921875 C 25.039062 34.796875 25.027344 34.667969 25.015625 34.539062 Z M 38.984375 34.539062 C 38.972656 34.667969 38.960938 34.796875 38.945312 34.921875 L 39 34.96875 C 38.996094 34.824219 38.992188 34.679688 38.984375 34.539062 Z M 22.78125 37.917969 L 22.5 38.167969 C 22.710938 38.804688 22.988281 39.433594 23.339844 40.039062 C 23.691406 40.644531 24.09375 41.199219 24.539062 41.703125 L 27.757812 40.613281 C 28.226562 40.972656 28.742188 41.269531 29.292969 41.5 L 29.957031 44.832031 C 30.617188 44.96875 31.300781 45.039062 32 45.039062 C 32.699219 45.039062 33.382812 44.96875 34.042969 44.832031 L 34.707031 41.5 C 35.257812 41.269531 35.773438 40.972656 36.242188 40.613281 L 39.460938 41.703125 C 39.90625 41.199219 40.308594 40.644531 40.660156 40.039062 C 41.011719 39.433594 41.289062 38.804688 41.5 38.167969 L 41.21875 37.917969 C 41.058594 38.296875 40.871094 38.671875 40.660156 39.039062 C 40.308594 39.644531 39.90625 40.199219 39.460938 40.703125 L 36.242188 39.613281 C 35.773438 39.972656 35.257812 40.269531 34.707031 40.5 L 34.042969 43.832031 C 33.382812 43.96875 32.699219 44.039062 32 44.039062 C 31.300781 44.039062 30.617188 43.96875 29.957031 43.832031 L 29.292969 40.5 C 28.742188 40.269531 28.226562 39.972656 27.757812 39.613281 L 24.539062 40.703125 C 24.09375 40.199219 23.691406 39.644531 23.339844 39.039062 C 23.128906 38.671875 22.941406 38.296875 22.78125 37.917969 Z M 22.78125 37.917969 "/>
<path style=" stroke:none;fill-rule:nonzero;fill:url(#linear0);" d="M 8 8 L 56 8 C 58.210938 8 60 9.789062 60 12 L 60 52 C 60 54.210938 58.210938 56 56 56 L 8 56 C 5.789062 56 4 54.210938 4 52 L 4 12 C 4 9.789062 5.789062 8 8 8 Z M 8 8 "/>
</g>
</svg>
