
<svg xmlns="http://www.w3.org/2000/svg" xmlns:xlink="http://www.w3.org/1999/xlink" width="22" height="22" viewBox="0 0 22 22" version="1.1">
<defs>
<linearGradient id="linear0" gradientUnits="userSpaceOnUse" x1="31.999998" y1="57.999996" x2="31.999998" y2="8" gradientTransform="matrix(0.34375,0,0,0.34375,-0.000000233858,0.00000000000003908)">
<stop offset="0" style="stop-color:rgb(0%,0%,0%);stop-opacity:0.2;"/>
<stop offset="1" style="stop-color:rgb(100%,100%,100%);stop-opacity:0;"/>
</linearGradient>
</defs>
<g id="surface1">
<path style=" stroke:none;fill-rule:nonzero;fill:rgb(36.078432%,41.960785%,75.294119%);fill-opacity:1;" d="M 2.75 2.742188 L 19.25 2.742188 C 20.007812 2.742188 20.625 3.359375 20.625 4.117188 L 20.625 17.867188 C 20.625 18.628906 20.007812 19.242188 19.25 19.242188 L 2.75 19.242188 C 1.992188 19.242188 1.375 18.628906 1.375 17.867188 L 1.375 4.117188 C 1.375 3.359375 1.992188 2.742188 2.75 2.742188 Z M 2.75 2.742188 "/>
<path style=" stroke:none;fill-rule:nonzero;fill:rgb(25.882354%,64.705884%,96.078432%);fill-opacity:1;" d="M 1.554688 3.4375 L 11 10.992188 L 1.859375 18.914062 C 1.5625 18.664062 1.375 18.289062 1.375 17.867188 L 1.375 4.117188 C 1.375 3.871094 1.441406 3.636719 1.554688 3.4375 Z M 1.554688 3.4375 "/>
<path style=" stroke:none;fill-rule:nonzero;fill:rgb(47.058824%,56.470591%,61.176473%);fill-opacity:1;" d="M 11 10.992188 L 1.808594 18.871094 C 2.054688 19.101562 2.386719 19.242188 2.75 19.242188 L 19.25 19.242188 C 19.613281 19.242188 19.945312 19.101562 20.191406 18.871094 Z M 11 10.992188 "/>
<path style=" stroke:none;fill-rule:nonzero;fill:rgb(92.54902%,25.098041%,47.843137%);fill-opacity:1;" d="M 20.445312 3.4375 L 11 10.992188 L 20.140625 18.914062 C 20.4375 18.664062 20.625 18.289062 20.625 17.867188 L 20.625 4.117188 C 20.625 3.871094 20.558594 3.636719 20.445312 3.4375 Z M 20.445312 3.4375 "/>
<path style=" stroke:none;fill-rule:nonzero;fill:rgb(0.392157%,0.392157%,0.392157%);fill-opacity:0.4;" d="M 1.375 17.53125 L 1.375 17.875 C 1.375 18.636719 1.988281 19.25 2.75 19.25 L 19.25 19.25 C 20.011719 19.25 20.625 18.636719 20.625 17.875 L 20.625 17.53125 C 20.625 18.292969 20.011719 18.90625 19.25 18.90625 L 2.75 18.90625 C 1.988281 18.90625 1.375 18.292969 1.375 17.53125 Z M 1.375 17.53125 "/>
<path style=" stroke:none;fill-rule:nonzero;fill:rgb(87.843138%,87.843138%,87.843138%);fill-opacity:1;" d="M 3.4375 16.5 L 18.5625 16.5 C 18.941406 16.5 19.25 16.808594 19.25 17.1875 L 19.25 19.25 C 19.25 19.628906 18.941406 19.9375 18.5625 19.9375 L 3.4375 19.9375 C 3.058594 19.9375 2.75 19.628906 2.75 19.25 L 2.75 17.1875 C 2.75 16.808594 3.058594 16.5 3.4375 16.5 Z M 3.4375 16.5 "/>
<path style=" stroke:none;fill-rule:nonzero;fill:rgb(45.882353%,45.882353%,45.882353%);fill-opacity:1;" d="M 3.78125 17.1875 L 9.96875 17.1875 C 10.160156 17.1875 10.3125 17.339844 10.3125 17.53125 L 10.3125 18.90625 C 10.3125 19.097656 10.160156 19.25 9.96875 19.25 L 3.78125 19.25 C 3.589844 19.25 3.4375 19.097656 3.4375 18.90625 L 3.4375 17.53125 C 3.4375 17.339844 3.589844 17.1875 3.78125 17.1875 Z M 3.78125 17.1875 "/>
<path style=" stroke:none;fill-rule:nonzero;fill:rgb(0%,0%,0%);fill-opacity:0.4;" d="M 3.78125 17.1875 C 3.589844 17.1875 3.4375 17.339844 3.4375 17.53125 L 3.4375 17.875 C 3.4375 17.683594 3.589844 17.53125 3.78125 17.53125 L 9.96875 17.53125 C 10.160156 17.53125 10.3125 17.683594 10.3125 17.875 L 10.3125 17.53125 C 10.3125 17.339844 10.160156 17.1875 9.96875 17.1875 Z M 3.78125 17.1875 "/>
<path style=" stroke:none;fill-rule:nonzero;fill:rgb(100%,100%,100%);fill-opacity:0.4;" d="M 3.78125 19.59375 C 3.589844 19.59375 3.4375 19.441406 3.4375 19.25 L 3.4375 18.90625 C 3.4375 19.097656 3.589844 19.25 3.78125 19.25 L 9.96875 19.25 C 10.160156 19.25 10.3125 19.097656 10.3125 18.90625 L 10.3125 19.25 C 10.3125 19.441406 10.160156 19.59375 9.96875 19.59375 Z M 3.78125 19.59375 "/>
<path style=" stroke:none;fill-rule:nonzero;fill:rgb(100%,100%,100%);fill-opacity:0.4;" d="M 3.953125 17.53125 L 6.53125 17.53125 C 6.625 17.53125 6.703125 17.609375 6.703125 17.703125 L 6.703125 18.90625 C 6.703125 19 6.625 19.078125 6.53125 19.078125 L 3.953125 19.078125 C 3.859375 19.078125 3.78125 19 3.78125 18.90625 L 3.78125 17.703125 C 3.78125 17.609375 3.859375 17.53125 3.953125 17.53125 Z M 3.953125 17.53125 "/>
<path style=" stroke:none;fill-rule:nonzero;fill:rgb(87.843138%,87.843138%,87.843138%);fill-opacity:1;" d="M 2.75 2.75 C 1.988281 2.75 1.375 3.363281 1.375 4.125 L 20.625 4.125 C 20.625 3.363281 20.011719 2.75 19.25 2.75 Z M 2.75 2.75 "/>
<path style=" stroke:none;fill-rule:nonzero;fill:rgb(0%,0%,0%);fill-opacity:0.4;" d="M 1.375 4.125 L 1.375 4.46875 L 20.625 4.46875 L 20.625 4.125 Z M 2.75 18.90625 L 2.75 19.25 C 2.75 19.632812 3.054688 19.9375 3.4375 19.9375 L 18.5625 19.9375 C 18.945312 19.9375 19.25 19.632812 19.25 19.25 L 19.25 18.90625 C 19.25 19.289062 18.945312 19.59375 18.5625 19.59375 L 3.4375 19.59375 C 3.054688 19.59375 2.75 19.289062 2.75 18.90625 Z M 2.75 18.90625 "/>
<path style=" stroke:none;fill-rule:nonzero;fill:rgb(45.882353%,45.882353%,45.882353%);fill-opacity:1;" d="M 12.03125 17.1875 L 18.21875 17.1875 C 18.410156 17.1875 18.5625 17.339844 18.5625 17.53125 L 18.5625 18.90625 C 18.5625 19.097656 18.410156 19.25 18.21875 19.25 L 12.03125 19.25 C 11.839844 19.25 11.6875 19.097656 11.6875 18.90625 L 11.6875 17.53125 C 11.6875 17.339844 11.839844 17.1875 12.03125 17.1875 Z M 12.03125 17.1875 "/>
<path style=" stroke:none;fill-rule:nonzero;fill:rgb(0%,0%,0%);fill-opacity:0.4;" d="M 12.03125 17.1875 C 11.839844 17.1875 11.6875 17.339844 11.6875 17.53125 L 11.6875 17.875 C 11.6875 17.683594 11.839844 17.53125 12.03125 17.53125 L 18.21875 17.53125 C 18.410156 17.53125 18.5625 17.683594 18.5625 17.875 L 18.5625 17.53125 C 18.5625 17.339844 18.410156 17.1875 18.21875 17.1875 Z M 12.03125 17.1875 "/>
<path style=" stroke:none;fill-rule:nonzero;fill:rgb(100%,100%,100%);fill-opacity:0.4;" d="M 12.03125 19.59375 C 11.839844 19.59375 11.6875 19.441406 11.6875 19.25 L 11.6875 18.90625 C 11.6875 19.097656 11.839844 19.25 12.03125 19.25 L 18.21875 19.25 C 18.410156 19.25 18.5625 19.097656 18.5625 18.90625 L 18.5625 19.25 C 18.5625 19.441406 18.410156 19.59375 18.21875 19.59375 Z M 12.03125 19.59375 "/>
<path style=" stroke:none;fill-rule:nonzero;fill:rgb(100%,100%,100%);fill-opacity:0.4;" d="M 12.203125 17.53125 L 14.78125 17.53125 C 14.875 17.53125 14.953125 17.609375 14.953125 17.703125 L 14.953125 18.90625 C 14.953125 19 14.875 19.078125 14.78125 19.078125 L 12.203125 19.078125 C 12.109375 19.078125 12.03125 19 12.03125 18.90625 L 12.03125 17.703125 C 12.03125 17.609375 12.109375 17.53125 12.203125 17.53125 Z M 12.203125 17.53125 "/>
<path style=" stroke:none;fill-rule:nonzero;fill:rgb(100%,100%,100%);fill-opacity:0.8;" d="M 2.75 2.75 C 1.988281 2.75 1.375 3.363281 1.375 4.125 L 1.417969 4.125 C 1.566406 3.527344 2.105469 3.085938 2.75 3.085938 L 19.25 3.085938 C 19.894531 3.085938 20.433594 3.527344 20.582031 4.125 L 20.625 4.125 C 20.625 3.363281 20.011719 2.75 19.25 2.75 Z M 3.4375 16.5 C 3.054688 16.5 2.75 16.804688 2.75 17.1875 L 2.75 17.523438 C 2.75 17.140625 3.054688 16.835938 3.4375 16.835938 L 18.5625 16.835938 C 18.945312 16.835938 19.25 17.140625 19.25 17.523438 L 19.25 17.1875 C 19.25 16.804688 18.945312 16.5 18.5625 16.5 Z M 3.4375 16.5 "/>
<path style=" stroke:none;fill-rule:nonzero;fill:rgb(0%,0%,0%);fill-opacity:0.2;" d="M 1.375 17.875 L 1.375 18.390625 C 1.375 19.152344 1.988281 19.765625 2.75 19.765625 C 2.75 20.148438 3.054688 20.453125 3.4375 20.453125 L 18.5625 20.453125 C 18.945312 20.453125 19.25 20.148438 19.25 19.765625 C 20.011719 19.765625 20.625 19.152344 20.625 18.390625 L 20.625 17.875 C 20.625 18.636719 20.011719 19.25 19.25 19.25 C 19.25 19.632812 18.945312 19.9375 18.5625 19.9375 L 3.4375 19.9375 C 3.054688 19.9375 2.75 19.632812 2.75 19.25 C 1.988281 19.25 1.375 18.636719 1.375 17.875 Z M 1.375 17.875 "/>
<path style=" stroke:none;fill-rule:nonzero;fill:url(#linear0);" d="M 2.75 2.75 C 1.988281 2.75 1.375 3.363281 1.375 4.125 L 1.375 17.875 C 1.375 18.636719 1.988281 19.25 2.75 19.25 C 2.75 19.632812 3.054688 19.9375 3.4375 19.9375 L 18.5625 19.9375 C 18.945312 19.9375 19.25 19.632812 19.25 19.25 C 20.011719 19.25 20.625 18.636719 20.625 17.875 L 20.625 4.125 C 20.625 3.363281 20.011719 2.75 19.25 2.75 Z M 2.75 2.75 "/>
</g>
</svg>
