
<svg xmlns="http://www.w3.org/2000/svg" xmlns:xlink="http://www.w3.org/1999/xlink" width="64" height="64" viewBox="0 0 64 64" version="1.1">
<defs>
<linearGradient id="linear0" gradientUnits="userSpaceOnUse" x1="10.054166" y1="-209.708328" x2="10.054166" y2="-212.883331" gradientTransform="matrix(3.779528,0,0,3.779528,0,812.598468)">
<stop offset="0" style="stop-color:rgb(0%,0%,0%);stop-opacity:0.2;"/>
<stop offset="1" style="stop-color:rgb(100%,100%,100%);stop-opacity:0;"/>
</linearGradient>
<linearGradient id="linear1" gradientUnits="userSpaceOnUse" x1="8.995832" y1="-200.183334" x2="8.995832" y2="-211.824997" gradientTransform="matrix(3.779528,0,0,3.779528,0,812.598468)">
<stop offset="0" style="stop-color:rgb(0%,0%,0%);stop-opacity:0.2;"/>
<stop offset="1" style="stop-color:rgb(100%,100%,100%);stop-opacity:0;"/>
</linearGradient>
</defs>
<g id="surface1">
<path style=" stroke:none;fill-rule:nonzero;fill:rgb(45.882353%,45.882353%,45.882353%);fill-opacity:1;" d="M 20 8 L 56 8 C 58.210938 8 60 9.789062 60 12 L 60 24 C 60 26.210938 58.210938 28 56 28 L 20 28 C 17.789062 28 16 26.210938 16 24 L 16 12 C 16 9.789062 17.789062 8 20 8 Z M 20 8 "/>
<path style=" stroke:none;fill-rule:nonzero;fill:url(#linear0);" d="M 20 8 L 56 8 C 58.210938 8 60 9.789062 60 12 L 60 24 C 60 26.210938 58.210938 28 56 28 L 20 28 C 17.789062 28 16 26.210938 16 24 L 16 12 C 16 9.789062 17.789062 8 20 8 Z M 20 8 "/>
<path style=" stroke:none;fill-rule:nonzero;fill:rgb(61.960787%,61.960787%,61.960787%);fill-opacity:1;" d="M 8 12 C 5.785156 12 4 13.785156 4 16 L 4 52 C 4 54.214844 5.785156 56 8 56 L 56 56 C 58.214844 56 60 54.214844 60 52 L 60 20 L 20 20 C 17.785156 20 16 18.214844 16 16 L 16 12 Z M 8 12 "/>
<path style=" stroke:none;fill-rule:nonzero;fill:rgb(61.960787%,61.960787%,61.960787%);fill-opacity:1;" d="M 8 12 C 5.785156 12 4 13.785156 4 16 L 4 52 C 4 54.214844 5.785156 56 8 56 L 56 56 C 58.214844 56 60 54.214844 60 52 L 60 20 L 20 20 C 17.785156 20 16 18.214844 16 16 L 16 12 Z M 8 12 "/>
<path style=" stroke:none;fill-rule:nonzero;fill:rgb(0.392157%,0.392157%,0.392157%);fill-opacity:0.4;" d="M 8 55.992188 C 5.785156 55.992188 4 54.207031 4 51.992188 L 4 51.023438 C 4 53.238281 5.785156 55.023438 8 55.023438 L 56 55.023438 C 58.214844 55.023438 60 53.238281 60 51.023438 L 60 51.992188 C 60 54.207031 58.214844 55.992188 56 55.992188 Z M 8 55.992188 "/>
<path style=" stroke:none;fill-rule:nonzero;fill:rgb(0%,0%,0%);fill-opacity:0.2;" d="M 4 52 L 4 53.5 C 4 55.714844 5.785156 57.5 8 57.5 L 56 57.5 C 58.214844 57.5 60 55.714844 60 53.5 L 60 52 C 60 54.214844 58.214844 56 56 56 L 8 56 C 5.785156 56 4 54.214844 4 52 Z M 4 52 "/>
<path style=" stroke:none;fill-rule:nonzero;fill:rgb(100%,100%,100%);fill-opacity:0.4;" d="M 8 12 C 5.785156 12 4 13.785156 4 16 L 4 17 C 4 14.785156 5.785156 13 8 13 L 16 13 L 16 12 Z M 16 16 L 16 17 C 16 19.214844 17.785156 21 20 21 L 60 21 L 60 20 L 20 20 C 17.785156 20 16 18.214844 16 16 Z M 16 16 "/>
<path style=" stroke:none;fill-rule:nonzero;fill:rgb(100%,100%,100%);fill-opacity:0.4;" d="M 20 8 C 17.785156 8 16 9.785156 16 12 L 16 12.5 C 16 10.285156 17.785156 8.5 20 8.5 L 56 8.5 C 58.214844 8.5 60 10.285156 60 12.5 L 60 12 C 60 9.785156 58.214844 8 56 8 Z M 20 8 "/>
<path style=" stroke:none;fill-rule:nonzero;fill:rgb(87.843138%,87.843138%,87.843138%);fill-opacity:1;" d="M 26.734375 26.171875 L 40.253906 34.921875 C 40.621094 35.160156 40.839844 35.5625 40.839844 36 C 40.839844 36.433594 40.621094 36.839844 40.253906 37.078125 L 26.734375 45.824219 C 26.402344 46.039062 25.980469 46.054688 25.632812 45.867188 C 25.285156 45.679688 25.070312 45.316406 25.070312 44.917969 L 25.070312 27.078125 C 25.070312 26.683594 25.285156 26.320312 25.632812 26.132812 C 25.980469 25.941406 26.402344 25.957031 26.734375 26.171875 Z M 26.734375 26.171875 "/>
<path style=" stroke:none;fill-rule:nonzero;fill:rgb(99.215686%,99.215686%,99.215686%);fill-opacity:0.4;" d="M 26.015625 26.003906 C 25.445312 26.042969 25 26.515625 25 27.089844 L 25 27.597656 C 25 27.199219 25.21875 26.832031 25.566406 26.640625 C 25.917969 26.449219 26.34375 26.464844 26.679688 26.683594 L 40.320312 35.511719 C 40.613281 35.699219 40.816406 36 40.886719 36.34375 C 40.988281 35.824219 40.765625 35.289062 40.320312 35 L 26.679688 26.175781 C 26.480469 26.046875 26.25 25.988281 26.015625 26.003906 Z M 26.015625 26.003906 "/>
<path style=" stroke:none;fill-rule:nonzero;fill:rgb(0%,0%,0%);fill-opacity:0.4;" d="M 26.015625 46.5 C 25.445312 46.460938 25 45.988281 25 45.414062 L 25 44.90625 C 25 45.304688 25.21875 45.671875 25.566406 45.863281 C 25.917969 46.054688 26.34375 46.039062 26.679688 45.820312 L 40.320312 36.992188 C 40.613281 36.804688 40.816406 36.503906 40.886719 36.160156 C 40.988281 36.679688 40.765625 37.214844 40.320312 37.5 L 26.679688 46.328125 C 26.480469 46.457031 26.25 46.515625 26.015625 46.5 Z M 26.015625 46.5 "/>
<path style=" stroke:none;fill-rule:nonzero;fill:url(#linear1);" d="M 8 12 C 5.785156 12 4 13.785156 4 16 L 4 52 C 4 54.214844 5.785156 56 8 56 L 56 56 C 58.214844 56 60 54.214844 60 52 L 60 20 L 20 20 C 17.785156 20 16 18.214844 16 16 L 16 12 Z M 8 12 "/>
</g>
</svg>
