
<svg xmlns="http://www.w3.org/2000/svg" xmlns:xlink="http://www.w3.org/1999/xlink" width="64" height="64" viewBox="0 0 64 64" version="1.1">
<defs>
<linearGradient id="linear0" gradientUnits="userSpaceOnUse" x1="31.999998" y1="60" x2="31.999998" y2="3.999999" >
<stop offset="0" style="stop-color:rgb(0%,0%,0%);stop-opacity:0.2;"/>
<stop offset="1" style="stop-color:rgb(100%,100%,100%);stop-opacity:0;"/>
</linearGradient>
</defs>
<g id="surface1">
<path style=" stroke:none;fill-rule:nonzero;fill:rgb(45.882353%,45.882353%,45.882353%);fill-opacity:1;" d="M 38 8 C 36.511719 8 35.222656 8.804688 34.53125 10 L 10 10 C 7.785156 10 6 11.785156 6 14 L 6 20 C 6 22.214844 7.785156 24 10 24 L 54 24 C 56.214844 24 58 22.214844 58 20 L 58 12 C 58 9.785156 56.214844 8 54 8 Z M 38 8 "/>
<path style=" stroke:none;fill-rule:nonzero;fill:rgb(100%,100%,100%);fill-opacity:0.4;" d="M 38 8 C 36.511719 8 35.222656 8.804688 34.53125 10 L 10 10 C 7.785156 10 6 11.785156 6 14 L 6 14.074219 C 6.210938 12.058594 7.90625 10.5 9.976562 10.5 L 34.511719 10.5 C 35.199219 9.304688 36.488281 8.5 37.976562 8.5 L 53.976562 8.5 C 56.191406 8.5 57.976562 10.285156 57.976562 12.5 L 57.976562 20.421875 C 57.992188 20.285156 58 20.144531 58 20 L 58 12 C 58 9.785156 56.214844 8 54 8 Z M 38 8 "/>
<path style=" stroke:none;fill-rule:nonzero;fill:rgb(74.117649%,74.117649%,74.117649%);fill-opacity:1;" d="M 8 12 C 5.785156 12 4 13.785156 4 16 L 4 52 C 4 54.214844 5.785156 56 8 56 L 56 56 C 58.214844 56 60 54.214844 60 52 L 60 20 C 60 17.785156 58.214844 16 56 16 L 38.050781 16 C 38.035156 16 38.015625 16 38 16 C 36.890625 16 36 15.109375 36 14 C 36 12.890625 35.109375 12 34 12 Z M 8 12 "/>
<path style=" stroke:none;fill-rule:nonzero;fill:rgb(100%,100%,100%);fill-opacity:0.4;" d="M 8 12 C 5.785156 12 4 13.785156 4 16 L 4 17 C 4 14.785156 5.785156 13 8 13 L 34 13 C 35.109375 13 36 13.890625 36 15 C 36 16.109375 36.890625 17 38 17 C 38.015625 17 38.035156 17 38.050781 17 L 56 17 C 58.214844 17 60 18.785156 60 21 L 60 20 C 60 17.785156 58.214844 16 56 16 L 38.050781 16 C 38.035156 16 38.015625 16 38 16 C 36.890625 16 36 15.109375 36 14 C 36 12.890625 35.109375 12 34 12 Z M 8 12 "/>
<path style=" stroke:none;fill-rule:nonzero;fill:rgb(0%,0%,0%);fill-opacity:0.4;" d="M 4 51 L 4 52 C 4 54.214844 5.785156 56 8 56 L 56 56 C 58.214844 56 60 54.214844 60 52 L 60 51 C 60 53.214844 58.214844 55 56 55 L 8 55 C 5.785156 55 4 53.214844 4 51 Z M 4 51 "/>
<path style=" stroke:none;fill-rule:nonzero;fill:rgb(0%,0%,0%);fill-opacity:0.2;" d="M 4 52 L 4 53.5 C 4 55.714844 5.785156 57.5 8 57.5 L 56 57.5 C 58.214844 57.5 60 55.714844 60 53.5 L 60 52 C 60 54.214844 58.214844 56 56 56 L 8 56 C 5.785156 56 4 54.214844 4 52 Z M 4 52 "/>
<path style=" stroke:none;fill-rule:nonzero;fill:rgb(87.843138%,87.843138%,87.843138%);fill-opacity:1;" d="M 25.96875 24 C 22.644531 24 19.96875 26.675781 19.96875 30 L 19.96875 41 C 19.96875 42.660156 21.308594 44 22.96875 44 C 25.769531 44 25.953125 38.777344 27.589844 36.453125 C 27.949219 36.792969 28.433594 37 28.96875 37 C 29.710938 37 30.359375 36.597656 30.703125 36 L 33.234375 36 C 33.578125 36.597656 34.226562 37 34.96875 37 C 35.503906 37 35.988281 36.792969 36.34375 36.453125 C 37.984375 38.777344 38.167969 44 40.96875 44 C 42.628906 44 43.96875 42.660156 43.96875 41 L 43.96875 30 C 43.96875 26.675781 41.292969 24 37.96875 24 Z M 24.941406 26 C 24.953125 26 24.960938 26 24.96875 26 L 25.96875 26 C 26.246094 26 26.46875 26.222656 26.46875 26.5 L 26.46875 28.5 L 28.46875 28.5 C 28.746094 28.5 28.96875 28.722656 28.96875 29 L 28.96875 30 C 28.96875 30.277344 28.746094 30.5 28.46875 30.5 L 26.46875 30.5 L 26.46875 32.5 C 26.46875 32.777344 26.246094 33 25.96875 33 L 24.96875 33 C 24.691406 33 24.46875 32.777344 24.46875 32.5 L 24.46875 30.5 L 22.46875 30.5 C 22.191406 30.5 21.96875 30.277344 21.96875 30 L 21.96875 29 C 21.96875 28.722656 22.191406 28.5 22.46875 28.5 L 24.46875 28.5 L 24.46875 26.5 C 24.46875 26.230469 24.679688 26.015625 24.941406 26 Z M 34.941406 26 C 34.953125 26 34.960938 26 34.96875 26 C 35.523438 26 35.96875 26.445312 35.96875 27 C 35.96875 27.554688 35.523438 28 34.96875 28 C 34.414062 28 33.96875 27.554688 33.96875 27 C 33.96875 26.453125 34.402344 26.011719 34.941406 26 Z M 38.941406 26 C 38.953125 26 38.960938 26 38.96875 26 C 39.523438 26 39.96875 26.445312 39.96875 27 C 39.96875 27.554688 39.523438 28 38.96875 28 C 38.414062 28 37.96875 27.554688 37.96875 27 C 37.96875 26.453125 38.402344 26.011719 38.941406 26 Z M 36.96875 30 C 36.976562 30 36.984375 30 36.992188 30 C 37.546875 30 37.992188 30.445312 37.992188 31 C 37.992188 31.554688 37.546875 32 36.992188 32 C 36.441406 32 35.992188 31.554688 35.992188 31 C 35.992188 30.453125 36.425781 30.015625 36.96875 30 Z M 40.96875 30 C 40.976562 30 40.984375 30 40.992188 30 C 41.546875 30 41.992188 30.445312 41.992188 31 C 41.992188 31.554688 41.546875 32 40.992188 32 C 40.441406 32 39.992188 31.554688 39.992188 31 C 39.992188 30.453125 40.425781 30.015625 40.96875 30 Z M 40.96875 30 "/>
<path style=" stroke:none;fill-rule:nonzero;fill:rgb(100%,100%,100%);fill-opacity:0.4;" d="M 25.96875 24 C 22.644531 24 19.96875 26.675781 19.96875 30 L 19.96875 30.5 C 19.96875 27.175781 22.644531 24.5 25.96875 24.5 L 37.96875 24.5 C 41.292969 24.5 43.96875 27.175781 43.96875 30.5 L 43.96875 30 C 43.96875 26.675781 41.292969 24 37.96875 24 Z M 34 27.246094 C 33.980469 27.328125 33.96875 27.410156 33.96875 27.5 C 33.96875 28.054688 34.414062 28.5 34.96875 28.5 C 35.523438 28.5 35.96875 28.054688 35.96875 27.5 C 35.96875 27.410156 35.957031 27.328125 35.933594 27.246094 C 35.824219 27.679688 35.4375 28 34.96875 28 C 34.5 28 34.113281 27.679688 34 27.246094 Z M 38 27.246094 C 37.980469 27.328125 37.96875 27.410156 37.96875 27.5 C 37.96875 28.054688 38.414062 28.5 38.96875 28.5 C 39.523438 28.5 39.96875 28.054688 39.96875 27.5 C 39.96875 27.410156 39.957031 27.328125 39.933594 27.246094 C 39.824219 27.679688 39.4375 28 38.96875 28 C 38.5 28 38.113281 27.679688 38 27.246094 Z M 21.96875 30 L 21.96875 30.5 C 21.96875 30.777344 22.191406 31 22.46875 31 L 24.46875 31 L 24.46875 30.5 L 22.46875 30.5 C 22.191406 30.5 21.96875 30.277344 21.96875 30 Z M 28.96875 30 C 28.96875 30.277344 28.746094 30.5 28.46875 30.5 L 26.46875 30.5 L 26.46875 31 L 28.46875 31 C 28.746094 31 28.96875 30.777344 28.96875 30.5 Z M 36.027344 31.246094 C 36.007812 31.328125 35.996094 31.410156 35.996094 31.5 C 35.996094 32.054688 36.441406 32.5 36.996094 32.5 C 37.546875 32.5 37.996094 32.054688 37.996094 31.5 C 37.996094 31.410156 37.980469 31.328125 37.960938 31.246094 C 37.851562 31.679688 37.460938 32 36.992188 32 C 36.527344 32 36.136719 31.679688 36.027344 31.246094 Z M 40.027344 31.246094 C 40.007812 31.328125 39.992188 31.410156 39.992188 31.5 C 39.992188 32.054688 40.441406 32.5 40.992188 32.5 C 41.546875 32.5 41.992188 32.054688 41.992188 31.5 C 41.992188 31.410156 41.980469 31.328125 41.960938 31.246094 C 41.851562 31.679688 41.460938 32 40.992188 32 C 40.527344 32 40.136719 31.679688 40.027344 31.246094 Z M 24.46875 32.5 L 24.46875 33 C 24.46875 33.277344 24.691406 33.5 24.96875 33.5 L 25.96875 33.5 C 26.246094 33.5 26.46875 33.277344 26.46875 33 L 26.46875 32.5 C 26.46875 32.777344 26.246094 33 25.96875 33 L 24.96875 33 C 24.691406 33 24.46875 32.777344 24.46875 32.5 Z M 24.46875 32.5 "/>
<path style=" stroke:none;fill-rule:nonzero;fill:rgb(0.392157%,0.392157%,0.392157%);fill-opacity:0.4;" d="M 24.941406 26 C 24.679688 26.015625 24.46875 26.230469 24.46875 26.5 L 24.46875 27 C 24.46875 26.730469 24.679688 26.515625 24.941406 26.5 C 24.953125 26.5 24.960938 26.5 24.96875 26.5 L 25.96875 26.5 C 26.246094 26.5 26.46875 26.722656 26.46875 27 L 26.46875 26.5 C 26.46875 26.222656 26.246094 26 25.96875 26 L 24.96875 26 C 24.960938 26 24.953125 26 24.941406 26 Z M 34.941406 26 C 34.402344 26.015625 33.96875 26.453125 33.96875 27 C 33.96875 27.085938 33.980469 27.171875 34 27.25 C 34.109375 26.824219 34.488281 26.511719 34.941406 26.5 C 34.953125 26.5 34.960938 26.5 34.96875 26.5 C 35.4375 26.5 35.828125 26.816406 35.9375 27.25 C 35.957031 27.167969 35.96875 27.085938 35.96875 27 C 35.96875 26.445312 35.523438 26 34.96875 26 C 34.960938 26 34.953125 26 34.945312 26 Z M 38.941406 26 C 38.402344 26.015625 37.96875 26.453125 37.96875 27 C 37.96875 27.085938 37.980469 27.171875 38 27.25 C 38.109375 26.824219 38.488281 26.511719 38.945312 26.5 C 38.953125 26.5 38.960938 26.5 38.96875 26.5 C 39.4375 26.5 39.828125 26.816406 39.9375 27.25 C 39.957031 27.167969 39.96875 27.085938 39.96875 27 C 39.96875 26.445312 39.523438 26 38.96875 26 C 38.960938 26 38.953125 26 38.945312 26 Z M 22.46875 28.5 C 22.191406 28.5 21.96875 28.722656 21.96875 29 L 21.96875 29.5 C 21.96875 29.222656 22.191406 29 22.46875 29 L 24.46875 29 L 24.46875 28.5 Z M 26.46875 28.5 L 26.46875 29 L 28.46875 29 C 28.746094 29 28.96875 29.222656 28.96875 29.5 L 28.96875 29 C 28.96875 28.722656 28.746094 28.5 28.46875 28.5 Z M 36.96875 30 C 36.425781 30.015625 35.992188 30.453125 35.992188 31 C 35.992188 31.085938 36.007812 31.171875 36.027344 31.25 C 36.136719 30.828125 36.511719 30.511719 36.96875 30.5 C 36.976562 30.5 36.984375 30.5 36.992188 30.5 C 37.460938 30.5 37.851562 30.816406 37.960938 31.25 C 37.980469 31.167969 37.996094 31.085938 37.996094 31 C 37.996094 30.445312 37.546875 30 36.996094 30 C 36.984375 30 36.976562 30 36.96875 30 Z M 40.96875 30 C 40.425781 30.015625 39.992188 30.453125 39.992188 31 C 39.992188 31.085938 40.007812 31.171875 40.027344 31.25 C 40.136719 30.828125 40.511719 30.511719 40.96875 30.5 C 40.976562 30.5 40.984375 30.5 40.992188 30.5 C 41.460938 30.5 41.851562 30.816406 41.960938 31.25 C 41.980469 31.167969 41.996094 31.085938 41.996094 31 C 41.996094 30.445312 41.546875 30 40.996094 30 C 40.984375 30 40.976562 30 40.96875 30 Z M 30.703125 36 C 30.359375 36.597656 29.710938 37 28.96875 37 C 28.433594 37 27.949219 36.792969 27.589844 36.453125 C 25.953125 38.777344 25.769531 44 22.96875 44 C 21.308594 44 19.96875 42.660156 19.96875 41 L 19.96875 41.5 C 19.96875 43.164062 21.308594 44.5 22.96875 44.5 C 25.769531 44.5 25.953125 39.277344 27.589844 36.953125 C 27.949219 37.292969 28.433594 37.5 28.96875 37.5 C 29.710938 37.5 30.359375 37.097656 30.703125 36.5 L 33.234375 36.5 C 33.578125 37.097656 34.226562 37.5 34.96875 37.5 C 35.503906 37.5 35.988281 37.292969 36.34375 36.953125 C 37.984375 39.277344 38.167969 44.5 40.96875 44.5 C 42.628906 44.5 43.96875 43.164062 43.96875 41.5 L 43.96875 41 C 43.96875 42.660156 42.628906 44 40.96875 44 C 38.167969 44 37.984375 38.777344 36.34375 36.453125 C 35.988281 36.792969 35.503906 37 34.96875 37 C 34.226562 37 33.578125 36.597656 33.234375 36 Z M 30.703125 36 "/>
<path style=" stroke:none;fill-rule:nonzero;fill:url(#linear0);" d="M 38 8 C 36.511719 8 35.222656 8.804688 34.53125 10 L 10 10 C 8.371094 10 6.976562 10.960938 6.351562 12.351562 C 4.960938 12.976562 4 14.371094 4 16 L 4 52 C 4 54.214844 5.785156 56 8 56 L 56 56 C 58.214844 56 60 54.214844 60 52 L 60 20 C 60 18.515625 59.195312 17.226562 58 16.535156 L 58 12 C 58 9.785156 56.214844 8 54 8 Z M 38 8 "/>
</g>
</svg>
