
<svg xmlns="http://www.w3.org/2000/svg" xmlns:xlink="http://www.w3.org/1999/xlink" width="22" height="22" viewBox="0 0 22 22" version="1.1">
<defs>
<radialGradient id="radial0" gradientUnits="userSpaceOnUse" cx="32" cy="32" fx="32" fy="32" r="20" gradientTransform="matrix(0.4125,0,0,0.309375,-2.199999,1.100004)">
<stop offset="0" style="stop-color:rgb(100%,65.490198%,14.901961%);stop-opacity:0.4;"/>
<stop offset="1" style="stop-color:rgb(61.176473%,80.000001%,39.607844%);stop-opacity:0;"/>
</radialGradient>
<linearGradient id="linear0" gradientUnits="userSpaceOnUse" x1="9.657291" y1="-204.416672" x2="9.657291" y2="-208.649994" gradientTransform="matrix(1.299213,0,0,1.299213,-4.984376,276.887545)">
<stop offset="0" style="stop-color:rgb(0%,0%,0%);stop-opacity:0.2;"/>
<stop offset="1" style="stop-color:rgb(100%,100%,100%);stop-opacity:0;"/>
</linearGradient>
<linearGradient id="linear1" gradientUnits="userSpaceOnUse" x1="2.645833" y1="-211.03125" x2="14.287498" y2="-211.03125" gradientTransform="matrix(1.535433,0,0,0.649614,-2,142.07314)">
<stop offset="0" style="stop-color:rgb(100%,100%,100%);stop-opacity:0;"/>
<stop offset="0.498862" style="stop-color:rgb(100%,100%,100%);stop-opacity:0.2;"/>
<stop offset="1" style="stop-color:rgb(95.686275%,26.274511%,21.176471%);stop-opacity:0;"/>
</linearGradient>
<linearGradient id="linear2" gradientUnits="userSpaceOnUse" x1="8.466666" y1="-200.183334" x2="8.466666" y2="-212.883331" gradientTransform="matrix(1.299213,0,0,1.299213,-1.375002,279.330723)">
<stop offset="0" style="stop-color:rgb(0%,0%,0%);stop-opacity:0.2;"/>
<stop offset="1" style="stop-color:rgb(100%,100%,100%);stop-opacity:0;"/>
</linearGradient>
</defs>
<g id="surface1">
<path style=" stroke:none;fill-rule:nonzero;fill:rgb(38.039216%,38.039216%,38.039216%);fill-opacity:1;" d="M 2.75 2.75 L 19.25 2.75 C 20.007812 2.75 20.625 3.367188 20.625 4.125 L 20.625 17.875 C 20.625 18.632812 20.007812 19.25 19.25 19.25 L 2.75 19.25 C 1.992188 19.25 1.375 18.632812 1.375 17.875 L 1.375 4.125 C 1.375 3.367188 1.992188 2.75 2.75 2.75 Z M 2.75 2.75 "/>
<path style=" stroke:none;fill-rule:nonzero;fill:rgb(49.411765%,34.117648%,76.078433%);fill-opacity:0.992157;" d="M 2.75 2.75 C 1.988281 2.75 1.375 3.363281 1.375 4.125 L 1.375 17.875 C 1.375 18.273438 1.542969 18.625 1.808594 18.878906 L 20.191406 3.121094 C 19.945312 2.890625 19.613281 2.75 19.25 2.75 Z M 2.75 2.75 "/>
<path style=" stroke:none;fill-rule:nonzero;fill:url(#radial0);" d="M 17.417969 5.5 L 16.613281 6.1875 L 17.875 6.1875 L 17.875 5.5 Z M 16.5 6.285156 L 15.8125 6.875 L 15.8125 8.9375 L 13.40625 8.9375 L 12.375 9.820312 L 12.375 12.375 L 9.625 12.375 L 9.625 12.179688 L 8.59375 13.0625 L 8.9375 13.0625 L 8.9375 15.8125 L 6.1875 15.8125 L 6.1875 15.125 L 5.5 15.714844 L 5.5 15.8125 L 5.386719 15.8125 L 4.582031 16.5 L 5.5 16.5 L 5.5 17.875 L 6.1875 17.875 L 6.1875 16.5 L 8.9375 16.5 L 8.9375 17.875 L 9.625 17.875 L 9.625 16.5 L 12.375 16.5 L 12.375 17.875 L 13.0625 17.875 L 13.0625 16.5 L 15.8125 16.5 L 15.8125 17.875 L 16.5 17.875 L 16.5 16.5 L 17.875 16.5 L 17.875 15.8125 L 16.5 15.8125 L 16.5 13.0625 L 17.875 13.0625 L 17.875 12.375 L 16.5 12.375 L 16.5 9.625 L 17.875 9.625 L 17.875 8.9375 L 16.5 8.9375 Z M 13.0625 9.625 L 15.8125 9.625 L 15.8125 12.375 L 13.0625 12.375 Z M 9.625 13.0625 L 12.375 13.0625 L 12.375 15.8125 L 9.625 15.8125 Z M 13.0625 13.0625 L 15.8125 13.0625 L 15.8125 15.8125 L 13.0625 15.8125 Z M 13.0625 13.0625 "/>
<path style=" stroke:none;fill-rule:nonzero;fill:rgb(87.843138%,87.843138%,87.843138%);fill-opacity:1;" d="M 4.984375 5.808594 C 4.890625 5.808594 4.8125 5.882812 4.8125 5.980469 L 4.8125 6.523438 C 4.105469 6.648438 3.652344 7.144531 3.652344 7.695312 C 3.652344 8.246094 4.105469 8.746094 4.8125 8.867188 L 4.8125 9.871094 C 4.539062 9.769531 4.410156 9.570312 4.410156 9.570312 C 4.359375 9.492188 4.28125 9.441406 4.191406 9.421875 C 4.101562 9.40625 4.011719 9.421875 3.933594 9.472656 C 3.859375 9.523438 3.804688 9.601562 3.789062 9.691406 C 3.769531 9.78125 3.789062 9.875 3.835938 9.949219 C 3.835938 9.949219 4.175781 10.4375 4.8125 10.578125 L 4.8125 11.136719 C 4.8125 11.230469 4.890625 11.308594 4.984375 11.308594 L 5.328125 11.308594 C 5.421875 11.308594 5.5 11.230469 5.5 11.136719 L 5.5 10.589844 C 6.207031 10.464844 6.660156 9.96875 6.660156 9.417969 C 6.660156 8.867188 6.207031 8.367188 5.5 8.242188 L 5.5 7.242188 C 5.773438 7.34375 5.902344 7.542969 5.902344 7.542969 C 6.007812 7.703125 6.21875 7.742188 6.378906 7.636719 C 6.535156 7.535156 6.578125 7.320312 6.472656 7.164062 C 6.472656 7.164062 6.136719 6.675781 5.5 6.535156 L 5.5 5.980469 C 5.5 5.882812 5.421875 5.808594 5.328125 5.808594 Z M 4.8125 7.21875 L 4.8125 8.175781 C 4.449219 8.089844 4.339844 7.871094 4.339844 7.695312 C 4.339844 7.519531 4.449219 7.304688 4.8125 7.21875 Z M 5.5 8.9375 C 5.863281 9.023438 5.972656 9.242188 5.972656 9.417969 C 5.972656 9.59375 5.863281 9.8125 5.5 9.894531 Z M 7.046875 10.621094 C 6.953125 10.621094 6.875 10.695312 6.875 10.792969 L 6.875 11.136719 C 6.875 11.230469 6.953125 11.308594 7.046875 11.308594 L 8.765625 11.308594 C 8.859375 11.308594 8.9375 11.230469 8.9375 11.136719 L 8.9375 10.792969 C 8.9375 10.695312 8.859375 10.621094 8.765625 10.621094 Z M 7.046875 10.621094 "/>
<path style=" stroke:none;fill-rule:nonzero;fill:url(#linear0);" d="M 4.984375 5.808594 C 4.890625 5.808594 4.8125 5.882812 4.8125 5.980469 L 4.8125 6.523438 C 4.105469 6.648438 3.652344 7.144531 3.652344 7.695312 C 3.652344 8.246094 4.105469 8.746094 4.8125 8.867188 L 4.8125 9.871094 C 4.539062 9.769531 4.410156 9.570312 4.410156 9.570312 C 4.359375 9.492188 4.28125 9.441406 4.191406 9.421875 C 4.101562 9.40625 4.011719 9.421875 3.933594 9.472656 C 3.859375 9.523438 3.804688 9.601562 3.789062 9.691406 C 3.769531 9.78125 3.789062 9.875 3.835938 9.949219 C 3.835938 9.949219 4.175781 10.4375 4.8125 10.578125 L 4.8125 11.136719 C 4.8125 11.230469 4.890625 11.308594 4.984375 11.308594 L 5.328125 11.308594 C 5.421875 11.308594 5.5 11.230469 5.5 11.136719 L 5.5 10.589844 C 6.207031 10.464844 6.660156 9.96875 6.660156 9.417969 C 6.660156 8.867188 6.207031 8.367188 5.5 8.242188 L 5.5 7.242188 C 5.773438 7.34375 5.902344 7.542969 5.902344 7.542969 C 6.007812 7.703125 6.21875 7.742188 6.378906 7.636719 C 6.535156 7.535156 6.578125 7.320312 6.472656 7.164062 C 6.472656 7.164062 6.136719 6.675781 5.5 6.535156 L 5.5 5.980469 C 5.5 5.882812 5.421875 5.808594 5.328125 5.808594 Z M 4.8125 7.21875 L 4.8125 8.175781 C 4.449219 8.089844 4.339844 7.871094 4.339844 7.695312 C 4.339844 7.519531 4.449219 7.304688 4.8125 7.21875 Z M 5.5 8.9375 C 5.863281 9.023438 5.972656 9.242188 5.972656 9.417969 C 5.972656 9.59375 5.863281 9.8125 5.5 9.894531 Z M 7.046875 10.621094 C 6.953125 10.621094 6.875 10.695312 6.875 10.792969 L 6.875 11.136719 C 6.875 11.230469 6.953125 11.308594 7.046875 11.308594 L 8.765625 11.308594 C 8.859375 11.308594 8.9375 11.230469 8.9375 11.136719 L 8.9375 10.792969 C 8.9375 10.695312 8.859375 10.621094 8.765625 10.621094 Z M 7.046875 10.621094 "/>
<path style=" stroke:none;fill-rule:nonzero;fill:rgb(0%,0%,0%);fill-opacity:0.4;" d="M 4.8125 7.21875 C 4.449219 7.304688 4.339844 7.519531 4.339844 7.695312 C 4.339844 7.722656 4.347656 7.753906 4.355469 7.78125 C 4.386719 7.628906 4.507812 7.460938 4.8125 7.390625 Z M 5.5 7.242188 L 5.5 7.414062 C 5.773438 7.515625 5.902344 7.714844 5.902344 7.714844 C 6.007812 7.875 6.21875 7.914062 6.378906 7.808594 C 6.5 7.730469 6.554688 7.578125 6.519531 7.4375 C 6.5 7.519531 6.449219 7.589844 6.378906 7.636719 C 6.21875 7.742188 6.007812 7.703125 5.902344 7.542969 C 5.902344 7.542969 5.773438 7.34375 5.5 7.242188 Z M 3.660156 7.78125 C 3.660156 7.8125 3.652344 7.839844 3.652344 7.867188 C 3.652344 8.417969 4.105469 8.917969 4.8125 9.039062 L 4.8125 8.867188 C 4.144531 8.75 3.707031 8.296875 3.660156 7.78125 Z M 5.5 8.9375 L 5.5 9.109375 C 5.804688 9.179688 5.925781 9.347656 5.957031 9.503906 C 5.964844 9.472656 5.972656 9.445312 5.972656 9.417969 C 5.972656 9.242188 5.863281 9.023438 5.5 8.9375 Z M 6.652344 9.503906 C 6.605469 10.019531 6.167969 10.472656 5.5 10.589844 L 5.5 10.761719 C 6.207031 10.636719 6.660156 10.140625 6.660156 9.589844 C 6.660156 9.558594 6.652344 9.53125 6.652344 9.503906 Z M 3.792969 9.847656 C 3.765625 9.941406 3.785156 10.039062 3.835938 10.121094 C 3.835938 10.121094 4.175781 10.609375 4.8125 10.75 L 4.8125 10.578125 C 4.175781 10.4375 3.835938 9.949219 3.835938 9.949219 C 3.816406 9.917969 3.800781 9.882812 3.792969 9.847656 Z M 4.8125 11.136719 L 4.8125 11.308594 C 4.8125 11.402344 4.890625 11.480469 4.984375 11.480469 L 5.328125 11.480469 C 5.421875 11.480469 5.5 11.402344 5.5 11.308594 L 5.5 11.136719 C 5.5 11.230469 5.421875 11.308594 5.328125 11.308594 L 4.984375 11.308594 C 4.890625 11.308594 4.8125 11.230469 4.8125 11.136719 Z M 6.875 11.136719 L 6.875 11.308594 C 6.875 11.402344 6.953125 11.480469 7.046875 11.480469 L 8.765625 11.480469 C 8.859375 11.480469 8.9375 11.402344 8.9375 11.308594 L 8.9375 11.136719 C 8.9375 11.230469 8.859375 11.308594 8.765625 11.308594 L 7.046875 11.308594 C 6.953125 11.308594 6.875 11.230469 6.875 11.136719 Z M 6.875 11.136719 "/>
<path style=" stroke:none;fill-rule:nonzero;fill:rgb(99.607843%,99.607843%,99.607843%);fill-opacity:0.4;" d="M 4.984375 5.808594 C 4.890625 5.808594 4.8125 5.882812 4.8125 5.980469 L 4.8125 6.152344 C 4.8125 6.054688 4.890625 5.980469 4.984375 5.980469 L 5.328125 5.980469 C 5.421875 5.980469 5.5 6.054688 5.5 6.152344 L 5.5 5.980469 C 5.5 5.882812 5.421875 5.808594 5.328125 5.808594 Z M 4.8125 6.523438 C 4.105469 6.648438 3.652344 7.144531 3.652344 7.695312 C 3.652344 7.726562 3.660156 7.753906 3.660156 7.78125 C 3.707031 7.265625 4.144531 6.816406 4.8125 6.695312 Z M 5.5 6.535156 L 5.5 6.707031 C 6.136719 6.847656 6.472656 7.335938 6.472656 7.335938 C 6.496094 7.367188 6.511719 7.402344 6.519531 7.4375 C 6.542969 7.34375 6.527344 7.246094 6.472656 7.164062 C 6.472656 7.164062 6.136719 6.675781 5.5 6.535156 Z M 4.355469 7.78125 C 4.347656 7.8125 4.339844 7.839844 4.339844 7.867188 C 4.339844 8.042969 4.449219 8.261719 4.8125 8.34375 L 4.8125 8.171875 C 4.507812 8.101562 4.386719 7.9375 4.355469 7.78125 Z M 5.5 8.242188 L 5.5 8.414062 C 6.167969 8.53125 6.605469 8.988281 6.652344 9.503906 C 6.652344 9.472656 6.660156 9.445312 6.660156 9.417969 C 6.660156 8.867188 6.207031 8.367188 5.5 8.242188 Z M 4.117188 9.414062 C 4.050781 9.417969 3.988281 9.4375 3.933594 9.472656 C 3.8125 9.554688 3.753906 9.703125 3.792969 9.84375 C 3.8125 9.761719 3.863281 9.691406 3.933594 9.644531 C 4.011719 9.59375 4.101562 9.578125 4.191406 9.59375 C 4.28125 9.613281 4.359375 9.664062 4.410156 9.742188 C 4.410156 9.742188 4.539062 9.941406 4.8125 10.042969 L 4.8125 9.871094 C 4.539062 9.769531 4.410156 9.570312 4.410156 9.570312 C 4.347656 9.472656 4.234375 9.414062 4.117188 9.414062 Z M 5.957031 9.503906 C 5.925781 9.660156 5.804688 9.824219 5.5 9.894531 L 5.5 10.066406 C 5.863281 9.980469 5.972656 9.765625 5.972656 9.589844 C 5.972656 9.5625 5.964844 9.53125 5.957031 9.503906 Z M 7.046875 10.617188 C 6.953125 10.617188 6.875 10.695312 6.875 10.789062 L 6.875 10.960938 C 6.875 10.867188 6.953125 10.789062 7.046875 10.789062 L 8.765625 10.789062 C 8.859375 10.789062 8.9375 10.867188 8.9375 10.960938 L 8.9375 10.789062 C 8.9375 10.695312 8.859375 10.617188 8.765625 10.617188 Z M 7.046875 10.617188 "/>
<path style=" stroke:none;fill-rule:nonzero;fill:rgb(0%,0%,0%);fill-opacity:0.4;" d="M 2.40625 3.4375 C 2.597656 3.4375 2.75 3.589844 2.75 3.78125 C 2.75 3.972656 2.597656 4.125 2.40625 4.125 C 2.214844 4.125 2.0625 3.972656 2.0625 3.78125 C 2.0625 3.589844 2.214844 3.4375 2.40625 3.4375 Z M 2.40625 3.4375 "/>
<path style=" stroke:none;fill-rule:nonzero;fill:rgb(0%,0%,0%);fill-opacity:0.4;" d="M 2.40625 3.4375 C 2.214844 3.4375 2.0625 3.589844 2.0625 3.78125 C 2.0625 3.8125 2.074219 3.839844 2.078125 3.867188 C 2.117188 3.71875 2.246094 3.609375 2.40625 3.609375 C 2.566406 3.609375 2.695312 3.71875 2.734375 3.867188 C 2.738281 3.839844 2.75 3.8125 2.75 3.78125 C 2.75 3.589844 2.597656 3.4375 2.40625 3.4375 Z M 2.40625 3.4375 "/>
<path style=" stroke:none;fill-rule:nonzero;fill:rgb(100%,100%,100%);fill-opacity:0.4;" d="M 2.40625 4.296875 C 2.214844 4.296875 2.0625 4.144531 2.0625 3.953125 C 2.0625 3.921875 2.074219 3.894531 2.078125 3.867188 C 2.117188 4.015625 2.246094 4.125 2.40625 4.125 C 2.566406 4.125 2.695312 4.015625 2.734375 3.867188 C 2.738281 3.894531 2.75 3.921875 2.75 3.953125 C 2.75 4.144531 2.597656 4.296875 2.40625 4.296875 Z M 2.40625 4.296875 "/>
<path style=" stroke:none;fill-rule:nonzero;fill:rgb(0%,0%,0%);fill-opacity:0.4;" d="M 19.609375 3.4375 C 19.800781 3.4375 19.953125 3.589844 19.953125 3.78125 C 19.953125 3.972656 19.800781 4.125 19.609375 4.125 C 19.421875 4.125 19.265625 3.972656 19.265625 3.78125 C 19.265625 3.589844 19.421875 3.4375 19.609375 3.4375 Z M 19.609375 3.4375 "/>
<path style=" stroke:none;fill-rule:nonzero;fill:rgb(0%,0%,0%);fill-opacity:0.4;" d="M 19.609375 3.4375 C 19.421875 3.4375 19.265625 3.589844 19.265625 3.78125 C 19.265625 3.8125 19.277344 3.839844 19.285156 3.867188 C 19.324219 3.71875 19.453125 3.609375 19.609375 3.609375 C 19.769531 3.609375 19.898438 3.71875 19.9375 3.867188 C 19.945312 3.839844 19.953125 3.8125 19.953125 3.78125 C 19.953125 3.589844 19.800781 3.4375 19.609375 3.4375 Z M 19.609375 3.4375 "/>
<path style=" stroke:none;fill-rule:nonzero;fill:rgb(100%,100%,100%);fill-opacity:0.4;" d="M 19.609375 4.296875 C 19.421875 4.296875 19.265625 4.144531 19.265625 3.953125 C 19.265625 3.921875 19.277344 3.894531 19.285156 3.867188 C 19.324219 4.015625 19.453125 4.125 19.609375 4.125 C 19.769531 4.125 19.898438 4.015625 19.9375 3.867188 C 19.945312 3.894531 19.953125 3.921875 19.953125 3.953125 C 19.953125 4.144531 19.800781 4.296875 19.609375 4.296875 Z M 19.609375 4.296875 "/>
<path style=" stroke:none;fill-rule:nonzero;fill:rgb(0%,0%,0%);fill-opacity:0.4;" d="M 2.40625 17.703125 C 2.597656 17.703125 2.75 17.855469 2.75 18.046875 C 2.75 18.238281 2.597656 18.390625 2.40625 18.390625 C 2.214844 18.390625 2.0625 18.238281 2.0625 18.046875 C 2.0625 17.855469 2.214844 17.703125 2.40625 17.703125 Z M 2.40625 17.703125 "/>
<path style=" stroke:none;fill-rule:nonzero;fill:rgb(0%,0%,0%);fill-opacity:0.4;" d="M 2.40625 17.703125 C 2.214844 17.703125 2.0625 17.855469 2.0625 18.046875 C 2.0625 18.078125 2.074219 18.105469 2.078125 18.132812 C 2.117188 17.984375 2.246094 17.875 2.40625 17.875 C 2.566406 17.875 2.695312 17.984375 2.734375 18.132812 C 2.738281 18.105469 2.75 18.078125 2.75 18.046875 C 2.75 17.855469 2.597656 17.703125 2.40625 17.703125 Z M 2.40625 17.703125 "/>
<path style=" stroke:none;fill-rule:nonzero;fill:rgb(100%,100%,100%);fill-opacity:0.4;" d="M 2.40625 18.5625 C 2.214844 18.5625 2.0625 18.410156 2.0625 18.21875 C 2.0625 18.1875 2.074219 18.160156 2.078125 18.132812 C 2.117188 18.28125 2.246094 18.390625 2.40625 18.390625 C 2.566406 18.390625 2.695312 18.28125 2.734375 18.132812 C 2.738281 18.160156 2.75 18.1875 2.75 18.21875 C 2.75 18.410156 2.597656 18.5625 2.40625 18.5625 Z M 2.40625 18.5625 "/>
<path style=" stroke:none;fill-rule:nonzero;fill:rgb(0%,0%,0%);fill-opacity:0.4;" d="M 19.609375 17.703125 C 19.800781 17.703125 19.953125 17.855469 19.953125 18.046875 C 19.953125 18.238281 19.800781 18.390625 19.609375 18.390625 C 19.421875 18.390625 19.265625 18.238281 19.265625 18.046875 C 19.265625 17.855469 19.421875 17.703125 19.609375 17.703125 Z M 19.609375 17.703125 "/>
<path style=" stroke:none;fill-rule:nonzero;fill:rgb(0%,0%,0%);fill-opacity:0.4;" d="M 19.609375 17.703125 C 19.421875 17.703125 19.265625 17.855469 19.265625 18.046875 C 19.265625 18.078125 19.277344 18.105469 19.285156 18.132812 C 19.324219 17.984375 19.453125 17.875 19.609375 17.875 C 19.769531 17.875 19.898438 17.984375 19.9375 18.132812 C 19.945312 18.105469 19.953125 18.078125 19.953125 18.046875 C 19.953125 17.855469 19.800781 17.703125 19.609375 17.703125 Z M 19.609375 17.703125 "/>
<path style=" stroke:none;fill-rule:nonzero;fill:rgb(100%,100%,100%);fill-opacity:0.4;" d="M 19.609375 18.5625 C 19.421875 18.5625 19.265625 18.410156 19.265625 18.21875 C 19.265625 18.1875 19.277344 18.160156 19.285156 18.132812 C 19.324219 18.28125 19.453125 18.390625 19.609375 18.390625 C 19.769531 18.390625 19.898438 18.28125 19.9375 18.132812 C 19.945312 18.160156 19.953125 18.1875 19.953125 18.21875 C 19.953125 18.410156 19.800781 18.5625 19.609375 18.5625 Z M 19.609375 18.5625 "/>
<path style=" stroke:none;fill-rule:nonzero;fill:rgb(100%,100%,100%);fill-opacity:0.4;" d="M 2.75 2.75 C 1.988281 2.75 1.375 3.363281 1.375 4.125 L 1.375 4.457031 C 1.375 3.695312 1.988281 3.082031 2.75 3.082031 L 19.25 3.082031 C 20.011719 3.082031 20.625 3.695312 20.625 4.457031 L 20.625 4.125 C 20.625 3.363281 20.011719 2.75 19.25 2.75 Z M 2.75 2.75 "/>
<path style=" stroke:none;fill-rule:nonzero;fill:rgb(0.392157%,0.392157%,0.392157%);fill-opacity:0.4;" d="M 2.75 19.246094 C 1.988281 19.246094 1.375 18.632812 1.375 17.871094 L 1.375 17.539062 C 1.375 18.300781 1.988281 18.914062 2.75 18.914062 L 19.25 18.914062 C 20.011719 18.914062 20.625 18.300781 20.625 17.539062 L 20.625 17.871094 C 20.625 18.632812 20.011719 19.246094 19.25 19.246094 Z M 2.75 19.246094 "/>
<path style=" stroke:none;fill-rule:nonzero;fill:rgb(0%,0%,0%);fill-opacity:0.2;" d="M 1.375 17.875 L 1.375 18.390625 C 1.375 19.152344 1.988281 19.765625 2.75 19.765625 L 19.25 19.765625 C 20.011719 19.765625 20.625 19.152344 20.625 18.390625 L 20.625 17.875 C 20.625 18.636719 20.011719 19.25 19.25 19.25 L 2.75 19.25 C 1.988281 19.25 1.375 18.636719 1.375 17.875 Z M 1.375 17.875 "/>
<path style=" stroke:none;fill-rule:nonzero;fill:url(#linear1);" d="M 11 4.8125 C 6.046875 4.8125 2.0625 4.890625 2.0625 4.984375 C 2.0625 5.078125 6.046875 5.15625 11 5.15625 C 13.796875 5.15625 16.253906 5.132812 17.890625 5.09375 L 18.136719 4.882812 C 16.511719 4.839844 13.9375 4.8125 11 4.8125 Z M 11 5.84375 C 6.046875 5.84375 2.0625 5.921875 2.0625 6.015625 C 2.0625 6.109375 6.046875 6.1875 11 6.1875 C 13.1875 6.1875 15.113281 6.171875 16.664062 6.144531 L 16.960938 5.890625 C 15.378906 5.863281 13.316406 5.84375 11 5.84375 Z M 11 6.875 C 6.046875 6.875 2.0625 6.953125 2.0625 7.046875 C 2.0625 7.140625 6.046875 7.21875 11 7.21875 C 12.65625 7.21875 14.117188 7.207031 15.441406 7.191406 L 15.777344 6.90625 C 14.375 6.886719 12.800781 6.875 11 6.875 Z M 11 7.90625 C 6.046875 7.90625 2.0625 7.984375 2.0625 8.078125 C 2.0625 8.171875 6.046875 8.25 11 8.25 C 12.144531 8.25 13.21875 8.246094 14.222656 8.238281 L 14.59375 7.921875 C 13.488281 7.910156 12.285156 7.90625 11 7.90625 Z M 11 8.9375 C 6.046875 8.9375 2.0625 9.015625 2.0625 9.109375 C 2.0625 9.203125 6.046875 9.28125 11 9.28125 C 11.714844 9.28125 12.347656 9.277344 13.015625 9.273438 L 13.394531 8.945312 C 12.617188 8.941406 11.851562 8.9375 11 8.9375 Z M 11 9.96875 C 6.046875 9.96875 2.0625 10.046875 2.0625 10.140625 C 2.0625 10.234375 6.046875 10.3125 11 10.3125 C 11.285156 10.3125 11.527344 10.308594 11.804688 10.308594 L 12.199219 9.972656 C 11.789062 9.972656 11.425781 9.96875 11 9.96875 Z M 11 11 C 6.046875 11 2.0625 11.078125 2.0625 11.171875 C 2.0625 11.265625 5.847656 11.339844 10.601562 11.34375 Z M 9.792969 12.035156 C 5.441406 12.046875 2.0625 12.117188 2.0625 12.203125 C 2.0625 12.289062 5.25 12.355469 9.402344 12.367188 Z M 8.582031 13.070312 C 4.84375 13.09375 2.0625 13.15625 2.0625 13.234375 C 2.0625 13.308594 4.652344 13.371094 8.203125 13.394531 Z M 7.371094 14.109375 C 4.25 14.136719 2.0625 14.195312 2.0625 14.265625 C 2.0625 14.332031 4.101562 14.390625 7.011719 14.417969 Z M 6.152344 15.15625 C 3.742188 15.1875 2.0625 15.238281 2.0625 15.296875 C 2.0625 15.355469 3.601562 15.402344 5.828125 15.433594 Z M 4.929688 16.203125 C 3.183594 16.234375 2.0625 16.277344 2.0625 16.328125 C 2.0625 16.375 3.046875 16.417969 4.644531 16.449219 Z M 3.695312 17.261719 C 2.671875 17.289062 2.0625 17.324219 2.0625 17.359375 C 2.0625 17.394531 2.589844 17.425781 3.472656 17.453125 Z M 3.695312 17.261719 "/>
<path style=" stroke:none;fill-rule:nonzero;fill:rgb(14.901961%,65.098041%,60.392159%);fill-opacity:1;" d="M 15.417969 7.210938 L 14.886719 7.667969 L 16.890625 11.167969 C 16.949219 11.277344 17.0625 11.34375 17.1875 11.34375 L 18.554688 11.34375 C 18.558594 11.34375 18.558594 11.34375 18.5625 11.34375 L 19.078125 11.34375 C 19.171875 11.34375 19.25 11.265625 19.25 11.171875 L 19.25 10.828125 C 19.25 10.734375 19.171875 10.65625 19.078125 10.65625 L 17.386719 10.65625 Z M 13.808594 8.59375 L 12.648438 9.585938 L 10.953125 13.652344 L 9.972656 11.882812 L 9.441406 12.335938 L 10.699219 14.601562 C 10.765625 14.71875 10.886719 14.785156 11.019531 14.78125 C 11.152344 14.773438 11.265625 14.691406 11.316406 14.570312 Z M 13.808594 8.59375 "/>
<path style=" stroke:none;fill-rule:nonzero;fill:rgb(14.901961%,77.64706%,85.490197%);fill-opacity:0.2;" d="M 15.9375 6.769531 L 14.355469 8.125 L 16.292969 11.511719 C 16.476562 11.832031 16.816406 12.027344 17.183594 12.03125 C 17.183594 12.03125 17.1875 12.03125 17.1875 12.03125 L 18.539062 12.03125 C 18.5 12.03125 18.40625 12.03125 18.5625 12.03125 L 19.078125 12.03125 C 19.542969 12.03125 19.9375 11.636719 19.9375 11.171875 L 19.9375 10.828125 C 19.9375 10.363281 19.542969 9.96875 19.078125 9.96875 L 17.785156 9.96875 L 16.015625 6.871094 C 15.992188 6.835938 15.964844 6.800781 15.9375 6.769531 Z M 14.328125 8.144531 L 11.488281 10.578125 L 10.867188 12.078125 L 10.574219 11.546875 C 10.546875 11.507812 10.519531 11.472656 10.488281 11.4375 L 8.910156 12.792969 L 10.101562 14.9375 C 10.496094 15.648438 11.632812 15.589844 11.949219 14.839844 C 11.949219 14.835938 11.953125 14.835938 11.953125 14.835938 L 14.441406 8.855469 C 14.542969 8.617188 14.5 8.34375 14.328125 8.144531 Z M 14.328125 8.144531 "/>
<path style=" stroke:none;fill-rule:nonzero;fill:rgb(50.196081%,87.058824%,91.764706%);fill-opacity:1;" d="M 15.417969 7.210938 L 14.886719 7.667969 L 16.890625 11.167969 C 16.949219 11.277344 17.0625 11.34375 17.1875 11.34375 L 18.554688 11.34375 C 18.558594 11.34375 18.558594 11.34375 18.5625 11.34375 L 19.078125 11.34375 C 19.171875 11.34375 19.25 11.265625 19.25 11.171875 L 19.25 10.828125 C 19.25 10.734375 19.171875 10.65625 19.078125 10.65625 L 17.386719 10.65625 Z M 13.808594 8.59375 L 12.648438 9.585938 L 10.953125 13.652344 L 9.972656 11.882812 L 9.441406 12.335938 L 10.699219 14.601562 C 10.765625 14.71875 10.886719 14.785156 11.019531 14.78125 C 11.152344 14.773438 11.265625 14.691406 11.316406 14.570312 Z M 13.808594 8.59375 "/>
<path style=" stroke:none;fill-rule:nonzero;fill:rgb(0%,0%,0%);fill-opacity:0.4;" d="M 14.886719 7.667969 L 14.820312 7.722656 L 16.890625 11.339844 C 16.949219 11.449219 17.0625 11.515625 17.1875 11.515625 L 18.554688 11.515625 C 18.558594 11.515625 18.558594 11.515625 18.5625 11.515625 L 19.078125 11.515625 C 19.171875 11.515625 19.25 11.4375 19.25 11.34375 L 19.25 11.171875 C 19.25 11.265625 19.171875 11.34375 19.078125 11.34375 L 18.5625 11.34375 C 18.558594 11.34375 18.558594 11.34375 18.554688 11.34375 L 17.1875 11.34375 C 17.0625 11.34375 16.949219 11.277344 16.890625 11.167969 Z M 13.917969 8.496094 L 13.808594 8.59375 L 11.316406 14.570312 C 11.265625 14.691406 11.152344 14.773438 11.019531 14.78125 C 10.886719 14.785156 10.765625 14.71875 10.699219 14.601562 L 9.441406 12.335938 L 9.375 12.390625 L 10.699219 14.773438 C 10.765625 14.890625 10.886719 14.957031 11.019531 14.953125 C 11.152344 14.945312 11.265625 14.863281 11.316406 14.742188 Z M 13.917969 8.496094 "/>
<path style=" stroke:none;fill-rule:nonzero;fill:rgb(100%,100%,100%);fill-opacity:0.4;" d="M 15.417969 7.210938 L 15.351562 7.269531 L 17.386719 10.828125 L 19.078125 10.828125 C 19.171875 10.828125 19.25 10.90625 19.25 11 L 19.25 10.828125 C 19.25 10.734375 19.171875 10.65625 19.078125 10.65625 L 17.386719 10.65625 Z M 12.761719 9.492188 L 12.648438 9.585938 L 10.953125 13.652344 L 9.972656 11.882812 L 9.90625 11.9375 L 10.953125 13.824219 Z M 12.761719 9.492188 "/>
<path style=" stroke:none;fill-rule:nonzero;fill:url(#linear2);" d="M 2.75 2.75 L 19.25 2.75 C 20.007812 2.75 20.625 3.367188 20.625 4.125 L 20.625 17.875 C 20.625 18.632812 20.007812 19.25 19.25 19.25 L 2.75 19.25 C 1.992188 19.25 1.375 18.632812 1.375 17.875 L 1.375 4.125 C 1.375 3.367188 1.992188 2.75 2.75 2.75 Z M 2.75 2.75 "/>
</g>
</svg>
