
<svg xmlns="http://www.w3.org/2000/svg" xmlns:xlink="http://www.w3.org/1999/xlink" width="22" height="22" viewBox="0 0 22 22" version="1.1">
<defs>
<linearGradient id="linear0" gradientUnits="userSpaceOnUse" x1="31.999998" y1="59.999996" x2="31.999998" y2="3.999999" gradientTransform="matrix(0.34375,0,0,0.34375,0,0.00000000000003908)">
<stop offset="0" style="stop-color:rgb(0%,0%,0%);stop-opacity:0.2;"/>
<stop offset="1" style="stop-color:rgb(100%,100%,100%);stop-opacity:0;"/>
</linearGradient>
</defs>
<g id="surface1">
<path style=" stroke:none;fill-rule:nonzero;fill:rgb(100%,65.490198%,14.901961%);fill-opacity:1;" d="M 4.296875 13.0625 C 3.78125 15.46875 1.375 15.8125 1.375 16.5 C 1.375 16.671875 2.0625 17.875 4.8125 16.5 C 4.890625 17.1875 2.0625 17.875 2.0625 18.5625 C 2.0625 19.25 4.8125 19.25 6.1875 17.875 C 5.5 19.59375 4.125 19.25 4.125 19.9375 C 4.125 21.3125 11 20.625 11 17.015625 L 5.671875 11.6875 Z M 4.296875 13.0625 "/>
<path style=" stroke:none;fill-rule:nonzero;fill:rgb(100%,65.490198%,14.901961%);fill-opacity:1;" d="M 17.703125 13.0625 C 18.21875 15.46875 20.625 15.8125 20.625 16.5 C 20.625 16.671875 19.9375 17.875 17.1875 16.5 C 17.109375 17.1875 19.9375 17.875 19.9375 18.5625 C 19.9375 19.25 17.1875 19.25 15.8125 17.875 C 16.5 19.59375 17.875 19.25 17.875 19.9375 C 17.875 21.3125 11 20.625 11 17.015625 L 16.328125 11.6875 Z M 17.703125 13.0625 "/>
<path style=" stroke:none;fill-rule:nonzero;fill:rgb(100%,100%,100%);fill-opacity:0.4;" d="M 5.671875 11.6875 L 4.296875 13.0625 C 3.78125 15.46875 1.375 15.8125 1.375 16.5 C 1.375 16.527344 1.394531 16.585938 1.4375 16.652344 C 1.824219 16.070312 3.832031 15.582031 4.296875 13.40625 L 5.671875 12.03125 L 10.980469 17.339844 C 10.992188 17.234375 11 17.125 11 17.015625 Z M 11 17.015625 C 11 17.125 11.007812 17.234375 11.019531 17.339844 L 16.328125 12.03125 L 17.703125 13.40625 C 18.167969 15.582031 20.175781 16.070312 20.5625 16.652344 C 20.605469 16.585938 20.625 16.527344 20.625 16.5 C 20.625 15.8125 18.21875 15.46875 17.703125 13.0625 L 16.328125 11.6875 Z M 4.8125 16.84375 C 4.644531 16.925781 4.488281 17 4.335938 17.066406 C 3.550781 17.5625 2.0625 18.0625 2.0625 18.5625 C 2.0625 18.621094 2.085938 18.675781 2.125 18.726562 C 2.535156 18.097656 4.886719 17.46875 4.8125 16.84375 Z M 17.1875 16.84375 C 17.113281 17.46875 19.464844 18.097656 19.875 18.726562 C 19.914062 18.675781 19.9375 18.621094 19.9375 18.5625 C 19.9375 18.0625 18.449219 17.5625 17.664062 17.066406 C 17.511719 17 17.355469 16.925781 17.1875 16.84375 Z M 6.1875 18.21875 C 6.078125 18.328125 5.957031 18.429688 5.832031 18.519531 C 5.113281 19.507812 4.125 19.355469 4.125 19.9375 C 4.125 19.996094 4.140625 20.050781 4.164062 20.101562 C 4.398438 19.644531 5.570312 19.761719 6.1875 18.21875 Z M 15.8125 18.21875 C 16.429688 19.761719 17.601562 19.644531 17.835938 20.101562 C 17.859375 20.050781 17.875 19.996094 17.875 19.9375 C 17.875 19.355469 16.886719 19.507812 16.167969 18.523438 C 16.042969 18.429688 15.921875 18.328125 15.8125 18.21875 Z M 15.8125 18.21875 "/>
<path style=" stroke:none;fill-rule:nonzero;fill:rgb(0%,0%,0%);fill-opacity:0.4;" d="M 4.8125 16.15625 C 2.527344 17.300781 1.664062 16.660156 1.441406 16.3125 C 1.402344 16.375 1.375 16.433594 1.375 16.5 C 1.375 16.660156 1.984375 17.734375 4.347656 16.714844 C 4.640625 16.527344 4.835938 16.34375 4.8125 16.15625 Z M 17.1875 16.15625 C 17.164062 16.34375 17.359375 16.53125 17.652344 16.714844 C 20.015625 17.734375 20.625 16.660156 20.625 16.5 C 20.625 16.433594 20.597656 16.375 20.558594 16.3125 C 20.335938 16.660156 19.472656 17.300781 17.1875 16.15625 Z M 10.980469 16.996094 C 10.601562 20.167969 4.707031 20.863281 4.164062 19.765625 C 4.140625 19.816406 4.125 19.871094 4.125 19.9375 C 4.125 21.3125 11 20.625 11 17.015625 Z M 11 17.015625 C 11 20.625 17.875 21.3125 17.875 19.9375 C 17.875 19.871094 17.859375 19.816406 17.835938 19.765625 C 17.292969 20.863281 11.398438 20.167969 11.019531 16.996094 Z M 6.1875 17.53125 C 4.933594 18.785156 2.535156 18.894531 2.125 18.382812 C 2.085938 18.441406 2.0625 18.503906 2.0625 18.5625 C 2.0625 19.195312 4.402344 19.242188 5.847656 18.164062 C 5.96875 17.992188 6.085938 17.785156 6.1875 17.53125 Z M 15.8125 17.53125 C 15.914062 17.785156 16.03125 17.992188 16.152344 18.164062 C 17.597656 19.242188 19.9375 19.195312 19.9375 18.5625 C 19.9375 18.503906 19.914062 18.441406 19.875 18.382812 C 19.464844 18.894531 17.066406 18.785156 15.8125 17.53125 Z M 15.8125 17.53125 "/>
<path style=" stroke:none;fill-rule:nonzero;fill:rgb(87.843138%,87.843138%,87.843138%);fill-opacity:1;" d="M 8.25 3.4375 C 11.289062 3.4375 13.75 5.898438 13.75 8.9375 C 13.75 11.976562 11.289062 14.4375 8.25 14.4375 C 5.210938 14.4375 2.75 11.976562 2.75 8.9375 C 2.75 5.898438 5.210938 3.4375 8.25 3.4375 Z M 8.25 3.4375 "/>
<path style=" stroke:none;fill-rule:nonzero;fill:rgb(73.333335%,87.058824%,98.431373%);fill-opacity:1;" d="M 8.25 3.4375 C 8.421875 3.4375 8.589844 3.445312 8.757812 3.460938 C 7.882812 3.570312 7.140625 4.085938 6.722656 4.816406 C 5.4375 4.886719 4.394531 5.828125 4.171875 7.066406 C 3.714844 7.554688 3.4375 8.214844 3.4375 8.9375 C 3.4375 9.644531 3.703125 10.285156 4.136719 10.769531 C 4.128906 10.847656 4.125 10.921875 4.125 11 C 4.125 12.523438 5.351562 13.75 6.875 13.75 C 7.441406 13.75 7.96875 13.578125 8.40625 13.289062 C 8.550781 13.703125 8.792969 14.074219 9.109375 14.371094 C 8.828125 14.414062 8.542969 14.4375 8.25 14.4375 C 5.203125 14.4375 2.75 11.984375 2.75 8.9375 C 2.75 5.890625 5.203125 3.4375 8.25 3.4375 Z M 10.9375 4.132812 C 12.617188 5.074219 13.75 6.867188 13.75 8.9375 C 13.75 9.65625 13.613281 10.34375 13.367188 10.972656 C 12.886719 10.164062 12.011719 9.625 11 9.625 C 10.433594 9.625 9.90625 9.796875 9.472656 10.085938 C 9.367188 9.792969 9.214844 9.519531 9.027344 9.28125 C 9.113281 9.171875 9.191406 9.054688 9.261719 8.933594 C 10.714844 8.855469 11.859375 7.660156 11.859375 6.1875 C 11.859375 5.367188 11.503906 4.636719 10.9375 4.132812 Z M 10.9375 4.132812 "/>
<path style=" stroke:none;fill-rule:nonzero;fill:rgb(87.843138%,87.843138%,87.843138%);fill-opacity:1;" d="M 13.75 3.4375 C 16.789062 3.4375 19.25 5.898438 19.25 8.9375 C 19.25 11.976562 16.789062 14.4375 13.75 14.4375 C 10.710938 14.4375 8.25 11.976562 8.25 8.9375 C 8.25 5.898438 10.710938 3.4375 13.75 3.4375 Z M 13.75 3.4375 "/>
<path style=" stroke:none;fill-rule:nonzero;fill:rgb(73.333335%,87.058824%,98.431373%);fill-opacity:1;" d="M 5.671875 4.125 C 5.671875 4.125 6.53125 4.8125 6.1875 5.5 C 5.84375 6.1875 5.5 6.359375 5.84375 6.703125 C 6.1875 7.046875 7.390625 6.703125 6.703125 7.734375 C 6.015625 8.765625 7.21875 9.109375 6.53125 9.796875 C 5.84375 10.484375 5.15625 10.65625 5.15625 11 C 5.15625 11.34375 4.984375 12.546875 4.640625 12.546875 C 4.296875 12.546875 5.5 13.578125 5.84375 13.578125 C 6.1875 13.578125 11 8.9375 11 8.9375 Z M 5.671875 4.125 "/>
<path style=" stroke:none;fill-rule:nonzero;fill:rgb(73.333335%,87.058824%,98.431373%);fill-opacity:1;" d="M 16.328125 4.125 C 16.328125 4.125 15.46875 4.8125 15.8125 5.5 C 16.15625 6.1875 16.5 6.359375 16.15625 6.703125 C 15.8125 7.046875 14.609375 6.703125 15.296875 7.734375 C 15.984375 8.765625 14.78125 9.109375 15.46875 9.796875 C 16.15625 10.484375 16.84375 10.65625 16.84375 11 C 16.84375 11.34375 17.015625 12.546875 17.359375 12.546875 C 17.703125 12.546875 16.5 13.578125 16.15625 13.578125 C 15.8125 13.578125 11 8.9375 11 8.9375 Z M 16.328125 4.125 "/>
<path style=" stroke:none;fill-rule:nonzero;fill:rgb(73.333335%,87.058824%,98.431373%);fill-opacity:1;" d="M 13.75 3.4375 C 13.578125 3.4375 13.410156 3.445312 13.246094 3.460938 C 14.117188 3.570312 14.859375 4.085938 15.277344 4.816406 C 16.5625 4.886719 17.605469 5.828125 17.832031 7.066406 C 18.285156 7.554688 18.5625 8.214844 18.5625 8.9375 C 18.5625 9.644531 18.300781 10.285156 17.867188 10.769531 C 17.871094 10.847656 17.875 10.921875 17.875 11 C 17.875 12.523438 16.648438 13.75 15.125 13.75 C 14.558594 13.75 14.03125 13.578125 13.59375 13.289062 C 13.449219 13.703125 13.207031 14.074219 12.894531 14.371094 C 13.171875 14.414062 13.457031 14.4375 13.75 14.4375 C 16.796875 14.4375 19.25 11.984375 19.25 8.9375 C 19.25 5.890625 16.796875 3.4375 13.75 3.4375 Z M 11.0625 4.132812 C 9.382812 5.074219 8.25 6.867188 8.25 8.9375 C 8.25 9.65625 8.386719 10.34375 8.636719 10.972656 C 9.113281 10.164062 9.992188 9.625 11 9.625 C 11.566406 9.625 12.09375 9.796875 12.53125 10.085938 C 12.632812 9.792969 12.785156 9.519531 12.976562 9.28125 C 12.886719 9.171875 12.808594 9.054688 12.738281 8.933594 C 11.285156 8.855469 10.140625 7.660156 10.140625 6.1875 C 10.140625 5.367188 10.496094 4.636719 11.0625 4.132812 Z M 11.0625 4.132812 "/>
<path style=" stroke:none;fill-rule:nonzero;fill:rgb(0%,0%,0%);fill-opacity:0.4;" d="M 2.753906 8.8125 C 2.753906 8.855469 2.75 8.894531 2.75 8.9375 C 2.75 11.984375 5.203125 14.4375 8.25 14.4375 C 9.253906 14.4375 10.191406 14.171875 11 13.707031 C 11.808594 14.171875 12.746094 14.4375 13.75 14.4375 C 16.796875 14.4375 19.25 11.984375 19.25 8.9375 C 19.25 8.894531 19.246094 8.855469 19.246094 8.8125 C 19.15625 11.777344 16.738281 14.136719 13.75 14.136719 C 12.746094 14.136719 11.808594 13.871094 11 13.40625 C 10.191406 13.871094 9.253906 14.136719 8.25 14.136719 C 5.261719 14.136719 2.84375 11.777344 2.753906 8.8125 Z M 2.753906 8.8125 "/>
<path style=" stroke:none;fill-rule:nonzero;fill:rgb(100%,100%,100%);fill-opacity:0.6;" d="M 8.25 3.4375 C 5.203125 3.4375 2.75 5.890625 2.75 8.9375 C 2.75 8.980469 2.753906 9.019531 2.753906 9.0625 C 2.84375 6.097656 5.261719 3.738281 8.25 3.738281 C 9.253906 3.738281 10.191406 4.003906 11 4.46875 C 11.808594 4.003906 12.746094 3.738281 13.75 3.738281 C 16.738281 3.738281 19.15625 6.097656 19.246094 9.0625 C 19.246094 9.019531 19.25 8.980469 19.25 8.9375 C 19.25 5.890625 16.796875 3.4375 13.75 3.4375 C 12.746094 3.4375 11.808594 3.703125 11 4.167969 C 10.191406 3.703125 9.253906 3.4375 8.25 3.4375 Z M 8.25 3.4375 "/>
<path style=" stroke:none;fill-rule:nonzero;fill:rgb(100%,65.490198%,14.901961%);fill-opacity:1;" d="M 11 1.375 C 9.417969 1.375 8.046875 1.964844 7.355469 2.832031 C 6.699219 3.125 6.085938 3.492188 5.523438 3.925781 C 8.25 8.3125 6.875 11.75 3.4375 12.4375 C 4.878906 15.429688 7.445312 17.183594 11 17.183594 C 14.34375 17.183594 17.027344 15.140625 18.5625 12.4375 C 15.125 11.75 13.75 8.3125 16.792969 4.1875 C 16.152344 3.640625 15.429688 3.183594 14.644531 2.832031 C 13.953125 1.964844 12.585938 1.375 11 1.375 Z M 11 1.375 "/>
<path style=" stroke:none;fill-rule:nonzero;fill:rgb(67.058825%,27.843139%,73.725492%);fill-opacity:1;" d="M 9.625 5.5 C 10.261719 5.5 10.484375 6.140625 10.484375 6.902344 C 10.484375 7.664062 10.261719 8.25 9.625 8.25 C 8.988281 8.25 8.480469 7.636719 8.480469 6.875 C 8.480469 6.113281 8.988281 5.5 9.625 5.5 Z M 9.625 5.5 "/>
<path style=" stroke:none;fill-rule:nonzero;fill:rgb(67.058825%,27.843139%,73.725492%);fill-opacity:1;" d="M 13.554688 1.964844 C 13.308594 2.148438 13.089844 2.390625 12.921875 2.6875 C 12.347656 3.675781 12.554688 4.855469 13.378906 5.332031 C 14.203125 5.808594 14.933594 5.214844 15.503906 4.226562 C 15.648438 3.976562 15.765625 3.730469 15.851562 3.488281 C 15.46875 3.242188 15.066406 3.019531 14.644531 2.832031 C 14.375 2.496094 14.003906 2.199219 13.554688 1.964844 Z M 13.554688 1.964844 "/>
<path style=" stroke:none;fill-rule:nonzero;fill:rgb(67.058825%,27.843139%,73.725492%);fill-opacity:1;" d="M 9.601562 1.535156 C 8.707031 1.75 7.960938 2.164062 7.472656 2.695312 C 7.441406 3.125 7.542969 3.589844 7.792969 4.019531 C 8.363281 5.011719 9.488281 5.421875 10.3125 4.949219 C 11.136719 4.472656 10.992188 3.542969 10.417969 2.554688 C 10.179688 2.136719 9.902344 1.777344 9.601562 1.535156 Z M 9.601562 1.535156 "/>
<path style=" stroke:none;fill-rule:nonzero;fill:rgb(67.058825%,27.843139%,73.725492%);fill-opacity:1;" d="M 13.0625 5.5 C 13.613281 5.816406 13.484375 6.484375 13.105469 7.144531 C 12.722656 7.804688 12.238281 8.199219 11.6875 7.882812 C 11.136719 7.5625 11 6.777344 11.382812 6.117188 C 11.761719 5.457031 12.511719 5.183594 13.0625 5.5 Z M 13.0625 5.5 "/>
<path style=" stroke:none;fill-rule:nonzero;fill:rgb(67.058825%,27.843139%,73.725492%);fill-opacity:1;" d="M 10.3125 8.25 C 10.949219 8.25 11.171875 8.890625 11.171875 9.652344 C 11.171875 10.414062 10.949219 11 10.3125 11 C 9.675781 11 9.167969 10.386719 9.167969 9.625 C 9.167969 8.863281 9.675781 8.25 10.3125 8.25 Z M 10.3125 8.25 "/>
<path style=" stroke:none;fill-rule:nonzero;fill:rgb(67.058825%,27.843139%,73.725492%);fill-opacity:1;" d="M 7.5625 4.8125 C 7.222656 4.8125 7.105469 5.15625 7.105469 5.5625 C 7.105469 5.96875 7.222656 6.277344 7.5625 6.277344 C 7.902344 6.277344 8.171875 5.953125 8.171875 5.546875 C 8.171875 5.140625 7.902344 4.8125 7.5625 4.8125 Z M 7.5625 4.8125 "/>
<path style=" stroke:none;fill-rule:nonzero;fill:rgb(67.058825%,27.843139%,73.725492%);fill-opacity:1;" d="M 11.6875 2.0625 C 11.347656 2.0625 11.230469 2.40625 11.230469 2.8125 C 11.230469 3.21875 11.347656 3.527344 11.6875 3.527344 C 12.027344 3.527344 12.296875 3.203125 12.296875 2.796875 C 12.296875 2.390625 12.027344 2.0625 11.6875 2.0625 Z M 11.6875 2.0625 "/>
<path style=" stroke:none;fill-rule:nonzero;fill:rgb(67.058825%,27.843139%,73.725492%);fill-opacity:1;" d="M 14.4375 6.1875 C 14.097656 6.1875 13.980469 6.53125 13.980469 6.9375 C 13.980469 7.34375 14.097656 7.652344 14.4375 7.652344 C 14.777344 7.652344 15.046875 7.328125 15.046875 6.921875 C 15.046875 6.515625 14.777344 6.1875 14.4375 6.1875 Z M 14.4375 6.1875 "/>
<path style=" stroke:none;fill-rule:nonzero;fill:rgb(67.058825%,27.843139%,73.725492%);fill-opacity:1;" d="M 13.0625 8.9375 C 13.414062 9.140625 13.332031 9.566406 13.089844 9.984375 C 12.847656 10.40625 12.535156 10.65625 12.1875 10.457031 C 11.835938 10.253906 11.75 9.75 11.992188 9.332031 C 12.234375 8.910156 12.710938 8.734375 13.0625 8.9375 Z M 13.0625 8.9375 "/>
<path style=" stroke:none;fill-rule:nonzero;fill:rgb(38.039216%,38.039216%,38.039216%);fill-opacity:1;" d="M 2.75 8.25 C 3.4375 7.90625 4.125 7.734375 6.1875 7.5625 C 5.5 8.25 4.296875 8.9375 2.921875 10.3125 C 2.75 10.484375 2.40625 8.421875 2.75 8.25 Z M 2.75 8.25 "/>
<path style=" stroke:none;fill-rule:nonzero;fill:rgb(38.039216%,38.039216%,38.039216%);fill-opacity:1;" d="M 19.25 8.25 C 18.5625 7.90625 17.875 7.734375 15.8125 7.5625 C 16.5 8.25 17.703125 8.9375 19.078125 10.3125 C 19.25 10.484375 19.59375 8.421875 19.25 8.25 Z M 19.25 8.25 "/>
<path style=" stroke:none;fill-rule:nonzero;fill:rgb(100%,100%,100%);fill-opacity:0.4;" d="M 11 1.375 C 9.417969 1.375 8.046875 1.964844 7.355469 2.832031 C 6.699219 3.125 6.085938 3.492188 5.523438 3.925781 C 5.574219 4.007812 5.621094 4.085938 5.667969 4.164062 C 6.1875 3.777344 6.753906 3.441406 7.355469 3.175781 C 8.046875 2.308594 9.417969 1.71875 11 1.71875 C 12.585938 1.71875 13.953125 2.308594 14.644531 3.175781 C 15.367188 3.5 16.035156 3.914062 16.640625 4.40625 C 16.691406 4.332031 16.742188 4.261719 16.792969 4.1875 C 16.152344 3.640625 15.429688 3.183594 14.644531 2.832031 C 13.953125 1.964844 12.585938 1.375 11 1.375 Z M 6.964844 8.425781 C 6.902344 10.53125 5.566406 12.011719 3.4375 12.4375 C 3.488281 12.542969 3.542969 12.644531 3.597656 12.746094 C 5.746094 12.253906 7.042969 10.65625 6.964844 8.425781 Z M 15.113281 8.667969 C 15.027344 10.734375 16.300781 12.253906 18.378906 12.742188 C 18.441406 12.640625 18.503906 12.539062 18.5625 12.4375 C 16.496094 12.023438 15.179688 10.617188 15.113281 8.667969 Z M 15.113281 8.667969 "/>
<path style=" stroke:none;fill-rule:nonzero;fill:rgb(0%,0%,0%);fill-opacity:0.4;" d="M 16.875 14.4375 C 15.210938 15.589844 13.1875 16.265625 11 16.265625 C 8.8125 16.265625 6.789062 15.589844 5.125 14.4375 C 6.695312 15.804688 8.746094 16.628906 11 16.628906 C 13.253906 16.628906 15.308594 15.804688 16.875 14.4375 Z M 16.875 14.4375 "/>
<path style=" stroke:none;fill-rule:nonzero;fill:rgb(100%,100%,100%);fill-opacity:0.4;" d="M 6.1875 7.5625 C 4.125 7.734375 3.4375 7.90625 2.75 8.25 C 2.632812 8.308594 2.59375 8.589844 2.605469 8.925781 C 2.613281 8.667969 2.652344 8.46875 2.75 8.421875 C 3.414062 8.089844 4.078125 7.917969 5.984375 7.75 C 6.058594 7.6875 6.125 7.625 6.1875 7.5625 Z M 6.1875 7.5625 "/>
<path style=" stroke:none;fill-rule:nonzero;fill:rgb(100%,100%,100%);fill-opacity:0.4;" d="M 15.8125 7.5625 C 15.875 7.625 15.941406 7.6875 16.015625 7.75 C 17.921875 7.917969 18.585938 8.089844 19.25 8.421875 C 19.347656 8.46875 19.386719 8.667969 19.394531 8.925781 C 19.40625 8.589844 19.367188 8.308594 19.25 8.25 C 18.5625 7.90625 17.875 7.734375 15.8125 7.5625 Z M 15.8125 7.5625 "/>
<path style=" stroke:none;fill-rule:nonzero;fill:rgb(0%,0%,0%);fill-opacity:0.4;" d="M 6.1875 7.734375 C 6.117188 7.742188 6.050781 7.746094 5.984375 7.75 C 5.277344 8.382812 4.171875 9.0625 2.921875 10.3125 C 2.933594 10.359375 2.949219 10.402344 2.960938 10.449219 C 4.320312 9.097656 5.507812 8.414062 6.1875 7.734375 Z M 15.8125 7.734375 C 16.492188 8.414062 17.679688 9.097656 19.039062 10.449219 C 19.050781 10.402344 19.066406 10.359375 19.078125 10.3125 C 17.828125 9.0625 16.722656 8.382812 16.015625 7.75 C 15.949219 7.746094 15.882812 7.742188 15.8125 7.734375 Z M 15.8125 7.734375 "/>
<path style=" stroke:none;fill-rule:nonzero;fill:url(#linear0);" d="M 11 1.375 C 9.417969 1.375 8.046875 1.964844 7.355469 2.832031 C 6.699219 3.125 6.085938 3.492188 5.523438 3.925781 C 5.5625 3.984375 5.59375 4.039062 5.628906 4.097656 C 4.109375 4.921875 3.023438 6.4375 2.796875 8.226562 C 2.78125 8.234375 2.765625 8.242188 2.75 8.25 C 2.40625 8.421875 2.75 10.484375 2.921875 10.3125 C 3.113281 11.054688 3.453125 11.734375 3.90625 12.320312 C 3.753906 12.363281 3.597656 12.40625 3.4375 12.4375 C 3.644531 12.863281 3.875 13.261719 4.125 13.636719 C 3.386719 15.53125 1.375 15.871094 1.375 16.5 C 1.375 16.671875 2.0625 17.875 4.8125 16.5 C 4.890625 17.1875 2.0625 17.875 2.0625 18.5625 C 2.0625 19.25 4.8125 19.25 6.1875 17.875 C 5.5 19.59375 4.125 19.25 4.125 19.9375 C 4.125 21.289062 10.785156 20.644531 10.996094 17.183594 C 10.996094 17.183594 11 17.183594 11 17.183594 C 11 17.183594 11.003906 17.183594 11.003906 17.183594 C 11.214844 20.644531 17.875 21.289062 17.875 19.9375 C 17.875 19.25 16.5 19.59375 15.8125 17.875 C 17.1875 19.25 19.9375 19.25 19.9375 18.5625 C 19.9375 17.875 17.109375 17.1875 17.1875 16.5 C 19.9375 17.875 20.625 16.671875 20.625 16.5 C 20.625 15.859375 18.546875 15.519531 17.839844 13.542969 C 18.101562 13.1875 18.34375 12.820312 18.5625 12.4375 C 18.402344 12.40625 18.246094 12.363281 18.09375 12.320312 C 18.546875 11.734375 18.886719 11.054688 19.078125 10.3125 C 19.25 10.484375 19.59375 8.421875 19.25 8.25 C 19.234375 8.242188 19.21875 8.234375 19.203125 8.226562 C 18.992188 6.574219 18.054688 5.15625 16.714844 4.300781 C 16.742188 4.261719 16.765625 4.226562 16.792969 4.1875 C 16.152344 3.640625 15.429688 3.183594 14.644531 2.832031 C 13.953125 1.964844 12.585938 1.375 11 1.375 Z M 11 1.375 "/>
<path style=" stroke:none;fill-rule:nonzero;fill:rgb(0%,0%,0%);fill-opacity:0.2;" d="M 2.613281 9.117188 C 2.550781 9.746094 2.789062 10.960938 2.921875 10.828125 C 3.066406 11.394531 3.296875 11.921875 3.601562 12.402344 C 3.703125 12.375 3.808594 12.351562 3.90625 12.320312 C 3.453125 11.734375 3.113281 11.054688 2.921875 10.3125 C 2.820312 10.414062 2.65625 9.726562 2.613281 9.117188 Z M 19.386719 9.121094 C 19.34375 9.730469 19.179688 10.414062 19.078125 10.3125 C 18.886719 11.054688 18.546875 11.734375 18.09375 12.320312 C 18.191406 12.351562 18.296875 12.375 18.398438 12.402344 C 18.703125 11.921875 18.933594 11.394531 19.078125 10.828125 C 19.210938 10.960938 19.449219 9.75 19.386719 9.121094 Z M 18.289062 12.890625 C 18.144531 13.113281 17.996094 13.332031 17.839844 13.542969 C 17.878906 13.65625 17.925781 13.765625 17.976562 13.867188 C 18.1875 13.574219 18.382812 13.269531 18.5625 12.953125 C 18.46875 12.933594 18.378906 12.914062 18.289062 12.890625 Z M 3.675781 12.898438 C 3.597656 12.917969 3.519531 12.9375 3.4375 12.953125 C 3.605469 13.300781 3.789062 13.628906 3.988281 13.941406 C 4.035156 13.84375 4.082031 13.742188 4.125 13.636719 C 3.96875 13.402344 3.816406 13.15625 3.675781 12.898438 Z M 4.8125 16.5 C 2.703125 17.554688 1.804688 17.09375 1.503906 16.742188 C 1.421875 16.832031 1.375 16.917969 1.375 17.015625 C 1.375 17.152344 1.820312 17.957031 3.417969 17.554688 C 4.132812 17.203125 4.851562 16.851562 4.8125 16.5 Z M 17.1875 16.5 C 17.148438 16.851562 17.867188 17.203125 18.582031 17.554688 C 20.179688 17.957031 20.625 17.152344 20.625 17.015625 C 20.625 16.917969 20.578125 16.832031 20.496094 16.742188 C 20.195312 17.09375 19.296875 17.554688 17.1875 16.5 Z M 10.996094 17.183594 C 10.800781 20.402344 5.03125 21.1875 4.21875 20.191406 C 4.160156 20.261719 4.125 20.34375 4.125 20.453125 C 4.125 21.804688 10.785156 21.160156 10.996094 17.699219 L 11.003906 17.699219 C 11.214844 21.160156 17.875 21.804688 17.875 20.453125 C 17.875 20.34375 17.839844 20.261719 17.78125 20.191406 C 16.96875 21.1875 11.199219 20.402344 11.003906 17.183594 Z M 6.1875 17.875 C 4.996094 19.066406 2.78125 19.226562 2.203125 18.800781 C 2.113281 18.894531 2.0625 18.984375 2.0625 19.078125 C 2.0625 19.65625 4.003906 19.746094 5.441406 18.945312 C 5.714844 18.71875 5.980469 18.390625 6.1875 17.875 Z M 15.8125 17.875 C 16.019531 18.390625 16.285156 18.71875 16.558594 18.945312 C 17.996094 19.746094 19.9375 19.65625 19.9375 19.078125 C 19.9375 18.984375 19.886719 18.894531 19.796875 18.800781 C 19.21875 19.226562 17.003906 19.066406 15.8125 17.875 Z M 15.8125 17.875 "/>
</g>
</svg>
