
<svg xmlns="http://www.w3.org/2000/svg" xmlns:xlink="http://www.w3.org/1999/xlink" width="22" height="22" viewBox="0 0 22 22" version="1.1">
<defs>
<linearGradient id="linear0" gradientUnits="userSpaceOnUse" x1="8.466666" y1="-199.125" x2="8.466666" y2="-213.941666" gradientTransform="matrix(1.299213,0,0,1.299213,0,279.330723)">
<stop offset="0" style="stop-color:rgb(0%,0%,0%);stop-opacity:0.2;"/>
<stop offset="1" style="stop-color:rgb(100%,100%,100%);stop-opacity:0;"/>
</linearGradient>
</defs>
<g id="surface1">
<path style=" stroke:none;fill-rule:nonzero;fill:rgb(38.039216%,38.039216%,38.039216%);fill-opacity:1;" d="M 11 1.371094 C 16.316406 1.371094 20.625 5.683594 20.625 11 C 20.625 16.316406 16.316406 20.625 11 20.625 C 5.683594 20.625 1.371094 16.316406 1.371094 11 C 1.371094 5.683594 5.683594 1.371094 11 1.371094 Z M 11 1.371094 "/>
<path style=" stroke:none;fill-rule:nonzero;fill:rgb(100%,100%,100%);fill-opacity:0.4;" d="M 11 1.375 C 5.683594 1.375 1.375 5.683594 1.375 11 C 1.375 11.058594 1.375 11.113281 1.378906 11.171875 C 1.46875 5.933594 5.742188 1.71875 11 1.71875 C 16.257812 1.71875 20.53125 5.933594 20.621094 11.171875 C 20.625 11.113281 20.625 11.058594 20.625 11 C 20.625 5.683594 16.316406 1.375 11 1.375 Z M 11 1.375 "/>
<path style=" stroke:none;fill-rule:nonzero;fill:rgb(0%,0%,0%);fill-opacity:0.4;" d="M 1.378906 10.824219 C 1.378906 10.882812 1.375 10.9375 1.375 10.996094 C 1.375 16.3125 5.683594 20.621094 11 20.621094 C 16.316406 20.621094 20.625 16.3125 20.625 10.996094 C 20.625 10.9375 20.621094 10.882812 20.621094 10.824219 C 20.527344 16.0625 16.257812 20.28125 11 20.28125 C 5.742188 20.28125 1.472656 16.0625 1.378906 10.824219 Z M 1.378906 10.824219 "/>
<path style=" stroke:none;fill-rule:nonzero;fill:rgb(0%,0%,0%);fill-opacity:0.2;" d="M 1.378906 11.257812 C 1.378906 11.34375 1.375 11.429688 1.375 11.515625 C 1.375 16.832031 5.683594 21.140625 11 21.140625 C 16.316406 21.140625 20.625 16.832031 20.625 11.515625 C 20.625 11.429688 20.621094 11.34375 20.621094 11.257812 C 20.484375 16.453125 16.230469 20.625 11 20.625 C 5.769531 20.625 1.515625 16.453125 1.378906 11.257812 Z M 1.378906 11.257812 "/>
<path style=" stroke:none;fill-rule:nonzero;fill:rgb(93.333334%,93.333334%,93.333334%);fill-opacity:1;" d="M 10.3125 3.4375 C 9.929688 3.4375 9.625 3.742188 9.625 4.125 L 9.625 9.207031 L 4.714844 7.890625 C 4.347656 7.792969 3.972656 8.011719 3.875 8.378906 L 3.515625 9.707031 C 3.417969 10.074219 3.636719 10.449219 4.003906 10.546875 L 8.914062 11.863281 L 6.371094 16.265625 C 6.179688 16.597656 6.292969 17.015625 6.625 17.207031 L 7.8125 17.894531 C 8.144531 18.082031 8.5625 17.972656 8.753906 17.640625 L 11 13.75 L 13.246094 17.640625 C 13.4375 17.972656 13.855469 18.082031 14.1875 17.894531 L 15.375 17.207031 C 15.707031 17.015625 15.820312 16.597656 15.628906 16.265625 L 13.085938 11.863281 L 17.996094 10.546875 C 18.363281 10.449219 18.582031 10.074219 18.484375 9.707031 L 18.125 8.378906 C 18.027344 8.011719 17.652344 7.792969 17.285156 7.890625 L 12.375 9.207031 L 12.375 4.125 C 12.375 3.742188 12.070312 3.4375 11.6875 3.4375 Z M 10.3125 3.4375 "/>
<path style=" stroke:none;fill-rule:nonzero;fill:rgb(100%,100%,100%);fill-opacity:0.6;" d="M 10.3125 3.4375 C 9.929688 3.4375 9.625 3.742188 9.625 4.125 L 9.625 4.46875 C 9.625 4.085938 9.929688 3.78125 10.3125 3.78125 L 11.6875 3.78125 C 12.070312 3.78125 12.375 4.085938 12.375 4.46875 L 12.375 4.125 C 12.375 3.742188 12.070312 3.4375 11.6875 3.4375 Z M 4.578125 7.871094 C 4.257812 7.851562 3.960938 8.058594 3.875 8.378906 L 3.515625 9.707031 C 3.484375 9.824219 3.488281 9.941406 3.515625 10.050781 L 3.875 8.722656 C 3.972656 8.355469 4.347656 8.136719 4.714844 8.234375 L 9.625 9.550781 L 9.625 9.207031 L 4.714844 7.890625 C 4.667969 7.878906 4.625 7.871094 4.578125 7.871094 Z M 17.421875 7.871094 C 17.375 7.871094 17.332031 7.878906 17.285156 7.890625 L 12.375 9.207031 L 12.375 9.550781 L 17.285156 8.234375 C 17.652344 8.136719 18.027344 8.355469 18.125 8.722656 L 18.484375 10.050781 C 18.511719 9.941406 18.515625 9.824219 18.484375 9.707031 L 18.125 8.378906 C 18.039062 8.058594 17.742188 7.851562 17.421875 7.871094 Z M 8.742188 12.160156 L 6.371094 16.265625 C 6.277344 16.429688 6.257812 16.613281 6.300781 16.78125 C 6.316406 16.722656 6.339844 16.664062 6.371094 16.609375 L 8.914062 12.207031 Z M 13.257812 12.160156 L 13.085938 12.207031 L 15.628906 16.609375 C 15.660156 16.664062 15.683594 16.722656 15.699219 16.78125 C 15.742188 16.613281 15.722656 16.429688 15.628906 16.265625 Z M 13.257812 12.160156 "/>
<path style=" stroke:none;fill-rule:nonzero;fill:rgb(0%,0%,0%);fill-opacity:0.4;" d="M 3.515625 10.058594 C 3.421875 10.421875 3.636719 10.792969 4.003906 10.890625 L 8.742188 12.160156 L 8.914062 11.863281 L 4.003906 10.546875 C 3.753906 10.480469 3.578125 10.289062 3.515625 10.058594 Z M 18.484375 10.058594 C 18.421875 10.289062 18.246094 10.480469 17.996094 10.546875 L 13.085938 11.863281 L 13.257812 12.160156 L 17.996094 10.890625 C 18.363281 10.792969 18.578125 10.421875 18.484375 10.058594 Z M 11 13.75 L 8.753906 17.640625 C 8.5625 17.972656 8.144531 18.082031 7.8125 17.894531 L 6.625 17.207031 C 6.457031 17.109375 6.34375 16.953125 6.300781 16.785156 C 6.226562 17.074219 6.347656 17.390625 6.625 17.550781 L 7.8125 18.238281 C 8.144531 18.425781 8.5625 18.316406 8.753906 17.984375 L 11 14.09375 L 13.246094 17.984375 C 13.4375 18.316406 13.855469 18.425781 14.1875 18.238281 L 15.375 17.550781 C 15.652344 17.390625 15.773438 17.074219 15.699219 16.785156 C 15.65625 16.953125 15.542969 17.109375 15.375 17.207031 L 14.1875 17.894531 C 13.855469 18.082031 13.4375 17.972656 13.246094 17.640625 Z M 11 13.75 "/>
<path style=" stroke:none;fill-rule:nonzero;fill:url(#linear0);" d="M 11 1.375 C 16.316406 1.375 20.625 5.683594 20.625 11 C 20.625 16.316406 16.316406 20.625 11 20.625 C 5.683594 20.625 1.375 16.316406 1.375 11 C 1.375 5.683594 5.683594 1.375 11 1.375 Z M 11 1.375 "/>
</g>
</svg>
