
<svg xmlns="http://www.w3.org/2000/svg" xmlns:xlink="http://www.w3.org/1999/xlink" width="22" height="22" viewBox="0 0 22 22" version="1.1">
<defs>
<linearGradient id="linear0" gradientUnits="userSpaceOnUse" x1="32" y1="59.999996" x2="32" y2="4" gradientTransform="matrix(0.34375,0,0,0.34375,0.013348,0.00000000000003908)">
<stop offset="0" style="stop-color:rgb(0%,0%,0%);stop-opacity:0.2;"/>
<stop offset="1" style="stop-color:rgb(100%,100%,100%);stop-opacity:0;"/>
</linearGradient>
<linearGradient id="linear1" gradientUnits="userSpaceOnUse" x1="12.7" y1="-199.125" x2="12.7" y2="-213.941666" gradientTransform="matrix(1.299213,0,0,1.299213,0.34375,279.321325)">
<stop offset="0" style="stop-color:rgb(0%,0%,0%);stop-opacity:0.2;"/>
<stop offset="1" style="stop-color:rgb(100%,100%,100%);stop-opacity:0;"/>
</linearGradient>
</defs>
<g id="surface1">
<path style=" stroke:none;fill-rule:nonzero;fill:rgb(74.117649%,74.117649%,74.117649%);fill-opacity:1;" d="M 4.8125 2.75 L 17.1875 2.75 C 17.945312 2.75 18.5625 3.367188 18.5625 4.125 L 18.5625 19.25 C 18.5625 20.007812 17.945312 20.625 17.1875 20.625 L 4.8125 20.625 C 4.054688 20.625 3.4375 20.007812 3.4375 19.25 L 3.4375 4.125 C 3.4375 3.367188 4.054688 2.75 4.8125 2.75 Z M 4.8125 2.75 "/>
<path style=" stroke:none;fill-rule:nonzero;fill:rgb(0%,0%,0%);fill-opacity:0.4;" d="M 4.890625 4.125 L 17.109375 4.125 C 17.53125 4.125 17.875 4.441406 17.875 4.835938 L 17.875 19.398438 C 17.875 19.792969 17.53125 20.109375 17.109375 20.109375 L 4.890625 20.109375 C 4.46875 20.109375 4.125 19.792969 4.125 19.398438 L 4.125 4.835938 C 4.125 4.441406 4.46875 4.125 4.890625 4.125 Z M 4.890625 4.125 "/>
<path style=" stroke:none;fill-rule:nonzero;fill:rgb(38.039216%,38.039216%,38.039216%);fill-opacity:0.996078;" d="M 4.8125 3.4375 L 17.1875 3.4375 C 17.566406 3.4375 17.875 3.746094 17.875 4.125 L 17.875 19.25 C 17.875 19.628906 17.566406 19.9375 17.1875 19.9375 L 4.8125 19.9375 C 4.433594 19.9375 4.125 19.628906 4.125 19.25 L 4.125 4.125 C 4.125 3.746094 4.433594 3.4375 4.8125 3.4375 Z M 4.8125 3.4375 "/>
<path style=" stroke:none;fill-rule:nonzero;fill:rgb(100%,100%,100%);fill-opacity:0.4;" d="M 4.8125 2.753906 C 4.050781 2.753906 3.4375 3.367188 3.4375 4.128906 L 3.4375 4.46875 C 3.4375 3.707031 4.050781 3.09375 4.8125 3.09375 L 17.1875 3.09375 C 17.949219 3.09375 18.5625 3.707031 18.5625 4.46875 L 18.5625 4.128906 C 18.5625 3.367188 17.949219 2.753906 17.1875 2.753906 Z M 4.8125 2.753906 "/>
<path style=" stroke:none;fill-rule:nonzero;fill:rgb(74.117649%,74.117649%,74.117649%);fill-opacity:1;" d="M 8.25 1.375 L 13.75 1.375 C 14.128906 1.375 14.4375 1.683594 14.4375 2.0625 L 14.4375 3.4375 C 14.4375 3.816406 14.128906 4.125 13.75 4.125 L 8.25 4.125 C 7.871094 4.125 7.5625 3.816406 7.5625 3.4375 L 7.5625 2.0625 C 7.5625 1.683594 7.871094 1.375 8.25 1.375 Z M 8.25 1.375 "/>
<path style=" stroke:none;fill-rule:nonzero;fill:rgb(0.784314%,0.784314%,0.784314%);fill-opacity:0.4;" d="M 4.8125 20.621094 C 4.050781 20.621094 3.4375 20.007812 3.4375 19.246094 L 3.4375 18.90625 C 3.4375 19.667969 4.050781 20.28125 4.8125 20.28125 L 17.1875 20.28125 C 17.949219 20.28125 18.5625 19.667969 18.5625 18.90625 L 18.5625 19.246094 C 18.5625 20.007812 17.949219 20.621094 17.1875 20.621094 Z M 4.8125 20.621094 "/>
<path style=" stroke:none;fill-rule:nonzero;fill:rgb(45.882353%,45.882353%,45.882353%);fill-opacity:0.996078;" d="M 17.875 16.5 L 14.4375 19.9375 L 17.1875 19.9375 C 17.570312 19.9375 17.875 19.632812 17.875 19.25 Z M 17.875 16.5 "/>
<path style=" stroke:none;fill-rule:nonzero;fill:rgb(87.843138%,87.843138%,87.843138%);fill-opacity:0.996078;" d="M 10.65625 8.25 L 15.46875 8.25 C 15.660156 8.25 15.8125 8.402344 15.8125 8.59375 C 15.8125 8.785156 15.660156 8.9375 15.46875 8.9375 L 10.65625 8.9375 C 10.464844 8.9375 10.3125 8.785156 10.3125 8.59375 C 10.3125 8.402344 10.464844 8.25 10.65625 8.25 Z M 10.65625 8.25 "/>
<path style=" stroke:none;fill-rule:nonzero;fill:rgb(40.000001%,73.333335%,41.568628%);fill-opacity:0.996078;" d="M 5.84375 11 L 12.71875 11 C 12.910156 11 13.0625 11.152344 13.0625 11.34375 C 13.0625 11.535156 12.910156 11.6875 12.71875 11.6875 L 5.84375 11.6875 C 5.652344 11.6875 5.5 11.535156 5.5 11.34375 C 5.5 11.152344 5.652344 11 5.84375 11 Z M 5.84375 11 "/>
<path style=" stroke:none;fill-rule:nonzero;fill:rgb(87.843138%,87.843138%,87.843138%);fill-opacity:0.996078;" d="M 8.59375 15.125 L 14.09375 15.125 C 14.285156 15.125 14.4375 15.277344 14.4375 15.46875 C 14.4375 15.660156 14.285156 15.8125 14.09375 15.8125 L 8.59375 15.8125 C 8.402344 15.8125 8.25 15.660156 8.25 15.46875 C 8.25 15.277344 8.402344 15.125 8.59375 15.125 Z M 8.59375 15.125 "/>
<path style=" stroke:none;fill-rule:nonzero;fill:rgb(87.843138%,87.843138%,87.843138%);fill-opacity:0.996078;" d="M 12.03125 12.375 L 15.46875 12.375 C 15.660156 12.375 15.8125 12.527344 15.8125 12.71875 C 15.8125 12.910156 15.660156 13.0625 15.46875 13.0625 L 12.03125 13.0625 C 11.839844 13.0625 11.6875 12.910156 11.6875 12.71875 C 11.6875 12.527344 11.839844 12.375 12.03125 12.375 Z M 12.03125 12.375 "/>
<path style=" stroke:none;fill-rule:nonzero;fill:rgb(0%,0%,0%);fill-opacity:0.2;" d="M 13.605469 17.351562 C 13.414062 17.359375 13.324219 17.597656 13.46875 17.730469 L 16.421875 20.625 L 4.8125 20.625 C 4.050781 20.625 3.4375 20.011719 3.4375 19.25 L 3.4375 19.765625 C 3.4375 20.527344 4.050781 21.140625 4.8125 21.140625 L 17.1875 21.140625 C 17.851562 21.140625 18.402344 20.675781 18.535156 20.050781 L 20.902344 17.730469 C 21.046875 17.597656 20.957031 17.359375 20.761719 17.351562 L 18.5625 19.503906 L 18.5625 19.25 C 18.5625 19.347656 18.550781 19.441406 18.535156 19.535156 L 17.597656 20.449219 C 17.371094 20.671875 17.003906 20.664062 16.769531 20.449219 Z M 13.605469 17.351562 "/>
<path style=" stroke:none;fill-rule:nonzero;fill:rgb(74.117649%,74.117649%,74.117649%);fill-opacity:1;" d="M 6.875 2.75 L 15.125 2.75 C 15.503906 2.75 15.8125 3.058594 15.8125 3.4375 L 15.8125 4.8125 C 15.8125 5.191406 15.503906 5.5 15.125 5.5 L 6.875 5.5 C 6.496094 5.5 6.1875 5.191406 6.1875 4.8125 L 6.1875 3.4375 C 6.1875 3.058594 6.496094 2.75 6.875 2.75 Z M 6.875 2.75 "/>
<path style=" stroke:none;fill-rule:nonzero;fill:rgb(61.960787%,61.960787%,61.960787%);fill-opacity:1;" d="M 7.5625 2.234375 L 14.4375 2.234375 L 14.4375 2.75 L 7.5625 2.75 Z M 7.5625 2.234375 "/>
<path style=" stroke:none;fill-rule:nonzero;fill:rgb(61.960787%,61.960787%,61.960787%);fill-opacity:1;" d="M 6.1875 3.4375 L 15.8125 3.4375 L 15.8125 4.125 L 6.1875 4.125 Z M 6.1875 3.4375 "/>
<path style=" stroke:none;fill-rule:nonzero;fill:rgb(61.960787%,61.960787%,61.960787%);fill-opacity:1;" d="M 6.1875 4.125 L 15.8125 4.125 L 15.8125 4.8125 L 6.1875 4.8125 Z M 6.1875 4.125 "/>
<path style=" stroke:none;fill-rule:nonzero;fill:rgb(0%,0%,0%);fill-opacity:0.4;" d="M 6.1875 4.640625 L 15.8125 4.640625 L 15.8125 4.8125 L 6.1875 4.8125 Z M 6.1875 4.640625 "/>
<path style=" stroke:none;fill-rule:nonzero;fill:rgb(0%,0%,0%);fill-opacity:0.4;" d="M 7.5625 2.234375 L 14.4375 2.234375 L 14.4375 2.40625 L 7.5625 2.40625 Z M 7.5625 2.234375 "/>
<path style=" stroke:none;fill-rule:nonzero;fill:rgb(0%,0%,0%);fill-opacity:0.4;" d="M 6.1875 4.8125 L 6.1875 5.15625 C 6.1875 5.539062 6.492188 5.84375 6.875 5.84375 L 15.125 5.84375 C 15.507812 5.84375 15.8125 5.539062 15.8125 5.15625 L 15.8125 4.8125 C 15.8125 5.195312 15.507812 5.5 15.125 5.5 L 6.875 5.5 C 6.492188 5.5 6.1875 5.195312 6.1875 4.8125 Z M 6.1875 4.8125 "/>
<path style=" stroke:none;fill-rule:nonzero;fill:rgb(100%,100%,100%);fill-opacity:0.4;" d="M 8.25 1.375 C 7.867188 1.375 7.5625 1.679688 7.5625 2.0625 L 7.5625 2.40625 C 7.5625 2.023438 7.867188 1.71875 8.25 1.71875 L 13.75 1.71875 C 14.132812 1.71875 14.4375 2.023438 14.4375 2.40625 L 14.4375 2.0625 C 14.4375 1.679688 14.132812 1.375 13.75 1.375 Z M 8.25 1.375 "/>
<path style=" stroke:none;fill-rule:nonzero;fill:rgb(0.784314%,0.784314%,0.784314%);fill-opacity:0.4;" d="M 7.21875 3.4375 C 7.410156 3.4375 7.5625 3.589844 7.5625 3.78125 C 7.5625 3.972656 7.410156 4.125 7.21875 4.125 C 7.027344 4.125 6.875 3.972656 6.875 3.78125 C 6.875 3.589844 7.027344 3.4375 7.21875 3.4375 Z M 7.21875 3.4375 "/>
<path style=" stroke:none;fill-rule:nonzero;fill:rgb(0%,0%,0%);fill-opacity:0.4;" d="M 7.210938 3.4375 C 7.023438 3.441406 6.875 3.59375 6.875 3.78125 C 6.875 3.8125 6.878906 3.839844 6.886719 3.867188 C 6.921875 3.71875 7.058594 3.609375 7.21875 3.609375 C 7.378906 3.609375 7.515625 3.71875 7.550781 3.867188 C 7.558594 3.839844 7.5625 3.8125 7.5625 3.78125 C 7.5625 3.589844 7.410156 3.4375 7.21875 3.4375 C 7.214844 3.4375 7.214844 3.4375 7.210938 3.4375 Z M 7.210938 3.4375 "/>
<path style=" stroke:none;fill-rule:nonzero;fill:rgb(100%,100%,100%);fill-opacity:0.4;" d="M 7.210938 4.296875 C 7.023438 4.292969 6.875 4.140625 6.875 3.953125 C 6.875 3.921875 6.878906 3.894531 6.886719 3.867188 C 6.921875 4.015625 7.058594 4.125 7.21875 4.125 C 7.378906 4.125 7.515625 4.015625 7.550781 3.867188 C 7.558594 3.894531 7.5625 3.921875 7.5625 3.953125 C 7.5625 4.144531 7.410156 4.296875 7.21875 4.296875 C 7.214844 4.296875 7.214844 4.296875 7.210938 4.296875 Z M 7.210938 4.296875 "/>
<path style=" stroke:none;fill-rule:nonzero;fill:rgb(0.784314%,0.784314%,0.784314%);fill-opacity:0.4;" d="M 11.011719 3.4375 C 11.199219 3.4375 11.355469 3.589844 11.355469 3.78125 C 11.355469 3.972656 11.199219 4.125 11.011719 4.125 C 10.820312 4.125 10.667969 3.972656 10.667969 3.78125 C 10.667969 3.589844 10.820312 3.4375 11.011719 3.4375 Z M 11.011719 3.4375 "/>
<path style=" stroke:none;fill-rule:nonzero;fill:rgb(0%,0%,0%);fill-opacity:0.4;" d="M 11.003906 3.4375 C 10.816406 3.441406 10.667969 3.59375 10.667969 3.78125 C 10.667969 3.8125 10.671875 3.839844 10.675781 3.867188 C 10.714844 3.71875 10.851562 3.609375 11.011719 3.609375 C 11.171875 3.609375 11.304688 3.71875 11.34375 3.867188 C 11.351562 3.839844 11.355469 3.8125 11.355469 3.78125 C 11.355469 3.589844 11.203125 3.4375 11.011719 3.4375 C 11.007812 3.4375 11.003906 3.4375 11.003906 3.4375 Z M 11.003906 3.4375 "/>
<path style=" stroke:none;fill-rule:nonzero;fill:rgb(100%,100%,100%);fill-opacity:0.4;" d="M 11.003906 4.296875 C 10.816406 4.292969 10.667969 4.140625 10.667969 3.953125 C 10.667969 3.921875 10.671875 3.894531 10.679688 3.867188 C 10.714844 4.015625 10.851562 4.125 11.011719 4.125 C 11.171875 4.125 11.304688 4.015625 11.34375 3.867188 C 11.351562 3.894531 11.355469 3.921875 11.355469 3.953125 C 11.355469 4.144531 11.203125 4.296875 11.011719 4.296875 C 11.007812 4.296875 11.003906 4.296875 11.003906 4.296875 Z M 11.003906 4.296875 "/>
<path style=" stroke:none;fill-rule:nonzero;fill:rgb(0.784314%,0.784314%,0.784314%);fill-opacity:0.4;" d="M 14.792969 3.4375 C 14.980469 3.4375 15.136719 3.589844 15.136719 3.78125 C 15.136719 3.972656 14.980469 4.125 14.792969 4.125 C 14.601562 4.125 14.449219 3.972656 14.449219 3.78125 C 14.449219 3.589844 14.601562 3.4375 14.792969 3.4375 Z M 14.792969 3.4375 "/>
<path style=" stroke:none;fill-rule:nonzero;fill:rgb(0%,0%,0%);fill-opacity:0.4;" d="M 14.785156 3.4375 C 14.597656 3.441406 14.449219 3.59375 14.449219 3.78125 C 14.449219 3.8125 14.453125 3.839844 14.457031 3.867188 C 14.496094 3.71875 14.632812 3.609375 14.792969 3.609375 C 14.953125 3.609375 15.085938 3.71875 15.125 3.867188 C 15.132812 3.839844 15.136719 3.8125 15.136719 3.78125 C 15.136719 3.589844 14.984375 3.4375 14.792969 3.4375 C 14.789062 3.4375 14.785156 3.4375 14.785156 3.4375 Z M 14.785156 3.4375 "/>
<path style=" stroke:none;fill-rule:nonzero;fill:rgb(100%,100%,100%);fill-opacity:0.4;" d="M 14.785156 4.296875 C 14.597656 4.292969 14.449219 4.140625 14.449219 3.953125 C 14.449219 3.921875 14.453125 3.894531 14.457031 3.867188 C 14.496094 4.015625 14.632812 4.125 14.792969 4.125 C 14.953125 4.125 15.085938 4.015625 15.125 3.867188 C 15.132812 3.894531 15.136719 3.921875 15.136719 3.953125 C 15.136719 4.144531 14.984375 4.296875 14.792969 4.296875 C 14.789062 4.296875 14.785156 4.296875 14.785156 4.296875 Z M 14.785156 4.296875 "/>
<path style=" stroke:none;fill-rule:nonzero;fill:rgb(95.686275%,26.274511%,21.176471%);fill-opacity:0.996078;" d="M 9.28125 6.875 L 14.09375 6.875 C 14.285156 6.875 14.4375 7.027344 14.4375 7.21875 C 14.4375 7.410156 14.285156 7.5625 14.09375 7.5625 L 9.28125 7.5625 C 9.089844 7.5625 8.9375 7.410156 8.9375 7.21875 C 8.9375 7.027344 9.089844 6.875 9.28125 6.875 Z M 9.28125 6.875 "/>
<path style=" stroke:none;fill-rule:nonzero;fill:rgb(40.000001%,73.333335%,41.568628%);fill-opacity:0.996078;" d="M 5.84375 16.5 L 11.34375 16.5 C 11.535156 16.5 11.6875 16.652344 11.6875 16.84375 C 11.6875 17.035156 11.535156 17.1875 11.34375 17.1875 L 5.84375 17.1875 C 5.652344 17.1875 5.5 17.035156 5.5 16.84375 C 5.5 16.652344 5.652344 16.5 5.84375 16.5 Z M 5.84375 16.5 "/>
<path style=" stroke:none;fill-rule:nonzero;fill:url(#linear0);" d="M 8.261719 1.375 C 7.882812 1.375 7.574219 1.679688 7.574219 2.0625 L 7.574219 2.75 L 4.824219 2.75 C 4.0625 2.75 3.449219 3.363281 3.449219 4.125 L 3.449219 19.25 C 3.449219 20.011719 4.0625 20.625 4.824219 20.625 L 17.199219 20.625 C 17.960938 20.625 18.574219 20.011719 18.574219 19.25 L 18.574219 4.125 C 18.574219 3.363281 17.960938 2.75 17.199219 2.75 L 14.449219 2.75 L 14.449219 2.0625 C 14.449219 1.679688 14.144531 1.375 13.761719 1.375 Z M 8.261719 1.375 "/>
<path style=" stroke:none;fill-rule:nonzero;fill:rgb(40.000001%,73.333335%,41.568628%);fill-opacity:1;" d="M 15.808594 10.984375 C 15.425781 10.984375 15.117188 11.289062 15.117188 11.671875 L 15.117188 16.835938 L 13.617188 16.835938 C 13.414062 16.835938 13.320312 17.082031 13.46875 17.214844 L 16.769531 20.449219 C 17.003906 20.667969 17.371094 20.675781 17.597656 20.449219 L 20.902344 17.214844 C 21.046875 17.082031 20.953125 16.835938 20.753906 16.835938 L 19.25 16.835938 L 19.25 11.671875 C 19.25 11.289062 18.941406 10.984375 18.5625 10.984375 Z M 15.808594 10.984375 "/>
<path style=" stroke:none;fill-rule:nonzero;fill:rgb(100%,100%,100%);fill-opacity:0.4;" d="M 15.808594 10.984375 C 15.425781 10.984375 15.117188 11.289062 15.117188 11.671875 L 15.117188 12.023438 C 15.117188 11.640625 15.425781 11.335938 15.808594 11.335938 L 18.5625 11.335938 C 18.941406 11.335938 19.25 11.640625 19.25 12.023438 L 19.25 11.671875 C 19.25 11.289062 18.941406 10.984375 18.5625 10.984375 Z M 13.617188 16.835938 C 13.417969 16.835938 13.320312 17.082031 13.46875 17.214844 L 13.484375 17.230469 C 13.519531 17.203125 13.5625 17.1875 13.617188 17.1875 L 15.117188 17.1875 L 15.117188 16.835938 Z M 19.25 16.835938 L 19.25 17.1875 L 20.753906 17.1875 C 20.804688 17.1875 20.851562 17.203125 20.886719 17.230469 L 20.902344 17.214844 C 21.046875 17.082031 20.953125 16.835938 20.753906 16.835938 Z M 19.25 16.835938 "/>
<path style=" stroke:none;fill-rule:nonzero;fill:rgb(0%,0%,0%);fill-opacity:0.4;" d="M 13.476562 16.882812 C 13.382812 16.964844 13.359375 17.117188 13.46875 17.214844 L 16.769531 20.449219 C 17.003906 20.667969 17.371094 20.675781 17.597656 20.449219 L 20.902344 17.214844 C 21.007812 17.117188 20.988281 16.964844 20.890625 16.882812 L 17.597656 20.109375 C 17.371094 20.332031 17.003906 20.324219 16.769531 20.109375 Z M 13.476562 16.882812 "/>
<path style=" stroke:none;fill-rule:nonzero;fill:url(#linear1);" d="M 15.808594 10.984375 C 15.425781 10.984375 15.117188 11.289062 15.117188 11.671875 L 15.117188 16.835938 L 13.617188 16.835938 C 13.414062 16.835938 13.320312 17.082031 13.46875 17.214844 L 16.769531 20.449219 C 17.003906 20.667969 17.371094 20.675781 17.597656 20.449219 L 20.902344 17.214844 C 21.046875 17.082031 20.953125 16.835938 20.753906 16.835938 L 19.25 16.835938 L 19.25 11.671875 C 19.25 11.289062 18.941406 10.984375 18.5625 10.984375 Z M 15.808594 10.984375 "/>
</g>
</svg>
