
<svg xmlns="http://www.w3.org/2000/svg" xmlns:xlink="http://www.w3.org/1999/xlink" width="22" height="22" viewBox="0 0 22 22" version="1.1">
<defs>
<linearGradient id="linear0" gradientUnits="userSpaceOnUse" x1="8.466666" y1="-199.125" x2="8.466666" y2="-213.941666" gradientTransform="matrix(1.299213,0,0,1.299213,-0.00000434109,279.330723)">
<stop offset="0" style="stop-color:rgb(0%,0%,0%);stop-opacity:0.2;"/>
<stop offset="1" style="stop-color:rgb(100%,100%,100%);stop-opacity:0;"/>
</linearGradient>
<linearGradient id="linear1" gradientUnits="userSpaceOnUse" x1="46" y1="60" x2="46" y2="29.999998" gradientTransform="matrix(0.34375,0,0,0.34375,0.0195185,0.00000000000003908)">
<stop offset="0" style="stop-color:rgb(0%,0%,0%);stop-opacity:0.2;"/>
<stop offset="1" style="stop-color:rgb(100%,100%,100%);stop-opacity:0;"/>
</linearGradient>
</defs>
<g id="surface1">
<path style=" stroke:none;fill-rule:nonzero;fill:rgb(93.333334%,93.333334%,93.333334%);fill-opacity:1;" d="M 2.75 1.375 L 19.25 1.375 C 20.011719 1.375 20.625 1.992188 20.625 2.75 L 20.625 19.25 C 20.625 20.007812 20.011719 20.625 19.25 20.625 L 2.75 20.625 C 1.992188 20.625 1.375 20.007812 1.375 19.25 L 1.375 2.75 C 1.375 1.992188 1.992188 1.375 2.75 1.375 Z M 2.75 1.375 "/>
<path style=" stroke:none;fill-rule:nonzero;fill:rgb(38.039216%,38.039216%,38.039216%);fill-opacity:0.992157;" d="M 3.609375 13.0625 L 4.640625 13.0625 C 4.734375 13.0625 4.8125 13.140625 4.8125 13.234375 L 4.8125 13.578125 C 4.8125 13.671875 4.734375 13.75 4.640625 13.75 L 3.609375 13.75 C 3.515625 13.75 3.4375 13.671875 3.4375 13.578125 L 3.4375 13.234375 C 3.4375 13.140625 3.515625 13.0625 3.609375 13.0625 Z M 3.609375 13.0625 "/>
<path style=" stroke:none;fill-rule:nonzero;fill:rgb(38.039216%,38.039216%,38.039216%);fill-opacity:0.992157;" d="M 5.671875 13.0625 L 6.703125 13.0625 C 6.796875 13.0625 6.875 13.140625 6.875 13.234375 L 6.875 13.578125 C 6.875 13.671875 6.796875 13.75 6.703125 13.75 L 5.671875 13.75 C 5.578125 13.75 5.5 13.671875 5.5 13.578125 L 5.5 13.234375 C 5.5 13.140625 5.578125 13.0625 5.671875 13.0625 Z M 5.671875 13.0625 "/>
<path style=" stroke:none;fill-rule:nonzero;fill:rgb(38.039216%,38.039216%,38.039216%);fill-opacity:0.992157;" d="M 7.734375 13.0625 L 8.765625 13.0625 C 8.859375 13.0625 8.9375 13.140625 8.9375 13.234375 L 8.9375 13.578125 C 8.9375 13.671875 8.859375 13.75 8.765625 13.75 L 7.734375 13.75 C 7.640625 13.75 7.5625 13.671875 7.5625 13.578125 L 7.5625 13.234375 C 7.5625 13.140625 7.640625 13.0625 7.734375 13.0625 Z M 7.734375 13.0625 "/>
<path style=" stroke:none;fill-rule:nonzero;fill:rgb(95.686275%,26.274511%,21.176471%);fill-opacity:1;" d="M 2.75 1.375 C 1.988281 1.375 1.375 1.988281 1.375 2.75 L 1.375 6.1875 C 1.375 6.949219 1.988281 7.5625 2.75 7.5625 L 3.4375 7.5625 L 3.4375 1.375 Z M 2.75 1.375 "/>
<path style=" stroke:none;fill-rule:nonzero;fill:rgb(95.686275%,26.274511%,21.176471%);fill-opacity:1;" d="M 11 1.375 L 11 20.625 L 19.25 20.625 C 20.011719 20.625 20.625 20.011719 20.625 19.25 L 20.625 2.75 C 20.625 1.988281 20.011719 1.375 19.25 1.375 Z M 11 1.375 "/>
<path style=" stroke:none;fill-rule:nonzero;fill:rgb(47.058824%,56.470591%,61.176473%);fill-opacity:1;" d="M 1.375 15.125 L 1.375 19.25 C 1.375 20.011719 1.988281 20.625 2.75 20.625 L 19.25 20.625 C 20.011719 20.625 20.625 20.011719 20.625 19.25 L 20.625 15.125 C 20.625 15.886719 20.011719 16.5 19.25 16.5 L 2.75 16.5 C 1.988281 16.5 1.375 15.886719 1.375 15.125 Z M 1.375 15.125 "/>
<path style=" stroke:none;fill-rule:nonzero;fill:rgb(0%,0%,0%);fill-opacity:0.4;" d="M 1.375 18.90625 L 1.375 19.25 C 1.375 20.011719 1.988281 20.625 2.75 20.625 L 19.25 20.625 C 20.011719 20.625 20.625 20.011719 20.625 19.25 L 20.625 18.90625 C 20.625 19.667969 20.011719 20.28125 19.25 20.28125 L 2.75 20.28125 C 1.988281 20.28125 1.375 19.667969 1.375 18.90625 Z M 1.375 18.90625 "/>
<path style=" stroke:none;fill-rule:nonzero;fill:rgb(0%,0%,0%);fill-opacity:0.2;" d="M 1.375 19.25 L 1.375 19.765625 C 1.375 20.527344 1.988281 21.140625 2.75 21.140625 L 19.25 21.140625 C 20.011719 21.140625 20.625 20.527344 20.625 19.765625 L 20.625 19.25 C 20.625 20.011719 20.011719 20.625 19.25 20.625 L 2.75 20.625 C 1.988281 20.625 1.375 20.011719 1.375 19.25 Z M 1.375 19.25 "/>
<path style=" stroke:none;fill-rule:nonzero;fill:rgb(45.882353%,45.882353%,45.882353%);fill-opacity:0.992157;" d="M 2.75 1.375 L 19.25 1.375 C 20.007812 1.375 20.625 1.992188 20.625 2.75 C 20.625 3.507812 20.007812 4.125 19.25 4.125 L 2.75 4.125 C 1.992188 4.125 1.375 3.507812 1.375 2.75 C 1.375 1.992188 1.992188 1.375 2.75 1.375 Z M 2.75 1.375 "/>
<path style=" stroke:none;fill-rule:nonzero;fill:rgb(100%,100%,100%);fill-opacity:0.4;" d="M 2.75 1.375 C 1.988281 1.375 1.375 1.988281 1.375 2.75 L 1.375 3.089844 C 1.375 2.328125 1.988281 1.714844 2.75 1.714844 L 19.25 1.714844 C 20.011719 1.714844 20.625 2.328125 20.625 3.089844 L 20.625 2.75 C 20.625 1.988281 20.011719 1.375 19.25 1.375 Z M 2.75 1.375 "/>
<path style=" stroke:none;fill-rule:nonzero;fill:rgb(87.843138%,87.843138%,87.843138%);fill-opacity:1;" d="M 15.488281 12.03125 L 16.863281 12.03125 C 17.054688 12.03125 17.207031 12.183594 17.207031 12.375 L 17.207031 13.75 C 17.207031 13.941406 17.054688 14.09375 16.863281 14.09375 L 15.488281 14.09375 C 15.296875 14.09375 15.144531 13.941406 15.144531 13.75 L 15.144531 12.375 C 15.144531 12.183594 15.296875 12.03125 15.488281 12.03125 Z M 15.488281 12.03125 "/>
<path style=" stroke:none;fill-rule:nonzero;fill:rgb(0%,0%,0%);fill-opacity:0.4;" d="M 15.144531 13.75 L 15.144531 14.09375 C 15.144531 14.285156 15.296875 14.4375 15.488281 14.4375 L 16.863281 14.4375 C 17.054688 14.4375 17.207031 14.285156 17.207031 14.09375 L 17.207031 13.75 C 17.207031 13.941406 17.054688 14.09375 16.863281 14.09375 L 15.488281 14.09375 C 15.296875 14.09375 15.144531 13.941406 15.144531 13.75 Z M 15.144531 13.75 "/>
<path style=" stroke:none;fill-rule:nonzero;fill:rgb(100%,100%,100%);fill-opacity:0.8;" d="M 15.144531 12.71875 L 15.144531 12.375 C 15.144531 12.183594 15.296875 12.03125 15.488281 12.03125 L 16.863281 12.03125 C 17.054688 12.03125 17.207031 12.183594 17.207031 12.375 L 17.207031 12.71875 C 17.207031 12.527344 17.054688 12.375 16.863281 12.375 L 15.488281 12.375 C 15.296875 12.375 15.144531 12.527344 15.144531 12.71875 Z M 15.144531 12.71875 "/>
<path style=" stroke:none;fill-rule:nonzero;fill:rgb(0%,0%,0%);fill-opacity:0.4;" d="M 15.832031 10.3125 L 15.832031 10.65625 L 15.144531 10.65625 C 14.761719 10.65625 14.457031 10.960938 14.457031 11.34375 L 14.457031 11 C 14.457031 10.617188 14.761719 10.3125 15.144531 10.3125 Z M 15.832031 10.3125 "/>
<path style=" stroke:none;fill-rule:nonzero;fill:rgb(100%,100%,100%);fill-opacity:0.4;" d="M 15.832031 17.53125 L 15.832031 17.1875 L 15.144531 17.1875 C 14.761719 17.1875 14.457031 16.882812 14.457031 16.5 L 14.457031 16.84375 C 14.457031 17.226562 14.761719 17.53125 15.144531 17.53125 Z M 15.832031 17.53125 "/>
<path style=" stroke:none;fill-rule:nonzero;fill:url(#linear0);" d="M 2.75 1.375 L 19.25 1.375 C 20.007812 1.375 20.625 1.992188 20.625 2.75 L 20.625 19.25 C 20.625 20.007812 20.007812 20.625 19.25 20.625 L 2.75 20.625 C 1.992188 20.625 1.375 20.007812 1.375 19.25 L 1.375 2.75 C 1.375 1.992188 1.992188 1.375 2.75 1.375 Z M 2.75 1.375 "/>
<path style=" stroke:none;fill-rule:nonzero;fill:rgb(93.333334%,93.333334%,93.333334%);fill-opacity:0.996078;" d="M 15.488281 10.3125 C 12.632812 10.3125 10.332031 12.613281 10.332031 15.46875 C 10.332031 18.324219 12.632812 20.625 15.488281 20.625 C 18.34375 20.625 20.644531 18.324219 20.644531 15.46875 C 20.644531 12.613281 18.34375 10.3125 15.488281 10.3125 Z M 15.460938 14.4375 C 15.46875 14.4375 15.480469 14.4375 15.488281 14.4375 C 16.058594 14.4375 16.519531 14.898438 16.519531 15.46875 C 16.519531 16.039062 16.058594 16.5 15.488281 16.5 C 14.917969 16.5 14.457031 16.039062 14.457031 15.46875 C 14.457031 14.90625 14.902344 14.453125 15.460938 14.4375 Z M 15.460938 14.4375 "/>
<path style=" stroke:none;fill-rule:nonzero;fill:rgb(87.843138%,87.843138%,87.843138%);fill-opacity:0.996078;" d="M 15.488281 13.0625 C 14.15625 13.0625 13.082031 14.136719 13.082031 15.46875 C 13.082031 16.800781 14.15625 17.875 15.488281 17.875 C 16.820312 17.875 17.894531 16.800781 17.894531 15.46875 C 17.894531 14.136719 16.820312 13.0625 15.488281 13.0625 Z M 15.460938 14.4375 C 15.46875 14.4375 15.480469 14.4375 15.488281 14.4375 C 16.058594 14.4375 16.519531 14.898438 16.519531 15.46875 C 16.519531 16.039062 16.058594 16.5 15.488281 16.5 C 14.917969 16.5 14.457031 16.039062 14.457031 15.46875 C 14.457031 14.90625 14.902344 14.453125 15.460938 14.4375 Z M 15.460938 14.4375 "/>
<path style=" stroke:none;fill-rule:nonzero;fill:rgb(100%,100%,100%);fill-opacity:0.6;" d="M 15.488281 13.0625 C 14.15625 13.0625 13.082031 14.136719 13.082031 15.46875 C 13.082031 15.496094 13.082031 15.519531 13.085938 15.546875 C 13.132812 14.257812 14.1875 13.234375 15.488281 13.234375 C 16.789062 13.234375 17.84375 14.257812 17.890625 15.546875 C 17.894531 15.519531 17.894531 15.496094 17.894531 15.46875 C 17.894531 14.136719 16.820312 13.0625 15.488281 13.0625 Z M 16.515625 15.550781 C 16.472656 16.082031 16.03125 16.5 15.488281 16.5 C 14.945312 16.5 14.503906 16.082031 14.460938 15.550781 C 14.457031 15.582031 14.457031 15.609375 14.457031 15.640625 C 14.457031 16.210938 14.917969 16.671875 15.488281 16.671875 C 16.058594 16.671875 16.519531 16.210938 16.519531 15.640625 C 16.519531 15.609375 16.519531 15.582031 16.515625 15.550781 Z M 16.515625 15.550781 "/>
<path style=" stroke:none;fill-rule:nonzero;fill:rgb(0%,0%,0%);fill-opacity:0.4;" d="M 15.488281 18.046875 C 14.15625 18.046875 13.082031 16.972656 13.082031 15.640625 C 13.082031 15.613281 13.082031 15.589844 13.082031 15.5625 C 13.132812 16.851562 14.1875 17.875 15.488281 17.875 C 16.789062 17.875 17.84375 16.851562 17.890625 15.5625 C 17.894531 15.589844 17.894531 15.613281 17.894531 15.640625 C 17.894531 16.972656 16.820312 18.046875 15.488281 18.046875 Z M 16.515625 15.558594 C 16.472656 15.027344 16.03125 14.609375 15.488281 14.609375 C 14.945312 14.609375 14.503906 15.027344 14.460938 15.558594 C 14.457031 15.527344 14.457031 15.5 14.457031 15.46875 C 14.457031 14.898438 14.917969 14.4375 15.488281 14.4375 C 16.058594 14.4375 16.519531 14.898438 16.519531 15.46875 C 16.519531 15.5 16.519531 15.527344 16.515625 15.558594 Z M 16.515625 15.558594 "/>
<path style=" stroke:none;fill-rule:nonzero;fill:rgb(100%,100%,100%);fill-opacity:0.4;" d="M 15.488281 10.3125 C 12.632812 10.3125 10.332031 12.613281 10.332031 15.46875 C 10.332031 15.484375 10.332031 15.5 10.332031 15.519531 C 10.398438 12.71875 12.671875 10.484375 15.488281 10.484375 C 18.304688 10.484375 20.578125 12.71875 20.644531 15.519531 C 20.644531 15.5 20.644531 15.484375 20.644531 15.46875 C 20.644531 12.613281 18.34375 10.3125 15.488281 10.3125 Z M 16.515625 15.550781 C 16.472656 16.082031 16.03125 16.5 15.488281 16.5 C 14.945312 16.5 14.503906 16.082031 14.460938 15.550781 C 14.457031 15.582031 14.457031 15.609375 14.457031 15.640625 C 14.457031 16.210938 14.917969 16.671875 15.488281 16.671875 C 16.058594 16.671875 16.519531 16.210938 16.519531 15.640625 C 16.519531 15.609375 16.519531 15.582031 16.515625 15.550781 Z M 16.515625 15.550781 "/>
<path style=" stroke:none;fill-rule:nonzero;fill:rgb(100%,100%,100%);fill-opacity:0.8;" d="M 12.25 12.230469 C 11.859375 12.625 11.539062 13.085938 11.304688 13.597656 L 12.011719 13.921875 C 12.398438 13.066406 13.085938 12.378906 13.941406 11.992188 L 13.617188 11.285156 C 13.105469 11.519531 12.644531 11.839844 12.25 12.230469 Z M 13.074219 13.054688 C 12.78125 13.351562 12.539062 13.695312 12.367188 14.082031 L 13.070312 14.402344 C 13.34375 13.804688 13.824219 13.324219 14.421875 13.050781 L 14.101562 12.347656 C 13.714844 12.519531 13.371094 12.761719 13.074219 13.054688 Z M 16.667969 18 L 16.988281 18.703125 C 17.375 18.53125 17.71875 18.289062 18.015625 17.996094 C 18.308594 17.699219 18.550781 17.355469 18.722656 16.96875 L 18.019531 16.648438 C 17.746094 17.246094 17.265625 17.726562 16.667969 18 Z M 17.148438 19.058594 L 17.472656 19.765625 C 17.984375 19.535156 18.445312 19.210938 18.839844 18.820312 C 19.230469 18.425781 19.554688 17.964844 19.785156 17.453125 L 19.078125 17.128906 C 18.691406 17.984375 18.003906 18.671875 17.148438 19.058594 Z M 17.148438 19.058594 "/>
<path style=" stroke:none;fill-rule:nonzero;fill:rgb(0.392157%,0.392157%,0.392157%);fill-opacity:0.4;" d="M 15.488281 20.625 C 12.632812 20.625 10.332031 18.324219 10.332031 15.46875 C 10.332031 15.453125 10.332031 15.4375 10.332031 15.417969 C 10.398438 18.21875 12.671875 20.453125 15.488281 20.453125 C 18.304688 20.453125 20.578125 18.21875 20.644531 15.417969 C 20.644531 15.4375 20.644531 15.453125 20.644531 15.46875 C 20.644531 18.324219 18.34375 20.625 15.488281 20.625 Z M 16.515625 15.386719 C 16.472656 14.855469 16.03125 14.4375 15.488281 14.4375 C 14.945312 14.4375 14.503906 14.855469 14.460938 15.386719 C 14.457031 15.355469 14.457031 15.328125 14.457031 15.296875 C 14.457031 14.726562 14.917969 14.265625 15.488281 14.265625 C 16.058594 14.265625 16.519531 14.726562 16.519531 15.296875 C 16.519531 15.328125 16.519531 15.355469 16.515625 15.386719 Z M 16.515625 15.386719 "/>
<path style=" stroke:none;fill-rule:nonzero;fill:url(#linear1);" d="M 15.488281 10.3125 C 12.632812 10.3125 10.332031 12.613281 10.332031 15.46875 C 10.332031 18.324219 12.632812 20.625 15.488281 20.625 C 18.34375 20.625 20.644531 18.324219 20.644531 15.46875 C 20.644531 12.613281 18.34375 10.3125 15.488281 10.3125 Z M 15.460938 14.4375 C 15.46875 14.4375 15.480469 14.4375 15.488281 14.4375 C 16.058594 14.4375 16.519531 14.898438 16.519531 15.46875 C 16.519531 16.039062 16.058594 16.5 15.488281 16.5 C 14.917969 16.5 14.457031 16.039062 14.457031 15.46875 C 14.457031 14.90625 14.902344 14.453125 15.460938 14.4375 Z M 15.460938 14.4375 "/>
<path style=" stroke:none;fill-rule:nonzero;fill:rgb(0%,0%,0%);fill-opacity:0.2;" d="M 15.460938 14.4375 C 14.902344 14.453125 14.457031 14.90625 14.457031 15.46875 C 14.457031 15.558594 14.46875 15.644531 14.488281 15.726562 C 14.601562 15.289062 14.992188 14.964844 15.460938 14.953125 C 15.46875 14.953125 15.480469 14.953125 15.488281 14.953125 C 15.96875 14.953125 16.375 15.28125 16.488281 15.726562 C 16.507812 15.644531 16.519531 15.558594 16.519531 15.46875 C 16.519531 14.898438 16.058594 14.4375 15.488281 14.4375 C 15.480469 14.4375 15.46875 14.4375 15.460938 14.4375 Z M 10.339844 15.726562 C 10.335938 15.8125 10.332031 15.898438 10.332031 15.984375 C 10.332031 18.03125 11.511719 19.789062 13.230469 20.625 L 15.488281 20.625 C 12.71875 20.625 10.472656 18.460938 10.339844 15.726562 Z M 15.488281 20.625 L 17.746094 20.625 C 19.464844 19.789062 20.644531 18.03125 20.644531 15.984375 C 20.644531 15.898438 20.640625 15.8125 20.636719 15.726562 C 20.503906 18.460938 18.257812 20.625 15.488281 20.625 Z M 15.488281 20.625 "/>
<path style=" stroke:none;fill-rule:nonzero;fill:rgb(100%,100%,100%);fill-opacity:0.4;" d="M 1.386719 2.921875 C 1.378906 2.976562 1.375 3.035156 1.375 3.09375 C 1.375 3.855469 1.988281 4.46875 2.75 4.46875 L 19.25 4.46875 C 20.011719 4.46875 20.625 3.855469 20.625 3.09375 C 20.625 3.035156 20.621094 2.976562 20.613281 2.921875 C 20.53125 3.601562 19.953125 4.125 19.25 4.125 L 2.75 4.125 C 2.046875 4.125 1.46875 3.601562 1.386719 2.921875 Z M 1.386719 2.921875 "/>
<path style=" stroke:none;fill-rule:nonzero;fill:rgb(93.333334%,93.333334%,93.333334%);fill-opacity:0.992157;" d="M 12.546875 6.1875 L 14.265625 6.1875 C 14.359375 6.1875 14.4375 6.265625 14.4375 6.359375 L 14.4375 6.703125 C 14.4375 6.796875 14.359375 6.875 14.265625 6.875 L 12.546875 6.875 C 12.453125 6.875 12.375 6.796875 12.375 6.703125 L 12.375 6.359375 C 12.375 6.265625 12.453125 6.1875 12.546875 6.1875 Z M 12.546875 6.1875 "/>
<path style=" stroke:none;fill-rule:nonzero;fill:rgb(93.333334%,93.333334%,93.333334%);fill-opacity:0.992157;" d="M 15.296875 6.1875 L 17.015625 6.1875 C 17.109375 6.1875 17.1875 6.265625 17.1875 6.359375 L 17.1875 6.703125 C 17.1875 6.796875 17.109375 6.875 17.015625 6.875 L 15.296875 6.875 C 15.203125 6.875 15.125 6.796875 15.125 6.703125 L 15.125 6.359375 C 15.125 6.265625 15.203125 6.1875 15.296875 6.1875 Z M 15.296875 6.1875 "/>
<path style=" stroke:none;fill-rule:nonzero;fill:rgb(93.333334%,93.333334%,93.333334%);fill-opacity:0.992157;" d="M 18.046875 6.1875 L 19.078125 6.1875 C 19.171875 6.1875 19.25 6.265625 19.25 6.359375 L 19.25 6.703125 C 19.25 6.796875 19.171875 6.875 19.078125 6.875 L 18.046875 6.875 C 17.953125 6.875 17.875 6.796875 17.875 6.703125 L 17.875 6.359375 C 17.875 6.265625 17.953125 6.1875 18.046875 6.1875 Z M 18.046875 6.1875 "/>
</g>
</svg>
