
<svg xmlns="http://www.w3.org/2000/svg" xmlns:xlink="http://www.w3.org/1999/xlink" width="48" height="48" viewBox="0 0 48 48" version="1.1">
<defs>
<linearGradient id="linear0" gradientUnits="userSpaceOnUse" x1="8.466666" y1="-199.125" x2="8.466666" y2="-213.941666" gradientTransform="matrix(2.834646,0,0,2.834646,0,609.448837)">
<stop offset="0" style="stop-color:rgb(0%,0%,0%);stop-opacity:0.2;"/>
<stop offset="1" style="stop-color:rgb(100%,100%,100%);stop-opacity:0;"/>
</linearGradient>
</defs>
<g id="surface1">
<path style=" stroke:none;fill-rule:nonzero;fill:rgb(100%,79.215688%,15.686275%);fill-opacity:1;" d="M 24 2.996094 C 35.597656 2.996094 45.003906 12.398438 45.003906 24 C 45.003906 35.597656 35.597656 45.003906 24 45.003906 C 12.398438 45.003906 2.996094 35.597656 2.996094 24 C 2.996094 12.398438 12.398438 2.996094 24 2.996094 Z M 24 2.996094 "/>
<path style=" stroke:none;fill-rule:nonzero;fill:rgb(95.686275%,26.274511%,21.176471%);fill-opacity:1;" d="M 12.542969 16.296875 L 12.542969 20.179688 L 15.128906 20.179688 L 15.128906 31.824219 L 19.011719 31.824219 L 19.011719 16.296875 Z M 29.359375 16.296875 C 25.070312 16.296875 21.597656 19.777344 21.597656 24.0625 C 21.597656 28.347656 25.070312 31.824219 29.359375 31.824219 L 43.507812 31.824219 C 44.003906 30.582031 44.386719 29.285156 44.636719 27.941406 L 29.355469 27.941406 C 27.214844 27.941406 25.476562 26.203125 25.476562 24.0625 C 25.476562 21.917969 27.214844 20.179688 29.355469 20.179688 C 30.457031 20.183594 31.503906 20.652344 32.242188 21.472656 L 36.660156 21.472656 C 35.566406 18.378906 32.644531 16.304688 29.359375 16.296875 Z M 29.359375 16.296875 "/>
<path style=" stroke:none;fill-rule:nonzero;fill:url(#linear0);" d="M 24 3 C 35.597656 3 45 12.402344 45 24 C 45 35.597656 35.597656 44.996094 24 44.996094 C 12.402344 44.996094 3 35.597656 3 24 C 3 12.402344 12.402344 3 24 3 Z M 24 3 "/>
<path style=" stroke:none;fill-rule:nonzero;fill:rgb(0%,0%,0%);fill-opacity:0.4;" d="M 12.542969 20.175781 L 12.542969 20.925781 L 15.128906 20.925781 L 15.128906 20.175781 Z M 29.355469 20.175781 C 27.214844 20.175781 25.476562 21.910156 25.476562 24.054688 C 25.476562 24.183594 25.480469 24.304688 25.496094 24.429688 C 25.683594 22.460938 27.339844 20.925781 29.355469 20.925781 C 30.457031 20.925781 31.507812 21.394531 32.242188 22.21875 L 36.660156 22.21875 C 36.570312 21.960938 36.464844 21.707031 36.351562 21.46875 L 32.242188 21.46875 C 31.507812 20.644531 30.457031 20.175781 29.355469 20.175781 Z M 21.605469 24.429688 C 21.597656 24.554688 21.597656 24.679688 21.597656 24.804688 C 21.597656 29.089844 25.070312 32.566406 29.359375 32.566406 L 43.175781 32.566406 C 43.285156 32.320312 43.390625 32.066406 43.496094 31.816406 L 29.359375 31.816406 C 25.195312 31.816406 21.800781 28.542969 21.605469 24.429688 Z M 15.128906 31.816406 L 15.128906 32.566406 L 19.011719 32.566406 L 19.011719 31.816406 Z M 15.128906 31.816406 "/>
<path style=" stroke:none;fill-rule:nonzero;fill:rgb(100%,100%,100%);fill-opacity:0.4;" d="M 12.542969 16.300781 L 12.542969 16.875 L 19.011719 16.875 L 19.011719 16.300781 Z M 29.359375 16.300781 C 25.070312 16.300781 21.597656 19.777344 21.597656 24.058594 C 21.597656 24.15625 21.597656 24.253906 21.601562 24.347656 C 21.753906 20.199219 25.167969 16.875 29.359375 16.875 C 32.433594 16.878906 35.195312 18.699219 36.433594 21.472656 L 36.660156 21.472656 C 35.570312 18.378906 32.644531 16.304688 29.359375 16.300781 Z M 25.488281 24.347656 C 25.480469 24.445312 25.476562 24.539062 25.476562 24.636719 C 25.476562 26.78125 27.210938 28.519531 29.355469 28.519531 L 44.519531 28.519531 C 44.558594 28.328125 44.601562 28.132812 44.636719 27.941406 L 29.355469 27.941406 C 27.308594 27.941406 25.636719 26.355469 25.488281 24.347656 Z M 25.488281 24.347656 "/>
<path style=" stroke:none;fill-rule:nonzero;fill:rgb(100%,100%,100%);fill-opacity:0.4;" d="M 24 3 C 12.402344 3 3 12.402344 3 24 C 3 24.121094 3.003906 24.25 3.003906 24.375 C 3.207031 12.949219 12.527344 3.75 24 3.75 C 35.472656 3.75 44.792969 12.949219 44.996094 24.375 C 44.996094 24.25 45 24.121094 45 24 C 45 12.402344 35.597656 3 24 3 Z M 24 3 "/>
<path style=" stroke:none;fill-rule:nonzero;fill:rgb(0%,0%,0%);fill-opacity:0.4;" d="M 3.011719 23.621094 C 3.007812 23.746094 3 23.867188 3 23.992188 C 3 35.589844 12.402344 44.992188 24 44.992188 C 35.597656 44.992188 44.996094 35.589844 44.996094 23.992188 C 44.996094 23.867188 44.992188 23.746094 44.988281 23.621094 C 44.789062 35.042969 35.472656 44.246094 24 44.246094 C 12.527344 44.246094 3.210938 35.042969 3.011719 23.621094 Z M 3.011719 23.621094 "/>
<path style=" stroke:none;fill-rule:nonzero;fill:rgb(0%,0%,0%);fill-opacity:0.2;" d="M 3.011719 24.5625 C 3.003906 24.75 3 24.9375 3 25.125 C 3 36.722656 12.402344 46.125 24 46.125 C 35.597656 46.125 45 36.722656 45 25.125 C 45 24.9375 44.996094 24.75 44.988281 24.5625 C 44.691406 35.898438 35.410156 44.996094 24 44.996094 C 12.589844 44.996094 3.308594 35.898438 3.011719 24.5625 Z M 3.011719 24.5625 "/>
</g>
</svg>
