
<svg xmlns="http://www.w3.org/2000/svg" xmlns:xlink="http://www.w3.org/1999/xlink" width="48" height="48" viewBox="0 0 48 48" version="1.1">
<defs>
<linearGradient id="linear0" gradientUnits="userSpaceOnUse" x1="8.466666" y1="-199.125" x2="8.466666" y2="-213.941666" gradientTransform="matrix(2.834646,0,0,2.834646,0,609.448851)">
<stop offset="0" style="stop-color:rgb(0%,0%,0%);stop-opacity:0.2;"/>
<stop offset="1" style="stop-color:rgb(100%,100%,100%);stop-opacity:0;"/>
</linearGradient>
</defs>
<g id="surface1">
<path style=" stroke:none;fill-rule:nonzero;fill:rgb(38.039216%,38.039216%,38.039216%);fill-opacity:0.996078;" d="M 9 3 L 39 3 C 40.65625 3 42 4.34375 42 6 L 42 42 C 42 43.65625 40.65625 45 39 45 L 9 45 C 7.34375 45 6 43.65625 6 42 L 6 6 C 6 4.34375 7.34375 3 9 3 Z M 9 3 "/>
<path style=" stroke:none;fill-rule:nonzero;fill:rgb(45.882353%,45.882353%,45.882353%);fill-opacity:0.996078;" d="M 10.5 6 L 37.5 6 C 38.328125 6 39 6.671875 39 7.5 L 39 40.5 C 39 41.328125 38.328125 42 37.5 42 L 10.5 42 C 9.671875 42 9 41.328125 9 40.5 L 9 7.5 C 9 6.671875 9.671875 6 10.5 6 Z M 10.5 6 "/>
<path style=" stroke:none;fill-rule:nonzero;fill:rgb(61.960787%,61.960787%,61.960787%);fill-opacity:0.996078;" d="M 7.875 12 L 10.125 12 C 10.332031 12 10.5 12.167969 10.5 12.375 L 10.5 14.625 C 10.5 14.832031 10.332031 15 10.125 15 L 7.875 15 C 7.667969 15 7.5 14.832031 7.5 14.625 L 7.5 12.375 C 7.5 12.167969 7.667969 12 7.875 12 Z M 7.875 12 "/>
<path style=" stroke:none;fill-rule:nonzero;fill:rgb(100%,100%,100%);fill-opacity:0.4;" d="M 7.855469 12 C 7.65625 12.011719 7.5 12.171875 7.5 12.375 L 7.5 13.105469 C 7.511719 12.90625 7.671875 12.75 7.875 12.75 L 10.125 12.75 C 10.328125 12.75 10.488281 12.90625 10.5 13.105469 L 10.5 12.375 C 10.5 12.167969 10.332031 12 10.125 12 L 7.875 12 C 7.867188 12 7.863281 12 7.855469 12 Z M 7.855469 12 "/>
<path style=" stroke:none;fill-rule:nonzero;fill:rgb(0%,0%,0%);fill-opacity:0.4;" d="M 7.855469 15.730469 C 7.65625 15.71875 7.5 15.558594 7.5 15.355469 L 7.5 14.625 C 7.511719 14.824219 7.671875 14.980469 7.875 14.980469 L 10.125 14.980469 C 10.328125 14.980469 10.488281 14.824219 10.5 14.625 L 10.5 15.355469 C 10.5 15.5625 10.332031 15.730469 10.125 15.730469 L 7.875 15.730469 C 7.867188 15.730469 7.863281 15.730469 7.855469 15.730469 Z M 7.855469 15.730469 "/>
<path style=" stroke:none;fill-rule:nonzero;fill:rgb(61.960787%,61.960787%,61.960787%);fill-opacity:0.996078;" d="M 7.875 33 L 10.125 33 C 10.332031 33 10.5 33.167969 10.5 33.375 L 10.5 35.625 C 10.5 35.832031 10.332031 36 10.125 36 L 7.875 36 C 7.667969 36 7.5 35.832031 7.5 35.625 L 7.5 33.375 C 7.5 33.167969 7.667969 33 7.875 33 Z M 7.875 33 "/>
<path style=" stroke:none;fill-rule:nonzero;fill:rgb(100%,100%,100%);fill-opacity:0.4;" d="M 7.855469 33 C 7.65625 33.011719 7.5 33.171875 7.5 33.375 L 7.5 34.105469 C 7.511719 33.90625 7.671875 33.75 7.875 33.75 L 10.125 33.75 C 10.328125 33.75 10.488281 33.90625 10.5 34.105469 L 10.5 33.375 C 10.5 33.167969 10.332031 33 10.125 33 L 7.875 33 C 7.867188 33 7.863281 33 7.855469 33 Z M 7.855469 33 "/>
<path style=" stroke:none;fill-rule:nonzero;fill:rgb(0%,0%,0%);fill-opacity:0.4;" d="M 7.855469 36.730469 C 7.65625 36.71875 7.5 36.558594 7.5 36.355469 L 7.5 35.625 C 7.511719 35.824219 7.671875 35.980469 7.875 35.980469 L 10.125 35.980469 C 10.328125 35.980469 10.488281 35.824219 10.5 35.625 L 10.5 36.355469 C 10.5 36.5625 10.332031 36.730469 10.125 36.730469 L 7.875 36.730469 C 7.867188 36.730469 7.863281 36.730469 7.855469 36.730469 Z M 7.855469 36.730469 "/>
<path style=" stroke:none;fill-rule:nonzero;fill:rgb(100%,100%,100%);fill-opacity:0.4;" d="M 10.5 6 C 9.667969 6 9 6.667969 9 7.5 L 9 8.25 C 9 7.417969 9.667969 6.75 10.5 6.75 L 37.5 6.75 C 38.332031 6.75 39 7.417969 39 8.25 L 39 7.5 C 39 6.667969 38.332031 6 37.5 6 Z M 10.5 6 "/>
<path style=" stroke:none;fill-rule:nonzero;fill:rgb(0.392157%,0.392157%,0.392157%);fill-opacity:0.4;" d="M 10.5 42.75 C 9.667969 42.75 9 42.082031 9 41.25 L 9 40.5 C 9 41.332031 9.667969 42 10.5 42 L 37.5 42 C 38.332031 42 39 41.332031 39 40.5 L 39 41.25 C 39 42.082031 38.332031 42.75 37.5 42.75 Z M 10.5 42.75 "/>
<path style=" stroke:none;fill-rule:nonzero;fill:rgb(100%,100%,100%);fill-opacity:0.4;" d="M 9 3 C 7.339844 3 6 4.339844 6 6 L 6 6.75 C 6 5.089844 7.339844 3.75 9 3.75 L 39 3.75 C 40.660156 3.75 42 5.089844 42 6.75 L 42 6 C 42 4.339844 40.660156 3 39 3 Z M 9 3 "/>
<path style=" stroke:none;fill-rule:nonzero;fill:rgb(0.392157%,0.392157%,0.392157%);fill-opacity:0.4;" d="M 9 45 C 7.339844 45 6 43.660156 6 42 L 6 41.25 C 6 42.910156 7.339844 44.25 9 44.25 L 39 44.25 C 40.660156 44.25 42 42.910156 42 41.25 L 42 42 C 42 43.660156 40.660156 45 39 45 Z M 9 45 "/>
<path style=" stroke:none;fill-rule:nonzero;fill:rgb(0%,0%,0%);fill-opacity:0.2;" d="M 6 42 L 6 43.125 C 6 44.785156 7.339844 46.125 9 46.125 L 39 46.125 C 40.660156 46.125 42 44.785156 42 43.125 L 42 42 C 42 43.660156 40.660156 45 39 45 L 9 45 C 7.339844 45 6 43.660156 6 42 Z M 6 42 "/>
<path style=" stroke:none;fill-rule:nonzero;fill:rgb(38.039216%,38.039216%,38.039216%);fill-opacity:1;" d="M 24 15 C 28.96875 15 33 19.03125 33 24 C 33 28.96875 28.96875 33 24 33 C 19.03125 33 15 28.96875 15 24 C 15 19.03125 19.03125 15 24 15 Z M 24 15 "/>
<path style=" stroke:none;fill-rule:nonzero;fill:rgb(0%,0%,0%);fill-opacity:0.4;" d="M 24 15 C 19.015625 15 15 19.015625 15 24 C 15 24.125 15.003906 24.25 15.007812 24.375 C 15.203125 19.5625 19.140625 15.75 24 15.75 C 28.859375 15.75 32.796875 19.5625 32.992188 24.375 C 32.996094 24.25 33 24.125 33 24 C 33 19.015625 28.984375 15 24 15 Z M 24 15 "/>
<path style=" stroke:none;fill-rule:nonzero;fill:rgb(100%,100%,100%);fill-opacity:0.4;" d="M 24 33.75 C 19.015625 33.75 15 29.734375 15 24.75 C 15 24.625 15.003906 24.5 15.007812 24.375 C 15.203125 29.1875 19.140625 33 24 33 C 28.859375 33 32.796875 29.1875 32.992188 24.375 C 32.996094 24.5 33 24.625 33 24.75 C 33 29.734375 28.984375 33.75 24 33.75 Z M 24 33.75 "/>
<path style=" stroke:none;fill-rule:nonzero;fill:rgb(45.882353%,45.882353%,45.882353%);fill-opacity:0.996078;" d="M 24 18 C 27.3125 18 30 20.6875 30 24 C 30 27.3125 27.3125 30 24 30 C 20.6875 30 18 27.3125 18 24 C 18 20.6875 20.6875 18 24 18 Z M 24 18 "/>
<path style=" stroke:none;fill-rule:nonzero;fill:rgb(99.215686%,99.215686%,99.607843%);fill-opacity:0.4;" d="M 24 18 C 20.675781 18 18 20.675781 18 24 C 18 24.125 18.003906 24.25 18.011719 24.375 C 18.203125 21.226562 20.800781 18.75 24 18.75 C 27.199219 18.75 29.796875 21.226562 29.988281 24.375 C 29.996094 24.25 30 24.125 30 24 C 30 20.675781 27.324219 18 24 18 Z M 24 18 "/>
<path style=" stroke:none;fill-rule:nonzero;fill:rgb(0%,0%,0%);fill-opacity:0.4;" d="M 17.257812 20.539062 L 16.992188 21 L 21.539062 23.625 L 21.914062 22.972656 L 21.648438 22.824219 L 21.539062 23.011719 Z M 30.742188 20.539062 L 26.460938 23.011719 L 26.347656 22.824219 L 26.085938 22.972656 L 26.460938 23.625 L 31.007812 21 Z M 21.539062 25.597656 L 16.992188 28.222656 L 17.367188 28.875 L 21.914062 26.25 Z M 26.351562 25.789062 L 26.085938 26.25 L 30.632812 28.875 L 31.007812 28.222656 L 30.742188 28.074219 L 30.632812 28.261719 Z M 26.351562 25.789062 "/>
<path style=" stroke:none;fill-rule:nonzero;fill:rgb(0.392157%,0.392157%,1.176471%);fill-opacity:0.4;" d="M 24 30.75 C 20.675781 30.75 18 28.074219 18 24.75 C 18 24.625 18.003906 24.5 18.011719 24.375 C 18.203125 27.523438 20.800781 30 24 30 C 27.199219 30 29.796875 27.523438 29.988281 24.375 C 29.996094 24.5 30 24.625 30 24.75 C 30 28.074219 27.324219 30.75 24 30.75 Z M 24 30.75 "/>
<path style=" stroke:none;fill-rule:nonzero;fill:rgb(61.960787%,61.960787%,61.960787%);fill-opacity:0.996078;" d="M 23.625 16.125 L 24.375 16.125 L 24.375 21.375 L 23.625 21.375 Z M 23.625 16.125 "/>
<path style=" stroke:none;fill-rule:nonzero;fill:rgb(61.960787%,61.960787%,61.960787%);fill-opacity:0.996078;" d="M 24 14.625 C 24.621094 14.625 25.125 15.128906 25.125 15.75 C 25.125 16.371094 24.621094 16.875 24 16.875 C 23.378906 16.875 22.875 16.371094 22.875 15.75 C 22.875 15.128906 23.378906 14.625 24 14.625 Z M 24 14.625 "/>
<path style=" stroke:none;fill-rule:nonzero;fill:rgb(100%,100%,100%);fill-opacity:0.4;" d="M 23.972656 14.625 C 23.359375 14.640625 22.875 15.136719 22.875 15.75 C 22.875 15.8125 22.882812 15.875 22.890625 15.9375 C 22.980469 15.40625 23.441406 15 24 15 C 24.558594 15 25.019531 15.40625 25.109375 15.9375 C 25.117188 15.875 25.125 15.8125 25.125 15.75 C 25.125 15.125 24.625 14.625 24 14.625 C 23.992188 14.625 23.980469 14.625 23.972656 14.625 Z M 23.972656 14.625 "/>
<path style=" stroke:none;fill-rule:nonzero;fill:rgb(0%,0%,0%);fill-opacity:0.4;" d="M 23.972656 17.25 C 23.359375 17.234375 22.875 16.738281 22.875 16.125 C 22.875 16.0625 22.882812 16 22.890625 15.9375 C 22.980469 16.472656 23.441406 16.875 24 16.875 C 24.558594 16.875 25.019531 16.472656 25.109375 15.9375 C 25.117188 16 25.125 16.0625 25.125 16.125 C 25.125 16.75 24.625 17.25 24 17.25 C 23.988281 17.25 23.980469 17.25 23.96875 17.25 Z M 23.972656 17.25 "/>
<path style=" stroke:none;fill-rule:nonzero;fill:rgb(61.960787%,61.960787%,61.960787%);fill-opacity:0.996078;" d="M 23.625 31.875 L 24.375 31.875 L 24.375 26.625 L 23.625 26.625 Z M 23.625 31.875 "/>
<path style=" stroke:none;fill-rule:nonzero;fill:rgb(61.960787%,61.960787%,61.960787%);fill-opacity:0.996078;" d="M 24 33.375 C 24.621094 33.375 25.125 32.871094 25.125 32.25 C 25.125 31.628906 24.621094 31.125 24 31.125 C 23.378906 31.125 22.875 31.628906 22.875 32.25 C 22.875 32.871094 23.378906 33.375 24 33.375 Z M 24 33.375 "/>
<path style=" stroke:none;fill-rule:nonzero;fill:rgb(0.392157%,0.392157%,0.392157%);fill-opacity:0.4;" d="M 23.972656 33.75 C 23.359375 33.734375 22.875 33.238281 22.875 32.625 C 22.875 32.5625 22.882812 32.5 22.890625 32.4375 C 22.980469 32.972656 23.441406 33.375 24 33.375 C 24.558594 33.375 25.019531 32.972656 25.109375 32.4375 C 25.117188 32.5 25.125 32.5625 25.125 32.625 C 25.125 33.25 24.625 33.75 24 33.75 C 23.992188 33.75 23.980469 33.75 23.96875 33.75 Z M 23.972656 33.75 "/>
<path style=" stroke:none;fill-rule:nonzero;fill:rgb(99.215686%,99.215686%,99.215686%);fill-opacity:0.4;" d="M 23.972656 31.125 C 23.359375 31.140625 22.875 31.636719 22.875 32.25 C 22.875 32.3125 22.882812 32.375 22.890625 32.4375 C 22.980469 31.902344 23.441406 31.5 24 31.5 C 24.558594 31.5 25.019531 31.902344 25.109375 32.4375 C 25.117188 32.375 25.125 32.3125 25.125 32.25 C 25.125 31.625 24.625 31.125 24 31.125 C 23.988281 31.125 23.980469 31.125 23.96875 31.125 Z M 23.972656 31.125 "/>
<path style=" stroke:none;fill-rule:nonzero;fill:rgb(61.960787%,61.960787%,61.960787%);fill-opacity:0.996078;" d="M 30.632812 19.738281 L 31.007812 20.386719 L 26.460938 23.011719 L 26.085938 22.363281 Z M 30.632812 19.738281 "/>
<path style=" stroke:none;fill-rule:nonzero;fill:rgb(61.960787%,61.960787%,61.960787%);fill-opacity:0.996078;" d="M 16.992188 27.613281 L 17.367188 28.261719 L 21.914062 25.636719 L 21.539062 24.988281 Z M 16.992188 27.613281 "/>
<path style=" stroke:none;fill-rule:nonzero;fill:rgb(61.960787%,61.960787%,61.960787%);fill-opacity:0.996078;" d="M 31.007812 27.613281 L 30.632812 28.261719 L 26.085938 25.636719 L 26.460938 24.988281 Z M 31.007812 27.613281 "/>
<path style=" stroke:none;fill-rule:nonzero;fill:rgb(61.960787%,61.960787%,61.960787%);fill-opacity:0.996078;" d="M 17.367188 19.738281 L 16.992188 20.386719 L 21.539062 23.011719 L 21.914062 22.363281 Z M 17.367188 19.738281 "/>
<path style=" stroke:none;fill-rule:nonzero;fill:rgb(100%,100%,100%);fill-opacity:0.4;" d="M 17.367188 19.738281 L 16.992188 20.386719 L 17.214844 20.515625 L 17.367188 20.25 L 21.691406 22.746094 L 21.914062 22.363281 Z M 30.632812 19.738281 L 26.085938 22.363281 L 26.308594 22.746094 L 30.632812 20.25 L 30.785156 20.515625 L 31.007812 20.386719 Z M 21.539062 24.988281 L 16.992188 27.613281 L 17.214844 27.996094 L 21.539062 25.5 L 21.691406 25.765625 L 21.914062 25.636719 Z M 26.460938 24.988281 L 26.085938 25.636719 L 26.308594 25.765625 L 26.460938 25.5 L 30.785156 27.996094 L 31.007812 27.613281 Z M 26.460938 24.988281 "/>
<path style=" stroke:none;fill-rule:nonzero;fill:rgb(61.960787%,61.960787%,61.960787%);fill-opacity:1;" d="M 24 21 C 25.65625 21 27 22.34375 27 24 C 27 25.65625 25.65625 27 24 27 C 22.34375 27 21 25.65625 21 24 C 21 22.34375 22.34375 21 24 21 Z M 24 21 "/>
<path style=" stroke:none;fill-rule:nonzero;fill:rgb(100%,100%,100%);fill-opacity:0.4;" d="M 24 21 C 22.339844 21 21 22.339844 21 24 C 21 24.125 21.007812 24.253906 21.023438 24.375 C 21.207031 22.890625 22.464844 21.75 24 21.75 C 25.535156 21.75 26.792969 22.890625 26.976562 24.375 C 26.992188 24.253906 27 24.125 27 24 C 27 22.339844 25.660156 21 24 21 Z M 24 21 "/>
<path style=" stroke:none;fill-rule:nonzero;fill:rgb(0%,0%,0%);fill-opacity:0.4;" d="M 24 27.75 C 22.339844 27.75 21 26.410156 21 24.75 C 21 24.625 21.007812 24.496094 21.023438 24.375 C 21.207031 25.859375 22.464844 27 24 27 C 25.535156 27 26.792969 25.859375 26.976562 24.375 C 26.992188 24.496094 27 24.621094 27 24.75 C 27 26.410156 25.660156 27.75 24 27.75 Z M 24 27.75 "/>
<path style=" stroke:none;fill-rule:nonzero;fill:rgb(61.960787%,61.960787%,61.960787%);fill-opacity:0.996078;" d="M 32.117188 28.6875 C 31.808594 29.226562 31.121094 29.410156 30.582031 29.097656 C 30.042969 28.789062 29.859375 28.101562 30.171875 27.5625 C 30.480469 27.023438 31.167969 26.839844 31.707031 27.152344 C 32.246094 27.460938 32.429688 28.148438 32.117188 28.6875 Z M 32.117188 28.6875 "/>
<path style=" stroke:none;fill-rule:nonzero;fill:rgb(0.392157%,0.392157%,0.392157%);fill-opacity:0.4;" d="M 31.125 29.625 C 30.515625 29.609375 30.027344 29.113281 30.027344 28.5 C 30.027344 28.4375 30.035156 28.375 30.046875 28.3125 C 30.132812 28.847656 30.59375 29.25 31.15625 29.25 C 31.714844 29.25 32.175781 28.847656 32.261719 28.3125 C 32.273438 28.375 32.28125 28.4375 32.28125 28.5 C 32.28125 29.125 31.777344 29.625 31.15625 29.625 C 31.144531 29.625 31.136719 29.625 31.125 29.625 Z M 31.125 29.625 "/>
<path style=" stroke:none;fill-rule:nonzero;fill:rgb(99.215686%,99.215686%,99.215686%);fill-opacity:0.4;" d="M 31.125 27 C 30.515625 27.015625 30.027344 27.511719 30.027344 28.125 C 30.027344 28.1875 30.035156 28.25 30.046875 28.3125 C 30.132812 27.777344 30.59375 27.375 31.15625 27.375 C 31.714844 27.375 32.175781 27.777344 32.261719 28.3125 C 32.273438 28.25 32.28125 28.1875 32.28125 28.125 C 32.28125 27.5 31.777344 27 31.15625 27 C 31.144531 27 31.136719 27 31.125 27 Z M 31.125 27 "/>
<path style=" stroke:none;fill-rule:nonzero;fill:rgb(61.960787%,61.960787%,61.960787%);fill-opacity:0.996078;" d="M 15.882812 28.6875 C 16.191406 29.226562 16.878906 29.410156 17.417969 29.097656 C 17.957031 28.789062 18.140625 28.101562 17.828125 27.5625 C 17.519531 27.023438 16.832031 26.839844 16.292969 27.152344 C 15.753906 27.460938 15.570312 28.148438 15.882812 28.6875 Z M 15.882812 28.6875 "/>
<path style=" stroke:none;fill-rule:nonzero;fill:rgb(0.392157%,0.392157%,0.392157%);fill-opacity:0.4;" d="M 16.875 29.625 C 16.265625 29.609375 15.777344 29.113281 15.777344 28.5 C 15.777344 28.4375 15.785156 28.375 15.796875 28.3125 C 15.882812 28.847656 16.34375 29.25 16.902344 29.25 C 17.464844 29.25 17.925781 28.847656 18.011719 28.3125 C 18.023438 28.375 18.027344 28.4375 18.027344 28.5 C 18.027344 29.125 17.527344 29.625 16.902344 29.625 C 16.894531 29.625 16.882812 29.625 16.875 29.625 Z M 16.875 29.625 "/>
<path style=" stroke:none;fill-rule:nonzero;fill:rgb(99.215686%,99.215686%,99.215686%);fill-opacity:0.4;" d="M 16.875 27 C 16.265625 27.015625 15.777344 27.511719 15.777344 28.125 C 15.777344 28.1875 15.785156 28.25 15.796875 28.3125 C 15.882812 27.777344 16.34375 27.375 16.902344 27.375 C 17.464844 27.375 17.925781 27.777344 18.011719 28.3125 C 18.023438 28.25 18.027344 28.1875 18.027344 28.125 C 18.027344 27.5 17.527344 27 16.902344 27 C 16.894531 27 16.882812 27 16.875 27 Z M 16.875 27 "/>
<path style=" stroke:none;fill-rule:nonzero;fill:rgb(61.960787%,61.960787%,61.960787%);fill-opacity:0.996078;" d="M 32.117188 19.3125 C 32.429688 19.851562 32.246094 20.539062 31.707031 20.847656 C 31.167969 21.160156 30.480469 20.976562 30.171875 20.4375 C 29.859375 19.898438 30.042969 19.210938 30.582031 18.902344 C 31.121094 18.589844 31.808594 18.773438 32.117188 19.3125 Z M 32.117188 19.3125 "/>
<path style=" stroke:none;fill-rule:nonzero;fill:rgb(0.392157%,0.392157%,0.392157%);fill-opacity:0.4;" d="M 31.125 21.375 C 30.515625 21.359375 30.027344 20.863281 30.027344 20.25 C 30.027344 20.1875 30.035156 20.125 30.046875 20.0625 C 30.132812 20.597656 30.59375 21 31.15625 21 C 31.714844 21 32.175781 20.597656 32.261719 20.0625 C 32.273438 20.125 32.28125 20.1875 32.28125 20.25 C 32.28125 20.875 31.777344 21.375 31.15625 21.375 C 31.144531 21.375 31.136719 21.375 31.125 21.375 Z M 31.125 21.375 "/>
<path style=" stroke:none;fill-rule:nonzero;fill:rgb(99.215686%,99.215686%,99.215686%);fill-opacity:0.4;" d="M 31.125 18.75 C 30.515625 18.765625 30.027344 19.261719 30.027344 19.875 C 30.027344 19.9375 30.035156 20 30.046875 20.0625 C 30.132812 19.527344 30.59375 19.125 31.15625 19.125 C 31.714844 19.125 32.175781 19.527344 32.261719 20.0625 C 32.273438 20 32.28125 19.9375 32.28125 19.875 C 32.28125 19.25 31.777344 18.75 31.15625 18.75 C 31.144531 18.75 31.136719 18.75 31.125 18.75 Z M 31.125 18.75 "/>
<path style=" stroke:none;fill-rule:nonzero;fill:rgb(61.960787%,61.960787%,61.960787%);fill-opacity:0.996078;" d="M 15.882812 19.3125 C 15.570312 19.851562 15.753906 20.539062 16.292969 20.847656 C 16.832031 21.160156 17.519531 20.976562 17.828125 20.4375 C 18.140625 19.898438 17.957031 19.210938 17.417969 18.902344 C 16.878906 18.589844 16.191406 18.773438 15.882812 19.3125 Z M 15.882812 19.3125 "/>
<path style=" stroke:none;fill-rule:nonzero;fill:rgb(0.392157%,0.392157%,0.392157%);fill-opacity:0.4;" d="M 16.875 21.375 C 16.265625 21.359375 15.777344 20.863281 15.777344 20.25 C 15.777344 20.1875 15.785156 20.125 15.796875 20.0625 C 15.882812 20.597656 16.34375 21 16.902344 21 C 17.464844 21 17.925781 20.597656 18.011719 20.0625 C 18.023438 20.125 18.027344 20.1875 18.027344 20.25 C 18.027344 20.875 17.527344 21.375 16.902344 21.375 C 16.894531 21.375 16.882812 21.375 16.875 21.375 Z M 16.875 21.375 "/>
<path style=" stroke:none;fill-rule:nonzero;fill:rgb(99.215686%,99.215686%,99.215686%);fill-opacity:0.4;" d="M 16.875 18.75 C 16.265625 18.765625 15.777344 19.261719 15.777344 19.875 C 15.777344 19.9375 15.785156 20 15.796875 20.0625 C 15.882812 19.527344 16.34375 19.125 16.902344 19.125 C 17.464844 19.125 17.925781 19.527344 18.011719 20.0625 C 18.023438 20 18.027344 19.9375 18.027344 19.875 C 18.027344 19.25 17.527344 18.75 16.902344 18.75 C 16.894531 18.75 16.882812 18.75 16.875 18.75 Z M 16.875 18.75 "/>
<path style=" stroke:none;fill-rule:nonzero;fill:url(#linear0);" d="M 9 3 L 39 3 C 40.65625 3 42 4.34375 42 6 L 42 42 C 42 43.65625 40.65625 45 39 45 L 9 45 C 7.34375 45 6 43.65625 6 42 L 6 6 C 6 4.34375 7.34375 3 9 3 Z M 9 3 "/>
</g>
</svg>
