
<svg xmlns="http://www.w3.org/2000/svg" xmlns:xlink="http://www.w3.org/1999/xlink" width="48" height="48" viewBox="0 0 48 48" version="1.1">
<defs>
<linearGradient id="linear0" gradientUnits="userSpaceOnUse" x1="8.466666" y1="-201.241669" x2="8.466666" y2="-212.883331" gradientTransform="matrix(2.834646,0,0,2.834646,-3,610.948852)">
<stop offset="0" style="stop-color:rgb(0%,0%,0%);stop-opacity:0.2;"/>
<stop offset="1" style="stop-color:rgb(100%,100%,100%);stop-opacity:0;"/>
</linearGradient>
</defs>
<g id="surface1">
<path style=" stroke:none;fill-rule:nonzero;fill:rgb(93.333334%,93.333334%,93.333334%);fill-opacity:0.996078;" d="M 6 7.5 L 42 7.5 C 43.65625 7.5 45 8.84375 45 10.5 L 45 37.5 C 45 39.15625 43.65625 40.5 42 40.5 L 6 40.5 C 4.34375 40.5 3 39.15625 3 37.5 L 3 10.5 C 3 8.84375 4.34375 7.5 6 7.5 Z M 6 7.5 "/>
<path style=" stroke:none;fill-rule:nonzero;fill:rgb(93.333334%,93.333334%,93.333334%);fill-opacity:1;" d="M 22.445312 25.558594 L 3.910156 8.347656 C 4.449219 7.824219 5.183594 7.5 6 7.5 L 42 7.5 C 42.816406 7.5 43.550781 7.824219 44.089844 8.347656 L 25.554688 25.558594 C 24.675781 26.371094 23.324219 26.371094 22.445312 25.558594 Z M 22.445312 25.558594 "/>
<path style=" stroke:none;fill-rule:nonzero;fill:rgb(100%,100%,100%);fill-opacity:0.6;" d="M 6 7.523438 C 4.339844 7.523438 3 8.863281 3 10.523438 L 3 11.25 C 3 9.589844 4.339844 8.25 6 8.25 L 42 8.25 C 43.660156 8.25 45 9.589844 45 11.25 L 45 10.523438 C 45 8.863281 43.660156 7.523438 42 7.523438 Z M 6 7.523438 "/>
<path style=" stroke:none;fill-rule:nonzero;fill:rgb(0%,0%,0%);fill-opacity:0.2;" d="M 3 37.480469 L 3 38.605469 C 3 40.269531 4.339844 41.605469 6 41.605469 L 42 41.605469 C 43.660156 41.605469 45 40.269531 45 38.605469 L 45 37.480469 C 45 39.144531 43.660156 40.480469 42 40.480469 L 6 40.480469 C 4.339844 40.480469 3 39.144531 3 37.480469 Z M 3 37.480469 "/>
<path style=" stroke:none;fill-rule:nonzero;fill:rgb(0%,0%,0%);fill-opacity:0.2;" d="M 4.351562 8.746094 C 4.191406 8.851562 4.046875 8.96875 3.910156 9.097656 L 22.449219 26.308594 C 23.324219 27.121094 24.675781 27.121094 25.550781 26.308594 L 44.089844 9.097656 C 43.953125 8.96875 43.808594 8.851562 43.648438 8.746094 L 25.550781 25.550781 C 24.675781 26.363281 23.324219 26.363281 22.449219 25.550781 Z M 4.351562 8.746094 "/>
<path style=" stroke:none;fill-rule:nonzero;fill:rgb(25.882354%,64.705884%,96.078432%);fill-opacity:1;" d="M 6 7.5 C 7.65625 7.5 9 8.84375 9 10.5 L 9 37.5 C 9 39.15625 7.65625 40.5 6 40.5 C 4.34375 40.5 3 39.15625 3 37.5 L 3 10.5 C 3 8.84375 4.34375 7.5 6 7.5 Z M 6 7.5 "/>
<path style=" stroke:none;fill-rule:nonzero;fill:rgb(0%,0%,0%);fill-opacity:0.4;" d="M 44.976562 10.871094 C 44.886719 11.578125 44.550781 12.226562 44.027344 12.707031 L 26.027344 29.207031 C 24.878906 30.257812 23.121094 30.257812 21.972656 29.207031 L 3.976562 12.707031 C 3.460938 12.238281 3.125 11.601562 3.03125 10.910156 C 2.917969 11.863281 3.269531 12.8125 3.976562 13.464844 L 21.972656 29.964844 C 23.121094 31.015625 24.878906 31.015625 26.027344 29.964844 L 44.027344 13.464844 C 44.746094 12.804688 45.101562 11.839844 44.976562 10.871094 Z M 44.976562 10.871094 "/>
<path style=" stroke:none;fill-rule:nonzero;fill:rgb(40.000001%,73.333335%,41.568628%);fill-opacity:1;" d="M 42 7.5 C 43.65625 7.5 45 8.84375 45 10.5 L 45 37.5 C 45 39.15625 43.65625 40.5 42 40.5 C 40.34375 40.5 39 39.15625 39 37.5 L 39 10.5 C 39 8.84375 40.34375 7.5 42 7.5 Z M 42 7.5 "/>
<path style=" stroke:none;fill-rule:nonzero;fill:rgb(0.392157%,0.392157%,0.392157%);fill-opacity:0.4;" d="M 6 40.476562 C 4.339844 40.476562 3 39.136719 3 37.476562 L 3 36.75 C 3 38.410156 4.339844 39.75 6 39.75 L 42 39.75 C 43.660156 39.75 45 38.410156 45 36.75 L 45 37.476562 C 45 39.136719 43.660156 40.476562 42 40.476562 Z M 6 40.476562 "/>
<path style=" stroke:none;fill-rule:nonzero;fill:rgb(100%,100%,100%);fill-opacity:0.4;" d="M 6 7.488281 C 4.339844 7.488281 3 8.828125 3 10.488281 L 3 11.214844 C 3 9.554688 4.339844 8.214844 6 8.214844 L 42 8.214844 C 43.660156 8.214844 45 9.554688 45 11.214844 L 45 10.488281 C 45 8.828125 43.660156 7.488281 42 7.488281 Z M 6 7.488281 "/>
<path style=" stroke:none;fill-rule:nonzero;fill:rgb(95.686275%,26.274511%,21.176471%);fill-opacity:1;" d="M 42.132812 7.5 C 41.335938 7.46875 40.558594 7.75 39.972656 8.289062 L 24 22.933594 L 8.027344 8.289062 C 7.441406 7.75 6.664062 7.464844 5.871094 7.5 C 5.074219 7.535156 4.324219 7.882812 3.785156 8.46875 C 3.25 9.058594 2.964844 9.835938 3.003906 10.628906 C 3.039062 11.425781 3.386719 12.175781 3.976562 12.710938 L 21.972656 29.210938 C 23.121094 30.261719 24.878906 30.261719 26.027344 29.210938 L 44.027344 12.710938 C 44.613281 12.175781 44.964844 11.425781 45 10.628906 C 45.035156 9.835938 44.75 9.058594 44.214844 8.46875 C 43.675781 7.882812 42.925781 7.535156 42.132812 7.5 Z M 42.132812 7.5 "/>
<path style=" stroke:none;fill-rule:nonzero;fill:rgb(67.058825%,27.843139%,73.725492%);fill-opacity:1;" d="M 6.082031 7.503906 C 5.9375 7.5 5.792969 7.503906 5.648438 7.523438 C 5.625 7.523438 5.597656 7.527344 5.574219 7.53125 C 5.417969 7.554688 5.265625 7.585938 5.113281 7.632812 C 5.113281 7.632812 5.109375 7.632812 5.105469 7.636719 C 5.097656 7.636719 5.085938 7.640625 5.078125 7.644531 C 4.921875 7.691406 4.773438 7.753906 4.628906 7.828125 C 4.621094 7.832031 4.613281 7.835938 4.605469 7.839844 C 4.457031 7.917969 4.3125 8.011719 4.179688 8.113281 C 4.175781 8.117188 4.167969 8.121094 4.164062 8.125 C 4.03125 8.226562 3.910156 8.339844 3.796875 8.464844 C 3.792969 8.464844 3.789062 8.46875 3.785156 8.472656 C 3.785156 8.472656 3.785156 8.476562 3.78125 8.476562 C 3.78125 8.480469 3.777344 8.480469 3.777344 8.480469 C 3.664062 8.605469 3.5625 8.742188 3.472656 8.882812 C 3.46875 8.882812 3.46875 8.886719 3.46875 8.886719 C 3.375 9.035156 3.292969 9.191406 3.226562 9.351562 C 3.160156 9.511719 3.109375 9.679688 3.070312 9.847656 C 3.035156 10.011719 3.011719 10.179688 3.003906 10.34375 C 3.003906 10.34375 3.003906 10.347656 3.003906 10.347656 C 3.003906 10.363281 3.003906 10.382812 3.003906 10.398438 C 2.972656 11.273438 3.328125 12.121094 3.976562 12.710938 L 9 17.316406 L 9 10.5 C 9 9.644531 8.644531 8.875 8.074219 8.328125 L 8.027344 8.289062 C 7.898438 8.167969 7.761719 8.0625 7.613281 7.96875 C 7.324219 7.785156 7.003906 7.652344 6.667969 7.574219 C 6.65625 7.574219 6.644531 7.570312 6.636719 7.566406 C 6.484375 7.535156 6.332031 7.515625 6.179688 7.503906 C 6.144531 7.503906 6.113281 7.503906 6.082031 7.503906 Z M 6.082031 7.503906 "/>
<path style=" stroke:none;fill-rule:nonzero;fill:rgb(100%,65.490198%,14.901961%);fill-opacity:1;" d="M 41.917969 7.503906 C 42.0625 7.5 42.207031 7.503906 42.351562 7.523438 C 42.375 7.527344 42.402344 7.527344 42.425781 7.53125 C 42.582031 7.554688 42.734375 7.585938 42.886719 7.632812 C 42.890625 7.632812 42.890625 7.632812 42.894531 7.636719 C 42.902344 7.636719 42.914062 7.640625 42.921875 7.644531 C 43.078125 7.695312 43.226562 7.753906 43.371094 7.828125 C 43.378906 7.832031 43.386719 7.839844 43.394531 7.839844 C 43.542969 7.917969 43.6875 8.011719 43.820312 8.113281 C 43.824219 8.117188 43.832031 8.121094 43.835938 8.125 C 43.96875 8.230469 44.09375 8.34375 44.203125 8.464844 C 44.207031 8.46875 44.210938 8.46875 44.214844 8.472656 C 44.214844 8.476562 44.214844 8.476562 44.21875 8.480469 C 44.21875 8.480469 44.222656 8.480469 44.222656 8.484375 C 44.335938 8.609375 44.4375 8.742188 44.527344 8.886719 C 44.53125 8.886719 44.53125 8.890625 44.53125 8.890625 C 44.625 9.039062 44.707031 9.191406 44.773438 9.351562 C 44.839844 9.515625 44.890625 9.683594 44.929688 9.851562 C 44.964844 10.015625 44.988281 10.179688 44.996094 10.347656 C 44.996094 10.367188 44.996094 10.382812 44.996094 10.402344 C 45.027344 11.277344 44.671875 12.121094 44.023438 12.714844 L 39 17.320312 L 39 10.503906 C 39 9.648438 39.355469 8.878906 39.925781 8.332031 L 39.972656 8.289062 C 40.101562 8.171875 40.238281 8.066406 40.386719 7.972656 C 40.675781 7.785156 40.996094 7.652344 41.332031 7.578125 C 41.34375 7.574219 41.355469 7.570312 41.363281 7.570312 C 41.515625 7.535156 41.667969 7.515625 41.820312 7.507812 C 41.855469 7.503906 41.886719 7.503906 41.917969 7.503906 Z M 41.917969 7.503906 "/>
<path style=" stroke:none;fill-rule:nonzero;fill:rgb(100%,100%,100%);fill-opacity:0.4;" d="M 6.132812 7.5 C 5.246094 7.460938 4.386719 7.816406 3.785156 8.472656 C 3.183594 9.128906 2.90625 10.023438 3.03125 10.910156 C 3.097656 10.28125 3.363281 9.6875 3.785156 9.21875 C 4.90625 7.996094 6.804688 7.914062 8.027344 9.035156 L 24 23.679688 L 39.972656 9.035156 C 40.558594 8.5 41.335938 8.214844 42.132812 8.25 C 42.925781 8.285156 43.675781 8.632812 44.214844 9.21875 C 44.632812 9.675781 44.898438 10.253906 44.976562 10.871094 C 45.085938 9.996094 44.808594 9.121094 44.214844 8.472656 C 43.675781 7.882812 42.925781 7.535156 42.132812 7.5 C 41.335938 7.464844 40.558594 7.75 39.972656 8.289062 L 24 22.933594 L 8.027344 8.289062 C 7.507812 7.8125 6.835938 7.53125 6.132812 7.5 Z M 6.132812 7.5 "/>
<path style=" stroke:none;fill-rule:nonzero;fill:url(#linear0);" d="M 6 7.5 L 42 7.5 C 43.65625 7.5 45 8.84375 45 10.5 L 45 37.5 C 45 39.15625 43.65625 40.5 42 40.5 L 6 40.5 C 4.34375 40.5 3 39.15625 3 37.5 L 3 10.5 C 3 8.84375 4.34375 7.5 6 7.5 Z M 6 7.5 "/>
</g>
</svg>
