
<svg xmlns="http://www.w3.org/2000/svg" xmlns:xlink="http://www.w3.org/1999/xlink" width="48" height="48" viewBox="0 0 48 48" version="1.1">
<defs>
<linearGradient id="linear0" gradientUnits="userSpaceOnUse" x1="32" y1="59.999996" x2="31.999998" y2="3.999999" gradientTransform="matrix(0.75,0,0,0.75,0,0.000000000000085265)">
<stop offset="0" style="stop-color:rgb(0%,0%,0%);stop-opacity:0.2;"/>
<stop offset="1" style="stop-color:rgb(100%,100%,100%);stop-opacity:0;"/>
</linearGradient>
</defs>
<g id="surface1">
<path style=" stroke:none;fill-rule:nonzero;fill:rgb(38.039216%,38.039216%,38.039216%);fill-opacity:1;" d="M 19.5 37.5 L 28.5 37.5 L 28.5 42 L 19.5 42 Z M 19.5 37.5 "/>
<path style=" stroke:none;fill-rule:nonzero;fill:rgb(38.039216%,38.039216%,38.039216%);fill-opacity:0.996078;" d="M 7.5 19.875 L 40.5 19.875 L 40.5 21.75 L 7.5 21.75 Z M 7.5 19.875 "/>
<path style=" stroke:none;fill-rule:nonzero;fill:rgb(74.117649%,74.117649%,74.117649%);fill-opacity:0.996078;" d="M 4.5 40.5 L 43.5 40.5 C 44.328125 40.5 45 41.171875 45 42 L 45 43.5 C 45 44.328125 44.328125 45 43.5 45 L 4.5 45 C 3.671875 45 3 44.328125 3 43.5 L 3 42 C 3 41.171875 3.671875 40.5 4.5 40.5 Z M 4.5 40.5 "/>
<path style=" stroke:none;fill-rule:nonzero;fill:rgb(14.901961%,65.098041%,60.392159%);fill-opacity:1;" d="M 6.0625 19.5 C 6.023438 19.996094 6 20.496094 6 21 C 6 30.972656 14.027344 39 24 39 C 33.972656 39 42 30.972656 42 21 C 42 20.496094 41.976562 19.996094 41.9375 19.5 L 39.75 19.5 L 39.75 21 L 39.746094 21 C 39.746094 29.722656 32.722656 36.746094 24 36.746094 C 15.277344 36.746094 8.253906 29.722656 8.253906 21 L 8.25 21 L 8.25 19.5 Z M 6.0625 19.5 "/>
<path style=" stroke:none;fill-rule:nonzero;fill:rgb(74.117649%,74.117649%,74.117649%);fill-opacity:1;" d="M 24 3 C 14.789062 3 7.238281 9.847656 6.136719 18.75 L 9 18.75 L 9 21 C 9 29.308594 15.691406 36 24 36 C 32.308594 36 39 29.308594 39 21 L 39 18.75 L 41.863281 18.75 C 40.761719 9.847656 33.210938 3 24 3 Z M 24 3 "/>
<path style=" stroke:none;fill-rule:nonzero;fill:rgb(87.843138%,87.843138%,87.843138%);fill-opacity:1;" d="M 15.4375 9.0625 C 16.023438 9.648438 15.550781 11.074219 14.378906 12.246094 C 13.207031 13.417969 11.78125 13.894531 11.195312 13.308594 C 10.609375 12.722656 11.085938 11.296875 12.257812 10.125 C 13.429688 8.953125 14.855469 8.480469 15.4375 9.0625 Z M 15.4375 9.0625 "/>
<path style=" stroke:none;fill-rule:nonzero;fill:rgb(14.901961%,65.098041%,60.392159%);fill-opacity:1;" d="M 24 3 C 21.894531 3 19.875 3.363281 18 4.019531 L 18 15 C 18 18.324219 20.675781 21 24 21 C 27.324219 21 30 18.324219 30 15 L 30 4.019531 C 28.125 3.363281 26.105469 3 24 3 Z M 24 3 "/>
<path style=" stroke:none;fill-rule:nonzero;fill:rgb(74.117649%,74.117649%,74.117649%);fill-opacity:0.996078;" d="M 24 9.75 C 29.800781 9.75 34.5 14.449219 34.5 20.25 C 34.5 26.050781 29.800781 30.75 24 30.75 C 18.199219 30.75 13.5 26.050781 13.5 20.25 C 13.5 14.449219 18.199219 9.75 24 9.75 Z M 24 9.75 "/>
<path style=" stroke:none;fill-rule:nonzero;fill:rgb(61.960787%,61.960787%,61.960787%);fill-opacity:0.996078;" d="M 24 11.25 C 28.96875 11.25 33 15.28125 33 20.25 C 33 25.21875 28.96875 29.25 24 29.25 C 19.03125 29.25 15 25.21875 15 20.25 C 15 15.28125 19.03125 11.25 24 11.25 Z M 24 11.25 "/>
<path style=" stroke:none;fill-rule:nonzero;fill:rgb(38.039216%,38.039216%,38.039216%);fill-opacity:0.996078;" d="M 24 12.75 C 28.140625 12.75 31.5 16.109375 31.5 20.25 C 31.5 24.390625 28.140625 27.75 24 27.75 C 19.859375 27.75 16.5 24.390625 16.5 20.25 C 16.5 16.109375 19.859375 12.75 24 12.75 Z M 24 12.75 "/>
<path style=" stroke:none;fill-rule:nonzero;fill:rgb(45.882353%,45.882353%,45.882353%);fill-opacity:0.996078;" d="M 24 14.25 C 27.3125 14.25 30 16.9375 30 20.25 C 30 23.5625 27.3125 26.25 24 26.25 C 20.6875 26.25 18 23.5625 18 20.25 C 18 16.9375 20.6875 14.25 24 14.25 Z M 24 14.25 "/>
<path style=" stroke:none;fill-rule:nonzero;fill:rgb(25.882354%,25.882354%,25.882354%);fill-opacity:0.996078;" d="M 24 17.25 C 25.65625 17.25 27 18.59375 27 20.25 C 27 21.90625 25.65625 23.25 24 23.25 C 22.34375 23.25 21 21.90625 21 20.25 C 21 18.59375 22.34375 17.25 24 17.25 Z M 24 17.25 "/>
<path style=" stroke:none;fill-rule:nonzero;fill:rgb(74.117649%,74.117649%,74.117649%);fill-opacity:0.996078;" d="M 23.363281 18.28125 C 23.632812 18.4375 23.597656 19 23.285156 19.535156 C 22.976562 20.074219 22.507812 20.386719 22.238281 20.230469 C 21.96875 20.074219 22 19.511719 22.3125 18.972656 C 22.625 18.4375 23.09375 18.125 23.363281 18.28125 Z M 23.363281 18.28125 "/>
<path style=" stroke:none;fill-rule:nonzero;fill:rgb(100%,100%,100%);fill-opacity:0.4;" d="M 24 9.75 C 18.183594 9.75 13.5 14.433594 13.5 20.25 C 13.5 20.375 13.503906 20.5 13.507812 20.625 C 13.703125 14.984375 18.308594 10.5 24 10.5 C 29.691406 10.5 34.296875 14.984375 34.492188 20.625 C 34.496094 20.5 34.5 20.375 34.5 20.25 C 34.5 14.433594 29.816406 9.75 24 9.75 Z M 24 9.75 "/>
<path style=" stroke:none;fill-rule:nonzero;fill:rgb(0.784314%,0.784314%,0.784314%);fill-opacity:0.4;" d="M 24 31.5 C 18.183594 31.5 13.5 26.816406 13.5 21 C 13.5 20.875 13.503906 20.75 13.507812 20.625 C 13.703125 26.265625 18.308594 30.75 24 30.75 C 29.691406 30.75 34.296875 26.265625 34.492188 20.625 C 34.496094 20.75 34.5 20.875 34.5 21 C 34.5 26.816406 29.816406 31.5 24 31.5 Z M 24 31.5 "/>
<path style=" stroke:none;fill-rule:nonzero;fill:rgb(0%,0%,0%);fill-opacity:0.4;" d="M 24 12.75 C 19.84375 12.75 16.5 16.09375 16.5 20.25 C 16.5 20.375 16.503906 20.5 16.511719 20.625 C 16.703125 16.644531 19.972656 13.5 24 13.5 C 28.027344 13.5 31.296875 16.644531 31.488281 20.625 C 31.496094 20.5 31.5 20.375 31.5 20.25 C 31.5 16.09375 28.15625 12.75 24 12.75 Z M 24 12.75 "/>
<path style=" stroke:none;fill-rule:nonzero;fill:rgb(100%,100%,100%);fill-opacity:0.4;" d="M 24 28.5 C 19.84375 28.5 16.5 25.15625 16.5 21 C 16.5 20.875 16.503906 20.75 16.511719 20.625 C 16.703125 24.605469 19.972656 27.75 24 27.75 C 28.027344 27.75 31.296875 24.605469 31.488281 20.625 C 31.496094 20.75 31.5 20.875 31.5 21 C 31.5 25.15625 28.15625 28.5 24 28.5 Z M 24 28.5 "/>
<path style=" stroke:none;fill-rule:nonzero;fill:rgb(100%,100%,100%);fill-opacity:0.4;" d="M 18.003906 20.4375 C 18 20.5 18 20.5625 18 20.625 C 18 23.949219 20.675781 26.625 24 26.625 C 27.324219 26.625 30 23.949219 30 20.625 C 30 20.5625 30 20.5 29.996094 20.4375 C 29.898438 23.675781 27.261719 26.25 24 26.25 C 20.738281 26.25 18.101562 23.675781 18.003906 20.4375 Z M 18.003906 20.4375 "/>
<path style=" stroke:none;fill-rule:nonzero;fill:rgb(0.392157%,0.392157%,0.392157%);fill-opacity:0.4;" d="M 18.003906 20.25 C 18 20.1875 18 20.125 18 20.0625 C 18 16.738281 20.675781 14.0625 24 14.0625 C 27.324219 14.0625 30 16.738281 30 20.0625 C 30 20.125 30 20.1875 29.996094 20.25 C 29.898438 17.011719 27.261719 14.4375 24 14.4375 C 20.738281 14.4375 18.101562 17.011719 18.003906 20.25 Z M 18.003906 20.25 "/>
<path style=" stroke:none;fill-rule:nonzero;fill:rgb(0%,0%,0%);fill-opacity:0.4;" d="M 24 11.25 C 19.015625 11.25 15 15.265625 15 20.25 C 15 20.375 15.003906 20.5 15.007812 20.625 C 15.203125 15.8125 19.140625 12 24 12 C 28.859375 12 32.796875 15.8125 32.992188 20.625 C 32.996094 20.5 33 20.375 33 20.25 C 33 15.265625 28.984375 11.25 24 11.25 Z M 24 11.25 "/>
<path style=" stroke:none;fill-rule:nonzero;fill:rgb(100%,100%,100%);fill-opacity:0.4;" d="M 24 30 C 19.015625 30 15 25.984375 15 21 C 15 20.875 15.003906 20.75 15.007812 20.625 C 15.203125 25.4375 19.140625 29.25 24 29.25 C 28.859375 29.25 32.796875 25.4375 32.992188 20.625 C 32.996094 20.75 33 20.875 33 21 C 33 25.984375 28.984375 30 24 30 Z M 24 30 "/>
<path style=" stroke:none;fill-rule:nonzero;fill:rgb(99.607843%,99.607843%,99.607843%);fill-opacity:0.4;" d="M 21.027344 20.4375 C 21.023438 20.5 21.023438 20.5625 21.023438 20.625 C 21.023438 22.285156 22.359375 23.625 24.023438 23.625 C 25.683594 23.625 27.023438 22.285156 27.023438 20.625 C 27.023438 20.5625 27.019531 20.5 27.015625 20.4375 C 26.921875 22.011719 25.621094 23.25 24.023438 23.25 C 22.421875 23.25 21.125 22.011719 21.027344 20.4375 Z M 21.027344 20.4375 "/>
<path style=" stroke:none;fill-rule:nonzero;fill:rgb(0.784314%,0.784314%,0.784314%);fill-opacity:0.4;" d="M 24.023438 17.25 C 22.359375 17.25 21.023438 18.589844 21.023438 20.25 C 21.023438 20.3125 21.023438 20.375 21.027344 20.4375 C 21.125 18.863281 22.421875 17.625 24.023438 17.625 C 25.621094 17.625 26.921875 18.863281 27.015625 20.4375 C 27.019531 20.375 27.023438 20.3125 27.023438 20.25 C 27.023438 18.589844 25.683594 17.25 24.023438 17.25 Z M 24.023438 17.25 "/>
<path style=" stroke:none;fill-rule:nonzero;fill:rgb(100%,100%,100%);fill-opacity:0.4;" d="M 24 3 C 14.789062 3 7.238281 9.847656 6.136719 18.75 L 6.246094 18.75 C 7.667969 10.214844 15.050781 3.75 24 3.75 C 32.949219 3.75 40.332031 10.214844 41.753906 18.75 L 41.863281 18.75 C 40.761719 9.847656 33.210938 3 24 3 Z M 6.0625 19.5 C 6.023438 19.996094 6 20.496094 6 21 C 6 21.09375 6.007812 21.1875 6.007812 21.28125 C 6.015625 20.9375 6.035156 20.589844 6.0625 20.25 L 8.25 20.25 L 8.25 19.5 Z M 39.75 19.5 L 39.75 20.25 L 41.9375 20.25 C 41.964844 20.589844 41.984375 20.9375 41.992188 21.28125 C 41.992188 21.1875 42 21.09375 42 21 C 42 20.496094 41.976562 19.996094 41.9375 19.5 Z M 8.25 21 L 8.25 21.75 L 8.253906 21.75 C 8.253906 30.472656 15.277344 37.496094 24 37.496094 C 32.722656 37.496094 39.746094 30.472656 39.746094 21.75 L 39.75 21.75 L 39.75 21 L 39.746094 21 C 39.746094 29.003906 33.832031 35.574219 26.117188 36.601562 C 25.980469 36.621094 25.839844 36.636719 25.703125 36.652344 C 25.664062 36.65625 25.621094 36.664062 25.582031 36.667969 C 25.0625 36.722656 24.535156 36.75 24 36.75 C 23.464844 36.75 22.9375 36.722656 22.417969 36.667969 C 22.378906 36.664062 22.335938 36.65625 22.296875 36.652344 C 22.160156 36.636719 22.019531 36.621094 21.882812 36.601562 C 14.167969 35.574219 8.253906 29.003906 8.253906 21 Z M 8.25 21 "/>
<path style=" stroke:none;fill-rule:nonzero;fill:rgb(0%,0%,0%);fill-opacity:0.4;" d="M 6.25 17.988281 C 6.207031 18.238281 6.171875 18.488281 6.140625 18.738281 L 8.25 18.738281 L 8.25 18.75 L 9 18.75 L 9 17.988281 Z M 39 17.988281 L 39 18.75 L 39.75 18.75 L 39.75 18.738281 L 41.859375 18.738281 C 41.828125 18.488281 41.792969 18.238281 41.75 17.988281 Z M 9 20.238281 L 9 21 C 9 28.238281 14.078125 34.246094 20.878906 35.675781 C 20.988281 35.699219 21.097656 35.71875 21.207031 35.738281 C 22.113281 35.898438 23.046875 35.984375 24 35.984375 C 24.953125 35.984375 25.886719 35.898438 26.792969 35.738281 C 26.902344 35.71875 27.011719 35.699219 27.121094 35.675781 C 33.921875 34.246094 39 28.238281 39 21 L 39 20.238281 C 39 28.546875 32.308594 35.238281 24 35.238281 C 15.691406 35.238281 9 28.546875 9 20.238281 Z M 6.007812 20.710938 C 6.003906 20.808594 6 20.902344 6 21 C 6 30.972656 14.027344 39 24 39 C 33.972656 39 42 30.972656 42 21 C 42 20.902344 41.996094 20.808594 41.996094 20.710938 C 41.746094 30.464844 33.8125 38.238281 24 38.238281 C 14.1875 38.238281 6.253906 30.464844 6.007812 20.710938 Z M 6.007812 20.710938 "/>
<path style=" stroke:none;fill-rule:nonzero;fill:rgb(100%,100%,100%);fill-opacity:0.4;" d="M 4.5 40.5 C 3.667969 40.5 3 41.167969 3 42 L 3 42.703125 C 3 41.871094 3.667969 41.203125 4.5 41.203125 L 43.5 41.203125 C 44.332031 41.203125 45 41.871094 45 42.703125 L 45 42 C 45 41.167969 44.332031 40.5 43.5 40.5 Z M 4.5 40.5 "/>
<path style=" stroke:none;fill-rule:nonzero;fill:rgb(0.392157%,0.392157%,0.392157%);fill-opacity:0.4;" d="M 4.5 44.988281 C 3.667969 44.988281 3 44.320312 3 43.488281 L 3 42.785156 C 3 43.617188 3.667969 44.285156 4.5 44.285156 L 43.5 44.285156 C 44.332031 44.285156 45 43.617188 45 42.785156 L 45 43.488281 C 45 44.320312 44.332031 44.988281 43.5 44.988281 Z M 4.5 44.988281 "/>
<path style=" stroke:none;fill-rule:nonzero;fill:rgb(0%,0%,0%);fill-opacity:0.2;" d="M 3 43.476562 L 3 44.625 C 3 45.457031 3.667969 46.125 4.5 46.125 L 43.5 46.125 C 44.332031 46.125 45 45.457031 45 44.625 L 45 43.476562 C 45 44.308594 44.332031 44.976562 43.5 44.976562 L 4.5 44.976562 C 3.667969 44.976562 3 44.308594 3 43.476562 Z M 3 43.476562 "/>
<path style=" stroke:none;fill-rule:nonzero;fill:rgb(73.725492%,73.725492%,73.725492%);fill-opacity:1;" d="M 24 4.5 C 24.828125 4.5 25.5 5.171875 25.5 6 C 25.5 6.828125 24.828125 7.5 24 7.5 C 23.171875 7.5 22.5 6.828125 22.5 6 C 22.5 5.171875 23.171875 4.5 24 4.5 Z M 24 4.5 "/>
<path style=" stroke:none;fill-rule:nonzero;fill:rgb(100%,100%,100%);fill-opacity:0.4;" d="M 23.960938 4.5 C 23.148438 4.519531 22.5 5.183594 22.5 6 C 22.5 6.0625 22.503906 6.125 22.511719 6.1875 C 22.601562 5.445312 23.234375 4.875 24 4.875 C 24.765625 4.875 25.398438 5.445312 25.488281 6.1875 C 25.496094 6.125 25.5 6.0625 25.5 6 C 25.5 5.167969 24.832031 4.5 24 4.5 C 23.988281 4.5 23.972656 4.5 23.960938 4.5 Z M 23.960938 4.5 "/>
<path style=" stroke:none;fill-rule:nonzero;fill:rgb(0.392157%,0.392157%,0.392157%);fill-opacity:0.4;" d="M 23.960938 7.875 C 23.148438 7.855469 22.5 7.191406 22.5 6.375 C 22.5 6.3125 22.503906 6.25 22.511719 6.1875 C 22.601562 6.929688 23.234375 7.5 24 7.5 C 24.765625 7.5 25.398438 6.929688 25.488281 6.1875 C 25.496094 6.25 25.5 6.3125 25.5 6.375 C 25.5 7.207031 24.832031 7.875 24 7.875 C 23.988281 7.875 23.972656 7.875 23.960938 7.875 Z M 23.960938 7.875 "/>
<path style=" stroke:none;fill-rule:nonzero;fill:rgb(95.686275%,26.274511%,21.176471%);fill-opacity:1;" d="M 24 5.25 C 24.414062 5.25 24.75 5.585938 24.75 6 C 24.75 6.414062 24.414062 6.75 24 6.75 C 23.585938 6.75 23.25 6.414062 23.25 6 C 23.25 5.585938 23.585938 5.25 24 5.25 Z M 24 5.25 "/>
<path style=" stroke:none;fill-rule:nonzero;fill:rgb(0%,0%,0%);fill-opacity:0.4;" d="M 23.980469 5.25 C 23.574219 5.261719 23.25 5.589844 23.25 6 C 23.25 6.066406 23.257812 6.128906 23.273438 6.1875 C 23.355469 5.863281 23.648438 5.625 24 5.625 C 24.351562 5.625 24.644531 5.863281 24.726562 6.1875 C 24.742188 6.128906 24.75 6.066406 24.75 6 C 24.75 5.585938 24.414062 5.25 24 5.25 C 23.992188 5.25 23.988281 5.25 23.980469 5.25 Z M 23.980469 5.25 "/>
<path style=" stroke:none;fill-rule:nonzero;fill:rgb(99.215686%,99.215686%,99.215686%);fill-opacity:0.4;" d="M 23.980469 7.125 C 23.574219 7.113281 23.25 6.785156 23.25 6.375 C 23.25 6.308594 23.257812 6.246094 23.273438 6.1875 C 23.355469 6.511719 23.648438 6.75 24 6.75 C 24.351562 6.75 24.644531 6.511719 24.726562 6.1875 C 24.742188 6.246094 24.75 6.308594 24.75 6.375 C 24.75 6.789062 24.414062 7.125 24 7.125 C 23.992188 7.125 23.988281 7.125 23.980469 7.125 Z M 23.980469 7.125 "/>
<path style=" stroke:none;fill-rule:nonzero;fill:rgb(0%,0%,0%);fill-opacity:0.2;" d="M 19.5 38.4375 L 19.5 39.199219 C 20.9375 39.566406 22.445312 39.761719 24 39.761719 C 25.554688 39.761719 27.0625 39.566406 28.5 39.199219 L 28.5 38.4375 C 27.0625 38.804688 25.554688 39 24 39 C 22.445312 39 20.9375 38.804688 19.5 38.4375 Z M 19.5 38.4375 "/>
<path style=" stroke:none;fill-rule:nonzero;fill:url(#linear0);" d="M 24 3 C 14.789062 3 7.238281 9.847656 6.136719 18.75 L 9 18.75 L 9 21 C 9 29.308594 15.691406 36 24 36 C 32.308594 36 39 29.308594 39 21 L 39 18.75 L 41.863281 18.75 C 40.761719 9.847656 33.210938 3 24 3 Z M 6.0625 19.5 C 6.023438 19.996094 6 20.496094 6 21 C 6 29.417969 11.71875 36.449219 19.5 38.4375 L 19.5 40.5 L 4.5 40.5 C 3.667969 40.5 3 41.167969 3 42 L 3 43.5 C 3 44.332031 3.667969 45 4.5 45 L 43.5 45 C 44.332031 45 45 44.332031 45 43.5 L 45 42 C 45 41.167969 44.332031 40.5 43.5 40.5 L 28.5 40.5 L 28.5 38.4375 C 36.28125 36.449219 42 29.417969 42 21 C 42 20.496094 41.976562 19.996094 41.9375 19.5 L 39.75 19.5 L 39.75 21 L 39.746094 21 C 39.746094 29.722656 32.722656 36.746094 24 36.746094 C 15.277344 36.746094 8.253906 29.722656 8.253906 21 L 8.25 21 L 8.25 19.5 Z M 6.0625 19.5 "/>
</g>
</svg>
