
<svg xmlns="http://www.w3.org/2000/svg" xmlns:xlink="http://www.w3.org/1999/xlink" width="48" height="48" viewBox="0 0 48 48" version="1.1">
<defs>
<linearGradient id="linear0" gradientUnits="userSpaceOnUse" x1="8.466666" y1="-200.183334" x2="8.466666" y2="-212.883331" gradientTransform="matrix(2.834646,0,0,2.834646,0,609.448851)">
<stop offset="0" style="stop-color:rgb(0%,0%,0%);stop-opacity:0.2;"/>
<stop offset="1" style="stop-color:rgb(100%,100%,100%);stop-opacity:0;"/>
</linearGradient>
</defs>
<g id="surface1">
<path style=" stroke:none;fill-rule:nonzero;fill:rgb(93.333334%,93.333334%,93.333334%);fill-opacity:1;" d="M 6 6 L 42 6 C 43.65625 6 45 7.34375 45 9 L 45 39 C 45 40.65625 43.65625 42 42 42 L 6 42 C 4.34375 42 3 40.65625 3 39 L 3 9 C 3 7.34375 4.34375 6 6 6 Z M 6 6 "/>
<path style=" stroke:none;fill-rule:nonzero;fill:rgb(36.078432%,41.960785%,75.294119%);fill-opacity:1;" d="M 6 5.984375 L 42 5.984375 C 43.65625 5.984375 45 7.328125 45 8.984375 L 45 38.984375 C 45 40.640625 43.65625 41.984375 42 41.984375 L 6 41.984375 C 4.34375 41.984375 3 40.640625 3 38.984375 L 3 8.984375 C 3 7.328125 4.34375 5.984375 6 5.984375 Z M 6 5.984375 "/>
<path style=" stroke:none;fill-rule:nonzero;fill:rgb(25.882354%,64.705884%,96.078432%);fill-opacity:1;" d="M 3.390625 12 L 24 27 L 4.054688 41.269531 C 3.410156 40.722656 3 39.902344 3 38.984375 L 3 13.484375 C 3 12.945312 3.144531 12.4375 3.390625 12 Z M 3.390625 12 "/>
<path style=" stroke:none;fill-rule:nonzero;fill:rgb(47.058824%,56.470591%,61.176473%);fill-opacity:1;" d="M 24 27 L 3.949219 41.171875 C 4.484375 41.675781 5.203125 41.984375 6 41.984375 L 42 41.984375 C 42.796875 41.984375 43.515625 41.675781 44.050781 41.171875 Z M 24 27 "/>
<path style=" stroke:none;fill-rule:nonzero;fill:rgb(92.54902%,25.098041%,47.843137%);fill-opacity:1;" d="M 44.609375 10.5 L 24 27 L 43.945312 41.269531 C 44.589844 40.722656 45 39.902344 45 38.984375 L 45 11.984375 C 45 11.445312 44.855469 10.9375 44.609375 10.5 Z M 44.609375 10.5 "/>
<path style=" stroke:none;fill-rule:nonzero;fill:rgb(38.039216%,38.039216%,38.039216%);fill-opacity:1;" d="M 6 6 C 4.339844 6 3 7.339844 3 9 L 3 13.5 L 45 13.5 L 45 9 C 45 7.339844 43.664062 6 42 6 Z M 6 6 "/>
<path style=" stroke:none;fill-rule:nonzero;fill:rgb(93.333334%,93.333334%,93.333334%);fill-opacity:1;" d="M 6 6 C 4.339844 6 3 7.339844 3 9 L 3 13.5 L 24 13.5 L 24 6 Z M 6 6 "/>
<path style=" stroke:none;fill-rule:nonzero;fill:rgb(100%,100%,100%);fill-opacity:0.4;" d="M 6 6 C 4.339844 6 3 7.339844 3 9 L 3 9.75 C 3 8.089844 4.339844 6.75 6 6.75 L 42 6.75 C 43.664062 6.75 45 8.089844 45 9.75 L 45 9 C 45 7.339844 43.664062 6 42 6 Z M 6 6 "/>
<path style=" stroke:none;fill-rule:nonzero;fill:rgb(0%,0%,0%);fill-opacity:0.4;" d="M 3 13.5 L 45 13.5 L 45 14.25 L 3 14.25 Z M 3 13.5 "/>
<path style=" stroke:none;fill-rule:nonzero;fill:rgb(0%,0%,0%);fill-opacity:0.2;" d="M 3 39.03125 L 3 40.152344 C 3 41.8125 4.339844 43.152344 6 43.152344 L 42 43.152344 C 43.660156 43.152344 45 41.8125 45 40.152344 L 45 39.03125 C 45 40.695312 43.660156 42.03125 42 42.03125 L 6 42.03125 C 4.339844 42.03125 3 40.695312 3 39.03125 Z M 3 39.03125 "/>
<path style=" stroke:none;fill-rule:nonzero;fill:rgb(0%,0%,0%);fill-opacity:0.4;" d="M 3 38.253906 L 3 39 C 3 40.660156 4.339844 42 6 42 L 42 42 C 43.660156 42 45 40.660156 45 39 L 45 38.253906 C 45 39.914062 43.660156 41.253906 42 41.253906 L 6 41.253906 C 4.339844 41.253906 3 39.914062 3 38.253906 Z M 3 38.253906 "/>
<path style=" stroke:none;fill-rule:nonzero;fill:rgb(95.686275%,26.274511%,21.176471%);fill-opacity:1;" d="M 42 8.25 C 42.828125 8.25 43.5 8.921875 43.5 9.75 C 43.5 10.578125 42.828125 11.25 42 11.25 C 41.171875 11.25 40.5 10.578125 40.5 9.75 C 40.5 8.921875 41.171875 8.25 42 8.25 Z M 42 8.25 "/>
<path style=" stroke:none;fill-rule:nonzero;fill:rgb(100%,65.490198%,14.901961%);fill-opacity:1;" d="M 37.5 8.25 C 38.328125 8.25 39 8.921875 39 9.75 C 39 10.578125 38.328125 11.25 37.5 11.25 C 36.671875 11.25 36 10.578125 36 9.75 C 36 8.921875 36.671875 8.25 37.5 8.25 Z M 37.5 8.25 "/>
<path style=" stroke:none;fill-rule:nonzero;fill:rgb(40.000001%,73.333335%,41.568628%);fill-opacity:0.988235;" d="M 33 8.25 C 33.828125 8.25 34.5 8.921875 34.5 9.75 C 34.5 10.578125 33.828125 11.25 33 11.25 C 32.171875 11.25 31.5 10.578125 31.5 9.75 C 31.5 8.921875 32.171875 8.25 33 8.25 Z M 33 8.25 "/>
<path style=" stroke:none;fill-rule:nonzero;fill:rgb(100%,100%,100%);fill-opacity:0.4;" d="M 6 6 C 4.339844 6 3 7.339844 3 9 L 3 9.75 C 3 8.089844 4.339844 6.75 6 6.75 L 24 6.75 L 24 6 Z M 6 6 "/>
<path style=" stroke:none;fill-rule:nonzero;fill:rgb(40.000001%,73.333335%,41.568628%);fill-opacity:0.988235;" d="M 33 8.25 C 33.828125 8.25 34.5 8.921875 34.5 9.75 C 34.5 10.578125 33.828125 11.25 33 11.25 C 32.171875 11.25 31.5 10.578125 31.5 9.75 C 31.5 8.921875 32.171875 8.25 33 8.25 Z M 33 8.25 "/>
<path style=" stroke:none;fill-rule:nonzero;fill:rgb(100%,100%,100%);fill-opacity:0.4;" d="M 31.511719 9.933594 C 31.503906 9.996094 31.5 10.058594 31.5 10.125 C 31.5 10.953125 32.167969 11.625 33 11.625 C 33.832031 11.625 34.5 10.953125 34.5 10.125 C 34.5 10.058594 34.496094 9.996094 34.488281 9.933594 C 34.398438 10.675781 33.769531 11.25 33 11.25 C 32.230469 11.25 31.601562 10.675781 31.511719 9.933594 Z M 36.011719 9.933594 C 36.003906 9.996094 36 10.058594 36 10.125 C 36 10.953125 36.667969 11.625 37.5 11.625 C 38.332031 11.625 39 10.953125 39 10.125 C 39 10.058594 38.996094 9.996094 38.988281 9.933594 C 38.898438 10.675781 38.269531 11.25 37.5 11.25 C 36.730469 11.25 36.101562 10.675781 36.011719 9.933594 Z M 40.511719 9.933594 C 40.503906 9.996094 40.5 10.058594 40.5 10.125 C 40.5 10.953125 41.167969 11.625 42 11.625 C 42.832031 11.625 43.5 10.953125 43.5 10.125 C 43.5 10.058594 43.496094 9.996094 43.488281 9.933594 C 43.398438 10.675781 42.769531 11.25 42 11.25 C 41.230469 11.25 40.601562 10.675781 40.511719 9.933594 Z M 40.511719 9.933594 "/>
<path style=" stroke:none;fill-rule:nonzero;fill:rgb(0%,0%,0%);fill-opacity:0.4;" d="M 33 8.25 C 32.167969 8.25 31.5 8.921875 31.5 9.75 C 31.5 9.816406 31.503906 9.878906 31.511719 9.941406 C 31.601562 9.199219 32.230469 8.625 33 8.625 C 33.769531 8.625 34.398438 9.199219 34.488281 9.941406 C 34.496094 9.878906 34.5 9.816406 34.5 9.75 C 34.5 8.921875 33.832031 8.25 33 8.25 Z M 37.5 8.25 C 36.667969 8.25 36 8.921875 36 9.75 C 36 9.816406 36.003906 9.878906 36.011719 9.941406 C 36.101562 9.199219 36.730469 8.625 37.5 8.625 C 38.269531 8.625 38.898438 9.199219 38.988281 9.941406 C 38.996094 9.878906 39 9.816406 39 9.75 C 39 8.921875 38.332031 8.25 37.5 8.25 Z M 42 8.25 C 41.167969 8.25 40.5 8.921875 40.5 9.75 C 40.5 9.816406 40.503906 9.878906 40.511719 9.941406 C 40.601562 9.199219 41.230469 8.625 42 8.625 C 42.769531 8.625 43.398438 9.199219 43.488281 9.941406 C 43.496094 9.878906 43.5 9.816406 43.5 9.75 C 43.5 8.921875 42.832031 8.25 42 8.25 Z M 42 8.25 "/>
<path style=" stroke:none;fill-rule:nonzero;fill:rgb(87.843138%,87.843138%,87.843138%);fill-opacity:0.996078;" d="M 7.875 16.519531 L 11.625 16.519531 C 11.832031 16.519531 12 16.6875 12 16.894531 L 12 19.144531 C 12 19.351562 11.832031 19.519531 11.625 19.519531 L 7.875 19.519531 C 7.667969 19.519531 7.5 19.351562 7.5 19.144531 L 7.5 16.894531 C 7.5 16.6875 7.667969 16.519531 7.875 16.519531 Z M 7.875 16.519531 "/>
<path style=" stroke:none;fill-rule:nonzero;fill:rgb(100%,100%,100%);fill-opacity:0.8;" d="M 7.855469 16.519531 C 7.65625 16.527344 7.5 16.691406 7.5 16.894531 L 7.5 17.625 C 7.511719 17.425781 7.671875 17.269531 7.875 17.269531 L 11.625 17.269531 C 11.828125 17.269531 11.988281 17.425781 12 17.625 L 12 16.894531 C 12 16.6875 11.832031 16.519531 11.625 16.519531 L 7.875 16.519531 C 7.867188 16.519531 7.863281 16.519531 7.855469 16.519531 Z M 7.855469 16.519531 "/>
<path style=" stroke:none;fill-rule:nonzero;fill:rgb(8.627451%,8.627451%,8.627451%);fill-opacity:0.8;" d="M 7.855469 20.25 C 7.65625 20.238281 7.5 20.078125 7.5 19.875 L 7.5 19.144531 C 7.511719 19.34375 7.671875 19.5 7.875 19.5 L 11.625 19.5 C 11.828125 19.5 11.988281 19.34375 12 19.144531 L 12 19.875 C 12 20.082031 11.832031 20.25 11.625 20.25 L 7.875 20.25 C 7.867188 20.25 7.863281 20.25 7.855469 20.25 Z M 7.855469 20.25 "/>
<path style=" stroke:none;fill-rule:nonzero;fill:rgb(87.843138%,87.843138%,87.843138%);fill-opacity:0.996078;" d="M 7.875 16.519531 L 11.625 16.519531 C 11.832031 16.519531 12 16.6875 12 16.894531 L 12 19.144531 C 12 19.351562 11.832031 19.519531 11.625 19.519531 L 7.875 19.519531 C 7.667969 19.519531 7.5 19.351562 7.5 19.144531 L 7.5 16.894531 C 7.5 16.6875 7.667969 16.519531 7.875 16.519531 Z M 7.875 16.519531 "/>
<path style=" stroke:none;fill-rule:nonzero;fill:rgb(100%,100%,100%);fill-opacity:0.8;" d="M 7.855469 16.519531 C 7.65625 16.527344 7.5 16.691406 7.5 16.894531 L 7.5 17.625 C 7.511719 17.425781 7.671875 17.269531 7.875 17.269531 L 11.625 17.269531 C 11.828125 17.269531 11.988281 17.425781 12 17.625 L 12 16.894531 C 12 16.6875 11.832031 16.519531 11.625 16.519531 L 7.875 16.519531 C 7.867188 16.519531 7.863281 16.519531 7.855469 16.519531 Z M 7.855469 16.519531 "/>
<path style=" stroke:none;fill-rule:nonzero;fill:rgb(8.627451%,8.627451%,8.627451%);fill-opacity:0.8;" d="M 7.855469 20.25 C 7.65625 20.238281 7.5 20.078125 7.5 19.875 L 7.5 19.144531 C 7.511719 19.34375 7.671875 19.5 7.875 19.5 L 11.625 19.5 C 11.828125 19.5 11.988281 19.34375 12 19.144531 L 12 19.875 C 12 20.082031 11.832031 20.25 11.625 20.25 L 7.875 20.25 C 7.867188 20.25 7.863281 20.25 7.855469 20.25 Z M 7.855469 20.25 "/>
<path style=" stroke:none;fill-rule:nonzero;fill:rgb(87.843138%,87.843138%,87.843138%);fill-opacity:0.996078;" d="M 7.875 16.519531 L 11.625 16.519531 C 11.832031 16.519531 12 16.6875 12 16.894531 L 12 19.144531 C 12 19.351562 11.832031 19.519531 11.625 19.519531 L 7.875 19.519531 C 7.667969 19.519531 7.5 19.351562 7.5 19.144531 L 7.5 16.894531 C 7.5 16.6875 7.667969 16.519531 7.875 16.519531 Z M 7.875 16.519531 "/>
<path style=" stroke:none;fill-rule:nonzero;fill:rgb(100%,100%,100%);fill-opacity:0.8;" d="M 7.855469 16.519531 C 7.65625 16.527344 7.5 16.691406 7.5 16.894531 L 7.5 17.625 C 7.511719 17.425781 7.671875 17.269531 7.875 17.269531 L 11.625 17.269531 C 11.828125 17.269531 11.988281 17.425781 12 17.625 L 12 16.894531 C 12 16.6875 11.832031 16.519531 11.625 16.519531 L 7.875 16.519531 C 7.867188 16.519531 7.863281 16.519531 7.855469 16.519531 Z M 7.855469 16.519531 "/>
<path style=" stroke:none;fill-rule:nonzero;fill:rgb(8.627451%,8.627451%,8.627451%);fill-opacity:0.8;" d="M 7.855469 20.25 C 7.65625 20.238281 7.5 20.078125 7.5 19.875 L 7.5 19.144531 C 7.511719 19.34375 7.671875 19.5 7.875 19.5 L 11.625 19.5 C 11.828125 19.5 11.988281 19.34375 12 19.144531 L 12 19.875 C 12 20.082031 11.832031 20.25 11.625 20.25 L 7.875 20.25 C 7.867188 20.25 7.863281 20.25 7.855469 20.25 Z M 7.855469 20.25 "/>
<path style=" stroke:none;fill-rule:nonzero;fill:rgb(87.843138%,87.843138%,87.843138%);fill-opacity:0.996078;" d="M 7.875 22.519531 L 11.625 22.519531 C 11.832031 22.519531 12 22.6875 12 22.894531 L 12 25.144531 C 12 25.351562 11.832031 25.519531 11.625 25.519531 L 7.875 25.519531 C 7.667969 25.519531 7.5 25.351562 7.5 25.144531 L 7.5 22.894531 C 7.5 22.6875 7.667969 22.519531 7.875 22.519531 Z M 7.875 22.519531 "/>
<path style=" stroke:none;fill-rule:nonzero;fill:rgb(100%,100%,100%);fill-opacity:0.8;" d="M 7.855469 22.519531 C 7.65625 22.527344 7.5 22.691406 7.5 22.894531 L 7.5 23.625 C 7.511719 23.425781 7.671875 23.269531 7.875 23.269531 L 11.625 23.269531 C 11.828125 23.269531 11.988281 23.425781 12 23.625 L 12 22.894531 C 12 22.6875 11.832031 22.519531 11.625 22.519531 L 7.875 22.519531 C 7.867188 22.519531 7.863281 22.519531 7.855469 22.519531 Z M 7.855469 22.519531 "/>
<path style=" stroke:none;fill-rule:nonzero;fill:rgb(8.627451%,8.627451%,8.627451%);fill-opacity:0.8;" d="M 7.855469 26.25 C 7.65625 26.238281 7.5 26.078125 7.5 25.875 L 7.5 25.144531 C 7.511719 25.34375 7.671875 25.5 7.875 25.5 L 11.625 25.5 C 11.828125 25.5 11.988281 25.34375 12 25.144531 L 12 25.875 C 12 26.082031 11.832031 26.25 11.625 26.25 L 7.875 26.25 C 7.867188 26.25 7.863281 26.25 7.855469 26.25 Z M 7.855469 26.25 "/>
<path style=" stroke:none;fill-rule:nonzero;fill:url(#linear0);" d="M 6 6 L 42 6 C 43.65625 6 45 7.34375 45 9 L 45 39 C 45 40.65625 43.65625 42 42 42 L 6 42 C 4.34375 42 3 40.65625 3 39 L 3 9 C 3 7.34375 4.34375 6 6 6 Z M 6 6 "/>
</g>
</svg>
