
<svg xmlns="http://www.w3.org/2000/svg" xmlns:xlink="http://www.w3.org/1999/xlink" width="48" height="48" viewBox="0 0 48 48" version="1.1">
<defs>
<linearGradient id="linear0" gradientUnits="userSpaceOnUse" x1="8.466666" y1="-199.125" x2="8.466666" y2="-213.941666" gradientTransform="matrix(2.834646,0,0,2.834646,-0.00000947146,609.448851)">
<stop offset="0" style="stop-color:rgb(0%,0%,0%);stop-opacity:0.2;"/>
<stop offset="1" style="stop-color:rgb(100%,100%,100%);stop-opacity:0;"/>
</linearGradient>
<linearGradient id="linear1" gradientUnits="userSpaceOnUse" x1="46" y1="60" x2="46" y2="29.999998" gradientTransform="matrix(0.75,0,0,0.75,0.0425858,0.000000000000085265)">
<stop offset="0" style="stop-color:rgb(0%,0%,0%);stop-opacity:0.2;"/>
<stop offset="1" style="stop-color:rgb(100%,100%,100%);stop-opacity:0;"/>
</linearGradient>
</defs>
<g id="surface1">
<path style=" stroke:none;fill-rule:nonzero;fill:rgb(93.333334%,93.333334%,93.333334%);fill-opacity:1;" d="M 6 3 L 42 3 C 43.65625 3 45 4.34375 45 6 L 45 42 C 45 43.65625 43.65625 45 42 45 L 6 45 C 4.34375 45 3 43.65625 3 42 L 3 6 C 3 4.34375 4.34375 3 6 3 Z M 6 3 "/>
<path style=" stroke:none;fill-rule:nonzero;fill:rgb(38.039216%,38.039216%,38.039216%);fill-opacity:0.992157;" d="M 7.875 28.5 L 10.125 28.5 C 10.332031 28.5 10.5 28.667969 10.5 28.875 L 10.5 29.625 C 10.5 29.832031 10.332031 30 10.125 30 L 7.875 30 C 7.667969 30 7.5 29.832031 7.5 29.625 L 7.5 28.875 C 7.5 28.667969 7.667969 28.5 7.875 28.5 Z M 7.875 28.5 "/>
<path style=" stroke:none;fill-rule:nonzero;fill:rgb(38.039216%,38.039216%,38.039216%);fill-opacity:0.992157;" d="M 12.375 28.5 L 14.625 28.5 C 14.832031 28.5 15 28.667969 15 28.875 L 15 29.625 C 15 29.832031 14.832031 30 14.625 30 L 12.375 30 C 12.167969 30 12 29.832031 12 29.625 L 12 28.875 C 12 28.667969 12.167969 28.5 12.375 28.5 Z M 12.375 28.5 "/>
<path style=" stroke:none;fill-rule:nonzero;fill:rgb(38.039216%,38.039216%,38.039216%);fill-opacity:0.992157;" d="M 16.875 28.5 L 19.125 28.5 C 19.332031 28.5 19.5 28.667969 19.5 28.875 L 19.5 29.625 C 19.5 29.832031 19.332031 30 19.125 30 L 16.875 30 C 16.667969 30 16.5 29.832031 16.5 29.625 L 16.5 28.875 C 16.5 28.667969 16.667969 28.5 16.875 28.5 Z M 16.875 28.5 "/>
<path style=" stroke:none;fill-rule:nonzero;fill:rgb(95.686275%,26.274511%,21.176471%);fill-opacity:1;" d="M 6 3 C 4.339844 3 3 4.339844 3 6 L 3 13.5 C 3 15.160156 4.339844 16.5 6 16.5 L 7.5 16.5 L 7.5 3 Z M 6 3 "/>
<path style=" stroke:none;fill-rule:nonzero;fill:rgb(95.686275%,26.274511%,21.176471%);fill-opacity:1;" d="M 24 3 L 24 45 L 42 45 C 43.660156 45 45 43.660156 45 42 L 45 6 C 45 4.339844 43.660156 3 42 3 Z M 24 3 "/>
<path style=" stroke:none;fill-rule:nonzero;fill:rgb(47.058824%,56.470591%,61.176473%);fill-opacity:1;" d="M 3 33 L 3 42 C 3 43.660156 4.339844 45 6 45 L 42 45 C 43.660156 45 45 43.660156 45 42 L 45 33 C 45 34.660156 43.660156 36 42 36 L 6 36 C 4.339844 36 3 34.660156 3 33 Z M 3 33 "/>
<path style=" stroke:none;fill-rule:nonzero;fill:rgb(0%,0%,0%);fill-opacity:0.4;" d="M 3 41.25 L 3 42 C 3 43.660156 4.339844 45 6 45 L 42 45 C 43.660156 45 45 43.660156 45 42 L 45 41.25 C 45 42.910156 43.660156 44.25 42 44.25 L 6 44.25 C 4.339844 44.25 3 42.910156 3 41.25 Z M 3 41.25 "/>
<path style=" stroke:none;fill-rule:nonzero;fill:rgb(0%,0%,0%);fill-opacity:0.2;" d="M 3 42 L 3 43.125 C 3 44.785156 4.339844 46.125 6 46.125 L 42 46.125 C 43.660156 46.125 45 44.785156 45 43.125 L 45 42 C 45 43.660156 43.660156 45 42 45 L 6 45 C 4.339844 45 3 43.660156 3 42 Z M 3 42 "/>
<path style=" stroke:none;fill-rule:nonzero;fill:rgb(45.882353%,45.882353%,45.882353%);fill-opacity:0.992157;" d="M 6 3 L 42 3 C 43.65625 3 45 4.34375 45 6 C 45 7.65625 43.65625 9 42 9 L 6 9 C 4.34375 9 3 7.65625 3 6 C 3 4.34375 4.34375 3 6 3 Z M 6 3 "/>
<path style=" stroke:none;fill-rule:nonzero;fill:rgb(100%,100%,100%);fill-opacity:0.4;" d="M 6 3 C 4.339844 3 3 4.339844 3 6 L 3 6.738281 C 3 5.078125 4.339844 3.738281 6 3.738281 L 42 3.738281 C 43.660156 3.738281 45 5.078125 45 6.738281 L 45 6 C 45 4.339844 43.660156 3 42 3 Z M 6 3 "/>
<path style=" stroke:none;fill-rule:nonzero;fill:rgb(87.843138%,87.843138%,87.843138%);fill-opacity:1;" d="M 33.792969 26.25 L 36.792969 26.25 C 37.207031 26.25 37.542969 26.585938 37.542969 27 L 37.542969 30 C 37.542969 30.414062 37.207031 30.75 36.792969 30.75 L 33.792969 30.75 C 33.378906 30.75 33.042969 30.414062 33.042969 30 L 33.042969 27 C 33.042969 26.585938 33.378906 26.25 33.792969 26.25 Z M 33.792969 26.25 "/>
<path style=" stroke:none;fill-rule:nonzero;fill:rgb(0%,0%,0%);fill-opacity:0.4;" d="M 33.042969 30 L 33.042969 30.75 C 33.042969 31.164062 33.378906 31.5 33.792969 31.5 L 36.792969 31.5 C 37.207031 31.5 37.542969 31.164062 37.542969 30.75 L 37.542969 30 C 37.542969 30.414062 37.207031 30.75 36.792969 30.75 L 33.792969 30.75 C 33.378906 30.75 33.042969 30.414062 33.042969 30 Z M 33.042969 30 "/>
<path style=" stroke:none;fill-rule:nonzero;fill:rgb(100%,100%,100%);fill-opacity:0.8;" d="M 33.042969 27.75 L 33.042969 27 C 33.042969 26.585938 33.378906 26.25 33.792969 26.25 L 36.792969 26.25 C 37.207031 26.25 37.542969 26.585938 37.542969 27 L 37.542969 27.75 C 37.542969 27.335938 37.207031 27 36.792969 27 L 33.792969 27 C 33.378906 27 33.042969 27.335938 33.042969 27.75 Z M 33.042969 27.75 "/>
<path style=" stroke:none;fill-rule:nonzero;fill:rgb(0%,0%,0%);fill-opacity:0.4;" d="M 34.542969 22.5 L 34.542969 23.25 L 33.042969 23.25 C 32.210938 23.25 31.542969 23.917969 31.542969 24.75 L 31.542969 24 C 31.542969 23.167969 32.210938 22.5 33.042969 22.5 Z M 34.542969 22.5 "/>
<path style=" stroke:none;fill-rule:nonzero;fill:rgb(100%,100%,100%);fill-opacity:0.4;" d="M 34.542969 38.25 L 34.542969 37.5 L 33.042969 37.5 C 32.210938 37.5 31.542969 36.832031 31.542969 36 L 31.542969 36.75 C 31.542969 37.582031 32.210938 38.25 33.042969 38.25 Z M 34.542969 38.25 "/>
<path style=" stroke:none;fill-rule:nonzero;fill:url(#linear0);" d="M 6 3 L 42 3 C 43.65625 3 45 4.34375 45 6 L 45 42 C 45 43.65625 43.65625 45 42 45 L 6 45 C 4.34375 45 3 43.65625 3 42 L 3 6 C 3 4.34375 4.34375 3 6 3 Z M 6 3 "/>
<path style=" stroke:none;fill-rule:nonzero;fill:rgb(93.333334%,93.333334%,93.333334%);fill-opacity:0.996078;" d="M 33.792969 22.5 C 27.558594 22.5 22.542969 27.515625 22.542969 33.75 C 22.542969 39.984375 27.558594 45 33.792969 45 C 40.023438 45 45.042969 39.984375 45.042969 33.75 C 45.042969 27.515625 40.023438 22.5 33.792969 22.5 Z M 33.734375 31.5 C 33.753906 31.5 33.773438 31.5 33.792969 31.5 C 35.039062 31.5 36.042969 32.503906 36.042969 33.75 C 36.042969 34.996094 35.039062 36 33.792969 36 C 32.546875 36 31.542969 34.996094 31.542969 33.75 C 31.542969 32.523438 32.515625 31.53125 33.734375 31.5 Z M 33.734375 31.5 "/>
<path style=" stroke:none;fill-rule:nonzero;fill:rgb(87.843138%,87.843138%,87.843138%);fill-opacity:0.996078;" d="M 33.792969 28.5 C 30.882812 28.5 28.542969 30.839844 28.542969 33.75 C 28.542969 36.660156 30.882812 39 33.792969 39 C 36.699219 39 39.042969 36.660156 39.042969 33.75 C 39.042969 30.839844 36.699219 28.5 33.792969 28.5 Z M 33.734375 31.5 C 33.753906 31.5 33.773438 31.5 33.792969 31.5 C 35.039062 31.5 36.042969 32.503906 36.042969 33.75 C 36.042969 34.996094 35.039062 36 33.792969 36 C 32.546875 36 31.542969 34.996094 31.542969 33.75 C 31.542969 32.523438 32.515625 31.53125 33.734375 31.5 Z M 33.734375 31.5 "/>
<path style=" stroke:none;fill-rule:nonzero;fill:rgb(100%,100%,100%);fill-opacity:0.6;" d="M 33.792969 28.5 C 30.882812 28.5 28.542969 30.839844 28.542969 33.75 C 28.542969 33.804688 28.546875 33.863281 28.546875 33.917969 C 28.65625 31.105469 30.953125 28.875 33.792969 28.875 C 36.632812 28.875 38.929688 31.105469 39.039062 33.917969 C 39.039062 33.863281 39.042969 33.804688 39.042969 33.75 C 39.042969 30.839844 36.699219 28.5 33.792969 28.5 Z M 36.035156 33.929688 C 35.941406 35.089844 34.980469 36 33.792969 36 C 32.605469 36 31.644531 35.089844 31.550781 33.929688 C 31.546875 33.996094 31.542969 34.058594 31.542969 34.125 C 31.542969 35.371094 32.546875 36.375 33.792969 36.375 C 35.039062 36.375 36.042969 35.371094 36.042969 34.125 C 36.042969 34.058594 36.039062 33.992188 36.035156 33.929688 Z M 36.035156 33.929688 "/>
<path style=" stroke:none;fill-rule:nonzero;fill:rgb(0%,0%,0%);fill-opacity:0.4;" d="M 33.792969 39.375 C 30.882812 39.375 28.542969 37.035156 28.542969 34.125 C 28.542969 34.070312 28.546875 34.011719 28.546875 33.957031 C 28.65625 36.769531 30.953125 39 33.792969 39 C 36.632812 39 38.929688 36.769531 39.039062 33.957031 C 39.039062 34.011719 39.042969 34.070312 39.042969 34.125 C 39.042969 37.035156 36.699219 39.375 33.792969 39.375 Z M 36.035156 33.945312 C 35.941406 32.785156 34.980469 31.875 33.792969 31.875 C 32.605469 31.875 31.644531 32.785156 31.550781 33.945312 C 31.546875 33.878906 31.542969 33.816406 31.542969 33.75 C 31.542969 32.503906 32.546875 31.5 33.792969 31.5 C 35.039062 31.5 36.042969 32.503906 36.042969 33.75 C 36.042969 33.816406 36.039062 33.882812 36.035156 33.945312 Z M 36.035156 33.945312 "/>
<path style=" stroke:none;fill-rule:nonzero;fill:rgb(100%,100%,100%);fill-opacity:0.4;" d="M 33.792969 22.5 C 27.558594 22.5 22.542969 27.515625 22.542969 33.75 C 22.542969 33.785156 22.546875 33.820312 22.546875 33.855469 C 22.6875 27.75 27.648438 22.875 33.792969 22.875 C 39.933594 22.875 44.898438 27.75 45.039062 33.855469 C 45.039062 33.820312 45.042969 33.785156 45.042969 33.75 C 45.042969 27.515625 40.023438 22.5 33.792969 22.5 Z M 36.035156 33.929688 C 35.941406 35.089844 34.980469 36 33.792969 36 C 32.605469 36 31.644531 35.089844 31.550781 33.929688 C 31.546875 33.996094 31.542969 34.058594 31.542969 34.125 C 31.542969 35.371094 32.546875 36.375 33.792969 36.375 C 35.039062 36.375 36.042969 35.371094 36.042969 34.125 C 36.042969 34.058594 36.039062 33.992188 36.035156 33.929688 Z M 36.035156 33.929688 "/>
<path style=" stroke:none;fill-rule:nonzero;fill:rgb(100%,100%,100%);fill-opacity:0.8;" d="M 26.730469 26.6875 C 25.875 27.542969 25.171875 28.550781 24.664062 29.671875 L 26.207031 30.371094 C 27.050781 28.507812 28.550781 27.011719 30.414062 26.164062 L 29.714844 24.621094 C 28.59375 25.128906 27.585938 25.832031 26.730469 26.6875 Z M 28.527344 28.484375 C 27.886719 29.128906 27.359375 29.882812 26.980469 30.722656 L 28.519531 31.421875 C 29.113281 30.117188 30.160156 29.070312 31.464844 28.476562 L 30.765625 26.9375 C 29.925781 27.316406 29.167969 27.84375 28.527344 28.484375 Z M 36.367188 39.269531 L 37.066406 40.8125 C 37.90625 40.429688 38.664062 39.902344 39.304688 39.261719 C 39.945312 38.621094 40.472656 37.863281 40.851562 37.023438 L 39.3125 36.324219 C 38.722656 37.628906 37.671875 38.679688 36.367188 39.269531 Z M 37.417969 41.582031 L 38.121094 43.125 C 39.238281 42.617188 40.246094 41.914062 41.101562 41.058594 C 41.957031 40.203125 42.660156 39.195312 43.167969 38.078125 L 41.625 37.375 C 40.78125 39.238281 39.28125 40.738281 37.417969 41.582031 Z M 37.417969 41.582031 "/>
<path style=" stroke:none;fill-rule:nonzero;fill:rgb(0.392157%,0.392157%,0.392157%);fill-opacity:0.4;" d="M 33.792969 45 C 27.558594 45 22.542969 39.984375 22.542969 33.75 C 22.542969 33.714844 22.546875 33.679688 22.546875 33.644531 C 22.6875 39.75 27.648438 44.625 33.792969 44.625 C 39.933594 44.625 44.898438 39.75 45.039062 33.644531 C 45.039062 33.679688 45.042969 33.714844 45.042969 33.75 C 45.042969 39.984375 40.023438 45 33.792969 45 Z M 36.035156 33.570312 C 35.941406 32.410156 34.980469 31.5 33.792969 31.5 C 32.605469 31.5 31.644531 32.410156 31.550781 33.570312 C 31.546875 33.503906 31.542969 33.441406 31.542969 33.375 C 31.542969 32.128906 32.546875 31.125 33.792969 31.125 C 35.039062 31.125 36.042969 32.128906 36.042969 33.375 C 36.042969 33.441406 36.039062 33.507812 36.035156 33.570312 Z M 36.035156 33.570312 "/>
<path style=" stroke:none;fill-rule:nonzero;fill:url(#linear1);" d="M 33.792969 22.5 C 27.558594 22.5 22.542969 27.515625 22.542969 33.75 C 22.542969 39.984375 27.558594 45 33.792969 45 C 40.023438 45 45.042969 39.984375 45.042969 33.75 C 45.042969 27.515625 40.023438 22.5 33.792969 22.5 Z M 33.734375 31.5 C 33.753906 31.5 33.773438 31.5 33.792969 31.5 C 35.039062 31.5 36.042969 32.503906 36.042969 33.75 C 36.042969 34.996094 35.039062 36 33.792969 36 C 32.546875 36 31.542969 34.996094 31.542969 33.75 C 31.542969 32.523438 32.515625 31.53125 33.734375 31.5 Z M 33.734375 31.5 "/>
<path style=" stroke:none;fill-rule:nonzero;fill:rgb(0%,0%,0%);fill-opacity:0.2;" d="M 33.734375 31.5 C 32.515625 31.53125 31.542969 32.523438 31.542969 33.75 C 31.542969 33.945312 31.566406 34.132812 31.613281 34.3125 C 31.855469 33.359375 32.707031 32.652344 33.734375 32.625 C 33.753906 32.625 33.773438 32.625 33.792969 32.625 C 34.84375 32.625 35.722656 33.339844 35.972656 34.3125 C 36.019531 34.132812 36.042969 33.945312 36.042969 33.75 C 36.042969 32.503906 35.039062 31.5 33.792969 31.5 C 33.773438 31.5 33.753906 31.5 33.734375 31.5 Z M 22.558594 34.3125 C 22.546875 34.5 22.542969 34.6875 22.542969 34.875 C 22.542969 39.339844 25.117188 43.179688 28.871094 45 L 33.792969 45 C 27.75 45 22.847656 40.28125 22.558594 34.3125 Z M 33.792969 45 L 38.714844 45 C 42.46875 43.179688 45.042969 39.339844 45.042969 34.875 C 45.042969 34.6875 45.035156 34.5 45.027344 34.3125 C 44.738281 40.28125 39.835938 45 33.792969 45 Z M 33.792969 45 "/>
<path style=" stroke:none;fill-rule:nonzero;fill:rgb(100%,100%,100%);fill-opacity:0.4;" d="M 3.023438 6.375 C 3.007812 6.496094 3 6.621094 3 6.75 C 3 8.410156 4.339844 9.75 6 9.75 L 42 9.75 C 43.660156 9.75 45 8.410156 45 6.75 C 45 6.621094 44.992188 6.496094 44.976562 6.375 C 44.792969 7.859375 43.535156 9 42 9 L 6 9 C 4.464844 9 3.207031 7.859375 3.023438 6.375 Z M 3.023438 6.375 "/>
<path style=" stroke:none;fill-rule:nonzero;fill:rgb(93.333334%,93.333334%,93.333334%);fill-opacity:0.992157;" d="M 27.375 13.5 L 31.125 13.5 C 31.332031 13.5 31.5 13.667969 31.5 13.875 L 31.5 14.625 C 31.5 14.832031 31.332031 15 31.125 15 L 27.375 15 C 27.167969 15 27 14.832031 27 14.625 L 27 13.875 C 27 13.667969 27.167969 13.5 27.375 13.5 Z M 27.375 13.5 "/>
<path style=" stroke:none;fill-rule:nonzero;fill:rgb(93.333334%,93.333334%,93.333334%);fill-opacity:0.992157;" d="M 33.375 13.5 L 37.125 13.5 C 37.332031 13.5 37.5 13.667969 37.5 13.875 L 37.5 14.625 C 37.5 14.832031 37.332031 15 37.125 15 L 33.375 15 C 33.167969 15 33 14.832031 33 14.625 L 33 13.875 C 33 13.667969 33.167969 13.5 33.375 13.5 Z M 33.375 13.5 "/>
<path style=" stroke:none;fill-rule:nonzero;fill:rgb(93.333334%,93.333334%,93.333334%);fill-opacity:0.992157;" d="M 39.375 13.5 L 41.625 13.5 C 41.832031 13.5 42 13.667969 42 13.875 L 42 14.625 C 42 14.832031 41.832031 15 41.625 15 L 39.375 15 C 39.167969 15 39 14.832031 39 14.625 L 39 13.875 C 39 13.667969 39.167969 13.5 39.375 13.5 Z M 39.375 13.5 "/>
</g>
</svg>
