
<svg xmlns="http://www.w3.org/2000/svg" xmlns:xlink="http://www.w3.org/1999/xlink" width="22" height="22" viewBox="0 0 22 22" version="1.1">
<defs>
<linearGradient id="linear0" gradientUnits="userSpaceOnUse" x1="31.753056" y1="56.067898" x2="31.753056" y2="5.792224" gradientTransform="matrix(0.382458,0,0,0.382458,-1.144636,-0.814367)">
<stop offset="0" style="stop-color:rgb(87.843138%,87.843138%,87.843138%);stop-opacity:1;"/>
<stop offset="1" style="stop-color:rgb(93.333334%,93.333334%,93.333334%);stop-opacity:1;"/>
</linearGradient>
<linearGradient id="linear1" gradientUnits="userSpaceOnUse" x1="8.466666" y1="-199.125" x2="8.466666" y2="-213.941666" gradientTransform="matrix(1.299213,0,0,1.299213,0,279.330723)">
<stop offset="0" style="stop-color:rgb(0%,0%,0%);stop-opacity:0.2;"/>
<stop offset="1" style="stop-color:rgb(100%,100%,100%);stop-opacity:0;"/>
</linearGradient>
</defs>
<g id="surface1">
<path style=" stroke:none;fill-rule:nonzero;fill:url(#linear0);" d="M 2.90625 12.027344 L 2.90625 12.53125 C 2.90625 17.019531 6.515625 20.628906 11 20.628906 C 15.484375 20.628906 19.09375 17.019531 19.09375 12.53125 L 19.09375 12.027344 C 19.09375 6.714844 15.046875 1.375 11 1.375 C 6.953125 1.375 2.90625 6.714844 2.90625 12.027344 Z M 2.90625 12.027344 "/>
<path style=" stroke:none;fill-rule:nonzero;fill:rgb(98.039216%,98.039216%,98.039216%);fill-opacity:1;" d="M 7.765625 4.359375 L 7.84375 4.402344 C 8.136719 4.574219 8.082031 5.21875 7.71875 5.847656 C 7.355469 6.472656 6.824219 6.847656 6.53125 6.679688 L 6.453125 6.632812 C 6.164062 6.464844 6.21875 5.816406 6.582031 5.191406 C 6.945312 4.5625 7.476562 4.191406 7.765625 4.359375 Z M 7.765625 4.359375 "/>
<path style=" stroke:none;fill-rule:nonzero;fill:rgb(38.039216%,38.039216%,38.039216%);fill-opacity:1;" d="M 3.121094 10.472656 L 3.121094 12.367188 L 3.5625 12.367188 L 3.5625 10.609375 C 3.414062 10.566406 3.269531 10.519531 3.121094 10.472656 Z M 6.625 11.296875 L 6.625 13.242188 L 7.0625 13.242188 L 7.0625 11.359375 C 6.914062 11.339844 6.769531 11.316406 6.625 11.296875 Z M 10.78125 11.625 L 10.78125 13.460938 L 11.21875 13.460938 L 11.21875 11.625 C 11.074219 11.625 10.925781 11.625 10.78125 11.625 Z M 10.78125 11.625 "/>
<path style=" stroke:none;fill-rule:nonzero;fill:rgb(38.039216%,38.039216%,38.039216%);fill-opacity:1;" d="M 3.996094 11.613281 L 3.996094 12.585938 L 4.324219 12.585938 L 4.324219 11.699219 C 4.214844 11.671875 4.105469 11.640625 3.996094 11.613281 Z M 4.980469 11.859375 L 4.980469 12.914062 L 5.3125 12.914062 L 5.3125 11.929688 C 5.199219 11.90625 5.09375 11.882812 4.980469 11.859375 Z M 5.859375 12.039062 L 5.859375 13.242188 L 6.1875 13.242188 L 6.1875 12.097656 C 6.078125 12.082031 5.96875 12.0625 5.859375 12.039062 Z M 7.9375 12.339844 L 7.9375 13.351562 L 8.265625 13.351562 L 8.265625 12.375 C 8.15625 12.363281 8.046875 12.351562 7.9375 12.339844 Z M 9.03125 12.4375 L 9.03125 13.460938 L 9.359375 13.460938 L 9.359375 12.457031 C 9.25 12.449219 9.140625 12.441406 9.03125 12.4375 Z M 10.015625 12.484375 L 10.015625 13.570312 L 10.34375 13.570312 L 10.34375 12.492188 C 10.234375 12.492188 10.125 12.488281 10.015625 12.484375 Z M 10.015625 12.484375 "/>
<path style=" stroke:none;fill-rule:nonzero;fill:rgb(74.117649%,74.117649%,74.117649%);fill-opacity:1;" d="M 2.914062 12.152344 C 2.90625 12.296875 2.90625 12.441406 2.90625 12.585938 C 7.667969 14.222656 14.332031 14.222656 19.09375 12.585938 C 19.09375 12.441406 19.089844 12.296875 19.085938 12.152344 C 14.390625 13.804688 7.609375 13.804688 2.914062 12.152344 Z M 2.914062 12.152344 "/>
<path style=" stroke:none;fill-rule:nonzero;fill:rgb(38.039216%,38.039216%,38.039216%);fill-opacity:1;" d="M 11 14.117188 L 9.46875 15.648438 L 12.53125 15.648438 Z M 11 14.117188 "/>
<path style=" stroke:none;fill-rule:nonzero;fill:rgb(100%,100%,100%);fill-opacity:0.6;" d="M 11 1.375 C 6.953125 1.375 2.90625 6.714844 2.90625 12.027344 L 2.90625 12.371094 C 2.90625 7.058594 6.953125 1.71875 11 1.71875 C 15.046875 1.71875 19.09375 7.058594 19.09375 12.371094 L 19.09375 12.027344 C 19.09375 6.714844 15.046875 1.375 11 1.375 Z M 11 1.375 "/>
<path style=" stroke:none;fill-rule:nonzero;fill:rgb(0%,0%,0%);fill-opacity:0.4;" d="M 2.90625 12.1875 L 2.90625 12.53125 C 2.90625 17.019531 6.515625 20.628906 11 20.628906 C 15.484375 20.628906 19.09375 17.019531 19.09375 12.53125 L 19.09375 12.1875 C 19.09375 16.671875 15.484375 20.28125 11 20.28125 C 6.515625 20.28125 2.90625 16.671875 2.90625 12.1875 Z M 2.90625 12.1875 "/>
<path style=" stroke:none;fill-rule:nonzero;fill:rgb(0%,0%,0%);fill-opacity:0.2;" d="M 2.90625 12.535156 L 2.90625 13.042969 C 2.90625 17.527344 6.515625 21.136719 11 21.136719 C 15.484375 21.136719 19.09375 17.527344 19.09375 13.042969 L 19.09375 12.535156 C 19.09375 17.019531 15.484375 20.628906 11 20.628906 C 6.515625 20.628906 2.90625 17.019531 2.90625 12.535156 Z M 2.90625 12.535156 "/>
<path style=" stroke:none;fill-rule:nonzero;fill:rgb(0%,0%,0%);fill-opacity:0.4;" d="M 2.914062 12.152344 C 2.90625 12.296875 2.90625 12.441406 2.90625 12.585938 C 2.90625 12.515625 2.910156 12.445312 2.914062 12.375 C 7.609375 14.027344 14.390625 14.027344 19.085938 12.375 C 19.089844 12.445312 19.089844 12.515625 19.09375 12.585938 C 19.09375 12.441406 19.089844 12.296875 19.085938 12.152344 C 14.390625 13.804688 7.609375 13.804688 2.914062 12.152344 Z M 2.914062 12.152344 "/>
<path style=" stroke:none;fill-rule:nonzero;fill:rgb(99.607843%,99.607843%,99.607843%);fill-opacity:0.6;" d="M 2.914062 12.375 C 2.910156 12.445312 2.90625 12.515625 2.90625 12.585938 C 2.90625 12.585938 2.90625 12.589844 2.90625 12.585938 C 2.90625 12.632812 2.90625 12.675781 2.90625 12.71875 C 7.667969 14.355469 14.332031 14.355469 19.09375 12.71875 C 19.09375 12.675781 19.09375 12.632812 19.09375 12.585938 C 19.09375 12.589844 19.09375 12.585938 19.09375 12.585938 C 19.089844 12.515625 19.089844 12.445312 19.085938 12.375 C 14.390625 14.027344 7.609375 14.027344 2.914062 12.375 Z M 2.914062 12.375 "/>
<path style=" stroke:none;fill-rule:nonzero;fill:url(#linear1);" d="M 2.90625 12.027344 L 2.90625 12.53125 C 2.90625 17.019531 6.515625 20.628906 11 20.628906 C 15.484375 20.628906 19.09375 17.019531 19.09375 12.53125 L 19.09375 12.027344 C 19.09375 6.714844 15.046875 1.375 11 1.375 C 6.953125 1.375 2.90625 6.714844 2.90625 12.027344 Z M 2.90625 12.027344 "/>
</g>
</svg>
