
<svg xmlns="http://www.w3.org/2000/svg" xmlns:xlink="http://www.w3.org/1999/xlink" width="22" height="22" viewBox="0 0 22 22" version="1.1">
<defs>
<linearGradient id="linear0" gradientUnits="userSpaceOnUse" x1="8.466666" y1="-199.125" x2="8.466666" y2="-213.941666" gradientTransform="matrix(1.299213,0,0,1.299213,0,279.330723)">
<stop offset="0" style="stop-color:rgb(0%,0%,0%);stop-opacity:0.2;"/>
<stop offset="1" style="stop-color:rgb(100%,100%,100%);stop-opacity:0;"/>
</linearGradient>
</defs>
<g id="surface1">
<path style=" stroke:none;fill-rule:nonzero;fill:rgb(38.039216%,38.039216%,38.039216%);fill-opacity:1;" d="M 6.1875 1.375 L 6.1875 6.875 L 1.375 6.875 L 1.375 9.625 L 6.1875 9.625 L 6.1875 13.0625 L 1.375 13.0625 L 1.375 15.8125 L 6.1875 15.8125 L 6.1875 20.625 L 8.9375 20.625 L 8.9375 15.8125 L 13.0625 15.8125 L 13.0625 20.625 L 15.8125 20.625 L 15.8125 15.8125 L 20.625 15.8125 L 20.625 13.0625 L 15.8125 13.0625 L 15.8125 9.625 L 20.625 9.625 L 20.625 6.875 L 15.8125 6.875 L 15.8125 1.375 L 13.0625 1.375 L 13.0625 6.875 L 8.9375 6.875 L 8.9375 1.375 Z M 8.9375 9.625 L 13.0625 9.625 L 13.0625 13.0625 L 8.9375 13.0625 Z M 8.9375 9.625 "/>
<path style=" stroke:none;fill-rule:nonzero;fill:rgb(93.333334%,93.333334%,93.333334%);fill-opacity:1;" d="M 14.4375 14.4375 L 14.4375 20.625 L 19.25 20.625 C 20.011719 20.625 20.625 20.011719 20.625 19.25 L 20.625 14.4375 Z M 14.4375 14.4375 "/>
<path style=" stroke:none;fill-rule:nonzero;fill:rgb(93.333334%,93.333334%,93.333334%);fill-opacity:1;" d="M 7.90625 14.4375 L 7.90625 20.625 L 14.09375 20.625 L 14.09375 14.4375 Z M 7.90625 14.4375 "/>
<path style=" stroke:none;fill-rule:nonzero;fill:rgb(87.843138%,87.843138%,87.843138%);fill-opacity:1;" d="M 1.375 14.4375 L 1.375 19.25 C 1.375 20.011719 1.988281 20.625 2.75 20.625 L 7.5625 20.625 L 7.5625 14.4375 Z M 1.375 14.4375 "/>
<path style=" stroke:none;fill-rule:nonzero;fill:rgb(93.333334%,93.333334%,93.333334%);fill-opacity:1;" d="M 14.4375 7.90625 L 14.4375 14.09375 L 20.625 14.09375 L 20.625 7.90625 Z M 14.4375 7.90625 "/>
<path style=" stroke:none;fill-rule:nonzero;fill:rgb(93.333334%,93.333334%,93.333334%);fill-opacity:1;" d="M 7.90625 7.90625 L 7.90625 14.09375 L 14.09375 14.09375 L 14.09375 7.90625 Z M 7.90625 7.90625 "/>
<path style=" stroke:none;fill-rule:nonzero;fill:rgb(93.333334%,93.333334%,93.333334%);fill-opacity:1;" d="M 1.375 7.90625 L 1.375 14.09375 L 7.5625 14.09375 L 7.5625 7.90625 Z M 1.375 7.90625 "/>
<path style=" stroke:none;fill-rule:nonzero;fill:rgb(93.333334%,93.333334%,93.333334%);fill-opacity:1;" d="M 14.4375 1.375 L 14.4375 7.5625 L 20.625 7.5625 L 20.625 2.75 C 20.625 1.988281 20.011719 1.375 19.25 1.375 Z M 14.4375 1.375 "/>
<path style=" stroke:none;fill-rule:nonzero;fill:rgb(93.333334%,93.333334%,93.333334%);fill-opacity:1;" d="M 7.90625 1.375 L 7.90625 7.5625 L 14.09375 7.5625 L 14.09375 1.375 Z M 7.90625 1.375 "/>
<path style=" stroke:none;fill-rule:nonzero;fill:rgb(93.333334%,93.333334%,93.333334%);fill-opacity:1;" d="M 2.75 1.375 C 1.988281 1.375 1.375 1.988281 1.375 2.75 L 1.375 7.5625 L 7.5625 7.5625 L 7.5625 1.375 Z M 2.75 1.375 "/>
<path style=" stroke:none;fill-rule:nonzero;fill:rgb(100%,100%,100%);fill-opacity:0.6;" d="M 14.4375 14.4375 L 14.4375 14.78125 L 20.625 14.78125 L 20.625 14.4375 Z M 14.4375 14.4375 "/>
<path style=" stroke:none;fill-rule:nonzero;fill:rgb(100%,100%,100%);fill-opacity:0.6;" d="M 7.90625 14.4375 L 7.90625 14.78125 L 14.09375 14.78125 L 14.09375 14.4375 Z M 7.90625 14.4375 "/>
<path style=" stroke:none;fill-rule:nonzero;fill:rgb(100%,100%,100%);fill-opacity:0.6;" d="M 14.4375 7.90625 L 14.4375 8.25 L 20.625 8.25 L 20.625 7.90625 Z M 14.4375 7.90625 "/>
<path style=" stroke:none;fill-rule:nonzero;fill:rgb(100%,100%,100%);fill-opacity:0.6;" d="M 7.90625 7.90625 L 7.90625 8.25 L 14.09375 8.25 L 14.09375 7.90625 Z M 7.90625 7.90625 "/>
<path style=" stroke:none;fill-rule:nonzero;fill:rgb(100%,100%,100%);fill-opacity:0.6;" d="M 1.375 7.90625 L 1.375 8.25 L 7.5625 8.25 L 7.5625 7.90625 Z M 1.375 7.90625 "/>
<path style=" stroke:none;fill-rule:nonzero;fill:rgb(100%,100%,100%);fill-opacity:0.6;" d="M 14.4375 1.375 L 14.4375 1.71875 L 19.25 1.71875 C 20.011719 1.71875 20.625 2.332031 20.625 3.09375 L 20.625 2.75 C 20.625 1.988281 20.011719 1.375 19.25 1.375 Z M 14.4375 1.375 "/>
<path style=" stroke:none;fill-rule:nonzero;fill:rgb(100%,100%,100%);fill-opacity:0.6;" d="M 7.90625 1.375 L 7.90625 1.71875 L 14.09375 1.71875 L 14.09375 1.375 Z M 7.90625 1.375 "/>
<path style=" stroke:none;fill-rule:nonzero;fill:rgb(100%,100%,100%);fill-opacity:0.6;" d="M 2.75 1.375 C 1.988281 1.375 1.375 1.988281 1.375 2.75 L 1.375 3.09375 C 1.375 2.332031 1.988281 1.71875 2.75 1.71875 L 7.5625 1.71875 L 7.5625 1.375 Z M 2.75 1.375 "/>
<path style=" stroke:none;fill-rule:nonzero;fill:rgb(0%,0%,0%);fill-opacity:0.4;" d="M 1.375 7.21875 L 1.375 7.5625 L 7.5625 7.5625 L 7.5625 7.21875 Z M 7.90625 7.21875 L 7.90625 7.5625 L 14.09375 7.5625 L 14.09375 7.21875 Z M 14.4375 7.21875 L 14.4375 7.5625 L 20.625 7.5625 L 20.625 7.21875 Z M 1.375 13.75 L 1.375 14.09375 L 7.5625 14.09375 L 7.5625 13.75 Z M 7.90625 13.75 L 7.90625 14.09375 L 14.09375 14.09375 L 14.09375 13.75 Z M 14.4375 13.75 L 14.4375 14.09375 L 20.625 14.09375 L 20.625 13.75 Z M 1.375 18.90625 L 1.375 19.25 C 1.375 20.011719 1.988281 20.625 2.75 20.625 L 7.5625 20.625 L 7.5625 20.28125 L 2.75 20.28125 C 1.988281 20.28125 1.375 19.667969 1.375 18.90625 Z M 20.625 18.90625 C 20.625 19.667969 20.011719 20.28125 19.25 20.28125 L 14.4375 20.28125 L 14.4375 20.625 L 19.25 20.625 C 20.011719 20.625 20.625 20.011719 20.625 19.25 Z M 7.90625 20.28125 L 7.90625 20.625 L 14.09375 20.625 L 14.09375 20.28125 Z M 7.90625 20.28125 "/>
<path style=" stroke:none;fill-rule:nonzero;fill:rgb(0%,0%,0%);fill-opacity:0.2;" d="M 1.375 19.246094 L 1.375 19.765625 C 1.375 20.527344 1.988281 21.140625 2.75 21.140625 L 19.25 21.140625 C 20.011719 21.140625 20.625 20.527344 20.625 19.765625 L 20.625 19.246094 C 20.625 20.007812 20.011719 20.621094 19.25 20.621094 L 2.75 20.621094 C 1.988281 20.621094 1.375 20.007812 1.375 19.246094 Z M 1.375 19.246094 "/>
<path style=" stroke:none;fill-rule:nonzero;fill:rgb(99.607843%,99.607843%,99.607843%);fill-opacity:0.6;" d="M 7.90625 1.375 L 7.90625 7.21875 L 8.25 7.21875 L 8.25 1.71875 Z M 7.90625 8.25 L 7.90625 13.75 L 8.25 13.75 L 8.25 8.25 Z M 7.90625 14.78125 L 7.90625 20.28125 L 8.25 20.28125 L 8.25 14.78125 Z M 7.90625 14.78125 "/>
<path style=" stroke:none;fill-rule:nonzero;fill:rgb(99.607843%,99.607843%,99.607843%);fill-opacity:0.6;" d="M 14.4375 1.375 L 14.4375 7.21875 L 14.78125 7.21875 L 14.78125 1.71875 Z M 14.4375 8.25 L 14.4375 13.75 L 14.78125 13.75 L 14.78125 8.25 Z M 14.4375 14.78125 L 14.4375 20.28125 L 14.78125 20.28125 L 14.78125 14.78125 Z M 14.4375 14.78125 "/>
<path style=" stroke:none;fill-rule:nonzero;fill:rgb(0%,0%,0%);fill-opacity:0.4;" d="M 13.75 1.71875 L 13.75 7.21875 L 14.09375 7.21875 L 14.09375 1.375 Z M 13.75 8.25 L 13.75 13.75 L 14.09375 13.75 L 14.09375 7.90625 Z M 13.75 14.78125 L 13.75 20.28125 L 14.09375 20.28125 L 14.09375 14.4375 Z M 13.75 14.78125 "/>
<path style=" stroke:none;fill-rule:nonzero;fill:rgb(0%,0%,0%);fill-opacity:0.4;" d="M 7.21875 8.25 L 7.21875 13.75 L 7.5625 13.75 L 7.5625 7.90625 Z M 7.21875 8.25 "/>
<path style=" stroke:none;fill-rule:nonzero;fill:rgb(0%,0%,0%);fill-opacity:0.4;" d="M 7.21875 1.71875 L 7.21875 7.21875 L 7.5625 7.21875 L 7.5625 1.375 Z M 7.21875 1.71875 "/>
<path style=" stroke:none;fill-rule:nonzero;fill:rgb(49.411765%,34.117648%,76.078433%);fill-opacity:1;" d="M 19.078125 14.953125 C 19.171875 14.953125 19.25 15.03125 19.25 15.125 L 19.25 17.53125 C 19.25 17.625 19.179688 17.699219 19.085938 17.703125 C 19.082031 17.703125 19.082031 17.703125 19.078125 17.703125 L 16.5 17.703125 L 16.5 19.078125 L 19.078125 19.078125 C 19.171875 19.078125 19.25 19.15625 19.25 19.25 L 19.25 19.59375 C 19.25 19.6875 19.171875 19.765625 19.078125 19.765625 L 15.984375 19.765625 C 15.890625 19.765625 15.8125 19.6875 15.8125 19.59375 L 15.8125 17.1875 C 15.8125 17.09375 15.890625 17.015625 15.984375 17.015625 L 18.5625 17.015625 L 18.5625 15.640625 L 15.984375 15.640625 C 15.890625 15.640625 15.8125 15.5625 15.8125 15.46875 L 15.8125 15.125 C 15.8125 15.03125 15.890625 14.953125 15.984375 14.953125 Z M 19.078125 14.953125 "/>
<path style=" stroke:none;fill-rule:nonzero;fill:rgb(100%,100%,100%);fill-opacity:0.4;" d="M 19.078125 14.953125 C 19.171875 14.953125 19.25 15.03125 19.25 15.125 L 19.25 15.300781 C 19.25 15.203125 19.171875 15.128906 19.078125 15.128906 L 15.984375 15.128906 C 15.890625 15.128906 15.8125 15.203125 15.8125 15.300781 L 15.8125 15.125 C 15.8125 15.03125 15.890625 14.953125 15.984375 14.953125 Z M 18.5625 17.015625 L 18.5625 17.191406 L 15.984375 17.191406 C 15.890625 17.191406 15.8125 17.265625 15.8125 17.363281 L 15.8125 17.1875 C 15.8125 17.09375 15.890625 17.015625 15.984375 17.015625 Z M 19.078125 19.078125 C 19.171875 19.078125 19.25 19.15625 19.25 19.25 L 19.25 19.425781 C 19.25 19.328125 19.171875 19.253906 19.078125 19.253906 L 16.5 19.253906 L 16.5 19.078125 Z M 19.078125 19.078125 "/>
<path style=" stroke:none;fill-rule:nonzero;fill:rgb(0.784314%,0.784314%,0.784314%);fill-opacity:0.4;" d="M 15.984375 19.9375 C 15.890625 19.9375 15.8125 19.859375 15.8125 19.765625 L 15.8125 19.589844 C 15.8125 19.6875 15.890625 19.761719 15.984375 19.761719 L 19.078125 19.761719 C 19.171875 19.761719 19.25 19.6875 19.25 19.589844 L 19.25 19.765625 C 19.25 19.859375 19.171875 19.9375 19.078125 19.9375 Z M 16.5 17.875 L 16.5 17.699219 L 19.078125 17.699219 C 19.171875 17.699219 19.25 17.625 19.25 17.527344 L 19.25 17.703125 C 19.25 17.796875 19.171875 17.875 19.078125 17.875 Z M 15.984375 15.8125 C 15.890625 15.8125 15.8125 15.734375 15.8125 15.640625 L 15.8125 15.464844 C 15.8125 15.5625 15.890625 15.636719 15.984375 15.636719 L 18.5625 15.636719 L 18.5625 15.8125 Z M 15.984375 15.8125 "/>
<path style=" stroke:none;fill-rule:nonzero;fill:rgb(49.411765%,34.117648%,76.078433%);fill-opacity:1;" d="M 12.546875 14.953125 C 12.640625 14.953125 12.71875 15.03125 12.71875 15.125 L 12.71875 17.53125 C 12.71875 17.625 12.648438 17.699219 12.554688 17.703125 C 12.550781 17.703125 12.550781 17.703125 12.546875 17.703125 L 9.96875 17.703125 L 9.96875 19.078125 L 12.546875 19.078125 C 12.640625 19.078125 12.71875 19.15625 12.71875 19.25 L 12.71875 19.59375 C 12.71875 19.6875 12.640625 19.765625 12.546875 19.765625 L 9.453125 19.765625 C 9.359375 19.765625 9.28125 19.6875 9.28125 19.59375 L 9.28125 17.1875 C 9.28125 17.09375 9.359375 17.015625 9.453125 17.015625 L 12.03125 17.015625 L 12.03125 15.640625 L 9.453125 15.640625 C 9.359375 15.640625 9.28125 15.5625 9.28125 15.46875 L 9.28125 15.125 C 9.28125 15.03125 9.359375 14.953125 9.453125 14.953125 Z M 12.546875 14.953125 "/>
<path style=" stroke:none;fill-rule:nonzero;fill:rgb(100%,100%,100%);fill-opacity:0.4;" d="M 12.546875 14.953125 C 12.640625 14.953125 12.71875 15.03125 12.71875 15.125 L 12.71875 15.300781 C 12.71875 15.203125 12.640625 15.128906 12.546875 15.128906 L 9.453125 15.128906 C 9.359375 15.128906 9.28125 15.203125 9.28125 15.300781 L 9.28125 15.125 C 9.28125 15.03125 9.359375 14.953125 9.453125 14.953125 Z M 12.03125 17.015625 L 12.03125 17.191406 L 9.453125 17.191406 C 9.359375 17.191406 9.28125 17.265625 9.28125 17.363281 L 9.28125 17.1875 C 9.28125 17.09375 9.359375 17.015625 9.453125 17.015625 Z M 12.546875 19.078125 C 12.640625 19.078125 12.71875 19.15625 12.71875 19.25 L 12.71875 19.425781 C 12.71875 19.328125 12.640625 19.253906 12.546875 19.253906 L 9.96875 19.253906 L 9.96875 19.078125 Z M 12.546875 19.078125 "/>
<path style=" stroke:none;fill-rule:nonzero;fill:rgb(0.784314%,0.784314%,0.784314%);fill-opacity:0.4;" d="M 9.453125 19.9375 C 9.359375 19.9375 9.28125 19.859375 9.28125 19.765625 L 9.28125 19.589844 C 9.28125 19.6875 9.359375 19.761719 9.453125 19.761719 L 12.546875 19.761719 C 12.640625 19.761719 12.71875 19.6875 12.71875 19.589844 L 12.71875 19.765625 C 12.71875 19.859375 12.640625 19.9375 12.546875 19.9375 Z M 9.96875 17.875 L 9.96875 17.699219 L 12.546875 17.699219 C 12.640625 17.699219 12.71875 17.625 12.71875 17.527344 L 12.71875 17.703125 C 12.71875 17.796875 12.640625 17.875 12.546875 17.875 Z M 9.453125 15.8125 C 9.359375 15.8125 9.28125 15.734375 9.28125 15.640625 L 9.28125 15.464844 C 9.28125 15.5625 9.359375 15.636719 9.453125 15.636719 L 12.03125 15.636719 L 12.03125 15.8125 Z M 9.453125 15.8125 "/>
<path style=" stroke:none;fill-rule:nonzero;fill:rgb(36.078432%,41.960785%,75.294119%);fill-opacity:1;" d="M 2.921875 14.953125 C 2.828125 14.953125 2.75 15.03125 2.75 15.125 L 2.75 15.46875 C 2.75 15.5625 2.828125 15.640625 2.921875 15.640625 L 5.5 15.640625 L 5.5 17.015625 L 2.921875 17.015625 C 2.828125 17.015625 2.75 17.09375 2.75 17.1875 L 2.75 17.53125 C 2.75 17.625 2.828125 17.703125 2.921875 17.703125 L 5.5 17.703125 L 5.5 19.078125 L 2.921875 19.078125 C 2.828125 19.078125 2.75 19.15625 2.75 19.25 L 2.75 19.59375 C 2.75 19.6875 2.828125 19.765625 2.921875 19.765625 L 6.015625 19.765625 C 6.109375 19.765625 6.1875 19.6875 6.1875 19.59375 L 6.1875 15.125 C 6.1875 15.03125 6.109375 14.953125 6.015625 14.953125 Z M 2.921875 14.953125 "/>
<path style=" stroke:none;fill-rule:nonzero;fill:rgb(0%,0%,0%);fill-opacity:0.4;" d="M 2.75 15.46875 L 2.75 15.640625 C 2.75 15.734375 2.828125 15.8125 2.921875 15.8125 L 5.5 15.8125 L 5.5 15.640625 L 2.921875 15.640625 C 2.828125 15.640625 2.75 15.5625 2.75 15.46875 Z M 2.75 17.53125 L 2.75 17.703125 C 2.75 17.796875 2.828125 17.875 2.921875 17.875 L 5.5 17.875 L 5.5 17.703125 L 2.921875 17.703125 C 2.828125 17.703125 2.75 17.625 2.75 17.53125 Z M 2.75 19.59375 L 2.75 19.765625 C 2.75 19.859375 2.828125 19.9375 2.921875 19.9375 L 6.015625 19.9375 C 6.109375 19.9375 6.1875 19.859375 6.1875 19.765625 L 6.1875 19.59375 C 6.1875 19.6875 6.109375 19.765625 6.015625 19.765625 L 2.921875 19.765625 C 2.828125 19.765625 2.75 19.6875 2.75 19.59375 Z M 2.75 19.59375 "/>
<path style=" stroke:none;fill-rule:nonzero;fill:rgb(100%,100%,100%);fill-opacity:0.4;" d="M 2.921875 14.953125 C 2.828125 14.953125 2.75 15.03125 2.75 15.125 L 2.75 15.296875 C 2.75 15.203125 2.828125 15.125 2.921875 15.125 L 6.015625 15.125 C 6.109375 15.125 6.1875 15.203125 6.1875 15.296875 L 6.1875 15.125 C 6.1875 15.03125 6.109375 14.953125 6.015625 14.953125 Z M 2.921875 17.015625 C 2.828125 17.015625 2.75 17.09375 2.75 17.1875 L 2.75 17.359375 C 2.75 17.265625 2.828125 17.1875 2.921875 17.1875 L 5.5 17.1875 L 5.5 17.015625 Z M 2.921875 19.078125 C 2.828125 19.078125 2.75 19.15625 2.75 19.25 L 2.75 19.421875 C 2.75 19.328125 2.828125 19.25 2.921875 19.25 L 5.5 19.25 L 5.5 19.078125 Z M 2.921875 19.078125 "/>
<path style=" stroke:none;fill-rule:nonzero;fill:rgb(49.411765%,34.117648%,76.078433%);fill-opacity:1;" d="M 15.984375 8.421875 C 15.890625 8.421875 15.8125 8.5 15.8125 8.59375 L 15.8125 8.9375 C 15.8125 9.03125 15.890625 9.109375 15.984375 9.109375 L 18.5625 9.109375 L 18.5625 10.484375 L 15.984375 10.484375 C 15.890625 10.484375 15.8125 10.5625 15.8125 10.65625 L 15.8125 11 C 15.8125 11.09375 15.890625 11.171875 15.984375 11.171875 L 18.5625 11.171875 L 18.5625 12.546875 L 15.984375 12.546875 C 15.890625 12.546875 15.8125 12.625 15.8125 12.71875 L 15.8125 13.0625 C 15.8125 13.15625 15.890625 13.234375 15.984375 13.234375 L 19.078125 13.234375 C 19.171875 13.234375 19.25 13.15625 19.25 13.0625 L 19.25 8.59375 C 19.25 8.5 19.171875 8.421875 19.078125 8.421875 Z M 15.984375 8.421875 "/>
<path style=" stroke:none;fill-rule:nonzero;fill:rgb(0%,0%,0%);fill-opacity:0.4;" d="M 15.8125 8.9375 L 15.8125 9.109375 C 15.8125 9.203125 15.890625 9.28125 15.984375 9.28125 L 18.5625 9.28125 L 18.5625 9.109375 L 15.984375 9.109375 C 15.890625 9.109375 15.8125 9.03125 15.8125 8.9375 Z M 15.8125 11 L 15.8125 11.171875 C 15.8125 11.265625 15.890625 11.34375 15.984375 11.34375 L 18.5625 11.34375 L 18.5625 11.171875 L 15.984375 11.171875 C 15.890625 11.171875 15.8125 11.09375 15.8125 11 Z M 15.8125 13.0625 L 15.8125 13.234375 C 15.8125 13.328125 15.890625 13.40625 15.984375 13.40625 L 19.078125 13.40625 C 19.171875 13.40625 19.25 13.328125 19.25 13.234375 L 19.25 13.0625 C 19.25 13.15625 19.171875 13.234375 19.078125 13.234375 L 15.984375 13.234375 C 15.890625 13.234375 15.8125 13.15625 15.8125 13.0625 Z M 15.8125 13.0625 "/>
<path style=" stroke:none;fill-rule:nonzero;fill:rgb(100%,100%,100%);fill-opacity:0.4;" d="M 15.984375 8.421875 C 15.890625 8.421875 15.8125 8.5 15.8125 8.59375 L 15.8125 8.765625 C 15.8125 8.671875 15.890625 8.59375 15.984375 8.59375 L 19.078125 8.59375 C 19.171875 8.59375 19.25 8.671875 19.25 8.765625 L 19.25 8.59375 C 19.25 8.5 19.171875 8.421875 19.078125 8.421875 Z M 15.984375 10.484375 C 15.890625 10.484375 15.8125 10.5625 15.8125 10.65625 L 15.8125 10.828125 C 15.8125 10.734375 15.890625 10.65625 15.984375 10.65625 L 18.5625 10.65625 L 18.5625 10.484375 Z M 15.984375 12.546875 C 15.890625 12.546875 15.8125 12.625 15.8125 12.71875 L 15.8125 12.890625 C 15.8125 12.796875 15.890625 12.71875 15.984375 12.71875 L 18.5625 12.71875 L 18.5625 12.546875 Z M 15.984375 12.546875 "/>
<path style=" stroke:none;fill-rule:nonzero;fill:rgb(49.411765%,34.117648%,76.078433%);fill-opacity:1;" d="M 6.015625 8.417969 C 6.109375 8.417969 6.1875 8.496094 6.1875 8.589844 L 6.1875 10.996094 C 6.1875 11.089844 6.117188 11.164062 6.023438 11.167969 C 6.019531 11.167969 6.019531 11.167969 6.015625 11.167969 L 3.4375 11.167969 L 3.4375 12.542969 L 6.015625 12.542969 C 6.109375 12.542969 6.1875 12.621094 6.1875 12.714844 L 6.1875 13.058594 C 6.1875 13.15625 6.109375 13.230469 6.015625 13.230469 L 2.921875 13.230469 C 2.828125 13.230469 2.75 13.15625 2.75 13.058594 L 2.75 10.652344 C 2.75 10.558594 2.828125 10.480469 2.921875 10.480469 L 5.5 10.480469 L 5.5 9.105469 L 2.921875 9.105469 C 2.828125 9.105469 2.75 9.03125 2.75 8.933594 L 2.75 8.589844 C 2.75 8.496094 2.828125 8.417969 2.921875 8.417969 Z M 6.015625 8.417969 "/>
<path style=" stroke:none;fill-rule:nonzero;fill:rgb(100%,100%,100%);fill-opacity:0.4;" d="M 6.015625 8.417969 C 6.109375 8.417969 6.1875 8.496094 6.1875 8.589844 L 6.1875 8.765625 C 6.1875 8.671875 6.109375 8.59375 6.015625 8.59375 L 2.921875 8.59375 C 2.828125 8.59375 2.75 8.671875 2.75 8.765625 L 2.75 8.589844 C 2.75 8.496094 2.828125 8.417969 2.921875 8.417969 Z M 5.5 10.480469 L 5.5 10.65625 L 2.921875 10.65625 C 2.828125 10.65625 2.75 10.734375 2.75 10.828125 L 2.75 10.652344 C 2.75 10.558594 2.828125 10.480469 2.921875 10.480469 Z M 6.015625 12.542969 C 6.109375 12.542969 6.1875 12.621094 6.1875 12.714844 L 6.1875 12.890625 C 6.1875 12.796875 6.109375 12.71875 6.015625 12.71875 L 3.4375 12.71875 L 3.4375 12.542969 Z M 6.015625 12.542969 "/>
<path style=" stroke:none;fill-rule:nonzero;fill:rgb(0.784314%,0.784314%,0.784314%);fill-opacity:0.4;" d="M 2.921875 13.402344 C 2.828125 13.402344 2.75 13.328125 2.75 13.230469 L 2.75 13.058594 C 2.75 13.152344 2.828125 13.230469 2.921875 13.230469 L 6.015625 13.230469 C 6.109375 13.230469 6.1875 13.152344 6.1875 13.058594 L 6.1875 13.230469 C 6.1875 13.328125 6.109375 13.402344 6.015625 13.402344 Z M 3.4375 11.339844 L 3.4375 11.167969 L 6.015625 11.167969 C 6.109375 11.167969 6.1875 11.089844 6.1875 10.996094 L 6.1875 11.167969 C 6.1875 11.265625 6.109375 11.339844 6.015625 11.339844 Z M 2.921875 9.277344 C 2.828125 9.277344 2.75 9.203125 2.75 9.105469 L 2.75 8.933594 C 2.75 9.027344 2.828125 9.105469 2.921875 9.105469 L 5.5 9.105469 L 5.5 9.277344 Z M 2.921875 9.277344 "/>
<path style=" stroke:none;fill-rule:nonzero;fill:rgb(49.411765%,34.117648%,76.078433%);fill-opacity:1;" d="M 9.453125 8.421875 C 9.359375 8.421875 9.28125 8.5 9.28125 8.59375 L 9.28125 8.9375 C 9.28125 9.03125 9.359375 9.109375 9.453125 9.109375 L 12.03125 9.109375 L 12.03125 10.484375 L 9.453125 10.484375 C 9.359375 10.484375 9.28125 10.5625 9.28125 10.65625 L 9.28125 11 C 9.28125 11.09375 9.359375 11.171875 9.453125 11.171875 L 12.03125 11.171875 L 12.03125 12.546875 L 9.453125 12.546875 C 9.359375 12.546875 9.28125 12.625 9.28125 12.71875 L 9.28125 13.0625 C 9.28125 13.15625 9.359375 13.234375 9.453125 13.234375 L 12.546875 13.234375 C 12.640625 13.234375 12.71875 13.15625 12.71875 13.0625 L 12.71875 8.59375 C 12.71875 8.5 12.640625 8.421875 12.546875 8.421875 Z M 9.453125 8.421875 "/>
<path style=" stroke:none;fill-rule:nonzero;fill:rgb(0%,0%,0%);fill-opacity:0.4;" d="M 9.28125 8.9375 L 9.28125 9.109375 C 9.28125 9.203125 9.359375 9.28125 9.453125 9.28125 L 12.03125 9.28125 L 12.03125 9.109375 L 9.453125 9.109375 C 9.359375 9.109375 9.28125 9.03125 9.28125 8.9375 Z M 9.28125 11 L 9.28125 11.171875 C 9.28125 11.265625 9.359375 11.34375 9.453125 11.34375 L 12.03125 11.34375 L 12.03125 11.171875 L 9.453125 11.171875 C 9.359375 11.171875 9.28125 11.09375 9.28125 11 Z M 9.28125 13.0625 L 9.28125 13.234375 C 9.28125 13.328125 9.359375 13.40625 9.453125 13.40625 L 12.546875 13.40625 C 12.640625 13.40625 12.71875 13.328125 12.71875 13.234375 L 12.71875 13.0625 C 12.71875 13.15625 12.640625 13.234375 12.546875 13.234375 L 9.453125 13.234375 C 9.359375 13.234375 9.28125 13.15625 9.28125 13.0625 Z M 9.28125 13.0625 "/>
<path style=" stroke:none;fill-rule:nonzero;fill:rgb(100%,100%,100%);fill-opacity:0.4;" d="M 9.453125 8.421875 C 9.359375 8.421875 9.28125 8.5 9.28125 8.59375 L 9.28125 8.765625 C 9.28125 8.671875 9.359375 8.59375 9.453125 8.59375 L 12.546875 8.59375 C 12.640625 8.59375 12.71875 8.671875 12.71875 8.765625 L 12.71875 8.59375 C 12.71875 8.5 12.640625 8.421875 12.546875 8.421875 Z M 9.453125 10.484375 C 9.359375 10.484375 9.28125 10.5625 9.28125 10.65625 L 9.28125 10.828125 C 9.28125 10.734375 9.359375 10.65625 9.453125 10.65625 L 12.03125 10.65625 L 12.03125 10.484375 Z M 9.453125 12.546875 C 9.359375 12.546875 9.28125 12.625 9.28125 12.71875 L 9.28125 12.890625 C 9.28125 12.796875 9.359375 12.71875 9.453125 12.71875 L 12.03125 12.71875 L 12.03125 12.546875 Z M 9.453125 12.546875 "/>
<path style=" stroke:none;fill-rule:nonzero;fill:rgb(49.411765%,34.117648%,76.078433%);fill-opacity:1;" d="M 2.921875 2.0625 C 2.828125 2.0625 2.75 2.140625 2.75 2.234375 L 2.75 2.578125 C 2.75 2.671875 2.828125 2.75 2.921875 2.75 L 5.5 2.75 L 5.5 4.125 L 2.921875 4.125 C 2.828125 4.125 2.75 4.203125 2.75 4.296875 L 2.75 4.640625 C 2.75 4.734375 2.828125 4.8125 2.921875 4.8125 L 5.5 4.8125 L 5.5 6.1875 L 2.921875 6.1875 C 2.828125 6.1875 2.75 6.265625 2.75 6.359375 L 2.75 6.703125 C 2.75 6.796875 2.828125 6.875 2.921875 6.875 L 6.015625 6.875 C 6.109375 6.875 6.1875 6.796875 6.1875 6.703125 L 6.1875 2.234375 C 6.1875 2.140625 6.109375 2.0625 6.015625 2.0625 Z M 2.921875 2.0625 "/>
<path style=" stroke:none;fill-rule:nonzero;fill:rgb(0%,0%,0%);fill-opacity:0.4;" d="M 2.75 2.578125 L 2.75 2.75 C 2.75 2.84375 2.828125 2.921875 2.921875 2.921875 L 5.5 2.921875 L 5.5 2.75 L 2.921875 2.75 C 2.828125 2.75 2.75 2.671875 2.75 2.578125 Z M 2.75 4.640625 L 2.75 4.8125 C 2.75 4.90625 2.828125 4.984375 2.921875 4.984375 L 5.5 4.984375 L 5.5 4.8125 L 2.921875 4.8125 C 2.828125 4.8125 2.75 4.734375 2.75 4.640625 Z M 2.75 6.703125 L 2.75 6.875 C 2.75 6.96875 2.828125 7.046875 2.921875 7.046875 L 6.015625 7.046875 C 6.109375 7.046875 6.1875 6.96875 6.1875 6.875 L 6.1875 6.703125 C 6.1875 6.796875 6.109375 6.875 6.015625 6.875 L 2.921875 6.875 C 2.828125 6.875 2.75 6.796875 2.75 6.703125 Z M 2.75 6.703125 "/>
<path style=" stroke:none;fill-rule:nonzero;fill:rgb(100%,100%,100%);fill-opacity:0.4;" d="M 2.921875 2.0625 C 2.828125 2.0625 2.75 2.140625 2.75 2.234375 L 2.75 2.40625 C 2.75 2.3125 2.828125 2.234375 2.921875 2.234375 L 6.015625 2.234375 C 6.109375 2.234375 6.1875 2.3125 6.1875 2.40625 L 6.1875 2.234375 C 6.1875 2.140625 6.109375 2.0625 6.015625 2.0625 Z M 2.921875 4.125 C 2.828125 4.125 2.75 4.203125 2.75 4.296875 L 2.75 4.46875 C 2.75 4.375 2.828125 4.296875 2.921875 4.296875 L 5.5 4.296875 L 5.5 4.125 Z M 2.921875 6.1875 C 2.828125 6.1875 2.75 6.265625 2.75 6.359375 L 2.75 6.53125 C 2.75 6.4375 2.828125 6.359375 2.921875 6.359375 L 5.5 6.359375 L 5.5 6.1875 Z M 2.921875 6.1875 "/>
<path style=" stroke:none;fill-rule:nonzero;fill:rgb(49.411765%,34.117648%,76.078433%);fill-opacity:1;" d="M 15.976562 2.0625 C 15.882812 2.066406 15.8125 2.140625 15.8125 2.234375 L 15.8125 2.578125 C 15.8125 2.671875 15.890625 2.75 15.984375 2.75 L 17.1875 2.75 L 17.1875 6.1875 L 15.984375 6.1875 C 15.890625 6.1875 15.8125 6.265625 15.8125 6.359375 L 15.8125 6.703125 C 15.8125 6.796875 15.890625 6.875 15.984375 6.875 L 19.078125 6.875 C 19.171875 6.875 19.25 6.796875 19.25 6.703125 L 19.25 6.359375 C 19.25 6.265625 19.171875 6.1875 19.078125 6.1875 L 17.875 6.1875 L 17.875 2.585938 C 17.875 2.585938 17.875 2.582031 17.875 2.578125 L 17.875 2.234375 C 17.875 2.230469 17.875 2.230469 17.875 2.226562 C 17.875 2.222656 17.875 2.21875 17.875 2.214844 C 17.875 2.214844 17.875 2.210938 17.871094 2.207031 C 17.871094 2.203125 17.871094 2.199219 17.871094 2.199219 C 17.871094 2.195312 17.871094 2.191406 17.871094 2.191406 C 17.867188 2.1875 17.867188 2.183594 17.867188 2.183594 C 17.867188 2.179688 17.867188 2.175781 17.863281 2.175781 C 17.863281 2.171875 17.863281 2.167969 17.863281 2.167969 C 17.859375 2.164062 17.859375 2.160156 17.859375 2.160156 C 17.855469 2.15625 17.855469 2.152344 17.855469 2.152344 C 17.851562 2.148438 17.851562 2.144531 17.851562 2.144531 C 17.847656 2.140625 17.847656 2.140625 17.84375 2.136719 C 17.84375 2.132812 17.84375 2.132812 17.839844 2.128906 C 17.839844 2.128906 17.839844 2.125 17.835938 2.125 C 17.835938 2.121094 17.832031 2.121094 17.832031 2.117188 C 17.828125 2.113281 17.828125 2.113281 17.824219 2.109375 C 17.824219 2.109375 17.820312 2.105469 17.820312 2.105469 C 17.816406 2.101562 17.816406 2.101562 17.8125 2.097656 C 17.8125 2.097656 17.808594 2.097656 17.804688 2.09375 C 17.804688 2.09375 17.800781 2.089844 17.800781 2.089844 C 17.796875 2.085938 17.796875 2.085938 17.792969 2.082031 C 17.789062 2.082031 17.789062 2.082031 17.785156 2.078125 C 17.78125 2.078125 17.78125 2.078125 17.777344 2.074219 C 17.773438 2.074219 17.773438 2.074219 17.769531 2.070312 C 17.769531 2.070312 17.765625 2.070312 17.761719 2.066406 C 17.757812 2.066406 17.757812 2.066406 17.753906 2.066406 C 17.75 2.0625 17.75 2.0625 17.746094 2.0625 C 17.742188 2.0625 17.742188 2.0625 17.738281 2.058594 C 17.734375 2.058594 17.730469 2.058594 17.730469 2.058594 C 17.726562 2.058594 17.722656 2.058594 17.722656 2.058594 C 17.71875 2.058594 17.714844 2.058594 17.710938 2.058594 C 17.710938 2.054688 17.707031 2.058594 17.703125 2.058594 L 15.984375 2.058594 C 15.980469 2.058594 15.980469 2.054688 15.976562 2.058594 Z M 15.976562 2.0625 "/>
<path style=" stroke:none;fill-rule:nonzero;fill:rgb(100%,100%,100%);fill-opacity:0.4;" d="M 15.976562 2.054688 L 15.976562 2.0625 C 15.882812 2.066406 15.8125 2.140625 15.8125 2.234375 L 15.8125 2.410156 C 15.8125 2.316406 15.882812 2.242188 15.976562 2.238281 L 15.976562 2.230469 C 15.976562 2.230469 15.980469 2.230469 15.984375 2.230469 L 17.703125 2.230469 C 17.707031 2.230469 17.707031 2.230469 17.710938 2.230469 C 17.714844 2.230469 17.71875 2.230469 17.71875 2.230469 C 17.722656 2.230469 17.726562 2.234375 17.730469 2.234375 C 17.730469 2.234375 17.734375 2.234375 17.738281 2.234375 C 17.742188 2.234375 17.742188 2.238281 17.746094 2.238281 C 17.75 2.238281 17.75 2.238281 17.753906 2.238281 C 17.757812 2.242188 17.757812 2.242188 17.761719 2.242188 C 17.765625 2.242188 17.769531 2.246094 17.769531 2.246094 C 17.773438 2.246094 17.773438 2.25 17.777344 2.25 C 17.78125 2.25 17.78125 2.253906 17.785156 2.253906 C 17.789062 2.253906 17.789062 2.257812 17.792969 2.257812 C 17.792969 2.257812 17.796875 2.261719 17.800781 2.261719 C 17.800781 2.265625 17.804688 2.265625 17.804688 2.269531 C 17.808594 2.269531 17.808594 2.273438 17.8125 2.273438 C 17.816406 2.273438 17.816406 2.277344 17.820312 2.277344 C 17.820312 2.28125 17.824219 2.28125 17.824219 2.285156 C 17.828125 2.289062 17.828125 2.289062 17.832031 2.292969 C 17.832031 2.292969 17.835938 2.296875 17.835938 2.296875 C 17.835938 2.300781 17.839844 2.300781 17.839844 2.304688 C 17.84375 2.308594 17.84375 2.308594 17.84375 2.3125 C 17.847656 2.3125 17.847656 2.316406 17.851562 2.316406 C 17.851562 2.320312 17.851562 2.324219 17.855469 2.324219 C 17.855469 2.328125 17.855469 2.332031 17.859375 2.332031 C 17.859375 2.335938 17.859375 2.339844 17.863281 2.339844 C 17.863281 2.34375 17.863281 2.347656 17.863281 2.347656 C 17.867188 2.351562 17.867188 2.355469 17.867188 2.355469 C 17.867188 2.359375 17.867188 2.363281 17.871094 2.363281 C 17.871094 2.367188 17.871094 2.371094 17.871094 2.371094 C 17.871094 2.375 17.871094 2.378906 17.871094 2.382812 C 17.875 2.382812 17.875 2.386719 17.875 2.390625 C 17.875 2.394531 17.875 2.398438 17.875 2.398438 L 17.875 2.234375 C 17.875 2.230469 17.875 2.230469 17.875 2.226562 C 17.875 2.222656 17.875 2.21875 17.875 2.214844 C 17.875 2.214844 17.875 2.210938 17.871094 2.207031 C 17.871094 2.203125 17.871094 2.199219 17.871094 2.199219 C 17.871094 2.195312 17.871094 2.191406 17.871094 2.191406 C 17.867188 2.1875 17.867188 2.183594 17.867188 2.183594 C 17.867188 2.179688 17.867188 2.175781 17.863281 2.175781 C 17.863281 2.171875 17.863281 2.167969 17.863281 2.167969 C 17.859375 2.164062 17.859375 2.160156 17.859375 2.160156 C 17.855469 2.15625 17.855469 2.152344 17.855469 2.152344 C 17.851562 2.148438 17.851562 2.144531 17.851562 2.144531 C 17.847656 2.140625 17.847656 2.140625 17.84375 2.136719 C 17.84375 2.132812 17.84375 2.132812 17.839844 2.128906 C 17.839844 2.128906 17.835938 2.125 17.835938 2.125 C 17.835938 2.121094 17.832031 2.121094 17.832031 2.117188 C 17.828125 2.113281 17.828125 2.113281 17.824219 2.109375 C 17.824219 2.109375 17.820312 2.105469 17.820312 2.105469 C 17.816406 2.101562 17.816406 2.101562 17.8125 2.097656 C 17.808594 2.097656 17.808594 2.097656 17.804688 2.09375 C 17.804688 2.09375 17.800781 2.089844 17.800781 2.089844 C 17.796875 2.085938 17.792969 2.085938 17.792969 2.082031 C 17.789062 2.082031 17.789062 2.082031 17.785156 2.078125 C 17.78125 2.078125 17.78125 2.078125 17.777344 2.074219 C 17.773438 2.074219 17.773438 2.074219 17.769531 2.070312 C 17.769531 2.070312 17.765625 2.070312 17.761719 2.066406 C 17.757812 2.066406 17.757812 2.066406 17.753906 2.066406 C 17.75 2.0625 17.75 2.0625 17.746094 2.0625 C 17.742188 2.0625 17.742188 2.0625 17.738281 2.058594 C 17.734375 2.058594 17.730469 2.058594 17.730469 2.058594 C 17.726562 2.058594 17.722656 2.058594 17.71875 2.058594 C 17.71875 2.058594 17.714844 2.054688 17.710938 2.054688 C 17.707031 2.054688 17.707031 2.054688 17.703125 2.054688 L 15.984375 2.054688 C 15.980469 2.054688 15.976562 2.054688 15.976562 2.054688 Z M 15.984375 6.1875 C 15.890625 6.1875 15.8125 6.265625 15.8125 6.359375 L 15.8125 6.535156 C 15.8125 6.4375 15.890625 6.363281 15.984375 6.363281 L 17.1875 6.363281 L 17.1875 6.1875 Z M 17.875 6.1875 L 17.875 6.363281 L 19.078125 6.363281 C 19.171875 6.363281 19.25 6.4375 19.25 6.535156 L 19.25 6.359375 C 19.25 6.265625 19.171875 6.1875 19.078125 6.1875 Z M 17.875 6.1875 "/>
<path style=" stroke:none;fill-rule:nonzero;fill:rgb(0%,0%,0%);fill-opacity:0.4;" d="M 15.8125 2.578125 L 15.8125 2.75 C 15.8125 2.84375 15.890625 2.921875 15.984375 2.921875 L 17.1875 2.921875 L 17.1875 2.75 L 15.984375 2.75 C 15.890625 2.75 15.8125 2.671875 15.8125 2.578125 Z M 15.8125 6.703125 L 15.8125 6.875 C 15.8125 6.96875 15.890625 7.046875 15.984375 7.046875 L 19.078125 7.046875 C 19.171875 7.046875 19.25 6.96875 19.25 6.875 L 19.25 6.703125 C 19.25 6.796875 19.171875 6.875 19.078125 6.875 L 15.984375 6.875 C 15.890625 6.875 15.8125 6.796875 15.8125 6.703125 Z M 15.8125 6.703125 "/>
<path style=" stroke:none;fill-rule:nonzero;fill:rgb(49.411765%,34.117648%,76.078433%);fill-opacity:1;" d="M 9.445312 2.0625 C 9.351562 2.066406 9.28125 2.140625 9.28125 2.234375 L 9.28125 2.578125 C 9.28125 2.671875 9.359375 2.75 9.453125 2.75 L 10.65625 2.75 L 10.65625 6.1875 L 9.453125 6.1875 C 9.359375 6.1875 9.28125 6.265625 9.28125 6.359375 L 9.28125 6.703125 C 9.28125 6.796875 9.359375 6.875 9.453125 6.875 L 12.546875 6.875 C 12.640625 6.875 12.71875 6.796875 12.71875 6.703125 L 12.71875 6.359375 C 12.71875 6.265625 12.640625 6.1875 12.546875 6.1875 L 11.34375 6.1875 L 11.34375 2.585938 C 11.34375 2.585938 11.34375 2.582031 11.34375 2.578125 L 11.34375 2.234375 C 11.34375 2.230469 11.34375 2.230469 11.34375 2.226562 C 11.34375 2.222656 11.34375 2.21875 11.34375 2.214844 C 11.34375 2.214844 11.34375 2.210938 11.339844 2.207031 C 11.339844 2.203125 11.339844 2.199219 11.339844 2.199219 C 11.339844 2.195312 11.339844 2.191406 11.339844 2.191406 C 11.335938 2.1875 11.335938 2.183594 11.335938 2.183594 C 11.335938 2.179688 11.335938 2.175781 11.332031 2.175781 C 11.332031 2.171875 11.332031 2.167969 11.332031 2.167969 C 11.328125 2.164062 11.328125 2.160156 11.328125 2.160156 C 11.324219 2.15625 11.324219 2.152344 11.324219 2.152344 C 11.320312 2.148438 11.320312 2.144531 11.320312 2.144531 C 11.316406 2.140625 11.316406 2.140625 11.3125 2.136719 C 11.3125 2.132812 11.3125 2.132812 11.308594 2.128906 C 11.308594 2.128906 11.308594 2.125 11.304688 2.125 C 11.304688 2.121094 11.300781 2.121094 11.300781 2.117188 C 11.296875 2.113281 11.296875 2.113281 11.292969 2.109375 C 11.292969 2.109375 11.289062 2.105469 11.289062 2.105469 C 11.285156 2.101562 11.285156 2.101562 11.28125 2.097656 C 11.28125 2.097656 11.277344 2.097656 11.273438 2.09375 C 11.273438 2.09375 11.269531 2.089844 11.269531 2.089844 C 11.265625 2.085938 11.265625 2.085938 11.261719 2.082031 C 11.257812 2.082031 11.257812 2.082031 11.253906 2.078125 C 11.25 2.078125 11.25 2.078125 11.246094 2.074219 C 11.242188 2.074219 11.242188 2.074219 11.238281 2.070312 C 11.238281 2.070312 11.234375 2.070312 11.230469 2.066406 C 11.226562 2.066406 11.226562 2.066406 11.222656 2.066406 C 11.21875 2.0625 11.21875 2.0625 11.214844 2.0625 C 11.210938 2.0625 11.210938 2.0625 11.207031 2.058594 C 11.203125 2.058594 11.199219 2.058594 11.199219 2.058594 C 11.195312 2.058594 11.191406 2.058594 11.191406 2.058594 C 11.1875 2.058594 11.183594 2.058594 11.179688 2.058594 C 11.179688 2.054688 11.175781 2.058594 11.171875 2.058594 L 9.453125 2.058594 C 9.449219 2.058594 9.449219 2.054688 9.445312 2.058594 Z M 9.445312 2.0625 "/>
<path style=" stroke:none;fill-rule:nonzero;fill:rgb(100%,100%,100%);fill-opacity:0.4;" d="M 9.445312 2.054688 L 9.445312 2.0625 C 9.351562 2.066406 9.28125 2.144531 9.28125 2.234375 L 9.28125 2.410156 C 9.28125 2.316406 9.351562 2.242188 9.445312 2.238281 L 9.445312 2.230469 C 9.445312 2.230469 9.449219 2.230469 9.453125 2.230469 L 11.171875 2.230469 C 11.175781 2.230469 11.175781 2.230469 11.179688 2.230469 C 11.183594 2.230469 11.1875 2.230469 11.1875 2.230469 C 11.191406 2.230469 11.195312 2.234375 11.199219 2.234375 C 11.199219 2.234375 11.203125 2.234375 11.207031 2.234375 C 11.210938 2.234375 11.210938 2.238281 11.214844 2.238281 C 11.21875 2.238281 11.21875 2.238281 11.222656 2.238281 C 11.226562 2.242188 11.226562 2.242188 11.230469 2.242188 C 11.234375 2.242188 11.238281 2.246094 11.238281 2.246094 C 11.242188 2.246094 11.242188 2.25 11.246094 2.25 C 11.25 2.25 11.25 2.253906 11.253906 2.253906 C 11.257812 2.253906 11.257812 2.257812 11.261719 2.257812 C 11.261719 2.257812 11.265625 2.261719 11.269531 2.261719 C 11.269531 2.265625 11.273438 2.265625 11.273438 2.269531 C 11.277344 2.269531 11.277344 2.273438 11.28125 2.273438 C 11.285156 2.273438 11.285156 2.277344 11.289062 2.277344 C 11.289062 2.28125 11.292969 2.28125 11.292969 2.285156 C 11.296875 2.289062 11.296875 2.289062 11.300781 2.292969 C 11.300781 2.292969 11.304688 2.296875 11.304688 2.296875 C 11.304688 2.300781 11.308594 2.300781 11.308594 2.304688 C 11.3125 2.308594 11.3125 2.308594 11.3125 2.3125 C 11.316406 2.3125 11.316406 2.316406 11.320312 2.316406 C 11.320312 2.320312 11.320312 2.324219 11.324219 2.324219 C 11.324219 2.328125 11.324219 2.332031 11.328125 2.332031 C 11.328125 2.335938 11.328125 2.339844 11.332031 2.339844 C 11.332031 2.34375 11.332031 2.347656 11.332031 2.347656 C 11.335938 2.351562 11.335938 2.355469 11.335938 2.355469 C 11.335938 2.359375 11.335938 2.363281 11.339844 2.363281 C 11.339844 2.367188 11.339844 2.371094 11.339844 2.371094 C 11.339844 2.375 11.339844 2.378906 11.339844 2.382812 C 11.34375 2.382812 11.34375 2.386719 11.34375 2.390625 C 11.34375 2.394531 11.34375 2.398438 11.34375 2.398438 L 11.34375 2.234375 C 11.34375 2.230469 11.34375 2.226562 11.34375 2.222656 C 11.34375 2.222656 11.34375 2.21875 11.34375 2.214844 C 11.34375 2.210938 11.34375 2.207031 11.339844 2.207031 C 11.339844 2.203125 11.339844 2.199219 11.339844 2.195312 C 11.339844 2.195312 11.339844 2.191406 11.339844 2.1875 C 11.335938 2.1875 11.335938 2.183594 11.335938 2.179688 C 11.335938 2.179688 11.335938 2.175781 11.332031 2.171875 C 11.332031 2.171875 11.332031 2.167969 11.332031 2.164062 C 11.328125 2.164062 11.328125 2.160156 11.328125 2.15625 C 11.324219 2.15625 11.324219 2.152344 11.324219 2.148438 C 11.320312 2.148438 11.320312 2.144531 11.320312 2.140625 C 11.316406 2.140625 11.316406 2.136719 11.3125 2.136719 C 11.3125 2.132812 11.3125 2.132812 11.308594 2.128906 C 11.308594 2.125 11.304688 2.125 11.304688 2.121094 C 11.304688 2.121094 11.300781 2.117188 11.300781 2.117188 C 11.296875 2.113281 11.296875 2.113281 11.292969 2.109375 C 11.292969 2.105469 11.289062 2.105469 11.289062 2.105469 C 11.285156 2.101562 11.285156 2.101562 11.28125 2.097656 C 11.277344 2.097656 11.277344 2.097656 11.273438 2.09375 C 11.273438 2.09375 11.269531 2.089844 11.269531 2.089844 C 11.265625 2.085938 11.261719 2.085938 11.261719 2.082031 C 11.257812 2.082031 11.257812 2.082031 11.253906 2.078125 C 11.25 2.078125 11.25 2.078125 11.246094 2.074219 C 11.242188 2.074219 11.242188 2.074219 11.238281 2.070312 C 11.238281 2.070312 11.234375 2.070312 11.230469 2.066406 C 11.226562 2.066406 11.226562 2.066406 11.222656 2.066406 C 11.21875 2.0625 11.21875 2.0625 11.214844 2.0625 C 11.210938 2.0625 11.210938 2.0625 11.207031 2.058594 C 11.203125 2.058594 11.199219 2.058594 11.199219 2.058594 C 11.195312 2.058594 11.191406 2.058594 11.1875 2.058594 C 11.1875 2.054688 11.183594 2.054688 11.179688 2.054688 C 11.175781 2.054688 11.175781 2.054688 11.171875 2.054688 L 9.453125 2.054688 C 9.449219 2.054688 9.445312 2.054688 9.445312 2.054688 Z M 9.453125 6.1875 C 9.359375 6.1875 9.28125 6.265625 9.28125 6.359375 L 9.28125 6.535156 C 9.28125 6.4375 9.359375 6.363281 9.453125 6.363281 L 10.65625 6.363281 L 10.65625 6.1875 Z M 11.34375 6.1875 L 11.34375 6.363281 L 12.546875 6.363281 C 12.640625 6.363281 12.71875 6.4375 12.71875 6.535156 L 12.71875 6.359375 C 12.71875 6.265625 12.640625 6.1875 12.546875 6.1875 Z M 11.34375 6.1875 "/>
<path style=" stroke:none;fill-rule:nonzero;fill:rgb(0%,0%,0%);fill-opacity:0.4;" d="M 9.28125 2.578125 L 9.28125 2.75 C 9.28125 2.84375 9.359375 2.921875 9.453125 2.921875 L 10.65625 2.921875 L 10.65625 2.75 L 9.453125 2.75 C 9.359375 2.75 9.28125 2.671875 9.28125 2.578125 Z M 9.28125 6.703125 L 9.28125 6.875 C 9.28125 6.96875 9.359375 7.046875 9.453125 7.046875 L 12.546875 7.046875 C 12.640625 7.046875 12.71875 6.96875 12.71875 6.875 L 12.71875 6.703125 C 12.71875 6.796875 12.640625 6.875 12.546875 6.875 L 9.453125 6.875 C 9.359375 6.875 9.28125 6.796875 9.28125 6.703125 Z M 9.28125 6.703125 "/>
<path style=" stroke:none;fill-rule:nonzero;fill:url(#linear0);" d="M 2.75 1.375 L 19.25 1.375 C 20.007812 1.375 20.625 1.992188 20.625 2.75 L 20.625 19.25 C 20.625 20.007812 20.007812 20.625 19.25 20.625 L 2.75 20.625 C 1.992188 20.625 1.375 20.007812 1.375 19.25 L 1.375 2.75 C 1.375 1.992188 1.992188 1.375 2.75 1.375 Z M 2.75 1.375 "/>
</g>
</svg>
