
<svg xmlns="http://www.w3.org/2000/svg" xmlns:xlink="http://www.w3.org/1999/xlink" width="22" height="22" viewBox="0 0 22 22" version="1.1">
<defs>
<radialGradient id="radial0" gradientUnits="userSpaceOnUse" cx="10.256583" cy="-204.307953" fx="10.256583" fy="-204.307953" r="4.497917" gradientTransform="matrix(0.38208,-1.24176,1.987031,0.611394,417.172398,150.711306)">
<stop offset="0" style="stop-color:rgb(0%,0%,0%);stop-opacity:0.2;"/>
<stop offset="1" style="stop-color:rgb(100%,100%,100%);stop-opacity:0;"/>
</radialGradient>
<linearGradient id="linear0" gradientUnits="userSpaceOnUse" x1="31.999998" y1="103.999992" x2="31.999998" y2="4" gradientTransform="matrix(0.34375,0,0,0.34375,0,0.00000000000003908)">
<stop offset="0" style="stop-color:rgb(0%,0%,0%);stop-opacity:0.2;"/>
<stop offset="1" style="stop-color:rgb(100%,100%,100%);stop-opacity:0;"/>
</linearGradient>
<linearGradient id="linear1" gradientUnits="userSpaceOnUse" x1="12.100322" y1="-199.096024" x2="12.100322" y2="-213.912689" gradientTransform="matrix(1.299213,0,0,1.299213,0.091609,279.293069)">
<stop offset="0" style="stop-color:rgb(0%,0%,0%);stop-opacity:0.2;"/>
<stop offset="1" style="stop-color:rgb(100%,100%,100%);stop-opacity:0;"/>
</linearGradient>
</defs>
<g id="surface1">
<path style=" stroke:none;fill-rule:nonzero;fill:rgb(29.803923%,74.509805%,97.254902%);fill-opacity:0.290196;" d="M 10.320312 13.710938 C 10.359375 13.925781 10.648438 14.09375 11.003906 14.09375 C 11.355469 14.09375 11.648438 13.925781 11.683594 13.710938 C 11.460938 13.738281 11.230469 13.75 11 13.75 C 10.769531 13.75 10.542969 13.738281 10.320312 13.710938 Z M 10.320312 13.710938 "/>
<path style=" stroke:none;fill-rule:nonzero;fill:rgb(30.19608%,74.901962%,97.647059%);fill-opacity:0.156863;" d="M 10.53125 13.976562 C 10.730469 15.589844 10.910156 17.441406 9.972656 19.121094 C 9.96875 19.128906 9.96875 19.140625 9.96875 19.148438 C 9.96875 19.339844 10.429688 19.492188 11 19.492188 C 11.570312 19.492188 12.03125 19.339844 12.03125 19.148438 L 12.03125 19.140625 C 12.03125 19.132812 12.03125 19.128906 12.027344 19.121094 C 11.097656 17.453125 11.265625 15.59375 11.46875 13.980469 C 11.347656 14.050781 11.183594 14.09375 11.003906 14.09375 C 10.820312 14.09375 10.65625 14.050781 10.53125 13.976562 Z M 10.53125 13.976562 "/>
<path style=" stroke:none;fill-rule:nonzero;fill:rgb(73.333335%,87.058824%,98.431373%);fill-opacity:0.6;" d="M 9.96875 13.664062 L 9.96875 13.667969 C 9.96875 14.09375 10.429688 14.4375 11 14.4375 C 11.570312 14.4375 12.03125 14.09375 12.03125 13.667969 L 12.03125 13.664062 C 11.960938 13.675781 11.886719 13.6875 11.816406 13.695312 C 11.769531 13.707031 11.726562 13.714844 11.679688 13.722656 C 11.636719 13.933594 11.351562 14.09375 11.003906 14.09375 C 10.648438 14.09375 10.359375 13.925781 10.320312 13.710938 C 10.203125 13.699219 10.085938 13.683594 9.96875 13.664062 Z M 9.96875 13.664062 "/>
<path style=" stroke:none;fill-rule:nonzero;fill:rgb(73.333335%,87.058824%,98.431373%);fill-opacity:0.6;" d="M 11.652344 14.265625 C 11.550781 14.328125 11.433594 14.375 11.304688 14.402344 C 11.054688 16.023438 11.214844 17.75 11.84375 19.203125 L 11.8125 19.203125 C 11.695312 19.304688 11.382812 19.375 11.015625 19.375 L 10.984375 19.375 C 10.617188 19.375 10.304688 19.304688 10.1875 19.203125 L 10.15625 19.203125 C 10.785156 17.75 10.949219 16.023438 10.695312 14.402344 C 10.566406 14.375 10.449219 14.328125 10.351562 14.265625 C 10.640625 15.898438 10.457031 17.683594 9.8125 19.136719 C 9.804688 19.15625 9.800781 19.179688 9.800781 19.203125 L 9.796875 19.203125 C 9.796875 19.492188 10.332031 19.71875 11 19.71875 C 11.667969 19.71875 12.203125 19.492188 12.203125 19.203125 C 12.203125 19.179688 12.199219 19.15625 12.1875 19.136719 C 11.542969 17.679688 11.363281 15.898438 11.652344 14.265625 Z M 11.652344 14.265625 "/>
<path style=" stroke:none;fill-rule:nonzero;fill:rgb(94.509804%,94.509804%,94.509804%);fill-opacity:0.301961;" d="M 11 18.734375 C 10.738281 18.734375 10.484375 18.738281 10.234375 18.746094 C 10.210938 18.800781 10.1875 18.859375 10.160156 18.917969 C 10.433594 18.910156 10.714844 18.90625 11 18.90625 C 11.285156 18.90625 11.566406 18.910156 11.839844 18.917969 C 11.8125 18.859375 11.789062 18.800781 11.761719 18.746094 C 11.511719 18.738281 11.261719 18.734375 11 18.734375 Z M 11 18.734375 "/>
<path style=" stroke:none;fill-rule:nonzero;fill:rgb(73.333335%,87.058824%,98.431373%);fill-opacity:0.6;" d="M 10.234375 18.574219 C 7.554688 18.644531 5.5 19.070312 5.5 19.59375 C 5.5 20.164062 7.953125 20.625 11 20.625 C 14.046875 20.625 16.5 20.164062 16.5 19.59375 C 16.5 19.070312 14.445312 18.644531 11.761719 18.574219 C 11.789062 18.628906 11.8125 18.6875 11.839844 18.746094 C 14.292969 18.804688 16.15625 19.121094 16.15625 19.507812 C 16.15625 19.9375 13.855469 20.28125 11 20.28125 C 8.144531 20.28125 5.84375 19.9375 5.84375 19.507812 C 5.84375 19.121094 7.707031 18.804688 10.160156 18.746094 C 10.1875 18.6875 10.210938 18.628906 10.234375 18.574219 Z M 10.234375 18.574219 "/>
<path style=" stroke:none;fill-rule:nonzero;fill:rgb(30.980393%,76.47059%,96.862745%);fill-opacity:0.156863;" d="M 6.015625 2.578125 L 5.003906 6.613281 C 4.265625 9.570312 7.609375 12.375 10.65625 12.375 L 11.34375 12.375 C 14.390625 12.375 17.6875 9.835938 17.007812 6.863281 L 15.984375 2.40625 C 15.144531 2.808594 13.710938 3.4375 11 3.4375 C 8.289062 3.4375 6.855469 2.980469 6.015625 2.578125 Z M 6.015625 2.578125 "/>
<path style=" stroke:none;fill-rule:nonzero;fill:rgb(94.117647%,38.431373%,57.254905%);fill-opacity:1;" d="M 10.3125 6.1875 L 11.6875 6.1875 C 14.726562 6.1875 17.1875 6.648438 17.1875 7.21875 C 17.1875 7.789062 14.726562 8.25 11.6875 8.25 L 10.3125 8.25 C 7.273438 8.25 4.8125 7.789062 4.8125 7.21875 C 4.8125 6.648438 7.273438 6.1875 10.3125 6.1875 Z M 10.3125 6.1875 "/>
<path style=" stroke:none;fill-rule:nonzero;fill:rgb(73.333335%,87.058824%,98.431373%);fill-opacity:0.6;" d="M 11 1.375 C 8.21875 1.375 5.96875 1.8125 5.851562 2.359375 C 5.386719 3.542969 4.804688 5.457031 4.8125 6.875 L 4.8125 7.5625 C 4.8125 10.992188 7.570312 13.75 11 13.75 C 14.429688 13.75 17.1875 10.992188 17.1875 7.5625 L 17.1875 6.875 C 17.195312 5.457031 16.613281 3.542969 16.152344 2.359375 C 16.035156 1.8125 13.78125 1.375 11 1.375 Z M 11 1.546875 C 13.667969 1.546875 15.8125 1.890625 15.8125 2.320312 C 15.8125 2.75 13.667969 3.09375 11 3.09375 C 8.332031 3.09375 6.1875 2.75 6.1875 2.320312 C 6.1875 1.890625 8.332031 1.546875 11 1.546875 Z M 6.082031 2.71875 C 6.742188 3.136719 8.6875 3.4375 11 3.4375 C 13.3125 3.4375 15.257812 3.136719 15.917969 2.71875 C 16.351562 3.882812 16.851562 5.636719 16.84375 6.875 L 16.929688 6.875 L 16.84375 6.875 L 16.84375 7.476562 C 16.84375 10.570312 14.351562 13.0625 11.257812 13.0625 L 10.742188 13.0625 C 7.648438 13.0625 5.15625 10.570312 5.15625 7.476562 L 5.15625 6.875 L 5.070312 6.875 L 5.15625 6.875 C 5.148438 5.636719 5.648438 3.882812 6.082031 2.71875 Z M 6.082031 2.71875 "/>
<path style=" stroke:none;fill-rule:nonzero;fill:rgb(92.54902%,25.098041%,47.843137%);fill-opacity:0.996078;" d="M 5.15625 7.0625 L 5.15625 7.5625 C 5.15625 10.609375 7.609375 13.0625 10.65625 13.0625 L 11.34375 13.0625 C 14.390625 13.0625 16.84375 10.609375 16.84375 7.5625 L 16.84375 7.0625 C 16.066406 7.457031 14.058594 7.734375 11.6875 7.734375 L 10.3125 7.734375 C 7.941406 7.734375 5.933594 7.457031 5.15625 7.0625 Z M 5.15625 7.0625 "/>
<path style=" stroke:none;fill-rule:nonzero;fill:rgb(100%,100%,100%);fill-opacity:0.301961;" d="M 6.394531 3.121094 C 5.191406 6.558594 4.785156 11.507812 10.3125 12.546875 C 7.390625 9.96875 6.558594 9.304688 7.554688 3.34375 Z M 6.394531 3.121094 "/>
<path style=" stroke:none;fill-rule:nonzero;fill:url(#radial0);" d="M 5.15625 7.0625 L 5.15625 7.5625 C 5.15625 10.609375 7.609375 13.0625 10.65625 13.0625 L 11.34375 13.0625 C 14.390625 13.0625 16.84375 10.609375 16.84375 7.5625 L 16.84375 7.0625 C 16.066406 7.457031 14.058594 7.734375 11.6875 7.734375 L 10.3125 7.734375 C 7.941406 7.734375 5.933594 7.457031 5.15625 7.0625 Z M 5.15625 7.0625 "/>
<path style=" stroke:none;fill-rule:nonzero;fill:rgb(39.215687%,70.980394%,96.470588%);fill-opacity:0.207843;" d="M 11 1.546875 C 13.65625 1.546875 15.8125 1.894531 15.8125 2.320312 C 15.8125 2.746094 13.65625 3.09375 11 3.09375 C 8.34375 3.09375 6.1875 2.746094 6.1875 2.320312 C 6.1875 1.894531 8.34375 1.546875 11 1.546875 Z M 11 1.546875 "/>
<path style=" stroke:none;fill-rule:nonzero;fill:rgb(30.19608%,74.901962%,97.647059%);fill-opacity:0.156863;" d="M 10.160156 18.746094 C 7.707031 18.804688 5.84375 19.121094 5.84375 19.507812 C 5.84375 19.9375 8.144531 20.28125 11 20.28125 C 13.855469 20.28125 16.15625 19.9375 16.15625 19.507812 C 16.15625 19.121094 14.292969 18.804688 11.839844 18.746094 C 11.894531 18.871094 11.957031 18.996094 12.027344 19.121094 C 12.03125 19.128906 12.03125 19.132812 12.03125 19.140625 L 12.03125 19.148438 C 12.03125 19.339844 11.570312 19.492188 11 19.492188 C 10.429688 19.492188 9.96875 19.339844 9.96875 19.148438 C 9.96875 19.140625 9.96875 19.128906 9.972656 19.121094 C 10.042969 18.996094 10.105469 18.871094 10.160156 18.746094 Z M 10.160156 18.746094 "/>
<path style=" stroke:none;fill-rule:nonzero;fill:rgb(100%,100%,100%);fill-opacity:0.301961;" d="M 6.359375 3.953125 C 5.671875 7.734375 5.328125 9.625 8.421875 11.515625 C 6.53125 9.453125 6.015625 8.9375 6.875 4.125 Z M 6.359375 3.953125 "/>
<path style=" stroke:none;fill-rule:nonzero;fill:rgb(100%,100%,100%);fill-opacity:0.301961;" d="M 9.402344 18.941406 C 7.621094 19.011719 6.359375 19.199219 6.359375 19.421875 C 6.359375 19.644531 7.621094 19.832031 9.402344 19.902344 C 8.890625 19.765625 8.59375 19.601562 8.59375 19.421875 C 8.59375 19.242188 8.890625 19.078125 9.402344 18.941406 Z M 9.402344 18.941406 "/>
<path style=" stroke:none;fill-rule:nonzero;fill:rgb(100%,100%,100%);fill-opacity:0.301961;" d="M 8.078125 19.140625 C 7.242188 19.175781 6.652344 19.265625 6.652344 19.367188 C 6.652344 19.472656 7.242188 19.558594 8.078125 19.59375 C 7.839844 19.53125 7.699219 19.453125 7.699219 19.367188 C 7.699219 19.285156 7.839844 19.207031 8.078125 19.140625 Z M 8.078125 19.140625 "/>
<path style=" stroke:none;fill-rule:nonzero;fill:rgb(100%,100%,100%);fill-opacity:0.301961;" d="M 10.828125 14.609375 C 11 16.15625 11.40625 17.429688 10.828125 19.25 C 10.632812 19.257812 10.410156 19.328125 10.3125 19.078125 C 10.828125 17.703125 10.828125 16.15625 10.828125 14.609375 Z M 10.828125 14.609375 "/>
<path style=" stroke:none;fill-rule:nonzero;fill:rgb(0%,0%,0%);fill-opacity:0.2;" d="M 5.664062 3.976562 C 5.546875 4.386719 5.4375 4.8125 5.351562 5.234375 Z M 16.390625 4.175781 L 16.71875 5.617188 C 16.636719 5.144531 16.523438 4.652344 16.390625 4.175781 Z M 4.8125 7.5625 L 4.8125 8.078125 C 4.8125 11.152344 7.035156 13.691406 9.96875 14.179688 L 9.96875 14.183594 C 9.96875 14.421875 10.113281 14.632812 10.339844 14.773438 C 10.417969 15.210938 10.464844 15.65625 10.476562 16.105469 C 10.496094 15.488281 10.449219 14.863281 10.339844 14.261719 C 10.113281 14.117188 9.96875 13.90625 9.96875 13.667969 L 9.96875 13.664062 C 7.035156 13.175781 4.8125 10.640625 4.8125 7.5625 Z M 17.1875 7.5625 C 17.1875 10.640625 14.964844 13.175781 12.03125 13.664062 L 12.03125 13.667969 C 12.03125 13.90625 11.886719 14.117188 11.660156 14.257812 C 11.550781 14.863281 11.503906 15.488281 11.523438 16.105469 C 11.535156 15.65625 11.582031 15.210938 11.660156 14.773438 C 11.886719 14.632812 12.03125 14.421875 12.03125 14.183594 L 12.03125 14.179688 C 14.964844 13.691406 17.1875 11.152344 17.1875 8.078125 Z M 5.671875 19.855469 C 5.558594 19.933594 5.5 20.019531 5.5 20.109375 C 5.5 20.679688 7.953125 21.140625 11 21.140625 C 14.046875 21.140625 16.5 20.679688 16.5 20.109375 C 16.5 20.019531 16.441406 19.933594 16.328125 19.855469 C 16.328125 19.851562 16.328125 19.855469 16.328125 19.855469 C 15.71875 20.300781 13.570312 20.625 11 20.625 C 8.429688 20.625 6.28125 20.300781 5.671875 19.855469 C 5.671875 19.851562 5.671875 19.855469 5.671875 19.855469 Z M 5.671875 19.855469 "/>
<path style=" stroke:none;fill-rule:nonzero;fill:rgb(100%,100%,100%);fill-opacity:0.6;" d="M 6.175781 2.46875 C 7.769531 3.46875 12.425781 3.464844 14.722656 2.941406 C 12.332031 3.269531 7.636719 3.304688 6.175781 2.46875 Z M 6.175781 2.46875 "/>
<path style=" stroke:none;fill-rule:nonzero;fill:rgb(100%,100%,100%);fill-opacity:0.6;" d="M 6.253906 2.171875 C 7.308594 1.097656 12.984375 1.332031 14.804688 1.78125 C 11.953125 1.425781 7.902344 1.28125 6.253906 2.171875 Z M 6.253906 2.171875 "/>
<path style=" stroke:none;fill-rule:nonzero;fill:rgb(100%,100%,100%);fill-opacity:0.6;" d="M 10.855469 15.574219 C 10.9375 16.308594 10.953125 17.867188 10.679688 18.726562 C 10.589844 18.730469 10.484375 18.765625 10.4375 18.648438 C 10.679688 17.996094 10.855469 16.308594 10.855469 15.574219 Z M 10.855469 15.574219 "/>
<path style=" stroke:none;fill-rule:nonzero;fill:rgb(100%,100%,100%);fill-opacity:0.2;" d="M 5.15625 7.0625 C 5.15625 7.0625 5.128906 7.792969 5.636719 7.949219 C 6.140625 8.105469 6.371094 7.851562 6.707031 7.96875 C 7.042969 8.082031 7.027344 8.265625 7.496094 8.214844 C 7.964844 8.160156 8.308594 8.03125 8.53125 8.117188 C 8.753906 8.203125 8.777344 8.371094 9.265625 8.289062 C 9.757812 8.203125 9.710938 8.035156 9.996094 8.144531 C 10.277344 8.25 10.722656 8.414062 11.050781 8.339844 C 11.382812 8.261719 11.683594 8.09375 12.5625 8.179688 C 13.445312 8.265625 13.507812 8.167969 14.011719 8.054688 C 14.519531 7.941406 14.433594 7.96875 14.816406 7.972656 C 15.199219 7.972656 15.574219 7.90625 15.722656 7.773438 C 15.867188 7.644531 15.898438 7.707031 16.144531 7.667969 C 16.386719 7.628906 16.542969 7.484375 16.648438 7.433594 C 16.757812 7.378906 16.84375 7.0625 16.84375 7.0625 C 15.722656 7.773438 7.773438 8.128906 5.15625 7.0625 Z M 5.15625 7.0625 "/>
<path style=" stroke:none;fill-rule:nonzero;fill:url(#linear0);" d="M 11 1.546875 C 8.332031 1.546875 6.1875 1.890625 6.1875 2.320312 C 6.1875 2.75 8.332031 3.09375 11 3.09375 C 13.667969 3.09375 15.8125 2.75 15.8125 2.320312 C 15.8125 1.890625 13.667969 1.546875 11 1.546875 Z M 5.855469 2.34375 C 5.394531 3.519531 4.804688 5.449219 4.8125 6.875 L 4.8125 7.5625 C 4.8125 10.636719 7.035156 13.175781 9.96875 13.664062 L 9.96875 13.667969 C 9.96875 13.90625 10.113281 14.117188 10.339844 14.257812 C 10.601562 15.6875 10.503906 17.234375 10.046875 18.578125 C 7.460938 18.664062 5.5 19.082031 5.5 19.59375 C 5.5 20.164062 7.953125 20.625 11 20.625 C 14.046875 20.625 16.5 20.164062 16.5 19.59375 C 16.5 19.082031 14.539062 18.664062 11.953125 18.578125 C 11.496094 17.234375 11.398438 15.6875 11.660156 14.257812 C 11.886719 14.117188 12.03125 13.90625 12.03125 13.667969 L 12.03125 13.664062 C 14.964844 13.175781 17.1875 10.636719 17.1875 7.5625 L 17.1875 6.875 C 17.195312 5.449219 16.605469 3.523438 16.144531 2.34375 L 15.824219 2.46875 C 15.824219 2.472656 15.824219 2.476562 15.828125 2.480469 C 14.96875 2.878906 13.554688 3.4375 11 3.4375 C 8.390625 3.4375 6.972656 3.015625 6.117188 2.625 C 6.136719 2.574219 6.15625 2.515625 6.175781 2.46875 Z M 5.664062 3.976562 L 5.351562 5.234375 C 5.4375 4.8125 5.546875 4.386719 5.664062 3.976562 Z M 16.390625 4.175781 C 16.523438 4.652344 16.636719 5.144531 16.71875 5.617188 Z M 5.566406 9.589844 C 6.605469 11.207031 8.691406 12.375 10.65625 12.375 L 11.34375 12.375 C 13.199219 12.375 15.148438 11.429688 16.234375 10.019531 C 15.363281 11.726562 13.644531 12.917969 11.628906 13.050781 C 11.453125 12.949219 11.238281 12.890625 11 12.890625 C 10.992188 12.890625 10.980469 12.890625 10.972656 12.890625 C 10.746094 12.894531 10.539062 12.953125 10.371094 13.050781 C 8.1875 12.90625 6.351562 11.519531 5.566406 9.589844 Z M 5.566406 9.589844 "/>
<path style=" stroke:none;fill-rule:nonzero;fill:rgb(67.058825%,27.843139%,73.725492%);fill-opacity:1;" d="M 15.835938 10.457031 C 15.507812 10.460938 15.183594 10.496094 14.871094 10.558594 L 14.53125 12.246094 C 14.253906 12.363281 13.992188 12.515625 13.753906 12.695312 L 12.125 12.144531 C 11.898438 12.398438 11.695312 12.679688 11.519531 12.988281 C 11.339844 13.292969 11.199219 13.613281 11.089844 13.933594 L 12.386719 15.074219 C 12.367188 15.21875 12.359375 15.367188 12.359375 15.519531 C 12.359375 15.671875 12.367188 15.820312 12.386719 15.96875 L 11.089844 17.105469 C 11.199219 17.429688 11.339844 17.746094 11.519531 18.050781 C 11.695312 18.359375 11.898438 18.640625 12.125 18.894531 L 13.753906 18.34375 C 13.992188 18.523438 14.253906 18.675781 14.53125 18.792969 L 14.871094 20.480469 C 15.203125 20.546875 15.550781 20.585938 15.902344 20.585938 C 16.257812 20.585938 16.605469 20.546875 16.9375 20.480469 L 17.273438 18.792969 C 17.554688 18.675781 17.816406 18.523438 18.050781 18.34375 L 19.683594 18.894531 C 19.910156 18.640625 20.113281 18.359375 20.289062 18.050781 C 20.46875 17.746094 20.609375 17.429688 20.714844 17.105469 L 19.421875 15.96875 C 19.441406 15.820312 19.449219 15.671875 19.449219 15.519531 C 19.449219 15.367188 19.441406 15.21875 19.421875 15.074219 L 20.714844 13.933594 C 20.609375 13.613281 20.46875 13.292969 20.289062 12.988281 C 20.113281 12.679688 19.910156 12.398438 19.683594 12.144531 L 18.050781 12.695312 C 17.816406 12.515625 17.554688 12.363281 17.273438 12.246094 L 16.9375 10.558594 C 16.605469 10.492188 16.257812 10.457031 15.902344 10.457031 C 15.882812 10.457031 15.859375 10.453125 15.835938 10.457031 Z M 15.902344 13.492188 C 17.027344 13.492188 17.929688 14.398438 17.929688 15.519531 C 17.929688 16.640625 17.027344 17.546875 15.902344 17.546875 C 14.78125 17.546875 13.878906 16.640625 13.878906 15.519531 C 13.878906 14.398438 14.78125 13.492188 15.902344 13.492188 Z M 15.902344 13.492188 "/>
<path style=" stroke:none;fill-rule:nonzero;fill:rgb(100%,100%,100%);fill-opacity:0.4;" d="M 15.839844 10.453125 C 15.507812 10.457031 15.183594 10.496094 14.871094 10.558594 L 14.53125 12.246094 C 14.253906 12.363281 13.992188 12.515625 13.753906 12.695312 L 12.125 12.144531 C 11.898438 12.398438 11.695312 12.679688 11.519531 12.988281 C 11.339844 13.292969 11.199219 13.613281 11.089844 13.933594 L 11.195312 14.027344 C 11.285156 13.800781 11.390625 13.578125 11.519531 13.359375 C 11.695312 13.054688 11.898438 12.773438 12.125 12.519531 L 13.753906 13.070312 C 13.992188 12.886719 14.253906 12.738281 14.53125 12.621094 L 14.871094 10.933594 C 15.183594 10.867188 15.507812 10.832031 15.839844 10.828125 C 15.859375 10.828125 15.882812 10.828125 15.902344 10.828125 C 16.257812 10.828125 16.605469 10.863281 16.9375 10.933594 L 17.277344 12.621094 C 17.554688 12.738281 17.816406 12.886719 18.054688 13.070312 L 19.683594 12.519531 C 19.910156 12.773438 20.113281 13.054688 20.289062 13.359375 C 20.414062 13.578125 20.523438 13.800781 20.613281 14.027344 L 20.714844 13.933594 C 20.609375 13.613281 20.46875 13.292969 20.289062 12.988281 C 20.113281 12.679688 19.910156 12.398438 19.683594 12.144531 L 18.054688 12.695312 C 17.816406 12.515625 17.554688 12.363281 17.277344 12.246094 L 16.9375 10.558594 C 16.605469 10.492188 16.257812 10.453125 15.902344 10.453125 C 15.882812 10.453125 15.859375 10.453125 15.839844 10.453125 Z M 12.359375 15.421875 C 12.359375 15.453125 12.359375 15.488281 12.359375 15.519531 C 12.359375 15.582031 12.359375 15.644531 12.363281 15.707031 C 12.367188 15.617188 12.375 15.53125 12.386719 15.445312 Z M 19.449219 15.421875 L 19.421875 15.445312 C 19.433594 15.53125 19.441406 15.617188 19.445312 15.707031 C 19.449219 15.644531 19.449219 15.582031 19.449219 15.519531 C 19.449219 15.488281 19.449219 15.457031 19.449219 15.421875 Z M 13.886719 15.707031 C 13.882812 15.769531 13.878906 15.832031 13.878906 15.894531 C 13.878906 17.015625 14.78125 17.917969 15.902344 17.917969 C 17.027344 17.917969 17.929688 17.015625 17.929688 15.894531 C 17.929688 15.832031 17.925781 15.769531 17.921875 15.707031 C 17.828125 16.742188 16.964844 17.546875 15.902344 17.546875 C 14.84375 17.546875 13.980469 16.742188 13.886719 15.707031 Z M 19.449219 15.988281 C 19.445312 16.109375 19.4375 16.226562 19.421875 16.339844 L 20.613281 17.386719 C 20.648438 17.292969 20.683594 17.199219 20.714844 17.105469 Z M 12.359375 15.992188 L 11.089844 17.105469 C 11.121094 17.199219 11.15625 17.292969 11.195312 17.386719 L 12.386719 16.339844 C 12.371094 16.226562 12.363281 16.109375 12.359375 15.992188 Z M 12.359375 15.992188 "/>
<path style=" stroke:none;fill-rule:nonzero;fill:url(#linear1);" d="M 15.835938 10.457031 C 15.507812 10.460938 15.183594 10.496094 14.871094 10.558594 L 14.53125 12.246094 C 14.253906 12.363281 13.992188 12.515625 13.753906 12.695312 L 12.125 12.144531 C 11.898438 12.398438 11.695312 12.679688 11.519531 12.988281 C 11.339844 13.292969 11.199219 13.613281 11.089844 13.933594 L 12.386719 15.074219 C 12.367188 15.21875 12.359375 15.367188 12.359375 15.519531 C 12.359375 15.671875 12.367188 15.820312 12.386719 15.96875 L 11.089844 17.105469 C 11.199219 17.429688 11.339844 17.746094 11.519531 18.050781 C 11.695312 18.359375 11.898438 18.640625 12.125 18.894531 L 13.753906 18.34375 C 13.992188 18.523438 14.253906 18.675781 14.53125 18.792969 L 14.871094 20.480469 C 15.203125 20.546875 15.550781 20.585938 15.902344 20.585938 C 16.257812 20.585938 16.605469 20.546875 16.9375 20.480469 L 17.273438 18.792969 C 17.554688 18.675781 17.816406 18.523438 18.050781 18.34375 L 19.683594 18.894531 C 19.910156 18.640625 20.113281 18.359375 20.289062 18.050781 C 20.46875 17.746094 20.609375 17.429688 20.714844 17.105469 L 19.421875 15.96875 C 19.441406 15.820312 19.449219 15.671875 19.449219 15.519531 C 19.449219 15.367188 19.441406 15.21875 19.421875 15.074219 L 20.714844 13.933594 C 20.609375 13.613281 20.46875 13.292969 20.289062 12.988281 C 20.113281 12.679688 19.910156 12.398438 19.683594 12.144531 L 18.050781 12.695312 C 17.816406 12.515625 17.554688 12.363281 17.273438 12.246094 L 16.9375 10.558594 C 16.605469 10.492188 16.257812 10.457031 15.902344 10.457031 C 15.882812 10.457031 15.859375 10.453125 15.835938 10.457031 Z M 15.902344 13.492188 C 17.027344 13.492188 17.929688 14.398438 17.929688 15.519531 C 17.929688 16.640625 17.027344 17.546875 15.902344 17.546875 C 14.78125 17.546875 13.878906 16.640625 13.878906 15.519531 C 13.878906 14.398438 14.78125 13.492188 15.902344 13.492188 Z M 15.902344 13.492188 "/>
<path style=" stroke:none;fill-rule:nonzero;fill:rgb(0.784314%,0.784314%,0.784314%);fill-opacity:0.4;" d="M 15.839844 20.585938 C 15.507812 20.582031 15.183594 20.542969 14.871094 20.480469 L 14.53125 18.792969 C 14.253906 18.675781 13.992188 18.523438 13.753906 18.34375 L 12.125 18.894531 C 11.898438 18.640625 11.695312 18.359375 11.519531 18.054688 C 11.339844 17.746094 11.199219 17.429688 11.089844 17.105469 L 11.183594 17.023438 C 11.277344 17.261719 11.386719 17.492188 11.519531 17.71875 C 11.695312 18.027344 11.898438 18.308594 12.125 18.5625 L 13.753906 18.011719 C 13.992188 18.191406 14.253906 18.34375 14.53125 18.460938 L 14.871094 20.148438 C 15.183594 20.210938 15.507812 20.25 15.839844 20.253906 C 15.859375 20.253906 15.882812 20.253906 15.902344 20.253906 C 16.257812 20.253906 16.605469 20.214844 16.9375 20.148438 L 17.277344 18.460938 C 17.554688 18.34375 17.816406 18.191406 18.054688 18.011719 L 19.683594 18.5625 C 19.910156 18.308594 20.113281 18.027344 20.289062 17.71875 C 20.421875 17.492188 20.53125 17.261719 20.625 17.023438 L 20.714844 17.105469 C 20.609375 17.429688 20.46875 17.746094 20.289062 18.054688 C 20.113281 18.359375 19.910156 18.640625 19.683594 18.894531 L 18.054688 18.34375 C 17.816406 18.523438 17.554688 18.675781 17.277344 18.792969 L 16.9375 20.480469 C 16.605469 20.546875 16.257812 20.585938 15.902344 20.585938 C 15.882812 20.585938 15.859375 20.585938 15.839844 20.585938 Z M 12.363281 15.65625 C 12.359375 15.613281 12.359375 15.566406 12.359375 15.519531 C 12.359375 15.464844 12.359375 15.410156 12.363281 15.355469 C 12.367188 15.449219 12.375 15.542969 12.386719 15.632812 Z M 19.445312 15.65625 L 19.421875 15.632812 C 19.433594 15.542969 19.441406 15.449219 19.445312 15.355469 C 19.449219 15.410156 19.449219 15.464844 19.449219 15.519531 C 19.449219 15.566406 19.449219 15.609375 19.445312 15.65625 Z M 13.886719 15.355469 C 13.882812 15.300781 13.878906 15.242188 13.878906 15.1875 C 13.878906 14.066406 14.78125 13.160156 15.902344 13.160156 C 17.027344 13.160156 17.929688 14.066406 17.929688 15.1875 C 17.929688 15.242188 17.925781 15.300781 17.921875 15.355469 C 17.839844 14.308594 16.96875 13.496094 15.902344 13.496094 C 14.835938 13.496094 13.96875 14.308594 13.886719 15.355469 Z M 19.445312 15.050781 C 19.441406 14.945312 19.433594 14.84375 19.421875 14.742188 L 20.625 13.683594 C 20.65625 13.765625 20.6875 13.851562 20.714844 13.933594 Z M 12.363281 15.050781 L 11.089844 13.933594 C 11.121094 13.851562 11.152344 13.765625 11.183594 13.683594 L 12.386719 14.742188 C 12.375 14.84375 12.367188 14.945312 12.363281 15.050781 Z M 12.363281 15.050781 "/>
<path style=" stroke:none;fill-rule:nonzero;fill:rgb(0%,0%,0%);fill-opacity:0.2;" d="M 15.902344 13.496094 C 14.78125 13.496094 13.878906 14.398438 13.878906 15.519531 C 13.878906 15.613281 13.886719 15.707031 13.898438 15.796875 C 14.03125 14.808594 14.875 14.050781 15.902344 14.050781 C 16.929688 14.050781 17.777344 14.808594 17.910156 15.796875 C 17.921875 15.707031 17.929688 15.613281 17.929688 15.519531 C 17.929688 14.398438 17.027344 13.496094 15.902344 13.496094 Z M 11.25 14.074219 C 11.191406 14.214844 11.136719 14.351562 11.089844 14.492188 L 12.359375 15.605469 C 12.359375 15.578125 12.359375 15.546875 12.359375 15.519531 C 12.359375 15.367188 12.367188 15.21875 12.386719 15.074219 Z M 20.558594 14.074219 L 19.421875 15.074219 C 19.441406 15.21875 19.449219 15.367188 19.449219 15.519531 C 19.449219 15.550781 19.449219 15.578125 19.449219 15.605469 L 20.714844 14.492188 C 20.667969 14.351562 20.617188 14.214844 20.558594 14.074219 Z M 12.371094 15.796875 C 12.363281 15.863281 12.363281 15.925781 12.359375 15.992188 L 12.386719 15.96875 C 12.378906 15.910156 12.375 15.855469 12.371094 15.796875 Z M 19.4375 15.796875 C 19.433594 15.855469 19.429688 15.910156 19.421875 15.96875 L 19.449219 15.988281 C 19.445312 15.925781 19.445312 15.863281 19.4375 15.796875 Z M 11.25 17.519531 L 11.089844 17.660156 C 11.199219 17.984375 11.339844 18.300781 11.519531 18.609375 C 11.695312 18.917969 11.898438 19.199219 12.125 19.453125 L 13.753906 18.902344 C 13.992188 19.082031 14.253906 19.234375 14.53125 19.347656 L 14.871094 21.035156 C 15.203125 21.105469 15.550781 21.140625 15.902344 21.140625 C 16.257812 21.140625 16.605469 21.105469 16.9375 21.035156 L 17.277344 19.347656 C 17.554688 19.234375 17.816406 19.082031 18.054688 18.902344 L 19.683594 19.453125 C 19.910156 19.199219 20.113281 18.917969 20.289062 18.609375 C 20.46875 18.300781 20.609375 17.984375 20.714844 17.660156 L 20.558594 17.519531 C 20.480469 17.699219 20.390625 17.878906 20.289062 18.050781 C 20.113281 18.359375 19.910156 18.640625 19.683594 18.894531 L 18.054688 18.34375 C 17.816406 18.523438 17.554688 18.675781 17.277344 18.792969 L 16.9375 20.480469 C 16.605469 20.546875 16.257812 20.585938 15.902344 20.585938 C 15.550781 20.585938 15.203125 20.546875 14.871094 20.480469 L 14.53125 18.792969 C 14.253906 18.675781 13.992188 18.523438 13.753906 18.34375 L 12.125 18.894531 C 11.898438 18.640625 11.695312 18.359375 11.519531 18.050781 C 11.417969 17.878906 11.328125 17.699219 11.25 17.519531 Z M 11.25 17.519531 "/>
</g>
</svg>
