
<svg xmlns="http://www.w3.org/2000/svg" xmlns:xlink="http://www.w3.org/1999/xlink" width="16" height="16" viewBox="0 0 16 16" version="1.1">
<defs>
<linearGradient id="linear0" gradientUnits="userSpaceOnUse" x1="8.466666" y1="-199.125" x2="8.466666" y2="-213.941666" gradientTransform="matrix(0.944882,0,0,0.944882,0,203.149617)">
<stop offset="0" style="stop-color:rgb(0%,0%,0%);stop-opacity:0.2;"/>
<stop offset="1" style="stop-color:rgb(100%,100%,100%);stop-opacity:0;"/>
</linearGradient>
</defs>
<g id="surface1">
<path style=" stroke:none;fill-rule:nonzero;fill:rgb(49.411765%,34.117648%,76.078433%);fill-opacity:1;" d="M 14 15 C 14.554688 15 15 14.554688 15 14 L 15 8 L 8 8 L 8 15 Z M 14 15 "/>
<path style=" stroke:none;fill-rule:nonzero;fill:rgb(100%,65.490198%,14.901961%);fill-opacity:1;" d="M 2 15 C 1.445312 15 1 14.554688 1 14 L 1 8 L 8 8 L 8 15 Z M 2 15 "/>
<path style=" stroke:none;fill-rule:nonzero;fill:rgb(25.882354%,64.705884%,96.078432%);fill-opacity:1;" d="M 14 1 C 14.554688 1 15 1.445312 15 2 L 15 8 L 8 8 L 8 1 Z M 14 1 "/>
<path style=" stroke:none;fill-rule:nonzero;fill:rgb(92.54902%,25.098041%,47.843137%);fill-opacity:1;" d="M 2 1 C 1.445312 1 1 1.445312 1 2 L 1 8 L 8 8 L 8 1 Z M 2 1 "/>
<path style=" stroke:none;fill-rule:nonzero;fill:rgb(38.039216%,38.039216%,38.039216%);fill-opacity:1;" d="M 3.5 3 L 12.5 3 C 12.777344 3 13 3.222656 13 3.5 L 13 12.5 C 13 12.777344 12.777344 13 12.5 13 L 3.5 13 C 3.222656 13 3 12.777344 3 12.5 L 3 3.5 C 3 3.222656 3.222656 3 3.5 3 Z M 3.5 3 "/>
<path style=" stroke:none;fill-rule:nonzero;fill:rgb(100%,100%,100%);fill-opacity:0.4;" d="M 3.5 3 C 3.222656 3 3 3.222656 3 3.5 L 3 3.75 C 3 3.472656 3.222656 3.25 3.5 3.25 L 12.5 3.25 C 12.777344 3.25 13 3.472656 13 3.75 L 13 3.5 C 13 3.222656 12.777344 3 12.5 3 Z M 3.5 3 "/>
<path style=" stroke:none;fill-rule:nonzero;fill:rgb(0.784314%,0.784314%,0.784314%);fill-opacity:0.4;" d="M 3.5 13.25 C 3.222656 13.25 3 13.027344 3 12.75 L 3 12.5 C 3 12.777344 3.222656 13 3.5 13 L 12.5 13 C 12.777344 13 13 12.777344 13 12.5 L 13 12.75 C 13 13.027344 12.777344 13.25 12.5 13.25 Z M 3.5 13.25 "/>
<path style=" stroke:none;fill-rule:nonzero;fill:rgb(100%,100%,100%);fill-opacity:0.4;" d="M 2 1 C 1.445312 1 1 1.445312 1 2 L 1 2.25 C 1 1.695312 1.445312 1.25 2 1.25 L 14 1.25 C 14.554688 1.25 15 1.695312 15 2.25 L 15 2 C 15 1.445312 14.554688 1 14 1 Z M 2 1 "/>
<path style=" stroke:none;fill-rule:nonzero;fill:rgb(0%,0%,0%);fill-opacity:0.4;" d="M 2 15 C 1.445312 15 1 14.554688 1 14 L 1 13.75 C 1 14.304688 1.445312 14.75 2 14.75 L 14 14.75 C 14.554688 14.75 15 14.304688 15 13.75 L 15 14 C 15 14.554688 14.554688 15 14 15 Z M 2 15 "/>
<path style=" stroke:none;fill-rule:nonzero;fill:rgb(0%,0%,0%);fill-opacity:0.2;" d="M 1 14 L 1 14.375 C 1 14.929688 1.445312 15.375 2 15.375 L 14 15.375 C 14.554688 15.375 15 14.929688 15 14.375 L 15 14 C 15 14.554688 14.554688 15 14 15 L 2 15 C 1.445312 15 1 14.554688 1 14 Z M 1 14 "/>
<path style=" stroke:none;fill-rule:nonzero;fill:rgb(93.333334%,93.333334%,93.333334%);fill-opacity:1;" d="M 5.75 5.5 L 6.25 5.5 C 6.386719 5.5 6.5 5.613281 6.5 5.75 L 6.5 10.25 C 6.5 10.386719 6.386719 10.5 6.25 10.5 L 5.75 10.5 C 5.613281 10.5 5.5 10.386719 5.5 10.25 L 5.5 5.75 C 5.5 5.613281 5.613281 5.5 5.75 5.5 Z M 5.75 5.5 "/>
<path style=" stroke:none;fill-rule:nonzero;fill:rgb(93.333334%,93.333334%,93.333334%);fill-opacity:1;" d="M 9.75 5.5 C 9.613281 5.5 9.5 5.613281 9.5 5.75 L 9.5 9 C 9.5 9.277344 9.277344 9.5 9 9.5 C 8.722656 9.5 8.5 9.277344 8.5 9 C 8.5 8.863281 8.386719 8.75 8.25 8.75 L 7.75 8.75 C 7.746094 8.75 7.746094 8.75 7.742188 8.75 C 7.609375 8.753906 7.5 8.863281 7.5 9 L 7.5 9.25 C 7.5 9.941406 8.167969 10.5 9 10.5 C 9.832031 10.5 10.5 9.941406 10.5 9.25 L 10.5 5.75 C 10.5 5.613281 10.386719 5.5 10.25 5.5 Z M 9.75 5.5 "/>
<path style=" stroke:none;fill-rule:nonzero;fill:rgb(100%,100%,100%);fill-opacity:0.6;" d="M 5.75 5.5 C 5.613281 5.5 5.5 5.613281 5.5 5.75 L 5.5 6 C 5.5 5.863281 5.613281 5.75 5.75 5.75 L 6.25 5.75 C 6.386719 5.75 6.5 5.863281 6.5 6 L 6.5 5.75 C 6.5 5.613281 6.386719 5.5 6.25 5.5 Z M 5.75 5.5 "/>
<path style=" stroke:none;fill-rule:nonzero;fill:rgb(100%,100%,100%);fill-opacity:0.6;" d="M 9.75 5.5 C 9.613281 5.5 9.5 5.613281 9.5 5.75 L 9.5 6 C 9.5 5.863281 9.613281 5.75 9.75 5.75 L 10.25 5.75 C 10.386719 5.75 10.5 5.863281 10.5 6 L 10.5 5.75 C 10.5 5.613281 10.386719 5.5 10.25 5.5 Z M 7.742188 8.75 C 7.609375 8.753906 7.5 8.863281 7.5 9 L 7.5 9.25 C 7.5 9.113281 7.609375 9.003906 7.742188 9 C 7.746094 9 7.746094 9 7.75 9 L 8.25 9 C 8.386719 9 8.5 9.113281 8.5 9.25 C 8.5 9.527344 8.722656 9.75 9 9.75 C 9.277344 9.75 9.5 9.527344 9.5 9.25 L 9.5 9 C 9.5 9.277344 9.277344 9.5 9 9.5 C 8.722656 9.5 8.5 9.277344 8.5 9 C 8.5 8.863281 8.386719 8.75 8.25 8.75 L 7.75 8.75 C 7.746094 8.75 7.746094 8.75 7.742188 8.75 Z M 7.742188 8.75 "/>
<path style=" stroke:none;fill-rule:nonzero;fill:rgb(0.784314%,0.784314%,0.784314%);fill-opacity:0.4;" d="M 5.75 10.75 C 5.613281 10.75 5.5 10.636719 5.5 10.5 L 5.5 10.25 C 5.5 10.386719 5.613281 10.5 5.75 10.5 L 6.25 10.5 C 6.386719 10.5 6.5 10.386719 6.5 10.25 L 6.5 10.5 C 6.5 10.636719 6.386719 10.75 6.25 10.75 Z M 5.75 10.75 "/>
<path style=" stroke:none;fill-rule:nonzero;fill:rgb(0%,0%,0%);fill-opacity:0.4;" d="M 7.5 9.25 L 7.5 9.496094 C 7.5 10.1875 8.167969 10.746094 9 10.746094 C 9.832031 10.746094 10.5 10.1875 10.5 9.496094 L 10.5 9.25 C 10.5 9.941406 9.832031 10.5 9 10.5 C 8.167969 10.5 7.5 9.941406 7.5 9.25 Z M 7.5 9.25 "/>
<path style=" stroke:none;fill-rule:nonzero;fill:url(#linear0);" d="M 2 1 L 14 1 C 14.550781 1 15 1.449219 15 2 L 15 14 C 15 14.550781 14.550781 15 14 15 L 2 15 C 1.449219 15 1 14.550781 1 14 L 1 2 C 1 1.449219 1.449219 1 2 1 Z M 2 1 "/>
</g>
</svg>
