
<svg xmlns="http://www.w3.org/2000/svg" xmlns:xlink="http://www.w3.org/1999/xlink" width="16" height="16" viewBox="0 0 16 16" version="1.1">
<defs>
<linearGradient id="linear0" gradientUnits="userSpaceOnUse" x1="31.999998" y1="60" x2="31.999998" y2="3.999999" gradientTransform="matrix(0.25,0,0,0.25,0,0)">
<stop offset="0" style="stop-color:rgb(0%,0%,0%);stop-opacity:0.2;"/>
<stop offset="1" style="stop-color:rgb(100%,100%,100%);stop-opacity:0;"/>
</linearGradient>
<linearGradient id="linear1" gradientUnits="userSpaceOnUse" x1="12.170833" y1="-199.125" x2="12.170833" y2="-207.0625" gradientTransform="matrix(0.944882,0,0,0.944882,0.027816,203.150099)">
<stop offset="0" style="stop-color:rgb(0%,0%,0%);stop-opacity:0.2;"/>
<stop offset="1" style="stop-color:rgb(100%,100%,100%);stop-opacity:0;"/>
</linearGradient>
</defs>
<g id="surface1">
<path style=" stroke:none;fill-rule:nonzero;fill:rgb(0%,0%,0%);fill-opacity:0.2;" d="M 2.5 13 L 2.5 13.375 C 2.5 13.929688 2.945312 14.375 3.5 14.375 L 4 14.375 L 4 14 L 3.5 14 C 2.945312 14 2.5 13.554688 2.5 13 Z M 13.5 13 C 13.5 13.554688 13.054688 14 12.5 14 L 7 14 L 4 15 L 4 15.375 L 7 14.375 L 12.5 14.375 C 13.054688 14.375 13.5 13.929688 13.5 13.375 Z M 13.5 13 "/>
<path style=" stroke:none;fill-rule:nonzero;fill:rgb(93.333334%,93.333334%,93.333334%);fill-opacity:1;" d="M 3.5 1 L 12.5 1 C 13.050781 1 13.5 1.449219 13.5 2 L 13.5 13 C 13.5 13.550781 13.050781 14 12.5 14 L 3.5 14 C 2.949219 14 2.5 13.550781 2.5 13 L 2.5 2 C 2.5 1.449219 2.949219 1 3.5 1 Z M 3.5 1 "/>
<path style=" stroke:none;fill-rule:nonzero;fill:rgb(61.960787%,61.960787%,61.960787%);fill-opacity:1;" d="M 4 12.5 L 4 15 L 7 14 Z M 4 12.5 "/>
<path style=" stroke:none;fill-rule:nonzero;fill:rgb(93.333334%,93.333334%,93.333334%);fill-opacity:1;" d="M 3.5 1 L 12.5 1 C 13.050781 1 13.5 1.449219 13.5 2 L 13.5 13 C 13.5 13.550781 13.050781 14 12.5 14 L 3.5 14 C 2.949219 14 2.5 13.550781 2.5 13 L 2.5 2 C 2.5 1.449219 2.949219 1 3.5 1 Z M 3.5 1 "/>
<path style=" stroke:none;fill-rule:nonzero;fill:rgb(100%,100%,100%);fill-opacity:0.8;" d="M 3.5 1.003906 C 2.945312 1.003906 2.5 1.449219 2.5 2.003906 L 2.5 2.25 C 2.5 1.695312 2.945312 1.25 3.5 1.25 L 12.5 1.25 C 13.054688 1.25 13.5 1.695312 13.5 2.25 L 13.5 2.003906 C 13.5 1.449219 13.054688 1.003906 12.5 1.003906 Z M 3.5 1.003906 "/>
<path style=" stroke:none;fill-rule:nonzero;fill:rgb(0%,0%,0%);fill-opacity:0.4;" d="M 2.5 12.742188 L 2.5 13 C 2.5 13.554688 2.945312 14 3.5 14 L 12.5 14 C 13.054688 14 13.5 13.554688 13.5 13 L 13.5 12.742188 C 13.5 13.296875 13.054688 13.742188 12.5 13.742188 L 3.5 13.742188 C 2.945312 13.742188 2.5 13.296875 2.5 12.742188 Z M 2.5 12.742188 "/>
<path style=" stroke:none;fill-rule:nonzero;fill:rgb(25.882354%,64.705884%,96.078432%);fill-opacity:1;" d="M 4.25 2.5 C 4.664062 2.5 5 2.835938 5 3.25 C 5 3.664062 4.664062 4 4.25 4 C 3.835938 4 3.5 3.664062 3.5 3.25 C 3.5 2.835938 3.835938 2.5 4.25 2.5 Z M 4.25 2.5 "/>
<path style=" stroke:none;fill-rule:nonzero;fill:rgb(95.686275%,26.274511%,21.176471%);fill-opacity:1;" d="M 4.25 5 C 4.664062 5 5 5.335938 5 5.75 C 5 6.164062 4.664062 6.5 4.25 6.5 C 3.835938 6.5 3.5 6.164062 3.5 5.75 C 3.5 5.335938 3.835938 5 4.25 5 Z M 4.25 5 "/>
<path style=" stroke:none;fill-rule:nonzero;fill:rgb(36.078432%,41.960785%,75.294119%);fill-opacity:1;" d="M 4.25 7.5 C 4.664062 7.5 5 7.835938 5 8.25 C 5 8.664062 4.664062 9 4.25 9 C 3.835938 9 3.5 8.664062 3.5 8.25 C 3.5 7.835938 3.835938 7.5 4.25 7.5 Z M 4.25 7.5 "/>
<path style=" stroke:none;fill-rule:nonzero;fill:rgb(47.058824%,56.470591%,61.176473%);fill-opacity:1;" d="M 4.25 10 C 4.664062 10 5 10.335938 5 10.75 C 5 11.164062 4.664062 11.5 4.25 11.5 C 3.835938 11.5 3.5 11.164062 3.5 10.75 C 3.5 10.335938 3.835938 10 4.25 10 Z M 4.25 10 "/>
<path style=" stroke:none;fill-rule:nonzero;fill:rgb(25.882354%,64.705884%,96.078432%);fill-opacity:1;" d="M 5.75 3 L 12.25 3 C 12.386719 3 12.5 3.113281 12.5 3.25 C 12.5 3.386719 12.386719 3.5 12.25 3.5 L 5.75 3.5 C 5.613281 3.5 5.5 3.386719 5.5 3.25 C 5.5 3.113281 5.613281 3 5.75 3 Z M 5.75 3 "/>
<path style=" stroke:none;fill-rule:nonzero;fill:rgb(95.686275%,26.274511%,21.176471%);fill-opacity:1;" d="M 5.75 5.5 L 12.25 5.5 C 12.386719 5.5 12.5 5.613281 12.5 5.75 C 12.5 5.886719 12.386719 6 12.25 6 L 5.75 6 C 5.613281 6 5.5 5.886719 5.5 5.75 C 5.5 5.613281 5.613281 5.5 5.75 5.5 Z M 5.75 5.5 "/>
<path style=" stroke:none;fill-rule:nonzero;fill:rgb(36.078432%,41.960785%,75.294119%);fill-opacity:1;" d="M 5.75 8 L 12.25 8 C 12.386719 8 12.5 8.113281 12.5 8.25 C 12.5 8.386719 12.386719 8.5 12.25 8.5 L 5.75 8.5 C 5.613281 8.5 5.5 8.386719 5.5 8.25 C 5.5 8.113281 5.613281 8 5.75 8 Z M 5.75 8 "/>
<path style=" stroke:none;fill-rule:nonzero;fill:rgb(47.058824%,56.470591%,61.176473%);fill-opacity:1;" d="M 5.75 10.5 L 12.25 10.5 C 12.386719 10.5 12.5 10.613281 12.5 10.75 C 12.5 10.886719 12.386719 11 12.25 11 L 5.75 11 C 5.613281 11 5.5 10.886719 5.5 10.75 C 5.5 10.613281 5.613281 10.5 5.75 10.5 Z M 5.75 10.5 "/>
<path style="fill:none;stroke-width:0.529167;stroke-linecap:round;stroke-linejoin:round;stroke:rgb(38.039216%,38.039216%,38.039216%);stroke-opacity:1;stroke-miterlimit:4;" d="M 3.704166 -209.708334 L 4.497916 -208.914584 L 5.688541 -210.369792 " transform="matrix(0.944882,0,0,0.944882,0,203.149617)"/>
<path style=" stroke:none;fill-rule:nonzero;fill:url(#linear0);" d="M 3.5 1 C 2.945312 1 2.5 1.445312 2.5 2 L 2.5 13 C 2.5 13.554688 2.945312 14 3.5 14 L 4 14 L 4 15 L 7 14 L 12.5 14 C 13.054688 14 13.5 13.554688 13.5 13 L 13.5 2 C 13.5 1.445312 13.054688 1 12.5 1 Z M 3.5 1 "/>
<path style=" stroke:none;fill-rule:nonzero;fill:rgb(67.058825%,27.843139%,73.725492%);fill-opacity:1;" d="M 11.484375 7.632812 C 11.242188 7.636719 11.007812 7.664062 10.78125 7.710938 L 10.535156 8.9375 C 10.332031 9.023438 10.140625 9.132812 9.96875 9.261719 L 8.785156 8.863281 C 8.621094 9.046875 8.472656 9.253906 8.34375 9.476562 C 8.214844 9.699219 8.109375 9.929688 8.03125 10.164062 L 8.972656 10.992188 C 8.960938 11.097656 8.953125 11.207031 8.953125 11.316406 C 8.953125 11.425781 8.960938 11.535156 8.972656 11.640625 L 8.03125 12.46875 C 8.109375 12.703125 8.214844 12.933594 8.34375 13.160156 C 8.472656 13.382812 8.621094 13.585938 8.785156 13.773438 L 9.96875 13.371094 C 10.140625 13.503906 10.332031 13.613281 10.535156 13.695312 L 10.78125 14.925781 C 11.023438 14.972656 11.273438 15 11.53125 15 C 11.789062 15 12.042969 14.972656 12.285156 14.925781 L 12.53125 13.695312 C 12.734375 13.613281 12.921875 13.503906 13.09375 13.371094 L 14.28125 13.773438 C 14.445312 13.585938 14.59375 13.382812 14.722656 13.160156 C 14.851562 12.933594 14.953125 12.703125 15.03125 12.46875 L 14.089844 11.640625 C 14.105469 11.535156 14.109375 11.425781 14.109375 11.316406 C 14.109375 11.207031 14.105469 11.097656 14.089844 10.992188 L 15.03125 10.164062 C 14.953125 9.929688 14.851562 9.699219 14.722656 9.476562 C 14.59375 9.253906 14.445312 9.046875 14.28125 8.863281 L 13.09375 9.261719 C 12.921875 9.132812 12.734375 9.023438 12.53125 8.9375 L 12.285156 7.710938 C 12.042969 7.660156 11.789062 7.632812 11.53125 7.632812 C 11.515625 7.632812 11.5 7.632812 11.484375 7.632812 Z M 11.53125 9.84375 C 12.347656 9.84375 13.003906 10.5 13.003906 11.316406 C 13.003906 12.132812 12.347656 12.789062 11.53125 12.789062 C 10.714844 12.789062 10.058594 12.132812 10.058594 11.316406 C 10.058594 10.5 10.714844 9.84375 11.53125 9.84375 Z M 11.53125 9.84375 "/>
<path style=" stroke:none;fill-rule:nonzero;fill:rgb(100%,100%,100%);fill-opacity:0.4;" d="M 11.484375 7.632812 C 11.242188 7.636719 11.007812 7.664062 10.78125 7.710938 L 10.535156 8.9375 C 10.332031 9.023438 10.140625 9.132812 9.96875 9.261719 L 8.785156 8.863281 C 8.621094 9.046875 8.472656 9.25 8.34375 9.476562 C 8.214844 9.699219 8.109375 9.929688 8.03125 10.164062 L 8.097656 10.222656 C 8.167969 10.050781 8.246094 9.882812 8.34375 9.71875 C 8.472656 9.492188 8.621094 9.289062 8.785156 9.105469 L 9.96875 9.503906 C 10.140625 9.375 10.332031 9.265625 10.535156 9.179688 L 10.78125 7.953125 C 11.007812 7.90625 11.242188 7.878906 11.484375 7.875 C 11.5 7.875 11.515625 7.875 11.53125 7.875 C 11.789062 7.875 12.042969 7.902344 12.285156 7.953125 L 12.53125 9.179688 C 12.734375 9.265625 12.921875 9.375 13.09375 9.503906 L 14.28125 9.105469 C 14.445312 9.289062 14.59375 9.492188 14.722656 9.71875 C 14.816406 9.882812 14.898438 10.050781 14.964844 10.222656 L 15.03125 10.164062 C 14.953125 9.929688 14.851562 9.699219 14.722656 9.476562 C 14.59375 9.25 14.445312 9.046875 14.28125 8.863281 L 13.09375 9.261719 C 12.921875 9.132812 12.734375 9.023438 12.53125 8.9375 L 12.285156 7.710938 C 12.042969 7.660156 11.789062 7.632812 11.53125 7.632812 C 11.515625 7.632812 11.5 7.632812 11.484375 7.632812 Z M 8.957031 11.21875 C 8.953125 11.25 8.953125 11.285156 8.953125 11.316406 C 8.953125 11.359375 8.957031 11.398438 8.957031 11.4375 C 8.960938 11.371094 8.964844 11.300781 8.972656 11.234375 Z M 14.109375 11.21875 L 14.089844 11.234375 C 14.097656 11.300781 14.105469 11.371094 14.109375 11.4375 C 14.109375 11.398438 14.109375 11.359375 14.109375 11.316406 C 14.109375 11.285156 14.109375 11.25 14.109375 11.21875 Z M 10.0625 11.4375 C 10.0625 11.476562 10.058594 11.519531 10.058594 11.558594 C 10.058594 12.375 10.714844 13.03125 11.53125 13.03125 C 12.347656 13.03125 13.003906 12.375 13.003906 11.558594 C 13.003906 11.519531 13.003906 11.476562 13 11.4375 C 12.9375 12.195312 12.308594 12.789062 11.53125 12.789062 C 10.757812 12.789062 10.125 12.195312 10.0625 11.4375 Z M 14.109375 11.65625 C 14.105469 11.734375 14.101562 11.808594 14.089844 11.882812 L 14.964844 12.652344 C 14.988281 12.59375 15.011719 12.53125 15.03125 12.46875 Z M 8.957031 11.660156 L 8.03125 12.46875 C 8.050781 12.53125 8.074219 12.59375 8.097656 12.652344 L 8.972656 11.882812 C 8.964844 11.808594 8.957031 11.734375 8.957031 11.660156 Z M 8.957031 11.660156 "/>
<path style=" stroke:none;fill-rule:nonzero;fill:rgb(0%,0%,0%);fill-opacity:0.4;" d="M 11.53125 9.589844 C 10.714844 9.589844 10.058594 10.246094 10.058594 11.0625 C 10.058594 11.105469 10.0625 11.148438 10.0625 11.191406 C 10.128906 10.433594 10.757812 9.84375 11.53125 9.84375 C 12.304688 9.84375 12.9375 10.433594 13 11.191406 C 13.003906 11.148438 13.003906 11.105469 13.003906 11.0625 C 13.003906 10.246094 12.347656 9.589844 11.53125 9.589844 Z M 14.960938 9.972656 L 14.089844 10.738281 C 14.101562 10.816406 14.105469 10.894531 14.109375 10.976562 L 15.03125 10.164062 C 15.011719 10.101562 14.988281 10.035156 14.960938 9.972656 Z M 8.101562 9.972656 C 8.078125 10.035156 8.054688 10.101562 8.03125 10.164062 L 8.957031 10.976562 C 8.957031 10.894531 8.964844 10.816406 8.972656 10.738281 Z M 8.957031 11.191406 C 8.953125 11.230469 8.953125 11.273438 8.953125 11.316406 C 8.953125 11.347656 8.953125 11.375 8.957031 11.40625 L 8.972656 11.390625 C 8.964844 11.324219 8.960938 11.257812 8.957031 11.191406 Z M 14.105469 11.191406 C 14.105469 11.257812 14.097656 11.324219 14.089844 11.390625 L 14.109375 11.40625 C 14.109375 11.375 14.109375 11.347656 14.109375 11.316406 C 14.109375 11.273438 14.109375 11.234375 14.109375 11.191406 Z M 8.101562 12.410156 L 8.03125 12.46875 C 8.109375 12.703125 8.214844 12.933594 8.34375 13.160156 C 8.472656 13.382812 8.621094 13.585938 8.785156 13.769531 L 9.96875 13.371094 C 10.140625 13.503906 10.332031 13.613281 10.535156 13.695312 L 10.78125 14.925781 C 11.023438 14.972656 11.273438 15 11.53125 15 C 11.789062 15 12.042969 14.972656 12.285156 14.925781 L 12.53125 13.695312 C 12.734375 13.613281 12.921875 13.503906 13.09375 13.371094 L 14.28125 13.769531 C 14.445312 13.585938 14.59375 13.382812 14.722656 13.160156 C 14.851562 12.933594 14.953125 12.703125 15.03125 12.46875 L 14.960938 12.410156 C 14.894531 12.578125 14.816406 12.742188 14.722656 12.90625 C 14.59375 13.128906 14.445312 13.332031 14.28125 13.519531 L 13.09375 13.117188 C 12.921875 13.25 12.734375 13.359375 12.53125 13.445312 L 12.285156 14.671875 C 12.042969 14.722656 11.789062 14.746094 11.53125 14.746094 C 11.273438 14.746094 11.023438 14.722656 10.78125 14.671875 L 10.535156 13.445312 C 10.332031 13.359375 10.140625 13.25 9.96875 13.117188 L 8.785156 13.519531 C 8.621094 13.332031 8.472656 13.128906 8.34375 12.90625 C 8.25 12.742188 8.167969 12.578125 8.101562 12.410156 Z M 8.101562 12.410156 "/>
<path style=" stroke:none;fill-rule:nonzero;fill:rgb(0%,0%,0%);fill-opacity:0.2;" d="M 11.53125 9.84375 C 10.714844 9.84375 10.058594 10.5 10.058594 11.316406 C 10.058594 11.378906 10.0625 11.441406 10.070312 11.503906 C 10.160156 10.773438 10.777344 10.214844 11.53125 10.214844 C 12.285156 10.214844 12.902344 10.773438 12.992188 11.503906 C 13 11.441406 13.003906 11.378906 13.003906 11.316406 C 13.003906 10.5 12.347656 9.84375 11.53125 9.84375 Z M 14.925781 10.257812 L 14.089844 10.992188 C 14.105469 11.097656 14.109375 11.207031 14.109375 11.316406 C 14.109375 11.328125 14.109375 11.335938 14.109375 11.347656 L 15.03125 10.535156 C 15 10.441406 14.964844 10.347656 14.925781 10.257812 Z M 8.136719 10.257812 C 8.097656 10.347656 8.0625 10.441406 8.03125 10.535156 L 8.953125 11.347656 C 8.953125 11.335938 8.953125 11.328125 8.953125 11.316406 C 8.953125 11.207031 8.960938 11.097656 8.972656 10.992188 Z M 8.960938 11.503906 C 8.957031 11.554688 8.957031 11.605469 8.953125 11.660156 L 8.972656 11.640625 C 8.96875 11.597656 8.964844 11.550781 8.960938 11.503906 Z M 14.105469 11.503906 C 14.101562 11.550781 14.097656 11.597656 14.089844 11.640625 L 14.109375 11.660156 C 14.109375 11.605469 14.109375 11.554688 14.105469 11.503906 Z M 8.136719 12.75 L 8.03125 12.839844 C 8.109375 13.074219 8.214844 13.304688 8.34375 13.53125 C 8.472656 13.753906 8.621094 13.957031 8.785156 14.144531 L 9.96875 13.742188 C 10.140625 13.875 10.332031 13.984375 10.535156 14.066406 L 10.78125 15.296875 C 11.023438 15.34375 11.273438 15.371094 11.53125 15.371094 C 11.789062 15.371094 12.042969 15.34375 12.285156 15.296875 L 12.53125 14.066406 C 12.734375 13.984375 12.921875 13.875 13.09375 13.742188 L 14.28125 14.144531 C 14.445312 13.957031 14.59375 13.753906 14.722656 13.53125 C 14.851562 13.304688 14.953125 13.074219 15.03125 12.839844 L 14.925781 12.75 C 14.867188 12.886719 14.800781 13.023438 14.722656 13.160156 C 14.59375 13.382812 14.445312 13.585938 14.28125 13.773438 L 13.09375 13.371094 C 12.921875 13.503906 12.734375 13.613281 12.53125 13.695312 L 12.285156 14.925781 C 12.042969 14.972656 11.789062 15 11.53125 15 C 11.273438 15 11.023438 14.972656 10.78125 14.925781 L 10.535156 13.695312 C 10.332031 13.613281 10.140625 13.503906 9.96875 13.371094 L 8.785156 13.773438 C 8.621094 13.585938 8.472656 13.382812 8.34375 13.160156 C 8.265625 13.023438 8.195312 12.886719 8.136719 12.75 Z M 8.136719 12.75 "/>
<path style=" stroke:none;fill-rule:nonzero;fill:url(#linear1);" d="M 11.484375 7.632812 C 11.242188 7.636719 11.007812 7.664062 10.78125 7.710938 L 10.535156 8.9375 C 10.332031 9.023438 10.140625 9.132812 9.96875 9.261719 L 8.785156 8.863281 C 8.621094 9.046875 8.472656 9.253906 8.34375 9.476562 C 8.214844 9.699219 8.109375 9.929688 8.03125 10.164062 L 8.972656 10.992188 C 8.960938 11.097656 8.953125 11.207031 8.953125 11.316406 C 8.953125 11.425781 8.960938 11.535156 8.972656 11.640625 L 8.03125 12.46875 C 8.109375 12.703125 8.214844 12.933594 8.34375 13.160156 C 8.472656 13.382812 8.621094 13.585938 8.785156 13.773438 L 9.96875 13.371094 C 10.140625 13.503906 10.332031 13.613281 10.535156 13.695312 L 10.78125 14.925781 C 11.023438 14.972656 11.273438 15 11.53125 15 C 11.789062 15 12.042969 14.972656 12.285156 14.925781 L 12.53125 13.695312 C 12.734375 13.613281 12.921875 13.503906 13.09375 13.371094 L 14.28125 13.773438 C 14.445312 13.585938 14.59375 13.382812 14.722656 13.160156 C 14.851562 12.933594 14.953125 12.703125 15.03125 12.46875 L 14.089844 11.640625 C 14.105469 11.535156 14.109375 11.425781 14.109375 11.316406 C 14.109375 11.207031 14.105469 11.097656 14.089844 10.992188 L 15.03125 10.164062 C 14.953125 9.929688 14.851562 9.699219 14.722656 9.476562 C 14.59375 9.253906 14.445312 9.046875 14.28125 8.863281 L 13.09375 9.261719 C 12.921875 9.132812 12.734375 9.023438 12.53125 8.9375 L 12.285156 7.710938 C 12.042969 7.660156 11.789062 7.632812 11.53125 7.632812 C 11.515625 7.632812 11.5 7.632812 11.484375 7.632812 Z M 11.53125 9.84375 C 12.347656 9.84375 13.003906 10.5 13.003906 11.316406 C 13.003906 12.132812 12.347656 12.789062 11.53125 12.789062 C 10.714844 12.789062 10.058594 12.132812 10.058594 11.316406 C 10.058594 10.5 10.714844 9.84375 11.53125 9.84375 Z M 11.53125 9.84375 "/>
</g>
</svg>
