
<svg xmlns="http://www.w3.org/2000/svg" xmlns:xlink="http://www.w3.org/1999/xlink" width="16" height="16" viewBox="0 0 16 16" version="1.1">
<defs>
<linearGradient id="linear0" gradientUnits="userSpaceOnUse" x1="6.35" y1="-199.125" x2="6.35" y2="-209.179169" gradientTransform="matrix(0.944882,0,0,0.944882,4.5,198.649617)">
<stop offset="0" style="stop-color:rgb(0%,0%,0%);stop-opacity:0.2;"/>
<stop offset="1" style="stop-color:rgb(100%,100%,100%);stop-opacity:0;"/>
</linearGradient>
<linearGradient id="linear1" gradientUnits="userSpaceOnUse" x1="6.35" y1="-199.125" x2="6.35" y2="-209.179169" gradientTransform="matrix(0.944882,0,0,0.944882,0,203.149617)">
<stop offset="0" style="stop-color:rgb(0%,0%,0%);stop-opacity:0.2;"/>
<stop offset="1" style="stop-color:rgb(100%,100%,100%);stop-opacity:0;"/>
</linearGradient>
</defs>
<g id="surface1">
<path style=" stroke:none;fill-rule:nonzero;fill:rgb(87.843138%,87.843138%,87.843138%);fill-opacity:1;" d="M 6.5 1 L 14 1 C 14.550781 1 15 1.449219 15 2 L 15 9.5 C 15 10.050781 14.550781 10.5 14 10.5 L 6.5 10.5 C 5.949219 10.5 5.5 10.050781 5.5 9.5 L 5.5 2 C 5.5 1.449219 5.949219 1 6.5 1 Z M 6.5 1 "/>
<path style=" stroke:none;fill-rule:nonzero;fill:rgb(100%,100%,100%);fill-opacity:0.6;" d="M 6.5 1 C 5.945312 1 5.5 1.445312 5.5 2 L 5.5 2.25 C 5.5 1.695312 5.945312 1.25 6.5 1.25 L 14 1.25 C 14.554688 1.25 15 1.695312 15 2.25 L 15 2 C 15 1.445312 14.554688 1 14 1 Z M 6.5 1 "/>
<path style=" stroke:none;fill-rule:nonzero;fill:rgb(0.784314%,0.784314%,0.784314%);fill-opacity:0.4;" d="M 6.5 10.5 C 5.945312 10.5 5.5 10.054688 5.5 9.5 L 5.5 9.25 C 5.5 9.804688 5.945312 10.25 6.5 10.25 L 14 10.25 C 14.554688 10.25 15 9.804688 15 9.25 L 15 9.5 C 15 10.054688 14.554688 10.5 14 10.5 Z M 6.5 10.5 "/>
<path style=" stroke:none;fill-rule:nonzero;fill:rgb(0%,0%,0%);fill-opacity:0.2;" d="M 5.5 9.5 L 5.5 9.875 C 5.5 10.429688 5.945312 10.875 6.5 10.875 L 14 10.875 C 14.554688 10.875 15 10.429688 15 9.875 L 15 9.5 C 15 10.054688 14.554688 10.5 14 10.5 L 6.5 10.5 C 5.945312 10.5 5.5 10.054688 5.5 9.5 Z M 5.5 9.5 "/>
<path style=" stroke:none;fill-rule:nonzero;fill:rgb(92.54902%,25.098041%,47.843137%);fill-opacity:1;" d="M 9.921875 3 C 9.757812 2.992188 9.617188 3.113281 9.597656 3.273438 C 9.566406 3.457031 9.542969 3.636719 9.523438 3.816406 C 9.230469 3.816406 8.972656 3.789062 8.667969 3.753906 C 8.554688 3.738281 8.441406 3.785156 8.371094 3.875 C 8.300781 3.96875 8.285156 4.089844 8.332031 4.195312 C 8.378906 4.300781 8.476562 4.375 8.589844 4.386719 C 8.890625 4.421875 9.164062 4.449219 9.472656 4.449219 C 9.460938 4.679688 9.460938 4.90625 9.476562 5.128906 C 8.605469 5.480469 8.199219 6.242188 8.347656 6.863281 C 8.425781 7.203125 8.746094 7.496094 9.140625 7.5 C 9.453125 7.503906 9.785156 7.375 10.152344 7.105469 C 10.273438 7.191406 10.4375 7.183594 10.550781 7.085938 C 10.664062 6.984375 10.691406 6.820312 10.617188 6.691406 C 10.882812 6.414062 11.097656 6.15625 11.269531 5.882812 C 11.355469 5.945312 11.417969 6.007812 11.460938 6.0625 C 11.558594 6.183594 11.566406 6.261719 11.554688 6.34375 C 11.53125 6.507812 11.304688 6.75 10.980469 6.863281 C 10.871094 6.898438 10.789062 6.992188 10.765625 7.105469 C 10.746094 7.21875 10.785156 7.332031 10.871094 7.410156 C 10.960938 7.484375 11.082031 7.503906 11.1875 7.464844 C 11.671875 7.296875 12.109375 6.953125 12.1875 6.441406 C 12.226562 6.183594 12.148438 5.902344 11.964844 5.667969 C 11.863281 5.539062 11.730469 5.421875 11.570312 5.3125 C 11.578125 5.292969 11.585938 5.273438 11.59375 5.253906 C 11.636719 5.15625 11.625 5.039062 11.5625 4.953125 C 11.5 4.863281 11.398438 4.808594 11.289062 4.8125 C 11.160156 4.820312 11.046875 4.898438 11 5.019531 C 11 5.019531 11 5.023438 11 5.023438 C 10.71875 4.9375 10.457031 4.90625 10.105469 4.957031 C 10.097656 4.785156 10.101562 4.605469 10.109375 4.421875 C 10.523438 4.382812 11.019531 4.304688 11.683594 4.167969 C 11.847656 4.136719 11.960938 3.984375 11.941406 3.816406 C 11.921875 3.652344 11.777344 3.527344 11.609375 3.535156 C 11.589844 3.535156 11.574219 3.539062 11.554688 3.542969 C 10.964844 3.664062 10.527344 3.738281 10.167969 3.777344 C 10.1875 3.644531 10.203125 3.511719 10.226562 3.371094 C 10.242188 3.28125 10.214844 3.1875 10.160156 3.117188 C 10.101562 3.046875 10.015625 3.003906 9.921875 3 Z M 10.425781 5.554688 C 10.433594 5.554688 10.441406 5.554688 10.449219 5.554688 C 10.53125 5.554688 10.609375 5.574219 10.695312 5.597656 C 10.589844 5.757812 10.460938 5.914062 10.308594 6.085938 C 10.25 5.925781 10.207031 5.761719 10.171875 5.585938 C 10.273438 5.566406 10.351562 5.554688 10.425781 5.554688 Z M 9.5625 5.792969 C 9.621094 6.058594 9.699219 6.3125 9.8125 6.558594 C 9.5 6.792969 9.265625 6.863281 9.148438 6.863281 C 9.007812 6.859375 8.996094 6.832031 8.96875 6.71875 C 8.921875 6.523438 9.058594 6.070312 9.5625 5.792969 Z M 9.5625 5.792969 "/>
<path style=" stroke:none;fill-rule:nonzero;fill:rgb(100%,100%,100%);fill-opacity:0.4;" d="M 9.894531 3 C 9.742188 3.007812 9.617188 3.121094 9.59375 3.273438 C 9.566406 3.457031 9.542969 3.636719 9.523438 3.816406 C 9.230469 3.816406 8.972656 3.789062 8.667969 3.753906 C 8.554688 3.738281 8.441406 3.785156 8.371094 3.875 C 8.300781 3.96875 8.285156 4.089844 8.332031 4.195312 C 8.34375 4.171875 8.355469 4.148438 8.371094 4.125 C 8.441406 4.035156 8.554688 3.988281 8.667969 4.003906 C 8.972656 4.039062 9.230469 4.066406 9.523438 4.066406 C 9.542969 3.886719 9.566406 3.707031 9.59375 3.523438 C 9.617188 3.359375 9.757812 3.242188 9.921875 3.25 C 10.015625 3.253906 10.101562 3.296875 10.160156 3.367188 C 10.183594 3.394531 10.199219 3.429688 10.210938 3.464844 C 10.21875 3.433594 10.222656 3.402344 10.226562 3.371094 C 10.242188 3.28125 10.214844 3.1875 10.160156 3.117188 C 10.101562 3.046875 10.015625 3.003906 9.921875 3 C 9.914062 3 9.902344 3 9.894531 3 Z M 11.609375 3.535156 C 11.589844 3.535156 11.574219 3.539062 11.554688 3.542969 C 10.980469 3.660156 10.554688 3.734375 10.203125 3.773438 C 10.191406 3.859375 10.179688 3.945312 10.167969 4.027344 C 10.527344 3.988281 10.964844 3.914062 11.554688 3.792969 C 11.574219 3.789062 11.589844 3.785156 11.609375 3.785156 C 11.746094 3.78125 11.867188 3.859375 11.917969 3.980469 C 11.9375 3.929688 11.945312 3.875 11.941406 3.816406 C 11.921875 3.652344 11.777344 3.527344 11.609375 3.535156 Z M 9.464844 4.699219 C 9.464844 4.761719 9.464844 4.824219 9.464844 4.886719 C 9.464844 4.824219 9.46875 4.761719 9.472656 4.699219 C 9.46875 4.699219 9.46875 4.699219 9.464844 4.699219 Z M 11.289062 4.8125 C 11.160156 4.820312 11.046875 4.898438 11 5.019531 C 11 5.019531 11 5.023438 11 5.023438 C 10.71875 4.9375 10.457031 4.90625 10.105469 4.960938 C 10.105469 4.9375 10.105469 4.917969 10.101562 4.894531 C 10.101562 5 10.101562 5.105469 10.105469 5.210938 C 10.457031 5.15625 10.71875 5.1875 11 5.273438 C 11 5.273438 11 5.269531 11 5.269531 C 11.046875 5.148438 11.160156 5.070312 11.289062 5.0625 C 11.398438 5.058594 11.5 5.113281 11.5625 5.203125 C 11.574219 5.21875 11.585938 5.238281 11.59375 5.257812 C 11.59375 5.257812 11.59375 5.257812 11.59375 5.253906 C 11.636719 5.15625 11.625 5.039062 11.5625 4.953125 C 11.5 4.863281 11.398438 4.808594 11.289062 4.8125 Z M 9.464844 5.132812 C 8.660156 5.460938 8.257812 6.140625 8.324219 6.730469 C 8.378906 6.207031 8.777344 5.660156 9.476562 5.378906 C 9.46875 5.296875 9.46875 5.214844 9.464844 5.132812 Z M 11.617188 5.347656 C 11.621094 5.398438 11.617188 5.453125 11.59375 5.503906 C 11.585938 5.523438 11.578125 5.542969 11.570312 5.5625 C 11.730469 5.671875 11.863281 5.789062 11.960938 5.917969 C 12.085938 6.074219 12.164062 6.253906 12.1875 6.429688 C 12.222656 6.175781 12.144531 5.898438 11.960938 5.667969 C 11.871094 5.550781 11.757812 5.445312 11.617188 5.347656 Z M 10.539062 5.8125 C 10.46875 5.902344 10.394531 5.992188 10.308594 6.085938 C 10.277344 6 10.25 5.914062 10.226562 5.828125 C 10.210938 5.828125 10.191406 5.832031 10.171875 5.835938 C 10.207031 6.011719 10.25 6.175781 10.308594 6.335938 C 10.460938 6.164062 10.589844 6.007812 10.695312 5.847656 C 10.640625 5.832031 10.589844 5.820312 10.539062 5.8125 Z M 11.53125 6.421875 C 11.460938 6.578125 11.257812 6.765625 10.980469 6.863281 C 10.871094 6.898438 10.789062 6.992188 10.765625 7.105469 C 10.753906 7.167969 10.761719 7.234375 10.785156 7.292969 C 10.824219 7.207031 10.890625 7.140625 10.980469 7.113281 C 11.304688 7 11.53125 6.757812 11.554688 6.59375 C 11.5625 6.539062 11.5625 6.488281 11.53125 6.421875 Z M 9.734375 6.617188 C 9.457031 6.804688 9.253906 6.863281 9.148438 6.863281 C 9.023438 6.859375 9 6.839844 8.976562 6.753906 C 8.957031 6.839844 8.953125 6.914062 8.96875 6.96875 C 8.996094 7.082031 9.007812 7.109375 9.148438 7.113281 C 9.265625 7.113281 9.5 7.042969 9.8125 6.808594 C 9.785156 6.746094 9.757812 6.679688 9.734375 6.617188 Z M 10.652344 6.902344 C 10.640625 6.917969 10.628906 6.929688 10.617188 6.941406 C 10.625 6.953125 10.628906 6.960938 10.632812 6.972656 C 10.640625 6.949219 10.648438 6.925781 10.652344 6.902344 Z M 10.652344 6.902344 "/>
<path style=" stroke:none;fill-rule:nonzero;fill:rgb(0%,0%,0%);fill-opacity:0.4;" d="M 10.210938 3.472656 C 10.195312 3.578125 10.183594 3.679688 10.167969 3.78125 C 10.179688 3.777344 10.195312 3.777344 10.203125 3.777344 C 10.210938 3.726562 10.21875 3.679688 10.226562 3.632812 C 10.234375 3.578125 10.230469 3.523438 10.210938 3.472656 Z M 11.914062 3.984375 C 11.875 4.078125 11.789062 4.152344 11.683594 4.171875 C 11.019531 4.304688 10.523438 4.382812 10.109375 4.421875 C 10.101562 4.585938 10.101562 4.746094 10.101562 4.902344 C 10.105469 4.828125 10.109375 4.757812 10.109375 4.679688 C 10.523438 4.644531 11.019531 4.566406 11.683594 4.429688 C 11.847656 4.398438 11.960938 4.246094 11.941406 4.078125 C 11.9375 4.046875 11.925781 4.015625 11.914062 3.984375 Z M 8.335938 4.199219 C 8.296875 4.28125 8.296875 4.375 8.332031 4.457031 C 8.378906 4.5625 8.476562 4.636719 8.59375 4.648438 C 8.890625 4.683594 9.160156 4.710938 9.464844 4.710938 C 9.464844 4.625 9.46875 4.539062 9.472656 4.453125 C 9.164062 4.449219 8.890625 4.425781 8.59375 4.386719 C 8.476562 4.375 8.378906 4.304688 8.335938 4.199219 Z M 9.464844 4.894531 C 9.464844 4.972656 9.464844 5.054688 9.464844 5.132812 C 9.46875 5.132812 9.472656 5.128906 9.476562 5.128906 C 9.46875 5.050781 9.46875 4.972656 9.464844 4.894531 Z M 11.589844 5.265625 C 11.585938 5.28125 11.578125 5.296875 11.570312 5.316406 C 11.585938 5.324219 11.601562 5.335938 11.617188 5.347656 C 11.609375 5.320312 11.601562 5.292969 11.589844 5.265625 Z M 10.421875 5.554688 L 10.421875 5.558594 C 10.351562 5.558594 10.273438 5.570312 10.171875 5.589844 C 10.1875 5.675781 10.207031 5.757812 10.230469 5.835938 C 10.304688 5.824219 10.367188 5.816406 10.421875 5.816406 L 10.449219 5.816406 C 10.476562 5.816406 10.503906 5.816406 10.53125 5.820312 C 10.59375 5.746094 10.644531 5.671875 10.695312 5.601562 C 10.609375 5.574219 10.53125 5.558594 10.449219 5.554688 Z M 9.5625 5.792969 C 9.058594 6.070312 8.921875 6.527344 8.96875 6.71875 C 8.96875 6.734375 8.972656 6.746094 8.976562 6.757812 C 9.03125 6.539062 9.203125 6.25 9.5625 6.054688 C 9.605469 6.246094 9.660156 6.4375 9.730469 6.621094 C 9.757812 6.601562 9.785156 6.582031 9.8125 6.5625 C 9.699219 6.316406 9.621094 6.058594 9.5625 5.792969 Z M 11.269531 5.886719 C 11.09375 6.15625 10.882812 6.417969 10.617188 6.695312 C 10.65625 6.765625 10.667969 6.84375 10.652344 6.917969 C 10.898438 6.652344 11.101562 6.402344 11.269531 6.144531 C 11.351562 6.207031 11.417969 6.269531 11.460938 6.320312 C 11.492188 6.363281 11.515625 6.394531 11.53125 6.429688 C 11.542969 6.398438 11.550781 6.371094 11.554688 6.347656 C 11.566406 6.265625 11.558594 6.183594 11.460938 6.0625 C 11.417969 6.007812 11.351562 5.949219 11.269531 5.886719 Z M 12.1875 6.4375 C 12.1875 6.441406 12.1875 6.441406 12.1875 6.441406 C 12.109375 6.953125 11.671875 7.300781 11.1875 7.46875 C 11.082031 7.507812 10.960938 7.484375 10.871094 7.410156 C 10.835938 7.378906 10.808594 7.339844 10.789062 7.296875 C 10.777344 7.320312 10.769531 7.34375 10.765625 7.367188 C 10.746094 7.480469 10.785156 7.59375 10.871094 7.671875 C 10.960938 7.746094 11.082031 7.765625 11.1875 7.726562 C 11.671875 7.558594 12.109375 7.214844 12.1875 6.703125 C 12.199219 6.617188 12.199219 6.527344 12.1875 6.4375 Z M 8.324219 6.738281 C 8.308594 6.871094 8.316406 7 8.347656 7.125 C 8.425781 7.464844 8.746094 7.757812 9.140625 7.761719 C 9.453125 7.765625 9.785156 7.636719 10.152344 7.367188 C 10.273438 7.453125 10.4375 7.445312 10.550781 7.347656 C 10.65625 7.253906 10.6875 7.105469 10.632812 6.980469 C 10.613281 7.019531 10.585938 7.058594 10.550781 7.085938 C 10.4375 7.1875 10.273438 7.195312 10.152344 7.109375 C 9.785156 7.378906 9.453125 7.507812 9.140625 7.503906 C 8.746094 7.496094 8.425781 7.207031 8.347656 6.867188 C 8.335938 6.824219 8.328125 6.78125 8.324219 6.738281 Z M 8.324219 6.738281 "/>
<path style=" stroke:none;fill-rule:nonzero;fill:url(#linear0);" d="M 6.5 1 L 14 1 C 14.550781 1 15 1.449219 15 2 L 15 9.5 C 15 10.050781 14.550781 10.5 14 10.5 L 6.5 10.5 C 5.949219 10.5 5.5 10.050781 5.5 9.5 L 5.5 2 C 5.5 1.449219 5.949219 1 6.5 1 Z M 6.5 1 "/>
<path style=" stroke:none;fill-rule:nonzero;fill:rgb(49.411765%,34.117648%,76.078433%);fill-opacity:1;" d="M 2 5.5 L 9.5 5.5 C 10.050781 5.5 10.5 5.949219 10.5 6.5 L 10.5 14 C 10.5 14.550781 10.050781 15 9.5 15 L 2 15 C 1.449219 15 1 14.550781 1 14 L 1 6.5 C 1 5.949219 1.449219 5.5 2 5.5 Z M 2 5.5 "/>
<path style=" stroke:none;fill-rule:nonzero;fill:rgb(100%,100%,100%);fill-opacity:0.4;" d="M 2 5.5 C 1.445312 5.5 1 5.945312 1 6.5 L 1 6.75 C 1 6.195312 1.445312 5.75 2 5.75 L 9.5 5.75 C 10.054688 5.75 10.5 6.195312 10.5 6.75 L 10.5 6.5 C 10.5 5.945312 10.054688 5.5 9.5 5.5 Z M 2 5.5 "/>
<path style=" stroke:none;fill-rule:nonzero;fill:rgb(0.784314%,0.784314%,0.784314%);fill-opacity:0.4;" d="M 2 15 C 1.445312 15 1 14.554688 1 14 L 1 13.75 C 1 14.304688 1.445312 14.75 2 14.75 L 9.5 14.75 C 10.054688 14.75 10.5 14.304688 10.5 13.75 L 10.5 14 C 10.5 14.554688 10.054688 15 9.5 15 Z M 2 15 "/>
<path style=" stroke:none;fill-rule:nonzero;fill:rgb(0%,0%,0%);fill-opacity:0.2;" d="M 1 14 L 1 14.375 C 1 14.929688 1.445312 15.375 2 15.375 L 9.5 15.375 C 10.054688 15.375 10.5 14.929688 10.5 14.375 L 10.5 14 C 10.5 14.554688 10.054688 15 9.5 15 L 2 15 C 1.445312 15 1 14.554688 1 14 Z M 1 14 "/>
<path style=" stroke:none;fill-rule:nonzero;fill:rgb(93.333334%,93.333334%,93.333334%);fill-opacity:1;" d="M 5.75 8 C 4.917969 8 4.25 8.667969 4.25 9.5 L 4.25 12.117188 C 4.25 12.121094 4.25 12.121094 4.25 12.125 L 4.25 12.375 C 4.25 12.445312 4.304688 12.5 4.375 12.5 L 4.625 12.5 C 4.695312 12.5 4.75 12.445312 4.75 12.375 L 4.75 12.125 C 4.75 12.125 4.75 12.121094 4.75 12.117188 L 4.75 11.25 L 6.75 11.25 L 6.75 12.117188 C 6.75 12.121094 6.75 12.121094 6.75 12.125 L 6.75 12.375 C 6.75 12.445312 6.804688 12.5 6.875 12.5 L 7.125 12.5 C 7.195312 12.5 7.25 12.445312 7.25 12.375 L 7.25 12.125 C 7.25 12.125 7.25 12.121094 7.25 12.117188 L 7.25 9.5 C 7.25 8.667969 6.582031 8 5.75 8 Z M 5.75 8.5 C 6.304688 8.5 6.75 8.945312 6.75 9.5 L 6.75 10.75 L 4.75 10.75 L 4.75 9.5 C 4.75 8.945312 5.195312 8.5 5.75 8.5 Z M 5.75 8.5 "/>
<path style=" stroke:none;fill-rule:nonzero;fill:rgb(100%,100%,100%);fill-opacity:0.8;" d="M 5.75 8 C 4.917969 8 4.25 8.667969 4.25 9.5 L 4.25 9.75 C 4.25 8.917969 4.917969 8.25 5.75 8.25 C 6.582031 8.25 7.25 8.917969 7.25 9.75 L 7.25 9.5 C 7.25 8.667969 6.582031 8 5.75 8 Z M 4.75 10.75 L 4.75 11 L 6.75 11 L 6.75 10.75 Z M 4.75 10.75 "/>
<path style=" stroke:none;fill-rule:nonzero;fill:rgb(0%,0%,0%);fill-opacity:0.4;" d="M 5.75 8.5 C 5.195312 8.5 4.75 8.945312 4.75 9.5 L 4.75 9.75 C 4.75 9.195312 5.195312 8.75 5.75 8.75 C 6.304688 8.75 6.75 9.195312 6.75 9.75 L 6.75 9.5 C 6.75 8.945312 6.304688 8.5 5.75 8.5 Z M 4.75 11.25 L 4.75 11.5 L 6.75 11.5 L 6.75 11.25 Z M 4.25 12.375 L 4.25 12.625 C 4.25 12.695312 4.304688 12.75 4.375 12.75 L 4.625 12.75 C 4.695312 12.75 4.75 12.695312 4.75 12.625 L 4.75 12.375 C 4.75 12.445312 4.695312 12.5 4.625 12.5 L 4.375 12.5 C 4.304688 12.5 4.25 12.445312 4.25 12.375 Z M 6.75 12.375 L 6.75 12.625 C 6.75 12.695312 6.804688 12.75 6.875 12.75 L 7.125 12.75 C 7.195312 12.75 7.25 12.695312 7.25 12.625 L 7.25 12.375 C 7.25 12.445312 7.195312 12.5 7.125 12.5 L 6.875 12.5 C 6.804688 12.5 6.75 12.445312 6.75 12.375 Z M 6.75 12.375 "/>
<path style=" stroke:none;fill-rule:nonzero;fill:url(#linear1);" d="M 2 5.5 L 9.5 5.5 C 10.050781 5.5 10.5 5.949219 10.5 6.5 L 10.5 14 C 10.5 14.550781 10.050781 15 9.5 15 L 2 15 C 1.449219 15 1 14.550781 1 14 L 1 6.5 C 1 5.949219 1.449219 5.5 2 5.5 Z M 2 5.5 "/>
</g>
</svg>
