
<svg xmlns="http://www.w3.org/2000/svg" xmlns:xlink="http://www.w3.org/1999/xlink" width="24" height="24" viewBox="0 0 24 24" version="1.1">
<defs>
<linearGradient id="linear0" gradientUnits="userSpaceOnUse" x1="32" y1="59.999996" x2="32" y2="4" gradientTransform="matrix(0.375,0,0,0.375,0,0.000000000000042633)">
<stop offset="0" style="stop-color:rgb(0%,0%,0%);stop-opacity:0.2;"/>
<stop offset="1" style="stop-color:rgb(100%,100%,100%);stop-opacity:0;"/>
</linearGradient>
</defs>
<g id="surface1">
<path style=" stroke:none;fill-rule:nonzero;fill:rgb(0%,0%,0%);fill-opacity:0.4;" d="M 13.175781 6.816406 L 13.132812 6.824219 C 13.316406 7.738281 13.410156 8.664062 13.503906 9.476562 C 13.597656 10.289062 13.679688 10.980469 13.90625 11.496094 C 14.023438 11.753906 14.191406 11.992188 14.464844 12.109375 C 14.738281 12.230469 15.054688 12.183594 15.347656 12.042969 C 15.933594 11.765625 16.589844 11.128906 17.539062 9.992188 L 17.421875 9.890625 C 16.535156 10.9375 15.910156 11.539062 15.347656 11.804688 C 15.054688 11.945312 14.738281 11.988281 14.464844 11.871094 C 14.191406 11.75 14.023438 11.515625 13.90625 11.257812 C 13.679688 10.738281 13.597656 10.046875 13.503906 9.234375 C 13.417969 8.492188 13.328125 7.652344 13.175781 6.816406 Z M 19.5 9.886719 L 19.5 10.125 C 20.203125 10.125 20.507812 10.269531 20.605469 10.375 C 20.640625 10.417969 20.664062 10.472656 20.675781 10.539062 C 20.703125 10.335938 20.675781 10.21875 20.605469 10.136719 C 20.507812 10.03125 20.203125 9.886719 19.5 9.886719 Z M 21.425781 10.539062 C 21.417969 10.667969 21.394531 10.792969 21.363281 10.914062 C 21.257812 11.339844 21.066406 11.765625 20.90625 12.179688 C 20.746094 12.589844 20.625 12.980469 20.625 13.261719 L 19.890625 13.261719 C 19.882812 13.339844 19.875 13.421875 19.875 13.5 L 20.625 13.5 C 20.625 13.21875 20.746094 12.828125 20.90625 12.417969 C 21.066406 12.007812 21.257812 11.578125 21.363281 11.152344 C 21.414062 10.957031 21.441406 10.746094 21.425781 10.539062 Z M 3.761719 10.566406 C 3.4375 10.566406 3.078125 10.722656 2.796875 11.007812 C 2.492188 11.320312 2.292969 11.765625 2.328125 12.292969 C 2.355469 11.871094 2.539062 11.511719 2.796875 11.25 C 3.144531 10.898438 3.605469 10.742188 3.976562 10.832031 C 4.351562 10.921875 4.714844 11.230469 4.882812 12.074219 L 5.617188 11.925781 C 5.601562 11.84375 5.578125 11.773438 5.558594 11.695312 L 4.882812 11.835938 C 4.714844 10.992188 4.351562 10.679688 3.976562 10.589844 C 3.90625 10.574219 3.835938 10.566406 3.761719 10.566406 Z M 1.578125 12.339844 C 1.570312 12.511719 1.578125 12.6875 1.609375 12.867188 C 1.761719 13.722656 2.351562 14.628906 3.535156 15.457031 L 3.964844 14.84375 C 3.925781 14.816406 3.890625 14.789062 3.855469 14.761719 L 3.535156 15.21875 C 2.351562 14.390625 1.761719 13.484375 1.609375 12.625 C 1.59375 12.53125 1.585938 12.433594 1.578125 12.339844 Z M 1.578125 12.339844 "/>
<path style=" stroke:none;fill-rule:nonzero;fill:rgb(38.039216%,38.039216%,38.039216%);fill-opacity:1;" d="M 13.867188 6.675781 L 13.132812 6.824219 C 13.316406 7.738281 13.410156 8.664062 13.503906 9.476562 C 13.597656 10.289062 13.679688 10.980469 13.90625 11.496094 C 14.023438 11.753906 14.191406 11.992188 14.464844 12.109375 C 14.738281 12.230469 15.054688 12.183594 15.347656 12.042969 C 15.933594 11.765625 16.589844 11.128906 17.539062 9.992188 L 16.960938 9.507812 C 16.035156 10.617188 15.378906 11.203125 15.027344 11.367188 C 14.851562 11.453125 14.792969 11.433594 14.761719 11.421875 C 14.730469 11.410156 14.667969 11.355469 14.59375 11.191406 C 14.449219 10.863281 14.339844 10.195312 14.246094 9.390625 C 14.15625 8.585938 14.0625 7.636719 13.867188 6.675781 Z M 19.5 9.375 L 19.5 10.125 C 20.203125 10.125 20.507812 10.269531 20.605469 10.375 C 20.699219 10.480469 20.71875 10.644531 20.636719 10.96875 C 20.554688 11.296875 20.375 11.710938 20.207031 12.144531 C 20.035156 12.578125 19.875 13.03125 19.875 13.5 L 20.625 13.5 C 20.625 13.21875 20.746094 12.828125 20.90625 12.417969 C 21.066406 12.007812 21.257812 11.578125 21.363281 11.152344 C 21.472656 10.726562 21.488281 10.238281 21.160156 9.875 C 20.832031 9.511719 20.296875 9.375 19.5 9.375 Z M 3.769531 10.054688 C 3.214844 10.050781 2.671875 10.308594 2.265625 10.722656 C 1.765625 11.234375 1.460938 12.011719 1.609375 12.867188 C 1.761719 13.722656 2.351562 14.628906 3.535156 15.457031 L 3.964844 14.84375 C 2.894531 14.09375 2.457031 13.351562 2.351562 12.738281 C 2.242188 12.121094 2.453125 11.601562 2.796875 11.25 C 3.144531 10.898438 3.605469 10.742188 3.976562 10.832031 C 4.351562 10.921875 4.714844 11.230469 4.882812 12.074219 L 5.617188 11.925781 C 5.410156 10.894531 4.835938 10.265625 4.15625 10.101562 C 4.027344 10.070312 3.898438 10.054688 3.769531 10.054688 Z M 3.769531 10.054688 "/>
<path style=" stroke:none;fill-rule:nonzero;fill:rgb(100%,100%,100%);fill-opacity:0.4;" d="M 13.867188 6.675781 L 13.132812 6.824219 C 13.148438 6.90625 13.160156 6.992188 13.175781 7.074219 L 13.867188 6.9375 C 14.0625 7.898438 14.15625 8.847656 14.246094 9.648438 C 14.339844 10.453125 14.449219 11.125 14.59375 11.453125 C 14.667969 11.617188 14.730469 11.667969 14.761719 11.683594 C 14.792969 11.695312 14.851562 11.714844 15.027344 11.628906 C 15.378906 11.460938 16.035156 10.878906 16.960938 9.769531 L 17.410156 10.144531 C 17.453125 10.089844 17.496094 10.042969 17.539062 9.992188 L 16.960938 9.507812 C 16.035156 10.617188 15.378906 11.203125 15.027344 11.367188 C 14.851562 11.453125 14.792969 11.433594 14.761719 11.421875 C 14.730469 11.410156 14.667969 11.355469 14.59375 11.191406 C 14.449219 10.863281 14.339844 10.195312 14.246094 9.390625 C 14.15625 8.585938 14.0625 7.636719 13.867188 6.675781 Z M 19.5 9.375 L 19.5 9.636719 C 20.296875 9.636719 20.832031 9.773438 21.160156 10.136719 C 21.328125 10.324219 21.40625 10.542969 21.425781 10.773438 C 21.449219 10.453125 21.394531 10.132812 21.160156 9.875 C 20.832031 9.511719 20.296875 9.375 19.5 9.375 Z M 3.769531 10.054688 C 3.214844 10.050781 2.671875 10.308594 2.265625 10.722656 C 1.824219 11.171875 1.539062 11.828125 1.578125 12.558594 C 1.609375 11.933594 1.878906 11.378906 2.265625 10.984375 C 2.671875 10.570312 3.214844 10.308594 3.769531 10.316406 C 3.898438 10.316406 4.027344 10.332031 4.15625 10.363281 C 4.78125 10.511719 5.3125 11.054688 5.558594 11.9375 L 5.617188 11.925781 C 5.410156 10.894531 4.835938 10.265625 4.15625 10.101562 C 4.027344 10.070312 3.898438 10.054688 3.769531 10.054688 Z M 20.675781 10.777344 C 20.667969 10.835938 20.65625 10.898438 20.636719 10.96875 C 20.554688 11.296875 20.375 11.710938 20.207031 12.144531 C 20.035156 12.578125 19.875 13.03125 19.875 13.5 L 19.890625 13.5 C 19.9375 13.125 20.066406 12.757812 20.207031 12.40625 C 20.375 11.972656 20.554688 11.554688 20.636719 11.230469 C 20.6875 11.023438 20.699219 10.878906 20.675781 10.777344 Z M 2.328125 12.539062 C 2.316406 12.683594 2.324219 12.835938 2.351562 12.996094 C 2.453125 13.589844 2.863281 14.296875 3.84375 15.015625 L 3.964844 14.84375 C 2.894531 14.09375 2.457031 13.351562 2.351562 12.738281 C 2.339844 12.667969 2.332031 12.605469 2.328125 12.539062 Z M 2.328125 12.539062 "/>
<path style=" stroke:none;fill-rule:nonzero;fill:rgb(61.960787%,61.960787%,61.960787%);fill-opacity:0.996078;" d="M 16.539062 6.160156 L 19.191406 8.25 L 18.726562 8.839844 L 16.074219 6.75 Z M 16.539062 6.160156 "/>
<path style=" stroke:none;fill-rule:nonzero;fill:rgb(100%,100%,100%);fill-opacity:0.4;" d="M 16.539062 6.160156 L 16.074219 6.75 L 16.144531 6.808594 L 16.539062 6.308594 L 19.117188 8.339844 L 19.191406 8.25 Z M 16.539062 6.160156 "/>
<path style=" stroke:none;fill-rule:nonzero;fill:rgb(0%,0%,0%);fill-opacity:0.4;" d="M 16.191406 6.601562 L 16.074219 6.75 L 18.726562 8.839844 L 19.191406 8.25 L 19.074219 8.15625 L 18.726562 8.597656 Z M 16.191406 6.601562 "/>
<path style=" stroke:none;fill-rule:nonzero;fill:rgb(74.117649%,74.117649%,74.117649%);fill-opacity:1;" d="M 13.710938 3.695312 L 16.65625 6.015625 C 16.738281 6.078125 16.75 6.195312 16.6875 6.277344 L 16.222656 6.867188 C 16.160156 6.949219 16.039062 6.960938 15.960938 6.898438 L 13.011719 4.578125 C 12.933594 4.511719 12.917969 4.394531 12.980469 4.3125 L 13.445312 3.726562 C 13.511719 3.644531 13.628906 3.628906 13.710938 3.695312 Z M 13.710938 3.695312 "/>
<path style=" stroke:none;fill-rule:nonzero;fill:rgb(100%,100%,100%);fill-opacity:0.4;" d="M 13.589844 3.652344 C 13.535156 3.65625 13.484375 3.679688 13.445312 3.722656 L 12.980469 4.3125 C 12.9375 4.371094 12.929688 4.441406 12.957031 4.503906 C 12.964844 4.488281 12.972656 4.472656 12.980469 4.460938 L 13.445312 3.871094 C 13.511719 3.789062 13.628906 3.777344 13.710938 3.839844 L 16.65625 6.160156 C 16.679688 6.179688 16.699219 6.207031 16.710938 6.234375 C 16.742188 6.15625 16.722656 6.066406 16.65625 6.015625 L 13.710938 3.695312 C 13.671875 3.664062 13.632812 3.652344 13.589844 3.652344 Z M 13.589844 3.652344 "/>
<path style=" stroke:none;fill-rule:nonzero;fill:rgb(61.960787%,61.960787%,61.960787%);fill-opacity:0.996078;" d="M 15.609375 7.339844 L 18.261719 9.429688 L 17.796875 10.015625 L 15.148438 7.929688 Z M 15.609375 7.339844 "/>
<path style=" stroke:none;fill-rule:nonzero;fill:rgb(0%,0%,0%);fill-opacity:0.4;" d="M 15.265625 7.78125 L 15.148438 7.929688 L 17.796875 10.015625 L 18.261719 9.429688 L 18.144531 9.335938 L 17.796875 9.777344 Z M 15.265625 7.78125 "/>
<path style=" stroke:none;fill-rule:nonzero;fill:rgb(100%,100%,100%);fill-opacity:0.4;" d="M 15.609375 7.339844 L 15.148438 7.929688 L 15.21875 7.984375 L 15.609375 7.484375 L 18.191406 9.519531 L 18.261719 9.429688 Z M 15.609375 7.339844 "/>
<path style=" stroke:none;fill-rule:nonzero;fill:rgb(0%,0%,0%);fill-opacity:0.4;" d="M 12.984375 4.308594 L 12.980469 4.3125 C 12.917969 4.394531 12.933594 4.511719 13.015625 4.578125 L 15.957031 6.898438 C 16.039062 6.960938 16.15625 6.949219 16.222656 6.867188 L 16.6875 6.277344 C 16.742188 6.207031 16.738281 6.109375 16.683594 6.039062 L 16.222656 6.625 C 16.15625 6.707031 16.039062 6.71875 15.957031 6.65625 L 13.015625 4.335938 C 13.003906 4.328125 12.992188 4.320312 12.984375 4.308594 Z M 12.984375 4.308594 "/>
<path style=" stroke:none;fill-rule:nonzero;fill:rgb(74.117649%,74.117649%,74.117649%);fill-opacity:1;" d="M 12.78125 4.871094 L 15.726562 7.191406 C 15.808594 7.257812 15.820312 7.375 15.757812 7.457031 L 15.292969 8.042969 C 15.230469 8.125 15.113281 8.140625 15.03125 8.074219 L 12.085938 5.753906 C 12.003906 5.691406 11.988281 5.574219 12.054688 5.492188 L 12.519531 4.902344 C 12.582031 4.820312 12.699219 4.808594 12.78125 4.871094 Z M 12.78125 4.871094 "/>
<path style=" stroke:none;fill-rule:nonzero;fill:rgb(0%,0%,0%);fill-opacity:0.4;" d="M 12.058594 5.488281 L 12.054688 5.492188 C 11.988281 5.574219 12.003906 5.691406 12.085938 5.753906 L 15.03125 8.078125 C 15.113281 8.140625 15.230469 8.125 15.292969 8.046875 L 15.757812 7.457031 C 15.8125 7.382812 15.8125 7.285156 15.753906 7.21875 L 15.292969 7.804688 C 15.230469 7.886719 15.113281 7.898438 15.03125 7.835938 L 12.085938 5.515625 C 12.074219 5.507812 12.066406 5.496094 12.058594 5.488281 Z M 12.058594 5.488281 "/>
<path style=" stroke:none;fill-rule:nonzero;fill:rgb(61.960787%,61.960787%,61.960787%);fill-opacity:1;" d="M 17.8125 15.375 L 18.9375 15.375 L 18.9375 18.5625 L 17.8125 18.5625 Z M 17.8125 15.375 "/>
<path style=" stroke:none;fill-rule:nonzero;fill:rgb(100%,100%,100%);fill-opacity:0.4;" d="M 17.8125 15.375 L 17.8125 15.5625 L 18.9375 15.5625 L 18.9375 15.375 Z M 17.8125 15.375 "/>
<path style=" stroke:none;fill-rule:nonzero;fill:rgb(38.039216%,38.039216%,38.039216%);fill-opacity:1;" d="M 16.046875 14.171875 L 16.578125 14.703125 L 15.25 16.027344 L 14.722656 15.5 Z M 16.046875 14.171875 "/>
<path style=" stroke:none;fill-rule:nonzero;fill:rgb(38.039216%,38.039216%,38.039216%);fill-opacity:1;" d="M 20.171875 14.703125 L 20.703125 14.171875 L 22.027344 15.5 L 21.5 16.027344 Z M 20.171875 14.703125 "/>
<path style=" stroke:none;fill-rule:nonzero;fill:rgb(100%,70.19608%,0%);fill-opacity:0.996078;" d="M 16.5 13.875 L 20.25 13.875 L 20.25 14.25 L 16.5 14.25 Z M 16.5 13.875 "/>
<path style=" stroke:none;fill-rule:nonzero;fill:rgb(38.039216%,38.039216%,38.039216%);fill-opacity:0.996078;" d="M 17.8125 10.3125 L 18.9375 10.3125 C 19.042969 10.3125 19.125 10.394531 19.125 10.5 L 19.125 13.3125 C 19.125 13.417969 19.042969 13.5 18.9375 13.5 L 17.8125 13.5 C 17.707031 13.5 17.625 13.417969 17.625 13.3125 L 17.625 10.5 C 17.625 10.394531 17.707031 10.3125 17.8125 10.3125 Z M 17.8125 10.3125 "/>
<path style=" stroke:none;fill-rule:nonzero;fill:rgb(100%,70.19608%,0%);fill-opacity:1;" d="M 4.152344 13.5 L 9.347656 16.5 L 13.675781 6.007812 L 11.074219 4.507812 Z M 4.152344 13.5 "/>
<path style=" stroke:none;fill-rule:nonzero;fill:rgb(100%,100%,100%);fill-opacity:0.4;" d="M 12.660156 4.832031 C 12.605469 4.832031 12.554688 4.855469 12.519531 4.902344 L 12.054688 5.492188 C 12.007812 5.546875 12.003906 5.621094 12.027344 5.683594 C 12.035156 5.667969 12.042969 5.652344 12.054688 5.640625 L 12.519531 5.050781 C 12.582031 4.96875 12.699219 4.953125 12.78125 5.019531 L 15.726562 7.339844 C 15.753906 7.359375 15.769531 7.382812 15.78125 7.414062 C 15.816406 7.335938 15.792969 7.246094 15.726562 7.191406 L 12.78125 4.871094 C 12.746094 4.84375 12.703125 4.832031 12.660156 4.832031 Z M 12.660156 4.832031 "/>
<path style=" stroke:none;fill-rule:nonzero;fill:rgb(0%,0%,0%);fill-opacity:0.4;" d="M 11.976562 7.398438 C 11.960938 7.464844 11.933594 7.527344 11.898438 7.585938 L 9.085938 12.457031 C 8.878906 12.816406 8.421875 12.941406 8.0625 12.734375 C 7.878906 12.628906 7.757812 12.460938 7.710938 12.273438 C 7.628906 12.589844 7.761719 12.933594 8.0625 13.109375 C 8.421875 13.316406 8.878906 13.191406 9.085938 12.832031 L 11.898438 7.960938 C 12.003906 7.785156 12.023438 7.582031 11.976562 7.398438 Z M 11.976562 7.398438 "/>
<path style=" stroke:none;fill-rule:nonzero;fill:rgb(100%,79.215688%,15.686275%);fill-opacity:1;" d="M 11.625 6.554688 C 11.984375 6.761719 12.105469 7.222656 11.898438 7.582031 L 9.085938 12.453125 C 8.878906 12.8125 8.421875 12.933594 8.0625 12.726562 C 7.703125 12.519531 7.582031 12.0625 7.789062 11.703125 L 10.601562 6.832031 C 10.808594 6.472656 11.265625 6.347656 11.625 6.554688 Z M 11.625 6.554688 "/>
<path style=" stroke:none;fill-rule:nonzero;fill:rgb(100%,100%,100%);fill-opacity:0.4;" d="M 11.234375 6.457031 C 10.980469 6.460938 10.738281 6.59375 10.601562 6.832031 L 7.789062 11.703125 C 7.683594 11.882812 7.664062 12.085938 7.710938 12.269531 C 7.726562 12.207031 7.753906 12.144531 7.789062 12.082031 L 10.601562 7.210938 C 10.808594 6.851562 11.265625 6.730469 11.625 6.9375 C 11.804688 7.042969 11.925781 7.210938 11.976562 7.394531 C 12.058594 7.078125 11.925781 6.730469 11.625 6.554688 C 11.5 6.484375 11.367188 6.453125 11.234375 6.457031 Z M 11.234375 6.457031 "/>
<path style=" stroke:none;fill-rule:nonzero;fill:rgb(38.039216%,38.039216%,38.039216%);fill-opacity:1;" d="M 4.5 19.5 L 9 19.5 C 9.414062 19.5 9.75 19.835938 9.75 20.25 C 9.75 20.664062 9.414062 21 9 21 L 4.5 21 C 4.085938 21 3.75 20.664062 3.75 20.25 C 3.75 19.835938 4.085938 19.5 4.5 19.5 Z M 4.5 19.5 "/>
<path style=" stroke:none;fill-rule:nonzero;fill:rgb(100%,100%,100%);fill-opacity:0.4;" d="M 4.5 19.5 C 4.085938 19.5 3.75 19.835938 3.75 20.25 C 3.75 20.28125 3.753906 20.3125 3.757812 20.34375 C 3.800781 19.972656 4.117188 19.6875 4.5 19.6875 L 9 19.6875 C 9.382812 19.6875 9.699219 19.972656 9.742188 20.34375 C 9.746094 20.3125 9.75 20.28125 9.75 20.25 C 9.75 19.835938 9.414062 19.5 9 19.5 Z M 4.5 19.5 "/>
<path style=" stroke:none;fill-rule:nonzero;fill:rgb(45.882353%,45.882353%,45.882353%);fill-opacity:1;" d="M 2.25 20.25 L 11.25 20.25 C 11.664062 20.25 12 20.585938 12 21 L 12 21.75 C 12 22.164062 11.664062 22.5 11.25 22.5 L 2.25 22.5 C 1.835938 22.5 1.5 22.164062 1.5 21.75 L 1.5 21 C 1.5 20.585938 1.835938 20.25 2.25 20.25 Z M 2.25 20.25 "/>
<path style=" stroke:none;fill-rule:nonzero;fill:rgb(100%,70.19608%,0%);fill-opacity:1;" d="M 4.5 19.5 C 5.25 18.75 5.25 18 5.25 16.5 L 8.25 16.5 C 8.25 18 8.25 18.75 9 19.5 Z M 4.5 19.5 "/>
<path style=" stroke:none;fill-rule:nonzero;fill:rgb(100%,79.215688%,15.686275%);fill-opacity:1;" d="M 6.75 11.25 C 8.820312 11.25 10.5 12.929688 10.5 15 C 10.5 17.070312 8.820312 18.75 6.75 18.75 C 4.679688 18.75 3 17.070312 3 15 C 3 12.929688 4.679688 11.25 6.75 11.25 Z M 6.75 11.25 "/>
<path style=" stroke:none;fill-rule:nonzero;fill:rgb(38.039216%,38.039216%,38.039216%);fill-opacity:1;" d="M 6.75 12.75 C 7.992188 12.75 9 13.757812 9 15 C 9 16.242188 7.992188 17.25 6.75 17.25 C 5.507812 17.25 4.5 16.242188 4.5 15 C 4.5 13.757812 5.507812 12.75 6.75 12.75 Z M 6.75 12.75 "/>
<path style=" stroke:none;fill-rule:nonzero;fill:rgb(38.039216%,38.039216%,38.039216%);fill-opacity:1;" d="M 6.75 13.5 C 7.578125 13.5 8.25 14.171875 8.25 15 C 8.25 15.828125 7.578125 16.5 6.75 16.5 C 5.921875 16.5 5.25 15.828125 5.25 15 C 5.25 14.171875 5.921875 13.5 6.75 13.5 Z M 6.75 13.5 "/>
<path style=" stroke:none;fill-rule:nonzero;fill:rgb(0%,0%,0%);fill-opacity:0.4;" d="M 6.75 13.5 C 5.917969 13.5 5.25 14.167969 5.25 15 C 5.25 15.03125 5.25 15.0625 5.253906 15.09375 C 5.300781 14.308594 5.949219 13.6875 6.75 13.6875 C 7.550781 13.6875 8.199219 14.308594 8.246094 15.09375 C 8.25 15.0625 8.25 15.03125 8.25 15 C 8.25 14.167969 7.582031 13.5 6.75 13.5 Z M 6.75 13.5 "/>
<path style=" stroke:none;fill-rule:nonzero;fill:rgb(100%,100%,100%);fill-opacity:0.4;" d="M 5.253906 15.09375 C 5.25 15.125 5.25 15.15625 5.25 15.1875 C 5.25 16.019531 5.917969 16.6875 6.75 16.6875 C 7.582031 16.6875 8.25 16.019531 8.25 15.1875 C 8.25 15.15625 8.25 15.125 8.246094 15.09375 C 8.199219 15.878906 7.550781 16.5 6.75 16.5 C 5.949219 16.5 5.300781 15.878906 5.253906 15.09375 Z M 5.253906 15.09375 "/>
<path style=" stroke:none;fill-rule:nonzero;fill:rgb(100%,100%,100%);fill-opacity:0.4;" d="M 2.25 20.25 C 1.835938 20.25 1.5 20.585938 1.5 21 L 1.5 21.375 C 1.5 20.960938 1.835938 20.625 2.25 20.625 L 11.25 20.625 C 11.664062 20.625 12 20.960938 12 21.375 L 12 21 C 12 20.585938 11.664062 20.25 11.25 20.25 Z M 2.25 20.25 "/>
<path style=" stroke:none;fill-rule:nonzero;fill:rgb(0.392157%,0.392157%,0.392157%);fill-opacity:0.4;" d="M 2.25 22.503906 C 1.835938 22.503906 1.5 22.167969 1.5 21.75 L 1.5 21.378906 C 1.5 21.792969 1.835938 22.128906 2.25 22.128906 L 11.25 22.128906 C 11.664062 22.128906 12 21.792969 12 21.378906 L 12 21.75 C 12 22.167969 11.664062 22.503906 11.25 22.503906 Z M 2.25 22.503906 "/>
<path style=" stroke:none;fill-rule:nonzero;fill:rgb(100%,79.215688%,15.686275%);fill-opacity:1;" d="M 14.25 2.007812 C 15.683594 2.839844 16.175781 4.671875 15.347656 6.109375 C 14.519531 7.542969 12.683594 8.035156 11.25 7.207031 C 9.816406 6.378906 9.324219 4.542969 10.152344 3.109375 C 10.980469 1.671875 12.816406 1.179688 14.25 2.007812 Z M 14.25 2.007812 "/>
<path style=" stroke:none;fill-rule:nonzero;fill:rgb(100%,100%,100%);fill-opacity:0.4;" d="M 6.75 12.75 C 5.503906 12.75 4.5 13.753906 4.5 15 C 4.5 15.0625 4.503906 15.125 4.507812 15.1875 C 4.601562 14.03125 5.566406 13.125 6.75 13.125 C 7.933594 13.125 8.898438 14.03125 8.992188 15.1875 C 8.996094 15.125 9 15.0625 9 15 C 9 13.753906 7.996094 12.75 6.75 12.75 Z M 6.75 12.75 "/>
<path style=" stroke:none;fill-rule:nonzero;fill:rgb(0%,0%,0%);fill-opacity:0.4;" d="M 6.75 17.625 C 5.503906 17.625 4.5 16.621094 4.5 15.375 C 4.5 15.3125 4.503906 15.25 4.507812 15.1875 C 4.601562 16.34375 5.566406 17.25 6.75 17.25 C 7.933594 17.25 8.898438 16.34375 8.992188 15.1875 C 8.996094 15.25 9 15.3125 9 15.375 C 9 16.621094 7.996094 17.625 6.75 17.625 Z M 6.75 17.625 "/>
<path style=" stroke:none;fill-rule:nonzero;fill:rgb(100%,100%,100%);fill-opacity:0.4;" d="M 6.75 11.25 C 4.671875 11.25 3 12.921875 3 15 C 3 15.0625 3.003906 15.125 3.003906 15.1875 C 3.101562 13.199219 4.734375 11.625 6.75 11.625 C 8.765625 11.625 10.398438 13.199219 10.496094 15.1875 C 10.496094 15.125 10.5 15.0625 10.5 15 C 10.5 12.921875 8.828125 11.25 6.75 11.25 Z M 6.75 11.25 "/>
<path style=" stroke:none;fill-rule:nonzero;fill:rgb(0.392157%,0.392157%,0.392157%);fill-opacity:0.4;" d="M 5.132812 18.386719 C 5.105469 18.5 5.074219 18.609375 5.03125 18.710938 C 5.546875 18.976562 6.128906 19.125 6.75 19.125 C 7.371094 19.125 7.953125 18.976562 8.46875 18.710938 C 8.425781 18.609375 8.394531 18.5 8.367188 18.386719 C 7.878906 18.621094 7.328125 18.75 6.75 18.75 C 6.171875 18.75 5.621094 18.621094 5.132812 18.386719 Z M 5.132812 18.386719 "/>
<path style=" stroke:none;fill-rule:nonzero;fill:rgb(100%,100%,100%);fill-opacity:0.4;" d="M 12.757812 1.605469 C 11.71875 1.601562 10.710938 2.140625 10.152344 3.109375 C 9.847656 3.632812 9.71875 4.214844 9.753906 4.777344 C 9.777344 4.320312 9.90625 3.863281 10.152344 3.441406 C 10.984375 2.003906 12.8125 1.511719 14.25 2.34375 C 15.164062 2.871094 15.691406 3.796875 15.746094 4.773438 C 15.808594 3.679688 15.265625 2.597656 14.25 2.007812 C 13.777344 1.738281 13.261719 1.605469 12.757812 1.605469 Z M 12.757812 1.605469 "/>
<path style=" stroke:none;fill-rule:nonzero;fill:rgb(0.784314%,0.784314%,0.784314%);fill-opacity:0.4;" d="M 10.027344 5.871094 L 9.9375 5.988281 C 9.992188 6.144531 10.066406 6.296875 10.152344 6.445312 C 10.710938 7.410156 11.71875 7.949219 12.757812 7.949219 C 12.796875 7.949219 12.835938 7.945312 12.875 7.945312 L 13.015625 7.601562 C 11.890625 7.703125 10.757812 7.160156 10.152344 6.109375 C 10.105469 6.03125 10.066406 5.949219 10.027344 5.871094 Z M 10.027344 5.871094 "/>
<path style=" stroke:none;fill-rule:nonzero;fill:rgb(38.039216%,38.039216%,38.039216%);fill-opacity:1;" d="M 13.613281 3.113281 C 14.4375 3.589844 14.722656 4.644531 14.246094 5.46875 C 13.769531 6.296875 12.710938 6.578125 11.886719 6.101562 C 11.0625 5.625 10.777344 4.570312 11.253906 3.746094 C 11.730469 2.917969 12.789062 2.636719 13.613281 3.113281 Z M 13.613281 3.113281 "/>
<path style=" stroke:none;fill-rule:nonzero;fill:rgb(100%,99.215686%,99.215686%);fill-opacity:0.4;" d="M 12.753906 2.878906 C 12.15625 2.878906 11.578125 3.1875 11.253906 3.746094 C 11.082031 4.046875 11.007812 4.375 11.027344 4.699219 C 11.039062 4.4375 11.113281 4.175781 11.253906 3.929688 C 11.578125 3.375 12.15625 3.066406 12.753906 3.066406 C 13.046875 3.066406 13.339844 3.140625 13.613281 3.296875 C 14.136719 3.601562 14.441406 4.136719 14.472656 4.695312 C 14.507812 4.070312 14.195312 3.449219 13.613281 3.113281 C 13.339844 2.957031 13.046875 2.878906 12.753906 2.878906 Z M 12.753906 2.878906 "/>
<path style=" stroke:none;fill-rule:nonzero;fill:rgb(0%,0%,0%);fill-opacity:0.4;" d="M 14.472656 4.722656 C 14.457031 4.980469 14.382812 5.234375 14.246094 5.46875 C 13.765625 6.296875 12.714844 6.582031 11.886719 6.101562 C 11.371094 5.804688 11.066406 5.28125 11.027344 4.726562 C 11.007812 5.054688 11.078125 5.390625 11.253906 5.699219 C 11.578125 6.253906 12.15625 6.5625 12.753906 6.5625 C 13.046875 6.5625 13.339844 6.488281 13.613281 6.328125 C 14.203125 5.988281 14.515625 5.359375 14.472656 4.722656 Z M 14.472656 4.722656 "/>
<path style=" stroke:none;fill-rule:nonzero;fill:rgb(100%,79.215688%,15.686275%);fill-opacity:0.996078;" d="M 18.375 7.5 C 19.410156 7.5 20.25 8.339844 20.25 9.375 C 20.25 10.410156 19.410156 11.25 18.375 11.25 C 17.339844 11.25 16.5 10.410156 16.5 9.375 C 16.5 8.339844 17.339844 7.5 18.375 7.5 Z M 18.375 7.5 "/>
<path style=" stroke:none;fill-rule:nonzero;fill:rgb(38.039216%,38.039216%,38.039216%);fill-opacity:1;" d="M 16.5 9.375 C 16.5 10.414062 17.335938 11.25 18.375 11.25 C 19.414062 11.25 20.25 10.414062 20.25 9.375 Z M 16.5 9.375 "/>
<path style=" stroke:none;fill-rule:nonzero;fill:rgb(100%,100%,100%);fill-opacity:0.4;" d="M 18.375 7.5 C 17.335938 7.5 16.5 8.335938 16.5 9.375 C 16.5 9.4375 16.503906 9.5 16.507812 9.5625 C 16.601562 8.613281 17.398438 7.875 18.375 7.875 C 19.351562 7.875 20.148438 8.613281 20.242188 9.5625 C 20.246094 9.5 20.25 9.4375 20.25 9.375 C 20.25 8.335938 19.414062 7.5 18.375 7.5 Z M 18.375 7.5 "/>
<path style=" stroke:none;fill-rule:nonzero;fill:rgb(0%,0%,0%);fill-opacity:0.4;" d="M 17.625 11.09375 L 17.625 11.46875 C 17.855469 11.570312 18.109375 11.625 18.375 11.625 C 18.640625 11.625 18.894531 11.570312 19.125 11.46875 L 19.125 11.09375 C 18.894531 11.195312 18.640625 11.25 18.375 11.25 C 18.109375 11.25 17.855469 11.195312 17.625 11.09375 Z M 17.625 11.09375 "/>
<path style=" stroke:none;fill-rule:nonzero;fill:rgb(38.039216%,38.039216%,38.039216%);fill-opacity:0.996078;" d="M 18.375 8.25 C 18.996094 8.25 19.5 8.753906 19.5 9.375 C 19.5 9.996094 18.996094 10.5 18.375 10.5 C 17.753906 10.5 17.25 9.996094 17.25 9.375 C 17.25 8.753906 17.753906 8.25 18.375 8.25 Z M 18.375 8.25 "/>
<path style=" stroke:none;fill-rule:nonzero;fill:rgb(74.117649%,74.117649%,74.117649%);fill-opacity:0.996078;" d="M 17.617188 11.4375 C 17.515625 11.441406 17.4375 11.523438 17.4375 11.625 C 17.4375 11.730469 17.519531 11.8125 17.625 11.8125 L 19.125 11.8125 C 19.230469 11.8125 19.3125 11.730469 19.3125 11.625 C 19.3125 11.519531 19.230469 11.4375 19.125 11.4375 L 17.625 11.4375 C 17.621094 11.4375 17.617188 11.4375 17.617188 11.4375 Z M 17.617188 12 C 17.515625 12.003906 17.4375 12.085938 17.4375 12.1875 C 17.4375 12.292969 17.519531 12.375 17.625 12.375 L 19.125 12.375 C 19.230469 12.375 19.3125 12.292969 19.3125 12.1875 C 19.3125 12.082031 19.230469 12 19.125 12 L 17.625 12 C 17.621094 12 17.617188 12 17.617188 12 Z M 17.617188 12.5625 C 17.515625 12.566406 17.4375 12.648438 17.4375 12.75 C 17.4375 12.855469 17.519531 12.9375 17.625 12.9375 L 19.125 12.9375 C 19.230469 12.9375 19.3125 12.855469 19.3125 12.75 C 19.3125 12.644531 19.230469 12.5625 19.125 12.5625 L 17.625 12.5625 C 17.621094 12.5625 17.617188 12.5625 17.617188 12.5625 Z M 17.617188 13.125 C 17.515625 13.128906 17.4375 13.210938 17.4375 13.3125 C 17.4375 13.417969 17.519531 13.5 17.625 13.5 L 19.125 13.5 C 19.230469 13.5 19.3125 13.417969 19.3125 13.3125 C 19.3125 13.207031 19.230469 13.125 19.125 13.125 L 17.625 13.125 C 17.621094 13.125 17.617188 13.125 17.617188 13.125 Z M 17.617188 13.125 "/>
<path style=" stroke:none;fill-rule:nonzero;fill:rgb(100%,100%,100%);fill-opacity:0.4;" d="M 17.617188 11.4375 C 17.515625 11.441406 17.4375 11.523438 17.4375 11.625 C 17.4375 11.660156 17.445312 11.691406 17.460938 11.71875 C 17.492188 11.664062 17.550781 11.628906 17.617188 11.625 C 17.617188 11.625 17.621094 11.625 17.625 11.625 L 19.125 11.625 C 19.195312 11.625 19.253906 11.660156 19.289062 11.71875 C 19.304688 11.691406 19.3125 11.660156 19.3125 11.625 C 19.3125 11.519531 19.230469 11.4375 19.125 11.4375 L 17.625 11.4375 C 17.621094 11.4375 17.617188 11.4375 17.617188 11.4375 Z M 17.617188 12 C 17.515625 12.003906 17.4375 12.085938 17.4375 12.1875 C 17.4375 12.222656 17.445312 12.253906 17.460938 12.28125 C 17.492188 12.226562 17.550781 12.191406 17.617188 12.1875 C 17.617188 12.1875 17.621094 12.1875 17.625 12.1875 L 19.125 12.1875 C 19.195312 12.1875 19.253906 12.222656 19.289062 12.28125 C 19.304688 12.253906 19.3125 12.222656 19.3125 12.1875 C 19.3125 12.082031 19.230469 12 19.125 12 L 17.625 12 C 17.621094 12 17.617188 12 17.617188 12 Z M 17.617188 12.5625 C 17.515625 12.566406 17.4375 12.648438 17.4375 12.75 C 17.4375 12.785156 17.445312 12.816406 17.460938 12.84375 C 17.492188 12.789062 17.550781 12.753906 17.617188 12.75 C 17.617188 12.75 17.621094 12.75 17.625 12.75 L 19.125 12.75 C 19.195312 12.75 19.253906 12.785156 19.289062 12.84375 C 19.304688 12.816406 19.3125 12.785156 19.3125 12.75 C 19.3125 12.644531 19.230469 12.5625 19.125 12.5625 L 17.625 12.5625 C 17.621094 12.5625 17.617188 12.5625 17.617188 12.5625 Z M 17.617188 13.125 C 17.515625 13.128906 17.4375 13.210938 17.4375 13.3125 C 17.4375 13.347656 17.445312 13.378906 17.460938 13.40625 C 17.492188 13.351562 17.550781 13.316406 17.617188 13.3125 C 17.617188 13.3125 17.621094 13.3125 17.625 13.3125 L 19.125 13.3125 C 19.195312 13.3125 19.253906 13.347656 19.289062 13.40625 C 19.304688 13.378906 19.3125 13.347656 19.3125 13.3125 C 19.3125 13.207031 19.230469 13.125 19.125 13.125 L 17.625 13.125 C 17.621094 13.125 17.617188 13.125 17.617188 13.125 Z M 17.617188 13.125 "/>
<path style=" stroke:none;fill-rule:nonzero;fill:rgb(0%,0%,0%);fill-opacity:0.4;" d="M 17.625 11.8125 L 17.625 11.996094 L 19.125 11.996094 L 19.125 11.8125 Z M 17.625 12.375 L 17.625 12.558594 L 19.125 12.558594 L 19.125 12.375 Z M 17.625 12.9375 L 17.625 13.121094 L 19.125 13.121094 L 19.125 12.9375 Z M 17.792969 13.5 C 17.800781 13.5 17.804688 13.5 17.8125 13.5 L 18.9375 13.5 C 18.945312 13.5 18.949219 13.5 18.957031 13.5 Z M 17.792969 13.5 "/>
<path style=" stroke:none;fill-rule:nonzero;fill:rgb(0%,0%,0%);fill-opacity:0.4;" d="M 16.5 9.375 C 16.5 10.414062 17.335938 11.25 18.375 11.25 C 19.414062 11.25 20.25 10.414062 20.25 9.375 L 20.210938 9.375 C 20.039062 10.234375 19.285156 10.875 18.375 10.875 C 17.464844 10.875 16.710938 10.234375 16.539062 9.375 Z M 16.5 9.375 "/>
<path style=" stroke:none;fill-rule:nonzero;fill:rgb(100%,100%,100%);fill-opacity:0.4;" d="M 18.347656 8.25 C 17.734375 8.265625 17.25 8.761719 17.25 9.375 L 16.5 9.375 C 16.5 9.4375 16.503906 9.5 16.507812 9.5625 L 17.25 9.5625 C 17.25 8.949219 17.734375 8.453125 18.34375 8.4375 C 18.355469 8.4375 18.363281 8.4375 18.375 8.4375 C 19 8.4375 19.5 8.9375 19.5 9.5625 L 20.242188 9.5625 C 20.246094 9.5 20.25 9.4375 20.25 9.375 L 19.5 9.375 C 19.5 8.75 19 8.25 18.375 8.25 C 18.363281 8.25 18.355469 8.25 18.34375 8.25 Z M 18.347656 8.25 "/>
<path style=" stroke:none;fill-rule:nonzero;fill:rgb(38.039216%,38.039216%,38.039216%);fill-opacity:0.4;" d="M 18.375 8.625 C 18.789062 8.625 19.125 8.960938 19.125 9.375 C 19.125 9.789062 18.789062 10.125 18.375 10.125 C 17.960938 10.125 17.625 9.789062 17.625 9.375 C 17.625 8.960938 17.960938 8.625 18.375 8.625 Z M 18.375 8.625 "/>
<path style=" stroke:none;fill-rule:nonzero;fill:rgb(6.27451%,6.27451%,6.27451%);fill-opacity:0.4;" d="M 18.355469 8.625 C 17.949219 8.636719 17.625 8.964844 17.625 9.375 C 17.625 9.40625 17.628906 9.4375 17.628906 9.46875 C 17.675781 9.097656 17.992188 8.8125 18.375 8.8125 C 18.757812 8.8125 19.074219 9.097656 19.117188 9.46875 C 19.121094 9.4375 19.125 9.40625 19.125 9.375 C 19.125 8.960938 18.789062 8.625 18.375 8.625 C 18.367188 8.625 18.363281 8.625 18.355469 8.625 Z M 18.355469 8.625 "/>
<path style=" stroke:none;fill-rule:nonzero;fill:rgb(100%,100%,100%);fill-opacity:0.4;" d="M 18.355469 10.3125 C 17.949219 10.300781 17.625 9.972656 17.625 9.5625 C 17.625 9.53125 17.628906 9.5 17.628906 9.46875 C 17.675781 9.839844 17.992188 10.125 18.375 10.125 C 18.757812 10.125 19.074219 9.839844 19.117188 9.46875 C 19.121094 9.5 19.125 9.53125 19.125 9.5625 C 19.125 9.976562 18.789062 10.3125 18.375 10.3125 C 18.367188 10.3125 18.363281 10.3125 18.355469 10.3125 Z M 18.355469 10.3125 "/>
<path style=" stroke:none;fill-rule:nonzero;fill:rgb(61.960787%,61.960787%,61.960787%);fill-opacity:0.996078;" d="M 19.6875 13.5 L 19.6875 14.25 C 19.6875 14.664062 20.023438 15 20.4375 15 C 20.851562 15 21.1875 14.664062 21.1875 14.25 L 21.1875 13.5 Z M 19.6875 13.5 "/>
<path style=" stroke:none;fill-rule:nonzero;fill:rgb(61.960787%,61.960787%,61.960787%);fill-opacity:0.996078;" d="M 15.5625 13.5 L 15.5625 14.25 C 15.5625 14.664062 15.898438 15 16.3125 15 C 16.726562 15 17.0625 14.664062 17.0625 14.25 L 17.0625 13.5 Z M 15.5625 13.5 "/>
<path style=" stroke:none;fill-rule:nonzero;fill:rgb(61.960787%,61.960787%,61.960787%);fill-opacity:0.996078;" d="M 17.625 13.5 L 17.625 14.25 C 17.625 14.664062 17.960938 15 18.375 15 C 18.789062 15 19.125 14.664062 19.125 14.25 L 19.125 13.5 Z M 17.625 13.5 "/>
<path style=" stroke:none;fill-rule:nonzero;fill:rgb(45.882353%,45.882353%,45.882353%);fill-opacity:0.996078;" d="M 15.5625 13.5 L 21.1875 13.5 L 21.1875 13.875 L 15.5625 13.875 Z M 15.5625 13.5 "/>
<path style=" stroke:none;fill-rule:nonzero;fill:rgb(0%,0%,0%);fill-opacity:0.4;" d="M 19.6875 14.082031 L 19.6875 14.25 C 19.6875 14.664062 20.023438 15 20.4375 15 C 20.851562 15 21.1875 14.664062 21.1875 14.25 L 21.1875 14.082031 C 21.175781 14.488281 20.847656 14.8125 20.4375 14.8125 C 20.027344 14.8125 19.699219 14.488281 19.6875 14.082031 Z M 19.6875 14.082031 "/>
<path style=" stroke:none;fill-rule:nonzero;fill:rgb(0%,0%,0%);fill-opacity:0.4;" d="M 19.6875 13.875 L 21.1875 13.875 L 21.1875 14.0625 L 19.6875 14.0625 Z M 19.6875 13.875 "/>
<path style=" stroke:none;fill-rule:nonzero;fill:rgb(0%,0%,0%);fill-opacity:0.4;" d="M 17.625 14.082031 L 17.625 14.25 C 17.625 14.664062 17.960938 15 18.375 15 C 18.789062 15 19.125 14.664062 19.125 14.25 L 19.125 14.082031 C 19.113281 14.488281 18.785156 14.8125 18.375 14.8125 C 17.964844 14.8125 17.636719 14.488281 17.625 14.082031 Z M 17.625 14.082031 "/>
<path style=" stroke:none;fill-rule:nonzero;fill:rgb(0%,0%,0%);fill-opacity:0.4;" d="M 17.625 13.875 L 19.125 13.875 L 19.125 14.0625 L 17.625 14.0625 Z M 17.625 13.875 "/>
<path style=" stroke:none;fill-rule:nonzero;fill:rgb(0%,0%,0%);fill-opacity:0.4;" d="M 15.5625 14.082031 L 15.5625 14.25 C 15.5625 14.664062 15.898438 15 16.3125 15 C 16.726562 15 17.0625 14.664062 17.0625 14.25 L 17.0625 14.082031 C 17.050781 14.488281 16.722656 14.8125 16.3125 14.8125 C 15.902344 14.8125 15.574219 14.488281 15.5625 14.082031 Z M 15.5625 14.082031 "/>
<path style=" stroke:none;fill-rule:nonzero;fill:rgb(0%,0%,0%);fill-opacity:0.4;" d="M 15.5625 13.875 L 17.0625 13.875 L 17.0625 14.0625 L 15.5625 14.0625 Z M 15.5625 13.875 "/>
<path style=" stroke:none;fill-rule:nonzero;fill:rgb(38.039216%,38.039216%,38.039216%);fill-opacity:1;" d="M 18 14.25 L 18.75 14.25 L 18.75 16.3125 L 18 16.3125 Z M 18 14.25 "/>
<path style=" stroke:none;fill-rule:nonzero;fill:rgb(61.960787%,61.960787%,61.960787%);fill-opacity:1;" d="M 14.980469 15.1875 C 14.574219 15.199219 14.25 15.527344 14.25 15.9375 C 14.25 17.0625 14.671875 17.847656 15.375 18.5625 L 15.75 18.5625 C 15.375 17.625 15.75 17.0625 15.75 15.9375 C 15.75 15.523438 15.414062 15.1875 15 15.1875 C 14.992188 15.1875 14.988281 15.1875 14.980469 15.1875 Z M 14.980469 15.1875 "/>
<path style=" stroke:none;fill-rule:nonzero;fill:rgb(61.960787%,61.960787%,61.960787%);fill-opacity:1;" d="M 21.75 15.1875 C 22.15625 15.199219 22.480469 15.527344 22.480469 15.9375 C 22.480469 17.0625 22.054688 17.847656 21.355469 18.5625 L 20.980469 18.5625 C 21.355469 17.625 20.980469 17.0625 20.980469 15.9375 C 20.980469 15.523438 21.316406 15.1875 21.730469 15.1875 C 21.738281 15.1875 21.742188 15.1875 21.75 15.1875 Z M 21.75 15.1875 "/>
<path style=" stroke:none;fill-rule:nonzero;fill:rgb(100%,100%,100%);fill-opacity:0.4;" d="M 14.980469 15.1875 C 14.574219 15.199219 14.25 15.527344 14.25 15.9375 C 14.25 15.980469 14.25 16.023438 14.253906 16.066406 C 14.28125 15.683594 14.59375 15.382812 14.980469 15.375 C 14.988281 15.375 14.992188 15.375 15 15.375 C 15.398438 15.375 15.71875 15.679688 15.746094 16.070312 C 15.75 16.027344 15.75 15.984375 15.75 15.9375 C 15.75 15.523438 15.414062 15.1875 15 15.1875 C 14.992188 15.1875 14.988281 15.1875 14.980469 15.1875 Z M 15.585938 17.804688 C 15.578125 18.046875 15.597656 18.289062 15.683594 18.5625 L 15.75 18.5625 C 15.640625 18.285156 15.59375 18.039062 15.585938 17.804688 Z M 15.585938 17.804688 "/>
<path style=" stroke:none;fill-rule:nonzero;fill:rgb(100%,100%,100%);fill-opacity:0.4;" d="M 21.710938 15.1875 C 21.304688 15.199219 20.980469 15.527344 20.980469 15.9375 C 20.980469 15.984375 20.980469 16.027344 20.980469 16.074219 C 21.007812 15.683594 21.332031 15.375 21.730469 15.375 C 21.738281 15.375 21.742188 15.375 21.75 15.375 C 22.136719 15.386719 22.449219 15.6875 22.476562 16.066406 C 22.480469 16.023438 22.480469 15.980469 22.480469 15.9375 C 22.480469 15.527344 22.15625 15.199219 21.75 15.1875 C 21.742188 15.1875 21.738281 15.1875 21.730469 15.1875 C 21.722656 15.1875 21.71875 15.1875 21.710938 15.1875 Z M 21.144531 17.804688 C 21.136719 18.039062 21.089844 18.285156 20.980469 18.5625 L 21.046875 18.5625 C 21.132812 18.289062 21.152344 18.046875 21.144531 17.804688 Z M 21.144531 17.804688 "/>
<path style=" stroke:none;fill-rule:nonzero;fill:rgb(0%,0%,0%);fill-opacity:0.4;" d="M 18 16.125 L 18 16.3125 L 18.75 16.3125 L 18.75 16.125 Z M 18 16.125 "/>
<path style=" stroke:none;fill-rule:nonzero;fill:rgb(99.215686%,99.215686%,99.215686%);fill-opacity:0.4;" d="M 18 16.3125 L 18 16.5 L 18.75 16.5 L 18.75 16.3125 Z M 18 16.3125 "/>
<path style=" stroke:none;fill-rule:nonzero;fill:rgb(0%,0%,0%);fill-opacity:0.4;" d="M 17.8125 18.375 L 17.8125 18.5625 L 18.9375 18.5625 L 18.9375 18.375 Z M 17.8125 18.375 "/>
<path style=" stroke:none;fill-rule:nonzero;fill:rgb(0%,0%,0%);fill-opacity:0.4;" d="M 14.253906 15.878906 C 14.25 15.898438 14.25 15.917969 14.25 15.9375 C 14.25 17.0625 14.671875 17.847656 15.375 18.5625 L 15.75 18.5625 C 15.722656 18.5 15.703125 18.4375 15.683594 18.375 L 15.375 18.375 C 14.699219 17.6875 14.285156 16.9375 14.253906 15.878906 Z M 15.75 15.886719 C 15.730469 16.601562 15.566406 17.085938 15.585938 17.613281 C 15.605469 17.121094 15.75 16.640625 15.75 15.9375 C 15.75 15.921875 15.75 15.902344 15.75 15.886719 Z M 15.75 15.886719 "/>
<path style=" stroke:none;fill-rule:nonzero;fill:rgb(0%,0%,0%);fill-opacity:0.4;" d="M 22.476562 15.878906 C 22.445312 16.9375 22.027344 17.6875 21.355469 18.375 L 21.046875 18.375 C 21.027344 18.4375 21.007812 18.5 20.980469 18.5625 L 21.355469 18.5625 C 22.054688 17.847656 22.480469 17.0625 22.480469 15.9375 C 22.480469 15.917969 22.480469 15.898438 22.476562 15.878906 Z M 20.980469 15.886719 C 20.980469 15.902344 20.980469 15.921875 20.980469 15.9375 C 20.980469 16.640625 21.125 17.121094 21.144531 17.613281 C 21.164062 17.085938 21 16.601562 20.980469 15.886719 Z M 20.980469 15.886719 "/>
<path style=" stroke:none;fill-rule:nonzero;fill:rgb(38.039216%,38.039216%,38.039216%);fill-opacity:1;" d="M 13.203125 3.828125 C 13.632812 4.074219 13.78125 4.628906 13.53125 5.058594 C 13.28125 5.492188 12.730469 5.636719 12.296875 5.390625 C 11.867188 5.140625 11.71875 4.589844 11.96875 4.15625 C 12.21875 3.726562 12.769531 3.578125 13.203125 3.828125 Z M 13.203125 3.828125 "/>
<path style=" stroke:none;fill-rule:nonzero;fill:rgb(38.039216%,38.039216%,38.039216%);fill-opacity:0.4;" d="M 13.203125 3.828125 C 13.632812 4.074219 13.78125 4.628906 13.53125 5.058594 C 13.28125 5.492188 12.730469 5.636719 12.296875 5.390625 C 11.867188 5.140625 11.71875 4.589844 11.96875 4.15625 C 12.21875 3.726562 12.769531 3.578125 13.203125 3.828125 Z M 13.203125 3.828125 "/>
<path style=" stroke:none;fill-rule:nonzero;fill:rgb(0%,0%,0%);fill-opacity:0.4;" d="M 12.730469 3.703125 C 12.425781 3.710938 12.132812 3.871094 11.96875 4.15625 C 11.867188 4.328125 11.832031 4.519531 11.851562 4.703125 C 11.863281 4.582031 11.902344 4.457031 11.96875 4.34375 C 12.21875 3.910156 12.769531 3.765625 13.203125 4.015625 C 13.460938 4.164062 13.621094 4.421875 13.648438 4.699219 C 13.683594 4.355469 13.519531 4.011719 13.203125 3.828125 C 13.050781 3.742188 12.890625 3.699219 12.730469 3.703125 Z M 12.730469 3.703125 "/>
<path style=" stroke:none;fill-rule:nonzero;fill:rgb(99.607843%,99.607843%,99.607843%);fill-opacity:0.4;" d="M 13.648438 4.6875 C 13.636719 4.8125 13.601562 4.941406 13.53125 5.058594 C 13.28125 5.492188 12.730469 5.640625 12.296875 5.390625 C 12.035156 5.234375 11.875 4.96875 11.851562 4.6875 C 11.820312 5.027344 11.984375 5.367188 12.296875 5.546875 C 12.730469 5.796875 13.28125 5.652344 13.53125 5.21875 C 13.628906 5.050781 13.664062 4.867188 13.648438 4.6875 Z M 13.648438 4.6875 "/>
<path style=" stroke:none;fill-rule:nonzero;fill:url(#linear0);" d="M 12.757812 1.605469 C 11.71875 1.601562 10.710938 2.140625 10.152344 3.109375 C 9.644531 3.988281 9.628906 5.015625 10.027344 5.871094 L 5.789062 11.375 C 5.6875 11.402344 5.585938 11.429688 5.488281 11.464844 C 5.222656 10.707031 4.730469 10.238281 4.15625 10.101562 C 4.027344 10.070312 3.898438 10.054688 3.769531 10.054688 C 3.214844 10.050781 2.671875 10.308594 2.265625 10.722656 C 1.765625 11.234375 1.460938 12.011719 1.609375 12.867188 C 1.738281 13.582031 2.175781 14.332031 3 15.039062 C 3.015625 16.519531 3.878906 17.789062 5.132812 18.386719 C 5.03125 18.808594 4.847656 19.152344 4.5 19.5 C 4.085938 19.5 3.75 19.835938 3.75 20.25 L 2.25 20.25 C 1.835938 20.25 1.5 20.585938 1.5 21 L 1.5 21.75 C 1.5 22.164062 1.835938 22.5 2.25 22.5 L 11.25 22.5 C 11.664062 22.5 12 22.164062 12 21.75 L 12 21 C 12 20.585938 11.664062 20.25 11.25 20.25 L 9.75 20.25 C 9.75 19.835938 9.414062 19.5 9 19.5 C 8.652344 19.152344 8.46875 18.808594 8.367188 18.386719 C 9.628906 17.785156 10.5 16.496094 10.5 15 C 10.5 14.660156 10.453125 14.332031 10.371094 14.019531 L 13.019531 7.597656 C 13.101562 7.589844 13.179688 7.578125 13.261719 7.566406 C 13.363281 8.230469 13.433594 8.882812 13.503906 9.476562 C 13.597656 10.289062 13.679688 10.980469 13.90625 11.496094 C 14.023438 11.753906 14.191406 11.992188 14.464844 12.109375 C 14.738281 12.230469 15.054688 12.183594 15.347656 12.042969 C 15.8125 11.824219 16.320312 11.375 16.984375 10.632812 C 17.160156 10.828125 17.378906 10.988281 17.625 11.09375 L 17.625 11.4375 C 17.621094 11.4375 17.617188 11.4375 17.617188 11.4375 C 17.515625 11.441406 17.4375 11.523438 17.4375 11.625 C 17.4375 11.730469 17.519531 11.8125 17.625 11.8125 L 17.625 11.996094 L 19.125 11.996094 L 19.125 11.8125 C 19.230469 11.8125 19.3125 11.730469 19.3125 11.625 C 19.3125 11.519531 19.230469 11.4375 19.125 11.4375 L 19.125 11.09375 C 19.542969 10.914062 19.882812 10.582031 20.074219 10.167969 C 20.378906 10.21875 20.539062 10.304688 20.605469 10.375 C 20.699219 10.480469 20.71875 10.644531 20.636719 10.96875 C 20.554688 11.296875 20.375 11.710938 20.207031 12.144531 C 20.035156 12.578125 19.875 13.03125 19.875 13.5 L 19.132812 13.5 C 19.234375 13.496094 19.3125 13.414062 19.3125 13.3125 C 19.3125 13.207031 19.230469 13.125 19.125 13.125 L 17.625 13.125 C 17.621094 13.125 17.617188 13.125 17.617188 13.125 C 17.515625 13.128906 17.4375 13.210938 17.4375 13.3125 C 17.4375 13.414062 17.515625 13.496094 17.617188 13.5 L 15.5625 13.5 L 15.5625 14.25 C 15.5625 14.367188 15.59375 14.480469 15.640625 14.578125 L 15.03125 15.191406 C 15.019531 15.191406 15.011719 15.1875 15 15.1875 C 14.992188 15.1875 14.988281 15.1875 14.980469 15.1875 C 14.574219 15.199219 14.25 15.527344 14.25 15.9375 C 14.25 17.0625 14.671875 17.847656 15.375 18.5625 L 15.75 18.5625 C 15.375 17.625 15.75 17.0625 15.75 15.9375 C 15.75 15.820312 15.71875 15.707031 15.671875 15.609375 L 16.28125 14.996094 C 16.292969 14.996094 16.300781 15 16.3125 15 C 16.726562 15 17.0625 14.664062 17.0625 14.25 L 17.625 14.25 C 17.625 14.527344 17.777344 14.769531 18 14.898438 L 18 15.375 L 17.8125 15.375 L 17.8125 18.5625 L 18.9375 18.5625 L 18.9375 15.375 L 18.75 15.375 L 18.75 14.898438 C 18.972656 14.769531 19.125 14.527344 19.125 14.25 L 19.6875 14.25 C 19.6875 14.664062 20.023438 15 20.4375 15 C 20.449219 15 20.457031 14.996094 20.46875 14.996094 L 21.066406 15.59375 C 21.011719 15.699219 20.980469 15.8125 20.980469 15.9375 C 20.980469 17.0625 21.355469 17.625 20.980469 18.5625 L 21.355469 18.5625 C 22.054688 17.847656 22.480469 17.0625 22.480469 15.9375 C 22.480469 15.527344 22.15625 15.199219 21.75 15.1875 C 21.742188 15.1875 21.738281 15.1875 21.730469 15.1875 C 21.726562 15.1875 21.722656 15.1875 21.71875 15.1875 L 21.109375 14.578125 C 21.15625 14.480469 21.1875 14.367188 21.1875 14.25 L 21.1875 13.5 L 20.625 13.5 C 20.625 13.21875 20.746094 12.828125 20.90625 12.417969 C 21.066406 12.007812 21.257812 11.578125 21.363281 11.152344 C 21.472656 10.726562 21.488281 10.238281 21.160156 9.875 C 20.949219 9.640625 20.648438 9.5 20.25 9.433594 C 20.25 9.414062 20.25 9.394531 20.25 9.375 C 20.25 8.335938 19.414062 7.5 18.375 7.5 C 18.332031 7.5 18.289062 7.5 18.242188 7.503906 L 16.6875 6.277344 C 16.75 6.195312 16.738281 6.078125 16.65625 6.015625 L 15.683594 5.246094 C 15.957031 4.003906 15.414062 2.683594 14.25 2.007812 C 13.777344 1.738281 13.261719 1.605469 12.757812 1.605469 Z M 15.21875 6.3125 L 15.957031 6.898438 C 16.039062 6.960938 16.15625 6.949219 16.222656 6.867188 L 17.382812 7.78125 C 17.167969 7.917969 16.980469 8.09375 16.835938 8.304688 L 15.757812 7.457031 C 15.824219 7.375 15.808594 7.257812 15.726562 7.191406 L 14.984375 6.609375 C 15.070312 6.515625 15.144531 6.417969 15.21875 6.3125 Z M 14.058594 7.308594 L 15.03125 8.078125 C 15.113281 8.140625 15.230469 8.125 15.292969 8.046875 L 16.535156 9.019531 C 16.511719 9.136719 16.5 9.253906 16.5 9.375 C 16.5 9.574219 16.53125 9.765625 16.585938 9.945312 C 15.859375 10.773438 15.328125 11.226562 15.027344 11.367188 C 14.851562 11.453125 14.792969 11.433594 14.761719 11.421875 C 14.730469 11.410156 14.667969 11.355469 14.59375 11.191406 C 14.449219 10.863281 14.339844 10.195312 14.246094 9.390625 C 14.175781 8.773438 14.105469 8.070312 13.988281 7.34375 C 14.011719 7.332031 14.035156 7.320312 14.058594 7.308594 Z M 3.683594 10.808594 C 3.785156 10.800781 3.886719 10.808594 3.976562 10.832031 C 4.304688 10.910156 4.625 11.160156 4.8125 11.785156 C 3.96875 12.292969 3.34375 13.125 3.105469 14.109375 C 2.648438 13.617188 2.421875 13.148438 2.351562 12.738281 C 2.242188 12.121094 2.453125 11.601562 2.796875 11.25 C 3.058594 10.984375 3.382812 10.832031 3.683594 10.808594 Z M 17.617188 12 C 17.515625 12.003906 17.4375 12.085938 17.4375 12.1875 C 17.4375 12.292969 17.519531 12.375 17.625 12.375 L 17.625 12.558594 L 19.125 12.558594 L 19.125 12.375 C 19.230469 12.375 19.3125 12.292969 19.3125 12.1875 C 19.3125 12.082031 19.230469 12 19.125 12 L 17.625 12 C 17.621094 12 17.617188 12 17.617188 12 Z M 17.617188 12.5625 C 17.515625 12.566406 17.4375 12.648438 17.4375 12.75 C 17.4375 12.855469 17.519531 12.9375 17.625 12.9375 L 17.625 13.121094 L 19.125 13.121094 L 19.125 12.9375 C 19.230469 12.9375 19.3125 12.855469 19.3125 12.75 C 19.3125 12.644531 19.230469 12.5625 19.125 12.5625 L 17.625 12.5625 C 17.621094 12.5625 17.617188 12.5625 17.617188 12.5625 Z M 17.617188 12.5625 "/>
<path style=" stroke:none;fill-rule:nonzero;fill:rgb(0%,0%,0%);fill-opacity:0.2;" d="M 1.5 21.75 L 1.5 22.3125 C 1.5 22.726562 1.835938 23.0625 2.25 23.0625 L 11.25 23.0625 C 11.664062 23.0625 12 22.726562 12 22.3125 L 12 21.75 C 12 22.164062 11.664062 22.5 11.25 22.5 L 2.25 22.5 C 1.835938 22.5 1.5 22.164062 1.5 21.75 Z M 1.5 21.75 "/>
</g>
</svg>
