
<svg xmlns="http://www.w3.org/2000/svg" xmlns:xlink="http://www.w3.org/1999/xlink" width="24" height="24" viewBox="0 0 24 24" version="1.1">
<defs>
<linearGradient id="linear0" gradientUnits="userSpaceOnUse" x1="8.466666" y1="-199.125" x2="8.466666" y2="-213.941666" gradientTransform="matrix(1.417323,0,0,1.417323,0,304.724425)">
<stop offset="0" style="stop-color:rgb(0%,0%,0%);stop-opacity:0.2;"/>
<stop offset="1" style="stop-color:rgb(100%,100%,100%);stop-opacity:0;"/>
</linearGradient>
</defs>
<g id="surface1">
<path style=" stroke:none;fill-rule:nonzero;fill:rgb(14.901961%,77.64706%,85.490197%);fill-opacity:1;" d="M 12 1.496094 C 17.800781 1.496094 22.5 6.199219 22.5 12 C 22.5 17.800781 17.800781 22.5 12 22.5 C 6.199219 22.5 1.496094 17.800781 1.496094 12 C 1.496094 6.199219 6.199219 1.496094 12 1.496094 Z M 12 1.496094 "/>
<path style=" stroke:none;fill-rule:nonzero;fill:rgb(100%,100%,100%);fill-opacity:0.4;" d="M 12 1.5 C 6.203125 1.5 1.5 6.199219 1.5 12 C 1.5 12.0625 1.5 12.125 1.503906 12.1875 C 1.601562 6.476562 6.265625 1.875 12 1.875 C 17.734375 1.875 22.398438 6.476562 22.496094 12.1875 C 22.5 12.125 22.5 12.0625 22.5 12 C 22.5 6.199219 17.796875 1.5 12 1.5 Z M 12 1.5 "/>
<path style=" stroke:none;fill-rule:nonzero;fill:rgb(0%,0%,0%);fill-opacity:0.4;" d="M 1.507812 11.808594 C 1.503906 11.871094 1.5 11.933594 1.5 11.996094 C 1.5 17.792969 6.203125 22.496094 12 22.496094 C 17.796875 22.496094 22.5 17.792969 22.5 11.996094 C 22.5 11.933594 22.496094 11.871094 22.496094 11.808594 C 22.394531 17.523438 17.734375 22.125 12 22.125 C 6.265625 22.125 1.605469 17.523438 1.507812 11.808594 Z M 1.507812 11.808594 "/>
<path style=" stroke:none;fill-rule:nonzero;fill:rgb(0%,0%,0%);fill-opacity:0.2;" d="M 1.503906 12.28125 C 1.503906 12.375 1.5 12.46875 1.5 12.5625 C 1.5 18.359375 6.203125 23.0625 12 23.0625 C 17.796875 23.0625 22.5 18.359375 22.5 12.5625 C 22.5 12.46875 22.496094 12.375 22.496094 12.28125 C 22.34375 17.949219 17.703125 22.5 12 22.5 C 6.296875 22.5 1.65625 17.949219 1.503906 12.28125 Z M 1.503906 12.28125 "/>
<path style=" stroke:none;fill-rule:nonzero;fill:rgb(93.333334%,93.333334%,93.333334%);fill-opacity:1;" d="M 8.296875 5.105469 L 5.117188 8.289062 L 7.566406 10.742188 L 12.078125 8.886719 Z M 15.191406 8.820312 L 6.175781 12.53125 L 9.886719 14.121094 L 11.480469 17.835938 Z M 15.125 11.933594 L 13.269531 16.445312 L 15.722656 18.894531 L 18.902344 15.714844 Z M 15.125 11.933594 "/>
<path style=" stroke:none;fill-rule:nonzero;fill:rgb(100%,100%,100%);fill-opacity:0.6;" d="M 8.296875 5.105469 L 5.117188 8.289062 L 5.300781 8.472656 L 8.296875 5.476562 L 11.816406 8.992188 L 12.078125 8.886719 Z M 15.191406 8.820312 L 6.175781 12.53125 L 6.613281 12.71875 L 15.007812 9.261719 Z M 15.125 11.933594 L 13.269531 16.445312 L 13.375 16.550781 L 15.125 12.304688 L 18.71875 15.898438 L 18.902344 15.714844 Z M 15.125 11.933594 "/>
<path style=" stroke:none;fill-rule:nonzero;fill:rgb(0%,0%,0%);fill-opacity:0.4;" d="M 5.304688 8.46875 L 5.117188 8.65625 L 7.566406 11.109375 L 12.078125 9.253906 L 11.808594 8.988281 L 7.566406 10.734375 Z M 15.191406 9.1875 L 15.003906 9.265625 L 11.480469 17.828125 L 9.886719 14.117188 L 6.621094 12.714844 L 6.175781 12.898438 L 9.886719 14.492188 L 11.480469 18.203125 Z M 18.714844 15.894531 L 15.722656 18.890625 L 13.378906 16.546875 L 13.269531 16.8125 L 15.722656 19.265625 L 18.902344 16.082031 Z M 18.714844 15.894531 "/>
<path style=" stroke:none;fill-rule:nonzero;fill:url(#linear0);" d="M 12 1.5 C 17.796875 1.5 22.5 6.199219 22.5 12 C 22.5 17.796875 17.796875 22.5 12 22.5 C 6.203125 22.5 1.5 17.796875 1.5 12 C 1.5 6.199219 6.203125 1.5 12 1.5 Z M 12 1.5 "/>
</g>
</svg>
