
<svg xmlns="http://www.w3.org/2000/svg" xmlns:xlink="http://www.w3.org/1999/xlink" width="24" height="24" viewBox="0 0 24 24" version="1.1">
<defs>
<linearGradient id="linear0" gradientUnits="userSpaceOnUse" x1="10.054166" y1="-199.125" x2="10.054166" y2="-213.941666" gradientTransform="matrix(1.417323,0,0,1.417323,-0.000474216,304.724425)">
<stop offset="0" style="stop-color:rgb(0%,0%,0%);stop-opacity:0.2;"/>
<stop offset="1" style="stop-color:rgb(100%,100%,100%);stop-opacity:0;"/>
</linearGradient>
</defs>
<g id="surface1">
<path style=" stroke:none;fill-rule:nonzero;fill:rgb(9.803922%,46.27451%,82.352942%);fill-opacity:1;" d="M 3 1.5 L 21 1.5 C 21.828125 1.5 22.5 2.171875 22.5 3 L 22.5 21 C 22.5 21.828125 21.828125 22.5 21 22.5 L 3 22.5 C 2.171875 22.5 1.5 21.828125 1.5 21 L 1.5 3 C 1.5 2.171875 2.171875 1.5 3 1.5 Z M 3 1.5 "/>
<path style=" stroke:none;fill-rule:nonzero;fill:rgb(0%,0%,0%);fill-opacity:0.4;" d="M 1.5 20.625 L 1.5 21 C 1.5 21.832031 2.167969 22.5 3 22.5 L 21 22.5 C 21.832031 22.5 22.5 21.832031 22.5 21 L 22.5 20.625 C 22.5 21.457031 21.832031 22.125 21 22.125 L 3 22.125 C 2.167969 22.125 1.5 21.457031 1.5 20.625 Z M 1.5 20.625 "/>
<path style=" stroke:none;fill-rule:nonzero;fill:rgb(0%,0%,0%);fill-opacity:0.2;" d="M 1.5 21 L 1.5 21.5625 C 1.5 22.394531 2.167969 23.0625 3 23.0625 L 21 23.0625 C 21.832031 23.0625 22.5 22.394531 22.5 21.5625 L 22.5 21 C 22.5 21.832031 21.832031 22.5 21 22.5 L 3 22.5 C 2.167969 22.5 1.5 21.832031 1.5 21 Z M 1.5 21 "/>
<path style=" stroke:none;fill-rule:nonzero;fill:rgb(25.882354%,64.705884%,96.078432%);fill-opacity:0.960784;" d="M 3 1.5 L 21 1.5 C 21.414062 1.5 21.75 1.835938 21.75 2.25 L 21.75 20.25 C 21.75 20.664062 21.414062 21 21 21 L 3 21 C 2.585938 21 2.25 20.664062 2.25 20.25 L 2.25 2.25 C 2.25 1.835938 2.585938 1.5 3 1.5 Z M 3 1.5 "/>
<path style=" stroke:none;fill-rule:nonzero;fill:rgb(100%,100%,100%);fill-opacity:0.4;" d="M 3 1.5 C 2.167969 1.5 1.5 2.167969 1.5 3 L 1.5 3.367188 C 1.5 2.539062 2.167969 1.867188 3 1.867188 L 21 1.867188 C 21.832031 1.867188 22.5 2.539062 22.5 3.367188 L 22.5 3 C 22.5 2.167969 21.832031 1.5 21 1.5 Z M 3 1.5 "/>
<path style=" stroke:none;fill-rule:nonzero;fill:rgb(11.764706%,53.333336%,89.803922%);fill-opacity:1;" d="M 12 9 C 13.242188 9 14.25 10.007812 14.25 11.25 C 14.25 12.492188 13.242188 13.5 12 13.5 C 10.757812 13.5 9.75 12.492188 9.75 11.25 C 9.75 10.007812 10.757812 9 12 9 Z M 12 9 "/>
<path style=" stroke:none;fill-rule:nonzero;fill:rgb(0%,0%,0%);fill-opacity:0.4;" d="M 12 9 C 10.753906 9 9.75 10.003906 9.75 11.25 C 9.75 11.3125 9.753906 11.378906 9.757812 11.441406 C 9.855469 10.285156 10.816406 9.382812 12 9.382812 C 13.183594 9.382812 14.144531 10.285156 14.242188 11.441406 C 14.246094 11.378906 14.25 11.3125 14.25 11.25 C 14.25 10.003906 13.246094 9 12 9 Z M 12 9 "/>
<path style=" stroke:none;fill-rule:nonzero;fill:rgb(100%,100%,100%);fill-opacity:0.6;" d="M 9.757812 11.4375 C 9.753906 11.5 9.75 11.5625 9.75 11.625 C 9.75 12.871094 10.753906 13.875 12 13.875 C 13.246094 13.875 14.25 12.871094 14.25 11.625 C 14.25 11.5625 14.246094 11.5 14.242188 11.4375 C 14.148438 12.59375 13.183594 13.5 12 13.5 C 10.816406 13.5 9.851562 12.59375 9.757812 11.4375 Z M 9.757812 11.4375 "/>
<path style=" stroke:none;fill-rule:nonzero;fill:rgb(11.764706%,53.333336%,89.803922%);fill-opacity:1;" d="M 18 3 C 19.242188 3 20.25 4.007812 20.25 5.25 C 20.25 6.492188 19.242188 7.5 18 7.5 C 16.757812 7.5 15.75 6.492188 15.75 5.25 C 15.75 4.007812 16.757812 3 18 3 Z M 18 3 "/>
<path style=" stroke:none;fill-rule:nonzero;fill:rgb(0%,0%,0%);fill-opacity:0.4;" d="M 18 3 C 16.753906 3 15.75 4.003906 15.75 5.25 C 15.75 5.3125 15.753906 5.378906 15.757812 5.441406 C 15.855469 4.285156 16.816406 3.378906 18 3.378906 C 19.183594 3.378906 20.144531 4.285156 20.242188 5.441406 C 20.246094 5.378906 20.25 5.3125 20.25 5.25 C 20.25 4.003906 19.246094 3 18 3 Z M 18 3 "/>
<path style=" stroke:none;fill-rule:nonzero;fill:rgb(100%,100%,100%);fill-opacity:0.6;" d="M 15.757812 5.4375 C 15.753906 5.5 15.75 5.5625 15.75 5.625 C 15.75 6.871094 16.753906 7.875 18 7.875 C 19.246094 7.875 20.25 6.871094 20.25 5.625 C 20.25 5.5625 20.246094 5.5 20.242188 5.4375 C 20.148438 6.59375 19.183594 7.5 18 7.5 C 16.816406 7.5 15.851562 6.59375 15.757812 5.4375 Z M 15.757812 5.4375 "/>
<path style=" stroke:none;fill-rule:nonzero;fill:rgb(11.764706%,53.333336%,89.803922%);fill-opacity:1;" d="M 6.007812 3 C 7.25 3 8.257812 4.007812 8.257812 5.25 C 8.257812 6.492188 7.25 7.5 6.007812 7.5 C 4.765625 7.5 3.757812 6.492188 3.757812 5.25 C 3.757812 4.007812 4.765625 3 6.007812 3 Z M 6.007812 3 "/>
<path style=" stroke:none;fill-rule:nonzero;fill:rgb(0%,0%,0%);fill-opacity:0.4;" d="M 6.007812 3 C 4.761719 3 3.757812 4.003906 3.757812 5.25 C 3.757812 5.3125 3.761719 5.378906 3.765625 5.441406 C 3.863281 4.285156 4.824219 3.378906 6.007812 3.378906 C 7.191406 3.378906 8.152344 4.285156 8.25 5.441406 C 8.253906 5.378906 8.257812 5.3125 8.257812 5.25 C 8.257812 4.003906 7.253906 3 6.007812 3 Z M 6.007812 3 "/>
<path style=" stroke:none;fill-rule:nonzero;fill:rgb(100%,100%,100%);fill-opacity:0.6;" d="M 3.765625 5.4375 C 3.761719 5.5 3.757812 5.5625 3.757812 5.625 C 3.757812 6.871094 4.761719 7.875 6.007812 7.875 C 7.253906 7.875 8.257812 6.871094 8.257812 5.625 C 8.257812 5.5625 8.253906 5.5 8.25 5.4375 C 8.15625 6.59375 7.191406 7.5 6.007812 7.5 C 4.824219 7.5 3.859375 6.59375 3.765625 5.4375 Z M 3.765625 5.4375 "/>
<path style=" stroke:none;fill-rule:nonzero;fill:rgb(11.764706%,53.333336%,89.803922%);fill-opacity:1;" d="M 18 15 C 19.242188 15 20.25 16.007812 20.25 17.25 C 20.25 18.492188 19.242188 19.5 18 19.5 C 16.757812 19.5 15.75 18.492188 15.75 17.25 C 15.75 16.007812 16.757812 15 18 15 Z M 18 15 "/>
<path style=" stroke:none;fill-rule:nonzero;fill:rgb(0%,0%,0%);fill-opacity:0.4;" d="M 18 15 C 16.753906 15 15.75 16.003906 15.75 17.25 C 15.75 17.3125 15.753906 17.378906 15.757812 17.441406 C 15.855469 16.285156 16.816406 15.378906 18 15.378906 C 19.183594 15.378906 20.144531 16.285156 20.242188 17.441406 C 20.246094 17.378906 20.25 17.3125 20.25 17.25 C 20.25 16.003906 19.246094 15 18 15 Z M 18 15 "/>
<path style=" stroke:none;fill-rule:nonzero;fill:rgb(100%,100%,100%);fill-opacity:0.6;" d="M 15.757812 17.4375 C 15.753906 17.5 15.75 17.5625 15.75 17.625 C 15.75 18.871094 16.753906 19.875 18 19.875 C 19.246094 19.875 20.25 18.871094 20.25 17.625 C 20.25 17.5625 20.246094 17.5 20.242188 17.4375 C 20.148438 18.59375 19.183594 19.5 18 19.5 C 16.816406 19.5 15.851562 18.59375 15.757812 17.4375 Z M 15.757812 17.4375 "/>
<path style=" stroke:none;fill-rule:nonzero;fill:rgb(11.764706%,53.333336%,89.803922%);fill-opacity:1;" d="M 6.007812 15 C 7.25 15 8.257812 16.007812 8.257812 17.25 C 8.257812 18.492188 7.25 19.5 6.007812 19.5 C 4.765625 19.5 3.757812 18.492188 3.757812 17.25 C 3.757812 16.007812 4.765625 15 6.007812 15 Z M 6.007812 15 "/>
<path style=" stroke:none;fill-rule:nonzero;fill:rgb(0%,0%,0%);fill-opacity:0.4;" d="M 6.007812 15 C 4.761719 15 3.757812 16.003906 3.757812 17.25 C 3.757812 17.3125 3.761719 17.378906 3.765625 17.441406 C 3.863281 16.285156 4.824219 15.378906 6.007812 15.378906 C 7.191406 15.378906 8.152344 16.285156 8.25 17.441406 C 8.253906 17.378906 8.257812 17.3125 8.257812 17.25 C 8.257812 16.003906 7.253906 15 6.007812 15 Z M 6.007812 15 "/>
<path style=" stroke:none;fill-rule:nonzero;fill:rgb(100%,100%,100%);fill-opacity:0.6;" d="M 3.765625 17.4375 C 3.761719 17.5 3.757812 17.5625 3.757812 17.625 C 3.757812 18.871094 4.761719 19.875 6.007812 19.875 C 7.253906 19.875 8.257812 18.871094 8.257812 17.625 C 8.257812 17.5625 8.253906 17.5 8.25 17.4375 C 8.15625 18.59375 7.191406 19.5 6.007812 19.5 C 4.824219 19.5 3.859375 18.59375 3.765625 17.4375 Z M 3.765625 17.4375 "/>
<path style=" stroke:none;fill-rule:nonzero;fill:url(#linear0);" d="M 3 1.5 L 21 1.5 C 21.828125 1.5 22.5 2.171875 22.5 3 L 22.5 21 C 22.5 21.828125 21.828125 22.5 21 22.5 L 3 22.5 C 2.171875 22.5 1.5 21.828125 1.5 21 L 1.5 3 C 1.5 2.171875 2.171875 1.5 3 1.5 Z M 3 1.5 "/>
</g>
</svg>
