
<svg xmlns="http://www.w3.org/2000/svg" xmlns:xlink="http://www.w3.org/1999/xlink" width="24" height="24" viewBox="0 0 24 24" version="1.1">
<defs>
<linearGradient id="linear0" gradientUnits="userSpaceOnUse" x1="34" y1="57.999996" x2="34" y2="8" gradientTransform="matrix(0.375,0,0,0.375,0,0.000000000000042633)">
<stop offset="0" style="stop-color:rgb(0%,0%,0%);stop-opacity:0.2;"/>
<stop offset="1" style="stop-color:rgb(100%,100%,100%);stop-opacity:0;"/>
</linearGradient>
<linearGradient id="linear1" gradientUnits="userSpaceOnUse" x1="11.112499" y1="-199.125" x2="11.112499" y2="-213.941666" gradientTransform="matrix(1.417323,0,0,1.417323,0,304.724425)">
<stop offset="0" style="stop-color:rgb(0%,0%,0%);stop-opacity:0.2;"/>
<stop offset="1" style="stop-color:rgb(100%,100%,100%);stop-opacity:0;"/>
</linearGradient>
</defs>
<g id="surface1">
<path style=" stroke:none;fill-rule:nonzero;fill:rgb(12.941177%,58.823532%,95.294118%);fill-opacity:0.996078;" d="M 8.25 16.5 L 13.5 16.5 C 13.914062 16.5 14.25 16.835938 14.25 17.25 L 14.25 18.75 C 14.25 19.164062 13.914062 19.5 13.5 19.5 L 8.25 19.5 C 7.835938 19.5 7.5 19.164062 7.5 18.75 L 7.5 17.25 C 7.5 16.835938 7.835938 16.5 8.25 16.5 Z M 8.25 16.5 "/>
<path style=" stroke:none;fill-rule:nonzero;fill:rgb(12.941177%,58.823532%,95.294118%);fill-opacity:0.996078;" d="M 16.5 16.5 L 18.75 16.5 C 19.164062 16.5 19.5 16.835938 19.5 17.25 L 19.5 18.75 C 19.5 19.164062 19.164062 19.5 18.75 19.5 L 16.5 19.5 C 16.085938 19.5 15.75 19.164062 15.75 18.75 L 15.75 17.25 C 15.75 16.835938 16.085938 16.5 16.5 16.5 Z M 16.5 16.5 "/>
<path style=" stroke:none;fill-rule:nonzero;fill:rgb(25.882354%,64.705884%,96.078432%);fill-opacity:0.996078;" d="M 5.25 6 L 21 6 C 21.828125 6 22.5 6.671875 22.5 7.5 L 22.5 16.5 C 22.5 17.328125 21.828125 18 21 18 L 5.25 18 C 4.421875 18 3.75 17.328125 3.75 16.5 L 3.75 7.5 C 3.75 6.671875 4.421875 6 5.25 6 Z M 5.25 6 "/>
<path style=" stroke:none;fill-rule:nonzero;fill:rgb(38.039216%,38.039216%,38.039216%);fill-opacity:1;" d="M 4.875 10.875 L 6.375 10.875 C 6.582031 10.875 6.75 11.042969 6.75 11.25 L 6.75 12.75 C 6.75 12.957031 6.582031 13.125 6.375 13.125 L 4.875 13.125 C 4.667969 13.125 4.5 12.957031 4.5 12.75 L 4.5 11.25 C 4.5 11.042969 4.667969 10.875 4.875 10.875 Z M 4.875 10.875 "/>
<path style=" stroke:none;fill-rule:nonzero;fill:rgb(100%,100%,100%);fill-opacity:0.4;" d="M 4.875 10.875 C 4.667969 10.875 4.5 11.042969 4.5 11.25 L 4.5 11.625 C 4.5 11.417969 4.667969 11.25 4.875 11.25 L 6.375 11.25 C 6.582031 11.25 6.75 11.417969 6.75 11.625 L 6.75 11.25 C 6.75 11.042969 6.582031 10.875 6.375 10.875 Z M 4.875 10.875 "/>
<path style=" stroke:none;fill-rule:nonzero;fill:rgb(0.392157%,0.392157%,0.392157%);fill-opacity:0.4;" d="M 4.875 13.5 C 4.667969 13.5 4.5 13.332031 4.5 13.125 L 4.5 12.75 C 4.5 12.957031 4.667969 13.125 4.875 13.125 L 6.375 13.125 C 6.582031 13.125 6.75 12.957031 6.75 12.75 L 6.75 13.125 C 6.75 13.332031 6.582031 13.5 6.375 13.5 Z M 4.875 13.5 "/>
<path style=" stroke:none;fill-rule:nonzero;fill:rgb(38.039216%,38.039216%,38.039216%);fill-opacity:1;" d="M 4.875 14.25 L 6.375 14.25 C 6.582031 14.25 6.75 14.417969 6.75 14.625 L 6.75 16.125 C 6.75 16.332031 6.582031 16.5 6.375 16.5 L 4.875 16.5 C 4.667969 16.5 4.5 16.332031 4.5 16.125 L 4.5 14.625 C 4.5 14.417969 4.667969 14.25 4.875 14.25 Z M 4.875 14.25 "/>
<path style=" stroke:none;fill-rule:nonzero;fill:rgb(100%,100%,100%);fill-opacity:0.4;" d="M 4.875 14.25 C 4.667969 14.25 4.5 14.417969 4.5 14.625 L 4.5 15 C 4.5 14.792969 4.667969 14.625 4.875 14.625 L 6.375 14.625 C 6.582031 14.625 6.75 14.792969 6.75 15 L 6.75 14.625 C 6.75 14.417969 6.582031 14.25 6.375 14.25 Z M 4.875 14.25 "/>
<path style=" stroke:none;fill-rule:nonzero;fill:rgb(0.392157%,0.392157%,0.392157%);fill-opacity:0.4;" d="M 4.875 16.875 C 4.667969 16.875 4.5 16.707031 4.5 16.5 L 4.5 16.125 C 4.5 16.332031 4.667969 16.5 4.875 16.5 L 6.375 16.5 C 6.582031 16.5 6.75 16.332031 6.75 16.125 L 6.75 16.5 C 6.75 16.707031 6.582031 16.875 6.375 16.875 Z M 4.875 16.875 "/>
<path style=" stroke:none;fill-rule:nonzero;fill:rgb(38.039216%,38.039216%,38.039216%);fill-opacity:1;" d="M 4.875 7.5 L 6.375 7.5 C 6.582031 7.5 6.75 7.667969 6.75 7.875 L 6.75 9.375 C 6.75 9.582031 6.582031 9.75 6.375 9.75 L 4.875 9.75 C 4.667969 9.75 4.5 9.582031 4.5 9.375 L 4.5 7.875 C 4.5 7.667969 4.667969 7.5 4.875 7.5 Z M 4.875 7.5 "/>
<path style=" stroke:none;fill-rule:nonzero;fill:rgb(100%,100%,100%);fill-opacity:0.4;" d="M 4.875 7.5 C 4.667969 7.5 4.5 7.667969 4.5 7.875 L 4.5 8.25 C 4.5 8.042969 4.667969 7.875 4.875 7.875 L 6.375 7.875 C 6.582031 7.875 6.75 8.042969 6.75 8.25 L 6.75 7.875 C 6.75 7.667969 6.582031 7.5 6.375 7.5 Z M 4.875 7.5 "/>
<path style=" stroke:none;fill-rule:nonzero;fill:rgb(0.392157%,0.392157%,0.392157%);fill-opacity:0.4;" d="M 4.875 10.125 C 4.667969 10.125 4.5 9.957031 4.5 9.75 L 4.5 9.375 C 4.5 9.582031 4.667969 9.75 4.875 9.75 L 6.375 9.75 C 6.582031 9.75 6.75 9.582031 6.75 9.375 L 6.75 9.75 C 6.75 9.957031 6.582031 10.125 6.375 10.125 Z M 4.875 10.125 "/>
<path style=" stroke:none;fill-rule:nonzero;fill:rgb(0.392157%,0.392157%,0.392157%);fill-opacity:0.4;" d="M 10.5 16.683594 C 10.394531 16.683594 10.3125 16.601562 10.3125 16.496094 L 10.3125 16.308594 C 10.3125 16.414062 10.394531 16.496094 10.5 16.496094 C 10.605469 16.496094 10.6875 16.414062 10.6875 16.308594 L 10.6875 16.496094 C 10.6875 16.601562 10.605469 16.683594 10.5 16.683594 Z M 11.25 16.683594 C 11.144531 16.683594 11.0625 16.601562 11.0625 16.496094 L 11.0625 16.308594 C 11.0625 16.414062 11.144531 16.496094 11.25 16.496094 C 11.355469 16.496094 11.4375 16.414062 11.4375 16.308594 L 11.4375 16.496094 C 11.4375 16.601562 11.355469 16.683594 11.25 16.683594 Z M 12 16.683594 C 11.894531 16.683594 11.8125 16.601562 11.8125 16.496094 L 11.8125 16.308594 C 11.8125 16.414062 11.894531 16.496094 12 16.496094 C 12.105469 16.496094 12.1875 16.414062 12.1875 16.308594 L 12.1875 16.496094 C 12.1875 16.601562 12.105469 16.683594 12 16.683594 Z M 12.75 16.683594 C 12.644531 16.683594 12.5625 16.601562 12.5625 16.496094 L 12.5625 16.308594 C 12.5625 16.414062 12.644531 16.496094 12.75 16.496094 C 12.855469 16.496094 12.9375 16.414062 12.9375 16.308594 L 12.9375 16.496094 C 12.9375 16.601562 12.855469 16.683594 12.75 16.683594 Z M 13.5 16.683594 C 13.394531 16.683594 13.3125 16.601562 13.3125 16.496094 L 13.3125 16.308594 C 13.3125 16.414062 13.394531 16.496094 13.5 16.496094 C 13.605469 16.496094 13.6875 16.414062 13.6875 16.308594 L 13.6875 16.496094 C 13.6875 16.601562 13.605469 16.683594 13.5 16.683594 Z M 14.25 16.683594 C 14.144531 16.683594 14.0625 16.601562 14.0625 16.496094 L 14.0625 16.308594 C 14.0625 16.414062 14.144531 16.496094 14.25 16.496094 C 14.355469 16.496094 14.4375 16.414062 14.4375 16.308594 L 14.4375 16.496094 C 14.4375 16.601562 14.355469 16.683594 14.25 16.683594 Z M 15 16.683594 C 14.894531 16.683594 14.8125 16.601562 14.8125 16.496094 L 14.8125 16.308594 C 14.8125 16.414062 14.894531 16.496094 15 16.496094 C 15.105469 16.496094 15.1875 16.414062 15.1875 16.308594 L 15.1875 16.496094 C 15.1875 16.601562 15.105469 16.683594 15 16.683594 Z M 15.75 16.683594 C 15.644531 16.683594 15.5625 16.601562 15.5625 16.496094 L 15.5625 16.308594 C 15.5625 16.414062 15.644531 16.496094 15.75 16.496094 C 15.855469 16.496094 15.9375 16.414062 15.9375 16.308594 L 15.9375 16.496094 C 15.9375 16.601562 15.855469 16.683594 15.75 16.683594 Z M 16.5 16.683594 C 16.394531 16.683594 16.3125 16.601562 16.3125 16.496094 L 16.3125 16.308594 C 16.3125 16.414062 16.394531 16.496094 16.5 16.496094 C 16.605469 16.496094 16.6875 16.414062 16.6875 16.308594 L 16.6875 16.496094 C 16.6875 16.601562 16.605469 16.683594 16.5 16.683594 Z M 9.1875 15.371094 C 9.082031 15.371094 9 15.289062 9 15.183594 C 9 15.148438 9.011719 15.117188 9.027344 15.089844 C 9.058594 15.144531 9.117188 15.183594 9.1875 15.183594 L 10.3125 15.183594 L 10.3125 15.371094 Z M 10.6875 15.371094 L 10.6875 15.183594 L 11.0625 15.183594 L 11.0625 15.371094 Z M 11.4375 15.371094 L 11.4375 15.183594 L 11.8125 15.183594 L 11.8125 15.371094 Z M 12.1875 15.371094 L 12.1875 15.183594 L 12.5625 15.183594 L 12.5625 15.371094 Z M 12.9375 15.371094 L 12.9375 15.183594 L 13.3125 15.183594 L 13.3125 15.371094 Z M 13.6875 15.371094 L 13.6875 15.183594 L 14.0625 15.183594 L 14.0625 15.371094 Z M 14.4375 15.371094 L 14.4375 15.183594 L 14.8125 15.183594 L 14.8125 15.371094 Z M 15.1875 15.371094 L 15.1875 15.183594 L 15.5625 15.183594 L 15.5625 15.371094 Z M 15.9375 15.371094 L 15.9375 15.183594 L 16.3125 15.183594 L 16.3125 15.371094 Z M 16.6875 15.371094 L 16.6875 15.183594 L 17.8125 15.183594 C 17.882812 15.183594 17.941406 15.144531 17.972656 15.089844 C 17.988281 15.117188 18 15.148438 18 15.183594 C 18 15.289062 17.917969 15.371094 17.8125 15.371094 Z M 9.1875 14.621094 C 9.082031 14.621094 9 14.539062 9 14.433594 C 9 14.398438 9.011719 14.367188 9.027344 14.339844 C 9.058594 14.394531 9.117188 14.433594 9.1875 14.433594 L 10.3125 14.433594 L 10.3125 14.621094 Z M 10.6875 14.621094 L 10.6875 14.433594 L 11.0625 14.433594 L 11.0625 14.621094 Z M 11.4375 14.621094 L 11.4375 14.433594 L 11.8125 14.433594 L 11.8125 14.621094 Z M 12.1875 14.621094 L 12.1875 14.433594 L 12.5625 14.433594 L 12.5625 14.621094 Z M 12.9375 14.621094 L 12.9375 14.433594 L 13.3125 14.433594 L 13.3125 14.621094 Z M 13.6875 14.621094 L 13.6875 14.433594 L 14.0625 14.433594 L 14.0625 14.621094 Z M 14.4375 14.621094 L 14.4375 14.433594 L 14.8125 14.433594 L 14.8125 14.621094 Z M 15.1875 14.621094 L 15.1875 14.433594 L 15.5625 14.433594 L 15.5625 14.621094 Z M 15.9375 14.621094 L 15.9375 14.433594 L 16.3125 14.433594 L 16.3125 14.621094 Z M 16.6875 14.621094 L 16.6875 14.433594 L 17.8125 14.433594 C 17.882812 14.433594 17.941406 14.394531 17.972656 14.339844 C 17.988281 14.367188 18 14.398438 18 14.433594 C 18 14.539062 17.917969 14.621094 17.8125 14.621094 Z M 9.1875 13.871094 C 9.082031 13.871094 9 13.789062 9 13.683594 C 9 13.648438 9.011719 13.617188 9.027344 13.589844 C 9.058594 13.644531 9.117188 13.683594 9.1875 13.683594 L 10.3125 13.683594 L 10.3125 13.871094 Z M 10.6875 13.871094 L 10.6875 13.683594 L 11.0625 13.683594 L 11.0625 13.871094 Z M 11.4375 13.871094 L 11.4375 13.683594 L 11.8125 13.683594 L 11.8125 13.871094 Z M 12.1875 13.871094 L 12.1875 13.683594 L 12.5625 13.683594 L 12.5625 13.871094 Z M 12.9375 13.871094 L 12.9375 13.683594 L 13.3125 13.683594 L 13.3125 13.871094 Z M 13.6875 13.871094 L 13.6875 13.683594 L 14.0625 13.683594 L 14.0625 13.871094 Z M 14.4375 13.871094 L 14.4375 13.683594 L 14.8125 13.683594 L 14.8125 13.871094 Z M 15.1875 13.871094 L 15.1875 13.683594 L 15.5625 13.683594 L 15.5625 13.871094 Z M 15.9375 13.871094 L 15.9375 13.683594 L 16.3125 13.683594 L 16.3125 13.871094 Z M 16.6875 13.871094 L 16.6875 13.683594 L 17.8125 13.683594 C 17.882812 13.683594 17.941406 13.644531 17.972656 13.589844 C 17.988281 13.617188 18 13.648438 18 13.683594 C 18 13.789062 17.917969 13.871094 17.8125 13.871094 Z M 9.1875 13.121094 C 9.082031 13.121094 9 13.039062 9 12.933594 C 9 12.898438 9.011719 12.867188 9.027344 12.839844 C 9.058594 12.894531 9.117188 12.933594 9.1875 12.933594 L 10.3125 12.933594 L 10.3125 13.121094 Z M 10.6875 13.121094 L 10.6875 12.933594 L 11.0625 12.933594 L 11.0625 13.121094 Z M 11.4375 13.121094 L 11.4375 12.933594 L 11.8125 12.933594 L 11.8125 13.121094 Z M 12.1875 13.121094 L 12.1875 12.933594 L 12.5625 12.933594 L 12.5625 13.121094 Z M 12.9375 13.121094 L 12.9375 12.933594 L 13.3125 12.933594 L 13.3125 13.121094 Z M 13.6875 13.121094 L 13.6875 12.933594 L 14.0625 12.933594 L 14.0625 13.121094 Z M 14.4375 13.121094 L 14.4375 12.933594 L 14.8125 12.933594 L 14.8125 13.121094 Z M 15.1875 13.121094 L 15.1875 12.933594 L 15.5625 12.933594 L 15.5625 13.121094 Z M 15.9375 13.121094 L 15.9375 12.933594 L 16.3125 12.933594 L 16.3125 13.121094 Z M 16.6875 13.121094 L 16.6875 12.933594 L 17.8125 12.933594 C 17.882812 12.933594 17.941406 12.894531 17.972656 12.839844 C 17.988281 12.867188 18 12.898438 18 12.933594 C 18 13.039062 17.917969 13.121094 17.8125 13.121094 Z M 9.1875 12.371094 C 9.082031 12.371094 9 12.289062 9 12.183594 C 9 12.148438 9.011719 12.117188 9.027344 12.089844 C 9.058594 12.144531 9.117188 12.183594 9.1875 12.183594 L 10.3125 12.183594 L 10.3125 12.371094 Z M 10.6875 12.371094 L 10.6875 12.183594 L 11.0625 12.183594 L 11.0625 12.371094 Z M 11.4375 12.371094 L 11.4375 12.183594 L 11.8125 12.183594 L 11.8125 12.371094 Z M 12.1875 12.371094 L 12.1875 12.183594 L 12.5625 12.183594 L 12.5625 12.371094 Z M 12.9375 12.371094 L 12.9375 12.183594 L 13.3125 12.183594 L 13.3125 12.371094 Z M 13.6875 12.371094 L 13.6875 12.183594 L 14.0625 12.183594 L 14.0625 12.371094 Z M 14.4375 12.371094 L 14.4375 12.183594 L 14.8125 12.183594 L 14.8125 12.371094 Z M 15.1875 12.371094 L 15.1875 12.183594 L 15.5625 12.183594 L 15.5625 12.371094 Z M 15.9375 12.371094 L 15.9375 12.183594 L 16.3125 12.183594 L 16.3125 12.371094 Z M 16.6875 12.371094 L 16.6875 12.183594 L 17.8125 12.183594 C 17.882812 12.183594 17.941406 12.144531 17.972656 12.089844 C 17.988281 12.117188 18 12.148438 18 12.183594 C 18 12.289062 17.917969 12.371094 17.8125 12.371094 Z M 9.1875 11.621094 C 9.082031 11.621094 9 11.539062 9 11.433594 C 9 11.398438 9.011719 11.367188 9.027344 11.339844 C 9.058594 11.394531 9.117188 11.433594 9.1875 11.433594 L 10.3125 11.433594 L 10.3125 11.621094 Z M 10.6875 11.621094 L 10.6875 11.433594 L 11.0625 11.433594 L 11.0625 11.621094 Z M 11.4375 11.621094 L 11.4375 11.433594 L 11.8125 11.433594 L 11.8125 11.621094 Z M 12.1875 11.621094 L 12.1875 11.433594 L 12.5625 11.433594 L 12.5625 11.621094 Z M 12.9375 11.621094 L 12.9375 11.433594 L 13.3125 11.433594 L 13.3125 11.621094 Z M 13.6875 11.621094 L 13.6875 11.433594 L 14.0625 11.433594 L 14.0625 11.621094 Z M 14.4375 11.621094 L 14.4375 11.433594 L 14.8125 11.433594 L 14.8125 11.621094 Z M 15.1875 11.621094 L 15.1875 11.433594 L 15.5625 11.433594 L 15.5625 11.621094 Z M 15.9375 11.621094 L 15.9375 11.433594 L 16.3125 11.433594 L 16.3125 11.621094 Z M 16.6875 11.621094 L 16.6875 11.433594 L 17.8125 11.433594 C 17.882812 11.433594 17.941406 11.394531 17.972656 11.339844 C 17.988281 11.367188 18 11.398438 18 11.433594 C 18 11.539062 17.917969 11.621094 17.8125 11.621094 Z M 9.1875 10.871094 C 9.082031 10.871094 9 10.789062 9 10.683594 C 9 10.648438 9.011719 10.617188 9.027344 10.589844 C 9.058594 10.644531 9.117188 10.683594 9.1875 10.683594 L 10.3125 10.683594 L 10.3125 10.871094 Z M 10.6875 10.871094 L 10.6875 10.683594 L 11.0625 10.683594 L 11.0625 10.871094 Z M 11.4375 10.871094 L 11.4375 10.683594 L 11.8125 10.683594 L 11.8125 10.871094 Z M 12.1875 10.871094 L 12.1875 10.683594 L 12.5625 10.683594 L 12.5625 10.871094 Z M 12.9375 10.871094 L 12.9375 10.683594 L 13.3125 10.683594 L 13.3125 10.871094 Z M 13.6875 10.871094 L 13.6875 10.683594 L 14.0625 10.683594 L 14.0625 10.871094 Z M 14.4375 10.871094 L 14.4375 10.683594 L 14.8125 10.683594 L 14.8125 10.871094 Z M 15.1875 10.871094 L 15.1875 10.683594 L 15.5625 10.683594 L 15.5625 10.871094 Z M 15.9375 10.871094 L 15.9375 10.683594 L 16.3125 10.683594 L 16.3125 10.871094 Z M 16.6875 10.871094 L 16.6875 10.683594 L 17.8125 10.683594 C 17.882812 10.683594 17.941406 10.644531 17.972656 10.589844 C 17.988281 10.617188 18 10.648438 18 10.683594 C 18 10.789062 17.917969 10.871094 17.8125 10.871094 Z M 9.1875 10.121094 C 9.082031 10.121094 9 10.039062 9 9.933594 C 9 9.898438 9.011719 9.867188 9.027344 9.839844 C 9.058594 9.894531 9.117188 9.933594 9.1875 9.933594 L 10.3125 9.933594 L 10.3125 10.121094 Z M 10.6875 10.121094 L 10.6875 9.933594 L 11.0625 9.933594 L 11.0625 10.121094 Z M 11.4375 10.121094 L 11.4375 9.933594 L 11.8125 9.933594 L 11.8125 10.121094 Z M 12.1875 10.121094 L 12.1875 9.933594 L 12.5625 9.933594 L 12.5625 10.121094 Z M 12.9375 10.121094 L 12.9375 9.933594 L 13.3125 9.933594 L 13.3125 10.121094 Z M 13.6875 10.121094 L 13.6875 9.933594 L 14.0625 9.933594 L 14.0625 10.121094 Z M 14.4375 10.121094 L 14.4375 9.933594 L 14.8125 9.933594 L 14.8125 10.121094 Z M 15.1875 10.121094 L 15.1875 9.933594 L 15.5625 9.933594 L 15.5625 10.121094 Z M 15.9375 10.121094 L 15.9375 9.933594 L 16.3125 9.933594 L 16.3125 10.121094 Z M 16.6875 10.121094 L 16.6875 9.933594 L 17.8125 9.933594 C 17.882812 9.933594 17.941406 9.894531 17.972656 9.839844 C 17.988281 9.867188 18 9.898438 18 9.933594 C 18 10.039062 17.917969 10.121094 17.8125 10.121094 Z M 9.1875 9.371094 C 9.082031 9.371094 9 9.289062 9 9.183594 C 9 9.148438 9.011719 9.117188 9.027344 9.089844 C 9.058594 9.144531 9.117188 9.183594 9.1875 9.183594 L 10.3125 9.183594 L 10.3125 9.371094 Z M 10.6875 9.371094 L 10.6875 9.183594 L 11.0625 9.183594 L 11.0625 9.371094 Z M 11.4375 9.371094 L 11.4375 9.183594 L 11.8125 9.183594 L 11.8125 9.371094 Z M 12.1875 9.371094 L 12.1875 9.183594 L 12.5625 9.183594 L 12.5625 9.371094 Z M 12.9375 9.371094 L 12.9375 9.183594 L 13.3125 9.183594 L 13.3125 9.371094 Z M 13.6875 9.371094 L 13.6875 9.183594 L 14.0625 9.183594 L 14.0625 9.371094 Z M 14.4375 9.371094 L 14.4375 9.183594 L 14.8125 9.183594 L 14.8125 9.371094 Z M 15.1875 9.371094 L 15.1875 9.183594 L 15.5625 9.183594 L 15.5625 9.371094 Z M 15.9375 9.371094 L 15.9375 9.183594 L 16.3125 9.183594 L 16.3125 9.371094 Z M 16.6875 9.371094 L 16.6875 9.183594 L 17.8125 9.183594 C 17.882812 9.183594 17.941406 9.144531 17.972656 9.089844 C 17.988281 9.117188 18 9.148438 18 9.183594 C 18 9.289062 17.917969 9.371094 17.8125 9.371094 Z M 16.6875 9.371094 "/>
<path style=" stroke:none;fill-rule:nonzero;fill:rgb(0.392157%,0.392157%,0.392157%);fill-opacity:0.4;" d="M 5.25 18 C 4.417969 18 3.75 17.332031 3.75 16.5 L 3.75 16.125 C 3.75 16.957031 4.417969 17.625 5.25 17.625 L 21 17.625 C 21.832031 17.625 22.5 16.957031 22.5 16.125 L 22.5 16.5 C 22.5 17.332031 21.832031 18 21 18 Z M 5.25 18 "/>
<path style=" stroke:none;fill-rule:nonzero;fill:rgb(74.117649%,74.117649%,74.117649%);fill-opacity:0.996078;" d="M 10.5 7.5 C 10.394531 7.5 10.3125 7.582031 10.3125 7.6875 L 10.3125 8.8125 L 9.1875 8.8125 C 9.082031 8.8125 9 8.894531 9 9 C 9 9.105469 9.082031 9.1875 9.1875 9.1875 L 10.3125 9.1875 L 10.3125 9.5625 L 9.1875 9.5625 C 9.082031 9.5625 9 9.644531 9 9.75 C 9 9.855469 9.082031 9.9375 9.1875 9.9375 L 10.3125 9.9375 L 10.3125 10.3125 L 9.1875 10.3125 C 9.082031 10.3125 9 10.394531 9 10.5 C 9 10.605469 9.082031 10.6875 9.1875 10.6875 L 10.3125 10.6875 L 10.3125 11.0625 L 9.1875 11.0625 C 9.082031 11.0625 9 11.144531 9 11.25 C 9 11.355469 9.082031 11.4375 9.1875 11.4375 L 10.3125 11.4375 L 10.3125 11.8125 L 9.1875 11.8125 C 9.082031 11.8125 9 11.894531 9 12 C 9 12.105469 9.082031 12.1875 9.1875 12.1875 L 10.3125 12.1875 L 10.3125 12.5625 L 9.1875 12.5625 C 9.082031 12.5625 9 12.644531 9 12.75 C 9 12.855469 9.082031 12.9375 9.1875 12.9375 L 10.3125 12.9375 L 10.3125 13.3125 L 9.1875 13.3125 C 9.082031 13.3125 9 13.394531 9 13.5 C 9 13.605469 9.082031 13.6875 9.1875 13.6875 L 10.3125 13.6875 L 10.3125 14.0625 L 9.1875 14.0625 C 9.082031 14.0625 9 14.144531 9 14.25 C 9 14.355469 9.082031 14.4375 9.1875 14.4375 L 10.3125 14.4375 L 10.3125 14.8125 L 9.1875 14.8125 C 9.082031 14.8125 9 14.894531 9 15 C 9 15.105469 9.082031 15.1875 9.1875 15.1875 L 10.3125 15.1875 L 10.3125 16.3125 C 10.3125 16.417969 10.394531 16.5 10.5 16.5 C 10.605469 16.5 10.6875 16.417969 10.6875 16.3125 L 10.6875 15.1875 L 11.0625 15.1875 L 11.0625 16.3125 C 11.0625 16.417969 11.144531 16.5 11.25 16.5 C 11.355469 16.5 11.4375 16.417969 11.4375 16.3125 L 11.4375 15.1875 L 11.8125 15.1875 L 11.8125 16.3125 C 11.8125 16.417969 11.894531 16.5 12 16.5 C 12.105469 16.5 12.1875 16.417969 12.1875 16.3125 L 12.1875 15.1875 L 12.5625 15.1875 L 12.5625 16.3125 C 12.5625 16.417969 12.644531 16.5 12.75 16.5 C 12.855469 16.5 12.9375 16.417969 12.9375 16.3125 L 12.9375 15.1875 L 13.3125 15.1875 L 13.3125 16.3125 C 13.3125 16.417969 13.394531 16.5 13.5 16.5 C 13.605469 16.5 13.6875 16.417969 13.6875 16.3125 L 13.6875 15.1875 L 14.0625 15.1875 L 14.0625 16.3125 C 14.0625 16.417969 14.144531 16.5 14.25 16.5 C 14.355469 16.5 14.4375 16.417969 14.4375 16.3125 L 14.4375 15.1875 L 14.8125 15.1875 L 14.8125 16.3125 C 14.8125 16.417969 14.894531 16.5 15 16.5 C 15.105469 16.5 15.1875 16.417969 15.1875 16.3125 L 15.1875 15.1875 L 15.5625 15.1875 L 15.5625 16.3125 C 15.5625 16.417969 15.644531 16.5 15.75 16.5 C 15.855469 16.5 15.9375 16.417969 15.9375 16.3125 L 15.9375 15.1875 L 16.3125 15.1875 L 16.3125 16.3125 C 16.3125 16.417969 16.394531 16.5 16.5 16.5 C 16.605469 16.5 16.6875 16.417969 16.6875 16.3125 L 16.6875 15.1875 L 17.8125 15.1875 C 17.917969 15.1875 18 15.105469 18 15 C 18 14.894531 17.917969 14.8125 17.8125 14.8125 L 16.6875 14.8125 L 16.6875 14.4375 L 17.8125 14.4375 C 17.917969 14.4375 18 14.355469 18 14.25 C 18 14.144531 17.917969 14.0625 17.8125 14.0625 L 16.6875 14.0625 L 16.6875 13.6875 L 17.8125 13.6875 C 17.917969 13.6875 18 13.605469 18 13.5 C 18 13.394531 17.917969 13.3125 17.8125 13.3125 L 16.6875 13.3125 L 16.6875 12.9375 L 17.8125 12.9375 C 17.917969 12.9375 18 12.855469 18 12.75 C 18 12.644531 17.917969 12.5625 17.8125 12.5625 L 16.6875 12.5625 L 16.6875 12.1875 L 17.8125 12.1875 C 17.917969 12.1875 18 12.105469 18 12 C 18 11.894531 17.917969 11.8125 17.8125 11.8125 L 16.6875 11.8125 L 16.6875 11.4375 L 17.8125 11.4375 C 17.917969 11.4375 18 11.355469 18 11.25 C 18 11.144531 17.917969 11.0625 17.8125 11.0625 L 16.6875 11.0625 L 16.6875 10.6875 L 17.8125 10.6875 C 17.917969 10.6875 18 10.605469 18 10.5 C 18 10.394531 17.917969 10.3125 17.8125 10.3125 L 16.6875 10.3125 L 16.6875 9.9375 L 17.8125 9.9375 C 17.917969 9.9375 18 9.855469 18 9.75 C 18 9.644531 17.917969 9.5625 17.8125 9.5625 L 16.6875 9.5625 L 16.6875 9.1875 L 17.8125 9.1875 C 17.917969 9.1875 18 9.105469 18 9 C 18 8.894531 17.917969 8.8125 17.8125 8.8125 L 16.6875 8.8125 L 16.6875 7.6875 C 16.6875 7.582031 16.605469 7.5 16.5 7.5 C 16.394531 7.5 16.3125 7.582031 16.3125 7.6875 L 16.3125 8.8125 L 15.9375 8.8125 L 15.9375 7.6875 C 15.9375 7.582031 15.855469 7.5 15.75 7.5 C 15.644531 7.5 15.5625 7.582031 15.5625 7.6875 L 15.5625 8.8125 L 15.1875 8.8125 L 15.1875 7.6875 C 15.1875 7.582031 15.105469 7.5 15 7.5 C 14.894531 7.5 14.8125 7.582031 14.8125 7.6875 L 14.8125 8.8125 L 14.4375 8.8125 L 14.4375 7.6875 C 14.4375 7.582031 14.355469 7.5 14.25 7.5 C 14.144531 7.5 14.0625 7.582031 14.0625 7.6875 L 14.0625 8.8125 L 13.6875 8.8125 L 13.6875 7.6875 C 13.6875 7.582031 13.605469 7.5 13.5 7.5 C 13.394531 7.5 13.3125 7.582031 13.3125 7.6875 L 13.3125 8.8125 L 12.9375 8.8125 L 12.9375 7.6875 C 12.9375 7.582031 12.855469 7.5 12.75 7.5 C 12.644531 7.5 12.5625 7.582031 12.5625 7.6875 L 12.5625 8.8125 L 12.1875 8.8125 L 12.1875 7.6875 C 12.1875 7.582031 12.105469 7.5 12 7.5 C 11.894531 7.5 11.8125 7.582031 11.8125 7.6875 L 11.8125 8.8125 L 11.4375 8.8125 L 11.4375 7.6875 C 11.4375 7.582031 11.355469 7.5 11.25 7.5 C 11.144531 7.5 11.0625 7.582031 11.0625 7.6875 L 11.0625 8.8125 L 10.6875 8.8125 L 10.6875 7.6875 C 10.6875 7.582031 10.605469 7.5 10.5 7.5 Z M 10.6875 9.1875 L 11.0625 9.1875 L 11.0625 9.5625 L 10.6875 9.5625 Z M 11.4375 9.1875 L 11.8125 9.1875 L 11.8125 9.5625 L 11.4375 9.5625 Z M 12.1875 9.1875 L 12.5625 9.1875 L 12.5625 9.5625 L 12.1875 9.5625 Z M 12.9375 9.1875 L 13.3125 9.1875 L 13.3125 9.5625 L 12.9375 9.5625 Z M 13.6875 9.1875 L 14.0625 9.1875 L 14.0625 9.5625 L 13.6875 9.5625 Z M 14.4375 9.1875 L 14.8125 9.1875 L 14.8125 9.5625 L 14.4375 9.5625 Z M 15.1875 9.1875 L 15.5625 9.1875 L 15.5625 9.5625 L 15.1875 9.5625 Z M 15.9375 9.1875 L 16.3125 9.1875 L 16.3125 9.5625 L 15.9375 9.5625 Z M 10.6875 9.9375 L 11.0625 9.9375 L 11.0625 10.3125 L 10.6875 10.3125 Z M 11.4375 9.9375 L 11.8125 9.9375 L 11.8125 10.3125 L 11.4375 10.3125 Z M 12.1875 9.9375 L 12.5625 9.9375 L 12.5625 10.3125 L 12.1875 10.3125 Z M 12.9375 9.9375 L 13.3125 9.9375 L 13.3125 10.3125 L 12.9375 10.3125 Z M 13.6875 9.9375 L 14.0625 9.9375 L 14.0625 10.3125 L 13.6875 10.3125 Z M 14.4375 9.9375 L 14.8125 9.9375 L 14.8125 10.3125 L 14.4375 10.3125 Z M 15.1875 9.9375 L 15.5625 9.9375 L 15.5625 10.3125 L 15.1875 10.3125 Z M 15.9375 9.9375 L 16.3125 9.9375 L 16.3125 10.3125 L 15.9375 10.3125 Z M 10.6875 10.6875 L 11.0625 10.6875 L 11.0625 11.0625 L 10.6875 11.0625 Z M 11.4375 10.6875 L 11.8125 10.6875 L 11.8125 11.0625 L 11.4375 11.0625 Z M 12.1875 10.6875 L 12.5625 10.6875 L 12.5625 11.0625 L 12.1875 11.0625 Z M 12.9375 10.6875 L 13.3125 10.6875 L 13.3125 11.0625 L 12.9375 11.0625 Z M 13.6875 10.6875 L 14.0625 10.6875 L 14.0625 11.0625 L 13.6875 11.0625 Z M 14.4375 10.6875 L 14.8125 10.6875 L 14.8125 11.0625 L 14.4375 11.0625 Z M 15.1875 10.6875 L 15.5625 10.6875 L 15.5625 11.0625 L 15.1875 11.0625 Z M 15.9375 10.6875 L 16.3125 10.6875 L 16.3125 11.0625 L 15.9375 11.0625 Z M 10.6875 11.4375 L 11.0625 11.4375 L 11.0625 11.8125 L 10.6875 11.8125 Z M 11.4375 11.4375 L 11.8125 11.4375 L 11.8125 11.8125 L 11.4375 11.8125 Z M 12.1875 11.4375 L 12.5625 11.4375 L 12.5625 11.8125 L 12.1875 11.8125 Z M 12.9375 11.4375 L 13.3125 11.4375 L 13.3125 11.8125 L 12.9375 11.8125 Z M 13.6875 11.4375 L 14.0625 11.4375 L 14.0625 11.8125 L 13.6875 11.8125 Z M 14.4375 11.4375 L 14.8125 11.4375 L 14.8125 11.8125 L 14.4375 11.8125 Z M 15.1875 11.4375 L 15.5625 11.4375 L 15.5625 11.8125 L 15.1875 11.8125 Z M 15.9375 11.4375 L 16.3125 11.4375 L 16.3125 11.8125 L 15.9375 11.8125 Z M 10.6875 12.1875 L 11.0625 12.1875 L 11.0625 12.5625 L 10.6875 12.5625 Z M 11.4375 12.1875 L 11.8125 12.1875 L 11.8125 12.5625 L 11.4375 12.5625 Z M 12.1875 12.1875 L 12.5625 12.1875 L 12.5625 12.5625 L 12.1875 12.5625 Z M 12.9375 12.1875 L 13.3125 12.1875 L 13.3125 12.5625 L 12.9375 12.5625 Z M 13.6875 12.1875 L 14.0625 12.1875 L 14.0625 12.5625 L 13.6875 12.5625 Z M 14.4375 12.1875 L 14.8125 12.1875 L 14.8125 12.5625 L 14.4375 12.5625 Z M 15.1875 12.1875 L 15.5625 12.1875 L 15.5625 12.5625 L 15.1875 12.5625 Z M 15.9375 12.1875 L 16.3125 12.1875 L 16.3125 12.5625 L 15.9375 12.5625 Z M 10.6875 12.9375 L 11.0625 12.9375 L 11.0625 13.3125 L 10.6875 13.3125 Z M 11.4375 12.9375 L 11.8125 12.9375 L 11.8125 13.3125 L 11.4375 13.3125 Z M 12.1875 12.9375 L 12.5625 12.9375 L 12.5625 13.3125 L 12.1875 13.3125 Z M 12.9375 12.9375 L 13.3125 12.9375 L 13.3125 13.3125 L 12.9375 13.3125 Z M 13.6875 12.9375 L 14.0625 12.9375 L 14.0625 13.3125 L 13.6875 13.3125 Z M 14.4375 12.9375 L 14.8125 12.9375 L 14.8125 13.3125 L 14.4375 13.3125 Z M 15.1875 12.9375 L 15.5625 12.9375 L 15.5625 13.3125 L 15.1875 13.3125 Z M 15.9375 12.9375 L 16.3125 12.9375 L 16.3125 13.3125 L 15.9375 13.3125 Z M 10.6875 13.6875 L 11.0625 13.6875 L 11.0625 14.0625 L 10.6875 14.0625 Z M 11.4375 13.6875 L 11.8125 13.6875 L 11.8125 14.0625 L 11.4375 14.0625 Z M 12.1875 13.6875 L 12.5625 13.6875 L 12.5625 14.0625 L 12.1875 14.0625 Z M 12.9375 13.6875 L 13.3125 13.6875 L 13.3125 14.0625 L 12.9375 14.0625 Z M 13.6875 13.6875 L 14.0625 13.6875 L 14.0625 14.0625 L 13.6875 14.0625 Z M 14.4375 13.6875 L 14.8125 13.6875 L 14.8125 14.0625 L 14.4375 14.0625 Z M 15.1875 13.6875 L 15.5625 13.6875 L 15.5625 14.0625 L 15.1875 14.0625 Z M 15.9375 13.6875 L 16.3125 13.6875 L 16.3125 14.0625 L 15.9375 14.0625 Z M 10.6875 14.4375 L 11.0625 14.4375 L 11.0625 14.8125 L 10.6875 14.8125 Z M 11.4375 14.4375 L 11.8125 14.4375 L 11.8125 14.8125 L 11.4375 14.8125 Z M 12.1875 14.4375 L 12.5625 14.4375 L 12.5625 14.8125 L 12.1875 14.8125 Z M 12.9375 14.4375 L 13.3125 14.4375 L 13.3125 14.8125 L 12.9375 14.8125 Z M 13.6875 14.4375 L 14.0625 14.4375 L 14.0625 14.8125 L 13.6875 14.8125 Z M 14.4375 14.4375 L 14.8125 14.4375 L 14.8125 14.8125 L 14.4375 14.8125 Z M 15.1875 14.4375 L 15.5625 14.4375 L 15.5625 14.8125 L 15.1875 14.8125 Z M 15.9375 14.4375 L 16.3125 14.4375 L 16.3125 14.8125 L 15.9375 14.8125 Z M 15.9375 14.4375 "/>
<path style=" stroke:none;fill-rule:nonzero;fill:rgb(100%,100%,100%);fill-opacity:0.4;" d="M 5.25 6 C 4.417969 6 3.75 6.667969 3.75 7.5 L 3.75 7.875 C 3.75 7.042969 4.417969 6.375 5.25 6.375 L 21 6.375 C 21.832031 6.375 22.5 7.042969 22.5 7.875 L 22.5 7.5 C 22.5 6.667969 21.832031 6 21 6 Z M 5.25 6 "/>
<path style=" stroke:none;fill-rule:nonzero;fill:rgb(100%,100%,100%);fill-opacity:0.4;" d="M 10.5 7.5 C 10.394531 7.5 10.3125 7.582031 10.3125 7.6875 L 10.3125 7.875 C 10.3125 7.769531 10.394531 7.6875 10.5 7.6875 C 10.605469 7.6875 10.6875 7.769531 10.6875 7.875 L 10.6875 7.6875 C 10.6875 7.582031 10.605469 7.5 10.5 7.5 Z M 11.25 7.5 C 11.144531 7.5 11.0625 7.582031 11.0625 7.6875 L 11.0625 7.875 C 11.0625 7.769531 11.144531 7.6875 11.25 7.6875 C 11.355469 7.6875 11.4375 7.769531 11.4375 7.875 L 11.4375 7.6875 C 11.4375 7.582031 11.355469 7.5 11.25 7.5 Z M 12 7.5 C 11.894531 7.5 11.8125 7.582031 11.8125 7.6875 L 11.8125 7.875 C 11.8125 7.769531 11.894531 7.6875 12 7.6875 C 12.105469 7.6875 12.1875 7.769531 12.1875 7.875 L 12.1875 7.6875 C 12.1875 7.582031 12.105469 7.5 12 7.5 Z M 12.75 7.5 C 12.644531 7.5 12.5625 7.582031 12.5625 7.6875 L 12.5625 7.875 C 12.5625 7.769531 12.644531 7.6875 12.75 7.6875 C 12.855469 7.6875 12.9375 7.769531 12.9375 7.875 L 12.9375 7.6875 C 12.9375 7.582031 12.855469 7.5 12.75 7.5 Z M 13.5 7.5 C 13.394531 7.5 13.3125 7.582031 13.3125 7.6875 L 13.3125 7.875 C 13.3125 7.769531 13.394531 7.6875 13.5 7.6875 C 13.605469 7.6875 13.6875 7.769531 13.6875 7.875 L 13.6875 7.6875 C 13.6875 7.582031 13.605469 7.5 13.5 7.5 Z M 14.25 7.5 C 14.144531 7.5 14.0625 7.582031 14.0625 7.6875 L 14.0625 7.875 C 14.0625 7.769531 14.144531 7.6875 14.25 7.6875 C 14.355469 7.6875 14.4375 7.769531 14.4375 7.875 L 14.4375 7.6875 C 14.4375 7.582031 14.355469 7.5 14.25 7.5 Z M 15 7.5 C 14.894531 7.5 14.8125 7.582031 14.8125 7.6875 L 14.8125 7.875 C 14.8125 7.769531 14.894531 7.6875 15 7.6875 C 15.105469 7.6875 15.1875 7.769531 15.1875 7.875 L 15.1875 7.6875 C 15.1875 7.582031 15.105469 7.5 15 7.5 Z M 15.75 7.5 C 15.644531 7.5 15.5625 7.582031 15.5625 7.6875 L 15.5625 7.875 C 15.5625 7.769531 15.644531 7.6875 15.75 7.6875 C 15.855469 7.6875 15.9375 7.769531 15.9375 7.875 L 15.9375 7.6875 C 15.9375 7.582031 15.855469 7.5 15.75 7.5 Z M 16.5 7.5 C 16.394531 7.5 16.3125 7.582031 16.3125 7.6875 L 16.3125 7.875 C 16.3125 7.769531 16.394531 7.6875 16.5 7.6875 C 16.605469 7.6875 16.6875 7.769531 16.6875 7.875 L 16.6875 7.6875 C 16.6875 7.582031 16.605469 7.5 16.5 7.5 Z M 9.1875 8.8125 C 9.082031 8.8125 9 8.894531 9 9 C 9 9.035156 9.011719 9.066406 9.027344 9.09375 C 9.058594 9.039062 9.117188 9 9.1875 9 L 10.3125 9 L 10.3125 8.8125 Z M 10.6875 8.8125 L 10.6875 9 L 11.0625 9 L 11.0625 8.8125 Z M 11.4375 8.8125 L 11.4375 9 L 11.8125 9 L 11.8125 8.8125 Z M 12.1875 8.8125 L 12.1875 9 L 12.5625 9 L 12.5625 8.8125 Z M 12.9375 8.8125 L 12.9375 9 L 13.3125 9 L 13.3125 8.8125 Z M 13.6875 8.8125 L 13.6875 9 L 14.0625 9 L 14.0625 8.8125 Z M 14.4375 8.8125 L 14.4375 9 L 14.8125 9 L 14.8125 8.8125 Z M 15.1875 8.8125 L 15.1875 9 L 15.5625 9 L 15.5625 8.8125 Z M 15.9375 8.8125 L 15.9375 9 L 16.3125 9 L 16.3125 8.8125 Z M 16.6875 8.8125 L 16.6875 9 L 17.8125 9 C 17.882812 9 17.941406 9.039062 17.972656 9.09375 C 17.988281 9.066406 18 9.035156 18 9 C 18 8.894531 17.917969 8.8125 17.8125 8.8125 Z M 9.1875 9.5625 C 9.082031 9.5625 9 9.644531 9 9.75 C 9 9.785156 9.011719 9.816406 9.027344 9.84375 C 9.058594 9.789062 9.117188 9.75 9.1875 9.75 L 10.3125 9.75 L 10.3125 9.5625 Z M 10.6875 9.5625 L 10.6875 9.75 L 11.0625 9.75 L 11.0625 9.5625 Z M 11.4375 9.5625 L 11.4375 9.75 L 11.8125 9.75 L 11.8125 9.5625 Z M 12.1875 9.5625 L 12.1875 9.75 L 12.5625 9.75 L 12.5625 9.5625 Z M 12.9375 9.5625 L 12.9375 9.75 L 13.3125 9.75 L 13.3125 9.5625 Z M 13.6875 9.5625 L 13.6875 9.75 L 14.0625 9.75 L 14.0625 9.5625 Z M 14.4375 9.5625 L 14.4375 9.75 L 14.8125 9.75 L 14.8125 9.5625 Z M 15.1875 9.5625 L 15.1875 9.75 L 15.5625 9.75 L 15.5625 9.5625 Z M 15.9375 9.5625 L 15.9375 9.75 L 16.3125 9.75 L 16.3125 9.5625 Z M 16.6875 9.5625 L 16.6875 9.75 L 17.8125 9.75 C 17.882812 9.75 17.941406 9.789062 17.972656 9.84375 C 17.988281 9.816406 18 9.785156 18 9.75 C 18 9.644531 17.917969 9.5625 17.8125 9.5625 Z M 9.1875 10.3125 C 9.082031 10.3125 9 10.394531 9 10.5 C 9 10.535156 9.011719 10.566406 9.027344 10.59375 C 9.058594 10.539062 9.117188 10.5 9.1875 10.5 L 10.3125 10.5 L 10.3125 10.3125 Z M 10.6875 10.3125 L 10.6875 10.5 L 11.0625 10.5 L 11.0625 10.3125 Z M 11.4375 10.3125 L 11.4375 10.5 L 11.8125 10.5 L 11.8125 10.3125 Z M 12.1875 10.3125 L 12.1875 10.5 L 12.5625 10.5 L 12.5625 10.3125 Z M 12.9375 10.3125 L 12.9375 10.5 L 13.3125 10.5 L 13.3125 10.3125 Z M 13.6875 10.3125 L 13.6875 10.5 L 14.0625 10.5 L 14.0625 10.3125 Z M 14.4375 10.3125 L 14.4375 10.5 L 14.8125 10.5 L 14.8125 10.3125 Z M 15.1875 10.3125 L 15.1875 10.5 L 15.5625 10.5 L 15.5625 10.3125 Z M 15.9375 10.3125 L 15.9375 10.5 L 16.3125 10.5 L 16.3125 10.3125 Z M 16.6875 10.3125 L 16.6875 10.5 L 17.8125 10.5 C 17.882812 10.5 17.941406 10.539062 17.972656 10.59375 C 17.988281 10.566406 18 10.535156 18 10.5 C 18 10.394531 17.917969 10.3125 17.8125 10.3125 Z M 9.1875 11.0625 C 9.082031 11.0625 9 11.144531 9 11.25 C 9 11.285156 9.011719 11.316406 9.027344 11.34375 C 9.058594 11.289062 9.117188 11.25 9.1875 11.25 L 10.3125 11.25 L 10.3125 11.0625 Z M 10.6875 11.0625 L 10.6875 11.25 L 11.0625 11.25 L 11.0625 11.0625 Z M 11.4375 11.0625 L 11.4375 11.25 L 11.8125 11.25 L 11.8125 11.0625 Z M 12.1875 11.0625 L 12.1875 11.25 L 12.5625 11.25 L 12.5625 11.0625 Z M 12.9375 11.0625 L 12.9375 11.25 L 13.3125 11.25 L 13.3125 11.0625 Z M 13.6875 11.0625 L 13.6875 11.25 L 14.0625 11.25 L 14.0625 11.0625 Z M 14.4375 11.0625 L 14.4375 11.25 L 14.8125 11.25 L 14.8125 11.0625 Z M 15.1875 11.0625 L 15.1875 11.25 L 15.5625 11.25 L 15.5625 11.0625 Z M 15.9375 11.0625 L 15.9375 11.25 L 16.3125 11.25 L 16.3125 11.0625 Z M 16.6875 11.0625 L 16.6875 11.25 L 17.8125 11.25 C 17.882812 11.25 17.941406 11.289062 17.972656 11.34375 C 17.988281 11.316406 18 11.285156 18 11.25 C 18 11.144531 17.917969 11.0625 17.8125 11.0625 Z M 9.1875 11.8125 C 9.082031 11.8125 9 11.894531 9 12 C 9 12.035156 9.011719 12.066406 9.027344 12.09375 C 9.058594 12.039062 9.117188 12 9.1875 12 L 10.3125 12 L 10.3125 11.8125 Z M 10.6875 11.8125 L 10.6875 12 L 11.0625 12 L 11.0625 11.8125 Z M 11.4375 11.8125 L 11.4375 12 L 11.8125 12 L 11.8125 11.8125 Z M 12.1875 11.8125 L 12.1875 12 L 12.5625 12 L 12.5625 11.8125 Z M 12.9375 11.8125 L 12.9375 12 L 13.3125 12 L 13.3125 11.8125 Z M 13.6875 11.8125 L 13.6875 12 L 14.0625 12 L 14.0625 11.8125 Z M 14.4375 11.8125 L 14.4375 12 L 14.8125 12 L 14.8125 11.8125 Z M 15.1875 11.8125 L 15.1875 12 L 15.5625 12 L 15.5625 11.8125 Z M 15.9375 11.8125 L 15.9375 12 L 16.3125 12 L 16.3125 11.8125 Z M 16.6875 11.8125 L 16.6875 12 L 17.8125 12 C 17.882812 12 17.941406 12.039062 17.972656 12.09375 C 17.988281 12.066406 18 12.035156 18 12 C 18 11.894531 17.917969 11.8125 17.8125 11.8125 Z M 9.1875 12.5625 C 9.082031 12.5625 9 12.644531 9 12.75 C 9 12.785156 9.011719 12.816406 9.027344 12.84375 C 9.058594 12.789062 9.117188 12.75 9.1875 12.75 L 10.3125 12.75 L 10.3125 12.5625 Z M 10.6875 12.5625 L 10.6875 12.75 L 11.0625 12.75 L 11.0625 12.5625 Z M 11.4375 12.5625 L 11.4375 12.75 L 11.8125 12.75 L 11.8125 12.5625 Z M 12.1875 12.5625 L 12.1875 12.75 L 12.5625 12.75 L 12.5625 12.5625 Z M 12.9375 12.5625 L 12.9375 12.75 L 13.3125 12.75 L 13.3125 12.5625 Z M 13.6875 12.5625 L 13.6875 12.75 L 14.0625 12.75 L 14.0625 12.5625 Z M 14.4375 12.5625 L 14.4375 12.75 L 14.8125 12.75 L 14.8125 12.5625 Z M 15.1875 12.5625 L 15.1875 12.75 L 15.5625 12.75 L 15.5625 12.5625 Z M 15.9375 12.5625 L 15.9375 12.75 L 16.3125 12.75 L 16.3125 12.5625 Z M 16.6875 12.5625 L 16.6875 12.75 L 17.8125 12.75 C 17.882812 12.75 17.941406 12.789062 17.972656 12.84375 C 17.988281 12.816406 18 12.785156 18 12.75 C 18 12.644531 17.917969 12.5625 17.8125 12.5625 Z M 9.1875 13.3125 C 9.082031 13.3125 9 13.394531 9 13.5 C 9 13.535156 9.011719 13.566406 9.027344 13.59375 C 9.058594 13.539062 9.117188 13.5 9.1875 13.5 L 10.3125 13.5 L 10.3125 13.3125 Z M 10.6875 13.3125 L 10.6875 13.5 L 11.0625 13.5 L 11.0625 13.3125 Z M 11.4375 13.3125 L 11.4375 13.5 L 11.8125 13.5 L 11.8125 13.3125 Z M 12.1875 13.3125 L 12.1875 13.5 L 12.5625 13.5 L 12.5625 13.3125 Z M 12.9375 13.3125 L 12.9375 13.5 L 13.3125 13.5 L 13.3125 13.3125 Z M 13.6875 13.3125 L 13.6875 13.5 L 14.0625 13.5 L 14.0625 13.3125 Z M 14.4375 13.3125 L 14.4375 13.5 L 14.8125 13.5 L 14.8125 13.3125 Z M 15.1875 13.3125 L 15.1875 13.5 L 15.5625 13.5 L 15.5625 13.3125 Z M 15.9375 13.3125 L 15.9375 13.5 L 16.3125 13.5 L 16.3125 13.3125 Z M 16.6875 13.3125 L 16.6875 13.5 L 17.8125 13.5 C 17.882812 13.5 17.941406 13.539062 17.972656 13.59375 C 17.988281 13.566406 18 13.535156 18 13.5 C 18 13.394531 17.917969 13.3125 17.8125 13.3125 Z M 9.1875 14.0625 C 9.082031 14.0625 9 14.144531 9 14.25 C 9 14.285156 9.011719 14.316406 9.027344 14.34375 C 9.058594 14.289062 9.117188 14.25 9.1875 14.25 L 10.3125 14.25 L 10.3125 14.0625 Z M 10.6875 14.0625 L 10.6875 14.25 L 11.0625 14.25 L 11.0625 14.0625 Z M 11.4375 14.0625 L 11.4375 14.25 L 11.8125 14.25 L 11.8125 14.0625 Z M 12.1875 14.0625 L 12.1875 14.25 L 12.5625 14.25 L 12.5625 14.0625 Z M 12.9375 14.0625 L 12.9375 14.25 L 13.3125 14.25 L 13.3125 14.0625 Z M 13.6875 14.0625 L 13.6875 14.25 L 14.0625 14.25 L 14.0625 14.0625 Z M 14.4375 14.0625 L 14.4375 14.25 L 14.8125 14.25 L 14.8125 14.0625 Z M 15.1875 14.0625 L 15.1875 14.25 L 15.5625 14.25 L 15.5625 14.0625 Z M 15.9375 14.0625 L 15.9375 14.25 L 16.3125 14.25 L 16.3125 14.0625 Z M 16.6875 14.0625 L 16.6875 14.25 L 17.8125 14.25 C 17.882812 14.25 17.941406 14.289062 17.972656 14.34375 C 17.988281 14.316406 18 14.285156 18 14.25 C 18 14.144531 17.917969 14.0625 17.8125 14.0625 Z M 9.1875 14.8125 C 9.082031 14.8125 9 14.894531 9 15 C 9 15.035156 9.011719 15.066406 9.027344 15.09375 C 9.058594 15.039062 9.117188 15 9.1875 15 L 10.3125 15 L 10.3125 14.8125 Z M 10.6875 14.8125 L 10.6875 15 L 11.0625 15 L 11.0625 14.8125 Z M 11.4375 14.8125 L 11.4375 15 L 11.8125 15 L 11.8125 14.8125 Z M 12.1875 14.8125 L 12.1875 15 L 12.5625 15 L 12.5625 14.8125 Z M 12.9375 14.8125 L 12.9375 15 L 13.3125 15 L 13.3125 14.8125 Z M 13.6875 14.8125 L 13.6875 15 L 14.0625 15 L 14.0625 14.8125 Z M 14.4375 14.8125 L 14.4375 15 L 14.8125 15 L 14.8125 14.8125 Z M 15.1875 14.8125 L 15.1875 15 L 15.5625 15 L 15.5625 14.8125 Z M 15.9375 14.8125 L 15.9375 15 L 16.3125 15 L 16.3125 14.8125 Z M 16.6875 14.8125 L 16.6875 15 L 17.8125 15 C 17.882812 15 17.941406 15.039062 17.972656 15.09375 C 17.988281 15.066406 18 15.035156 18 15 C 18 14.894531 17.917969 14.8125 17.8125 14.8125 Z M 16.6875 14.8125 "/>
<path style=" stroke:none;fill-rule:nonzero;fill:rgb(87.843138%,87.843138%,87.843138%);fill-opacity:0.996078;" d="M 1.875 3 C 1.667969 3 1.5 3.167969 1.5 3.375 L 1.5 4.125 C 1.5 4.332031 1.667969 4.5 1.875 4.5 L 3.75 4.5 L 3.75 20.625 C 3.75 20.832031 3.917969 21 4.125 21 L 4.875 21 C 5.082031 21 5.25 20.832031 5.25 20.625 L 5.25 3.375 C 5.25 3.167969 5.082031 3 4.875 3 Z M 1.875 3 "/>
<path style=" stroke:none;fill-rule:nonzero;fill:rgb(100%,79.215688%,15.686275%);fill-opacity:0.996078;" d="M 8.429688 18.1875 C 8.328125 18.191406 8.25 18.273438 8.25 18.375 L 8.25 19.5 L 9 19.5 L 9 18.375 C 9 18.269531 8.917969 18.1875 8.8125 18.1875 L 8.4375 18.1875 C 8.433594 18.1875 8.429688 18.1875 8.429688 18.1875 Z M 8.429688 18.1875 "/>
<path style=" stroke:none;fill-rule:nonzero;fill:rgb(100%,100%,100%);fill-opacity:0.4;" d="M 8.429688 18.1875 C 8.328125 18.191406 8.25 18.273438 8.25 18.375 L 8.25 18.554688 C 8.253906 18.457031 8.332031 18.378906 8.429688 18.375 C 8.429688 18.375 8.433594 18.375 8.4375 18.375 L 8.8125 18.375 C 8.914062 18.375 8.996094 18.453125 9 18.554688 L 9 18.375 C 9 18.269531 8.917969 18.1875 8.8125 18.1875 L 8.4375 18.1875 C 8.433594 18.1875 8.429688 18.1875 8.429688 18.1875 Z M 8.429688 18.1875 "/>
<path style=" stroke:none;fill-rule:nonzero;fill:rgb(100%,79.215688%,15.686275%);fill-opacity:0.996078;" d="M 9.929688 18.1875 C 9.828125 18.191406 9.75 18.273438 9.75 18.375 L 9.75 19.5 L 10.5 19.5 L 10.5 18.375 C 10.5 18.269531 10.417969 18.1875 10.3125 18.1875 L 9.9375 18.1875 C 9.933594 18.1875 9.929688 18.1875 9.929688 18.1875 Z M 9.929688 18.1875 "/>
<path style=" stroke:none;fill-rule:nonzero;fill:rgb(100%,100%,100%);fill-opacity:0.4;" d="M 9.929688 18.1875 C 9.828125 18.191406 9.75 18.273438 9.75 18.375 L 9.75 18.554688 C 9.753906 18.457031 9.832031 18.378906 9.929688 18.375 C 9.929688 18.375 9.933594 18.375 9.9375 18.375 L 10.3125 18.375 C 10.414062 18.375 10.496094 18.453125 10.5 18.554688 L 10.5 18.375 C 10.5 18.269531 10.417969 18.1875 10.3125 18.1875 L 9.9375 18.1875 C 9.933594 18.1875 9.929688 18.1875 9.929688 18.1875 Z M 9.929688 18.1875 "/>
<path style=" stroke:none;fill-rule:nonzero;fill:rgb(100%,79.215688%,15.686275%);fill-opacity:0.996078;" d="M 11.429688 18.1875 C 11.328125 18.191406 11.25 18.273438 11.25 18.375 L 11.25 19.5 L 12 19.5 L 12 18.375 C 12 18.269531 11.917969 18.1875 11.8125 18.1875 L 11.4375 18.1875 C 11.433594 18.1875 11.429688 18.1875 11.429688 18.1875 Z M 11.429688 18.1875 "/>
<path style=" stroke:none;fill-rule:nonzero;fill:rgb(100%,100%,100%);fill-opacity:0.4;" d="M 11.429688 18.1875 C 11.328125 18.191406 11.25 18.273438 11.25 18.375 L 11.25 18.554688 C 11.253906 18.457031 11.332031 18.378906 11.429688 18.375 C 11.429688 18.375 11.433594 18.375 11.4375 18.375 L 11.8125 18.375 C 11.914062 18.375 11.996094 18.453125 12 18.554688 L 12 18.375 C 12 18.269531 11.917969 18.1875 11.8125 18.1875 L 11.4375 18.1875 C 11.433594 18.1875 11.429688 18.1875 11.429688 18.1875 Z M 11.429688 18.1875 "/>
<path style=" stroke:none;fill-rule:nonzero;fill:rgb(100%,79.215688%,15.686275%);fill-opacity:0.996078;" d="M 12.929688 18.1875 C 12.828125 18.191406 12.75 18.273438 12.75 18.375 L 12.75 19.5 L 13.5 19.5 L 13.5 18.375 C 13.5 18.269531 13.417969 18.1875 13.3125 18.1875 L 12.9375 18.1875 C 12.933594 18.1875 12.929688 18.1875 12.929688 18.1875 Z M 12.929688 18.1875 "/>
<path style=" stroke:none;fill-rule:nonzero;fill:rgb(100%,100%,100%);fill-opacity:0.4;" d="M 12.929688 18.1875 C 12.828125 18.191406 12.75 18.273438 12.75 18.375 L 12.75 18.554688 C 12.753906 18.457031 12.832031 18.378906 12.929688 18.375 C 12.929688 18.375 12.933594 18.375 12.9375 18.375 L 13.3125 18.375 C 13.414062 18.375 13.496094 18.453125 13.5 18.554688 L 13.5 18.375 C 13.5 18.269531 13.417969 18.1875 13.3125 18.1875 L 12.9375 18.1875 C 12.933594 18.1875 12.929688 18.1875 12.929688 18.1875 Z M 12.929688 18.1875 "/>
<path style=" stroke:none;fill-rule:nonzero;fill:rgb(100%,79.215688%,15.686275%);fill-opacity:0.996078;" d="M 16.679688 18.1875 C 16.578125 18.191406 16.5 18.273438 16.5 18.375 L 16.5 19.5 L 17.25 19.5 L 17.25 18.375 C 17.25 18.269531 17.167969 18.1875 17.0625 18.1875 L 16.6875 18.1875 C 16.683594 18.1875 16.679688 18.1875 16.679688 18.1875 Z M 16.679688 18.1875 "/>
<path style=" stroke:none;fill-rule:nonzero;fill:rgb(100%,100%,100%);fill-opacity:0.4;" d="M 16.679688 18.1875 C 16.578125 18.191406 16.5 18.273438 16.5 18.375 L 16.5 18.554688 C 16.503906 18.457031 16.582031 18.378906 16.679688 18.375 C 16.679688 18.375 16.683594 18.375 16.6875 18.375 L 17.0625 18.375 C 17.164062 18.375 17.246094 18.453125 17.25 18.554688 L 17.25 18.375 C 17.25 18.269531 17.167969 18.1875 17.0625 18.1875 L 16.6875 18.1875 C 16.683594 18.1875 16.679688 18.1875 16.679688 18.1875 Z M 16.679688 18.1875 "/>
<path style=" stroke:none;fill-rule:nonzero;fill:rgb(100%,79.215688%,15.686275%);fill-opacity:0.996078;" d="M 18.179688 18.1875 C 18.078125 18.191406 18 18.273438 18 18.375 L 18 19.5 L 18.75 19.5 L 18.75 18.375 C 18.75 18.269531 18.667969 18.1875 18.5625 18.1875 L 18.1875 18.1875 C 18.183594 18.1875 18.179688 18.1875 18.179688 18.1875 Z M 18.179688 18.1875 "/>
<path style=" stroke:none;fill-rule:nonzero;fill:rgb(100%,100%,100%);fill-opacity:0.4;" d="M 18.179688 18.1875 C 18.078125 18.191406 18 18.273438 18 18.375 L 18 18.554688 C 18.003906 18.457031 18.082031 18.378906 18.179688 18.375 C 18.179688 18.375 18.183594 18.375 18.1875 18.375 L 18.5625 18.375 C 18.664062 18.375 18.746094 18.453125 18.75 18.554688 L 18.75 18.375 C 18.75 18.269531 18.667969 18.1875 18.5625 18.1875 L 18.1875 18.1875 C 18.183594 18.1875 18.179688 18.1875 18.179688 18.1875 Z M 18.179688 18.1875 "/>
<path style=" stroke:none;fill-rule:nonzero;fill:rgb(0%,0%,0%);fill-opacity:0.4;" d="M 7.5 18.375 L 7.5 18.75 C 7.5 19.164062 7.835938 19.5 8.25 19.5 L 13.5 19.5 C 13.914062 19.5 14.25 19.164062 14.25 18.75 L 14.25 18.375 C 14.25 18.789062 13.914062 19.125 13.5 19.125 L 8.25 19.125 C 7.835938 19.125 7.5 18.789062 7.5 18.375 Z M 7.5 18.375 "/>
<path style=" stroke:none;fill-rule:nonzero;fill:rgb(0%,0%,0%);fill-opacity:0.4;" d="M 15.75 18.375 L 15.75 18.75 C 15.75 19.164062 16.085938 19.5 16.5 19.5 L 18.75 19.5 C 19.164062 19.5 19.5 19.164062 19.5 18.75 L 19.5 18.375 C 19.5 18.789062 19.164062 19.125 18.75 19.125 L 16.5 19.125 C 16.085938 19.125 15.75 18.789062 15.75 18.375 Z M 15.75 18.375 "/>
<path style=" stroke:none;fill-rule:nonzero;fill:rgb(0%,0%,0%);fill-opacity:0.2;" d="M 7.5 18 L 14.25 18 L 14.25 18.375 L 7.5 18.375 Z M 7.5 18 "/>
<path style=" stroke:none;fill-rule:nonzero;fill:rgb(0%,0%,0%);fill-opacity:0.2;" d="M 15.75 18 L 19.5 18 L 19.5 18.375 L 15.75 18.375 Z M 15.75 18 "/>
<path style=" stroke:none;fill-rule:nonzero;fill:rgb(100%,100%,100%);fill-opacity:0.6;" d="M 1.875 3 C 1.667969 3 1.5 3.167969 1.5 3.375 L 1.5 3.75 C 1.5 3.542969 1.667969 3.375 1.875 3.375 L 4.875 3.375 C 5.082031 3.375 5.25 3.542969 5.25 3.75 L 5.25 3.375 C 5.25 3.167969 5.082031 3 4.875 3 Z M 1.875 3 "/>
<path style=" stroke:none;fill-rule:nonzero;fill:rgb(0%,0%,0%);fill-opacity:0.4;" d="M 1.5 3.75 L 1.5 4.125 C 1.5 4.332031 1.667969 4.5 1.875 4.5 L 3.75 4.5 L 3.75 4.125 L 1.875 4.125 C 1.667969 4.125 1.5 3.957031 1.5 3.75 Z M 3.75 20.25 L 3.75 20.625 C 3.75 20.832031 3.917969 21 4.125 21 L 4.875 21 C 5.082031 21 5.25 20.832031 5.25 20.625 L 5.25 20.25 C 5.25 20.457031 5.082031 20.625 4.875 20.625 L 4.125 20.625 C 3.917969 20.625 3.75 20.457031 3.75 20.25 Z M 3.75 20.25 "/>
<path style=" stroke:none;fill-rule:nonzero;fill:rgb(38.039216%,38.039216%,38.039216%);fill-opacity:1;" d="M 10.5 8.25 L 16.5 8.25 C 16.914062 8.25 17.25 8.585938 17.25 9 L 17.25 15 C 17.25 15.414062 16.914062 15.75 16.5 15.75 L 10.5 15.75 C 10.085938 15.75 9.75 15.414062 9.75 15 L 9.75 9 C 9.75 8.585938 10.085938 8.25 10.5 8.25 Z M 10.5 8.25 "/>
<path style=" stroke:none;fill-rule:nonzero;fill:rgb(100%,100%,100%);fill-opacity:0.4;" d="M 10.5 8.25 C 10.085938 8.25 9.75 8.585938 9.75 9 L 9.75 9.375 C 9.75 8.960938 10.085938 8.625 10.5 8.625 L 16.5 8.625 C 16.914062 8.625 17.25 8.960938 17.25 9.375 L 17.25 9 C 17.25 8.585938 16.914062 8.25 16.5 8.25 Z M 10.5 8.25 "/>
<path style=" stroke:none;fill-rule:nonzero;fill:rgb(0%,0%,0%);fill-opacity:0.4;" d="M 10.5 16.125 C 10.085938 16.125 9.75 15.789062 9.75 15.375 L 9.75 15 C 9.75 15.414062 10.085938 15.75 10.5 15.75 L 16.5 15.75 C 16.914062 15.75 17.25 15.414062 17.25 15 L 17.25 15.375 C 17.25 15.789062 16.914062 16.125 16.5 16.125 Z M 10.5 16.125 "/>
<path style=" stroke:none;fill-rule:nonzero;fill:rgb(38.039216%,38.039216%,38.039216%);fill-opacity:1;" d="M 19.875 8.25 L 20.625 8.25 C 20.832031 8.25 21 8.417969 21 8.625 L 21 10.875 C 21 11.082031 20.832031 11.25 20.625 11.25 L 19.875 11.25 C 19.667969 11.25 19.5 11.082031 19.5 10.875 L 19.5 8.625 C 19.5 8.417969 19.667969 8.25 19.875 8.25 Z M 19.875 8.25 "/>
<path style=" stroke:none;fill-rule:nonzero;fill:rgb(100%,100%,100%);fill-opacity:0.4;" d="M 19.875 8.25 C 19.667969 8.25 19.5 8.417969 19.5 8.625 L 19.5 9 C 19.5 8.792969 19.667969 8.625 19.875 8.625 L 20.625 8.625 C 20.832031 8.625 21 8.792969 21 9 L 21 8.625 C 21 8.417969 20.832031 8.25 20.625 8.25 Z M 19.875 8.25 "/>
<path style=" stroke:none;fill-rule:nonzero;fill:rgb(0%,0%,0%);fill-opacity:0.4;" d="M 19.875 11.625 C 19.667969 11.625 19.5 11.457031 19.5 11.25 L 19.5 10.875 C 19.5 11.082031 19.667969 11.25 19.875 11.25 L 20.625 11.25 C 20.832031 11.25 21 11.082031 21 10.875 L 21 11.25 C 21 11.457031 20.832031 11.625 20.625 11.625 Z M 19.875 11.625 "/>
<path style=" stroke:none;fill-rule:nonzero;fill:url(#linear0);" d="M 1.875 3 C 1.667969 3 1.5 3.167969 1.5 3.375 L 1.5 4.125 C 1.5 4.332031 1.667969 4.5 1.875 4.5 L 3.75 4.5 L 3.75 20.625 C 3.75 20.832031 3.917969 21 4.125 21 L 4.875 21 C 5.082031 21 5.25 20.832031 5.25 20.625 L 5.25 18 L 7.5 18 L 7.5 18.75 C 7.5 19.164062 7.835938 19.5 8.25 19.5 L 13.5 19.5 C 13.914062 19.5 14.25 19.164062 14.25 18.75 L 14.25 18 L 15.75 18 L 15.75 18.75 C 15.75 19.164062 16.085938 19.5 16.5 19.5 L 18.75 19.5 C 19.164062 19.5 19.5 19.164062 19.5 18.75 L 19.5 18 L 21 18 C 21.832031 18 22.5 17.332031 22.5 16.5 L 22.5 7.5 C 22.5 6.667969 21.832031 6 21 6 L 5.25 6 L 5.25 3.375 C 5.25 3.167969 5.082031 3 4.875 3 Z M 1.875 3 "/>
<path style=" stroke:none;fill-rule:nonzero;fill:rgb(0%,0%,0%);fill-opacity:0.2;" d="M 1.5 4.125 L 1.5 4.6875 C 1.5 4.894531 1.667969 5.0625 1.875 5.0625 L 3.75 5.0625 L 3.75 4.5 L 1.875 4.5 C 1.667969 4.5 1.5 4.332031 1.5 4.125 Z M 22.5 16.5 C 22.5 17.332031 21.832031 18 21 18 L 19.5 18 L 19.5 18.5625 L 21 18.5625 C 21.832031 18.5625 22.5 17.894531 22.5 17.0625 Z M 5.25 18 L 5.25 18.5625 L 7.5 18.5625 L 7.5 18 Z M 14.25 18 L 14.25 18.5625 L 15.75 18.5625 L 15.75 18 Z M 7.5 18.75 L 7.5 19.3125 C 7.5 19.726562 7.835938 20.0625 8.25 20.0625 L 13.5 20.0625 C 13.914062 20.0625 14.25 19.726562 14.25 19.3125 L 14.25 18.75 C 14.25 19.164062 13.914062 19.5 13.5 19.5 L 8.25 19.5 C 7.835938 19.5 7.5 19.164062 7.5 18.75 Z M 15.75 18.75 L 15.75 19.3125 C 15.75 19.726562 16.085938 20.0625 16.5 20.0625 L 18.75 20.0625 C 19.164062 20.0625 19.5 19.726562 19.5 19.3125 L 19.5 18.75 C 19.5 19.164062 19.164062 19.5 18.75 19.5 L 16.5 19.5 C 16.085938 19.5 15.75 19.164062 15.75 18.75 Z M 3.75 20.625 L 3.75 21.1875 C 3.75 21.394531 3.917969 21.5625 4.125 21.5625 L 4.875 21.5625 C 5.082031 21.5625 5.25 21.394531 5.25 21.1875 L 5.25 20.625 C 5.25 20.832031 5.082031 21 4.875 21 L 4.125 21 C 3.917969 21 3.75 20.832031 3.75 20.625 Z M 3.75 20.625 "/>
<path style=" stroke:none;fill-rule:nonzero;fill:rgb(96.078432%,96.078432%,96.078432%);fill-opacity:1;" d="M 15.5625 12 C 15.25 12 15 12.25 15 12.5625 L 15 18.214844 C 14.660156 18.078125 14.277344 18 13.875 18 C 12.421875 18 11.25 19.003906 11.25 20.25 C 11.25 21.496094 12.421875 22.5 13.875 22.5 C 15.328125 22.5 16.5 21.496094 16.5 20.25 L 16.5 14.25 L 21 14.25 L 21 17.464844 C 20.660156 17.328125 20.277344 17.25 19.875 17.25 C 18.421875 17.25 17.25 18.253906 17.25 19.5 C 17.25 20.746094 18.421875 21.75 19.875 21.75 C 21.328125 21.75 22.5 20.746094 22.5 19.5 C 22.5 19.4375 22.496094 19.375 22.492188 19.3125 L 22.5 19.3125 L 22.5 12.5625 C 22.5 12.25 22.25 12 21.9375 12 Z M 15.5625 12 "/>
<path style=" stroke:none;fill-rule:nonzero;fill:rgb(100%,100%,100%);fill-opacity:0.4;" d="M 15.5625 12 C 15.25 12 15 12.25 15 12.5625 L 15 12.9375 C 15 12.625 15.25 12.375 15.5625 12.375 L 21.9375 12.375 C 22.25 12.375 22.5 12.625 22.5 12.9375 L 22.5 12.5625 C 22.5 12.25 22.25 12 21.9375 12 Z M 19.875 17.25 C 18.421875 17.25 17.25 18.253906 17.25 19.5 C 17.25 19.5625 17.253906 19.625 17.257812 19.6875 C 17.371094 18.53125 18.496094 17.625 19.875 17.625 C 20.277344 17.625 20.660156 17.703125 21 17.839844 L 21 17.464844 C 20.660156 17.328125 20.277344 17.25 19.875 17.25 Z M 13.875 18 C 12.421875 18 11.25 19.003906 11.25 20.25 C 11.25 20.3125 11.253906 20.375 11.257812 20.4375 C 11.371094 19.28125 12.496094 18.375 13.875 18.375 C 14.277344 18.375 14.660156 18.453125 15 18.589844 L 15 18.214844 C 14.660156 18.078125 14.277344 18 13.875 18 Z M 13.875 18 "/>
<path style=" stroke:none;fill-rule:nonzero;fill:rgb(0%,0%,0%);fill-opacity:0.4;" d="M 16.5 13.875 L 16.5 14.25 L 21 14.25 L 21 13.875 Z M 22.492188 18.9375 C 22.496094 19 22.5 19.0625 22.5 19.125 L 22.5 18.9375 Z M 22.5 19.125 C 22.5 20.371094 21.328125 21.375 19.875 21.375 C 18.496094 21.375 17.371094 20.46875 17.257812 19.3125 C 17.253906 19.375 17.25 19.4375 17.25 19.5 C 17.25 20.746094 18.421875 21.75 19.875 21.75 C 21.328125 21.75 22.5 20.746094 22.5 19.5 C 22.5 19.4375 22.496094 19.375 22.492188 19.3125 L 22.5 19.3125 Z M 16.5 19.875 C 16.5 21.121094 15.328125 22.125 13.875 22.125 C 12.496094 22.125 11.371094 21.21875 11.257812 20.0625 C 11.253906 20.125 11.25 20.1875 11.25 20.25 C 11.25 21.496094 12.421875 22.5 13.875 22.5 C 15.328125 22.5 16.5 21.496094 16.5 20.25 Z M 16.5 19.875 "/>
<path style=" stroke:none;fill-rule:nonzero;fill:rgb(0%,0%,0%);fill-opacity:0.2;" d="M 16.5 14.25 L 16.5 14.8125 L 21 14.8125 L 21 14.25 Z M 22.492188 19.3125 C 22.496094 19.375 22.5 19.4375 22.5 19.5 L 22.5 19.3125 Z M 22.5 19.5 C 22.5 20.746094 21.328125 21.75 19.875 21.75 C 18.53125 21.75 17.429688 20.894531 17.269531 19.78125 C 17.257812 19.875 17.25 19.96875 17.25 20.0625 C 17.25 21.308594 18.421875 22.3125 19.875 22.3125 C 21.328125 22.3125 22.5 21.308594 22.5 20.0625 C 22.5 20 22.496094 19.9375 22.492188 19.875 L 22.5 19.875 Z M 16.5 20.25 C 16.5 21.496094 15.328125 22.5 13.875 22.5 C 12.53125 22.5 11.429688 21.644531 11.269531 20.53125 C 11.257812 20.625 11.25 20.71875 11.25 20.8125 C 11.25 22.058594 12.421875 23.0625 13.875 23.0625 C 15.328125 23.0625 16.5 22.058594 16.5 20.8125 Z M 16.5 20.25 "/>
<path style=" stroke:none;fill-rule:nonzero;fill:url(#linear1);" d="M 15.5625 12 C 15.25 12 15 12.25 15 12.5625 L 15 18.214844 C 14.660156 18.078125 14.277344 18 13.875 18 C 12.421875 18 11.25 19.003906 11.25 20.25 C 11.25 21.496094 12.421875 22.5 13.875 22.5 C 15.328125 22.5 16.5 21.496094 16.5 20.25 L 16.5 14.25 L 21 14.25 L 21 17.464844 C 20.660156 17.328125 20.277344 17.25 19.875 17.25 C 18.421875 17.25 17.25 18.253906 17.25 19.5 C 17.25 20.746094 18.421875 21.75 19.875 21.75 C 21.328125 21.75 22.5 20.746094 22.5 19.5 C 22.5 19.4375 22.496094 19.375 22.492188 19.3125 L 22.5 19.3125 L 22.5 12.5625 C 22.5 12.25 22.25 12 21.9375 12 Z M 15.5625 12 "/>
</g>
</svg>
