
<svg xmlns="http://www.w3.org/2000/svg" xmlns:xlink="http://www.w3.org/1999/xlink" width="24" height="24" viewBox="0 0 24 24" version="1.1">
<defs>
<linearGradient id="linear0" gradientUnits="userSpaceOnUse" x1="2.645833" y1="-211.03125" x2="14.287498" y2="-211.03125" gradientTransform="matrix(1.675018,0,0,0.708669,-2.181818,154.988892)">
<stop offset="0" style="stop-color:rgb(100%,100%,100%);stop-opacity:0;"/>
<stop offset="0.498862" style="stop-color:rgb(100%,100%,100%);stop-opacity:0.2;"/>
<stop offset="1" style="stop-color:rgb(95.686275%,26.274511%,21.176471%);stop-opacity:0;"/>
</linearGradient>
<linearGradient id="linear1" gradientUnits="userSpaceOnUse" x1="8.466666" y1="-200.183334" x2="8.466666" y2="-212.883331" gradientTransform="matrix(1.417323,0,0,1.417323,-1.500002,304.724425)">
<stop offset="0" style="stop-color:rgb(0%,0%,0%);stop-opacity:0.2;"/>
<stop offset="1" style="stop-color:rgb(100%,100%,100%);stop-opacity:0;"/>
</linearGradient>
<linearGradient id="linear2" gradientUnits="userSpaceOnUse" x1="9.657291" y1="-204.416672" x2="9.657291" y2="-208.649994" gradientTransform="matrix(1.417323,0,0,1.417323,-5.437501,302.05914)">
<stop offset="0" style="stop-color:rgb(0%,0%,0%);stop-opacity:0.2;"/>
<stop offset="1" style="stop-color:rgb(100%,100%,100%);stop-opacity:0;"/>
</linearGradient>
<linearGradient id="linear3" gradientUnits="userSpaceOnUse" x1="12.165949" y1="-199.12706" x2="12.165949" y2="-207.06456" gradientTransform="matrix(1.417323,0,0,1.417323,0.000331597,303.22737)">
<stop offset="0" style="stop-color:rgb(0%,0%,0%);stop-opacity:0.2;"/>
<stop offset="1" style="stop-color:rgb(100%,100%,100%);stop-opacity:0;"/>
</linearGradient>
</defs>
<g id="surface1">
<path style=" stroke:none;fill-rule:nonzero;fill:rgb(38.039216%,38.039216%,38.039216%);fill-opacity:1;" d="M 3 3 L 21 3 C 21.828125 3 22.5 3.671875 22.5 4.5 L 22.5 19.5 C 22.5 20.328125 21.828125 21 21 21 L 3 21 C 2.171875 21 1.5 20.328125 1.5 19.5 L 1.5 4.5 C 1.5 3.671875 2.171875 3 3 3 Z M 3 3 "/>
<path style=" stroke:none;fill-rule:nonzero;fill:url(#linear0);" d="M 12 5.25 C 6.597656 5.25 2.25 5.332031 2.25 5.4375 C 2.25 5.542969 6.597656 5.625 12 5.625 C 17.402344 5.625 21.75 5.542969 21.75 5.4375 C 21.75 5.332031 17.402344 5.25 12 5.25 Z M 12 6.375 C 6.597656 6.375 2.25 6.457031 2.25 6.5625 C 2.25 6.667969 6.597656 6.75 12 6.75 C 17.402344 6.75 21.75 6.667969 21.75 6.5625 C 21.75 6.457031 17.402344 6.375 12 6.375 Z M 12 7.5 C 6.597656 7.5 2.25 7.582031 2.25 7.6875 C 2.25 7.792969 6.597656 7.875 12 7.875 C 17.402344 7.875 21.75 7.792969 21.75 7.6875 C 21.75 7.582031 17.402344 7.5 12 7.5 Z M 12 8.625 C 6.597656 8.625 2.25 8.707031 2.25 8.8125 C 2.25 8.917969 6.597656 9 12 9 C 17.402344 9 21.75 8.917969 21.75 8.8125 C 21.75 8.707031 17.402344 8.625 12 8.625 Z M 12 9.75 C 6.597656 9.75 2.25 9.832031 2.25 9.9375 C 2.25 10.042969 6.597656 10.125 12 10.125 C 17.402344 10.125 21.75 10.042969 21.75 9.9375 C 21.75 9.832031 17.402344 9.75 12 9.75 Z M 12 10.875 C 6.597656 10.875 2.25 10.957031 2.25 11.0625 C 2.25 11.167969 6.597656 11.25 12 11.25 C 17.402344 11.25 21.75 11.167969 21.75 11.0625 C 21.75 10.957031 17.402344 10.875 12 10.875 Z M 12 12 C 6.597656 12 2.25 12.082031 2.25 12.1875 C 2.25 12.292969 6.597656 12.375 12 12.375 C 17.402344 12.375 21.75 12.292969 21.75 12.1875 C 21.75 12.082031 17.402344 12 12 12 Z M 12 13.125 C 6.597656 13.125 2.25 13.207031 2.25 13.3125 C 2.25 13.417969 6.597656 13.5 12 13.5 C 17.402344 13.5 21.75 13.417969 21.75 13.3125 C 21.75 13.207031 17.402344 13.125 12 13.125 Z M 12 14.25 C 6.597656 14.25 2.25 14.332031 2.25 14.4375 C 2.25 14.542969 6.597656 14.625 12 14.625 C 17.402344 14.625 21.75 14.542969 21.75 14.4375 C 21.75 14.332031 17.402344 14.25 12 14.25 Z M 12 15.375 C 6.597656 15.375 2.25 15.457031 2.25 15.5625 C 2.25 15.667969 6.597656 15.75 12 15.75 C 17.402344 15.75 21.75 15.667969 21.75 15.5625 C 21.75 15.457031 17.402344 15.375 12 15.375 Z M 12 16.5 C 6.597656 16.5 2.25 16.582031 2.25 16.6875 C 2.25 16.792969 6.597656 16.875 12 16.875 C 17.402344 16.875 21.75 16.792969 21.75 16.6875 C 21.75 16.582031 17.402344 16.5 12 16.5 Z M 12 17.625 C 6.597656 17.625 2.25 17.707031 2.25 17.8125 C 2.25 17.917969 6.597656 18 12 18 C 17.402344 18 21.75 17.917969 21.75 17.8125 C 21.75 17.707031 17.402344 17.625 12 17.625 Z M 12 18.75 C 6.597656 18.75 2.25 18.832031 2.25 18.9375 C 2.25 19.042969 6.597656 19.125 12 19.125 C 17.402344 19.125 21.75 19.042969 21.75 18.9375 C 21.75 18.832031 17.402344 18.75 12 18.75 Z M 12 18.75 "/>
<path style=" stroke:none;fill-rule:nonzero;fill:url(#linear1);" d="M 3 3 L 21 3 C 21.828125 3 22.5 3.671875 22.5 4.5 L 22.5 19.5 C 22.5 20.328125 21.828125 21 21 21 L 3 21 C 2.171875 21 1.5 20.328125 1.5 19.5 L 1.5 4.5 C 1.5 3.671875 2.171875 3 3 3 Z M 3 3 "/>
<path style=" stroke:none;fill-rule:nonzero;fill:rgb(87.843138%,87.843138%,87.843138%);fill-opacity:1;" d="M 5.4375 6.335938 C 5.332031 6.335938 5.25 6.417969 5.25 6.523438 L 5.25 7.117188 C 4.480469 7.253906 3.984375 7.796875 3.984375 8.398438 C 3.984375 8.996094 4.480469 9.539062 5.25 9.675781 L 5.25 10.769531 C 4.949219 10.65625 4.8125 10.441406 4.8125 10.441406 C 4.757812 10.355469 4.671875 10.300781 4.574219 10.28125 C 4.476562 10.257812 4.375 10.28125 4.292969 10.335938 C 4.210938 10.390625 4.152344 10.476562 4.132812 10.574219 C 4.113281 10.671875 4.132812 10.773438 4.1875 10.855469 C 4.1875 10.855469 4.558594 11.386719 5.25 11.539062 L 5.25 12.148438 C 5.25 12.25 5.332031 12.335938 5.4375 12.335938 L 5.8125 12.335938 C 5.917969 12.335938 6 12.25 6 12.148438 L 6 11.550781 C 6.769531 11.417969 7.265625 10.875 7.265625 10.273438 C 7.265625 9.671875 6.769531 9.128906 6 8.992188 L 6 7.902344 C 6.300781 8.011719 6.4375 8.230469 6.4375 8.230469 C 6.550781 8.402344 6.785156 8.449219 6.957031 8.332031 C 7.128906 8.21875 7.175781 7.988281 7.0625 7.816406 C 7.0625 7.816406 6.695312 7.28125 6 7.128906 L 6 6.523438 C 6 6.417969 5.917969 6.335938 5.8125 6.335938 Z M 5.25 7.875 L 5.25 8.917969 C 4.855469 8.824219 4.734375 8.589844 4.734375 8.398438 C 4.734375 8.203125 4.855469 7.96875 5.25 7.875 Z M 6 9.75 C 6.394531 9.84375 6.515625 10.082031 6.515625 10.273438 C 6.515625 10.464844 6.394531 10.703125 6 10.792969 Z M 7.6875 11.585938 C 7.582031 11.585938 7.5 11.667969 7.5 11.773438 L 7.5 12.148438 C 7.5 12.25 7.582031 12.335938 7.6875 12.335938 L 9.5625 12.335938 C 9.667969 12.335938 9.75 12.25 9.75 12.148438 L 9.75 11.773438 C 9.75 11.667969 9.667969 11.585938 9.5625 11.585938 Z M 7.6875 11.585938 "/>
<path style=" stroke:none;fill-rule:nonzero;fill:url(#linear2);" d="M 5.4375 6.335938 C 5.332031 6.335938 5.25 6.417969 5.25 6.523438 L 5.25 7.117188 C 4.480469 7.253906 3.984375 7.796875 3.984375 8.398438 C 3.984375 8.996094 4.480469 9.539062 5.25 9.675781 L 5.25 10.769531 C 4.949219 10.65625 4.8125 10.441406 4.8125 10.441406 C 4.757812 10.355469 4.671875 10.300781 4.574219 10.28125 C 4.476562 10.257812 4.375 10.28125 4.292969 10.335938 C 4.210938 10.390625 4.152344 10.476562 4.132812 10.574219 C 4.113281 10.671875 4.132812 10.773438 4.1875 10.855469 C 4.1875 10.855469 4.558594 11.386719 5.25 11.539062 L 5.25 12.148438 C 5.25 12.25 5.332031 12.335938 5.4375 12.335938 L 5.8125 12.335938 C 5.917969 12.335938 6 12.25 6 12.148438 L 6 11.550781 C 6.769531 11.417969 7.265625 10.875 7.265625 10.273438 C 7.265625 9.671875 6.769531 9.128906 6 8.992188 L 6 7.902344 C 6.300781 8.011719 6.4375 8.230469 6.4375 8.230469 C 6.550781 8.402344 6.785156 8.449219 6.957031 8.332031 C 7.128906 8.21875 7.175781 7.988281 7.0625 7.816406 C 7.0625 7.816406 6.695312 7.28125 6 7.128906 L 6 6.523438 C 6 6.417969 5.917969 6.335938 5.8125 6.335938 Z M 5.25 7.875 L 5.25 8.917969 C 4.855469 8.824219 4.734375 8.589844 4.734375 8.398438 C 4.734375 8.203125 4.855469 7.96875 5.25 7.875 Z M 6 9.75 C 6.394531 9.84375 6.515625 10.082031 6.515625 10.273438 C 6.515625 10.464844 6.394531 10.703125 6 10.792969 Z M 7.6875 11.585938 C 7.582031 11.585938 7.5 11.667969 7.5 11.773438 L 7.5 12.148438 C 7.5 12.25 7.582031 12.335938 7.6875 12.335938 L 9.5625 12.335938 C 9.667969 12.335938 9.75 12.25 9.75 12.148438 L 9.75 11.773438 C 9.75 11.667969 9.667969 11.585938 9.5625 11.585938 Z M 7.6875 11.585938 "/>
<path style=" stroke:none;fill-rule:nonzero;fill:rgb(0%,0%,0%);fill-opacity:0.4;" d="M 5.25 7.875 C 4.855469 7.96875 4.734375 8.203125 4.734375 8.398438 C 4.734375 8.425781 4.742188 8.457031 4.75 8.492188 C 4.785156 8.320312 4.917969 8.140625 5.25 8.0625 Z M 6 7.902344 L 6 8.089844 C 6.300781 8.199219 6.4375 8.417969 6.4375 8.417969 C 6.550781 8.589844 6.785156 8.636719 6.957031 8.519531 C 7.089844 8.433594 7.152344 8.269531 7.113281 8.113281 C 7.089844 8.203125 7.035156 8.28125 6.957031 8.332031 C 6.785156 8.449219 6.550781 8.402344 6.4375 8.230469 C 6.4375 8.230469 6.300781 8.011719 6 7.902344 Z M 3.992188 8.492188 C 3.992188 8.523438 3.984375 8.550781 3.984375 8.582031 C 3.984375 9.183594 4.480469 9.726562 5.25 9.863281 L 5.25 9.675781 C 4.519531 9.546875 4.042969 9.050781 3.992188 8.488281 Z M 6 9.75 L 6 9.9375 C 6.332031 10.015625 6.464844 10.195312 6.5 10.367188 C 6.507812 10.335938 6.515625 10.304688 6.515625 10.273438 C 6.515625 10.082031 6.394531 9.84375 6 9.75 Z M 7.253906 10.367188 C 7.207031 10.929688 6.730469 11.425781 6 11.550781 L 6 11.738281 C 6.769531 11.605469 7.265625 11.0625 7.265625 10.460938 C 7.265625 10.429688 7.257812 10.398438 7.253906 10.367188 Z M 4.136719 10.742188 C 4.109375 10.84375 4.128906 10.953125 4.1875 11.042969 C 4.1875 11.042969 4.558594 11.574219 5.25 11.726562 L 5.25 11.539062 C 4.558594 11.386719 4.1875 10.855469 4.1875 10.855469 C 4.164062 10.820312 4.144531 10.78125 4.136719 10.742188 Z M 5.25 12.148438 L 5.25 12.335938 C 5.25 12.4375 5.332031 12.523438 5.4375 12.523438 L 5.8125 12.523438 C 5.917969 12.523438 6 12.4375 6 12.335938 L 6 12.148438 C 6 12.25 5.917969 12.335938 5.8125 12.335938 L 5.4375 12.335938 C 5.332031 12.335938 5.25 12.25 5.25 12.148438 Z M 7.5 12.148438 L 7.5 12.335938 C 7.5 12.4375 7.582031 12.523438 7.6875 12.523438 L 9.5625 12.523438 C 9.667969 12.523438 9.75 12.4375 9.75 12.335938 L 9.75 12.148438 C 9.75 12.25 9.667969 12.335938 9.5625 12.335938 L 7.6875 12.335938 C 7.582031 12.335938 7.5 12.25 7.5 12.148438 Z M 7.5 12.148438 "/>
<path style=" stroke:none;fill-rule:nonzero;fill:rgb(99.607843%,99.607843%,99.607843%);fill-opacity:0.4;" d="M 5.4375 6.335938 C 5.332031 6.335938 5.25 6.417969 5.25 6.523438 L 5.25 6.710938 C 5.25 6.605469 5.332031 6.523438 5.4375 6.523438 L 5.8125 6.523438 C 5.917969 6.523438 6 6.605469 6 6.710938 L 6 6.523438 C 6 6.417969 5.917969 6.335938 5.8125 6.335938 Z M 5.25 7.117188 C 4.480469 7.253906 3.984375 7.796875 3.984375 8.398438 C 3.984375 8.429688 3.992188 8.457031 3.992188 8.492188 C 4.042969 7.929688 4.519531 7.433594 5.25 7.304688 Z M 6 7.128906 L 6 7.316406 C 6.695312 7.46875 7.0625 8.003906 7.0625 8.003906 C 7.085938 8.035156 7.101562 8.074219 7.113281 8.113281 C 7.136719 8.011719 7.121094 7.902344 7.0625 7.816406 C 7.0625 7.816406 6.695312 7.28125 6 7.128906 Z M 4.75 8.488281 C 4.742188 8.523438 4.734375 8.554688 4.734375 8.582031 C 4.734375 8.777344 4.855469 9.011719 5.25 9.105469 L 5.25 8.917969 C 4.917969 8.839844 4.785156 8.660156 4.75 8.488281 Z M 6 8.992188 L 6 9.179688 C 6.730469 9.308594 7.207031 9.804688 7.253906 10.367188 C 7.257812 10.335938 7.265625 10.304688 7.265625 10.273438 C 7.265625 9.671875 6.769531 9.125 6 8.992188 Z M 4.492188 10.273438 C 4.417969 10.273438 4.351562 10.296875 4.292969 10.335938 C 4.160156 10.421875 4.097656 10.585938 4.136719 10.742188 C 4.160156 10.652344 4.214844 10.574219 4.292969 10.523438 C 4.375 10.464844 4.476562 10.445312 4.574219 10.464844 C 4.671875 10.488281 4.757812 10.542969 4.8125 10.628906 C 4.8125 10.628906 4.949219 10.84375 5.25 10.957031 L 5.25 10.769531 C 4.949219 10.65625 4.8125 10.441406 4.8125 10.441406 C 4.742188 10.332031 4.621094 10.269531 4.492188 10.273438 Z M 6.5 10.367188 C 6.464844 10.539062 6.332031 10.714844 6 10.792969 L 6 10.980469 C 6.394531 10.890625 6.515625 10.652344 6.515625 10.460938 C 6.515625 10.429688 6.507812 10.398438 6.5 10.367188 Z M 7.6875 11.585938 C 7.582031 11.585938 7.5 11.667969 7.5 11.773438 L 7.5 11.960938 C 7.5 11.855469 7.582031 11.773438 7.6875 11.773438 L 9.5625 11.773438 C 9.667969 11.773438 9.75 11.855469 9.75 11.960938 L 9.75 11.773438 C 9.75 11.667969 9.667969 11.585938 9.5625 11.585938 Z M 7.6875 11.585938 "/>
<path style=" stroke:none;fill-rule:nonzero;fill:rgb(0%,0%,0%);fill-opacity:0.4;" d="M 2.625 3.75 C 2.832031 3.75 3 3.917969 3 4.125 C 3 4.332031 2.832031 4.5 2.625 4.5 C 2.417969 4.5 2.25 4.332031 2.25 4.125 C 2.25 3.917969 2.417969 3.75 2.625 3.75 Z M 2.625 3.75 "/>
<path style=" stroke:none;fill-rule:nonzero;fill:rgb(0%,0%,0%);fill-opacity:0.4;" d="M 2.625 3.75 C 2.417969 3.75 2.25 3.917969 2.25 4.125 C 2.25 4.160156 2.261719 4.1875 2.269531 4.21875 C 2.3125 4.058594 2.449219 3.9375 2.625 3.9375 C 2.800781 3.9375 2.9375 4.058594 2.980469 4.21875 C 2.988281 4.1875 3 4.160156 3 4.125 C 3 3.917969 2.832031 3.75 2.625 3.75 Z M 2.625 3.75 "/>
<path style=" stroke:none;fill-rule:nonzero;fill:rgb(100%,100%,100%);fill-opacity:0.4;" d="M 2.625 4.6875 C 2.417969 4.6875 2.25 4.519531 2.25 4.3125 C 2.25 4.277344 2.261719 4.25 2.269531 4.21875 C 2.3125 4.378906 2.449219 4.5 2.625 4.5 C 2.800781 4.5 2.9375 4.378906 2.980469 4.21875 C 2.988281 4.25 3 4.277344 3 4.3125 C 3 4.519531 2.832031 4.6875 2.625 4.6875 Z M 2.625 4.6875 "/>
<path style=" stroke:none;fill-rule:nonzero;fill:rgb(0%,0%,0%);fill-opacity:0.4;" d="M 21.394531 3.75 C 21.601562 3.75 21.769531 3.917969 21.769531 4.125 C 21.769531 4.332031 21.601562 4.5 21.394531 4.5 C 21.1875 4.5 21.019531 4.332031 21.019531 4.125 C 21.019531 3.917969 21.1875 3.75 21.394531 3.75 Z M 21.394531 3.75 "/>
<path style=" stroke:none;fill-rule:nonzero;fill:rgb(0%,0%,0%);fill-opacity:0.4;" d="M 21.394531 3.75 C 21.1875 3.75 21.019531 3.917969 21.019531 4.125 C 21.019531 4.160156 21.03125 4.1875 21.039062 4.21875 C 21.082031 4.058594 21.21875 3.9375 21.394531 3.9375 C 21.570312 3.9375 21.707031 4.058594 21.75 4.21875 C 21.757812 4.1875 21.769531 4.15625 21.769531 4.125 C 21.769531 3.917969 21.601562 3.75 21.394531 3.75 Z M 21.394531 3.75 "/>
<path style=" stroke:none;fill-rule:nonzero;fill:rgb(100%,100%,100%);fill-opacity:0.4;" d="M 21.394531 4.6875 C 21.1875 4.6875 21.019531 4.519531 21.019531 4.3125 C 21.019531 4.277344 21.03125 4.25 21.039062 4.21875 C 21.082031 4.378906 21.21875 4.5 21.394531 4.5 C 21.570312 4.5 21.707031 4.378906 21.75 4.21875 C 21.757812 4.25 21.769531 4.277344 21.769531 4.3125 C 21.769531 4.519531 21.601562 4.6875 21.394531 4.6875 Z M 21.394531 4.6875 "/>
<path style=" stroke:none;fill-rule:nonzero;fill:rgb(0%,0%,0%);fill-opacity:0.4;" d="M 2.625 19.3125 C 2.832031 19.3125 3 19.480469 3 19.6875 C 3 19.894531 2.832031 20.0625 2.625 20.0625 C 2.417969 20.0625 2.25 19.894531 2.25 19.6875 C 2.25 19.480469 2.417969 19.3125 2.625 19.3125 Z M 2.625 19.3125 "/>
<path style=" stroke:none;fill-rule:nonzero;fill:rgb(0%,0%,0%);fill-opacity:0.4;" d="M 2.625 19.3125 C 2.417969 19.3125 2.25 19.480469 2.25 19.6875 C 2.25 19.722656 2.261719 19.75 2.269531 19.78125 C 2.3125 19.621094 2.449219 19.5 2.625 19.5 C 2.800781 19.5 2.9375 19.621094 2.980469 19.78125 C 2.988281 19.75 3 19.71875 3 19.6875 C 3 19.480469 2.832031 19.3125 2.625 19.3125 Z M 2.625 19.3125 "/>
<path style=" stroke:none;fill-rule:nonzero;fill:rgb(100%,100%,100%);fill-opacity:0.4;" d="M 2.625 20.25 C 2.417969 20.25 2.25 20.082031 2.25 19.875 C 2.25 19.839844 2.261719 19.8125 2.269531 19.78125 C 2.3125 19.941406 2.449219 20.0625 2.625 20.0625 C 2.800781 20.0625 2.9375 19.941406 2.980469 19.78125 C 2.988281 19.8125 3 19.839844 3 19.875 C 3 20.082031 2.832031 20.25 2.625 20.25 Z M 2.625 20.25 "/>
<path style=" stroke:none;fill-rule:nonzero;fill:rgb(0%,0%,0%);fill-opacity:0.4;" d="M 21.394531 19.3125 C 21.601562 19.3125 21.769531 19.480469 21.769531 19.6875 C 21.769531 19.894531 21.601562 20.0625 21.394531 20.0625 C 21.1875 20.0625 21.019531 19.894531 21.019531 19.6875 C 21.019531 19.480469 21.1875 19.3125 21.394531 19.3125 Z M 21.394531 19.3125 "/>
<path style=" stroke:none;fill-rule:nonzero;fill:rgb(0%,0%,0%);fill-opacity:0.4;" d="M 21.394531 19.3125 C 21.1875 19.3125 21.019531 19.480469 21.019531 19.6875 C 21.019531 19.722656 21.03125 19.75 21.039062 19.78125 C 21.082031 19.621094 21.21875 19.5 21.394531 19.5 C 21.570312 19.5 21.707031 19.621094 21.75 19.78125 C 21.757812 19.75 21.769531 19.71875 21.769531 19.6875 C 21.769531 19.480469 21.601562 19.3125 21.394531 19.3125 Z M 21.394531 19.3125 "/>
<path style=" stroke:none;fill-rule:nonzero;fill:rgb(100%,100%,100%);fill-opacity:0.4;" d="M 21.394531 20.25 C 21.1875 20.25 21.019531 20.082031 21.019531 19.875 C 21.019531 19.839844 21.03125 19.8125 21.039062 19.78125 C 21.082031 19.941406 21.21875 20.0625 21.394531 20.0625 C 21.570312 20.0625 21.707031 19.941406 21.75 19.78125 C 21.757812 19.8125 21.769531 19.839844 21.769531 19.875 C 21.769531 20.082031 21.601562 20.25 21.394531 20.25 Z M 21.394531 20.25 "/>
<path style=" stroke:none;fill-rule:nonzero;fill:rgb(100%,100%,100%);fill-opacity:0.4;" d="M 3 3 C 2.167969 3 1.5 3.667969 1.5 4.5 L 1.5 4.863281 C 1.5 4.03125 2.167969 3.363281 3 3.363281 L 21 3.363281 C 21.832031 3.363281 22.5 4.03125 22.5 4.863281 L 22.5 4.5 C 22.5 3.667969 21.832031 3 21 3 Z M 3 3 "/>
<path style=" stroke:none;fill-rule:nonzero;fill:rgb(0.392157%,0.392157%,0.392157%);fill-opacity:0.4;" d="M 3 20.996094 C 2.167969 20.996094 1.5 20.328125 1.5 19.496094 L 1.5 19.132812 C 1.5 19.964844 2.167969 20.632812 3 20.632812 L 21 20.632812 C 21.832031 20.632812 22.5 19.964844 22.5 19.132812 L 22.5 19.496094 C 22.5 20.328125 21.832031 20.996094 21 20.996094 Z M 3 20.996094 "/>
<path style=" stroke:none;fill-rule:nonzero;fill:rgb(0%,0%,0%);fill-opacity:0.2;" d="M 1.5 19.5 L 1.5 20.0625 C 1.5 20.894531 2.167969 21.5625 3 21.5625 L 21 21.5625 C 21.832031 21.5625 22.5 20.894531 22.5 20.0625 L 22.5 19.5 C 22.5 20.332031 21.832031 21 21 21 L 3 21 C 2.167969 21 1.5 20.332031 1.5 19.5 Z M 1.5 19.5 "/>
<path style=" stroke:none;fill-rule:nonzero;fill:rgb(87.843138%,87.843138%,87.843138%);fill-opacity:1;" d="M 17.179688 9.949219 C 16.816406 9.953125 16.464844 9.992188 16.121094 10.0625 L 15.753906 11.90625 C 15.449219 12.03125 15.164062 12.195312 14.90625 12.394531 L 13.128906 11.792969 C 12.882812 12.070312 12.660156 12.378906 12.464844 12.710938 C 12.273438 13.046875 12.117188 13.394531 12 13.746094 L 13.414062 14.988281 C 13.394531 15.148438 13.382812 15.308594 13.382812 15.476562 C 13.382812 15.640625 13.394531 15.804688 13.414062 15.960938 L 12 17.203125 C 12.117188 17.554688 12.273438 17.902344 12.464844 18.238281 C 12.660156 18.574219 12.882812 18.878906 13.128906 19.15625 L 14.90625 18.554688 C 15.164062 18.753906 15.449219 18.917969 15.753906 19.042969 L 16.121094 20.886719 C 16.488281 20.960938 16.863281 21 17.25 21 C 17.636719 21 18.015625 20.960938 18.378906 20.886719 L 18.746094 19.042969 C 19.050781 18.917969 19.335938 18.753906 19.59375 18.554688 L 21.371094 19.15625 C 21.621094 18.878906 21.84375 18.574219 22.035156 18.238281 C 22.230469 17.902344 22.382812 17.554688 22.5 17.203125 L 21.085938 15.960938 C 21.109375 15.804688 21.117188 15.640625 21.117188 15.476562 C 21.117188 15.308594 21.109375 15.148438 21.085938 14.988281 L 22.5 13.746094 C 22.382812 13.394531 22.230469 13.046875 22.035156 12.710938 C 21.84375 12.378906 21.621094 12.070312 21.371094 11.792969 L 19.59375 12.394531 C 19.335938 12.195312 19.050781 12.03125 18.746094 11.90625 L 18.378906 10.0625 C 18.015625 9.988281 17.636719 9.949219 17.25 9.949219 C 17.226562 9.949219 17.203125 9.949219 17.179688 9.949219 Z M 17.25 13.265625 C 18.476562 13.265625 19.460938 14.25 19.460938 15.476562 C 19.460938 16.699219 18.476562 17.683594 17.25 17.683594 C 16.027344 17.683594 15.039062 16.699219 15.039062 15.476562 C 15.039062 14.25 16.027344 13.265625 17.25 13.265625 Z M 17.25 13.265625 "/>
<path style=" stroke:none;fill-rule:nonzero;fill:rgb(100%,100%,100%);fill-opacity:0.4;" d="M 17.179688 9.949219 C 16.816406 9.953125 16.464844 9.992188 16.121094 10.0625 L 15.753906 11.90625 C 15.449219 12.03125 15.164062 12.195312 14.90625 12.394531 L 13.128906 11.792969 C 12.882812 12.070312 12.660156 12.375 12.464844 12.710938 C 12.273438 13.046875 12.117188 13.394531 12 13.746094 L 12.101562 13.832031 C 12.203125 13.578125 12.320312 13.324219 12.464844 13.074219 C 12.660156 12.738281 12.882812 12.433594 13.128906 12.15625 L 14.90625 12.757812 C 15.164062 12.558594 15.449219 12.394531 15.753906 12.269531 L 16.121094 10.425781 C 16.464844 10.355469 16.816406 10.316406 17.179688 10.3125 C 17.203125 10.3125 17.226562 10.3125 17.25 10.3125 C 17.636719 10.3125 18.015625 10.351562 18.378906 10.425781 L 18.746094 12.269531 C 19.050781 12.394531 19.335938 12.558594 19.59375 12.757812 L 21.371094 12.15625 C 21.621094 12.433594 21.839844 12.738281 22.035156 13.074219 C 22.175781 13.324219 22.300781 13.574219 22.398438 13.832031 L 22.5 13.746094 C 22.382812 13.394531 22.226562 13.046875 22.035156 12.710938 C 21.839844 12.375 21.621094 12.070312 21.371094 11.792969 L 19.59375 12.394531 C 19.335938 12.195312 19.050781 12.03125 18.746094 11.90625 L 18.378906 10.0625 C 18.015625 9.988281 17.636719 9.949219 17.25 9.949219 C 17.226562 9.949219 17.203125 9.949219 17.179688 9.949219 Z M 13.386719 15.324219 C 13.382812 15.375 13.382812 15.425781 13.382812 15.476562 C 13.382812 15.535156 13.382812 15.597656 13.386719 15.65625 C 13.390625 15.554688 13.398438 15.449219 13.414062 15.351562 Z M 21.113281 15.328125 L 21.089844 15.351562 C 21.101562 15.449219 21.109375 15.554688 21.113281 15.65625 C 21.117188 15.597656 21.117188 15.535156 21.117188 15.472656 C 21.117188 15.425781 21.117188 15.375 21.113281 15.328125 Z M 15.046875 15.65625 C 15.042969 15.714844 15.039062 15.777344 15.039062 15.839844 C 15.039062 17.0625 16.027344 18.046875 17.25 18.046875 C 18.472656 18.046875 19.460938 17.0625 19.460938 15.839844 C 19.460938 15.777344 19.457031 15.714844 19.453125 15.65625 C 19.359375 16.796875 18.414062 17.683594 17.25 17.683594 C 16.085938 17.683594 15.140625 16.796875 15.046875 15.65625 Z M 21.113281 15.984375 C 21.109375 16.101562 21.101562 16.214844 21.089844 16.324219 L 22.398438 17.480469 C 22.4375 17.386719 22.46875 17.296875 22.5 17.203125 Z M 13.386719 15.988281 L 12 17.203125 C 12.03125 17.296875 12.066406 17.386719 12.101562 17.480469 L 13.414062 16.324219 C 13.398438 16.214844 13.390625 16.101562 13.386719 15.988281 Z M 13.386719 15.988281 "/>
<path style=" stroke:none;fill-rule:nonzero;fill:url(#linear3);" d="M 17.179688 9.949219 C 16.816406 9.953125 16.464844 9.992188 16.121094 10.0625 L 15.753906 11.90625 C 15.449219 12.03125 15.164062 12.195312 14.90625 12.394531 L 13.128906 11.792969 C 12.882812 12.070312 12.660156 12.378906 12.464844 12.710938 C 12.273438 13.046875 12.117188 13.394531 12 13.746094 L 13.414062 14.988281 C 13.394531 15.148438 13.382812 15.308594 13.382812 15.476562 C 13.382812 15.640625 13.394531 15.804688 13.414062 15.960938 L 12 17.203125 C 12.117188 17.554688 12.273438 17.902344 12.464844 18.238281 C 12.660156 18.574219 12.882812 18.878906 13.128906 19.15625 L 14.90625 18.554688 C 15.164062 18.753906 15.449219 18.917969 15.753906 19.042969 L 16.121094 20.886719 C 16.488281 20.960938 16.863281 21 17.25 21 C 17.636719 21 18.015625 20.960938 18.378906 20.886719 L 18.746094 19.042969 C 19.050781 18.917969 19.335938 18.753906 19.59375 18.554688 L 21.371094 19.15625 C 21.621094 18.878906 21.84375 18.574219 22.035156 18.238281 C 22.230469 17.902344 22.382812 17.554688 22.5 17.203125 L 21.085938 15.960938 C 21.109375 15.804688 21.117188 15.640625 21.117188 15.476562 C 21.117188 15.308594 21.109375 15.148438 21.085938 14.988281 L 22.5 13.746094 C 22.382812 13.394531 22.230469 13.046875 22.035156 12.710938 C 21.84375 12.378906 21.621094 12.070312 21.371094 11.792969 L 19.59375 12.394531 C 19.335938 12.195312 19.050781 12.03125 18.746094 11.90625 L 18.378906 10.0625 C 18.015625 9.988281 17.636719 9.949219 17.25 9.949219 C 17.226562 9.949219 17.203125 9.949219 17.179688 9.949219 Z M 17.25 13.265625 C 18.476562 13.265625 19.460938 14.25 19.460938 15.476562 C 19.460938 16.699219 18.476562 17.683594 17.25 17.683594 C 16.027344 17.683594 15.039062 16.699219 15.039062 15.476562 C 15.039062 14.25 16.027344 13.265625 17.25 13.265625 Z M 17.25 13.265625 "/>
<path style=" stroke:none;fill-rule:nonzero;fill:rgb(0.784314%,0.784314%,0.784314%);fill-opacity:0.2;" d="M 17.25 13.269531 C 16.027344 13.269531 15.039062 14.253906 15.039062 15.480469 C 15.039062 15.539062 15.042969 15.601562 15.046875 15.660156 C 15.140625 14.523438 16.085938 13.632812 17.25 13.632812 C 18.414062 13.632812 19.359375 14.523438 19.453125 15.660156 C 19.457031 15.601562 19.460938 15.539062 19.460938 15.480469 C 19.460938 14.253906 18.472656 13.269531 17.25 13.269531 Z M 22.402344 13.835938 L 21.089844 14.992188 C 21.101562 15.101562 21.109375 15.214844 21.113281 15.332031 L 22.402344 14.199219 Z M 12.101562 13.839844 C 12.066406 13.929688 12.03125 14.019531 12 14.113281 L 13.386719 15.332031 C 13.390625 15.214844 13.398438 15.101562 13.414062 14.992188 Z M 13.386719 15.660156 C 13.382812 15.722656 13.382812 15.78125 13.382812 15.84375 C 13.382812 15.890625 13.382812 15.941406 13.386719 15.992188 L 13.414062 15.964844 C 13.398438 15.867188 13.390625 15.765625 13.386719 15.660156 Z M 21.113281 15.660156 C 21.109375 15.765625 21.101562 15.867188 21.085938 15.96875 L 21.113281 15.988281 C 21.117188 15.941406 21.117188 15.890625 21.117188 15.84375 C 21.117188 15.78125 21.117188 15.722656 21.113281 15.660156 Z M 12.101562 17.484375 L 12 17.570312 C 12.117188 17.921875 12.273438 18.269531 12.464844 18.605469 C 12.660156 18.941406 12.882812 19.246094 13.128906 19.523438 L 14.90625 18.921875 C 15.164062 19.121094 15.449219 19.285156 15.753906 19.414062 L 16.074219 21 L 17.011719 21 C 16.710938 20.988281 16.410156 20.949219 16.121094 20.890625 L 15.753906 19.050781 C 15.449219 18.921875 15.164062 18.757812 14.90625 18.558594 L 13.128906 19.160156 C 12.882812 18.882812 12.660156 18.578125 12.464844 18.242188 C 12.320312 17.996094 12.203125 17.742188 12.101562 17.484375 Z M 22.402344 17.484375 C 22.300781 17.742188 22.175781 17.996094 22.035156 18.242188 C 21.839844 18.578125 21.621094 18.882812 21.371094 19.160156 L 19.59375 18.558594 C 19.335938 18.757812 19.050781 18.921875 18.746094 19.050781 L 18.378906 20.890625 C 18.082031 20.949219 17.777344 20.988281 17.46875 21 L 18.429688 21 L 18.746094 19.410156 C 19.050781 19.285156 19.335938 19.121094 19.59375 18.921875 L 21.371094 19.523438 C 21.621094 19.246094 21.839844 18.941406 22.035156 18.605469 C 22.179688 18.355469 22.300781 18.105469 22.402344 17.84375 Z M 22.402344 17.484375 "/>
</g>
</svg>
