
<svg xmlns="http://www.w3.org/2000/svg" xmlns:xlink="http://www.w3.org/1999/xlink" width="24" height="24" viewBox="0 0 24 24" version="1.1">
<defs>
<radialGradient id="radial0" gradientUnits="userSpaceOnUse" cx="10.256583" cy="-204.307953" fx="10.256583" fy="-204.307953" r="4.497917" gradientTransform="matrix(0.416814,-1.354648,2.16767,0.666975,455.097161,164.412334)">
<stop offset="0" style="stop-color:rgb(0%,0%,0%);stop-opacity:0.2;"/>
<stop offset="1" style="stop-color:rgb(100%,100%,100%);stop-opacity:0;"/>
</radialGradient>
<linearGradient id="linear0" gradientUnits="userSpaceOnUse" x1="31.999998" y1="103.999992" x2="31.999998" y2="4" gradientTransform="matrix(0.375,0,0,0.375,0,0.000000000000042633)">
<stop offset="0" style="stop-color:rgb(0%,0%,0%);stop-opacity:0.2;"/>
<stop offset="1" style="stop-color:rgb(100%,100%,100%);stop-opacity:0;"/>
</linearGradient>
</defs>
<g id="surface1">
<path style=" stroke:none;fill-rule:nonzero;fill:rgb(29.803923%,74.509805%,97.254902%);fill-opacity:0.290196;" d="M 11.257812 14.960938 C 11.300781 15.195312 11.617188 15.375 12.003906 15.375 C 12.390625 15.375 12.707031 15.195312 12.746094 14.960938 C 12.5 14.984375 12.253906 15 12 15 C 11.75 15 11.503906 14.984375 11.257812 14.960938 Z M 11.257812 14.960938 "/>
<path style=" stroke:none;fill-rule:nonzero;fill:rgb(30.19608%,74.901962%,97.647059%);fill-opacity:0.156863;" d="M 11.488281 15.25 C 11.703125 17.003906 11.898438 19.027344 10.878906 20.859375 C 10.875 20.871094 10.875 20.878906 10.875 20.886719 C 10.875 21.097656 11.375 21.261719 12 21.261719 C 12.625 21.261719 13.125 21.097656 13.125 20.886719 L 13.125 20.878906 C 13.125 20.871094 13.125 20.867188 13.121094 20.859375 C 12.105469 19.042969 12.289062 17.011719 12.511719 15.25 C 12.378906 15.328125 12.199219 15.375 12.003906 15.375 C 11.804688 15.375 11.625 15.328125 11.488281 15.25 Z M 11.488281 15.25 "/>
<path style=" stroke:none;fill-rule:nonzero;fill:rgb(73.333335%,87.058824%,98.431373%);fill-opacity:0.6;" d="M 10.875 14.90625 L 10.875 14.910156 C 10.875 15.375 11.375 15.75 12 15.75 C 12.625 15.75 13.125 15.375 13.125 14.910156 L 13.125 14.90625 C 13.046875 14.917969 12.96875 14.929688 12.890625 14.941406 C 12.839844 14.953125 12.792969 14.960938 12.742188 14.972656 C 12.691406 15.199219 12.382812 15.375 12.003906 15.375 C 11.617188 15.375 11.300781 15.191406 11.257812 14.960938 C 11.128906 14.945312 11 14.925781 10.875 14.90625 Z M 10.875 14.90625 "/>
<path style=" stroke:none;fill-rule:nonzero;fill:rgb(73.333335%,87.058824%,98.431373%);fill-opacity:0.6;" d="M 12.710938 15.5625 C 12.601562 15.628906 12.472656 15.679688 12.332031 15.710938 C 12.058594 17.480469 12.234375 19.363281 12.917969 20.949219 L 12.882812 20.949219 C 12.757812 21.058594 12.417969 21.136719 12.015625 21.136719 L 11.984375 21.136719 C 11.582031 21.136719 11.242188 21.058594 11.117188 20.949219 L 11.082031 20.949219 C 11.765625 19.363281 11.941406 17.480469 11.667969 15.710938 C 11.527344 15.679688 11.402344 15.628906 11.289062 15.5625 C 11.605469 17.34375 11.410156 19.289062 10.703125 20.875 C 10.695312 20.898438 10.691406 20.925781 10.691406 20.949219 L 10.6875 20.949219 C 10.6875 21.261719 11.273438 21.511719 12 21.511719 C 12.726562 21.511719 13.3125 21.261719 13.3125 20.949219 C 13.3125 20.925781 13.304688 20.898438 13.296875 20.875 C 12.589844 19.289062 12.394531 17.34375 12.710938 15.5625 Z M 12.710938 15.5625 "/>
<path style=" stroke:none;fill-rule:nonzero;fill:rgb(94.509804%,94.509804%,94.509804%);fill-opacity:0.301961;" d="M 12 20.4375 C 11.714844 20.4375 11.441406 20.441406 11.167969 20.449219 C 11.140625 20.511719 11.113281 20.574219 11.085938 20.636719 C 11.382812 20.628906 11.6875 20.625 12 20.625 C 12.3125 20.625 12.617188 20.628906 12.914062 20.636719 C 12.886719 20.574219 12.859375 20.511719 12.832031 20.449219 C 12.558594 20.441406 12.285156 20.4375 12 20.4375 Z M 12 20.4375 "/>
<path style=" stroke:none;fill-rule:nonzero;fill:rgb(73.333335%,87.058824%,98.431373%);fill-opacity:0.6;" d="M 11.167969 20.261719 C 8.242188 20.335938 6 20.804688 6 21.375 C 6 22 8.675781 22.5 12 22.5 C 15.324219 22.5 18 22 18 21.375 C 18 20.804688 15.757812 20.335938 12.832031 20.261719 C 12.859375 20.324219 12.886719 20.386719 12.914062 20.449219 C 15.59375 20.515625 17.625 20.859375 17.625 21.28125 C 17.625 21.75 15.117188 22.125 12 22.125 C 8.882812 22.125 6.375 21.75 6.375 21.28125 C 6.375 20.859375 8.40625 20.515625 11.085938 20.449219 C 11.113281 20.386719 11.140625 20.324219 11.167969 20.261719 Z M 11.167969 20.261719 "/>
<path style=" stroke:none;fill-rule:nonzero;fill:rgb(30.980393%,76.47059%,96.862745%);fill-opacity:0.156863;" d="M 6.5625 2.8125 L 5.460938 7.214844 C 4.652344 10.441406 8.300781 13.5 11.625 13.5 L 12.375 13.5 C 15.699219 13.5 19.296875 10.726562 18.550781 7.488281 L 17.4375 2.625 C 16.519531 3.0625 14.957031 3.75 12 3.75 C 9.042969 3.75 7.480469 3.25 6.5625 2.8125 Z M 6.5625 2.8125 "/>
<path style=" stroke:none;fill-rule:nonzero;fill:rgb(94.117647%,38.431373%,57.254905%);fill-opacity:1;" d="M 11.25 6.75 L 12.75 6.75 C 16.0625 6.75 18.75 7.253906 18.75 7.875 C 18.75 8.496094 16.0625 9 12.75 9 L 11.25 9 C 7.9375 9 5.25 8.496094 5.25 7.875 C 5.25 7.253906 7.9375 6.75 11.25 6.75 Z M 11.25 6.75 "/>
<path style=" stroke:none;fill-rule:nonzero;fill:rgb(73.333335%,87.058824%,98.431373%);fill-opacity:0.6;" d="M 12 1.5 C 8.96875 1.5 6.511719 1.976562 6.382812 2.574219 C 5.878906 3.863281 5.242188 5.953125 5.25 7.5 L 5.25 8.25 C 5.25 11.988281 8.261719 15 12 15 C 15.738281 15 18.75 11.988281 18.75 8.25 L 18.75 7.5 C 18.757812 5.953125 18.125 3.863281 17.617188 2.574219 C 17.492188 1.976562 15.035156 1.5 12 1.5 Z M 12 1.6875 C 14.910156 1.6875 17.25 2.0625 17.25 2.53125 C 17.25 3 14.910156 3.375 12 3.375 C 9.089844 3.375 6.75 3 6.75 2.53125 C 6.75 2.0625 9.089844 1.6875 12 1.6875 Z M 6.636719 2.964844 C 7.355469 3.421875 9.476562 3.75 12 3.75 C 14.523438 3.75 16.644531 3.421875 17.363281 2.964844 C 17.839844 4.238281 18.382812 6.148438 18.375 7.5 L 18.46875 7.5 L 18.375 7.5 L 18.375 8.15625 C 18.375 11.53125 15.65625 14.25 12.28125 14.25 L 11.71875 14.25 C 8.34375 14.25 5.625 11.53125 5.625 8.15625 L 5.625 7.5 L 5.53125 7.5 L 5.625 7.5 C 5.617188 6.148438 6.160156 4.238281 6.636719 2.964844 Z M 6.636719 2.964844 "/>
<path style=" stroke:none;fill-rule:nonzero;fill:rgb(92.54902%,25.098041%,47.843137%);fill-opacity:0.996078;" d="M 5.625 7.707031 L 5.625 8.25 C 5.625 11.574219 8.300781 14.25 11.625 14.25 L 12.375 14.25 C 15.699219 14.25 18.375 11.574219 18.375 8.25 L 18.375 7.707031 C 17.527344 8.132812 15.335938 8.4375 12.75 8.4375 L 11.25 8.4375 C 8.664062 8.4375 6.472656 8.132812 5.625 7.707031 Z M 5.625 7.707031 "/>
<path style=" stroke:none;fill-rule:nonzero;fill:rgb(100%,100%,100%);fill-opacity:0.301961;" d="M 6.976562 3.402344 C 5.664062 7.152344 5.21875 12.554688 11.25 13.6875 C 8.0625 10.875 7.15625 10.152344 8.242188 3.644531 Z M 6.976562 3.402344 "/>
<path style=" stroke:none;fill-rule:nonzero;fill:url(#radial0);" d="M 5.625 7.707031 L 5.625 8.25 C 5.625 11.574219 8.300781 14.25 11.625 14.25 L 12.375 14.25 C 15.699219 14.25 18.375 11.574219 18.375 8.25 L 18.375 7.707031 C 17.527344 8.132812 15.335938 8.4375 12.75 8.4375 L 11.25 8.4375 C 8.664062 8.4375 6.472656 8.132812 5.625 7.707031 Z M 5.625 7.707031 "/>
<path style=" stroke:none;fill-rule:nonzero;fill:rgb(39.215687%,70.980394%,96.470588%);fill-opacity:0.207843;" d="M 12 1.6875 C 14.898438 1.6875 17.25 2.066406 17.25 2.53125 C 17.25 2.996094 14.898438 3.375 12 3.375 C 9.101562 3.375 6.75 2.996094 6.75 2.53125 C 6.75 2.066406 9.101562 1.6875 12 1.6875 Z M 12 1.6875 "/>
<path style=" stroke:none;fill-rule:nonzero;fill:rgb(30.19608%,74.901962%,97.647059%);fill-opacity:0.156863;" d="M 11.085938 20.449219 C 8.40625 20.511719 6.375 20.859375 6.375 21.28125 C 6.375 21.75 8.882812 22.125 12 22.125 C 15.117188 22.125 17.625 21.75 17.625 21.28125 C 17.625 20.859375 15.59375 20.511719 12.914062 20.449219 C 12.976562 20.585938 13.046875 20.722656 13.121094 20.859375 C 13.125 20.867188 13.125 20.871094 13.125 20.878906 L 13.125 20.890625 C 13.125 21.097656 12.625 21.265625 12 21.265625 C 11.375 21.265625 10.875 21.097656 10.875 20.890625 C 10.875 20.878906 10.875 20.867188 10.878906 20.859375 C 10.953125 20.722656 11.023438 20.585938 11.085938 20.449219 Z M 11.085938 20.449219 "/>
<path style=" stroke:none;fill-rule:nonzero;fill:rgb(100%,100%,100%);fill-opacity:0.301961;" d="M 6.9375 4.3125 C 6.1875 8.4375 5.8125 10.5 9.1875 12.5625 C 7.125 10.3125 6.5625 9.75 7.5 4.5 Z M 6.9375 4.3125 "/>
<path style=" stroke:none;fill-rule:nonzero;fill:rgb(100%,100%,100%);fill-opacity:0.301961;" d="M 10.257812 20.660156 C 8.3125 20.742188 6.9375 20.945312 6.9375 21.1875 C 6.9375 21.429688 8.3125 21.632812 10.257812 21.714844 C 9.699219 21.5625 9.375 21.382812 9.375 21.1875 C 9.375 20.992188 9.699219 20.8125 10.257812 20.660156 Z M 10.257812 20.660156 "/>
<path style=" stroke:none;fill-rule:nonzero;fill:rgb(100%,100%,100%);fill-opacity:0.301961;" d="M 8.8125 20.882812 C 7.902344 20.917969 7.257812 21.015625 7.257812 21.128906 C 7.257812 21.242188 7.902344 21.335938 8.8125 21.375 C 8.550781 21.304688 8.398438 21.21875 8.398438 21.128906 C 8.398438 21.039062 8.550781 20.953125 8.8125 20.882812 Z M 8.8125 20.882812 "/>
<path style=" stroke:none;fill-rule:nonzero;fill:rgb(100%,100%,100%);fill-opacity:0.301961;" d="M 11.8125 15.9375 C 12 17.625 12.445312 19.015625 11.8125 21 C 11.597656 21.007812 11.359375 21.085938 11.25 20.8125 C 11.8125 19.3125 11.8125 17.625 11.8125 15.9375 Z M 11.8125 15.9375 "/>
<path style=" stroke:none;fill-rule:nonzero;fill:rgb(0%,0%,0%);fill-opacity:0.2;" d="M 6.179688 4.339844 C 6.050781 4.785156 5.929688 5.25 5.835938 5.710938 Z M 17.878906 4.558594 L 18.242188 6.128906 C 18.152344 5.609375 18.023438 5.074219 17.878906 4.558594 Z M 5.25 8.25 L 5.25 8.8125 C 5.25 12.167969 7.675781 14.933594 10.875 15.46875 L 10.875 15.472656 C 10.875 15.730469 11.03125 15.964844 11.28125 16.117188 C 11.367188 16.59375 11.417969 17.082031 11.429688 17.570312 C 11.449219 16.894531 11.398438 16.214844 11.28125 15.558594 C 11.03125 15.402344 10.875 15.171875 10.875 14.910156 L 10.875 14.90625 C 7.675781 14.375 5.25 11.605469 5.25 8.25 Z M 18.75 8.25 C 18.75 11.605469 16.324219 14.375 13.125 14.90625 L 13.125 14.910156 C 13.125 15.171875 12.96875 15.402344 12.722656 15.554688 C 12.601562 16.214844 12.550781 16.894531 12.570312 17.570312 C 12.585938 17.082031 12.636719 16.59375 12.722656 16.117188 C 12.96875 15.964844 13.125 15.730469 13.125 15.472656 L 13.125 15.46875 C 16.324219 14.933594 18.75 12.167969 18.75 8.8125 Z M 6.1875 21.660156 C 6.066406 21.746094 6 21.839844 6 21.9375 C 6 22.5625 8.675781 23.0625 12 23.0625 C 15.324219 23.0625 18 22.5625 18 21.9375 C 18 21.839844 17.933594 21.746094 17.8125 21.660156 C 17.148438 22.144531 14.804688 22.5 12 22.5 C 9.195312 22.5 6.851562 22.144531 6.1875 21.660156 Z M 6.1875 21.660156 "/>
<path style=" stroke:none;fill-rule:nonzero;fill:rgb(100%,100%,100%);fill-opacity:0.6;" d="M 6.738281 2.691406 C 8.472656 3.78125 13.554688 3.78125 16.0625 3.210938 C 13.453125 3.566406 8.332031 3.605469 6.738281 2.691406 Z M 6.738281 2.691406 "/>
<path style=" stroke:none;fill-rule:nonzero;fill:rgb(100%,100%,100%);fill-opacity:0.6;" d="M 6.820312 2.367188 C 7.972656 1.199219 14.164062 1.453125 16.152344 1.945312 C 13.039062 1.554688 8.621094 1.398438 6.820312 2.367188 Z M 6.820312 2.367188 "/>
<path style=" stroke:none;fill-rule:nonzero;fill:rgb(100%,100%,100%);fill-opacity:0.6;" d="M 11.84375 16.992188 C 11.929688 17.789062 11.949219 19.492188 11.652344 20.429688 C 11.550781 20.433594 11.4375 20.472656 11.386719 20.34375 C 11.652344 19.632812 11.84375 17.789062 11.84375 16.992188 Z M 11.84375 16.992188 "/>
<path style=" stroke:none;fill-rule:nonzero;fill:rgb(100%,100%,100%);fill-opacity:0.2;" d="M 5.625 7.707031 C 5.625 7.707031 5.597656 8.503906 6.148438 8.671875 C 6.699219 8.839844 6.949219 8.566406 7.316406 8.691406 C 7.683594 8.816406 7.667969 9.019531 8.179688 8.960938 C 8.6875 8.902344 9.066406 8.761719 9.308594 8.855469 C 9.550781 8.949219 9.574219 9.132812 10.109375 9.042969 C 10.644531 8.949219 10.59375 8.765625 10.902344 8.882812 C 11.210938 9.003906 11.695312 9.179688 12.054688 9.097656 C 12.414062 9.011719 12.746094 8.828125 13.707031 8.925781 C 14.667969 9.019531 14.734375 8.910156 15.285156 8.785156 C 15.835938 8.660156 15.746094 8.695312 16.164062 8.695312 C 16.582031 8.695312 16.992188 8.625 17.152344 8.480469 C 17.308594 8.339844 17.34375 8.40625 17.609375 8.367188 C 17.878906 8.324219 18.046875 8.164062 18.164062 8.109375 C 18.28125 8.050781 18.375 7.707031 18.375 7.707031 C 17.152344 8.480469 8.480469 8.871094 5.625 7.703125 Z M 5.625 7.707031 "/>
<path style=" stroke:none;fill-rule:nonzero;fill:url(#linear0);" d="M 12 1.6875 C 9.089844 1.6875 6.75 2.0625 6.75 2.53125 C 6.75 3 9.089844 3.375 12 3.375 C 14.910156 3.375 17.25 3 17.25 2.53125 C 17.25 2.0625 14.910156 1.6875 12 1.6875 Z M 6.390625 2.554688 C 5.882812 3.839844 5.242188 5.945312 5.25 7.5 L 5.25 8.25 C 5.25 11.605469 7.675781 14.371094 10.875 14.90625 L 10.875 14.910156 C 10.875 15.167969 11.03125 15.402344 11.28125 15.554688 C 11.566406 17.117188 11.460938 18.800781 10.960938 20.269531 C 8.136719 20.359375 6 20.820312 6 21.375 C 6 22 8.675781 22.5 12 22.5 C 15.324219 22.5 18 22 18 21.375 C 18 20.820312 15.863281 20.359375 13.039062 20.269531 C 12.539062 18.800781 12.4375 17.113281 12.722656 15.554688 C 12.96875 15.402344 13.125 15.167969 13.125 14.910156 L 13.125 14.90625 C 16.324219 14.371094 18.75 11.605469 18.75 8.25 L 18.75 7.5 C 18.757812 5.945312 18.117188 3.84375 17.609375 2.554688 L 17.261719 2.695312 C 17.265625 2.695312 17.265625 2.699219 17.265625 2.703125 C 16.328125 3.140625 14.789062 3.75 12 3.75 C 9.152344 3.75 7.605469 3.289062 6.675781 2.863281 C 6.695312 2.808594 6.71875 2.746094 6.738281 2.691406 Z M 6.179688 4.339844 L 5.835938 5.710938 C 5.929688 5.25 6.050781 4.785156 6.179688 4.339844 Z M 17.878906 4.554688 C 18.023438 5.074219 18.152344 5.609375 18.242188 6.128906 Z M 6.074219 10.460938 C 7.207031 12.226562 9.480469 13.5 11.625 13.5 L 12.375 13.5 C 14.402344 13.5 16.527344 12.46875 17.710938 10.933594 C 16.761719 12.792969 14.886719 14.09375 12.683594 14.234375 C 12.496094 14.128906 12.257812 14.0625 12 14.0625 C 11.992188 14.0625 11.980469 14.0625 11.96875 14.0625 C 11.722656 14.066406 11.496094 14.128906 11.3125 14.234375 C 8.929688 14.082031 6.929688 12.570312 6.074219 10.460938 Z M 6.074219 10.460938 "/>
</g>
</svg>
