
<svg xmlns="http://www.w3.org/2000/svg" xmlns:xlink="http://www.w3.org/1999/xlink" width="64" height="64" viewBox="0 0 64 64" version="1.1">
<defs>
<linearGradient id="linear0" gradientUnits="userSpaceOnUse" x1="10.054166" y1="-199.125" x2="10.054166" y2="-213.941666" gradientTransform="matrix(3.779528,0,0,3.779528,-0.00126458,812.598468)">
<stop offset="0" style="stop-color:rgb(0%,0%,0%);stop-opacity:0.2;"/>
<stop offset="1" style="stop-color:rgb(100%,100%,100%);stop-opacity:0;"/>
</linearGradient>
</defs>
<g id="surface1">
<path style=" stroke:none;fill-rule:nonzero;fill:rgb(93.333334%,93.333334%,93.333334%);fill-opacity:1;" d="M 8 4 L 56 4 C 58.210938 4 60 5.789062 60 8 L 60 56 C 60 58.210938 58.210938 60 56 60 L 8 60 C 5.789062 60 4 58.210938 4 56 L 4 8 C 4 5.789062 5.789062 4 8 4 Z M 8 4 "/>
<path style=" stroke:none;fill-rule:nonzero;fill:rgb(93.333334%,93.333334%,93.333334%);fill-opacity:1;" d="M 8 4 L 56 4 C 58.210938 4 60 5.789062 60 8 L 60 56 C 60 58.210938 58.210938 60 56 60 L 8 60 C 5.789062 60 4 58.210938 4 56 L 4 8 C 4 5.789062 5.789062 4 8 4 Z M 8 4 "/>
<path style=" stroke:none;fill-rule:nonzero;fill:rgb(93.333334%,93.333334%,93.333334%);fill-opacity:1;" d="M 8 4 L 56 4 C 58.210938 4 60 5.789062 60 8 L 60 56 C 60 58.210938 58.210938 60 56 60 L 8 60 C 5.789062 60 4 58.210938 4 56 L 4 8 C 4 5.789062 5.789062 4 8 4 Z M 8 4 "/>
<path style=" stroke:none;fill-rule:nonzero;fill:rgb(0%,0%,0%);fill-opacity:0.2;" d="M 4 56 L 4 57.5 C 4 59.714844 5.785156 61.5 8 61.5 L 56 61.5 C 58.214844 61.5 60 59.714844 60 57.5 L 60 56 C 60 58.214844 58.214844 60 56 60 L 8 60 C 5.785156 60 4 58.214844 4 56 Z M 4 56 "/>
<path style=" stroke:none;fill-rule:nonzero;fill:rgb(74.117649%,74.117649%,74.117649%);fill-opacity:1;" d="M 8 4 C 5.785156 4 4 5.785156 4 8 L 4 18 L 18 18 L 18 4 Z M 8 4 "/>
<path style=" stroke:none;fill-rule:nonzero;fill:rgb(74.117649%,74.117649%,74.117649%);fill-opacity:0.901961;" d="M 32 4 L 46 4 L 46 18 L 32 18 Z M 32 4 "/>
<path style=" stroke:none;fill-rule:nonzero;fill:rgb(100%,100%,100%);fill-opacity:0.4;" d="M 8 4 C 5.785156 4 4 5.785156 4 8 L 4 8.984375 C 4 6.769531 5.785156 4.984375 8 4.984375 L 56 4.984375 C 58.214844 4.984375 60 6.769531 60 8.984375 L 60 8 C 60 5.785156 58.214844 4 56 4 Z M 8 4 "/>
<path style=" stroke:none;fill-rule:nonzero;fill:rgb(74.117649%,74.117649%,74.117649%);fill-opacity:1;" d="M 18 18 L 32 18 L 32 32 L 18 32 Z M 18 18 "/>
<path style=" stroke:none;fill-rule:nonzero;fill:rgb(74.117649%,74.117649%,74.117649%);fill-opacity:0.784314;" d="M 46 18 L 60 18 L 60 32 L 46 32 Z M 46 18 "/>
<path style=" stroke:none;fill-rule:nonzero;fill:rgb(74.117649%,74.117649%,74.117649%);fill-opacity:1;" d="M 4 32 L 18 32 L 18 46 L 4 46 Z M 4 32 "/>
<path style=" stroke:none;fill-rule:nonzero;fill:rgb(74.117649%,74.117649%,74.117649%);fill-opacity:1;" d="M 32 32 L 46 32 L 46 46 L 32 46 Z M 32 32 "/>
<path style=" stroke:none;fill-rule:nonzero;fill:rgb(74.117649%,74.117649%,74.117649%);fill-opacity:1;" d="M 18 46 L 32 46 L 32 60 L 18 60 Z M 18 46 "/>
<path style=" stroke:none;fill-rule:nonzero;fill:rgb(74.117649%,74.117649%,74.117649%);fill-opacity:1;" d="M 56 60 C 58.214844 60 60 58.214844 60 56 L 60 46 L 46 46 L 46 60 Z M 56 60 "/>
<path style=" stroke:none;fill-rule:nonzero;fill:rgb(0%,0%,0%);fill-opacity:0.4;" d="M 4 55 L 4 56 C 4 58.214844 5.785156 60 8 60 L 56 60 C 58.214844 60 60 58.214844 60 56 L 60 55 C 60 57.214844 58.214844 59 56 59 L 8 59 C 5.785156 59 4 57.214844 4 55 Z M 4 55 "/>
<path style=" stroke:none;fill-rule:nonzero;fill:rgb(67.058825%,27.843139%,73.725492%);fill-opacity:1;" d="M 39 48 C 41.761719 48 44 50.238281 44 53 C 44 55.761719 41.761719 58 39 58 C 36.238281 58 34 55.761719 34 53 C 34 50.238281 36.238281 48 39 48 Z M 39 48 "/>
<path style=" stroke:none;fill-rule:nonzero;fill:rgb(67.058825%,27.843139%,73.725492%);fill-opacity:1;" d="M 39 48 C 41.761719 48 44 50.238281 44 53 C 44 55.761719 41.761719 58 39 58 C 36.238281 58 34 55.761719 34 53 C 34 50.238281 36.238281 48 39 48 Z M 39 48 "/>
<path style=" stroke:none;fill-rule:nonzero;fill:rgb(100%,100%,100%);fill-opacity:0.4;" d="M 39 48 C 36.230469 48 34 50.230469 34 53 C 34 53.167969 34.007812 53.335938 34.023438 53.5 C 34.273438 50.96875 36.398438 49 39 49 C 41.601562 49 43.726562 50.96875 43.976562 53.5 C 43.992188 53.335938 44 53.167969 44 53 C 44 50.230469 41.769531 48 39 48 Z M 39 48 "/>
<path style=" stroke:none;fill-rule:nonzero;fill:rgb(23.529412%,23.529412%,23.529412%);fill-opacity:0.4;" d="M 39 59 C 36.230469 59 34 56.769531 34 54 C 34 53.832031 34.007812 53.664062 34.023438 53.5 C 34.273438 56.03125 36.398438 58 39 58 C 41.601562 58 43.726562 56.03125 43.976562 53.5 C 43.992188 53.664062 44 53.832031 44 54 C 44 56.769531 41.769531 59 39 59 Z M 39 59 "/>
<path style=" stroke:none;fill-rule:nonzero;fill:rgb(100%,100%,100%);fill-opacity:0.4;" d="M 38.226562 50.277344 C 38.617188 50.667969 38.382812 51.539062 37.699219 52.222656 C 37.015625 52.90625 36.144531 53.144531 35.753906 52.753906 C 35.363281 52.363281 35.601562 51.492188 36.285156 50.808594 C 36.96875 50.125 37.839844 49.886719 38.226562 50.277344 Z M 38.226562 50.277344 "/>
<path style=" stroke:none;fill-rule:nonzero;fill:rgb(67.058825%,27.843139%,73.725492%);fill-opacity:1;" d="M 53.023438 48 C 55.785156 48 58.023438 50.238281 58.023438 53 C 58.023438 55.761719 55.785156 58 53.023438 58 C 50.261719 58 48.023438 55.761719 48.023438 53 C 48.023438 50.238281 50.261719 48 53.023438 48 Z M 53.023438 48 "/>
<path style=" stroke:none;fill-rule:nonzero;fill:rgb(67.058825%,27.843139%,73.725492%);fill-opacity:1;" d="M 53.023438 48 C 55.785156 48 58.023438 50.238281 58.023438 53 C 58.023438 55.761719 55.785156 58 53.023438 58 C 50.261719 58 48.023438 55.761719 48.023438 53 C 48.023438 50.238281 50.261719 48 53.023438 48 Z M 53.023438 48 "/>
<path style=" stroke:none;fill-rule:nonzero;fill:rgb(100%,100%,100%);fill-opacity:0.4;" d="M 53.023438 48 C 50.253906 48 48.023438 50.230469 48.023438 53 C 48.023438 53.167969 48.03125 53.335938 48.046875 53.5 C 48.296875 50.96875 50.421875 49 53.023438 49 C 55.625 49 57.75 50.96875 58 53.5 C 58.015625 53.335938 58.023438 53.167969 58.023438 53 C 58.023438 50.230469 55.792969 48 53.023438 48 Z M 53.023438 48 "/>
<path style=" stroke:none;fill-rule:nonzero;fill:rgb(23.529412%,23.529412%,23.529412%);fill-opacity:0.4;" d="M 53.023438 59 C 50.253906 59 48.023438 56.769531 48.023438 54 C 48.023438 53.832031 48.03125 53.664062 48.046875 53.5 C 48.296875 56.03125 50.421875 58 53.023438 58 C 55.625 58 57.75 56.03125 58 53.5 C 58.015625 53.664062 58.023438 53.832031 58.023438 54 C 58.023438 56.769531 55.792969 59 53.023438 59 Z M 53.023438 59 "/>
<path style=" stroke:none;fill-rule:nonzero;fill:rgb(100%,100%,100%);fill-opacity:0.4;" d="M 52.25 50.277344 C 52.640625 50.667969 52.40625 51.539062 51.722656 52.222656 C 51.039062 52.90625 50.167969 53.144531 49.777344 52.753906 C 49.386719 52.363281 49.625 51.492188 50.308594 50.808594 C 50.992188 50.125 51.863281 49.886719 52.25 50.277344 Z M 52.25 50.277344 "/>
<path style=" stroke:none;fill-rule:nonzero;fill:rgb(67.058825%,27.843139%,73.725492%);fill-opacity:1;" d="M 39 34 C 41.761719 34 44 36.238281 44 39 C 44 41.761719 41.761719 44 39 44 C 36.238281 44 34 41.761719 34 39 C 34 36.238281 36.238281 34 39 34 Z M 39 34 "/>
<path style=" stroke:none;fill-rule:nonzero;fill:rgb(40.000001%,73.333335%,41.568628%);fill-opacity:1;" d="M 39 34 C 41.761719 34 44 36.238281 44 39 C 44 41.761719 41.761719 44 39 44 C 36.238281 44 34 41.761719 34 39 C 34 36.238281 36.238281 34 39 34 Z M 39 34 "/>
<path style=" stroke:none;fill-rule:nonzero;fill:rgb(100%,100%,100%);fill-opacity:0.4;" d="M 39 34 C 36.230469 34 34 36.230469 34 39 C 34 39.167969 34.007812 39.335938 34.023438 39.5 C 34.273438 36.96875 36.398438 35 39 35 C 41.601562 35 43.726562 36.96875 43.976562 39.5 C 43.992188 39.335938 44 39.167969 44 39 C 44 36.230469 41.769531 34 39 34 Z M 39 34 "/>
<path style=" stroke:none;fill-rule:nonzero;fill:rgb(23.529412%,23.529412%,23.529412%);fill-opacity:0.4;" d="M 39 45 C 36.230469 45 34 42.769531 34 40 C 34 39.832031 34.007812 39.664062 34.023438 39.5 C 34.273438 42.03125 36.398438 44 39 44 C 41.601562 44 43.726562 42.03125 43.976562 39.5 C 43.992188 39.664062 44 39.832031 44 40 C 44 42.769531 41.769531 45 39 45 Z M 39 45 "/>
<path style=" stroke:none;fill-rule:nonzero;fill:rgb(100%,100%,100%);fill-opacity:0.4;" d="M 38.226562 36.277344 C 38.617188 36.667969 38.382812 37.539062 37.699219 38.222656 C 37.015625 38.90625 36.144531 39.144531 35.753906 38.753906 C 35.363281 38.363281 35.601562 37.492188 36.285156 36.808594 C 36.96875 36.125 37.839844 35.886719 38.226562 36.277344 Z M 38.226562 36.277344 "/>
<path style=" stroke:none;fill-rule:nonzero;fill:rgb(67.058825%,27.843139%,73.725492%);fill-opacity:1;" d="M 53.023438 34 C 55.785156 34 58.023438 36.238281 58.023438 39 C 58.023438 41.761719 55.785156 44 53.023438 44 C 50.261719 44 48.023438 41.761719 48.023438 39 C 48.023438 36.238281 50.261719 34 53.023438 34 Z M 53.023438 34 "/>
<path style=" stroke:none;fill-rule:nonzero;fill:rgb(40.000001%,73.333335%,41.568628%);fill-opacity:1;" d="M 53.023438 34 C 55.785156 34 58.023438 36.238281 58.023438 39 C 58.023438 41.761719 55.785156 44 53.023438 44 C 50.261719 44 48.023438 41.761719 48.023438 39 C 48.023438 36.238281 50.261719 34 53.023438 34 Z M 53.023438 34 "/>
<path style=" stroke:none;fill-rule:nonzero;fill:rgb(100%,100%,100%);fill-opacity:0.4;" d="M 53.023438 34 C 50.253906 34 48.023438 36.230469 48.023438 39 C 48.023438 39.167969 48.03125 39.335938 48.046875 39.5 C 48.296875 36.96875 50.421875 35 53.023438 35 C 55.625 35 57.75 36.96875 58 39.5 C 58.015625 39.335938 58.023438 39.167969 58.023438 39 C 58.023438 36.230469 55.792969 34 53.023438 34 Z M 53.023438 34 "/>
<path style=" stroke:none;fill-rule:nonzero;fill:rgb(23.529412%,23.529412%,23.529412%);fill-opacity:0.4;" d="M 53.023438 45 C 50.253906 45 48.023438 42.769531 48.023438 40 C 48.023438 39.832031 48.03125 39.664062 48.046875 39.5 C 48.296875 42.03125 50.421875 44 53.023438 44 C 55.625 44 57.75 42.03125 58 39.5 C 58.015625 39.664062 58.023438 39.832031 58.023438 40 C 58.023438 42.769531 55.792969 45 53.023438 45 Z M 53.023438 45 "/>
<path style=" stroke:none;fill-rule:nonzero;fill:rgb(100%,100%,100%);fill-opacity:0.4;" d="M 52.25 36.277344 C 52.640625 36.667969 52.40625 37.539062 51.722656 38.222656 C 51.039062 38.90625 50.167969 39.144531 49.777344 38.753906 C 49.386719 38.363281 49.625 37.492188 50.308594 36.808594 C 50.992188 36.125 51.863281 35.886719 52.25 36.277344 Z M 52.25 36.277344 "/>
<path style=" stroke:none;fill-rule:nonzero;fill:rgb(67.058825%,27.843139%,73.725492%);fill-opacity:1;" d="M 10.976562 48 C 13.738281 48 15.976562 50.238281 15.976562 53 C 15.976562 55.761719 13.738281 58 10.976562 58 C 8.214844 58 5.976562 55.761719 5.976562 53 C 5.976562 50.238281 8.214844 48 10.976562 48 Z M 10.976562 48 "/>
<path style=" stroke:none;fill-rule:nonzero;fill:rgb(67.058825%,27.843139%,73.725492%);fill-opacity:1;" d="M 10.976562 48 C 13.738281 48 15.976562 50.238281 15.976562 53 C 15.976562 55.761719 13.738281 58 10.976562 58 C 8.214844 58 5.976562 55.761719 5.976562 53 C 5.976562 50.238281 8.214844 48 10.976562 48 Z M 10.976562 48 "/>
<path style=" stroke:none;fill-rule:nonzero;fill:rgb(100%,100%,100%);fill-opacity:0.4;" d="M 10.976562 48 C 8.207031 48 5.976562 50.230469 5.976562 53 C 5.976562 53.167969 5.984375 53.335938 6 53.5 C 6.25 50.96875 8.375 49 10.976562 49 C 13.578125 49 15.703125 50.96875 15.953125 53.5 C 15.96875 53.335938 15.976562 53.167969 15.976562 53 C 15.976562 50.230469 13.746094 48 10.976562 48 Z M 10.976562 48 "/>
<path style=" stroke:none;fill-rule:nonzero;fill:rgb(23.529412%,23.529412%,23.529412%);fill-opacity:0.4;" d="M 10.976562 59 C 8.207031 59 5.976562 56.769531 5.976562 54 C 5.976562 53.832031 5.984375 53.664062 6 53.5 C 6.25 56.03125 8.375 58 10.976562 58 C 13.578125 58 15.703125 56.03125 15.953125 53.5 C 15.96875 53.664062 15.976562 53.832031 15.976562 54 C 15.976562 56.769531 13.746094 59 10.976562 59 Z M 10.976562 59 "/>
<path style=" stroke:none;fill-rule:nonzero;fill:rgb(100%,100%,100%);fill-opacity:0.4;" d="M 10.203125 50.277344 C 10.59375 50.667969 10.359375 51.539062 9.675781 52.222656 C 8.992188 52.90625 8.121094 53.144531 7.730469 52.753906 C 7.339844 52.363281 7.578125 51.492188 8.261719 50.808594 C 8.945312 50.125 9.816406 49.886719 10.203125 50.277344 Z M 10.203125 50.277344 "/>
<path style=" stroke:none;fill-rule:nonzero;fill:rgb(67.058825%,27.843139%,73.725492%);fill-opacity:1;" d="M 25 48 C 27.761719 48 30 50.238281 30 53 C 30 55.761719 27.761719 58 25 58 C 22.238281 58 20 55.761719 20 53 C 20 50.238281 22.238281 48 25 48 Z M 25 48 "/>
<path style=" stroke:none;fill-rule:nonzero;fill:rgb(40.000001%,73.333335%,41.568628%);fill-opacity:1;" d="M 25 48 C 27.761719 48 30 50.238281 30 53 C 30 55.761719 27.761719 58 25 58 C 22.238281 58 20 55.761719 20 53 C 20 50.238281 22.238281 48 25 48 Z M 25 48 "/>
<path style=" stroke:none;fill-rule:nonzero;fill:rgb(100%,100%,100%);fill-opacity:0.4;" d="M 25 48 C 22.230469 48 20 50.230469 20 53 C 20 53.167969 20.007812 53.335938 20.023438 53.5 C 20.273438 50.96875 22.398438 49 25 49 C 27.601562 49 29.726562 50.96875 29.976562 53.5 C 29.992188 53.335938 30 53.167969 30 53 C 30 50.230469 27.769531 48 25 48 Z M 25 48 "/>
<path style=" stroke:none;fill-rule:nonzero;fill:rgb(23.529412%,23.529412%,23.529412%);fill-opacity:0.4;" d="M 25 59 C 22.230469 59 20 56.769531 20 54 C 20 53.832031 20.007812 53.664062 20.023438 53.5 C 20.273438 56.03125 22.398438 58 25 58 C 27.601562 58 29.726562 56.03125 29.976562 53.5 C 29.992188 53.664062 30 53.832031 30 54 C 30 56.769531 27.769531 59 25 59 Z M 25 59 "/>
<path style=" stroke:none;fill-rule:nonzero;fill:rgb(100%,100%,100%);fill-opacity:0.4;" d="M 24.226562 50.277344 C 24.617188 50.667969 24.382812 51.539062 23.699219 52.222656 C 23.015625 52.90625 22.144531 53.144531 21.753906 52.753906 C 21.363281 52.363281 21.601562 51.492188 22.285156 50.808594 C 22.96875 50.125 23.839844 49.886719 24.226562 50.277344 Z M 24.226562 50.277344 "/>
<path style=" stroke:none;fill-rule:nonzero;fill:rgb(67.058825%,27.843139%,73.725492%);fill-opacity:1;" d="M 11.039062 34.015625 C 13.800781 34.015625 16.039062 36.253906 16.039062 39.015625 C 16.039062 41.777344 13.800781 44.015625 11.039062 44.015625 C 8.28125 44.015625 6.039062 41.777344 6.039062 39.015625 C 6.039062 36.253906 8.28125 34.015625 11.039062 34.015625 Z M 11.039062 34.015625 "/>
<path style=" stroke:none;fill-rule:nonzero;fill:rgb(40.000001%,73.333335%,41.568628%);fill-opacity:1;" d="M 11.039062 34.015625 C 13.800781 34.015625 16.039062 36.253906 16.039062 39.015625 C 16.039062 41.777344 13.800781 44.015625 11.039062 44.015625 C 8.28125 44.015625 6.039062 41.777344 6.039062 39.015625 C 6.039062 36.253906 8.28125 34.015625 11.039062 34.015625 Z M 11.039062 34.015625 "/>
<path style=" stroke:none;fill-rule:nonzero;fill:rgb(100%,100%,100%);fill-opacity:0.4;" d="M 11.039062 34.015625 C 8.269531 34.015625 6.039062 36.246094 6.039062 39.015625 C 6.039062 39.183594 6.046875 39.351562 6.0625 39.515625 C 6.3125 36.980469 8.441406 35.015625 11.039062 35.015625 C 13.640625 35.015625 15.769531 36.980469 16.015625 39.515625 C 16.035156 39.351562 16.039062 39.183594 16.039062 39.015625 C 16.039062 36.246094 13.8125 34.015625 11.039062 34.015625 Z M 11.039062 34.015625 "/>
<path style=" stroke:none;fill-rule:nonzero;fill:rgb(23.529412%,23.529412%,23.529412%);fill-opacity:0.4;" d="M 11.039062 45.015625 C 8.269531 45.015625 6.039062 42.785156 6.039062 40.015625 C 6.039062 39.847656 6.046875 39.679688 6.0625 39.515625 C 6.3125 42.046875 8.441406 44.015625 11.039062 44.015625 C 13.640625 44.015625 15.769531 42.046875 16.015625 39.515625 C 16.035156 39.679688 16.039062 39.847656 16.039062 40.015625 C 16.039062 42.785156 13.8125 45.015625 11.039062 45.015625 Z M 11.039062 45.015625 "/>
<path style=" stroke:none;fill-rule:nonzero;fill:rgb(100%,100%,100%);fill-opacity:0.4;" d="M 10.269531 36.292969 C 10.660156 36.683594 10.421875 37.554688 9.738281 38.238281 C 9.054688 38.921875 8.183594 39.160156 7.792969 38.769531 C 7.402344 38.378906 7.640625 37.507812 8.324219 36.824219 C 9.007812 36.140625 9.878906 35.902344 10.269531 36.292969 Z M 10.269531 36.292969 "/>
<path style=" stroke:none;fill-rule:nonzero;fill:rgb(67.058825%,27.843139%,73.725492%);fill-opacity:1;" d="M 25.0625 34.015625 C 27.824219 34.015625 30.0625 36.253906 30.0625 39.015625 C 30.0625 41.777344 27.824219 44.015625 25.0625 44.015625 C 22.304688 44.015625 20.0625 41.777344 20.0625 39.015625 C 20.0625 36.253906 22.304688 34.015625 25.0625 34.015625 Z M 25.0625 34.015625 "/>
<path style=" stroke:none;fill-rule:nonzero;fill:rgb(67.058825%,27.843139%,73.725492%);fill-opacity:1;" d="M 25.0625 34.015625 C 27.824219 34.015625 30.0625 36.253906 30.0625 39.015625 C 30.0625 41.777344 27.824219 44.015625 25.0625 44.015625 C 22.304688 44.015625 20.0625 41.777344 20.0625 39.015625 C 20.0625 36.253906 22.304688 34.015625 25.0625 34.015625 Z M 25.0625 34.015625 "/>
<path style=" stroke:none;fill-rule:nonzero;fill:rgb(100%,100%,100%);fill-opacity:0.4;" d="M 25.0625 34.015625 C 22.292969 34.015625 20.0625 36.246094 20.0625 39.015625 C 20.0625 39.183594 20.070312 39.351562 20.085938 39.515625 C 20.335938 36.980469 22.464844 35.015625 25.0625 35.015625 C 27.664062 35.015625 29.792969 36.980469 30.039062 39.515625 C 30.058594 39.351562 30.0625 39.183594 30.0625 39.015625 C 30.0625 36.246094 27.835938 34.015625 25.0625 34.015625 Z M 25.0625 34.015625 "/>
<path style=" stroke:none;fill-rule:nonzero;fill:rgb(23.529412%,23.529412%,23.529412%);fill-opacity:0.4;" d="M 25.0625 45.015625 C 22.292969 45.015625 20.0625 42.785156 20.0625 40.015625 C 20.0625 39.847656 20.070312 39.679688 20.085938 39.515625 C 20.335938 42.046875 22.464844 44.015625 25.0625 44.015625 C 27.664062 44.015625 29.792969 42.046875 30.039062 39.515625 C 30.058594 39.679688 30.0625 39.847656 30.0625 40.015625 C 30.0625 42.785156 27.835938 45.015625 25.0625 45.015625 Z M 25.0625 45.015625 "/>
<path style=" stroke:none;fill-rule:nonzero;fill:rgb(100%,100%,100%);fill-opacity:0.4;" d="M 24.292969 36.292969 C 24.683594 36.683594 24.445312 37.554688 23.761719 38.238281 C 23.078125 38.921875 22.207031 39.160156 21.816406 38.769531 C 21.425781 38.378906 21.664062 37.507812 22.347656 36.824219 C 23.03125 36.140625 23.902344 35.902344 24.292969 36.292969 Z M 24.292969 36.292969 "/>
<path style=" stroke:none;fill-rule:nonzero;fill:rgb(67.058825%,27.843139%,73.725492%);fill-opacity:1;" d="M 39.476562 20 C 42.238281 20 44.476562 22.238281 44.476562 25 C 44.476562 27.761719 42.238281 30 39.476562 30 C 36.714844 30 34.476562 27.761719 34.476562 25 C 34.476562 22.238281 36.714844 20 39.476562 20 Z M 39.476562 20 "/>
<path style=" stroke:none;fill-rule:nonzero;fill:rgb(67.058825%,27.843139%,73.725492%);fill-opacity:1;" d="M 39.476562 20 C 42.238281 20 44.476562 22.238281 44.476562 25 C 44.476562 27.761719 42.238281 30 39.476562 30 C 36.714844 30 34.476562 27.761719 34.476562 25 C 34.476562 22.238281 36.714844 20 39.476562 20 Z M 39.476562 20 "/>
<path style=" stroke:none;fill-rule:nonzero;fill:rgb(100%,100%,100%);fill-opacity:0.4;" d="M 39.476562 20 C 36.707031 20 34.476562 22.230469 34.476562 25 C 34.476562 25.167969 34.484375 25.335938 34.5 25.5 C 34.75 22.96875 36.875 21 39.476562 21 C 42.078125 21 44.203125 22.96875 44.453125 25.5 C 44.46875 25.335938 44.476562 25.167969 44.476562 25 C 44.476562 22.230469 42.246094 20 39.476562 20 Z M 39.476562 20 "/>
<path style=" stroke:none;fill-rule:nonzero;fill:rgb(23.529412%,23.529412%,23.529412%);fill-opacity:0.4;" d="M 39.476562 31 C 36.707031 31 34.476562 28.769531 34.476562 26 C 34.476562 25.832031 34.484375 25.664062 34.5 25.5 C 34.75 28.03125 36.875 30 39.476562 30 C 42.078125 30 44.203125 28.03125 44.453125 25.5 C 44.46875 25.664062 44.476562 25.832031 44.476562 26 C 44.476562 28.769531 42.246094 31 39.476562 31 Z M 39.476562 31 "/>
<path style=" stroke:none;fill-rule:nonzero;fill:rgb(100%,100%,100%);fill-opacity:0.4;" d="M 38.703125 22.277344 C 39.09375 22.667969 38.859375 23.539062 38.175781 24.222656 C 37.492188 24.90625 36.621094 25.144531 36.230469 24.753906 C 35.839844 24.363281 36.078125 23.492188 36.761719 22.808594 C 37.445312 22.125 38.316406 21.886719 38.703125 22.277344 Z M 38.703125 22.277344 "/>
<path style=" stroke:none;fill-rule:nonzero;fill:rgb(67.058825%,27.843139%,73.725492%);fill-opacity:1;" d="M 53.5 20 C 56.261719 20 58.5 22.238281 58.5 25 C 58.5 27.761719 56.261719 30 53.5 30 C 50.738281 30 48.5 27.761719 48.5 25 C 48.5 22.238281 50.738281 20 53.5 20 Z M 53.5 20 "/>
<path style=" stroke:none;fill-rule:nonzero;fill:rgb(40.000001%,73.333335%,41.568628%);fill-opacity:1;" d="M 53.5 20 C 56.261719 20 58.5 22.238281 58.5 25 C 58.5 27.761719 56.261719 30 53.5 30 C 50.738281 30 48.5 27.761719 48.5 25 C 48.5 22.238281 50.738281 20 53.5 20 Z M 53.5 20 "/>
<path style=" stroke:none;fill-rule:nonzero;fill:rgb(100%,100%,100%);fill-opacity:0.4;" d="M 53.5 20 C 50.730469 20 48.5 22.230469 48.5 25 C 48.5 25.167969 48.507812 25.335938 48.523438 25.5 C 48.773438 22.96875 50.898438 21 53.5 21 C 56.101562 21 58.226562 22.96875 58.476562 25.5 C 58.492188 25.335938 58.5 25.167969 58.5 25 C 58.5 22.230469 56.269531 20 53.5 20 Z M 53.5 20 "/>
<path style=" stroke:none;fill-rule:nonzero;fill:rgb(23.529412%,23.529412%,23.529412%);fill-opacity:0.4;" d="M 53.5 31 C 50.730469 31 48.5 28.769531 48.5 26 C 48.5 25.832031 48.507812 25.664062 48.523438 25.5 C 48.773438 28.03125 50.898438 30 53.5 30 C 56.101562 30 58.226562 28.03125 58.476562 25.5 C 58.492188 25.664062 58.5 25.832031 58.5 26 C 58.5 28.769531 56.269531 31 53.5 31 Z M 53.5 31 "/>
<path style=" stroke:none;fill-rule:nonzero;fill:rgb(100%,100%,100%);fill-opacity:0.4;" d="M 52.726562 22.277344 C 53.117188 22.667969 52.882812 23.539062 52.199219 24.222656 C 51.515625 24.90625 50.644531 25.144531 50.253906 24.753906 C 49.863281 24.363281 50.101562 23.492188 50.785156 22.808594 C 51.46875 22.125 52.339844 21.886719 52.726562 22.277344 Z M 52.726562 22.277344 "/>
<path style=" stroke:none;fill-rule:nonzero;fill:rgb(67.058825%,27.843139%,73.725492%);fill-opacity:1;" d="M 53.5 6 C 56.261719 6 58.5 8.238281 58.5 11 C 58.5 13.761719 56.261719 16 53.5 16 C 50.738281 16 48.5 13.761719 48.5 11 C 48.5 8.238281 50.738281 6 53.5 6 Z M 53.5 6 "/>
<path style=" stroke:none;fill-rule:nonzero;fill:rgb(67.058825%,27.843139%,73.725492%);fill-opacity:1;" d="M 53.5 6 C 56.261719 6 58.5 8.238281 58.5 11 C 58.5 13.761719 56.261719 16 53.5 16 C 50.738281 16 48.5 13.761719 48.5 11 C 48.5 8.238281 50.738281 6 53.5 6 Z M 53.5 6 "/>
<path style=" stroke:none;fill-rule:nonzero;fill:rgb(100%,100%,100%);fill-opacity:0.4;" d="M 53.5 6 C 50.730469 6 48.5 8.230469 48.5 11 C 48.5 11.167969 48.507812 11.335938 48.523438 11.5 C 48.773438 8.96875 50.898438 7 53.5 7 C 56.101562 7 58.226562 8.96875 58.476562 11.5 C 58.492188 11.335938 58.5 11.167969 58.5 11 C 58.5 8.230469 56.269531 6 53.5 6 Z M 53.5 6 "/>
<path style=" stroke:none;fill-rule:nonzero;fill:rgb(23.529412%,23.529412%,23.529412%);fill-opacity:0.4;" d="M 53.5 17 C 50.730469 17 48.5 14.769531 48.5 12 C 48.5 11.832031 48.507812 11.664062 48.523438 11.5 C 48.773438 14.03125 50.898438 16 53.5 16 C 56.101562 16 58.226562 14.03125 58.476562 11.5 C 58.492188 11.664062 58.5 11.832031 58.5 12 C 58.5 14.769531 56.269531 17 53.5 17 Z M 53.5 17 "/>
<path style=" stroke:none;fill-rule:nonzero;fill:rgb(100%,100%,100%);fill-opacity:0.4;" d="M 52.726562 8.277344 C 53.117188 8.667969 52.882812 9.539062 52.199219 10.222656 C 51.515625 10.90625 50.644531 11.144531 50.253906 10.753906 C 49.863281 10.363281 50.101562 9.492188 50.785156 8.808594 C 51.46875 8.125 52.339844 7.886719 52.726562 8.277344 Z M 52.726562 8.277344 "/>
<path style=" stroke:none;fill-rule:nonzero;fill:url(#linear0);" d="M 8 4 L 56 4 C 58.210938 4 60 5.789062 60 8 L 60 56 C 60 58.210938 58.210938 60 56 60 L 8 60 C 5.789062 60 4 58.210938 4 56 L 4 8 C 4 5.789062 5.789062 4 8 4 Z M 8 4 "/>
</g>
</svg>
