
<svg xmlns="http://www.w3.org/2000/svg" xmlns:xlink="http://www.w3.org/1999/xlink" width="64" height="64" viewBox="0 0 64 64" version="1.1">
<defs>
<linearGradient id="linear0" gradientUnits="userSpaceOnUse" x1="29.999998" y1="57.999996" x2="29.999998" y2="6" gradientTransform="matrix(-1,0,0,1,64,0)">
<stop offset="0" style="stop-color:rgb(0%,0%,0%);stop-opacity:0.2;"/>
<stop offset="1" style="stop-color:rgb(100%,100%,100%);stop-opacity:0;"/>
</linearGradient>
</defs>
<g id="surface1">
<path style=" stroke:none;fill-rule:nonzero;fill:rgb(87.843138%,87.843138%,87.843138%);fill-opacity:1;" d="M 8 50 L 8 58 L 22 50 Z M 8 50 "/>
<path style=" stroke:none;fill-rule:nonzero;fill:rgb(36.078432%,41.960785%,75.294119%);fill-opacity:1;" d="M 8 6 L 56 6 C 58.210938 6 60 7.789062 60 10 L 60 46 C 60 48.210938 58.210938 50 56 50 L 8 50 C 5.789062 50 4 48.210938 4 46 L 4 10 C 4 7.789062 5.789062 6 8 6 Z M 8 6 "/>
<path style=" stroke:none;fill-rule:nonzero;fill:rgb(100%,100%,100%);fill-opacity:0.4;" d="M 8 5.984375 C 5.785156 5.984375 4 7.769531 4 9.984375 L 4 11 C 4 8.785156 5.785156 7 8 7 L 56 7 C 58.214844 7 60 8.785156 60 11 L 60 9.984375 C 60 7.769531 58.214844 5.984375 56 5.984375 Z M 8 5.984375 "/>
<path style=" stroke:none;fill-rule:nonzero;fill:rgb(0%,0%,0%);fill-opacity:0.4;" d="M 8 50.015625 C 5.785156 50.015625 4 48.230469 4 46.015625 L 4 45 C 4 47.214844 5.785156 49 8 49 L 56 49 C 58.214844 49 60 47.214844 60 45 L 60 46.015625 C 60 48.230469 58.214844 50.015625 56 50.015625 Z M 8 50.015625 "/>
<path style=" stroke:none;fill-rule:nonzero;fill:rgb(0%,0%,0%);fill-opacity:0.2;" d="M 4 46.03125 L 4 47.484375 C 4 49.699219 5.785156 51.484375 8 51.484375 L 8 50.03125 C 5.785156 50.03125 4 48.246094 4 46.03125 Z M 60 46.03125 C 60 48.246094 58.214844 50.03125 56 50.03125 L 22 50.03125 L 8 58.03125 L 8 59.484375 L 22 51.484375 L 56 51.484375 C 58.214844 51.484375 60 49.699219 60 47.484375 Z M 60 46.03125 "/>
<path style=" stroke:none;fill-rule:nonzero;fill:rgb(24.705882%,31.764707%,70.980394%);fill-opacity:1;" d="M 8 50 L 8 58 L 22 50 Z M 8 50 "/>
<path style=" stroke:none;fill-rule:nonzero;fill:rgb(0%,0%,0%);fill-opacity:0.2;" d="M 8 50 L 8 51.015625 L 20.222656 51.015625 L 22 50 Z M 8 50 "/>
<path style=" stroke:none;fill-rule:nonzero;fill:rgb(87.843138%,87.843138%,87.843138%);fill-opacity:1;" d="M 22 34 C 24.761719 34 27 36.238281 27 39 C 27 41.761719 24.761719 44 22 44 C 19.238281 44 17 41.761719 17 39 C 17 36.238281 19.238281 34 22 34 Z M 22 34 "/>
<path style=" stroke:none;fill-rule:nonzero;fill:rgb(87.843138%,87.843138%,87.843138%);fill-opacity:1;" d="M 22 12 C 24.761719 12 27 14.238281 27 17 C 27 19.761719 24.761719 22 22 22 C 19.238281 22 17 19.761719 17 17 C 17 14.238281 19.238281 12 22 12 Z M 22 12 "/>
<path style=" stroke:none;fill-rule:nonzero;fill:rgb(87.843138%,87.843138%,87.843138%);fill-opacity:1;" d="M 36.5 39.054688 C 36.539062 40.679688 37.863281 41.976562 39.5 41.976562 C 40.566406 41.976562 41.496094 41.425781 42.027344 40.59375 C 42.03125 40.589844 42.03125 40.585938 42.035156 40.578125 C 47.542969 32.765625 47.539062 23.167969 42.027344 15.355469 C 42.027344 15.351562 42.027344 15.351562 42.023438 15.347656 C 41.996094 15.308594 41.96875 15.269531 41.941406 15.230469 C 41.398438 14.46875 40.507812 13.972656 39.5 13.972656 C 37.835938 13.972656 36.5 15.3125 36.5 16.972656 C 36.5 17.65625 36.722656 18.28125 37.101562 18.785156 C 41.414062 24.867188 41.410156 31.097656 37.089844 37.175781 C 37.078125 37.195312 37.066406 37.210938 37.050781 37.230469 C 36.703125 37.722656 36.496094 38.324219 36.496094 38.972656 C 36.496094 39 36.496094 39.027344 36.496094 39.050781 Z M 36.5 39.054688 "/>
<path style=" stroke:none;fill-rule:nonzero;fill:rgb(100%,100%,100%);fill-opacity:0.4;" d="M 22 34 C 19.230469 34 17 36.230469 17 39 C 17 39.167969 17.007812 39.335938 17.023438 39.5 C 17.273438 36.964844 19.398438 35 22 35 C 24.601562 35 26.726562 36.964844 26.976562 39.5 C 26.992188 39.335938 27 39.167969 27 39 C 27 36.230469 24.769531 34 22 34 Z M 22 34 "/>
<path style=" stroke:none;fill-rule:nonzero;fill:rgb(100%,100%,100%);fill-opacity:0.4;" d="M 22 12 C 19.230469 12 17 14.230469 17 17 C 17 17.167969 17.007812 17.335938 17.023438 17.5 C 17.273438 14.964844 19.398438 13 22 13 C 24.601562 13 26.726562 14.964844 26.976562 17.5 C 26.992188 17.335938 27 17.167969 27 17 C 27 14.230469 24.769531 12 22 12 Z M 22 12 "/>
<path style=" stroke:none;fill-rule:nonzero;fill:rgb(6.666667%,6.666667%,6.666667%);fill-opacity:0.4;" d="M 22 45 C 19.230469 45 17 42.769531 17 40 C 17 39.832031 17.007812 39.664062 17.023438 39.5 C 17.273438 42.03125 19.398438 44 22 44 C 24.601562 44 26.726562 42.03125 26.976562 39.5 C 26.992188 39.664062 27 39.832031 27 40 C 27 42.769531 24.769531 45 22 45 Z M 22 45 "/>
<path style=" stroke:none;fill-rule:nonzero;fill:rgb(6.666667%,6.666667%,6.666667%);fill-opacity:0.4;" d="M 22 23 C 19.230469 23 17 20.769531 17 18 C 17 17.832031 17.007812 17.664062 17.023438 17.5 C 17.273438 20.03125 19.398438 22 22 22 C 24.601562 22 26.726562 20.03125 26.976562 17.5 C 26.992188 17.664062 27 17.832031 27 18 C 27 20.769531 24.769531 23 22 23 Z M 22 23 "/>
<path style=" stroke:none;fill-rule:nonzero;fill:rgb(100%,100%,100%);fill-opacity:0.8;" d="M 39.5 13.972656 C 37.835938 13.972656 36.5 15.3125 36.5 16.972656 C 36.5 17.152344 36.515625 17.324219 36.542969 17.488281 C 36.785156 16.074219 38.011719 15 39.5 15 C 40.507812 15 41.398438 15.496094 41.941406 16.261719 C 41.96875 16.296875 41.996094 16.335938 42.019531 16.375 C 42.023438 16.378906 42.027344 16.378906 42.03125 16.382812 C 44.679688 20.144531 46.054688 24.316406 46.15625 28.503906 C 46.273438 23.972656 44.898438 19.421875 42.03125 15.355469 C 42.027344 15.351562 42.023438 15.351562 42.019531 15.347656 C 41.996094 15.308594 41.96875 15.269531 41.941406 15.234375 C 41.398438 14.46875 40.507812 13.972656 39.5 13.972656 Z M 40.324219 28.496094 C 40.207031 31.402344 39.128906 34.308594 37.089844 37.175781 C 37.078125 37.195312 37.066406 37.210938 37.050781 37.230469 C 36.703125 37.722656 36.496094 38.324219 36.496094 38.972656 C 36.496094 39 36.496094 39.027344 36.496094 39.050781 L 36.5 39.054688 C 36.503906 39.199219 36.519531 39.339844 36.542969 39.480469 C 36.621094 39.03125 36.796875 38.613281 37.050781 38.257812 C 37.066406 38.238281 37.078125 38.222656 37.089844 38.203125 C 39.371094 34.996094 40.445312 31.746094 40.324219 28.496094 Z M 40.324219 28.496094 "/>
<path style=" stroke:none;fill-rule:nonzero;fill:rgb(0%,0%,0%);fill-opacity:0.4;" d="M 39.5 43 C 37.835938 43 36.5 41.660156 36.5 40 C 36.5 39.824219 36.515625 39.652344 36.542969 39.484375 C 36.785156 40.902344 38.011719 41.972656 39.5 41.972656 C 40.507812 41.972656 41.398438 41.476562 41.941406 40.714844 C 41.96875 40.675781 41.996094 40.636719 42.023438 40.597656 C 42.023438 40.597656 42.027344 40.597656 42.03125 40.59375 C 44.679688 36.832031 46.054688 32.660156 46.15625 28.472656 C 46.273438 33 44.898438 37.550781 42.03125 41.621094 C 42.027344 41.621094 42.023438 41.625 42.023438 41.625 C 41.996094 41.664062 41.96875 41.703125 41.941406 41.742188 C 41.398438 42.503906 40.507812 43 39.5 43 Z M 40.324219 28.476562 C 40.207031 25.574219 39.128906 22.667969 37.089844 19.796875 C 37.078125 19.777344 37.066406 19.761719 37.050781 19.742188 C 36.703125 19.253906 36.496094 18.652344 36.496094 18 C 36.496094 17.972656 36.496094 17.949219 36.496094 17.921875 L 36.5 17.917969 C 36.503906 17.773438 36.519531 17.632812 36.539062 17.492188 C 36.621094 17.945312 36.796875 18.359375 37.050781 18.714844 C 37.066406 18.734375 37.078125 18.75 37.089844 18.769531 C 39.371094 21.980469 40.445312 25.230469 40.320312 28.476562 Z M 40.324219 28.476562 "/>
<path style=" stroke:none;fill-rule:nonzero;fill:url(#linear0);" d="M 56 6 C 58.214844 6 60 7.785156 60 10 L 60 46 C 60 48.214844 58.214844 50 56 50 L 22 50 L 8 58 L 8 50 C 5.785156 50 4 48.214844 4 46 L 4 10 C 4 7.785156 5.785156 6 8 6 Z M 56 6 "/>
</g>
</svg>
