
<svg xmlns="http://www.w3.org/2000/svg" xmlns:xlink="http://www.w3.org/1999/xlink" width="64" height="64" viewBox="0 0 64 64" version="1.1">
<defs>
<linearGradient id="linear0" gradientUnits="userSpaceOnUse" x1="8.466666" y1="-199.125" x2="8.466666" y2="-213.412506" gradientTransform="matrix(3.779528,0,0,3.779528,0,812.598468)">
<stop offset="0" style="stop-color:rgb(0%,0%,0%);stop-opacity:0.2;"/>
<stop offset="1" style="stop-color:rgb(100%,100%,100%);stop-opacity:0;"/>
</linearGradient>
<linearGradient id="linear1" gradientUnits="userSpaceOnUse" x1="12.7" y1="-199.125" x2="12.7" y2="-213.941666" gradientTransform="matrix(3.779528,0,0,3.779528,-16.980469,784.594536)">
<stop offset="0" style="stop-color:rgb(0%,0%,0%);stop-opacity:0.2;"/>
<stop offset="1" style="stop-color:rgb(100%,100%,100%);stop-opacity:0;"/>
</linearGradient>
</defs>
<g id="surface1">
<path style=" stroke:none;fill-rule:nonzero;fill:rgb(38.039216%,38.039216%,38.039216%);fill-opacity:1;" d="M 14 4 L 50 4 C 52.210938 4 54 5.789062 54 8 L 54 56 C 54 58.210938 52.210938 60 50 60 L 14 60 C 11.789062 60 10 58.210938 10 56 L 10 8 C 10 5.789062 11.789062 4 14 4 Z M 14 4 "/>
<path style=" stroke:none;fill-rule:nonzero;fill:rgb(25.882354%,64.705884%,96.078432%);fill-opacity:0.996078;" d="M 19 34 L 45 34 C 45.550781 34 46 34.449219 46 35 L 46 55 C 46 55.550781 45.550781 56 45 56 L 19 56 C 18.449219 56 18 55.550781 18 55 L 18 35 C 18 34.449219 18.449219 34 19 34 Z M 19 34 "/>
<path style=" stroke:none;fill-rule:nonzero;fill:rgb(0.784314%,0.784314%,0.784314%);fill-opacity:0.4;" d="M 19 34 C 18.445312 34 18 34.445312 18 35 L 18 35.5 C 18 34.945312 18.445312 34.5 19 34.5 L 45 34.5 C 45.554688 34.5 46 34.945312 46 35.5 L 46 35 C 46 34.445312 45.554688 34 45 34 Z M 19 34 "/>
<path style=" stroke:none;fill-rule:nonzero;fill:rgb(99.607843%,99.607843%,99.607843%);fill-opacity:0.4;" d="M 19 56.5 C 18.445312 56.5 18 56.054688 18 55.5 L 18 55 C 18 55.554688 18.445312 56 19 56 L 45 56 C 45.554688 56 46 55.554688 46 55 L 46 55.5 C 46 56.054688 45.554688 56.5 45 56.5 Z M 19 56.5 "/>
<path style=" stroke:none;fill-rule:nonzero;fill:rgb(25.882354%,64.705884%,96.078432%);fill-opacity:0.996078;" d="M 19 8 L 45 8 C 45.550781 8 46 8.449219 46 9 L 46 29 C 46 29.550781 45.550781 30 45 30 L 19 30 C 18.449219 30 18 29.550781 18 29 L 18 9 C 18 8.449219 18.449219 8 19 8 Z M 19 8 "/>
<path style=" stroke:none;fill-rule:nonzero;fill:rgb(0.784314%,0.784314%,0.784314%);fill-opacity:0.4;" d="M 19 8 C 18.445312 8 18 8.445312 18 9 L 18 9.5 C 18 8.945312 18.445312 8.5 19 8.5 L 45 8.5 C 45.554688 8.5 46 8.945312 46 9.5 L 46 9 C 46 8.445312 45.554688 8 45 8 Z M 19 8 "/>
<path style=" stroke:none;fill-rule:nonzero;fill:rgb(99.607843%,99.607843%,99.607843%);fill-opacity:0.4;" d="M 19 30.5 C 18.445312 30.5 18 30.054688 18 29.5 L 18 29 C 18 29.554688 18.445312 30 19 30 L 45 30 C 45.554688 30 46 29.554688 46 29 L 46 29.5 C 46 30.054688 45.554688 30.5 45 30.5 Z M 19 30.5 "/>
<path style=" stroke:none;fill-rule:nonzero;fill:rgb(0.392157%,0.392157%,0.392157%);fill-opacity:0.4;" d="M 14 60 C 11.785156 60 10 58.214844 10 56 L 10 55.003906 C 10 57.222656 11.785156 59.003906 14 59.003906 L 50 59.003906 C 52.214844 59.003906 54 57.222656 54 55.003906 L 54 56 C 54 58.214844 52.214844 60 50 60 Z M 14 60 "/>
<path style=" stroke:none;fill-rule:nonzero;fill:rgb(0.392157%,0.392157%,0.392157%);fill-opacity:0.2;" d="M 10 56 L 10 57.496094 C 10 59.710938 11.785156 61.496094 14 61.496094 L 50 61.496094 C 52.214844 61.496094 54 59.710938 54 57.496094 L 54 56 C 54 58.214844 52.214844 60 50 60 L 14 60 C 11.785156 60 10 58.214844 10 56 Z M 10 56 "/>
<path style=" stroke:none;fill-rule:nonzero;fill:rgb(100%,100%,100%);fill-opacity:0.4;" d="M 14 4.007812 C 11.785156 4.007812 10 5.789062 10 8.007812 L 10 9 C 10 6.785156 11.785156 5 14 5 L 50 5 C 52.214844 5 54 6.785156 54 9 L 54 8.007812 C 54 5.789062 52.214844 4.007812 50 4.007812 Z M 14 4.007812 "/>
<path style=" stroke:none;fill-rule:nonzero;fill:rgb(0%,0%,0%);fill-opacity:0.4;" d="M 13 6 L 15 6 C 15.550781 6 16 6.449219 16 7 L 16 9 C 16 9.550781 15.550781 10 15 10 L 13 10 C 12.449219 10 12 9.550781 12 9 L 12 7 C 12 6.449219 12.449219 6 13 6 Z M 13 6 "/>
<path style=" stroke:none;fill-rule:nonzero;fill:rgb(0%,0%,0%);fill-opacity:0.4;" d="M 13 6 C 12.445312 6 12 6.445312 12 7 L 12 8 C 12 7.445312 12.445312 7 13 7 L 15 7 C 15.554688 7 16 7.445312 16 8 L 16 7 C 16 6.445312 15.554688 6 15 6 Z M 13 6 "/>
<path style=" stroke:none;fill-rule:nonzero;fill:rgb(99.607843%,99.607843%,99.607843%);fill-opacity:0.4;" d="M 13 11 C 12.445312 11 12 10.554688 12 10 L 12 9 C 12 9.554688 12.445312 10 13 10 L 15 10 C 15.554688 10 16 9.554688 16 9 L 16 10 C 16 10.554688 15.554688 11 15 11 Z M 13 11 "/>
<path style=" stroke:none;fill-rule:nonzero;fill:rgb(0%,0%,0%);fill-opacity:0.4;" d="M 49 6 L 51 6 C 51.550781 6 52 6.449219 52 7 L 52 9 C 52 9.550781 51.550781 10 51 10 L 49 10 C 48.449219 10 48 9.550781 48 9 L 48 7 C 48 6.449219 48.449219 6 49 6 Z M 49 6 "/>
<path style=" stroke:none;fill-rule:nonzero;fill:rgb(0%,0%,0%);fill-opacity:0.4;" d="M 49 6 C 48.445312 6 48 6.445312 48 7 L 48 8 C 48 7.445312 48.445312 7 49 7 L 51 7 C 51.554688 7 52 7.445312 52 8 L 52 7 C 52 6.445312 51.554688 6 51 6 Z M 49 6 "/>
<path style=" stroke:none;fill-rule:nonzero;fill:rgb(99.607843%,99.607843%,99.607843%);fill-opacity:0.4;" d="M 49 11 C 48.445312 11 48 10.554688 48 10 L 48 9 C 48 9.554688 48.445312 10 49 10 L 51 10 C 51.554688 10 52 9.554688 52 9 L 52 10 C 52 10.554688 51.554688 11 51 11 Z M 49 11 "/>
<path style=" stroke:none;fill-rule:nonzero;fill:rgb(0%,0%,0%);fill-opacity:0.4;" d="M 13 14 L 15 14 C 15.550781 14 16 14.449219 16 15 L 16 17 C 16 17.550781 15.550781 18 15 18 L 13 18 C 12.449219 18 12 17.550781 12 17 L 12 15 C 12 14.449219 12.449219 14 13 14 Z M 13 14 "/>
<path style=" stroke:none;fill-rule:nonzero;fill:rgb(0%,0%,0%);fill-opacity:0.4;" d="M 13 14 C 12.445312 14 12 14.445312 12 15 L 12 16 C 12 15.445312 12.445312 15 13 15 L 15 15 C 15.554688 15 16 15.445312 16 16 L 16 15 C 16 14.445312 15.554688 14 15 14 Z M 13 14 "/>
<path style=" stroke:none;fill-rule:nonzero;fill:rgb(99.607843%,99.607843%,99.607843%);fill-opacity:0.4;" d="M 13 19 C 12.445312 19 12 18.554688 12 18 L 12 17 C 12 17.554688 12.445312 18 13 18 L 15 18 C 15.554688 18 16 17.554688 16 17 L 16 18 C 16 18.554688 15.554688 19 15 19 Z M 13 19 "/>
<path style=" stroke:none;fill-rule:nonzero;fill:rgb(0%,0%,0%);fill-opacity:0.4;" d="M 49 14 L 51 14 C 51.550781 14 52 14.449219 52 15 L 52 17 C 52 17.550781 51.550781 18 51 18 L 49 18 C 48.449219 18 48 17.550781 48 17 L 48 15 C 48 14.449219 48.449219 14 49 14 Z M 49 14 "/>
<path style=" stroke:none;fill-rule:nonzero;fill:rgb(0%,0%,0%);fill-opacity:0.4;" d="M 49 14 C 48.445312 14 48 14.445312 48 15 L 48 16 C 48 15.445312 48.445312 15 49 15 L 51 15 C 51.554688 15 52 15.445312 52 16 L 52 15 C 52 14.445312 51.554688 14 51 14 Z M 49 14 "/>
<path style=" stroke:none;fill-rule:nonzero;fill:rgb(99.607843%,99.607843%,99.607843%);fill-opacity:0.4;" d="M 49 19 C 48.445312 19 48 18.554688 48 18 L 48 17 C 48 17.554688 48.445312 18 49 18 L 51 18 C 51.554688 18 52 17.554688 52 17 L 52 18 C 52 18.554688 51.554688 19 51 19 Z M 49 19 "/>
<path style=" stroke:none;fill-rule:nonzero;fill:rgb(0%,0%,0%);fill-opacity:0.4;" d="M 13 22 L 15 22 C 15.550781 22 16 22.449219 16 23 L 16 25 C 16 25.550781 15.550781 26 15 26 L 13 26 C 12.449219 26 12 25.550781 12 25 L 12 23 C 12 22.449219 12.449219 22 13 22 Z M 13 22 "/>
<path style=" stroke:none;fill-rule:nonzero;fill:rgb(0%,0%,0%);fill-opacity:0.4;" d="M 13 22 C 12.445312 22 12 22.445312 12 23 L 12 24 C 12 23.445312 12.445312 23 13 23 L 15 23 C 15.554688 23 16 23.445312 16 24 L 16 23 C 16 22.445312 15.554688 22 15 22 Z M 13 22 "/>
<path style=" stroke:none;fill-rule:nonzero;fill:rgb(99.607843%,99.607843%,99.607843%);fill-opacity:0.4;" d="M 13 27 C 12.445312 27 12 26.554688 12 26 L 12 25 C 12 25.554688 12.445312 26 13 26 L 15 26 C 15.554688 26 16 25.554688 16 25 L 16 26 C 16 26.554688 15.554688 27 15 27 Z M 13 27 "/>
<path style=" stroke:none;fill-rule:nonzero;fill:rgb(0%,0%,0%);fill-opacity:0.4;" d="M 49 22 L 51 22 C 51.550781 22 52 22.449219 52 23 L 52 25 C 52 25.550781 51.550781 26 51 26 L 49 26 C 48.449219 26 48 25.550781 48 25 L 48 23 C 48 22.449219 48.449219 22 49 22 Z M 49 22 "/>
<path style=" stroke:none;fill-rule:nonzero;fill:rgb(0%,0%,0%);fill-opacity:0.4;" d="M 49 22 C 48.445312 22 48 22.445312 48 23 L 48 24 C 48 23.445312 48.445312 23 49 23 L 51 23 C 51.554688 23 52 23.445312 52 24 L 52 23 C 52 22.445312 51.554688 22 51 22 Z M 49 22 "/>
<path style=" stroke:none;fill-rule:nonzero;fill:rgb(99.607843%,99.607843%,99.607843%);fill-opacity:0.4;" d="M 49 27 C 48.445312 27 48 26.554688 48 26 L 48 25 C 48 25.554688 48.445312 26 49 26 L 51 26 C 51.554688 26 52 25.554688 52 25 L 52 26 C 52 26.554688 51.554688 27 51 27 Z M 49 27 "/>
<path style=" stroke:none;fill-rule:nonzero;fill:rgb(0%,0%,0%);fill-opacity:0.4;" d="M 13 30 L 15 30 C 15.550781 30 16 30.449219 16 31 L 16 33 C 16 33.550781 15.550781 34 15 34 L 13 34 C 12.449219 34 12 33.550781 12 33 L 12 31 C 12 30.449219 12.449219 30 13 30 Z M 13 30 "/>
<path style=" stroke:none;fill-rule:nonzero;fill:rgb(0%,0%,0%);fill-opacity:0.4;" d="M 13 30 C 12.445312 30 12 30.445312 12 31 L 12 32 C 12 31.445312 12.445312 31 13 31 L 15 31 C 15.554688 31 16 31.445312 16 32 L 16 31 C 16 30.445312 15.554688 30 15 30 Z M 13 30 "/>
<path style=" stroke:none;fill-rule:nonzero;fill:rgb(99.607843%,99.607843%,99.607843%);fill-opacity:0.4;" d="M 13 35 C 12.445312 35 12 34.554688 12 34 L 12 33 C 12 33.554688 12.445312 34 13 34 L 15 34 C 15.554688 34 16 33.554688 16 33 L 16 34 C 16 34.554688 15.554688 35 15 35 Z M 13 35 "/>
<path style=" stroke:none;fill-rule:nonzero;fill:rgb(0%,0%,0%);fill-opacity:0.4;" d="M 49 30 L 51 30 C 51.550781 30 52 30.449219 52 31 L 52 33 C 52 33.550781 51.550781 34 51 34 L 49 34 C 48.449219 34 48 33.550781 48 33 L 48 31 C 48 30.449219 48.449219 30 49 30 Z M 49 30 "/>
<path style=" stroke:none;fill-rule:nonzero;fill:rgb(0%,0%,0%);fill-opacity:0.4;" d="M 49 30 C 48.445312 30 48 30.445312 48 31 L 48 32 C 48 31.445312 48.445312 31 49 31 L 51 31 C 51.554688 31 52 31.445312 52 32 L 52 31 C 52 30.445312 51.554688 30 51 30 Z M 49 30 "/>
<path style=" stroke:none;fill-rule:nonzero;fill:rgb(99.607843%,99.607843%,99.607843%);fill-opacity:0.4;" d="M 49 35 C 48.445312 35 48 34.554688 48 34 L 48 33 C 48 33.554688 48.445312 34 49 34 L 51 34 C 51.554688 34 52 33.554688 52 33 L 52 34 C 52 34.554688 51.554688 35 51 35 Z M 49 35 "/>
<path style=" stroke:none;fill-rule:nonzero;fill:rgb(0%,0%,0%);fill-opacity:0.4;" d="M 13 38 L 15 38 C 15.550781 38 16 38.449219 16 39 L 16 41 C 16 41.550781 15.550781 42 15 42 L 13 42 C 12.449219 42 12 41.550781 12 41 L 12 39 C 12 38.449219 12.449219 38 13 38 Z M 13 38 "/>
<path style=" stroke:none;fill-rule:nonzero;fill:rgb(0%,0%,0%);fill-opacity:0.4;" d="M 13 38 C 12.445312 38 12 38.445312 12 39 L 12 40 C 12 39.445312 12.445312 39 13 39 L 15 39 C 15.554688 39 16 39.445312 16 40 L 16 39 C 16 38.445312 15.554688 38 15 38 Z M 13 38 "/>
<path style=" stroke:none;fill-rule:nonzero;fill:rgb(99.607843%,99.607843%,99.607843%);fill-opacity:0.4;" d="M 13 43 C 12.445312 43 12 42.554688 12 42 L 12 41 C 12 41.554688 12.445312 42 13 42 L 15 42 C 15.554688 42 16 41.554688 16 41 L 16 42 C 16 42.554688 15.554688 43 15 43 Z M 13 43 "/>
<path style=" stroke:none;fill-rule:nonzero;fill:rgb(0%,0%,0%);fill-opacity:0.4;" d="M 49 38 L 51 38 C 51.550781 38 52 38.449219 52 39 L 52 41 C 52 41.550781 51.550781 42 51 42 L 49 42 C 48.449219 42 48 41.550781 48 41 L 48 39 C 48 38.449219 48.449219 38 49 38 Z M 49 38 "/>
<path style=" stroke:none;fill-rule:nonzero;fill:rgb(0%,0%,0%);fill-opacity:0.4;" d="M 49 38 C 48.445312 38 48 38.445312 48 39 L 48 40 C 48 39.445312 48.445312 39 49 39 L 51 39 C 51.554688 39 52 39.445312 52 40 L 52 39 C 52 38.445312 51.554688 38 51 38 Z M 49 38 "/>
<path style=" stroke:none;fill-rule:nonzero;fill:rgb(99.607843%,99.607843%,99.607843%);fill-opacity:0.4;" d="M 49 43 C 48.445312 43 48 42.554688 48 42 L 48 41 C 48 41.554688 48.445312 42 49 42 L 51 42 C 51.554688 42 52 41.554688 52 41 L 52 42 C 52 42.554688 51.554688 43 51 43 Z M 49 43 "/>
<path style=" stroke:none;fill-rule:nonzero;fill:rgb(0%,0%,0%);fill-opacity:0.4;" d="M 13 46 L 15 46 C 15.550781 46 16 46.449219 16 47 L 16 49 C 16 49.550781 15.550781 50 15 50 L 13 50 C 12.449219 50 12 49.550781 12 49 L 12 47 C 12 46.449219 12.449219 46 13 46 Z M 13 46 "/>
<path style=" stroke:none;fill-rule:nonzero;fill:rgb(0%,0%,0%);fill-opacity:0.4;" d="M 13 46 C 12.445312 46 12 46.445312 12 47 L 12 48 C 12 47.445312 12.445312 47 13 47 L 15 47 C 15.554688 47 16 47.445312 16 48 L 16 47 C 16 46.445312 15.554688 46 15 46 Z M 13 46 "/>
<path style=" stroke:none;fill-rule:nonzero;fill:rgb(99.607843%,99.607843%,99.607843%);fill-opacity:0.4;" d="M 13 51 C 12.445312 51 12 50.554688 12 50 L 12 49 C 12 49.554688 12.445312 50 13 50 L 15 50 C 15.554688 50 16 49.554688 16 49 L 16 50 C 16 50.554688 15.554688 51 15 51 Z M 13 51 "/>
<path style=" stroke:none;fill-rule:nonzero;fill:rgb(0%,0%,0%);fill-opacity:0.4;" d="M 49 46 L 51 46 C 51.550781 46 52 46.449219 52 47 L 52 49 C 52 49.550781 51.550781 50 51 50 L 49 50 C 48.449219 50 48 49.550781 48 49 L 48 47 C 48 46.449219 48.449219 46 49 46 Z M 49 46 "/>
<path style=" stroke:none;fill-rule:nonzero;fill:rgb(0%,0%,0%);fill-opacity:0.4;" d="M 49 46 C 48.445312 46 48 46.445312 48 47 L 48 48 C 48 47.445312 48.445312 47 49 47 L 51 47 C 51.554688 47 52 47.445312 52 48 L 52 47 C 52 46.445312 51.554688 46 51 46 Z M 49 46 "/>
<path style=" stroke:none;fill-rule:nonzero;fill:rgb(99.607843%,99.607843%,99.607843%);fill-opacity:0.4;" d="M 49 51 C 48.445312 51 48 50.554688 48 50 L 48 49 C 48 49.554688 48.445312 50 49 50 L 51 50 C 51.554688 50 52 49.554688 52 49 L 52 50 C 52 50.554688 51.554688 51 51 51 Z M 49 51 "/>
<path style=" stroke:none;fill-rule:nonzero;fill:rgb(0%,0%,0%);fill-opacity:0.4;" d="M 13 54 L 15 54 C 15.550781 54 16 54.449219 16 55 L 16 57 C 16 57.550781 15.550781 58 15 58 L 13 58 C 12.449219 58 12 57.550781 12 57 L 12 55 C 12 54.449219 12.449219 54 13 54 Z M 13 54 "/>
<path style=" stroke:none;fill-rule:nonzero;fill:rgb(0%,0%,0%);fill-opacity:0.4;" d="M 13 54 C 12.445312 54 12 54.445312 12 55 L 12 56 C 12 55.445312 12.445312 55 13 55 L 15 55 C 15.554688 55 16 55.445312 16 56 L 16 55 C 16 54.445312 15.554688 54 15 54 Z M 13 54 "/>
<path style=" stroke:none;fill-rule:nonzero;fill:rgb(99.607843%,99.607843%,99.607843%);fill-opacity:0.4;" d="M 13 59 C 12.445312 59 12 58.554688 12 58 L 12 57 C 12 57.554688 12.445312 58 13 58 L 15 58 C 15.554688 58 16 57.554688 16 57 L 16 58 C 16 58.554688 15.554688 59 15 59 Z M 13 59 "/>
<path style=" stroke:none;fill-rule:nonzero;fill:rgb(0%,0%,0%);fill-opacity:0.4;" d="M 49 54 L 51 54 C 51.550781 54 52 54.449219 52 55 L 52 57 C 52 57.550781 51.550781 58 51 58 L 49 58 C 48.449219 58 48 57.550781 48 57 L 48 55 C 48 54.449219 48.449219 54 49 54 Z M 49 54 "/>
<path style=" stroke:none;fill-rule:nonzero;fill:rgb(0%,0%,0%);fill-opacity:0.4;" d="M 49 54 C 48.445312 54 48 54.445312 48 55 L 48 56 C 48 55.445312 48.445312 55 49 55 L 51 55 C 51.554688 55 52 55.445312 52 56 L 52 55 C 52 54.445312 51.554688 54 51 54 Z M 49 54 "/>
<path style=" stroke:none;fill-rule:nonzero;fill:rgb(99.607843%,99.607843%,99.607843%);fill-opacity:0.4;" d="M 49 59 C 48.445312 59 48 58.554688 48 58 L 48 57 C 48 57.554688 48.445312 58 49 58 L 51 58 C 51.554688 58 52 57.554688 52 57 L 52 58 C 52 58.554688 51.554688 59 51 59 Z M 49 59 "/>
<path style=" stroke:none;fill-rule:nonzero;fill:url(#linear0);" d="M 14 4 L 50 4 C 52.210938 4 54 5.789062 54 8 L 54 56 C 54 58.210938 52.210938 60 50 60 L 14 60 C 11.789062 60 10 58.210938 10 56 L 10 8 C 10 5.789062 11.789062 4 14 4 Z M 14 4 "/>
<path style=" stroke:none;fill-rule:nonzero;fill:rgb(100%,79.215688%,15.686275%);fill-opacity:1;" d="M 28.003906 3.972656 C 26.894531 3.972656 26 4.867188 26 5.976562 L 26 21 L 21.628906 21 C 21.046875 21 20.769531 21.714844 21.199219 22.105469 L 30.804688 31.515625 C 31.484375 32.144531 32.554688 32.164062 33.21875 31.515625 L 42.820312 22.105469 C 43.25 21.714844 42.972656 21 42.390625 21 L 38.019531 21 L 38.019531 5.976562 C 38.019531 4.867188 37.125 3.972656 36.015625 3.972656 Z M 28.003906 3.972656 "/>
<path style=" stroke:none;fill-rule:nonzero;fill:rgb(100%,43.921569%,26.274511%);fill-opacity:1;" d="M 36.125 17.578125 C 32.75 17.632812 29.375 21.375 26 18 L 26 21 L 21.628906 21 C 21.046875 21 20.769531 21.714844 21.199219 22.109375 L 30.800781 31.515625 C 31.484375 32.144531 32.554688 32.164062 33.21875 31.515625 L 42.824219 22.109375 C 43.25 21.714844 42.972656 21 42.390625 21 L 38.019531 21 L 38.019531 18.011719 L 38 18 C 37.375 17.6875 36.75 17.570312 36.125 17.578125 Z M 36.125 17.578125 "/>
<path style=" stroke:none;fill-rule:nonzero;fill:rgb(100%,100%,100%);fill-opacity:0.4;" d="M 28.003906 3.972656 C 26.894531 3.972656 26 4.867188 26 5.976562 L 26 7 C 26 5.890625 26.894531 4.996094 28.003906 4.996094 L 36.015625 4.996094 C 37.125 4.996094 38.019531 5.890625 38.019531 7 L 38.019531 5.976562 C 38.019531 4.867188 37.125 3.972656 36.015625 3.972656 Z M 21.628906 21 C 21.046875 21 20.769531 21.714844 21.199219 22.105469 L 21.242188 22.152344 C 21.34375 22.074219 21.476562 22.023438 21.628906 22.023438 L 26 22.023438 L 26 21 Z M 38.019531 21 L 38.019531 22.023438 L 42.394531 22.023438 C 42.542969 22.023438 42.675781 22.074219 42.777344 22.152344 L 42.820312 22.105469 C 43.25 21.714844 42.972656 21 42.390625 21 Z M 38.019531 21 "/>
<path style=" stroke:none;fill-rule:nonzero;fill:rgb(0%,0%,0%);fill-opacity:0.4;" d="M 21.226562 21.140625 C 20.949219 21.371094 20.886719 21.824219 21.199219 22.105469 L 30.804688 31.515625 C 31.484375 32.144531 32.554688 32.164062 33.21875 31.515625 L 42.824219 22.105469 C 43.132812 21.824219 43.070312 21.371094 42.792969 21.140625 L 33.21875 30.523438 C 32.554688 31.171875 31.484375 31.148438 30.804688 30.523438 Z M 21.226562 21.140625 "/>
<path style=" stroke:none;fill-rule:nonzero;fill:rgb(0%,0%,0%);fill-opacity:0.2;" d="M 21.601562 22.496094 C 21.039062 22.519531 20.777344 23.214844 21.199219 23.601562 L 30.804688 33.011719 C 31.484375 33.640625 32.554688 33.660156 33.21875 33.011719 L 42.824219 23.601562 C 43.242188 23.214844 42.980469 22.519531 42.417969 22.496094 L 33.21875 31.511719 C 32.554688 32.160156 31.484375 32.140625 30.804688 31.511719 Z M 21.601562 22.496094 "/>
<path style=" stroke:none;fill-rule:nonzero;fill:url(#linear1);" d="M 28.003906 3.972656 C 26.894531 3.972656 26 4.867188 26 5.976562 L 26 21 L 21.628906 21 C 21.046875 21 20.769531 21.714844 21.199219 22.105469 L 30.804688 31.515625 C 31.484375 32.144531 32.554688 32.164062 33.21875 31.515625 L 42.820312 22.105469 C 43.25 21.714844 42.972656 21 42.390625 21 L 38.019531 21 L 38.019531 5.976562 C 38.019531 4.867188 37.125 3.972656 36.015625 3.972656 Z M 28.003906 3.972656 "/>
</g>
</svg>
