
<svg xmlns="http://www.w3.org/2000/svg" xmlns:xlink="http://www.w3.org/1999/xlink" width="64" height="64" viewBox="0 0 64 64" version="1.1">
<defs>
<linearGradient id="linear0" gradientUnits="userSpaceOnUse" x1="8.466666" y1="-199.125" x2="8.466666" y2="-213.941666" gradientTransform="matrix(3.779528,0,0,3.779528,0,812.598468)">
<stop offset="0" style="stop-color:rgb(0%,0%,0%);stop-opacity:0.2;"/>
<stop offset="1" style="stop-color:rgb(100%,100%,100%);stop-opacity:0;"/>
</linearGradient>
</defs>
<g id="surface1">
<path style=" stroke:none;fill-rule:nonzero;fill:rgb(93.333334%,93.333334%,93.333334%);fill-opacity:1;" d="M 32 3.992188 C 47.464844 3.992188 60.003906 16.53125 60.003906 32 C 60.003906 47.464844 47.464844 60.003906 32 60.003906 C 16.53125 60.003906 3.992188 47.464844 3.992188 32 C 3.992188 16.53125 16.53125 3.992188 32 3.992188 Z M 32 3.992188 "/>
<path style=" stroke:none;fill-rule:nonzero;fill:rgb(100%,100%,100%);fill-opacity:0.6;" d="M 32 4 C 16.539062 4 4 16.535156 4 32 C 4 32.164062 4.003906 32.332031 4.007812 32.5 C 4.273438 17.265625 16.703125 5 32 5 C 47.296875 5 59.726562 17.265625 59.992188 32.5 C 59.996094 32.332031 60 32.164062 60 32 C 60 16.535156 47.460938 4 32 4 Z M 32 4 "/>
<path style=" stroke:none;fill-rule:nonzero;fill:rgb(0%,0%,0%);fill-opacity:0.4;" d="M 4.015625 31.492188 C 4.011719 31.660156 4 31.824219 4 31.988281 C 4 47.453125 16.539062 59.988281 32 59.988281 C 47.460938 59.988281 59.996094 47.453125 59.996094 31.988281 C 59.996094 31.824219 59.988281 31.660156 59.984375 31.492188 C 59.71875 46.726562 47.296875 58.996094 32 58.996094 C 16.703125 58.996094 4.28125 46.726562 4.015625 31.492188 Z M 4.015625 31.492188 "/>
<path style=" stroke:none;fill-rule:nonzero;fill:rgb(0%,0%,0%);fill-opacity:0.2;" d="M 4.015625 32.75 C 4.007812 33 4 33.25 4 33.5 C 4 48.960938 16.539062 61.5 32 61.5 C 47.460938 61.5 60 48.960938 60 33.5 C 60 33.25 59.992188 33 59.984375 32.75 C 59.585938 47.863281 47.210938 59.996094 32 59.996094 C 16.789062 59.996094 4.414062 47.863281 4.015625 32.75 Z M 4.015625 32.75 "/>
<path style=" stroke:none;fill-rule:nonzero;fill:rgb(36.078432%,41.960785%,75.294119%);fill-opacity:1;" d="M 32 16 C 25.351562 16 20 21.351562 20 28 L 20 30.195312 L 20.832031 30.753906 L 32 38.195312 L 43.171875 30.753906 L 44 30.199219 L 44 28 C 44 21.351562 38.648438 16 32 16 Z M 32 20 C 36.433594 20 40 23.566406 40 28 L 40 30 L 24 30 L 24 28 C 24 23.566406 27.566406 20 32 20 Z M 20 33.800781 L 20 44 L 44 44 L 44 33.800781 L 32.835938 41.25 C 32.328125 41.585938 31.671875 41.585938 31.167969 41.25 Z M 20 33.800781 "/>
<path style=" stroke:none;fill-rule:nonzero;fill:rgb(100%,100%,100%);fill-opacity:0.4;" d="M 32 16 C 25.351562 16 20 21.351562 20 28 L 20 29 C 20 22.351562 25.351562 17 32 17 C 38.648438 17 44 22.351562 44 29 L 44 28 C 44 21.351562 38.648438 16 32 16 Z M 24 30 L 24 31 L 40 31 L 40 30 Z M 20 33.800781 L 20 34.800781 L 31.167969 42.25 C 31.671875 42.585938 32.328125 42.585938 32.832031 42.25 L 44 34.800781 L 44 33.800781 L 32.832031 41.25 C 32.328125 41.585938 31.671875 41.585938 31.167969 41.25 Z M 20 33.800781 "/>
<path style=" stroke:none;fill-rule:nonzero;fill:rgb(0%,0%,0%);fill-opacity:0.4;" d="M 32 20 C 27.566406 20 24 23.566406 24 28 L 24 29 C 24 24.566406 27.566406 21 32 21 C 36.433594 21 40 24.566406 40 29 L 40 28 C 40 23.566406 36.433594 20 32 20 Z M 20 30.199219 L 20 31.199219 L 20.832031 31.753906 L 32 39.195312 L 43.171875 31.753906 L 44 31.199219 L 44 30.199219 L 43.171875 30.753906 L 32 38.195312 L 20.832031 30.753906 Z M 20 44 L 20 45 L 44 45 L 44 44 Z M 20 44 "/>
<path style=" stroke:none;fill-rule:nonzero;fill:url(#linear0);" d="M 32 4 C 47.460938 4 60 16.535156 60 32 C 60 47.460938 47.460938 59.996094 32 59.996094 C 16.539062 59.996094 4 47.460938 4 32 C 4 16.535156 16.539062 4 32 4 Z M 32 4 "/>
</g>
</svg>
