
<svg xmlns="http://www.w3.org/2000/svg" xmlns:xlink="http://www.w3.org/1999/xlink" width="64" height="64" viewBox="0 0 64 64" version="1.1">
<defs>
<radialGradient id="radial0" gradientUnits="userSpaceOnUse" cx="10.256583" cy="-204.307953" fx="10.256583" fy="-204.307953" r="4.497917" gradientTransform="matrix(1.111505,-3.612394,5.780453,1.7786,1213.59243,438.43289)">
<stop offset="0" style="stop-color:rgb(0%,0%,0%);stop-opacity:0.2;"/>
<stop offset="1" style="stop-color:rgb(100%,100%,100%);stop-opacity:0;"/>
</radialGradient>
<linearGradient id="linear0" gradientUnits="userSpaceOnUse" x1="31.999998" y1="103.999992" x2="31.999998" y2="4" >
<stop offset="0" style="stop-color:rgb(0%,0%,0%);stop-opacity:0.2;"/>
<stop offset="1" style="stop-color:rgb(100%,100%,100%);stop-opacity:0;"/>
</linearGradient>
<linearGradient id="linear1" gradientUnits="userSpaceOnUse" x1="12.100322" y1="-199.096024" x2="12.100322" y2="-213.912689" gradientTransform="matrix(3.779528,0,0,3.779528,0.266499,812.488929)">
<stop offset="0" style="stop-color:rgb(0%,0%,0%);stop-opacity:0.2;"/>
<stop offset="1" style="stop-color:rgb(100%,100%,100%);stop-opacity:0;"/>
</linearGradient>
</defs>
<g id="surface1">
<path style=" stroke:none;fill-rule:nonzero;fill:rgb(29.803923%,74.509805%,97.254902%);fill-opacity:0.290196;" d="M 30.023438 39.890625 C 30.132812 40.515625 30.972656 41 32.003906 41 C 33.039062 41 33.878906 40.515625 33.988281 39.890625 C 33.335938 39.960938 32.671875 40 32 40 C 31.332031 40 30.671875 39.960938 30.023438 39.890625 Z M 30.023438 39.890625 "/>
<path style=" stroke:none;fill-rule:nonzero;fill:rgb(30.19608%,74.901962%,97.647059%);fill-opacity:0.156863;" d="M 30.640625 40.660156 C 31.210938 45.347656 31.734375 50.738281 29.011719 55.621094 C 29.007812 55.625 29.007812 55.625 29.007812 55.625 C 29.003906 55.652344 29 55.675781 29 55.703125 C 29 56.257812 30.339844 56.703125 32 56.703125 C 33.660156 56.703125 35 56.257812 35 55.703125 L 34.996094 55.675781 C 34.996094 55.660156 34.996094 55.644531 34.992188 55.625 L 34.988281 55.621094 C 32.28125 50.777344 32.777344 45.367188 33.363281 40.667969 C 33.007812 40.875 32.53125 41 32.003906 41 C 31.476562 41 30.996094 40.871094 30.640625 40.660156 Z M 30.640625 40.660156 "/>
<path style=" stroke:none;fill-rule:nonzero;fill:rgb(73.333335%,87.058824%,98.431373%);fill-opacity:0.6;" d="M 29 39.75 L 29 39.757812 C 29 41 30.339844 42 32 42 C 33.660156 42 35 41 35 39.757812 L 35 39.75 C 34.792969 39.78125 34.582031 39.8125 34.371094 39.84375 C 34.242188 39.871094 34.113281 39.898438 33.980469 39.921875 C 33.847656 40.53125 33.019531 41 32.003906 41 C 30.976562 41 30.132812 40.515625 30.023438 39.890625 C 29.679688 39.851562 29.339844 39.804688 29 39.75 Z M 29 39.75 "/>
<path style=" stroke:none;fill-rule:nonzero;fill:rgb(73.333335%,87.058824%,98.431373%);fill-opacity:0.6;" d="M 33.894531 41.5 C 33.601562 41.675781 33.261719 41.816406 32.890625 41.902344 C 32.152344 46.613281 32.625 51.636719 34.449219 55.871094 L 34.359375 55.871094 C 34.023438 56.160156 33.117188 56.371094 32.046875 56.371094 L 31.953125 56.371094 C 30.882812 56.371094 29.976562 56.160156 29.640625 55.871094 L 29.550781 55.871094 C 31.375 51.636719 31.847656 46.613281 31.113281 41.902344 C 30.742188 41.816406 30.402344 41.679688 30.109375 41.5 C 30.949219 46.253906 30.425781 51.4375 28.546875 55.667969 C 28.519531 55.730469 28.507812 55.800781 28.507812 55.871094 L 28.5 55.871094 C 28.5 56.699219 30.0625 57.371094 32 57.371094 C 33.9375 57.371094 35.5 56.699219 35.5 55.871094 C 35.496094 55.800781 35.484375 55.730469 35.453125 55.667969 C 33.574219 51.4375 33.054688 46.253906 33.894531 41.5 Z M 33.894531 41.5 "/>
<path style=" stroke:none;fill-rule:nonzero;fill:rgb(94.509804%,94.509804%,94.509804%);fill-opacity:0.301961;" d="M 32 54.5 C 31.242188 54.5 30.503906 54.511719 29.777344 54.53125 C 29.707031 54.699219 29.632812 54.863281 29.558594 55.03125 C 30.355469 55.011719 31.167969 55 32 55 C 32.832031 55 33.644531 55.011719 34.4375 55.03125 C 34.363281 54.863281 34.289062 54.699219 34.21875 54.53125 C 33.492188 54.511719 32.757812 54.5 32 54.5 Z M 32 54.5 "/>
<path style=" stroke:none;fill-rule:nonzero;fill:rgb(73.333335%,87.058824%,98.431373%);fill-opacity:0.6;" d="M 29.777344 54.03125 C 21.976562 54.234375 16 55.480469 16 57 C 16 58.660156 23.136719 60 32 60 C 40.863281 60 48 58.660156 48 57 C 48 55.480469 42.023438 54.234375 34.21875 54.03125 C 34.289062 54.199219 34.363281 54.363281 34.4375 54.53125 C 41.578125 54.707031 47 55.628906 47 56.75 C 47 57.996094 40.308594 59 32 59 C 23.691406 59 17 57.996094 17 56.75 C 17 55.628906 22.421875 54.707031 29.558594 54.53125 C 29.632812 54.363281 29.707031 54.199219 29.777344 54.03125 Z M 29.777344 54.03125 "/>
<path style=" stroke:none;fill-rule:nonzero;fill:rgb(30.980393%,76.47059%,96.862745%);fill-opacity:0.156863;" d="M 17.5 7.5 L 14.558594 19.242188 C 12.40625 27.84375 22.136719 36 31 36 L 33 36 C 41.863281 36 51.453125 28.609375 49.472656 19.96875 L 46.5 7 C 44.054688 8.171875 39.886719 10 32 10 C 24.113281 10 19.945312 8.671875 17.5 7.5 Z M 17.5 7.5 "/>
<path style=" stroke:none;fill-rule:nonzero;fill:rgb(94.117647%,38.431373%,57.254905%);fill-opacity:1;" d="M 30 18 L 34 18 C 42.835938 18 50 19.34375 50 21 C 50 22.65625 42.835938 24 34 24 L 30 24 C 21.164062 24 14 22.65625 14 21 C 14 19.34375 21.164062 18 30 18 Z M 30 18 "/>
<path style=" stroke:none;fill-rule:nonzero;fill:rgb(73.333335%,87.058824%,98.431373%);fill-opacity:0.6;" d="M 32 4 C 23.914062 4 17.363281 5.269531 17.015625 6.867188 C 15.671875 10.300781 13.980469 15.875 14.003906 20 L 14 20 L 14 22 C 14 31.972656 22.027344 40 32 40 C 41.972656 40 50 31.972656 50 22 L 50 20 C 50.019531 15.875 48.328125 10.304688 46.984375 6.867188 C 46.644531 5.269531 40.089844 4 32 4 Z M 32 4.5 C 39.757812 4.5 46 5.503906 46 6.75 C 46 7.996094 39.757812 9 32 9 C 24.242188 9 18 7.996094 18 6.75 C 18 5.503906 24.242188 4.5 32 4.5 Z M 17.695312 7.90625 C 19.609375 9.125 25.273438 10 32 10 C 38.726562 10 44.390625 9.125 46.304688 7.90625 C 47.570312 11.300781 49.023438 16.398438 49 20 L 49.25 20 L 49 20 L 49 21.75 C 49 30.753906 41.753906 38 32.75 38 L 31.25 38 C 22.246094 38 15 30.753906 15 21.75 L 15 20 L 14.75 20 L 15 20 C 14.976562 16.398438 16.429688 11.300781 17.695312 7.90625 Z M 17.695312 7.90625 "/>
<path style=" stroke:none;fill-rule:nonzero;fill:rgb(92.54902%,25.098041%,47.843137%);fill-opacity:0.996078;" d="M 15 20.550781 L 15 22 C 15 30.863281 22.136719 38 31 38 L 33 38 C 41.863281 38 49 30.863281 49 22 L 49 20.550781 C 46.742188 21.691406 40.894531 22.5 34 22.5 L 30 22.5 C 23.105469 22.5 17.257812 21.691406 15 20.550781 Z M 15 20.550781 "/>
<path style=" stroke:none;fill-rule:nonzero;fill:rgb(100%,100%,100%);fill-opacity:0.301961;" d="M 18.601562 9.074219 C 15.101562 19.074219 13.917969 33.476562 30 36.5 C 21.5 29 19.082031 27.070312 21.980469 9.722656 Z M 18.601562 9.074219 "/>
<path style=" stroke:none;fill-rule:nonzero;fill:url(#radial0);" d="M 15 20.550781 L 15 22 C 15 30.863281 22.136719 38 31 38 L 33 38 C 41.863281 38 49 30.863281 49 22 L 49 20.550781 C 46.742188 21.691406 40.894531 22.5 34 22.5 L 30 22.5 C 23.105469 22.5 17.257812 21.691406 15 20.550781 Z M 15 20.550781 "/>
<path style=" stroke:none;fill-rule:nonzero;fill:rgb(39.215687%,70.980394%,96.470588%);fill-opacity:0.207843;" d="M 32 4.5 C 39.730469 4.5 46 5.507812 46 6.75 C 46 7.992188 39.730469 9 32 9 C 24.269531 9 18 7.992188 18 6.75 C 18 5.507812 24.269531 4.5 32 4.5 Z M 32 4.5 "/>
<path style=" stroke:none;fill-rule:nonzero;fill:rgb(30.19608%,74.901962%,97.647059%);fill-opacity:0.156863;" d="M 29.5625 54.53125 C 22.417969 54.703125 17 55.628906 17 56.75 C 17 57.996094 23.691406 59 32 59 C 40.308594 59 47 57.996094 47 56.75 C 47 55.628906 41.582031 54.703125 34.4375 54.53125 C 34.605469 54.894531 34.789062 55.261719 34.988281 55.625 L 34.992188 55.625 C 34.996094 55.644531 34.996094 55.660156 35 55.675781 L 35 55.703125 C 35 56.257812 33.660156 56.703125 32 56.703125 C 30.339844 56.703125 29 56.257812 29 55.703125 C 29 55.675781 29.003906 55.652344 29.007812 55.625 C 29.007812 55.625 29.007812 55.621094 29.011719 55.621094 C 29.210938 55.257812 29.394531 54.894531 29.5625 54.53125 Z M 29.5625 54.53125 "/>
<path style=" stroke:none;fill-rule:nonzero;fill:rgb(100%,100%,100%);fill-opacity:0.301961;" d="M 18.5 11.5 C 16.5 22.5 15.5 28 24.5 33.5 C 19 27.5 17.5 26 20 12 Z M 18.5 11.5 "/>
<path style=" stroke:none;fill-rule:nonzero;fill:rgb(100%,100%,100%);fill-opacity:0.301961;" d="M 27.351562 55.097656 C 22.167969 55.3125 18.5 55.859375 18.5 56.5 C 18.5 57.140625 22.167969 57.6875 27.351562 57.902344 C 25.867188 57.503906 25 57.019531 25 56.5 C 25 55.980469 25.867188 55.496094 27.351562 55.097656 Z M 27.351562 55.097656 "/>
<path style=" stroke:none;fill-rule:nonzero;fill:rgb(100%,100%,100%);fill-opacity:0.301961;" d="M 23.5 55.6875 C 21.070312 55.785156 19.351562 56.042969 19.351562 56.34375 C 19.351562 56.644531 21.070312 56.898438 23.5 57 C 22.804688 56.8125 22.398438 56.585938 22.398438 56.34375 C 22.398438 56.097656 22.804688 55.871094 23.5 55.6875 Z M 23.5 55.6875 "/>
<path style=" stroke:none;fill-rule:nonzero;fill:rgb(100%,100%,100%);fill-opacity:0.301961;" d="M 31.5 42.5 C 32 47 33.1875 50.707031 31.5 56 C 30.929688 56.023438 30.289062 56.226562 30 55.5 C 31.5 51.5 31.5 47 31.5 42.5 Z M 31.5 42.5 "/>
<path style=" stroke:none;fill-rule:nonzero;fill:rgb(0%,0%,0%);fill-opacity:0.2;" d="M 16.480469 11.570312 C 16.132812 12.761719 15.816406 14.003906 15.5625 15.234375 Z M 47.679688 12.152344 L 48.640625 16.34375 C 48.402344 14.960938 48.066406 13.535156 47.679688 12.152344 Z M 14 22 L 14 23.5 C 14 32.449219 20.464844 39.828125 29 41.25 L 29 41.257812 C 29 41.953125 29.417969 42.570312 30.078125 42.980469 C 30.3125 44.25 30.445312 45.550781 30.484375 46.855469 C 30.53125 45.050781 30.398438 43.238281 30.078125 41.484375 C 29.417969 41.074219 29 40.457031 29 39.761719 L 29 39.75 C 20.464844 38.328125 14 30.949219 14 22 Z M 50 22 C 50 30.949219 43.535156 38.328125 35 39.75 L 35 39.761719 C 35 40.453125 34.582031 41.070312 33.925781 41.484375 C 33.605469 43.238281 33.46875 45.050781 33.519531 46.859375 C 33.558594 45.550781 33.691406 44.25 33.925781 42.980469 C 34.582031 42.566406 35 41.949219 35 41.257812 L 35 41.246094 C 43.535156 39.828125 50 32.449219 50 23.5 Z M 16.5 57.753906 C 16.175781 57.992188 16 58.242188 16 58.5 C 16 60.160156 23.136719 61.5 32 61.5 C 40.863281 61.5 48 60.160156 48 58.5 C 48 58.242188 47.824219 57.992188 47.5 57.753906 C 47.5 57.753906 47.5 57.757812 47.496094 57.753906 C 45.726562 59.050781 39.480469 60.003906 32 60.003906 C 24.519531 60.003906 18.273438 59.050781 16.5 57.753906 C 16.5 57.753906 16.5 57.757812 16.5 57.753906 Z M 16.5 57.753906 "/>
<path style=" stroke:none;fill-rule:nonzero;fill:rgb(100%,100%,100%);fill-opacity:0.6;" d="M 17.96875 7.179688 C 22.597656 10.085938 36.144531 10.082031 42.832031 8.558594 C 35.875 9.507812 22.21875 9.617188 17.96875 7.179688 Z M 17.96875 7.179688 "/>
<path style=" stroke:none;fill-rule:nonzero;fill:rgb(100%,100%,100%);fill-opacity:0.6;" d="M 18.1875 6.3125 C 21.261719 3.199219 37.773438 3.875 43.074219 5.183594 C 34.773438 4.148438 22.988281 3.730469 18.1875 6.3125 Z M 18.1875 6.3125 "/>
<path style=" stroke:none;fill-rule:nonzero;fill:rgb(100%,100%,100%);fill-opacity:0.6;" d="M 31.578125 45.3125 C 31.816406 47.4375 31.871094 51.980469 31.070312 54.480469 C 30.800781 54.492188 30.5 54.589844 30.363281 54.246094 C 31.070312 52.355469 31.578125 47.4375 31.578125 45.3125 Z M 31.578125 45.3125 "/>
<path style=" stroke:none;fill-rule:nonzero;fill:rgb(100%,100%,100%);fill-opacity:0.2;" d="M 15 20.550781 C 15 20.550781 14.925781 22.675781 16.394531 23.125 C 17.863281 23.574219 18.535156 22.839844 19.515625 23.175781 C 20.492188 23.515625 20.449219 24.050781 21.808594 23.894531 C 23.167969 23.742188 24.171875 23.367188 24.816406 23.613281 C 25.464844 23.859375 25.527344 24.351562 26.957031 24.109375 C 28.382812 23.867188 28.25 23.378906 29.074219 23.691406 C 29.898438 24.003906 31.191406 24.476562 32.148438 24.257812 C 33.109375 24.035156 33.984375 23.546875 36.546875 23.796875 C 39.109375 24.050781 39.289062 23.761719 40.761719 23.429688 C 42.234375 23.097656 41.988281 23.1875 43.101562 23.191406 C 44.21875 23.191406 45.308594 22.996094 45.734375 22.617188 C 46.160156 22.238281 46.246094 22.417969 46.960938 22.308594 C 47.675781 22.199219 48.121094 21.777344 48.433594 21.621094 C 48.746094 21.464844 49 20.546875 49 20.546875 C 45.734375 22.617188 22.609375 23.652344 15 20.546875 Z M 15 20.550781 "/>
<path style=" stroke:none;fill-rule:nonzero;fill:url(#linear0);" d="M 32 4.5 C 24.242188 4.5 18 5.503906 18 6.75 C 18 7.996094 24.242188 9 32 9 C 39.757812 9 46 7.996094 46 6.75 C 46 5.503906 39.757812 4.5 32 4.5 Z M 17.035156 6.8125 C 15.691406 10.242188 13.980469 15.855469 14.003906 20 L 14 20 L 14 22 C 14 30.949219 20.464844 38.328125 29 39.75 L 29 39.757812 C 29 40.453125 29.417969 41.070312 30.078125 41.480469 C 30.839844 45.640625 30.558594 50.140625 29.230469 54.050781 C 21.699219 54.296875 16 55.515625 16 57 C 16 58.660156 23.136719 60 32 60 C 40.863281 60 48 58.660156 48 57 C 48 55.515625 42.300781 54.296875 34.769531 54.050781 C 33.441406 50.140625 33.164062 45.640625 33.925781 41.480469 C 34.582031 41.066406 35 40.449219 35 39.757812 L 35 39.75 C 43.535156 38.328125 50 30.949219 50 22 L 50 20 C 50.019531 15.855469 48.308594 10.246094 46.964844 6.8125 L 46.03125 7.183594 C 46.035156 7.191406 46.039062 7.203125 46.042969 7.210938 C 43.546875 8.378906 39.4375 10 32 10 C 24.410156 10 20.28125 8.769531 17.796875 7.632812 C 17.855469 7.484375 17.910156 7.320312 17.96875 7.179688 Z M 16.480469 11.566406 L 15.5625 15.230469 C 15.816406 14.003906 16.132812 12.757812 16.480469 11.566406 Z M 47.679688 12.152344 C 48.066406 13.53125 48.402344 14.960938 48.640625 16.34375 Z M 16.199219 27.890625 C 19.214844 32.605469 25.285156 36 31 36 L 33 36 C 38.402344 36 44.070312 33.253906 47.226562 29.152344 C 44.695312 34.113281 39.695312 37.582031 33.824219 37.960938 C 33.320312 37.671875 32.6875 37.5 32 37.5 C 31.972656 37.5 31.949219 37.5 31.921875 37.5 C 31.261719 37.511719 30.65625 37.683594 30.171875 37.960938 C 23.816406 37.546875 18.484375 33.515625 16.199219 27.890625 Z M 16.199219 27.890625 "/>
<path style=" stroke:none;fill-rule:nonzero;fill:rgb(95.686275%,26.274511%,21.176471%);fill-opacity:1;" d="M 46.074219 30.414062 C 45.109375 30.425781 44.167969 30.53125 43.257812 30.71875 L 42.277344 35.628906 C 41.464844 35.96875 40.707031 36.40625 40.015625 36.933594 L 35.273438 35.332031 C 34.617188 36.070312 34.023438 36.886719 33.507812 37.78125 C 32.992188 38.675781 32.578125 39.597656 32.265625 40.539062 L 36.035156 43.847656 C 35.980469 44.273438 35.953125 44.707031 35.953125 45.148438 C 35.953125 45.589844 35.980469 46.023438 36.035156 46.449219 L 32.265625 49.757812 C 32.578125 50.699219 32.992188 51.621094 33.507812 52.515625 C 34.023438 53.410156 34.617188 54.226562 35.273438 54.96875 L 40.015625 53.363281 C 40.707031 53.890625 41.464844 54.328125 42.277344 54.667969 L 43.257812 59.578125 C 44.230469 59.777344 45.234375 59.882812 46.265625 59.882812 C 47.296875 59.882812 48.304688 59.777344 49.273438 59.578125 L 50.253906 54.667969 C 51.066406 54.328125 51.828125 53.890625 52.515625 53.363281 L 57.257812 54.96875 C 57.917969 54.226562 58.511719 53.410156 59.027344 52.515625 C 59.542969 51.621094 59.953125 50.699219 60.265625 49.757812 L 56.5 46.449219 C 56.550781 46.023438 56.582031 45.589844 56.582031 45.148438 C 56.582031 44.707031 56.554688 44.273438 56.5 43.847656 L 60.265625 40.539062 C 59.953125 39.597656 59.542969 38.675781 59.027344 37.78125 C 58.511719 36.886719 57.917969 36.070312 57.257812 35.332031 L 52.515625 36.933594 C 51.828125 36.40625 51.066406 35.96875 50.253906 35.628906 L 49.273438 30.71875 C 48.304688 30.519531 47.296875 30.414062 46.265625 30.414062 C 46.203125 30.414062 46.136719 30.414062 46.074219 30.414062 Z M 46.265625 39.253906 C 49.53125 39.253906 52.160156 41.882812 52.160156 45.148438 C 52.160156 48.414062 49.53125 51.042969 46.265625 51.042969 C 43 51.042969 40.371094 48.414062 40.371094 45.148438 C 40.371094 41.882812 43 39.253906 46.265625 39.253906 Z M 46.265625 39.253906 "/>
<path style=" stroke:none;fill-rule:nonzero;fill:rgb(100%,100%,100%);fill-opacity:0.4;" d="M 46.074219 30.414062 C 45.109375 30.425781 44.167969 30.53125 43.261719 30.71875 L 42.277344 35.628906 C 41.464844 35.96875 40.707031 36.40625 40.015625 36.933594 L 35.273438 35.328125 C 34.613281 36.070312 34.023438 36.886719 33.507812 37.78125 C 32.988281 38.675781 32.578125 39.597656 32.265625 40.539062 L 32.566406 40.804688 C 32.828125 40.148438 33.140625 39.5 33.507812 38.867188 C 34.023438 37.972656 34.613281 37.15625 35.273438 36.414062 L 40.015625 38.015625 C 40.707031 37.492188 41.464844 37.054688 42.277344 36.714844 L 43.261719 31.804688 C 44.167969 31.617188 45.109375 31.511719 46.074219 31.5 C 46.136719 31.5 46.199219 31.5 46.265625 31.5 C 47.296875 31.5 48.304688 31.605469 49.273438 31.804688 L 50.253906 36.714844 C 51.070312 37.054688 51.828125 37.492188 52.515625 38.015625 L 57.257812 36.414062 C 57.917969 37.15625 58.507812 37.972656 59.023438 38.867188 C 59.390625 39.5 59.703125 40.144531 59.964844 40.800781 L 60.265625 40.539062 C 59.953125 39.597656 59.542969 38.675781 59.023438 37.78125 C 58.507812 36.886719 57.917969 36.070312 57.257812 35.328125 L 52.515625 36.933594 C 51.828125 36.410156 51.070312 35.96875 50.253906 35.628906 L 49.273438 30.71875 C 48.304688 30.519531 47.296875 30.414062 46.265625 30.414062 C 46.199219 30.414062 46.136719 30.414062 46.074219 30.414062 Z M 35.957031 44.863281 C 35.953125 44.960938 35.953125 45.054688 35.953125 45.148438 C 35.953125 45.332031 35.957031 45.511719 35.96875 45.691406 C 35.980469 45.4375 36.003906 45.183594 36.035156 44.933594 Z M 56.574219 44.867188 L 56.5 44.933594 C 56.53125 45.183594 56.550781 45.4375 56.5625 45.691406 C 56.574219 45.511719 56.578125 45.332031 56.578125 45.148438 C 56.578125 45.054688 56.578125 44.960938 56.574219 44.867188 Z M 40.398438 45.691406 C 40.382812 45.871094 40.375 46.050781 40.375 46.234375 C 40.375 49.5 43 52.128906 46.265625 52.128906 C 49.53125 52.128906 52.160156 49.5 52.160156 46.234375 C 52.160156 46.050781 52.148438 45.871094 52.132812 45.691406 C 51.859375 48.699219 49.347656 51.042969 46.265625 51.042969 C 43.183594 51.042969 40.671875 48.699219 40.398438 45.691406 Z M 56.574219 46.515625 C 56.566406 46.859375 56.542969 47.199219 56.5 47.535156 L 59.964844 50.582031 C 60.074219 50.308594 60.175781 50.035156 60.265625 49.761719 Z M 35.957031 46.519531 L 32.265625 49.761719 C 32.355469 50.035156 32.457031 50.308594 32.566406 50.578125 L 36.035156 47.535156 C 35.992188 47.203125 35.964844 46.859375 35.957031 46.519531 Z M 35.957031 46.519531 "/>
<path style=" stroke:none;fill-rule:nonzero;fill:url(#linear1);" d="M 46.074219 30.414062 C 45.109375 30.425781 44.167969 30.53125 43.257812 30.71875 L 42.277344 35.628906 C 41.464844 35.96875 40.707031 36.40625 40.015625 36.933594 L 35.273438 35.332031 C 34.617188 36.070312 34.023438 36.886719 33.507812 37.78125 C 32.992188 38.675781 32.578125 39.597656 32.265625 40.539062 L 36.035156 43.847656 C 35.980469 44.273438 35.953125 44.707031 35.953125 45.148438 C 35.953125 45.589844 35.980469 46.023438 36.035156 46.449219 L 32.265625 49.757812 C 32.578125 50.699219 32.992188 51.621094 33.507812 52.515625 C 34.023438 53.410156 34.617188 54.226562 35.273438 54.96875 L 40.015625 53.363281 C 40.707031 53.890625 41.464844 54.328125 42.277344 54.667969 L 43.257812 59.578125 C 44.230469 59.777344 45.234375 59.882812 46.265625 59.882812 C 47.296875 59.882812 48.304688 59.777344 49.273438 59.578125 L 50.253906 54.667969 C 51.066406 54.328125 51.828125 53.890625 52.515625 53.363281 L 57.257812 54.96875 C 57.917969 54.226562 58.511719 53.410156 59.027344 52.515625 C 59.542969 51.621094 59.953125 50.699219 60.265625 49.757812 L 56.5 46.449219 C 56.550781 46.023438 56.582031 45.589844 56.582031 45.148438 C 56.582031 44.707031 56.554688 44.273438 56.5 43.847656 L 60.265625 40.539062 C 59.953125 39.597656 59.542969 38.675781 59.027344 37.78125 C 58.511719 36.886719 57.917969 36.070312 57.257812 35.332031 L 52.515625 36.933594 C 51.828125 36.40625 51.066406 35.96875 50.253906 35.628906 L 49.273438 30.71875 C 48.304688 30.519531 47.296875 30.414062 46.265625 30.414062 C 46.203125 30.414062 46.136719 30.414062 46.074219 30.414062 Z M 46.265625 39.253906 C 49.53125 39.253906 52.160156 41.882812 52.160156 45.148438 C 52.160156 48.414062 49.53125 51.042969 46.265625 51.042969 C 43 51.042969 40.371094 48.414062 40.371094 45.148438 C 40.371094 41.882812 43 39.253906 46.265625 39.253906 Z M 46.265625 39.253906 "/>
<path style=" stroke:none;fill-rule:nonzero;fill:rgb(0.784314%,0.784314%,0.784314%);fill-opacity:0.4;" d="M 46.074219 59.882812 C 45.109375 59.871094 44.167969 59.765625 43.257812 59.578125 L 42.277344 54.667969 C 41.464844 54.332031 40.707031 53.890625 40.015625 53.363281 L 35.273438 54.96875 C 34.613281 54.226562 34.023438 53.410156 33.503906 52.515625 C 32.988281 51.625 32.578125 50.699219 32.265625 49.757812 L 32.535156 49.523438 C 32.800781 50.210938 33.125 50.890625 33.507812 51.546875 C 34.023438 52.441406 34.613281 53.257812 35.273438 54 L 40.015625 52.398438 C 40.707031 52.921875 41.464844 53.363281 42.277344 53.703125 L 43.261719 58.613281 C 44.167969 58.796875 45.109375 58.90625 46.074219 58.914062 C 46.136719 58.917969 46.199219 58.914062 46.265625 58.914062 C 47.296875 58.914062 48.304688 58.8125 49.273438 58.613281 L 50.253906 53.703125 C 51.070312 53.363281 51.828125 52.921875 52.515625 52.398438 L 57.257812 54 C 57.917969 53.257812 58.507812 52.441406 59.023438 51.546875 C 59.40625 50.890625 59.730469 50.214844 60 49.527344 L 60.265625 49.761719 C 59.953125 50.699219 59.542969 51.625 59.023438 52.519531 C 58.507812 53.410156 57.917969 54.226562 57.257812 54.96875 L 52.515625 53.363281 C 51.828125 53.890625 51.070312 54.332031 50.253906 54.671875 L 49.273438 59.578125 C 48.304688 59.777344 47.296875 59.882812 46.265625 59.882812 C 46.199219 59.882812 46.136719 59.882812 46.074219 59.882812 Z M 35.960938 45.546875 C 35.957031 45.414062 35.953125 45.285156 35.953125 45.148438 C 35.953125 44.988281 35.957031 44.828125 35.964844 44.664062 C 35.976562 44.941406 36 45.214844 36.03125 45.480469 Z M 56.570312 45.542969 L 56.5 45.480469 C 56.535156 45.214844 56.554688 44.941406 56.570312 44.664062 C 56.574219 44.828125 56.582031 44.988281 56.582031 45.148438 C 56.582031 45.28125 56.578125 45.414062 56.570312 45.546875 Z M 40.394531 44.664062 C 40.382812 44.507812 40.371094 44.34375 40.371094 44.179688 C 40.371094 40.917969 43 38.289062 46.265625 38.289062 C 49.53125 38.289062 52.160156 40.917969 52.160156 44.179688 C 52.160156 44.34375 52.152344 44.507812 52.136719 44.664062 C 51.894531 41.628906 49.367188 39.253906 46.265625 39.253906 C 43.164062 39.253906 40.640625 41.628906 40.394531 44.664062 Z M 56.570312 43.785156 C 56.5625 43.480469 56.539062 43.179688 56.5 42.878906 L 60 39.804688 C 60.09375 40.046875 60.183594 40.292969 60.265625 40.539062 Z M 35.960938 43.785156 L 32.265625 40.539062 C 32.347656 40.292969 32.4375 40.050781 32.535156 39.804688 L 36.035156 42.878906 C 35.996094 43.179688 35.972656 43.480469 35.960938 43.785156 Z M 35.960938 43.785156 "/>
<path style=" stroke:none;fill-rule:nonzero;fill:rgb(0%,0%,0%);fill-opacity:0.2;" d="M 46.265625 39.253906 C 43 39.253906 40.375 41.882812 40.375 45.148438 C 40.375 45.421875 40.394531 45.695312 40.429688 45.957031 C 40.820312 43.082031 43.277344 40.875 46.265625 40.875 C 49.253906 40.875 51.710938 43.082031 52.105469 45.957031 C 52.140625 45.695312 52.160156 45.421875 52.160156 45.148438 C 52.160156 41.882812 49.53125 39.253906 46.265625 39.253906 Z M 32.730469 40.949219 C 32.558594 41.347656 32.402344 41.75 32.265625 42.15625 L 35.957031 45.402344 C 35.953125 45.316406 35.953125 45.234375 35.953125 45.148438 C 35.953125 44.707031 35.980469 44.273438 36.03125 43.847656 Z M 59.800781 40.949219 L 56.5 43.847656 C 56.554688 44.273438 56.578125 44.707031 56.578125 45.148438 C 56.578125 45.234375 56.578125 45.316406 56.578125 45.402344 L 60.265625 42.15625 C 60.128906 41.75 59.976562 41.347656 59.800781 40.949219 Z M 35.984375 45.957031 C 35.96875 46.144531 35.960938 46.328125 35.957031 46.515625 L 36.03125 46.449219 C 36.011719 46.285156 35.996094 46.125 35.984375 45.957031 Z M 56.546875 45.957031 C 56.535156 46.125 56.519531 46.285156 56.5 46.449219 L 56.578125 46.515625 C 56.570312 46.328125 56.5625 46.144531 56.546875 45.957031 Z M 32.730469 50.96875 L 32.265625 51.378906 C 32.578125 52.320312 32.988281 53.242188 33.503906 54.136719 C 34.023438 55.03125 34.613281 55.847656 35.273438 56.589844 L 40.015625 54.984375 C 40.707031 55.507812 41.464844 55.949219 42.277344 56.289062 L 43.261719 61.199219 C 44.230469 61.398438 45.234375 61.5 46.265625 61.5 C 47.296875 61.5 48.304688 61.398438 49.273438 61.199219 L 50.253906 56.289062 C 51.070312 55.949219 51.828125 55.507812 52.515625 54.984375 L 57.261719 56.589844 C 57.917969 55.847656 58.507812 55.03125 59.027344 54.136719 C 59.542969 53.242188 59.953125 52.320312 60.265625 51.378906 L 59.800781 50.96875 C 59.578125 51.492188 59.316406 52.007812 59.027344 52.515625 C 58.507812 53.410156 57.917969 54.226562 57.261719 54.96875 L 52.515625 53.363281 C 51.828125 53.890625 51.070312 54.328125 50.253906 54.667969 L 49.273438 59.578125 C 48.304688 59.777344 47.296875 59.882812 46.265625 59.882812 C 45.234375 59.882812 44.230469 59.777344 43.261719 59.578125 L 42.277344 54.667969 C 41.464844 54.328125 40.707031 53.890625 40.015625 53.363281 L 35.273438 54.96875 C 34.613281 54.226562 34.023438 53.410156 33.503906 52.515625 C 33.214844 52.007812 32.957031 51.492188 32.730469 50.96875 Z M 32.730469 50.96875 "/>
</g>
</svg>
