
<svg xmlns="http://www.w3.org/2000/svg" xmlns:xlink="http://www.w3.org/1999/xlink" width="48" height="48" viewBox="0 0 48 48" version="1.1">
<defs>
<linearGradient id="linear0" gradientUnits="userSpaceOnUse" x1="31.999998" y1="59.999996" x2="32" y2="18" gradientTransform="matrix(0.75,0,0,0.75,0,0.000000000000085265)">
<stop offset="0" style="stop-color:rgb(0%,0%,0%);stop-opacity:0.2;"/>
<stop offset="1" style="stop-color:rgb(100%,100%,100%);stop-opacity:0;"/>
</linearGradient>
</defs>
<g id="surface1">
<path style=" stroke:none;fill-rule:nonzero;fill:rgb(100%,67.058825%,56.862748%);fill-opacity:1;" d="M 24 33 C 35.597656 33 45 35.6875 45 39 C 45 42.3125 35.597656 45 24 45 C 12.402344 45 3 42.3125 3 39 C 3 35.6875 12.402344 33 24 33 Z M 24 33 "/>
<path style=" stroke:none;fill-rule:nonzero;fill:rgb(100%,34.117648%,13.333334%);fill-opacity:1;" d="M 41.441406 20.15625 C 40.398438 20.148438 39.09375 20.402344 37.5 21 L 38.25 21 C 41.160156 21 33 23.339844 33 26.25 C 33 29.160156 35.339844 31.5 38.25 31.5 C 44.101562 31.5 48.265625 20.21875 41.441406 20.15625 Z M 40.101562 24.210938 C 43.769531 24.191406 41.207031 29.738281 37.5 29.738281 C 35.496094 29.738281 33.878906 29.625 33.878906 27.621094 C 33.878906 25.613281 38.523438 25.5 36.515625 25.5 L 36 25.5 C 37.828125 24.585938 39.167969 24.21875 40.101562 24.210938 Z M 40.101562 24.210938 "/>
<path style=" stroke:none;fill-rule:nonzero;fill:rgb(100%,43.921569%,26.274511%);fill-opacity:1;" d="M 41.441406 20.15625 C 40.398438 20.148438 39.09375 20.402344 37.5 21 L 38.25 21 C 41.160156 21 33 23.339844 33 26.25 C 33 26.773438 33.078125 27.277344 33.21875 27.753906 C 34.496094 25.246094 40.875 23.34375 38.25 23.34375 L 35.625 26.25 C 37.21875 25.652344 40.125 23.25 41.441406 22.5 C 44.25 21 44.503906 23.507812 44.847656 24.890625 C 45.328125 22.417969 44.464844 20.183594 41.441406 20.15625 Z M 41.527344 27.042969 C 40.863281 28.402344 39.320312 29.738281 37.5 29.738281 C 36.121094 29.738281 34.929688 29.683594 34.316406 29 C 34.199219 29.113281 34.101562 29.242188 34.027344 29.378906 C 34.984375 30.667969 36.515625 31.5 38.25 31.5 C 38.894531 31.5 39.519531 31.363281 40.109375 31.121094 C 41.621094 29.929688 42.375 27.953125 41.527344 27.042969 Z M 41.527344 27.042969 "/>
<path style=" stroke:none;fill-rule:nonzero;fill:rgb(0%,0%,0%);fill-opacity:0.4;" d="M 38.566406 20.636719 C 38.226562 20.742188 37.871094 20.859375 37.5 21 L 38.25 21 C 38.433594 21 38.570312 21.007812 38.671875 21.027344 C 38.949219 20.8125 38.96875 20.679688 38.566406 20.636719 Z M 44.972656 23.484375 C 44.855469 26.792969 41.878906 31.125 38.25 31.125 C 35.421875 31.125 33.128906 28.910156 33.003906 26.113281 C 33 26.160156 33 26.203125 33 26.25 C 33 29.160156 35.339844 31.5 38.25 31.5 C 42.015625 31.5 45.082031 26.832031 44.972656 23.484375 Z M 34.875 26.25 L 36.515625 25.125 C 36.632812 25.125 36.71875 25.125 36.792969 25.125 C 38.21875 24.488281 39.308594 24.21875 40.101562 24.210938 C 41.269531 24.207031 41.804688 24.765625 41.871094 25.53125 C 42.75 22.125 36.488281 25.453125 34.875 26.25 Z M 36.398438 25.308594 C 35.484375 25.539062 33.878906 26.0625 33.878906 27.246094 C 33.878906 27.328125 33.882812 27.410156 33.890625 27.488281 C 34.085938 25.609375 38.476562 25.5 36.515625 25.5 L 36 25.5 C 36.136719 25.429688 36.265625 25.371094 36.398438 25.308594 Z M 36.398438 25.308594 "/>
<path style=" stroke:none;fill-rule:nonzero;fill:rgb(100%,100%,100%);fill-opacity:0.4;" d="M 41.441406 20.15625 C 40.398438 20.148438 39.09375 20.402344 37.5 21 L 38.25 21 C 38.496094 21 35.527344 23.96875 35.625 24 C 38.050781 21.785156 44.566406 18.015625 44.96875 23.871094 C 45.046875 21.835938 44.042969 20.179688 41.441406 20.15625 Z M 38.558594 21.480469 C 37.339844 22.308594 33 24.128906 33 26.25 C 33 26.351562 33.003906 26.449219 33.007812 26.550781 C 33.296875 23.839844 40.449219 21.660156 38.558594 21.480469 Z M 36.980469 25.507812 C 36.925781 25.53125 36.867188 25.558594 36.8125 25.582031 C 36.96875 25.542969 37.066406 25.519531 36.980469 25.507812 Z M 41.867188 25.945312 C 41.691406 27.566406 39.820312 29.738281 37.5 29.738281 C 35.59375 29.738281 34.042969 29.636719 33.894531 27.90625 C 33.886719 27.964844 33.878906 28.023438 33.878906 28.085938 C 33.878906 30.09375 35.496094 30.207031 37.5 30.207031 C 40.054688 30.207031 42.0625 27.574219 41.867188 25.945312 Z M 41.867188 25.945312 "/>
<path style=" stroke:none;fill-rule:nonzero;fill:rgb(100%,43.921569%,26.274511%);fill-opacity:1;" d="M 24 33.726562 C 34.769531 33.726562 43.5 35.910156 43.5 38.597656 C 43.5 41.289062 34.769531 43.46875 24 43.46875 C 13.230469 43.46875 4.5 41.289062 4.5 38.597656 C 4.5 35.910156 13.230469 33.726562 24 33.726562 Z M 24 33.726562 "/>
<path style=" stroke:none;fill-rule:nonzero;fill:rgb(0%,0%,0%);fill-opacity:0.2;" d="M 31.136719 33.355469 C 31.191406 34.152344 31.417969 34.898438 31.785156 35.558594 C 29.984375 35.292969 27.847656 35.144531 25.5 35.144531 C 18.019531 35.144531 11.332031 36.671875 10.5 38.570312 C 9.667969 40.46875 15.019531 42 22.5 42 C 29.980469 42 36.667969 40.46875 37.5 38.570312 C 37.570312 38.40625 37.597656 38.25 37.578125 38.089844 C 38.964844 37.726562 40.203125 36.753906 41.15625 35.535156 C 40.503906 35.269531 39.78125 35.019531 38.988281 34.792969 C 38.191406 35.734375 36.996094 36.480469 35.644531 36.488281 C 34.789062 36.15625 33.675781 35.871094 32.359375 35.648438 C 32.132812 35.347656 32.003906 34.933594 32.003906 34.371094 C 32.003906 34.023438 32.144531 33.734375 32.363281 33.492188 C 31.960938 33.441406 31.554688 33.398438 31.136719 33.355469 Z M 31.136719 33.355469 "/>
<path style=" stroke:none;fill-rule:nonzero;fill:rgb(100%,43.921569%,26.274511%);fill-opacity:1;" d="M 9 17.25 L 9 30 C 9 35.816406 13.683594 40.5 19.5 40.5 L 28.5 40.5 C 34.316406 40.5 39 35.816406 39 30 L 39 17.25 Z M 9 17.25 "/>
<path style=" stroke:none;fill-rule:nonzero;fill:rgb(95.686275%,31.764707%,11.764706%);fill-opacity:0.996078;" d="M 24 13.5 C 32.285156 13.5 39 15.179688 39 17.25 C 39 19.320312 32.285156 21 24 21 C 15.714844 21 9 19.320312 9 17.25 C 9 15.179688 15.714844 13.5 24 13.5 Z M 24 13.5 "/>
<path style=" stroke:none;fill-rule:nonzero;fill:rgb(95.686275%,31.764707%,11.764706%);fill-opacity:0.996078;" d="M 24 13.5 C 32.285156 13.5 39 15.179688 39 17.25 C 39 19.320312 32.285156 21 24 21 C 15.714844 21 9 19.320312 9 17.25 C 9 15.179688 15.714844 13.5 24 13.5 Z M 24 13.5 "/>
<path style=" stroke:none;fill-rule:nonzero;fill:rgb(42.745098%,29.803923%,25.490198%);fill-opacity:0.996078;" d="M 24 16.5 C 17.828125 16.5 12.550781 17.421875 10.242188 18.75 C 12.550781 20.078125 17.828125 21 24 21 C 30.171875 21 35.449219 20.078125 37.757812 18.75 C 35.449219 17.421875 30.171875 16.5 24 16.5 Z M 24 16.5 "/>
<path style=" stroke:none;fill-rule:nonzero;fill:rgb(100%,54.11765%,39.607844%);fill-opacity:0.996078;" d="M 24 13.5 C 15.691406 13.5 9 15.171875 9 17.25 C 9 19.328125 15.691406 21 24 21 C 32.308594 21 39 19.328125 39 17.25 C 39 15.171875 32.308594 13.5 24 13.5 Z M 24 14.25 C 31.894531 14.25 38.25 15.589844 38.25 17.25 C 38.25 18.910156 31.894531 20.25 24 20.25 C 16.105469 20.25 9.75 18.910156 9.75 17.25 C 9.75 15.589844 16.105469 14.25 24 14.25 Z M 24 14.25 "/>
<path style=" stroke:none;fill-rule:nonzero;fill:rgb(93.333334%,93.333334%,93.333334%);fill-opacity:0.996078;" d="M 9.167969 22.5 C 9.058594 22.683594 9 22.871094 9 23.0625 C 9 25.140625 15.691406 26.8125 24 26.8125 C 32.308594 26.8125 39 25.140625 39 23.0625 C 39 22.871094 38.941406 22.683594 38.832031 22.5 C 37.753906 24.308594 31.546875 25.6875 24 25.6875 C 16.453125 25.6875 10.246094 24.308594 9.167969 22.5 Z M 9.167969 22.5 "/>
<path style=" stroke:none;fill-rule:nonzero;fill:rgb(93.333334%,93.333334%,93.333334%);fill-opacity:0.996078;" d="M 9.167969 19.476562 C 9.058594 19.660156 9 19.847656 9 20.039062 C 9 22.117188 15.691406 23.789062 24 23.789062 C 32.308594 23.789062 39 22.117188 39 20.039062 C 39 19.847656 38.941406 19.660156 38.832031 19.476562 C 37.753906 21.289062 31.546875 22.664062 24 22.664062 C 16.453125 22.664062 10.246094 21.289062 9.167969 19.476562 Z M 9.167969 19.476562 "/>
<path style=" stroke:none;fill-rule:nonzero;fill:rgb(93.333334%,93.333334%,93.333334%);fill-opacity:0.996078;" d="M 9.167969 25.128906 C 9.058594 25.3125 9 25.5 9 25.691406 C 9 27.769531 15.691406 29.441406 24 29.441406 C 32.308594 29.441406 39 27.769531 39 25.691406 C 39 25.5 38.941406 25.3125 38.832031 25.128906 C 37.753906 26.9375 31.546875 28.316406 24 28.316406 C 16.453125 28.316406 10.246094 26.9375 9.167969 25.128906 Z M 9.167969 25.128906 "/>
<path style=" stroke:none;fill-rule:nonzero;fill:rgb(0%,0%,0%);fill-opacity:0.2;" d="M 3.09375 39.5625 C 3.03125 39.75 3 39.9375 3 40.125 C 3 43.449219 12.367188 46.125 24 46.125 C 35.632812 46.125 45 43.449219 45 40.125 C 45 39.9375 44.96875 39.75 44.90625 39.5625 C 43.921875 42.621094 34.96875 45 24 45 C 13.03125 45 4.078125 42.621094 3.09375 39.5625 Z M 3.09375 39.5625 "/>
<path style=" stroke:none;fill-rule:nonzero;fill:rgb(0%,0%,0%);fill-opacity:0.4;" d="M 3.042969 38.628906 C 3.015625 38.75 3 38.875 3 39 C 3 42.324219 12.367188 45 24 45 C 35.632812 45 45 42.324219 45 39 C 45 38.875 44.984375 38.75 44.957031 38.628906 C 44.285156 41.777344 35.195312 44.253906 24 44.253906 C 12.804688 44.253906 3.714844 41.777344 3.042969 38.628906 Z M 3.042969 38.628906 "/>
<path style=" stroke:none;fill-rule:nonzero;fill:rgb(0%,0%,0%);fill-opacity:0.4;" d="M 9 29.253906 L 9 30 C 9 35.816406 13.683594 40.5 19.5 40.5 L 28.5 40.5 C 34.316406 40.5 39 35.816406 39 30 L 39 29.253906 C 39 35.070312 34.316406 39.753906 28.5 39.753906 L 19.5 39.753906 C 13.683594 39.753906 9 35.070312 9 29.253906 Z M 9 29.253906 "/>
<path style=" stroke:none;fill-rule:nonzero;fill:rgb(100%,100%,100%);fill-opacity:0.4;" d="M 9.070312 17.621094 C 9.023438 17.742188 9 17.863281 9 17.988281 C 9 20.066406 15.691406 21.738281 24 21.738281 C 32.308594 21.738281 39 20.066406 39 17.988281 C 39 17.863281 38.976562 17.742188 38.929688 17.621094 C 38.191406 19.523438 31.8125 21 24 21 C 16.1875 21 9.808594 19.523438 9.070312 17.621094 Z M 9.070312 17.621094 "/>
<path style=" stroke:none;fill-rule:nonzero;fill:rgb(100%,100%,100%);fill-opacity:0.2;" d="M 12.019531 22.511719 C 12.007812 22.753906 12 23 12 23.25 L 12 29.25 C 12 33.820312 13.992188 37.5 16.464844 37.5 L 16.535156 37.5 C 17.046875 37.5 17.539062 37.339844 18 37.046875 C 16.25 35.929688 15 32.871094 15 29.25 L 15 23.253906 C 13.871094 23.042969 12.867188 22.792969 12.019531 22.511719 Z M 12.019531 22.511719 "/>
<path style=" stroke:none;fill-rule:nonzero;fill:url(#linear0);" d="M 24 13.5 C 15.691406 13.5 9 15.171875 9 17.25 L 9 30 C 9 31.621094 9.363281 33.152344 10.011719 34.519531 C 5.707031 35.617188 3 37.214844 3 39 C 3 42.324219 12.367188 45 24 45 C 35.632812 45 45 42.324219 45 39 C 45 37.214844 42.292969 35.617188 37.988281 34.519531 C 38.4375 33.566406 38.75 32.535156 38.902344 31.453125 C 44.398438 30.667969 48.007812 20.21875 41.441406 20.15625 C 40.746094 20.152344 39.933594 20.265625 39 20.515625 L 39 17.25 C 39 15.171875 32.308594 13.5 24 13.5 Z M 40.101562 24.210938 C 43.246094 24.191406 41.808594 28.265625 39 29.429688 L 39 24.355469 C 39.414062 24.261719 39.785156 24.214844 40.101562 24.210938 Z M 40.101562 24.210938 "/>
<path style=" stroke:none;fill-rule:nonzero;fill:rgb(0%,0%,0%);fill-opacity:0.211765;" d="M 24 19.5 C 19.703125 14.257812 25.5 12 24 4.5 C 31.5 9 24 15 24 19.5 Z M 24 19.5 "/>
<path style=" stroke:none;fill-rule:nonzero;fill:rgb(0%,0%,0%);fill-opacity:0.211765;" d="M 30 18 C 25.703125 12.757812 31.5 10.5 30 3 C 37.5 7.5 30 13.5 30 18 Z M 30 18 "/>
<path style=" stroke:none;fill-rule:nonzero;fill:rgb(0%,0%,0%);fill-opacity:0.211765;" d="M 18 18 C 13.703125 12.757812 19.5 10.5 18 3 C 25.5 7.5 18 13.5 18 18 Z M 18 18 "/>
</g>
</svg>
