
<svg xmlns="http://www.w3.org/2000/svg" xmlns:xlink="http://www.w3.org/1999/xlink" width="48" height="48" viewBox="0 0 48 48" version="1.1">
<defs>
<linearGradient id="linear0" gradientUnits="userSpaceOnUse" x1="10.054166" y1="-199.125" x2="10.054166" y2="-213.941666" gradientTransform="matrix(2.834646,0,0,2.834646,-0.000948433,609.448851)">
<stop offset="0" style="stop-color:rgb(0%,0%,0%);stop-opacity:0.2;"/>
<stop offset="1" style="stop-color:rgb(100%,100%,100%);stop-opacity:0;"/>
</linearGradient>
</defs>
<g id="surface1">
<path style=" stroke:none;fill-rule:nonzero;fill:rgb(61.176473%,80.000001%,39.607844%);fill-opacity:1;" d="M 6 3 L 42 3 C 43.65625 3 45 4.34375 45 6 L 45 42 C 45 43.65625 43.65625 45 42 45 L 6 45 C 4.34375 45 3 43.65625 3 42 L 3 6 C 3 4.34375 4.34375 3 6 3 Z M 6 3 "/>
<path style=" stroke:none;fill-rule:nonzero;fill:rgb(0%,0%,0%);fill-opacity:0.4;" d="M 3 41.25 L 3 42 C 3 43.660156 4.339844 45 6 45 L 42 45 C 43.660156 45 45 43.660156 45 42 L 45 41.25 C 45 42.910156 43.660156 44.25 42 44.25 L 6 44.25 C 4.339844 44.25 3 42.910156 3 41.25 Z M 3 41.25 "/>
<path style=" stroke:none;fill-rule:nonzero;fill:rgb(0%,0%,0%);fill-opacity:0.2;" d="M 3 42 L 3 43.125 C 3 44.785156 4.339844 46.125 6 46.125 L 42 46.125 C 43.660156 46.125 45 44.785156 45 43.125 L 45 42 C 45 43.660156 43.660156 45 42 45 L 6 45 C 4.339844 45 3 43.660156 3 42 Z M 3 42 "/>
<path style=" stroke:none;fill-rule:nonzero;fill:rgb(100%,100%,100%);fill-opacity:0.4;" d="M 6 3 C 4.339844 3 3 4.339844 3 6 L 3 6.738281 C 3 5.078125 4.339844 3.738281 6 3.738281 L 42 3.738281 C 43.660156 3.738281 45 5.078125 45 6.738281 L 45 6 C 45 4.339844 43.660156 3 42 3 Z M 6 3 "/>
<path style=" stroke:none;fill-rule:nonzero;fill:rgb(93.333334%,93.333334%,93.333334%);fill-opacity:1;" d="M 11.621094 22.539062 C 11.621094 22.539062 14.453125 18.304688 20.105469 17.871094 L 20.105469 16.332031 C 13.84375 16.84375 8.417969 22.214844 8.417969 22.214844 C 8.417969 22.214844 11.492188 31.214844 20.109375 32.039062 L 20.109375 30.402344 C 13.785156 29.597656 11.621094 22.539062 11.621094 22.539062 Z M 20.105469 27.15625 L 20.105469 28.652344 C 15.328125 27.789062 14.003906 22.757812 14.003906 22.757812 C 14.003906 22.757812 16.296875 20.179688 20.109375 19.765625 L 20.109375 21.402344 L 20.101562 21.402344 C 18.101562 21.160156 16.539062 23.054688 16.539062 23.054688 C 16.539062 23.054688 17.410156 26.238281 20.109375 27.15625 M 20.109375 13.5 L 20.109375 16.332031 C 20.289062 16.316406 20.480469 16.304688 20.660156 16.300781 C 27.785156 16.058594 32.425781 22.21875 32.425781 22.21875 C 32.425781 22.21875 27.09375 28.78125 21.539062 28.78125 C 21.03125 28.78125 20.554688 28.734375 20.109375 28.652344 L 20.109375 30.40625 C 20.492188 30.453125 20.886719 30.484375 21.304688 30.484375 C 26.46875 30.484375 30.207031 27.808594 33.824219 24.644531 C 34.425781 25.132812 36.882812 26.316406 37.382812 26.835938 C 33.945312 29.753906 25.925781 32.105469 21.378906 32.105469 C 20.945312 32.105469 20.519531 32.078125 20.109375 32.039062 L 20.109375 34.5 L 39.75 34.5 L 39.75 13.5 Z M 20.109375 19.765625 L 20.109375 17.871094 C 20.289062 17.859375 20.472656 17.84375 20.660156 17.839844 C 25.78125 17.679688 29.144531 22.300781 29.144531 22.300781 C 29.144531 22.300781 25.515625 27.402344 21.621094 27.402344 C 21.105469 27.40625 20.59375 27.324219 20.109375 27.15625 L 20.109375 21.40625 C 22.105469 21.652344 22.503906 22.542969 23.703125 24.566406 L 26.367188 22.289062 C 26.367188 22.289062 24.421875 19.707031 21.140625 19.707031 C 20.785156 19.707031 20.441406 19.726562 20.109375 19.769531 "/>
<path style=" stroke:none;fill-rule:nonzero;fill:rgb(100%,100%,100%);fill-opacity:0.8;" d="M 20.109375 13.5 L 20.109375 14.25 L 39.75 14.25 L 39.75 13.5 Z M 20.105469 16.332031 C 13.84375 16.84375 8.417969 22.214844 8.417969 22.214844 C 8.417969 22.214844 8.496094 22.425781 8.636719 22.757812 C 9.652344 21.8125 14.539062 17.535156 20.105469 17.082031 Z M 20.898438 17.835938 C 20.820312 17.835938 20.738281 17.835938 20.660156 17.839844 C 20.472656 17.84375 20.289062 17.859375 20.109375 17.871094 L 20.109375 18.621094 C 20.289062 18.609375 20.472656 18.59375 20.660156 18.589844 C 24.910156 18.457031 27.9375 21.605469 28.851562 22.6875 C 29.035156 22.449219 29.144531 22.300781 29.144531 22.300781 C 29.144531 22.300781 25.886719 17.820312 20.898438 17.835938 Z M 20.109375 19.765625 C 16.296875 20.179688 14.003906 22.757812 14.003906 22.757812 C 14.003906 22.757812 14.0625 22.976562 14.191406 23.316406 C 14.800781 22.714844 16.921875 20.863281 20.109375 20.515625 Z M 20.109375 21.40625 L 20.109375 22.15625 C 22.105469 22.402344 22.503906 23.292969 23.703125 25.316406 L 26.367188 23.039062 C 26.367188 23.039062 26.234375 22.867188 25.988281 22.613281 L 23.703125 24.566406 C 22.503906 22.542969 22.105469 21.652344 20.109375 21.40625 Z M 32.109375 22.585938 C 30.902344 23.953125 26.308594 28.78125 21.539062 28.78125 C 21.03125 28.78125 20.554688 28.734375 20.109375 28.652344 L 20.109375 29.402344 C 20.554688 29.484375 21.03125 29.53125 21.539062 29.53125 C 27.09375 29.53125 32.425781 22.96875 32.425781 22.96875 C 32.425781 22.96875 32.308594 22.816406 32.109375 22.585938 Z M 11.800781 23.042969 C 11.683594 23.191406 11.621094 23.289062 11.621094 23.289062 C 11.621094 23.289062 13.785156 30.347656 20.109375 31.152344 L 20.109375 30.402344 C 14.800781 29.726562 12.429688 24.65625 11.800781 23.042969 Z M 16.730469 23.597656 C 16.609375 23.722656 16.539062 23.804688 16.539062 23.804688 C 16.539062 23.804688 17.410156 26.988281 20.105469 27.90625 L 20.105469 27.15625 L 20.109375 27.15625 C 18.105469 26.476562 17.109375 24.546875 16.730469 23.597656 Z M 36.898438 27.21875 C 33.238281 29.957031 25.726562 32.105469 21.378906 32.105469 C 20.945312 32.105469 20.519531 32.078125 20.109375 32.039062 L 20.109375 32.789062 C 20.519531 32.828125 20.945312 32.855469 21.378906 32.855469 C 25.929688 32.855469 33.945312 30.503906 37.382812 27.585938 C 37.285156 27.488281 37.113281 27.359375 36.898438 27.21875 Z M 36.898438 27.21875 "/>
<path style=" stroke:none;fill-rule:nonzero;fill:rgb(0%,0%,0%);fill-opacity:0.4;" d="M 20.992188 16.265625 C 20.882812 16.265625 20.773438 16.269531 20.660156 16.269531 C 20.480469 16.273438 20.289062 16.289062 20.109375 16.300781 L 20.109375 17.082031 C 20.289062 17.066406 20.480469 17.054688 20.660156 17.050781 C 26.699219 16.84375 30.9375 21.226562 32.097656 22.570312 C 32.304688 22.335938 32.425781 22.1875 32.425781 22.1875 C 32.425781 22.1875 27.929688 16.21875 20.992188 16.265625 Z M 20.105469 17.839844 C 14.453125 18.277344 11.621094 22.507812 11.621094 22.507812 C 11.621094 22.507812 11.683594 22.710938 11.808594 23.03125 C 12.519531 22.121094 15.28125 18.992188 20.105469 18.621094 Z M 21.140625 19.675781 C 20.785156 19.675781 20.441406 19.699219 20.109375 19.738281 L 20.109375 20.519531 C 20.441406 20.480469 20.785156 20.457031 21.140625 20.457031 C 23.558594 20.457031 25.25 21.859375 25.972656 22.597656 L 26.367188 22.261719 C 26.367188 22.261719 24.421875 19.675781 21.140625 19.675781 Z M 19.730469 21.351562 C 17.910156 21.359375 16.539062 23.023438 16.539062 23.023438 C 16.539062 23.023438 16.601562 23.246094 16.738281 23.589844 C 17.21875 23.101562 18.523438 21.960938 20.101562 22.152344 L 20.109375 22.152344 L 20.109375 21.375 L 20.101562 21.375 C 19.976562 21.359375 19.851562 21.351562 19.730469 21.351562 Z M 28.839844 22.671875 C 27.894531 23.867188 24.851562 27.371094 21.621094 27.371094 C 21.105469 27.375 20.59375 27.292969 20.109375 27.128906 L 20.109375 27.90625 C 20.59375 28.074219 21.105469 28.15625 21.621094 28.152344 C 25.515625 28.152344 29.144531 23.050781 29.144531 23.050781 C 29.144531 23.050781 29.035156 22.902344 28.839844 22.671875 Z M 8.644531 22.753906 C 8.507812 22.878906 8.417969 22.964844 8.417969 22.964844 C 8.417969 22.964844 11.492188 31.964844 20.109375 32.789062 L 20.109375 32.007812 C 12.785156 31.308594 9.476562 24.71875 8.644531 22.753906 Z M 14.199219 23.308594 C 14.074219 23.429688 14.003906 23.507812 14.003906 23.507812 C 14.003906 23.507812 15.328125 28.539062 20.105469 29.402344 L 20.105469 28.621094 C 16.324219 27.941406 14.710938 24.652344 14.199219 23.308594 Z M 33.824219 24.613281 C 30.207031 27.777344 26.46875 30.457031 21.304688 30.457031 C 20.886719 30.457031 20.492188 30.425781 20.109375 30.375 L 20.109375 31.15625 C 20.492188 31.203125 20.886719 31.234375 21.304688 31.234375 C 26.46875 31.234375 30.207031 28.558594 33.824219 25.394531 C 34.304688 25.785156 35.972656 26.621094 36.875 27.207031 C 37.054688 27.074219 37.222656 26.941406 37.382812 26.808594 C 36.882812 26.289062 34.425781 25.101562 33.824219 24.613281 Z M 20.105469 27.90625 L 20.105469 27.910156 L 20.109375 27.910156 C 20.109375 27.90625 20.109375 27.90625 20.105469 27.90625 Z M 20.109375 34.46875 L 20.109375 35.25 L 39.75 35.25 L 39.75 34.46875 Z M 20.109375 34.46875 "/>
<path style=" stroke:none;fill-rule:nonzero;fill:url(#linear0);" d="M 6 3 L 42 3 C 43.65625 3 45 4.34375 45 6 L 45 42 C 45 43.65625 43.65625 45 42 45 L 6 45 C 4.34375 45 3 43.65625 3 42 L 3 6 C 3 4.34375 4.34375 3 6 3 Z M 6 3 "/>
</g>
</svg>
