
<svg xmlns="http://www.w3.org/2000/svg" xmlns:xlink="http://www.w3.org/1999/xlink" width="48" height="48" viewBox="0 0 48 48" version="1.1">
<defs>
<linearGradient id="linear0" gradientUnits="userSpaceOnUse" x1="31.999998" y1="61.499996" x2="31.999998" y2="3.999999" gradientTransform="matrix(0.75,0,0,0.75,0,0.000000000000085265)">
<stop offset="0" style="stop-color:rgb(0%,0%,0%);stop-opacity:0.2;"/>
<stop offset="1" style="stop-color:rgb(100%,100%,100%);stop-opacity:0;"/>
</linearGradient>
</defs>
<g id="surface1">
<path style=" stroke:none;fill-rule:nonzero;fill:rgb(9.803922%,46.27451%,82.352942%);fill-opacity:1;" d="M 7.5 12.375 L 3 15 L 3 33 L 7.5 35.625 Z M 7.5 12.375 "/>
<path style=" stroke:none;fill-rule:nonzero;fill:rgb(11.764706%,53.333336%,89.803922%);fill-opacity:1;" d="M 34.773438 3.253906 L 35.625 16.5 L 7.78125 35.527344 C 7.371094 35.8125 6.828125 35.816406 6.414062 35.539062 L 3.289062 33.457031 C 2.9375 33.222656 2.894531 32.71875 3.207031 32.433594 Z M 34.773438 3.253906 "/>
<path style=" stroke:none;fill-rule:nonzero;fill:rgb(100%,100%,100%);fill-opacity:0.4;" d="M 34.773438 3.253906 L 3.203125 32.433594 C 2.957031 32.664062 2.933594 33.027344 3.117188 33.285156 C 3.140625 33.25 3.171875 33.214844 3.203125 33.183594 L 34.773438 4.003906 L 35.578125 16.53125 L 35.625 16.5 Z M 34.773438 3.253906 "/>
<path style=" stroke:none;fill-rule:nonzero;fill:rgb(0.392157%,0.392157%,0.392157%);fill-opacity:0.4;" d="M 7.097656 35.710938 C 6.859375 35.714844 6.621094 35.648438 6.414062 35.507812 L 3.289062 33.425781 C 2.976562 33.214844 2.910156 32.796875 3.117188 32.503906 C 3.160156 32.570312 3.21875 32.628906 3.289062 32.675781 L 6.414062 34.757812 C 6.828125 35.035156 7.371094 35.03125 7.78125 34.746094 L 35.578125 15.75 L 35.625 16.46875 L 7.78125 35.496094 C 7.574219 35.636719 7.335938 35.710938 7.097656 35.714844 Z M 7.097656 35.710938 "/>
<path style=" stroke:none;fill-rule:nonzero;fill:rgb(12.941177%,58.823532%,95.294118%);fill-opacity:1;" d="M 34.773438 44.746094 L 35.625 31.5 L 7.78125 12.472656 C 7.371094 12.1875 6.828125 12.183594 6.414062 12.460938 L 3.289062 14.542969 C 2.9375 14.777344 2.894531 15.28125 3.207031 15.566406 Z M 34.773438 44.746094 "/>
<path style=" stroke:none;fill-rule:nonzero;fill:rgb(100%,100%,100%);fill-opacity:0.4;" d="M 7.097656 12.253906 C 6.859375 12.253906 6.621094 12.320312 6.414062 12.460938 L 3.289062 14.542969 C 2.976562 14.75 2.910156 15.171875 3.117188 15.464844 C 3.160156 15.398438 3.21875 15.339844 3.289062 15.292969 L 6.414062 13.210938 C 6.828125 12.933594 7.371094 12.9375 7.78125 13.222656 L 35.578125 32.21875 L 35.625 31.5 L 7.78125 12.472656 C 7.574219 12.328125 7.335938 12.257812 7.097656 12.253906 Z M 7.097656 12.253906 "/>
<path style=" stroke:none;fill-rule:nonzero;fill:rgb(0.392157%,0.392157%,0.392157%);fill-opacity:0.4;" d="M 34.773438 44.742188 L 3.207031 15.566406 C 2.957031 15.335938 2.933594 14.96875 3.117188 14.710938 C 3.140625 14.75 3.171875 14.785156 3.207031 14.816406 L 34.773438 43.992188 L 35.578125 31.464844 L 35.625 31.5 Z M 34.773438 44.742188 "/>
<path style=" stroke:none;fill-rule:nonzero;fill:rgb(25.882354%,64.705884%,96.078432%);fill-opacity:1;" d="M 34.5 3.894531 L 34.5 44.105469 C 34.5 44.433594 34.679688 44.734375 34.96875 44.890625 C 35.257812 45.050781 35.609375 45.039062 35.886719 44.859375 L 43.613281 39.890625 C 44.476562 39.335938 45 38.378906 45 37.355469 L 45 10.644531 C 45 9.621094 44.476562 8.664062 43.613281 8.109375 L 35.886719 3.140625 C 35.609375 2.960938 35.257812 2.949219 34.96875 3.109375 C 34.679688 3.265625 34.5 3.566406 34.5 3.894531 Z M 34.5 3.894531 "/>
<path style=" stroke:none;fill-rule:nonzero;fill:rgb(0.392157%,0.392157%,0.392157%);fill-opacity:0.4;" d="M 35.363281 45 C 34.882812 44.980469 34.5 44.585938 34.5 44.101562 L 34.5 43.347656 C 34.5 43.675781 34.679688 43.980469 34.96875 44.136719 C 35.257812 44.292969 35.609375 44.28125 35.882812 44.105469 L 43.617188 39.136719 C 44.480469 38.582031 45 37.625 45 36.597656 L 45 37.351562 C 45 38.378906 44.480469 39.335938 43.617188 39.890625 L 35.882812 44.859375 C 35.730469 44.957031 35.546875 45.007812 35.363281 45 Z M 35.363281 45 "/>
<path style=" stroke:none;fill-rule:nonzero;fill:url(#linear0);" d="M 35.363281 3 C 35.140625 3.011719 34.929688 3.105469 34.773438 3.265625 L 34.773438 3.253906 L 17.566406 19.160156 L 7.78125 12.472656 C 7.371094 12.1875 6.828125 12.183594 6.414062 12.460938 L 3.289062 14.542969 C 3.125 14.652344 3.03125 14.820312 3.003906 14.996094 L 3 15 L 3 15.035156 C 2.996094 15.070312 2.996094 15.109375 3 15.144531 L 3 32.855469 C 2.996094 32.890625 2.996094 32.929688 3 32.964844 L 3 33 L 3.003906 33.003906 C 3.03125 33.179688 3.125 33.347656 3.289062 33.457031 L 6.414062 35.539062 C 6.828125 35.816406 7.371094 35.8125 7.78125 35.527344 L 17.566406 28.839844 L 34.773438 44.746094 L 34.773438 44.738281 C 35.070312 45.03125 35.53125 45.082031 35.882812 44.859375 L 43.617188 39.890625 C 44.480469 39.335938 45 38.378906 45 37.355469 L 45 10.644531 C 45 9.621094 44.480469 8.664062 43.617188 8.109375 L 35.882812 3.140625 C 35.730469 3.039062 35.546875 2.992188 35.363281 3 Z M 34.5 17.269531 L 34.5 30.730469 L 24.652344 24 Z M 7.5 19.535156 L 12.328125 24 L 7.5 28.464844 Z M 7.5 19.535156 "/>
<path style=" stroke:none;fill-rule:nonzero;fill:rgb(0%,0%,0%);fill-opacity:0.2;" d="M 34.5 17.269531 L 24.652344 24 L 25.472656 24.558594 L 34.5 18.390625 Z M 7.5 19.535156 L 7.5 20.65625 L 11.722656 24.558594 L 12.328125 24 Z M 17.566406 28.839844 L 7.78125 35.527344 C 7.371094 35.8125 6.828125 35.816406 6.414062 35.539062 L 3.289062 33.457031 C 3.125 33.347656 3.03125 33.179688 3.003906 33.003906 L 3 33 L 3 33.976562 C 2.996094 34.011719 2.996094 34.050781 3 34.085938 L 3 34.121094 L 3.003906 34.125 C 3.03125 34.300781 3.125 34.46875 3.289062 34.578125 L 6.414062 36.660156 C 6.828125 36.9375 7.371094 36.933594 7.78125 36.648438 L 17.566406 29.960938 L 34.773438 45.867188 L 34.773438 45.855469 C 35.070312 46.152344 35.53125 46.203125 35.882812 45.980469 L 43.617188 41.011719 C 44.480469 40.457031 45 39.5 45 38.472656 L 45 37.355469 C 45 38.378906 44.480469 39.335938 43.617188 39.890625 L 35.882812 44.859375 C 35.53125 45.082031 35.070312 45.03125 34.773438 44.738281 L 34.773438 44.746094 Z M 17.566406 28.839844 "/>
<path style=" stroke:none;fill-rule:nonzero;fill:rgb(100%,100%,100%);fill-opacity:0.4;" d="M 35.363281 3 C 34.882812 3.019531 34.5 3.414062 34.5 3.898438 L 34.5 4.648438 C 34.5 4.320312 34.679688 4.019531 34.96875 3.859375 C 35.257812 3.703125 35.609375 3.714844 35.882812 3.894531 L 43.617188 8.863281 C 44.480469 9.417969 45 10.375 45 11.398438 L 45 10.644531 C 45 9.621094 44.480469 8.664062 43.617188 8.109375 L 35.882812 3.140625 C 35.730469 3.039062 35.546875 2.992188 35.363281 3 Z M 35.363281 3 "/>
</g>
</svg>
