
<svg xmlns="http://www.w3.org/2000/svg" xmlns:xlink="http://www.w3.org/1999/xlink" width="32" height="32" viewBox="0 0 32 32" version="1.1">
<defs>
<linearGradient id="linear0" gradientUnits="userSpaceOnUse" x1="32" y1="59.999996" x2="31.999998" y2="3.999999" gradientTransform="matrix(0.5,0,0,0.5,0,0)">
<stop offset="0" style="stop-color:rgb(0%,0%,0%);stop-opacity:0.2;"/>
<stop offset="1" style="stop-color:rgb(100%,100%,100%);stop-opacity:0;"/>
</linearGradient>
</defs>
<g id="surface1">
<path style=" stroke:none;fill-rule:nonzero;fill:rgb(0%,0%,0%);fill-opacity:0.2;" d="M 4 8.492188 L 4 8.984375 C 4 9.261719 4.222656 9.484375 4.5 9.484375 L 6 9.484375 L 6 8.992188 L 4.5 8.992188 C 4.222656 8.992188 4 8.769531 4 8.492188 Z M 12 8.492188 C 12 8.769531 11.777344 8.992188 11.5 8.992188 L 10 8.992188 L 10 9.484375 L 11.5 9.484375 C 11.777344 9.484375 12 9.261719 12 8.984375 Z M 19 8.492188 L 19 8.984375 C 19 9.121094 19.054688 9.242188 19.140625 9.332031 L 19.433594 8.988281 C 19.1875 8.957031 19 8.75 19 8.492188 Z M 28 8.492188 C 28 8.769531 27.777344 8.992188 27.5 8.992188 L 25.449219 8.992188 L 11.636719 25.242188 C 11.421875 25.484375 11.15625 25.675781 10.859375 25.796875 L 2.671875 17.609375 C 2.320312 17.261719 2.109375 16.828125 2.035156 16.375 C 1.917969 17.074219 2.128906 17.816406 2.671875 18.359375 L 10.269531 25.957031 C 10.183594 25.972656 10.101562 25.988281 10.015625 25.992188 L 6.984375 25.992188 C 6.441406 25.992188 6 25.554688 6 25.007812 L 6 25.5 C 6 26.046875 6.441406 26.484375 6.984375 26.484375 L 10.015625 26.484375 C 10.242188 26.484375 10.46875 26.445312 10.683594 26.371094 L 14.390625 30.078125 C 15.28125 30.972656 16.71875 30.972656 17.609375 30.078125 L 29.328125 18.359375 C 29.871094 17.816406 30.082031 17.074219 29.964844 16.375 C 29.890625 16.828125 29.679688 17.261719 29.328125 17.609375 L 17.609375 29.328125 C 16.71875 30.222656 15.28125 30.222656 14.390625 29.328125 L 11.191406 26.128906 C 11.359375 26.019531 11.507812 25.886719 11.636719 25.734375 L 25.449219 9.484375 L 27.5 9.484375 C 27.777344 9.484375 28 9.261719 28 8.984375 Z M 28 8.492188 "/>
<path style=" stroke:none;fill-rule:nonzero;fill:rgb(40.000001%,73.333335%,41.568628%);fill-opacity:1;" d="M 17.609375 2.671875 L 29.328125 14.390625 C 30.21875 15.277344 30.21875 16.722656 29.328125 17.609375 L 17.609375 29.328125 C 16.722656 30.21875 15.28125 30.21875 14.390625 29.328125 L 2.671875 17.609375 C 1.78125 16.722656 1.78125 15.277344 2.671875 14.390625 L 14.390625 2.671875 C 15.277344 1.78125 16.722656 1.78125 17.609375 2.671875 Z M 17.609375 2.671875 "/>
<path style=" stroke:none;fill-rule:nonzero;fill:rgb(100%,100%,100%);fill-opacity:0.4;" d="M 16 2 C 15.417969 2 14.835938 2.226562 14.390625 2.671875 L 2.671875 14.390625 C 2.164062 14.898438 1.945312 15.585938 2.015625 16.25 C 2.070312 15.75 2.289062 15.269531 2.671875 14.886719 L 14.390625 3.167969 C 15.28125 2.277344 16.71875 2.277344 17.609375 3.167969 L 29.328125 14.886719 C 29.710938 15.269531 29.929688 15.753906 29.984375 16.25 C 30.058594 15.585938 29.839844 14.898438 29.328125 14.390625 L 17.609375 2.671875 C 17.164062 2.226562 16.582031 2 16 2 Z M 16 2 "/>
<path style=" stroke:none;fill-rule:nonzero;fill:rgb(4.705882%,4.705882%,4.705882%);fill-opacity:0.4;" d="M 16 30 C 15.417969 30 14.835938 29.777344 14.390625 29.332031 L 2.671875 17.613281 C 2.164062 17.101562 1.945312 16.414062 2.015625 15.753906 C 2.070312 16.25 2.289062 16.734375 2.671875 17.113281 L 14.390625 28.832031 C 15.28125 29.726562 16.71875 29.726562 17.609375 28.832031 L 29.328125 17.113281 C 29.710938 16.734375 29.929688 16.25 29.984375 15.753906 C 30.058594 16.414062 29.839844 17.101562 29.328125 17.613281 L 17.609375 29.332031 C 17.164062 29.777344 16.582031 30 16 30 Z M 16 30 "/>
<path style=" stroke:none;fill-rule:nonzero;fill:rgb(87.843138%,87.843138%,87.843138%);fill-opacity:1;" d="M 4.5 6 C 4.222656 6 4 6.222656 4 6.5 L 4 8.5 C 4 8.777344 4.222656 9 4.5 9 L 6 9 L 6 25.015625 C 6 25.558594 6.441406 26 6.984375 26 L 10.015625 26 C 10.640625 26 11.234375 25.726562 11.636719 25.25 L 25.449219 9 L 27.5 9 C 27.777344 9 28 8.777344 28 8.5 L 28 6.5 C 28 6.222656 27.777344 6 27.5 6 L 19.5 6 C 19.222656 6 19 6.222656 19 6.5 L 19 8.5 C 19 8.753906 19.1875 8.960938 19.433594 8.996094 L 10.640625 19.253906 C 10.542969 19.367188 10.378906 19.410156 10.238281 19.355469 C 10.09375 19.304688 10 19.167969 10 19.015625 L 10 9 L 11.5 9 C 11.777344 9 12 8.777344 12 8.5 L 12 6.5 C 12 6.222656 11.777344 6 11.5 6 Z M 4.5 6 "/>
<path style=" stroke:none;fill-rule:nonzero;fill:rgb(100%,100%,100%);fill-opacity:0.6;" d="M 4.5 6 C 4.222656 6 4 6.222656 4 6.5 L 4 7 C 4 6.722656 4.222656 6.5 4.5 6.5 L 11.5 6.5 C 11.777344 6.5 12 6.722656 12 7 L 12 6.5 C 12 6.222656 11.777344 6 11.5 6 Z M 19.5 6 C 19.222656 6 19 6.222656 19 6.5 L 19 7 C 19 6.722656 19.222656 6.5 19.5 6.5 L 27.5 6.5 C 27.777344 6.5 28 6.722656 28 7 L 28 6.5 C 28 6.222656 27.777344 6 27.5 6 Z M 19.136719 9.34375 L 10.640625 19.253906 C 10.542969 19.367188 10.378906 19.410156 10.238281 19.355469 C 10.09375 19.304688 10 19.167969 10 19.015625 L 10 19.515625 C 10 19.667969 10.09375 19.804688 10.238281 19.855469 C 10.378906 19.910156 10.542969 19.867188 10.640625 19.753906 L 19.433594 9.496094 C 19.316406 9.480469 19.210938 9.421875 19.136719 9.34375 Z M 19.136719 9.34375 "/>
<path style=" stroke:none;fill-rule:nonzero;fill:rgb(0%,0%,0%);fill-opacity:0.4;" d="M 12 8.5 C 12 8.777344 11.777344 9 11.5 9 L 10 9 L 10 9.5 L 11.5 9.5 C 11.777344 9.5 12 9.277344 12 9 Z M 19 8.5 L 19 9 C 19 9.132812 19.050781 9.253906 19.136719 9.34375 L 19.433594 8.996094 C 19.1875 8.960938 19 8.753906 19 8.5 Z M 24.757812 9.816406 L 11.636719 25.25 C 11.425781 25.488281 11.160156 25.679688 10.863281 25.800781 L 11.199219 26.136719 C 11.363281 26.027344 11.507812 25.898438 11.636719 25.75 L 24.984375 10.046875 Z M 24.757812 9.816406 "/>
<path style=" stroke:none;fill-rule:nonzero;fill:url(#linear0);" d="M 16 2 C 15.417969 2 14.835938 2.226562 14.390625 2.671875 L 11.0625 6 L 4.5 6 C 4.222656 6 4 6.222656 4 6.5 L 4 8.5 C 4 8.777344 4.222656 9 4.5 9 L 6 9 L 6 11.0625 L 2.671875 14.390625 C 1.78125 15.28125 1.78125 16.71875 2.671875 17.609375 L 6 20.9375 L 6 25.015625 C 6 25.558594 6.441406 26 6.984375 26 L 10.015625 26 C 10.308594 25.992188 10.597656 25.925781 10.863281 25.800781 L 14.390625 29.328125 C 15.28125 30.222656 16.71875 30.222656 17.609375 29.328125 L 29.328125 17.609375 C 30.222656 16.71875 30.222656 15.28125 29.328125 14.390625 L 24.757812 9.816406 L 25.449219 9 L 27.5 9 C 27.777344 9 28 8.777344 28 8.5 L 28 6.5 C 28 6.222656 27.777344 6 27.5 6 L 20.9375 6 L 17.609375 2.671875 C 17.164062 2.226562 16.582031 2 16 2 Z M 16 2 "/>
</g>
</svg>
