
<svg xmlns="http://www.w3.org/2000/svg" xmlns:xlink="http://www.w3.org/1999/xlink" width="32" height="32" viewBox="0 0 32 32" version="1.1">
<defs>
<linearGradient id="linear0" gradientUnits="userSpaceOnUse" x1="8.466666" y1="-199.125" x2="8.466666" y2="-213.412506" gradientTransform="matrix(1.889764,0,0,1.889764,0,406.299234)">
<stop offset="0" style="stop-color:rgb(0%,0%,0%);stop-opacity:0.2;"/>
<stop offset="1" style="stop-color:rgb(100%,100%,100%);stop-opacity:0;"/>
</linearGradient>
<linearGradient id="linear1" gradientUnits="userSpaceOnUse" x1="12.7" y1="-199.125" x2="12.7" y2="-213.941666" gradientTransform="matrix(1.889764,0,0,1.889764,-8.490234,392.297268)">
<stop offset="0" style="stop-color:rgb(0%,0%,0%);stop-opacity:0.2;"/>
<stop offset="1" style="stop-color:rgb(100%,100%,100%);stop-opacity:0;"/>
</linearGradient>
</defs>
<g id="surface1">
<path style=" stroke:none;fill-rule:nonzero;fill:rgb(38.039216%,38.039216%,38.039216%);fill-opacity:1;" d="M 7 2 L 25 2 C 26.105469 2 27 2.894531 27 4 L 27 28 C 27 29.105469 26.105469 30 25 30 L 7 30 C 5.894531 30 5 29.105469 5 28 L 5 4 C 5 2.894531 5.894531 2 7 2 Z M 7 2 "/>
<path style=" stroke:none;fill-rule:nonzero;fill:rgb(25.882354%,64.705884%,96.078432%);fill-opacity:0.996078;" d="M 9.5 17 L 22.5 17 C 22.777344 17 23 17.222656 23 17.5 L 23 27.5 C 23 27.777344 22.777344 28 22.5 28 L 9.5 28 C 9.222656 28 9 27.777344 9 27.5 L 9 17.5 C 9 17.222656 9.222656 17 9.5 17 Z M 9.5 17 "/>
<path style=" stroke:none;fill-rule:nonzero;fill:rgb(0.784314%,0.784314%,0.784314%);fill-opacity:0.4;" d="M 9.5 17 C 9.222656 17 9 17.222656 9 17.5 L 9 17.75 C 9 17.472656 9.222656 17.25 9.5 17.25 L 22.5 17.25 C 22.777344 17.25 23 17.472656 23 17.75 L 23 17.5 C 23 17.222656 22.777344 17 22.5 17 Z M 9.5 17 "/>
<path style=" stroke:none;fill-rule:nonzero;fill:rgb(99.607843%,99.607843%,99.607843%);fill-opacity:0.4;" d="M 9.5 28.25 C 9.222656 28.25 9 28.027344 9 27.75 L 9 27.5 C 9 27.777344 9.222656 28 9.5 28 L 22.5 28 C 22.777344 28 23 27.777344 23 27.5 L 23 27.75 C 23 28.027344 22.777344 28.25 22.5 28.25 Z M 9.5 28.25 "/>
<path style=" stroke:none;fill-rule:nonzero;fill:rgb(25.882354%,64.705884%,96.078432%);fill-opacity:0.996078;" d="M 9.5 4 L 22.5 4 C 22.777344 4 23 4.222656 23 4.5 L 23 14.5 C 23 14.777344 22.777344 15 22.5 15 L 9.5 15 C 9.222656 15 9 14.777344 9 14.5 L 9 4.5 C 9 4.222656 9.222656 4 9.5 4 Z M 9.5 4 "/>
<path style=" stroke:none;fill-rule:nonzero;fill:rgb(0.784314%,0.784314%,0.784314%);fill-opacity:0.4;" d="M 9.5 4 C 9.222656 4 9 4.222656 9 4.5 L 9 4.75 C 9 4.472656 9.222656 4.25 9.5 4.25 L 22.5 4.25 C 22.777344 4.25 23 4.472656 23 4.75 L 23 4.5 C 23 4.222656 22.777344 4 22.5 4 Z M 9.5 4 "/>
<path style=" stroke:none;fill-rule:nonzero;fill:rgb(99.607843%,99.607843%,99.607843%);fill-opacity:0.4;" d="M 9.5 15.25 C 9.222656 15.25 9 15.027344 9 14.75 L 9 14.5 C 9 14.777344 9.222656 15 9.5 15 L 22.5 15 C 22.777344 15 23 14.777344 23 14.5 L 23 14.75 C 23 15.027344 22.777344 15.25 22.5 15.25 Z M 9.5 15.25 "/>
<path style=" stroke:none;fill-rule:nonzero;fill:rgb(0.392157%,0.392157%,0.392157%);fill-opacity:0.4;" d="M 7 30 C 5.890625 30 5 29.109375 5 28 L 5 27.503906 C 5 28.609375 5.890625 29.503906 7 29.503906 L 25 29.503906 C 26.109375 29.503906 27 28.609375 27 27.503906 L 27 28 C 27 29.109375 26.109375 30 25 30 Z M 7 30 "/>
<path style=" stroke:none;fill-rule:nonzero;fill:rgb(0.392157%,0.392157%,0.392157%);fill-opacity:0.2;" d="M 5 28 L 5 28.746094 C 5 29.855469 5.890625 30.746094 7 30.746094 L 25 30.746094 C 26.109375 30.746094 27 29.855469 27 28.746094 L 27 28 C 27 29.109375 26.109375 30 25 30 L 7 30 C 5.890625 30 5 29.109375 5 28 Z M 5 28 "/>
<path style=" stroke:none;fill-rule:nonzero;fill:rgb(100%,100%,100%);fill-opacity:0.4;" d="M 7 2.003906 C 5.890625 2.003906 5 2.894531 5 4.003906 L 5 4.5 C 5 3.390625 5.890625 2.5 7 2.5 L 25 2.5 C 26.109375 2.5 27 3.390625 27 4.5 L 27 4.003906 C 27 2.894531 26.109375 2.003906 25 2.003906 Z M 7 2.003906 "/>
<path style=" stroke:none;fill-rule:nonzero;fill:rgb(0%,0%,0%);fill-opacity:0.4;" d="M 6.5 3 L 7.5 3 C 7.777344 3 8 3.222656 8 3.5 L 8 4.5 C 8 4.777344 7.777344 5 7.5 5 L 6.5 5 C 6.222656 5 6 4.777344 6 4.5 L 6 3.5 C 6 3.222656 6.222656 3 6.5 3 Z M 6.5 3 "/>
<path style=" stroke:none;fill-rule:nonzero;fill:rgb(0%,0%,0%);fill-opacity:0.4;" d="M 6.5 3 C 6.222656 3 6 3.222656 6 3.5 L 6 4 C 6 3.722656 6.222656 3.5 6.5 3.5 L 7.5 3.5 C 7.777344 3.5 8 3.722656 8 4 L 8 3.5 C 8 3.222656 7.777344 3 7.5 3 Z M 6.5 3 "/>
<path style=" stroke:none;fill-rule:nonzero;fill:rgb(99.607843%,99.607843%,99.607843%);fill-opacity:0.4;" d="M 6.5 5.5 C 6.222656 5.5 6 5.277344 6 5 L 6 4.5 C 6 4.777344 6.222656 5 6.5 5 L 7.5 5 C 7.777344 5 8 4.777344 8 4.5 L 8 5 C 8 5.277344 7.777344 5.5 7.5 5.5 Z M 6.5 5.5 "/>
<path style=" stroke:none;fill-rule:nonzero;fill:rgb(0%,0%,0%);fill-opacity:0.4;" d="M 24.5 3 L 25.5 3 C 25.777344 3 26 3.222656 26 3.5 L 26 4.5 C 26 4.777344 25.777344 5 25.5 5 L 24.5 5 C 24.222656 5 24 4.777344 24 4.5 L 24 3.5 C 24 3.222656 24.222656 3 24.5 3 Z M 24.5 3 "/>
<path style=" stroke:none;fill-rule:nonzero;fill:rgb(0%,0%,0%);fill-opacity:0.4;" d="M 24.5 3 C 24.222656 3 24 3.222656 24 3.5 L 24 4 C 24 3.722656 24.222656 3.5 24.5 3.5 L 25.5 3.5 C 25.777344 3.5 26 3.722656 26 4 L 26 3.5 C 26 3.222656 25.777344 3 25.5 3 Z M 24.5 3 "/>
<path style=" stroke:none;fill-rule:nonzero;fill:rgb(99.607843%,99.607843%,99.607843%);fill-opacity:0.4;" d="M 24.5 5.5 C 24.222656 5.5 24 5.277344 24 5 L 24 4.5 C 24 4.777344 24.222656 5 24.5 5 L 25.5 5 C 25.777344 5 26 4.777344 26 4.5 L 26 5 C 26 5.277344 25.777344 5.5 25.5 5.5 Z M 24.5 5.5 "/>
<path style=" stroke:none;fill-rule:nonzero;fill:rgb(0%,0%,0%);fill-opacity:0.4;" d="M 6.5 7 L 7.5 7 C 7.777344 7 8 7.222656 8 7.5 L 8 8.5 C 8 8.777344 7.777344 9 7.5 9 L 6.5 9 C 6.222656 9 6 8.777344 6 8.5 L 6 7.5 C 6 7.222656 6.222656 7 6.5 7 Z M 6.5 7 "/>
<path style=" stroke:none;fill-rule:nonzero;fill:rgb(0%,0%,0%);fill-opacity:0.4;" d="M 6.5 7 C 6.222656 7 6 7.222656 6 7.5 L 6 8 C 6 7.722656 6.222656 7.5 6.5 7.5 L 7.5 7.5 C 7.777344 7.5 8 7.722656 8 8 L 8 7.5 C 8 7.222656 7.777344 7 7.5 7 Z M 6.5 7 "/>
<path style=" stroke:none;fill-rule:nonzero;fill:rgb(99.607843%,99.607843%,99.607843%);fill-opacity:0.4;" d="M 6.5 9.5 C 6.222656 9.5 6 9.277344 6 9 L 6 8.5 C 6 8.777344 6.222656 9 6.5 9 L 7.5 9 C 7.777344 9 8 8.777344 8 8.5 L 8 9 C 8 9.277344 7.777344 9.5 7.5 9.5 Z M 6.5 9.5 "/>
<path style=" stroke:none;fill-rule:nonzero;fill:rgb(0%,0%,0%);fill-opacity:0.4;" d="M 24.5 7 L 25.5 7 C 25.777344 7 26 7.222656 26 7.5 L 26 8.5 C 26 8.777344 25.777344 9 25.5 9 L 24.5 9 C 24.222656 9 24 8.777344 24 8.5 L 24 7.5 C 24 7.222656 24.222656 7 24.5 7 Z M 24.5 7 "/>
<path style=" stroke:none;fill-rule:nonzero;fill:rgb(0%,0%,0%);fill-opacity:0.4;" d="M 24.5 7 C 24.222656 7 24 7.222656 24 7.5 L 24 8 C 24 7.722656 24.222656 7.5 24.5 7.5 L 25.5 7.5 C 25.777344 7.5 26 7.722656 26 8 L 26 7.5 C 26 7.222656 25.777344 7 25.5 7 Z M 24.5 7 "/>
<path style=" stroke:none;fill-rule:nonzero;fill:rgb(99.607843%,99.607843%,99.607843%);fill-opacity:0.4;" d="M 24.5 9.5 C 24.222656 9.5 24 9.277344 24 9 L 24 8.5 C 24 8.777344 24.222656 9 24.5 9 L 25.5 9 C 25.777344 9 26 8.777344 26 8.5 L 26 9 C 26 9.277344 25.777344 9.5 25.5 9.5 Z M 24.5 9.5 "/>
<path style=" stroke:none;fill-rule:nonzero;fill:rgb(0%,0%,0%);fill-opacity:0.4;" d="M 6.5 11 L 7.5 11 C 7.777344 11 8 11.222656 8 11.5 L 8 12.5 C 8 12.777344 7.777344 13 7.5 13 L 6.5 13 C 6.222656 13 6 12.777344 6 12.5 L 6 11.5 C 6 11.222656 6.222656 11 6.5 11 Z M 6.5 11 "/>
<path style=" stroke:none;fill-rule:nonzero;fill:rgb(0%,0%,0%);fill-opacity:0.4;" d="M 6.5 11 C 6.222656 11 6 11.222656 6 11.5 L 6 12 C 6 11.722656 6.222656 11.5 6.5 11.5 L 7.5 11.5 C 7.777344 11.5 8 11.722656 8 12 L 8 11.5 C 8 11.222656 7.777344 11 7.5 11 Z M 6.5 11 "/>
<path style=" stroke:none;fill-rule:nonzero;fill:rgb(99.607843%,99.607843%,99.607843%);fill-opacity:0.4;" d="M 6.5 13.5 C 6.222656 13.5 6 13.277344 6 13 L 6 12.5 C 6 12.777344 6.222656 13 6.5 13 L 7.5 13 C 7.777344 13 8 12.777344 8 12.5 L 8 13 C 8 13.277344 7.777344 13.5 7.5 13.5 Z M 6.5 13.5 "/>
<path style=" stroke:none;fill-rule:nonzero;fill:rgb(0%,0%,0%);fill-opacity:0.4;" d="M 24.5 11 L 25.5 11 C 25.777344 11 26 11.222656 26 11.5 L 26 12.5 C 26 12.777344 25.777344 13 25.5 13 L 24.5 13 C 24.222656 13 24 12.777344 24 12.5 L 24 11.5 C 24 11.222656 24.222656 11 24.5 11 Z M 24.5 11 "/>
<path style=" stroke:none;fill-rule:nonzero;fill:rgb(0%,0%,0%);fill-opacity:0.4;" d="M 24.5 11 C 24.222656 11 24 11.222656 24 11.5 L 24 12 C 24 11.722656 24.222656 11.5 24.5 11.5 L 25.5 11.5 C 25.777344 11.5 26 11.722656 26 12 L 26 11.5 C 26 11.222656 25.777344 11 25.5 11 Z M 24.5 11 "/>
<path style=" stroke:none;fill-rule:nonzero;fill:rgb(99.607843%,99.607843%,99.607843%);fill-opacity:0.4;" d="M 24.5 13.5 C 24.222656 13.5 24 13.277344 24 13 L 24 12.5 C 24 12.777344 24.222656 13 24.5 13 L 25.5 13 C 25.777344 13 26 12.777344 26 12.5 L 26 13 C 26 13.277344 25.777344 13.5 25.5 13.5 Z M 24.5 13.5 "/>
<path style=" stroke:none;fill-rule:nonzero;fill:rgb(0%,0%,0%);fill-opacity:0.4;" d="M 6.5 15 L 7.5 15 C 7.777344 15 8 15.222656 8 15.5 L 8 16.5 C 8 16.777344 7.777344 17 7.5 17 L 6.5 17 C 6.222656 17 6 16.777344 6 16.5 L 6 15.5 C 6 15.222656 6.222656 15 6.5 15 Z M 6.5 15 "/>
<path style=" stroke:none;fill-rule:nonzero;fill:rgb(0%,0%,0%);fill-opacity:0.4;" d="M 6.5 15 C 6.222656 15 6 15.222656 6 15.5 L 6 16 C 6 15.722656 6.222656 15.5 6.5 15.5 L 7.5 15.5 C 7.777344 15.5 8 15.722656 8 16 L 8 15.5 C 8 15.222656 7.777344 15 7.5 15 Z M 6.5 15 "/>
<path style=" stroke:none;fill-rule:nonzero;fill:rgb(99.607843%,99.607843%,99.607843%);fill-opacity:0.4;" d="M 6.5 17.5 C 6.222656 17.5 6 17.277344 6 17 L 6 16.5 C 6 16.777344 6.222656 17 6.5 17 L 7.5 17 C 7.777344 17 8 16.777344 8 16.5 L 8 17 C 8 17.277344 7.777344 17.5 7.5 17.5 Z M 6.5 17.5 "/>
<path style=" stroke:none;fill-rule:nonzero;fill:rgb(0%,0%,0%);fill-opacity:0.4;" d="M 24.5 15 L 25.5 15 C 25.777344 15 26 15.222656 26 15.5 L 26 16.5 C 26 16.777344 25.777344 17 25.5 17 L 24.5 17 C 24.222656 17 24 16.777344 24 16.5 L 24 15.5 C 24 15.222656 24.222656 15 24.5 15 Z M 24.5 15 "/>
<path style=" stroke:none;fill-rule:nonzero;fill:rgb(0%,0%,0%);fill-opacity:0.4;" d="M 24.5 15 C 24.222656 15 24 15.222656 24 15.5 L 24 16 C 24 15.722656 24.222656 15.5 24.5 15.5 L 25.5 15.5 C 25.777344 15.5 26 15.722656 26 16 L 26 15.5 C 26 15.222656 25.777344 15 25.5 15 Z M 24.5 15 "/>
<path style=" stroke:none;fill-rule:nonzero;fill:rgb(99.607843%,99.607843%,99.607843%);fill-opacity:0.4;" d="M 24.5 17.5 C 24.222656 17.5 24 17.277344 24 17 L 24 16.5 C 24 16.777344 24.222656 17 24.5 17 L 25.5 17 C 25.777344 17 26 16.777344 26 16.5 L 26 17 C 26 17.277344 25.777344 17.5 25.5 17.5 Z M 24.5 17.5 "/>
<path style=" stroke:none;fill-rule:nonzero;fill:rgb(0%,0%,0%);fill-opacity:0.4;" d="M 6.5 19 L 7.5 19 C 7.777344 19 8 19.222656 8 19.5 L 8 20.5 C 8 20.777344 7.777344 21 7.5 21 L 6.5 21 C 6.222656 21 6 20.777344 6 20.5 L 6 19.5 C 6 19.222656 6.222656 19 6.5 19 Z M 6.5 19 "/>
<path style=" stroke:none;fill-rule:nonzero;fill:rgb(0%,0%,0%);fill-opacity:0.4;" d="M 6.5 19 C 6.222656 19 6 19.222656 6 19.5 L 6 20 C 6 19.722656 6.222656 19.5 6.5 19.5 L 7.5 19.5 C 7.777344 19.5 8 19.722656 8 20 L 8 19.5 C 8 19.222656 7.777344 19 7.5 19 Z M 6.5 19 "/>
<path style=" stroke:none;fill-rule:nonzero;fill:rgb(99.607843%,99.607843%,99.607843%);fill-opacity:0.4;" d="M 6.5 21.5 C 6.222656 21.5 6 21.277344 6 21 L 6 20.5 C 6 20.777344 6.222656 21 6.5 21 L 7.5 21 C 7.777344 21 8 20.777344 8 20.5 L 8 21 C 8 21.277344 7.777344 21.5 7.5 21.5 Z M 6.5 21.5 "/>
<path style=" stroke:none;fill-rule:nonzero;fill:rgb(0%,0%,0%);fill-opacity:0.4;" d="M 24.5 19 L 25.5 19 C 25.777344 19 26 19.222656 26 19.5 L 26 20.5 C 26 20.777344 25.777344 21 25.5 21 L 24.5 21 C 24.222656 21 24 20.777344 24 20.5 L 24 19.5 C 24 19.222656 24.222656 19 24.5 19 Z M 24.5 19 "/>
<path style=" stroke:none;fill-rule:nonzero;fill:rgb(0%,0%,0%);fill-opacity:0.4;" d="M 24.5 19 C 24.222656 19 24 19.222656 24 19.5 L 24 20 C 24 19.722656 24.222656 19.5 24.5 19.5 L 25.5 19.5 C 25.777344 19.5 26 19.722656 26 20 L 26 19.5 C 26 19.222656 25.777344 19 25.5 19 Z M 24.5 19 "/>
<path style=" stroke:none;fill-rule:nonzero;fill:rgb(99.607843%,99.607843%,99.607843%);fill-opacity:0.4;" d="M 24.5 21.5 C 24.222656 21.5 24 21.277344 24 21 L 24 20.5 C 24 20.777344 24.222656 21 24.5 21 L 25.5 21 C 25.777344 21 26 20.777344 26 20.5 L 26 21 C 26 21.277344 25.777344 21.5 25.5 21.5 Z M 24.5 21.5 "/>
<path style=" stroke:none;fill-rule:nonzero;fill:rgb(0%,0%,0%);fill-opacity:0.4;" d="M 6.5 23 L 7.5 23 C 7.777344 23 8 23.222656 8 23.5 L 8 24.5 C 8 24.777344 7.777344 25 7.5 25 L 6.5 25 C 6.222656 25 6 24.777344 6 24.5 L 6 23.5 C 6 23.222656 6.222656 23 6.5 23 Z M 6.5 23 "/>
<path style=" stroke:none;fill-rule:nonzero;fill:rgb(0%,0%,0%);fill-opacity:0.4;" d="M 6.5 23 C 6.222656 23 6 23.222656 6 23.5 L 6 24 C 6 23.722656 6.222656 23.5 6.5 23.5 L 7.5 23.5 C 7.777344 23.5 8 23.722656 8 24 L 8 23.5 C 8 23.222656 7.777344 23 7.5 23 Z M 6.5 23 "/>
<path style=" stroke:none;fill-rule:nonzero;fill:rgb(99.607843%,99.607843%,99.607843%);fill-opacity:0.4;" d="M 6.5 25.5 C 6.222656 25.5 6 25.277344 6 25 L 6 24.5 C 6 24.777344 6.222656 25 6.5 25 L 7.5 25 C 7.777344 25 8 24.777344 8 24.5 L 8 25 C 8 25.277344 7.777344 25.5 7.5 25.5 Z M 6.5 25.5 "/>
<path style=" stroke:none;fill-rule:nonzero;fill:rgb(0%,0%,0%);fill-opacity:0.4;" d="M 24.5 23 L 25.5 23 C 25.777344 23 26 23.222656 26 23.5 L 26 24.5 C 26 24.777344 25.777344 25 25.5 25 L 24.5 25 C 24.222656 25 24 24.777344 24 24.5 L 24 23.5 C 24 23.222656 24.222656 23 24.5 23 Z M 24.5 23 "/>
<path style=" stroke:none;fill-rule:nonzero;fill:rgb(0%,0%,0%);fill-opacity:0.4;" d="M 24.5 23 C 24.222656 23 24 23.222656 24 23.5 L 24 24 C 24 23.722656 24.222656 23.5 24.5 23.5 L 25.5 23.5 C 25.777344 23.5 26 23.722656 26 24 L 26 23.5 C 26 23.222656 25.777344 23 25.5 23 Z M 24.5 23 "/>
<path style=" stroke:none;fill-rule:nonzero;fill:rgb(99.607843%,99.607843%,99.607843%);fill-opacity:0.4;" d="M 24.5 25.5 C 24.222656 25.5 24 25.277344 24 25 L 24 24.5 C 24 24.777344 24.222656 25 24.5 25 L 25.5 25 C 25.777344 25 26 24.777344 26 24.5 L 26 25 C 26 25.277344 25.777344 25.5 25.5 25.5 Z M 24.5 25.5 "/>
<path style=" stroke:none;fill-rule:nonzero;fill:rgb(0%,0%,0%);fill-opacity:0.4;" d="M 6.5 27 L 7.5 27 C 7.777344 27 8 27.222656 8 27.5 L 8 28.5 C 8 28.777344 7.777344 29 7.5 29 L 6.5 29 C 6.222656 29 6 28.777344 6 28.5 L 6 27.5 C 6 27.222656 6.222656 27 6.5 27 Z M 6.5 27 "/>
<path style=" stroke:none;fill-rule:nonzero;fill:rgb(0%,0%,0%);fill-opacity:0.4;" d="M 6.5 27 C 6.222656 27 6 27.222656 6 27.5 L 6 28 C 6 27.722656 6.222656 27.5 6.5 27.5 L 7.5 27.5 C 7.777344 27.5 8 27.722656 8 28 L 8 27.5 C 8 27.222656 7.777344 27 7.5 27 Z M 6.5 27 "/>
<path style=" stroke:none;fill-rule:nonzero;fill:rgb(99.607843%,99.607843%,99.607843%);fill-opacity:0.4;" d="M 6.5 29.5 C 6.222656 29.5 6 29.277344 6 29 L 6 28.5 C 6 28.777344 6.222656 29 6.5 29 L 7.5 29 C 7.777344 29 8 28.777344 8 28.5 L 8 29 C 8 29.277344 7.777344 29.5 7.5 29.5 Z M 6.5 29.5 "/>
<path style=" stroke:none;fill-rule:nonzero;fill:rgb(0%,0%,0%);fill-opacity:0.4;" d="M 24.5 27 L 25.5 27 C 25.777344 27 26 27.222656 26 27.5 L 26 28.5 C 26 28.777344 25.777344 29 25.5 29 L 24.5 29 C 24.222656 29 24 28.777344 24 28.5 L 24 27.5 C 24 27.222656 24.222656 27 24.5 27 Z M 24.5 27 "/>
<path style=" stroke:none;fill-rule:nonzero;fill:rgb(0%,0%,0%);fill-opacity:0.4;" d="M 24.5 27 C 24.222656 27 24 27.222656 24 27.5 L 24 28 C 24 27.722656 24.222656 27.5 24.5 27.5 L 25.5 27.5 C 25.777344 27.5 26 27.722656 26 28 L 26 27.5 C 26 27.222656 25.777344 27 25.5 27 Z M 24.5 27 "/>
<path style=" stroke:none;fill-rule:nonzero;fill:rgb(99.607843%,99.607843%,99.607843%);fill-opacity:0.4;" d="M 24.5 29.5 C 24.222656 29.5 24 29.277344 24 29 L 24 28.5 C 24 28.777344 24.222656 29 24.5 29 L 25.5 29 C 25.777344 29 26 28.777344 26 28.5 L 26 29 C 26 29.277344 25.777344 29.5 25.5 29.5 Z M 24.5 29.5 "/>
<path style=" stroke:none;fill-rule:nonzero;fill:url(#linear0);" d="M 7 2 L 25 2 C 26.105469 2 27 2.894531 27 4 L 27 28 C 27 29.105469 26.105469 30 25 30 L 7 30 C 5.894531 30 5 29.105469 5 28 L 5 4 C 5 2.894531 5.894531 2 7 2 Z M 7 2 "/>
<path style=" stroke:none;fill-rule:nonzero;fill:rgb(100%,79.215688%,15.686275%);fill-opacity:1;" d="M 14 1.988281 C 13.445312 1.988281 13 2.433594 13 2.988281 L 13 10.5 L 10.8125 10.5 C 10.523438 10.5 10.382812 10.855469 10.597656 11.054688 L 15.402344 15.757812 C 15.742188 16.070312 16.277344 16.082031 16.609375 15.757812 L 21.410156 11.054688 C 21.625 10.855469 21.484375 10.5 21.195312 10.5 L 19.011719 10.5 L 19.011719 2.988281 C 19.011719 2.433594 18.5625 1.988281 18.007812 1.988281 Z M 14 1.988281 "/>
<path style=" stroke:none;fill-rule:nonzero;fill:rgb(100%,43.921569%,26.274511%);fill-opacity:1;" d="M 18.0625 8.789062 C 16.375 8.816406 14.6875 10.6875 13 9 L 13 10.5 L 10.8125 10.5 C 10.523438 10.5 10.382812 10.859375 10.597656 11.054688 L 15.402344 15.757812 C 15.742188 16.070312 16.277344 16.082031 16.609375 15.757812 L 21.410156 11.054688 C 21.625 10.859375 21.488281 10.5 21.195312 10.5 L 19.007812 10.5 L 19.007812 9.003906 L 19 9 C 18.6875 8.84375 18.375 8.785156 18.0625 8.789062 Z M 18.0625 8.789062 "/>
<path style=" stroke:none;fill-rule:nonzero;fill:rgb(100%,100%,100%);fill-opacity:0.4;" d="M 14.003906 1.988281 C 13.445312 1.988281 13 2.433594 13 2.988281 L 13 3.5 C 13 2.945312 13.445312 2.496094 14.003906 2.496094 L 18.007812 2.496094 C 18.5625 2.496094 19.011719 2.945312 19.011719 3.5 L 19.011719 2.988281 C 19.011719 2.433594 18.5625 1.988281 18.007812 1.988281 Z M 10.816406 10.5 C 10.523438 10.5 10.382812 10.859375 10.597656 11.054688 L 10.621094 11.078125 C 10.671875 11.035156 10.738281 11.011719 10.8125 11.011719 L 13 11.011719 L 13 10.5 Z M 19.011719 10.5 L 19.011719 11.011719 L 21.195312 11.011719 C 21.273438 11.011719 21.335938 11.035156 21.390625 11.074219 L 21.410156 11.054688 C 21.625 10.859375 21.488281 10.5 21.195312 10.5 Z M 19.011719 10.5 "/>
<path style=" stroke:none;fill-rule:nonzero;fill:rgb(0%,0%,0%);fill-opacity:0.4;" d="M 10.613281 10.570312 C 10.472656 10.683594 10.445312 10.910156 10.597656 11.054688 L 15.402344 15.757812 C 15.742188 16.070312 16.277344 16.082031 16.609375 15.757812 L 21.410156 11.054688 C 21.566406 10.910156 21.535156 10.683594 21.398438 10.570312 L 16.609375 15.261719 C 16.277344 15.585938 15.742188 15.574219 15.402344 15.261719 Z M 10.613281 10.570312 "/>
<path style=" stroke:none;fill-rule:nonzero;fill:rgb(0%,0%,0%);fill-opacity:0.2;" d="M 10.800781 11.25 C 10.519531 11.261719 10.386719 11.609375 10.597656 11.800781 L 15.402344 16.507812 C 15.742188 16.820312 16.277344 16.832031 16.609375 16.507812 L 21.410156 11.800781 C 21.621094 11.609375 21.492188 11.257812 21.210938 11.25 L 16.609375 15.757812 C 16.277344 16.082031 15.742188 16.070312 15.402344 15.757812 Z M 10.800781 11.25 "/>
<path style=" stroke:none;fill-rule:nonzero;fill:url(#linear1);" d="M 14 1.988281 C 13.445312 1.988281 13 2.433594 13 2.988281 L 13 10.5 L 10.8125 10.5 C 10.523438 10.5 10.382812 10.855469 10.597656 11.054688 L 15.402344 15.757812 C 15.742188 16.070312 16.277344 16.082031 16.609375 15.757812 L 21.410156 11.054688 C 21.625 10.855469 21.484375 10.5 21.195312 10.5 L 19.011719 10.5 L 19.011719 2.988281 C 19.011719 2.433594 18.5625 1.988281 18.007812 1.988281 Z M 14 1.988281 "/>
</g>
</svg>
