
<svg xmlns="http://www.w3.org/2000/svg" xmlns:xlink="http://www.w3.org/1999/xlink" width="32" height="32" viewBox="0 0 32 32" version="1.1">
<defs>
<linearGradient id="linear0" gradientUnits="userSpaceOnUse" x1="32" y1="59.999996" x2="32" y2="4" gradientTransform="matrix(0.5,0,0,0.5,0,0)">
<stop offset="0" style="stop-color:rgb(0%,0%,0%);stop-opacity:0.2;"/>
<stop offset="1" style="stop-color:rgb(100%,100%,100%);stop-opacity:0;"/>
</linearGradient>
</defs>
<g id="surface1">
<path style=" stroke:none;fill-rule:nonzero;fill:rgb(40.000001%,73.333335%,41.568628%);fill-opacity:1;" d="M 2.589844 11.667969 C 1.226562 14.027344 2.324219 16.0625 4.882812 17.539062 C 7.441406 19.015625 11.113281 16.589844 16 16 C 14.066406 11.472656 14.332031 7.078125 11.773438 5.601562 C 9.214844 4.125 6.90625 4.191406 5.542969 6.550781 C 4.988281 7.511719 4.792969 8.578125 4.914062 9.597656 C 3.96875 10.003906 3.144531 10.707031 2.589844 11.667969 Z M 2.589844 11.667969 "/>
<path style=" stroke:none;fill-rule:nonzero;fill:rgb(100%,79.215688%,15.686275%);fill-opacity:1;" d="M 26.457031 25.449219 C 25.09375 27.808594 22.785156 27.875 20.226562 26.398438 C 17.667969 24.921875 17.933594 20.527344 16 16 C 20.886719 15.410156 24.558594 12.984375 27.117188 14.460938 C 29.675781 15.9375 30.773438 17.972656 29.410156 20.332031 C 28.855469 21.292969 28.03125 21.996094 27.085938 22.402344 C 27.207031 23.421875 27.011719 24.488281 26.457031 25.449219 Z M 26.457031 25.449219 "/>
<path style=" stroke:none;fill-rule:nonzero;fill:rgb(95.686275%,26.274511%,21.176471%);fill-opacity:1;" d="M 20.332031 2.589844 C 17.972656 1.226562 15.9375 2.324219 14.460938 4.882812 C 12.984375 7.441406 15.410156 11.113281 16 16 C 20.527344 14.066406 24.921875 14.332031 26.398438 11.773438 C 27.875 9.214844 27.808594 6.90625 25.449219 5.542969 C 24.488281 4.988281 23.421875 4.792969 22.402344 4.914062 C 21.996094 3.96875 21.292969 3.144531 20.332031 2.589844 Z M 20.332031 2.589844 "/>
<path style=" stroke:none;fill-rule:nonzero;fill:rgb(25.882354%,64.705884%,96.078432%);fill-opacity:1;" d="M 6.550781 26.457031 C 4.191406 25.09375 4.125 22.785156 5.601562 20.226562 C 7.078125 17.667969 11.472656 17.933594 16 16 C 16.589844 20.886719 19.015625 24.558594 17.539062 27.117188 C 16.0625 29.675781 14.027344 30.773438 11.667969 29.410156 C 10.707031 28.855469 10.003906 28.03125 9.597656 27.085938 C 8.578125 27.207031 7.511719 27.011719 6.550781 26.457031 Z M 6.550781 26.457031 "/>
<path style=" stroke:none;fill-rule:nonzero;fill:rgb(100%,100%,100%);fill-opacity:0.4;" d="M 8.617188 4.613281 C 7.375 4.621094 6.308594 5.222656 5.542969 6.550781 C 5.046875 7.40625 4.839844 8.347656 4.886719 9.265625 C 4.925781 8.511719 5.136719 7.753906 5.542969 7.054688 C 6.90625 4.691406 9.214844 4.628906 11.773438 6.105469 C 14.238281 7.527344 14.082031 11.671875 15.804688 16.023438 C 15.871094 16.015625 15.933594 16.007812 16 16 C 14.066406 11.472656 14.328125 7.078125 11.773438 5.601562 C 10.652344 4.957031 9.582031 4.605469 8.617188 4.613281 Z M 4.882812 9.613281 C 3.949219 10.019531 3.136719 10.71875 2.589844 11.667969 C 2.132812 12.453125 1.953125 13.203125 2.007812 13.910156 C 2.054688 13.351562 2.242188 12.769531 2.589844 12.167969 C 3.144531 11.207031 3.96875 10.503906 4.914062 10.101562 C 4.894531 9.9375 4.882812 9.777344 4.882812 9.613281 Z M 4.882812 9.613281 "/>
<path style=" stroke:none;fill-rule:nonzero;fill:rgb(100%,100%,100%);fill-opacity:0.4;" d="M 25.132812 13.992188 C 22.773438 14.023438 19.742188 15.550781 16 16 C 16.066406 16.160156 16.132812 16.316406 16.195312 16.476562 C 20.984375 15.847656 24.59375 13.507812 27.117188 14.964844 C 28.824219 15.949219 29.878906 17.179688 29.992188 18.59375 C 30.117188 16.96875 29.023438 15.5625 27.117188 14.460938 C 26.519531 14.117188 25.859375 13.984375 25.132812 13.992188 Z M 27.117188 22.886719 C 27.109375 22.890625 27.097656 22.898438 27.085938 22.902344 C 27.101562 23.011719 27.109375 23.125 27.113281 23.238281 C 27.121094 23.121094 27.121094 23.003906 27.117188 22.886719 Z M 27.117188 22.886719 "/>
<path style=" stroke:none;fill-rule:nonzero;fill:rgb(100%,100%,100%);fill-opacity:0.4;" d="M 18.324219 2 C 16.8125 2.007812 15.5 3.082031 14.460938 4.882812 C 14.085938 5.53125 13.964844 6.253906 14 7.050781 C 14.027344 6.449219 14.167969 5.894531 14.460938 5.382812 C 15.9375 2.828125 17.972656 1.726562 20.332031 3.089844 C 21.292969 3.644531 21.996094 4.472656 22.398438 5.414062 C 23.417969 5.292969 24.488281 5.488281 25.449219 6.042969 C 26.695312 6.761719 27.300781 7.746094 27.378906 8.890625 C 27.460938 7.53125 26.875 6.363281 25.449219 5.542969 C 24.488281 4.988281 23.417969 4.792969 22.398438 4.914062 C 21.996094 3.96875 21.292969 3.144531 20.332031 2.589844 C 19.632812 2.183594 18.960938 1.996094 18.324219 2 Z M 18.324219 2 "/>
<path style=" stroke:none;fill-rule:nonzero;fill:rgb(100%,100%,100%);fill-opacity:0.4;" d="M 16 16 C 11.472656 17.933594 7.078125 17.671875 5.601562 20.226562 C 4.90625 21.433594 4.554688 22.585938 4.621094 23.609375 C 4.675781 22.71875 5.015625 21.742188 5.601562 20.726562 C 7.078125 18.171875 11.472656 18.433594 16 16.5 C 16.4375 20.144531 17.898438 23.113281 18 25.449219 C 18.117188 23.042969 16.472656 19.910156 16 16 Z M 16 16 "/>
<path style=" stroke:none;fill-rule:nonzero;fill:rgb(0%,0%,0%);fill-opacity:0.4;" d="M 4.886719 8.765625 C 4.878906 8.882812 4.878906 9 4.882812 9.117188 C 4.890625 9.113281 4.902344 9.105469 4.914062 9.101562 C 4.898438 8.988281 4.890625 8.878906 4.886719 8.765625 Z M 2.007812 13.410156 C 1.882812 15.03125 2.976562 16.4375 4.882812 17.539062 C 7.4375 19.015625 11.113281 16.589844 16 16 C 15.933594 15.84375 15.867188 15.683594 15.804688 15.527344 C 11.015625 16.15625 7.40625 18.5 4.882812 17.039062 C 3.175781 16.054688 2.117188 14.824219 2.007812 13.410156 Z M 2.007812 13.410156 "/>
<path style=" stroke:none;fill-rule:nonzero;fill:rgb(0%,0%,0%);fill-opacity:0.4;" d="M 16.195312 15.976562 C 16.128906 15.984375 16.066406 15.992188 16 16 C 17.933594 20.527344 17.671875 24.921875 20.226562 26.398438 C 22.785156 27.875 25.09375 27.808594 26.457031 25.449219 C 26.953125 24.59375 27.160156 23.652344 27.113281 22.738281 C 27.074219 23.492188 26.863281 24.25 26.457031 24.953125 C 25.09375 27.3125 22.785156 27.378906 20.226562 25.898438 C 17.757812 24.476562 17.917969 20.332031 16.195312 15.976562 Z M 29.992188 18.09375 C 29.949219 18.648438 29.757812 19.230469 29.410156 19.835938 C 28.855469 20.796875 28.03125 21.5 27.085938 21.902344 C 27.105469 22.0625 27.117188 22.222656 27.117188 22.386719 C 28.050781 21.980469 28.863281 21.28125 29.410156 20.332031 C 29.863281 19.546875 30.046875 18.796875 29.992188 18.09375 Z M 29.992188 18.09375 "/>
<path style=" stroke:none;fill-rule:nonzero;fill:rgb(0%,0%,0%);fill-opacity:0.4;" d="M 14 6.550781 C 13.882812 8.957031 15.527344 12.089844 16 16 C 20.527344 14.066406 24.921875 14.328125 26.398438 11.773438 C 27.09375 10.566406 27.445312 9.414062 27.378906 8.390625 C 27.324219 9.285156 26.984375 10.261719 26.398438 11.273438 C 24.921875 13.832031 20.527344 13.570312 16 15.503906 C 15.5625 11.859375 14.101562 8.886719 14 6.550781 Z M 14 6.550781 "/>
<path style=" stroke:none;fill-rule:nonzero;fill:rgb(0%,0%,0%);fill-opacity:0.4;" d="M 4.621094 23.109375 C 4.539062 24.46875 5.128906 25.636719 6.550781 26.457031 C 7.511719 27.011719 8.582031 27.210938 9.601562 27.085938 C 10.003906 28.03125 10.707031 28.855469 11.667969 29.410156 C 14.027344 30.773438 16.0625 29.675781 17.539062 27.117188 C 17.914062 26.46875 18.035156 25.746094 18 24.953125 C 17.972656 25.550781 17.832031 26.109375 17.539062 26.621094 C 16.0625 29.175781 14.027344 30.277344 11.667969 28.914062 C 10.707031 28.359375 10.003906 27.535156 9.601562 26.589844 C 8.582031 26.710938 7.511719 26.515625 6.550781 25.960938 C 5.304688 25.242188 4.699219 24.257812 4.621094 23.109375 Z M 4.621094 23.109375 "/>
<path style=" stroke:none;fill-rule:nonzero;fill:rgb(100%,100%,100%);fill-opacity:0.101961;" d="M 18.324219 2 C 16.8125 2.007812 15.5 3.082031 14.460938 4.882812 C 12.984375 7.4375 15.410156 11.113281 16 16 C 20.527344 14.066406 24.921875 14.328125 26.398438 11.773438 C 27.875 9.214844 27.808594 6.90625 25.449219 5.542969 C 24.488281 4.988281 23.417969 4.792969 22.398438 4.914062 C 21.996094 3.96875 21.292969 3.144531 20.332031 2.589844 C 19.632812 2.183594 18.960938 1.996094 18.324219 2 Z M 16 16 C 16.421875 16.988281 16.734375 17.964844 17 18.910156 C 20.394531 20.496094 24.109375 21.519531 28.027344 21.867188 C 28.574219 21.472656 29.050781 20.957031 29.410156 20.332031 C 30.773438 17.972656 29.675781 15.9375 27.117188 14.460938 C 24.5625 12.984375 20.886719 15.410156 16 16 Z M 16 16 C 15.109375 16.382812 14.222656 16.675781 13.363281 16.921875 C 14.371094 17.5625 15.417969 18.144531 16.5 18.671875 C 16.292969 17.824219 16.113281 16.933594 16 16 Z M 16 16 C 14.066406 11.472656 14.328125 7.078125 11.773438 5.601562 C 9.214844 4.125 6.90625 4.191406 5.542969 6.550781 C 5.054688 7.394531 4.84375 8.316406 4.882812 9.214844 C 4.882812 9.214844 4.882812 9.214844 4.882812 9.21875 C 7.117188 12.105469 9.820312 14.605469 12.882812 16.613281 C 13.863281 16.359375 14.898438 16.132812 16 16 Z M 16 16 "/>
<path style=" stroke:none;fill-rule:nonzero;fill:url(#linear0);" d="M 18.324219 2 C 16.8125 2.007812 15.5 3.082031 14.460938 4.882812 C 12.984375 7.4375 15.410156 11.113281 16 16 C 20.527344 14.066406 24.921875 14.328125 26.398438 11.773438 C 27.875 9.214844 27.808594 6.90625 25.449219 5.542969 C 24.488281 4.988281 23.417969 4.792969 22.398438 4.914062 C 21.996094 3.96875 21.292969 3.144531 20.332031 2.589844 C 19.632812 2.183594 18.960938 1.996094 18.324219 2 Z M 16 16 C 17.933594 20.527344 17.671875 24.921875 20.226562 26.398438 C 22.785156 27.875 25.09375 27.808594 26.457031 25.449219 C 27.011719 24.488281 27.207031 23.417969 27.085938 22.398438 C 28.03125 21.996094 28.855469 21.292969 29.410156 20.332031 C 30.773438 17.972656 29.675781 15.9375 27.117188 14.460938 C 24.5625 12.984375 20.886719 15.410156 16 16 Z M 16 16 C 11.472656 17.933594 7.078125 17.671875 5.601562 20.226562 C 4.125 22.785156 4.191406 25.09375 6.550781 26.457031 C 7.511719 27.011719 8.582031 27.210938 9.601562 27.085938 C 10.003906 28.03125 10.707031 28.855469 11.667969 29.410156 C 14.027344 30.773438 16.0625 29.675781 17.539062 27.117188 C 19.015625 24.5625 16.589844 20.886719 16 16 Z M 16 16 C 14.066406 11.472656 14.328125 7.078125 11.773438 5.601562 C 9.214844 4.125 6.90625 4.191406 5.542969 6.550781 C 4.988281 7.511719 4.792969 8.582031 4.914062 9.601562 C 3.96875 10.003906 3.144531 10.707031 2.589844 11.667969 C 1.226562 14.027344 2.324219 16.0625 4.882812 17.539062 C 7.4375 19.015625 11.113281 16.589844 16 16 Z M 16 16 "/>
<path style=" stroke:none;fill-rule:nonzero;fill:rgb(0%,0%,0%);fill-opacity:0.2;" d="M 14.007812 7.175781 C 13.84375 9.351562 15.191406 12.132812 15.816406 15.554688 C 15.875 15.703125 15.9375 15.851562 16 16 C 15.570312 12.421875 14.152344 9.492188 14.007812 7.175781 Z M 16 16 C 19.539062 15.574219 22.441406 14.183594 24.746094 14.011719 C 25.453125 13.644531 26.019531 13.175781 26.398438 12.523438 C 27.121094 11.273438 27.472656 10.082031 27.367188 9.03125 C 27.289062 9.886719 26.953125 10.8125 26.398438 11.773438 C 24.921875 14.328125 20.527344 14.066406 16 16 Z M 16 16 C 16.027344 16.238281 16.0625 16.476562 16.101562 16.710938 C 16.152344 16.6875 16.207031 16.664062 16.257812 16.644531 C 16.175781 16.429688 16.09375 16.214844 16 16 Z M 16 16 C 15.964844 16.003906 15.929688 16.007812 15.894531 16.015625 C 15.894531 16.023438 15.898438 16.03125 15.898438 16.042969 C 15.933594 16.027344 15.964844 16.015625 16 16 Z M 4.890625 9.398438 C 4.886719 9.46875 4.882812 9.542969 4.882812 9.613281 C 4.890625 9.609375 4.902344 9.605469 4.914062 9.601562 C 4.90625 9.53125 4.898438 9.464844 4.890625 9.398438 Z M 2.023438 14.039062 C 1.828125 15.710938 2.929688 17.164062 4.882812 18.289062 C 5.585938 18.695312 6.375 18.804688 7.25 18.742188 C 9.273438 17.691406 12.457031 17.453125 15.742188 16.109375 C 15.730469 16.085938 15.722656 16.0625 15.714844 16.039062 C 10.96875 16.683594 7.390625 18.984375 4.882812 17.539062 C 3.230469 16.582031 2.183594 15.394531 2.023438 14.039062 Z M 16.285156 16.710938 C 16.226562 16.722656 16.164062 16.730469 16.105469 16.738281 C 16.128906 16.890625 16.15625 17.042969 16.183594 17.195312 C 17.917969 21.5625 17.753906 25.71875 20.226562 27.148438 C 22.785156 28.625 25.09375 28.5625 26.457031 26.199219 C 26.976562 25.300781 27.183594 24.3125 27.109375 23.355469 C 27.054688 24.070312 26.839844 24.785156 26.457031 25.449219 C 25.09375 27.808594 22.785156 27.875 20.226562 26.398438 C 17.804688 25 17.910156 20.980469 16.285156 16.710938 Z M 29.976562 18.710938 C 29.917969 19.234375 29.734375 19.773438 29.410156 20.332031 C 28.855469 21.292969 28.03125 21.996094 27.085938 22.398438 C 27.117188 22.644531 27.125 22.890625 27.117188 23.136719 C 28.050781 22.730469 28.863281 22.035156 29.410156 21.085938 C 29.894531 20.25 30.066406 19.457031 29.976562 18.710938 Z M 4.632812 23.71875 C 4.5 25.136719 5.078125 26.359375 6.550781 27.210938 C 7.511719 27.765625 8.582031 27.960938 9.601562 27.835938 C 10.003906 28.78125 10.707031 29.605469 11.667969 30.164062 C 14.027344 31.527344 16.0625 30.425781 17.539062 27.867188 C 17.933594 27.183594 18.046875 26.421875 17.992188 25.578125 C 17.953125 26.128906 17.8125 26.644531 17.539062 27.117188 C 16.0625 29.675781 14.027344 30.773438 11.667969 29.410156 C 10.707031 28.855469 10.003906 28.03125 9.601562 27.085938 C 8.582031 27.210938 7.511719 27.011719 6.550781 26.457031 C 5.34375 25.761719 4.738281 24.816406 4.632812 23.71875 Z M 4.632812 23.71875 "/>
</g>
</svg>
