
<svg xmlns="http://www.w3.org/2000/svg" xmlns:xlink="http://www.w3.org/1999/xlink" width="32" height="32" viewBox="0 0 32 32" version="1.1">
<defs>
<linearGradient id="linear0" gradientUnits="userSpaceOnUse" x1="10.054166" y1="-199.125" x2="10.054166" y2="-213.941666" gradientTransform="matrix(1.889764,0,0,1.889764,-0.000632289,406.299234)">
<stop offset="0" style="stop-color:rgb(0%,0%,0%);stop-opacity:0.2;"/>
<stop offset="1" style="stop-color:rgb(100%,100%,100%);stop-opacity:0;"/>
</linearGradient>
</defs>
<g id="surface1">
<path style=" stroke:none;fill-rule:nonzero;fill:rgb(74.117649%,74.117649%,74.117649%);fill-opacity:1;" d="M 4 2 L 28 2 C 29.105469 2 30 2.894531 30 4 L 30 28 C 30 29.105469 29.105469 30 28 30 L 4 30 C 2.894531 30 2 29.105469 2 28 L 2 4 C 2 2.894531 2.894531 2 4 2 Z M 4 2 "/>
<path style=" stroke:none;fill-rule:nonzero;fill:rgb(0%,0%,0%);fill-opacity:0.4;" d="M 2 27.5 L 2 28 C 2 29.109375 2.890625 30 4 30 L 28 30 C 29.109375 30 30 29.109375 30 28 L 30 27.5 C 30 28.609375 29.109375 29.5 28 29.5 L 4 29.5 C 2.890625 29.5 2 28.609375 2 27.5 Z M 2 27.5 "/>
<path style=" stroke:none;fill-rule:nonzero;fill:rgb(0%,0%,0%);fill-opacity:0.2;" d="M 2 28 L 2 28.75 C 2 29.859375 2.890625 30.75 4 30.75 L 28 30.75 C 29.109375 30.75 30 29.859375 30 28.75 L 30 28 C 30 29.109375 29.109375 30 28 30 L 4 30 C 2.890625 30 2 29.109375 2 28 Z M 2 28 "/>
<path style=" stroke:none;fill-rule:nonzero;fill:rgb(93.333334%,93.333334%,93.333334%);fill-opacity:0.960784;" d="M 4 2 L 28 2 C 28.550781 2 29 2.449219 29 3 L 29 27 C 29 27.550781 28.550781 28 28 28 L 4 28 C 3.449219 28 3 27.550781 3 27 L 3 3 C 3 2.449219 3.449219 2 4 2 Z M 4 2 "/>
<path style=" stroke:none;fill-rule:nonzero;fill:rgb(100%,100%,100%);fill-opacity:0.4;" d="M 4 2 C 2.890625 2 2 2.890625 2 4 L 2 4.492188 C 2 3.382812 2.890625 2.492188 4 2.492188 L 28 2.492188 C 29.109375 2.492188 30 3.382812 30 4.492188 L 30 4 C 30 2.890625 29.109375 2 28 2 Z M 4 2 "/>
<path style=" stroke:none;fill-rule:nonzero;fill:rgb(38.039216%,38.039216%,38.039216%);fill-opacity:1;" d="M 16 12 C 17.65625 12 19 13.34375 19 15 C 19 16.65625 17.65625 18 16 18 C 14.34375 18 13 16.65625 13 15 C 13 13.34375 14.34375 12 16 12 Z M 16 12 "/>
<path style=" stroke:none;fill-rule:nonzero;fill:rgb(0%,0%,0%);fill-opacity:0.4;" d="M 16 12 C 14.339844 12 13 13.339844 13 15 C 13 15.085938 13.003906 15.171875 13.011719 15.253906 C 13.140625 13.710938 14.421875 12.507812 16 12.507812 C 17.578125 12.507812 18.859375 13.710938 18.988281 15.253906 C 18.996094 15.171875 19 15.085938 19 15 C 19 13.339844 17.660156 12 16 12 Z M 16 12 "/>
<path style=" stroke:none;fill-rule:nonzero;fill:rgb(100%,100%,100%);fill-opacity:0.6;" d="M 13.011719 15.25 C 13.003906 15.332031 13 15.414062 13 15.5 C 13 17.160156 14.339844 18.5 16 18.5 C 17.660156 18.5 19 17.160156 19 15.5 C 19 15.414062 18.996094 15.332031 18.988281 15.25 C 18.863281 16.792969 17.578125 18 16 18 C 14.421875 18 13.136719 16.792969 13.011719 15.25 Z M 13.011719 15.25 "/>
<path style=" stroke:none;fill-rule:nonzero;fill:rgb(38.039216%,38.039216%,38.039216%);fill-opacity:1;" d="M 24 4 C 25.65625 4 27 5.34375 27 7 C 27 8.65625 25.65625 10 24 10 C 22.34375 10 21 8.65625 21 7 C 21 5.34375 22.34375 4 24 4 Z M 24 4 "/>
<path style=" stroke:none;fill-rule:nonzero;fill:rgb(0%,0%,0%);fill-opacity:0.4;" d="M 24 4 C 22.339844 4 21 5.339844 21 7 C 21 7.085938 21.003906 7.171875 21.011719 7.253906 C 21.140625 5.710938 22.421875 4.507812 24 4.507812 C 25.578125 4.507812 26.859375 5.710938 26.988281 7.253906 C 26.996094 7.171875 27 7.085938 27 7 C 27 5.339844 25.660156 4 24 4 Z M 24 4 "/>
<path style=" stroke:none;fill-rule:nonzero;fill:rgb(100%,100%,100%);fill-opacity:0.6;" d="M 21.011719 7.25 C 21.003906 7.332031 21 7.414062 21 7.5 C 21 9.160156 22.339844 10.5 24 10.5 C 25.660156 10.5 27 9.160156 27 7.5 C 27 7.414062 26.996094 7.332031 26.988281 7.25 C 26.863281 8.792969 25.578125 10 24 10 C 22.421875 10 21.136719 8.792969 21.011719 7.25 Z M 21.011719 7.25 "/>
<path style=" stroke:none;fill-rule:nonzero;fill:rgb(38.039216%,38.039216%,38.039216%);fill-opacity:1;" d="M 8.011719 4 C 9.667969 4 11.011719 5.34375 11.011719 7 C 11.011719 8.65625 9.667969 10 8.011719 10 C 6.355469 10 5.011719 8.65625 5.011719 7 C 5.011719 5.34375 6.355469 4 8.011719 4 Z M 8.011719 4 "/>
<path style=" stroke:none;fill-rule:nonzero;fill:rgb(0%,0%,0%);fill-opacity:0.4;" d="M 8.011719 4 C 6.347656 4 5.011719 5.339844 5.011719 7 C 5.011719 7.085938 5.015625 7.171875 5.023438 7.253906 C 5.148438 5.710938 6.433594 4.507812 8.011719 4.507812 C 9.585938 4.507812 10.871094 5.710938 11 7.253906 C 11.007812 7.171875 11.011719 7.085938 11.011719 7 C 11.011719 5.339844 9.671875 4 8.011719 4 Z M 8.011719 4 "/>
<path style=" stroke:none;fill-rule:nonzero;fill:rgb(100%,100%,100%);fill-opacity:0.6;" d="M 5.023438 7.25 C 5.015625 7.332031 5.011719 7.414062 5.011719 7.5 C 5.011719 9.160156 6.347656 10.5 8.011719 10.5 C 9.671875 10.5 11.011719 9.160156 11.011719 7.5 C 11.011719 7.414062 11.007812 7.332031 11 7.25 C 10.875 8.792969 9.589844 10 8.011719 10 C 6.433594 10 5.148438 8.792969 5.019531 7.25 Z M 5.023438 7.25 "/>
<path style=" stroke:none;fill-rule:nonzero;fill:rgb(38.039216%,38.039216%,38.039216%);fill-opacity:1;" d="M 24 20 C 25.65625 20 27 21.34375 27 23 C 27 24.65625 25.65625 26 24 26 C 22.34375 26 21 24.65625 21 23 C 21 21.34375 22.34375 20 24 20 Z M 24 20 "/>
<path style=" stroke:none;fill-rule:nonzero;fill:rgb(0%,0%,0%);fill-opacity:0.4;" d="M 24 20 C 22.339844 20 21 21.339844 21 23 C 21 23.085938 21.003906 23.171875 21.011719 23.253906 C 21.140625 21.710938 22.421875 20.507812 24 20.507812 C 25.578125 20.507812 26.859375 21.710938 26.988281 23.253906 C 26.996094 23.171875 27 23.085938 27 23 C 27 21.339844 25.660156 20 24 20 Z M 24 20 "/>
<path style=" stroke:none;fill-rule:nonzero;fill:rgb(100%,100%,100%);fill-opacity:0.6;" d="M 21.011719 23.25 C 21.003906 23.332031 21 23.414062 21 23.5 C 21 25.160156 22.339844 26.5 24 26.5 C 25.660156 26.5 27 25.160156 27 23.5 C 27 23.414062 26.996094 23.332031 26.988281 23.25 C 26.863281 24.792969 25.578125 26 24 26 C 22.421875 26 21.136719 24.792969 21.011719 23.25 Z M 21.011719 23.25 "/>
<path style=" stroke:none;fill-rule:nonzero;fill:rgb(38.039216%,38.039216%,38.039216%);fill-opacity:1;" d="M 8.011719 20 C 9.667969 20 11.011719 21.34375 11.011719 23 C 11.011719 24.65625 9.667969 26 8.011719 26 C 6.355469 26 5.011719 24.65625 5.011719 23 C 5.011719 21.34375 6.355469 20 8.011719 20 Z M 8.011719 20 "/>
<path style=" stroke:none;fill-rule:nonzero;fill:rgb(0%,0%,0%);fill-opacity:0.4;" d="M 8.011719 20 C 6.347656 20 5.011719 21.339844 5.011719 23 C 5.011719 23.085938 5.015625 23.171875 5.023438 23.253906 C 5.148438 21.710938 6.433594 20.507812 8.011719 20.507812 C 9.585938 20.507812 10.871094 21.710938 11 23.253906 C 11.007812 23.171875 11.011719 23.085938 11.011719 23 C 11.011719 21.339844 9.671875 20 8.011719 20 Z M 8.011719 20 "/>
<path style=" stroke:none;fill-rule:nonzero;fill:rgb(100%,100%,100%);fill-opacity:0.6;" d="M 5.023438 23.25 C 5.015625 23.332031 5.011719 23.414062 5.011719 23.5 C 5.011719 25.160156 6.347656 26.5 8.011719 26.5 C 9.671875 26.5 11.011719 25.160156 11.011719 23.5 C 11.011719 23.414062 11.007812 23.332031 11 23.25 C 10.875 24.792969 9.589844 26 8.011719 26 C 6.433594 26 5.148438 24.792969 5.019531 23.25 Z M 5.023438 23.25 "/>
<path style=" stroke:none;fill-rule:nonzero;fill:url(#linear0);" d="M 4 2 L 28 2 C 29.105469 2 30 2.894531 30 4 L 30 28 C 30 29.105469 29.105469 30 28 30 L 4 30 C 2.894531 30 2 29.105469 2 28 L 2 4 C 2 2.894531 2.894531 2 4 2 Z M 4 2 "/>
</g>
</svg>
