
<svg xmlns="http://www.w3.org/2000/svg" xmlns:xlink="http://www.w3.org/1999/xlink" width="22" height="22" viewBox="0 0 22 22" version="1.1">
<defs>
<linearGradient id="linear0" gradientUnits="userSpaceOnUse" x1="31.999998" y1="60" x2="31.999998" y2="3.999999" gradientTransform="matrix(0.34375,0,0,0.34375,0.000577567,0.00000000000003908)">
<stop offset="0" style="stop-color:rgb(0%,0%,0%);stop-opacity:0.2;"/>
<stop offset="1" style="stop-color:rgb(100%,100%,100%);stop-opacity:0;"/>
</linearGradient>
<linearGradient id="linear1" gradientUnits="userSpaceOnUse" x1="32" y1="59.999996" x2="31.999998" y2="3.999999" gradientTransform="matrix(0.34375,0,0,0.34375,0,0.00000000000003908)">
<stop offset="0" style="stop-color:rgb(0%,0%,0%);stop-opacity:0.2;"/>
<stop offset="1" style="stop-color:rgb(100%,100%,100%);stop-opacity:0;"/>
</linearGradient>
</defs>
<g id="surface1">
<path style=" stroke:none;fill-rule:nonzero;fill:rgb(100%,43.921569%,26.274511%);fill-opacity:1;" d="M 7.839844 10.945312 C 7.636719 11.28125 7.410156 11.613281 7.179688 11.941406 C 7.199219 12.140625 7.238281 12.339844 7.300781 12.53125 C 7.484375 13.109375 7.902344 13.628906 8.648438 14 C 9.449219 14.394531 10.21875 14.386719 10.894531 14.179688 C 11.570312 13.972656 12.164062 13.589844 12.714844 13.246094 C 13.269531 12.902344 13.78125 12.601562 14.242188 12.507812 C 14.65625 12.421875 15.023438 12.464844 15.472656 12.804688 C 15.214844 12.472656 14.964844 12.140625 14.722656 11.796875 C 14.511719 11.78125 14.304688 11.792969 14.105469 11.835938 C 13.472656 11.964844 12.910156 12.316406 12.351562 12.664062 C 11.796875 13.007812 11.246094 13.351562 10.691406 13.523438 C 10.140625 13.691406 9.601562 13.707031 8.957031 13.386719 C 8.335938 13.078125 8.089844 12.746094 7.957031 12.324219 C 7.835938 11.953125 7.828125 11.488281 7.839844 10.945312 Z M 7.839844 10.945312 "/>
<path style=" stroke:none;fill-rule:nonzero;fill:rgb(55.29412%,43.137255%,38.82353%);fill-opacity:1;" d="M 5.972656 5.921875 C 5.824219 6.039062 5.800781 6.253906 5.921875 6.402344 C 7.230469 8.039062 7.191406 9.4375 7.160156 10.710938 C 7.144531 11.347656 7.117188 11.953125 7.300781 12.53125 C 7.484375 13.109375 7.902344 13.628906 8.652344 14 C 9.449219 14.394531 10.21875 14.386719 10.894531 14.179688 C 11.570312 13.972656 12.164062 13.589844 12.714844 13.246094 C 13.269531 12.902344 13.78125 12.601562 14.242188 12.507812 C 14.699219 12.414062 15.105469 12.472656 15.625 12.925781 C 16.03125 13.28125 16.128906 13.738281 16.039062 14.359375 C 15.945312 14.980469 15.632812 15.726562 15.253906 16.464844 C 14.871094 17.207031 14.421875 17.941406 14.0625 18.59375 C 13.703125 19.242188 13.40625 19.765625 13.40625 20.28125 C 13.40625 20.472656 13.5625 20.625 13.75 20.625 C 13.941406 20.625 14.09375 20.472656 14.09375 20.28125 C 14.09375 20.109375 14.316406 19.558594 14.664062 18.925781 C 15.015625 18.296875 15.46875 17.550781 15.863281 16.78125 C 16.261719 16.011719 16.605469 15.21875 16.71875 14.460938 C 16.828125 13.703125 16.679688 12.9375 16.074219 12.410156 C 15.429688 11.84375 14.734375 11.703125 14.105469 11.835938 C 13.472656 11.964844 12.910156 12.316406 12.351562 12.664062 C 11.796875 13.007812 11.246094 13.355469 10.691406 13.523438 C 10.140625 13.691406 9.601562 13.707031 8.957031 13.386719 C 8.335938 13.078125 8.089844 12.746094 7.957031 12.324219 C 7.820312 11.90625 7.828125 11.363281 7.84375 10.726562 C 7.875 9.449219 7.894531 7.773438 6.457031 5.972656 C 6.335938 5.824219 6.121094 5.800781 5.972656 5.921875 Z M 5.972656 5.921875 "/>
<path style=" stroke:none;fill-rule:nonzero;fill:rgb(61.176473%,80.000001%,39.607844%);fill-opacity:1;" d="M 3.699219 2.828125 C 4.324219 4.050781 2.121094 6.222656 6.1875 6.1875 C 6.785156 4.335938 6.160156 3.113281 3.699219 2.828125 Z M 3.699219 2.828125 "/>
<path style=" stroke:none;fill-rule:nonzero;fill:rgb(61.176473%,80.000001%,39.607844%);fill-opacity:1;" d="M 3.472656 10.125 C 4.753906 10.632812 4.535156 13.714844 7.5625 11 C 6.789062 9.214844 5.507812 8.710938 3.472656 10.125 Z M 3.472656 10.125 "/>
<path style=" stroke:none;fill-rule:nonzero;fill:rgb(100%,100%,100%);fill-opacity:0.4;" d="M 6.171875 5.847656 C 6.097656 5.847656 6.03125 5.875 5.972656 5.921875 C 5.875 6.003906 5.835938 6.136719 5.867188 6.265625 C 5.886719 6.203125 5.921875 6.148438 5.972656 6.105469 C 6.03125 6.058594 6.097656 6.035156 6.171875 6.03125 C 6.28125 6.023438 6.386719 6.074219 6.457031 6.15625 C 7.628906 7.625 7.832031 9.007812 7.851562 10.164062 C 7.851562 8.972656 7.691406 7.519531 6.457031 5.972656 C 6.386719 5.886719 6.28125 5.839844 6.171875 5.847656 Z M 7.167969 10.191406 C 7.167969 10.367188 7.164062 10.539062 7.160156 10.710938 C 7.152344 10.929688 7.148438 11.144531 7.148438 11.355469 C 7.148438 11.203125 7.15625 11.050781 7.160156 10.894531 C 7.160156 10.746094 7.164062 10.597656 7.167969 10.445312 C 7.167969 10.363281 7.167969 10.277344 7.167969 10.191406 Z M 7.835938 11.375 C 7.835938 11.457031 7.835938 11.539062 7.835938 11.617188 C 7.84375 11.957031 7.875 12.253906 7.957031 12.507812 C 8.089844 12.929688 8.335938 13.261719 8.957031 13.570312 C 9.601562 13.890625 10.140625 13.875 10.691406 13.707031 C 11.246094 13.539062 11.796875 13.191406 12.351562 12.847656 C 12.910156 12.5 13.472656 12.148438 14.105469 12.019531 C 14.734375 11.890625 15.429688 12.027344 16.074219 12.59375 C 16.53125 12.992188 16.726562 13.527344 16.75 14.089844 C 16.765625 13.460938 16.582031 12.851562 16.074219 12.410156 C 15.429688 11.84375 14.734375 11.707031 14.105469 11.835938 C 13.472656 11.964844 12.910156 12.316406 12.351562 12.664062 C 11.796875 13.007812 11.246094 13.351562 10.691406 13.523438 C 10.140625 13.691406 9.601562 13.707031 8.957031 13.386719 C 8.335938 13.078125 8.089844 12.746094 7.957031 12.324219 C 7.871094 12.054688 7.839844 11.738281 7.835938 11.375 Z M 16.066406 14.082031 C 16.058594 14.171875 16.050781 14.261719 16.039062 14.359375 C 15.945312 14.980469 15.632812 15.726562 15.253906 16.464844 C 14.871094 17.207031 14.421875 17.941406 14.0625 18.59375 C 13.703125 19.242188 13.40625 19.765625 13.40625 20.28125 C 13.40625 20.296875 13.410156 20.3125 13.414062 20.328125 C 13.460938 19.859375 13.734375 19.371094 14.0625 18.777344 C 14.421875 18.128906 14.871094 17.390625 15.253906 16.648438 C 15.632812 15.910156 15.945312 15.164062 16.039062 14.542969 C 16.050781 14.445312 16.058594 14.355469 16.066406 14.265625 C 16.066406 14.203125 16.070312 14.140625 16.066406 14.082031 Z M 16.066406 14.082031 "/>
<path style=" stroke:none;fill-rule:nonzero;fill:rgb(100%,100%,100%);fill-opacity:0.4;" d="M 3.699219 2.828125 C 3.734375 2.898438 3.757812 2.972656 3.777344 3.046875 C 5.554688 3.273438 6.347656 4 6.394531 5.109375 C 6.441406 3.867188 5.644531 3.054688 3.699219 2.828125 Z M 3.816406 3.507812 C 3.792969 3.992188 3.628906 4.523438 3.652344 4.984375 C 3.675781 4.507812 3.84375 3.976562 3.816406 3.507812 Z M 9.578125 4.371094 C 7.53125 4.472656 6.695312 5.300781 6.738281 6.648438 C 6.785156 5.445312 7.613281 4.703125 9.480469 4.585938 C 9.507812 4.511719 9.535156 4.4375 9.578125 4.371094 Z M 9.417969 5.179688 C 9.398438 5.566406 9.480469 5.992188 9.492188 6.386719 C 9.511719 6.007812 9.429688 5.578125 9.417969 5.179688 Z M 5.527344 9.308594 C 4.949219 9.316406 4.269531 9.574219 3.472656 10.125 C 3.535156 10.152344 3.59375 10.183594 3.648438 10.21875 C 4.367188 9.746094 4.992188 9.523438 5.527344 9.519531 C 6.386719 9.511719 7.027344 10.066406 7.496094 11.058594 C 7.519531 11.039062 7.539062 11.019531 7.5625 11 C 7.089844 9.914062 6.429688 9.300781 5.527344 9.308594 Z M 5.527344 9.308594 "/>
<path style=" stroke:none;fill-rule:nonzero;fill:rgb(70.19608%,89.803922%,98.823529%);fill-opacity:0.6;" d="M 8.9375 3.4375 L 8.9375 7.5625 C 8.9375 11.6875 3.4375 15.125 3.4375 17.875 C 3.4375 21.484375 18.5625 21.484375 18.5625 17.875 C 18.5625 15.125 13.0625 11.6875 13.0625 7.5625 L 13.0625 3.4375 Z M 8.9375 3.4375 "/>
<path style=" stroke:none;fill-rule:nonzero;fill:rgb(88.235295%,96.078432%,99.607843%);fill-opacity:0.4;" d="M 9.625 3.4375 L 9.625 8.25 C 8.421875 12.71875 4.238281 15.015625 4.238281 17.472656 C 4.238281 20.703125 17.761719 20.703125 17.761719 17.472656 C 17.761719 15.015625 13.578125 12.71875 12.375 8.25 L 12.375 3.4375 Z M 9.625 3.4375 "/>
<path style=" stroke:none;fill-rule:nonzero;fill:rgb(14.901961%,77.64706%,85.490197%);fill-opacity:0.8;" d="M 6.308594 13.84375 C 6.296875 13.84375 6.289062 13.84375 6.277344 13.84375 C 5.203125 15.175781 4.238281 16.382812 4.238281 17.472656 C 4.238281 20.703125 17.761719 20.703125 17.761719 17.472656 C 17.761719 16.683594 17.253906 15.828125 16.566406 14.914062 C 12.617188 15.488281 9.492188 13.800781 6.308594 13.84375 Z M 6.308594 13.84375 "/>
<path style=" stroke:none;fill-rule:nonzero;fill:rgb(100%,100%,100%);fill-opacity:0.6;" d="M 10.3125 18.5625 C 10.40625 18.5625 10.484375 18.640625 10.484375 18.734375 C 10.484375 18.828125 10.40625 18.90625 10.3125 18.90625 C 10.21875 18.90625 10.140625 18.828125 10.140625 18.734375 C 10.140625 18.640625 10.21875 18.5625 10.3125 18.5625 Z M 10.3125 18.5625 "/>
<path style=" stroke:none;fill-rule:nonzero;fill:rgb(100%,100%,100%);fill-opacity:0.6;" d="M 10.742188 17.015625 C 10.882812 17.015625 11 17.132812 11 17.273438 C 11 17.414062 10.882812 17.53125 10.742188 17.53125 C 10.601562 17.53125 10.484375 17.414062 10.484375 17.273438 C 10.484375 17.132812 10.601562 17.015625 10.742188 17.015625 Z M 10.742188 17.015625 "/>
<path style=" stroke:none;fill-rule:nonzero;fill:rgb(100%,100%,100%);fill-opacity:0.6;" d="M 9.96875 15.8125 C 10.160156 15.8125 10.3125 15.964844 10.3125 16.15625 C 10.3125 16.347656 10.160156 16.5 9.96875 16.5 C 9.777344 16.5 9.625 16.347656 9.625 16.15625 C 9.625 15.964844 9.777344 15.8125 9.96875 15.8125 Z M 9.96875 15.8125 "/>
<path style=" stroke:none;fill-rule:nonzero;fill:rgb(100%,100%,100%);fill-opacity:0.6;" d="M 11.945312 15.8125 C 12.183594 15.8125 12.375 16.003906 12.375 16.242188 C 12.375 16.480469 12.183594 16.671875 11.945312 16.671875 C 11.707031 16.671875 11.515625 16.480469 11.515625 16.242188 C 11.515625 16.003906 11.707031 15.8125 11.945312 15.8125 Z M 11.945312 15.8125 "/>
<path style=" stroke:none;fill-rule:nonzero;fill:rgb(100%,100%,100%);fill-opacity:0.6;" d="M 11.6875 18.046875 C 11.878906 18.046875 12.03125 18.199219 12.03125 18.390625 C 12.03125 18.582031 11.878906 18.734375 11.6875 18.734375 C 11.496094 18.734375 11.34375 18.582031 11.34375 18.390625 C 11.34375 18.199219 11.496094 18.046875 11.6875 18.046875 Z M 11.6875 18.046875 "/>
<path style=" stroke:none;fill-rule:nonzero;fill:rgb(100%,100%,100%);fill-opacity:0.6;" d="M 10.570312 14.953125 C 10.710938 14.953125 10.828125 15.070312 10.828125 15.210938 C 10.828125 15.351562 10.710938 15.46875 10.570312 15.46875 C 10.429688 15.46875 10.3125 15.351562 10.3125 15.210938 C 10.3125 15.070312 10.429688 14.953125 10.570312 14.953125 Z M 10.570312 14.953125 "/>
<path style=" stroke:none;fill-rule:nonzero;fill:rgb(100%,100%,100%);fill-opacity:0.6;" d="M 8.765625 16.15625 C 8.957031 16.15625 9.109375 16.308594 9.109375 16.5 C 9.109375 16.691406 8.957031 16.84375 8.765625 16.84375 C 8.574219 16.84375 8.421875 16.691406 8.421875 16.5 C 8.421875 16.308594 8.574219 16.15625 8.765625 16.15625 Z M 8.765625 16.15625 "/>
<path style=" stroke:none;fill-rule:nonzero;fill:rgb(100%,100%,100%);fill-opacity:0.6;" d="M 13.234375 15.296875 C 13.425781 15.296875 13.578125 15.449219 13.578125 15.640625 C 13.578125 15.832031 13.425781 15.984375 13.234375 15.984375 C 13.042969 15.984375 12.890625 15.832031 12.890625 15.640625 C 12.890625 15.449219 13.042969 15.296875 13.234375 15.296875 Z M 13.234375 15.296875 "/>
<path style=" stroke:none;fill-rule:nonzero;fill:rgb(70.19608%,89.803922%,98.823529%);fill-opacity:0.6;" d="M 8.9375 1.375 L 13.0625 1.375 C 13.820312 1.375 14.4375 1.835938 14.4375 2.40625 C 14.4375 2.976562 13.820312 3.4375 13.0625 3.4375 L 8.9375 3.4375 C 8.179688 3.4375 7.5625 2.976562 7.5625 2.40625 C 7.5625 1.835938 8.179688 1.375 8.9375 1.375 Z M 8.9375 1.375 "/>
<path style=" stroke:none;fill-rule:nonzero;fill:rgb(70.19608%,89.803922%,98.823529%);fill-opacity:0.4;" d="M 8.9375 1.71875 L 13.0625 1.71875 C 13.539062 1.71875 13.921875 2.027344 13.921875 2.40625 C 13.921875 2.785156 13.539062 3.09375 13.0625 3.09375 L 8.9375 3.09375 C 8.460938 3.09375 8.078125 2.785156 8.078125 2.40625 C 8.078125 2.027344 8.460938 1.71875 8.9375 1.71875 Z M 8.9375 1.71875 "/>
<path style=" stroke:none;fill-rule:nonzero;fill:rgb(0%,0%,0%);fill-opacity:0.4;" d="M 8.9375 3.09375 L 13.0625 3.09375 L 13.0625 3.4375 L 8.9375 3.4375 Z M 8.9375 3.09375 "/>
<path style=" stroke:none;fill-rule:nonzero;fill:rgb(0%,0%,0%);fill-opacity:0.2;" d="M 7.609375 2.671875 C 7.578125 2.757812 7.5625 2.847656 7.5625 2.9375 C 7.5625 3.507812 8.175781 3.96875 8.9375 3.96875 L 8.9375 3.4375 C 8.296875 3.4375 7.761719 3.113281 7.609375 2.671875 Z M 14.390625 2.671875 C 14.238281 3.113281 13.703125 3.4375 13.0625 3.4375 L 13.0625 3.96875 C 13.824219 3.96875 14.4375 3.507812 14.4375 2.9375 C 14.4375 2.847656 14.421875 2.757812 14.390625 2.671875 Z M 3.460938 18.105469 C 3.445312 18.207031 3.4375 18.308594 3.4375 18.40625 C 3.4375 22.015625 18.5625 22.015625 18.5625 18.40625 C 18.5625 18.308594 18.554688 18.207031 18.539062 18.105469 C 17.925781 21.40625 4.074219 21.40625 3.457031 18.105469 Z M 3.460938 18.105469 "/>
<path style=" stroke:none;fill-rule:nonzero;fill:rgb(0%,0%,0%);fill-opacity:0.4;" d="M 7.582031 2.234375 C 7.570312 2.292969 7.5625 2.347656 7.5625 2.40625 C 7.5625 2.976562 8.175781 3.4375 8.9375 3.4375 L 8.9375 3.089844 C 8.253906 3.089844 7.691406 2.722656 7.582031 2.234375 Z M 14.417969 2.234375 C 14.308594 2.722656 13.746094 3.089844 13.0625 3.089844 L 13.0625 3.4375 C 13.824219 3.4375 14.4375 2.976562 14.4375 2.40625 C 14.4375 2.347656 14.429688 2.292969 14.417969 2.234375 Z M 3.449219 17.695312 C 3.441406 17.753906 3.4375 17.816406 3.4375 17.875 C 3.4375 21.484375 18.5625 21.484375 18.5625 17.875 C 18.5625 17.816406 18.558594 17.757812 18.550781 17.695312 C 18.097656 21.082031 3.898438 21.082031 3.449219 17.695312 Z M 3.449219 17.695312 "/>
<path style=" stroke:none;fill-rule:nonzero;fill:rgb(100%,100%,100%);fill-opacity:0.4;" d="M 8.9375 1.375 C 8.175781 1.375 7.5625 1.835938 7.5625 2.40625 C 7.5625 2.464844 7.570312 2.523438 7.582031 2.578125 C 7.691406 2.089844 8.253906 1.71875 8.9375 1.71875 L 13.0625 1.71875 C 13.746094 1.71875 14.308594 2.089844 14.417969 2.578125 C 14.429688 2.523438 14.4375 2.464844 14.4375 2.40625 C 14.4375 1.835938 13.824219 1.375 13.0625 1.375 Z M 8.9375 1.375 "/>
<path style=" stroke:none;fill-rule:nonzero;fill:rgb(100%,100%,100%);fill-opacity:0.6;" d="M 8.601562 12.898438 L 8.644531 12.941406 C 8.902344 13.199219 8.566406 13.949219 7.894531 14.621094 C 7.222656 15.292969 6.46875 15.628906 6.214844 15.371094 L 6.171875 15.328125 C 5.914062 15.074219 6.25 14.320312 6.921875 13.648438 C 7.59375 12.976562 8.34375 12.640625 8.601562 12.898438 Z M 8.601562 12.898438 "/>
<path style=" stroke:none;fill-rule:nonzero;fill:rgb(100%,100%,100%);fill-opacity:0.8;" d="M 7.785156 13.285156 L 7.804688 13.304688 C 7.929688 13.429688 7.769531 13.792969 7.445312 14.113281 C 7.125 14.4375 6.761719 14.597656 6.636719 14.472656 L 6.617188 14.453125 C 6.496094 14.332031 6.65625 13.96875 6.976562 13.648438 C 7.300781 13.324219 7.664062 13.164062 7.785156 13.285156 Z M 7.785156 13.285156 "/>
<path style=" stroke:none;fill-rule:nonzero;fill:rgb(100%,100%,100%);fill-opacity:0.8;" d="M 10.054688 4.296875 C 10.195312 4.296875 10.3125 5.21875 10.3125 6.359375 C 10.3125 7.5 10.195312 8.421875 10.054688 8.421875 C 9.914062 8.421875 9.796875 7.5 9.796875 6.359375 C 9.796875 5.21875 9.914062 4.296875 10.054688 4.296875 Z M 10.054688 4.296875 "/>
<path style=" stroke:none;fill-rule:nonzero;fill:rgb(88.235295%,96.078432%,99.607843%);fill-opacity:0.996078;" d="M 9.28125 1.375 L 12.890625 1.375 C 13.367188 1.375 13.75 1.566406 13.75 1.804688 C 13.75 2.042969 13.367188 2.234375 12.890625 2.234375 L 9.28125 2.234375 C 8.804688 2.234375 8.421875 2.042969 8.421875 1.804688 C 8.421875 1.566406 8.804688 1.375 9.28125 1.375 Z M 9.28125 1.375 "/>
<path style=" stroke:none;fill-rule:nonzero;fill:url(#linear0);" d="M 8.9375 1.375 C 8.175781 1.375 7.5625 1.835938 7.5625 2.40625 C 7.5625 2.976562 8.175781 3.4375 8.9375 3.4375 L 8.9375 7.5625 C 8.9375 11.6875 3.4375 15.125 3.4375 17.875 C 3.4375 21.484375 18.5625 21.484375 18.5625 17.875 C 18.5625 15.125 13.0625 11.6875 13.0625 7.5625 L 13.0625 3.4375 C 13.824219 3.4375 14.4375 2.976562 14.4375 2.40625 C 14.4375 1.835938 13.824219 1.375 13.0625 1.375 Z M 8.9375 1.375 "/>
<path style=" stroke:none;fill-rule:nonzero;fill:rgb(61.176473%,80.000001%,39.607844%);fill-opacity:1;" d="M 9.578125 4.371094 C 8.875 5.550781 10.929688 7.863281 6.875 7.5625 C 6.398438 5.675781 7.101562 4.496094 9.578125 4.371094 Z M 9.578125 4.371094 "/>
<path style=" stroke:none;fill-rule:nonzero;fill:rgb(0%,0%,0%);fill-opacity:0.4;" d="M 3.699219 2.828125 C 3.773438 2.980469 3.808594 3.144531 3.816406 3.320312 C 3.824219 3.152344 3.8125 2.988281 3.769531 2.839844 C 3.746094 2.835938 3.722656 2.832031 3.699219 2.828125 Z M 9.578125 4.371094 C 9.546875 4.371094 9.523438 4.375 9.492188 4.378906 C 9.425781 4.566406 9.410156 4.773438 9.414062 4.992188 C 9.425781 4.769531 9.46875 4.554688 9.578125 4.371094 Z M 3.652344 4.808594 C 3.625 5.582031 3.988281 6.207031 6.1875 6.1875 C 6.335938 5.726562 6.410156 5.308594 6.398438 4.929688 C 6.386719 5.261719 6.3125 5.625 6.1875 6.015625 C 4.15625 6.035156 3.6875 5.5 3.652344 4.808594 Z M 9.492188 6.210938 C 9.460938 6.96875 9.039062 7.550781 6.875 7.390625 C 6.792969 7.058594 6.746094 6.75 6.738281 6.464844 C 6.726562 6.796875 6.773438 7.164062 6.875 7.5625 C 9.199219 7.734375 9.515625 7.046875 9.492188 6.210938 Z M 3.621094 10.027344 C 3.570312 10.0625 3.523438 10.089844 3.472656 10.125 C 4.753906 10.632812 4.535156 13.714844 7.5625 11 C 7.542969 10.957031 7.523438 10.917969 7.507812 10.878906 C 4.660156 13.398438 4.734375 10.695312 3.621094 10.027344 Z M 3.621094 10.027344 "/>
<path style=" stroke:none;fill-rule:nonzero;fill:rgb(55.29412%,43.137255%,38.82353%);fill-opacity:1;" d="M 6.171875 5.847656 C 6.097656 5.847656 6.03125 5.875 5.972656 5.921875 C 5.824219 6.039062 5.800781 6.253906 5.921875 6.402344 C 7.230469 8.042969 7.191406 9.4375 7.160156 10.710938 C 7.148438 11.132812 7.132812 11.542969 7.179688 11.941406 C 7.410156 11.613281 7.636719 11.28125 7.839844 10.945312 C 7.839844 10.871094 7.84375 10.800781 7.84375 10.726562 C 7.875 9.449219 7.894531 7.773438 6.457031 5.972656 C 6.386719 5.886719 6.28125 5.839844 6.171875 5.847656 Z M 7.839844 11.484375 C 7.839844 11.503906 7.839844 11.527344 7.839844 11.546875 C 7.839844 11.527344 7.839844 11.503906 7.839844 11.484375 Z M 7.847656 11.671875 C 7.847656 11.691406 7.851562 11.714844 7.851562 11.734375 C 7.851562 11.714844 7.847656 11.691406 7.847656 11.671875 Z M 14.570312 11.789062 C 14.621094 11.789062 14.667969 11.792969 14.71875 11.796875 C 14.667969 11.792969 14.621094 11.789062 14.570312 11.789062 Z M 14.550781 11.789062 C 14.507812 11.789062 14.46875 11.792969 14.425781 11.792969 C 14.46875 11.792969 14.507812 11.789062 14.550781 11.789062 Z M 14.394531 11.796875 C 14.355469 11.796875 14.316406 11.800781 14.277344 11.808594 C 14.316406 11.800781 14.355469 11.796875 14.394531 11.796875 Z M 14.722656 11.796875 C 14.964844 12.140625 15.214844 12.472656 15.472656 12.804688 C 15.523438 12.839844 15.574219 12.882812 15.625 12.925781 C 16.03125 13.285156 16.128906 13.738281 16.039062 14.359375 C 15.945312 14.980469 15.632812 15.726562 15.253906 16.464844 C 14.871094 17.207031 14.421875 17.941406 14.0625 18.59375 C 13.703125 19.242188 13.40625 19.765625 13.40625 20.28125 C 13.40625 20.472656 13.5625 20.625 13.75 20.625 C 13.941406 20.625 14.09375 20.472656 14.09375 20.28125 C 14.09375 20.109375 14.316406 19.558594 14.664062 18.925781 C 15.015625 18.296875 15.46875 17.550781 15.863281 16.78125 C 16.261719 16.011719 16.605469 15.21875 16.71875 14.460938 C 16.828125 13.703125 16.679688 12.9375 16.074219 12.410156 C 15.636719 12.023438 15.171875 11.835938 14.722656 11.796875 Z M 14.242188 11.8125 C 14.195312 11.816406 14.152344 11.824219 14.105469 11.835938 C 14.148438 11.824219 14.195312 11.816406 14.242188 11.8125 Z M 13.871094 11.894531 C 13.792969 11.917969 13.71875 11.941406 13.644531 11.972656 C 13.71875 11.941406 13.792969 11.917969 13.871094 11.894531 Z M 7.179688 11.945312 C 7.183594 11.992188 7.191406 12.035156 7.195312 12.082031 C 7.191406 12.035156 7.183594 11.992188 7.179688 11.945312 Z M 13.640625 11.972656 C 13.566406 12 13.492188 12.03125 13.421875 12.0625 C 13.492188 12.03125 13.566406 12 13.640625 11.972656 Z M 13.417969 12.0625 C 13.347656 12.097656 13.273438 12.128906 13.203125 12.167969 C 13.273438 12.128906 13.347656 12.097656 13.417969 12.0625 Z M 7.199219 12.09375 C 7.207031 12.140625 7.214844 12.191406 7.222656 12.238281 C 7.214844 12.191406 7.207031 12.140625 7.199219 12.09375 Z M 7.914062 12.167969 C 7.914062 12.179688 7.917969 12.191406 7.921875 12.199219 C 7.917969 12.191406 7.914062 12.179688 7.914062 12.167969 Z M 7.226562 12.242188 C 7.234375 12.28125 7.242188 12.320312 7.253906 12.359375 C 7.242188 12.320312 7.234375 12.28125 7.226562 12.242188 Z M 7.261719 12.402344 C 7.273438 12.445312 7.285156 12.488281 7.300781 12.53125 C 7.285156 12.488281 7.273438 12.445312 7.261719 12.402344 Z M 7.300781 12.53125 C 7.324219 12.605469 7.351562 12.675781 7.378906 12.746094 C 7.351562 12.675781 7.324219 12.605469 7.300781 12.53125 Z M 12.773438 12.40625 C 12.632812 12.488281 12.492188 12.574219 12.351562 12.664062 C 12.492188 12.574219 12.632812 12.488281 12.773438 12.40625 Z M 14.546875 12.46875 C 14.539062 12.46875 14.535156 12.472656 14.527344 12.472656 C 14.535156 12.46875 14.546875 12.46875 14.554688 12.46875 C 14.550781 12.46875 14.546875 12.46875 14.546875 12.46875 Z M 14.6875 12.472656 C 14.699219 12.476562 14.710938 12.476562 14.726562 12.476562 C 14.710938 12.476562 14.699219 12.476562 14.6875 12.472656 Z M 14.753906 12.480469 C 14.765625 12.480469 14.777344 12.484375 14.792969 12.488281 C 14.777344 12.484375 14.765625 12.480469 14.753906 12.480469 Z M 13.730469 12.679688 C 13.660156 12.710938 13.585938 12.746094 13.511719 12.78125 C 13.585938 12.746094 13.660156 12.710938 13.730469 12.679688 Z M 13.511719 12.78125 C 13.386719 12.847656 13.253906 12.921875 13.121094 13 C 13.253906 12.921875 13.386719 12.847656 13.511719 12.78125 Z M 11.851562 13.765625 C 11.773438 13.804688 11.699219 13.84375 11.621094 13.882812 C 11.699219 13.84375 11.773438 13.804688 11.851562 13.765625 Z M 11.621094 13.882812 C 11.542969 13.921875 11.464844 13.960938 11.386719 13.996094 C 11.464844 13.960938 11.542969 13.921875 11.621094 13.882812 Z M 11.386719 13.996094 C 11.3125 14.027344 11.238281 14.058594 11.160156 14.085938 C 11.238281 14.058594 11.3125 14.027344 11.386719 13.996094 Z M 11.128906 14.097656 C 11.050781 14.128906 10.972656 14.15625 10.894531 14.179688 C 10.972656 14.15625 11.050781 14.128906 11.128906 14.097656 Z M 11.128906 14.097656 "/>
<path style=" stroke:none;fill-rule:nonzero;fill:rgb(100%,100%,100%);fill-opacity:0.4;" d="M 6.171875 5.847656 C 6.097656 5.847656 6.03125 5.875 5.972656 5.921875 C 5.875 6.003906 5.835938 6.136719 5.867188 6.265625 C 5.886719 6.203125 5.921875 6.148438 5.972656 6.105469 C 6.03125 6.058594 6.097656 6.035156 6.171875 6.03125 C 6.28125 6.023438 6.386719 6.074219 6.457031 6.15625 C 7.628906 7.625 7.832031 9.007812 7.851562 10.164062 C 7.851562 8.972656 7.691406 7.519531 6.457031 5.972656 C 6.386719 5.886719 6.28125 5.839844 6.171875 5.847656 Z M 7.167969 10.191406 C 7.167969 10.367188 7.164062 10.539062 7.160156 10.710938 C 7.152344 10.929688 7.148438 11.144531 7.148438 11.355469 C 7.148438 11.203125 7.15625 11.050781 7.160156 10.894531 C 7.160156 10.746094 7.164062 10.597656 7.167969 10.445312 C 7.167969 10.363281 7.167969 10.277344 7.167969 10.191406 Z M 7.835938 11.417969 C 7.839844 11.480469 7.839844 11.539062 7.84375 11.597656 C 7.839844 11.539062 7.839844 11.480469 7.835938 11.417969 Z M 7.847656 11.664062 C 7.851562 11.734375 7.855469 11.800781 7.863281 11.867188 C 7.855469 11.800781 7.851562 11.734375 7.847656 11.664062 Z M 14.585938 11.789062 C 14.582031 11.789062 14.578125 11.789062 14.574219 11.789062 C 14.589844 11.792969 14.605469 11.792969 14.621094 11.792969 C 14.609375 11.792969 14.597656 11.789062 14.585938 11.789062 Z M 14.359375 11.800781 C 14.347656 11.800781 14.335938 11.800781 14.324219 11.800781 C 14.335938 11.800781 14.347656 11.800781 14.359375 11.800781 Z M 14.726562 11.800781 C 14.773438 11.867188 14.820312 11.9375 14.871094 12.003906 C 15.273438 12.066406 15.683594 12.25 16.074219 12.59375 C 16.53125 12.992188 16.726562 13.527344 16.75 14.089844 C 16.765625 13.460938 16.582031 12.851562 16.074219 12.410156 C 15.636719 12.023438 15.175781 11.839844 14.726562 11.800781 Z M 7.871094 11.929688 C 7.878906 11.980469 7.886719 12.035156 7.898438 12.082031 C 7.886719 12.035156 7.878906 11.980469 7.871094 11.929688 Z M 7.90625 12.132812 C 7.921875 12.199219 7.9375 12.261719 7.957031 12.324219 C 7.9375 12.261719 7.921875 12.199219 7.90625 12.132812 Z M 8.082031 12.625 C 8.105469 12.671875 8.136719 12.71875 8.167969 12.761719 C 8.136719 12.71875 8.105469 12.671875 8.082031 12.625 Z M 8.167969 12.761719 C 8.199219 12.808594 8.234375 12.851562 8.273438 12.898438 C 8.234375 12.851562 8.199219 12.808594 8.167969 12.761719 Z M 8.273438 12.898438 C 8.3125 12.941406 8.355469 12.984375 8.402344 13.023438 C 8.355469 12.984375 8.3125 12.941406 8.273438 12.898438 Z M 8.402344 13.023438 C 8.449219 13.066406 8.5 13.109375 8.558594 13.148438 C 8.5 13.109375 8.449219 13.066406 8.402344 13.023438 Z M 8.558594 13.148438 C 8.613281 13.1875 8.675781 13.230469 8.742188 13.269531 C 8.675781 13.230469 8.613281 13.1875 8.558594 13.148438 Z M 8.742188 13.269531 C 8.808594 13.308594 8.878906 13.347656 8.957031 13.386719 C 8.878906 13.347656 8.808594 13.308594 8.742188 13.269531 Z M 8.957031 13.386719 C 9.039062 13.425781 9.117188 13.460938 9.195312 13.488281 C 9.117188 13.460938 9.039062 13.425781 8.957031 13.386719 Z M 9.195312 13.488281 C 9.273438 13.519531 9.347656 13.542969 9.421875 13.566406 C 9.347656 13.542969 9.273438 13.519531 9.195312 13.488281 Z M 9.421875 13.566406 C 9.496094 13.585938 9.570312 13.601562 9.644531 13.613281 C 9.570312 13.601562 9.496094 13.585938 9.421875 13.566406 Z M 9.644531 13.613281 C 9.714844 13.625 9.789062 13.632812 9.859375 13.636719 C 9.789062 13.632812 9.714844 13.625 9.644531 13.613281 Z M 9.859375 13.636719 C 9.929688 13.640625 10 13.640625 10.070312 13.636719 C 10 13.640625 9.929688 13.640625 9.859375 13.636719 Z M 10.070312 13.636719 C 10.140625 13.632812 10.210938 13.628906 10.28125 13.617188 C 10.210938 13.628906 10.140625 13.632812 10.070312 13.636719 Z M 11.9375 12.917969 C 11.796875 13.003906 11.660156 13.082031 11.519531 13.160156 C 11.660156 13.082031 11.796875 13.003906 11.9375 12.917969 Z M 16.066406 14.082031 C 16.058594 14.171875 16.050781 14.261719 16.039062 14.359375 C 15.945312 14.980469 15.632812 15.726562 15.253906 16.464844 C 14.871094 17.207031 14.421875 17.941406 14.0625 18.59375 C 13.703125 19.242188 13.40625 19.765625 13.40625 20.28125 C 13.40625 20.296875 13.410156 20.3125 13.414062 20.328125 C 13.460938 19.859375 13.734375 19.371094 14.0625 18.777344 C 14.421875 18.128906 14.871094 17.390625 15.253906 16.648438 C 15.632812 15.910156 15.945312 15.164062 16.039062 14.542969 C 16.050781 14.445312 16.058594 14.355469 16.066406 14.265625 C 16.066406 14.203125 16.070312 14.140625 16.066406 14.082031 Z M 16.066406 14.082031 "/>
<path style=" stroke:none;fill-rule:nonzero;fill:rgb(0%,0%,0%);fill-opacity:0.4;" d="M 5.855469 6.101562 C 5.828125 6.207031 5.851562 6.316406 5.921875 6.402344 C 6.980469 7.726562 7.15625 8.894531 7.167969 9.964844 C 7.171875 8.851562 7.03125 7.636719 5.921875 6.246094 C 5.886719 6.203125 5.867188 6.152344 5.855469 6.101562 Z M 7.851562 10.125 C 7.851562 10.277344 7.847656 10.425781 7.84375 10.570312 C 7.839844 10.703125 7.839844 10.820312 7.839844 10.945312 C 7.839844 10.976562 7.839844 11.003906 7.839844 11.035156 C 7.839844 10.933594 7.839844 10.832031 7.84375 10.726562 C 7.847656 10.535156 7.851562 10.332031 7.851562 10.125 Z M 7.148438 11.273438 C 7.148438 11.5 7.15625 11.71875 7.179688 11.9375 C 7.183594 11.929688 7.191406 11.921875 7.195312 11.914062 C 7.164062 11.703125 7.152344 11.492188 7.148438 11.273438 Z M 14.546875 12.46875 C 14.515625 12.46875 14.484375 12.472656 14.453125 12.476562 C 14.488281 12.472656 14.527344 12.472656 14.5625 12.46875 C 14.554688 12.46875 14.550781 12.46875 14.546875 12.46875 Z M 14.628906 12.472656 C 14.664062 12.472656 14.695312 12.472656 14.726562 12.476562 C 14.695312 12.472656 14.664062 12.472656 14.628906 12.472656 Z M 14.402344 12.480469 C 14.347656 12.488281 14.296875 12.496094 14.242188 12.507812 C 14.296875 12.496094 14.347656 12.488281 14.402344 12.480469 Z M 14.757812 12.480469 C 14.804688 12.488281 14.851562 12.496094 14.898438 12.507812 C 14.851562 12.496094 14.804688 12.488281 14.757812 12.480469 Z M 15.234375 12.492188 C 15.3125 12.59375 15.390625 12.699219 15.472656 12.804688 C 15.464844 12.796875 15.457031 12.792969 15.449219 12.785156 C 15.507812 12.828125 15.5625 12.875 15.625 12.925781 C 15.921875 13.1875 16.054688 13.5 16.066406 13.890625 C 16.085938 13.425781 15.960938 13.0625 15.625 12.769531 C 15.488281 12.652344 15.359375 12.558594 15.234375 12.492188 Z M 14.914062 12.511719 C 14.964844 12.527344 15.015625 12.546875 15.070312 12.566406 C 15.015625 12.542969 14.964844 12.527344 14.914062 12.511719 Z M 15.097656 12.578125 C 15.144531 12.597656 15.191406 12.621094 15.238281 12.648438 C 15.191406 12.621094 15.144531 12.597656 15.097656 12.578125 Z M 15.277344 12.671875 C 15.324219 12.699219 15.371094 12.730469 15.417969 12.765625 C 15.371094 12.730469 15.324219 12.699219 15.277344 12.671875 Z M 13.511719 12.78125 C 13.386719 12.847656 13.253906 12.921875 13.121094 13 C 13.253906 12.921875 13.386719 12.847656 13.511719 12.78125 Z M 16.75 13.925781 C 16.746094 14.054688 16.734375 14.179688 16.71875 14.304688 C 16.605469 15.0625 16.261719 15.855469 15.863281 16.625 C 15.46875 17.394531 15.015625 18.140625 14.664062 18.769531 C 14.316406 19.402344 14.09375 19.953125 14.09375 20.125 C 14.09375 20.316406 13.941406 20.46875 13.75 20.46875 C 13.574219 20.46875 13.429688 20.335938 13.410156 20.164062 C 13.40625 20.203125 13.40625 20.242188 13.40625 20.28125 C 13.40625 20.472656 13.5625 20.625 13.75 20.625 C 13.941406 20.625 14.09375 20.472656 14.09375 20.28125 C 14.09375 20.109375 14.316406 19.558594 14.664062 18.925781 C 15.015625 18.296875 15.46875 17.550781 15.863281 16.78125 C 16.261719 16.011719 16.605469 15.21875 16.71875 14.460938 C 16.742188 14.28125 16.753906 14.105469 16.75 13.925781 Z M 16.75 13.925781 "/>
<path style=" stroke:none;fill-rule:nonzero;fill:url(#linear1);" d="M 3.699219 2.828125 C 4.304688 4.019531 2.238281 6.105469 5.867188 6.183594 C 5.863281 6.210938 5.863281 6.238281 5.867188 6.265625 C 5.878906 6.234375 5.898438 6.210938 5.917969 6.1875 C 6.003906 6.1875 6.09375 6.1875 6.1875 6.1875 C 6.203125 6.136719 6.21875 6.089844 6.230469 6.042969 C 6.316406 6.050781 6.398438 6.09375 6.457031 6.15625 C 6.554688 6.285156 6.648438 6.410156 6.734375 6.535156 C 6.734375 6.847656 6.78125 7.191406 6.875 7.5625 C 7.035156 7.574219 7.1875 7.582031 7.332031 7.585938 C 7.742188 8.519531 7.835938 9.390625 7.851562 10.164062 C 7.851562 9.398438 7.785156 8.523438 7.410156 7.589844 C 10.742188 7.648438 8.90625 5.496094 9.578125 4.371094 C 7.679688 4.464844 6.824219 5.183594 6.742188 6.359375 C 6.652344 6.230469 6.558594 6.101562 6.457031 5.972656 C 6.410156 5.921875 6.347656 5.882812 6.28125 5.867188 C 6.707031 4.195312 6.015625 3.097656 3.699219 2.828125 Z M 5.527344 9.308594 C 4.949219 9.316406 4.269531 9.574219 3.472656 10.125 C 4.753906 10.632812 4.535156 13.714844 7.5625 11 C 7.441406 10.726562 7.3125 10.480469 7.167969 10.269531 C 7.167969 10.242188 7.167969 10.21875 7.167969 10.191406 C 7.167969 10.21875 7.167969 10.242188 7.167969 10.265625 C 6.742188 9.644531 6.203125 9.304688 5.527344 9.308594 Z M 7.835938 11.417969 C 7.839844 11.480469 7.839844 11.539062 7.84375 11.597656 C 7.839844 11.539062 7.839844 11.480469 7.835938 11.417969 Z M 7.847656 11.664062 C 7.851562 11.734375 7.855469 11.800781 7.863281 11.867188 C 7.855469 11.800781 7.851562 11.734375 7.847656 11.664062 Z M 7.871094 11.929688 C 7.878906 11.980469 7.886719 12.035156 7.898438 12.082031 C 7.886719 12.035156 7.878906 11.980469 7.871094 11.929688 Z M 7.90625 12.132812 C 7.921875 12.199219 7.9375 12.261719 7.957031 12.324219 C 7.9375 12.261719 7.921875 12.199219 7.90625 12.132812 Z M 11.9375 12.917969 C 11.796875 13.003906 11.660156 13.082031 11.519531 13.160156 C 11.660156 13.082031 11.796875 13.003906 11.9375 12.917969 Z M 16.066406 14.082031 C 16.058594 14.171875 16.050781 14.261719 16.039062 14.359375 C 15.945312 14.980469 15.632812 15.726562 15.253906 16.464844 C 14.871094 17.207031 14.421875 17.941406 14.0625 18.59375 C 13.703125 19.242188 13.40625 19.765625 13.40625 20.28125 C 13.40625 20.296875 13.410156 20.3125 13.414062 20.328125 C 13.460938 19.859375 13.734375 19.371094 14.0625 18.777344 C 14.421875 18.128906 14.871094 17.390625 15.253906 16.648438 C 15.632812 15.910156 15.945312 15.164062 16.039062 14.542969 C 16.050781 14.445312 16.058594 14.355469 16.066406 14.265625 C 16.066406 14.203125 16.070312 14.140625 16.066406 14.082031 Z M 16.066406 14.082031 "/>
</g>
</svg>
