
<svg xmlns="http://www.w3.org/2000/svg" xmlns:xlink="http://www.w3.org/1999/xlink" width="22" height="22" viewBox="0 0 22 22" version="1.1">
<defs>
<linearGradient id="linear0" gradientUnits="userSpaceOnUse" x1="10.054166" y1="-199.125" x2="10.054166" y2="-213.941666" gradientTransform="matrix(1.299213,0,0,1.299213,-0.000434698,279.330723)">
<stop offset="0" style="stop-color:rgb(0%,0%,0%);stop-opacity:0.2;"/>
<stop offset="1" style="stop-color:rgb(100%,100%,100%);stop-opacity:0;"/>
</linearGradient>
</defs>
<g id="surface1">
<path style=" stroke:none;fill-rule:nonzero;fill:rgb(87.843138%,87.843138%,87.843138%);fill-opacity:1;" d="M 2.75 1.375 L 19.25 1.375 C 20.011719 1.375 20.625 1.992188 20.625 2.75 L 20.625 19.25 C 20.625 20.007812 20.011719 20.625 19.25 20.625 L 2.75 20.625 C 1.992188 20.625 1.375 20.007812 1.375 19.25 L 1.375 2.75 C 1.375 1.992188 1.992188 1.375 2.75 1.375 Z M 2.75 1.375 "/>
<path style=" stroke:none;fill-rule:nonzero;fill:rgb(0%,0%,0%);fill-opacity:0.4;" d="M 1.375 18.90625 L 1.375 19.25 C 1.375 20.011719 1.988281 20.625 2.75 20.625 L 19.25 20.625 C 20.011719 20.625 20.625 20.011719 20.625 19.25 L 20.625 18.90625 C 20.625 19.667969 20.011719 20.28125 19.25 20.28125 L 2.75 20.28125 C 1.988281 20.28125 1.375 19.667969 1.375 18.90625 Z M 1.375 18.90625 "/>
<path style=" stroke:none;fill-rule:nonzero;fill:rgb(0%,0%,0%);fill-opacity:0.2;" d="M 1.375 19.25 L 1.375 19.765625 C 1.375 20.527344 1.988281 21.140625 2.75 21.140625 L 19.25 21.140625 C 20.011719 21.140625 20.625 20.527344 20.625 19.765625 L 20.625 19.25 C 20.625 20.011719 20.011719 20.625 19.25 20.625 L 2.75 20.625 C 1.988281 20.625 1.375 20.011719 1.375 19.25 Z M 1.375 19.25 "/>
<path style=" stroke:none;fill-rule:nonzero;fill:rgb(100%,100%,100%);fill-opacity:0.6;" d="M 2.75 1.375 C 1.988281 1.375 1.375 1.988281 1.375 2.75 L 1.375 3.089844 C 1.375 2.328125 1.988281 1.714844 2.75 1.714844 L 19.25 1.714844 C 20.011719 1.714844 20.625 2.328125 20.625 3.089844 L 20.625 2.75 C 20.625 1.988281 20.011719 1.375 19.25 1.375 Z M 2.75 1.375 "/>
<path style=" stroke:none;fill-rule:nonzero;fill:rgb(40.000001%,73.333335%,41.568628%);fill-opacity:1;" d="M 3.4375 2.75 L 18.5625 2.75 C 18.941406 2.75 19.25 3.058594 19.25 3.4375 L 19.25 18.5625 C 19.25 18.941406 18.941406 19.25 18.5625 19.25 L 3.4375 19.25 C 3.058594 19.25 2.75 18.941406 2.75 18.5625 L 2.75 3.4375 C 2.75 3.058594 3.058594 2.75 3.4375 2.75 Z M 3.4375 2.75 "/>
<path style=" stroke:none;fill-rule:nonzero;fill:rgb(87.843138%,87.843138%,87.843138%);fill-opacity:0.996078;" d="M 13.0625 4.8125 C 12.398438 4.8125 11.855469 5.351562 11.855469 6.019531 C 11.855469 6.683594 12.398438 7.222656 13.0625 7.222656 C 13.730469 7.222656 14.269531 6.683594 14.269531 6.019531 C 14.269531 5.351562 13.730469 4.8125 13.0625 4.8125 Z M 11.394531 7.34375 C 11.339844 7.339844 11.285156 7.347656 11.234375 7.359375 L 8.847656 7.972656 C 8.574219 8.042969 8.382812 8.289062 8.382812 8.570312 L 8.382812 11.328125 C 8.371094 12.160156 9.492188 12.160156 9.480469 11.328125 L 9.480469 9.070312 L 11.09375 8.609375 L 10.855469 9.476562 C 10.703125 9.929688 10.558594 10.378906 10.449219 10.824219 C 10.332031 11.222656 10.300781 11.570312 10.335938 11.855469 L 8.65625 13.773438 L 6.214844 13.480469 C 5.402344 13.390625 5.265625 14.609375 6.082031 14.699219 L 8.839844 15.027344 C 9.039062 15.050781 9.238281 14.972656 9.371094 14.824219 L 11.105469 12.839844 C 11.132812 12.847656 11.160156 12.859375 11.1875 12.863281 C 11.214844 12.894531 11.246094 12.921875 11.277344 12.945312 L 13.039062 14.207031 L 14.195312 16.816406 C 14.53125 17.5625 15.652344 17.0625 15.320312 16.316406 L 14.09375 13.554688 C 14.046875 13.457031 13.976562 13.371094 13.890625 13.308594 L 12.484375 12.300781 C 12.773438 11.808594 12.894531 11.097656 13.0625 10.503906 L 13.457031 11.363281 C 13.632812 11.753906 14.144531 11.847656 14.445312 11.542969 L 16.289062 9.703125 C 16.890625 9.125 15.996094 8.234375 15.417969 8.835938 L 14.207031 10.050781 L 13.535156 8.722656 C 13.550781 8.515625 13.515625 8.339844 13.460938 8.203125 C 13.273438 7.75 13.011719 7.703125 12.582031 7.605469 L 11.5625 7.367188 C 11.5625 7.367188 11.5625 7.367188 11.5625 7.371094 C 11.507812 7.351562 11.449219 7.34375 11.394531 7.34375 Z M 11.394531 7.34375 "/>
<path style=" stroke:none;fill-rule:nonzero;fill:rgb(100%,100%,100%);fill-opacity:0.8;" d="M 13.0625 4.8125 C 12.398438 4.8125 11.855469 5.351562 11.855469 6.019531 C 11.855469 6.078125 11.863281 6.132812 11.871094 6.191406 C 11.953125 5.605469 12.457031 5.15625 13.0625 5.15625 C 13.671875 5.15625 14.171875 5.605469 14.257812 6.191406 C 14.265625 6.132812 14.269531 6.078125 14.269531 6.019531 C 14.269531 5.351562 13.730469 4.8125 13.0625 4.8125 Z M 11.394531 7.34375 C 11.339844 7.339844 11.285156 7.347656 11.234375 7.359375 L 8.847656 7.972656 C 8.574219 8.042969 8.382812 8.289062 8.382812 8.570312 L 8.382812 8.914062 C 8.382812 8.632812 8.574219 8.386719 8.847656 8.316406 L 11.234375 7.703125 C 11.285156 7.691406 11.339844 7.683594 11.394531 7.6875 C 11.449219 7.6875 11.507812 7.695312 11.5625 7.714844 C 11.5625 7.710938 11.5625 7.710938 11.5625 7.710938 L 12.582031 7.949219 C 13.011719 8.046875 13.273438 8.09375 13.460938 8.546875 C 13.515625 8.683594 13.550781 8.859375 13.535156 9.066406 L 14.207031 10.394531 L 15.417969 9.179688 C 15.804688 8.777344 16.335938 9.042969 16.460938 9.4375 C 16.636719 8.898438 15.914062 8.320312 15.417969 8.835938 L 14.207031 10.050781 L 13.535156 8.722656 C 13.550781 8.515625 13.515625 8.339844 13.460938 8.203125 C 13.273438 7.75 13.011719 7.703125 12.582031 7.605469 L 11.5625 7.367188 C 11.5625 7.367188 11.5625 7.367188 11.5625 7.371094 C 11.507812 7.351562 11.449219 7.34375 11.394531 7.34375 Z M 11.09375 8.953125 L 10.992188 8.980469 L 10.855469 9.476562 C 10.703125 9.929688 10.558594 10.378906 10.449219 10.824219 C 10.339844 11.191406 10.304688 11.515625 10.328125 11.789062 C 10.34375 11.601562 10.382812 11.394531 10.449219 11.167969 C 10.558594 10.722656 10.703125 10.273438 10.855469 9.820312 Z M 10.324219 11.871094 L 8.65625 13.773438 L 6.214844 13.480469 C 5.699219 13.421875 5.457031 13.894531 5.558594 14.269531 C 5.625 14.003906 5.851562 13.785156 6.214844 13.824219 L 8.65625 14.117188 L 10.335938 12.199219 C 10.324219 12.097656 10.320312 11.988281 10.324219 11.871094 Z M 12.613281 12.390625 C 12.574219 12.480469 12.53125 12.566406 12.484375 12.644531 L 13.890625 13.652344 C 13.976562 13.714844 14.046875 13.800781 14.09375 13.898438 L 15.320312 16.660156 C 15.332031 16.691406 15.34375 16.726562 15.351562 16.757812 C 15.394531 16.628906 15.390625 16.476562 15.320312 16.316406 L 14.09375 13.554688 C 14.046875 13.457031 13.976562 13.371094 13.890625 13.308594 Z M 12.613281 12.390625 "/>
<path style=" stroke:none;fill-rule:nonzero;fill:rgb(0%,0%,0%);fill-opacity:0.4;" d="M 11.871094 6.1875 C 11.863281 6.242188 11.855469 6.296875 11.855469 6.355469 C 11.855469 7.023438 12.398438 7.5625 13.0625 7.5625 C 13.730469 7.5625 14.269531 7.023438 14.269531 6.355469 C 14.269531 6.296875 14.265625 6.242188 14.257812 6.1875 C 14.175781 6.773438 13.671875 7.222656 13.0625 7.222656 C 12.453125 7.222656 11.953125 6.773438 11.871094 6.1875 Z M 11.09375 8.609375 L 9.480469 9.070312 L 9.480469 9.410156 L 10.992188 8.976562 Z M 16.460938 9.4375 C 16.429688 9.527344 16.375 9.617188 16.289062 9.703125 L 14.445312 11.542969 C 14.144531 11.847656 13.632812 11.753906 13.457031 11.363281 L 13.0625 10.503906 C 12.894531 11.097656 12.773438 11.804688 12.484375 12.300781 L 12.609375 12.390625 C 12.8125 11.921875 12.921875 11.34375 13.0625 10.839844 L 13.457031 11.703125 C 13.632812 12.09375 14.144531 12.183594 14.445312 11.882812 L 16.289062 10.042969 C 16.484375 9.851562 16.519531 9.628906 16.460938 9.4375 Z M 8.382812 11.328125 L 8.382812 11.667969 C 8.371094 12.496094 9.492188 12.496094 9.480469 11.667969 L 9.480469 11.328125 C 9.492188 12.160156 8.371094 12.160156 8.382812 11.328125 Z M 10.328125 11.785156 C 10.328125 11.816406 10.324219 11.84375 10.324219 11.867188 L 10.335938 11.855469 C 10.332031 11.832031 10.332031 11.808594 10.328125 11.785156 Z M 11.105469 12.839844 L 9.371094 14.820312 C 9.238281 14.972656 9.039062 15.050781 8.839844 15.027344 L 6.082031 14.699219 C 5.78125 14.667969 5.613281 14.480469 5.554688 14.265625 C 5.472656 14.59375 5.632812 14.988281 6.082031 15.039062 L 8.839844 15.367188 C 9.039062 15.390625 9.238281 15.3125 9.371094 15.160156 L 11.105469 13.179688 C 11.132812 13.1875 11.160156 13.195312 11.1875 13.203125 C 11.214844 13.230469 11.246094 13.257812 11.277344 13.28125 L 13.039062 14.546875 L 14.195312 17.152344 C 14.515625 17.867188 15.550781 17.445312 15.351562 16.753906 C 15.207031 17.21875 14.457031 17.402344 14.195312 16.8125 L 13.039062 14.207031 L 11.277344 12.945312 C 11.246094 12.917969 11.214844 12.894531 11.1875 12.863281 C 11.160156 12.855469 11.132812 12.847656 11.105469 12.839844 Z M 11.105469 12.839844 "/>
<path style=" stroke:none;fill-rule:nonzero;fill:rgb(0%,0%,0%);fill-opacity:0.4;" d="M 3.4375 2.75 C 3.054688 2.75 2.75 3.054688 2.75 3.4375 L 2.75 3.78125 C 2.75 3.398438 3.054688 3.09375 3.4375 3.09375 L 18.5625 3.09375 C 18.945312 3.09375 19.25 3.398438 19.25 3.78125 L 19.25 3.4375 C 19.25 3.054688 18.945312 2.75 18.5625 2.75 Z M 3.4375 2.75 "/>
<path style=" stroke:none;fill-rule:nonzero;fill:rgb(100%,100%,100%);fill-opacity:0.6;" d="M 3.4375 19.59375 C 3.054688 19.59375 2.75 19.289062 2.75 18.90625 L 2.75 18.5625 C 2.75 18.945312 3.054688 19.25 3.4375 19.25 L 18.5625 19.25 C 18.945312 19.25 19.25 18.945312 19.25 18.5625 L 19.25 18.90625 C 19.25 19.289062 18.945312 19.59375 18.5625 19.59375 Z M 3.4375 19.59375 "/>
<path style=" stroke:none;fill-rule:nonzero;fill:url(#linear0);" d="M 2.75 1.375 L 19.25 1.375 C 20.007812 1.375 20.625 1.992188 20.625 2.75 L 20.625 19.25 C 20.625 20.007812 20.007812 20.625 19.25 20.625 L 2.75 20.625 C 1.988281 20.625 1.375 20.007812 1.375 19.25 L 1.375 2.75 C 1.375 1.992188 1.988281 1.375 2.75 1.375 Z M 2.75 1.375 "/>
</g>
</svg>
