
<svg xmlns="http://www.w3.org/2000/svg" xmlns:xlink="http://www.w3.org/1999/xlink" width="64" height="64" viewBox="0 0 64 64" version="1.1">
<defs>
<linearGradient id="linear0" gradientUnits="userSpaceOnUse" x1="31.999998" y1="60" x2="31.999998" y2="4" gradientTransform="matrix(1,0,0,1,-0.00000272126,0)">
<stop offset="0" style="stop-color:rgb(0%,0%,0%);stop-opacity:0.2;"/>
<stop offset="1" style="stop-color:rgb(100%,100%,100%);stop-opacity:0;"/>
</linearGradient>
</defs>
<g id="surface1">
<path style=" stroke:none;fill-rule:nonzero;fill:rgb(40.000001%,73.333335%,41.568628%);fill-opacity:1;" d="M 40 4 L 13 4 C 11.339844 4 10 5.339844 10 7 L 10 57 C 10 58.660156 11.339844 60 13 60 L 51 60 C 52.660156 60 54 58.660156 54 57 L 54 18 Z M 40 4 "/>
<path style=" stroke:none;fill-rule:nonzero;fill:rgb(0%,0%,0%);fill-opacity:0.4;" d="M 40 15 L 40 16 C 40 17.660156 41.339844 19 43 19 L 54 19 L 53 18 L 43 18 C 41.339844 18 40 16.660156 40 15 Z M 40 15 "/>
<path style=" stroke:none;fill-rule:nonzero;fill:rgb(50.588238%,78.039217%,51.764709%);fill-opacity:0.996078;" d="M 54 18 L 40 4 L 40 15 C 40 16.660156 41.339844 18 43 18 Z M 54 18 "/>
<path style=" stroke:none;fill-rule:nonzero;fill:rgb(100%,100%,100%);fill-opacity:0.4;" d="M 13 4 C 11.339844 4 10 5.339844 10 7 L 10 8 C 10 6.339844 11.339844 5 13 5 L 40 5 L 54 19 L 54 18 L 40 4 Z M 13 4 "/>
<path style=" stroke:none;fill-rule:nonzero;fill:rgb(0%,0%,0%);fill-opacity:0.2;" d="M 10 56.984375 L 10 58.5 C 10 60.164062 11.339844 61.5 13 61.5 L 51 61.5 C 52.660156 61.5 54 60.164062 54 58.5 L 54 56.984375 C 54 58.648438 52.660156 59.984375 51 59.984375 L 13 59.984375 C 11.339844 59.984375 10 58.648438 10 56.984375 Z M 10 56.984375 "/>
<path style=" stroke:none;fill-rule:nonzero;fill:rgb(0%,0%,0%);fill-opacity:0.4;" d="M 10 56.125 L 10 57 C 10 58.660156 11.339844 60 13 60 L 51 60 C 52.660156 60 54 58.660156 54 57 L 54 56.125 C 54 57.785156 52.660156 59.125 51 59.125 L 13 59.125 C 11.339844 59.125 10 57.785156 10 56.125 Z M 10 56.125 "/>
<path style=" stroke:none;fill-rule:nonzero;fill:rgb(64.705884%,83.92157%,65.490198%);fill-opacity:0.996078;" d="M 26 24 C 24.890625 24 24 24.890625 24 26 L 24 42 C 24 43.109375 24.890625 44 26 44 L 38 44 C 39.109375 44 40 43.109375 40 42 L 40 26 C 40 24.890625 39.109375 24 38 24 Z M 26.472656 26 C 26.484375 26 26.492188 26 26.5 26 L 28.5 26 C 28.777344 26 29 26.222656 29 26.5 L 29 28.5 C 29 28.777344 28.777344 29 28.5 29 L 26.5 29 C 26.222656 29 26 28.777344 26 28.5 L 26 26.5 C 26 26.230469 26.210938 26.011719 26.472656 26 Z M 30.472656 26 C 30.484375 26 30.492188 26 30.5 26 L 32.5 26 C 32.777344 26 33 26.222656 33 26.5 L 33 28.5 C 33 28.777344 32.777344 29 32.5 29 L 30.5 29 C 30.222656 29 30 28.777344 30 28.5 L 30 26.5 C 30 26.230469 30.210938 26.011719 30.472656 26 Z M 34.472656 26 C 34.484375 26 34.492188 26 34.5 26 L 36.5 26 C 36.777344 26 37 26.222656 37 26.5 L 37 28.5 C 37 28.777344 36.777344 29 36.5 29 L 34.5 29 C 34.222656 29 34 28.777344 34 28.5 L 34 26.5 C 34 26.230469 34.210938 26.011719 34.472656 26 Z M 26.472656 30 C 26.484375 30 26.492188 30 26.5 30 L 28.5 30 C 28.777344 30 29 30.222656 29 30.5 L 29 32.5 C 29 32.777344 28.777344 33 28.5 33 L 26.5 33 C 26.222656 33 26 32.777344 26 32.5 L 26 30.5 C 26 30.230469 26.210938 30.011719 26.472656 30 Z M 30.472656 30 C 30.484375 30 30.492188 30 30.5 30 L 32.5 30 C 32.777344 30 33 30.222656 33 30.5 L 33 32.5 C 33 32.777344 32.777344 33 32.5 33 L 30.5 33 C 30.222656 33 30 32.777344 30 32.5 L 30 30.5 C 30 30.230469 30.210938 30.011719 30.472656 30 Z M 34.472656 30 C 34.484375 30 34.492188 30 34.5 30 L 36.5 30 C 36.777344 30 37 30.222656 37 30.5 L 37 32.5 C 37 32.777344 36.777344 33 36.5 33 L 34.5 33 C 34.222656 33 34 32.777344 34 32.5 L 34 30.5 C 34 30.230469 34.210938 30.011719 34.472656 30 Z M 26.472656 34 C 26.484375 34 26.492188 34 26.5 34 L 28.5 34 C 28.777344 34 29 34.222656 29 34.5 L 29 36.5 C 29 36.777344 28.777344 37 28.5 37 L 26.5 37 C 26.222656 37 26 36.777344 26 36.5 L 26 34.5 C 26 34.230469 26.210938 34.011719 26.472656 34 Z M 30.472656 34 C 30.484375 34 30.492188 34 30.5 34 L 32.5 34 C 32.777344 34 33 34.222656 33 34.5 L 33 36.5 C 33 36.777344 32.777344 37 32.5 37 L 30.5 37 C 30.222656 37 30 36.777344 30 36.5 L 30 34.5 C 30 34.230469 30.210938 34.011719 30.472656 34 Z M 34.472656 34 C 34.484375 34 34.492188 34 34.5 34 L 36.5 34 C 36.777344 34 37 34.222656 37 34.5 L 37 36.5 C 37 36.777344 36.777344 37 36.5 37 L 34.5 37 C 34.222656 37 34 36.777344 34 36.5 L 34 34.5 C 34 34.230469 34.210938 34.011719 34.472656 34 Z M 26.472656 38 C 26.484375 38 26.492188 38 26.5 38 L 28.5 38 C 28.777344 38 29 38.222656 29 38.5 L 29 40.5 C 29 40.777344 28.777344 41 28.5 41 L 26.5 41 C 26.222656 41 26 40.777344 26 40.5 L 26 38.5 C 26 38.230469 26.210938 38.011719 26.472656 38 Z M 30.472656 38 C 30.484375 38 30.492188 38 30.5 38 L 32.5 38 C 32.777344 38 33 38.222656 33 38.5 L 33 40.5 C 33 40.777344 32.777344 41 32.5 41 L 30.5 41 C 30.222656 41 30 40.777344 30 40.5 L 30 38.5 C 30 38.230469 30.210938 38.011719 30.472656 38 Z M 30.472656 38 "/>
<path style=" stroke:none;fill-rule:nonzero;fill:rgb(100%,100%,100%);fill-opacity:0.4;" d="M 26 24 C 24.890625 24 24 24.890625 24 26 L 24 26.5 C 24 25.390625 24.890625 24.5 26 24.5 L 38 24.5 C 39.109375 24.5 40 25.390625 40 26.5 L 40 26 C 40 24.890625 39.109375 24 38 24 Z M 26 28.5 L 26 29 C 26 29.277344 26.222656 29.5 26.5 29.5 L 28.5 29.5 C 28.777344 29.5 29 29.277344 29 29 L 29 28.5 C 29 28.777344 28.777344 29 28.5 29 L 26.5 29 C 26.222656 29 26 28.777344 26 28.5 Z M 30 28.5 L 30 29 C 30 29.277344 30.222656 29.5 30.5 29.5 L 32.5 29.5 C 32.777344 29.5 33 29.277344 33 29 L 33 28.5 C 33 28.777344 32.777344 29 32.5 29 L 30.5 29 C 30.222656 29 30 28.777344 30 28.5 Z M 34 28.5 L 34 29 C 34 29.277344 34.222656 29.5 34.5 29.5 L 36.5 29.5 C 36.777344 29.5 37 29.277344 37 29 L 37 28.5 C 37 28.777344 36.777344 29 36.5 29 L 34.5 29 C 34.222656 29 34 28.777344 34 28.5 Z M 26 32.5 L 26 33 C 26 33.277344 26.222656 33.5 26.5 33.5 L 28.5 33.5 C 28.777344 33.5 29 33.277344 29 33 L 29 32.5 C 29 32.777344 28.777344 33 28.5 33 L 26.5 33 C 26.222656 33 26 32.777344 26 32.5 Z M 30 32.5 L 30 33 C 30 33.277344 30.222656 33.5 30.5 33.5 L 32.5 33.5 C 32.777344 33.5 33 33.277344 33 33 L 33 32.5 C 33 32.777344 32.777344 33 32.5 33 L 30.5 33 C 30.222656 33 30 32.777344 30 32.5 Z M 34 32.5 L 34 33 C 34 33.277344 34.222656 33.5 34.5 33.5 L 36.5 33.5 C 36.777344 33.5 37 33.277344 37 33 L 37 32.5 C 37 32.777344 36.777344 33 36.5 33 L 34.5 33 C 34.222656 33 34 32.777344 34 32.5 Z M 26 36.5 L 26 37 C 26 37.277344 26.222656 37.5 26.5 37.5 L 28.5 37.5 C 28.777344 37.5 29 37.277344 29 37 L 29 36.5 C 29 36.777344 28.777344 37 28.5 37 L 26.5 37 C 26.222656 37 26 36.777344 26 36.5 Z M 30 36.5 L 30 37 C 30 37.277344 30.222656 37.5 30.5 37.5 L 32.5 37.5 C 32.777344 37.5 33 37.277344 33 37 L 33 36.5 C 33 36.777344 32.777344 37 32.5 37 L 30.5 37 C 30.222656 37 30 36.777344 30 36.5 Z M 34 36.5 L 34 37 C 34 37.277344 34.222656 37.5 34.5 37.5 L 36.5 37.5 C 36.777344 37.5 37 37.277344 37 37 L 37 36.5 C 37 36.777344 36.777344 37 36.5 37 L 34.5 37 C 34.222656 37 34 36.777344 34 36.5 Z M 26 40.5 L 26 41 C 26 41.277344 26.222656 41.5 26.5 41.5 L 28.5 41.5 C 28.777344 41.5 29 41.277344 29 41 L 29 40.5 C 29 40.777344 28.777344 41 28.5 41 L 26.5 41 C 26.222656 41 26 40.777344 26 40.5 Z M 30 40.5 L 30 41 C 30 41.277344 30.222656 41.5 30.5 41.5 L 32.5 41.5 C 32.777344 41.5 33 41.277344 33 41 L 33 40.5 C 33 40.777344 32.777344 41 32.5 41 L 30.5 41 C 30.222656 41 30 40.777344 30 40.5 Z M 30 40.5 "/>
<path style=" stroke:none;fill-rule:nonzero;fill:rgb(0%,0%,0%);fill-opacity:0.4;" d="M 26.472656 26 C 26.210938 26.011719 26 26.230469 26 26.5 L 26 27 C 26 26.730469 26.210938 26.511719 26.472656 26.5 C 26.484375 26.5 26.492188 26.5 26.5 26.5 L 28.5 26.5 C 28.777344 26.5 29 26.722656 29 27 L 29 26.5 C 29 26.222656 28.777344 26 28.5 26 L 26.5 26 C 26.492188 26 26.484375 26 26.472656 26 Z M 30.472656 26 C 30.210938 26.011719 30 26.230469 30 26.5 L 30 27 C 30 26.730469 30.210938 26.511719 30.472656 26.5 C 30.484375 26.5 30.492188 26.5 30.5 26.5 L 32.5 26.5 C 32.777344 26.5 33 26.722656 33 27 L 33 26.5 C 33 26.222656 32.777344 26 32.5 26 L 30.5 26 C 30.492188 26 30.484375 26 30.472656 26 Z M 34.472656 26 C 34.210938 26.011719 34 26.230469 34 26.5 L 34 27 C 34 26.730469 34.210938 26.511719 34.472656 26.5 C 34.484375 26.5 34.492188 26.5 34.5 26.5 L 36.5 26.5 C 36.777344 26.5 37 26.722656 37 27 L 37 26.5 C 37 26.222656 36.777344 26 36.5 26 L 34.5 26 C 34.492188 26 34.484375 26 34.472656 26 Z M 26.472656 30 C 26.210938 30.011719 26 30.230469 26 30.5 L 26 31 C 26 30.730469 26.210938 30.511719 26.472656 30.5 C 26.484375 30.5 26.492188 30.5 26.5 30.5 L 28.5 30.5 C 28.777344 30.5 29 30.722656 29 31 L 29 30.5 C 29 30.222656 28.777344 30 28.5 30 L 26.5 30 C 26.492188 30 26.484375 30 26.472656 30 Z M 30.472656 30 C 30.210938 30.011719 30 30.230469 30 30.5 L 30 31 C 30 30.730469 30.210938 30.511719 30.472656 30.5 C 30.484375 30.5 30.492188 30.5 30.5 30.5 L 32.5 30.5 C 32.777344 30.5 33 30.722656 33 31 L 33 30.5 C 33 30.222656 32.777344 30 32.5 30 L 30.5 30 C 30.492188 30 30.484375 30 30.472656 30 Z M 34.472656 30 C 34.210938 30.011719 34 30.230469 34 30.5 L 34 31 C 34 30.730469 34.210938 30.511719 34.472656 30.5 C 34.484375 30.5 34.492188 30.5 34.5 30.5 L 36.5 30.5 C 36.777344 30.5 37 30.722656 37 31 L 37 30.5 C 37 30.222656 36.777344 30 36.5 30 L 34.5 30 C 34.492188 30 34.484375 30 34.472656 30 Z M 26.472656 34 C 26.210938 34.011719 26 34.230469 26 34.5 L 26 35 C 26 34.730469 26.210938 34.511719 26.472656 34.5 C 26.484375 34.5 26.492188 34.5 26.5 34.5 L 28.5 34.5 C 28.777344 34.5 29 34.722656 29 35 L 29 34.5 C 29 34.222656 28.777344 34 28.5 34 L 26.5 34 C 26.492188 34 26.484375 34 26.472656 34 Z M 30.472656 34 C 30.210938 34.011719 30 34.230469 30 34.5 L 30 35 C 30 34.730469 30.210938 34.511719 30.472656 34.5 C 30.484375 34.5 30.492188 34.5 30.5 34.5 L 32.5 34.5 C 32.777344 34.5 33 34.722656 33 35 L 33 34.5 C 33 34.222656 32.777344 34 32.5 34 L 30.5 34 C 30.492188 34 30.484375 34 30.472656 34 Z M 34.472656 34 C 34.210938 34.011719 34 34.230469 34 34.5 L 34 35 C 34 34.730469 34.210938 34.511719 34.472656 34.5 C 34.484375 34.5 34.492188 34.5 34.5 34.5 L 36.5 34.5 C 36.777344 34.5 37 34.722656 37 35 L 37 34.5 C 37 34.222656 36.777344 34 36.5 34 L 34.5 34 C 34.492188 34 34.484375 34 34.472656 34 Z M 26.472656 38 C 26.210938 38.011719 26 38.230469 26 38.5 L 26 39 C 26 38.730469 26.210938 38.511719 26.472656 38.5 C 26.484375 38.5 26.492188 38.5 26.5 38.5 L 28.5 38.5 C 28.777344 38.5 29 38.722656 29 39 L 29 38.5 C 29 38.222656 28.777344 38 28.5 38 L 26.5 38 C 26.492188 38 26.484375 38 26.472656 38 Z M 30.472656 38 C 30.210938 38.011719 30 38.230469 30 38.5 L 30 39 C 30 38.730469 30.210938 38.511719 30.472656 38.5 C 30.484375 38.5 30.492188 38.5 30.5 38.5 L 32.5 38.5 C 32.777344 38.5 33 38.722656 33 39 L 33 38.5 C 33 38.222656 32.777344 38 32.5 38 L 30.5 38 C 30.492188 38 30.484375 38 30.472656 38 Z M 24 42 L 24 42.5 C 24 43.609375 24.890625 44.5 26 44.5 L 38 44.5 C 39.109375 44.5 40 43.609375 40 42.5 L 40 42 C 40 43.109375 39.109375 44 38 44 L 26 44 C 24.890625 44 24 43.109375 24 42 Z M 24 42 "/>
<path style=" stroke:none;fill-rule:nonzero;fill:url(#linear0);" d="M 40 4 L 13 4 C 11.339844 4 10 5.339844 10 7 L 10 57 C 10 58.660156 11.339844 60 13 60 L 51 60 C 52.660156 60 54 58.660156 54 57 L 54 18 Z M 40 4 "/>
</g>
</svg>
