
<svg xmlns="http://www.w3.org/2000/svg" xmlns:xlink="http://www.w3.org/1999/xlink" width="22" height="22" viewBox="0 0 22 22" version="1.1">
<defs>
<linearGradient id="linear0" gradientUnits="userSpaceOnUse" x1="10.054166" y1="-199.125" x2="10.054166" y2="-213.941666" gradientTransform="matrix(1.299213,0,0,1.299213,-0.000434698,279.330723)">
<stop offset="0" style="stop-color:rgb(0%,0%,0%);stop-opacity:0.2;"/>
<stop offset="1" style="stop-color:rgb(100%,100%,100%);stop-opacity:0;"/>
</linearGradient>
</defs>
<g id="surface1">
<path style=" stroke:none;fill-rule:nonzero;fill:rgb(36.078432%,41.960785%,75.294119%);fill-opacity:1;" d="M 2.75 1.375 L 19.25 1.375 C 20.011719 1.375 20.625 1.992188 20.625 2.75 L 20.625 19.25 C 20.625 20.007812 20.011719 20.625 19.25 20.625 L 2.75 20.625 C 1.992188 20.625 1.375 20.007812 1.375 19.25 L 1.375 2.75 C 1.375 1.992188 1.992188 1.375 2.75 1.375 Z M 2.75 1.375 "/>
<path style=" stroke:none;fill-rule:nonzero;fill:rgb(0%,0%,0%);fill-opacity:0.4;" d="M 1.375 18.90625 L 1.375 19.25 C 1.375 20.011719 1.988281 20.625 2.75 20.625 L 19.25 20.625 C 20.011719 20.625 20.625 20.011719 20.625 19.25 L 20.625 18.90625 C 20.625 19.667969 20.011719 20.28125 19.25 20.28125 L 2.75 20.28125 C 1.988281 20.28125 1.375 19.667969 1.375 18.90625 Z M 1.375 18.90625 "/>
<path style=" stroke:none;fill-rule:nonzero;fill:rgb(0%,0%,0%);fill-opacity:0.2;" d="M 1.375 19.25 L 1.375 19.765625 C 1.375 20.527344 1.988281 21.140625 2.75 21.140625 L 19.25 21.140625 C 20.011719 21.140625 20.625 20.527344 20.625 19.765625 L 20.625 19.25 C 20.625 20.011719 20.011719 20.625 19.25 20.625 L 2.75 20.625 C 1.988281 20.625 1.375 20.011719 1.375 19.25 Z M 1.375 19.25 "/>
<path style=" stroke:none;fill-rule:nonzero;fill:rgb(100%,100%,100%);fill-opacity:0.4;" d="M 2.75 1.375 C 1.988281 1.375 1.375 1.988281 1.375 2.75 L 1.375 3.089844 C 1.375 2.328125 1.988281 1.714844 2.75 1.714844 L 19.25 1.714844 C 20.011719 1.714844 20.625 2.328125 20.625 3.089844 L 20.625 2.75 C 20.625 1.988281 20.011719 1.375 19.25 1.375 Z M 2.75 1.375 "/>
<path style=" stroke:none;fill-rule:nonzero;fill:rgb(93.333334%,93.333334%,93.333334%);fill-opacity:0.996078;" d="M 3.4375 2.75 C 3.054688 2.75 2.75 3.054688 2.75 3.4375 L 2.75 18.5625 C 2.75 18.945312 3.054688 19.25 3.4375 19.25 L 18.5625 19.25 C 18.945312 19.25 19.25 18.945312 19.25 18.5625 L 19.25 3.4375 C 19.25 3.054688 18.945312 2.75 18.5625 2.75 Z M 4.46875 4.125 L 17.53125 4.125 C 17.722656 4.125 17.875 4.277344 17.875 4.46875 L 17.875 17.53125 C 17.875 17.722656 17.722656 17.875 17.53125 17.875 L 4.46875 17.875 C 4.277344 17.875 4.125 17.722656 4.125 17.53125 L 4.125 4.46875 C 4.125 4.277344 4.277344 4.125 4.46875 4.125 Z M 4.46875 4.125 "/>
<path style=" stroke:none;fill-rule:nonzero;fill:rgb(100%,100%,100%);fill-opacity:0.6;" d="M 3.4375 2.75 C 3.054688 2.75 2.75 3.054688 2.75 3.4375 L 2.75 3.78125 C 2.75 3.398438 3.054688 3.09375 3.4375 3.09375 L 18.5625 3.09375 C 18.945312 3.09375 19.25 3.398438 19.25 3.78125 L 19.25 3.4375 C 19.25 3.054688 18.945312 2.75 18.5625 2.75 Z M 4.125 17.53125 L 4.125 17.875 C 4.125 18.0625 4.277344 18.21875 4.46875 18.21875 L 17.53125 18.21875 C 17.722656 18.21875 17.875 18.0625 17.875 17.875 L 17.875 17.53125 C 17.875 17.722656 17.722656 17.875 17.53125 17.875 L 4.46875 17.875 C 4.277344 17.875 4.125 17.722656 4.125 17.53125 Z M 4.125 17.53125 "/>
<path style=" stroke:none;fill-rule:nonzero;fill:rgb(0%,0%,0%);fill-opacity:0.4;" d="M 3.4375 19.59375 C 3.054688 19.59375 2.75 19.289062 2.75 18.90625 L 2.75 18.5625 C 2.75 18.945312 3.054688 19.25 3.4375 19.25 L 18.5625 19.25 C 18.945312 19.25 19.25 18.945312 19.25 18.5625 L 19.25 18.90625 C 19.25 19.289062 18.945312 19.59375 18.5625 19.59375 Z M 4.125 4.8125 L 4.125 4.46875 C 4.125 4.28125 4.277344 4.125 4.46875 4.125 L 17.53125 4.125 C 17.722656 4.125 17.875 4.28125 17.875 4.46875 L 17.875 4.8125 C 17.875 4.621094 17.722656 4.46875 17.53125 4.46875 L 4.46875 4.46875 C 4.277344 4.46875 4.125 4.621094 4.125 4.8125 Z M 4.125 4.8125 "/>
<path style=" stroke:none;fill-rule:nonzero;fill:rgb(93.333334%,93.333334%,93.333334%);fill-opacity:1;" d="M 12.375 7.5625 L 12.03125 7.5625 C 11.839844 7.5625 11.6875 7.714844 11.6875 7.90625 L 11.6875 14.09375 C 11.6875 14.285156 11.839844 14.4375 12.03125 14.4375 L 12.71875 14.4375 C 12.910156 14.4375 13.0625 14.285156 13.0625 14.09375 L 13.0625 10.210938 L 13.449219 11.242188 C 13.546875 11.511719 13.804688 11.6875 14.09375 11.6875 C 14.378906 11.6875 14.636719 11.511719 14.738281 11.242188 L 15.125 10.207031 L 15.125 14.09375 C 15.125 14.285156 15.277344 14.4375 15.46875 14.4375 L 16.15625 14.4375 C 16.347656 14.4375 16.5 14.285156 16.5 14.09375 L 16.5 7.90625 C 16.5 7.714844 16.347656 7.5625 16.15625 7.5625 L 15.125 7.5625 C 14.839844 7.5625 14.582031 7.738281 14.480469 8.007812 L 14.09375 9.039062 L 13.703125 8.007812 C 13.605469 7.742188 13.347656 7.5625 13.0625 7.5625 Z M 12.375 7.5625 "/>
<path style=" stroke:none;fill-rule:nonzero;fill:rgb(100%,100%,100%);fill-opacity:0.6;" d="M 12.375 7.5625 L 12.03125 7.5625 C 11.839844 7.5625 11.6875 7.714844 11.6875 7.90625 L 11.6875 8.25 C 11.6875 8.058594 11.839844 7.90625 12.03125 7.90625 L 13.0625 7.90625 C 13.347656 7.90625 13.605469 8.085938 13.703125 8.351562 L 14.09375 9.382812 L 14.480469 8.351562 C 14.582031 8.082031 14.839844 7.90625 15.125 7.90625 L 16.15625 7.90625 C 16.347656 7.90625 16.5 8.058594 16.5 8.25 L 16.5 7.90625 C 16.5 7.714844 16.347656 7.5625 16.15625 7.5625 L 15.125 7.5625 C 14.839844 7.5625 14.582031 7.738281 14.480469 8.007812 L 14.09375 9.039062 L 13.703125 8.007812 C 13.605469 7.742188 13.347656 7.5625 13.0625 7.5625 Z M 12.375 7.5625 "/>
<path style=" stroke:none;fill-rule:nonzero;fill:rgb(0%,0%,0%);fill-opacity:0.4;" d="M 15.125 10.207031 L 14.738281 11.242188 C 14.636719 11.511719 14.378906 11.6875 14.09375 11.6875 C 13.804688 11.6875 13.546875 11.511719 13.449219 11.242188 L 13.0625 10.210938 L 13.0625 10.554688 L 13.449219 11.585938 C 13.546875 11.855469 13.804688 12.03125 14.09375 12.03125 C 14.378906 12.03125 14.636719 11.855469 14.738281 11.585938 L 15.125 10.550781 Z M 11.6875 14.09375 L 11.6875 14.4375 C 11.6875 14.628906 11.839844 14.78125 12.03125 14.78125 L 12.71875 14.78125 C 12.910156 14.78125 13.0625 14.628906 13.0625 14.4375 L 13.0625 14.09375 C 13.0625 14.285156 12.910156 14.4375 12.71875 14.4375 L 12.03125 14.4375 C 11.839844 14.4375 11.6875 14.285156 11.6875 14.09375 Z M 15.125 14.09375 L 15.125 14.4375 C 15.125 14.628906 15.277344 14.78125 15.46875 14.78125 L 16.15625 14.78125 C 16.347656 14.78125 16.5 14.628906 16.5 14.4375 L 16.5 14.09375 C 16.5 14.285156 16.347656 14.4375 16.15625 14.4375 L 15.46875 14.4375 C 15.277344 14.4375 15.125 14.285156 15.125 14.09375 Z M 15.125 14.09375 "/>
<path style=" stroke:none;fill-rule:nonzero;fill:rgb(93.333334%,93.333334%,93.333334%);fill-opacity:0.996078;" d="M 5.84375 7.5625 C 5.652344 7.5625 5.5 7.714844 5.5 7.90625 L 5.5 14.09375 C 5.5 14.285156 5.652344 14.4375 5.84375 14.4375 L 7.90625 14.4375 C 9.238281 14.4375 10.3125 13.519531 10.3125 12.375 C 10.3125 11.6875 9.921875 11.078125 9.320312 10.707031 C 9.511719 10.390625 9.625 10.023438 9.625 9.625 C 9.625 8.480469 8.707031 7.5625 7.5625 7.5625 Z M 6.875 8.9375 L 7.5625 8.9375 C 7.945312 8.9375 8.25 9.242188 8.25 9.625 C 8.25 10.007812 7.945312 10.3125 7.5625 10.3125 L 6.875 10.3125 Z M 6.875 11.6875 L 8.25 11.6875 C 8.632812 11.6875 8.9375 11.992188 8.9375 12.375 C 8.9375 12.757812 8.632812 13.0625 8.25 13.0625 L 6.875 13.0625 Z M 6.875 11.6875 "/>
<path style=" stroke:none;fill-rule:nonzero;fill:rgb(100%,100%,100%);fill-opacity:0.6;" d="M 5.84375 7.5625 C 5.652344 7.5625 5.5 7.714844 5.5 7.90625 L 5.5 8.25 C 5.5 8.058594 5.652344 7.90625 5.84375 7.90625 L 7.5625 7.90625 C 8.648438 7.90625 9.53125 8.734375 9.617188 9.796875 C 9.621094 9.738281 9.625 9.683594 9.625 9.625 C 9.625 8.480469 8.707031 7.5625 7.5625 7.5625 Z M 8.226562 9.796875 C 8.152344 10.09375 7.882812 10.3125 7.5625 10.3125 L 6.875 10.3125 L 6.875 10.65625 L 7.5625 10.65625 C 7.945312 10.65625 8.25 10.351562 8.25 9.96875 C 8.25 9.910156 8.242188 9.851562 8.226562 9.796875 Z M 9.453125 10.792969 C 9.414062 10.882812 9.371094 10.96875 9.320312 11.050781 C 9.871094 11.390625 10.246094 11.929688 10.304688 12.550781 C 10.308594 12.492188 10.3125 12.433594 10.3125 12.375 C 10.3125 11.738281 9.980469 11.171875 9.453125 10.792969 Z M 8.914062 12.546875 C 8.839844 12.84375 8.570312 13.0625 8.25 13.0625 L 6.875 13.0625 L 6.875 13.40625 L 8.25 13.40625 C 8.632812 13.40625 8.9375 13.101562 8.9375 12.71875 C 8.9375 12.660156 8.929688 12.601562 8.914062 12.546875 Z M 8.914062 12.546875 "/>
<path style=" stroke:none;fill-rule:nonzero;fill:rgb(0%,0%,0%);fill-opacity:0.4;" d="M 6.875 8.9375 L 6.875 9.28125 L 7.5625 9.28125 C 7.882812 9.28125 8.152344 9.5 8.226562 9.796875 C 8.242188 9.742188 8.25 9.683594 8.25 9.625 C 8.25 9.242188 7.945312 8.9375 7.5625 8.9375 Z M 9.617188 9.796875 C 9.589844 10.128906 9.484375 10.4375 9.320312 10.707031 C 9.367188 10.734375 9.410156 10.765625 9.453125 10.792969 C 9.5625 10.542969 9.625 10.261719 9.625 9.96875 C 9.625 9.910156 9.621094 9.851562 9.617188 9.796875 Z M 6.875 11.6875 L 6.875 12.03125 L 8.25 12.03125 C 8.570312 12.03125 8.839844 12.25 8.914062 12.546875 C 8.929688 12.492188 8.9375 12.433594 8.9375 12.375 C 8.9375 11.992188 8.632812 11.6875 8.25 11.6875 Z M 10.304688 12.550781 C 10.203125 13.609375 9.171875 14.4375 7.90625 14.4375 L 5.84375 14.4375 C 5.652344 14.4375 5.5 14.285156 5.5 14.09375 L 5.5 14.4375 C 5.5 14.628906 5.652344 14.78125 5.84375 14.78125 L 7.90625 14.78125 C 9.238281 14.78125 10.3125 13.863281 10.3125 12.71875 C 10.3125 12.660156 10.308594 12.605469 10.304688 12.550781 Z M 10.304688 12.550781 "/>
<path style=" stroke:none;fill-rule:nonzero;fill:url(#linear0);" d="M 2.75 1.375 L 19.25 1.375 C 20.007812 1.375 20.625 1.992188 20.625 2.75 L 20.625 19.25 C 20.625 20.007812 20.007812 20.625 19.25 20.625 L 2.75 20.625 C 1.988281 20.625 1.375 20.007812 1.375 19.25 L 1.375 2.75 C 1.375 1.992188 1.988281 1.375 2.75 1.375 Z M 2.75 1.375 "/>
</g>
</svg>
