
<svg xmlns="http://www.w3.org/2000/svg" xmlns:xlink="http://www.w3.org/1999/xlink" width="22" height="22" viewBox="0 0 22 22" version="1.1">
<defs>
<linearGradient id="linear0" gradientUnits="userSpaceOnUse" x1="10.054166" y1="-199.125" x2="10.054166" y2="-213.941666" gradientTransform="matrix(1.299213,0,0,1.299213,-0.000434698,279.330723)">
<stop offset="0" style="stop-color:rgb(0%,0%,0%);stop-opacity:0.2;"/>
<stop offset="1" style="stop-color:rgb(100%,100%,100%);stop-opacity:0;"/>
</linearGradient>
</defs>
<g id="surface1">
<path style=" stroke:none;fill-rule:nonzero;fill:rgb(87.843138%,87.843138%,87.843138%);fill-opacity:1;" d="M 2.75 1.375 L 19.25 1.375 C 20.011719 1.375 20.625 1.992188 20.625 2.75 L 20.625 19.25 C 20.625 20.007812 20.011719 20.625 19.25 20.625 L 2.75 20.625 C 1.992188 20.625 1.375 20.007812 1.375 19.25 L 1.375 2.75 C 1.375 1.992188 1.992188 1.375 2.75 1.375 Z M 2.75 1.375 "/>
<path style=" stroke:none;fill-rule:nonzero;fill:rgb(16.078432%,71.372551%,96.470588%);fill-opacity:0.996078;" d="M 6.875 1.375 L 6.875 20.625 L 19.25 20.625 C 20.011719 20.625 20.625 20.011719 20.625 19.25 L 20.625 2.75 C 20.625 1.988281 20.011719 1.375 19.25 1.375 Z M 6.875 1.375 "/>
<path style=" stroke:none;fill-rule:nonzero;fill:rgb(0%,0%,0%);fill-opacity:0.4;" d="M 1.375 18.90625 L 1.375 19.25 C 1.375 20.011719 1.988281 20.625 2.75 20.625 L 19.25 20.625 C 20.011719 20.625 20.625 20.011719 20.625 19.25 L 20.625 18.90625 C 20.625 19.667969 20.011719 20.28125 19.25 20.28125 L 2.75 20.28125 C 1.988281 20.28125 1.375 19.667969 1.375 18.90625 Z M 1.375 18.90625 "/>
<path style=" stroke:none;fill-rule:nonzero;fill:rgb(0%,0%,0%);fill-opacity:0.2;" d="M 1.375 19.25 L 1.375 19.765625 C 1.375 20.527344 1.988281 21.140625 2.75 21.140625 L 19.25 21.140625 C 20.011719 21.140625 20.625 20.527344 20.625 19.765625 L 20.625 19.25 C 20.625 20.011719 20.011719 20.625 19.25 20.625 L 2.75 20.625 C 1.988281 20.625 1.375 20.011719 1.375 19.25 Z M 1.375 19.25 "/>
<path style=" stroke:none;fill-rule:nonzero;fill:rgb(100%,100%,100%);fill-opacity:0.4;" d="M 2.75 1.375 C 1.988281 1.375 1.375 1.988281 1.375 2.75 L 1.375 3.089844 C 1.375 2.328125 1.988281 1.714844 2.75 1.714844 L 19.25 1.714844 C 20.011719 1.714844 20.625 2.328125 20.625 3.089844 L 20.625 2.75 C 20.625 1.988281 20.011719 1.375 19.25 1.375 Z M 2.75 1.375 "/>
<path style=" stroke:none;fill-rule:nonzero;fill:rgb(99.215686%,99.215686%,99.215686%);fill-opacity:0.4;" d="M 6.875 1.71875 L 7.046875 1.71875 L 7.046875 20.28125 L 6.875 20.28125 Z M 6.875 1.71875 "/>
<path style=" stroke:none;fill-rule:nonzero;fill:rgb(0.392157%,0.392157%,0.392157%);fill-opacity:0.4;" d="M 6.703125 1.71875 L 6.875 1.375 L 6.875 20.28125 L 6.703125 20.28125 Z M 6.703125 1.71875 "/>
<path style=" stroke:none;fill-rule:nonzero;fill:rgb(38.039216%,38.039216%,38.039216%);fill-opacity:0.996078;" d="M 13.75 7.5625 C 15.648438 7.5625 17.1875 9.101562 17.1875 11 C 17.1875 12.898438 15.648438 14.4375 13.75 14.4375 C 11.851562 14.4375 10.3125 12.898438 10.3125 11 C 10.3125 9.101562 11.851562 7.5625 13.75 7.5625 Z M 13.75 7.5625 "/>
<path style=" stroke:none;fill-rule:nonzero;fill:rgb(0%,0%,0%);fill-opacity:0.4;" d="M 13.75 7.5625 C 11.84375 7.5625 10.3125 9.09375 10.3125 11 C 10.3125 11.058594 10.3125 11.113281 10.316406 11.171875 C 10.40625 9.347656 11.902344 7.90625 13.75 7.90625 C 15.597656 7.90625 17.09375 9.347656 17.183594 11.171875 C 17.1875 11.113281 17.1875 11.058594 17.1875 11 C 17.1875 9.09375 15.65625 7.5625 13.75 7.5625 Z M 13.75 7.5625 "/>
<path style=" stroke:none;fill-rule:nonzero;fill:rgb(99.607843%,99.607843%,99.607843%);fill-opacity:0.4;" d="M 13.75 14.78125 C 11.84375 14.78125 10.3125 13.25 10.3125 11.34375 C 10.3125 11.285156 10.3125 11.230469 10.316406 11.171875 C 10.40625 12.996094 11.902344 14.4375 13.75 14.4375 C 15.597656 14.4375 17.09375 12.996094 17.183594 11.171875 C 17.183594 11.230469 17.1875 11.285156 17.1875 11.34375 C 17.1875 13.25 15.65625 14.78125 13.75 14.78125 Z M 13.75 14.78125 "/>
<path style=" stroke:none;fill-rule:nonzero;fill:rgb(93.333334%,93.333334%,93.333334%);fill-opacity:1;" d="M 10.710938 9.078125 C 10.578125 9.210938 10.578125 9.429688 10.710938 9.5625 L 13.019531 11.871094 L 13.265625 12.113281 L 13.507812 12.359375 C 13.640625 12.492188 13.859375 12.492188 13.992188 12.359375 L 17.882812 8.46875 C 18.015625 8.332031 18.015625 8.117188 17.882812 7.984375 L 17.394531 7.496094 C 17.261719 7.363281 17.042969 7.363281 16.910156 7.496094 L 13.75 10.65625 L 11.683594 8.589844 C 11.550781 8.457031 11.332031 8.457031 11.199219 8.589844 Z M 10.710938 9.078125 "/>
<path style=" stroke:none;fill-rule:nonzero;fill:rgb(100%,100%,100%);fill-opacity:0.6;" d="M 17.152344 7.394531 C 17.066406 7.394531 16.976562 7.429688 16.910156 7.496094 L 13.75 10.65625 L 11.683594 8.589844 C 11.550781 8.457031 11.332031 8.457031 11.199219 8.589844 L 10.710938 9.078125 C 10.597656 9.1875 10.582031 9.359375 10.65625 9.492188 C 10.671875 9.464844 10.691406 9.441406 10.710938 9.421875 L 11.199219 8.933594 C 11.332031 8.800781 11.550781 8.800781 11.683594 8.933594 L 13.75 11 L 16.910156 7.839844 C 17.042969 7.707031 17.261719 7.707031 17.394531 7.839844 L 17.882812 8.328125 C 17.902344 8.347656 17.921875 8.371094 17.9375 8.398438 C 18.011719 8.265625 17.996094 8.097656 17.882812 7.984375 L 17.394531 7.496094 C 17.328125 7.429688 17.242188 7.394531 17.152344 7.394531 Z M 17.152344 7.394531 "/>
<path style=" stroke:none;fill-rule:nonzero;fill:rgb(0%,0%,0%);fill-opacity:0.4;" d="M 17.925781 8.414062 C 17.914062 8.433594 17.898438 8.453125 17.882812 8.46875 L 13.992188 12.359375 C 13.859375 12.492188 13.640625 12.492188 13.507812 12.359375 L 13.265625 12.113281 L 13.019531 11.871094 L 10.710938 9.5625 C 10.695312 9.546875 10.679688 9.527344 10.667969 9.507812 C 10.578125 9.640625 10.59375 9.820312 10.710938 9.9375 L 13.019531 12.25 L 13.265625 12.492188 L 13.507812 12.734375 C 13.640625 12.871094 13.859375 12.871094 13.992188 12.734375 L 17.882812 8.84375 C 18 8.726562 18.015625 8.546875 17.925781 8.414062 Z M 17.925781 8.414062 "/>
<path style=" stroke:none;fill-rule:nonzero;fill:url(#linear0);" d="M 2.75 1.375 L 19.25 1.375 C 20.007812 1.375 20.625 1.992188 20.625 2.75 L 20.625 19.25 C 20.625 20.007812 20.007812 20.625 19.25 20.625 L 2.75 20.625 C 1.988281 20.625 1.375 20.007812 1.375 19.25 L 1.375 2.75 C 1.375 1.992188 1.988281 1.375 2.75 1.375 Z M 2.75 1.375 "/>
</g>
</svg>
