
<svg xmlns="http://www.w3.org/2000/svg" xmlns:xlink="http://www.w3.org/1999/xlink" width="22" height="22" viewBox="0 0 22 22" version="1.1">
<defs>
<linearGradient id="linear0" gradientUnits="userSpaceOnUse" x1="10.054166" y1="-199.125" x2="10.054166" y2="-213.941666" gradientTransform="matrix(1.299213,0,0,1.299213,-0.000434698,279.330723)">
<stop offset="0" style="stop-color:rgb(0%,0%,0%);stop-opacity:0.2;"/>
<stop offset="1" style="stop-color:rgb(100%,100%,100%);stop-opacity:0;"/>
</linearGradient>
</defs>
<g id="surface1">
<path style=" stroke:none;fill-rule:nonzero;fill:rgb(25.882354%,64.705884%,96.078432%);fill-opacity:1;" d="M 2.75 1.375 L 19.25 1.375 C 20.011719 1.375 20.625 1.992188 20.625 2.75 L 20.625 19.25 C 20.625 20.007812 20.011719 20.625 19.25 20.625 L 2.75 20.625 C 1.992188 20.625 1.375 20.007812 1.375 19.25 L 1.375 2.75 C 1.375 1.992188 1.992188 1.375 2.75 1.375 Z M 2.75 1.375 "/>
<path style=" stroke:none;fill-rule:nonzero;fill:rgb(0%,0%,0%);fill-opacity:0.4;" d="M 1.375 18.90625 L 1.375 19.25 C 1.375 20.011719 1.988281 20.625 2.75 20.625 L 19.25 20.625 C 20.011719 20.625 20.625 20.011719 20.625 19.25 L 20.625 18.90625 C 20.625 19.667969 20.011719 20.28125 19.25 20.28125 L 2.75 20.28125 C 1.988281 20.28125 1.375 19.667969 1.375 18.90625 Z M 1.375 18.90625 "/>
<path style=" stroke:none;fill-rule:nonzero;fill:rgb(0%,0%,0%);fill-opacity:0.2;" d="M 1.375 19.25 L 1.375 19.765625 C 1.375 20.527344 1.988281 21.140625 2.75 21.140625 L 19.25 21.140625 C 20.011719 21.140625 20.625 20.527344 20.625 19.765625 L 20.625 19.25 C 20.625 20.011719 20.011719 20.625 19.25 20.625 L 2.75 20.625 C 1.988281 20.625 1.375 20.011719 1.375 19.25 Z M 1.375 19.25 "/>
<path style=" stroke:none;fill-rule:nonzero;fill:rgb(100%,100%,100%);fill-opacity:0.4;" d="M 2.75 1.375 C 1.988281 1.375 1.375 1.988281 1.375 2.75 L 1.375 3.089844 C 1.375 2.328125 1.988281 1.714844 2.75 1.714844 L 19.25 1.714844 C 20.011719 1.714844 20.625 2.328125 20.625 3.089844 L 20.625 2.75 C 20.625 1.988281 20.011719 1.375 19.25 1.375 Z M 2.75 1.375 "/>
<path style=" stroke:none;fill-rule:nonzero;fill:rgb(93.333334%,93.333334%,93.333334%);fill-opacity:1;" d="M 14.78125 3.4375 C 14.589844 3.4375 14.4375 3.566406 14.4375 3.722656 L 14.4375 3.839844 C 14.4375 3.996094 14.589844 4.125 14.78125 4.125 L 15.8125 4.125 L 15.8125 8.25 L 14.78125 8.25 C 14.589844 8.25 14.4375 8.402344 14.4375 8.59375 C 14.4375 8.785156 14.589844 8.9375 14.78125 8.9375 L 18.21875 8.9375 C 18.410156 8.9375 18.5625 8.785156 18.5625 8.59375 C 18.5625 8.402344 18.410156 8.25 18.21875 8.25 L 17.1875 8.25 L 17.1875 3.722656 C 17.1875 3.566406 17.035156 3.4375 16.84375 3.4375 Z M 3.78125 8.9375 C 3.589844 8.9375 3.4375 9.089844 3.4375 9.28125 L 3.4375 18.21875 C 3.4375 18.410156 3.589844 18.5625 3.78125 18.5625 L 5.84375 18.5625 C 6.035156 18.5625 6.1875 18.410156 6.1875 18.21875 L 6.1875 14.4375 L 9.625 14.4375 L 9.625 18.21875 C 9.625 18.410156 9.777344 18.5625 9.96875 18.5625 L 12.03125 18.5625 C 12.222656 18.5625 12.375 18.410156 12.375 18.21875 L 12.375 9.28125 C 12.375 9.089844 12.222656 8.9375 12.03125 8.9375 L 9.96875 8.9375 C 9.777344 8.9375 9.625 9.089844 9.625 9.28125 L 9.625 13.0625 L 6.1875 13.0625 L 6.1875 9.28125 C 6.1875 9.089844 6.035156 8.9375 5.84375 8.9375 Z M 3.78125 8.9375 "/>
<path style=" stroke:none;fill-rule:nonzero;fill:rgb(100%,100%,100%);fill-opacity:0.6;" d="M 14.78125 3.4375 C 14.589844 3.4375 14.4375 3.566406 14.4375 3.722656 L 14.4375 3.839844 C 14.4375 3.882812 14.449219 3.917969 14.464844 3.953125 C 14.519531 3.855469 14.640625 3.785156 14.78125 3.785156 L 16.84375 3.785156 C 17.035156 3.785156 17.1875 3.910156 17.1875 4.070312 L 17.1875 3.722656 C 17.1875 3.566406 17.035156 3.4375 16.84375 3.4375 Z M 14.78125 8.25 C 14.589844 8.25 14.4375 8.402344 14.4375 8.59375 C 14.4375 8.65625 14.457031 8.714844 14.484375 8.765625 C 14.542969 8.664062 14.65625 8.597656 14.78125 8.597656 L 15.8125 8.597656 L 15.8125 8.25 Z M 17.1875 8.25 L 17.1875 8.597656 L 18.21875 8.597656 C 18.34375 8.597656 18.457031 8.664062 18.515625 8.765625 C 18.542969 8.714844 18.5625 8.65625 18.5625 8.59375 C 18.5625 8.402344 18.410156 8.25 18.21875 8.25 Z M 3.78125 8.9375 C 3.589844 8.9375 3.4375 9.089844 3.4375 9.28125 L 3.4375 9.628906 C 3.4375 9.4375 3.589844 9.285156 3.78125 9.285156 L 5.84375 9.285156 C 6.035156 9.285156 6.1875 9.4375 6.1875 9.628906 L 6.1875 9.28125 C 6.1875 9.089844 6.035156 8.9375 5.84375 8.9375 Z M 9.96875 8.9375 C 9.777344 8.9375 9.625 9.089844 9.625 9.28125 L 9.625 9.628906 C 9.625 9.4375 9.777344 9.285156 9.96875 9.285156 L 12.03125 9.285156 C 12.222656 9.285156 12.375 9.4375 12.375 9.628906 L 12.375 9.28125 C 12.375 9.089844 12.222656 8.9375 12.03125 8.9375 Z M 6.1875 13.0625 L 6.1875 13.410156 L 9.625 13.410156 L 9.625 13.0625 Z M 6.1875 13.0625 "/>
<path style=" stroke:none;fill-rule:nonzero;fill:rgb(0%,0%,0%);fill-opacity:0.4;" d="M 14.464844 3.953125 C 14.449219 3.988281 14.4375 4.027344 14.4375 4.066406 L 14.4375 4.183594 C 14.4375 4.339844 14.589844 4.46875 14.78125 4.46875 L 15.8125 4.46875 L 15.8125 4.125 L 14.78125 4.125 C 14.640625 4.125 14.519531 4.054688 14.464844 3.953125 Z M 14.484375 8.765625 C 14.453125 8.816406 14.4375 8.875 14.4375 8.9375 C 14.4375 9.128906 14.589844 9.28125 14.78125 9.28125 L 18.21875 9.28125 C 18.410156 9.28125 18.5625 9.128906 18.5625 8.9375 C 18.5625 8.875 18.546875 8.816406 18.515625 8.765625 C 18.457031 8.867188 18.347656 8.9375 18.21875 8.9375 L 14.78125 8.9375 C 14.652344 8.9375 14.542969 8.867188 14.484375 8.765625 Z M 6.1875 14.4375 L 6.1875 14.78125 L 9.625 14.78125 L 9.625 14.4375 Z M 3.4375 18.21875 L 3.4375 18.5625 C 3.4375 18.753906 3.589844 18.90625 3.78125 18.90625 L 5.84375 18.90625 C 6.035156 18.90625 6.1875 18.753906 6.1875 18.5625 L 6.1875 18.21875 C 6.1875 18.410156 6.035156 18.5625 5.84375 18.5625 L 3.78125 18.5625 C 3.589844 18.5625 3.4375 18.410156 3.4375 18.21875 Z M 9.625 18.21875 L 9.625 18.5625 C 9.625 18.753906 9.777344 18.90625 9.96875 18.90625 L 12.03125 18.90625 C 12.222656 18.90625 12.375 18.753906 12.375 18.5625 L 12.375 18.21875 C 12.375 18.410156 12.222656 18.5625 12.03125 18.5625 L 9.96875 18.5625 C 9.777344 18.5625 9.625 18.410156 9.625 18.21875 Z M 9.625 18.21875 "/>
<path style=" stroke:none;fill-rule:nonzero;fill:url(#linear0);" d="M 2.75 1.375 L 19.25 1.375 C 20.007812 1.375 20.625 1.992188 20.625 2.75 L 20.625 19.25 C 20.625 20.007812 20.007812 20.625 19.25 20.625 L 2.75 20.625 C 1.988281 20.625 1.375 20.007812 1.375 19.25 L 1.375 2.75 C 1.375 1.992188 1.988281 1.375 2.75 1.375 Z M 2.75 1.375 "/>
</g>
</svg>
