
<svg xmlns="http://www.w3.org/2000/svg" xmlns:xlink="http://www.w3.org/1999/xlink" width="22" height="22" viewBox="0 0 22 22" version="1.1">
<defs>
<linearGradient id="linear0" gradientUnits="userSpaceOnUse" x1="8.466666" y1="-199.125" x2="8.466666" y2="-213.941666" gradientTransform="matrix(1.299213,0,0,1.299213,0,279.330723)">
<stop offset="0" style="stop-color:rgb(0%,0%,0%);stop-opacity:0.2;"/>
<stop offset="1" style="stop-color:rgb(100%,100%,100%);stop-opacity:0;"/>
</linearGradient>
</defs>
<g id="surface1">
<path style=" stroke:none;fill-rule:nonzero;fill:rgb(25.098041%,63.137257%,78.431374%);fill-opacity:1;" d="M 20.625 11 C 20.625 5.667969 16.332031 1.375 10.996094 1.375 L 10.996094 11 Z M 20.625 11 "/>
<path style=" stroke:none;fill-rule:nonzero;fill:rgb(21.568628%,54.509807%,87.058824%);fill-opacity:1;" d="M 20.625 11 C 20.625 16.332031 16.332031 20.625 10.996094 20.625 L 10.996094 11 Z M 20.625 11 "/>
<path style=" stroke:none;fill-rule:nonzero;fill:rgb(28.627452%,73.333335%,69.01961%);fill-opacity:1;" d="M 1.371094 11 C 1.375 5.667969 5.667969 1.375 11 1.375 L 11 11 Z M 1.371094 11 "/>
<path style=" stroke:none;fill-rule:nonzero;fill:rgb(25.098041%,63.137257%,78.431374%);fill-opacity:1;" d="M 1.371094 11 C 1.375 16.332031 5.667969 20.625 11 20.625 L 11 11 Z M 1.371094 11 "/>
<path style=" stroke:none;fill-rule:nonzero;fill:rgb(28.627452%,73.333335%,69.01961%);fill-opacity:1;" d="M 11 1.371094 C 8.492188 1.371094 6.214844 2.320312 4.503906 3.882812 C 6.4375 4.914062 8.648438 5.5 11 5.5 C 13.351562 5.5 15.5625 4.914062 17.492188 3.882812 C 15.785156 2.320312 13.507812 1.371094 11 1.371094 Z M 11 1.371094 "/>
<path style=" stroke:none;fill-rule:nonzero;fill:rgb(32.549021%,84.313726%,58.431375%);fill-opacity:1;" d="M 11 1.371094 C 8.492188 1.371094 6.214844 2.320312 4.503906 3.882812 C 6.4375 4.914062 8.648438 5.5 11 5.5 Z M 11 1.371094 "/>
<path style=" stroke:none;fill-rule:nonzero;fill:rgb(44.705883%,91.37255%,60.392159%);fill-opacity:1;" d="M 9.265625 1.527344 C 4.765625 2.339844 1.371094 6.257812 1.371094 11 C 1.371094 15.742188 4.765625 19.660156 9.265625 20.472656 C 6.929688 18.007812 5.5 14.675781 5.5 11 C 5.5 7.320312 6.929688 3.988281 9.265625 1.527344 Z M 9.265625 1.527344 "/>
<path style=" stroke:none;fill-rule:nonzero;fill:rgb(32.549021%,84.313726%,58.431375%);fill-opacity:1;" d="M 4.507812 3.878906 C 2.578125 5.640625 1.371094 8.171875 1.371094 11 C 1.371094 15.742188 4.765625 19.660156 9.265625 20.472656 C 6.929688 18.007812 5.5 14.675781 5.5 11 C 5.5 8.800781 6.011719 6.726562 6.921875 4.886719 C 6.078125 4.628906 5.269531 4.289062 4.507812 3.878906 Z M 4.507812 3.878906 "/>
<path style=" stroke:none;fill-rule:nonzero;fill:rgb(20.392157%,51.372552%,82.352942%);fill-opacity:1;" d="M 11 20.628906 C 8.492188 20.628906 6.214844 19.679688 4.503906 18.117188 C 6.4375 17.085938 8.648438 16.5 11 16.5 C 13.351562 16.5 15.5625 17.085938 17.492188 18.117188 C 15.785156 19.679688 13.507812 20.628906 11 20.628906 Z M 11 20.628906 "/>
<path style=" stroke:none;fill-rule:nonzero;fill:rgb(28.627452%,73.333335%,69.01961%);fill-opacity:1;" d="M 1.371094 11 C 1.375 15.742188 4.765625 19.660156 9.265625 20.472656 C 6.929688 18.007812 5.5 14.679688 5.5 11 Z M 1.371094 11 "/>
<path style=" stroke:none;fill-rule:nonzero;fill:rgb(21.568628%,54.11765%,86.666667%);fill-opacity:1;" d="M 11 20.628906 C 8.492188 20.628906 6.214844 19.679688 4.503906 18.117188 C 6.4375 17.085938 8.648438 16.5 11 16.5 Z M 11 20.628906 "/>
<path style=" stroke:none;fill-rule:nonzero;fill:rgb(25.098041%,63.137257%,78.431374%);fill-opacity:1;" d="M 6.925781 17.109375 C 6.082031 17.371094 5.273438 17.710938 4.507812 18.117188 C 5.8125 19.308594 7.449219 20.144531 9.265625 20.472656 C 8.328125 19.480469 7.535156 18.347656 6.925781 17.109375 Z M 6.925781 17.109375 "/>
<path style=" stroke:none;fill-rule:nonzero;fill:rgb(25.098041%,63.137257%,78.431374%);fill-opacity:1;" d="M 12.734375 1.527344 C 17.234375 2.339844 20.628906 6.257812 20.628906 11 C 20.628906 15.742188 17.234375 19.660156 12.734375 20.472656 C 15.070312 18.007812 16.5 14.675781 16.5 11 C 16.5 7.320312 15.070312 3.988281 12.734375 1.527344 Z M 12.734375 1.527344 "/>
<path style=" stroke:none;fill-rule:nonzero;fill:rgb(21.568628%,54.509807%,87.058824%);fill-opacity:1;" d="M 17.492188 3.878906 C 19.421875 5.640625 20.628906 8.171875 20.628906 11 C 20.628906 15.742188 17.234375 19.660156 12.734375 20.472656 C 15.070312 18.007812 16.5 14.675781 16.5 11 C 16.5 8.800781 15.988281 6.726562 15.078125 4.886719 C 15.921875 4.628906 16.730469 4.289062 17.492188 3.878906 Z M 17.492188 3.878906 "/>
<path style=" stroke:none;fill-rule:nonzero;fill:rgb(14.901961%,43.137255%,77.64706%);fill-opacity:1;" d="M 20.628906 11 C 20.625 15.742188 17.234375 19.660156 12.734375 20.472656 C 15.070312 18.007812 16.5 14.679688 16.5 11 Z M 20.628906 11 "/>
<path style=" stroke:none;fill-rule:nonzero;fill:rgb(11.764706%,38.431373%,70.980394%);fill-opacity:1;" d="M 15.074219 17.109375 C 15.917969 17.371094 16.726562 17.710938 17.492188 18.117188 C 16.1875 19.308594 14.550781 20.144531 12.734375 20.472656 C 13.671875 19.480469 14.464844 18.347656 15.074219 17.109375 Z M 15.074219 17.109375 "/>
<path style=" stroke:none;fill-rule:nonzero;fill:rgb(100%,100%,100%);fill-opacity:0.6;" d="M 11 1.375 C 5.683594 1.375 1.375 5.683594 1.375 11 C 1.375 11.058594 1.375 11.113281 1.378906 11.171875 C 1.46875 5.933594 5.742188 1.71875 11 1.71875 C 16.257812 1.71875 20.53125 5.933594 20.621094 11.171875 C 20.625 11.113281 20.625 11.058594 20.625 11 C 20.625 5.683594 16.316406 1.375 11 1.375 Z M 11 1.375 "/>
<path style=" stroke:none;fill-rule:nonzero;fill:rgb(0%,0%,0%);fill-opacity:0.2;" d="M 1.378906 11.257812 C 1.378906 11.34375 1.375 11.429688 1.375 11.515625 C 1.375 16.832031 5.683594 21.140625 11 21.140625 C 16.316406 21.140625 20.625 16.832031 20.625 11.515625 C 20.625 11.429688 20.621094 11.34375 20.621094 11.257812 C 20.484375 16.453125 16.230469 20.625 11 20.625 C 5.769531 20.625 1.515625 16.453125 1.378906 11.257812 Z M 1.378906 11.257812 "/>
<path style=" stroke:none;fill-rule:nonzero;fill:rgb(0%,0%,0%);fill-opacity:0.4;" d="M 1.378906 10.824219 C 1.378906 10.882812 1.375 10.9375 1.375 10.996094 C 1.375 16.3125 5.683594 20.621094 11 20.621094 C 16.316406 20.621094 20.625 16.3125 20.625 10.996094 C 20.625 10.9375 20.621094 10.882812 20.621094 10.824219 C 20.527344 16.0625 16.257812 20.28125 11 20.28125 C 5.742188 20.28125 1.472656 16.0625 1.378906 10.824219 Z M 1.378906 10.824219 "/>
<path style=" stroke:none;fill-rule:nonzero;fill:url(#linear0);" d="M 11 1.375 C 16.316406 1.375 20.625 5.683594 20.625 11 C 20.625 16.316406 16.316406 20.625 11 20.625 C 5.683594 20.625 1.375 16.316406 1.375 11 C 1.375 5.683594 5.683594 1.375 11 1.375 Z M 11 1.375 "/>
</g>
</svg>
