
<svg xmlns="http://www.w3.org/2000/svg" xmlns:xlink="http://www.w3.org/1999/xlink" width="22" height="22" viewBox="0 0 22 22" version="1.1">
<defs>
<linearGradient id="linear0" gradientUnits="userSpaceOnUse" x1="31.999998" y1="59.999996" x2="31.999998" y2="3.999999" gradientTransform="matrix(0.34375,0,0,0.34375,0,0.00000000000003908)">
<stop offset="0" style="stop-color:rgb(0%,0%,0%);stop-opacity:0.2;"/>
<stop offset="1" style="stop-color:rgb(100%,100%,100%);stop-opacity:0;"/>
</linearGradient>
</defs>
<g id="surface1">
<path style=" stroke:none;fill-rule:nonzero;fill:rgb(38.039216%,38.039216%,38.039216%);fill-opacity:0.996078;" d="M 11 1.375 C 10.042969 1.375 9.121094 1.515625 8.25 1.773438 L 8.25 7.917969 L 14.234375 1.929688 C 13.226562 1.570312 12.136719 1.375 11 1.375 Z M 6.875 2.296875 C 5.023438 3.171875 3.496094 4.621094 2.527344 6.417969 L 6.875 10.765625 Z M 15.582031 2.527344 L 11.234375 6.875 L 19.703125 6.875 C 18.828125 5.023438 17.378906 3.496094 15.582031 2.527344 Z M 1.929688 7.765625 C 1.570312 8.773438 1.375 9.863281 1.375 11 C 1.375 11.957031 1.515625 12.878906 1.773438 13.75 L 7.917969 13.75 Z M 14.082031 8.25 L 20.070312 14.234375 C 20.429688 13.226562 20.625 12.136719 20.625 11 C 20.625 10.042969 20.484375 9.121094 20.226562 8.25 Z M 15.125 11.234375 L 15.125 19.703125 C 16.976562 18.828125 18.503906 17.378906 19.472656 15.582031 Z M 13.75 14.082031 L 7.765625 20.070312 C 8.773438 20.429688 9.863281 20.625 11 20.625 C 11.957031 20.625 12.878906 20.484375 13.75 20.226562 Z M 2.296875 15.125 C 3.171875 16.976562 4.621094 18.503906 6.417969 19.472656 L 10.765625 15.125 Z M 2.296875 15.125 "/>
<path style=" stroke:none;fill-rule:nonzero;fill:rgb(16.078432%,71.372551%,96.470588%);fill-opacity:1;" d="M 11 7.5625 C 12.898438 7.5625 14.4375 9.101562 14.4375 11 C 14.4375 12.898438 12.898438 14.4375 11 14.4375 C 9.101562 14.4375 7.5625 12.898438 7.5625 11 C 7.5625 9.101562 9.101562 7.5625 11 7.5625 Z M 11 7.5625 "/>
<path style=" stroke:none;fill-rule:nonzero;fill:rgb(1.176471%,60.784316%,89.803922%);fill-opacity:1;" d="M 11 8.9375 C 12.140625 8.9375 13.0625 9.859375 13.0625 11 C 13.0625 12.140625 12.140625 13.0625 11 13.0625 C 9.859375 13.0625 8.9375 12.140625 8.9375 11 C 8.9375 9.859375 9.859375 8.9375 11 8.9375 Z M 11 8.9375 "/>
<path style=" stroke:none;fill-rule:nonzero;fill:rgb(0%,18.82353%,16.862746%);fill-opacity:0.4;" d="M 11 8.9375 C 9.855469 8.9375 8.9375 9.855469 8.9375 11 C 8.9375 11.058594 8.941406 11.113281 8.945312 11.171875 C 9.03125 10.109375 9.914062 9.28125 11 9.28125 C 12.085938 9.28125 12.96875 10.109375 13.054688 11.171875 C 13.058594 11.113281 13.0625 11.058594 13.0625 11 C 13.0625 9.855469 12.144531 8.9375 11 8.9375 Z M 11 8.9375 "/>
<path style=" stroke:none;fill-rule:nonzero;fill:rgb(98.431373%,100%,100%);fill-opacity:0.4;" d="M 11 13.40625 C 9.855469 13.40625 8.9375 12.488281 8.9375 11.34375 C 8.9375 11.285156 8.941406 11.226562 8.945312 11.171875 C 9.03125 12.234375 9.914062 13.0625 11 13.0625 C 12.085938 13.0625 12.96875 12.234375 13.054688 11.171875 C 13.058594 11.230469 13.0625 11.285156 13.0625 11.34375 C 13.0625 12.488281 12.144531 13.40625 11 13.40625 Z M 11 13.40625 "/>
<path style=" stroke:none;fill-rule:nonzero;fill:rgb(100%,100%,100%);fill-opacity:0.4;" d="M 11 7.5625 C 9.09375 7.5625 7.5625 9.09375 7.5625 11 C 7.5625 11.058594 7.5625 11.113281 7.566406 11.171875 C 7.65625 9.347656 9.152344 7.90625 11 7.90625 C 12.847656 7.90625 14.34375 9.347656 14.433594 11.171875 C 14.4375 11.113281 14.4375 11.058594 14.4375 11 C 14.4375 9.09375 12.90625 7.5625 11 7.5625 Z M 11 7.5625 "/>
<path style=" stroke:none;fill-rule:nonzero;fill:rgb(14.509805%,14.509805%,14.509805%);fill-opacity:0.4;" d="M 11 14.4375 C 9.09375 14.4375 7.5625 12.90625 7.5625 11 C 7.5625 10.941406 7.5625 10.886719 7.566406 10.828125 C 7.65625 12.652344 9.152344 14.09375 11 14.09375 C 12.847656 14.09375 14.34375 12.652344 14.433594 10.828125 C 14.433594 10.886719 14.4375 10.941406 14.4375 11 C 14.4375 12.90625 12.90625 14.4375 11 14.4375 Z M 11 14.4375 "/>
<path style=" stroke:none;fill-rule:nonzero;fill:rgb(100%,100%,100%);fill-opacity:0.4;" d="M 11 1.375 C 10.042969 1.375 9.121094 1.515625 8.25 1.773438 L 8.25 2.117188 C 9.121094 1.859375 10.042969 1.71875 11 1.71875 C 12.042969 1.71875 13.042969 1.882812 13.980469 2.1875 L 14.234375 1.929688 C 13.226562 1.570312 12.136719 1.375 11 1.375 Z M 6.875 2.296875 C 5.023438 3.171875 3.496094 4.621094 2.527344 6.417969 L 2.652344 6.539062 C 3.625 4.847656 5.097656 3.480469 6.875 2.640625 Z M 15.582031 2.527344 L 11.234375 6.875 L 11.578125 6.875 L 15.582031 2.871094 C 17.265625 3.78125 18.644531 5.175781 19.535156 6.875 L 19.703125 6.875 C 18.828125 5.023438 17.378906 3.496094 15.582031 2.527344 Z M 1.929688 7.765625 C 1.570312 8.773438 1.375 9.863281 1.375 11 C 1.375 11.03125 1.378906 11.0625 1.378906 11.09375 C 1.40625 10.046875 1.597656 9.042969 1.929688 8.109375 L 7.574219 13.75 L 7.917969 13.75 Z M 14.082031 8.25 L 14.425781 8.59375 L 20.226562 8.59375 C 20.46875 9.40625 20.605469 10.269531 20.621094 11.15625 C 20.621094 11.105469 20.625 11.054688 20.625 11 C 20.625 10.042969 20.484375 9.121094 20.226562 8.25 Z M 15.125 11.234375 L 15.125 11.578125 L 19.347656 15.804688 C 19.390625 15.730469 19.433594 15.65625 19.472656 15.582031 Z M 13.75 14.082031 L 7.765625 20.070312 C 7.847656 20.101562 7.9375 20.128906 8.023438 20.15625 L 13.75 14.425781 Z M 2.296875 15.125 C 2.351562 15.242188 2.40625 15.355469 2.464844 15.46875 L 10.421875 15.46875 L 10.765625 15.125 Z M 2.296875 15.125 "/>
<path style=" stroke:none;fill-rule:nonzero;fill:rgb(0%,0%,0%);fill-opacity:0.4;" d="M 13.980469 1.847656 L 8.25 7.578125 L 8.25 7.917969 L 14.234375 1.929688 C 14.152344 1.902344 14.066406 1.875 13.980469 1.847656 Z M 2.648438 6.199219 C 2.609375 6.273438 2.566406 6.34375 2.527344 6.417969 L 6.875 10.765625 L 6.875 10.425781 Z M 11.574219 6.535156 L 11.234375 6.875 L 19.703125 6.875 C 19.648438 6.761719 19.59375 6.648438 19.535156 6.535156 Z M 14.082031 8.25 L 20.070312 14.234375 C 20.429688 13.226562 20.625 12.136719 20.625 11 C 20.625 10.96875 20.621094 10.941406 20.621094 10.910156 C 20.59375 11.957031 20.402344 12.960938 20.070312 13.898438 L 14.421875 8.25 Z M 1.378906 10.84375 C 1.378906 10.898438 1.375 10.949219 1.375 11 C 1.375 11.957031 1.515625 12.878906 1.773438 13.75 L 7.917969 13.75 L 7.578125 13.410156 L 1.773438 13.410156 C 1.53125 12.597656 1.394531 11.734375 1.378906 10.84375 Z M 2.296875 15.125 C 3.171875 16.976562 4.621094 18.503906 6.417969 19.472656 L 10.765625 15.125 L 10.425781 15.125 L 6.417969 19.132812 C 4.730469 18.222656 3.351562 16.824219 2.464844 15.125 Z M 19.351562 15.460938 C 18.378906 17.15625 16.902344 18.523438 15.125 19.367188 L 15.125 19.703125 C 16.976562 18.828125 18.503906 17.378906 19.472656 15.582031 Z M 8.015625 19.816406 L 7.765625 20.070312 C 8.773438 20.429688 9.863281 20.625 11 20.625 C 11.957031 20.625 12.878906 20.484375 13.75 20.226562 L 13.75 19.890625 C 12.878906 20.148438 11.957031 20.285156 11 20.285156 C 9.957031 20.285156 8.957031 20.121094 8.015625 19.816406 Z M 8.015625 19.816406 "/>
<path style=" stroke:none;fill-rule:nonzero;fill:rgb(0%,0%,0%);fill-opacity:0.2;" d="M 13.847656 2.316406 L 8.25 7.917969 L 8.25 8.433594 L 14.234375 2.445312 C 14.109375 2.402344 13.980469 2.359375 13.847656 2.316406 Z M 2.714844 6.601562 C 2.648438 6.710938 2.585938 6.820312 2.527344 6.933594 L 6.875 11.28125 L 6.875 10.765625 Z M 11.75 6.875 L 11.234375 7.390625 L 19.703125 7.390625 C 19.621094 7.214844 19.535156 7.042969 19.441406 6.875 Z M 14.082031 8.765625 L 20.070312 14.75 C 20.429688 13.742188 20.625 12.652344 20.625 11.515625 C 20.625 11.4375 20.621094 11.359375 20.621094 11.28125 C 20.589844 12.316406 20.398438 13.308594 20.070312 14.234375 L 14.597656 8.765625 Z M 1.378906 11.234375 C 1.378906 11.328125 1.375 11.421875 1.375 11.515625 C 1.375 12.472656 1.515625 13.394531 1.773438 14.265625 L 7.917969 14.265625 L 7.402344 13.75 L 1.773438 13.75 C 1.535156 12.949219 1.402344 12.105469 1.378906 11.234375 Z M 7.574219 11.257812 C 7.566406 11.34375 7.5625 11.429688 7.5625 11.515625 C 7.5625 13.421875 9.09375 14.953125 11 14.953125 C 12.90625 14.953125 14.4375 13.421875 14.4375 11.515625 C 14.4375 11.429688 14.433594 11.34375 14.425781 11.257812 C 14.296875 13.039062 12.816406 14.4375 11 14.4375 C 9.183594 14.4375 7.703125 13.039062 7.574219 11.257812 Z M 2.296875 15.640625 C 3.171875 17.492188 4.621094 19.019531 6.417969 19.988281 L 10.765625 15.640625 L 10.25 15.640625 L 6.417969 19.472656 C 4.789062 18.59375 3.449219 17.261719 2.558594 15.640625 Z M 19.285156 15.914062 C 18.3125 17.554688 16.863281 18.882812 15.125 19.703125 L 15.125 20.21875 C 16.976562 19.34375 18.503906 17.894531 19.472656 16.097656 Z M 8.152344 20.199219 L 7.765625 20.585938 C 8.773438 20.945312 9.863281 21.140625 11 21.140625 C 11.957031 21.140625 12.878906 21 13.75 20.742188 L 13.75 20.226562 C 12.878906 20.484375 11.957031 20.625 11 20.625 C 10.007812 20.625 9.050781 20.476562 8.152344 20.199219 Z M 8.152344 20.199219 "/>
<path style=" stroke:none;fill-rule:nonzero;fill:url(#linear0);" d="M 11 1.375 C 10.042969 1.375 9.121094 1.515625 8.25 1.773438 L 8.25 7.917969 L 14.234375 1.929688 C 13.226562 1.570312 12.136719 1.375 11 1.375 Z M 6.875 2.296875 C 5.023438 3.171875 3.496094 4.621094 2.527344 6.417969 L 6.875 10.765625 Z M 15.582031 2.527344 L 11.234375 6.875 L 19.703125 6.875 C 18.828125 5.023438 17.378906 3.496094 15.582031 2.527344 Z M 11 7.5625 C 9.09375 7.5625 7.5625 9.09375 7.5625 11 C 7.5625 12.90625 9.09375 14.4375 11 14.4375 C 12.90625 14.4375 14.4375 12.90625 14.4375 11 C 14.4375 9.09375 12.90625 7.5625 11 7.5625 Z M 1.929688 7.765625 C 1.570312 8.773438 1.375 9.863281 1.375 11 C 1.375 11.957031 1.515625 12.878906 1.773438 13.75 L 7.917969 13.75 Z M 14.082031 8.25 L 20.070312 14.234375 C 20.429688 13.226562 20.625 12.136719 20.625 11 C 20.625 10.042969 20.484375 9.121094 20.226562 8.25 Z M 15.125 11.234375 L 15.125 19.703125 C 16.976562 18.828125 18.503906 17.378906 19.472656 15.582031 Z M 13.75 14.082031 L 7.765625 20.070312 C 8.773438 20.429688 9.863281 20.625 11 20.625 C 11.957031 20.625 12.878906 20.484375 13.75 20.226562 Z M 2.296875 15.125 C 3.171875 16.976562 4.621094 18.503906 6.417969 19.472656 L 10.765625 15.125 Z M 2.296875 15.125 "/>
</g>
</svg>
