
<svg xmlns="http://www.w3.org/2000/svg" xmlns:xlink="http://www.w3.org/1999/xlink" width="22" height="22" viewBox="0 0 22 22" version="1.1">
<defs>
<linearGradient id="linear0" gradientUnits="userSpaceOnUse" x1="10.054166" y1="-199.125" x2="10.054166" y2="-213.941666" gradientTransform="matrix(1.299213,0,0,1.299213,-0.000434698,279.330723)">
<stop offset="0" style="stop-color:rgb(0%,0%,0%);stop-opacity:0.2;"/>
<stop offset="1" style="stop-color:rgb(100%,100%,100%);stop-opacity:0;"/>
</linearGradient>
</defs>
<g id="surface1">
<path style=" stroke:none;fill-rule:nonzero;fill:rgb(61.176473%,80.000001%,39.607844%);fill-opacity:1;" d="M 2.75 1.375 L 19.25 1.375 C 20.011719 1.375 20.625 1.992188 20.625 2.75 L 20.625 19.25 C 20.625 20.007812 20.011719 20.625 19.25 20.625 L 2.75 20.625 C 1.992188 20.625 1.375 20.007812 1.375 19.25 L 1.375 2.75 C 1.375 1.992188 1.992188 1.375 2.75 1.375 Z M 2.75 1.375 "/>
<path style=" stroke:none;fill-rule:nonzero;fill:rgb(0%,0%,0%);fill-opacity:0.4;" d="M 1.375 18.90625 L 1.375 19.25 C 1.375 20.011719 1.988281 20.625 2.75 20.625 L 19.25 20.625 C 20.011719 20.625 20.625 20.011719 20.625 19.25 L 20.625 18.90625 C 20.625 19.667969 20.011719 20.28125 19.25 20.28125 L 2.75 20.28125 C 1.988281 20.28125 1.375 19.667969 1.375 18.90625 Z M 1.375 18.90625 "/>
<path style=" stroke:none;fill-rule:nonzero;fill:rgb(0%,0%,0%);fill-opacity:0.2;" d="M 1.375 19.25 L 1.375 19.765625 C 1.375 20.527344 1.988281 21.140625 2.75 21.140625 L 19.25 21.140625 C 20.011719 21.140625 20.625 20.527344 20.625 19.765625 L 20.625 19.25 C 20.625 20.011719 20.011719 20.625 19.25 20.625 L 2.75 20.625 C 1.988281 20.625 1.375 20.011719 1.375 19.25 Z M 1.375 19.25 "/>
<path style=" stroke:none;fill-rule:nonzero;fill:rgb(100%,100%,100%);fill-opacity:0.4;" d="M 2.75 1.375 C 1.988281 1.375 1.375 1.988281 1.375 2.75 L 1.375 3.089844 C 1.375 2.328125 1.988281 1.714844 2.75 1.714844 L 19.25 1.714844 C 20.011719 1.714844 20.625 2.328125 20.625 3.089844 L 20.625 2.75 C 20.625 1.988281 20.011719 1.375 19.25 1.375 Z M 2.75 1.375 "/>
<path style=" stroke:none;fill-rule:nonzero;fill:rgb(93.333334%,93.333334%,93.333334%);fill-opacity:1;" d="M 5.324219 10.328125 C 5.324219 10.328125 6.625 8.390625 9.214844 8.191406 L 9.214844 7.484375 C 6.34375 7.71875 3.859375 10.183594 3.859375 10.183594 C 3.859375 10.183594 5.269531 14.304688 9.214844 14.683594 L 9.214844 13.933594 C 6.316406 13.566406 5.324219 10.328125 5.324219 10.328125 Z M 9.214844 12.445312 L 9.214844 13.132812 C 7.027344 12.738281 6.417969 10.429688 6.417969 10.429688 C 6.417969 10.429688 7.46875 9.25 9.214844 9.058594 L 9.214844 9.808594 C 8.296875 9.699219 7.582031 10.566406 7.582031 10.566406 C 7.582031 10.566406 7.980469 12.027344 9.214844 12.445312 M 9.214844 6.1875 L 9.214844 7.484375 C 9.300781 7.480469 9.386719 7.472656 9.46875 7.472656 C 12.734375 7.359375 14.863281 10.183594 14.863281 10.183594 C 14.863281 10.183594 12.417969 13.191406 9.871094 13.191406 C 9.640625 13.191406 9.421875 13.167969 9.214844 13.132812 L 9.214844 13.9375 C 9.390625 13.957031 9.574219 13.972656 9.765625 13.972656 C 12.132812 13.972656 13.84375 12.746094 15.503906 11.296875 C 15.777344 11.519531 16.90625 12.0625 17.132812 12.300781 C 15.558594 13.636719 11.882812 14.714844 9.800781 14.714844 C 9.597656 14.714844 9.40625 14.703125 9.214844 14.683594 L 9.214844 15.8125 L 18.21875 15.8125 L 18.21875 6.1875 Z M 9.214844 9.058594 L 9.214844 8.191406 C 9.300781 8.183594 9.382812 8.179688 9.46875 8.175781 C 11.816406 8.101562 13.359375 10.222656 13.359375 10.222656 C 13.359375 10.222656 11.695312 12.558594 9.910156 12.558594 C 9.675781 12.5625 9.4375 12.523438 9.214844 12.445312 L 9.214844 9.8125 C 10.132812 9.921875 10.316406 10.332031 10.863281 11.257812 L 12.085938 10.214844 C 12.085938 10.214844 11.191406 9.03125 9.6875 9.03125 C 9.527344 9.03125 9.371094 9.042969 9.214844 9.058594 "/>
<path style=" stroke:none;fill-rule:nonzero;fill:rgb(100%,100%,100%);fill-opacity:0.8;" d="M 9.21875 6.1875 L 9.21875 6.53125 L 18.21875 6.53125 L 18.21875 6.1875 Z M 9.214844 7.484375 C 6.34375 7.71875 3.859375 10.179688 3.859375 10.179688 C 3.859375 10.179688 3.894531 10.277344 3.957031 10.429688 C 4.425781 9.996094 6.664062 8.039062 9.214844 7.828125 Z M 9.578125 8.175781 C 9.542969 8.175781 9.507812 8.175781 9.46875 8.175781 C 9.382812 8.179688 9.300781 8.183594 9.21875 8.191406 L 9.21875 8.535156 C 9.300781 8.527344 9.382812 8.523438 9.46875 8.519531 C 11.417969 8.457031 12.804688 9.902344 13.222656 10.398438 C 13.308594 10.289062 13.359375 10.21875 13.359375 10.21875 C 13.359375 10.21875 11.863281 8.167969 9.578125 8.175781 Z M 9.21875 9.058594 C 7.46875 9.25 6.417969 10.429688 6.417969 10.429688 C 6.417969 10.429688 6.445312 10.53125 6.503906 10.6875 C 6.785156 10.410156 7.753906 9.5625 9.21875 9.402344 Z M 9.21875 9.8125 L 9.21875 10.15625 C 10.132812 10.265625 10.3125 10.675781 10.863281 11.601562 L 12.085938 10.558594 C 12.085938 10.558594 12.023438 10.480469 11.910156 10.363281 L 10.863281 11.257812 C 10.3125 10.332031 10.132812 9.921875 9.21875 9.8125 Z M 14.71875 10.351562 C 14.164062 10.980469 12.058594 13.191406 9.871094 13.191406 C 9.640625 13.191406 9.421875 13.167969 9.21875 13.132812 L 9.21875 13.476562 C 9.421875 13.511719 9.640625 13.535156 9.871094 13.535156 C 12.417969 13.535156 14.863281 10.527344 14.863281 10.527344 C 14.863281 10.527344 14.808594 10.457031 14.71875 10.351562 Z M 5.410156 10.5625 C 5.355469 10.628906 5.324219 10.671875 5.324219 10.671875 C 5.324219 10.671875 6.316406 13.910156 9.21875 14.277344 L 9.21875 13.933594 C 6.78125 13.625 5.695312 11.300781 5.410156 10.5625 Z M 7.667969 10.816406 C 7.613281 10.871094 7.578125 10.910156 7.578125 10.910156 C 7.578125 10.910156 7.980469 12.367188 9.214844 12.789062 L 9.214844 12.445312 L 9.21875 12.445312 C 8.300781 12.132812 7.84375 11.25 7.667969 10.816406 Z M 16.910156 12.476562 C 15.234375 13.730469 11.792969 14.714844 9.800781 14.714844 C 9.597656 14.714844 9.40625 14.703125 9.21875 14.683594 L 9.21875 15.027344 C 9.40625 15.046875 9.597656 15.058594 9.800781 15.058594 C 11.882812 15.058594 15.558594 13.980469 17.132812 12.644531 C 17.089844 12.597656 17.011719 12.539062 16.910156 12.476562 Z M 16.910156 12.476562 "/>
<path style=" stroke:none;fill-rule:nonzero;fill:rgb(0%,0%,0%);fill-opacity:0.4;" d="M 9.621094 7.453125 C 9.570312 7.453125 9.519531 7.457031 9.46875 7.457031 C 9.386719 7.457031 9.300781 7.464844 9.21875 7.472656 L 9.21875 7.828125 C 9.300781 7.824219 9.386719 7.816406 9.46875 7.816406 C 12.238281 7.71875 14.179688 9.726562 14.710938 10.34375 C 14.804688 10.238281 14.863281 10.167969 14.863281 10.167969 C 14.863281 10.167969 12.800781 7.433594 9.621094 7.453125 Z M 9.214844 8.175781 C 6.625 8.375 5.324219 10.316406 5.324219 10.316406 C 5.324219 10.316406 5.355469 10.410156 5.414062 10.554688 C 5.738281 10.136719 7.003906 8.703125 9.214844 8.535156 Z M 9.6875 9.019531 C 9.527344 9.019531 9.371094 9.027344 9.21875 9.046875 L 9.21875 9.402344 C 9.371094 9.386719 9.527344 9.375 9.6875 9.375 C 10.796875 9.375 11.574219 10.019531 11.902344 10.355469 L 12.085938 10.203125 C 12.085938 10.203125 11.191406 9.019531 9.6875 9.019531 Z M 9.042969 9.785156 C 8.210938 9.789062 7.578125 10.554688 7.578125 10.554688 C 7.578125 10.554688 7.609375 10.65625 7.671875 10.8125 C 7.890625 10.585938 8.488281 10.066406 9.214844 10.152344 L 9.21875 10.152344 L 9.21875 9.796875 L 9.214844 9.796875 C 9.15625 9.789062 9.097656 9.785156 9.042969 9.785156 Z M 13.21875 10.390625 C 12.785156 10.9375 11.390625 12.546875 9.910156 12.546875 C 9.675781 12.546875 9.4375 12.507812 9.21875 12.433594 L 9.21875 12.789062 C 9.4375 12.867188 9.675781 12.90625 9.910156 12.902344 C 11.695312 12.902344 13.359375 10.566406 13.359375 10.566406 C 13.359375 10.566406 13.308594 10.496094 13.21875 10.390625 Z M 3.960938 10.429688 C 3.898438 10.484375 3.859375 10.523438 3.859375 10.523438 C 3.859375 10.523438 5.269531 14.648438 9.21875 15.027344 L 9.21875 14.671875 C 5.859375 14.347656 4.34375 11.328125 3.960938 10.429688 Z M 6.507812 10.683594 C 6.449219 10.738281 6.417969 10.773438 6.417969 10.773438 C 6.417969 10.773438 7.027344 13.082031 9.214844 13.476562 L 9.214844 13.117188 C 7.480469 12.804688 6.742188 11.296875 6.507812 10.683594 Z M 15.503906 11.28125 C 13.84375 12.730469 12.132812 13.957031 9.765625 13.957031 C 9.574219 13.957031 9.390625 13.945312 9.21875 13.921875 L 9.21875 14.28125 C 9.390625 14.300781 9.574219 14.316406 9.765625 14.316406 C 12.132812 14.316406 13.84375 13.089844 15.503906 11.640625 C 15.722656 11.820312 16.488281 12.203125 16.902344 12.46875 C 16.984375 12.410156 17.0625 12.347656 17.132812 12.285156 C 16.902344 12.046875 15.777344 11.503906 15.503906 11.28125 Z M 9.214844 12.789062 L 9.214844 12.792969 L 9.21875 12.792969 C 9.214844 12.792969 9.214844 12.789062 9.214844 12.789062 Z M 9.21875 15.796875 L 9.21875 16.15625 L 18.21875 16.15625 L 18.21875 15.796875 Z M 9.21875 15.796875 "/>
<path style=" stroke:none;fill-rule:nonzero;fill:url(#linear0);" d="M 2.75 1.375 L 19.25 1.375 C 20.007812 1.375 20.625 1.992188 20.625 2.75 L 20.625 19.25 C 20.625 20.007812 20.007812 20.625 19.25 20.625 L 2.75 20.625 C 1.988281 20.625 1.375 20.007812 1.375 19.25 L 1.375 2.75 C 1.375 1.992188 1.988281 1.375 2.75 1.375 Z M 2.75 1.375 "/>
</g>
</svg>
