
<svg xmlns="http://www.w3.org/2000/svg" xmlns:xlink="http://www.w3.org/1999/xlink" width="22" height="22" viewBox="0 0 22 22" version="1.1">
<defs>
<linearGradient id="linear0" gradientUnits="userSpaceOnUse" x1="10.054166" y1="-199.125" x2="10.054166" y2="-213.941666" gradientTransform="matrix(1.299213,0,0,1.299213,-0.000434698,279.330723)">
<stop offset="0" style="stop-color:rgb(0%,0%,0%);stop-opacity:0.2;"/>
<stop offset="1" style="stop-color:rgb(100%,100%,100%);stop-opacity:0;"/>
</linearGradient>
</defs>
<g id="surface1">
<path style=" stroke:none;fill-rule:nonzero;fill:rgb(93.725491%,32.549021%,31.37255%);fill-opacity:1;" d="M 2.75 1.375 L 19.25 1.375 C 20.011719 1.375 20.625 1.992188 20.625 2.75 L 20.625 19.25 C 20.625 20.007812 20.011719 20.625 19.25 20.625 L 2.75 20.625 C 1.992188 20.625 1.375 20.007812 1.375 19.25 L 1.375 2.75 C 1.375 1.992188 1.992188 1.375 2.75 1.375 Z M 2.75 1.375 "/>
<path style=" stroke:none;fill-rule:nonzero;fill:rgb(0%,0%,0%);fill-opacity:0.4;" d="M 1.375 18.90625 L 1.375 19.25 C 1.375 20.011719 1.988281 20.625 2.75 20.625 L 19.25 20.625 C 20.011719 20.625 20.625 20.011719 20.625 19.25 L 20.625 18.90625 C 20.625 19.667969 20.011719 20.28125 19.25 20.28125 L 2.75 20.28125 C 1.988281 20.28125 1.375 19.667969 1.375 18.90625 Z M 1.375 18.90625 "/>
<path style=" stroke:none;fill-rule:nonzero;fill:rgb(0%,0%,0%);fill-opacity:0.2;" d="M 1.375 19.25 L 1.375 19.765625 C 1.375 20.527344 1.988281 21.140625 2.75 21.140625 L 19.25 21.140625 C 20.011719 21.140625 20.625 20.527344 20.625 19.765625 L 20.625 19.25 C 20.625 20.011719 20.011719 20.625 19.25 20.625 L 2.75 20.625 C 1.988281 20.625 1.375 20.011719 1.375 19.25 Z M 1.375 19.25 "/>
<path style=" stroke:none;fill-rule:nonzero;fill:rgb(100%,100%,100%);fill-opacity:0.4;" d="M 2.75 1.375 C 1.988281 1.375 1.375 1.988281 1.375 2.75 L 1.375 3.089844 C 1.375 2.328125 1.988281 1.714844 2.75 1.714844 L 19.25 1.714844 C 20.011719 1.714844 20.625 2.328125 20.625 3.089844 L 20.625 2.75 C 20.625 1.988281 20.011719 1.375 19.25 1.375 Z M 2.75 1.375 "/>
<path style=" stroke:none;fill-rule:nonzero;fill:rgb(93.333334%,93.333334%,93.333334%);fill-opacity:1;" d="M 14.90625 4.632812 C 14.8125 4.621094 14.710938 4.636719 14.621094 4.671875 L 6.1875 8.078125 L 1.375 6.273438 L 1.375 8.042969 L 6.1875 9.96875 L 15.3125 6.058594 C 15.441406 6 15.542969 5.894531 15.59375 5.761719 C 15.640625 5.628906 15.632812 5.484375 15.570312 5.359375 L 15.367188 4.953125 C 15.277344 4.777344 15.105469 4.65625 14.90625 4.632812 Z M 14.90625 8.070312 C 14.8125 8.058594 14.710938 8.074219 14.621094 8.109375 L 6.1875 11.515625 L 1.375 9.710938 L 1.375 11.480469 L 6.1875 13.40625 L 15.3125 9.496094 C 15.441406 9.4375 15.542969 9.332031 15.59375 9.199219 C 15.640625 9.066406 15.632812 8.921875 15.570312 8.796875 L 15.367188 8.390625 C 15.277344 8.214844 15.105469 8.09375 14.90625 8.070312 Z M 14.90625 11.507812 C 14.8125 11.496094 14.710938 11.511719 14.621094 11.546875 L 6.1875 14.953125 L 1.375 13.148438 L 1.375 14.917969 L 6.1875 16.84375 L 15.3125 12.933594 C 15.441406 12.875 15.542969 12.769531 15.59375 12.636719 C 15.640625 12.503906 15.632812 12.359375 15.570312 12.234375 L 15.367188 11.828125 C 15.277344 11.652344 15.105469 11.53125 14.90625 11.507812 Z M 14.90625 11.507812 "/>
<path style=" stroke:none;fill-rule:nonzero;fill:rgb(100%,100%,100%);fill-opacity:0.6;" d="M 14.90625 4.632812 C 14.8125 4.621094 14.710938 4.636719 14.621094 4.671875 L 6.1875 8.078125 L 1.375 6.273438 L 1.375 6.625 L 6.1875 8.429688 L 14.621094 5.023438 C 14.710938 4.988281 14.8125 4.972656 14.90625 4.984375 C 15.105469 5.007812 15.277344 5.128906 15.367188 5.304688 L 15.570312 5.710938 C 15.578125 5.726562 15.585938 5.742188 15.589844 5.761719 C 15.640625 5.628906 15.632812 5.484375 15.570312 5.359375 L 15.367188 4.953125 C 15.277344 4.777344 15.105469 4.65625 14.90625 4.632812 Z M 14.90625 8.070312 C 14.8125 8.058594 14.710938 8.074219 14.621094 8.109375 L 6.1875 11.515625 L 1.375 9.710938 L 1.375 10.0625 L 6.1875 11.867188 L 14.621094 8.460938 C 14.710938 8.425781 14.8125 8.410156 14.90625 8.421875 C 15.105469 8.445312 15.277344 8.566406 15.367188 8.742188 L 15.570312 9.148438 C 15.578125 9.164062 15.585938 9.179688 15.589844 9.199219 C 15.640625 9.066406 15.632812 8.921875 15.570312 8.796875 L 15.367188 8.390625 C 15.277344 8.214844 15.105469 8.09375 14.90625 8.070312 Z M 14.90625 11.507812 C 14.8125 11.496094 14.710938 11.511719 14.621094 11.546875 L 6.1875 14.953125 L 1.375 13.148438 L 1.375 13.5 L 6.1875 15.304688 L 14.621094 11.898438 C 14.710938 11.863281 14.8125 11.847656 14.90625 11.859375 C 15.105469 11.882812 15.277344 12.003906 15.367188 12.179688 L 15.570312 12.585938 C 15.578125 12.601562 15.585938 12.617188 15.589844 12.636719 C 15.640625 12.503906 15.632812 12.359375 15.570312 12.234375 L 15.367188 11.828125 C 15.277344 11.652344 15.105469 11.53125 14.90625 11.507812 Z M 14.90625 11.507812 "/>
<path style=" stroke:none;fill-rule:nonzero;fill:rgb(0%,0%,0%);fill-opacity:0.4;" d="M 15.59375 5.757812 C 15.546875 5.894531 15.445312 6 15.3125 6.058594 L 6.1875 9.96875 L 1.375 8.042969 L 1.375 8.386719 L 6.1875 10.3125 L 15.3125 6.402344 C 15.5625 6.292969 15.683594 6.011719 15.59375 5.757812 Z M 15.59375 9.195312 C 15.546875 9.332031 15.445312 9.4375 15.3125 9.496094 L 6.1875 13.40625 L 1.375 11.480469 L 1.375 11.824219 L 6.1875 13.75 L 15.3125 9.839844 C 15.5625 9.730469 15.683594 9.449219 15.59375 9.195312 Z M 15.59375 12.632812 C 15.546875 12.769531 15.445312 12.875 15.3125 12.933594 L 6.1875 16.84375 L 1.375 14.917969 L 1.375 15.261719 L 6.1875 17.1875 L 15.3125 13.277344 C 15.5625 13.167969 15.683594 12.886719 15.59375 12.632812 Z M 15.59375 12.632812 "/>
<path style=" stroke:none;fill-rule:nonzero;fill:url(#linear0);" d="M 2.75 1.375 L 19.25 1.375 C 20.007812 1.375 20.625 1.992188 20.625 2.75 L 20.625 19.25 C 20.625 20.007812 20.007812 20.625 19.25 20.625 L 2.75 20.625 C 1.988281 20.625 1.375 20.007812 1.375 19.25 L 1.375 2.75 C 1.375 1.992188 1.988281 1.375 2.75 1.375 Z M 2.75 1.375 "/>
</g>
</svg>
