
<svg xmlns="http://www.w3.org/2000/svg" xmlns:xlink="http://www.w3.org/1999/xlink" width="22" height="22" viewBox="0 0 22 22" version="1.1">
<defs>
<linearGradient id="linear0" gradientUnits="userSpaceOnUse" x1="8.466666" y1="-199.125" x2="8.466666" y2="-212.883331" gradientTransform="matrix(1.299213,0,0,1.299213,0,279.330723)">
<stop offset="0" style="stop-color:rgb(0%,0%,0%);stop-opacity:0.2;"/>
<stop offset="1" style="stop-color:rgb(100%,100%,100%);stop-opacity:0;"/>
</linearGradient>
<linearGradient id="linear1" gradientUnits="userSpaceOnUse" x1="31.999998" y1="60" x2="31.999998" y2="4" gradientTransform="matrix(0.34375,0,0,0.34375,-0.00000024418,0.00000000000003908)">
<stop offset="0" style="stop-color:rgb(0%,0%,0%);stop-opacity:0.2;"/>
<stop offset="1" style="stop-color:rgb(100%,100%,100%);stop-opacity:0;"/>
</linearGradient>
<linearGradient id="linear2" gradientUnits="userSpaceOnUse" x1="8.466666" y1="-199.125" x2="8.466666" y2="-213.941666" gradientTransform="matrix(1.299213,0,0,1.299213,0,279.330723)">
<stop offset="0" style="stop-color:rgb(0%,0%,0%);stop-opacity:0.2;"/>
<stop offset="1" style="stop-color:rgb(100%,100%,100%);stop-opacity:0;"/>
</linearGradient>
</defs>
<g id="surface1">
<path style=" stroke:none;fill-rule:nonzero;fill:rgb(38.039216%,38.039216%,38.039216%);fill-opacity:1;" d="M 19.460938 4.953125 C 21.015625 6.066406 21.015625 15.933594 19.460938 17.046875 C 17.902344 18.15625 4.097656 18.15625 2.539062 17.046875 C 0.984375 15.933594 0.984375 6.066406 2.539062 4.953125 C 4.097656 3.84375 17.902344 3.84375 19.460938 4.953125 Z M 19.460938 4.953125 "/>
<path style=" stroke:none;fill-rule:nonzero;fill:rgb(100%,100%,100%);fill-opacity:0.4;" d="M 11 4.121094 C 7.160156 4.121094 3.316406 4.398438 2.539062 4.953125 C 1.746094 5.519531 1.359375 8.371094 1.375 11.171875 C 1.390625 8.484375 1.777344 5.839844 2.539062 5.296875 C 4.097656 4.183594 17.902344 4.183594 19.460938 5.296875 C 20.222656 5.839844 20.609375 8.484375 20.625 11.171875 C 20.640625 8.371094 20.253906 5.519531 19.460938 4.953125 C 18.683594 4.398438 14.839844 4.121094 11 4.121094 Z M 11 4.121094 "/>
<path style=" stroke:none;fill-rule:nonzero;fill:rgb(4.313726%,4.313726%,4.313726%);fill-opacity:0.4;" d="M 11 17.875 C 7.160156 17.875 3.316406 17.597656 2.539062 17.042969 C 1.746094 16.472656 1.359375 13.625 1.375 10.824219 C 1.390625 13.511719 1.777344 16.15625 2.539062 16.699219 C 4.097656 17.8125 17.902344 17.8125 19.460938 16.699219 C 20.222656 16.15625 20.609375 13.511719 20.625 10.824219 C 20.640625 13.625 20.253906 16.472656 19.460938 17.042969 C 18.683594 17.597656 14.839844 17.875 11 17.875 Z M 11 17.875 "/>
<path style=" stroke:none;fill-rule:nonzero;fill:rgb(0%,0%,0%);fill-opacity:0.2;" d="M 1.375 11.257812 C 1.351562 14.085938 1.738281 16.984375 2.539062 17.554688 C 4.097656 18.667969 17.902344 18.667969 19.460938 17.554688 C 20.261719 16.984375 20.648438 14.085938 20.625 11.257812 C 20.601562 13.917969 20.214844 16.511719 19.460938 17.050781 C 17.902344 18.164062 4.097656 18.164062 2.539062 17.050781 C 1.785156 16.511719 1.398438 13.917969 1.375 11.257812 Z M 1.375 11.257812 "/>
<path style=" stroke:none;fill-rule:nonzero;fill:url(#linear0);" d="M 19.460938 4.953125 C 21.015625 6.066406 21.015625 15.933594 19.460938 17.046875 C 17.902344 18.15625 4.097656 18.15625 2.539062 17.046875 C 0.984375 15.933594 0.984375 6.066406 2.539062 4.953125 C 4.097656 3.84375 17.902344 3.84375 19.460938 4.953125 Z M 19.460938 4.953125 "/>
<path style=" stroke:none;fill-rule:nonzero;fill:rgb(93.333334%,93.333334%,93.333334%);fill-opacity:0.996078;" d="M 8.25 1.375 L 13.75 1.375 C 14.507812 1.375 15.125 1.992188 15.125 2.75 L 15.125 15.125 C 15.125 15.882812 14.507812 16.5 13.75 16.5 L 8.25 16.5 C 7.492188 16.5 6.875 15.882812 6.875 15.125 L 6.875 2.75 C 6.875 1.992188 7.492188 1.375 8.25 1.375 Z M 8.25 1.375 "/>
<path style=" stroke:none;fill-rule:nonzero;fill:rgb(40.000001%,73.333335%,41.568628%);fill-opacity:1;" d="M 10.171875 20.28125 L 3.578125 13.820312 C 3.285156 13.550781 3.476562 13.0625 3.875 13.0625 L 18.125 13.0625 C 18.523438 13.0625 18.714844 13.550781 18.421875 13.820312 L 11.828125 20.28125 C 11.375 20.726562 10.640625 20.710938 10.171875 20.28125 Z M 10.171875 20.28125 "/>
<path style=" stroke:none;fill-rule:nonzero;fill:rgb(100%,100%,100%);fill-opacity:0.4;" d="M 8.25 1.375 C 7.488281 1.375 6.875 1.988281 6.875 2.75 L 6.875 3.09375 C 6.875 2.332031 7.488281 1.71875 8.25 1.71875 L 13.75 1.71875 C 14.511719 1.71875 15.125 2.332031 15.125 3.09375 L 15.125 2.75 C 15.125 1.988281 14.511719 1.375 13.75 1.375 Z M 8.25 1.375 "/>
<path style=" stroke:none;fill-rule:nonzero;fill:rgb(100%,100%,100%);fill-opacity:0.4;" d="M 3.875 13.0625 C 3.539062 13.0625 3.351562 13.40625 3.472656 13.675781 C 3.535156 13.523438 3.679688 13.40625 3.875 13.40625 L 6.875 13.40625 L 6.875 13.0625 Z M 15.125 13.0625 L 15.125 13.40625 L 18.125 13.40625 C 18.320312 13.40625 18.464844 13.523438 18.527344 13.675781 C 18.648438 13.40625 18.460938 13.0625 18.125 13.0625 Z M 15.125 13.0625 "/>
<path style=" stroke:none;fill-rule:nonzero;fill:rgb(0%,0%,0%);fill-opacity:0.4;" d="M 3.472656 13.332031 C 3.40625 13.488281 3.429688 13.683594 3.578125 13.820312 L 10.171875 20.28125 C 10.640625 20.710938 11.375 20.726562 11.828125 20.28125 L 18.421875 13.820312 C 18.570312 13.683594 18.59375 13.488281 18.527344 13.332031 C 18.503906 13.382812 18.46875 13.433594 18.421875 13.476562 L 11.828125 19.9375 C 11.375 20.382812 10.640625 20.367188 10.171875 19.9375 L 3.578125 13.476562 C 3.53125 13.433594 3.496094 13.382812 3.472656 13.332031 Z M 3.472656 13.332031 "/>
<path style=" stroke:none;fill-rule:nonzero;fill:rgb(0%,0%,0%);fill-opacity:0.2;" d="M 3.519531 13.757812 C 3.402344 13.925781 3.398438 14.171875 3.578125 14.335938 L 10.171875 20.796875 C 10.640625 21.226562 11.375 21.242188 11.828125 20.796875 L 18.421875 14.335938 C 18.601562 14.171875 18.597656 13.925781 18.480469 13.757812 C 18.460938 13.78125 18.445312 13.800781 18.421875 13.820312 L 11.828125 20.28125 C 11.375 20.726562 10.640625 20.710938 10.171875 20.28125 L 3.578125 13.820312 C 3.554688 13.800781 3.539062 13.78125 3.519531 13.757812 Z M 3.519531 13.757812 "/>
<path style=" stroke:none;fill-rule:nonzero;fill:rgb(93.333334%,93.333334%,93.333334%);fill-opacity:1;" d="M 10.171875 20.28125 L 3.578125 13.820312 C 3.285156 13.550781 3.476562 13.0625 3.875 13.0625 L 18.125 13.0625 C 18.523438 13.0625 18.714844 13.550781 18.421875 13.820312 L 11.828125 20.28125 C 11.375 20.726562 10.640625 20.710938 10.171875 20.28125 Z M 10.171875 20.28125 "/>
<path style=" stroke:none;fill-rule:nonzero;fill:url(#linear1);" d="M 8.25 1.375 C 7.488281 1.375 6.875 1.988281 6.875 2.75 L 6.875 13.0625 L 3.875 13.0625 C 3.476562 13.0625 3.285156 13.550781 3.578125 13.820312 L 10.171875 20.28125 C 10.640625 20.710938 11.375 20.726562 11.828125 20.28125 L 18.421875 13.820312 C 18.714844 13.550781 18.523438 13.0625 18.125 13.0625 L 15.125 13.0625 L 15.125 2.75 C 15.125 1.988281 14.511719 1.375 13.75 1.375 Z M 8.25 1.375 "/>
<path style=" stroke:none;fill-rule:nonzero;fill:rgb(95.686275%,26.274511%,21.176471%);fill-opacity:1;" d="M 8.25 2.0625 C 7.855469 2.0625 7.5625 2.359375 7.5625 2.75 L 7.5625 13.0625 C 7.5625 13.246094 7.488281 13.421875 7.359375 13.550781 C 7.230469 13.679688 7.054688 13.75 6.875 13.75 L 4.488281 13.75 L 10.636719 19.773438 C 10.847656 19.96875 11.160156 19.972656 11.34375 19.792969 L 17.515625 13.75 L 15.125 13.75 C 14.945312 13.75 14.769531 13.679688 14.640625 13.550781 C 14.511719 13.421875 14.4375 13.246094 14.4375 13.0625 L 14.4375 2.75 C 14.4375 2.359375 14.144531 2.0625 13.75 2.0625 Z M 8.25 2.0625 "/>
<path style=" stroke:none;fill-rule:nonzero;fill:rgb(0%,0%,0%);fill-opacity:0.4;" d="M 8.25 2.0625 C 7.855469 2.0625 7.5625 2.359375 7.5625 2.75 L 7.5625 3.097656 C 7.5625 2.703125 7.855469 2.410156 8.25 2.410156 L 13.75 2.410156 C 14.144531 2.410156 14.4375 2.703125 14.4375 3.097656 L 14.4375 2.75 C 14.4375 2.359375 14.144531 2.0625 13.75 2.0625 Z M 7.5625 13.0625 C 7.5625 13.441406 7.253906 13.75 6.875 13.75 L 4.484375 13.75 L 4.839844 14.097656 L 6.875 14.097656 C 7.253906 14.097656 7.5625 13.789062 7.5625 13.410156 Z M 14.4375 13.0625 L 14.4375 13.410156 C 14.4375 13.789062 14.746094 14.097656 15.125 14.097656 L 17.160156 14.097656 L 17.515625 13.75 L 15.125 13.75 C 14.746094 13.75 14.4375 13.441406 14.4375 13.0625 Z M 14.4375 13.0625 "/>
<path style=" stroke:none;fill-rule:nonzero;fill:url(#linear2);" d="M 8.25 2.0625 C 7.855469 2.0625 7.5625 2.359375 7.5625 2.75 L 7.5625 13.0625 C 7.5625 13.246094 7.488281 13.421875 7.359375 13.550781 C 7.230469 13.679688 7.054688 13.75 6.875 13.75 L 4.488281 13.75 L 10.636719 19.773438 C 10.847656 19.96875 11.160156 19.972656 11.34375 19.792969 L 17.515625 13.75 L 15.125 13.75 C 14.945312 13.75 14.769531 13.679688 14.640625 13.550781 C 14.511719 13.421875 14.4375 13.246094 14.4375 13.0625 L 14.4375 2.75 C 14.4375 2.359375 14.144531 2.0625 13.75 2.0625 Z M 8.25 2.0625 "/>
<path style=" stroke:none;fill-rule:nonzero;fill:rgb(100%,100%,100%);fill-opacity:0.4;" d="M 4.484375 14.101562 L 10.632812 20.125 C 10.847656 20.316406 11.160156 20.320312 11.34375 20.140625 L 17.515625 14.101562 L 17.164062 14.101562 L 11.34375 19.796875 C 11.160156 19.976562 10.847656 19.972656 10.632812 19.78125 L 4.835938 14.101562 Z M 4.484375 14.101562 "/>
</g>
</svg>
