
<svg xmlns="http://www.w3.org/2000/svg" xmlns:xlink="http://www.w3.org/1999/xlink" width="48" height="48" viewBox="0 0 48 48" version="1.1">
<defs>
<linearGradient id="linear0" gradientUnits="userSpaceOnUse" x1="34" y1="59.999996" x2="34" y2="4" gradientTransform="matrix(0.75,0,0,0.75,0,0.000000000000085265)">
<stop offset="0" style="stop-color:rgb(0%,0%,0%);stop-opacity:0.2;"/>
<stop offset="1" style="stop-color:rgb(100%,100%,100%);stop-opacity:0;"/>
</linearGradient>
</defs>
<g id="surface1">
<path style=" stroke:none;fill-rule:nonzero;fill:rgb(93.333334%,93.333334%,93.333334%);fill-opacity:1;" d="M 30 18 C 36.628906 18 42 23.371094 42 30 C 42 36.628906 36.628906 42 30 42 C 23.371094 42 18 36.628906 18 30 C 18 23.371094 23.371094 18 30 18 Z M 30 18 "/>
<path style=" stroke:none;fill-rule:nonzero;fill:rgb(100%,43.921569%,26.274511%);fill-opacity:1;" d="M 18.054688 2.976562 C 17.140625 2.972656 16.242188 3.386719 15.648438 4.171875 C 14.648438 5.5 14.910156 7.375 16.238281 8.375 L 25.039062 15 L 6 15 C 4.339844 15 3 16.339844 3 18 C 3 19.660156 4.339844 21 6 21 L 17.785156 21 L 4.542969 34.242188 C 3.367188 35.417969 3.367188 37.3125 4.542969 38.484375 C 5.71875 39.660156 7.609375 39.660156 8.785156 38.484375 L 15.148438 32.125 C 16.175781 39.421875 22.410156 45 30 45 C 38.308594 45 45 38.308594 45 30 C 45 24.867188 42.445312 20.351562 38.535156 17.652344 L 19.847656 3.582031 C 19.308594 3.175781 18.679688 2.976562 18.054688 2.976562 Z M 30 21 C 31.910156 21 33.675781 21.589844 35.132812 22.597656 L 35.414062 22.808594 C 35.445312 22.835938 35.484375 22.859375 35.519531 22.882812 C 37.636719 24.527344 39 27.097656 39 30 C 39 34.984375 34.984375 39 30 39 C 25.015625 39 21 34.984375 21 30 C 21 27.644531 21.894531 25.507812 23.367188 23.90625 L 23.636719 23.636719 C 23.660156 23.613281 23.679688 23.585938 23.703125 23.558594 C 25.324219 21.976562 27.542969 21 30 21 Z M 30 21 "/>
<path style=" stroke:none;fill-rule:nonzero;fill:rgb(12.941177%,58.823532%,95.294118%);fill-opacity:1;" d="M 30 25.5 C 32.484375 25.5 34.5 27.515625 34.5 30 C 34.5 32.484375 32.484375 34.5 30 34.5 C 27.515625 34.5 25.5 32.484375 25.5 30 C 25.5 27.515625 27.515625 25.5 30 25.5 Z M 30 25.5 "/>
<path style=" stroke:none;fill-rule:nonzero;fill:rgb(100%,100%,100%);fill-opacity:0.4;" d="M 18.054688 2.976562 C 17.140625 2.972656 16.242188 3.386719 15.648438 4.171875 C 15.15625 4.824219 14.976562 5.605469 15.070312 6.347656 C 15.132812 5.847656 15.320312 5.355469 15.648438 4.921875 C 16.242188 4.136719 17.140625 3.722656 18.054688 3.726562 C 18.679688 3.726562 19.308594 3.925781 19.847656 4.332031 L 38.535156 18.402344 C 42.324219 21.019531 44.839844 25.335938 44.992188 30.269531 C 44.996094 30.179688 45 30.089844 45 30 C 45 24.867188 42.445312 20.351562 38.535156 17.652344 L 19.847656 3.582031 C 19.308594 3.175781 18.679688 2.976562 18.054688 2.976562 Z M 6 15 C 4.339844 15 3 16.339844 3 18 C 3 18.128906 3.011719 18.25 3.027344 18.375 C 3.210938 16.890625 4.464844 15.75 6 15.75 L 25.039062 15.75 L 24.042969 15 Z M 17.035156 21.75 L 4.542969 34.242188 C 3.871094 34.917969 3.59375 35.824219 3.695312 36.699219 C 3.78125 36.078125 4.0625 35.472656 4.542969 34.992188 L 17.785156 21.75 Z M 21.011719 30.265625 C 21.003906 30.425781 21 30.585938 21 30.75 C 21 35.734375 25.015625 39.75 30 39.75 C 34.984375 39.75 39 35.734375 39 30.75 C 39 30.589844 38.996094 30.425781 38.988281 30.269531 C 38.84375 35.128906 34.894531 39 30 39 C 25.105469 39 21.152344 35.125 21.011719 30.265625 Z M 21.011719 30.265625 "/>
<path style=" stroke:none;fill-rule:nonzero;fill:rgb(0%,0%,0%);fill-opacity:0.4;" d="M 15.070312 5.648438 C 14.960938 6.667969 15.359375 7.710938 16.238281 8.375 L 24.035156 14.246094 L 25.039062 14.246094 L 16.238281 7.621094 C 15.578125 7.121094 15.179688 6.40625 15.070312 5.648438 Z M 3.027344 17.621094 C 3.011719 17.746094 3 17.871094 3 18 C 3 19.660156 4.339844 21 6 21 L 17.03125 21 L 17.785156 20.246094 L 6 20.246094 C 4.464844 20.246094 3.210938 19.105469 3.027344 17.621094 Z M 30 20.246094 C 27.542969 20.246094 25.324219 21.222656 23.703125 22.804688 C 23.679688 22.832031 23.660156 22.855469 23.636719 22.882812 L 23.367188 23.152344 C 21.894531 24.753906 21 26.890625 21 29.246094 C 21 29.40625 21.003906 29.566406 21.011719 29.726562 C 21.082031 27.480469 21.953125 25.445312 23.367188 23.90625 L 23.636719 23.636719 C 23.660156 23.613281 23.679688 23.585938 23.703125 23.558594 C 25.324219 21.976562 27.542969 21 30 21 C 31.910156 21 33.675781 21.589844 35.132812 22.597656 L 35.414062 22.808594 C 35.445312 22.835938 35.484375 22.859375 35.519531 22.882812 C 37.554688 24.460938 38.886719 26.894531 38.988281 29.652344 C 38.996094 29.519531 39 29.382812 39 29.246094 C 39 26.34375 37.636719 23.773438 35.519531 22.128906 C 35.484375 22.105469 35.445312 22.082031 35.414062 22.054688 L 35.132812 21.84375 C 33.675781 20.835938 31.910156 20.246094 30 20.246094 Z M 44.992188 29.734375 C 44.734375 37.816406 38.148438 44.246094 30 44.246094 C 22.410156 44.246094 16.175781 38.667969 15.148438 31.371094 L 8.785156 37.730469 C 7.609375 38.90625 5.71875 38.90625 4.542969 37.730469 C 4.0625 37.25 3.78125 36.648438 3.695312 36.023438 C 3.597656 36.902344 3.871094 37.8125 4.542969 38.484375 C 5.71875 39.660156 7.609375 39.660156 8.785156 38.484375 L 15.148438 32.125 C 16.175781 39.421875 22.410156 45 30 45 C 38.308594 45 45 38.308594 45 30 C 45 29.910156 44.992188 29.824219 44.992188 29.734375 Z M 44.992188 29.734375 "/>
<path style=" stroke:none;fill-rule:nonzero;fill:rgb(100%,100%,100%);fill-opacity:0.4;" d="M 30 25.5 C 27.507812 25.5 25.5 27.507812 25.5 30 C 25.5 30.125 25.507812 30.25 25.515625 30.375 C 25.707031 28.058594 27.632812 26.25 30 26.25 C 32.367188 26.25 34.292969 28.058594 34.484375 30.375 C 34.492188 30.25 34.5 30.125 34.5 30 C 34.5 27.507812 32.492188 25.5 30 25.5 Z M 30 25.5 "/>
<path style=" stroke:none;fill-rule:nonzero;fill:rgb(0%,0%,0%);fill-opacity:0.4;" d="M 30 35.25 C 27.507812 35.25 25.5 33.242188 25.5 30.75 C 25.5 30.625 25.507812 30.5 25.515625 30.375 C 25.707031 32.691406 27.632812 34.5 30 34.5 C 32.367188 34.5 34.292969 32.691406 34.484375 30.375 C 34.492188 30.5 34.5 30.625 34.5 30.75 C 34.5 33.242188 32.492188 35.25 30 35.25 Z M 30 35.25 "/>
<path style=" stroke:none;fill-rule:nonzero;fill:url(#linear0);" d="M 18.054688 2.976562 C 17.140625 2.972656 16.242188 3.386719 15.648438 4.171875 C 14.648438 5.5 14.910156 7.375 16.238281 8.375 L 25.039062 15 L 6 15 C 4.339844 15 3 16.339844 3 18 C 3 19.660156 4.339844 21 6 21 L 17.785156 21 L 4.542969 34.242188 C 3.367188 35.417969 3.367188 37.3125 4.542969 38.484375 C 5.71875 39.660156 7.609375 39.660156 8.785156 38.484375 L 15.148438 32.125 C 16.175781 39.421875 22.410156 45 30 45 C 38.308594 45 45 38.308594 45 30 C 45 24.867188 42.445312 20.351562 38.535156 17.652344 L 19.847656 3.582031 C 19.308594 3.175781 18.679688 2.976562 18.054688 2.976562 Z M 18.054688 2.976562 "/>
<path style=" stroke:none;fill-rule:nonzero;fill:rgb(0%,0%,0%);fill-opacity:0.2;" d="M 15.097656 6.550781 C 14.886719 7.640625 15.289062 8.804688 16.238281 9.519531 L 23.519531 15 L 25.039062 15 L 16.238281 8.375 C 15.621094 7.910156 15.234375 7.253906 15.097656 6.550781 Z M 3.054688 18.570312 C 3.019531 18.757812 3 18.949219 3 19.144531 C 3 20.804688 4.339844 22.144531 6 22.144531 L 16.640625 22.144531 L 17.785156 21 L 6 21 C 4.535156 21 3.320312 19.957031 3.054688 18.570312 Z M 44.988281 30.574219 C 44.6875 38.617188 38.117188 45 30 45 C 22.410156 45 16.175781 39.421875 15.148438 32.125 L 8.785156 38.484375 C 7.609375 39.660156 5.71875 39.660156 4.542969 38.484375 C 4.101562 38.046875 3.828125 37.503906 3.71875 36.9375 C 3.535156 37.878906 3.808594 38.894531 4.542969 39.628906 C 5.71875 40.804688 7.609375 40.804688 8.785156 39.628906 L 15.148438 33.269531 C 16.175781 40.566406 22.410156 46.144531 30 46.144531 C 38.308594 46.144531 45 39.453125 45 31.144531 C 45 30.953125 44.996094 30.761719 44.988281 30.574219 Z M 44.988281 30.574219 "/>
</g>
</svg>
