
<svg xmlns="http://www.w3.org/2000/svg" xmlns:xlink="http://www.w3.org/1999/xlink" width="48" height="48" viewBox="0 0 48 48" version="1.1">
<defs>
<linearGradient id="linear0" gradientUnits="userSpaceOnUse" x1="8.466666" y1="-199.125" x2="8.466666" y2="-213.941666" gradientTransform="matrix(2.834646,0,0,2.834646,-1.5,609.448851)">
<stop offset="0" style="stop-color:rgb(0%,0%,0%);stop-opacity:0.2;"/>
<stop offset="1" style="stop-color:rgb(100%,100%,100%);stop-opacity:0;"/>
</linearGradient>
<linearGradient id="linear1" gradientUnits="userSpaceOnUse" x1="32" y1="59.999996" x2="31.999998" y2="3.999999" gradientTransform="matrix(0.75,0,0,0.75,0,0.000000000000085265)">
<stop offset="0" style="stop-color:rgb(0%,0%,0%);stop-opacity:0.2;"/>
<stop offset="1" style="stop-color:rgb(100%,100%,100%);stop-opacity:0;"/>
</linearGradient>
<linearGradient id="linear2" gradientUnits="userSpaceOnUse" x1="6.35" y1="-202.035416" x2="5.820833" y2="-202.829163" gradientTransform="matrix(2.834646,0,0,2.834646,0,609.448851)">
<stop offset="0" style="stop-color:rgb(0.784314%,0.784314%,0.784314%);stop-opacity:0.4;"/>
<stop offset="1" style="stop-color:rgb(100%,100%,100%);stop-opacity:0;"/>
</linearGradient>
</defs>
<g id="surface1">
<path style=" stroke:none;fill-rule:nonzero;fill:rgb(87.843138%,87.843138%,87.843138%);fill-opacity:1;" d="M 9 3 L 39 3 C 40.65625 3 42 4.34375 42 6 L 42 42 C 42 43.65625 40.65625 45 39 45 L 9 45 C 7.34375 45 6 43.65625 6 42 L 6 6 C 6 4.34375 7.34375 3 9 3 Z M 9 3 "/>
<path style=" stroke:none;fill-rule:nonzero;fill:rgb(38.039216%,38.039216%,38.039216%);fill-opacity:1;" d="M 9.75 4.5 L 38.25 4.5 C 39.492188 4.5 40.5 5.507812 40.5 6.75 L 40.5 41.25 C 40.5 42.492188 39.492188 43.5 38.25 43.5 L 9.75 43.5 C 8.507812 43.5 7.5 42.492188 7.5 41.25 L 7.5 6.75 C 7.5 5.507812 8.507812 4.5 9.75 4.5 Z M 9.75 4.5 "/>
<path style=" stroke:none;fill-rule:nonzero;fill:rgb(100%,100%,100%);fill-opacity:0.6;" d="M 7.5 41.25 L 7.5 41.625 C 7.5 42.871094 8.503906 43.875 9.75 43.875 L 38.25 43.875 C 39.496094 43.875 40.5 42.871094 40.5 41.625 L 40.5 41.25 C 40.5 42.496094 39.496094 43.5 38.25 43.5 L 9.75 43.5 C 8.503906 43.5 7.5 42.496094 7.5 41.25 Z M 7.5 41.25 "/>
<path style=" stroke:none;fill-rule:nonzero;fill:rgb(0%,0%,0%);fill-opacity:0.4;" d="M 7.5 7.128906 L 7.5 6.753906 C 7.5 5.503906 8.503906 4.503906 9.75 4.503906 L 38.25 4.503906 C 39.496094 4.503906 40.5 5.503906 40.5 6.753906 L 40.5 7.128906 C 40.5 5.878906 39.496094 4.878906 38.25 4.878906 L 9.75 4.878906 C 8.503906 4.878906 7.5 5.878906 7.5 7.128906 Z M 7.5 7.128906 "/>
<path style=" stroke:none;fill-rule:nonzero;fill:rgb(100%,100%,100%);fill-opacity:0.4;" d="M 9 3 C 7.339844 3 6 4.339844 6 6 L 6 6.742188 C 6 5.078125 7.339844 3.742188 9 3.742188 L 39 3.742188 C 40.660156 3.742188 42 5.078125 42 6.742188 L 42 6 C 42 4.339844 40.660156 3 39 3 Z M 9 3 "/>
<path style=" stroke:none;fill-rule:nonzero;fill:rgb(0.784314%,0.784314%,0.784314%);fill-opacity:0.4;" d="M 9 44.992188 C 7.339844 44.992188 6 43.652344 6 41.992188 L 6 41.25 C 6 42.910156 7.339844 44.25 9 44.25 L 39 44.25 C 40.660156 44.25 42 42.910156 42 41.25 L 42 41.992188 C 42 43.652344 40.660156 44.992188 39 44.992188 Z M 9 44.992188 "/>
<path style=" stroke:none;fill-rule:nonzero;fill:rgb(0%,0%,0%);fill-opacity:0.2;" d="M 6 42 L 6 43.125 C 6 44.785156 7.339844 46.125 9 46.125 L 39 46.125 C 40.660156 46.125 42 44.785156 42 43.125 L 42 42 C 42 43.660156 40.660156 45 39 45 L 9 45 C 7.339844 45 6 43.660156 6 42 Z M 6 42 "/>
<path style=" stroke:none;fill-rule:nonzero;fill:rgb(93.333334%,93.333334%,93.333334%);fill-opacity:0.996078;" d="M 19.5 6 L 28.5 6 L 28.5 12 L 19.5 12 Z M 19.5 6 "/>
<path style=" stroke:none;fill-rule:nonzero;fill:rgb(93.333334%,93.333334%,93.333334%);fill-opacity:0.996078;" d="M 9 13.5 L 18 13.5 L 18 19.5 L 9 19.5 Z M 9 13.5 "/>
<path style=" stroke:none;fill-rule:nonzero;fill:rgb(93.333334%,93.333334%,93.333334%);fill-opacity:0.996078;" d="M 19.5 13.5 L 28.5 13.5 L 28.5 19.5 L 19.5 19.5 Z M 19.5 13.5 "/>
<path style=" stroke:none;fill-rule:nonzero;fill:rgb(93.333334%,93.333334%,93.333334%);fill-opacity:0.996078;" d="M 30 13.5 L 39 13.5 L 39 19.5 L 30 19.5 Z M 30 13.5 "/>
<path style=" stroke:none;fill-rule:nonzero;fill:rgb(93.333334%,93.333334%,93.333334%);fill-opacity:0.996078;" d="M 10.5 6 C 9.667969 6 9 6.667969 9 7.5 L 9 12 L 18 12 L 18 6 Z M 10.5 6 "/>
<path style=" stroke:none;fill-rule:nonzero;fill:rgb(25.882354%,64.705884%,96.078432%);fill-opacity:0.992157;" d="M 9 21 L 18 21 L 18 27 L 9 27 Z M 9 21 "/>
<path style=" stroke:none;fill-rule:nonzero;fill:rgb(25.882354%,64.705884%,96.078432%);fill-opacity:0.992157;" d="M 19.5 21 L 28.5 21 L 28.5 27 L 19.5 27 Z M 19.5 21 "/>
<path style=" stroke:none;fill-rule:nonzero;fill:rgb(93.333334%,93.333334%,93.333334%);fill-opacity:0.996078;" d="M 30 21 L 39 21 L 39 27 L 30 27 Z M 30 21 "/>
<path style=" stroke:none;fill-rule:nonzero;fill:rgb(93.333334%,93.333334%,93.333334%);fill-opacity:0.996078;" d="M 9 28.5 L 18 28.5 L 18 34.5 L 9 34.5 Z M 9 28.5 "/>
<path style=" stroke:none;fill-rule:nonzero;fill:rgb(25.882354%,64.705884%,96.078432%);fill-opacity:0.992157;" d="M 19.5 28.5 L 28.5 28.5 L 28.5 34.5 L 19.5 34.5 Z M 19.5 28.5 "/>
<path style=" stroke:none;fill-rule:nonzero;fill:rgb(93.333334%,93.333334%,93.333334%);fill-opacity:0.996078;" d="M 30 28.5 L 39 28.5 L 39 34.5 L 30 34.5 Z M 30 28.5 "/>
<path style=" stroke:none;fill-rule:nonzero;fill:rgb(93.333334%,93.333334%,93.333334%);fill-opacity:0.996078;" d="M 19.5 36 L 28.5 36 L 28.5 42 L 19.5 42 Z M 19.5 36 "/>
<path style=" stroke:none;fill-rule:nonzero;fill:rgb(93.333334%,93.333334%,93.333334%);fill-opacity:0.996078;" d="M 10.5 42 C 9.667969 42 9 41.332031 9 40.5 L 9 36 L 18 36 L 18 42 Z M 10.5 42 "/>
<path style=" stroke:none;fill-rule:nonzero;fill:rgb(93.333334%,93.333334%,93.333334%);fill-opacity:0.996078;" d="M 37.5 6 C 38.332031 6 39 6.667969 39 7.5 L 39 12 L 30 12 L 30 6 Z M 37.5 6 "/>
<path style=" stroke:none;fill-rule:nonzero;fill:rgb(93.333334%,93.333334%,93.333334%);fill-opacity:0.996078;" d="M 37.5 42 C 38.332031 42 39 41.332031 39 40.5 L 39 36 L 30 36 L 30 42 Z M 37.5 42 "/>
<path style=" stroke:none;fill-rule:nonzero;fill:rgb(8.235294%,8.235294%,8.235294%);fill-opacity:0.4;" d="M 9 12 L 9 12.75 L 18 12.75 L 18 12 Z M 19.5 12 L 19.5 12.75 L 28.5 12.75 L 28.5 12 Z M 30 12 L 30 12.75 L 39 12.75 L 39 12 Z M 9 19.5 L 9 20.25 L 18 20.25 L 18 19.5 Z M 19.5 19.5 L 19.5 20.25 L 28.5 20.25 L 28.5 19.5 Z M 30 19.5 L 30 20.25 L 39 20.25 L 39 19.5 Z M 30 27 L 30 27.75 L 39 27.75 L 39 27 Z M 9 34.5 L 9 35.25 L 18 35.25 L 18 34.5 Z M 30 34.5 L 30 35.25 L 39 35.25 L 39 34.5 Z M 9 40.5 L 9 41.25 C 9 42.082031 9.667969 42.75 10.5 42.75 L 18 42.75 L 18 42 L 10.5 42 C 9.667969 42 9 41.332031 9 40.5 Z M 39 40.5 C 39 41.332031 38.332031 42 37.5 42 L 30 42 L 30 42.75 L 37.5 42.75 C 38.332031 42.75 39 42.082031 39 41.25 Z M 19.5 42 L 19.5 42.75 L 28.5 42.75 L 28.5 42 Z M 19.5 42 "/>
<path style=" stroke:none;fill-rule:nonzero;fill:rgb(99.607843%,99.607843%,99.607843%);fill-opacity:0.6;" d="M 9 36.75 L 9 36 L 18 36 L 18 36.75 Z M 19.5 36.75 L 19.5 36 L 28.5 36 L 28.5 36.75 Z M 30 36.75 L 30 36 L 39 36 L 39 36.75 Z M 9 29.25 L 9 28.5 L 18 28.5 L 18 29.25 Z M 30 29.25 L 30 28.5 L 39 28.5 L 39 29.25 Z M 30 21.75 L 30 21 L 39 21 L 39 21.75 Z M 9 14.25 L 9 13.5 L 18 13.5 L 18 14.25 Z M 19.5 14.25 L 19.5 13.5 L 28.5 13.5 L 28.5 14.25 Z M 30 14.25 L 30 13.5 L 39 13.5 L 39 14.25 Z M 9 8.25 L 9 7.5 C 9 6.667969 9.667969 6 10.5 6 L 18 6 L 18 6.75 L 10.5 6.75 C 9.667969 6.75 9 7.417969 9 8.25 Z M 39 8.25 C 39 7.417969 38.332031 6.75 37.5 6.75 L 30 6.75 L 30 6 L 37.5 6 C 38.332031 6 39 6.667969 39 7.5 Z M 19.5 6.75 L 19.5 6 L 28.5 6 L 28.5 6.75 Z M 19.5 6.75 "/>
<path style=" stroke:none;fill-rule:nonzero;fill:rgb(0%,0%,0%);fill-opacity:0.4;" d="M 9 21 L 18 21 L 18 21.75 L 9 21.75 Z M 9 21 "/>
<path style=" stroke:none;fill-rule:nonzero;fill:rgb(0%,0%,0%);fill-opacity:0.4;" d="M 19.5 21 L 28.5 21 L 28.5 21.75 L 19.5 21.75 Z M 19.5 21 "/>
<path style=" stroke:none;fill-rule:nonzero;fill:rgb(0.392157%,0.392157%,0.392157%);fill-opacity:0.4;" d="M 19.5 28.5 L 28.5 28.5 L 28.5 29.25 L 19.5 29.25 Z M 19.5 28.5 "/>
<path style=" stroke:none;fill-rule:nonzero;fill:url(#linear0);" d="M 9 3 L 39 3 C 40.65625 3 42 4.34375 42 6 L 42 42 C 42 43.65625 40.65625 45 39 45 L 9 45 C 7.34375 45 6 43.65625 6 42 L 6 6 C 6 4.34375 7.34375 3 9 3 Z M 9 3 "/>
<path style=" stroke:none;fill-rule:nonzero;fill:rgb(99.607843%,99.607843%,99.607843%);fill-opacity:0.4;" d="M 9 27 L 18 27 L 18 27.75 L 9 27.75 Z M 9 27 "/>
<path style=" stroke:none;fill-rule:nonzero;fill:rgb(99.607843%,99.607843%,99.607843%);fill-opacity:0.4;" d="M 19.5 27 L 28.5 27 L 28.5 27.75 L 19.5 27.75 Z M 19.5 27 "/>
<path style=" stroke:none;fill-rule:nonzero;fill:rgb(99.607843%,99.607843%,99.607843%);fill-opacity:0.4;" d="M 19.5 34.5 L 28.5 34.5 L 28.5 35.25 L 19.5 35.25 Z M 19.5 34.5 "/>
<path style=" stroke:none;fill-rule:nonzero;fill:rgb(82.745099%,18.431373%,18.431373%);fill-opacity:1;" d="M 39.066406 16.425781 C 39.359375 16.71875 39.359375 17.191406 39.066406 17.484375 L 22.625 33.925781 L 16.792969 37.109375 L 38.535156 15.894531 Z M 39.066406 16.425781 "/>
<path style=" stroke:none;fill-rule:nonzero;fill:rgb(93.725491%,32.549021%,31.37255%);fill-opacity:1;" d="M 35.882812 13.242188 C 35.589844 12.949219 35.117188 12.949219 34.824219 13.242188 L 18.382812 29.683594 L 15.199219 35.515625 L 36.414062 13.773438 Z M 35.882812 13.242188 "/>
<path style=" stroke:none;fill-rule:nonzero;fill:rgb(95.686275%,26.274511%,21.176471%);fill-opacity:1;" d="M 36.414062 13.773438 L 38.535156 15.894531 L 20.503906 33.925781 L 18.382812 31.804688 Z M 36.414062 13.773438 "/>
<path style=" stroke:none;fill-rule:nonzero;fill:rgb(73.725492%,66.666669%,64.313728%);fill-opacity:1;" d="M 18.382812 29.683594 L 13.34375 38.433594 L 13.875 38.964844 L 22.625 33.925781 C 21.566406 34.457031 20.769531 33.660156 21.035156 33.394531 C 20.3125 33.519531 19.707031 33.128906 19.707031 32.070312 C 18.648438 32.601562 18.847656 31.207031 18.914062 30.742188 C 17.851562 31.273438 17.851562 30.742188 18.382812 29.683594 Z M 18.382812 29.683594 "/>
<path style=" stroke:none;fill-rule:nonzero;fill:rgb(38.039216%,38.039216%,38.039216%);fill-opacity:1;" d="M 14.882812 38.382812 C 14.394531 37.953125 13.941406 38.304688 13.882812 37.5 C 12.550781 39.230469 13.078125 39.757812 14.882812 38.382812 Z M 14.882812 38.382812 "/>
<path style=" stroke:none;fill-rule:nonzero;fill:url(#linear1);" d="M 35.355469 13.023438 C 35.164062 13.023438 34.96875 13.09375 34.824219 13.242188 L 18.382812 29.683594 L 13.878906 37.503906 C 12.550781 39.226562 13.078125 39.757812 14.875 38.386719 L 22.625 33.925781 L 39.066406 17.484375 C 39.359375 17.191406 39.359375 16.71875 39.066406 16.425781 L 35.882812 13.242188 C 35.738281 13.09375 35.546875 13.023438 35.355469 13.023438 Z M 35.355469 13.023438 "/>
<path style=" stroke:none;fill-rule:nonzero;fill:url(#linear2);" d="M 18.398438 29.675781 L 13.359375 38.425781 L 13.890625 38.957031 L 22.640625 33.917969 C 21.582031 34.449219 20.785156 33.652344 21.050781 33.386719 C 20.328125 33.511719 19.722656 33.121094 19.722656 32.0625 C 18.664062 32.589844 18.863281 31.199219 18.929688 30.734375 C 17.867188 31.265625 17.867188 30.734375 18.398438 29.675781 Z M 18.398438 29.675781 "/>
<path style=" stroke:none;fill-rule:nonzero;fill:rgb(0%,0%,0%);fill-opacity:0.4;" d="M 39.183594 17.324219 C 39.152344 17.382812 39.113281 17.4375 39.066406 17.484375 L 22.625 33.925781 L 14.875 38.386719 C 14.085938 38.988281 13.542969 39.222656 13.292969 39.152344 C 12.824219 40.109375 13.449219 40.222656 14.875 39.136719 L 22.625 34.671875 L 39.066406 18.234375 C 39.3125 17.988281 39.351562 17.613281 39.183594 17.324219 Z M 39.183594 17.324219 "/>
<path style=" stroke:none;fill-rule:nonzero;fill:rgb(100%,100%,100%);fill-opacity:0.4;" d="M 35.355469 13.023438 C 35.164062 13.023438 34.96875 13.09375 34.824219 13.242188 L 18.382812 29.683594 L 13.878906 37.503906 C 13.136719 38.472656 12.976562 39.0625 13.292969 39.152344 C 13.417969 38.90625 13.609375 38.605469 13.878906 38.253906 L 18.382812 30.433594 L 34.824219 13.992188 C 34.96875 13.84375 35.164062 13.773438 35.355469 13.773438 C 35.546875 13.773438 35.738281 13.84375 35.882812 13.992188 L 39.066406 17.175781 C 39.113281 17.222656 39.152344 17.273438 39.183594 17.328125 C 39.347656 17.039062 39.3125 16.667969 39.066406 16.425781 L 35.882812 13.242188 C 35.738281 13.09375 35.546875 13.023438 35.355469 13.023438 Z M 35.355469 13.023438 "/>
</g>
</svg>
