
<svg xmlns="http://www.w3.org/2000/svg" xmlns:xlink="http://www.w3.org/1999/xlink" width="24" height="24" viewBox="0 0 24 24" version="1.1">
<defs>
<linearGradient id="linear0" gradientUnits="userSpaceOnUse" x1="8.466666" y1="-199.125" x2="8.466666" y2="-213.941666" gradientTransform="matrix(1.417323,0,0,1.417323,0.000466528,304.724425)">
<stop offset="0" style="stop-color:rgb(0%,0%,0%);stop-opacity:0.2;"/>
<stop offset="1" style="stop-color:rgb(100%,100%,100%);stop-opacity:0;"/>
</linearGradient>
</defs>
<g id="surface1">
<path style=" stroke:none;fill-rule:nonzero;fill:rgb(25.882354%,64.705884%,96.078432%);fill-opacity:1;" d="M 3 1.5 L 21 1.5 C 21.828125 1.5 22.5 2.171875 22.5 3 L 22.5 21 C 22.5 21.828125 21.828125 22.5 21 22.5 L 3 22.5 C 2.171875 22.5 1.5 21.828125 1.5 21 L 1.5 3 C 1.5 2.171875 2.171875 1.5 3 1.5 Z M 3 1.5 "/>
<path style=" stroke:none;fill-rule:nonzero;fill:rgb(56.470591%,79.215688%,97.647059%);fill-opacity:1;" d="M 3.1875 6 L 20.8125 6 L 20.8125 6.1875 L 3.1875 6.1875 Z M 3.1875 6 "/>
<path style=" stroke:none;fill-rule:nonzero;fill:rgb(56.470591%,79.215688%,97.647059%);fill-opacity:1;" d="M 3.1875 4.5 L 20.8125 4.5 L 20.8125 4.6875 L 3.1875 4.6875 Z M 3.1875 4.5 "/>
<path style=" stroke:none;fill-rule:nonzero;fill:rgb(56.470591%,79.215688%,97.647059%);fill-opacity:1;" d="M 3.1875 9 L 20.8125 9 L 20.8125 9.1875 L 3.1875 9.1875 Z M 3.1875 9 "/>
<path style=" stroke:none;fill-rule:nonzero;fill:rgb(56.470591%,79.215688%,97.647059%);fill-opacity:1;" d="M 3.1875 7.5 L 20.8125 7.5 L 20.8125 7.6875 L 3.1875 7.6875 Z M 3.1875 7.5 "/>
<path style=" stroke:none;fill-rule:nonzero;fill:rgb(56.470591%,79.215688%,97.647059%);fill-opacity:1;" d="M 3.1875 12 L 20.8125 12 L 20.8125 12.1875 L 3.1875 12.1875 Z M 3.1875 12 "/>
<path style=" stroke:none;fill-rule:nonzero;fill:rgb(56.470591%,79.215688%,97.647059%);fill-opacity:1;" d="M 3.1875 10.5 L 20.8125 10.5 L 20.8125 10.6875 L 3.1875 10.6875 Z M 3.1875 10.5 "/>
<path style=" stroke:none;fill-rule:nonzero;fill:rgb(56.470591%,79.215688%,97.647059%);fill-opacity:1;" d="M 3.1875 15 L 20.8125 15 L 20.8125 15.1875 L 3.1875 15.1875 Z M 3.1875 15 "/>
<path style=" stroke:none;fill-rule:nonzero;fill:rgb(56.470591%,79.215688%,97.647059%);fill-opacity:1;" d="M 3.1875 13.5 L 20.8125 13.5 L 20.8125 13.6875 L 3.1875 13.6875 Z M 3.1875 13.5 "/>
<path style=" stroke:none;fill-rule:nonzero;fill:rgb(56.470591%,79.215688%,97.647059%);fill-opacity:1;" d="M 3.1875 18 L 20.8125 18 L 20.8125 18.1875 L 3.1875 18.1875 Z M 3.1875 18 "/>
<path style=" stroke:none;fill-rule:nonzero;fill:rgb(56.470591%,79.215688%,97.647059%);fill-opacity:1;" d="M 3.1875 16.5 L 20.8125 16.5 L 20.8125 16.6875 L 3.1875 16.6875 Z M 3.1875 16.5 "/>
<path style=" stroke:none;fill-rule:nonzero;fill:rgb(56.470591%,79.215688%,97.647059%);fill-opacity:1;" d="M 3.1875 19.5 L 20.8125 19.5 L 20.8125 19.6875 L 3.1875 19.6875 Z M 3.1875 19.5 "/>
<path style=" stroke:none;fill-rule:nonzero;fill:rgb(56.470591%,79.215688%,97.647059%);fill-opacity:1;" d="M 18.09375 3.1875 L 18.09375 20.8125 L 17.90625 20.8125 L 17.90625 3.1875 Z M 18.09375 3.1875 "/>
<path style=" stroke:none;fill-rule:nonzero;fill:rgb(56.470591%,79.215688%,97.647059%);fill-opacity:1;" d="M 19.59375 3.1875 L 19.59375 20.8125 L 19.40625 20.8125 L 19.40625 3.1875 Z M 19.59375 3.1875 "/>
<path style=" stroke:none;fill-rule:nonzero;fill:rgb(56.470591%,79.215688%,97.647059%);fill-opacity:1;" d="M 15.09375 3.1875 L 15.09375 20.8125 L 14.90625 20.8125 L 14.90625 3.1875 Z M 15.09375 3.1875 "/>
<path style=" stroke:none;fill-rule:nonzero;fill:rgb(56.470591%,79.215688%,97.647059%);fill-opacity:1;" d="M 16.59375 3.1875 L 16.59375 20.8125 L 16.40625 20.8125 L 16.40625 3.1875 Z M 16.59375 3.1875 "/>
<path style=" stroke:none;fill-rule:nonzero;fill:rgb(56.470591%,79.215688%,97.647059%);fill-opacity:1;" d="M 12.09375 3.1875 L 12.09375 20.8125 L 11.90625 20.8125 L 11.90625 3.1875 Z M 12.09375 3.1875 "/>
<path style=" stroke:none;fill-rule:nonzero;fill:rgb(56.470591%,79.215688%,97.647059%);fill-opacity:1;" d="M 13.59375 3.1875 L 13.59375 20.8125 L 13.40625 20.8125 L 13.40625 3.1875 Z M 13.59375 3.1875 "/>
<path style=" stroke:none;fill-rule:nonzero;fill:rgb(56.470591%,79.215688%,97.647059%);fill-opacity:1;" d="M 9.09375 3.1875 L 9.09375 20.8125 L 8.90625 20.8125 L 8.90625 3.1875 Z M 9.09375 3.1875 "/>
<path style=" stroke:none;fill-rule:nonzero;fill:rgb(56.470591%,79.215688%,97.647059%);fill-opacity:1;" d="M 10.59375 3.1875 L 10.59375 20.8125 L 10.40625 20.8125 L 10.40625 3.1875 Z M 10.59375 3.1875 "/>
<path style=" stroke:none;fill-rule:nonzero;fill:rgb(56.470591%,79.215688%,97.647059%);fill-opacity:1;" d="M 6.09375 3.1875 L 6.09375 20.8125 L 5.90625 20.8125 L 5.90625 3.1875 Z M 6.09375 3.1875 "/>
<path style=" stroke:none;fill-rule:nonzero;fill:rgb(56.470591%,79.215688%,97.647059%);fill-opacity:1;" d="M 7.59375 3.1875 L 7.59375 20.8125 L 7.40625 20.8125 L 7.40625 3.1875 Z M 7.59375 3.1875 "/>
<path style=" stroke:none;fill-rule:nonzero;fill:rgb(56.470591%,79.215688%,97.647059%);fill-opacity:1;" d="M 4.59375 3.1875 L 4.59375 20.8125 L 4.40625 20.8125 L 4.40625 3.1875 Z M 4.59375 3.1875 "/>
<path style=" stroke:none;fill-rule:nonzero;fill:rgb(56.470591%,79.215688%,97.647059%);fill-opacity:1;" d="M 3.75 3 C 3.335938 3 3 3.335938 3 3.75 L 3 20.25 C 3 20.664062 3.335938 21 3.75 21 L 20.25 21 C 20.664062 21 21 20.664062 21 20.25 L 21 3.75 C 21 3.335938 20.664062 3 20.25 3 Z M 3.710938 3.1875 L 20.289062 3.1875 C 20.578125 3.1875 20.8125 3.421875 20.8125 3.710938 L 20.8125 20.289062 C 20.8125 20.578125 20.578125 20.8125 20.289062 20.8125 L 3.710938 20.8125 C 3.421875 20.8125 3.1875 20.578125 3.1875 20.289062 L 3.1875 3.710938 C 3.1875 3.421875 3.421875 3.1875 3.710938 3.1875 Z M 3.710938 3.1875 "/>
<path style=" stroke:none;fill-rule:nonzero;fill:rgb(0%,0%,0%);fill-opacity:0.4;" d="M 1.5 20.625 L 1.5 21 C 1.5 21.832031 2.167969 22.5 3 22.5 L 21 22.5 C 21.832031 22.5 22.5 21.832031 22.5 21 L 22.5 20.625 C 22.5 21.457031 21.832031 22.125 21 22.125 L 3 22.125 C 2.167969 22.125 1.5 21.457031 1.5 20.625 Z M 1.5 20.625 "/>
<path style=" stroke:none;fill-rule:nonzero;fill:rgb(0%,0%,0%);fill-opacity:0.2;" d="M 1.5 21 L 1.5 21.5625 C 1.5 22.394531 2.167969 23.0625 3 23.0625 L 21 23.0625 C 21.832031 23.0625 22.5 22.394531 22.5 21.5625 L 22.5 21 C 22.5 21.832031 21.832031 22.5 21 22.5 L 3 22.5 C 2.167969 22.5 1.5 21.832031 1.5 21 Z M 1.5 21 "/>
<path style=" stroke:none;fill-rule:nonzero;fill:rgb(100%,100%,100%);fill-opacity:0.4;" d="M 3 1.5 C 2.167969 1.5 1.5 2.167969 1.5 3 L 1.5 3.367188 C 1.5 2.539062 2.167969 1.867188 3 1.867188 L 21 1.867188 C 21.832031 1.867188 22.5 2.539062 22.5 3.367188 L 22.5 3 C 22.5 2.167969 21.832031 1.5 21 1.5 Z M 3 1.5 "/>
<path style=" stroke:none;fill-rule:nonzero;fill:rgb(0%,0%,0%);fill-opacity:0.4;" d="M 22.03125 13.882812 C 21.734375 15.652344 20.761719 17.179688 19.378906 18.195312 L 19.53125 18.457031 C 20.925781 17.367188 21.878906 15.742188 22.082031 13.882812 Z M 15.375 14.257812 L 13.046875 18.289062 C 13.105469 18.3125 13.164062 18.335938 13.222656 18.359375 L 15.375 14.632812 L 17.527344 18.363281 C 17.585938 18.339844 17.644531 18.316406 17.703125 18.292969 Z M 12.667969 18.945312 L 11.523438 20.925781 C 11.390625 21.160156 11.152344 21.292969 10.90625 21.300781 L 9.929688 22.3125 C 9.910156 22.386719 9.894531 22.4375 9.875 22.5 L 10.113281 22.5 L 10.90625 21.675781 C 11.152344 21.667969 11.390625 21.535156 11.523438 21.300781 L 12.667969 19.320312 C 13.496094 19.683594 14.410156 19.882812 15.375 19.882812 C 16.339844 19.882812 17.253906 19.683594 18.082031 19.320312 L 19.226562 21.300781 C 19.363281 21.539062 19.605469 21.671875 19.859375 21.679688 C 20.117188 21.9375 20.429688 22.253906 20.664062 22.5 L 20.890625 22.5 L 20.839844 22.308594 C 20.609375 22.0625 20.191406 21.636719 19.859375 21.304688 C 19.605469 21.296875 19.363281 21.164062 19.226562 20.925781 L 18.082031 18.945312 C 17.253906 19.308594 16.339844 19.507812 15.375 19.507812 C 14.410156 19.507812 13.496094 19.308594 12.667969 18.945312 Z M 10.148438 20.738281 C 10.113281 20.871094 10.117188 21.007812 10.152344 21.136719 C 10.175781 21.0625 10.195312 20.984375 10.214844 20.914062 C 10.183594 20.859375 10.164062 20.800781 10.148438 20.738281 Z M 20.601562 20.738281 C 20.585938 20.792969 20.566406 20.847656 20.542969 20.898438 L 20.601562 21.109375 C 20.632812 20.992188 20.632812 20.863281 20.601562 20.738281 Z M 20.601562 20.738281 "/>
<path style=" stroke:none;fill-rule:nonzero;fill:rgb(61.960787%,61.960787%,61.960787%);fill-opacity:0.996078;" d="M 15 10.320312 L 15.75 10.320312 L 15.75 11.632812 L 15 11.632812 Z M 15 10.320312 "/>
<path style=" stroke:none;fill-rule:nonzero;fill:rgb(61.960787%,61.960787%,61.960787%);fill-opacity:1;" d="M 9.75 22.5 C 9.84375 22.335938 10.386719 20.269531 10.386719 20.269531 L 11.359375 20.832031 Z M 9.75 22.5 "/>
<path style=" stroke:none;fill-rule:nonzero;fill:rgb(74.117649%,74.117649%,74.117649%);fill-opacity:0.996078;" d="M 15.75 12.109375 C 16.105469 12.316406 16.230469 12.773438 16.023438 13.132812 L 11.523438 20.925781 C 11.316406 21.285156 10.855469 21.40625 10.5 21.199219 C 10.140625 20.992188 10.015625 20.535156 10.222656 20.175781 L 14.722656 12.382812 C 14.929688 12.023438 15.390625 11.902344 15.75 12.109375 Z M 15.75 12.109375 "/>
<path style=" stroke:none;fill-rule:nonzero;fill:rgb(61.960787%,61.960787%,61.960787%);fill-opacity:0.996078;" d="M 21.328125 13.507812 C 20.960938 16.476562 18.445312 18.757812 15.375 18.757812 C 14.007812 18.757812 12.753906 18.304688 11.746094 17.539062 L 11.367188 18.195312 C 12.488281 19.019531 13.871094 19.507812 15.375 19.507812 C 18.859375 19.507812 21.710938 16.890625 22.082031 13.507812 Z M 21.328125 13.507812 "/>
<path style=" stroke:none;fill-rule:nonzero;fill:rgb(74.117649%,74.117649%,74.117649%);fill-opacity:1;" d="M 21 22.5 C 20.90625 22.335938 19.386719 20.832031 19.386719 20.832031 L 20.363281 20.269531 Z M 21 22.5 "/>
<path style=" stroke:none;fill-rule:nonzero;fill:rgb(87.843138%,87.843138%,87.843138%);fill-opacity:0.996078;" d="M 15 12.109375 C 15.359375 11.902344 15.816406 12.023438 16.023438 12.382812 L 20.523438 20.175781 C 20.730469 20.535156 20.609375 20.992188 20.25 21.199219 C 19.890625 21.40625 19.433594 21.285156 19.226562 20.925781 L 14.726562 13.132812 C 14.519531 12.773438 14.640625 12.316406 15 12.109375 Z M 15 12.109375 "/>
<path style=" stroke:none;fill-rule:nonzero;fill:rgb(99.607843%,99.607843%,99.607843%);fill-opacity:0.4;" d="M 15.351562 12.007812 C 15.316406 12.007812 15.28125 12.011719 15.25 12.015625 C 15.25 12.015625 15.246094 12.015625 15.246094 12.015625 C 15.046875 12.050781 14.863281 12.167969 14.746094 12.347656 C 14.742188 12.355469 14.738281 12.359375 14.734375 12.363281 C 14.730469 12.371094 14.726562 12.375 14.722656 12.382812 L 11.746094 17.539062 L 11.367188 18.195312 L 10.222656 20.175781 C 10.121094 20.355469 10.101562 20.554688 10.148438 20.738281 C 10.164062 20.675781 10.1875 20.613281 10.222656 20.550781 L 11.367188 18.570312 L 11.746094 17.914062 L 14.722656 12.757812 C 14.726562 12.753906 14.730469 12.746094 14.734375 12.742188 C 14.738281 12.734375 14.742188 12.730469 14.746094 12.726562 C 14.863281 12.542969 15.046875 12.425781 15.246094 12.394531 C 15.246094 12.394531 15.25 12.390625 15.25 12.390625 C 15.28125 12.386719 15.316406 12.382812 15.351562 12.382812 C 15.363281 12.382812 15.378906 12.382812 15.390625 12.382812 C 15.390625 12.382812 15.390625 12.382812 15.394531 12.382812 C 15.417969 12.382812 15.441406 12.382812 15.464844 12.386719 C 15.476562 12.390625 15.492188 12.390625 15.503906 12.394531 C 15.695312 12.425781 15.875 12.535156 15.992188 12.710938 C 16 12.71875 16.007812 12.730469 16.015625 12.738281 C 16.015625 12.746094 16.019531 12.75 16.023438 12.757812 L 19.003906 17.914062 C 20.257812 16.964844 21.125 15.527344 21.328125 13.882812 L 22.03125 13.882812 C 22.050781 13.757812 22.070312 13.632812 22.082031 13.507812 L 21.328125 13.507812 C 21.125 15.152344 20.257812 16.585938 19.003906 17.539062 L 16.023438 12.382812 C 16.019531 12.375 16.015625 12.371094 16.015625 12.363281 C 16.007812 12.355469 16 12.34375 15.992188 12.332031 C 15.875 12.160156 15.695312 12.050781 15.503906 12.015625 C 15.492188 12.015625 15.476562 12.011719 15.464844 12.011719 C 15.441406 12.007812 15.417969 12.007812 15.394531 12.007812 C 15.394531 12.007812 15.390625 12.007812 15.390625 12.007812 C 15.378906 12.003906 15.363281 12.003906 15.351562 12.007812 Z M 13.222656 18.359375 L 13.046875 18.664062 C 13.761719 18.964844 14.546875 19.132812 15.375 19.132812 C 16.203125 19.132812 16.988281 18.964844 17.703125 18.664062 L 17.527344 18.359375 C 16.859375 18.613281 16.132812 18.757812 15.375 18.757812 C 14.613281 18.757812 13.890625 18.613281 13.222656 18.359375 Z M 19.53125 18.457031 C 19.480469 18.496094 19.429688 18.535156 19.378906 18.570312 L 20.523438 20.550781 C 20.558594 20.613281 20.585938 20.675781 20.601562 20.738281 C 20.648438 20.554688 20.628906 20.355469 20.523438 20.175781 Z M 20.601562 21.109375 C 20.589844 21.167969 20.566406 21.222656 20.542969 21.273438 L 20.839844 22.308594 C 20.921875 22.402344 20.984375 22.472656 21 22.5 Z M 10.152344 21.136719 C 9.992188 21.722656 9.800781 22.410156 9.75 22.5 L 9.929688 22.3125 C 10.023438 21.996094 10.128906 21.613281 10.214844 21.289062 C 10.1875 21.238281 10.167969 21.1875 10.152344 21.136719 Z M 10.152344 21.136719 "/>
<path style=" stroke:none;fill-rule:nonzero;fill:rgb(87.843138%,87.843138%,87.843138%);fill-opacity:0.996078;" d="M 15.375 11.257812 C 16.203125 11.257812 16.875 11.929688 16.875 12.757812 C 16.875 13.585938 16.203125 14.257812 15.375 14.257812 C 14.546875 14.257812 13.875 13.585938 13.875 12.757812 C 13.875 11.929688 14.546875 11.257812 15.375 11.257812 Z M 15.375 11.257812 "/>
<path style=" stroke:none;fill-rule:nonzero;fill:rgb(0%,0%,0%);fill-opacity:0.4;" d="M 15.375 12.007812 C 15.789062 12.007812 16.125 12.34375 16.125 12.757812 C 16.125 13.171875 15.789062 13.507812 15.375 13.507812 C 14.960938 13.507812 14.625 13.171875 14.625 12.757812 C 14.625 12.34375 14.960938 12.007812 15.375 12.007812 Z M 15.375 12.007812 "/>
<path style=" stroke:none;fill-rule:nonzero;fill:rgb(0%,0%,0%);fill-opacity:0.4;" d="M 15.355469 12.007812 C 14.949219 12.015625 14.625 12.347656 14.625 12.757812 C 14.625 12.789062 14.625 12.820312 14.628906 12.851562 C 14.675781 12.484375 14.980469 12.203125 15.355469 12.195312 C 15.359375 12.195312 15.367188 12.195312 15.375 12.195312 C 15.757812 12.195312 16.070312 12.480469 16.117188 12.847656 C 16.121094 12.820312 16.125 12.789062 16.125 12.757812 C 16.125 12.34375 15.789062 12.007812 15.375 12.007812 C 15.367188 12.007812 15.359375 12.007812 15.355469 12.007812 Z M 15.355469 12.007812 "/>
<path style=" stroke:none;fill-rule:nonzero;fill:rgb(100%,100%,100%);fill-opacity:0.6;" d="M 14.628906 12.851562 C 14.625 12.882812 14.625 12.914062 14.625 12.945312 C 14.625 13.355469 14.949219 13.683594 15.355469 13.695312 C 15.359375 13.695312 15.367188 13.695312 15.375 13.695312 C 15.789062 13.695312 16.125 13.359375 16.125 12.945312 C 16.125 12.914062 16.121094 12.882812 16.117188 12.851562 C 16.070312 13.222656 15.757812 13.507812 15.375 13.507812 C 15.367188 13.507812 15.359375 13.507812 15.355469 13.507812 C 14.980469 13.5 14.675781 13.214844 14.628906 12.851562 Z M 14.628906 12.851562 "/>
<path style=" stroke:none;fill-rule:nonzero;fill:rgb(38.039216%,38.039216%,38.039216%);fill-opacity:0.996078;" d="M 15.1875 7.507812 L 15.5625 7.507812 C 15.871094 7.507812 16.125 7.757812 16.125 8.070312 L 16.125 10.320312 C 16.125 10.628906 15.871094 10.882812 15.5625 10.882812 L 15.1875 10.882812 C 14.875 10.882812 14.625 10.628906 14.625 10.320312 L 14.625 8.070312 C 14.625 7.757812 14.875 7.507812 15.1875 7.507812 Z M 15.1875 7.507812 "/>
<path style=" stroke:none;fill-rule:nonzero;fill:rgb(11.764706%,11.764706%,11.764706%);fill-opacity:0.4;" d="M 18.28125 17.789062 C 18.550781 17.636719 18.894531 17.726562 19.050781 17.996094 C 19.203125 18.265625 19.113281 18.609375 18.84375 18.765625 C 18.574219 18.921875 18.230469 18.828125 18.074219 18.558594 C 17.921875 18.289062 18.011719 17.945312 18.28125 17.789062 Z M 18.28125 17.789062 "/>
<path style=" stroke:none;fill-rule:nonzero;fill:rgb(11.764706%,11.764706%,11.764706%);fill-opacity:0.4;" d="M 18.546875 17.714844 C 18.457031 17.71875 18.367188 17.742188 18.28125 17.792969 C 18.082031 17.90625 17.976562 18.125 18.003906 18.339844 C 18.019531 18.167969 18.117188 18.007812 18.28125 17.914062 C 18.550781 17.757812 18.894531 17.847656 19.050781 18.121094 C 19.089844 18.1875 19.113281 18.261719 19.121094 18.339844 C 19.132812 18.222656 19.113281 18.105469 19.050781 17.996094 C 18.941406 17.8125 18.746094 17.710938 18.546875 17.714844 Z M 18.546875 17.714844 "/>
<path style=" stroke:none;fill-rule:nonzero;fill:rgb(99.607843%,99.607843%,99.607843%);fill-opacity:0.6;" d="M 18.546875 18.96875 C 18.457031 18.964844 18.367188 18.941406 18.28125 18.890625 C 18.082031 18.773438 17.976562 18.554688 18.003906 18.339844 C 18.019531 18.511719 18.117188 18.675781 18.28125 18.769531 C 18.550781 18.925781 18.894531 18.832031 19.050781 18.5625 C 19.089844 18.492188 19.113281 18.417969 19.121094 18.34375 C 19.132812 18.457031 19.113281 18.578125 19.050781 18.683594 C 18.941406 18.871094 18.746094 18.972656 18.546875 18.96875 Z M 18.546875 18.96875 "/>
<path style=" stroke:none;fill-rule:nonzero;fill:rgb(87.843138%,87.843138%,87.843138%);fill-opacity:0.996078;" d="M 15.375 12.195312 C 15.683594 12.195312 15.9375 12.445312 15.9375 12.757812 C 15.9375 13.066406 15.683594 13.320312 15.375 13.320312 C 15.0625 13.320312 14.8125 13.066406 14.8125 12.757812 C 14.8125 12.445312 15.0625 12.195312 15.375 12.195312 Z M 15.375 12.195312 "/>
<path style=" stroke:none;fill-rule:nonzero;fill:rgb(87.843138%,87.843138%,87.843138%);fill-opacity:0.6;" d="M 15.375 12.195312 C 15.683594 12.195312 15.9375 12.445312 15.9375 12.757812 C 15.9375 13.066406 15.683594 13.320312 15.375 13.320312 C 15.0625 13.320312 14.8125 13.066406 14.8125 12.757812 C 14.8125 12.445312 15.0625 12.195312 15.375 12.195312 Z M 15.375 12.195312 "/>
<path style=" stroke:none;fill-rule:nonzero;fill:rgb(100%,100%,100%);fill-opacity:0.6;" d="M 15.359375 12.195312 C 15.054688 12.203125 14.8125 12.449219 14.8125 12.757812 C 14.8125 12.789062 14.816406 12.820312 14.820312 12.851562 C 14.863281 12.585938 15.09375 12.382812 15.375 12.382812 C 15.652344 12.382812 15.882812 12.585938 15.929688 12.851562 C 15.933594 12.820312 15.9375 12.789062 15.9375 12.757812 C 15.9375 12.445312 15.6875 12.195312 15.375 12.195312 C 15.371094 12.195312 15.363281 12.195312 15.359375 12.195312 Z M 15.359375 12.195312 "/>
<path style=" stroke:none;fill-rule:nonzero;fill:rgb(1.176471%,1.176471%,1.176471%);fill-opacity:0.4;" d="M 15.359375 13.507812 C 15.054688 13.5 14.8125 13.25 14.8125 12.945312 C 14.8125 12.914062 14.816406 12.882812 14.820312 12.851562 C 14.863281 13.117188 15.09375 13.320312 15.375 13.320312 C 15.652344 13.320312 15.882812 13.117188 15.929688 12.851562 C 15.933594 12.882812 15.9375 12.914062 15.9375 12.945312 C 15.9375 13.257812 15.6875 13.507812 15.375 13.507812 C 15.371094 13.507812 15.363281 13.507812 15.359375 13.507812 Z M 15.359375 13.507812 "/>
<path style=" stroke:none;fill-rule:nonzero;fill:rgb(38.039216%,38.039216%,38.039216%);fill-opacity:1;" d="M 18.375 17.953125 C 18.554688 17.851562 18.785156 17.910156 18.886719 18.089844 C 18.992188 18.269531 18.929688 18.5 18.75 18.601562 C 18.570312 18.707031 18.339844 18.644531 18.238281 18.464844 C 18.132812 18.285156 18.195312 18.058594 18.375 17.953125 Z M 18.375 17.953125 "/>
<path style=" stroke:none;fill-rule:nonzero;fill:rgb(100%,100%,100%);fill-opacity:0.4;" d="M 18.550781 17.902344 C 18.492188 17.902344 18.429688 17.921875 18.375 17.953125 C 18.242188 18.03125 18.171875 18.175781 18.191406 18.320312 C 18.203125 18.207031 18.269531 18.101562 18.375 18.039062 C 18.554688 17.9375 18.78125 17.996094 18.886719 18.175781 C 18.914062 18.222656 18.929688 18.273438 18.933594 18.324219 C 18.945312 18.246094 18.929688 18.164062 18.886719 18.089844 C 18.816406 17.96875 18.683594 17.898438 18.550781 17.902344 Z M 18.550781 17.902344 "/>
<path style=" stroke:none;fill-rule:nonzero;fill:rgb(0%,0%,0%);fill-opacity:0.4;" d="M 18.191406 18.234375 C 18.179688 18.3125 18.195312 18.390625 18.238281 18.464844 C 18.34375 18.644531 18.570312 18.707031 18.75 18.601562 C 18.882812 18.523438 18.953125 18.378906 18.933594 18.234375 C 18.921875 18.34375 18.855469 18.449219 18.75 18.511719 C 18.570312 18.613281 18.34375 18.554688 18.238281 18.371094 C 18.210938 18.328125 18.195312 18.28125 18.191406 18.234375 Z M 18.191406 18.234375 "/>
<path style=" stroke:none;fill-rule:nonzero;fill:rgb(100%,100%,100%);fill-opacity:0.6;" d="M 15.375 11.257812 C 14.542969 11.257812 13.875 11.925781 13.875 12.757812 C 13.875 12.820312 13.878906 12.882812 13.886719 12.945312 C 13.976562 12.203125 14.605469 11.632812 15.375 11.632812 C 16.140625 11.632812 16.773438 12.203125 16.863281 12.945312 C 16.871094 12.882812 16.875 12.820312 16.875 12.757812 C 16.875 11.925781 16.207031 11.257812 15.375 11.257812 Z M 15.375 11.257812 "/>
<path style=" stroke:none;fill-rule:nonzero;fill:rgb(4.705882%,4.705882%,4.705882%);fill-opacity:0.4;" d="M 15.375 14.632812 C 14.542969 14.632812 13.875 13.964844 13.875 13.132812 C 13.875 13.070312 13.878906 13.007812 13.886719 12.945312 C 13.976562 13.6875 14.605469 14.257812 15.375 14.257812 C 16.140625 14.257812 16.773438 13.6875 16.863281 12.945312 C 16.871094 13.007812 16.875 13.070312 16.875 13.132812 C 16.875 13.964844 16.207031 14.632812 15.375 14.632812 Z M 15.375 14.632812 "/>
<path style=" stroke:none;fill-rule:nonzero;fill:rgb(100%,100%,100%);fill-opacity:0.4;" d="M 15.1875 7.507812 C 14.875 7.507812 14.625 7.757812 14.625 8.070312 L 14.625 8.445312 C 14.625 8.132812 14.875 7.882812 15.1875 7.882812 L 15.5625 7.882812 C 15.875 7.882812 16.125 8.132812 16.125 8.445312 L 16.125 8.070312 C 16.125 7.757812 15.875 7.507812 15.5625 7.507812 Z M 15.1875 7.507812 "/>
<path style=" stroke:none;fill-rule:nonzero;fill:rgb(30.980393%,30.980393%,30.980393%);fill-opacity:0.4;" d="M 15.1875 11.257812 C 14.875 11.257812 14.625 11.007812 14.625 10.695312 L 14.625 10.320312 C 14.625 10.632812 14.875 10.882812 15.1875 10.882812 L 15.5625 10.882812 C 15.875 10.882812 16.125 10.632812 16.125 10.320312 L 16.125 10.695312 C 16.125 11.007812 15.875 11.257812 15.5625 11.257812 Z M 15.1875 11.257812 "/>
<path style="fill-rule:nonzero;fill:rgb(93.333334%,93.333334%,93.333334%);fill-opacity:1;stroke-width:0.0529167;stroke-linecap:butt;stroke-linejoin:miter;stroke:rgb(95.686275%,95.686275%,95.686275%);stroke-opacity:0.498039;stroke-miterlimit:4;" d="M 4.167187 -209.708334 L 4.167187 -204.284376 L 7.474479 -204.284376 L 7.474479 -209.708334 Z M 4.299479 -209.576042 L 7.342187 -209.576042 L 7.342187 -204.416667 L 4.299479 -204.416667 Z M 4.299479 -209.576042 " transform="matrix(1.417323,0,0,1.417323,0,304.724425)"/>
<path style="fill-rule:nonzero;fill:rgb(93.333334%,93.333334%,93.333334%);fill-opacity:1;stroke-width:0.0529167;stroke-linecap:butt;stroke-linejoin:miter;stroke:rgb(95.686275%,95.686275%,95.686275%);stroke-opacity:0.498039;stroke-miterlimit:4;" d="M 2.645833 -209.708334 L 2.645833 -209.576042 L 5.291666 -209.576042 L 5.291666 -209.708334 Z M 2.645833 -209.708334 " transform="matrix(1.417323,0,0,1.417323,0,304.724425)"/>
<path style="fill-rule:nonzero;fill:rgb(93.333334%,93.333334%,93.333334%);fill-opacity:1;stroke-width:0.0529167;stroke-linecap:butt;stroke-linejoin:miter;stroke:rgb(95.686275%,95.686275%,95.686275%);stroke-opacity:0.498039;stroke-miterlimit:4;" d="M 2.645833 -204.416667 L 2.645833 -204.284376 L 5.291666 -204.284376 L 5.291666 -204.416667 Z M 2.645833 -204.416667 " transform="matrix(1.417323,0,0,1.417323,0,304.724425)"/>
<path style="fill-rule:nonzero;fill:rgb(93.333334%,93.333334%,93.333334%);fill-opacity:1;stroke-width:0.0529167;stroke-linecap:butt;stroke-linejoin:miter;stroke:rgb(95.686275%,95.686275%,95.686275%);stroke-opacity:0.498039;stroke-miterlimit:4;" d="M 3.108854 -209.443359 L 3.108854 -204.68086 L 3.241146 -204.68086 L 3.241146 -209.443359 Z M 3.108854 -209.443359 " transform="matrix(1.417323,0,0,1.417323,0,304.911372)"/>
<path style="fill-rule:evenodd;fill:rgb(93.333334%,93.333334%,93.333334%);fill-opacity:1;stroke-width:0.0529167;stroke-linecap:butt;stroke-linejoin:miter;stroke:rgb(95.686275%,95.686275%,95.686275%);stroke-opacity:0.498039;stroke-miterlimit:4;" d="M 3.175 -205.210026 L 2.910417 -205.47461 L 3.175 -204.548568 L 3.439583 -205.47461 Z M 3.175 -205.210026 " transform="matrix(1.417323,0,0,1.417323,0,304.911372)"/>
<path style="fill-rule:evenodd;fill:rgb(93.333334%,93.333334%,93.333334%);fill-opacity:1;stroke-width:0.0529167;stroke-linecap:butt;stroke-linejoin:miter;stroke:rgb(95.686275%,95.686275%,95.686275%);stroke-opacity:0.498039;stroke-miterlimit:4;" d="M 2.838759 -205.662023 L 3.175 -204.485178 L 3.511241 -205.662023 L 3.175 -205.325782 Z M 3.367925 -205.419488 L 3.175 -204.744249 L 2.982074 -205.416732 L 3.175 -205.226563 Z M 3.367925 -205.419488 " transform="matrix(1.417323,0,0,1.417323,0,304.911372)"/>
<path style="fill-rule:evenodd;fill:rgb(93.333334%,93.333334%,93.333334%);fill-opacity:1;stroke-width:0.0529167;stroke-linecap:butt;stroke-linejoin:miter;stroke:rgb(95.686275%,95.686275%,95.686275%);stroke-opacity:0.498039;stroke-miterlimit:4;" d="M 3.175 -208.914193 L 3.439583 -208.64961 L 3.175 -209.575651 L 2.910417 -208.64961 Z M 3.175 -208.914193 " transform="matrix(1.417323,0,0,1.417323,0,304.911372)"/>
<path style="fill-rule:evenodd;fill:rgb(93.333334%,93.333334%,93.333334%);fill-opacity:1;stroke-width:0.0529167;stroke-linecap:butt;stroke-linejoin:miter;stroke:rgb(95.686275%,95.686275%,95.686275%);stroke-opacity:0.498039;stroke-miterlimit:4;" d="M 3.175 -209.771333 L 2.838759 -208.594488 L 3.175 -208.930729 L 3.511241 -208.594488 Z M 3.175 -209.512261 L 3.367925 -208.837023 L 3.175 -209.029948 L 3.150195 -209.005143 L 2.982074 -208.839779 Z M 3.175 -209.512261 " transform="matrix(1.417323,0,0,1.417323,0,304.911372)"/>
<path style=" stroke:none;fill-rule:nonzero;fill:url(#linear0);" d="M 3 1.5 L 21 1.5 C 21.828125 1.5 22.5 2.171875 22.5 3 L 22.5 21 C 22.5 21.828125 21.828125 22.5 21 22.5 L 3 22.5 C 2.171875 22.5 1.5 21.828125 1.5 21 L 1.5 3 C 1.5 2.171875 2.171875 1.5 3 1.5 Z M 3 1.5 "/>
</g>
</svg>
