
<svg xmlns="http://www.w3.org/2000/svg" xmlns:xlink="http://www.w3.org/1999/xlink" width="24" height="24" viewBox="0 0 24 24" version="1.1">
<defs>
<linearGradient id="linear0" gradientUnits="userSpaceOnUse" x1="10.054166" y1="-199.125" x2="10.054166" y2="-213.941666" gradientTransform="matrix(1.417323,0,0,1.417323,-0.000474216,304.724425)">
<stop offset="0" style="stop-color:rgb(0%,0%,0%);stop-opacity:0.2;"/>
<stop offset="1" style="stop-color:rgb(100%,100%,100%);stop-opacity:0;"/>
</linearGradient>
</defs>
<g id="surface1">
<path style=" stroke:none;fill-rule:nonzero;fill:rgb(16.078432%,71.372551%,96.470588%);fill-opacity:1;" d="M 3 1.5 L 21 1.5 C 21.828125 1.5 22.5 2.171875 22.5 3 L 22.5 21 C 22.5 21.828125 21.828125 22.5 21 22.5 L 3 22.5 C 2.171875 22.5 1.5 21.828125 1.5 21 L 1.5 3 C 1.5 2.171875 2.171875 1.5 3 1.5 Z M 3 1.5 "/>
<path style=" stroke:none;fill-rule:nonzero;fill:rgb(0%,0%,0%);fill-opacity:0.4;" d="M 1.5 20.625 L 1.5 21 C 1.5 21.832031 2.167969 22.5 3 22.5 L 21 22.5 C 21.832031 22.5 22.5 21.832031 22.5 21 L 22.5 20.625 C 22.5 21.457031 21.832031 22.125 21 22.125 L 3 22.125 C 2.167969 22.125 1.5 21.457031 1.5 20.625 Z M 1.5 20.625 "/>
<path style=" stroke:none;fill-rule:nonzero;fill:rgb(0%,0%,0%);fill-opacity:0.2;" d="M 1.5 21 L 1.5 21.5625 C 1.5 22.394531 2.167969 23.0625 3 23.0625 L 21 23.0625 C 21.832031 23.0625 22.5 22.394531 22.5 21.5625 L 22.5 21 C 22.5 21.832031 21.832031 22.5 21 22.5 L 3 22.5 C 2.167969 22.5 1.5 21.832031 1.5 21 Z M 1.5 21 "/>
<path style=" stroke:none;fill-rule:nonzero;fill:rgb(100%,100%,100%);fill-opacity:0.4;" d="M 3 1.5 C 2.167969 1.5 1.5 2.167969 1.5 3 L 1.5 3.367188 C 1.5 2.539062 2.167969 1.867188 3 1.867188 L 21 1.867188 C 21.832031 1.867188 22.5 2.539062 22.5 3.367188 L 22.5 3 C 22.5 2.167969 21.832031 1.5 21 1.5 Z M 3 1.5 "/>
<path style=" stroke:none;fill-rule:nonzero;fill:rgb(50.588238%,83.137256%,98.039216%);fill-opacity:1;" d="M 11.980469 5.25 C 11.574219 5.261719 11.25 5.589844 11.25 6 C 11.25 6.414062 10.914062 6.75 10.5 6.75 C 10.085938 6.75 9.75 6.414062 9.75 6 L 9.75 12 L 14.25 12 L 14.25 6 C 14.25 6.414062 13.914062 6.75 13.5 6.75 C 13.085938 6.75 12.75 6.414062 12.75 6 C 12.75 5.585938 12.414062 5.25 12 5.25 C 11.992188 5.25 11.988281 5.25 11.980469 5.25 Z M 11.980469 5.25 "/>
<path style=" stroke:none;fill-rule:nonzero;fill:rgb(70.19608%,89.803922%,98.823529%);fill-opacity:1;" d="M 10.480469 8.25 C 10.074219 8.261719 9.75 8.589844 9.75 9 C 9.75 9.007812 9.75 9.011719 9.75 9.019531 L 9.75 13.5 L 14.25 13.5 L 14.25 9 C 14.25 8.585938 13.914062 8.25 13.5 8.25 C 13.085938 8.25 12.75 8.585938 12.75 9 C 12.75 9.414062 12.414062 9.75 12 9.75 C 11.585938 9.75 11.25 9.414062 11.25 9 C 11.25 8.585938 10.914062 8.25 10.5 8.25 C 10.492188 8.25 10.488281 8.25 10.480469 8.25 Z M 10.480469 8.25 "/>
<path style=" stroke:none;fill-rule:nonzero;fill:rgb(93.333334%,93.333334%,93.333334%);fill-opacity:1;" d="M 11.980469 11.25 C 11.574219 11.261719 11.25 11.589844 11.25 12 C 11.25 12.414062 10.914062 12.75 10.5 12.75 C 10.085938 12.75 9.75 12.414062 9.75 12 L 9.75 14.25 L 6.75 14.25 L 12 18.75 L 17.25 14.25 L 14.25 14.25 L 14.25 12 C 14.25 12.414062 13.914062 12.75 13.5 12.75 C 13.085938 12.75 12.75 12.414062 12.75 12 C 12.75 11.585938 12.414062 11.25 12 11.25 C 11.992188 11.25 11.988281 11.25 11.980469 11.25 Z M 11.980469 11.25 "/>
<path style=" stroke:none;fill-rule:nonzero;fill:rgb(0%,0%,0%);fill-opacity:0.4;" d="M 6.75 14.625 L 12 19.125 L 17.25 14.625 L 16.8125 14.625 L 12 18.75 L 7.1875 14.625 Z M 6.75 14.625 "/>
<path style=" stroke:none;fill-rule:nonzero;fill:rgb(100%,100%,100%);fill-opacity:0.6;" d="M 11.980469 11.25 C 11.574219 11.261719 11.25 11.589844 11.25 12 C 11.25 12.414062 10.914062 12.75 10.5 12.75 C 10.085938 12.75 9.75 12.414062 9.75 12 L 9.75 12.375 C 9.75 12.789062 10.085938 13.125 10.5 13.125 C 10.914062 13.125 11.25 12.789062 11.25 12.375 C 11.25 11.964844 11.574219 11.636719 11.980469 11.625 C 11.988281 11.625 11.992188 11.625 12 11.625 C 12.414062 11.625 12.75 11.960938 12.75 12.375 C 12.75 12.789062 13.085938 13.125 13.5 13.125 C 13.914062 13.125 14.25 12.789062 14.25 12.375 L 14.25 12 C 14.25 12.414062 13.914062 12.75 13.5 12.75 C 13.085938 12.75 12.75 12.414062 12.75 12 C 12.75 11.585938 12.414062 11.25 12 11.25 C 11.992188 11.25 11.988281 11.25 11.980469 11.25 Z M 6.75 14.25 L 7.1875 14.625 L 9.75 14.625 L 9.75 14.25 Z M 14.25 14.25 L 14.25 14.625 L 16.8125 14.625 L 17.25 14.25 Z M 14.25 14.25 "/>
<path style=" stroke:none;fill-rule:nonzero;fill:rgb(100%,100%,100%);fill-opacity:0.4;" d="M 10.480469 8.25 C 10.074219 8.261719 9.75 8.589844 9.75 9 C 9.75 9.007812 9.75 9.011719 9.75 9.019531 L 9.75 9.375 C 9.75 8.964844 10.074219 8.636719 10.480469 8.625 C 10.488281 8.625 10.492188 8.625 10.5 8.625 C 10.914062 8.625 11.25 8.960938 11.25 9.375 C 11.25 9.789062 11.585938 10.125 12 10.125 C 12.414062 10.125 12.75 9.789062 12.75 9.375 C 12.75 8.960938 13.085938 8.625 13.5 8.625 C 13.914062 8.625 14.25 8.960938 14.25 9.375 L 14.25 9 C 14.25 8.585938 13.914062 8.25 13.5 8.25 C 13.085938 8.25 12.75 8.585938 12.75 9 C 12.75 9.414062 12.414062 9.75 12 9.75 C 11.585938 9.75 11.25 9.414062 11.25 9 C 11.25 8.585938 10.914062 8.25 10.5 8.25 C 10.492188 8.25 10.488281 8.25 10.480469 8.25 Z M 10.480469 8.25 "/>
<path style=" stroke:none;fill-rule:nonzero;fill:rgb(100%,100%,100%);fill-opacity:0.4;" d="M 11.980469 5.25 C 11.574219 5.261719 11.25 5.589844 11.25 6 C 11.25 6.414062 10.914062 6.75 10.5 6.75 C 10.085938 6.75 9.75 6.414062 9.75 6 L 9.75 6.375 C 9.75 6.789062 10.085938 7.125 10.5 7.125 C 10.914062 7.125 11.25 6.789062 11.25 6.375 C 11.25 5.964844 11.574219 5.636719 11.980469 5.625 C 11.988281 5.625 11.992188 5.625 12 5.625 C 12.414062 5.625 12.75 5.960938 12.75 6.375 C 12.75 6.789062 13.085938 7.125 13.5 7.125 C 13.914062 7.125 14.25 6.789062 14.25 6.375 L 14.25 6 C 14.25 6.414062 13.914062 6.75 13.5 6.75 C 13.085938 6.75 12.75 6.414062 12.75 6 C 12.75 5.585938 12.414062 5.25 12 5.25 C 11.992188 5.25 11.988281 5.25 11.980469 5.25 Z M 11.980469 5.25 "/>
<path style=" stroke:none;fill-rule:nonzero;fill:url(#linear0);" d="M 3 1.5 L 21 1.5 C 21.828125 1.5 22.5 2.171875 22.5 3 L 22.5 21 C 22.5 21.828125 21.828125 22.5 21 22.5 L 3 22.5 C 2.171875 22.5 1.5 21.828125 1.5 21 L 1.5 3 C 1.5 2.171875 2.171875 1.5 3 1.5 Z M 3 1.5 "/>
</g>
</svg>
