
<svg xmlns="http://www.w3.org/2000/svg" xmlns:xlink="http://www.w3.org/1999/xlink" width="24" height="24" viewBox="0 0 24 24" version="1.1">
<defs>
<linearGradient id="linear0" gradientUnits="userSpaceOnUse" x1="34" y1="59.999996" x2="34" y2="4" gradientTransform="matrix(0.375,0,0,0.375,0,0.000000000000042633)">
<stop offset="0" style="stop-color:rgb(0%,0%,0%);stop-opacity:0.2;"/>
<stop offset="1" style="stop-color:rgb(100%,100%,100%);stop-opacity:0;"/>
</linearGradient>
</defs>
<g id="surface1">
<path style=" stroke:none;fill-rule:nonzero;fill:rgb(12.941177%,58.823532%,95.294118%);fill-opacity:1;" d="M 3.75 17.25 L 1.5 22.5 L 9 19.5 Z M 3.75 17.25 "/>
<path style=" stroke:none;fill-rule:nonzero;fill:rgb(25.882354%,64.705884%,96.078432%);fill-opacity:1;" d="M 12 1.5 C 17.800781 1.5 22.5 5.863281 22.5 11.25 C 22.5 16.636719 17.800781 21 12 21 C 6.199219 21 1.5 16.636719 1.5 11.25 C 1.5 5.863281 6.199219 1.5 12 1.5 Z M 12 1.5 "/>
<path style=" stroke:none;fill-rule:nonzero;fill:rgb(100%,100%,100%);fill-opacity:0.4;" d="M 12 1.5 C 6.183594 1.5 1.5 5.847656 1.5 11.25 C 1.5 11.3125 1.5 11.378906 1.503906 11.441406 C 1.613281 6.128906 6.25 1.882812 12 1.882812 C 17.75 1.882812 22.386719 6.128906 22.496094 11.441406 C 22.5 11.378906 22.5 11.3125 22.5 11.25 C 22.5 5.847656 17.816406 1.5 12 1.5 Z M 12 1.5 "/>
<path style=" stroke:none;fill-rule:nonzero;fill:rgb(0%,0%,0%);fill-opacity:0.4;" d="M 1.503906 11.066406 C 1.5 11.128906 1.5 11.1875 1.5 11.25 C 1.5 16.652344 6.183594 21 12 21 C 17.816406 21 22.5 16.652344 22.5 11.25 C 22.5 11.1875 22.5 11.128906 22.496094 11.066406 C 22.394531 16.382812 17.75 20.636719 12 20.636719 C 6.25 20.636719 1.605469 16.382812 1.503906 11.066406 Z M 1.503906 11.066406 "/>
<path style=" stroke:none;fill-rule:nonzero;fill:rgb(0%,0%,0%);fill-opacity:0.2;" d="M 3.738281 17.277344 L 3.632812 17.519531 C 4.5625 18.652344 5.75 19.589844 7.117188 20.253906 L 7.539062 20.082031 C 6.046875 19.433594 4.746094 18.46875 3.738281 17.277344 Z M 3.738281 17.277344 "/>
<path style=" stroke:none;fill-rule:nonzero;fill:rgb(0%,0%,0%);fill-opacity:0.2;" d="M 22.496094 11.53125 C 22.335938 16.800781 17.714844 21 12 21 C 10.402344 21 8.890625 20.671875 7.539062 20.085938 L 1.789062 22.382812 L 1.5 23.0625 L 7.539062 20.648438 C 8.890625 21.234375 10.402344 21.5625 12 21.5625 C 17.816406 21.5625 22.5 17.214844 22.5 11.8125 C 22.5 11.71875 22.496094 11.625 22.496094 11.53125 Z M 1.503906 11.535156 C 1.5 11.628906 1.5 11.71875 1.5 11.8125 C 1.5 14.003906 2.273438 16.023438 3.578125 17.648438 L 3.738281 17.28125 C 2.394531 15.691406 1.570312 13.703125 1.503906 11.535156 Z M 1.503906 11.535156 "/>
<path style=" stroke:none;fill-rule:nonzero;fill:rgb(87.843138%,87.843138%,87.843138%);fill-opacity:1;" d="M 12 9 C 13.242188 9 14.25 10.007812 14.25 11.25 C 14.25 12.492188 13.242188 13.5 12 13.5 C 10.757812 13.5 9.75 12.492188 9.75 11.25 C 9.75 10.007812 10.757812 9 12 9 Z M 12 9 "/>
<path style=" stroke:none;fill-rule:nonzero;fill:rgb(100%,100%,100%);fill-opacity:0.6;" d="M 12 9 C 10.753906 9 9.75 10.003906 9.75 11.25 C 9.75 11.3125 9.753906 11.375 9.757812 11.4375 C 9.851562 10.28125 10.816406 9.375 12 9.375 C 13.183594 9.375 14.148438 10.28125 14.242188 11.4375 C 14.246094 11.375 14.25 11.3125 14.25 11.25 C 14.25 10.003906 13.246094 9 12 9 Z M 12 9 "/>
<path style=" stroke:none;fill-rule:nonzero;fill:rgb(0%,0%,0%);fill-opacity:0.4;" d="M 12 13.875 C 10.753906 13.875 9.75 12.871094 9.75 11.625 C 9.75 11.5625 9.753906 11.5 9.757812 11.4375 C 9.851562 12.59375 10.816406 13.5 12 13.5 C 13.183594 13.5 14.148438 12.59375 14.242188 11.4375 C 14.246094 11.5 14.25 11.5625 14.25 11.625 C 14.25 12.871094 13.246094 13.875 12 13.875 Z M 12 13.875 "/>
<path style=" stroke:none;fill-rule:nonzero;fill:rgb(87.843138%,87.843138%,87.843138%);fill-opacity:1;" d="M 17.257812 9 C 18.5 9 19.507812 10.007812 19.507812 11.25 C 19.507812 12.492188 18.5 13.5 17.257812 13.5 C 16.015625 13.5 15.007812 12.492188 15.007812 11.25 C 15.007812 10.007812 16.015625 9 17.257812 9 Z M 17.257812 9 "/>
<path style=" stroke:none;fill-rule:nonzero;fill:rgb(100%,100%,100%);fill-opacity:0.6;" d="M 17.257812 9 C 16.011719 9 15.007812 10.003906 15.007812 11.25 C 15.007812 11.3125 15.011719 11.375 15.015625 11.4375 C 15.109375 10.28125 16.074219 9.375 17.257812 9.375 C 18.441406 9.375 19.40625 10.28125 19.5 11.4375 C 19.503906 11.375 19.507812 11.3125 19.507812 11.25 C 19.507812 10.003906 18.503906 9 17.257812 9 Z M 17.257812 9 "/>
<path style=" stroke:none;fill-rule:nonzero;fill:rgb(0%,0%,0%);fill-opacity:0.4;" d="M 17.257812 13.875 C 16.011719 13.875 15.007812 12.871094 15.007812 11.625 C 15.007812 11.5625 15.011719 11.5 15.015625 11.4375 C 15.109375 12.59375 16.074219 13.5 17.257812 13.5 C 18.441406 13.5 19.40625 12.59375 19.5 11.4375 C 19.503906 11.5 19.507812 11.5625 19.507812 11.625 C 19.507812 12.871094 18.503906 13.875 17.257812 13.875 Z M 17.257812 13.875 "/>
<path style=" stroke:none;fill-rule:nonzero;fill:rgb(87.843138%,87.843138%,87.843138%);fill-opacity:1;" d="M 6.757812 9 C 8 9 9.007812 10.007812 9.007812 11.25 C 9.007812 12.492188 8 13.5 6.757812 13.5 C 5.515625 13.5 4.507812 12.492188 4.507812 11.25 C 4.507812 10.007812 5.515625 9 6.757812 9 Z M 6.757812 9 "/>
<path style=" stroke:none;fill-rule:nonzero;fill:rgb(100%,100%,100%);fill-opacity:0.6;" d="M 6.757812 9 C 5.511719 9 4.507812 10.003906 4.507812 11.25 C 4.507812 11.3125 4.511719 11.375 4.515625 11.4375 C 4.609375 10.28125 5.574219 9.375 6.757812 9.375 C 7.941406 9.375 8.90625 10.28125 9 11.4375 C 9.003906 11.375 9.007812 11.3125 9.007812 11.25 C 9.007812 10.003906 8.003906 9 6.757812 9 Z M 6.757812 9 "/>
<path style=" stroke:none;fill-rule:nonzero;fill:rgb(0%,0%,0%);fill-opacity:0.4;" d="M 6.757812 13.875 C 5.511719 13.875 4.507812 12.871094 4.507812 11.625 C 4.507812 11.5625 4.511719 11.5 4.515625 11.4375 C 4.609375 12.59375 5.574219 13.5 6.757812 13.5 C 7.941406 13.5 8.90625 12.59375 9 11.4375 C 9.003906 11.5 9.007812 11.5625 9.007812 11.625 C 9.007812 12.871094 8.003906 13.875 6.757812 13.875 Z M 6.757812 13.875 "/>
<path style=" stroke:none;fill-rule:nonzero;fill:url(#linear0);" d="M 12 1.5 C 6.183594 1.5 1.5 5.847656 1.5 11.25 C 1.5 13.53125 2.335938 15.621094 3.738281 17.28125 L 1.5 22.5 L 7.539062 20.085938 C 8.890625 20.671875 10.402344 21 12 21 C 17.816406 21 22.5 16.652344 22.5 11.25 C 22.5 5.847656 17.816406 1.5 12 1.5 Z M 12 1.5 "/>
</g>
</svg>
