
<svg xmlns="http://www.w3.org/2000/svg" xmlns:xlink="http://www.w3.org/1999/xlink" width="24" height="24" viewBox="0 0 24 24" version="1.1">
<defs>
<linearGradient id="linear0" gradientUnits="userSpaceOnUse" x1="8.466666" y1="-199.125" x2="8.466666" y2="-213.412506" gradientTransform="matrix(1.417323,0,0,1.417323,0,304.724425)">
<stop offset="0" style="stop-color:rgb(0%,0%,0%);stop-opacity:0.2;"/>
<stop offset="1" style="stop-color:rgb(100%,100%,100%);stop-opacity:0;"/>
</linearGradient>
<linearGradient id="linear1" gradientUnits="userSpaceOnUse" x1="12.7" y1="-199.125" x2="12.7" y2="-213.941666" gradientTransform="matrix(1.417323,0,0,1.417323,-6.367676,294.222951)">
<stop offset="0" style="stop-color:rgb(0%,0%,0%);stop-opacity:0.2;"/>
<stop offset="1" style="stop-color:rgb(100%,100%,100%);stop-opacity:0;"/>
</linearGradient>
</defs>
<g id="surface1">
<path style=" stroke:none;fill-rule:nonzero;fill:rgb(38.039216%,38.039216%,38.039216%);fill-opacity:1;" d="M 5.25 1.5 L 18.75 1.5 C 19.578125 1.5 20.25 2.171875 20.25 3 L 20.25 21 C 20.25 21.828125 19.578125 22.5 18.75 22.5 L 5.25 22.5 C 4.421875 22.5 3.75 21.828125 3.75 21 L 3.75 3 C 3.75 2.171875 4.421875 1.5 5.25 1.5 Z M 5.25 1.5 "/>
<path style=" stroke:none;fill-rule:nonzero;fill:rgb(25.882354%,64.705884%,96.078432%);fill-opacity:0.996078;" d="M 7.125 12.75 L 16.875 12.75 C 17.082031 12.75 17.25 12.917969 17.25 13.125 L 17.25 20.625 C 17.25 20.832031 17.082031 21 16.875 21 L 7.125 21 C 6.917969 21 6.75 20.832031 6.75 20.625 L 6.75 13.125 C 6.75 12.917969 6.917969 12.75 7.125 12.75 Z M 7.125 12.75 "/>
<path style=" stroke:none;fill-rule:nonzero;fill:rgb(0.784314%,0.784314%,0.784314%);fill-opacity:0.4;" d="M 7.125 12.75 C 6.917969 12.75 6.75 12.917969 6.75 13.125 L 6.75 13.3125 C 6.75 13.105469 6.917969 12.9375 7.125 12.9375 L 16.875 12.9375 C 17.082031 12.9375 17.25 13.105469 17.25 13.3125 L 17.25 13.125 C 17.25 12.917969 17.082031 12.75 16.875 12.75 Z M 7.125 12.75 "/>
<path style=" stroke:none;fill-rule:nonzero;fill:rgb(99.607843%,99.607843%,99.607843%);fill-opacity:0.4;" d="M 7.125 21.1875 C 6.917969 21.1875 6.75 21.019531 6.75 20.8125 L 6.75 20.625 C 6.75 20.832031 6.917969 21 7.125 21 L 16.875 21 C 17.082031 21 17.25 20.832031 17.25 20.625 L 17.25 20.8125 C 17.25 21.019531 17.082031 21.1875 16.875 21.1875 Z M 7.125 21.1875 "/>
<path style=" stroke:none;fill-rule:nonzero;fill:rgb(25.882354%,64.705884%,96.078432%);fill-opacity:0.996078;" d="M 7.125 3 L 16.875 3 C 17.082031 3 17.25 3.167969 17.25 3.375 L 17.25 10.875 C 17.25 11.082031 17.082031 11.25 16.875 11.25 L 7.125 11.25 C 6.917969 11.25 6.75 11.082031 6.75 10.875 L 6.75 3.375 C 6.75 3.167969 6.917969 3 7.125 3 Z M 7.125 3 "/>
<path style=" stroke:none;fill-rule:nonzero;fill:rgb(0.784314%,0.784314%,0.784314%);fill-opacity:0.4;" d="M 7.125 3 C 6.917969 3 6.75 3.167969 6.75 3.375 L 6.75 3.5625 C 6.75 3.355469 6.917969 3.1875 7.125 3.1875 L 16.875 3.1875 C 17.082031 3.1875 17.25 3.355469 17.25 3.5625 L 17.25 3.375 C 17.25 3.167969 17.082031 3 16.875 3 Z M 7.125 3 "/>
<path style=" stroke:none;fill-rule:nonzero;fill:rgb(99.607843%,99.607843%,99.607843%);fill-opacity:0.4;" d="M 7.125 11.4375 C 6.917969 11.4375 6.75 11.269531 6.75 11.0625 L 6.75 10.875 C 6.75 11.082031 6.917969 11.25 7.125 11.25 L 16.875 11.25 C 17.082031 11.25 17.25 11.082031 17.25 10.875 L 17.25 11.0625 C 17.25 11.269531 17.082031 11.4375 16.875 11.4375 Z M 7.125 11.4375 "/>
<path style=" stroke:none;fill-rule:nonzero;fill:rgb(0.392157%,0.392157%,0.392157%);fill-opacity:0.4;" d="M 5.25 22.5 C 4.417969 22.5 3.75 21.832031 3.75 21 L 3.75 20.628906 C 3.75 21.457031 4.417969 22.128906 5.25 22.128906 L 18.75 22.128906 C 19.582031 22.128906 20.25 21.457031 20.25 20.628906 L 20.25 21 C 20.25 21.832031 19.582031 22.5 18.75 22.5 Z M 5.25 22.5 "/>
<path style=" stroke:none;fill-rule:nonzero;fill:rgb(0.392157%,0.392157%,0.392157%);fill-opacity:0.2;" d="M 3.75 21 L 3.75 21.558594 C 3.75 22.390625 4.417969 23.058594 5.25 23.058594 L 18.75 23.058594 C 19.582031 23.058594 20.25 22.390625 20.25 21.558594 L 20.25 21 C 20.25 21.832031 19.582031 22.5 18.75 22.5 L 5.25 22.5 C 4.417969 22.5 3.75 21.832031 3.75 21 Z M 3.75 21 "/>
<path style=" stroke:none;fill-rule:nonzero;fill:rgb(100%,100%,100%);fill-opacity:0.4;" d="M 5.25 1.503906 C 4.417969 1.503906 3.75 2.171875 3.75 3.003906 L 3.75 3.375 C 3.75 2.542969 4.417969 1.875 5.25 1.875 L 18.75 1.875 C 19.582031 1.875 20.25 2.542969 20.25 3.375 L 20.25 3.003906 C 20.25 2.171875 19.582031 1.503906 18.75 1.503906 Z M 5.25 1.503906 "/>
<path style=" stroke:none;fill-rule:nonzero;fill:rgb(0%,0%,0%);fill-opacity:0.4;" d="M 4.875 2.25 L 5.625 2.25 C 5.832031 2.25 6 2.417969 6 2.625 L 6 3.375 C 6 3.582031 5.832031 3.75 5.625 3.75 L 4.875 3.75 C 4.667969 3.75 4.5 3.582031 4.5 3.375 L 4.5 2.625 C 4.5 2.417969 4.667969 2.25 4.875 2.25 Z M 4.875 2.25 "/>
<path style=" stroke:none;fill-rule:nonzero;fill:rgb(0%,0%,0%);fill-opacity:0.4;" d="M 4.875 2.25 C 4.667969 2.25 4.5 2.417969 4.5 2.625 L 4.5 3 C 4.5 2.792969 4.667969 2.625 4.875 2.625 L 5.625 2.625 C 5.832031 2.625 6 2.792969 6 3 L 6 2.625 C 6 2.417969 5.832031 2.25 5.625 2.25 Z M 4.875 2.25 "/>
<path style=" stroke:none;fill-rule:nonzero;fill:rgb(99.607843%,99.607843%,99.607843%);fill-opacity:0.4;" d="M 4.875 4.125 C 4.667969 4.125 4.5 3.957031 4.5 3.75 L 4.5 3.375 C 4.5 3.582031 4.667969 3.75 4.875 3.75 L 5.625 3.75 C 5.832031 3.75 6 3.582031 6 3.375 L 6 3.75 C 6 3.957031 5.832031 4.125 5.625 4.125 Z M 4.875 4.125 "/>
<path style=" stroke:none;fill-rule:nonzero;fill:rgb(0%,0%,0%);fill-opacity:0.4;" d="M 18.375 2.25 L 19.125 2.25 C 19.332031 2.25 19.5 2.417969 19.5 2.625 L 19.5 3.375 C 19.5 3.582031 19.332031 3.75 19.125 3.75 L 18.375 3.75 C 18.167969 3.75 18 3.582031 18 3.375 L 18 2.625 C 18 2.417969 18.167969 2.25 18.375 2.25 Z M 18.375 2.25 "/>
<path style=" stroke:none;fill-rule:nonzero;fill:rgb(0%,0%,0%);fill-opacity:0.4;" d="M 18.375 2.25 C 18.167969 2.25 18 2.417969 18 2.625 L 18 3 C 18 2.792969 18.167969 2.625 18.375 2.625 L 19.125 2.625 C 19.332031 2.625 19.5 2.792969 19.5 3 L 19.5 2.625 C 19.5 2.417969 19.332031 2.25 19.125 2.25 Z M 18.375 2.25 "/>
<path style=" stroke:none;fill-rule:nonzero;fill:rgb(99.607843%,99.607843%,99.607843%);fill-opacity:0.4;" d="M 18.375 4.125 C 18.167969 4.125 18 3.957031 18 3.75 L 18 3.375 C 18 3.582031 18.167969 3.75 18.375 3.75 L 19.125 3.75 C 19.332031 3.75 19.5 3.582031 19.5 3.375 L 19.5 3.75 C 19.5 3.957031 19.332031 4.125 19.125 4.125 Z M 18.375 4.125 "/>
<path style=" stroke:none;fill-rule:nonzero;fill:rgb(0%,0%,0%);fill-opacity:0.4;" d="M 4.875 5.25 L 5.625 5.25 C 5.832031 5.25 6 5.417969 6 5.625 L 6 6.375 C 6 6.582031 5.832031 6.75 5.625 6.75 L 4.875 6.75 C 4.667969 6.75 4.5 6.582031 4.5 6.375 L 4.5 5.625 C 4.5 5.417969 4.667969 5.25 4.875 5.25 Z M 4.875 5.25 "/>
<path style=" stroke:none;fill-rule:nonzero;fill:rgb(0%,0%,0%);fill-opacity:0.4;" d="M 4.875 5.25 C 4.667969 5.25 4.5 5.417969 4.5 5.625 L 4.5 6 C 4.5 5.792969 4.667969 5.625 4.875 5.625 L 5.625 5.625 C 5.832031 5.625 6 5.792969 6 6 L 6 5.625 C 6 5.417969 5.832031 5.25 5.625 5.25 Z M 4.875 5.25 "/>
<path style=" stroke:none;fill-rule:nonzero;fill:rgb(99.607843%,99.607843%,99.607843%);fill-opacity:0.4;" d="M 4.875 7.125 C 4.667969 7.125 4.5 6.957031 4.5 6.75 L 4.5 6.375 C 4.5 6.582031 4.667969 6.75 4.875 6.75 L 5.625 6.75 C 5.832031 6.75 6 6.582031 6 6.375 L 6 6.75 C 6 6.957031 5.832031 7.125 5.625 7.125 Z M 4.875 7.125 "/>
<path style=" stroke:none;fill-rule:nonzero;fill:rgb(0%,0%,0%);fill-opacity:0.4;" d="M 18.375 5.25 L 19.125 5.25 C 19.332031 5.25 19.5 5.417969 19.5 5.625 L 19.5 6.375 C 19.5 6.582031 19.332031 6.75 19.125 6.75 L 18.375 6.75 C 18.167969 6.75 18 6.582031 18 6.375 L 18 5.625 C 18 5.417969 18.167969 5.25 18.375 5.25 Z M 18.375 5.25 "/>
<path style=" stroke:none;fill-rule:nonzero;fill:rgb(0%,0%,0%);fill-opacity:0.4;" d="M 18.375 5.25 C 18.167969 5.25 18 5.417969 18 5.625 L 18 6 C 18 5.792969 18.167969 5.625 18.375 5.625 L 19.125 5.625 C 19.332031 5.625 19.5 5.792969 19.5 6 L 19.5 5.625 C 19.5 5.417969 19.332031 5.25 19.125 5.25 Z M 18.375 5.25 "/>
<path style=" stroke:none;fill-rule:nonzero;fill:rgb(99.607843%,99.607843%,99.607843%);fill-opacity:0.4;" d="M 18.375 7.125 C 18.167969 7.125 18 6.957031 18 6.75 L 18 6.375 C 18 6.582031 18.167969 6.75 18.375 6.75 L 19.125 6.75 C 19.332031 6.75 19.5 6.582031 19.5 6.375 L 19.5 6.75 C 19.5 6.957031 19.332031 7.125 19.125 7.125 Z M 18.375 7.125 "/>
<path style=" stroke:none;fill-rule:nonzero;fill:rgb(0%,0%,0%);fill-opacity:0.4;" d="M 4.875 8.25 L 5.625 8.25 C 5.832031 8.25 6 8.417969 6 8.625 L 6 9.375 C 6 9.582031 5.832031 9.75 5.625 9.75 L 4.875 9.75 C 4.667969 9.75 4.5 9.582031 4.5 9.375 L 4.5 8.625 C 4.5 8.417969 4.667969 8.25 4.875 8.25 Z M 4.875 8.25 "/>
<path style=" stroke:none;fill-rule:nonzero;fill:rgb(0%,0%,0%);fill-opacity:0.4;" d="M 4.875 8.25 C 4.667969 8.25 4.5 8.417969 4.5 8.625 L 4.5 9 C 4.5 8.792969 4.667969 8.625 4.875 8.625 L 5.625 8.625 C 5.832031 8.625 6 8.792969 6 9 L 6 8.625 C 6 8.417969 5.832031 8.25 5.625 8.25 Z M 4.875 8.25 "/>
<path style=" stroke:none;fill-rule:nonzero;fill:rgb(99.607843%,99.607843%,99.607843%);fill-opacity:0.4;" d="M 4.875 10.125 C 4.667969 10.125 4.5 9.957031 4.5 9.75 L 4.5 9.375 C 4.5 9.582031 4.667969 9.75 4.875 9.75 L 5.625 9.75 C 5.832031 9.75 6 9.582031 6 9.375 L 6 9.75 C 6 9.957031 5.832031 10.125 5.625 10.125 Z M 4.875 10.125 "/>
<path style=" stroke:none;fill-rule:nonzero;fill:rgb(0%,0%,0%);fill-opacity:0.4;" d="M 18.375 8.25 L 19.125 8.25 C 19.332031 8.25 19.5 8.417969 19.5 8.625 L 19.5 9.375 C 19.5 9.582031 19.332031 9.75 19.125 9.75 L 18.375 9.75 C 18.167969 9.75 18 9.582031 18 9.375 L 18 8.625 C 18 8.417969 18.167969 8.25 18.375 8.25 Z M 18.375 8.25 "/>
<path style=" stroke:none;fill-rule:nonzero;fill:rgb(0%,0%,0%);fill-opacity:0.4;" d="M 18.375 8.25 C 18.167969 8.25 18 8.417969 18 8.625 L 18 9 C 18 8.792969 18.167969 8.625 18.375 8.625 L 19.125 8.625 C 19.332031 8.625 19.5 8.792969 19.5 9 L 19.5 8.625 C 19.5 8.417969 19.332031 8.25 19.125 8.25 Z M 18.375 8.25 "/>
<path style=" stroke:none;fill-rule:nonzero;fill:rgb(99.607843%,99.607843%,99.607843%);fill-opacity:0.4;" d="M 18.375 10.125 C 18.167969 10.125 18 9.957031 18 9.75 L 18 9.375 C 18 9.582031 18.167969 9.75 18.375 9.75 L 19.125 9.75 C 19.332031 9.75 19.5 9.582031 19.5 9.375 L 19.5 9.75 C 19.5 9.957031 19.332031 10.125 19.125 10.125 Z M 18.375 10.125 "/>
<path style=" stroke:none;fill-rule:nonzero;fill:rgb(0%,0%,0%);fill-opacity:0.4;" d="M 4.875 11.25 L 5.625 11.25 C 5.832031 11.25 6 11.417969 6 11.625 L 6 12.375 C 6 12.582031 5.832031 12.75 5.625 12.75 L 4.875 12.75 C 4.667969 12.75 4.5 12.582031 4.5 12.375 L 4.5 11.625 C 4.5 11.417969 4.667969 11.25 4.875 11.25 Z M 4.875 11.25 "/>
<path style=" stroke:none;fill-rule:nonzero;fill:rgb(0%,0%,0%);fill-opacity:0.4;" d="M 4.875 11.25 C 4.667969 11.25 4.5 11.417969 4.5 11.625 L 4.5 12 C 4.5 11.792969 4.667969 11.625 4.875 11.625 L 5.625 11.625 C 5.832031 11.625 6 11.792969 6 12 L 6 11.625 C 6 11.417969 5.832031 11.25 5.625 11.25 Z M 4.875 11.25 "/>
<path style=" stroke:none;fill-rule:nonzero;fill:rgb(99.607843%,99.607843%,99.607843%);fill-opacity:0.4;" d="M 4.875 13.125 C 4.667969 13.125 4.5 12.957031 4.5 12.75 L 4.5 12.375 C 4.5 12.582031 4.667969 12.75 4.875 12.75 L 5.625 12.75 C 5.832031 12.75 6 12.582031 6 12.375 L 6 12.75 C 6 12.957031 5.832031 13.125 5.625 13.125 Z M 4.875 13.125 "/>
<path style=" stroke:none;fill-rule:nonzero;fill:rgb(0%,0%,0%);fill-opacity:0.4;" d="M 18.375 11.25 L 19.125 11.25 C 19.332031 11.25 19.5 11.417969 19.5 11.625 L 19.5 12.375 C 19.5 12.582031 19.332031 12.75 19.125 12.75 L 18.375 12.75 C 18.167969 12.75 18 12.582031 18 12.375 L 18 11.625 C 18 11.417969 18.167969 11.25 18.375 11.25 Z M 18.375 11.25 "/>
<path style=" stroke:none;fill-rule:nonzero;fill:rgb(0%,0%,0%);fill-opacity:0.4;" d="M 18.375 11.25 C 18.167969 11.25 18 11.417969 18 11.625 L 18 12 C 18 11.792969 18.167969 11.625 18.375 11.625 L 19.125 11.625 C 19.332031 11.625 19.5 11.792969 19.5 12 L 19.5 11.625 C 19.5 11.417969 19.332031 11.25 19.125 11.25 Z M 18.375 11.25 "/>
<path style=" stroke:none;fill-rule:nonzero;fill:rgb(99.607843%,99.607843%,99.607843%);fill-opacity:0.4;" d="M 18.375 13.125 C 18.167969 13.125 18 12.957031 18 12.75 L 18 12.375 C 18 12.582031 18.167969 12.75 18.375 12.75 L 19.125 12.75 C 19.332031 12.75 19.5 12.582031 19.5 12.375 L 19.5 12.75 C 19.5 12.957031 19.332031 13.125 19.125 13.125 Z M 18.375 13.125 "/>
<path style=" stroke:none;fill-rule:nonzero;fill:rgb(0%,0%,0%);fill-opacity:0.4;" d="M 4.875 14.25 L 5.625 14.25 C 5.832031 14.25 6 14.417969 6 14.625 L 6 15.375 C 6 15.582031 5.832031 15.75 5.625 15.75 L 4.875 15.75 C 4.667969 15.75 4.5 15.582031 4.5 15.375 L 4.5 14.625 C 4.5 14.417969 4.667969 14.25 4.875 14.25 Z M 4.875 14.25 "/>
<path style=" stroke:none;fill-rule:nonzero;fill:rgb(0%,0%,0%);fill-opacity:0.4;" d="M 4.875 14.25 C 4.667969 14.25 4.5 14.417969 4.5 14.625 L 4.5 15 C 4.5 14.792969 4.667969 14.625 4.875 14.625 L 5.625 14.625 C 5.832031 14.625 6 14.792969 6 15 L 6 14.625 C 6 14.417969 5.832031 14.25 5.625 14.25 Z M 4.875 14.25 "/>
<path style=" stroke:none;fill-rule:nonzero;fill:rgb(99.607843%,99.607843%,99.607843%);fill-opacity:0.4;" d="M 4.875 16.125 C 4.667969 16.125 4.5 15.957031 4.5 15.75 L 4.5 15.375 C 4.5 15.582031 4.667969 15.75 4.875 15.75 L 5.625 15.75 C 5.832031 15.75 6 15.582031 6 15.375 L 6 15.75 C 6 15.957031 5.832031 16.125 5.625 16.125 Z M 4.875 16.125 "/>
<path style=" stroke:none;fill-rule:nonzero;fill:rgb(0%,0%,0%);fill-opacity:0.4;" d="M 18.375 14.25 L 19.125 14.25 C 19.332031 14.25 19.5 14.417969 19.5 14.625 L 19.5 15.375 C 19.5 15.582031 19.332031 15.75 19.125 15.75 L 18.375 15.75 C 18.167969 15.75 18 15.582031 18 15.375 L 18 14.625 C 18 14.417969 18.167969 14.25 18.375 14.25 Z M 18.375 14.25 "/>
<path style=" stroke:none;fill-rule:nonzero;fill:rgb(0%,0%,0%);fill-opacity:0.4;" d="M 18.375 14.25 C 18.167969 14.25 18 14.417969 18 14.625 L 18 15 C 18 14.792969 18.167969 14.625 18.375 14.625 L 19.125 14.625 C 19.332031 14.625 19.5 14.792969 19.5 15 L 19.5 14.625 C 19.5 14.417969 19.332031 14.25 19.125 14.25 Z M 18.375 14.25 "/>
<path style=" stroke:none;fill-rule:nonzero;fill:rgb(99.607843%,99.607843%,99.607843%);fill-opacity:0.4;" d="M 18.375 16.125 C 18.167969 16.125 18 15.957031 18 15.75 L 18 15.375 C 18 15.582031 18.167969 15.75 18.375 15.75 L 19.125 15.75 C 19.332031 15.75 19.5 15.582031 19.5 15.375 L 19.5 15.75 C 19.5 15.957031 19.332031 16.125 19.125 16.125 Z M 18.375 16.125 "/>
<path style=" stroke:none;fill-rule:nonzero;fill:rgb(0%,0%,0%);fill-opacity:0.4;" d="M 4.875 17.25 L 5.625 17.25 C 5.832031 17.25 6 17.417969 6 17.625 L 6 18.375 C 6 18.582031 5.832031 18.75 5.625 18.75 L 4.875 18.75 C 4.667969 18.75 4.5 18.582031 4.5 18.375 L 4.5 17.625 C 4.5 17.417969 4.667969 17.25 4.875 17.25 Z M 4.875 17.25 "/>
<path style=" stroke:none;fill-rule:nonzero;fill:rgb(0%,0%,0%);fill-opacity:0.4;" d="M 4.875 17.25 C 4.667969 17.25 4.5 17.417969 4.5 17.625 L 4.5 18 C 4.5 17.792969 4.667969 17.625 4.875 17.625 L 5.625 17.625 C 5.832031 17.625 6 17.792969 6 18 L 6 17.625 C 6 17.417969 5.832031 17.25 5.625 17.25 Z M 4.875 17.25 "/>
<path style=" stroke:none;fill-rule:nonzero;fill:rgb(99.607843%,99.607843%,99.607843%);fill-opacity:0.4;" d="M 4.875 19.125 C 4.667969 19.125 4.5 18.957031 4.5 18.75 L 4.5 18.375 C 4.5 18.582031 4.667969 18.75 4.875 18.75 L 5.625 18.75 C 5.832031 18.75 6 18.582031 6 18.375 L 6 18.75 C 6 18.957031 5.832031 19.125 5.625 19.125 Z M 4.875 19.125 "/>
<path style=" stroke:none;fill-rule:nonzero;fill:rgb(0%,0%,0%);fill-opacity:0.4;" d="M 18.375 17.25 L 19.125 17.25 C 19.332031 17.25 19.5 17.417969 19.5 17.625 L 19.5 18.375 C 19.5 18.582031 19.332031 18.75 19.125 18.75 L 18.375 18.75 C 18.167969 18.75 18 18.582031 18 18.375 L 18 17.625 C 18 17.417969 18.167969 17.25 18.375 17.25 Z M 18.375 17.25 "/>
<path style=" stroke:none;fill-rule:nonzero;fill:rgb(0%,0%,0%);fill-opacity:0.4;" d="M 18.375 17.25 C 18.167969 17.25 18 17.417969 18 17.625 L 18 18 C 18 17.792969 18.167969 17.625 18.375 17.625 L 19.125 17.625 C 19.332031 17.625 19.5 17.792969 19.5 18 L 19.5 17.625 C 19.5 17.417969 19.332031 17.25 19.125 17.25 Z M 18.375 17.25 "/>
<path style=" stroke:none;fill-rule:nonzero;fill:rgb(99.607843%,99.607843%,99.607843%);fill-opacity:0.4;" d="M 18.375 19.125 C 18.167969 19.125 18 18.957031 18 18.75 L 18 18.375 C 18 18.582031 18.167969 18.75 18.375 18.75 L 19.125 18.75 C 19.332031 18.75 19.5 18.582031 19.5 18.375 L 19.5 18.75 C 19.5 18.957031 19.332031 19.125 19.125 19.125 Z M 18.375 19.125 "/>
<path style=" stroke:none;fill-rule:nonzero;fill:rgb(0%,0%,0%);fill-opacity:0.4;" d="M 4.875 20.25 L 5.625 20.25 C 5.832031 20.25 6 20.417969 6 20.625 L 6 21.375 C 6 21.582031 5.832031 21.75 5.625 21.75 L 4.875 21.75 C 4.667969 21.75 4.5 21.582031 4.5 21.375 L 4.5 20.625 C 4.5 20.417969 4.667969 20.25 4.875 20.25 Z M 4.875 20.25 "/>
<path style=" stroke:none;fill-rule:nonzero;fill:rgb(0%,0%,0%);fill-opacity:0.4;" d="M 4.875 20.25 C 4.667969 20.25 4.5 20.417969 4.5 20.625 L 4.5 21 C 4.5 20.792969 4.667969 20.625 4.875 20.625 L 5.625 20.625 C 5.832031 20.625 6 20.792969 6 21 L 6 20.625 C 6 20.417969 5.832031 20.25 5.625 20.25 Z M 4.875 20.25 "/>
<path style=" stroke:none;fill-rule:nonzero;fill:rgb(99.607843%,99.607843%,99.607843%);fill-opacity:0.4;" d="M 4.875 22.125 C 4.667969 22.125 4.5 21.957031 4.5 21.75 L 4.5 21.375 C 4.5 21.582031 4.667969 21.75 4.875 21.75 L 5.625 21.75 C 5.832031 21.75 6 21.582031 6 21.375 L 6 21.75 C 6 21.957031 5.832031 22.125 5.625 22.125 Z M 4.875 22.125 "/>
<path style=" stroke:none;fill-rule:nonzero;fill:rgb(0%,0%,0%);fill-opacity:0.4;" d="M 18.375 20.25 L 19.125 20.25 C 19.332031 20.25 19.5 20.417969 19.5 20.625 L 19.5 21.375 C 19.5 21.582031 19.332031 21.75 19.125 21.75 L 18.375 21.75 C 18.167969 21.75 18 21.582031 18 21.375 L 18 20.625 C 18 20.417969 18.167969 20.25 18.375 20.25 Z M 18.375 20.25 "/>
<path style=" stroke:none;fill-rule:nonzero;fill:rgb(0%,0%,0%);fill-opacity:0.4;" d="M 18.375 20.25 C 18.167969 20.25 18 20.417969 18 20.625 L 18 21 C 18 20.792969 18.167969 20.625 18.375 20.625 L 19.125 20.625 C 19.332031 20.625 19.5 20.792969 19.5 21 L 19.5 20.625 C 19.5 20.417969 19.332031 20.25 19.125 20.25 Z M 18.375 20.25 "/>
<path style=" stroke:none;fill-rule:nonzero;fill:rgb(99.607843%,99.607843%,99.607843%);fill-opacity:0.4;" d="M 18.375 22.125 C 18.167969 22.125 18 21.957031 18 21.75 L 18 21.375 C 18 21.582031 18.167969 21.75 18.375 21.75 L 19.125 21.75 C 19.332031 21.75 19.5 21.582031 19.5 21.375 L 19.5 21.75 C 19.5 21.957031 19.332031 22.125 19.125 22.125 Z M 18.375 22.125 "/>
<path style=" stroke:none;fill-rule:nonzero;fill:url(#linear0);" d="M 5.25 1.5 L 18.75 1.5 C 19.578125 1.5 20.25 2.171875 20.25 3 L 20.25 21 C 20.25 21.828125 19.578125 22.5 18.75 22.5 L 5.25 22.5 C 4.421875 22.5 3.75 21.828125 3.75 21 L 3.75 3 C 3.75 2.171875 4.421875 1.5 5.25 1.5 Z M 5.25 1.5 "/>
<path style=" stroke:none;fill-rule:nonzero;fill:rgb(100%,79.215688%,15.686275%);fill-opacity:1;" d="M 10.5 1.488281 C 10.085938 1.488281 9.75 1.824219 9.75 2.242188 L 9.75 7.875 L 8.109375 7.875 C 7.894531 7.875 7.789062 8.144531 7.949219 8.289062 L 11.550781 11.820312 C 11.808594 12.054688 12.207031 12.0625 12.457031 11.820312 L 16.058594 8.289062 C 16.21875 8.144531 16.113281 7.875 15.898438 7.875 L 14.257812 7.875 L 14.257812 2.242188 C 14.257812 1.824219 13.921875 1.488281 13.507812 1.488281 Z M 10.5 1.488281 "/>
<path style=" stroke:none;fill-rule:nonzero;fill:rgb(100%,43.921569%,26.274511%);fill-opacity:1;" d="M 13.546875 6.59375 C 12.28125 6.613281 11.015625 8.015625 9.75 6.75 L 9.75 7.875 L 8.109375 7.875 C 7.894531 7.875 7.789062 8.144531 7.949219 8.289062 L 11.550781 11.820312 C 11.808594 12.054688 12.207031 12.0625 12.457031 11.820312 L 16.058594 8.289062 C 16.21875 8.144531 16.113281 7.875 15.898438 7.875 L 14.257812 7.875 L 14.257812 6.753906 L 14.25 6.75 C 14.015625 6.632812 13.78125 6.589844 13.546875 6.59375 Z M 13.546875 6.59375 "/>
<path style=" stroke:none;fill-rule:nonzero;fill:rgb(100%,100%,100%);fill-opacity:0.4;" d="M 10.5 1.488281 C 10.085938 1.488281 9.75 1.824219 9.75 2.242188 L 9.75 2.625 C 9.75 2.207031 10.085938 1.875 10.5 1.875 L 13.507812 1.875 C 13.921875 1.875 14.257812 2.207031 14.257812 2.625 L 14.257812 2.242188 C 14.257812 1.824219 13.921875 1.488281 13.507812 1.488281 Z M 8.109375 7.875 C 7.894531 7.875 7.789062 8.144531 7.949219 8.289062 L 7.964844 8.308594 C 8.003906 8.277344 8.054688 8.257812 8.109375 8.257812 L 9.75 8.257812 L 9.75 7.875 Z M 14.257812 7.875 L 14.257812 8.257812 L 15.898438 8.257812 C 15.953125 8.257812 16.003906 8.277344 16.042969 8.308594 L 16.058594 8.289062 C 16.21875 8.144531 16.113281 7.875 15.898438 7.875 Z M 14.257812 7.875 "/>
<path style=" stroke:none;fill-rule:nonzero;fill:rgb(0%,0%,0%);fill-opacity:0.4;" d="M 7.960938 7.929688 C 7.855469 8.015625 7.832031 8.183594 7.949219 8.289062 L 11.550781 11.820312 C 11.808594 12.054688 12.207031 12.0625 12.457031 11.820312 L 16.058594 8.289062 C 16.175781 8.183594 16.152344 8.015625 16.046875 7.929688 L 12.457031 11.445312 C 12.207031 11.6875 11.808594 11.679688 11.550781 11.445312 Z M 7.960938 7.929688 "/>
<path style=" stroke:none;fill-rule:nonzero;fill:rgb(0%,0%,0%);fill-opacity:0.2;" d="M 8.101562 8.4375 C 7.890625 8.445312 7.792969 8.707031 7.949219 8.851562 L 11.550781 12.378906 C 11.808594 12.613281 12.207031 12.625 12.457031 12.378906 L 16.058594 8.851562 C 16.214844 8.707031 16.117188 8.445312 15.90625 8.4375 L 12.457031 11.816406 C 12.207031 12.0625 11.808594 12.050781 11.550781 11.816406 Z M 8.101562 8.4375 "/>
<path style=" stroke:none;fill-rule:nonzero;fill:url(#linear1);" d="M 10.5 1.488281 C 10.085938 1.488281 9.75 1.824219 9.75 2.242188 L 9.75 7.875 L 8.109375 7.875 C 7.894531 7.875 7.789062 8.144531 7.949219 8.289062 L 11.550781 11.820312 C 11.808594 12.054688 12.207031 12.0625 12.457031 11.820312 L 16.058594 8.289062 C 16.21875 8.144531 16.113281 7.875 15.898438 7.875 L 14.257812 7.875 L 14.257812 2.242188 C 14.257812 1.824219 13.921875 1.488281 13.507812 1.488281 Z M 10.5 1.488281 "/>
</g>
</svg>
