
<svg xmlns="http://www.w3.org/2000/svg" xmlns:xlink="http://www.w3.org/1999/xlink" width="24" height="24" viewBox="0 0 24 24" version="1.1">
<defs>
<linearGradient id="linear0" gradientUnits="userSpaceOnUse" x1="31.999998" y1="51.999996" x2="31.999998" y2="6" gradientTransform="matrix(0.375,0,0,0.375,0,0.000000000000042633)">
<stop offset="0" style="stop-color:rgb(0%,0%,0%);stop-opacity:0.2;"/>
<stop offset="1" style="stop-color:rgb(100%,100%,100%);stop-opacity:0;"/>
</linearGradient>
</defs>
<g id="surface1">
<path style=" stroke:none;fill-rule:nonzero;fill:rgb(100%,59.607846%,0%);fill-opacity:0.996078;" d="M 17.625 3.007812 C 18.074219 3.265625 18.207031 3.875 17.921875 4.367188 L 13.328125 12.324219 C 13.042969 12.820312 12.449219 13.007812 12 12.75 C 11.550781 12.492188 11.417969 11.882812 11.703125 11.386719 L 16.296875 3.429688 C 16.582031 2.9375 17.175781 2.75 17.625 3.007812 Z M 17.625 3.007812 "/>
<path style=" stroke:none;fill-rule:nonzero;fill:rgb(100%,59.607846%,0%);fill-opacity:0.996078;" d="M 21.742188 7.125 C 22 7.574219 21.8125 8.167969 21.320312 8.453125 L 13.363281 13.046875 C 12.867188 13.332031 12.257812 13.199219 12 12.75 C 11.742188 12.300781 11.929688 11.707031 12.425781 11.421875 L 20.382812 6.828125 C 20.875 6.542969 21.484375 6.675781 21.742188 7.125 Z M 21.742188 7.125 "/>
<path style=" stroke:none;fill-rule:nonzero;fill:rgb(100%,59.607846%,0%);fill-opacity:0.996078;" d="M 6.375 3.007812 C 6.824219 2.75 7.417969 2.9375 7.703125 3.429688 L 12.296875 11.386719 C 12.582031 11.882812 12.449219 12.492188 12 12.75 C 11.550781 13.007812 10.957031 12.820312 10.671875 12.324219 L 6.078125 4.367188 C 5.792969 3.875 5.925781 3.265625 6.375 3.007812 Z M 6.375 3.007812 "/>
<path style=" stroke:none;fill-rule:nonzero;fill:rgb(100%,59.607846%,0%);fill-opacity:0.996078;" d="M 2.257812 7.125 C 2.515625 6.675781 3.125 6.542969 3.617188 6.828125 L 11.574219 11.421875 C 12.070312 11.707031 12.257812 12.300781 12 12.75 C 11.742188 13.199219 11.132812 13.332031 10.636719 13.046875 L 2.679688 8.453125 C 2.1875 8.167969 2 7.574219 2.257812 7.125 Z M 2.257812 7.125 "/>
<path style=" stroke:none;fill-rule:nonzero;fill:rgb(100%,100%,99.607843%);fill-opacity:0.4;" d="M 6.824219 2.890625 C 6.671875 2.890625 6.515625 2.925781 6.375 3.007812 C 6.03125 3.207031 5.875 3.605469 5.945312 4.003906 C 5.992188 3.742188 6.140625 3.515625 6.375 3.378906 C 6.515625 3.296875 6.671875 3.261719 6.824219 3.261719 C 7.164062 3.269531 7.507812 3.464844 7.703125 3.804688 L 12 11.246094 L 16.296875 3.804688 C 16.582031 3.308594 17.175781 3.121094 17.625 3.378906 C 17.859375 3.515625 18.007812 3.742188 18.054688 4.003906 C 18.125 3.605469 17.96875 3.207031 17.625 3.007812 C 17.175781 2.746094 16.582031 2.9375 16.296875 3.429688 L 12 10.875 L 7.703125 3.429688 C 7.507812 3.089844 7.164062 2.894531 6.824219 2.890625 Z M 3.039062 6.679688 C 2.71875 6.6875 2.417969 6.84375 2.257812 7.125 C 2.148438 7.316406 2.121094 7.535156 2.164062 7.742188 C 2.179688 7.65625 2.210938 7.574219 2.257812 7.496094 C 2.515625 7.046875 3.125 6.914062 3.617188 7.199219 L 9.4375 10.558594 L 9.117188 10 L 3.617188 6.828125 C 3.433594 6.722656 3.230469 6.671875 3.039062 6.679688 Z M 20.960938 6.679688 C 20.769531 6.671875 20.566406 6.722656 20.382812 6.828125 L 14.882812 10 L 14.5625 10.558594 L 20.382812 7.199219 C 20.875 6.914062 21.484375 7.046875 21.742188 7.496094 C 21.789062 7.574219 21.820312 7.65625 21.835938 7.742188 C 21.878906 7.535156 21.851562 7.316406 21.742188 7.125 C 21.582031 6.84375 21.28125 6.6875 20.960938 6.679688 Z M 20.960938 6.679688 "/>
<path style=" stroke:none;fill-rule:nonzero;fill:rgb(100%,65.490198%,14.901961%);fill-opacity:1;" d="M 12 4.5 C 7.34375 4.5 5.25 9 1.972656 11.359375 C 1.640625 11.574219 1.488281 11.785156 1.503906 12 C 1.488281 12.214844 1.640625 12.425781 1.972656 12.640625 C 5.25 15 7.34375 19.5 12 19.5 C 16.65625 19.5 18.75 15 22.027344 12.640625 C 22.347656 12.433594 22.511719 12.214844 22.507812 12 C 22.511719 11.785156 22.347656 11.566406 22.027344 11.359375 C 18.75 9 16.65625 4.5 12 4.5 Z M 12 4.5 "/>
<path style=" stroke:none;fill-rule:nonzero;fill:rgb(100%,100%,100%);fill-opacity:0.4;" d="M 12 4.5 C 7.34375 4.5 5.25 9 1.972656 11.359375 C 1.558594 11.625 1.425781 11.886719 1.546875 12.160156 C 1.613281 12.019531 1.75 11.878906 1.972656 11.734375 C 5.25 9.375 7.34375 4.875 12 4.875 C 16.65625 4.875 18.75 9.375 22.027344 11.734375 C 22.253906 11.882812 22.402344 12.03125 22.46875 12.1875 C 22.589844 11.910156 22.441406 11.625 22.027344 11.359375 C 18.75 9 16.65625 4.5 12 4.5 Z M 12 4.5 "/>
<path style=" stroke:none;fill-rule:nonzero;fill:rgb(0%,0%,0%);fill-opacity:0.4;" d="M 1.535156 11.8125 C 1.511719 11.875 1.5 11.9375 1.503906 12 C 1.488281 12.214844 1.640625 12.425781 1.972656 12.640625 C 5.25 15 7.34375 19.5 12 19.5 C 16.65625 19.5 18.75 15 22.027344 12.640625 C 22.347656 12.433594 22.511719 12.214844 22.507812 12 C 22.507812 11.9375 22.496094 11.875 22.46875 11.8125 C 22.402344 11.96875 22.253906 12.117188 22.027344 12.265625 C 18.75 14.625 16.65625 19.125 12 19.125 C 7.34375 19.125 5.25 14.625 1.972656 12.265625 C 1.738281 12.113281 1.59375 11.964844 1.535156 11.8125 Z M 1.535156 11.8125 "/>
<path style=" stroke:none;fill-rule:nonzero;fill:rgb(0%,0%,0%);fill-opacity:0.2;" d="M 1.582031 12.28125 C 1.523438 12.375 1.5 12.46875 1.503906 12.5625 C 1.488281 12.78125 1.640625 12.992188 1.972656 13.203125 C 5.25 15.5625 7.34375 20.0625 12 20.0625 C 16.65625 20.0625 18.75 15.5625 22.027344 13.203125 C 22.347656 12.996094 22.511719 12.777344 22.507812 12.5625 C 22.507812 12.46875 22.476562 12.375 22.417969 12.28125 C 22.335938 12.402344 22.210938 12.523438 22.027344 12.640625 C 18.75 15 16.65625 19.5 12 19.5 C 7.34375 19.5 5.25 15 1.972656 12.640625 C 1.785156 12.519531 1.65625 12.402344 1.582031 12.28125 Z M 1.582031 12.28125 "/>
<path style=" stroke:none;fill-rule:nonzero;fill:rgb(25.882354%,64.705884%,96.078432%);fill-opacity:0.996078;" d="M 12 7.5 C 9.507812 7.5 7.5 9.507812 7.5 12 C 7.5 14.492188 9.507812 16.5 12 16.5 C 13.796875 16.5 15.339844 15.457031 16.0625 13.941406 C 16.175781 13.703125 16.03125 13.5 15.765625 13.5 L 15.078125 13.5 C 14.816406 13.5 14.496094 13.6875 14.328125 13.894531 C 13.78125 14.570312 12.941406 15 12 15 C 10.339844 15 9 13.660156 9 12 C 9 10.339844 10.339844 9 12 9 C 12.941406 9 13.78125 9.429688 14.328125 10.105469 C 14.496094 10.3125 14.816406 10.5 15.078125 10.5 L 15.765625 10.5 C 16.03125 10.5 16.175781 10.296875 16.0625 10.058594 C 15.339844 8.542969 13.796875 7.5 12 7.5 Z M 12 7.5 "/>
<path style=" stroke:none;fill-rule:nonzero;fill:rgb(14.901961%,77.64706%,85.490197%);fill-opacity:0.996078;" d="M 12 7.5 C 9.507812 7.5 7.5 9.507812 7.5 12 C 7.5 13.207031 7.96875 14.296875 8.734375 15.101562 C 8.980469 14.628906 9.253906 14.175781 9.558594 13.746094 C 9.207031 13.253906 9 12.652344 9 12 C 9 10.339844 10.339844 9 12 9 C 12.871094 9 13.648438 9.367188 14.195312 9.953125 C 14.675781 9.742188 15.175781 9.5625 15.6875 9.417969 C 14.875 8.257812 13.53125 7.5 12 7.5 Z M 12 7.5 "/>
<path style=" stroke:none;fill-rule:nonzero;fill:rgb(0%,0%,0%);fill-opacity:0.4;" d="M 12 7.5 C 9.507812 7.5 7.5 9.507812 7.5 12 C 7.5 12.058594 7.503906 12.121094 7.503906 12.179688 C 7.605469 9.777344 9.574219 7.875 12 7.875 C 13.777344 7.875 15.308594 8.894531 16.039062 10.386719 C 16.105469 10.304688 16.121094 10.1875 16.0625 10.058594 C 15.339844 8.542969 13.796875 7.5 12 7.5 Z M 9.007812 12.183594 C 9.003906 12.25 9 12.3125 9 12.375 C 9 14.035156 10.339844 15.375 12 15.375 C 12.941406 15.375 13.78125 14.945312 14.328125 14.269531 C 14.496094 14.066406 14.8125 13.875 15.078125 13.875 L 15.765625 13.875 C 15.886719 13.875 15.980469 13.917969 16.039062 13.984375 C 16.046875 13.972656 16.054688 13.957031 16.0625 13.941406 C 16.175781 13.703125 16.03125 13.5 15.765625 13.5 L 15.078125 13.5 C 14.8125 13.5 14.496094 13.691406 14.328125 13.894531 C 13.78125 14.570312 12.941406 15 12 15 C 10.398438 15 9.101562 13.761719 9.007812 12.183594 Z M 9.007812 12.183594 "/>
<path style=" stroke:none;fill-rule:nonzero;fill:rgb(100%,100%,100%);fill-opacity:0.4;" d="M 12 9 C 10.339844 9 9 10.339844 9 12 C 9 12.0625 9.003906 12.125 9.007812 12.1875 C 9.101562 10.613281 10.402344 9.375 12 9.375 C 12.941406 9.375 13.78125 9.804688 14.328125 10.480469 C 14.496094 10.683594 14.8125 10.875 15.078125 10.875 L 15.765625 10.875 C 16.03125 10.875 16.175781 10.671875 16.0625 10.433594 C 16.054688 10.417969 16.046875 10.402344 16.039062 10.386719 C 15.980469 10.457031 15.886719 10.5 15.765625 10.5 L 15.078125 10.5 C 14.8125 10.5 14.496094 10.308594 14.328125 10.105469 C 13.78125 9.429688 12.941406 9 12 9 Z M 7.503906 12.1875 C 7.5 12.25 7.5 12.3125 7.5 12.375 C 7.5 14.867188 9.507812 16.875 12 16.875 C 13.796875 16.875 15.339844 15.832031 16.0625 14.316406 C 16.125 14.1875 16.109375 14.070312 16.039062 13.988281 C 15.308594 15.476562 13.777344 16.5 12 16.5 C 9.570312 16.5 7.601562 14.59375 7.503906 12.1875 Z M 7.503906 12.1875 "/>
<path style=" stroke:none;fill-rule:nonzero;fill:url(#linear0);" d="M 6.824219 2.890625 C 6.671875 2.890625 6.515625 2.925781 6.375 3.007812 C 5.925781 3.265625 5.792969 3.875 6.078125 4.367188 L 7.238281 6.375 C 6.652344 6.855469 6.097656 7.390625 5.558594 7.949219 L 3.617188 6.828125 C 3.125 6.542969 2.515625 6.675781 2.257812 7.125 C 1.996094 7.574219 2.1875 8.167969 2.679688 8.453125 L 4.21875 9.339844 C 3.503906 10.078125 2.773438 10.78125 1.972656 11.359375 C 1.640625 11.574219 1.488281 11.785156 1.503906 12 C 1.488281 12.214844 1.640625 12.425781 1.972656 12.640625 C 5.25 15 7.34375 19.5 12 19.5 C 16.65625 19.5 18.75 15 22.027344 12.640625 C 22.347656 12.433594 22.511719 12.214844 22.507812 12 C 22.511719 11.785156 22.347656 11.566406 22.027344 11.359375 C 21.226562 10.78125 20.496094 10.078125 19.78125 9.339844 L 21.320312 8.453125 C 21.8125 8.167969 22.003906 7.574219 21.742188 7.125 C 21.484375 6.675781 20.875 6.542969 20.382812 6.828125 L 18.441406 7.949219 C 17.902344 7.390625 17.347656 6.855469 16.761719 6.375 L 17.921875 4.367188 C 18.207031 3.875 18.074219 3.265625 17.625 3.007812 C 17.175781 2.746094 16.582031 2.9375 16.296875 3.429688 L 15.210938 5.316406 C 14.269531 4.8125 13.226562 4.5 12 4.5 C 10.773438 4.5 9.730469 4.8125 8.789062 5.316406 L 7.703125 3.429688 C 7.507812 3.089844 7.164062 2.894531 6.824219 2.890625 Z M 6.824219 2.890625 "/>
</g>
</svg>
