
<svg xmlns="http://www.w3.org/2000/svg" xmlns:xlink="http://www.w3.org/1999/xlink" width="24" height="24" viewBox="0 0 24 24" version="1.1">
<defs>
<linearGradient id="linear0" gradientUnits="userSpaceOnUse" x1="8.466666" y1="-199.125" x2="8.466666" y2="-213.941666" gradientTransform="matrix(1.417323,0,0,1.417323,0,304.724425)">
<stop offset="0" style="stop-color:rgb(0%,0%,0%);stop-opacity:0.2;"/>
<stop offset="1" style="stop-color:rgb(100%,100%,100%);stop-opacity:0;"/>
</linearGradient>
</defs>
<g id="surface1">
<path style=" stroke:none;fill-rule:nonzero;fill:rgb(38.039216%,38.039216%,38.039216%);fill-opacity:1;" d="M 3.75 3.394531 L 3.75 20.605469 C 3.75 21.292969 4.121094 21.925781 4.722656 22.261719 C 5.320312 22.597656 6.054688 22.582031 6.640625 22.222656 L 20.359375 13.777344 C 20.976562 13.398438 21.351562 12.726562 21.351562 12 C 21.351562 11.273438 20.976562 10.601562 20.359375 10.222656 L 6.640625 1.777344 C 6.054688 1.417969 5.320312 1.402344 4.722656 1.738281 C 4.121094 2.074219 3.75 2.707031 3.75 3.394531 Z M 3.75 3.394531 "/>
<path style=" stroke:none;fill-rule:nonzero;fill:rgb(61.176473%,80.000001%,39.607844%);fill-opacity:1;" d="M 6.75 6.914062 L 6.75 12.75 L 11.214844 10.332031 L 14.25 12 L 6.75 16.125 L 6.75 17.085938 C 6.75 17.273438 6.851562 17.449219 7.015625 17.542969 C 7.179688 17.640625 7.378906 17.640625 7.542969 17.546875 L 16.457031 12.453125 C 16.617188 12.359375 16.71875 12.1875 16.71875 12 C 16.71875 11.8125 16.617188 11.640625 16.457031 11.546875 L 7.542969 6.453125 C 7.378906 6.359375 7.179688 6.359375 7.015625 6.457031 C 6.851562 6.550781 6.75 6.726562 6.75 6.914062 Z M 6.75 6.914062 "/>
<path style=" stroke:none;fill-rule:nonzero;fill:rgb(100%,100%,100%);fill-opacity:0.4;" d="M 7.335938 6.386719 C 7.183594 6.371094 7.035156 6.421875 6.925781 6.519531 C 6.8125 6.621094 6.75 6.765625 6.75 6.914062 L 6.75 7.28125 C 6.75 7.09375 6.851562 6.917969 7.015625 6.824219 C 7.179688 6.730469 7.378906 6.730469 7.542969 6.824219 L 16.457031 11.914062 C 16.5625 11.976562 16.640625 12.070312 16.683594 12.183594 C 16.777344 11.945312 16.679688 11.671875 16.457031 11.546875 L 7.542969 6.453125 C 7.480469 6.417969 7.410156 6.394531 7.335938 6.386719 Z M 13.914062 12.183594 L 6.75 16.125 L 6.75 16.492188 L 14.25 12.367188 Z M 13.914062 12.183594 "/>
<path style=" stroke:none;fill-rule:nonzero;fill:rgb(0%,0%,0%);fill-opacity:0.4;" d="M 11.214844 10.332031 L 6.75 12.753906 L 6.75 13.136719 L 11.214844 10.71875 L 13.898438 12.195312 L 14.25 12.003906 Z M 16.679688 12.195312 C 16.636719 12.304688 16.558594 12.398438 16.457031 12.457031 L 7.542969 17.546875 C 7.378906 17.640625 7.179688 17.640625 7.015625 17.546875 C 6.851562 17.453125 6.75 17.277344 6.75 17.085938 L 6.75 17.472656 C 6.75 17.660156 6.851562 17.835938 7.015625 17.929688 C 7.179688 18.027344 7.378906 18.027344 7.542969 17.933594 L 16.457031 12.839844 C 16.679688 12.710938 16.777344 12.4375 16.679688 12.195312 Z M 16.679688 12.195312 "/>
<path style=" stroke:none;fill-rule:nonzero;fill:rgb(100%,100%,100%);fill-opacity:0.4;" d="M 5.765625 1.5 C 5.242188 1.46875 4.730469 1.652344 4.347656 2.011719 C 3.964844 2.371094 3.75 2.871094 3.75 3.394531 L 3.75 3.75 C 3.75 3.0625 4.121094 2.429688 4.722656 2.09375 C 5.320312 1.757812 6.054688 1.773438 6.640625 2.132812 L 20.359375 10.578125 C 20.921875 10.921875 21.289062 11.515625 21.34375 12.175781 C 21.410156 11.390625 21.03125 10.632812 20.359375 10.222656 L 6.640625 1.777344 C 6.375 1.617188 6.074219 1.519531 5.765625 1.5 Z M 5.765625 1.5 "/>
<path style=" stroke:none;fill-rule:nonzero;fill:rgb(0%,0%,0%);fill-opacity:0.4;" d="M 5.765625 22.5 C 5.242188 22.53125 4.730469 22.347656 4.347656 21.988281 C 3.964844 21.628906 3.75 21.128906 3.75 20.605469 L 3.75 20.25 C 3.75 20.9375 4.121094 21.570312 4.722656 21.90625 C 5.320312 22.242188 6.054688 22.226562 6.640625 21.867188 L 20.359375 13.425781 C 20.921875 13.078125 21.289062 12.484375 21.34375 11.824219 C 21.410156 12.609375 21.03125 13.367188 20.359375 13.777344 L 6.640625 22.222656 C 6.375 22.382812 6.074219 22.480469 5.765625 22.5 Z M 5.765625 22.5 "/>
<path style=" stroke:none;fill-rule:nonzero;fill:rgb(0%,0%,0%);fill-opacity:0.2;" d="M 21.332031 12.28125 C 21.25 12.902344 20.890625 13.449219 20.359375 13.777344 L 6.640625 22.222656 C 6.054688 22.582031 5.320312 22.597656 4.722656 22.261719 C 4.121094 21.925781 3.75 21.292969 3.75 20.605469 L 3.75 21.167969 C 3.75 21.855469 4.121094 22.488281 4.722656 22.824219 C 5.320312 23.160156 6.054688 23.144531 6.640625 22.785156 L 20.359375 14.34375 C 21.0625 13.910156 21.445312 13.101562 21.332031 12.28125 Z M 21.332031 12.28125 "/>
<path style=" stroke:none;fill-rule:nonzero;fill:url(#linear0);" d="M 3.75 3.394531 L 3.75 20.605469 C 3.75 21.292969 4.121094 21.925781 4.722656 22.261719 C 5.320312 22.597656 6.054688 22.582031 6.640625 22.222656 L 20.359375 13.777344 C 20.976562 13.398438 21.351562 12.726562 21.351562 12 C 21.351562 11.273438 20.976562 10.601562 20.359375 10.222656 L 6.640625 1.777344 C 6.054688 1.417969 5.320312 1.402344 4.722656 1.738281 C 4.121094 2.074219 3.75 2.707031 3.75 3.394531 Z M 3.75 3.394531 "/>
</g>
</svg>
