
<svg xmlns="http://www.w3.org/2000/svg" xmlns:xlink="http://www.w3.org/1999/xlink" width="48" height="48" viewBox="0 0 48 48" version="1.1">
<defs>
<linearGradient id="linear0" gradientUnits="userSpaceOnUse" x1="31.999998" y1="60" x2="31.999998" y2="3.999999" gradientTransform="matrix(0.75,0,0,0.75,0,0.000000000000085265)">
<stop offset="0" style="stop-color:rgb(0%,0%,0%);stop-opacity:0.2;"/>
<stop offset="1" style="stop-color:rgb(100%,100%,100%);stop-opacity:0;"/>
</linearGradient>
</defs>
<g id="surface1">
<path style=" stroke:none;fill-rule:nonzero;fill:rgb(36.862746%,50.588238%,67.450982%);fill-opacity:1;" d="M 28.5 6 C 27.386719 6 26.417969 6.601562 25.898438 7.5 L 7.5 7.5 C 5.839844 7.5 4.5 8.839844 4.5 10.5 L 4.5 15 C 4.5 16.660156 5.839844 18 7.5 18 L 40.5 18 C 42.160156 18 43.5 16.660156 43.5 15 L 43.5 9 C 43.5 7.339844 42.160156 6 40.5 6 Z M 28.5 6 "/>
<path style=" stroke:none;fill-rule:nonzero;fill:rgb(100%,100%,100%);fill-opacity:0.4;" d="M 28.5 6 C 27.386719 6 26.417969 6.601562 25.898438 7.5 L 7.5 7.5 C 5.839844 7.5 4.5 8.839844 4.5 10.5 L 4.5 10.554688 C 4.660156 9.042969 5.929688 7.875 7.484375 7.875 L 25.882812 7.875 C 26.398438 6.976562 27.367188 6.375 28.480469 6.375 L 40.480469 6.375 C 42.144531 6.375 43.480469 7.714844 43.480469 9.375 L 43.480469 15.316406 C 43.492188 15.214844 43.5 15.109375 43.5 15 L 43.5 9 C 43.5 7.339844 42.160156 6 40.5 6 Z M 28.5 6 "/>
<path style=" stroke:none;fill-rule:nonzero;fill:rgb(50.588238%,63.137257%,75.686276%);fill-opacity:1;" d="M 6 9 C 4.339844 9 3 10.339844 3 12 L 3 39 C 3 40.660156 4.339844 42 6 42 L 42 42 C 43.660156 42 45 40.660156 45 39 L 45 15 C 45 13.339844 43.660156 12 42 12 L 28.539062 12 C 28.527344 12 28.511719 12 28.5 12 C 27.667969 12 27 11.332031 27 10.5 C 27 9.667969 26.332031 9 25.5 9 Z M 6 9 "/>
<path style=" stroke:none;fill-rule:nonzero;fill:rgb(100%,100%,100%);fill-opacity:0.4;" d="M 6 9 C 4.339844 9 3 10.339844 3 12 L 3 12.75 C 3 11.089844 4.339844 9.75 6 9.75 L 25.5 9.75 C 26.332031 9.75 27 10.417969 27 11.25 C 27 12.082031 27.667969 12.75 28.5 12.75 C 28.511719 12.75 28.527344 12.75 28.539062 12.75 L 42 12.75 C 43.660156 12.75 45 14.089844 45 15.75 L 45 15 C 45 13.339844 43.660156 12 42 12 L 28.539062 12 C 28.527344 12 28.511719 12 28.5 12 C 27.667969 12 27 11.332031 27 10.5 C 27 9.667969 26.332031 9 25.5 9 Z M 6 9 "/>
<path style=" stroke:none;fill-rule:nonzero;fill:rgb(0%,0%,0%);fill-opacity:0.4;" d="M 3 38.25 L 3 39 C 3 40.660156 4.339844 42 6 42 L 42 42 C 43.660156 42 45 40.660156 45 39 L 45 38.25 C 45 39.910156 43.660156 41.25 42 41.25 L 6 41.25 C 4.339844 41.25 3 39.910156 3 38.25 Z M 3 38.25 "/>
<path style=" stroke:none;fill-rule:nonzero;fill:rgb(0%,0%,0%);fill-opacity:0.2;" d="M 3 39 L 3 40.125 C 3 41.785156 4.339844 43.125 6 43.125 L 42 43.125 C 43.660156 43.125 45 41.785156 45 40.125 L 45 39 C 45 40.660156 43.660156 42 42 42 L 6 42 C 4.339844 42 3 40.660156 3 39 Z M 3 39 "/>
<path style=" stroke:none;fill-rule:nonzero;fill:rgb(67.058825%,82.352942%,87.058824%);fill-opacity:1;" d="M 23.871094 18 C 23.378906 18.007812 22.902344 18.058594 22.4375 18.15625 L 21.9375 20.65625 C 21.523438 20.828125 21.140625 21.050781 20.789062 21.316406 L 18.375 20.503906 C 18.039062 20.878906 17.738281 21.296875 17.472656 21.75 C 17.210938 22.203125 17 22.675781 16.84375 23.152344 L 18.761719 24.839844 C 18.734375 25.054688 18.71875 25.277344 18.71875 25.5 C 18.71875 25.722656 18.734375 25.945312 18.761719 26.164062 L 16.84375 27.847656 C 17 28.324219 17.210938 28.796875 17.472656 29.25 C 17.738281 29.703125 18.039062 30.121094 18.375 30.5 L 20.789062 29.683594 C 21.140625 29.949219 21.523438 30.171875 21.9375 30.347656 L 22.4375 32.84375 C 22.933594 32.945312 23.445312 33 23.96875 33 C 24.496094 33 25.007812 32.945312 25.5 32.84375 L 26 30.347656 C 26.414062 30.171875 26.800781 29.949219 27.152344 29.683594 L 29.566406 30.5 C 29.898438 30.121094 30.203125 29.703125 30.464844 29.25 C 30.726562 28.796875 30.9375 28.324219 31.09375 27.847656 L 29.179688 26.164062 C 29.207031 25.945312 29.21875 25.722656 29.21875 25.5 C 29.21875 25.277344 29.207031 25.054688 29.179688 24.839844 L 31.09375 23.152344 C 30.9375 22.675781 30.726562 22.203125 30.464844 21.75 C 30.203125 21.296875 29.898438 20.878906 29.566406 20.503906 L 27.152344 21.316406 C 26.800781 21.050781 26.414062 20.828125 26 20.65625 L 25.5 18.15625 C 25.007812 18.054688 24.496094 18 23.96875 18 C 23.9375 18 23.902344 18 23.871094 18 Z M 23.96875 22.5 C 25.632812 22.5 26.96875 23.839844 26.96875 25.5 C 26.96875 27.160156 25.632812 28.5 23.96875 28.5 C 22.308594 28.5 20.96875 27.160156 20.96875 25.5 C 20.96875 23.839844 22.308594 22.5 23.96875 22.5 Z M 23.96875 22.5 "/>
<path style=" stroke:none;fill-rule:nonzero;fill:rgb(0%,0%,0%);fill-opacity:0.4;" d="M 23.96875 22.496094 C 22.308594 22.496094 20.96875 23.835938 20.96875 25.496094 C 20.96875 25.5625 20.972656 25.625 20.976562 25.6875 C 21.074219 24.113281 22.371094 22.875 23.96875 22.875 C 25.566406 22.875 26.863281 24.113281 26.960938 25.6875 C 26.964844 25.625 26.96875 25.5625 26.96875 25.496094 C 26.96875 23.835938 25.632812 22.496094 23.96875 22.496094 Z M 16.945312 23.242188 C 16.910156 23.335938 16.875 23.433594 16.84375 23.527344 L 18.726562 25.183594 C 18.734375 25.066406 18.746094 24.949219 18.761719 24.835938 Z M 30.992188 23.242188 L 29.179688 24.835938 C 29.191406 24.949219 29.203125 25.066406 29.210938 25.183594 L 31.09375 23.527344 C 31.0625 23.433594 31.027344 23.335938 30.992188 23.242188 Z M 18.722656 25.6875 C 18.722656 25.75 18.71875 25.8125 18.71875 25.875 C 18.71875 25.980469 18.722656 26.085938 18.726562 26.1875 L 18.761719 26.160156 C 18.742188 26.003906 18.730469 25.84375 18.722656 25.6875 Z M 29.214844 25.6875 C 29.210938 25.84375 29.199219 26.003906 29.179688 26.160156 L 29.210938 26.1875 C 29.214844 26.085938 29.21875 25.980469 29.21875 25.875 C 29.21875 25.8125 29.21875 25.75 29.214844 25.6875 Z M 16.945312 28.128906 L 16.84375 28.222656 C 17 28.699219 17.210938 29.171875 17.472656 29.625 C 17.738281 30.078125 18.039062 30.496094 18.375 30.871094 L 20.789062 30.058594 C 21.140625 30.324219 21.523438 30.546875 21.9375 30.71875 L 22.4375 33.21875 C 22.933594 33.320312 23.445312 33.375 23.96875 33.375 C 24.496094 33.375 25.007812 33.320312 25.5 33.21875 L 26 30.71875 C 26.414062 30.546875 26.800781 30.324219 27.152344 30.058594 L 29.566406 30.871094 C 29.898438 30.496094 30.203125 30.078125 30.464844 29.625 C 30.726562 29.171875 30.9375 28.699219 31.09375 28.222656 L 30.992188 28.128906 C 30.851562 28.511719 30.675781 28.882812 30.464844 29.246094 C 30.203125 29.703125 29.898438 30.117188 29.566406 30.496094 L 27.152344 29.679688 C 26.800781 29.945312 26.414062 30.171875 26 30.34375 L 25.5 32.839844 C 25.007812 32.945312 24.496094 32.996094 23.96875 32.996094 C 23.445312 32.996094 22.933594 32.945312 22.4375 32.839844 L 21.9375 30.34375 C 21.523438 30.171875 21.140625 29.945312 20.789062 29.679688 L 18.375 30.496094 C 18.039062 30.117188 17.738281 29.703125 17.472656 29.246094 C 17.265625 28.882812 17.089844 28.511719 16.945312 28.128906 Z M 16.945312 28.128906 "/>
<path style=" stroke:none;fill-rule:nonzero;fill:rgb(99.607843%,99.607843%,99.607843%);fill-opacity:0.4;" d="M 23.96875 28.875 C 22.308594 28.875 20.96875 27.539062 20.96875 25.875 C 20.96875 25.8125 20.972656 25.75 20.976562 25.6875 C 21.074219 27.261719 22.371094 28.496094 23.96875 28.496094 C 25.566406 28.496094 26.863281 27.261719 26.960938 25.6875 C 26.964844 25.75 26.96875 25.8125 26.96875 25.875 C 26.96875 27.539062 25.632812 28.875 23.96875 28.875 Z M 16.945312 28.132812 C 16.910156 28.035156 16.875 27.941406 16.84375 27.84375 L 18.726562 26.1875 C 18.734375 26.304688 18.746094 26.421875 18.761719 26.539062 Z M 30.992188 28.132812 L 29.179688 26.539062 C 29.191406 26.421875 29.203125 26.304688 29.210938 26.1875 L 31.09375 27.84375 C 31.0625 27.941406 31.027344 28.035156 30.992188 28.132812 Z M 18.722656 25.6875 C 18.722656 25.625 18.71875 25.5625 18.71875 25.496094 C 18.71875 25.394531 18.722656 25.289062 18.726562 25.1875 L 18.761719 25.214844 C 18.742188 25.371094 18.730469 25.527344 18.722656 25.6875 Z M 29.214844 25.6875 C 29.210938 25.527344 29.199219 25.367188 29.179688 25.214844 L 29.210938 25.183594 C 29.214844 25.289062 29.21875 25.394531 29.21875 25.496094 C 29.21875 25.5625 29.21875 25.625 29.214844 25.6875 Z M 16.945312 23.242188 L 16.84375 23.152344 C 17 22.671875 17.210938 22.203125 17.472656 21.746094 C 17.738281 21.292969 18.039062 20.878906 18.375 20.5 L 20.789062 21.316406 C 21.140625 21.046875 21.523438 20.824219 21.9375 20.652344 L 22.4375 18.152344 C 22.933594 18.050781 23.445312 17.996094 23.96875 17.996094 C 24.496094 17.996094 25.007812 18.050781 25.5 18.152344 L 26 20.652344 C 26.414062 20.824219 26.800781 21.046875 27.152344 21.316406 L 29.566406 20.5 C 29.898438 20.878906 30.203125 21.292969 30.464844 21.746094 C 30.726562 22.203125 30.9375 22.671875 31.09375 23.152344 L 30.992188 23.242188 C 30.851562 22.863281 30.675781 22.488281 30.464844 22.125 C 30.203125 21.671875 29.898438 21.253906 29.566406 20.878906 L 27.152344 21.695312 C 26.800781 21.425781 26.414062 21.203125 26 21.03125 L 25.5 18.53125 C 25.007812 18.429688 24.496094 18.375 23.96875 18.375 C 23.445312 18.375 22.933594 18.429688 22.4375 18.53125 L 21.9375 21.03125 C 21.523438 21.203125 21.140625 21.425781 20.789062 21.695312 L 18.375 20.878906 C 18.039062 21.253906 17.738281 21.671875 17.472656 22.125 C 17.265625 22.488281 17.089844 22.863281 16.945312 23.242188 Z M 16.945312 23.242188 "/>
<path style=" stroke:none;fill-rule:nonzero;fill:url(#linear0);" d="M 28.5 6 C 27.386719 6 26.417969 6.601562 25.898438 7.5 L 7.5 7.5 C 6.28125 7.5 5.234375 8.222656 4.765625 9.261719 C 3.722656 9.734375 3 10.78125 3 12 L 3 39 C 3 40.660156 4.339844 42 6 42 L 42 42 C 43.660156 42 45 40.660156 45 39 L 45 15 C 45 13.886719 44.398438 12.917969 43.5 12.402344 L 43.5 9 C 43.5 7.339844 42.160156 6 40.5 6 Z M 28.5 6 "/>
</g>
</svg>
