
<svg xmlns="http://www.w3.org/2000/svg" xmlns:xlink="http://www.w3.org/1999/xlink" width="16" height="16" viewBox="0 0 16 16" version="1.1">
<defs>
<linearGradient id="linear0" gradientUnits="userSpaceOnUse" x1="32" y1="59.999996" x2="32" y2="4" gradientTransform="matrix(0.25,0,0,0.25,0,0)">
<stop offset="0" style="stop-color:rgb(0%,0%,0%);stop-opacity:0.2;"/>
<stop offset="1" style="stop-color:rgb(100%,100%,100%);stop-opacity:0;"/>
</linearGradient>
</defs>
<g id="surface1">
<path style=" stroke:none;fill-rule:nonzero;fill:rgb(40.000001%,73.333335%,41.568628%);fill-opacity:1;" d="M 1.292969 5.832031 C 0.613281 7.015625 1.164062 8.03125 2.441406 8.769531 C 3.71875 9.507812 5.558594 8.292969 8 8 C 7.035156 5.738281 7.164062 3.539062 5.886719 2.800781 C 4.609375 2.0625 3.453125 2.09375 2.769531 3.277344 C 2.492188 3.757812 2.394531 4.289062 2.457031 4.800781 C 1.984375 5 1.570312 5.351562 1.292969 5.832031 Z M 1.292969 5.832031 "/>
<path style=" stroke:none;fill-rule:nonzero;fill:rgb(100%,79.215688%,15.686275%);fill-opacity:1;" d="M 13.230469 12.722656 C 12.546875 13.90625 11.390625 13.9375 10.113281 13.199219 C 8.835938 12.460938 8.964844 10.261719 8 8 C 10.441406 7.707031 12.28125 6.492188 13.558594 7.230469 C 14.835938 7.96875 15.386719 8.984375 14.707031 10.167969 C 14.429688 10.648438 14.015625 11 13.542969 11.199219 C 13.605469 11.710938 13.507812 12.242188 13.230469 12.722656 Z M 13.230469 12.722656 "/>
<path style=" stroke:none;fill-rule:nonzero;fill:rgb(95.686275%,26.274511%,21.176471%);fill-opacity:1;" d="M 10.167969 1.292969 C 8.984375 0.613281 7.96875 1.164062 7.230469 2.441406 C 6.492188 3.71875 7.707031 5.558594 8 8 C 10.261719 7.035156 12.460938 7.164062 13.199219 5.886719 C 13.9375 4.609375 13.90625 3.453125 12.722656 2.769531 C 12.242188 2.492188 11.710938 2.394531 11.199219 2.457031 C 11 1.984375 10.648438 1.570312 10.167969 1.292969 Z M 10.167969 1.292969 "/>
<path style=" stroke:none;fill-rule:nonzero;fill:rgb(25.882354%,64.705884%,96.078432%);fill-opacity:1;" d="M 3.277344 13.230469 C 2.09375 12.546875 2.0625 11.390625 2.800781 10.113281 C 3.539062 8.835938 5.738281 8.964844 8 8 C 8.292969 10.441406 9.507812 12.28125 8.769531 13.558594 C 8.03125 14.835938 7.015625 15.386719 5.832031 14.707031 C 5.351562 14.429688 5 14.015625 4.800781 13.542969 C 4.289062 13.605469 3.757812 13.507812 3.277344 13.230469 Z M 3.277344 13.230469 "/>
<path style=" stroke:none;fill-rule:nonzero;fill:rgb(100%,100%,100%);fill-opacity:0.4;" d="M 4.308594 2.304688 C 3.6875 2.3125 3.15625 2.613281 2.769531 3.277344 C 2.523438 3.703125 2.417969 4.175781 2.441406 4.632812 C 2.460938 4.253906 2.570312 3.875 2.769531 3.527344 C 3.453125 2.34375 4.609375 2.3125 5.886719 3.050781 C 7.121094 3.765625 7.039062 5.835938 7.902344 8.011719 C 7.933594 8.007812 7.96875 8.003906 8 8 C 7.035156 5.738281 7.164062 3.539062 5.886719 2.800781 C 5.328125 2.476562 4.789062 2.304688 4.308594 2.304688 Z M 2.441406 4.808594 C 1.976562 5.011719 1.570312 5.359375 1.292969 5.832031 C 1.066406 6.226562 0.976562 6.601562 1.003906 6.953125 C 1.027344 6.675781 1.121094 6.386719 1.292969 6.085938 C 1.570312 5.601562 1.984375 5.253906 2.457031 5.050781 C 2.445312 4.96875 2.441406 4.886719 2.441406 4.808594 Z M 2.441406 4.808594 "/>
<path style=" stroke:none;fill-rule:nonzero;fill:rgb(100%,100%,100%);fill-opacity:0.4;" d="M 12.566406 6.996094 C 11.386719 7.011719 9.871094 7.773438 8 8 C 8.035156 8.078125 8.066406 8.160156 8.097656 8.238281 C 10.492188 7.925781 12.296875 6.753906 13.558594 7.480469 C 14.410156 7.972656 14.941406 8.589844 14.996094 9.296875 C 15.058594 8.484375 14.511719 7.78125 13.558594 7.230469 C 13.257812 7.058594 12.929688 6.992188 12.566406 6.996094 Z M 13.558594 11.445312 C 13.554688 11.445312 13.550781 11.449219 13.542969 11.453125 C 13.550781 11.507812 13.554688 11.5625 13.558594 11.617188 C 13.558594 11.558594 13.5625 11.503906 13.558594 11.445312 Z M 13.558594 11.445312 "/>
<path style=" stroke:none;fill-rule:nonzero;fill:rgb(100%,100%,100%);fill-opacity:0.4;" d="M 9.160156 1 C 8.40625 1.003906 7.75 1.542969 7.230469 2.441406 C 7.042969 2.765625 6.980469 3.128906 7 3.523438 C 7.015625 3.226562 7.082031 2.949219 7.230469 2.691406 C 7.96875 1.414062 8.984375 0.863281 10.167969 1.546875 C 10.648438 1.824219 11 2.234375 11.199219 2.707031 C 11.710938 2.648438 12.242188 2.742188 12.722656 3.023438 C 13.347656 3.382812 13.648438 3.875 13.6875 4.445312 C 13.730469 3.765625 13.4375 3.183594 12.722656 2.769531 C 12.242188 2.492188 11.710938 2.394531 11.199219 2.457031 C 11 1.984375 10.648438 1.570312 10.167969 1.292969 C 9.816406 1.09375 9.480469 0.996094 9.160156 1 Z M 9.160156 1 "/>
<path style=" stroke:none;fill-rule:nonzero;fill:rgb(100%,100%,100%);fill-opacity:0.4;" d="M 8 8 C 5.738281 8.964844 3.539062 8.835938 2.800781 10.113281 C 2.453125 10.71875 2.277344 11.292969 2.3125 11.804688 C 2.339844 11.359375 2.507812 10.871094 2.800781 10.363281 C 3.539062 9.085938 5.738281 9.21875 8 8.25 C 8.21875 10.074219 8.949219 11.558594 9 12.726562 C 9.058594 11.523438 8.234375 9.957031 8 8 Z M 8 8 "/>
<path style=" stroke:none;fill-rule:nonzero;fill:rgb(0%,0%,0%);fill-opacity:0.4;" d="M 2.441406 4.382812 C 2.441406 4.441406 2.4375 4.5 2.441406 4.558594 C 2.445312 4.554688 2.449219 4.554688 2.457031 4.550781 C 2.449219 4.496094 2.445312 4.4375 2.441406 4.382812 Z M 1.003906 6.703125 C 0.941406 7.515625 1.488281 8.21875 2.441406 8.769531 C 3.71875 9.507812 5.558594 8.292969 8 8 C 7.964844 7.921875 7.933594 7.84375 7.902344 7.765625 C 5.507812 8.078125 3.703125 9.25 2.441406 8.519531 C 1.585938 8.027344 1.058594 7.410156 1.003906 6.703125 Z M 1.003906 6.703125 "/>
<path style=" stroke:none;fill-rule:nonzero;fill:rgb(0%,0%,0%);fill-opacity:0.4;" d="M 8.097656 7.988281 C 8.066406 7.992188 8.03125 7.996094 8 8 C 8.964844 10.261719 8.835938 12.460938 10.113281 13.199219 C 11.390625 13.9375 12.546875 13.90625 13.230469 12.722656 C 13.476562 12.296875 13.582031 11.828125 13.558594 11.367188 C 13.539062 11.746094 13.429688 12.125 13.230469 12.476562 C 12.546875 13.65625 11.390625 13.6875 10.113281 12.949219 C 8.878906 12.238281 8.957031 10.164062 8.097656 7.988281 Z M 14.996094 9.046875 C 14.972656 9.324219 14.878906 9.617188 14.707031 9.917969 C 14.429688 10.398438 14.015625 10.75 13.542969 10.953125 C 13.554688 11.03125 13.558594 11.113281 13.558594 11.191406 C 14.023438 10.988281 14.429688 10.640625 14.707031 10.167969 C 14.933594 9.773438 15.023438 9.398438 14.996094 9.046875 Z M 14.996094 9.046875 "/>
<path style=" stroke:none;fill-rule:nonzero;fill:rgb(0%,0%,0%);fill-opacity:0.4;" d="M 7 3.277344 C 6.941406 4.480469 7.765625 6.046875 8 8 C 10.261719 7.035156 12.460938 7.164062 13.199219 5.886719 C 13.546875 5.28125 13.722656 4.707031 13.6875 4.195312 C 13.664062 4.640625 13.492188 5.128906 13.199219 5.636719 C 12.460938 6.917969 10.261719 6.785156 8 7.75 C 7.78125 5.929688 7.050781 4.445312 7 3.277344 Z M 7 3.277344 "/>
<path style=" stroke:none;fill-rule:nonzero;fill:rgb(0%,0%,0%);fill-opacity:0.4;" d="M 2.3125 11.554688 C 2.269531 12.234375 2.5625 12.816406 3.277344 13.230469 C 3.757812 13.507812 4.289062 13.605469 4.800781 13.542969 C 5 14.015625 5.351562 14.429688 5.832031 14.707031 C 7.015625 15.386719 8.03125 14.835938 8.769531 13.558594 C 8.957031 13.234375 9.019531 12.875 9 12.476562 C 8.984375 12.777344 8.917969 13.054688 8.769531 13.308594 C 8.03125 14.589844 7.015625 15.140625 5.832031 14.457031 C 5.351562 14.179688 5 13.765625 4.800781 13.296875 C 4.289062 13.355469 3.757812 13.257812 3.277344 12.980469 C 2.652344 12.621094 2.347656 12.128906 2.3125 11.554688 Z M 2.3125 11.554688 "/>
<path style=" stroke:none;fill-rule:nonzero;fill:rgb(100%,100%,100%);fill-opacity:0.101961;" d="M 9.160156 1 C 8.40625 1.003906 7.75 1.542969 7.230469 2.441406 C 6.492188 3.71875 7.707031 5.558594 8 8 C 10.261719 7.035156 12.460938 7.164062 13.199219 5.886719 C 13.9375 4.609375 13.90625 3.453125 12.722656 2.769531 C 12.242188 2.492188 11.710938 2.394531 11.199219 2.457031 C 11 1.984375 10.648438 1.570312 10.167969 1.292969 C 9.816406 1.09375 9.480469 0.996094 9.160156 1 Z M 8 8 C 8.210938 8.492188 8.367188 8.980469 8.5 9.453125 C 10.199219 10.246094 12.054688 10.761719 14.011719 10.933594 C 14.285156 10.734375 14.523438 10.480469 14.707031 10.167969 C 15.386719 8.984375 14.835938 7.96875 13.558594 7.230469 C 12.28125 6.492188 10.441406 7.707031 8 8 Z M 8 8 C 7.554688 8.191406 7.113281 8.335938 6.679688 8.460938 C 7.1875 8.78125 7.710938 9.074219 8.25 9.335938 C 8.148438 8.914062 8.054688 8.46875 8 8 Z M 8 8 C 7.035156 5.738281 7.164062 3.539062 5.886719 2.800781 C 4.609375 2.0625 3.453125 2.09375 2.769531 3.277344 C 2.527344 3.695312 2.421875 4.15625 2.441406 4.609375 C 3.558594 6.050781 4.910156 7.304688 6.441406 8.308594 C 6.929688 8.179688 7.449219 8.066406 8 8 Z M 8 8 "/>
<path style=" stroke:none;fill-rule:nonzero;fill:url(#linear0);" d="M 9.160156 1 C 8.40625 1.003906 7.75 1.542969 7.230469 2.441406 C 6.492188 3.71875 7.707031 5.558594 8 8 C 10.261719 7.035156 12.460938 7.164062 13.199219 5.886719 C 13.9375 4.609375 13.90625 3.453125 12.722656 2.769531 C 12.242188 2.492188 11.710938 2.394531 11.199219 2.457031 C 11 1.984375 10.648438 1.570312 10.167969 1.292969 C 9.816406 1.09375 9.480469 0.996094 9.160156 1 Z M 8 8 C 8.964844 10.261719 8.835938 12.460938 10.113281 13.199219 C 11.390625 13.9375 12.546875 13.90625 13.230469 12.722656 C 13.507812 12.242188 13.605469 11.710938 13.542969 11.199219 C 14.015625 11 14.429688 10.648438 14.707031 10.167969 C 15.386719 8.984375 14.835938 7.96875 13.558594 7.230469 C 12.28125 6.492188 10.441406 7.707031 8 8 Z M 8 8 C 5.738281 8.964844 3.539062 8.835938 2.800781 10.113281 C 2.0625 11.390625 2.09375 12.546875 3.277344 13.230469 C 3.757812 13.507812 4.289062 13.605469 4.800781 13.542969 C 5 14.015625 5.351562 14.429688 5.832031 14.707031 C 7.015625 15.386719 8.03125 14.835938 8.769531 13.558594 C 9.507812 12.28125 8.292969 10.441406 8 8 Z M 8 8 C 7.035156 5.738281 7.164062 3.539062 5.886719 2.800781 C 4.609375 2.0625 3.453125 2.09375 2.769531 3.277344 C 2.492188 3.757812 2.394531 4.289062 2.457031 4.800781 C 1.984375 5 1.570312 5.351562 1.292969 5.832031 C 0.613281 7.015625 1.164062 8.03125 2.441406 8.769531 C 3.71875 9.507812 5.558594 8.292969 8 8 Z M 8 8 "/>
<path style=" stroke:none;fill-rule:nonzero;fill:rgb(0%,0%,0%);fill-opacity:0.2;" d="M 7.003906 3.585938 C 6.921875 4.675781 7.59375 6.066406 7.90625 7.777344 C 7.9375 7.851562 7.96875 7.925781 8 8 C 7.785156 6.210938 7.078125 4.746094 7.003906 3.585938 Z M 8 8 C 9.769531 7.785156 11.222656 7.09375 12.375 7.007812 C 12.726562 6.820312 13.011719 6.585938 13.199219 6.261719 C 13.558594 5.636719 13.734375 5.042969 13.683594 4.515625 C 13.644531 4.941406 13.476562 5.40625 13.199219 5.886719 C 12.460938 7.164062 10.261719 7.035156 8 8 Z M 8 8 C 8.015625 8.121094 8.03125 8.238281 8.050781 8.355469 C 8.078125 8.34375 8.101562 8.332031 8.128906 8.320312 C 8.089844 8.214844 8.046875 8.109375 8 8 Z M 8 8 C 7.980469 8.003906 7.964844 8.003906 7.945312 8.007812 C 7.949219 8.011719 7.949219 8.015625 7.949219 8.019531 C 7.964844 8.015625 7.984375 8.007812 8 8 Z M 2.445312 4.699219 C 2.445312 4.734375 2.441406 4.769531 2.441406 4.808594 C 2.445312 4.804688 2.449219 4.800781 2.457031 4.800781 C 2.453125 4.765625 2.449219 4.734375 2.445312 4.699219 Z M 1.011719 7.019531 C 0.914062 7.855469 1.464844 8.582031 2.441406 9.144531 C 2.792969 9.347656 3.1875 9.402344 3.625 9.371094 C 4.636719 8.84375 6.230469 8.726562 7.871094 8.054688 C 7.867188 8.042969 7.863281 8.03125 7.855469 8.019531 C 5.484375 8.34375 3.695312 9.492188 2.441406 8.769531 C 1.613281 8.292969 1.09375 7.699219 1.011719 7.019531 Z M 8.144531 8.355469 C 8.113281 8.359375 8.082031 8.363281 8.050781 8.367188 C 8.066406 8.445312 8.078125 8.523438 8.089844 8.597656 C 8.960938 10.78125 8.878906 12.859375 10.113281 13.574219 C 11.390625 14.3125 12.546875 14.28125 13.230469 13.101562 C 13.488281 12.652344 13.589844 12.15625 13.554688 11.675781 C 13.527344 12.035156 13.421875 12.390625 13.230469 12.722656 C 12.546875 13.90625 11.390625 13.9375 10.113281 13.199219 C 8.902344 12.5 8.957031 10.492188 8.144531 8.355469 Z M 14.988281 9.355469 C 14.957031 9.617188 14.867188 9.886719 14.707031 10.167969 C 14.429688 10.648438 14.015625 11 13.542969 11.199219 C 13.558594 11.320312 13.5625 11.445312 13.558594 11.570312 C 14.023438 11.367188 14.429688 11.015625 14.707031 10.542969 C 14.945312 10.125 15.035156 9.726562 14.988281 9.355469 Z M 2.316406 11.859375 C 2.25 12.570312 2.539062 13.179688 3.277344 13.605469 C 3.757812 13.882812 4.289062 13.980469 4.800781 13.917969 C 5 14.390625 5.351562 14.804688 5.832031 15.082031 C 7.015625 15.761719 8.03125 15.214844 8.769531 13.933594 C 8.964844 13.59375 9.023438 13.210938 8.996094 12.789062 C 8.976562 13.066406 8.90625 13.320312 8.769531 13.558594 C 8.03125 14.835938 7.015625 15.386719 5.832031 14.707031 C 5.351562 14.429688 5 14.015625 4.800781 13.542969 C 4.289062 13.605469 3.757812 13.507812 3.277344 13.230469 C 2.671875 12.878906 2.371094 12.410156 2.316406 11.859375 Z M 2.316406 11.859375 "/>
</g>
</svg>
