
<svg xmlns="http://www.w3.org/2000/svg" xmlns:xlink="http://www.w3.org/1999/xlink" width="16" height="16" viewBox="0 0 16 16" version="1.1">
<defs>
<linearGradient id="linear0" gradientUnits="userSpaceOnUse" x1="31.999998" y1="60" x2="31.999998" y2="4" gradientTransform="matrix(0.25,0,0,0.25,-0.000000680315,0)">
<stop offset="0" style="stop-color:rgb(0%,0%,0%);stop-opacity:0.2;"/>
<stop offset="1" style="stop-color:rgb(100%,100%,100%);stop-opacity:0;"/>
</linearGradient>
</defs>
<g id="surface1">
<path style=" stroke:none;fill-rule:nonzero;fill:rgb(92.54902%,25.098041%,47.843137%);fill-opacity:1;" d="M 10 1 L 3.25 1 C 2.835938 1 2.5 1.335938 2.5 1.75 L 2.5 14.25 C 2.5 14.664062 2.835938 15 3.25 15 L 12.75 15 C 13.164062 15 13.5 14.664062 13.5 14.25 L 13.5 4.5 Z M 10 1 "/>
<path style=" stroke:none;fill-rule:nonzero;fill:rgb(0%,0%,0%);fill-opacity:0.4;" d="M 10 3.75 L 10 4 C 10 4.414062 10.335938 4.75 10.75 4.75 L 13.5 4.75 L 13.25 4.5 L 10.75 4.5 C 10.335938 4.5 10 4.164062 10 3.75 Z M 10 3.75 "/>
<path style=" stroke:none;fill-rule:nonzero;fill:rgb(94.117647%,38.431373%,57.254905%);fill-opacity:0.996078;" d="M 13.5 4.5 L 10 1 L 10 3.75 C 10 4.164062 10.335938 4.5 10.75 4.5 Z M 13.5 4.5 "/>
<path style=" stroke:none;fill-rule:nonzero;fill:rgb(100%,100%,100%);fill-opacity:0.4;" d="M 3.25 1 C 2.835938 1 2.5 1.335938 2.5 1.75 L 2.5 2 C 2.5 1.585938 2.835938 1.25 3.25 1.25 L 10 1.25 L 13.5 4.75 L 13.5 4.5 L 10 1 Z M 3.25 1 "/>
<path style=" stroke:none;fill-rule:nonzero;fill:rgb(0%,0%,0%);fill-opacity:0.2;" d="M 2.5 14.246094 L 2.5 14.625 C 2.5 15.039062 2.835938 15.375 3.25 15.375 L 12.75 15.375 C 13.164062 15.375 13.5 15.039062 13.5 14.625 L 13.5 14.246094 C 13.5 14.660156 13.164062 14.996094 12.75 14.996094 L 3.25 14.996094 C 2.835938 14.996094 2.5 14.660156 2.5 14.246094 Z M 2.5 14.246094 "/>
<path style=" stroke:none;fill-rule:nonzero;fill:rgb(0%,0%,0%);fill-opacity:0.4;" d="M 2.5 14.03125 L 2.5 14.25 C 2.5 14.664062 2.835938 15 3.25 15 L 12.75 15 C 13.164062 15 13.5 14.664062 13.5 14.25 L 13.5 14.03125 C 13.5 14.445312 13.164062 14.78125 12.75 14.78125 L 3.25 14.78125 C 2.835938 14.78125 2.5 14.445312 2.5 14.03125 Z M 2.5 14.03125 "/>
<path style=" stroke:none;fill-rule:nonzero;fill:rgb(95.686275%,56.078434%,69.411767%);fill-opacity:1;" d="M 6 6 C 5.722656 6 5.5 6.222656 5.5 6.5 L 5.5 8.25 L 7.75 8.25 L 7.75 6 Z M 8.25 6 L 8.25 8.25 L 10.5 8.25 L 10.5 6.5 C 10.5 6.222656 10.277344 6 10 6 Z M 5.5 8.75 L 5.5 10.5 C 5.5 10.777344 5.722656 11 6 11 L 7.75 11 L 7.75 8.75 Z M 8.25 8.75 L 8.25 11 L 10 11 C 10.277344 11 10.5 10.777344 10.5 10.5 L 10.5 8.75 Z M 8.25 8.75 "/>
<path style=" stroke:none;fill-rule:nonzero;fill:rgb(99.607843%,99.607843%,99.607843%);fill-opacity:0.4;" d="M 6 6 C 5.722656 6 5.5 6.222656 5.5 6.5 L 5.5 6.625 C 5.5 6.347656 5.722656 6.125 6 6.125 L 7.75 6.125 L 7.75 6 Z M 8.25 6 L 8.25 6.125 L 10 6.125 C 10.277344 6.125 10.5 6.347656 10.5 6.625 L 10.5 6.5 C 10.5 6.222656 10.277344 6 10 6 Z M 5.5 8.75 L 5.5 8.875 L 7.75 8.875 L 7.75 8.75 Z M 8.25 8.75 L 8.25 8.875 L 10.5 8.875 L 10.5 8.75 Z M 8.25 8.75 "/>
<path style=" stroke:none;fill-rule:nonzero;fill:rgb(0%,0%,0%);fill-opacity:0.4;" d="M 6 11.125 C 5.722656 11.125 5.5 10.902344 5.5 10.625 L 5.5 10.5 C 5.5 10.777344 5.722656 11 6 11 L 7.75 11 L 7.75 11.125 Z M 8.25 11.125 L 8.25 11 L 10 11 C 10.277344 11 10.5 10.777344 10.5 10.5 L 10.5 10.625 C 10.5 10.902344 10.277344 11.125 10 11.125 Z M 5.5 8.375 L 5.5 8.25 L 7.75 8.25 L 7.75 8.375 Z M 8.25 8.375 L 8.25 8.25 L 10.5 8.25 L 10.5 8.375 Z M 8.25 8.375 "/>
<path style=" stroke:none;fill-rule:nonzero;fill:url(#linear0);" d="M 10 1 L 3.25 1 C 2.835938 1 2.5 1.335938 2.5 1.75 L 2.5 14.25 C 2.5 14.664062 2.835938 15 3.25 15 L 12.75 15 C 13.164062 15 13.5 14.664062 13.5 14.25 L 13.5 4.5 Z M 10 1 "/>
</g>
</svg>
