
<svg xmlns="http://www.w3.org/2000/svg" xmlns:xlink="http://www.w3.org/1999/xlink" width="32" height="32" viewBox="0 0 32 32" version="1.1">
<defs>
<linearGradient id="linear0" gradientUnits="userSpaceOnUse" x1="31.999998" y1="59.999996" x2="31.999998" y2="3.999999" gradientTransform="matrix(0.5,0,0,0.5,0,0)">
<stop offset="0" style="stop-color:rgb(0%,0%,0%);stop-opacity:0.2;"/>
<stop offset="1" style="stop-color:rgb(100%,100%,100%);stop-opacity:0;"/>
</linearGradient>
</defs>
<g id="surface1">
<path style=" stroke:none;fill-rule:nonzero;fill:rgb(0%,0%,0%);fill-opacity:0.2;" d="M 2.007812 16.378906 C 2.003906 16.503906 2 16.625 2 16.75 C 2 24.480469 8.269531 30.75 16 30.75 C 23.730469 30.75 30 24.480469 30 16.75 C 30 16.625 29.996094 16.503906 29.992188 16.378906 C 29.796875 23.9375 23.605469 30.007812 16 30.007812 C 8.394531 30.007812 2.203125 23.9375 2.007812 16.378906 Z M 2.007812 16.378906 "/>
<path style=" stroke:none;fill-rule:nonzero;fill:rgb(49.411765%,34.117648%,76.078433%);fill-opacity:1;" d="M 16 2 C 23.730469 2 30 8.269531 30 16 C 30 23.730469 23.730469 30 16 30 C 8.269531 30 2 23.730469 2 16 C 2 8.269531 8.269531 2 16 2 Z M 16 2 "/>
<path style=" stroke:none;fill-rule:evenodd;fill:rgb(93.333334%,93.333334%,93.333334%);fill-opacity:1;" d="M 14.265625 8.578125 C 12.410156 8.582031 10.550781 8.949219 8.839844 9.671875 C 10.226562 9.832031 11.714844 9.832031 12.980469 10.492188 C 12.207031 10.542969 10.371094 10.589844 9.496094 11.515625 C 7.277344 13.382812 6.328125 16.324219 5.878906 19.097656 C 5.820312 19.570312 5.632812 20.511719 6.136719 19.640625 C 6.914062 18.738281 7.605469 17.714844 8.589844 17.03125 C 9.542969 16.933594 8.0625 18.089844 8 18.632812 C 6.871094 20.769531 6.542969 23.207031 6.125 25.554688 C 6.125 25.671875 6.117188 25.789062 6.097656 25.914062 C 8.628906 28.441406 12.125 30 16 30 C 19.480469 30 22.652344 28.742188 25.097656 26.65625 C 23.160156 25.660156 21.453125 24.117188 20.878906 21.972656 C 20.492188 20.644531 20.675781 19 21.890625 18.164062 C 23.503906 16.902344 25.648438 16.996094 27.582031 17.019531 C 28.160156 16.683594 27.207031 15.308594 26.765625 14.773438 C 25.867188 13.753906 24.597656 13.113281 23.277344 12.839844 C 21.804688 11.335938 20.15625 9.914062 18.128906 9.222656 C 16.953125 8.789062 15.699219 8.582031 14.445312 8.578125 C 14.382812 8.578125 14.324219 8.578125 14.265625 8.578125 Z M 14.265625 8.578125 "/>
<path style=" stroke:none;fill-rule:evenodd;fill:rgb(38.039216%,38.039216%,38.039216%);fill-opacity:1;" d="M 19.289062 11.710938 C 18.789062 11.730469 18.40625 11.867188 18.40625 11.867188 L 18.316406 11.898438 L 18.332031 11.992188 C 18.332031 11.992188 18.433594 12.535156 18.871094 13.042969 C 19.3125 13.554688 20.105469 14.027344 21.4375 13.90625 L 21.554688 13.894531 L 21.539062 13.78125 C 21.449219 13.074219 21.210938 12.589844 20.894531 12.273438 C 20.582031 11.953125 20.195312 11.800781 19.824219 11.742188 C 19.640625 11.710938 19.457031 11.707031 19.289062 11.710938 Z M 19.289062 11.710938 "/>
<path style=" stroke:none;fill-rule:nonzero;fill:rgb(100%,100%,100%);fill-opacity:0.4;" d="M 16 2 C 8.269531 2 2 8.269531 2 16 C 2 16.082031 2.003906 16.167969 2.003906 16.25 C 2.136719 8.632812 8.351562 2.5 16 2.5 C 23.648438 2.5 29.863281 8.632812 29.996094 16.25 C 29.996094 16.167969 30 16.082031 30 16 C 30 8.269531 23.730469 2 16 2 Z M 16 2 "/>
<path style=" stroke:none;fill-rule:nonzero;fill:rgb(0%,0%,0%);fill-opacity:0.4;" d="M 2.003906 15.757812 C 2.003906 15.839844 2 15.917969 2 16 C 2 23.730469 8.269531 30 16 30 C 23.730469 30 30 23.730469 30 16 C 30 15.917969 29.996094 15.839844 29.996094 15.757812 C 29.867188 23.378906 23.648438 29.515625 16 29.515625 C 8.351562 29.515625 2.132812 23.378906 2.003906 15.757812 Z M 2.003906 15.757812 "/>
<path style=" stroke:none;fill-rule:evenodd;fill:rgb(100%,100%,100%);fill-opacity:0.6;" d="M 14.265625 8.578125 C 12.410156 8.582031 10.550781 8.949219 8.835938 9.671875 C 9.128906 9.703125 9.421875 9.730469 9.71875 9.757812 C 11.179688 9.257812 12.722656 9.003906 14.265625 9 L 14.445312 9 C 15.699219 9.003906 16.953125 9.210938 18.132812 9.640625 C 20.15625 10.335938 21.804688 11.757812 23.277344 13.257812 C 24.597656 13.535156 25.867188 14.175781 26.765625 15.195312 C 27.0625 15.554688 27.59375 16.300781 27.730469 16.851562 C 27.929688 16.351562 27.148438 15.242188 26.765625 14.773438 C 25.867188 13.753906 24.597656 13.113281 23.277344 12.835938 C 21.804688 11.335938 20.15625 9.914062 18.132812 9.222656 C 16.953125 8.792969 15.699219 8.582031 14.445312 8.578125 Z M 12.085938 10.558594 C 11.222656 10.644531 10.117188 10.859375 9.496094 11.515625 C 7.277344 13.386719 6.328125 16.324219 5.878906 19.097656 C 5.839844 19.394531 5.753906 19.871094 5.816406 19.976562 C 5.835938 19.820312 5.863281 19.652344 5.878906 19.515625 C 6.328125 16.746094 7.277344 13.804688 9.496094 11.9375 C 10.371094 11.011719 12.207031 10.964844 12.976562 10.914062 C 12.691406 10.761719 12.394531 10.648438 12.085938 10.558594 Z M 8.773438 17.453125 C 8.53125 17.816406 8.035156 18.324219 8 18.632812 C 6.871094 20.769531 6.542969 23.207031 6.125 25.554688 C 6.125 25.671875 6.117188 25.789062 6.097656 25.914062 C 6.109375 25.925781 6.117188 25.933594 6.128906 25.945312 C 6.546875 23.605469 6.878906 21.179688 8 19.054688 C 8.058594 18.558594 9.308594 17.542969 8.773438 17.453125 Z M 20.703125 20.925781 C 20.679688 21.421875 20.742188 21.925781 20.878906 22.390625 C 21.421875 24.421875 22.980469 25.914062 24.789062 26.914062 C 24.890625 26.828125 24.996094 26.742188 25.097656 26.65625 C 23.160156 25.660156 21.453125 24.117188 20.878906 21.96875 C 20.78125 21.636719 20.722656 21.28125 20.703125 20.925781 Z M 20.703125 20.925781 "/>
<path style=" stroke:none;fill-rule:evenodd;fill:rgb(0%,0%,0%);fill-opacity:0.4;" d="M 19.417969 11.710938 C 19.375 11.710938 19.332031 11.710938 19.289062 11.710938 C 18.789062 11.730469 18.40625 11.867188 18.40625 11.867188 L 18.3125 11.898438 L 18.332031 11.992188 C 18.332031 11.992188 18.34375 12.058594 18.378906 12.164062 L 18.40625 12.15625 C 18.40625 12.15625 18.789062 12.015625 19.289062 12 C 19.460938 11.996094 19.640625 12 19.824219 12.03125 C 20.195312 12.089844 20.582031 12.238281 20.898438 12.558594 C 21.1875 12.851562 21.410156 13.285156 21.515625 13.898438 L 21.554688 13.894531 L 21.539062 13.78125 C 21.449219 13.074219 21.210938 12.59375 20.898438 12.273438 C 20.582031 11.953125 20.195312 11.800781 19.824219 11.742188 C 19.683594 11.71875 19.550781 11.710938 19.417969 11.710938 Z M 19.417969 11.710938 "/>
<path style=" stroke:none;fill-rule:evenodd;fill:rgb(100%,100%,100%);fill-opacity:1;" d="M 18.398438 12.226562 L 18.3125 12.253906 L 18.332031 12.347656 C 18.332031 12.347656 18.433594 12.890625 18.875 13.398438 C 19.316406 13.910156 20.105469 14.382812 21.4375 14.261719 L 21.554688 14.25 L 21.539062 14.136719 C 21.527344 14.054688 21.515625 13.976562 21.5 13.898438 L 21.4375 13.90625 C 20.105469 14.027344 19.316406 13.554688 18.875 13.046875 C 18.613281 12.742188 18.472656 12.429688 18.398438 12.226562 Z M 18.398438 12.226562 "/>
<path style=" stroke:none;fill-rule:evenodd;fill:rgb(0%,0%,0%);fill-opacity:0.4;" d="M 9.851562 9.769531 C 9.507812 9.882812 9.171875 10.011719 8.835938 10.148438 C 9.859375 10.269531 10.9375 10.300781 11.9375 10.574219 C 12.351562 10.523438 12.722656 10.507812 12.976562 10.492188 C 12.019531 9.992188 10.929688 9.871094 9.851562 9.769531 Z M 27.722656 16.871094 C 27.691406 16.929688 27.648438 16.984375 27.582031 17.019531 C 25.648438 16.996094 23.503906 16.902344 21.890625 18.164062 C 20.972656 18.792969 20.644531 19.886719 20.703125 20.953125 C 20.757812 20.046875 21.109375 19.179688 21.890625 18.644531 C 23.503906 17.382812 25.648438 17.476562 27.582031 17.5 C 27.78125 17.386719 27.800781 17.152344 27.722656 16.871094 Z M 8.671875 17.023438 C 8.644531 17.023438 8.617188 17.027344 8.585938 17.03125 C 7.601562 17.714844 6.914062 18.738281 6.136719 19.640625 C 5.957031 19.953125 5.863281 20.03125 5.824219 19.984375 C 5.769531 20.410156 5.757812 20.773438 6.136719 20.117188 C 6.914062 19.21875 7.601562 18.195312 8.585938 17.507812 C 8.648438 17.503906 8.699219 17.503906 8.738281 17.507812 C 8.9375 17.226562 9.015625 17.015625 8.671875 17.023438 Z M 12.101562 29.449219 C 12.152344 29.460938 12.203125 29.476562 12.25 29.492188 C 12.203125 29.476562 12.152344 29.460938 12.101562 29.449219 Z M 12.71875 29.609375 C 12.816406 29.632812 12.914062 29.65625 13.015625 29.679688 C 12.914062 29.65625 12.816406 29.632812 12.71875 29.609375 Z M 18.871094 29.703125 C 18.792969 29.71875 18.714844 29.734375 18.636719 29.75 C 18.714844 29.734375 18.792969 29.71875 18.871094 29.703125 Z M 13.335938 29.746094 C 13.484375 29.773438 13.636719 29.800781 13.789062 29.824219 C 13.636719 29.800781 13.484375 29.773438 13.335938 29.746094 Z M 18.273438 29.8125 C 18.160156 29.832031 18.046875 29.851562 17.933594 29.867188 C 18.046875 29.851562 18.160156 29.832031 18.273438 29.8125 Z M 13.945312 29.847656 C 14.140625 29.878906 14.339844 29.902344 14.539062 29.921875 C 14.339844 29.902344 14.140625 29.878906 13.945312 29.847656 Z M 17.78125 29.886719 C 17.628906 29.90625 17.472656 29.921875 17.3125 29.9375 C 17.472656 29.921875 17.628906 29.90625 17.78125 29.886719 Z M 14.617188 29.929688 C 14.816406 29.949219 15.019531 29.964844 15.21875 29.976562 C 15.019531 29.964844 14.816406 29.949219 14.617188 29.929688 Z M 17.160156 29.953125 C 16.992188 29.964844 16.824219 29.976562 16.65625 29.984375 C 16.824219 29.976562 16.992188 29.964844 17.160156 29.953125 Z M 15.34375 29.984375 C 15.5625 29.992188 15.78125 30 16 30 C 15.78125 30 15.5625 29.992188 15.34375 29.984375 Z M 16 30 C 16.1875 30 16.371094 29.992188 16.554688 29.984375 C 16.371094 29.992188 16.1875 30 16 30 Z M 16 30 "/>
<path style=" stroke:none;fill-rule:evenodd;fill:rgb(100%,65.098041%,13.725491%);fill-opacity:1;" d="M 10.46875 9.511719 C 9.726562 9.515625 9.046875 9.5625 8.667969 9.683594 C 8.667969 9.683594 12.023438 9.851562 12.976562 10.488281 C 13.296875 10.328125 13.773438 9.851562 13.808594 9.785156 C 13.546875 9.675781 11.890625 9.511719 10.46875 9.511719 Z M 8.667969 9.683594 C 8.667969 9.683594 8.664062 9.683594 8.664062 9.683594 C 8.664062 9.683594 8.667969 9.683594 8.667969 9.683594 Z M 17.992188 14.835938 C 17.992188 14.835938 6.695312 15.320312 5.796875 18.339844 C 5.5 19.558594 5.660156 20.375 5.660156 20.375 C 5.660156 20.375 10.132812 15.394531 17.992188 14.835938 Z M 22.578125 16.960938 C 19.40625 16.960938 9.546875 18.3125 4.078125 26.976562 C 4.386719 28.625 5.023438 29.894531 5.023438 29.894531 C 5.023438 29.894531 11.65625 17.527344 24.121094 17.058594 C 24.121094 17.058594 23.550781 16.960938 22.578125 16.960938 Z M 22.578125 16.960938 "/>
<path style=" stroke:none;fill-rule:evenodd;fill:rgb(100%,100%,100%);fill-opacity:0.4;" d="M 10.46875 9.511719 C 9.726562 9.515625 9.046875 9.5625 8.667969 9.6875 C 8.667969 9.6875 8.882812 9.695312 9.21875 9.722656 C 9.574219 9.679688 10.007812 9.660156 10.46875 9.660156 C 11.765625 9.660156 13.257812 9.796875 13.707031 9.902344 C 13.761719 9.84375 13.800781 9.800781 13.808594 9.785156 C 13.546875 9.675781 11.890625 9.511719 10.46875 9.511719 Z M 17.992188 14.835938 C 17.992188 14.835938 6.695312 15.320312 5.796875 18.339844 C 5.644531 18.964844 5.613281 19.480469 5.617188 19.839844 C 5.625 19.492188 5.664062 19.03125 5.796875 18.488281 C 6.421875 16.375 12.125 15.507812 15.503906 15.171875 C 16.292969 15.015625 17.121094 14.898438 17.992188 14.835938 Z M 22.578125 16.960938 C 19.40625 16.960938 9.546875 18.3125 4.078125 26.976562 C 4.085938 27.015625 4.09375 27.050781 4.101562 27.085938 C 9.574219 18.457031 19.410156 17.109375 22.578125 17.109375 C 22.785156 17.109375 22.96875 17.113281 23.136719 17.121094 C 23.460938 17.09375 23.789062 17.070312 24.121094 17.058594 C 24.121094 17.058594 23.550781 16.960938 22.578125 16.960938 Z M 22.578125 16.960938 "/>
<path style=" stroke:none;fill-rule:evenodd;fill:rgb(0%,0%,0%);fill-opacity:0.4;" d="M 9.34375 9.734375 C 9.074219 9.765625 8.839844 9.804688 8.667969 9.859375 C 8.667969 9.859375 12.023438 10.027344 12.976562 10.664062 C 13.296875 10.503906 13.773438 10.027344 13.808594 9.960938 C 13.785156 9.949219 13.738281 9.9375 13.6875 9.925781 C 13.519531 10.097656 13.207031 10.378906 12.976562 10.492188 C 12.289062 10.035156 10.371094 9.820312 9.34375 9.734375 Z M 17.992188 15.011719 C 17.992188 15.011719 16.859375 15.0625 15.28125 15.222656 C 9.113281 16.535156 5.660156 20.375 5.660156 20.375 C 5.660156 20.375 5.625 20.183594 5.617188 19.847656 C 5.609375 20.289062 5.660156 20.546875 5.660156 20.546875 C 5.660156 20.546875 10.132812 15.570312 17.992188 15.011719 Z M 22.945312 17.140625 C 15.160156 17.917969 9.820312 23.289062 7.105469 26.8125 C 7.132812 26.832031 7.160156 26.855469 7.1875 26.875 C 10.066406 23.175781 15.789062 17.546875 24.121094 17.234375 C 24.121094 17.234375 23.691406 17.160156 22.945312 17.140625 Z M 22.945312 17.140625 "/>
<path style=" stroke:none;fill-rule:nonzero;fill:url(#linear0);" d="M 16 2 C 8.269531 2 2 8.269531 2 16 C 2 19.488281 3.277344 22.679688 5.390625 25.132812 C 4.929688 25.707031 4.492188 26.320312 4.078125 26.976562 C 4.386719 28.625 5.023438 29.894531 5.023438 29.894531 C 5.023438 29.894531 5.730469 28.585938 7.101562 26.808594 C 9.519531 28.800781 12.621094 30 16 30 C 23.730469 30 30 23.730469 30 16 C 30 8.269531 23.730469 2 16 2 Z M 16 2 "/>
</g>
</svg>
