
<svg xmlns="http://www.w3.org/2000/svg" xmlns:xlink="http://www.w3.org/1999/xlink" width="32" height="32" viewBox="0 0 32 32" version="1.1">
<defs>
<linearGradient id="linear0" gradientUnits="userSpaceOnUse" x1="31.999998" y1="57.999996" x2="31.999998" y2="6" gradientTransform="matrix(0.5,0,0,0.5,0,0)">
<stop offset="0" style="stop-color:rgb(0%,0%,0%);stop-opacity:0.2;"/>
<stop offset="1" style="stop-color:rgb(100%,100%,100%);stop-opacity:0;"/>
</linearGradient>
</defs>
<g id="surface1">
<path style=" stroke:none;fill-rule:nonzero;fill:rgb(100%,70.19608%,0%);fill-opacity:1;" d="M 15 6.164062 L 17 6.164062 L 17 9.664062 L 15 9.664062 Z M 15 6.164062 "/>
<path style=" stroke:none;fill-rule:nonzero;fill:rgb(0%,58.823532%,53.333336%);fill-opacity:1;" d="M 22 19 C 25 19 30 20 30 12 C 26 10 23.707031 13.0625 21 15 Z M 22 19 "/>
<path style=" stroke:none;fill-rule:nonzero;fill:rgb(0%,0%,0%);fill-opacity:0.4;" d="M 29.992188 11.996094 C 29.789062 19.457031 24.9375 18.5 22 18.5 L 21.105469 14.921875 C 21.070312 14.949219 21.035156 14.976562 21 15 L 22 19 C 25 19 30 20 30 12 C 29.996094 12 29.996094 12 29.992188 11.996094 Z M 29.992188 11.996094 "/>
<path style=" stroke:none;fill-rule:nonzero;fill:rgb(100%,100%,100%);fill-opacity:0.4;" d="M 27.441406 11.347656 C 24.902344 11.375 23.074219 13.519531 21 15 L 21.105469 15.421875 C 23.765625 13.484375 26.050781 10.53125 29.992188 12.496094 C 29.996094 12.335938 30 12.167969 30 12 C 29.0625 11.53125 28.21875 11.339844 27.441406 11.347656 Z M 27.441406 11.347656 "/>
<path style=" stroke:none;fill-rule:nonzero;fill:rgb(14.901961%,65.098041%,60.392159%);fill-opacity:1;" d="M 10 19 C 7 19 2 20 2 12 C 6 10 8.292969 13.0625 11 15 Z M 10 19 "/>
<path style=" stroke:none;fill-rule:nonzero;fill:rgb(0%,0%,0%);fill-opacity:0.4;" d="M 2.007812 11.996094 C 2.003906 12 2.003906 12 2 12 C 2 20 7 19 10 19 L 11 15 C 10.964844 14.976562 10.929688 14.949219 10.894531 14.921875 L 10 18.5 C 7.0625 18.5 2.210938 19.457031 2.007812 11.996094 Z M 2.007812 11.996094 "/>
<path style=" stroke:none;fill-rule:nonzero;fill:rgb(100%,100%,100%);fill-opacity:0.4;" d="M 4.558594 11.347656 C 3.78125 11.339844 2.9375 11.53125 2 12 C 2 12.167969 2.003906 12.335938 2.007812 12.496094 C 5.949219 10.53125 8.234375 13.484375 10.894531 15.421875 L 11 15 C 8.925781 13.519531 7.097656 11.375 4.558594 11.347656 Z M 4.558594 11.347656 "/>
<path style=" stroke:none;fill-rule:nonzero;fill:rgb(14.901961%,65.098041%,60.392159%);fill-opacity:1;" d="M 16 9 C 21.523438 9 26 13.476562 26 19 C 26 24.523438 21.523438 29 16 29 C 10.476562 29 6 24.523438 6 19 C 6 13.476562 10.476562 9 16 9 Z M 16 9 "/>
<path style=" stroke:none;fill-rule:nonzero;fill:rgb(100%,79.215688%,15.686275%);fill-opacity:1;" d="M 16 2.914062 C 17.105469 2.914062 18 3.808594 18 4.914062 C 18 6.019531 17.105469 6.914062 16 6.914062 C 14.894531 6.914062 14 6.019531 14 4.914062 C 14 3.808594 14.894531 2.914062 16 2.914062 Z M 16 2.914062 "/>
<path style=" stroke:none;fill-rule:nonzero;fill:rgb(30.19608%,71.372551%,67.450982%);fill-opacity:1;" d="M 16 9 C 10.460938 9 6 13.460938 6 19 C 6 24.539062 10.460938 29 16 29 Z M 16 9 "/>
<path style=" stroke:none;fill-rule:nonzero;fill:rgb(38.039216%,38.039216%,38.039216%);fill-opacity:1;" d="M 10 16 C 10.550781 16 11 16.671875 11 17.5 C 11 18.328125 10.550781 19 10 19 C 9.449219 19 9 18.328125 9 17.5 C 9 16.671875 9.449219 16 10 16 Z M 10 16 "/>
<path style=" stroke:none;fill-rule:nonzero;fill:rgb(38.039216%,38.039216%,38.039216%);fill-opacity:1;" d="M 14.605469 25.351562 L 12.5 24.03125 C 11.757812 23.558594 11.484375 22.578125 11.925781 21.8125 C 12.386719 21.015625 13.421875 20.765625 14.203125 21.25 L 15.273438 21.925781 C 15.714844 22.207031 16.277344 22.207031 16.71875 21.925781 L 17.789062 21.25 C 18.546875 20.773438 19.550781 21 20.035156 21.757812 C 20.515625 22.519531 20.289062 23.523438 19.527344 24.007812 L 17.394531 25.351562 C 16.535156 25.882812 15.457031 25.882812 14.605469 25.351562 Z M 14.605469 25.351562 "/>
<path style=" stroke:none;fill-rule:nonzero;fill:rgb(95.686275%,26.274511%,21.176471%);fill-opacity:1;" d="M 16 23.5 C 15.050781 23.5 14.238281 24.085938 13.910156 24.914062 L 14.605469 25.351562 C 15.457031 25.882812 16.535156 25.882812 17.394531 25.351562 L 18.089844 24.914062 C 17.761719 24.082031 16.949219 23.5 16 23.5 Z M 16 23.5 "/>
<path style=" stroke:none;fill-rule:nonzero;fill:rgb(0%,0%,0%);fill-opacity:0.4;" d="M 18.628906 21 C 18.339844 21.003906 18.050781 21.085938 17.789062 21.25 L 16.71875 21.925781 C 16.277344 22.207031 15.714844 22.207031 15.273438 21.925781 L 14.203125 21.25 C 13.421875 20.765625 12.386719 21.015625 11.925781 21.8125 C 11.738281 22.136719 11.679688 22.503906 11.730469 22.847656 C 11.757812 22.660156 11.820312 22.46875 11.925781 22.292969 C 12.386719 21.496094 13.421875 21.246094 14.203125 21.730469 L 15.273438 22.40625 C 15.714844 22.6875 16.277344 22.6875 16.71875 22.40625 L 17.789062 21.730469 C 18.546875 21.253906 19.550781 21.480469 20.039062 22.238281 C 20.160156 22.4375 20.238281 22.648438 20.269531 22.863281 C 20.324219 22.492188 20.253906 22.101562 20.039062 21.757812 C 19.71875 21.261719 19.175781 20.992188 18.628906 21 Z M 18.628906 21 "/>
<path style=" stroke:none;fill-rule:nonzero;fill:rgb(100%,100%,100%);fill-opacity:0.4;" d="M 15.953125 23.5 C 15.023438 23.519531 14.234375 24.097656 13.910156 24.914062 L 13.996094 24.96875 C 14.371094 24.246094 15.125 23.75 16 23.75 C 16.875 23.75 17.628906 24.242188 18 24.96875 L 18.089844 24.914062 C 17.761719 24.082031 16.949219 23.5 16 23.5 C 15.984375 23.5 15.96875 23.5 15.953125 23.5 Z M 15.953125 23.5 "/>
<path style=" stroke:none;fill-rule:nonzero;fill:rgb(100%,100%,100%);fill-opacity:0.4;" d="M 11.734375 22.859375 C 11.632812 23.496094 11.925781 24.164062 12.503906 24.527344 L 14.605469 25.851562 C 15.457031 26.382812 16.535156 26.382812 17.394531 25.851562 L 19.527344 24.503906 C 20.09375 24.144531 20.363281 23.496094 20.269531 22.871094 C 20.199219 23.324219 19.945312 23.742188 19.527344 24.007812 L 17.394531 25.351562 C 16.535156 25.886719 15.457031 25.886719 14.605469 25.351562 L 12.503906 24.03125 C 12.074219 23.761719 11.804688 23.324219 11.734375 22.859375 Z M 11.734375 22.859375 "/>
<path style=" stroke:none;fill-rule:nonzero;fill:rgb(100%,100%,100%);fill-opacity:0.4;" d="M 10 16 C 9.445312 16 9 16.667969 9 17.5 C 9 17.585938 9.003906 17.664062 9.015625 17.746094 C 9.09375 17.035156 9.503906 16.5 10 16.5 C 10.496094 16.5 10.90625 17.035156 10.984375 17.746094 C 10.996094 17.664062 11 17.585938 11 17.5 C 11 16.667969 10.554688 16 10 16 Z M 10 16 "/>
<path style=" stroke:none;fill-rule:nonzero;fill:rgb(0.784314%,0.784314%,0.784314%);fill-opacity:0.4;" d="M 10 19.5 C 9.445312 19.5 9 18.832031 9 18 C 9 17.914062 9.003906 17.835938 9.015625 17.753906 C 9.09375 18.464844 9.503906 19 10 19 C 10.496094 19 10.90625 18.464844 10.984375 17.753906 C 10.996094 17.835938 11 17.914062 11 18 C 11 18.832031 10.554688 19.5 10 19.5 Z M 10 19.5 "/>
<path style=" stroke:none;fill-rule:nonzero;fill:rgb(100%,100%,100%);fill-opacity:0.4;" d="M 16 9 C 10.460938 9 6 13.460938 6 19 C 6 19.074219 6 19.152344 6.003906 19.226562 C 6.140625 13.804688 10.546875 9.484375 16 9.484375 C 21.453125 9.484375 25.859375 13.804688 25.996094 19.226562 C 26 19.152344 26 19.074219 26 19 C 26 13.460938 21.539062 9 16 9 Z M 16 9 "/>
<path style=" stroke:none;fill-rule:nonzero;fill:rgb(0.392157%,0.392157%,0.392157%);fill-opacity:0.4;" d="M 16 29 C 10.460938 29 6 24.539062 6 19 C 6 18.925781 6 18.847656 6.003906 18.773438 C 6.140625 24.195312 10.546875 28.515625 16 28.515625 C 21.453125 28.515625 25.859375 24.195312 25.996094 18.773438 C 26 18.847656 26 18.925781 26 19 C 26 24.539062 21.539062 29 16 29 Z M 16 29 "/>
<path style=" stroke:none;fill-rule:nonzero;fill:rgb(100%,100%,100%);fill-opacity:0.4;" d="M 16 2.914062 C 14.890625 2.914062 14 3.804688 14 4.914062 C 14 4.996094 14.003906 5.082031 14.015625 5.164062 C 14.136719 4.171875 14.976562 3.414062 16 3.414062 C 17.023438 3.414062 17.863281 4.171875 17.984375 5.164062 C 17.996094 5.082031 18 4.996094 18 4.914062 C 18 3.804688 17.109375 2.914062 16 2.914062 Z M 16 2.914062 "/>
<path style=" stroke:none;fill-rule:nonzero;fill:rgb(11.372549%,11.372549%,11.372549%);fill-opacity:0.4;" d="M 15 6.648438 L 15 7.144531 C 15.292969 7.316406 15.636719 7.414062 16 7.414062 C 16.363281 7.414062 16.707031 7.316406 17 7.144531 L 17 6.648438 C 16.707031 6.816406 16.363281 6.914062 16 6.914062 C 15.636719 6.914062 15.292969 6.816406 15 6.648438 Z M 15 6.648438 "/>
<path style=" stroke:none;fill-rule:nonzero;fill:rgb(38.039216%,38.039216%,38.039216%);fill-opacity:1;" d="M 22 16 C 22.550781 16 23 16.671875 23 17.5 C 23 18.328125 22.550781 19 22 19 C 21.449219 19 21 18.328125 21 17.5 C 21 16.671875 21.449219 16 22 16 Z M 22 16 "/>
<path style=" stroke:none;fill-rule:nonzero;fill:rgb(100%,100%,100%);fill-opacity:0.4;" d="M 22 16 C 21.445312 16 21 16.667969 21 17.5 C 21 17.585938 21.003906 17.664062 21.015625 17.746094 C 21.09375 17.035156 21.503906 16.5 22 16.5 C 22.496094 16.5 22.90625 17.035156 22.984375 17.746094 C 22.992188 17.664062 23 17.585938 23 17.5 C 23 16.667969 22.554688 16 22 16 Z M 22 16 "/>
<path style=" stroke:none;fill-rule:nonzero;fill:rgb(0.784314%,0.784314%,0.784314%);fill-opacity:0.4;" d="M 22 19.5 C 21.445312 19.5 21 18.832031 21 18 C 21 17.914062 21.003906 17.835938 21.015625 17.753906 C 21.09375 18.464844 21.503906 19 22 19 C 22.496094 19 22.90625 18.464844 22.984375 17.753906 C 22.992188 17.835938 23 17.914062 23 18 C 23 18.832031 22.554688 19.5 22 19.5 Z M 22 19.5 "/>
<path style=" stroke:none;fill-rule:nonzero;fill:rgb(0%,0%,0%);fill-opacity:0.2;" d="M 6.007812 19.386719 C 6.003906 19.511719 6 19.636719 6 19.765625 C 6 25.304688 10.460938 29.765625 16 29.765625 C 21.539062 29.765625 26 25.304688 26 19.765625 C 26 19.636719 25.996094 19.511719 25.992188 19.386719 C 25.792969 24.75 21.414062 29.007812 16 29.007812 C 10.585938 29.007812 6.207031 24.75 6.007812 19.386719 Z M 6.007812 19.386719 "/>
<path style=" stroke:none;fill-rule:nonzero;fill:url(#linear0);" d="M 16 2.914062 C 14.890625 2.914062 14 3.804688 14 4.914062 C 14 5.65625 14.402344 6.300781 15 6.648438 L 15 9.050781 C 12.226562 9.324219 9.796875 10.71875 8.164062 12.777344 C 6.4375 11.523438 4.570312 10.714844 2 12 C 2 16.886719 3.867188 18.414062 6 18.863281 C 6 18.910156 6 18.953125 6 19 C 6 24.539062 10.460938 29 16 29 C 21.539062 29 26 24.539062 26 19 C 26 18.953125 26 18.910156 26 18.863281 C 28.132812 18.414062 30 16.886719 30 12 C 27.429688 10.714844 25.5625 11.523438 23.835938 12.777344 C 22.203125 10.71875 19.773438 9.324219 17 9.050781 L 17 6.648438 C 17.597656 6.300781 18 5.65625 18 4.914062 C 18 3.804688 17.109375 2.914062 16 2.914062 Z M 16 2.914062 "/>
</g>
</svg>
