
<svg xmlns="http://www.w3.org/2000/svg" xmlns:xlink="http://www.w3.org/1999/xlink" width="48" height="48" viewBox="0 0 48 48" version="1.1">
<defs>
<linearGradient id="linear0" gradientUnits="userSpaceOnUse" x1="31.999998" y1="60" x2="31.999998" y2="4" gradientTransform="matrix(0.75,0,0,0.75,-0.000000566929,0.000000000000085265)">
<stop offset="0" style="stop-color:rgb(0%,0%,0%);stop-opacity:0.2;"/>
<stop offset="1" style="stop-color:rgb(100%,100%,100%);stop-opacity:0;"/>
</linearGradient>
</defs>
<g id="surface1">
<path style=" stroke:none;fill-rule:nonzero;fill:rgb(36.078432%,41.960785%,75.294119%);fill-opacity:1;" d="M 30 3 L 9.75 3 C 8.503906 3 7.5 4.003906 7.5 5.25 L 7.5 42.75 C 7.5 43.996094 8.503906 45 9.75 45 L 38.25 45 C 39.496094 45 40.5 43.996094 40.5 42.75 L 40.5 13.5 Z M 30 3 "/>
<path style=" stroke:none;fill-rule:nonzero;fill:rgb(0%,0%,0%);fill-opacity:0.4;" d="M 30 11.25 L 30 12 C 30 13.246094 31.003906 14.25 32.25 14.25 L 40.5 14.25 L 39.75 13.5 L 32.25 13.5 C 31.003906 13.5 30 12.496094 30 11.25 Z M 30 11.25 "/>
<path style=" stroke:none;fill-rule:nonzero;fill:rgb(47.450981%,52.549022%,79.607844%);fill-opacity:0.996078;" d="M 40.5 13.5 L 30 3 L 30 11.25 C 30 12.496094 31.003906 13.5 32.25 13.5 Z M 40.5 13.5 "/>
<path style=" stroke:none;fill-rule:nonzero;fill:rgb(100%,100%,100%);fill-opacity:0.4;" d="M 9.75 3 C 8.503906 3 7.5 4.003906 7.5 5.25 L 7.5 6 C 7.5 4.753906 8.503906 3.75 9.75 3.75 L 30 3.75 L 40.5 14.25 L 40.5 13.5 L 30 3 Z M 9.75 3 "/>
<path style=" stroke:none;fill-rule:nonzero;fill:rgb(0%,0%,0%);fill-opacity:0.2;" d="M 7.5 42.738281 L 7.5 43.875 C 7.5 45.121094 8.503906 46.125 9.75 46.125 L 38.25 46.125 C 39.496094 46.125 40.5 45.121094 40.5 43.875 L 40.5 42.738281 C 40.5 43.984375 39.496094 44.988281 38.25 44.988281 L 9.75 44.988281 C 8.503906 44.988281 7.5 43.984375 7.5 42.738281 Z M 7.5 42.738281 "/>
<path style=" stroke:none;fill-rule:nonzero;fill:rgb(0%,0%,0%);fill-opacity:0.4;" d="M 7.5 42.09375 L 7.5 42.75 C 7.5 43.996094 8.503906 45 9.75 45 L 38.25 45 C 39.496094 45 40.5 43.996094 40.5 42.75 L 40.5 42.09375 C 40.5 43.339844 39.496094 44.34375 38.25 44.34375 L 9.75 44.34375 C 8.503906 44.34375 7.5 43.339844 7.5 42.09375 Z M 7.5 42.09375 "/>
<path style=" stroke:none;fill-rule:nonzero;fill:rgb(62.352943%,65.882355%,85.490197%);fill-opacity:1;" d="M 23.519531 18.640625 L 20.199219 28.230469 L 18.507812 24.007812 L 16.941406 24.007812 C 16.921875 24 16.898438 24 16.875 24 L 16.125 24 C 15.917969 24 15.75 24.167969 15.75 24.375 L 15.75 25.125 C 15.75 25.332031 15.917969 25.5 16.125 25.5 L 17.492188 25.5 L 20.296875 32.527344 L 23.730469 22.617188 L 26.632812 28.777344 L 28.835938 24 L 31 29.253906 L 33 29.253906 L 33 29.25 C 33.207031 29.25 33.375 29.082031 33.375 28.875 L 33.375 28.125 C 33.375 27.917969 33.207031 27.75 33 27.75 L 32.25 27.75 C 32.234375 27.75 32.21875 27.75 32.203125 27.753906 L 32.003906 27.753906 L 28.914062 20.25 L 26.621094 25.230469 Z M 23.519531 18.640625 "/>
<path style=" stroke:none;fill-rule:nonzero;fill:rgb(99.607843%,99.607843%,99.607843%);fill-opacity:0.4;" d="M 23.519531 18.640625 L 20.199219 28.230469 L 18.511719 24.003906 L 16.941406 24.003906 C 16.921875 24.003906 16.898438 24 16.875 24 L 16.125 24 C 15.917969 24 15.75 24.167969 15.75 24.375 L 15.75 24.75 C 15.75 24.539062 15.917969 24.375 16.125 24.375 L 16.875 24.375 C 16.898438 24.375 16.921875 24.375 16.941406 24.378906 L 18.511719 24.378906 L 20.199219 28.601562 L 23.519531 19.011719 L 26.621094 25.601562 L 28.914062 20.625 L 32.003906 28.125 L 32.203125 28.125 C 32.21875 28.125 32.234375 28.121094 32.25 28.121094 L 33 28.121094 C 33.207031 28.121094 33.375 28.289062 33.375 28.496094 L 33.375 28.125 C 33.375 27.917969 33.207031 27.75 33 27.75 L 32.25 27.75 C 32.234375 27.75 32.21875 27.75 32.203125 27.753906 L 32.003906 27.753906 L 28.914062 20.25 L 26.621094 25.230469 Z M 23.519531 18.640625 "/>
<path style=" stroke:none;fill-rule:nonzero;fill:rgb(9.019608%,9.019608%,9.019608%);fill-opacity:0.4;" d="M 23.730469 22.617188 L 20.296875 32.527344 L 17.492188 25.5 L 16.125 25.5 C 15.917969 25.5 15.75 25.335938 15.75 25.125 L 15.75 25.5 C 15.75 25.707031 15.917969 25.875 16.125 25.875 L 17.492188 25.875 L 20.296875 32.902344 L 23.730469 22.992188 L 26.632812 29.152344 L 28.835938 24.375 L 31 29.628906 L 33 29.628906 L 33 29.625 C 33.207031 29.625 33.375 29.457031 33.375 29.25 L 33.375 28.875 C 33.375 29.082031 33.207031 29.25 33 29.25 L 33 29.253906 L 31 29.253906 L 28.835938 24 L 26.632812 28.777344 Z M 23.730469 22.617188 "/>
<path style=" stroke:none;fill-rule:nonzero;fill:url(#linear0);" d="M 30 3 L 9.75 3 C 8.503906 3 7.5 4.003906 7.5 5.25 L 7.5 42.75 C 7.5 43.996094 8.503906 45 9.75 45 L 38.25 45 C 39.496094 45 40.5 43.996094 40.5 42.75 L 40.5 13.5 Z M 30 3 "/>
</g>
</svg>
