
<svg xmlns="http://www.w3.org/2000/svg" xmlns:xlink="http://www.w3.org/1999/xlink" width="64" height="64" viewBox="0 0 64 64" version="1.1">
<defs>
<linearGradient id="linear0" gradientUnits="userSpaceOnUse" x1="8.466666" y1="-199.125" x2="8.466666" y2="-213.941666" gradientTransform="matrix(3.779528,0,0,3.779528,-0.281745,812.594562)">
<stop offset="0" style="stop-color:rgb(0%,0%,0%);stop-opacity:0.2;"/>
<stop offset="1" style="stop-color:rgb(100%,100%,100%);stop-opacity:0;"/>
</linearGradient>
<linearGradient id="linear1" gradientUnits="userSpaceOnUse" x1="-61.999996" y1="60" x2="-61.999996" y2="4" gradientTransform="matrix(1,0,0,1,94.765613,0)">
<stop offset="0" style="stop-color:rgb(0%,0%,0%);stop-opacity:0.2;"/>
<stop offset="1" style="stop-color:rgb(100%,100%,100%);stop-opacity:0;"/>
</linearGradient>
</defs>
<g id="surface1">
<path style=" stroke:none;fill-rule:nonzero;fill:rgb(38.039216%,38.039216%,38.039216%);fill-opacity:1;" d="M 6.28125 8.214844 C 22.914062 2.761719 41.085938 2.761719 57.71875 8.214844 C 58.984375 8.628906 60.003906 10.082031 59.957031 11.414062 C 59.257812 30.910156 50.164062 52.285156 34.234375 59.585938 C 33.023438 60.140625 30.976562 60.140625 29.765625 59.585938 C 13.835938 52.285156 4.742188 30.910156 4.042969 11.414062 C 3.996094 10.082031 5.015625 8.628906 6.28125 8.214844 Z M 6.28125 8.214844 "/>
<path style=" stroke:none;fill-rule:nonzero;fill:rgb(100%,100%,100%);fill-opacity:0.4;" d="M 32 4.125 C 23.300781 4.125 14.597656 5.488281 6.28125 8.214844 C 5.015625 8.628906 3.996094 10.082031 4.042969 11.410156 C 4.050781 11.605469 4.058594 11.804688 4.070312 12 C 4.226562 10.804688 5.15625 9.613281 6.28125 9.246094 C 22.914062 3.792969 41.085938 3.792969 57.71875 9.246094 C 58.84375 9.613281 59.773438 10.804688 59.933594 12 C 59.941406 11.804688 59.949219 11.605469 59.957031 11.410156 C 60.003906 10.082031 58.984375 8.628906 57.71875 8.214844 C 49.402344 5.488281 40.699219 4.125 32 4.125 Z M 32 4.125 "/>
<path style=" stroke:none;fill-rule:nonzero;fill:rgb(0.392157%,0.392157%,0.392157%);fill-opacity:0.4;" d="M 4.070312 10.96875 C 4.050781 11.117188 4.039062 11.265625 4.042969 11.410156 C 4.742188 30.910156 13.835938 52.285156 29.765625 59.585938 C 30.980469 60.140625 33.019531 60.140625 34.234375 59.585938 C 50.164062 52.285156 59.257812 30.910156 59.957031 11.410156 C 59.960938 11.265625 59.949219 11.121094 59.933594 10.972656 C 59.078125 30.3125 50.007812 51.339844 34.234375 58.570312 C 33.019531 59.125 30.980469 59.125 29.765625 58.570312 C 13.992188 51.339844 4.921875 30.3125 4.070312 10.96875 Z M 4.070312 10.96875 "/>
<path style=" stroke:none;fill-rule:nonzero;fill:rgb(0%,0%,0%);fill-opacity:0.2;" d="M 4.085938 12.359375 C 4.050781 12.542969 4.035156 12.726562 4.042969 12.910156 C 4.742188 32.40625 13.835938 53.78125 29.765625 61.082031 C 30.980469 61.640625 33.019531 61.640625 34.234375 61.082031 C 50.164062 53.78125 59.257812 32.40625 59.957031 12.910156 C 59.964844 12.726562 59.949219 12.542969 59.917969 12.359375 C 58.964844 31.597656 49.90625 52.402344 34.234375 59.585938 C 33.019531 60.140625 30.980469 60.140625 29.765625 59.585938 C 14.09375 52.402344 5.035156 31.597656 4.085938 12.359375 Z M 4.085938 12.359375 "/>
<path style=" stroke:none;fill-rule:nonzero;fill:rgb(39.215687%,70.980394%,96.470588%);fill-opacity:1;" d="M 32 7.996094 C 24.503906 7.996094 17.011719 9.171875 9.84375 11.519531 C 8.753906 11.878906 7.875 13.125 7.917969 14.273438 C 8.097656 19.320312 8.9375 24.511719 10.386719 29.480469 C 13.761719 41.039062 20.476562 51.375 30.078125 55.773438 C 30.597656 56.011719 31.300781 56.128906 32 56.128906 Z M 32 7.996094 "/>
<path style=" stroke:none;fill-rule:nonzero;fill:rgb(25.882354%,64.705884%,96.078432%);fill-opacity:1;" d="M 32 7.996094 L 32 56.128906 C 32.699219 56.128906 33.402344 56.011719 33.921875 55.773438 C 43.523438 51.375 50.238281 41.039062 53.613281 29.480469 C 55.0625 24.511719 55.902344 19.320312 56.082031 14.273438 C 56.125 13.125 55.246094 11.878906 54.15625 11.519531 C 46.988281 9.171875 39.496094 7.996094 32 7.996094 Z M 32 7.996094 "/>
<path style=" stroke:none;fill-rule:nonzero;fill:rgb(100%,100%,100%);fill-opacity:0.4;" d="M 32 7.996094 L 32 9 C 24.503906 9 17.011719 10.175781 9.84375 12.523438 C 8.894531 12.835938 8.105469 13.824219 7.945312 14.832031 C 7.9375 14.644531 7.925781 14.460938 7.917969 14.273438 C 7.875 13.125 8.753906 11.878906 9.847656 11.519531 C 17.011719 9.171875 24.503906 7.996094 32 7.996094 Z M 32 7.996094 "/>
<path style=" stroke:none;fill-rule:nonzero;fill:rgb(100%,100%,100%);fill-opacity:0.4;" d="M 32 7.996094 C 39.496094 7.996094 46.988281 9.171875 54.15625 11.519531 C 55.246094 11.878906 56.125 13.125 56.082031 14.273438 C 56.074219 14.460938 56.0625 14.644531 56.054688 14.832031 C 55.894531 13.824219 55.105469 12.835938 54.15625 12.523438 C 46.988281 10.175781 39.496094 9 32 9 Z M 32 7.996094 "/>
<path style=" stroke:none;fill-rule:nonzero;fill:rgb(0%,0%,0%);fill-opacity:0.4;" d="M 56.0625 14.753906 C 55.328125 31.421875 47.515625 49.542969 33.921875 55.769531 C 33.402344 56.011719 32.699219 56.128906 32 56.128906 L 32 57 C 32.699219 57 33.402344 56.882812 33.921875 56.640625 C 47.648438 50.351562 55.480469 31.9375 56.082031 15.140625 C 56.085938 15.015625 56.078125 14.886719 56.0625 14.753906 Z M 56.0625 14.753906 "/>
<path style=" stroke:none;fill-rule:nonzero;fill:rgb(0%,0%,0%);fill-opacity:0.4;" d="M 7.9375 14.753906 C 7.921875 14.886719 7.914062 15.015625 7.917969 15.140625 C 8.519531 31.9375 16.351562 50.351562 30.078125 56.640625 C 30.597656 56.882812 31.300781 57 32 57 L 32 56.128906 C 31.300781 56.128906 30.597656 56.011719 30.078125 55.769531 C 16.484375 49.542969 8.671875 31.421875 7.9375 14.753906 Z M 7.9375 14.753906 "/>
<path style=" stroke:none;fill-rule:nonzero;fill:rgb(100%,100%,100%);fill-opacity:0.4;" d="M 13.777344 12.957031 C 13.179688 13.132812 12.589844 13.316406 12 13.511719 C 11.015625 13.832031 10.222656 14.960938 10.261719 16 C 10.320312 17.707031 10.46875 19.433594 10.695312 21.160156 C 11.3125 20.980469 11.976562 20.792969 12.636719 20.621094 C 12.539062 19.609375 12.46875 18.605469 12.433594 17.605469 C 12.398438 16.671875 13.113281 15.65625 14 15.363281 C 14.339844 15.253906 14.683594 15.144531 15.027344 15.042969 Z M 13.777344 12.957031 "/>
<path style=" stroke:none;fill-rule:nonzero;fill:url(#linear0);" d="M 6 8.210938 C 22.632812 2.757812 40.804688 2.757812 57.4375 8.210938 C 58.703125 8.625 59.722656 10.078125 59.675781 11.410156 C 58.976562 30.90625 49.882812 52.28125 33.949219 59.582031 C 32.738281 60.136719 30.695312 60.136719 29.484375 59.582031 C 13.554688 52.28125 4.460938 30.90625 3.761719 11.410156 C 3.714844 10.078125 4.734375 8.625 6 8.210938 Z M 6 8.210938 "/>
<path style=" stroke:none;fill-rule:nonzero;fill:rgb(56.470591%,64.313728%,68.235296%);fill-opacity:1;" d="M 41.476562 16.867188 L 47.132812 22.523438 L 40.0625 26.765625 L 37.234375 23.9375 Z M 41.476562 16.867188 "/>
<path style=" stroke:none;fill-rule:nonzero;fill:rgb(38.039216%,38.039216%,38.039216%);fill-opacity:1;" d="M 52.789062 8.382812 L 55.617188 11.210938 L 45.71875 21.109375 L 42.890625 18.28125 Z M 52.789062 8.382812 "/>
<path style=" stroke:none;fill-rule:nonzero;fill:rgb(100%,100%,100%);fill-opacity:0.4;" d="M 52.792969 8.382812 L 42.890625 18.28125 L 43.199219 18.589844 L 52.792969 9 L 55.308594 11.519531 L 55.617188 11.207031 Z M 52.792969 8.382812 "/>
<path style=" stroke:none;fill-rule:nonzero;fill:rgb(0%,0%,0%);fill-opacity:0.4;" d="M 55.265625 10.855469 L 45.71875 20.402344 L 43.246094 17.925781 L 42.890625 18.28125 L 45.71875 21.109375 L 55.617188 11.207031 Z M 55.265625 10.855469 "/>
<path style=" stroke:none;fill-rule:nonzero;fill:rgb(38.039216%,38.039216%,38.039216%);fill-opacity:1;" d="M 40.0625 12.625 L 51.375 23.9375 L 49.960938 25.351562 L 38.648438 14.039062 Z M 40.0625 12.625 "/>
<path style=" stroke:none;fill-rule:nonzero;fill:rgb(100%,100%,100%);fill-opacity:0.4;" d="M 40.0625 12.625 L 38.648438 14.035156 L 38.835938 14.226562 L 40.0625 13 L 51.1875 24.125 L 51.375 23.9375 Z M 40.0625 12.625 "/>
<path style=" stroke:none;fill-rule:nonzero;fill:rgb(45.882353%,45.882353%,45.882353%);fill-opacity:0.996078;" d="M 53.496094 23.230469 C 54.667969 24.402344 54.667969 26.300781 53.496094 27.472656 C 52.324219 28.644531 50.425781 28.644531 49.253906 27.472656 C 48.082031 26.300781 48.082031 24.402344 49.253906 23.230469 C 50.425781 22.058594 52.324219 22.058594 53.496094 23.230469 Z M 53.496094 23.230469 "/>
<path style=" stroke:none;fill-rule:nonzero;fill:rgb(45.882353%,45.882353%,45.882353%);fill-opacity:0.996078;" d="M 40.769531 10.503906 C 41.941406 11.675781 41.941406 13.574219 40.769531 14.746094 C 39.597656 15.917969 37.699219 15.917969 36.527344 14.746094 C 35.355469 13.574219 35.355469 11.675781 36.527344 10.503906 C 37.699219 9.332031 39.597656 9.332031 40.769531 10.503906 Z M 40.769531 10.503906 "/>
<path style=" stroke:none;fill-rule:nonzero;fill:rgb(81.176472%,84.705883%,86.274511%);fill-opacity:1;" d="M 41.476562 16.867188 L 5.414062 52.929688 L 4 60 L 40.0625 23.9375 Z M 41.476562 16.867188 "/>
<path style=" stroke:none;fill-rule:nonzero;fill:rgb(45.882353%,45.882353%,45.882353%);fill-opacity:0.996078;" d="M 58.445312 5.554688 C 60.007812 7.113281 60.007812 9.648438 58.445312 11.210938 C 56.886719 12.773438 54.351562 12.773438 52.789062 11.210938 C 51.226562 9.648438 51.226562 7.113281 52.789062 5.554688 C 54.351562 3.992188 56.886719 3.992188 58.445312 5.554688 Z M 58.445312 5.554688 "/>
<path style=" stroke:none;fill-rule:nonzero;fill:rgb(100%,100%,100%);fill-opacity:0.4;" d="M 41.476562 16.867188 L 5.414062 52.929688 L 4 60 L 4.28125 59.71875 L 5.414062 54.0625 L 41.191406 18.28125 Z M 41.476562 16.867188 "/>
<path style=" stroke:none;fill-rule:nonzero;fill:rgb(69.01961%,74.509805%,77.254903%);fill-opacity:1;" d="M 47.132812 22.523438 L 11.070312 58.585938 L 4 60 L 40.0625 23.9375 Z M 47.132812 22.523438 "/>
<path style=" stroke:none;fill-rule:nonzero;fill:rgb(100%,100%,100%);fill-opacity:0.4;" d="M 55.617188 4.375 C 54.597656 4.375 53.574219 4.769531 52.792969 5.554688 C 51.863281 6.480469 51.484375 7.742188 51.65625 8.941406 C 51.769531 8.113281 52.152344 7.3125 52.792969 6.671875 C 54.359375 5.105469 56.878906 5.105469 58.445312 6.671875 C 59.085938 7.3125 59.46875 8.113281 59.585938 8.941406 C 59.753906 7.742188 59.375 6.480469 58.445312 5.554688 C 57.664062 4.769531 56.640625 4.378906 55.617188 4.375 Z M 55.617188 4.375 "/>
<path style=" stroke:none;fill-rule:nonzero;fill:rgb(0%,0%,0%);fill-opacity:0.4;" d="M 51.75 9.421875 L 51.617188 9.554688 C 51.632812 10.558594 52.023438 11.558594 52.792969 12.328125 C 53.089844 12.625 53.421875 12.867188 53.777344 13.050781 L 54.582031 12.246094 C 53.925781 12.070312 53.308594 11.726562 52.792969 11.207031 C 52.273438 10.691406 51.929688 10.074219 51.75 9.421875 Z M 51.75 9.421875 "/>
<path style=" stroke:none;fill-rule:nonzero;fill:rgb(0%,0%,0%);fill-opacity:0.4;" d="M 41.476562 16.867188 L 41.195312 17.148438 L 46.851562 22.804688 L 47.132812 22.523438 Z M 41.476562 16.867188 "/>
<path style=" stroke:none;fill-rule:nonzero;fill:rgb(100%,100%,100%);fill-opacity:0.4;" d="M 51.304688 22.347656 C 50.5625 22.367188 49.824219 22.660156 49.253906 23.230469 C 48.585938 23.898438 48.300781 24.792969 48.390625 25.660156 C 48.457031 25 48.746094 24.359375 49.253906 23.847656 C 50.429688 22.675781 52.324219 22.675781 53.5 23.847656 C 54.007812 24.359375 54.292969 25 54.363281 25.660156 C 54.453125 24.792969 54.164062 23.898438 53.5 23.230469 C 52.890625 22.625 52.09375 22.332031 51.304688 22.347656 Z M 51.304688 22.347656 "/>
<path style=" stroke:none;fill-rule:nonzero;fill:rgb(100%,100%,100%);fill-opacity:0.4;" d="M 38.578125 9.621094 C 37.832031 9.640625 37.097656 9.933594 36.527344 10.5 C 35.859375 11.167969 35.570312 12.066406 35.660156 12.933594 C 35.730469 12.273438 36.019531 11.628906 36.527344 11.121094 C 37.703125 9.945312 39.59375 9.945312 40.769531 11.121094 C 41.277344 11.628906 41.566406 12.273438 41.636719 12.933594 C 41.726562 12.066406 41.4375 11.167969 40.769531 10.5 C 40.164062 9.894531 39.367188 9.601562 38.578125 9.621094 Z M 38.578125 9.621094 "/>
<path style=" stroke:none;fill-rule:nonzero;fill:rgb(0%,0%,0%);fill-opacity:0.4;" d="M 48.390625 25.054688 C 48.304688 25.917969 48.589844 26.808594 49.253906 27.472656 C 50.429688 28.648438 52.324219 28.648438 53.5 27.472656 C 54.160156 26.808594 54.449219 25.917969 54.363281 25.054688 C 54.296875 25.71875 54.007812 26.367188 53.5 26.878906 C 52.324219 28.054688 50.429688 28.054688 49.253906 26.878906 C 48.742188 26.367188 48.453125 25.71875 48.390625 25.054688 Z M 48.390625 25.054688 "/>
<path style=" stroke:none;fill-rule:nonzero;fill:rgb(0%,0%,0%);fill-opacity:0.4;" d="M 35.660156 12.328125 C 35.574219 13.1875 35.863281 14.082031 36.527344 14.746094 C 37.703125 15.921875 39.59375 15.921875 40.769531 14.746094 C 41.433594 14.082031 41.71875 13.1875 41.636719 12.328125 C 41.570312 12.992188 41.28125 13.640625 40.769531 14.152344 C 39.59375 15.324219 37.703125 15.324219 36.527344 14.152344 C 36.015625 13.640625 35.726562 12.992188 35.660156 12.328125 Z M 35.660156 12.328125 "/>
<path style=" stroke:none;fill-rule:nonzero;fill:rgb(74.117649%,74.117649%,74.117649%);fill-opacity:0.4;" d="M 38.144531 10.644531 C 38.339844 10.839844 38.183594 11.316406 37.792969 11.707031 C 37.402344 12.097656 36.925781 12.257812 36.730469 12.0625 C 36.535156 11.867188 36.695312 11.390625 37.085938 11 C 37.476562 10.609375 37.953125 10.453125 38.144531 10.644531 Z M 38.144531 10.644531 "/>
<path style=" stroke:none;fill-rule:nonzero;fill:rgb(74.117649%,74.117649%,74.117649%);fill-opacity:0.4;" d="M 51.355469 23.355469 C 51.546875 23.546875 51.390625 24.023438 51 24.414062 C 50.609375 24.804688 50.132812 24.964844 49.9375 24.769531 C 49.742188 24.574219 49.902344 24.097656 50.292969 23.707031 C 50.683594 23.316406 51.160156 23.160156 51.355469 23.355469 Z M 51.355469 23.355469 "/>
<path style=" stroke:none;fill-rule:nonzero;fill:rgb(74.117649%,74.117649%,74.117649%);fill-opacity:0.4;" d="M 54.855469 5.855469 C 55.050781 6.046875 54.890625 6.523438 54.5 6.914062 C 54.109375 7.304688 53.632812 7.464844 53.4375 7.269531 C 53.242188 7.074219 53.402344 6.597656 53.792969 6.207031 C 54.183594 5.816406 54.660156 5.660156 54.855469 5.855469 Z M 54.855469 5.855469 "/>
<path style=" stroke:none;fill-rule:nonzero;fill:rgb(0%,0%,0%);fill-opacity:0.4;" d="M 47.132812 22.523438 L 45.855469 22.78125 L 11.070312 57.5625 L 5.28125 58.71875 L 4 60 L 11.070312 58.585938 Z M 47.132812 22.523438 "/>
<path style=" stroke:none;fill-rule:nonzero;fill:rgb(56.470591%,64.313728%,68.235296%);fill-opacity:1;" d="M 22.523438 16.867188 L 16.867188 22.523438 L 23.9375 26.765625 L 26.765625 23.9375 Z M 22.523438 16.867188 "/>
<path style=" stroke:none;fill-rule:nonzero;fill:rgb(38.039216%,38.039216%,38.039216%);fill-opacity:1;" d="M 11.210938 8.382812 L 8.382812 11.210938 L 18.28125 21.109375 L 21.109375 18.28125 Z M 11.210938 8.382812 "/>
<path style=" stroke:none;fill-rule:nonzero;fill:rgb(100%,100%,100%);fill-opacity:0.4;" d="M 11.207031 8.382812 L 21.109375 18.28125 L 20.800781 18.589844 L 11.207031 9 L 8.691406 11.519531 L 8.382812 11.207031 Z M 11.207031 8.382812 "/>
<path style=" stroke:none;fill-rule:nonzero;fill:rgb(0%,0%,0%);fill-opacity:0.4;" d="M 8.734375 10.855469 L 18.28125 20.402344 L 20.753906 17.925781 L 21.109375 18.28125 L 18.28125 21.109375 L 8.382812 11.207031 Z M 8.734375 10.855469 "/>
<path style=" stroke:none;fill-rule:nonzero;fill:rgb(38.039216%,38.039216%,38.039216%);fill-opacity:1;" d="M 23.9375 12.625 L 12.625 23.9375 L 14.039062 25.351562 L 25.351562 14.039062 Z M 23.9375 12.625 "/>
<path style=" stroke:none;fill-rule:nonzero;fill:rgb(100%,100%,100%);fill-opacity:0.4;" d="M 23.9375 12.625 L 25.351562 14.035156 L 25.164062 14.226562 L 23.9375 13 L 12.8125 24.125 L 12.625 23.9375 Z M 23.9375 12.625 "/>
<path style=" stroke:none;fill-rule:nonzero;fill:rgb(45.882353%,45.882353%,45.882353%);fill-opacity:0.996078;" d="M 10.503906 23.230469 C 9.332031 24.402344 9.332031 26.300781 10.503906 27.472656 C 11.675781 28.644531 13.574219 28.644531 14.746094 27.472656 C 15.917969 26.300781 15.917969 24.402344 14.746094 23.230469 C 13.574219 22.058594 11.675781 22.058594 10.503906 23.230469 Z M 10.503906 23.230469 "/>
<path style=" stroke:none;fill-rule:nonzero;fill:rgb(45.882353%,45.882353%,45.882353%);fill-opacity:0.996078;" d="M 23.230469 10.503906 C 22.058594 11.675781 22.058594 13.574219 23.230469 14.746094 C 24.402344 15.917969 26.300781 15.917969 27.472656 14.746094 C 28.644531 13.574219 28.644531 11.675781 27.472656 10.503906 C 26.300781 9.332031 24.402344 9.332031 23.230469 10.503906 Z M 23.230469 10.503906 "/>
<path style=" stroke:none;fill-rule:nonzero;fill:rgb(81.176472%,84.705883%,86.274511%);fill-opacity:1;" d="M 22.523438 16.867188 L 58.585938 52.929688 L 60 60 L 23.9375 23.9375 Z M 22.523438 16.867188 "/>
<path style=" stroke:none;fill-rule:nonzero;fill:rgb(45.882353%,45.882353%,45.882353%);fill-opacity:0.996078;" d="M 5.554688 5.554688 C 3.992188 7.113281 3.992188 9.648438 5.554688 11.210938 C 7.113281 12.773438 9.648438 12.773438 11.210938 11.210938 C 12.773438 9.648438 12.773438 7.113281 11.210938 5.554688 C 9.648438 3.992188 7.113281 3.992188 5.554688 5.554688 Z M 5.554688 5.554688 "/>
<path style=" stroke:none;fill-rule:nonzero;fill:rgb(100%,100%,100%);fill-opacity:0.4;" d="M 22.523438 16.867188 L 58.585938 52.929688 L 60 60 L 59.71875 59.71875 L 58.585938 54.0625 L 22.808594 18.28125 Z M 22.523438 16.867188 "/>
<path style=" stroke:none;fill-rule:nonzero;fill:rgb(69.01961%,74.509805%,77.254903%);fill-opacity:1;" d="M 16.867188 22.523438 L 52.929688 58.585938 L 60 60 L 23.9375 23.9375 Z M 16.867188 22.523438 "/>
<path style=" stroke:none;fill-rule:nonzero;fill:rgb(100%,100%,100%);fill-opacity:0.4;" d="M 8.382812 4.375 C 9.402344 4.375 10.425781 4.769531 11.207031 5.554688 C 12.136719 6.480469 12.515625 7.742188 12.34375 8.941406 C 12.230469 8.113281 11.847656 7.3125 11.207031 6.671875 C 9.640625 5.105469 7.121094 5.105469 5.554688 6.671875 C 4.914062 7.3125 4.53125 8.113281 4.414062 8.941406 C 4.246094 7.742188 4.625 6.480469 5.554688 5.554688 C 6.335938 4.769531 7.359375 4.378906 8.382812 4.375 Z M 8.382812 4.375 "/>
<path style=" stroke:none;fill-rule:nonzero;fill:rgb(0%,0%,0%);fill-opacity:0.4;" d="M 12.25 9.421875 L 12.382812 9.554688 C 12.367188 10.558594 11.976562 11.558594 11.207031 12.328125 C 10.910156 12.625 10.578125 12.867188 10.222656 13.050781 L 9.417969 12.246094 C 10.074219 12.070312 10.691406 11.726562 11.207031 11.207031 C 11.726562 10.691406 12.070312 10.074219 12.25 9.421875 Z M 12.25 9.421875 "/>
<path style=" stroke:none;fill-rule:nonzero;fill:rgb(0%,0%,0%);fill-opacity:0.4;" d="M 22.523438 16.867188 L 22.804688 17.148438 L 17.148438 22.804688 L 16.867188 22.523438 Z M 22.523438 16.867188 "/>
<path style=" stroke:none;fill-rule:nonzero;fill:rgb(100%,100%,100%);fill-opacity:0.4;" d="M 12.695312 22.347656 C 13.4375 22.367188 14.175781 22.660156 14.746094 23.230469 C 15.414062 23.898438 15.699219 24.792969 15.609375 25.660156 C 15.542969 25 15.253906 24.359375 14.746094 23.847656 C 13.570312 22.675781 11.675781 22.675781 10.5 23.847656 C 9.992188 24.359375 9.707031 25 9.636719 25.660156 C 9.546875 24.792969 9.835938 23.898438 10.5 23.230469 C 11.109375 22.625 11.90625 22.332031 12.695312 22.347656 Z M 12.695312 22.347656 "/>
<path style=" stroke:none;fill-rule:nonzero;fill:rgb(100%,100%,100%);fill-opacity:0.4;" d="M 25.421875 9.621094 C 26.167969 9.640625 26.902344 9.933594 27.472656 10.5 C 28.140625 11.167969 28.429688 12.066406 28.339844 12.933594 C 28.269531 12.273438 27.980469 11.628906 27.472656 11.121094 C 26.296875 9.945312 24.40625 9.945312 23.230469 11.121094 C 22.722656 11.628906 22.433594 12.273438 22.363281 12.933594 C 22.273438 12.066406 22.5625 11.167969 23.230469 10.5 C 23.835938 9.894531 24.632812 9.601562 25.421875 9.621094 Z M 25.421875 9.621094 "/>
<path style=" stroke:none;fill-rule:nonzero;fill:rgb(0%,0%,0%);fill-opacity:0.4;" d="M 15.609375 25.054688 C 15.695312 25.917969 15.410156 26.808594 14.746094 27.472656 C 13.570312 28.648438 11.675781 28.648438 10.5 27.472656 C 9.839844 26.808594 9.550781 25.917969 9.636719 25.054688 C 9.703125 25.71875 9.992188 26.367188 10.5 26.878906 C 11.675781 28.054688 13.570312 28.054688 14.746094 26.878906 C 15.257812 26.367188 15.546875 25.71875 15.609375 25.054688 Z M 15.609375 25.054688 "/>
<path style=" stroke:none;fill-rule:nonzero;fill:rgb(0%,0%,0%);fill-opacity:0.4;" d="M 28.339844 12.328125 C 28.425781 13.1875 28.136719 14.082031 27.472656 14.746094 C 26.296875 15.921875 24.40625 15.921875 23.230469 14.746094 C 22.566406 14.082031 22.28125 13.1875 22.363281 12.328125 C 22.429688 12.992188 22.71875 13.640625 23.230469 14.152344 C 24.40625 15.324219 26.296875 15.324219 27.472656 14.152344 C 27.984375 13.640625 28.273438 12.992188 28.339844 12.328125 Z M 28.339844 12.328125 "/>
<path style=" stroke:none;fill-rule:nonzero;fill:rgb(74.117649%,74.117649%,74.117649%);fill-opacity:0.4;" d="M 25.144531 10.644531 C 25.339844 10.839844 25.179688 11.316406 24.789062 11.707031 C 24.402344 12.097656 23.925781 12.257812 23.730469 12.0625 C 23.535156 11.867188 23.691406 11.390625 24.082031 11 C 24.472656 10.609375 24.949219 10.453125 25.144531 10.644531 Z M 25.144531 10.644531 "/>
<path style=" stroke:none;fill-rule:nonzero;fill:rgb(74.117649%,74.117649%,74.117649%);fill-opacity:0.4;" d="M 12.144531 23.355469 C 12.339844 23.546875 12.179688 24.023438 11.789062 24.414062 C 11.398438 24.804688 10.925781 24.964844 10.730469 24.769531 C 10.535156 24.574219 10.691406 24.097656 11.082031 23.707031 C 11.472656 23.316406 11.949219 23.160156 12.144531 23.355469 Z M 12.144531 23.355469 "/>
<path style=" stroke:none;fill-rule:nonzero;fill:rgb(74.117649%,74.117649%,74.117649%);fill-opacity:0.4;" d="M 7.4375 5.855469 C 7.632812 6.050781 7.472656 6.523438 7.082031 6.914062 C 6.691406 7.304688 6.21875 7.464844 6.023438 7.269531 C 5.828125 7.074219 5.984375 6.597656 6.375 6.207031 C 6.765625 5.816406 7.242188 5.660156 7.4375 5.855469 Z M 7.4375 5.855469 "/>
<path style=" stroke:none;fill-rule:nonzero;fill:rgb(0%,0%,0%);fill-opacity:0.4;" d="M 16.867188 22.523438 L 18.144531 22.78125 L 52.929688 57.5625 L 58.71875 58.71875 L 60 60 L 52.929688 58.585938 Z M 16.867188 22.523438 "/>
<path style=" stroke:none;fill-rule:nonzero;fill:url(#linear1);" d="M 8.378906 4.378906 C 7.359375 4.378906 6.335938 4.769531 5.550781 5.550781 C 3.984375 7.121094 3.984375 9.640625 5.550781 11.207031 C 6.605469 12.261719 8.085938 12.605469 9.417969 12.25 L 16.867188 19.695312 L 13.917969 22.644531 C 12.800781 22.109375 11.429688 22.304688 10.5 23.230469 C 9.328125 24.40625 9.328125 26.296875 10.5 27.472656 C 11.675781 28.648438 13.570312 28.648438 14.742188 27.472656 C 15.671875 26.546875 15.867188 25.171875 15.332031 24.058594 L 16.863281 22.523438 L 26.34375 32 L 5.414062 52.929688 L 4 60 L 11.070312 58.585938 L 32 37.65625 L 52.925781 58.585938 L 60 60 L 58.585938 52.929688 L 37.65625 32 L 47.132812 22.523438 L 48.667969 24.058594 C 48.132812 25.175781 48.328125 26.546875 49.253906 27.472656 C 50.429688 28.648438 52.324219 28.648438 53.496094 27.472656 C 54.671875 26.296875 54.671875 24.40625 53.496094 23.230469 C 52.570312 22.304688 51.199219 22.109375 50.082031 22.644531 L 47.132812 19.695312 L 54.578125 12.25 C 55.914062 12.609375 57.394531 12.257812 58.445312 11.207031 C 60.015625 9.640625 60.015625 7.121094 58.445312 5.550781 C 56.878906 3.984375 54.355469 3.984375 52.789062 5.550781 C 51.738281 6.601562 51.394531 8.085938 51.75 9.417969 L 44.304688 16.867188 L 41.355469 13.917969 C 41.890625 12.804688 41.695312 11.429688 40.769531 10.5 C 39.59375 9.328125 37.703125 9.328125 36.527344 10.5 C 35.351562 11.675781 35.351562 13.570312 36.527344 14.746094 C 37.453125 15.671875 38.828125 15.867188 39.941406 15.332031 L 41.476562 16.867188 L 32 26.34375 L 22.523438 16.867188 L 24.054688 15.332031 C 25.171875 15.867188 26.546875 15.671875 27.472656 14.746094 C 28.648438 13.570312 28.648438 11.675781 27.472656 10.5 C 26.296875 9.328125 24.40625 9.328125 23.230469 10.5 C 22.304688 11.429688 22.109375 12.800781 22.640625 13.917969 L 19.695312 16.867188 L 12.246094 9.417969 C 12.605469 8.085938 12.261719 6.605469 11.207031 5.550781 C 10.425781 4.769531 9.402344 4.378906 8.378906 4.378906 Z M 8.378906 4.378906 "/>
<path style=" stroke:none;fill-rule:nonzero;fill:rgb(0%,0%,0%);fill-opacity:0.2;" d="M 51.6875 9.125 C 51.660156 9.261719 51.644531 9.402344 51.628906 9.539062 L 51.75 9.417969 C 51.726562 9.320312 51.707031 9.222656 51.6875 9.125 Z M 12.3125 9.128906 C 12.292969 9.226562 12.273438 9.324219 12.25 9.421875 L 12.371094 9.539062 C 12.355469 9.402344 12.339844 9.265625 12.3125 9.128906 Z M 4.449219 9.132812 C 4.210938 10.386719 4.578125 11.734375 5.554688 12.707031 C 6.605469 13.761719 8.085938 14.105469 9.421875 13.75 L 16.117188 20.445312 L 16.867188 19.695312 L 9.421875 12.25 C 8.085938 12.605469 6.605469 12.261719 5.554688 11.207031 C 4.960938 10.617188 4.59375 9.890625 4.449219 9.132812 Z M 59.550781 9.132812 C 59.40625 9.890625 59.039062 10.617188 58.449219 11.207031 C 57.394531 12.257812 55.914062 12.609375 54.578125 12.25 L 47.132812 19.695312 L 47.882812 20.445312 L 54.578125 13.75 C 55.914062 14.109375 57.394531 13.757812 58.449219 12.707031 C 59.421875 11.734375 59.789062 10.386719 59.550781 9.132812 Z M 22.445312 13.375 C 22.375 13.648438 22.34375 13.929688 22.355469 14.207031 L 22.640625 13.917969 C 22.558594 13.742188 22.492188 13.558594 22.445312 13.375 Z M 41.554688 13.375 C 41.507812 13.558594 41.441406 13.742188 41.359375 13.917969 L 41.644531 14.207031 C 41.65625 13.929688 41.625 13.648438 41.554688 13.375 Z M 28.253906 13.375 C 28.125 13.875 27.867188 14.351562 27.472656 14.746094 C 26.546875 15.671875 25.171875 15.867188 24.058594 15.332031 L 22.523438 16.867188 L 23.273438 17.617188 L 24.058594 16.832031 C 25.171875 17.367188 26.546875 17.171875 27.472656 16.246094 C 28.253906 15.464844 28.511719 14.367188 28.253906 13.375 Z M 35.746094 13.375 C 35.488281 14.367188 35.746094 15.464844 36.527344 16.246094 C 37.453125 17.171875 38.828125 17.367188 39.941406 16.832031 L 40.726562 17.617188 L 41.476562 16.867188 L 39.941406 15.332031 C 38.828125 15.867188 37.453125 15.671875 36.527344 14.746094 C 36.132812 14.351562 35.875 13.875 35.746094 13.375 Z M 16.863281 22.523438 L 15.332031 24.058594 C 15.515625 24.4375 15.613281 24.851562 15.625 25.265625 L 16.863281 24.023438 L 25.59375 32.75 L 26.34375 32 Z M 47.132812 22.523438 L 37.65625 32 L 38.40625 32.75 L 47.132812 24.023438 L 48.375 25.265625 C 48.390625 24.851562 48.484375 24.441406 48.667969 24.058594 Z M 9.71875 26.101562 C 9.460938 27.09375 9.722656 28.191406 10.5 28.972656 C 11.675781 30.148438 13.570312 30.148438 14.746094 28.972656 C 15.523438 28.191406 15.785156 27.09375 15.53125 26.101562 C 15.398438 26.601562 15.136719 27.078125 14.746094 27.472656 C 13.570312 28.648438 11.675781 28.648438 10.5 27.472656 C 10.109375 27.078125 9.847656 26.601562 9.71875 26.101562 Z M 54.28125 26.101562 C 54.152344 26.601562 53.890625 27.078125 53.5 27.472656 C 52.324219 28.648438 50.429688 28.648438 49.253906 27.472656 C 48.859375 27.078125 48.601562 26.605469 48.46875 26.105469 C 48.214844 27.097656 48.472656 28.191406 49.253906 28.972656 C 50.429688 30.148438 52.324219 30.148438 53.5 28.972656 C 54.277344 28.191406 54.539062 27.09375 54.28125 26.101562 Z M 32 37.65625 L 11.070312 58.585938 L 4.3125 59.9375 L 4 61.5 L 11.070312 60.085938 L 32 39.15625 L 52.925781 60.085938 L 60 61.5 L 59.6875 59.9375 L 52.925781 58.585938 Z M 32 37.65625 "/>
</g>
</svg>
