
<svg xmlns="http://www.w3.org/2000/svg" xmlns:xlink="http://www.w3.org/1999/xlink" width="16" height="16" viewBox="0 0 16 16" version="1.1">
<defs>
<linearGradient id="linear0" gradientUnits="userSpaceOnUse" x1="32" y1="59.999996" x2="32" y2="4" gradientTransform="matrix(0.25,0,0,0.25,-0.000000151181,0)">
<stop offset="0" style="stop-color:rgb(0%,0%,0%);stop-opacity:0.2;"/>
<stop offset="1" style="stop-color:rgb(100%,100%,100%);stop-opacity:0;"/>
</linearGradient>
</defs>
<g id="surface1">
<path style=" stroke:none;fill-rule:nonzero;fill:rgb(38.039216%,38.039216%,38.039216%);fill-opacity:0.996078;" d="M 3 1 C 2.445312 1 2 1.445312 2 2 L 2 11.046875 C 2 11.328125 2.148438 11.589844 2.390625 11.734375 L 7.609375 14.890625 C 7.851562 15.035156 8.148438 15.035156 8.390625 14.890625 L 13.609375 11.734375 C 13.851562 11.589844 14 11.328125 14 11.046875 L 14 2 C 14 1.445312 13.554688 1 13 1 Z M 3 1 "/>
<path style=" stroke:none;fill-rule:nonzero;fill:rgb(93.333334%,93.333334%,93.333334%);fill-opacity:1;" d="M 3.5 3 L 3.5 8.625 L 5.5 8.625 L 5.5 7.796875 L 4.5 7.796875 L 4.5 6.144531 L 5.5 6.144531 L 5.5 5.316406 L 4.5 5.316406 L 4.5 3.828125 L 5.5 3.828125 L 5.5 3 Z M 5.832031 3 L 5.832031 8.625 L 6.832031 8.625 L 6.832031 6.640625 L 7.5 6.640625 C 7.960938 6.640625 8.332031 6.269531 8.332031 5.8125 L 8.332031 3.828125 C 8.332031 3.371094 7.960938 3 7.5 3 Z M 8.667969 3 L 8.667969 8.625 L 9.667969 8.625 L 9.667969 3 Z M 10.832031 3 C 10.371094 3 10 3.371094 10 3.828125 L 10 7.796875 C 10 8.253906 10.371094 8.625 10.832031 8.625 L 11.667969 8.625 C 12.128906 8.625 12.5 8.253906 12.5 7.796875 L 12.5 6.308594 L 11.667969 6.308594 L 11.667969 7.464844 C 11.667969 7.648438 11.519531 7.796875 11.332031 7.796875 L 11.167969 7.796875 C 10.980469 7.796875 10.832031 7.648438 10.832031 7.464844 L 10.832031 4.160156 C 10.832031 3.976562 10.980469 3.828125 11.167969 3.828125 L 11.332031 3.828125 C 11.519531 3.828125 11.667969 3.976562 11.667969 4.160156 L 11.667969 5.152344 L 12.5 5.152344 L 12.5 3.828125 C 12.5 3.371094 12.128906 3 11.667969 3 Z M 6.832031 3.828125 L 7 3.828125 C 7.183594 3.828125 7.332031 3.976562 7.332031 4.160156 L 7.332031 5.480469 C 7.332031 5.664062 7.183594 5.8125 7 5.8125 L 6.832031 5.8125 Z M 6.832031 3.828125 "/>
<path style=" stroke:none;fill-rule:nonzero;fill:rgb(93.333334%,93.333334%,93.333334%);fill-opacity:1;" d="M 11.953125 9.515625 C 11.75 9.515625 11.597656 9.539062 11.503906 9.59375 C 11.410156 9.644531 11.363281 9.730469 11.363281 9.839844 L 11.363281 9.9375 C 11.363281 10.160156 11.507812 10.273438 11.789062 10.273438 L 11.941406 10.273438 C 12.003906 10.273438 12.046875 10.285156 12.070312 10.308594 C 12.097656 10.332031 12.109375 10.363281 12.109375 10.40625 L 12.109375 10.488281 C 12.109375 10.578125 12.023438 10.621094 11.851562 10.621094 C 11.769531 10.621094 11.613281 10.605469 11.390625 10.570312 L 11.390625 10.808594 C 11.570312 10.832031 11.722656 10.84375 11.847656 10.84375 C 11.9375 10.84375 12.011719 10.835938 12.078125 10.824219 C 12.140625 10.8125 12.199219 10.792969 12.253906 10.765625 C 12.363281 10.710938 12.417969 10.609375 12.417969 10.457031 L 12.417969 10.371094 C 12.417969 10.257812 12.386719 10.175781 12.320312 10.121094 C 12.253906 10.066406 12.144531 10.039062 12 10.039062 L 11.84375 10.039062 C 11.730469 10.039062 11.675781 10.007812 11.675781 9.941406 L 11.675781 9.847656 C 11.675781 9.808594 11.691406 9.78125 11.730469 9.761719 C 11.765625 9.742188 11.835938 9.734375 11.941406 9.734375 C 12.015625 9.734375 12.15625 9.746094 12.355469 9.769531 L 12.355469 9.539062 C 12.191406 9.523438 12.058594 9.515625 11.953125 9.515625 Z M 4.175781 9.515625 C 4.128906 9.515625 4.089844 9.519531 4.054688 9.523438 C 3.996094 9.53125 3.9375 9.542969 3.878906 9.5625 C 3.820312 9.582031 3.769531 9.605469 3.726562 9.632812 C 3.683594 9.664062 3.648438 9.707031 3.621094 9.757812 C 3.59375 9.808594 3.582031 9.867188 3.582031 9.933594 L 3.582031 10.46875 C 3.582031 10.527344 3.59375 10.582031 3.617188 10.628906 C 3.640625 10.671875 3.671875 10.707031 3.710938 10.734375 C 3.75 10.761719 3.796875 10.78125 3.855469 10.796875 C 3.914062 10.816406 3.96875 10.824219 4.027344 10.832031 C 4.082031 10.839844 4.148438 10.84375 4.222656 10.84375 C 4.308594 10.84375 4.402344 10.835938 4.503906 10.820312 C 4.605469 10.800781 4.691406 10.78125 4.757812 10.757812 L 4.757812 10.089844 L 4.25 10.089844 L 4.25 10.292969 L 4.460938 10.292969 L 4.460938 10.59375 C 4.386719 10.613281 4.320312 10.621094 4.253906 10.621094 C 4.132812 10.621094 4.039062 10.609375 3.980469 10.582031 C 3.921875 10.554688 3.890625 10.511719 3.890625 10.449219 L 3.890625 9.929688 C 3.890625 9.800781 4.003906 9.734375 4.226562 9.734375 C 4.421875 9.734375 4.597656 9.753906 4.75 9.789062 L 4.75 9.554688 C 4.582031 9.527344 4.410156 9.515625 4.226562 9.515625 C 4.210938 9.515625 4.191406 9.515625 4.175781 9.515625 Z M 5.824219 9.535156 L 5.347656 10.824219 L 5.652344 10.824219 L 5.765625 10.484375 L 6.234375 10.484375 L 6.351562 10.824219 L 6.664062 10.824219 L 6.199219 9.535156 Z M 7.296875 9.535156 L 7.296875 10.824219 L 7.582031 10.824219 L 7.582031 9.871094 L 7.589844 9.871094 L 7.925781 10.824219 L 8.171875 10.824219 L 8.496094 9.871094 L 8.503906 9.871094 L 8.503906 10.824219 L 8.785156 10.824219 L 8.785156 9.535156 L 8.367188 9.535156 L 8.054688 10.457031 L 7.738281 9.535156 Z M 9.617188 9.535156 L 9.617188 10.824219 L 10.621094 10.824219 L 10.621094 10.601562 L 9.929688 10.601562 L 9.929688 10.269531 L 10.535156 10.269531 L 10.535156 10.050781 L 9.929688 10.050781 L 9.929688 9.753906 L 10.601562 9.753906 L 10.601562 9.535156 Z M 5.996094 9.792969 L 6.007812 9.792969 L 6.167969 10.277344 L 5.835938 10.277344 Z M 5.996094 9.792969 "/>
<path style=" stroke:none;fill-rule:nonzero;fill:rgb(93.333334%,93.333334%,93.333334%);fill-opacity:1;" d="M 8 14.125 L 5.625 12.625 L 10.375 12.625 Z M 8 14.125 "/>
<path style=" stroke:none;fill-rule:nonzero;fill:rgb(100%,100%,100%);fill-opacity:0.4;" d="M 3 1 C 2.445312 1 2 1.445312 2 2 L 2 2.242188 C 2 1.6875 2.445312 1.242188 3 1.242188 L 13 1.242188 C 13.554688 1.242188 14 1.6875 14 2.242188 L 14 2 C 14 1.445312 13.554688 1 13 1 Z M 3 1 "/>
<path style=" stroke:none;fill-rule:nonzero;fill:rgb(0%,0%,0%);fill-opacity:0.4;" d="M 2 10.796875 L 2 11.046875 C 2 11.328125 2.148438 11.589844 2.390625 11.734375 L 7.609375 14.890625 C 7.851562 15.035156 8.148438 15.035156 8.390625 14.890625 L 13.609375 11.734375 C 13.851562 11.589844 14 11.328125 14 11.046875 L 14 10.796875 C 14 11.078125 13.851562 11.339844 13.609375 11.484375 L 8.390625 14.640625 C 8.148438 14.785156 7.851562 14.785156 7.609375 14.640625 L 2.390625 11.484375 C 2.148438 11.339844 2 11.078125 2 10.796875 Z M 2 10.796875 "/>
<path style=" stroke:none;fill-rule:nonzero;fill:rgb(0%,0%,0%);fill-opacity:0.2;" d="M 2 11.042969 L 2 11.425781 C 2 11.707031 2.148438 11.96875 2.390625 12.117188 L 7.609375 15.269531 C 7.851562 15.414062 8.148438 15.414062 8.390625 15.269531 L 13.609375 12.117188 C 13.851562 11.96875 14 11.707031 14 11.425781 L 14 11.042969 C 14 11.328125 13.851562 11.589844 13.609375 11.734375 L 8.390625 14.890625 C 8.148438 15.035156 7.851562 15.035156 7.609375 14.890625 L 2.390625 11.734375 C 2.148438 11.589844 2 11.328125 2 11.042969 Z M 2 11.042969 "/>
<path style=" stroke:none;fill-rule:nonzero;fill:rgb(0%,0%,0%);fill-opacity:0.4;" d="M 4.5 3.828125 L 4.5 4.078125 L 5.5 4.078125 L 5.5 3.828125 Z M 6.832031 3.828125 L 6.832031 4.078125 L 7 4.078125 C 7.183594 4.078125 7.332031 4.226562 7.332031 4.410156 L 7.332031 4.160156 C 7.332031 3.976562 7.183594 3.828125 7 3.828125 Z M 11.167969 3.828125 C 10.984375 3.828125 10.832031 3.976562 10.832031 4.160156 L 10.832031 4.410156 C 10.832031 4.226562 10.984375 4.078125 11.167969 4.078125 L 11.332031 4.078125 C 11.515625 4.078125 11.667969 4.226562 11.667969 4.410156 L 11.667969 4.160156 C 11.667969 3.976562 11.515625 3.828125 11.332031 3.828125 Z M 11.667969 5.152344 L 11.667969 5.402344 L 12.5 5.402344 L 12.5 5.152344 Z M 8.332031 5.8125 C 8.332031 6.269531 7.960938 6.640625 7.5 6.640625 L 6.832031 6.640625 L 6.832031 6.890625 L 7.5 6.890625 C 7.960938 6.890625 8.332031 6.519531 8.332031 6.0625 Z M 4.5 6.144531 L 4.5 6.394531 L 5.5 6.394531 L 5.5 6.144531 Z M 10 7.796875 L 10 8.046875 C 10 8.503906 10.371094 8.875 10.832031 8.875 L 11.667969 8.875 C 12.128906 8.875 12.5 8.503906 12.5 8.046875 L 12.5 7.796875 C 12.5 8.253906 12.128906 8.625 11.667969 8.625 L 10.832031 8.625 C 10.371094 8.625 10 8.253906 10 7.796875 Z M 3.5 8.625 L 3.5 8.875 L 5.5 8.875 L 5.5 8.625 Z M 5.832031 8.625 L 5.832031 8.875 L 6.832031 8.875 L 6.832031 8.625 Z M 8.667969 8.625 L 8.667969 8.875 L 9.667969 8.875 L 9.667969 8.625 Z M 11.953125 9.765625 C 11.855469 9.765625 11.773438 9.769531 11.699219 9.78125 C 11.683594 9.800781 11.675781 9.820312 11.675781 9.847656 L 11.675781 9.9375 C 11.675781 9.976562 11.691406 10 11.722656 10.015625 C 11.726562 10.015625 11.726562 10.011719 11.730469 10.011719 C 11.765625 9.992188 11.835938 9.984375 11.941406 9.984375 C 12.015625 9.984375 12.15625 9.996094 12.355469 10.019531 L 12.355469 9.789062 C 12.191406 9.773438 12.058594 9.765625 11.953125 9.765625 Z M 4.175781 9.765625 C 4.128906 9.765625 4.089844 9.769531 4.054688 9.773438 C 4.027344 9.777344 4 9.78125 3.972656 9.785156 C 3.917969 9.820312 3.890625 9.867188 3.890625 9.929688 L 3.890625 10.179688 C 3.890625 10.050781 4.003906 9.984375 4.226562 9.984375 C 4.421875 9.984375 4.597656 10.003906 4.75 10.039062 L 4.75 9.804688 C 4.582031 9.78125 4.410156 9.765625 4.226562 9.765625 C 4.210938 9.765625 4.191406 9.765625 4.175781 9.765625 Z M 9.929688 9.785156 L 9.929688 10.003906 L 10.601562 10.003906 L 10.601562 9.785156 Z M 5.996094 9.792969 L 5.835938 10.277344 L 5.917969 10.277344 L 5.996094 10.042969 L 6.007812 10.042969 L 6.085938 10.277344 L 6.167969 10.277344 L 6.007812 9.792969 Z M 7.582031 9.867188 L 7.582031 10.117188 L 7.589844 10.117188 L 7.925781 11.070312 L 8.171875 11.070312 L 8.496094 10.117188 L 8.503906 10.117188 L 8.503906 9.867188 L 8.496094 9.867188 L 8.171875 10.820312 L 7.925781 10.820312 L 7.589844 9.867188 Z M 11.371094 10.019531 C 11.367188 10.042969 11.363281 10.066406 11.363281 10.09375 L 11.363281 10.1875 C 11.363281 10.410156 11.507812 10.523438 11.789062 10.523438 L 11.941406 10.523438 C 12.003906 10.523438 12.046875 10.535156 12.070312 10.558594 C 12.074219 10.5625 12.074219 10.5625 12.078125 10.566406 C 12.097656 10.546875 12.109375 10.519531 12.109375 10.488281 L 12.109375 10.40625 C 12.109375 10.363281 12.097656 10.332031 12.070312 10.308594 C 12.0625 10.300781 12.054688 10.296875 12.042969 10.289062 C 12.027344 10.289062 12.015625 10.289062 12 10.289062 L 11.84375 10.289062 C 11.796875 10.289062 11.761719 10.285156 11.734375 10.273438 C 11.523438 10.261719 11.402344 10.175781 11.371094 10.019531 Z M 9.929688 10.300781 L 9.929688 10.519531 L 10.535156 10.519531 L 10.535156 10.300781 Z M 4.25 10.339844 L 4.25 10.542969 L 4.460938 10.542969 L 4.460938 10.339844 Z M 3.582031 10.46875 L 3.582031 10.71875 C 3.582031 10.777344 3.59375 10.832031 3.617188 10.878906 C 3.640625 10.921875 3.671875 10.957031 3.710938 10.984375 C 3.75 11.011719 3.796875 11.03125 3.855469 11.046875 C 3.914062 11.066406 3.96875 11.074219 4.027344 11.082031 C 4.082031 11.089844 4.148438 11.09375 4.222656 11.09375 C 4.308594 11.09375 4.402344 11.085938 4.503906 11.070312 C 4.605469 11.054688 4.691406 11.035156 4.757812 11.011719 L 4.757812 10.761719 C 4.691406 10.785156 4.605469 10.804688 4.503906 10.820312 C 4.488281 10.820312 4.476562 10.824219 4.460938 10.824219 L 4.460938 10.84375 C 4.386719 10.863281 4.320312 10.875 4.253906 10.875 C 4.132812 10.875 4.039062 10.859375 3.980469 10.832031 C 3.972656 10.828125 3.964844 10.828125 3.960938 10.824219 C 3.960938 10.824219 3.960938 10.824219 3.960938 10.820312 C 3.925781 10.816406 3.890625 10.808594 3.855469 10.796875 C 3.796875 10.78125 3.75 10.761719 3.710938 10.734375 C 3.671875 10.707031 3.640625 10.671875 3.617188 10.628906 C 3.59375 10.582031 3.582031 10.527344 3.582031 10.46875 Z M 5.765625 10.484375 L 5.652344 10.820312 L 5.4375 10.820312 L 5.347656 11.070312 L 5.652344 11.070312 L 5.765625 10.734375 L 6.234375 10.734375 L 6.351562 11.070312 L 6.664062 11.070312 L 6.574219 10.820312 L 6.351562 10.820312 L 6.234375 10.484375 L 6.152344 10.484375 L 6.167969 10.527344 L 5.835938 10.527344 L 5.851562 10.484375 Z M 12.410156 10.539062 C 12.394531 10.648438 12.339844 10.722656 12.253906 10.765625 C 12.199219 10.792969 12.140625 10.8125 12.078125 10.824219 C 12.074219 10.824219 12.066406 10.824219 12.0625 10.828125 C 12.023438 10.855469 11.953125 10.871094 11.851562 10.871094 C 11.769531 10.871094 11.613281 10.855469 11.390625 10.820312 L 11.390625 11.054688 C 11.570312 11.078125 11.722656 11.09375 11.847656 11.09375 C 11.9375 11.09375 12.011719 11.085938 12.078125 11.074219 C 12.140625 11.0625 12.199219 11.042969 12.253906 11.015625 C 12.363281 10.960938 12.417969 10.859375 12.417969 10.703125 L 12.417969 10.621094 C 12.417969 10.589844 12.417969 10.5625 12.410156 10.539062 Z M 7.296875 10.820312 L 7.296875 11.070312 L 7.582031 11.070312 L 7.582031 10.820312 Z M 8.503906 10.820312 L 8.503906 11.070312 L 8.785156 11.070312 L 8.785156 10.820312 Z M 9.617188 10.820312 L 9.617188 11.070312 L 10.621094 11.070312 L 10.621094 10.851562 L 9.929688 10.851562 L 9.929688 10.820312 Z M 5.625 12.875 L 8 14.375 L 10.375 12.875 L 9.980469 12.875 L 8 14.125 L 6.019531 12.875 Z M 5.625 12.875 "/>
<path style=" stroke:none;fill-rule:nonzero;fill:rgb(100%,100%,100%);fill-opacity:0.6;" d="M 3.5 3 L 3.5 3.25 L 5.5 3.25 L 5.5 3 Z M 5.832031 3 L 5.832031 3.25 L 7.5 3.25 C 7.960938 3.25 8.332031 3.621094 8.332031 4.078125 L 8.332031 3.828125 C 8.332031 3.371094 7.960938 3 7.5 3 Z M 8.667969 3 L 8.667969 3.25 L 9.667969 3.25 L 9.667969 3 Z M 10.832031 3 C 10.371094 3 10 3.371094 10 3.828125 L 10 4.078125 C 10 3.621094 10.371094 3.25 10.832031 3.25 L 11.667969 3.25 C 12.128906 3.25 12.5 3.621094 12.5 4.078125 L 12.5 3.828125 C 12.5 3.371094 12.128906 3 11.667969 3 Z M 4.5 5.316406 L 4.5 5.566406 L 5.5 5.566406 L 5.5 5.316406 Z M 7.332031 5.480469 C 7.332031 5.664062 7.183594 5.8125 7 5.8125 L 6.832031 5.8125 L 6.832031 6.0625 L 7 6.0625 C 7.183594 6.0625 7.332031 5.914062 7.332031 5.730469 Z M 11.667969 6.308594 L 11.667969 6.558594 L 12.5 6.558594 L 12.5 6.308594 Z M 10.832031 7.464844 L 10.832031 7.714844 C 10.832031 7.898438 10.984375 8.046875 11.167969 8.046875 L 11.332031 8.046875 C 11.515625 8.046875 11.667969 7.898438 11.667969 7.714844 L 11.667969 7.464844 C 11.667969 7.648438 11.515625 7.796875 11.332031 7.796875 L 11.167969 7.796875 C 10.984375 7.796875 10.832031 7.648438 10.832031 7.464844 Z M 4.5 7.796875 L 4.5 8.046875 L 5.5 8.046875 L 5.5 7.796875 Z M 11.953125 9.515625 C 11.75 9.515625 11.597656 9.542969 11.503906 9.59375 C 11.410156 9.644531 11.363281 9.730469 11.363281 9.84375 L 11.363281 9.9375 C 11.363281 9.964844 11.367188 9.992188 11.371094 10.019531 C 11.390625 9.945312 11.433594 9.882812 11.503906 9.84375 C 11.554688 9.816406 11.621094 9.796875 11.703125 9.78125 C 11.710938 9.773438 11.71875 9.765625 11.730469 9.761719 C 11.765625 9.742188 11.835938 9.734375 11.941406 9.734375 C 12.015625 9.734375 12.15625 9.746094 12.355469 9.769531 L 12.355469 9.539062 C 12.191406 9.523438 12.058594 9.515625 11.953125 9.515625 Z M 4.175781 9.515625 C 4.128906 9.515625 4.089844 9.519531 4.054688 9.523438 C 3.996094 9.527344 3.9375 9.542969 3.878906 9.5625 C 3.820312 9.582031 3.769531 9.605469 3.726562 9.632812 C 3.683594 9.664062 3.648438 9.707031 3.621094 9.757812 C 3.59375 9.808594 3.582031 9.867188 3.582031 9.933594 L 3.582031 10.183594 C 3.582031 10.117188 3.59375 10.058594 3.621094 10.007812 C 3.648438 9.957031 3.683594 9.914062 3.726562 9.882812 C 3.769531 9.855469 3.820312 9.832031 3.878906 9.8125 C 3.910156 9.800781 3.941406 9.792969 3.96875 9.789062 C 4.027344 9.753906 4.109375 9.734375 4.226562 9.734375 C 4.421875 9.734375 4.597656 9.753906 4.75 9.789062 L 4.75 9.554688 C 4.582031 9.527344 4.410156 9.515625 4.226562 9.515625 C 4.210938 9.515625 4.191406 9.515625 4.175781 9.515625 Z M 5.824219 9.535156 L 5.347656 10.820312 L 5.4375 10.820312 L 5.824219 9.785156 L 6.199219 9.785156 L 6.574219 10.820312 L 6.664062 10.820312 L 6.199219 9.535156 Z M 7.296875 9.535156 L 7.296875 9.785156 L 7.738281 9.785156 L 8.054688 10.703125 L 8.367188 9.785156 L 8.785156 9.785156 L 8.785156 9.535156 L 8.367188 9.535156 L 8.054688 10.453125 L 7.738281 9.535156 Z M 9.617188 9.535156 L 9.617188 9.785156 L 9.929688 9.785156 L 9.929688 9.753906 L 10.601562 9.753906 L 10.601562 9.535156 Z M 11.722656 10.015625 C 11.691406 10.035156 11.675781 10.0625 11.675781 10.097656 L 11.675781 10.1875 C 11.675781 10.226562 11.695312 10.253906 11.730469 10.269531 C 11.75 10.273438 11.769531 10.273438 11.789062 10.273438 L 11.941406 10.273438 C 11.984375 10.273438 12.019531 10.28125 12.042969 10.289062 C 12.167969 10.296875 12.257812 10.324219 12.320312 10.371094 C 12.367188 10.410156 12.398438 10.464844 12.410156 10.535156 C 12.414062 10.511719 12.417969 10.484375 12.417969 10.453125 L 12.417969 10.371094 C 12.417969 10.257812 12.386719 10.175781 12.320312 10.121094 C 12.253906 10.066406 12.144531 10.039062 12 10.039062 L 11.84375 10.039062 C 11.789062 10.039062 11.75 10.03125 11.722656 10.015625 Z M 9.929688 10.050781 L 9.929688 10.269531 L 10.535156 10.269531 L 10.535156 10.050781 Z M 4.25 10.089844 L 4.25 10.292969 L 4.460938 10.292969 L 4.460938 10.339844 L 4.757812 10.339844 L 4.757812 10.089844 Z M 5.917969 10.277344 L 5.851562 10.484375 L 6.152344 10.484375 L 6.085938 10.277344 Z M 3.890625 10.449219 L 3.890625 10.699219 C 3.890625 10.753906 3.914062 10.792969 3.957031 10.820312 C 3.980469 10.824219 4.003906 10.828125 4.027344 10.832031 C 4.082031 10.839844 4.148438 10.839844 4.222656 10.84375 C 4.296875 10.84375 4.375 10.835938 4.460938 10.824219 L 4.460938 10.59375 C 4.386719 10.613281 4.320312 10.621094 4.253906 10.621094 C 4.132812 10.621094 4.039062 10.609375 3.980469 10.582031 C 3.921875 10.554688 3.890625 10.511719 3.890625 10.449219 Z M 12.078125 10.566406 C 12.039062 10.601562 11.960938 10.621094 11.851562 10.621094 C 11.769531 10.621094 11.613281 10.605469 11.390625 10.570312 L 11.390625 10.804688 C 11.570312 10.828125 11.722656 10.84375 11.847656 10.84375 C 11.933594 10.84375 12.003906 10.835938 12.066406 10.824219 C 12.09375 10.804688 12.109375 10.773438 12.109375 10.738281 L 12.109375 10.65625 C 12.109375 10.617188 12.097656 10.585938 12.078125 10.566406 Z M 9.929688 10.601562 L 9.929688 10.820312 L 10.621094 10.820312 L 10.621094 10.601562 Z M 5.625 12.625 L 6.019531 12.875 L 9.980469 12.875 L 10.375 12.625 Z M 5.625 12.625 "/>
<path style=" stroke:none;fill-rule:nonzero;fill:url(#linear0);" d="M 3 1 C 2.445312 1 2 1.445312 2 2 L 2 11.046875 C 2 11.328125 2.148438 11.589844 2.390625 11.734375 L 7.609375 14.890625 C 7.851562 15.035156 8.148438 15.035156 8.390625 14.890625 L 13.609375 11.734375 C 13.851562 11.589844 14 11.328125 14 11.046875 L 14 2 C 14 1.445312 13.554688 1 13 1 Z M 3 1 "/>
</g>
</svg>
