
<svg xmlns="http://www.w3.org/2000/svg" xmlns:xlink="http://www.w3.org/1999/xlink" width="16" height="16" viewBox="0 0 16 16" version="1.1">
<defs>
<linearGradient id="linear0" gradientUnits="userSpaceOnUse" x1="32" y1="59.999996" x2="32" y2="4" gradientTransform="matrix(0.25,0,0,0.25,0,0)">
<stop offset="0" style="stop-color:rgb(0%,0%,0%);stop-opacity:0.2;"/>
<stop offset="1" style="stop-color:rgb(100%,100%,100%);stop-opacity:0;"/>
</linearGradient>
</defs>
<g id="surface1">
<path style=" stroke:none;fill-rule:nonzero;fill:rgb(100%,65.490198%,14.901961%);fill-opacity:1;" d="M 7.996094 4.75 C 7.871094 4.75 7.765625 4.847656 7.75 4.972656 L 6.960938 12.28125 L 6.246094 7.464844 C 6.230469 7.34375 6.128906 7.253906 6.007812 7.25 C 5.882812 7.246094 5.777344 7.332031 5.753906 7.449219 L 5.292969 9.75 L 4.5 9.75 L 4.5 10.25 L 5.5 10.25 C 5.617188 10.25 5.722656 10.164062 5.746094 10.046875 L 5.960938 8.957031 L 6.753906 14.285156 C 6.769531 14.410156 6.878906 14.503906 7.003906 14.5 C 7.132812 14.5 7.238281 14.402344 7.25 14.277344 L 8.027344 7.085938 L 8.753906 12.53125 C 8.769531 12.652344 8.871094 12.742188 8.988281 12.746094 C 9.109375 12.753906 9.214844 12.671875 9.242188 12.554688 L 10.011719 9.089844 L 10.257812 10.0625 C 10.285156 10.171875 10.386719 10.25 10.5 10.25 L 11.5 10.25 L 11.5 9.75 L 10.695312 9.75 L 10.242188 7.9375 C 10.214844 7.824219 10.113281 7.746094 9.996094 7.75 C 9.878906 7.75 9.78125 7.832031 9.753906 7.945312 L 9.0625 11.070312 L 8.246094 4.964844 C 8.230469 4.839844 8.121094 4.75 7.996094 4.75 Z M 7.996094 4.75 "/>
<path style=" stroke:none;fill-rule:nonzero;fill:rgb(100%,65.490198%,14.901961%);fill-opacity:1;" d="M 7.992188 4.277344 C 7.628906 4.28125 7.320312 4.5625 7.28125 4.921875 L 6.886719 8.5625 L 6.714844 7.398438 C 6.664062 7.039062 6.324219 6.785156 6.019531 6.777344 C 5.710938 6.769531 5.359375 7.003906 5.289062 7.359375 L 4.90625 9.277344 L 4.5 9.277344 C 4.238281 9.277344 4.027344 9.488281 4.027344 9.75 L 4.027344 10.25 C 4.027344 10.511719 4.238281 10.722656 4.5 10.722656 L 5.5 10.722656 C 5.605469 10.722656 5.628906 10.585938 5.722656 10.542969 L 6.285156 14.351562 C 6.339844 14.71875 6.699219 14.980469 7.015625 14.972656 C 7.332031 14.96875 7.683594 14.695312 7.71875 14.324219 L 8.074219 11.03125 L 8.285156 12.59375 C 8.285156 12.597656 8.285156 12.597656 8.285156 12.597656 C 8.335938 12.953125 8.664062 13.207031 8.96875 13.21875 C 9.273438 13.234375 9.621094 13.011719 9.703125 12.664062 C 9.703125 12.660156 9.703125 12.660156 9.707031 12.65625 L 10.1875 10.480469 C 10.304688 10.554688 10.355469 10.722656 10.5 10.722656 L 11.5 10.722656 C 11.761719 10.722656 11.972656 10.511719 11.972656 10.25 L 11.972656 9.75 C 11.972656 9.488281 11.761719 9.277344 11.5 9.277344 L 11.0625 9.277344 L 10.699219 7.824219 C 10.617188 7.488281 10.285156 7.273438 9.988281 7.277344 C 9.691406 7.28125 9.367188 7.507812 9.292969 7.847656 L 9.175781 8.367188 L 8.714844 4.902344 C 8.667969 4.542969 8.351562 4.273438 7.992188 4.277344 Z M 7.992188 4.277344 "/>
<path style=" stroke:none;fill-rule:nonzero;fill:rgb(100%,100%,100%);fill-opacity:0.4;" d="M 7.992188 4.277344 C 7.628906 4.28125 7.320312 4.5625 7.28125 4.921875 L 6.886719 8.5625 L 6.714844 7.398438 C 6.664062 7.039062 6.324219 6.785156 6.019531 6.777344 C 5.710938 6.769531 5.359375 7.003906 5.289062 7.359375 L 4.90625 9.277344 L 4.5 9.277344 C 4.238281 9.277344 4.027344 9.488281 4.027344 9.75 L 4.027344 9.972656 C 4.027344 9.710938 4.238281 9.5 4.5 9.5 L 4.90625 9.5 L 5.289062 7.578125 C 5.359375 7.226562 5.710938 6.992188 6.019531 7 C 6.324219 7.007812 6.664062 7.261719 6.714844 7.617188 L 6.886719 8.78125 L 7.28125 5.144531 C 7.320312 4.785156 7.628906 4.503906 7.992188 4.5 C 8.351562 4.496094 8.667969 4.765625 8.714844 5.125 L 9.179688 8.585938 L 9.292969 8.070312 C 9.367188 7.730469 9.691406 7.503906 9.988281 7.5 C 10.285156 7.496094 10.617188 7.710938 10.699219 8.046875 L 11.0625 9.5 L 11.5 9.5 C 11.761719 9.5 11.972656 9.710938 11.972656 9.972656 L 11.972656 9.75 C 11.972656 9.488281 11.761719 9.277344 11.5 9.277344 L 11.0625 9.277344 L 10.699219 7.824219 C 10.617188 7.488281 10.285156 7.273438 9.988281 7.277344 C 9.691406 7.28125 9.367188 7.507812 9.292969 7.847656 L 9.179688 8.367188 L 8.714844 4.902344 C 8.667969 4.542969 8.351562 4.273438 7.992188 4.277344 Z M 7.992188 4.277344 "/>
<path style=" stroke:none;fill-rule:nonzero;fill:rgb(0%,0%,0%);fill-opacity:0.4;" d="M 4.027344 9.984375 L 4.027344 10.25 C 4.027344 10.511719 4.238281 10.722656 4.5 10.722656 L 5.5 10.722656 C 5.605469 10.722656 5.628906 10.585938 5.722656 10.542969 L 6.285156 14.351562 C 6.339844 14.71875 6.699219 14.980469 7.015625 14.972656 C 7.332031 14.96875 7.683594 14.695312 7.71875 14.324219 L 8.074219 11.03125 L 8.285156 12.59375 C 8.285156 12.597656 8.285156 12.597656 8.285156 12.597656 C 8.335938 12.953125 8.664062 13.207031 8.96875 13.21875 C 9.273438 13.234375 9.621094 13.011719 9.703125 12.664062 C 9.703125 12.660156 9.703125 12.660156 9.707031 12.65625 L 10.1875 10.476562 C 10.304688 10.554688 10.355469 10.722656 10.5 10.722656 L 11.5 10.722656 C 11.761719 10.722656 11.972656 10.511719 11.972656 10.25 L 11.972656 9.984375 C 11.972656 10.246094 11.761719 10.457031 11.5 10.457031 L 10.5 10.457031 C 10.355469 10.457031 10.304688 10.292969 10.1875 10.214844 L 9.707031 12.390625 C 9.703125 12.394531 9.703125 12.394531 9.703125 12.398438 C 9.621094 12.746094 9.273438 12.96875 8.96875 12.953125 C 8.664062 12.941406 8.335938 12.6875 8.285156 12.335938 C 8.285156 12.332031 8.285156 12.332031 8.285156 12.328125 L 8.074219 10.765625 L 7.71875 14.058594 C 7.683594 14.429688 7.332031 14.703125 7.015625 14.710938 C 6.699219 14.714844 6.339844 14.453125 6.285156 14.085938 L 5.722656 10.277344 C 5.628906 10.320312 5.605469 10.457031 5.5 10.457031 L 4.5 10.457031 C 4.238281 10.457031 4.027344 10.246094 4.027344 9.984375 Z M 4.027344 9.984375 "/>
<path style=" stroke:none;fill-rule:nonzero;fill:rgb(95.686275%,26.274511%,21.176471%);fill-opacity:1;" d="M 7.996094 4.75 C 7.871094 4.75 7.765625 4.847656 7.75 4.972656 L 6.960938 12.28125 L 6.246094 7.464844 C 6.230469 7.34375 6.128906 7.253906 6.007812 7.25 C 5.882812 7.246094 5.777344 7.332031 5.753906 7.449219 L 5.292969 9.75 L 4 9.75 L 4 10.25 L 5.5 10.25 C 5.617188 10.25 5.722656 10.164062 5.746094 10.046875 L 5.960938 8.957031 L 6.753906 14.285156 C 6.769531 14.410156 6.878906 14.503906 7.003906 14.5 C 7.132812 14.5 7.238281 14.402344 7.25 14.277344 L 8.027344 7.085938 L 8.753906 12.53125 C 8.769531 12.652344 8.871094 12.742188 8.988281 12.746094 C 9.109375 12.753906 9.214844 12.671875 9.242188 12.554688 L 10.011719 9.089844 L 10.257812 10.0625 C 10.285156 10.171875 10.386719 10.25 10.5 10.25 L 12 10.25 L 12 9.75 L 10.695312 9.75 L 10.242188 7.9375 C 10.214844 7.824219 10.113281 7.746094 9.996094 7.75 C 9.878906 7.75 9.78125 7.832031 9.753906 7.945312 L 9.0625 11.070312 L 8.246094 4.964844 C 8.230469 4.839844 8.121094 4.75 7.996094 4.75 Z M 7.996094 4.75 "/>
<path style=" stroke:none;fill-rule:nonzero;fill:rgb(100%,100%,100%);fill-opacity:0.4;" d="M 7.996094 4.75 C 7.871094 4.75 7.765625 4.847656 7.75 4.972656 L 6.960938 12.28125 L 6.246094 7.460938 C 6.230469 7.34375 6.128906 7.253906 6.007812 7.25 C 5.882812 7.246094 5.777344 7.332031 5.753906 7.449219 L 5.292969 9.75 L 4 9.75 L 4 9.871094 L 5.292969 9.871094 L 5.753906 7.574219 C 5.777344 7.453125 5.882812 7.367188 6.007812 7.371094 C 6.128906 7.375 6.230469 7.464844 6.246094 7.585938 L 6.960938 12.40625 L 7.75 5.097656 C 7.765625 4.96875 7.871094 4.875 7.996094 4.875 C 8.121094 4.871094 8.230469 4.964844 8.246094 5.089844 L 9.0625 11.195312 L 9.753906 8.070312 C 9.78125 7.957031 9.878906 7.875 9.996094 7.875 C 10.113281 7.871094 10.214844 7.949219 10.242188 8.0625 L 10.695312 9.875 L 12 9.875 L 12 9.75 L 10.695312 9.75 L 10.242188 7.9375 C 10.214844 7.828125 10.113281 7.746094 9.996094 7.75 C 9.878906 7.75 9.78125 7.832031 9.753906 7.945312 L 9.0625 11.070312 L 8.246094 4.964844 C 8.230469 4.839844 8.121094 4.75 7.996094 4.75 Z M 7.996094 4.75 "/>
<path style=" stroke:none;fill-rule:nonzero;fill:rgb(38.039216%,38.039216%,38.039216%);fill-opacity:1;" d="M 14.628906 8.949219 L 13.664062 8.6875 C 13.398438 8.617188 13.125 8.777344 13.050781 9.042969 L 12.40625 11.457031 C 12.332031 11.722656 12.492188 12 12.757812 12.070312 L 13.722656 12.328125 C 13.992188 12.398438 14.265625 12.242188 14.335938 11.976562 L 14.984375 9.558594 C 15.054688 9.292969 14.898438 9.019531 14.628906 8.949219 Z M 14.628906 8.949219 "/>
<path style=" stroke:none;fill-rule:nonzero;fill:rgb(38.039216%,38.039216%,38.039216%);fill-opacity:1;" d="M 8 1.5 C 4.675781 1.5 2 4.175781 2 7.5 C 2 7.667969 2.007812 7.835938 2.023438 8 L 3.023438 8 C 3.007812 7.835938 3 7.667969 3 7.5 C 3 4.730469 5.230469 2.5 8 2.5 C 10.769531 2.5 13 4.730469 13 7.5 C 13 7.667969 12.992188 7.835938 12.976562 8 L 13.976562 8 C 13.992188 7.835938 14 7.667969 14 7.5 C 14 4.175781 11.324219 1.5 8 1.5 Z M 8 1.5 "/>
<path style=" stroke:none;fill-rule:nonzero;fill:rgb(38.039216%,38.039216%,38.039216%);fill-opacity:1;" d="M 1.371094 8.949219 L 2.335938 8.6875 C 2.601562 8.617188 2.878906 8.777344 2.949219 9.042969 L 3.597656 11.457031 C 3.667969 11.722656 3.507812 12 3.242188 12.070312 L 2.277344 12.328125 C 2.011719 12.398438 1.734375 12.242188 1.664062 11.976562 L 1.015625 9.558594 C 0.945312 9.292969 1.105469 9.019531 1.371094 8.949219 Z M 1.371094 8.949219 "/>
<path style=" stroke:none;fill-rule:nonzero;fill:rgb(0%,0%,0%);fill-opacity:0.4;" d="M 8 2.226562 C 5.230469 2.226562 3 4.457031 3 7.226562 C 3 7.28125 3 7.332031 3.003906 7.386719 C 3.0625 4.667969 5.269531 2.5 8 2.5 C 10.730469 2.5 12.9375 4.667969 12.996094 7.386719 C 13 7.332031 13 7.28125 13 7.226562 C 13 4.457031 10.769531 2.226562 8 2.226562 Z M 2.003906 7.390625 C 2.003906 7.425781 2 7.464844 2 7.5 C 2 7.667969 2.007812 7.835938 2.023438 8 L 3.023438 8 C 3.015625 7.910156 3.011719 7.816406 3.007812 7.726562 L 2.023438 7.726562 C 2.011719 7.613281 2.007812 7.503906 2.003906 7.390625 Z M 13.996094 7.390625 C 13.992188 7.503906 13.988281 7.613281 13.976562 7.726562 L 12.992188 7.726562 C 12.988281 7.816406 12.984375 7.910156 12.976562 8 L 13.976562 8 C 13.992188 7.835938 14 7.667969 14 7.5 C 14 7.464844 13.996094 7.425781 13.996094 7.390625 Z M 1.019531 9.296875 C 0.996094 9.378906 0.992188 9.46875 1.015625 9.558594 L 1.664062 11.976562 C 1.734375 12.242188 2.007812 12.398438 2.277344 12.328125 L 3.242188 12.070312 C 3.511719 12 3.667969 11.726562 3.597656 11.457031 L 3.59375 11.449219 C 3.546875 11.613281 3.417969 11.75 3.242188 11.796875 L 2.277344 12.054688 C 2.007812 12.125 1.734375 11.96875 1.664062 11.703125 Z M 14.980469 9.296875 L 14.335938 11.703125 C 14.265625 11.96875 13.992188 12.125 13.726562 12.054688 L 12.757812 11.796875 C 12.582031 11.75 12.453125 11.613281 12.40625 11.449219 L 12.40625 11.457031 C 12.332031 11.726562 12.492188 12 12.757812 12.070312 L 13.726562 12.328125 C 13.992188 12.398438 14.265625 12.242188 14.335938 11.976562 L 14.984375 9.558594 C 15.007812 9.46875 15.003906 9.378906 14.980469 9.296875 Z M 14.980469 9.296875 "/>
<path style=" stroke:none;fill-rule:nonzero;fill:rgb(100%,100%,100%);fill-opacity:0.4;" d="M 8 1.5 C 4.675781 1.5 2 4.175781 2 7.5 C 2 7.53125 2 7.558594 2 7.589844 C 2.085938 4.339844 4.730469 1.75 8 1.75 C 11.269531 1.75 13.914062 4.339844 14 7.589844 C 14 7.558594 14 7.53125 14 7.5 C 14 4.175781 11.324219 1.5 8 1.5 Z M 3.003906 7.59375 C 3 7.648438 3 7.699219 3 7.75 C 3 7.832031 3.003906 7.917969 3.007812 8 L 3.023438 8 C 3.011719 7.867188 3.003906 7.730469 3.003906 7.59375 Z M 12.996094 7.59375 C 12.996094 7.730469 12.988281 7.867188 12.976562 8 L 12.992188 8 C 12.996094 7.917969 13 7.832031 13 7.75 C 13 7.699219 13 7.648438 12.996094 7.59375 Z M 2.460938 8.671875 C 2.421875 8.671875 2.378906 8.679688 2.335938 8.6875 L 1.371094 8.949219 C 1.105469 9.019531 0.949219 9.289062 1.015625 9.554688 C 1.058594 9.386719 1.191406 9.246094 1.371094 9.199219 L 2.335938 8.9375 C 2.378906 8.925781 2.421875 8.921875 2.460938 8.921875 C 2.683594 8.917969 2.886719 9.066406 2.949219 9.292969 L 3.597656 11.707031 C 3.617188 11.628906 3.617188 11.542969 3.597656 11.457031 L 2.949219 9.042969 C 2.886719 8.816406 2.683594 8.667969 2.460938 8.671875 Z M 13.515625 8.671875 C 13.300781 8.679688 13.109375 8.824219 13.050781 9.042969 L 12.40625 11.457031 C 12.382812 11.542969 12.382812 11.628906 12.40625 11.707031 L 13.050781 9.292969 C 13.109375 9.074219 13.300781 8.929688 13.515625 8.921875 C 13.5625 8.921875 13.613281 8.925781 13.664062 8.9375 L 14.628906 9.199219 C 14.8125 9.246094 14.941406 9.386719 14.984375 9.554688 C 15.050781 9.289062 14.894531 9.019531 14.628906 8.949219 L 13.664062 8.6875 C 13.613281 8.675781 13.5625 8.671875 13.515625 8.671875 Z M 13.515625 8.671875 "/>
<path style=" stroke:none;fill-rule:nonzero;fill:rgb(0%,0%,0%);fill-opacity:0.4;" d="M 8.027344 6.960938 L 7.25 14.15625 C 7.238281 14.28125 7.132812 14.378906 7.003906 14.378906 C 6.878906 14.382812 6.769531 14.289062 6.753906 14.164062 L 5.960938 8.835938 L 5.746094 9.925781 C 5.722656 10.042969 5.617188 10.128906 5.5 10.128906 L 4 10.128906 L 4 10.25 L 5.5 10.25 C 5.617188 10.25 5.722656 10.164062 5.746094 10.046875 L 5.960938 8.957031 L 6.753906 14.285156 C 6.769531 14.410156 6.878906 14.503906 7.003906 14.503906 C 7.132812 14.5 7.238281 14.402344 7.25 14.277344 L 8.027344 7.085938 L 8.753906 12.53125 C 8.769531 12.652344 8.867188 12.742188 8.988281 12.746094 C 9.109375 12.753906 9.21875 12.671875 9.242188 12.554688 L 10.015625 9.089844 L 10.257812 10.0625 C 10.285156 10.171875 10.386719 10.25 10.5 10.25 L 12 10.25 L 12 10.128906 L 10.5 10.128906 C 10.386719 10.128906 10.285156 10.050781 10.257812 9.9375 L 10.015625 8.96875 L 9.242188 12.433594 C 9.21875 12.550781 9.109375 12.632812 8.988281 12.625 C 8.867188 12.621094 8.769531 12.53125 8.753906 12.410156 Z M 8.027344 6.960938 "/>
<path style=" stroke:none;fill-rule:nonzero;fill:rgb(36.078432%,41.960785%,75.294119%);fill-opacity:0.996078;" d="M 2.191406 7.175781 L 2.671875 7.046875 C 3.207031 6.902344 3.753906 7.21875 3.898438 7.753906 L 5.0625 12.101562 C 5.207031 12.632812 4.886719 13.179688 4.355469 13.324219 L 3.871094 13.453125 C 3.339844 13.597656 2.789062 13.28125 2.648438 12.746094 L 1.484375 8.398438 C 1.339844 7.867188 1.65625 7.320312 2.191406 7.175781 Z M 2.191406 7.175781 "/>
<path style=" stroke:none;fill-rule:nonzero;fill:rgb(36.078432%,41.960785%,75.294119%);fill-opacity:0.996078;" d="M 13.8125 7.175781 L 13.328125 7.046875 C 12.792969 6.902344 12.246094 7.21875 12.101562 7.753906 L 10.9375 12.101562 C 10.796875 12.632812 11.113281 13.179688 11.644531 13.324219 L 12.128906 13.453125 C 12.664062 13.597656 13.210938 13.28125 13.355469 12.746094 L 14.519531 8.398438 C 14.660156 7.867188 14.34375 7.320312 13.8125 7.175781 Z M 13.8125 7.175781 "/>
<path style=" stroke:none;fill-rule:nonzero;fill:rgb(36.078432%,41.960785%,75.294119%);fill-opacity:1;" d="M 4.300781 4.203125 L 3.699219 3.296875 C 3.589844 3.132812 3.609375 2.882812 3.753906 2.75 C 6.175781 0.457031 9.824219 0.457031 12.246094 2.75 C 12.390625 2.882812 12.410156 3.132812 12.300781 3.296875 L 11.699219 4.203125 C 11.589844 4.367188 11.40625 4.371094 11.269531 4.226562 C 9.707031 2.589844 6.292969 2.589844 4.730469 4.226562 C 4.59375 4.371094 4.410156 4.367188 4.300781 4.203125 Z M 4.300781 4.203125 "/>
<path style=" stroke:none;fill-rule:nonzero;fill:rgb(100%,100%,100%);fill-opacity:0.4;" d="M 2.921875 7.011719 C 2.839844 7.011719 2.757812 7.023438 2.671875 7.046875 L 2.191406 7.175781 C 1.695312 7.308594 1.386719 7.785156 1.457031 8.28125 C 1.511719 7.894531 1.789062 7.5625 2.191406 7.457031 L 2.671875 7.328125 C 3.207031 7.183594 3.753906 7.5 3.898438 8.035156 L 5.0625 12.382812 C 5.074219 12.421875 5.082031 12.460938 5.085938 12.5 C 5.105469 12.371094 5.097656 12.234375 5.0625 12.101562 L 3.898438 7.753906 C 3.777344 7.300781 3.367188 7.007812 2.921875 7.011719 Z M 2.921875 7.011719 "/>
<path style=" stroke:none;fill-rule:nonzero;fill:rgb(100%,100%,100%);fill-opacity:0.4;" d="M 13.078125 7.011719 C 12.632812 7.007812 12.222656 7.300781 12.101562 7.753906 L 10.9375 12.101562 C 10.902344 12.234375 10.894531 12.371094 10.914062 12.5 C 10.921875 12.460938 10.929688 12.421875 10.9375 12.382812 L 12.101562 8.035156 C 12.246094 7.5 12.792969 7.183594 13.328125 7.328125 L 13.8125 7.457031 C 14.210938 7.5625 14.488281 7.894531 14.542969 8.28125 C 14.613281 7.785156 14.304688 7.308594 13.8125 7.175781 L 13.328125 7.046875 C 13.246094 7.023438 13.160156 7.011719 13.078125 7.011719 Z M 13.078125 7.011719 "/>
<path style=" stroke:none;fill-rule:nonzero;fill:rgb(100%,100%,100%);fill-opacity:0.4;" d="M 8 1.03125 C 6.480469 1.03125 4.964844 1.605469 3.753906 2.75 C 3.636719 2.859375 3.601562 3.042969 3.648438 3.199219 C 3.671875 3.132812 3.703125 3.074219 3.753906 3.03125 C 6.175781 0.742188 9.824219 0.742188 12.246094 3.03125 C 12.296875 3.074219 12.328125 3.132812 12.351562 3.199219 C 12.398438 3.042969 12.363281 2.859375 12.246094 2.75 C 11.035156 1.605469 9.519531 1.03125 8 1.03125 Z M 8 1.03125 "/>
<path style=" stroke:none;fill-rule:nonzero;fill:rgb(0%,0%,0%);fill-opacity:0.4;" d="M 1.457031 8.007812 C 1.441406 8.136719 1.449219 8.269531 1.484375 8.398438 L 2.648438 12.746094 C 2.789062 13.28125 3.335938 13.597656 3.871094 13.453125 L 4.355469 13.324219 C 4.847656 13.191406 5.152344 12.722656 5.085938 12.230469 C 5.035156 12.621094 4.757812 12.957031 4.355469 13.066406 L 3.871094 13.195312 C 3.335938 13.335938 2.789062 13.023438 2.648438 12.488281 L 1.484375 8.140625 C 1.472656 8.097656 1.460938 8.054688 1.457031 8.007812 Z M 1.457031 8.007812 "/>
<path style=" stroke:none;fill-rule:nonzero;fill:rgb(0%,0%,0%);fill-opacity:0.4;" d="M 14.542969 8.007812 C 14.539062 8.054688 14.53125 8.097656 14.519531 8.140625 L 13.351562 12.488281 C 13.210938 13.023438 12.664062 13.335938 12.128906 13.195312 L 11.644531 13.066406 C 11.242188 12.957031 10.964844 12.621094 10.914062 12.230469 C 10.847656 12.722656 11.15625 13.191406 11.644531 13.324219 L 12.128906 13.453125 C 12.664062 13.597656 13.210938 13.28125 13.351562 12.746094 L 14.519531 8.398438 C 14.554688 8.269531 14.5625 8.136719 14.542969 8.007812 Z M 14.542969 8.007812 "/>
<path style=" stroke:none;fill-rule:nonzero;fill:rgb(0%,0%,0%);fill-opacity:0.4;" d="M 8 2.761719 C 6.753906 2.761719 5.511719 3.171875 4.730469 3.992188 C 4.59375 4.132812 4.410156 4.128906 4.300781 3.964844 L 3.699219 3.058594 C 3.671875 3.019531 3.65625 2.980469 3.644531 2.9375 C 3.613281 3.058594 3.628906 3.195312 3.699219 3.296875 L 4.300781 4.203125 C 4.410156 4.367188 4.59375 4.371094 4.730469 4.226562 C 6.292969 2.589844 9.707031 2.589844 11.269531 4.226562 C 11.40625 4.371094 11.589844 4.367188 11.699219 4.203125 L 12.300781 3.296875 C 12.371094 3.195312 12.386719 3.058594 12.355469 2.9375 C 12.34375 2.980469 12.328125 3.019531 12.300781 3.058594 L 11.699219 3.964844 C 11.589844 4.128906 11.40625 4.132812 11.269531 3.992188 C 10.488281 3.171875 9.246094 2.761719 8 2.761719 Z M 8 2.761719 "/>
<path style=" stroke:none;fill-rule:nonzero;fill:url(#linear0);" d="M 8 1.03125 C 6.480469 1.03125 4.964844 1.605469 3.753906 2.75 C 3.609375 2.882812 3.589844 3.132812 3.699219 3.296875 L 3.703125 3.304688 C 2.703125 4.328125 2.070312 5.710938 2.007812 7.242188 C 1.585938 7.449219 1.355469 7.929688 1.484375 8.398438 L 1.613281 8.882812 L 1.371094 8.949219 C 1.101562 9.019531 0.945312 9.292969 1.015625 9.558594 L 1.664062 11.976562 C 1.734375 12.242188 2.007812 12.398438 2.277344 12.328125 L 2.519531 12.265625 L 2.648438 12.746094 C 2.789062 13.28125 3.335938 13.597656 3.871094 13.453125 L 4.355469 13.324219 C 4.890625 13.179688 5.207031 12.632812 5.0625 12.101562 L 4.691406 10.722656 L 5.5 10.722656 C 5.605469 10.722656 5.628906 10.585938 5.722656 10.542969 L 6.285156 14.351562 C 6.339844 14.71875 6.699219 14.980469 7.015625 14.972656 C 7.332031 14.96875 7.683594 14.695312 7.71875 14.324219 L 8.074219 11.03125 L 8.285156 12.59375 C 8.285156 12.597656 8.285156 12.597656 8.285156 12.597656 C 8.335938 12.953125 8.664062 13.207031 8.96875 13.21875 C 9.273438 13.234375 9.621094 13.011719 9.703125 12.664062 C 9.703125 12.660156 9.703125 12.660156 9.707031 12.65625 L 10.1875 10.476562 C 10.304688 10.554688 10.355469 10.722656 10.5 10.722656 L 11.308594 10.722656 L 10.9375 12.101562 C 10.796875 12.632812 11.109375 13.179688 11.644531 13.324219 L 12.128906 13.453125 C 12.664062 13.597656 13.210938 13.28125 13.351562 12.746094 L 13.484375 12.265625 L 13.726562 12.328125 C 13.992188 12.398438 14.265625 12.242188 14.335938 11.976562 L 14.984375 9.558594 C 15.054688 9.292969 14.898438 9.019531 14.628906 8.949219 L 14.390625 8.882812 L 14.519531 8.398438 C 14.644531 7.929688 14.414062 7.449219 13.992188 7.242188 C 13.929688 5.710938 13.296875 4.328125 12.296875 3.304688 L 12.300781 3.296875 C 12.410156 3.132812 12.390625 2.882812 12.246094 2.75 C 11.035156 1.605469 9.519531 1.03125 8 1.03125 Z M 8 3 C 9.246094 3 10.488281 3.410156 11.269531 4.226562 C 11.40625 4.371094 11.589844 4.367188 11.699219 4.203125 L 11.726562 4.160156 C 12.417969 4.933594 12.871094 5.921875 12.976562 7.015625 C 12.570312 7.054688 12.214844 7.335938 12.101562 7.753906 L 11.683594 9.316406 C 11.625 9.292969 11.5625 9.277344 11.5 9.277344 L 11.0625 9.277344 L 10.699219 7.824219 C 10.617188 7.488281 10.285156 7.273438 9.988281 7.277344 C 9.691406 7.28125 9.367188 7.507812 9.292969 7.847656 L 9.179688 8.367188 L 8.714844 4.902344 C 8.667969 4.542969 8.351562 4.273438 7.992188 4.277344 C 7.628906 4.28125 7.320312 4.5625 7.28125 4.921875 L 6.886719 8.5625 L 6.714844 7.398438 C 6.664062 7.039062 6.324219 6.785156 6.019531 6.777344 C 5.710938 6.769531 5.359375 7.003906 5.289062 7.359375 L 4.90625 9.277344 L 4.5 9.277344 C 4.4375 9.277344 4.375 9.292969 4.316406 9.316406 L 3.898438 7.753906 C 3.785156 7.335938 3.429688 7.050781 3.023438 7.015625 C 3.128906 5.921875 3.582031 4.933594 4.273438 4.160156 L 4.300781 4.203125 C 4.410156 4.367188 4.59375 4.371094 4.730469 4.226562 C 5.511719 3.410156 6.753906 3 8 3 Z M 8 3 "/>
</g>
</svg>
