
<svg xmlns="http://www.w3.org/2000/svg" xmlns:xlink="http://www.w3.org/1999/xlink" width="16" height="16" viewBox="0 0 16 16" version="1.1">
<defs>
<linearGradient id="linear0" gradientUnits="userSpaceOnUse" x1="8.466666" y1="-199.125" x2="8.466666" y2="-213.941666" gradientTransform="matrix(0.944882,0,0,0.944882,0,203.149617)">
<stop offset="0" style="stop-color:rgb(0%,0%,0%);stop-opacity:0.2;"/>
<stop offset="1" style="stop-color:rgb(100%,100%,100%);stop-opacity:0;"/>
</linearGradient>
</defs>
<g id="surface1">
<path style=" stroke:none;fill-rule:nonzero;fill:rgb(61.960787%,61.960787%,61.960787%);fill-opacity:1;" d="M 2 1 L 14 1 C 14.550781 1 15 1.449219 15 2 L 15 14 C 15 14.550781 14.550781 15 14 15 L 2 15 C 1.449219 15 1 14.550781 1 14 L 1 2 C 1 1.449219 1.449219 1 2 1 Z M 2 1 "/>
<path style=" stroke:none;fill-rule:nonzero;fill:rgb(0%,0%,0%);fill-opacity:0.4;" d="M 1 13.75 L 1 14 C 1 14.554688 1.445312 15 2 15 L 14 15 C 14.554688 15 15 14.554688 15 14 L 15 13.75 C 15 14.304688 14.554688 14.75 14 14.75 L 2 14.75 C 1.445312 14.75 1 14.304688 1 13.75 Z M 1 13.75 "/>
<path style=" stroke:none;fill-rule:nonzero;fill:rgb(0%,0%,0%);fill-opacity:0.2;" d="M 1 14 L 1 14.375 C 1 14.929688 1.445312 15.375 2 15.375 L 14 15.375 C 14.554688 15.375 15 14.929688 15 14.375 L 15 14 C 15 14.554688 14.554688 15 14 15 L 2 15 C 1.445312 15 1 14.554688 1 14 Z M 1 14 "/>
<path style=" stroke:none;fill-rule:nonzero;fill:rgb(100%,100%,100%);fill-opacity:0.4;" d="M 2 1 C 1.445312 1 1 1.445312 1 2 L 1 2.246094 C 1 1.691406 1.445312 1.246094 2 1.246094 L 14 1.246094 C 14.554688 1.246094 15 1.691406 15 2.246094 L 15 2 C 15 1.445312 14.554688 1 14 1 Z M 2 1 "/>
<path style=" stroke:none;fill-rule:nonzero;fill:rgb(45.882353%,45.882353%,45.882353%);fill-opacity:1;" d="M 2.5 3.5 L 13.5 3.5 C 13.777344 3.5 14 3.722656 14 4 L 14 13.5 C 14 13.777344 13.777344 14 13.5 14 L 2.5 14 C 2.222656 14 2 13.777344 2 13.5 L 2 4 C 2 3.722656 2.222656 3.5 2.5 3.5 Z M 2.5 3.5 "/>
<path style=" stroke:none;fill-rule:nonzero;fill:rgb(100%,100%,100%);fill-opacity:0.4;" d="M 2 13.496094 L 2 13.75 C 2 14.027344 2.222656 14.25 2.5 14.25 L 13.5 14.25 C 13.777344 14.25 14 14.027344 14 13.75 L 14 13.496094 C 14 13.773438 13.777344 13.996094 13.5 13.996094 L 2.5 13.996094 C 2.222656 13.996094 2 13.773438 2 13.496094 Z M 2 13.496094 "/>
<path style=" stroke:none;fill-rule:nonzero;fill:rgb(0%,0%,0%);fill-opacity:0.4;" d="M 2 4.25 L 2 3.996094 C 2 3.71875 2.222656 3.496094 2.5 3.496094 L 13.5 3.496094 C 13.777344 3.496094 14 3.71875 14 3.996094 L 14 4.25 C 14 3.972656 13.777344 3.75 13.5 3.75 L 2.5 3.75 C 2.222656 3.75 2 3.972656 2 4.25 Z M 2 4.25 "/>
<path style=" stroke:none;fill-rule:nonzero;fill:rgb(0%,0%,0%);fill-opacity:0.4;" d="M 5.507812 6.5625 C 5.507812 6.5625 5.507812 6.566406 5.507812 6.566406 C 5.503906 6.578125 5.5 6.589844 5.5 6.601562 L 5.5 6.644531 C 5.5 6.65625 5.503906 6.671875 5.507812 6.6875 C 5.507812 6.6875 5.507812 6.691406 5.507812 6.691406 C 5.503906 6.703125 5.5 6.714844 5.5 6.730469 L 5.5 6.769531 C 5.5 7.035156 6.613281 7.246094 8 7.246094 C 9.386719 7.246094 10.5 7.035156 10.5 6.769531 L 10.5 6.730469 C 10.5 6.714844 10.496094 6.703125 10.492188 6.691406 C 10.492188 6.691406 10.492188 6.6875 10.492188 6.6875 C 10.496094 6.671875 10.5 6.65625 10.5 6.644531 L 10.5 6.601562 C 10.5 6.589844 10.496094 6.578125 10.492188 6.566406 C 10.492188 6.566406 10.492188 6.5625 10.492188 6.5625 C 10.378906 6.804688 9.308594 6.996094 8 6.996094 C 6.691406 6.996094 5.621094 6.804688 5.507812 6.5625 Z M 5.527344 6.714844 C 5.542969 6.730469 5.558594 6.746094 5.578125 6.761719 C 5.558594 6.746094 5.542969 6.730469 5.527344 6.714844 Z M 10.472656 6.714844 C 10.464844 6.722656 10.457031 6.730469 10.449219 6.738281 C 10.457031 6.730469 10.464844 6.722656 10.472656 6.714844 Z M 5.582031 6.765625 C 5.589844 6.769531 5.597656 6.777344 5.609375 6.785156 C 5.597656 6.777344 5.589844 6.769531 5.582031 6.765625 Z M 10.414062 6.769531 C 10.40625 6.773438 10.402344 6.777344 10.394531 6.78125 C 10.402344 6.777344 10.40625 6.773438 10.414062 6.769531 Z M 5.613281 6.789062 C 5.625 6.792969 5.636719 6.800781 5.652344 6.808594 C 5.664062 6.816406 5.679688 6.824219 5.695312 6.828125 C 5.710938 6.835938 5.726562 6.84375 5.742188 6.851562 C 5.726562 6.84375 5.710938 6.835938 5.695312 6.828125 C 5.679688 6.824219 5.664062 6.816406 5.652344 6.808594 C 5.636719 6.800781 5.625 6.792969 5.613281 6.789062 Z M 10.382812 6.789062 C 10.371094 6.796875 10.359375 6.800781 10.347656 6.808594 C 10.335938 6.816406 10.320312 6.824219 10.304688 6.828125 C 10.292969 6.835938 10.28125 6.839844 10.265625 6.84375 C 10.28125 6.839844 10.292969 6.835938 10.304688 6.828125 C 10.320312 6.824219 10.335938 6.816406 10.347656 6.808594 C 10.359375 6.800781 10.371094 6.796875 10.382812 6.789062 Z M 5.746094 6.851562 C 5.765625 6.859375 5.78125 6.863281 5.800781 6.871094 C 5.820312 6.878906 5.839844 6.886719 5.859375 6.890625 C 5.878906 6.898438 5.894531 6.902344 5.914062 6.90625 C 5.894531 6.902344 5.878906 6.898438 5.859375 6.890625 C 5.839844 6.886719 5.820312 6.878906 5.800781 6.871094 C 5.78125 6.863281 5.765625 6.859375 5.746094 6.851562 Z M 10.246094 6.851562 C 10.230469 6.859375 10.214844 6.867188 10.199219 6.871094 C 10.179688 6.878906 10.160156 6.886719 10.140625 6.890625 C 10.121094 6.898438 10.105469 6.902344 10.085938 6.90625 C 10.105469 6.902344 10.121094 6.898438 10.140625 6.890625 C 10.160156 6.886719 10.179688 6.878906 10.199219 6.871094 C 10.214844 6.867188 10.230469 6.859375 10.246094 6.851562 Z M 5.933594 6.914062 C 5.976562 6.925781 6.023438 6.9375 6.070312 6.949219 C 6.023438 6.9375 5.976562 6.925781 5.933594 6.914062 Z M 10.066406 6.914062 C 10.023438 6.925781 9.976562 6.9375 9.929688 6.949219 C 9.976562 6.9375 10.023438 6.925781 10.066406 6.914062 Z M 6.605469 7.039062 C 6.636719 7.042969 6.667969 7.046875 6.703125 7.050781 C 6.734375 7.054688 6.769531 7.058594 6.804688 7.0625 C 6.878906 7.070312 6.949219 7.078125 7.023438 7.085938 C 6.949219 7.078125 6.878906 7.070312 6.804688 7.0625 C 6.769531 7.058594 6.734375 7.054688 6.703125 7.050781 C 6.667969 7.046875 6.636719 7.042969 6.605469 7.039062 Z M 9.382812 7.042969 C 9.355469 7.046875 9.328125 7.050781 9.296875 7.050781 C 9.265625 7.054688 9.230469 7.058594 9.195312 7.0625 C 9.121094 7.070312 9.050781 7.078125 8.976562 7.085938 C 9.050781 7.078125 9.121094 7.070312 9.195312 7.0625 C 9.230469 7.058594 9.265625 7.054688 9.296875 7.050781 C 9.328125 7.050781 9.355469 7.046875 9.382812 7.042969 Z M 7.253906 7.101562 C 7.289062 7.101562 7.328125 7.105469 7.363281 7.105469 C 7.328125 7.105469 7.289062 7.101562 7.253906 7.101562 Z M 8.746094 7.101562 C 8.710938 7.101562 8.675781 7.105469 8.640625 7.105469 C 8.675781 7.105469 8.710938 7.101562 8.746094 7.101562 Z M 7.523438 7.113281 C 7.582031 7.113281 7.640625 7.117188 7.703125 7.117188 C 7.640625 7.117188 7.582031 7.113281 7.523438 7.113281 Z M 8.476562 7.113281 C 8.417969 7.113281 8.359375 7.117188 8.296875 7.117188 C 8.359375 7.117188 8.417969 7.113281 8.476562 7.113281 Z M 7.789062 7.121094 C 7.859375 7.121094 7.929688 7.121094 8 7.121094 C 8.070312 7.121094 8.140625 7.121094 8.210938 7.121094 C 8.140625 7.121094 8.070312 7.121094 8 7.121094 C 7.929688 7.121094 7.859375 7.121094 7.789062 7.121094 Z M 5.503906 7.546875 C 5.5 7.558594 5.5 7.566406 5.5 7.578125 L 5.5 7.621094 C 5.5 7.886719 6.613281 8.097656 8 8.097656 C 9.386719 8.097656 10.5 7.886719 10.5 7.621094 L 10.5 7.578125 C 10.5 7.566406 10.5 7.558594 10.496094 7.546875 C 10.417969 7.796875 9.332031 7.996094 8 7.996094 C 6.667969 7.996094 5.582031 7.796875 5.503906 7.546875 Z M 5.503906 7.671875 C 5.5 7.683594 5.5 7.691406 5.5 7.703125 L 5.5 7.746094 C 5.5 8.011719 6.613281 8.226562 8 8.226562 C 9.386719 8.226562 10.5 8.011719 10.5 7.746094 L 10.5 7.703125 C 10.5 7.691406 10.5 7.683594 10.496094 7.671875 C 10.417969 7.925781 9.332031 8.121094 8 8.121094 C 6.667969 8.121094 5.582031 7.925781 5.503906 7.671875 Z M 5.507812 8.535156 C 5.503906 8.550781 5.5 8.5625 5.5 8.578125 L 5.5 8.621094 C 5.5 8.632812 5.503906 8.648438 5.507812 8.660156 C 5.503906 8.675781 5.5 8.6875 5.5 8.703125 L 5.5 8.746094 C 5.5 9.011719 6.613281 9.226562 8 9.226562 C 9.386719 9.226562 10.5 9.011719 10.5 8.746094 L 10.5 8.703125 C 10.5 8.6875 10.496094 8.675781 10.492188 8.660156 C 10.496094 8.648438 10.5 8.632812 10.5 8.621094 L 10.5 8.578125 C 10.5 8.5625 10.496094 8.550781 10.492188 8.535156 C 10.386719 8.78125 9.3125 8.972656 8 8.972656 C 6.6875 8.972656 5.613281 8.78125 5.507812 8.535156 Z M 5.523438 8.683594 C 5.527344 8.691406 5.53125 8.699219 5.539062 8.703125 C 5.53125 8.699219 5.527344 8.691406 5.523438 8.683594 Z M 10.476562 8.683594 C 10.472656 8.691406 10.46875 8.699219 10.460938 8.703125 C 10.46875 8.699219 10.472656 8.691406 10.476562 8.683594 Z M 5.550781 8.71875 C 5.554688 8.722656 5.558594 8.726562 5.5625 8.726562 C 5.558594 8.726562 5.554688 8.722656 5.550781 8.71875 Z M 10.449219 8.71875 C 10.445312 8.722656 10.441406 8.726562 10.4375 8.726562 C 10.441406 8.726562 10.445312 8.722656 10.449219 8.71875 Z M 5.582031 8.742188 C 5.589844 8.746094 5.597656 8.753906 5.605469 8.757812 C 5.597656 8.753906 5.589844 8.746094 5.582031 8.742188 Z M 10.417969 8.742188 C 10.410156 8.746094 10.402344 8.753906 10.394531 8.757812 C 10.402344 8.753906 10.410156 8.746094 10.417969 8.742188 Z M 5.617188 8.765625 C 5.628906 8.773438 5.640625 8.78125 5.652344 8.785156 C 5.664062 8.792969 5.679688 8.800781 5.695312 8.808594 C 5.679688 8.800781 5.664062 8.792969 5.652344 8.785156 C 5.640625 8.78125 5.628906 8.773438 5.617188 8.765625 Z M 10.382812 8.765625 C 10.371094 8.773438 10.359375 8.78125 10.347656 8.785156 C 10.335938 8.792969 10.320312 8.800781 10.304688 8.808594 C 10.320312 8.800781 10.335938 8.792969 10.347656 8.785156 C 10.359375 8.78125 10.371094 8.773438 10.382812 8.765625 Z M 5.695312 8.808594 C 5.710938 8.816406 5.726562 8.820312 5.746094 8.828125 C 5.761719 8.835938 5.78125 8.84375 5.800781 8.847656 C 5.78125 8.84375 5.761719 8.835938 5.746094 8.828125 C 5.726562 8.820312 5.710938 8.816406 5.695312 8.808594 Z M 10.304688 8.808594 C 10.289062 8.816406 10.273438 8.820312 10.253906 8.828125 C 10.238281 8.835938 10.21875 8.84375 10.199219 8.847656 C 10.21875 8.84375 10.238281 8.835938 10.253906 8.828125 C 10.273438 8.820312 10.289062 8.816406 10.304688 8.808594 Z M 5.859375 8.867188 C 5.945312 8.894531 6.039062 8.921875 6.148438 8.941406 C 6.039062 8.921875 5.945312 8.894531 5.859375 8.867188 Z M 10.140625 8.867188 C 10.054688 8.894531 9.960938 8.921875 9.851562 8.941406 C 9.960938 8.921875 10.054688 8.894531 10.140625 8.867188 Z M 6.230469 8.960938 C 6.371094 8.988281 6.53125 9.011719 6.703125 9.03125 C 6.769531 9.039062 6.839844 9.046875 6.914062 9.050781 C 6.988281 9.058594 7.0625 9.066406 7.140625 9.070312 C 7.175781 9.074219 7.214844 9.074219 7.253906 9.078125 C 7.410156 9.085938 7.574219 9.09375 7.742188 9.097656 C 7.828125 9.097656 7.914062 9.097656 8 9.097656 C 8.085938 9.097656 8.171875 9.097656 8.257812 9.097656 C 8.425781 9.09375 8.589844 9.085938 8.746094 9.078125 C 8.785156 9.074219 8.824219 9.074219 8.859375 9.070312 C 8.9375 9.066406 9.011719 9.058594 9.085938 9.050781 C 9.160156 9.046875 9.230469 9.039062 9.296875 9.03125 C 9.46875 9.011719 9.628906 8.988281 9.769531 8.960938 C 9.628906 8.988281 9.46875 9.011719 9.296875 9.03125 C 9.230469 9.039062 9.160156 9.046875 9.085938 9.050781 C 9.011719 9.058594 8.9375 9.066406 8.859375 9.070312 C 8.824219 9.074219 8.785156 9.074219 8.746094 9.078125 C 8.589844 9.085938 8.425781 9.09375 8.257812 9.097656 C 8.171875 9.097656 8.085938 9.101562 8 9.101562 C 7.914062 9.101562 7.828125 9.097656 7.742188 9.097656 C 7.574219 9.09375 7.410156 9.085938 7.253906 9.078125 C 7.214844 9.074219 7.175781 9.074219 7.140625 9.070312 C 7.0625 9.066406 6.988281 9.058594 6.914062 9.050781 C 6.839844 9.046875 6.769531 9.039062 6.703125 9.03125 C 6.53125 9.011719 6.371094 8.988281 6.230469 8.960938 Z M 5.515625 9.546875 C 5.503906 9.5625 5.5 9.582031 5.5 9.597656 L 5.5 9.644531 C 5.5 9.65625 5.503906 9.671875 5.507812 9.683594 C 5.503906 9.695312 5.5 9.710938 5.5 9.726562 L 5.5 9.769531 C 5.5 9.78125 5.503906 9.796875 5.507812 9.8125 C 5.511719 9.808594 5.511719 9.804688 5.515625 9.800781 C 5.648438 10.042969 6.707031 10.226562 8 10.226562 C 9.292969 10.226562 10.351562 10.042969 10.484375 9.800781 C 10.488281 9.804688 10.488281 9.808594 10.492188 9.8125 C 10.496094 9.796875 10.5 9.78125 10.5 9.769531 L 10.5 9.726562 C 10.5 9.710938 10.496094 9.695312 10.492188 9.683594 C 10.496094 9.671875 10.5 9.65625 10.5 9.644531 L 10.5 9.597656 C 10.5 9.582031 10.496094 9.5625 10.484375 9.546875 C 10.351562 9.789062 9.292969 9.972656 8 9.972656 C 6.707031 9.972656 5.648438 9.789062 5.515625 9.546875 Z M 5.5 10.519531 L 5.5 10.773438 C 5.5 11.039062 6.613281 11.25 8 11.25 C 9.386719 11.25 10.5 11.039062 10.5 10.773438 L 10.5 10.519531 C 10.5 10.78125 9.386719 10.996094 8 10.996094 C 6.613281 10.996094 5.5 10.78125 5.5 10.519531 Z M 5.5 10.519531 "/>
<path style=" stroke:none;fill-rule:nonzero;fill:rgb(74.117649%,74.117649%,74.117649%);fill-opacity:1;" d="M 5.5 9.648438 L 5.5 10.523438 C 5.5 10.785156 6.613281 11 8 11 C 9.386719 11 10.5 10.785156 10.5 10.523438 L 10.5 9.648438 C 10.5 9.910156 9.386719 10.125 8 10.125 C 6.613281 10.125 5.5 9.910156 5.5 9.648438 Z M 5.5 9.648438 "/>
<path style=" stroke:none;fill-rule:nonzero;fill:rgb(74.117649%,74.117649%,74.117649%);fill-opacity:1;" d="M 5.5 8.625 L 5.5 9.601562 C 5.5 9.585938 5.503906 9.566406 5.515625 9.550781 C 5.648438 9.792969 6.707031 9.976562 8 9.976562 C 9.292969 9.976562 10.351562 9.792969 10.484375 9.550781 C 10.496094 9.566406 10.5 9.585938 10.5 9.601562 L 10.5 8.625 C 10.5 8.890625 9.386719 9.101562 8 9.101562 C 6.613281 9.101562 5.5 8.890625 5.5 8.625 Z M 5.5 8.625 "/>
<path style=" stroke:none;fill-rule:nonzero;fill:rgb(74.117649%,74.117649%,74.117649%);fill-opacity:1;" d="M 5.5 7.625 L 5.5 8.582031 C 5.5 8.566406 5.503906 8.554688 5.507812 8.539062 C 5.613281 8.785156 6.6875 8.976562 8 8.976562 C 9.3125 8.976562 10.386719 8.785156 10.492188 8.539062 C 10.496094 8.554688 10.5 8.566406 10.5 8.582031 L 10.5 7.625 C 10.5 7.890625 9.386719 8.101562 8 8.101562 C 6.613281 8.101562 5.5 7.890625 5.5 7.625 Z M 5.5 7.625 "/>
<path style=" stroke:none;fill-rule:nonzero;fill:rgb(74.117649%,74.117649%,74.117649%);fill-opacity:1;" d="M 5.5 6.648438 L 5.5 7.582031 C 5.5 7.570312 5.5 7.5625 5.503906 7.550781 C 5.582031 7.800781 6.667969 8 8 8 C 9.332031 8 10.417969 7.800781 10.496094 7.550781 C 10.5 7.5625 10.5 7.570312 10.5 7.582031 L 10.5 6.648438 C 10.5 6.910156 9.386719 7.125 8 7.125 C 6.613281 7.125 5.5 6.910156 5.5 6.648438 Z M 5.5 6.648438 "/>
<path style=" stroke:none;fill-rule:nonzero;fill:rgb(74.117649%,74.117649%,74.117649%);fill-opacity:1;" d="M 8 6 C 6.613281 6 5.5 6.214844 5.5 6.476562 L 5.5 6.601562 C 5.5 6.589844 5.503906 6.578125 5.507812 6.5625 C 5.617188 6.808594 6.6875 7 8 7 C 9.3125 7 10.382812 6.808594 10.492188 6.5625 C 10.496094 6.578125 10.5 6.589844 10.5 6.601562 L 10.5 6.476562 C 10.5 6.214844 9.386719 6 8 6 Z M 8 6 "/>
<path style=" stroke:none;fill-rule:nonzero;fill:rgb(100%,100%,100%);fill-opacity:0.4;" d="M 5.5 9.648438 L 5.5 9.898438 C 5.5 10.160156 6.613281 10.375 8 10.375 C 9.386719 10.375 10.5 10.160156 10.5 9.898438 L 10.5 9.648438 C 10.5 9.910156 9.386719 10.125 8 10.125 C 6.613281 10.125 5.5 9.910156 5.5 9.648438 Z M 5.5 9.648438 "/>
<path style=" stroke:none;fill-rule:nonzero;fill:rgb(100%,100%,100%);fill-opacity:0.4;" d="M 5.5 8.625 L 5.5 8.875 C 5.5 9.140625 6.613281 9.351562 8 9.351562 C 9.386719 9.351562 10.5 9.140625 10.5 8.875 L 10.5 8.625 C 10.5 8.890625 9.386719 9.101562 8 9.101562 C 6.613281 9.101562 5.5 8.890625 5.5 8.625 Z M 5.5 8.625 "/>
<path style=" stroke:none;fill-rule:nonzero;fill:rgb(100%,100%,100%);fill-opacity:0.4;" d="M 5.5 7.625 L 5.5 7.875 C 5.5 8.140625 6.613281 8.351562 8 8.351562 C 9.386719 8.351562 10.5 8.140625 10.5 7.875 L 10.5 7.625 C 10.5 7.890625 9.386719 8.101562 8 8.101562 C 6.613281 8.101562 5.5 7.890625 5.5 7.625 Z M 5.5 7.625 "/>
<path style=" stroke:none;fill-rule:nonzero;fill:rgb(100%,100%,100%);fill-opacity:0.4;" d="M 5.5 6.648438 L 5.5 6.898438 C 5.5 7.160156 6.613281 7.375 8 7.375 C 9.386719 7.375 10.5 7.160156 10.5 6.898438 L 10.5 6.648438 C 10.5 6.910156 9.386719 7.125 8 7.125 C 6.613281 7.125 5.5 6.910156 5.5 6.648438 Z M 5.5 6.648438 "/>
<path style=" stroke:none;fill-rule:nonzero;fill:rgb(100%,100%,100%);fill-opacity:0.4;" d="M 8 6 C 6.613281 6 5.5 6.214844 5.5 6.476562 L 5.5 6.601562 C 5.5 6.589844 5.503906 6.578125 5.507812 6.5625 C 5.519531 6.585938 5.535156 6.605469 5.558594 6.625 C 5.800781 6.410156 6.800781 6.25 8 6.25 C 9.199219 6.25 10.199219 6.410156 10.441406 6.625 C 10.464844 6.605469 10.480469 6.585938 10.492188 6.5625 C 10.496094 6.578125 10.5 6.589844 10.5 6.601562 L 10.5 6.476562 C 10.5 6.214844 9.386719 6 8 6 Z M 8 6 "/>
<path style=" stroke:none;fill-rule:nonzero;fill:url(#linear0);" d="M 2 1 L 14 1 C 14.550781 1 15 1.449219 15 2 L 15 14 C 15 14.550781 14.550781 15 14 15 L 2 15 C 1.449219 15 1 14.550781 1 14 L 1 2 C 1 1.449219 1.449219 1 2 1 Z M 2 1 "/>
</g>
</svg>
