
<svg xmlns="http://www.w3.org/2000/svg" xmlns:xlink="http://www.w3.org/1999/xlink" width="16" height="16" viewBox="0 0 16 16" version="1.1">
<defs>
<linearGradient id="linear0" gradientUnits="userSpaceOnUse" x1="8.466666" y1="-199.125" x2="8.466666" y2="-213.941666" gradientTransform="matrix(0.944882,0,0,0.944882,0,203.149617)">
<stop offset="0" style="stop-color:rgb(0%,0%,0%);stop-opacity:0.2;"/>
<stop offset="1" style="stop-color:rgb(100%,100%,100%);stop-opacity:0;"/>
</linearGradient>
</defs>
<g id="surface1">
<path style=" stroke:none;fill-rule:nonzero;fill:rgb(37.64706%,49.019608%,54.509807%);fill-opacity:0.996078;" d="M 3 1 L 13 1 C 13.550781 1 14 1.449219 14 2 L 14 14 C 14 14.550781 13.550781 15 13 15 L 3 15 C 2.449219 15 2 14.550781 2 14 L 2 2 C 2 1.449219 2.449219 1 3 1 Z M 3 1 "/>
<path style=" stroke:none;fill-rule:nonzero;fill:rgb(47.058824%,56.470591%,61.176473%);fill-opacity:0.996078;" d="M 3.5 2 L 12.5 2 C 12.777344 2 13 2.222656 13 2.5 L 13 13.5 C 13 13.777344 12.777344 14 12.5 14 L 3.5 14 C 3.222656 14 3 13.777344 3 13.5 L 3 2.5 C 3 2.222656 3.222656 2 3.5 2 Z M 3.5 2 "/>
<path style=" stroke:none;fill-rule:nonzero;fill:rgb(56.470591%,64.313728%,68.235296%);fill-opacity:0.996078;" d="M 2.625 4 L 3.375 4 C 3.445312 4 3.5 4.054688 3.5 4.125 L 3.5 4.875 C 3.5 4.945312 3.445312 5 3.375 5 L 2.625 5 C 2.554688 5 2.5 4.945312 2.5 4.875 L 2.5 4.125 C 2.5 4.054688 2.554688 4 2.625 4 Z M 2.625 4 "/>
<path style=" stroke:none;fill-rule:nonzero;fill:rgb(100%,100%,100%);fill-opacity:0.4;" d="M 2.617188 4 C 2.550781 4.003906 2.5 4.058594 2.5 4.125 L 2.5 4.367188 C 2.503906 4.300781 2.558594 4.25 2.625 4.25 L 3.375 4.25 C 3.441406 4.25 3.496094 4.300781 3.5 4.367188 L 3.5 4.125 C 3.5 4.054688 3.445312 4 3.375 4 L 2.625 4 C 2.621094 4 2.621094 4 2.617188 4 Z M 2.617188 4 "/>
<path style=" stroke:none;fill-rule:nonzero;fill:rgb(0%,0%,0%);fill-opacity:0.4;" d="M 2.617188 5.242188 C 2.550781 5.238281 2.5 5.1875 2.5 5.117188 L 2.5 4.875 C 2.503906 4.941406 2.558594 4.992188 2.625 4.992188 L 3.375 4.992188 C 3.441406 4.992188 3.496094 4.941406 3.5 4.875 L 3.5 5.117188 C 3.5 5.1875 3.445312 5.242188 3.375 5.242188 L 2.625 5.242188 C 2.621094 5.242188 2.621094 5.242188 2.617188 5.242188 Z M 2.617188 5.242188 "/>
<path style=" stroke:none;fill-rule:nonzero;fill:rgb(56.470591%,64.313728%,68.235296%);fill-opacity:0.996078;" d="M 2.625 11 L 3.375 11 C 3.445312 11 3.5 11.054688 3.5 11.125 L 3.5 11.875 C 3.5 11.945312 3.445312 12 3.375 12 L 2.625 12 C 2.554688 12 2.5 11.945312 2.5 11.875 L 2.5 11.125 C 2.5 11.054688 2.554688 11 2.625 11 Z M 2.625 11 "/>
<path style=" stroke:none;fill-rule:nonzero;fill:rgb(100%,100%,100%);fill-opacity:0.4;" d="M 2.617188 11 C 2.550781 11.003906 2.5 11.058594 2.5 11.125 L 2.5 11.367188 C 2.503906 11.300781 2.558594 11.25 2.625 11.25 L 3.375 11.25 C 3.441406 11.25 3.496094 11.300781 3.5 11.367188 L 3.5 11.125 C 3.5 11.054688 3.445312 11 3.375 11 L 2.625 11 C 2.621094 11 2.621094 11 2.617188 11 Z M 2.617188 11 "/>
<path style=" stroke:none;fill-rule:nonzero;fill:rgb(0%,0%,0%);fill-opacity:0.4;" d="M 2.617188 12.242188 C 2.550781 12.238281 2.5 12.1875 2.5 12.117188 L 2.5 11.875 C 2.503906 11.941406 2.558594 11.992188 2.625 11.992188 L 3.375 11.992188 C 3.441406 11.992188 3.496094 11.941406 3.5 11.875 L 3.5 12.117188 C 3.5 12.1875 3.445312 12.242188 3.375 12.242188 L 2.625 12.242188 C 2.621094 12.242188 2.621094 12.242188 2.617188 12.242188 Z M 2.617188 12.242188 "/>
<path style=" stroke:none;fill-rule:nonzero;fill:rgb(100%,100%,100%);fill-opacity:0.4;" d="M 3.5 2 C 3.222656 2 3 2.222656 3 2.5 L 3 2.75 C 3 2.472656 3.222656 2.25 3.5 2.25 L 12.5 2.25 C 12.777344 2.25 13 2.472656 13 2.75 L 13 2.5 C 13 2.222656 12.777344 2 12.5 2 Z M 3.5 2 "/>
<path style=" stroke:none;fill-rule:nonzero;fill:rgb(0.392157%,0.392157%,0.392157%);fill-opacity:0.4;" d="M 3.5 14.25 C 3.222656 14.25 3 14.027344 3 13.75 L 3 13.5 C 3 13.777344 3.222656 14 3.5 14 L 12.5 14 C 12.777344 14 13 13.777344 13 13.5 L 13 13.75 C 13 14.027344 12.777344 14.25 12.5 14.25 Z M 3.5 14.25 "/>
<path style=" stroke:none;fill-rule:nonzero;fill:rgb(100%,100%,100%);fill-opacity:0.4;" d="M 3 1 C 2.445312 1 2 1.445312 2 2 L 2 2.25 C 2 1.695312 2.445312 1.25 3 1.25 L 13 1.25 C 13.554688 1.25 14 1.695312 14 2.25 L 14 2 C 14 1.445312 13.554688 1 13 1 Z M 3 1 "/>
<path style=" stroke:none;fill-rule:nonzero;fill:rgb(0.392157%,0.392157%,0.392157%);fill-opacity:0.4;" d="M 3 15 C 2.445312 15 2 14.554688 2 14 L 2 13.75 C 2 14.304688 2.445312 14.75 3 14.75 L 13 14.75 C 13.554688 14.75 14 14.304688 14 13.75 L 14 14 C 14 14.554688 13.554688 15 13 15 Z M 3 15 "/>
<path style=" stroke:none;fill-rule:nonzero;fill:rgb(0%,0%,0%);fill-opacity:0.2;" d="M 2 14 L 2 14.375 C 2 14.929688 2.445312 15.375 3 15.375 L 13 15.375 C 13.554688 15.375 14 14.929688 14 14.375 L 14 14 C 14 14.554688 13.554688 15 13 15 L 3 15 C 2.445312 15 2 14.554688 2 14 Z M 2 14 "/>
<path style=" stroke:none;fill-rule:nonzero;fill:rgb(32.941177%,43.137255%,47.843137%);fill-opacity:1;" d="M 8 5 C 9.65625 5 11 6.34375 11 8 C 11 9.65625 9.65625 11 8 11 C 6.34375 11 5 9.65625 5 8 C 5 6.34375 6.34375 5 8 5 Z M 8 5 "/>
<path style=" stroke:none;fill-rule:nonzero;fill:rgb(0%,0%,0%);fill-opacity:0.4;" d="M 8 5 C 6.339844 5 5 6.339844 5 8 C 5 8.042969 5 8.082031 5.003906 8.125 C 5.066406 6.519531 6.378906 5.25 8 5.25 C 9.621094 5.25 10.933594 6.519531 10.996094 8.125 C 11 8.082031 11 8.042969 11 8 C 11 6.339844 9.660156 5 8 5 Z M 8 5 "/>
<path style=" stroke:none;fill-rule:nonzero;fill:rgb(100%,100%,100%);fill-opacity:0.4;" d="M 8 11.25 C 6.339844 11.25 5 9.910156 5 8.25 C 5 8.207031 5 8.167969 5.003906 8.125 C 5.066406 9.730469 6.378906 11 8 11 C 9.621094 11 10.933594 9.730469 10.996094 8.125 C 11 8.167969 11 8.207031 11 8.25 C 11 9.910156 9.660156 11.25 8 11.25 Z M 8 11.25 "/>
<path style=" stroke:none;fill-rule:nonzero;fill:rgb(47.058824%,56.470591%,61.176473%);fill-opacity:0.996078;" d="M 8 6 C 9.105469 6 10 6.894531 10 8 C 10 9.105469 9.105469 10 8 10 C 6.894531 10 6 9.105469 6 8 C 6 6.894531 6.894531 6 8 6 Z M 8 6 "/>
<path style=" stroke:none;fill-rule:nonzero;fill:rgb(99.215686%,99.215686%,99.607843%);fill-opacity:0.4;" d="M 8 6 C 6.890625 6 6 6.890625 6 8 C 6 8.042969 6 8.082031 6.003906 8.125 C 6.066406 7.074219 6.933594 6.25 8 6.25 C 9.066406 6.25 9.933594 7.074219 9.996094 8.125 C 10 8.082031 10 8.042969 10 8 C 10 6.890625 9.109375 6 8 6 Z M 8 6 "/>
<path style=" stroke:none;fill-rule:nonzero;fill:rgb(0%,0%,0%);fill-opacity:0.4;" d="M 5.753906 6.847656 L 5.664062 7 L 7.179688 7.875 L 7.304688 7.65625 L 7.214844 7.609375 L 7.179688 7.671875 Z M 10.246094 6.847656 L 8.820312 7.671875 L 8.78125 7.609375 L 8.695312 7.65625 L 8.820312 7.875 L 10.335938 7 Z M 7.179688 8.53125 L 5.664062 9.40625 L 5.789062 9.625 L 7.304688 8.75 Z M 8.785156 8.597656 L 8.695312 8.75 L 10.210938 9.625 L 10.335938 9.40625 L 10.246094 9.359375 L 10.210938 9.421875 Z M 8.785156 8.597656 "/>
<path style=" stroke:none;fill-rule:nonzero;fill:rgb(0.392157%,0.392157%,1.176471%);fill-opacity:0.4;" d="M 8 10.25 C 6.890625 10.25 6 9.359375 6 8.25 C 6 8.207031 6 8.167969 6.003906 8.125 C 6.066406 9.175781 6.933594 10 8 10 C 9.066406 10 9.933594 9.175781 9.996094 8.125 C 10 8.167969 10 8.207031 10 8.25 C 10 9.359375 9.109375 10.25 8 10.25 Z M 8 10.25 "/>
<path style=" stroke:none;fill-rule:nonzero;fill:rgb(56.470591%,64.313728%,68.235296%);fill-opacity:0.996078;" d="M 7.875 5.375 L 8.125 5.375 L 8.125 7.125 L 7.875 7.125 Z M 7.875 5.375 "/>
<path style=" stroke:none;fill-rule:nonzero;fill:rgb(56.470591%,64.313728%,68.235296%);fill-opacity:0.996078;" d="M 8 4.875 C 8.207031 4.875 8.375 5.042969 8.375 5.25 C 8.375 5.457031 8.207031 5.625 8 5.625 C 7.792969 5.625 7.625 5.457031 7.625 5.25 C 7.625 5.042969 7.792969 4.875 8 4.875 Z M 8 4.875 "/>
<path style=" stroke:none;fill-rule:nonzero;fill:rgb(100%,100%,100%);fill-opacity:0.4;" d="M 7.992188 4.875 C 7.785156 4.878906 7.625 5.046875 7.625 5.25 C 7.625 5.269531 7.628906 5.292969 7.628906 5.3125 C 7.660156 5.136719 7.8125 5 8 5 C 8.1875 5 8.339844 5.136719 8.371094 5.3125 C 8.371094 5.292969 8.375 5.269531 8.375 5.25 C 8.375 5.042969 8.207031 4.875 8 4.875 C 7.996094 4.875 7.992188 4.875 7.992188 4.875 Z M 7.992188 4.875 "/>
<path style=" stroke:none;fill-rule:nonzero;fill:rgb(0%,0%,0%);fill-opacity:0.4;" d="M 7.992188 5.75 C 7.785156 5.746094 7.625 5.578125 7.625 5.375 C 7.625 5.355469 7.628906 5.332031 7.628906 5.3125 C 7.660156 5.492188 7.8125 5.625 8 5.625 C 8.1875 5.625 8.339844 5.492188 8.371094 5.3125 C 8.371094 5.332031 8.375 5.355469 8.375 5.375 C 8.375 5.582031 8.207031 5.75 8 5.75 C 7.996094 5.75 7.992188 5.75 7.988281 5.75 Z M 7.992188 5.75 "/>
<path style=" stroke:none;fill-rule:nonzero;fill:rgb(56.470591%,64.313728%,68.235296%);fill-opacity:0.996078;" d="M 7.875 10.625 L 8.125 10.625 L 8.125 8.875 L 7.875 8.875 Z M 7.875 10.625 "/>
<path style=" stroke:none;fill-rule:nonzero;fill:rgb(56.470591%,64.313728%,68.235296%);fill-opacity:0.996078;" d="M 8 11.125 C 8.207031 11.125 8.375 10.957031 8.375 10.75 C 8.375 10.542969 8.207031 10.375 8 10.375 C 7.792969 10.375 7.625 10.542969 7.625 10.75 C 7.625 10.957031 7.792969 11.125 8 11.125 Z M 8 11.125 "/>
<path style=" stroke:none;fill-rule:nonzero;fill:rgb(0.392157%,0.392157%,0.392157%);fill-opacity:0.4;" d="M 7.992188 11.25 C 7.785156 11.246094 7.625 11.078125 7.625 10.875 C 7.625 10.855469 7.628906 10.832031 7.628906 10.8125 C 7.660156 10.992188 7.8125 11.125 8 11.125 C 8.1875 11.125 8.339844 10.992188 8.371094 10.8125 C 8.371094 10.832031 8.375 10.855469 8.375 10.875 C 8.375 11.082031 8.207031 11.25 8 11.25 C 7.996094 11.25 7.992188 11.25 7.988281 11.25 Z M 7.992188 11.25 "/>
<path style=" stroke:none;fill-rule:nonzero;fill:rgb(99.215686%,99.215686%,99.215686%);fill-opacity:0.4;" d="M 7.992188 10.375 C 7.785156 10.378906 7.625 10.546875 7.625 10.75 C 7.625 10.769531 7.628906 10.792969 7.628906 10.8125 C 7.660156 10.632812 7.8125 10.5 8 10.5 C 8.1875 10.5 8.339844 10.632812 8.371094 10.8125 C 8.371094 10.792969 8.375 10.769531 8.375 10.75 C 8.375 10.542969 8.207031 10.375 8 10.375 C 7.996094 10.375 7.992188 10.375 7.988281 10.375 Z M 7.992188 10.375 "/>
<path style=" stroke:none;fill-rule:nonzero;fill:rgb(56.470591%,64.313728%,68.235296%);fill-opacity:0.996078;" d="M 10.210938 6.578125 L 10.335938 6.796875 L 8.820312 7.671875 L 8.695312 7.453125 Z M 10.210938 6.578125 "/>
<path style=" stroke:none;fill-rule:nonzero;fill:rgb(56.470591%,64.313728%,68.235296%);fill-opacity:0.996078;" d="M 5.664062 9.203125 L 5.789062 9.421875 L 7.304688 8.546875 L 7.179688 8.328125 Z M 5.664062 9.203125 "/>
<path style=" stroke:none;fill-rule:nonzero;fill:rgb(56.470591%,64.313728%,68.235296%);fill-opacity:0.996078;" d="M 10.335938 9.203125 L 10.210938 9.421875 L 8.695312 8.546875 L 8.820312 8.328125 Z M 10.335938 9.203125 "/>
<path style=" stroke:none;fill-rule:nonzero;fill:rgb(56.470591%,64.313728%,68.235296%);fill-opacity:0.996078;" d="M 5.789062 6.578125 L 5.664062 6.796875 L 7.179688 7.671875 L 7.304688 7.453125 Z M 5.789062 6.578125 "/>
<path style=" stroke:none;fill-rule:nonzero;fill:rgb(100%,100%,100%);fill-opacity:0.4;" d="M 5.789062 6.578125 L 5.664062 6.796875 L 5.738281 6.839844 L 5.789062 6.75 L 7.230469 7.582031 L 7.304688 7.453125 Z M 10.210938 6.578125 L 8.695312 7.453125 L 8.769531 7.582031 L 10.210938 6.75 L 10.261719 6.839844 L 10.335938 6.796875 Z M 7.179688 8.328125 L 5.664062 9.203125 L 5.738281 9.332031 L 7.179688 8.5 L 7.230469 8.589844 L 7.304688 8.546875 Z M 8.820312 8.328125 L 8.695312 8.546875 L 8.769531 8.589844 L 8.820312 8.5 L 10.261719 9.332031 L 10.335938 9.203125 Z M 8.820312 8.328125 "/>
<path style=" stroke:none;fill-rule:nonzero;fill:rgb(69.01961%,74.509805%,77.254903%);fill-opacity:1;" d="M 8 7 C 8.550781 7 9 7.449219 9 8 C 9 8.550781 8.550781 9 8 9 C 7.449219 9 7 8.550781 7 8 C 7 7.449219 7.449219 7 8 7 Z M 8 7 "/>
<path style=" stroke:none;fill-rule:nonzero;fill:rgb(100%,100%,100%);fill-opacity:0.4;" d="M 8 7 C 7.445312 7 7 7.445312 7 8 C 7 8.042969 7.003906 8.085938 7.007812 8.125 C 7.070312 7.628906 7.488281 7.25 8 7.25 C 8.511719 7.25 8.929688 7.628906 8.992188 8.125 C 8.996094 8.085938 9 8.042969 9 8 C 9 7.445312 8.554688 7 8 7 Z M 8 7 "/>
<path style=" stroke:none;fill-rule:nonzero;fill:rgb(0%,0%,0%);fill-opacity:0.4;" d="M 8 9.25 C 7.445312 9.25 7 8.804688 7 8.25 C 7 8.207031 7.003906 8.164062 7.007812 8.125 C 7.070312 8.621094 7.488281 9 8 9 C 8.511719 9 8.929688 8.621094 8.992188 8.125 C 8.996094 8.164062 9 8.207031 9 8.25 C 9 8.804688 8.554688 9.25 8 9.25 Z M 8 9.25 "/>
<path style=" stroke:none;fill-rule:nonzero;fill:rgb(56.470591%,64.313728%,68.235296%);fill-opacity:0.996078;" d="M 10.707031 9.5625 C 10.601562 9.742188 10.375 9.804688 10.195312 9.699219 C 10.015625 9.597656 9.953125 9.367188 10.058594 9.1875 C 10.160156 9.007812 10.390625 8.945312 10.570312 9.050781 C 10.75 9.152344 10.808594 9.382812 10.707031 9.5625 Z M 10.707031 9.5625 "/>
<path style=" stroke:none;fill-rule:nonzero;fill:rgb(0.392157%,0.392157%,0.392157%);fill-opacity:0.4;" d="M 10.375 9.875 C 10.171875 9.871094 10.007812 9.703125 10.007812 9.5 C 10.007812 9.480469 10.011719 9.457031 10.015625 9.4375 C 10.042969 9.617188 10.199219 9.75 10.386719 9.75 C 10.570312 9.75 10.726562 9.617188 10.753906 9.4375 C 10.757812 9.457031 10.761719 9.480469 10.761719 9.5 C 10.761719 9.707031 10.59375 9.875 10.386719 9.875 C 10.382812 9.875 10.378906 9.875 10.375 9.875 Z M 10.375 9.875 "/>
<path style=" stroke:none;fill-rule:nonzero;fill:rgb(99.215686%,99.215686%,99.215686%);fill-opacity:0.4;" d="M 10.375 9 C 10.171875 9.003906 10.007812 9.171875 10.007812 9.375 C 10.007812 9.394531 10.011719 9.417969 10.015625 9.4375 C 10.042969 9.257812 10.199219 9.125 10.386719 9.125 C 10.570312 9.125 10.726562 9.257812 10.753906 9.4375 C 10.757812 9.417969 10.761719 9.394531 10.761719 9.375 C 10.761719 9.167969 10.59375 9 10.386719 9 C 10.382812 9 10.378906 9 10.375 9 Z M 10.375 9 "/>
<path style=" stroke:none;fill-rule:nonzero;fill:rgb(56.470591%,64.313728%,68.235296%);fill-opacity:0.996078;" d="M 5.292969 9.5625 C 5.398438 9.742188 5.625 9.804688 5.804688 9.699219 C 5.984375 9.597656 6.046875 9.367188 5.941406 9.1875 C 5.839844 9.007812 5.609375 8.945312 5.429688 9.050781 C 5.25 9.152344 5.191406 9.382812 5.292969 9.5625 Z M 5.292969 9.5625 "/>
<path style=" stroke:none;fill-rule:nonzero;fill:rgb(0.392157%,0.392157%,0.392157%);fill-opacity:0.4;" d="M 5.625 9.875 C 5.421875 9.871094 5.257812 9.703125 5.257812 9.5 C 5.257812 9.480469 5.261719 9.457031 5.265625 9.4375 C 5.292969 9.617188 5.449219 9.75 5.632812 9.75 C 5.820312 9.75 5.976562 9.617188 6.003906 9.4375 C 6.007812 9.457031 6.007812 9.480469 6.007812 9.5 C 6.007812 9.707031 5.84375 9.875 5.632812 9.875 C 5.632812 9.875 5.628906 9.875 5.625 9.875 Z M 5.625 9.875 "/>
<path style=" stroke:none;fill-rule:nonzero;fill:rgb(99.215686%,99.215686%,99.215686%);fill-opacity:0.4;" d="M 5.625 9 C 5.421875 9.003906 5.257812 9.171875 5.257812 9.375 C 5.257812 9.394531 5.261719 9.417969 5.265625 9.4375 C 5.292969 9.257812 5.449219 9.125 5.632812 9.125 C 5.820312 9.125 5.976562 9.257812 6.003906 9.4375 C 6.007812 9.417969 6.007812 9.394531 6.007812 9.375 C 6.007812 9.167969 5.84375 9 5.632812 9 C 5.632812 9 5.628906 9 5.625 9 Z M 5.625 9 "/>
<path style=" stroke:none;fill-rule:nonzero;fill:rgb(56.470591%,64.313728%,68.235296%);fill-opacity:0.996078;" d="M 10.707031 6.4375 C 10.808594 6.617188 10.75 6.847656 10.570312 6.949219 C 10.390625 7.054688 10.160156 6.992188 10.058594 6.8125 C 9.953125 6.632812 10.015625 6.402344 10.195312 6.300781 C 10.375 6.195312 10.601562 6.257812 10.707031 6.4375 Z M 10.707031 6.4375 "/>
<path style=" stroke:none;fill-rule:nonzero;fill:rgb(0.392157%,0.392157%,0.392157%);fill-opacity:0.4;" d="M 10.375 7.125 C 10.171875 7.121094 10.007812 6.953125 10.007812 6.75 C 10.007812 6.730469 10.011719 6.707031 10.015625 6.6875 C 10.042969 6.867188 10.199219 7 10.386719 7 C 10.570312 7 10.726562 6.867188 10.753906 6.6875 C 10.757812 6.707031 10.761719 6.730469 10.761719 6.75 C 10.761719 6.957031 10.59375 7.125 10.386719 7.125 C 10.382812 7.125 10.378906 7.125 10.375 7.125 Z M 10.375 7.125 "/>
<path style=" stroke:none;fill-rule:nonzero;fill:rgb(99.215686%,99.215686%,99.215686%);fill-opacity:0.4;" d="M 10.375 6.25 C 10.171875 6.253906 10.007812 6.421875 10.007812 6.625 C 10.007812 6.644531 10.011719 6.667969 10.015625 6.6875 C 10.042969 6.507812 10.199219 6.375 10.386719 6.375 C 10.570312 6.375 10.726562 6.507812 10.753906 6.6875 C 10.757812 6.667969 10.761719 6.644531 10.761719 6.625 C 10.761719 6.417969 10.59375 6.25 10.386719 6.25 C 10.382812 6.25 10.378906 6.25 10.375 6.25 Z M 10.375 6.25 "/>
<path style=" stroke:none;fill-rule:nonzero;fill:rgb(56.470591%,64.313728%,68.235296%);fill-opacity:0.996078;" d="M 5.292969 6.4375 C 5.191406 6.617188 5.25 6.847656 5.429688 6.949219 C 5.609375 7.054688 5.839844 6.992188 5.941406 6.8125 C 6.046875 6.632812 5.984375 6.402344 5.804688 6.300781 C 5.625 6.195312 5.398438 6.257812 5.292969 6.4375 Z M 5.292969 6.4375 "/>
<path style=" stroke:none;fill-rule:nonzero;fill:rgb(0.392157%,0.392157%,0.392157%);fill-opacity:0.4;" d="M 5.625 7.125 C 5.421875 7.121094 5.257812 6.953125 5.257812 6.75 C 5.257812 6.730469 5.261719 6.707031 5.265625 6.6875 C 5.292969 6.867188 5.449219 7 5.632812 7 C 5.820312 7 5.976562 6.867188 6.003906 6.6875 C 6.007812 6.707031 6.007812 6.730469 6.007812 6.75 C 6.007812 6.957031 5.84375 7.125 5.632812 7.125 C 5.632812 7.125 5.628906 7.125 5.625 7.125 Z M 5.625 7.125 "/>
<path style=" stroke:none;fill-rule:nonzero;fill:rgb(99.215686%,99.215686%,99.215686%);fill-opacity:0.4;" d="M 5.625 6.25 C 5.421875 6.253906 5.257812 6.421875 5.257812 6.625 C 5.257812 6.644531 5.261719 6.667969 5.265625 6.6875 C 5.292969 6.507812 5.449219 6.375 5.632812 6.375 C 5.820312 6.375 5.976562 6.507812 6.003906 6.6875 C 6.007812 6.667969 6.007812 6.644531 6.007812 6.625 C 6.007812 6.417969 5.84375 6.25 5.632812 6.25 C 5.632812 6.25 5.628906 6.25 5.625 6.25 Z M 5.625 6.25 "/>
<path style=" stroke:none;fill-rule:nonzero;fill:url(#linear0);" d="M 3 1 L 13 1 C 13.550781 1 14 1.449219 14 2 L 14 14 C 14 14.550781 13.550781 15 13 15 L 3 15 C 2.449219 15 2 14.550781 2 14 L 2 2 C 2 1.449219 2.449219 1 3 1 Z M 3 1 "/>
</g>
</svg>
