
<svg xmlns="http://www.w3.org/2000/svg" xmlns:xlink="http://www.w3.org/1999/xlink" width="16" height="16" viewBox="0 0 16 16" version="1.1">
<defs>
<linearGradient id="linear0" gradientUnits="userSpaceOnUse" x1="8.466666" y1="-199.125" x2="8.466666" y2="-213.941666" gradientTransform="matrix(0.944882,0,0,0.944882,0,203.149617)">
<stop offset="0" style="stop-color:rgb(0%,0%,0%);stop-opacity:0.2;"/>
<stop offset="1" style="stop-color:rgb(100%,100%,100%);stop-opacity:0;"/>
</linearGradient>
</defs>
<g id="surface1">
<path style=" stroke:none;fill-rule:nonzero;fill:rgb(74.117649%,74.117649%,74.117649%);fill-opacity:1;" d="M 3.5 1 L 12.5 1 C 13.050781 1 13.5 1.449219 13.5 2 L 13.5 14 C 13.5 14.550781 13.050781 15 12.5 15 L 3.5 15 C 2.949219 15 2.5 14.550781 2.5 14 L 2.5 2 C 2.5 1.449219 2.949219 1 3.5 1 Z M 3.5 1 "/>
<path style=" stroke:none;fill-rule:nonzero;fill:rgb(38.039216%,38.039216%,38.039216%);fill-opacity:0.996078;" d="M 11.488281 7 C 11.214844 7.007812 11 7.226562 11 7.5 C 11 7.777344 11.222656 8 11.5 8 L 12.5 8 C 12.777344 8 13 7.777344 13 7.5 C 13 7.222656 12.777344 7 12.5 7 L 11.5 7 C 11.496094 7 11.492188 7 11.488281 7 Z M 3.488281 8.5 C 3.214844 8.507812 3 8.726562 3 9 C 3 9.277344 3.222656 9.5 3.5 9.5 L 4.5 9.5 C 4.777344 9.5 5 9.277344 5 9 C 5 8.722656 4.777344 8.5 4.5 8.5 L 3.5 8.5 C 3.496094 8.5 3.492188 8.5 3.488281 8.5 Z M 5.988281 8.5 C 5.714844 8.507812 5.5 8.726562 5.5 9 C 5.5 9.277344 5.722656 9.5 6 9.5 L 7 9.5 C 7.277344 9.5 7.5 9.277344 7.5 9 C 7.5 8.722656 7.277344 8.5 7 8.5 L 6 8.5 C 5.996094 8.5 5.992188 8.5 5.988281 8.5 Z M 8.488281 8.5 C 8.214844 8.507812 8 8.726562 8 9 C 8 9.277344 8.222656 9.5 8.5 9.5 L 9.5 9.5 C 9.777344 9.5 10 9.277344 10 9 C 10 8.722656 9.777344 8.5 9.5 8.5 L 8.5 8.5 C 8.496094 8.5 8.492188 8.5 8.488281 8.5 Z M 11.488281 8.5 C 11.214844 8.507812 11 8.726562 11 9 C 11 9.277344 11.222656 9.5 11.5 9.5 L 12.5 9.5 C 12.777344 9.5 13 9.277344 13 9 C 13 8.722656 12.777344 8.5 12.5 8.5 L 11.5 8.5 C 11.496094 8.5 11.492188 8.5 11.488281 8.5 Z M 3.488281 10 C 3.214844 10.007812 3 10.226562 3 10.5 C 3 10.777344 3.222656 11 3.5 11 L 4.5 11 C 4.777344 11 5 10.777344 5 10.5 C 5 10.222656 4.777344 10 4.5 10 L 3.5 10 C 3.496094 10 3.492188 10 3.488281 10 Z M 5.988281 10 C 5.714844 10.007812 5.5 10.226562 5.5 10.5 C 5.5 10.777344 5.722656 11 6 11 L 7 11 C 7.277344 11 7.5 10.777344 7.5 10.5 C 7.5 10.222656 7.277344 10 7 10 L 6 10 C 5.996094 10 5.992188 10 5.988281 10 Z M 8.488281 10 C 8.214844 10.007812 8 10.226562 8 10.5 C 8 10.777344 8.222656 11 8.5 11 L 9.5 11 C 9.777344 11 10 10.777344 10 10.5 C 10 10.222656 9.777344 10 9.5 10 L 8.5 10 C 8.496094 10 8.492188 10 8.488281 10 Z M 11.488281 10 C 11.214844 10.007812 11 10.226562 11 10.5 C 11 10.777344 11.222656 11 11.5 11 L 12.5 11 C 12.777344 11 13 10.777344 13 10.5 C 13 10.222656 12.777344 10 12.5 10 L 11.5 10 C 11.496094 10 11.492188 10 11.488281 10 Z M 3.488281 11.5 C 3.214844 11.507812 3 11.726562 3 12 C 3 12.277344 3.222656 12.5 3.5 12.5 L 4.5 12.5 C 4.777344 12.5 5 12.277344 5 12 C 5 11.722656 4.777344 11.5 4.5 11.5 L 3.5 11.5 C 3.496094 11.5 3.492188 11.5 3.488281 11.5 Z M 5.988281 11.5 C 5.714844 11.507812 5.5 11.726562 5.5 12 C 5.5 12.277344 5.722656 12.5 6 12.5 L 7 12.5 C 7.277344 12.5 7.5 12.277344 7.5 12 C 7.5 11.722656 7.277344 11.5 7 11.5 L 6 11.5 C 5.996094 11.5 5.992188 11.5 5.988281 11.5 Z M 8.488281 11.5 C 8.214844 11.507812 8 11.726562 8 12 C 8 12.277344 8.222656 12.5 8.5 12.5 L 9.5 12.5 C 9.777344 12.5 10 12.277344 10 12 C 10 11.722656 9.777344 11.5 9.5 11.5 L 8.5 11.5 C 8.496094 11.5 8.492188 11.5 8.488281 11.5 Z M 11.488281 11.5 C 11.214844 11.507812 11 11.726562 11 12 C 11 12.277344 11.222656 12.5 11.5 12.5 L 12.5 12.5 C 12.777344 12.5 13 12.277344 13 12 C 13 11.722656 12.777344 11.5 12.5 11.5 L 11.5 11.5 C 11.496094 11.5 11.492188 11.5 11.488281 11.5 Z M 3.488281 13 C 3.214844 13.007812 3 13.226562 3 13.5 C 3 13.777344 3.222656 14 3.5 14 L 4.5 14 C 4.777344 14 5 13.777344 5 13.5 C 5 13.222656 4.777344 13 4.5 13 L 3.5 13 C 3.496094 13 3.492188 13 3.488281 13 Z M 5.988281 13 C 5.714844 13.007812 5.5 13.226562 5.5 13.5 C 5.5 13.777344 5.722656 14 6 14 L 7 14 C 7.277344 14 7.5 13.777344 7.5 13.5 C 7.5 13.222656 7.277344 13 7 13 L 6 13 C 5.996094 13 5.992188 13 5.988281 13 Z M 8.488281 13 C 8.214844 13.007812 8 13.226562 8 13.5 C 8 13.777344 8.222656 14 8.5 14 L 9.5 14 C 9.777344 14 10 13.777344 10 13.5 C 10 13.222656 9.777344 13 9.5 13 L 8.5 13 C 8.496094 13 8.492188 13 8.488281 13 Z M 11.488281 13 C 11.214844 13.007812 11 13.226562 11 13.5 C 11 13.777344 11.222656 14 11.5 14 L 12.5 14 C 12.777344 14 13 13.777344 13 13.5 C 13 13.222656 12.777344 13 12.5 13 L 11.5 13 C 11.496094 13 11.492188 13 11.488281 13 Z M 11.488281 13 "/>
<path style=" stroke:none;fill-rule:nonzero;fill:rgb(95.686275%,26.274511%,21.176471%);fill-opacity:0.996078;" d="M 3.488281 7 C 3.214844 7.007812 3 7.226562 3 7.5 C 3 7.777344 3.222656 8 3.5 8 L 4.5 8 C 4.777344 8 5 7.777344 5 7.5 C 5 7.222656 4.777344 7 4.5 7 L 3.5 7 C 3.496094 7 3.492188 7 3.488281 7 Z M 5.988281 7 C 5.714844 7.007812 5.5 7.226562 5.5 7.5 C 5.5 7.777344 5.722656 8 6 8 L 7 8 C 7.277344 8 7.5 7.777344 7.5 7.5 C 7.5 7.222656 7.277344 7 7 7 L 6 7 C 5.996094 7 5.992188 7 5.988281 7 Z M 8.488281 7 C 8.214844 7.007812 8 7.226562 8 7.5 C 8 7.777344 8.222656 8 8.5 8 L 9.5 8 C 9.777344 8 10 7.777344 10 7.5 C 10 7.222656 9.777344 7 9.5 7 L 8.5 7 C 8.496094 7 8.492188 7 8.488281 7 Z M 8.488281 7 "/>
<path style=" stroke:none;fill-rule:nonzero;fill:rgb(99.607843%,99.607843%,99.607843%);fill-opacity:0.4;" d="M 3.5 1 C 2.945312 1 2.5 1.445312 2.5 2 L 2.5 2.246094 C 2.5 1.691406 2.945312 1.246094 3.5 1.246094 L 12.5 1.246094 C 13.054688 1.246094 13.5 1.691406 13.5 2.246094 L 13.5 2 C 13.5 1.445312 13.054688 1 12.5 1 Z M 3.5 1 "/>
<path style=" stroke:none;fill-rule:nonzero;fill:rgb(0.784314%,0.784314%,0.784314%);fill-opacity:0.4;" d="M 3.5 14.996094 C 2.945312 14.996094 2.5 14.550781 2.5 13.996094 L 2.5 13.75 C 2.5 14.304688 2.945312 14.75 3.5 14.75 L 12.5 14.75 C 13.054688 14.75 13.5 14.304688 13.5 13.75 L 13.5 13.996094 C 13.5 14.550781 13.054688 14.996094 12.5 14.996094 Z M 3.5 14.996094 "/>
<path style=" stroke:none;fill-rule:nonzero;fill:rgb(0%,0%,0%);fill-opacity:0.2;" d="M 2.5 14 L 2.5 14.375 C 2.5 14.929688 2.945312 15.375 3.5 15.375 L 12.5 15.375 C 13.054688 15.375 13.5 14.929688 13.5 14.375 L 13.5 14 C 13.5 14.554688 13.054688 15 12.5 15 L 3.5 15 C 2.945312 15 2.5 14.554688 2.5 14 Z M 2.5 14 "/>
<path style=" stroke:none;fill-rule:nonzero;fill:rgb(38.039216%,38.039216%,38.039216%);fill-opacity:1;" d="M 3.5 1.75 L 12.5 1.75 C 12.777344 1.75 13 1.972656 13 2.25 L 13 4.75 C 13 5.027344 12.777344 5.25 12.5 5.25 L 3.5 5.25 C 3.222656 5.25 3 5.027344 3 4.75 L 3 2.25 C 3 1.972656 3.222656 1.75 3.5 1.75 Z M 3.5 1.75 "/>
<path style=" stroke:none;fill-rule:nonzero;fill:rgb(99.607843%,99.607843%,99.607843%);fill-opacity:0.4;" d="M 3 4.75 L 3 5 C 3 5.277344 3.222656 5.5 3.5 5.5 L 12.5 5.5 C 12.777344 5.5 13 5.277344 13 5 L 13 4.75 C 13 5.027344 12.777344 5.25 12.5 5.25 L 3.5 5.25 C 3.222656 5.25 3 5.027344 3 4.75 Z M 3 4.75 "/>
<path style=" stroke:none;fill-rule:nonzero;fill:rgb(0%,0%,0%);fill-opacity:0.4;" d="M 3 2.5 L 3 2.25 C 3 1.972656 3.222656 1.75 3.5 1.75 L 12.5 1.75 C 12.777344 1.75 13 1.972656 13 2.25 L 13 2.5 C 13 2.222656 12.777344 2 12.5 2 L 3.5 2 C 3.222656 2 3 2.222656 3 2.5 Z M 3 2.5 "/>
<path style=" stroke:none;fill-rule:nonzero;fill:rgb(0%,0%,0%);fill-opacity:0.4;" d="M 11.015625 7.625 C 11.003906 7.664062 11 7.707031 11 7.75 C 11 8.027344 11.222656 8.25 11.5 8.25 L 12.5 8.25 C 12.777344 8.25 13 8.027344 13 7.75 C 13 7.707031 12.992188 7.664062 12.984375 7.625 C 12.929688 7.839844 12.734375 8 12.5 8 L 11.5 8 C 11.265625 8 11.070312 7.839844 11.015625 7.625 Z M 3.015625 9.125 C 3.003906 9.164062 3 9.207031 3 9.25 C 3 9.527344 3.222656 9.75 3.5 9.75 L 4.5 9.75 C 4.777344 9.75 5 9.527344 5 9.25 C 5 9.207031 4.992188 9.164062 4.984375 9.125 C 4.929688 9.339844 4.734375 9.5 4.5 9.5 L 3.5 9.5 C 3.265625 9.5 3.070312 9.339844 3.015625 9.125 Z M 5.515625 9.125 C 5.503906 9.164062 5.5 9.207031 5.5 9.25 C 5.5 9.527344 5.722656 9.75 6 9.75 L 7 9.75 C 7.277344 9.75 7.5 9.527344 7.5 9.25 C 7.5 9.207031 7.492188 9.164062 7.484375 9.125 C 7.429688 9.339844 7.234375 9.5 7 9.5 L 6 9.5 C 5.765625 9.5 5.570312 9.339844 5.515625 9.125 Z M 8.015625 9.125 C 8.003906 9.164062 8 9.207031 8 9.25 C 8 9.527344 8.222656 9.75 8.5 9.75 L 9.5 9.75 C 9.777344 9.75 10 9.527344 10 9.25 C 10 9.207031 9.992188 9.164062 9.984375 9.125 C 9.929688 9.339844 9.734375 9.5 9.5 9.5 L 8.5 9.5 C 8.265625 9.5 8.070312 9.339844 8.015625 9.125 Z M 11.015625 9.125 C 11.003906 9.164062 11 9.207031 11 9.25 C 11 9.527344 11.222656 9.75 11.5 9.75 L 12.5 9.75 C 12.777344 9.75 13 9.527344 13 9.25 C 13 9.207031 12.992188 9.164062 12.984375 9.125 C 12.929688 9.339844 12.734375 9.5 12.5 9.5 L 11.5 9.5 C 11.265625 9.5 11.070312 9.339844 11.015625 9.125 Z M 3.015625 10.625 C 3.003906 10.664062 3 10.707031 3 10.75 C 3 11.027344 3.222656 11.25 3.5 11.25 L 4.5 11.25 C 4.777344 11.25 5 11.027344 5 10.75 C 5 10.707031 4.992188 10.664062 4.984375 10.625 C 4.929688 10.839844 4.734375 11 4.5 11 L 3.5 11 C 3.265625 11 3.070312 10.839844 3.015625 10.625 Z M 5.515625 10.625 C 5.503906 10.664062 5.5 10.707031 5.5 10.75 C 5.5 11.027344 5.722656 11.25 6 11.25 L 7 11.25 C 7.277344 11.25 7.5 11.027344 7.5 10.75 C 7.5 10.707031 7.492188 10.664062 7.484375 10.625 C 7.429688 10.839844 7.234375 11 7 11 L 6 11 C 5.765625 11 5.570312 10.839844 5.515625 10.625 Z M 8.015625 10.625 C 8.003906 10.664062 8 10.707031 8 10.75 C 8 11.027344 8.222656 11.25 8.5 11.25 L 9.5 11.25 C 9.777344 11.25 10 11.027344 10 10.75 C 10 10.707031 9.992188 10.664062 9.984375 10.625 C 9.929688 10.839844 9.734375 11 9.5 11 L 8.5 11 C 8.265625 11 8.070312 10.839844 8.015625 10.625 Z M 11.015625 10.625 C 11.003906 10.664062 11 10.707031 11 10.75 C 11 11.027344 11.222656 11.25 11.5 11.25 L 12.5 11.25 C 12.777344 11.25 13 11.027344 13 10.75 C 13 10.707031 12.992188 10.664062 12.984375 10.625 C 12.929688 10.839844 12.734375 11 12.5 11 L 11.5 11 C 11.265625 11 11.070312 10.839844 11.015625 10.625 Z M 3.015625 12.125 C 3.003906 12.164062 3 12.207031 3 12.25 C 3 12.527344 3.222656 12.75 3.5 12.75 L 4.5 12.75 C 4.777344 12.75 5 12.527344 5 12.25 C 5 12.207031 4.992188 12.164062 4.984375 12.125 C 4.929688 12.339844 4.734375 12.5 4.5 12.5 L 3.5 12.5 C 3.265625 12.5 3.070312 12.339844 3.015625 12.125 Z M 5.515625 12.125 C 5.503906 12.164062 5.5 12.207031 5.5 12.25 C 5.5 12.527344 5.722656 12.75 6 12.75 L 7 12.75 C 7.277344 12.75 7.5 12.527344 7.5 12.25 C 7.5 12.207031 7.492188 12.164062 7.484375 12.125 C 7.429688 12.339844 7.234375 12.5 7 12.5 L 6 12.5 C 5.765625 12.5 5.570312 12.339844 5.515625 12.125 Z M 8.015625 12.125 C 8.003906 12.164062 8 12.207031 8 12.25 C 8 12.527344 8.222656 12.75 8.5 12.75 L 9.5 12.75 C 9.777344 12.75 10 12.527344 10 12.25 C 10 12.207031 9.992188 12.164062 9.984375 12.125 C 9.929688 12.339844 9.734375 12.5 9.5 12.5 L 8.5 12.5 C 8.265625 12.5 8.070312 12.339844 8.015625 12.125 Z M 11.015625 12.125 C 11.003906 12.164062 11 12.207031 11 12.25 C 11 12.527344 11.222656 12.75 11.5 12.75 L 12.5 12.75 C 12.777344 12.75 13 12.527344 13 12.25 C 13 12.207031 12.992188 12.164062 12.984375 12.125 C 12.929688 12.339844 12.734375 12.5 12.5 12.5 L 11.5 12.5 C 11.265625 12.5 11.070312 12.339844 11.015625 12.125 Z M 3.015625 13.625 C 3.003906 13.664062 3 13.707031 3 13.75 C 3 14.027344 3.222656 14.25 3.5 14.25 L 4.5 14.25 C 4.777344 14.25 5 14.027344 5 13.75 C 5 13.707031 4.992188 13.664062 4.984375 13.625 C 4.929688 13.839844 4.734375 14 4.5 14 L 3.5 14 C 3.265625 14 3.070312 13.839844 3.015625 13.625 Z M 5.515625 13.625 C 5.503906 13.664062 5.5 13.707031 5.5 13.75 C 5.5 14.027344 5.722656 14.25 6 14.25 L 7 14.25 C 7.277344 14.25 7.5 14.027344 7.5 13.75 C 7.5 13.707031 7.492188 13.664062 7.484375 13.625 C 7.429688 13.839844 7.234375 14 7 14 L 6 14 C 5.765625 14 5.570312 13.839844 5.515625 13.625 Z M 8.015625 13.625 C 8.003906 13.664062 8 13.707031 8 13.75 C 8 14.027344 8.222656 14.25 8.5 14.25 L 9.5 14.25 C 9.777344 14.25 10 14.027344 10 13.75 C 10 13.707031 9.992188 13.664062 9.984375 13.625 C 9.929688 13.839844 9.734375 14 9.5 14 L 8.5 14 C 8.265625 14 8.070312 13.839844 8.015625 13.625 Z M 11.015625 13.625 C 11.003906 13.664062 11 13.707031 11 13.75 C 11 14.027344 11.222656 14.25 11.5 14.25 L 12.5 14.25 C 12.777344 14.25 13 14.027344 13 13.75 C 13 13.707031 12.992188 13.664062 12.984375 13.625 C 12.929688 13.839844 12.734375 14 12.5 14 L 11.5 14 C 11.265625 14 11.070312 13.839844 11.015625 13.625 Z M 11.015625 13.625 "/>
<path style=" stroke:none;fill-rule:nonzero;fill:rgb(99.607843%,99.607843%,99.607843%);fill-opacity:0.4;" d="M 11.488281 7 C 11.214844 7.007812 11 7.226562 11 7.5 C 11 7.542969 11.007812 7.582031 11.015625 7.621094 C 11.070312 7.410156 11.261719 7.253906 11.488281 7.25 C 11.492188 7.25 11.496094 7.25 11.5 7.25 L 12.5 7.25 C 12.734375 7.25 12.925781 7.40625 12.984375 7.621094 C 12.992188 7.582031 13 7.542969 13 7.5 C 13 7.222656 12.777344 7 12.5 7 L 11.5 7 C 11.496094 7 11.492188 7 11.488281 7 Z M 3.488281 8.5 C 3.214844 8.507812 3 8.726562 3 9 C 3 9.042969 3.007812 9.082031 3.015625 9.121094 C 3.070312 8.910156 3.261719 8.753906 3.488281 8.75 C 3.492188 8.75 3.496094 8.75 3.5 8.75 L 4.5 8.75 C 4.734375 8.75 4.925781 8.90625 4.984375 9.121094 C 4.992188 9.082031 5 9.042969 5 9 C 5 8.722656 4.777344 8.5 4.5 8.5 L 3.5 8.5 C 3.496094 8.5 3.492188 8.5 3.488281 8.5 Z M 5.988281 8.5 C 5.714844 8.507812 5.5 8.726562 5.5 9 C 5.5 9.042969 5.507812 9.082031 5.515625 9.121094 C 5.570312 8.910156 5.761719 8.753906 5.988281 8.75 C 5.992188 8.75 5.996094 8.75 6 8.75 L 7 8.75 C 7.234375 8.75 7.425781 8.90625 7.484375 9.121094 C 7.492188 9.082031 7.5 9.042969 7.5 9 C 7.5 8.722656 7.277344 8.5 7 8.5 L 6 8.5 C 5.996094 8.5 5.992188 8.5 5.988281 8.5 Z M 8.488281 8.5 C 8.214844 8.507812 8 8.726562 8 9 C 8 9.042969 8.007812 9.082031 8.015625 9.121094 C 8.070312 8.910156 8.261719 8.753906 8.488281 8.75 C 8.492188 8.75 8.496094 8.75 8.5 8.75 L 9.5 8.75 C 9.734375 8.75 9.925781 8.90625 9.984375 9.121094 C 9.992188 9.082031 10 9.042969 10 9 C 10 8.722656 9.777344 8.5 9.5 8.5 L 8.5 8.5 C 8.496094 8.5 8.492188 8.5 8.488281 8.5 Z M 11.488281 8.5 C 11.214844 8.507812 11 8.726562 11 9 C 11 9.042969 11.007812 9.082031 11.015625 9.121094 C 11.070312 8.910156 11.261719 8.753906 11.488281 8.75 C 11.492188 8.75 11.496094 8.75 11.5 8.75 L 12.5 8.75 C 12.734375 8.75 12.925781 8.90625 12.984375 9.121094 C 12.992188 9.082031 13 9.042969 13 9 C 13 8.722656 12.777344 8.5 12.5 8.5 L 11.5 8.5 C 11.496094 8.5 11.492188 8.5 11.488281 8.5 Z M 3.488281 10 C 3.214844 10.007812 3 10.226562 3 10.5 C 3 10.542969 3.007812 10.582031 3.015625 10.621094 C 3.070312 10.410156 3.261719 10.253906 3.488281 10.25 C 3.492188 10.25 3.496094 10.25 3.5 10.25 L 4.5 10.25 C 4.734375 10.25 4.925781 10.40625 4.984375 10.621094 C 4.992188 10.582031 5 10.542969 5 10.5 C 5 10.222656 4.777344 10 4.5 10 L 3.5 10 C 3.496094 10 3.492188 10 3.488281 10 Z M 5.988281 10 C 5.714844 10.007812 5.5 10.226562 5.5 10.5 C 5.5 10.542969 5.507812 10.582031 5.515625 10.621094 C 5.570312 10.410156 5.761719 10.253906 5.988281 10.25 C 5.992188 10.25 5.996094 10.25 6 10.25 L 7 10.25 C 7.234375 10.25 7.425781 10.40625 7.484375 10.621094 C 7.492188 10.582031 7.5 10.542969 7.5 10.5 C 7.5 10.222656 7.277344 10 7 10 L 6 10 C 5.996094 10 5.992188 10 5.988281 10 Z M 8.488281 10 C 8.214844 10.007812 8 10.226562 8 10.5 C 8 10.542969 8.007812 10.582031 8.015625 10.621094 C 8.070312 10.410156 8.261719 10.253906 8.488281 10.25 C 8.492188 10.25 8.496094 10.25 8.5 10.25 L 9.5 10.25 C 9.734375 10.25 9.925781 10.40625 9.984375 10.621094 C 9.992188 10.582031 10 10.542969 10 10.5 C 10 10.222656 9.777344 10 9.5 10 L 8.5 10 C 8.496094 10 8.492188 10 8.488281 10 Z M 11.488281 10 C 11.214844 10.007812 11 10.226562 11 10.5 C 11 10.542969 11.007812 10.582031 11.015625 10.621094 C 11.070312 10.410156 11.261719 10.253906 11.488281 10.25 C 11.492188 10.25 11.496094 10.25 11.5 10.25 L 12.5 10.25 C 12.734375 10.25 12.925781 10.40625 12.984375 10.621094 C 12.992188 10.582031 13 10.542969 13 10.5 C 13 10.222656 12.777344 10 12.5 10 L 11.5 10 C 11.496094 10 11.492188 10 11.488281 10 Z M 3.488281 11.5 C 3.214844 11.507812 3 11.726562 3 12 C 3 12.042969 3.007812 12.082031 3.015625 12.121094 C 3.070312 11.910156 3.261719 11.753906 3.488281 11.75 C 3.492188 11.75 3.496094 11.75 3.5 11.75 L 4.5 11.75 C 4.734375 11.75 4.925781 11.90625 4.984375 12.121094 C 4.992188 12.082031 5 12.042969 5 12 C 5 11.722656 4.777344 11.5 4.5 11.5 L 3.5 11.5 C 3.496094 11.5 3.492188 11.5 3.488281 11.5 Z M 5.988281 11.5 C 5.714844 11.507812 5.5 11.726562 5.5 12 C 5.5 12.042969 5.507812 12.082031 5.515625 12.121094 C 5.570312 11.910156 5.761719 11.753906 5.988281 11.75 C 5.992188 11.75 5.996094 11.75 6 11.75 L 7 11.75 C 7.234375 11.75 7.425781 11.90625 7.484375 12.121094 C 7.492188 12.082031 7.5 12.042969 7.5 12 C 7.5 11.722656 7.277344 11.5 7 11.5 L 6 11.5 C 5.996094 11.5 5.992188 11.5 5.988281 11.5 Z M 8.488281 11.5 C 8.214844 11.507812 8 11.726562 8 12 C 8 12.042969 8.007812 12.082031 8.015625 12.121094 C 8.070312 11.910156 8.261719 11.753906 8.488281 11.75 C 8.492188 11.75 8.496094 11.75 8.5 11.75 L 9.5 11.75 C 9.734375 11.75 9.925781 11.90625 9.984375 12.121094 C 9.992188 12.082031 10 12.042969 10 12 C 10 11.722656 9.777344 11.5 9.5 11.5 L 8.5 11.5 C 8.496094 11.5 8.492188 11.5 8.488281 11.5 Z M 11.488281 11.5 C 11.214844 11.507812 11 11.726562 11 12 C 11 12.042969 11.007812 12.082031 11.015625 12.121094 C 11.070312 11.910156 11.261719 11.753906 11.488281 11.75 C 11.492188 11.75 11.496094 11.75 11.5 11.75 L 12.5 11.75 C 12.734375 11.75 12.925781 11.90625 12.984375 12.121094 C 12.992188 12.082031 13 12.042969 13 12 C 13 11.722656 12.777344 11.5 12.5 11.5 L 11.5 11.5 C 11.496094 11.5 11.492188 11.5 11.488281 11.5 Z M 3.488281 13 C 3.214844 13.007812 3 13.226562 3 13.5 C 3 13.542969 3.007812 13.582031 3.015625 13.621094 C 3.070312 13.410156 3.261719 13.253906 3.488281 13.25 C 3.492188 13.25 3.496094 13.25 3.5 13.25 L 4.5 13.25 C 4.734375 13.25 4.925781 13.40625 4.984375 13.621094 C 4.992188 13.582031 5 13.542969 5 13.5 C 5 13.222656 4.777344 13 4.5 13 L 3.5 13 C 3.496094 13 3.492188 13 3.488281 13 Z M 5.988281 13 C 5.714844 13.007812 5.5 13.226562 5.5 13.5 C 5.5 13.542969 5.507812 13.582031 5.515625 13.621094 C 5.570312 13.410156 5.761719 13.253906 5.988281 13.25 C 5.992188 13.25 5.996094 13.25 6 13.25 L 7 13.25 C 7.234375 13.25 7.425781 13.40625 7.484375 13.621094 C 7.492188 13.582031 7.5 13.542969 7.5 13.5 C 7.5 13.222656 7.277344 13 7 13 L 6 13 C 5.996094 13 5.992188 13 5.988281 13 Z M 8.488281 13 C 8.214844 13.007812 8 13.226562 8 13.5 C 8 13.542969 8.007812 13.582031 8.015625 13.621094 C 8.070312 13.410156 8.261719 13.253906 8.488281 13.25 C 8.492188 13.25 8.496094 13.25 8.5 13.25 L 9.5 13.25 C 9.734375 13.25 9.925781 13.40625 9.984375 13.621094 C 9.992188 13.582031 10 13.542969 10 13.5 C 10 13.222656 9.777344 13 9.5 13 L 8.5 13 C 8.496094 13 8.492188 13 8.488281 13 Z M 11.488281 13 C 11.214844 13.007812 11 13.226562 11 13.5 C 11 13.542969 11.007812 13.582031 11.015625 13.621094 C 11.070312 13.410156 11.261719 13.253906 11.488281 13.25 C 11.492188 13.25 11.496094 13.25 11.5 13.25 L 12.5 13.25 C 12.734375 13.25 12.925781 13.40625 12.984375 13.621094 C 12.992188 13.582031 13 13.542969 13 13.5 C 13 13.222656 12.777344 13 12.5 13 L 11.5 13 C 11.496094 13 11.492188 13 11.488281 13 Z M 11.488281 13 "/>
<path style=" stroke:none;fill-rule:nonzero;fill:rgb(100%,100%,100%);fill-opacity:0.4;" d="M 3.488281 7 C 3.214844 7.007812 3 7.226562 3 7.5 C 3 7.542969 3.007812 7.585938 3.015625 7.625 C 3.070312 7.410156 3.257812 7.253906 3.488281 7.25 C 3.492188 7.25 3.496094 7.25 3.5 7.25 L 4.5 7.25 C 4.734375 7.25 4.929688 7.40625 4.984375 7.625 C 4.992188 7.582031 5 7.542969 5 7.5 C 5 7.222656 4.777344 7 4.5 7 L 3.5 7 C 3.496094 7 3.492188 7 3.488281 7 Z M 5.988281 7 C 5.714844 7.007812 5.5 7.226562 5.5 7.5 C 5.5 7.542969 5.507812 7.585938 5.515625 7.625 C 5.570312 7.410156 5.757812 7.253906 5.988281 7.25 C 5.992188 7.25 5.996094 7.25 6 7.25 L 7 7.25 C 7.234375 7.25 7.429688 7.40625 7.484375 7.625 C 7.492188 7.582031 7.5 7.542969 7.5 7.5 C 7.5 7.222656 7.277344 7 7 7 L 6 7 C 5.996094 7 5.992188 7 5.988281 7 Z M 8.488281 7 C 8.214844 7.007812 8 7.226562 8 7.5 C 8 7.542969 8.007812 7.585938 8.015625 7.625 C 8.070312 7.410156 8.257812 7.253906 8.488281 7.25 C 8.492188 7.25 8.496094 7.25 8.5 7.25 L 9.5 7.25 C 9.734375 7.25 9.929688 7.40625 9.984375 7.625 C 9.992188 7.582031 10 7.542969 10 7.5 C 10 7.222656 9.777344 7 9.5 7 L 8.5 7 C 8.496094 7 8.492188 7 8.488281 7 Z M 8.488281 7 "/>
<path style=" stroke:none;fill-rule:nonzero;fill:rgb(0%,0%,0%);fill-opacity:0.4;" d="M 3.488281 8.25 C 3.214844 8.242188 3 8.019531 3 7.75 C 3 7.707031 3.007812 7.664062 3.015625 7.625 C 3.070312 7.835938 3.257812 7.992188 3.488281 8 C 3.492188 8 3.496094 8 3.5 8 L 4.5 8 C 4.734375 8 4.929688 7.839844 4.984375 7.625 C 4.992188 7.664062 5 7.707031 5 7.75 C 5 8.027344 4.777344 8.25 4.5 8.25 L 3.5 8.25 C 3.496094 8.25 3.492188 8.25 3.488281 8.25 Z M 5.988281 8.25 C 5.714844 8.242188 5.5 8.019531 5.5 7.75 C 5.5 7.707031 5.507812 7.664062 5.515625 7.625 C 5.570312 7.835938 5.757812 7.992188 5.988281 8 C 5.992188 8 5.996094 8 6 8 L 7 8 C 7.234375 8 7.429688 7.839844 7.484375 7.625 C 7.492188 7.664062 7.5 7.707031 7.5 7.75 C 7.5 8.027344 7.277344 8.25 7 8.25 L 6 8.25 C 5.996094 8.25 5.992188 8.25 5.988281 8.25 Z M 8.488281 8.25 C 8.214844 8.242188 8 8.019531 8 7.75 C 8 7.707031 8.007812 7.664062 8.015625 7.625 C 8.070312 7.835938 8.257812 7.992188 8.488281 8 C 8.492188 8 8.496094 8 8.5 8 L 9.5 8 C 9.734375 8 9.929688 7.839844 9.984375 7.625 C 9.992188 7.664062 10 7.707031 10 7.75 C 10 8.027344 9.777344 8.25 9.5 8.25 L 8.5 8.25 C 8.496094 8.25 8.492188 8.25 8.488281 8.25 Z M 8.488281 8.25 "/>
<path style=" stroke:none;fill-rule:nonzero;fill:rgb(99.607843%,99.607843%,99.607843%);fill-opacity:0.4;" d="M 2.5 6 L 13.5 6 L 13.5 6.25 L 2.5 6.25 Z M 2.5 6 "/>
<path style=" stroke:none;fill-rule:nonzero;fill:rgb(0%,0%,0%);fill-opacity:0.4;" d="M 2.5 5.871094 L 13.5 5.871094 L 13.5 6.121094 L 2.5 6.121094 Z M 2.5 5.871094 "/>
<path style=" stroke:none;fill-rule:nonzero;fill:url(#linear0);" d="M 3.5 1 L 12.5 1 C 13.050781 1 13.5 1.449219 13.5 2 L 13.5 14 C 13.5 14.550781 13.050781 15 12.5 15 L 3.5 15 C 2.949219 15 2.5 14.550781 2.5 14 L 2.5 2 C 2.5 1.449219 2.949219 1 3.5 1 Z M 3.5 1 "/>
<path style=" stroke:none;fill-rule:nonzero;fill:rgb(40.000001%,73.333335%,41.568628%);fill-opacity:0.996078;" d="M 11.5 2.5 C 11.222656 2.5 11 2.722656 11 3 L 11 3.375 L 11.375 3.375 L 11.375 3.125 C 11.375 2.988281 11.488281 2.875 11.625 2.875 L 11.625 2.5 Z M 11.875 2.5 L 11.875 2.875 C 12.011719 2.875 12.125 2.988281 12.125 3.125 L 12.125 3.375 L 12.5 3.375 L 12.5 3 C 12.5 2.722656 12.277344 2.5 12 2.5 Z M 11 3.625 L 11 4 C 11 4.277344 11.222656 4.5 11.5 4.5 L 11.625 4.5 L 11.625 4.125 C 11.488281 4.125 11.375 4.011719 11.375 3.875 L 11.375 3.625 Z M 12.125 3.625 L 12.125 3.875 C 12.125 4.011719 12.011719 4.125 11.875 4.125 L 11.875 4.5 L 12 4.5 C 12.277344 4.5 12.5 4.277344 12.5 4 L 12.5 3.625 Z M 12.125 3.625 "/>
</g>
</svg>
