
<svg xmlns="http://www.w3.org/2000/svg" xmlns:xlink="http://www.w3.org/1999/xlink" width="48" height="48" viewBox="0 0 48 48" version="1.1">
<defs>
<linearGradient id="linear0" gradientUnits="userSpaceOnUse" x1="31.999998" y1="60" x2="31.999998" y2="4" gradientTransform="matrix(0.75,0,0,0.75,-0.00000204095,0.000000000000085265)">
<stop offset="0" style="stop-color:rgb(0%,0%,0%);stop-opacity:0.2;"/>
<stop offset="1" style="stop-color:rgb(100%,100%,100%);stop-opacity:0;"/>
</linearGradient>
</defs>
<g id="surface1">
<path style=" stroke:none;fill-rule:nonzero;fill:rgb(47.058824%,56.470591%,61.176473%);fill-opacity:1;" d="M 30 3 L 9.75 3 C 8.503906 3 7.5 4.003906 7.5 5.25 L 7.5 42.75 C 7.5 43.996094 8.503906 45 9.75 45 L 38.25 45 C 39.496094 45 40.5 43.996094 40.5 42.75 L 40.5 13.5 Z M 30 3 "/>
<path style=" stroke:none;fill-rule:nonzero;fill:rgb(0%,0%,0%);fill-opacity:0.4;" d="M 30 11.25 L 30 12 C 30 13.246094 31.003906 14.25 32.25 14.25 L 40.5 14.25 L 39.75 13.5 L 32.25 13.5 C 31.003906 13.5 30 12.496094 30 11.25 Z M 30 11.25 "/>
<path style=" stroke:none;fill-rule:nonzero;fill:rgb(56.470591%,64.313728%,68.235296%);fill-opacity:0.996078;" d="M 40.5 13.5 L 30 3 L 30 11.25 C 30 12.496094 31.003906 13.5 32.25 13.5 Z M 40.5 13.5 "/>
<path style=" stroke:none;fill-rule:nonzero;fill:rgb(100%,100%,100%);fill-opacity:0.4;" d="M 9.75 3 C 8.503906 3 7.5 4.003906 7.5 5.25 L 7.5 6 C 7.5 4.753906 8.503906 3.75 9.75 3.75 L 30 3.75 L 40.5 14.25 L 40.5 13.5 L 30 3 Z M 9.75 3 "/>
<path style=" stroke:none;fill-rule:nonzero;fill:rgb(0%,0%,0%);fill-opacity:0.2;" d="M 7.5 42.738281 L 7.5 43.875 C 7.5 45.121094 8.503906 46.125 9.75 46.125 L 38.25 46.125 C 39.496094 46.125 40.5 45.121094 40.5 43.875 L 40.5 42.738281 C 40.5 43.984375 39.496094 44.988281 38.25 44.988281 L 9.75 44.988281 C 8.503906 44.988281 7.5 43.984375 7.5 42.738281 Z M 7.5 42.738281 "/>
<path style=" stroke:none;fill-rule:nonzero;fill:rgb(0%,0%,0%);fill-opacity:0.4;" d="M 7.5 42.09375 L 7.5 42.75 C 7.5 43.996094 8.503906 45 9.75 45 L 38.25 45 C 39.496094 45 40.5 43.996094 40.5 42.75 L 40.5 42.09375 C 40.5 43.339844 39.496094 44.34375 38.25 44.34375 L 9.75 44.34375 C 8.503906 44.34375 7.5 43.339844 7.5 42.09375 Z M 7.5 42.09375 "/>
<path style=" stroke:none;fill-rule:nonzero;fill:rgb(69.01961%,74.509805%,77.254903%);fill-opacity:1;" d="M 20.378906 18.117188 C 20.316406 18.117188 20.257812 18.136719 20.199219 18.167969 L 19.550781 18.542969 C 19.371094 18.648438 19.308594 18.875 19.414062 19.054688 L 23.132812 25.5 L 19.414062 31.945312 C 19.308594 32.125 19.371094 32.351562 19.550781 32.457031 L 20.199219 32.832031 C 20.378906 32.933594 20.609375 32.875 20.710938 32.695312 L 24 27 L 27.289062 32.695312 C 27.390625 32.875 27.621094 32.933594 27.800781 32.832031 L 28.449219 32.457031 C 28.628906 32.351562 28.691406 32.125 28.585938 31.945312 L 24.867188 25.5 L 28.585938 19.054688 C 28.691406 18.875 28.628906 18.648438 28.449219 18.542969 L 27.800781 18.167969 C 27.621094 18.066406 27.390625 18.125 27.289062 18.304688 L 24 24 L 20.710938 18.304688 C 20.640625 18.179688 20.511719 18.113281 20.378906 18.117188 Z M 20.378906 18.117188 "/>
<path style=" stroke:none;fill-rule:nonzero;fill:rgb(100%,100%,100%);fill-opacity:0.4;" d="M 20.378906 18.117188 C 20.316406 18.117188 20.257812 18.136719 20.199219 18.167969 L 19.550781 18.542969 C 19.371094 18.648438 19.308594 18.875 19.414062 19.054688 L 19.429688 19.085938 C 19.460938 19.042969 19.5 19.003906 19.550781 18.976562 L 20.199219 18.601562 C 20.257812 18.570312 20.316406 18.550781 20.378906 18.550781 C 20.511719 18.546875 20.640625 18.613281 20.710938 18.738281 L 24 24.433594 L 27.289062 18.738281 C 27.390625 18.558594 27.621094 18.5 27.800781 18.601562 L 28.449219 18.976562 C 28.5 19.003906 28.539062 19.042969 28.570312 19.085938 L 28.585938 19.054688 C 28.691406 18.875 28.628906 18.648438 28.449219 18.542969 L 27.800781 18.167969 C 27.621094 18.066406 27.390625 18.125 27.289062 18.304688 L 24 24 L 20.710938 18.304688 C 20.640625 18.179688 20.511719 18.113281 20.378906 18.117188 Z M 23.011719 25.714844 L 19.414062 31.945312 C 19.339844 32.078125 19.351562 32.234375 19.429688 32.347656 L 23.132812 25.933594 Z M 24.988281 25.714844 L 24.867188 25.933594 L 28.570312 32.347656 C 28.648438 32.234375 28.660156 32.078125 28.585938 31.945312 Z M 24.988281 25.714844 "/>
<path style=" stroke:none;fill-rule:nonzero;fill:rgb(0.784314%,0.784314%,0.784314%);fill-opacity:0.4;" d="M 20.378906 33.3125 C 20.316406 33.308594 20.257812 33.292969 20.199219 33.261719 L 19.550781 32.886719 C 19.371094 32.78125 19.308594 32.554688 19.414062 32.375 L 19.429688 32.34375 C 19.460938 32.386719 19.5 32.421875 19.550781 32.453125 L 20.199219 32.828125 C 20.257812 32.859375 20.316406 32.875 20.378906 32.878906 C 20.511719 32.882812 20.640625 32.8125 20.710938 32.691406 L 24 26.992188 L 27.289062 32.691406 C 27.390625 32.871094 27.621094 32.929688 27.800781 32.828125 L 28.449219 32.453125 C 28.5 32.421875 28.539062 32.386719 28.570312 32.34375 L 28.585938 32.375 C 28.691406 32.554688 28.628906 32.78125 28.449219 32.886719 L 27.800781 33.261719 C 27.621094 33.363281 27.390625 33.304688 27.289062 33.125 L 24 27.429688 L 20.710938 33.125 C 20.640625 33.25 20.511719 33.316406 20.378906 33.3125 Z M 23.011719 25.710938 L 19.414062 19.484375 C 19.339844 19.351562 19.351562 19.195312 19.429688 19.082031 L 23.132812 25.496094 Z M 24.992188 25.710938 L 24.867188 25.496094 L 28.570312 19.082031 C 28.648438 19.195312 28.660156 19.351562 28.585938 19.484375 Z M 24.992188 25.710938 "/>
<path style=" stroke:none;fill-rule:nonzero;fill:url(#linear0);" d="M 30 3 L 9.75 3 C 8.503906 3 7.5 4.003906 7.5 5.25 L 7.5 42.75 C 7.5 43.996094 8.503906 45 9.75 45 L 38.25 45 C 39.496094 45 40.5 43.996094 40.5 42.75 L 40.5 13.5 Z M 30 3 "/>
</g>
</svg>
