
<svg xmlns="http://www.w3.org/2000/svg" xmlns:xlink="http://www.w3.org/1999/xlink" width="24" height="24" viewBox="0 0 24 24" version="1.1">
<defs>
<linearGradient id="linear0" gradientUnits="userSpaceOnUse" x1="10.054166" y1="-209.708328" x2="10.054166" y2="-212.883331" gradientTransform="matrix(1.417323,0,0,1.417323,0,304.724425)">
<stop offset="0" style="stop-color:rgb(0%,0%,0%);stop-opacity:0.2;"/>
<stop offset="1" style="stop-color:rgb(100%,100%,100%);stop-opacity:0;"/>
</linearGradient>
<linearGradient id="linear1" gradientUnits="userSpaceOnUse" x1="8.995832" y1="-200.183334" x2="8.995832" y2="-211.824997" gradientTransform="matrix(1.417323,0,0,1.417323,0,304.724425)">
<stop offset="0" style="stop-color:rgb(0%,0%,0%);stop-opacity:0.2;"/>
<stop offset="1" style="stop-color:rgb(100%,100%,100%);stop-opacity:0;"/>
</linearGradient>
</defs>
<g id="surface1">
<path style=" stroke:none;fill-rule:nonzero;fill:rgb(100%,75.686276%,2.745098%);fill-opacity:1;" d="M 7.5 3 L 21 3 C 21.828125 3 22.5 3.671875 22.5 4.5 L 22.5 9 C 22.5 9.828125 21.828125 10.5 21 10.5 L 7.5 10.5 C 6.671875 10.5 6 9.828125 6 9 L 6 4.5 C 6 3.671875 6.671875 3 7.5 3 Z M 7.5 3 "/>
<path style=" stroke:none;fill-rule:nonzero;fill:url(#linear0);" d="M 7.5 3 L 21 3 C 21.828125 3 22.5 3.671875 22.5 4.5 L 22.5 9 C 22.5 9.828125 21.828125 10.5 21 10.5 L 7.5 10.5 C 6.671875 10.5 6 9.828125 6 9 L 6 4.5 C 6 3.671875 6.671875 3 7.5 3 Z M 7.5 3 "/>
<path style=" stroke:none;fill-rule:nonzero;fill:rgb(100%,79.215688%,15.686275%);fill-opacity:1;" d="M 3 4.5 C 2.167969 4.5 1.5 5.167969 1.5 6 L 1.5 19.5 C 1.5 20.332031 2.167969 21 3 21 L 21 21 C 21.832031 21 22.5 20.332031 22.5 19.5 L 22.5 7.5 L 7.5 7.5 C 6.667969 7.5 6 6.832031 6 6 L 6 4.5 Z M 3 4.5 "/>
<path style=" stroke:none;fill-rule:nonzero;fill:rgb(100%,79.215688%,15.686275%);fill-opacity:1;" d="M 3 4.5 C 2.167969 4.5 1.5 5.167969 1.5 6 L 1.5 19.5 C 1.5 20.332031 2.167969 21 3 21 L 21 21 C 21.832031 21 22.5 20.332031 22.5 19.5 L 22.5 7.5 L 7.5 7.5 C 6.667969 7.5 6 6.832031 6 6 L 6 4.5 Z M 3 4.5 "/>
<path style=" stroke:none;fill-rule:nonzero;fill:rgb(0.392157%,0.392157%,0.392157%);fill-opacity:0.4;" d="M 3 20.996094 C 2.167969 20.996094 1.5 20.328125 1.5 19.496094 L 1.5 19.132812 C 1.5 19.964844 2.167969 20.632812 3 20.632812 L 21 20.632812 C 21.832031 20.632812 22.5 19.964844 22.5 19.132812 L 22.5 19.496094 C 22.5 20.328125 21.832031 20.996094 21 20.996094 Z M 3 20.996094 "/>
<path style=" stroke:none;fill-rule:nonzero;fill:rgb(0%,0%,0%);fill-opacity:0.2;" d="M 1.5 19.5 L 1.5 20.0625 C 1.5 20.894531 2.167969 21.5625 3 21.5625 L 21 21.5625 C 21.832031 21.5625 22.5 20.894531 22.5 20.0625 L 22.5 19.5 C 22.5 20.332031 21.832031 21 21 21 L 3 21 C 2.167969 21 1.5 20.332031 1.5 19.5 Z M 1.5 19.5 "/>
<path style=" stroke:none;fill-rule:nonzero;fill:rgb(100%,100%,100%);fill-opacity:0.4;" d="M 3 4.5 C 2.167969 4.5 1.5 5.167969 1.5 6 L 1.5 6.375 C 1.5 5.542969 2.167969 4.875 3 4.875 L 6 4.875 L 6 4.5 Z M 6 6 L 6 6.375 C 6 7.207031 6.667969 7.875 7.5 7.875 L 22.5 7.875 L 22.5 7.5 L 7.5 7.5 C 6.667969 7.5 6 6.832031 6 6 Z M 6 6 "/>
<path style=" stroke:none;fill-rule:nonzero;fill:rgb(100%,100%,100%);fill-opacity:0.4;" d="M 7.5 3 C 6.667969 3 6 3.667969 6 4.5 L 6 4.6875 C 6 3.855469 6.667969 3.1875 7.5 3.1875 L 21 3.1875 C 21.832031 3.1875 22.5 3.855469 22.5 4.6875 L 22.5 4.5 C 22.5 3.667969 21.832031 3 21 3 Z M 7.5 3 "/>
<path style=" stroke:none;fill-rule:nonzero;fill:rgb(100%,92.54902%,70.19608%);fill-opacity:1;" d="M 12 9.75 C 10.367188 9.75 8.871094 10.324219 7.707031 11.28125 L 8.109375 11.925781 C 9.15625 11.035156 10.511719 10.5 12 10.5 C 13.488281 10.5 14.84375 11.035156 15.890625 11.925781 L 16.292969 11.28125 C 15.128906 10.324219 13.632812 9.75 12 9.75 Z M 12 11.25 C 10.660156 11.25 9.4375 11.75 8.511719 12.570312 L 8.917969 13.21875 C 9.722656 12.460938 10.804688 12 12 12 C 13.195312 12 14.277344 12.460938 15.082031 13.21875 L 15.488281 12.570312 C 14.5625 11.75 13.339844 11.25 12 11.25 Z M 12 12.75 C 10.949219 12.75 10.003906 13.179688 9.324219 13.867188 L 9.738281 14.53125 C 10.285156 13.898438 11.09375 13.5 12 13.5 C 12.90625 13.5 13.714844 13.898438 14.261719 14.53125 L 14.675781 13.867188 C 13.996094 13.179688 13.050781 12.75 12 12.75 Z M 12 14.25 C 11.167969 14.25 10.5 14.917969 10.5 15.75 C 10.5 16.582031 11.167969 17.25 12 17.25 C 12.832031 17.25 13.5 16.582031 13.5 15.75 C 13.5 14.917969 12.832031 14.25 12 14.25 Z M 11.980469 15 C 11.988281 15 11.992188 15 12 15 C 12.414062 15 12.75 15.335938 12.75 15.75 C 12.75 16.164062 12.414062 16.5 12 16.5 C 11.585938 16.5 11.25 16.164062 11.25 15.75 C 11.25 15.339844 11.574219 15.011719 11.980469 15 Z M 11.980469 15 "/>
<path style=" stroke:none;fill-rule:nonzero;fill:rgb(100%,100%,100%);fill-opacity:0.4;" d="M 12 9.75 C 10.367188 9.75 8.871094 10.324219 7.707031 11.28125 L 7.785156 11.40625 C 8.9375 10.488281 10.402344 9.9375 12 9.9375 C 13.597656 9.9375 15.0625 10.488281 16.214844 11.40625 L 16.292969 11.28125 C 15.128906 10.324219 13.632812 9.75 12 9.75 Z M 12 11.25 C 10.660156 11.25 9.4375 11.75 8.511719 12.570312 L 8.589844 12.691406 C 9.503906 11.910156 10.695312 11.4375 12 11.4375 C 13.304688 11.4375 14.496094 11.910156 15.410156 12.691406 L 15.488281 12.570312 C 14.5625 11.75 13.339844 11.25 12 11.25 Z M 12 12.75 C 10.949219 12.75 10.003906 13.179688 9.324219 13.867188 L 9.398438 13.984375 C 10.070312 13.335938 10.988281 12.9375 12 12.9375 C 13.011719 12.9375 13.929688 13.335938 14.601562 13.984375 L 14.675781 13.867188 C 13.996094 13.179688 13.050781 12.75 12 12.75 Z M 12 14.25 C 11.167969 14.25 10.5 14.917969 10.5 15.75 C 10.5 15.777344 10.503906 15.804688 10.503906 15.832031 C 10.558594 15.050781 11.203125 14.4375 12 14.4375 C 12.796875 14.4375 13.441406 15.050781 13.496094 15.832031 C 13.496094 15.804688 13.5 15.777344 13.5 15.75 C 13.5 14.917969 12.832031 14.25 12 14.25 Z M 11.257812 15.84375 C 11.25 15.875 11.25 15.90625 11.25 15.9375 C 11.25 16.351562 11.585938 16.6875 12 16.6875 C 12.414062 16.6875 12.75 16.351562 12.75 15.9375 C 12.75 15.90625 12.75 15.875 12.742188 15.84375 C 12.699219 16.214844 12.382812 16.5 12 16.5 C 11.617188 16.5 11.300781 16.214844 11.257812 15.84375 Z M 11.257812 15.84375 "/>
<path style=" stroke:none;fill-rule:nonzero;fill:rgb(0.784314%,0.784314%,0.784314%);fill-opacity:0.4;" d="M 12 10.5 C 10.511719 10.5 9.15625 11.035156 8.109375 11.925781 L 7.785156 11.40625 C 7.757812 11.425781 7.734375 11.449219 7.707031 11.46875 L 8.109375 12.113281 C 9.15625 11.222656 10.511719 10.6875 12 10.6875 C 13.488281 10.6875 14.84375 11.222656 15.890625 12.113281 L 16.292969 11.46875 C 16.265625 11.449219 16.242188 11.425781 16.214844 11.40625 L 15.890625 11.925781 C 14.84375 11.035156 13.488281 10.5 12 10.5 Z M 12 12 C 10.804688 12 9.722656 12.460938 8.917969 13.21875 L 8.589844 12.691406 C 8.5625 12.714844 8.539062 12.734375 8.511719 12.757812 L 8.917969 13.40625 C 9.722656 12.648438 10.804688 12.1875 12 12.1875 C 13.195312 12.1875 14.277344 12.648438 15.082031 13.40625 L 15.488281 12.757812 C 15.460938 12.734375 15.4375 12.714844 15.410156 12.691406 L 15.082031 13.21875 C 14.277344 12.460938 13.195312 12 12 12 Z M 12 13.5 C 11.09375 13.5 10.285156 13.898438 9.738281 14.53125 L 9.398438 13.984375 C 9.371094 14.007812 9.347656 14.03125 9.324219 14.054688 L 9.738281 14.71875 C 10.285156 14.085938 11.09375 13.6875 12 13.6875 C 12.90625 13.6875 13.714844 14.085938 14.261719 14.71875 L 14.675781 14.054688 C 14.652344 14.03125 14.628906 14.007812 14.601562 13.984375 L 14.261719 14.53125 C 13.714844 13.898438 12.90625 13.5 12 13.5 Z M 11.980469 15 C 11.574219 15.011719 11.25 15.339844 11.25 15.75 C 11.25 15.78125 11.253906 15.8125 11.257812 15.84375 C 11.300781 15.480469 11.605469 15.195312 11.980469 15.1875 C 11.988281 15.1875 11.992188 15.1875 12 15.1875 C 12.382812 15.1875 12.699219 15.472656 12.742188 15.84375 C 12.746094 15.8125 12.75 15.78125 12.75 15.75 C 12.75 15.335938 12.414062 15 12 15 C 11.992188 15 11.988281 15 11.980469 15 Z M 10.503906 15.84375 C 10.5 15.875 10.5 15.90625 10.5 15.9375 C 10.5 16.769531 11.167969 17.4375 12 17.4375 C 12.832031 17.4375 13.5 16.769531 13.5 15.9375 C 13.5 15.90625 13.5 15.875 13.496094 15.84375 C 13.449219 16.628906 12.800781 17.25 12 17.25 C 11.199219 17.25 10.550781 16.628906 10.503906 15.84375 Z M 10.503906 15.84375 "/>
<path style=" stroke:none;fill-rule:nonzero;fill:url(#linear1);" d="M 3 4.5 C 2.167969 4.5 1.5 5.167969 1.5 6 L 1.5 19.5 C 1.5 20.332031 2.167969 21 3 21 L 21 21 C 21.832031 21 22.5 20.332031 22.5 19.5 L 22.5 7.5 L 7.5 7.5 C 6.667969 7.5 6 6.832031 6 6 L 6 4.5 Z M 3 4.5 "/>
</g>
</svg>
