
<svg xmlns="http://www.w3.org/2000/svg" xmlns:xlink="http://www.w3.org/1999/xlink" width="16" height="16" viewBox="0 0 16 16" version="1.1">
<defs>
<linearGradient id="linear0" gradientUnits="userSpaceOnUse" x1="10.054166" y1="-199.125" x2="10.054166" y2="-213.941666" gradientTransform="matrix(0.944882,0,0,0.944882,-0.000316144,203.149617)">
<stop offset="0" style="stop-color:rgb(0%,0%,0%);stop-opacity:0.2;"/>
<stop offset="1" style="stop-color:rgb(100%,100%,100%);stop-opacity:0;"/>
</linearGradient>
</defs>
<g id="surface1">
<path style="fill:none;stroke-width:0.264583;stroke-linecap:butt;stroke-linejoin:miter;stroke:rgb(0%,0%,0%);stroke-opacity:1;stroke-miterlimit:4;" d="M 7.408333 -211.192481 L 9.524999 -211.192481 L 8.466666 -206.429981 Z M 7.408333 -211.192481 " transform="matrix(0.944882,0,0,0.944882,0,203.149617)"/>
<path style=" stroke:none;fill-rule:nonzero;fill:rgb(87.843138%,87.843138%,87.843138%);fill-opacity:1;" d="M 2 1 L 14 1 C 14.550781 1 15 1.449219 15 2 L 15 14 C 15 14.550781 14.550781 15 14 15 L 2 15 C 1.449219 15 1 14.550781 1 14 L 1 2 C 1 1.449219 1.449219 1 2 1 Z M 2 1 "/>
<path style=" stroke:none;fill-rule:nonzero;fill:rgb(0%,0%,0%);fill-opacity:0.4;" d="M 1 13.75 L 1 14 C 1 14.554688 1.445312 15 2 15 L 14 15 C 14.554688 15 15 14.554688 15 14 L 15 13.75 C 15 14.304688 14.554688 14.75 14 14.75 L 2 14.75 C 1.445312 14.75 1 14.304688 1 13.75 Z M 1 13.75 "/>
<path style=" stroke:none;fill-rule:nonzero;fill:rgb(0%,0%,0%);fill-opacity:0.2;" d="M 1 14 L 1 14.375 C 1 14.929688 1.445312 15.375 2 15.375 L 14 15.375 C 14.554688 15.375 15 14.929688 15 14.375 L 15 14 C 15 14.554688 14.554688 15 14 15 L 2 15 C 1.445312 15 1 14.554688 1 14 Z M 1 14 "/>
<path style=" stroke:none;fill-rule:nonzero;fill:rgb(100%,100%,100%);fill-opacity:0.4;" d="M 2 1 C 1.445312 1 1 1.445312 1 2 L 1 2.246094 C 1 1.691406 1.445312 1.246094 2 1.246094 L 14 1.246094 C 14.554688 1.246094 15 1.691406 15 2.246094 L 15 2 C 15 1.445312 14.554688 1 14 1 Z M 2 1 "/>
<path style=" stroke:none;fill-rule:nonzero;fill:rgb(93.333334%,93.333334%,93.333334%);fill-opacity:1;" d="M 8 2.5 C 5.789062 2.5 3.722656 3.09375 1.949219 4.128906 L 3.96875 7.585938 C 5.148438 6.894531 6.527344 6.5 8 6.5 C 9.472656 6.5 10.851562 6.894531 12.035156 7.585938 L 14.050781 4.128906 C 12.277344 3.09375 10.210938 2.5 8 2.5 Z M 8 2.5 "/>
<path style=" stroke:none;fill-rule:nonzero;fill:rgb(95.686275%,26.274511%,21.176471%);fill-opacity:1;" d="M 9.960938 2.660156 L 8.984375 6.558594 C 10.085938 6.695312 11.117188 7.050781 12.03125 7.585938 L 14.050781 4.128906 C 12.8125 3.40625 11.433594 2.898438 9.960938 2.660156 Z M 9.960938 2.660156 "/>
<path style=" stroke:none;fill-rule:nonzero;fill:rgb(0%,0%,0%);fill-opacity:0.4;" d="M 8 2.5 C 5.789062 2.5 3.722656 3.09375 1.949219 4.128906 L 2.058594 4.316406 C 3.808594 3.320312 5.835938 2.75 8 2.75 C 10.164062 2.75 12.191406 3.320312 13.941406 4.316406 L 14.050781 4.128906 C 12.277344 3.09375 10.210938 2.5 8 2.5 Z M 8 2.5 "/>
<path style=" stroke:none;fill-rule:nonzero;fill:rgb(100%,100%,100%);fill-opacity:0.6;" d="M 2.058594 4.304688 C 2.023438 4.328125 1.984375 4.347656 1.949219 4.367188 L 3.96875 7.824219 C 5.148438 7.136719 6.527344 6.738281 8 6.738281 C 9.472656 6.738281 10.851562 7.136719 12.03125 7.824219 L 14.050781 4.367188 C 14.015625 4.347656 13.976562 4.328125 13.941406 4.304688 L 12.03125 7.578125 C 10.851562 6.886719 9.472656 6.492188 8 6.492188 C 6.527344 6.492188 5.148438 6.886719 3.96875 7.578125 Z M 2.058594 4.304688 "/>
<path style=" stroke:none;fill-rule:nonzero;fill:rgb(38.039216%,38.039216%,38.039216%);fill-opacity:0.996078;" d="M 2.5 8.5 L 13.5 8.5 C 13.777344 8.5 14 8.722656 14 9 L 14 13.5 C 14 13.777344 13.777344 14 13.5 14 L 2.5 14 C 2.222656 14 2 13.777344 2 13.5 L 2 9 C 2 8.722656 2.222656 8.5 2.5 8.5 Z M 2.5 8.5 "/>
<path style=" stroke:none;fill-rule:nonzero;fill:rgb(100%,100%,100%);fill-opacity:0.4;" d="M 2.5 8.5 C 2.222656 8.5 2 8.722656 2 9 L 2 9.25 C 2 8.972656 2.222656 8.75 2.5 8.75 L 13.5 8.75 C 13.777344 8.75 14 8.972656 14 9.25 L 14 9 C 14 8.722656 13.777344 8.5 13.5 8.5 Z M 2.5 8.5 "/>
<path style=" stroke:none;fill-rule:nonzero;fill:rgb(0%,0%,0%);fill-opacity:0.4;" d="M 2.5 14.25 C 2.222656 14.25 2 14.027344 2 13.75 L 2 13.5 C 2 13.777344 2.222656 14 2.5 14 L 13.5 14 C 13.777344 14 14 13.777344 14 13.5 L 14 13.75 C 14 14.027344 13.777344 14.25 13.5 14.25 Z M 2.5 14.25 "/>
<path style=" stroke:none;fill-rule:nonzero;fill:rgb(40.000001%,73.333335%,41.568628%);fill-opacity:1;" d="M 10.25 4.101562 L 8.050781 6.5 C 8.53125 6.503906 9 6.546875 9.453125 6.632812 Z M 10.25 4.101562 "/>
<path style=" stroke:none;fill-rule:nonzero;fill:rgb(100%,100%,100%);fill-opacity:0.4;" d="M 10.25 4.101562 L 8.050781 6.5 C 8.082031 6.5 8.117188 6.5 8.148438 6.5 L 10.199219 4.265625 Z M 10.25 4.101562 "/>
<path style=" stroke:none;fill-rule:nonzero;fill:rgb(0%,0%,0%);fill-opacity:0.4;" d="M 10.25 4.25 L 10.179688 4.328125 L 9.453125 6.632812 C 9.46875 6.632812 9.484375 6.636719 9.5 6.640625 Z M 9.117188 6.578125 C 9.136719 6.582031 9.15625 6.582031 9.175781 6.585938 C 9.15625 6.582031 9.136719 6.582031 9.117188 6.578125 Z M 9.117188 6.578125 "/>
<path style=" stroke:none;fill-rule:nonzero;fill:rgb(0%,0%,0%);fill-opacity:0.4;" d="M 2.5 9 C 2.636719 9 2.75 9.113281 2.75 9.25 C 2.75 9.386719 2.636719 9.5 2.5 9.5 C 2.363281 9.5 2.25 9.386719 2.25 9.25 C 2.25 9.113281 2.363281 9 2.5 9 Z M 2.5 9 "/>
<path style=" stroke:none;fill-rule:nonzero;fill:rgb(0%,0%,0%);fill-opacity:0.4;" d="M 2.492188 9 C 2.359375 9.003906 2.25 9.113281 2.25 9.25 C 2.25 9.273438 2.253906 9.292969 2.257812 9.3125 C 2.285156 9.203125 2.382812 9.125 2.5 9.125 C 2.617188 9.125 2.714844 9.203125 2.742188 9.3125 C 2.746094 9.292969 2.75 9.273438 2.75 9.25 C 2.75 9.113281 2.636719 9 2.5 9 C 2.496094 9 2.496094 9 2.492188 9 Z M 2.492188 9 "/>
<path style=" stroke:none;fill-rule:nonzero;fill:rgb(100%,100%,100%);fill-opacity:0.4;" d="M 2.492188 9.625 C 2.359375 9.621094 2.25 9.511719 2.25 9.375 C 2.25 9.351562 2.253906 9.332031 2.257812 9.3125 C 2.285156 9.421875 2.382812 9.5 2.5 9.5 C 2.617188 9.5 2.714844 9.421875 2.742188 9.3125 C 2.746094 9.332031 2.75 9.351562 2.75 9.375 C 2.75 9.511719 2.636719 9.625 2.5 9.625 C 2.496094 9.625 2.496094 9.625 2.492188 9.625 Z M 2.492188 9.625 "/>
<path style=" stroke:none;fill-rule:nonzero;fill:rgb(0%,0%,0%);fill-opacity:0.4;" d="M 3.507812 9 C 3.644531 9 3.757812 9.113281 3.757812 9.25 C 3.757812 9.386719 3.644531 9.5 3.507812 9.5 C 3.371094 9.5 3.257812 9.386719 3.257812 9.25 C 3.257812 9.113281 3.371094 9 3.507812 9 Z M 3.507812 9 "/>
<path style=" stroke:none;fill-rule:nonzero;fill:rgb(0%,0%,0%);fill-opacity:0.4;" d="M 3.5 9 C 3.367188 9.003906 3.257812 9.113281 3.257812 9.25 C 3.257812 9.273438 3.261719 9.292969 3.265625 9.3125 C 3.292969 9.203125 3.390625 9.125 3.507812 9.125 C 3.625 9.125 3.722656 9.203125 3.75 9.3125 C 3.753906 9.292969 3.757812 9.273438 3.757812 9.25 C 3.757812 9.113281 3.644531 9 3.507812 9 C 3.503906 9 3.503906 9 3.5 9 Z M 3.5 9 "/>
<path style=" stroke:none;fill-rule:nonzero;fill:rgb(100%,100%,100%);fill-opacity:0.4;" d="M 3.5 9.625 C 3.367188 9.621094 3.257812 9.511719 3.257812 9.375 C 3.257812 9.351562 3.261719 9.332031 3.265625 9.3125 C 3.292969 9.421875 3.390625 9.5 3.507812 9.5 C 3.625 9.5 3.722656 9.421875 3.75 9.3125 C 3.753906 9.332031 3.757812 9.351562 3.757812 9.375 C 3.757812 9.511719 3.644531 9.625 3.507812 9.625 C 3.503906 9.625 3.503906 9.625 3.5 9.625 Z M 3.5 9.625 "/>
<path style=" stroke:none;fill-rule:nonzero;fill:rgb(0%,0%,0%);fill-opacity:0.4;" d="M 4.507812 9 C 4.644531 9 4.757812 9.113281 4.757812 9.25 C 4.757812 9.386719 4.644531 9.5 4.507812 9.5 C 4.371094 9.5 4.257812 9.386719 4.257812 9.25 C 4.257812 9.113281 4.371094 9 4.507812 9 Z M 4.507812 9 "/>
<path style=" stroke:none;fill-rule:nonzero;fill:rgb(0%,0%,0%);fill-opacity:0.4;" d="M 4.5 9 C 4.367188 9.003906 4.257812 9.113281 4.257812 9.25 C 4.257812 9.273438 4.261719 9.292969 4.265625 9.3125 C 4.292969 9.203125 4.390625 9.125 4.507812 9.125 C 4.625 9.125 4.722656 9.203125 4.75 9.3125 C 4.753906 9.292969 4.757812 9.273438 4.757812 9.25 C 4.757812 9.113281 4.644531 9 4.507812 9 C 4.503906 9 4.503906 9 4.5 9 Z M 4.5 9 "/>
<path style=" stroke:none;fill-rule:nonzero;fill:rgb(100%,100%,100%);fill-opacity:0.4;" d="M 4.5 9.625 C 4.367188 9.621094 4.257812 9.511719 4.257812 9.375 C 4.257812 9.351562 4.261719 9.332031 4.265625 9.3125 C 4.292969 9.421875 4.390625 9.5 4.507812 9.5 C 4.625 9.5 4.722656 9.421875 4.75 9.3125 C 4.753906 9.332031 4.757812 9.351562 4.757812 9.375 C 4.757812 9.511719 4.644531 9.625 4.507812 9.625 C 4.503906 9.625 4.503906 9.625 4.5 9.625 Z M 4.5 9.625 "/>
<path style=" stroke:none;fill-rule:nonzero;fill:rgb(0%,0%,0%);fill-opacity:0.4;" d="M 5.515625 9 C 5.652344 9 5.765625 9.113281 5.765625 9.25 C 5.765625 9.386719 5.652344 9.5 5.515625 9.5 C 5.378906 9.5 5.265625 9.386719 5.265625 9.25 C 5.265625 9.113281 5.378906 9 5.515625 9 Z M 5.515625 9 "/>
<path style=" stroke:none;fill-rule:nonzero;fill:rgb(0%,0%,0%);fill-opacity:0.4;" d="M 5.507812 9 C 5.375 9.003906 5.265625 9.113281 5.265625 9.25 C 5.265625 9.273438 5.269531 9.292969 5.273438 9.3125 C 5.300781 9.203125 5.398438 9.125 5.515625 9.125 C 5.632812 9.125 5.730469 9.203125 5.757812 9.3125 C 5.761719 9.292969 5.765625 9.273438 5.765625 9.25 C 5.765625 9.113281 5.652344 9 5.515625 9 C 5.511719 9 5.511719 9 5.507812 9 Z M 5.507812 9 "/>
<path style=" stroke:none;fill-rule:nonzero;fill:rgb(100%,100%,100%);fill-opacity:0.4;" d="M 5.507812 9.625 C 5.375 9.621094 5.265625 9.511719 5.265625 9.375 C 5.265625 9.351562 5.269531 9.332031 5.273438 9.3125 C 5.300781 9.421875 5.398438 9.5 5.515625 9.5 C 5.632812 9.5 5.730469 9.421875 5.757812 9.3125 C 5.761719 9.332031 5.765625 9.351562 5.765625 9.375 C 5.765625 9.511719 5.652344 9.625 5.515625 9.625 C 5.511719 9.625 5.511719 9.625 5.507812 9.625 Z M 5.507812 9.625 "/>
<path style=" stroke:none;fill-rule:nonzero;fill:rgb(0%,0%,0%);fill-opacity:0.4;" d="M 6.492188 9 C 6.628906 9 6.742188 9.113281 6.742188 9.25 C 6.742188 9.386719 6.628906 9.5 6.492188 9.5 C 6.355469 9.5 6.242188 9.386719 6.242188 9.25 C 6.242188 9.113281 6.355469 9 6.492188 9 Z M 6.492188 9 "/>
<path style=" stroke:none;fill-rule:nonzero;fill:rgb(0%,0%,0%);fill-opacity:0.4;" d="M 6.484375 9 C 6.351562 9.003906 6.242188 9.113281 6.242188 9.25 C 6.242188 9.273438 6.246094 9.292969 6.25 9.3125 C 6.277344 9.203125 6.375 9.125 6.492188 9.125 C 6.609375 9.125 6.707031 9.203125 6.734375 9.3125 C 6.738281 9.292969 6.742188 9.273438 6.742188 9.25 C 6.742188 9.113281 6.628906 9 6.492188 9 C 6.488281 9 6.488281 9 6.484375 9 Z M 6.484375 9 "/>
<path style=" stroke:none;fill-rule:nonzero;fill:rgb(100%,100%,100%);fill-opacity:0.4;" d="M 6.484375 9.625 C 6.351562 9.621094 6.242188 9.511719 6.242188 9.375 C 6.242188 9.351562 6.246094 9.332031 6.25 9.3125 C 6.277344 9.421875 6.375 9.5 6.492188 9.5 C 6.609375 9.5 6.707031 9.421875 6.734375 9.3125 C 6.738281 9.332031 6.742188 9.351562 6.742188 9.375 C 6.742188 9.511719 6.628906 9.625 6.492188 9.625 C 6.488281 9.625 6.488281 9.625 6.484375 9.625 Z M 6.484375 9.625 "/>
<path style=" stroke:none;fill-rule:nonzero;fill:rgb(0%,0%,0%);fill-opacity:0.4;" d="M 7.5 9 C 7.636719 9 7.75 9.113281 7.75 9.25 C 7.75 9.386719 7.636719 9.5 7.5 9.5 C 7.363281 9.5 7.25 9.386719 7.25 9.25 C 7.25 9.113281 7.363281 9 7.5 9 Z M 7.5 9 "/>
<path style=" stroke:none;fill-rule:nonzero;fill:rgb(0%,0%,0%);fill-opacity:0.4;" d="M 7.492188 9 C 7.359375 9.003906 7.25 9.113281 7.25 9.25 C 7.25 9.273438 7.253906 9.292969 7.257812 9.3125 C 7.285156 9.203125 7.382812 9.125 7.5 9.125 C 7.617188 9.125 7.714844 9.203125 7.742188 9.3125 C 7.746094 9.292969 7.75 9.273438 7.75 9.25 C 7.75 9.113281 7.636719 9 7.5 9 C 7.496094 9 7.496094 9 7.492188 9 Z M 7.492188 9 "/>
<path style=" stroke:none;fill-rule:nonzero;fill:rgb(100%,100%,100%);fill-opacity:0.4;" d="M 7.492188 9.625 C 7.359375 9.621094 7.25 9.511719 7.25 9.375 C 7.25 9.351562 7.253906 9.332031 7.257812 9.3125 C 7.285156 9.421875 7.382812 9.5 7.5 9.5 C 7.617188 9.5 7.714844 9.421875 7.742188 9.3125 C 7.746094 9.332031 7.75 9.351562 7.75 9.375 C 7.75 9.511719 7.636719 9.625 7.5 9.625 C 7.496094 9.625 7.496094 9.625 7.492188 9.625 Z M 7.492188 9.625 "/>
<path style=" stroke:none;fill-rule:nonzero;fill:rgb(0%,0%,0%);fill-opacity:0.4;" d="M 8.5 9 C 8.636719 9 8.75 9.113281 8.75 9.25 C 8.75 9.386719 8.636719 9.5 8.5 9.5 C 8.363281 9.5 8.25 9.386719 8.25 9.25 C 8.25 9.113281 8.363281 9 8.5 9 Z M 8.5 9 "/>
<path style=" stroke:none;fill-rule:nonzero;fill:rgb(0%,0%,0%);fill-opacity:0.4;" d="M 8.492188 9 C 8.359375 9.003906 8.25 9.113281 8.25 9.25 C 8.25 9.273438 8.253906 9.292969 8.257812 9.3125 C 8.285156 9.203125 8.382812 9.125 8.5 9.125 C 8.617188 9.125 8.714844 9.203125 8.742188 9.3125 C 8.746094 9.292969 8.75 9.273438 8.75 9.25 C 8.75 9.113281 8.636719 9 8.5 9 C 8.496094 9 8.496094 9 8.492188 9 Z M 8.492188 9 "/>
<path style=" stroke:none;fill-rule:nonzero;fill:rgb(100%,100%,100%);fill-opacity:0.4;" d="M 8.492188 9.625 C 8.359375 9.621094 8.25 9.511719 8.25 9.375 C 8.25 9.351562 8.253906 9.332031 8.257812 9.3125 C 8.285156 9.421875 8.382812 9.5 8.5 9.5 C 8.617188 9.5 8.714844 9.421875 8.742188 9.3125 C 8.746094 9.332031 8.75 9.351562 8.75 9.375 C 8.75 9.511719 8.636719 9.625 8.5 9.625 C 8.496094 9.625 8.496094 9.625 8.492188 9.625 Z M 8.492188 9.625 "/>
<path style=" stroke:none;fill-rule:nonzero;fill:rgb(0%,0%,0%);fill-opacity:0.4;" d="M 9.507812 9 C 9.644531 9 9.757812 9.113281 9.757812 9.25 C 9.757812 9.386719 9.644531 9.5 9.507812 9.5 C 9.371094 9.5 9.257812 9.386719 9.257812 9.25 C 9.257812 9.113281 9.371094 9 9.507812 9 Z M 9.507812 9 "/>
<path style=" stroke:none;fill-rule:nonzero;fill:rgb(0%,0%,0%);fill-opacity:0.4;" d="M 9.5 9 C 9.367188 9.003906 9.257812 9.113281 9.257812 9.25 C 9.257812 9.273438 9.261719 9.292969 9.265625 9.3125 C 9.292969 9.203125 9.390625 9.125 9.507812 9.125 C 9.625 9.125 9.722656 9.203125 9.75 9.3125 C 9.753906 9.292969 9.757812 9.273438 9.757812 9.25 C 9.757812 9.113281 9.644531 9 9.507812 9 C 9.503906 9 9.503906 9 9.5 9 Z M 9.5 9 "/>
<path style=" stroke:none;fill-rule:nonzero;fill:rgb(100%,100%,100%);fill-opacity:0.4;" d="M 9.5 9.625 C 9.367188 9.621094 9.257812 9.511719 9.257812 9.375 C 9.257812 9.351562 9.261719 9.332031 9.265625 9.3125 C 9.292969 9.421875 9.390625 9.5 9.507812 9.5 C 9.625 9.5 9.722656 9.421875 9.75 9.3125 C 9.753906 9.332031 9.757812 9.351562 9.757812 9.375 C 9.757812 9.511719 9.644531 9.625 9.507812 9.625 C 9.503906 9.625 9.503906 9.625 9.5 9.625 Z M 9.5 9.625 "/>
<path style=" stroke:none;fill-rule:nonzero;fill:rgb(0%,0%,0%);fill-opacity:0.4;" d="M 10.492188 9 C 10.628906 9 10.742188 9.113281 10.742188 9.25 C 10.742188 9.386719 10.628906 9.5 10.492188 9.5 C 10.355469 9.5 10.242188 9.386719 10.242188 9.25 C 10.242188 9.113281 10.355469 9 10.492188 9 Z M 10.492188 9 "/>
<path style=" stroke:none;fill-rule:nonzero;fill:rgb(0%,0%,0%);fill-opacity:0.4;" d="M 10.484375 9 C 10.351562 9.003906 10.242188 9.113281 10.242188 9.25 C 10.242188 9.273438 10.246094 9.292969 10.25 9.3125 C 10.277344 9.203125 10.375 9.125 10.492188 9.125 C 10.609375 9.125 10.707031 9.203125 10.734375 9.3125 C 10.738281 9.292969 10.742188 9.273438 10.742188 9.25 C 10.742188 9.113281 10.628906 9 10.492188 9 C 10.488281 9 10.488281 9 10.484375 9 Z M 10.484375 9 "/>
<path style=" stroke:none;fill-rule:nonzero;fill:rgb(100%,100%,100%);fill-opacity:0.4;" d="M 10.484375 9.625 C 10.351562 9.621094 10.242188 9.511719 10.242188 9.375 C 10.242188 9.351562 10.246094 9.332031 10.25 9.3125 C 10.277344 9.421875 10.375 9.5 10.492188 9.5 C 10.609375 9.5 10.707031 9.421875 10.734375 9.3125 C 10.738281 9.332031 10.742188 9.351562 10.742188 9.375 C 10.742188 9.511719 10.628906 9.625 10.492188 9.625 C 10.488281 9.625 10.488281 9.625 10.484375 9.625 Z M 10.484375 9.625 "/>
<path style=" stroke:none;fill-rule:nonzero;fill:rgb(0%,0%,0%);fill-opacity:0.4;" d="M 11.5 9 C 11.636719 9 11.75 9.113281 11.75 9.25 C 11.75 9.386719 11.636719 9.5 11.5 9.5 C 11.363281 9.5 11.25 9.386719 11.25 9.25 C 11.25 9.113281 11.363281 9 11.5 9 Z M 11.5 9 "/>
<path style=" stroke:none;fill-rule:nonzero;fill:rgb(0%,0%,0%);fill-opacity:0.4;" d="M 11.492188 9 C 11.359375 9.003906 11.25 9.113281 11.25 9.25 C 11.25 9.273438 11.253906 9.292969 11.257812 9.3125 C 11.285156 9.203125 11.382812 9.125 11.5 9.125 C 11.617188 9.125 11.714844 9.203125 11.742188 9.3125 C 11.746094 9.292969 11.75 9.273438 11.75 9.25 C 11.75 9.113281 11.636719 9 11.5 9 C 11.496094 9 11.496094 9 11.492188 9 Z M 11.492188 9 "/>
<path style=" stroke:none;fill-rule:nonzero;fill:rgb(100%,100%,100%);fill-opacity:0.4;" d="M 11.492188 9.625 C 11.359375 9.621094 11.25 9.511719 11.25 9.375 C 11.25 9.351562 11.253906 9.332031 11.257812 9.3125 C 11.285156 9.421875 11.382812 9.5 11.5 9.5 C 11.617188 9.5 11.714844 9.421875 11.742188 9.3125 C 11.746094 9.332031 11.75 9.351562 11.75 9.375 C 11.75 9.511719 11.636719 9.625 11.5 9.625 C 11.496094 9.625 11.496094 9.625 11.492188 9.625 Z M 11.492188 9.625 "/>
<path style=" stroke:none;fill-rule:nonzero;fill:rgb(0%,0%,0%);fill-opacity:0.4;" d="M 12.5 9 C 12.636719 9 12.75 9.113281 12.75 9.25 C 12.75 9.386719 12.636719 9.5 12.5 9.5 C 12.363281 9.5 12.25 9.386719 12.25 9.25 C 12.25 9.113281 12.363281 9 12.5 9 Z M 12.5 9 "/>
<path style=" stroke:none;fill-rule:nonzero;fill:rgb(0%,0%,0%);fill-opacity:0.4;" d="M 12.492188 9 C 12.359375 9.003906 12.25 9.113281 12.25 9.25 C 12.25 9.273438 12.253906 9.292969 12.257812 9.3125 C 12.285156 9.203125 12.382812 9.125 12.5 9.125 C 12.617188 9.125 12.714844 9.203125 12.742188 9.3125 C 12.746094 9.292969 12.75 9.273438 12.75 9.25 C 12.75 9.113281 12.636719 9 12.5 9 C 12.496094 9 12.496094 9 12.492188 9 Z M 12.492188 9 "/>
<path style=" stroke:none;fill-rule:nonzero;fill:rgb(100%,100%,100%);fill-opacity:0.4;" d="M 12.492188 9.625 C 12.359375 9.621094 12.25 9.511719 12.25 9.375 C 12.25 9.351562 12.253906 9.332031 12.257812 9.3125 C 12.285156 9.421875 12.382812 9.5 12.5 9.5 C 12.617188 9.5 12.714844 9.421875 12.742188 9.3125 C 12.746094 9.332031 12.75 9.351562 12.75 9.375 C 12.75 9.511719 12.636719 9.625 12.5 9.625 C 12.496094 9.625 12.496094 9.625 12.492188 9.625 Z M 12.492188 9.625 "/>
<path style=" stroke:none;fill-rule:nonzero;fill:rgb(0%,0%,0%);fill-opacity:0.4;" d="M 13.507812 9 C 13.644531 9 13.757812 9.113281 13.757812 9.25 C 13.757812 9.386719 13.644531 9.5 13.507812 9.5 C 13.371094 9.5 13.257812 9.386719 13.257812 9.25 C 13.257812 9.113281 13.371094 9 13.507812 9 Z M 13.507812 9 "/>
<path style=" stroke:none;fill-rule:nonzero;fill:rgb(0%,0%,0%);fill-opacity:0.4;" d="M 13.5 9 C 13.367188 9.003906 13.257812 9.113281 13.257812 9.25 C 13.257812 9.273438 13.261719 9.292969 13.265625 9.3125 C 13.292969 9.203125 13.390625 9.125 13.507812 9.125 C 13.625 9.125 13.722656 9.203125 13.75 9.3125 C 13.753906 9.292969 13.757812 9.273438 13.757812 9.25 C 13.757812 9.113281 13.644531 9 13.507812 9 C 13.503906 9 13.503906 9 13.5 9 Z M 13.5 9 "/>
<path style=" stroke:none;fill-rule:nonzero;fill:rgb(100%,100%,100%);fill-opacity:0.4;" d="M 13.5 9.625 C 13.367188 9.621094 13.257812 9.511719 13.257812 9.375 C 13.257812 9.351562 13.261719 9.332031 13.265625 9.3125 C 13.292969 9.421875 13.390625 9.5 13.507812 9.5 C 13.625 9.5 13.722656 9.421875 13.75 9.3125 C 13.753906 9.332031 13.757812 9.351562 13.757812 9.375 C 13.757812 9.511719 13.644531 9.625 13.507812 9.625 C 13.503906 9.625 13.503906 9.625 13.5 9.625 Z M 13.5 9.625 "/>
<path style=" stroke:none;fill-rule:nonzero;fill:rgb(0%,0%,0%);fill-opacity:0.4;" d="M 2.992188 10 C 3.128906 10 3.242188 10.113281 3.242188 10.25 C 3.242188 10.386719 3.128906 10.5 2.992188 10.5 C 2.855469 10.5 2.742188 10.386719 2.742188 10.25 C 2.742188 10.113281 2.855469 10 2.992188 10 Z M 2.992188 10 "/>
<path style=" stroke:none;fill-rule:nonzero;fill:rgb(0%,0%,0%);fill-opacity:0.4;" d="M 2.984375 10 C 2.851562 10.003906 2.742188 10.113281 2.742188 10.25 C 2.742188 10.273438 2.746094 10.292969 2.75 10.3125 C 2.777344 10.203125 2.875 10.125 2.992188 10.125 C 3.109375 10.125 3.207031 10.203125 3.234375 10.3125 C 3.238281 10.292969 3.242188 10.273438 3.242188 10.25 C 3.242188 10.113281 3.128906 10 2.992188 10 C 2.988281 10 2.988281 10 2.984375 10 Z M 2.984375 10 "/>
<path style=" stroke:none;fill-rule:nonzero;fill:rgb(100%,100%,100%);fill-opacity:0.4;" d="M 2.984375 10.625 C 2.851562 10.621094 2.742188 10.511719 2.742188 10.375 C 2.742188 10.351562 2.746094 10.332031 2.75 10.3125 C 2.777344 10.421875 2.875 10.5 2.992188 10.5 C 3.109375 10.5 3.207031 10.421875 3.234375 10.3125 C 3.238281 10.332031 3.242188 10.351562 3.242188 10.375 C 3.242188 10.511719 3.128906 10.625 2.992188 10.625 C 2.988281 10.625 2.988281 10.625 2.984375 10.625 Z M 2.984375 10.625 "/>
<path style=" stroke:none;fill-rule:nonzero;fill:rgb(0%,0%,0%);fill-opacity:0.4;" d="M 3.992188 10 C 4.128906 10 4.242188 10.113281 4.242188 10.25 C 4.242188 10.386719 4.128906 10.5 3.992188 10.5 C 3.855469 10.5 3.742188 10.386719 3.742188 10.25 C 3.742188 10.113281 3.855469 10 3.992188 10 Z M 3.992188 10 "/>
<path style=" stroke:none;fill-rule:nonzero;fill:rgb(0%,0%,0%);fill-opacity:0.4;" d="M 3.984375 10 C 3.851562 10.003906 3.742188 10.113281 3.742188 10.25 C 3.742188 10.273438 3.746094 10.292969 3.75 10.3125 C 3.777344 10.203125 3.875 10.125 3.992188 10.125 C 4.109375 10.125 4.207031 10.203125 4.234375 10.3125 C 4.238281 10.292969 4.242188 10.273438 4.242188 10.25 C 4.242188 10.113281 4.128906 10 3.992188 10 C 3.988281 10 3.988281 10 3.984375 10 Z M 3.984375 10 "/>
<path style=" stroke:none;fill-rule:nonzero;fill:rgb(100%,100%,100%);fill-opacity:0.4;" d="M 3.984375 10.625 C 3.851562 10.621094 3.742188 10.511719 3.742188 10.375 C 3.742188 10.351562 3.746094 10.332031 3.75 10.3125 C 3.777344 10.421875 3.875 10.5 3.992188 10.5 C 4.109375 10.5 4.207031 10.421875 4.234375 10.3125 C 4.238281 10.332031 4.242188 10.351562 4.242188 10.375 C 4.242188 10.511719 4.128906 10.625 3.992188 10.625 C 3.988281 10.625 3.988281 10.625 3.984375 10.625 Z M 3.984375 10.625 "/>
<path style=" stroke:none;fill-rule:nonzero;fill:rgb(0%,0%,0%);fill-opacity:0.4;" d="M 5 10 C 5.136719 10 5.25 10.113281 5.25 10.25 C 5.25 10.386719 5.136719 10.5 5 10.5 C 4.863281 10.5 4.75 10.386719 4.75 10.25 C 4.75 10.113281 4.863281 10 5 10 Z M 5 10 "/>
<path style=" stroke:none;fill-rule:nonzero;fill:rgb(0%,0%,0%);fill-opacity:0.4;" d="M 4.992188 10 C 4.859375 10.003906 4.75 10.113281 4.75 10.25 C 4.75 10.273438 4.753906 10.292969 4.757812 10.3125 C 4.785156 10.203125 4.882812 10.125 5 10.125 C 5.117188 10.125 5.214844 10.203125 5.242188 10.3125 C 5.246094 10.292969 5.25 10.273438 5.25 10.25 C 5.25 10.113281 5.136719 10 5 10 C 4.996094 10 4.996094 10 4.992188 10 Z M 4.992188 10 "/>
<path style=" stroke:none;fill-rule:nonzero;fill:rgb(100%,100%,100%);fill-opacity:0.4;" d="M 4.992188 10.625 C 4.859375 10.621094 4.75 10.511719 4.75 10.375 C 4.75 10.351562 4.753906 10.332031 4.757812 10.3125 C 4.785156 10.421875 4.882812 10.5 5 10.5 C 5.117188 10.5 5.214844 10.421875 5.242188 10.3125 C 5.246094 10.332031 5.25 10.351562 5.25 10.375 C 5.25 10.511719 5.136719 10.625 5 10.625 C 4.996094 10.625 4.996094 10.625 4.992188 10.625 Z M 4.992188 10.625 "/>
<path style=" stroke:none;fill-rule:nonzero;fill:rgb(0%,0%,0%);fill-opacity:0.4;" d="M 5.976562 10 C 6.113281 10 6.226562 10.113281 6.226562 10.25 C 6.226562 10.386719 6.113281 10.5 5.976562 10.5 C 5.839844 10.5 5.726562 10.386719 5.726562 10.25 C 5.726562 10.113281 5.839844 10 5.976562 10 Z M 5.976562 10 "/>
<path style=" stroke:none;fill-rule:nonzero;fill:rgb(0%,0%,0%);fill-opacity:0.4;" d="M 5.96875 10 C 5.835938 10.003906 5.726562 10.113281 5.726562 10.25 C 5.726562 10.273438 5.730469 10.292969 5.734375 10.3125 C 5.761719 10.203125 5.859375 10.125 5.976562 10.125 C 6.09375 10.125 6.191406 10.203125 6.21875 10.3125 C 6.222656 10.292969 6.226562 10.273438 6.226562 10.25 C 6.226562 10.113281 6.113281 10 5.976562 10 C 5.972656 10 5.972656 10 5.96875 10 Z M 5.96875 10 "/>
<path style=" stroke:none;fill-rule:nonzero;fill:rgb(100%,100%,100%);fill-opacity:0.4;" d="M 5.96875 10.625 C 5.835938 10.621094 5.726562 10.511719 5.726562 10.375 C 5.726562 10.351562 5.730469 10.332031 5.734375 10.3125 C 5.761719 10.421875 5.859375 10.5 5.976562 10.5 C 6.09375 10.5 6.191406 10.421875 6.21875 10.3125 C 6.222656 10.332031 6.226562 10.351562 6.226562 10.375 C 6.226562 10.511719 6.113281 10.625 5.976562 10.625 C 5.972656 10.625 5.972656 10.625 5.96875 10.625 Z M 5.96875 10.625 "/>
<path style=" stroke:none;fill-rule:nonzero;fill:rgb(0%,0%,0%);fill-opacity:0.4;" d="M 6.984375 10 C 7.121094 10 7.234375 10.113281 7.234375 10.25 C 7.234375 10.386719 7.121094 10.5 6.984375 10.5 C 6.847656 10.5 6.734375 10.386719 6.734375 10.25 C 6.734375 10.113281 6.847656 10 6.984375 10 Z M 6.984375 10 "/>
<path style=" stroke:none;fill-rule:nonzero;fill:rgb(0%,0%,0%);fill-opacity:0.4;" d="M 6.976562 10 C 6.84375 10.003906 6.734375 10.113281 6.734375 10.25 C 6.734375 10.273438 6.738281 10.292969 6.742188 10.3125 C 6.769531 10.203125 6.867188 10.125 6.984375 10.125 C 7.101562 10.125 7.199219 10.203125 7.226562 10.3125 C 7.230469 10.292969 7.234375 10.273438 7.234375 10.25 C 7.234375 10.113281 7.121094 10 6.984375 10 C 6.980469 10 6.980469 10 6.976562 10 Z M 6.976562 10 "/>
<path style=" stroke:none;fill-rule:nonzero;fill:rgb(100%,100%,100%);fill-opacity:0.4;" d="M 6.976562 10.625 C 6.84375 10.621094 6.734375 10.511719 6.734375 10.375 C 6.734375 10.351562 6.738281 10.332031 6.742188 10.3125 C 6.769531 10.421875 6.867188 10.5 6.984375 10.5 C 7.101562 10.5 7.199219 10.421875 7.226562 10.3125 C 7.230469 10.332031 7.234375 10.351562 7.234375 10.375 C 7.234375 10.511719 7.121094 10.625 6.984375 10.625 C 6.980469 10.625 6.980469 10.625 6.976562 10.625 Z M 6.976562 10.625 "/>
<path style=" stroke:none;fill-rule:nonzero;fill:rgb(0%,0%,0%);fill-opacity:0.4;" d="M 7.984375 10 C 8.121094 10 8.234375 10.113281 8.234375 10.25 C 8.234375 10.386719 8.121094 10.5 7.984375 10.5 C 7.847656 10.5 7.734375 10.386719 7.734375 10.25 C 7.734375 10.113281 7.847656 10 7.984375 10 Z M 7.984375 10 "/>
<path style=" stroke:none;fill-rule:nonzero;fill:rgb(0%,0%,0%);fill-opacity:0.4;" d="M 7.976562 10 C 7.84375 10.003906 7.734375 10.113281 7.734375 10.25 C 7.734375 10.273438 7.738281 10.292969 7.742188 10.3125 C 7.769531 10.203125 7.867188 10.125 7.984375 10.125 C 8.101562 10.125 8.199219 10.203125 8.226562 10.3125 C 8.230469 10.292969 8.234375 10.273438 8.234375 10.25 C 8.234375 10.113281 8.121094 10 7.984375 10 C 7.980469 10 7.980469 10 7.976562 10 Z M 7.976562 10 "/>
<path style=" stroke:none;fill-rule:nonzero;fill:rgb(100%,100%,100%);fill-opacity:0.4;" d="M 7.976562 10.625 C 7.84375 10.621094 7.734375 10.511719 7.734375 10.375 C 7.734375 10.351562 7.738281 10.332031 7.742188 10.3125 C 7.769531 10.421875 7.867188 10.5 7.984375 10.5 C 8.101562 10.5 8.199219 10.421875 8.226562 10.3125 C 8.230469 10.332031 8.234375 10.351562 8.234375 10.375 C 8.234375 10.511719 8.121094 10.625 7.984375 10.625 C 7.980469 10.625 7.980469 10.625 7.976562 10.625 Z M 7.976562 10.625 "/>
<path style=" stroke:none;fill-rule:nonzero;fill:rgb(0%,0%,0%);fill-opacity:0.4;" d="M 8.992188 10 C 9.128906 10 9.242188 10.113281 9.242188 10.25 C 9.242188 10.386719 9.128906 10.5 8.992188 10.5 C 8.855469 10.5 8.742188 10.386719 8.742188 10.25 C 8.742188 10.113281 8.855469 10 8.992188 10 Z M 8.992188 10 "/>
<path style=" stroke:none;fill-rule:nonzero;fill:rgb(0%,0%,0%);fill-opacity:0.4;" d="M 8.984375 10 C 8.851562 10.003906 8.742188 10.113281 8.742188 10.25 C 8.742188 10.273438 8.746094 10.292969 8.75 10.3125 C 8.777344 10.203125 8.875 10.125 8.992188 10.125 C 9.109375 10.125 9.207031 10.203125 9.234375 10.3125 C 9.238281 10.292969 9.242188 10.273438 9.242188 10.25 C 9.242188 10.113281 9.128906 10 8.992188 10 C 8.988281 10 8.988281 10 8.984375 10 Z M 8.984375 10 "/>
<path style=" stroke:none;fill-rule:nonzero;fill:rgb(100%,100%,100%);fill-opacity:0.4;" d="M 8.984375 10.625 C 8.851562 10.621094 8.742188 10.511719 8.742188 10.375 C 8.742188 10.351562 8.746094 10.332031 8.75 10.3125 C 8.777344 10.421875 8.875 10.5 8.992188 10.5 C 9.109375 10.5 9.207031 10.421875 9.234375 10.3125 C 9.238281 10.332031 9.242188 10.351562 9.242188 10.375 C 9.242188 10.511719 9.128906 10.625 8.992188 10.625 C 8.988281 10.625 8.988281 10.625 8.984375 10.625 Z M 8.984375 10.625 "/>
<path style=" stroke:none;fill-rule:nonzero;fill:rgb(0%,0%,0%);fill-opacity:0.4;" d="M 9.976562 10 C 10.113281 10 10.226562 10.113281 10.226562 10.25 C 10.226562 10.386719 10.113281 10.5 9.976562 10.5 C 9.839844 10.5 9.726562 10.386719 9.726562 10.25 C 9.726562 10.113281 9.839844 10 9.976562 10 Z M 9.976562 10 "/>
<path style=" stroke:none;fill-rule:nonzero;fill:rgb(0%,0%,0%);fill-opacity:0.4;" d="M 9.96875 10 C 9.835938 10.003906 9.726562 10.113281 9.726562 10.25 C 9.726562 10.273438 9.730469 10.292969 9.734375 10.3125 C 9.761719 10.203125 9.859375 10.125 9.976562 10.125 C 10.09375 10.125 10.191406 10.203125 10.21875 10.3125 C 10.222656 10.292969 10.226562 10.273438 10.226562 10.25 C 10.226562 10.113281 10.113281 10 9.976562 10 C 9.972656 10 9.972656 10 9.96875 10 Z M 9.96875 10 "/>
<path style=" stroke:none;fill-rule:nonzero;fill:rgb(100%,100%,100%);fill-opacity:0.4;" d="M 9.96875 10.625 C 9.835938 10.621094 9.726562 10.511719 9.726562 10.375 C 9.726562 10.351562 9.730469 10.332031 9.734375 10.3125 C 9.761719 10.421875 9.859375 10.5 9.976562 10.5 C 10.09375 10.5 10.191406 10.421875 10.21875 10.3125 C 10.222656 10.332031 10.226562 10.351562 10.226562 10.375 C 10.226562 10.511719 10.113281 10.625 9.976562 10.625 C 9.972656 10.625 9.972656 10.625 9.96875 10.625 Z M 9.96875 10.625 "/>
<path style=" stroke:none;fill-rule:nonzero;fill:rgb(0%,0%,0%);fill-opacity:0.4;" d="M 10.984375 10 C 11.121094 10 11.234375 10.113281 11.234375 10.25 C 11.234375 10.386719 11.121094 10.5 10.984375 10.5 C 10.847656 10.5 10.734375 10.386719 10.734375 10.25 C 10.734375 10.113281 10.847656 10 10.984375 10 Z M 10.984375 10 "/>
<path style=" stroke:none;fill-rule:nonzero;fill:rgb(0%,0%,0%);fill-opacity:0.4;" d="M 10.976562 10 C 10.84375 10.003906 10.734375 10.113281 10.734375 10.25 C 10.734375 10.273438 10.738281 10.292969 10.742188 10.3125 C 10.769531 10.203125 10.867188 10.125 10.984375 10.125 C 11.101562 10.125 11.199219 10.203125 11.226562 10.3125 C 11.230469 10.292969 11.234375 10.273438 11.234375 10.25 C 11.234375 10.113281 11.121094 10 10.984375 10 C 10.980469 10 10.980469 10 10.976562 10 Z M 10.976562 10 "/>
<path style=" stroke:none;fill-rule:nonzero;fill:rgb(100%,100%,100%);fill-opacity:0.4;" d="M 10.976562 10.625 C 10.84375 10.621094 10.734375 10.511719 10.734375 10.375 C 10.734375 10.351562 10.738281 10.332031 10.742188 10.3125 C 10.769531 10.421875 10.867188 10.5 10.984375 10.5 C 11.101562 10.5 11.199219 10.421875 11.226562 10.3125 C 11.230469 10.332031 11.234375 10.351562 11.234375 10.375 C 11.234375 10.511719 11.121094 10.625 10.984375 10.625 C 10.980469 10.625 10.980469 10.625 10.976562 10.625 Z M 10.976562 10.625 "/>
<path style=" stroke:none;fill-rule:nonzero;fill:rgb(0%,0%,0%);fill-opacity:0.4;" d="M 11.984375 10 C 12.121094 10 12.234375 10.113281 12.234375 10.25 C 12.234375 10.386719 12.121094 10.5 11.984375 10.5 C 11.847656 10.5 11.734375 10.386719 11.734375 10.25 C 11.734375 10.113281 11.847656 10 11.984375 10 Z M 11.984375 10 "/>
<path style=" stroke:none;fill-rule:nonzero;fill:rgb(0%,0%,0%);fill-opacity:0.4;" d="M 11.976562 10 C 11.84375 10.003906 11.734375 10.113281 11.734375 10.25 C 11.734375 10.273438 11.738281 10.292969 11.742188 10.3125 C 11.769531 10.203125 11.867188 10.125 11.984375 10.125 C 12.101562 10.125 12.199219 10.203125 12.226562 10.3125 C 12.230469 10.292969 12.234375 10.273438 12.234375 10.25 C 12.234375 10.113281 12.121094 10 11.984375 10 C 11.980469 10 11.980469 10 11.976562 10 Z M 11.976562 10 "/>
<path style=" stroke:none;fill-rule:nonzero;fill:rgb(100%,100%,100%);fill-opacity:0.4;" d="M 11.976562 10.625 C 11.84375 10.621094 11.734375 10.511719 11.734375 10.375 C 11.734375 10.351562 11.738281 10.332031 11.742188 10.3125 C 11.769531 10.421875 11.867188 10.5 11.984375 10.5 C 12.101562 10.5 12.199219 10.421875 12.226562 10.3125 C 12.230469 10.332031 12.234375 10.351562 12.234375 10.375 C 12.234375 10.511719 12.121094 10.625 11.984375 10.625 C 11.980469 10.625 11.980469 10.625 11.976562 10.625 Z M 11.976562 10.625 "/>
<path style=" stroke:none;fill-rule:nonzero;fill:rgb(0%,0%,0%);fill-opacity:0.4;" d="M 12.992188 10 C 13.128906 10 13.242188 10.113281 13.242188 10.25 C 13.242188 10.386719 13.128906 10.5 12.992188 10.5 C 12.855469 10.5 12.742188 10.386719 12.742188 10.25 C 12.742188 10.113281 12.855469 10 12.992188 10 Z M 12.992188 10 "/>
<path style=" stroke:none;fill-rule:nonzero;fill:rgb(0%,0%,0%);fill-opacity:0.4;" d="M 12.984375 10 C 12.851562 10.003906 12.742188 10.113281 12.742188 10.25 C 12.742188 10.273438 12.746094 10.292969 12.75 10.3125 C 12.777344 10.203125 12.875 10.125 12.992188 10.125 C 13.109375 10.125 13.207031 10.203125 13.234375 10.3125 C 13.238281 10.292969 13.242188 10.273438 13.242188 10.25 C 13.242188 10.113281 13.128906 10 12.992188 10 C 12.988281 10 12.988281 10 12.984375 10 Z M 12.984375 10 "/>
<path style=" stroke:none;fill-rule:nonzero;fill:rgb(100%,100%,100%);fill-opacity:0.4;" d="M 12.984375 10.625 C 12.851562 10.621094 12.742188 10.511719 12.742188 10.375 C 12.742188 10.351562 12.746094 10.332031 12.75 10.3125 C 12.777344 10.421875 12.875 10.5 12.992188 10.5 C 13.109375 10.5 13.207031 10.421875 13.234375 10.3125 C 13.238281 10.332031 13.242188 10.351562 13.242188 10.375 C 13.242188 10.511719 13.128906 10.625 12.992188 10.625 C 12.988281 10.625 12.988281 10.625 12.984375 10.625 Z M 12.984375 10.625 "/>
<path style=" stroke:none;fill-rule:nonzero;fill:rgb(0%,0%,0%);fill-opacity:0.4;" d="M 2.5 11 C 2.636719 11 2.75 11.113281 2.75 11.25 C 2.75 11.386719 2.636719 11.5 2.5 11.5 C 2.363281 11.5 2.25 11.386719 2.25 11.25 C 2.25 11.113281 2.363281 11 2.5 11 Z M 2.5 11 "/>
<path style=" stroke:none;fill-rule:nonzero;fill:rgb(0%,0%,0%);fill-opacity:0.4;" d="M 2.492188 11 C 2.359375 11.003906 2.25 11.113281 2.25 11.25 C 2.25 11.273438 2.253906 11.292969 2.257812 11.3125 C 2.285156 11.203125 2.382812 11.125 2.5 11.125 C 2.617188 11.125 2.714844 11.203125 2.742188 11.3125 C 2.746094 11.292969 2.75 11.273438 2.75 11.25 C 2.75 11.113281 2.636719 11 2.5 11 C 2.496094 11 2.496094 11 2.492188 11 Z M 2.492188 11 "/>
<path style=" stroke:none;fill-rule:nonzero;fill:rgb(100%,100%,100%);fill-opacity:0.4;" d="M 2.492188 11.625 C 2.359375 11.621094 2.25 11.511719 2.25 11.375 C 2.25 11.351562 2.253906 11.332031 2.257812 11.3125 C 2.285156 11.421875 2.382812 11.5 2.5 11.5 C 2.617188 11.5 2.714844 11.421875 2.742188 11.3125 C 2.746094 11.332031 2.75 11.351562 2.75 11.375 C 2.75 11.511719 2.636719 11.625 2.5 11.625 C 2.496094 11.625 2.496094 11.625 2.492188 11.625 Z M 2.492188 11.625 "/>
<path style=" stroke:none;fill-rule:nonzero;fill:rgb(0%,0%,0%);fill-opacity:0.4;" d="M 3.507812 11 C 3.644531 11 3.757812 11.113281 3.757812 11.25 C 3.757812 11.386719 3.644531 11.5 3.507812 11.5 C 3.371094 11.5 3.257812 11.386719 3.257812 11.25 C 3.257812 11.113281 3.371094 11 3.507812 11 Z M 3.507812 11 "/>
<path style=" stroke:none;fill-rule:nonzero;fill:rgb(0%,0%,0%);fill-opacity:0.4;" d="M 3.5 11 C 3.367188 11.003906 3.257812 11.113281 3.257812 11.25 C 3.257812 11.273438 3.261719 11.292969 3.265625 11.3125 C 3.292969 11.203125 3.390625 11.125 3.507812 11.125 C 3.625 11.125 3.722656 11.203125 3.75 11.3125 C 3.753906 11.292969 3.757812 11.273438 3.757812 11.25 C 3.757812 11.113281 3.644531 11 3.507812 11 C 3.503906 11 3.503906 11 3.5 11 Z M 3.5 11 "/>
<path style=" stroke:none;fill-rule:nonzero;fill:rgb(100%,100%,100%);fill-opacity:0.4;" d="M 3.5 11.625 C 3.367188 11.621094 3.257812 11.511719 3.257812 11.375 C 3.257812 11.351562 3.261719 11.332031 3.265625 11.3125 C 3.292969 11.421875 3.390625 11.5 3.507812 11.5 C 3.625 11.5 3.722656 11.421875 3.75 11.3125 C 3.753906 11.332031 3.757812 11.351562 3.757812 11.375 C 3.757812 11.511719 3.644531 11.625 3.507812 11.625 C 3.503906 11.625 3.503906 11.625 3.5 11.625 Z M 3.5 11.625 "/>
<path style=" stroke:none;fill-rule:nonzero;fill:rgb(0%,0%,0%);fill-opacity:0.4;" d="M 4.507812 11 C 4.644531 11 4.757812 11.113281 4.757812 11.25 C 4.757812 11.386719 4.644531 11.5 4.507812 11.5 C 4.371094 11.5 4.257812 11.386719 4.257812 11.25 C 4.257812 11.113281 4.371094 11 4.507812 11 Z M 4.507812 11 "/>
<path style=" stroke:none;fill-rule:nonzero;fill:rgb(0%,0%,0%);fill-opacity:0.4;" d="M 4.5 11 C 4.367188 11.003906 4.257812 11.113281 4.257812 11.25 C 4.257812 11.273438 4.261719 11.292969 4.265625 11.3125 C 4.292969 11.203125 4.390625 11.125 4.507812 11.125 C 4.625 11.125 4.722656 11.203125 4.75 11.3125 C 4.753906 11.292969 4.757812 11.273438 4.757812 11.25 C 4.757812 11.113281 4.644531 11 4.507812 11 C 4.503906 11 4.503906 11 4.5 11 Z M 4.5 11 "/>
<path style=" stroke:none;fill-rule:nonzero;fill:rgb(100%,100%,100%);fill-opacity:0.4;" d="M 4.5 11.625 C 4.367188 11.621094 4.257812 11.511719 4.257812 11.375 C 4.257812 11.351562 4.261719 11.332031 4.265625 11.3125 C 4.292969 11.421875 4.390625 11.5 4.507812 11.5 C 4.625 11.5 4.722656 11.421875 4.75 11.3125 C 4.753906 11.332031 4.757812 11.351562 4.757812 11.375 C 4.757812 11.511719 4.644531 11.625 4.507812 11.625 C 4.503906 11.625 4.503906 11.625 4.5 11.625 Z M 4.5 11.625 "/>
<path style=" stroke:none;fill-rule:nonzero;fill:rgb(0%,0%,0%);fill-opacity:0.4;" d="M 5.515625 11 C 5.652344 11 5.765625 11.113281 5.765625 11.25 C 5.765625 11.386719 5.652344 11.5 5.515625 11.5 C 5.378906 11.5 5.265625 11.386719 5.265625 11.25 C 5.265625 11.113281 5.378906 11 5.515625 11 Z M 5.515625 11 "/>
<path style=" stroke:none;fill-rule:nonzero;fill:rgb(0%,0%,0%);fill-opacity:0.4;" d="M 5.507812 11 C 5.375 11.003906 5.265625 11.113281 5.265625 11.25 C 5.265625 11.273438 5.269531 11.292969 5.273438 11.3125 C 5.300781 11.203125 5.398438 11.125 5.515625 11.125 C 5.632812 11.125 5.730469 11.203125 5.757812 11.3125 C 5.761719 11.292969 5.765625 11.273438 5.765625 11.25 C 5.765625 11.113281 5.652344 11 5.515625 11 C 5.511719 11 5.511719 11 5.507812 11 Z M 5.507812 11 "/>
<path style=" stroke:none;fill-rule:nonzero;fill:rgb(100%,100%,100%);fill-opacity:0.4;" d="M 5.507812 11.625 C 5.375 11.621094 5.265625 11.511719 5.265625 11.375 C 5.265625 11.351562 5.269531 11.332031 5.273438 11.3125 C 5.300781 11.421875 5.398438 11.5 5.515625 11.5 C 5.632812 11.5 5.730469 11.421875 5.757812 11.3125 C 5.761719 11.332031 5.765625 11.351562 5.765625 11.375 C 5.765625 11.511719 5.652344 11.625 5.515625 11.625 C 5.511719 11.625 5.511719 11.625 5.507812 11.625 Z M 5.507812 11.625 "/>
<path style=" stroke:none;fill-rule:nonzero;fill:rgb(0%,0%,0%);fill-opacity:0.4;" d="M 6.492188 11 C 6.628906 11 6.742188 11.113281 6.742188 11.25 C 6.742188 11.386719 6.628906 11.5 6.492188 11.5 C 6.355469 11.5 6.242188 11.386719 6.242188 11.25 C 6.242188 11.113281 6.355469 11 6.492188 11 Z M 6.492188 11 "/>
<path style=" stroke:none;fill-rule:nonzero;fill:rgb(0%,0%,0%);fill-opacity:0.4;" d="M 6.484375 11 C 6.351562 11.003906 6.242188 11.113281 6.242188 11.25 C 6.242188 11.273438 6.246094 11.292969 6.25 11.3125 C 6.277344 11.203125 6.375 11.125 6.492188 11.125 C 6.609375 11.125 6.707031 11.203125 6.734375 11.3125 C 6.738281 11.292969 6.742188 11.273438 6.742188 11.25 C 6.742188 11.113281 6.628906 11 6.492188 11 C 6.488281 11 6.488281 11 6.484375 11 Z M 6.484375 11 "/>
<path style=" stroke:none;fill-rule:nonzero;fill:rgb(100%,100%,100%);fill-opacity:0.4;" d="M 6.484375 11.625 C 6.351562 11.621094 6.242188 11.511719 6.242188 11.375 C 6.242188 11.351562 6.246094 11.332031 6.25 11.3125 C 6.277344 11.421875 6.375 11.5 6.492188 11.5 C 6.609375 11.5 6.707031 11.421875 6.734375 11.3125 C 6.738281 11.332031 6.742188 11.351562 6.742188 11.375 C 6.742188 11.511719 6.628906 11.625 6.492188 11.625 C 6.488281 11.625 6.488281 11.625 6.484375 11.625 Z M 6.484375 11.625 "/>
<path style=" stroke:none;fill-rule:nonzero;fill:rgb(0%,0%,0%);fill-opacity:0.4;" d="M 7.5 11 C 7.636719 11 7.75 11.113281 7.75 11.25 C 7.75 11.386719 7.636719 11.5 7.5 11.5 C 7.363281 11.5 7.25 11.386719 7.25 11.25 C 7.25 11.113281 7.363281 11 7.5 11 Z M 7.5 11 "/>
<path style=" stroke:none;fill-rule:nonzero;fill:rgb(0%,0%,0%);fill-opacity:0.4;" d="M 7.492188 11 C 7.359375 11.003906 7.25 11.113281 7.25 11.25 C 7.25 11.273438 7.253906 11.292969 7.257812 11.3125 C 7.285156 11.203125 7.382812 11.125 7.5 11.125 C 7.617188 11.125 7.714844 11.203125 7.742188 11.3125 C 7.746094 11.292969 7.75 11.273438 7.75 11.25 C 7.75 11.113281 7.636719 11 7.5 11 C 7.496094 11 7.496094 11 7.492188 11 Z M 7.492188 11 "/>
<path style=" stroke:none;fill-rule:nonzero;fill:rgb(100%,100%,100%);fill-opacity:0.4;" d="M 7.492188 11.625 C 7.359375 11.621094 7.25 11.511719 7.25 11.375 C 7.25 11.351562 7.253906 11.332031 7.257812 11.3125 C 7.285156 11.421875 7.382812 11.5 7.5 11.5 C 7.617188 11.5 7.714844 11.421875 7.742188 11.3125 C 7.746094 11.332031 7.75 11.351562 7.75 11.375 C 7.75 11.511719 7.636719 11.625 7.5 11.625 C 7.496094 11.625 7.496094 11.625 7.492188 11.625 Z M 7.492188 11.625 "/>
<path style=" stroke:none;fill-rule:nonzero;fill:rgb(0%,0%,0%);fill-opacity:0.4;" d="M 8.5 11 C 8.636719 11 8.75 11.113281 8.75 11.25 C 8.75 11.386719 8.636719 11.5 8.5 11.5 C 8.363281 11.5 8.25 11.386719 8.25 11.25 C 8.25 11.113281 8.363281 11 8.5 11 Z M 8.5 11 "/>
<path style=" stroke:none;fill-rule:nonzero;fill:rgb(0%,0%,0%);fill-opacity:0.4;" d="M 8.492188 11 C 8.359375 11.003906 8.25 11.113281 8.25 11.25 C 8.25 11.273438 8.253906 11.292969 8.257812 11.3125 C 8.285156 11.203125 8.382812 11.125 8.5 11.125 C 8.617188 11.125 8.714844 11.203125 8.742188 11.3125 C 8.746094 11.292969 8.75 11.273438 8.75 11.25 C 8.75 11.113281 8.636719 11 8.5 11 C 8.496094 11 8.496094 11 8.492188 11 Z M 8.492188 11 "/>
<path style=" stroke:none;fill-rule:nonzero;fill:rgb(100%,100%,100%);fill-opacity:0.4;" d="M 8.492188 11.625 C 8.359375 11.621094 8.25 11.511719 8.25 11.375 C 8.25 11.351562 8.253906 11.332031 8.257812 11.3125 C 8.285156 11.421875 8.382812 11.5 8.5 11.5 C 8.617188 11.5 8.714844 11.421875 8.742188 11.3125 C 8.746094 11.332031 8.75 11.351562 8.75 11.375 C 8.75 11.511719 8.636719 11.625 8.5 11.625 C 8.496094 11.625 8.496094 11.625 8.492188 11.625 Z M 8.492188 11.625 "/>
<path style=" stroke:none;fill-rule:nonzero;fill:rgb(0%,0%,0%);fill-opacity:0.4;" d="M 9.507812 11 C 9.644531 11 9.757812 11.113281 9.757812 11.25 C 9.757812 11.386719 9.644531 11.5 9.507812 11.5 C 9.371094 11.5 9.257812 11.386719 9.257812 11.25 C 9.257812 11.113281 9.371094 11 9.507812 11 Z M 9.507812 11 "/>
<path style=" stroke:none;fill-rule:nonzero;fill:rgb(0%,0%,0%);fill-opacity:0.4;" d="M 9.5 11 C 9.367188 11.003906 9.257812 11.113281 9.257812 11.25 C 9.257812 11.273438 9.261719 11.292969 9.265625 11.3125 C 9.292969 11.203125 9.390625 11.125 9.507812 11.125 C 9.625 11.125 9.722656 11.203125 9.75 11.3125 C 9.753906 11.292969 9.757812 11.273438 9.757812 11.25 C 9.757812 11.113281 9.644531 11 9.507812 11 C 9.503906 11 9.503906 11 9.5 11 Z M 9.5 11 "/>
<path style=" stroke:none;fill-rule:nonzero;fill:rgb(100%,100%,100%);fill-opacity:0.4;" d="M 9.5 11.625 C 9.367188 11.621094 9.257812 11.511719 9.257812 11.375 C 9.257812 11.351562 9.261719 11.332031 9.265625 11.3125 C 9.292969 11.421875 9.390625 11.5 9.507812 11.5 C 9.625 11.5 9.722656 11.421875 9.75 11.3125 C 9.753906 11.332031 9.757812 11.351562 9.757812 11.375 C 9.757812 11.511719 9.644531 11.625 9.507812 11.625 C 9.503906 11.625 9.503906 11.625 9.5 11.625 Z M 9.5 11.625 "/>
<path style=" stroke:none;fill-rule:nonzero;fill:rgb(0%,0%,0%);fill-opacity:0.4;" d="M 10.492188 11 C 10.628906 11 10.742188 11.113281 10.742188 11.25 C 10.742188 11.386719 10.628906 11.5 10.492188 11.5 C 10.355469 11.5 10.242188 11.386719 10.242188 11.25 C 10.242188 11.113281 10.355469 11 10.492188 11 Z M 10.492188 11 "/>
<path style=" stroke:none;fill-rule:nonzero;fill:rgb(0%,0%,0%);fill-opacity:0.4;" d="M 10.484375 11 C 10.351562 11.003906 10.242188 11.113281 10.242188 11.25 C 10.242188 11.273438 10.246094 11.292969 10.25 11.3125 C 10.277344 11.203125 10.375 11.125 10.492188 11.125 C 10.609375 11.125 10.707031 11.203125 10.734375 11.3125 C 10.738281 11.292969 10.742188 11.273438 10.742188 11.25 C 10.742188 11.113281 10.628906 11 10.492188 11 C 10.488281 11 10.488281 11 10.484375 11 Z M 10.484375 11 "/>
<path style=" stroke:none;fill-rule:nonzero;fill:rgb(100%,100%,100%);fill-opacity:0.4;" d="M 10.484375 11.625 C 10.351562 11.621094 10.242188 11.511719 10.242188 11.375 C 10.242188 11.351562 10.246094 11.332031 10.25 11.3125 C 10.277344 11.421875 10.375 11.5 10.492188 11.5 C 10.609375 11.5 10.707031 11.421875 10.734375 11.3125 C 10.738281 11.332031 10.742188 11.351562 10.742188 11.375 C 10.742188 11.511719 10.628906 11.625 10.492188 11.625 C 10.488281 11.625 10.488281 11.625 10.484375 11.625 Z M 10.484375 11.625 "/>
<path style=" stroke:none;fill-rule:nonzero;fill:rgb(0%,0%,0%);fill-opacity:0.4;" d="M 11.5 11 C 11.636719 11 11.75 11.113281 11.75 11.25 C 11.75 11.386719 11.636719 11.5 11.5 11.5 C 11.363281 11.5 11.25 11.386719 11.25 11.25 C 11.25 11.113281 11.363281 11 11.5 11 Z M 11.5 11 "/>
<path style=" stroke:none;fill-rule:nonzero;fill:rgb(0%,0%,0%);fill-opacity:0.4;" d="M 11.492188 11 C 11.359375 11.003906 11.25 11.113281 11.25 11.25 C 11.25 11.273438 11.253906 11.292969 11.257812 11.3125 C 11.285156 11.203125 11.382812 11.125 11.5 11.125 C 11.617188 11.125 11.714844 11.203125 11.742188 11.3125 C 11.746094 11.292969 11.75 11.273438 11.75 11.25 C 11.75 11.113281 11.636719 11 11.5 11 C 11.496094 11 11.496094 11 11.492188 11 Z M 11.492188 11 "/>
<path style=" stroke:none;fill-rule:nonzero;fill:rgb(100%,100%,100%);fill-opacity:0.4;" d="M 11.492188 11.625 C 11.359375 11.621094 11.25 11.511719 11.25 11.375 C 11.25 11.351562 11.253906 11.332031 11.257812 11.3125 C 11.285156 11.421875 11.382812 11.5 11.5 11.5 C 11.617188 11.5 11.714844 11.421875 11.742188 11.3125 C 11.746094 11.332031 11.75 11.351562 11.75 11.375 C 11.75 11.511719 11.636719 11.625 11.5 11.625 C 11.496094 11.625 11.496094 11.625 11.492188 11.625 Z M 11.492188 11.625 "/>
<path style=" stroke:none;fill-rule:nonzero;fill:rgb(0%,0%,0%);fill-opacity:0.4;" d="M 12.5 11 C 12.636719 11 12.75 11.113281 12.75 11.25 C 12.75 11.386719 12.636719 11.5 12.5 11.5 C 12.363281 11.5 12.25 11.386719 12.25 11.25 C 12.25 11.113281 12.363281 11 12.5 11 Z M 12.5 11 "/>
<path style=" stroke:none;fill-rule:nonzero;fill:rgb(0%,0%,0%);fill-opacity:0.4;" d="M 12.492188 11 C 12.359375 11.003906 12.25 11.113281 12.25 11.25 C 12.25 11.273438 12.253906 11.292969 12.257812 11.3125 C 12.285156 11.203125 12.382812 11.125 12.5 11.125 C 12.617188 11.125 12.714844 11.203125 12.742188 11.3125 C 12.746094 11.292969 12.75 11.273438 12.75 11.25 C 12.75 11.113281 12.636719 11 12.5 11 C 12.496094 11 12.496094 11 12.492188 11 Z M 12.492188 11 "/>
<path style=" stroke:none;fill-rule:nonzero;fill:rgb(100%,100%,100%);fill-opacity:0.4;" d="M 12.492188 11.625 C 12.359375 11.621094 12.25 11.511719 12.25 11.375 C 12.25 11.351562 12.253906 11.332031 12.257812 11.3125 C 12.285156 11.421875 12.382812 11.5 12.5 11.5 C 12.617188 11.5 12.714844 11.421875 12.742188 11.3125 C 12.746094 11.332031 12.75 11.351562 12.75 11.375 C 12.75 11.511719 12.636719 11.625 12.5 11.625 C 12.496094 11.625 12.496094 11.625 12.492188 11.625 Z M 12.492188 11.625 "/>
<path style=" stroke:none;fill-rule:nonzero;fill:rgb(0%,0%,0%);fill-opacity:0.4;" d="M 13.507812 11 C 13.644531 11 13.757812 11.113281 13.757812 11.25 C 13.757812 11.386719 13.644531 11.5 13.507812 11.5 C 13.371094 11.5 13.257812 11.386719 13.257812 11.25 C 13.257812 11.113281 13.371094 11 13.507812 11 Z M 13.507812 11 "/>
<path style=" stroke:none;fill-rule:nonzero;fill:rgb(0%,0%,0%);fill-opacity:0.4;" d="M 13.5 11 C 13.367188 11.003906 13.257812 11.113281 13.257812 11.25 C 13.257812 11.273438 13.261719 11.292969 13.265625 11.3125 C 13.292969 11.203125 13.390625 11.125 13.507812 11.125 C 13.625 11.125 13.722656 11.203125 13.75 11.3125 C 13.753906 11.292969 13.757812 11.273438 13.757812 11.25 C 13.757812 11.113281 13.644531 11 13.507812 11 C 13.503906 11 13.503906 11 13.5 11 Z M 13.5 11 "/>
<path style=" stroke:none;fill-rule:nonzero;fill:rgb(100%,100%,100%);fill-opacity:0.4;" d="M 13.5 11.625 C 13.367188 11.621094 13.257812 11.511719 13.257812 11.375 C 13.257812 11.351562 13.261719 11.332031 13.265625 11.3125 C 13.292969 11.421875 13.390625 11.5 13.507812 11.5 C 13.625 11.5 13.722656 11.421875 13.75 11.3125 C 13.753906 11.332031 13.757812 11.351562 13.757812 11.375 C 13.757812 11.511719 13.644531 11.625 13.507812 11.625 C 13.503906 11.625 13.503906 11.625 13.5 11.625 Z M 13.5 11.625 "/>
<path style=" stroke:none;fill-rule:nonzero;fill:rgb(0%,0%,0%);fill-opacity:0.4;" d="M 2.992188 12 C 3.128906 12 3.242188 12.113281 3.242188 12.25 C 3.242188 12.386719 3.128906 12.5 2.992188 12.5 C 2.855469 12.5 2.742188 12.386719 2.742188 12.25 C 2.742188 12.113281 2.855469 12 2.992188 12 Z M 2.992188 12 "/>
<path style=" stroke:none;fill-rule:nonzero;fill:rgb(0%,0%,0%);fill-opacity:0.4;" d="M 2.984375 12 C 2.851562 12.003906 2.742188 12.113281 2.742188 12.25 C 2.742188 12.273438 2.746094 12.292969 2.75 12.3125 C 2.777344 12.203125 2.875 12.125 2.992188 12.125 C 3.109375 12.125 3.207031 12.203125 3.234375 12.3125 C 3.238281 12.292969 3.242188 12.273438 3.242188 12.25 C 3.242188 12.113281 3.128906 12 2.992188 12 C 2.988281 12 2.988281 12 2.984375 12 Z M 2.984375 12 "/>
<path style=" stroke:none;fill-rule:nonzero;fill:rgb(100%,100%,100%);fill-opacity:0.4;" d="M 2.984375 12.625 C 2.851562 12.621094 2.742188 12.511719 2.742188 12.375 C 2.742188 12.351562 2.746094 12.332031 2.75 12.3125 C 2.777344 12.421875 2.875 12.5 2.992188 12.5 C 3.109375 12.5 3.207031 12.421875 3.234375 12.3125 C 3.238281 12.332031 3.242188 12.351562 3.242188 12.375 C 3.242188 12.511719 3.128906 12.625 2.992188 12.625 C 2.988281 12.625 2.988281 12.625 2.984375 12.625 Z M 2.984375 12.625 "/>
<path style=" stroke:none;fill-rule:nonzero;fill:rgb(0%,0%,0%);fill-opacity:0.4;" d="M 3.992188 12 C 4.128906 12 4.242188 12.113281 4.242188 12.25 C 4.242188 12.386719 4.128906 12.5 3.992188 12.5 C 3.855469 12.5 3.742188 12.386719 3.742188 12.25 C 3.742188 12.113281 3.855469 12 3.992188 12 Z M 3.992188 12 "/>
<path style=" stroke:none;fill-rule:nonzero;fill:rgb(0%,0%,0%);fill-opacity:0.4;" d="M 3.984375 12 C 3.851562 12.003906 3.742188 12.113281 3.742188 12.25 C 3.742188 12.273438 3.746094 12.292969 3.75 12.3125 C 3.777344 12.203125 3.875 12.125 3.992188 12.125 C 4.109375 12.125 4.207031 12.203125 4.234375 12.3125 C 4.238281 12.292969 4.242188 12.273438 4.242188 12.25 C 4.242188 12.113281 4.128906 12 3.992188 12 C 3.988281 12 3.988281 12 3.984375 12 Z M 3.984375 12 "/>
<path style=" stroke:none;fill-rule:nonzero;fill:rgb(100%,100%,100%);fill-opacity:0.4;" d="M 3.984375 12.625 C 3.851562 12.621094 3.742188 12.511719 3.742188 12.375 C 3.742188 12.351562 3.746094 12.332031 3.75 12.3125 C 3.777344 12.421875 3.875 12.5 3.992188 12.5 C 4.109375 12.5 4.207031 12.421875 4.234375 12.3125 C 4.238281 12.332031 4.242188 12.351562 4.242188 12.375 C 4.242188 12.511719 4.128906 12.625 3.992188 12.625 C 3.988281 12.625 3.988281 12.625 3.984375 12.625 Z M 3.984375 12.625 "/>
<path style=" stroke:none;fill-rule:nonzero;fill:rgb(0%,0%,0%);fill-opacity:0.4;" d="M 5 12 C 5.136719 12 5.25 12.113281 5.25 12.25 C 5.25 12.386719 5.136719 12.5 5 12.5 C 4.863281 12.5 4.75 12.386719 4.75 12.25 C 4.75 12.113281 4.863281 12 5 12 Z M 5 12 "/>
<path style=" stroke:none;fill-rule:nonzero;fill:rgb(0%,0%,0%);fill-opacity:0.4;" d="M 4.992188 12 C 4.859375 12.003906 4.75 12.113281 4.75 12.25 C 4.75 12.273438 4.753906 12.292969 4.757812 12.3125 C 4.785156 12.203125 4.882812 12.125 5 12.125 C 5.117188 12.125 5.214844 12.203125 5.242188 12.3125 C 5.246094 12.292969 5.25 12.273438 5.25 12.25 C 5.25 12.113281 5.136719 12 5 12 C 4.996094 12 4.996094 12 4.992188 12 Z M 4.992188 12 "/>
<path style=" stroke:none;fill-rule:nonzero;fill:rgb(100%,100%,100%);fill-opacity:0.4;" d="M 4.992188 12.625 C 4.859375 12.621094 4.75 12.511719 4.75 12.375 C 4.75 12.351562 4.753906 12.332031 4.757812 12.3125 C 4.785156 12.421875 4.882812 12.5 5 12.5 C 5.117188 12.5 5.214844 12.421875 5.242188 12.3125 C 5.246094 12.332031 5.25 12.351562 5.25 12.375 C 5.25 12.511719 5.136719 12.625 5 12.625 C 4.996094 12.625 4.996094 12.625 4.992188 12.625 Z M 4.992188 12.625 "/>
<path style=" stroke:none;fill-rule:nonzero;fill:rgb(0%,0%,0%);fill-opacity:0.4;" d="M 5.976562 12 C 6.113281 12 6.226562 12.113281 6.226562 12.25 C 6.226562 12.386719 6.113281 12.5 5.976562 12.5 C 5.839844 12.5 5.726562 12.386719 5.726562 12.25 C 5.726562 12.113281 5.839844 12 5.976562 12 Z M 5.976562 12 "/>
<path style=" stroke:none;fill-rule:nonzero;fill:rgb(0%,0%,0%);fill-opacity:0.4;" d="M 5.96875 12 C 5.835938 12.003906 5.726562 12.113281 5.726562 12.25 C 5.726562 12.273438 5.730469 12.292969 5.734375 12.3125 C 5.761719 12.203125 5.859375 12.125 5.976562 12.125 C 6.09375 12.125 6.191406 12.203125 6.21875 12.3125 C 6.222656 12.292969 6.226562 12.273438 6.226562 12.25 C 6.226562 12.113281 6.113281 12 5.976562 12 C 5.972656 12 5.972656 12 5.96875 12 Z M 5.96875 12 "/>
<path style=" stroke:none;fill-rule:nonzero;fill:rgb(100%,100%,100%);fill-opacity:0.4;" d="M 5.96875 12.625 C 5.835938 12.621094 5.726562 12.511719 5.726562 12.375 C 5.726562 12.351562 5.730469 12.332031 5.734375 12.3125 C 5.761719 12.421875 5.859375 12.5 5.976562 12.5 C 6.09375 12.5 6.191406 12.421875 6.21875 12.3125 C 6.222656 12.332031 6.226562 12.351562 6.226562 12.375 C 6.226562 12.511719 6.113281 12.625 5.976562 12.625 C 5.972656 12.625 5.972656 12.625 5.96875 12.625 Z M 5.96875 12.625 "/>
<path style=" stroke:none;fill-rule:nonzero;fill:rgb(0%,0%,0%);fill-opacity:0.4;" d="M 6.984375 12 C 7.121094 12 7.234375 12.113281 7.234375 12.25 C 7.234375 12.386719 7.121094 12.5 6.984375 12.5 C 6.847656 12.5 6.734375 12.386719 6.734375 12.25 C 6.734375 12.113281 6.847656 12 6.984375 12 Z M 6.984375 12 "/>
<path style=" stroke:none;fill-rule:nonzero;fill:rgb(0%,0%,0%);fill-opacity:0.4;" d="M 6.976562 12 C 6.84375 12.003906 6.734375 12.113281 6.734375 12.25 C 6.734375 12.273438 6.738281 12.292969 6.742188 12.3125 C 6.769531 12.203125 6.867188 12.125 6.984375 12.125 C 7.101562 12.125 7.199219 12.203125 7.226562 12.3125 C 7.230469 12.292969 7.234375 12.273438 7.234375 12.25 C 7.234375 12.113281 7.121094 12 6.984375 12 C 6.980469 12 6.980469 12 6.976562 12 Z M 6.976562 12 "/>
<path style=" stroke:none;fill-rule:nonzero;fill:rgb(100%,100%,100%);fill-opacity:0.4;" d="M 6.976562 12.625 C 6.84375 12.621094 6.734375 12.511719 6.734375 12.375 C 6.734375 12.351562 6.738281 12.332031 6.742188 12.3125 C 6.769531 12.421875 6.867188 12.5 6.984375 12.5 C 7.101562 12.5 7.199219 12.421875 7.226562 12.3125 C 7.230469 12.332031 7.234375 12.351562 7.234375 12.375 C 7.234375 12.511719 7.121094 12.625 6.984375 12.625 C 6.980469 12.625 6.980469 12.625 6.976562 12.625 Z M 6.976562 12.625 "/>
<path style=" stroke:none;fill-rule:nonzero;fill:rgb(0%,0%,0%);fill-opacity:0.4;" d="M 7.984375 12 C 8.121094 12 8.234375 12.113281 8.234375 12.25 C 8.234375 12.386719 8.121094 12.5 7.984375 12.5 C 7.847656 12.5 7.734375 12.386719 7.734375 12.25 C 7.734375 12.113281 7.847656 12 7.984375 12 Z M 7.984375 12 "/>
<path style=" stroke:none;fill-rule:nonzero;fill:rgb(0%,0%,0%);fill-opacity:0.4;" d="M 7.976562 12 C 7.84375 12.003906 7.734375 12.113281 7.734375 12.25 C 7.734375 12.273438 7.738281 12.292969 7.742188 12.3125 C 7.769531 12.203125 7.867188 12.125 7.984375 12.125 C 8.101562 12.125 8.199219 12.203125 8.226562 12.3125 C 8.230469 12.292969 8.234375 12.273438 8.234375 12.25 C 8.234375 12.113281 8.121094 12 7.984375 12 C 7.980469 12 7.980469 12 7.976562 12 Z M 7.976562 12 "/>
<path style=" stroke:none;fill-rule:nonzero;fill:rgb(100%,100%,100%);fill-opacity:0.4;" d="M 7.976562 12.625 C 7.84375 12.621094 7.734375 12.511719 7.734375 12.375 C 7.734375 12.351562 7.738281 12.332031 7.742188 12.3125 C 7.769531 12.421875 7.867188 12.5 7.984375 12.5 C 8.101562 12.5 8.199219 12.421875 8.226562 12.3125 C 8.230469 12.332031 8.234375 12.351562 8.234375 12.375 C 8.234375 12.511719 8.121094 12.625 7.984375 12.625 C 7.980469 12.625 7.980469 12.625 7.976562 12.625 Z M 7.976562 12.625 "/>
<path style=" stroke:none;fill-rule:nonzero;fill:rgb(0%,0%,0%);fill-opacity:0.4;" d="M 8.992188 12 C 9.128906 12 9.242188 12.113281 9.242188 12.25 C 9.242188 12.386719 9.128906 12.5 8.992188 12.5 C 8.855469 12.5 8.742188 12.386719 8.742188 12.25 C 8.742188 12.113281 8.855469 12 8.992188 12 Z M 8.992188 12 "/>
<path style=" stroke:none;fill-rule:nonzero;fill:rgb(0%,0%,0%);fill-opacity:0.4;" d="M 8.984375 12 C 8.851562 12.003906 8.742188 12.113281 8.742188 12.25 C 8.742188 12.273438 8.746094 12.292969 8.75 12.3125 C 8.777344 12.203125 8.875 12.125 8.992188 12.125 C 9.109375 12.125 9.207031 12.203125 9.234375 12.3125 C 9.238281 12.292969 9.242188 12.273438 9.242188 12.25 C 9.242188 12.113281 9.128906 12 8.992188 12 C 8.988281 12 8.988281 12 8.984375 12 Z M 8.984375 12 "/>
<path style=" stroke:none;fill-rule:nonzero;fill:rgb(100%,100%,100%);fill-opacity:0.4;" d="M 8.984375 12.625 C 8.851562 12.621094 8.742188 12.511719 8.742188 12.375 C 8.742188 12.351562 8.746094 12.332031 8.75 12.3125 C 8.777344 12.421875 8.875 12.5 8.992188 12.5 C 9.109375 12.5 9.207031 12.421875 9.234375 12.3125 C 9.238281 12.332031 9.242188 12.351562 9.242188 12.375 C 9.242188 12.511719 9.128906 12.625 8.992188 12.625 C 8.988281 12.625 8.988281 12.625 8.984375 12.625 Z M 8.984375 12.625 "/>
<path style=" stroke:none;fill-rule:nonzero;fill:rgb(0%,0%,0%);fill-opacity:0.4;" d="M 9.976562 12 C 10.113281 12 10.226562 12.113281 10.226562 12.25 C 10.226562 12.386719 10.113281 12.5 9.976562 12.5 C 9.839844 12.5 9.726562 12.386719 9.726562 12.25 C 9.726562 12.113281 9.839844 12 9.976562 12 Z M 9.976562 12 "/>
<path style=" stroke:none;fill-rule:nonzero;fill:rgb(0%,0%,0%);fill-opacity:0.4;" d="M 9.96875 12 C 9.835938 12.003906 9.726562 12.113281 9.726562 12.25 C 9.726562 12.273438 9.730469 12.292969 9.734375 12.3125 C 9.761719 12.203125 9.859375 12.125 9.976562 12.125 C 10.09375 12.125 10.191406 12.203125 10.21875 12.3125 C 10.222656 12.292969 10.226562 12.273438 10.226562 12.25 C 10.226562 12.113281 10.113281 12 9.976562 12 C 9.972656 12 9.972656 12 9.96875 12 Z M 9.96875 12 "/>
<path style=" stroke:none;fill-rule:nonzero;fill:rgb(100%,100%,100%);fill-opacity:0.4;" d="M 9.96875 12.625 C 9.835938 12.621094 9.726562 12.511719 9.726562 12.375 C 9.726562 12.351562 9.730469 12.332031 9.734375 12.3125 C 9.761719 12.421875 9.859375 12.5 9.976562 12.5 C 10.09375 12.5 10.191406 12.421875 10.21875 12.3125 C 10.222656 12.332031 10.226562 12.351562 10.226562 12.375 C 10.226562 12.511719 10.113281 12.625 9.976562 12.625 C 9.972656 12.625 9.972656 12.625 9.96875 12.625 Z M 9.96875 12.625 "/>
<path style=" stroke:none;fill-rule:nonzero;fill:rgb(0%,0%,0%);fill-opacity:0.4;" d="M 10.984375 12 C 11.121094 12 11.234375 12.113281 11.234375 12.25 C 11.234375 12.386719 11.121094 12.5 10.984375 12.5 C 10.847656 12.5 10.734375 12.386719 10.734375 12.25 C 10.734375 12.113281 10.847656 12 10.984375 12 Z M 10.984375 12 "/>
<path style=" stroke:none;fill-rule:nonzero;fill:rgb(0%,0%,0%);fill-opacity:0.4;" d="M 10.976562 12 C 10.84375 12.003906 10.734375 12.113281 10.734375 12.25 C 10.734375 12.273438 10.738281 12.292969 10.742188 12.3125 C 10.769531 12.203125 10.867188 12.125 10.984375 12.125 C 11.101562 12.125 11.199219 12.203125 11.226562 12.3125 C 11.230469 12.292969 11.234375 12.273438 11.234375 12.25 C 11.234375 12.113281 11.121094 12 10.984375 12 C 10.980469 12 10.980469 12 10.976562 12 Z M 10.976562 12 "/>
<path style=" stroke:none;fill-rule:nonzero;fill:rgb(100%,100%,100%);fill-opacity:0.4;" d="M 10.976562 12.625 C 10.84375 12.621094 10.734375 12.511719 10.734375 12.375 C 10.734375 12.351562 10.738281 12.332031 10.742188 12.3125 C 10.769531 12.421875 10.867188 12.5 10.984375 12.5 C 11.101562 12.5 11.199219 12.421875 11.226562 12.3125 C 11.230469 12.332031 11.234375 12.351562 11.234375 12.375 C 11.234375 12.511719 11.121094 12.625 10.984375 12.625 C 10.980469 12.625 10.980469 12.625 10.976562 12.625 Z M 10.976562 12.625 "/>
<path style=" stroke:none;fill-rule:nonzero;fill:rgb(0%,0%,0%);fill-opacity:0.4;" d="M 11.984375 12 C 12.121094 12 12.234375 12.113281 12.234375 12.25 C 12.234375 12.386719 12.121094 12.5 11.984375 12.5 C 11.847656 12.5 11.734375 12.386719 11.734375 12.25 C 11.734375 12.113281 11.847656 12 11.984375 12 Z M 11.984375 12 "/>
<path style=" stroke:none;fill-rule:nonzero;fill:rgb(0%,0%,0%);fill-opacity:0.4;" d="M 11.976562 12 C 11.84375 12.003906 11.734375 12.113281 11.734375 12.25 C 11.734375 12.273438 11.738281 12.292969 11.742188 12.3125 C 11.769531 12.203125 11.867188 12.125 11.984375 12.125 C 12.101562 12.125 12.199219 12.203125 12.226562 12.3125 C 12.230469 12.292969 12.234375 12.273438 12.234375 12.25 C 12.234375 12.113281 12.121094 12 11.984375 12 C 11.980469 12 11.980469 12 11.976562 12 Z M 11.976562 12 "/>
<path style=" stroke:none;fill-rule:nonzero;fill:rgb(100%,100%,100%);fill-opacity:0.4;" d="M 11.976562 12.625 C 11.84375 12.621094 11.734375 12.511719 11.734375 12.375 C 11.734375 12.351562 11.738281 12.332031 11.742188 12.3125 C 11.769531 12.421875 11.867188 12.5 11.984375 12.5 C 12.101562 12.5 12.199219 12.421875 12.226562 12.3125 C 12.230469 12.332031 12.234375 12.351562 12.234375 12.375 C 12.234375 12.511719 12.121094 12.625 11.984375 12.625 C 11.980469 12.625 11.980469 12.625 11.976562 12.625 Z M 11.976562 12.625 "/>
<path style=" stroke:none;fill-rule:nonzero;fill:rgb(0%,0%,0%);fill-opacity:0.4;" d="M 12.992188 12 C 13.128906 12 13.242188 12.113281 13.242188 12.25 C 13.242188 12.386719 13.128906 12.5 12.992188 12.5 C 12.855469 12.5 12.742188 12.386719 12.742188 12.25 C 12.742188 12.113281 12.855469 12 12.992188 12 Z M 12.992188 12 "/>
<path style=" stroke:none;fill-rule:nonzero;fill:rgb(0%,0%,0%);fill-opacity:0.4;" d="M 12.984375 12 C 12.851562 12.003906 12.742188 12.113281 12.742188 12.25 C 12.742188 12.273438 12.746094 12.292969 12.75 12.3125 C 12.777344 12.203125 12.875 12.125 12.992188 12.125 C 13.109375 12.125 13.207031 12.203125 13.234375 12.3125 C 13.238281 12.292969 13.242188 12.273438 13.242188 12.25 C 13.242188 12.113281 13.128906 12 12.992188 12 C 12.988281 12 12.988281 12 12.984375 12 Z M 12.984375 12 "/>
<path style=" stroke:none;fill-rule:nonzero;fill:rgb(100%,100%,100%);fill-opacity:0.4;" d="M 12.984375 12.625 C 12.851562 12.621094 12.742188 12.511719 12.742188 12.375 C 12.742188 12.351562 12.746094 12.332031 12.75 12.3125 C 12.777344 12.421875 12.875 12.5 12.992188 12.5 C 13.109375 12.5 13.207031 12.421875 13.234375 12.3125 C 13.238281 12.332031 13.242188 12.351562 13.242188 12.375 C 13.242188 12.511719 13.128906 12.625 12.992188 12.625 C 12.988281 12.625 12.988281 12.625 12.984375 12.625 Z M 12.984375 12.625 "/>
<path style=" stroke:none;fill-rule:nonzero;fill:rgb(0%,0%,0%);fill-opacity:0.4;" d="M 2.5 13 C 2.636719 13 2.75 13.113281 2.75 13.25 C 2.75 13.386719 2.636719 13.5 2.5 13.5 C 2.363281 13.5 2.25 13.386719 2.25 13.25 C 2.25 13.113281 2.363281 13 2.5 13 Z M 2.5 13 "/>
<path style=" stroke:none;fill-rule:nonzero;fill:rgb(0%,0%,0%);fill-opacity:0.4;" d="M 2.492188 13 C 2.359375 13.003906 2.25 13.113281 2.25 13.25 C 2.25 13.273438 2.253906 13.292969 2.257812 13.3125 C 2.285156 13.203125 2.382812 13.125 2.5 13.125 C 2.617188 13.125 2.714844 13.203125 2.742188 13.3125 C 2.746094 13.292969 2.75 13.273438 2.75 13.25 C 2.75 13.113281 2.636719 13 2.5 13 C 2.496094 13 2.496094 13 2.492188 13 Z M 2.492188 13 "/>
<path style=" stroke:none;fill-rule:nonzero;fill:rgb(100%,100%,100%);fill-opacity:0.4;" d="M 2.492188 13.625 C 2.359375 13.621094 2.25 13.511719 2.25 13.375 C 2.25 13.351562 2.253906 13.332031 2.257812 13.3125 C 2.285156 13.421875 2.382812 13.5 2.5 13.5 C 2.617188 13.5 2.714844 13.421875 2.742188 13.3125 C 2.746094 13.332031 2.75 13.351562 2.75 13.375 C 2.75 13.511719 2.636719 13.625 2.5 13.625 C 2.496094 13.625 2.496094 13.625 2.492188 13.625 Z M 2.492188 13.625 "/>
<path style=" stroke:none;fill-rule:nonzero;fill:rgb(0%,0%,0%);fill-opacity:0.4;" d="M 3.507812 13 C 3.644531 13 3.757812 13.113281 3.757812 13.25 C 3.757812 13.386719 3.644531 13.5 3.507812 13.5 C 3.371094 13.5 3.257812 13.386719 3.257812 13.25 C 3.257812 13.113281 3.371094 13 3.507812 13 Z M 3.507812 13 "/>
<path style=" stroke:none;fill-rule:nonzero;fill:rgb(0%,0%,0%);fill-opacity:0.4;" d="M 3.5 13 C 3.367188 13.003906 3.257812 13.113281 3.257812 13.25 C 3.257812 13.273438 3.261719 13.292969 3.265625 13.3125 C 3.292969 13.203125 3.390625 13.125 3.507812 13.125 C 3.625 13.125 3.722656 13.203125 3.75 13.3125 C 3.753906 13.292969 3.757812 13.273438 3.757812 13.25 C 3.757812 13.113281 3.644531 13 3.507812 13 C 3.503906 13 3.503906 13 3.5 13 Z M 3.5 13 "/>
<path style=" stroke:none;fill-rule:nonzero;fill:rgb(100%,100%,100%);fill-opacity:0.4;" d="M 3.5 13.625 C 3.367188 13.621094 3.257812 13.511719 3.257812 13.375 C 3.257812 13.351562 3.261719 13.332031 3.265625 13.3125 C 3.292969 13.421875 3.390625 13.5 3.507812 13.5 C 3.625 13.5 3.722656 13.421875 3.75 13.3125 C 3.753906 13.332031 3.757812 13.351562 3.757812 13.375 C 3.757812 13.511719 3.644531 13.625 3.507812 13.625 C 3.503906 13.625 3.503906 13.625 3.5 13.625 Z M 3.5 13.625 "/>
<path style=" stroke:none;fill-rule:nonzero;fill:rgb(0%,0%,0%);fill-opacity:0.4;" d="M 4.507812 13 C 4.644531 13 4.757812 13.113281 4.757812 13.25 C 4.757812 13.386719 4.644531 13.5 4.507812 13.5 C 4.371094 13.5 4.257812 13.386719 4.257812 13.25 C 4.257812 13.113281 4.371094 13 4.507812 13 Z M 4.507812 13 "/>
<path style=" stroke:none;fill-rule:nonzero;fill:rgb(0%,0%,0%);fill-opacity:0.4;" d="M 4.5 13 C 4.367188 13.003906 4.257812 13.113281 4.257812 13.25 C 4.257812 13.273438 4.261719 13.292969 4.265625 13.3125 C 4.292969 13.203125 4.390625 13.125 4.507812 13.125 C 4.625 13.125 4.722656 13.203125 4.75 13.3125 C 4.753906 13.292969 4.757812 13.273438 4.757812 13.25 C 4.757812 13.113281 4.644531 13 4.507812 13 C 4.503906 13 4.503906 13 4.5 13 Z M 4.5 13 "/>
<path style=" stroke:none;fill-rule:nonzero;fill:rgb(100%,100%,100%);fill-opacity:0.4;" d="M 4.5 13.625 C 4.367188 13.621094 4.257812 13.511719 4.257812 13.375 C 4.257812 13.351562 4.261719 13.332031 4.265625 13.3125 C 4.292969 13.421875 4.390625 13.5 4.507812 13.5 C 4.625 13.5 4.722656 13.421875 4.75 13.3125 C 4.753906 13.332031 4.757812 13.351562 4.757812 13.375 C 4.757812 13.511719 4.644531 13.625 4.507812 13.625 C 4.503906 13.625 4.503906 13.625 4.5 13.625 Z M 4.5 13.625 "/>
<path style=" stroke:none;fill-rule:nonzero;fill:rgb(0%,0%,0%);fill-opacity:0.4;" d="M 5.515625 13 C 5.652344 13 5.765625 13.113281 5.765625 13.25 C 5.765625 13.386719 5.652344 13.5 5.515625 13.5 C 5.378906 13.5 5.265625 13.386719 5.265625 13.25 C 5.265625 13.113281 5.378906 13 5.515625 13 Z M 5.515625 13 "/>
<path style=" stroke:none;fill-rule:nonzero;fill:rgb(0%,0%,0%);fill-opacity:0.4;" d="M 5.507812 13 C 5.375 13.003906 5.265625 13.113281 5.265625 13.25 C 5.265625 13.273438 5.269531 13.292969 5.273438 13.3125 C 5.300781 13.203125 5.398438 13.125 5.515625 13.125 C 5.632812 13.125 5.730469 13.203125 5.757812 13.3125 C 5.761719 13.292969 5.765625 13.273438 5.765625 13.25 C 5.765625 13.113281 5.652344 13 5.515625 13 C 5.511719 13 5.511719 13 5.507812 13 Z M 5.507812 13 "/>
<path style=" stroke:none;fill-rule:nonzero;fill:rgb(100%,100%,100%);fill-opacity:0.4;" d="M 5.507812 13.625 C 5.375 13.621094 5.265625 13.511719 5.265625 13.375 C 5.265625 13.351562 5.269531 13.332031 5.273438 13.3125 C 5.300781 13.421875 5.398438 13.5 5.515625 13.5 C 5.632812 13.5 5.730469 13.421875 5.757812 13.3125 C 5.761719 13.332031 5.765625 13.351562 5.765625 13.375 C 5.765625 13.511719 5.652344 13.625 5.515625 13.625 C 5.511719 13.625 5.511719 13.625 5.507812 13.625 Z M 5.507812 13.625 "/>
<path style=" stroke:none;fill-rule:nonzero;fill:rgb(0%,0%,0%);fill-opacity:0.4;" d="M 6.492188 13 C 6.628906 13 6.742188 13.113281 6.742188 13.25 C 6.742188 13.386719 6.628906 13.5 6.492188 13.5 C 6.355469 13.5 6.242188 13.386719 6.242188 13.25 C 6.242188 13.113281 6.355469 13 6.492188 13 Z M 6.492188 13 "/>
<path style=" stroke:none;fill-rule:nonzero;fill:rgb(0%,0%,0%);fill-opacity:0.4;" d="M 6.484375 13 C 6.351562 13.003906 6.242188 13.113281 6.242188 13.25 C 6.242188 13.273438 6.246094 13.292969 6.25 13.3125 C 6.277344 13.203125 6.375 13.125 6.492188 13.125 C 6.609375 13.125 6.707031 13.203125 6.734375 13.3125 C 6.738281 13.292969 6.742188 13.273438 6.742188 13.25 C 6.742188 13.113281 6.628906 13 6.492188 13 C 6.488281 13 6.488281 13 6.484375 13 Z M 6.484375 13 "/>
<path style=" stroke:none;fill-rule:nonzero;fill:rgb(100%,100%,100%);fill-opacity:0.4;" d="M 6.484375 13.625 C 6.351562 13.621094 6.242188 13.511719 6.242188 13.375 C 6.242188 13.351562 6.246094 13.332031 6.25 13.3125 C 6.277344 13.421875 6.375 13.5 6.492188 13.5 C 6.609375 13.5 6.707031 13.421875 6.734375 13.3125 C 6.738281 13.332031 6.742188 13.351562 6.742188 13.375 C 6.742188 13.511719 6.628906 13.625 6.492188 13.625 C 6.488281 13.625 6.488281 13.625 6.484375 13.625 Z M 6.484375 13.625 "/>
<path style=" stroke:none;fill-rule:nonzero;fill:rgb(0%,0%,0%);fill-opacity:0.4;" d="M 7.5 13 C 7.636719 13 7.75 13.113281 7.75 13.25 C 7.75 13.386719 7.636719 13.5 7.5 13.5 C 7.363281 13.5 7.25 13.386719 7.25 13.25 C 7.25 13.113281 7.363281 13 7.5 13 Z M 7.5 13 "/>
<path style=" stroke:none;fill-rule:nonzero;fill:rgb(0%,0%,0%);fill-opacity:0.4;" d="M 7.492188 13 C 7.359375 13.003906 7.25 13.113281 7.25 13.25 C 7.25 13.273438 7.253906 13.292969 7.257812 13.3125 C 7.285156 13.203125 7.382812 13.125 7.5 13.125 C 7.617188 13.125 7.714844 13.203125 7.742188 13.3125 C 7.746094 13.292969 7.75 13.273438 7.75 13.25 C 7.75 13.113281 7.636719 13 7.5 13 C 7.496094 13 7.496094 13 7.492188 13 Z M 7.492188 13 "/>
<path style=" stroke:none;fill-rule:nonzero;fill:rgb(100%,100%,100%);fill-opacity:0.4;" d="M 7.492188 13.625 C 7.359375 13.621094 7.25 13.511719 7.25 13.375 C 7.25 13.351562 7.253906 13.332031 7.257812 13.3125 C 7.285156 13.421875 7.382812 13.5 7.5 13.5 C 7.617188 13.5 7.714844 13.421875 7.742188 13.3125 C 7.746094 13.332031 7.75 13.351562 7.75 13.375 C 7.75 13.511719 7.636719 13.625 7.5 13.625 C 7.496094 13.625 7.496094 13.625 7.492188 13.625 Z M 7.492188 13.625 "/>
<path style=" stroke:none;fill-rule:nonzero;fill:rgb(0%,0%,0%);fill-opacity:0.4;" d="M 8.5 13 C 8.636719 13 8.75 13.113281 8.75 13.25 C 8.75 13.386719 8.636719 13.5 8.5 13.5 C 8.363281 13.5 8.25 13.386719 8.25 13.25 C 8.25 13.113281 8.363281 13 8.5 13 Z M 8.5 13 "/>
<path style=" stroke:none;fill-rule:nonzero;fill:rgb(0%,0%,0%);fill-opacity:0.4;" d="M 8.492188 13 C 8.359375 13.003906 8.25 13.113281 8.25 13.25 C 8.25 13.273438 8.253906 13.292969 8.257812 13.3125 C 8.285156 13.203125 8.382812 13.125 8.5 13.125 C 8.617188 13.125 8.714844 13.203125 8.742188 13.3125 C 8.746094 13.292969 8.75 13.273438 8.75 13.25 C 8.75 13.113281 8.636719 13 8.5 13 C 8.496094 13 8.496094 13 8.492188 13 Z M 8.492188 13 "/>
<path style=" stroke:none;fill-rule:nonzero;fill:rgb(100%,100%,100%);fill-opacity:0.4;" d="M 8.492188 13.625 C 8.359375 13.621094 8.25 13.511719 8.25 13.375 C 8.25 13.351562 8.253906 13.332031 8.257812 13.3125 C 8.285156 13.421875 8.382812 13.5 8.5 13.5 C 8.617188 13.5 8.714844 13.421875 8.742188 13.3125 C 8.746094 13.332031 8.75 13.351562 8.75 13.375 C 8.75 13.511719 8.636719 13.625 8.5 13.625 C 8.496094 13.625 8.496094 13.625 8.492188 13.625 Z M 8.492188 13.625 "/>
<path style=" stroke:none;fill-rule:nonzero;fill:rgb(0%,0%,0%);fill-opacity:0.4;" d="M 9.507812 13 C 9.644531 13 9.757812 13.113281 9.757812 13.25 C 9.757812 13.386719 9.644531 13.5 9.507812 13.5 C 9.371094 13.5 9.257812 13.386719 9.257812 13.25 C 9.257812 13.113281 9.371094 13 9.507812 13 Z M 9.507812 13 "/>
<path style=" stroke:none;fill-rule:nonzero;fill:rgb(0%,0%,0%);fill-opacity:0.4;" d="M 9.5 13 C 9.367188 13.003906 9.257812 13.113281 9.257812 13.25 C 9.257812 13.273438 9.261719 13.292969 9.265625 13.3125 C 9.292969 13.203125 9.390625 13.125 9.507812 13.125 C 9.625 13.125 9.722656 13.203125 9.75 13.3125 C 9.753906 13.292969 9.757812 13.273438 9.757812 13.25 C 9.757812 13.113281 9.644531 13 9.507812 13 C 9.503906 13 9.503906 13 9.5 13 Z M 9.5 13 "/>
<path style=" stroke:none;fill-rule:nonzero;fill:rgb(100%,100%,100%);fill-opacity:0.4;" d="M 9.5 13.625 C 9.367188 13.621094 9.257812 13.511719 9.257812 13.375 C 9.257812 13.351562 9.261719 13.332031 9.265625 13.3125 C 9.292969 13.421875 9.390625 13.5 9.507812 13.5 C 9.625 13.5 9.722656 13.421875 9.75 13.3125 C 9.753906 13.332031 9.757812 13.351562 9.757812 13.375 C 9.757812 13.511719 9.644531 13.625 9.507812 13.625 C 9.503906 13.625 9.503906 13.625 9.5 13.625 Z M 9.5 13.625 "/>
<path style=" stroke:none;fill-rule:nonzero;fill:rgb(0%,0%,0%);fill-opacity:0.4;" d="M 10.492188 13 C 10.628906 13 10.742188 13.113281 10.742188 13.25 C 10.742188 13.386719 10.628906 13.5 10.492188 13.5 C 10.355469 13.5 10.242188 13.386719 10.242188 13.25 C 10.242188 13.113281 10.355469 13 10.492188 13 Z M 10.492188 13 "/>
<path style=" stroke:none;fill-rule:nonzero;fill:rgb(0%,0%,0%);fill-opacity:0.4;" d="M 10.484375 13 C 10.351562 13.003906 10.242188 13.113281 10.242188 13.25 C 10.242188 13.273438 10.246094 13.292969 10.25 13.3125 C 10.277344 13.203125 10.375 13.125 10.492188 13.125 C 10.609375 13.125 10.707031 13.203125 10.734375 13.3125 C 10.738281 13.292969 10.742188 13.273438 10.742188 13.25 C 10.742188 13.113281 10.628906 13 10.492188 13 C 10.488281 13 10.488281 13 10.484375 13 Z M 10.484375 13 "/>
<path style=" stroke:none;fill-rule:nonzero;fill:rgb(100%,100%,100%);fill-opacity:0.4;" d="M 10.484375 13.625 C 10.351562 13.621094 10.242188 13.511719 10.242188 13.375 C 10.242188 13.351562 10.246094 13.332031 10.25 13.3125 C 10.277344 13.421875 10.375 13.5 10.492188 13.5 C 10.609375 13.5 10.707031 13.421875 10.734375 13.3125 C 10.738281 13.332031 10.742188 13.351562 10.742188 13.375 C 10.742188 13.511719 10.628906 13.625 10.492188 13.625 C 10.488281 13.625 10.488281 13.625 10.484375 13.625 Z M 10.484375 13.625 "/>
<path style=" stroke:none;fill-rule:nonzero;fill:rgb(0%,0%,0%);fill-opacity:0.4;" d="M 11.5 13 C 11.636719 13 11.75 13.113281 11.75 13.25 C 11.75 13.386719 11.636719 13.5 11.5 13.5 C 11.363281 13.5 11.25 13.386719 11.25 13.25 C 11.25 13.113281 11.363281 13 11.5 13 Z M 11.5 13 "/>
<path style=" stroke:none;fill-rule:nonzero;fill:rgb(0%,0%,0%);fill-opacity:0.4;" d="M 11.492188 13 C 11.359375 13.003906 11.25 13.113281 11.25 13.25 C 11.25 13.273438 11.253906 13.292969 11.257812 13.3125 C 11.285156 13.203125 11.382812 13.125 11.5 13.125 C 11.617188 13.125 11.714844 13.203125 11.742188 13.3125 C 11.746094 13.292969 11.75 13.273438 11.75 13.25 C 11.75 13.113281 11.636719 13 11.5 13 C 11.496094 13 11.496094 13 11.492188 13 Z M 11.492188 13 "/>
<path style=" stroke:none;fill-rule:nonzero;fill:rgb(100%,100%,100%);fill-opacity:0.4;" d="M 11.492188 13.625 C 11.359375 13.621094 11.25 13.511719 11.25 13.375 C 11.25 13.351562 11.253906 13.332031 11.257812 13.3125 C 11.285156 13.421875 11.382812 13.5 11.5 13.5 C 11.617188 13.5 11.714844 13.421875 11.742188 13.3125 C 11.746094 13.332031 11.75 13.351562 11.75 13.375 C 11.75 13.511719 11.636719 13.625 11.5 13.625 C 11.496094 13.625 11.496094 13.625 11.492188 13.625 Z M 11.492188 13.625 "/>
<path style=" stroke:none;fill-rule:nonzero;fill:rgb(0%,0%,0%);fill-opacity:0.4;" d="M 12.5 13 C 12.636719 13 12.75 13.113281 12.75 13.25 C 12.75 13.386719 12.636719 13.5 12.5 13.5 C 12.363281 13.5 12.25 13.386719 12.25 13.25 C 12.25 13.113281 12.363281 13 12.5 13 Z M 12.5 13 "/>
<path style=" stroke:none;fill-rule:nonzero;fill:rgb(0%,0%,0%);fill-opacity:0.4;" d="M 12.492188 13 C 12.359375 13.003906 12.25 13.113281 12.25 13.25 C 12.25 13.273438 12.253906 13.292969 12.257812 13.3125 C 12.285156 13.203125 12.382812 13.125 12.5 13.125 C 12.617188 13.125 12.714844 13.203125 12.742188 13.3125 C 12.746094 13.292969 12.75 13.273438 12.75 13.25 C 12.75 13.113281 12.636719 13 12.5 13 C 12.496094 13 12.496094 13 12.492188 13 Z M 12.492188 13 "/>
<path style=" stroke:none;fill-rule:nonzero;fill:rgb(100%,100%,100%);fill-opacity:0.4;" d="M 12.492188 13.625 C 12.359375 13.621094 12.25 13.511719 12.25 13.375 C 12.25 13.351562 12.253906 13.332031 12.257812 13.3125 C 12.285156 13.421875 12.382812 13.5 12.5 13.5 C 12.617188 13.5 12.714844 13.421875 12.742188 13.3125 C 12.746094 13.332031 12.75 13.351562 12.75 13.375 C 12.75 13.511719 12.636719 13.625 12.5 13.625 C 12.496094 13.625 12.496094 13.625 12.492188 13.625 Z M 12.492188 13.625 "/>
<path style=" stroke:none;fill-rule:nonzero;fill:rgb(0%,0%,0%);fill-opacity:0.4;" d="M 13.507812 13 C 13.644531 13 13.757812 13.113281 13.757812 13.25 C 13.757812 13.386719 13.644531 13.5 13.507812 13.5 C 13.371094 13.5 13.257812 13.386719 13.257812 13.25 C 13.257812 13.113281 13.371094 13 13.507812 13 Z M 13.507812 13 "/>
<path style=" stroke:none;fill-rule:nonzero;fill:rgb(0%,0%,0%);fill-opacity:0.4;" d="M 13.5 13 C 13.367188 13.003906 13.257812 13.113281 13.257812 13.25 C 13.257812 13.273438 13.261719 13.292969 13.265625 13.3125 C 13.292969 13.203125 13.390625 13.125 13.507812 13.125 C 13.625 13.125 13.722656 13.203125 13.75 13.3125 C 13.753906 13.292969 13.757812 13.273438 13.757812 13.25 C 13.757812 13.113281 13.644531 13 13.507812 13 C 13.503906 13 13.503906 13 13.5 13 Z M 13.5 13 "/>
<path style=" stroke:none;fill-rule:nonzero;fill:rgb(100%,100%,100%);fill-opacity:0.4;" d="M 13.5 13.625 C 13.367188 13.621094 13.257812 13.511719 13.257812 13.375 C 13.257812 13.351562 13.261719 13.332031 13.265625 13.3125 C 13.292969 13.421875 13.390625 13.5 13.507812 13.5 C 13.625 13.5 13.722656 13.421875 13.75 13.3125 C 13.753906 13.332031 13.757812 13.351562 13.757812 13.375 C 13.757812 13.511719 13.644531 13.625 13.507812 13.625 C 13.503906 13.625 13.503906 13.625 13.5 13.625 Z M 13.5 13.625 "/>
<path style=" stroke:none;fill-rule:nonzero;fill:url(#linear0);" d="M 2 1 L 14 1 C 14.550781 1 15 1.449219 15 2 L 15 14 C 15 14.550781 14.550781 15 14 15 L 2 15 C 1.449219 15 1 14.550781 1 14 L 1 2 C 1 1.449219 1.449219 1 2 1 Z M 2 1 "/>
</g>
</svg>
