
<svg xmlns="http://www.w3.org/2000/svg" xmlns:xlink="http://www.w3.org/1999/xlink" width="24" height="24" viewBox="0 0 24 24" version="1.1">
<defs>
<linearGradient id="linear0" gradientUnits="userSpaceOnUse" x1="34" y1="60" x2="34" y2="3.999999" gradientTransform="matrix(0.375,0,0,0.375,0,0.000000000000042633)">
<stop offset="0" style="stop-color:rgb(0%,0%,0%);stop-opacity:0.2;"/>
<stop offset="1" style="stop-color:rgb(100%,100%,100%);stop-opacity:0;"/>
</linearGradient>
</defs>
<g id="surface1">
<path style=" stroke:none;fill-rule:nonzero;fill:rgb(87.843138%,87.843138%,87.843138%);fill-opacity:1;" d="M 3 19.5 L 3 22.5 L 8.25 19.5 Z M 3 19.5 "/>
<path style=" stroke:none;fill-rule:nonzero;fill:rgb(87.843138%,87.843138%,87.843138%);fill-opacity:1;" d="M 3 4.5 L 21 4.5 C 21.828125 4.5 22.5 5.171875 22.5 6 L 22.5 18 C 22.5 18.828125 21.828125 19.5 21 19.5 L 3 19.5 C 2.171875 19.5 1.5 18.828125 1.5 18 L 1.5 6 C 1.5 5.171875 2.171875 4.5 3 4.5 Z M 3 4.5 "/>
<path style=" stroke:none;fill-rule:nonzero;fill:rgb(100%,100%,100%);fill-opacity:0.6;" d="M 3 4.5 C 2.167969 4.5 1.5 5.167969 1.5 6 L 1.5 6.382812 C 1.5 5.550781 2.167969 4.882812 3 4.882812 L 21 4.882812 C 21.832031 4.882812 22.5 5.550781 22.5 6.382812 L 22.5 6 C 22.5 5.167969 21.832031 4.5 21 4.5 Z M 3 4.5 "/>
<path style=" stroke:none;fill-rule:nonzero;fill:rgb(0%,0%,0%);fill-opacity:0.4;" d="M 3 19.507812 C 2.167969 19.507812 1.5 18.835938 1.5 18.007812 L 1.5 17.625 C 1.5 18.457031 2.167969 19.125 3 19.125 L 21 19.125 C 21.832031 19.125 22.5 18.457031 22.5 17.625 L 22.5 18.007812 C 22.5 18.835938 21.832031 19.507812 21 19.507812 Z M 3 19.507812 "/>
<path style=" stroke:none;fill-rule:nonzero;fill:rgb(0%,0%,0%);fill-opacity:0.2;" d="M 1.5 18.011719 L 1.5 18.554688 C 1.5 19.386719 2.167969 20.054688 3 20.054688 L 3 19.511719 C 2.167969 19.511719 1.5 18.84375 1.5 18.011719 Z M 22.5 18.011719 C 22.5 18.84375 21.832031 19.511719 21 19.511719 L 8.25 19.511719 L 3 22.511719 L 3 23.054688 L 8.25 20.054688 L 21 20.054688 C 21.832031 20.054688 22.5 19.386719 22.5 18.554688 Z M 22.5 18.011719 "/>
<path style=" stroke:none;fill-rule:nonzero;fill:rgb(49.411765%,34.117648%,76.078433%);fill-opacity:1;" d="M 18 1.5 C 20.484375 1.5 22.5 3.515625 22.5 6 C 22.5 8.484375 20.484375 10.5 18 10.5 C 15.515625 10.5 13.5 8.484375 13.5 6 C 13.5 3.515625 15.515625 1.5 18 1.5 Z M 18 1.5 "/>
<path style=" stroke:none;fill-rule:nonzero;fill:rgb(100%,100%,100%);fill-opacity:0.4;" d="M 18 1.5 C 15.507812 1.5 13.5 3.507812 13.5 6 C 13.5 6.0625 13.5 6.125 13.503906 6.1875 C 13.601562 3.78125 15.570312 1.875 18 1.875 C 20.429688 1.875 22.398438 3.78125 22.496094 6.1875 C 22.5 6.125 22.5 6.0625 22.5 6 C 22.5 3.507812 20.492188 1.5 18 1.5 Z M 18 1.5 "/>
<path style=" stroke:none;fill-rule:nonzero;fill:rgb(0%,0%,0%);fill-opacity:0.2;" d="M 18 10.875 C 15.507812 10.875 13.5 8.867188 13.5 6.375 C 13.5 6.3125 13.5 6.25 13.503906 6.1875 C 13.601562 8.59375 15.570312 10.5 18 10.5 C 20.429688 10.5 22.398438 8.59375 22.496094 6.1875 C 22.5 6.25 22.5 6.3125 22.5 6.375 C 22.5 8.867188 20.492188 10.875 18 10.875 Z M 18 10.875 "/>
<path style=" stroke:none;fill-rule:nonzero;fill:rgb(87.843138%,87.843138%,87.843138%);fill-opacity:1;" d="M 16.679688 3.75 C 16.578125 3.753906 16.5 3.835938 16.5 3.9375 L 16.5 4.3125 C 16.5 4.417969 16.582031 4.5 16.6875 4.5 L 17.625 4.5 L 17.625 7.5 L 16.6875 7.5 C 16.582031 7.5 16.5 7.582031 16.5 7.6875 L 16.5 8.0625 C 16.5 8.167969 16.582031 8.25 16.6875 8.25 L 19.3125 8.25 C 19.417969 8.25 19.5 8.167969 19.5 8.0625 L 19.5 7.6875 C 19.5 7.582031 19.417969 7.5 19.3125 7.5 L 18.375 7.5 L 18.375 4.5 L 19.3125 4.5 C 19.417969 4.5 19.5 4.417969 19.5 4.3125 L 19.5 3.9375 C 19.5 3.832031 19.417969 3.75 19.3125 3.75 L 16.6875 3.75 C 16.683594 3.75 16.679688 3.75 16.679688 3.75 Z M 16.679688 3.75 "/>
<path style=" stroke:none;fill-rule:nonzero;fill:rgb(100%,100%,100%);fill-opacity:0.6;" d="M 16.679688 3.75 C 16.578125 3.753906 16.5 3.835938 16.5 3.9375 L 16.5 4.3125 C 16.5 4.210938 16.578125 4.128906 16.679688 4.125 C 16.679688 4.125 16.683594 4.125 16.6875 4.125 L 19.3125 4.125 C 19.417969 4.125 19.5 4.207031 19.5 4.3125 L 19.5 3.9375 C 19.5 3.832031 19.417969 3.75 19.3125 3.75 L 16.6875 3.75 C 16.683594 3.75 16.679688 3.75 16.679688 3.75 Z M 16.6875 7.5 C 16.582031 7.5 16.5 7.582031 16.5 7.6875 L 16.5 8.0625 C 16.5 7.957031 16.582031 7.875 16.6875 7.875 L 17.625 7.875 L 17.625 7.5 Z M 18.375 7.5 L 18.375 7.875 L 19.3125 7.875 C 19.417969 7.875 19.5 7.957031 19.5 8.0625 L 19.5 7.6875 C 19.5 7.582031 19.417969 7.5 19.3125 7.5 Z M 18.375 7.5 "/>
<path style=" stroke:none;fill-rule:nonzero;fill:rgb(0.784314%,0.784314%,0.784314%);fill-opacity:0.4;" d="M 16.679688 8.625 C 16.578125 8.621094 16.5 8.539062 16.5 8.4375 L 16.5 8.0625 C 16.5 8.164062 16.578125 8.246094 16.679688 8.25 C 16.679688 8.25 16.683594 8.25 16.6875 8.25 L 19.3125 8.25 C 19.417969 8.25 19.5 8.167969 19.5 8.0625 L 19.5 8.4375 C 19.5 8.542969 19.417969 8.625 19.3125 8.625 L 16.6875 8.625 C 16.683594 8.625 16.679688 8.625 16.679688 8.625 Z M 16.6875 4.875 C 16.582031 4.875 16.5 4.792969 16.5 4.6875 L 16.5 4.3125 C 16.5 4.417969 16.582031 4.5 16.6875 4.5 L 17.625 4.5 L 17.625 4.875 Z M 18.375 4.875 L 18.375 4.5 L 19.3125 4.5 C 19.417969 4.5 19.5 4.417969 19.5 4.3125 L 19.5 4.6875 C 19.5 4.792969 19.417969 4.875 19.3125 4.875 Z M 18.375 4.875 "/>
<path style=" stroke:none;fill-rule:nonzero;fill:rgb(87.843138%,87.843138%,87.843138%);fill-opacity:1;" d="M 3 19.5 L 3 22.5 L 8.25 19.5 Z M 3 19.5 "/>
<path style=" stroke:none;fill-rule:nonzero;fill:url(#linear0);" d="M 18 1.5 C 16.035156 1.5 14.371094 2.75 13.753906 4.5 L 3 4.5 C 2.167969 4.5 1.5 5.167969 1.5 6 L 1.5 18 C 1.5 18.832031 2.167969 19.5 3 19.5 L 3 22.5 L 8.25 19.5 L 21 19.5 C 21.832031 19.5 22.5 18.832031 22.5 18 L 22.5 6 C 22.5 3.507812 20.492188 1.5 18 1.5 Z M 18 1.5 "/>
<path style=" stroke:none;fill-rule:nonzero;fill:rgb(0%,0%,0%);fill-opacity:0.2;" d="M 3 19.5 L 3 19.882812 L 7.582031 19.882812 L 8.25 19.5 Z M 3 19.5 "/>
</g>
</svg>
