
<svg xmlns="http://www.w3.org/2000/svg" xmlns:xlink="http://www.w3.org/1999/xlink" width="22" height="22" viewBox="0 0 22 22" version="1.1">
<defs>
<linearGradient id="linear0" gradientUnits="userSpaceOnUse" x1="31.999998" y1="60" x2="31.999998" y2="3.999999" gradientTransform="matrix(0.34375,0,0,0.34375,0,0.00000000000003908)">
<stop offset="0" style="stop-color:rgb(0%,0%,0%);stop-opacity:0.2;"/>
<stop offset="1" style="stop-color:rgb(100%,100%,100%);stop-opacity:0;"/>
</linearGradient>
</defs>
<g id="surface1">
<path style=" stroke:none;fill-rule:nonzero;fill:rgb(29.803923%,45.882353%,13.725491%);fill-opacity:1;" d="M 13.0625 2.75 C 12.550781 2.75 12.109375 3.027344 11.871094 3.4375 L 3.4375 3.4375 C 2.675781 3.4375 2.0625 4.050781 2.0625 4.8125 L 2.0625 6.875 C 2.0625 7.636719 2.675781 8.25 3.4375 8.25 L 18.5625 8.25 C 19.324219 8.25 19.9375 7.636719 19.9375 6.875 L 19.9375 4.125 C 19.9375 3.363281 19.324219 2.75 18.5625 2.75 Z M 13.0625 2.75 "/>
<path style=" stroke:none;fill-rule:nonzero;fill:rgb(100%,100%,100%);fill-opacity:0.4;" d="M 13.0625 2.75 C 12.550781 2.75 12.109375 3.027344 11.871094 3.4375 L 3.4375 3.4375 C 2.675781 3.4375 2.0625 4.050781 2.0625 4.8125 L 2.0625 4.839844 C 2.136719 4.144531 2.71875 3.609375 3.429688 3.609375 L 11.863281 3.609375 C 12.101562 3.199219 12.542969 2.921875 13.054688 2.921875 L 18.554688 2.921875 C 19.316406 2.921875 19.929688 3.535156 19.929688 4.296875 L 19.929688 7.019531 C 19.933594 6.972656 19.9375 6.925781 19.9375 6.875 L 19.9375 4.125 C 19.9375 3.363281 19.324219 2.75 18.5625 2.75 Z M 13.0625 2.75 "/>
<path style=" stroke:none;fill-rule:nonzero;fill:rgb(52.549022%,74.509805%,26.274511%);fill-opacity:1;" d="M 2.75 4.125 C 1.988281 4.125 1.375 4.738281 1.375 5.5 L 1.375 17.875 C 1.375 18.636719 1.988281 19.25 2.75 19.25 L 19.25 19.25 C 20.011719 19.25 20.625 18.636719 20.625 17.875 L 20.625 6.875 C 20.625 6.113281 20.011719 5.5 19.25 5.5 L 13.082031 5.5 C 13.074219 5.5 13.070312 5.5 13.0625 5.5 C 12.679688 5.5 12.375 5.195312 12.375 4.8125 C 12.375 4.429688 12.070312 4.125 11.6875 4.125 Z M 2.75 4.125 "/>
<path style=" stroke:none;fill-rule:nonzero;fill:rgb(100%,100%,100%);fill-opacity:0.4;" d="M 2.75 4.125 C 1.988281 4.125 1.375 4.738281 1.375 5.5 L 1.375 5.84375 C 1.375 5.082031 1.988281 4.46875 2.75 4.46875 L 11.6875 4.46875 C 12.070312 4.46875 12.375 4.773438 12.375 5.15625 C 12.375 5.539062 12.679688 5.84375 13.0625 5.84375 C 13.070312 5.84375 13.074219 5.84375 13.082031 5.84375 L 19.25 5.84375 C 20.011719 5.84375 20.625 6.457031 20.625 7.21875 L 20.625 6.875 C 20.625 6.113281 20.011719 5.5 19.25 5.5 L 13.082031 5.5 C 13.074219 5.5 13.070312 5.5 13.0625 5.5 C 12.679688 5.5 12.375 5.195312 12.375 4.8125 C 12.375 4.429688 12.070312 4.125 11.6875 4.125 Z M 2.75 4.125 "/>
<path style=" stroke:none;fill-rule:nonzero;fill:rgb(0%,0%,0%);fill-opacity:0.4;" d="M 1.375 17.53125 L 1.375 17.875 C 1.375 18.636719 1.988281 19.25 2.75 19.25 L 19.25 19.25 C 20.011719 19.25 20.625 18.636719 20.625 17.875 L 20.625 17.53125 C 20.625 18.292969 20.011719 18.90625 19.25 18.90625 L 2.75 18.90625 C 1.988281 18.90625 1.375 18.292969 1.375 17.53125 Z M 1.375 17.53125 "/>
<path style=" stroke:none;fill-rule:nonzero;fill:rgb(0%,0%,0%);fill-opacity:0.2;" d="M 1.375 17.875 L 1.375 18.390625 C 1.375 19.152344 1.988281 19.765625 2.75 19.765625 L 19.25 19.765625 C 20.011719 19.765625 20.625 19.152344 20.625 18.390625 L 20.625 17.875 C 20.625 18.636719 20.011719 19.25 19.25 19.25 L 2.75 19.25 C 1.988281 19.25 1.375 18.636719 1.375 17.875 Z M 1.375 17.875 "/>
<path style=" stroke:none;fill-rule:nonzero;fill:rgb(68.235296%,93.333334%,42.745098%);fill-opacity:1;" d="M 11.363281 8.402344 C 11.164062 8.199219 10.835938 8.199219 10.636719 8.402344 L 10.269531 8.765625 L 10.667969 9.164062 C 10.949219 9.027344 11.292969 9.070312 11.53125 9.300781 C 11.539062 9.304688 11.542969 9.308594 11.546875 9.3125 C 11.785156 9.554688 11.835938 9.90625 11.699219 10.195312 L 12.492188 10.988281 C 12.777344 10.847656 13.132812 10.898438 13.371094 11.136719 C 13.675781 11.441406 13.675781 11.929688 13.371094 12.234375 C 13.070312 12.535156 12.582031 12.535156 12.277344 12.234375 C 12.039062 11.992188 11.988281 11.640625 12.125 11.351562 L 11.332031 10.558594 C 11.308594 10.574219 11.285156 10.582031 11.257812 10.589844 L 11.257812 12.78125 C 11.363281 12.816406 11.460938 12.878906 11.546875 12.964844 C 11.851562 13.265625 11.851562 13.753906 11.546875 14.058594 C 11.246094 14.359375 10.753906 14.359375 10.453125 14.058594 C 10.148438 13.753906 10.148438 13.265625 10.453125 12.964844 C 10.539062 12.878906 10.636719 12.816406 10.742188 12.78125 L 10.742188 10.589844 C 10.636719 10.554688 10.539062 10.492188 10.453125 10.410156 C 10.214844 10.167969 10.164062 9.816406 10.300781 9.527344 L 9.90625 9.132812 L 7.714844 11.320312 C 7.511719 11.523438 7.511719 11.847656 7.714844 12.050781 L 10.636719 14.96875 C 10.835938 15.171875 11.164062 15.171875 11.363281 14.96875 L 14.285156 12.050781 C 14.488281 11.847656 14.488281 11.523438 14.285156 11.320312 Z M 11.363281 8.402344 "/>
<path style=" stroke:none;fill-rule:nonzero;fill:rgb(100%,100%,100%);fill-opacity:0.4;" d="M 11 8.25 C 10.867188 8.25 10.734375 8.300781 10.632812 8.402344 L 10.269531 8.765625 L 10.367188 8.863281 L 10.636719 8.59375 C 10.835938 8.390625 11.164062 8.390625 11.367188 8.59375 L 14.285156 11.511719 C 14.359375 11.589844 14.410156 11.683594 14.425781 11.78125 C 14.457031 11.621094 14.410156 11.445312 14.285156 11.320312 L 11.367188 8.402344 C 11.265625 8.300781 11.132812 8.25 11 8.25 Z M 9.90625 9.128906 L 7.714844 11.320312 C 7.589844 11.445312 7.542969 11.621094 7.574219 11.78125 C 7.589844 11.683594 7.640625 11.589844 7.714844 11.511719 L 9.90625 9.320312 L 10.25 9.667969 C 10.261719 9.621094 10.28125 9.570312 10.300781 9.527344 Z M 10.230469 9.957031 C 10.203125 10.183594 10.277344 10.421875 10.453125 10.597656 C 10.539062 10.683594 10.636719 10.746094 10.742188 10.78125 L 10.742188 10.589844 C 10.636719 10.554688 10.539062 10.492188 10.453125 10.410156 C 10.324219 10.28125 10.25 10.121094 10.230469 9.957031 Z M 11.769531 9.957031 C 11.757812 10.039062 11.734375 10.121094 11.699219 10.195312 L 11.75 10.246094 C 11.773438 10.152344 11.78125 10.054688 11.769531 9.957031 Z M 11.332031 10.5625 C 11.308594 10.574219 11.285156 10.582031 11.257812 10.59375 L 11.257812 10.78125 C 11.285156 10.773438 11.308594 10.765625 11.332031 10.75 L 12.074219 11.492188 C 12.085938 11.445312 12.105469 11.398438 12.125 11.351562 Z M 12.054688 11.78125 C 12.027344 12.007812 12.101562 12.25 12.277344 12.425781 C 12.582031 12.726562 13.070312 12.726562 13.371094 12.425781 C 13.546875 12.25 13.621094 12.011719 13.59375 11.78125 C 13.574219 11.945312 13.5 12.105469 13.371094 12.234375 C 13.070312 12.539062 12.582031 12.539062 12.277344 12.234375 C 12.148438 12.105469 12.078125 11.945312 12.054688 11.78125 Z M 10.230469 13.605469 C 10.203125 13.835938 10.277344 14.074219 10.453125 14.25 C 10.757812 14.550781 11.242188 14.550781 11.546875 14.25 C 11.722656 14.074219 11.796875 13.835938 11.769531 13.605469 C 11.75 13.773438 11.675781 13.929688 11.546875 14.058594 C 11.242188 14.363281 10.757812 14.363281 10.453125 14.058594 C 10.324219 13.929688 10.25 13.773438 10.230469 13.605469 Z M 10.230469 13.605469 "/>
<path style=" stroke:none;fill-rule:nonzero;fill:rgb(0%,0%,0%);fill-opacity:0.4;" d="M 10.355469 8.851562 L 10.269531 8.9375 L 10.667969 9.332031 C 10.949219 9.199219 11.292969 9.242188 11.53125 9.46875 C 11.539062 9.476562 11.542969 9.480469 11.546875 9.484375 C 11.675781 9.613281 11.75 9.777344 11.769531 9.949219 C 11.796875 9.722656 11.722656 9.488281 11.546875 9.3125 C 11.542969 9.308594 11.539062 9.304688 11.53125 9.300781 C 11.292969 9.074219 10.949219 9.027344 10.667969 9.164062 Z M 10.253906 9.652344 C 10.226562 9.746094 10.21875 9.847656 10.230469 9.945312 C 10.238281 9.863281 10.261719 9.777344 10.300781 9.699219 Z M 11.746094 10.242188 C 11.734375 10.285156 11.71875 10.324219 11.699219 10.367188 L 12.492188 11.160156 C 12.777344 11.019531 13.132812 11.070312 13.371094 11.308594 C 13.5 11.4375 13.578125 11.601562 13.59375 11.773438 C 13.621094 11.546875 13.546875 11.3125 13.371094 11.140625 C 13.132812 10.898438 12.777344 10.851562 12.492188 10.988281 Z M 12.078125 11.476562 C 12.050781 11.574219 12.042969 11.671875 12.054688 11.769531 C 12.0625 11.6875 12.089844 11.601562 12.125 11.523438 Z M 7.570312 11.773438 C 7.542969 11.929688 7.59375 12.097656 7.714844 12.222656 L 10.632812 15.140625 C 10.835938 15.34375 11.164062 15.34375 11.363281 15.140625 L 14.285156 12.222656 C 14.40625 12.097656 14.457031 11.929688 14.429688 11.773438 C 14.410156 11.875 14.363281 11.972656 14.285156 12.050781 L 11.363281 14.972656 C 11.164062 15.171875 10.835938 15.171875 10.632812 14.972656 L 7.714844 12.050781 C 7.636719 11.972656 7.589844 11.875 7.570312 11.773438 Z M 10.742188 12.78125 C 10.636719 12.816406 10.539062 12.878906 10.453125 12.964844 C 10.277344 13.136719 10.203125 13.371094 10.230469 13.597656 C 10.25 13.429688 10.324219 13.265625 10.453125 13.132812 C 10.539062 13.050781 10.636719 12.988281 10.742188 12.949219 Z M 11.257812 12.78125 L 11.257812 12.949219 C 11.363281 12.988281 11.460938 13.050781 11.546875 13.132812 C 11.675781 13.265625 11.75 13.429688 11.769531 13.597656 C 11.796875 13.371094 11.71875 13.136719 11.546875 12.964844 C 11.460938 12.878906 11.363281 12.816406 11.257812 12.78125 Z M 11.257812 12.78125 "/>
<path style=" stroke:none;fill-rule:nonzero;fill:url(#linear0);" d="M 13.0625 2.75 C 12.550781 2.75 12.109375 3.027344 11.871094 3.4375 L 3.4375 3.4375 C 2.878906 3.4375 2.398438 3.769531 2.183594 4.246094 C 1.707031 4.460938 1.375 4.941406 1.375 5.5 L 1.375 17.875 C 1.375 18.636719 1.988281 19.25 2.75 19.25 L 19.25 19.25 C 20.011719 19.25 20.625 18.636719 20.625 17.875 L 20.625 6.875 C 20.625 6.363281 20.347656 5.921875 19.9375 5.683594 L 19.9375 4.125 C 19.9375 3.363281 19.324219 2.75 18.5625 2.75 Z M 13.0625 2.75 "/>
</g>
</svg>
