
<svg xmlns="http://www.w3.org/2000/svg" xmlns:xlink="http://www.w3.org/1999/xlink" width="16" height="16" viewBox="0 0 16 16" version="1.1">
<defs>
<linearGradient id="linear0" gradientUnits="userSpaceOnUse" x1="31.999998" y1="60" x2="31.999998" y2="4" gradientTransform="matrix(0.25,0,0,0.25,-0.000000680315,0)">
<stop offset="0" style="stop-color:rgb(0%,0%,0%);stop-opacity:0.2;"/>
<stop offset="1" style="stop-color:rgb(100%,100%,100%);stop-opacity:0;"/>
</linearGradient>
</defs>
<g id="surface1">
<path style=" stroke:none;fill-rule:nonzero;fill:rgb(16.078432%,71.372551%,96.470588%);fill-opacity:1;" d="M 10 1 L 3.25 1 C 2.835938 1 2.5 1.335938 2.5 1.75 L 2.5 14.25 C 2.5 14.664062 2.835938 15 3.25 15 L 12.75 15 C 13.164062 15 13.5 14.664062 13.5 14.25 L 13.5 4.5 Z M 10 1 "/>
<path style=" stroke:none;fill-rule:nonzero;fill:rgb(50.588238%,83.137256%,98.039216%);fill-opacity:0.996078;" d="M 6.625 6 C 6.554688 6 6.5 6.054688 6.5 6.125 L 6.5 7 L 5.625 7 C 5.554688 7 5.5 7.054688 5.5 7.125 L 5.5 7.375 C 5.5 7.445312 5.554688 7.5 5.625 7.5 L 6.5 7.5 L 6.5 8.375 C 6.5 8.445312 6.554688 8.5 6.625 8.5 L 6.875 8.5 C 6.945312 8.5 7 8.445312 7 8.375 L 7 7.5 L 7.875 7.5 C 7.945312 7.5 8 7.445312 8 7.375 L 8 7.125 C 8 7.054688 7.945312 7 7.875 7 L 7 7 L 7 6.125 C 7 6.054688 6.945312 6 6.875 6 Z M 9.125 8.5 C 9.054688 8.5 9 8.554688 9 8.625 L 9 9.5 L 8.125 9.5 C 8.054688 9.5 8 9.554688 8 9.625 L 8 9.875 C 8 9.945312 8.054688 10 8.125 10 L 9 10 L 9 10.875 C 9 10.945312 9.054688 11 9.125 11 L 9.375 11 C 9.445312 11 9.5 10.945312 9.5 10.875 L 9.5 10 L 10.375 10 C 10.445312 10 10.5 9.945312 10.5 9.875 L 10.5 9.625 C 10.5 9.554688 10.445312 9.5 10.375 9.5 L 9.5 9.5 L 9.5 8.625 C 9.5 8.554688 9.445312 8.5 9.375 8.5 Z M 9.125 8.5 "/>
<path style=" stroke:none;fill-rule:nonzero;fill:rgb(0%,0%,0%);fill-opacity:0.4;" d="M 10 3.75 L 10 4 C 10 4.414062 10.335938 4.75 10.75 4.75 L 13.5 4.75 L 13.25 4.5 L 10.75 4.5 C 10.335938 4.5 10 4.164062 10 3.75 Z M 10 3.75 "/>
<path style=" stroke:none;fill-rule:nonzero;fill:rgb(30.980393%,76.47059%,96.862745%);fill-opacity:0.996078;" d="M 13.5 4.5 L 10 1 L 10 3.75 C 10 4.164062 10.335938 4.5 10.75 4.5 Z M 13.5 4.5 "/>
<path style=" stroke:none;fill-rule:nonzero;fill:rgb(100%,100%,100%);fill-opacity:0.4;" d="M 3.25 1 C 2.835938 1 2.5 1.335938 2.5 1.75 L 2.5 2 C 2.5 1.585938 2.835938 1.25 3.25 1.25 L 10 1.25 L 13.5 4.75 L 13.5 4.5 L 10 1 Z M 3.25 1 "/>
<path style=" stroke:none;fill-rule:nonzero;fill:rgb(0%,0%,0%);fill-opacity:0.2;" d="M 2.5 14.246094 L 2.5 14.625 C 2.5 15.039062 2.835938 15.375 3.25 15.375 L 12.75 15.375 C 13.164062 15.375 13.5 15.039062 13.5 14.625 L 13.5 14.246094 C 13.5 14.660156 13.164062 14.996094 12.75 14.996094 L 3.25 14.996094 C 2.835938 14.996094 2.5 14.660156 2.5 14.246094 Z M 2.5 14.246094 "/>
<path style=" stroke:none;fill-rule:nonzero;fill:rgb(0%,0%,0%);fill-opacity:0.4;" d="M 2.5 14.03125 L 2.5 14.25 C 2.5 14.664062 2.835938 15 3.25 15 L 12.75 15 C 13.164062 15 13.5 14.664062 13.5 14.25 L 13.5 14.03125 C 13.5 14.445312 13.164062 14.78125 12.75 14.78125 L 3.25 14.78125 C 2.835938 14.78125 2.5 14.445312 2.5 14.03125 Z M 2.5 14.03125 "/>
<path style=" stroke:none;fill-rule:nonzero;fill:rgb(100%,100%,100%);fill-opacity:0.4;" d="M 6.625 6 C 6.554688 6 6.5 6.054688 6.5 6.125 L 6.5 6.25 C 6.5 6.179688 6.554688 6.125 6.625 6.125 L 6.875 6.125 C 6.945312 6.125 7 6.179688 7 6.25 L 7 6.125 C 7 6.054688 6.945312 6 6.875 6 Z M 5.625 7 C 5.554688 7 5.5 7.054688 5.5 7.125 L 5.5 7.25 C 5.5 7.179688 5.554688 7.125 5.625 7.125 L 6.5 7.125 L 6.5 7 Z M 7 7 L 7 7.125 L 7.875 7.125 C 7.945312 7.125 8 7.179688 8 7.25 L 8 7.125 C 8 7.054688 7.945312 7 7.875 7 Z M 9.125 8.5 C 9.054688 8.5 9 8.554688 9 8.625 L 9 8.75 C 9 8.679688 9.054688 8.625 9.125 8.625 L 9.375 8.625 C 9.445312 8.625 9.5 8.679688 9.5 8.75 L 9.5 8.625 C 9.5 8.554688 9.445312 8.5 9.375 8.5 Z M 8.125 9.5 C 8.054688 9.5 8 9.554688 8 9.625 L 8 9.75 C 8 9.679688 8.054688 9.625 8.125 9.625 L 9 9.625 L 9 9.5 Z M 9.5 9.5 L 9.5 9.625 L 10.375 9.625 C 10.445312 9.625 10.5 9.679688 10.5 9.75 L 10.5 9.625 C 10.5 9.554688 10.445312 9.5 10.375 9.5 Z M 9.5 9.5 "/>
<path style=" stroke:none;fill-rule:nonzero;fill:rgb(0%,0%,0%);fill-opacity:0.4;" d="M 9.375 11.125 C 9.445312 11.125 9.5 11.070312 9.5 11 L 9.5 10.875 C 9.5 10.945312 9.445312 11 9.375 11 L 9.125 11 C 9.054688 11 9 10.945312 9 10.875 L 9 11 C 9 11.070312 9.054688 11.125 9.125 11.125 Z M 10.375 10.125 C 10.445312 10.125 10.5 10.070312 10.5 10 L 10.5 9.875 C 10.5 9.945312 10.445312 10 10.375 10 L 9.5 10 L 9.5 10.125 Z M 9 10.125 L 9 10 L 8.125 10 C 8.054688 10 8 9.945312 8 9.875 L 8 10 C 8 10.070312 8.054688 10.125 8.125 10.125 Z M 6.875 8.625 C 6.945312 8.625 7 8.570312 7 8.5 L 7 8.375 C 7 8.445312 6.945312 8.5 6.875 8.5 L 6.625 8.5 C 6.554688 8.5 6.5 8.445312 6.5 8.375 L 6.5 8.5 C 6.5 8.570312 6.554688 8.625 6.625 8.625 Z M 7.875 7.625 C 7.945312 7.625 8 7.570312 8 7.5 L 8 7.375 C 8 7.445312 7.945312 7.5 7.875 7.5 L 7 7.5 L 7 7.625 Z M 6.5 7.625 L 6.5 7.5 L 5.625 7.5 C 5.554688 7.5 5.5 7.445312 5.5 7.375 L 5.5 7.5 C 5.5 7.570312 5.554688 7.625 5.625 7.625 Z M 6.5 7.625 "/>
<path style=" stroke:none;fill-rule:nonzero;fill:url(#linear0);" d="M 10 1 L 3.25 1 C 2.835938 1 2.5 1.335938 2.5 1.75 L 2.5 14.25 C 2.5 14.664062 2.835938 15 3.25 15 L 12.75 15 C 13.164062 15 13.5 14.664062 13.5 14.25 L 13.5 4.5 Z M 10 1 "/>
</g>
</svg>
