
<svg xmlns="http://www.w3.org/2000/svg" xmlns:xlink="http://www.w3.org/1999/xlink" width="16" height="16" viewBox="0 0 16 16" version="1.1">
<defs>
<linearGradient id="linear0" gradientUnits="userSpaceOnUse" x1="8.466666" y1="-199.125" x2="8.466666" y2="-213.941666" gradientTransform="matrix(0.944882,0,0,0.944882,-0.00000315715,203.149617)">
<stop offset="0" style="stop-color:rgb(0%,0%,0%);stop-opacity:0.2;"/>
<stop offset="1" style="stop-color:rgb(100%,100%,100%);stop-opacity:0;"/>
</linearGradient>
</defs>
<g id="surface1">
<path style=" stroke:none;fill-rule:nonzero;fill:rgb(100%,43.921569%,26.274511%);fill-opacity:1;" d="M 2 1 L 14 1 C 14.550781 1 15 1.449219 15 2 L 15 14 C 15 14.550781 14.550781 15 14 15 L 2 15 C 1.449219 15 1 14.550781 1 14 L 1 2 C 1 1.449219 1.449219 1 2 1 Z M 2 1 "/>
<path style=" stroke:none;fill-rule:nonzero;fill:rgb(0%,0%,0%);fill-opacity:0.4;" d="M 1 13.75 L 1 14 C 1 14.554688 1.445312 15 2 15 L 14 15 C 14.554688 15 15 14.554688 15 14 L 15 13.75 C 15 14.304688 14.554688 14.75 14 14.75 L 2 14.75 C 1.445312 14.75 1 14.304688 1 13.75 Z M 1 13.75 "/>
<path style=" stroke:none;fill-rule:nonzero;fill:rgb(0%,0%,0%);fill-opacity:0.2;" d="M 1 14 L 1 14.375 C 1 14.929688 1.445312 15.375 2 15.375 L 14 15.375 C 14.554688 15.375 15 14.929688 15 14.375 L 15 14 C 15 14.554688 14.554688 15 14 15 L 2 15 C 1.445312 15 1 14.554688 1 14 Z M 1 14 "/>
<path style=" stroke:none;fill-rule:nonzero;fill:rgb(100%,100%,100%);fill-opacity:0.4;" d="M 2 1 C 1.445312 1 1 1.445312 1 2 L 1 2.246094 C 1 1.691406 1.445312 1.246094 2 1.246094 L 14 1.246094 C 14.554688 1.246094 15 1.691406 15 2.246094 L 15 2 C 15 1.445312 14.554688 1 14 1 Z M 2 1 "/>
<path style=" stroke:none;fill-rule:nonzero;fill:rgb(93.333334%,93.333334%,93.333334%);fill-opacity:1;" d="M 8.5 8.5 L 8.5 7.5 C 8.5 7.222656 8.722656 7 9 7 L 12.5 7 C 12.777344 7 13 7.222656 13 7.5 L 13 8.5 C 13 8.777344 12.777344 9 12.5 9 L 9 9 C 8.722656 9 8.5 8.777344 8.5 8.5 Z M 8.5 8.5 "/>
<path style=" stroke:none;fill-rule:nonzero;fill:rgb(93.333334%,93.333334%,93.333334%);fill-opacity:1;" d="M 3 5.5 L 3 4.5 C 3 4.222656 3.222656 4 3.5 4 L 7 4 C 7.277344 4 7.5 4.222656 7.5 4.5 L 7.5 5.5 C 7.5 5.777344 7.277344 6 7 6 L 3.5 6 C 3.222656 6 3 5.777344 3 5.5 Z M 3 5.5 "/>
<path style=" stroke:none;fill-rule:nonzero;fill:rgb(93.333334%,93.333334%,93.333334%);fill-opacity:1;" d="M 3 11.5 L 3 10.5 C 3 10.222656 3.222656 10 3.5 10 L 7 10 C 7.277344 10 7.5 10.222656 7.5 10.5 L 7.5 11.5 C 7.5 11.777344 7.277344 12 7 12 L 3.5 12 C 3.222656 12 3 11.777344 3 11.5 Z M 3 11.5 "/>
<path style=" stroke:none;fill-rule:nonzero;fill:rgb(100%,100%,100%);fill-opacity:0.6;" d="M 3.5 4 C 3.222656 4 3 4.222656 3 4.5 L 3 4.75 C 3 4.472656 3.222656 4.25 3.5 4.25 L 7 4.25 C 7.277344 4.25 7.5 4.472656 7.5 4.75 L 7.5 4.5 C 7.5 4.222656 7.277344 4 7 4 Z M 3.5 4 "/>
<path style=" stroke:none;fill-rule:nonzero;fill:rgb(0.784314%,0.784314%,0.784314%);fill-opacity:0.4;" d="M 3.5 6.25 C 3.222656 6.25 3 6.027344 3 5.75 L 3 5.5 C 3 5.777344 3.222656 6 3.5 6 L 7 6 C 7.277344 6 7.5 5.777344 7.5 5.5 L 7.5 5.75 C 7.5 6.027344 7.277344 6.25 7 6.25 Z M 3.5 6.25 "/>
<path style=" stroke:none;fill-rule:nonzero;fill:rgb(100%,100%,100%);fill-opacity:0.6;" d="M 9 7 C 8.722656 7 8.5 7.222656 8.5 7.5 L 8.5 7.75 C 8.5 7.472656 8.722656 7.25 9 7.25 L 12.5 7.25 C 12.777344 7.25 13 7.472656 13 7.75 L 13 7.5 C 13 7.222656 12.777344 7 12.5 7 Z M 9 7 "/>
<path style=" stroke:none;fill-rule:nonzero;fill:rgb(0.784314%,0.784314%,0.784314%);fill-opacity:0.4;" d="M 9 9.25 C 8.722656 9.25 8.5 9.027344 8.5 8.75 L 8.5 8.5 C 8.5 8.777344 8.722656 9 9 9 L 12.5 9 C 12.777344 9 13 8.777344 13 8.5 L 13 8.75 C 13 9.027344 12.777344 9.25 12.5 9.25 Z M 9 9.25 "/>
<path style=" stroke:none;fill-rule:nonzero;fill:rgb(100%,100%,100%);fill-opacity:0.6;" d="M 3.5 10 C 3.222656 10 3 10.222656 3 10.5 L 3 10.75 C 3 10.472656 3.222656 10.25 3.5 10.25 L 7 10.25 C 7.277344 10.25 7.5 10.472656 7.5 10.75 L 7.5 10.5 C 7.5 10.222656 7.277344 10 7 10 Z M 3.5 10 "/>
<path style=" stroke:none;fill-rule:nonzero;fill:rgb(0.784314%,0.784314%,0.784314%);fill-opacity:0.4;" d="M 3.5 12.25 C 3.222656 12.25 3 12.027344 3 11.75 L 3 11.5 C 3 11.777344 3.222656 12 3.5 12 L 7 12 C 7.277344 12 7.5 11.777344 7.5 11.5 L 7.5 11.75 C 7.5 12.027344 7.277344 12.25 7 12.25 Z M 3.5 12.25 "/>
<path style=" stroke:none;fill-rule:nonzero;fill:url(#linear0);" d="M 2 1 L 14 1 C 14.550781 1 15 1.449219 15 2 L 15 14 C 15 14.550781 14.550781 15 14 15 L 2 15 C 1.449219 15 1 14.550781 1 14 L 1 2 C 1 1.449219 1.449219 1 2 1 Z M 2 1 "/>
</g>
</svg>
