
<svg xmlns="http://www.w3.org/2000/svg" xmlns:xlink="http://www.w3.org/1999/xlink" width="22" height="22" viewBox="0 0 22 22" version="1.1">
<defs>
<linearGradient id="linear0" gradientUnits="userSpaceOnUse" x1="8.466666" y1="-199.125" x2="8.466666" y2="-213.941666" gradientTransform="matrix(1.299213,0,0,1.299213,0,279.330723)">
<stop offset="0" style="stop-color:rgb(0%,0%,0%);stop-opacity:0.2;"/>
<stop offset="1" style="stop-color:rgb(100%,100%,100%);stop-opacity:0;"/>
</linearGradient>
</defs>
<g id="surface1">
<path style=" stroke:none;fill-rule:nonzero;fill:rgb(0%,0%,0%);fill-opacity:0.2;" d="M 1.378906 11.257812 C 1.375 11.34375 1.375 11.429688 1.375 11.515625 C 1.375 16.832031 5.683594 21.140625 11 21.140625 C 16.316406 21.140625 20.625 16.832031 20.625 11.515625 C 20.625 11.429688 20.625 11.34375 20.621094 11.257812 C 20.484375 16.457031 16.230469 20.628906 11 20.628906 C 5.769531 20.628906 1.515625 16.457031 1.378906 11.257812 Z M 1.378906 11.257812 "/>
<path style=" stroke:none;fill-rule:nonzero;fill:rgb(40.000001%,73.333335%,41.568628%);fill-opacity:1;" d="M 11 1.375 C 16.316406 1.375 20.625 5.683594 20.625 11 C 20.625 16.316406 16.316406 20.625 11 20.625 C 5.683594 20.625 1.375 16.316406 1.375 11 C 1.375 5.683594 5.683594 1.375 11 1.375 Z M 11 1.375 "/>
<path style=" stroke:none;fill-rule:nonzero;fill:rgb(100%,100%,100%);fill-opacity:0.4;" d="M 11 1.375 C 5.683594 1.375 1.375 5.683594 1.375 11 C 1.375 11.058594 1.375 11.113281 1.378906 11.171875 C 1.46875 5.933594 5.742188 1.71875 11 1.71875 C 16.257812 1.71875 20.53125 5.933594 20.621094 11.171875 C 20.625 11.113281 20.625 11.058594 20.625 11 C 20.625 5.683594 16.316406 1.375 11 1.375 Z M 11 1.375 "/>
<path style=" stroke:none;fill-rule:nonzero;fill:rgb(0.392157%,0.392157%,0.392157%);fill-opacity:0.4;" d="M 11 20.625 C 5.683594 20.625 1.375 16.316406 1.375 11 C 1.375 10.941406 1.375 10.886719 1.378906 10.828125 C 1.46875 16.066406 5.742188 20.28125 11 20.28125 C 16.257812 20.28125 20.53125 16.066406 20.621094 10.828125 C 20.625 10.886719 20.625 10.941406 20.625 11 C 20.625 16.316406 16.316406 20.625 11 20.625 Z M 11 20.625 "/>
<path style=" stroke:none;fill-rule:nonzero;fill:rgb(87.843138%,87.843138%,87.843138%);fill-opacity:1;" d="M 9.171875 6.082031 C 8.910156 6.082031 8.648438 6.089844 8.390625 6.105469 C 7.355469 6.164062 6.375 6.332031 5.507812 6.628906 C 4.972656 6.8125 4.683594 7.398438 4.871094 7.9375 C 5.054688 8.476562 5.640625 8.765625 6.179688 8.578125 C 7.421875 8.152344 9.410156 8.039062 11.332031 8.273438 C 13.253906 8.511719 15.136719 9.097656 16.191406 9.796875 C 16.417969 9.949219 16.699219 10.003906 16.96875 9.949219 C 17.234375 9.894531 17.472656 9.738281 17.625 9.507812 C 17.773438 9.28125 17.828125 9 17.773438 8.730469 C 17.71875 8.464844 17.558594 8.226562 17.332031 8.078125 C 15.824219 7.078125 13.734375 6.488281 11.582031 6.226562 C 10.773438 6.128906 9.964844 6.074219 9.171875 6.082031 Z M 8.355469 10.027344 C 7.457031 10.03125 6.621094 10.101562 5.917969 10.261719 C 5.457031 10.367188 5.164062 10.828125 5.269531 11.289062 C 5.320312 11.511719 5.457031 11.707031 5.652344 11.828125 C 5.84375 11.949219 6.078125 11.988281 6.300781 11.9375 C 7.316406 11.707031 9.1875 11.699219 10.964844 11.914062 C 12.742188 12.128906 14.492188 12.589844 15.238281 13.011719 C 15.652344 13.246094 16.175781 13.101562 16.410156 12.691406 C 16.644531 12.277344 16.5 11.753906 16.085938 11.519531 C 14.890625 10.835938 13.078125 10.4375 11.167969 10.207031 C 10.214844 10.09375 9.253906 10.027344 8.355469 10.027344 Z M 8.285156 13.730469 C 7.539062 13.738281 6.835938 13.800781 6.238281 13.921875 C 5.867188 13.996094 5.628906 14.359375 5.703125 14.730469 C 5.777344 15.101562 6.140625 15.34375 6.511719 15.269531 C 8.371094 14.890625 12.554688 15.398438 14.269531 16.214844 C 14.609375 16.378906 15.019531 16.234375 15.183594 15.890625 C 15.347656 15.546875 15.203125 15.136719 14.859375 14.972656 C 13.753906 14.449219 12.199219 14.0625 10.621094 13.871094 C 9.828125 13.773438 9.035156 13.726562 8.285156 13.730469 Z M 8.285156 13.730469 "/>
<path style=" stroke:none;fill-rule:nonzero;fill:rgb(87.843138%,87.843138%,87.843138%);fill-opacity:1;" d="M 9.171875 6.082031 C 8.910156 6.082031 8.648438 6.089844 8.390625 6.105469 C 7.355469 6.164062 6.375 6.332031 5.507812 6.628906 C 4.972656 6.8125 4.683594 7.398438 4.871094 7.9375 C 5.054688 8.476562 5.640625 8.765625 6.179688 8.578125 C 7.421875 8.152344 9.410156 8.039062 11.332031 8.273438 C 13.253906 8.511719 15.136719 9.097656 16.191406 9.796875 C 16.417969 9.949219 16.699219 10.003906 16.96875 9.949219 C 17.234375 9.894531 17.472656 9.738281 17.625 9.507812 C 17.773438 9.28125 17.828125 9 17.773438 8.730469 C 17.71875 8.464844 17.558594 8.226562 17.332031 8.078125 C 15.824219 7.078125 13.734375 6.488281 11.582031 6.226562 C 10.773438 6.128906 9.964844 6.074219 9.171875 6.082031 Z M 8.355469 10.027344 C 7.457031 10.03125 6.621094 10.101562 5.917969 10.261719 C 5.457031 10.367188 5.164062 10.828125 5.269531 11.289062 C 5.320312 11.511719 5.457031 11.707031 5.652344 11.828125 C 5.84375 11.949219 6.078125 11.988281 6.300781 11.9375 C 7.316406 11.707031 9.1875 11.699219 10.964844 11.914062 C 12.742188 12.128906 14.492188 12.589844 15.238281 13.011719 C 15.652344 13.246094 16.175781 13.101562 16.410156 12.691406 C 16.644531 12.277344 16.5 11.753906 16.085938 11.519531 C 14.890625 10.835938 13.078125 10.4375 11.167969 10.207031 C 10.214844 10.09375 9.253906 10.027344 8.355469 10.027344 Z M 8.285156 13.730469 C 7.539062 13.738281 6.835938 13.800781 6.238281 13.921875 C 5.867188 13.996094 5.628906 14.359375 5.703125 14.730469 C 5.777344 15.101562 6.140625 15.34375 6.511719 15.269531 C 8.371094 14.890625 12.554688 15.398438 14.269531 16.214844 C 14.609375 16.378906 15.019531 16.234375 15.183594 15.890625 C 15.347656 15.546875 15.203125 15.136719 14.859375 14.972656 C 13.753906 14.449219 12.199219 14.0625 10.621094 13.871094 C 9.828125 13.773438 9.035156 13.726562 8.285156 13.730469 Z M 8.285156 13.730469 "/>
<path style=" stroke:none;fill-rule:nonzero;fill:rgb(100%,100%,100%);fill-opacity:0.6;" d="M 9.171875 6.082031 C 8.910156 6.082031 8.648438 6.089844 8.390625 6.105469 C 7.355469 6.164062 6.375 6.332031 5.507812 6.628906 C 5.042969 6.792969 4.761719 7.269531 4.839844 7.757812 C 4.914062 7.402344 5.167969 7.113281 5.507812 6.996094 C 6.375 6.699219 7.355469 6.53125 8.390625 6.472656 C 8.648438 6.460938 8.910156 6.449219 9.171875 6.449219 C 9.964844 6.445312 10.773438 6.496094 11.582031 6.59375 C 13.734375 6.859375 15.824219 7.445312 17.332031 8.445312 C 17.566406 8.601562 17.726562 8.84375 17.777344 9.121094 C 17.851562 8.714844 17.675781 8.304688 17.332031 8.078125 C 15.824219 7.078125 13.734375 6.488281 11.582031 6.226562 C 10.773438 6.128906 9.964844 6.074219 9.171875 6.082031 Z M 8.355469 10.027344 C 7.457031 10.03125 6.621094 10.101562 5.917969 10.261719 C 5.457031 10.367188 5.164062 10.828125 5.269531 11.289062 C 5.339844 10.960938 5.59375 10.707031 5.917969 10.628906 C 6.621094 10.46875 7.457031 10.398438 8.355469 10.398438 C 9.253906 10.394531 10.214844 10.460938 11.167969 10.578125 C 13.078125 10.808594 14.890625 11.207031 16.085938 11.886719 C 16.296875 12.007812 16.449219 12.210938 16.5 12.445312 C 16.582031 12.078125 16.414062 11.703125 16.085938 11.519531 C 14.890625 10.835938 13.078125 10.4375 11.167969 10.207031 C 10.214844 10.09375 9.253906 10.027344 8.355469 10.027344 Z M 8.285156 13.730469 C 7.539062 13.738281 6.835938 13.800781 6.238281 13.921875 C 5.867188 13.996094 5.628906 14.359375 5.703125 14.730469 C 5.707031 14.742188 5.710938 14.757812 5.71875 14.769531 C 5.789062 14.527344 5.988281 14.34375 6.238281 14.289062 C 6.835938 14.167969 7.539062 14.105469 8.285156 14.101562 C 9.035156 14.09375 9.828125 14.140625 10.621094 14.238281 C 12.199219 14.433594 13.753906 14.816406 14.859375 15.34375 C 15.039062 15.429688 15.171875 15.585938 15.226562 15.777344 C 15.3125 15.457031 15.160156 15.117188 14.859375 14.972656 C 13.753906 14.449219 12.199219 14.0625 10.621094 13.871094 C 9.828125 13.773438 9.035156 13.726562 8.285156 13.730469 Z M 8.285156 13.730469 "/>
<path style=" stroke:none;fill-rule:nonzero;fill:rgb(0%,0%,0%);fill-opacity:0.4;" d="M 4.828125 7.773438 C 4.800781 7.9375 4.816406 8.109375 4.871094 8.265625 C 5.054688 8.804688 5.640625 9.09375 6.179688 8.910156 C 7.421875 8.484375 9.410156 8.371094 11.332031 8.605469 C 13.253906 8.839844 15.136719 9.429688 16.191406 10.128906 C 16.417969 10.28125 16.699219 10.335938 16.96875 10.28125 C 17.234375 10.226562 17.472656 10.066406 17.625 9.839844 C 17.765625 9.621094 17.824219 9.359375 17.78125 9.105469 C 17.757812 9.25 17.703125 9.386719 17.625 9.507812 C 17.472656 9.738281 17.234375 9.894531 16.96875 9.949219 C 16.699219 10.003906 16.417969 9.949219 16.191406 9.796875 C 15.136719 9.097656 13.253906 8.511719 11.332031 8.273438 C 9.410156 8.039062 7.421875 8.152344 6.179688 8.578125 C 5.640625 8.765625 5.054688 8.476562 4.871094 7.9375 C 4.851562 7.882812 4.835938 7.828125 4.828125 7.773438 Z M 5.265625 11.265625 C 5.242188 11.382812 5.246094 11.503906 5.269531 11.621094 C 5.320312 11.84375 5.457031 12.035156 5.652344 12.15625 C 5.84375 12.277344 6.078125 12.316406 6.300781 12.265625 C 7.316406 12.035156 9.1875 12.027344 10.964844 12.242188 C 12.742188 12.460938 14.492188 12.917969 15.238281 13.34375 C 15.652344 13.578125 16.175781 13.433594 16.410156 13.019531 C 16.511719 12.839844 16.546875 12.632812 16.507812 12.429688 C 16.488281 12.523438 16.457031 12.609375 16.410156 12.691406 C 16.175781 13.101562 15.652344 13.246094 15.238281 13.011719 C 14.492188 12.589844 12.742188 12.128906 10.964844 11.914062 C 9.1875 11.699219 7.316406 11.707031 6.300781 11.9375 C 6.078125 11.988281 5.84375 11.949219 5.652344 11.828125 C 5.457031 11.707031 5.320312 11.511719 5.269531 11.289062 C 5.269531 11.28125 5.269531 11.273438 5.265625 11.265625 Z M 5.710938 14.753906 C 5.683594 14.855469 5.683594 14.960938 5.703125 15.0625 C 5.777344 15.433594 6.140625 15.671875 6.511719 15.597656 C 8.371094 15.222656 12.554688 15.730469 14.269531 16.546875 C 14.609375 16.707031 15.019531 16.5625 15.183594 16.21875 C 15.253906 16.078125 15.269531 15.914062 15.230469 15.757812 C 15.21875 15.804688 15.203125 15.847656 15.183594 15.890625 C 15.019531 16.234375 14.609375 16.378906 14.269531 16.214844 C 12.554688 15.398438 8.371094 14.890625 6.511719 15.269531 C 6.148438 15.339844 5.796875 15.113281 5.710938 14.753906 Z M 5.710938 14.753906 "/>
<path style=" stroke:none;fill-rule:nonzero;fill:url(#linear0);" d="M 11 1.375 C 16.316406 1.375 20.625 5.683594 20.625 11 C 20.625 16.316406 16.316406 20.625 11 20.625 C 5.683594 20.625 1.375 16.316406 1.375 11 C 1.375 5.683594 5.683594 1.375 11 1.375 Z M 11 1.375 "/>
</g>
</svg>
