
<svg xmlns="http://www.w3.org/2000/svg" xmlns:xlink="http://www.w3.org/1999/xlink" width="32" height="32" viewBox="0 0 32 32" version="1.1">
<defs>
<linearGradient id="linear0" gradientUnits="userSpaceOnUse" x1="8.466666" y1="-199.125" x2="8.466666" y2="-213.941666" gradientTransform="matrix(1.889764,0,0,1.889764,0.0000026918,406.299234)">
<stop offset="0" style="stop-color:rgb(0%,0%,0%);stop-opacity:0.2;"/>
<stop offset="1" style="stop-color:rgb(100%,100%,100%);stop-opacity:0;"/>
</linearGradient>
</defs>
<g id="surface1">
<path style=" stroke:none;fill-rule:nonzero;fill:rgb(95.686275%,26.274511%,21.176471%);fill-opacity:1;" d="M 7 2 L 25 2 C 26.105469 2 27 2.894531 27 4 L 27 28 C 27 29.105469 26.105469 30 25 30 L 7 30 C 5.894531 30 5 29.105469 5 28 L 5 4 C 5 2.894531 5.894531 2 7 2 Z M 7 2 "/>
<path style=" stroke:none;fill-rule:nonzero;fill:rgb(100%,100%,100%);fill-opacity:0.4;" d="M 27 15.886719 C 25.472656 16.261719 23.941406 19.265625 23.835938 22.246094 C 21.761719 23.5625 19.542969 24.769531 17.332031 25.714844 C 16.25 25.34375 13.71875 24.414062 12.09375 24.78125 C 11.070312 25.003906 10.328125 26.195312 10.492188 27.007812 C 10.488281 26.988281 10.480469 26.964844 10.476562 26.941406 C 10.480469 27.007812 10.503906 27.074219 10.539062 27.144531 L 10.550781 27.1875 C 10.550781 27.183594 10.550781 27.183594 10.546875 27.183594 C 10.804688 27.695312 11.625 28.261719 11.847656 28.261719 C 13.046875 28.484375 15.507812 27.746094 17.019531 27.1875 C 18.84375 28.007812 20.9375 29.027344 22.8125 30 L 25 30 C 25.660156 30 26.238281 29.683594 26.601562 29.195312 C 26.226562 27.273438 25.9375 25.046875 25.742188 23.132812 C 26.191406 22.8125 26.613281 22.476562 27 22.136719 L 27 20.035156 C 26.570312 20.382812 26.09375 20.742188 25.574219 21.101562 C 25.605469 18.566406 25.96875 16.625 27 16.136719 Z M 10.476562 26.941406 C 10.472656 26.933594 10.472656 26.921875 10.472656 26.914062 C 10.472656 26.921875 10.472656 26.933594 10.476562 26.941406 Z M 24 24 C 24.285156 26.085938 24.339844 26.640625 24.695312 29.425781 C 23.023438 28.453125 21.078125 27.324219 19.320312 26.507812 C 21.027344 25.808594 22.457031 24.992188 24 24 Z M 11.960938 25.839844 C 12.339844 25.839844 12.75 25.886719 13.132812 25.945312 C 13.210938 25.953125 13.320312 25.960938 13.417969 25.976562 C 14.097656 26.066406 14.542969 26.15625 14.867188 26.238281 L 14.867188 26.253906 C 15.078125 26.339844 15.300781 26.433594 15.527344 26.53125 C 14.300781 27.285156 11.023438 27.742188 10.53125 27.074219 C 10.394531 26.109375 11.097656 25.84375 11.960938 25.839844 Z M 11.960938 25.839844 "/>
<path style="fill:none;stroke-width:0.7;stroke-linecap:round;stroke-linejoin:round;stroke:rgb(96.078432%,96.078432%,96.078432%);stroke-opacity:1;stroke-dasharray:2.1,2.1;stroke-dashoffset:0.63;stroke-miterlimit:4;" d="M 20 6 L 20 57.5 L 50 57.5 C 51.109375 57.5 52 56.609375 52 55.5 L 52 8 C 52 6.890625 51.109375 6 50 6 Z M 20 6 " transform="matrix(0.5,0,0,0.5,0,0)"/>
<path style=" stroke:none;fill-rule:nonzero;fill:rgb(38.039216%,38.039216%,38.039216%);fill-opacity:0.996078;" d="M 7 2 C 5.890625 2 5 2.890625 5 4 L 5 28 C 5 29.109375 5.890625 30 7 30 L 9 30 L 9 2 Z M 7 2 "/>
<path style=" stroke:none;fill-rule:nonzero;fill:rgb(38.039216%,38.039216%,38.039216%);fill-opacity:1;" d="M 5 20 L 9 20 L 9 22 L 5 22 Z M 5 20 "/>
<path style=" stroke:none;fill-rule:nonzero;fill:rgb(38.039216%,38.039216%,38.039216%);fill-opacity:0.996078;" d="M 5 9 L 9 9 L 9 11 L 5 11 Z M 5 9 "/>
<path style=" stroke:none;fill-rule:nonzero;fill:rgb(0.784314%,0.784314%,0.784314%);fill-opacity:0.4;" d="M 7 29.996094 C 5.890625 29.996094 5 29.101562 5 27.996094 L 5 27.5 C 5 28.609375 5.890625 29.5 7 29.5 L 25 29.5 C 26.109375 29.5 27 28.609375 27 27.5 L 27 27.996094 C 27 29.101562 26.109375 29.996094 25 29.996094 Z M 7 29.996094 "/>
<path style=" stroke:none;fill-rule:nonzero;fill:rgb(0%,0%,0%);fill-opacity:0.2;" d="M 5 28 L 5 28.75 C 5 29.859375 5.890625 30.75 7 30.75 L 25 30.75 C 26.109375 30.75 27 29.859375 27 28.75 L 27 28 C 27 29.109375 26.109375 30 25 30 L 7 30 C 5.890625 30 5 29.109375 5 28 Z M 5 28 "/>
<path style=" stroke:none;fill-rule:nonzero;fill:rgb(0%,0%,0%);fill-opacity:0.4;" d="M 5 11 L 9 11 L 9 11.5 L 5 11.5 Z M 5 11 "/>
<path style=" stroke:none;fill-rule:nonzero;fill:rgb(99.215686%,99.215686%,99.215686%);fill-opacity:0.4;" d="M 5 9 L 9 9 L 9 9.5 L 5 9.5 Z M 5 9 "/>
<path style=" stroke:none;fill-rule:nonzero;fill:rgb(0%,0%,0%);fill-opacity:0.4;" d="M 5 22 L 9 22 L 9 22.5 L 5 22.5 Z M 5 22 "/>
<path style=" stroke:none;fill-rule:nonzero;fill:rgb(99.215686%,99.215686%,99.215686%);fill-opacity:0.4;" d="M 5 20 L 9 20 L 9 20.5 L 5 20.5 Z M 5 20 "/>
<path style=" stroke:none;fill-rule:nonzero;fill:rgb(93.333334%,93.333334%,93.333334%);fill-opacity:1;" d="M 21 2 L 21 19 L 22 17 L 23 19 L 23 2 Z M 21 2 "/>
<path style=" stroke:none;fill-rule:nonzero;fill:rgb(99.607843%,99.607843%,99.607843%);fill-opacity:0.4;" d="M 7 2 C 5.890625 2 5 2.890625 5 4 L 5 4.492188 C 5 3.386719 5.890625 2.492188 7 2.492188 L 25 2.492188 C 26.109375 2.492188 27 3.386719 27 4.492188 L 27 4 C 27 2.890625 26.109375 2 25 2 Z M 7 2 "/>
<path style=" stroke:none;fill-rule:nonzero;fill:rgb(0%,0%,0%);fill-opacity:0.4;" d="M 22 17 L 21 19 L 21 19.75 L 22 17.75 L 23 19.75 L 23 19 Z M 22 17 "/>
<path style=" stroke:none;fill-rule:nonzero;fill:url(#linear0);" d="M 7 2 L 25 2 C 26.105469 2 27 2.894531 27 4 L 27 28 C 27 29.105469 26.105469 30 25 30 L 7 30 C 5.894531 30 5 29.105469 5 28 L 5 4 C 5 2.894531 5.894531 2 7 2 Z M 7 2 "/>
</g>
</svg>
