
<svg xmlns="http://www.w3.org/2000/svg" xmlns:xlink="http://www.w3.org/1999/xlink" width="32" height="32" viewBox="0 0 32 32" version="1.1">
<defs>
<linearGradient id="linear0" gradientUnits="userSpaceOnUse" x1="8.466666" y1="-199.125" x2="8.466666" y2="-213.941666" gradientTransform="matrix(1.889764,0,0,1.889764,0,406.299234)">
<stop offset="0" style="stop-color:rgb(0%,0%,0%);stop-opacity:0.2;"/>
<stop offset="1" style="stop-color:rgb(100%,100%,100%);stop-opacity:0;"/>
</linearGradient>
</defs>
<g id="surface1">
<path style=" stroke:none;fill-rule:nonzero;fill:rgb(87.843138%,87.843138%,87.843138%);fill-opacity:1;" d="M 3.140625 4.105469 C 11.457031 1.382812 20.542969 1.382812 28.859375 4.105469 C 29.492188 4.316406 30.003906 5.039062 29.976562 5.707031 C 29.628906 15.457031 25.082031 26.140625 17.117188 29.792969 C 16.511719 30.070312 15.488281 30.070312 14.882812 29.792969 C 6.917969 26.140625 2.371094 15.457031 2.023438 5.707031 C 1.996094 5.039062 2.507812 4.316406 3.140625 4.105469 Z M 3.140625 4.105469 "/>
<path style=" stroke:none;fill-rule:nonzero;fill:rgb(25.882354%,64.705884%,96.078432%);fill-opacity:1;" d="M 16 4 L 16 28.066406 C 16.351562 28.066406 16.699219 28.007812 16.960938 27.886719 C 23.824219 24.742188 27.738281 15.535156 28.039062 7.136719 C 28.0625 6.5625 27.621094 5.9375 27.078125 5.757812 C 23.496094 4.585938 19.746094 4 16 4 Z M 16 4 "/>
<path style=" stroke:none;fill-rule:nonzero;fill:rgb(96.078432%,96.078432%,96.078432%);fill-opacity:1;" d="M 16 4 C 12.253906 4 8.503906 4.585938 4.921875 5.757812 C 4.378906 5.9375 3.9375 6.5625 3.960938 7.136719 C 4.257812 15.535156 8.175781 24.742188 15.039062 27.886719 C 15.300781 28.007812 15.648438 28.066406 16 28.066406 Z M 16 4 "/>
<path style=" stroke:none;fill-rule:nonzero;fill:rgb(100%,100%,100%);fill-opacity:1;" d="M 6.875 6.5 C 6.578125 6.585938 6.28125 6.679688 5.988281 6.773438 C 5.496094 6.9375 5.097656 7.5 5.117188 8.019531 C 5.148438 8.875 5.222656 9.738281 5.335938 10.601562 C 5.644531 10.511719 5.976562 10.417969 6.304688 10.332031 C 6.257812 9.824219 6.222656 9.324219 6.203125 8.824219 C 6.1875 8.355469 6.542969 7.847656 6.988281 7.703125 C 7.15625 7.648438 7.328125 7.59375 7.5 7.539062 Z M 6.875 6.5 "/>
<path style=" stroke:none;fill-rule:nonzero;fill:rgb(100%,100%,100%);fill-opacity:0.6;" d="M 16 2.0625 C 11.648438 2.0625 7.300781 2.746094 3.140625 4.109375 C 2.507812 4.316406 1.996094 5.039062 2.023438 5.707031 C 2.023438 5.804688 2.03125 5.902344 2.035156 6 C 2.113281 5.402344 2.578125 4.808594 3.140625 4.625 C 11.457031 1.898438 20.542969 1.898438 28.859375 4.625 C 29.421875 4.808594 29.886719 5.402344 29.964844 6 C 29.96875 5.902344 29.976562 5.804688 29.976562 5.707031 C 30.003906 5.039062 29.492188 4.316406 28.859375 4.109375 C 24.699219 2.746094 20.351562 2.0625 16 2.0625 Z M 16 2.0625 "/>
<path style=" stroke:none;fill-rule:nonzero;fill:rgb(0.392157%,0.392157%,0.392157%);fill-opacity:0.4;" d="M 2.035156 5.484375 C 2.023438 5.558594 2.019531 5.632812 2.023438 5.707031 C 2.371094 15.453125 6.917969 26.140625 14.882812 29.792969 C 15.488281 30.070312 16.511719 30.070312 17.117188 29.792969 C 25.082031 26.140625 29.628906 15.453125 29.976562 5.707031 C 29.980469 5.632812 29.976562 5.558594 29.964844 5.484375 C 29.539062 15.15625 25.003906 25.671875 17.117188 29.285156 C 16.511719 29.5625 15.488281 29.5625 14.882812 29.285156 C 6.996094 25.671875 2.460938 15.15625 2.035156 5.484375 Z M 2.035156 5.484375 "/>
<path style=" stroke:none;fill-rule:nonzero;fill:rgb(0%,0%,0%);fill-opacity:0.2;" d="M 2.042969 6.179688 C 2.027344 6.269531 2.019531 6.363281 2.023438 6.453125 C 2.371094 16.203125 6.917969 26.890625 14.882812 30.542969 C 15.488281 30.820312 16.511719 30.820312 17.117188 30.542969 C 25.082031 26.890625 29.628906 16.203125 29.976562 6.453125 C 29.980469 6.363281 29.972656 6.269531 29.957031 6.179688 C 29.480469 15.796875 24.953125 26.199219 17.117188 29.792969 C 16.511719 30.070312 15.488281 30.070312 14.882812 29.792969 C 7.046875 26.199219 2.519531 15.796875 2.042969 6.179688 Z M 2.042969 6.179688 "/>
<path style=" stroke:none;fill-rule:nonzero;fill:rgb(100%,100%,100%);fill-opacity:0.4;" d="M 16 4 L 16 4.5 C 19.746094 4.5 23.496094 5.085938 27.078125 6.261719 C 27.550781 6.417969 27.949219 6.910156 28.027344 7.414062 C 28.03125 7.324219 28.039062 7.230469 28.039062 7.136719 C 28.0625 6.5625 27.621094 5.9375 27.078125 5.757812 C 23.496094 4.585938 19.746094 4 16 4 Z M 16 4 "/>
<path style=" stroke:none;fill-rule:nonzero;fill:rgb(100%,100%,100%);fill-opacity:0.6;" d="M 16 4 C 12.253906 4 8.503906 4.585938 4.921875 5.757812 C 4.378906 5.9375 3.9375 6.5625 3.960938 7.136719 C 3.960938 7.230469 3.96875 7.324219 3.972656 7.414062 C 4.050781 6.910156 4.449219 6.417969 4.921875 6.261719 C 8.503906 5.085938 12.253906 4.5 16 4.5 Z M 16 4 "/>
<path style=" stroke:none;fill-rule:nonzero;fill:rgb(0%,0%,0%);fill-opacity:0.4;" d="M 28.03125 7.378906 C 27.664062 15.710938 23.757812 24.769531 16.960938 27.886719 C 16.699219 28.003906 16.351562 28.0625 16 28.0625 L 16 28.5 C 16.351562 28.5 16.699219 28.441406 16.960938 28.320312 C 23.824219 25.175781 27.738281 15.96875 28.039062 7.570312 C 28.042969 7.507812 28.039062 7.441406 28.03125 7.378906 Z M 28.03125 7.378906 "/>
<path style=" stroke:none;fill-rule:nonzero;fill:rgb(0%,0%,0%);fill-opacity:0.4;" d="M 3.96875 7.378906 C 3.960938 7.441406 3.957031 7.507812 3.960938 7.570312 C 4.257812 15.96875 8.175781 25.175781 15.039062 28.320312 C 15.300781 28.441406 15.648438 28.5 16 28.5 L 16 28.0625 C 15.648438 28.0625 15.300781 28.003906 15.039062 27.886719 C 8.242188 24.769531 4.335938 15.710938 3.96875 7.378906 Z M 3.96875 7.378906 "/>
<path style=" stroke:none;fill-rule:nonzero;fill:url(#linear0);" d="M 3.140625 4.105469 C 11.457031 1.382812 20.542969 1.382812 28.859375 4.105469 C 29.492188 4.316406 30.003906 5.039062 29.976562 5.707031 C 29.628906 15.457031 25.082031 26.140625 17.117188 29.792969 C 16.511719 30.070312 15.488281 30.070312 14.882812 29.792969 C 6.917969 26.140625 2.371094 15.457031 2.023438 5.707031 C 1.996094 5.039062 2.507812 4.316406 3.140625 4.105469 Z M 3.140625 4.105469 "/>
</g>
</svg>
