
<svg xmlns="http://www.w3.org/2000/svg" xmlns:xlink="http://www.w3.org/1999/xlink" width="22" height="22" viewBox="0 0 22 22" version="1.1">
<defs>
<linearGradient id="linear0" gradientUnits="userSpaceOnUse" x1="31.999998" y1="60" x2="31.999998" y2="3.999999" gradientTransform="matrix(0.34375,0,0,0.34375,0,0.00000000000003908)">
<stop offset="0" style="stop-color:rgb(0%,0%,0%);stop-opacity:0.2;"/>
<stop offset="1" style="stop-color:rgb(100%,100%,100%);stop-opacity:0;"/>
</linearGradient>
</defs>
<g id="surface1">
<path style=" stroke:none;fill-rule:nonzero;fill:rgb(100%,70.19608%,0%);fill-opacity:1;" d="M 13.0625 2.75 C 12.550781 2.75 12.109375 3.027344 11.871094 3.4375 L 3.4375 3.4375 C 2.675781 3.4375 2.0625 4.050781 2.0625 4.8125 L 2.0625 6.875 C 2.0625 7.636719 2.675781 8.25 3.4375 8.25 L 18.5625 8.25 C 19.324219 8.25 19.9375 7.636719 19.9375 6.875 L 19.9375 4.125 C 19.9375 3.363281 19.324219 2.75 18.5625 2.75 Z M 13.0625 2.75 "/>
<path style=" stroke:none;fill-rule:nonzero;fill:rgb(100%,100%,100%);fill-opacity:0.4;" d="M 13.0625 2.75 C 12.550781 2.75 12.109375 3.027344 11.871094 3.4375 L 3.4375 3.4375 C 2.675781 3.4375 2.0625 4.050781 2.0625 4.8125 L 2.0625 4.839844 C 2.136719 4.144531 2.71875 3.609375 3.429688 3.609375 L 11.863281 3.609375 C 12.101562 3.199219 12.542969 2.921875 13.054688 2.921875 L 18.554688 2.921875 C 19.316406 2.921875 19.929688 3.535156 19.929688 4.296875 L 19.929688 7.019531 C 19.933594 6.972656 19.9375 6.925781 19.9375 6.875 L 19.9375 4.125 C 19.9375 3.363281 19.324219 2.75 18.5625 2.75 Z M 13.0625 2.75 "/>
<path style=" stroke:none;fill-rule:nonzero;fill:rgb(100%,79.215688%,15.686275%);fill-opacity:1;" d="M 2.75 4.125 C 1.988281 4.125 1.375 4.738281 1.375 5.5 L 1.375 17.875 C 1.375 18.636719 1.988281 19.25 2.75 19.25 L 19.25 19.25 C 20.011719 19.25 20.625 18.636719 20.625 17.875 L 20.625 6.875 C 20.625 6.113281 20.011719 5.5 19.25 5.5 L 13.082031 5.5 C 13.074219 5.5 13.070312 5.5 13.0625 5.5 C 12.679688 5.5 12.375 5.195312 12.375 4.8125 C 12.375 4.429688 12.070312 4.125 11.6875 4.125 Z M 2.75 4.125 "/>
<path style=" stroke:none;fill-rule:nonzero;fill:rgb(100%,100%,100%);fill-opacity:0.4;" d="M 2.75 4.125 C 1.988281 4.125 1.375 4.738281 1.375 5.5 L 1.375 5.84375 C 1.375 5.082031 1.988281 4.46875 2.75 4.46875 L 11.6875 4.46875 C 12.070312 4.46875 12.375 4.773438 12.375 5.15625 C 12.375 5.539062 12.679688 5.84375 13.0625 5.84375 C 13.070312 5.84375 13.074219 5.84375 13.082031 5.84375 L 19.25 5.84375 C 20.011719 5.84375 20.625 6.457031 20.625 7.21875 L 20.625 6.875 C 20.625 6.113281 20.011719 5.5 19.25 5.5 L 13.082031 5.5 C 13.074219 5.5 13.070312 5.5 13.0625 5.5 C 12.679688 5.5 12.375 5.195312 12.375 4.8125 C 12.375 4.429688 12.070312 4.125 11.6875 4.125 Z M 2.75 4.125 "/>
<path style=" stroke:none;fill-rule:nonzero;fill:rgb(0%,0%,0%);fill-opacity:0.4;" d="M 1.375 17.53125 L 1.375 17.875 C 1.375 18.636719 1.988281 19.25 2.75 19.25 L 19.25 19.25 C 20.011719 19.25 20.625 18.636719 20.625 17.875 L 20.625 17.53125 C 20.625 18.292969 20.011719 18.90625 19.25 18.90625 L 2.75 18.90625 C 1.988281 18.90625 1.375 18.292969 1.375 17.53125 Z M 1.375 17.53125 "/>
<path style=" stroke:none;fill-rule:nonzero;fill:rgb(0%,0%,0%);fill-opacity:0.2;" d="M 1.375 17.875 L 1.375 18.390625 C 1.375 19.152344 1.988281 19.765625 2.75 19.765625 L 19.25 19.765625 C 20.011719 19.765625 20.625 19.152344 20.625 18.390625 L 20.625 17.875 C 20.625 18.636719 20.011719 19.25 19.25 19.25 L 2.75 19.25 C 1.988281 19.25 1.375 18.636719 1.375 17.875 Z M 1.375 17.875 "/>
<path style=" stroke:none;fill-rule:nonzero;fill:rgb(100%,92.54902%,70.19608%);fill-opacity:1;" d="M 10.957031 8.25 C 9.070312 8.273438 7.5625 9.796875 7.5625 11.6875 C 7.5625 13.59375 9.09375 15.125 11 15.125 C 12.90625 15.125 14.4375 13.59375 14.4375 11.6875 C 14.4375 9.78125 12.90625 8.25 11 8.25 C 10.984375 8.25 10.96875 8.25 10.957031 8.25 Z M 11 8.9375 C 12.523438 8.9375 13.75 10.164062 13.75 11.6875 L 13.0625 11.6875 C 13.0625 10.542969 12.144531 9.625 11 9.625 Z M 11 11 C 11.382812 11 11.6875 11.304688 11.6875 11.6875 C 11.6875 12.070312 11.382812 12.375 11 12.375 C 10.617188 12.375 10.3125 12.070312 10.3125 11.6875 C 10.3125 11.304688 10.617188 11 11 11 Z M 8.25 11.6875 L 8.9375 11.6875 C 8.9375 12.832031 9.855469 13.75 11 13.75 L 11 14.4375 C 9.476562 14.4375 8.25 13.210938 8.25 11.6875 Z M 8.25 11.6875 "/>
<path style=" stroke:none;fill-rule:nonzero;fill:rgb(89.411765%,89.411765%,89.411765%);fill-opacity:0.4;" d="M 10.957031 8.25 C 9.070312 8.273438 7.5625 9.796875 7.5625 11.6875 C 7.5625 11.710938 7.5625 11.734375 7.566406 11.757812 C 7.617188 9.914062 9.105469 8.445312 10.957031 8.421875 C 10.96875 8.421875 10.984375 8.421875 11 8.421875 C 12.871094 8.421875 14.382812 9.898438 14.433594 11.757812 C 14.4375 11.734375 14.4375 11.710938 14.4375 11.6875 C 14.4375 9.78125 12.90625 8.25 11 8.25 C 10.984375 8.25 10.96875 8.25 10.957031 8.25 Z M 11 9.625 L 11 9.796875 C 12.144531 9.796875 13.0625 10.714844 13.0625 11.859375 L 13.75 11.859375 C 13.75 11.800781 13.75 11.746094 13.746094 11.6875 L 13.0625 11.6875 C 13.0625 10.542969 12.144531 9.625 11 9.625 Z M 10.316406 11.773438 C 10.3125 11.800781 10.3125 11.828125 10.3125 11.859375 C 10.3125 12.242188 10.617188 12.546875 11 12.546875 C 11.382812 12.546875 11.6875 12.242188 11.6875 11.859375 C 11.6875 11.828125 11.6875 11.800781 11.683594 11.773438 C 11.640625 12.113281 11.351562 12.375 11 12.375 C 10.648438 12.375 10.359375 12.113281 10.316406 11.773438 Z M 8.25 11.859375 C 8.25 13.382812 9.476562 14.609375 11 14.609375 L 11 14.4375 C 9.535156 14.4375 8.34375 13.300781 8.253906 11.859375 Z M 8.25 11.859375 "/>
<path style=" stroke:none;fill-rule:nonzero;fill:rgb(15.294118%,15.294118%,15.294118%);fill-opacity:0.4;" d="M 11 8.9375 L 11 9.109375 C 12.464844 9.109375 13.65625 10.246094 13.746094 11.6875 L 13.75 11.6875 C 13.75 10.164062 12.523438 8.9375 11 8.9375 Z M 11 11 C 10.617188 11 10.3125 11.304688 10.3125 11.6875 C 10.3125 11.714844 10.3125 11.746094 10.316406 11.773438 C 10.359375 11.433594 10.648438 11.171875 11 11.171875 C 11.351562 11.171875 11.640625 11.433594 11.683594 11.773438 C 11.6875 11.746094 11.6875 11.714844 11.6875 11.6875 C 11.6875 11.304688 11.382812 11 11 11 Z M 8.25 11.6875 C 8.25 11.746094 8.25 11.800781 8.253906 11.859375 L 8.9375 11.859375 C 8.9375 13.003906 9.855469 13.921875 11 13.921875 L 11 13.75 C 9.855469 13.75 8.9375 12.832031 8.9375 11.6875 Z M 7.5625 11.777344 C 7.5625 11.804688 7.5625 11.832031 7.5625 11.859375 C 7.5625 13.765625 9.09375 15.296875 11 15.296875 C 12.90625 15.296875 14.4375 13.765625 14.4375 11.859375 C 14.4375 11.832031 14.4375 11.804688 14.4375 11.777344 C 14.390625 13.640625 12.875 15.125 11 15.125 C 9.125 15.125 7.609375 13.640625 7.5625 11.777344 Z M 7.5625 11.777344 "/>
<path style=" stroke:none;fill-rule:nonzero;fill:url(#linear0);" d="M 13.0625 2.75 C 12.550781 2.75 12.109375 3.027344 11.871094 3.4375 L 3.4375 3.4375 C 2.878906 3.4375 2.398438 3.769531 2.183594 4.246094 C 1.707031 4.460938 1.375 4.941406 1.375 5.5 L 1.375 17.875 C 1.375 18.636719 1.988281 19.25 2.75 19.25 L 19.25 19.25 C 20.011719 19.25 20.625 18.636719 20.625 17.875 L 20.625 6.875 C 20.625 6.363281 20.347656 5.921875 19.9375 5.683594 L 19.9375 4.125 C 19.9375 3.363281 19.324219 2.75 18.5625 2.75 Z M 13.0625 2.75 "/>
</g>
</svg>
