
<svg xmlns="http://www.w3.org/2000/svg" xmlns:xlink="http://www.w3.org/1999/xlink" width="48" height="48" viewBox="0 0 48 48" version="1.1">
<defs>
<linearGradient id="linear0" gradientUnits="userSpaceOnUse" x1="31.999998" y1="60" x2="31.999998" y2="4" gradientTransform="matrix(0.75,0,0,0.75,0.000000850394,0.000000000000085265)">
<stop offset="0" style="stop-color:rgb(0%,0%,0%);stop-opacity:0.2;"/>
<stop offset="1" style="stop-color:rgb(100%,100%,100%);stop-opacity:0;"/>
</linearGradient>
</defs>
<g id="surface1">
<path style=" stroke:none;fill-rule:nonzero;fill:rgb(14.901961%,77.64706%,85.490197%);fill-opacity:1;" d="M 30 3 L 9.75 3 C 8.503906 3 7.5 4.003906 7.5 5.25 L 7.5 42.75 C 7.5 43.996094 8.503906 45 9.75 45 L 38.25 45 C 39.496094 45 40.5 43.996094 40.5 42.75 L 40.5 13.5 Z M 30 3 "/>
<path style=" stroke:none;fill-rule:nonzero;fill:rgb(0%,0%,0%);fill-opacity:0.4;" d="M 30 11.25 L 30 12 C 30 13.246094 31.003906 14.25 32.25 14.25 L 40.5 14.25 L 39.75 13.5 L 32.25 13.5 C 31.003906 13.5 30 12.496094 30 11.25 Z M 30 11.25 "/>
<path style=" stroke:none;fill-rule:nonzero;fill:rgb(30.19608%,81.568629%,88.235295%);fill-opacity:0.996078;" d="M 40.5 13.5 L 30 3 L 30 11.25 C 30 12.496094 31.003906 13.5 32.25 13.5 Z M 40.5 13.5 "/>
<path style=" stroke:none;fill-rule:nonzero;fill:rgb(100%,100%,100%);fill-opacity:0.4;" d="M 9.75 3 C 8.503906 3 7.5 4.003906 7.5 5.25 L 7.5 6 C 7.5 4.753906 8.503906 3.75 9.75 3.75 L 30 3.75 L 40.5 14.25 L 40.5 13.5 L 30 3 Z M 9.75 3 "/>
<path style=" stroke:none;fill-rule:nonzero;fill:rgb(0%,0%,0%);fill-opacity:0.2;" d="M 7.5 42.738281 L 7.5 43.875 C 7.5 45.121094 8.503906 46.125 9.75 46.125 L 38.25 46.125 C 39.496094 46.125 40.5 45.121094 40.5 43.875 L 40.5 42.738281 C 40.5 43.984375 39.496094 44.988281 38.25 44.988281 L 9.75 44.988281 C 8.503906 44.988281 7.5 43.984375 7.5 42.738281 Z M 7.5 42.738281 "/>
<path style=" stroke:none;fill-rule:nonzero;fill:rgb(0%,0%,0%);fill-opacity:0.4;" d="M 7.5 42.09375 L 7.5 42.75 C 7.5 43.996094 8.503906 45 9.75 45 L 38.25 45 C 39.496094 45 40.5 43.996094 40.5 42.75 L 40.5 42.09375 C 40.5 43.339844 39.496094 44.34375 38.25 44.34375 L 9.75 44.34375 C 8.503906 44.34375 7.5 43.339844 7.5 42.09375 Z M 7.5 42.09375 "/>
<path style=" stroke:none;fill-rule:nonzero;fill:rgb(50.196081%,87.058824%,91.764706%);fill-opacity:0.996078;" d="M 16.5 18 C 15.667969 18 15 18.667969 15 19.5 L 15 31.5 C 15 32.332031 15.667969 33 16.5 33 L 31.5 33 C 32.332031 33 33 32.332031 33 31.5 L 33 19.5 C 33 18.667969 32.332031 18 31.5 18 Z M 17.703125 19.5 L 30.296875 19.5 L 24 24.539062 Z M 16.5 20.460938 L 23.53125 26.085938 C 23.804688 26.308594 24.195312 26.308594 24.472656 26.085938 L 31.5 20.460938 L 31.5 30.75 C 31.5 31.164062 31.164062 31.5 30.75 31.5 L 17.25 31.5 C 16.835938 31.5 16.5 31.164062 16.5 30.75 Z M 16.5 20.460938 "/>
<path style=" stroke:none;fill-rule:nonzero;fill:rgb(100%,100%,100%);fill-opacity:0.4;" d="M 16.5 18 C 15.667969 18 15 18.667969 15 19.5 L 15 19.875 C 15 19.042969 15.667969 18.375 16.5 18.375 L 31.5 18.375 C 32.332031 18.375 33 19.042969 33 19.875 L 33 19.5 C 33 18.667969 32.332031 18 31.5 18 Z M 17.703125 19.875 L 24 24.914062 L 30.296875 19.875 L 29.828125 19.875 L 24 24.539062 L 18.171875 19.875 Z M 16.5 30.75 L 16.5 31.125 C 16.5 31.539062 16.835938 31.875 17.25 31.875 L 30.75 31.875 C 31.164062 31.875 31.5 31.539062 31.5 31.125 L 31.5 30.75 C 31.5 31.164062 31.164062 31.5 30.75 31.5 L 17.25 31.5 C 16.835938 31.5 16.5 31.164062 16.5 30.75 Z M 16.5 30.75 "/>
<path style=" stroke:none;fill-rule:nonzero;fill:rgb(0%,0%,0%);fill-opacity:0.4;" d="M 17.703125 19.5 L 18.171875 19.875 L 29.828125 19.875 L 30.296875 19.5 Z M 16.5 20.460938 L 16.5 20.835938 L 23.53125 26.460938 C 23.804688 26.683594 24.195312 26.683594 24.472656 26.460938 L 31.5 20.835938 L 31.5 20.460938 L 24.472656 26.085938 C 24.195312 26.308594 23.804688 26.308594 23.53125 26.085938 Z M 15 31.5 L 15 31.875 C 15 32.707031 15.667969 33.375 16.5 33.375 L 31.5 33.375 C 32.332031 33.375 33 32.707031 33 31.875 L 33 31.5 C 33 32.332031 32.332031 33 31.5 33 L 16.5 33 C 15.667969 33 15 32.332031 15 31.5 Z M 15 31.5 "/>
<path style=" stroke:none;fill-rule:nonzero;fill:url(#linear0);" d="M 30 3 L 9.75 3 C 8.503906 3 7.5 4.003906 7.5 5.25 L 7.5 42.75 C 7.5 43.996094 8.503906 45 9.75 45 L 38.25 45 C 39.496094 45 40.5 43.996094 40.5 42.75 L 40.5 13.5 Z M 30 3 "/>
</g>
</svg>
