
<svg xmlns="http://www.w3.org/2000/svg" xmlns:xlink="http://www.w3.org/1999/xlink" width="24" height="24" viewBox="0 0 24 24" version="1.1">
<defs>
<linearGradient id="linear0" gradientUnits="userSpaceOnUse" x1="31.999998" y1="59.999996" x2="31.999998" y2="4" gradientTransform="matrix(0.375,0,0,0.375,0,0.000000000000042633)">
<stop offset="0" style="stop-color:rgb(0%,0%,0%);stop-opacity:0.2;"/>
<stop offset="1" style="stop-color:rgb(100%,100%,100%);stop-opacity:0;"/>
</linearGradient>
<linearGradient id="linear1" gradientUnits="userSpaceOnUse" x1="31.999998" y1="60" x2="31.999998" y2="4" gradientTransform="matrix(0.375,0,0,0.375,0,0.000000000000042633)">
<stop offset="0" style="stop-color:rgb(0%,0%,0%);stop-opacity:0.2;"/>
<stop offset="1" style="stop-color:rgb(100%,100%,100%);stop-opacity:0;"/>
</linearGradient>
</defs>
<g id="surface1">
<path style=" stroke:none;fill-rule:nonzero;fill:rgb(74.117649%,74.117649%,74.117649%);fill-opacity:0.996078;" d="M 11.0625 16.5 L 12.9375 16.5 L 12.9375 21.5625 L 11.0625 21.5625 Z M 11.0625 16.5 "/>
<path style=" stroke:none;fill-rule:nonzero;fill:rgb(87.843138%,87.843138%,87.843138%);fill-opacity:0.996078;" d="M 11.25 18 L 12.75 18 C 12.957031 18 13.125 18.167969 13.125 18.375 L 13.125 21 C 13.125 21.207031 12.957031 21.375 12.75 21.375 L 11.25 21.375 C 11.042969 21.375 10.875 21.207031 10.875 21 L 10.875 18.375 C 10.875 18.167969 11.042969 18 11.25 18 Z M 11.25 18 "/>
<path style=" stroke:none;fill-rule:nonzero;fill:rgb(0%,0%,0%);fill-opacity:0.2;" d="M 12.5625 18 L 12.5625 21.1875 L 12.84375 21.1875 C 13 21.1875 13.125 21.0625 13.125 20.90625 L 13.125 18.28125 C 13.125 18.125 13 18 12.84375 18 Z M 12.5625 18 "/>
<path style=" stroke:none;fill-rule:nonzero;fill:rgb(87.843138%,87.843138%,87.843138%);fill-opacity:0.996078;" d="M 11.0625 20.25 L 5.613281 20.953125 C 5.40625 20.980469 5.25 21.15625 5.25 21.363281 L 5.25 22.125 C 5.25 22.332031 5.417969 22.5 5.625 22.5 L 18.375 22.5 C 18.582031 22.5 18.75 22.332031 18.75 22.125 L 18.75 21.363281 C 18.75 21.15625 18.59375 20.980469 18.386719 20.953125 L 12.9375 20.25 Z M 11.0625 20.25 "/>
<path style=" stroke:none;fill-rule:nonzero;fill:rgb(100%,100%,100%);fill-opacity:0.6;" d="M 11.0625 20.25 L 5.613281 20.953125 C 5.40625 20.980469 5.25 21.15625 5.25 21.363281 L 5.25 21.738281 C 5.25 21.53125 5.40625 21.355469 5.613281 21.328125 L 11.0625 20.625 L 12.9375 20.625 L 18.386719 21.328125 C 18.59375 21.355469 18.75 21.53125 18.75 21.738281 L 18.75 21.363281 C 18.75 21.15625 18.59375 20.980469 18.386719 20.953125 L 12.9375 20.25 Z M 11.0625 20.25 "/>
<path style=" stroke:none;fill-rule:nonzero;fill:rgb(0%,0%,0%);fill-opacity:0.4;" d="M 5.25 21.75 L 5.25 22.125 C 5.25 22.332031 5.417969 22.5 5.625 22.5 L 18.375 22.5 C 18.582031 22.5 18.75 22.332031 18.75 22.125 L 18.75 21.75 C 18.75 21.957031 18.582031 22.125 18.375 22.125 L 5.625 22.125 C 5.417969 22.125 5.25 21.957031 5.25 21.75 Z M 5.25 21.75 "/>
<path style=" stroke:none;fill-rule:nonzero;fill:rgb(74.117649%,74.117649%,74.117649%);fill-opacity:1;" d="M 9.75 1.5 L 14.25 1.5 C 15.90625 1.5 17.25 2.84375 17.25 4.5 L 17.25 13.5 C 17.25 15.15625 15.90625 16.5 14.25 16.5 L 9.75 16.5 C 8.09375 16.5 6.75 15.15625 6.75 13.5 L 6.75 4.5 C 6.75 2.84375 8.09375 1.5 9.75 1.5 Z M 9.75 1.5 "/>
<path style=" stroke:none;fill-rule:nonzero;fill:rgb(87.843138%,87.843138%,87.843138%);fill-opacity:0.996078;" d="M 10.5 1.5 L 13.5 1.5 C 15.15625 1.5 16.5 2.84375 16.5 4.5 L 16.5 13.5 C 16.5 15.15625 15.15625 16.5 13.5 16.5 L 10.5 16.5 C 8.84375 16.5 7.5 15.15625 7.5 13.5 L 7.5 4.5 C 7.5 2.84375 8.84375 1.5 10.5 1.5 Z M 10.5 1.5 "/>
<path style=" stroke:none;fill-rule:nonzero;fill:rgb(99.215686%,99.215686%,99.215686%);fill-opacity:0.6;" d="M 11.25 18 C 11.042969 18 10.875 18.167969 10.875 18.375 L 10.875 18.75 C 10.875 18.542969 11.042969 18.375 11.25 18.375 L 12.75 18.375 C 12.957031 18.375 13.125 18.542969 13.125 18.75 L 13.125 18.375 C 13.125 18.167969 12.957031 18 12.75 18 Z M 11.25 18 "/>
<path style=" stroke:none;fill-rule:nonzero;fill:rgb(38.039216%,38.039216%,38.039216%);fill-opacity:0.996078;" d="M 6.75 4.875 L 6.75 5.625 L 10.125 5.625 C 10.332031 5.625 10.5 5.457031 10.5 5.25 C 10.5 5.042969 10.332031 4.875 10.125 4.875 Z M 6.75 4.875 "/>
<path style=" stroke:none;fill-rule:nonzero;fill:rgb(100%,100%,100%);fill-opacity:0.6;" d="M 10.488281 5.34375 C 10.445312 5.503906 10.300781 5.625 10.125 5.625 L 6.75 5.625 L 6.75 5.8125 L 10.125 5.8125 C 10.332031 5.8125 10.5 5.644531 10.5 5.4375 C 10.5 5.40625 10.496094 5.375 10.488281 5.34375 Z M 10.488281 5.34375 "/>
<path style=" stroke:none;fill-rule:nonzero;fill:rgb(21.960784%,21.960784%,21.960784%);fill-opacity:0.6;" d="M 10.488281 5.34375 C 10.445312 5.183594 10.300781 5.0625 10.125 5.0625 L 6.75 5.0625 L 6.75 4.875 L 10.125 4.875 C 10.332031 4.875 10.5 5.042969 10.5 5.25 C 10.5 5.28125 10.496094 5.3125 10.488281 5.34375 Z M 10.488281 5.34375 "/>
<path style=" stroke:none;fill-rule:nonzero;fill:rgb(38.039216%,38.039216%,38.039216%);fill-opacity:0.996078;" d="M 17.25 4.875 L 17.25 5.625 L 13.875 5.625 C 13.667969 5.625 13.5 5.457031 13.5 5.25 C 13.5 5.042969 13.667969 4.875 13.875 4.875 Z M 17.25 4.875 "/>
<path style=" stroke:none;fill-rule:nonzero;fill:rgb(100%,100%,100%);fill-opacity:0.6;" d="M 13.511719 5.34375 C 13.554688 5.503906 13.699219 5.625 13.875 5.625 L 17.25 5.625 L 17.25 5.8125 L 13.875 5.8125 C 13.667969 5.8125 13.5 5.644531 13.5 5.4375 C 13.5 5.40625 13.503906 5.375 13.511719 5.34375 Z M 13.511719 5.34375 "/>
<path style=" stroke:none;fill-rule:nonzero;fill:rgb(21.960784%,21.960784%,21.960784%);fill-opacity:0.6;" d="M 13.511719 5.34375 C 13.554688 5.183594 13.699219 5.0625 13.875 5.0625 L 17.25 5.0625 L 17.25 4.875 L 13.875 4.875 C 13.667969 4.875 13.5 5.042969 13.5 5.25 C 13.5 5.28125 13.503906 5.3125 13.511719 5.34375 Z M 13.511719 5.34375 "/>
<path style=" stroke:none;fill-rule:nonzero;fill:rgb(38.039216%,38.039216%,38.039216%);fill-opacity:0.996078;" d="M 6.75 6.375 L 6.75 7.125 L 10.125 7.125 C 10.332031 7.125 10.5 6.957031 10.5 6.75 C 10.5 6.542969 10.332031 6.375 10.125 6.375 Z M 6.75 6.375 "/>
<path style=" stroke:none;fill-rule:nonzero;fill:rgb(100%,100%,100%);fill-opacity:0.6;" d="M 10.488281 6.84375 C 10.445312 7.003906 10.300781 7.125 10.125 7.125 L 6.75 7.125 L 6.75 7.3125 L 10.125 7.3125 C 10.332031 7.3125 10.5 7.144531 10.5 6.9375 C 10.5 6.90625 10.496094 6.875 10.488281 6.84375 Z M 10.488281 6.84375 "/>
<path style=" stroke:none;fill-rule:nonzero;fill:rgb(21.960784%,21.960784%,21.960784%);fill-opacity:0.6;" d="M 10.488281 6.84375 C 10.445312 6.683594 10.300781 6.5625 10.125 6.5625 L 6.75 6.5625 L 6.75 6.375 L 10.125 6.375 C 10.332031 6.375 10.5 6.542969 10.5 6.75 C 10.5 6.78125 10.496094 6.8125 10.488281 6.84375 Z M 10.488281 6.84375 "/>
<path style=" stroke:none;fill-rule:nonzero;fill:rgb(38.039216%,38.039216%,38.039216%);fill-opacity:0.996078;" d="M 17.25 6.375 L 17.25 7.125 L 13.875 7.125 C 13.667969 7.125 13.5 6.957031 13.5 6.75 C 13.5 6.542969 13.667969 6.375 13.875 6.375 Z M 17.25 6.375 "/>
<path style=" stroke:none;fill-rule:nonzero;fill:rgb(100%,100%,100%);fill-opacity:0.6;" d="M 13.511719 6.84375 C 13.554688 7.003906 13.699219 7.125 13.875 7.125 L 17.25 7.125 L 17.25 7.3125 L 13.875 7.3125 C 13.667969 7.3125 13.5 7.144531 13.5 6.9375 C 13.5 6.90625 13.503906 6.875 13.511719 6.84375 Z M 13.511719 6.84375 "/>
<path style=" stroke:none;fill-rule:nonzero;fill:rgb(21.960784%,21.960784%,21.960784%);fill-opacity:0.6;" d="M 13.511719 6.84375 C 13.554688 6.683594 13.699219 6.5625 13.875 6.5625 L 17.25 6.5625 L 17.25 6.375 L 13.875 6.375 C 13.667969 6.375 13.5 6.542969 13.5 6.75 C 13.5 6.78125 13.503906 6.8125 13.511719 6.84375 Z M 13.511719 6.84375 "/>
<path style=" stroke:none;fill-rule:nonzero;fill:rgb(38.039216%,38.039216%,38.039216%);fill-opacity:0.996078;" d="M 6.75 7.875 L 6.75 8.625 L 10.125 8.625 C 10.332031 8.625 10.5 8.457031 10.5 8.25 C 10.5 8.042969 10.332031 7.875 10.125 7.875 Z M 6.75 7.875 "/>
<path style=" stroke:none;fill-rule:nonzero;fill:rgb(100%,100%,100%);fill-opacity:0.6;" d="M 10.488281 8.34375 C 10.445312 8.503906 10.300781 8.625 10.125 8.625 L 6.75 8.625 L 6.75 8.8125 L 10.125 8.8125 C 10.332031 8.8125 10.5 8.644531 10.5 8.4375 C 10.5 8.40625 10.496094 8.375 10.488281 8.34375 Z M 10.488281 8.34375 "/>
<path style=" stroke:none;fill-rule:nonzero;fill:rgb(21.960784%,21.960784%,21.960784%);fill-opacity:0.6;" d="M 10.488281 8.34375 C 10.445312 8.183594 10.300781 8.0625 10.125 8.0625 L 6.75 8.0625 L 6.75 7.875 L 10.125 7.875 C 10.332031 7.875 10.5 8.042969 10.5 8.25 C 10.5 8.28125 10.496094 8.3125 10.488281 8.34375 Z M 10.488281 8.34375 "/>
<path style=" stroke:none;fill-rule:nonzero;fill:rgb(38.039216%,38.039216%,38.039216%);fill-opacity:0.996078;" d="M 17.25 7.875 L 17.25 8.625 L 13.875 8.625 C 13.667969 8.625 13.5 8.457031 13.5 8.25 C 13.5 8.042969 13.667969 7.875 13.875 7.875 Z M 17.25 7.875 "/>
<path style=" stroke:none;fill-rule:nonzero;fill:rgb(100%,100%,100%);fill-opacity:0.6;" d="M 13.511719 8.34375 C 13.554688 8.503906 13.699219 8.625 13.875 8.625 L 17.25 8.625 L 17.25 8.8125 L 13.875 8.8125 C 13.667969 8.8125 13.5 8.644531 13.5 8.4375 C 13.5 8.40625 13.503906 8.375 13.511719 8.34375 Z M 13.511719 8.34375 "/>
<path style=" stroke:none;fill-rule:nonzero;fill:rgb(21.960784%,21.960784%,21.960784%);fill-opacity:0.6;" d="M 13.511719 8.34375 C 13.554688 8.183594 13.699219 8.0625 13.875 8.0625 L 17.25 8.0625 L 17.25 7.875 L 13.875 7.875 C 13.667969 7.875 13.5 8.042969 13.5 8.25 C 13.5 8.28125 13.503906 8.3125 13.511719 8.34375 Z M 13.511719 8.34375 "/>
<path style=" stroke:none;fill-rule:nonzero;fill:rgb(38.039216%,38.039216%,38.039216%);fill-opacity:0.996078;" d="M 6.75 9.375 L 6.75 10.125 L 10.125 10.125 C 10.332031 10.125 10.5 9.957031 10.5 9.75 C 10.5 9.542969 10.332031 9.375 10.125 9.375 Z M 6.75 9.375 "/>
<path style=" stroke:none;fill-rule:nonzero;fill:rgb(100%,100%,100%);fill-opacity:0.6;" d="M 10.488281 9.84375 C 10.445312 10.003906 10.300781 10.125 10.125 10.125 L 6.75 10.125 L 6.75 10.3125 L 10.125 10.3125 C 10.332031 10.3125 10.5 10.144531 10.5 9.9375 C 10.5 9.90625 10.496094 9.875 10.488281 9.84375 Z M 10.488281 9.84375 "/>
<path style=" stroke:none;fill-rule:nonzero;fill:rgb(21.960784%,21.960784%,21.960784%);fill-opacity:0.6;" d="M 10.488281 9.84375 C 10.445312 9.683594 10.300781 9.5625 10.125 9.5625 L 6.75 9.5625 L 6.75 9.375 L 10.125 9.375 C 10.332031 9.375 10.5 9.542969 10.5 9.75 C 10.5 9.78125 10.496094 9.8125 10.488281 9.84375 Z M 10.488281 9.84375 "/>
<path style=" stroke:none;fill-rule:nonzero;fill:rgb(38.039216%,38.039216%,38.039216%);fill-opacity:0.996078;" d="M 17.25 9.375 L 17.25 10.125 L 13.875 10.125 C 13.667969 10.125 13.5 9.957031 13.5 9.75 C 13.5 9.542969 13.667969 9.375 13.875 9.375 Z M 17.25 9.375 "/>
<path style=" stroke:none;fill-rule:nonzero;fill:rgb(100%,100%,100%);fill-opacity:0.6;" d="M 13.511719 9.84375 C 13.554688 10.003906 13.699219 10.125 13.875 10.125 L 17.25 10.125 L 17.25 10.3125 L 13.875 10.3125 C 13.667969 10.3125 13.5 10.144531 13.5 9.9375 C 13.5 9.90625 13.503906 9.875 13.511719 9.84375 Z M 13.511719 9.84375 "/>
<path style=" stroke:none;fill-rule:nonzero;fill:rgb(21.960784%,21.960784%,21.960784%);fill-opacity:0.6;" d="M 13.511719 9.84375 C 13.554688 9.683594 13.699219 9.5625 13.875 9.5625 L 17.25 9.5625 L 17.25 9.375 L 13.875 9.375 C 13.667969 9.375 13.5 9.542969 13.5 9.75 C 13.5 9.78125 13.503906 9.8125 13.511719 9.84375 Z M 13.511719 9.84375 "/>
<path style=" stroke:none;fill-rule:nonzero;fill:rgb(38.039216%,38.039216%,38.039216%);fill-opacity:0.996078;" d="M 6.75 10.875 L 6.75 11.625 L 10.125 11.625 C 10.332031 11.625 10.5 11.457031 10.5 11.25 C 10.5 11.042969 10.332031 10.875 10.125 10.875 Z M 6.75 10.875 "/>
<path style=" stroke:none;fill-rule:nonzero;fill:rgb(100%,100%,100%);fill-opacity:0.6;" d="M 10.488281 11.34375 C 10.445312 11.503906 10.300781 11.625 10.125 11.625 L 6.75 11.625 L 6.75 11.8125 L 10.125 11.8125 C 10.332031 11.8125 10.5 11.644531 10.5 11.4375 C 10.5 11.40625 10.496094 11.375 10.488281 11.34375 Z M 10.488281 11.34375 "/>
<path style=" stroke:none;fill-rule:nonzero;fill:rgb(21.960784%,21.960784%,21.960784%);fill-opacity:0.6;" d="M 10.488281 11.34375 C 10.445312 11.183594 10.300781 11.0625 10.125 11.0625 L 6.75 11.0625 L 6.75 10.875 L 10.125 10.875 C 10.332031 10.875 10.5 11.042969 10.5 11.25 C 10.5 11.28125 10.496094 11.3125 10.488281 11.34375 Z M 10.488281 11.34375 "/>
<path style=" stroke:none;fill-rule:nonzero;fill:rgb(38.039216%,38.039216%,38.039216%);fill-opacity:0.996078;" d="M 17.25 10.875 L 17.25 11.625 L 13.875 11.625 C 13.667969 11.625 13.5 11.457031 13.5 11.25 C 13.5 11.042969 13.667969 10.875 13.875 10.875 Z M 17.25 10.875 "/>
<path style=" stroke:none;fill-rule:nonzero;fill:rgb(100%,100%,100%);fill-opacity:0.6;" d="M 13.511719 11.34375 C 13.554688 11.503906 13.699219 11.625 13.875 11.625 L 17.25 11.625 L 17.25 11.8125 L 13.875 11.8125 C 13.667969 11.8125 13.5 11.644531 13.5 11.4375 C 13.5 11.40625 13.503906 11.375 13.511719 11.34375 Z M 13.511719 11.34375 "/>
<path style=" stroke:none;fill-rule:nonzero;fill:rgb(21.960784%,21.960784%,21.960784%);fill-opacity:0.6;" d="M 13.511719 11.34375 C 13.554688 11.183594 13.699219 11.0625 13.875 11.0625 L 17.25 11.0625 L 17.25 10.875 L 13.875 10.875 C 13.667969 10.875 13.5 11.042969 13.5 11.25 C 13.5 11.28125 13.503906 11.3125 13.511719 11.34375 Z M 13.511719 11.34375 "/>
<path style=" stroke:none;fill-rule:nonzero;fill:rgb(38.039216%,38.039216%,38.039216%);fill-opacity:0.996078;" d="M 6.75 12.375 L 6.75 13.125 L 10.125 13.125 C 10.332031 13.125 10.5 12.957031 10.5 12.75 C 10.5 12.542969 10.332031 12.375 10.125 12.375 Z M 6.75 12.375 "/>
<path style=" stroke:none;fill-rule:nonzero;fill:rgb(100%,100%,100%);fill-opacity:0.6;" d="M 10.488281 12.84375 C 10.445312 13.003906 10.300781 13.125 10.125 13.125 L 6.75 13.125 L 6.75 13.3125 L 10.125 13.3125 C 10.332031 13.3125 10.5 13.144531 10.5 12.9375 C 10.5 12.90625 10.496094 12.875 10.488281 12.84375 Z M 10.488281 12.84375 "/>
<path style=" stroke:none;fill-rule:nonzero;fill:rgb(21.960784%,21.960784%,21.960784%);fill-opacity:0.6;" d="M 10.488281 12.84375 C 10.445312 12.683594 10.300781 12.5625 10.125 12.5625 L 6.75 12.5625 L 6.75 12.375 L 10.125 12.375 C 10.332031 12.375 10.5 12.542969 10.5 12.75 C 10.5 12.78125 10.496094 12.8125 10.488281 12.84375 Z M 10.488281 12.84375 "/>
<path style=" stroke:none;fill-rule:nonzero;fill:rgb(38.039216%,38.039216%,38.039216%);fill-opacity:0.996078;" d="M 17.25 12.375 L 17.25 13.125 L 13.875 13.125 C 13.667969 13.125 13.5 12.957031 13.5 12.75 C 13.5 12.542969 13.667969 12.375 13.875 12.375 Z M 17.25 12.375 "/>
<path style=" stroke:none;fill-rule:nonzero;fill:rgb(100%,100%,100%);fill-opacity:0.6;" d="M 13.511719 12.84375 C 13.554688 13.003906 13.699219 13.125 13.875 13.125 L 17.25 13.125 L 17.25 13.3125 L 13.875 13.3125 C 13.667969 13.3125 13.5 13.144531 13.5 12.9375 C 13.5 12.90625 13.503906 12.875 13.511719 12.84375 Z M 13.511719 12.84375 "/>
<path style=" stroke:none;fill-rule:nonzero;fill:rgb(21.960784%,21.960784%,21.960784%);fill-opacity:0.6;" d="M 13.511719 12.84375 C 13.554688 12.683594 13.699219 12.5625 13.875 12.5625 L 17.25 12.5625 L 17.25 12.375 L 13.875 12.375 C 13.667969 12.375 13.5 12.542969 13.5 12.75 C 13.5 12.78125 13.503906 12.8125 13.511719 12.84375 Z M 13.511719 12.84375 "/>
<path style=" stroke:none;fill-rule:nonzero;fill:rgb(38.039216%,38.039216%,38.039216%);fill-opacity:0.996078;" d="M 11.625 1.5 L 12.375 1.5 L 12.375 3.75 C 12.375 3.957031 12.207031 4.125 12 4.125 C 11.792969 4.125 11.625 3.957031 11.625 3.75 Z M 11.625 1.5 "/>
<path style=" stroke:none;fill-rule:nonzero;fill:rgb(100%,100%,100%);fill-opacity:0.6;" d="M 11.625 3.75 L 11.625 3.9375 C 11.625 4.144531 11.792969 4.3125 12 4.3125 C 12.207031 4.3125 12.375 4.144531 12.375 3.9375 L 12.375 3.75 C 12.375 3.957031 12.207031 4.125 12 4.125 C 11.792969 4.125 11.625 3.957031 11.625 3.75 Z M 11.625 3.75 "/>
<path style=" stroke:none;fill-rule:nonzero;fill:rgb(38.039216%,38.039216%,38.039216%);fill-opacity:0.996078;" d="M 13.125 1.5 L 13.875 1.5 L 13.875 3.75 C 13.875 3.957031 13.707031 4.125 13.5 4.125 C 13.292969 4.125 13.125 3.957031 13.125 3.75 Z M 13.125 1.5 "/>
<path style=" stroke:none;fill-rule:nonzero;fill:rgb(100%,100%,100%);fill-opacity:0.6;" d="M 13.125 3.75 L 13.125 3.9375 C 13.125 4.144531 13.292969 4.3125 13.5 4.3125 C 13.707031 4.3125 13.875 4.144531 13.875 3.9375 L 13.875 3.75 C 13.875 3.957031 13.707031 4.125 13.5 4.125 C 13.292969 4.125 13.125 3.957031 13.125 3.75 Z M 13.125 3.75 "/>
<path style=" stroke:none;fill-rule:nonzero;fill:rgb(38.039216%,38.039216%,38.039216%);fill-opacity:0.996078;" d="M 10.125 1.5 L 10.875 1.5 L 10.875 3.75 C 10.875 3.957031 10.707031 4.125 10.5 4.125 C 10.292969 4.125 10.125 3.957031 10.125 3.75 Z M 10.125 1.5 "/>
<path style=" stroke:none;fill-rule:nonzero;fill:rgb(100%,100%,100%);fill-opacity:0.6;" d="M 10.125 3.75 L 10.125 3.9375 C 10.125 4.144531 10.292969 4.3125 10.5 4.3125 C 10.707031 4.3125 10.875 4.144531 10.875 3.9375 L 10.875 3.75 C 10.875 3.957031 10.707031 4.125 10.5 4.125 C 10.292969 4.125 10.125 3.957031 10.125 3.75 Z M 10.125 3.75 "/>
<path style=" stroke:none;fill-rule:nonzero;fill:rgb(38.039216%,38.039216%,38.039216%);fill-opacity:0.996078;" d="M 9.375 1.523438 C 9.113281 1.554688 8.863281 1.621094 8.625 1.71875 L 8.625 3.75 C 8.625 3.957031 8.792969 4.125 9 4.125 C 9.207031 4.125 9.375 3.957031 9.375 3.75 Z M 9.375 1.523438 "/>
<path style=" stroke:none;fill-rule:nonzero;fill:rgb(100%,100%,100%);fill-opacity:0.6;" d="M 8.625 3.75 L 8.625 3.9375 C 8.625 4.144531 8.792969 4.3125 9 4.3125 C 9.207031 4.3125 9.375 4.144531 9.375 3.9375 L 9.375 3.75 C 9.375 3.957031 9.207031 4.125 9 4.125 C 8.792969 4.125 8.625 3.957031 8.625 3.75 Z M 8.625 3.75 "/>
<path style=" stroke:none;fill-rule:nonzero;fill:rgb(38.039216%,38.039216%,38.039216%);fill-opacity:0.996078;" d="M 14.625 1.523438 L 14.625 3.75 C 14.625 3.957031 14.792969 4.125 15 4.125 C 15.207031 4.125 15.375 3.957031 15.375 3.75 L 15.375 1.71875 C 15.136719 1.621094 14.886719 1.554688 14.625 1.523438 Z M 14.625 1.523438 "/>
<path style=" stroke:none;fill-rule:nonzero;fill:rgb(100%,100%,100%);fill-opacity:0.6;" d="M 14.625 3.75 L 14.625 3.9375 C 14.625 4.144531 14.792969 4.3125 15 4.3125 C 15.207031 4.3125 15.375 4.144531 15.375 3.9375 L 15.375 3.75 C 15.375 3.957031 15.207031 4.125 15 4.125 C 14.792969 4.125 14.625 3.957031 14.625 3.75 Z M 14.625 3.75 "/>
<path style=" stroke:none;fill-rule:nonzero;fill:rgb(38.039216%,38.039216%,38.039216%);fill-opacity:0.996078;" d="M 11.625 16.5 L 12.375 16.5 L 12.375 14.25 C 12.375 14.042969 12.207031 13.875 12 13.875 C 11.792969 13.875 11.625 14.042969 11.625 14.25 Z M 11.625 16.5 "/>
<path style=" stroke:none;fill-rule:nonzero;fill:rgb(38.039216%,38.039216%,38.039216%);fill-opacity:0.996078;" d="M 13.125 16.5 L 13.875 16.5 L 13.875 14.25 C 13.875 14.042969 13.707031 13.875 13.5 13.875 C 13.292969 13.875 13.125 14.042969 13.125 14.25 Z M 13.125 16.5 "/>
<path style=" stroke:none;fill-rule:nonzero;fill:rgb(38.039216%,38.039216%,38.039216%);fill-opacity:0.996078;" d="M 10.125 16.5 L 10.875 16.5 L 10.875 14.25 C 10.875 14.042969 10.707031 13.875 10.5 13.875 C 10.292969 13.875 10.125 14.042969 10.125 14.25 Z M 10.125 16.5 "/>
<path style=" stroke:none;fill-rule:nonzero;fill:rgb(38.039216%,38.039216%,38.039216%);fill-opacity:0.996078;" d="M 9 13.875 C 8.792969 13.875 8.625 14.042969 8.625 14.25 L 8.625 16.28125 C 8.863281 16.378906 9.113281 16.445312 9.375 16.476562 L 9.375 14.25 C 9.375 14.042969 9.207031 13.875 9 13.875 Z M 9 13.875 "/>
<path style=" stroke:none;fill-rule:nonzero;fill:rgb(38.039216%,38.039216%,38.039216%);fill-opacity:0.996078;" d="M 15 13.875 C 14.792969 13.875 14.625 14.042969 14.625 14.25 L 14.625 16.476562 C 14.886719 16.445312 15.136719 16.378906 15.375 16.28125 L 15.375 14.25 C 15.375 14.042969 15.207031 13.875 15 13.875 Z M 15 13.875 "/>
<path style=" stroke:none;fill-rule:nonzero;fill:rgb(0%,0%,0%);fill-opacity:0.4;" d="M 9 13.875 C 8.792969 13.875 8.625 14.042969 8.625 14.25 L 8.625 14.4375 C 8.625 14.230469 8.792969 14.0625 9 14.0625 C 9.207031 14.0625 9.375 14.230469 9.375 14.4375 L 9.375 14.25 C 9.375 14.042969 9.207031 13.875 9 13.875 Z M 10.5 13.875 C 10.292969 13.875 10.125 14.042969 10.125 14.25 L 10.125 14.4375 C 10.125 14.230469 10.292969 14.0625 10.5 14.0625 C 10.707031 14.0625 10.875 14.230469 10.875 14.4375 L 10.875 14.25 C 10.875 14.042969 10.707031 13.875 10.5 13.875 Z M 12 13.875 C 11.792969 13.875 11.625 14.042969 11.625 14.25 L 11.625 14.4375 C 11.625 14.230469 11.792969 14.0625 12 14.0625 C 12.207031 14.0625 12.375 14.230469 12.375 14.4375 L 12.375 14.25 C 12.375 14.042969 12.207031 13.875 12 13.875 Z M 13.5 13.875 C 13.292969 13.875 13.125 14.042969 13.125 14.25 L 13.125 14.4375 C 13.125 14.230469 13.292969 14.0625 13.5 14.0625 C 13.707031 14.0625 13.875 14.230469 13.875 14.4375 L 13.875 14.25 C 13.875 14.042969 13.707031 13.875 13.5 13.875 Z M 15 13.875 C 14.792969 13.875 14.625 14.042969 14.625 14.25 L 14.625 14.4375 C 14.625 14.230469 14.792969 14.0625 15 14.0625 C 15.207031 14.0625 15.375 14.230469 15.375 14.4375 L 15.375 14.25 C 15.375 14.042969 15.207031 13.875 15 13.875 Z M 15 13.875 "/>
<path style=" stroke:none;fill-rule:nonzero;fill:rgb(93.333334%,93.333334%,93.333334%);fill-opacity:1;" d="M 11.4375 16.6875 C 11.542969 16.6875 11.625 16.769531 11.625 16.875 L 11.625 17.625 C 11.625 17.730469 11.542969 17.8125 11.4375 17.8125 C 11.332031 17.8125 11.25 17.730469 11.25 17.625 L 11.25 16.875 C 11.25 16.769531 11.332031 16.6875 11.4375 16.6875 Z M 11.4375 16.6875 "/>
<path style=" stroke:none;fill-rule:nonzero;fill:rgb(0%,0%,0%);fill-opacity:0.4;" d="M 11.0625 16.5 L 12.9375 16.5 L 12.9375 16.875 L 11.0625 16.875 Z M 11.0625 16.5 "/>
<path style=" stroke:none;fill-rule:nonzero;fill:rgb(96.078432%,96.078432%,96.078432%);fill-opacity:1;" d="M 11.25 18.5625 C 11.355469 18.5625 11.4375 18.644531 11.4375 18.75 L 11.4375 19.875 C 11.4375 19.980469 11.355469 20.0625 11.25 20.0625 C 11.144531 20.0625 11.0625 19.980469 11.0625 19.875 L 11.0625 18.75 C 11.0625 18.644531 11.144531 18.5625 11.25 18.5625 Z M 11.25 18.5625 "/>
<path style=" stroke:none;fill-rule:nonzero;fill:rgb(100%,100%,100%);fill-opacity:0.6;" d="M 9.75 1.5 C 8.089844 1.5 6.75 2.839844 6.75 4.5 L 6.75 4.875 C 6.75 3.214844 8.089844 1.875 9.75 1.875 L 14.25 1.875 C 15.910156 1.875 17.25 3.214844 17.25 4.875 L 17.25 4.5 C 17.25 2.839844 15.910156 1.5 14.25 1.5 Z M 9.75 1.5 "/>
<path style=" stroke:none;fill-rule:nonzero;fill:rgb(0%,0%,0%);fill-opacity:0.4;" d="M 9.75 16.5 C 8.089844 16.5 6.75 15.160156 6.75 13.5 L 6.75 13.125 C 6.75 14.785156 8.089844 16.125 9.75 16.125 L 14.25 16.125 C 15.910156 16.125 17.25 14.785156 17.25 13.125 L 17.25 13.5 C 17.25 15.160156 15.910156 16.5 14.25 16.5 Z M 9.75 16.5 "/>
<path style=" stroke:none;fill-rule:nonzero;fill:rgb(0%,0%,0%);fill-opacity:0.2;" d="M 22.496094 18.1875 C 22.40625 20.335938 20.824219 22.089844 18.75 22.433594 L 18.75 22.125 C 18.75 22.277344 18.660156 22.40625 18.53125 22.464844 C 18.355469 22.484375 18.179688 22.496094 18 22.496094 L 18 22.5 L 5.625 22.5 C 5.417969 22.5 5.25 22.332031 5.25 22.125 L 5.25 22.6875 C 5.25 22.894531 5.417969 23.0625 5.625 23.0625 L 18.375 23.0625 C 18.429688 23.0625 18.480469 23.050781 18.527344 23.03125 C 20.769531 22.773438 22.5 20.878906 22.5 18.5625 C 22.5 18.539062 22.5 18.515625 22.5 18.492188 C 22.5 18.488281 22.5 18.484375 22.5 18.476562 C 22.5 18.476562 22.5 18.472656 22.5 18.46875 C 22.5 18.4375 22.5 18.40625 22.5 18.375 C 22.5 18.3125 22.5 18.25 22.496094 18.1875 Z M 22.496094 18.1875 "/>
<path style=" stroke:none;fill-rule:nonzero;fill:rgb(0%,0%,0%);fill-opacity:0.4;" d="M 5.25 21.5625 L 5.25 21.75 L 18.75 21.75 L 18.75 21.5625 Z M 5.25 21.5625 "/>
<path style=" stroke:none;fill-rule:nonzero;fill:rgb(100%,97.647059%,97.647059%);fill-opacity:0.6;" d="M 5.25 21.9375 L 5.25 21.75 L 18.75 21.75 L 18.75 21.9375 Z M 5.25 21.9375 "/>
<path style=" stroke:none;fill-rule:nonzero;fill:rgb(0%,0%,0%);fill-opacity:0.2;" d="M 12.5625 16.5 L 12.9375 16.5 L 12.9375 18 L 12.5625 18 Z M 12.5625 16.5 "/>
<path style=" stroke:none;fill-rule:nonzero;fill:url(#linear0);" d="M 9.75 1.5 C 8.089844 1.5 6.75 2.839844 6.75 4.5 L 6.75 13.5 C 6.75 15.160156 8.089844 16.5 9.75 16.5 L 11.0625 16.5 L 11.0625 18.050781 C 10.949219 18.117188 10.875 18.234375 10.875 18.375 L 10.875 20.273438 L 5.613281 20.953125 C 5.40625 20.980469 5.25 21.15625 5.25 21.363281 L 5.25 22.125 C 5.25 22.332031 5.417969 22.5 5.625 22.5 L 18.375 22.5 C 18.582031 22.5 18.75 22.332031 18.75 22.125 L 18.75 21.363281 C 18.75 21.15625 18.59375 20.980469 18.386719 20.953125 L 13.125 20.273438 L 13.125 18.375 C 13.125 18.234375 13.050781 18.117188 12.9375 18.050781 L 12.9375 16.5 L 14.25 16.5 C 15.910156 16.5 17.25 15.160156 17.25 13.5 L 17.25 4.5 C 17.25 2.839844 15.910156 1.5 14.25 1.5 Z M 9.75 1.5 "/>
<path style=" stroke:none;fill-rule:nonzero;fill:rgb(95.686275%,26.274511%,21.176471%);fill-opacity:0.988235;" d="M 18 13.5 C 20.484375 13.5 22.5 15.515625 22.5 18 C 22.5 20.484375 20.484375 22.5 18 22.5 C 15.515625 22.5 13.5 20.484375 13.5 18 C 13.5 15.515625 15.515625 13.5 18 13.5 Z M 18 13.5 "/>
<path style=" stroke:none;fill-rule:nonzero;fill:rgb(100%,100%,100%);fill-opacity:0.4;" d="M 18 13.5 C 15.507812 13.5 13.5 15.507812 13.5 18 C 13.5 18.0625 13.5 18.125 13.503906 18.1875 C 13.601562 15.785156 15.570312 13.878906 18 13.878906 C 20.429688 13.878906 22.398438 15.785156 22.496094 18.1875 C 22.5 18.125 22.5 18.0625 22.5 18 C 22.5 15.507812 20.492188 13.5 18 13.5 Z M 18 13.5 "/>
<path style=" stroke:none;fill-rule:nonzero;fill:rgb(0.392157%,0.392157%,0.392157%);fill-opacity:0.4;" d="M 18 22.5 C 15.507812 22.5 13.5 20.496094 13.5 18 C 13.5 17.9375 13.5 17.875 13.503906 17.8125 C 13.601562 20.21875 15.570312 22.125 18 22.125 C 20.429688 22.125 22.398438 20.21875 22.496094 17.8125 C 22.5 17.875 22.5 17.9375 22.5 18 C 22.5 20.496094 20.492188 22.5 18 22.5 Z M 18 22.5 "/>
<path style=" stroke:none;fill-rule:nonzero;fill:rgb(87.843138%,87.843138%,87.843138%);fill-opacity:1;" d="M 12 6.375 C 13.449219 6.375 14.625 7.550781 14.625 9 C 14.625 10.449219 13.449219 11.625 12 11.625 C 10.550781 11.625 9.375 10.449219 9.375 9 C 9.375 7.550781 10.550781 6.375 12 6.375 Z M 12 6.375 "/>
<path style=" stroke:none;fill-rule:nonzero;fill:rgb(0%,0%,0%);fill-opacity:0.4;" d="M 12 7.125 C 13.035156 7.125 13.875 7.964844 13.875 9 C 13.875 10.035156 13.035156 10.875 12 10.875 C 10.964844 10.875 10.125 10.035156 10.125 9 C 10.125 7.964844 10.964844 7.125 12 7.125 Z M 12 7.125 "/>
<path style=" stroke:none;fill-rule:nonzero;fill:rgb(87.843138%,87.843138%,87.843138%);fill-opacity:0.996078;" d="M 12 7.875 C 12.621094 7.875 13.125 8.378906 13.125 9 C 13.125 9.621094 12.621094 10.125 12 10.125 C 11.378906 10.125 10.875 9.621094 10.875 9 C 10.875 8.378906 11.378906 7.875 12 7.875 Z M 12 7.875 "/>
<path style=" stroke:none;fill-rule:nonzero;fill:rgb(100%,100%,100%);fill-opacity:0.4;" d="M 12 7.875 C 11.375 7.875 10.875 8.375 10.875 9 C 10.875 9.03125 10.875 9.0625 10.878906 9.09375 C 10.925781 8.515625 11.410156 8.0625 12 8.0625 C 12.589844 8.0625 13.074219 8.515625 13.121094 9.09375 C 13.125 9.0625 13.125 9.03125 13.125 9 C 13.125 8.375 12.625 7.875 12 7.875 Z M 12 7.875 "/>
<path style=" stroke:none;fill-rule:nonzero;fill:rgb(0.392157%,0.392157%,0.392157%);fill-opacity:0.4;" d="M 12 10.3125 C 11.375 10.3125 10.875 9.8125 10.875 9.1875 C 10.875 9.15625 10.875 9.125 10.878906 9.09375 C 10.925781 9.671875 11.410156 10.125 12 10.125 C 12.589844 10.125 13.074219 9.671875 13.121094 9.09375 C 13.125 9.125 13.125 9.15625 13.125 9.1875 C 13.125 9.8125 12.625 10.3125 12 10.3125 Z M 12 10.3125 "/>
<path style=" stroke:none;fill-rule:nonzero;fill:rgb(0%,0%,0%);fill-opacity:0.4;" d="M 12 7.125 C 10.960938 7.125 10.125 7.960938 10.125 9 C 10.125 9.0625 10.128906 9.125 10.132812 9.1875 C 10.226562 8.238281 11.023438 7.5 12 7.5 C 12.976562 7.5 13.773438 8.238281 13.867188 9.1875 C 13.871094 9.125 13.875 9.0625 13.875 9 C 13.875 7.960938 13.039062 7.125 12 7.125 Z M 12 7.125 "/>
<path style=" stroke:none;fill-rule:nonzero;fill:rgb(100%,100%,100%);fill-opacity:0.6;" d="M 12 11.25 C 10.960938 11.25 10.125 10.414062 10.125 9.375 C 10.125 9.3125 10.128906 9.25 10.132812 9.1875 C 10.226562 10.136719 11.023438 10.875 12 10.875 C 12.976562 10.875 13.773438 10.136719 13.867188 9.1875 C 13.871094 9.25 13.875 9.3125 13.875 9.375 C 13.875 10.414062 13.039062 11.25 12 11.25 Z M 12 11.25 "/>
<path style=" stroke:none;fill-rule:nonzero;fill:url(#linear1);" d="M 9.75 1.5 C 8.089844 1.5 6.75 2.839844 6.75 4.5 L 6.75 13.5 C 6.75 15.160156 8.089844 16.5 9.75 16.5 L 11.0625 16.5 L 11.0625 18.050781 C 10.949219 18.117188 10.875 18.234375 10.875 18.375 L 10.875 20.273438 L 5.613281 20.953125 C 5.40625 20.980469 5.25 21.15625 5.25 21.363281 L 5.25 22.125 C 5.25 22.332031 5.417969 22.5 5.625 22.5 L 18.375 22.5 C 18.425781 22.5 18.476562 22.488281 18.523438 22.46875 C 20.769531 22.210938 22.5 20.316406 22.5 18 C 22.5 15.507812 20.492188 13.5 18 13.5 C 17.742188 13.5 17.492188 13.523438 17.246094 13.5625 C 17.246094 13.542969 17.25 13.519531 17.25 13.5 L 17.25 4.5 C 17.25 2.839844 15.910156 1.5 14.25 1.5 Z M 12.9375 16.5 L 13.753906 16.5 C 13.589844 16.96875 13.5 17.472656 13.5 18 C 13.5 18.890625 13.753906 19.714844 14.195312 20.414062 L 13.125 20.273438 L 13.125 18.375 C 13.125 18.234375 13.050781 18.117188 12.9375 18.050781 Z M 12.9375 16.5 "/>
</g>
</svg>
