
<svg xmlns="http://www.w3.org/2000/svg" xmlns:xlink="http://www.w3.org/1999/xlink" width="24" height="24" viewBox="0 0 24 24" version="1.1">
<defs>
<linearGradient id="linear0" gradientUnits="userSpaceOnUse" x1="31.999998" y1="57.999996" x2="31.999998" y2="8" gradientTransform="matrix(0.375,0,0,0.375,-0.000000255118,0.000000000000042633)">
<stop offset="0" style="stop-color:rgb(0%,0%,0%);stop-opacity:0.2;"/>
<stop offset="1" style="stop-color:rgb(100%,100%,100%);stop-opacity:0;"/>
</linearGradient>
</defs>
<g id="surface1">
<path style=" stroke:none;fill-rule:nonzero;fill:rgb(36.078432%,41.960785%,75.294119%);fill-opacity:1;" d="M 3 3 L 21 3 C 21.828125 3 22.5 3.671875 22.5 4.5 L 22.5 19.5 C 22.5 20.328125 21.828125 21 21 21 L 3 21 C 2.171875 21 1.5 20.328125 1.5 19.5 L 1.5 4.5 C 1.5 3.671875 2.171875 3 3 3 Z M 3 3 "/>
<path style=" stroke:none;fill-rule:nonzero;fill:rgb(25.882354%,64.705884%,96.078432%);fill-opacity:1;" d="M 1.695312 3.757812 L 12 12 L 2.027344 20.644531 C 1.703125 20.367188 1.5 19.960938 1.5 19.5 L 1.5 4.5 C 1.5 4.230469 1.570312 3.976562 1.695312 3.757812 Z M 1.695312 3.757812 "/>
<path style=" stroke:none;fill-rule:nonzero;fill:rgb(47.058824%,56.470591%,61.176473%);fill-opacity:1;" d="M 12 12 L 1.972656 20.59375 C 2.242188 20.84375 2.601562 21 3 21 L 21 21 C 21.398438 21 21.757812 20.84375 22.027344 20.59375 Z M 12 12 "/>
<path style=" stroke:none;fill-rule:nonzero;fill:rgb(92.54902%,25.098041%,47.843137%);fill-opacity:1;" d="M 22.304688 3.757812 L 12 12 L 21.972656 20.644531 C 22.296875 20.367188 22.5 19.960938 22.5 19.5 L 22.5 4.5 C 22.5 4.230469 22.429688 3.976562 22.304688 3.757812 Z M 22.304688 3.757812 "/>
<path style=" stroke:none;fill-rule:nonzero;fill:rgb(0.392157%,0.392157%,0.392157%);fill-opacity:0.4;" d="M 1.5 19.125 L 1.5 19.5 C 1.5 20.332031 2.167969 21 3 21 L 21 21 C 21.832031 21 22.5 20.332031 22.5 19.5 L 22.5 19.125 C 22.5 19.957031 21.832031 20.625 21 20.625 L 3 20.625 C 2.167969 20.625 1.5 19.957031 1.5 19.125 Z M 1.5 19.125 "/>
<path style=" stroke:none;fill-rule:nonzero;fill:rgb(87.843138%,87.843138%,87.843138%);fill-opacity:1;" d="M 3.75 18 L 20.25 18 C 20.664062 18 21 18.335938 21 18.75 L 21 21 C 21 21.414062 20.664062 21.75 20.25 21.75 L 3.75 21.75 C 3.335938 21.75 3 21.414062 3 21 L 3 18.75 C 3 18.335938 3.335938 18 3.75 18 Z M 3.75 18 "/>
<path style=" stroke:none;fill-rule:nonzero;fill:rgb(87.843138%,87.843138%,87.843138%);fill-opacity:1;" d="M 3 3 C 2.167969 3 1.5 3.667969 1.5 4.5 L 22.5 4.5 C 22.5 3.667969 21.832031 3 21 3 Z M 3 3 "/>
<path style=" stroke:none;fill-rule:nonzero;fill:rgb(0%,0%,0%);fill-opacity:0.4;" d="M 1.5 4.5 L 1.5 4.875 L 22.5 4.875 L 22.5 4.5 Z M 3 20.625 L 3 21 C 3 21.414062 3.335938 21.75 3.75 21.75 L 20.25 21.75 C 20.664062 21.75 21 21.414062 21 21 L 21 20.625 C 21 21.039062 20.664062 21.375 20.25 21.375 L 3.75 21.375 C 3.335938 21.375 3 21.039062 3 20.625 Z M 3 20.625 "/>
<path style=" stroke:none;fill-rule:nonzero;fill:rgb(100%,100%,100%);fill-opacity:0.8;" d="M 3 3 C 2.167969 3 1.5 3.667969 1.5 4.5 L 1.546875 4.5 C 1.707031 3.847656 2.296875 3.363281 3 3.363281 L 21 3.363281 C 21.703125 3.363281 22.292969 3.847656 22.453125 4.5 L 22.5 4.5 C 22.5 3.667969 21.832031 3 21 3 Z M 3.75 18 C 3.335938 18 3 18.335938 3 18.75 L 3 19.113281 C 3 18.699219 3.335938 18.363281 3.75 18.363281 L 20.25 18.363281 C 20.664062 18.363281 21 18.699219 21 19.113281 L 21 18.75 C 21 18.335938 20.664062 18 20.25 18 Z M 3.75 18 "/>
<path style=" stroke:none;fill-rule:nonzero;fill:rgb(0%,0%,0%);fill-opacity:0.2;" d="M 1.5 19.5 L 1.5 20.0625 C 1.5 20.894531 2.167969 21.5625 3 21.5625 C 3 21.980469 3.335938 22.3125 3.75 22.3125 L 20.25 22.3125 C 20.664062 22.3125 21 21.980469 21 21.5625 C 21.832031 21.5625 22.5 20.894531 22.5 20.0625 L 22.5 19.5 C 22.5 20.332031 21.832031 21 21 21 C 21 21.414062 20.664062 21.75 20.25 21.75 L 3.75 21.75 C 3.335938 21.75 3 21.414062 3 21 C 2.167969 21 1.5 20.332031 1.5 19.5 Z M 1.5 19.5 "/>
<path style=" stroke:none;fill-rule:nonzero;fill:rgb(93.333334%,93.333334%,93.333334%);fill-opacity:0.996078;" d="M 13.5 5.25 L 20.25 5.25 C 20.664062 5.25 21 5.585938 21 6 L 21 9.75 C 21 10.164062 20.664062 10.5 20.25 10.5 L 13.5 10.5 C 13.085938 10.5 12.75 10.164062 12.75 9.75 L 12.75 6 C 12.75 5.585938 13.085938 5.25 13.5 5.25 Z M 13.5 5.25 "/>
<path style=" stroke:none;fill-rule:nonzero;fill:rgb(100%,100%,100%);fill-opacity:0.8;" d="M 13.5 5.25 C 13.085938 5.25 12.75 5.585938 12.75 6 L 12.75 6.375 C 12.75 5.960938 13.085938 5.625 13.5 5.625 L 20.25 5.625 C 20.664062 5.625 21 5.960938 21 6.375 L 21 6 C 21 5.585938 20.664062 5.25 20.25 5.25 Z M 13.5 5.25 "/>
<path style=" stroke:none;fill-rule:nonzero;fill:rgb(0%,0%,0%);fill-opacity:0.4;" d="M 13.5 10.875 C 13.085938 10.875 12.75 10.539062 12.75 10.125 L 12.75 9.75 C 12.75 10.164062 13.085938 10.5 13.5 10.5 L 20.25 10.5 C 20.664062 10.5 21 10.164062 21 9.75 L 21 10.125 C 21 10.539062 20.664062 10.875 20.25 10.875 Z M 13.5 10.875 "/>
<path style=" stroke:none;fill-rule:nonzero;fill:url(#linear0);" d="M 3 3 C 2.167969 3 1.5 3.667969 1.5 4.5 L 1.5 19.5 C 1.5 20.332031 2.167969 21 3 21 C 3 21.414062 3.335938 21.75 3.75 21.75 L 20.25 21.75 C 20.664062 21.75 21 21.414062 21 21 C 21.832031 21 22.5 20.332031 22.5 19.5 L 22.5 4.5 C 22.5 3.667969 21.832031 3 21 3 Z M 3 3 "/>
</g>
</svg>
