
<svg xmlns="http://www.w3.org/2000/svg" xmlns:xlink="http://www.w3.org/1999/xlink" width="16" height="16" viewBox="0 0 16 16" version="1.1">
<defs>
<linearGradient id="linear0" gradientUnits="userSpaceOnUse" x1="15.999999" y1="24" x2="48" y2="24" gradientTransform="matrix(0.25,0,0,0.25,0.0659189,-0.00000360444)">
<stop offset="0" style="stop-color:rgb(100%,100%,100%);stop-opacity:0;"/>
<stop offset="1" style="stop-color:rgb(0%,0%,0%);stop-opacity:0.2;"/>
</linearGradient>
<linearGradient id="linear1" gradientUnits="userSpaceOnUse" x1="32" y1="59.999996" x2="31.999998" y2="3.999999" gradientTransform="matrix(0.25,0,0,0.25,-0.00878762,-0.00000360444)">
<stop offset="0" style="stop-color:rgb(0%,0%,0%);stop-opacity:0.2;"/>
<stop offset="1" style="stop-color:rgb(100%,100%,100%);stop-opacity:0;"/>
</linearGradient>
<linearGradient id="linear2" gradientUnits="userSpaceOnUse" x1="12.165949" y1="-199.12706" x2="12.165949" y2="-207.06456" gradientTransform="matrix(0.944882,0,0,0.944882,0.00461463,203.151566)">
<stop offset="0" style="stop-color:rgb(0%,0%,0%);stop-opacity:0.2;"/>
<stop offset="1" style="stop-color:rgb(100%,100%,100%);stop-opacity:0;"/>
</linearGradient>
</defs>
<g id="surface1">
<path style=" stroke:none;fill-rule:nonzero;fill:rgb(25.882354%,64.705884%,96.078432%);fill-opacity:0.4;" d="M 8.359375 8.980469 C 8.304688 8.988281 8.25 8.992188 8.195312 8.992188 C 8.25 8.992188 8.304688 8.988281 8.359375 8.980469 Z M 7.625 8.980469 C 7.683594 8.988281 7.746094 8.992188 7.804688 8.996094 C 7.746094 8.992188 7.683594 8.988281 7.625 8.980469 Z M 7.804688 8.996094 C 7.867188 9 7.925781 9 7.988281 9 C 7.925781 9 7.867188 9 7.804688 8.996094 Z M 7.988281 9 C 8.046875 9 8.105469 9 8.167969 8.996094 C 8.105469 9 8.046875 9 7.988281 9 Z M 7.640625 9.507812 C 7.644531 11.199219 7.171875 12.617188 7.433594 13.761719 C 7.617188 13.753906 7.804688 13.75 7.996094 13.75 C 8.191406 13.75 8.378906 13.753906 8.5625 13.761719 C 8.824219 12.617188 8.351562 11.199219 8.355469 9.507812 C 8.25 9.542969 8.125 9.566406 7.996094 9.566406 C 7.867188 9.566406 7.746094 9.542969 7.640625 9.507812 Z M 7.640625 9.507812 "/>
<path style=" stroke:none;fill-rule:nonzero;fill:rgb(56.470591%,79.215688%,97.647059%);fill-opacity:0.4;" d="M 7.996094 13.75 C 6.058594 13.75 4.496094 14.195312 4.496094 14.75 C 4.496094 14.886719 4.609375 15 4.746094 15 L 11.246094 15 C 11.386719 15 11.496094 14.886719 11.496094 14.75 C 11.496094 14.195312 9.9375 13.75 7.996094 13.75 Z M 7.996094 13.75 "/>
<path style=" stroke:none;fill-rule:nonzero;fill:rgb(56.470591%,79.215688%,97.647059%);fill-opacity:0.4;" d="M 8.722656 8.925781 C 8.484375 8.976562 8.238281 9 7.988281 9 C 7.742188 9 7.503906 8.976562 7.269531 8.929688 C 7.253906 8.96875 7.246094 9.007812 7.246094 9.046875 L 7.246094 9.082031 C 7.246094 9.351562 7.582031 9.566406 7.996094 9.566406 C 8.414062 9.566406 8.746094 9.351562 8.746094 9.082031 L 8.746094 9.046875 C 8.746094 9.003906 8.738281 8.964844 8.722656 8.925781 Z M 8.722656 8.925781 "/>
<path style=" stroke:none;fill-rule:nonzero;fill:rgb(89.019608%,94.901961%,99.215686%);fill-opacity:0.4;" d="M 7.699219 9.523438 C 7.871094 11.261719 7.28125 12.667969 7.621094 13.75 L 8.371094 13.75 C 8.714844 12.667969 8.125 11.261719 8.296875 9.523438 C 8.207031 9.550781 8.105469 9.566406 7.996094 9.566406 C 7.890625 9.566406 7.789062 9.550781 7.699219 9.523438 Z M 7.699219 9.523438 "/>
<path style=" stroke:none;fill-rule:nonzero;fill:rgb(100%,100%,100%);fill-opacity:0.8;" d="M 7.699219 9.523438 C 7.835938 11.226562 7.289062 12.695312 7.621094 13.75 C 8.183594 13.75 7.769531 11.558594 7.925781 9.5625 C 7.847656 9.558594 7.769531 9.546875 7.699219 9.523438 Z M 7.699219 9.523438 "/>
<path style=" stroke:none;fill-rule:nonzero;fill:rgb(89.019608%,94.901961%,99.215686%);fill-opacity:0.4;" d="M 7.378906 9.011719 C 7.375 9.023438 7.371094 9.039062 7.371094 9.050781 L 7.371094 9.078125 C 7.371094 9.277344 7.652344 9.441406 7.996094 9.441406 C 8.34375 9.441406 8.621094 9.277344 8.621094 9.078125 L 8.621094 9.050781 C 8.621094 9.039062 8.621094 9.023438 8.617188 9.011719 C 8.414062 9.054688 8.207031 9.082031 7.996094 9.082031 C 7.785156 9.082031 7.578125 9.054688 7.375 9.011719 Z M 7.378906 9.011719 "/>
<path style=" stroke:none;fill-rule:nonzero;fill:rgb(0%,0%,0%);fill-opacity:0.4;" d="M 7.621094 9.5 C 7.625 9.542969 7.628906 9.585938 7.628906 9.628906 C 7.738281 9.667969 7.863281 9.691406 7.996094 9.691406 C 8.132812 9.691406 8.257812 9.667969 8.367188 9.628906 C 8.367188 9.585938 8.371094 9.542969 8.375 9.5 C 8.261719 9.542969 8.136719 9.566406 7.996094 9.566406 C 7.859375 9.566406 7.734375 9.539062 7.621094 9.5 Z M 7.621094 9.5 "/>
<path style=" stroke:none;fill-rule:nonzero;fill:rgb(100%,100%,100%);fill-opacity:0.4;" d="M 7.996094 13.75 C 6.058594 13.75 4.496094 14.195312 4.496094 14.75 C 4.496094 14.769531 4.5 14.789062 4.503906 14.808594 C 4.621094 14.285156 6.136719 13.875 7.996094 13.875 C 9.859375 13.875 11.375 14.285156 11.492188 14.808594 C 11.496094 14.789062 11.496094 14.769531 11.496094 14.75 C 11.496094 14.195312 9.9375 13.75 7.996094 13.75 Z M 7.996094 13.75 "/>
<path style=" stroke:none;fill-rule:nonzero;fill:rgb(0%,0%,0%);fill-opacity:0.4;" d="M 4.527344 14.617188 C 4.507812 14.660156 4.496094 14.707031 4.496094 14.75 C 4.496094 14.886719 4.609375 15 4.746094 15 L 11.246094 15 C 11.386719 15 11.496094 14.886719 11.496094 14.75 C 11.496094 14.707031 11.488281 14.660156 11.46875 14.617188 C 11.425781 14.695312 11.34375 14.75 11.246094 14.75 L 4.746094 14.75 C 4.652344 14.75 4.570312 14.695312 4.527344 14.617188 Z M 4.527344 14.617188 "/>
<path style=" stroke:none;fill-rule:nonzero;fill:rgb(56.470591%,79.215688%,97.647059%);fill-opacity:0.4;" d="M 3.976562 1 C 3.664062 1.75 3.488281 2.597656 3.488281 3.5 C 3.488281 6.546875 5.496094 9 7.988281 9 C 10.480469 9 12.488281 6.546875 12.488281 3.5 C 12.488281 2.597656 12.3125 1.75 12 1 Z M 3.976562 1 "/>
<path style=" stroke:none;fill-rule:nonzero;fill:rgb(92.54902%,25.098041%,47.843137%);fill-opacity:0.8;" d="M 3.988281 3.5 C 3.988281 6.328125 5.824219 8.5 7.988281 8.5 C 10.152344 8.5 11.988281 6.328125 11.988281 3.5 Z M 3.988281 3.5 "/>
<path style=" stroke:none;fill-rule:nonzero;fill:url(#linear0);" d="M 4.066406 3.5 C 4.066406 6.328125 5.902344 8.5 8.066406 8.5 C 10.230469 8.5 12.066406 6.328125 12.066406 3.5 Z M 4.066406 3.5 "/>
<path style=" stroke:none;fill-rule:nonzero;fill:rgb(100%,100%,100%);fill-opacity:0.2;" d="M 4.519531 3.5 L 4.519531 3.667969 C 4.519531 5.816406 5.746094 7.53125 7.3125 7.917969 C 6.210938 6.917969 5.5 5.3125 5.5 3.5 Z M 4.519531 3.5 "/>
<path style=" stroke:none;fill-rule:nonzero;fill:rgb(100%,100%,100%);fill-opacity:0.2;" d="M 4.980469 1.5 C 4.6875 2.074219 4.519531 2.738281 4.519531 3.449219 L 4.519531 3.5 L 5.5 3.5 C 5.5 2.792969 5.609375 2.121094 5.804688 1.5 Z M 4.980469 1.5 "/>
<path style=" stroke:none;fill-rule:nonzero;fill:rgb(100%,100%,100%);fill-opacity:0.6;" d="M 4.589844 3.5 C 4.613281 4.5 4.988281 6 5.738281 6.5 C 5.363281 5.875 5.113281 4.464844 5.113281 3.5 Z M 4.589844 3.5 "/>
<path style=" stroke:none;fill-rule:nonzero;fill:rgb(100%,100%,100%);fill-opacity:0.6;" d="M 4.835938 2.433594 C 4.679688 2.738281 4.589844 3.09375 4.589844 3.472656 L 4.589844 3.5 L 5.113281 3.5 C 5.113281 3.125 5.171875 2.765625 5.273438 2.433594 Z M 4.835938 2.433594 "/>
<path style=" stroke:none;fill-rule:nonzero;fill:rgb(0%,0%,0%);fill-opacity:0.4;" d="M 3.488281 3.460938 C 3.488281 3.472656 3.488281 3.488281 3.488281 3.5 C 3.488281 6.546875 5.496094 9 7.988281 9 C 10.480469 9 12.488281 6.546875 12.488281 3.5 C 12.488281 3.488281 12.488281 3.472656 12.488281 3.460938 C 12.449219 6.464844 10.457031 8.871094 7.988281 8.871094 C 5.519531 8.871094 3.527344 6.464844 3.488281 3.460938 Z M 3.488281 3.460938 "/>
<path style=" stroke:none;fill-rule:nonzero;fill:rgb(100%,100%,100%);fill-opacity:0.4;" d="M 4.089844 1 C 3.777344 1.75 3.601562 2.597656 3.601562 3.5 C 3.601562 3.542969 3.601562 3.589844 3.601562 3.632812 C 3.617188 2.773438 3.789062 1.964844 4.089844 1.25 L 12.113281 1.25 C 12.410156 1.964844 12.585938 2.773438 12.597656 3.632812 C 12.601562 3.589844 12.601562 3.542969 12.601562 3.5 C 12.601562 2.597656 12.425781 1.75 12.113281 1 Z M 4.089844 1 "/>
<path style=" stroke:none;fill-rule:nonzero;fill:rgb(0%,0%,0%);fill-opacity:0.4;" d="M 8.722656 8.925781 C 8.484375 8.972656 8.238281 9 7.988281 9 C 7.742188 9 7.503906 8.976562 7.269531 8.929688 C 7.253906 8.96875 7.246094 9.007812 7.246094 9.046875 L 7.246094 9.054688 C 7.488281 9.101562 7.734375 9.128906 7.988281 9.128906 C 8.246094 9.128906 8.5 9.101562 8.746094 9.050781 L 8.746094 9.046875 C 8.746094 9.003906 8.738281 8.964844 8.722656 8.925781 Z M 8.722656 8.925781 "/>
<path style=" stroke:none;fill-rule:nonzero;fill:rgb(0.392157%,0.392157%,0.392157%);fill-opacity:0.0509804;" d="M 11.191406 1 C 11.53125 1.660156 11.722656 2.429688 11.722656 3.25 L 11.722656 3.5 C 11.722656 6.039062 10.242188 8.050781 8.367188 8.433594 C 8.324219 8.457031 8.28125 8.480469 8.238281 8.5 C 10.394531 8.488281 12.222656 6.320312 12.222656 3.5 L 12.222656 3.25 C 12.222656 2.429688 12.03125 1.660156 11.691406 1 Z M 11.191406 1 "/>
<path style=" stroke:none;fill-rule:nonzero;fill:rgb(100%,100%,100%);fill-opacity:0.8;" d="M 5.238281 14.5 C 5.488281 14.75 6.363281 14 7.488281 14.125 C 7.613281 13.75 4.863281 14.25 5.238281 14.5 Z M 5.238281 14.5 "/>
<path style=" stroke:none;fill-rule:nonzero;fill:url(#linear1);" d="M 3.980469 1 C 3.671875 1.738281 3.496094 2.574219 3.492188 3.460938 C 3.492188 3.472656 3.492188 3.488281 3.492188 3.5 C 3.492188 6.246094 5.125 8.511719 7.273438 8.929688 C 7.265625 8.949219 7.261719 8.96875 7.257812 8.984375 C 7.257812 8.988281 7.253906 8.992188 7.253906 8.992188 C 7.253906 9.007812 7.253906 9.019531 7.25 9.035156 C 7.25 9.039062 7.25 9.042969 7.25 9.046875 L 7.25 9.082031 C 7.25 9.261719 7.402344 9.417969 7.625 9.5 C 7.628906 9.542969 7.632812 9.585938 7.632812 9.628906 C 7.636719 9.628906 7.640625 9.628906 7.644531 9.632812 C 7.625 11.269531 7.179688 12.644531 7.4375 13.761719 C 5.851562 13.835938 4.628906 14.210938 4.511719 14.675781 C 4.507812 14.679688 4.507812 14.6875 4.507812 14.691406 C 4.507812 14.695312 4.503906 14.695312 4.503906 14.699219 C 4.503906 14.707031 4.503906 14.710938 4.503906 14.714844 C 4.503906 14.722656 4.5 14.726562 4.5 14.730469 C 4.5 14.738281 4.5 14.742188 4.5 14.75 C 4.5 14.757812 4.5 14.765625 4.503906 14.773438 C 4.503906 14.773438 4.503906 14.777344 4.503906 14.777344 C 4.503906 14.777344 4.503906 14.78125 4.503906 14.785156 C 4.503906 14.792969 4.507812 14.800781 4.507812 14.808594 C 4.535156 14.917969 4.632812 15 4.75 15 L 11.25 15 C 11.367188 15 11.46875 14.917969 11.492188 14.808594 C 11.496094 14.800781 11.496094 14.792969 11.5 14.78125 C 11.5 14.78125 11.5 14.777344 11.5 14.773438 C 11.5 14.765625 11.5 14.757812 11.5 14.75 C 11.5 14.742188 11.5 14.738281 11.5 14.730469 C 11.5 14.726562 11.5 14.71875 11.5 14.714844 C 11.5 14.710938 11.496094 14.703125 11.496094 14.699219 C 11.496094 14.695312 11.496094 14.695312 11.496094 14.691406 C 11.492188 14.683594 11.492188 14.679688 11.492188 14.671875 C 11.488281 14.667969 11.488281 14.667969 11.488281 14.667969 C 11.488281 14.660156 11.484375 14.652344 11.484375 14.644531 C 11.453125 14.5625 11.386719 14.480469 11.289062 14.402344 C 11.277344 14.398438 11.269531 14.390625 11.257812 14.382812 C 11.25 14.375 11.238281 14.367188 11.226562 14.359375 C 11.214844 14.351562 11.203125 14.34375 11.191406 14.335938 C 11.15625 14.316406 11.121094 14.292969 11.078125 14.269531 C 11.066406 14.265625 11.050781 14.257812 11.039062 14.25 C 10.742188 14.105469 10.324219 13.980469 9.816406 13.894531 C 9.441406 13.828125 9.019531 13.78125 8.566406 13.761719 C 8.820312 12.644531 8.378906 11.269531 8.355469 9.632812 C 8.359375 9.628906 8.363281 9.628906 8.367188 9.628906 C 8.371094 9.585938 8.375 9.542969 8.375 9.5 C 8.601562 9.417969 8.75 9.261719 8.75 9.082031 L 8.75 9.046875 C 8.75 9.039062 8.75 9.03125 8.75 9.023438 C 8.75 9.019531 8.75 9.019531 8.75 9.015625 C 8.75 9.003906 8.746094 8.996094 8.746094 8.984375 C 8.746094 8.980469 8.742188 8.976562 8.742188 8.972656 C 8.742188 8.96875 8.738281 8.964844 8.738281 8.960938 C 8.738281 8.957031 8.738281 8.957031 8.738281 8.957031 C 8.738281 8.953125 8.738281 8.949219 8.734375 8.949219 C 8.734375 8.941406 8.730469 8.933594 8.726562 8.925781 C 8.785156 8.914062 8.84375 8.902344 8.898438 8.886719 C 8.972656 8.871094 9.046875 8.847656 9.117188 8.828125 C 11.0625 8.21875 12.492188 6.070312 12.492188 3.5 C 12.492188 3.484375 12.492188 3.472656 12.488281 3.460938 C 12.488281 3.460938 12.488281 3.457031 12.488281 3.457031 C 12.484375 2.671875 12.347656 1.921875 12.101562 1.25 L 12.117188 1.25 C 12.414062 1.964844 12.589844 2.773438 12.601562 3.632812 C 12.601562 3.585938 12.605469 3.542969 12.605469 3.5 C 12.605469 2.597656 12.429688 1.75 12.117188 1 Z M 3.980469 1 "/>
<path style=" stroke:none;fill-rule:nonzero;fill:rgb(89.019608%,94.901961%,99.215686%);fill-opacity:0.4;" d="M 7.929688 13.972656 C 6.367188 13.972656 5.105469 14.257812 5.105469 14.617188 C 5.105469 14.707031 5.195312 14.777344 5.308594 14.777344 L 10.554688 14.777344 C 10.667969 14.777344 10.757812 14.707031 10.757812 14.617188 C 10.757812 14.257812 9.496094 13.972656 7.929688 13.972656 Z M 7.929688 13.972656 "/>
<path style=" stroke:none;fill-rule:nonzero;fill:rgb(0%,0%,0%);fill-opacity:0.2;" d="M 8.648438 13.050781 C 8.644531 13.296875 8.621094 13.53125 8.570312 13.757812 C 8.59375 13.757812 8.617188 13.757812 8.640625 13.761719 C 8.664062 13.535156 8.664062 13.296875 8.648438 13.050781 Z M 7.371094 13.261719 C 7.367188 13.433594 7.371094 13.597656 7.386719 13.761719 C 7.40625 13.761719 7.421875 13.757812 7.441406 13.757812 C 7.40625 13.597656 7.382812 13.433594 7.371094 13.261719 Z M 10.566406 14.378906 L 10.6875 14.996094 L 4.757812 14.996094 C 4.691406 14.996094 4.636719 14.96875 4.59375 14.933594 C 4.558594 14.976562 4.535156 15.023438 4.523438 15.070312 C 4.523438 15.074219 4.519531 15.078125 4.519531 15.085938 C 4.519531 15.085938 4.519531 15.089844 4.519531 15.09375 C 4.519531 15.097656 4.515625 15.105469 4.515625 15.109375 C 4.515625 15.113281 4.515625 15.121094 4.515625 15.125 C 4.515625 15.128906 4.515625 15.136719 4.515625 15.144531 C 4.515625 15.152344 4.515625 15.160156 4.515625 15.167969 C 4.515625 15.171875 4.515625 15.175781 4.515625 15.179688 C 4.519531 15.1875 4.519531 15.195312 4.523438 15.203125 C 4.546875 15.3125 4.648438 15.394531 4.765625 15.394531 L 11.265625 15.394531 C 11.277344 15.394531 11.292969 15.386719 11.308594 15.386719 C 11.371094 15.390625 11.4375 15.390625 11.503906 15.390625 C 11.761719 15.390625 12.015625 15.363281 12.257812 15.316406 L 12.445312 14.378906 Z M 10.566406 14.378906 "/>
<path style=" stroke:none;fill-rule:nonzero;fill:rgb(87.843138%,87.843138%,87.843138%);fill-opacity:1;" d="M 11.457031 7.632812 C 11.214844 7.636719 10.980469 7.664062 10.753906 7.710938 L 10.507812 8.9375 C 10.304688 9.019531 10.113281 9.132812 9.941406 9.261719 L 8.757812 8.863281 C 8.59375 9.046875 8.445312 9.25 8.316406 9.476562 C 8.1875 9.699219 8.082031 9.929688 8.003906 10.164062 L 8.945312 10.992188 C 8.933594 11.097656 8.925781 11.207031 8.925781 11.316406 C 8.925781 11.425781 8.933594 11.535156 8.945312 11.640625 L 8.003906 12.46875 C 8.082031 12.703125 8.1875 12.933594 8.316406 13.160156 C 8.445312 13.382812 8.59375 13.585938 8.757812 13.769531 L 9.941406 13.371094 C 10.113281 13.5 10.304688 13.613281 10.507812 13.695312 L 10.753906 14.921875 C 10.996094 14.972656 11.246094 15 11.503906 15 C 11.761719 15 12.015625 14.972656 12.257812 14.921875 L 12.5 13.695312 C 12.703125 13.613281 12.894531 13.5 13.066406 13.371094 L 14.253906 13.769531 C 14.417969 13.585938 14.566406 13.382812 14.695312 13.160156 C 14.824219 12.933594 14.925781 12.703125 15.003906 12.46875 L 14.0625 11.640625 C 14.074219 11.535156 14.082031 11.425781 14.082031 11.316406 C 14.082031 11.207031 14.078125 11.097656 14.0625 10.992188 L 15.003906 10.164062 C 14.925781 9.929688 14.824219 9.699219 14.695312 9.476562 C 14.566406 9.25 14.417969 9.046875 14.253906 8.863281 L 13.066406 9.261719 C 12.894531 9.132812 12.703125 9.019531 12.5 8.9375 L 12.257812 7.710938 C 12.015625 7.660156 11.761719 7.632812 11.503906 7.632812 C 11.488281 7.632812 11.472656 7.632812 11.457031 7.632812 Z M 11.503906 9.84375 C 12.320312 9.84375 12.976562 10.5 12.976562 11.316406 C 12.976562 12.132812 12.320312 12.789062 11.503906 12.789062 C 10.6875 12.789062 10.03125 12.132812 10.03125 11.316406 C 10.03125 10.5 10.6875 9.84375 11.503906 9.84375 Z M 11.503906 9.84375 "/>
<path style=" stroke:none;fill-rule:nonzero;fill:rgb(100%,100%,100%);fill-opacity:0.4;" d="M 11.457031 7.632812 C 11.214844 7.636719 10.980469 7.664062 10.753906 7.710938 L 10.507812 8.9375 C 10.304688 9.019531 10.113281 9.132812 9.941406 9.261719 L 8.757812 8.863281 C 8.589844 9.046875 8.445312 9.25 8.3125 9.476562 C 8.183594 9.699219 8.082031 9.929688 8.003906 10.164062 L 8.070312 10.222656 C 8.136719 10.050781 8.21875 9.882812 8.3125 9.71875 C 8.445312 9.492188 8.589844 9.289062 8.757812 9.105469 L 9.941406 9.503906 C 10.113281 9.375 10.304688 9.261719 10.507812 9.179688 L 10.753906 7.953125 C 10.980469 7.90625 11.214844 7.878906 11.457031 7.875 C 11.472656 7.875 11.488281 7.875 11.503906 7.875 C 11.761719 7.875 12.015625 7.902344 12.257812 7.953125 L 12.5 9.179688 C 12.707031 9.261719 12.894531 9.375 13.066406 9.503906 L 14.253906 9.105469 C 14.417969 9.289062 14.566406 9.492188 14.695312 9.71875 C 14.789062 9.882812 14.871094 10.050781 14.9375 10.222656 L 15.003906 10.164062 C 14.925781 9.929688 14.824219 9.699219 14.695312 9.476562 C 14.566406 9.25 14.417969 9.046875 14.253906 8.863281 L 13.066406 9.261719 C 12.894531 9.132812 12.707031 9.019531 12.5 8.9375 L 12.257812 7.710938 C 12.015625 7.660156 11.761719 7.632812 11.503906 7.632812 C 11.488281 7.632812 11.472656 7.632812 11.457031 7.632812 Z M 8.929688 11.21875 C 8.925781 11.25 8.925781 11.28125 8.925781 11.316406 C 8.925781 11.355469 8.925781 11.398438 8.929688 11.4375 C 8.933594 11.367188 8.9375 11.300781 8.945312 11.234375 Z M 14.082031 11.21875 L 14.0625 11.234375 C 14.070312 11.300781 14.078125 11.367188 14.078125 11.4375 C 14.082031 11.398438 14.082031 11.355469 14.082031 11.316406 C 14.082031 11.285156 14.082031 11.25 14.082031 11.21875 Z M 10.035156 11.4375 C 10.035156 11.476562 10.03125 11.519531 10.03125 11.558594 C 10.03125 12.375 10.6875 13.03125 11.503906 13.03125 C 12.320312 13.03125 12.976562 12.375 12.976562 11.558594 C 12.976562 11.519531 12.976562 11.476562 12.972656 11.4375 C 12.910156 12.195312 12.28125 12.789062 11.503906 12.789062 C 10.730469 12.789062 10.097656 12.195312 10.035156 11.4375 Z M 14.082031 11.65625 C 14.078125 11.734375 14.070312 11.808594 14.0625 11.882812 L 14.9375 12.652344 C 14.960938 12.59375 14.984375 12.53125 15.003906 12.46875 Z M 8.929688 11.65625 L 8.003906 12.46875 C 8.023438 12.53125 8.046875 12.589844 8.070312 12.652344 L 8.945312 11.882812 C 8.9375 11.808594 8.929688 11.734375 8.929688 11.65625 Z M 8.929688 11.65625 "/>
<path style=" stroke:none;fill-rule:nonzero;fill:rgb(0.784314%,0.784314%,0.784314%);fill-opacity:0.4;" d="M 11.457031 15 C 11.214844 14.996094 10.980469 14.972656 10.753906 14.925781 L 10.507812 13.695312 C 10.304688 13.613281 10.113281 13.503906 9.941406 13.371094 L 8.757812 13.773438 C 8.589844 13.585938 8.445312 13.382812 8.316406 13.160156 C 8.183594 12.933594 8.082031 12.703125 8.003906 12.46875 L 8.070312 12.410156 C 8.136719 12.582031 8.21875 12.75 8.316406 12.917969 C 8.445312 13.140625 8.589844 13.34375 8.757812 13.53125 L 9.941406 13.128906 C 10.113281 13.261719 10.304688 13.371094 10.507812 13.453125 L 10.753906 14.683594 C 10.980469 14.730469 11.214844 14.753906 11.457031 14.757812 C 11.472656 14.757812 11.488281 14.757812 11.503906 14.757812 C 11.761719 14.757812 12.015625 14.730469 12.257812 14.683594 L 12.5 13.453125 C 12.707031 13.371094 12.894531 13.261719 13.066406 13.128906 L 14.253906 13.53125 C 14.417969 13.34375 14.566406 13.140625 14.695312 12.917969 C 14.789062 12.75 14.871094 12.582031 14.9375 12.410156 L 15.003906 12.46875 C 14.925781 12.703125 14.824219 12.933594 14.695312 13.160156 C 14.566406 13.382812 14.417969 13.585938 14.253906 13.773438 L 13.066406 13.371094 C 12.894531 13.5 12.707031 13.613281 12.5 13.695312 L 12.257812 14.925781 C 12.015625 14.972656 11.761719 15 11.503906 15 C 11.488281 15 11.472656 15 11.457031 15 Z M 8.929688 11.414062 C 8.925781 11.382812 8.925781 11.351562 8.925781 11.316406 C 8.925781 11.277344 8.925781 11.234375 8.929688 11.195312 C 8.933594 11.265625 8.9375 11.332031 8.945312 11.398438 Z M 14.082031 11.414062 L 14.0625 11.398438 C 14.070312 11.332031 14.078125 11.265625 14.082031 11.195312 C 14.082031 11.234375 14.082031 11.277344 14.082031 11.316406 C 14.082031 11.351562 14.082031 11.382812 14.082031 11.414062 Z M 10.035156 11.195312 C 10.035156 11.15625 10.03125 11.117188 10.03125 11.074219 C 10.03125 10.257812 10.6875 9.601562 11.503906 9.601562 C 12.320312 9.601562 12.976562 10.257812 12.976562 11.074219 C 12.976562 11.117188 12.976562 11.15625 12.972656 11.195312 C 12.910156 10.4375 12.28125 9.84375 11.503906 9.84375 C 10.730469 9.84375 10.097656 10.4375 10.035156 11.195312 Z M 14.082031 10.976562 C 14.078125 10.898438 14.074219 10.824219 14.0625 10.75 L 14.9375 9.980469 C 14.960938 10.042969 14.984375 10.101562 15.003906 10.164062 Z M 8.929688 10.976562 L 8.003906 10.164062 C 8.023438 10.101562 8.046875 10.042969 8.070312 9.980469 L 8.945312 10.75 C 8.9375 10.824219 8.929688 10.898438 8.929688 10.976562 Z M 8.929688 10.976562 "/>
<path style=" stroke:none;fill-rule:nonzero;fill:url(#linear2);" d="M 11.457031 7.632812 C 11.214844 7.636719 10.980469 7.664062 10.753906 7.710938 L 10.507812 8.9375 C 10.304688 9.019531 10.113281 9.132812 9.941406 9.261719 L 8.757812 8.863281 C 8.59375 9.046875 8.445312 9.25 8.316406 9.476562 C 8.1875 9.699219 8.082031 9.929688 8.003906 10.164062 L 8.945312 10.992188 C 8.933594 11.097656 8.925781 11.207031 8.925781 11.316406 C 8.925781 11.425781 8.933594 11.535156 8.945312 11.640625 L 8.003906 12.46875 C 8.082031 12.703125 8.1875 12.933594 8.316406 13.160156 C 8.445312 13.382812 8.59375 13.585938 8.757812 13.769531 L 9.941406 13.371094 C 10.113281 13.5 10.304688 13.613281 10.507812 13.695312 L 10.753906 14.921875 C 10.996094 14.972656 11.246094 15 11.503906 15 C 11.761719 15 12.015625 14.972656 12.257812 14.921875 L 12.5 13.695312 C 12.703125 13.613281 12.894531 13.5 13.066406 13.371094 L 14.253906 13.769531 C 14.417969 13.585938 14.566406 13.382812 14.695312 13.160156 C 14.824219 12.933594 14.925781 12.703125 15.003906 12.46875 L 14.0625 11.640625 C 14.074219 11.535156 14.082031 11.425781 14.082031 11.316406 C 14.082031 11.207031 14.078125 11.097656 14.0625 10.992188 L 15.003906 10.164062 C 14.925781 9.929688 14.824219 9.699219 14.695312 9.476562 C 14.566406 9.25 14.417969 9.046875 14.253906 8.863281 L 13.066406 9.261719 C 12.894531 9.132812 12.703125 9.019531 12.5 8.9375 L 12.257812 7.710938 C 12.015625 7.660156 11.761719 7.632812 11.503906 7.632812 C 11.488281 7.632812 11.472656 7.632812 11.457031 7.632812 Z M 11.503906 9.84375 C 12.320312 9.84375 12.976562 10.5 12.976562 11.316406 C 12.976562 12.132812 12.320312 12.789062 11.503906 12.789062 C 10.6875 12.789062 10.03125 12.132812 10.03125 11.316406 C 10.03125 10.5 10.6875 9.84375 11.503906 9.84375 Z M 11.503906 9.84375 "/>
</g>
</svg>
