
<svg xmlns="http://www.w3.org/2000/svg" xmlns:xlink="http://www.w3.org/1999/xlink" width="32" height="32" viewBox="0 0 32 32" version="1.1">
<defs>
<linearGradient id="linear0" gradientUnits="userSpaceOnUse" x1="31.999998" y1="60" x2="31.999998" y2="4" gradientTransform="matrix(0.5,0,0,0.5,0,0)">
<stop offset="0" style="stop-color:rgb(0%,0%,0%);stop-opacity:0.2;"/>
<stop offset="1" style="stop-color:rgb(100%,100%,100%);stop-opacity:0;"/>
</linearGradient>
</defs>
<g id="surface1">
<path style=" stroke:none;fill-rule:nonzero;fill:rgb(100%,43.921569%,26.274511%);fill-opacity:1;" d="M 20 2 L 6.5 2 C 5.667969 2 5 2.667969 5 3.5 L 5 28.5 C 5 29.332031 5.667969 30 6.5 30 L 25.5 30 C 26.332031 30 27 29.332031 27 28.5 L 27 9 Z M 20 2 "/>
<path style=" stroke:none;fill-rule:nonzero;fill:rgb(0%,0%,0%);fill-opacity:0.4;" d="M 20 7.5 L 20 8 C 20 8.832031 20.667969 9.5 21.5 9.5 L 27 9.5 L 26.5 9 L 21.5 9 C 20.667969 9 20 8.332031 20 7.5 Z M 20 7.5 "/>
<path style=" stroke:none;fill-rule:nonzero;fill:rgb(100%,54.11765%,39.607844%);fill-opacity:0.996078;" d="M 27 9 L 20 2 L 20 7.5 C 20 8.332031 20.667969 9 21.5 9 Z M 27 9 "/>
<path style=" stroke:none;fill-rule:nonzero;fill:rgb(100%,100%,100%);fill-opacity:0.4;" d="M 6.5 2 C 5.667969 2 5 2.667969 5 3.5 L 5 4 C 5 3.167969 5.667969 2.5 6.5 2.5 L 20 2.5 L 27 9.5 L 27 9 L 20 2 Z M 6.5 2 "/>
<path style=" stroke:none;fill-rule:nonzero;fill:rgb(0%,0%,0%);fill-opacity:0.2;" d="M 5 28.492188 L 5 29.25 C 5 30.082031 5.667969 30.75 6.5 30.75 L 25.5 30.75 C 26.332031 30.75 27 30.082031 27 29.25 L 27 28.492188 C 27 29.324219 26.332031 29.992188 25.5 29.992188 L 6.5 29.992188 C 5.667969 29.992188 5 29.324219 5 28.492188 Z M 5 28.492188 "/>
<path style=" stroke:none;fill-rule:nonzero;fill:rgb(0%,0%,0%);fill-opacity:0.4;" d="M 5 28.0625 L 5 28.5 C 5 29.332031 5.667969 30 6.5 30 L 25.5 30 C 26.332031 30 27 29.332031 27 28.5 L 27 28.0625 C 27 28.894531 26.332031 29.5625 25.5 29.5625 L 6.5 29.5625 C 5.667969 29.5625 5 28.894531 5 28.0625 Z M 5 28.0625 "/>
<path style=" stroke:none;fill-rule:nonzero;fill:rgb(100%,67.058825%,56.862748%);fill-opacity:1;" d="M 15.707031 11.988281 C 15.589844 11.996094 15.472656 12.042969 15.378906 12.136719 C 15.183594 12.332031 15.183594 12.648438 15.378906 12.84375 L 17.535156 15 C 17.523438 15 17.511719 15 17.5 15 L 12 15 C 11.722656 15 11.5 15.222656 11.5 15.5 C 11.5 15.777344 11.722656 16 12 16 L 15.046875 16 C 15.003906 16.042969 14.960938 16.085938 14.917969 16.132812 L 11.136719 19.914062 C 10.941406 20.109375 10.941406 20.425781 11.136719 20.621094 C 11.332031 20.816406 11.648438 20.816406 11.84375 20.621094 L 14 18.464844 C 14 18.476562 14 18.488281 14 18.5 C 14 20.4375 15.5625 22 17.5 22 C 19.4375 22 21 20.4375 21 18.5 C 21 17.476562 20.5625 16.558594 19.867188 15.917969 L 16.085938 12.136719 C 15.980469 12.03125 15.84375 11.984375 15.707031 11.988281 Z M 17.5 16 C 18.886719 16 20 17.113281 20 18.5 C 20 19.886719 18.886719 21 17.5 21 C 16.113281 21 15 19.886719 15 18.5 C 15 17.113281 16.113281 16 17.5 16 Z M 17.5 17 C 16.667969 17 16 17.667969 16 18.5 C 16 19.332031 16.667969 20 17.5 20 C 18.332031 20 19 19.332031 19 18.5 C 19 17.667969 18.332031 17 17.5 17 Z M 17.5 17 "/>
<path style=" stroke:none;fill-rule:nonzero;fill:rgb(100%,100%,100%);fill-opacity:0.4;" d="M 15.707031 11.988281 C 15.589844 11.996094 15.472656 12.042969 15.378906 12.136719 C 15.25 12.265625 15.207031 12.449219 15.25 12.617188 C 15.273438 12.535156 15.316406 12.460938 15.378906 12.398438 C 15.472656 12.304688 15.589844 12.253906 15.707031 12.25 C 15.84375 12.242188 15.980469 12.292969 16.085938 12.398438 L 19.867188 16.179688 C 20.53125 16.789062 20.957031 17.648438 20.996094 18.613281 C 21 18.578125 21 18.539062 21 18.5 C 21 17.476562 20.5625 16.558594 19.867188 15.917969 L 16.085938 12.136719 C 15.980469 12.03125 15.84375 11.984375 15.707031 11.988281 Z M 12 15 C 11.722656 15 11.5 15.222656 11.5 15.5 C 11.5 15.542969 11.507812 15.585938 11.519531 15.628906 C 11.578125 15.414062 11.769531 15.261719 12 15.261719 L 17.5 15.261719 C 17.511719 15.261719 17.523438 15.261719 17.535156 15.261719 L 17.273438 15 Z M 14.789062 16.261719 L 11.136719 19.914062 C 11.003906 20.042969 10.964844 20.226562 11.007812 20.394531 C 11.03125 20.3125 11.070312 20.238281 11.136719 20.175781 L 14.917969 16.390625 C 14.960938 16.347656 15.003906 16.304688 15.046875 16.261719 Z M 17.5 17 C 16.667969 17 16 17.667969 16 18.5 C 16 18.542969 16.003906 18.585938 16.007812 18.625 C 16.074219 17.859375 16.714844 17.261719 17.5 17.261719 C 18.285156 17.261719 18.925781 17.859375 18.992188 18.625 C 18.996094 18.585938 19 18.542969 19 18.5 C 19 17.667969 18.332031 17 17.5 17 Z M 15.003906 18.601562 C 15 18.65625 15 18.707031 15 18.761719 C 15 20.144531 16.113281 21.261719 17.5 21.261719 C 18.886719 21.261719 20 20.144531 20 18.761719 C 20 18.707031 20 18.65625 19.996094 18.601562 C 19.941406 19.941406 18.851562 21 17.5 21 C 16.148438 21 15.058594 19.941406 15.003906 18.601562 Z M 15.003906 18.601562 "/>
<path style=" stroke:none;fill-rule:nonzero;fill:rgb(0%,0%,0%);fill-opacity:0.4;" d="M 15.25 12.613281 C 15.207031 12.78125 15.25 12.960938 15.378906 13.09375 L 17.285156 15 L 17.5 15 C 17.511719 15 17.523438 15 17.535156 15 L 15.378906 12.84375 C 15.3125 12.777344 15.269531 12.699219 15.25 12.613281 Z M 11.515625 15.625 C 11.503906 15.664062 11.5 15.707031 11.5 15.75 C 11.5 16.027344 11.722656 16.25 12 16.25 L 14.800781 16.25 L 14.917969 16.132812 C 14.960938 16.085938 15.003906 16.042969 15.046875 16 L 12 16 C 11.765625 16 11.570312 15.839844 11.515625 15.625 Z M 17.5 16 C 16.113281 16 15 17.113281 15 18.5 C 15 18.539062 15 18.582031 15.003906 18.621094 C 15.070312 17.296875 16.160156 16.25 17.5 16.25 C 18.839844 16.25 19.929688 17.296875 19.996094 18.621094 C 20 18.582031 20 18.539062 20 18.5 C 20 17.113281 18.886719 16 17.5 16 Z M 14 18.464844 L 11.84375 20.621094 C 11.648438 20.816406 11.332031 20.816406 11.136719 20.621094 C 11.070312 20.554688 11.027344 20.476562 11.007812 20.390625 C 10.964844 20.558594 11.003906 20.742188 11.136719 20.871094 C 11.332031 21.066406 11.648438 21.066406 11.84375 20.871094 L 14 18.714844 C 14 18.726562 14 18.738281 14 18.75 C 14 20.6875 15.5625 22.25 17.5 22.25 C 19.4375 22.25 21 20.6875 21 18.75 C 21 18.707031 21 18.664062 21 18.621094 C 20.933594 20.503906 19.398438 22 17.5 22 C 15.5625 22 14 20.4375 14 18.5 C 14 18.488281 14 18.476562 14 18.464844 Z M 16.007812 18.625 C 16.003906 18.667969 16 18.707031 16 18.75 C 16 19.582031 16.667969 20.25 17.5 20.25 C 18.332031 20.25 19 19.582031 19 18.75 C 19 18.707031 18.996094 18.667969 18.992188 18.625 C 18.929688 19.398438 18.289062 20 17.5 20 C 16.710938 20 16.070312 19.398438 16.007812 18.625 Z M 16.007812 18.625 "/>
<path style=" stroke:none;fill-rule:nonzero;fill:url(#linear0);" d="M 20 2 L 6.5 2 C 5.667969 2 5 2.667969 5 3.5 L 5 28.5 C 5 29.332031 5.667969 30 6.5 30 L 25.5 30 C 26.332031 30 27 29.332031 27 28.5 L 27 9 Z M 20 2 "/>
</g>
</svg>
