
<svg xmlns="http://www.w3.org/2000/svg" xmlns:xlink="http://www.w3.org/1999/xlink" width="24" height="24" viewBox="0 0 24 24" version="1.1">
<defs>
<linearGradient id="linear0" gradientUnits="userSpaceOnUse" x1="31.999998" y1="59.999996" x2="31.999998" y2="3.999999" gradientTransform="matrix(0.375,0,0,0.375,0,0.000000000000042633)">
<stop offset="0" style="stop-color:rgb(0%,0%,0%);stop-opacity:0.2;"/>
<stop offset="1" style="stop-color:rgb(100%,100%,100%);stop-opacity:0;"/>
</linearGradient>
</defs>
<g id="surface1">
<path style=" stroke:none;fill-rule:nonzero;fill:rgb(0%,0%,0%);fill-opacity:0.2;" d="M 1.503906 12.285156 C 1.503906 12.375 1.5 12.46875 1.5 12.5625 C 1.5 18.359375 6.203125 23.0625 12 23.0625 C 17.796875 23.0625 22.5 18.359375 22.5 12.5625 C 22.5 12.46875 22.496094 12.375 22.496094 12.285156 C 22.347656 17.953125 17.707031 22.503906 12 22.503906 C 6.292969 22.503906 1.652344 17.953125 1.503906 12.285156 Z M 1.503906 12.285156 "/>
<path style=" stroke:none;fill-rule:nonzero;fill:rgb(49.411765%,34.117648%,76.078433%);fill-opacity:1;" d="M 12 1.5 C 17.796875 1.5 22.5 6.203125 22.5 12 C 22.5 17.796875 17.796875 22.5 12 22.5 C 6.203125 22.5 1.5 17.796875 1.5 12 C 1.5 6.203125 6.203125 1.5 12 1.5 Z M 12 1.5 "/>
<path style=" stroke:none;fill-rule:evenodd;fill:rgb(93.333334%,93.333334%,93.333334%);fill-opacity:1;" d="M 10.699219 6.433594 C 9.308594 6.4375 7.914062 6.714844 6.628906 7.253906 C 7.667969 7.375 8.789062 7.375 9.734375 7.867188 C 9.15625 7.90625 7.78125 7.941406 7.121094 8.636719 C 5.457031 10.039062 4.746094 12.242188 4.410156 14.320312 C 4.363281 14.679688 4.222656 15.382812 4.601562 14.730469 C 5.183594 14.054688 5.703125 13.285156 6.441406 12.773438 C 7.160156 12.699219 6.046875 13.566406 6 13.976562 C 5.15625 15.578125 4.90625 17.40625 4.59375 19.167969 C 4.59375 19.253906 4.585938 19.34375 4.574219 19.4375 C 6.472656 21.328125 9.09375 22.5 12 22.5 C 14.609375 22.5 16.988281 21.554688 18.824219 19.992188 C 17.367188 19.246094 16.089844 18.085938 15.660156 16.476562 C 15.371094 15.484375 15.507812 14.25 16.417969 13.625 C 17.628906 12.679688 19.234375 12.75 20.6875 12.765625 C 21.121094 12.511719 20.402344 11.480469 20.074219 11.082031 C 19.402344 10.316406 18.449219 9.835938 17.457031 9.628906 C 16.351562 8.503906 15.117188 7.433594 13.597656 6.914062 C 12.714844 6.59375 11.773438 6.4375 10.832031 6.433594 C 10.789062 6.433594 10.746094 6.433594 10.699219 6.433594 Z M 10.699219 6.433594 "/>
<path style=" stroke:none;fill-rule:evenodd;fill:rgb(38.039216%,38.039216%,38.039216%);fill-opacity:1;" d="M 14.46875 8.785156 C 14.089844 8.796875 13.804688 8.898438 13.804688 8.898438 L 13.734375 8.921875 L 13.75 8.992188 C 13.75 8.992188 13.824219 9.402344 14.15625 9.785156 C 14.484375 10.164062 15.082031 10.519531 16.078125 10.429688 L 16.164062 10.421875 L 16.152344 10.335938 C 16.085938 9.804688 15.910156 9.445312 15.671875 9.203125 C 15.433594 8.964844 15.144531 8.851562 14.867188 8.808594 C 14.730469 8.785156 14.59375 8.78125 14.46875 8.785156 Z M 14.46875 8.785156 "/>
<path style=" stroke:none;fill-rule:nonzero;fill:rgb(100%,100%,100%);fill-opacity:0.4;" d="M 12 1.5 C 6.203125 1.5 1.5 6.203125 1.5 12 C 1.5 12.0625 1.5 12.125 1.503906 12.1875 C 1.601562 6.476562 6.265625 1.875 12 1.875 C 17.734375 1.875 22.398438 6.476562 22.496094 12.1875 C 22.5 12.125 22.5 12.0625 22.5 12 C 22.5 6.203125 17.796875 1.5 12 1.5 Z M 12 1.5 "/>
<path style=" stroke:none;fill-rule:nonzero;fill:rgb(0%,0%,0%);fill-opacity:0.4;" d="M 1.503906 11.820312 C 1.5 11.878906 1.5 11.9375 1.5 12 C 1.5 17.796875 6.203125 22.5 12 22.5 C 17.796875 22.5 22.5 17.796875 22.5 12 C 22.5 11.9375 22.5 11.878906 22.496094 11.820312 C 22.398438 17.53125 17.738281 22.136719 12 22.136719 C 6.261719 22.136719 1.601562 17.53125 1.503906 11.820312 Z M 1.503906 11.820312 "/>
<path style=" stroke:none;fill-rule:evenodd;fill:rgb(100%,100%,100%);fill-opacity:0.6;" d="M 10.699219 6.433594 C 9.308594 6.4375 7.914062 6.710938 6.628906 7.253906 C 6.84375 7.277344 7.066406 7.296875 7.289062 7.320312 C 8.382812 6.945312 9.542969 6.753906 10.699219 6.75 L 10.832031 6.75 C 11.773438 6.753906 12.714844 6.910156 13.597656 7.230469 C 15.117188 7.75 16.351562 8.820312 17.457031 9.945312 C 18.449219 10.152344 19.402344 10.628906 20.074219 11.398438 C 20.296875 11.667969 20.695312 12.226562 20.796875 12.636719 C 20.949219 12.265625 20.363281 11.429688 20.074219 11.082031 C 19.402344 10.316406 18.449219 9.835938 17.457031 9.628906 C 16.351562 8.503906 15.117188 7.433594 13.597656 6.917969 C 12.714844 6.59375 11.773438 6.4375 10.832031 6.433594 Z M 9.066406 7.917969 C 8.417969 7.984375 7.589844 8.144531 7.121094 8.636719 C 5.457031 10.039062 4.746094 12.242188 4.410156 14.324219 C 4.382812 14.546875 4.316406 14.902344 4.363281 14.984375 C 4.378906 14.863281 4.398438 14.738281 4.410156 14.636719 C 4.746094 12.558594 5.457031 10.355469 7.121094 8.953125 C 7.78125 8.257812 9.15625 8.222656 9.734375 8.183594 C 9.519531 8.074219 9.292969 7.988281 9.066406 7.917969 Z M 6.582031 13.089844 C 6.398438 13.359375 6.027344 13.742188 6 13.976562 C 5.15625 15.574219 4.90625 17.40625 4.59375 19.167969 C 4.59375 19.253906 4.585938 19.34375 4.574219 19.4375 C 4.582031 19.441406 4.589844 19.449219 4.597656 19.457031 C 4.910156 17.703125 5.160156 15.886719 6 14.292969 C 6.042969 13.917969 6.980469 13.15625 6.582031 13.089844 Z M 15.527344 15.695312 C 15.507812 16.066406 15.558594 16.445312 15.660156 16.792969 C 16.066406 18.316406 17.234375 19.433594 18.589844 20.183594 C 18.667969 20.121094 18.746094 20.058594 18.824219 19.992188 C 17.367188 19.246094 16.089844 18.085938 15.660156 16.476562 C 15.585938 16.226562 15.542969 15.960938 15.527344 15.695312 Z M 15.527344 15.695312 "/>
<path style=" stroke:none;fill-rule:evenodd;fill:rgb(0%,0%,0%);fill-opacity:0.4;" d="M 14.5625 8.78125 C 14.53125 8.78125 14.5 8.78125 14.46875 8.785156 C 14.089844 8.796875 13.804688 8.898438 13.804688 8.898438 L 13.734375 8.921875 L 13.75 8.992188 C 13.75 8.992188 13.757812 9.042969 13.785156 9.121094 L 13.804688 9.117188 C 13.804688 9.117188 14.089844 9.011719 14.46875 9 C 14.59375 8.996094 14.730469 9 14.867188 9.023438 C 15.144531 9.066406 15.4375 9.179688 15.671875 9.417969 C 15.890625 9.640625 16.058594 9.960938 16.136719 10.421875 L 16.164062 10.421875 L 16.15625 10.335938 C 16.089844 9.804688 15.910156 9.445312 15.671875 9.203125 C 15.4375 8.964844 15.144531 8.851562 14.867188 8.804688 C 14.765625 8.789062 14.664062 8.78125 14.5625 8.78125 Z M 14.5625 8.78125 "/>
<path style=" stroke:none;fill-rule:evenodd;fill:rgb(100%,100%,100%);fill-opacity:1;" d="M 13.800781 9.167969 L 13.734375 9.191406 L 13.75 9.261719 C 13.75 9.261719 13.824219 9.667969 14.15625 10.050781 C 14.484375 10.433594 15.082031 10.789062 16.078125 10.695312 L 16.164062 10.6875 L 16.15625 10.601562 C 16.148438 10.539062 16.136719 10.480469 16.125 10.421875 L 16.078125 10.429688 C 15.082031 10.519531 14.484375 10.164062 14.15625 9.785156 C 13.960938 9.558594 13.855469 9.324219 13.800781 9.167969 Z M 13.800781 9.167969 "/>
<path style=" stroke:none;fill-rule:evenodd;fill:rgb(0%,0%,0%);fill-opacity:0.4;" d="M 7.390625 7.328125 C 7.132812 7.414062 6.878906 7.507812 6.628906 7.613281 C 7.394531 7.703125 8.203125 7.726562 8.953125 7.929688 C 9.265625 7.894531 9.542969 7.882812 9.734375 7.867188 C 9.015625 7.492188 8.199219 7.402344 7.390625 7.328125 Z M 20.792969 12.652344 C 20.769531 12.699219 20.734375 12.738281 20.6875 12.765625 C 19.234375 12.75 17.628906 12.675781 16.417969 13.625 C 15.730469 14.09375 15.484375 14.914062 15.527344 15.714844 C 15.566406 15.035156 15.832031 14.382812 16.417969 13.984375 C 17.628906 13.039062 19.234375 13.109375 20.6875 13.125 C 20.835938 13.039062 20.847656 12.863281 20.792969 12.652344 Z M 6.503906 12.769531 C 6.484375 12.769531 6.464844 12.769531 6.441406 12.773438 C 5.703125 13.285156 5.183594 14.054688 4.601562 14.730469 C 4.46875 14.964844 4.398438 15.023438 4.367188 14.988281 C 4.328125 15.304688 4.320312 15.582031 4.601562 15.089844 C 5.183594 14.414062 5.703125 13.644531 6.441406 13.132812 C 6.484375 13.128906 6.523438 13.125 6.554688 13.128906 C 6.703125 12.917969 6.761719 12.761719 6.503906 12.769531 Z M 9.078125 22.085938 C 9.113281 22.097656 9.152344 22.105469 9.1875 22.117188 C 9.152344 22.105469 9.113281 22.097656 9.078125 22.085938 Z M 9.539062 22.207031 C 9.613281 22.226562 9.6875 22.242188 9.761719 22.257812 C 9.6875 22.242188 9.613281 22.226562 9.539062 22.207031 Z M 14.152344 22.277344 C 14.09375 22.289062 14.035156 22.300781 13.976562 22.3125 C 14.035156 22.300781 14.09375 22.289062 14.152344 22.277344 Z M 10 22.308594 C 10.113281 22.332031 10.230469 22.351562 10.34375 22.367188 C 10.226562 22.351562 10.113281 22.332031 10 22.308594 Z M 13.703125 22.359375 C 13.621094 22.375 13.535156 22.386719 13.449219 22.398438 C 13.535156 22.386719 13.621094 22.375 13.703125 22.359375 Z M 10.460938 22.386719 C 10.605469 22.40625 10.753906 22.425781 10.902344 22.441406 C 10.753906 22.425781 10.605469 22.40625 10.460938 22.386719 Z M 13.335938 22.414062 C 13.21875 22.429688 13.101562 22.441406 12.984375 22.453125 C 13.101562 22.441406 13.21875 22.429688 13.335938 22.414062 Z M 10.960938 22.449219 C 11.113281 22.460938 11.261719 22.472656 11.414062 22.484375 C 11.261719 22.472656 11.113281 22.460938 10.960938 22.449219 Z M 12.871094 22.464844 C 12.746094 22.472656 12.617188 22.480469 12.492188 22.488281 C 12.617188 22.480469 12.746094 22.472656 12.871094 22.464844 Z M 11.507812 22.488281 C 11.671875 22.496094 11.835938 22.5 12 22.5 C 11.835938 22.5 11.671875 22.496094 11.507812 22.488281 Z M 12 22.5 C 12.140625 22.5 12.277344 22.496094 12.417969 22.488281 C 12.277344 22.496094 12.140625 22.5 12 22.5 Z M 12 22.5 "/>
<path style=" stroke:none;fill-rule:evenodd;fill:rgb(100%,65.098041%,13.725491%);fill-opacity:1;" d="M 7.851562 7.132812 C 7.292969 7.136719 6.785156 7.171875 6.5 7.265625 C 6.5 7.265625 9.015625 7.390625 9.734375 7.867188 C 9.972656 7.746094 10.332031 7.390625 10.355469 7.339844 C 10.160156 7.257812 8.917969 7.132812 7.851562 7.132812 Z M 6.5 7.265625 Z M 13.492188 11.128906 C 13.492188 11.128906 5.019531 11.488281 4.347656 13.753906 C 4.125 14.667969 4.246094 15.28125 4.246094 15.28125 C 4.246094 15.28125 7.601562 11.546875 13.492188 11.128906 Z M 16.933594 12.722656 C 14.554688 12.71875 7.160156 13.734375 3.058594 20.230469 C 3.289062 21.46875 3.769531 22.421875 3.769531 22.421875 C 3.769531 22.421875 8.742188 13.144531 18.089844 12.792969 C 18.089844 12.792969 17.660156 12.722656 16.933594 12.722656 Z M 16.933594 12.722656 "/>
<path style=" stroke:none;fill-rule:evenodd;fill:rgb(100%,100%,100%);fill-opacity:0.4;" d="M 7.851562 7.132812 C 7.292969 7.136719 6.785156 7.171875 6.5 7.265625 C 6.5 7.265625 6.660156 7.273438 6.914062 7.292969 C 7.179688 7.257812 7.503906 7.246094 7.851562 7.246094 C 8.824219 7.242188 9.945312 7.347656 10.28125 7.425781 C 10.320312 7.382812 10.351562 7.351562 10.355469 7.339844 C 10.160156 7.257812 8.917969 7.132812 7.851562 7.132812 Z M 13.492188 11.128906 C 13.492188 11.128906 5.019531 11.488281 4.347656 13.753906 C 4.234375 14.222656 4.210938 14.609375 4.214844 14.878906 C 4.21875 14.621094 4.25 14.273438 4.347656 13.867188 C 4.816406 12.28125 9.09375 11.628906 11.628906 11.378906 C 12.21875 11.261719 12.839844 11.175781 13.492188 11.128906 Z M 16.933594 12.722656 C 14.554688 12.71875 7.160156 13.734375 3.058594 20.234375 C 3.066406 20.261719 3.070312 20.289062 3.078125 20.316406 C 7.179688 13.84375 14.558594 12.832031 16.933594 12.832031 C 17.089844 12.832031 17.226562 12.835938 17.351562 12.839844 C 17.597656 12.820312 17.84375 12.800781 18.089844 12.792969 C 18.089844 12.792969 17.660156 12.722656 16.933594 12.722656 Z M 16.933594 12.722656 "/>
<path style=" stroke:none;fill-rule:evenodd;fill:rgb(0%,0%,0%);fill-opacity:0.4;" d="M 7.007812 7.300781 C 6.804688 7.324219 6.628906 7.351562 6.5 7.394531 C 6.5 7.394531 9.015625 7.519531 9.734375 8 C 9.972656 7.878906 10.332031 7.519531 10.355469 7.46875 C 10.335938 7.460938 10.304688 7.453125 10.265625 7.445312 C 10.136719 7.574219 9.90625 7.78125 9.734375 7.867188 C 9.21875 7.523438 7.78125 7.367188 7.007812 7.300781 Z M 13.492188 11.257812 C 13.492188 11.257812 12.644531 11.296875 11.460938 11.417969 C 6.835938 12.402344 4.246094 15.28125 4.246094 15.28125 C 4.246094 15.28125 4.21875 15.136719 4.214844 14.886719 C 4.207031 15.21875 4.246094 15.410156 4.246094 15.410156 C 4.246094 15.410156 7.601562 11.675781 13.492188 11.257812 Z M 17.210938 12.855469 C 11.371094 13.4375 7.367188 17.46875 5.328125 20.109375 C 5.347656 20.125 5.371094 20.140625 5.390625 20.15625 C 7.550781 17.382812 11.839844 13.160156 18.089844 12.925781 C 18.089844 12.925781 17.769531 12.871094 17.210938 12.855469 Z M 17.210938 12.855469 "/>
<path style=" stroke:none;fill-rule:nonzero;fill:url(#linear0);" d="M 12 1.5 C 6.203125 1.5 1.5 6.203125 1.5 12 C 1.5 14.617188 2.457031 17.011719 4.042969 18.851562 C 3.699219 19.28125 3.371094 19.742188 3.058594 20.234375 C 3.289062 21.46875 3.769531 22.421875 3.769531 22.421875 C 3.769531 22.421875 4.296875 21.441406 5.328125 20.105469 C 7.140625 21.601562 9.464844 22.5 12 22.5 C 17.796875 22.5 22.5 17.796875 22.5 12 C 22.5 6.203125 17.796875 1.5 12 1.5 Z M 12 1.5 "/>
</g>
</svg>
