
<svg xmlns="http://www.w3.org/2000/svg" xmlns:xlink="http://www.w3.org/1999/xlink" width="24" height="24" viewBox="0 0 24 24" version="1.1">
<defs>
<linearGradient id="linear0" gradientUnits="userSpaceOnUse" x1="31.999998" y1="57.999996" x2="31.999998" y2="8" gradientTransform="matrix(0.375,0,0,0.375,-0.000000255118,0.000000000000042633)">
<stop offset="0" style="stop-color:rgb(0%,0%,0%);stop-opacity:0.2;"/>
<stop offset="1" style="stop-color:rgb(100%,100%,100%);stop-opacity:0;"/>
</linearGradient>
</defs>
<g id="surface1">
<path style=" stroke:none;fill-rule:nonzero;fill:rgb(36.078432%,41.960785%,75.294119%);fill-opacity:1;" d="M 3 2.992188 L 21 2.992188 C 21.828125 2.992188 22.5 3.664062 22.5 4.492188 L 22.5 19.492188 C 22.5 20.320312 21.828125 20.992188 21 20.992188 L 3 20.992188 C 2.171875 20.992188 1.5 20.320312 1.5 19.492188 L 1.5 4.492188 C 1.5 3.664062 2.171875 2.992188 3 2.992188 Z M 3 2.992188 "/>
<path style=" stroke:none;fill-rule:nonzero;fill:rgb(25.882354%,64.705884%,96.078432%);fill-opacity:1;" d="M 1.695312 3.75 L 12 11.992188 L 2.027344 20.636719 C 1.703125 20.359375 1.5 19.953125 1.5 19.492188 L 1.5 4.492188 C 1.5 4.222656 1.570312 3.96875 1.695312 3.75 Z M 1.695312 3.75 "/>
<path style=" stroke:none;fill-rule:nonzero;fill:rgb(47.058824%,56.470591%,61.176473%);fill-opacity:1;" d="M 12 11.992188 L 1.972656 20.585938 C 2.242188 20.835938 2.601562 20.992188 3 20.992188 L 21 20.992188 C 21.398438 20.992188 21.757812 20.835938 22.027344 20.585938 Z M 12 11.992188 "/>
<path style=" stroke:none;fill-rule:nonzero;fill:rgb(92.54902%,25.098041%,47.843137%);fill-opacity:1;" d="M 22.304688 3.75 L 12 11.992188 L 21.972656 20.636719 C 22.296875 20.359375 22.5 19.953125 22.5 19.492188 L 22.5 4.492188 C 22.5 4.222656 22.429688 3.96875 22.304688 3.75 Z M 22.304688 3.75 "/>
<path style=" stroke:none;fill-rule:nonzero;fill:rgb(0.392157%,0.392157%,0.392157%);fill-opacity:0.4;" d="M 1.5 19.125 L 1.5 19.5 C 1.5 20.332031 2.167969 21 3 21 L 21 21 C 21.832031 21 22.5 20.332031 22.5 19.5 L 22.5 19.125 C 22.5 19.957031 21.832031 20.625 21 20.625 L 3 20.625 C 2.167969 20.625 1.5 19.957031 1.5 19.125 Z M 1.5 19.125 "/>
<path style=" stroke:none;fill-rule:nonzero;fill:rgb(87.843138%,87.843138%,87.843138%);fill-opacity:1;" d="M 3.75 18 L 20.25 18 C 20.664062 18 21 18.335938 21 18.75 L 21 21 C 21 21.414062 20.664062 21.75 20.25 21.75 L 3.75 21.75 C 3.335938 21.75 3 21.414062 3 21 L 3 18.75 C 3 18.335938 3.335938 18 3.75 18 Z M 3.75 18 "/>
<path style=" stroke:none;fill-rule:nonzero;fill:rgb(87.843138%,87.843138%,87.843138%);fill-opacity:1;" d="M 3 3 C 2.167969 3 1.5 3.667969 1.5 4.5 L 22.5 4.5 C 22.5 3.667969 21.832031 3 21 3 Z M 3 3 "/>
<path style=" stroke:none;fill-rule:nonzero;fill:rgb(0%,0%,0%);fill-opacity:0.4;" d="M 1.5 4.5 L 1.5 4.875 L 22.5 4.875 L 22.5 4.5 Z M 3 20.625 L 3 21 C 3 21.414062 3.335938 21.75 3.75 21.75 L 20.25 21.75 C 20.664062 21.75 21 21.414062 21 21 L 21 20.625 C 21 21.039062 20.664062 21.375 20.25 21.375 L 3.75 21.375 C 3.335938 21.375 3 21.039062 3 20.625 Z M 3 20.625 "/>
<path style=" stroke:none;fill-rule:nonzero;fill:rgb(100%,100%,100%);fill-opacity:0.8;" d="M 3 3 C 2.167969 3 1.5 3.667969 1.5 4.5 L 1.546875 4.5 C 1.707031 3.847656 2.296875 3.363281 3 3.363281 L 21 3.363281 C 21.703125 3.363281 22.292969 3.847656 22.453125 4.5 L 22.5 4.5 C 22.5 3.667969 21.832031 3 21 3 Z M 3.75 18 C 3.335938 18 3 18.335938 3 18.75 L 3 19.113281 C 3 18.699219 3.335938 18.363281 3.75 18.363281 L 20.25 18.363281 C 20.664062 18.363281 21 18.699219 21 19.113281 L 21 18.75 C 21 18.335938 20.664062 18 20.25 18 Z M 3.75 18 "/>
<path style=" stroke:none;fill-rule:nonzero;fill:rgb(0%,0%,0%);fill-opacity:0.2;" d="M 1.5 19.5 L 1.5 20.0625 C 1.5 20.894531 2.167969 21.5625 3 21.5625 C 3 21.980469 3.335938 22.3125 3.75 22.3125 L 20.25 22.3125 C 20.664062 22.3125 21 21.980469 21 21.5625 C 21.832031 21.5625 22.5 20.894531 22.5 20.0625 L 22.5 19.5 C 22.5 20.332031 21.832031 21 21 21 C 21 21.414062 20.664062 21.75 20.25 21.75 L 3.75 21.75 C 3.335938 21.75 3 21.414062 3 21 C 2.167969 21 1.5 20.332031 1.5 19.5 Z M 1.5 19.5 "/>
<path style=" stroke:none;fill-rule:nonzero;fill:rgb(87.843138%,87.843138%,87.843138%);fill-opacity:1;" d="M 12 8.25 C 12.398438 8.25 13.011719 10.308594 13.335938 10.542969 C 13.65625 10.777344 15.804688 10.726562 15.929688 11.105469 C 16.050781 11.480469 14.285156 12.703125 14.160156 13.082031 C 14.039062 13.460938 14.75 15.488281 14.425781 15.722656 C 14.105469 15.957031 12.398438 14.652344 12 14.652344 C 11.601562 14.652344 9.894531 15.957031 9.574219 15.722656 C 9.25 15.488281 9.960938 13.460938 9.839844 13.082031 C 9.714844 12.703125 7.949219 11.480469 8.070312 11.105469 C 8.195312 10.726562 10.34375 10.777344 10.664062 10.542969 C 10.988281 10.308594 11.601562 8.25 12 8.25 Z M 12 8.25 "/>
<path style=" stroke:none;fill-rule:nonzero;fill:rgb(0%,0%,0%);fill-opacity:0.4;" d="M 8.09375 11.253906 C 8.085938 11.265625 8.078125 11.277344 8.070312 11.292969 C 8.058594 11.332031 8.066406 11.382812 8.09375 11.4375 C 8.082031 11.449219 8.074219 11.460938 8.070312 11.472656 C 7.949219 11.851562 9.714844 13.074219 9.839844 13.453125 C 9.84375 13.464844 9.84375 13.484375 9.847656 13.503906 C 9.855469 13.425781 9.855469 13.355469 9.847656 13.304688 C 9.855469 13.210938 9.855469 13.132812 9.839844 13.082031 C 9.730469 12.746094 8.308594 11.734375 8.09375 11.253906 Z M 15.90625 11.253906 C 15.691406 11.734375 14.269531 12.746094 14.160156 13.082031 C 14.144531 13.132812 14.144531 13.210938 14.152344 13.304688 C 14.144531 13.355469 14.144531 13.425781 14.152344 13.503906 C 14.15625 13.484375 14.15625 13.464844 14.160156 13.453125 C 14.285156 13.074219 16.050781 11.851562 15.929688 11.472656 C 15.925781 11.460938 15.917969 11.449219 15.90625 11.4375 C 15.933594 11.382812 15.941406 11.332031 15.929688 11.292969 C 15.921875 11.277344 15.914062 11.265625 15.90625 11.253906 Z M 12 14.652344 C 11.601562 14.652344 9.894531 15.957031 9.570312 15.722656 C 9.523438 15.6875 9.5 15.609375 9.492188 15.503906 C 9.488281 15.578125 9.488281 15.640625 9.492188 15.699219 C 9.480469 15.894531 9.5 16.039062 9.570312 16.089844 C 9.894531 16.324219 11.601562 15.023438 12 15.023438 C 12.398438 15.023438 14.105469 16.324219 14.429688 16.089844 C 14.5 16.039062 14.519531 15.894531 14.507812 15.699219 C 14.511719 15.640625 14.511719 15.578125 14.507812 15.503906 C 14.5 15.609375 14.476562 15.6875 14.429688 15.722656 C 14.105469 15.957031 12.398438 14.652344 12 14.652344 Z M 12 14.652344 "/>
<path style=" stroke:none;fill-rule:nonzero;fill:rgb(99.607843%,99.607843%,99.607843%);fill-opacity:0.4;" d="M 12 8.25 C 11.601562 8.25 10.988281 10.308594 10.664062 10.542969 C 10.34375 10.777344 8.195312 10.726562 8.070312 11.105469 C 8.058594 11.144531 8.070312 11.195312 8.09375 11.25 C 8.09375 11.25 8.09375 11.253906 8.09375 11.253906 C 8.085938 11.265625 8.078125 11.277344 8.070312 11.292969 C 8.058594 11.332031 8.070312 11.382812 8.09375 11.441406 C 8.347656 11.105469 10.355469 11.144531 10.664062 10.917969 C 10.988281 10.683594 11.601562 8.625 12 8.625 C 12.398438 8.625 13.011719 10.683594 13.335938 10.917969 C 13.644531 11.144531 15.652344 11.105469 15.90625 11.441406 C 15.929688 11.382812 15.941406 11.332031 15.929688 11.292969 C 15.921875 11.277344 15.914062 11.265625 15.90625 11.253906 C 15.90625 11.253906 15.90625 11.25 15.90625 11.25 C 15.929688 11.195312 15.941406 11.144531 15.929688 11.105469 C 15.804688 10.726562 13.65625 10.777344 13.335938 10.542969 C 13.011719 10.308594 12.398438 8.25 12 8.25 Z M 10.664062 10.730469 C 10.65625 10.738281 10.644531 10.742188 10.632812 10.75 C 10.644531 10.742188 10.65625 10.738281 10.664062 10.730469 Z M 13.335938 10.730469 C 13.34375 10.738281 13.355469 10.742188 13.367188 10.75 C 13.355469 10.742188 13.34375 10.738281 13.335938 10.730469 Z M 9.214844 10.964844 C 9.167969 10.96875 9.121094 10.976562 9.074219 10.980469 C 9.011719 10.988281 8.949219 10.996094 8.890625 11.003906 C 8.949219 10.996094 9.011719 10.988281 9.074219 10.980469 C 9.121094 10.976562 9.167969 10.96875 9.214844 10.964844 Z M 14.785156 10.964844 C 14.832031 10.96875 14.878906 10.976562 14.925781 10.980469 C 14.988281 10.988281 15.050781 10.996094 15.109375 11.003906 C 15.050781 10.996094 14.988281 10.988281 14.925781 10.980469 C 14.878906 10.976562 14.832031 10.96875 14.785156 10.964844 Z M 9.847656 13.320312 C 9.796875 13.867188 9.453125 15.007812 9.492188 15.503906 C 9.492188 15.496094 9.496094 15.488281 9.496094 15.476562 C 9.496094 15.441406 9.5 15.398438 9.507812 15.359375 C 9.5 15.398438 9.496094 15.441406 9.496094 15.476562 C 9.488281 15.558594 9.488281 15.628906 9.492188 15.691406 C 9.53125 15.050781 9.894531 13.871094 9.847656 13.507812 C 9.835938 13.644531 9.804688 13.8125 9.765625 14 C 9.824219 13.707031 9.867188 13.457031 9.847656 13.320312 Z M 14.152344 13.320312 C 14.132812 13.457031 14.175781 13.707031 14.234375 14 C 14.195312 13.8125 14.164062 13.644531 14.152344 13.507812 C 14.105469 13.871094 14.46875 15.050781 14.507812 15.691406 C 14.511719 15.628906 14.511719 15.558594 14.503906 15.476562 C 14.503906 15.441406 14.5 15.398438 14.492188 15.359375 C 14.5 15.398438 14.503906 15.441406 14.503906 15.476562 C 14.503906 15.488281 14.507812 15.496094 14.507812 15.503906 C 14.546875 15.007812 14.203125 13.867188 14.152344 13.320312 Z M 9.703125 14.308594 C 9.660156 14.511719 9.613281 14.722656 9.574219 14.921875 C 9.613281 14.722656 9.660156 14.511719 9.703125 14.308594 Z M 14.296875 14.308594 C 14.339844 14.511719 14.386719 14.722656 14.425781 14.921875 C 14.386719 14.722656 14.339844 14.511719 14.296875 14.308594 Z M 9.546875 15.078125 C 9.539062 15.125 9.53125 15.171875 9.523438 15.21875 C 9.519531 15.257812 9.515625 15.292969 9.507812 15.332031 C 9.515625 15.292969 9.519531 15.257812 9.523438 15.21875 C 9.53125 15.171875 9.539062 15.125 9.546875 15.078125 Z M 14.453125 15.078125 C 14.460938 15.125 14.46875 15.171875 14.476562 15.21875 C 14.480469 15.257812 14.484375 15.292969 14.492188 15.332031 C 14.484375 15.292969 14.480469 15.257812 14.476562 15.21875 C 14.46875 15.171875 14.460938 15.125 14.453125 15.078125 Z M 14.453125 15.078125 "/>
<path style=" stroke:none;fill-rule:nonzero;fill:url(#linear0);" d="M 3 3 C 2.167969 3 1.5 3.667969 1.5 4.5 L 1.5 19.5 C 1.5 20.332031 2.167969 21 3 21 C 3 21.414062 3.335938 21.75 3.75 21.75 L 20.25 21.75 C 20.664062 21.75 21 21.414062 21 21 C 21.832031 21 22.5 20.332031 22.5 19.5 L 22.5 4.5 C 22.5 3.667969 21.832031 3 21 3 Z M 3 3 "/>
</g>
</svg>
