
<svg xmlns="http://www.w3.org/2000/svg" xmlns:xlink="http://www.w3.org/1999/xlink" width="22" height="22" viewBox="0 0 22 22" version="1.1">
<defs>
<linearGradient id="linear0" gradientUnits="userSpaceOnUse" x1="31.999998" y1="60" x2="31.999998" y2="4" gradientTransform="matrix(0.34375,0,0,0.34375,-0.000000935433,0.00000000000003908)">
<stop offset="0" style="stop-color:rgb(0%,0%,0%);stop-opacity:0.2;"/>
<stop offset="1" style="stop-color:rgb(100%,100%,100%);stop-opacity:0;"/>
</linearGradient>
</defs>
<g id="surface1">
<path style=" stroke:none;fill-rule:nonzero;fill:rgb(67.058825%,27.843139%,73.725492%);fill-opacity:1;" d="M 13.75 1.375 L 4.46875 1.375 C 3.898438 1.375 3.4375 1.835938 3.4375 2.40625 L 3.4375 19.59375 C 3.4375 20.164062 3.898438 20.625 4.46875 20.625 L 17.53125 20.625 C 18.101562 20.625 18.5625 20.164062 18.5625 19.59375 L 18.5625 6.1875 Z M 13.75 1.375 "/>
<path style=" stroke:none;fill-rule:nonzero;fill:rgb(0%,0%,0%);fill-opacity:0.4;" d="M 13.75 5.15625 L 13.75 5.5 C 13.75 6.070312 14.210938 6.53125 14.78125 6.53125 L 18.5625 6.53125 L 18.21875 6.1875 L 14.78125 6.1875 C 14.210938 6.1875 13.75 5.726562 13.75 5.15625 Z M 13.75 5.15625 "/>
<path style=" stroke:none;fill-rule:nonzero;fill:rgb(72.941178%,40.784314%,78.431374%);fill-opacity:0.996078;" d="M 18.5625 6.1875 L 13.75 1.375 L 13.75 5.15625 C 13.75 5.726562 14.210938 6.1875 14.78125 6.1875 Z M 18.5625 6.1875 "/>
<path style=" stroke:none;fill-rule:nonzero;fill:rgb(100%,100%,100%);fill-opacity:0.4;" d="M 4.46875 1.375 C 3.898438 1.375 3.4375 1.835938 3.4375 2.40625 L 3.4375 2.75 C 3.4375 2.179688 3.898438 1.71875 4.46875 1.71875 L 13.75 1.71875 L 18.5625 6.53125 L 18.5625 6.1875 L 13.75 1.375 Z M 4.46875 1.375 "/>
<path style=" stroke:none;fill-rule:nonzero;fill:rgb(0%,0%,0%);fill-opacity:0.2;" d="M 3.4375 19.589844 L 3.4375 20.109375 C 3.4375 20.679688 3.898438 21.140625 4.46875 21.140625 L 17.53125 21.140625 C 18.101562 21.140625 18.5625 20.679688 18.5625 20.109375 L 18.5625 19.589844 C 18.5625 20.160156 18.101562 20.621094 17.53125 20.621094 L 4.46875 20.621094 C 3.898438 20.621094 3.4375 20.160156 3.4375 19.589844 Z M 3.4375 19.589844 "/>
<path style=" stroke:none;fill-rule:nonzero;fill:rgb(0%,0%,0%);fill-opacity:0.4;" d="M 3.4375 19.292969 L 3.4375 19.59375 C 3.4375 20.164062 3.898438 20.625 4.46875 20.625 L 17.53125 20.625 C 18.101562 20.625 18.5625 20.164062 18.5625 19.59375 L 18.5625 19.292969 C 18.5625 19.863281 18.101562 20.324219 17.53125 20.324219 L 4.46875 20.324219 C 3.898438 20.324219 3.4375 19.863281 3.4375 19.292969 Z M 3.4375 19.292969 "/>
<path style=" stroke:none;fill-rule:nonzero;fill:rgb(0%,0%,0%);fill-opacity:0.4;" d="M 10.3125 11.6875 C 9.929688 11.6875 9.625 11.992188 9.625 12.375 L 9.625 12.535156 C 9.625 12.15625 9.929688 11.847656 10.3125 11.847656 L 11.6875 11.847656 C 12.070312 11.847656 12.375 12.15625 12.375 12.535156 L 12.375 12.375 C 12.375 11.992188 12.070312 11.6875 11.6875 11.6875 Z M 8.9375 14.953125 L 8.9375 15.113281 C 8.9375 15.207031 9.015625 15.285156 9.109375 15.285156 L 9.453125 15.285156 C 9.546875 15.285156 9.625 15.207031 9.625 15.113281 L 9.625 14.953125 C 9.625 15.046875 9.546875 15.125 9.453125 15.125 L 9.109375 15.125 C 9.015625 15.125 8.9375 15.046875 8.9375 14.953125 Z M 12.375 14.953125 L 12.375 15.105469 C 12.375 15.105469 12.375 15.109375 12.375 15.109375 L 12.375 15.113281 C 12.375 15.210938 12.453125 15.285156 12.546875 15.285156 L 12.890625 15.285156 C 12.984375 15.285156 13.0625 15.210938 13.0625 15.113281 C 13.0625 15.113281 13.0625 15.109375 13.0625 15.105469 L 13.0625 14.953125 C 13.0625 15.046875 12.984375 15.125 12.890625 15.125 L 12.546875 15.125 C 12.453125 15.125 12.375 15.046875 12.375 14.953125 Z M 12.375 14.953125 "/>
<path style=" stroke:none;fill-rule:nonzero;fill:rgb(80.784315%,57.647061%,84.705883%);fill-opacity:0.996078;" d="M 9.109375 8.25 C 9.015625 8.25 8.9375 8.328125 8.9375 8.421875 L 8.9375 14.953125 C 8.9375 15.046875 9.015625 15.125 9.109375 15.125 L 9.453125 15.125 C 9.546875 15.125 9.625 15.046875 9.625 14.953125 L 9.625 12.375 C 9.625 11.992188 9.929688 11.6875 10.3125 11.6875 L 11.6875 11.6875 C 12.070312 11.6875 12.375 11.992188 12.375 12.375 L 12.375 14.945312 C 12.375 14.945312 12.375 14.945312 12.375 14.949219 L 12.375 14.953125 C 12.375 15.046875 12.453125 15.125 12.546875 15.125 L 12.890625 15.125 C 12.984375 15.125 13.0625 15.046875 13.0625 14.953125 C 13.0625 14.949219 13.0625 14.949219 13.0625 14.945312 L 13.0625 12.375 C 13.0625 11.613281 12.449219 11 11.6875 11 L 10.3125 11 C 10.0625 11 9.828125 11.066406 9.625 11.183594 L 9.625 8.421875 C 9.625 8.328125 9.546875 8.25 9.453125 8.25 Z M 9.109375 8.25 "/>
<path style=" stroke:none;fill-rule:nonzero;fill:rgb(100%,100%,100%);fill-opacity:0.4;" d="M 9.109375 8.25 C 9.015625 8.25 8.9375 8.328125 8.9375 8.421875 L 8.9375 8.59375 C 8.9375 8.5 9.015625 8.421875 9.109375 8.421875 L 9.453125 8.421875 C 9.546875 8.421875 9.625 8.5 9.625 8.59375 L 9.625 8.421875 C 9.625 8.328125 9.546875 8.25 9.453125 8.25 Z M 10.3125 11 C 10.0625 11 9.828125 11.066406 9.625 11.183594 L 9.625 11.355469 C 9.828125 11.238281 10.0625 11.171875 10.3125 11.171875 L 11.6875 11.171875 C 12.449219 11.171875 13.0625 11.785156 13.0625 12.546875 L 13.0625 12.375 C 13.0625 11.613281 12.449219 11 11.6875 11 Z M 10.3125 11 "/>
<path style=" stroke:none;fill-rule:nonzero;fill:url(#linear0);" d="M 13.75 1.375 L 4.46875 1.375 C 3.898438 1.375 3.4375 1.835938 3.4375 2.40625 L 3.4375 19.59375 C 3.4375 20.164062 3.898438 20.625 4.46875 20.625 L 17.53125 20.625 C 18.101562 20.625 18.5625 20.164062 18.5625 19.59375 L 18.5625 6.1875 Z M 13.75 1.375 "/>
</g>
</svg>
