
<svg xmlns="http://www.w3.org/2000/svg" xmlns:xlink="http://www.w3.org/1999/xlink" width="64" height="64" viewBox="0 0 64 64" version="1.1">
<defs>
<linearGradient id="linear0" gradientUnits="userSpaceOnUse" x1="10.054166" y1="-209.708328" x2="10.054166" y2="-212.883331" gradientTransform="matrix(3.779528,0,0,3.779528,0,812.598468)">
<stop offset="0" style="stop-color:rgb(0%,0%,0%);stop-opacity:0.2;"/>
<stop offset="1" style="stop-color:rgb(100%,100%,100%);stop-opacity:0;"/>
</linearGradient>
<linearGradient id="linear1" gradientUnits="userSpaceOnUse" x1="8.995832" y1="-200.183334" x2="8.995832" y2="-211.824997" gradientTransform="matrix(3.779528,0,0,3.779528,0,812.598468)">
<stop offset="0" style="stop-color:rgb(0%,0%,0%);stop-opacity:0.2;"/>
<stop offset="1" style="stop-color:rgb(100%,100%,100%);stop-opacity:0;"/>
</linearGradient>
</defs>
<g id="surface1">
<path style=" stroke:none;fill-rule:nonzero;fill:rgb(15.686275%,16.470589%,21.176471%);fill-opacity:1;" d="M 20 8 L 56 8 C 58.210938 8 60 9.789062 60 12 L 60 24 C 60 26.210938 58.210938 28 56 28 L 20 28 C 17.789062 28 16 26.210938 16 24 L 16 12 C 16 9.789062 17.789062 8 20 8 Z M 20 8 "/>
<path style=" stroke:none;fill-rule:nonzero;fill:url(#linear0);" d="M 20 8 L 56 8 C 58.210938 8 60 9.789062 60 12 L 60 24 C 60 26.210938 58.210938 28 56 28 L 20 28 C 17.789062 28 16 26.210938 16 24 L 16 12 C 16 9.789062 17.789062 8 20 8 Z M 20 8 "/>
<path style=" stroke:none;fill-rule:nonzero;fill:rgb(26.666668%,27.843139%,35.294119%);fill-opacity:1;" d="M 8 12 C 5.785156 12 4 13.785156 4 16 L 4 52 C 4 54.214844 5.785156 56 8 56 L 56 56 C 58.214844 56 60 54.214844 60 52 L 60 20 L 20 20 C 17.785156 20 16 18.214844 16 16 L 16 12 Z M 8 12 "/>
<path style=" stroke:none;fill-rule:nonzero;fill:rgb(26.666668%,27.843139%,35.294119%);fill-opacity:1;" d="M 8 12 C 5.785156 12 4 13.785156 4 16 L 4 52 C 4 54.214844 5.785156 56 8 56 L 56 56 C 58.214844 56 60 54.214844 60 52 L 60 20 L 20 20 C 17.785156 20 16 18.214844 16 16 L 16 12 Z M 8 12 "/>
<path style=" stroke:none;fill-rule:nonzero;fill:rgb(49.411765%,50.980395%,62.7451%);fill-opacity:1;" d="M 28 27 L 28 38.796875 C 27.164062 38.296875 26.128906 38 25 38 C 22.230469 38 20 39.785156 20 42 C 20 44.214844 22.230469 46 25 46 C 27.769531 46 30 44.214844 30 42 L 30 31 C 30 30.449219 30.449219 30 31 30 L 39 30 C 39.550781 30 40 30.449219 40 31 L 40 36.796875 C 39.164062 36.296875 38.128906 36 37 36 C 34.230469 36 32 37.785156 32 40 C 32 42.214844 34.230469 44 37 44 C 39.769531 44 42 42.214844 42 40 L 42 27 C 42 26.449219 41.550781 26 41 26 L 29 26 C 28.449219 26 28 26.449219 28 27 Z M 28 27 "/>
<path style=" stroke:none;fill-rule:nonzero;fill:rgb(0.392157%,0.392157%,0.392157%);fill-opacity:0.4;" d="M 8 55.992188 C 5.785156 55.992188 4 54.207031 4 51.992188 L 4 51.023438 C 4 53.238281 5.785156 55.023438 8 55.023438 L 56 55.023438 C 58.214844 55.023438 60 53.238281 60 51.023438 L 60 51.992188 C 60 54.207031 58.214844 55.992188 56 55.992188 Z M 8 55.992188 "/>
<path style=" stroke:none;fill-rule:nonzero;fill:rgb(0%,0%,0%);fill-opacity:0.2;" d="M 4 52 L 4 53.5 C 4 55.714844 5.785156 57.5 8 57.5 L 56 57.5 C 58.214844 57.5 60 55.714844 60 53.5 L 60 52 C 60 54.214844 58.214844 56 56 56 L 8 56 C 5.785156 56 4 54.214844 4 52 Z M 4 52 "/>
<path style=" stroke:none;fill-rule:nonzero;fill:rgb(100%,100%,100%);fill-opacity:0.4;" d="M 8 12 C 5.785156 12 4 13.785156 4 16 L 4 17 C 4 14.785156 5.785156 13 8 13 L 16 13 L 16 12 Z M 16 16 L 16 17 C 16 19.214844 17.785156 21 20 21 L 60 21 L 60 20 L 20 20 C 17.785156 20 16 18.214844 16 16 Z M 16 16 "/>
<path style=" stroke:none;fill-rule:nonzero;fill:rgb(100%,100%,100%);fill-opacity:0.4;" d="M 20 8 C 17.785156 8 16 9.785156 16 12 L 16 12.5 C 16 10.285156 17.785156 8.5 20 8.5 L 56 8.5 C 58.214844 8.5 60 10.285156 60 12.5 L 60 12 C 60 9.785156 58.214844 8 56 8 Z M 20 8 "/>
<path style=" stroke:none;fill-rule:nonzero;fill:rgb(100%,100%,100%);fill-opacity:0.4;" d="M 29 26 C 28.449219 26 28 26.449219 28 27 L 28 27.5 C 28 26.949219 28.449219 26.5 29 26.5 L 41 26.5 C 41.550781 26.5 42 26.949219 42 27.5 L 42 27 C 42 26.449219 41.550781 26 41 26 Z M 37 36 C 34.230469 36 32 37.785156 32 40 C 32 40.074219 32.007812 40.144531 32.015625 40.214844 C 32.195312 38.132812 34.351562 36.5 37 36.5 C 38.128906 36.5 39.164062 36.796875 40 37.296875 L 40 36.796875 C 39.164062 36.296875 38.128906 36 37 36 Z M 25 38 C 22.230469 38 20 39.785156 20 42 C 20 42.074219 20.007812 42.144531 20.015625 42.214844 C 20.195312 40.132812 22.351562 38.5 25 38.5 C 26.128906 38.5 27.164062 38.796875 28 39.296875 L 28 38.796875 C 27.164062 38.296875 26.128906 38 25 38 Z M 25 38 "/>
<path style=" stroke:none;fill-rule:nonzero;fill:rgb(0.392157%,0.392157%,0.392157%);fill-opacity:0.4;" d="M 31 30 C 30.449219 30 30 30.449219 30 31 L 30 31.5 C 30 30.945312 30.449219 30.496094 31 30.5 L 39 30.5 C 39.550781 30.496094 40 30.945312 40 31.5 L 40 31 C 40 30.449219 39.550781 30 39 30 Z M 42 40 C 42 42.214844 39.769531 44 37 44 C 34.335938 44 32.167969 42.347656 32.011719 40.25 C 32.003906 40.332031 32 40.414062 32 40.5 C 32 42.714844 34.230469 44.5 37 44.5 C 39.769531 44.5 42 42.714844 42 40.5 Z M 30 42 C 30 44.214844 27.769531 46 25 46 C 22.335938 46 20.167969 44.347656 20.011719 42.25 C 20.003906 42.332031 20 42.414062 20 42.5 C 20 44.714844 22.230469 46.5 25 46.5 C 27.769531 46.5 30 44.714844 30 42.5 Z M 30 42 "/>
<path style=" stroke:none;fill-rule:nonzero;fill:url(#linear1);" d="M 8 12 C 5.785156 12 4 13.785156 4 16 L 4 52 C 4 54.214844 5.785156 56 8 56 L 56 56 C 58.214844 56 60 54.214844 60 52 L 60 20 L 20 20 C 17.785156 20 16 18.214844 16 16 L 16 12 Z M 8 12 "/>
</g>
</svg>
