
<svg xmlns="http://www.w3.org/2000/svg" xmlns:xlink="http://www.w3.org/1999/xlink" width="22" height="22" viewBox="0 0 22 22" version="1.1">
<defs>
<linearGradient id="linear0" gradientUnits="userSpaceOnUse" x1="31.999998" y1="60" x2="31.999998" y2="4" gradientTransform="matrix(0.34375,0,0,0.34375,0,0.00000000000003908)">
<stop offset="0" style="stop-color:rgb(0%,0%,0%);stop-opacity:0.2;"/>
<stop offset="1" style="stop-color:rgb(100%,100%,100%);stop-opacity:0;"/>
</linearGradient>
</defs>
<g id="surface1">
<path style=" stroke:none;fill-rule:nonzero;fill:rgb(38.039216%,38.039216%,38.039216%);fill-opacity:1;" d="M 11 1.371094 C 5.667969 1.371094 1.371094 5.667969 1.371094 11 L 7.5625 11 C 7.5625 9.09375 9.09375 7.5625 11 7.5625 Z M 14.4375 11 C 14.4375 12.90625 12.90625 14.4375 11 14.4375 L 11 20.625 C 16.332031 20.625 20.625 16.332031 20.625 11 Z M 14.4375 11 "/>
<path style=" stroke:none;fill-rule:nonzero;fill:rgb(0%,0%,0%);fill-opacity:0.4;" d="M 11 7.21875 C 9.09375 7.21875 7.5625 8.75 7.5625 10.65625 L 1.382812 10.65625 C 1.378906 10.769531 1.371094 10.882812 1.371094 11 L 7.5625 11 C 7.5625 9.09375 9.09375 7.5625 11 7.5625 Z M 20.621094 11 C 20.4375 16.171875 16.21875 20.28125 11 20.28125 L 11 20.625 C 16.332031 20.625 20.625 16.332031 20.625 11 Z M 20.621094 11 "/>
<path style=" stroke:none;fill-rule:nonzero;fill:rgb(100%,100%,100%);fill-opacity:0.4;" d="M 11 1.371094 C 5.667969 1.371094 1.371094 5.667969 1.371094 11 L 1.378906 11 C 1.5625 5.828125 5.78125 1.71875 11 1.71875 Z M 14.4375 11 C 14.4375 12.90625 12.90625 14.4375 11 14.4375 L 11 14.785156 C 12.90625 14.785156 14.4375 13.25 14.4375 11.347656 L 20.617188 11.347656 C 20.621094 11.230469 20.625 11.117188 20.625 11 Z M 14.4375 11 "/>
<path style=" stroke:none;fill-rule:nonzero;fill:rgb(47.058824%,56.470591%,61.176473%);fill-opacity:1;" d="M 11 3.4375 C 6.8125 3.4375 3.4375 6.808594 3.4375 11 C 3.4375 15.1875 6.8125 18.5625 11 18.5625 C 15.1875 18.5625 18.5625 15.1875 18.5625 11 L 14.4375 11 C 14.4375 12.90625 12.90625 14.4375 11 14.4375 C 9.09375 14.4375 7.5625 12.90625 7.5625 11 C 7.5625 9.09375 9.09375 7.5625 11 7.5625 Z M 11 3.4375 "/>
<path style=" stroke:none;fill-rule:nonzero;fill:rgb(100%,100%,100%);fill-opacity:0.4;" d="M 11 3.4375 C 6.8125 3.4375 3.4375 6.808594 3.4375 11 C 3.4375 11.042969 3.441406 11.085938 3.441406 11.128906 C 3.554688 7.039062 6.882812 3.78125 11 3.78125 Z M 14.4375 11 C 14.4375 12.90625 12.90625 14.4375 11 14.4375 C 9.140625 14.4375 7.640625 12.976562 7.570312 11.136719 C 7.566406 11.207031 7.5625 11.273438 7.5625 11.34375 C 7.5625 13.25 9.09375 14.78125 11 14.78125 C 12.90625 14.78125 14.4375 13.25 14.4375 11.34375 L 18.554688 11.34375 C 18.558594 11.230469 18.5625 11.117188 18.5625 11 Z M 14.4375 11 "/>
<path style=" stroke:none;fill-rule:nonzero;fill:rgb(14.901961%,65.098041%,60.392159%);fill-opacity:1;" d="M 11 5.5 C 7.953125 5.5 5.5 7.953125 5.5 11 C 5.5 14.046875 7.953125 16.5 11 16.5 C 14.046875 16.5 16.5 14.046875 16.5 11 C 16.5 7.953125 14.046875 5.5 11 5.5 Z M 11 7.5625 C 12.90625 7.5625 14.4375 9.09375 14.4375 11 C 14.4375 12.90625 12.90625 14.4375 11 14.4375 C 9.09375 14.4375 7.5625 12.90625 7.5625 11 C 7.5625 9.09375 9.09375 7.5625 11 7.5625 Z M 11 7.5625 "/>
<path style=" stroke:none;fill-rule:nonzero;fill:rgb(100%,100%,100%);fill-opacity:0.4;" d="M 11 5.5 C 7.953125 5.5 5.5 7.953125 5.5 11 C 5.5 11.050781 5.503906 11.101562 5.503906 11.152344 C 5.605469 8.195312 8.015625 5.84375 11 5.84375 C 13.984375 5.84375 16.394531 8.195312 16.496094 11.152344 C 16.496094 11.101562 16.5 11.050781 16.5 11 C 16.5 7.953125 14.046875 5.5 11 5.5 Z M 7.566406 11.171875 C 7.5625 11.226562 7.5625 11.285156 7.5625 11.34375 C 7.5625 13.25 9.09375 14.78125 11 14.78125 C 12.90625 14.78125 14.4375 13.25 14.4375 11.34375 C 14.4375 11.285156 14.4375 11.226562 14.433594 11.171875 C 14.34375 12.996094 12.847656 14.4375 11 14.4375 C 9.152344 14.4375 7.65625 12.996094 7.566406 11.171875 Z M 7.566406 11.171875 "/>
<path style=" stroke:none;fill-rule:nonzero;fill:rgb(0%,0%,0%);fill-opacity:0.4;" d="M 5.503906 11.195312 C 5.503906 11.246094 5.5 11.296875 5.5 11.347656 C 5.5 14.394531 7.953125 16.847656 11 16.847656 C 14.046875 16.847656 16.5 14.394531 16.5 11.347656 C 16.5 11.296875 16.496094 11.246094 16.496094 11.195312 C 16.394531 14.152344 13.984375 16.503906 11 16.503906 C 8.015625 16.503906 5.605469 14.152344 5.503906 11.195312 Z M 5.503906 11.195312 "/>
<path style=" stroke:none;fill-rule:nonzero;fill:rgb(0%,0%,0%);fill-opacity:0.4;" d="M 3.441406 11.171875 C 3.4375 11.226562 3.4375 11.285156 3.4375 11.34375 C 3.4375 15.53125 6.8125 18.90625 11 18.90625 C 15.1875 18.90625 18.5625 15.53125 18.5625 11.34375 L 18.554688 11.34375 C 18.375 15.371094 15.074219 18.5625 11 18.5625 C 6.867188 18.5625 3.53125 15.28125 3.441406 11.171875 Z M 3.441406 11.171875 "/>
<path style=" stroke:none;fill-rule:nonzero;fill:rgb(0%,0%,0%);fill-opacity:0.2;" d="M 11 7.5625 C 9.214844 7.5625 7.753906 8.910156 7.578125 10.644531 C 7.566406 10.761719 7.5625 10.878906 7.5625 11 C 7.5625 11.085938 7.566406 11.167969 7.574219 11.253906 C 7.574219 11.222656 7.578125 11.191406 7.578125 11.160156 C 7.753906 9.425781 9.214844 8.078125 11 8.078125 C 12.816406 8.078125 14.296875 9.472656 14.425781 11.257812 C 14.433594 11.171875 14.4375 11.085938 14.4375 11 C 14.4375 9.09375 12.90625 7.5625 11 7.5625 Z M 1.386719 11 C 1.378906 11.167969 1.371094 11.339844 1.371094 11.511719 L 1.371094 11.515625 L 3.4375 11.515625 C 3.4375 15.703125 6.8125 19.074219 11 19.074219 L 11 18.558594 C 6.8125 18.558594 3.4375 15.1875 3.4375 11 Z M 20.613281 11.515625 C 20.34375 16.605469 16.160156 20.625 11 20.625 L 11 21.140625 C 16.332031 21.140625 20.625 16.847656 20.625 11.515625 Z M 20.613281 11.515625 "/>
<path style=" stroke:none;fill-rule:nonzero;fill:url(#linear0);" d="M 11 1.371094 C 5.667969 1.371094 1.371094 5.667969 1.371094 11 L 3.4375 11 C 3.4375 15.1875 6.8125 18.5625 11 18.5625 L 11 20.625 C 16.332031 20.625 20.625 16.332031 20.625 11 L 16.5 11 C 16.5 7.953125 14.046875 5.5 11 5.5 Z M 11 7.5625 C 12.90625 7.5625 14.4375 9.09375 14.4375 11 C 14.4375 12.90625 12.90625 14.4375 11 14.4375 C 9.09375 14.4375 7.5625 12.90625 7.5625 11 C 7.5625 10.882812 7.566406 10.761719 7.578125 10.648438 C 7.753906 8.910156 9.214844 7.5625 11 7.5625 Z M 11 7.5625 "/>
</g>
</svg>
