
<svg xmlns="http://www.w3.org/2000/svg" xmlns:xlink="http://www.w3.org/1999/xlink" width="24" height="24" viewBox="0 0 24 24" version="1.1">
<defs>
<linearGradient id="linear0" gradientUnits="userSpaceOnUse" x1="31.999998" y1="60" x2="31.999998" y2="4" gradientTransform="matrix(0.375,0,0,0.375,-0.000000113386,0.000000000000042633)">
<stop offset="0" style="stop-color:rgb(0%,0%,0%);stop-opacity:0.2;"/>
<stop offset="1" style="stop-color:rgb(100%,100%,100%);stop-opacity:0;"/>
</linearGradient>
</defs>
<g id="surface1">
<path style=" stroke:none;fill-rule:nonzero;fill:rgb(14.901961%,65.098041%,60.392159%);fill-opacity:1;" d="M 15 1.5 L 4.875 1.5 C 4.25 1.5 3.75 2 3.75 2.625 L 3.75 21.375 C 3.75 22 4.25 22.5 4.875 22.5 L 19.125 22.5 C 19.75 22.5 20.25 22 20.25 21.375 L 20.25 6.75 Z M 15 1.5 "/>
<path style=" stroke:none;fill-rule:nonzero;fill:rgb(0%,0%,0%);fill-opacity:0.4;" d="M 15 5.625 L 15 6 C 15 6.625 15.5 7.125 16.125 7.125 L 20.25 7.125 L 19.875 6.75 L 16.125 6.75 C 15.5 6.75 15 6.25 15 5.625 Z M 15 5.625 "/>
<path style=" stroke:none;fill-rule:nonzero;fill:rgb(30.19608%,71.372551%,67.450982%);fill-opacity:0.996078;" d="M 20.25 6.75 L 15 1.5 L 15 5.625 C 15 6.25 15.5 6.75 16.125 6.75 Z M 20.25 6.75 "/>
<path style=" stroke:none;fill-rule:nonzero;fill:rgb(100%,100%,100%);fill-opacity:0.4;" d="M 4.875 1.5 C 4.25 1.5 3.75 2 3.75 2.625 L 3.75 3 C 3.75 2.375 4.25 1.875 4.875 1.875 L 15 1.875 L 20.25 7.125 L 20.25 6.75 L 15 1.5 Z M 4.875 1.5 "/>
<path style=" stroke:none;fill-rule:nonzero;fill:rgb(0%,0%,0%);fill-opacity:0.2;" d="M 3.75 21.371094 L 3.75 21.9375 C 3.75 22.5625 4.25 23.0625 4.875 23.0625 L 19.125 23.0625 C 19.75 23.0625 20.25 22.5625 20.25 21.9375 L 20.25 21.371094 C 20.25 21.992188 19.75 22.496094 19.125 22.496094 L 4.875 22.496094 C 4.25 22.496094 3.75 21.992188 3.75 21.371094 Z M 3.75 21.371094 "/>
<path style=" stroke:none;fill-rule:nonzero;fill:rgb(0%,0%,0%);fill-opacity:0.4;" d="M 3.75 21.046875 L 3.75 21.375 C 3.75 22 4.25 22.5 4.875 22.5 L 19.125 22.5 C 19.75 22.5 20.25 22 20.25 21.375 L 20.25 21.046875 C 20.25 21.671875 19.75 22.171875 19.125 22.171875 L 4.875 22.171875 C 4.25 22.171875 3.75 21.671875 3.75 21.046875 Z M 3.75 21.046875 "/>
<path style=" stroke:none;fill-rule:nonzero;fill:rgb(50.196081%,79.607844%,76.862746%);fill-opacity:0.996078;" d="M 11.90625 8.996094 C 11.75 8.996094 11.625 9.125 11.625 9.277344 L 11.625 10.40625 C 11.625 10.527344 11.703125 10.632812 11.8125 10.671875 L 11.8125 10.898438 C 11.488281 10.980469 11.25 11.273438 11.25 11.625 C 11.25 11.761719 11.285156 11.890625 11.347656 12 L 10.171875 14.035156 L 9.996094 14.34375 L 9.421875 15.335938 C 9.355469 15.457031 9.355469 15.59375 9.417969 15.703125 C 9.417969 15.707031 9.417969 15.707031 9.417969 15.707031 C 9.335938 16.015625 9.214844 16.449219 9.183594 16.5 L 9.765625 15.898438 C 9.886719 15.894531 10.007812 15.828125 10.074219 15.710938 L 10.644531 14.722656 C 11.058594 14.902344 11.515625 15.003906 12 15.003906 C 12.480469 15.003906 12.941406 14.902344 13.355469 14.722656 L 13.925781 15.710938 C 13.996094 15.832031 14.117188 15.898438 14.242188 15.902344 C 14.472656 16.128906 14.785156 16.449219 14.816406 16.5 L 14.585938 15.699219 C 14.640625 15.589844 14.644531 15.453125 14.578125 15.335938 L 14.003906 14.347656 C 14.742188 13.800781 15.25 12.964844 15.355469 12 L 14.980469 12 C 14.875 12.824219 14.445312 13.542969 13.816406 14.019531 L 12.652344 12 C 12.714844 11.890625 12.75 11.761719 12.75 11.625 C 12.75 11.273438 12.511719 10.980469 12.1875 10.898438 L 12.1875 10.671875 C 12.296875 10.632812 12.375 10.527344 12.375 10.40625 L 12.375 9.277344 C 12.375 9.125 12.25 8.996094 12.09375 8.996094 Z M 12 12.375 L 13.164062 14.394531 C 12.808594 14.542969 12.414062 14.628906 12 14.628906 C 11.585938 14.628906 11.191406 14.542969 10.835938 14.394531 Z M 12 12.375 "/>
<path style=" stroke:none;fill-rule:nonzero;fill:rgb(100%,100%,100%);fill-opacity:0.4;" d="M 11.90625 8.996094 C 11.75 8.996094 11.625 9.125 11.625 9.277344 L 11.625 9.46875 C 11.625 9.3125 11.75 9.1875 11.90625 9.1875 L 12.09375 9.1875 C 12.25 9.1875 12.375 9.3125 12.375 9.46875 L 12.375 9.277344 C 12.375 9.125 12.25 8.996094 12.09375 8.996094 Z M 11.8125 10.898438 C 11.488281 10.980469 11.25 11.273438 11.25 11.625 C 11.25 11.65625 11.25 11.6875 11.253906 11.71875 C 11.292969 11.410156 11.519531 11.164062 11.8125 11.085938 Z M 12.1875 10.898438 L 12.1875 11.085938 C 12.484375 11.164062 12.707031 11.414062 12.746094 11.722656 C 12.75 11.6875 12.75 11.65625 12.75 11.625 C 12.75 11.273438 12.511719 10.980469 12.1875 10.898438 Z M 14.980469 12 C 14.875 12.824219 14.445312 13.542969 13.816406 14.019531 L 12.699219 12.085938 C 12.683594 12.121094 12.667969 12.15625 12.648438 12.191406 L 13.816406 14.210938 C 14.445312 13.734375 14.875 13.015625 14.980469 12.191406 L 15.332031 12.191406 C 15.339844 12.128906 15.351562 12.0625 15.355469 12 Z M 11.300781 12.085938 L 10.171875 14.035156 L 9.996094 14.347656 L 9.421875 15.335938 C 9.371094 15.425781 9.359375 15.527344 9.382812 15.617188 C 9.394531 15.585938 9.40625 15.558594 9.421875 15.527344 L 9.996094 14.535156 L 10.171875 14.226562 L 11.351562 12.191406 C 11.332031 12.15625 11.3125 12.121094 11.300781 12.085938 Z M 10.921875 14.429688 L 10.835938 14.582031 C 11.191406 14.734375 11.585938 14.816406 12 14.816406 C 12.414062 14.816406 12.808594 14.734375 13.164062 14.585938 L 13.074219 14.429688 C 12.742188 14.558594 12.378906 14.628906 12 14.628906 C 11.621094 14.628906 11.257812 14.558594 10.921875 14.429688 Z M 14.082031 14.476562 C 14.054688 14.5 14.03125 14.515625 14.003906 14.535156 L 14.578125 15.527344 C 14.59375 15.558594 14.605469 15.589844 14.617188 15.621094 C 14.640625 15.527344 14.628906 15.425781 14.578125 15.335938 Z M 14.617188 15.804688 C 14.609375 15.835938 14.597656 15.863281 14.585938 15.886719 L 14.734375 16.402344 C 14.777344 16.449219 14.804688 16.484375 14.816406 16.5 Z M 9.386719 15.820312 C 9.308594 16.113281 9.210938 16.453125 9.183594 16.5 L 9.277344 16.402344 C 9.320312 16.246094 9.375 16.054688 9.417969 15.894531 C 9.40625 15.871094 9.394531 15.84375 9.386719 15.820312 Z M 9.386719 15.820312 "/>
<path style=" stroke:none;fill-rule:nonzero;fill:rgb(0%,0%,0%);fill-opacity:0.4;" d="M 11.625 10.40625 L 11.625 10.628906 C 11.625 10.753906 11.703125 10.855469 11.8125 10.894531 L 11.8125 10.671875 C 11.703125 10.632812 11.625 10.527344 11.625 10.40625 Z M 12.375 10.40625 C 12.375 10.527344 12.296875 10.632812 12.1875 10.671875 L 12.1875 10.894531 C 12.296875 10.855469 12.375 10.753906 12.375 10.628906 Z M 11.257812 11.734375 C 11.253906 11.773438 11.25 11.8125 11.25 11.847656 C 11.25 11.9375 11.265625 12.019531 11.292969 12.101562 L 11.351562 12 C 11.304688 11.921875 11.273438 11.832031 11.257812 11.734375 Z M 12.742188 11.738281 C 12.726562 11.832031 12.695312 11.921875 12.648438 12 L 12.707031 12.097656 C 12.734375 12.019531 12.75 11.9375 12.75 11.847656 C 12.75 11.8125 12.746094 11.773438 12.742188 11.738281 Z M 15.324219 12.226562 C 15.171875 13.09375 14.6875 13.84375 14.003906 14.347656 L 14.09375 14.5 C 14.785156 13.957031 15.253906 13.148438 15.355469 12.226562 Z M 12 12.375 L 10.835938 14.394531 C 10.867188 14.40625 10.902344 14.421875 10.9375 14.433594 L 12 12.601562 L 13.058594 14.4375 C 13.09375 14.421875 13.128906 14.410156 13.164062 14.394531 Z M 10.644531 14.722656 L 10.074219 15.710938 C 10.007812 15.828125 9.886719 15.894531 9.765625 15.898438 L 9.289062 16.390625 C 9.242188 16.558594 9.199219 16.699219 9.183594 16.726562 L 9.765625 16.125 C 9.886719 16.117188 10.007812 16.054688 10.074219 15.9375 L 10.644531 14.945312 C 11.058594 15.125 11.515625 15.226562 12 15.226562 C 12.484375 15.226562 12.941406 15.128906 13.355469 14.945312 L 13.925781 15.9375 C 13.996094 16.054688 14.117188 16.121094 14.242188 16.125 C 14.472656 16.351562 14.785156 16.671875 14.816406 16.726562 L 14.71875 16.386719 C 14.601562 16.261719 14.402344 16.058594 14.242188 15.898438 C 14.117188 15.898438 13.996094 15.832031 13.925781 15.710938 L 13.355469 14.722656 C 12.941406 14.902344 12.484375 15.003906 12 15.003906 C 11.515625 15.003906 11.058594 14.902344 10.644531 14.722656 Z M 9.390625 15.636719 C 9.367188 15.703125 9.367188 15.769531 9.382812 15.835938 C 9.394531 15.792969 9.40625 15.746094 9.417969 15.707031 C 9.40625 15.683594 9.398438 15.660156 9.390625 15.636719 Z M 14.609375 15.636719 C 14.605469 15.660156 14.59375 15.679688 14.585938 15.699219 L 14.621094 15.820312 C 14.632812 15.761719 14.628906 15.699219 14.609375 15.636719 Z M 14.609375 15.636719 "/>
<path style=" stroke:none;fill-rule:nonzero;fill:url(#linear0);" d="M 15 1.5 L 4.875 1.5 C 4.25 1.5 3.75 2 3.75 2.625 L 3.75 21.375 C 3.75 22 4.25 22.5 4.875 22.5 L 19.125 22.5 C 19.75 22.5 20.25 22 20.25 21.375 L 20.25 6.75 Z M 15 1.5 "/>
</g>
</svg>
