
<svg xmlns="http://www.w3.org/2000/svg" xmlns:xlink="http://www.w3.org/1999/xlink" width="64" height="64" viewBox="0 0 64 64" version="1.1">
<defs>
<linearGradient id="linear0" gradientUnits="userSpaceOnUse" x1="8.466666" y1="-199.125" x2="8.466666" y2="-213.941666" gradientTransform="matrix(3.779528,0,0,3.779528,0,812.598468)">
<stop offset="0" style="stop-color:rgb(0%,0%,0%);stop-opacity:0.2;"/>
<stop offset="1" style="stop-color:rgb(100%,100%,100%);stop-opacity:0;"/>
</linearGradient>
</defs>
<g id="surface1">
<path style=" stroke:none;fill-rule:nonzero;fill:rgb(36.078432%,41.960785%,75.294119%);fill-opacity:1;" d="M 8 4 L 56 4 C 58.210938 4 60 5.789062 60 8 L 60 56 C 60 58.210938 58.210938 60 56 60 L 8 60 C 5.789062 60 4 58.210938 4 56 L 4 8 C 4 5.789062 5.789062 4 8 4 Z M 8 4 "/>
<path style=" stroke:none;fill-rule:nonzero;fill:rgb(90.980393%,91.764706%,96.470588%);fill-opacity:1;" d="M 36.269531 10 C 33.472656 10.425781 30.679688 10.84375 27.886719 11.265625 L 27.886719 41.582031 C 30.679688 40.835938 33.472656 40.082031 36.269531 39.335938 L 36.269531 27.621094 C 39.0625 32.226562 41.855469 36.824219 44.648438 41.429688 C 47.441406 40.378906 50.238281 39.335938 53.03125 38.285156 C 49.535156 34.09375 46.046875 29.90625 42.550781 25.714844 C 46.046875 21.175781 49.539062 16.636719 53.035156 12.101562 C 50.324219 11.398438 47.613281 10.703125 44.898438 10 C 42.019531 14.582031 39.144531 19.160156 36.269531 23.742188 Z M 19.199219 18.222656 C 18.160156 18.621094 17.527344 19.714844 16.675781 20.429688 C 16.128906 21.160156 14.707031 21.765625 15.359375 22.847656 C 16.492188 24.628906 17.628906 26.414062 18.765625 28.199219 C 18.589844 29.628906 17.742188 30.179688 16.421875 30.253906 C 14.820312 30.632812 13.191406 30.925781 11.605469 31.359375 C 10.761719 31.933594 11.257812 33.113281 11.125 33.980469 C 11.214844 34.871094 10.902344 35.875 11.359375 36.667969 C 12.910156 37.316406 14.65625 37.464844 16.292969 37.90625 C 17.121094 38.210938 18.453125 37.9375 18.429688 39.21875 C 19.214844 40.144531 18.019531 40.90625 17.660156 41.738281 C 16.851562 43.144531 15.757812 44.421875 15.160156 45.914062 C 15.503906 46.925781 16.578125 47.515625 17.25 48.335938 C 17.976562 48.875 18.472656 50.070312 19.492188 49.910156 C 21.355469 48.707031 23.230469 47.53125 25.09375 46.335938 C 26.527344 46.535156 27.128906 47.363281 27.1875 48.703125 C 27.628906 50.382812 27.832031 52.160156 28.421875 53.773438 C 29.4375 54.230469 30.660156 53.898438 31.765625 54 C 32.699219 53.878906 34.230469 54.449219 34.425781 53.105469 C 34.875 51.019531 35.324219 48.941406 35.773438 46.855469 C 36.835938 46.355469 37.804688 45.671875 38.6875 46.785156 C 40.152344 47.824219 41.601562 48.882812 43.078125 49.910156 C 44.117188 50.054688 44.625 48.832031 45.378906 48.277344 C 46.027344 47.476562 47.089844 46.910156 47.410156 45.914062 C 46.917969 44.617188 45.933594 43.535156 45.226562 42.335938 C 43.871094 42.945312 43.414062 41.253906 42.808594 40.414062 C 42.425781 39.789062 42.046875 39.164062 41.667969 38.535156 C 39.5625 43.910156 33.074219 46.925781 27.605469 45.101562 C 22.269531 43.550781 18.664062 37.773438 19.644531 32.300781 C 20.234375 28.324219 23.089844 24.800781 26.839844 23.367188 L 26.839844 21.074219 C 25.824219 21.890625 24.699219 21.933594 23.753906 21.003906 C 22.230469 20.101562 20.792969 18.964844 19.199219 18.222656 Z M 19.199219 18.222656 "/>
<path style=" stroke:none;fill-rule:nonzero;fill:rgb(0%,0%,0%);fill-opacity:0.4;" d="M 52.390625 12.9375 C 49.113281 17.191406 45.832031 21.453125 42.550781 25.714844 C 42.683594 25.875 42.816406 26.035156 42.953125 26.195312 C 46.3125 21.828125 49.675781 17.464844 53.035156 13.101562 C 52.820312 13.046875 52.605469 12.992188 52.390625 12.9375 Z M 15.339844 22.8125 C 15.160156 23.113281 15.117188 23.449219 15.359375 23.847656 C 16.4375 25.539062 17.511719 27.230469 18.59375 28.925781 C 18.671875 28.714844 18.730469 28.472656 18.765625 28.199219 C 17.628906 26.410156 16.492188 24.628906 15.359375 22.847656 C 15.351562 22.835938 15.34375 22.824219 15.339844 22.8125 Z M 26.84375 23.367188 C 23.089844 24.800781 20.234375 28.328125 19.644531 32.300781 C 19.503906 33.074219 19.460938 33.855469 19.5 34.628906 C 19.519531 34.1875 19.566406 33.742188 19.644531 33.300781 C 20.234375 29.328125 23.089844 25.800781 26.84375 24.367188 Z M 36.269531 27.621094 L 36.269531 28.621094 C 39.0625 33.226562 41.855469 37.824219 44.644531 42.433594 C 47.4375 41.382812 50.238281 40.335938 53.03125 39.285156 C 52.816406 39.03125 52.605469 38.777344 52.394531 38.523438 C 49.8125 39.492188 47.226562 40.460938 44.644531 41.433594 C 41.855469 36.824219 39.0625 32.226562 36.269531 27.621094 Z M 11.128906 33.152344 C 11.066406 33.546875 11.121094 33.992188 11.140625 34.417969 C 11.140625 34.269531 11.140625 34.125 11.125 33.984375 C 11.164062 33.726562 11.148438 33.441406 11.128906 33.152344 Z M 11.125 35.910156 C 11.09375 36.527344 11.054688 37.144531 11.359375 37.667969 C 12.90625 38.3125 14.65625 38.46875 16.292969 38.90625 C 17.121094 39.210938 18.453125 38.9375 18.425781 40.21875 C 18.472656 40.273438 18.511719 40.328125 18.546875 40.378906 C 18.734375 40.011719 18.777344 39.632812 18.425781 39.21875 C 18.453125 37.9375 17.121094 38.210938 16.292969 37.90625 C 14.65625 37.46875 12.90625 37.3125 11.359375 36.667969 C 11.222656 36.429688 11.15625 36.175781 11.125 35.910156 Z M 36.269531 39.335938 C 33.472656 40.082031 30.679688 40.835938 27.886719 41.582031 L 27.886719 42.582031 C 30.679688 41.835938 33.472656 41.082031 36.269531 40.335938 Z M 37.65625 46.1875 C 37.066406 46.15625 36.4375 46.542969 35.773438 46.855469 C 35.324219 48.9375 34.875 51.019531 34.425781 53.105469 C 34.230469 54.449219 32.699219 53.878906 31.765625 54 C 30.660156 53.898438 29.4375 54.234375 28.421875 53.773438 C 27.832031 52.164062 27.628906 50.386719 27.1875 48.703125 C 27.128906 47.363281 26.527344 46.535156 25.09375 46.332031 C 23.230469 47.53125 21.359375 48.707031 19.496094 49.910156 C 18.472656 50.070312 17.980469 48.875 17.25 48.332031 C 16.695312 47.652344 15.855469 47.128906 15.390625 46.390625 C 15.308594 46.5625 15.230469 46.738281 15.160156 46.917969 C 15.503906 47.925781 16.582031 48.515625 17.25 49.332031 C 17.980469 49.875 18.472656 51.070312 19.496094 50.910156 C 21.359375 49.707031 23.230469 48.53125 25.09375 47.332031 C 26.527344 47.535156 27.128906 48.363281 27.1875 49.703125 C 27.628906 51.386719 27.832031 53.164062 28.421875 54.773438 C 29.4375 55.234375 30.660156 54.898438 31.765625 55 C 32.699219 54.878906 34.230469 55.449219 34.425781 54.105469 C 34.875 52.019531 35.324219 49.9375 35.773438 47.855469 C 36.832031 47.355469 37.804688 46.671875 38.6875 47.78125 C 40.152344 48.824219 41.601562 49.886719 43.078125 50.910156 C 44.117188 51.058594 44.625 49.835938 45.378906 49.28125 C 46.023438 48.476562 47.09375 47.910156 47.410156 46.917969 C 47.34375 46.738281 47.265625 46.566406 47.183594 46.394531 C 46.734375 47.113281 45.914062 47.617188 45.378906 48.28125 C 44.625 48.835938 44.117188 50.058594 43.078125 49.910156 C 41.601562 48.886719 40.152344 47.824219 38.6875 46.78125 C 38.355469 46.367188 38.015625 46.203125 37.65625 46.1875 Z M 37.65625 46.1875 "/>
<path style=" stroke:none;fill-rule:nonzero;fill:rgb(0%,0%,0%);fill-opacity:0.4;" d="M 4 55 L 4 56 C 4 58.214844 5.785156 60 8 60 L 56 60 C 58.214844 60 60 58.214844 60 56 L 60 55 C 60 57.214844 58.214844 59 56 59 L 8 59 C 5.785156 59 4 57.214844 4 55 Z M 4 55 "/>
<path style=" stroke:none;fill-rule:nonzero;fill:rgb(0%,0%,0%);fill-opacity:0.2;" d="M 4 56 L 4 57.5 C 4 59.714844 5.785156 61.5 8 61.5 L 56 61.5 C 58.214844 61.5 60 59.714844 60 57.5 L 60 56 C 60 58.214844 58.214844 60 56 60 L 8 60 C 5.785156 60 4 58.214844 4 56 Z M 4 56 "/>
<path style=" stroke:none;fill-rule:nonzero;fill:rgb(100%,100%,100%);fill-opacity:0.4;" d="M 8 4 C 5.785156 4 4 5.785156 4 8 L 4 8.984375 C 4 6.769531 5.785156 4.984375 8 4.984375 L 56 4.984375 C 58.214844 4.984375 60 6.769531 60 8.984375 L 60 8 C 60 5.785156 58.214844 4 56 4 Z M 8 4 "/>
<path style=" stroke:none;fill-rule:nonzero;fill:rgb(99.215686%,99.215686%,99.215686%);fill-opacity:1;" d="M 36.269531 10 C 33.472656 10.425781 30.679688 10.84375 27.886719 11.265625 L 27.886719 12.265625 C 30.679688 11.84375 33.472656 11.425781 36.269531 11 Z M 44.902344 10 C 42.023438 14.582031 39.144531 19.160156 36.269531 23.738281 L 36.269531 24.738281 C 39.144531 20.160156 42.023438 15.582031 44.902344 11 C 47.398438 11.648438 49.894531 12.289062 52.390625 12.9375 C 52.605469 12.65625 52.820312 12.378906 53.035156 12.101562 C 50.324219 11.398438 47.613281 10.703125 44.902344 10 Z M 19.203125 18.21875 C 18.160156 18.621094 17.527344 19.714844 16.675781 20.425781 C 16.136719 21.152344 14.738281 21.753906 15.339844 22.8125 C 15.640625 22.300781 16.332031 21.890625 16.675781 21.425781 C 17.527344 20.714844 18.160156 19.621094 19.203125 19.21875 C 20.792969 19.964844 22.230469 21.101562 23.753906 22.003906 C 24.699219 22.933594 25.828125 22.890625 26.84375 22.074219 L 26.84375 21.074219 C 25.828125 21.890625 24.699219 21.933594 23.753906 21.003906 C 22.230469 20.101562 20.792969 18.964844 19.203125 18.21875 Z M 42.953125 26.195312 C 42.816406 26.367188 42.683594 26.542969 42.550781 26.714844 C 45.832031 30.652344 49.113281 34.585938 52.394531 38.523438 C 52.605469 38.445312 52.816406 38.363281 53.03125 38.285156 C 49.667969 34.253906 46.3125 30.226562 42.953125 26.195312 Z M 18.59375 28.925781 C 18.246094 29.824219 17.488281 30.195312 16.421875 30.253906 C 14.824219 30.632812 13.191406 30.925781 11.605469 31.359375 C 11.011719 31.761719 11.082031 32.46875 11.128906 33.152344 C 11.179688 32.839844 11.308594 32.5625 11.605469 32.359375 C 13.191406 31.925781 14.824219 31.632812 16.421875 31.253906 C 17.742188 31.179688 18.589844 30.628906 18.765625 29.199219 C 18.707031 29.109375 18.648438 29.019531 18.59375 28.925781 Z M 11.140625 34.417969 C 11.136719 34.914062 11.070312 35.429688 11.125 35.910156 C 11.140625 35.597656 11.15625 35.28125 11.125 34.984375 C 11.152344 34.804688 11.148438 34.613281 11.140625 34.417969 Z M 19.5 34.628906 C 19.261719 39.679688 22.703125 44.675781 27.605469 46.101562 C 33.074219 47.925781 39.5625 44.910156 41.667969 39.535156 C 42.046875 40.164062 42.425781 40.789062 42.808594 41.417969 C 43.414062 42.253906 43.871094 43.945312 45.230469 43.332031 C 45.839844 44.371094 46.65625 45.320312 47.183594 46.394531 C 47.277344 46.246094 47.355469 46.085938 47.410156 45.914062 C 46.921875 44.617188 45.933594 43.535156 45.230469 42.332031 C 43.871094 42.945312 43.414062 41.253906 42.808594 40.417969 C 42.425781 39.789062 42.046875 39.164062 41.667969 38.535156 C 39.5625 43.910156 33.074219 46.925781 27.605469 45.101562 C 23.027344 43.769531 19.722656 39.324219 19.5 34.628906 Z M 18.546875 40.378906 C 18.3125 40.839844 17.859375 41.277344 17.660156 41.738281 C 16.851562 43.140625 15.757812 44.421875 15.160156 45.917969 C 15.21875 46.085938 15.296875 46.242188 15.390625 46.390625 C 16.011719 45.117188 16.949219 43.976562 17.660156 42.738281 C 17.996094 41.953125 19.078125 41.234375 18.546875 40.378906 Z M 18.546875 40.378906 "/>
<path style=" stroke:none;fill-rule:nonzero;fill:url(#linear0);" d="M 8 4 L 56 4 C 58.210938 4 60 5.789062 60 8 L 60 56 C 60 58.210938 58.210938 60 56 60 L 8 60 C 5.789062 60 4 58.210938 4 56 L 4 8 C 4 5.789062 5.789062 4 8 4 Z M 8 4 "/>
</g>
</svg>
