
<svg xmlns="http://www.w3.org/2000/svg" xmlns:xlink="http://www.w3.org/1999/xlink" width="24" height="24" viewBox="0 0 24 24" version="1.1">
<defs>
<linearGradient id="linear0" gradientUnits="userSpaceOnUse" x1="31.999998" y1="60" x2="31.999998" y2="3.999999" gradientTransform="matrix(0.375,0,0,0.375,0,0.000000000000042633)">
<stop offset="0" style="stop-color:rgb(0%,0%,0%);stop-opacity:0.2;"/>
<stop offset="1" style="stop-color:rgb(100%,100%,100%);stop-opacity:0;"/>
</linearGradient>
</defs>
<g id="surface1">
<path style=" stroke:none;fill-rule:nonzero;fill:rgb(82.745099%,18.431373%,18.431373%);fill-opacity:1;" d="M 14.25 3 C 13.691406 3 13.207031 3.300781 12.949219 3.75 L 3.75 3.75 C 2.917969 3.75 2.25 4.417969 2.25 5.25 L 2.25 7.5 C 2.25 8.332031 2.917969 9 3.75 9 L 20.25 9 C 21.082031 9 21.75 8.332031 21.75 7.5 L 21.75 4.5 C 21.75 3.667969 21.082031 3 20.25 3 Z M 14.25 3 "/>
<path style=" stroke:none;fill-rule:nonzero;fill:rgb(100%,100%,100%);fill-opacity:0.4;" d="M 14.25 3 C 13.691406 3 13.207031 3.300781 12.949219 3.75 L 3.75 3.75 C 2.917969 3.75 2.25 4.417969 2.25 5.25 L 2.25 5.277344 C 2.328125 4.523438 2.964844 3.9375 3.742188 3.9375 L 12.941406 3.9375 C 13.199219 3.488281 13.683594 3.1875 14.242188 3.1875 L 20.242188 3.1875 C 21.070312 3.1875 21.742188 3.855469 21.742188 4.6875 L 21.742188 7.660156 C 21.746094 7.605469 21.75 7.554688 21.75 7.5 L 21.75 4.5 C 21.75 3.667969 21.082031 3 20.25 3 Z M 14.25 3 "/>
<path style=" stroke:none;fill-rule:nonzero;fill:rgb(95.686275%,26.274511%,21.176471%);fill-opacity:1;" d="M 3 4.5 C 2.167969 4.5 1.5 5.167969 1.5 6 L 1.5 19.5 C 1.5 20.332031 2.167969 21 3 21 L 21 21 C 21.832031 21 22.5 20.332031 22.5 19.5 L 22.5 7.5 C 22.5 6.667969 21.832031 6 21 6 L 14.269531 6 C 14.261719 6 14.257812 6 14.25 6 C 13.835938 6 13.5 5.664062 13.5 5.25 C 13.5 4.835938 13.164062 4.5 12.75 4.5 Z M 3 4.5 "/>
<path style=" stroke:none;fill-rule:nonzero;fill:rgb(100%,100%,100%);fill-opacity:0.4;" d="M 3 4.5 C 2.167969 4.5 1.5 5.167969 1.5 6 L 1.5 6.375 C 1.5 5.542969 2.167969 4.875 3 4.875 L 12.75 4.875 C 13.164062 4.875 13.5 5.210938 13.5 5.625 C 13.5 6.039062 13.835938 6.375 14.25 6.375 C 14.257812 6.375 14.261719 6.375 14.269531 6.375 L 21 6.375 C 21.832031 6.375 22.5 7.042969 22.5 7.875 L 22.5 7.5 C 22.5 6.667969 21.832031 6 21 6 L 14.269531 6 C 14.261719 6 14.257812 6 14.25 6 C 13.835938 6 13.5 5.664062 13.5 5.25 C 13.5 4.835938 13.164062 4.5 12.75 4.5 Z M 3 4.5 "/>
<path style=" stroke:none;fill-rule:nonzero;fill:rgb(0%,0%,0%);fill-opacity:0.4;" d="M 1.5 19.125 L 1.5 19.5 C 1.5 20.332031 2.167969 21 3 21 L 21 21 C 21.832031 21 22.5 20.332031 22.5 19.5 L 22.5 19.125 C 22.5 19.957031 21.832031 20.625 21 20.625 L 3 20.625 C 2.167969 20.625 1.5 19.957031 1.5 19.125 Z M 1.5 19.125 "/>
<path style=" stroke:none;fill-rule:nonzero;fill:rgb(0%,0%,0%);fill-opacity:0.2;" d="M 1.5 19.5 L 1.5 20.0625 C 1.5 20.894531 2.167969 21.5625 3 21.5625 L 21 21.5625 C 21.832031 21.5625 22.5 20.894531 22.5 20.0625 L 22.5 19.5 C 22.5 20.332031 21.832031 21 21 21 L 3 21 C 2.167969 21 1.5 20.332031 1.5 19.5 Z M 1.5 19.5 "/>
<path style=" stroke:none;fill-rule:nonzero;fill:rgb(93.725491%,60.392159%,60.392159%);fill-opacity:1;" d="M 11.625 9 C 11.417969 9 11.25 9.167969 11.25 9.375 L 11.25 14.0625 C 11.25 14.269531 11.417969 14.4375 11.625 14.4375 L 12.375 14.4375 C 12.582031 14.4375 12.75 14.269531 12.75 14.0625 L 12.75 9.375 C 12.75 9.167969 12.582031 9 12.375 9 Z M 11.980469 15 C 11.574219 15.011719 11.25 15.339844 11.25 15.75 C 11.25 16.164062 11.585938 16.5 12 16.5 C 12.414062 16.5 12.75 16.164062 12.75 15.75 C 12.75 15.335938 12.414062 15 12 15 C 11.992188 15 11.988281 15 11.980469 15 Z M 11.980469 15 "/>
<path style=" stroke:none;fill-rule:nonzero;fill:rgb(0%,0%,0%);fill-opacity:0.4;" d="M 11.25 14.0625 L 11.25 14.25 C 11.25 14.457031 11.417969 14.625 11.625 14.625 L 12.375 14.625 C 12.582031 14.625 12.75 14.457031 12.75 14.25 L 12.75 14.0625 C 12.75 14.269531 12.582031 14.4375 12.375 14.4375 L 11.625 14.4375 C 11.417969 14.4375 11.25 14.269531 11.25 14.0625 Z M 11.253906 15.84375 C 11.253906 15.875 11.25 15.90625 11.25 15.9375 C 11.25 16.351562 11.585938 16.6875 12 16.6875 C 12.414062 16.6875 12.75 16.351562 12.75 15.9375 C 12.75 15.90625 12.746094 15.875 12.746094 15.84375 C 12.699219 16.214844 12.382812 16.5 12 16.5 C 11.617188 16.5 11.300781 16.214844 11.257812 15.84375 Z M 11.253906 15.84375 "/>
<path style=" stroke:none;fill-rule:nonzero;fill:rgb(100%,100%,100%);fill-opacity:0.4;" d="M 11.625 9 C 11.417969 9 11.25 9.167969 11.25 9.375 L 11.25 9.5625 C 11.25 9.355469 11.417969 9.1875 11.625 9.1875 L 12.375 9.1875 C 12.582031 9.1875 12.75 9.355469 12.75 9.5625 L 12.75 9.375 C 12.75 9.167969 12.582031 9 12.375 9 Z M 11.980469 15 C 11.574219 15.011719 11.25 15.339844 11.25 15.75 C 11.25 15.78125 11.253906 15.8125 11.253906 15.84375 C 11.300781 15.476562 11.605469 15.195312 11.980469 15.1875 C 11.988281 15.1875 11.992188 15.1875 12 15.1875 C 12.382812 15.1875 12.699219 15.472656 12.742188 15.84375 C 12.746094 15.8125 12.75 15.78125 12.75 15.75 C 12.75 15.335938 12.414062 15 12 15 C 11.992188 15 11.988281 15 11.980469 15 Z M 11.980469 15 "/>
<path style=" stroke:none;fill-rule:nonzero;fill:url(#linear0);" d="M 14.25 3 C 13.691406 3 13.207031 3.300781 12.949219 3.75 L 3.75 3.75 C 3.140625 3.75 2.617188 4.109375 2.382812 4.632812 C 1.859375 4.867188 1.5 5.390625 1.5 6 L 1.5 19.5 C 1.5 20.332031 2.167969 21 3 21 L 21 21 C 21.832031 21 22.5 20.332031 22.5 19.5 L 22.5 7.5 C 22.5 6.941406 22.199219 6.460938 21.75 6.199219 L 21.75 4.5 C 21.75 3.667969 21.082031 3 20.25 3 Z M 14.25 3 "/>
</g>
</svg>
