
<svg xmlns="http://www.w3.org/2000/svg" xmlns:xlink="http://www.w3.org/1999/xlink" width="24" height="24" viewBox="0 0 24 24" version="1.1">
<defs>
<linearGradient id="linear0" gradientUnits="userSpaceOnUse" x1="10.054166" y1="-209.708328" x2="10.054166" y2="-212.883331" gradientTransform="matrix(1.417323,0,0,1.417323,0,304.724425)">
<stop offset="0" style="stop-color:rgb(0%,0%,0%);stop-opacity:0.2;"/>
<stop offset="1" style="stop-color:rgb(100%,100%,100%);stop-opacity:0;"/>
</linearGradient>
<linearGradient id="linear1" gradientUnits="userSpaceOnUse" x1="8.995832" y1="-200.183334" x2="8.995832" y2="-211.824997" gradientTransform="matrix(1.417323,0,0,1.417323,0,304.724425)">
<stop offset="0" style="stop-color:rgb(0%,0%,0%);stop-opacity:0.2;"/>
<stop offset="1" style="stop-color:rgb(100%,100%,100%);stop-opacity:0;"/>
</linearGradient>
</defs>
<g id="surface1">
<path style=" stroke:none;fill-rule:nonzero;fill:rgb(89.803922%,22.352941%,20.784314%);fill-opacity:1;" d="M 7.5 3 L 21 3 C 21.828125 3 22.5 3.671875 22.5 4.5 L 22.5 9 C 22.5 9.828125 21.828125 10.5 21 10.5 L 7.5 10.5 C 6.671875 10.5 6 9.828125 6 9 L 6 4.5 C 6 3.671875 6.671875 3 7.5 3 Z M 7.5 3 "/>
<path style=" stroke:none;fill-rule:nonzero;fill:url(#linear0);" d="M 7.5 3 L 21 3 C 21.828125 3 22.5 3.671875 22.5 4.5 L 22.5 9 C 22.5 9.828125 21.828125 10.5 21 10.5 L 7.5 10.5 C 6.671875 10.5 6 9.828125 6 9 L 6 4.5 C 6 3.671875 6.671875 3 7.5 3 Z M 7.5 3 "/>
<path style=" stroke:none;fill-rule:nonzero;fill:rgb(95.686275%,26.274511%,21.176471%);fill-opacity:1;" d="M 3 4.5 C 2.167969 4.5 1.5 5.167969 1.5 6 L 1.5 19.5 C 1.5 20.332031 2.167969 21 3 21 L 21 21 C 21.832031 21 22.5 20.332031 22.5 19.5 L 22.5 7.5 L 7.5 7.5 C 6.667969 7.5 6 6.832031 6 6 L 6 4.5 Z M 3 4.5 "/>
<path style=" stroke:none;fill-rule:nonzero;fill:rgb(95.686275%,26.274511%,21.176471%);fill-opacity:1;" d="M 3 4.5 C 2.167969 4.5 1.5 5.167969 1.5 6 L 1.5 19.5 C 1.5 20.332031 2.167969 21 3 21 L 21 21 C 21.832031 21 22.5 20.332031 22.5 19.5 L 22.5 7.5 L 7.5 7.5 C 6.667969 7.5 6 6.832031 6 6 L 6 4.5 Z M 3 4.5 "/>
<path style=" stroke:none;fill-rule:nonzero;fill:rgb(0.392157%,0.392157%,0.392157%);fill-opacity:0.4;" d="M 3 20.996094 C 2.167969 20.996094 1.5 20.328125 1.5 19.496094 L 1.5 19.132812 C 1.5 19.964844 2.167969 20.632812 3 20.632812 L 21 20.632812 C 21.832031 20.632812 22.5 19.964844 22.5 19.132812 L 22.5 19.496094 C 22.5 20.328125 21.832031 20.996094 21 20.996094 Z M 3 20.996094 "/>
<path style=" stroke:none;fill-rule:nonzero;fill:rgb(0%,0%,0%);fill-opacity:0.2;" d="M 1.5 19.5 L 1.5 20.0625 C 1.5 20.894531 2.167969 21.5625 3 21.5625 L 21 21.5625 C 21.832031 21.5625 22.5 20.894531 22.5 20.0625 L 22.5 19.5 C 22.5 20.332031 21.832031 21 21 21 L 3 21 C 2.167969 21 1.5 20.332031 1.5 19.5 Z M 1.5 19.5 "/>
<path style=" stroke:none;fill-rule:nonzero;fill:rgb(100%,100%,100%);fill-opacity:0.4;" d="M 3 4.5 C 2.167969 4.5 1.5 5.167969 1.5 6 L 1.5 6.375 C 1.5 5.542969 2.167969 4.875 3 4.875 L 6 4.875 L 6 4.5 Z M 6 6 L 6 6.375 C 6 7.207031 6.667969 7.875 7.5 7.875 L 22.5 7.875 L 22.5 7.5 L 7.5 7.5 C 6.667969 7.5 6 6.832031 6 6 Z M 6 6 "/>
<path style=" stroke:none;fill-rule:nonzero;fill:rgb(100%,100%,100%);fill-opacity:0.4;" d="M 7.5 3 C 6.667969 3 6 3.667969 6 4.5 L 6 4.6875 C 6 3.855469 6.667969 3.1875 7.5 3.1875 L 21 3.1875 C 21.832031 3.1875 22.5 3.855469 22.5 4.6875 L 22.5 4.5 C 22.5 3.667969 21.832031 3 21 3 Z M 7.5 3 "/>
<path style=" stroke:none;fill-rule:nonzero;fill:rgb(93.725491%,60.392159%,60.392159%);fill-opacity:1;" d="M 11.054688 9.75 C 10.953125 9.753906 10.875 9.835938 10.875 9.9375 L 10.875 10.5 L 10.5 10.5 C 9.667969 10.5 9 11.167969 9 12 L 9 12.375 C 9 13.207031 9.667969 13.875 10.5 13.875 L 12 13.875 C 12.414062 13.875 12.75 14.210938 12.75 14.625 L 12.75 15 C 12.75 15.414062 12.414062 15.75 12 15.75 L 10.5 15.75 C 10.085938 15.75 9.75 15.414062 9.75 15 C 9.75 14.894531 9.667969 14.8125 9.5625 14.8125 L 9.1875 14.8125 C 9.082031 14.8125 9 14.894531 9 15 C 9 15.003906 9 15.007812 9 15.011719 C 9.007812 15.835938 9.671875 16.5 10.5 16.5 L 10.875 16.5 L 10.875 17.0625 C 10.875 17.167969 10.957031 17.25 11.0625 17.25 L 11.4375 17.25 C 11.542969 17.25 11.625 17.167969 11.625 17.0625 L 11.625 16.5 L 12 16.5 C 12.832031 16.5 13.5 15.832031 13.5 15 L 13.5 14.625 C 13.5 13.792969 12.832031 13.125 12 13.125 L 10.5 13.125 C 10.085938 13.125 9.75 12.789062 9.75 12.375 L 9.75 12 C 9.75 11.585938 10.085938 11.25 10.5 11.25 L 12 11.25 C 12.414062 11.25 12.746094 11.578125 12.75 11.992188 C 12.75 11.992188 12.75 11.992188 12.75 11.996094 C 12.75 11.996094 12.75 12 12.75 12 C 12.75 12.105469 12.832031 12.1875 12.9375 12.1875 L 13.3125 12.1875 C 13.417969 12.1875 13.5 12.105469 13.5 12 C 13.5 11.167969 12.832031 10.5 12 10.5 L 11.625 10.5 L 11.625 9.9375 C 11.625 9.832031 11.542969 9.75 11.4375 9.75 L 11.0625 9.75 C 11.058594 9.75 11.054688 9.75 11.054688 9.75 Z M 13.679688 16.5 C 13.578125 16.503906 13.5 16.585938 13.5 16.6875 L 13.5 17.0625 C 13.5 17.167969 13.582031 17.25 13.6875 17.25 L 14.8125 17.25 C 14.917969 17.25 15 17.167969 15 17.0625 L 15 16.6875 C 15 16.582031 14.917969 16.5 14.8125 16.5 L 13.6875 16.5 C 13.683594 16.5 13.679688 16.5 13.679688 16.5 Z M 13.679688 16.5 "/>
<path style=" stroke:none;fill-rule:nonzero;fill:rgb(100%,100%,100%);fill-opacity:0.4;" d="M 11.054688 9.75 C 10.953125 9.753906 10.875 9.835938 10.875 9.9375 L 10.875 10.125 C 10.875 10.023438 10.953125 9.941406 11.054688 9.9375 C 11.054688 9.9375 11.058594 9.9375 11.0625 9.9375 L 11.4375 9.9375 C 11.542969 9.9375 11.625 10.023438 11.625 10.125 L 11.625 9.9375 C 11.625 9.832031 11.542969 9.75 11.4375 9.75 L 11.0625 9.75 C 11.058594 9.75 11.054688 9.75 11.054688 9.75 Z M 10.5 10.5 C 9.667969 10.5 9 11.167969 9 12 L 9 12.1875 C 9 11.355469 9.667969 10.6875 10.5 10.6875 L 10.875 10.6875 L 10.875 10.5 Z M 11.625 10.5 L 11.625 10.6875 L 12 10.6875 C 12.785156 10.6875 13.421875 11.285156 13.492188 12.046875 C 13.496094 12.03125 13.5 12.015625 13.5 12 C 13.5 11.167969 12.832031 10.5 12 10.5 Z M 9.75 12.375 L 9.75 12.5625 C 9.75 12.976562 10.085938 13.3125 10.5 13.3125 L 12 13.3125 C 12.832031 13.3125 13.5 13.980469 13.5 14.8125 L 13.5 14.625 C 13.5 13.792969 12.832031 13.125 12 13.125 L 10.5 13.125 C 10.085938 13.125 9.75 12.789062 9.75 12.375 Z M 9.1875 14.8125 C 9.082031 14.8125 9 14.894531 9 15 C 9 15.003906 9 15.007812 9 15.011719 C 9 15.054688 9.003906 15.09375 9.007812 15.136719 C 9.03125 15.058594 9.101562 15 9.1875 15 L 9.5625 15 C 9.667969 15 9.75 15.082031 9.75 15.1875 C 9.75 15.601562 10.085938 15.9375 10.5 15.9375 L 12 15.9375 C 12.414062 15.9375 12.75 15.601562 12.75 15.1875 L 12.75 15 C 12.75 15.414062 12.414062 15.75 12 15.75 L 10.5 15.75 C 10.085938 15.75 9.75 15.414062 9.75 15 C 9.75 14.894531 9.667969 14.8125 9.5625 14.8125 Z M 13.679688 16.5 C 13.578125 16.503906 13.5 16.585938 13.5 16.6875 L 13.5 16.875 C 13.5 16.773438 13.578125 16.691406 13.679688 16.6875 C 13.679688 16.6875 13.683594 16.6875 13.6875 16.6875 L 14.8125 16.6875 C 14.917969 16.6875 15 16.769531 15 16.875 L 15 16.6875 C 15 16.582031 14.917969 16.5 14.8125 16.5 L 13.6875 16.5 C 13.683594 16.5 13.679688 16.5 13.679688 16.5 Z M 13.679688 16.5 "/>
<path style=" stroke:none;fill-rule:nonzero;fill:rgb(0%,0%,0%);fill-opacity:0.4;" d="M 10.5 11.25 C 10.085938 11.25 9.75 11.585938 9.75 12 L 9.75 12.1875 C 9.75 11.773438 10.085938 11.4375 10.5 11.4375 L 12 11.4375 C 12.414062 11.4375 12.746094 11.765625 12.75 12.179688 C 12.75 12.179688 12.75 12.179688 12.75 12.183594 C 12.75 12.183594 12.75 12.183594 12.75 12.1875 C 12.75 12.292969 12.832031 12.375 12.9375 12.375 L 13.3125 12.375 C 13.417969 12.375 13.5 12.292969 13.5 12.1875 C 13.5 12.140625 13.496094 12.097656 13.492188 12.050781 C 13.472656 12.128906 13.398438 12.1875 13.3125 12.1875 L 12.9375 12.1875 C 12.832031 12.1875 12.75 12.105469 12.75 12 C 12.75 11.996094 12.75 11.996094 12.75 11.996094 C 12.75 11.992188 12.75 11.992188 12.75 11.992188 C 12.746094 11.578125 12.414062 11.25 12 11.25 Z M 9 12.375 L 9 12.5625 C 9 13.394531 9.667969 14.0625 10.5 14.0625 L 12 14.0625 C 12.414062 14.0625 12.75 14.398438 12.75 14.8125 L 12.75 14.625 C 12.75 14.210938 12.414062 13.875 12 13.875 L 10.5 13.875 C 9.667969 13.875 9 13.207031 9 12.375 Z M 13.5 15 C 13.5 15.832031 12.832031 16.5 12 16.5 L 11.625 16.5 L 11.625 16.6875 L 12 16.6875 C 12.832031 16.6875 13.5 16.019531 13.5 15.1875 Z M 9.007812 15.136719 C 9.003906 15.152344 9 15.171875 9 15.1875 C 9 15.191406 9 15.195312 9 15.199219 C 9.007812 16.023438 9.671875 16.6875 10.5 16.6875 L 10.875 16.6875 L 10.875 16.5 L 10.5 16.5 C 9.714844 16.5 9.074219 15.902344 9.007812 15.136719 Z M 10.875 17.0625 L 10.875 17.25 C 10.875 17.355469 10.957031 17.4375 11.0625 17.4375 L 11.4375 17.4375 C 11.542969 17.4375 11.625 17.355469 11.625 17.25 L 11.625 17.0625 C 11.625 17.167969 11.542969 17.25 11.4375 17.25 L 11.0625 17.25 C 10.957031 17.25 10.875 17.167969 10.875 17.0625 Z M 13.5 17.0625 L 13.5 17.25 C 13.5 17.355469 13.582031 17.4375 13.6875 17.4375 L 14.8125 17.4375 C 14.917969 17.4375 15 17.355469 15 17.25 L 15 17.0625 C 15 17.167969 14.917969 17.25 14.8125 17.25 L 13.6875 17.25 C 13.582031 17.25 13.5 17.167969 13.5 17.0625 Z M 13.5 17.0625 "/>
<path style=" stroke:none;fill-rule:nonzero;fill:url(#linear1);" d="M 3 4.5 C 2.167969 4.5 1.5 5.167969 1.5 6 L 1.5 19.5 C 1.5 20.332031 2.167969 21 3 21 L 21 21 C 21.832031 21 22.5 20.332031 22.5 19.5 L 22.5 7.5 L 7.5 7.5 C 6.667969 7.5 6 6.832031 6 6 L 6 4.5 Z M 3 4.5 "/>
</g>
</svg>
