
<svg xmlns="http://www.w3.org/2000/svg" xmlns:xlink="http://www.w3.org/1999/xlink" width="24" height="24" viewBox="0 0 24 24" version="1.1">
<defs>
<linearGradient id="linear0" gradientUnits="userSpaceOnUse" x1="10.054166" y1="-209.708328" x2="10.054166" y2="-212.883331" gradientTransform="matrix(1.417323,0,0,1.417323,0,304.724425)">
<stop offset="0" style="stop-color:rgb(0%,0%,0%);stop-opacity:0.2;"/>
<stop offset="1" style="stop-color:rgb(100%,100%,100%);stop-opacity:0;"/>
</linearGradient>
<linearGradient id="linear1" gradientUnits="userSpaceOnUse" x1="8.995832" y1="-200.183334" x2="8.995832" y2="-211.824997" gradientTransform="matrix(1.417323,0,0,1.417323,0,304.724425)">
<stop offset="0" style="stop-color:rgb(0%,0%,0%);stop-opacity:0.2;"/>
<stop offset="1" style="stop-color:rgb(100%,100%,100%);stop-opacity:0;"/>
</linearGradient>
</defs>
<g id="surface1">
<path style=" stroke:none;fill-rule:nonzero;fill:rgb(89.803922%,22.352941%,20.784314%);fill-opacity:1;" d="M 7.5 3 L 21 3 C 21.828125 3 22.5 3.671875 22.5 4.5 L 22.5 9 C 22.5 9.828125 21.828125 10.5 21 10.5 L 7.5 10.5 C 6.671875 10.5 6 9.828125 6 9 L 6 4.5 C 6 3.671875 6.671875 3 7.5 3 Z M 7.5 3 "/>
<path style=" stroke:none;fill-rule:nonzero;fill:url(#linear0);" d="M 7.5 3 L 21 3 C 21.828125 3 22.5 3.671875 22.5 4.5 L 22.5 9 C 22.5 9.828125 21.828125 10.5 21 10.5 L 7.5 10.5 C 6.671875 10.5 6 9.828125 6 9 L 6 4.5 C 6 3.671875 6.671875 3 7.5 3 Z M 7.5 3 "/>
<path style=" stroke:none;fill-rule:nonzero;fill:rgb(95.686275%,26.274511%,21.176471%);fill-opacity:1;" d="M 3 4.5 C 2.167969 4.5 1.5 5.167969 1.5 6 L 1.5 19.5 C 1.5 20.332031 2.167969 21 3 21 L 21 21 C 21.832031 21 22.5 20.332031 22.5 19.5 L 22.5 7.5 L 7.5 7.5 C 6.667969 7.5 6 6.832031 6 6 L 6 4.5 Z M 3 4.5 "/>
<path style=" stroke:none;fill-rule:nonzero;fill:rgb(95.686275%,26.274511%,21.176471%);fill-opacity:1;" d="M 3 4.5 C 2.167969 4.5 1.5 5.167969 1.5 6 L 1.5 19.5 C 1.5 20.332031 2.167969 21 3 21 L 21 21 C 21.832031 21 22.5 20.332031 22.5 19.5 L 22.5 7.5 L 7.5 7.5 C 6.667969 7.5 6 6.832031 6 6 L 6 4.5 Z M 3 4.5 "/>
<path style=" stroke:none;fill-rule:nonzero;fill:rgb(93.725491%,60.392159%,60.392159%);fill-opacity:1;" d="M 11.953125 9.75 C 9.898438 9.777344 8.25 11.4375 8.25 13.5 C 8.25 15.578125 9.921875 17.25 12 17.25 C 14.078125 17.25 15.75 15.578125 15.75 13.5 C 15.75 11.421875 14.078125 9.75 12 9.75 C 11.984375 9.75 11.96875 9.75 11.953125 9.75 Z M 12 10.5 C 13.660156 10.5 15 11.839844 15 13.5 L 14.25 13.5 C 14.25 12.253906 13.246094 11.25 12 11.25 Z M 12 12.75 C 12.414062 12.75 12.75 13.085938 12.75 13.5 C 12.75 13.914062 12.414062 14.25 12 14.25 C 11.585938 14.25 11.25 13.914062 11.25 13.5 C 11.25 13.085938 11.585938 12.75 12 12.75 Z M 9 13.5 L 9.75 13.5 C 9.75 14.746094 10.753906 15.75 12 15.75 L 12 16.5 C 10.339844 16.5 9 15.160156 9 13.5 Z M 9 13.5 "/>
<path style=" stroke:none;fill-rule:nonzero;fill:rgb(0.392157%,0.392157%,0.392157%);fill-opacity:0.4;" d="M 3 20.996094 C 2.167969 20.996094 1.5 20.328125 1.5 19.496094 L 1.5 19.132812 C 1.5 19.964844 2.167969 20.632812 3 20.632812 L 21 20.632812 C 21.832031 20.632812 22.5 19.964844 22.5 19.132812 L 22.5 19.496094 C 22.5 20.328125 21.832031 20.996094 21 20.996094 Z M 3 20.996094 "/>
<path style=" stroke:none;fill-rule:nonzero;fill:rgb(0%,0%,0%);fill-opacity:0.2;" d="M 1.5 19.5 L 1.5 20.0625 C 1.5 20.894531 2.167969 21.5625 3 21.5625 L 21 21.5625 C 21.832031 21.5625 22.5 20.894531 22.5 20.0625 L 22.5 19.5 C 22.5 20.332031 21.832031 21 21 21 L 3 21 C 2.167969 21 1.5 20.332031 1.5 19.5 Z M 1.5 19.5 "/>
<path style=" stroke:none;fill-rule:nonzero;fill:rgb(100%,100%,100%);fill-opacity:0.4;" d="M 3 4.5 C 2.167969 4.5 1.5 5.167969 1.5 6 L 1.5 6.375 C 1.5 5.542969 2.167969 4.875 3 4.875 L 6 4.875 L 6 4.5 Z M 6 6 L 6 6.375 C 6 7.207031 6.667969 7.875 7.5 7.875 L 22.5 7.875 L 22.5 7.5 L 7.5 7.5 C 6.667969 7.5 6 6.832031 6 6 Z M 6 6 "/>
<path style=" stroke:none;fill-rule:nonzero;fill:rgb(100%,100%,100%);fill-opacity:0.4;" d="M 7.5 3 C 6.667969 3 6 3.667969 6 4.5 L 6 4.6875 C 6 3.855469 6.667969 3.1875 7.5 3.1875 L 21 3.1875 C 21.832031 3.1875 22.5 3.855469 22.5 4.6875 L 22.5 4.5 C 22.5 3.667969 21.832031 3 21 3 Z M 7.5 3 "/>
<path style=" stroke:none;fill-rule:nonzero;fill:rgb(89.411765%,89.411765%,89.411765%);fill-opacity:0.4;" d="M 11.953125 9.75 C 9.898438 9.777344 8.25 11.4375 8.25 13.5 C 8.25 13.527344 8.25 13.550781 8.253906 13.578125 C 8.308594 11.566406 9.933594 9.960938 11.953125 9.9375 C 11.96875 9.9375 11.984375 9.9375 12 9.9375 C 14.039062 9.9375 15.6875 11.550781 15.746094 13.574219 C 15.75 13.550781 15.75 13.523438 15.75 13.5 C 15.75 11.421875 14.078125 9.75 12 9.75 C 11.984375 9.75 11.96875 9.75 11.953125 9.75 Z M 12 11.25 L 12 11.4375 C 13.246094 11.4375 14.25 12.441406 14.25 13.6875 L 15 13.6875 C 15 13.625 14.996094 13.5625 14.992188 13.5 L 14.25 13.5 C 14.25 12.253906 13.246094 11.25 12 11.25 Z M 11.257812 13.59375 C 11.25 13.625 11.25 13.65625 11.25 13.6875 C 11.25 14.101562 11.585938 14.4375 12 14.4375 C 12.414062 14.4375 12.75 14.101562 12.75 13.6875 C 12.75 13.65625 12.75 13.625 12.742188 13.59375 C 12.699219 13.964844 12.382812 14.25 12 14.25 C 11.617188 14.25 11.300781 13.964844 11.257812 13.59375 Z M 9 13.6875 C 9 15.347656 10.339844 16.6875 12 16.6875 L 12 16.5 C 10.402344 16.5 9.101562 15.261719 9.007812 13.6875 Z M 9 13.6875 "/>
<path style=" stroke:none;fill-rule:nonzero;fill:rgb(15.294118%,15.294118%,15.294118%);fill-opacity:0.4;" d="M 12 10.5 L 12 10.6875 C 13.597656 10.6875 14.898438 11.925781 14.992188 13.5 L 15 13.5 C 15 11.839844 13.660156 10.5 12 10.5 Z M 12 12.75 C 11.585938 12.75 11.25 13.085938 11.25 13.5 C 11.25 13.53125 11.253906 13.5625 11.257812 13.59375 C 11.300781 13.222656 11.617188 12.9375 12 12.9375 C 12.382812 12.9375 12.699219 13.222656 12.742188 13.59375 C 12.746094 13.5625 12.75 13.53125 12.75 13.5 C 12.75 13.085938 12.414062 12.75 12 12.75 Z M 9 13.5 C 9 13.5625 9.003906 13.625 9.007812 13.6875 L 9.75 13.6875 C 9.75 14.933594 10.753906 15.9375 12 15.9375 L 12 15.75 C 10.753906 15.75 9.75 14.746094 9.75 13.5 Z M 8.25 13.597656 C 8.25 13.628906 8.25 13.65625 8.25 13.6875 C 8.25 15.765625 9.921875 17.4375 12 17.4375 C 14.078125 17.4375 15.75 15.765625 15.75 13.6875 C 15.75 13.65625 15.75 13.628906 15.75 13.597656 C 15.699219 15.628906 14.046875 17.25 12 17.25 C 9.953125 17.25 8.300781 15.628906 8.25 13.597656 Z M 8.25 13.597656 "/>
<path style=" stroke:none;fill-rule:nonzero;fill:url(#linear1);" d="M 3 4.5 C 2.167969 4.5 1.5 5.167969 1.5 6 L 1.5 19.5 C 1.5 20.332031 2.167969 21 3 21 L 21 21 C 21.832031 21 22.5 20.332031 22.5 19.5 L 22.5 7.5 L 7.5 7.5 C 6.667969 7.5 6 6.832031 6 6 L 6 4.5 Z M 3 4.5 "/>
</g>
</svg>
