
<svg xmlns="http://www.w3.org/2000/svg" xmlns:xlink="http://www.w3.org/1999/xlink" width="24" height="24" viewBox="0 0 24 24" version="1.1">
<defs>
<linearGradient id="linear0" gradientUnits="userSpaceOnUse" x1="10.054166" y1="-209.708328" x2="10.054166" y2="-212.883331" gradientTransform="matrix(1.417323,0,0,1.417323,0,304.724425)">
<stop offset="0" style="stop-color:rgb(0%,0%,0%);stop-opacity:0.2;"/>
<stop offset="1" style="stop-color:rgb(100%,100%,100%);stop-opacity:0;"/>
</linearGradient>
<linearGradient id="linear1" gradientUnits="userSpaceOnUse" x1="8.995832" y1="-200.183334" x2="8.995832" y2="-211.824997" gradientTransform="matrix(1.417323,0,0,1.417323,0,304.724425)">
<stop offset="0" style="stop-color:rgb(0%,0%,0%);stop-opacity:0.2;"/>
<stop offset="1" style="stop-color:rgb(100%,100%,100%);stop-opacity:0;"/>
</linearGradient>
</defs>
<g id="surface1">
<path style=" stroke:none;fill-rule:nonzero;fill:rgb(89.803922%,22.352941%,20.784314%);fill-opacity:1;" d="M 7.5 3 L 21 3 C 21.828125 3 22.5 3.671875 22.5 4.5 L 22.5 9 C 22.5 9.828125 21.828125 10.5 21 10.5 L 7.5 10.5 C 6.671875 10.5 6 9.828125 6 9 L 6 4.5 C 6 3.671875 6.671875 3 7.5 3 Z M 7.5 3 "/>
<path style=" stroke:none;fill-rule:nonzero;fill:url(#linear0);" d="M 7.5 3 L 21 3 C 21.828125 3 22.5 3.671875 22.5 4.5 L 22.5 9 C 22.5 9.828125 21.828125 10.5 21 10.5 L 7.5 10.5 C 6.671875 10.5 6 9.828125 6 9 L 6 4.5 C 6 3.671875 6.671875 3 7.5 3 Z M 7.5 3 "/>
<path style=" stroke:none;fill-rule:nonzero;fill:rgb(95.686275%,26.274511%,21.176471%);fill-opacity:1;" d="M 3 4.5 C 2.167969 4.5 1.5 5.167969 1.5 6 L 1.5 19.5 C 1.5 20.332031 2.167969 21 3 21 L 21 21 C 21.832031 21 22.5 20.332031 22.5 19.5 L 22.5 7.5 L 7.5 7.5 C 6.667969 7.5 6 6.832031 6 6 L 6 4.5 Z M 3 4.5 "/>
<path style=" stroke:none;fill-rule:nonzero;fill:rgb(95.686275%,26.274511%,21.176471%);fill-opacity:1;" d="M 3 4.5 C 2.167969 4.5 1.5 5.167969 1.5 6 L 1.5 19.5 C 1.5 20.332031 2.167969 21 3 21 L 21 21 C 21.832031 21 22.5 20.332031 22.5 19.5 L 22.5 7.5 L 7.5 7.5 C 6.667969 7.5 6 6.832031 6 6 L 6 4.5 Z M 3 4.5 "/>
<path style=" stroke:none;fill-rule:nonzero;fill:rgb(93.725491%,60.392159%,60.392159%);fill-opacity:1;" d="M 11.949219 9.75 C 11.707031 9.753906 11.464844 9.78125 11.234375 9.828125 L 10.984375 11.078125 C 10.777344 11.164062 10.585938 11.273438 10.410156 11.410156 L 9.203125 11 C 9.035156 11.191406 8.882812 11.398438 8.753906 11.625 C 8.621094 11.851562 8.515625 12.085938 8.4375 12.328125 L 9.394531 13.167969 C 9.382812 13.277344 9.375 13.386719 9.375 13.5 C 9.375 13.613281 9.382812 13.722656 9.394531 13.832031 L 8.4375 14.671875 C 8.515625 14.914062 8.621094 15.148438 8.753906 15.375 C 8.882812 15.601562 9.035156 15.808594 9.203125 16 L 10.410156 15.589844 C 10.585938 15.726562 10.777344 15.835938 10.984375 15.921875 L 11.234375 17.171875 C 11.480469 17.222656 11.738281 17.25 12 17.25 C 12.261719 17.25 12.519531 17.222656 12.765625 17.171875 L 13.015625 15.921875 C 13.222656 15.835938 13.414062 15.726562 13.589844 15.589844 L 14.796875 16 C 14.964844 15.808594 15.117188 15.601562 15.246094 15.375 C 15.378906 15.148438 15.484375 14.914062 15.5625 14.671875 L 14.605469 13.832031 C 14.617188 13.722656 14.625 13.613281 14.625 13.5 C 14.625 13.386719 14.617188 13.277344 14.605469 13.167969 L 15.5625 12.328125 C 15.484375 12.085938 15.378906 11.851562 15.246094 11.625 C 15.117188 11.398438 14.964844 11.191406 14.796875 11 L 13.589844 11.410156 C 13.414062 11.273438 13.222656 11.164062 13.015625 11.078125 L 12.765625 9.828125 C 12.519531 9.777344 12.261719 9.75 12 9.75 C 11.984375 9.75 11.96875 9.75 11.949219 9.75 Z M 12 12 C 12.832031 12 13.5 12.667969 13.5 13.5 C 13.5 14.332031 12.832031 15 12 15 C 11.167969 15 10.5 14.332031 10.5 13.5 C 10.5 12.667969 11.167969 12 12 12 Z M 12 12 "/>
<path style=" stroke:none;fill-rule:nonzero;fill:rgb(0.392157%,0.392157%,0.392157%);fill-opacity:0.4;" d="M 3 20.996094 C 2.167969 20.996094 1.5 20.328125 1.5 19.496094 L 1.5 19.132812 C 1.5 19.964844 2.167969 20.632812 3 20.632812 L 21 20.632812 C 21.832031 20.632812 22.5 19.964844 22.5 19.132812 L 22.5 19.496094 C 22.5 20.328125 21.832031 20.996094 21 20.996094 Z M 3 20.996094 "/>
<path style=" stroke:none;fill-rule:nonzero;fill:rgb(0%,0%,0%);fill-opacity:0.2;" d="M 1.5 19.5 L 1.5 20.0625 C 1.5 20.894531 2.167969 21.5625 3 21.5625 L 21 21.5625 C 21.832031 21.5625 22.5 20.894531 22.5 20.0625 L 22.5 19.5 C 22.5 20.332031 21.832031 21 21 21 L 3 21 C 2.167969 21 1.5 20.332031 1.5 19.5 Z M 1.5 19.5 "/>
<path style=" stroke:none;fill-rule:nonzero;fill:rgb(100%,100%,100%);fill-opacity:0.4;" d="M 3 4.5 C 2.167969 4.5 1.5 5.167969 1.5 6 L 1.5 6.375 C 1.5 5.542969 2.167969 4.875 3 4.875 L 6 4.875 L 6 4.5 Z M 6 6 L 6 6.375 C 6 7.207031 6.667969 7.875 7.5 7.875 L 22.5 7.875 L 22.5 7.5 L 7.5 7.5 C 6.667969 7.5 6 6.832031 6 6 Z M 6 6 "/>
<path style=" stroke:none;fill-rule:nonzero;fill:rgb(100%,100%,100%);fill-opacity:0.4;" d="M 7.5 3 C 6.667969 3 6 3.667969 6 4.5 L 6 4.6875 C 6 3.855469 6.667969 3.1875 7.5 3.1875 L 21 3.1875 C 21.832031 3.1875 22.5 3.855469 22.5 4.6875 L 22.5 4.5 C 22.5 3.667969 21.832031 3 21 3 Z M 7.5 3 "/>
<path style=" stroke:none;fill-rule:nonzero;fill:rgb(0%,0%,0%);fill-opacity:0.4;" d="M 12 12 C 11.167969 12 10.5 12.667969 10.5 13.5 C 10.5 13.53125 10.5 13.5625 10.503906 13.59375 C 10.550781 12.804688 11.199219 12.1875 12 12.1875 C 12.800781 12.1875 13.449219 12.804688 13.496094 13.59375 C 13.5 13.5625 13.5 13.53125 13.5 13.5 C 13.5 12.667969 12.832031 12 12 12 Z M 8.488281 12.371094 C 8.46875 12.417969 8.453125 12.464844 8.4375 12.515625 L 9.378906 13.34375 C 9.382812 13.285156 9.386719 13.226562 9.394531 13.167969 Z M 15.511719 12.371094 L 14.605469 13.167969 C 14.613281 13.226562 14.617188 13.285156 14.621094 13.34375 L 15.5625 12.515625 C 15.546875 12.464844 15.53125 12.417969 15.511719 12.371094 Z M 9.378906 13.59375 C 9.375 13.625 9.375 13.65625 9.375 13.6875 C 9.375 13.738281 9.375 13.792969 9.378906 13.84375 L 9.394531 13.828125 C 9.386719 13.75 9.378906 13.671875 9.378906 13.59375 Z M 14.621094 13.59375 C 14.621094 13.671875 14.613281 13.75 14.605469 13.828125 L 14.621094 13.84375 C 14.625 13.792969 14.625 13.738281 14.625 13.6875 C 14.625 13.65625 14.625 13.625 14.621094 13.59375 Z M 8.488281 14.816406 L 8.4375 14.859375 C 8.515625 15.101562 8.621094 15.335938 8.753906 15.5625 C 8.882812 15.789062 9.035156 15.996094 9.203125 16.1875 L 10.410156 15.777344 C 10.585938 15.914062 10.777344 16.023438 10.984375 16.109375 L 11.234375 17.359375 C 11.480469 17.410156 11.738281 17.4375 12 17.4375 C 12.261719 17.4375 12.519531 17.410156 12.765625 17.359375 L 13.015625 16.109375 C 13.222656 16.023438 13.414062 15.914062 13.589844 15.777344 L 14.796875 16.1875 C 14.964844 15.996094 15.117188 15.789062 15.246094 15.5625 C 15.378906 15.335938 15.484375 15.101562 15.5625 14.859375 L 15.511719 14.816406 C 15.441406 15.003906 15.351562 15.191406 15.246094 15.375 C 15.117188 15.601562 14.964844 15.808594 14.796875 15.996094 L 13.589844 15.589844 C 13.414062 15.722656 13.222656 15.835938 13.015625 15.921875 L 12.765625 17.171875 C 12.519531 17.222656 12.261719 17.25 12 17.25 C 11.738281 17.25 11.480469 17.222656 11.234375 17.171875 L 10.984375 15.921875 C 10.777344 15.835938 10.585938 15.722656 10.410156 15.589844 L 9.203125 15.996094 C 9.035156 15.808594 8.882812 15.601562 8.753906 15.375 C 8.648438 15.191406 8.558594 15.003906 8.488281 14.816406 Z M 8.488281 14.816406 "/>
<path style=" stroke:none;fill-rule:nonzero;fill:rgb(99.607843%,99.607843%,99.607843%);fill-opacity:0.4;" d="M 12 15.1875 C 11.167969 15.1875 10.5 14.519531 10.5 13.6875 C 10.5 13.65625 10.5 13.625 10.503906 13.59375 C 10.550781 14.378906 11.199219 15 12 15 C 12.800781 15 13.449219 14.378906 13.496094 13.59375 C 13.5 13.625 13.5 13.65625 13.5 13.6875 C 13.5 14.519531 12.832031 15.1875 12 15.1875 Z M 8.488281 14.816406 C 8.46875 14.769531 8.453125 14.71875 8.4375 14.671875 L 9.378906 13.84375 C 9.382812 13.902344 9.386719 13.960938 9.394531 14.019531 Z M 15.511719 14.816406 L 14.605469 14.019531 C 14.613281 13.960938 14.617188 13.902344 14.621094 13.84375 L 15.5625 14.671875 C 15.546875 14.71875 15.53125 14.769531 15.511719 14.816406 Z M 9.378906 13.59375 C 9.375 13.5625 9.375 13.53125 9.375 13.5 C 9.375 13.445312 9.375 13.394531 9.378906 13.34375 L 9.394531 13.355469 C 9.386719 13.433594 9.378906 13.515625 9.378906 13.59375 Z M 14.621094 13.59375 C 14.621094 13.511719 14.613281 13.433594 14.605469 13.355469 L 14.621094 13.34375 C 14.625 13.394531 14.625 13.445312 14.625 13.5 C 14.625 13.53125 14.625 13.5625 14.621094 13.59375 Z M 8.488281 12.371094 L 8.4375 12.324219 C 8.515625 12.085938 8.621094 11.851562 8.753906 11.625 C 8.882812 11.398438 9.035156 11.1875 9.203125 11 L 10.410156 11.40625 C 10.585938 11.273438 10.777344 11.164062 10.984375 11.074219 L 11.234375 9.828125 C 11.480469 9.777344 11.738281 9.75 12 9.75 C 12.261719 9.75 12.519531 9.777344 12.765625 9.828125 L 13.015625 11.074219 C 13.222656 11.164062 13.414062 11.273438 13.589844 11.40625 L 14.796875 11 C 14.964844 11.1875 15.117188 11.398438 15.246094 11.625 C 15.378906 11.851562 15.484375 12.085938 15.5625 12.324219 L 15.511719 12.371094 C 15.441406 12.179688 15.351562 11.996094 15.246094 11.8125 C 15.117188 11.585938 14.964844 11.378906 14.796875 11.1875 L 13.589844 11.597656 C 13.414062 11.464844 13.222656 11.351562 13.015625 11.265625 L 12.765625 10.015625 C 12.519531 9.964844 12.261719 9.9375 12 9.9375 C 11.738281 9.9375 11.480469 9.964844 11.234375 10.015625 L 10.984375 11.265625 C 10.777344 11.351562 10.585938 11.464844 10.410156 11.597656 L 9.203125 11.1875 C 9.035156 11.378906 8.882812 11.585938 8.753906 11.8125 C 8.648438 11.996094 8.558594 12.179688 8.488281 12.371094 Z M 8.488281 12.371094 "/>
<path style=" stroke:none;fill-rule:nonzero;fill:url(#linear1);" d="M 3 4.5 C 2.167969 4.5 1.5 5.167969 1.5 6 L 1.5 19.5 C 1.5 20.332031 2.167969 21 3 21 L 21 21 C 21.832031 21 22.5 20.332031 22.5 19.5 L 22.5 7.5 L 7.5 7.5 C 6.667969 7.5 6 6.832031 6 6 L 6 4.5 Z M 3 4.5 "/>
</g>
</svg>
