
<svg xmlns="http://www.w3.org/2000/svg" xmlns:xlink="http://www.w3.org/1999/xlink" width="64" height="64" viewBox="0 0 64 64" version="1.1">
<defs>
<linearGradient id="linear0" gradientUnits="userSpaceOnUse" x1="10.054166" y1="-199.125" x2="10.054166" y2="-213.941666" gradientTransform="matrix(3.779528,0,0,3.779528,-0.00126458,812.598468)">
<stop offset="0" style="stop-color:rgb(0%,0%,0%);stop-opacity:0.2;"/>
<stop offset="1" style="stop-color:rgb(100%,100%,100%);stop-opacity:0;"/>
</linearGradient>
</defs>
<g id="surface1">
<path style=" stroke:none;fill-rule:nonzero;fill:rgb(92.54902%,25.098041%,47.843137%);fill-opacity:1;" d="M 8 4 L 56 4 C 58.210938 4 60 5.789062 60 8 L 60 56 C 60 58.210938 58.210938 60 56 60 L 8 60 C 5.789062 60 4 58.210938 4 56 L 4 8 C 4 5.789062 5.789062 4 8 4 Z M 8 4 "/>
<path style=" stroke:none;fill-rule:nonzero;fill:rgb(0%,0%,0%);fill-opacity:0.4;" d="M 4 55 L 4 56 C 4 58.214844 5.785156 60 8 60 L 56 60 C 58.214844 60 60 58.214844 60 56 L 60 55 C 60 57.214844 58.214844 59 56 59 L 8 59 C 5.785156 59 4 57.214844 4 55 Z M 4 55 "/>
<path style=" stroke:none;fill-rule:nonzero;fill:rgb(0%,0%,0%);fill-opacity:0.2;" d="M 4 56 L 4 57.5 C 4 59.714844 5.785156 61.5 8 61.5 L 56 61.5 C 58.214844 61.5 60 59.714844 60 57.5 L 60 56 C 60 58.214844 58.214844 60 56 60 L 8 60 C 5.785156 60 4 58.214844 4 56 Z M 4 56 "/>
<path style=" stroke:none;fill-rule:nonzero;fill:rgb(100%,100%,100%);fill-opacity:0.4;" d="M 8 4 C 5.785156 4 4 5.785156 4 8 L 4 8.984375 C 4 6.769531 5.785156 4.984375 8 4.984375 L 56 4.984375 C 58.214844 4.984375 60 6.769531 60 8.984375 L 60 8 C 60 5.785156 58.214844 4 56 4 Z M 8 4 "/>
<path style=" stroke:none;fill-rule:nonzero;fill:rgb(93.333334%,93.333334%,93.333334%);fill-opacity:1;" d="M 21.996094 14.003906 C 20.894531 14.003906 20 14.894531 19.996094 15.996094 L 19.996094 47.996094 C 19.996094 48.839844 20.523438 49.59375 21.316406 49.878906 C 22.105469 50.167969 22.992188 49.929688 23.535156 49.28125 L 32.9375 38.003906 L 40.003906 38.003906 C 40.953125 38 41.773438 37.328125 41.957031 36.394531 L 43.960938 26.390625 L 45.960938 16.394531 C 46.078125 15.808594 45.925781 15.199219 45.546875 14.738281 C 45.167969 14.273438 44.601562 14.003906 44.003906 14.003906 Z M 24 17.996094 L 41.558594 17.996094 L 40.355469 24 L 32 24 C 30.90625 24.015625 30.027344 24.90625 30.03125 26 C 30.027344 27.09375 30.90625 27.984375 32 28 L 39.558594 28 L 38.363281 34 L 32 34 C 31.40625 34 30.84375 34.261719 30.464844 34.71875 L 24 42.476562 Z M 24 17.996094 "/>
<path style=" stroke:none;fill-rule:nonzero;fill:rgb(99.607843%,99.607843%,99.607843%);fill-opacity:1;" d="M 22 14.003906 C 20.898438 14.003906 20.003906 14.894531 20 15.996094 L 20 17 C 20 15.898438 20.894531 15.007812 22 15.003906 L 44.003906 15.003906 C 44.917969 15.007812 45.710938 15.628906 45.9375 16.515625 L 45.957031 16.394531 C 46.074219 15.808594 45.925781 15.199219 45.546875 14.738281 C 45.167969 14.273438 44.601562 14.007812 44.003906 14.003906 Z M 41.359375 19 L 40.359375 24 L 32 24 C 30.90625 24.015625 30.027344 24.90625 30.03125 26 C 30.03125 26.167969 30.054688 26.335938 30.101562 26.5 C 30.328125 25.632812 31.101562 25.019531 32 25 L 40.359375 25 L 41.5625 19 Z M 39.359375 29 L 38.363281 34 L 32 34 C 31.40625 34 30.84375 34.261719 30.464844 34.71875 L 24 42.472656 L 24 43.480469 L 30.464844 35.71875 C 30.84375 35.265625 31.40625 35.003906 32 35.003906 L 38.363281 35.003906 L 39.558594 29 Z M 39.359375 29 "/>
<path style=" stroke:none;fill-rule:nonzero;fill:rgb(0%,0%,0%);fill-opacity:0.4;" d="M 45.9375 16.515625 L 43.957031 26.390625 L 41.957031 36.394531 C 41.773438 37.332031 40.953125 38.003906 40 38.003906 L 32.9375 38.003906 L 23.53125 49.285156 C 22.992188 49.929688 22.105469 50.171875 21.316406 49.882812 C 20.523438 49.59375 19.996094 48.84375 20 48 L 20 49 C 19.996094 49.84375 20.523438 50.59375 21.316406 50.882812 C 22.105469 51.171875 22.992188 50.929688 23.53125 50.285156 L 32.9375 39.003906 L 40 39.003906 C 40.953125 39.003906 41.773438 38.332031 41.957031 37.394531 L 43.957031 27.390625 L 45.957031 17.398438 C 46.015625 17.105469 46.007812 16.804688 45.9375 16.515625 Z M 24 18 L 24 19 L 41.359375 19 L 41.5625 18 Z M 30.101562 26.5 C 30.054688 26.664062 30.03125 26.832031 30.03125 27 C 30.027344 28.09375 30.90625 28.984375 32 29 L 39.359375 29 L 39.558594 28 L 32 28 C 31.101562 27.984375 30.324219 27.371094 30.101562 26.5 Z M 30.101562 26.5 "/>
<path style=" stroke:none;fill-rule:nonzero;fill:url(#linear0);" d="M 8 4 L 56 4 C 58.210938 4 60 5.789062 60 8 L 60 56 C 60 58.210938 58.210938 60 56 60 L 8 60 C 5.789062 60 4 58.210938 4 56 L 4 8 C 4 5.789062 5.789062 4 8 4 Z M 8 4 "/>
</g>
</svg>
