
<svg xmlns="http://www.w3.org/2000/svg" xmlns:xlink="http://www.w3.org/1999/xlink" width="64" height="64" viewBox="0 0 64 64" version="1.1">
<defs>
<linearGradient id="linear0" gradientUnits="userSpaceOnUse" x1="8.466666" y1="-199.125" x2="8.466666" y2="-213.941666" gradientTransform="matrix(3.779528,0,0,3.779528,0,812.59845)">
<stop offset="0" style="stop-color:rgb(0%,0%,0%);stop-opacity:0.2;"/>
<stop offset="1" style="stop-color:rgb(100%,100%,100%);stop-opacity:0;"/>
</linearGradient>
</defs>
<g id="surface1">
<path style=" stroke:none;fill-rule:nonzero;fill:rgb(87.843138%,87.843138%,87.843138%);fill-opacity:1;" d="M 36.789062 4.429688 C 33.519531 3.851562 30.238281 3.875 27.074219 4.441406 C 27.324219 7.132812 25.820312 9.78125 23.183594 10.878906 C 20.550781 11.976562 17.613281 11.183594 15.875 9.113281 C 13.25 10.964844 10.925781 13.28125 9.035156 16.007812 C 11.101562 17.742188 11.902344 20.664062 10.816406 23.296875 C 9.734375 25.929688 7.113281 27.441406 4.425781 27.222656 C 3.851562 30.488281 3.875 33.773438 4.441406 36.933594 C 5.464844 36.84375 6.480469 37.003906 7.40625 37.386719 C 8.910156 38.003906 10.179688 39.199219 10.855469 40.824219 C 11.949219 43.453125 11.164062 46.378906 9.109375 48.121094 C 10.957031 50.742188 13.273438 53.070312 16 54.960938 C 17.734375 52.90625 20.648438 52.109375 23.277344 53.191406 C 25.902344 54.273438 27.414062 56.890625 27.199219 59.570312 C 30.46875 60.148438 33.75 60.125 36.910156 59.5625 C 36.675781 56.878906 38.175781 54.246094 40.804688 53.152344 C 43.433594 52.054688 46.359375 52.84375 48.101562 54.902344 C 50.726562 53.054688 53.054688 50.742188 54.945312 48.015625 C 52.886719 46.28125 52.085938 43.363281 53.171875 40.730469 C 54.253906 38.097656 56.878906 36.585938 59.566406 36.808594 C 60.144531 33.539062 60.125 30.257812 59.566406 27.097656 C 56.871094 27.339844 54.230469 25.839844 53.132812 23.203125 C 52.03125 20.566406 52.828125 17.632812 54.898438 15.890625 C 53.050781 13.265625 50.734375 10.9375 48.007812 9.046875 C 46.277344 11.117188 43.347656 11.921875 40.710938 10.835938 C 38.074219 9.75 36.558594 7.121094 36.789062 4.429688 Z M 36.789062 4.429688 "/>
<path style=" stroke:none;fill-rule:nonzero;fill:rgb(100%,100%,100%);fill-opacity:0.501961;" d="M 31.890625 4.007812 C 30.269531 4.011719 28.65625 4.15625 27.078125 4.4375 C 27.105469 4.773438 27.109375 5.105469 27.089844 5.429688 C 30.242188 4.867188 33.519531 4.84375 36.78125 5.421875 C 36.757812 5.09375 36.761719 4.761719 36.789062 4.429688 C 35.15625 4.140625 33.515625 4 31.890625 4.007812 Z M 36.785156 5.46875 C 36.578125 8.144531 38.089844 10.753906 40.710938 11.832031 C 43.347656 12.917969 46.277344 12.113281 48.007812 10.039062 C 50.527344 11.789062 52.699219 13.90625 54.46875 16.292969 C 54.609375 16.152344 54.75 16.015625 54.902344 15.890625 C 53.050781 13.265625 50.734375 10.9375 48.007812 9.046875 C 46.277344 11.117188 43.347656 11.921875 40.710938 10.839844 C 38.414062 9.894531 36.972656 7.773438 36.785156 5.46875 Z M 27.078125 5.515625 C 26.898438 7.8125 25.46875 9.925781 23.183594 10.878906 C 20.550781 11.976562 17.617188 11.183594 15.875 9.113281 C 13.25 10.964844 10.925781 13.28125 9.035156 16.011719 C 9.183594 16.136719 9.328125 16.265625 9.460938 16.40625 C 11.273438 13.933594 13.445312 11.820312 15.875 10.109375 C 17.617188 12.175781 20.550781 12.96875 23.183594 11.871094 C 25.792969 10.785156 27.289062 8.179688 27.078125 5.515625 Z M 52.65625 21.25 C 52.582031 22.222656 52.726562 23.230469 53.128906 24.199219 C 54.230469 26.832031 56.871094 28.335938 59.5625 28.089844 C 59.820312 29.53125 59.964844 31 59.988281 32.480469 C 60.023438 30.664062 59.878906 28.859375 59.5625 27.09375 C 56.871094 27.339844 54.230469 25.835938 53.128906 23.203125 C 52.863281 22.5625 52.710938 21.90625 52.65625 21.25 Z M 11.28125 21.363281 C 11.226562 22.011719 11.078125 22.664062 10.816406 23.296875 C 9.734375 25.929688 7.113281 27.441406 4.429688 27.222656 C 4.117188 28.984375 3.984375 30.746094 4.011719 32.496094 C 4.039062 31.074219 4.175781 29.640625 4.429688 28.214844 C 7.113281 28.433594 9.734375 26.921875 10.816406 24.292969 C 11.210938 23.332031 11.355469 22.332031 11.28125 21.363281 Z M 52.707031 43.65625 C 52.5625 45.5 53.234375 47.308594 54.519531 48.609375 C 54.664062 48.414062 54.808594 48.214844 54.949219 48.015625 C 53.636719 46.914062 52.839844 45.335938 52.707031 43.65625 Z M 11.328125 43.777344 C 11.195312 45.445312 10.410156 47.019531 9.109375 48.121094 C 9.25 48.320312 9.390625 48.515625 9.539062 48.710938 C 10.8125 47.410156 11.472656 45.609375 11.328125 43.777344 Z M 36.90625 59.507812 C 36.90625 59.527344 36.902344 59.546875 36.902344 59.5625 C 36.90625 59.5625 36.90625 59.5625 36.910156 59.5625 C 36.910156 59.542969 36.910156 59.527344 36.90625 59.507812 Z M 36.90625 59.507812 "/>
<path style=" stroke:none;fill-rule:nonzero;fill:rgb(0%,0%,0%);fill-opacity:0.4;" d="M 32 60 C 30.375 59.996094 28.765625 59.847656 27.183594 59.566406 C 27.214844 59.234375 27.21875 58.902344 27.195312 58.574219 C 30.351562 59.136719 33.628906 59.160156 36.890625 58.585938 C 36.867188 58.914062 36.867188 59.246094 36.894531 59.578125 C 35.261719 59.867188 33.625 60.003906 32 60 Z M 36.894531 58.539062 C 36.6875 55.863281 38.195312 53.253906 40.820312 52.175781 C 43.457031 51.089844 46.382812 51.894531 48.117188 53.96875 C 50.636719 52.21875 52.804688 50.097656 54.578125 47.714844 C 54.714844 47.855469 54.855469 47.988281 55.007812 48.117188 C 53.160156 50.742188 50.84375 53.070312 48.117188 54.960938 C 46.382812 52.886719 43.457031 52.082031 40.820312 53.167969 C 38.523438 54.113281 37.078125 56.230469 36.894531 58.539062 Z M 27.1875 58.492188 C 27.003906 56.191406 25.574219 54.078125 23.292969 53.128906 C 20.65625 52.027344 17.722656 52.824219 15.984375 54.894531 C 13.359375 53.042969 11.03125 50.726562 9.144531 47.996094 C 9.292969 47.871094 9.433594 47.738281 9.570312 47.601562 C 11.378906 50.070312 13.554688 52.1875 15.984375 53.898438 C 17.722656 51.828125 20.65625 51.039062 23.292969 52.136719 C 25.902344 53.222656 27.398438 55.824219 27.1875 58.492188 Z M 52.765625 42.757812 C 52.691406 41.78125 52.835938 40.777344 53.238281 39.808594 C 54.335938 37.175781 56.980469 35.671875 59.671875 35.917969 C 59.929688 34.472656 60.070312 33.007812 60.097656 31.527344 C 60.128906 33.34375 59.984375 35.144531 59.671875 36.910156 C 56.980469 36.667969 54.335938 38.167969 53.238281 40.804688 C 52.972656 41.445312 52.816406 42.101562 52.765625 42.757812 Z M 11.386719 42.644531 C 11.335938 41.996094 11.183594 41.34375 10.925781 40.707031 C 9.839844 38.078125 7.21875 36.5625 4.535156 36.785156 C 4.226562 35.023438 4.089844 33.257812 4.121094 31.511719 C 4.148438 32.933594 4.285156 34.363281 4.535156 35.792969 C 7.21875 35.570312 9.839844 37.082031 10.925781 39.714844 C 11.320312 40.675781 11.464844 41.675781 11.386719 42.644531 Z M 52.816406 20.351562 C 52.671875 18.507812 53.339844 16.699219 54.628906 15.394531 C 54.773438 15.589844 54.914062 15.789062 55.054688 15.992188 C 53.746094 17.089844 52.949219 18.671875 52.816406 20.351562 Z M 11.4375 20.230469 C 11.304688 18.558594 10.515625 16.984375 9.21875 15.886719 C 9.355469 15.6875 9.5 15.492188 9.644531 15.296875 C 10.917969 16.597656 11.582031 18.398438 11.4375 20.230469 Z M 37.015625 4.5 C 37.015625 4.480469 37.011719 4.460938 37.011719 4.441406 C 37.011719 4.441406 37.015625 4.441406 37.019531 4.445312 C 37.015625 4.460938 37.015625 4.480469 37.015625 4.5 Z M 37.015625 4.5 "/>
<path style=" stroke:none;fill-rule:nonzero;fill:rgb(0%,0%,0%);fill-opacity:0.2;" d="M 54.265625 16.523438 C 53.058594 17.867188 52.46875 19.679688 52.6875 21.503906 C 52.875 19.917969 53.652344 18.433594 54.902344 17.386719 C 54.695312 17.09375 54.484375 16.808594 54.265625 16.523438 Z M 9.664062 16.636719 C 9.449219 16.921875 9.238281 17.210938 9.035156 17.503906 C 10.28125 18.550781 11.066406 20.03125 11.253906 21.621094 C 11.46875 19.792969 10.875 17.976562 9.664062 16.636719 Z M 59.984375 32.703125 C 59.945312 34.074219 59.8125 35.449219 59.566406 36.824219 C 56.878906 36.601562 54.253906 38.113281 53.171875 40.746094 C 52.742188 41.789062 52.609375 42.878906 52.734375 43.921875 C 52.800781 43.351562 52.941406 42.78125 53.171875 42.226562 C 54.253906 39.59375 56.878906 38.082031 59.566406 38.304688 C 59.898438 36.433594 60.03125 34.558594 59.984375 32.703125 Z M 4.015625 32.796875 C 3.96875 34.699219 4.109375 36.582031 4.4375 38.425781 C 5.464844 38.335938 6.480469 38.5 7.40625 38.882812 C 8.910156 39.5 10.175781 40.695312 10.855469 42.324219 C 11.089844 42.886719 11.234375 43.460938 11.300781 44.035156 C 11.425781 42.988281 11.292969 41.890625 10.855469 40.84375 C 10.175781 39.214844 8.910156 38.019531 7.40625 37.402344 C 6.480469 37.019531 5.464844 36.855469 4.4375 36.949219 C 4.195312 35.582031 4.054688 34.195312 4.015625 32.796875 Z M 54.316406 48.898438 C 52.546875 51.25 50.441406 53.269531 48.101562 54.917969 C 46.359375 52.859375 43.433594 52.070312 40.804688 53.167969 C 38.175781 54.261719 36.675781 56.894531 36.910156 59.578125 C 33.75 60.140625 30.46875 60.164062 27.203125 59.585938 C 27.414062 56.90625 25.902344 54.289062 23.277344 53.207031 C 20.652344 52.125 17.734375 52.917969 16 54.972656 C 13.574219 53.292969 11.476562 51.269531 9.742188 48.996094 C 9.542969 49.214844 9.335938 49.425781 9.109375 49.617188 C 10.957031 52.242188 13.273438 54.566406 16 56.453125 C 17.734375 54.398438 20.652344 53.609375 23.277344 54.6875 C 25.902344 55.769531 27.414062 58.386719 27.203125 61.066406 C 30.46875 61.644531 33.75 61.621094 36.910156 61.058594 C 36.675781 58.375 38.175781 55.742188 40.804688 54.648438 C 43.433594 53.554688 46.359375 54.339844 48.101562 56.398438 C 50.726562 54.550781 53.054688 52.238281 54.949219 49.511719 C 54.722656 49.320312 54.511719 49.113281 54.316406 48.898438 Z M 54.316406 48.898438 "/>
<path style=" stroke:none;fill-rule:nonzero;fill:rgb(74.117649%,74.117649%,74.117649%);fill-opacity:1;" d="M 32 16 C 40.835938 16 48 23.164062 48 32 C 48 40.835938 40.835938 48 32 48 C 23.164062 48 16 40.835938 16 32 C 16 23.164062 23.164062 16 32 16 Z M 32 16 "/>
<path style=" stroke:none;fill-rule:nonzero;fill:rgb(0%,0%,0%);fill-opacity:0.4;" d="M 32 16 C 23.136719 16 16 23.136719 16 32 C 16 32.167969 16.003906 32.332031 16.011719 32.5 C 16.273438 23.871094 23.304688 17 32 17 C 40.695312 17 47.726562 23.871094 47.988281 32.5 C 47.996094 32.332031 48 32.167969 48 32 C 48 23.136719 40.863281 16 32 16 Z M 32 16 "/>
<path style=" stroke:none;fill-rule:nonzero;fill:rgb(100%,100%,100%);fill-opacity:0.6;" d="M 32 49 C 23.136719 49 16 41.863281 16 33 C 16 32.832031 16.003906 32.667969 16.007812 32.5 C 16.273438 41.128906 23.304688 48 32 48 C 40.695312 48 47.726562 41.128906 47.988281 32.5 C 47.996094 32.667969 48 32.832031 48 33 C 48 41.863281 40.863281 49 32 49 Z M 32 49 "/>
<path style=" stroke:none;fill-rule:nonzero;fill:rgb(40.000001%,73.333335%,41.568628%);fill-opacity:0.996078;" d="M 38 4 L 38 23.988281 C 36.332031 22.738281 34.253906 22 32 22 C 26.460938 22 22 26.460938 22 32 C 22 37.539062 26.460938 42 32 42 C 37.539062 42 42 37.539062 42 32 L 42 14 C 44 16 56 12 50 28 C 64 6 44.082031 7.933594 38 4 Z M 38 4 "/>
<path style=" stroke:none;fill-rule:nonzero;fill:rgb(0.392157%,0.392157%,0.392157%);fill-opacity:0.4;" d="M 42 14.03125 L 42 14.96875 C 43.570312 16.539062 51.3125 14.410156 51.652344 21.183594 C 52 13.28125 43.640625 15.671875 42 14.03125 Z M 54.875 16 C 54.75 18.703125 53.53125 22.21875 50.722656 26.859375 C 50.519531 27.523438 50.28125 28.222656 50 28.96875 C 53.695312 23.160156 55.027344 19.019531 54.875 16 Z M 42 32.03125 C 42 37.570312 37.539062 42.03125 32 42.03125 C 26.617188 42.03125 22.253906 37.820312 22.011719 32.5 C 22.003906 32.65625 22 32.8125 22 32.96875 C 22 38.507812 26.460938 42.96875 32 42.96875 C 37.539062 42.96875 42 38.507812 42 32.96875 Z M 42 32.03125 "/>
<path style=" stroke:none;fill-rule:nonzero;fill:rgb(64.705884%,83.92157%,65.490198%);fill-opacity:0.996078;" d="M 29.117188 25.617188 C 29.605469 26.105469 29.050781 27.449219 27.878906 28.621094 C 26.707031 29.792969 25.363281 30.347656 24.875 29.859375 C 24.386719 29.371094 24.9375 28.023438 26.109375 26.855469 C 27.28125 25.683594 28.628906 25.128906 29.117188 25.617188 Z M 29.117188 25.617188 "/>
<path style=" stroke:none;fill-rule:nonzero;fill:rgb(100%,100%,100%);fill-opacity:0.4;" d="M 38 4 L 38 5 C 42.46875 7.886719 54.394531 7.613281 54.875 15.972656 C 55.3125 6.589844 42.636719 6.996094 38 4 Z M 51.648438 21.132812 C 51.574219 22.871094 51.085938 25.105469 50 28 C 50.277344 27.5625 50.519531 27.152344 50.769531 26.734375 C 51.484375 24.386719 51.734375 22.558594 51.648438 21.132812 Z M 32 22 C 26.460938 22 22 26.460938 22 32 C 22 32.136719 22.015625 32.265625 22.019531 32.402344 C 22.328125 27.140625 26.660156 23 32 23 C 34.253906 23 36.332031 23.738281 38 24.988281 L 38 23.988281 C 36.332031 22.738281 34.253906 22 32 22 Z M 32 22 "/>
<path style=" stroke:none;fill-rule:nonzero;fill:url(#linear0);" d="M 38 4 L 38 8.691406 C 37.109375 7.46875 36.660156 5.964844 36.789062 4.429688 C 35.15625 4.140625 33.515625 4 31.890625 4.007812 C 30.269531 4.011719 28.65625 4.15625 27.078125 4.4375 C 27.324219 7.132812 25.820312 9.78125 23.183594 10.878906 C 20.550781 11.976562 17.617188 11.183594 15.875 9.113281 C 13.25 10.964844 10.925781 13.28125 9.035156 16.011719 C 11.101562 17.742188 11.898438 20.664062 10.816406 23.296875 C 9.734375 25.929688 7.113281 27.441406 4.429688 27.222656 C 3.851562 30.492188 3.875 33.773438 4.4375 36.933594 C 5.464844 36.839844 6.480469 37.003906 7.40625 37.386719 C 8.910156 38.003906 10.175781 39.199219 10.855469 40.828125 C 11.949219 43.453125 11.164062 46.378906 9.109375 48.121094 C 10.957031 50.746094 13.273438 53.070312 16 54.957031 C 17.734375 52.902344 20.652344 52.109375 23.277344 53.191406 C 25.902344 54.273438 27.414062 56.890625 27.203125 59.570312 C 30.46875 60.148438 33.75 60.125 36.910156 59.5625 C 36.675781 56.878906 38.175781 54.246094 40.804688 53.152344 C 43.433594 52.058594 46.359375 52.84375 48.101562 54.902344 C 50.726562 53.054688 53.054688 50.742188 54.949219 48.015625 C 52.886719 46.28125 52.085938 43.359375 53.171875 40.730469 C 54.253906 38.097656 56.878906 36.585938 59.566406 36.808594 C 60.148438 33.539062 60.125 30.257812 59.5625 27.09375 C 56.871094 27.339844 54.230469 25.835938 53.128906 23.203125 C 53.0625 23.035156 53 22.867188 52.945312 22.699219 C 54.203125 19.992188 54.800781 17.757812 54.875 15.914062 C 54.882812 15.90625 54.890625 15.898438 54.902344 15.890625 C 54.894531 15.878906 54.882812 15.867188 54.875 15.859375 C 55.207031 6.59375 42.617188 6.984375 38 4 Z M 38 4 "/>
</g>
</svg>
