
<svg xmlns="http://www.w3.org/2000/svg" xmlns:xlink="http://www.w3.org/1999/xlink" width="64" height="64" viewBox="0 0 64 64" version="1.1">
<defs>
<linearGradient id="linear0" gradientUnits="userSpaceOnUse" x1="31.999998" y1="59.999996" x2="31.999998" y2="3.999999" >
<stop offset="0" style="stop-color:rgb(0%,0%,0%);stop-opacity:0.2;"/>
<stop offset="1" style="stop-color:rgb(100%,100%,100%);stop-opacity:0;"/>
</linearGradient>
</defs>
<g id="surface1">
<path style=" stroke:none;fill-rule:nonzero;fill:rgb(38.039216%,38.039216%,38.039216%);fill-opacity:0.996078;" d="M 32 4 C 29.21875 4 26.535156 4.40625 24 5.15625 L 24 23.03125 L 41.414062 5.617188 C 38.472656 4.570312 35.308594 4 32 4 Z M 20 6.679688 C 14.609375 9.226562 10.171875 13.441406 7.351562 18.667969 L 20 31.3125 Z M 45.332031 7.351562 L 32.6875 20 L 57.320312 20 C 54.773438 14.609375 50.558594 10.171875 45.332031 7.351562 Z M 5.617188 22.585938 C 4.570312 25.527344 4 28.691406 4 32 C 4 34.78125 4.40625 37.464844 5.15625 40 L 23.03125 40 Z M 40.96875 24 L 58.386719 41.414062 C 59.429688 38.472656 60 35.308594 60 32 C 60 29.21875 59.59375 26.535156 58.84375 24 Z M 44 32.6875 L 44 57.320312 C 49.390625 54.773438 53.828125 50.558594 56.648438 45.332031 Z M 40 40.96875 L 22.585938 58.386719 C 25.527344 59.429688 28.691406 60 32 60 C 34.78125 60 37.464844 59.59375 40 58.84375 Z M 6.679688 44 C 9.226562 49.390625 13.441406 53.828125 18.667969 56.648438 L 31.3125 44 Z M 6.679688 44 "/>
<path style=" stroke:none;fill-rule:nonzero;fill:rgb(16.078432%,71.372551%,96.470588%);fill-opacity:1;" d="M 32 22 C 37.523438 22 42 26.476562 42 32 C 42 37.523438 37.523438 42 32 42 C 26.476562 42 22 37.523438 22 32 C 22 26.476562 26.476562 22 32 22 Z M 32 22 "/>
<path style=" stroke:none;fill-rule:nonzero;fill:rgb(1.176471%,60.784316%,89.803922%);fill-opacity:1;" d="M 32 26 C 35.3125 26 38 28.6875 38 32 C 38 35.3125 35.3125 38 32 38 C 28.6875 38 26 35.3125 26 32 C 26 28.6875 28.6875 26 32 26 Z M 32 26 "/>
<path style=" stroke:none;fill-rule:nonzero;fill:rgb(0%,18.82353%,16.862746%);fill-opacity:0.4;" d="M 32 26 C 28.675781 26 26 28.675781 26 32 C 26 32.167969 26.007812 32.335938 26.019531 32.5 C 26.273438 29.410156 28.84375 27 32 27 C 35.15625 27 37.726562 29.410156 37.980469 32.5 C 37.992188 32.335938 38 32.167969 38 32 C 38 28.675781 35.324219 26 32 26 Z M 32 26 "/>
<path style=" stroke:none;fill-rule:nonzero;fill:rgb(98.431373%,100%,100%);fill-opacity:0.4;" d="M 32 39 C 28.675781 39 26 36.324219 26 33 C 26 32.832031 26.007812 32.664062 26.019531 32.5 C 26.273438 35.589844 28.84375 38 32 38 C 35.15625 38 37.726562 35.589844 37.976562 32.5 C 37.992188 32.664062 38 32.832031 38 33 C 38 36.324219 35.324219 39 32 39 Z M 32 39 "/>
<path style=" stroke:none;fill-rule:nonzero;fill:rgb(100%,100%,100%);fill-opacity:0.4;" d="M 32 22 C 26.460938 22 22 26.460938 22 32 C 22 32.167969 22.003906 32.335938 22.015625 32.5 C 22.273438 27.195312 26.628906 23 32 23 C 37.371094 23 41.726562 27.195312 41.984375 32.5 C 41.996094 32.335938 42 32.167969 42 32 C 42 26.460938 37.539062 22 32 22 Z M 32 22 "/>
<path style=" stroke:none;fill-rule:nonzero;fill:rgb(14.509805%,14.509805%,14.509805%);fill-opacity:0.4;" d="M 32 42 C 26.460938 42 22 37.539062 22 32 C 22 31.832031 22.003906 31.664062 22.015625 31.5 C 22.273438 36.804688 26.628906 41 32 41 C 37.371094 41 41.726562 36.804688 41.988281 31.5 C 41.996094 31.664062 42 31.832031 42 32 C 42 37.539062 37.539062 42 32 42 Z M 32 42 "/>
<path style=" stroke:none;fill-rule:nonzero;fill:rgb(100%,100%,100%);fill-opacity:0.4;" d="M 32 4 C 29.21875 4 26.535156 4.40625 24 5.15625 L 24 6.15625 C 26.535156 5.40625 29.21875 5 32 5 C 35.027344 5 37.9375 5.480469 40.667969 6.363281 L 41.414062 5.617188 C 38.472656 4.570312 35.308594 4 32 4 Z M 20 6.679688 C 14.609375 9.226562 10.171875 13.441406 7.351562 18.667969 L 7.710938 19.027344 C 10.542969 14.097656 14.832031 10.121094 20 7.679688 Z M 45.332031 7.351562 L 32.6875 20 L 33.6875 20 L 45.332031 8.351562 C 50.230469 10.996094 54.242188 15.0625 56.824219 20 L 57.320312 20 C 54.773438 14.609375 50.558594 10.171875 45.332031 7.351562 Z M 5.617188 22.585938 C 4.570312 25.527344 4 28.691406 4 32 C 4 32.089844 4.007812 32.179688 4.007812 32.265625 C 4.085938 29.226562 4.648438 26.308594 5.617188 23.585938 L 22.03125 40 L 23.03125 40 Z M 40.96875 24 L 41.96875 25 L 58.84375 25 C 59.542969 27.367188 59.941406 29.871094 59.988281 32.457031 C 59.992188 32.304688 60 32.152344 60 32 C 60 29.21875 59.59375 26.535156 58.84375 24 Z M 44 32.6875 L 44 33.6875 L 56.285156 45.972656 C 56.410156 45.761719 56.53125 45.550781 56.648438 45.332031 Z M 40 40.96875 L 22.585938 58.386719 C 22.832031 58.472656 23.085938 58.550781 23.335938 58.632812 L 40 41.96875 Z M 6.679688 44 C 6.839844 44.335938 7.003906 44.671875 7.175781 45 L 30.3125 45 L 31.3125 44 Z M 6.679688 44 "/>
<path style=" stroke:none;fill-rule:nonzero;fill:rgb(0%,0%,0%);fill-opacity:0.4;" d="M 40.675781 5.371094 L 24 22.046875 L 24 23.03125 L 41.414062 5.617188 C 41.171875 5.527344 40.921875 5.449219 40.675781 5.371094 Z M 7.710938 18.035156 C 7.589844 18.246094 7.464844 18.453125 7.351562 18.667969 L 20 31.3125 L 20 30.328125 Z M 33.671875 19.015625 L 32.6875 20 L 57.320312 20 C 57.164062 19.667969 57 19.339844 56.832031 19.015625 Z M 40.96875 24 L 58.386719 41.414062 C 59.429688 38.472656 60 35.308594 60 32 C 60 31.914062 59.992188 31.828125 59.988281 31.738281 C 59.914062 34.785156 59.351562 37.703125 58.386719 40.429688 L 41.953125 24 Z M 4.007812 31.546875 C 4.007812 31.699219 4 31.847656 4 32 C 4 34.78125 4.40625 37.464844 5.15625 40 L 23.03125 40 L 22.046875 39.015625 L 5.15625 39.015625 C 4.453125 36.644531 4.058594 34.140625 4.007812 31.546875 Z M 6.679688 44 C 9.226562 49.390625 13.441406 53.828125 18.667969 56.648438 L 31.3125 44 L 30.328125 44 L 18.667969 55.664062 C 13.761719 53.015625 9.75 48.945312 7.167969 44 Z M 56.296875 44.980469 C 53.460938 49.914062 49.171875 53.890625 44 56.335938 L 44 57.320312 C 49.390625 54.773438 53.828125 50.558594 56.648438 45.332031 Z M 23.324219 57.648438 L 22.585938 58.386719 C 25.527344 59.429688 28.691406 60 32 60 C 34.78125 60 37.464844 59.59375 40 58.84375 L 40 57.859375 C 37.464844 58.609375 34.78125 59.015625 32 59.015625 C 28.96875 59.015625 26.054688 58.53125 23.324219 57.648438 Z M 23.324219 57.648438 "/>
<path style=" stroke:none;fill-rule:nonzero;fill:rgb(0%,0%,0%);fill-opacity:0.2;" d="M 40.285156 6.742188 L 24 23.03125 L 24 24.53125 L 41.414062 7.117188 C 41.042969 6.984375 40.667969 6.859375 40.285156 6.742188 Z M 7.894531 19.207031 C 7.707031 19.523438 7.527344 19.84375 7.351562 20.167969 L 20 32.8125 L 20 31.3125 Z M 34.1875 20 L 32.6875 21.5 L 57.320312 21.5 C 57.078125 20.992188 56.824219 20.492188 56.554688 20 Z M 40.96875 25.5 L 58.386719 42.914062 C 59.429688 39.972656 60 36.808594 60 33.5 C 60 33.273438 59.992188 33.046875 59.984375 32.816406 C 59.898438 35.828125 59.339844 38.71875 58.386719 41.414062 L 42.46875 25.5 Z M 4.015625 32.683594 C 4.007812 32.953125 4 33.226562 4 33.5 C 4 36.28125 4.40625 38.964844 5.15625 41.5 L 23.03125 41.5 L 21.53125 40 L 5.15625 40 C 4.46875 37.675781 4.074219 35.222656 4.015625 32.683594 Z M 22.03125 32.75 C 22.011719 32.996094 22 33.246094 22 33.5 C 22 39.039062 26.460938 43.5 32 43.5 C 37.539062 43.5 42 39.039062 42 33.5 C 42 33.246094 41.988281 32.996094 41.96875 32.75 C 41.585938 37.9375 37.289062 42 32 42 C 26.710938 42 22.414062 37.9375 22.03125 32.75 Z M 6.679688 45.5 C 9.226562 50.890625 13.441406 55.324219 18.667969 58.148438 L 31.3125 45.5 L 29.8125 45.5 L 18.667969 56.648438 C 13.933594 54.09375 10.03125 50.210938 7.445312 45.5 Z M 56.105469 46.292969 C 53.273438 51.074219 49.054688 54.929688 44 57.320312 L 44 58.820312 C 49.390625 56.273438 53.828125 52.058594 56.648438 46.832031 Z M 23.714844 58.757812 L 22.585938 59.886719 C 25.527344 60.929688 28.691406 61.5 32 61.5 C 34.78125 61.5 37.464844 61.09375 40 60.34375 L 40 58.84375 C 37.464844 59.59375 34.78125 60 32 60 C 29.113281 60 26.332031 59.5625 23.714844 58.757812 Z M 23.714844 58.757812 "/>
<path style=" stroke:none;fill-rule:nonzero;fill:url(#linear0);" d="M 32 4 C 29.21875 4 26.535156 4.40625 24 5.15625 L 24 23.03125 L 41.414062 5.617188 C 38.472656 4.570312 35.308594 4 32 4 Z M 20 6.679688 C 14.609375 9.226562 10.171875 13.441406 7.351562 18.667969 L 20 31.3125 Z M 45.332031 7.351562 L 32.6875 20 L 57.320312 20 C 54.773438 14.609375 50.558594 10.171875 45.332031 7.351562 Z M 32 22 C 26.460938 22 22 26.460938 22 32 C 22 37.539062 26.460938 42 32 42 C 37.539062 42 42 37.539062 42 32 C 42 26.460938 37.539062 22 32 22 Z M 5.617188 22.585938 C 4.570312 25.527344 4 28.691406 4 32 C 4 34.78125 4.40625 37.464844 5.15625 40 L 23.03125 40 Z M 40.96875 24 L 58.386719 41.414062 C 59.429688 38.472656 60 35.308594 60 32 C 60 29.21875 59.59375 26.535156 58.84375 24 Z M 44 32.6875 L 44 57.320312 C 49.390625 54.773438 53.828125 50.558594 56.648438 45.332031 Z M 40 40.96875 L 22.585938 58.386719 C 25.527344 59.429688 28.691406 60 32 60 C 34.78125 60 37.464844 59.59375 40 58.84375 Z M 6.679688 44 C 9.226562 49.390625 13.441406 53.828125 18.667969 56.648438 L 31.3125 44 Z M 6.679688 44 "/>
</g>
</svg>
