
<svg xmlns="http://www.w3.org/2000/svg" xmlns:xlink="http://www.w3.org/1999/xlink" width="24" height="24" viewBox="0 0 24 24" version="1.1">
<defs>
<linearGradient id="linear0" gradientUnits="userSpaceOnUse" x1="8.466666" y1="-199.125" x2="8.466666" y2="-213.941666" gradientTransform="matrix(1.417323,0,0,1.417323,0,304.724425)">
<stop offset="0" style="stop-color:rgb(0%,0%,0%);stop-opacity:0.2;"/>
<stop offset="1" style="stop-color:rgb(100%,100%,100%);stop-opacity:0;"/>
</linearGradient>
</defs>
<g id="surface1">
<path style=" stroke:none;fill-rule:nonzero;fill:rgb(38.039216%,38.039216%,38.039216%);fill-opacity:1;" d="M 12 1.5 C 17.800781 1.5 22.5 6.199219 22.5 12 C 22.5 17.800781 17.800781 22.5 12 22.5 C 6.199219 22.5 1.5 17.800781 1.5 12 C 1.5 6.199219 6.199219 1.5 12 1.5 Z M 12 1.5 "/>
<path style=" stroke:none;fill-rule:nonzero;fill:rgb(100%,100%,100%);fill-opacity:0.4;" d="M 12 1.5 C 6.183594 1.5 1.5 6.183594 1.5 12 C 1.5 12.0625 1.5 12.121094 1.503906 12.183594 C 1.597656 6.449219 6.242188 1.863281 12 1.863281 C 17.757812 1.863281 22.402344 6.449219 22.496094 12.183594 C 22.5 12.121094 22.5 12.0625 22.5 12 C 22.5 6.183594 17.816406 1.5 12 1.5 Z M 12 1.5 "/>
<path style=" stroke:none;fill-rule:nonzero;fill:rgb(0%,0%,0%);fill-opacity:0.4;" d="M 12 22.496094 C 6.183594 22.496094 1.5 17.816406 1.5 11.996094 C 1.5 11.9375 1.5 11.875 1.503906 11.816406 C 1.597656 17.546875 6.242188 22.132812 12 22.132812 C 17.757812 22.132812 22.402344 17.546875 22.496094 11.816406 C 22.5 11.875 22.5 11.9375 22.5 11.996094 C 22.5 17.816406 17.816406 22.496094 12 22.496094 Z M 12 22.496094 "/>
<path style=" stroke:none;fill-rule:nonzero;fill:rgb(0%,0%,0%);fill-opacity:0.2;" d="M 1.503906 12.285156 C 1.5 12.378906 1.5 12.476562 1.5 12.570312 C 1.5 18.390625 6.183594 23.070312 12 23.070312 C 17.816406 23.070312 22.5 18.390625 22.5 12.570312 C 22.5 12.476562 22.5 12.378906 22.496094 12.285156 C 22.34375 17.96875 17.722656 22.5 12 22.5 C 6.277344 22.5 1.65625 17.96875 1.503906 12.285156 Z M 1.503906 12.285156 "/>
<path style=" stroke:none;fill-rule:nonzero;fill:rgb(40.000001%,73.333335%,41.568628%);fill-opacity:1;" d="M 5.203125 7.324219 C 2.976562 10.542969 3.296875 14.964844 6.167969 17.832031 C 9.035156 20.703125 13.457031 21.023438 16.675781 18.796875 L 15.050781 17.171875 C 12.746094 18.535156 9.742188 18.226562 7.757812 16.242188 C 5.773438 14.257812 5.464844 11.253906 6.828125 8.949219 Z M 5.203125 7.324219 "/>
<path style=" stroke:none;fill-rule:nonzero;fill:rgb(61.176473%,80.000001%,39.607844%);fill-opacity:1;" d="M 17.832031 6.167969 C 14.964844 3.296875 10.542969 2.976562 7.324219 5.203125 L 8.949219 6.828125 C 11.253906 5.464844 14.257812 5.773438 16.242188 7.757812 C 18.226562 9.742188 18.535156 12.746094 17.171875 15.050781 L 18.796875 16.675781 C 21.023438 13.457031 20.703125 9.035156 17.832031 6.167969 Z M 17.832031 6.167969 "/>
<path style=" stroke:none;fill-rule:nonzero;fill:rgb(40.000001%,73.333335%,41.568628%);fill-opacity:1;" d="M 13.589844 10.410156 C 14.46875 11.289062 14.46875 12.710938 13.589844 13.589844 C 12.710938 14.46875 11.289062 14.46875 10.410156 13.589844 C 9.53125 12.710938 9.53125 11.289062 10.410156 10.410156 C 11.289062 9.53125 12.710938 9.53125 13.589844 10.410156 Z M 13.589844 10.410156 "/>
<path style=" stroke:none;fill-rule:nonzero;fill:rgb(100%,100%,100%);fill-opacity:0.4;" d="M 12.007812 3.742188 C 10.371094 3.742188 8.730469 4.230469 7.324219 5.203125 L 7.554688 5.429688 C 8.910156 4.558594 10.457031 4.125 12.007812 4.125 C 14.113281 4.125 16.21875 4.933594 17.832031 6.546875 C 19.394531 8.105469 20.199219 10.125 20.253906 12.160156 C 20.296875 9.996094 19.492188 7.824219 17.832031 6.167969 C 16.21875 4.550781 14.113281 3.746094 12.007812 3.742188 Z M 5.203125 7.324219 C 4.199219 8.773438 3.714844 10.46875 3.746094 12.15625 C 3.789062 10.597656 4.273438 9.046875 5.203125 7.707031 L 6.695312 9.199219 C 6.738281 9.117188 6.78125 9.03125 6.828125 8.949219 Z M 12 9.746094 C 11.425781 9.746094 10.851562 9.96875 10.410156 10.410156 C 9.921875 10.898438 9.703125 11.550781 9.757812 12.1875 C 9.800781 11.679688 10.019531 11.179688 10.410156 10.789062 C 10.851562 10.351562 11.425781 10.128906 12 10.128906 C 12.574219 10.128906 13.148438 10.351562 13.589844 10.789062 C 13.980469 11.179688 14.199219 11.679688 14.242188 12.1875 C 14.296875 11.550781 14.078125 10.898438 13.589844 10.410156 C 13.148438 9.96875 12.574219 9.746094 12 9.746094 Z M 18 12.132812 C 17.980469 13.144531 17.703125 14.148438 17.171875 15.050781 L 17.308594 15.1875 C 17.8125 14.234375 18.042969 13.179688 18 12.132812 Z M 6 12.183594 C 5.945312 13.78125 6.53125 15.398438 7.757812 16.625 C 9.742188 18.609375 12.746094 18.917969 15.050781 17.550781 L 16.445312 18.949219 C 16.523438 18.898438 16.601562 18.851562 16.675781 18.796875 L 15.050781 17.171875 C 12.746094 18.535156 9.742188 18.226562 7.757812 16.242188 C 6.628906 15.113281 6.042969 13.65625 6 12.183594 Z M 6 12.183594 "/>
<path style=" stroke:none;fill-rule:nonzero;fill:rgb(0.392157%,0.392157%,0.392157%);fill-opacity:0.4;" d="M 7.550781 5.433594 C 7.472656 5.484375 7.398438 5.53125 7.324219 5.585938 L 8.949219 7.210938 C 11.253906 5.84375 14.257812 6.15625 16.242188 8.140625 C 17.367188 9.261719 17.953125 10.710938 18.003906 12.179688 C 18.046875 10.585938 17.460938 8.984375 16.242188 7.765625 C 14.257812 5.78125 11.253906 5.46875 8.949219 6.835938 Z M 6.695312 9.199219 C 6.195312 10.136719 5.960938 11.175781 5.996094 12.210938 C 6.027344 11.210938 6.304688 10.21875 6.828125 9.332031 Z M 3.746094 12.191406 C 3.695312 14.363281 4.5 16.550781 6.167969 18.214844 C 9.035156 21.085938 13.457031 21.40625 16.675781 19.179688 L 16.449219 18.953125 C 13.253906 21.011719 8.96875 20.644531 6.167969 17.839844 C 4.597656 16.273438 3.789062 14.238281 3.746094 12.191406 Z M 9.757812 12.195312 C 9.703125 12.828125 9.921875 13.484375 10.410156 13.972656 C 11.289062 14.855469 12.710938 14.855469 13.589844 13.972656 C 14.078125 13.484375 14.296875 12.828125 14.242188 12.195312 C 14.199219 12.707031 13.984375 13.203125 13.589844 13.597656 C 12.710938 14.480469 11.289062 14.480469 10.410156 13.597656 C 10.015625 13.203125 9.800781 12.707031 9.757812 12.195312 Z M 20.253906 12.199219 C 20.21875 13.769531 19.730469 15.332031 18.796875 16.683594 L 17.304688 15.191406 C 17.261719 15.269531 17.21875 15.351562 17.171875 15.429688 L 18.796875 17.058594 C 19.804688 15.597656 20.292969 13.894531 20.253906 12.199219 Z M 20.253906 12.199219 "/>
<path style=" stroke:none;fill-rule:nonzero;fill:url(#linear0);" d="M 12 1.5 C 17.800781 1.5 22.5 6.199219 22.5 12 C 22.5 17.800781 17.800781 22.5 12 22.5 C 6.199219 22.5 1.5 17.800781 1.5 12 C 1.5 6.199219 6.199219 1.5 12 1.5 Z M 12 1.5 "/>
</g>
</svg>
