
<svg xmlns="http://www.w3.org/2000/svg" xmlns:xlink="http://www.w3.org/1999/xlink" width="24" height="24" viewBox="0 0 24 24" version="1.1">
<defs>
<linearGradient id="linear0" gradientUnits="userSpaceOnUse" x1="8.466666" y1="-199.125" x2="8.466666" y2="-213.941666" gradientTransform="matrix(1.417323,0,0,1.417323,0,304.724425)">
<stop offset="0" style="stop-color:rgb(0%,0%,0%);stop-opacity:0.2;"/>
<stop offset="1" style="stop-color:rgb(100%,100%,100%);stop-opacity:0;"/>
</linearGradient>
</defs>
<g id="surface1">
<path style=" stroke:none;fill-rule:nonzero;fill:rgb(87.843138%,87.843138%,87.843138%);fill-opacity:0.996078;" d="M 12 1.5 C 17.800781 1.5 22.5 6.199219 22.5 12 C 22.5 17.800781 17.800781 22.5 12 22.5 C 6.199219 22.5 1.5 17.800781 1.5 12 C 1.5 6.199219 6.199219 1.5 12 1.5 Z M 12 1.5 "/>
<path style=" stroke:none;fill-rule:nonzero;fill:rgb(16.470589%,16.470589%,16.470589%);fill-opacity:0.4;" d="M 12 22.5 C 6.183594 22.5 1.5 17.816406 1.5 12 C 1.5 11.9375 1.5 11.871094 1.503906 11.808594 C 1.601562 17.539062 6.246094 22.121094 12 22.121094 C 17.753906 22.121094 22.398438 17.539062 22.496094 11.808594 C 22.5 11.871094 22.5 11.9375 22.5 12 C 22.5 17.816406 17.816406 22.5 12 22.5 Z M 12 22.5 "/>
<path style=" stroke:none;fill-rule:nonzero;fill:rgb(0%,0%,0%);fill-opacity:0.2;" d="M 1.5 12.109375 C 1.496094 12.253906 1.492188 12.402344 1.492188 12.550781 C 1.492188 18.367188 6.175781 23.050781 11.992188 23.050781 C 17.808594 23.050781 22.492188 18.367188 22.492188 12.550781 C 22.492188 12.511719 22.492188 12.472656 22.492188 12.433594 C 22.265625 18.050781 17.671875 22.503906 12 22.503906 C 6.21875 22.503906 1.554688 17.875 1.5 12.109375 Z M 1.5 12.109375 "/>
<path style=" stroke:none;fill-rule:nonzero;fill:rgb(92.54902%,25.098041%,47.843137%);fill-opacity:1;" d="M 12 1.5 C 11.105469 1.5 10.238281 1.613281 9.410156 1.820312 C 8.351562 4.765625 8.132812 7.804688 10.566406 11.136719 C 7.257812 10.753906 5.628906 7.9375 4.140625 5.027344 C 3.085938 6.214844 2.296875 7.644531 1.867188 9.226562 C 3.925781 11.746094 6.476562 13.59375 10.722656 13.136719 C 8.722656 15.828125 5.433594 15.808594 2.144531 15.640625 C 2.71875 17.203125 3.648438 18.585938 4.839844 19.691406 C 8 19.160156 10.824219 17.855469 12.53125 14 C 13.820312 16.976562 12.308594 19.726562 10.589844 22.40625 C 11.050781 22.46875 11.523438 22.5 12 22.5 C 13.199219 22.5 14.351562 22.300781 15.421875 21.933594 C 16.40625 19.066406 16.546875 16.101562 14.183594 12.863281 C 17.28125 13.21875 18.90625 15.710938 20.324219 18.414062 C 21.285156 17.167969 21.972656 15.695312 22.292969 14.089844 C 20.335938 11.933594 17.878906 10.449219 14.027344 10.863281 C 15.871094 8.378906 18.8125 8.203125 21.84375 8.320312 C 21.289062 6.832031 20.40625 5.507812 19.285156 4.425781 C 16.378906 5.027344 13.8125 6.402344 12.21875 10 C 10.949219 7.066406 12.398438 4.347656 14.089844 1.707031 C 13.414062 1.570312 12.714844 1.5 12 1.5 Z M 12 1.5 "/>
<path style=" stroke:none;fill-rule:nonzero;fill:rgb(100%,100%,100%);fill-opacity:0.4;" d="M 12 1.5 C 6.183594 1.5 1.5 6.183594 1.5 12 C 1.5 12.0625 1.5 12.128906 1.503906 12.191406 C 1.601562 6.460938 6.246094 1.878906 12 1.878906 C 17.753906 1.878906 22.398438 6.460938 22.496094 12.191406 C 22.5 12.128906 22.5 12.0625 22.5 12 C 22.5 6.183594 17.816406 1.5 12 1.5 Z M 12 1.5 "/>
<path style=" stroke:none;fill-rule:nonzero;fill:rgb(93.333334%,93.333334%,93.333334%);fill-opacity:0.996078;" d="M 12 6 C 15.3125 6 18 8.6875 18 12 C 18 15.3125 15.3125 18 12 18 C 8.6875 18 6 15.3125 6 12 C 6 8.6875 8.6875 6 12 6 Z M 12 6 "/>
<path style=" stroke:none;fill-rule:nonzero;fill:rgb(100%,100%,100%);fill-opacity:0.6;" d="M 12 6 C 8.675781 6 6 8.675781 6 12 C 6 12.0625 6 12.125 6.003906 12.1875 C 6.101562 8.949219 8.738281 6.371094 12 6.371094 C 15.261719 6.371094 17.898438 8.949219 17.996094 12.1875 C 18 12.125 18 12.0625 18 12 C 18 8.675781 15.324219 6 12 6 Z M 12 6 "/>
<path style=" stroke:none;fill-rule:nonzero;fill:rgb(11.764706%,11.764706%,11.764706%);fill-opacity:0.4;" d="M 12 18.375 C 8.675781 18.375 6 15.699219 6 12.375 C 6 12.3125 6 12.25 6.003906 12.1875 C 6.101562 15.425781 8.738281 18.003906 12 18.003906 C 15.261719 18.003906 17.898438 15.425781 17.996094 12.1875 C 18 12.25 18 12.3125 18 12.375 C 18 15.699219 15.324219 18.375 12 18.375 Z M 12 18.375 "/>
<path style=" stroke:none;fill-rule:nonzero;fill:rgb(92.54902%,25.098041%,47.843137%);fill-opacity:1;" d="M 10.402344 8.316406 L 15.472656 11.597656 C 15.609375 11.683594 15.691406 11.835938 15.691406 12 C 15.691406 12.164062 15.609375 12.316406 15.472656 12.402344 L 10.402344 15.683594 C 10.277344 15.765625 10.117188 15.769531 9.988281 15.699219 C 9.855469 15.628906 9.777344 15.492188 9.777344 15.34375 L 9.777344 8.65625 C 9.777344 8.507812 9.855469 8.371094 9.988281 8.300781 C 10.117188 8.226562 10.277344 8.234375 10.402344 8.316406 Z M 10.402344 8.316406 "/>
<path style=" stroke:none;fill-rule:nonzero;fill:rgb(100%,100%,100%);fill-opacity:0.4;" d="M 10.152344 8.25 C 9.941406 8.265625 9.777344 8.441406 9.777344 8.65625 L 9.777344 9.027344 C 9.777344 8.878906 9.855469 8.742188 9.988281 8.671875 C 10.117188 8.601562 10.277344 8.609375 10.402344 8.6875 L 15.472656 11.96875 C 15.550781 12.023438 15.613281 12.097656 15.652344 12.1875 C 15.742188 11.972656 15.667969 11.722656 15.472656 11.59375 L 10.398438 8.316406 C 10.328125 8.269531 10.238281 8.246094 10.152344 8.25 Z M 10.152344 8.25 "/>
<path style=" stroke:none;fill-rule:nonzero;fill:rgb(0%,0%,0%);fill-opacity:0.4;" d="M 10.152344 16.125 C 9.941406 16.109375 9.777344 15.933594 9.777344 15.722656 L 9.777344 15.347656 C 9.777344 15.496094 9.855469 15.632812 9.988281 15.703125 C 10.117188 15.773438 10.277344 15.769531 10.402344 15.6875 L 15.472656 12.40625 C 15.550781 12.355469 15.613281 12.277344 15.652344 12.191406 C 15.742188 12.40625 15.667969 12.652344 15.472656 12.78125 L 10.402344 16.0625 C 10.328125 16.109375 10.238281 16.132812 10.152344 16.125 Z M 10.152344 16.125 "/>
<path style=" stroke:none;fill-rule:nonzero;fill:url(#linear0);" d="M 12 1.5 C 17.800781 1.5 22.5 6.199219 22.5 12 C 22.5 17.800781 17.800781 22.5 12 22.5 C 6.199219 22.5 1.5 17.800781 1.5 12 C 1.5 6.199219 6.199219 1.5 12 1.5 Z M 12 1.5 "/>
</g>
</svg>
