
<svg xmlns="http://www.w3.org/2000/svg" xmlns:xlink="http://www.w3.org/1999/xlink" width="32" height="32" viewBox="0 0 32 32" version="1.1">
<defs>
<linearGradient id="linear0" gradientUnits="userSpaceOnUse" x1="34" y1="59.999996" x2="34" y2="3.999999" gradientTransform="matrix(0.5,0,0,0.5,0,0)">
<stop offset="0" style="stop-color:rgb(0%,0%,0%);stop-opacity:0.2;"/>
<stop offset="1" style="stop-color:rgb(100%,100%,100%);stop-opacity:0;"/>
</linearGradient>
</defs>
<g id="surface1">
<path style=" stroke:none;fill-rule:nonzero;fill:rgb(0%,0%,0%);fill-opacity:0.2;" d="M 2 25 L 2 25.75 C 2 26.859375 2.890625 27.75 4 27.75 L 4 27 C 2.890625 27 2 26.109375 2 25 Z M 30 25 C 30 26.109375 29.109375 27 28 27 L 28 27.75 C 29.109375 27.75 30 26.859375 30 25.75 Z M 4 28 L 4 28.75 C 4 29.304688 4.445312 29.75 5 29.75 L 27 29.75 C 27.554688 29.75 28 29.304688 28 28.75 L 28 28 C 28 28.554688 27.554688 29 27 29 L 5 29 C 4.445312 29 4 28.554688 4 28 Z M 4 28 "/>
<path style=" stroke:none;fill-rule:nonzero;fill:rgb(61.960787%,61.960787%,61.960787%);fill-opacity:0.996078;" d="M 6.5 11 L 25.5 11 C 26.050781 11 26.5 11.449219 26.5 12 L 26.5 17 C 26.5 17.550781 26.050781 18 25.5 18 L 6.5 18 C 5.949219 18 5.5 17.550781 5.5 17 L 5.5 12 C 5.5 11.449219 5.949219 11 6.5 11 Z M 6.5 11 "/>
<path style=" stroke:none;fill-rule:nonzero;fill:rgb(93.333334%,93.333334%,93.333334%);fill-opacity:0.996078;" d="M 7 2 L 25 2 C 25.550781 2 26 2.449219 26 3 L 26 24 C 26 24.550781 25.550781 25 25 25 L 7 25 C 6.449219 25 6 24.550781 6 24 L 6 3 C 6 2.449219 6.449219 2 7 2 Z M 7 2 "/>
<path style=" stroke:none;fill-rule:nonzero;fill:rgb(38.039216%,38.039216%,38.039216%);fill-opacity:0.996078;" d="M 25.5 15 L 26.5 15 C 26.777344 15 27 15.222656 27 15.5 L 27 18.25 C 27 18.527344 26.777344 18.75 26.5 18.75 L 25.5 18.75 C 25.222656 18.75 25 18.527344 25 18.25 L 25 15.5 C 25 15.222656 25.222656 15 25.5 15 Z M 25.5 15 "/>
<path style=" stroke:none;fill-rule:nonzero;fill:rgb(38.039216%,38.039216%,38.039216%);fill-opacity:0.996078;" d="M 5.5 15 L 6.5 15 C 6.777344 15 7 15.222656 7 15.5 L 7 18.25 C 7 18.527344 6.777344 18.75 6.5 18.75 L 5.5 18.75 C 5.222656 18.75 5 18.527344 5 18.25 L 5 15.5 C 5 15.222656 5.222656 15 5.5 15 Z M 5.5 15 "/>
<path style=" stroke:none;fill-rule:nonzero;fill:rgb(61.960787%,61.960787%,61.960787%);fill-opacity:0.996078;" d="M 4 18 L 28 18 C 29.105469 18 30 18.894531 30 20 L 30 25 C 30 26.105469 29.105469 27 28 27 L 4 27 C 2.894531 27 2 26.105469 2 25 L 2 20 C 2 18.894531 2.894531 18 4 18 Z M 4 18 "/>
<path style=" stroke:none;fill-rule:nonzero;fill:rgb(38.039216%,38.039216%,38.039216%);fill-opacity:0.992157;" d="M 2 20.25 L 30 20.25 L 30 20.5 L 2 20.5 Z M 2 20.25 "/>
<path style=" stroke:none;fill-rule:nonzero;fill:rgb(100%,100%,100%);fill-opacity:0.4;" d="M 2 20.5 L 30 20.5 L 30 20.75 L 2 20.75 Z M 2 20.5 "/>
<path style=" stroke:none;fill-rule:nonzero;fill:rgb(61.960787%,61.960787%,61.960787%);fill-opacity:0.996078;" d="M 5 22 L 27 22 C 27.550781 22 28 22.449219 28 23 L 28 28 C 28 28.550781 27.550781 29 27 29 L 5 29 C 4.449219 29 4 28.550781 4 28 L 4 23 C 4 22.449219 4.449219 22 5 22 Z M 5 22 "/>
<path style=" stroke:none;fill-rule:nonzero;fill:rgb(0%,0%,0%);fill-opacity:0.4;" d="M 4 27.5 L 4 28 C 4 28.554688 4.445312 29 5 29 L 27 29 C 27.554688 29 28 28.554688 28 28 L 28 27.5 C 28 28.054688 27.554688 28.5 27 28.5 L 5 28.5 C 4.445312 28.5 4 28.054688 4 27.5 Z M 4 27.5 "/>
<path style=" stroke:none;fill-rule:nonzero;fill:rgb(1.960784%,1.960784%,1.960784%);fill-opacity:0.4;" d="M 2 24.5 L 2 25 C 2 26.109375 2.890625 27 4 27 L 5 27 L 5 26.5 L 4 26.5 C 2.890625 26.5 2 25.609375 2 24.5 Z M 30 24.5 C 30 25.609375 29.109375 26.5 28 26.5 L 27 26.5 L 27 27 L 28 27 C 29.109375 27 30 26.109375 30 25 Z M 30 24.5 "/>
<path style=" stroke:none;fill-rule:nonzero;fill:rgb(38.039216%,38.039216%,38.039216%);fill-opacity:1;" d="M 7 24 C 5.890625 24 5 24.890625 5 26 L 5 29 L 27 29 L 27 26 C 27 24.890625 26.109375 24 25 24 Z M 7 24 "/>
<path style=" stroke:none;fill-rule:nonzero;fill:rgb(93.333334%,93.333334%,93.333334%);fill-opacity:0.996078;" d="M 7 25 L 25 25 C 25.550781 25 26 25.449219 26 26 L 26 29 C 26 29.550781 25.550781 30 25 30 L 7 30 C 6.449219 30 6 29.550781 6 29 L 6 26 C 6 25.449219 6.449219 25 7 25 Z M 7 25 "/>
<path style=" stroke:none;fill-rule:nonzero;fill:rgb(0%,0%,0%);fill-opacity:0.2;" d="M 2 20 L 30 20 L 30 20.25 L 2 20.25 Z M 2 20 "/>
<path style=" stroke:none;fill-rule:nonzero;fill:rgb(100%,100%,100%);fill-opacity:0.6;" d="M 7 2 C 6.445312 2 6 2.445312 6 3 L 6 3.25 C 6 2.695312 6.445312 2.25 7 2.25 L 25 2.25 C 25.554688 2.25 26 2.695312 26 3.25 L 26 3 C 26 2.445312 25.554688 2 25 2 Z M 7 2 "/>
<path style=" stroke:none;fill-rule:nonzero;fill:rgb(100%,100%,100%);fill-opacity:0.6;" d="M 7 25 C 6.445312 25 6 25.445312 6 26 L 6 26.25 C 6 25.695312 6.445312 25.25 7 25.25 L 25 25.25 C 25.554688 25.25 26 25.695312 26 26.25 L 26 26 C 26 25.445312 25.554688 25 25 25 Z M 7 25 "/>
<path style=" stroke:none;fill-rule:nonzero;fill:rgb(100%,100%,100%);fill-opacity:0.4;" d="M 5.5 15 C 5.222656 15 5 15.222656 5 15.5 L 5 16 C 5 15.722656 5.222656 15.5 5.5 15.5 L 6.5 15.5 C 6.777344 15.5 7 15.722656 7 16 L 7 15.5 C 7 15.222656 6.777344 15 6.5 15 Z M 25.5 15 C 25.222656 15 25 15.222656 25 15.5 L 25 16 C 25 15.722656 25.222656 15.5 25.5 15.5 L 26.5 15.5 C 26.777344 15.5 27 15.722656 27 16 L 27 15.5 C 27 15.222656 26.777344 15 26.5 15 Z M 25.5 15 "/>
<path style=" stroke:none;fill-rule:nonzero;fill:rgb(100%,100%,100%);fill-opacity:0.4;" d="M 4 18 C 2.890625 18 2 18.890625 2 20 L 2 20.5 C 2 19.390625 2.890625 18.5 4 18.5 L 28 18.5 C 29.109375 18.5 30 19.390625 30 20.5 L 30 20 C 30 18.890625 29.109375 18 28 18 Z M 4 18 "/>
<path style=" stroke:none;fill-rule:nonzero;fill:rgb(0%,0%,0%);fill-opacity:0.4;" d="M 7 24 C 5.890625 24 5 24.890625 5 26 L 5 26.507812 C 5 25.398438 5.890625 24.507812 7 24.507812 L 25 24.507812 C 26.109375 24.507812 27 25.398438 27 26.507812 L 27 26 C 27 24.890625 26.109375 24 25 24 Z M 7 24 "/>
<path style=" stroke:none;fill-rule:nonzero;fill:rgb(0%,0%,0%);fill-opacity:0.4;" d="M 6 28.75 L 6 29 C 6 29.554688 6.445312 30 7 30 L 25 30 C 25.554688 30 26 29.554688 26 29 L 26 28.75 C 26 29.304688 25.554688 29.75 25 29.75 L 7 29.75 C 6.445312 29.75 6 29.304688 6 28.75 Z M 6 28.75 "/>
<path style=" stroke:none;fill-rule:nonzero;fill:rgb(14.901961%,77.64706%,85.490197%);fill-opacity:1;" d="M 7 25 L 7 28.5 C 7 28.777344 7.222656 29 7.5 29 L 24.5 29 C 24.777344 29 25 28.777344 25 28.5 L 25 25 Z M 7 25 "/>
<path style=" stroke:none;fill-rule:nonzero;fill:rgb(100%,65.490198%,14.901961%);fill-opacity:1;" d="M 18 25 C 18 26.109375 18.890625 27 20 27 C 21.109375 27 22 26.109375 22 25 Z M 18 25 "/>
<path style=" stroke:none;fill-rule:nonzero;fill:rgb(100%,100%,100%);fill-opacity:0.4;" d="M 6 26 L 26 26 L 26 27 L 6 27 Z M 6 26 "/>
<path style=" stroke:none;fill-rule:nonzero;fill:rgb(40.000001%,73.333335%,41.568628%);fill-opacity:0.996078;" d="M 4.503906 21 C 4.777344 21 5 21.222656 5 21.496094 C 5 21.769531 4.777344 21.992188 4.503906 21.992188 C 4.230469 21.992188 4.007812 21.769531 4.007812 21.496094 C 4.007812 21.222656 4.230469 21 4.503906 21 Z M 4.503906 21 "/>
<path style=" stroke:none;fill-rule:nonzero;fill:rgb(0%,0%,0%);fill-opacity:0.4;" d="M 4.492188 21 C 4.222656 21.007812 4.007812 21.226562 4.007812 21.496094 C 4.007812 21.539062 4.011719 21.582031 4.023438 21.621094 C 4.078125 21.40625 4.273438 21.25 4.503906 21.25 C 4.734375 21.25 4.929688 21.40625 4.984375 21.621094 C 4.996094 21.582031 5 21.539062 5 21.496094 C 5 21.222656 4.777344 21 4.503906 21 C 4.5 21 4.496094 21 4.492188 21 Z M 4.492188 21 "/>
<path style=" stroke:none;fill-rule:nonzero;fill:rgb(100%,100%,100%);fill-opacity:0.4;" d="M 4.492188 22.25 C 4.222656 22.242188 4.007812 22.023438 4.007812 21.753906 C 4.007812 21.710938 4.011719 21.667969 4.023438 21.628906 C 4.078125 21.84375 4.273438 22 4.503906 22 C 4.734375 22 4.929688 21.84375 4.984375 21.628906 C 4.996094 21.667969 5 21.710938 5 21.753906 C 5 22.027344 4.777344 22.25 4.503906 22.25 C 4.5 22.25 4.496094 22.25 4.492188 22.25 Z M 4.492188 22.25 "/>
<path style=" stroke:none;fill-rule:nonzero;fill:rgb(40.000001%,73.333335%,41.568628%);fill-opacity:0.996078;" d="M 6.519531 21 C 6.792969 21 7.015625 21.222656 7.015625 21.496094 C 7.015625 21.769531 6.792969 21.992188 6.519531 21.992188 C 6.246094 21.992188 6.023438 21.769531 6.023438 21.496094 C 6.023438 21.222656 6.246094 21 6.519531 21 Z M 6.519531 21 "/>
<path style=" stroke:none;fill-rule:nonzero;fill:rgb(0%,0%,0%);fill-opacity:0.4;" d="M 6.507812 21 C 6.238281 21.007812 6.023438 21.226562 6.023438 21.496094 C 6.023438 21.539062 6.027344 21.582031 6.039062 21.621094 C 6.09375 21.40625 6.289062 21.25 6.519531 21.25 C 6.75 21.25 6.945312 21.40625 7 21.621094 C 7.011719 21.582031 7.015625 21.539062 7.015625 21.496094 C 7.015625 21.222656 6.792969 21 6.519531 21 C 6.515625 21 6.511719 21 6.507812 21 Z M 6.507812 21 "/>
<path style=" stroke:none;fill-rule:nonzero;fill:rgb(100%,100%,100%);fill-opacity:0.4;" d="M 6.507812 22.25 C 6.238281 22.242188 6.023438 22.023438 6.023438 21.753906 C 6.023438 21.710938 6.027344 21.667969 6.039062 21.628906 C 6.09375 21.84375 6.289062 22 6.519531 22 C 6.75 22 6.945312 21.84375 7 21.628906 C 7.011719 21.667969 7.015625 21.710938 7.015625 21.753906 C 7.015625 22.027344 6.792969 22.25 6.519531 22.25 C 6.515625 22.25 6.511719 22.25 6.507812 22.25 Z M 6.507812 22.25 "/>
<path style=" stroke:none;fill-rule:nonzero;fill:rgb(95.686275%,26.274511%,21.176471%);fill-opacity:0.996078;" d="M 27.519531 21 C 27.792969 21 28.015625 21.222656 28.015625 21.496094 C 28.015625 21.769531 27.792969 21.992188 27.519531 21.992188 C 27.246094 21.992188 27.023438 21.769531 27.023438 21.496094 C 27.023438 21.222656 27.246094 21 27.519531 21 Z M 27.519531 21 "/>
<path style=" stroke:none;fill-rule:nonzero;fill:rgb(0%,0%,0%);fill-opacity:0.4;" d="M 27.507812 21 C 27.238281 21.007812 27.023438 21.226562 27.023438 21.496094 C 27.023438 21.539062 27.027344 21.582031 27.039062 21.621094 C 27.09375 21.40625 27.289062 21.25 27.519531 21.25 C 27.75 21.25 27.945312 21.40625 28 21.621094 C 28.011719 21.582031 28.015625 21.539062 28.015625 21.496094 C 28.015625 21.222656 27.792969 21 27.519531 21 C 27.515625 21 27.511719 21 27.507812 21 Z M 27.507812 21 "/>
<path style=" stroke:none;fill-rule:nonzero;fill:rgb(100%,100%,100%);fill-opacity:0.4;" d="M 27.507812 22.25 C 27.238281 22.242188 27.023438 22.023438 27.023438 21.753906 C 27.023438 21.710938 27.027344 21.667969 27.039062 21.628906 C 27.09375 21.84375 27.289062 22 27.519531 22 C 27.75 22 27.945312 21.84375 28 21.628906 C 28.011719 21.667969 28.015625 21.710938 28.015625 21.753906 C 28.015625 22.027344 27.792969 22.25 27.519531 22.25 C 27.515625 22.25 27.511719 22.25 27.507812 22.25 Z M 27.507812 22.25 "/>
<path style=" stroke:none;fill-rule:nonzero;fill:rgb(38.039216%,38.039216%,38.039216%);fill-opacity:1;" d="M 15.5 5 C 13.007812 5 11 7.007812 11 9.5 C 11 11.992188 13.007812 14 15.5 14 C 16.644531 14 17.6875 13.574219 18.480469 12.875 L 21.929688 14.867188 C 22.289062 15.074219 22.746094 14.953125 22.953125 14.59375 L 23.203125 14.160156 C 23.410156 13.796875 23.289062 13.339844 22.929688 13.132812 L 19.652344 11.242188 C 19.875 10.707031 20 10.117188 20 9.5 C 20 7.007812 17.992188 5 15.5 5 Z M 15.5 6 C 17.4375 6 19 7.5625 19 9.5 C 19 11.4375 17.4375 13 15.5 13 C 13.5625 13 12 11.4375 12 9.5 C 12 7.5625 13.5625 6 15.5 6 Z M 15.5 6.5 C 13.839844 6.5 12.5 7.839844 12.5 9.5 L 13.5 9.5 C 13.5 8.390625 14.390625 7.5 15.5 7.5 Z M 15.5 6.5 "/>
<path style=" stroke:none;fill-rule:nonzero;fill:rgb(0%,0%,0%);fill-opacity:0.4;" d="M 15.5 5.996094 C 13.5625 5.996094 12 7.558594 12 9.496094 C 12 9.535156 12 9.574219 12.003906 9.617188 C 12 9.660156 12 9.703125 12 9.746094 C 12 9.789062 12 9.832031 12.003906 9.871094 C 12.070312 7.992188 13.601562 6.5 15.5 6.5 C 17.398438 6.5 18.929688 7.992188 18.996094 9.871094 C 19 9.832031 19 9.789062 19 9.746094 C 19 9.703125 19 9.660156 18.996094 9.617188 C 19 9.574219 19 9.535156 19 9.496094 C 19 7.558594 17.4375 5.996094 15.5 5.996094 Z M 15.5 7.496094 C 14.390625 7.496094 13.5 8.390625 13.5 9.496094 L 12.511719 9.496094 C 12.503906 9.582031 12.5 9.664062 12.5 9.75 L 12.511719 9.75 C 12.503906 9.832031 12.5 9.914062 12.5 10 L 13.5 10 C 13.5 8.890625 14.390625 8 15.5 8 Z M 20 9.621094 C 19.984375 10.195312 19.859375 10.738281 19.652344 11.238281 L 19.730469 11.285156 C 19.707031 11.351562 19.679688 11.421875 19.652344 11.488281 L 19.734375 11.535156 C 19.90625 11.054688 20 10.539062 20 10 C 20 9.957031 20 9.914062 20 9.871094 C 19.996094 9.929688 19.996094 9.992188 19.992188 10.050781 C 19.988281 10.082031 19.984375 10.117188 19.984375 10.148438 C 19.980469 10.183594 19.976562 10.214844 19.972656 10.25 C 19.96875 10.28125 19.964844 10.3125 19.960938 10.34375 C 19.957031 10.375 19.953125 10.402344 19.949219 10.429688 C 19.953125 10.402344 19.957031 10.375 19.960938 10.34375 C 19.964844 10.3125 19.96875 10.28125 19.972656 10.25 C 19.976562 10.214844 19.980469 10.183594 19.984375 10.148438 C 19.984375 10.117188 19.988281 10.082031 19.992188 10.050781 C 19.996094 9.953125 20 9.851562 20 9.75 C 20 9.707031 20 9.664062 20 9.621094 Z M 11 9.625 C 11 9.664062 11 9.707031 11 9.75 C 11 9.789062 11 9.832031 11 9.871094 C 11 9.914062 11 9.957031 11 10 C 11 12.492188 13.007812 14.5 15.5 14.5 C 16.644531 14.5 17.6875 14.074219 18.480469 13.375 L 21.929688 15.363281 C 22.289062 15.570312 22.746094 15.449219 22.953125 15.089844 L 23.203125 14.65625 C 23.292969 14.5 23.320312 14.320312 23.292969 14.15625 C 23.308594 14.070312 23.308594 13.984375 23.292969 13.902344 C 23.277344 13.988281 23.25 14.074219 23.203125 14.15625 L 22.953125 14.589844 C 22.746094 14.949219 22.289062 15.070312 21.929688 14.863281 L 18.480469 12.875 C 17.6875 13.574219 16.644531 13.996094 15.5 13.996094 C 13.050781 13.996094 11.066406 12.058594 11 9.625 Z M 11.011719 10.097656 C 11.019531 10.210938 11.035156 10.324219 11.050781 10.433594 C 11.035156 10.324219 11.019531 10.210938 11.011719 10.097656 Z M 11.011719 10.097656 "/>
<path style=" stroke:none;fill-rule:nonzero;fill:rgb(99.607843%,99.607843%,99.607843%);fill-opacity:0.4;" d="M 15.5 5 C 13.007812 5 11 7.007812 11 9.5 C 11 9.542969 11 9.582031 11 9.625 C 11 9.667969 11 9.707031 11 9.75 C 11 9.792969 11 9.832031 11 9.875 C 11.066406 7.441406 13.050781 5.5 15.5 5.5 C 17.949219 5.5 19.933594 7.441406 20 9.875 C 20 9.832031 20 9.792969 20 9.75 C 20 9.707031 20 9.664062 20 9.625 C 20 9.582031 20 9.542969 20 9.5 C 20 7.007812 17.992188 5 15.5 5 Z M 14.8125 5.300781 C 14.773438 5.308594 14.738281 5.3125 14.703125 5.320312 C 14.738281 5.3125 14.773438 5.308594 14.8125 5.300781 Z M 16.1875 5.300781 C 16.226562 5.308594 16.261719 5.3125 16.296875 5.320312 C 16.261719 5.3125 16.226562 5.308594 16.1875 5.300781 Z M 16.625 5.390625 C 16.664062 5.402344 16.699219 5.410156 16.734375 5.421875 C 16.699219 5.410156 16.664062 5.402344 16.625 5.390625 Z M 13.941406 5.523438 C 13.910156 5.535156 13.878906 5.550781 13.847656 5.5625 C 13.878906 5.550781 13.910156 5.535156 13.941406 5.523438 Z M 17.082031 5.535156 C 17.105469 5.542969 17.128906 5.550781 17.152344 5.5625 C 17.128906 5.550781 17.105469 5.542969 17.082031 5.535156 Z M 13.640625 5.648438 C 13.609375 5.664062 13.578125 5.675781 13.546875 5.691406 C 13.578125 5.675781 13.609375 5.664062 13.640625 5.648438 Z M 17.375 5.65625 C 17.398438 5.667969 17.425781 5.679688 17.453125 5.691406 C 17.488281 5.707031 17.519531 5.726562 17.550781 5.742188 C 17.519531 5.726562 17.488281 5.707031 17.453125 5.691406 C 17.425781 5.679688 17.398438 5.667969 17.375 5.65625 Z M 13.351562 5.792969 C 13.320312 5.808594 13.289062 5.828125 13.257812 5.84375 C 13.289062 5.828125 13.320312 5.808594 13.351562 5.792969 Z M 17.648438 5.792969 C 17.679688 5.808594 17.710938 5.828125 17.742188 5.84375 C 17.710938 5.828125 17.679688 5.808594 17.648438 5.792969 Z M 12.890625 6.078125 C 12.863281 6.097656 12.832031 6.121094 12.804688 6.140625 C 12.832031 6.121094 12.863281 6.097656 12.890625 6.078125 Z M 18.109375 6.078125 C 18.136719 6.097656 18.167969 6.121094 18.195312 6.140625 C 18.222656 6.160156 18.25 6.183594 18.277344 6.203125 C 18.25 6.183594 18.222656 6.160156 18.195312 6.140625 C 18.167969 6.121094 18.136719 6.097656 18.109375 6.078125 Z M 12.472656 6.414062 C 12.445312 6.441406 12.417969 6.464844 12.390625 6.492188 C 12.367188 6.515625 12.339844 6.539062 12.316406 6.566406 C 12.339844 6.539062 12.367188 6.515625 12.390625 6.492188 C 12.417969 6.464844 12.445312 6.441406 12.472656 6.414062 Z M 18.609375 6.492188 C 18.632812 6.515625 18.660156 6.539062 18.683594 6.566406 C 18.710938 6.589844 18.734375 6.617188 18.757812 6.640625 C 18.785156 6.667969 18.808594 6.691406 18.828125 6.71875 C 18.808594 6.691406 18.785156 6.667969 18.757812 6.640625 C 18.734375 6.617188 18.710938 6.589844 18.683594 6.566406 C 18.660156 6.539062 18.632812 6.515625 18.609375 6.492188 Z M 15.5 6.5 C 13.839844 6.5 12.5 7.839844 12.5 9.5 L 12.511719 9.5 C 12.503906 9.582031 12.5 9.664062 12.5 9.75 L 12.511719 9.75 C 12.636719 8.207031 13.921875 7 15.5 7 Z M 12.242188 6.640625 C 12.214844 6.667969 12.191406 6.695312 12.164062 6.722656 C 12.140625 6.75 12.117188 6.773438 12.09375 6.800781 C 12.070312 6.828125 12.046875 6.855469 12.023438 6.882812 C 12.003906 6.914062 11.980469 6.941406 11.957031 6.96875 C 11.933594 6.996094 11.914062 7.027344 11.890625 7.054688 C 11.871094 7.078125 11.855469 7.105469 11.835938 7.132812 C 11.855469 7.105469 11.871094 7.078125 11.890625 7.054688 C 11.914062 7.027344 11.933594 6.996094 11.957031 6.96875 C 11.980469 6.941406 12.003906 6.914062 12.023438 6.882812 C 12.046875 6.855469 12.070312 6.828125 12.09375 6.800781 C 12.117188 6.773438 12.140625 6.75 12.164062 6.722656 C 12.191406 6.695312 12.214844 6.667969 12.242188 6.640625 Z M 15.289062 6.757812 C 15.257812 6.761719 15.222656 6.761719 15.191406 6.765625 C 15.222656 6.761719 15.257812 6.761719 15.289062 6.757812 Z M 18.90625 6.800781 C 18.929688 6.828125 18.953125 6.855469 18.976562 6.882812 C 18.992188 6.90625 19.011719 6.929688 19.03125 6.953125 C 19.011719 6.929688 18.992188 6.90625 18.976562 6.882812 C 18.953125 6.855469 18.929688 6.828125 18.90625 6.800781 Z M 14.710938 6.855469 C 14.675781 6.863281 14.644531 6.875 14.609375 6.882812 C 14.644531 6.875 14.675781 6.863281 14.710938 6.855469 Z M 14.597656 6.886719 C 14.558594 6.898438 14.523438 6.914062 14.484375 6.925781 C 14.523438 6.914062 14.558594 6.898438 14.597656 6.886719 Z M 14.433594 6.945312 C 14.40625 6.953125 14.378906 6.964844 14.351562 6.976562 C 14.378906 6.964844 14.40625 6.953125 14.433594 6.945312 Z M 14.304688 6.996094 C 14.277344 7.007812 14.25 7.019531 14.226562 7.03125 C 14.25 7.019531 14.277344 7.007812 14.304688 6.996094 Z M 19.109375 7.054688 C 19.128906 7.082031 19.152344 7.113281 19.171875 7.140625 C 19.191406 7.171875 19.214844 7.199219 19.234375 7.230469 C 19.214844 7.199219 19.191406 7.171875 19.171875 7.140625 C 19.152344 7.113281 19.128906 7.082031 19.109375 7.054688 Z M 14.035156 7.128906 C 14.011719 7.140625 13.992188 7.15625 13.96875 7.167969 C 13.992188 7.15625 14.011719 7.140625 14.035156 7.128906 Z M 13.921875 7.195312 C 13.90625 7.207031 13.886719 7.21875 13.867188 7.230469 C 13.886719 7.21875 13.90625 7.207031 13.921875 7.195312 Z M 11.765625 7.230469 C 11.746094 7.261719 11.726562 7.289062 11.707031 7.320312 C 11.726562 7.289062 11.746094 7.261719 11.765625 7.230469 Z M 19.292969 7.320312 C 19.3125 7.351562 19.332031 7.382812 19.351562 7.414062 C 19.371094 7.445312 19.386719 7.476562 19.40625 7.507812 C 19.421875 7.539062 19.441406 7.570312 19.457031 7.601562 C 19.476562 7.632812 19.492188 7.664062 19.507812 7.699219 C 19.523438 7.726562 19.539062 7.753906 19.550781 7.785156 C 19.539062 7.753906 19.523438 7.726562 19.507812 7.699219 C 19.492188 7.664062 19.476562 7.632812 19.457031 7.601562 C 19.441406 7.570312 19.421875 7.539062 19.40625 7.507812 C 19.386719 7.476562 19.371094 7.445312 19.351562 7.414062 C 19.332031 7.382812 19.3125 7.351562 19.292969 7.320312 Z M 13.582031 7.441406 C 13.5625 7.457031 13.542969 7.472656 13.523438 7.488281 C 13.542969 7.472656 13.5625 7.457031 13.582031 7.441406 Z M 11.59375 7.507812 C 11.578125 7.539062 11.558594 7.570312 11.542969 7.601562 C 11.523438 7.632812 11.507812 7.664062 11.492188 7.699219 C 11.476562 7.730469 11.457031 7.761719 11.441406 7.796875 C 11.410156 7.863281 11.382812 7.929688 11.351562 7.996094 C 11.324219 8.0625 11.296875 8.128906 11.273438 8.199219 C 11.296875 8.128906 11.324219 8.0625 11.351562 7.996094 C 11.382812 7.929688 11.410156 7.863281 11.441406 7.796875 C 11.457031 7.761719 11.476562 7.730469 11.492188 7.699219 C 11.507812 7.664062 11.523438 7.632812 11.542969 7.601562 C 11.558594 7.570312 11.578125 7.539062 11.59375 7.507812 Z M 19.648438 7.996094 C 19.660156 8.027344 19.675781 8.0625 19.6875 8.097656 C 19.703125 8.128906 19.714844 8.164062 19.726562 8.199219 C 19.714844 8.164062 19.703125 8.128906 19.6875 8.097656 C 19.675781 8.0625 19.660156 8.027344 19.648438 7.996094 Z M 19.765625 8.304688 C 19.777344 8.339844 19.789062 8.375 19.796875 8.410156 C 19.808594 8.445312 19.820312 8.480469 19.828125 8.515625 C 19.820312 8.480469 19.808594 8.445312 19.796875 8.410156 C 19.789062 8.375 19.777344 8.339844 19.765625 8.304688 Z M 19.832031 8.523438 C 19.851562 8.59375 19.867188 8.660156 19.882812 8.730469 C 19.894531 8.769531 19.902344 8.804688 19.910156 8.839844 C 19.902344 8.804688 19.894531 8.769531 19.882812 8.730469 C 19.867188 8.660156 19.851562 8.59375 19.832031 8.523438 Z M 11.167969 8.523438 C 11.136719 8.628906 11.113281 8.730469 11.09375 8.835938 C 11.113281 8.730469 11.136719 8.628906 11.167969 8.523438 Z M 12.664062 8.765625 C 12.65625 8.789062 12.652344 8.808594 12.644531 8.832031 C 12.652344 8.808594 12.65625 8.789062 12.664062 8.765625 Z M 19.910156 8.84375 C 19.945312 9.023438 19.972656 9.210938 19.988281 9.398438 C 19.972656 9.210938 19.945312 9.023438 19.910156 8.84375 Z M 12.621094 8.898438 C 12.617188 8.917969 12.613281 8.9375 12.605469 8.953125 C 12.613281 8.9375 12.617188 8.917969 12.621094 8.898438 Z M 11.070312 8.953125 C 11.042969 9.101562 11.023438 9.25 11.011719 9.398438 C 11.023438 9.25 11.042969 9.101562 11.070312 8.953125 Z M 12.003906 9.625 C 12 9.667969 12 9.707031 12 9.75 C 12 9.792969 12 9.839844 12.003906 9.882812 C 12 9.921875 12 9.960938 12 10 C 12 11.9375 13.5625 13.5 15.5 13.5 C 17.4375 13.5 19 11.9375 19 10 C 19 9.960938 19 9.921875 18.996094 9.882812 C 18.996094 9.878906 18.996094 9.878906 18.996094 9.875 C 19 9.832031 19 9.792969 19 9.75 C 19 9.707031 19 9.667969 18.996094 9.625 C 18.933594 11.503906 17.398438 13 15.5 13 C 13.601562 13 12.066406 11.503906 12.003906 9.625 Z M 19.730469 11.289062 C 19.707031 11.355469 19.679688 11.425781 19.652344 11.492188 L 19.730469 11.539062 C 19.707031 11.605469 19.679688 11.675781 19.652344 11.742188 L 22.929688 13.632812 C 23.128906 13.75 23.257812 13.945312 23.292969 14.15625 C 23.320312 13.988281 23.289062 13.816406 23.207031 13.667969 C 23.191406 13.636719 23.171875 13.609375 23.152344 13.582031 C 23.171875 13.609375 23.191406 13.636719 23.207031 13.667969 C 23.25 13.742188 23.277344 13.824219 23.292969 13.90625 C 23.34375 13.605469 23.207031 13.292969 22.929688 13.132812 Z M 12.925781 12.125 C 12.949219 12.148438 12.96875 12.171875 12.992188 12.195312 C 12.96875 12.171875 12.949219 12.148438 12.925781 12.125 Z M 18.074219 12.125 C 18.050781 12.148438 18.03125 12.171875 18.007812 12.195312 C 18.03125 12.171875 18.050781 12.148438 18.074219 12.125 Z M 13.046875 12.25 C 13.066406 12.269531 13.085938 12.285156 13.105469 12.304688 C 13.085938 12.285156 13.066406 12.269531 13.046875 12.25 Z M 17.953125 12.25 C 17.9375 12.265625 17.921875 12.28125 17.902344 12.296875 C 17.921875 12.28125 17.9375 12.265625 17.953125 12.25 Z M 13.160156 12.355469 C 13.191406 12.382812 13.21875 12.410156 13.25 12.4375 C 13.21875 12.410156 13.191406 12.382812 13.160156 12.355469 Z M 13.683594 12.742188 C 13.703125 12.757812 13.722656 12.769531 13.746094 12.78125 C 13.722656 12.769531 13.703125 12.757812 13.683594 12.742188 Z M 17.316406 12.742188 C 17.296875 12.757812 17.277344 12.769531 17.253906 12.78125 C 17.277344 12.769531 17.296875 12.757812 17.316406 12.742188 Z M 14.878906 13.195312 C 14.90625 13.199219 14.9375 13.207031 14.964844 13.210938 C 14.9375 13.207031 14.90625 13.199219 14.878906 13.195312 Z M 16.121094 13.195312 C 16.09375 13.199219 16.0625 13.207031 16.035156 13.210938 C 16.0625 13.207031 16.09375 13.199219 16.121094 13.195312 Z M 14.976562 13.210938 C 15.03125 13.21875 15.085938 13.226562 15.140625 13.230469 C 15.085938 13.226562 15.03125 13.21875 14.976562 13.210938 Z M 16.023438 13.210938 C 15.96875 13.21875 15.914062 13.226562 15.859375 13.230469 C 15.914062 13.226562 15.96875 13.21875 16.023438 13.210938 Z M 15.230469 13.238281 C 15.285156 13.242188 15.34375 13.246094 15.402344 13.25 C 15.34375 13.246094 15.285156 13.242188 15.230469 13.238281 Z M 15.769531 13.238281 C 15.714844 13.242188 15.65625 13.246094 15.597656 13.25 C 15.65625 13.246094 15.714844 13.242188 15.769531 13.238281 Z M 22.929688 13.382812 C 22.945312 13.394531 22.960938 13.40625 22.976562 13.414062 C 22.996094 13.425781 23.011719 13.4375 23.023438 13.453125 C 23.011719 13.4375 22.996094 13.425781 22.976562 13.414062 C 22.960938 13.40625 22.945312 13.394531 22.929688 13.382812 Z M 23.109375 13.53125 C 23.121094 13.542969 23.128906 13.554688 23.136719 13.5625 C 23.128906 13.554688 23.121094 13.542969 23.109375 13.53125 Z M 23.109375 13.53125 "/>
<path style=" stroke:none;fill-rule:nonzero;fill:url(#linear0);" d="M 7 2 C 6.445312 2 6 2.445312 6 3 L 6 11.132812 C 5.699219 11.304688 5.5 11.628906 5.5 12 L 5.5 15 C 5.222656 15 5 15.222656 5 15.5 L 5 18 L 4 18 C 2.890625 18 2 18.890625 2 20 L 2 25 C 2 26.109375 2.890625 27 4 27 L 4 28 C 4 28.554688 4.445312 29 5 29 L 6 29 C 6 29.554688 6.445312 30 7 30 L 25 30 C 25.554688 30 26 29.554688 26 29 L 27 29 C 27.554688 29 28 28.554688 28 28 L 28 27 C 29.109375 27 30 26.109375 30 25 L 30 20 C 30 18.890625 29.109375 18 28 18 L 27 18 L 27 15.5 C 27 15.222656 26.777344 15 26.5 15 L 26.5 12 C 26.5 11.628906 26.300781 11.304688 26 11.132812 L 26 3 C 26 2.445312 25.554688 2 25 2 Z M 7 2 "/>
</g>
</svg>
