
<svg xmlns="http://www.w3.org/2000/svg" xmlns:xlink="http://www.w3.org/1999/xlink" width="32" height="32" viewBox="0 0 32 32" version="1.1">
<defs>
<linearGradient id="linear0" gradientUnits="userSpaceOnUse" x1="32" y1="59.999996" x2="32" y2="4" gradientTransform="matrix(0.5,0,0,0.5,0,0)">
<stop offset="0" style="stop-color:rgb(0%,0%,0%);stop-opacity:0.2;"/>
<stop offset="1" style="stop-color:rgb(100%,100%,100%);stop-opacity:0;"/>
</linearGradient>
</defs>
<g id="surface1">
<path style=" stroke:none;fill-rule:nonzero;fill:rgb(25.882354%,64.705884%,96.078432%);fill-opacity:1;" d="M 4 2 C 2.890625 2 2 2.890625 2 4 L 2 11.972656 C 2 11.980469 2 11.992188 2 12 C 2 12.554688 2.445312 13 3 13 L 5 13 C 5.554688 13 6 12.554688 6 12 C 6 11.992188 6 11.980469 6 11.972656 L 6 8.828125 L 10 12.828125 L 10 15 L 14 15 L 14 14.25 C 14 14.113281 14.113281 14 14.25 14 L 15 14 L 15 10 L 12.828125 10 L 8.828125 6 L 12 6 C 12.554688 6 13 5.554688 13 5 L 13 3 C 13 2.445312 12.554688 2 12 2 Z M 19.972656 2 C 19.433594 2.011719 19 2.453125 19 3 L 19 5 C 19 5.554688 19.445312 6 20 6 L 23.171875 6 L 19.171875 10 L 17 10 L 17 14 L 17.75 14 C 17.886719 14 18 14.113281 18 14.25 L 18 15 L 22 15 L 22 12.828125 L 26 8.828125 L 26 11.972656 C 26 11.980469 26 11.992188 26 12 C 26 12.554688 26.445312 13 27 13 L 29 13 C 29.554688 13 30 12.554688 30 12 C 30 11.992188 30 11.980469 30 11.972656 L 30 4 C 30 2.890625 29.109375 2 28 2 L 20 2 C 19.992188 2 19.980469 2 19.972656 2 Z M 10 17 L 10 19.171875 L 6 23.171875 L 6 20 C 6 19.445312 5.554688 19 5 19 L 3 19 C 2.445312 19 2 19.445312 2 20 C 2 20.007812 2 20.019531 2 20.027344 L 2 28 C 2 29.109375 2.890625 30 4 30 L 12 30 C 12.554688 30 13 29.554688 13 29 L 13 27 C 13 26.445312 12.554688 26 12 26 L 8.828125 26 L 12.828125 22 L 15 22 L 15 18 L 14.25 18 C 14.113281 18 14 17.886719 14 17.75 L 14 17 Z M 18 17 L 18 17.75 C 18 17.886719 17.886719 18 17.75 18 L 17 18 L 17 22 L 19.171875 22 L 23.171875 26 L 20 26 C 19.445312 26 19 26.445312 19 27 L 19 29 C 19 29.554688 19.445312 30 20 30 L 28 30 C 29.109375 30 30 29.109375 30 28 L 30 20 C 30 19.445312 29.554688 19 29 19 L 27 19 C 26.445312 19 26 19.445312 26 20 C 26 20.007812 26 20.019531 26 20.027344 L 26 23.171875 L 22 19.171875 L 22 17 Z M 18 17 "/>
<path style=" stroke:none;fill-rule:nonzero;fill:url(#linear0);" d="M 4 2 C 2.890625 2 2 2.890625 2 4 L 2 11.972656 C 2 11.980469 2 11.992188 2 12 C 2 12.554688 2.445312 13 3 13 L 5 13 C 5.554688 13 6 12.554688 6 12 C 6 11.992188 6 11.980469 6 11.972656 L 6 8.828125 L 10 12.828125 L 10 15 L 14 15 L 14 14.25 C 14 14.113281 14.113281 14 14.25 14 L 15 14 L 15 10 L 12.828125 10 L 8.828125 6 L 12 6 C 12.554688 6 13 5.554688 13 5 L 13 3 C 13 2.445312 12.554688 2 12 2 Z M 19.972656 2 C 19.433594 2.011719 19 2.453125 19 3 L 19 5 C 19 5.554688 19.445312 6 20 6 L 23.171875 6 L 19.171875 10 L 17 10 L 17 14 L 17.75 14 C 17.886719 14 18 14.113281 18 14.25 L 18 15 L 22 15 L 22 12.828125 L 26 8.828125 L 26 11.972656 C 26 11.980469 26 11.992188 26 12 C 26 12.554688 26.445312 13 27 13 L 29 13 C 29.554688 13 30 12.554688 30 12 C 30 11.992188 30 11.980469 30 11.972656 L 30 4 C 30 2.890625 29.109375 2 28 2 L 20 2 C 19.992188 2 19.980469 2 19.972656 2 Z M 10 17 L 10 19.171875 L 6 23.171875 L 6 20 C 6 19.445312 5.554688 19 5 19 L 3 19 C 2.445312 19 2 19.445312 2 20 C 2 20.007812 2 20.019531 2 20.027344 L 2 28 C 2 29.109375 2.890625 30 4 30 L 12 30 C 12.554688 30 13 29.554688 13 29 L 13 27 C 13 26.445312 12.554688 26 12 26 L 8.828125 26 L 12.828125 22 L 15 22 L 15 18 L 14.25 18 C 14.113281 18 14 17.886719 14 17.75 L 14 17 Z M 18 17 L 18 17.75 C 18 17.886719 17.886719 18 17.75 18 L 17 18 L 17 22 L 19.171875 22 L 23.171875 26 L 20 26 C 19.445312 26 19 26.445312 19 27 L 19 29 C 19 29.554688 19.445312 30 20 30 L 28 30 C 29.109375 30 30 29.109375 30 28 L 30 20 C 30 19.445312 29.554688 19 29 19 L 27 19 C 26.445312 19 26 19.445312 26 20 C 26 20.007812 26 20.019531 26 20.027344 L 26 23.171875 L 22 19.171875 L 22 17 Z M 18 17 "/>
<path style=" stroke:none;fill-rule:nonzero;fill:rgb(100%,100%,100%);fill-opacity:0.4;" d="M 4 2 C 2.890625 2 2 2.890625 2 4 L 2 4.5 C 2 3.390625 2.890625 2.5 4 2.5 L 12 2.5 C 12.554688 2.5 13 2.945312 13 3.5 L 13 3 C 13 2.445312 12.554688 2 12 2 Z M 19.972656 2 C 19.433594 2.011719 19 2.453125 19 3 L 19 3.5 C 19 2.953125 19.433594 2.511719 19.972656 2.5 C 19.980469 2.5 19.992188 2.5 20 2.5 L 28 2.5 C 29.109375 2.5 30 3.390625 30 4.5 L 30 4 C 30 2.890625 29.109375 2 28 2 L 20 2 C 19.992188 2 19.980469 2 19.972656 2 Z M 8.828125 6.5 L 12.828125 10.5 L 15 10.5 L 15 10 L 12.828125 10 L 9.328125 6.5 Z M 22.671875 6.5 L 19.171875 10 L 17 10 L 17 10.5 L 19.171875 10.5 L 23.171875 6.5 Z M 10 17 L 10 17.5 L 14 17.5 L 14 17 Z M 18 17 L 18 17.5 L 22 17.5 L 22 17 Z M 14 17.75 L 14 18.25 C 14 18.386719 14.113281 18.5 14.25 18.5 L 15 18.5 L 15 18 L 14.25 18 C 14.113281 18 14 17.886719 14 17.75 Z M 18 17.75 C 18 17.886719 17.886719 18 17.75 18 L 17 18 L 17 18.5 L 17.75 18.5 C 17.886719 18.5 18 18.386719 18 18.25 Z M 3 19 C 2.445312 19 2 19.445312 2 20 C 2 20.007812 2 20.019531 2 20.027344 L 2 20.5 C 2 19.945312 2.445312 19.5 3 19.5 L 5 19.5 C 5.554688 19.5 6 19.945312 6 20.5 L 6 20 C 6 19.445312 5.554688 19 5 19 Z M 27 19 C 26.445312 19 26 19.445312 26 20 C 26 20.007812 26 20.019531 26 20.027344 L 26 20.5 C 26 19.945312 26.445312 19.5 27 19.5 L 29 19.5 C 29.554688 19.5 30 19.945312 30 20.5 L 30 20 C 30 19.445312 29.554688 19 29 19 Z M 10 19.171875 L 6 23.171875 L 6 23.671875 L 10 19.671875 Z M 22 19.171875 L 22 19.671875 L 26 23.671875 L 26 23.171875 Z M 9.328125 26 L 8.828125 26.5 L 12 26.5 C 12.554688 26.5 13 26.945312 13 27.5 L 13 27 C 13 26.445312 12.554688 26 12 26 Z M 20 26 C 19.445312 26 19 26.445312 19 27 L 19 27.5 C 19 26.945312 19.445312 26.5 20 26.5 L 23.171875 26.5 L 22.671875 26 Z M 20 26 "/>
<path style=" stroke:none;fill-rule:nonzero;fill:rgb(0%,0%,0%);fill-opacity:0.4;" d="M 4 30 C 2.890625 30 2 29.109375 2 28 L 2 27.5 C 2 28.609375 2.890625 29.5 4 29.5 L 12 29.5 C 12.554688 29.5 13 29.054688 13 28.5 L 13 29 C 13 29.554688 12.554688 30 12 30 Z M 19.972656 30 C 19.433594 29.988281 19 29.546875 19 29 L 19 28.5 C 19 29.046875 19.433594 29.488281 19.972656 29.5 C 19.980469 29.5 19.992188 29.5 20 29.5 L 28 29.5 C 29.109375 29.5 30 28.609375 30 27.5 L 30 28 C 30 29.109375 29.109375 30 28 30 L 20 30 C 19.992188 30 19.980469 30 19.972656 30 Z M 8.828125 25.5 L 12.828125 21.5 L 15 21.5 L 15 22 L 12.828125 22 L 9.328125 25.5 Z M 22.671875 25.5 L 19.171875 22 L 17 22 L 17 21.5 L 19.171875 21.5 L 23.171875 25.5 Z M 10 15 L 10 14.5 L 14 14.5 L 14 15 Z M 18 15 L 18 14.5 L 22 14.5 L 22 15 Z M 14 14.25 L 14 13.75 C 14 13.613281 14.113281 13.5 14.25 13.5 L 15 13.5 L 15 14 L 14.25 14 C 14.113281 14 14 14.113281 14 14.25 Z M 18 14.25 C 18 14.113281 17.886719 14 17.75 14 L 17 14 L 17 13.5 L 17.75 13.5 C 17.886719 13.5 18 13.613281 18 13.75 Z M 3 13 C 2.445312 13 2 12.554688 2 12 C 2 11.992188 2 11.984375 2 11.972656 L 2 11.5 C 2 12.054688 2.445312 12.5 3 12.5 L 5 12.5 C 5.554688 12.5 6 12.054688 6 11.5 L 6 12 C 6 12.554688 5.554688 13 5 13 Z M 27 13 C 26.445312 13 26 12.554688 26 12 C 26 11.992188 26 11.984375 26 11.972656 L 26 11.5 C 26 12.054688 26.445312 12.5 27 12.5 L 29 12.5 C 29.554688 12.5 30 12.054688 30 11.5 L 30 12 C 30 12.554688 29.554688 13 29 13 Z M 10 12.828125 L 6 8.828125 L 6 8.328125 L 10 12.328125 Z M 22 12.828125 L 22 12.328125 L 26 8.328125 L 26 8.828125 Z M 9.328125 6 L 8.828125 5.5 L 12 5.5 C 12.554688 5.5 13 5.054688 13 4.5 L 13 5 C 13 5.554688 12.554688 6 12 6 Z M 20 6 C 19.445312 6 19 5.554688 19 5 L 19 4.5 C 19 5.054688 19.445312 5.5 20 5.5 L 23.171875 5.5 L 22.671875 6 Z M 20 6 "/>
<path style=" stroke:none;fill-rule:nonzero;fill:rgb(0%,0%,0%);fill-opacity:0.2;" d="M 13 5 C 13 5.550781 12.554688 6 12 6 L 8.828125 6 L 9.578125 6.75 L 12 6.75 C 12.554688 6.75 13 6.300781 13 5.75 Z M 19 5 L 19 5.75 C 19 6.300781 19.445312 6.75 20 6.75 L 22.421875 6.75 L 23.171875 6 L 20 6 C 19.445312 6 19 5.550781 19 5 Z M 6 8.828125 L 6 9.578125 L 10 13.578125 L 10 12.828125 Z M 26 8.828125 L 22 12.828125 L 22 13.578125 L 26 9.578125 Z M 2 12 L 2 12.722656 C 2 12.730469 2 12.738281 2 12.75 C 2 13.300781 2.445312 13.75 3 13.75 L 5 13.75 C 5.554688 13.75 6 13.300781 6 12.75 C 6 12.738281 6 12.730469 6 12.722656 L 6 12 C 6 12.550781 5.554688 13 5 13 L 3 13 C 2.445312 13 2 12.550781 2 12 Z M 26 12 L 26 12.722656 C 26 12.730469 26 12.738281 26 12.75 C 26 13.300781 26.445312 13.75 27 13.75 L 29 13.75 C 29.554688 13.75 30 13.300781 30 12.75 C 30 12.738281 30 12.730469 30 12.722656 L 30 12 C 30 12.550781 29.554688 13 29 13 L 27 13 C 26.445312 13 26 12.550781 26 12 Z M 14.25 14 C 14.113281 14 14 14.109375 14 14.25 L 14 15 C 14 14.859375 14.113281 14.75 14.25 14.75 L 15 14.75 L 15 14 Z M 14 15 L 10 15 L 10 15.75 L 14 15.75 Z M 17 14 L 17 14.75 L 17.75 14.75 C 17.886719 14.75 18 14.859375 18 15 L 18 14.25 C 18 14.109375 17.886719 14 17.75 14 Z M 18 15 L 18 15.75 L 22 15.75 L 22 15 Z M 12.828125 22 L 8.828125 26 L 9.578125 26 L 12.828125 22.75 L 15 22.75 L 15 22 Z M 17 22 L 17 22.75 L 19.171875 22.75 L 22.421875 26 L 23.171875 26 L 19.171875 22 Z M 2 28 L 2 28.75 C 2 29.855469 2.890625 30.75 4 30.75 L 12 30.75 C 12.554688 30.75 13 30.300781 13 29.75 L 13 29 C 13 29.550781 12.554688 30 12 30 L 4 30 C 2.890625 30 2 29.105469 2 28 Z M 30 28 C 30 29.105469 29.109375 30 28 30 L 20 30 C 19.445312 30 19 29.550781 19 29 L 19 29.75 C 19 30.300781 19.445312 30.75 20 30.75 L 28 30.75 C 29.109375 30.75 30 29.855469 30 28.75 Z M 30 28 "/>
</g>
</svg>
