
<svg xmlns="http://www.w3.org/2000/svg" xmlns:xlink="http://www.w3.org/1999/xlink" width="48" height="48" viewBox="0 0 48 48" version="1.1">
<defs>
<linearGradient id="linear0" gradientUnits="userSpaceOnUse" x1="8.466666" y1="-199.125" x2="8.466666" y2="-213.941666" gradientTransform="matrix(2.834646,0,0,2.834646,0,609.448851)">
<stop offset="0" style="stop-color:rgb(0%,0%,0%);stop-opacity:0.2;"/>
<stop offset="1" style="stop-color:rgb(100%,100%,100%);stop-opacity:0;"/>
</linearGradient>
</defs>
<g id="surface1">
<path style=" stroke:none;fill-rule:nonzero;fill:rgb(0%,0%,0%);fill-opacity:0.2;" d="M 3.007812 24.566406 C 3.003906 24.75 3 24.9375 3 25.125 C 3 36.722656 12.402344 46.125 24 46.125 C 35.597656 46.125 45 36.722656 45 25.125 C 45 24.9375 44.996094 24.75 44.992188 24.566406 C 44.695312 35.90625 35.410156 45.003906 24 45.003906 C 12.589844 45.003906 3.304688 35.90625 3.007812 24.566406 Z M 3.007812 24.566406 "/>
<path style=" stroke:none;fill-rule:nonzero;fill:rgb(25.882354%,64.705884%,96.078432%);fill-opacity:1;" d="M 24 3 C 35.597656 3 45 12.402344 45 24 C 45 35.597656 35.597656 44.996094 24 44.996094 C 12.402344 44.996094 3 35.597656 3 24 C 3 12.402344 12.402344 3 24 3 Z M 24 3 "/>
<path style=" stroke:none;fill-rule:nonzero;fill:rgb(100%,100%,100%);fill-opacity:0.4;" d="M 24 3 C 12.402344 3 3 12.402344 3 24 C 3 24.125 3.003906 24.25 3.007812 24.375 C 3.207031 12.949219 12.527344 3.75 24 3.75 C 35.472656 3.75 44.792969 12.949219 44.996094 24.375 C 44.996094 24.25 45 24.125 45 24 C 45 12.402344 35.597656 3 24 3 Z M 24 3 "/>
<path style=" stroke:none;fill-rule:nonzero;fill:rgb(0.392157%,0.392157%,0.392157%);fill-opacity:0.4;" d="M 24 45 C 12.402344 45 3 35.597656 3 24 C 3 23.875 3.003906 23.75 3.003906 23.625 C 3.207031 35.050781 12.527344 44.25 24 44.25 C 35.472656 44.25 44.792969 35.050781 44.996094 23.625 C 44.996094 23.75 45 23.875 45 24 C 45 35.597656 35.597656 45 24 45 Z M 24 45 "/>
<path style=" stroke:none;fill-rule:nonzero;fill:rgb(87.843138%,87.843138%,87.843138%);fill-opacity:1;" d="M 11.0625 13.921875 C 10.503906 13.921875 10.554688 15.507812 10.554688 17.273438 C 10.554688 18.214844 10.441406 21.046875 10.335938 23.566406 C 11.277344 23.449219 12.515625 23 13.125 22.53125 C 13.367188 22.339844 13.679688 22.035156 14.023438 21.679688 C 13.980469 21.640625 13.929688 21.601562 13.882812 21.5625 C 12.121094 20.046875 12.472656 13.921875 11.0625 13.921875 Z M 37.339844 13.921875 C 35.921875 13.921875 36.277344 20.046875 34.507812 21.5625 C 34.402344 21.65625 34.285156 21.761719 34.171875 21.875 C 34.441406 22.144531 34.683594 22.375 34.878906 22.53125 C 35.574219 23.070312 37.105469 23.578125 38.0625 23.597656 C 37.953125 21.066406 37.835938 18.222656 37.835938 17.273438 C 37.835938 15.507812 37.890625 13.921875 37.339844 13.921875 Z M 19.5 19.289062 C 18.40625 19.289062 17.140625 20.632812 15.796875 22.058594 C 15.160156 22.730469 14.558594 23.367188 14.074219 23.75 C 13.097656 24.507812 11.179688 25.144531 9.886719 25.144531 C 9.40625 25.144531 9.214844 25.050781 9.167969 25.023438 C 8.84375 24.820312 8.527344 24.714844 8.230469 24.714844 C 7.804688 24.714844 7.445312 24.9375 7.296875 25.292969 C 7.105469 25.734375 7.261719 26.273438 7.714844 26.734375 C 9.117188 28.203125 12.34375 29.042969 16.558594 29.042969 C 19.320312 29.042969 21.816406 27.589844 23.230469 26.234375 C 23.519531 25.957031 23.890625 25.941406 23.964844 25.941406 L 23.980469 25.945312 L 24.027344 25.941406 L 24.039062 25.941406 C 24.109375 25.941406 24.480469 25.957031 24.769531 26.234375 C 26.183594 27.589844 28.679688 29.042969 31.445312 29.042969 C 35.65625 29.042969 38.878906 28.199219 40.289062 26.734375 C 40.734375 26.269531 40.890625 25.734375 40.707031 25.292969 C 40.550781 24.9375 40.199219 24.714844 39.773438 24.714844 C 39.476562 24.714844 39.160156 24.820312 38.835938 25.023438 C 38.789062 25.050781 38.597656 25.144531 38.117188 25.144531 C 36.824219 25.144531 34.898438 24.507812 33.925781 23.75 C 33.445312 23.367188 32.839844 22.730469 32.203125 22.058594 C 30.863281 20.632812 29.59375 19.289062 28.503906 19.289062 C 27.722656 19.289062 26.824219 19.652344 25.957031 20.003906 C 25.234375 20.292969 24.488281 20.597656 24 20.597656 C 23.515625 20.597656 22.769531 20.292969 22.046875 20.003906 C 21.179688 19.652344 20.277344 19.289062 19.5 19.289062 Z M 37.984375 29.734375 C 36.21875 30.289062 34.003906 30.585938 31.445312 30.585938 C 31.085938 30.585938 30.734375 30.566406 30.375 30.523438 L 30.375 32.914062 C 30.375 33.671875 31.179688 34.070312 32.289062 34.070312 C 33.398438 34.070312 35.921875 34.273438 36.929688 32.507812 C 37.449219 31.601562 37.78125 30.585938 37.984375 29.734375 Z M 10.441406 29.863281 C 10.648438 30.6875 10.972656 31.648438 11.464844 32.507812 C 12.472656 34.273438 14.996094 34.074219 16.109375 34.074219 C 17.21875 34.074219 18.027344 33.671875 18.027344 32.914062 L 18.027344 30.472656 C 17.53125 30.550781 17.042969 30.585938 16.558594 30.585938 C 14.199219 30.585938 12.132812 30.335938 10.441406 29.867188 Z M 10.441406 29.863281 "/>
<path style=" stroke:none;fill-rule:nonzero;fill:rgb(100%,100%,100%);fill-opacity:0.6;" d="M 11.0625 13.921875 C 10.53125 13.921875 10.554688 15.339844 10.558594 16.984375 C 10.558594 15.660156 10.609375 14.625 11.0625 14.625 C 12.410156 14.625 12.152344 20.222656 13.664062 22.039062 C 13.78125 21.925781 13.898438 21.808594 14.019531 21.679688 C 13.980469 21.640625 13.929688 21.601562 13.886719 21.5625 C 12.121094 20.046875 12.472656 13.921875 11.0625 13.921875 Z M 37.339844 13.921875 C 35.921875 13.921875 36.277344 20.046875 34.507812 21.5625 C 34.402344 21.65625 34.289062 21.761719 34.171875 21.875 C 34.300781 22.003906 34.425781 22.125 34.542969 22.234375 C 36.273438 20.671875 35.929688 14.625 37.339844 14.625 C 37.816406 14.625 37.839844 15.8125 37.839844 17.273438 C 37.839844 15.507812 37.890625 13.921875 37.339844 13.921875 Z M 37.839844 17.324219 C 37.839844 17.539062 37.839844 17.757812 37.839844 17.976562 C 37.839844 18.839844 37.933594 21.261719 38.035156 23.597656 C 38.042969 23.597656 38.054688 23.597656 38.0625 23.597656 C 37.957031 21.105469 37.84375 18.316406 37.839844 17.324219 Z M 10.554688 17.371094 C 10.550781 18.394531 10.4375 21.121094 10.335938 23.566406 C 10.34375 23.566406 10.355469 23.5625 10.363281 23.5625 C 10.460938 21.242188 10.558594 18.832031 10.558594 17.976562 C 10.558594 17.773438 10.554688 17.570312 10.554688 17.371094 Z M 19.5 19.289062 C 18.40625 19.289062 17.140625 20.632812 15.796875 22.058594 C 15.160156 22.730469 14.558594 23.367188 14.074219 23.746094 C 13.097656 24.507812 11.179688 25.144531 9.886719 25.144531 C 9.40625 25.144531 9.214844 25.050781 9.167969 25.023438 C 8.84375 24.820312 8.527344 24.714844 8.230469 24.714844 C 7.804688 24.714844 7.445312 24.9375 7.296875 25.292969 C 7.195312 25.527344 7.191406 25.785156 7.277344 26.046875 C 7.285156 26.03125 7.289062 26.015625 7.296875 25.996094 C 7.445312 25.640625 7.804688 25.417969 8.230469 25.417969 C 8.527344 25.417969 8.84375 25.523438 9.167969 25.726562 C 9.214844 25.753906 9.40625 25.847656 9.886719 25.847656 C 11.179688 25.847656 13.097656 25.210938 14.074219 24.453125 C 14.558594 24.074219 15.160156 23.433594 15.796875 22.761719 C 17.140625 21.335938 18.40625 19.996094 19.5 19.996094 C 20.277344 19.996094 21.179688 20.359375 22.046875 20.707031 C 22.769531 21 23.515625 21.300781 24 21.300781 C 24.488281 21.300781 25.234375 21 25.957031 20.707031 C 26.824219 20.359375 27.722656 19.996094 28.503906 19.996094 C 29.59375 19.996094 30.859375 21.335938 32.203125 22.761719 C 32.835938 23.433594 33.445312 24.074219 33.925781 24.453125 C 34.898438 25.210938 36.820312 25.847656 38.117188 25.847656 C 38.597656 25.847656 38.789062 25.753906 38.835938 25.726562 C 39.160156 25.523438 39.476562 25.417969 39.773438 25.417969 C 40.199219 25.417969 40.550781 25.640625 40.707031 25.996094 C 40.710938 26.011719 40.71875 26.027344 40.722656 26.039062 C 40.804688 25.78125 40.804688 25.523438 40.707031 25.292969 C 40.550781 24.9375 40.199219 24.714844 39.773438 24.714844 C 39.476562 24.714844 39.160156 24.820312 38.835938 25.023438 C 38.789062 25.050781 38.597656 25.144531 38.117188 25.144531 C 36.820312 25.144531 34.898438 24.507812 33.925781 23.746094 C 33.445312 23.367188 32.835938 22.730469 32.203125 22.058594 C 30.859375 20.632812 29.59375 19.289062 28.503906 19.289062 C 27.722656 19.289062 26.824219 19.652344 25.957031 20.003906 C 25.234375 20.292969 24.488281 20.597656 24 20.597656 C 23.515625 20.597656 22.769531 20.292969 22.046875 20.003906 C 21.179688 19.652344 20.277344 19.289062 19.5 19.289062 Z M 37.984375 29.734375 C 36.21875 30.289062 34.003906 30.585938 31.449219 30.585938 C 31.089844 30.585938 30.734375 30.566406 30.375 30.523438 L 30.375 31.230469 C 30.734375 31.273438 31.089844 31.292969 31.449219 31.292969 C 33.90625 31.292969 36.042969 31.015625 37.773438 30.503906 C 37.855469 30.238281 37.925781 29.980469 37.984375 29.734375 Z M 10.445312 29.863281 C 10.503906 30.109375 10.578125 30.367188 10.660156 30.628906 C 12.3125 31.0625 14.300781 31.292969 16.558594 31.292969 C 17.042969 31.292969 17.53125 31.253906 18.023438 31.175781 L 18.023438 30.472656 C 17.53125 30.550781 17.042969 30.585938 16.558594 30.585938 C 14.199219 30.585938 12.136719 30.335938 10.445312 29.863281 Z M 10.445312 29.863281 "/>
<path style=" stroke:none;fill-rule:nonzero;fill:rgb(0%,0%,0%);fill-opacity:0.4;" d="M 10.558594 16.96875 C 10.558594 17.101562 10.554688 17.234375 10.554688 17.371094 C 10.554688 17.339844 10.558594 17.296875 10.558594 17.273438 C 10.558594 17.167969 10.558594 17.070312 10.558594 16.96875 Z M 13.675781 22.027344 C 13.46875 22.230469 13.28125 22.40625 13.125 22.53125 C 12.523438 22.992188 11.300781 23.441406 10.363281 23.5625 C 10.351562 23.789062 10.34375 24.019531 10.335938 24.246094 C 11.277344 24.128906 12.515625 23.679688 13.125 23.210938 C 13.367188 23.019531 13.679688 22.714844 14.019531 22.359375 C 13.980469 22.320312 13.929688 22.28125 13.886719 22.242188 C 13.8125 22.179688 13.742188 22.105469 13.675781 22.027344 Z M 34.527344 22.222656 C 34.523438 22.230469 34.515625 22.234375 34.507812 22.242188 C 34.402344 22.339844 34.289062 22.445312 34.171875 22.554688 C 34.441406 22.824219 34.683594 23.058594 34.878906 23.210938 C 35.578125 23.75 37.105469 24.257812 38.0625 24.277344 C 38.054688 24.054688 38.042969 23.824219 38.035156 23.597656 C 37.074219 23.566406 35.570312 23.0625 34.878906 22.53125 C 34.777344 22.449219 34.65625 22.34375 34.527344 22.222656 Z M 23.964844 25.941406 C 23.890625 25.941406 23.519531 25.957031 23.230469 26.230469 C 21.816406 27.589844 19.320312 29.042969 16.558594 29.042969 C 12.34375 29.042969 9.117188 28.203125 7.710938 26.734375 C 7.496094 26.511719 7.347656 26.273438 7.273438 26.035156 C 7.121094 26.460938 7.28125 26.972656 7.710938 27.414062 C 9.117188 28.882812 12.34375 29.722656 16.558594 29.722656 C 19.320312 29.722656 21.816406 28.269531 23.230469 26.914062 C 23.519531 26.640625 23.890625 26.621094 23.964844 26.621094 L 23.980469 26.625 L 24.027344 26.621094 L 24.039062 26.621094 C 24.109375 26.621094 24.484375 26.636719 24.769531 26.914062 C 26.183594 28.269531 28.679688 29.722656 31.445312 29.722656 C 35.65625 29.722656 38.878906 28.878906 40.289062 27.414062 C 40.71875 26.96875 40.878906 26.457031 40.726562 26.027344 C 40.652344 26.269531 40.507812 26.507812 40.289062 26.734375 C 38.878906 28.199219 35.65625 29.042969 31.445312 29.042969 C 28.679688 29.042969 26.183594 27.589844 24.769531 26.230469 C 24.484375 25.957031 24.109375 25.941406 24.039062 25.941406 L 24.027344 25.941406 L 23.980469 25.945312 Z M 37.984375 30.414062 C 37.917969 30.433594 37.851562 30.453125 37.78125 30.472656 C 37.582031 31.140625 37.304688 31.851562 36.929688 32.507812 C 35.921875 34.273438 33.402344 34.074219 32.292969 34.074219 C 31.179688 34.074219 30.375 33.671875 30.375 32.914062 L 30.375 33.59375 C 30.375 34.351562 31.179688 34.753906 32.292969 34.753906 C 33.402344 34.753906 35.921875 34.957031 36.929688 33.1875 C 37.449219 32.28125 37.78125 31.265625 37.984375 30.414062 Z M 10.445312 30.546875 C 10.648438 31.371094 10.972656 32.332031 11.464844 33.1875 C 12.472656 34.957031 14.996094 34.753906 16.109375 34.753906 C 17.21875 34.753906 18.023438 34.351562 18.023438 33.59375 L 18.023438 32.914062 C 18.023438 33.671875 17.21875 34.074219 16.109375 34.074219 C 14.996094 34.074219 12.472656 34.273438 11.464844 32.507812 C 11.113281 31.894531 10.851562 31.230469 10.652344 30.601562 C 10.582031 30.582031 10.511719 30.566406 10.445312 30.546875 Z M 10.445312 30.546875 "/>
<path style=" stroke:none;fill-rule:nonzero;fill:url(#linear0);" d="M 24 3 C 35.597656 3 45 12.402344 45 24 C 45 35.597656 35.597656 44.996094 24 44.996094 C 12.402344 44.996094 3 35.597656 3 24 C 3 12.402344 12.402344 3 24 3 Z M 24 3 "/>
</g>
</svg>
