
<svg xmlns="http://www.w3.org/2000/svg" xmlns:xlink="http://www.w3.org/1999/xlink" width="48" height="48" viewBox="0 0 48 48" version="1.1">
<defs>
<linearGradient id="linear0" gradientUnits="userSpaceOnUse" x1="10.054166" y1="-199.125" x2="10.054166" y2="-213.941666" gradientTransform="matrix(2.834646,0,0,2.834646,0.0342078,609.413695)">
<stop offset="0" style="stop-color:rgb(0%,0%,0%);stop-opacity:0.2;"/>
<stop offset="1" style="stop-color:rgb(100%,100%,100%);stop-opacity:0;"/>
</linearGradient>
</defs>
<g id="surface1">
<path style=" stroke:none;fill-rule:nonzero;fill:rgb(40.000001%,73.333335%,41.568628%);fill-opacity:1;" d="M 6 3 L 42 3 C 43.65625 3 45 4.34375 45 6 L 45 42 C 45 43.65625 43.65625 45 42 45 L 6 45 C 4.34375 45 3 43.65625 3 42 L 3 6 C 3 4.34375 4.34375 3 6 3 Z M 6 3 "/>
<path style=" stroke:none;fill-rule:nonzero;fill:rgb(0%,0%,0%);fill-opacity:0.4;" d="M 3 41.25 L 3 42 C 3 43.660156 4.339844 45 6 45 L 42 45 C 43.660156 45 45 43.660156 45 42 L 45 41.25 C 45 42.910156 43.660156 44.25 42 44.25 L 6 44.25 C 4.339844 44.25 3 42.910156 3 41.25 Z M 3 41.25 "/>
<path style=" stroke:none;fill-rule:nonzero;fill:rgb(0%,0%,0%);fill-opacity:0.2;" d="M 3 42 L 3 43.125 C 3 44.785156 4.339844 46.125 6 46.125 L 42 46.125 C 43.660156 46.125 45 44.785156 45 43.125 L 45 42 C 45 43.660156 43.660156 45 42 45 L 6 45 C 4.339844 45 3 43.660156 3 42 Z M 3 42 "/>
<path style=" stroke:none;fill-rule:nonzero;fill:rgb(100%,100%,100%);fill-opacity:0.4;" d="M 6 3 C 4.339844 3 3 4.339844 3 6 L 3 6.738281 C 3 5.078125 4.339844 3.738281 6 3.738281 L 42 3.738281 C 43.660156 3.738281 45 5.078125 45 6.738281 L 45 6 C 45 4.339844 43.660156 3 42 3 Z M 6 3 "/>
<path style=" stroke:none;fill-rule:nonzero;fill:rgb(93.333334%,93.333334%,93.333334%);fill-opacity:1;" d="M 7.5 6 C 6.667969 6 6 6.667969 6 7.5 L 6 36 L 9 36 L 9 9.75 C 9 9.335938 9.335938 9 9.75 9 L 38.25 9 C 38.664062 9 39 9.335938 39 9.75 L 39 38.25 C 39 38.664062 38.664062 39 38.25 39 L 12 39 L 12 42 L 40.5 42 C 41.332031 42 42 41.332031 42 40.5 L 42 7.5 C 42 6.667969 41.332031 6 40.5 6 Z M 6 39 L 6 40.5 C 6 41.332031 6.667969 42 7.5 42 L 9 42 L 9 39 Z M 6 39 "/>
<path style=" stroke:none;fill-rule:nonzero;fill:rgb(93.333334%,93.333334%,93.333334%);fill-opacity:1;" d="M 16.5 13.5 L 16.5 33.75 C 16.5 34.164062 16.835938 34.5 17.25 34.5 L 20.25 34.5 C 20.664062 34.5 21 34.164062 21 33.75 L 21 27 L 28.5 27 C 30.160156 27 31.5 25.660156 31.5 24 L 31.5 16.5 C 31.5 14.839844 30.160156 13.5 28.5 13.5 Z M 21 18 L 26.25 18 C 26.664062 18 27 18.335938 27 18.75 L 27 21.75 C 27 22.164062 26.664062 22.5 26.25 22.5 L 21 22.5 Z M 21 18 "/>
<path style=" stroke:none;fill-rule:nonzero;fill:rgb(100%,100%,100%);fill-opacity:0.6;" d="M 7.5 6 C 6.667969 6 6 6.667969 6 7.5 L 6 8.25 C 6 7.417969 6.667969 6.75 7.5 6.75 L 40.5 6.75 C 41.332031 6.75 42 7.417969 42 8.25 L 42 7.5 C 42 6.667969 41.332031 6 40.5 6 Z M 39 38.25 C 39 38.664062 38.664062 39 38.25 39 L 12 39 L 12 39.75 L 38.25 39.75 C 38.664062 39.75 39 39.414062 39 39 Z M 6 39 L 6 39.75 L 9 39.75 L 9 39 Z M 6 39 "/>
<path style=" stroke:none;fill-rule:nonzero;fill:rgb(100%,100%,100%);fill-opacity:0.6;" d="M 16.5 13.5 L 16.5 14.25 L 28.5 14.25 C 30.160156 14.25 31.5 15.589844 31.5 17.25 L 31.5 16.5 C 31.5 14.839844 30.160156 13.5 28.5 13.5 Z M 27 21.75 C 27 22.164062 26.664062 22.5 26.25 22.5 L 21 22.5 L 21 23.25 L 26.25 23.25 C 26.664062 23.25 27 22.914062 27 22.5 Z M 27 21.75 "/>
<path style=" stroke:none;fill-rule:nonzero;fill:rgb(0%,0%,0%);fill-opacity:0.4;" d="M 9.75 9 C 9.335938 9 9 9.335938 9 9.75 L 9 10.511719 C 9 10.097656 9.335938 9.761719 9.75 9.761719 L 38.25 9.761719 C 38.664062 9.761719 39 10.097656 39 10.511719 L 39 9.75 C 39 9.335938 38.664062 9 38.25 9 Z M 6 36 L 6 36.761719 L 9 36.761719 L 9 36 Z M 6 40.5 L 6 41.261719 C 6 42.09375 6.667969 42.761719 7.5 42.761719 L 9 42.761719 L 9 42 L 7.5 42 C 6.667969 42 6 41.332031 6 40.5 Z M 42 40.5 C 42 41.332031 41.332031 42 40.5 42 L 12 42 L 12 42.761719 L 40.5 42.761719 C 41.332031 42.761719 42 42.09375 42 41.261719 Z M 42 40.5 "/>
<path style=" stroke:none;fill-rule:nonzero;fill:rgb(0%,0%,0%);fill-opacity:0.4;" d="M 21 18 L 21 18.761719 L 26.25 18.761719 C 26.664062 18.761719 27 19.097656 27 19.511719 L 27 18.75 C 27 18.335938 26.664062 18 26.25 18 Z M 31.5 24 C 31.5 25.660156 30.160156 27 28.5 27 L 21 27 L 21 27.761719 L 28.5 27.761719 C 30.160156 27.761719 31.5 26.421875 31.5 24.761719 Z M 16.5 33.75 L 16.5 34.511719 C 16.5 34.925781 16.835938 35.261719 17.25 35.261719 L 20.25 35.261719 C 20.664062 35.261719 21 34.925781 21 34.511719 L 21 33.75 C 21 34.164062 20.664062 34.5 20.25 34.5 L 17.25 34.5 C 16.835938 34.5 16.5 34.164062 16.5 33.75 Z M 16.5 33.75 "/>
<path style=" stroke:none;fill-rule:nonzero;fill:url(#linear0);" d="M 6.035156 2.964844 L 42.035156 2.964844 C 43.691406 2.964844 45.035156 4.308594 45.035156 5.964844 L 45.035156 41.964844 C 45.035156 43.621094 43.691406 44.964844 42.035156 44.964844 L 6.035156 44.964844 C 4.378906 44.964844 3.035156 43.621094 3.035156 41.964844 L 3.035156 5.964844 C 3.035156 4.308594 4.378906 2.964844 6.035156 2.964844 Z M 6.035156 2.964844 "/>
</g>
</svg>
