
<svg xmlns="http://www.w3.org/2000/svg" xmlns:xlink="http://www.w3.org/1999/xlink" width="48" height="48" viewBox="0 0 48 48" version="1.1">
<defs>
<linearGradient id="linear0" gradientUnits="userSpaceOnUse" x1="8.466666" y1="-199.125" x2="8.466666" y2="-213.941666" gradientTransform="matrix(2.834646,0,0,2.834646,0,609.448837)">
<stop offset="0" style="stop-color:rgb(0%,0%,0%);stop-opacity:0.2;"/>
<stop offset="1" style="stop-color:rgb(100%,100%,100%);stop-opacity:0;"/>
</linearGradient>
</defs>
<g id="surface1">
<path style=" stroke:none;fill-rule:nonzero;fill:rgb(55.29412%,43.137255%,38.82353%);fill-opacity:1;" d="M 19.589844 3 L 28.410156 3 C 29.363281 3 30.214844 3.597656 30.535156 4.496094 L 44.464844 43.503906 C 44.589844 43.847656 44.535156 44.226562 44.324219 44.523438 C 44.117188 44.824219 43.773438 45 43.410156 45 L 4.589844 45 C 4.226562 45 3.882812 44.824219 3.675781 44.523438 C 3.464844 44.226562 3.410156 43.847656 3.535156 43.503906 L 17.464844 4.496094 C 17.785156 3.597656 18.636719 3 19.589844 3 Z M 19.589844 3 "/>
<path style=" stroke:none;fill-rule:nonzero;fill:rgb(38.039216%,38.039216%,38.039216%);fill-opacity:1;" d="M 19.589844 3 C 18.636719 3 17.785156 3.597656 17.464844 4.496094 L 7.285156 33 L 40.714844 33 L 30.535156 4.496094 C 30.214844 3.597656 29.363281 3 28.410156 3 Z M 19.589844 3 "/>
<path style=" stroke:none;fill-rule:nonzero;fill:rgb(100%,100%,100%);fill-opacity:0.4;" d="M 7.285156 33 L 7.019531 33.75 L 40.980469 33.75 L 40.714844 33 Z M 7.285156 33 "/>
<path style=" stroke:none;fill-rule:nonzero;fill:rgb(0%,0%,0%);fill-opacity:0.4;" d="M 3.539062 43.488281 L 3.535156 43.503906 C 3.410156 43.847656 3.464844 44.226562 3.671875 44.523438 C 3.882812 44.824219 4.226562 45 4.589844 45 L 43.410156 45 C 43.773438 45 44.117188 44.824219 44.328125 44.523438 C 44.535156 44.226562 44.589844 43.847656 44.464844 43.503906 L 44.460938 43.496094 C 44.300781 43.9375 43.882812 44.230469 43.410156 44.230469 L 4.589844 44.230469 C 4.117188 44.230469 3.699219 43.929688 3.539062 43.488281 Z M 3.539062 43.488281 "/>
<path style=" stroke:none;fill-rule:nonzero;fill:rgb(100%,100%,100%);fill-opacity:0.4;" d="M 19.589844 3 C 18.636719 3 17.785156 3.597656 17.464844 4.496094 L 7.285156 33 L 7.554688 33 L 17.464844 5.246094 C 17.785156 4.347656 18.636719 3.75 19.589844 3.75 L 28.410156 3.75 C 29.363281 3.75 30.214844 4.347656 30.535156 5.246094 L 40.445312 33 L 40.714844 33 L 30.535156 4.496094 C 30.214844 3.597656 29.363281 3 28.410156 3 Z M 19.589844 3 "/>
<path style=" stroke:none;fill-rule:nonzero;fill:rgb(0%,0%,0%);fill-opacity:0.2;" d="M 3.613281 44.398438 L 3.535156 44.617188 C 3.410156 44.960938 3.464844 45.339844 3.671875 45.636719 C 3.882812 45.9375 4.226562 46.113281 4.589844 46.113281 L 43.410156 46.113281 C 43.773438 46.113281 44.117188 45.9375 44.328125 45.636719 C 44.535156 45.339844 44.589844 44.960938 44.464844 44.617188 L 44.394531 44.414062 C 44.199219 44.773438 43.820312 45 43.410156 45 L 4.589844 45 C 4.179688 44.996094 3.804688 44.765625 3.613281 44.398438 Z M 3.613281 44.398438 "/>
<path style=" stroke:none;fill-rule:nonzero;fill:rgb(93.333334%,93.333334%,93.333334%);fill-opacity:1;" d="M 21 4.5 L 27 4.5 L 27 31.5 L 21 31.5 Z M 21 4.5 "/>
<path style=" stroke:none;fill-rule:nonzero;fill:rgb(87.843138%,87.843138%,87.843138%);fill-opacity:1;" d="M 32.867188 5.675781 C 32.230469 5.699219 31.65625 6.132812 31.480469 6.785156 L 24.457031 33 L 27.5625 33 L 34.378906 7.566406 C 34.59375 6.761719 34.121094 5.941406 33.316406 5.726562 C 33.167969 5.6875 33.015625 5.671875 32.867188 5.675781 Z M 32.867188 5.675781 "/>
<path style=" stroke:none;fill-rule:nonzero;fill:rgb(38.039216%,38.039216%,38.039216%);fill-opacity:1;" d="M 23.625 6 L 24.375 6 L 24.375 30 L 23.625 30 Z M 23.625 6 "/>
<path style=" stroke:none;fill-rule:nonzero;fill:rgb(100%,100%,100%);fill-opacity:0.4;" d="M 32.867188 5.675781 C 32.230469 5.699219 31.65625 6.132812 31.480469 6.785156 L 24.457031 33 L 24.644531 33 L 31.480469 7.484375 C 31.65625 6.832031 32.230469 6.402344 32.867188 6.375 C 33.015625 6.371094 33.167969 6.382812 33.316406 6.425781 C 33.867188 6.570312 34.261719 7.003906 34.386719 7.519531 C 34.574219 6.730469 34.105469 5.9375 33.316406 5.726562 C 33.167969 5.6875 33.015625 5.671875 32.867188 5.675781 Z M 32.867188 5.675781 "/>
<path style=" stroke:none;fill-rule:nonzero;fill:rgb(38.039216%,38.039216%,38.039216%);fill-opacity:1;" d="M 33.707031 4.277344 C 32.5 3.957031 31.273438 4.664062 30.949219 5.867188 L 30.269531 8.40625 L 34.617188 9.570312 L 35.296875 7.035156 C 35.621094 5.828125 34.910156 4.601562 33.707031 4.277344 Z M 33.707031 4.277344 "/>
<path style=" stroke:none;fill-rule:nonzero;fill:rgb(38.039216%,38.039216%,38.039216%);fill-opacity:1;" d="M 22.5 6.375 L 22.5 7.125 L 23.25 7.125 L 23.25 6.375 Z M 22.5 7.875 L 22.5 8.625 L 23.25 8.625 L 23.25 7.875 Z M 22.5 9.375 L 22.5 10.125 L 23.25 10.125 L 23.25 9.375 Z M 22.5 10.875 L 22.5 11.625 L 23.25 11.625 L 23.25 10.875 Z M 22.5 12.375 L 22.5 13.125 L 23.25 13.125 L 23.25 12.375 Z M 22.5 13.875 L 22.5 14.625 L 23.25 14.625 L 23.25 13.875 Z M 22.5 15.375 L 22.5 16.125 L 23.25 16.125 L 23.25 15.375 Z M 22.5 16.875 L 22.5 17.625 L 23.25 17.625 L 23.25 16.875 Z M 22.5 18.375 L 22.5 19.125 L 23.25 19.125 L 23.25 18.375 Z M 22.5 19.875 L 22.5 20.625 L 23.25 20.625 L 23.25 19.875 Z M 22.5 21.375 L 22.5 22.125 L 23.25 22.125 L 23.25 21.375 Z M 22.5 22.875 L 22.5 23.625 L 23.25 23.625 L 23.25 22.875 Z M 22.5 24.375 L 22.5 25.125 L 23.25 25.125 L 23.25 24.375 Z M 22.5 25.875 L 22.5 26.625 L 23.25 26.625 L 23.25 25.875 Z M 22.5 27.375 L 22.5 28.125 L 23.25 28.125 L 23.25 27.375 Z M 22.5 28.875 L 22.5 29.625 L 23.25 29.625 L 23.25 28.875 Z M 22.5 28.875 "/>
<path style=" stroke:none;fill-rule:nonzero;fill:rgb(0%,0%,0%);fill-opacity:0.2;" d="M 33.199219 11.960938 L 27.5625 33 L 28.367188 33 L 33.660156 13.246094 Z M 33.199219 11.960938 "/>
<path style=" stroke:none;fill-rule:nonzero;fill:rgb(55.29412%,43.137255%,38.82353%);fill-opacity:1;" d="M 29.085938 18.570312 L 30.558594 18.964844 C 30.984375 19.078125 31.289062 19.453125 31.316406 19.890625 L 31.511719 23.152344 C 31.523438 23.324219 31.449219 23.488281 31.316406 23.597656 C 31.183594 23.707031 31.007812 23.742188 30.84375 23.699219 L 26.472656 22.527344 C 26.308594 22.484375 26.175781 22.363281 26.113281 22.203125 C 26.054688 22.042969 26.074219 21.863281 26.167969 21.722656 L 27.96875 18.996094 C 28.210938 18.625 28.660156 18.457031 29.085938 18.570312 Z M 29.085938 18.570312 "/>
<path style=" stroke:none;fill-rule:nonzero;fill:rgb(38.039216%,38.039216%,38.039216%);fill-opacity:1;" d="M 24.75 7.125 L 24.75 7.875 L 25.5 7.875 L 25.5 7.125 Z M 24.75 8.625 L 24.75 9.375 L 25.5 9.375 L 25.5 8.625 Z M 24.75 10.125 L 24.75 10.875 L 25.5 10.875 L 25.5 10.125 Z M 24.75 11.625 L 24.75 12.375 L 25.5 12.375 L 25.5 11.625 Z M 24.75 13.125 L 24.75 13.875 L 25.5 13.875 L 25.5 13.125 Z M 24.75 14.625 L 24.75 15.375 L 25.5 15.375 L 25.5 14.625 Z M 24.75 16.125 L 24.75 16.875 L 25.5 16.875 L 25.5 16.125 Z M 24.75 17.625 L 24.75 18.375 L 25.5 18.375 L 25.5 17.625 Z M 24.75 19.125 L 24.75 19.875 L 25.5 19.875 L 25.5 19.125 Z M 24.75 20.625 L 24.75 21.375 L 25.5 21.375 L 25.5 20.625 Z M 24.75 22.125 L 24.75 22.875 L 25.5 22.875 L 25.5 22.125 Z M 24.75 23.625 L 24.75 24.375 L 25.5 24.375 L 25.5 23.625 Z M 24.75 25.125 L 24.75 25.875 L 25.5 25.875 L 25.5 25.125 Z M 24.75 26.625 L 24.75 27.375 L 25.5 27.375 L 25.5 26.625 Z M 24.75 28.125 L 24.75 28.875 L 25.5 28.875 L 25.5 28.125 Z M 24.75 28.125 "/>
<path style=" stroke:none;fill-rule:nonzero;fill:rgb(100%,100%,100%);fill-opacity:0.4;" d="M 33.089844 4.199219 C 32.105469 4.214844 31.21875 4.871094 30.949219 5.867188 L 30.269531 8.402344 L 30.445312 8.449219 L 30.949219 6.566406 C 31.273438 5.363281 32.503906 4.652344 33.707031 4.976562 C 34.59375 5.214844 35.210938 5.945312 35.347656 6.796875 C 35.523438 5.671875 34.832031 4.578125 33.707031 4.277344 C 33.5 4.222656 33.292969 4.195312 33.089844 4.199219 Z M 33.089844 4.199219 "/>
<path style=" stroke:none;fill-rule:nonzero;fill:rgb(100%,100%,100%);fill-opacity:0.4;" d="M 28.855469 18.535156 C 28.5 18.523438 28.164062 18.695312 27.96875 18.996094 L 26.167969 21.722656 C 26.039062 21.917969 26.054688 22.179688 26.207031 22.359375 L 27.96875 19.691406 C 28.210938 19.324219 28.660156 19.15625 29.085938 19.269531 L 30.558594 19.664062 C 30.984375 19.777344 31.289062 20.152344 31.316406 20.589844 L 31.480469 23.363281 C 31.507812 23.292969 31.515625 23.222656 31.511719 23.152344 L 31.316406 19.890625 C 31.289062 19.453125 30.984375 19.078125 30.558594 18.964844 L 29.085938 18.570312 C 29.011719 18.550781 28.933594 18.539062 28.855469 18.535156 Z M 28.855469 18.535156 "/>
<path style=" stroke:none;fill-rule:nonzero;fill:rgb(0%,0%,0%);fill-opacity:0.4;" d="M 30.410156 8.441406 L 30.269531 8.960938 L 33.753906 9.894531 L 33.894531 9.375 Z M 30.410156 8.441406 "/>
<path style=" stroke:none;fill-rule:nonzero;fill:rgb(0%,0%,0%);fill-opacity:0.4;" d="M 26.160156 22.289062 C 26.070312 22.433594 26.054688 22.609375 26.117188 22.765625 C 26.179688 22.921875 26.3125 23.039062 26.472656 23.082031 L 30.84375 24.253906 C 31.007812 24.300781 31.183594 24.261719 31.316406 24.152344 C 31.449219 24.042969 31.523438 23.878906 31.511719 23.707031 L 31.488281 23.339844 C 31.40625 23.613281 31.121094 23.773438 30.84375 23.699219 L 26.472656 22.527344 C 26.34375 22.492188 26.230469 22.40625 26.160156 22.289062 Z M 26.160156 22.289062 "/>
<path style=" stroke:none;fill-rule:nonzero;fill:rgb(40.000001%,73.333335%,41.568628%);fill-opacity:1;" d="M 20.796875 35.816406 C 19.035156 37.582031 19.035156 40.417969 20.796875 42.183594 L 23.976562 39 Z M 20.796875 35.816406 "/>
<path style=" stroke:none;fill-rule:nonzero;fill:rgb(95.686275%,26.274511%,21.176471%);fill-opacity:1;" d="M 27.160156 42.183594 C 28.921875 40.417969 28.921875 37.582031 27.160156 35.816406 L 23.976562 39 Z M 27.160156 42.183594 "/>
<path style=" stroke:none;fill-rule:nonzero;fill:rgb(100%,65.490198%,14.901961%);fill-opacity:1;" d="M 20.796875 35.816406 C 22.558594 34.054688 25.398438 34.054688 27.160156 35.816406 L 23.976562 39 Z M 20.796875 35.816406 "/>
<path style=" stroke:none;fill-rule:nonzero;fill:rgb(0%,0%,0%);fill-opacity:0.4;" d="M 24 42.75 C 22.339844 42.75 21 41.410156 21 39.75 C 21 39.625 21.007812 39.496094 21.023438 39.375 C 21.207031 40.859375 22.464844 42 24 42 C 25.535156 42 26.792969 40.859375 26.976562 39.375 C 26.992188 39.496094 27 39.625 27 39.75 C 27 41.410156 25.660156 42.75 24 42.75 Z M 24 42.75 "/>
<path style=" stroke:none;fill-rule:nonzero;fill:rgb(87.843138%,87.843138%,87.843138%);fill-opacity:1;" d="M 21.972656 39.550781 L 20.125 36.75 L 23.472656 36.949219 Z M 21.972656 39.550781 "/>
<path style=" stroke:none;fill-rule:nonzero;fill:rgb(100%,100%,100%);fill-opacity:0.4;" d="M 24 36 C 22.339844 36 21 37.339844 21 39 C 21 39.125 21.007812 39.253906 21.023438 39.375 C 21.207031 37.890625 22.464844 36.75 24 36.75 C 25.535156 36.75 26.792969 37.890625 26.976562 39.375 C 26.992188 39.253906 27 39.128906 27 39 C 27 37.339844 25.660156 36 24 36 Z M 24 36 "/>
<path style=" stroke:none;fill-rule:nonzero;fill:rgb(87.843138%,87.843138%,87.843138%);fill-opacity:1;" d="M 24 36 C 25.65625 36 27 37.34375 27 39 C 27 40.65625 25.65625 42 24 42 C 22.34375 42 21 40.65625 21 39 C 21 37.34375 22.34375 36 24 36 Z M 24 36 "/>
<path style=" stroke:none;fill-rule:nonzero;fill:url(#linear0);" d="M 19.589844 3 C 18.636719 3 17.785156 3.597656 17.464844 4.496094 L 3.535156 43.503906 C 3.410156 43.847656 3.464844 44.226562 3.671875 44.523438 C 3.882812 44.824219 4.226562 45 4.589844 45 L 43.410156 45 C 43.773438 45 44.117188 44.824219 44.328125 44.523438 C 44.535156 44.226562 44.589844 43.847656 44.464844 43.503906 L 33.199219 11.960938 L 33.894531 9.375 L 34.617188 9.566406 L 35.296875 7.03125 C 35.621094 5.828125 34.910156 4.601562 33.707031 4.277344 C 32.539062 3.964844 31.351562 4.621094 30.984375 5.753906 L 30.535156 4.496094 C 30.214844 3.597656 29.363281 3 28.410156 3 Z M 19.589844 3 "/>
</g>
</svg>
