
<svg xmlns="http://www.w3.org/2000/svg" xmlns:xlink="http://www.w3.org/1999/xlink" width="24px" height="24px" viewBox="0 0 24 24" version="1.1">
<defs>
<linearGradient id="linear0" gradientUnits="userSpaceOnUse" x1="10.054166" y1="-209.708328" x2="10.054166" y2="-212.883331" gradientTransform="matrix(1.417323,0,0,1.417323,0,304.724425)">
<stop offset="0" style="stop-color:rgb(0%,0%,0%);stop-opacity:0.2;"/>
<stop offset="1" style="stop-color:rgb(100%,100%,100%);stop-opacity:0;"/>
</linearGradient>
<linearGradient id="linear1" gradientUnits="userSpaceOnUse" x1="8.995832" y1="-200.183334" x2="8.995832" y2="-211.824997" gradientTransform="matrix(1.417323,0,0,1.417323,0,304.724425)">
<stop offset="0" style="stop-color:rgb(0%,0%,0%);stop-opacity:0.2;"/>
<stop offset="1" style="stop-color:rgb(100%,100%,100%);stop-opacity:0;"/>
</linearGradient>
</defs>
<g id="surface1">
<path style=" stroke:none;fill-rule:nonzero;fill:rgb(1.176471%,60.784316%,89.803922%);fill-opacity:1;" d="M 7.5 3 L 21 3 C 21.828125 3 22.5 3.671875 22.5 4.5 L 22.5 9 C 22.5 9.828125 21.828125 10.5 21 10.5 L 7.5 10.5 C 6.671875 10.5 6 9.828125 6 9 L 6 4.5 C 6 3.671875 6.671875 3 7.5 3 Z M 7.5 3 "/>
<path style=" stroke:none;fill-rule:nonzero;fill:url(#linear0);" d="M 7.5 3 L 21 3 C 21.828125 3 22.5 3.671875 22.5 4.5 L 22.5 9 C 22.5 9.828125 21.828125 10.5 21 10.5 L 7.5 10.5 C 6.671875 10.5 6 9.828125 6 9 L 6 4.5 C 6 3.671875 6.671875 3 7.5 3 Z M 7.5 3 "/>
<path style=" stroke:none;fill-rule:nonzero;fill:rgb(16.078432%,71.372551%,96.470588%);fill-opacity:1;" d="M 3 4.5 C 2.167969 4.5 1.5 5.167969 1.5 6 L 1.5 19.5 C 1.5 20.332031 2.167969 21 3 21 L 21 21 C 21.832031 21 22.5 20.332031 22.5 19.5 L 22.5 7.5 L 7.5 7.5 C 6.667969 7.5 6 6.832031 6 6 L 6 4.5 Z M 3 4.5 "/>
<path style=" stroke:none;fill-rule:nonzero;fill:rgb(16.078432%,71.372551%,96.470588%);fill-opacity:1;" d="M 3 4.5 C 2.167969 4.5 1.5 5.167969 1.5 6 L 1.5 19.5 C 1.5 20.332031 2.167969 21 3 21 L 21 21 C 21.832031 21 22.5 20.332031 22.5 19.5 L 22.5 7.5 L 7.5 7.5 C 6.667969 7.5 6 6.832031 6 6 L 6 4.5 Z M 3 4.5 "/>
<path style=" stroke:none;fill-rule:nonzero;fill:rgb(0.392157%,0.392157%,0.392157%);fill-opacity:0.4;" d="M 3 20.996094 C 2.167969 20.996094 1.5 20.328125 1.5 19.496094 L 1.5 19.132812 C 1.5 19.964844 2.167969 20.632812 3 20.632812 L 21 20.632812 C 21.832031 20.632812 22.5 19.964844 22.5 19.132812 L 22.5 19.496094 C 22.5 20.328125 21.832031 20.996094 21 20.996094 Z M 3 20.996094 "/>
<path style=" stroke:none;fill-rule:nonzero;fill:rgb(0%,0%,0%);fill-opacity:0.2;" d="M 1.5 19.5 L 1.5 20.0625 C 1.5 20.894531 2.167969 21.5625 3 21.5625 L 21 21.5625 C 21.832031 21.5625 22.5 20.894531 22.5 20.0625 L 22.5 19.5 C 22.5 20.332031 21.832031 21 21 21 L 3 21 C 2.167969 21 1.5 20.332031 1.5 19.5 Z M 1.5 19.5 "/>
<path style=" stroke:none;fill-rule:nonzero;fill:rgb(100%,100%,100%);fill-opacity:0.4;" d="M 3 4.5 C 2.167969 4.5 1.5 5.167969 1.5 6 L 1.5 6.375 C 1.5 5.542969 2.167969 4.875 3 4.875 L 6 4.875 L 6 4.5 Z M 6 6 L 6 6.375 C 6 7.207031 6.667969 7.875 7.5 7.875 L 22.5 7.875 L 22.5 7.5 L 7.5 7.5 C 6.667969 7.5 6 6.832031 6 6 Z M 6 6 "/>
<path style=" stroke:none;fill-rule:nonzero;fill:rgb(100%,100%,100%);fill-opacity:0.4;" d="M 7.5 3 C 6.667969 3 6 3.667969 6 4.5 L 6 4.6875 C 6 3.855469 6.667969 3.1875 7.5 3.1875 L 21 3.1875 C 21.832031 3.1875 22.5 3.855469 22.5 4.6875 L 22.5 4.5 C 22.5 3.667969 21.832031 3 21 3 Z M 7.5 3 "/>
<path style=" stroke:none;fill-rule:nonzero;fill:rgb(0%,0%,0%);fill-opacity:0.4;" d="M 11.996094 10.96875 C 11.949219 11.546875 11.464844 12 10.875 12 C 10.285156 12 9.800781 11.546875 9.753906 10.96875 C 9.75 11 9.75 11.03125 9.75 11.0625 C 9.75 11.6875 10.25 12.1875 10.875 12.1875 C 11.5 12.1875 12 11.6875 12 11.0625 C 12 11.03125 12 11 11.996094 10.96875 Z M 15.617188 17.082031 C 15.578125 17.183594 15.480469 17.25 15.375 17.25 L 9.375 17.25 C 9.269531 17.25 9.179688 17.183594 9.140625 17.085938 L 9.140625 17.089844 C 9.109375 17.167969 9.117188 17.257812 9.164062 17.324219 C 9.210938 17.394531 9.289062 17.4375 9.375 17.4375 L 15.375 17.4375 C 15.460938 17.4375 15.539062 17.394531 15.589844 17.324219 C 15.636719 17.253906 15.648438 17.167969 15.617188 17.085938 Z M 15.617188 17.082031 "/>
<path style=" stroke:none;fill-rule:nonzero;fill:rgb(50.588238%,83.137256%,98.039216%);fill-opacity:1;" d="M 10.84375 9.75 C 10.234375 9.765625 9.75 10.261719 9.75 10.875 C 9.75 11.5 10.25 12 10.875 12 C 11.5 12 12 11.5 12 10.875 C 12 10.25 11.5 9.75 10.875 9.75 C 10.867188 9.75 10.855469 9.75 10.84375 9.75 Z M 13.453125 11.914062 C 13.3125 11.925781 13.191406 12.015625 13.140625 12.148438 L 12.359375 14.101562 C 12.28125 14.300781 12.105469 14.449219 11.894531 14.492188 C 11.6875 14.535156 11.46875 14.46875 11.316406 14.316406 L 11.183594 14.183594 C 11.03125 14.03125 10.8125 13.964844 10.605469 14.007812 C 10.394531 14.050781 10.21875 14.199219 10.140625 14.398438 L 9.140625 16.902344 C 9.109375 16.980469 9.117188 17.070312 9.164062 17.136719 C 9.210938 17.207031 9.289062 17.25 9.375 17.25 L 15.375 17.25 C 15.460938 17.25 15.539062 17.207031 15.589844 17.136719 C 15.636719 17.066406 15.648438 16.980469 15.617188 16.898438 L 13.839844 12.152344 C 13.78125 11.996094 13.621094 11.894531 13.453125 11.914062 Z M 13.453125 11.914062 "/>
<path style=" stroke:none;fill-rule:nonzero;fill:rgb(100%,100%,100%);fill-opacity:0.4;" d="M 10.84375 9.75 C 10.234375 9.765625 9.75 10.261719 9.75 10.875 C 9.75 10.90625 9.75 10.9375 9.753906 10.96875 C 9.800781 10.398438 10.265625 9.953125 10.84375 9.9375 C 10.855469 9.9375 10.867188 9.9375 10.875 9.9375 C 11.464844 9.9375 11.949219 10.390625 11.996094 10.96875 C 12 10.9375 12 10.90625 12 10.875 C 12 10.25 11.5 9.75 10.875 9.75 C 10.867188 9.75 10.855469 9.75 10.84375 9.75 Z M 13.453125 11.914062 C 13.3125 11.925781 13.191406 12.015625 13.140625 12.148438 L 12.359375 14.101562 C 12.28125 14.300781 12.105469 14.449219 11.894531 14.492188 C 11.6875 14.535156 11.46875 14.46875 11.316406 14.316406 L 11.183594 14.183594 C 11.03125 14.03125 10.8125 13.964844 10.605469 14.007812 C 10.394531 14.050781 10.21875 14.199219 10.140625 14.398438 L 9.140625 16.902344 C 9.117188 16.960938 9.117188 17.027344 9.140625 17.085938 L 10.140625 14.585938 C 10.21875 14.386719 10.394531 14.238281 10.605469 14.195312 C 10.8125 14.152344 11.03125 14.21875 11.183594 14.371094 L 11.316406 14.503906 C 11.46875 14.65625 11.6875 14.722656 11.894531 14.679688 C 12.105469 14.636719 12.28125 14.488281 12.359375 14.289062 L 13.140625 12.335938 C 13.191406 12.203125 13.3125 12.113281 13.453125 12.101562 C 13.621094 12.082031 13.78125 12.183594 13.839844 12.339844 L 15.617188 17.082031 C 15.640625 17.023438 15.640625 16.957031 15.617188 16.898438 L 13.839844 12.152344 C 13.78125 11.996094 13.621094 11.894531 13.453125 11.914062 Z M 13.453125 11.914062 "/>
<path style=" stroke:none;fill-rule:nonzero;fill:url(#linear1);" d="M 3 4.5 C 2.167969 4.5 1.5 5.167969 1.5 6 L 1.5 19.5 C 1.5 20.332031 2.167969 21 3 21 L 21 21 C 21.832031 21 22.5 20.332031 22.5 19.5 L 22.5 7.5 L 7.5 7.5 C 6.667969 7.5 6 6.832031 6 6 L 6 4.5 Z M 3 4.5 "/>
</g>
</svg>
