
<svg xmlns="http://www.w3.org/2000/svg" xmlns:xlink="http://www.w3.org/1999/xlink" width="24" height="24" viewBox="0 0 24 24" version="1.1">
<defs>
<linearGradient id="linear0" gradientUnits="userSpaceOnUse" x1="8.466666" y1="-199.125" x2="8.466666" y2="-213.941666" gradientTransform="matrix(1.417323,0,0,1.417323,-4.5,304.724425)">
<stop offset="0" style="stop-color:rgb(0%,0%,0%);stop-opacity:0.2;"/>
<stop offset="1" style="stop-color:rgb(100%,100%,100%);stop-opacity:0;"/>
</linearGradient>
</defs>
<g id="surface1">
<path style=" stroke:none;fill-rule:nonzero;fill:rgb(74.117649%,74.117649%,74.117649%);fill-opacity:1;" d="M 6.75 1.5 L 17.25 1.5 C 18.078125 1.5 18.75 2.171875 18.75 3 L 18.75 21 C 18.75 21.828125 18.078125 22.5 17.25 22.5 L 6.75 22.5 C 5.921875 22.5 5.25 21.828125 5.25 21 L 5.25 3 C 5.25 2.171875 5.921875 1.5 6.75 1.5 Z M 6.75 1.5 "/>
<path style=" stroke:none;fill-rule:nonzero;fill:rgb(38.039216%,38.039216%,38.039216%);fill-opacity:1;" d="M 6.75 3 L 17.25 3 C 17.664062 3 18 3.335938 18 3.75 L 18 18.75 C 18 19.164062 17.664062 19.5 17.25 19.5 L 6.75 19.5 C 6.335938 19.5 6 19.164062 6 18.75 L 6 3.75 C 6 3.335938 6.335938 3 6.75 3 Z M 6.75 3 "/>
<path style=" stroke:none;fill-rule:nonzero;fill:rgb(0%,0%,0%);fill-opacity:0.4;" d="M 5.25 20.625 L 5.25 21 C 5.25 21.832031 5.917969 22.5 6.75 22.5 L 17.25 22.5 C 18.082031 22.5 18.75 21.832031 18.75 21 L 18.75 20.625 C 18.75 21.457031 18.082031 22.125 17.25 22.125 L 6.75 22.125 C 5.917969 22.125 5.25 21.457031 5.25 20.625 Z M 5.25 20.625 "/>
<path style=" stroke:none;fill-rule:nonzero;fill:rgb(0%,0%,0%);fill-opacity:0.2;" d="M 5.25 21 L 5.25 21.5625 C 5.25 22.394531 5.917969 23.0625 6.75 23.0625 L 17.25 23.0625 C 18.082031 23.0625 18.75 22.394531 18.75 21.5625 L 18.75 21 C 18.75 21.832031 18.082031 22.5 17.25 22.5 L 6.75 22.5 C 5.917969 22.5 5.25 21.832031 5.25 21 Z M 5.25 21 "/>
<path style=" stroke:none;fill-rule:nonzero;fill:rgb(100%,100%,100%);fill-opacity:0.4;" d="M 6.75 1.5 C 5.917969 1.5 5.25 2.167969 5.25 3 L 5.25 3.367188 C 5.25 2.539062 5.917969 1.867188 6.75 1.867188 L 17.25 1.867188 C 18.082031 1.867188 18.75 2.539062 18.75 3.367188 L 18.75 3 C 18.75 2.167969 18.082031 1.5 17.25 1.5 Z M 6.75 1.5 "/>
<path style=" stroke:none;fill-rule:nonzero;fill:rgb(100%,100%,100%);fill-opacity:0.4;" d="M 6 18.75 L 6 19.125 C 6 19.539062 6.335938 19.875 6.75 19.875 L 17.25 19.875 C 17.664062 19.875 18 19.539062 18 19.125 L 18 18.75 C 18 19.164062 17.664062 19.5 17.25 19.5 L 6.75 19.5 C 6.335938 19.5 6 19.164062 6 18.75 Z M 6 18.75 "/>
<path style=" stroke:none;fill-rule:nonzero;fill:rgb(0%,0%,0%);fill-opacity:0.4;" d="M 6 4.125 L 6 3.75 C 6 3.335938 6.335938 3 6.75 3 L 17.25 3 C 17.664062 3 18 3.335938 18 3.75 L 18 4.125 C 18 3.710938 17.664062 3.375 17.25 3.375 L 6.75 3.375 C 6.335938 3.375 6 3.710938 6 4.125 Z M 6 4.125 "/>
<path style=" stroke:none;fill-rule:nonzero;fill:rgb(45.882353%,45.882353%,45.882353%);fill-opacity:0.4;" d="M 11.25 20.25 L 12.75 20.25 C 13.164062 20.25 13.5 20.585938 13.5 21 C 13.5 21.414062 13.164062 21.75 12.75 21.75 L 11.25 21.75 C 10.835938 21.75 10.5 21.414062 10.5 21 C 10.5 20.585938 10.835938 20.25 11.25 20.25 Z M 11.25 20.25 "/>
<path style=" stroke:none;fill-rule:nonzero;fill:rgb(0%,0%,0%);fill-opacity:0.4;" d="M 11.230469 20.25 C 10.824219 20.261719 10.5 20.589844 10.5 21 C 10.5 21.03125 10.503906 21.0625 10.507812 21.09375 C 10.550781 20.722656 10.867188 20.4375 11.25 20.4375 L 12.75 20.4375 C 13.132812 20.4375 13.449219 20.722656 13.492188 21.09375 C 13.496094 21.0625 13.5 21.03125 13.5 21 C 13.5 20.585938 13.164062 20.25 12.75 20.25 L 11.25 20.25 C 11.242188 20.25 11.238281 20.25 11.230469 20.25 Z M 11.230469 20.25 "/>
<path style=" stroke:none;fill-rule:nonzero;fill:rgb(100%,100%,100%);fill-opacity:0.4;" d="M 11.230469 21.9375 C 10.824219 21.925781 10.5 21.597656 10.5 21.1875 C 10.5 21.15625 10.503906 21.125 10.503906 21.09375 C 10.550781 21.464844 10.867188 21.75 11.25 21.75 L 12.75 21.75 C 13.132812 21.75 13.449219 21.464844 13.492188 21.09375 C 13.496094 21.125 13.5 21.15625 13.5 21.1875 C 13.5 21.601562 13.164062 21.9375 12.75 21.9375 L 11.25 21.9375 C 11.242188 21.9375 11.238281 21.9375 11.230469 21.9375 Z M 11.230469 21.9375 "/>
<path style=" stroke:none;fill-rule:nonzero;fill:url(#linear0);" d="M 6.75 1.5 L 17.25 1.5 C 18.078125 1.5 18.75 2.171875 18.75 3 L 18.75 21 C 18.75 21.828125 18.078125 22.5 17.25 22.5 L 6.75 22.5 C 5.921875 22.5 5.25 21.828125 5.25 21 L 5.25 3 C 5.25 2.171875 5.921875 1.5 6.75 1.5 Z M 6.75 1.5 "/>
</g>
</svg>
