
<svg xmlns="http://www.w3.org/2000/svg" xmlns:xlink="http://www.w3.org/1999/xlink" width="64" height="64" viewBox="0 0 64 64" version="1.1">
<defs>
<linearGradient id="linear0" gradientUnits="userSpaceOnUse" x1="8.466666" y1="-199.125" x2="8.466666" y2="-213.941666" gradientTransform="matrix(3.779528,0,0,3.779528,0.00000559926,812.598468)">
<stop offset="0" style="stop-color:rgb(0%,0%,0%);stop-opacity:0.2;"/>
<stop offset="1" style="stop-color:rgb(100%,100%,100%);stop-opacity:0;"/>
</linearGradient>
</defs>
<g id="surface1">
<path style=" stroke:none;fill-rule:nonzero;fill:rgb(55.29412%,43.137255%,38.82353%);fill-opacity:1;" d="M 14 4 L 50 4 C 52.210938 4 54 5.789062 54 8 L 54 56 C 54 58.210938 52.210938 60 50 60 L 14 60 C 11.789062 60 10 58.210938 10 56 L 10 8 C 10 5.789062 11.789062 4 14 4 Z M 14 4 "/>
<path style="fill:none;stroke-width:0.7;stroke-linecap:round;stroke-linejoin:round;stroke:rgb(100%,65.490198%,14.901961%);stroke-opacity:1;stroke-dasharray:2.1,2.1;stroke-dashoffset:0.63;stroke-miterlimit:4;" d="M 20 6 L 20 57.5 L 50 57.5 C 51.109375 57.5 52 56.609375 52 55.5 L 52 8 C 52 6.890625 51.109375 6 50 6 Z M 20 6 "/>
<path style=" stroke:none;fill-rule:nonzero;fill:rgb(98.431373%,54.901963%,0%);fill-opacity:0.996078;" d="M 14 4 C 11.785156 4 10 5.785156 10 8 L 10 56 C 10 58.214844 11.785156 60 14 60 L 18 60 L 18 4 Z M 14 4 "/>
<path style=" stroke:none;fill-rule:nonzero;fill:rgb(98.431373%,54.901963%,0%);fill-opacity:1;" d="M 10 40 L 18 40 L 18 44 L 10 44 Z M 10 40 "/>
<path style=" stroke:none;fill-rule:nonzero;fill:rgb(98.431373%,54.901963%,0%);fill-opacity:0.996078;" d="M 10 18 L 18 18 L 18 22 L 10 22 Z M 10 18 "/>
<path style=" stroke:none;fill-rule:nonzero;fill:rgb(0.784314%,0.784314%,0.784314%);fill-opacity:0.4;" d="M 14 59.988281 C 11.785156 59.988281 10 58.203125 10 55.988281 L 10 55 C 10 57.214844 11.785156 59 14 59 L 50 59 C 52.214844 59 54 57.214844 54 55 L 54 55.988281 C 54 58.203125 52.214844 59.988281 50 59.988281 Z M 14 59.988281 "/>
<path style=" stroke:none;fill-rule:nonzero;fill:rgb(0%,0%,0%);fill-opacity:0.2;" d="M 10 56 L 10 57.5 C 10 59.714844 11.785156 61.5 14 61.5 L 50 61.5 C 52.214844 61.5 54 59.714844 54 57.5 L 54 56 C 54 58.214844 52.214844 60 50 60 L 14 60 C 11.785156 60 10 58.214844 10 56 Z M 10 56 "/>
<path style=" stroke:none;fill-rule:nonzero;fill:rgb(0%,0%,0%);fill-opacity:0.4;" d="M 10 22 L 18 22 L 18 23 L 10 23 Z M 10 22 "/>
<path style=" stroke:none;fill-rule:nonzero;fill:rgb(99.215686%,99.215686%,99.215686%);fill-opacity:0.4;" d="M 10 18 L 18 18 L 18 19 L 10 19 Z M 10 18 "/>
<path style=" stroke:none;fill-rule:nonzero;fill:rgb(0%,0%,0%);fill-opacity:0.4;" d="M 10 44 L 18 44 L 18 45 L 10 45 Z M 10 44 "/>
<path style=" stroke:none;fill-rule:nonzero;fill:rgb(99.215686%,99.215686%,99.215686%);fill-opacity:0.4;" d="M 10 40 L 18 40 L 18 41 L 10 41 Z M 10 40 "/>
<path style=" stroke:none;fill-rule:nonzero;fill:rgb(100%,65.490198%,14.901961%);fill-opacity:1;" d="M 42 4 L 42 38 L 44 34 L 46 38 L 46 4 Z M 42 4 "/>
<path style=" stroke:none;fill-rule:nonzero;fill:rgb(99.607843%,99.607843%,99.607843%);fill-opacity:0.4;" d="M 14 4 C 11.785156 4 10 5.785156 10 8 L 10 8.988281 C 10 6.773438 11.785156 4.988281 14 4.988281 L 50 4.988281 C 52.214844 4.988281 54 6.773438 54 8.988281 L 54 8 C 54 5.785156 52.214844 4 50 4 Z M 14 4 "/>
<path style=" stroke:none;fill-rule:nonzero;fill:rgb(0%,0%,0%);fill-opacity:0.4;" d="M 44 34 L 42 38 L 42 39.5 L 44 35.5 L 46 39.5 L 46 38 Z M 44 34 "/>
<path style=" stroke:none;fill-rule:nonzero;fill:url(#linear0);" d="M 14 4 L 50 4 C 52.210938 4 54 5.789062 54 8 L 54 56 C 54 58.210938 52.210938 60 50 60 L 14 60 C 11.789062 60 10 58.210938 10 56 L 10 8 C 10 5.789062 11.789062 4 14 4 Z M 14 4 "/>
</g>
</svg>
