
<svg xmlns="http://www.w3.org/2000/svg" xmlns:xlink="http://www.w3.org/1999/xlink" width="32" height="32" viewBox="0 0 32 32" version="1.1">
<defs>
<linearGradient id="linear0" gradientUnits="userSpaceOnUse" x1="10.054166" y1="-209.708328" x2="10.054166" y2="-212.883331" gradientTransform="matrix(1.889764,0,0,1.889764,0,406.299234)">
<stop offset="0" style="stop-color:rgb(0%,0%,0%);stop-opacity:0.2;"/>
<stop offset="1" style="stop-color:rgb(100%,100%,100%);stop-opacity:0;"/>
</linearGradient>
<linearGradient id="linear1" gradientUnits="userSpaceOnUse" x1="8.995832" y1="-200.183334" x2="8.995832" y2="-211.824997" gradientTransform="matrix(1.889764,0,0,1.889764,0,406.299234)">
<stop offset="0" style="stop-color:rgb(0%,0%,0%);stop-opacity:0.2;"/>
<stop offset="1" style="stop-color:rgb(100%,100%,100%);stop-opacity:0;"/>
</linearGradient>
</defs>
<g id="surface1">
<path style=" stroke:none;fill-rule:nonzero;fill:rgb(87.843138%,35.294119%,17.254902%);fill-opacity:1;" d="M 10 4 L 28 4 C 29.105469 4 30 4.894531 30 6 L 30 12 C 30 13.105469 29.105469 14 28 14 L 10 14 C 8.894531 14 8 13.105469 8 12 L 8 6 C 8 4.894531 8.894531 4 10 4 Z M 10 4 "/>
<path style=" stroke:none;fill-rule:nonzero;fill:url(#linear0);" d="M 10 4 L 28 4 C 29.105469 4 30 4.894531 30 6 L 30 12 C 30 13.105469 29.105469 14 28 14 L 10 14 C 8.894531 14 8 13.105469 8 12 L 8 6 C 8 4.894531 8.894531 4 10 4 Z M 10 4 "/>
<path style=" stroke:none;fill-rule:nonzero;fill:rgb(89.411765%,42.745098%,26.274511%);fill-opacity:1;" d="M 4 6 C 2.890625 6 2 6.890625 2 8 L 2 26 C 2 27.109375 2.890625 28 4 28 L 28 28 C 29.109375 28 30 27.109375 30 26 L 30 10 L 10 10 C 8.890625 10 8 9.109375 8 8 L 8 6 Z M 4 6 "/>
<path style=" stroke:none;fill-rule:nonzero;fill:rgb(89.411765%,42.745098%,26.274511%);fill-opacity:1;" d="M 4 6 C 2.890625 6 2 6.890625 2 8 L 2 26 C 2 27.109375 2.890625 28 4 28 L 28 28 C 29.109375 28 30 27.109375 30 26 L 30 10 L 10 10 C 8.890625 10 8 9.109375 8 8 L 8 6 Z M 4 6 "/>
<path style=" stroke:none;fill-rule:nonzero;fill:rgb(93.333334%,64.313728%,54.11765%);fill-opacity:1;" d="M 13 13 C 11.339844 13 10 14.339844 10 16 L 10 21.5 C 10 22.332031 10.667969 23 11.5 23 C 12.898438 23 12.992188 20.386719 13.8125 19.226562 C 13.992188 19.394531 14.234375 19.5 14.5 19.5 C 14.871094 19.5 15.195312 19.300781 15.367188 19 L 16.632812 19 C 16.804688 19.300781 17.128906 19.5 17.5 19.5 C 17.765625 19.5 18.007812 19.394531 18.1875 19.226562 C 19.007812 20.386719 19.101562 23 20.5 23 C 21.332031 23 22 22.332031 22 21.5 L 22 16 C 22 14.339844 20.660156 13 19 13 Z M 12.488281 14 C 12.492188 14 12.496094 14 12.5 14 L 13 14 C 13.136719 14 13.25 14.113281 13.25 14.25 L 13.25 15.25 L 14.25 15.25 C 14.386719 15.25 14.5 15.363281 14.5 15.5 L 14.5 16 C 14.5 16.136719 14.386719 16.25 14.25 16.25 L 13.25 16.25 L 13.25 17.25 C 13.25 17.386719 13.136719 17.5 13 17.5 L 12.5 17.5 C 12.363281 17.5 12.25 17.386719 12.25 17.25 L 12.25 16.25 L 11.25 16.25 C 11.113281 16.25 11 16.136719 11 16 L 11 15.5 C 11 15.363281 11.113281 15.25 11.25 15.25 L 12.25 15.25 L 12.25 14.25 C 12.25 14.117188 12.355469 14.007812 12.488281 14 Z M 17.488281 14 C 17.492188 14 17.496094 14 17.5 14 C 17.777344 14 18 14.222656 18 14.5 C 18 14.777344 17.777344 15 17.5 15 C 17.222656 15 17 14.777344 17 14.5 C 17 14.226562 17.214844 14.007812 17.488281 14 Z M 19.488281 14 C 19.492188 14 19.496094 14 19.5 14 C 19.777344 14 20 14.222656 20 14.5 C 20 14.777344 19.777344 15 19.5 15 C 19.222656 15 19 14.777344 19 14.5 C 19 14.226562 19.214844 14.007812 19.488281 14 Z M 18.5 16 C 18.503906 16 18.507812 16 18.511719 16 C 18.789062 16 19.011719 16.222656 19.011719 16.5 C 19.011719 16.777344 18.789062 17 18.511719 17 C 18.234375 17 18.011719 16.777344 18.011719 16.5 C 18.011719 16.226562 18.230469 16.007812 18.5 16 Z M 20.5 16 C 20.503906 16 20.507812 16 20.511719 16 C 20.789062 16 21.011719 16.222656 21.011719 16.5 C 21.011719 16.777344 20.789062 17 20.511719 17 C 20.234375 17 20.011719 16.777344 20.011719 16.5 C 20.011719 16.226562 20.230469 16.007812 20.5 16 Z M 20.5 16 "/>
<path style=" stroke:none;fill-rule:nonzero;fill:rgb(0.392157%,0.392157%,0.392157%);fill-opacity:0.4;" d="M 4 27.996094 C 2.890625 27.996094 2 27.105469 2 25.996094 L 2 25.511719 C 2 26.621094 2.890625 27.511719 4 27.511719 L 28 27.511719 C 29.109375 27.511719 30 26.621094 30 25.511719 L 30 25.996094 C 30 27.105469 29.109375 27.996094 28 27.996094 Z M 4 27.996094 "/>
<path style=" stroke:none;fill-rule:nonzero;fill:rgb(0%,0%,0%);fill-opacity:0.2;" d="M 2 26 L 2 26.75 C 2 27.859375 2.890625 28.75 4 28.75 L 28 28.75 C 29.109375 28.75 30 27.859375 30 26.75 L 30 26 C 30 27.109375 29.109375 28 28 28 L 4 28 C 2.890625 28 2 27.109375 2 26 Z M 2 26 "/>
<path style=" stroke:none;fill-rule:nonzero;fill:rgb(100%,100%,100%);fill-opacity:0.4;" d="M 4 6 C 2.890625 6 2 6.890625 2 8 L 2 8.5 C 2 7.390625 2.890625 6.5 4 6.5 L 8 6.5 L 8 6 Z M 8 8 L 8 8.5 C 8 9.609375 8.890625 10.5 10 10.5 L 30 10.5 L 30 10 L 10 10 C 8.890625 10 8 9.109375 8 8 Z M 8 8 "/>
<path style=" stroke:none;fill-rule:nonzero;fill:rgb(100%,100%,100%);fill-opacity:0.4;" d="M 10 4 C 8.890625 4 8 4.890625 8 6 L 8 6.25 C 8 5.140625 8.890625 4.25 10 4.25 L 28 4.25 C 29.109375 4.25 30 5.140625 30 6.25 L 30 6 C 30 4.890625 29.109375 4 28 4 Z M 10 4 "/>
<path style=" stroke:none;fill-rule:nonzero;fill:rgb(100%,100%,100%);fill-opacity:0.4;" d="M 13 13 C 11.339844 13 10 14.339844 10 16 L 10 16.25 C 10 14.589844 11.339844 13.25 13 13.25 L 19 13.25 C 20.660156 13.25 22 14.589844 22 16.25 L 22 16 C 22 14.339844 20.660156 13 19 13 Z M 17.015625 14.625 C 17.007812 14.664062 17 14.707031 17 14.75 C 17 15.027344 17.222656 15.25 17.5 15.25 C 17.777344 15.25 18 15.027344 18 14.75 C 18 14.707031 17.992188 14.664062 17.984375 14.625 C 17.929688 14.839844 17.734375 15 17.5 15 C 17.265625 15 17.070312 14.839844 17.015625 14.625 Z M 19.015625 14.625 C 19.007812 14.664062 19 14.707031 19 14.75 C 19 15.027344 19.222656 15.25 19.5 15.25 C 19.777344 15.25 20 15.027344 20 14.75 C 20 14.707031 19.992188 14.664062 19.984375 14.625 C 19.929688 14.839844 19.734375 15 19.5 15 C 19.265625 15 19.070312 14.839844 19.015625 14.625 Z M 11 16 L 11 16.25 C 11 16.386719 11.113281 16.5 11.25 16.5 L 12.25 16.5 L 12.25 16.25 L 11.25 16.25 C 11.113281 16.25 11 16.136719 11 16 Z M 14.5 16 C 14.5 16.136719 14.386719 16.25 14.25 16.25 L 13.25 16.25 L 13.25 16.5 L 14.25 16.5 C 14.386719 16.5 14.5 16.386719 14.5 16.25 Z M 18.03125 16.625 C 18.019531 16.664062 18.011719 16.707031 18.011719 16.75 C 18.011719 17.027344 18.234375 17.25 18.511719 17.25 C 18.789062 17.25 19.011719 17.027344 19.011719 16.75 C 19.011719 16.707031 19.007812 16.664062 18.996094 16.625 C 18.941406 16.839844 18.746094 17 18.511719 17 C 18.277344 17 18.085938 16.839844 18.03125 16.625 Z M 20.03125 16.625 C 20.019531 16.664062 20.011719 16.707031 20.011719 16.75 C 20.011719 17.027344 20.234375 17.25 20.511719 17.25 C 20.789062 17.25 21.011719 17.027344 21.011719 16.75 C 21.011719 16.707031 21.007812 16.664062 20.996094 16.625 C 20.941406 16.839844 20.746094 17 20.511719 17 C 20.277344 17 20.085938 16.839844 20.03125 16.625 Z M 12.25 17.25 L 12.25 17.5 C 12.25 17.636719 12.363281 17.75 12.5 17.75 L 13 17.75 C 13.136719 17.75 13.25 17.636719 13.25 17.5 L 13.25 17.25 C 13.25 17.386719 13.136719 17.5 13 17.5 L 12.5 17.5 C 12.363281 17.5 12.25 17.386719 12.25 17.25 Z M 12.25 17.25 "/>
<path style=" stroke:none;fill-rule:nonzero;fill:rgb(0.392157%,0.392157%,0.392157%);fill-opacity:0.4;" d="M 12.488281 14 C 12.355469 14.007812 12.25 14.117188 12.25 14.25 L 12.25 14.5 C 12.25 14.367188 12.355469 14.257812 12.488281 14.25 C 12.492188 14.25 12.496094 14.25 12.5 14.25 L 13 14.25 C 13.136719 14.25 13.25 14.363281 13.25 14.5 L 13.25 14.25 C 13.25 14.113281 13.136719 14 13 14 L 12.5 14 C 12.496094 14 12.492188 14 12.488281 14 Z M 17.488281 14 C 17.214844 14.007812 17 14.226562 17 14.5 C 17 14.542969 17.003906 14.585938 17.015625 14.625 C 17.070312 14.414062 17.257812 14.253906 17.488281 14.25 C 17.492188 14.25 17.496094 14.25 17.5 14.25 C 17.734375 14.25 17.929688 14.410156 17.984375 14.625 C 17.996094 14.585938 18 14.542969 18 14.5 C 18 14.222656 17.777344 14 17.5 14 C 17.496094 14 17.492188 14 17.488281 14 Z M 19.488281 14 C 19.214844 14.007812 19 14.226562 19 14.5 C 19 14.542969 19.003906 14.585938 19.015625 14.625 C 19.070312 14.414062 19.257812 14.253906 19.488281 14.25 C 19.492188 14.25 19.496094 14.25 19.5 14.25 C 19.734375 14.25 19.929688 14.410156 19.984375 14.625 C 19.996094 14.585938 20 14.542969 20 14.5 C 20 14.222656 19.777344 14 19.5 14 C 19.496094 14 19.492188 14 19.488281 14 Z M 11.25 15.25 C 11.113281 15.25 11 15.363281 11 15.5 L 11 15.75 C 11 15.613281 11.113281 15.5 11.25 15.5 L 12.25 15.5 L 12.25 15.25 Z M 13.25 15.25 L 13.25 15.5 L 14.25 15.5 C 14.386719 15.5 14.5 15.613281 14.5 15.75 L 14.5 15.5 C 14.5 15.363281 14.386719 15.25 14.25 15.25 Z M 18.5 16 C 18.230469 16.007812 18.011719 16.226562 18.011719 16.5 C 18.011719 16.542969 18.019531 16.585938 18.03125 16.625 C 18.082031 16.414062 18.273438 16.257812 18.5 16.25 C 18.503906 16.25 18.507812 16.25 18.511719 16.25 C 18.746094 16.25 18.941406 16.410156 18.996094 16.625 C 19.007812 16.585938 19.011719 16.542969 19.011719 16.5 C 19.011719 16.222656 18.789062 16 18.511719 16 C 18.507812 16 18.503906 16 18.5 16 Z M 20.5 16 C 20.230469 16.007812 20.011719 16.226562 20.011719 16.5 C 20.011719 16.542969 20.019531 16.585938 20.03125 16.625 C 20.082031 16.414062 20.273438 16.257812 20.5 16.25 C 20.503906 16.25 20.507812 16.25 20.511719 16.25 C 20.746094 16.25 20.941406 16.410156 20.996094 16.625 C 21.007812 16.585938 21.011719 16.542969 21.011719 16.5 C 21.011719 16.222656 20.789062 16 20.511719 16 C 20.507812 16 20.503906 16 20.5 16 Z M 15.367188 19 C 15.195312 19.300781 14.871094 19.5 14.5 19.5 C 14.234375 19.5 13.992188 19.394531 13.8125 19.226562 C 12.992188 20.386719 12.898438 23 11.5 23 C 10.667969 23 10 22.332031 10 21.5 L 10 21.75 C 10 22.582031 10.667969 23.25 11.5 23.25 C 12.898438 23.25 12.992188 20.636719 13.8125 19.476562 C 13.992188 19.644531 14.234375 19.75 14.5 19.75 C 14.871094 19.75 15.195312 19.550781 15.367188 19.25 L 16.632812 19.25 C 16.804688 19.550781 17.128906 19.75 17.5 19.75 C 17.765625 19.75 18.007812 19.644531 18.1875 19.476562 C 19.007812 20.636719 19.101562 23.25 20.5 23.25 C 21.332031 23.25 22 22.582031 22 21.75 L 22 21.5 C 22 22.332031 21.332031 23 20.5 23 C 19.101562 23 19.007812 20.386719 18.1875 19.226562 C 18.007812 19.394531 17.765625 19.5 17.5 19.5 C 17.128906 19.5 16.804688 19.300781 16.632812 19 Z M 15.367188 19 "/>
<path style=" stroke:none;fill-rule:nonzero;fill:url(#linear1);" d="M 4 6 C 2.890625 6 2 6.890625 2 8 L 2 26 C 2 27.109375 2.890625 28 4 28 L 28 28 C 29.109375 28 30 27.109375 30 26 L 30 10 L 10 10 C 8.890625 10 8 9.109375 8 8 L 8 6 Z M 4 6 "/>
</g>
</svg>
