
<svg xmlns="http://www.w3.org/2000/svg" xmlns:xlink="http://www.w3.org/1999/xlink" width="24" height="24" viewBox="0 0 24 24" version="1.1">
<defs>
<linearGradient id="linear0" gradientUnits="userSpaceOnUse" x1="10.054166" y1="-209.708328" x2="10.054166" y2="-212.883331" gradientTransform="matrix(1.417323,0,0,1.417323,0,304.724425)">
<stop offset="0" style="stop-color:rgb(0%,0%,0%);stop-opacity:0.2;"/>
<stop offset="1" style="stop-color:rgb(100%,100%,100%);stop-opacity:0;"/>
</linearGradient>
<linearGradient id="linear1" gradientUnits="userSpaceOnUse" x1="8.995832" y1="-200.183334" x2="8.995832" y2="-211.824997" gradientTransform="matrix(1.417323,0,0,1.417323,0,304.724425)">
<stop offset="0" style="stop-color:rgb(0%,0%,0%);stop-opacity:0.2;"/>
<stop offset="1" style="stop-color:rgb(100%,100%,100%);stop-opacity:0;"/>
</linearGradient>
</defs>
<g id="surface1">
<path style=" stroke:none;fill-rule:nonzero;fill:rgb(63.137257%,53.333336%,49.803922%);fill-opacity:1;" d="M 7.5 3 L 21 3 C 21.828125 3 22.5 3.671875 22.5 4.5 L 22.5 9 C 22.5 9.828125 21.828125 10.5 21 10.5 L 7.5 10.5 C 6.671875 10.5 6 9.828125 6 9 L 6 4.5 C 6 3.671875 6.671875 3 7.5 3 Z M 7.5 3 "/>
<path style=" stroke:none;fill-rule:nonzero;fill:url(#linear0);" d="M 7.5 3 L 21 3 C 21.828125 3 22.5 3.671875 22.5 4.5 L 22.5 9 C 22.5 9.828125 21.828125 10.5 21 10.5 L 7.5 10.5 C 6.671875 10.5 6 9.828125 6 9 L 6 4.5 C 6 3.671875 6.671875 3 7.5 3 Z M 7.5 3 "/>
<path style=" stroke:none;fill-rule:nonzero;fill:rgb(73.725492%,66.666669%,64.313728%);fill-opacity:1;" d="M 3 4.5 C 2.167969 4.5 1.5 5.167969 1.5 6 L 1.5 19.5 C 1.5 20.332031 2.167969 21 3 21 L 21 21 C 21.832031 21 22.5 20.332031 22.5 19.5 L 22.5 7.5 L 7.5 7.5 C 6.667969 7.5 6 6.832031 6 6 L 6 4.5 Z M 3 4.5 "/>
<path style=" stroke:none;fill-rule:nonzero;fill:rgb(73.725492%,66.666669%,64.313728%);fill-opacity:1;" d="M 3 4.5 C 2.167969 4.5 1.5 5.167969 1.5 6 L 1.5 19.5 C 1.5 20.332031 2.167969 21 3 21 L 21 21 C 21.832031 21 22.5 20.332031 22.5 19.5 L 22.5 7.5 L 7.5 7.5 C 6.667969 7.5 6 6.832031 6 6 L 6 4.5 Z M 3 4.5 "/>
<path style=" stroke:none;fill-rule:nonzero;fill:rgb(0.392157%,0.392157%,0.392157%);fill-opacity:0.4;" d="M 3 20.996094 C 2.167969 20.996094 1.5 20.328125 1.5 19.496094 L 1.5 19.132812 C 1.5 19.964844 2.167969 20.632812 3 20.632812 L 21 20.632812 C 21.832031 20.632812 22.5 19.964844 22.5 19.132812 L 22.5 19.496094 C 22.5 20.328125 21.832031 20.996094 21 20.996094 Z M 3 20.996094 "/>
<path style=" stroke:none;fill-rule:nonzero;fill:rgb(0%,0%,0%);fill-opacity:0.2;" d="M 1.5 19.5 L 1.5 20.0625 C 1.5 20.894531 2.167969 21.5625 3 21.5625 L 21 21.5625 C 21.832031 21.5625 22.5 20.894531 22.5 20.0625 L 22.5 19.5 C 22.5 20.332031 21.832031 21 21 21 L 3 21 C 2.167969 21 1.5 20.332031 1.5 19.5 Z M 1.5 19.5 "/>
<path style=" stroke:none;fill-rule:nonzero;fill:rgb(100%,100%,100%);fill-opacity:0.4;" d="M 3 4.5 C 2.167969 4.5 1.5 5.167969 1.5 6 L 1.5 6.375 C 1.5 5.542969 2.167969 4.875 3 4.875 L 6 4.875 L 6 4.5 Z M 6 6 L 6 6.375 C 6 7.207031 6.667969 7.875 7.5 7.875 L 22.5 7.875 L 22.5 7.5 L 7.5 7.5 C 6.667969 7.5 6 6.832031 6 6 Z M 6 6 "/>
<path style=" stroke:none;fill-rule:nonzero;fill:rgb(100%,100%,100%);fill-opacity:0.4;" d="M 7.5 3 C 6.667969 3 6 3.667969 6 4.5 L 6 4.6875 C 6 3.855469 6.667969 3.1875 7.5 3.1875 L 21 3.1875 C 21.832031 3.1875 22.5 3.855469 22.5 4.6875 L 22.5 4.5 C 22.5 3.667969 21.832031 3 21 3 Z M 7.5 3 "/>
<path style=" stroke:none;fill-rule:nonzero;fill:rgb(0%,67.450982%,75.686276%);fill-opacity:1;" d="M 14.59375 9.75 C 13.984375 9.765625 13.5 10.261719 13.5 10.875 C 13.5 10.933594 13.503906 10.992188 13.511719 11.046875 L 10.851562 12.480469 C 10.578125 12.183594 10.1875 12 9.75 12 C 8.917969 12 8.25 12.667969 8.25 13.5 C 8.25 14.332031 8.917969 15 9.75 15 C 10.1875 15 10.578125 14.816406 10.851562 14.519531 L 13.511719 15.953125 C 13.503906 16.007812 13.5 16.066406 13.5 16.125 C 13.5 16.75 14 17.25 14.625 17.25 C 15.25 17.25 15.75 16.75 15.75 16.125 C 15.75 15.5 15.25 15 14.625 15 C 14.332031 15 14.066406 15.109375 13.867188 15.292969 L 11.207031 13.859375 C 11.234375 13.746094 11.25 13.625 11.25 13.5 C 11.25 13.375 11.234375 13.257812 11.207031 13.140625 L 13.867188 11.707031 C 14.066406 11.890625 14.332031 12 14.625 12 C 15.25 12 15.75 11.5 15.75 10.875 C 15.75 10.25 15.25 9.75 14.625 9.75 C 14.617188 9.75 14.605469 9.75 14.59375 9.75 Z M 14.59375 9.75 "/>
<path style=" stroke:none;fill-rule:nonzero;fill:rgb(84.313726%,80.000001%,78.431374%);fill-opacity:1;" d="M 14.59375 9.75 C 13.984375 9.765625 13.5 10.261719 13.5 10.875 C 13.5 10.933594 13.503906 10.992188 13.511719 11.046875 L 10.851562 12.480469 C 10.578125 12.183594 10.1875 12 9.75 12 C 8.917969 12 8.25 12.667969 8.25 13.5 C 8.25 14.332031 8.917969 15 9.75 15 C 10.1875 15 10.578125 14.816406 10.851562 14.519531 L 13.511719 15.953125 C 13.503906 16.007812 13.5 16.066406 13.5 16.125 C 13.5 16.75 14 17.25 14.625 17.25 C 15.25 17.25 15.75 16.75 15.75 16.125 C 15.75 15.5 15.25 15 14.625 15 C 14.332031 15 14.066406 15.109375 13.867188 15.292969 L 11.207031 13.859375 C 11.234375 13.746094 11.25 13.625 11.25 13.5 C 11.25 13.375 11.234375 13.257812 11.207031 13.140625 L 13.867188 11.707031 C 14.066406 11.890625 14.332031 12 14.625 12 C 15.25 12 15.75 11.5 15.75 10.875 C 15.75 10.25 15.25 9.75 14.625 9.75 C 14.617188 9.75 14.605469 9.75 14.59375 9.75 Z M 14.59375 9.75 "/>
<path style=" stroke:none;fill-rule:nonzero;fill:rgb(99.215686%,99.215686%,99.215686%);fill-opacity:0.4;" d="M 14.59375 9.75 C 13.984375 9.765625 13.5 10.261719 13.5 10.875 C 13.5 10.90625 13.5 10.9375 13.503906 10.96875 C 13.550781 10.398438 14.019531 9.953125 14.59375 9.9375 C 14.605469 9.9375 14.613281 9.9375 14.625 9.9375 C 15.214844 9.9375 15.695312 10.386719 15.746094 10.964844 C 15.746094 10.933594 15.75 10.90625 15.75 10.875 C 15.75 10.25 15.25 9.75 14.625 9.75 C 14.617188 9.75 14.605469 9.75 14.59375 9.75 Z M 13.5 11.054688 L 10.851562 12.480469 C 10.578125 12.183594 10.1875 12 9.75 12 C 8.917969 12 8.25 12.667969 8.25 13.5 C 8.25 13.527344 8.253906 13.554688 8.253906 13.582031 C 8.308594 12.800781 8.953125 12.1875 9.75 12.1875 C 10.1875 12.1875 10.578125 12.371094 10.851562 12.667969 L 13.511719 11.234375 C 13.503906 11.179688 13.5 11.121094 13.5 11.0625 C 13.5 11.058594 13.5 11.058594 13.5 11.054688 Z M 11.238281 13.3125 L 11.207031 13.328125 C 11.226562 13.414062 11.242188 13.5 11.246094 13.59375 C 11.25 13.5625 11.25 13.53125 11.25 13.5 C 11.25 13.4375 11.246094 13.375 11.238281 13.3125 Z M 11.238281 13.878906 C 11.230469 13.933594 11.21875 13.992188 11.207031 14.046875 L 13.867188 15.480469 C 14.066406 15.296875 14.332031 15.1875 14.625 15.1875 C 15.214844 15.1875 15.695312 15.636719 15.746094 16.214844 C 15.746094 16.183594 15.75 16.15625 15.75 16.125 C 15.75 15.5 15.25 15 14.625 15 C 14.332031 15 14.066406 15.109375 13.867188 15.292969 Z M 13.5 16.132812 C 13.5 16.160156 13.503906 16.1875 13.503906 16.214844 C 13.507812 16.1875 13.507812 16.164062 13.511719 16.140625 Z M 13.5 16.132812 "/>
<path style=" stroke:none;fill-rule:nonzero;fill:rgb(3.529412%,3.529412%,3.529412%);fill-opacity:0.4;" d="M 15.746094 10.953125 C 15.699219 11.53125 15.214844 11.984375 14.625 11.984375 C 14.332031 11.984375 14.066406 11.875 13.867188 11.695312 L 11.207031 13.125 C 11.222656 13.183594 11.230469 13.238281 11.238281 13.296875 L 13.867188 11.882812 C 14.066406 12.0625 14.332031 12.171875 14.625 12.171875 C 15.25 12.171875 15.75 11.671875 15.75 11.046875 C 15.75 11.015625 15.75 10.984375 15.746094 10.953125 Z M 13.503906 10.953125 C 13.503906 10.984375 13.5 11.011719 13.5 11.039062 L 13.511719 11.03125 C 13.507812 11.007812 13.507812 10.980469 13.503906 10.953125 Z M 8.253906 13.578125 C 8.25 13.609375 8.25 13.640625 8.25 13.671875 C 8.25 14.503906 8.917969 15.171875 9.75 15.171875 C 10.1875 15.171875 10.578125 14.988281 10.851562 14.691406 L 13.5 16.117188 C 13.5 16.113281 13.5 16.113281 13.5 16.109375 C 13.5 16.050781 13.503906 15.992188 13.511719 15.9375 L 10.851562 14.503906 C 10.578125 14.800781 10.1875 14.984375 9.75 14.984375 C 8.949219 14.984375 8.300781 14.367188 8.253906 13.578125 Z M 11.246094 13.582031 C 11.242188 13.671875 11.226562 13.761719 11.207031 13.84375 L 11.238281 13.863281 C 11.246094 13.800781 11.25 13.738281 11.25 13.671875 C 11.25 13.640625 11.25 13.609375 11.246094 13.582031 Z M 13.503906 16.203125 C 13.5 16.234375 13.5 16.265625 13.5 16.296875 C 13.5 16.921875 14 17.421875 14.625 17.421875 C 15.25 17.421875 15.75 16.921875 15.75 16.296875 C 15.75 16.265625 15.75 16.234375 15.746094 16.203125 C 15.699219 16.78125 15.214844 17.234375 14.625 17.234375 C 14.035156 17.234375 13.550781 16.78125 13.503906 16.203125 Z M 13.503906 16.203125 "/>
<path style=" stroke:none;fill-rule:nonzero;fill:url(#linear1);" d="M 3 4.5 C 2.167969 4.5 1.5 5.167969 1.5 6 L 1.5 19.5 C 1.5 20.332031 2.167969 21 3 21 L 21 21 C 21.832031 21 22.5 20.332031 22.5 19.5 L 22.5 7.5 L 7.5 7.5 C 6.667969 7.5 6 6.832031 6 6 L 6 4.5 Z M 3 4.5 "/>
</g>
</svg>
