
<svg xmlns="http://www.w3.org/2000/svg" xmlns:xlink="http://www.w3.org/1999/xlink" width="24" height="24" viewBox="0 0 24 24" version="1.1">
<defs>
<linearGradient id="linear0" gradientUnits="userSpaceOnUse" x1="31.999998" y1="60" x2="31.999998" y2="3.999999" gradientTransform="matrix(0.375,0,0,0.375,0,0.000000000000042633)">
<stop offset="0" style="stop-color:rgb(0%,0%,0%);stop-opacity:0.2;"/>
<stop offset="1" style="stop-color:rgb(100%,100%,100%);stop-opacity:0;"/>
</linearGradient>
</defs>
<g id="surface1">
<path style=" stroke:none;fill-rule:nonzero;fill:rgb(55.29412%,43.137255%,38.82353%);fill-opacity:1;" d="M 14.25 3 C 13.691406 3 13.207031 3.300781 12.949219 3.75 L 3.75 3.75 C 2.917969 3.75 2.25 4.417969 2.25 5.25 L 2.25 7.5 C 2.25 8.332031 2.917969 9 3.75 9 L 20.25 9 C 21.082031 9 21.75 8.332031 21.75 7.5 L 21.75 4.5 C 21.75 3.667969 21.082031 3 20.25 3 Z M 14.25 3 "/>
<path style=" stroke:none;fill-rule:nonzero;fill:rgb(100%,100%,100%);fill-opacity:0.4;" d="M 14.25 3 C 13.691406 3 13.207031 3.300781 12.949219 3.75 L 3.75 3.75 C 2.917969 3.75 2.25 4.417969 2.25 5.25 L 2.25 5.277344 C 2.328125 4.523438 2.964844 3.9375 3.742188 3.9375 L 12.941406 3.9375 C 13.199219 3.488281 13.683594 3.1875 14.242188 3.1875 L 20.242188 3.1875 C 21.070312 3.1875 21.742188 3.855469 21.742188 4.6875 L 21.742188 7.660156 C 21.746094 7.605469 21.75 7.554688 21.75 7.5 L 21.75 4.5 C 21.75 3.667969 21.082031 3 20.25 3 Z M 14.25 3 "/>
<path style=" stroke:none;fill-rule:nonzero;fill:rgb(73.725492%,66.666669%,64.313728%);fill-opacity:1;" d="M 3 4.5 C 2.167969 4.5 1.5 5.167969 1.5 6 L 1.5 19.5 C 1.5 20.332031 2.167969 21 3 21 L 21 21 C 21.832031 21 22.5 20.332031 22.5 19.5 L 22.5 7.5 C 22.5 6.667969 21.832031 6 21 6 L 14.269531 6 C 14.261719 6 14.257812 6 14.25 6 C 13.835938 6 13.5 5.664062 13.5 5.25 C 13.5 4.835938 13.164062 4.5 12.75 4.5 Z M 3 4.5 "/>
<path style=" stroke:none;fill-rule:nonzero;fill:rgb(100%,100%,100%);fill-opacity:0.4;" d="M 3 4.5 C 2.167969 4.5 1.5 5.167969 1.5 6 L 1.5 6.375 C 1.5 5.542969 2.167969 4.875 3 4.875 L 12.75 4.875 C 13.164062 4.875 13.5 5.210938 13.5 5.625 C 13.5 6.039062 13.835938 6.375 14.25 6.375 C 14.257812 6.375 14.261719 6.375 14.269531 6.375 L 21 6.375 C 21.832031 6.375 22.5 7.042969 22.5 7.875 L 22.5 7.5 C 22.5 6.667969 21.832031 6 21 6 L 14.269531 6 C 14.261719 6 14.257812 6 14.25 6 C 13.835938 6 13.5 5.664062 13.5 5.25 C 13.5 4.835938 13.164062 4.5 12.75 4.5 Z M 3 4.5 "/>
<path style=" stroke:none;fill-rule:nonzero;fill:rgb(0%,0%,0%);fill-opacity:0.4;" d="M 1.5 19.125 L 1.5 19.5 C 1.5 20.332031 2.167969 21 3 21 L 21 21 C 21.832031 21 22.5 20.332031 22.5 19.5 L 22.5 19.125 C 22.5 19.957031 21.832031 20.625 21 20.625 L 3 20.625 C 2.167969 20.625 1.5 19.957031 1.5 19.125 Z M 1.5 19.125 "/>
<path style=" stroke:none;fill-rule:nonzero;fill:rgb(0%,0%,0%);fill-opacity:0.2;" d="M 1.5 19.5 L 1.5 20.0625 C 1.5 20.894531 2.167969 21.5625 3 21.5625 L 21 21.5625 C 21.832031 21.5625 22.5 20.894531 22.5 20.0625 L 22.5 19.5 C 22.5 20.332031 21.832031 21 21 21 L 3 21 C 2.167969 21 1.5 20.332031 1.5 19.5 Z M 1.5 19.5 "/>
<path style=" stroke:none;fill-rule:nonzero;fill:rgb(84.313726%,80.000001%,78.431374%);fill-opacity:1;" d="M 12 9 C 9.921875 9 8.25 10.671875 8.25 12.75 C 8.25 14.828125 9.921875 16.5 12 16.5 C 14.078125 16.5 15.75 14.828125 15.75 12.75 C 15.75 10.671875 14.078125 9 12 9 Z M 12 9.75 C 13.660156 9.75 15 11.089844 15 12.75 C 15 14.410156 13.660156 15.75 12 15.75 C 10.339844 15.75 9 14.410156 9 12.75 C 9 11.089844 10.339844 9.75 12 9.75 Z M 13.113281 10.425781 C 12.988281 10.429688 12.867188 10.496094 12.800781 10.613281 L 11.6875 12.542969 C 11.683594 12.546875 11.679688 12.554688 11.675781 12.558594 L 11.675781 12.5625 C 11.671875 12.566406 11.667969 12.574219 11.667969 12.578125 C 11.664062 12.585938 11.660156 12.589844 11.65625 12.597656 C 11.652344 12.609375 11.648438 12.621094 11.644531 12.632812 C 11.644531 12.636719 11.640625 12.640625 11.640625 12.644531 C 11.640625 12.648438 11.636719 12.652344 11.636719 12.65625 C 11.636719 12.660156 11.636719 12.660156 11.632812 12.664062 C 11.632812 12.664062 11.632812 12.667969 11.632812 12.667969 C 11.632812 12.671875 11.632812 12.675781 11.632812 12.679688 C 11.632812 12.679688 11.628906 12.683594 11.628906 12.6875 C 11.628906 12.6875 11.628906 12.691406 11.628906 12.695312 C 11.625 12.71875 11.625 12.746094 11.625 12.769531 C 11.628906 12.871094 11.675781 12.964844 11.753906 13.035156 L 13.058594 14.339844 C 13.207031 14.488281 13.445312 14.488281 13.589844 14.339844 C 13.738281 14.195312 13.738281 13.957031 13.589844 13.8125 L 12.46875 12.6875 L 13.449219 10.988281 C 13.554688 10.808594 13.496094 10.582031 13.316406 10.480469 L 13.308594 10.472656 C 13.246094 10.4375 13.179688 10.421875 13.113281 10.425781 Z M 13.113281 10.425781 "/>
<path style=" stroke:none;fill-rule:nonzero;fill:rgb(100%,100%,100%);fill-opacity:0.4;" d="M 12 9 C 9.921875 9 8.25 10.671875 8.25 12.75 C 8.25 12.773438 8.25 12.800781 8.253906 12.824219 C 8.3125 10.800781 9.960938 9.1875 12 9.1875 C 14.039062 9.1875 15.6875 10.800781 15.746094 12.824219 C 15.75 12.800781 15.75 12.773438 15.75 12.75 C 15.75 10.671875 14.078125 9 12 9 Z M 13.113281 10.425781 C 12.988281 10.425781 12.867188 10.496094 12.800781 10.613281 L 11.6875 12.542969 C 11.683594 12.550781 11.679688 12.554688 11.675781 12.558594 L 11.675781 12.5625 C 11.671875 12.566406 11.667969 12.574219 11.667969 12.578125 C 11.664062 12.585938 11.660156 12.589844 11.65625 12.597656 C 11.652344 12.609375 11.648438 12.621094 11.644531 12.632812 C 11.644531 12.636719 11.640625 12.640625 11.640625 12.644531 C 11.640625 12.648438 11.636719 12.652344 11.636719 12.65625 C 11.636719 12.660156 11.636719 12.660156 11.632812 12.664062 C 11.632812 12.664062 11.632812 12.667969 11.632812 12.667969 C 11.632812 12.671875 11.632812 12.675781 11.632812 12.679688 C 11.632812 12.683594 11.628906 12.683594 11.628906 12.6875 C 11.628906 12.6875 11.628906 12.691406 11.628906 12.695312 C 11.625 12.722656 11.625 12.746094 11.625 12.769531 C 11.625 12.792969 11.628906 12.820312 11.636719 12.84375 C 11.636719 12.839844 11.640625 12.835938 11.640625 12.832031 C 11.640625 12.828125 11.644531 12.824219 11.644531 12.820312 C 11.648438 12.808594 11.652344 12.796875 11.65625 12.785156 C 11.660156 12.78125 11.664062 12.773438 11.667969 12.765625 C 11.667969 12.761719 11.671875 12.757812 11.675781 12.75 L 11.675781 12.746094 C 11.679688 12.742188 11.683594 12.738281 11.6875 12.730469 L 12.800781 10.800781 C 12.867188 10.683594 12.988281 10.617188 13.113281 10.613281 C 13.179688 10.613281 13.246094 10.628906 13.308594 10.664062 L 13.316406 10.667969 C 13.40625 10.71875 13.464844 10.800781 13.488281 10.890625 C 13.527344 10.734375 13.464844 10.5625 13.316406 10.480469 L 13.308594 10.472656 C 13.246094 10.4375 13.179688 10.421875 13.113281 10.425781 Z M 12.539062 12.757812 L 12.46875 12.875 L 13.589844 14 C 13.640625 14.046875 13.671875 14.105469 13.6875 14.167969 C 13.71875 14.042969 13.6875 13.90625 13.589844 13.808594 Z M 9.003906 12.828125 C 9 12.867188 9 12.902344 9 12.9375 C 9 14.601562 10.339844 15.9375 12 15.9375 C 13.660156 15.9375 15 14.601562 15 12.9375 C 15 12.902344 15 12.867188 14.996094 12.828125 C 14.957031 14.453125 13.636719 15.75 12 15.75 C 10.363281 15.75 9.042969 14.453125 9.003906 12.828125 Z M 9.003906 12.828125 "/>
<path style=" stroke:none;fill-rule:nonzero;fill:rgb(0.784314%,0.784314%,0.784314%);fill-opacity:0.4;" d="M 12 9.75 C 10.339844 9.75 9 11.089844 9 12.75 C 9 12.78125 9 12.8125 9 12.84375 C 9.050781 11.226562 10.371094 9.9375 12 9.9375 C 13.628906 9.9375 14.949219 11.226562 15 12.84375 C 15 12.8125 15 12.78125 15 12.75 C 15 11.089844 13.660156 9.75 12 9.75 Z M 13.488281 10.894531 C 13.480469 10.925781 13.46875 10.960938 13.449219 10.992188 L 12.46875 12.691406 L 12.535156 12.757812 L 13.449219 11.175781 C 13.5 11.085938 13.511719 10.984375 13.488281 10.894531 Z M 11.636719 12.847656 C 11.636719 12.847656 11.636719 12.851562 11.632812 12.851562 C 11.632812 12.851562 11.632812 12.851562 11.632812 12.855469 C 11.632812 12.859375 11.632812 12.863281 11.632812 12.867188 C 11.632812 12.867188 11.628906 12.871094 11.628906 12.871094 C 11.628906 12.875 11.628906 12.878906 11.628906 12.882812 C 11.625 12.90625 11.625 12.933594 11.625 12.957031 C 11.628906 13.058594 11.675781 13.15625 11.753906 13.222656 L 13.0625 14.527344 C 13.207031 14.675781 13.445312 14.675781 13.589844 14.527344 C 13.6875 14.429688 13.71875 14.292969 13.6875 14.171875 C 13.671875 14.234375 13.640625 14.292969 13.589844 14.34375 C 13.445312 14.488281 13.207031 14.488281 13.0625 14.34375 L 11.753906 13.035156 C 11.695312 12.984375 11.65625 12.917969 11.636719 12.84375 Z M 8.25 12.847656 C 8.25 12.878906 8.25 12.90625 8.25 12.9375 C 8.25 15.015625 9.921875 16.6875 12 16.6875 C 14.078125 16.6875 15.75 15.015625 15.75 12.9375 C 15.75 12.90625 15.75 12.878906 15.75 12.847656 C 15.699219 14.882812 14.046875 16.5 12 16.5 C 9.953125 16.5 8.300781 14.882812 8.25 12.847656 Z M 8.25 12.847656 "/>
<path style=" stroke:none;fill-rule:nonzero;fill:url(#linear0);" d="M 14.25 3 C 13.691406 3 13.207031 3.300781 12.949219 3.75 L 3.75 3.75 C 3.140625 3.75 2.617188 4.109375 2.382812 4.632812 C 1.859375 4.867188 1.5 5.390625 1.5 6 L 1.5 19.5 C 1.5 20.332031 2.167969 21 3 21 L 21 21 C 21.832031 21 22.5 20.332031 22.5 19.5 L 22.5 7.5 C 22.5 6.941406 22.199219 6.460938 21.75 6.199219 L 21.75 4.5 C 21.75 3.667969 21.082031 3 20.25 3 Z M 14.25 3 "/>
</g>
</svg>
