
<svg xmlns="http://www.w3.org/2000/svg" xmlns:xlink="http://www.w3.org/1999/xlink" width="16" height="16" viewBox="0 0 16 16" version="1.1">
<defs>
<linearGradient id="linear0" gradientUnits="userSpaceOnUse" x1="31.999998" y1="60" x2="31.999998" y2="4" gradientTransform="matrix(0.25,0,0,0.25,0,0)">
<stop offset="0" style="stop-color:rgb(0%,0%,0%);stop-opacity:0.2;"/>
<stop offset="1" style="stop-color:rgb(100%,100%,100%);stop-opacity:0;"/>
</linearGradient>
</defs>
<g id="surface1">
<path style=" stroke:none;fill-rule:nonzero;fill:rgb(25.882354%,64.705884%,96.078432%);fill-opacity:1;" d="M 10 1 L 3.25 1 C 2.835938 1 2.5 1.335938 2.5 1.75 L 2.5 14.25 C 2.5 14.664062 2.835938 15 3.25 15 L 12.75 15 C 13.164062 15 13.5 14.664062 13.5 14.25 L 13.5 4.5 Z M 10 1 "/>
<path style=" stroke:none;fill-rule:nonzero;fill:rgb(56.470591%,79.215688%,97.647059%);fill-opacity:1;" d="M 6.5 6 L 6.5 10.875 C 6.5 10.945312 6.554688 11 6.625 11 L 7.125 11 C 7.195312 11 7.25 10.945312 7.25 10.875 L 7.25 9 L 7.886719 9 L 9.003906 10.9375 C 9.039062 10.996094 9.117188 11.019531 9.175781 10.984375 L 9.390625 10.859375 C 9.453125 10.824219 9.472656 10.746094 9.4375 10.6875 L 8.460938 9 L 8.5 9 C 9.054688 9 9.5 8.554688 9.5 8 L 9.5 7 C 9.5 6.445312 9.054688 6 8.5 6 Z M 7.25 6.5 L 8.5 6.5 C 8.777344 6.5 9 6.722656 9 7 L 9 8 C 9 8.277344 8.777344 8.5 8.5 8.5 L 7.25 8.5 Z M 7.25 6.5 "/>
<path style=" stroke:none;fill-rule:nonzero;fill:rgb(0%,0%,0%);fill-opacity:0.4;" d="M 10 3.75 L 10 4 C 10 4.414062 10.335938 4.75 10.75 4.75 L 13.5 4.75 L 13.25 4.5 L 10.75 4.5 C 10.335938 4.5 10 4.164062 10 3.75 Z M 10 3.75 "/>
<path style=" stroke:none;fill-rule:nonzero;fill:rgb(39.215687%,70.980394%,96.470588%);fill-opacity:0.996078;" d="M 13.5 4.5 L 10 1 L 10 3.75 C 10 4.164062 10.335938 4.5 10.75 4.5 Z M 13.5 4.5 "/>
<path style=" stroke:none;fill-rule:nonzero;fill:rgb(100%,100%,100%);fill-opacity:0.4;" d="M 3.25 1 C 2.835938 1 2.5 1.335938 2.5 1.75 L 2.5 2 C 2.5 1.585938 2.835938 1.25 3.25 1.25 L 10 1.25 L 13.5 4.75 L 13.5 4.5 L 10 1 Z M 3.25 1 "/>
<path style=" stroke:none;fill-rule:nonzero;fill:rgb(0%,0%,0%);fill-opacity:0.2;" d="M 2.5 14.246094 L 2.5 14.625 C 2.5 15.039062 2.835938 15.375 3.25 15.375 L 12.75 15.375 C 13.164062 15.375 13.5 15.039062 13.5 14.625 L 13.5 14.246094 C 13.5 14.660156 13.164062 14.996094 12.75 14.996094 L 3.25 14.996094 C 2.835938 14.996094 2.5 14.660156 2.5 14.246094 Z M 2.5 14.246094 "/>
<path style=" stroke:none;fill-rule:nonzero;fill:rgb(0%,0%,0%);fill-opacity:0.4;" d="M 2.5 14.03125 L 2.5 14.25 C 2.5 14.664062 2.835938 15 3.25 15 L 12.75 15 C 13.164062 15 13.5 14.664062 13.5 14.25 L 13.5 14.03125 C 13.5 14.445312 13.164062 14.78125 12.75 14.78125 L 3.25 14.78125 C 2.835938 14.78125 2.5 14.445312 2.5 14.03125 Z M 2.5 14.03125 "/>
<path style=" stroke:none;fill-rule:nonzero;fill:url(#linear0);" d="M 10 1 L 3.25 1 C 2.835938 1 2.5 1.335938 2.5 1.75 L 2.5 14.25 C 2.5 14.664062 2.835938 15 3.25 15 L 12.75 15 C 13.164062 15 13.5 14.664062 13.5 14.25 L 13.5 4.5 Z M 10 1 "/>
<path style=" stroke:none;fill-rule:nonzero;fill:rgb(100%,100%,100%);fill-opacity:0.4;" d="M 6.5 6 L 6.5 6.125 L 8.5 6.125 C 9.054688 6.125 9.5 6.570312 9.5 7.125 L 9.5 7 C 9.5 6.445312 9.054688 6 8.5 6 Z M 9 8 C 9 8.277344 8.777344 8.5 8.5 8.5 L 7.25 8.5 L 7.25 8.625 L 8.5 8.625 C 8.777344 8.625 9 8.402344 9 8.125 Z M 8.535156 9.125 C 8.523438 9.125 8.511719 9.125 8.5 9.125 L 8.460938 9.125 L 9.4375 10.8125 C 9.457031 10.773438 9.460938 10.726562 9.4375 10.6875 Z M 8.535156 9.125 "/>
<path style=" stroke:none;fill-rule:nonzero;fill:rgb(9.803922%,9.803922%,9.803922%);fill-opacity:0.4;" d="M 7.25 6.5 L 7.25 6.625 L 8.5 6.625 C 8.777344 6.625 9 6.847656 9 7.125 L 9 7 C 9 6.722656 8.777344 6.5 8.5 6.5 Z M 9.5 8 C 9.5 8.554688 9.054688 9 8.5 9 L 8.460938 9 L 8.535156 9.125 C 9.074219 9.105469 9.5 8.667969 9.5 8.125 Z M 7.25 9 L 7.25 9.125 L 7.886719 9.125 L 9.003906 11.0625 C 9.039062 11.121094 9.117188 11.144531 9.175781 11.109375 L 9.390625 10.984375 C 9.453125 10.949219 9.472656 10.871094 9.4375 10.8125 C 9.425781 10.832031 9.410156 10.847656 9.390625 10.859375 L 9.175781 10.984375 C 9.117188 11.019531 9.039062 10.996094 9.003906 10.9375 L 7.886719 9 Z M 6.5 10.875 L 6.5 11 C 6.5 11.070312 6.554688 11.125 6.625 11.125 L 7.125 11.125 C 7.195312 11.125 7.25 11.070312 7.25 11 L 7.25 10.875 C 7.25 10.945312 7.195312 11 7.125 11 L 6.625 11 C 6.554688 11 6.5 10.945312 6.5 10.875 Z M 6.5 10.875 "/>
</g>
</svg>
