
<svg xmlns="http://www.w3.org/2000/svg" xmlns:xlink="http://www.w3.org/1999/xlink" width="64" height="64" viewBox="0 0 64 64" version="1.1">
<defs>
<linearGradient id="linear0" gradientUnits="userSpaceOnUse" x1="32" y1="59.999996" x2="31.999998" y2="3.999999" >
<stop offset="0" style="stop-color:rgb(0%,0%,0%);stop-opacity:0.2;"/>
<stop offset="1" style="stop-color:rgb(100%,100%,100%);stop-opacity:0;"/>
</linearGradient>
<radialGradient id="radial0" gradientUnits="userSpaceOnUse" cx="8.466666" cy="-207.59166" fx="8.466666" fy="-207.59166" r="2.116667" gradientTransform="matrix(1.190039,0,0,1.190039,1.5181,270.598409)">
<stop offset="0" style="stop-color:rgb(100%,100%,100%);stop-opacity:0.501961;"/>
<stop offset="1" style="stop-color:rgb(100%,100%,100%);stop-opacity:0;"/>
</radialGradient>
<radialGradient id="radial1" gradientUnits="userSpaceOnUse" cx="8.466666" cy="-207.59166" fx="8.466666" fy="-207.59166" r="2.116667" gradientTransform="matrix(1.190039,0,0,1.190039,42.353519,270.598409)">
<stop offset="0" style="stop-color:rgb(100%,100%,100%);stop-opacity:0.501961;"/>
<stop offset="1" style="stop-color:rgb(100%,100%,100%);stop-opacity:0;"/>
</radialGradient>
<radialGradient id="radial2" gradientUnits="userSpaceOnUse" cx="8.466666" cy="-207.59166" fx="8.466666" fy="-207.59166" r="2.116667" gradientTransform="matrix(1.766246,0,0,1.766246,17.063376,398.572932)">
<stop offset="0" style="stop-color:rgb(100%,100%,100%);stop-opacity:0.501961;"/>
<stop offset="1" style="stop-color:rgb(100%,100%,100%);stop-opacity:0;"/>
</radialGradient>
</defs>
<g id="surface1">
<path style=" stroke:none;fill-rule:nonzero;fill:rgb(38.039216%,38.039216%,38.039216%);fill-opacity:1;" d="M 32 3.914062 C 31.28125 3.910156 30.59375 4.207031 30.109375 4.742188 L 4.601562 32.796875 C 3.347656 34.179688 3.964844 36.402344 5.75 36.9375 L 15.40625 40.882812 C 18.914062 42.472656 11.375 43.859375 11.265625 46.296875 C 11.582031 48.535156 16.683594 49.8125 19.234375 49.8125 C 25.609375 49.8125 17.960938 52.363281 20.511719 54.910156 C 23.699219 57.460938 29.4375 56.917969 29.4375 57.464844 C 29.4375 58.875 31.140625 60.015625 33.261719 60.015625 C 35.558594 59.976562 41.550781 57.460938 37.089844 54.273438 C 32.625 51.085938 52.390625 50.449219 45.375 45.984375 C 42.828125 44.070312 45.695312 41.835938 49.84375 40.246094 L 58.222656 36.9375 C 60.042969 36.417969 60.628906 34.179688 59.371094 32.796875 L 33.863281 4.742188 C 33.402344 4.234375 32.757812 3.933594 32.070312 3.914062 C 32.046875 3.910156 32.023438 3.914062 32 3.914062 Z M 53.871094 44.109375 C 51.398438 44.113281 48.566406 45.984375 48.566406 45.984375 C 48.566406 45.984375 58.886719 49.929688 56.863281 45.882812 C 56.199219 44.554688 55.078125 44.109375 53.871094 44.109375 Z M 48.566406 48.535156 C 48.566406 48.535156 49.664062 55.410156 51.234375 53.03125 C 52.808594 50.652344 48.566406 48.535156 48.566406 48.535156 Z M 13.996094 50.664062 C 12.566406 50.691406 11.140625 51.253906 11.359375 53.453125 C 11.78125 57.722656 16.683594 51.085938 16.683594 51.085938 C 16.683594 51.085938 15.335938 50.640625 13.996094 50.664062 Z M 13.996094 50.664062 "/>
<path style=" stroke:none;fill-rule:nonzero;fill:rgb(100%,100%,100%);fill-opacity:0.4;" d="M 32 3.914062 C 31.28125 3.910156 30.59375 4.207031 30.109375 4.742188 L 4.601562 32.796875 C 4.019531 33.441406 3.855469 34.265625 4.007812 35.015625 C 4.101562 34.613281 4.296875 34.226562 4.601562 33.886719 L 30.109375 5.828125 C 30.59375 5.296875 31.28125 4.996094 32 5 C 32.023438 5 32.046875 5 32.070312 5 C 32.757812 5.023438 33.402344 5.324219 33.863281 5.828125 L 59.371094 33.886719 C 59.679688 34.226562 59.878906 34.621094 59.972656 35.03125 C 60.128906 34.273438 59.957031 33.445312 59.371094 32.796875 L 33.863281 4.742188 C 33.402344 4.234375 32.757812 3.933594 32.070312 3.914062 C 32.046875 3.910156 32.023438 3.914062 32 3.914062 Z M 16.03125 42.34375 C 14.949219 43.433594 11.339844 44.617188 11.265625 46.296875 C 11.289062 46.476562 11.351562 46.644531 11.433594 46.808594 C 12.445312 44.898438 17.617188 43.65625 16.03125 42.34375 Z M 53.871094 44.109375 C 51.398438 44.113281 48.566406 45.984375 48.566406 45.984375 C 48.566406 45.984375 49.175781 46.199219 49.75 46.398438 C 50.804688 45.863281 52.398438 45.199219 53.871094 45.199219 C 55.078125 45.199219 56.199219 45.640625 56.863281 46.96875 C 56.914062 47.070312 56.953125 47.160156 56.984375 47.25 C 57.191406 46.960938 57.183594 46.523438 56.863281 45.882812 C 56.199219 44.554688 55.078125 44.109375 53.871094 44.109375 Z M 44.527344 44.964844 C 44.253906 45.679688 44.472656 46.394531 45.375 47.074219 C 46.085938 47.523438 46.519531 47.9375 46.734375 48.316406 C 47.121094 47.664062 46.828125 46.90625 45.375 45.984375 C 44.933594 45.652344 44.664062 45.308594 44.527344 44.964844 Z M 48.566406 48.535156 C 48.566406 48.535156 48.652344 49.058594 48.800781 49.75 C 49.414062 50.097656 51.089844 51.136719 51.496094 52.460938 C 52.136719 50.324219 48.566406 48.535156 48.566406 48.535156 Z M 13.996094 50.664062 C 12.566406 50.691406 11.140625 51.253906 11.359375 53.453125 C 11.363281 53.503906 11.375 53.53125 11.382812 53.578125 C 11.617188 52.171875 12.800781 51.773438 13.996094 51.75 C 14.726562 51.738281 15.453125 51.863281 15.96875 51.984375 C 16.375 51.492188 16.683594 51.085938 16.683594 51.085938 C 16.683594 51.085938 15.335938 50.640625 13.996094 50.664062 Z M 21.503906 51.152344 C 20.875 51.980469 19.605469 53.105469 20.078125 54.277344 C 20.574219 52.867188 22.644531 51.660156 21.503906 51.152344 Z M 36.679688 53.90625 C 36.269531 54.335938 36.316406 54.8125 37.089844 55.359375 C 37.941406 55.972656 38.414062 56.558594 38.597656 57.109375 C 38.875 56.273438 38.539062 55.3125 37.089844 54.273438 C 36.910156 54.148438 36.785156 54.023438 36.679688 53.90625 Z M 36.679688 53.90625 "/>
<path style=" stroke:none;fill-rule:nonzero;fill:rgb(93.333334%,93.333334%,93.333334%);fill-opacity:1;" d="M 32 3.910156 C 31.28125 3.90625 30.59375 4.210938 30.109375 4.742188 L 15.328125 21 C 16.3125 22.164062 17.773438 23.214844 19.234375 21.753906 C 21.785156 19.203125 26.886719 19.203125 26.886719 19.203125 L 29.4375 14.101562 L 29.4375 16.652344 C 29.4375 21.753906 34.539062 19.203125 34.539062 19.203125 C 34.539062 19.203125 39.640625 14.101562 42.191406 19.203125 C 44.328125 23.480469 48.257812 22.378906 49.472656 21.910156 L 33.867188 4.742188 C 33.402344 4.234375 32.757812 3.933594 32.070312 3.914062 C 32.046875 3.914062 32.023438 3.910156 32 3.910156 Z M 32 3.910156 "/>
<path style=" stroke:none;fill-rule:nonzero;fill:rgb(93.725491%,32.549021%,31.37255%);fill-opacity:1;" d="M 11.835938 24.203125 L 11.328125 25.367188 L 31.988281 34.40625 L 52.644531 25.367188 L 52.136719 24.203125 L 31.988281 33.019531 Z M 11.835938 24.203125 "/>
<path style=" stroke:none;fill-rule:nonzero;fill:rgb(25.882354%,64.705884%,96.078432%);fill-opacity:1;" d="M 31.929688 30 L 32.042969 30 C 34.125 30 35.8125 31.6875 35.8125 33.769531 C 35.8125 35.851562 34.125 37.539062 32.042969 37.539062 L 31.929688 37.539062 C 29.847656 37.539062 28.160156 35.851562 28.160156 33.769531 C 28.160156 31.6875 29.847656 30 31.929688 30 Z M 31.929688 30 "/>
<path style=" stroke:none;fill-rule:nonzero;fill:rgb(25.882354%,64.705884%,96.078432%);fill-opacity:1;" d="M 11.542969 22.308594 L 11.621094 22.308594 C 13.007812 22.308594 14.132812 23.433594 14.132812 24.824219 C 14.132812 26.210938 13.007812 27.335938 11.621094 27.335938 L 11.542969 27.335938 C 10.15625 27.335938 9.03125 26.210938 9.03125 24.824219 C 9.03125 23.433594 10.15625 22.308594 11.542969 22.308594 Z M 11.542969 22.308594 "/>
<path style=" stroke:none;fill-rule:nonzero;fill:rgb(25.882354%,64.705884%,96.078432%);fill-opacity:1;" d="M 52.355469 22.308594 L 52.429688 22.308594 C 53.816406 22.308594 54.941406 23.433594 54.941406 24.824219 C 54.941406 26.210938 53.816406 27.335938 52.429688 27.335938 L 52.355469 27.335938 C 50.964844 27.335938 49.839844 26.210938 49.839844 24.824219 C 49.839844 23.433594 50.964844 22.308594 52.355469 22.308594 Z M 52.355469 22.308594 "/>
<path style=" stroke:none;fill-rule:nonzero;fill:rgb(0%,0%,0%);fill-opacity:0.4;" d="M 3.996094 34.011719 C 3.757812 35.226562 4.429688 36.542969 5.75 36.9375 L 15.40625 40.882812 C 15.722656 41.023438 15.921875 41.167969 16.070312 41.308594 C 16.515625 40.828125 16.464844 40.371094 15.40625 39.890625 L 5.75 35.945312 C 4.789062 35.65625 4.171875 34.882812 3.996094 34.011719 Z M 59.984375 34.03125 C 59.8125 34.898438 59.195312 35.667969 58.222656 35.945312 L 49.84375 39.253906 C 46.433594 40.5625 43.890625 42.304688 44.511719 43.945312 C 44.953125 42.617188 47.117188 41.292969 49.84375 40.246094 L 58.222656 36.9375 C 59.5625 36.554688 60.222656 35.246094 59.984375 34.03125 Z M 49.65625 45.375 C 49.035156 45.703125 48.566406 45.984375 48.566406 45.984375 C 48.566406 45.984375 58.28125 49.699219 57.011719 46.21875 C 56.226562 47.457031 51.730469 46.085938 49.65625 45.375 Z M 11.410156 45.78125 C 11.328125 45.949219 11.273438 46.121094 11.265625 46.296875 C 11.582031 48.535156 16.683594 49.8125 19.234375 49.8125 C 20.507812 49.8125 21.207031 49.914062 21.554688 50.097656 C 22.128906 49.320312 22.058594 48.816406 19.234375 48.816406 C 16.871094 48.816406 12.316406 47.722656 11.410156 45.78125 Z M 46.761719 47.296875 C 45.417969 49.683594 34.808594 50.636719 36.640625 52.875 C 38.199219 51.042969 48.097656 50 46.761719 47.296875 Z M 48.566406 48.535156 C 48.566406 48.535156 49.664062 55.410156 51.234375 53.03125 C 51.597656 52.480469 51.644531 51.949219 51.511719 51.449219 C 51.453125 51.644531 51.367188 51.839844 51.234375 52.039062 C 50.074219 53.800781 49.171875 50.496094 48.78125 48.65625 C 48.726562 48.628906 48.566406 48.535156 48.566406 48.535156 Z M 16.03125 50.914062 C 14.710938 52.515625 11.769531 55.683594 11.375 52.582031 C 11.339844 52.84375 11.328125 53.125 11.359375 53.453125 C 11.78125 57.722656 16.683594 51.085938 16.683594 51.085938 C 16.683594 51.085938 16.355469 50.996094 16.03125 50.914062 Z M 20.0625 53.261719 C 19.894531 53.792969 19.949219 54.351562 20.511719 54.910156 C 23.699219 57.460938 29.4375 56.917969 29.4375 57.464844 C 29.4375 58.875 31.140625 60.015625 33.261719 60.015625 C 35.101562 59.984375 39.304688 58.363281 38.617188 56.082031 C 38.078125 57.828125 34.820312 58.996094 33.261719 59.019531 C 31.140625 59.019531 29.4375 57.882812 29.4375 56.46875 C 29.4375 55.925781 23.699219 56.46875 20.511719 53.921875 C 20.289062 53.699219 20.144531 53.480469 20.0625 53.261719 Z M 20.0625 53.261719 "/>
<path style=" stroke:none;fill-rule:nonzero;fill:rgb(100%,100%,100%);fill-opacity:0.8;" d="M 32 3.914062 C 31.28125 3.910156 30.59375 4.207031 30.109375 4.742188 L 15.328125 21 C 15.484375 21.183594 15.652344 21.367188 15.832031 21.535156 L 30.109375 5.828125 C 30.59375 5.296875 31.28125 4.996094 32 5 C 32.023438 5 32.046875 5 32.070312 5 C 32.757812 5.023438 33.402344 5.324219 33.863281 5.828125 L 48.703125 22.15625 C 49.015625 22.074219 49.28125 21.984375 49.472656 21.910156 L 33.863281 4.742188 C 33.402344 4.234375 32.757812 3.933594 32.070312 3.914062 C 32.046875 3.910156 32.023438 3.914062 32 3.914062 Z M 32 3.914062 "/>
<path style=" stroke:none;fill-rule:nonzero;fill:rgb(0%,0%,0%);fill-opacity:0.2;" d="M 4.054688 35.253906 C 3.664062 36.535156 4.339844 38.007812 5.75 38.429688 L 15.40625 42.375 C 15.554688 42.441406 15.675781 42.507812 15.78125 42.574219 C 16.503906 42 16.65625 41.460938 15.40625 40.894531 L 5.75 36.949219 C 4.878906 36.6875 4.289062 36.023438 4.054688 35.253906 Z M 59.925781 35.277344 C 59.695312 36.042969 59.105469 36.699219 58.222656 36.949219 L 49.84375 40.257812 C 46.28125 41.625 43.667969 43.464844 44.613281 45.167969 C 45.238281 43.929688 47.300781 42.714844 49.84375 41.738281 L 58.222656 38.429688 C 59.652344 38.023438 60.316406 36.554688 59.925781 35.277344 Z M 50.21875 46.574219 C 49.242188 47.027344 48.566406 47.476562 48.566406 47.476562 C 48.566406 47.476562 58.867188 51.414062 56.871094 47.386719 C 55.890625 48.234375 52.351562 47.265625 50.21875 46.574219 Z M 11.546875 47.027344 C 11.378906 47.269531 11.277344 47.523438 11.265625 47.792969 C 11.582031 50.027344 16.683594 51.300781 19.234375 51.300781 C 20.210938 51.300781 20.855469 51.363281 21.261719 51.472656 C 22.089844 50.484375 22.484375 49.824219 19.234375 49.824219 C 16.972656 49.824219 12.699219 48.816406 11.546875 47.027344 Z M 46.605469 48.523438 C 44.6875 50.832031 34.113281 51.78125 36.886719 54.125 C 39.125 52.378906 48.667969 51.300781 46.605469 48.523438 Z M 48.566406 50.027344 C 48.566406 50.027344 49.664062 56.902344 51.234375 54.523438 C 51.664062 53.878906 51.660156 53.25 51.429688 52.679688 C 51.378906 52.800781 51.316406 52.921875 51.234375 53.042969 C 50.183594 54.636719 49.34375 52.082031 48.90625 50.21875 C 48.710938 50.105469 48.566406 50.027344 48.566406 50.027344 Z M 15.6875 52.328125 C 14.296875 53.9375 11.882812 56.289062 11.410156 53.832031 C 11.339844 54.144531 11.316406 54.511719 11.359375 54.945312 C 11.78125 59.214844 16.683594 52.578125 16.683594 52.578125 C 16.683594 52.578125 16.273438 52.441406 15.6875 52.328125 Z M 20.160156 54.46875 C 19.875 55.085938 19.851562 55.746094 20.511719 56.40625 C 23.699219 58.953125 29.4375 58.410156 29.4375 58.953125 C 29.4375 60.367188 31.140625 61.503906 33.261719 61.503906 C 35.167969 61.472656 39.609375 59.738281 38.527344 57.328125 C 37.777344 58.9375 34.75 60 33.261719 60.027344 C 31.140625 60.027344 29.4375 58.886719 29.4375 57.472656 C 29.4375 56.929688 23.699219 57.472656 20.511719 54.921875 C 20.359375 54.773438 20.246094 54.621094 20.160156 54.46875 Z M 20.160156 54.46875 "/>
<path style=" stroke:none;fill-rule:nonzero;fill:rgb(93.725491%,32.549021%,31.37255%);fill-opacity:1;" d="M 11.835938 24.203125 L 11.328125 25.367188 L 31.988281 34.40625 L 52.644531 25.367188 L 52.136719 24.203125 L 31.988281 33.019531 Z M 11.835938 24.203125 "/>
<path style=" stroke:none;fill-rule:nonzero;fill:rgb(25.882354%,64.705884%,96.078432%);fill-opacity:1;" d="M 31.929688 30 L 32.042969 30 C 34.125 30 35.8125 31.6875 35.8125 33.769531 C 35.8125 35.851562 34.125 37.539062 32.042969 37.539062 L 31.929688 37.539062 C 29.847656 37.539062 28.160156 35.851562 28.160156 33.769531 C 28.160156 31.6875 29.847656 30 31.929688 30 Z M 31.929688 30 "/>
<path style=" stroke:none;fill-rule:nonzero;fill:rgb(25.882354%,64.705884%,96.078432%);fill-opacity:1;" d="M 11.542969 22.308594 L 11.621094 22.308594 C 13.007812 22.308594 14.132812 23.433594 14.132812 24.824219 C 14.132812 26.210938 13.007812 27.335938 11.621094 27.335938 L 11.542969 27.335938 C 10.15625 27.335938 9.03125 26.210938 9.03125 24.824219 C 9.03125 23.433594 10.15625 22.308594 11.542969 22.308594 Z M 11.542969 22.308594 "/>
<path style=" stroke:none;fill-rule:nonzero;fill:rgb(25.882354%,64.705884%,96.078432%);fill-opacity:1;" d="M 52.355469 22.308594 L 52.429688 22.308594 C 53.816406 22.308594 54.941406 23.433594 54.941406 24.824219 C 54.941406 26.210938 53.816406 27.335938 52.429688 27.335938 L 52.355469 27.335938 C 50.964844 27.335938 49.839844 26.210938 49.839844 24.824219 C 49.839844 23.433594 50.964844 22.308594 52.355469 22.308594 Z M 52.355469 22.308594 "/>
<path style=" stroke:none;fill-rule:nonzero;fill:rgb(93.725491%,32.549021%,31.37255%);fill-opacity:1;" d="M 11.835938 24.203125 L 11.328125 25.367188 L 31.988281 34.40625 L 52.644531 25.367188 L 52.136719 24.203125 L 31.988281 33.019531 Z M 11.835938 24.203125 "/>
<path style=" stroke:none;fill-rule:nonzero;fill:rgb(25.882354%,64.705884%,96.078432%);fill-opacity:1;" d="M 31.929688 30 L 32.042969 30 C 34.125 30 35.8125 31.6875 35.8125 33.769531 C 35.8125 35.851562 34.125 37.539062 32.042969 37.539062 L 31.929688 37.539062 C 29.847656 37.539062 28.160156 35.851562 28.160156 33.769531 C 28.160156 31.6875 29.847656 30 31.929688 30 Z M 31.929688 30 "/>
<path style=" stroke:none;fill-rule:nonzero;fill:rgb(25.882354%,64.705884%,96.078432%);fill-opacity:1;" d="M 11.542969 22.308594 L 11.621094 22.308594 C 13.007812 22.308594 14.132812 23.433594 14.132812 24.824219 C 14.132812 26.210938 13.007812 27.335938 11.621094 27.335938 L 11.542969 27.335938 C 10.15625 27.335938 9.03125 26.210938 9.03125 24.824219 C 9.03125 23.433594 10.15625 22.308594 11.542969 22.308594 Z M 11.542969 22.308594 "/>
<path style=" stroke:none;fill-rule:nonzero;fill:rgb(25.882354%,64.705884%,96.078432%);fill-opacity:1;" d="M 52.355469 22.308594 L 52.429688 22.308594 C 53.816406 22.308594 54.941406 23.433594 54.941406 24.824219 C 54.941406 26.210938 53.816406 27.335938 52.429688 27.335938 L 52.355469 27.335938 C 50.964844 27.335938 49.839844 26.210938 49.839844 24.824219 C 49.839844 23.433594 50.964844 22.308594 52.355469 22.308594 Z M 52.355469 22.308594 "/>
<path style=" stroke:none;fill-rule:nonzero;fill:rgb(0%,0%,0%);fill-opacity:0.4;" d="M 9.09375 25.332031 C 9.105469 25.402344 9.125 25.46875 9.144531 25.535156 C 9.125 25.46875 9.105469 25.402344 9.09375 25.332031 Z M 54.882812 25.34375 C 54.871094 25.40625 54.851562 25.464844 54.832031 25.527344 C 54.851562 25.464844 54.871094 25.40625 54.882812 25.34375 Z M 9.261719 25.855469 C 9.285156 25.90625 9.308594 25.964844 9.335938 26.015625 C 9.308594 25.964844 9.285156 25.90625 9.261719 25.855469 Z M 54.710938 25.859375 C 54.6875 25.914062 54.664062 25.964844 54.636719 26.015625 C 54.664062 25.964844 54.6875 25.914062 54.710938 25.859375 Z M 13.609375 26.363281 C 13.148438 26.957031 12.429688 27.335938 11.621094 27.335938 L 11.546875 27.335938 C 10.957031 27.335938 10.417969 27.128906 9.992188 26.792969 C 10.003906 26.804688 10.015625 26.820312 10.03125 26.828125 L 9.617188 27.285156 C 10.074219 27.84375 10.761719 28.203125 11.546875 28.203125 L 11.621094 28.203125 C 12.429688 28.203125 13.148438 27.824219 13.609375 27.230469 L 28.167969 33.601562 C 28.179688 33.320312 28.21875 33.046875 28.289062 32.785156 Z M 50.367188 26.363281 L 35.6875 32.785156 C 35.753906 33.046875 35.792969 33.320312 35.808594 33.601562 L 50.367188 27.230469 C 50.824219 27.824219 51.542969 28.203125 52.355469 28.203125 L 52.429688 28.203125 C 53.210938 28.203125 53.898438 27.84375 54.359375 27.285156 L 53.945312 26.828125 C 53.960938 26.816406 53.972656 26.800781 53.988281 26.785156 C 53.5625 27.128906 53.023438 27.335938 52.429688 27.335938 L 52.355469 27.335938 C 51.542969 27.335938 50.824219 26.957031 50.367188 26.363281 Z M 28.1875 34.203125 C 28.171875 34.34375 28.160156 34.488281 28.160156 34.636719 C 28.160156 36.726562 29.839844 38.40625 31.929688 38.40625 L 32.042969 38.40625 C 34.132812 38.40625 35.8125 36.726562 35.8125 34.636719 C 35.8125 34.488281 35.804688 34.34375 35.785156 34.203125 C 35.574219 36.085938 33.984375 37.539062 32.042969 37.539062 L 31.929688 37.539062 C 29.988281 37.539062 28.398438 36.085938 28.1875 34.203125 Z M 28.1875 34.203125 "/>
<path style=" stroke:none;fill-rule:nonzero;fill:rgb(100%,100%,100%);fill-opacity:0.4;" d="M 11.480469 22.3125 C 10.117188 22.34375 9.03125 23.453125 9.03125 24.824219 C 9.03125 24.960938 9.046875 25.09375 9.066406 25.222656 C 9.253906 24.046875 10.253906 23.144531 11.480469 23.113281 C 11.5 23.113281 11.523438 23.113281 11.546875 23.113281 L 11.621094 23.113281 C 13.011719 23.113281 14.132812 24.234375 14.132812 25.625 C 14.132812 25.753906 14.125 25.878906 14.105469 26 L 28.820312 32.4375 C 29.5 31.449219 30.636719 30.800781 31.929688 30.800781 L 32.042969 30.800781 C 33.335938 30.800781 34.476562 31.449219 35.15625 32.4375 L 49.871094 26 C 49.851562 25.878906 49.84375 25.753906 49.84375 25.625 C 49.84375 24.234375 50.960938 23.113281 52.355469 23.113281 L 52.429688 23.113281 C 53.683594 23.113281 54.71875 24.027344 54.90625 25.226562 C 54.929688 25.09375 54.941406 24.960938 54.941406 24.824219 C 54.941406 23.433594 53.820312 22.3125 52.429688 22.3125 L 52.355469 22.3125 C 50.960938 22.3125 49.84375 23.433594 49.84375 24.824219 C 49.84375 24.953125 49.851562 25.074219 49.871094 25.199219 L 35.15625 31.632812 C 34.476562 30.644531 33.335938 30 32.042969 30 L 31.929688 30 C 30.636719 30 29.5 30.644531 28.820312 31.636719 L 14.105469 25.199219 C 14.125 25.074219 14.132812 24.953125 14.132812 24.824219 C 14.132812 23.433594 13.011719 22.3125 11.621094 22.3125 L 11.546875 22.3125 C 11.523438 22.3125 11.5 22.308594 11.480469 22.3125 Z M 28.175781 33.542969 C 28.171875 33.617188 28.160156 33.691406 28.160156 33.769531 C 28.160156 33.90625 28.167969 34.039062 28.183594 34.171875 C 28.203125 33.972656 28.238281 33.777344 28.289062 33.589844 Z M 35.796875 33.542969 L 35.6875 33.589844 C 35.734375 33.777344 35.769531 33.972656 35.792969 34.171875 C 35.804688 34.039062 35.8125 33.90625 35.8125 33.769531 C 35.8125 33.691406 35.804688 33.617188 35.796875 33.542969 Z M 35.796875 33.542969 "/>
<path style=" stroke:none;fill-rule:nonzero;fill:url(#linear0);" d="M 32 3.914062 C 31.28125 3.910156 30.59375 4.207031 30.109375 4.742188 L 13.4375 23.082031 C 12.980469 22.605469 12.335938 22.3125 11.621094 22.3125 L 11.546875 22.3125 C 10.152344 22.3125 9.03125 23.433594 9.03125 24.824219 C 9.03125 25.644531 9.421875 26.371094 10.03125 26.828125 L 4.601562 32.796875 C 3.347656 34.179688 3.964844 36.402344 5.75 36.9375 L 15.40625 40.882812 C 18.914062 42.472656 11.375 43.859375 11.265625 46.296875 C 11.582031 48.535156 16.683594 49.8125 19.234375 49.8125 C 25.609375 49.8125 17.960938 52.363281 20.511719 54.910156 C 23.699219 57.460938 29.4375 56.917969 29.4375 57.464844 C 29.4375 58.875 31.140625 60.015625 33.261719 60.015625 C 35.558594 59.976562 41.550781 57.460938 37.089844 54.273438 C 32.625 51.085938 52.390625 50.449219 45.375 45.984375 C 42.828125 44.070312 45.695312 41.835938 49.84375 40.246094 L 58.222656 36.9375 C 60.042969 36.417969 60.628906 34.179688 59.371094 32.796875 L 53.945312 26.828125 C 54.550781 26.371094 54.941406 25.644531 54.941406 24.824219 C 54.941406 23.433594 53.820312 22.3125 52.429688 22.3125 L 52.355469 22.3125 C 51.636719 22.3125 50.996094 22.605469 50.539062 23.082031 L 33.863281 4.742188 C 33.402344 4.234375 32.757812 3.933594 32.070312 3.914062 C 32.046875 3.910156 32.023438 3.914062 32 3.914062 Z M 53.871094 44.109375 C 51.398438 44.113281 48.566406 45.984375 48.566406 45.984375 C 48.566406 45.984375 58.886719 49.929688 56.863281 45.882812 C 56.199219 44.554688 55.078125 44.109375 53.871094 44.109375 Z M 48.566406 48.535156 C 48.566406 48.535156 49.664062 55.410156 51.234375 53.03125 C 52.808594 50.652344 48.566406 48.535156 48.566406 48.535156 Z M 13.996094 50.664062 C 12.566406 50.691406 11.140625 51.253906 11.359375 53.453125 C 11.78125 57.722656 16.683594 51.085938 16.683594 51.085938 C 16.683594 51.085938 15.335938 50.640625 13.996094 50.664062 Z M 13.996094 50.664062 "/>
<path style=" stroke:none;fill-rule:nonzero;fill:url(#radial0);" d="M 11.59375 22.296875 C 12.984375 22.296875 14.113281 23.425781 14.113281 24.816406 C 14.113281 26.207031 12.984375 27.335938 11.59375 27.335938 C 10.203125 27.335938 9.074219 26.207031 9.074219 24.816406 C 9.074219 23.425781 10.203125 22.296875 11.59375 22.296875 Z M 11.59375 22.296875 "/>
<path style=" stroke:none;fill-rule:nonzero;fill:url(#radial1);" d="M 52.429688 22.296875 C 53.820312 22.296875 54.949219 23.425781 54.949219 24.816406 C 54.949219 26.207031 53.820312 27.335938 52.429688 27.335938 C 51.039062 27.335938 49.910156 26.207031 49.910156 24.816406 C 49.910156 23.425781 51.039062 22.296875 52.429688 22.296875 Z M 52.429688 22.296875 "/>
<path style=" stroke:none;fill-rule:nonzero;fill:url(#radial2);" d="M 32.019531 30.046875 C 34.082031 30.046875 35.757812 31.71875 35.757812 33.785156 C 35.757812 35.847656 34.082031 37.523438 32.019531 37.523438 C 29.953125 37.523438 28.277344 35.847656 28.277344 33.785156 C 28.277344 31.71875 29.953125 30.046875 32.019531 30.046875 Z M 32.019531 30.046875 "/>
</g>
</svg>
