
<svg xmlns="http://www.w3.org/2000/svg" xmlns:xlink="http://www.w3.org/1999/xlink" width="22" height="22" viewBox="0 0 22 22" version="1.1">
<defs>
<linearGradient id="linear0" gradientUnits="userSpaceOnUse" x1="31.999998" y1="60" x2="31.999998" y2="3.999999" gradientTransform="matrix(0.34375,0,0,0.34375,0,0.00000000000003908)">
<stop offset="0" style="stop-color:rgb(0%,0%,0%);stop-opacity:0.2;"/>
<stop offset="1" style="stop-color:rgb(100%,100%,100%);stop-opacity:0;"/>
</linearGradient>
</defs>
<g id="surface1">
<path style=" stroke:none;fill-rule:nonzero;fill:rgb(24.705882%,31.764707%,70.980394%);fill-opacity:1;" d="M 11 1.375 C 10.246094 1.375 9.515625 1.460938 8.8125 1.621094 L 8.207031 6.164062 L 3.972656 4.417969 C 3.480469 4.945312 3.042969 5.535156 2.664062 6.1875 C 2.289062 6.839844 1.996094 7.515625 1.785156 8.207031 L 5.414062 11 L 1.785156 13.792969 C 1.996094 14.484375 2.289062 15.160156 2.664062 15.8125 C 3.042969 16.464844 3.480469 17.054688 3.972656 17.582031 L 8.207031 15.835938 L 8.8125 20.378906 C 9.515625 20.539062 10.246094 20.625 11 20.625 C 11.753906 20.625 12.484375 20.539062 13.1875 20.378906 L 13.792969 15.835938 L 18.027344 17.582031 C 18.519531 17.054688 18.957031 16.464844 19.335938 15.8125 C 19.710938 15.160156 20.003906 14.484375 20.214844 13.792969 L 16.585938 11 L 20.214844 8.207031 C 20.003906 7.515625 19.710938 6.839844 19.335938 6.1875 C 18.957031 5.535156 18.519531 4.945312 18.027344 4.417969 L 13.792969 6.164062 L 13.1875 1.621094 C 12.484375 1.460938 11.753906 1.375 11 1.375 Z M 11 1.375 "/>
<path style=" stroke:none;fill-rule:nonzero;fill:rgb(100%,100%,100%);fill-opacity:0.4;" d="M 11 1.375 C 10.246094 1.375 9.515625 1.460938 8.8125 1.621094 L 8.207031 6.164062 L 3.972656 4.417969 C 3.480469 4.945312 3.042969 5.535156 2.664062 6.1875 C 2.289062 6.839844 1.996094 7.515625 1.785156 8.207031 L 1.875 8.273438 C 2.074219 7.679688 2.339844 7.097656 2.664062 6.53125 C 3.042969 5.878906 3.480469 5.289062 3.972656 4.761719 L 8.207031 6.507812 L 8.8125 1.964844 C 9.515625 1.804688 10.246094 1.71875 11 1.71875 C 11.753906 1.71875 12.484375 1.804688 13.1875 1.964844 L 13.792969 6.507812 L 18.027344 4.761719 C 18.519531 5.289062 18.957031 5.878906 19.335938 6.53125 C 19.660156 7.097656 19.925781 7.679688 20.125 8.273438 L 20.214844 8.207031 C 20.003906 7.515625 19.710938 6.839844 19.335938 6.1875 C 18.957031 5.535156 18.519531 4.945312 18.027344 4.417969 L 13.792969 6.164062 L 13.1875 1.621094 C 12.484375 1.460938 11.753906 1.375 11 1.375 Z M 5.191406 11.171875 L 1.785156 13.792969 C 1.8125 13.886719 1.847656 13.976562 1.878906 14.066406 L 5.414062 11.34375 Z M 16.808594 11.171875 L 16.585938 11.34375 L 20.121094 14.066406 C 20.152344 13.976562 20.1875 13.886719 20.214844 13.792969 Z M 16.808594 11.171875 "/>
<path style=" stroke:none;fill-rule:nonzero;fill:rgb(0.392157%,0.392157%,0.392157%);fill-opacity:0.4;" d="M 11 20.625 C 10.246094 20.625 9.515625 20.539062 8.8125 20.378906 L 8.207031 15.835938 L 3.972656 17.582031 C 3.480469 17.054688 3.042969 16.464844 2.664062 15.8125 C 2.289062 15.160156 1.996094 14.484375 1.785156 13.792969 L 1.875 13.726562 C 2.074219 14.320312 2.339844 14.902344 2.664062 15.46875 C 3.042969 16.121094 3.480469 16.710938 3.972656 17.238281 L 8.207031 15.492188 L 8.8125 20.035156 C 9.515625 20.195312 10.246094 20.28125 11 20.28125 C 11.753906 20.28125 12.484375 20.195312 13.1875 20.035156 L 13.792969 15.492188 L 18.027344 17.238281 C 18.519531 16.710938 18.957031 16.121094 19.335938 15.46875 C 19.660156 14.902344 19.925781 14.320312 20.125 13.726562 L 20.214844 13.792969 C 20.003906 14.484375 19.710938 15.160156 19.335938 15.8125 C 18.957031 16.464844 18.519531 17.054688 18.027344 17.582031 L 13.792969 15.835938 L 13.1875 20.378906 C 12.484375 20.539062 11.753906 20.625 11 20.625 Z M 5.191406 10.828125 L 1.785156 8.207031 C 1.8125 8.113281 1.847656 8.023438 1.878906 7.933594 L 5.414062 10.65625 Z M 16.808594 10.828125 L 16.585938 10.65625 L 20.121094 7.933594 C 20.152344 8.023438 20.1875 8.113281 20.214844 8.207031 Z M 16.808594 10.828125 "/>
<path style=" stroke:none;fill-rule:nonzero;fill:rgb(36.078432%,41.960785%,75.294119%);fill-opacity:1;" d="M 11 3.4375 C 15.175781 3.4375 18.5625 6.824219 18.5625 11 C 18.5625 15.175781 15.175781 18.5625 11 18.5625 C 6.824219 18.5625 3.4375 15.175781 3.4375 11 C 3.4375 6.824219 6.824219 3.4375 11 3.4375 Z M 11 3.4375 "/>
<path style=" stroke:none;fill-rule:nonzero;fill:rgb(100%,100%,100%);fill-opacity:0.4;" d="M 11 3.4375 C 6.808594 3.4375 3.4375 6.808594 3.4375 11 C 3.4375 11.058594 3.4375 11.113281 3.441406 11.171875 C 3.53125 7.0625 6.867188 3.78125 11 3.78125 C 15.132812 3.78125 18.46875 7.0625 18.558594 11.171875 C 18.5625 11.113281 18.5625 11.058594 18.5625 11 C 18.5625 6.808594 15.191406 3.4375 11 3.4375 Z M 11 3.4375 "/>
<path style=" stroke:none;fill-rule:nonzero;fill:rgb(0.392157%,0.392157%,0.392157%);fill-opacity:0.4;" d="M 3.570312 12.421875 L 3.519531 12.460938 C 3.769531 14.175781 4.59375 15.699219 5.789062 16.832031 L 6.050781 16.726562 C 4.789062 15.636719 3.894531 14.132812 3.570312 12.421875 Z M 18.429688 12.421875 C 18.105469 14.132812 17.210938 15.636719 15.949219 16.726562 L 16.210938 16.832031 C 17.40625 15.699219 18.230469 14.175781 18.480469 12.460938 Z M 8.515625 18.148438 L 8.5625 18.507812 C 9.328125 18.765625 10.148438 18.90625 11 18.90625 C 11.851562 18.90625 12.671875 18.765625 13.4375 18.507812 L 13.484375 18.148438 C 12.707031 18.417969 11.871094 18.5625 11 18.5625 C 10.128906 18.5625 9.292969 18.417969 8.515625 18.148438 Z M 8.515625 18.148438 "/>
<path style=" stroke:none;fill-rule:nonzero;fill:rgb(0%,0%,0%);fill-opacity:0.2;" d="M 1.921875 8.3125 C 1.871094 8.449219 1.828125 8.582031 1.785156 8.722656 L 3.496094 10.039062 C 3.515625 9.886719 3.542969 9.730469 3.570312 9.578125 Z M 20.078125 8.3125 L 18.429688 9.578125 C 18.457031 9.730469 18.484375 9.886719 18.503906 10.039062 L 20.214844 8.722656 C 20.171875 8.582031 20.128906 8.449219 20.078125 8.3125 Z M 3.441406 11.257812 C 3.4375 11.34375 3.4375 11.429688 3.4375 11.515625 C 3.4375 11.839844 3.457031 12.160156 3.496094 12.476562 L 3.570312 12.421875 C 3.5 12.042969 3.457031 11.652344 3.441406 11.257812 Z M 18.558594 11.257812 C 18.542969 11.652344 18.5 12.042969 18.429688 12.421875 L 18.503906 12.476562 C 18.542969 12.160156 18.5625 11.839844 18.5625 11.515625 C 18.5625 11.429688 18.5625 11.34375 18.558594 11.257812 Z M 1.921875 14.203125 L 1.785156 14.308594 C 1.996094 15 2.289062 15.675781 2.664062 16.328125 C 3.042969 16.980469 3.480469 17.570312 3.972656 18.097656 L 6.050781 17.242188 C 6.765625 17.859375 7.601562 18.347656 8.515625 18.664062 L 8.8125 20.894531 C 9.515625 21.054688 10.246094 21.140625 11 21.140625 C 11.753906 21.140625 12.484375 21.054688 13.1875 20.894531 L 13.484375 18.664062 C 14.398438 18.347656 15.234375 17.859375 15.949219 17.242188 L 18.027344 18.097656 C 18.519531 17.570312 18.957031 16.980469 19.335938 16.328125 C 19.710938 15.675781 20.003906 15 20.214844 14.308594 L 20.078125 14.203125 C 19.882812 14.753906 19.636719 15.289062 19.335938 15.8125 C 18.957031 16.464844 18.519531 17.054688 18.027344 17.582031 L 15.949219 16.726562 C 15.234375 17.34375 14.398438 17.832031 13.484375 18.148438 L 13.1875 20.378906 C 12.484375 20.539062 11.753906 20.625 11 20.625 C 10.246094 20.625 9.515625 20.539062 8.8125 20.378906 L 8.515625 18.148438 C 7.601562 17.832031 6.765625 17.34375 6.050781 16.726562 L 3.972656 17.582031 C 3.480469 17.054688 3.042969 16.464844 2.664062 15.8125 C 2.363281 15.289062 2.117188 14.753906 1.921875 14.203125 Z M 1.921875 14.203125 "/>
<path style=" stroke:none;fill-rule:nonzero;fill:rgb(93.333334%,93.333334%,93.333334%);fill-opacity:1;" d="M 11 6.1875 C 9.339844 6.1875 7.960938 7.3125 7.636719 8.820312 C 6.335938 9.324219 5.5 10.109375 5.5 11 C 5.5 11.871094 6.304688 12.644531 7.5625 13.148438 L 7.5625 15.8125 L 8.9375 15.8125 L 8.9375 13.550781 C 9.574219 13.679688 10.269531 13.75 11 13.75 C 11.730469 13.75 12.425781 13.679688 13.0625 13.550781 L 13.0625 15.8125 L 14.4375 15.8125 L 14.4375 13.148438 C 15.695312 12.644531 16.5 11.871094 16.5 11 C 16.5 10.625 16.347656 10.269531 16.078125 9.945312 C 16.128906 9.851562 16.15625 9.742188 16.15625 9.625 C 16.15625 9.242188 15.851562 8.9375 15.46875 8.9375 C 15.085938 8.9375 14.78125 9.242188 14.78125 9.625 C 14.78125 10.007812 15.085938 10.3125 15.46875 10.3125 C 15.578125 10.3125 15.679688 10.285156 15.773438 10.242188 C 15.796875 10.320312 15.8125 10.402344 15.8125 10.484375 C 15.8125 11 15.289062 11.46875 14.4375 11.808594 L 14.4375 9.503906 C 14.4375 7.667969 12.90625 6.1875 11 6.1875 Z M 11 7.5625 C 12.144531 7.5625 13.0625 8.480469 13.0625 9.625 L 13.0625 12.191406 C 12.4375 12.308594 11.738281 12.375 11 12.375 C 10.261719 12.375 9.5625 12.308594 8.9375 12.191406 L 8.9375 9.625 C 8.9375 8.480469 9.855469 7.5625 11 7.5625 Z M 7.582031 9.152344 C 7.570312 9.269531 7.5625 9.386719 7.5625 9.503906 L 7.5625 11.808594 C 6.710938 11.46875 6.1875 11 6.1875 10.484375 C 6.1875 9.964844 6.71875 9.496094 7.582031 9.152344 Z M 7.582031 9.152344 "/>
<path style=" stroke:none;fill-rule:nonzero;fill:rgb(100%,100%,100%);fill-opacity:0.6;" d="M 11 6.1875 C 9.339844 6.1875 7.960938 7.3125 7.636719 8.820312 C 6.335938 9.324219 5.5 10.109375 5.5 11 C 5.5 11.058594 5.503906 11.113281 5.511719 11.167969 C 5.585938 10.570312 6.039062 10.023438 6.757812 9.589844 C 6.976562 9.429688 7.257812 9.28125 7.582031 9.152344 C 7.578125 9.164062 7.578125 9.175781 7.578125 9.1875 C 7.597656 9.179688 7.617188 9.171875 7.636719 9.164062 C 7.960938 7.65625 9.339844 6.53125 11 6.53125 C 12.90625 6.53125 14.4375 8.011719 14.4375 9.847656 L 14.4375 9.503906 C 14.4375 7.667969 12.90625 6.1875 11 6.1875 Z M 15.46875 8.9375 C 15.085938 8.9375 14.78125 9.242188 14.78125 9.625 C 14.78125 9.683594 14.792969 9.738281 14.804688 9.792969 C 14.882812 9.5 15.148438 9.28125 15.46875 9.28125 C 15.789062 9.28125 16.058594 9.5 16.132812 9.800781 C 16.148438 9.742188 16.15625 9.683594 16.15625 9.625 C 16.15625 9.242188 15.851562 8.9375 15.46875 8.9375 Z M 7.582031 9.496094 C 7.574219 9.5 7.570312 9.503906 7.5625 9.503906 L 7.5625 9.847656 C 7.5625 9.730469 7.570312 9.613281 7.582031 9.496094 Z M 16.152344 10.042969 C 16.144531 10.128906 16.117188 10.214844 16.078125 10.289062 C 16.304688 10.5625 16.449219 10.859375 16.488281 11.171875 C 16.496094 11.117188 16.5 11.058594 16.5 11 C 16.5 10.660156 16.375 10.339844 16.152344 10.042969 Z M 6.207031 10.65625 C 6.195312 10.710938 6.1875 10.769531 6.1875 10.828125 C 6.1875 11.34375 6.710938 11.8125 7.5625 12.152344 L 7.5625 11.808594 C 6.808594 11.507812 6.308594 11.105469 6.207031 10.65625 Z M 15.792969 10.65625 C 15.6875 11.105469 15.191406 11.507812 14.4375 11.808594 L 14.4375 12.152344 C 15.289062 11.8125 15.8125 11.34375 15.8125 10.828125 C 15.8125 10.769531 15.804688 10.710938 15.792969 10.65625 Z M 8.9375 12.191406 L 8.9375 12.535156 C 9.5625 12.652344 10.261719 12.71875 11 12.71875 C 11.738281 12.71875 12.4375 12.652344 13.0625 12.535156 L 13.0625 12.191406 C 12.4375 12.308594 11.738281 12.375 11 12.375 C 10.261719 12.375 9.5625 12.308594 8.9375 12.191406 Z M 8.9375 12.191406 "/>
<path style=" stroke:none;fill-rule:nonzero;fill:rgb(0%,0%,0%);fill-opacity:0.4;" d="M 11 7.5625 C 9.855469 7.5625 8.9375 8.480469 8.9375 9.625 L 8.9375 9.96875 C 8.9375 8.824219 9.855469 7.90625 11 7.90625 C 12.144531 7.90625 13.0625 8.824219 13.0625 9.96875 L 13.0625 9.625 C 13.0625 8.480469 12.144531 7.5625 11 7.5625 Z M 7.578125 9.1875 C 7.277344 9.308594 7.003906 9.441406 6.757812 9.589844 C 6.394531 9.855469 6.1875 10.160156 6.1875 10.484375 C 6.1875 10.542969 6.195312 10.601562 6.207031 10.65625 C 6.308594 10.207031 6.808594 9.808594 7.5625 9.503906 C 7.5625 9.398438 7.566406 9.292969 7.578125 9.1875 Z M 14.804688 9.796875 C 14.789062 9.851562 14.78125 9.910156 14.78125 9.96875 C 14.78125 10.351562 15.085938 10.65625 15.46875 10.65625 C 15.578125 10.65625 15.679688 10.628906 15.773438 10.585938 C 15.78125 10.609375 15.785156 10.632812 15.792969 10.660156 C 15.804688 10.601562 15.8125 10.542969 15.8125 10.484375 C 15.8125 10.402344 15.796875 10.320312 15.773438 10.242188 C 15.679688 10.285156 15.578125 10.3125 15.46875 10.3125 C 15.148438 10.3125 14.878906 10.09375 14.804688 9.796875 Z M 16.132812 9.800781 C 16.121094 9.851562 16.101562 9.898438 16.078125 9.945312 C 16.105469 9.976562 16.128906 10.007812 16.152344 10.042969 C 16.15625 10.015625 16.15625 9.992188 16.15625 9.96875 C 16.15625 9.910156 16.148438 9.851562 16.132812 9.800781 Z M 5.511719 11.171875 C 5.503906 11.226562 5.5 11.285156 5.5 11.34375 C 5.5 12.214844 6.304688 12.988281 7.5625 13.492188 L 7.5625 13.148438 C 6.386719 12.679688 5.609375 11.972656 5.511719 11.171875 Z M 16.488281 11.175781 C 16.390625 11.976562 15.609375 12.679688 14.4375 13.148438 L 14.4375 13.492188 C 15.695312 12.988281 16.5 12.214844 16.5 11.34375 C 16.5 11.285156 16.496094 11.230469 16.488281 11.175781 Z M 8.9375 13.550781 L 8.9375 13.894531 C 9.574219 14.023438 10.269531 14.09375 11 14.09375 C 11.730469 14.09375 12.425781 14.023438 13.0625 13.894531 L 13.0625 13.550781 C 12.425781 13.679688 11.730469 13.75 11 13.75 C 10.269531 13.75 9.574219 13.679688 8.9375 13.550781 Z M 7.5625 15.8125 L 7.5625 16.15625 L 8.9375 16.15625 L 8.9375 15.8125 Z M 13.0625 15.8125 L 13.0625 16.15625 L 14.4375 16.15625 L 14.4375 15.8125 Z M 13.0625 15.8125 "/>
<path style=" stroke:none;fill-rule:nonzero;fill:url(#linear0);" d="M 11 1.375 C 10.246094 1.375 9.515625 1.460938 8.8125 1.621094 L 8.515625 3.851562 C 7.601562 4.167969 6.765625 4.65625 6.050781 5.273438 L 3.972656 4.417969 C 3.480469 4.945312 3.042969 5.535156 2.664062 6.1875 C 2.289062 6.839844 1.996094 7.515625 1.785156 8.207031 L 3.570312 9.578125 C 3.484375 10.039062 3.4375 10.515625 3.4375 11 C 3.4375 11.484375 3.484375 11.960938 3.570312 12.421875 L 1.785156 13.792969 C 1.996094 14.484375 2.289062 15.160156 2.664062 15.8125 C 3.042969 16.464844 3.480469 17.054688 3.972656 17.582031 L 6.050781 16.726562 C 6.765625 17.34375 7.601562 17.832031 8.515625 18.148438 L 8.8125 20.378906 C 9.515625 20.539062 10.246094 20.625 11 20.625 C 11.753906 20.625 12.484375 20.539062 13.1875 20.378906 L 13.484375 18.148438 C 14.398438 17.832031 15.234375 17.34375 15.949219 16.726562 L 18.027344 17.582031 C 18.519531 17.054688 18.957031 16.464844 19.335938 15.8125 C 19.710938 15.160156 20.003906 14.484375 20.214844 13.792969 L 18.429688 12.421875 C 18.515625 11.960938 18.5625 11.484375 18.5625 11 C 18.5625 10.515625 18.515625 10.039062 18.429688 9.578125 L 20.214844 8.207031 C 20.003906 7.515625 19.710938 6.839844 19.335938 6.1875 C 18.957031 5.535156 18.519531 4.945312 18.027344 4.417969 L 15.949219 5.273438 C 15.234375 4.65625 14.398438 4.167969 13.484375 3.851562 L 13.1875 1.621094 C 12.484375 1.460938 11.753906 1.375 11 1.375 Z M 11 1.375 "/>
</g>
</svg>
