
<svg xmlns="http://www.w3.org/2000/svg" xmlns:xlink="http://www.w3.org/1999/xlink" width="22" height="22" viewBox="0 0 22 22" version="1.1">
<defs>
<linearGradient id="linear0" gradientUnits="userSpaceOnUse" x1="8.466666" y1="-199.125" x2="8.466666" y2="-213.941666" gradientTransform="matrix(1.299213,0,0,1.299213,-0.0968498,279.329381)">
<stop offset="0" style="stop-color:rgb(0%,0%,0%);stop-opacity:0.2;"/>
<stop offset="1" style="stop-color:rgb(100%,100%,100%);stop-opacity:0;"/>
</linearGradient>
</defs>
<g id="surface1">
<path style=" stroke:none;fill-rule:nonzero;fill:rgb(87.843138%,87.843138%,87.843138%);fill-opacity:1;" d="M 2.160156 2.824219 C 7.878906 0.949219 14.121094 0.949219 19.839844 2.824219 C 20.277344 2.964844 20.625 3.464844 20.609375 3.921875 C 20.371094 10.625 17.246094 17.972656 11.765625 20.484375 C 11.351562 20.671875 10.648438 20.671875 10.230469 20.484375 C 4.753906 17.972656 1.628906 10.625 1.390625 3.921875 C 1.375 3.464844 1.722656 2.964844 2.160156 2.824219 Z M 2.160156 2.824219 "/>
<path style=" stroke:none;fill-rule:nonzero;fill:rgb(100%,100%,100%);fill-opacity:0.6;" d="M 11 1.417969 C 8.007812 1.417969 5.019531 1.886719 2.160156 2.824219 C 1.722656 2.964844 1.375 3.464844 1.390625 3.921875 C 1.390625 3.988281 1.394531 4.058594 1.398438 4.125 C 1.453125 3.714844 1.773438 3.304688 2.160156 3.179688 C 7.875 1.304688 14.125 1.304688 19.839844 3.179688 C 20.226562 3.304688 20.546875 3.714844 20.601562 4.125 C 20.605469 4.058594 20.609375 3.988281 20.609375 3.921875 C 20.625 3.464844 20.277344 2.964844 19.839844 2.824219 C 16.980469 1.886719 13.992188 1.417969 11 1.417969 Z M 11 1.417969 "/>
<path style=" stroke:none;fill-rule:nonzero;fill:rgb(0.392157%,0.392157%,0.392157%);fill-opacity:0.4;" d="M 1.398438 3.769531 C 1.390625 3.820312 1.386719 3.871094 1.390625 3.921875 C 1.628906 10.625 4.757812 17.972656 10.234375 20.484375 C 10.648438 20.671875 11.351562 20.671875 11.765625 20.484375 C 17.242188 17.972656 20.371094 10.625 20.609375 3.921875 C 20.613281 3.871094 20.609375 3.824219 20.601562 3.773438 C 20.308594 10.421875 17.191406 17.648438 11.765625 20.132812 C 11.351562 20.324219 10.648438 20.324219 10.234375 20.132812 C 4.808594 17.648438 1.691406 10.417969 1.398438 3.769531 Z M 1.398438 3.769531 "/>
<path style=" stroke:none;fill-rule:nonzero;fill:rgb(0%,0%,0%);fill-opacity:0.2;" d="M 1.402344 4.246094 C 1.394531 4.3125 1.386719 4.375 1.390625 4.4375 C 1.628906 11.140625 4.757812 18.488281 10.234375 20.996094 C 10.648438 21.1875 11.351562 21.1875 11.765625 20.996094 C 17.242188 18.488281 20.371094 11.140625 20.609375 4.4375 C 20.613281 4.375 20.605469 4.3125 20.597656 4.246094 C 20.269531 10.859375 17.15625 18.011719 11.765625 20.484375 C 11.351562 20.671875 10.648438 20.671875 10.234375 20.484375 C 4.84375 18.011719 1.730469 10.859375 1.402344 4.246094 Z M 1.402344 4.246094 "/>
<path style=" stroke:none;fill-rule:nonzero;fill:rgb(93.725491%,32.549021%,31.37255%);fill-opacity:1;" d="M 11 2.75 C 8.421875 2.75 5.847656 3.152344 3.382812 3.960938 C 3.007812 4.082031 2.707031 4.511719 2.722656 4.90625 C 2.785156 6.640625 3.070312 8.425781 3.570312 10.132812 C 4.730469 14.105469 7.039062 17.660156 10.339844 19.171875 C 10.519531 19.253906 10.757812 19.296875 11 19.296875 Z M 11 2.75 "/>
<path style=" stroke:none;fill-rule:nonzero;fill:rgb(95.686275%,26.274511%,21.176471%);fill-opacity:1;" d="M 11 2.75 L 11 19.296875 C 11.242188 19.296875 11.480469 19.253906 11.660156 19.171875 C 14.960938 17.660156 17.269531 14.105469 18.429688 10.132812 C 18.929688 8.425781 19.214844 6.640625 19.277344 4.90625 C 19.292969 4.511719 18.992188 4.082031 18.617188 3.960938 C 16.152344 3.152344 13.578125 2.75 11 2.75 Z M 11 2.75 "/>
<path style=" stroke:none;fill-rule:nonzero;fill:rgb(100%,100%,100%);fill-opacity:0.4;" d="M 11 2.75 L 11 3.09375 C 8.421875 3.09375 5.847656 3.496094 3.382812 4.304688 C 3.058594 4.414062 2.785156 4.75 2.730469 5.097656 C 2.726562 5.035156 2.722656 4.96875 2.722656 4.90625 C 2.707031 4.511719 3.007812 4.082031 3.382812 3.960938 C 5.847656 3.152344 8.421875 2.75 11 2.75 Z M 11 2.75 "/>
<path style=" stroke:none;fill-rule:nonzero;fill:rgb(100%,100%,100%);fill-opacity:0.4;" d="M 11 2.75 C 13.578125 2.75 16.152344 3.152344 18.617188 3.960938 C 18.992188 4.082031 19.292969 4.511719 19.277344 4.90625 C 19.277344 4.96875 19.273438 5.035156 19.269531 5.097656 C 19.214844 4.75 18.941406 4.410156 18.617188 4.304688 C 16.152344 3.496094 13.578125 3.09375 11 3.09375 Z M 11 2.75 "/>
<path style=" stroke:none;fill-rule:nonzero;fill:rgb(0%,0%,0%);fill-opacity:0.4;" d="M 19.273438 5.074219 C 19.019531 10.800781 16.332031 17.03125 11.660156 19.171875 C 11.480469 19.253906 11.242188 19.292969 11 19.292969 L 11 19.59375 C 11.242188 19.59375 11.480469 19.554688 11.660156 19.472656 C 16.378906 17.308594 19.070312 10.980469 19.277344 5.207031 C 19.28125 5.160156 19.277344 5.117188 19.273438 5.074219 Z M 19.273438 5.074219 "/>
<path style=" stroke:none;fill-rule:nonzero;fill:rgb(0%,0%,0%);fill-opacity:0.4;" d="M 2.726562 5.074219 C 2.722656 5.117188 2.71875 5.160156 2.722656 5.207031 C 2.929688 10.980469 5.621094 17.308594 10.339844 19.472656 C 10.519531 19.554688 10.757812 19.59375 11 19.59375 L 11 19.292969 C 10.757812 19.292969 10.519531 19.253906 10.339844 19.171875 C 5.667969 17.03125 2.980469 10.800781 2.726562 5.074219 Z M 2.726562 5.074219 "/>
<path style=" stroke:none;fill-rule:nonzero;fill:rgb(100%,100%,100%);fill-opacity:0.4;" d="M 4.734375 4.453125 C 4.53125 4.515625 4.328125 4.578125 4.125 4.644531 C 3.785156 4.753906 3.515625 5.144531 3.527344 5.5 C 3.546875 6.085938 3.597656 6.679688 3.675781 7.273438 C 3.886719 7.210938 4.117188 7.148438 4.34375 7.089844 C 4.308594 6.742188 4.285156 6.394531 4.273438 6.050781 C 4.261719 5.730469 4.507812 5.382812 4.8125 5.28125 C 4.929688 5.242188 5.046875 5.207031 5.164062 5.171875 Z M 4.734375 4.453125 "/>
<path style=" stroke:none;fill-rule:nonzero;fill:rgb(93.333334%,93.333334%,93.333334%);fill-opacity:1;" d="M 8.859375 6.226562 L 7.296875 13.710938 C 7.277344 13.804688 7.300781 13.902344 7.363281 13.976562 C 7.421875 14.050781 7.511719 14.09375 7.609375 14.09375 L 8.546875 14.09375 C 8.773438 14.09375 8.96875 13.933594 9.015625 13.710938 L 9.375 11.898438 C 9.421875 11.675781 9.617188 11.515625 9.84375 11.515625 L 12.15625 11.515625 C 12.382812 11.515625 12.578125 11.675781 12.625 11.898438 L 12.984375 13.710938 C 13.03125 13.933594 13.226562 14.09375 13.453125 14.09375 L 14.390625 14.09375 C 14.488281 14.09375 14.578125 14.050781 14.636719 13.976562 C 14.699219 13.902344 14.722656 13.804688 14.703125 13.710938 L 13.140625 6.226562 C 13.09375 6.003906 12.898438 5.84375 12.671875 5.84375 L 9.328125 5.84375 C 9.101562 5.84375 8.90625 6.003906 8.859375 6.226562 Z M 10.703125 7.21875 L 11.296875 7.21875 C 11.523438 7.21875 11.71875 7.378906 11.765625 7.601562 L 12.160156 9.585938 C 12.179688 9.679688 12.15625 9.777344 12.09375 9.851562 C 12.035156 9.925781 11.945312 9.96875 11.847656 9.96875 L 10.152344 9.96875 C 10.054688 9.96875 9.964844 9.925781 9.90625 9.851562 C 9.84375 9.777344 9.820312 9.679688 9.839844 9.585938 L 10.234375 7.601562 C 10.28125 7.378906 10.476562 7.21875 10.703125 7.21875 Z M 10.703125 7.21875 "/>
<path style=" stroke:none;fill-rule:nonzero;fill:rgb(100%,100%,100%);fill-opacity:0.6;" d="M 9.328125 5.84375 C 9.101562 5.84375 8.90625 6.003906 8.859375 6.222656 L 7.296875 13.714844 C 7.285156 13.78125 7.292969 13.855469 7.328125 13.917969 L 8.859375 6.566406 C 8.90625 6.347656 9.101562 6.1875 9.328125 6.1875 L 12.671875 6.1875 C 12.898438 6.1875 13.09375 6.347656 13.140625 6.566406 L 14.671875 13.921875 C 14.707031 13.855469 14.714844 13.785156 14.703125 13.714844 L 13.140625 6.222656 C 13.09375 6.003906 12.898438 5.84375 12.671875 5.84375 Z M 9.867188 9.789062 L 9.839844 9.929688 C 9.820312 10.023438 9.84375 10.121094 9.90625 10.195312 C 9.964844 10.269531 10.054688 10.3125 10.152344 10.3125 L 11.847656 10.3125 C 11.945312 10.3125 12.035156 10.269531 12.09375 10.195312 C 12.15625 10.121094 12.179688 10.023438 12.160156 9.929688 L 12.132812 9.792969 C 12.078125 9.898438 11.96875 9.96875 11.847656 9.96875 L 10.152344 9.96875 C 10.03125 9.96875 9.921875 9.898438 9.867188 9.789062 Z M 9.867188 9.789062 "/>
<path style=" stroke:none;fill-rule:nonzero;fill:rgb(0%,0%,0%);fill-opacity:0.4;" d="M 10.703125 7.21875 C 10.476562 7.21875 10.28125 7.378906 10.234375 7.601562 L 9.839844 9.585938 C 9.828125 9.65625 9.835938 9.726562 9.867188 9.789062 L 10.234375 7.945312 C 10.28125 7.722656 10.476562 7.5625 10.703125 7.5625 L 11.296875 7.5625 C 11.523438 7.5625 11.71875 7.722656 11.765625 7.945312 L 12.132812 9.792969 C 12.164062 9.730469 12.175781 9.65625 12.160156 9.585938 L 11.765625 7.601562 C 11.71875 7.378906 11.523438 7.21875 11.296875 7.21875 Z M 9.84375 11.515625 C 9.617188 11.515625 9.421875 11.675781 9.375 11.898438 L 9.015625 13.710938 C 8.96875 13.933594 8.773438 14.09375 8.546875 14.09375 L 7.609375 14.09375 C 7.488281 14.09375 7.378906 14.023438 7.328125 13.917969 L 7.296875 14.058594 C 7.277344 14.148438 7.300781 14.246094 7.363281 14.320312 C 7.421875 14.394531 7.511719 14.4375 7.609375 14.4375 L 8.546875 14.4375 C 8.773438 14.4375 8.96875 14.277344 9.015625 14.054688 L 9.375 12.242188 C 9.421875 12.019531 9.617188 11.859375 9.84375 11.859375 L 12.15625 11.859375 C 12.382812 11.859375 12.578125 12.019531 12.625 12.242188 L 12.984375 14.054688 C 13.03125 14.277344 13.226562 14.4375 13.453125 14.4375 L 14.390625 14.4375 C 14.488281 14.4375 14.578125 14.394531 14.636719 14.320312 C 14.699219 14.246094 14.722656 14.148438 14.703125 14.058594 L 14.671875 13.921875 C 14.621094 14.027344 14.511719 14.09375 14.390625 14.09375 L 13.453125 14.09375 C 13.226562 14.09375 13.03125 13.933594 12.984375 13.710938 L 12.625 11.898438 C 12.578125 11.675781 12.382812 11.515625 12.15625 11.515625 Z M 9.84375 11.515625 "/>
<path style=" stroke:none;fill-rule:nonzero;fill:url(#linear0);" d="M 2.0625 2.824219 C 7.78125 0.949219 14.027344 0.949219 19.742188 2.824219 C 20.179688 2.964844 20.53125 3.464844 20.511719 3.921875 C 20.273438 10.625 17.148438 17.972656 11.671875 20.480469 C 11.253906 20.671875 10.550781 20.671875 10.136719 20.480469 C 4.660156 17.972656 1.53125 10.625 1.292969 3.921875 C 1.277344 3.464844 1.628906 2.964844 2.0625 2.824219 Z M 2.0625 2.824219 "/>
</g>
</svg>
