
<svg xmlns="http://www.w3.org/2000/svg" xmlns:xlink="http://www.w3.org/1999/xlink" width="48" height="48" viewBox="0 0 48 48" version="1.1">
<defs>
<linearGradient id="linear0" gradientUnits="userSpaceOnUse" x1="31.999998" y1="60" x2="31.999998" y2="3.999999" gradientTransform="matrix(0.75,0,0,0.75,0,0.000000000000085265)">
<stop offset="0" style="stop-color:rgb(0%,0%,0%);stop-opacity:0.2;"/>
<stop offset="1" style="stop-color:rgb(100%,100%,100%);stop-opacity:0;"/>
</linearGradient>
</defs>
<g id="surface1">
<path style=" stroke:none;fill-rule:nonzero;fill:rgb(40.392157%,22.745098%,71.764708%);fill-opacity:1;" d="M 28.5 6 C 27.386719 6 26.417969 6.601562 25.898438 7.5 L 7.5 7.5 C 5.839844 7.5 4.5 8.839844 4.5 10.5 L 4.5 15 C 4.5 16.660156 5.839844 18 7.5 18 L 40.5 18 C 42.160156 18 43.5 16.660156 43.5 15 L 43.5 9 C 43.5 7.339844 42.160156 6 40.5 6 Z M 28.5 6 "/>
<path style=" stroke:none;fill-rule:nonzero;fill:rgb(100%,100%,100%);fill-opacity:0.4;" d="M 28.5 6 C 27.386719 6 26.417969 6.601562 25.898438 7.5 L 7.5 7.5 C 5.839844 7.5 4.5 8.839844 4.5 10.5 L 4.5 10.554688 C 4.660156 9.042969 5.929688 7.875 7.484375 7.875 L 25.882812 7.875 C 26.398438 6.976562 27.367188 6.375 28.480469 6.375 L 40.480469 6.375 C 42.144531 6.375 43.480469 7.714844 43.480469 9.375 L 43.480469 15.316406 C 43.492188 15.214844 43.5 15.109375 43.5 15 L 43.5 9 C 43.5 7.339844 42.160156 6 40.5 6 Z M 28.5 6 "/>
<path style=" stroke:none;fill-rule:nonzero;fill:rgb(49.411765%,34.117648%,76.078433%);fill-opacity:1;" d="M 6 9 C 4.339844 9 3 10.339844 3 12 L 3 39 C 3 40.660156 4.339844 42 6 42 L 42 42 C 43.660156 42 45 40.660156 45 39 L 45 15 C 45 13.339844 43.660156 12 42 12 L 28.539062 12 C 28.527344 12 28.511719 12 28.5 12 C 27.667969 12 27 11.332031 27 10.5 C 27 9.667969 26.332031 9 25.5 9 Z M 6 9 "/>
<path style=" stroke:none;fill-rule:nonzero;fill:rgb(100%,100%,100%);fill-opacity:0.4;" d="M 6 9 C 4.339844 9 3 10.339844 3 12 L 3 12.75 C 3 11.089844 4.339844 9.75 6 9.75 L 25.5 9.75 C 26.332031 9.75 27 10.417969 27 11.25 C 27 12.082031 27.667969 12.75 28.5 12.75 C 28.511719 12.75 28.527344 12.75 28.539062 12.75 L 42 12.75 C 43.660156 12.75 45 14.089844 45 15.75 L 45 15 C 45 13.339844 43.660156 12 42 12 L 28.539062 12 C 28.527344 12 28.511719 12 28.5 12 C 27.667969 12 27 11.332031 27 10.5 C 27 9.667969 26.332031 9 25.5 9 Z M 6 9 "/>
<path style=" stroke:none;fill-rule:nonzero;fill:rgb(0%,0%,0%);fill-opacity:0.4;" d="M 3 38.25 L 3 39 C 3 40.660156 4.339844 42 6 42 L 42 42 C 43.660156 42 45 40.660156 45 39 L 45 38.25 C 45 39.910156 43.660156 41.25 42 41.25 L 6 41.25 C 4.339844 41.25 3 39.910156 3 38.25 Z M 3 38.25 "/>
<path style=" stroke:none;fill-rule:nonzero;fill:rgb(0%,0%,0%);fill-opacity:0.2;" d="M 3 39 L 3 40.125 C 3 41.785156 4.339844 43.125 6 43.125 L 42 43.125 C 43.660156 43.125 45 41.785156 45 40.125 L 45 39 C 45 40.660156 43.660156 42 42 42 L 6 42 C 4.339844 42 3 40.660156 3 39 Z M 3 39 "/>
<path style=" stroke:none;fill-rule:nonzero;fill:rgb(70.19608%,61.56863%,85.882354%);fill-opacity:1;" d="M 16.875 18.515625 L 16.875 30.320312 C 16.875 30.734375 17.152344 31.097656 17.558594 31.214844 L 23.316406 32.902344 C 23.761719 33.03125 24.238281 33.03125 24.683594 32.902344 L 30.441406 31.214844 C 30.847656 31.097656 31.125 30.734375 31.125 30.320312 L 31.125 18.515625 C 31.125 18.351562 31.046875 18.195312 30.910156 18.097656 C 30.777344 18.003906 30.601562 17.972656 30.441406 18.019531 L 24.683594 19.703125 C 24.238281 19.832031 23.761719 19.832031 23.316406 19.703125 L 17.558594 18.019531 C 17.398438 17.972656 17.222656 18.003906 17.089844 18.097656 C 16.953125 18.195312 16.875 18.351562 16.875 18.515625 Z M 16.875 18.515625 "/>
<path style=" stroke:none;fill-rule:nonzero;fill:rgb(99.607843%,99.607843%,99.607843%);fill-opacity:0.4;" d="M 17.417969 17.996094 C 17.277344 17.992188 17.136719 18.046875 17.035156 18.144531 C 16.933594 18.242188 16.875 18.375 16.875 18.515625 L 16.875 18.886719 C 16.875 18.722656 16.953125 18.570312 17.089844 18.472656 C 17.222656 18.375 17.398438 18.34375 17.558594 18.394531 L 23.316406 20.078125 C 23.761719 20.207031 24.238281 20.207031 24.683594 20.078125 L 30.441406 18.394531 C 30.601562 18.34375 30.777344 18.375 30.910156 18.472656 C 31.046875 18.570312 31.125 18.722656 31.125 18.886719 L 31.125 18.515625 C 31.125 18.351562 31.046875 18.195312 30.910156 18.097656 C 30.777344 18 30.601562 17.972656 30.441406 18.019531 L 24.683594 19.703125 C 24.238281 19.832031 23.761719 19.832031 23.316406 19.703125 L 17.558594 18.019531 C 17.511719 18.003906 17.464844 17.996094 17.417969 17.996094 Z M 17.417969 17.996094 "/>
<path style=" stroke:none;fill-rule:nonzero;fill:rgb(0.784314%,0.784314%,0.784314%);fill-opacity:0.4;" d="M 16.875 30.328125 L 16.875 30.703125 C 16.875 31.117188 17.152344 31.476562 17.558594 31.597656 L 23.316406 33.28125 C 23.761719 33.410156 24.238281 33.410156 24.683594 33.28125 L 30.441406 31.597656 C 30.847656 31.476562 31.125 31.117188 31.125 30.703125 L 31.125 30.328125 C 31.125 30.742188 30.847656 31.105469 30.441406 31.226562 L 24.683594 32.910156 C 24.238281 33.039062 23.761719 33.039062 23.316406 32.910156 L 17.558594 31.226562 C 17.152344 31.105469 16.875 30.742188 16.875 30.328125 Z M 16.875 30.328125 "/>
<path style=" stroke:none;fill-rule:nonzero;fill:url(#linear0);" d="M 28.5 6 C 27.386719 6 26.417969 6.601562 25.898438 7.5 L 7.5 7.5 C 6.28125 7.5 5.234375 8.222656 4.765625 9.261719 C 3.722656 9.734375 3 10.78125 3 12 L 3 39 C 3 40.660156 4.339844 42 6 42 L 42 42 C 43.660156 42 45 40.660156 45 39 L 45 15 C 45 13.886719 44.398438 12.917969 43.5 12.402344 L 43.5 9 C 43.5 7.339844 42.160156 6 40.5 6 Z M 28.5 6 "/>
</g>
</svg>
