
<svg xmlns="http://www.w3.org/2000/svg" xmlns:xlink="http://www.w3.org/1999/xlink" width="32" height="32" viewBox="0 0 32 32" version="1.1">
<defs>
<linearGradient id="linear0" gradientUnits="userSpaceOnUse" x1="31.999998" y1="59.999996" x2="31.999998" y2="4" gradientTransform="matrix(0.5,0,0,0.5,0,0)">
<stop offset="0" style="stop-color:rgb(0%,0%,0%);stop-opacity:0.2;"/>
<stop offset="1" style="stop-color:rgb(100%,100%,100%);stop-opacity:0;"/>
</linearGradient>
</defs>
<g id="surface1">
<path style=" stroke:none;fill-rule:nonzero;fill:rgb(36.078432%,41.960785%,75.294119%);fill-opacity:0.996078;" d="M 4 2 L 13 2 C 14.105469 2 15 2.894531 15 4 L 15 13 C 15 14.105469 14.105469 15 13 15 L 4 15 C 2.894531 15 2 14.105469 2 13 L 2 4 C 2 2.894531 2.894531 2 4 2 Z M 4 2 "/>
<path style=" stroke:none;fill-rule:nonzero;fill:rgb(25.882354%,64.705884%,96.078432%);fill-opacity:0.996078;" d="M 19 2 L 28 2 C 29.105469 2 30 2.894531 30 4 L 30 13 C 30 14.105469 29.105469 15 28 15 L 19 15 C 17.894531 15 17 14.105469 17 13 L 17 4 C 17 2.894531 17.894531 2 19 2 Z M 19 2 "/>
<path style=" stroke:none;fill-rule:nonzero;fill:rgb(25.882354%,64.705884%,96.078432%);fill-opacity:0.996078;" d="M 4 17 L 13 17 C 14.105469 17 15 17.894531 15 19 L 15 28 C 15 29.105469 14.105469 30 13 30 L 4 30 C 2.894531 30 2 29.105469 2 28 L 2 19 C 2 17.894531 2.894531 17 4 17 Z M 4 17 "/>
<path style=" stroke:none;fill-rule:nonzero;fill:rgb(36.078432%,41.960785%,75.294119%);fill-opacity:0.996078;" d="M 19 17 L 28 17 C 29.105469 17 30 17.894531 30 19 L 30 28 C 30 29.105469 29.105469 30 28 30 L 19 30 C 17.894531 30 17 29.105469 17 28 L 17 19 C 17 17.894531 17.894531 17 19 17 Z M 19 17 "/>
<path style=" stroke:none;fill-rule:nonzero;fill:rgb(100%,100%,100%);fill-opacity:0.4;" d="M 4 2 C 2.890625 2 2 2.890625 2 4 L 2 4.5 C 2 3.390625 2.890625 2.5 4 2.5 L 13 2.5 C 14.109375 2.5 15 3.390625 15 4.5 L 15 4 C 15 2.890625 14.109375 2 13 2 Z M 4 2 "/>
<path style=" stroke:none;fill-rule:nonzero;fill:rgb(0%,0%,0%);fill-opacity:0.4;" d="M 4 15 C 2.890625 15 2 14.109375 2 13 L 2 12.5 C 2 13.609375 2.890625 14.5 4 14.5 L 13 14.5 C 14.109375 14.5 15 13.609375 15 12.5 L 15 13 C 15 14.109375 14.109375 15 13 15 Z M 4 15 "/>
<path style=" stroke:none;fill-rule:nonzero;fill:rgb(100%,100%,100%);fill-opacity:0.4;" d="M 19 2 C 17.890625 2 17 2.890625 17 4 L 17 4.5 C 17 3.390625 17.890625 2.5 19 2.5 L 28 2.5 C 29.109375 2.5 30 3.390625 30 4.5 L 30 4 C 30 2.890625 29.109375 2 28 2 Z M 19 2 "/>
<path style=" stroke:none;fill-rule:nonzero;fill:rgb(0%,0%,0%);fill-opacity:0.4;" d="M 19 15 C 17.890625 15 17 14.109375 17 13 L 17 12.5 C 17 13.609375 17.890625 14.5 19 14.5 L 28 14.5 C 29.109375 14.5 30 13.609375 30 12.5 L 30 13 C 30 14.109375 29.109375 15 28 15 Z M 19 15 "/>
<path style=" stroke:none;fill-rule:nonzero;fill:rgb(100%,100%,100%);fill-opacity:0.4;" d="M 19 17 C 17.890625 17 17 17.890625 17 19 L 17 19.5 C 17 18.390625 17.890625 17.5 19 17.5 L 28 17.5 C 29.109375 17.5 30 18.390625 30 19.5 L 30 19 C 30 17.890625 29.109375 17 28 17 Z M 19 17 "/>
<path style=" stroke:none;fill-rule:nonzero;fill:rgb(0%,0%,0%);fill-opacity:0.4;" d="M 19 30 C 17.890625 30 17 29.109375 17 28 L 17 27.5 C 17 28.609375 17.890625 29.5 19 29.5 L 28 29.5 C 29.109375 29.5 30 28.609375 30 27.5 L 30 28 C 30 29.109375 29.109375 30 28 30 Z M 19 30 "/>
<path style=" stroke:none;fill-rule:nonzero;fill:rgb(100%,100%,100%);fill-opacity:0.4;" d="M 4 17 C 2.890625 17 2 17.890625 2 19 L 2 19.5 C 2 18.390625 2.890625 17.5 4 17.5 L 13 17.5 C 14.109375 17.5 15 18.390625 15 19.5 L 15 19 C 15 17.890625 14.109375 17 13 17 Z M 4 17 "/>
<path style=" stroke:none;fill-rule:nonzero;fill:rgb(0%,0%,0%);fill-opacity:0.4;" d="M 4 30 C 2.890625 30 2 29.109375 2 28 L 2 27.5 C 2 28.609375 2.890625 29.5 4 29.5 L 13 29.5 C 14.109375 29.5 15 28.609375 15 27.5 L 15 28 C 15 29.109375 14.109375 30 13 30 Z M 4 30 "/>
<path style=" stroke:none;fill-rule:nonzero;fill:url(#linear0);" d="M 4 2 C 2.890625 2 2 2.890625 2 4 L 2 13 C 2 14.109375 2.890625 15 4 15 L 13 15 C 14.109375 15 15 14.109375 15 13 L 15 4 C 15 2.890625 14.109375 2 13 2 Z M 19 2 C 17.890625 2 17 2.890625 17 4 L 17 13 C 17 14.109375 17.890625 15 19 15 L 28 15 C 29.109375 15 30 14.109375 30 13 L 30 4 C 30 2.890625 29.109375 2 28 2 Z M 4 17 C 2.890625 17 2 17.890625 2 19 L 2 28 C 2 29.109375 2.890625 30 4 30 L 13 30 C 14.109375 30 15 29.109375 15 28 L 15 19 C 15 17.890625 14.109375 17 13 17 Z M 19 17 C 17.890625 17 17 17.890625 17 19 L 17 28 C 17 29.109375 17.890625 30 19 30 L 28 30 C 29.109375 30 30 29.109375 30 28 L 30 19 C 30 17.890625 29.109375 17 28 17 Z M 19 17 "/>
<path style=" stroke:none;fill-rule:nonzero;fill:rgb(0%,0%,0%);fill-opacity:0.2;" d="M 2 13 L 2 13.75 C 2 14.859375 2.890625 15.75 4 15.75 L 13 15.75 C 14.109375 15.75 15 14.859375 15 13.75 L 15 13 C 15 14.109375 14.109375 15 13 15 L 4 15 C 2.890625 15 2 14.109375 2 13 Z M 17 13 L 17 13.75 C 17 14.859375 17.890625 15.75 19 15.75 L 28 15.75 C 29.109375 15.75 30 14.859375 30 13.75 L 30 13 C 30 14.109375 29.109375 15 28 15 L 19 15 C 17.890625 15 17 14.109375 17 13 Z M 2 28 L 2 28.75 C 2 29.859375 2.890625 30.75 4 30.75 L 13 30.75 C 14.109375 30.75 15 29.859375 15 28.75 L 15 28 C 15 29.109375 14.109375 30 13 30 L 4 30 C 2.890625 30 2 29.109375 2 28 Z M 17 28 L 17 28.75 C 17 29.859375 17.890625 30.75 19 30.75 L 28 30.75 C 29.109375 30.75 30 29.859375 30 28.75 L 30 28 C 30 29.109375 29.109375 30 28 30 L 19 30 C 17.890625 30 17 29.109375 17 28 Z M 17 28 "/>
</g>
</svg>
