
<svg xmlns="http://www.w3.org/2000/svg" xmlns:xlink="http://www.w3.org/1999/xlink" width="32" height="32" viewBox="0 0 32 32" version="1.1">
<defs>
<linearGradient id="linear0" gradientUnits="userSpaceOnUse" x1="31.999998" y1="55.999996" x2="31.999998" y2="8" gradientTransform="matrix(0.5,0,0,0.5,0,0)">
<stop offset="0" style="stop-color:rgb(0%,0%,0%);stop-opacity:0.2;"/>
<stop offset="1" style="stop-color:rgb(100%,100%,100%);stop-opacity:0;"/>
</linearGradient>
<linearGradient id="linear1" gradientUnits="userSpaceOnUse" x1="12.170833" y1="-199.125" x2="12.170833" y2="-207.0625" gradientTransform="matrix(1.889764,0,0,1.889764,0,406.299234)">
<stop offset="0" style="stop-color:rgb(0%,0%,0%);stop-opacity:0.2;"/>
<stop offset="1" style="stop-color:rgb(100%,100%,100%);stop-opacity:0;"/>
</linearGradient>
</defs>
<g id="surface1">
<path style=" stroke:none;fill-rule:nonzero;fill:rgb(74.117649%,74.117649%,74.117649%);fill-opacity:0.996078;" d="M 4 4 C 2.890625 4 2 4.890625 2 6 L 2 23 C 2 24.109375 2.890625 25 4 25 L 7 25 L 7 26 C 7 27.109375 7.890625 28 9 28 L 23 28 C 24.109375 28 25 27.109375 25 26 L 25 25 L 28 25 C 29.109375 25 30 24.109375 30 23 L 30 6 C 30 4.890625 29.109375 4 28 4 Z M 4 4 "/>
<path style=" stroke:none;fill-rule:nonzero;fill:rgb(38.039216%,38.039216%,38.039216%);fill-opacity:0.996078;" d="M 6 7 C 5.445312 7 5 7.445312 5 8 L 5 21 C 5 21.554688 5.445312 22 6 22 L 10 22 L 10 24 C 10 24.554688 10.445312 25 11 25 L 21 25 C 21.554688 25 22 24.554688 22 24 L 22 22 L 26 22 C 26.554688 22 27 21.554688 27 21 L 27 8 C 27 7.445312 26.554688 7 26 7 Z M 6 7 "/>
<path style=" stroke:none;fill-rule:nonzero;fill:rgb(100%,79.215688%,15.686275%);fill-opacity:0.996078;" d="M 7 7 L 7 7.75 C 7 7.886719 7.113281 8 7.25 8 L 9.75 8 C 9.886719 8 10 7.886719 10 7.75 L 10 7 Z M 7 7 "/>
<path style=" stroke:none;fill-rule:nonzero;fill:rgb(100%,79.215688%,15.686275%);fill-opacity:0.996078;" d="M 12 7 L 12 7.75 C 12 7.886719 12.113281 8 12.25 8 L 14.75 8 C 14.886719 8 15 7.886719 15 7.75 L 15 7 Z M 12 7 "/>
<path style=" stroke:none;fill-rule:nonzero;fill:rgb(100%,79.215688%,15.686275%);fill-opacity:0.996078;" d="M 17 7 L 17 7.75 C 17 7.886719 17.113281 8 17.25 8 L 19.75 8 C 19.886719 8 20 7.886719 20 7.75 L 20 7 Z M 17 7 "/>
<path style=" stroke:none;fill-rule:nonzero;fill:rgb(100%,79.215688%,15.686275%);fill-opacity:0.996078;" d="M 22 7 L 22 7.75 C 22 7.886719 22.113281 8 22.25 8 L 24.75 8 C 24.886719 8 25 7.886719 25 7.75 L 25 7 Z M 22 7 "/>
<path style=" stroke:none;fill-rule:nonzero;fill:rgb(0.784314%,0.784314%,0.784314%);fill-opacity:0.4;" d="M 6 7 C 5.445312 7 5 7.445312 5 8 L 5 8.5 C 5 7.945312 5.445312 7.5 6 7.5 L 26 7.5 C 26.554688 7.5 27 7.945312 27 8.5 L 27 8 C 27 7.445312 26.554688 7 26 7 Z M 6 7 "/>
<path style=" stroke:none;fill-rule:nonzero;fill:rgb(100%,100%,100%);fill-opacity:0.4;" d="M 5 21 L 5 21.5 C 5 22.054688 5.445312 22.5 6 22.5 L 10 22.5 L 10 22 L 6 22 C 5.445312 22 5 21.554688 5 21 Z M 27 21 C 27 21.554688 26.554688 22 26 22 L 22 22 L 22 22.5 L 26 22.5 C 26.554688 22.5 27 22.054688 27 21.5 Z M 10 24 L 10 24.5 C 10 25.054688 10.445312 25.5 11 25.5 L 21 25.5 C 21.554688 25.5 22 25.054688 22 24.5 L 22 24 C 22 24.554688 21.554688 25 21 25 L 11 25 C 10.445312 25 10 24.554688 10 24 Z M 10 24 "/>
<path style=" stroke:none;fill-rule:nonzero;fill:rgb(100%,100%,100%);fill-opacity:0.4;" d="M 4 4 C 2.890625 4 2 4.890625 2 6 L 2 6.503906 C 2 5.394531 2.890625 4.503906 4 4.503906 L 28 4.503906 C 29.109375 4.503906 30 5.394531 30 6.503906 L 30 6 C 30 4.890625 29.109375 4 28 4 Z M 4 4 "/>
<path style=" stroke:none;fill-rule:nonzero;fill:rgb(0%,0%,0%);fill-opacity:0.4;" d="M 2 22.496094 L 2 23 C 2 24.109375 2.890625 25 4 25 L 7 25 L 7 24.496094 L 4 24.496094 C 2.890625 24.496094 2 23.605469 2 22.496094 Z M 30 22.496094 C 30 23.605469 29.109375 24.496094 28 24.496094 L 25 24.496094 L 25 25 L 28 25 C 29.109375 25 30 24.109375 30 23 Z M 7 25.496094 L 7 26 C 7 27.109375 7.890625 28 9 28 L 23 28 C 24.109375 28 25 27.109375 25 26 L 25 25.496094 C 25 26.605469 24.109375 27.496094 23 27.496094 L 9 27.496094 C 7.890625 27.496094 7 26.605469 7 25.496094 Z M 7 25.496094 "/>
<path style=" stroke:none;fill-rule:nonzero;fill:rgb(0%,0%,0%);fill-opacity:0.2;" d="M 2 23 L 2 23.75 C 2 24.859375 2.890625 25.75 4 25.75 L 7 25.75 L 7 25 L 4 25 C 2.890625 25 2 24.105469 2 23 Z M 30 23 C 30 24.105469 29.109375 25 28 25 L 25 25 L 25 25.75 L 28 25.75 C 29.109375 25.75 30 24.859375 30 23.75 Z M 7 26 L 7 26.75 C 7 27.859375 7.890625 28.75 9 28.75 L 23 28.75 C 24.109375 28.75 25 27.859375 25 26.75 L 25 26 C 25 27.105469 24.109375 28 23 28 L 9 28 C 7.890625 28 7 27.105469 7 26 Z M 7 26 "/>
<path style=" stroke:none;fill-rule:nonzero;fill:url(#linear0);" d="M 4 4 C 2.890625 4 2 4.890625 2 6 L 2 23 C 2 24.109375 2.890625 25 4 25 L 7 25 L 7 26 C 7 27.109375 7.890625 28 9 28 L 23 28 C 24.109375 28 25 27.109375 25 26 L 25 25 L 28 25 C 29.109375 25 30 24.109375 30 23 L 30 6 C 30 4.890625 29.109375 4 28 4 Z M 4 4 "/>
<path style=" stroke:none;fill-rule:nonzero;fill:rgb(87.843138%,87.843138%,87.843138%);fill-opacity:1;" d="M 22.914062 15.265625 C 22.429688 15.273438 21.960938 15.324219 21.503906 15.417969 L 21.015625 17.875 C 20.609375 18.042969 20.230469 18.261719 19.882812 18.523438 L 17.511719 17.722656 C 17.183594 18.09375 16.886719 18.503906 16.628906 18.949219 C 16.371094 19.394531 16.164062 19.859375 16.007812 20.328125 L 17.894531 21.984375 C 17.867188 22.195312 17.851562 22.414062 17.851562 22.632812 C 17.851562 22.851562 17.867188 23.070312 17.894531 23.285156 L 16.007812 24.9375 C 16.164062 25.410156 16.371094 25.871094 16.628906 26.316406 C 16.886719 26.761719 17.183594 27.171875 17.511719 27.542969 L 19.882812 26.742188 C 20.230469 27.003906 20.609375 27.222656 21.015625 27.394531 L 21.503906 29.847656 C 21.992188 29.949219 22.492188 30 23.007812 30 C 23.523438 30 24.027344 29.945312 24.511719 29.847656 L 25.003906 27.394531 C 25.410156 27.222656 25.789062 27.003906 26.132812 26.742188 L 28.503906 27.542969 C 28.835938 27.171875 29.132812 26.761719 29.390625 26.316406 C 29.648438 25.871094 29.851562 25.410156 30.007812 24.9375 L 28.125 23.285156 C 28.152344 23.070312 28.167969 22.851562 28.167969 22.632812 C 28.167969 22.414062 28.152344 22.195312 28.125 21.984375 L 30.007812 20.328125 C 29.851562 19.859375 29.648438 19.394531 29.390625 18.949219 C 29.132812 18.503906 28.835938 18.09375 28.503906 17.722656 L 26.132812 18.523438 C 25.789062 18.261719 25.410156 18.042969 25.003906 17.875 L 24.511719 15.417969 C 24.027344 15.320312 23.523438 15.265625 23.007812 15.265625 C 22.976562 15.265625 22.945312 15.265625 22.914062 15.265625 Z M 23.007812 19.6875 C 24.640625 19.6875 25.957031 21 25.957031 22.632812 C 25.957031 24.265625 24.640625 25.578125 23.007812 25.578125 C 21.375 25.578125 20.0625 24.265625 20.0625 22.632812 C 20.0625 21 21.375 19.6875 23.007812 19.6875 Z M 23.007812 19.6875 "/>
<path style=" stroke:none;fill-rule:nonzero;fill:rgb(100%,100%,100%);fill-opacity:0.6;" d="M 22.914062 15.265625 C 22.429688 15.273438 21.960938 15.324219 21.507812 15.417969 L 21.015625 17.871094 C 20.609375 18.042969 20.230469 18.261719 19.882812 18.523438 L 17.511719 17.722656 C 17.183594 18.09375 16.886719 18.503906 16.628906 18.949219 C 16.371094 19.394531 16.164062 19.859375 16.007812 20.328125 L 16.144531 20.445312 C 16.277344 20.101562 16.4375 19.761719 16.628906 19.433594 C 16.886719 18.988281 17.183594 18.578125 17.511719 18.207031 L 19.882812 19.007812 C 20.230469 18.746094 20.609375 18.527344 21.015625 18.355469 L 21.507812 15.902344 C 21.960938 15.808594 22.429688 15.753906 22.914062 15.75 C 22.945312 15.75 22.976562 15.75 23.007812 15.75 C 23.523438 15.75 24.027344 15.800781 24.511719 15.902344 L 25.003906 18.355469 C 25.410156 18.527344 25.789062 18.746094 26.136719 19.007812 L 28.507812 18.207031 C 28.835938 18.578125 29.128906 18.988281 29.390625 19.433594 C 29.578125 19.761719 29.742188 20.101562 29.875 20.445312 L 30.007812 20.328125 C 29.851562 19.859375 29.648438 19.394531 29.390625 18.949219 C 29.128906 18.503906 28.835938 18.09375 28.507812 17.722656 L 26.136719 18.523438 C 25.789062 18.261719 25.410156 18.042969 25.003906 17.871094 L 24.511719 15.417969 C 24.027344 15.320312 23.523438 15.265625 23.007812 15.265625 C 22.976562 15.265625 22.945312 15.265625 22.914062 15.265625 Z M 17.855469 22.433594 C 17.855469 22.5 17.851562 22.566406 17.851562 22.632812 C 17.851562 22.714844 17.855469 22.792969 17.859375 22.875 C 17.863281 22.738281 17.875 22.601562 17.890625 22.46875 Z M 28.164062 22.4375 L 28.125 22.464844 C 28.144531 22.601562 28.152344 22.738281 28.160156 22.875 C 28.164062 22.792969 28.167969 22.714844 28.167969 22.632812 C 28.167969 22.566406 28.164062 22.5 28.160156 22.433594 Z M 20.074219 22.875 C 20.066406 22.953125 20.0625 23.035156 20.0625 23.117188 C 20.0625 24.75 21.375 26.0625 23.007812 26.0625 C 24.640625 26.0625 25.957031 24.75 25.957031 23.117188 C 25.957031 23.035156 25.953125 22.953125 25.945312 22.875 C 25.824219 24.394531 24.558594 25.578125 23.007812 25.578125 C 21.457031 25.578125 20.195312 24.394531 20.074219 22.875 Z M 28.164062 23.3125 C 28.15625 23.46875 28.144531 23.617188 28.125 23.769531 L 29.875 25.304688 C 29.921875 25.183594 29.96875 25.0625 30.007812 24.9375 Z M 17.855469 23.316406 L 16.007812 24.9375 C 16.050781 25.0625 16.09375 25.183594 16.144531 25.304688 L 17.894531 23.769531 C 17.875 23.617188 17.863281 23.46875 17.855469 23.316406 Z M 17.855469 23.316406 "/>
<path style=" stroke:none;fill-rule:nonzero;fill:rgb(0%,0%,0%);fill-opacity:0.4;" d="M 23.007812 19.179688 C 21.375 19.179688 20.0625 20.496094 20.0625 22.128906 C 20.0625 22.210938 20.066406 22.296875 20.074219 22.378906 C 20.199219 20.867188 21.460938 19.6875 23.007812 19.6875 C 24.554688 19.6875 25.816406 20.867188 25.945312 22.378906 C 25.953125 22.296875 25.957031 22.210938 25.957031 22.128906 C 25.957031 20.496094 24.640625 19.179688 23.007812 19.179688 Z M 29.871094 19.945312 L 28.125 21.476562 C 28.144531 21.632812 28.15625 21.789062 28.164062 21.949219 L 30.007812 20.328125 C 29.964844 20.199219 29.917969 20.070312 29.867188 19.945312 Z M 16.148438 19.945312 C 16.097656 20.074219 16.050781 20.199219 16.007812 20.328125 L 17.855469 21.949219 C 17.859375 21.789062 17.875 21.632812 17.894531 21.476562 Z M 17.859375 22.378906 C 17.855469 22.464844 17.851562 22.546875 17.851562 22.632812 C 17.851562 22.691406 17.851562 22.75 17.855469 22.8125 L 17.894531 22.777344 C 17.875 22.644531 17.863281 22.515625 17.859375 22.378906 Z M 28.160156 22.378906 C 28.152344 22.515625 28.140625 22.644531 28.125 22.777344 L 28.164062 22.808594 C 28.164062 22.75 28.167969 22.691406 28.167969 22.632812 C 28.167969 22.546875 28.164062 22.464844 28.160156 22.378906 Z M 16.148438 24.816406 L 16.007812 24.9375 C 16.164062 25.410156 16.371094 25.871094 16.628906 26.316406 C 16.886719 26.761719 17.183594 27.171875 17.511719 27.542969 L 19.882812 26.742188 C 20.230469 27.003906 20.609375 27.222656 21.015625 27.394531 L 21.503906 29.847656 C 21.992188 29.949219 22.492188 30 23.007812 30 C 23.523438 30 24.027344 29.949219 24.511719 29.847656 L 25.003906 27.394531 C 25.410156 27.222656 25.789062 27.003906 26.132812 26.742188 L 28.503906 27.542969 C 28.835938 27.171875 29.128906 26.761719 29.386719 26.316406 C 29.648438 25.871094 29.851562 25.410156 30.007812 24.9375 L 29.867188 24.816406 C 29.734375 25.152344 29.574219 25.484375 29.386719 25.8125 C 29.128906 26.257812 28.835938 26.667969 28.503906 27.039062 L 26.132812 26.234375 C 25.789062 26.496094 25.410156 26.71875 25.003906 26.886719 L 24.511719 29.34375 C 24.027344 29.441406 23.523438 29.492188 23.007812 29.492188 C 22.492188 29.492188 21.992188 29.441406 21.503906 29.34375 L 21.015625 26.886719 C 20.609375 26.71875 20.230469 26.496094 19.882812 26.234375 L 17.511719 27.039062 C 17.183594 26.667969 16.886719 26.257812 16.628906 25.8125 C 16.441406 25.484375 16.28125 25.152344 16.148438 24.816406 Z M 16.148438 24.816406 "/>
<path style=" stroke:none;fill-rule:nonzero;fill:rgb(0%,0%,0%);fill-opacity:0.2;" d="M 23.007812 19.6875 C 21.375 19.6875 20.0625 21 20.0625 22.632812 C 20.0625 22.757812 20.070312 22.882812 20.085938 23.003906 C 20.269531 21.546875 21.503906 20.429688 23.007812 20.429688 C 24.515625 20.429688 25.75 21.546875 25.929688 23.003906 C 25.945312 22.882812 25.957031 22.757812 25.957031 22.632812 C 25.957031 21 24.640625 19.6875 23.007812 19.6875 Z M 29.800781 20.511719 L 28.125 21.980469 C 28.152344 22.195312 28.167969 22.414062 28.167969 22.632812 C 28.167969 22.652344 28.164062 22.671875 28.164062 22.691406 L 30.007812 21.070312 C 29.945312 20.882812 29.878906 20.695312 29.796875 20.511719 Z M 16.21875 20.515625 C 16.140625 20.699219 16.070312 20.882812 16.007812 21.070312 L 17.855469 22.691406 C 17.851562 22.671875 17.851562 22.652344 17.851562 22.632812 C 17.851562 22.414062 17.867188 22.195312 17.890625 21.984375 Z M 17.863281 23.003906 C 17.859375 23.109375 17.855469 23.210938 17.855469 23.316406 L 17.894531 23.28125 C 17.882812 23.191406 17.871094 23.097656 17.863281 23.003906 Z M 28.152344 23.003906 C 28.148438 23.097656 28.136719 23.191406 28.125 23.285156 L 28.164062 23.316406 C 28.164062 23.210938 28.160156 23.109375 28.152344 23.003906 Z M 16.21875 25.496094 L 16.007812 25.679688 C 16.164062 26.152344 16.371094 26.613281 16.628906 27.058594 C 16.886719 27.503906 17.183594 27.914062 17.511719 28.285156 L 19.882812 27.484375 C 20.230469 27.746094 20.609375 27.964844 21.015625 28.136719 L 21.507812 30.589844 C 21.992188 30.691406 22.492188 30.742188 23.007812 30.742188 C 23.523438 30.742188 24.027344 30.691406 24.511719 30.589844 L 25.003906 28.136719 C 25.410156 27.964844 25.789062 27.746094 26.136719 27.484375 L 28.507812 28.285156 C 28.835938 27.914062 29.128906 27.503906 29.390625 27.058594 C 29.648438 26.613281 29.851562 26.152344 30.007812 25.679688 L 29.796875 25.496094 C 29.679688 25.773438 29.542969 26.046875 29.390625 26.316406 C 29.128906 26.761719 28.835938 27.171875 28.507812 27.542969 L 26.136719 26.742188 C 25.789062 27.003906 25.410156 27.222656 25.003906 27.394531 L 24.511719 29.847656 C 24.027344 29.949219 23.523438 30 23.007812 30 C 22.492188 30 21.992188 29.949219 21.507812 29.847656 L 21.015625 27.394531 C 20.609375 27.222656 20.230469 27.003906 19.882812 26.742188 L 17.511719 27.542969 C 17.183594 27.171875 16.886719 26.761719 16.628906 26.316406 C 16.472656 26.046875 16.335938 25.773438 16.21875 25.496094 Z M 16.21875 25.496094 "/>
<path style=" stroke:none;fill-rule:nonzero;fill:url(#linear1);" d="M 22.914062 15.265625 C 22.429688 15.273438 21.960938 15.324219 21.503906 15.417969 L 21.015625 17.875 C 20.609375 18.042969 20.230469 18.261719 19.882812 18.523438 L 17.511719 17.722656 C 17.183594 18.09375 16.886719 18.503906 16.628906 18.949219 C 16.371094 19.394531 16.164062 19.859375 16.007812 20.328125 L 17.894531 21.984375 C 17.867188 22.195312 17.851562 22.414062 17.851562 22.632812 C 17.851562 22.851562 17.867188 23.070312 17.894531 23.285156 L 16.007812 24.9375 C 16.164062 25.410156 16.371094 25.871094 16.628906 26.316406 C 16.886719 26.761719 17.183594 27.171875 17.511719 27.542969 L 19.882812 26.742188 C 20.230469 27.003906 20.609375 27.222656 21.015625 27.394531 L 21.503906 29.847656 C 21.992188 29.949219 22.492188 30 23.007812 30 C 23.523438 30 24.027344 29.945312 24.511719 29.847656 L 25.003906 27.394531 C 25.410156 27.222656 25.789062 27.003906 26.132812 26.742188 L 28.503906 27.542969 C 28.835938 27.171875 29.132812 26.761719 29.390625 26.316406 C 29.648438 25.871094 29.851562 25.410156 30.007812 24.9375 L 28.125 23.285156 C 28.152344 23.070312 28.167969 22.851562 28.167969 22.632812 C 28.167969 22.414062 28.152344 22.195312 28.125 21.984375 L 30.007812 20.328125 C 29.851562 19.859375 29.648438 19.394531 29.390625 18.949219 C 29.132812 18.503906 28.835938 18.09375 28.503906 17.722656 L 26.132812 18.523438 C 25.789062 18.261719 25.410156 18.042969 25.003906 17.875 L 24.511719 15.417969 C 24.027344 15.320312 23.523438 15.265625 23.007812 15.265625 C 22.976562 15.265625 22.945312 15.265625 22.914062 15.265625 Z M 23.007812 19.6875 C 24.640625 19.6875 25.957031 21 25.957031 22.632812 C 25.957031 24.265625 24.640625 25.578125 23.007812 25.578125 C 21.375 25.578125 20.0625 24.265625 20.0625 22.632812 C 20.0625 21 21.375 19.6875 23.007812 19.6875 Z M 23.007812 19.6875 "/>
</g>
</svg>
