
<svg xmlns="http://www.w3.org/2000/svg" xmlns:xlink="http://www.w3.org/1999/xlink" width="32" height="32" viewBox="0 0 32 32" version="1.1">
<defs>
<linearGradient id="linear0" gradientUnits="userSpaceOnUse" x1="8.466666" y1="-199.125" x2="8.466666" y2="-213.941666" gradientTransform="matrix(1.889764,0,0,1.889764,0,406.299234)">
<stop offset="0" style="stop-color:rgb(0%,0%,0%);stop-opacity:0.2;"/>
<stop offset="1" style="stop-color:rgb(100%,100%,100%);stop-opacity:0;"/>
</linearGradient>
</defs>
<g id="surface1">
<path style=" stroke:none;fill-rule:nonzero;fill:rgb(93.333334%,93.333334%,93.333334%);fill-opacity:1;" d="M 16 1.996094 C 23.734375 1.996094 30.003906 8.265625 30.003906 16 C 30.003906 23.734375 23.734375 30 16 30 C 8.265625 30 1.996094 23.734375 1.996094 16 C 1.996094 8.265625 8.265625 1.996094 16 1.996094 Z M 16 1.996094 "/>
<path style=" stroke:none;fill-rule:nonzero;fill:rgb(100%,100%,100%);fill-opacity:0.6;" d="M 16 2 C 8.269531 2 2 8.269531 2 16 C 2 16.082031 2.003906 16.164062 2.003906 16.25 C 2.136719 8.632812 8.351562 2.5 16 2.5 C 23.648438 2.5 29.863281 8.632812 29.996094 16.25 C 29.996094 16.164062 30 16.082031 30 16 C 30 8.269531 23.730469 2 16 2 Z M 16 2 "/>
<path style=" stroke:none;fill-rule:nonzero;fill:rgb(0%,0%,0%);fill-opacity:0.4;" d="M 2.007812 15.746094 C 2.007812 15.828125 2 15.910156 2 15.996094 C 2 23.726562 8.269531 29.992188 16 29.992188 C 23.730469 29.992188 30 23.726562 30 15.996094 C 30 15.910156 29.992188 15.828125 29.992188 15.746094 C 29.859375 23.363281 23.648438 29.496094 16 29.496094 C 8.351562 29.496094 2.140625 23.363281 2.007812 15.746094 Z M 2.007812 15.746094 "/>
<path style=" stroke:none;fill-rule:nonzero;fill:rgb(0%,0%,0%);fill-opacity:0.2;" d="M 2.007812 16.375 C 2.003906 16.5 2 16.625 2 16.75 C 2 24.480469 8.269531 30.75 16 30.75 C 23.730469 30.75 30 24.480469 30 16.75 C 30 16.625 29.996094 16.5 29.992188 16.375 C 29.792969 23.933594 23.605469 30 16 30 C 8.394531 30 2.207031 23.933594 2.007812 16.375 Z M 2.007812 16.375 "/>
<path style=" stroke:none;fill-rule:nonzero;fill:rgb(36.078432%,41.960785%,75.294119%);fill-opacity:1;" d="M 16 8 C 12.675781 8 10 10.675781 10 14 L 10 15.097656 L 10.417969 15.375 L 16 19.097656 L 21.585938 15.375 L 22 15.101562 L 22 14 C 22 10.675781 19.324219 8 16 8 Z M 16 10 C 18.214844 10 20 11.785156 20 14 L 20 15 L 12 15 L 12 14 C 12 11.785156 13.785156 10 16 10 Z M 10 16.898438 L 10 22 L 22 22 L 22 16.898438 L 16.417969 20.625 C 16.164062 20.792969 15.835938 20.792969 15.582031 20.625 Z M 10 16.898438 "/>
<path style=" stroke:none;fill-rule:nonzero;fill:rgb(100%,100%,100%);fill-opacity:0.4;" d="M 16 8 C 12.675781 8 10 10.675781 10 14 L 10 14.5 C 10 11.175781 12.675781 8.5 16 8.5 C 19.324219 8.5 22 11.175781 22 14.5 L 22 14 C 22 10.675781 19.324219 8 16 8 Z M 12 15 L 12 15.5 L 20 15.5 L 20 15 Z M 10 16.898438 L 10 17.398438 L 15.582031 21.125 C 15.835938 21.292969 16.164062 21.292969 16.417969 21.125 L 22 17.398438 L 22 16.898438 L 16.417969 20.625 C 16.164062 20.792969 15.835938 20.792969 15.582031 20.625 Z M 10 16.898438 "/>
<path style=" stroke:none;fill-rule:nonzero;fill:rgb(0%,0%,0%);fill-opacity:0.4;" d="M 16 10 C 13.785156 10 12 11.785156 12 14 L 12 14.5 C 12 12.285156 13.785156 10.5 16 10.5 C 18.214844 10.5 20 12.285156 20 14.5 L 20 14 C 20 11.785156 18.214844 10 16 10 Z M 10 15.097656 L 10 15.597656 L 10.414062 15.875 L 16 19.597656 L 21.585938 15.875 L 22 15.601562 L 22 15.101562 L 21.585938 15.375 L 16 19.097656 L 10.414062 15.375 Z M 10 22 L 10 22.5 L 22 22.5 L 22 22 Z M 10 22 "/>
<path style=" stroke:none;fill-rule:nonzero;fill:url(#linear0);" d="M 16 2 C 23.730469 2 30 8.269531 30 16 C 30 23.730469 23.730469 30 16 30 C 8.269531 30 2 23.730469 2 16 C 2 8.269531 8.269531 2 16 2 Z M 16 2 "/>
</g>
</svg>
