
<svg xmlns="http://www.w3.org/2000/svg" xmlns:xlink="http://www.w3.org/1999/xlink" width="64" height="64" viewBox="0 0 64 64" version="1.1">
<defs>
<linearGradient id="linear0" gradientUnits="userSpaceOnUse" x1="31.999998" y1="60" x2="31.999998" y2="3.999999" >
<stop offset="0" style="stop-color:rgb(0%,0%,0%);stop-opacity:0.2;"/>
<stop offset="1" style="stop-color:rgb(100%,100%,100%);stop-opacity:0;"/>
</linearGradient>
</defs>
<g id="surface1">
<path style=" stroke:none;fill-rule:nonzero;fill:rgb(21.568628%,33.725491%,58.431375%);fill-opacity:1;" d="M 38 8 C 36.511719 8 35.222656 8.804688 34.53125 10 L 10 10 C 7.785156 10 6 11.785156 6 14 L 6 20 C 6 22.214844 7.785156 24 10 24 L 54 24 C 56.214844 24 58 22.214844 58 20 L 58 12 C 58 9.785156 56.214844 8 54 8 Z M 38 8 "/>
<path style=" stroke:none;fill-rule:nonzero;fill:rgb(100%,100%,100%);fill-opacity:0.4;" d="M 38 8 C 36.511719 8 35.222656 8.804688 34.53125 10 L 10 10 C 7.785156 10 6 11.785156 6 14 L 6 14.074219 C 6.210938 12.058594 7.90625 10.5 9.976562 10.5 L 34.511719 10.5 C 35.199219 9.304688 36.488281 8.5 37.976562 8.5 L 53.976562 8.5 C 56.191406 8.5 57.976562 10.285156 57.976562 12.5 L 57.976562 20.421875 C 57.992188 20.285156 58 20.144531 58 20 L 58 12 C 58 9.785156 56.214844 8 54 8 Z M 38 8 "/>
<path style=" stroke:none;fill-rule:nonzero;fill:rgb(23.529412%,43.137255%,70.588237%);fill-opacity:1;" d="M 8 12 C 5.785156 12 4 13.785156 4 16 L 4 52 C 4 54.214844 5.785156 56 8 56 L 56 56 C 58.214844 56 60 54.214844 60 52 L 60 20 C 60 17.785156 58.214844 16 56 16 L 38.050781 16 C 38.035156 16 38.015625 16 38 16 C 36.890625 16 36 15.109375 36 14 C 36 12.890625 35.109375 12 34 12 Z M 8 12 "/>
<path style=" stroke:none;fill-rule:nonzero;fill:rgb(100%,100%,100%);fill-opacity:0.4;" d="M 8 12 C 5.785156 12 4 13.785156 4 16 L 4 17 C 4 14.785156 5.785156 13 8 13 L 34 13 C 35.109375 13 36 13.890625 36 15 C 36 16.109375 36.890625 17 38 17 C 38.015625 17 38.035156 17 38.050781 17 L 56 17 C 58.214844 17 60 18.785156 60 21 L 60 20 C 60 17.785156 58.214844 16 56 16 L 38.050781 16 C 38.035156 16 38.015625 16 38 16 C 36.890625 16 36 15.109375 36 14 C 36 12.890625 35.109375 12 34 12 Z M 8 12 "/>
<path style=" stroke:none;fill-rule:nonzero;fill:rgb(0%,0%,0%);fill-opacity:0.4;" d="M 4 51 L 4 52 C 4 54.214844 5.785156 56 8 56 L 56 56 C 58.214844 56 60 54.214844 60 52 L 60 51 C 60 53.214844 58.214844 55 56 55 L 8 55 C 5.785156 55 4 53.214844 4 51 Z M 4 51 "/>
<path style=" stroke:none;fill-rule:nonzero;fill:rgb(0%,0%,0%);fill-opacity:0.2;" d="M 4 52 L 4 53.5 C 4 55.714844 5.785156 57.5 8 57.5 L 56 57.5 C 58.214844 57.5 60 55.714844 60 53.5 L 60 52 C 60 54.214844 58.214844 56 56 56 L 8 56 C 5.785156 56 4 54.214844 4 52 Z M 4 52 "/>
<path style=" stroke:none;fill-rule:nonzero;fill:rgb(63.529414%,70.980394%,86.666667%);fill-opacity:1;" d="M 32 24 C 27.644531 24 23.660156 25.53125 20.554688 28.085938 L 21.625 29.804688 C 24.417969 27.429688 28.035156 26 32 26 C 35.964844 26 39.582031 27.429688 42.371094 29.804688 L 43.445312 28.085938 C 40.339844 25.53125 36.355469 24 32 24 Z M 32 28 C 28.421875 28 25.171875 29.328125 22.699219 31.523438 L 23.777344 33.25 C 25.925781 31.234375 28.8125 30 32 30 C 35.1875 30 38.074219 31.234375 40.21875 33.25 L 41.296875 31.523438 C 38.828125 29.328125 35.578125 28 32 28 Z M 32 32 C 29.199219 32 26.675781 33.140625 24.863281 34.984375 L 25.964844 36.746094 C 27.429688 35.066406 29.585938 34 32 34 C 34.414062 34 36.570312 35.066406 38.03125 36.746094 L 39.132812 34.984375 C 37.324219 33.140625 34.800781 32 32 32 Z M 32 36 C 29.785156 36 28 37.785156 28 40 C 28 42.214844 29.785156 44 32 44 C 34.214844 44 36 42.214844 36 40 C 36 37.785156 34.214844 36 32 36 Z M 31.949219 38 C 31.964844 38 31.984375 38 32 38 C 33.109375 38 34 38.890625 34 40 C 34 41.109375 33.109375 42 32 42 C 30.890625 42 30 41.109375 30 40 C 30 38.910156 30.863281 38.027344 31.945312 38 Z M 31.949219 38 "/>
<path style=" stroke:none;fill-rule:nonzero;fill:rgb(100%,100%,100%);fill-opacity:0.4;" d="M 32 24 C 27.644531 24 23.660156 25.53125 20.554688 28.085938 L 20.761719 28.417969 C 23.835938 25.964844 27.742188 24.5 32 24.5 C 36.257812 24.5 40.164062 25.964844 43.238281 28.417969 L 43.445312 28.085938 C 40.339844 25.53125 36.355469 24 32 24 Z M 32 28 C 28.421875 28 25.171875 29.328125 22.699219 31.523438 L 22.902344 31.847656 C 25.347656 29.757812 28.519531 28.5 32 28.5 C 35.480469 28.5 38.652344 29.757812 41.09375 31.847656 L 41.296875 31.523438 C 38.828125 29.328125 35.578125 28 32 28 Z M 32 32 C 29.199219 32 26.675781 33.140625 24.863281 34.984375 L 25.058594 35.292969 C 26.855469 33.5625 29.296875 32.5 32 32.5 C 34.703125 32.5 37.144531 33.5625 38.941406 35.292969 L 39.136719 34.984375 C 37.324219 33.140625 34.800781 32 32 32 Z M 32 36 C 29.785156 36 28 37.785156 28 40 C 28 40.074219 28.007812 40.144531 28.011719 40.21875 C 28.15625 38.136719 29.878906 36.5 32 36.5 C 34.121094 36.5 35.84375 38.136719 35.988281 40.21875 C 35.992188 40.144531 36 40.074219 36 40 C 36 37.785156 34.214844 36 32 36 Z M 30.015625 40.246094 C 30.003906 40.328125 30 40.414062 30 40.5 C 30 41.609375 30.890625 42.5 32 42.5 C 33.109375 42.5 34 41.609375 34 40.5 C 34 40.414062 33.996094 40.328125 33.984375 40.246094 C 33.863281 41.238281 33.023438 42 32 42 C 30.976562 42 30.136719 41.238281 30.015625 40.246094 Z M 30.015625 40.246094 "/>
<path style=" stroke:none;fill-rule:nonzero;fill:rgb(0.784314%,0.784314%,0.784314%);fill-opacity:0.4;" d="M 32 26 C 28.035156 26 24.417969 27.429688 21.625 29.804688 L 20.761719 28.417969 C 20.691406 28.472656 20.625 28.53125 20.554688 28.585938 L 21.625 30.300781 C 24.417969 27.929688 28.035156 26.5 32 26.5 C 35.964844 26.5 39.582031 27.929688 42.371094 30.300781 L 43.445312 28.585938 C 43.375 28.527344 43.308594 28.472656 43.238281 28.417969 L 42.371094 29.804688 C 39.582031 27.429688 35.964844 26 32 26 Z M 32 30 C 28.8125 30 25.925781 31.234375 23.777344 33.25 L 22.90625 31.847656 C 22.835938 31.902344 22.769531 31.960938 22.703125 32.019531 L 23.78125 33.746094 C 25.925781 31.734375 28.8125 30.5 32 30.5 C 35.1875 30.5 38.074219 31.734375 40.222656 33.746094 L 41.300781 32.019531 C 41.230469 31.960938 41.164062 31.902344 41.097656 31.847656 L 40.222656 33.25 C 38.074219 31.234375 35.1875 30 32 30 Z M 32 34 C 29.585938 34 27.429688 35.066406 25.96875 36.746094 L 25.058594 35.292969 C 24.992188 35.355469 24.929688 35.417969 24.863281 35.484375 L 25.964844 37.246094 C 27.429688 35.566406 29.585938 34.5 32 34.5 C 34.414062 34.5 36.570312 35.566406 38.03125 37.246094 L 39.132812 35.484375 C 39.070312 35.417969 39.007812 35.355469 38.941406 35.292969 L 38.03125 36.746094 C 36.570312 35.066406 34.414062 34 32 34 Z M 31.949219 38 C 30.863281 38.027344 30 38.910156 30 40 C 30 40.085938 30.003906 40.167969 30.015625 40.246094 C 30.136719 39.277344 30.949219 38.523438 31.949219 38.5 C 31.964844 38.5 31.984375 38.5 32 38.5 C 33.023438 38.5 33.863281 39.261719 33.984375 40.25 C 33.996094 40.167969 34 40.085938 34 40 C 34 38.890625 33.109375 38 32 38 C 31.984375 38 31.964844 38 31.949219 38 Z M 28.011719 40.25 C 28.003906 40.332031 28 40.414062 28 40.5 C 28 42.714844 29.785156 44.5 32 44.5 C 34.214844 44.5 36 42.714844 36 40.5 C 36 40.414062 35.996094 40.332031 35.988281 40.25 C 35.863281 42.347656 34.132812 44 32 44 C 29.867188 44 28.136719 42.347656 28.007812 40.25 Z M 28.011719 40.25 "/>
<path style=" stroke:none;fill-rule:nonzero;fill:url(#linear0);" d="M 38 8 C 36.511719 8 35.222656 8.804688 34.53125 10 L 10 10 C 8.371094 10 6.976562 10.960938 6.351562 12.351562 C 4.960938 12.976562 4 14.371094 4 16 L 4 52 C 4 54.214844 5.785156 56 8 56 L 56 56 C 58.214844 56 60 54.214844 60 52 L 60 20 C 60 18.515625 59.195312 17.226562 58 16.535156 L 58 12 C 58 9.785156 56.214844 8 54 8 Z M 38 8 "/>
</g>
</svg>
