
<svg xmlns="http://www.w3.org/2000/svg" xmlns:xlink="http://www.w3.org/1999/xlink" width="16" height="16" viewBox="0 0 16 16" version="1.1">
<defs>
<linearGradient id="linear0" gradientUnits="userSpaceOnUse" x1="13.758332" y1="-206.53334" x2="3.175" y2="-206.53334" gradientTransform="matrix(0.000000000000000058,0.944882,-0.944882,0.000000000000000058,-187.149615,0.00000000000001146)">
<stop offset="0" style="stop-color:rgb(0%,0%,0%);stop-opacity:0.2;"/>
<stop offset="1" style="stop-color:rgb(100%,100%,100%);stop-opacity:0;"/>
</linearGradient>
</defs>
<g id="surface1">
<path style=" stroke:none;fill-rule:nonzero;fill:rgb(93.333334%,93.333334%,93.333334%);fill-opacity:0.996078;" d="M 15 4 L 15 12 C 15 12.550781 14.550781 13 14 13 L 2 13 C 1.449219 13 1 12.550781 1 12 L 1 4 C 1 3.449219 1.449219 3 2 3 L 14 3 C 14.550781 3 15 3.449219 15 4 Z M 15 4 "/>
<path style=" stroke:none;fill-rule:nonzero;fill:rgb(36.078432%,41.960785%,75.294119%);fill-opacity:0.996078;" d="M 2 3 C 1.445312 3 1 3.445312 1 4 L 1 5 L 15 5 L 15 4 C 15 3.445312 14.554688 3 14 3 Z M 2 3 "/>
<path style=" stroke:none;fill-rule:nonzero;fill:rgb(100%,100%,100%);fill-opacity:0.4;" d="M 2 3 C 1.445312 3 1 3.445312 1 4 L 1 4.25 C 1 3.695312 1.445312 3.25 2 3.25 L 14 3.25 C 14.554688 3.25 15 3.695312 15 4.25 L 15 4 C 15 3.445312 14.554688 3 14 3 Z M 2 3 "/>
<path style=" stroke:none;fill-rule:nonzero;fill:rgb(100%,65.490198%,14.901961%);fill-opacity:0.996078;" d="M 2 13 C 1.445312 13 1 12.554688 1 12 L 1 11 L 15 11 L 15 12 C 15 12.554688 14.554688 13 14 13 Z M 2 13 "/>
<path style=" stroke:none;fill-rule:nonzero;fill:rgb(0.392157%,0.392157%,0.392157%);fill-opacity:0.4;" d="M 2 13 C 1.445312 13 1 12.554688 1 12 L 1 11.75 C 1 12.304688 1.445312 12.75 2 12.75 L 14 12.75 C 14.554688 12.75 15 12.304688 15 11.75 L 15 12 C 15 12.554688 14.554688 13 14 13 Z M 2 13 "/>
<path style=" stroke:none;fill-rule:nonzero;fill:rgb(0.392157%,0.392157%,0.392157%);fill-opacity:0.2;" d="M 1 12 L 1 12.375 C 1 12.929688 1.445312 13.375 2 13.375 L 14 13.375 C 14.554688 13.375 15 12.929688 15 12.375 L 15 12 C 15 12.554688 14.554688 13 14 13 L 2 13 C 1.445312 13 1 12.554688 1 12 Z M 1 12 "/>
<path style=" stroke:none;fill-rule:nonzero;fill:rgb(100%,100%,100%);fill-opacity:0.4;" d="M 1 11 L 15 11 L 15 11.125 L 1 11.125 Z M 1 11 "/>
<path style=" stroke:none;fill-rule:nonzero;fill:rgb(0.784314%,0.784314%,0.784314%);fill-opacity:0.4;" d="M 1 5 L 15 5 L 15 5.125 L 1 5.125 Z M 1 5 "/>
<path style=" stroke:none;fill-rule:nonzero;fill:rgb(36.078432%,40.784314%,74.901962%);fill-opacity:1;" d="M 9.5 6.1875 C 8.601562 6.1875 7.964844 6.667969 7.960938 7.355469 C 7.953125 7.859375 8.414062 8.144531 8.761719 8.3125 C 9.113281 8.484375 9.234375 8.597656 9.234375 8.75 C 9.230469 8.988281 8.949219 9.097656 8.6875 9.097656 C 8.320312 9.097656 8.125 9.039062 7.828125 8.910156 L 7.710938 8.851562 L 7.582031 9.644531 C 7.796875 9.742188 8.191406 9.828125 8.601562 9.832031 C 9.558594 9.832031 10.179688 9.359375 10.1875 8.625 C 10.191406 8.226562 9.945312 7.917969 9.421875 7.664062 C 9.101562 7.503906 8.90625 7.394531 8.90625 7.230469 C 8.910156 7.078125 9.070312 6.925781 9.433594 6.925781 C 9.730469 6.917969 9.945312 6.988281 10.113281 7.0625 L 10.195312 7.097656 L 10.320312 6.335938 C 10.140625 6.265625 9.855469 6.1875 9.5 6.1875 Z M 5.335938 6.25 L 4.441406 8.65625 L 4.34375 8.167969 C 4.179688 7.605469 3.660156 6.992188 3.082031 6.691406 L 3.902344 9.777344 L 4.867188 9.777344 L 6.300781 6.25 Z M 6.667969 6.25 L 6.097656 9.777344 L 7.011719 9.777344 L 7.582031 6.25 Z M 11.953125 6.25 C 11.734375 6.25 11.570312 6.3125 11.476562 6.542969 L 10.121094 9.777344 L 11.078125 9.777344 C 11.078125 9.777344 11.234375 9.34375 11.269531 9.25 L 12.441406 9.25 C 12.46875 9.375 12.550781 9.777344 12.550781 9.777344 L 13.394531 9.777344 L 12.660156 6.25 Z M 12.015625 7.203125 L 12.078125 7.507812 C 12.078125 7.507812 12.253906 8.351562 12.289062 8.53125 L 11.53125 8.53125 C 11.605469 8.324219 11.894531 7.542969 11.894531 7.542969 C 11.890625 7.550781 11.972656 7.335938 12.015625 7.203125 Z M 12.015625 7.203125 "/>
<path style=" stroke:none;fill-rule:nonzero;fill:rgb(100%,65.098041%,13.725491%);fill-opacity:1;" d="M 3.613281 6.25 L 2.144531 6.25 L 2.128906 6.320312 C 3.273438 6.613281 4.035156 7.320312 4.34375 8.167969 L 4.027344 6.546875 C 3.972656 6.320312 3.8125 6.257812 3.613281 6.25 Z M 3.613281 6.25 "/>
<path style=" stroke:none;fill-rule:nonzero;fill:rgb(100%,100%,100%);fill-opacity:0.4;" d="M 9.5 6.1875 C 8.601562 6.1875 7.964844 6.667969 7.960938 7.355469 C 7.960938 7.375 7.960938 7.394531 7.964844 7.414062 C 8.003906 6.761719 8.628906 6.3125 9.5 6.3125 C 9.839844 6.3125 10.117188 6.386719 10.300781 6.453125 L 10.320312 6.335938 C 10.136719 6.265625 9.851562 6.1875 9.5 6.1875 Z M 2.144531 6.25 L 2.128906 6.320312 C 2.191406 6.339844 2.25 6.355469 2.308594 6.375 L 3.613281 6.375 C 3.8125 6.382812 3.972656 6.449219 4.027344 6.671875 L 4.34375 8.296875 L 4.441406 8.78125 L 5.335938 6.375 L 6.25 6.375 L 6.300781 6.25 L 5.335938 6.25 L 4.441406 8.65625 L 4.34375 8.171875 L 4.027344 6.546875 C 3.972656 6.324219 3.8125 6.257812 3.613281 6.25 Z M 6.667969 6.25 L 6.097656 9.78125 L 6.117188 9.78125 L 6.667969 6.375 L 7.5625 6.375 L 7.582031 6.25 Z M 11.953125 6.25 C 11.734375 6.25 11.566406 6.3125 11.476562 6.542969 L 10.121094 9.78125 L 10.171875 9.78125 L 11.476562 6.667969 C 11.566406 6.4375 11.734375 6.375 11.953125 6.375 L 12.65625 6.375 L 13.367188 9.78125 L 13.394531 9.78125 L 12.65625 6.25 Z M 8.917969 7.292969 C 8.910156 7.3125 8.90625 7.335938 8.90625 7.355469 C 8.90625 7.519531 9.101562 7.628906 9.421875 7.789062 C 9.914062 8.027344 10.15625 8.308594 10.183594 8.671875 C 10.183594 8.65625 10.1875 8.644531 10.1875 8.625 C 10.191406 8.226562 9.945312 7.917969 9.421875 7.664062 C 9.144531 7.527344 8.960938 7.425781 8.917969 7.292969 Z M 11.578125 8.53125 C 11.5625 8.570312 11.539062 8.628906 11.53125 8.65625 L 12.289062 8.65625 C 12.285156 8.632812 12.273438 8.570312 12.265625 8.53125 Z M 9.226562 8.8125 C 9.179688 9.007812 8.925781 9.097656 8.6875 9.097656 C 8.320312 9.097656 8.125 9.039062 7.828125 8.910156 L 7.710938 8.851562 L 7.582031 9.644531 C 7.585938 9.648438 7.59375 9.652344 7.601562 9.652344 L 7.710938 8.976562 L 7.828125 9.035156 C 8.125 9.164062 8.320312 9.222656 8.6875 9.222656 C 8.949219 9.222656 9.230469 9.113281 9.234375 8.875 C 9.234375 8.855469 9.230469 8.832031 9.226562 8.8125 Z M 9.226562 8.8125 "/>
<path style=" stroke:none;fill-rule:nonzero;fill:rgb(0%,0%,0%);fill-opacity:0.4;" d="M 2.144531 6.375 L 2.128906 6.445312 C 2.488281 6.539062 2.808594 6.671875 3.085938 6.835938 L 3.902344 9.902344 L 4.867188 9.902344 L 6.300781 6.375 L 6.25 6.375 L 4.867188 9.777344 L 3.902344 9.777344 L 3.085938 6.710938 C 2.855469 6.574219 2.597656 6.460938 2.3125 6.375 Z M 7.5625 6.375 L 7.011719 9.78125 L 6.117188 9.78125 L 6.097656 9.90625 L 7.011719 9.90625 L 7.582031 6.375 Z M 10.300781 6.453125 L 10.195312 7.097656 L 10.113281 7.0625 C 9.945312 6.988281 9.726562 6.917969 9.433594 6.925781 C 9.070312 6.925781 8.910156 7.082031 8.90625 7.230469 C 8.90625 7.253906 8.910156 7.273438 8.917969 7.296875 C 8.957031 7.167969 9.121094 7.050781 9.433594 7.050781 C 9.726562 7.042969 9.945312 7.113281 10.113281 7.1875 L 10.195312 7.222656 L 10.320312 6.460938 C 10.3125 6.460938 10.304688 6.457031 10.300781 6.453125 Z M 12.015625 7.203125 C 11.96875 7.335938 11.890625 7.550781 11.894531 7.542969 C 11.894531 7.542969 11.605469 8.324219 11.53125 8.53125 L 11.578125 8.53125 C 11.683594 8.242188 11.894531 7.667969 11.894531 7.667969 C 11.890625 7.675781 11.96875 7.460938 12.015625 7.328125 L 12.078125 7.632812 C 12.078125 7.632812 12.207031 8.25 12.265625 8.53125 L 12.289062 8.53125 C 12.253906 8.351562 12.078125 7.507812 12.078125 7.507812 Z M 7.964844 7.433594 C 7.964844 7.449219 7.960938 7.464844 7.960938 7.480469 C 7.953125 7.984375 8.414062 8.269531 8.761719 8.4375 C 9.0625 8.585938 9.195312 8.6875 9.226562 8.8125 C 9.230469 8.792969 9.234375 8.773438 9.234375 8.75 C 9.234375 8.597656 9.113281 8.484375 8.761719 8.3125 C 8.433594 8.152344 8.003906 7.890625 7.964844 7.433594 Z M 10.1875 8.6875 C 10.144531 9.386719 9.53125 9.832031 8.601562 9.832031 C 8.199219 9.828125 7.820312 9.746094 7.601562 9.652344 L 7.582031 9.769531 C 7.796875 9.867188 8.1875 9.953125 8.601562 9.957031 C 9.558594 9.957031 10.179688 9.484375 10.1875 8.75 C 10.1875 8.730469 10.1875 8.707031 10.1875 8.6875 Z M 11.269531 9.25 C 11.234375 9.34375 11.078125 9.78125 11.078125 9.78125 L 10.171875 9.78125 L 10.121094 9.90625 L 11.078125 9.90625 C 11.078125 9.90625 11.234375 9.46875 11.269531 9.375 L 12.441406 9.375 C 12.46875 9.5 12.546875 9.90625 12.546875 9.90625 L 13.394531 9.90625 L 13.367188 9.78125 L 12.546875 9.78125 C 12.550781 9.78125 12.46875 9.375 12.441406 9.25 Z M 11.269531 9.25 "/>
<path style=" stroke:none;fill-rule:nonzero;fill:url(#linear0);" d="M 15 4 L 15 12 C 15 12.550781 14.550781 13 14 13 L 2 13 C 1.449219 13 1 12.550781 1 12 L 1 4 C 1 3.449219 1.449219 3 2 3 L 14 3 C 14.550781 3 15 3.449219 15 4 Z M 15 4 "/>
</g>
</svg>
