
<svg xmlns="http://www.w3.org/2000/svg" xmlns:xlink="http://www.w3.org/1999/xlink" width="48" height="48" viewBox="0 0 48 48" version="1.1">
<defs>
<linearGradient id="linear0" gradientUnits="userSpaceOnUse" x1="8.466666" y1="-199.125" x2="8.466666" y2="-213.941666" gradientTransform="matrix(2.834646,0,0,2.834646,0,609.448851)">
<stop offset="0" style="stop-color:rgb(0%,0%,0%);stop-opacity:0.2;"/>
<stop offset="1" style="stop-color:rgb(100%,100%,100%);stop-opacity:0;"/>
</linearGradient>
</defs>
<g id="surface1">
<path style=" stroke:none;fill-rule:nonzero;fill:rgb(0%,0%,0%);fill-opacity:0.2;" d="M 3.007812 24.566406 C 3.003906 24.75 3 24.9375 3 25.125 C 3 36.722656 12.402344 46.125 24 46.125 C 35.597656 46.125 45 36.722656 45 25.125 C 45 24.9375 44.996094 24.75 44.992188 24.566406 C 44.695312 35.90625 35.410156 45.003906 24 45.003906 C 12.589844 45.003906 3.304688 35.90625 3.007812 24.566406 Z M 3.007812 24.566406 "/>
<path style=" stroke:none;fill-rule:nonzero;fill:rgb(87.843138%,87.843138%,87.843138%);fill-opacity:1;" d="M 24 3 C 35.597656 3 45 12.402344 45 24 C 45 35.597656 35.597656 44.996094 24 44.996094 C 12.402344 44.996094 3 35.597656 3 24 C 3 12.402344 12.402344 3 24 3 Z M 24 3 "/>
<path style=" stroke:none;fill-rule:nonzero;fill:rgb(100%,100%,100%);fill-opacity:0.6;" d="M 24 3 C 12.402344 3 3 12.402344 3 24 C 3 24.125 3.003906 24.25 3.007812 24.375 C 3.207031 12.949219 12.527344 3.75 24 3.75 C 35.472656 3.75 44.792969 12.949219 44.996094 24.375 C 44.996094 24.25 45 24.125 45 24 C 45 12.402344 35.597656 3 24 3 Z M 24 3 "/>
<path style=" stroke:none;fill-rule:nonzero;fill:rgb(0.392157%,0.392157%,0.392157%);fill-opacity:0.4;" d="M 24 45 C 12.402344 45 3 35.597656 3 24 C 3 23.875 3.003906 23.75 3.003906 23.625 C 3.207031 35.050781 12.527344 44.25 24 44.25 C 35.472656 44.25 44.792969 35.050781 44.996094 23.625 C 44.996094 23.75 45 23.875 45 24 C 45 35.597656 35.597656 45 24 45 Z M 24 45 "/>
<path style=" stroke:none;fill-rule:nonzero;fill:rgb(38.039216%,38.039216%,38.039216%);fill-opacity:0.996078;" d="M 16.5 21 C 14.839844 21 13.5 22.339844 13.5 24 C 13.5 25.660156 14.839844 27 16.5 27 C 18.160156 27 19.5 25.660156 19.5 24 C 19.5 22.339844 18.160156 21 16.5 21 Z M 24 21 C 22.339844 21 21 22.339844 21 24 C 21 25.660156 22.339844 27 24 27 C 25.660156 27 27 25.660156 27 24 C 27 22.339844 25.660156 21 24 21 Z M 31.5 21 C 29.839844 21 28.5 22.339844 28.5 24 C 28.5 25.660156 29.839844 27 31.5 27 C 33.160156 27 34.5 25.660156 34.5 24 C 34.5 22.339844 33.160156 21 31.5 21 Z M 31.5 21 "/>
<path style=" stroke:none;fill-rule:nonzero;fill:rgb(100%,100%,100%);fill-opacity:0.4;" d="M 16.5 21 C 14.839844 21 13.5 22.339844 13.5 24 C 13.5 24.054688 13.503906 24.109375 13.507812 24.164062 C 13.503906 24.234375 13.5 24.304688 13.5 24.375 C 13.5 24.429688 13.503906 24.484375 13.507812 24.539062 C 13.617188 22.976562 14.910156 21.75 16.5 21.75 C 18.089844 21.75 19.382812 22.976562 19.492188 24.539062 C 19.496094 24.484375 19.5 24.429688 19.5 24.375 C 19.5 24.304688 19.496094 24.234375 19.492188 24.164062 C 19.496094 24.109375 19.5 24.054688 19.5 24 C 19.5 22.339844 18.160156 21 16.5 21 Z M 24 21 C 22.339844 21 21 22.339844 21 24 C 21 24.054688 21.003906 24.109375 21.007812 24.164062 C 21.003906 24.234375 21 24.304688 21 24.375 C 21 24.429688 21.003906 24.484375 21.007812 24.539062 C 21.117188 22.976562 22.410156 21.75 24 21.75 C 25.589844 21.75 26.882812 22.976562 26.992188 24.539062 C 26.992188 24.484375 27 24.429688 27 24.375 C 27 24.304688 26.996094 24.234375 26.992188 24.164062 C 26.992188 24.109375 27 24.054688 27 24 C 27 22.339844 25.660156 21 24 21 Z M 31.5 21 C 29.839844 21 28.5 22.339844 28.5 24 C 28.5 24.054688 28.507812 24.109375 28.507812 24.164062 C 28.503906 24.234375 28.5 24.304688 28.5 24.375 C 28.5 24.429688 28.507812 24.484375 28.507812 24.539062 C 28.617188 22.976562 29.910156 21.75 31.5 21.75 C 33.089844 21.75 34.382812 22.976562 34.492188 24.539062 C 34.492188 24.484375 34.5 24.429688 34.5 24.375 C 34.5 24.304688 34.496094 24.234375 34.492188 24.164062 C 34.492188 24.109375 34.5 24.054688 34.5 24 C 34.5 22.339844 33.160156 21 31.5 21 Z M 15.699219 21.480469 C 15.671875 21.488281 15.640625 21.5 15.613281 21.507812 C 15.640625 21.5 15.671875 21.488281 15.699219 21.480469 Z M 17.300781 21.480469 C 17.328125 21.488281 17.359375 21.5 17.386719 21.507812 C 17.359375 21.5 17.328125 21.488281 17.300781 21.480469 Z M 23.199219 21.480469 C 23.171875 21.488281 23.140625 21.5 23.113281 21.507812 C 23.140625 21.5 23.171875 21.488281 23.199219 21.480469 Z M 24.800781 21.480469 C 24.828125 21.488281 24.859375 21.5 24.886719 21.507812 C 24.859375 21.5 24.828125 21.488281 24.800781 21.480469 Z M 30.699219 21.480469 C 30.671875 21.488281 30.640625 21.5 30.613281 21.507812 C 30.640625 21.5 30.671875 21.488281 30.699219 21.480469 Z M 32.300781 21.480469 C 32.328125 21.488281 32.359375 21.5 32.386719 21.507812 C 32.359375 21.5 32.328125 21.488281 32.300781 21.480469 Z M 14.585938 22.0625 C 14.554688 22.089844 14.523438 22.117188 14.496094 22.144531 C 14.523438 22.117188 14.554688 22.089844 14.585938 22.0625 Z M 18.414062 22.0625 C 18.445312 22.089844 18.476562 22.117188 18.503906 22.144531 C 18.476562 22.117188 18.445312 22.089844 18.414062 22.0625 Z M 22.085938 22.0625 C 22.054688 22.089844 22.023438 22.117188 21.996094 22.144531 C 22.023438 22.117188 22.054688 22.089844 22.085938 22.0625 Z M 25.914062 22.0625 C 25.945312 22.089844 25.976562 22.117188 26.003906 22.144531 C 25.976562 22.117188 25.945312 22.089844 25.914062 22.0625 Z M 29.585938 22.0625 C 29.554688 22.089844 29.523438 22.117188 29.496094 22.144531 C 29.523438 22.117188 29.554688 22.089844 29.585938 22.0625 Z M 33.414062 22.0625 C 33.445312 22.089844 33.476562 22.117188 33.503906 22.144531 C 33.476562 22.117188 33.445312 22.089844 33.414062 22.0625 Z M 14.472656 22.160156 C 14.445312 22.183594 14.417969 22.210938 14.390625 22.238281 C 14.417969 22.210938 14.445312 22.183594 14.472656 22.160156 Z M 18.527344 22.160156 C 18.554688 22.183594 18.582031 22.210938 18.609375 22.238281 C 18.582031 22.210938 18.554688 22.183594 18.527344 22.160156 Z M 21.972656 22.160156 C 21.945312 22.183594 21.917969 22.210938 21.890625 22.238281 C 21.917969 22.210938 21.945312 22.183594 21.972656 22.160156 Z M 26.027344 22.160156 C 26.054688 22.183594 26.082031 22.210938 26.109375 22.238281 C 26.082031 22.210938 26.054688 22.183594 26.027344 22.160156 Z M 29.472656 22.160156 C 29.445312 22.183594 29.417969 22.210938 29.390625 22.238281 C 29.417969 22.210938 29.445312 22.183594 29.472656 22.160156 Z M 33.527344 22.160156 C 33.554688 22.183594 33.582031 22.210938 33.609375 22.238281 C 33.582031 22.210938 33.554688 22.183594 33.527344 22.160156 Z M 14.183594 22.464844 C 14.167969 22.484375 14.152344 22.503906 14.136719 22.527344 C 14.152344 22.503906 14.167969 22.484375 14.183594 22.464844 Z M 18.816406 22.464844 C 18.832031 22.484375 18.847656 22.503906 18.863281 22.527344 C 18.847656 22.503906 18.832031 22.484375 18.816406 22.464844 Z M 21.683594 22.464844 C 21.667969 22.484375 21.652344 22.503906 21.636719 22.527344 C 21.652344 22.503906 21.667969 22.484375 21.683594 22.464844 Z M 26.316406 22.464844 C 26.332031 22.484375 26.347656 22.503906 26.363281 22.527344 C 26.347656 22.503906 26.332031 22.484375 26.316406 22.464844 Z M 29.183594 22.464844 C 29.167969 22.484375 29.152344 22.503906 29.136719 22.527344 C 29.152344 22.503906 29.167969 22.484375 29.183594 22.464844 Z M 33.816406 22.464844 C 33.832031 22.484375 33.847656 22.503906 33.863281 22.527344 C 33.847656 22.503906 33.832031 22.484375 33.816406 22.464844 Z M 33.816406 22.464844 "/>
<path style=" stroke:none;fill-rule:nonzero;fill:rgb(0%,0%,0%);fill-opacity:0.4;" d="M 13.507812 24.210938 C 13.503906 24.265625 13.5 24.320312 13.5 24.375 C 13.5 24.445312 13.503906 24.515625 13.507812 24.585938 C 13.503906 24.640625 13.5 24.695312 13.5 24.75 C 13.5 26.410156 14.839844 27.75 16.5 27.75 C 18.160156 27.75 19.5 26.410156 19.5 24.75 C 19.5 24.695312 19.496094 24.640625 19.492188 24.585938 C 19.496094 24.515625 19.5 24.445312 19.5 24.375 C 19.5 24.320312 19.496094 24.265625 19.492188 24.210938 C 19.382812 25.773438 18.089844 27 16.5 27 C 14.910156 27 13.617188 25.773438 13.507812 24.210938 Z M 21.007812 24.210938 C 21.003906 24.265625 21 24.320312 21 24.375 C 21 24.445312 21.003906 24.515625 21.007812 24.585938 C 21.003906 24.640625 21 24.695312 21 24.75 C 21 26.410156 22.339844 27.75 24 27.75 C 25.660156 27.75 27 26.410156 27 24.75 C 27 24.695312 26.992188 24.640625 26.992188 24.585938 C 26.996094 24.515625 27 24.445312 27 24.375 C 27 24.320312 26.992188 24.265625 26.992188 24.210938 C 26.882812 25.773438 25.589844 27 24 27 C 22.410156 27 21.117188 25.773438 21.007812 24.210938 Z M 28.507812 24.210938 C 28.507812 24.265625 28.5 24.320312 28.5 24.375 C 28.5 24.445312 28.503906 24.515625 28.507812 24.585938 C 28.507812 24.640625 28.5 24.695312 28.5 24.75 C 28.5 26.410156 29.839844 27.75 31.5 27.75 C 33.160156 27.75 34.5 26.410156 34.5 24.75 C 34.5 24.695312 34.492188 24.640625 34.492188 24.585938 C 34.496094 24.515625 34.5 24.445312 34.5 24.375 C 34.5 24.320312 34.492188 24.265625 34.492188 24.210938 C 34.382812 25.773438 33.089844 27 31.5 27 C 29.910156 27 28.617188 25.773438 28.507812 24.210938 Z M 14.136719 26.222656 C 14.152344 26.246094 14.167969 26.265625 14.183594 26.285156 C 14.167969 26.265625 14.152344 26.246094 14.136719 26.222656 Z M 18.863281 26.222656 C 18.847656 26.246094 18.832031 26.265625 18.816406 26.285156 C 18.832031 26.265625 18.847656 26.246094 18.863281 26.222656 Z M 21.636719 26.222656 C 21.652344 26.246094 21.667969 26.265625 21.683594 26.285156 C 21.667969 26.265625 21.652344 26.246094 21.636719 26.222656 Z M 26.363281 26.222656 C 26.347656 26.246094 26.332031 26.265625 26.316406 26.285156 C 26.332031 26.265625 26.347656 26.246094 26.363281 26.222656 Z M 29.136719 26.222656 C 29.152344 26.246094 29.167969 26.265625 29.183594 26.285156 C 29.167969 26.265625 29.152344 26.246094 29.136719 26.222656 Z M 33.863281 26.222656 C 33.847656 26.246094 33.832031 26.265625 33.816406 26.285156 C 33.832031 26.265625 33.847656 26.246094 33.863281 26.222656 Z M 14.390625 26.511719 C 14.417969 26.539062 14.445312 26.566406 14.472656 26.589844 C 14.445312 26.566406 14.417969 26.539062 14.390625 26.511719 Z M 18.609375 26.511719 C 18.582031 26.539062 18.554688 26.566406 18.527344 26.589844 C 18.554688 26.566406 18.582031 26.539062 18.609375 26.511719 Z M 21.890625 26.511719 C 21.917969 26.539062 21.945312 26.566406 21.972656 26.589844 C 21.945312 26.566406 21.917969 26.539062 21.890625 26.511719 Z M 26.109375 26.511719 C 26.082031 26.539062 26.054688 26.566406 26.027344 26.589844 C 26.054688 26.566406 26.082031 26.539062 26.109375 26.511719 Z M 29.390625 26.511719 C 29.417969 26.539062 29.445312 26.566406 29.472656 26.589844 C 29.445312 26.566406 29.417969 26.539062 29.390625 26.511719 Z M 33.609375 26.511719 C 33.582031 26.539062 33.554688 26.566406 33.527344 26.589844 C 33.554688 26.566406 33.582031 26.539062 33.609375 26.511719 Z M 14.496094 26.605469 C 14.523438 26.632812 14.554688 26.660156 14.585938 26.6875 C 14.554688 26.660156 14.523438 26.632812 14.496094 26.605469 Z M 18.503906 26.605469 C 18.476562 26.632812 18.445312 26.660156 18.414062 26.6875 C 18.445312 26.660156 18.476562 26.632812 18.503906 26.605469 Z M 21.996094 26.605469 C 22.023438 26.632812 22.054688 26.660156 22.085938 26.6875 C 22.054688 26.660156 22.023438 26.632812 21.996094 26.605469 Z M 26.003906 26.605469 C 25.976562 26.632812 25.945312 26.660156 25.914062 26.6875 C 25.945312 26.660156 25.976562 26.632812 26.003906 26.605469 Z M 29.496094 26.605469 C 29.523438 26.632812 29.554688 26.660156 29.585938 26.6875 C 29.554688 26.660156 29.523438 26.632812 29.496094 26.605469 Z M 33.503906 26.605469 C 33.476562 26.632812 33.445312 26.660156 33.414062 26.6875 C 33.445312 26.660156 33.476562 26.632812 33.503906 26.605469 Z M 15.613281 27.242188 C 15.640625 27.25 15.671875 27.261719 15.699219 27.269531 C 15.671875 27.261719 15.640625 27.25 15.613281 27.242188 Z M 17.386719 27.242188 C 17.359375 27.25 17.328125 27.261719 17.300781 27.269531 C 17.328125 27.261719 17.359375 27.25 17.386719 27.242188 Z M 23.113281 27.242188 C 23.140625 27.25 23.171875 27.261719 23.199219 27.269531 C 23.171875 27.261719 23.140625 27.25 23.113281 27.242188 Z M 24.886719 27.242188 C 24.859375 27.25 24.828125 27.261719 24.800781 27.269531 C 24.828125 27.261719 24.859375 27.25 24.886719 27.242188 Z M 30.613281 27.242188 C 30.640625 27.25 30.671875 27.261719 30.699219 27.269531 C 30.671875 27.261719 30.640625 27.25 30.613281 27.242188 Z M 32.386719 27.242188 C 32.359375 27.25 32.328125 27.261719 32.300781 27.269531 C 32.328125 27.261719 32.359375 27.25 32.386719 27.242188 Z M 16.207031 27.359375 C 16.300781 27.371094 16.402344 27.375 16.5 27.375 C 16.597656 27.375 16.699219 27.371094 16.792969 27.359375 C 16.699219 27.371094 16.597656 27.375 16.5 27.375 C 16.402344 27.375 16.300781 27.371094 16.207031 27.359375 Z M 23.707031 27.359375 C 23.800781 27.371094 23.902344 27.375 24 27.375 C 24.097656 27.375 24.199219 27.371094 24.292969 27.359375 C 24.199219 27.371094 24.097656 27.375 24 27.375 C 23.902344 27.375 23.800781 27.371094 23.707031 27.359375 Z M 31.207031 27.359375 C 31.300781 27.371094 31.402344 27.375 31.5 27.375 C 31.597656 27.375 31.699219 27.371094 31.792969 27.359375 C 31.699219 27.371094 31.597656 27.375 31.5 27.375 C 31.402344 27.375 31.300781 27.371094 31.207031 27.359375 Z M 31.207031 27.359375 "/>
<path style=" stroke:none;fill-rule:nonzero;fill:url(#linear0);" d="M 24 3 C 35.597656 3 45 12.402344 45 24 C 45 35.597656 35.597656 44.996094 24 44.996094 C 12.402344 44.996094 3 35.597656 3 24 C 3 12.402344 12.402344 3 24 3 Z M 24 3 "/>
</g>
</svg>
