
<svg xmlns="http://www.w3.org/2000/svg" xmlns:xlink="http://www.w3.org/1999/xlink" width="22" height="22" viewBox="0 0 22 22" version="1.1">
<defs>
<linearGradient id="linear0" gradientUnits="userSpaceOnUse" x1="31.999998" y1="60" x2="31.999998" y2="3.999999" gradientTransform="matrix(0.34375,0,0,0.34375,0,0.00000000000003908)">
<stop offset="0" style="stop-color:rgb(0%,0%,0%);stop-opacity:0.2;"/>
<stop offset="1" style="stop-color:rgb(100%,100%,100%);stop-opacity:0;"/>
</linearGradient>
</defs>
<g id="surface1">
<path style=" stroke:none;fill-rule:nonzero;fill:rgb(23.137255%,59.215689%,63.529414%);fill-opacity:1;" d="M 13.0625 2.75 C 12.550781 2.75 12.109375 3.027344 11.871094 3.4375 L 3.4375 3.4375 C 2.675781 3.4375 2.0625 4.050781 2.0625 4.8125 L 2.0625 6.875 C 2.0625 7.636719 2.675781 8.25 3.4375 8.25 L 18.5625 8.25 C 19.324219 8.25 19.9375 7.636719 19.9375 6.875 L 19.9375 4.125 C 19.9375 3.363281 19.324219 2.75 18.5625 2.75 Z M 13.0625 2.75 "/>
<path style=" stroke:none;fill-rule:nonzero;fill:rgb(100%,100%,100%);fill-opacity:0.4;" d="M 13.0625 2.75 C 12.550781 2.75 12.109375 3.027344 11.871094 3.4375 L 3.4375 3.4375 C 2.675781 3.4375 2.0625 4.050781 2.0625 4.8125 L 2.0625 4.839844 C 2.136719 4.144531 2.71875 3.609375 3.429688 3.609375 L 11.863281 3.609375 C 12.101562 3.199219 12.542969 2.921875 13.054688 2.921875 L 18.554688 2.921875 C 19.316406 2.921875 19.929688 3.535156 19.929688 4.296875 L 19.929688 7.019531 C 19.933594 6.972656 19.9375 6.925781 19.9375 6.875 L 19.9375 4.125 C 19.9375 3.363281 19.324219 2.75 18.5625 2.75 Z M 13.0625 2.75 "/>
<path style=" stroke:none;fill-rule:nonzero;fill:rgb(28.235295%,72.549021%,78.039217%);fill-opacity:1;" d="M 2.75 4.125 C 1.988281 4.125 1.375 4.738281 1.375 5.5 L 1.375 17.875 C 1.375 18.636719 1.988281 19.25 2.75 19.25 L 19.25 19.25 C 20.011719 19.25 20.625 18.636719 20.625 17.875 L 20.625 6.875 C 20.625 6.113281 20.011719 5.5 19.25 5.5 L 13.082031 5.5 C 13.074219 5.5 13.070312 5.5 13.0625 5.5 C 12.679688 5.5 12.375 5.195312 12.375 4.8125 C 12.375 4.429688 12.070312 4.125 11.6875 4.125 Z M 2.75 4.125 "/>
<path style=" stroke:none;fill-rule:nonzero;fill:rgb(100%,100%,100%);fill-opacity:0.4;" d="M 2.75 4.125 C 1.988281 4.125 1.375 4.738281 1.375 5.5 L 1.375 5.84375 C 1.375 5.082031 1.988281 4.46875 2.75 4.46875 L 11.6875 4.46875 C 12.070312 4.46875 12.375 4.773438 12.375 5.15625 C 12.375 5.539062 12.679688 5.84375 13.0625 5.84375 C 13.070312 5.84375 13.074219 5.84375 13.082031 5.84375 L 19.25 5.84375 C 20.011719 5.84375 20.625 6.457031 20.625 7.21875 L 20.625 6.875 C 20.625 6.113281 20.011719 5.5 19.25 5.5 L 13.082031 5.5 C 13.074219 5.5 13.070312 5.5 13.0625 5.5 C 12.679688 5.5 12.375 5.195312 12.375 4.8125 C 12.375 4.429688 12.070312 4.125 11.6875 4.125 Z M 2.75 4.125 "/>
<path style=" stroke:none;fill-rule:nonzero;fill:rgb(0%,0%,0%);fill-opacity:0.4;" d="M 1.375 17.53125 L 1.375 17.875 C 1.375 18.636719 1.988281 19.25 2.75 19.25 L 19.25 19.25 C 20.011719 19.25 20.625 18.636719 20.625 17.875 L 20.625 17.53125 C 20.625 18.292969 20.011719 18.90625 19.25 18.90625 L 2.75 18.90625 C 1.988281 18.90625 1.375 18.292969 1.375 17.53125 Z M 1.375 17.53125 "/>
<path style=" stroke:none;fill-rule:nonzero;fill:rgb(0%,0%,0%);fill-opacity:0.2;" d="M 1.375 17.875 L 1.375 18.390625 C 1.375 19.152344 1.988281 19.765625 2.75 19.765625 L 19.25 19.765625 C 20.011719 19.765625 20.625 19.152344 20.625 18.390625 L 20.625 17.875 C 20.625 18.636719 20.011719 19.25 19.25 19.25 L 2.75 19.25 C 1.988281 19.25 1.375 18.636719 1.375 17.875 Z M 1.375 17.875 "/>
<path style=" stroke:none;fill-rule:nonzero;fill:rgb(62.7451%,86.274511%,87.058824%);fill-opacity:1;" d="M 10.132812 8.25 C 10.039062 8.253906 9.96875 8.328125 9.96875 8.421875 L 9.96875 8.9375 L 9.625 8.9375 C 8.863281 8.9375 8.25 9.550781 8.25 10.3125 L 8.25 10.65625 C 8.25 11.417969 8.863281 12.03125 9.625 12.03125 L 11 12.03125 C 11.382812 12.03125 11.6875 12.339844 11.6875 12.71875 L 11.6875 13.0625 C 11.6875 13.445312 11.382812 13.75 11 13.75 L 9.625 13.75 C 9.242188 13.75 8.9375 13.445312 8.9375 13.0625 C 8.9375 12.96875 8.859375 12.890625 8.765625 12.890625 L 8.421875 12.890625 C 8.328125 12.890625 8.25 12.96875 8.25 13.0625 C 8.25 13.066406 8.25 13.070312 8.25 13.074219 C 8.253906 13.828125 8.867188 14.4375 9.625 14.4375 L 9.96875 14.4375 L 9.96875 14.953125 C 9.96875 15.046875 10.046875 15.125 10.140625 15.125 L 10.484375 15.125 C 10.578125 15.125 10.65625 15.046875 10.65625 14.953125 L 10.65625 14.4375 L 11 14.4375 C 11.761719 14.4375 12.375 13.824219 12.375 13.0625 L 12.375 12.71875 C 12.375 11.957031 11.761719 11.34375 11 11.34375 L 9.625 11.34375 C 9.242188 11.34375 8.9375 11.039062 8.9375 10.65625 L 8.9375 10.3125 C 8.9375 9.933594 9.242188 9.625 9.625 9.625 L 11 9.625 C 11.378906 9.625 11.683594 9.925781 11.6875 10.304688 C 11.6875 10.304688 11.6875 10.304688 11.6875 10.308594 C 11.6875 10.308594 11.6875 10.3125 11.6875 10.3125 C 11.6875 10.40625 11.765625 10.484375 11.859375 10.484375 L 12.203125 10.484375 C 12.296875 10.484375 12.375 10.40625 12.375 10.3125 C 12.375 9.550781 11.761719 8.9375 11 8.9375 L 10.65625 8.9375 L 10.65625 8.421875 C 10.65625 8.328125 10.578125 8.25 10.484375 8.25 L 10.140625 8.25 C 10.136719 8.25 10.136719 8.25 10.132812 8.25 Z M 12.539062 14.4375 C 12.445312 14.441406 12.375 14.515625 12.375 14.609375 L 12.375 14.953125 C 12.375 15.046875 12.453125 15.125 12.546875 15.125 L 13.578125 15.125 C 13.671875 15.125 13.75 15.046875 13.75 14.953125 L 13.75 14.609375 C 13.75 14.515625 13.671875 14.4375 13.578125 14.4375 L 12.546875 14.4375 C 12.542969 14.4375 12.542969 14.4375 12.539062 14.4375 Z M 12.539062 14.4375 "/>
<path style=" stroke:none;fill-rule:nonzero;fill:rgb(99.607843%,99.607843%,99.607843%);fill-opacity:0.4;" d="M 10.132812 8.25 C 10.039062 8.253906 9.96875 8.328125 9.96875 8.421875 L 9.96875 8.59375 C 9.96875 8.5 10.039062 8.425781 10.132812 8.421875 C 10.132812 8.421875 10.136719 8.421875 10.140625 8.421875 L 10.484375 8.421875 C 10.578125 8.421875 10.65625 8.5 10.65625 8.59375 L 10.65625 8.421875 C 10.65625 8.328125 10.578125 8.25 10.484375 8.25 L 10.140625 8.25 C 10.136719 8.25 10.132812 8.25 10.132812 8.25 Z M 9.625 8.9375 C 8.863281 8.9375 8.25 9.550781 8.25 10.3125 L 8.25 10.484375 C 8.25 9.722656 8.863281 9.109375 9.625 9.109375 L 9.96875 9.109375 L 9.96875 8.9375 Z M 10.65625 8.9375 L 10.65625 9.109375 L 11 9.109375 C 11.71875 9.109375 12.304688 9.65625 12.367188 10.355469 C 12.371094 10.34375 12.375 10.328125 12.375 10.3125 C 12.375 9.550781 11.761719 8.9375 11 8.9375 Z M 8.9375 10.65625 L 8.9375 10.828125 C 8.9375 11.210938 9.242188 11.515625 9.625 11.515625 L 11 11.515625 C 11.761719 11.515625 12.375 12.128906 12.375 12.890625 L 12.375 12.71875 C 12.375 11.957031 11.761719 11.34375 11 11.34375 L 9.625 11.34375 C 9.242188 11.34375 8.9375 11.039062 8.9375 10.65625 Z M 8.421875 12.890625 C 8.328125 12.890625 8.25 12.96875 8.25 13.0625 C 8.25 13.066406 8.25 13.070312 8.25 13.074219 C 8.25 13.113281 8.253906 13.148438 8.257812 13.1875 C 8.277344 13.117188 8.34375 13.0625 8.421875 13.0625 L 8.765625 13.0625 C 8.859375 13.0625 8.9375 13.140625 8.9375 13.234375 C 8.9375 13.617188 9.246094 13.921875 9.625 13.921875 L 11 13.921875 C 11.382812 13.921875 11.6875 13.617188 11.6875 13.234375 L 11.6875 13.0625 C 11.6875 13.445312 11.382812 13.75 11 13.75 L 9.625 13.75 C 9.246094 13.75 8.9375 13.445312 8.9375 13.0625 C 8.9375 12.96875 8.859375 12.890625 8.765625 12.890625 Z M 12.539062 14.4375 C 12.445312 14.441406 12.375 14.515625 12.375 14.609375 L 12.375 14.78125 C 12.375 14.6875 12.445312 14.613281 12.539062 14.609375 C 12.539062 14.609375 12.542969 14.609375 12.546875 14.609375 L 13.578125 14.609375 C 13.671875 14.609375 13.75 14.6875 13.75 14.78125 L 13.75 14.609375 C 13.75 14.515625 13.671875 14.4375 13.578125 14.4375 L 12.546875 14.4375 C 12.542969 14.4375 12.539062 14.4375 12.539062 14.4375 Z M 12.539062 14.4375 "/>
<path style=" stroke:none;fill-rule:nonzero;fill:rgb(0%,0%,0%);fill-opacity:0.4;" d="M 9.625 9.625 C 9.242188 9.625 8.9375 9.933594 8.9375 10.3125 L 8.9375 10.484375 C 8.9375 10.105469 9.242188 9.796875 9.625 9.796875 L 11 9.796875 C 11.378906 9.796875 11.683594 10.097656 11.6875 10.476562 C 11.6875 10.476562 11.6875 10.476562 11.6875 10.480469 C 11.6875 10.480469 11.6875 10.480469 11.6875 10.484375 C 11.6875 10.578125 11.765625 10.65625 11.859375 10.65625 L 12.203125 10.65625 C 12.296875 10.65625 12.375 10.578125 12.375 10.484375 C 12.375 10.441406 12.371094 10.402344 12.367188 10.359375 C 12.347656 10.429688 12.28125 10.484375 12.203125 10.484375 L 11.859375 10.484375 C 11.765625 10.484375 11.6875 10.40625 11.6875 10.3125 C 11.6875 10.308594 11.6875 10.308594 11.6875 10.308594 C 11.6875 10.304688 11.6875 10.304688 11.6875 10.304688 C 11.683594 9.925781 11.378906 9.625 11 9.625 Z M 8.25 10.65625 L 8.25 10.828125 C 8.25 11.589844 8.863281 12.203125 9.625 12.203125 L 11 12.203125 C 11.382812 12.203125 11.6875 12.511719 11.6875 12.890625 L 11.6875 12.71875 C 11.6875 12.339844 11.382812 12.03125 11 12.03125 L 9.625 12.03125 C 8.863281 12.03125 8.25 11.417969 8.25 10.65625 Z M 12.375 13.0625 C 12.375 13.824219 11.761719 14.4375 11 14.4375 L 10.65625 14.4375 L 10.65625 14.609375 L 11 14.609375 C 11.761719 14.609375 12.375 13.996094 12.375 13.234375 Z M 8.257812 13.1875 C 8.253906 13.203125 8.25 13.21875 8.25 13.234375 C 8.25 13.238281 8.25 13.242188 8.25 13.246094 C 8.253906 14 8.867188 14.609375 9.625 14.609375 L 9.96875 14.609375 L 9.96875 14.4375 L 9.625 14.4375 C 8.90625 14.4375 8.320312 13.890625 8.257812 13.1875 Z M 9.96875 14.953125 L 9.96875 15.125 C 9.96875 15.21875 10.046875 15.296875 10.140625 15.296875 L 10.484375 15.296875 C 10.578125 15.296875 10.65625 15.21875 10.65625 15.125 L 10.65625 14.953125 C 10.65625 15.046875 10.578125 15.125 10.484375 15.125 L 10.140625 15.125 C 10.046875 15.125 9.96875 15.046875 9.96875 14.953125 Z M 12.375 14.953125 L 12.375 15.125 C 12.375 15.21875 12.453125 15.296875 12.546875 15.296875 L 13.578125 15.296875 C 13.671875 15.296875 13.75 15.21875 13.75 15.125 L 13.75 14.953125 C 13.75 15.046875 13.671875 15.125 13.578125 15.125 L 12.546875 15.125 C 12.453125 15.125 12.375 15.046875 12.375 14.953125 Z M 12.375 14.953125 "/>
<path style=" stroke:none;fill-rule:nonzero;fill:url(#linear0);" d="M 13.0625 2.75 C 12.550781 2.75 12.109375 3.027344 11.871094 3.4375 L 3.4375 3.4375 C 2.878906 3.4375 2.398438 3.769531 2.183594 4.246094 C 1.707031 4.460938 1.375 4.941406 1.375 5.5 L 1.375 17.875 C 1.375 18.636719 1.988281 19.25 2.75 19.25 L 19.25 19.25 C 20.011719 19.25 20.625 18.636719 20.625 17.875 L 20.625 6.875 C 20.625 6.363281 20.347656 5.921875 19.9375 5.683594 L 19.9375 4.125 C 19.9375 3.363281 19.324219 2.75 18.5625 2.75 Z M 13.0625 2.75 "/>
</g>
</svg>
