
<svg xmlns="http://www.w3.org/2000/svg" xmlns:xlink="http://www.w3.org/1999/xlink" width="48" height="48" viewBox="0 0 48 48" version="1.1">
<defs>
<linearGradient id="linear0" gradientUnits="userSpaceOnUse" x1="34" y1="59.999996" x2="34" y2="4" gradientTransform="matrix(0.75,0,0,0.75,0,0.000000000000085265)">
<stop offset="0" style="stop-color:rgb(0%,0%,0%);stop-opacity:0.2;"/>
<stop offset="1" style="stop-color:rgb(100%,100%,100%);stop-opacity:0;"/>
</linearGradient>
</defs>
<g id="surface1">
<path style=" stroke:none;fill-rule:nonzero;fill:rgb(38.039216%,38.039216%,38.039216%);fill-opacity:0.996078;" d="M 21 3 C 16.015625 3 12 7.015625 12 12 L 12 37.5 C 12 38.332031 12.667969 39 13.5 39 L 16.5 39 C 17.332031 39 18 38.332031 18 37.5 L 18 28.5 L 30 28.5 L 30 37.5 C 30 38.332031 30.667969 39 31.5 39 L 34.5 39 C 35.332031 39 36 38.332031 36 37.5 L 36 12 C 36 7.015625 31.984375 3 27 3 Z M 22.5 9 L 25.5 9 C 27.992188 9 30 11.007812 30 13.5 L 30 22.5 L 18 22.5 L 18 13.5 C 18 11.007812 20.007812 9 22.5 9 Z M 22.5 9 "/>
<path style=" stroke:none;fill-rule:nonzero;fill:rgb(61.176473%,80.000001%,39.607844%);fill-opacity:1;" d="M 6 40.5 L 42 40.5 C 42.828125 40.5 43.5 41.171875 43.5 42 L 43.5 43.5 C 43.5 44.328125 42.828125 45 42 45 L 6 45 C 5.171875 45 4.5 44.328125 4.5 43.5 L 4.5 42 C 4.5 41.171875 5.171875 40.5 6 40.5 Z M 6 40.5 "/>
<path style=" stroke:none;fill-rule:nonzero;fill:rgb(100%,100%,100%);fill-opacity:0.4;" d="M 21 3 C 16.015625 3 12 7.015625 12 12 L 12 12.75 C 12 7.765625 16.015625 3.75 21 3.75 L 27 3.75 C 31.984375 3.75 36 7.765625 36 12.75 L 36 12 C 36 7.015625 31.984375 3 27 3 Z M 18 22.5 L 18 23.25 L 30 23.25 L 30 22.5 Z M 18 22.5 "/>
<path style=" stroke:none;fill-rule:nonzero;fill:rgb(0%,0%,0%);fill-opacity:0.4;" d="M 22.5 8.25 C 20.007812 8.25 18 10.257812 18 12.75 L 18 13.5 C 18 11.007812 20.007812 9 22.5 9 L 25.5 9 C 27.992188 9 30 11.007812 30 13.5 L 30 12.75 C 30 10.257812 27.992188 8.25 25.5 8.25 Z M 18 27.75 L 18 28.5 L 30 28.5 L 30 27.75 Z M 12 36.75 L 12 37.5 C 12 38.332031 12.667969 39 13.5 39 L 16.5 39 C 17.332031 39 18 38.332031 18 37.5 L 18 36.75 C 18 37.582031 17.332031 38.25 16.5 38.25 L 13.5 38.25 C 12.667969 38.25 12 37.582031 12 36.75 Z M 30 36.75 L 30 37.5 C 30 38.332031 30.667969 39 31.5 39 L 34.5 39 C 35.332031 39 36 38.332031 36 37.5 L 36 36.75 C 36 37.582031 35.332031 38.25 34.5 38.25 L 31.5 38.25 C 30.667969 38.25 30 37.582031 30 36.75 Z M 30 36.75 "/>
<path style=" stroke:none;fill-rule:nonzero;fill:rgb(100%,100%,100%);fill-opacity:0.4;" d="M 6 40.5 C 5.167969 40.5 4.5 41.167969 4.5 42 L 4.5 42.753906 C 4.5 41.921875 5.167969 41.253906 6 41.253906 L 42 41.253906 C 42.832031 41.253906 43.5 41.921875 43.5 42.753906 L 43.5 42 C 43.5 41.167969 42.832031 40.5 42 40.5 Z M 6 40.5 "/>
<path style=" stroke:none;fill-rule:nonzero;fill:rgb(0.392157%,0.392157%,0.392157%);fill-opacity:0.4;" d="M 6 44.980469 C 5.167969 44.980469 4.5 44.3125 4.5 43.480469 L 4.5 42.726562 C 4.5 43.558594 5.167969 44.226562 6 44.226562 L 42 44.226562 C 42.832031 44.226562 43.5 43.558594 43.5 42.726562 L 43.5 43.480469 C 43.5 44.3125 42.832031 44.980469 42 44.980469 Z M 6 44.980469 "/>
<path style=" stroke:none;fill-rule:nonzero;fill:url(#linear0);" d="M 21 3 C 16.015625 3 12 7.015625 12 12 L 12 37.5 C 12 38.332031 12.667969 39 13.5 39 L 16.5 39 C 17.332031 39 18 38.332031 18 37.5 L 18 28.5 L 30 28.5 L 30 37.5 C 30 38.332031 30.667969 39 31.5 39 L 34.5 39 C 35.332031 39 36 38.332031 36 37.5 L 36 12 C 36 7.015625 31.984375 3 27 3 Z M 22.5 9 L 25.5 9 C 27.992188 9 30 11.007812 30 13.5 L 30 22.5 L 18 22.5 L 18 13.5 C 18 11.007812 20.007812 9 22.5 9 Z M 6 40.5 C 5.167969 40.5 4.5 41.167969 4.5 42 L 4.5 43.5 C 4.5 44.332031 5.167969 45 6 45 L 42 45 C 42.832031 45 43.5 44.332031 43.5 43.5 L 43.5 42 C 43.5 41.167969 42.832031 40.5 42 40.5 Z M 6 40.5 "/>
<path style=" stroke:none;fill-rule:nonzero;fill:rgb(0%,0%,0%);fill-opacity:0.2;" d="M 22.5 8.949219 C 20.007812 8.949219 18 10.957031 18 13.449219 L 18 14.644531 C 18 12.152344 20.007812 10.144531 22.5 10.144531 L 25.5 10.144531 C 27.992188 10.144531 30 12.152344 30 14.644531 L 30 13.449219 C 30 10.957031 27.992188 8.949219 25.5 8.949219 Z M 18 28.449219 L 18 29.644531 L 30 29.644531 L 30 28.449219 Z M 12 37.449219 L 12 38.644531 C 12 39.476562 12.667969 40.144531 13.5 40.144531 L 16.5 40.144531 C 17.332031 40.144531 18 39.476562 18 38.644531 L 18 37.449219 C 18 38.28125 17.332031 38.949219 16.5 38.949219 L 13.5 38.949219 C 12.667969 38.949219 12 38.28125 12 37.449219 Z M 30 37.449219 L 30 38.644531 C 30 39.476562 30.667969 40.144531 31.5 40.144531 L 34.5 40.144531 C 35.332031 40.144531 36 39.476562 36 38.644531 L 36 37.449219 C 36 38.28125 35.332031 38.949219 34.5 38.949219 L 31.5 38.949219 C 30.667969 38.949219 30 38.28125 30 37.449219 Z M 4.5 43.449219 L 4.5 44.644531 C 4.5 45.476562 5.167969 46.144531 6 46.144531 L 42 46.144531 C 42.832031 46.144531 43.5 45.476562 43.5 44.644531 L 43.5 43.449219 C 43.5 44.28125 42.832031 44.949219 42 44.949219 L 6 44.949219 C 5.167969 44.949219 4.5 44.28125 4.5 43.449219 Z M 4.5 43.449219 "/>
</g>
</svg>
