
<svg xmlns="http://www.w3.org/2000/svg" xmlns:xlink="http://www.w3.org/1999/xlink" width="48" height="48" viewBox="0 0 48 48" version="1.1">
<defs>
<linearGradient id="linear0" gradientUnits="userSpaceOnUse" x1="32" y1="59.999996" x2="32" y2="4" gradientTransform="matrix(0.75,0,0,0.75,0.000000340157,0.000000000000085265)">
<stop offset="0" style="stop-color:rgb(0%,0%,0%);stop-opacity:0.2;"/>
<stop offset="1" style="stop-color:rgb(100%,100%,100%);stop-opacity:0;"/>
</linearGradient>
</defs>
<g id="surface1">
<path style=" stroke:none;fill-rule:nonzero;fill:rgb(100%,59.607846%,0%);fill-opacity:1;" d="M 10.5 6 L 37.5 6 C 39.15625 6 40.5 7.34375 40.5 9 L 40.5 42 C 40.5 43.65625 39.15625 45 37.5 45 L 10.5 45 C 8.84375 45 7.5 43.65625 7.5 42 L 7.5 9 C 7.5 7.34375 8.84375 6 10.5 6 Z M 10.5 6 "/>
<path style=" stroke:none;fill-rule:nonzero;fill:rgb(0%,0%,0%);fill-opacity:0.4;" d="M 10.667969 10.066406 L 37.332031 10.066406 C 38.253906 10.066406 39 10.738281 39 11.566406 L 39 42.371094 C 39 43.203125 38.253906 43.875 37.332031 43.875 L 10.667969 43.875 C 9.746094 43.875 9 43.203125 9 42.371094 L 9 11.566406 C 9 10.738281 9.746094 10.066406 10.667969 10.066406 Z M 10.667969 10.066406 "/>
<path style=" stroke:none;fill-rule:nonzero;fill:rgb(87.843138%,87.843138%,87.843138%);fill-opacity:0.996078;" d="M 10.5 7.5 L 37.5 7.5 C 38.328125 7.5 39 8.171875 39 9 L 39 42 C 39 42.828125 38.328125 43.5 37.5 43.5 L 10.5 43.5 C 9.671875 43.5 9 42.828125 9 42 L 9 9 C 9 8.171875 9.671875 7.5 10.5 7.5 Z M 10.5 7.5 "/>
<path style=" stroke:none;fill-rule:nonzero;fill:rgb(100%,100%,100%);fill-opacity:0.4;" d="M 10.5 6.007812 C 8.839844 6.007812 7.5 7.347656 7.5 9.007812 L 7.5 9.75 C 7.5 8.089844 8.839844 6.75 10.5 6.75 L 37.5 6.75 C 39.160156 6.75 40.5 8.089844 40.5 9.75 L 40.5 9.007812 C 40.5 7.347656 39.160156 6.007812 37.5 6.007812 Z M 10.5 6.007812 "/>
<path style=" stroke:none;fill-rule:nonzero;fill:rgb(74.117649%,74.117649%,74.117649%);fill-opacity:1;" d="M 18 3 L 30 3 C 30.828125 3 31.5 3.671875 31.5 4.5 L 31.5 7.5 C 31.5 8.328125 30.828125 9 30 9 L 18 9 C 17.171875 9 16.5 8.328125 16.5 7.5 L 16.5 4.5 C 16.5 3.671875 17.171875 3 18 3 Z M 18 3 "/>
<path style=" stroke:none;fill-rule:nonzero;fill:rgb(0.784314%,0.784314%,0.784314%);fill-opacity:0.4;" d="M 10.5 44.992188 C 8.839844 44.992188 7.5 43.652344 7.5 41.992188 L 7.5 41.25 C 7.5 42.910156 8.839844 44.25 10.5 44.25 L 37.5 44.25 C 39.160156 44.25 40.5 42.910156 40.5 41.25 L 40.5 41.992188 C 40.5 43.652344 39.160156 44.992188 37.5 44.992188 Z M 10.5 44.992188 "/>
<path style=" stroke:none;fill-rule:nonzero;fill:rgb(98.039216%,98.039216%,98.039216%);fill-opacity:0.996078;" d="M 39 36 L 31.5 43.5 L 37.5 43.5 C 38.332031 43.5 39 42.832031 39 42 Z M 39 36 "/>
<path style=" stroke:none;fill-rule:nonzero;fill:rgb(38.039216%,38.039216%,38.039216%);fill-opacity:0.996078;" d="M 23.25 18 L 33.75 18 C 34.164062 18 34.5 18.335938 34.5 18.75 C 34.5 19.164062 34.164062 19.5 33.75 19.5 L 23.25 19.5 C 22.835938 19.5 22.5 19.164062 22.5 18.75 C 22.5 18.335938 22.835938 18 23.25 18 Z M 23.25 18 "/>
<path style=" stroke:none;fill-rule:nonzero;fill:rgb(38.039216%,38.039216%,38.039216%);fill-opacity:0.996078;" d="M 12.75 24 L 27.75 24 C 28.164062 24 28.5 24.335938 28.5 24.75 C 28.5 25.164062 28.164062 25.5 27.75 25.5 L 12.75 25.5 C 12.335938 25.5 12 25.164062 12 24.75 C 12 24.335938 12.335938 24 12.75 24 Z M 12.75 24 "/>
<path style=" stroke:none;fill-rule:nonzero;fill:rgb(38.039216%,38.039216%,38.039216%);fill-opacity:0.996078;" d="M 18.75 33 L 30.75 33 C 31.164062 33 31.5 33.335938 31.5 33.75 C 31.5 34.164062 31.164062 34.5 30.75 34.5 L 18.75 34.5 C 18.335938 34.5 18 34.164062 18 33.75 C 18 33.335938 18.335938 33 18.75 33 Z M 18.75 33 "/>
<path style=" stroke:none;fill-rule:nonzero;fill:rgb(38.039216%,38.039216%,38.039216%);fill-opacity:0.996078;" d="M 26.25 27 L 33.75 27 C 34.164062 27 34.5 27.335938 34.5 27.75 C 34.5 28.164062 34.164062 28.5 33.75 28.5 L 26.25 28.5 C 25.835938 28.5 25.5 28.164062 25.5 27.75 C 25.5 27.335938 25.835938 27 26.25 27 Z M 26.25 27 "/>
<path style=" stroke:none;fill-rule:nonzero;fill:rgb(0%,0%,0%);fill-opacity:0.2;" d="M 7.5 42 L 7.5 43.125 C 7.5 44.785156 8.839844 46.125 10.5 46.125 L 37.5 46.125 C 39.160156 46.125 40.5 44.785156 40.5 43.125 L 40.5 42 C 40.5 43.660156 39.160156 45 37.5 45 L 10.5 45 C 8.839844 45 7.5 43.660156 7.5 42 Z M 7.5 42 "/>
<path style=" stroke:none;fill-rule:nonzero;fill:rgb(74.117649%,74.117649%,74.117649%);fill-opacity:1;" d="M 15 6 L 33 6 C 33.828125 6 34.5 6.671875 34.5 7.5 L 34.5 10.5 C 34.5 11.328125 33.828125 12 33 12 L 15 12 C 14.171875 12 13.5 11.328125 13.5 10.5 L 13.5 7.5 C 13.5 6.671875 14.171875 6 15 6 Z M 15 6 "/>
<path style=" stroke:none;fill-rule:nonzero;fill:rgb(61.960787%,61.960787%,61.960787%);fill-opacity:1;" d="M 16.5 4.875 L 31.5 4.875 L 31.5 6 L 16.5 6 Z M 16.5 4.875 "/>
<path style=" stroke:none;fill-rule:nonzero;fill:rgb(61.960787%,61.960787%,61.960787%);fill-opacity:1;" d="M 13.5 7.5 L 34.5 7.5 L 34.5 9 L 13.5 9 Z M 13.5 7.5 "/>
<path style=" stroke:none;fill-rule:nonzero;fill:rgb(61.960787%,61.960787%,61.960787%);fill-opacity:1;" d="M 13.5 9 L 34.5 9 L 34.5 10.5 L 13.5 10.5 Z M 13.5 9 "/>
<path style=" stroke:none;fill-rule:nonzero;fill:rgb(0%,0%,0%);fill-opacity:0.4;" d="M 13.5 10.125 L 34.5 10.125 L 34.5 10.5 L 13.5 10.5 Z M 13.5 10.125 "/>
<path style=" stroke:none;fill-rule:nonzero;fill:rgb(0%,0%,0%);fill-opacity:0.4;" d="M 16.5 4.875 L 31.5 4.875 L 31.5 5.25 L 16.5 5.25 Z M 16.5 4.875 "/>
<path style=" stroke:none;fill-rule:nonzero;fill:rgb(0%,0%,0%);fill-opacity:0.4;" d="M 13.5 10.5 L 13.5 11.25 C 13.5 12.082031 14.167969 12.75 15 12.75 L 33 12.75 C 33.832031 12.75 34.5 12.082031 34.5 11.25 L 34.5 10.5 C 34.5 11.332031 33.832031 12 33 12 L 15 12 C 14.167969 12 13.5 11.332031 13.5 10.5 Z M 13.5 10.5 "/>
<path style=" stroke:none;fill-rule:nonzero;fill:rgb(100%,100%,100%);fill-opacity:0.4;" d="M 18 3 C 17.167969 3 16.5 3.667969 16.5 4.5 L 16.5 5.25 C 16.5 4.417969 17.167969 3.75 18 3.75 L 30 3.75 C 30.832031 3.75 31.5 4.417969 31.5 5.25 L 31.5 4.5 C 31.5 3.667969 30.832031 3 30 3 Z M 18 3 "/>
<path style=" stroke:none;fill-rule:nonzero;fill:rgb(0.784314%,0.784314%,0.784314%);fill-opacity:0.4;" d="M 15.75 7.5 C 16.164062 7.5 16.5 7.835938 16.5 8.25 C 16.5 8.664062 16.164062 9 15.75 9 C 15.335938 9 15 8.664062 15 8.25 C 15 7.835938 15.335938 7.5 15.75 7.5 Z M 15.75 7.5 "/>
<path style=" stroke:none;fill-rule:nonzero;fill:rgb(0%,0%,0%);fill-opacity:0.4;" d="M 15.730469 7.5 C 15.324219 7.511719 15 7.839844 15 8.25 C 15 8.316406 15.007812 8.378906 15.023438 8.4375 C 15.105469 8.113281 15.398438 7.875 15.75 7.875 C 16.101562 7.875 16.394531 8.113281 16.476562 8.4375 C 16.492188 8.378906 16.5 8.316406 16.5 8.25 C 16.5 7.835938 16.164062 7.5 15.75 7.5 C 15.742188 7.5 15.738281 7.5 15.730469 7.5 Z M 15.730469 7.5 "/>
<path style=" stroke:none;fill-rule:nonzero;fill:rgb(100%,100%,100%);fill-opacity:0.4;" d="M 15.730469 9.375 C 15.324219 9.363281 15 9.035156 15 8.625 C 15 8.558594 15.007812 8.496094 15.023438 8.4375 C 15.105469 8.761719 15.398438 9 15.75 9 C 16.101562 9 16.394531 8.761719 16.476562 8.4375 C 16.492188 8.496094 16.5 8.558594 16.5 8.625 C 16.5 9.039062 16.164062 9.375 15.75 9.375 C 15.742188 9.375 15.738281 9.375 15.730469 9.375 Z M 15.730469 9.375 "/>
<path style=" stroke:none;fill-rule:nonzero;fill:rgb(0.784314%,0.784314%,0.784314%);fill-opacity:0.4;" d="M 24.023438 7.5 C 24.4375 7.5 24.773438 7.835938 24.773438 8.25 C 24.773438 8.664062 24.4375 9 24.023438 9 C 23.609375 9 23.273438 8.664062 23.273438 8.25 C 23.273438 7.835938 23.609375 7.5 24.023438 7.5 Z M 24.023438 7.5 "/>
<path style=" stroke:none;fill-rule:nonzero;fill:rgb(0%,0%,0%);fill-opacity:0.4;" d="M 24.003906 7.5 C 23.597656 7.511719 23.273438 7.839844 23.273438 8.25 C 23.273438 8.316406 23.28125 8.378906 23.296875 8.4375 C 23.378906 8.113281 23.671875 7.875 24.023438 7.875 C 24.375 7.875 24.667969 8.113281 24.75 8.4375 C 24.765625 8.378906 24.773438 8.316406 24.773438 8.25 C 24.773438 7.835938 24.4375 7.5 24.023438 7.5 C 24.015625 7.5 24.011719 7.5 24.003906 7.5 Z M 24.003906 7.5 "/>
<path style=" stroke:none;fill-rule:nonzero;fill:rgb(100%,100%,100%);fill-opacity:0.4;" d="M 24.003906 9.375 C 23.597656 9.363281 23.273438 9.035156 23.273438 8.625 C 23.273438 8.558594 23.28125 8.496094 23.296875 8.4375 C 23.378906 8.761719 23.671875 9 24.023438 9 C 24.375 9 24.667969 8.761719 24.75 8.4375 C 24.765625 8.496094 24.773438 8.558594 24.773438 8.625 C 24.773438 9.039062 24.4375 9.375 24.023438 9.375 C 24.015625 9.375 24.011719 9.375 24.003906 9.375 Z M 24.003906 9.375 "/>
<path style=" stroke:none;fill-rule:nonzero;fill:rgb(0.784314%,0.784314%,0.784314%);fill-opacity:0.4;" d="M 32.273438 7.5 C 32.6875 7.5 33.023438 7.835938 33.023438 8.25 C 33.023438 8.664062 32.6875 9 32.273438 9 C 31.859375 9 31.523438 8.664062 31.523438 8.25 C 31.523438 7.835938 31.859375 7.5 32.273438 7.5 Z M 32.273438 7.5 "/>
<path style=" stroke:none;fill-rule:nonzero;fill:rgb(0%,0%,0%);fill-opacity:0.4;" d="M 32.253906 7.5 C 31.847656 7.511719 31.523438 7.839844 31.523438 8.25 C 31.523438 8.316406 31.53125 8.378906 31.546875 8.4375 C 31.628906 8.113281 31.921875 7.875 32.273438 7.875 C 32.625 7.875 32.917969 8.113281 33 8.4375 C 33.015625 8.378906 33.023438 8.316406 33.023438 8.25 C 33.023438 7.835938 32.6875 7.5 32.273438 7.5 C 32.265625 7.5 32.261719 7.5 32.253906 7.5 Z M 32.253906 7.5 "/>
<path style=" stroke:none;fill-rule:nonzero;fill:rgb(100%,100%,100%);fill-opacity:0.4;" d="M 32.253906 9.375 C 31.847656 9.363281 31.523438 9.035156 31.523438 8.625 C 31.523438 8.558594 31.53125 8.496094 31.546875 8.4375 C 31.628906 8.761719 31.921875 9 32.273438 9 C 32.625 9 32.917969 8.761719 33 8.4375 C 33.015625 8.496094 33.023438 8.558594 33.023438 8.625 C 33.023438 9.039062 32.6875 9.375 32.273438 9.375 C 32.265625 9.375 32.261719 9.375 32.253906 9.375 Z M 32.253906 9.375 "/>
<path style=" stroke:none;fill-rule:nonzero;fill:rgb(38.039216%,38.039216%,38.039216%);fill-opacity:0.996078;" d="M 20.25 15 L 30.75 15 C 31.164062 15 31.5 15.335938 31.5 15.75 C 31.5 16.164062 31.164062 16.5 30.75 16.5 L 20.25 16.5 C 19.835938 16.5 19.5 16.164062 19.5 15.75 C 19.5 15.335938 19.835938 15 20.25 15 Z M 20.25 15 "/>
<path style=" stroke:none;fill-rule:nonzero;fill:rgb(38.039216%,38.039216%,38.039216%);fill-opacity:0.996078;" d="M 12.75 36 L 24.75 36 C 25.164062 36 25.5 36.335938 25.5 36.75 C 25.5 37.164062 25.164062 37.5 24.75 37.5 L 12.75 37.5 C 12.335938 37.5 12 37.164062 12 36.75 C 12 36.335938 12.335938 36 12.75 36 Z M 12.75 36 "/>
<path style=" stroke:none;fill-rule:nonzero;fill:url(#linear0);" d="M 18 3 C 17.167969 3 16.5 3.667969 16.5 4.5 L 16.5 6 L 10.5 6 C 8.839844 6 7.5 7.339844 7.5 9 L 7.5 42 C 7.5 43.660156 8.839844 45 10.5 45 L 37.5 45 C 39.160156 45 40.5 43.660156 40.5 42 L 40.5 9 C 40.5 7.339844 39.160156 6 37.5 6 L 31.5 6 L 31.5 4.5 C 31.5 3.667969 30.832031 3 30 3 Z M 18 3 "/>
</g>
</svg>
