
<svg xmlns="http://www.w3.org/2000/svg" xmlns:xlink="http://www.w3.org/1999/xlink" width="48" height="48" viewBox="0 0 48 48" version="1.1">
<defs>
<linearGradient id="linear0" gradientUnits="userSpaceOnUse" x1="31.999998" y1="57.999996" x2="31.999998" y2="8" gradientTransform="matrix(0.75,0,0,0.75,-0.000000510236,0.000000000000085265)">
<stop offset="0" style="stop-color:rgb(0%,0%,0%);stop-opacity:0.2;"/>
<stop offset="1" style="stop-color:rgb(100%,100%,100%);stop-opacity:0;"/>
</linearGradient>
</defs>
<g id="surface1">
<path style=" stroke:none;fill-rule:nonzero;fill:rgb(36.078432%,41.960785%,75.294119%);fill-opacity:1;" d="M 6 6 L 42 6 C 43.65625 6 45 7.34375 45 9 L 45 39 C 45 40.65625 43.65625 42 42 42 L 6 42 C 4.34375 42 3 40.65625 3 39 L 3 9 C 3 7.34375 4.34375 6 6 6 Z M 6 6 "/>
<path style=" stroke:none;fill-rule:nonzero;fill:rgb(25.882354%,64.705884%,96.078432%);fill-opacity:1;" d="M 3.390625 7.515625 L 24 24 L 4.054688 41.285156 C 3.410156 40.734375 3 39.917969 3 39 L 3 9 C 3 8.457031 3.144531 7.953125 3.390625 7.515625 Z M 3.390625 7.515625 "/>
<path style=" stroke:none;fill-rule:nonzero;fill:rgb(47.058824%,56.470591%,61.176473%);fill-opacity:1;" d="M 24 24 L 3.949219 41.1875 C 4.484375 41.691406 5.203125 42 6 42 L 42 42 C 42.796875 42 43.515625 41.691406 44.050781 41.1875 Z M 24 24 "/>
<path style=" stroke:none;fill-rule:nonzero;fill:rgb(92.54902%,25.098041%,47.843137%);fill-opacity:1;" d="M 44.605469 7.515625 L 24 24 L 43.945312 41.285156 C 44.589844 40.734375 45 39.917969 45 39 L 45 9 C 45 8.457031 44.855469 7.953125 44.605469 7.515625 Z M 44.605469 7.515625 "/>
<path style=" stroke:none;fill-rule:nonzero;fill:rgb(0.392157%,0.392157%,0.392157%);fill-opacity:0.4;" d="M 3 38.25 L 3 39 C 3 40.660156 4.339844 42 6 42 L 42 42 C 43.660156 42 45 40.660156 45 39 L 45 38.25 C 45 39.910156 43.660156 41.25 42 41.25 L 6 41.25 C 4.339844 41.25 3 39.910156 3 38.25 Z M 3 38.25 "/>
<path style=" stroke:none;fill-rule:nonzero;fill:rgb(87.843138%,87.843138%,87.843138%);fill-opacity:1;" d="M 7.5 36 L 40.5 36 C 41.328125 36 42 36.671875 42 37.5 L 42 42 C 42 42.828125 41.328125 43.5 40.5 43.5 L 7.5 43.5 C 6.671875 43.5 6 42.828125 6 42 L 6 37.5 C 6 36.671875 6.671875 36 7.5 36 Z M 7.5 36 "/>
<path style=" stroke:none;fill-rule:nonzero;fill:rgb(87.843138%,87.843138%,87.843138%);fill-opacity:1;" d="M 6 6 C 4.339844 6 3 7.339844 3 9 L 45 9 C 45 7.339844 43.660156 6 42 6 Z M 6 6 "/>
<path style=" stroke:none;fill-rule:nonzero;fill:rgb(0%,0%,0%);fill-opacity:0.4;" d="M 3 9 L 3 9.75 L 45 9.75 L 45 9 Z M 6 41.25 L 6 42 C 6 42.832031 6.667969 43.5 7.5 43.5 L 40.5 43.5 C 41.332031 43.5 42 42.832031 42 42 L 42 41.25 C 42 42.082031 41.332031 42.75 40.5 42.75 L 7.5 42.75 C 6.667969 42.75 6 42.082031 6 41.25 Z M 6 41.25 "/>
<path style=" stroke:none;fill-rule:nonzero;fill:rgb(100%,100%,100%);fill-opacity:0.8;" d="M 6 6 C 4.339844 6 3 7.339844 3 9 L 3.09375 9 C 3.417969 7.691406 4.589844 6.730469 6 6.730469 L 42 6.730469 C 43.410156 6.730469 44.582031 7.691406 44.90625 9 L 45 9 C 45 7.339844 43.660156 6 42 6 Z M 7.5 36 C 6.667969 36 6 36.667969 6 37.5 L 6 38.230469 C 6 37.398438 6.667969 36.730469 7.5 36.730469 L 40.5 36.730469 C 41.332031 36.730469 42 37.398438 42 38.230469 L 42 37.5 C 42 36.667969 41.332031 36 40.5 36 Z M 7.5 36 "/>
<path style=" stroke:none;fill-rule:nonzero;fill:rgb(0%,0%,0%);fill-opacity:0.2;" d="M 3 39 L 3 40.125 C 3 41.789062 4.339844 43.125 6 43.125 C 6 43.957031 6.667969 44.625 7.5 44.625 L 40.5 44.625 C 41.332031 44.625 42 43.957031 42 43.125 C 43.660156 43.125 45 41.789062 45 40.125 L 45 39 C 45 40.660156 43.660156 42 42 42 C 42 42.832031 41.332031 43.5 40.5 43.5 L 7.5 43.5 C 6.667969 43.5 6 42.832031 6 42 C 4.339844 42 3 40.660156 3 39 Z M 3 39 "/>
<path style=" stroke:none;fill-rule:nonzero;fill:rgb(93.333334%,93.333334%,93.333334%);fill-opacity:1;" d="M 24 16.5 C 19.84375 16.5 16.5 19.84375 16.5 24 C 16.5 28.15625 19.84375 31.5 24 31.5 C 28.15625 31.5 31.5 28.15625 31.5 24 C 31.5 19.84375 28.15625 16.5 24 16.5 Z M 24 18 C 27.324219 18 30 20.675781 30 24 C 30 27.324219 27.324219 30 24 30 C 20.675781 30 18 27.324219 18 24 C 18 20.675781 20.675781 18 24 18 Z M 24 19.5 C 21.507812 19.5 19.5 21.507812 19.5 24 C 19.5 26.492188 21.507812 28.5 24 28.5 C 26.492188 28.5 28.5 26.492188 28.5 24 C 28.5 21.507812 26.492188 19.5 24 19.5 Z M 24 21 L 24 22.5 C 23.988281 22.5 23.972656 22.5 23.960938 22.5 C 23.148438 22.519531 22.5 23.183594 22.5 24 L 21 24 C 21 22.339844 22.339844 21 24 21 Z M 24 21 "/>
<path style=" stroke:none;fill-rule:nonzero;fill:rgb(0.784314%,0.784314%,0.784314%);fill-opacity:0.4;" d="M 24 18 C 20.675781 18 18 20.675781 18 24 C 18 24.128906 18.003906 24.257812 18.011719 24.386719 C 18.210938 21.246094 20.804688 18.773438 24 18.773438 C 27.195312 18.773438 29.789062 21.246094 29.988281 24.386719 C 29.996094 24.257812 30 24.128906 30 24 C 30 20.675781 27.324219 18 24 18 Z M 24 21 C 22.339844 21 21 22.339844 21 24 L 21.101562 24 C 21.4375 22.714844 22.605469 21.773438 24 21.773438 Z M 16.511719 24.386719 C 16.503906 24.515625 16.5 24.644531 16.5 24.773438 C 16.5 28.929688 19.84375 32.273438 24 32.273438 C 28.15625 32.273438 31.5 28.929688 31.5 24.773438 C 31.5 24.644531 31.496094 24.515625 31.488281 24.386719 C 31.289062 28.359375 28.023438 31.5 24 31.5 C 19.976562 31.5 16.710938 28.359375 16.511719 24.386719 Z M 19.515625 24.386719 C 19.503906 24.515625 19.5 24.644531 19.5 24.773438 C 19.5 27.265625 21.507812 29.273438 24 29.273438 C 26.492188 29.273438 28.5 27.265625 28.5 24.773438 C 28.5 24.644531 28.496094 24.515625 28.484375 24.386719 C 28.289062 26.699219 26.363281 28.5 24 28.5 C 21.636719 28.5 19.710938 26.699219 19.515625 24.386719 Z M 19.515625 24.386719 "/>
<path style=" stroke:none;fill-rule:nonzero;fill:rgb(100%,100%,100%);fill-opacity:0.8;" d="M 24 16.5 C 19.84375 16.5 16.5 19.84375 16.5 24 C 16.5 24.121094 16.503906 24.238281 16.507812 24.359375 C 16.695312 20.371094 19.964844 17.214844 24 17.214844 C 28.035156 17.214844 31.304688 20.371094 31.492188 24.359375 C 31.496094 24.238281 31.5 24.121094 31.5 24 C 31.5 19.84375 28.15625 16.5 24 16.5 Z M 24 19.5 C 21.507812 19.5 19.5 21.507812 19.5 24 C 19.5 24.121094 19.503906 24.238281 19.515625 24.359375 C 19.695312 22.03125 21.628906 20.214844 24 20.214844 C 26.371094 20.214844 28.304688 22.03125 28.484375 24.359375 C 28.496094 24.238281 28.5 24.121094 28.5 24 C 28.5 21.507812 26.492188 19.5 24 19.5 Z M 23.960938 22.5 C 23.148438 22.519531 22.5 23.183594 22.5 24 L 21.085938 24 C 21.03125 24.230469 21 24.46875 21 24.714844 L 22.5 24.714844 C 22.5 23.898438 23.148438 23.234375 23.960938 23.214844 C 23.972656 23.214844 23.988281 23.214844 24 23.214844 L 24 22.5 C 23.988281 22.5 23.972656 22.5 23.960938 22.5 Z M 18.011719 24.359375 C 18.003906 24.476562 18 24.59375 18 24.714844 C 18 28.039062 20.675781 30.714844 24 30.714844 C 27.324219 30.714844 30 28.039062 30 24.714844 C 30 24.59375 29.996094 24.476562 29.988281 24.359375 C 29.804688 27.511719 27.203125 30 24 30 C 20.796875 30 18.195312 27.511719 18.011719 24.359375 Z M 18.011719 24.359375 "/>
<path style=" stroke:none;fill-rule:nonzero;fill:url(#linear0);" d="M 6 6 C 4.339844 6 3 7.339844 3 9 L 3 39 C 3 40.660156 4.339844 42 6 42 C 6 42.832031 6.667969 43.5 7.5 43.5 L 40.5 43.5 C 41.332031 43.5 42 42.832031 42 42 C 43.660156 42 45 40.660156 45 39 L 45 9 C 45 7.339844 43.660156 6 42 6 Z M 6 6 "/>
</g>
</svg>
