
<svg xmlns="http://www.w3.org/2000/svg" xmlns:xlink="http://www.w3.org/1999/xlink" width="22" height="22" viewBox="0 0 22 22" version="1.1">
<defs>
<linearGradient id="linear0" gradientUnits="userSpaceOnUse" x1="8.466666" y1="-199.125" x2="8.466666" y2="-213.941666" gradientTransform="matrix(1.299213,0,0,1.299213,-0.00000434109,279.330723)">
<stop offset="0" style="stop-color:rgb(0%,0%,0%);stop-opacity:0.2;"/>
<stop offset="1" style="stop-color:rgb(100%,100%,100%);stop-opacity:0;"/>
</linearGradient>
</defs>
<g id="surface1">
<path style=" stroke:none;fill-rule:nonzero;fill:rgb(40.000001%,73.333335%,41.568628%);fill-opacity:1;" d="M 2.75 1.375 L 19.25 1.375 C 20.011719 1.375 20.625 1.992188 20.625 2.75 L 20.625 19.25 C 20.625 20.007812 20.011719 20.625 19.25 20.625 L 2.75 20.625 C 1.992188 20.625 1.375 20.007812 1.375 19.25 L 1.375 2.75 C 1.375 1.992188 1.992188 1.375 2.75 1.375 Z M 2.75 1.375 "/>
<path style=" stroke:none;fill-rule:nonzero;fill:rgb(0%,0%,0%);fill-opacity:0.4;" d="M 1.375 18.90625 L 1.375 19.25 C 1.375 20.011719 1.988281 20.625 2.75 20.625 L 19.25 20.625 C 20.011719 20.625 20.625 20.011719 20.625 19.25 L 20.625 18.90625 C 20.625 19.667969 20.011719 20.28125 19.25 20.28125 L 2.75 20.28125 C 1.988281 20.28125 1.375 19.667969 1.375 18.90625 Z M 1.375 18.90625 "/>
<path style=" stroke:none;fill-rule:nonzero;fill:rgb(0%,0%,0%);fill-opacity:0.2;" d="M 1.375 19.25 L 1.375 19.765625 C 1.375 20.527344 1.988281 21.140625 2.75 21.140625 L 19.25 21.140625 C 20.011719 21.140625 20.625 20.527344 20.625 19.765625 L 20.625 19.25 C 20.625 20.011719 20.011719 20.625 19.25 20.625 L 2.75 20.625 C 1.988281 20.625 1.375 20.011719 1.375 19.25 Z M 1.375 19.25 "/>
<path style=" stroke:none;fill-rule:nonzero;fill:rgb(100%,100%,100%);fill-opacity:0.4;" d="M 2.75 1.375 C 1.988281 1.375 1.375 1.988281 1.375 2.75 L 1.375 3.089844 C 1.375 2.328125 1.988281 1.714844 2.75 1.714844 L 19.25 1.714844 C 20.011719 1.714844 20.625 2.328125 20.625 3.089844 L 20.625 2.75 C 20.625 1.988281 20.011719 1.375 19.25 1.375 Z M 2.75 1.375 "/>
<path style=" stroke:none;fill-rule:nonzero;fill:rgb(93.333334%,93.333334%,93.333334%);fill-opacity:1;" d="M 4.125 7.5625 L 4.125 6.1875 C 4.125 5.808594 4.433594 5.5 4.8125 5.5 L 13.0625 5.5 C 13.441406 5.5 13.75 5.808594 13.75 6.1875 L 13.75 7.5625 C 13.75 7.941406 13.441406 8.25 13.0625 8.25 L 4.8125 8.25 C 4.433594 8.25 4.125 7.941406 4.125 7.5625 Z M 4.125 7.5625 "/>
<path style=" stroke:none;fill-rule:nonzero;fill:rgb(93.333334%,93.333334%,93.333334%);fill-opacity:1;" d="M 4.125 15.8125 L 4.125 14.4375 C 4.125 14.058594 4.433594 13.75 4.8125 13.75 L 13.0625 13.75 C 13.441406 13.75 13.75 14.058594 13.75 14.4375 L 13.75 15.8125 C 13.75 16.191406 13.441406 16.5 13.0625 16.5 L 4.8125 16.5 C 4.433594 16.5 4.125 16.191406 4.125 15.8125 Z M 4.125 15.8125 "/>
<path style=" stroke:none;fill-rule:nonzero;fill:rgb(100%,100%,100%);fill-opacity:0.6;" d="M 4.8125 5.5 C 4.429688 5.5 4.125 5.804688 4.125 6.1875 L 4.125 6.53125 C 4.125 6.148438 4.429688 5.84375 4.8125 5.84375 L 13.0625 5.84375 C 13.445312 5.84375 13.75 6.148438 13.75 6.53125 L 13.75 6.1875 C 13.75 5.804688 13.445312 5.5 13.0625 5.5 Z M 4.8125 5.5 "/>
<path style=" stroke:none;fill-rule:nonzero;fill:rgb(0.784314%,0.784314%,0.784314%);fill-opacity:0.4;" d="M 4.8125 8.59375 C 4.429688 8.59375 4.125 8.289062 4.125 7.90625 L 4.125 7.5625 C 4.125 7.945312 4.429688 8.25 4.8125 8.25 L 13.0625 8.25 C 13.445312 8.25 13.75 7.945312 13.75 7.5625 L 13.75 7.90625 C 13.75 8.289062 13.445312 8.59375 13.0625 8.59375 Z M 4.8125 8.59375 "/>
<path style=" stroke:none;fill-rule:nonzero;fill:rgb(100%,100%,100%);fill-opacity:0.6;" d="M 4.8125 13.75 C 4.429688 13.75 4.125 14.054688 4.125 14.4375 L 4.125 14.78125 C 4.125 14.398438 4.429688 14.09375 4.8125 14.09375 L 13.0625 14.09375 C 13.445312 14.09375 13.75 14.398438 13.75 14.78125 L 13.75 14.4375 C 13.75 14.054688 13.445312 13.75 13.0625 13.75 Z M 4.8125 13.75 "/>
<path style=" stroke:none;fill-rule:nonzero;fill:rgb(0.784314%,0.784314%,0.784314%);fill-opacity:0.4;" d="M 4.8125 16.84375 C 4.429688 16.84375 4.125 16.539062 4.125 16.15625 L 4.125 15.8125 C 4.125 16.195312 4.429688 16.5 4.8125 16.5 L 13.0625 16.5 C 13.445312 16.5 13.75 16.195312 13.75 15.8125 L 13.75 16.15625 C 13.75 16.539062 13.445312 16.84375 13.0625 16.84375 Z M 4.8125 16.84375 "/>
<path style=" stroke:none;fill-rule:nonzero;fill:rgb(93.333334%,93.333334%,93.333334%);fill-opacity:1;" d="M 8.9375 11.6875 L 8.9375 10.3125 C 8.9375 9.933594 9.246094 9.625 9.625 9.625 L 17.1875 9.625 C 17.566406 9.625 17.875 9.933594 17.875 10.3125 L 17.875 11.6875 C 17.875 12.066406 17.566406 12.375 17.1875 12.375 L 9.625 12.375 C 9.246094 12.375 8.9375 12.066406 8.9375 11.6875 Z M 8.9375 11.6875 "/>
<path style=" stroke:none;fill-rule:nonzero;fill:rgb(100%,100%,100%);fill-opacity:0.6;" d="M 9.625 9.625 C 9.242188 9.625 8.9375 9.929688 8.9375 10.3125 L 8.9375 10.65625 C 8.9375 10.273438 9.242188 9.96875 9.625 9.96875 L 17.1875 9.96875 C 17.570312 9.96875 17.875 10.273438 17.875 10.65625 L 17.875 10.3125 C 17.875 9.929688 17.570312 9.625 17.1875 9.625 Z M 9.625 9.625 "/>
<path style=" stroke:none;fill-rule:nonzero;fill:rgb(0.784314%,0.784314%,0.784314%);fill-opacity:0.4;" d="M 9.625 12.71875 C 9.242188 12.71875 8.9375 12.414062 8.9375 12.03125 L 8.9375 11.6875 C 8.9375 12.070312 9.242188 12.375 9.625 12.375 L 17.1875 12.375 C 17.570312 12.375 17.875 12.070312 17.875 11.6875 L 17.875 12.03125 C 17.875 12.414062 17.570312 12.71875 17.1875 12.71875 Z M 9.625 12.71875 "/>
<path style=" stroke:none;fill-rule:nonzero;fill:url(#linear0);" d="M 2.75 1.375 L 19.25 1.375 C 20.007812 1.375 20.625 1.992188 20.625 2.75 L 20.625 19.25 C 20.625 20.007812 20.007812 20.625 19.25 20.625 L 2.75 20.625 C 1.992188 20.625 1.375 20.007812 1.375 19.25 L 1.375 2.75 C 1.375 1.992188 1.992188 1.375 2.75 1.375 Z M 2.75 1.375 "/>
</g>
</svg>
