
<svg xmlns="http://www.w3.org/2000/svg" xmlns:xlink="http://www.w3.org/1999/xlink" width="22" height="22" viewBox="0 0 22 22" version="1.1">
<defs>
<linearGradient id="linear0" gradientUnits="userSpaceOnUse" x1="31.999998" y1="60" x2="31.999998" y2="4" gradientTransform="matrix(0.34375,0,0,0.34375,0,0.00000000000003908)">
<stop offset="0" style="stop-color:rgb(0%,0%,0%);stop-opacity:0.2;"/>
<stop offset="1" style="stop-color:rgb(100%,100%,100%);stop-opacity:0;"/>
</linearGradient>
</defs>
<g id="surface1">
<path style=" stroke:none;fill-rule:nonzero;fill:rgb(47.058824%,56.470591%,61.176473%);fill-opacity:1;" d="M 13.75 1.375 L 4.46875 1.375 C 3.898438 1.375 3.4375 1.835938 3.4375 2.40625 L 3.4375 19.59375 C 3.4375 20.164062 3.898438 20.625 4.46875 20.625 L 17.53125 20.625 C 18.101562 20.625 18.5625 20.164062 18.5625 19.59375 L 18.5625 6.1875 Z M 13.75 1.375 "/>
<path style=" stroke:none;fill-rule:nonzero;fill:rgb(0%,0%,0%);fill-opacity:0.4;" d="M 13.75 5.15625 L 13.75 5.5 C 13.75 6.070312 14.210938 6.53125 14.78125 6.53125 L 18.5625 6.53125 L 18.21875 6.1875 L 14.78125 6.1875 C 14.210938 6.1875 13.75 5.726562 13.75 5.15625 Z M 13.75 5.15625 "/>
<path style=" stroke:none;fill-rule:nonzero;fill:rgb(56.470591%,64.313728%,68.235296%);fill-opacity:0.996078;" d="M 18.5625 6.1875 L 13.75 1.375 L 13.75 5.15625 C 13.75 5.726562 14.210938 6.1875 14.78125 6.1875 Z M 18.5625 6.1875 "/>
<path style=" stroke:none;fill-rule:nonzero;fill:rgb(100%,100%,100%);fill-opacity:0.4;" d="M 4.46875 1.375 C 3.898438 1.375 3.4375 1.835938 3.4375 2.40625 L 3.4375 2.75 C 3.4375 2.179688 3.898438 1.71875 4.46875 1.71875 L 13.75 1.71875 L 18.5625 6.53125 L 18.5625 6.1875 L 13.75 1.375 Z M 4.46875 1.375 "/>
<path style=" stroke:none;fill-rule:nonzero;fill:rgb(0%,0%,0%);fill-opacity:0.2;" d="M 3.4375 19.589844 L 3.4375 20.109375 C 3.4375 20.679688 3.898438 21.140625 4.46875 21.140625 L 17.53125 21.140625 C 18.101562 21.140625 18.5625 20.679688 18.5625 20.109375 L 18.5625 19.589844 C 18.5625 20.160156 18.101562 20.621094 17.53125 20.621094 L 4.46875 20.621094 C 3.898438 20.621094 3.4375 20.160156 3.4375 19.589844 Z M 3.4375 19.589844 "/>
<path style=" stroke:none;fill-rule:nonzero;fill:rgb(0%,0%,0%);fill-opacity:0.4;" d="M 3.4375 19.292969 L 3.4375 19.59375 C 3.4375 20.164062 3.898438 20.625 4.46875 20.625 L 17.53125 20.625 C 18.101562 20.625 18.5625 20.164062 18.5625 19.59375 L 18.5625 19.292969 C 18.5625 19.863281 18.101562 20.324219 17.53125 20.324219 L 4.46875 20.324219 C 3.898438 20.324219 3.4375 19.863281 3.4375 19.292969 Z M 3.4375 19.292969 "/>
<path style=" stroke:none;fill-rule:nonzero;fill:rgb(69.01961%,74.509805%,77.254903%);fill-opacity:0.996078;" d="M 8.25 8.25 C 7.867188 8.25 7.5625 8.554688 7.5625 8.9375 L 7.5625 11 C 7.5625 11.382812 7.867188 11.6875 8.25 11.6875 L 10.3125 11.6875 C 10.695312 11.6875 11 11.382812 11 11 L 11 8.9375 C 11 8.554688 10.695312 8.25 10.3125 8.25 Z M 11.6875 11.6875 C 11.304688 11.6875 11 11.992188 11 12.375 L 11 14.4375 C 11 14.820312 11.304688 15.125 11.6875 15.125 L 13.75 15.125 C 14.132812 15.125 14.4375 14.820312 14.4375 14.4375 L 14.4375 12.375 C 14.4375 11.992188 14.132812 11.6875 13.75 11.6875 Z M 11.6875 11.6875 "/>
<path style=" stroke:none;fill-rule:nonzero;fill:rgb(99.607843%,99.607843%,99.607843%);fill-opacity:0.4;" d="M 8.25 8.25 C 7.867188 8.25 7.5625 8.554688 7.5625 8.9375 L 7.5625 9.109375 C 7.5625 8.726562 7.867188 8.421875 8.25 8.421875 L 10.3125 8.421875 C 10.695312 8.421875 11 8.726562 11 9.109375 L 11 8.9375 C 11 8.554688 10.695312 8.25 10.3125 8.25 Z M 11.6875 11.6875 C 11.304688 11.6875 11 11.992188 11 12.375 L 11 12.546875 C 11 12.164062 11.304688 11.859375 11.6875 11.859375 L 13.75 11.859375 C 14.132812 11.859375 14.4375 12.164062 14.4375 12.546875 L 14.4375 12.375 C 14.4375 11.992188 14.132812 11.6875 13.75 11.6875 Z M 11.6875 11.6875 "/>
<path style=" stroke:none;fill-rule:nonzero;fill:rgb(0%,0%,0%);fill-opacity:0.4;" d="M 7.5625 11 L 7.5625 11.171875 C 7.5625 11.554688 7.867188 11.859375 8.25 11.859375 L 10.3125 11.859375 C 10.695312 11.859375 11 11.554688 11 11.171875 L 11 11 C 11 11.382812 10.695312 11.6875 10.3125 11.6875 L 8.25 11.6875 C 7.867188 11.6875 7.5625 11.382812 7.5625 11 Z M 11 14.4375 L 11 14.609375 C 11 14.992188 11.304688 15.296875 11.6875 15.296875 L 13.75 15.296875 C 14.132812 15.296875 14.4375 14.992188 14.4375 14.609375 L 14.4375 14.4375 C 14.4375 14.820312 14.132812 15.125 13.75 15.125 L 11.6875 15.125 C 11.304688 15.125 11 14.820312 11 14.4375 Z M 11 14.4375 "/>
<path style=" stroke:none;fill-rule:nonzero;fill:url(#linear0);" d="M 13.75 1.375 L 4.46875 1.375 C 3.898438 1.375 3.4375 1.835938 3.4375 2.40625 L 3.4375 19.59375 C 3.4375 20.164062 3.898438 20.625 4.46875 20.625 L 17.53125 20.625 C 18.101562 20.625 18.5625 20.164062 18.5625 19.59375 L 18.5625 6.1875 Z M 13.75 1.375 "/>
</g>
</svg>
