
<svg xmlns="http://www.w3.org/2000/svg" xmlns:xlink="http://www.w3.org/1999/xlink" width="16" height="16" viewBox="0 0 16 16" version="1.1">
<defs>
<linearGradient id="linear0" gradientUnits="userSpaceOnUse" x1="2.645833" y1="-211.03125" x2="14.287498" y2="-211.03125" gradientTransform="matrix(1.116679,0,0,0.472446,-1.454546,104.325939)">
<stop offset="0" style="stop-color:rgb(100%,100%,100%);stop-opacity:0;"/>
<stop offset="0.498862" style="stop-color:rgb(100%,100%,100%);stop-opacity:0.2;"/>
<stop offset="1" style="stop-color:rgb(95.686275%,26.274511%,21.176471%);stop-opacity:0;"/>
</linearGradient>
<linearGradient id="linear1" gradientUnits="userSpaceOnUse" x1="8.466666" y1="-200.183334" x2="8.466666" y2="-212.883331" gradientTransform="matrix(0.944882,0,0,0.944882,-1.000002,204.149621)">
<stop offset="0" style="stop-color:rgb(0%,0%,0%);stop-opacity:0.2;"/>
<stop offset="1" style="stop-color:rgb(100%,100%,100%);stop-opacity:0;"/>
</linearGradient>
<linearGradient id="linear2" gradientUnits="userSpaceOnUse" x1="9.657291" y1="-204.416672" x2="9.657291" y2="-208.649994" gradientTransform="matrix(0.944882,0,0,0.944882,-3.625001,202.372764)">
<stop offset="0" style="stop-color:rgb(0%,0%,0%);stop-opacity:0.2;"/>
<stop offset="1" style="stop-color:rgb(100%,100%,100%);stop-opacity:0;"/>
</linearGradient>
<filter id="alpha" filterUnits="objectBoundingBox" x="0%" y="0%" width="100%" height="100%">
  <feColorMatrix type="matrix" in="SourceGraphic" values="0 0 0 0 1 0 0 0 0 1 0 0 0 0 1 0 0 0 1 0"/>
</filter>
<mask id="mask0">
  <g filter="url(#alpha)">
<rect x="0" y="0" width="16" height="16" style="fill:rgb(0%,0%,0%);fill-opacity:0.236575;stroke:none;"/>
  </g>
</mask>
<clipPath id="clip1">
  <rect x="0" y="0" width="16" height="16"/>
</clipPath>
<g id="surface5" clip-path="url(#clip1)">
<path style=" stroke:none;fill-rule:nonzero;fill:rgb(100%,65.490198%,14.901961%);fill-opacity:0.996078;" d="M 8 3.058594 C 8.429688 3.058594 8.773438 3.402344 8.773438 3.828125 C 8.773438 4.253906 8.429688 4.601562 8 4.601562 C 7.574219 4.601562 7.230469 4.253906 7.230469 3.828125 C 7.230469 3.402344 7.574219 3.058594 8 3.058594 Z M 8 3.058594 "/>
</g>
<linearGradient id="linear3" gradientUnits="userSpaceOnUse" x1="-12.7" y1="-199.125" x2="-12.7" y2="-203.887497" gradientTransform="matrix(0.944882,0,0,0.944882,22.000001,203.149617)">
<stop offset="0" style="stop-color:rgb(74.117649%,74.117649%,74.117649%);stop-opacity:1;"/>
<stop offset="1" style="stop-color:rgb(74.117649%,74.117649%,74.117649%);stop-opacity:0;"/>
</linearGradient>
<linearGradient id="linear4" gradientUnits="userSpaceOnUse" x1="11.112499" y1="-199.125" x2="11.112499" y2="-213.941666" gradientTransform="matrix(0.944882,0,0,0.944882,0,203.149617)">
<stop offset="0" style="stop-color:rgb(0%,0%,0%);stop-opacity:0.2;"/>
<stop offset="1" style="stop-color:rgb(100%,100%,100%);stop-opacity:0;"/>
</linearGradient>
</defs>
<g id="surface1">
<path style=" stroke:none;fill-rule:nonzero;fill:rgb(38.039216%,38.039216%,38.039216%);fill-opacity:1;" d="M 2 3 L 14 3 C 14.550781 3 15 3.449219 15 4 L 15 14 C 15 14.550781 14.550781 15 14 15 L 2 15 C 1.449219 15 1 14.550781 1 14 L 1 4 C 1 3.449219 1.449219 3 2 3 Z M 2 3 "/>
<path style=" stroke:none;fill-rule:nonzero;fill:url(#linear0);" d="M 8 4.5 C 4.398438 4.5 1.5 4.554688 1.5 4.625 C 1.5 4.695312 4.398438 4.75 8 4.75 C 11.601562 4.75 14.5 4.695312 14.5 4.625 C 14.5 4.554688 11.601562 4.5 8 4.5 Z M 8 5.25 C 4.398438 5.25 1.5 5.304688 1.5 5.375 C 1.5 5.445312 4.398438 5.5 8 5.5 C 11.601562 5.5 14.5 5.445312 14.5 5.375 C 14.5 5.304688 11.601562 5.25 8 5.25 Z M 8 6 C 4.398438 6 1.5 6.054688 1.5 6.125 C 1.5 6.195312 4.398438 6.25 8 6.25 C 11.601562 6.25 14.5 6.195312 14.5 6.125 C 14.5 6.054688 11.601562 6 8 6 Z M 8 6.75 C 4.398438 6.75 1.5 6.804688 1.5 6.875 C 1.5 6.945312 4.398438 7 8 7 C 11.601562 7 14.5 6.945312 14.5 6.875 C 14.5 6.804688 11.601562 6.75 8 6.75 Z M 8 7.5 C 4.398438 7.5 1.5 7.554688 1.5 7.625 C 1.5 7.695312 4.398438 7.75 8 7.75 C 11.601562 7.75 14.5 7.695312 14.5 7.625 C 14.5 7.554688 11.601562 7.5 8 7.5 Z M 8 8.25 C 4.398438 8.25 1.5 8.304688 1.5 8.375 C 1.5 8.445312 4.398438 8.5 8 8.5 C 11.601562 8.5 14.5 8.445312 14.5 8.375 C 14.5 8.304688 11.601562 8.25 8 8.25 Z M 8 9 C 4.398438 9 1.5 9.054688 1.5 9.125 C 1.5 9.195312 4.398438 9.25 8 9.25 C 11.601562 9.25 14.5 9.195312 14.5 9.125 C 14.5 9.054688 11.601562 9 8 9 Z M 8 9.75 C 4.398438 9.75 1.5 9.804688 1.5 9.875 C 1.5 9.945312 4.398438 10 8 10 C 11.601562 10 14.5 9.945312 14.5 9.875 C 14.5 9.804688 11.601562 9.75 8 9.75 Z M 8 10.5 C 4.398438 10.5 1.5 10.554688 1.5 10.625 C 1.5 10.695312 4.398438 10.75 8 10.75 C 11.601562 10.75 14.5 10.695312 14.5 10.625 C 14.5 10.554688 11.601562 10.5 8 10.5 Z M 8 11.25 C 4.398438 11.25 1.5 11.304688 1.5 11.375 C 1.5 11.445312 4.398438 11.5 8 11.5 C 11.601562 11.5 14.5 11.445312 14.5 11.375 C 14.5 11.304688 11.601562 11.25 8 11.25 Z M 8 12 C 4.398438 12 1.5 12.054688 1.5 12.125 C 1.5 12.195312 4.398438 12.25 8 12.25 C 11.601562 12.25 14.5 12.195312 14.5 12.125 C 14.5 12.054688 11.601562 12 8 12 Z M 8 12.75 C 4.398438 12.75 1.5 12.804688 1.5 12.875 C 1.5 12.945312 4.398438 13 8 13 C 11.601562 13 14.5 12.945312 14.5 12.875 C 14.5 12.804688 11.601562 12.75 8 12.75 Z M 8 13.5 C 4.398438 13.5 1.5 13.554688 1.5 13.625 C 1.5 13.695312 4.398438 13.75 8 13.75 C 11.601562 13.75 14.5 13.695312 14.5 13.625 C 14.5 13.554688 11.601562 13.5 8 13.5 Z M 8 13.5 "/>
<path style=" stroke:none;fill-rule:nonzero;fill:url(#linear1);" d="M 2 3 L 14 3 C 14.550781 3 15 3.449219 15 4 L 15 14 C 15 14.550781 14.550781 15 14 15 L 2 15 C 1.449219 15 1 14.550781 1 14 L 1 4 C 1 3.449219 1.449219 3 2 3 Z M 2 3 "/>
<path style=" stroke:none;fill-rule:nonzero;fill:rgb(87.843138%,87.843138%,87.843138%);fill-opacity:1;" d="M 3.625 5.222656 C 3.554688 5.222656 3.5 5.277344 3.5 5.347656 L 3.5 5.746094 C 2.988281 5.835938 2.65625 6.195312 2.65625 6.597656 C 2.65625 7 2.988281 7.359375 3.5 7.449219 L 3.5 8.179688 C 3.300781 8.105469 3.207031 7.960938 3.207031 7.960938 C 3.171875 7.90625 3.113281 7.867188 3.050781 7.851562 C 2.984375 7.839844 2.917969 7.851562 2.859375 7.890625 C 2.804688 7.925781 2.765625 7.984375 2.753906 8.046875 C 2.742188 8.113281 2.753906 8.179688 2.789062 8.238281 C 2.789062 8.238281 3.039062 8.589844 3.5 8.695312 L 3.5 9.097656 C 3.5 9.167969 3.554688 9.222656 3.625 9.222656 L 3.875 9.222656 C 3.945312 9.222656 4 9.167969 4 9.097656 L 4 8.703125 C 4.515625 8.613281 4.84375 8.25 4.84375 7.847656 C 4.84375 7.449219 4.515625 7.085938 4 6.996094 L 4 6.265625 C 4.199219 6.34375 4.292969 6.488281 4.292969 6.488281 C 4.367188 6.601562 4.523438 6.632812 4.636719 6.554688 C 4.753906 6.480469 4.785156 6.324219 4.707031 6.210938 C 4.707031 6.210938 4.460938 5.855469 4 5.753906 L 4 5.347656 C 4 5.277344 3.945312 5.222656 3.875 5.222656 Z M 3.5 6.25 L 3.5 6.945312 C 3.238281 6.882812 3.15625 6.726562 3.15625 6.597656 C 3.15625 6.46875 3.238281 6.3125 3.5 6.25 Z M 4 7.5 C 4.261719 7.5625 4.34375 7.722656 4.34375 7.847656 C 4.34375 7.976562 4.261719 8.136719 4 8.195312 Z M 5.125 8.722656 C 5.054688 8.722656 5 8.777344 5 8.847656 L 5 9.097656 C 5 9.167969 5.054688 9.222656 5.125 9.222656 L 6.375 9.222656 C 6.445312 9.222656 6.5 9.167969 6.5 9.097656 L 6.5 8.847656 C 6.5 8.777344 6.445312 8.722656 6.375 8.722656 Z M 5.125 8.722656 "/>
<path style=" stroke:none;fill-rule:nonzero;fill:url(#linear2);" d="M 3.625 5.222656 C 3.554688 5.222656 3.5 5.277344 3.5 5.347656 L 3.5 5.746094 C 2.988281 5.835938 2.65625 6.195312 2.65625 6.597656 C 2.65625 7 2.988281 7.359375 3.5 7.449219 L 3.5 8.179688 C 3.300781 8.105469 3.207031 7.960938 3.207031 7.960938 C 3.171875 7.90625 3.113281 7.867188 3.050781 7.851562 C 2.984375 7.839844 2.917969 7.851562 2.859375 7.890625 C 2.804688 7.925781 2.765625 7.984375 2.753906 8.046875 C 2.742188 8.113281 2.753906 8.179688 2.789062 8.238281 C 2.789062 8.238281 3.039062 8.589844 3.5 8.695312 L 3.5 9.097656 C 3.5 9.167969 3.554688 9.222656 3.625 9.222656 L 3.875 9.222656 C 3.945312 9.222656 4 9.167969 4 9.097656 L 4 8.703125 C 4.515625 8.613281 4.84375 8.25 4.84375 7.847656 C 4.84375 7.449219 4.515625 7.085938 4 6.996094 L 4 6.265625 C 4.199219 6.34375 4.292969 6.488281 4.292969 6.488281 C 4.367188 6.601562 4.523438 6.632812 4.636719 6.554688 C 4.753906 6.480469 4.785156 6.324219 4.707031 6.210938 C 4.707031 6.210938 4.460938 5.855469 4 5.753906 L 4 5.347656 C 4 5.277344 3.945312 5.222656 3.875 5.222656 Z M 3.5 6.25 L 3.5 6.945312 C 3.238281 6.882812 3.15625 6.726562 3.15625 6.597656 C 3.15625 6.46875 3.238281 6.3125 3.5 6.25 Z M 4 7.5 C 4.261719 7.5625 4.34375 7.722656 4.34375 7.847656 C 4.34375 7.976562 4.261719 8.136719 4 8.195312 Z M 5.125 8.722656 C 5.054688 8.722656 5 8.777344 5 8.847656 L 5 9.097656 C 5 9.167969 5.054688 9.222656 5.125 9.222656 L 6.375 9.222656 C 6.445312 9.222656 6.5 9.167969 6.5 9.097656 L 6.5 8.847656 C 6.5 8.777344 6.445312 8.722656 6.375 8.722656 Z M 5.125 8.722656 "/>
<path style=" stroke:none;fill-rule:nonzero;fill:rgb(0%,0%,0%);fill-opacity:0.4;" d="M 3.5 6.25 C 3.238281 6.3125 3.15625 6.46875 3.15625 6.597656 C 3.15625 6.617188 3.164062 6.640625 3.167969 6.660156 C 3.191406 6.546875 3.277344 6.425781 3.5 6.375 Z M 4 6.265625 L 4 6.390625 C 4.199219 6.46875 4.292969 6.613281 4.292969 6.613281 C 4.367188 6.726562 4.523438 6.757812 4.636719 6.679688 C 4.726562 6.621094 4.769531 6.511719 4.742188 6.410156 C 4.726562 6.46875 4.6875 6.519531 4.636719 6.554688 C 4.523438 6.632812 4.367188 6.601562 4.292969 6.488281 C 4.292969 6.488281 4.199219 6.34375 4 6.265625 Z M 2.664062 6.660156 C 2.660156 6.679688 2.65625 6.703125 2.65625 6.722656 C 2.65625 7.125 2.988281 7.484375 3.5 7.574219 L 3.5 7.449219 C 3.011719 7.363281 2.695312 7.035156 2.664062 6.660156 Z M 4 7.5 L 4 7.625 C 4.222656 7.675781 4.308594 7.796875 4.332031 7.910156 C 4.335938 7.890625 4.34375 7.871094 4.34375 7.847656 C 4.34375 7.722656 4.261719 7.5625 4 7.5 Z M 4.835938 7.910156 C 4.804688 8.285156 4.488281 8.617188 4 8.703125 L 4 8.828125 C 4.515625 8.738281 4.84375 8.375 4.84375 7.972656 C 4.84375 7.953125 4.839844 7.933594 4.835938 7.910156 Z M 2.757812 8.160156 C 2.738281 8.230469 2.75 8.300781 2.792969 8.363281 C 2.792969 8.363281 3.039062 8.714844 3.5 8.820312 L 3.5 8.695312 C 3.039062 8.589844 2.792969 8.238281 2.792969 8.238281 C 2.777344 8.214844 2.765625 8.1875 2.757812 8.160156 Z M 3.5 9.097656 L 3.5 9.222656 C 3.5 9.292969 3.554688 9.347656 3.625 9.347656 L 3.875 9.347656 C 3.945312 9.347656 4 9.292969 4 9.222656 L 4 9.097656 C 4 9.167969 3.945312 9.222656 3.875 9.222656 L 3.625 9.222656 C 3.554688 9.222656 3.5 9.167969 3.5 9.097656 Z M 5 9.097656 L 5 9.222656 C 5 9.292969 5.054688 9.347656 5.125 9.347656 L 6.375 9.347656 C 6.445312 9.347656 6.5 9.292969 6.5 9.222656 L 6.5 9.097656 C 6.5 9.167969 6.445312 9.222656 6.375 9.222656 L 5.125 9.222656 C 5.054688 9.222656 5 9.167969 5 9.097656 Z M 5 9.097656 "/>
<path style=" stroke:none;fill-rule:nonzero;fill:rgb(99.607843%,99.607843%,99.607843%);fill-opacity:0.4;" d="M 3.625 5.222656 C 3.554688 5.222656 3.5 5.277344 3.5 5.347656 L 3.5 5.472656 C 3.5 5.402344 3.554688 5.347656 3.625 5.347656 L 3.875 5.347656 C 3.945312 5.347656 4 5.402344 4 5.472656 L 4 5.347656 C 4 5.277344 3.945312 5.222656 3.875 5.222656 Z M 3.5 5.746094 C 2.988281 5.835938 2.65625 6.195312 2.65625 6.597656 C 2.65625 6.617188 2.660156 6.640625 2.664062 6.660156 C 2.695312 6.285156 3.011719 5.957031 3.5 5.871094 Z M 4 5.753906 L 4 5.878906 C 4.460938 5.980469 4.707031 6.335938 4.707031 6.335938 C 4.722656 6.359375 4.734375 6.382812 4.742188 6.410156 C 4.757812 6.339844 4.746094 6.269531 4.707031 6.210938 C 4.707031 6.210938 4.460938 5.855469 4 5.753906 Z M 3.167969 6.660156 C 3.164062 6.679688 3.15625 6.703125 3.15625 6.722656 C 3.15625 6.851562 3.238281 7.007812 3.5 7.070312 L 3.5 6.945312 C 3.277344 6.894531 3.191406 6.773438 3.167969 6.660156 Z M 4 6.996094 L 4 7.121094 C 4.488281 7.203125 4.804688 7.535156 4.835938 7.910156 C 4.839844 7.890625 4.84375 7.871094 4.84375 7.847656 C 4.84375 7.449219 4.515625 7.085938 4 6.996094 Z M 2.992188 7.847656 C 2.945312 7.847656 2.902344 7.863281 2.859375 7.890625 C 2.773438 7.949219 2.730469 8.058594 2.757812 8.160156 C 2.773438 8.101562 2.808594 8.046875 2.859375 8.015625 C 2.917969 7.976562 2.984375 7.964844 3.050781 7.976562 C 3.113281 7.992188 3.171875 8.03125 3.207031 8.085938 C 3.207031 8.085938 3.300781 8.230469 3.5 8.304688 L 3.5 8.179688 C 3.300781 8.105469 3.207031 7.960938 3.207031 7.960938 C 3.160156 7.886719 3.078125 7.847656 2.992188 7.847656 Z M 4.332031 7.910156 C 4.308594 8.023438 4.222656 8.144531 4 8.195312 L 4 8.320312 C 4.261719 8.261719 4.34375 8.101562 4.34375 7.972656 C 4.34375 7.953125 4.335938 7.933594 4.332031 7.910156 Z M 5.125 8.722656 C 5.054688 8.722656 5 8.777344 5 8.847656 L 5 8.972656 C 5 8.902344 5.054688 8.847656 5.125 8.847656 L 6.375 8.847656 C 6.445312 8.847656 6.5 8.902344 6.5 8.972656 L 6.5 8.847656 C 6.5 8.777344 6.445312 8.722656 6.375 8.722656 Z M 5.125 8.722656 "/>
<path style=" stroke:none;fill-rule:nonzero;fill:rgb(0%,0%,0%);fill-opacity:0.4;" d="M 1.75 3.5 C 1.886719 3.5 2 3.613281 2 3.75 C 2 3.886719 1.886719 4 1.75 4 C 1.613281 4 1.5 3.886719 1.5 3.75 C 1.5 3.613281 1.613281 3.5 1.75 3.5 Z M 1.75 3.5 "/>
<path style=" stroke:none;fill-rule:nonzero;fill:rgb(0%,0%,0%);fill-opacity:0.4;" d="M 1.75 3.5 C 1.613281 3.5 1.5 3.613281 1.5 3.75 C 1.5 3.773438 1.507812 3.792969 1.511719 3.8125 C 1.539062 3.707031 1.632812 3.625 1.75 3.625 C 1.867188 3.625 1.960938 3.707031 1.988281 3.8125 C 1.992188 3.792969 2 3.773438 2 3.75 C 2 3.613281 1.886719 3.5 1.75 3.5 Z M 1.75 3.5 "/>
<path style=" stroke:none;fill-rule:nonzero;fill:rgb(100%,100%,100%);fill-opacity:0.4;" d="M 1.75 4.125 C 1.613281 4.125 1.5 4.011719 1.5 3.875 C 1.5 3.851562 1.507812 3.832031 1.511719 3.8125 C 1.539062 3.917969 1.632812 4 1.75 4 C 1.867188 4 1.960938 3.917969 1.988281 3.8125 C 1.992188 3.832031 2 3.851562 2 3.875 C 2 4.011719 1.886719 4.125 1.75 4.125 Z M 1.75 4.125 "/>
<path style=" stroke:none;fill-rule:nonzero;fill:rgb(0%,0%,0%);fill-opacity:0.4;" d="M 14.261719 3.5 C 14.402344 3.5 14.511719 3.613281 14.511719 3.75 C 14.511719 3.886719 14.402344 4 14.261719 4 C 14.125 4 14.011719 3.886719 14.011719 3.75 C 14.011719 3.613281 14.125 3.5 14.261719 3.5 Z M 14.261719 3.5 "/>
<path style=" stroke:none;fill-rule:nonzero;fill:rgb(0%,0%,0%);fill-opacity:0.4;" d="M 14.261719 3.5 C 14.125 3.5 14.011719 3.613281 14.011719 3.75 C 14.011719 3.773438 14.019531 3.792969 14.027344 3.8125 C 14.054688 3.707031 14.144531 3.625 14.261719 3.625 C 14.378906 3.625 14.472656 3.707031 14.5 3.8125 C 14.503906 3.792969 14.511719 3.773438 14.511719 3.75 C 14.511719 3.613281 14.402344 3.5 14.261719 3.5 Z M 14.261719 3.5 "/>
<path style=" stroke:none;fill-rule:nonzero;fill:rgb(100%,100%,100%);fill-opacity:0.4;" d="M 14.261719 4.125 C 14.125 4.125 14.011719 4.011719 14.011719 3.875 C 14.011719 3.851562 14.019531 3.832031 14.027344 3.8125 C 14.054688 3.917969 14.144531 4 14.261719 4 C 14.378906 4 14.472656 3.917969 14.5 3.8125 C 14.503906 3.832031 14.511719 3.851562 14.511719 3.875 C 14.511719 4.011719 14.402344 4.125 14.261719 4.125 Z M 14.261719 4.125 "/>
<path style=" stroke:none;fill-rule:nonzero;fill:rgb(0%,0%,0%);fill-opacity:0.4;" d="M 1.75 13.875 C 1.886719 13.875 2 13.988281 2 14.125 C 2 14.261719 1.886719 14.375 1.75 14.375 C 1.613281 14.375 1.5 14.261719 1.5 14.125 C 1.5 13.988281 1.613281 13.875 1.75 13.875 Z M 1.75 13.875 "/>
<path style=" stroke:none;fill-rule:nonzero;fill:rgb(0%,0%,0%);fill-opacity:0.4;" d="M 1.75 13.875 C 1.613281 13.875 1.5 13.988281 1.5 14.125 C 1.5 14.148438 1.507812 14.167969 1.511719 14.1875 C 1.539062 14.082031 1.632812 14 1.75 14 C 1.867188 14 1.960938 14.082031 1.988281 14.1875 C 1.992188 14.167969 2 14.148438 2 14.125 C 2 13.988281 1.886719 13.875 1.75 13.875 Z M 1.75 13.875 "/>
<path style=" stroke:none;fill-rule:nonzero;fill:rgb(100%,100%,100%);fill-opacity:0.4;" d="M 1.75 14.5 C 1.613281 14.5 1.5 14.386719 1.5 14.25 C 1.5 14.226562 1.507812 14.207031 1.511719 14.1875 C 1.539062 14.292969 1.632812 14.375 1.75 14.375 C 1.867188 14.375 1.960938 14.292969 1.988281 14.1875 C 1.992188 14.207031 2 14.226562 2 14.25 C 2 14.386719 1.886719 14.5 1.75 14.5 Z M 1.75 14.5 "/>
<path style=" stroke:none;fill-rule:nonzero;fill:rgb(0%,0%,0%);fill-opacity:0.4;" d="M 14.261719 13.875 C 14.402344 13.875 14.511719 13.988281 14.511719 14.125 C 14.511719 14.261719 14.402344 14.375 14.261719 14.375 C 14.125 14.375 14.011719 14.261719 14.011719 14.125 C 14.011719 13.988281 14.125 13.875 14.261719 13.875 Z M 14.261719 13.875 "/>
<path style=" stroke:none;fill-rule:nonzero;fill:rgb(0%,0%,0%);fill-opacity:0.4;" d="M 14.261719 13.875 C 14.125 13.875 14.011719 13.988281 14.011719 14.125 C 14.011719 14.148438 14.019531 14.167969 14.027344 14.1875 C 14.054688 14.082031 14.144531 14 14.261719 14 C 14.378906 14 14.472656 14.082031 14.5 14.1875 C 14.503906 14.167969 14.511719 14.148438 14.511719 14.125 C 14.511719 13.988281 14.402344 13.875 14.261719 13.875 Z M 14.261719 13.875 "/>
<path style=" stroke:none;fill-rule:nonzero;fill:rgb(100%,100%,100%);fill-opacity:0.4;" d="M 14.261719 14.5 C 14.125 14.5 14.011719 14.386719 14.011719 14.25 C 14.011719 14.226562 14.019531 14.207031 14.027344 14.1875 C 14.054688 14.292969 14.144531 14.375 14.261719 14.375 C 14.378906 14.375 14.472656 14.292969 14.5 14.1875 C 14.503906 14.207031 14.511719 14.226562 14.511719 14.25 C 14.511719 14.386719 14.402344 14.5 14.261719 14.5 Z M 14.261719 14.5 "/>
<path style=" stroke:none;fill-rule:nonzero;fill:rgb(100%,100%,100%);fill-opacity:0.4;" d="M 2 3 C 1.445312 3 1 3.445312 1 4 L 1 4.242188 C 1 3.6875 1.445312 3.242188 2 3.242188 L 14 3.242188 C 14.554688 3.242188 15 3.6875 15 4.242188 L 15 4 C 15 3.445312 14.554688 3 14 3 Z M 2 3 "/>
<path style=" stroke:none;fill-rule:nonzero;fill:rgb(0.392157%,0.392157%,0.392157%);fill-opacity:0.4;" d="M 2 15 C 1.445312 15 1 14.550781 1 14 L 1 13.757812 C 1 14.308594 1.445312 14.757812 2 14.757812 L 14 14.757812 C 14.554688 14.757812 15 14.308594 15 13.757812 L 15 14 C 15 14.550781 14.554688 15 14 15 Z M 2 15 "/>
<path style=" stroke:none;fill-rule:nonzero;fill:rgb(0%,0%,0%);fill-opacity:0.2;" d="M 1 14 L 1 14.375 C 1 14.929688 1.445312 15.375 2 15.375 L 14 15.375 C 14.554688 15.375 15 14.929688 15 14.375 L 15 14 C 15 14.554688 14.554688 15 14 15 L 2 15 C 1.445312 15 1 14.554688 1 14 Z M 1 14 "/>
<path style=" stroke:none;fill-rule:nonzero;fill:rgb(93.333334%,93.333334%,93.333334%);fill-opacity:1;" d="M 8.292969 1.007812 C 8.292969 1.007812 8.519531 1.300781 8.648438 1.535156 C 8.347656 1.570312 8.082031 1.617188 7.890625 1.679688 C 7.15625 1.917969 6.84375 2.324219 6.84375 2.324219 L 4.546875 2.984375 C 4.546875 2.984375 4.511719 2.929688 4.675781 3.441406 C 4.839844 3.957031 5.796875 5.335938 5.742188 5.429688 C 5.6875 5.519531 5.503906 5.703125 5.503906 5.703125 C 5.503906 5.703125 5.449219 5.667969 6.199219 6.511719 C 6.953125 7.355469 7.5625 7.542969 7.5625 7.542969 C 7.5625 7.542969 7.542969 7.578125 7.265625 8.535156 C 6.992188 9.488281 6.953125 10.941406 6.953125 10.941406 C 6.953125 10.941406 6.695312 11.289062 6.199219 11.710938 C 5.625 12.375 5.652344 13.84375 6.375 14.375 C 6 14.816406 5.242188 14.703125 4.785156 14.394531 C 4.050781 13.667969 4.71875 12.855469 5.5 12.25 C 6.125 11.875 5.515625 11.277344 5.226562 11.328125 C 3.679688 11.628906 3.421875 14.085938 4.492188 15.019531 L 6.953125 14.984375 L 13.125 15 C 13.125 15 13.332031 14.964844 13.625 14.652344 C 13.917969 14.339844 14.046875 14.007812 14.175781 13.605469 C 14.304688 13.199219 14.359375 12.410156 14.085938 11.710938 C 13.808594 11.015625 13 10.886719 13 10.886719 C 13 10.886719 12.980469 9.542969 12.871094 8.71875 C 12.761719 7.890625 12.484375 7.394531 12.484375 7.394531 C 12.484375 7.394531 12.652344 7.320312 13.183594 6.84375 C 13.714844 6.363281 14.230469 5.832031 14.230469 5.832031 L 13.808594 5.261719 C 13.808594 5.261719 14.175781 4.636719 14.414062 4.195312 C 14.652344 3.753906 14.949219 3.09375 14.949219 3.09375 C 14.949219 3.09375 14.714844 2.902344 14.359375 2.746094 C 13.699219 2.449219 12.597656 2.359375 12.597656 2.359375 C 12.328125 2.171875 11.789062 1.640625 11.144531 1.53125 C 11.074219 1.519531 10.992188 1.511719 10.898438 1.5 C 10.894531 1.5 10.894531 1.5 10.894531 1.5 L 11.179688 1.34375 C 11.179688 1.34375 10.867188 1.332031 11.023438 1.125 C 11.179688 0.914062 10.933594 1.070312 10.503906 1.199219 C 10.074219 1.332031 10.257812 1.070312 10.257812 1.070312 C 10.257812 1.070312 9.957031 1.164062 9.90625 1.238281 C 9.855469 1.316406 9.851562 1.125 9.851562 1.058594 C 9.851562 0.992188 9.839844 1.085938 9.347656 1.253906 C 8.851562 1.421875 9.242188 1.046875 9.242188 1.046875 C 9.242188 1.046875 9.101562 1.164062 8.90625 1.304688 C 8.710938 1.449219 8.292969 1.007812 8.292969 1.007812 Z M 8.292969 1.007812 "/>
<path style=" stroke:none;fill-rule:nonzero;fill:rgb(97.254902%,73.333335%,81.568629%);fill-opacity:1;" d="M 5.960938 4.933594 C 5.960938 4.933594 5.339844 4.398438 5.074219 3.800781 C 4.808594 3.203125 4.789062 3.082031 4.789062 3.082031 C 4.789062 3.082031 5.308594 2.835938 5.792969 2.777344 C 6.273438 2.71875 6.628906 2.742188 6.628906 2.742188 C 6.628906 2.742188 6.507812 3.003906 6.433594 3.199219 C 6.363281 3.398438 6.375 3.492188 6.351562 3.464844 C 6.328125 3.4375 5.9375 3.101562 6.007812 3.195312 C 6.078125 3.285156 6.21875 3.484375 6.171875 3.441406 C 6.128906 3.402344 5.9375 3.292969 5.945312 3.316406 C 5.949219 3.335938 6.269531 3.894531 6.15625 3.769531 C 6.039062 3.644531 5.914062 3.515625 5.992188 3.628906 C 6.070312 3.738281 6.121094 3.882812 6.101562 3.878906 C 6.078125 3.875 5.914062 3.753906 5.960938 3.828125 C 6.007812 3.902344 6.179688 4.136719 6.121094 4.105469 C 6.066406 4.074219 5.910156 4.007812 5.964844 4.058594 C 6.023438 4.109375 6.195312 4.273438 6.109375 4.269531 C 6.023438 4.265625 5.824219 4.269531 5.933594 4.292969 C 6.042969 4.316406 6.1875 4.386719 6.148438 4.390625 C 6.113281 4.394531 5.921875 4.421875 5.921875 4.421875 L 6.09375 4.574219 L 5.859375 4.597656 L 6 4.6875 L 5.972656 4.960938 Z M 5.960938 4.933594 "/>
<path style=" stroke:none;fill-rule:nonzero;fill:rgb(97.254902%,73.333335%,81.568629%);fill-opacity:1;" d="M 13.421875 4.933594 C 13.421875 4.933594 14.042969 4.398438 14.308594 3.800781 C 14.578125 3.203125 14.59375 3.082031 14.59375 3.082031 C 14.59375 3.082031 14.074219 2.835938 13.59375 2.777344 C 13.109375 2.71875 12.757812 2.742188 12.757812 2.742188 C 12.757812 2.742188 12.875 3.003906 12.949219 3.199219 C 13.023438 3.398438 13.007812 3.492188 13.03125 3.464844 C 13.054688 3.4375 13.445312 3.101562 13.378906 3.195312 C 13.308594 3.285156 13.164062 3.484375 13.210938 3.441406 C 13.257812 3.402344 13.445312 3.292969 13.441406 3.316406 C 13.4375 3.335938 13.117188 3.894531 13.230469 3.769531 C 13.34375 3.644531 13.46875 3.515625 13.390625 3.628906 C 13.3125 3.738281 13.261719 3.882812 13.285156 3.878906 C 13.308594 3.875 13.46875 3.753906 13.421875 3.828125 C 13.378906 3.902344 13.207031 4.136719 13.261719 4.105469 C 13.316406 4.074219 13.472656 4.007812 13.417969 4.058594 C 13.363281 4.109375 13.1875 4.273438 13.277344 4.269531 C 13.363281 4.265625 13.5625 4.269531 13.449219 4.292969 C 13.339844 4.316406 13.199219 4.386719 13.234375 4.390625 C 13.273438 4.394531 13.464844 4.421875 13.464844 4.421875 L 13.289062 4.574219 L 13.523438 4.597656 L 13.386719 4.6875 L 13.414062 4.960938 Z M 13.421875 4.933594 "/>
<use xlink:href="#surface5" mask="url(#mask0)"/>
<path style=" stroke:none;fill-rule:nonzero;fill:rgb(100%,65.490198%,14.901961%);fill-opacity:0.996078;" d="M 8 3.058594 C 8.429688 3.058594 8.773438 3.402344 8.773438 3.828125 C 8.773438 4.253906 8.429688 4.601562 8 4.601562 C 7.574219 4.601562 7.230469 4.253906 7.230469 3.828125 C 7.230469 3.402344 7.574219 3.058594 8 3.058594 Z M 8 3.058594 "/>
<path style=" stroke:none;fill-rule:nonzero;fill:rgb(38.039216%,38.039216%,38.039216%);fill-opacity:1;" d="M 8 3.316406 C 8.285156 3.316406 8.511719 3.546875 8.511719 3.828125 C 8.511719 4.113281 8.285156 4.339844 8 4.339844 C 7.71875 4.339844 7.488281 4.113281 7.488281 3.828125 C 7.488281 3.546875 7.71875 3.316406 8 3.316406 Z M 8 3.316406 "/>
<path style=" stroke:none;fill-rule:nonzero;fill:rgb(100%,65.490198%,14.901961%);fill-opacity:0.996078;" d="M 11.621094 3.058594 C 12.046875 3.058594 12.394531 3.402344 12.394531 3.828125 C 12.394531 4.253906 12.046875 4.601562 11.621094 4.601562 C 11.195312 4.601562 10.851562 4.253906 10.851562 3.828125 C 10.851562 3.402344 11.195312 3.058594 11.621094 3.058594 Z M 11.621094 3.058594 "/>
<path style=" stroke:none;fill-rule:nonzero;fill:rgb(93.333334%,93.333334%,93.333334%);fill-opacity:1;" d="M 7.878906 3.449219 C 8.003906 3.449219 8.105469 3.550781 8.105469 3.675781 C 8.105469 3.800781 8.003906 3.902344 7.878906 3.902344 C 7.753906 3.902344 7.652344 3.800781 7.652344 3.675781 C 7.652344 3.550781 7.753906 3.449219 7.878906 3.449219 Z M 7.878906 3.449219 "/>
<path style=" stroke:none;fill-rule:nonzero;fill:rgb(38.039216%,38.039216%,38.039216%);fill-opacity:1;" d="M 11.574219 3.316406 C 11.859375 3.316406 12.085938 3.546875 12.085938 3.828125 C 12.085938 4.113281 11.859375 4.339844 11.574219 4.339844 C 11.292969 4.339844 11.0625 4.113281 11.0625 3.828125 C 11.0625 3.546875 11.292969 3.316406 11.574219 3.316406 Z M 11.574219 3.316406 "/>
<path style=" stroke:none;fill-rule:nonzero;fill:rgb(93.333334%,93.333334%,93.333334%);fill-opacity:1;" d="M 11.441406 3.449219 C 11.566406 3.449219 11.667969 3.550781 11.667969 3.675781 C 11.667969 3.800781 11.566406 3.902344 11.441406 3.902344 C 11.316406 3.902344 11.214844 3.800781 11.214844 3.675781 C 11.214844 3.550781 11.316406 3.449219 11.441406 3.449219 Z M 11.441406 3.449219 "/>
<path style=" stroke:none;fill-rule:nonzero;fill:rgb(93.725491%,60.392159%,60.392159%);fill-opacity:1;" d="M 9.195312 4.582031 C 9.328125 4.269531 10.226562 4.191406 10.433594 4.582031 C 10.167969 4.636719 10 4.695312 9.820312 4.769531 C 9.613281 4.648438 9.386719 4.617188 9.195312 4.582031 Z M 9.195312 4.582031 "/>
<path style=" stroke:none;fill-rule:nonzero;fill:rgb(0%,0%,0%);fill-opacity:0.4;" d="M 9.820312 4.769531 C 9.777344 5.320312 9.800781 5.621094 9.800781 5.621094 L 9.601562 5.816406 C 9.601562 5.816406 9.710938 5.808594 9.828125 5.796875 C 9.945312 5.78125 10.0625 5.828125 10.0625 5.828125 L 9.878906 5.644531 Z M 9.820312 4.769531 "/>
<path style=" stroke:none;fill-rule:nonzero;fill:rgb(74.117649%,74.117649%,74.117649%);fill-opacity:1;" d="M 4.9375 6.820312 C 5.925781 5.90625 7.046875 5.390625 8.273438 5.191406 C 7.472656 4.992188 5.261719 6.257812 4.9375 6.820312 Z M 4.9375 6.820312 "/>
<path style=" stroke:none;fill-rule:nonzero;fill:rgb(74.117649%,74.117649%,74.117649%);fill-opacity:1;" d="M 4.953125 5.875 C 6.089844 5.164062 7.289062 4.871094 8.535156 4.90625 C 7.78125 4.558594 5.375 5.382812 4.953125 5.875 Z M 4.953125 5.875 "/>
<path style=" stroke:none;fill-rule:nonzero;fill:rgb(74.117649%,74.117649%,74.117649%);fill-opacity:1;" d="M 5.285156 7.394531 C 6.203125 6.410156 7.285156 5.816406 8.496094 5.527344 C 7.679688 5.390625 5.566406 6.808594 5.285156 7.394531 Z M 5.285156 7.394531 "/>
<path style=" stroke:none;fill-rule:nonzero;fill:rgb(74.117649%,74.117649%,74.117649%);fill-opacity:1;" d="M 14.855469 6.820312 C 13.871094 5.90625 12.75 5.390625 11.519531 5.191406 C 12.324219 4.992188 14.53125 6.257812 14.855469 6.820312 Z M 14.855469 6.820312 "/>
<path style=" stroke:none;fill-rule:nonzero;fill:rgb(74.117649%,74.117649%,74.117649%);fill-opacity:1;" d="M 14.84375 5.875 C 13.703125 5.164062 12.503906 4.871094 11.261719 4.90625 C 12.011719 4.558594 14.417969 5.382812 14.84375 5.875 Z M 14.84375 5.875 "/>
<path style=" stroke:none;fill-rule:nonzero;fill:rgb(74.117649%,74.117649%,74.117649%);fill-opacity:1;" d="M 14.507812 7.394531 C 13.59375 6.410156 12.511719 5.816406 11.300781 5.527344 C 12.113281 5.390625 14.226562 6.808594 14.507812 7.394531 Z M 14.507812 7.394531 "/>
<path style=" stroke:none;fill-rule:nonzero;fill:rgb(93.333334%,93.333334%,93.333334%);fill-opacity:1;" d="M 8.71875 7.253906 C 8.71875 7.253906 8.128906 8.441406 8.183594 8.292969 C 8.242188 8.148438 8.902344 7.816406 8.902344 7.816406 L 8.9375 8.386719 C 8.9375 8.386719 9.25 7.632812 9.269531 7.890625 C 9.289062 8.148438 9.820312 8.699219 9.800781 8.605469 C 9.785156 8.515625 9.800781 7.890625 9.800781 7.890625 C 9.800781 7.890625 10.355469 8.992188 10.390625 8.808594 C 10.425781 8.625 10.445312 8.164062 10.445312 8.164062 C 10.445312 8.164062 11.070312 8.550781 10.996094 8.476562 C 10.921875 8.40625 10.703125 8 10.8125 8.019531 C 10.921875 8.039062 11.640625 8.332031 11.566406 8.257812 C 11.492188 8.183594 11.035156 7.503906 11.035156 7.503906 C 11.035156 7.503906 11.695312 8.128906 11.601562 8.039062 C 11.511719 7.945312 11.273438 7.15625 11.273438 7.15625 C 10.414062 7.628906 9.5625 7.542969 8.71875 7.253906 Z M 8.71875 7.253906 "/>
<path style=" stroke:none;fill-rule:nonzero;fill:rgb(0%,0%,0%);fill-opacity:0.2;" d="M 11.035156 7.503906 C 11.035156 7.503906 11.183594 7.722656 11.324219 7.925781 C 11.492188 8.085938 11.652344 8.238281 11.601562 8.1875 C 11.574219 8.15625 11.527344 8.050781 11.480469 7.921875 C 11.308594 7.765625 11.035156 7.503906 11.035156 7.503906 Z M 8.902344 7.816406 C 8.902344 7.816406 8.566406 7.984375 8.351562 8.136719 C 8.296875 8.242188 8.246094 8.339844 8.21875 8.398438 C 8.359375 8.238281 8.902344 7.964844 8.902344 7.964844 L 8.9375 8.535156 C 8.9375 8.535156 9.25 7.78125 9.269531 8.039062 C 9.289062 8.296875 9.820312 8.847656 9.800781 8.757812 C 9.796875 8.734375 9.796875 8.683594 9.796875 8.617188 C 9.730469 8.601562 9.285156 8.125 9.269531 7.890625 C 9.25 7.632812 8.9375 8.386719 8.9375 8.386719 Z M 8.21875 8.398438 C 8.203125 8.414062 8.191406 8.429688 8.183594 8.445312 C 8.175781 8.472656 8.1875 8.449219 8.21875 8.398438 Z M 9.800781 7.890625 C 9.800781 7.890625 9.792969 8.242188 9.792969 8.457031 C 9.796875 8.257812 9.800781 8.039062 9.800781 8.039062 C 9.800781 8.039062 10.355469 9.140625 10.390625 8.957031 C 10.425781 8.773438 10.445312 8.316406 10.445312 8.316406 C 10.445312 8.316406 11.070312 8.703125 10.996094 8.628906 C 10.964844 8.597656 10.910156 8.507812 10.863281 8.414062 C 10.695312 8.320312 10.445312 8.164062 10.445312 8.164062 C 10.445312 8.164062 10.425781 8.625 10.390625 8.808594 C 10.355469 8.992188 9.800781 7.890625 9.800781 7.890625 Z M 10.808594 8.019531 C 10.765625 8.015625 10.78125 8.085938 10.816406 8.167969 C 10.933594 8.191406 11.640625 8.480469 11.566406 8.40625 C 11.546875 8.386719 11.496094 8.320312 11.4375 8.234375 C 11.238281 8.167969 10.886719 8.03125 10.8125 8.019531 C 10.8125 8.019531 10.808594 8.019531 10.808594 8.019531 Z M 10.808594 8.019531 "/>
<path style=" stroke:none;fill-rule:nonzero;fill:rgb(0%,0%,0%);fill-opacity:0.4;" d="M 6.445312 2.734375 C 6.292969 2.734375 6.0625 2.742188 5.792969 2.777344 C 5.308594 2.835938 4.789062 3.082031 4.789062 3.082031 C 4.789062 3.082031 4.792969 3.097656 4.8125 3.15625 C 4.910156 3.109375 5.363281 2.914062 5.792969 2.863281 C 6.1875 2.8125 6.492188 2.820312 6.589844 2.824219 C 6.613281 2.773438 6.628906 2.742188 6.628906 2.742188 C 6.628906 2.742188 6.558594 2.734375 6.445312 2.734375 Z M 6 3.265625 C 5.996094 3.265625 6 3.269531 6.007812 3.28125 C 6.027344 3.308594 6.054688 3.34375 6.082031 3.378906 C 6.121094 3.402344 6.15625 3.429688 6.171875 3.441406 C 6.199219 3.464844 6.164062 3.414062 6.121094 3.351562 C 6.0625 3.300781 6.011719 3.265625 6 3.265625 Z M 5.945312 3.394531 C 5.945312 3.394531 5.941406 3.398438 5.945312 3.398438 C 5.945312 3.414062 6.050781 3.597656 6.121094 3.730469 C 6.132812 3.742188 6.144531 3.757812 6.15625 3.769531 C 6.242188 3.863281 6.085938 3.578125 5.996094 3.417969 C 5.972656 3.402344 5.953125 3.394531 5.945312 3.394531 Z M 5.972656 3.671875 C 5.964844 3.667969 5.972656 3.679688 5.992188 3.710938 C 6.03125 3.761719 6.058594 3.820312 6.082031 3.871094 C 6.089844 3.875 6.097656 3.878906 6.101562 3.878906 C 6.113281 3.882812 6.101562 3.832031 6.070312 3.765625 C 6.023438 3.714844 5.980469 3.671875 5.972656 3.671875 Z M 5.957031 3.890625 C 5.953125 3.890625 5.953125 3.898438 5.960938 3.914062 C 5.984375 3.949219 6.03125 4.019531 6.070312 4.078125 C 6.089844 4.089844 6.109375 4.097656 6.121094 4.105469 C 6.164062 4.128906 6.085938 4.015625 6.023438 3.921875 C 5.996094 3.902344 5.96875 3.890625 5.957031 3.890625 Z M 5.960938 4.125 C 5.953125 4.125 5.953125 4.132812 5.964844 4.144531 C 5.992188 4.167969 6.050781 4.222656 6.089844 4.269531 C 6.097656 4.269531 6.101562 4.269531 6.109375 4.269531 C 6.160156 4.273438 6.125 4.21875 6.074219 4.164062 C 6.027344 4.144531 5.976562 4.125 5.960938 4.125 Z M 6.03125 4.355469 C 5.941406 4.355469 5.851562 4.359375 5.933594 4.378906 C 5.964844 4.386719 6 4.394531 6.03125 4.40625 C 6.082031 4.398438 6.132812 4.390625 6.148438 4.390625 C 6.167969 4.386719 6.148438 4.371094 6.113281 4.355469 C 6.109375 4.355469 6.109375 4.355469 6.109375 4.355469 C 6.085938 4.355469 6.058594 4.351562 6.03125 4.351562 Z M 6.003906 4.496094 C 5.964844 4.5 5.921875 4.507812 5.921875 4.507812 L 6.007812 4.582031 L 6.09375 4.574219 Z M 5.972656 4.671875 L 5.859375 4.679688 L 5.992188 4.769531 L 6 4.6875 Z M 5.972656 4.671875 "/>
<path style=" stroke:none;fill-rule:nonzero;fill:rgb(0%,0%,0%);fill-opacity:0.4;" d="M 12.941406 2.734375 C 12.824219 2.734375 12.757812 2.742188 12.757812 2.742188 C 12.757812 2.742188 12.773438 2.773438 12.792969 2.824219 C 12.894531 2.820312 13.199219 2.8125 13.59375 2.863281 C 14.019531 2.914062 14.472656 3.113281 14.574219 3.15625 C 14.59375 3.097656 14.59375 3.082031 14.59375 3.082031 C 14.59375 3.082031 14.074219 2.835938 13.59375 2.777344 C 13.320312 2.742188 13.089844 2.738281 12.941406 2.738281 Z M 13.382812 3.265625 C 13.371094 3.265625 13.324219 3.300781 13.265625 3.351562 C 13.21875 3.414062 13.1875 3.464844 13.210938 3.441406 C 13.230469 3.429688 13.265625 3.402344 13.304688 3.378906 C 13.332031 3.34375 13.355469 3.308594 13.378906 3.28125 C 13.386719 3.269531 13.386719 3.265625 13.382812 3.265625 Z M 13.4375 3.394531 C 13.429688 3.398438 13.410156 3.40625 13.386719 3.417969 C 13.300781 3.578125 13.144531 3.863281 13.230469 3.769531 C 13.242188 3.757812 13.253906 3.746094 13.265625 3.730469 C 13.335938 3.597656 13.4375 3.414062 13.441406 3.398438 C 13.441406 3.398438 13.441406 3.398438 13.4375 3.398438 Z M 13.414062 3.671875 C 13.40625 3.671875 13.363281 3.714844 13.3125 3.765625 C 13.285156 3.832031 13.273438 3.882812 13.285156 3.878906 C 13.289062 3.878906 13.296875 3.875 13.304688 3.871094 C 13.324219 3.820312 13.355469 3.761719 13.390625 3.710938 C 13.414062 3.679688 13.417969 3.667969 13.414062 3.671875 Z M 13.425781 3.890625 C 13.414062 3.890625 13.386719 3.90625 13.363281 3.921875 C 13.300781 4.015625 13.222656 4.128906 13.261719 4.105469 C 13.273438 4.097656 13.292969 4.089844 13.3125 4.078125 C 13.351562 4.019531 13.402344 3.949219 13.421875 3.914062 C 13.433594 3.894531 13.433594 3.890625 13.425781 3.890625 Z M 13.421875 4.125 C 13.402344 4.125 13.355469 4.144531 13.3125 4.164062 C 13.261719 4.21875 13.226562 4.273438 13.277344 4.269531 C 13.28125 4.269531 13.289062 4.269531 13.292969 4.269531 C 13.335938 4.222656 13.390625 4.167969 13.417969 4.144531 C 13.433594 4.128906 13.433594 4.125 13.421875 4.125 Z M 13.355469 4.355469 C 13.328125 4.351562 13.296875 4.355469 13.277344 4.355469 C 13.273438 4.355469 13.273438 4.355469 13.273438 4.355469 C 13.238281 4.375 13.21875 4.386719 13.234375 4.390625 C 13.253906 4.390625 13.304688 4.398438 13.355469 4.40625 C 13.386719 4.394531 13.417969 4.386719 13.449219 4.378906 C 13.535156 4.359375 13.441406 4.355469 13.355469 4.355469 Z M 13.378906 4.496094 L 13.289062 4.574219 L 13.378906 4.582031 L 13.464844 4.507812 C 13.464844 4.507812 13.421875 4.5 13.378906 4.496094 Z M 13.414062 4.671875 L 13.386719 4.6875 L 13.394531 4.769531 L 13.523438 4.679688 Z M 13.414062 4.671875 "/>
<path style=" stroke:none;fill-rule:nonzero;fill:rgb(100%,100%,100%);fill-opacity:0.6;" d="M 6.550781 2.917969 C 6.511719 3.003906 6.46875 3.109375 6.433594 3.199219 C 6.363281 3.398438 6.375 3.492188 6.351562 3.464844 C 6.328125 3.4375 5.9375 3.101562 6.007812 3.195312 C 6.078125 3.285156 6.21875 3.484375 6.171875 3.441406 C 6.128906 3.402344 5.9375 3.292969 5.945312 3.316406 C 5.945312 3.324219 6.007812 3.4375 6.070312 3.550781 C 6.113281 3.578125 6.15625 3.605469 6.171875 3.621094 C 6.21875 3.664062 6.078125 3.464844 6.007812 3.375 C 5.9375 3.28125 6.328125 3.617188 6.351562 3.644531 C 6.375 3.671875 6.363281 3.578125 6.433594 3.378906 C 6.507812 3.179688 6.628906 2.917969 6.628906 2.917969 C 6.628906 2.917969 6.601562 2.917969 6.550781 2.917969 Z M 4.839844 3.238281 C 4.808594 3.25 4.789062 3.257812 4.789062 3.257812 C 4.789062 3.257812 4.808594 3.382812 5.074219 3.980469 C 5.339844 4.578125 5.960938 5.109375 5.960938 5.109375 L 5.972656 5.136719 L 6 4.867188 L 5.980469 4.855469 L 5.972656 4.960938 L 5.960938 4.933594 C 5.960938 4.933594 5.339844 4.398438 5.074219 3.800781 C 4.949219 3.519531 4.878906 3.34375 4.839844 3.238281 Z M 5.972656 3.585938 C 5.964844 3.582031 5.972656 3.597656 5.992188 3.628906 C 6.070312 3.738281 6.121094 3.882812 6.101562 3.878906 C 6.097656 3.878906 6.089844 3.875 6.082031 3.871094 C 6.105469 3.894531 6.128906 3.921875 6.15625 3.949219 C 6.238281 4.039062 6.097656 3.777344 6.007812 3.617188 C 5.988281 3.597656 5.976562 3.585938 5.972656 3.585938 Z M 5.957031 3.804688 C 5.953125 3.804688 5.953125 3.8125 5.960938 3.828125 C 5.988281 3.875 6.0625 3.980469 6.105469 4.046875 C 6.101562 4.011719 6.0625 3.914062 6.007812 3.828125 C 5.984375 3.8125 5.964844 3.804688 5.957031 3.804688 Z M 5.960938 4.039062 C 5.953125 4.039062 5.953125 4.046875 5.964844 4.058594 C 5.984375 4.074219 6.019531 4.105469 6.050781 4.140625 C 6.027344 4.105469 6.003906 4.074219 5.984375 4.046875 C 5.972656 4.042969 5.964844 4.039062 5.960938 4.039062 Z M 6.128906 4.265625 C 6.125 4.269531 6.117188 4.269531 6.109375 4.269531 C 6.105469 4.269531 6.101562 4.269531 6.097656 4.269531 C 6.105469 4.273438 6.117188 4.28125 6.121094 4.285156 C 6.136719 4.292969 6.136719 4.285156 6.128906 4.265625 Z M 6 4.269531 C 5.921875 4.269531 5.859375 4.277344 5.933594 4.292969 C 5.976562 4.300781 6.023438 4.316406 6.0625 4.332031 C 6.042969 4.3125 6.019531 4.289062 6 4.269531 Z M 6.113281 4.394531 C 6.050781 4.402344 5.921875 4.421875 5.921875 4.421875 L 5.953125 4.449219 C 6 4.445312 6.066406 4.445312 6.109375 4.449219 C 6.144531 4.453125 6.136719 4.425781 6.113281 4.394531 Z M 6 4.488281 L 6.09375 4.574219 L 5.859375 4.597656 L 6 4.6875 L 5.992188 4.761719 L 6.09375 4.753906 L 5.921875 4.601562 C 5.921875 4.601562 6.113281 4.574219 6.148438 4.570312 C 6.179688 4.566406 6.089844 4.519531 6 4.488281 Z M 6 4.488281 "/>
<path style=" stroke:none;fill-rule:nonzero;fill:rgb(100%,100%,100%);fill-opacity:0.6;" d="M 12.835938 2.917969 C 12.785156 2.917969 12.757812 2.917969 12.757812 2.917969 C 12.757812 2.917969 12.875 3.179688 12.949219 3.378906 C 13.023438 3.578125 13.007812 3.671875 13.03125 3.644531 C 13.054688 3.617188 13.445312 3.28125 13.378906 3.375 C 13.308594 3.464844 13.164062 3.664062 13.210938 3.621094 C 13.230469 3.605469 13.273438 3.578125 13.316406 3.550781 C 13.375 3.4375 13.441406 3.324219 13.441406 3.316406 C 13.445312 3.292969 13.257812 3.402344 13.210938 3.441406 C 13.164062 3.484375 13.308594 3.285156 13.378906 3.195312 C 13.445312 3.101562 13.054688 3.4375 13.03125 3.464844 C 13.007812 3.492188 13.023438 3.398438 12.949219 3.199219 C 12.914062 3.109375 12.871094 3.003906 12.835938 2.917969 Z M 14.542969 3.238281 C 14.503906 3.34375 14.433594 3.519531 14.308594 3.800781 C 14.042969 4.398438 13.421875 4.933594 13.421875 4.933594 L 13.414062 4.960938 L 13.402344 4.855469 L 13.386719 4.867188 L 13.414062 5.136719 L 13.421875 5.109375 C 13.421875 5.109375 14.042969 4.578125 14.308594 3.980469 C 14.578125 3.382812 14.59375 3.257812 14.59375 3.257812 C 14.59375 3.257812 14.578125 3.25 14.542969 3.238281 Z M 13.414062 3.585938 C 13.410156 3.585938 13.394531 3.597656 13.378906 3.617188 C 13.289062 3.777344 13.148438 4.039062 13.230469 3.949219 C 13.253906 3.921875 13.277344 3.894531 13.300781 3.871094 C 13.292969 3.875 13.289062 3.878906 13.285156 3.878906 C 13.261719 3.882812 13.3125 3.738281 13.390625 3.625 C 13.414062 3.59375 13.417969 3.582031 13.414062 3.585938 Z M 13.425781 3.804688 C 13.414062 3.804688 13.398438 3.816406 13.375 3.828125 C 13.320312 3.914062 13.28125 4.011719 13.28125 4.046875 C 13.320312 3.980469 13.394531 3.875 13.421875 3.828125 C 13.433594 3.8125 13.433594 3.804688 13.425781 3.804688 Z M 13.425781 4.039062 C 13.417969 4.039062 13.410156 4.042969 13.398438 4.042969 C 13.378906 4.070312 13.359375 4.105469 13.335938 4.140625 C 13.367188 4.105469 13.398438 4.074219 13.417969 4.058594 C 13.433594 4.046875 13.433594 4.039062 13.425781 4.039062 Z M 13.257812 4.265625 C 13.25 4.285156 13.25 4.292969 13.261719 4.285156 C 13.269531 4.277344 13.277344 4.273438 13.289062 4.269531 C 13.285156 4.269531 13.28125 4.269531 13.277344 4.269531 C 13.265625 4.269531 13.261719 4.269531 13.257812 4.265625 Z M 13.386719 4.269531 C 13.367188 4.289062 13.34375 4.3125 13.320312 4.332031 C 13.359375 4.316406 13.410156 4.300781 13.449219 4.292969 C 13.523438 4.277344 13.460938 4.269531 13.386719 4.269531 Z M 13.269531 4.394531 C 13.25 4.425781 13.242188 4.449219 13.277344 4.449219 C 13.316406 4.449219 13.386719 4.449219 13.433594 4.449219 L 13.464844 4.421875 C 13.464844 4.421875 13.332031 4.402344 13.269531 4.394531 Z M 13.386719 4.488281 C 13.292969 4.519531 13.203125 4.566406 13.234375 4.570312 C 13.273438 4.574219 13.464844 4.601562 13.464844 4.601562 L 13.289062 4.753906 L 13.394531 4.761719 L 13.386719 4.6875 L 13.523438 4.597656 L 13.289062 4.574219 Z M 13.386719 4.488281 "/>
<path style=" stroke:none;fill-rule:nonzero;fill:rgb(100%,100%,100%);fill-opacity:0.4;" d="M 9.835938 4.320312 C 9.550781 4.316406 9.265625 4.417969 9.195312 4.582031 C 9.207031 4.585938 9.21875 4.585938 9.230469 4.589844 C 9.425781 4.339844 10.15625 4.285156 10.394531 4.589844 C 10.40625 4.585938 10.417969 4.582031 10.433594 4.582031 C 10.335938 4.398438 10.085938 4.320312 9.835938 4.320312 Z M 9.835938 4.320312 "/>
<path style=" stroke:none;fill-rule:nonzero;fill:rgb(0%,0%,0%);fill-opacity:0.4;" d="M 10.40625 4.585938 C 10.15625 4.640625 9.992188 4.699219 9.820312 4.769531 C 9.621094 4.652344 9.40625 4.621094 9.21875 4.585938 C 9.210938 4.597656 9.203125 4.613281 9.195312 4.625 C 9.386719 4.660156 9.613281 4.695312 9.820312 4.8125 C 10 4.742188 10.167969 4.679688 10.433594 4.625 C 10.425781 4.609375 10.417969 4.597656 10.40625 4.585938 Z M 10.40625 4.585938 "/>
<path style=" stroke:none;fill-rule:nonzero;fill:rgb(100%,100%,100%);fill-opacity:0.4;" d="M 8 3.058594 C 7.574219 3.058594 7.230469 3.402344 7.230469 3.828125 C 7.230469 3.84375 7.230469 3.859375 7.230469 3.875 C 7.261719 3.476562 7.59375 3.160156 8 3.160156 C 8.410156 3.160156 8.742188 3.476562 8.769531 3.875 C 8.773438 3.859375 8.773438 3.84375 8.773438 3.828125 C 8.773438 3.402344 8.429688 3.058594 8 3.058594 Z M 11.621094 3.058594 C 11.195312 3.058594 10.851562 3.402344 10.851562 3.828125 C 10.851562 3.84375 10.851562 3.859375 10.851562 3.875 C 10.882812 3.476562 11.214844 3.160156 11.621094 3.160156 C 12.03125 3.160156 12.363281 3.476562 12.390625 3.875 C 12.390625 3.859375 12.394531 3.84375 12.394531 3.828125 C 12.394531 3.402344 12.050781 3.058594 11.621094 3.058594 Z M 11.621094 3.058594 "/>
<path style=" stroke:none;fill-rule:nonzero;fill:rgb(0%,0%,0%);fill-opacity:0.4;" d="M 8 4.703125 C 7.574219 4.703125 7.230469 4.359375 7.230469 3.933594 C 7.230469 3.917969 7.230469 3.902344 7.230469 3.886719 C 7.261719 4.285156 7.59375 4.601562 8 4.601562 C 8.410156 4.601562 8.742188 4.285156 8.769531 3.886719 C 8.773438 3.902344 8.773438 3.917969 8.773438 3.933594 C 8.773438 4.359375 8.429688 4.703125 8 4.703125 Z M 11.621094 4.703125 C 11.195312 4.703125 10.851562 4.359375 10.851562 3.933594 C 10.851562 3.917969 10.851562 3.902344 10.851562 3.886719 C 10.882812 4.285156 11.214844 4.601562 11.621094 4.601562 C 12.03125 4.601562 12.363281 4.285156 12.390625 3.886719 C 12.390625 3.902344 12.394531 3.917969 12.394531 3.933594 C 12.394531 4.359375 12.050781 4.703125 11.621094 4.703125 Z M 11.621094 4.703125 "/>
<path style=" stroke:none;fill-rule:nonzero;fill:rgb(100%,100%,100%);fill-opacity:0.4;" d="M 8 3.316406 C 7.71875 3.316406 7.488281 3.546875 7.488281 3.828125 C 7.488281 3.839844 7.492188 3.855469 7.492188 3.867188 C 7.511719 3.601562 7.730469 3.398438 8 3.398438 C 8.269531 3.398438 8.488281 3.601562 8.511719 3.867188 C 8.511719 3.855469 8.511719 3.839844 8.511719 3.828125 C 8.511719 3.546875 8.285156 3.316406 8 3.316406 Z M 11.574219 3.316406 C 11.292969 3.316406 11.0625 3.546875 11.0625 3.828125 C 11.0625 3.839844 11.066406 3.855469 11.066406 3.867188 C 11.085938 3.601562 11.304688 3.398438 11.574219 3.398438 C 11.84375 3.398438 12.0625 3.601562 12.085938 3.867188 C 12.085938 3.855469 12.085938 3.839844 12.085938 3.828125 C 12.085938 3.546875 11.859375 3.316406 11.574219 3.316406 Z M 11.574219 3.316406 "/>
<path style=" stroke:none;fill-rule:nonzero;fill:rgb(0%,0%,0%);fill-opacity:0.4;" d="M 8 4.421875 C 7.71875 4.421875 7.488281 4.191406 7.488281 3.90625 C 7.488281 3.894531 7.492188 3.882812 7.492188 3.871094 C 7.511719 4.132812 7.730469 4.339844 8 4.339844 C 8.269531 4.339844 8.488281 4.132812 8.511719 3.871094 C 8.511719 3.882812 8.511719 3.894531 8.511719 3.90625 C 8.511719 4.191406 8.285156 4.421875 8 4.421875 Z M 11.574219 4.421875 C 11.292969 4.421875 11.0625 4.191406 11.0625 3.90625 C 11.0625 3.894531 11.066406 3.882812 11.066406 3.871094 C 11.085938 4.132812 11.304688 4.339844 11.574219 4.339844 C 11.84375 4.339844 12.0625 4.132812 12.085938 3.871094 C 12.085938 3.882812 12.089844 3.894531 12.089844 3.90625 C 12.089844 4.191406 11.859375 4.421875 11.574219 4.421875 Z M 11.574219 4.421875 "/>
<path style=" stroke:none;fill-rule:nonzero;fill:rgb(100%,100%,100%);fill-opacity:0.6;" d="M 8.292969 1.007812 C 8.292969 1.007812 8.519531 1.296875 8.648438 1.535156 C 8.742188 1.582031 8.835938 1.605469 8.90625 1.554688 C 9.101562 1.414062 9.242188 1.296875 9.242188 1.296875 C 9.242188 1.296875 8.851562 1.671875 9.347656 1.503906 C 9.839844 1.332031 9.851562 1.242188 9.851562 1.308594 C 9.851562 1.375 9.855469 1.566406 9.90625 1.492188 C 9.957031 1.414062 10.257812 1.320312 10.257812 1.320312 C 10.257812 1.320312 10.074219 1.582031 10.503906 1.453125 C 10.734375 1.382812 10.910156 1.304688 11 1.28125 C 10.972656 1.246094 10.96875 1.199219 11.023438 1.125 C 11.179688 0.914062 10.933594 1.070312 10.503906 1.203125 C 10.074219 1.332031 10.257812 1.070312 10.257812 1.070312 C 10.257812 1.070312 9.957031 1.164062 9.90625 1.242188 C 9.855469 1.316406 9.851562 1.125 9.851562 1.058594 C 9.851562 0.992188 9.839844 1.085938 9.347656 1.253906 C 8.851562 1.421875 9.242188 1.046875 9.242188 1.046875 C 9.242188 1.046875 9.101562 1.164062 8.90625 1.304688 C 8.710938 1.449219 8.292969 1.007812 8.292969 1.007812 Z M 11.058594 1.320312 C 11.050781 1.332031 11.039062 1.351562 11.023438 1.375 C 11 1.402344 10.988281 1.429688 10.984375 1.449219 L 11.179688 1.34375 C 11.179688 1.34375 11.113281 1.339844 11.058594 1.320312 Z M 10.988281 1.511719 C 11.027344 1.585938 11.179688 1.59375 11.179688 1.59375 L 10.894531 1.75 C 10.894531 1.75 10.894531 1.75 10.898438 1.75 C 10.992188 1.761719 11.074219 1.769531 11.144531 1.78125 C 11.789062 1.890625 12.328125 2.421875 12.597656 2.609375 C 12.597656 2.609375 13.699219 2.699219 14.359375 2.996094 C 14.589844 3.097656 14.765625 3.210938 14.863281 3.28125 C 14.910156 3.175781 14.949219 3.09375 14.949219 3.09375 C 14.949219 3.09375 14.714844 2.902344 14.359375 2.746094 C 13.699219 2.449219 12.597656 2.359375 12.597656 2.359375 C 12.328125 2.171875 11.789062 1.640625 11.144531 1.53125 C 11.097656 1.523438 11.046875 1.519531 10.988281 1.511719 Z M 8.507812 1.554688 C 8.265625 1.585938 8.050781 1.628906 7.890625 1.679688 C 7.15625 1.917969 6.84375 2.324219 6.84375 2.324219 L 4.546875 2.984375 C 4.546875 2.984375 4.527344 2.964844 4.605469 3.21875 L 6.84375 2.574219 C 6.84375 2.574219 7.15625 2.167969 7.890625 1.929688 C 8.082031 1.867188 8.347656 1.820312 8.648438 1.785156 C 8.609375 1.710938 8.558594 1.632812 8.507812 1.554688 Z M 13.890625 5.371094 C 13.867188 5.414062 13.808594 5.511719 13.808594 5.511719 L 14.125 5.941406 C 14.191406 5.875 14.230469 5.832031 14.230469 5.832031 Z M 5.679688 5.511719 C 5.605469 5.601562 5.503906 5.703125 5.503906 5.703125 C 5.503906 5.703125 5.5 5.707031 5.609375 5.839844 C 5.660156 5.785156 5.714844 5.722656 5.742188 5.679688 C 5.75 5.660156 5.726562 5.601562 5.679688 5.511719 Z M 12.578125 7.589844 C 12.511719 7.632812 12.484375 7.644531 12.484375 7.644531 C 12.484375 7.644531 12.761719 8.140625 12.871094 8.96875 C 12.980469 9.792969 13 11.136719 13 11.136719 C 13 11.136719 13.808594 11.265625 14.082031 11.960938 C 14.210938 12.285156 14.269531 12.628906 14.277344 12.945312 C 14.292969 12.566406 14.246094 12.125 14.082031 11.710938 C 13.808594 11.015625 13 10.886719 13 10.886719 C 13 10.886719 12.980469 9.542969 12.871094 8.71875 C 12.800781 8.195312 12.667969 7.804688 12.574219 7.589844 Z M 7.492188 7.765625 C 7.449219 7.90625 7.382812 8.125 7.265625 8.535156 C 6.992188 9.488281 6.953125 10.941406 6.953125 10.941406 C 6.953125 10.941406 6.695312 11.289062 6.199219 11.710938 C 5.910156 12.046875 5.773438 12.582031 5.800781 13.101562 C 5.824219 12.664062 5.957031 12.242188 6.199219 11.960938 C 6.695312 11.539062 6.953125 11.191406 6.953125 11.191406 C 6.953125 11.191406 6.992188 9.738281 7.265625 8.785156 C 7.542969 7.828125 7.5625 7.792969 7.5625 7.792969 C 7.5625 7.792969 7.53125 7.78125 7.492188 7.765625 Z M 5.253906 11.324219 C 5.246094 11.324219 5.234375 11.324219 5.226562 11.328125 C 4.265625 11.515625 3.800781 12.535156 3.847656 13.507812 C 3.886719 12.617188 4.347656 11.75 5.226562 11.578125 C 5.394531 11.546875 5.671875 11.738281 5.75 11.976562 C 5.867188 11.65625 5.484375 11.316406 5.253906 11.324219 Z M 4.476562 13.84375 C 4.4375 14.113281 4.519531 14.382812 4.785156 14.644531 C 5.242188 14.953125 6 15.066406 6.375 14.625 C 6.324219 14.589844 6.277344 14.546875 6.234375 14.503906 C 5.832031 14.789062 5.191406 14.667969 4.785156 14.394531 C 4.601562 14.214844 4.507812 14.027344 4.476562 13.84375 Z M 4.476562 13.84375 "/>
<path style=" stroke:none;fill-rule:nonzero;fill:url(#linear3);" d="M 8.5 10.5 L 9 15 L 11 15 L 11.5 10.5 C 10.40625 11.253906 9.429688 11.074219 8.5 10.5 Z M 8.5 10.5 "/>
<path style=" stroke:none;fill-rule:nonzero;fill:rgb(0%,0%,0%);fill-opacity:0.4;" d="M 8.292969 1.007812 C 8.292969 1.007812 8.332031 1.042969 8.382812 1.089844 C 8.339844 1.050781 8.292969 1.007812 8.292969 1.007812 Z M 8.292969 1.007812 C 8.292969 1.007812 8.398438 1.140625 8.5 1.296875 C 8.394531 1.140625 8.292969 1.007812 8.292969 1.007812 Z M 11.042969 1.023438 C 11.054688 1.023438 11.0625 1.023438 11.066406 1.027344 C 11.0625 1.023438 11.054688 1.019531 11.042969 1.023438 Z M 11.019531 1.027344 C 11.015625 1.027344 11.007812 1.027344 11 1.03125 C 11.007812 1.03125 11.015625 1.027344 11.019531 1.027344 Z M 11.066406 1.03125 C 11.070312 1.03125 11.066406 1.039062 11.066406 1.039062 C 11.066406 1.035156 11.070312 1.03125 11.066406 1.03125 Z M 11.058594 1.066406 C 11.058594 1.066406 11.058594 1.066406 11.058594 1.070312 C 11.058594 1.070312 11.058594 1.070312 11.058594 1.066406 Z M 8.519531 1.203125 C 8.558594 1.234375 8.597656 1.257812 8.640625 1.28125 C 8.601562 1.257812 8.558594 1.230469 8.519531 1.203125 Z M 10.984375 1.207031 C 10.980469 1.214844 10.980469 1.21875 10.980469 1.226562 C 10.980469 1.21875 10.980469 1.214844 10.984375 1.207031 Z M 10.984375 1.242188 C 10.984375 1.246094 10.984375 1.253906 10.988281 1.257812 C 10.984375 1.253906 10.984375 1.246094 10.984375 1.242188 Z M 4.542969 2.984375 C 4.542969 2.984375 4.546875 2.996094 4.546875 3.003906 C 4.542969 2.980469 4.546875 2.984375 4.546875 2.984375 C 4.546875 2.984375 4.542969 2.980469 4.542969 2.984375 Z M 4.546875 3.003906 C 4.550781 3.015625 4.566406 3.078125 4.578125 3.109375 C 4.566406 3.078125 4.550781 3.019531 4.546875 3.003906 Z M 14.863281 3.03125 C 14.894531 3.054688 14.949219 3.09375 14.949219 3.09375 C 14.949219 3.09375 14.917969 3.070312 14.863281 3.03125 Z M 4.675781 3.195312 L 4.609375 3.214844 C 4.628906 3.285156 4.632812 3.304688 4.675781 3.441406 C 4.8125 3.863281 5.472656 4.859375 5.679688 5.261719 C 5.707031 5.230469 5.726562 5.199219 5.742188 5.179688 C 5.796875 5.085938 4.84375 3.710938 4.675781 3.195312 Z M 14.773438 3.222656 C 14.667969 3.445312 14.542969 3.714844 14.414062 3.945312 C 14.175781 4.386719 13.808594 5.011719 13.808594 5.011719 L 13.890625 5.121094 C 13.988281 4.953125 14.222656 4.554688 14.414062 4.195312 C 14.597656 3.863281 14.769531 3.484375 14.863281 3.28125 C 14.839844 3.265625 14.800781 3.242188 14.773438 3.222656 Z M 5.585938 5.617188 C 5.546875 5.660156 5.503906 5.703125 5.503906 5.703125 C 5.503906 5.703125 5.539062 5.664062 5.585938 5.617188 Z M 5.503906 5.703125 C 5.503906 5.703125 5.507812 5.71875 5.605469 5.835938 C 5.507812 5.714844 5.503906 5.703125 5.503906 5.703125 Z M 14.125 5.6875 C 14.125 5.691406 14.125 5.691406 14.125 5.691406 L 14.230469 5.832031 Z M 5.71875 5.710938 C 5.6875 5.75 5.648438 5.796875 5.609375 5.839844 C 5.699219 5.941406 5.847656 6.117188 6.199219 6.511719 C 6.808594 7.195312 7.316406 7.445312 7.492188 7.515625 C 7.546875 7.324219 7.558594 7.289062 7.558594 7.289062 C 7.558594 7.289062 6.953125 7.109375 6.199219 6.261719 C 5.921875 5.949219 5.816406 5.824219 5.71875 5.710938 Z M 14.019531 5.796875 C 13.824219 5.992188 13.519531 6.289062 13.183594 6.59375 C 12.652344 7.070312 12.484375 7.144531 12.484375 7.144531 C 12.484375 7.144531 12.523438 7.210938 12.574219 7.339844 C 12.675781 7.273438 12.859375 7.132812 13.183594 6.84375 C 13.628906 6.441406 13.996094 6.070312 14.125 5.9375 Z M 5.75 11.726562 C 5.75 11.726562 5.75 11.726562 5.75 11.730469 C 5.75 11.730469 5.75 11.734375 5.75 11.734375 C 5.75 11.734375 5.75 11.730469 5.75 11.726562 Z M 5.761719 11.769531 C 5.761719 11.777344 5.765625 11.785156 5.765625 11.796875 C 5.765625 11.785156 5.761719 11.777344 5.761719 11.769531 Z M 5.683594 11.84375 C 5.640625 11.898438 5.582031 11.953125 5.5 12 C 4.914062 12.457031 4.390625 13.027344 4.476562 13.589844 C 4.546875 13.109375 5 12.636719 5.5 12.25 C 5.640625 12.167969 5.714844 12.070312 5.75 11.976562 C 5.734375 11.929688 5.710938 11.886719 5.683594 11.84375 Z M 5.765625 11.921875 C 5.765625 11.929688 5.761719 11.9375 5.757812 11.945312 C 5.761719 11.9375 5.765625 11.929688 5.765625 11.921875 Z M 14.277344 12.695312 C 14.277344 12.699219 14.277344 12.707031 14.277344 12.710938 C 14.28125 12.753906 14.277344 12.796875 14.277344 12.839844 C 14.277344 12.789062 14.28125 12.742188 14.28125 12.695312 Z M 14.269531 12.820312 C 14.253906 13.03125 14.21875 13.21875 14.175781 13.355469 C 14.046875 13.757812 13.917969 14.089844 13.625 14.402344 C 13.332031 14.714844 13.125 14.75 13.125 14.75 L 6.953125 14.734375 L 6.246094 14.742188 C 5.90625 14.992188 5.394531 14.945312 4.996094 14.761719 L 4.492188 14.769531 C 4.113281 14.441406 3.902344 13.917969 3.855469 13.371094 C 3.851562 13.414062 3.847656 13.457031 3.847656 13.5 C 3.871094 14.09375 4.085938 14.664062 4.492188 15.019531 L 6.953125 14.984375 L 13.125 15 C 13.125 15 13.332031 14.964844 13.625 14.652344 C 13.917969 14.339844 14.046875 14.011719 14.175781 13.605469 C 14.230469 13.4375 14.269531 13.199219 14.277344 12.933594 C 14.277344 12.894531 14.273438 12.859375 14.269531 12.820312 Z M 5.800781 12.851562 C 5.800781 12.855469 5.800781 12.863281 5.800781 12.871094 C 5.800781 12.867188 5.800781 12.863281 5.800781 12.859375 C 5.800781 12.855469 5.800781 12.851562 5.800781 12.851562 Z M 5.8125 12.96875 C 5.808594 13.007812 5.804688 13.046875 5.800781 13.089844 C 5.824219 13.535156 5.964844 13.96875 6.234375 14.253906 C 6.285156 14.214844 6.332031 14.175781 6.375 14.125 C 6.042969 13.882812 5.859375 13.4375 5.8125 12.96875 Z M 5.800781 12.988281 C 5.800781 13.015625 5.800781 13.042969 5.800781 13.070312 C 5.800781 13.042969 5.800781 13.015625 5.800781 12.988281 Z M 3.847656 13.257812 C 3.847656 13.265625 3.847656 13.269531 3.847656 13.277344 C 3.847656 13.273438 3.847656 13.269531 3.847656 13.265625 C 3.847656 13.261719 3.847656 13.257812 3.847656 13.257812 Z M 3.847656 13.257812 "/>
<path style=" stroke:none;fill-rule:nonzero;fill:url(#linear4);" d="M 8.292969 1.007812 C 8.292969 1.007812 8.519531 1.300781 8.648438 1.535156 C 8.347656 1.570312 8.082031 1.617188 7.890625 1.679688 C 7.15625 1.917969 6.84375 2.324219 6.84375 2.324219 L 4.546875 2.984375 C 4.546875 2.984375 4.511719 2.929688 4.675781 3.441406 C 4.839844 3.957031 5.796875 5.335938 5.742188 5.429688 C 5.6875 5.519531 5.503906 5.703125 5.503906 5.703125 C 5.503906 5.703125 5.449219 5.667969 6.199219 6.511719 C 6.953125 7.355469 7.5625 7.542969 7.5625 7.542969 C 7.5625 7.542969 7.542969 7.578125 7.265625 8.535156 C 6.992188 9.488281 6.953125 10.941406 6.953125 10.941406 C 6.953125 10.941406 6.695312 11.289062 6.199219 11.710938 C 5.625 12.375 5.652344 13.84375 6.375 14.375 C 6 14.816406 5.242188 14.703125 4.785156 14.394531 C 4.050781 13.667969 4.71875 12.855469 5.5 12.25 C 6.125 11.875 5.515625 11.277344 5.226562 11.328125 C 3.679688 11.628906 3.421875 14.085938 4.492188 15.019531 L 6.953125 14.984375 L 13.125 15 C 13.125 15 13.332031 14.964844 13.625 14.652344 C 13.917969 14.339844 14.046875 14.007812 14.175781 13.605469 C 14.304688 13.199219 14.359375 12.410156 14.085938 11.710938 C 13.808594 11.015625 13 10.886719 13 10.886719 C 13 10.886719 12.980469 9.542969 12.871094 8.71875 C 12.761719 7.890625 12.484375 7.394531 12.484375 7.394531 C 12.484375 7.394531 12.652344 7.320312 13.183594 6.84375 C 13.714844 6.363281 14.230469 5.832031 14.230469 5.832031 L 13.808594 5.261719 C 13.808594 5.261719 14.175781 4.636719 14.414062 4.195312 C 14.652344 3.753906 14.949219 3.09375 14.949219 3.09375 C 14.949219 3.09375 14.714844 2.902344 14.359375 2.746094 C 13.699219 2.449219 12.597656 2.359375 12.597656 2.359375 C 12.328125 2.171875 11.789062 1.640625 11.144531 1.53125 C 11.074219 1.519531 10.992188 1.511719 10.898438 1.5 C 10.894531 1.5 10.894531 1.5 10.894531 1.5 L 11.179688 1.34375 C 11.179688 1.34375 10.867188 1.332031 11.023438 1.125 C 11.179688 0.914062 10.933594 1.070312 10.503906 1.199219 C 10.074219 1.332031 10.257812 1.070312 10.257812 1.070312 C 10.257812 1.070312 9.957031 1.164062 9.90625 1.238281 C 9.855469 1.316406 9.851562 1.125 9.851562 1.058594 C 9.851562 0.992188 9.839844 1.085938 9.347656 1.253906 C 8.851562 1.421875 9.242188 1.046875 9.242188 1.046875 C 9.242188 1.046875 9.101562 1.164062 8.90625 1.304688 C 8.710938 1.449219 8.292969 1.007812 8.292969 1.007812 Z M 8.292969 1.007812 "/>
</g>
</svg>
