
<svg xmlns="http://www.w3.org/2000/svg" xmlns:xlink="http://www.w3.org/1999/xlink" width="24" height="24" viewBox="0 0 24 24" version="1.1">
<defs>
<linearGradient id="linear0" gradientUnits="userSpaceOnUse" x1="10.054166" y1="-199.125" x2="10.054166" y2="-213.941666" gradientTransform="matrix(1.417323,0,0,1.417323,-0.00000270333,304.724425)">
<stop offset="0" style="stop-color:rgb(0%,0%,0%);stop-opacity:0.2;"/>
<stop offset="1" style="stop-color:rgb(100%,100%,100%);stop-opacity:0;"/>
</linearGradient>
</defs>
<g id="surface1">
<path style=" stroke:none;fill-rule:nonzero;fill:rgb(100%,43.921569%,26.274511%);fill-opacity:1;" d="M 3 1.5 L 21 1.5 C 21.828125 1.5 22.5 2.171875 22.5 3 L 22.5 21 C 22.5 21.828125 21.828125 22.5 21 22.5 L 3 22.5 C 2.171875 22.5 1.5 21.828125 1.5 21 L 1.5 3 C 1.5 2.171875 2.171875 1.5 3 1.5 Z M 3 1.5 "/>
<path style=" stroke:none;fill-rule:nonzero;fill:rgb(0%,0%,0%);fill-opacity:0.4;" d="M 1.5 20.625 L 1.5 21 C 1.5 21.832031 2.167969 22.5 3 22.5 L 21 22.5 C 21.832031 22.5 22.5 21.832031 22.5 21 L 22.5 20.625 C 22.5 21.457031 21.832031 22.125 21 22.125 L 3 22.125 C 2.167969 22.125 1.5 21.457031 1.5 20.625 Z M 1.5 20.625 "/>
<path style=" stroke:none;fill-rule:nonzero;fill:rgb(0%,0%,0%);fill-opacity:0.2;" d="M 1.5 21 L 1.5 21.5625 C 1.5 22.394531 2.167969 23.0625 3 23.0625 L 21 23.0625 C 21.832031 23.0625 22.5 22.394531 22.5 21.5625 L 22.5 21 C 22.5 21.832031 21.832031 22.5 21 22.5 L 3 22.5 C 2.167969 22.5 1.5 21.832031 1.5 21 Z M 1.5 21 "/>
<path style=" stroke:none;fill-rule:nonzero;fill:rgb(100%,100%,100%);fill-opacity:0.4;" d="M 3 1.5 C 2.167969 1.5 1.5 2.167969 1.5 3 L 1.5 3.367188 C 1.5 2.539062 2.167969 1.867188 3 1.867188 L 21 1.867188 C 21.832031 1.867188 22.5 2.539062 22.5 3.367188 L 22.5 3 C 22.5 2.167969 21.832031 1.5 21 1.5 Z M 3 1.5 "/>
<path style=" stroke:none;fill-rule:nonzero;fill:rgb(93.333334%,93.333334%,93.333334%);fill-opacity:1;" d="M 4.125 8.625 L 4.125 10.875 C 9.109375 10.875 13.125 14.890625 13.125 19.875 L 15.375 19.875 C 15.375 13.640625 10.359375 8.625 4.125 8.625 Z M 4.125 13.125 L 4.125 15.375 C 6.617188 15.375 8.625 17.382812 8.625 19.875 L 10.875 19.875 C 10.875 16.136719 7.863281 13.125 4.125 13.125 Z M 5.25 17.625 C 4.625 17.625 4.125 18.125 4.125 18.75 C 4.125 19.375 4.625 19.875 5.25 19.875 C 5.875 19.875 6.375 19.375 6.375 18.75 C 6.375 18.125 5.875 17.625 5.25 17.625 Z M 5.25 17.625 "/>
<path style=" stroke:none;fill-rule:nonzero;fill:rgb(100%,100%,100%);fill-opacity:0.6;" d="M 4.125 8.625 L 4.125 9 C 10.230469 9 15.171875 13.816406 15.367188 19.875 L 15.375 19.875 C 15.375 13.640625 10.359375 8.625 4.125 8.625 Z M 4.125 13.125 L 4.125 13.5 C 7.738281 13.5 10.671875 16.3125 10.863281 19.875 L 10.875 19.875 C 10.875 16.136719 7.863281 13.125 4.125 13.125 Z M 5.25 17.625 C 4.625 17.625 4.125 18.125 4.125 18.75 C 4.125 18.8125 4.132812 18.875 4.140625 18.9375 C 4.230469 18.40625 4.691406 18 5.25 18 C 5.808594 18 6.269531 18.40625 6.359375 18.9375 C 6.367188 18.875 6.375 18.8125 6.375 18.75 C 6.375 18.125 5.875 17.625 5.25 17.625 Z M 5.25 17.625 "/>
<path style=" stroke:none;fill-rule:nonzero;fill:rgb(0%,0%,0%);fill-opacity:0.4;" d="M 4.125 10.875 L 4.125 11.25 C 9.109375 11.25 13.125 15.265625 13.125 20.25 L 15.375 20.25 C 15.375 20.125 15.371094 20 15.367188 19.875 L 13.125 19.875 C 13.125 14.890625 9.109375 10.875 4.125 10.875 Z M 4.125 15.375 L 4.125 15.75 C 6.617188 15.75 8.625 17.757812 8.625 20.25 L 10.875 20.25 C 10.875 20.125 10.871094 20 10.863281 19.875 L 8.625 19.875 C 8.625 17.382812 6.617188 15.375 4.125 15.375 Z M 4.140625 18.9375 C 4.132812 19 4.125 19.0625 4.125 19.125 C 4.125 19.75 4.625 20.25 5.25 20.25 C 5.875 20.25 6.375 19.75 6.375 19.125 C 6.375 19.0625 6.367188 19 6.359375 18.9375 C 6.269531 19.46875 5.808594 19.875 5.25 19.875 C 4.691406 19.875 4.230469 19.46875 4.140625 18.9375 Z M 4.140625 18.9375 "/>
<path style=" stroke:none;fill-rule:nonzero;fill:url(#linear0);" d="M 3 1.5 L 21 1.5 C 21.828125 1.5 22.5 2.171875 22.5 3 L 22.5 21 C 22.5 21.828125 21.828125 22.5 21 22.5 L 3 22.5 C 2.171875 22.5 1.5 21.828125 1.5 21 L 1.5 3 C 1.5 2.171875 2.171875 1.5 3 1.5 Z M 3 1.5 "/>
</g>
</svg>
