
<svg xmlns="http://www.w3.org/2000/svg" xmlns:xlink="http://www.w3.org/1999/xlink" width="24" height="24" viewBox="0 0 24 24" version="1.1">
<defs>
<linearGradient id="linear0" gradientUnits="userSpaceOnUse" x1="8.995832" y1="-199.125" x2="8.995832" y2="-213.941666" gradientTransform="matrix(1.417323,0,0,1.417323,0,304.724425)">
<stop offset="0" style="stop-color:rgb(0%,0%,0%);stop-opacity:0.2;"/>
<stop offset="1" style="stop-color:rgb(100%,100%,100%);stop-opacity:0;"/>
</linearGradient>
</defs>
<g id="surface1">
<path style=" stroke:none;fill-rule:nonzero;fill:rgb(25.882354%,64.705884%,96.078432%);fill-opacity:1;" d="M 18.382812 1.5 C 14.28125 1.5 13.515625 7.734375 15.820312 7.734375 C 18.128906 7.734375 22.484375 1.5 18.382812 1.5 Z M 12.066406 2.457031 C 12 2.457031 11.933594 2.464844 11.863281 2.472656 C 9.535156 2.765625 10.351562 6.699219 11.589844 6.773438 C 12.785156 6.839844 14.097656 2.460938 12.066406 2.457031 Z M 8.039062 3.914062 C 7.894531 3.902344 7.738281 3.925781 7.5625 4 C 5.695312 4.765625 7.277344 7.9375 8.324219 7.722656 C 9.273438 7.53125 9.410156 4 8.039062 3.914062 Z M 4.988281 6.5 C 4.824219 6.496094 4.652344 6.550781 4.460938 6.691406 C 2.96875 7.804688 4.96875 10.503906 5.847656 10.085938 C 6.617188 9.71875 6.125 6.539062 4.988281 6.5 Z M 13.820312 9.074219 C 10.582031 9.019531 6.304688 10.660156 5.578125 13.964844 C 4.789062 17.539062 8.828125 22.5 13.039062 22.5 C 15.113281 22.5 17.503906 20.605469 17.953125 18.203125 C 18.292969 16.375 13.929688 17.109375 14.085938 18.320312 C 14.273438 19.769531 13.035156 20.488281 11.820312 19.550781 C 7.957031 16.574219 18.222656 15.085938 17.542969 11.019531 C 17.332031 9.75 15.761719 9.109375 13.816406 9.074219 Z M 13.820312 9.074219 "/>
<path style=" stroke:none;fill-rule:nonzero;fill:rgb(100%,100%,100%);fill-opacity:0.4;" d="M 18.382812 1.5 C 15.710938 1.5 14.457031 4.144531 14.542969 5.988281 C 14.628906 4.183594 15.890625 1.875 18.382812 1.875 C 19.503906 1.875 19.992188 2.339844 20.066406 3.019531 C 20.144531 2.144531 19.703125 1.5 18.382812 1.5 Z M 12.066406 2.457031 C 12 2.457031 11.933594 2.464844 11.863281 2.472656 C 10.710938 2.617188 10.332031 3.648438 10.386719 4.664062 C 10.4375 3.78125 10.855469 2.972656 11.863281 2.84375 C 11.933594 2.839844 12 2.832031 12.066406 2.832031 C 12.773438 2.835938 13.074219 3.367188 13.117188 4.054688 C 13.167969 3.191406 12.898438 2.460938 12.066406 2.457031 Z M 7.929688 3.910156 C 7.816406 3.917969 7.695312 3.945312 7.5625 4 C 6.867188 4.285156 6.652344 4.90625 6.707031 5.5625 C 6.753906 5.054688 7 4.605469 7.5625 4.375 C 7.738281 4.300781 7.894531 4.277344 8.035156 4.285156 C 8.699219 4.328125 9.011719 5.175781 9.046875 6.0625 C 9.09375 5.054688 8.792969 3.960938 8.035156 3.910156 C 8 3.910156 7.964844 3.910156 7.929688 3.910156 Z M 4.988281 6.5 C 4.824219 6.496094 4.652344 6.550781 4.460938 6.691406 C 4.019531 7.019531 3.886719 7.488281 3.933594 7.972656 C 3.976562 7.625 4.136719 7.308594 4.460938 7.066406 C 4.652344 6.925781 4.824219 6.867188 4.988281 6.875 C 5.699219 6.898438 6.160156 8.15625 6.214844 9.179688 C 6.269531 8.117188 5.789062 6.527344 4.988281 6.5 Z M 13.515625 9.074219 C 10.316406 9.121094 6.28125 10.761719 5.578125 13.964844 C 5.496094 14.332031 5.464844 14.714844 5.480469 15.101562 C 5.492188 14.84375 5.523438 14.589844 5.578125 14.339844 C 6.304688 11.035156 10.582031 9.394531 13.820312 9.449219 C 15.761719 9.484375 17.332031 10.128906 17.542969 11.394531 C 17.554688 11.457031 17.5625 11.523438 17.566406 11.585938 C 17.582031 11.402344 17.578125 11.210938 17.542969 11.019531 C 17.332031 9.753906 15.761719 9.109375 13.820312 9.074219 L 13.816406 9.074219 C 13.71875 9.074219 13.617188 9.074219 13.515625 9.074219 Z M 16.472656 17.101562 C 15.339844 17.109375 14 17.636719 14.085938 18.320312 C 14.09375 18.378906 14.097656 18.4375 14.101562 18.496094 C 14.382812 17.496094 17.675781 16.945312 17.953125 18.207031 C 17.953125 18.207031 17.953125 18.203125 17.953125 18.203125 C 18.101562 17.402344 17.351562 17.09375 16.472656 17.101562 Z M 10.96875 18.414062 C 10.882812 18.886719 11.113281 19.378906 11.820312 19.925781 C 13.007812 20.839844 14.21875 20.175781 14.097656 18.789062 C 13.988281 19.914062 12.894531 20.378906 11.820312 19.550781 C 11.300781 19.148438 11.035156 18.773438 10.96875 18.414062 Z M 10.96875 18.414062 "/>
<path style=" stroke:none;fill-rule:nonzero;fill:rgb(0%,0%,0%);fill-opacity:0.4;" d="M 20.066406 2.644531 C 19.898438 4.488281 17.386719 7.363281 15.820312 7.363281 C 15.015625 7.363281 14.585938 6.601562 14.542969 5.613281 C 14.484375 6.777344 14.917969 7.734375 15.820312 7.734375 C 17.5 7.734375 20.253906 4.445312 20.066406 2.644531 Z M 13.117188 3.679688 C 13.042969 4.925781 12.296875 6.441406 11.589844 6.398438 C 10.964844 6.363281 10.445312 5.335938 10.386719 4.289062 C 10.324219 5.449219 10.886719 6.730469 11.589844 6.773438 C 12.371094 6.816406 13.199219 4.972656 13.117188 3.679688 Z M 6.707031 5.1875 C 6.601562 6.367188 7.59375 7.871094 8.324219 7.722656 C 8.816406 7.621094 9.085938 6.632812 9.046875 5.6875 C 9.011719 6.503906 8.75 7.261719 8.324219 7.351562 C 7.667969 7.484375 6.804688 6.289062 6.707031 5.1875 Z M 3.933594 7.597656 C 3.789062 8.835938 5.160156 10.414062 5.847656 10.085938 C 6.132812 9.949219 6.246094 9.417969 6.214844 8.808594 C 6.191406 9.253906 6.074219 9.605469 5.847656 9.710938 C 5.226562 10.007812 4.050781 8.753906 3.933594 7.597656 Z M 17.566406 11.210938 C 17.3125 14.339844 10.558594 15.878906 10.964844 18.042969 C 11.339844 15.984375 17.835938 14.40625 17.566406 11.210938 Z M 5.480469 14.730469 C 5.351562 18.207031 9.121094 22.5 13.039062 22.5 C 15.113281 22.5 17.503906 20.605469 17.953125 18.203125 C 17.976562 18.066406 17.976562 17.941406 17.953125 17.832031 C 17.503906 20.234375 15.113281 22.125 13.039062 22.125 C 9.257812 22.125 5.617188 18.132812 5.480469 14.730469 Z M 14.101562 18.121094 C 14.085938 18.183594 14.078125 18.25 14.085938 18.320312 C 14.089844 18.351562 14.09375 18.382812 14.097656 18.414062 C 14.105469 18.320312 14.109375 18.222656 14.101562 18.121094 Z M 14.101562 18.121094 "/>
<path style=" stroke:none;fill-rule:nonzero;fill:rgb(0%,0%,0%);fill-opacity:0.2;" d="M 20.054688 3.121094 C 19.804688 4.96875 17.359375 7.734375 15.820312 7.734375 C 15.042969 7.734375 14.617188 7.027344 14.546875 6.085938 C 14.464844 7.292969 14.894531 8.296875 15.820312 8.296875 C 17.527344 8.296875 20.347656 4.898438 20.054688 3.121094 Z M 13.109375 4.152344 C 13.003906 5.375 12.277344 6.8125 11.589844 6.773438 C 10.984375 6.734375 10.476562 5.769531 10.394531 4.761719 C 10.292969 5.941406 10.871094 7.292969 11.589844 7.335938 C 12.390625 7.382812 13.238281 5.445312 13.109375 4.152344 Z M 6.71875 5.648438 C 6.542969 6.84375 7.574219 8.441406 8.324219 8.285156 C 8.832031 8.183594 9.105469 7.125 9.042969 6.152344 C 8.992188 6.933594 8.734375 7.640625 8.324219 7.722656 C 7.6875 7.851562 6.851562 6.722656 6.71875 5.648438 Z M 3.949219 8.078125 C 3.726562 9.328125 5.144531 10.984375 5.847656 10.648438 C 6.148438 10.503906 6.253906 9.929688 6.207031 9.277344 C 6.171875 9.675781 6.054688 9.984375 5.847656 10.085938 C 5.246094 10.371094 4.121094 9.203125 3.949219 8.078125 Z M 17.558594 11.675781 C 17.175781 14.789062 10.371094 16.316406 10.988281 18.507812 C 11.550781 16.476562 17.964844 14.886719 17.558594 11.675781 Z M 5.488281 15.199219 C 5.28125 18.691406 9.085938 23.0625 13.039062 23.0625 C 15.113281 23.0625 17.503906 21.167969 17.953125 18.765625 C 17.984375 18.59375 17.976562 18.441406 17.929688 18.3125 C 17.429688 20.660156 15.082031 22.5 13.039062 22.5 C 9.292969 22.5 5.683594 18.578125 5.488281 15.199219 Z M 14.101562 18.675781 C 14.085938 18.742188 14.078125 18.808594 14.085938 18.875 C 14.09375 18.8125 14.101562 18.746094 14.101562 18.675781 Z M 14.101562 18.675781 "/>
<path style=" stroke:none;fill-rule:nonzero;fill:url(#linear0);" d="M 18.382812 1.5 C 14.28125 1.5 13.515625 7.734375 15.820312 7.734375 C 18.128906 7.734375 22.484375 1.5 18.382812 1.5 Z M 12.066406 2.457031 C 12 2.457031 11.933594 2.464844 11.863281 2.472656 C 9.535156 2.765625 10.351562 6.699219 11.589844 6.773438 C 12.785156 6.839844 14.097656 2.460938 12.066406 2.457031 Z M 8.039062 3.914062 C 7.894531 3.902344 7.738281 3.925781 7.5625 4 C 5.695312 4.765625 7.277344 7.9375 8.324219 7.722656 C 9.273438 7.53125 9.410156 4 8.039062 3.914062 Z M 4.988281 6.5 C 4.824219 6.496094 4.652344 6.550781 4.460938 6.691406 C 2.96875 7.804688 4.96875 10.503906 5.847656 10.085938 C 6.617188 9.71875 6.125 6.539062 4.988281 6.5 Z M 13.820312 9.074219 C 10.582031 9.019531 6.304688 10.660156 5.578125 13.964844 C 4.789062 17.539062 8.828125 22.5 13.039062 22.5 C 15.113281 22.5 17.503906 20.605469 17.953125 18.203125 C 18.292969 16.375 13.929688 17.109375 14.085938 18.320312 C 14.273438 19.769531 13.035156 20.488281 11.820312 19.550781 C 7.957031 16.574219 18.222656 15.085938 17.542969 11.019531 C 17.332031 9.75 15.761719 9.109375 13.816406 9.074219 Z M 13.820312 9.074219 "/>
</g>
</svg>
