
<svg xmlns="http://www.w3.org/2000/svg" xmlns:xlink="http://www.w3.org/1999/xlink" width="24" height="24" viewBox="0 0 24 24" version="1.1">
<defs>
<linearGradient id="linear0" gradientUnits="userSpaceOnUse" x1="8.466666" y1="-199.125" x2="8.466666" y2="-213.941666" gradientTransform="matrix(1.417323,0,0,1.417323,0,304.724425)">
<stop offset="0" style="stop-color:rgb(0%,0%,0%);stop-opacity:0.2;"/>
<stop offset="1" style="stop-color:rgb(100%,100%,100%);stop-opacity:0;"/>
</linearGradient>
</defs>
<g id="surface1">
<path style=" stroke:none;fill-rule:nonzero;fill:rgb(92.54902%,25.098041%,47.843137%);fill-opacity:1;" d="M 21 22.5 C 21.832031 22.5 22.5 21.832031 22.5 21 L 22.5 12 L 12 12 L 12 22.5 Z M 21 22.5 "/>
<path style=" stroke:none;fill-rule:nonzero;fill:rgb(36.078432%,41.960785%,75.294119%);fill-opacity:1;" d="M 3 22.5 C 2.167969 22.5 1.5 21.832031 1.5 21 L 1.5 12 L 12 12 L 12 22.5 Z M 3 22.5 "/>
<path style=" stroke:none;fill-rule:nonzero;fill:rgb(36.078432%,41.960785%,75.294119%);fill-opacity:1;" d="M 21 1.5 C 21.832031 1.5 22.5 2.167969 22.5 3 L 22.5 12 L 12 12 L 12 1.5 Z M 21 1.5 "/>
<path style=" stroke:none;fill-rule:nonzero;fill:rgb(92.54902%,25.098041%,47.843137%);fill-opacity:1;" d="M 3 1.5 C 2.167969 1.5 1.5 2.167969 1.5 3 L 1.5 12 L 12 12 L 12 1.5 Z M 3 1.5 "/>
<path style=" stroke:none;fill-rule:nonzero;fill:rgb(38.039216%,38.039216%,38.039216%);fill-opacity:1;" d="M 5.25 4.5 L 18.75 4.5 C 19.164062 4.5 19.5 4.835938 19.5 5.25 L 19.5 18.75 C 19.5 19.164062 19.164062 19.5 18.75 19.5 L 5.25 19.5 C 4.835938 19.5 4.5 19.164062 4.5 18.75 L 4.5 5.25 C 4.5 4.835938 4.835938 4.5 5.25 4.5 Z M 5.25 4.5 "/>
<path style=" stroke:none;fill-rule:nonzero;fill:rgb(100%,100%,100%);fill-opacity:0.4;" d="M 5.25 4.5 C 4.835938 4.5 4.5 4.835938 4.5 5.25 L 4.5 5.625 C 4.5 5.210938 4.835938 4.875 5.25 4.875 L 18.75 4.875 C 19.164062 4.875 19.5 5.210938 19.5 5.625 L 19.5 5.25 C 19.5 4.835938 19.164062 4.5 18.75 4.5 Z M 5.25 4.5 "/>
<path style=" stroke:none;fill-rule:nonzero;fill:rgb(0.784314%,0.784314%,0.784314%);fill-opacity:0.4;" d="M 5.25 19.875 C 4.835938 19.875 4.5 19.539062 4.5 19.125 L 4.5 18.75 C 4.5 19.164062 4.835938 19.5 5.25 19.5 L 18.75 19.5 C 19.164062 19.5 19.5 19.164062 19.5 18.75 L 19.5 19.125 C 19.5 19.539062 19.164062 19.875 18.75 19.875 Z M 5.25 19.875 "/>
<path style=" stroke:none;fill-rule:nonzero;fill:rgb(100%,100%,100%);fill-opacity:0.4;" d="M 3 1.5 C 2.167969 1.5 1.5 2.167969 1.5 3 L 1.5 3.375 C 1.5 2.542969 2.167969 1.875 3 1.875 L 21 1.875 C 21.832031 1.875 22.5 2.542969 22.5 3.375 L 22.5 3 C 22.5 2.167969 21.832031 1.5 21 1.5 Z M 3 1.5 "/>
<path style=" stroke:none;fill-rule:nonzero;fill:rgb(0%,0%,0%);fill-opacity:0.4;" d="M 3 22.5 C 2.167969 22.5 1.5 21.832031 1.5 21 L 1.5 20.625 C 1.5 21.457031 2.167969 22.125 3 22.125 L 21 22.125 C 21.832031 22.125 22.5 21.457031 22.5 20.625 L 22.5 21 C 22.5 21.832031 21.832031 22.5 21 22.5 Z M 3 22.5 "/>
<path style=" stroke:none;fill-rule:nonzero;fill:rgb(0%,0%,0%);fill-opacity:0.2;" d="M 1.5 21 L 1.5 21.5625 C 1.5 22.394531 2.167969 23.0625 3 23.0625 L 21 23.0625 C 21.832031 23.0625 22.5 22.394531 22.5 21.5625 L 22.5 21 C 22.5 21.832031 21.832031 22.5 21 22.5 L 3 22.5 C 2.167969 22.5 1.5 21.832031 1.5 21 Z M 1.5 21 "/>
<path style=" stroke:none;fill-rule:nonzero;fill:rgb(93.333334%,93.333334%,93.333334%);fill-opacity:1;" d="M 7.125 8.25 C 6.917969 8.25 6.75 8.417969 6.75 8.625 L 6.75 15.375 C 6.75 15.582031 6.917969 15.75 7.125 15.75 L 7.875 15.75 C 8.082031 15.75 8.25 15.582031 8.25 15.375 L 8.25 12.695312 C 8.398438 12.730469 8.558594 12.75 8.71875 12.75 L 9.28125 12.75 C 10.371094 12.75 11.25 11.871094 11.25 10.78125 L 11.25 10.21875 C 11.25 9.128906 10.371094 8.25 9.28125 8.25 Z M 8.25 9.75 L 9 9.75 C 9.414062 9.75 9.75 10.085938 9.75 10.5 C 9.75 10.914062 9.414062 11.25 9 11.25 L 8.25 11.25 Z M 8.25 9.75 "/>
<path style=" stroke:none;fill-rule:nonzero;fill:rgb(93.333334%,93.333334%,93.333334%);fill-opacity:0.996078;" d="M 15 8.25 C 13.753906 8.25 12.75 9.253906 12.75 10.5 C 12.75 11.746094 13.753906 12.75 15 12.75 C 15.414062 12.75 15.75 13.085938 15.75 13.5 C 15.75 13.914062 15.414062 14.25 15 14.25 L 13.125 14.25 C 12.917969 14.25 12.75 14.417969 12.75 14.625 L 12.75 15.375 C 12.75 15.582031 12.917969 15.75 13.125 15.75 L 15 15.75 C 16.246094 15.75 17.25 14.746094 17.25 13.5 C 17.25 12.253906 16.246094 11.25 15 11.25 C 14.585938 11.25 14.25 10.914062 14.25 10.5 C 14.25 10.085938 14.585938 9.75 15 9.75 L 16.875 9.75 C 17.082031 9.75 17.25 9.582031 17.25 9.375 L 17.25 8.625 C 17.25 8.417969 17.082031 8.25 16.875 8.25 Z M 15 8.25 "/>
<path style=" stroke:none;fill-rule:nonzero;fill:rgb(100%,100%,100%);fill-opacity:0.6;" d="M 7.125 8.25 C 6.917969 8.25 6.75 8.417969 6.75 8.625 L 6.75 9 C 6.75 8.792969 6.917969 8.625 7.125 8.625 L 9.28125 8.625 C 10.371094 8.625 11.25 9.503906 11.25 10.59375 L 11.25 10.21875 C 11.25 9.128906 10.371094 8.25 9.28125 8.25 Z M 9.726562 10.6875 C 9.644531 11.011719 9.351562 11.25 9 11.25 L 8.25 11.25 L 8.25 11.625 L 9 11.625 C 9.414062 11.625 9.75 11.289062 9.75 10.875 C 9.75 10.808594 9.742188 10.746094 9.726562 10.6875 Z M 9.726562 10.6875 "/>
<path style=" stroke:none;fill-rule:nonzero;fill:rgb(100%,100%,100%);fill-opacity:0.6;" d="M 15 8.25 C 13.753906 8.25 12.75 9.253906 12.75 10.5 C 12.75 10.5625 12.753906 10.628906 12.757812 10.691406 C 12.851562 9.53125 13.816406 8.625 15 8.625 L 16.875 8.625 C 17.082031 8.625 17.25 8.792969 17.25 9 L 17.25 8.625 C 17.25 8.417969 17.082031 8.25 16.875 8.25 Z M 14.273438 10.691406 C 14.257812 10.75 14.25 10.8125 14.25 10.875 C 14.25 11.289062 14.585938 11.625 15 11.625 C 16.183594 11.625 17.148438 12.53125 17.242188 13.691406 C 17.246094 13.628906 17.25 13.5625 17.25 13.5 C 17.25 12.253906 16.246094 11.25 15 11.25 C 14.648438 11.25 14.359375 11.011719 14.273438 10.691406 Z M 15.726562 13.691406 C 15.640625 14.011719 15.351562 14.25 15 14.25 L 13.125 14.25 C 12.917969 14.25 12.75 14.417969 12.75 14.625 L 12.75 15 C 12.75 14.792969 12.917969 14.625 13.125 14.625 L 15 14.625 C 15.414062 14.625 15.75 14.289062 15.75 13.875 C 15.75 13.8125 15.742188 13.75 15.726562 13.691406 Z M 15.726562 13.691406 "/>
<path style=" stroke:none;fill-rule:nonzero;fill:rgb(0%,0%,0%);fill-opacity:0.4;" d="M 8.25 9.75 L 8.25 10.128906 L 9 10.128906 C 9.351562 10.128906 9.644531 10.367188 9.726562 10.6875 C 9.742188 10.628906 9.75 10.566406 9.75 10.5 C 9.75 10.085938 9.414062 9.75 9 9.75 Z M 11.25 10.78125 C 11.25 11.871094 10.371094 12.75 9.28125 12.75 L 8.71875 12.75 C 8.558594 12.75 8.398438 12.730469 8.25 12.695312 L 8.25 13.070312 C 8.398438 13.109375 8.558594 13.128906 8.71875 13.128906 L 9.28125 13.128906 C 10.371094 13.128906 11.25 12.25 11.25 11.160156 Z M 6.75 15.375 L 6.75 15.753906 C 6.75 15.960938 6.917969 16.128906 7.125 16.128906 L 7.875 16.128906 C 8.082031 16.128906 8.25 15.960938 8.25 15.753906 L 8.25 15.375 C 8.25 15.582031 8.082031 15.75 7.875 15.75 L 7.125 15.75 C 6.917969 15.75 6.75 15.582031 6.75 15.375 Z M 6.75 15.375 "/>
<path style=" stroke:none;fill-rule:nonzero;fill:rgb(0%,0%,0%);fill-opacity:0.4;" d="M 17.25 9.375 C 17.25 9.582031 17.082031 9.75 16.875 9.75 L 15 9.75 C 14.585938 9.75 14.25 10.085938 14.25 10.5 C 14.25 10.566406 14.257812 10.628906 14.273438 10.6875 C 14.355469 10.367188 14.648438 10.128906 15 10.128906 L 16.875 10.128906 C 17.082031 10.128906 17.25 9.960938 17.25 9.753906 Z M 12.757812 10.6875 C 12.753906 10.75 12.75 10.8125 12.75 10.878906 C 12.75 12.125 13.753906 13.128906 15 13.128906 C 15.351562 13.128906 15.644531 13.363281 15.726562 13.6875 C 15.742188 13.628906 15.75 13.566406 15.75 13.5 C 15.75 13.085938 15.414062 12.75 15 12.75 C 13.816406 12.75 12.851562 11.847656 12.757812 10.6875 Z M 17.242188 13.6875 C 17.148438 14.847656 16.183594 15.75 15 15.75 L 13.125 15.75 C 12.917969 15.75 12.75 15.582031 12.75 15.375 L 12.75 15.753906 C 12.75 15.960938 12.917969 16.128906 13.125 16.128906 L 15 16.128906 C 16.246094 16.128906 17.25 15.125 17.25 13.878906 C 17.25 13.8125 17.246094 13.75 17.242188 13.6875 Z M 17.242188 13.6875 "/>
<path style=" stroke:none;fill-rule:nonzero;fill:url(#linear0);" d="M 3 1.5 L 21 1.5 C 21.828125 1.5 22.5 2.171875 22.5 3 L 22.5 21 C 22.5 21.828125 21.828125 22.5 21 22.5 L 3 22.5 C 2.171875 22.5 1.5 21.828125 1.5 21 L 1.5 3 C 1.5 2.171875 2.171875 1.5 3 1.5 Z M 3 1.5 "/>
</g>
</svg>
