
<svg xmlns="http://www.w3.org/2000/svg" xmlns:xlink="http://www.w3.org/1999/xlink" width="24" height="24" viewBox="0 0 24 24" version="1.1">
<defs>
<linearGradient id="linear0" gradientUnits="userSpaceOnUse" x1="8.466666" y1="-199.125" x2="8.466666" y2="-213.941666" gradientTransform="matrix(1.417323,0,0,1.417323,0.0000000611306,304.724425)">
<stop offset="0" style="stop-color:rgb(0%,0%,0%);stop-opacity:0.2;"/>
<stop offset="1" style="stop-color:rgb(100%,100%,100%);stop-opacity:0;"/>
</linearGradient>
</defs>
<g id="surface1">
<path style=" stroke:none;fill-rule:nonzero;fill:rgb(95.686275%,26.274511%,21.176471%);fill-opacity:1;" d="M 21 22.5 C 21.832031 22.5 22.5 21.832031 22.5 21 L 22.5 12 L 12 12 L 12 22.5 Z M 21 22.5 "/>
<path style=" stroke:none;fill-rule:nonzero;fill:rgb(92.54902%,25.098041%,47.843137%);fill-opacity:1;" d="M 3 22.5 C 2.167969 22.5 1.5 21.832031 1.5 21 L 1.5 12 L 12 12 L 12 22.5 Z M 3 22.5 "/>
<path style=" stroke:none;fill-rule:nonzero;fill:rgb(100%,65.490198%,14.901961%);fill-opacity:1;" d="M 21 1.5 C 21.832031 1.5 22.5 2.167969 22.5 3 L 22.5 12 L 12 12 L 12 1.5 Z M 21 1.5 "/>
<path style=" stroke:none;fill-rule:nonzero;fill:rgb(49.411765%,34.117648%,76.078433%);fill-opacity:1;" d="M 3 1.5 C 2.167969 1.5 1.5 2.167969 1.5 3 L 1.5 12 L 12 12 L 12 1.5 Z M 3 1.5 "/>
<path style=" stroke:none;fill-rule:nonzero;fill:rgb(38.039216%,38.039216%,38.039216%);fill-opacity:1;" d="M 5.25 4.5 L 18.75 4.5 C 19.164062 4.5 19.5 4.835938 19.5 5.25 L 19.5 18.75 C 19.5 19.164062 19.164062 19.5 18.75 19.5 L 5.25 19.5 C 4.835938 19.5 4.5 19.164062 4.5 18.75 L 4.5 5.25 C 4.5 4.835938 4.835938 4.5 5.25 4.5 Z M 5.25 4.5 "/>
<path style=" stroke:none;fill-rule:nonzero;fill:rgb(100%,100%,100%);fill-opacity:0.4;" d="M 5.25 4.5 C 4.835938 4.5 4.5 4.835938 4.5 5.25 L 4.5 5.625 C 4.5 5.210938 4.835938 4.875 5.25 4.875 L 18.75 4.875 C 19.164062 4.875 19.5 5.210938 19.5 5.625 L 19.5 5.25 C 19.5 4.835938 19.164062 4.5 18.75 4.5 Z M 5.25 4.5 "/>
<path style=" stroke:none;fill-rule:nonzero;fill:rgb(0.784314%,0.784314%,0.784314%);fill-opacity:0.4;" d="M 5.25 19.875 C 4.835938 19.875 4.5 19.539062 4.5 19.125 L 4.5 18.75 C 4.5 19.164062 4.835938 19.5 5.25 19.5 L 18.75 19.5 C 19.164062 19.5 19.5 19.164062 19.5 18.75 L 19.5 19.125 C 19.5 19.539062 19.164062 19.875 18.75 19.875 Z M 5.25 19.875 "/>
<path style=" stroke:none;fill-rule:nonzero;fill:rgb(100%,100%,100%);fill-opacity:0.4;" d="M 3 1.5 C 2.167969 1.5 1.5 2.167969 1.5 3 L 1.5 3.375 C 1.5 2.542969 2.167969 1.875 3 1.875 L 21 1.875 C 21.832031 1.875 22.5 2.542969 22.5 3.375 L 22.5 3 C 22.5 2.167969 21.832031 1.5 21 1.5 Z M 3 1.5 "/>
<path style=" stroke:none;fill-rule:nonzero;fill:rgb(0%,0%,0%);fill-opacity:0.4;" d="M 3 22.5 C 2.167969 22.5 1.5 21.832031 1.5 21 L 1.5 20.625 C 1.5 21.457031 2.167969 22.125 3 22.125 L 21 22.125 C 21.832031 22.125 22.5 21.457031 22.5 20.625 L 22.5 21 C 22.5 21.832031 21.832031 22.5 21 22.5 Z M 3 22.5 "/>
<path style=" stroke:none;fill-rule:nonzero;fill:rgb(0%,0%,0%);fill-opacity:0.2;" d="M 1.5 21 L 1.5 21.5625 C 1.5 22.394531 2.167969 23.0625 3 23.0625 L 21 23.0625 C 21.832031 23.0625 22.5 22.394531 22.5 21.5625 L 22.5 21 C 22.5 21.832031 21.832031 22.5 21 22.5 L 3 22.5 C 2.167969 22.5 1.5 21.832031 1.5 21 Z M 1.5 21 "/>
<path style=" stroke:none;fill-rule:nonzero;fill:rgb(93.333334%,93.333334%,93.333334%);fill-opacity:1;" d="M 6.375 8.25 C 6.167969 8.25 6 8.417969 6 8.625 L 6 15.375 C 6 15.582031 6.167969 15.75 6.375 15.75 L 7.125 15.75 C 7.332031 15.75 7.5 15.582031 7.5 15.375 L 7.5 12.75 L 8.277344 12.75 L 9.898438 15.5625 C 10.003906 15.742188 10.230469 15.800781 10.414062 15.699219 L 11.0625 15.324219 C 11.242188 15.21875 11.300781 14.992188 11.199219 14.8125 L 9.898438 12.5625 C 10.695312 12.21875 11.25 11.425781 11.25 10.5 C 11.25 9.253906 10.246094 8.25 9 8.25 Z M 7.5 9.75 L 9 9.75 C 9.414062 9.75 9.75 10.085938 9.75 10.5 C 9.75 10.914062 9.414062 11.25 9 11.25 L 7.5 11.25 Z M 7.5 9.75 "/>
<path style=" stroke:none;fill-rule:nonzero;fill:rgb(100%,100%,100%);fill-opacity:0.6;" d="M 6.375 8.25 C 6.167969 8.25 6 8.417969 6 8.625 L 6 9 C 6 8.792969 6.167969 8.625 6.375 8.625 L 9 8.625 C 10.183594 8.625 11.144531 9.527344 11.242188 10.683594 C 11.246094 10.625 11.25 10.5625 11.25 10.5 C 11.25 9.253906 10.246094 8.25 9 8.25 Z M 9.726562 10.683594 C 9.644531 11.011719 9.351562 11.25 9 11.25 L 7.5 11.25 L 7.5 11.625 L 9 11.625 C 9.414062 11.625 9.75 11.289062 9.75 10.875 C 9.75 10.808594 9.742188 10.746094 9.726562 10.683594 Z M 10.070312 12.855469 C 10.015625 12.886719 9.957031 12.914062 9.898438 12.9375 L 11.199219 15.183594 C 11.261719 15.074219 11.269531 14.933594 11.199219 14.8125 Z M 10.070312 12.855469 "/>
<path style=" stroke:none;fill-rule:nonzero;fill:rgb(0%,0%,0%);fill-opacity:0.4;" d="M 7.5 9.75 L 7.5 10.125 L 9 10.125 C 9.351562 10.125 9.644531 10.363281 9.726562 10.6875 C 9.742188 10.628906 9.75 10.566406 9.75 10.5 C 9.75 10.085938 9.414062 9.75 9 9.75 Z M 11.242188 10.6875 C 11.171875 11.53125 10.640625 12.242188 9.898438 12.566406 L 10.070312 12.855469 C 10.773438 12.476562 11.25 11.734375 11.25 10.875 C 11.25 10.8125 11.246094 10.75 11.242188 10.6875 Z M 7.5 12.75 L 7.5 13.125 L 8.277344 13.125 L 9.898438 15.9375 C 10.003906 16.117188 10.230469 16.175781 10.414062 16.074219 L 11.0625 15.699219 C 11.242188 15.59375 11.300781 15.367188 11.199219 15.1875 C 11.167969 15.242188 11.121094 15.289062 11.0625 15.324219 L 10.414062 15.699219 C 10.230469 15.804688 10.003906 15.742188 9.898438 15.5625 L 8.277344 12.75 Z M 6 15.375 L 6 15.75 C 6 15.957031 6.167969 16.125 6.375 16.125 L 7.125 16.125 C 7.332031 16.125 7.5 15.957031 7.5 15.75 L 7.5 15.375 C 7.5 15.585938 7.332031 15.75 7.125 15.75 L 6.375 15.75 C 6.167969 15.75 6 15.585938 6 15.375 Z M 6 15.375 "/>
<path style=" stroke:none;fill-rule:nonzero;fill:rgb(93.333334%,93.333334%,93.333334%);fill-opacity:1;" d="M 13.5 8.25 L 13.125 8.25 C 12.917969 8.25 12.75 8.417969 12.75 8.625 L 12.75 15.375 C 12.75 15.582031 12.917969 15.75 13.125 15.75 L 13.875 15.75 C 14.082031 15.75 14.25 15.582031 14.25 15.375 L 14.25 11.140625 L 14.671875 12.261719 C 14.78125 12.558594 15.0625 12.75 15.375 12.75 C 15.6875 12.75 15.96875 12.558594 16.078125 12.261719 L 16.5 11.136719 L 16.5 15.375 C 16.5 15.582031 16.667969 15.75 16.875 15.75 L 17.625 15.75 C 17.832031 15.75 18 15.582031 18 15.375 L 18 8.625 C 18 8.417969 17.832031 8.25 17.625 8.25 L 16.5 8.25 C 16.1875 8.25 15.90625 8.441406 15.796875 8.734375 L 15.375 9.863281 L 14.949219 8.734375 C 14.839844 8.445312 14.5625 8.25 14.25 8.25 Z M 13.5 8.25 "/>
<path style=" stroke:none;fill-rule:nonzero;fill:rgb(100%,100%,100%);fill-opacity:0.6;" d="M 13.5 8.25 L 13.125 8.25 C 12.917969 8.25 12.75 8.417969 12.75 8.625 L 12.75 9 C 12.75 8.792969 12.917969 8.625 13.125 8.625 L 14.25 8.625 C 14.5625 8.625 14.839844 8.820312 14.949219 9.109375 L 15.375 10.238281 L 15.796875 9.109375 C 15.90625 8.816406 16.1875 8.625 16.5 8.625 L 17.625 8.625 C 17.832031 8.625 18 8.792969 18 9 L 18 8.625 C 18 8.417969 17.832031 8.25 17.625 8.25 L 16.5 8.25 C 16.1875 8.25 15.90625 8.441406 15.796875 8.734375 L 15.375 9.863281 L 14.949219 8.734375 C 14.839844 8.445312 14.5625 8.25 14.25 8.25 Z M 13.5 8.25 "/>
<path style=" stroke:none;fill-rule:nonzero;fill:rgb(0%,0%,0%);fill-opacity:0.4;" d="M 16.5 11.136719 L 16.078125 12.261719 C 15.96875 12.558594 15.6875 12.75 15.375 12.75 C 15.0625 12.75 14.78125 12.558594 14.671875 12.261719 L 14.25 11.140625 L 14.25 11.515625 L 14.671875 12.636719 C 14.78125 12.933594 15.0625 13.125 15.375 13.125 C 15.6875 13.125 15.96875 12.933594 16.078125 12.636719 L 16.5 11.511719 Z M 12.75 15.375 L 12.75 15.75 C 12.75 15.957031 12.917969 16.125 13.125 16.125 L 13.875 16.125 C 14.082031 16.125 14.25 15.957031 14.25 15.75 L 14.25 15.375 C 14.25 15.582031 14.082031 15.75 13.875 15.75 L 13.125 15.75 C 12.917969 15.75 12.75 15.582031 12.75 15.375 Z M 16.5 15.375 L 16.5 15.75 C 16.5 15.957031 16.667969 16.125 16.875 16.125 L 17.625 16.125 C 17.832031 16.125 18 15.957031 18 15.75 L 18 15.375 C 18 15.582031 17.832031 15.75 17.625 15.75 L 16.875 15.75 C 16.667969 15.75 16.5 15.582031 16.5 15.375 Z M 16.5 15.375 "/>
<path style=" stroke:none;fill-rule:nonzero;fill:url(#linear0);" d="M 3 1.5 L 21 1.5 C 21.828125 1.5 22.5 2.171875 22.5 3 L 22.5 21 C 22.5 21.828125 21.828125 22.5 21 22.5 L 3 22.5 C 2.171875 22.5 1.5 21.828125 1.5 21 L 1.5 3 C 1.5 2.171875 2.171875 1.5 3 1.5 Z M 3 1.5 "/>
</g>
</svg>
