
<svg xmlns="http://www.w3.org/2000/svg" xmlns:xlink="http://www.w3.org/1999/xlink" width="24" height="24" viewBox="0 0 24 24" version="1.1">
<defs>
<radialGradient id="radial0" gradientUnits="userSpaceOnUse" cx="32" cy="32" fx="32" fy="32" r="20" gradientTransform="matrix(0.45,0,0,0.3375,-2.399999,1.200005)">
<stop offset="0" style="stop-color:rgb(100%,65.490198%,14.901961%);stop-opacity:0.4;"/>
<stop offset="1" style="stop-color:rgb(61.176473%,80.000001%,39.607844%);stop-opacity:0;"/>
</radialGradient>
<linearGradient id="linear0" gradientUnits="userSpaceOnUse" x1="9.657291" y1="-204.416672" x2="9.657291" y2="-208.649994" gradientTransform="matrix(1.417323,0,0,1.417323,-5.437501,302.05914)">
<stop offset="0" style="stop-color:rgb(0%,0%,0%);stop-opacity:0.2;"/>
<stop offset="1" style="stop-color:rgb(100%,100%,100%);stop-opacity:0;"/>
</linearGradient>
<linearGradient id="linear1" gradientUnits="userSpaceOnUse" x1="2.645833" y1="-211.03125" x2="14.287498" y2="-211.03125" gradientTransform="matrix(1.675018,0,0,0.708669,-2.181818,154.98888)">
<stop offset="0" style="stop-color:rgb(100%,100%,100%);stop-opacity:0;"/>
<stop offset="0.498862" style="stop-color:rgb(100%,100%,100%);stop-opacity:0.2;"/>
<stop offset="1" style="stop-color:rgb(95.686275%,26.274511%,21.176471%);stop-opacity:0;"/>
</linearGradient>
<linearGradient id="linear2" gradientUnits="userSpaceOnUse" x1="8.466666" y1="-200.183334" x2="8.466666" y2="-212.883331" gradientTransform="matrix(1.417323,0,0,1.417323,-1.500002,304.724425)">
<stop offset="0" style="stop-color:rgb(0%,0%,0%);stop-opacity:0.2;"/>
<stop offset="1" style="stop-color:rgb(100%,100%,100%);stop-opacity:0;"/>
</linearGradient>
</defs>
<g id="surface1">
<path style=" stroke:none;fill-rule:nonzero;fill:rgb(38.039216%,38.039216%,38.039216%);fill-opacity:1;" d="M 3 3 L 21 3 C 21.828125 3 22.5 3.671875 22.5 4.5 L 22.5 19.5 C 22.5 20.328125 21.828125 21 21 21 L 3 21 C 2.171875 21 1.5 20.328125 1.5 19.5 L 1.5 4.5 C 1.5 3.671875 2.171875 3 3 3 Z M 3 3 "/>
<path style=" stroke:none;fill-rule:nonzero;fill:rgb(49.411765%,34.117648%,76.078433%);fill-opacity:0.992157;" d="M 3 3 C 2.167969 3 1.5 3.667969 1.5 4.5 L 1.5 19.5 C 1.5 19.933594 1.683594 20.320312 1.972656 20.59375 L 22.027344 3.40625 C 21.757812 3.15625 21.398438 3 21 3 Z M 3 3 "/>
<path style=" stroke:none;fill-rule:nonzero;fill:url(#radial0);" d="M 19 6 L 18.125 6.75 L 19.5 6.75 L 19.5 6 Z M 18 6.855469 L 17.25 7.5 L 17.25 9.75 L 14.625 9.75 L 13.5 10.714844 L 13.5 13.5 L 10.5 13.5 L 10.5 13.285156 L 9.375 14.25 L 9.75 14.25 L 9.75 17.25 L 6.75 17.25 L 6.75 16.5 L 6 17.144531 L 6 17.25 L 5.875 17.25 L 5 18 L 6 18 L 6 19.5 L 6.75 19.5 L 6.75 18 L 9.75 18 L 9.75 19.5 L 10.5 19.5 L 10.5 18 L 13.5 18 L 13.5 19.5 L 14.25 19.5 L 14.25 18 L 17.25 18 L 17.25 19.5 L 18 19.5 L 18 18 L 19.5 18 L 19.5 17.25 L 18 17.25 L 18 14.25 L 19.5 14.25 L 19.5 13.5 L 18 13.5 L 18 10.5 L 19.5 10.5 L 19.5 9.75 L 18 9.75 Z M 14.25 10.5 L 17.25 10.5 L 17.25 13.5 L 14.25 13.5 Z M 10.5 14.25 L 13.5 14.25 L 13.5 17.25 L 10.5 17.25 Z M 14.25 14.25 L 17.25 14.25 L 17.25 17.25 L 14.25 17.25 Z M 14.25 14.25 "/>
<path style=" stroke:none;fill-rule:nonzero;fill:rgb(87.843138%,87.843138%,87.843138%);fill-opacity:1;" d="M 5.4375 6.335938 C 5.332031 6.335938 5.25 6.417969 5.25 6.523438 L 5.25 7.117188 C 4.480469 7.253906 3.984375 7.796875 3.984375 8.398438 C 3.984375 8.996094 4.480469 9.539062 5.25 9.675781 L 5.25 10.769531 C 4.949219 10.65625 4.8125 10.441406 4.8125 10.441406 C 4.757812 10.355469 4.671875 10.300781 4.574219 10.28125 C 4.476562 10.257812 4.375 10.28125 4.292969 10.335938 C 4.210938 10.390625 4.152344 10.476562 4.132812 10.574219 C 4.113281 10.671875 4.132812 10.773438 4.1875 10.855469 C 4.1875 10.855469 4.558594 11.386719 5.25 11.539062 L 5.25 12.148438 C 5.25 12.25 5.332031 12.335938 5.4375 12.335938 L 5.8125 12.335938 C 5.917969 12.335938 6 12.25 6 12.148438 L 6 11.550781 C 6.769531 11.417969 7.265625 10.875 7.265625 10.273438 C 7.265625 9.671875 6.769531 9.128906 6 8.992188 L 6 7.902344 C 6.300781 8.011719 6.4375 8.230469 6.4375 8.230469 C 6.550781 8.402344 6.785156 8.449219 6.957031 8.332031 C 7.128906 8.21875 7.175781 7.988281 7.0625 7.816406 C 7.0625 7.816406 6.695312 7.28125 6 7.128906 L 6 6.523438 C 6 6.417969 5.917969 6.335938 5.8125 6.335938 Z M 5.25 7.875 L 5.25 8.917969 C 4.855469 8.824219 4.734375 8.589844 4.734375 8.398438 C 4.734375 8.203125 4.855469 7.96875 5.25 7.875 Z M 6 9.75 C 6.394531 9.84375 6.515625 10.082031 6.515625 10.273438 C 6.515625 10.464844 6.394531 10.703125 6 10.792969 Z M 7.6875 11.585938 C 7.582031 11.585938 7.5 11.667969 7.5 11.773438 L 7.5 12.148438 C 7.5 12.25 7.582031 12.335938 7.6875 12.335938 L 9.5625 12.335938 C 9.667969 12.335938 9.75 12.25 9.75 12.148438 L 9.75 11.773438 C 9.75 11.667969 9.667969 11.585938 9.5625 11.585938 Z M 7.6875 11.585938 "/>
<path style=" stroke:none;fill-rule:nonzero;fill:url(#linear0);" d="M 5.4375 6.335938 C 5.332031 6.335938 5.25 6.417969 5.25 6.523438 L 5.25 7.117188 C 4.480469 7.253906 3.984375 7.796875 3.984375 8.398438 C 3.984375 8.996094 4.480469 9.539062 5.25 9.675781 L 5.25 10.769531 C 4.949219 10.65625 4.8125 10.441406 4.8125 10.441406 C 4.757812 10.355469 4.671875 10.300781 4.574219 10.28125 C 4.476562 10.257812 4.375 10.28125 4.292969 10.335938 C 4.210938 10.390625 4.152344 10.476562 4.132812 10.574219 C 4.113281 10.671875 4.132812 10.773438 4.1875 10.855469 C 4.1875 10.855469 4.558594 11.386719 5.25 11.539062 L 5.25 12.148438 C 5.25 12.25 5.332031 12.335938 5.4375 12.335938 L 5.8125 12.335938 C 5.917969 12.335938 6 12.25 6 12.148438 L 6 11.550781 C 6.769531 11.417969 7.265625 10.875 7.265625 10.273438 C 7.265625 9.671875 6.769531 9.128906 6 8.992188 L 6 7.902344 C 6.300781 8.011719 6.4375 8.230469 6.4375 8.230469 C 6.550781 8.402344 6.785156 8.449219 6.957031 8.332031 C 7.128906 8.21875 7.175781 7.988281 7.0625 7.816406 C 7.0625 7.816406 6.695312 7.28125 6 7.128906 L 6 6.523438 C 6 6.417969 5.917969 6.335938 5.8125 6.335938 Z M 5.25 7.875 L 5.25 8.917969 C 4.855469 8.824219 4.734375 8.589844 4.734375 8.398438 C 4.734375 8.203125 4.855469 7.96875 5.25 7.875 Z M 6 9.75 C 6.394531 9.84375 6.515625 10.082031 6.515625 10.273438 C 6.515625 10.464844 6.394531 10.703125 6 10.792969 Z M 7.6875 11.585938 C 7.582031 11.585938 7.5 11.667969 7.5 11.773438 L 7.5 12.148438 C 7.5 12.25 7.582031 12.335938 7.6875 12.335938 L 9.5625 12.335938 C 9.667969 12.335938 9.75 12.25 9.75 12.148438 L 9.75 11.773438 C 9.75 11.667969 9.667969 11.585938 9.5625 11.585938 Z M 7.6875 11.585938 "/>
<path style=" stroke:none;fill-rule:nonzero;fill:rgb(0%,0%,0%);fill-opacity:0.4;" d="M 5.25 7.875 C 4.855469 7.96875 4.734375 8.203125 4.734375 8.398438 C 4.734375 8.425781 4.742188 8.457031 4.75 8.492188 C 4.785156 8.320312 4.917969 8.140625 5.25 8.0625 Z M 6 7.902344 L 6 8.089844 C 6.300781 8.199219 6.4375 8.417969 6.4375 8.417969 C 6.550781 8.589844 6.785156 8.636719 6.957031 8.519531 C 7.089844 8.433594 7.152344 8.269531 7.113281 8.113281 C 7.089844 8.203125 7.035156 8.28125 6.957031 8.332031 C 6.785156 8.449219 6.550781 8.402344 6.4375 8.230469 C 6.4375 8.230469 6.300781 8.011719 6 7.902344 Z M 3.992188 8.492188 C 3.992188 8.523438 3.984375 8.550781 3.984375 8.582031 C 3.984375 9.183594 4.480469 9.726562 5.25 9.863281 L 5.25 9.675781 C 4.519531 9.546875 4.042969 9.050781 3.992188 8.488281 Z M 6 9.75 L 6 9.9375 C 6.332031 10.015625 6.464844 10.195312 6.5 10.367188 C 6.507812 10.335938 6.515625 10.304688 6.515625 10.273438 C 6.515625 10.082031 6.394531 9.84375 6 9.75 Z M 7.253906 10.367188 C 7.207031 10.929688 6.730469 11.425781 6 11.550781 L 6 11.738281 C 6.769531 11.605469 7.265625 11.0625 7.265625 10.460938 C 7.265625 10.429688 7.257812 10.398438 7.253906 10.367188 Z M 4.136719 10.742188 C 4.109375 10.84375 4.128906 10.953125 4.1875 11.042969 C 4.1875 11.042969 4.558594 11.574219 5.25 11.726562 L 5.25 11.539062 C 4.558594 11.386719 4.1875 10.855469 4.1875 10.855469 C 4.164062 10.820312 4.144531 10.78125 4.136719 10.742188 Z M 5.25 12.148438 L 5.25 12.335938 C 5.25 12.4375 5.332031 12.523438 5.4375 12.523438 L 5.8125 12.523438 C 5.917969 12.523438 6 12.4375 6 12.335938 L 6 12.148438 C 6 12.25 5.917969 12.335938 5.8125 12.335938 L 5.4375 12.335938 C 5.332031 12.335938 5.25 12.25 5.25 12.148438 Z M 7.5 12.148438 L 7.5 12.335938 C 7.5 12.4375 7.582031 12.523438 7.6875 12.523438 L 9.5625 12.523438 C 9.667969 12.523438 9.75 12.4375 9.75 12.335938 L 9.75 12.148438 C 9.75 12.25 9.667969 12.335938 9.5625 12.335938 L 7.6875 12.335938 C 7.582031 12.335938 7.5 12.25 7.5 12.148438 Z M 7.5 12.148438 "/>
<path style=" stroke:none;fill-rule:nonzero;fill:rgb(99.607843%,99.607843%,99.607843%);fill-opacity:0.4;" d="M 5.4375 6.335938 C 5.332031 6.335938 5.25 6.417969 5.25 6.523438 L 5.25 6.710938 C 5.25 6.605469 5.332031 6.523438 5.4375 6.523438 L 5.8125 6.523438 C 5.917969 6.523438 6 6.605469 6 6.710938 L 6 6.523438 C 6 6.417969 5.917969 6.335938 5.8125 6.335938 Z M 5.25 7.117188 C 4.480469 7.253906 3.984375 7.796875 3.984375 8.398438 C 3.984375 8.429688 3.992188 8.457031 3.992188 8.492188 C 4.042969 7.929688 4.519531 7.433594 5.25 7.304688 Z M 6 7.128906 L 6 7.316406 C 6.695312 7.46875 7.0625 8.003906 7.0625 8.003906 C 7.085938 8.035156 7.101562 8.074219 7.113281 8.113281 C 7.136719 8.011719 7.121094 7.902344 7.0625 7.816406 C 7.0625 7.816406 6.695312 7.28125 6 7.128906 Z M 4.75 8.488281 C 4.742188 8.523438 4.734375 8.554688 4.734375 8.582031 C 4.734375 8.777344 4.855469 9.011719 5.25 9.105469 L 5.25 8.917969 C 4.917969 8.839844 4.785156 8.660156 4.75 8.488281 Z M 6 8.992188 L 6 9.179688 C 6.730469 9.308594 7.207031 9.804688 7.253906 10.367188 C 7.257812 10.335938 7.265625 10.304688 7.265625 10.273438 C 7.265625 9.671875 6.769531 9.125 6 8.992188 Z M 4.492188 10.273438 C 4.417969 10.273438 4.351562 10.296875 4.292969 10.335938 C 4.160156 10.421875 4.097656 10.585938 4.136719 10.742188 C 4.160156 10.652344 4.214844 10.574219 4.292969 10.523438 C 4.375 10.464844 4.476562 10.445312 4.574219 10.464844 C 4.671875 10.488281 4.757812 10.542969 4.8125 10.628906 C 4.8125 10.628906 4.949219 10.84375 5.25 10.957031 L 5.25 10.769531 C 4.949219 10.65625 4.8125 10.441406 4.8125 10.441406 C 4.742188 10.332031 4.621094 10.269531 4.492188 10.273438 Z M 6.5 10.367188 C 6.464844 10.539062 6.332031 10.714844 6 10.792969 L 6 10.980469 C 6.394531 10.890625 6.515625 10.652344 6.515625 10.460938 C 6.515625 10.429688 6.507812 10.398438 6.5 10.367188 Z M 7.6875 11.585938 C 7.582031 11.585938 7.5 11.667969 7.5 11.773438 L 7.5 11.960938 C 7.5 11.855469 7.582031 11.773438 7.6875 11.773438 L 9.5625 11.773438 C 9.667969 11.773438 9.75 11.855469 9.75 11.960938 L 9.75 11.773438 C 9.75 11.667969 9.667969 11.585938 9.5625 11.585938 Z M 7.6875 11.585938 "/>
<path style=" stroke:none;fill-rule:nonzero;fill:rgb(0%,0%,0%);fill-opacity:0.4;" d="M 2.625 3.75 C 2.832031 3.75 3 3.917969 3 4.125 C 3 4.332031 2.832031 4.5 2.625 4.5 C 2.417969 4.5 2.25 4.332031 2.25 4.125 C 2.25 3.917969 2.417969 3.75 2.625 3.75 Z M 2.625 3.75 "/>
<path style=" stroke:none;fill-rule:nonzero;fill:rgb(0%,0%,0%);fill-opacity:0.4;" d="M 2.625 3.75 C 2.417969 3.75 2.25 3.917969 2.25 4.125 C 2.25 4.160156 2.261719 4.1875 2.269531 4.21875 C 2.3125 4.058594 2.449219 3.9375 2.625 3.9375 C 2.800781 3.9375 2.9375 4.058594 2.980469 4.21875 C 2.988281 4.1875 3 4.160156 3 4.125 C 3 3.917969 2.832031 3.75 2.625 3.75 Z M 2.625 3.75 "/>
<path style=" stroke:none;fill-rule:nonzero;fill:rgb(100%,100%,100%);fill-opacity:0.4;" d="M 2.625 4.6875 C 2.417969 4.6875 2.25 4.519531 2.25 4.3125 C 2.25 4.277344 2.261719 4.25 2.269531 4.21875 C 2.3125 4.378906 2.449219 4.5 2.625 4.5 C 2.800781 4.5 2.9375 4.378906 2.980469 4.21875 C 2.988281 4.25 3 4.277344 3 4.3125 C 3 4.519531 2.832031 4.6875 2.625 4.6875 Z M 2.625 4.6875 "/>
<path style=" stroke:none;fill-rule:nonzero;fill:rgb(0%,0%,0%);fill-opacity:0.4;" d="M 21.394531 3.75 C 21.601562 3.75 21.769531 3.917969 21.769531 4.125 C 21.769531 4.332031 21.601562 4.5 21.394531 4.5 C 21.1875 4.5 21.019531 4.332031 21.019531 4.125 C 21.019531 3.917969 21.1875 3.75 21.394531 3.75 Z M 21.394531 3.75 "/>
<path style=" stroke:none;fill-rule:nonzero;fill:rgb(0%,0%,0%);fill-opacity:0.4;" d="M 21.394531 3.75 C 21.1875 3.75 21.019531 3.917969 21.019531 4.125 C 21.019531 4.160156 21.03125 4.1875 21.039062 4.21875 C 21.082031 4.058594 21.21875 3.9375 21.394531 3.9375 C 21.570312 3.9375 21.707031 4.058594 21.75 4.21875 C 21.757812 4.1875 21.769531 4.15625 21.769531 4.125 C 21.769531 3.917969 21.601562 3.75 21.394531 3.75 Z M 21.394531 3.75 "/>
<path style=" stroke:none;fill-rule:nonzero;fill:rgb(100%,100%,100%);fill-opacity:0.4;" d="M 21.394531 4.6875 C 21.1875 4.6875 21.019531 4.519531 21.019531 4.3125 C 21.019531 4.277344 21.03125 4.25 21.039062 4.21875 C 21.082031 4.378906 21.21875 4.5 21.394531 4.5 C 21.570312 4.5 21.707031 4.378906 21.75 4.21875 C 21.757812 4.25 21.769531 4.277344 21.769531 4.3125 C 21.769531 4.519531 21.601562 4.6875 21.394531 4.6875 Z M 21.394531 4.6875 "/>
<path style=" stroke:none;fill-rule:nonzero;fill:rgb(0%,0%,0%);fill-opacity:0.4;" d="M 2.625 19.3125 C 2.832031 19.3125 3 19.480469 3 19.6875 C 3 19.894531 2.832031 20.0625 2.625 20.0625 C 2.417969 20.0625 2.25 19.894531 2.25 19.6875 C 2.25 19.480469 2.417969 19.3125 2.625 19.3125 Z M 2.625 19.3125 "/>
<path style=" stroke:none;fill-rule:nonzero;fill:rgb(0%,0%,0%);fill-opacity:0.4;" d="M 2.625 19.3125 C 2.417969 19.3125 2.25 19.480469 2.25 19.6875 C 2.25 19.722656 2.261719 19.75 2.269531 19.78125 C 2.3125 19.621094 2.449219 19.5 2.625 19.5 C 2.800781 19.5 2.9375 19.621094 2.980469 19.78125 C 2.988281 19.75 3 19.71875 3 19.6875 C 3 19.480469 2.832031 19.3125 2.625 19.3125 Z M 2.625 19.3125 "/>
<path style=" stroke:none;fill-rule:nonzero;fill:rgb(100%,100%,100%);fill-opacity:0.4;" d="M 2.625 20.25 C 2.417969 20.25 2.25 20.082031 2.25 19.875 C 2.25 19.839844 2.261719 19.8125 2.269531 19.78125 C 2.3125 19.941406 2.449219 20.0625 2.625 20.0625 C 2.800781 20.0625 2.9375 19.941406 2.980469 19.78125 C 2.988281 19.8125 3 19.839844 3 19.875 C 3 20.082031 2.832031 20.25 2.625 20.25 Z M 2.625 20.25 "/>
<path style=" stroke:none;fill-rule:nonzero;fill:rgb(0%,0%,0%);fill-opacity:0.4;" d="M 21.394531 19.3125 C 21.601562 19.3125 21.769531 19.480469 21.769531 19.6875 C 21.769531 19.894531 21.601562 20.0625 21.394531 20.0625 C 21.1875 20.0625 21.019531 19.894531 21.019531 19.6875 C 21.019531 19.480469 21.1875 19.3125 21.394531 19.3125 Z M 21.394531 19.3125 "/>
<path style=" stroke:none;fill-rule:nonzero;fill:rgb(0%,0%,0%);fill-opacity:0.4;" d="M 21.394531 19.3125 C 21.1875 19.3125 21.019531 19.480469 21.019531 19.6875 C 21.019531 19.722656 21.03125 19.75 21.039062 19.78125 C 21.082031 19.621094 21.21875 19.5 21.394531 19.5 C 21.570312 19.5 21.707031 19.621094 21.75 19.78125 C 21.757812 19.75 21.769531 19.71875 21.769531 19.6875 C 21.769531 19.480469 21.601562 19.3125 21.394531 19.3125 Z M 21.394531 19.3125 "/>
<path style=" stroke:none;fill-rule:nonzero;fill:rgb(100%,100%,100%);fill-opacity:0.4;" d="M 21.394531 20.25 C 21.1875 20.25 21.019531 20.082031 21.019531 19.875 C 21.019531 19.839844 21.03125 19.8125 21.039062 19.78125 C 21.082031 19.941406 21.21875 20.0625 21.394531 20.0625 C 21.570312 20.0625 21.707031 19.941406 21.75 19.78125 C 21.757812 19.8125 21.769531 19.839844 21.769531 19.875 C 21.769531 20.082031 21.601562 20.25 21.394531 20.25 Z M 21.394531 20.25 "/>
<path style=" stroke:none;fill-rule:nonzero;fill:rgb(100%,100%,100%);fill-opacity:0.4;" d="M 3 3 C 2.167969 3 1.5 3.667969 1.5 4.5 L 1.5 4.863281 C 1.5 4.03125 2.167969 3.363281 3 3.363281 L 21 3.363281 C 21.832031 3.363281 22.5 4.03125 22.5 4.863281 L 22.5 4.5 C 22.5 3.667969 21.832031 3 21 3 Z M 3 3 "/>
<path style=" stroke:none;fill-rule:nonzero;fill:rgb(0.392157%,0.392157%,0.392157%);fill-opacity:0.4;" d="M 3 20.996094 C 2.167969 20.996094 1.5 20.328125 1.5 19.496094 L 1.5 19.132812 C 1.5 19.964844 2.167969 20.632812 3 20.632812 L 21 20.632812 C 21.832031 20.632812 22.5 19.964844 22.5 19.132812 L 22.5 19.496094 C 22.5 20.328125 21.832031 20.996094 21 20.996094 Z M 3 20.996094 "/>
<path style=" stroke:none;fill-rule:nonzero;fill:rgb(0%,0%,0%);fill-opacity:0.2;" d="M 1.5 19.5 L 1.5 20.0625 C 1.5 20.894531 2.167969 21.5625 3 21.5625 L 21 21.5625 C 21.832031 21.5625 22.5 20.894531 22.5 20.0625 L 22.5 19.5 C 22.5 20.332031 21.832031 21 21 21 L 3 21 C 2.167969 21 1.5 20.332031 1.5 19.5 Z M 1.5 19.5 "/>
<path style=" stroke:none;fill-rule:nonzero;fill:url(#linear1);" d="M 12 5.25 C 6.597656 5.25 2.25 5.332031 2.25 5.4375 C 2.25 5.542969 6.597656 5.625 12 5.625 C 15.050781 5.625 17.734375 5.597656 19.519531 5.554688 L 19.785156 5.324219 C 18.011719 5.28125 15.203125 5.25 12 5.25 Z M 12 6.375 C 6.597656 6.375 2.25 6.457031 2.25 6.5625 C 2.25 6.667969 6.597656 6.75 12 6.75 C 14.386719 6.75 16.488281 6.730469 18.179688 6.703125 L 18.503906 6.425781 C 16.777344 6.394531 14.527344 6.375 12 6.375 Z M 12 7.5 C 6.597656 7.5 2.25 7.582031 2.25 7.6875 C 2.25 7.792969 6.597656 7.875 12 7.875 C 13.804688 7.875 15.398438 7.863281 16.84375 7.847656 L 17.210938 7.53125 C 15.683594 7.515625 13.964844 7.5 12 7.5 Z M 12 8.625 C 6.597656 8.625 2.25 8.707031 2.25 8.8125 C 2.25 8.917969 6.597656 9 12 9 C 13.25 9 14.421875 8.996094 15.515625 8.988281 L 15.917969 8.640625 C 14.714844 8.632812 13.402344 8.625 12 8.625 Z M 12 9.75 C 6.597656 9.75 2.25 9.832031 2.25 9.9375 C 2.25 10.042969 6.597656 10.125 12 10.125 C 12.78125 10.125 13.472656 10.121094 14.195312 10.117188 L 14.613281 9.761719 C 13.765625 9.753906 12.929688 9.75 12 9.75 Z M 12 10.875 C 6.597656 10.875 2.25 10.957031 2.25 11.0625 C 2.25 11.167969 6.597656 11.25 12 11.25 C 12.3125 11.25 12.574219 11.246094 12.878906 11.246094 L 13.304688 10.878906 C 12.859375 10.878906 12.464844 10.875 12 10.875 Z M 12 12 C 6.597656 12 2.25 12.082031 2.25 12.1875 C 2.25 12.289062 6.378906 12.367188 11.5625 12.375 Z M 10.679688 13.128906 C 5.9375 13.144531 2.25 13.21875 2.25 13.3125 C 2.25 13.40625 5.726562 13.476562 10.257812 13.492188 Z M 9.363281 14.261719 C 5.28125 14.28125 2.25 14.351562 2.25 14.4375 C 2.25 14.519531 5.074219 14.589844 8.949219 14.613281 Z M 8.042969 15.390625 C 4.632812 15.421875 2.25 15.484375 2.25 15.5625 C 2.25 15.636719 4.476562 15.695312 7.648438 15.726562 Z M 6.710938 16.535156 C 4.082031 16.566406 2.25 16.621094 2.25 16.6875 C 2.25 16.75 3.929688 16.800781 6.359375 16.835938 Z M 5.378906 17.675781 C 3.472656 17.710938 2.25 17.757812 2.25 17.8125 C 2.25 17.863281 3.324219 17.910156 5.066406 17.945312 Z M 4.03125 18.828125 C 2.917969 18.859375 2.25 18.898438 2.25 18.9375 C 2.25 18.976562 2.824219 19.007812 3.789062 19.039062 Z M 4.03125 18.828125 "/>
<path style=" stroke:none;fill-rule:nonzero;fill:rgb(14.901961%,65.098041%,60.392159%);fill-opacity:1;" d="M 16.820312 7.867188 L 16.242188 8.363281 L 18.425781 12.183594 C 18.492188 12.300781 18.617188 12.371094 18.75 12.375 L 20.242188 12.375 C 20.246094 12.375 20.246094 12.375 20.25 12.375 L 20.8125 12.375 C 20.917969 12.375 21 12.292969 21 12.1875 L 21 11.8125 C 21 11.707031 20.917969 11.625 20.8125 11.625 L 18.96875 11.625 Z M 15.0625 9.375 L 13.800781 10.457031 L 11.949219 14.894531 L 10.878906 12.960938 L 10.300781 13.457031 L 11.671875 15.929688 C 11.742188 16.054688 11.878906 16.128906 12.019531 16.125 C 12.164062 16.117188 12.289062 16.027344 12.347656 15.894531 Z M 15.0625 9.375 "/>
<path style=" stroke:none;fill-rule:nonzero;fill:rgb(14.901961%,77.64706%,85.490197%);fill-opacity:0.2;" d="M 17.382812 7.382812 L 15.660156 8.863281 L 17.773438 12.558594 C 17.972656 12.90625 18.347656 13.121094 18.746094 13.125 C 18.746094 13.125 18.75 13.125 18.75 13.125 L 20.226562 13.125 C 20.183594 13.125 20.082031 13.125 20.25 13.125 L 20.8125 13.125 C 21.320312 13.125 21.75 12.695312 21.75 12.1875 L 21.75 11.8125 C 21.75 11.304688 21.320312 10.875 20.8125 10.875 L 19.402344 10.875 L 17.472656 7.496094 C 17.445312 7.457031 17.417969 7.417969 17.382812 7.382812 Z M 15.632812 8.886719 L 12.535156 11.542969 L 11.855469 13.175781 L 11.535156 12.597656 C 11.507812 12.554688 11.476562 12.515625 11.441406 12.476562 L 9.71875 13.957031 L 11.019531 16.296875 C 11.449219 17.070312 12.691406 17.003906 13.039062 16.1875 C 13.039062 16.1875 13.039062 16.183594 13.039062 16.183594 L 15.757812 9.664062 C 15.863281 9.402344 15.816406 9.101562 15.632812 8.886719 Z M 15.632812 8.886719 "/>
<path style=" stroke:none;fill-rule:nonzero;fill:rgb(50.196081%,87.058824%,91.764706%);fill-opacity:1;" d="M 16.820312 7.867188 L 16.242188 8.363281 L 18.425781 12.183594 C 18.492188 12.300781 18.617188 12.371094 18.75 12.375 L 20.242188 12.375 C 20.246094 12.375 20.246094 12.375 20.25 12.375 L 20.8125 12.375 C 20.917969 12.375 21 12.292969 21 12.1875 L 21 11.8125 C 21 11.707031 20.917969 11.625 20.8125 11.625 L 18.96875 11.625 Z M 15.0625 9.375 L 13.796875 10.457031 L 11.949219 14.894531 L 10.878906 12.960938 L 10.300781 13.457031 L 11.671875 15.929688 C 11.742188 16.054688 11.878906 16.128906 12.019531 16.125 C 12.164062 16.117188 12.289062 16.027344 12.347656 15.894531 Z M 15.0625 9.375 "/>
<path style=" stroke:none;fill-rule:nonzero;fill:rgb(0%,0%,0%);fill-opacity:0.4;" d="M 16.242188 8.363281 L 16.167969 8.425781 L 18.425781 12.371094 C 18.492188 12.488281 18.617188 12.558594 18.75 12.5625 L 20.242188 12.5625 C 20.246094 12.5625 20.246094 12.5625 20.25 12.5625 L 20.8125 12.5625 C 20.917969 12.5625 21 12.480469 21 12.375 L 21 12.1875 C 21 12.292969 20.917969 12.375 20.8125 12.375 L 20.25 12.375 C 20.246094 12.375 20.246094 12.375 20.242188 12.375 L 18.75 12.375 C 18.617188 12.371094 18.492188 12.300781 18.425781 12.183594 Z M 15.183594 9.269531 L 15.0625 9.375 L 12.347656 15.894531 C 12.289062 16.027344 12.164062 16.117188 12.019531 16.125 C 11.878906 16.128906 11.742188 16.054688 11.671875 15.929688 L 10.300781 13.457031 L 10.230469 13.519531 L 11.671875 16.117188 C 11.742188 16.242188 11.878906 16.316406 12.019531 16.3125 C 12.164062 16.304688 12.289062 16.214844 12.347656 16.082031 Z M 15.183594 9.269531 "/>
<path style=" stroke:none;fill-rule:nonzero;fill:rgb(100%,100%,100%);fill-opacity:0.4;" d="M 16.820312 7.867188 L 16.75 7.929688 L 18.96875 11.8125 L 20.8125 11.8125 C 20.917969 11.8125 21 11.894531 21 12 L 21 11.8125 C 21 11.707031 20.917969 11.625 20.8125 11.625 L 18.96875 11.625 Z M 13.921875 10.351562 L 13.796875 10.457031 L 11.949219 14.894531 L 10.878906 12.960938 L 10.808594 13.023438 L 11.949219 15.082031 Z M 13.921875 10.351562 "/>
<path style=" stroke:none;fill-rule:nonzero;fill:url(#linear2);" d="M 3 3 L 21 3 C 21.828125 3 22.5 3.671875 22.5 4.5 L 22.5 19.5 C 22.5 20.328125 21.828125 21 21 21 L 3 21 C 2.171875 21 1.5 20.328125 1.5 19.5 L 1.5 4.5 C 1.5 3.671875 2.171875 3 3 3 Z M 3 3 "/>
</g>
</svg>
