
<svg xmlns="http://www.w3.org/2000/svg" xmlns:xlink="http://www.w3.org/1999/xlink" width="24" height="24" viewBox="0 0 24 24" version="1.1">
<defs>
<linearGradient id="linear0" gradientUnits="userSpaceOnUse" x1="31.999998" y1="59.999996" x2="31.999998" y2="3.999999" gradientTransform="matrix(0.375,0,0,0.375,-0.00000153071,0.000000000000042633)">
<stop offset="0" style="stop-color:rgb(0%,0%,0%);stop-opacity:0.2;"/>
<stop offset="1" style="stop-color:rgb(100%,100%,100%);stop-opacity:0;"/>
</linearGradient>
</defs>
<g id="surface1">
<path style=" stroke:none;fill-rule:nonzero;fill:rgb(92.54902%,25.098041%,47.843137%);fill-opacity:0.996078;" d="M 15.75 1.5 L 20.25 6 L 20.25 3 C 20.25 2.167969 19.582031 1.5 18.75 1.5 Z M 15.75 1.5 "/>
<path style=" stroke:none;fill-rule:nonzero;fill:rgb(92.54902%,25.098041%,47.843137%);fill-opacity:1;" d="M 15 1.5 L 4.875 1.5 C 4.25 1.5 3.75 2 3.75 2.625 L 3.75 21.375 C 3.75 22 4.25 22.5 4.875 22.5 L 19.125 22.5 C 19.75 22.5 20.25 22 20.25 21.375 L 20.25 6.75 Z M 15 1.5 "/>
<path style=" stroke:none;fill-rule:nonzero;fill:rgb(100%,100%,100%);fill-opacity:0.4;" d="M 4.875 1.5 C 4.25 1.5 3.75 2 3.75 2.625 L 3.75 3 C 3.75 2.375 4.25 1.875 4.875 1.875 L 15 1.875 L 20.25 7.125 L 20.25 6.75 L 15 1.5 Z M 4.875 1.5 "/>
<path style=" stroke:none;fill-rule:nonzero;fill:rgb(0%,0%,0%);fill-opacity:0.2;" d="M 3.75 21.371094 L 3.75 21.9375 C 3.75 22.5625 4.25 23.0625 4.875 23.0625 L 19.125 23.0625 C 19.75 23.0625 20.25 22.5625 20.25 21.9375 L 20.25 21.371094 C 20.25 21.992188 19.75 22.496094 19.125 22.496094 L 4.875 22.496094 C 4.25 22.496094 3.75 21.992188 3.75 21.371094 Z M 3.75 21.371094 "/>
<path style=" stroke:none;fill-rule:nonzero;fill:rgb(0%,0%,0%);fill-opacity:0.4;" d="M 3.75 21.046875 L 3.75 21.375 C 3.75 22 4.25 22.5 4.875 22.5 L 19.125 22.5 C 19.75 22.5 20.25 22 20.25 21.375 L 20.25 21.046875 C 20.25 21.671875 19.75 22.171875 19.125 22.171875 L 4.875 22.171875 C 4.25 22.171875 3.75 21.671875 3.75 21.046875 Z M 3.75 21.046875 "/>
<path style=" stroke:none;fill-rule:nonzero;fill:rgb(100%,100%,100%);fill-opacity:0.4;" d="M 15.75 1.5 L 16.125 1.875 L 18.75 1.875 C 19.582031 1.875 20.25 2.542969 20.25 3.375 L 20.25 3 C 20.25 2.167969 19.582031 1.5 18.75 1.5 Z M 15.75 1.5 "/>
<path style=" stroke:none;fill-rule:nonzero;fill:rgb(0.784314%,0.784314%,0.784314%);fill-opacity:0.4;" d="M 15.75 1.5 L 20.25 6 L 20.25 5.625 L 16.125 1.5 Z M 15.75 1.5 "/>
<path style=" stroke:none;fill-rule:nonzero;fill:rgb(93.333334%,93.333334%,93.333334%);fill-opacity:0.996078;" d="M 6 3 C 5.585938 3 5.25 3.335938 5.25 3.75 L 5.25 20.25 C 5.25 20.664062 5.585938 21 6 21 L 18 21 C 18.414062 21 18.75 20.664062 18.75 20.25 L 18.75 7.5 L 14.25 3 Z M 6 3 "/>
<path style=" stroke:none;fill-rule:nonzero;fill:rgb(100%,100%,100%);fill-opacity:0.8;" d="M 6 3 C 5.585938 3 5.25 3.335938 5.25 3.75 L 5.25 4.125 C 5.25 3.710938 5.585938 3.375 6 3.375 L 14.25 3.375 L 18.75 7.875 L 18.75 7.5 L 14.25 3 Z M 6 3 "/>
<path style=" stroke:none;fill-rule:nonzero;fill:rgb(5.490196%,5.490196%,5.490196%);fill-opacity:0.4;" d="M 5.25 20.25 L 5.25 20.625 C 5.25 21.039062 5.585938 21.375 6 21.375 L 18 21.375 C 18.414062 21.375 18.75 21.039062 18.75 20.625 L 18.75 20.25 C 18.75 20.664062 18.414062 21 18 21 L 6 21 C 5.585938 21 5.25 20.664062 5.25 20.25 Z M 5.25 20.25 "/>
<path style=" stroke:none;fill-rule:nonzero;fill:rgb(100%,100%,100%);fill-opacity:0.8;" d="M 6 3 C 5.585938 3 5.25 3.335938 5.25 3.75 L 5.25 4.125 C 5.25 3.710938 5.585938 3.375 6 3.375 L 14.25 3.375 L 18.75 7.875 L 18.75 7.5 L 14.25 3 Z M 6 3 "/>
<path style=" stroke:none;fill-rule:nonzero;fill:rgb(92.54902%,25.098041%,47.843137%);fill-opacity:1;" d="M 12 7.5 C 9.921875 7.5 8.25 8 8.25 8.625 L 8.25 9.375 C 8.25 10 9.921875 10.5 12 10.5 C 14.078125 10.5 15.75 10 15.75 9.375 L 15.75 8.625 C 15.75 8 14.078125 7.5 12 7.5 Z M 9.515625 10.78125 C 8.738281 10.988281 8.25 11.289062 8.25 11.625 L 8.25 12.375 C 8.25 13 9.921875 13.5 12 13.5 C 14.078125 13.5 15.75 13 15.75 12.375 L 15.75 11.625 C 15.75 11.289062 15.261719 10.988281 14.484375 10.78125 C 13.824219 10.957031 12.953125 11.0625 12 11.0625 C 11.046875 11.0625 10.175781 10.957031 9.515625 10.78125 Z M 9.515625 13.78125 C 8.738281 13.988281 8.25 14.289062 8.25 14.625 L 8.25 15.375 C 8.25 16 9.921875 16.5 12 16.5 C 14.078125 16.5 15.75 16 15.75 15.375 L 15.75 14.625 C 15.75 14.289062 15.261719 13.988281 14.484375 13.78125 C 13.824219 13.957031 12.953125 14.0625 12 14.0625 C 11.046875 14.0625 10.175781 13.957031 9.515625 13.78125 Z M 9.515625 13.78125 "/>
<path style=" stroke:none;fill-rule:nonzero;fill:rgb(0%,0%,0%);fill-opacity:0.4;" d="M 12 7.5 C 9.921875 7.5 8.25 8 8.25 8.625 L 8.25 9 C 8.25 8.375 9.921875 7.875 12 7.875 C 14.078125 7.875 15.75 8.375 15.75 9 L 15.75 8.625 C 15.75 8 14.078125 7.5 12 7.5 Z M 9.515625 10.78125 C 8.738281 10.988281 8.25 11.289062 8.25 11.625 L 8.25 12 C 8.25 11.664062 8.738281 11.363281 9.515625 11.15625 C 10.175781 11.332031 11.046875 11.4375 12 11.4375 C 12.953125 11.4375 13.824219 11.332031 14.484375 11.15625 C 15.261719 11.363281 15.75 11.664062 15.75 12 L 15.75 11.625 C 15.75 11.289062 15.261719 10.988281 14.484375 10.78125 C 13.824219 10.957031 12.953125 11.0625 12 11.0625 C 11.046875 11.0625 10.175781 10.957031 9.515625 10.78125 Z M 9.515625 13.78125 C 8.738281 13.988281 8.25 14.289062 8.25 14.625 L 8.25 15 C 8.25 14.664062 8.738281 14.363281 9.515625 14.15625 C 10.175781 14.332031 11.046875 14.4375 12 14.4375 C 12.953125 14.4375 13.824219 14.332031 14.484375 14.15625 C 15.261719 14.363281 15.75 14.664062 15.75 15 L 15.75 14.625 C 15.75 14.289062 15.261719 13.988281 14.484375 13.78125 C 13.824219 13.957031 12.953125 14.0625 12 14.0625 C 11.046875 14.0625 10.175781 13.957031 9.515625 13.78125 Z M 9.515625 13.78125 "/>
<path style=" stroke:none;fill-rule:nonzero;fill:rgb(100%,100%,100%);fill-opacity:0.8;" d="M 8.25 9.375 L 8.25 9.75 C 8.25 10.375 9.921875 10.875 12 10.875 C 14.078125 10.875 15.75 10.375 15.75 9.75 L 15.75 9.375 C 15.75 10 14.078125 10.5 12 10.5 C 9.921875 10.5 8.25 10 8.25 9.375 Z M 8.25 12.375 L 8.25 12.75 C 8.25 13.375 9.921875 13.875 12 13.875 C 14.078125 13.875 15.75 13.375 15.75 12.75 L 15.75 12.375 C 15.75 13 14.078125 13.5 12 13.5 C 9.921875 13.5 8.25 13 8.25 12.375 Z M 8.25 15.375 L 8.25 15.75 C 8.25 16.375 9.921875 16.875 12 16.875 C 14.078125 16.875 15.75 16.375 15.75 15.75 L 15.75 15.375 C 15.75 16 14.078125 16.5 12 16.5 C 9.921875 16.5 8.25 16 8.25 15.375 Z M 8.25 15.375 "/>
<path style=" stroke:none;fill-rule:nonzero;fill:url(#linear0);" d="M 4.875 1.5 C 4.25 1.5 3.75 2 3.75 2.625 L 3.75 21.375 C 3.75 22 4.25 22.5 4.875 22.5 L 19.125 22.5 C 19.75 22.5 20.25 22 20.25 21.375 L 20.25 6.75 L 15 1.5 Z M 15.75 1.5 L 20.25 6 L 20.25 3 C 20.25 2.167969 19.582031 1.5 18.75 1.5 Z M 15.75 1.5 "/>
</g>
</svg>
