
<svg xmlns="http://www.w3.org/2000/svg" xmlns:xlink="http://www.w3.org/1999/xlink" width="24" height="24" viewBox="0 0 24 24" version="1.1">
<defs>
<linearGradient id="linear0" gradientUnits="userSpaceOnUse" x1="31.999998" y1="59.999996" x2="31.999998" y2="3.999999" gradientTransform="matrix(0.375,0,0,0.375,-0.00000153071,0.000000000000042633)">
<stop offset="0" style="stop-color:rgb(0%,0%,0%);stop-opacity:0.2;"/>
<stop offset="1" style="stop-color:rgb(100%,100%,100%);stop-opacity:0;"/>
</linearGradient>
</defs>
<g id="surface1">
<path style=" stroke:none;fill-rule:nonzero;fill:rgb(49.411765%,34.117648%,76.078433%);fill-opacity:0.996078;" d="M 15.75 1.5 L 20.25 6 L 20.25 3 C 20.25 2.167969 19.582031 1.5 18.75 1.5 Z M 15.75 1.5 "/>
<path style=" stroke:none;fill-rule:nonzero;fill:rgb(49.411765%,34.117648%,76.078433%);fill-opacity:1;" d="M 15 1.5 L 4.875 1.5 C 4.25 1.5 3.75 2 3.75 2.625 L 3.75 21.375 C 3.75 22 4.25 22.5 4.875 22.5 L 19.125 22.5 C 19.75 22.5 20.25 22 20.25 21.375 L 20.25 6.75 Z M 15 1.5 "/>
<path style=" stroke:none;fill-rule:nonzero;fill:rgb(100%,100%,100%);fill-opacity:0.4;" d="M 4.875 1.5 C 4.25 1.5 3.75 2 3.75 2.625 L 3.75 3 C 3.75 2.375 4.25 1.875 4.875 1.875 L 15 1.875 L 20.25 7.125 L 20.25 6.75 L 15 1.5 Z M 4.875 1.5 "/>
<path style=" stroke:none;fill-rule:nonzero;fill:rgb(0%,0%,0%);fill-opacity:0.2;" d="M 3.75 21.371094 L 3.75 21.9375 C 3.75 22.5625 4.25 23.0625 4.875 23.0625 L 19.125 23.0625 C 19.75 23.0625 20.25 22.5625 20.25 21.9375 L 20.25 21.371094 C 20.25 21.992188 19.75 22.496094 19.125 22.496094 L 4.875 22.496094 C 4.25 22.496094 3.75 21.992188 3.75 21.371094 Z M 3.75 21.371094 "/>
<path style=" stroke:none;fill-rule:nonzero;fill:rgb(0%,0%,0%);fill-opacity:0.4;" d="M 3.75 21.046875 L 3.75 21.375 C 3.75 22 4.25 22.5 4.875 22.5 L 19.125 22.5 C 19.75 22.5 20.25 22 20.25 21.375 L 20.25 21.046875 C 20.25 21.671875 19.75 22.171875 19.125 22.171875 L 4.875 22.171875 C 4.25 22.171875 3.75 21.671875 3.75 21.046875 Z M 3.75 21.046875 "/>
<path style=" stroke:none;fill-rule:nonzero;fill:rgb(100%,100%,100%);fill-opacity:0.4;" d="M 15.75 1.5 L 16.125 1.875 L 18.75 1.875 C 19.582031 1.875 20.25 2.542969 20.25 3.375 L 20.25 3 C 20.25 2.167969 19.582031 1.5 18.75 1.5 Z M 15.75 1.5 "/>
<path style=" stroke:none;fill-rule:nonzero;fill:rgb(0.784314%,0.784314%,0.784314%);fill-opacity:0.4;" d="M 15.75 1.5 L 20.25 6 L 20.25 5.625 L 16.125 1.5 Z M 15.75 1.5 "/>
<path style=" stroke:none;fill-rule:nonzero;fill:rgb(93.333334%,93.333334%,93.333334%);fill-opacity:0.996078;" d="M 6 3 C 5.585938 3 5.25 3.335938 5.25 3.75 L 5.25 20.25 C 5.25 20.664062 5.585938 21 6 21 L 18 21 C 18.414062 21 18.75 20.664062 18.75 20.25 L 18.75 7.5 L 14.25 3 Z M 6 3 "/>
<path style=" stroke:none;fill-rule:nonzero;fill:rgb(100%,100%,100%);fill-opacity:0.8;" d="M 6 3 C 5.585938 3 5.25 3.335938 5.25 3.75 L 5.25 4.125 C 5.25 3.710938 5.585938 3.375 6 3.375 L 14.25 3.375 L 18.75 7.875 L 18.75 7.5 L 14.25 3 Z M 6 3 "/>
<path style=" stroke:none;fill-rule:nonzero;fill:rgb(5.490196%,5.490196%,5.490196%);fill-opacity:0.4;" d="M 5.25 20.25 L 5.25 20.625 C 5.25 21.039062 5.585938 21.375 6 21.375 L 18 21.375 C 18.414062 21.375 18.75 21.039062 18.75 20.625 L 18.75 20.25 C 18.75 20.664062 18.414062 21 18 21 L 6 21 C 5.585938 21 5.25 20.664062 5.25 20.25 Z M 5.25 20.25 "/>
<path style=" stroke:none;fill-rule:nonzero;fill:rgb(100%,100%,100%);fill-opacity:0.8;" d="M 6 3 C 5.585938 3 5.25 3.335938 5.25 3.75 L 5.25 4.125 C 5.25 3.710938 5.585938 3.375 6 3.375 L 14.25 3.375 L 18.75 7.875 L 18.75 7.5 L 14.25 3 Z M 6 3 "/>
<path style=" stroke:none;fill-rule:nonzero;fill:rgb(49.411765%,34.117648%,76.078433%);fill-opacity:1;" d="M 8.625 7.5 C 8.417969 7.5 8.25 7.667969 8.25 7.875 C 8.25 8.082031 8.417969 8.25 8.625 8.25 L 15.375 8.25 C 15.582031 8.25 15.75 8.082031 15.75 7.875 C 15.75 7.667969 15.582031 7.5 15.375 7.5 Z M 8.625 9 C 8.417969 9 8.25 9.167969 8.25 9.375 C 8.25 9.582031 8.417969 9.75 8.625 9.75 L 15.375 9.75 C 15.582031 9.75 15.75 9.582031 15.75 9.375 C 15.75 9.167969 15.582031 9 15.375 9 Z M 8.625 10.5 C 8.417969 10.5 8.25 10.667969 8.25 10.875 C 8.25 11.082031 8.417969 11.25 8.625 11.25 L 15.375 11.25 C 15.582031 11.25 15.75 11.082031 15.75 10.875 C 15.75 10.667969 15.582031 10.5 15.375 10.5 Z M 8.625 12 C 8.417969 12 8.25 12.167969 8.25 12.375 C 8.25 12.582031 8.417969 12.75 8.625 12.75 L 15.375 12.75 C 15.582031 12.75 15.75 12.582031 15.75 12.375 C 15.75 12.167969 15.582031 12 15.375 12 Z M 8.625 13.5 C 8.417969 13.5 8.25 13.667969 8.25 13.875 C 8.25 14.082031 8.417969 14.25 8.625 14.25 L 15.375 14.25 C 15.582031 14.25 15.75 14.082031 15.75 13.875 C 15.75 13.667969 15.582031 13.5 15.375 13.5 Z M 8.625 15 C 8.417969 15 8.25 15.167969 8.25 15.375 C 8.25 15.582031 8.417969 15.75 8.625 15.75 L 15.375 15.75 C 15.582031 15.75 15.75 15.582031 15.75 15.375 C 15.75 15.167969 15.582031 15 15.375 15 Z M 8.625 15 "/>
<path style=" stroke:none;fill-rule:nonzero;fill:rgb(0%,0%,0%);fill-opacity:0.4;" d="M 8.625 7.5 C 8.417969 7.5 8.25 7.667969 8.25 7.875 C 8.25 7.90625 8.253906 7.933594 8.261719 7.964844 C 8.253906 7.992188 8.25 8.023438 8.25 8.058594 C 8.25 8.089844 8.253906 8.117188 8.261719 8.148438 C 8.304688 7.984375 8.449219 7.863281 8.625 7.863281 L 15.375 7.863281 C 15.550781 7.863281 15.695312 7.984375 15.738281 8.148438 C 15.746094 8.117188 15.75 8.089844 15.75 8.058594 C 15.75 8.023438 15.746094 7.992188 15.738281 7.964844 C 15.746094 7.933594 15.75 7.90625 15.75 7.875 C 15.75 7.667969 15.582031 7.5 15.375 7.5 Z M 8.570312 7.6875 C 8.566406 7.6875 8.5625 7.6875 8.554688 7.6875 C 8.5625 7.6875 8.566406 7.6875 8.570312 7.6875 Z M 15.429688 7.6875 C 15.433594 7.6875 15.4375 7.6875 15.445312 7.6875 C 15.4375 7.6875 15.433594 7.6875 15.429688 7.6875 Z M 8.457031 7.722656 C 8.449219 7.726562 8.441406 7.730469 8.429688 7.734375 C 8.441406 7.730469 8.449219 7.726562 8.457031 7.722656 Z M 8.402344 7.757812 C 8.398438 7.761719 8.390625 7.761719 8.386719 7.765625 C 8.390625 7.761719 8.398438 7.761719 8.402344 7.757812 Z M 15.597656 7.757812 C 15.601562 7.761719 15.609375 7.761719 15.613281 7.765625 C 15.609375 7.761719 15.601562 7.761719 15.597656 7.757812 Z M 8.355469 7.796875 C 8.351562 7.800781 8.347656 7.804688 8.34375 7.8125 C 8.347656 7.804688 8.351562 7.800781 8.355469 7.796875 Z M 15.644531 7.796875 C 15.648438 7.800781 15.652344 7.804688 15.65625 7.8125 C 15.652344 7.804688 15.648438 7.800781 15.644531 7.796875 Z M 8.625 9 C 8.417969 9 8.25 9.167969 8.25 9.375 C 8.25 9.40625 8.253906 9.433594 8.261719 9.464844 C 8.253906 9.492188 8.25 9.523438 8.25 9.558594 C 8.25 9.589844 8.253906 9.617188 8.261719 9.648438 C 8.304688 9.484375 8.449219 9.363281 8.625 9.363281 L 15.375 9.363281 C 15.550781 9.363281 15.695312 9.484375 15.738281 9.648438 C 15.746094 9.617188 15.75 9.589844 15.75 9.558594 C 15.75 9.523438 15.746094 9.492188 15.738281 9.464844 C 15.746094 9.433594 15.75 9.40625 15.75 9.375 C 15.75 9.167969 15.582031 9 15.375 9 Z M 8.570312 9.1875 C 8.566406 9.1875 8.5625 9.1875 8.554688 9.1875 C 8.5625 9.1875 8.566406 9.1875 8.570312 9.1875 Z M 15.429688 9.1875 C 15.433594 9.1875 15.4375 9.1875 15.445312 9.1875 C 15.4375 9.1875 15.433594 9.1875 15.429688 9.1875 Z M 8.457031 9.222656 C 8.449219 9.226562 8.441406 9.230469 8.429688 9.234375 C 8.441406 9.230469 8.449219 9.226562 8.457031 9.222656 Z M 8.402344 9.257812 C 8.398438 9.261719 8.390625 9.261719 8.386719 9.265625 C 8.390625 9.261719 8.398438 9.261719 8.402344 9.257812 Z M 15.597656 9.257812 C 15.601562 9.261719 15.609375 9.261719 15.613281 9.265625 C 15.609375 9.261719 15.601562 9.261719 15.597656 9.257812 Z M 8.355469 9.296875 C 8.351562 9.300781 8.347656 9.304688 8.34375 9.3125 C 8.347656 9.304688 8.351562 9.300781 8.355469 9.296875 Z M 15.644531 9.296875 C 15.648438 9.300781 15.652344 9.304688 15.65625 9.3125 C 15.652344 9.304688 15.648438 9.300781 15.644531 9.296875 Z M 8.625 10.5 C 8.417969 10.5 8.25 10.667969 8.25 10.875 C 8.25 10.90625 8.253906 10.933594 8.261719 10.964844 C 8.253906 10.992188 8.25 11.023438 8.25 11.058594 C 8.25 11.089844 8.253906 11.117188 8.261719 11.148438 C 8.304688 10.984375 8.449219 10.863281 8.625 10.863281 L 15.375 10.863281 C 15.550781 10.863281 15.695312 10.984375 15.738281 11.148438 C 15.746094 11.117188 15.75 11.089844 15.75 11.058594 C 15.75 11.023438 15.746094 10.992188 15.738281 10.964844 C 15.746094 10.933594 15.75 10.90625 15.75 10.875 C 15.75 10.667969 15.582031 10.5 15.375 10.5 Z M 8.570312 10.6875 C 8.566406 10.6875 8.5625 10.6875 8.554688 10.6875 C 8.5625 10.6875 8.566406 10.6875 8.570312 10.6875 Z M 15.429688 10.6875 C 15.433594 10.6875 15.4375 10.6875 15.445312 10.6875 C 15.4375 10.6875 15.433594 10.6875 15.429688 10.6875 Z M 8.457031 10.722656 C 8.449219 10.726562 8.441406 10.730469 8.429688 10.734375 C 8.441406 10.730469 8.449219 10.726562 8.457031 10.722656 Z M 8.402344 10.757812 C 8.398438 10.761719 8.390625 10.761719 8.386719 10.765625 C 8.390625 10.761719 8.398438 10.761719 8.402344 10.757812 Z M 15.597656 10.757812 C 15.601562 10.761719 15.609375 10.761719 15.613281 10.765625 C 15.609375 10.761719 15.601562 10.761719 15.597656 10.757812 Z M 8.355469 10.796875 C 8.351562 10.800781 8.347656 10.804688 8.34375 10.8125 C 8.347656 10.804688 8.351562 10.800781 8.355469 10.796875 Z M 15.644531 10.796875 C 15.648438 10.800781 15.652344 10.804688 15.65625 10.8125 C 15.652344 10.804688 15.648438 10.800781 15.644531 10.796875 Z M 8.625 12 C 8.417969 12 8.25 12.167969 8.25 12.375 C 8.25 12.40625 8.253906 12.433594 8.261719 12.464844 C 8.253906 12.492188 8.25 12.523438 8.25 12.558594 C 8.25 12.589844 8.253906 12.617188 8.261719 12.648438 C 8.304688 12.484375 8.449219 12.363281 8.625 12.363281 L 15.375 12.363281 C 15.550781 12.363281 15.695312 12.484375 15.738281 12.648438 C 15.746094 12.617188 15.75 12.589844 15.75 12.558594 C 15.75 12.523438 15.746094 12.492188 15.738281 12.464844 C 15.746094 12.433594 15.75 12.40625 15.75 12.375 C 15.75 12.167969 15.582031 12 15.375 12 Z M 8.570312 12.1875 C 8.566406 12.1875 8.5625 12.1875 8.554688 12.1875 C 8.5625 12.1875 8.566406 12.1875 8.570312 12.1875 Z M 15.429688 12.1875 C 15.433594 12.1875 15.4375 12.1875 15.445312 12.1875 C 15.4375 12.1875 15.433594 12.1875 15.429688 12.1875 Z M 8.457031 12.222656 C 8.449219 12.226562 8.441406 12.230469 8.429688 12.234375 C 8.441406 12.230469 8.449219 12.226562 8.457031 12.222656 Z M 8.402344 12.257812 C 8.398438 12.261719 8.390625 12.261719 8.386719 12.265625 C 8.390625 12.261719 8.398438 12.261719 8.402344 12.257812 Z M 15.597656 12.257812 C 15.601562 12.261719 15.609375 12.261719 15.613281 12.265625 C 15.609375 12.261719 15.601562 12.261719 15.597656 12.257812 Z M 8.355469 12.296875 C 8.351562 12.300781 8.347656 12.304688 8.34375 12.3125 C 8.347656 12.304688 8.351562 12.300781 8.355469 12.296875 Z M 15.644531 12.296875 C 15.648438 12.300781 15.652344 12.304688 15.65625 12.3125 C 15.652344 12.304688 15.648438 12.300781 15.644531 12.296875 Z M 8.625 13.5 C 8.417969 13.5 8.25 13.667969 8.25 13.875 C 8.25 13.90625 8.253906 13.933594 8.261719 13.964844 C 8.253906 13.992188 8.25 14.023438 8.25 14.058594 C 8.25 14.089844 8.253906 14.117188 8.261719 14.148438 C 8.304688 13.984375 8.449219 13.863281 8.625 13.863281 L 15.375 13.863281 C 15.550781 13.863281 15.695312 13.984375 15.738281 14.148438 C 15.746094 14.117188 15.75 14.089844 15.75 14.058594 C 15.75 14.023438 15.746094 13.992188 15.738281 13.964844 C 15.746094 13.933594 15.75 13.90625 15.75 13.875 C 15.75 13.667969 15.582031 13.5 15.375 13.5 Z M 8.570312 13.6875 C 8.566406 13.6875 8.5625 13.6875 8.554688 13.6875 C 8.5625 13.6875 8.566406 13.6875 8.570312 13.6875 Z M 15.429688 13.6875 C 15.433594 13.6875 15.4375 13.6875 15.445312 13.6875 C 15.4375 13.6875 15.433594 13.6875 15.429688 13.6875 Z M 8.457031 13.722656 C 8.449219 13.726562 8.441406 13.730469 8.429688 13.734375 C 8.441406 13.730469 8.449219 13.726562 8.457031 13.722656 Z M 8.402344 13.757812 C 8.398438 13.761719 8.390625 13.761719 8.386719 13.765625 C 8.390625 13.761719 8.398438 13.761719 8.402344 13.757812 Z M 15.597656 13.757812 C 15.601562 13.761719 15.609375 13.761719 15.613281 13.765625 C 15.609375 13.761719 15.601562 13.761719 15.597656 13.757812 Z M 8.355469 13.796875 C 8.351562 13.800781 8.347656 13.804688 8.34375 13.8125 C 8.347656 13.804688 8.351562 13.800781 8.355469 13.796875 Z M 15.644531 13.796875 C 15.648438 13.800781 15.652344 13.804688 15.65625 13.8125 C 15.652344 13.804688 15.648438 13.800781 15.644531 13.796875 Z M 8.625 15 C 8.417969 15 8.25 15.167969 8.25 15.375 C 8.25 15.40625 8.253906 15.433594 8.261719 15.464844 C 8.253906 15.492188 8.25 15.523438 8.25 15.558594 C 8.25 15.589844 8.253906 15.617188 8.261719 15.648438 C 8.304688 15.484375 8.449219 15.363281 8.625 15.363281 L 15.375 15.363281 C 15.550781 15.363281 15.695312 15.484375 15.738281 15.648438 C 15.746094 15.617188 15.75 15.589844 15.75 15.558594 C 15.75 15.523438 15.746094 15.492188 15.738281 15.464844 C 15.746094 15.433594 15.75 15.40625 15.75 15.375 C 15.75 15.167969 15.582031 15 15.375 15 Z M 8.570312 15.1875 C 8.566406 15.1875 8.5625 15.1875 8.554688 15.1875 C 8.5625 15.1875 8.566406 15.1875 8.570312 15.1875 Z M 15.429688 15.1875 C 15.433594 15.1875 15.4375 15.1875 15.445312 15.1875 C 15.4375 15.1875 15.433594 15.1875 15.429688 15.1875 Z M 8.457031 15.222656 C 8.449219 15.226562 8.441406 15.230469 8.429688 15.234375 C 8.441406 15.230469 8.449219 15.226562 8.457031 15.222656 Z M 8.402344 15.257812 C 8.398438 15.261719 8.390625 15.261719 8.386719 15.265625 C 8.390625 15.261719 8.398438 15.261719 8.402344 15.257812 Z M 15.597656 15.257812 C 15.601562 15.261719 15.609375 15.261719 15.613281 15.265625 C 15.609375 15.261719 15.601562 15.261719 15.597656 15.257812 Z M 8.355469 15.296875 C 8.351562 15.300781 8.347656 15.304688 8.34375 15.3125 C 8.347656 15.304688 8.351562 15.300781 8.355469 15.296875 Z M 15.644531 15.296875 C 15.648438 15.300781 15.652344 15.304688 15.65625 15.3125 C 15.652344 15.304688 15.648438 15.300781 15.644531 15.296875 Z M 15.644531 15.296875 "/>
<path style=" stroke:none;fill-rule:nonzero;fill:rgb(100%,100%,100%);fill-opacity:0.8;" d="M 8.261719 7.96875 C 8.253906 7.996094 8.25 8.027344 8.25 8.058594 C 8.25 8.089844 8.253906 8.121094 8.261719 8.148438 C 8.253906 8.175781 8.25 8.207031 8.25 8.238281 C 8.25 8.445312 8.417969 8.613281 8.625 8.613281 L 15.375 8.613281 C 15.582031 8.613281 15.75 8.445312 15.75 8.238281 C 15.75 8.207031 15.746094 8.175781 15.738281 8.148438 C 15.746094 8.121094 15.75 8.089844 15.75 8.058594 C 15.75 8.027344 15.746094 7.996094 15.738281 7.96875 C 15.695312 8.128906 15.550781 8.25 15.375 8.25 L 8.625 8.25 C 8.449219 8.25 8.304688 8.128906 8.261719 7.96875 Z M 8.261719 9.46875 C 8.253906 9.496094 8.25 9.527344 8.25 9.558594 C 8.25 9.589844 8.253906 9.621094 8.261719 9.648438 C 8.253906 9.675781 8.25 9.707031 8.25 9.738281 C 8.25 9.945312 8.417969 10.113281 8.625 10.113281 L 15.375 10.113281 C 15.582031 10.113281 15.75 9.945312 15.75 9.738281 C 15.75 9.707031 15.746094 9.675781 15.738281 9.648438 C 15.746094 9.621094 15.75 9.589844 15.75 9.558594 C 15.75 9.527344 15.746094 9.496094 15.738281 9.46875 C 15.695312 9.628906 15.550781 9.75 15.375 9.75 L 8.625 9.75 C 8.449219 9.75 8.304688 9.628906 8.261719 9.46875 Z M 8.261719 10.96875 C 8.253906 10.996094 8.25 11.027344 8.25 11.058594 C 8.25 11.089844 8.253906 11.121094 8.261719 11.148438 C 8.253906 11.175781 8.25 11.207031 8.25 11.238281 C 8.25 11.445312 8.417969 11.613281 8.625 11.613281 L 15.375 11.613281 C 15.582031 11.613281 15.75 11.445312 15.75 11.238281 C 15.75 11.207031 15.746094 11.175781 15.738281 11.148438 C 15.746094 11.121094 15.75 11.089844 15.75 11.058594 C 15.75 11.027344 15.746094 10.996094 15.738281 10.96875 C 15.695312 11.128906 15.550781 11.25 15.375 11.25 L 8.625 11.25 C 8.449219 11.25 8.304688 11.128906 8.261719 10.96875 Z M 8.261719 12.46875 C 8.253906 12.496094 8.25 12.527344 8.25 12.558594 C 8.25 12.589844 8.253906 12.621094 8.261719 12.648438 C 8.253906 12.675781 8.25 12.707031 8.25 12.738281 C 8.25 12.945312 8.417969 13.113281 8.625 13.113281 L 15.375 13.113281 C 15.582031 13.113281 15.75 12.945312 15.75 12.738281 C 15.75 12.707031 15.746094 12.675781 15.738281 12.648438 C 15.746094 12.621094 15.75 12.589844 15.75 12.558594 C 15.75 12.527344 15.746094 12.496094 15.738281 12.46875 C 15.695312 12.628906 15.550781 12.75 15.375 12.75 L 8.625 12.75 C 8.449219 12.75 8.304688 12.628906 8.261719 12.46875 Z M 8.261719 13.96875 C 8.253906 13.996094 8.25 14.027344 8.25 14.058594 C 8.25 14.089844 8.253906 14.121094 8.261719 14.148438 C 8.253906 14.175781 8.25 14.207031 8.25 14.238281 C 8.25 14.445312 8.417969 14.613281 8.625 14.613281 L 15.375 14.613281 C 15.582031 14.613281 15.75 14.445312 15.75 14.238281 C 15.75 14.207031 15.746094 14.175781 15.738281 14.148438 C 15.746094 14.121094 15.75 14.089844 15.75 14.058594 C 15.75 14.027344 15.746094 13.996094 15.738281 13.96875 C 15.695312 14.128906 15.550781 14.25 15.375 14.25 L 8.625 14.25 C 8.449219 14.25 8.304688 14.128906 8.261719 13.96875 Z M 8.261719 15.46875 C 8.253906 15.496094 8.25 15.527344 8.25 15.558594 C 8.25 15.589844 8.253906 15.621094 8.261719 15.648438 C 8.253906 15.675781 8.25 15.707031 8.25 15.738281 C 8.25 15.945312 8.417969 16.113281 8.625 16.113281 L 15.375 16.113281 C 15.582031 16.113281 15.75 15.945312 15.75 15.738281 C 15.75 15.707031 15.746094 15.675781 15.738281 15.648438 C 15.746094 15.621094 15.75 15.589844 15.75 15.558594 C 15.75 15.527344 15.746094 15.496094 15.738281 15.46875 C 15.695312 15.628906 15.550781 15.75 15.375 15.75 L 8.625 15.75 C 8.449219 15.75 8.304688 15.628906 8.261719 15.46875 Z M 8.261719 15.46875 "/>
<path style=" stroke:none;fill-rule:nonzero;fill:url(#linear0);" d="M 4.875 1.5 C 4.25 1.5 3.75 2 3.75 2.625 L 3.75 21.375 C 3.75 22 4.25 22.5 4.875 22.5 L 19.125 22.5 C 19.75 22.5 20.25 22 20.25 21.375 L 20.25 6.75 L 15 1.5 Z M 15.75 1.5 L 20.25 6 L 20.25 3 C 20.25 2.167969 19.582031 1.5 18.75 1.5 Z M 15.75 1.5 "/>
</g>
</svg>
