
<svg xmlns="http://www.w3.org/2000/svg" xmlns:xlink="http://www.w3.org/1999/xlink" width="24" height="24" viewBox="0 0 24 24" version="1.1">
<defs>
<linearGradient id="linear0" gradientUnits="userSpaceOnUse" x1="8.466666" y1="-199.125" x2="8.466666" y2="-213.941666" gradientTransform="matrix(1.417323,0,0,1.417323,-0.00000561239,304.724425)">
<stop offset="0" style="stop-color:rgb(0%,0%,0%);stop-opacity:0.2;"/>
<stop offset="1" style="stop-color:rgb(100%,100%,100%);stop-opacity:0;"/>
</linearGradient>
</defs>
<g id="surface1">
<path style=" stroke:none;fill-rule:nonzero;fill:rgb(100%,79.215688%,15.686275%);fill-opacity:1;" d="M 3 1.5 L 21 1.5 C 21.828125 1.5 22.5 2.171875 22.5 3 L 22.5 21 C 22.5 21.828125 21.828125 22.5 21 22.5 L 3 22.5 C 2.171875 22.5 1.5 21.828125 1.5 21 L 1.5 3 C 1.5 2.171875 2.171875 1.5 3 1.5 Z M 3 1.5 "/>
<path style=" stroke:none;fill-rule:nonzero;fill:rgb(0%,0%,0%);fill-opacity:0.4;" d="M 1.5 20.625 L 1.5 21 C 1.5 21.832031 2.167969 22.5 3 22.5 L 21 22.5 C 21.832031 22.5 22.5 21.832031 22.5 21 L 22.5 20.625 C 22.5 21.457031 21.832031 22.125 21 22.125 L 3 22.125 C 2.167969 22.125 1.5 21.457031 1.5 20.625 Z M 1.5 20.625 "/>
<path style=" stroke:none;fill-rule:nonzero;fill:rgb(0%,0%,0%);fill-opacity:0.2;" d="M 1.5 21 L 1.5 21.5625 C 1.5 22.394531 2.167969 23.0625 3 23.0625 L 21 23.0625 C 21.832031 23.0625 22.5 22.394531 22.5 21.5625 L 22.5 21 C 22.5 21.832031 21.832031 22.5 21 22.5 L 3 22.5 C 2.167969 22.5 1.5 21.832031 1.5 21 Z M 1.5 21 "/>
<path style=" stroke:none;fill-rule:nonzero;fill:rgb(100%,100%,100%);fill-opacity:0.4;" d="M 3 1.5 C 2.167969 1.5 1.5 2.167969 1.5 3 L 1.5 3.367188 C 1.5 2.539062 2.167969 1.867188 3 1.867188 L 21 1.867188 C 21.832031 1.867188 22.5 2.539062 22.5 3.367188 L 22.5 3 C 22.5 2.167969 21.832031 1.5 21 1.5 Z M 3 1.5 "/>
<path style=" stroke:none;fill-rule:nonzero;fill:rgb(38.039216%,38.039216%,38.039216%);fill-opacity:0.996078;" d="M 12 6 C 11.167969 6 10.5 6.667969 10.5 7.5 C 10.5 8.332031 11.167969 9 12 9 C 12.832031 9 13.5 8.332031 13.5 7.5 C 13.5 6.667969 12.832031 6 12 6 Z M 12 9.75 C 11.585938 9.75 11.25 10.085938 11.25 10.5 L 11.25 13.5 C 11.25 13.511719 11.25 13.527344 11.25 13.539062 C 11.25 13.550781 11.253906 13.5625 11.253906 13.578125 C 11.257812 13.613281 11.265625 13.652344 11.273438 13.6875 C 11.355469 14.011719 11.648438 14.25 12 14.25 L 15 14.25 L 15 17.25 C 15 17.664062 15.335938 18 15.75 18 C 16.164062 18 16.5 17.664062 16.5 17.25 L 16.5 13.5 C 16.5 13.085938 16.164062 12.75 15.75 12.75 L 12.75 12.75 L 12.75 11.25 L 15.75 11.25 C 16.164062 11.25 16.5 10.914062 16.5 10.5 C 16.5 10.085938 16.164062 9.75 15.75 9.75 Z M 10.5 11.269531 C 8.808594 11.457031 7.5 12.882812 7.5 14.625 C 7.5 16.496094 9.003906 18 10.875 18 C 12.617188 18 14.042969 16.691406 14.230469 15 L 13.472656 15 C 13.292969 16.273438 12.203125 17.25 10.875 17.25 C 9.421875 17.25 8.25 16.078125 8.25 14.625 C 8.25 13.296875 9.226562 12.207031 10.5 12.027344 Z M 10.5 11.269531 "/>
<path style=" stroke:none;fill-rule:nonzero;fill:rgb(100%,100%,100%);fill-opacity:0.4;" d="M 12 6 C 11.167969 6 10.5 6.667969 10.5 7.5 C 10.5 7.5625 10.503906 7.625 10.511719 7.683594 C 10.605469 6.945312 11.234375 6.375 12 6.375 C 12.765625 6.375 13.394531 6.945312 13.488281 7.683594 C 13.496094 7.625 13.5 7.5625 13.5 7.5 C 13.5 6.667969 12.832031 6 12 6 Z M 12 9.75 C 11.585938 9.75 11.25 10.085938 11.25 10.5 L 11.25 10.875 C 11.25 10.460938 11.585938 10.125 12 10.125 L 15.75 10.125 C 16.097656 10.125 16.390625 10.363281 16.472656 10.683594 C 16.488281 10.625 16.5 10.5625 16.5 10.5 C 16.5 10.085938 16.164062 9.75 15.75 9.75 Z M 10.5 11.269531 C 8.808594 11.457031 7.5 12.882812 7.5 14.625 C 7.5 14.6875 7.5 14.75 7.503906 14.8125 C 7.59375 13.15625 8.867188 11.824219 10.5 11.644531 Z M 12.75 12.75 L 12.75 13.125 L 15.75 13.125 C 16.164062 13.125 16.5 13.460938 16.5 13.875 L 16.5 13.5 C 16.5 13.085938 16.164062 12.75 15.75 12.75 Z M 8.257812 14.792969 C 8.253906 14.863281 8.25 14.929688 8.25 15 C 8.25 16.453125 9.421875 17.625 10.875 17.625 C 12.203125 17.625 13.292969 16.648438 13.472656 15.375 L 14.164062 15.375 C 14.191406 15.253906 14.214844 15.128906 14.230469 15 L 13.472656 15 C 13.292969 16.273438 12.203125 17.25 10.875 17.25 C 9.476562 17.25 8.34375 16.167969 8.257812 14.792969 Z M 8.257812 14.792969 "/>
<path style=" stroke:none;fill-rule:nonzero;fill:rgb(0%,0%,0%);fill-opacity:0.4;" d="M 10.511719 7.6875 C 10.503906 7.75 10.5 7.8125 10.5 7.875 C 10.5 8.707031 11.167969 9.375 12 9.375 C 12.832031 9.375 13.5 8.707031 13.5 7.875 C 13.5 7.8125 13.496094 7.75 13.488281 7.6875 C 13.394531 8.429688 12.765625 9 12 9 C 11.234375 9 10.605469 8.429688 10.511719 7.6875 Z M 16.476562 10.6875 C 16.390625 11.011719 16.101562 11.25 15.75 11.25 L 12.75 11.25 L 12.75 11.625 L 15.75 11.625 C 16.164062 11.625 16.5 11.289062 16.5 10.875 C 16.5 10.808594 16.492188 10.746094 16.476562 10.6875 Z M 10.5 12.027344 C 9.226562 12.207031 8.25 13.296875 8.25 14.625 C 8.25 14.6875 8.253906 14.75 8.257812 14.8125 C 8.34375 13.570312 9.285156 12.574219 10.5 12.402344 Z M 11.25 13.5 L 11.25 13.875 C 11.25 13.886719 11.25 13.902344 11.25 13.914062 C 11.25 13.925781 11.253906 13.9375 11.253906 13.953125 C 11.257812 13.988281 11.265625 14.027344 11.273438 14.0625 C 11.355469 14.386719 11.648438 14.625 12 14.625 L 15 14.625 L 15 14.25 L 12 14.25 C 11.648438 14.25 11.355469 14.011719 11.273438 13.6875 C 11.265625 13.652344 11.257812 13.613281 11.253906 13.578125 C 11.253906 13.5625 11.25 13.550781 11.25 13.539062 C 11.25 13.527344 11.25 13.511719 11.25 13.5 Z M 7.503906 14.816406 C 7.5 14.875 7.5 14.9375 7.5 15 C 7.5 16.871094 9.003906 18.375 10.875 18.375 C 12.617188 18.375 14.042969 17.066406 14.230469 15.375 L 14.164062 15.375 C 13.824219 16.882812 12.488281 18 10.875 18 C 9.070312 18 7.601562 16.59375 7.503906 14.816406 Z M 15 17.25 L 15 17.625 C 15 18.039062 15.335938 18.375 15.75 18.375 C 16.164062 18.375 16.5 18.039062 16.5 17.625 L 16.5 17.25 C 16.5 17.664062 16.164062 18 15.75 18 C 15.335938 18 15 17.664062 15 17.25 Z M 15 17.25 "/>
<path style=" stroke:none;fill-rule:nonzero;fill:url(#linear0);" d="M 3 1.5 L 21 1.5 C 21.828125 1.5 22.5 2.171875 22.5 3 L 22.5 21 C 22.5 21.828125 21.828125 22.5 21 22.5 L 3 22.5 C 2.171875 22.5 1.5 21.828125 1.5 21 L 1.5 3 C 1.5 2.171875 2.171875 1.5 3 1.5 Z M 3 1.5 "/>
</g>
</svg>
