
<svg xmlns="http://www.w3.org/2000/svg" xmlns:xlink="http://www.w3.org/1999/xlink" width="22" height="22" viewBox="0 0 22 22" version="1.1">
<defs>
<linearGradient id="linear0" gradientUnits="userSpaceOnUse" x1="31.999998" y1="60" x2="31.999998" y2="4" gradientTransform="matrix(0.34375,0,0,0.34375,0,0.00000000000003908)">
<stop offset="0" style="stop-color:rgb(0%,0%,0%);stop-opacity:0.2;"/>
<stop offset="1" style="stop-color:rgb(100%,100%,100%);stop-opacity:0;"/>
</linearGradient>
</defs>
<g id="surface1">
<path style=" stroke:none;fill-rule:nonzero;fill:rgb(100%,43.921569%,26.274511%);fill-opacity:1;" d="M 13.75 1.375 L 4.46875 1.375 C 3.898438 1.375 3.4375 1.835938 3.4375 2.40625 L 3.4375 19.59375 C 3.4375 20.164062 3.898438 20.625 4.46875 20.625 L 17.53125 20.625 C 18.101562 20.625 18.5625 20.164062 18.5625 19.59375 L 18.5625 6.1875 Z M 13.75 1.375 "/>
<path style=" stroke:none;fill-rule:nonzero;fill:rgb(0%,0%,0%);fill-opacity:0.4;" d="M 13.75 5.15625 L 13.75 5.5 C 13.75 6.070312 14.210938 6.53125 14.78125 6.53125 L 18.5625 6.53125 L 18.21875 6.1875 L 14.78125 6.1875 C 14.210938 6.1875 13.75 5.726562 13.75 5.15625 Z M 13.75 5.15625 "/>
<path style=" stroke:none;fill-rule:nonzero;fill:rgb(100%,54.11765%,39.607844%);fill-opacity:0.996078;" d="M 18.5625 6.1875 L 13.75 1.375 L 13.75 5.15625 C 13.75 5.726562 14.210938 6.1875 14.78125 6.1875 Z M 18.5625 6.1875 "/>
<path style=" stroke:none;fill-rule:nonzero;fill:rgb(100%,100%,100%);fill-opacity:0.4;" d="M 4.46875 1.375 C 3.898438 1.375 3.4375 1.835938 3.4375 2.40625 L 3.4375 2.75 C 3.4375 2.179688 3.898438 1.71875 4.46875 1.71875 L 13.75 1.71875 L 18.5625 6.53125 L 18.5625 6.1875 L 13.75 1.375 Z M 4.46875 1.375 "/>
<path style=" stroke:none;fill-rule:nonzero;fill:rgb(0%,0%,0%);fill-opacity:0.2;" d="M 3.4375 19.589844 L 3.4375 20.109375 C 3.4375 20.679688 3.898438 21.140625 4.46875 21.140625 L 17.53125 21.140625 C 18.101562 21.140625 18.5625 20.679688 18.5625 20.109375 L 18.5625 19.589844 C 18.5625 20.160156 18.101562 20.621094 17.53125 20.621094 L 4.46875 20.621094 C 3.898438 20.621094 3.4375 20.160156 3.4375 19.589844 Z M 3.4375 19.589844 "/>
<path style=" stroke:none;fill-rule:nonzero;fill:rgb(0%,0%,0%);fill-opacity:0.4;" d="M 3.4375 19.292969 L 3.4375 19.59375 C 3.4375 20.164062 3.898438 20.625 4.46875 20.625 L 17.53125 20.625 C 18.101562 20.625 18.5625 20.164062 18.5625 19.59375 L 18.5625 19.292969 C 18.5625 19.863281 18.101562 20.324219 17.53125 20.324219 L 4.46875 20.324219 C 3.898438 20.324219 3.4375 19.863281 3.4375 19.292969 Z M 3.4375 19.292969 "/>
<path style=" stroke:none;fill-rule:nonzero;fill:rgb(100%,67.058825%,56.862748%);fill-opacity:1;" d="M 9.476562 8.242188 C 9.246094 8.242188 9.066406 8.265625 8.875 8.394531 C 8.722656 8.496094 8.640625 8.683594 8.613281 8.828125 C 8.589844 8.972656 8.59375 9.109375 8.59375 9.28125 L 8.59375 11 L 8.042969 11.410156 C 7.957031 11.476562 7.90625 11.578125 7.90625 11.6875 C 7.90625 11.796875 7.957031 11.898438 8.042969 11.960938 L 8.59375 12.375 L 8.59375 14.09375 C 8.59375 14.265625 8.589844 14.402344 8.613281 14.546875 C 8.640625 14.691406 8.722656 14.878906 8.875 14.980469 C 9.179688 15.183594 9.453125 15.125 9.96875 15.125 C 10.160156 15.125 10.3125 14.972656 10.3125 14.78125 C 10.3125 14.59375 10.160156 14.441406 9.96875 14.4375 C 9.515625 14.4375 9.304688 14.394531 9.292969 14.40625 C 9.285156 14.351562 9.28125 14.25 9.28125 14.09375 L 9.28125 12.203125 C 9.28125 12.09375 9.230469 11.992188 9.144531 11.929688 L 8.820312 11.6875 L 9.144531 11.445312 C 9.230469 11.382812 9.28125 11.28125 9.28125 11.171875 L 9.28125 9.28125 C 9.28125 9.125 9.285156 9.019531 9.292969 8.964844 C 9.304688 8.976562 9.515625 8.9375 9.96875 8.9375 C 10.160156 8.9375 10.3125 8.785156 10.3125 8.59375 C 10.3125 8.40625 10.160156 8.25 9.96875 8.25 C 9.777344 8.25 9.617188 8.242188 9.476562 8.242188 Z M 12.449219 8.242188 C 12.328125 8.242188 12.191406 8.25 12.03125 8.25 C 11.839844 8.25 11.6875 8.40625 11.6875 8.59375 C 11.6875 8.785156 11.839844 8.9375 12.03125 8.9375 C 12.484375 8.9375 12.695312 8.976562 12.707031 8.964844 C 12.714844 9.019531 12.71875 9.125 12.71875 9.28125 L 12.71875 11.171875 C 12.71875 11.28125 12.769531 11.382812 12.855469 11.445312 L 13.175781 11.6875 L 12.855469 11.929688 C 12.769531 11.992188 12.71875 12.09375 12.71875 12.203125 L 12.71875 14.09375 C 12.71875 14.25 12.714844 14.351562 12.707031 14.40625 C 12.695312 14.394531 12.484375 14.4375 12.03125 14.4375 C 11.839844 14.4375 11.6875 14.59375 11.6875 14.78125 C 11.6875 14.972656 11.839844 15.125 12.03125 15.125 C 12.546875 15.125 12.820312 15.183594 13.125 14.980469 C 13.277344 14.878906 13.359375 14.691406 13.386719 14.546875 C 13.410156 14.402344 13.40625 14.265625 13.40625 14.09375 L 13.40625 12.375 L 13.957031 11.960938 C 14.042969 11.898438 14.09375 11.796875 14.09375 11.6875 C 14.09375 11.578125 14.042969 11.476562 13.957031 11.410156 L 13.40625 11 L 13.40625 9.28125 C 13.40625 9.109375 13.410156 8.972656 13.386719 8.828125 C 13.359375 8.683594 13.277344 8.496094 13.125 8.394531 C 12.914062 8.253906 12.71875 8.238281 12.449219 8.242188 Z M 12.449219 8.242188 "/>
<path style=" stroke:none;fill-rule:nonzero;fill:rgb(100%,100%,100%);fill-opacity:0.4;" d="M 9.476562 8.242188 C 9.246094 8.242188 9.066406 8.265625 8.875 8.394531 C 8.722656 8.496094 8.640625 8.683594 8.613281 8.828125 C 8.589844 8.972656 8.59375 9.109375 8.59375 9.28125 C 8.59375 9.1875 8.597656 9.097656 8.613281 9.007812 C 8.640625 8.863281 8.722656 8.675781 8.875 8.574219 C 9.066406 8.445312 9.246094 8.421875 9.476562 8.421875 C 9.617188 8.421875 9.777344 8.429688 9.96875 8.429688 C 10.125 8.429688 10.257812 8.53125 10.300781 8.679688 C 10.308594 8.652344 10.3125 8.625 10.3125 8.59375 C 10.3125 8.40625 10.160156 8.25 9.96875 8.25 C 9.777344 8.25 9.617188 8.242188 9.476562 8.242188 Z M 12.449219 8.242188 C 12.328125 8.242188 12.191406 8.25 12.03125 8.25 C 11.839844 8.25 11.6875 8.40625 11.6875 8.59375 C 11.6875 8.625 11.691406 8.65625 11.703125 8.683594 C 11.742188 8.535156 11.875 8.429688 12.03125 8.429688 C 12.191406 8.429688 12.328125 8.421875 12.449219 8.421875 C 12.71875 8.417969 12.914062 8.433594 13.125 8.574219 C 13.277344 8.675781 13.359375 8.863281 13.386719 9.007812 C 13.402344 9.117188 13.40625 9.222656 13.40625 9.339844 L 13.40625 9.28125 C 13.40625 9.109375 13.410156 8.972656 13.386719 8.828125 C 13.359375 8.683594 13.277344 8.496094 13.125 8.394531 C 12.914062 8.253906 12.71875 8.238281 12.449219 8.242188 Z M 8.59375 11 L 8.042969 11.410156 C 7.929688 11.496094 7.882812 11.640625 7.917969 11.777344 C 7.9375 11.703125 7.984375 11.636719 8.042969 11.589844 L 8.59375 11.179688 Z M 13.40625 11 L 13.40625 11.179688 L 13.957031 11.589844 C 14.015625 11.636719 14.0625 11.703125 14.082031 11.777344 C 14.117188 11.640625 14.070312 11.496094 13.957031 11.414062 Z M 8.941406 11.777344 L 8.820312 11.867188 L 9.144531 12.109375 C 9.230469 12.171875 9.28125 12.273438 9.28125 12.382812 L 9.28125 12.203125 C 9.28125 12.09375 9.230469 11.992188 9.144531 11.929688 Z M 13.058594 11.777344 L 12.855469 11.929688 C 12.769531 11.996094 12.71875 12.097656 12.71875 12.203125 L 12.71875 12.382812 C 12.71875 12.273438 12.769531 12.171875 12.855469 12.109375 L 13.175781 11.867188 Z M 9.28125 14.09375 L 9.28125 14.273438 C 9.28125 14.429688 9.285156 14.53125 9.292969 14.585938 C 9.304688 14.574219 9.515625 14.617188 9.96875 14.617188 C 10.125 14.621094 10.261719 14.722656 10.300781 14.875 C 10.308594 14.84375 10.3125 14.8125 10.3125 14.78125 C 10.3125 14.59375 10.160156 14.441406 9.96875 14.4375 C 9.515625 14.4375 9.304688 14.394531 9.292969 14.40625 C 9.285156 14.351562 9.28125 14.25 9.28125 14.09375 Z M 12.71875 14.09375 C 12.71875 14.25 12.714844 14.351562 12.707031 14.40625 C 12.695312 14.394531 12.484375 14.4375 12.03125 14.4375 C 11.839844 14.441406 11.6875 14.59375 11.6875 14.78125 C 11.6875 14.8125 11.691406 14.84375 11.703125 14.871094 C 11.742188 14.722656 11.875 14.621094 12.03125 14.617188 C 12.484375 14.617188 12.695312 14.574219 12.707031 14.585938 C 12.714844 14.53125 12.71875 14.429688 12.71875 14.273438 Z M 12.71875 14.09375 "/>
<path style=" stroke:none;fill-rule:nonzero;fill:rgb(8.235294%,8.235294%,8.235294%);fill-opacity:0.4;" d="M 9.476562 15.296875 C 9.246094 15.296875 9.066406 15.273438 8.875 15.144531 C 8.722656 15.042969 8.640625 14.855469 8.613281 14.710938 C 8.589844 14.566406 8.59375 14.429688 8.59375 14.257812 C 8.59375 14.351562 8.597656 14.441406 8.613281 14.53125 C 8.640625 14.675781 8.722656 14.863281 8.875 14.964844 C 9.066406 15.09375 9.246094 15.117188 9.476562 15.117188 C 9.617188 15.117188 9.777344 15.109375 9.96875 15.109375 C 10.125 15.109375 10.257812 15.007812 10.300781 14.859375 C 10.308594 14.886719 10.3125 14.914062 10.3125 14.945312 C 10.3125 15.132812 10.160156 15.289062 9.96875 15.289062 C 9.777344 15.289062 9.617188 15.296875 9.476562 15.296875 Z M 12.449219 15.296875 C 12.328125 15.296875 12.191406 15.289062 12.03125 15.289062 C 11.839844 15.289062 11.6875 15.132812 11.6875 14.945312 C 11.6875 14.914062 11.691406 14.886719 11.703125 14.855469 C 11.742188 15.003906 11.875 15.109375 12.03125 15.109375 C 12.191406 15.109375 12.328125 15.117188 12.449219 15.117188 C 12.71875 15.121094 12.914062 15.105469 13.125 14.964844 C 13.277344 14.863281 13.359375 14.675781 13.386719 14.53125 C 13.402344 14.421875 13.40625 14.316406 13.40625 14.199219 L 13.40625 14.257812 C 13.40625 14.429688 13.410156 14.566406 13.386719 14.710938 C 13.359375 14.855469 13.277344 15.042969 13.125 15.144531 C 12.914062 15.285156 12.71875 15.300781 12.449219 15.296875 Z M 8.59375 12.539062 L 8.042969 12.128906 C 7.929688 12.042969 7.882812 11.898438 7.917969 11.761719 C 7.9375 11.835938 7.984375 11.902344 8.042969 11.949219 L 8.59375 12.359375 Z M 13.40625 12.539062 L 13.40625 12.359375 L 13.957031 11.949219 C 14.015625 11.902344 14.0625 11.835938 14.082031 11.761719 C 14.117188 11.898438 14.070312 12.042969 13.957031 12.128906 Z M 8.941406 11.761719 L 8.820312 11.671875 L 9.144531 11.429688 C 9.230469 11.367188 9.28125 11.265625 9.28125 11.15625 L 9.28125 11.335938 C 9.28125 11.445312 9.230469 11.546875 9.144531 11.609375 Z M 13.058594 11.761719 L 12.855469 11.609375 C 12.769531 11.546875 12.71875 11.445312 12.71875 11.335938 L 12.71875 11.15625 C 12.71875 11.265625 12.769531 11.367188 12.855469 11.429688 L 13.175781 11.671875 Z M 9.28125 9.445312 L 9.28125 9.265625 C 9.28125 9.109375 9.285156 9.007812 9.292969 8.953125 C 9.304688 8.964844 9.515625 8.921875 9.96875 8.921875 C 10.125 8.921875 10.261719 8.816406 10.300781 8.664062 C 10.308594 8.695312 10.3125 8.726562 10.3125 8.757812 C 10.3125 8.945312 10.160156 9.101562 9.96875 9.101562 C 9.515625 9.101562 9.304688 9.144531 9.292969 9.132812 C 9.285156 9.1875 9.28125 9.289062 9.28125 9.445312 Z M 12.71875 9.445312 C 12.71875 9.289062 12.714844 9.1875 12.707031 9.132812 C 12.695312 9.144531 12.484375 9.101562 12.03125 9.101562 C 11.839844 9.101562 11.6875 8.945312 11.6875 8.757812 C 11.6875 8.726562 11.691406 8.695312 11.703125 8.667969 C 11.742188 8.816406 11.875 8.921875 12.03125 8.921875 C 12.484375 8.921875 12.695312 8.964844 12.707031 8.953125 C 12.714844 9.007812 12.71875 9.109375 12.71875 9.265625 Z M 12.71875 9.445312 "/>
<path style=" stroke:none;fill-rule:nonzero;fill:url(#linear0);" d="M 13.75 1.375 L 4.46875 1.375 C 3.898438 1.375 3.4375 1.835938 3.4375 2.40625 L 3.4375 19.59375 C 3.4375 20.164062 3.898438 20.625 4.46875 20.625 L 17.53125 20.625 C 18.101562 20.625 18.5625 20.164062 18.5625 19.59375 L 18.5625 6.1875 Z M 13.75 1.375 "/>
</g>
</svg>
