
<svg xmlns="http://www.w3.org/2000/svg" xmlns:xlink="http://www.w3.org/1999/xlink" width="48" height="48" viewBox="0 0 48 48" version="1.1">
<defs>
<linearGradient id="linear0" gradientUnits="userSpaceOnUse" x1="31.999998" y1="57.999996" x2="31.999998" y2="8" gradientTransform="matrix(0.75,0,0,0.75,0,0.000000000000085265)">
<stop offset="0" style="stop-color:rgb(0%,0%,0%);stop-opacity:0.2;"/>
<stop offset="1" style="stop-color:rgb(100%,100%,100%);stop-opacity:0;"/>
</linearGradient>
</defs>
<g id="surface1">
<path style=" stroke:none;fill-rule:nonzero;fill:rgb(74.117649%,74.117649%,74.117649%);fill-opacity:0.996078;" d="M 7.5 6 L 40.5 6 C 42.15625 6 43.5 7.34375 43.5 9 L 43.5 37.5 C 43.5 39.15625 42.15625 40.5 40.5 40.5 L 7.5 40.5 C 5.84375 40.5 4.5 39.15625 4.5 37.5 L 4.5 9 C 4.5 7.34375 5.84375 6 7.5 6 Z M 7.5 6 "/>
<path style=" stroke:none;fill-rule:nonzero;fill:rgb(93.333334%,93.333334%,93.333334%);fill-opacity:1;" d="M 6.75 37.5 C 6.335938 37.5 6 37.835938 6 38.25 L 6 39 L 9 39 L 9 38.25 C 9 37.835938 8.664062 37.5 8.25 37.5 Z M 6.75 37.5 "/>
<path style=" stroke:none;fill-rule:nonzero;fill:rgb(93.333334%,93.333334%,93.333334%);fill-opacity:1;" d="M 10.5 37.5 C 10.085938 37.5 9.75 37.835938 9.75 38.25 L 9.75 39 L 12.75 39 L 12.75 38.25 C 12.75 37.835938 12.414062 37.5 12 37.5 Z M 10.5 37.5 "/>
<path style=" stroke:none;fill-rule:nonzero;fill:rgb(93.333334%,93.333334%,93.333334%);fill-opacity:1;" d="M 39.75 37.5 C 39.335938 37.5 39 37.835938 39 38.25 L 39 39 L 42 39 L 42 38.25 C 42 37.835938 41.664062 37.5 41.25 37.5 Z M 39.75 37.5 "/>
<path style=" stroke:none;fill-rule:nonzero;fill:rgb(93.333334%,93.333334%,93.333334%);fill-opacity:1;" d="M 36 37.5 C 35.585938 37.5 35.25 37.835938 35.25 38.25 L 35.25 39 L 38.25 39 L 38.25 38.25 C 38.25 37.835938 37.914062 37.5 37.5 37.5 Z M 36 37.5 "/>
<path style=" stroke:none;fill-rule:nonzero;fill:rgb(93.333334%,93.333334%,93.333334%);fill-opacity:1;" d="M 18 37.5 C 17.585938 37.5 17.25 37.835938 17.25 38.25 L 17.25 39 L 30.75 39 L 30.75 38.25 C 30.75 37.835938 30.414062 37.5 30 37.5 Z M 18 37.5 "/>
<path style=" stroke:none;fill-rule:nonzero;fill:rgb(93.333334%,93.333334%,93.333334%);fill-opacity:1;" d="M 14.25 37.5 C 13.835938 37.5 13.5 37.835938 13.5 38.25 L 13.5 39 L 16.5 39 L 16.5 38.25 C 16.5 37.835938 16.164062 37.5 15.75 37.5 Z M 14.25 37.5 "/>
<path style=" stroke:none;fill-rule:nonzero;fill:rgb(93.333334%,93.333334%,93.333334%);fill-opacity:1;" d="M 32.25 37.5 C 31.835938 37.5 31.5 37.835938 31.5 38.25 L 31.5 39 L 34.5 39 L 34.5 38.25 C 34.5 37.835938 34.164062 37.5 33.75 37.5 Z M 32.25 37.5 "/>
<path style=" stroke:none;fill-rule:nonzero;fill:rgb(38.039216%,38.039216%,38.039216%);fill-opacity:1;" d="M 7.5 7.5 L 40.5 7.5 C 41.328125 7.5 42 8.171875 42 9 L 42 33 C 42 33.828125 41.328125 34.5 40.5 34.5 L 7.5 34.5 C 6.671875 34.5 6 33.828125 6 33 L 6 9 C 6 8.171875 6.671875 7.5 7.5 7.5 Z M 7.5 7.5 "/>
<path style=" stroke:none;fill-rule:nonzero;fill:rgb(87.843138%,87.843138%,87.843138%);fill-opacity:1;" d="M 4.5 39 L 43.5 39 C 44.328125 39 45 39.671875 45 40.5 L 45 42 C 45 42.828125 44.328125 43.5 43.5 43.5 L 4.5 43.5 C 3.671875 43.5 3 42.828125 3 42 L 3 40.5 C 3 39.671875 3.671875 39 4.5 39 Z M 4.5 39 "/>
<path style=" stroke:none;fill-rule:nonzero;fill:rgb(100%,100%,100%);fill-opacity:0.4;" d="M 7.5 6 C 5.839844 6 4.5 7.339844 4.5 9 L 4.5 9.75 C 4.5 8.089844 5.839844 6.75 7.5 6.75 L 40.5 6.75 C 42.160156 6.75 43.5 8.089844 43.5 9.75 L 43.5 9 C 43.5 7.339844 42.160156 6 40.5 6 Z M 7.5 6 "/>
<path style=" stroke:none;fill-rule:nonzero;fill:rgb(100%,100%,100%);fill-opacity:0.4;" d="M 4.5 39 C 3.667969 39 3 39.667969 3 40.5 L 3 41.25 C 3 40.417969 3.667969 39.75 4.5 39.75 L 43.5 39.75 C 44.332031 39.75 45 40.417969 45 41.25 L 45 40.5 C 45 39.667969 44.332031 39 43.5 39 Z M 4.5 39 "/>
<path style=" stroke:none;fill-rule:nonzero;fill:rgb(0%,0%,0%);fill-opacity:0.4;" d="M 4.5 43.5 C 3.667969 43.5 3 42.832031 3 42 L 3 41.25 C 3 42.082031 3.667969 42.75 4.5 42.75 L 43.5 42.75 C 44.332031 42.75 45 42.082031 45 41.25 L 45 42 C 45 42.832031 44.332031 43.5 43.5 43.5 Z M 4.5 43.5 "/>
<path style=" stroke:none;fill-rule:nonzero;fill:rgb(0%,0%,0%);fill-opacity:0.4;" d="M 7.5 7.5 C 6.667969 7.5 6 8.167969 6 9 L 6 9.375 C 6 8.542969 6.667969 7.875 7.5 7.875 L 40.5 7.875 C 41.332031 7.875 42 8.542969 42 9.375 L 42 9 C 42 8.167969 41.332031 7.5 40.5 7.5 Z M 7.5 7.5 "/>
<path style=" stroke:none;fill-rule:nonzero;fill:rgb(100%,100%,100%);fill-opacity:0.4;" d="M 7.5 34.875 C 6.667969 34.875 6 34.207031 6 33.375 L 6 33 C 6 33.832031 6.667969 34.5 7.5 34.5 L 40.5 34.5 C 41.332031 34.5 42 33.832031 42 33 L 42 33.375 C 42 34.207031 41.332031 34.875 40.5 34.875 Z M 7.5 34.875 "/>
<path style=" stroke:none;fill-rule:nonzero;fill:rgb(100%,100%,100%);fill-opacity:0.6;" d="M 6.730469 37.5 C 6.324219 37.511719 6 37.839844 6 38.25 L 6 39 L 9 39 L 9 38.25 C 9 37.835938 8.664062 37.5 8.25 37.5 L 6.75 37.5 C 6.742188 37.5 6.738281 37.5 6.730469 37.5 Z M 10.480469 37.5 C 10.074219 37.511719 9.75 37.839844 9.75 38.25 L 9.75 39 L 12.75 39 L 12.75 38.25 C 12.75 37.835938 12.414062 37.5 12 37.5 L 10.5 37.5 C 10.492188 37.5 10.488281 37.5 10.480469 37.5 Z M 14.230469 37.5 C 13.824219 37.511719 13.5 37.839844 13.5 38.25 L 13.5 39 L 16.5 39 L 16.5 38.25 C 16.5 37.835938 16.164062 37.5 15.75 37.5 L 14.25 37.5 C 14.242188 37.5 14.238281 37.5 14.230469 37.5 Z M 18 37.5 C 17.585938 37.5 17.25 37.835938 17.25 38.25 L 17.25 39 L 30.75 39 L 30.75 38.25 C 30.75 37.835938 30.414062 37.5 30 37.5 Z M 32.230469 37.5 C 31.824219 37.511719 31.5 37.839844 31.5 38.25 L 31.5 39 L 34.5 39 L 34.5 38.25 C 34.5 37.835938 34.164062 37.5 33.75 37.5 L 32.25 37.5 C 32.242188 37.5 32.238281 37.5 32.230469 37.5 Z M 35.980469 37.5 C 35.574219 37.511719 35.25 37.839844 35.25 38.25 L 35.25 39 L 38.25 39 L 38.25 38.25 C 38.25 37.835938 37.914062 37.5 37.5 37.5 L 36 37.5 C 35.992188 37.5 35.988281 37.5 35.980469 37.5 Z M 39.730469 37.5 C 39.324219 37.511719 39 37.839844 39 38.25 L 39 39 L 42 39 L 42 38.25 C 42 37.835938 41.664062 37.5 41.25 37.5 L 39.75 37.5 C 39.742188 37.5 39.738281 37.5 39.730469 37.5 Z M 39.730469 37.5 "/>
<path style=" stroke:none;fill-rule:nonzero;fill:rgb(100%,100%,100%);fill-opacity:0.8;" d="M 6.730469 37.5 C 6.324219 37.511719 6 37.839844 6 38.25 L 6 38.625 C 6 38.214844 6.324219 37.886719 6.730469 37.875 C 6.738281 37.875 6.742188 37.875 6.75 37.875 L 8.25 37.875 C 8.664062 37.875 9 38.210938 9 38.625 L 9 38.25 C 9 37.835938 8.664062 37.5 8.25 37.5 L 6.75 37.5 C 6.742188 37.5 6.738281 37.5 6.730469 37.5 Z M 10.480469 37.5 C 10.074219 37.511719 9.75 37.839844 9.75 38.25 L 9.75 38.625 C 9.75 38.214844 10.074219 37.886719 10.480469 37.875 C 10.488281 37.875 10.492188 37.875 10.5 37.875 L 12 37.875 C 12.414062 37.875 12.75 38.210938 12.75 38.625 L 12.75 38.25 C 12.75 37.835938 12.414062 37.5 12 37.5 L 10.5 37.5 C 10.492188 37.5 10.488281 37.5 10.480469 37.5 Z M 14.230469 37.5 C 13.824219 37.511719 13.5 37.839844 13.5 38.25 L 13.5 38.625 C 13.5 38.214844 13.824219 37.886719 14.230469 37.875 C 14.238281 37.875 14.242188 37.875 14.25 37.875 L 15.75 37.875 C 16.164062 37.875 16.5 38.210938 16.5 38.625 L 16.5 38.25 C 16.5 37.835938 16.164062 37.5 15.75 37.5 L 14.25 37.5 C 14.242188 37.5 14.238281 37.5 14.230469 37.5 Z M 18 37.5 C 17.585938 37.5 17.25 37.835938 17.25 38.25 L 17.25 38.625 C 17.25 38.210938 17.585938 37.875 18 37.875 L 30 37.875 C 30.414062 37.875 30.75 38.210938 30.75 38.625 L 30.75 38.25 C 30.75 37.835938 30.414062 37.5 30 37.5 Z M 32.230469 37.5 C 31.824219 37.511719 31.5 37.839844 31.5 38.25 L 31.5 38.625 C 31.5 38.214844 31.824219 37.886719 32.230469 37.875 C 32.238281 37.875 32.242188 37.875 32.25 37.875 L 33.75 37.875 C 34.164062 37.875 34.5 38.210938 34.5 38.625 L 34.5 38.25 C 34.5 37.835938 34.164062 37.5 33.75 37.5 L 32.25 37.5 C 32.242188 37.5 32.238281 37.5 32.230469 37.5 Z M 35.980469 37.5 C 35.574219 37.511719 35.25 37.839844 35.25 38.25 L 35.25 38.625 C 35.25 38.214844 35.574219 37.886719 35.980469 37.875 C 35.988281 37.875 35.992188 37.875 36 37.875 L 37.5 37.875 C 37.914062 37.875 38.25 38.210938 38.25 38.625 L 38.25 38.25 C 38.25 37.835938 37.914062 37.5 37.5 37.5 L 36 37.5 C 35.992188 37.5 35.988281 37.5 35.980469 37.5 Z M 39.730469 37.5 C 39.324219 37.511719 39 37.839844 39 38.25 L 39 38.625 C 39 38.214844 39.324219 37.886719 39.730469 37.875 C 39.738281 37.875 39.742188 37.875 39.75 37.875 L 41.25 37.875 C 41.664062 37.875 42 38.210938 42 38.625 L 42 38.25 C 42 37.835938 41.664062 37.5 41.25 37.5 L 39.75 37.5 C 39.742188 37.5 39.738281 37.5 39.730469 37.5 Z M 39.730469 37.5 "/>
<path style=" stroke:none;fill-rule:nonzero;fill:rgb(0%,0%,0%);fill-opacity:0.2;" d="M 3 42.003906 L 3 43.128906 C 3 43.960938 3.667969 44.628906 4.5 44.628906 L 43.5 44.628906 C 44.332031 44.628906 45 43.960938 45 43.128906 L 45 42.003906 C 45 42.835938 44.332031 43.503906 43.5 43.503906 L 4.5 43.503906 C 3.667969 43.503906 3 42.835938 3 42.003906 Z M 3 42.003906 "/>
<path style=" stroke:none;fill-rule:nonzero;fill:url(#linear0);" d="M 7.5 6 C 5.839844 6 4.5 7.339844 4.5 9 L 4.5 37.5 C 4.5 38.046875 4.644531 38.558594 4.898438 39 L 4.5 39 C 3.667969 39 3 39.667969 3 40.5 L 3 42 C 3 42.832031 3.667969 43.5 4.5 43.5 L 43.5 43.5 C 44.332031 43.5 45 42.832031 45 42 L 45 40.5 C 45 39.667969 44.332031 39 43.5 39 L 43.101562 39 C 43.355469 38.558594 43.5 38.046875 43.5 37.5 L 43.5 9 C 43.5 7.339844 42.160156 6 40.5 6 Z M 7.5 6 "/>
</g>
</svg>
