
<svg xmlns="http://www.w3.org/2000/svg" xmlns:xlink="http://www.w3.org/1999/xlink" width="64" height="64" viewBox="0 0 64 64" version="1.1">
<defs>
<linearGradient id="linear0" gradientUnits="userSpaceOnUse" x1="8.466666" y1="-199.125" x2="8.466666" y2="-213.941666" gradientTransform="matrix(3.779528,0,0,3.779528,0,812.598468)">
<stop offset="0" style="stop-color:rgb(0%,0%,0%);stop-opacity:0.2;"/>
<stop offset="1" style="stop-color:rgb(100%,100%,100%);stop-opacity:0;"/>
</linearGradient>
</defs>
<g id="surface1">
<path style=" stroke:none;fill-rule:nonzero;fill:rgb(100%,65.490198%,14.901961%);fill-opacity:1;" d="M 12.003906 4 C 7.582031 4 4 7.582031 4 12.003906 L 4 51.996094 C 4 56.417969 7.582031 60 12.003906 60 L 19.996094 60 C 21.910156 60 23.757812 59.316406 25.210938 58.074219 L 33.046875 51.347656 L 37.855469 57.121094 C 39.375 58.945312 41.628906 60 44.003906 60 L 51.996094 60 C 56.417969 60 60 56.417969 60 51.996094 C 59.996094 47.582031 56.414062 44.003906 51.996094 44.003906 L 47.746094 44.003906 L 40.144531 34.878906 C 38.773438 33.238281 36.800781 32.210938 34.667969 32.03125 C 32.535156 31.855469 30.421875 32.535156 28.796875 33.925781 L 19.996094 41.464844 L 19.996094 12.003906 C 20 7.585938 16.417969 4.003906 12.003906 4 Z M 12.003906 4 "/>
<path style=" stroke:none;fill-rule:nonzero;fill:rgb(67.058825%,27.843139%,73.725492%);fill-opacity:0.996078;" d="M 4 22 L 4 36 L 20 36 L 20 22 Z M 4 22 "/>
<path style=" stroke:none;fill-rule:nonzero;fill:rgb(67.058825%,27.843139%,73.725492%);fill-opacity:1;" d="M 20 42 L 4 51.84375 L 4 52 C 4 56.417969 7.585938 60 12.003906 60 L 20 60 C 21.371094 59.996094 22.71875 59.636719 23.914062 58.957031 Z M 20 42 "/>
<path style=" stroke:none;fill-rule:nonzero;fill:rgb(67.058825%,27.843139%,73.725492%);fill-opacity:0.996078;" d="M 34.09375 32.003906 C 34.0625 32.007812 34.03125 32.007812 34 32.011719 L 34 52.488281 L 37.855469 57.121094 C 39.375 58.945312 41.628906 60 44.003906 60 L 48 60 L 48 44.003906 L 47.746094 44.003906 L 40.140625 34.878906 C 38.644531 33.082031 36.433594 32.03125 34.09375 32.003906 Z M 34.09375 32.003906 "/>
<path style=" stroke:none;fill-rule:nonzero;fill:rgb(38.039216%,38.039216%,38.039216%);fill-opacity:0.996078;" d="M 7.25 10 C 8.214844 10 9 10.785156 9 11.75 C 9 12.714844 8.214844 13.5 7.25 13.5 C 6.285156 13.5 5.5 12.714844 5.5 11.75 C 5.5 10.785156 6.285156 10 7.25 10 Z M 7.25 10 "/>
<path style=" stroke:none;fill-rule:nonzero;fill:rgb(74.117649%,74.117649%,74.117649%);fill-opacity:0.996078;" d="M 6.5 11 C 6.777344 11 7 11.222656 7 11.5 C 7 11.777344 6.777344 12 6.5 12 C 6.222656 12 6 11.777344 6 11.5 C 6 11.222656 6.222656 11 6.5 11 Z M 6.5 11 "/>
<path style=" stroke:none;fill-rule:nonzero;fill:rgb(100%,100%,100%);fill-opacity:0.4;" d="M 7.203125 10 C 6.257812 10.023438 5.5 10.796875 5.5 11.75 C 5.5 11.835938 5.507812 11.917969 5.515625 12 C 5.636719 11.148438 6.367188 10.5 7.25 10.5 C 8.132812 10.5 8.863281 11.148438 8.984375 12 C 8.992188 11.917969 9 11.835938 9 11.75 C 9 10.78125 8.21875 10 7.25 10 C 7.234375 10 7.21875 10 7.203125 10 Z M 7.203125 10 "/>
<path style=" stroke:none;fill-rule:nonzero;fill:rgb(0%,0%,0%);fill-opacity:0.4;" d="M 7.207031 14 C 6.257812 13.976562 5.5 13.203125 5.5 12.25 C 5.5 12.164062 5.507812 12.082031 5.515625 12 C 5.636719 12.851562 6.367188 13.5 7.25 13.5 C 8.132812 13.5 8.863281 12.851562 8.980469 12 C 8.992188 12.082031 9 12.164062 9 12.25 C 9 13.21875 8.21875 14 7.25 14 C 7.234375 14 7.21875 14 7.203125 14 Z M 7.207031 14 "/>
<path style=" stroke:none;fill-rule:nonzero;fill:rgb(38.039216%,38.039216%,38.039216%);fill-opacity:0.996078;" d="M 13.734375 10 C 14.699219 10 15.484375 10.785156 15.484375 11.75 C 15.484375 12.714844 14.699219 13.5 13.734375 13.5 C 12.765625 13.5 11.984375 12.714844 11.984375 11.75 C 11.984375 10.785156 12.765625 10 13.734375 10 Z M 13.734375 10 "/>
<path style=" stroke:none;fill-rule:nonzero;fill:rgb(74.117649%,74.117649%,74.117649%);fill-opacity:0.996078;" d="M 12.984375 11 C 13.257812 11 13.484375 11.222656 13.484375 11.5 C 13.484375 11.777344 13.257812 12 12.984375 12 C 12.707031 12 12.484375 11.777344 12.484375 11.5 C 12.484375 11.222656 12.707031 11 12.984375 11 Z M 12.984375 11 "/>
<path style=" stroke:none;fill-rule:nonzero;fill:rgb(100%,100%,100%);fill-opacity:0.4;" d="M 13.6875 10 C 12.738281 10.023438 11.984375 10.796875 11.984375 11.75 C 11.984375 11.835938 11.988281 11.917969 12 12 C 12.121094 11.148438 12.847656 10.5 13.730469 10.5 C 14.617188 10.5 15.34375 11.148438 15.464844 12 C 15.476562 11.917969 15.480469 11.835938 15.480469 11.75 C 15.480469 10.78125 14.703125 10 13.730469 10 C 13.71875 10 13.703125 10 13.6875 10 Z M 13.6875 10 "/>
<path style=" stroke:none;fill-rule:nonzero;fill:rgb(0%,0%,0%);fill-opacity:0.4;" d="M 13.6875 14 C 12.738281 13.976562 11.984375 13.203125 11.984375 12.25 C 11.984375 12.164062 11.988281 12.082031 12 12 C 12.121094 12.851562 12.847656 13.5 13.730469 13.5 C 14.617188 13.5 15.34375 12.851562 15.464844 12 C 15.476562 12.082031 15.480469 12.164062 15.480469 12.25 C 15.480469 13.21875 14.703125 14 13.730469 14 C 13.71875 14 13.703125 14 13.6875 14 Z M 13.6875 14 "/>
<path style=" stroke:none;fill-rule:nonzero;fill:rgb(100%,100%,100%);fill-opacity:0.4;" d="M 12.003906 4 C 7.582031 4 4 7.582031 4 12.003906 L 4 13 C 4 8.582031 7.585938 5 12.003906 5 C 16.421875 5.003906 20 8.585938 20 13 L 20 12.003906 C 20 7.585938 16.421875 4.003906 12.003906 4 Z M 34.09375 32.003906 C 32.152344 31.984375 30.269531 32.664062 28.796875 33.925781 L 20 41.464844 L 20 42.464844 L 28.796875 34.925781 C 30.421875 33.535156 32.535156 32.851562 34.667969 33.03125 C 36.800781 33.210938 38.773438 34.234375 40.140625 35.878906 L 47.746094 45 L 52 45 C 56.265625 45.011719 59.773438 48.367188 59.972656 52.628906 C 59.988281 52.417969 60 52.207031 60 52 C 59.996094 47.582031 56.414062 44.003906 52 44.003906 L 47.746094 44.003906 L 40.140625 34.878906 C 38.644531 33.082031 36.433594 32.03125 34.09375 32.003906 Z M 34.09375 32.003906 "/>
<path style=" stroke:none;fill-rule:nonzero;fill:rgb(0%,0%,0%);fill-opacity:0.4;" d="M 33.046875 50.363281 L 25.207031 57.089844 C 23.757812 58.332031 21.910156 59.015625 20 59.015625 L 12.003906 59.015625 C 7.585938 59.015625 4 55.433594 4 51.015625 L 4 52 C 4 56.417969 7.585938 60 12.003906 60 L 20 60 C 21.910156 60 23.757812 59.316406 25.207031 58.074219 L 33.046875 51.347656 L 37.855469 57.121094 C 39.375 58.945312 41.628906 60 44.003906 60 L 52 60 C 56.417969 60 60 56.417969 60 52 C 59.996094 51.878906 59.984375 51.757812 59.972656 51.636719 C 59.648438 55.800781 56.175781 59.015625 52 59.015625 L 44.003906 59.015625 C 41.628906 59.015625 39.375 57.960938 37.855469 56.136719 Z M 33.046875 50.363281 "/>
<path style=" stroke:none;fill-rule:nonzero;fill:rgb(0%,0%,0%);fill-opacity:0.2;" d="M 33.046875 51.347656 L 25.207031 58.074219 C 23.757812 59.316406 21.910156 60 20 60 L 12.003906 60 C 7.585938 60 4 56.417969 4 52 L 4 53.488281 C 4 57.910156 7.585938 61.492188 12.003906 61.492188 L 20 61.492188 C 21.910156 61.492188 23.757812 60.808594 25.207031 59.566406 L 33.046875 52.839844 L 37.855469 58.613281 C 39.375 60.4375 41.628906 61.492188 44.003906 61.492188 L 52 61.492188 C 56.417969 61.492188 60 57.910156 60 53.488281 C 59.992188 53.277344 59.976562 53.0625 59.953125 52.847656 C 59.519531 56.914062 56.089844 60 52 60 L 44.003906 60 C 41.628906 60 39.375 58.945312 37.855469 57.121094 Z M 33.046875 51.347656 "/>
<path style=" stroke:none;fill-rule:nonzero;fill:rgb(93.725491%,32.549021%,31.37255%);fill-opacity:1;" d="M 7 17 L 14 17 C 12 19.5 9 19.5 7 17 Z M 7 17 "/>
<path style=" stroke:none;fill-rule:nonzero;fill:rgb(100%,100%,100%);fill-opacity:0.4;" d="M 7 17.5 C 9 20 12 20 14 17.5 L 13.554688 17.5 C 11.726562 19.332031 9.273438 19.332031 7.445312 17.5 Z M 7 17.5 "/>
<path style=" stroke:none;fill-rule:nonzero;fill:rgb(0%,0%,0%);fill-opacity:0.4;" d="M 7 17 C 7.144531 17.179688 7.292969 17.347656 7.445312 17.5 L 13.554688 17.5 C 13.707031 17.347656 13.855469 17.179688 14 17 Z M 7 17 "/>
<path style=" stroke:none;fill-rule:nonzero;fill:rgb(100%,100%,100%);fill-opacity:0.2;" d="M 8.003906 21.996094 C 6.898438 21.996094 6 22.894531 6 24 L 6 47.996094 C 6 49.941406 6.761719 51.667969 8.03125 52.683594 C 9.300781 53.699219 10.824219 54 12.246094 54 C 15.089844 54 17.707031 53.121094 19.414062 51.414062 C 22.136719 49.027344 25.089844 46.085938 27.800781 43.773438 C 30.542969 41.4375 33.222656 40.003906 34 40.003906 C 34.167969 40.003906 34.792969 40.234375 35.632812 41.019531 C 36.46875 41.808594 37.4375 42.996094 38.4375 44.246094 C 39.4375 45.496094 40.472656 46.804688 41.632812 47.894531 C 42.796875 48.984375 44.164062 49.996094 45.996094 49.996094 L 51 49.996094 C 52.105469 49.996094 53.003906 49.101562 53.003906 47.996094 C 53.003906 46.890625 52.105469 45.996094 51 45.996094 L 45.996094 45.996094 C 45.828125 45.996094 45.203125 45.765625 44.363281 44.976562 C 43.527344 44.191406 42.558594 43.003906 41.558594 41.753906 C 40.558594 40.503906 39.53125 39.195312 38.371094 38.105469 C 37.210938 37.015625 35.835938 36 34 36 C 30.777344 36 28.125 38.230469 25.203125 40.726562 C 22.277344 43.21875 19.269531 46.226562 16.683594 48.492188 C 16.648438 48.523438 16.617188 48.554688 16.585938 48.585938 C 16.292969 48.878906 13.902344 49.996094 12.246094 49.996094 C 11.417969 49.996094 10.828125 49.796875 10.535156 49.5625 C 10.242188 49.328125 10.003906 49.050781 10.003906 47.996094 L 10.003906 24 C 10.003906 22.894531 9.105469 21.996094 8.003906 22 Z M 8.003906 21.996094 "/>
<path style=" stroke:none;fill-rule:nonzero;fill:url(#linear0);" d="M 12.003906 4 C 7.582031 4 4 7.582031 4 12.003906 L 4 51.996094 C 4 56.417969 7.582031 60 12.003906 60 L 19.996094 60 C 21.910156 60 23.757812 59.316406 25.210938 58.074219 L 33.046875 51.347656 L 37.855469 57.121094 C 39.375 58.945312 41.628906 60 44.003906 60 L 51.996094 60 C 56.417969 60 60 56.417969 60 51.996094 C 59.996094 47.582031 56.414062 44.003906 51.996094 44.003906 L 47.746094 44.003906 L 40.144531 34.878906 C 38.773438 33.238281 36.800781 32.210938 34.667969 32.03125 C 32.535156 31.855469 30.421875 32.535156 28.796875 33.925781 L 19.996094 41.464844 L 19.996094 12.003906 C 20 7.585938 16.417969 4.003906 12.003906 4 Z M 12.003906 4 "/>
</g>
</svg>
