
<svg xmlns="http://www.w3.org/2000/svg" xmlns:xlink="http://www.w3.org/1999/xlink" width="64" height="64" viewBox="0 0 64 64" version="1.1">
<defs>
<linearGradient id="linear0" gradientUnits="userSpaceOnUse" x1="8.466666" y1="-199.125" x2="8.466666" y2="-213.941666" gradientTransform="matrix(3.779528,0,0,3.779528,0.000000163015,812.598468)">
<stop offset="0" style="stop-color:rgb(0%,0%,0%);stop-opacity:0.2;"/>
<stop offset="1" style="stop-color:rgb(100%,100%,100%);stop-opacity:0;"/>
</linearGradient>
</defs>
<g id="surface1">
<path style=" stroke:none;fill-rule:nonzero;fill:rgb(95.686275%,26.274511%,21.176471%);fill-opacity:1;" d="M 56 60 C 58.214844 60 60 58.214844 60 56 L 60 32 L 32 32 L 32 60 Z M 56 60 "/>
<path style=" stroke:none;fill-rule:nonzero;fill:rgb(92.54902%,25.098041%,47.843137%);fill-opacity:1;" d="M 8 60 C 5.785156 60 4 58.214844 4 56 L 4 32 L 32 32 L 32 60 Z M 8 60 "/>
<path style=" stroke:none;fill-rule:nonzero;fill:rgb(100%,65.490198%,14.901961%);fill-opacity:1;" d="M 56 4 C 58.214844 4 60 5.785156 60 8 L 60 32 L 32 32 L 32 4 Z M 56 4 "/>
<path style=" stroke:none;fill-rule:nonzero;fill:rgb(49.411765%,34.117648%,76.078433%);fill-opacity:1;" d="M 8 4 C 5.785156 4 4 5.785156 4 8 L 4 32 L 32 32 L 32 4 Z M 8 4 "/>
<path style=" stroke:none;fill-rule:nonzero;fill:rgb(38.039216%,38.039216%,38.039216%);fill-opacity:1;" d="M 14 12 L 50 12 C 51.105469 12 52 12.894531 52 14 L 52 50 C 52 51.105469 51.105469 52 50 52 L 14 52 C 12.894531 52 12 51.105469 12 50 L 12 14 C 12 12.894531 12.894531 12 14 12 Z M 14 12 "/>
<path style=" stroke:none;fill-rule:nonzero;fill:rgb(100%,100%,100%);fill-opacity:0.4;" d="M 14 12 C 12.890625 12 12 12.890625 12 14 L 12 15 C 12 13.890625 12.890625 13 14 13 L 50 13 C 51.109375 13 52 13.890625 52 15 L 52 14 C 52 12.890625 51.109375 12 50 12 Z M 14 12 "/>
<path style=" stroke:none;fill-rule:nonzero;fill:rgb(0.784314%,0.784314%,0.784314%);fill-opacity:0.4;" d="M 14 53 C 12.890625 53 12 52.109375 12 51 L 12 50 C 12 51.109375 12.890625 52 14 52 L 50 52 C 51.109375 52 52 51.109375 52 50 L 52 51 C 52 52.109375 51.109375 53 50 53 Z M 14 53 "/>
<path style=" stroke:none;fill-rule:nonzero;fill:rgb(100%,100%,100%);fill-opacity:0.4;" d="M 8 4 C 5.785156 4 4 5.785156 4 8 L 4 9 C 4 6.785156 5.785156 5 8 5 L 56 5 C 58.214844 5 60 6.785156 60 9 L 60 8 C 60 5.785156 58.214844 4 56 4 Z M 8 4 "/>
<path style=" stroke:none;fill-rule:nonzero;fill:rgb(0%,0%,0%);fill-opacity:0.4;" d="M 8 60 C 5.785156 60 4 58.214844 4 56 L 4 55 C 4 57.214844 5.785156 59 8 59 L 56 59 C 58.214844 59 60 57.214844 60 55 L 60 56 C 60 58.214844 58.214844 60 56 60 Z M 8 60 "/>
<path style=" stroke:none;fill-rule:nonzero;fill:rgb(0%,0%,0%);fill-opacity:0.2;" d="M 4 56 L 4 57.5 C 4 59.714844 5.785156 61.5 8 61.5 L 56 61.5 C 58.214844 61.5 60 59.714844 60 57.5 L 60 56 C 60 58.214844 58.214844 60 56 60 L 8 60 C 5.785156 60 4 58.214844 4 56 Z M 4 56 "/>
<path style=" stroke:none;fill-rule:nonzero;fill:rgb(93.333334%,93.333334%,93.333334%);fill-opacity:1;" d="M 17 22 C 16.445312 22 16 22.445312 16 23 L 16 41 C 16 41.554688 16.445312 42 17 42 L 19 42 C 19.554688 42 20 41.554688 20 41 L 20 34 L 22.070312 34 L 26.398438 41.5 C 26.675781 41.976562 27.285156 42.140625 27.765625 41.863281 L 29.5 40.863281 C 29.976562 40.585938 30.140625 39.976562 29.863281 39.5 L 26.402344 33.5 C 28.523438 32.578125 30 30.46875 30 28 C 30 24.675781 27.324219 22 24 22 Z M 20 26 L 24 26 C 25.109375 26 26 26.890625 26 28 C 26 29.109375 25.109375 30 24 30 L 20 30 Z M 20 26 "/>
<path style=" stroke:none;fill-rule:nonzero;fill:rgb(100%,100%,100%);fill-opacity:0.6;" d="M 17 22 C 16.445312 22 16 22.445312 16 23 L 16 24 C 16 23.445312 16.445312 23 17 23 L 24 23 C 27.152344 23 29.722656 25.410156 29.980469 28.496094 C 29.992188 28.332031 30 28.167969 30 28 C 30 24.675781 27.324219 22 24 22 Z M 25.9375 28.496094 C 25.714844 29.359375 24.9375 30 24 30 L 20 30 L 20 31 L 24 31 C 25.109375 31 26 30.109375 26 29 C 26 28.824219 25.976562 28.65625 25.9375 28.496094 Z M 26.851562 34.28125 C 26.703125 34.359375 26.554688 34.433594 26.402344 34.5 L 29.859375 40.496094 C 30.035156 40.195312 30.050781 39.820312 29.863281 39.5 Z M 26.851562 34.28125 "/>
<path style=" stroke:none;fill-rule:nonzero;fill:rgb(0%,0%,0%);fill-opacity:0.4;" d="M 20 26.003906 L 20 27 L 24 27 C 24.933594 27 25.714844 27.636719 25.9375 28.5 C 25.976562 28.339844 26 28.175781 26 28.003906 C 26 26.894531 25.109375 26.003906 24 26.003906 Z M 29.980469 28.5 C 29.796875 30.753906 28.378906 32.644531 26.402344 33.503906 L 26.847656 34.28125 C 28.726562 33.273438 30 31.292969 30 29 C 30 28.832031 29.992188 28.664062 29.980469 28.5 Z M 20 34.003906 L 20 35 L 22.070312 35 L 26.398438 42.5 C 26.675781 42.976562 27.285156 43.140625 27.765625 42.863281 L 29.5 41.863281 C 29.976562 41.585938 30.140625 40.980469 29.863281 40.5 C 29.78125 40.648438 29.65625 40.777344 29.5 40.867188 L 27.765625 41.867188 C 27.285156 42.144531 26.675781 41.980469 26.398438 41.5 L 22.070312 34.003906 Z M 16 41.003906 L 16 42 C 16 42.554688 16.445312 43 17 43 L 19 43 C 19.554688 43 20 42.554688 20 42 L 20 41.003906 C 20 41.558594 19.554688 42.003906 19 42.003906 L 17 42.003906 C 16.445312 42.003906 16 41.558594 16 41.003906 Z M 16 41.003906 "/>
<path style=" stroke:none;fill-rule:nonzero;fill:rgb(93.333334%,93.333334%,93.333334%);fill-opacity:1;" d="M 36 22 L 35 22 C 34.445312 22 34 22.445312 34 23 L 34 41 C 34 41.554688 34.445312 42 35 42 L 37 42 C 37.554688 42 38 41.554688 38 41 L 38 29.703125 L 39.125 32.703125 C 39.414062 33.484375 40.160156 34.003906 41 34.003906 C 41.835938 34.003906 42.582031 33.484375 42.875 32.703125 L 44 29.695312 L 44 41 C 44 41.554688 44.445312 42 45 42 L 47 42 C 47.554688 42 48 41.554688 48 41 L 48 23 C 48 22.445312 47.554688 22 47 22 L 44.003906 22 C 43.167969 21.996094 42.421875 22.515625 42.128906 23.296875 L 41 26.300781 L 39.871094 23.296875 C 39.578125 22.519531 38.832031 22 38 22 Z M 36 22 "/>
<path style=" stroke:none;fill-rule:nonzero;fill:rgb(100%,100%,100%);fill-opacity:0.6;" d="M 36 22 L 35 22 C 34.445312 22 34 22.445312 34 23 L 34 24 C 34 23.445312 34.445312 23 35 23 L 38 23 C 38.832031 23 39.578125 23.519531 39.871094 24.296875 L 41 27.300781 L 42.128906 24.296875 C 42.421875 23.515625 43.167969 22.996094 44.003906 23 L 47 23 C 47.554688 23 48 23.445312 48 24 L 48 23 C 48 22.445312 47.554688 22 47 22 L 44.003906 22 C 43.167969 21.996094 42.421875 22.515625 42.128906 23.296875 L 41 26.300781 L 39.871094 23.296875 C 39.578125 22.519531 38.832031 22 38 22 Z M 36 22 "/>
<path style=" stroke:none;fill-rule:nonzero;fill:rgb(0%,0%,0%);fill-opacity:0.4;" d="M 44 29.695312 L 42.875 32.703125 C 42.582031 33.484375 41.835938 34.003906 41 34.003906 C 40.160156 34.003906 39.414062 33.484375 39.125 32.703125 L 38 29.703125 L 38 30.703125 L 39.125 33.703125 C 39.414062 34.484375 40.160156 35.003906 41 35.003906 C 41.835938 35.003906 42.582031 34.484375 42.875 33.703125 L 44 30.695312 Z M 34 41 L 34 42 C 34 42.554688 34.445312 43 35 43 L 37 43 C 37.554688 43 38 42.554688 38 42 L 38 41 C 38 41.554688 37.554688 42 37 42 L 35 42 C 34.445312 42 34 41.554688 34 41 Z M 44 41 L 44 42 C 44 42.554688 44.445312 43 45 43 L 47 43 C 47.554688 43 48 42.554688 48 42 L 48 41 C 48 41.554688 47.554688 42 47 42 L 45 42 C 44.445312 42 44 41.554688 44 41 Z M 44 41 "/>
<path style=" stroke:none;fill-rule:nonzero;fill:url(#linear0);" d="M 8 4 L 56 4 C 58.210938 4 60 5.789062 60 8 L 60 56 C 60 58.210938 58.210938 60 56 60 L 8 60 C 5.789062 60 4 58.210938 4 56 L 4 8 C 4 5.789062 5.789062 4 8 4 Z M 8 4 "/>
</g>
</svg>
