
<svg xmlns="http://www.w3.org/2000/svg" xmlns:xlink="http://www.w3.org/1999/xlink" width="48" height="48" viewBox="0 0 48 48" version="1.1">
<defs>
<linearGradient id="linear0" gradientUnits="userSpaceOnUse" x1="31.999998" y1="60" x2="31.999998" y2="3.999999" gradientTransform="matrix(0.75,0,0,0.75,0,0.000000000000085265)">
<stop offset="0" style="stop-color:rgb(0%,0%,0%);stop-opacity:0.2;"/>
<stop offset="1" style="stop-color:rgb(100%,100%,100%);stop-opacity:0;"/>
</linearGradient>
</defs>
<g id="surface1">
<path style=" stroke:none;fill-rule:nonzero;fill:rgb(45.882353%,45.882353%,45.882353%);fill-opacity:1;" d="M 28.5 6 C 27.386719 6 26.417969 6.601562 25.898438 7.5 L 7.5 7.5 C 5.839844 7.5 4.5 8.839844 4.5 10.5 L 4.5 15 C 4.5 16.660156 5.839844 18 7.5 18 L 40.5 18 C 42.160156 18 43.5 16.660156 43.5 15 L 43.5 9 C 43.5 7.339844 42.160156 6 40.5 6 Z M 28.5 6 "/>
<path style=" stroke:none;fill-rule:nonzero;fill:rgb(100%,100%,100%);fill-opacity:0.4;" d="M 28.5 6 C 27.386719 6 26.417969 6.601562 25.898438 7.5 L 7.5 7.5 C 5.839844 7.5 4.5 8.839844 4.5 10.5 L 4.5 10.554688 C 4.660156 9.042969 5.929688 7.875 7.484375 7.875 L 25.882812 7.875 C 26.398438 6.976562 27.367188 6.375 28.480469 6.375 L 40.480469 6.375 C 42.144531 6.375 43.480469 7.714844 43.480469 9.375 L 43.480469 15.316406 C 43.492188 15.214844 43.5 15.109375 43.5 15 L 43.5 9 C 43.5 7.339844 42.160156 6 40.5 6 Z M 28.5 6 "/>
<path style=" stroke:none;fill-rule:nonzero;fill:rgb(74.117649%,74.117649%,74.117649%);fill-opacity:1;" d="M 6 9 C 4.339844 9 3 10.339844 3 12 L 3 39 C 3 40.660156 4.339844 42 6 42 L 42 42 C 43.660156 42 45 40.660156 45 39 L 45 15 C 45 13.339844 43.660156 12 42 12 L 28.539062 12 C 28.527344 12 28.511719 12 28.5 12 C 27.667969 12 27 11.332031 27 10.5 C 27 9.667969 26.332031 9 25.5 9 Z M 6 9 "/>
<path style=" stroke:none;fill-rule:nonzero;fill:rgb(100%,100%,100%);fill-opacity:0.4;" d="M 6 9 C 4.339844 9 3 10.339844 3 12 L 3 12.75 C 3 11.089844 4.339844 9.75 6 9.75 L 25.5 9.75 C 26.332031 9.75 27 10.417969 27 11.25 C 27 12.082031 27.667969 12.75 28.5 12.75 C 28.511719 12.75 28.527344 12.75 28.539062 12.75 L 42 12.75 C 43.660156 12.75 45 14.089844 45 15.75 L 45 15 C 45 13.339844 43.660156 12 42 12 L 28.539062 12 C 28.527344 12 28.511719 12 28.5 12 C 27.667969 12 27 11.332031 27 10.5 C 27 9.667969 26.332031 9 25.5 9 Z M 6 9 "/>
<path style=" stroke:none;fill-rule:nonzero;fill:rgb(0%,0%,0%);fill-opacity:0.4;" d="M 3 38.25 L 3 39 C 3 40.660156 4.339844 42 6 42 L 42 42 C 43.660156 42 45 40.660156 45 39 L 45 38.25 C 45 39.910156 43.660156 41.25 42 41.25 L 6 41.25 C 4.339844 41.25 3 39.910156 3 38.25 Z M 3 38.25 "/>
<path style=" stroke:none;fill-rule:nonzero;fill:rgb(0%,0%,0%);fill-opacity:0.2;" d="M 3 39 L 3 40.125 C 3 41.785156 4.339844 43.125 6 43.125 L 42 43.125 C 43.660156 43.125 45 41.785156 45 40.125 L 45 39 C 45 40.660156 43.660156 42 42 42 L 6 42 C 4.339844 42 3 40.660156 3 39 Z M 3 39 "/>
<path style=" stroke:none;fill-rule:nonzero;fill:rgb(87.843138%,87.843138%,87.843138%);fill-opacity:1;" d="M 23.902344 18 C 19.792969 18.050781 16.5 21.378906 16.5 25.5 C 16.5 29.65625 19.84375 33 24 33 C 28.15625 33 31.5 29.65625 31.5 25.5 C 31.5 21.34375 28.15625 18 24 18 C 23.96875 18 23.9375 18 23.902344 18 Z M 24 19.5 C 27.324219 19.5 30 22.175781 30 25.5 L 28.5 25.5 C 28.5 23.007812 26.492188 21 24 21 Z M 24 24 C 24.832031 24 25.5 24.667969 25.5 25.5 C 25.5 26.332031 24.832031 27 24 27 C 23.167969 27 22.5 26.332031 22.5 25.5 C 22.5 24.667969 23.167969 24 24 24 Z M 18 25.5 L 19.5 25.5 C 19.5 27.992188 21.507812 30 24 30 L 24 31.5 C 20.675781 31.5 18 28.824219 18 25.5 Z M 18 25.5 "/>
<path style=" stroke:none;fill-rule:nonzero;fill:rgb(89.411765%,89.411765%,89.411765%);fill-opacity:0.4;" d="M 23.902344 18 C 19.792969 18.050781 16.5 21.378906 16.5 25.5 C 16.5 25.550781 16.503906 25.601562 16.503906 25.652344 C 16.621094 21.632812 19.867188 18.425781 23.902344 18.375 C 23.9375 18.375 23.96875 18.375 24 18.375 C 28.082031 18.375 31.378906 21.601562 31.496094 25.652344 C 31.496094 25.601562 31.5 25.550781 31.5 25.5 C 31.5 21.34375 28.15625 18 24 18 C 23.96875 18 23.933594 18 23.902344 18 Z M 24 21 L 24 21.375 C 26.492188 21.375 28.5 23.382812 28.5 25.875 L 30 25.875 C 30 25.75 29.996094 25.625 29.988281 25.5 L 28.5 25.5 C 28.5 23.007812 26.492188 21 24 21 Z M 22.511719 25.683594 C 22.503906 25.746094 22.5 25.808594 22.5 25.875 C 22.5 26.707031 23.167969 27.375 24 27.375 C 24.832031 27.375 25.5 26.707031 25.5 25.875 C 25.5 25.808594 25.496094 25.746094 25.488281 25.683594 C 25.398438 26.429688 24.769531 27 24 27 C 23.230469 27 22.601562 26.429688 22.511719 25.683594 Z M 18 25.875 C 18 29.199219 20.675781 31.875 24 31.875 L 24 31.5 C 20.800781 31.5 18.203125 29.023438 18.011719 25.875 Z M 18 25.875 "/>
<path style=" stroke:none;fill-rule:nonzero;fill:rgb(15.294118%,15.294118%,15.294118%);fill-opacity:0.4;" d="M 24 19.5 L 24 19.875 C 27.199219 19.875 29.796875 22.351562 29.988281 25.5 L 30 25.5 C 30 22.175781 27.324219 19.5 24 19.5 Z M 24 24 C 23.167969 24 22.5 24.667969 22.5 25.5 C 22.5 25.5625 22.503906 25.625 22.511719 25.6875 C 22.605469 24.945312 23.234375 24.375 24 24.375 C 24.765625 24.375 25.394531 24.945312 25.488281 25.6875 C 25.496094 25.625 25.5 25.5625 25.5 25.5 C 25.5 24.667969 24.832031 24 24 24 Z M 18 25.5 C 18 25.625 18.003906 25.75 18.011719 25.875 L 19.5 25.875 C 19.5 28.367188 21.507812 30.375 24 30.375 L 24 30 C 21.507812 30 19.5 27.992188 19.5 25.5 Z M 16.503906 25.695312 C 16.5 25.753906 16.5 25.816406 16.5 25.875 C 16.5 30.03125 19.84375 33.375 24 33.375 C 28.15625 33.375 31.5 30.03125 31.5 25.875 C 31.5 25.816406 31.5 25.753906 31.496094 25.695312 C 31.394531 29.757812 28.089844 33 24 33 C 19.910156 33 16.605469 29.757812 16.503906 25.695312 Z M 16.503906 25.695312 "/>
<path style=" stroke:none;fill-rule:nonzero;fill:url(#linear0);" d="M 28.5 6 C 27.386719 6 26.417969 6.601562 25.898438 7.5 L 7.5 7.5 C 6.28125 7.5 5.234375 8.222656 4.765625 9.261719 C 3.722656 9.734375 3 10.78125 3 12 L 3 39 C 3 40.660156 4.339844 42 6 42 L 42 42 C 43.660156 42 45 40.660156 45 39 L 45 15 C 45 13.886719 44.398438 12.917969 43.5 12.402344 L 43.5 9 C 43.5 7.339844 42.160156 6 40.5 6 Z M 28.5 6 "/>
</g>
</svg>
