
<svg xmlns="http://www.w3.org/2000/svg" xmlns:xlink="http://www.w3.org/1999/xlink" width="22" height="22" viewBox="0 0 22 22" version="1.1">
<defs>
<linearGradient id="linear0" gradientUnits="userSpaceOnUse" x1="31.999998" y1="59.999996" x2="31.999998" y2="4" gradientTransform="matrix(0.34375,0,0,0.34375,0,0.00000000000003908)">
<stop offset="0" style="stop-color:rgb(0%,0%,0%);stop-opacity:0.2;"/>
<stop offset="1" style="stop-color:rgb(100%,100%,100%);stop-opacity:0;"/>
</linearGradient>
</defs>
<g id="surface1">
<path style=" stroke:none;fill-rule:nonzero;fill:rgb(40.000001%,73.333335%,41.568628%);fill-opacity:1;" d="M 11 1.375 L 1.375 6.875 L 1.375 17.875 L 4.8125 20.625 L 8.25 17.875 L 8.25 14.4375 L 4.8125 12.375 L 4.8125 8.9375 L 11 5.5 L 17.1875 8.9375 L 17.1875 12.375 L 13.75 14.4375 L 13.75 17.875 L 17.1875 20.625 L 20.625 17.875 L 20.625 6.875 Z M 11 1.375 "/>
<path style=" stroke:none;fill-rule:nonzero;fill:rgb(21.960784%,55.686277%,23.529412%);fill-opacity:1;" d="M 11 1.375 L 1.375 6.875 L 1.375 17.875 L 4.8125 20.625 L 8.25 17.875 L 8.25 14.4375 L 4.8125 12.375 L 4.8125 8.9375 L 11 5.5 L 17.1875 8.9375 L 17.1875 12.375 L 13.75 14.4375 L 13.75 17.875 L 17.1875 20.625 L 20.625 17.875 L 20.625 6.875 Z M 11 2.5625 L 19.59375 7.472656 L 19.59375 17.378906 L 17.1875 19.304688 L 14.78125 17.378906 L 14.78125 15.023438 L 18.21875 12.960938 L 18.21875 8.332031 L 11 4.320312 L 3.78125 8.332031 L 3.78125 12.960938 L 7.21875 15.023438 L 7.21875 17.378906 L 4.8125 19.304688 L 2.40625 17.378906 L 2.40625 7.472656 Z M 11 2.5625 "/>
<path style=" stroke:none;fill-rule:nonzero;fill:rgb(0.392157%,0.392157%,0.392157%);fill-opacity:0.4;" d="M 11 4.320312 L 3.78125 8.332031 L 3.78125 8.675781 L 11 4.664062 L 18.21875 8.675781 L 18.21875 8.332031 Z M 4.8125 12.375 L 4.8125 12.71875 L 8.25 14.78125 L 8.25 14.4375 Z M 17.1875 12.375 L 13.75 14.4375 L 13.75 14.78125 L 17.1875 12.71875 Z M 2.40625 17.378906 L 2.40625 17.722656 L 4.8125 19.648438 L 7.21875 17.722656 L 7.21875 17.378906 L 4.8125 19.304688 Z M 14.78125 17.378906 L 14.78125 17.722656 L 17.1875 19.648438 L 19.59375 17.722656 L 19.59375 17.378906 L 17.1875 19.304688 Z M 14.78125 17.378906 "/>
<path style=" stroke:none;fill-rule:nonzero;fill:rgb(99.607843%,99.607843%,99.607843%);fill-opacity:0.4;" d="M 11 2.5625 L 2.40625 7.472656 L 2.40625 7.832031 L 11 2.921875 L 19.59375 7.832031 L 19.59375 7.472656 Z M 11 5.5 L 4.8125 8.9375 L 4.8125 9.296875 L 11 5.859375 L 17.1875 9.296875 L 17.1875 8.9375 Z M 3.78125 12.960938 L 3.78125 13.316406 L 7.21875 15.378906 L 7.21875 15.023438 Z M 18.21875 12.960938 L 14.78125 15.023438 L 14.78125 15.378906 L 18.21875 13.316406 Z M 18.21875 12.960938 "/>
<path style=" stroke:none;fill-rule:nonzero;fill:rgb(100%,100%,100%);fill-opacity:0.4;" d="M 11 1.375 L 1.375 6.875 L 1.375 7.21875 L 11 1.71875 L 20.625 7.21875 L 20.625 6.875 Z M 4.8125 12.375 L 4.8125 12.71875 L 8.25 14.78125 L 8.25 14.4375 Z M 17.1875 12.375 L 13.75 14.4375 L 13.75 14.78125 L 17.1875 12.71875 Z M 2.40625 17.722656 L 2.40625 18.066406 L 4.8125 19.992188 L 7.21875 18.066406 L 7.21875 17.722656 L 4.8125 19.648438 Z M 14.78125 17.722656 L 14.78125 18.066406 L 17.1875 19.992188 L 19.59375 18.066406 L 19.59375 17.722656 L 17.1875 19.648438 Z M 14.78125 17.722656 "/>
<path style=" stroke:none;fill-rule:nonzero;fill:rgb(0%,0%,0%);fill-opacity:0.4;" d="M 11 5.15625 L 4.8125 8.59375 L 4.8125 8.9375 L 11 5.5 L 17.1875 8.9375 L 17.1875 8.59375 Z M 3.78125 12.617188 L 3.78125 12.960938 L 7.21875 15.023438 L 7.21875 14.679688 Z M 18.21875 12.617188 L 14.78125 14.679688 L 14.78125 15.023438 L 18.21875 12.960938 Z M 1.375 17.53125 L 1.375 17.875 L 4.8125 20.625 L 8.25 17.875 L 8.25 17.53125 L 4.8125 20.28125 Z M 13.75 17.53125 L 13.75 17.875 L 17.1875 20.625 L 20.625 17.875 L 20.625 17.53125 L 17.1875 20.28125 Z M 13.75 17.53125 "/>
<path style=" stroke:none;fill-rule:nonzero;fill:rgb(0%,0%,0%);fill-opacity:0.2;" d="M 11 5.5 L 4.8125 8.9375 L 4.8125 9.453125 L 11 6.015625 L 17.1875 9.453125 L 17.1875 8.9375 Z M 1.375 17.875 L 1.375 18.390625 L 4.8125 21.140625 L 8.25 18.390625 L 8.25 17.875 L 4.8125 20.625 Z M 13.75 17.875 L 13.75 18.390625 L 17.1875 21.140625 L 20.625 18.390625 L 20.625 17.875 L 17.1875 20.625 Z M 13.75 17.875 "/>
<path style=" stroke:none;fill-rule:nonzero;fill:url(#linear0);" d="M 11 1.375 L 1.375 6.875 L 1.375 17.875 L 4.8125 20.625 L 8.25 17.875 L 8.25 14.4375 L 4.8125 12.375 L 4.8125 8.9375 L 11 5.5 L 17.1875 8.9375 L 17.1875 12.375 L 13.75 14.4375 L 13.75 17.875 L 17.1875 20.625 L 20.625 17.875 L 20.625 6.875 Z M 11 1.375 "/>
</g>
</svg>
