
<svg xmlns="http://www.w3.org/2000/svg" xmlns:xlink="http://www.w3.org/1999/xlink" width="16" height="16" viewBox="0 0 16 16" version="1.1">
<defs>
<linearGradient id="linear0" gradientUnits="userSpaceOnUse" x1="10.054166" y1="-199.125" x2="10.054166" y2="-213.941666" gradientTransform="matrix(0.944882,0,0,0.944882,-0.000316144,203.149617)">
<stop offset="0" style="stop-color:rgb(0%,0%,0%);stop-opacity:0.2;"/>
<stop offset="1" style="stop-color:rgb(100%,100%,100%);stop-opacity:0;"/>
</linearGradient>
</defs>
<g id="surface1">
<path style=" stroke:none;fill-rule:nonzero;fill:rgb(47.058824%,56.470591%,61.176473%);fill-opacity:1;" d="M 2 1 L 14 1 C 14.550781 1 15 1.449219 15 2 L 15 14 C 15 14.550781 14.550781 15 14 15 L 2 15 C 1.449219 15 1 14.550781 1 14 L 1 2 C 1 1.449219 1.449219 1 2 1 Z M 2 1 "/>
<path style=" stroke:none;fill-rule:nonzero;fill:rgb(0%,0%,0%);fill-opacity:0.4;" d="M 1 13.75 L 1 14 C 1 14.554688 1.445312 15 2 15 L 14 15 C 14.554688 15 15 14.554688 15 14 L 15 13.75 C 15 14.304688 14.554688 14.75 14 14.75 L 2 14.75 C 1.445312 14.75 1 14.304688 1 13.75 Z M 1 13.75 "/>
<path style=" stroke:none;fill-rule:nonzero;fill:rgb(0%,0%,0%);fill-opacity:0.2;" d="M 1 14 L 1 14.375 C 1 14.929688 1.445312 15.375 2 15.375 L 14 15.375 C 14.554688 15.375 15 14.929688 15 14.375 L 15 14 C 15 14.554688 14.554688 15 14 15 L 2 15 C 1.445312 15 1 14.554688 1 14 Z M 1 14 "/>
<path style=" stroke:none;fill-rule:nonzero;fill:rgb(100%,100%,100%);fill-opacity:0.4;" d="M 2 1 C 1.445312 1 1 1.445312 1 2 L 1 2.246094 C 1 1.691406 1.445312 1.246094 2 1.246094 L 14 1.246094 C 14.554688 1.246094 15 1.691406 15 2.246094 L 15 2 C 15 1.445312 14.554688 1 14 1 Z M 2 1 "/>
<path style=" stroke:none;fill-rule:nonzero;fill:rgb(87.843138%,87.843138%,87.843138%);fill-opacity:1;" d="M 11.160156 2.941406 C 11.113281 2.976562 11.074219 3.019531 11.046875 3.074219 L 9.527344 6.421875 L 7.792969 7.421875 L 6.710938 8.046875 L 6.523438 7.722656 L 6.847656 7.535156 C 6.96875 7.464844 7.011719 7.3125 6.941406 7.191406 C 6.871094 7.074219 6.71875 7.03125 6.597656 7.101562 L 5.515625 7.726562 C 5.398438 7.796875 5.355469 7.949219 5.425781 8.066406 C 5.496094 8.1875 5.648438 8.226562 5.765625 8.160156 L 6.089844 7.972656 L 6.277344 8.296875 L 5.195312 8.921875 L 3.464844 9.921875 L 2.289062 9.84375 C 2.167969 9.835938 2.046875 9.898438 1.984375 10.003906 C 1.917969 10.105469 1.917969 10.238281 1.976562 10.347656 L 2.851562 11.863281 C 2.914062 11.96875 3.03125 12.03125 3.152344 12.027344 C 3.277344 12.023438 3.386719 11.953125 3.441406 11.84375 L 3.964844 10.785156 L 4.195312 10.652344 C 4.195312 10.992188 4.28125 11.335938 4.464844 11.652344 C 4.996094 12.574219 6.144531 12.910156 7.085938 12.441406 L 7.152344 12.554688 C 7.21875 12.675781 7.371094 12.714844 7.492188 12.648438 C 7.613281 12.578125 7.652344 12.425781 7.582031 12.304688 L 7.519531 12.199219 L 8.277344 11.761719 L 8.527344 12.191406 C 8.597656 12.3125 8.75 12.355469 8.871094 12.285156 C 8.992188 12.214844 9.03125 12.0625 8.960938 11.941406 L 8.710938 11.511719 L 9.46875 11.074219 L 9.53125 11.179688 C 9.601562 11.300781 9.753906 11.339844 9.875 11.273438 C 9.992188 11.203125 10.035156 11.050781 9.964844 10.929688 L 9.898438 10.816406 C 10.777344 10.238281 11.058594 9.074219 10.527344 8.152344 C 10.34375 7.835938 10.089844 7.589844 9.796875 7.421875 L 10.027344 7.285156 L 13.6875 7.640625 C 13.804688 7.652344 13.921875 7.597656 13.988281 7.496094 C 14.050781 7.394531 14.054688 7.265625 13.996094 7.160156 L 11.621094 3.046875 C 11.574219 2.96875 11.5 2.914062 11.414062 2.894531 C 11.328125 2.875 11.234375 2.890625 11.160156 2.941406 Z M 6.019531 9.597656 L 6.777344 9.160156 L 6.839844 9.269531 L 7.527344 10.460938 L 7.777344 10.894531 L 7.019531 11.332031 Z M 7.210938 8.910156 L 7.96875 8.472656 L 8.96875 10.207031 L 8.210938 10.644531 L 7.960938 10.210938 L 7.273438 9.019531 Z M 5.59375 9.855469 L 6.582031 11.574219 C 6.125 11.769531 5.585938 11.597656 5.332031 11.152344 C 5.074219 10.710938 5.195312 10.15625 5.59375 9.855469 Z M 8.40625 8.230469 C 8.867188 8.039062 9.40625 8.210938 9.660156 8.652344 C 9.917969 9.097656 9.796875 9.648438 9.398438 9.949219 Z M 8.40625 8.230469 "/>
<path style=" stroke:none;fill-rule:nonzero;fill:rgb(100%,100%,100%);fill-opacity:0.6;" d="M 11.328125 2.886719 C 11.265625 2.890625 11.210938 2.910156 11.160156 2.941406 C 11.113281 2.976562 11.074219 3.019531 11.046875 3.074219 L 9.527344 6.421875 L 7.792969 7.421875 L 6.710938 8.046875 L 6.640625 7.921875 L 6.523438 7.988281 L 6.710938 8.3125 L 7.792969 7.6875 L 9.527344 6.6875 L 11.046875 3.34375 C 11.074219 3.289062 11.113281 3.242188 11.160156 3.210938 C 11.234375 3.160156 11.328125 3.144531 11.414062 3.164062 C 11.5 3.183594 11.574219 3.238281 11.621094 3.316406 L 13.996094 7.429688 C 14 7.4375 14.003906 7.445312 14.007812 7.457031 C 14.050781 7.359375 14.046875 7.25 13.996094 7.160156 L 11.621094 3.046875 C 11.558594 2.941406 11.445312 2.882812 11.328125 2.886719 Z M 6.71875 7.066406 C 6.675781 7.070312 6.636719 7.078125 6.601562 7.101562 L 5.515625 7.726562 C 5.398438 7.792969 5.355469 7.949219 5.425781 8.066406 C 5.425781 8.070312 5.429688 8.074219 5.429688 8.078125 C 5.453125 8.042969 5.480469 8.015625 5.515625 7.992188 L 6.601562 7.367188 C 6.714844 7.300781 6.863281 7.339844 6.933594 7.453125 C 6.984375 7.375 6.988281 7.277344 6.941406 7.191406 C 6.894531 7.109375 6.804688 7.066406 6.71875 7.066406 Z M 10.011719 7.5625 L 9.796875 7.6875 C 10.089844 7.859375 10.34375 8.105469 10.527344 8.421875 C 10.683594 8.695312 10.769531 8.992188 10.789062 9.285156 C 10.816406 8.90625 10.734375 8.511719 10.527344 8.152344 C 10.390625 7.917969 10.214844 7.71875 10.011719 7.5625 Z M 6.164062 8.363281 L 5.195312 8.921875 L 3.464844 9.921875 L 2.289062 9.84375 C 2.175781 9.839844 2.0625 9.894531 1.996094 9.988281 C 1.929688 10.082031 1.917969 10.203125 1.964844 10.308594 C 2.019531 10.183594 2.148438 10.105469 2.289062 10.113281 L 3.464844 10.1875 L 5.195312 9.1875 L 6.28125 8.5625 Z M 8.535156 8.457031 C 8.492188 8.46875 8.449219 8.480469 8.40625 8.5 L 9.398438 10.21875 C 9.691406 9.996094 9.832031 9.636719 9.785156 9.289062 C 9.75 9.542969 9.617188 9.785156 9.398438 9.949219 Z M 7.328125 9.113281 L 7.210938 9.179688 L 7.273438 9.289062 L 7.960938 10.480469 L 8.210938 10.914062 L 8.96875 10.476562 L 8.851562 10.273438 L 8.210938 10.644531 L 7.960938 10.210938 Z M 6.136719 9.800781 L 6.023438 9.867188 L 7.023438 11.601562 L 7.78125 11.164062 L 7.664062 10.960938 L 7.023438 11.332031 Z M 5.207031 10.789062 C 5.175781 11 5.214844 11.222656 5.332031 11.421875 C 5.585938 11.863281 6.125 12.035156 6.585938 11.84375 L 6.453125 11.617188 C 6.027344 11.734375 5.5625 11.554688 5.332031 11.152344 C 5.261719 11.035156 5.222656 10.914062 5.207031 10.789062 Z M 9.996094 11.015625 C 9.964844 11.039062 9.933594 11.0625 9.898438 11.085938 L 9.960938 11.191406 C 9.992188 11.140625 10.003906 11.078125 9.996094 11.015625 Z M 8.828125 11.710938 L 8.710938 11.777344 L 8.957031 12.203125 C 9.003906 12.125 9.011719 12.027344 8.960938 11.945312 Z M 7.617188 12.410156 L 7.523438 12.464844 L 7.578125 12.5625 C 7.609375 12.519531 7.621094 12.464844 7.617188 12.410156 Z M 7.617188 12.410156 "/>
<path style=" stroke:none;fill-rule:nonzero;fill:rgb(0%,0%,0%);fill-opacity:0.4;" d="M 10.027344 7.304688 L 9.796875 7.4375 C 9.867188 7.480469 9.933594 7.523438 9.996094 7.570312 L 10.027344 7.554688 L 13.6875 7.910156 C 13.796875 7.921875 13.910156 7.871094 13.976562 7.78125 C 14.042969 7.6875 14.054688 7.570312 14.011719 7.464844 C 13.957031 7.59375 13.824219 7.671875 13.6875 7.660156 Z M 6.941406 7.460938 C 6.917969 7.496094 6.890625 7.527344 6.851562 7.550781 L 6.523438 7.738281 L 6.632812 7.925781 L 6.851562 7.800781 C 6.96875 7.734375 7.011719 7.582031 6.941406 7.460938 Z M 6.09375 7.988281 L 5.765625 8.175781 C 5.648438 8.246094 5.496094 8.207031 5.425781 8.085938 C 5.382812 8.160156 5.378906 8.253906 5.425781 8.335938 C 5.496094 8.457031 5.648438 8.496094 5.765625 8.425781 L 6.09375 8.238281 L 6.171875 8.375 L 6.28125 8.3125 Z M 8.761719 8.171875 C 8.640625 8.175781 8.523438 8.203125 8.40625 8.25 L 8.527344 8.457031 C 8.957031 8.335938 9.425781 8.515625 9.660156 8.921875 C 9.730469 9.039062 9.769531 9.167969 9.785156 9.296875 C 9.8125 9.089844 9.773438 8.867188 9.660156 8.671875 C 9.46875 8.339844 9.117188 8.160156 8.761719 8.171875 Z M 7.96875 8.492188 L 7.210938 8.929688 L 7.273438 9.039062 L 7.320312 9.117188 L 7.96875 8.742188 L 8.859375 10.289062 L 8.96875 10.226562 Z M 6.78125 9.179688 L 6.023438 9.617188 L 6.128906 9.804688 L 6.78125 9.429688 L 6.84375 9.539062 L 7.53125 10.730469 L 7.671875 10.976562 L 7.78125 10.914062 L 7.53125 10.480469 L 6.84375 9.289062 Z M 10.792969 9.296875 C 10.753906 9.902344 10.4375 10.476562 9.898438 10.835938 L 9.964844 10.949219 C 9.976562 10.972656 9.988281 10.996094 9.992188 11.019531 C 10.546875 10.605469 10.832031 9.953125 10.792969 9.296875 Z M 5.59375 9.875 C 5.300781 10.09375 5.160156 10.449219 5.203125 10.796875 C 5.238281 10.535156 5.371094 10.292969 5.59375 10.125 L 6.464844 11.632812 C 6.503906 11.621094 6.542969 11.609375 6.585938 11.59375 Z M 1.960938 10.316406 C 1.917969 10.414062 1.925781 10.523438 1.976562 10.613281 L 2.851562 12.128906 C 2.914062 12.238281 3.03125 12.300781 3.152344 12.296875 C 3.277344 12.292969 3.386719 12.222656 3.441406 12.109375 L 3.964844 11.054688 L 4.195312 10.921875 C 4.195312 11.261719 4.28125 11.605469 4.464844 11.921875 C 4.996094 12.84375 6.144531 13.179688 7.085938 12.710938 L 7.152344 12.824219 C 7.21875 12.945312 7.371094 12.984375 7.492188 12.914062 C 7.613281 12.847656 7.652344 12.695312 7.585938 12.574219 C 7.5625 12.609375 7.53125 12.644531 7.492188 12.664062 C 7.371094 12.734375 7.21875 12.695312 7.152344 12.574219 L 7.085938 12.460938 C 6.144531 12.929688 4.996094 12.59375 4.464844 11.671875 C 4.28125 11.355469 4.195312 11.011719 4.195312 10.671875 L 3.964844 10.804688 L 3.441406 11.859375 C 3.386719 11.972656 3.277344 12.042969 3.152344 12.046875 C 3.03125 12.050781 2.914062 11.988281 2.851562 11.878906 L 1.976562 10.363281 C 1.972656 10.347656 1.964844 10.332031 1.960938 10.316406 Z M 9.46875 11.089844 L 8.710938 11.527344 L 8.820312 11.714844 L 9.46875 11.339844 L 9.53125 11.449219 C 9.601562 11.570312 9.753906 11.609375 9.875 11.539062 C 9.992188 11.472656 10.035156 11.320312 9.964844 11.199219 C 9.945312 11.234375 9.914062 11.269531 9.875 11.289062 C 9.753906 11.359375 9.601562 11.320312 9.53125 11.199219 Z M 8.28125 11.777344 L 7.523438 12.214844 L 7.585938 12.324219 C 7.601562 12.351562 7.609375 12.382812 7.613281 12.414062 L 8.28125 12.027344 L 8.53125 12.460938 C 8.597656 12.582031 8.75 12.621094 8.871094 12.554688 C 8.992188 12.484375 9.03125 12.332031 8.960938 12.210938 C 8.941406 12.246094 8.910156 12.28125 8.871094 12.304688 C 8.75 12.371094 8.597656 12.332031 8.53125 12.210938 Z M 8.28125 11.777344 "/>
<path style=" stroke:none;fill-rule:nonzero;fill:url(#linear0);" d="M 2 1 L 14 1 C 14.550781 1 15 1.449219 15 2 L 15 14 C 15 14.550781 14.550781 15 14 15 L 2 15 C 1.449219 15 1 14.550781 1 14 L 1 2 C 1 1.449219 1.449219 1 2 1 Z M 2 1 "/>
</g>
</svg>
