
<svg xmlns="http://www.w3.org/2000/svg" xmlns:xlink="http://www.w3.org/1999/xlink" width="16" height="16" viewBox="0 0 16 16" version="1.1">
<defs>
<linearGradient id="linear0" gradientUnits="userSpaceOnUse" x1="8.466666" y1="-199.125" x2="8.466666" y2="-213.941666" gradientTransform="matrix(0.944882,0,0,0.944882,0,203.149617)">
<stop offset="0" style="stop-color:rgb(0%,0%,0%);stop-opacity:0.2;"/>
<stop offset="1" style="stop-color:rgb(100%,100%,100%);stop-opacity:0;"/>
</linearGradient>
</defs>
<g id="surface1">
<path style=" stroke:none;fill-rule:nonzero;fill:rgb(95.686275%,26.274511%,21.176471%);fill-opacity:1;" d="M 8 1 C 11.867188 1 15 4.132812 15 8 C 15 11.867188 11.867188 15 8 15 C 4.132812 15 1 11.867188 1 8 C 1 4.132812 4.132812 1 8 1 Z M 8 1 "/>
<path style=" stroke:none;fill-rule:nonzero;fill:rgb(100%,100%,100%);fill-opacity:0.4;" d="M 8 1 C 4.132812 1 1 4.132812 1 8 C 1 8.042969 1 8.082031 1 8.125 C 1.070312 4.316406 4.175781 1.25 8 1.25 C 11.824219 1.25 14.929688 4.316406 15 8.125 C 15 8.082031 15 8.042969 15 8 C 15 4.132812 11.867188 1 8 1 Z M 8 1 "/>
<path style=" stroke:none;fill-rule:nonzero;fill:rgb(0%,0%,0%);fill-opacity:0.4;" d="M 1.003906 7.875 C 1.003906 7.914062 1 7.957031 1 7.996094 C 1 11.863281 4.132812 14.996094 8 14.996094 C 11.867188 14.996094 15 11.863281 15 7.996094 C 15 7.957031 14.996094 7.914062 14.996094 7.875 C 14.929688 11.679688 11.824219 14.75 8 14.75 C 4.175781 14.75 1.070312 11.679688 1.003906 7.875 Z M 1.003906 7.875 "/>
<path style=" stroke:none;fill-rule:nonzero;fill:rgb(0%,0%,0%);fill-opacity:0.2;" d="M 1.003906 8.1875 C 1 8.25 1 8.3125 1 8.375 C 1 12.242188 4.132812 15.375 8 15.375 C 11.867188 15.375 15 12.242188 15 8.375 C 15 8.3125 15 8.25 14.996094 8.1875 C 14.898438 11.964844 11.804688 15 8 15 C 4.195312 15 1.101562 11.964844 1.003906 8.1875 Z M 1.003906 8.1875 "/>
<path style=" stroke:none;fill-rule:nonzero;fill:rgb(93.333334%,93.333334%,93.333334%);fill-opacity:1;" d="M 5.488281 11.152344 C 5.285156 11.125 4.921875 11.003906 4.679688 10.886719 C 3.105469 10.121094 2.460938 8.1875 3.234375 6.5625 C 4.121094 4.703125 6.542969 4.230469 7.996094 5.628906 C 8.417969 6.035156 8.605469 6.378906 9.238281 7.910156 C 9.898438 9.507812 10.023438 9.761719 10.238281 9.972656 C 10.875 10.625 12.207031 10.0625 12.234375 9.273438 C 12.234375 8.777344 12.0625 8.617188 11.183594 8.300781 C 9.851562 7.8125 9.421875 7.371094 9.417969 6.484375 C 9.417969 6.011719 9.535156 5.695312 9.835938 5.371094 C 10.265625 4.902344 11.007812 4.75 11.664062 4.980469 C 11.945312 5.082031 12.53125 5.609375 12.53125 5.761719 C 12.53125 5.832031 12.191406 6.058594 12.003906 6.109375 C 11.90625 6.136719 11.820312 6.101562 11.703125 5.992188 C 11.472656 5.761719 11.3125 5.691406 11.035156 5.691406 C 10.554688 5.691406 10.257812 5.988281 10.257812 6.460938 C 10.257812 6.933594 10.445312 7.09375 11.394531 7.417969 C 12.699219 7.867188 13.085938 8.273438 13.09375 9.207031 C 13.101562 10.015625 12.742188 10.597656 12.027344 10.945312 C 11.183594 11.289062 10.125 11.125 9.542969 10.492188 C 9.257812 10.164062 8.96875 9.550781 8.042969 7.316406 C 7.660156 6.390625 7.167969 5.933594 6.34375 5.757812 C 5.328125 5.636719 4.429688 6.121094 3.996094 6.996094 C 3.761719 7.660156 3.703125 8.34375 3.976562 8.957031 C 4.179688 9.410156 4.578125 9.832031 5.019531 10.058594 C 5.640625 10.304688 6.296875 10.34375 6.851562 10.078125 C 7.183594 9.914062 7.628906 9.507812 7.8125 9.207031 L 7.90625 9.050781 L 8.09375 9.484375 C 8.199219 9.722656 8.28125 9.949219 8.28125 9.988281 C 8.28125 10.109375 7.859375 10.5 7.472656 10.746094 C 6.886719 11.113281 6.210938 11.25 5.488281 11.152344 "/>
<path style=" stroke:none;fill-rule:nonzero;fill:rgb(100%,100%,100%);fill-opacity:0.6;" d="M 6 4.816406 C 4.886719 4.8125 3.777344 5.429688 3.234375 6.5625 C 2.992188 7.070312 2.890625 7.609375 2.910156 8.132812 C 2.925781 7.6875 3.03125 7.238281 3.234375 6.8125 C 4.121094 4.953125 6.542969 4.476562 7.996094 5.878906 C 8.417969 6.285156 8.605469 6.628906 9.238281 8.160156 C 9.898438 9.757812 10.023438 10.011719 10.234375 10.222656 C 10.875 10.875 12.207031 10.3125 12.234375 9.519531 C 12.234375 9.460938 12.230469 9.410156 12.222656 9.359375 C 12.109375 10.101562 10.851562 10.601562 10.234375 9.976562 C 10.023438 9.761719 9.898438 9.507812 9.238281 7.910156 C 8.605469 6.378906 8.417969 6.035156 7.996094 5.628906 C 7.429688 5.082031 6.710938 4.820312 6 4.816406 Z M 11.039062 4.875 C 10.574219 4.875 10.132812 5.050781 9.835938 5.371094 C 9.535156 5.695312 9.417969 6.011719 9.417969 6.484375 C 9.417969 6.527344 9.421875 6.566406 9.421875 6.609375 C 9.441406 6.203125 9.5625 5.917969 9.835938 5.621094 C 10.265625 5.152344 11.007812 5 11.664062 5.230469 C 11.882812 5.308594 12.28125 5.640625 12.453125 5.859375 C 12.5 5.816406 12.53125 5.78125 12.53125 5.761719 C 12.53125 5.609375 11.945312 5.082031 11.664062 4.980469 C 11.460938 4.910156 11.246094 4.875 11.039062 4.875 Z M 10.261719 6.589844 C 10.257812 6.628906 10.257812 6.667969 10.257812 6.710938 C 10.257812 7.183594 10.445312 7.34375 11.394531 7.667969 C 12.648438 8.097656 13.054688 8.492188 13.089844 9.351562 C 13.09375 9.304688 13.09375 9.257812 13.09375 9.207031 C 13.085938 8.273438 12.699219 7.867188 11.394531 7.417969 C 10.539062 7.125 10.300781 6.964844 10.261719 6.589844 Z M 3.796875 8.195312 C 3.78125 8.542969 3.832031 8.882812 3.976562 9.207031 C 4.179688 9.660156 4.578125 10.082031 5.019531 10.308594 C 5.640625 10.554688 6.296875 10.59375 6.851562 10.328125 C 7.183594 10.164062 7.628906 9.757812 7.8125 9.457031 L 7.90625 9.296875 L 8.09375 9.734375 C 8.152344 9.867188 8.203125 9.992188 8.238281 10.085938 C 8.265625 10.046875 8.28125 10.011719 8.28125 9.988281 C 8.28125 9.949219 8.199219 9.722656 8.09375 9.484375 L 7.90625 9.050781 L 7.8125 9.207031 C 7.628906 9.507812 7.183594 9.914062 6.851562 10.078125 C 6.296875 10.34375 5.640625 10.304688 5.019531 10.058594 C 4.578125 9.832031 4.179688 9.410156 3.976562 8.957031 C 3.867188 8.710938 3.8125 8.457031 3.796875 8.195312 Z M 3.796875 8.195312 "/>
<path style=" stroke:none;fill-rule:nonzero;fill:rgb(0%,0%,0%);fill-opacity:0.4;" d="M 11.035156 5.695312 C 10.554688 5.695312 10.257812 5.988281 10.257812 6.460938 C 10.257812 6.511719 10.257812 6.558594 10.265625 6.601562 C 10.3125 6.207031 10.601562 5.964844 11.035156 5.964844 C 11.3125 5.964844 11.472656 6.035156 11.703125 6.261719 C 11.820312 6.375 11.90625 6.40625 12.003906 6.382812 C 12.191406 6.328125 12.53125 6.105469 12.53125 6.03125 C 12.53125 5.996094 12.496094 5.9375 12.441406 5.867188 C 12.328125 5.960938 12.132812 6.074219 12.003906 6.109375 C 11.90625 6.136719 11.820312 6.101562 11.703125 5.992188 C 11.472656 5.765625 11.3125 5.695312 11.035156 5.695312 Z M 6.0625 5.738281 C 5.164062 5.730469 4.390625 6.203125 3.996094 6.996094 C 3.851562 7.398438 3.777344 7.808594 3.796875 8.207031 C 3.816406 7.894531 3.886719 7.578125 3.996094 7.265625 C 4.429688 6.390625 5.328125 5.90625 6.34375 6.027344 C 7.167969 6.207031 7.660156 6.660156 8.042969 7.585938 C 8.96875 9.824219 9.257812 10.4375 9.542969 10.761719 C 10.125 11.398438 11.183594 11.558594 12.027344 11.214844 C 12.742188 10.871094 13.101562 10.289062 13.09375 9.480469 C 13.09375 9.441406 13.089844 9.402344 13.089844 9.363281 C 13.050781 10.09375 12.695312 10.621094 12.027344 10.945312 C 11.183594 11.289062 10.125 11.125 9.542969 10.492188 C 9.257812 10.164062 8.96875 9.554688 8.042969 7.316406 C 7.660156 6.390625 7.167969 5.9375 6.34375 5.757812 C 6.25 5.746094 6.15625 5.738281 6.0625 5.738281 Z M 9.421875 6.621094 C 9.421875 6.664062 9.417969 6.710938 9.417969 6.757812 C 9.421875 7.644531 9.851562 8.085938 11.1875 8.574219 C 11.949219 8.847656 12.175781 9.003906 12.222656 9.367188 C 12.226562 9.335938 12.230469 9.304688 12.234375 9.273438 C 12.234375 8.777344 12.0625 8.617188 11.1875 8.300781 C 9.921875 7.839844 9.46875 7.417969 9.421875 6.621094 Z M 2.910156 8.144531 C 2.859375 9.390625 3.515625 10.589844 4.679688 11.15625 C 4.921875 11.277344 5.285156 11.394531 5.488281 11.425781 L 5.488281 11.421875 C 6.210938 11.523438 6.886719 11.382812 7.472656 11.015625 C 7.859375 10.773438 8.28125 10.378906 8.28125 10.261719 C 8.28125 10.242188 8.261719 10.179688 8.230469 10.09375 C 8.109375 10.265625 7.78125 10.550781 7.472656 10.746094 C 6.886719 11.113281 6.210938 11.25 5.488281 11.152344 C 5.285156 11.125 4.921875 11.003906 4.679688 10.886719 C 3.601562 10.363281 2.957031 9.289062 2.910156 8.144531 Z M 2.910156 8.144531 "/>
<path style=" stroke:none;fill-rule:nonzero;fill:url(#linear0);" d="M 8 1 C 11.867188 1 15 4.132812 15 8 C 15 11.867188 11.867188 15 8 15 C 4.132812 15 1 11.867188 1 8 C 1 4.132812 4.132812 1 8 1 Z M 8 1 "/>
</g>
</svg>
