
<svg xmlns="http://www.w3.org/2000/svg" xmlns:xlink="http://www.w3.org/1999/xlink" width="64" height="64" viewBox="0 0 64 64" version="1.1">
<defs>
<linearGradient id="linear0" gradientUnits="userSpaceOnUse" x1="8.466666" y1="-199.125" x2="8.466666" y2="-213.941666" gradientTransform="matrix(3.779528,0,0,3.779528,0.000000163015,812.598468)">
<stop offset="0" style="stop-color:rgb(0%,0%,0%);stop-opacity:0.2;"/>
<stop offset="1" style="stop-color:rgb(100%,100%,100%);stop-opacity:0;"/>
</linearGradient>
</defs>
<g id="surface1">
<path style=" stroke:none;fill-rule:nonzero;fill:rgb(100%,65.490198%,14.901961%);fill-opacity:1;" d="M 56 60 C 58.214844 60 60 58.214844 60 56 L 60 32 L 32 32 L 32 60 Z M 56 60 "/>
<path style=" stroke:none;fill-rule:nonzero;fill:rgb(14.901961%,65.098041%,60.392159%);fill-opacity:1;" d="M 8 60 C 5.785156 60 4 58.214844 4 56 L 4 32 L 32 32 L 32 60 Z M 8 60 "/>
<path style=" stroke:none;fill-rule:nonzero;fill:rgb(25.882354%,64.705884%,96.078432%);fill-opacity:1;" d="M 56 4 C 58.214844 4 60 5.785156 60 8 L 60 32 L 32 32 L 32 4 Z M 56 4 "/>
<path style=" stroke:none;fill-rule:nonzero;fill:rgb(61.176473%,80.000001%,39.607844%);fill-opacity:1;" d="M 8 4 C 5.785156 4 4 5.785156 4 8 L 4 32 L 32 32 L 32 4 Z M 8 4 "/>
<path style=" stroke:none;fill-rule:nonzero;fill:rgb(38.039216%,38.039216%,38.039216%);fill-opacity:1;" d="M 14 12 L 50 12 C 51.105469 12 52 12.894531 52 14 L 52 50 C 52 51.105469 51.105469 52 50 52 L 14 52 C 12.894531 52 12 51.105469 12 50 L 12 14 C 12 12.894531 12.894531 12 14 12 Z M 14 12 "/>
<path style=" stroke:none;fill-rule:nonzero;fill:rgb(100%,100%,100%);fill-opacity:0.4;" d="M 14 12 C 12.890625 12 12 12.890625 12 14 L 12 15 C 12 13.890625 12.890625 13 14 13 L 50 13 C 51.109375 13 52 13.890625 52 15 L 52 14 C 52 12.890625 51.109375 12 50 12 Z M 14 12 "/>
<path style=" stroke:none;fill-rule:nonzero;fill:rgb(0.784314%,0.784314%,0.784314%);fill-opacity:0.4;" d="M 14 53 C 12.890625 53 12 52.109375 12 51 L 12 50 C 12 51.109375 12.890625 52 14 52 L 50 52 C 51.109375 52 52 51.109375 52 50 L 52 51 C 52 52.109375 51.109375 53 50 53 Z M 14 53 "/>
<path style=" stroke:none;fill-rule:nonzero;fill:rgb(100%,100%,100%);fill-opacity:0.4;" d="M 8 4 C 5.785156 4 4 5.785156 4 8 L 4 9 C 4 6.785156 5.785156 5 8 5 L 56 5 C 58.214844 5 60 6.785156 60 9 L 60 8 C 60 5.785156 58.214844 4 56 4 Z M 8 4 "/>
<path style=" stroke:none;fill-rule:nonzero;fill:rgb(0%,0%,0%);fill-opacity:0.4;" d="M 8 60 C 5.785156 60 4 58.214844 4 56 L 4 55 C 4 57.214844 5.785156 59 8 59 L 56 59 C 58.214844 59 60 57.214844 60 55 L 60 56 C 60 58.214844 58.214844 60 56 60 Z M 8 60 "/>
<path style=" stroke:none;fill-rule:nonzero;fill:rgb(0%,0%,0%);fill-opacity:0.2;" d="M 4 56 L 4 57.5 C 4 59.714844 5.785156 61.5 8 61.5 L 56 61.5 C 58.214844 61.5 60 59.714844 60 57.5 L 60 56 C 60 58.214844 58.214844 60 56 60 L 8 60 C 5.785156 60 4 58.214844 4 56 Z M 4 56 "/>
<path style=" stroke:none;fill-rule:nonzero;fill:rgb(93.333334%,93.333334%,93.333334%);fill-opacity:1;" d="M 19 22 C 18.445312 22 18 22.445312 18 23 L 18 41 C 18 41.554688 18.445312 42 19 42 L 21 42 C 21.554688 42 22 41.554688 22 41 L 22 33.851562 C 22.402344 33.949219 22.820312 34 23.25 34 L 24.75 34 C 27.660156 34 30 31.660156 30 28.75 L 30 27.25 C 30 24.339844 27.660156 22 24.75 22 Z M 22 26 L 24 26 C 25.109375 26 26 26.890625 26 28 C 26 29.109375 25.109375 30 24 30 L 22 30 Z M 22 26 "/>
<path style=" stroke:none;fill-rule:nonzero;fill:rgb(100%,100%,100%);fill-opacity:0.6;" d="M 19 22 C 18.445312 22 18 22.445312 18 23 L 18 24 C 18 23.445312 18.445312 23 19 23 L 24.75 23 C 27.660156 23 30 25.339844 30 28.25 L 30 27.25 C 30 24.339844 27.660156 22 24.75 22 Z M 25.9375 28.5 C 25.714844 29.363281 24.933594 30 24 30 L 22 30 L 22 31 L 24 31 C 25.109375 31 26 30.109375 26 29 C 26 28.828125 25.976562 28.660156 25.9375 28.5 Z M 25.9375 28.5 "/>
<path style=" stroke:none;fill-rule:nonzero;fill:rgb(0%,0%,0%);fill-opacity:0.4;" d="M 22 26 L 22 27.007812 L 24 27.007812 C 24.933594 27.007812 25.714844 27.640625 25.9375 28.503906 C 25.980469 28.34375 26 28.175781 26 28 C 26 26.890625 25.109375 26 24 26 Z M 30 28.75 C 30 31.660156 27.660156 34 24.75 34 L 23.25 34 C 22.820312 34 22.402344 33.949219 22 33.851562 L 22 34.859375 C 22.402344 34.957031 22.820312 35.007812 23.25 35.007812 L 24.75 35.007812 C 27.660156 35.007812 30 32.667969 30 29.757812 Z M 18 41 L 18 42.007812 C 18 42.5625 18.445312 43.007812 19 43.007812 L 21 43.007812 C 21.554688 43.007812 22 42.5625 22 42.007812 L 22 41 C 22 41.554688 21.554688 42 21 42 L 19 42 C 18.445312 42 18 41.554688 18 41 Z M 18 41 "/>
<path style=" stroke:none;fill-rule:nonzero;fill:rgb(93.333334%,93.333334%,93.333334%);fill-opacity:1;" d="M 35 22 C 34.984375 22 34.964844 22 34.949219 22.003906 C 34.933594 22.003906 34.914062 22.003906 34.898438 22.003906 C 34.882812 22.007812 34.863281 22.007812 34.847656 22.011719 C 34.832031 22.015625 34.816406 22.015625 34.796875 22.019531 C 34.78125 22.023438 34.765625 22.027344 34.75 22.03125 C 34.734375 22.035156 34.71875 22.039062 34.699219 22.046875 C 34.683594 22.050781 34.671875 22.058594 34.65625 22.0625 C 34.640625 22.070312 34.625 22.074219 34.609375 22.082031 C 34.578125 22.09375 34.550781 22.109375 34.523438 22.125 C 34.507812 22.132812 34.496094 22.140625 34.480469 22.148438 C 34.46875 22.15625 34.453125 22.164062 34.4375 22.171875 C 34.414062 22.191406 34.386719 22.210938 34.363281 22.230469 C 34.339844 22.25 34.316406 22.273438 34.292969 22.296875 C 34.269531 22.320312 34.25 22.34375 34.226562 22.367188 C 34.207031 22.394531 34.1875 22.417969 34.167969 22.445312 C 34.160156 22.457031 34.152344 22.46875 34.144531 22.484375 C 34.136719 22.5 34.128906 22.515625 34.121094 22.527344 C 34.105469 22.554688 34.089844 22.582031 34.078125 22.613281 C 34.070312 22.628906 34.066406 22.644531 34.058594 22.660156 C 34.054688 22.675781 34.050781 22.691406 34.046875 22.707031 C 34.039062 22.71875 34.035156 22.738281 34.03125 22.753906 C 34.027344 22.769531 34.023438 22.789062 34.019531 22.804688 C 34.015625 22.816406 34.015625 22.835938 34.011719 22.851562 C 34.007812 22.867188 34.007812 22.886719 34.003906 22.902344 C 34.003906 22.917969 34.003906 22.9375 34 22.953125 C 34 22.972656 34 22.988281 34 23.003906 L 34 41.003906 C 34 41.558594 34.445312 42.003906 35 42.003906 L 45 42.003906 C 45.554688 42.003906 46 41.558594 46 41.003906 L 46 39.003906 C 46 38.449219 45.554688 38.003906 45 38.003906 L 38 38.003906 L 38 34.003906 L 43 34.003906 C 43.554688 34.003906 44 33.558594 44 33.003906 L 44 31.003906 C 44 30.449219 43.554688 30.003906 43 30.003906 L 38 30.003906 L 38 26.003906 L 45 26.003906 C 45.554688 26.003906 46 25.558594 46 25.003906 L 46 23.003906 C 46 22.449219 45.554688 22.003906 45 22.003906 L 37 22.003906 Z M 35 22 "/>
<path style=" stroke:none;fill-rule:nonzero;fill:rgb(100%,100%,100%);fill-opacity:0.6;" d="M 35 22 C 34.984375 22 34.964844 22 34.949219 22 C 34.933594 22.003906 34.914062 22.003906 34.898438 22.003906 C 34.882812 22.007812 34.863281 22.007812 34.847656 22.015625 C 34.832031 22.015625 34.816406 22.019531 34.796875 22.019531 C 34.78125 22.023438 34.765625 22.027344 34.75 22.03125 C 34.734375 22.035156 34.71875 22.039062 34.703125 22.046875 C 34.683594 22.050781 34.671875 22.058594 34.65625 22.0625 C 34.640625 22.070312 34.625 22.074219 34.609375 22.082031 C 34.578125 22.09375 34.550781 22.109375 34.523438 22.125 C 34.507812 22.132812 34.496094 22.140625 34.480469 22.144531 C 34.46875 22.152344 34.453125 22.164062 34.4375 22.171875 C 34.414062 22.191406 34.386719 22.210938 34.363281 22.234375 C 34.339844 22.25 34.316406 22.273438 34.292969 22.296875 C 34.269531 22.320312 34.25 22.34375 34.230469 22.367188 C 34.207031 22.394531 34.1875 22.417969 34.171875 22.441406 C 34.160156 22.457031 34.152344 22.46875 34.144531 22.484375 C 34.136719 22.5 34.128906 22.515625 34.121094 22.527344 C 34.105469 22.554688 34.089844 22.582031 34.078125 22.613281 C 34.070312 22.628906 34.066406 22.644531 34.0625 22.660156 C 34.054688 22.675781 34.050781 22.691406 34.046875 22.703125 C 34.039062 22.71875 34.035156 22.738281 34.03125 22.753906 C 34.027344 22.769531 34.023438 22.789062 34.019531 22.800781 C 34.015625 22.816406 34.015625 22.835938 34.011719 22.851562 C 34.007812 22.867188 34.007812 22.886719 34.003906 22.902344 C 34.003906 22.917969 34.003906 22.9375 34 22.953125 C 34 22.972656 34 22.988281 34 23.003906 L 34 24 C 34 23.984375 34 23.96875 34 23.949219 C 34.003906 23.933594 34.003906 23.914062 34.003906 23.898438 C 34.007812 23.882812 34.007812 23.863281 34.011719 23.847656 C 34.015625 23.832031 34.015625 23.8125 34.019531 23.796875 C 34.023438 23.785156 34.027344 23.765625 34.03125 23.75 C 34.035156 23.734375 34.039062 23.714844 34.046875 23.703125 C 34.050781 23.6875 34.054688 23.671875 34.0625 23.65625 C 34.066406 23.640625 34.070312 23.625 34.078125 23.609375 C 34.089844 23.578125 34.105469 23.550781 34.121094 23.523438 C 34.128906 23.511719 34.136719 23.496094 34.144531 23.480469 C 34.152344 23.464844 34.160156 23.453125 34.171875 23.4375 C 34.1875 23.414062 34.207031 23.390625 34.230469 23.363281 C 34.25 23.339844 34.269531 23.316406 34.292969 23.292969 C 34.316406 23.269531 34.339844 23.246094 34.363281 23.230469 C 34.386719 23.207031 34.414062 23.1875 34.4375 23.171875 C 34.453125 23.160156 34.46875 23.152344 34.480469 23.144531 C 34.496094 23.136719 34.507812 23.128906 34.523438 23.121094 C 34.550781 23.105469 34.578125 23.089844 34.609375 23.078125 C 34.625 23.070312 34.640625 23.066406 34.65625 23.058594 C 34.671875 23.054688 34.683594 23.046875 34.703125 23.042969 C 34.71875 23.035156 34.734375 23.03125 34.75 23.03125 C 34.765625 23.027344 34.78125 23.019531 34.796875 23.015625 C 34.816406 23.015625 34.832031 23.011719 34.847656 23.011719 C 34.863281 23.003906 34.882812 23.003906 34.898438 23 C 34.914062 23 34.933594 23 34.949219 23 C 34.964844 22.996094 34.984375 22.996094 35 22.996094 L 37 23 L 45 23 C 45.554688 23 46 23.445312 46 24 L 46 23.003906 C 46 22.449219 45.554688 22.003906 45 22.003906 L 37 22.003906 Z M 38 30.003906 L 38 31 L 43 31 C 43.554688 31 44 31.445312 44 32 L 44 31.003906 C 44 30.449219 43.554688 30.003906 43 30.003906 Z M 38 38.003906 L 38 39 L 45 39 C 45.554688 39 46 39.445312 46 40 L 46 39.003906 C 46 38.449219 45.554688 38.003906 45 38.003906 Z M 38 38.003906 "/>
<path style=" stroke:none;fill-rule:nonzero;fill:rgb(0%,0%,0%);fill-opacity:0.4;" d="M 35 43.003906 C 34.984375 43.003906 34.964844 43.003906 34.949219 43.003906 C 34.933594 43 34.914062 43 34.898438 43 C 34.882812 42.996094 34.863281 42.996094 34.847656 42.992188 C 34.832031 42.988281 34.816406 42.988281 34.800781 42.984375 C 34.78125 42.980469 34.765625 42.976562 34.75 42.972656 C 34.734375 42.96875 34.71875 42.964844 34.703125 42.957031 C 34.683594 42.953125 34.671875 42.945312 34.65625 42.941406 C 34.640625 42.933594 34.625 42.929688 34.609375 42.921875 C 34.578125 42.910156 34.550781 42.894531 34.523438 42.878906 C 34.507812 42.871094 34.496094 42.863281 34.480469 42.855469 C 34.46875 42.847656 34.453125 42.839844 34.441406 42.832031 C 34.414062 42.8125 34.386719 42.792969 34.363281 42.773438 C 34.339844 42.753906 34.316406 42.730469 34.292969 42.707031 C 34.269531 42.683594 34.25 42.660156 34.230469 42.636719 C 34.207031 42.609375 34.1875 42.589844 34.171875 42.5625 C 34.160156 42.546875 34.152344 42.535156 34.144531 42.519531 C 34.136719 42.503906 34.128906 42.488281 34.121094 42.476562 C 34.105469 42.449219 34.089844 42.421875 34.078125 42.390625 C 34.070312 42.375 34.066406 42.359375 34.0625 42.34375 C 34.054688 42.328125 34.050781 42.3125 34.046875 42.300781 C 34.039062 42.285156 34.035156 42.265625 34.03125 42.25 C 34.027344 42.234375 34.023438 42.214844 34.019531 42.203125 C 34.015625 42.1875 34.015625 42.167969 34.011719 42.152344 C 34.007812 42.136719 34.007812 42.117188 34.007812 42.101562 C 34.003906 42.085938 34.003906 42.070312 34.003906 42.050781 C 34 42.03125 34 42.019531 34 42 L 34 41.003906 C 34 41.019531 34 41.035156 34.003906 41.054688 C 34.003906 41.070312 34.003906 41.089844 34.007812 41.105469 C 34.007812 41.121094 34.007812 41.140625 34.011719 41.15625 C 34.015625 41.171875 34.015625 41.191406 34.019531 41.207031 C 34.023438 41.222656 34.027344 41.238281 34.03125 41.253906 C 34.035156 41.269531 34.039062 41.289062 34.046875 41.304688 C 34.050781 41.320312 34.054688 41.332031 34.0625 41.347656 C 34.066406 41.363281 34.070312 41.378906 34.078125 41.394531 C 34.089844 41.425781 34.105469 41.453125 34.121094 41.480469 C 34.128906 41.492188 34.136719 41.507812 34.144531 41.523438 C 34.152344 41.539062 34.160156 41.550781 34.171875 41.566406 C 34.1875 41.589844 34.207031 41.613281 34.230469 41.640625 C 34.25 41.664062 34.269531 41.6875 34.292969 41.710938 C 34.316406 41.734375 34.339844 41.757812 34.363281 41.777344 C 34.386719 41.796875 34.414062 41.816406 34.441406 41.835938 C 34.453125 41.847656 34.46875 41.855469 34.480469 41.859375 C 34.496094 41.867188 34.507812 41.875 34.523438 41.882812 C 34.550781 41.898438 34.578125 41.914062 34.609375 41.925781 C 34.625 41.933594 34.640625 41.9375 34.65625 41.945312 C 34.671875 41.949219 34.683594 41.957031 34.703125 41.960938 C 34.71875 41.96875 34.734375 41.972656 34.75 41.976562 C 34.765625 41.980469 34.78125 41.984375 34.800781 41.988281 C 34.816406 41.992188 34.832031 41.992188 34.847656 41.996094 C 34.863281 42 34.882812 42.003906 34.898438 42.003906 C 34.914062 42.003906 34.933594 42.003906 34.949219 42.007812 C 34.964844 42.007812 34.984375 42.007812 35 42.007812 L 37 42.003906 L 45 42.003906 C 45.554688 42.003906 46 41.558594 46 41.003906 L 46 42 C 46 42.554688 45.554688 43 45 43 L 37 43 Z M 38 35 L 38 34.003906 L 43 34.003906 C 43.554688 34.003906 44 33.558594 44 33.003906 L 44 34 C 44 34.554688 43.554688 35 43 35 Z M 38 27 L 38 26.003906 L 45 26.003906 C 45.554688 26.003906 46 25.558594 46 25.003906 L 46 26 C 46 26.554688 45.554688 27 45 27 Z M 38 27 "/>
<path style=" stroke:none;fill-rule:nonzero;fill:url(#linear0);" d="M 8 4 L 56 4 C 58.210938 4 60 5.789062 60 8 L 60 56 C 60 58.210938 58.210938 60 56 60 L 8 60 C 5.789062 60 4 58.210938 4 56 L 4 8 C 4 5.789062 5.789062 4 8 4 Z M 8 4 "/>
</g>
</svg>
