
<svg xmlns="http://www.w3.org/2000/svg" xmlns:xlink="http://www.w3.org/1999/xlink" width="16" height="16" viewBox="0 0 16 16" version="1.1">
<defs>
<linearGradient id="linear0" gradientUnits="userSpaceOnUse" x1="31.999998" y1="57.999996" x2="31.999998" y2="8" gradientTransform="matrix(0.25,0,0,0.25,-0.000000170079,0)">
<stop offset="0" style="stop-color:rgb(0%,0%,0%);stop-opacity:0.2;"/>
<stop offset="1" style="stop-color:rgb(100%,100%,100%);stop-opacity:0;"/>
</linearGradient>
</defs>
<g id="surface1">
<path style=" stroke:none;fill-rule:nonzero;fill:rgb(36.078432%,41.960785%,75.294119%);fill-opacity:1;" d="M 2 2 L 14 2 C 14.550781 2 15 2.449219 15 3 L 15 13 C 15 13.550781 14.550781 14 14 14 L 2 14 C 1.449219 14 1 13.550781 1 13 L 1 3 C 1 2.449219 1.449219 2 2 2 Z M 2 2 "/>
<path style=" stroke:none;fill-rule:nonzero;fill:rgb(25.882354%,64.705884%,96.078432%);fill-opacity:1;" d="M 1.128906 2.503906 L 8 8 L 1.351562 13.761719 C 1.136719 13.578125 1 13.304688 1 13 L 1 3 C 1 2.820312 1.046875 2.652344 1.128906 2.503906 Z M 1.128906 2.503906 "/>
<path style=" stroke:none;fill-rule:nonzero;fill:rgb(47.058824%,56.470591%,61.176473%);fill-opacity:1;" d="M 8 8 L 1.316406 13.730469 C 1.496094 13.898438 1.734375 14 2 14 L 14 14 C 14.265625 14 14.503906 13.898438 14.683594 13.730469 Z M 8 8 "/>
<path style=" stroke:none;fill-rule:nonzero;fill:rgb(92.54902%,25.098041%,47.843137%);fill-opacity:1;" d="M 14.867188 2.503906 L 8 8 L 14.648438 13.761719 C 14.863281 13.578125 15 13.304688 15 13 L 15 3 C 15 2.820312 14.953125 2.652344 14.867188 2.503906 Z M 14.867188 2.503906 "/>
<path style=" stroke:none;fill-rule:nonzero;fill:rgb(0.392157%,0.392157%,0.392157%);fill-opacity:0.4;" d="M 1 12.75 L 1 13 C 1 13.554688 1.445312 14 2 14 L 14 14 C 14.554688 14 15 13.554688 15 13 L 15 12.75 C 15 13.304688 14.554688 13.75 14 13.75 L 2 13.75 C 1.445312 13.75 1 13.304688 1 12.75 Z M 1 12.75 "/>
<path style=" stroke:none;fill-rule:nonzero;fill:rgb(87.843138%,87.843138%,87.843138%);fill-opacity:1;" d="M 2.5 12 L 13.5 12 C 13.777344 12 14 12.222656 14 12.5 L 14 14 C 14 14.277344 13.777344 14.5 13.5 14.5 L 2.5 14.5 C 2.222656 14.5 2 14.277344 2 14 L 2 12.5 C 2 12.222656 2.222656 12 2.5 12 Z M 2.5 12 "/>
<path style=" stroke:none;fill-rule:nonzero;fill:rgb(87.843138%,87.843138%,87.843138%);fill-opacity:1;" d="M 2 2 C 1.445312 2 1 2.445312 1 3 L 15 3 C 15 2.445312 14.554688 2 14 2 Z M 2 2 "/>
<path style=" stroke:none;fill-rule:nonzero;fill:rgb(0%,0%,0%);fill-opacity:0.4;" d="M 1 3 L 1 3.25 L 15 3.25 L 15 3 Z M 2 13.75 L 2 14 C 2 14.277344 2.222656 14.5 2.5 14.5 L 13.5 14.5 C 13.777344 14.5 14 14.277344 14 14 L 14 13.75 C 14 14.027344 13.777344 14.25 13.5 14.25 L 2.5 14.25 C 2.222656 14.25 2 14.027344 2 13.75 Z M 2 13.75 "/>
<path style=" stroke:none;fill-rule:nonzero;fill:rgb(100%,100%,100%);fill-opacity:0.8;" d="M 2 2 C 1.445312 2 1 2.445312 1 3 L 1.03125 3 C 1.140625 2.5625 1.53125 2.242188 2 2.242188 L 14 2.242188 C 14.46875 2.242188 14.859375 2.5625 14.96875 3 L 15 3 C 15 2.445312 14.554688 2 14 2 Z M 2.5 12 C 2.222656 12 2 12.222656 2 12.5 L 2 12.742188 C 2 12.464844 2.222656 12.242188 2.5 12.242188 L 13.5 12.242188 C 13.777344 12.242188 14 12.464844 14 12.742188 L 14 12.5 C 14 12.222656 13.777344 12 13.5 12 Z M 2.5 12 "/>
<path style=" stroke:none;fill-rule:nonzero;fill:rgb(0%,0%,0%);fill-opacity:0.2;" d="M 1 13 L 1 13.375 C 1 13.929688 1.445312 14.375 2 14.375 C 2 14.652344 2.222656 14.875 2.5 14.875 L 13.5 14.875 C 13.777344 14.875 14 14.652344 14 14.375 C 14.554688 14.375 15 13.929688 15 13.375 L 15 13 C 15 13.554688 14.554688 14 14 14 C 14 14.277344 13.777344 14.5 13.5 14.5 L 2.5 14.5 C 2.222656 14.5 2 14.277344 2 14 C 1.445312 14 1 13.554688 1 13 Z M 1 13 "/>
<path style=" stroke:none;fill-rule:nonzero;fill:rgb(93.333334%,93.333334%,93.333334%);fill-opacity:1;" d="M 8 5.5 C 6.613281 5.5 5.5 6.613281 5.5 8 C 5.5 9.386719 6.613281 10.5 8 10.5 C 9.386719 10.5 10.5 9.386719 10.5 8 C 10.5 6.613281 9.386719 5.5 8 5.5 Z M 8 6 C 9.109375 6 10 6.890625 10 8 C 10 9.109375 9.109375 10 8 10 C 6.890625 10 6 9.109375 6 8 C 6 6.890625 6.890625 6 8 6 Z M 8 6.5 C 7.167969 6.5 6.5 7.167969 6.5 8 C 6.5 8.832031 7.167969 9.5 8 9.5 C 8.832031 9.5 9.5 8.832031 9.5 8 C 9.5 7.167969 8.832031 6.5 8 6.5 Z M 8 7 L 8 7.5 C 7.996094 7.5 7.992188 7.5 7.988281 7.5 C 7.714844 7.507812 7.5 7.726562 7.5 8 L 7 8 C 7 7.445312 7.445312 7 8 7 Z M 8 7 "/>
<path style=" stroke:none;fill-rule:nonzero;fill:rgb(0.784314%,0.784314%,0.784314%);fill-opacity:0.4;" d="M 8 6 C 6.890625 6 6 6.890625 6 8 C 6 8.042969 6 8.085938 6.003906 8.128906 C 6.070312 7.082031 6.933594 6.257812 8 6.257812 C 9.066406 6.257812 9.929688 7.082031 9.996094 8.128906 C 10 8.085938 10 8.042969 10 8 C 10 6.890625 9.109375 6 8 6 Z M 8 7 C 7.445312 7 7 7.445312 7 8 L 7.035156 8 C 7.144531 7.570312 7.535156 7.257812 8 7.257812 Z M 5.503906 8.128906 C 5.5 8.171875 5.5 8.214844 5.5 8.257812 C 5.5 9.644531 6.613281 10.757812 8 10.757812 C 9.386719 10.757812 10.5 9.644531 10.5 8.257812 C 10.5 8.214844 10.5 8.171875 10.496094 8.128906 C 10.429688 9.453125 9.339844 10.5 8 10.5 C 6.660156 10.5 5.570312 9.453125 5.503906 8.128906 Z M 6.503906 8.128906 C 6.5 8.171875 6.5 8.214844 6.5 8.257812 C 6.5 9.089844 7.167969 9.757812 8 9.757812 C 8.832031 9.757812 9.5 9.089844 9.5 8.257812 C 9.5 8.214844 9.5 8.171875 9.496094 8.128906 C 9.429688 8.898438 8.789062 9.5 8 9.5 C 7.210938 9.5 6.570312 8.898438 6.503906 8.128906 Z M 6.503906 8.128906 "/>
<path style=" stroke:none;fill-rule:nonzero;fill:rgb(100%,100%,100%);fill-opacity:0.8;" d="M 8 5.5 C 6.613281 5.5 5.5 6.613281 5.5 8 C 5.5 8.039062 5.5 8.078125 5.503906 8.121094 C 5.566406 6.789062 6.65625 5.738281 8 5.738281 C 9.34375 5.738281 10.433594 6.789062 10.496094 8.121094 C 10.5 8.078125 10.5 8.039062 10.5 8 C 10.5 6.613281 9.386719 5.5 8 5.5 Z M 8 6.5 C 7.167969 6.5 6.5 7.167969 6.5 8 C 6.5 8.039062 6.5 8.078125 6.503906 8.121094 C 6.566406 7.34375 7.210938 6.738281 8 6.738281 C 8.789062 6.738281 9.433594 7.34375 9.496094 8.121094 C 9.5 8.078125 9.5 8.039062 9.5 8 C 9.5 7.167969 8.832031 6.5 8 6.5 Z M 7.988281 7.5 C 7.714844 7.507812 7.5 7.726562 7.5 8 L 7.027344 8 C 7.011719 8.078125 7 8.15625 7 8.238281 L 7.5 8.238281 C 7.5 7.964844 7.714844 7.746094 7.988281 7.738281 C 7.992188 7.738281 7.996094 7.738281 8 7.738281 L 8 7.5 C 7.996094 7.5 7.992188 7.5 7.988281 7.5 Z M 6.003906 8.121094 C 6 8.160156 6 8.199219 6 8.238281 C 6 9.347656 6.890625 10.238281 8 10.238281 C 9.109375 10.238281 10 9.347656 10 8.238281 C 10 8.199219 10 8.160156 9.996094 8.121094 C 9.933594 9.171875 9.066406 10 8 10 C 6.933594 10 6.066406 9.171875 6.003906 8.121094 Z M 6.003906 8.121094 "/>
<path style=" stroke:none;fill-rule:nonzero;fill:url(#linear0);" d="M 2 2 C 1.445312 2 1 2.445312 1 3 L 1 13 C 1 13.554688 1.445312 14 2 14 C 2 14.277344 2.222656 14.5 2.5 14.5 L 13.5 14.5 C 13.777344 14.5 14 14.277344 14 14 C 14.554688 14 15 13.554688 15 13 L 15 3 C 15 2.445312 14.554688 2 14 2 Z M 2 2 "/>
</g>
</svg>
