
<svg xmlns="http://www.w3.org/2000/svg" xmlns:xlink="http://www.w3.org/1999/xlink" width="16" height="16" viewBox="0 0 16 16" version="1.1">
<defs>
<linearGradient id="linear0" gradientUnits="userSpaceOnUse" x1="8.466666" y1="-199.125" x2="8.466666" y2="-213.941666" gradientTransform="matrix(0.944882,0,0,0.944882,0,203.149617)">
<stop offset="0" style="stop-color:rgb(0%,0%,0%);stop-opacity:0.2;"/>
<stop offset="1" style="stop-color:rgb(100%,100%,100%);stop-opacity:0;"/>
</linearGradient>
</defs>
<g id="surface1">
<path style=" stroke:none;fill-rule:nonzero;fill:rgb(0%,0%,0%);fill-opacity:0.2;" d="M 1.003906 8.1875 C 1 8.25 1 8.3125 1 8.375 C 1 12.242188 4.132812 15.375 8 15.375 C 11.867188 15.375 15 12.242188 15 8.375 C 15 8.3125 15 8.25 14.996094 8.1875 C 14.898438 11.96875 11.804688 15 8 15 C 4.195312 15 1.101562 11.96875 1.003906 8.1875 Z M 1.003906 8.1875 "/>
<path style=" stroke:none;fill-rule:nonzero;fill:rgb(67.058825%,27.843139%,73.725492%);fill-opacity:1;" d="M 8 1 C 11.867188 1 15 4.132812 15 8 C 15 11.867188 11.867188 15 8 15 C 4.132812 15 1 11.867188 1 8 C 1 4.132812 4.132812 1 8 1 Z M 8 1 "/>
<path style=" stroke:none;fill-rule:nonzero;fill:rgb(87.843138%,87.843138%,87.843138%);fill-opacity:1;" d="M 8 2 L 8 3 C 10.761719 3 13 5.238281 13 8 C 13 10.761719 10.761719 13 8 13 L 8 14 C 11.3125 14 14 11.3125 14 8 C 14 4.6875 11.3125 2 8 2 Z M 8 4 L 8 5 C 9.65625 5 11 6.34375 11 8 C 11 9.65625 9.65625 11 8 11 L 8 12 C 10.207031 12 12 10.207031 12 8 C 12 5.789062 10.207031 4 8 4 Z M 8 6 L 8 10 C 9.105469 10 10 9.105469 10 8 C 10 6.894531 9.105469 6 8 6 Z M 8 6 "/>
<path style=" stroke:none;fill-rule:nonzero;fill:url(#linear0);" d="M 8 1 C 11.867188 1 15 4.132812 15 8 C 15 11.867188 11.867188 15 8 15 C 4.132812 15 1 11.867188 1 8 C 1 4.132812 4.132812 1 8 1 Z M 8 1 "/>
<path style=" stroke:none;fill-rule:nonzero;fill:rgb(100%,100%,100%);fill-opacity:0.4;" d="M 8 1 C 4.132812 1 1 4.132812 1 8 C 1 8.042969 1 8.082031 1 8.125 C 1.070312 4.316406 4.175781 1.25 8 1.25 C 11.824219 1.25 14.929688 4.316406 15 8.125 C 15 8.082031 15 8.042969 15 8 C 15 4.132812 11.867188 1 8 1 Z M 8 1 "/>
<path style=" stroke:none;fill-rule:nonzero;fill:rgb(0.392157%,0.392157%,0.392157%);fill-opacity:0.4;" d="M 8 15 C 4.132812 15 1 11.867188 1 8 C 1 7.957031 1 7.917969 1 7.875 C 1.070312 11.683594 4.175781 14.75 8 14.75 C 11.824219 14.75 14.929688 11.683594 15 7.875 C 15 7.917969 15 7.957031 15 8 C 15 11.867188 11.867188 15 8 15 Z M 8 15 "/>
<path style=" stroke:none;fill-rule:nonzero;fill:rgb(87.843138%,87.843138%,87.843138%);fill-opacity:1;" d="M 8 2 L 8 3 C 10.761719 3 13 5.238281 13 8 C 13 10.761719 10.761719 13 8 13 L 8 14 C 11.3125 14 14 11.3125 14 8 C 14 4.6875 11.3125 2 8 2 Z M 8 4 L 8 5 C 9.65625 5 11 6.34375 11 8 C 11 9.65625 9.65625 11 8 11 L 8 12 C 10.207031 12 12 10.207031 12 8 C 12 5.789062 10.207031 4 8 4 Z M 8 6 L 8 10 C 9.105469 10 10 9.105469 10 8 C 10 6.894531 9.105469 6 8 6 Z M 8 6 "/>
<path style=" stroke:none;fill-rule:nonzero;fill:rgb(100%,100%,100%);fill-opacity:0.8;" d="M 8 2 L 8 2.25 C 11.257812 2.25 13.910156 4.847656 13.996094 8.085938 C 13.996094 8.058594 14 8.027344 14 8 C 14 4.6875 11.3125 2 8 2 Z M 8 4 L 8 4.25 C 10.160156 4.25 11.921875 5.964844 11.996094 8.109375 C 11.996094 8.074219 12 8.035156 12 8 C 12 5.789062 10.207031 4 8 4 Z M 8 6 L 8 6.25 C 9.058594 6.25 9.921875 7.070312 9.992188 8.109375 C 9.996094 8.070312 10 8.035156 10 8 C 10 6.894531 9.105469 6 8 6 Z M 12.996094 8.097656 C 12.945312 10.8125 10.730469 13 8 13 L 8 13.25 C 10.761719 13.25 13 11.011719 13 8.25 C 13 8.199219 13 8.148438 12.996094 8.097656 Z M 10.996094 8.117188 C 10.933594 9.71875 9.617188 11 8 11 L 8 11.25 C 9.65625 11.25 11 9.90625 11 8.25 C 11 8.207031 11 8.160156 10.996094 8.117188 Z M 10.996094 8.117188 "/>
<path style=" stroke:none;fill-rule:nonzero;fill:rgb(0%,0%,0%);fill-opacity:0.4;" d="M 8 3 L 8 3.25 C 10.71875 3.25 12.929688 5.417969 13 8.121094 C 13 8.082031 13 8.039062 13 8 C 13 5.238281 10.761719 3 8 3 Z M 8 5 L 8 5.25 C 9.613281 5.25 10.929688 6.527344 10.996094 8.125 C 11 8.082031 11 8.042969 11 8 C 11 6.34375 9.65625 5 8 5 Z M 9.996094 8.125 C 9.929688 9.171875 9.0625 10 8 10 L 8 10.25 C 9.105469 10.25 10 9.355469 10 8.25 C 10 8.207031 10 8.164062 9.996094 8.125 Z M 11.996094 8.125 C 11.929688 10.277344 10.167969 12 8 12 L 8 12.25 C 10.207031 12.25 12 10.457031 12 8.25 C 12 8.207031 12 8.167969 11.996094 8.125 Z M 14 8.125 C 13.929688 11.378906 11.273438 14 8 14 L 8 14.25 C 11.3125 14.25 14 11.5625 14 8.25 C 14 8.207031 14 8.167969 14 8.125 Z M 14 8.125 "/>
</g>
</svg>
