
<svg xmlns="http://www.w3.org/2000/svg" xmlns:xlink="http://www.w3.org/1999/xlink" width="48" height="48" viewBox="0 0 48 48" version="1.1">
<defs>
<linearGradient id="linear0" gradientUnits="userSpaceOnUse" x1="32" y1="59.999996" x2="31.999998" y2="3.999999" gradientTransform="matrix(0.75,0,0,0.75,5.816898,-9.882505)">
<stop offset="0" style="stop-color:rgb(0%,0%,0%);stop-opacity:0.2;"/>
<stop offset="1" style="stop-color:rgb(100%,100%,100%);stop-opacity:0;"/>
</linearGradient>
<linearGradient id="linear1" gradientUnits="userSpaceOnUse" x1="6.35" y1="-202.035416" x2="5.820833" y2="-202.829163" gradientTransform="matrix(2.834646,0,0,2.834646,5.816898,599.56635)">
<stop offset="0" style="stop-color:rgb(0.784314%,0.784314%,0.784314%);stop-opacity:0.4;"/>
<stop offset="1" style="stop-color:rgb(100%,100%,100%);stop-opacity:0;"/>
</linearGradient>
<linearGradient id="linear2" gradientUnits="userSpaceOnUse" x1="29.999998" y1="59.999996" x2="29.999998" y2="3.999999" gradientTransform="matrix(0.75,0,0,0.75,0,0.000000000000085265)">
<stop offset="0" style="stop-color:rgb(0%,0%,0%);stop-opacity:0.2;"/>
<stop offset="1" style="stop-color:rgb(100%,100%,100%);stop-opacity:0;"/>
</linearGradient>
</defs>
<g id="surface1">
<path style=" stroke:none;fill-rule:nonzero;fill:rgb(87.843138%,87.843138%,87.843138%);fill-opacity:1;" d="M 6 39 L 6 45 L 16.5 39 Z M 6 39 "/>
<path style=" stroke:none;fill-rule:nonzero;fill:rgb(93.333334%,93.333334%,93.333334%);fill-opacity:1;" d="M 6 3 L 31.5 3 C 33.15625 3 34.5 4.34375 34.5 6 L 34.5 36 C 34.5 37.65625 33.15625 39 31.5 39 L 6 39 C 4.34375 39 3 37.65625 3 36 L 3 6 C 3 4.34375 4.34375 3 6 3 Z M 6 3 "/>
<path style=" stroke:none;fill-rule:nonzero;fill:rgb(38.039216%,38.039216%,38.039216%);fill-opacity:0.996078;" d="M 12.75 22.5 L 29.25 22.5 C 29.664062 22.5 30 22.835938 30 23.25 C 30 23.664062 29.664062 24 29.25 24 L 12.75 24 C 12.335938 24 12 23.664062 12 23.25 C 12 22.835938 12.335938 22.5 12.75 22.5 Z M 12.75 22.5 "/>
<path style=" stroke:none;fill-rule:nonzero;fill:rgb(38.039216%,38.039216%,38.039216%);fill-opacity:1;" d="M 8.25 21 C 9.492188 21 10.5 22.007812 10.5 23.25 C 10.5 24.492188 9.492188 25.5 8.25 25.5 C 7.007812 25.5 6 24.492188 6 23.25 C 6 22.007812 7.007812 21 8.25 21 Z M 8.25 21 "/>
<path style=" stroke:none;fill-rule:nonzero;fill:rgb(38.039216%,38.039216%,38.039216%);fill-opacity:0.4;" d="M 6.007812 23.4375 C 6.003906 23.5 6 23.5625 6 23.625 C 6 24.871094 7.003906 25.875 8.25 25.875 C 9.496094 25.875 10.5 24.871094 10.5 23.625 C 10.5 23.5625 10.496094 23.5 10.492188 23.4375 C 10.394531 24.59375 9.433594 25.5 8.25 25.5 C 7.066406 25.5 6.105469 24.59375 6.007812 23.4375 Z M 12.023438 23.4375 C 12.007812 23.496094 12 23.558594 12 23.625 C 12 24.039062 12.335938 24.375 12.75 24.375 L 29.25 24.375 C 29.664062 24.375 30 24.039062 30 23.625 C 30 23.558594 29.992188 23.496094 29.976562 23.4375 C 29.890625 23.761719 29.597656 24 29.25 24 L 12.75 24 C 12.402344 24 12.109375 23.761719 12.023438 23.4375 Z M 12.023438 23.4375 "/>
<path style=" stroke:none;fill-rule:nonzero;fill:rgb(100%,100%,100%);fill-opacity:0.4;" d="M 6.007812 23.433594 C 6.003906 23.371094 6 23.308594 6 23.246094 C 6 22 7.003906 20.996094 8.25 20.996094 C 9.496094 20.996094 10.5 22 10.5 23.246094 C 10.5 23.308594 10.496094 23.371094 10.492188 23.433594 C 10.394531 22.277344 9.433594 21.371094 8.25 21.371094 C 7.066406 21.371094 6.105469 22.277344 6.007812 23.433594 Z M 12.023438 23.433594 C 12.007812 23.375 12 23.3125 12 23.246094 C 12 22.832031 12.335938 22.496094 12.75 22.496094 L 29.25 22.496094 C 29.664062 22.496094 30 22.832031 30 23.246094 C 30 23.3125 29.992188 23.375 29.976562 23.433594 C 29.890625 23.109375 29.597656 22.871094 29.25 22.871094 L 12.75 22.871094 C 12.402344 22.871094 12.109375 23.109375 12.023438 23.433594 Z M 12.023438 23.433594 "/>
<path style=" stroke:none;fill-rule:nonzero;fill:rgb(14.901961%,77.64706%,85.490197%);fill-opacity:0.996078;" d="M 12.75 28.5 L 29.25 28.5 C 29.664062 28.5 30 28.835938 30 29.25 C 30 29.664062 29.664062 30 29.25 30 L 12.75 30 C 12.335938 30 12 29.664062 12 29.25 C 12 28.835938 12.335938 28.5 12.75 28.5 Z M 12.75 28.5 "/>
<path style=" stroke:none;fill-rule:nonzero;fill:rgb(14.901961%,77.64706%,85.490197%);fill-opacity:1;" d="M 8.25 27 C 9.492188 27 10.5 28.007812 10.5 29.25 C 10.5 30.492188 9.492188 31.5 8.25 31.5 C 7.007812 31.5 6 30.492188 6 29.25 C 6 28.007812 7.007812 27 8.25 27 Z M 8.25 27 "/>
<path style=" stroke:none;fill-rule:nonzero;fill:rgb(38.039216%,38.039216%,38.039216%);fill-opacity:0.4;" d="M 6.007812 29.4375 C 6.003906 29.5 6 29.5625 6 29.625 C 6 30.871094 7.003906 31.875 8.25 31.875 C 9.496094 31.875 10.5 30.871094 10.5 29.625 C 10.5 29.5625 10.496094 29.5 10.492188 29.4375 C 10.394531 30.59375 9.433594 31.5 8.25 31.5 C 7.066406 31.5 6.105469 30.59375 6.007812 29.4375 Z M 12.023438 29.4375 C 12.007812 29.496094 12 29.558594 12 29.625 C 12 30.039062 12.335938 30.375 12.75 30.375 L 29.25 30.375 C 29.664062 30.375 30 30.039062 30 29.625 C 30 29.558594 29.992188 29.496094 29.976562 29.4375 C 29.890625 29.761719 29.597656 30 29.25 30 L 12.75 30 C 12.402344 30 12.109375 29.761719 12.023438 29.4375 Z M 12.023438 29.4375 "/>
<path style=" stroke:none;fill-rule:nonzero;fill:rgb(100%,100%,100%);fill-opacity:0.4;" d="M 6.007812 29.433594 C 6.003906 29.371094 6 29.308594 6 29.246094 C 6 28 7.003906 26.996094 8.25 26.996094 C 9.496094 26.996094 10.5 28 10.5 29.246094 C 10.5 29.308594 10.496094 29.371094 10.492188 29.433594 C 10.394531 28.277344 9.433594 27.371094 8.25 27.371094 C 7.066406 27.371094 6.105469 28.277344 6.007812 29.433594 Z M 12.023438 29.433594 C 12.007812 29.375 12 29.3125 12 29.246094 C 12 28.832031 12.335938 28.496094 12.75 28.496094 L 29.25 28.496094 C 29.664062 28.496094 30 28.832031 30 29.246094 C 30 29.3125 29.992188 29.375 29.976562 29.433594 C 29.890625 29.109375 29.597656 28.871094 29.25 28.871094 L 12.75 28.871094 C 12.402344 28.871094 12.109375 29.109375 12.023438 29.433594 Z M 12.023438 29.433594 "/>
<path style=" stroke:none;fill-rule:nonzero;fill:rgb(38.039216%,38.039216%,38.039216%);fill-opacity:0.996078;" d="M 12.75 16.5 L 29.25 16.5 C 29.664062 16.5 30 16.835938 30 17.25 C 30 17.664062 29.664062 18 29.25 18 L 12.75 18 C 12.335938 18 12 17.664062 12 17.25 C 12 16.835938 12.335938 16.5 12.75 16.5 Z M 12.75 16.5 "/>
<path style=" stroke:none;fill-rule:nonzero;fill:rgb(38.039216%,38.039216%,38.039216%);fill-opacity:1;" d="M 8.25 15 C 9.492188 15 10.5 16.007812 10.5 17.25 C 10.5 18.492188 9.492188 19.5 8.25 19.5 C 7.007812 19.5 6 18.492188 6 17.25 C 6 16.007812 7.007812 15 8.25 15 Z M 8.25 15 "/>
<path style=" stroke:none;fill-rule:nonzero;fill:rgb(38.039216%,38.039216%,38.039216%);fill-opacity:0.4;" d="M 6.007812 17.4375 C 6.003906 17.5 6 17.5625 6 17.625 C 6 18.871094 7.003906 19.875 8.25 19.875 C 9.496094 19.875 10.5 18.871094 10.5 17.625 C 10.5 17.5625 10.496094 17.5 10.492188 17.4375 C 10.394531 18.59375 9.433594 19.5 8.25 19.5 C 7.066406 19.5 6.105469 18.59375 6.007812 17.4375 Z M 12.023438 17.4375 C 12.007812 17.496094 12 17.558594 12 17.625 C 12 18.039062 12.335938 18.375 12.75 18.375 L 29.25 18.375 C 29.664062 18.375 30 18.039062 30 17.625 C 30 17.558594 29.992188 17.496094 29.976562 17.4375 C 29.890625 17.761719 29.597656 18 29.25 18 L 12.75 18 C 12.402344 18 12.109375 17.761719 12.023438 17.4375 Z M 12.023438 17.4375 "/>
<path style=" stroke:none;fill-rule:nonzero;fill:rgb(100%,100%,100%);fill-opacity:0.4;" d="M 6.007812 17.433594 C 6.003906 17.371094 6 17.308594 6 17.246094 C 6 16 7.003906 14.996094 8.25 14.996094 C 9.496094 14.996094 10.5 16 10.5 17.246094 C 10.5 17.308594 10.496094 17.371094 10.492188 17.433594 C 10.394531 16.277344 9.433594 15.371094 8.25 15.371094 C 7.066406 15.371094 6.105469 16.277344 6.007812 17.433594 Z M 12.023438 17.433594 C 12.007812 17.375 12 17.3125 12 17.246094 C 12 16.832031 12.335938 16.496094 12.75 16.496094 L 29.25 16.496094 C 29.664062 16.496094 30 16.832031 30 17.246094 C 30 17.3125 29.992188 17.375 29.976562 17.433594 C 29.890625 17.109375 29.597656 16.871094 29.25 16.871094 L 12.75 16.871094 C 12.402344 16.871094 12.109375 17.109375 12.023438 17.433594 Z M 12.023438 17.433594 "/>
<path style=" stroke:none;fill-rule:nonzero;fill:rgb(100%,100%,100%);fill-opacity:0.6;" d="M 6 2.988281 C 4.339844 2.988281 3 4.328125 3 5.988281 L 3 6.75 C 3 5.089844 4.339844 3.75 6 3.75 L 31.5 3.75 C 33.160156 3.75 34.5 5.089844 34.5 6.75 L 34.5 5.988281 C 34.5 4.328125 33.160156 2.988281 31.5 2.988281 Z M 6 2.988281 "/>
<path style=" stroke:none;fill-rule:nonzero;fill:rgb(0%,0%,0%);fill-opacity:0.4;" d="M 6 39.011719 C 4.339844 39.011719 3 37.671875 3 36.011719 L 3 35.25 C 3 36.910156 4.339844 38.25 6 38.25 L 31.5 38.25 C 33.160156 38.25 34.5 36.910156 34.5 35.25 L 34.5 36.011719 C 34.5 37.671875 33.160156 39.011719 31.5 39.011719 Z M 6 39.011719 "/>
<path style=" stroke:none;fill-rule:nonzero;fill:rgb(0%,0%,0%);fill-opacity:0.2;" d="M 3 36.023438 L 3 37.113281 C 3 38.773438 4.339844 40.113281 6 40.113281 L 6 39.023438 C 4.339844 39.023438 3 37.683594 3 36.023438 Z M 34.5 36.023438 C 34.5 37.683594 33.160156 39.023438 31.5 39.023438 L 16.5 39.023438 L 6 45.023438 L 6 46.113281 L 16.5 40.113281 L 31.5 40.113281 C 33.160156 40.113281 34.5 38.773438 34.5 37.113281 Z M 34.5 36.023438 "/>
<path style=" stroke:none;fill-rule:nonzero;fill:rgb(87.843138%,87.843138%,87.843138%);fill-opacity:1;" d="M 6 39 L 6 45 L 16.5 39 Z M 6 39 "/>
<path style=" stroke:none;fill-rule:nonzero;fill:rgb(0%,0%,0%);fill-opacity:0.2;" d="M 6 39 L 6 39.761719 L 15.167969 39.761719 L 16.5 39 Z M 6 39 "/>
<path style=" stroke:none;fill-rule:nonzero;fill:rgb(0%,59.215689%,65.490198%);fill-opacity:1;" d="M 44.882812 6.542969 C 45.175781 6.835938 45.175781 7.308594 44.882812 7.601562 L 28.441406 24.042969 L 22.609375 27.226562 L 44.351562 6.011719 Z M 44.882812 6.542969 "/>
<path style=" stroke:none;fill-rule:nonzero;fill:rgb(50.196081%,87.058824%,91.764706%);fill-opacity:1;" d="M 41.699219 3.359375 C 41.40625 3.066406 40.933594 3.066406 40.640625 3.359375 L 24.199219 19.800781 L 21.019531 25.632812 L 42.230469 3.890625 Z M 41.699219 3.359375 "/>
<path style=" stroke:none;fill-rule:nonzero;fill:rgb(14.901961%,77.64706%,85.490197%);fill-opacity:1;" d="M 42.230469 3.890625 L 44.351562 6.011719 L 26.320312 24.042969 L 24.199219 21.921875 Z M 42.230469 3.890625 "/>
<path style=" stroke:none;fill-rule:nonzero;fill:rgb(73.725492%,66.666669%,64.313728%);fill-opacity:1;" d="M 24.199219 19.800781 L 19.160156 28.550781 L 19.691406 29.082031 L 28.441406 24.042969 C 27.382812 24.574219 26.585938 23.777344 26.851562 23.511719 C 26.128906 23.636719 25.527344 23.246094 25.527344 22.1875 C 24.464844 22.71875 24.664062 21.324219 24.730469 20.859375 C 23.667969 21.390625 23.667969 20.859375 24.199219 19.800781 Z M 24.199219 19.800781 "/>
<path style=" stroke:none;fill-rule:nonzero;fill:rgb(38.039216%,38.039216%,38.039216%);fill-opacity:1;" d="M 20.699219 28.5 C 20.214844 28.070312 19.761719 28.421875 19.699219 27.617188 C 18.367188 29.347656 18.894531 29.875 20.699219 28.5 Z M 20.699219 28.5 "/>
<path style=" stroke:none;fill-rule:nonzero;fill:url(#linear0);" d="M 41.171875 3.140625 C 40.980469 3.140625 40.789062 3.210938 40.640625 3.359375 L 24.199219 19.800781 L 19.699219 27.621094 C 18.367188 29.34375 18.894531 29.875 20.691406 28.503906 L 28.441406 24.042969 L 44.882812 7.601562 C 45.175781 7.308594 45.175781 6.835938 44.882812 6.542969 L 42.230469 3.890625 L 41.703125 3.359375 C 41.554688 3.210938 41.363281 3.140625 41.171875 3.140625 Z M 41.171875 3.140625 "/>
<path style=" stroke:none;fill-rule:nonzero;fill:url(#linear1);" d="M 24.214844 19.792969 L 19.175781 28.542969 L 19.707031 29.074219 L 28.457031 24.035156 C 27.398438 24.566406 26.601562 23.769531 26.867188 23.503906 C 26.144531 23.628906 25.542969 23.238281 25.542969 22.179688 C 24.480469 22.710938 24.679688 21.316406 24.746094 20.851562 C 23.683594 21.382812 23.683594 20.851562 24.214844 19.792969 Z M 24.214844 19.792969 "/>
<path style=" stroke:none;fill-rule:nonzero;fill:rgb(0%,0%,0%);fill-opacity:0.4;" d="M 45 7.445312 C 44.96875 7.5 44.929688 7.554688 44.882812 7.601562 L 28.441406 24.042969 L 20.691406 28.503906 C 19.902344 29.105469 19.359375 29.339844 19.109375 29.269531 C 18.640625 30.226562 19.265625 30.339844 20.691406 29.253906 L 28.441406 24.789062 L 44.882812 8.351562 C 45.128906 8.105469 45.167969 7.730469 45 7.445312 Z M 45 7.445312 "/>
<path style=" stroke:none;fill-rule:nonzero;fill:rgb(100%,100%,100%);fill-opacity:0.4;" d="M 41.171875 3.140625 C 40.980469 3.140625 40.789062 3.210938 40.640625 3.359375 L 24.199219 19.800781 L 19.699219 27.621094 C 18.953125 28.589844 18.792969 29.179688 19.113281 29.269531 C 19.234375 29.023438 19.425781 28.722656 19.699219 28.371094 L 24.199219 20.550781 L 40.640625 4.109375 C 40.789062 3.960938 40.980469 3.890625 41.171875 3.890625 C 41.363281 3.890625 41.554688 3.960938 41.703125 4.109375 L 42.230469 4.640625 L 44.882812 7.292969 C 44.929688 7.339844 44.96875 7.390625 45 7.445312 C 45.164062 7.15625 45.128906 6.789062 44.882812 6.542969 L 42.230469 3.890625 L 41.703125 3.359375 C 41.554688 3.210938 41.363281 3.140625 41.171875 3.140625 Z M 41.171875 3.140625 "/>
<path style=" stroke:none;fill-rule:nonzero;fill:rgb(38.039216%,38.039216%,38.039216%);fill-opacity:0.996078;" d="M 12.75 10.5 L 29.25 10.5 C 29.664062 10.5 30 10.835938 30 11.25 C 30 11.664062 29.664062 12 29.25 12 L 12.75 12 C 12.335938 12 12 11.664062 12 11.25 C 12 10.835938 12.335938 10.5 12.75 10.5 Z M 12.75 10.5 "/>
<path style=" stroke:none;fill-rule:nonzero;fill:rgb(38.039216%,38.039216%,38.039216%);fill-opacity:1;" d="M 8.25 9 C 9.492188 9 10.5 10.007812 10.5 11.25 C 10.5 12.492188 9.492188 13.5 8.25 13.5 C 7.007812 13.5 6 12.492188 6 11.25 C 6 10.007812 7.007812 9 8.25 9 Z M 8.25 9 "/>
<path style=" stroke:none;fill-rule:nonzero;fill:rgb(38.039216%,38.039216%,38.039216%);fill-opacity:0.4;" d="M 6.007812 11.4375 C 6.003906 11.5 6 11.558594 6 11.621094 C 6 12.867188 7.003906 13.871094 8.25 13.871094 C 9.496094 13.871094 10.5 12.867188 10.5 11.621094 C 10.5 11.558594 10.496094 11.5 10.492188 11.4375 C 10.394531 12.59375 9.433594 13.496094 8.25 13.496094 C 7.066406 13.496094 6.105469 12.59375 6.007812 11.4375 Z M 12.023438 11.4375 C 12.007812 11.496094 12 11.558594 12 11.621094 C 12 12.039062 12.335938 12.371094 12.75 12.371094 L 29.25 12.371094 C 29.664062 12.371094 30 12.039062 30 11.621094 C 30 11.558594 29.992188 11.496094 29.976562 11.4375 C 29.890625 11.761719 29.597656 11.996094 29.25 11.996094 L 12.75 11.996094 C 12.402344 11.996094 12.109375 11.761719 12.023438 11.4375 Z M 12.023438 11.4375 "/>
<path style=" stroke:none;fill-rule:nonzero;fill:rgb(100%,100%,100%);fill-opacity:0.4;" d="M 6.007812 11.429688 C 6.003906 11.371094 6 11.308594 6 11.246094 C 6 10 7.003906 8.996094 8.25 8.996094 C 9.496094 8.996094 10.5 10 10.5 11.246094 C 10.5 11.308594 10.496094 11.371094 10.492188 11.429688 C 10.394531 10.273438 9.433594 9.371094 8.25 9.371094 C 7.066406 9.371094 6.105469 10.273438 6.007812 11.429688 Z M 12.023438 11.429688 C 12.007812 11.371094 12 11.308594 12 11.246094 C 12 10.832031 12.335938 10.496094 12.75 10.496094 L 29.25 10.496094 C 29.664062 10.496094 30 10.832031 30 11.246094 C 30 11.308594 29.992188 11.371094 29.976562 11.429688 C 29.890625 11.109375 29.597656 10.871094 29.25 10.871094 L 12.75 10.871094 C 12.402344 10.871094 12.109375 11.109375 12.023438 11.429688 Z M 12.023438 11.429688 "/>
<path style=" stroke:none;fill-rule:nonzero;fill:url(#linear2);" d="M 6 3 C 4.339844 3 3 4.339844 3 6 L 3 36 C 3 37.660156 4.339844 39 6 39 L 31.5 39 C 33.160156 39 34.5 37.660156 34.5 36 L 34.5 17.984375 L 44.882812 7.605469 C 45.175781 7.308594 45.175781 6.835938 44.882812 6.539062 L 44.351562 6.011719 L 41.699219 3.359375 C 41.554688 3.214844 41.363281 3.140625 41.171875 3.140625 C 40.980469 3.140625 40.789062 3.214844 40.640625 3.359375 L 34.5 9.5 L 34.5 6 C 34.5 4.339844 33.160156 3 31.5 3 Z M 6 3 "/>
<path style=" stroke:none;fill-rule:nonzero;fill:rgb(87.843138%,87.843138%,87.843138%);fill-opacity:1;" d="M 6 39 L 6 45 L 16.5 39 Z M 6 39 "/>
</g>
</svg>
