
<svg xmlns="http://www.w3.org/2000/svg" xmlns:xlink="http://www.w3.org/1999/xlink" width="48" height="48" viewBox="0 0 48 48" version="1.1">
<defs>
<linearGradient id="linear0" gradientUnits="userSpaceOnUse" x1="29.999998" y1="57.999996" x2="29.999998" y2="6" gradientTransform="matrix(0.75,0,0,0.75,0.000000787188,1.500009)">
<stop offset="0" style="stop-color:rgb(0%,0%,0%);stop-opacity:0.2;"/>
<stop offset="1" style="stop-color:rgb(100%,100%,100%);stop-opacity:0;"/>
</linearGradient>
</defs>
<g id="surface1">
<path style=" stroke:none;fill-rule:nonzero;fill:rgb(87.843138%,87.843138%,87.843138%);fill-opacity:1;" d="M 42 39 L 42 45 L 31.5 39 Z M 42 39 "/>
<path style=" stroke:none;fill-rule:nonzero;fill:rgb(38.039216%,38.039216%,38.039216%);fill-opacity:1;" d="M 42 6 L 6 6 C 4.34375 6 3 7.34375 3 9 L 3 36 C 3 37.65625 4.34375 39 6 39 L 42 39 C 43.65625 39 45 37.65625 45 36 L 45 9 C 45 7.34375 43.65625 6 42 6 Z M 42 6 "/>
<path style=" stroke:none;fill-rule:nonzero;fill:rgb(100%,100%,100%);fill-opacity:0.4;" d="M 42 5.988281 C 43.660156 5.988281 45 7.328125 45 8.988281 L 45 9.75 C 45 8.089844 43.660156 6.75 42 6.75 L 6 6.75 C 4.339844 6.75 3 8.089844 3 9.75 L 3 8.988281 C 3 7.328125 4.339844 5.988281 6 5.988281 Z M 42 5.988281 "/>
<path style=" stroke:none;fill-rule:nonzero;fill:rgb(0%,0%,0%);fill-opacity:0.4;" d="M 42 39.011719 C 43.660156 39.011719 45 37.671875 45 36.011719 L 45 35.25 C 45 36.910156 43.660156 38.25 42 38.25 L 6 38.25 C 4.339844 38.25 3 36.910156 3 35.25 L 3 36.011719 C 3 37.671875 4.339844 39.011719 6 39.011719 Z M 42 39.011719 "/>
<path style=" stroke:none;fill-rule:nonzero;fill:rgb(0%,0%,0%);fill-opacity:0.2;" d="M 45 36.023438 L 45 37.113281 C 45 38.773438 43.660156 40.113281 42 40.113281 L 42 39.023438 C 43.660156 39.023438 45 37.683594 45 36.023438 Z M 3 36.023438 C 3 37.683594 4.339844 39.023438 6 39.023438 L 31.5 39.023438 L 42 45.023438 L 42 46.113281 L 31.5 40.113281 L 6 40.113281 C 4.339844 40.113281 3 38.773438 3 37.113281 Z M 3 36.023438 "/>
<path style=" stroke:none;fill-rule:nonzero;fill:rgb(25.882354%,25.882354%,25.882354%);fill-opacity:1;" d="M 42 39 L 42 45 L 31.5 39 Z M 42 39 "/>
<path style=" stroke:none;fill-rule:nonzero;fill:rgb(0%,0%,0%);fill-opacity:0.2;" d="M 42 39 L 42 39.761719 L 32.832031 39.761719 L 31.5 39 Z M 42 39 "/>
<path style=" stroke:none;fill-rule:nonzero;fill:rgb(25.098041%,70.588237%,38.039216%);fill-opacity:1;" d="M 4.5 3 C 3.667969 3 3 3.667969 3 4.5 L 3 22.5 C 3 23.332031 3.667969 24 4.5 24 L 9 24 L 9 9 L 16.5 9 L 16.5 3 Z M 18 3 L 18 24 L 22.5 24 C 23.332031 24 24 23.332031 24 22.5 L 24 4.5 C 24 3.667969 23.332031 3 22.5 3 Z M 10.5 10.5 L 10.5 24 L 16.5 24 L 16.5 10.5 Z M 10.5 10.5 "/>
<path style=" stroke:none;fill-rule:nonzero;fill:rgb(0%,0%,0%);fill-opacity:0.4;" d="M 9 9 L 9 9.75 L 16.5 9.75 L 16.5 9 Z M 3 22.5 L 3 23.25 C 3 24.082031 3.667969 24.75 4.5 24.75 L 9 24.75 L 9 24 L 4.5 24 C 3.667969 24 3 23.332031 3 22.5 Z M 24 22.5 C 24 23.332031 23.332031 24 22.5 24 L 18 24 L 18 24.75 L 22.5 24.75 C 23.332031 24.75 24 24.082031 24 23.25 Z M 10.5 24 L 10.5 24.75 L 16.5 24.75 L 16.5 24 Z M 10.5 24 "/>
<path style=" stroke:none;fill-rule:nonzero;fill:rgb(100%,100%,100%);fill-opacity:0.4;" d="M 4.5 3 C 3.667969 3 3 3.667969 3 4.5 L 3 5.25 C 3 4.417969 3.667969 3.75 4.5 3.75 L 16.5 3.75 L 16.5 3 Z M 18 3 L 18 3.75 L 22.5 3.75 C 23.332031 3.75 24 4.417969 24 5.25 L 24 4.5 C 24 3.667969 23.332031 3 22.5 3 Z M 10.5 10.5 L 10.5 11.25 L 16.5 11.25 L 16.5 10.5 Z M 10.5 10.5 "/>
<path style=" stroke:none;fill-rule:nonzero;fill:url(#linear0);" d="M 4.5 3 C 3.667969 3 3 3.667969 3 4.5 L 3 36 C 3 37.660156 4.339844 39 6 39 L 31.5 39 L 42 45 L 42 39 C 43.660156 39 45 37.660156 45 36 L 45 9 C 45 7.339844 43.660156 6 42 6 L 24 6 L 24 4.5 C 24 3.667969 23.332031 3 22.5 3 L 18 3 L 18 6 L 16.5 6 L 16.5 3 Z M 4.5 3 "/>
</g>
</svg>
