
<svg xmlns="http://www.w3.org/2000/svg" xmlns:xlink="http://www.w3.org/1999/xlink" width="48" height="48" viewBox="0 0 48 48" version="1.1">
<defs>
<linearGradient id="linear0" gradientUnits="userSpaceOnUse" x1="8.466666" y1="-199.125" x2="8.466666" y2="-213.412506" gradientTransform="matrix(2.834646,0,0,2.834646,0,609.448851)">
<stop offset="0" style="stop-color:rgb(0%,0%,0%);stop-opacity:0.2;"/>
<stop offset="1" style="stop-color:rgb(100%,100%,100%);stop-opacity:0;"/>
</linearGradient>
<linearGradient id="linear1" gradientUnits="userSpaceOnUse" x1="12.7" y1="-199.125" x2="12.7" y2="-213.941666" gradientTransform="matrix(2.834646,0,0,2.834646,-12.735351,588.445902)">
<stop offset="0" style="stop-color:rgb(0%,0%,0%);stop-opacity:0.2;"/>
<stop offset="1" style="stop-color:rgb(100%,100%,100%);stop-opacity:0;"/>
</linearGradient>
</defs>
<g id="surface1">
<path style=" stroke:none;fill-rule:nonzero;fill:rgb(38.039216%,38.039216%,38.039216%);fill-opacity:1;" d="M 10.5 3 L 37.5 3 C 39.15625 3 40.5 4.34375 40.5 6 L 40.5 42 C 40.5 43.65625 39.15625 45 37.5 45 L 10.5 45 C 8.84375 45 7.5 43.65625 7.5 42 L 7.5 6 C 7.5 4.34375 8.84375 3 10.5 3 Z M 10.5 3 "/>
<path style=" stroke:none;fill-rule:nonzero;fill:rgb(25.882354%,64.705884%,96.078432%);fill-opacity:0.996078;" d="M 14.25 25.5 L 33.75 25.5 C 34.164062 25.5 34.5 25.835938 34.5 26.25 L 34.5 41.25 C 34.5 41.664062 34.164062 42 33.75 42 L 14.25 42 C 13.835938 42 13.5 41.664062 13.5 41.25 L 13.5 26.25 C 13.5 25.835938 13.835938 25.5 14.25 25.5 Z M 14.25 25.5 "/>
<path style=" stroke:none;fill-rule:nonzero;fill:rgb(0.784314%,0.784314%,0.784314%);fill-opacity:0.4;" d="M 14.25 25.5 C 13.835938 25.5 13.5 25.835938 13.5 26.25 L 13.5 26.625 C 13.5 26.210938 13.835938 25.875 14.25 25.875 L 33.75 25.875 C 34.164062 25.875 34.5 26.210938 34.5 26.625 L 34.5 26.25 C 34.5 25.835938 34.164062 25.5 33.75 25.5 Z M 14.25 25.5 "/>
<path style=" stroke:none;fill-rule:nonzero;fill:rgb(99.607843%,99.607843%,99.607843%);fill-opacity:0.4;" d="M 14.25 42.375 C 13.835938 42.375 13.5 42.039062 13.5 41.625 L 13.5 41.25 C 13.5 41.664062 13.835938 42 14.25 42 L 33.75 42 C 34.164062 42 34.5 41.664062 34.5 41.25 L 34.5 41.625 C 34.5 42.039062 34.164062 42.375 33.75 42.375 Z M 14.25 42.375 "/>
<path style=" stroke:none;fill-rule:nonzero;fill:rgb(25.882354%,64.705884%,96.078432%);fill-opacity:0.996078;" d="M 14.25 6 L 33.75 6 C 34.164062 6 34.5 6.335938 34.5 6.75 L 34.5 21.75 C 34.5 22.164062 34.164062 22.5 33.75 22.5 L 14.25 22.5 C 13.835938 22.5 13.5 22.164062 13.5 21.75 L 13.5 6.75 C 13.5 6.335938 13.835938 6 14.25 6 Z M 14.25 6 "/>
<path style=" stroke:none;fill-rule:nonzero;fill:rgb(0.784314%,0.784314%,0.784314%);fill-opacity:0.4;" d="M 14.25 6 C 13.835938 6 13.5 6.335938 13.5 6.75 L 13.5 7.125 C 13.5 6.710938 13.835938 6.375 14.25 6.375 L 33.75 6.375 C 34.164062 6.375 34.5 6.710938 34.5 7.125 L 34.5 6.75 C 34.5 6.335938 34.164062 6 33.75 6 Z M 14.25 6 "/>
<path style=" stroke:none;fill-rule:nonzero;fill:rgb(99.607843%,99.607843%,99.607843%);fill-opacity:0.4;" d="M 14.25 22.875 C 13.835938 22.875 13.5 22.539062 13.5 22.125 L 13.5 21.75 C 13.5 22.164062 13.835938 22.5 14.25 22.5 L 33.75 22.5 C 34.164062 22.5 34.5 22.164062 34.5 21.75 L 34.5 22.125 C 34.5 22.539062 34.164062 22.875 33.75 22.875 Z M 14.25 22.875 "/>
<path style=" stroke:none;fill-rule:nonzero;fill:rgb(0.392157%,0.392157%,0.392157%);fill-opacity:0.4;" d="M 10.5 45 C 8.839844 45 7.5 43.660156 7.5 42 L 7.5 41.253906 C 7.5 42.917969 8.839844 44.253906 10.5 44.253906 L 37.5 44.253906 C 39.160156 44.253906 40.5 42.917969 40.5 41.253906 L 40.5 42 C 40.5 43.660156 39.160156 45 37.5 45 Z M 10.5 45 "/>
<path style=" stroke:none;fill-rule:nonzero;fill:rgb(0.392157%,0.392157%,0.392157%);fill-opacity:0.2;" d="M 7.5 42 L 7.5 43.121094 C 7.5 44.78125 8.839844 46.121094 10.5 46.121094 L 37.5 46.121094 C 39.160156 46.121094 40.5 44.78125 40.5 43.121094 L 40.5 42 C 40.5 43.660156 39.160156 45 37.5 45 L 10.5 45 C 8.839844 45 7.5 43.660156 7.5 42 Z M 7.5 42 "/>
<path style=" stroke:none;fill-rule:nonzero;fill:rgb(100%,100%,100%);fill-opacity:0.4;" d="M 10.5 3.003906 C 8.839844 3.003906 7.5 4.34375 7.5 6.003906 L 7.5 6.75 C 7.5 5.089844 8.839844 3.75 10.5 3.75 L 37.5 3.75 C 39.160156 3.75 40.5 5.089844 40.5 6.75 L 40.5 6.003906 C 40.5 4.34375 39.160156 3.003906 37.5 3.003906 Z M 10.5 3.003906 "/>
<path style=" stroke:none;fill-rule:nonzero;fill:rgb(0%,0%,0%);fill-opacity:0.4;" d="M 9.75 4.5 L 11.25 4.5 C 11.664062 4.5 12 4.835938 12 5.25 L 12 6.75 C 12 7.164062 11.664062 7.5 11.25 7.5 L 9.75 7.5 C 9.335938 7.5 9 7.164062 9 6.75 L 9 5.25 C 9 4.835938 9.335938 4.5 9.75 4.5 Z M 9.75 4.5 "/>
<path style=" stroke:none;fill-rule:nonzero;fill:rgb(0%,0%,0%);fill-opacity:0.4;" d="M 9.75 4.5 C 9.335938 4.5 9 4.835938 9 5.25 L 9 6 C 9 5.585938 9.335938 5.25 9.75 5.25 L 11.25 5.25 C 11.664062 5.25 12 5.585938 12 6 L 12 5.25 C 12 4.835938 11.664062 4.5 11.25 4.5 Z M 9.75 4.5 "/>
<path style=" stroke:none;fill-rule:nonzero;fill:rgb(99.607843%,99.607843%,99.607843%);fill-opacity:0.4;" d="M 9.75 8.25 C 9.335938 8.25 9 7.914062 9 7.5 L 9 6.75 C 9 7.164062 9.335938 7.5 9.75 7.5 L 11.25 7.5 C 11.664062 7.5 12 7.164062 12 6.75 L 12 7.5 C 12 7.914062 11.664062 8.25 11.25 8.25 Z M 9.75 8.25 "/>
<path style=" stroke:none;fill-rule:nonzero;fill:rgb(0%,0%,0%);fill-opacity:0.4;" d="M 36.75 4.5 L 38.25 4.5 C 38.664062 4.5 39 4.835938 39 5.25 L 39 6.75 C 39 7.164062 38.664062 7.5 38.25 7.5 L 36.75 7.5 C 36.335938 7.5 36 7.164062 36 6.75 L 36 5.25 C 36 4.835938 36.335938 4.5 36.75 4.5 Z M 36.75 4.5 "/>
<path style=" stroke:none;fill-rule:nonzero;fill:rgb(0%,0%,0%);fill-opacity:0.4;" d="M 36.75 4.5 C 36.335938 4.5 36 4.835938 36 5.25 L 36 6 C 36 5.585938 36.335938 5.25 36.75 5.25 L 38.25 5.25 C 38.664062 5.25 39 5.585938 39 6 L 39 5.25 C 39 4.835938 38.664062 4.5 38.25 4.5 Z M 36.75 4.5 "/>
<path style=" stroke:none;fill-rule:nonzero;fill:rgb(99.607843%,99.607843%,99.607843%);fill-opacity:0.4;" d="M 36.75 8.25 C 36.335938 8.25 36 7.914062 36 7.5 L 36 6.75 C 36 7.164062 36.335938 7.5 36.75 7.5 L 38.25 7.5 C 38.664062 7.5 39 7.164062 39 6.75 L 39 7.5 C 39 7.914062 38.664062 8.25 38.25 8.25 Z M 36.75 8.25 "/>
<path style=" stroke:none;fill-rule:nonzero;fill:rgb(0%,0%,0%);fill-opacity:0.4;" d="M 9.75 10.5 L 11.25 10.5 C 11.664062 10.5 12 10.835938 12 11.25 L 12 12.75 C 12 13.164062 11.664062 13.5 11.25 13.5 L 9.75 13.5 C 9.335938 13.5 9 13.164062 9 12.75 L 9 11.25 C 9 10.835938 9.335938 10.5 9.75 10.5 Z M 9.75 10.5 "/>
<path style=" stroke:none;fill-rule:nonzero;fill:rgb(0%,0%,0%);fill-opacity:0.4;" d="M 9.75 10.5 C 9.335938 10.5 9 10.835938 9 11.25 L 9 12 C 9 11.585938 9.335938 11.25 9.75 11.25 L 11.25 11.25 C 11.664062 11.25 12 11.585938 12 12 L 12 11.25 C 12 10.835938 11.664062 10.5 11.25 10.5 Z M 9.75 10.5 "/>
<path style=" stroke:none;fill-rule:nonzero;fill:rgb(99.607843%,99.607843%,99.607843%);fill-opacity:0.4;" d="M 9.75 14.25 C 9.335938 14.25 9 13.914062 9 13.5 L 9 12.75 C 9 13.164062 9.335938 13.5 9.75 13.5 L 11.25 13.5 C 11.664062 13.5 12 13.164062 12 12.75 L 12 13.5 C 12 13.914062 11.664062 14.25 11.25 14.25 Z M 9.75 14.25 "/>
<path style=" stroke:none;fill-rule:nonzero;fill:rgb(0%,0%,0%);fill-opacity:0.4;" d="M 36.75 10.5 L 38.25 10.5 C 38.664062 10.5 39 10.835938 39 11.25 L 39 12.75 C 39 13.164062 38.664062 13.5 38.25 13.5 L 36.75 13.5 C 36.335938 13.5 36 13.164062 36 12.75 L 36 11.25 C 36 10.835938 36.335938 10.5 36.75 10.5 Z M 36.75 10.5 "/>
<path style=" stroke:none;fill-rule:nonzero;fill:rgb(0%,0%,0%);fill-opacity:0.4;" d="M 36.75 10.5 C 36.335938 10.5 36 10.835938 36 11.25 L 36 12 C 36 11.585938 36.335938 11.25 36.75 11.25 L 38.25 11.25 C 38.664062 11.25 39 11.585938 39 12 L 39 11.25 C 39 10.835938 38.664062 10.5 38.25 10.5 Z M 36.75 10.5 "/>
<path style=" stroke:none;fill-rule:nonzero;fill:rgb(99.607843%,99.607843%,99.607843%);fill-opacity:0.4;" d="M 36.75 14.25 C 36.335938 14.25 36 13.914062 36 13.5 L 36 12.75 C 36 13.164062 36.335938 13.5 36.75 13.5 L 38.25 13.5 C 38.664062 13.5 39 13.164062 39 12.75 L 39 13.5 C 39 13.914062 38.664062 14.25 38.25 14.25 Z M 36.75 14.25 "/>
<path style=" stroke:none;fill-rule:nonzero;fill:rgb(0%,0%,0%);fill-opacity:0.4;" d="M 9.75 16.5 L 11.25 16.5 C 11.664062 16.5 12 16.835938 12 17.25 L 12 18.75 C 12 19.164062 11.664062 19.5 11.25 19.5 L 9.75 19.5 C 9.335938 19.5 9 19.164062 9 18.75 L 9 17.25 C 9 16.835938 9.335938 16.5 9.75 16.5 Z M 9.75 16.5 "/>
<path style=" stroke:none;fill-rule:nonzero;fill:rgb(0%,0%,0%);fill-opacity:0.4;" d="M 9.75 16.5 C 9.335938 16.5 9 16.835938 9 17.25 L 9 18 C 9 17.585938 9.335938 17.25 9.75 17.25 L 11.25 17.25 C 11.664062 17.25 12 17.585938 12 18 L 12 17.25 C 12 16.835938 11.664062 16.5 11.25 16.5 Z M 9.75 16.5 "/>
<path style=" stroke:none;fill-rule:nonzero;fill:rgb(99.607843%,99.607843%,99.607843%);fill-opacity:0.4;" d="M 9.75 20.25 C 9.335938 20.25 9 19.914062 9 19.5 L 9 18.75 C 9 19.164062 9.335938 19.5 9.75 19.5 L 11.25 19.5 C 11.664062 19.5 12 19.164062 12 18.75 L 12 19.5 C 12 19.914062 11.664062 20.25 11.25 20.25 Z M 9.75 20.25 "/>
<path style=" stroke:none;fill-rule:nonzero;fill:rgb(0%,0%,0%);fill-opacity:0.4;" d="M 36.75 16.5 L 38.25 16.5 C 38.664062 16.5 39 16.835938 39 17.25 L 39 18.75 C 39 19.164062 38.664062 19.5 38.25 19.5 L 36.75 19.5 C 36.335938 19.5 36 19.164062 36 18.75 L 36 17.25 C 36 16.835938 36.335938 16.5 36.75 16.5 Z M 36.75 16.5 "/>
<path style=" stroke:none;fill-rule:nonzero;fill:rgb(0%,0%,0%);fill-opacity:0.4;" d="M 36.75 16.5 C 36.335938 16.5 36 16.835938 36 17.25 L 36 18 C 36 17.585938 36.335938 17.25 36.75 17.25 L 38.25 17.25 C 38.664062 17.25 39 17.585938 39 18 L 39 17.25 C 39 16.835938 38.664062 16.5 38.25 16.5 Z M 36.75 16.5 "/>
<path style=" stroke:none;fill-rule:nonzero;fill:rgb(99.607843%,99.607843%,99.607843%);fill-opacity:0.4;" d="M 36.75 20.25 C 36.335938 20.25 36 19.914062 36 19.5 L 36 18.75 C 36 19.164062 36.335938 19.5 36.75 19.5 L 38.25 19.5 C 38.664062 19.5 39 19.164062 39 18.75 L 39 19.5 C 39 19.914062 38.664062 20.25 38.25 20.25 Z M 36.75 20.25 "/>
<path style=" stroke:none;fill-rule:nonzero;fill:rgb(0%,0%,0%);fill-opacity:0.4;" d="M 9.75 22.5 L 11.25 22.5 C 11.664062 22.5 12 22.835938 12 23.25 L 12 24.75 C 12 25.164062 11.664062 25.5 11.25 25.5 L 9.75 25.5 C 9.335938 25.5 9 25.164062 9 24.75 L 9 23.25 C 9 22.835938 9.335938 22.5 9.75 22.5 Z M 9.75 22.5 "/>
<path style=" stroke:none;fill-rule:nonzero;fill:rgb(0%,0%,0%);fill-opacity:0.4;" d="M 9.75 22.5 C 9.335938 22.5 9 22.835938 9 23.25 L 9 24 C 9 23.585938 9.335938 23.25 9.75 23.25 L 11.25 23.25 C 11.664062 23.25 12 23.585938 12 24 L 12 23.25 C 12 22.835938 11.664062 22.5 11.25 22.5 Z M 9.75 22.5 "/>
<path style=" stroke:none;fill-rule:nonzero;fill:rgb(99.607843%,99.607843%,99.607843%);fill-opacity:0.4;" d="M 9.75 26.25 C 9.335938 26.25 9 25.914062 9 25.5 L 9 24.75 C 9 25.164062 9.335938 25.5 9.75 25.5 L 11.25 25.5 C 11.664062 25.5 12 25.164062 12 24.75 L 12 25.5 C 12 25.914062 11.664062 26.25 11.25 26.25 Z M 9.75 26.25 "/>
<path style=" stroke:none;fill-rule:nonzero;fill:rgb(0%,0%,0%);fill-opacity:0.4;" d="M 36.75 22.5 L 38.25 22.5 C 38.664062 22.5 39 22.835938 39 23.25 L 39 24.75 C 39 25.164062 38.664062 25.5 38.25 25.5 L 36.75 25.5 C 36.335938 25.5 36 25.164062 36 24.75 L 36 23.25 C 36 22.835938 36.335938 22.5 36.75 22.5 Z M 36.75 22.5 "/>
<path style=" stroke:none;fill-rule:nonzero;fill:rgb(0%,0%,0%);fill-opacity:0.4;" d="M 36.75 22.5 C 36.335938 22.5 36 22.835938 36 23.25 L 36 24 C 36 23.585938 36.335938 23.25 36.75 23.25 L 38.25 23.25 C 38.664062 23.25 39 23.585938 39 24 L 39 23.25 C 39 22.835938 38.664062 22.5 38.25 22.5 Z M 36.75 22.5 "/>
<path style=" stroke:none;fill-rule:nonzero;fill:rgb(99.607843%,99.607843%,99.607843%);fill-opacity:0.4;" d="M 36.75 26.25 C 36.335938 26.25 36 25.914062 36 25.5 L 36 24.75 C 36 25.164062 36.335938 25.5 36.75 25.5 L 38.25 25.5 C 38.664062 25.5 39 25.164062 39 24.75 L 39 25.5 C 39 25.914062 38.664062 26.25 38.25 26.25 Z M 36.75 26.25 "/>
<path style=" stroke:none;fill-rule:nonzero;fill:rgb(0%,0%,0%);fill-opacity:0.4;" d="M 9.75 28.5 L 11.25 28.5 C 11.664062 28.5 12 28.835938 12 29.25 L 12 30.75 C 12 31.164062 11.664062 31.5 11.25 31.5 L 9.75 31.5 C 9.335938 31.5 9 31.164062 9 30.75 L 9 29.25 C 9 28.835938 9.335938 28.5 9.75 28.5 Z M 9.75 28.5 "/>
<path style=" stroke:none;fill-rule:nonzero;fill:rgb(0%,0%,0%);fill-opacity:0.4;" d="M 9.75 28.5 C 9.335938 28.5 9 28.835938 9 29.25 L 9 30 C 9 29.585938 9.335938 29.25 9.75 29.25 L 11.25 29.25 C 11.664062 29.25 12 29.585938 12 30 L 12 29.25 C 12 28.835938 11.664062 28.5 11.25 28.5 Z M 9.75 28.5 "/>
<path style=" stroke:none;fill-rule:nonzero;fill:rgb(99.607843%,99.607843%,99.607843%);fill-opacity:0.4;" d="M 9.75 32.25 C 9.335938 32.25 9 31.914062 9 31.5 L 9 30.75 C 9 31.164062 9.335938 31.5 9.75 31.5 L 11.25 31.5 C 11.664062 31.5 12 31.164062 12 30.75 L 12 31.5 C 12 31.914062 11.664062 32.25 11.25 32.25 Z M 9.75 32.25 "/>
<path style=" stroke:none;fill-rule:nonzero;fill:rgb(0%,0%,0%);fill-opacity:0.4;" d="M 36.75 28.5 L 38.25 28.5 C 38.664062 28.5 39 28.835938 39 29.25 L 39 30.75 C 39 31.164062 38.664062 31.5 38.25 31.5 L 36.75 31.5 C 36.335938 31.5 36 31.164062 36 30.75 L 36 29.25 C 36 28.835938 36.335938 28.5 36.75 28.5 Z M 36.75 28.5 "/>
<path style=" stroke:none;fill-rule:nonzero;fill:rgb(0%,0%,0%);fill-opacity:0.4;" d="M 36.75 28.5 C 36.335938 28.5 36 28.835938 36 29.25 L 36 30 C 36 29.585938 36.335938 29.25 36.75 29.25 L 38.25 29.25 C 38.664062 29.25 39 29.585938 39 30 L 39 29.25 C 39 28.835938 38.664062 28.5 38.25 28.5 Z M 36.75 28.5 "/>
<path style=" stroke:none;fill-rule:nonzero;fill:rgb(99.607843%,99.607843%,99.607843%);fill-opacity:0.4;" d="M 36.75 32.25 C 36.335938 32.25 36 31.914062 36 31.5 L 36 30.75 C 36 31.164062 36.335938 31.5 36.75 31.5 L 38.25 31.5 C 38.664062 31.5 39 31.164062 39 30.75 L 39 31.5 C 39 31.914062 38.664062 32.25 38.25 32.25 Z M 36.75 32.25 "/>
<path style=" stroke:none;fill-rule:nonzero;fill:rgb(0%,0%,0%);fill-opacity:0.4;" d="M 9.75 34.5 L 11.25 34.5 C 11.664062 34.5 12 34.835938 12 35.25 L 12 36.75 C 12 37.164062 11.664062 37.5 11.25 37.5 L 9.75 37.5 C 9.335938 37.5 9 37.164062 9 36.75 L 9 35.25 C 9 34.835938 9.335938 34.5 9.75 34.5 Z M 9.75 34.5 "/>
<path style=" stroke:none;fill-rule:nonzero;fill:rgb(0%,0%,0%);fill-opacity:0.4;" d="M 9.75 34.5 C 9.335938 34.5 9 34.835938 9 35.25 L 9 36 C 9 35.585938 9.335938 35.25 9.75 35.25 L 11.25 35.25 C 11.664062 35.25 12 35.585938 12 36 L 12 35.25 C 12 34.835938 11.664062 34.5 11.25 34.5 Z M 9.75 34.5 "/>
<path style=" stroke:none;fill-rule:nonzero;fill:rgb(99.607843%,99.607843%,99.607843%);fill-opacity:0.4;" d="M 9.75 38.25 C 9.335938 38.25 9 37.914062 9 37.5 L 9 36.75 C 9 37.164062 9.335938 37.5 9.75 37.5 L 11.25 37.5 C 11.664062 37.5 12 37.164062 12 36.75 L 12 37.5 C 12 37.914062 11.664062 38.25 11.25 38.25 Z M 9.75 38.25 "/>
<path style=" stroke:none;fill-rule:nonzero;fill:rgb(0%,0%,0%);fill-opacity:0.4;" d="M 36.75 34.5 L 38.25 34.5 C 38.664062 34.5 39 34.835938 39 35.25 L 39 36.75 C 39 37.164062 38.664062 37.5 38.25 37.5 L 36.75 37.5 C 36.335938 37.5 36 37.164062 36 36.75 L 36 35.25 C 36 34.835938 36.335938 34.5 36.75 34.5 Z M 36.75 34.5 "/>
<path style=" stroke:none;fill-rule:nonzero;fill:rgb(0%,0%,0%);fill-opacity:0.4;" d="M 36.75 34.5 C 36.335938 34.5 36 34.835938 36 35.25 L 36 36 C 36 35.585938 36.335938 35.25 36.75 35.25 L 38.25 35.25 C 38.664062 35.25 39 35.585938 39 36 L 39 35.25 C 39 34.835938 38.664062 34.5 38.25 34.5 Z M 36.75 34.5 "/>
<path style=" stroke:none;fill-rule:nonzero;fill:rgb(99.607843%,99.607843%,99.607843%);fill-opacity:0.4;" d="M 36.75 38.25 C 36.335938 38.25 36 37.914062 36 37.5 L 36 36.75 C 36 37.164062 36.335938 37.5 36.75 37.5 L 38.25 37.5 C 38.664062 37.5 39 37.164062 39 36.75 L 39 37.5 C 39 37.914062 38.664062 38.25 38.25 38.25 Z M 36.75 38.25 "/>
<path style=" stroke:none;fill-rule:nonzero;fill:rgb(0%,0%,0%);fill-opacity:0.4;" d="M 9.75 40.5 L 11.25 40.5 C 11.664062 40.5 12 40.835938 12 41.25 L 12 42.75 C 12 43.164062 11.664062 43.5 11.25 43.5 L 9.75 43.5 C 9.335938 43.5 9 43.164062 9 42.75 L 9 41.25 C 9 40.835938 9.335938 40.5 9.75 40.5 Z M 9.75 40.5 "/>
<path style=" stroke:none;fill-rule:nonzero;fill:rgb(0%,0%,0%);fill-opacity:0.4;" d="M 9.75 40.5 C 9.335938 40.5 9 40.835938 9 41.25 L 9 42 C 9 41.585938 9.335938 41.25 9.75 41.25 L 11.25 41.25 C 11.664062 41.25 12 41.585938 12 42 L 12 41.25 C 12 40.835938 11.664062 40.5 11.25 40.5 Z M 9.75 40.5 "/>
<path style=" stroke:none;fill-rule:nonzero;fill:rgb(99.607843%,99.607843%,99.607843%);fill-opacity:0.4;" d="M 9.75 44.25 C 9.335938 44.25 9 43.914062 9 43.5 L 9 42.75 C 9 43.164062 9.335938 43.5 9.75 43.5 L 11.25 43.5 C 11.664062 43.5 12 43.164062 12 42.75 L 12 43.5 C 12 43.914062 11.664062 44.25 11.25 44.25 Z M 9.75 44.25 "/>
<path style=" stroke:none;fill-rule:nonzero;fill:rgb(0%,0%,0%);fill-opacity:0.4;" d="M 36.75 40.5 L 38.25 40.5 C 38.664062 40.5 39 40.835938 39 41.25 L 39 42.75 C 39 43.164062 38.664062 43.5 38.25 43.5 L 36.75 43.5 C 36.335938 43.5 36 43.164062 36 42.75 L 36 41.25 C 36 40.835938 36.335938 40.5 36.75 40.5 Z M 36.75 40.5 "/>
<path style=" stroke:none;fill-rule:nonzero;fill:rgb(0%,0%,0%);fill-opacity:0.4;" d="M 36.75 40.5 C 36.335938 40.5 36 40.835938 36 41.25 L 36 42 C 36 41.585938 36.335938 41.25 36.75 41.25 L 38.25 41.25 C 38.664062 41.25 39 41.585938 39 42 L 39 41.25 C 39 40.835938 38.664062 40.5 38.25 40.5 Z M 36.75 40.5 "/>
<path style=" stroke:none;fill-rule:nonzero;fill:rgb(99.607843%,99.607843%,99.607843%);fill-opacity:0.4;" d="M 36.75 44.25 C 36.335938 44.25 36 43.914062 36 43.5 L 36 42.75 C 36 43.164062 36.335938 43.5 36.75 43.5 L 38.25 43.5 C 38.664062 43.5 39 43.164062 39 42.75 L 39 43.5 C 39 43.914062 38.664062 44.25 38.25 44.25 Z M 36.75 44.25 "/>
<path style=" stroke:none;fill-rule:nonzero;fill:url(#linear0);" d="M 10.5 3 L 37.5 3 C 39.15625 3 40.5 4.34375 40.5 6 L 40.5 42 C 40.5 43.65625 39.15625 45 37.5 45 L 10.5 45 C 8.84375 45 7.5 43.65625 7.5 42 L 7.5 6 C 7.5 4.34375 8.84375 3 10.5 3 Z M 10.5 3 "/>
<path style=" stroke:none;fill-rule:nonzero;fill:rgb(100%,79.215688%,15.686275%);fill-opacity:1;" d="M 21.003906 2.980469 C 20.171875 2.980469 19.5 3.648438 19.5 4.480469 L 19.5 15.75 L 16.222656 15.75 C 15.785156 15.75 15.578125 16.285156 15.898438 16.578125 L 23.101562 23.636719 C 23.613281 24.105469 24.417969 24.125 24.914062 23.636719 L 32.117188 16.578125 C 32.4375 16.285156 32.230469 15.75 31.792969 15.75 L 28.515625 15.75 L 28.515625 4.480469 C 28.515625 3.648438 27.84375 2.980469 27.011719 2.980469 Z M 21.003906 2.980469 "/>
<path style=" stroke:none;fill-rule:nonzero;fill:rgb(100%,43.921569%,26.274511%);fill-opacity:1;" d="M 27.09375 13.183594 C 24.5625 13.222656 22.03125 16.03125 19.5 13.5 L 19.5 15.75 L 16.222656 15.75 C 15.785156 15.75 15.578125 16.285156 15.898438 16.582031 L 23.101562 23.636719 C 23.613281 24.109375 24.417969 24.125 24.914062 23.636719 L 32.117188 16.582031 C 32.4375 16.285156 32.230469 15.75 31.792969 15.75 L 28.515625 15.75 L 28.515625 13.507812 L 28.5 13.5 C 28.03125 13.265625 27.5625 13.179688 27.09375 13.183594 Z M 27.09375 13.183594 "/>
<path style=" stroke:none;fill-rule:nonzero;fill:rgb(100%,100%,100%);fill-opacity:0.4;" d="M 21.003906 2.980469 C 20.171875 2.980469 19.5 3.648438 19.5 4.484375 L 19.5 5.25 C 19.5 4.417969 20.171875 3.746094 21.003906 3.746094 L 27.011719 3.746094 C 27.84375 3.746094 28.515625 4.417969 28.515625 5.25 L 28.515625 4.484375 C 28.515625 3.648438 27.84375 2.980469 27.011719 2.980469 Z M 16.222656 15.75 C 15.785156 15.75 15.578125 16.285156 15.898438 16.582031 L 15.929688 16.613281 C 16.007812 16.554688 16.109375 16.519531 16.222656 16.519531 L 19.5 16.519531 L 19.5 15.75 Z M 28.515625 15.75 L 28.515625 16.515625 L 31.792969 16.515625 C 31.910156 16.515625 32.003906 16.554688 32.082031 16.613281 L 32.117188 16.582031 C 32.4375 16.285156 32.230469 15.75 31.792969 15.75 Z M 28.515625 15.75 "/>
<path style=" stroke:none;fill-rule:nonzero;fill:rgb(0%,0%,0%);fill-opacity:0.4;" d="M 15.921875 15.855469 C 15.710938 16.027344 15.664062 16.367188 15.898438 16.582031 L 23.101562 23.636719 C 23.613281 24.109375 24.417969 24.125 24.914062 23.636719 L 32.117188 16.582031 C 32.347656 16.367188 32.304688 16.027344 32.09375 15.855469 L 24.914062 22.890625 C 24.417969 23.378906 23.613281 23.363281 23.101562 22.890625 Z M 15.921875 15.855469 "/>
<path style=" stroke:none;fill-rule:nonzero;fill:rgb(0%,0%,0%);fill-opacity:0.2;" d="M 16.203125 16.875 C 15.78125 16.890625 15.582031 17.410156 15.898438 17.703125 L 23.101562 24.761719 C 23.613281 25.230469 24.417969 25.246094 24.914062 24.761719 L 32.117188 17.703125 C 32.433594 17.410156 32.234375 16.890625 31.8125 16.875 L 24.914062 23.636719 C 24.417969 24.121094 23.613281 24.105469 23.101562 23.636719 Z M 16.203125 16.875 "/>
<path style=" stroke:none;fill-rule:nonzero;fill:url(#linear1);" d="M 21.003906 2.980469 C 20.171875 2.980469 19.5 3.648438 19.5 4.480469 L 19.5 15.75 L 16.222656 15.75 C 15.785156 15.75 15.578125 16.285156 15.898438 16.578125 L 23.101562 23.636719 C 23.613281 24.105469 24.417969 24.125 24.914062 23.636719 L 32.117188 16.578125 C 32.4375 16.285156 32.230469 15.75 31.792969 15.75 L 28.515625 15.75 L 28.515625 4.480469 C 28.515625 3.648438 27.84375 2.980469 27.011719 2.980469 Z M 21.003906 2.980469 "/>
</g>
</svg>
