
<svg xmlns="http://www.w3.org/2000/svg" xmlns:xlink="http://www.w3.org/1999/xlink" width="48" height="48" viewBox="0 0 48 48" version="1.1">
<defs>
<linearGradient id="linear0" gradientUnits="userSpaceOnUse" x1="8.466666" y1="-199.125" x2="8.466666" y2="-213.941666" gradientTransform="matrix(2.834646,0,0,2.834646,-0.0000038201,609.448851)">
<stop offset="0" style="stop-color:rgb(0%,0%,0%);stop-opacity:0.2;"/>
<stop offset="1" style="stop-color:rgb(100%,100%,100%);stop-opacity:0;"/>
</linearGradient>
</defs>
<g id="surface1">
<path style=" stroke:none;fill-rule:nonzero;fill:rgb(92.54902%,25.098041%,47.843137%);fill-opacity:1;" d="M 42 45 C 43.660156 45 45 43.660156 45 42 L 45 24 L 24 24 L 24 45 Z M 42 45 "/>
<path style=" stroke:none;fill-rule:nonzero;fill:rgb(100%,65.490198%,14.901961%);fill-opacity:1;" d="M 6 45 C 4.339844 45 3 43.660156 3 42 L 3 24 L 24 24 L 24 45 Z M 6 45 "/>
<path style=" stroke:none;fill-rule:nonzero;fill:rgb(36.078432%,41.960785%,75.294119%);fill-opacity:1;" d="M 42 3 C 43.660156 3 45 4.339844 45 6 L 45 24 L 24 24 L 24 3 Z M 42 3 "/>
<path style=" stroke:none;fill-rule:nonzero;fill:rgb(92.54902%,25.098041%,47.843137%);fill-opacity:1;" d="M 6 3 C 4.339844 3 3 4.339844 3 6 L 3 24 L 24 24 L 24 3 Z M 6 3 "/>
<path style=" stroke:none;fill-rule:nonzero;fill:rgb(38.039216%,38.039216%,38.039216%);fill-opacity:1;" d="M 10.5 9 L 37.5 9 C 38.328125 9 39 9.671875 39 10.5 L 39 37.5 C 39 38.328125 38.328125 39 37.5 39 L 10.5 39 C 9.671875 39 9 38.328125 9 37.5 L 9 10.5 C 9 9.671875 9.671875 9 10.5 9 Z M 10.5 9 "/>
<path style=" stroke:none;fill-rule:nonzero;fill:rgb(100%,100%,100%);fill-opacity:0.4;" d="M 10.5 9 C 9.667969 9 9 9.667969 9 10.5 L 9 11.25 C 9 10.417969 9.667969 9.75 10.5 9.75 L 37.5 9.75 C 38.332031 9.75 39 10.417969 39 11.25 L 39 10.5 C 39 9.667969 38.332031 9 37.5 9 Z M 10.5 9 "/>
<path style=" stroke:none;fill-rule:nonzero;fill:rgb(0.784314%,0.784314%,0.784314%);fill-opacity:0.4;" d="M 10.5 39.75 C 9.667969 39.75 9 39.082031 9 38.25 L 9 37.5 C 9 38.332031 9.667969 39 10.5 39 L 37.5 39 C 38.332031 39 39 38.332031 39 37.5 L 39 38.25 C 39 39.082031 38.332031 39.75 37.5 39.75 Z M 10.5 39.75 "/>
<path style=" stroke:none;fill-rule:nonzero;fill:rgb(100%,100%,100%);fill-opacity:0.4;" d="M 6 3 C 4.339844 3 3 4.339844 3 6 L 3 6.75 C 3 5.089844 4.339844 3.75 6 3.75 L 42 3.75 C 43.660156 3.75 45 5.089844 45 6.75 L 45 6 C 45 4.339844 43.660156 3 42 3 Z M 6 3 "/>
<path style=" stroke:none;fill-rule:nonzero;fill:rgb(0%,0%,0%);fill-opacity:0.4;" d="M 6 45 C 4.339844 45 3 43.660156 3 42 L 3 41.25 C 3 42.910156 4.339844 44.25 6 44.25 L 42 44.25 C 43.660156 44.25 45 42.910156 45 41.25 L 45 42 C 45 43.660156 43.660156 45 42 45 Z M 6 45 "/>
<path style=" stroke:none;fill-rule:nonzero;fill:rgb(0%,0%,0%);fill-opacity:0.2;" d="M 3 42 L 3 43.125 C 3 44.785156 4.339844 46.125 6 46.125 L 42 46.125 C 43.660156 46.125 45 44.785156 45 43.125 L 45 42 C 45 43.660156 43.660156 45 42 45 L 6 45 C 4.339844 45 3 43.660156 3 42 Z M 3 42 "/>
<path style=" stroke:none;fill-rule:nonzero;fill:rgb(93.333334%,93.333334%,93.333334%);fill-opacity:1;" d="M 13.5 16.5 C 13.085938 16.5 12.75 16.835938 12.75 17.25 L 12.75 30.75 C 12.75 31.164062 13.085938 31.5 13.5 31.5 L 15 31.5 C 15.414062 31.5 15.75 31.164062 15.75 30.75 L 15.75 25.5 L 17.300781 25.5 L 20.550781 31.125 C 20.757812 31.484375 21.214844 31.605469 21.574219 31.398438 L 22.875 30.648438 C 23.234375 30.441406 23.355469 29.984375 23.148438 29.625 L 20.550781 25.125 C 22.140625 24.433594 23.25 22.851562 23.25 21 C 23.25 18.507812 21.242188 16.5 18.75 16.5 Z M 15.75 19.5 L 18.75 19.5 C 19.582031 19.5 20.25 20.167969 20.25 21 C 20.25 21.832031 19.582031 22.5 18.75 22.5 L 15.75 22.5 Z M 15.75 19.5 "/>
<path style=" stroke:none;fill-rule:nonzero;fill:rgb(100%,100%,100%);fill-opacity:0.6;" d="M 13.5 16.5 C 13.085938 16.5 12.75 16.835938 12.75 17.25 L 12.75 18 C 12.75 17.585938 13.085938 17.25 13.5 17.25 L 18.75 17.25 C 21.113281 17.25 23.042969 19.054688 23.234375 21.371094 C 23.242188 21.25 23.25 21.125 23.25 21 C 23.25 18.507812 21.242188 16.5 18.75 16.5 Z M 20.203125 21.371094 C 20.039062 22.019531 19.453125 22.5 18.75 22.5 L 15.75 22.5 L 15.75 23.25 L 18.75 23.25 C 19.582031 23.25 20.25 22.582031 20.25 21.75 C 20.25 21.617188 20.234375 21.492188 20.203125 21.371094 Z M 20.886719 25.710938 C 20.777344 25.769531 20.664062 25.828125 20.550781 25.875 L 23.144531 30.371094 C 23.273438 30.148438 23.285156 29.863281 23.148438 29.625 Z M 20.886719 25.710938 "/>
<path style=" stroke:none;fill-rule:nonzero;fill:rgb(0%,0%,0%);fill-opacity:0.4;" d="M 15.75 19.503906 L 15.75 20.25 L 18.75 20.25 C 19.449219 20.25 20.039062 20.726562 20.203125 21.375 C 20.234375 21.257812 20.25 21.132812 20.25 21.003906 C 20.25 20.171875 19.582031 19.503906 18.75 19.503906 Z M 23.234375 21.375 C 23.097656 23.0625 22.035156 24.484375 20.550781 25.128906 L 20.886719 25.710938 C 22.296875 24.953125 23.25 23.46875 23.25 21.75 C 23.25 21.621094 23.242188 21.496094 23.234375 21.375 Z M 15.75 25.503906 L 15.75 26.25 L 17.300781 26.25 L 20.550781 31.875 C 20.757812 32.234375 21.214844 32.355469 21.574219 32.148438 L 22.875 31.398438 C 23.234375 31.191406 23.355469 30.734375 23.148438 30.375 C 23.085938 30.484375 22.992188 30.582031 22.875 30.652344 L 21.574219 31.402344 C 21.214844 31.609375 20.757812 31.484375 20.550781 31.125 L 17.300781 25.503906 Z M 12.75 30.753906 L 12.75 31.5 C 12.75 31.914062 13.085938 32.25 13.5 32.25 L 15 32.25 C 15.414062 32.25 15.75 31.914062 15.75 31.5 L 15.75 30.753906 C 15.75 31.167969 15.414062 31.503906 15 31.503906 L 13.5 31.503906 C 13.085938 31.503906 12.75 31.167969 12.75 30.753906 Z M 12.75 30.753906 "/>
<path style=" stroke:none;fill-rule:nonzero;fill:rgb(93.333334%,93.333334%,93.333334%);fill-opacity:1;" d="M 26.625 16.5 C 26.417969 16.5 26.25 16.667969 26.25 16.875 L 26.25 31.125 C 26.25 31.332031 26.417969 31.5 26.625 31.5 L 30.75 31.5 C 33.242188 31.5 35.25 29.492188 35.25 27 L 35.25 21 C 35.25 18.507812 33.242188 16.5 30.75 16.5 Z M 29.25 19.5 L 30.75 19.5 C 31.582031 19.5 32.25 20.167969 32.25 21 L 32.25 27 C 32.25 27.832031 31.582031 28.5 30.75 28.5 L 29.25 28.5 Z M 29.25 19.5 "/>
<path style=" stroke:none;fill-rule:nonzero;fill:rgb(100%,100%,100%);fill-opacity:0.6;" d="M 26.625 16.5 C 26.417969 16.5 26.25 16.667969 26.25 16.875 L 26.25 17.625 C 26.25 17.417969 26.417969 17.25 26.625 17.25 L 30.75 17.25 C 33.242188 17.25 35.25 19.257812 35.25 21.75 L 35.25 21 C 35.25 18.507812 33.242188 16.5 30.75 16.5 Z M 32.25 27 C 32.25 27.832031 31.582031 28.5 30.75 28.5 L 29.25 28.5 L 29.25 29.25 L 30.75 29.25 C 31.582031 29.25 32.25 28.582031 32.25 27.75 Z M 32.25 27 "/>
<path style=" stroke:none;fill-rule:nonzero;fill:rgb(0%,0%,0%);fill-opacity:0.4;" d="M 29.25 19.5 L 29.25 20.25 L 30.75 20.25 C 31.582031 20.25 32.25 20.921875 32.25 21.75 L 32.25 21 C 32.25 20.171875 31.582031 19.5 30.75 19.5 Z M 35.25 27 C 35.25 29.496094 33.242188 31.5 30.75 31.5 L 26.625 31.5 C 26.417969 31.5 26.25 31.335938 26.25 31.125 L 26.25 31.875 C 26.25 32.085938 26.417969 32.25 26.625 32.25 L 30.75 32.25 C 33.242188 32.25 35.25 30.246094 35.25 27.75 Z M 35.25 27 "/>
<path style=" stroke:none;fill-rule:nonzero;fill:url(#linear0);" d="M 6 3 L 42 3 C 43.65625 3 45 4.34375 45 6 L 45 42 C 45 43.65625 43.65625 45 42 45 L 6 45 C 4.34375 45 3 43.65625 3 42 L 3 6 C 3 4.34375 4.34375 3 6 3 Z M 6 3 "/>
</g>
</svg>
