
<svg xmlns="http://www.w3.org/2000/svg" xmlns:xlink="http://www.w3.org/1999/xlink" width="16" height="16" viewBox="0 0 16 16" version="1.1">
<defs>
<linearGradient id="linear0" gradientUnits="userSpaceOnUse" x1="8.466666" y1="-199.125" x2="8.466666" y2="-213.941666" gradientTransform="matrix(0.944882,0,0,0.944882,-0.00000315715,203.149617)">
<stop offset="0" style="stop-color:rgb(0%,0%,0%);stop-opacity:0.2;"/>
<stop offset="1" style="stop-color:rgb(100%,100%,100%);stop-opacity:0;"/>
</linearGradient>
</defs>
<g id="surface1">
<path style=" stroke:none;fill-rule:nonzero;fill:rgb(38.039216%,38.039216%,38.039216%);fill-opacity:1;" d="M 2 1 L 14 1 C 14.550781 1 15 1.449219 15 2 L 15 14 C 15 14.550781 14.550781 15 14 15 L 2 15 C 1.449219 15 1 14.550781 1 14 L 1 2 C 1 1.449219 1.449219 1 2 1 Z M 2 1 "/>
<path style=" stroke:none;fill-rule:nonzero;fill:rgb(0%,0%,0%);fill-opacity:0.4;" d="M 1 13.75 L 1 14 C 1 14.554688 1.445312 15 2 15 L 14 15 C 14.554688 15 15 14.554688 15 14 L 15 13.75 C 15 14.304688 14.554688 14.75 14 14.75 L 2 14.75 C 1.445312 14.75 1 14.304688 1 13.75 Z M 1 13.75 "/>
<path style=" stroke:none;fill-rule:nonzero;fill:rgb(0%,0%,0%);fill-opacity:0.2;" d="M 1 14 L 1 14.375 C 1 14.929688 1.445312 15.375 2 15.375 L 14 15.375 C 14.554688 15.375 15 14.929688 15 14.375 L 15 14 C 15 14.554688 14.554688 15 14 15 L 2 15 C 1.445312 15 1 14.554688 1 14 Z M 1 14 "/>
<path style=" stroke:none;fill-rule:nonzero;fill:rgb(100%,100%,100%);fill-opacity:0.4;" d="M 2 1 C 1.445312 1 1 1.445312 1 2 L 1 2.246094 C 1 1.691406 1.445312 1.246094 2 1.246094 L 14 1.246094 C 14.554688 1.246094 15 1.691406 15 2.246094 L 15 2 C 15 1.445312 14.554688 1 14 1 Z M 2 1 "/>
<path style=" stroke:none;fill-rule:nonzero;fill:rgb(87.843138%,87.843138%,87.843138%);fill-opacity:1;" d="M 7.75 2 L 8.25 2 C 8.386719 2 8.5 2.113281 8.5 2.25 L 8.5 13.75 C 8.5 13.886719 8.386719 14 8.25 14 L 7.75 14 C 7.613281 14 7.5 13.886719 7.5 13.75 L 7.5 2.25 C 7.5 2.113281 7.613281 2 7.75 2 Z M 7.75 2 "/>
<path style=" stroke:none;fill-rule:nonzero;fill:rgb(40.000001%,73.333335%,41.568628%);fill-opacity:1;" d="M 12 5.5 L 12 7 L 9.5 7 C 9.222656 7 9 7.222656 9 7.5 L 9 8.5 C 9 8.777344 9.222656 9 9.5 9 L 12 9 L 12 10.5 L 14 8 Z M 12 5.5 "/>
<path style=" stroke:none;fill-rule:nonzero;fill:rgb(40.000001%,73.333335%,41.568628%);fill-opacity:1;" d="M 4 5.5 L 4 7 L 6.5 7 C 6.777344 7 7 7.222656 7 7.5 L 7 8.5 C 7 8.777344 6.777344 9 6.5 9 L 4 9 L 4 10.5 L 2 8 Z M 4 5.5 "/>
<path style=" stroke:none;fill-rule:nonzero;fill:rgb(100%,100%,100%);fill-opacity:0.4;" d="M 7.75 2 C 7.613281 2 7.5 2.113281 7.5 2.25 L 7.5 2.5 C 7.5 2.363281 7.613281 2.25 7.75 2.25 L 8.25 2.25 C 8.386719 2.25 8.5 2.363281 8.5 2.5 L 8.5 2.25 C 8.5 2.113281 8.386719 2 8.25 2 Z M 4 5.5 L 2 8 L 2.101562 8.125 L 4 5.75 Z M 12 5.5 L 12 5.75 L 13.898438 8.125 L 14 8 Z M 4 7 L 4 7.25 L 6.5 7.25 C 6.777344 7.25 7 7.472656 7 7.75 L 7 7.5 C 7 7.222656 6.777344 7 6.5 7 Z M 9.5 7 C 9.222656 7 9 7.222656 9 7.5 L 9 7.75 C 9 7.472656 9.222656 7.25 9.5 7.25 L 12 7.25 L 12 7 Z M 9.5 7 "/>
<path style=" stroke:none;fill-rule:nonzero;fill:rgb(0%,0%,0%);fill-opacity:0.4;" d="M 7.75 14.25 C 7.613281 14.25 7.5 14.136719 7.5 14 L 7.5 13.75 C 7.5 13.886719 7.613281 14 7.75 14 L 8.25 14 C 8.386719 14 8.5 13.886719 8.5 13.75 L 8.5 14 C 8.5 14.136719 8.386719 14.25 8.25 14.25 Z M 4 10.75 L 2 8.25 L 2.101562 8.125 L 4 10.5 Z M 12 10.75 L 12 10.5 L 13.898438 8.125 L 14 8.25 Z M 4 9.25 L 4 9 L 6.5 9 C 6.777344 9 7 8.777344 7 8.5 L 7 8.75 C 7 9.027344 6.777344 9.25 6.5 9.25 Z M 9.5 9.25 C 9.222656 9.25 9 9.027344 9 8.75 L 9 8.5 C 9 8.777344 9.222656 9 9.5 9 L 12 9 L 12 9.25 Z M 9.5 9.25 "/>
<path style=" stroke:none;fill-rule:nonzero;fill:url(#linear0);" d="M 2 1 L 14 1 C 14.550781 1 15 1.449219 15 2 L 15 14 C 15 14.550781 14.550781 15 14 15 L 2 15 C 1.449219 15 1 14.550781 1 14 L 1 2 C 1 1.449219 1.449219 1 2 1 Z M 2 1 "/>
</g>
</svg>
