
<svg xmlns="http://www.w3.org/2000/svg" xmlns:xlink="http://www.w3.org/1999/xlink" width="16" height="16" viewBox="0 0 16 16" version="1.1">
<defs>
<linearGradient id="linear0" gradientUnits="userSpaceOnUse" x1="8.466666" y1="-199.125" x2="8.466666" y2="-213.941666" gradientTransform="matrix(0.944882,0,0,0.944882,-0.00000374159,203.149617)">
<stop offset="0" style="stop-color:rgb(0%,0%,0%);stop-opacity:0.2;"/>
<stop offset="1" style="stop-color:rgb(100%,100%,100%);stop-opacity:0;"/>
</linearGradient>
</defs>
<g id="surface1">
<path style=" stroke:none;fill-rule:nonzero;fill:rgb(100%,79.215688%,15.686275%);fill-opacity:1;" d="M 2 1 L 14 1 C 14.550781 1 15 1.449219 15 2 L 15 14 C 15 14.550781 14.550781 15 14 15 L 2 15 C 1.449219 15 1 14.550781 1 14 L 1 2 C 1 1.449219 1.449219 1 2 1 Z M 2 1 "/>
<path style=" stroke:none;fill-rule:nonzero;fill:rgb(0%,0%,0%);fill-opacity:0.4;" d="M 1 13.75 L 1 14 C 1 14.554688 1.445312 15 2 15 L 14 15 C 14.554688 15 15 14.554688 15 14 L 15 13.75 C 15 14.304688 14.554688 14.75 14 14.75 L 2 14.75 C 1.445312 14.75 1 14.304688 1 13.75 Z M 1 13.75 "/>
<path style=" stroke:none;fill-rule:nonzero;fill:rgb(0%,0%,0%);fill-opacity:0.2;" d="M 1 14 L 1 14.375 C 1 14.929688 1.445312 15.375 2 15.375 L 14 15.375 C 14.554688 15.375 15 14.929688 15 14.375 L 15 14 C 15 14.554688 14.554688 15 14 15 L 2 15 C 1.445312 15 1 14.554688 1 14 Z M 1 14 "/>
<path style=" stroke:none;fill-rule:nonzero;fill:rgb(100%,100%,100%);fill-opacity:0.4;" d="M 2 1 C 1.445312 1 1 1.445312 1 2 L 1 2.246094 C 1 1.691406 1.445312 1.246094 2 1.246094 L 14 1.246094 C 14.554688 1.246094 15 1.691406 15 2.246094 L 15 2 C 15 1.445312 14.554688 1 14 1 Z M 2 1 "/>
<path style=" stroke:none;fill-rule:nonzero;fill:rgb(38.039216%,38.039216%,38.039216%);fill-opacity:1;" d="M 5.742188 4 C 4.914062 4 4.242188 4.667969 4.242188 5.5 C 4.242188 6.332031 4.914062 7 5.742188 7 C 6.574219 7 7.242188 6.332031 7.242188 5.5 C 7.242188 4.667969 6.574219 4 5.742188 4 Z M 5.742188 7.5 C 4.082031 7.5 2.742188 7.945312 2.742188 8.5 L 2.742188 11.5 C 2.742188 11.777344 2.96875 12 3.242188 12 C 3.519531 12 3.742188 11.777344 3.742188 11.5 L 3.742188 9.25 C 3.742188 9.113281 3.851562 9.003906 3.988281 9 C 3.988281 9 3.992188 9 3.992188 9 C 4.132812 9 4.242188 9.113281 4.242188 9.25 L 4.242188 11.5 C 4.242188 11.777344 4.46875 12 4.742188 12 L 6.742188 12 C 7.019531 12 7.242188 11.777344 7.242188 11.5 L 7.242188 9.25 C 7.242188 9.113281 7.351562 9.003906 7.488281 9 C 7.488281 9 7.492188 9 7.496094 9 C 7.632812 9 7.746094 9.113281 7.746094 9.25 L 7.746094 11.5 C 7.746094 11.777344 7.96875 12 8.246094 12 C 8.519531 12 8.746094 11.777344 8.746094 11.5 L 8.746094 8.5 C 8.746094 7.945312 7.40625 7.5 5.746094 7.5 Z M 5.742188 7.5 "/>
<path style=" stroke:none;fill-rule:nonzero;fill:rgb(38.039216%,38.039216%,38.039216%);fill-opacity:1;" d="M 11.242188 7 C 10.726562 7 10.304688 7.417969 10.304688 7.9375 C 10.304688 8.457031 10.726562 8.875 11.242188 8.875 C 11.761719 8.875 12.179688 8.457031 12.179688 7.9375 C 12.179688 7.417969 11.761719 7 11.242188 7 Z M 11.242188 9.1875 C 10.207031 9.1875 9.367188 9.464844 9.367188 9.8125 L 9.367188 11.6875 C 9.367188 11.859375 9.507812 12 9.679688 12 C 9.855469 12 9.992188 11.859375 9.992188 11.6875 L 9.992188 10.28125 C 9.992188 10.195312 10.0625 10.128906 10.144531 10.125 C 10.148438 10.125 10.148438 10.125 10.148438 10.125 C 10.238281 10.125 10.304688 10.195312 10.304688 10.28125 L 10.304688 11.6875 C 10.304688 11.859375 10.445312 12 10.617188 12 L 11.867188 12 C 12.042969 12 12.179688 11.859375 12.179688 11.6875 L 12.179688 10.28125 C 12.179688 10.195312 12.25 10.128906 12.332031 10.125 C 12.335938 10.125 12.335938 10.125 12.335938 10.125 C 12.425781 10.125 12.492188 10.195312 12.492188 10.28125 L 12.492188 11.6875 C 12.492188 11.859375 12.632812 12 12.804688 12 C 12.980469 12 13.117188 11.859375 13.117188 11.6875 L 13.117188 9.8125 C 13.117188 9.464844 12.28125 9.1875 11.242188 9.1875 Z M 11.242188 9.1875 "/>
<path style=" stroke:none;fill-rule:nonzero;fill:rgb(100%,100%,100%);fill-opacity:0.4;" d="M 5.742188 4 C 4.914062 4 4.242188 4.667969 4.242188 5.5 C 4.242188 5.539062 4.246094 5.578125 4.25 5.617188 C 4.316406 4.851562 4.957031 4.25 5.742188 4.25 C 6.53125 4.25 7.171875 4.851562 7.238281 5.617188 C 7.242188 5.578125 7.242188 5.539062 7.242188 5.5 C 7.242188 4.667969 6.574219 4 5.742188 4 Z M 11.242188 7 C 10.726562 7 10.304688 7.417969 10.304688 7.9375 C 10.304688 7.980469 10.308594 8.019531 10.316406 8.058594 C 10.378906 7.601562 10.769531 7.25 11.242188 7.25 C 11.71875 7.25 12.109375 7.601562 12.171875 8.058594 C 12.179688 8.019531 12.179688 7.980469 12.179688 7.9375 C 12.179688 7.417969 11.761719 7 11.242188 7 Z M 5.742188 7.5 C 4.082031 7.5 2.742188 7.945312 2.742188 8.5 L 2.742188 8.75 C 2.742188 8.195312 4.082031 7.75 5.742188 7.75 C 7.40625 7.75 8.742188 8.195312 8.742188 8.75 L 8.742188 8.5 C 8.742188 7.945312 7.40625 7.5 5.742188 7.5 Z M 11.242188 9.1875 C 10.207031 9.1875 9.367188 9.464844 9.367188 9.8125 L 9.367188 10.0625 C 9.367188 9.714844 10.207031 9.4375 11.242188 9.4375 C 12.28125 9.4375 13.117188 9.714844 13.117188 10.0625 L 13.117188 9.8125 C 13.117188 9.464844 12.28125 9.1875 11.242188 9.1875 Z M 11.242188 9.1875 "/>
<path style=" stroke:none;fill-rule:nonzero;fill:rgb(0%,0%,0%);fill-opacity:0.4;" d="M 4.25 5.625 C 4.246094 5.667969 4.242188 5.710938 4.242188 5.753906 C 4.242188 6.585938 4.914062 7.253906 5.742188 7.253906 C 6.574219 7.253906 7.242188 6.585938 7.242188 5.753906 C 7.242188 5.710938 7.242188 5.667969 7.238281 5.625 C 7.175781 6.398438 6.53125 7 5.742188 7 C 4.957031 7 4.3125 6.398438 4.25 5.625 Z M 3.988281 9 C 3.851562 9.003906 3.742188 9.113281 3.742188 9.25 L 3.742188 9.5 C 3.746094 9.367188 3.855469 9.257812 3.988281 9.253906 C 3.988281 9.253906 3.992188 9.253906 3.992188 9.253906 C 4.132812 9.253906 4.242188 9.363281 4.242188 9.5 L 4.242188 9.25 C 4.242188 9.113281 4.132812 9 3.992188 9 C 3.992188 9 3.988281 9 3.988281 9 Z M 7.488281 9 C 7.351562 9.003906 7.242188 9.113281 7.242188 9.25 L 7.242188 9.5 C 7.246094 9.367188 7.355469 9.257812 7.488281 9.253906 C 7.488281 9.253906 7.492188 9.253906 7.492188 9.253906 C 7.632812 9.253906 7.742188 9.363281 7.742188 9.5 L 7.742188 9.25 C 7.742188 9.113281 7.632812 9 7.492188 9 C 7.492188 9 7.488281 9 7.488281 9 Z M 2.742188 11.5 L 2.742188 11.753906 C 2.742188 12.03125 2.96875 12.253906 3.242188 12.253906 C 3.519531 12.253906 3.742188 12.03125 3.742188 11.753906 L 3.742188 11.5 C 3.742188 11.777344 3.519531 12 3.242188 12 C 2.96875 12 2.742188 11.777344 2.742188 11.5 Z M 4.242188 11.5 L 4.242188 11.753906 C 4.242188 12.03125 4.46875 12.253906 4.742188 12.253906 L 6.742188 12.253906 C 7.019531 12.253906 7.242188 12.03125 7.242188 11.753906 L 7.242188 11.5 C 7.242188 11.777344 7.019531 12 6.742188 12 L 4.742188 12 C 4.46875 12 4.242188 11.777344 4.242188 11.5 Z M 7.742188 11.5 L 7.742188 11.753906 C 7.742188 12.03125 7.96875 12.253906 8.242188 12.253906 C 8.519531 12.253906 8.742188 12.03125 8.742188 11.753906 L 8.742188 11.5 C 8.742188 11.777344 8.519531 12 8.242188 12 C 7.96875 12 7.742188 11.777344 7.742188 11.5 Z M 7.742188 11.5 "/>
<path style=" stroke:none;fill-rule:nonzero;fill:rgb(0%,0%,0%);fill-opacity:0.4;" d="M 10.316406 8.066406 C 10.308594 8.109375 10.308594 8.15625 10.308594 8.199219 C 10.308594 8.71875 10.726562 9.136719 11.246094 9.136719 C 11.761719 9.136719 12.183594 8.71875 12.183594 8.199219 C 12.183594 8.15625 12.179688 8.109375 12.171875 8.066406 C 12.109375 8.523438 11.71875 8.875 11.246094 8.875 C 10.769531 8.875 10.378906 8.523438 10.316406 8.066406 Z M 10.144531 10.125 C 10.0625 10.125 9.992188 10.195312 9.992188 10.28125 L 9.992188 10.542969 C 9.992188 10.457031 10.0625 10.390625 10.144531 10.386719 C 10.148438 10.386719 10.148438 10.386719 10.148438 10.386719 C 10.238281 10.386719 10.304688 10.457031 10.304688 10.542969 L 10.304688 10.28125 C 10.304688 10.195312 10.238281 10.125 10.148438 10.125 C 10.148438 10.125 10.148438 10.125 10.144531 10.125 Z M 12.332031 10.125 C 12.25 10.125 12.179688 10.195312 12.179688 10.28125 L 12.179688 10.542969 C 12.179688 10.457031 12.25 10.390625 12.332031 10.386719 C 12.335938 10.386719 12.335938 10.386719 12.335938 10.386719 C 12.425781 10.386719 12.492188 10.457031 12.492188 10.542969 L 12.492188 10.28125 C 12.492188 10.195312 12.425781 10.125 12.335938 10.125 C 12.335938 10.125 12.335938 10.125 12.332031 10.125 Z M 9.367188 11.6875 L 9.367188 11.949219 C 9.367188 12.121094 9.507812 12.261719 9.679688 12.261719 C 9.855469 12.261719 9.992188 12.121094 9.992188 11.949219 L 9.992188 11.6875 C 9.992188 11.859375 9.855469 12 9.679688 12 C 9.507812 12 9.367188 11.859375 9.367188 11.6875 Z M 10.304688 11.6875 L 10.304688 11.949219 C 10.304688 12.121094 10.445312 12.261719 10.617188 12.261719 L 11.867188 12.261719 C 12.042969 12.261719 12.179688 12.121094 12.179688 11.949219 L 12.179688 11.6875 C 12.179688 11.859375 12.042969 12 11.867188 12 L 10.617188 12 C 10.445312 12 10.304688 11.859375 10.304688 11.6875 Z M 12.492188 11.6875 L 12.492188 11.949219 C 12.492188 12.121094 12.632812 12.261719 12.804688 12.261719 C 12.980469 12.261719 13.117188 12.121094 13.117188 11.949219 L 13.117188 11.6875 C 13.117188 11.859375 12.980469 12 12.804688 12 C 12.632812 12 12.492188 11.859375 12.492188 11.6875 Z M 12.492188 11.6875 "/>
<path style=" stroke:none;fill-rule:nonzero;fill:url(#linear0);" d="M 2 1 L 14 1 C 14.550781 1 15 1.449219 15 2 L 15 14 C 15 14.550781 14.550781 15 14 15 L 2 15 C 1.449219 15 1 14.550781 1 14 L 1 2 C 1 1.449219 1.449219 1 2 1 Z M 2 1 "/>
</g>
</svg>
