
<svg xmlns="http://www.w3.org/2000/svg" xmlns:xlink="http://www.w3.org/1999/xlink" width="16" height="16" viewBox="0 0 16 16" version="1.1">
<defs>
<linearGradient id="linear0" gradientUnits="userSpaceOnUse" x1="8.466666" y1="-199.125" x2="8.466666" y2="-213.941666" gradientTransform="matrix(0.944882,0,0,0.944882,0,203.149617)">
<stop offset="0" style="stop-color:rgb(0%,0%,0%);stop-opacity:0.2;"/>
<stop offset="1" style="stop-color:rgb(100%,100%,100%);stop-opacity:0;"/>
</linearGradient>
</defs>
<g id="surface1">
<path style=" stroke:none;fill-rule:nonzero;fill:rgb(95.686275%,26.274511%,21.176471%);fill-opacity:1;" d="M 3.5 1 L 12.5 1 C 13.050781 1 13.5 1.449219 13.5 2 L 13.5 14 C 13.5 14.550781 13.050781 15 12.5 15 L 3.5 15 C 2.949219 15 2.5 14.550781 2.5 14 L 2.5 2 C 2.5 1.449219 2.949219 1 3.5 1 Z M 3.5 1 "/>
<path style=" stroke:none;fill-rule:nonzero;fill:rgb(93.333334%,93.333334%,93.333334%);fill-opacity:1;" d="M 3.5 1 C 3.492188 1 3.484375 1 3.476562 1 C 4.511719 3.617188 3.882812 4.292969 4.457031 5.292969 C 5.011719 6.253906 6.230469 6.578125 7.1875 6.023438 C 8.148438 5.46875 8.476562 4.253906 7.921875 3.292969 C 7.414062 2.414062 6.65625 2.46875 5.296875 1 Z M 13.5 2.925781 C 11.226562 3.738281 10.570312 3.207031 9.628906 3.75 C 8.667969 4.304688 8.34375 5.523438 8.898438 6.480469 C 9.449219 7.441406 10.667969 7.769531 11.628906 7.214844 C 12.414062 6.761719 12.453125 6.109375 13.5 5.003906 Z M 4.945312 6.730469 C 4.625 6.738281 4.300781 6.828125 4 7 C 3.320312 7.390625 3.199219 7.933594 2.5 8.789062 L 2.5 11.160156 C 4.476562 10.53125 5.109375 10.976562 6 10.464844 C 6.960938 9.910156 7.285156 8.691406 6.730469 7.730469 C 6.351562 7.070312 5.65625 6.710938 4.945312 6.730469 Z M 9.386719 7.921875 C 9.066406 7.929688 8.738281 8.015625 8.4375 8.1875 C 7.480469 8.742188 7.152344 9.960938 7.707031 10.921875 C 8.363281 12.058594 9.445312 11.625 11.722656 15 L 12.5 15 C 12.65625 15 12.800781 14.964844 12.929688 14.902344 C 10.835938 10.835938 11.855469 10.105469 11.171875 8.921875 C 10.789062 8.261719 10.09375 7.902344 9.386719 7.921875 Z M 9.386719 7.921875 "/>
<path style=" stroke:none;fill-rule:nonzero;fill:rgb(0.784314%,0.784314%,0.784314%);fill-opacity:0.4;" d="M 3.5 14.996094 C 2.945312 14.996094 2.5 14.550781 2.5 13.996094 L 2.5 13.75 C 2.5 14.304688 2.945312 14.75 3.5 14.75 L 12.5 14.75 C 13.054688 14.75 13.5 14.304688 13.5 13.75 L 13.5 13.996094 C 13.5 14.550781 13.054688 14.996094 12.5 14.996094 Z M 3.5 14.996094 "/>
<path style=" stroke:none;fill-rule:nonzero;fill:rgb(0%,0%,0%);fill-opacity:0.2;" d="M 2.5 14 L 2.5 14.375 C 2.5 14.929688 2.945312 15.375 3.5 15.375 L 12.5 15.375 C 13.054688 15.375 13.5 14.929688 13.5 14.375 L 13.5 14 C 13.5 14.554688 13.054688 15 12.5 15 L 3.5 15 C 2.945312 15 2.5 14.554688 2.5 14 Z M 2.5 14 "/>
<path style=" stroke:none;fill-rule:nonzero;fill:rgb(0%,0%,0%);fill-opacity:0.4;" d="M 3.5 1 C 3.492188 1 3.484375 1 3.476562 1 C 3.511719 1.085938 3.539062 1.167969 3.570312 1.25 L 5.296875 1.25 C 6.65625 2.71875 7.414062 2.664062 7.921875 3.542969 C 8.082031 3.816406 8.167969 4.117188 8.1875 4.414062 C 8.210938 4.035156 8.125 3.644531 7.921875 3.292969 C 7.414062 2.414062 6.65625 2.46875 5.296875 1 Z M 13.5 2.925781 C 11.226562 3.738281 10.570312 3.207031 9.628906 3.75 C 8.953125 4.140625 8.589844 4.863281 8.632812 5.59375 C 8.675781 4.953125 9.03125 4.347656 9.628906 4 C 10.570312 3.457031 11.226562 3.988281 13.5 3.175781 Z M 4.945312 6.730469 C 4.625 6.738281 4.300781 6.828125 4 7 C 3.320312 7.390625 3.199219 7.933594 2.5 8.789062 L 2.5 9.039062 C 3.199219 8.183594 3.320312 7.640625 4 7.25 C 4.300781 7.078125 4.625 6.988281 4.945312 6.980469 C 5.65625 6.960938 6.351562 7.320312 6.730469 7.980469 C 6.890625 8.257812 6.976562 8.554688 6.996094 8.851562 C 7.019531 8.472656 6.9375 8.085938 6.730469 7.730469 C 6.351562 7.070312 5.65625 6.710938 4.945312 6.730469 Z M 9.386719 7.921875 C 9.066406 7.929688 8.738281 8.015625 8.4375 8.1875 C 7.761719 8.582031 7.402344 9.300781 7.441406 10.03125 C 7.488281 9.390625 7.839844 8.785156 8.4375 8.4375 C 8.738281 8.265625 9.066406 8.179688 9.386719 8.171875 C 10.09375 8.152344 10.789062 8.511719 11.171875 9.171875 C 11.84375 10.335938 10.875 11.0625 12.828125 14.945312 C 12.863281 14.933594 12.898438 14.917969 12.929688 14.902344 C 10.835938 10.835938 11.855469 10.105469 11.171875 8.921875 C 10.789062 8.261719 10.09375 7.902344 9.386719 7.921875 Z M 9.386719 7.921875 "/>
<path style=" stroke:none;fill-rule:nonzero;fill:rgb(100%,100%,100%);fill-opacity:0.4;" d="M 3.5 1.246094 C 3.492188 1.246094 3.484375 1.246094 3.476562 1.246094 C 4.511719 3.863281 3.882812 4.539062 4.457031 5.539062 C 5.011719 6.5 6.230469 6.824219 7.1875 6.269531 C 7.871094 5.875 8.234375 5.144531 8.1875 4.414062 C 8.144531 5.058594 7.792969 5.667969 7.1875 6.019531 C 6.230469 6.574219 5.011719 6.246094 4.457031 5.285156 C 3.898438 4.320312 4.472656 3.65625 3.570312 1.246094 Z M 13.5 5 C 12.453125 6.101562 12.414062 6.753906 11.628906 7.207031 C 10.667969 7.761719 9.449219 7.4375 8.898438 6.476562 C 8.738281 6.199219 8.652344 5.902344 8.632812 5.601562 C 8.609375 5.984375 8.691406 6.375 8.898438 6.726562 C 9.449219 7.6875 10.667969 8.015625 11.628906 7.460938 C 12.414062 7.007812 12.453125 6.355469 13.5 5.25 Z M 6.996094 8.851562 C 6.957031 9.496094 6.605469 10.109375 6 10.457031 C 5.109375 10.972656 4.476562 10.527344 2.5 11.15625 L 2.5 11.40625 C 4.476562 10.777344 5.109375 11.222656 6 10.710938 C 6.683594 10.316406 7.042969 9.585938 6.996094 8.851562 Z M 7.441406 10.042969 C 7.417969 10.421875 7.503906 10.8125 7.707031 11.167969 C 8.347656 12.277344 9.390625 11.902344 11.546875 15 L 12.5 15 C 12.613281 15 12.726562 14.980469 12.828125 14.945312 C 12.828125 14.945312 12.824219 14.941406 12.824219 14.941406 C 12.722656 14.976562 12.613281 14.996094 12.5 14.992188 L 11.722656 14.992188 C 9.445312 11.621094 8.363281 12.054688 7.707031 10.914062 C 7.546875 10.640625 7.460938 10.339844 7.441406 10.042969 Z M 7.441406 10.042969 "/>
<path style=" stroke:none;fill-rule:nonzero;fill:rgb(99.607843%,99.607843%,99.607843%);fill-opacity:0.4;" d="M 3.5 1 C 2.945312 1 2.5 1.445312 2.5 2 L 2.5 2.246094 C 2.5 1.691406 2.945312 1.246094 3.5 1.246094 L 12.5 1.246094 C 13.054688 1.246094 13.5 1.691406 13.5 2.246094 L 13.5 2 C 13.5 1.445312 13.054688 1 12.5 1 Z M 3.5 1 "/>
<path style=" stroke:none;fill-rule:nonzero;fill:url(#linear0);" d="M 3.5 1 L 12.5 1 C 13.050781 1 13.5 1.449219 13.5 2 L 13.5 14 C 13.5 14.550781 13.050781 15 12.5 15 L 3.5 15 C 2.949219 15 2.5 14.550781 2.5 14 L 2.5 2 C 2.5 1.449219 2.949219 1 3.5 1 Z M 3.5 1 "/>
</g>
</svg>
