
<svg xmlns="http://www.w3.org/2000/svg" xmlns:xlink="http://www.w3.org/1999/xlink" width="16" height="16" viewBox="0 0 16 16" version="1.1">
<defs>
<linearGradient id="linear0" gradientUnits="userSpaceOnUse" x1="10.054166" y1="-199.125" x2="10.054166" y2="-213.941666" gradientTransform="matrix(0.944882,0,0,0.944882,0,203.149617)">
<stop offset="0" style="stop-color:rgb(0%,0%,0%);stop-opacity:0.2;"/>
<stop offset="1" style="stop-color:rgb(100%,100%,100%);stop-opacity:0;"/>
</linearGradient>
</defs>
<g id="surface1">
<path style=" stroke:none;fill-rule:nonzero;fill:rgb(38.039216%,38.039216%,38.039216%);fill-opacity:1;" d="M 2 1 L 14 1 C 14.550781 1 15 1.449219 15 2 L 15 14 C 15 14.550781 14.550781 15 14 15 L 2 15 C 1.449219 15 1 14.550781 1 14 L 1 2 C 1 1.449219 1.449219 1 2 1 Z M 2 1 "/>
<path style=" stroke:none;fill-rule:nonzero;fill:rgb(0%,0%,0%);fill-opacity:0.4;" d="M 1 13.75 L 1 14 C 1 14.554688 1.445312 15 2 15 L 14 15 C 14.554688 15 15 14.554688 15 14 L 15 13.75 C 15 14.304688 14.554688 14.75 14 14.75 L 2 14.75 C 1.445312 14.75 1 14.304688 1 13.75 Z M 1 13.75 "/>
<path style=" stroke:none;fill-rule:nonzero;fill:rgb(0%,0%,0%);fill-opacity:0.2;" d="M 1 14 L 1 14.375 C 1 14.929688 1.445312 15.375 2 15.375 L 14 15.375 C 14.554688 15.375 15 14.929688 15 14.375 L 15 14 C 15 14.554688 14.554688 15 14 15 L 2 15 C 1.445312 15 1 14.554688 1 14 Z M 1 14 "/>
<path style=" stroke:none;fill-rule:nonzero;fill:rgb(100%,100%,100%);fill-opacity:0.4;" d="M 2 1 C 1.445312 1 1 1.445312 1 2 L 1 2.246094 C 1 1.691406 1.445312 1.246094 2 1.246094 L 14 1.246094 C 14.554688 1.246094 15 1.691406 15 2.246094 L 15 2 C 15 1.445312 14.554688 1 14 1 Z M 2 1 "/>
<path style=" stroke:none;fill-rule:nonzero;fill:rgb(87.843138%,87.843138%,87.843138%);fill-opacity:1;" d="M 11.589844 9.03125 C 11.429688 9.035156 11.269531 9.050781 11.113281 9.085938 L 10.949219 9.917969 C 10.808594 9.972656 10.679688 10.050781 10.5625 10.136719 L 9.757812 9.867188 C 9.648438 9.992188 9.546875 10.128906 9.460938 10.28125 C 9.371094 10.433594 9.300781 10.589844 9.25 10.75 L 9.886719 11.3125 C 9.878906 11.382812 9.875 11.457031 9.875 11.53125 C 9.875 11.605469 9.878906 11.679688 9.886719 11.753906 L 9.25 12.316406 C 9.300781 12.472656 9.371094 12.628906 9.460938 12.78125 C 9.546875 12.933594 9.648438 13.074219 9.757812 13.199219 L 10.5625 12.925781 C 10.679688 13.015625 10.808594 13.089844 10.949219 13.148438 L 11.113281 13.980469 C 11.277344 14.015625 11.449219 14.03125 11.625 14.03125 C 11.800781 14.03125 11.96875 14.015625 12.132812 13.980469 L 12.300781 13.148438 C 12.4375 13.089844 12.566406 13.015625 12.683594 12.925781 L 13.488281 13.199219 C 13.601562 13.074219 13.703125 12.933594 13.789062 12.78125 C 13.878906 12.628906 13.945312 12.472656 14 12.316406 L 13.359375 11.753906 C 13.371094 11.679688 13.375 11.605469 13.375 11.53125 C 13.375 11.457031 13.371094 11.382812 13.359375 11.3125 L 14 10.75 C 13.945312 10.589844 13.878906 10.433594 13.789062 10.28125 C 13.703125 10.128906 13.601562 9.992188 13.488281 9.867188 L 12.683594 10.136719 C 12.566406 10.050781 12.4375 9.972656 12.300781 9.917969 L 12.132812 9.085938 C 11.96875 9.050781 11.800781 9.03125 11.625 9.03125 C 11.613281 9.03125 11.601562 9.03125 11.589844 9.03125 Z M 11.625 10.53125 C 12.179688 10.53125 12.625 10.976562 12.625 11.53125 C 12.625 12.085938 12.179688 12.53125 11.625 12.53125 C 11.070312 12.53125 10.625 12.085938 10.625 11.53125 C 10.625 10.976562 11.070312 10.53125 11.625 10.53125 Z M 11.625 10.53125 "/>
<path style=" stroke:none;fill-rule:nonzero;fill:rgb(100%,100%,100%);fill-opacity:0.8;" d="M 11.589844 9.03125 C 11.429688 9.035156 11.269531 9.050781 11.113281 9.082031 L 10.949219 9.917969 C 10.808594 9.972656 10.679688 10.050781 10.5625 10.136719 L 9.757812 9.867188 C 9.648438 9.992188 9.546875 10.128906 9.460938 10.28125 C 9.371094 10.433594 9.300781 10.589844 9.25 10.75 L 9.304688 10.796875 C 9.347656 10.691406 9.398438 10.585938 9.460938 10.480469 C 9.546875 10.328125 9.648438 10.191406 9.757812 10.0625 L 10.5625 10.335938 C 10.679688 10.246094 10.808594 10.171875 10.949219 10.113281 L 11.113281 9.28125 C 11.269531 9.25 11.429688 9.230469 11.589844 9.230469 C 11.601562 9.230469 11.613281 9.230469 11.625 9.230469 C 11.800781 9.230469 11.96875 9.25 12.132812 9.28125 L 12.300781 10.113281 C 12.4375 10.171875 12.566406 10.246094 12.683594 10.335938 L 13.488281 10.0625 C 13.601562 10.191406 13.703125 10.328125 13.789062 10.480469 C 13.847656 10.585938 13.902344 10.691406 13.945312 10.796875 L 14 10.75 C 13.945312 10.589844 13.878906 10.433594 13.789062 10.28125 C 13.703125 10.128906 13.601562 9.992188 13.488281 9.867188 L 12.683594 10.136719 C 12.566406 10.050781 12.4375 9.972656 12.300781 9.917969 L 12.132812 9.082031 C 11.96875 9.050781 11.800781 9.03125 11.625 9.03125 C 11.613281 9.03125 11.601562 9.03125 11.589844 9.03125 Z M 9.875 11.496094 C 9.875 11.507812 9.875 11.519531 9.875 11.53125 C 9.875 11.566406 9.875 11.597656 9.878906 11.632812 C 9.878906 11.589844 9.882812 11.550781 9.886719 11.507812 Z M 13.375 11.496094 L 13.359375 11.507812 C 13.367188 11.550781 13.371094 11.589844 13.371094 11.632812 C 13.375 11.597656 13.375 11.566406 13.375 11.53125 C 13.375 11.519531 13.375 11.507812 13.375 11.496094 Z M 10.628906 11.632812 C 10.625 11.664062 10.625 11.695312 10.625 11.730469 C 10.625 12.285156 11.070312 12.730469 11.625 12.730469 C 12.179688 12.730469 12.625 12.285156 12.625 11.730469 C 12.625 11.695312 12.621094 11.664062 12.621094 11.632812 C 12.570312 12.136719 12.144531 12.53125 11.625 12.53125 C 11.105469 12.53125 10.679688 12.136719 10.628906 11.632812 Z M 9.875 11.765625 L 9.25 12.3125 C 9.265625 12.363281 9.285156 12.414062 9.304688 12.464844 L 9.886719 11.949219 C 9.878906 11.890625 9.875 11.828125 9.875 11.765625 Z M 13.375 11.765625 C 13.371094 11.828125 13.367188 11.890625 13.359375 11.949219 L 13.945312 12.464844 C 13.964844 12.414062 13.984375 12.363281 14 12.3125 Z M 13.375 11.765625 "/>
<path style=" stroke:none;fill-rule:nonzero;fill:rgb(0%,0%,0%);fill-opacity:0.4;" d="M 11.625 10.53125 C 11.070312 10.53125 10.625 10.976562 10.625 11.53125 C 10.625 11.566406 10.625 11.601562 10.628906 11.636719 C 10.683594 11.132812 11.105469 10.742188 11.625 10.742188 C 12.144531 10.742188 12.566406 11.132812 12.617188 11.636719 C 12.621094 11.601562 12.625 11.566406 12.625 11.53125 C 12.625 10.976562 12.179688 10.53125 11.625 10.53125 Z M 9.308594 10.800781 C 9.285156 10.855469 9.265625 10.90625 9.25 10.957031 L 9.875 11.507812 C 9.875 11.441406 9.878906 11.375 9.886719 11.3125 Z M 13.941406 10.800781 L 13.359375 11.3125 C 13.367188 11.375 13.375 11.441406 13.375 11.507812 L 14 10.957031 C 13.984375 10.90625 13.960938 10.855469 13.941406 10.800781 Z M 9.878906 11.636719 C 9.875 11.671875 9.875 11.707031 9.875 11.742188 C 9.875 11.75 9.875 11.757812 9.875 11.765625 L 9.886719 11.753906 C 9.882812 11.714844 9.878906 11.675781 9.878906 11.636719 Z M 13.371094 11.636719 C 13.367188 11.675781 13.367188 11.714844 13.359375 11.753906 L 13.375 11.765625 C 13.375 11.757812 13.375 11.75 13.375 11.742188 C 13.375 11.707031 13.375 11.671875 13.371094 11.636719 Z M 9.308594 12.472656 L 9.25 12.523438 C 9.300781 12.683594 9.371094 12.839844 9.460938 12.992188 C 9.546875 13.144531 9.648438 13.28125 9.757812 13.40625 L 10.5625 13.136719 C 10.679688 13.222656 10.808594 13.300781 10.949219 13.355469 L 11.113281 14.1875 C 11.277344 14.222656 11.449219 14.242188 11.625 14.242188 C 11.800781 14.242188 11.96875 14.222656 12.132812 14.1875 L 12.300781 13.355469 C 12.4375 13.300781 12.566406 13.222656 12.683594 13.136719 L 13.488281 13.40625 C 13.601562 13.28125 13.703125 13.144531 13.789062 12.992188 C 13.878906 12.839844 13.945312 12.683594 14 12.523438 L 13.941406 12.472656 C 13.898438 12.578125 13.847656 12.679688 13.789062 12.78125 C 13.703125 12.933594 13.601562 13.074219 13.488281 13.199219 L 12.683594 12.925781 C 12.566406 13.015625 12.4375 13.089844 12.300781 13.148438 L 12.132812 13.980469 C 11.96875 14.015625 11.800781 14.03125 11.625 14.03125 C 11.449219 14.03125 11.277344 14.015625 11.113281 13.980469 L 10.949219 13.148438 C 10.808594 13.089844 10.679688 13.015625 10.5625 12.925781 L 9.757812 13.199219 C 9.648438 13.074219 9.546875 12.933594 9.460938 12.78125 C 9.402344 12.679688 9.351562 12.578125 9.308594 12.472656 Z M 9.308594 12.472656 "/>
<path style=" stroke:none;fill-rule:nonzero;fill:rgb(87.843138%,87.843138%,87.843138%);fill-opacity:0.996078;" d="M 3 2.5 C 2.929688 2.5 2.875 2.554688 2.875 2.625 L 2.875 3.375 C 2.875 3.445312 2.929688 3.5 3 3.5 L 3.875 3.5 L 3.875 7.375 C 3.875 7.445312 3.929688 7.5 4 7.5 L 4.75 7.5 C 4.820312 7.5 4.875 7.445312 4.875 7.375 L 4.875 3.5 L 5.75 3.5 C 5.820312 3.5 5.875 3.445312 5.875 3.375 L 5.875 2.625 C 5.875 2.554688 5.820312 2.5 5.75 2.5 Z M 6.5 2.5 C 6.429688 2.5 6.375 2.554688 6.375 2.625 L 6.375 7.375 C 6.375 7.445312 6.429688 7.5 6.5 7.5 L 9.25 7.5 C 9.320312 7.5 9.375 7.445312 9.375 7.375 L 9.375 6.625 C 9.375 6.554688 9.320312 6.5 9.25 6.5 L 7.375 6.5 L 7.375 5.5 L 8.75 5.5 C 8.820312 5.5 8.875 5.445312 8.875 5.375 L 8.875 4.625 C 8.875 4.554688 8.820312 4.5 8.75 4.5 L 7.375 4.5 L 7.375 3.5 L 9.25 3.5 C 9.320312 3.5 9.375 3.445312 9.375 3.375 L 9.375 2.625 C 9.375 2.554688 9.320312 2.5 9.25 2.5 Z M 10.453125 2.523438 C 10.429688 2.523438 10.410156 2.527344 10.390625 2.539062 L 9.742188 2.914062 C 9.683594 2.949219 9.660156 3.023438 9.695312 3.085938 L 10.800781 5 L 9.695312 6.914062 C 9.660156 6.976562 9.683594 7.050781 9.742188 7.085938 L 10.390625 7.460938 C 10.453125 7.496094 10.527344 7.476562 10.5625 7.414062 L 11.378906 6 L 12.195312 7.414062 C 12.230469 7.476562 12.308594 7.496094 12.367188 7.460938 L 13.015625 7.085938 C 13.078125 7.050781 13.097656 6.976562 13.0625 6.914062 L 11.957031 5 L 13.0625 3.085938 C 13.097656 3.023438 13.078125 2.949219 13.015625 2.914062 L 12.367188 2.539062 C 12.308594 2.503906 12.230469 2.523438 12.195312 2.585938 L 11.378906 4 L 10.5625 2.585938 C 10.539062 2.542969 10.496094 2.519531 10.453125 2.523438 Z M 10.453125 2.523438 "/>
<path style=" stroke:none;fill-rule:nonzero;fill:rgb(100%,100%,100%);fill-opacity:0.6;" d="M 3 2.5 C 2.929688 2.5 2.875 2.554688 2.875 2.625 L 2.875 2.875 C 2.875 2.804688 2.929688 2.75 3 2.75 L 5.75 2.75 C 5.820312 2.75 5.875 2.804688 5.875 2.875 L 5.875 2.625 C 5.875 2.554688 5.820312 2.5 5.75 2.5 Z M 6.5 2.5 C 6.429688 2.5 6.375 2.554688 6.375 2.625 L 6.375 2.875 C 6.375 2.804688 6.429688 2.75 6.5 2.75 L 9.25 2.75 C 9.320312 2.75 9.375 2.804688 9.375 2.875 L 9.375 2.625 C 9.375 2.554688 9.320312 2.5 9.25 2.5 Z M 10.453125 2.523438 C 10.429688 2.523438 10.410156 2.527344 10.390625 2.539062 L 9.742188 2.914062 C 9.683594 2.949219 9.660156 3.023438 9.695312 3.085938 L 9.742188 3.164062 L 10.390625 2.789062 C 10.410156 2.777344 10.429688 2.773438 10.453125 2.773438 C 10.496094 2.769531 10.539062 2.792969 10.5625 2.835938 L 11.378906 4.25 L 12.195312 2.835938 C 12.230469 2.773438 12.308594 2.753906 12.367188 2.789062 L 13.015625 3.164062 L 13.0625 3.085938 C 13.097656 3.023438 13.078125 2.949219 13.015625 2.914062 L 12.367188 2.539062 C 12.308594 2.503906 12.230469 2.523438 12.195312 2.585938 L 11.378906 4 L 10.5625 2.585938 C 10.539062 2.542969 10.496094 2.519531 10.453125 2.523438 Z M 7.375 4.5 L 7.375 4.75 L 8.75 4.75 C 8.820312 4.75 8.875 4.804688 8.875 4.875 L 8.875 4.625 C 8.875 4.554688 8.820312 4.5 8.75 4.5 Z M 10.730469 5.125 L 9.695312 6.914062 C 9.660156 6.976562 9.683594 7.050781 9.742188 7.085938 L 10.800781 5.25 Z M 12.03125 5.125 L 11.957031 5.25 L 13.015625 7.085938 C 13.078125 7.050781 13.097656 6.976562 13.0625 6.914062 Z M 7.375 6.5 L 7.375 6.75 L 9.25 6.75 C 9.320312 6.75 9.375 6.804688 9.375 6.875 L 9.375 6.625 C 9.375 6.554688 9.320312 6.5 9.25 6.5 Z M 7.375 6.5 "/>
<path style=" stroke:none;fill-rule:nonzero;fill:rgb(0%,0%,0%);fill-opacity:0.4;" d="M 9.742188 3.164062 C 9.683594 3.199219 9.660156 3.273438 9.695312 3.335938 L 10.730469 5.125 L 10.800781 5 Z M 13.015625 3.164062 L 11.957031 5 L 12.03125 5.125 L 13.0625 3.335938 C 13.097656 3.273438 13.078125 3.199219 13.015625 3.164062 Z M 2.875 3.375 L 2.875 3.625 C 2.875 3.695312 2.929688 3.75 3 3.75 L 3.875 3.75 L 3.875 3.5 L 3 3.5 C 2.929688 3.5 2.875 3.445312 2.875 3.375 Z M 5.875 3.375 C 5.875 3.445312 5.820312 3.5 5.75 3.5 L 4.875 3.5 L 4.875 3.75 L 5.75 3.75 C 5.820312 3.75 5.875 3.695312 5.875 3.625 Z M 9.375 3.375 C 9.375 3.445312 9.320312 3.5 9.25 3.5 L 7.375 3.5 L 7.375 3.75 L 9.25 3.75 C 9.320312 3.75 9.375 3.695312 9.375 3.625 Z M 8.875 5.375 C 8.875 5.445312 8.820312 5.5 8.75 5.5 L 7.375 5.5 L 7.375 5.75 L 8.75 5.75 C 8.820312 5.75 8.875 5.695312 8.875 5.625 Z M 11.378906 6 L 10.5625 7.414062 C 10.527344 7.476562 10.453125 7.496094 10.390625 7.460938 L 9.742188 7.085938 L 9.695312 7.164062 C 9.660156 7.226562 9.683594 7.300781 9.742188 7.335938 L 10.390625 7.710938 C 10.453125 7.746094 10.527344 7.726562 10.5625 7.664062 L 11.378906 6.25 L 12.195312 7.664062 C 12.230469 7.726562 12.308594 7.746094 12.367188 7.710938 L 13.015625 7.335938 C 13.078125 7.300781 13.097656 7.226562 13.0625 7.164062 L 13.015625 7.085938 L 12.367188 7.460938 C 12.308594 7.496094 12.230469 7.476562 12.195312 7.414062 Z M 3.875 7.375 L 3.875 7.625 C 3.875 7.695312 3.929688 7.75 4 7.75 L 4.75 7.75 C 4.820312 7.75 4.875 7.695312 4.875 7.625 L 4.875 7.375 C 4.875 7.445312 4.820312 7.5 4.75 7.5 L 4 7.5 C 3.929688 7.5 3.875 7.445312 3.875 7.375 Z M 6.375 7.375 L 6.375 7.625 C 6.375 7.695312 6.429688 7.75 6.5 7.75 L 9.25 7.75 C 9.320312 7.75 9.375 7.695312 9.375 7.625 L 9.375 7.375 C 9.375 7.445312 9.320312 7.5 9.25 7.5 L 6.5 7.5 C 6.429688 7.5 6.375 7.445312 6.375 7.375 Z M 6.375 7.375 "/>
<path style=" stroke:none;fill-rule:nonzero;fill:url(#linear0);" d="M 2 1 L 14 1 C 14.550781 1 15 1.449219 15 2 L 15 14 C 15 14.550781 14.550781 15 14 15 L 2 15 C 1.449219 15 1 14.550781 1 14 L 1 2 C 1 1.449219 1.449219 1 2 1 Z M 2 1 "/>
</g>
</svg>
