
<svg xmlns="http://www.w3.org/2000/svg" xmlns:xlink="http://www.w3.org/1999/xlink" width="64" height="64" viewBox="0 0 64 64" version="1.1">
<defs>
<linearGradient id="linear0" gradientUnits="userSpaceOnUse" x1="8.466666" y1="-199.125" x2="8.466666" y2="-213.941666" gradientTransform="matrix(3.779528,0,0,3.779528,0,812.598468)">
<stop offset="0" style="stop-color:rgb(0%,0%,0%);stop-opacity:0.2;"/>
<stop offset="1" style="stop-color:rgb(100%,100%,100%);stop-opacity:0;"/>
</linearGradient>
<linearGradient id="linear1" gradientUnits="userSpaceOnUse" x1="12.165949" y1="-199.12706" x2="12.165949" y2="-207.06456" gradientTransform="matrix(3.779528,0,0,3.779528,0.266502,812.606263)">
<stop offset="0" style="stop-color:rgb(0%,0%,0%);stop-opacity:0.2;"/>
<stop offset="1" style="stop-color:rgb(100%,100%,100%);stop-opacity:0;"/>
</linearGradient>
</defs>
<g id="surface1">
<path style=" stroke:none;fill-rule:nonzero;fill:rgb(61.960787%,61.960787%,61.960787%);fill-opacity:1;" d="M 8 4 L 56 4 C 58.210938 4 60 5.789062 60 8 L 60 56 C 60 58.210938 58.210938 60 56 60 L 8 60 C 5.789062 60 4 58.210938 4 56 L 4 8 C 4 5.789062 5.789062 4 8 4 Z M 8 4 "/>
<path style=" stroke:none;fill-rule:nonzero;fill:rgb(0%,0%,0%);fill-opacity:0.4;" d="M 4 55 L 4 56 C 4 58.214844 5.785156 60 8 60 L 56 60 C 58.214844 60 60 58.214844 60 56 L 60 55 C 60 57.214844 58.214844 59 56 59 L 8 59 C 5.785156 59 4 57.214844 4 55 Z M 4 55 "/>
<path style=" stroke:none;fill-rule:nonzero;fill:rgb(0%,0%,0%);fill-opacity:0.2;" d="M 4 56 L 4 57.5 C 4 59.714844 5.785156 61.5 8 61.5 L 56 61.5 C 58.214844 61.5 60 59.714844 60 57.5 L 60 56 C 60 58.214844 58.214844 60 56 60 L 8 60 C 5.785156 60 4 58.214844 4 56 Z M 4 56 "/>
<path style=" stroke:none;fill-rule:nonzero;fill:rgb(100%,100%,100%);fill-opacity:0.4;" d="M 8 4 C 5.785156 4 4 5.785156 4 8 L 4 8.984375 C 4 6.769531 5.785156 4.984375 8 4.984375 L 56 4.984375 C 58.214844 4.984375 60 6.769531 60 8.984375 L 60 8 C 60 5.785156 58.214844 4 56 4 Z M 8 4 "/>
<path style=" stroke:none;fill-rule:nonzero;fill:rgb(45.882353%,45.882353%,45.882353%);fill-opacity:1;" d="M 10 14 L 54 14 C 55.105469 14 56 14.894531 56 16 L 56 54 C 56 55.105469 55.105469 56 54 56 L 10 56 C 8.894531 56 8 55.105469 8 54 L 8 16 C 8 14.894531 8.894531 14 10 14 Z M 10 14 "/>
<path style=" stroke:none;fill-rule:nonzero;fill:rgb(100%,100%,100%);fill-opacity:0.4;" d="M 8 53.980469 L 8 54.996094 C 8 56.101562 8.890625 56.996094 10 56.996094 L 54 56.996094 C 55.109375 56.996094 56 56.101562 56 54.996094 L 56 53.980469 C 56 55.085938 55.109375 55.980469 54 55.980469 L 10 55.980469 C 8.890625 55.980469 8 55.085938 8 53.980469 Z M 8 53.980469 "/>
<path style=" stroke:none;fill-rule:nonzero;fill:rgb(0%,0%,0%);fill-opacity:0.4;" d="M 8 17 L 8 15.984375 C 8 14.875 8.890625 13.984375 10 13.984375 L 54 13.984375 C 55.109375 13.984375 56 14.875 56 15.984375 L 56 17 C 56 15.890625 55.109375 15 54 15 L 10 15 C 8.890625 15 8 15.890625 8 17 Z M 8 17 "/>
<path style=" stroke:none;fill-rule:nonzero;fill:rgb(0%,0%,0%);fill-opacity:0.4;" d="M 22.039062 26.242188 C 22.035156 26.25 22.03125 26.257812 22.03125 26.265625 C 22.011719 26.3125 22 26.363281 22 26.414062 L 22 26.574219 C 22 26.632812 22.011719 26.6875 22.039062 26.746094 C 22.035156 26.75 22.03125 26.761719 22.03125 26.765625 C 22.011719 26.816406 22 26.867188 22 26.917969 L 22 27.078125 C 22 28.136719 26.460938 28.988281 32 28.988281 C 37.539062 28.988281 42 28.136719 42 27.078125 L 42 26.917969 C 42 26.867188 41.988281 26.816406 41.96875 26.765625 C 41.96875 26.761719 41.964844 26.75 41.960938 26.746094 C 41.988281 26.6875 42 26.632812 42 26.574219 L 42 26.414062 C 42 26.363281 41.988281 26.3125 41.96875 26.265625 C 41.96875 26.257812 41.964844 26.25 41.960938 26.242188 C 41.515625 27.222656 37.242188 27.984375 32 27.984375 C 26.757812 27.984375 22.484375 27.222656 22.039062 26.242188 Z M 22.113281 26.863281 C 22.164062 26.925781 22.230469 26.988281 22.308594 27.046875 C 22.230469 26.988281 22.164062 26.925781 22.113281 26.863281 Z M 41.886719 26.863281 C 41.859375 26.898438 41.832031 26.925781 41.796875 26.957031 C 41.828125 26.929688 41.859375 26.898438 41.886719 26.863281 Z M 22.324219 27.058594 C 22.359375 27.082031 22.394531 27.109375 22.4375 27.136719 C 22.394531 27.109375 22.359375 27.082031 22.324219 27.058594 Z M 41.65625 27.074219 C 41.628906 27.089844 41.605469 27.109375 41.578125 27.125 C 41.605469 27.109375 41.628906 27.089844 41.65625 27.074219 Z M 22.457031 27.148438 C 22.503906 27.175781 22.554688 27.207031 22.605469 27.234375 C 22.660156 27.261719 22.71875 27.289062 22.78125 27.316406 C 22.84375 27.34375 22.90625 27.375 22.96875 27.402344 C 22.90625 27.375 22.84375 27.34375 22.78125 27.316406 C 22.71875 27.289062 22.660156 27.261719 22.605469 27.234375 C 22.554688 27.203125 22.503906 27.175781 22.457031 27.148438 Z M 41.53125 27.15625 C 41.488281 27.179688 41.445312 27.207031 41.394531 27.234375 C 41.339844 27.261719 41.28125 27.289062 41.21875 27.316406 C 41.167969 27.339844 41.117188 27.363281 41.066406 27.382812 C 41.117188 27.363281 41.167969 27.339844 41.21875 27.316406 C 41.28125 27.289062 41.339844 27.261719 41.394531 27.234375 C 41.445312 27.207031 41.488281 27.179688 41.53125 27.15625 Z M 22.988281 27.40625 C 23.058594 27.433594 23.128906 27.460938 23.203125 27.484375 C 23.28125 27.511719 23.359375 27.539062 23.441406 27.566406 C 23.511719 27.585938 23.582031 27.609375 23.652344 27.628906 C 23.582031 27.609375 23.511719 27.585938 23.441406 27.566406 C 23.359375 27.539062 23.28125 27.511719 23.203125 27.484375 C 23.128906 27.460938 23.054688 27.433594 22.988281 27.40625 Z M 40.988281 27.414062 C 40.929688 27.4375 40.863281 27.460938 40.796875 27.484375 C 40.71875 27.511719 40.640625 27.539062 40.558594 27.566406 C 40.488281 27.585938 40.417969 27.609375 40.347656 27.628906 C 40.417969 27.609375 40.488281 27.585938 40.558594 27.566406 C 40.640625 27.539062 40.71875 27.511719 40.796875 27.484375 C 40.863281 27.460938 40.929688 27.4375 40.988281 27.414062 Z M 23.738281 27.65625 C 23.90625 27.703125 24.085938 27.746094 24.277344 27.792969 C 24.085938 27.746094 23.90625 27.703125 23.738281 27.65625 Z M 40.261719 27.65625 C 40.09375 27.703125 39.914062 27.746094 39.722656 27.792969 C 39.914062 27.746094 40.09375 27.703125 40.261719 27.65625 Z M 26.417969 28.160156 C 26.542969 28.179688 26.675781 28.195312 26.808594 28.207031 C 26.945312 28.226562 27.085938 28.242188 27.226562 28.253906 C 27.511719 28.285156 27.800781 28.3125 28.097656 28.335938 C 27.800781 28.3125 27.507812 28.285156 27.226562 28.253906 C 27.085938 28.242188 26.945312 28.226562 26.808594 28.207031 C 26.675781 28.195312 26.542969 28.179688 26.417969 28.160156 Z M 37.539062 28.167969 C 37.425781 28.183594 37.308594 28.195312 37.191406 28.207031 C 37.054688 28.226562 36.914062 28.242188 36.773438 28.253906 C 36.492188 28.285156 36.199219 28.3125 35.902344 28.335938 C 36.199219 28.3125 36.488281 28.285156 36.773438 28.253906 C 36.914062 28.242188 37.054688 28.226562 37.191406 28.207031 C 37.308594 28.195312 37.425781 28.183594 37.539062 28.167969 Z M 29.019531 28.402344 C 29.164062 28.410156 29.308594 28.417969 29.453125 28.421875 C 29.308594 28.417969 29.164062 28.410156 29.019531 28.402344 Z M 34.980469 28.402344 C 34.84375 28.410156 34.703125 28.414062 34.5625 28.421875 C 34.703125 28.414062 34.84375 28.410156 34.980469 28.402344 Z M 30.085938 28.453125 C 30.324219 28.460938 30.566406 28.46875 30.808594 28.472656 C 30.566406 28.46875 30.324219 28.460938 30.085938 28.453125 Z M 33.914062 28.453125 C 33.675781 28.460938 33.4375 28.46875 33.191406 28.472656 C 33.4375 28.46875 33.675781 28.460938 33.914062 28.453125 Z M 31.160156 28.480469 C 31.4375 28.484375 31.71875 28.484375 32 28.484375 C 32.28125 28.484375 32.5625 28.484375 32.839844 28.480469 C 32.5625 28.484375 32.28125 28.484375 32 28.484375 C 31.71875 28.484375 31.4375 28.484375 31.160156 28.480469 Z M 22.019531 30.1875 C 22.007812 30.230469 22 30.269531 22 30.308594 L 22 30.484375 C 22 31.542969 26.460938 32.394531 32 32.394531 C 37.539062 32.394531 42 31.542969 42 30.484375 L 42 30.308594 C 42 30.269531 41.992188 30.230469 41.980469 30.1875 C 41.667969 31.195312 37.335938 31.984375 32 31.984375 C 26.664062 31.984375 22.332031 31.195312 22.019531 30.1875 Z M 22.019531 30.691406 C 22.007812 30.730469 22 30.769531 22 30.8125 L 22 30.984375 C 22 32.046875 26.460938 32.898438 32 32.898438 C 37.539062 32.898438 42 32.046875 42 30.984375 L 42 30.8125 C 42 30.769531 41.992188 30.730469 41.980469 30.691406 C 41.667969 31.695312 37.335938 32.484375 32 32.484375 C 26.664062 32.484375 22.332031 31.695312 22.019531 30.691406 Z M 22.035156 34.144531 C 22.011719 34.199219 22 34.253906 22 34.308594 L 22 34.484375 C 22 34.539062 22.011719 34.59375 22.035156 34.644531 C 22.011719 34.699219 22 34.753906 22 34.8125 L 22 34.984375 C 22 36.046875 26.460938 36.898438 32 36.898438 C 37.539062 36.898438 42 36.046875 42 34.984375 L 42 34.8125 C 42 34.753906 41.988281 34.699219 41.964844 34.644531 C 41.988281 34.59375 42 34.539062 42 34.484375 L 42 34.308594 C 42 34.253906 41.988281 34.199219 41.964844 34.144531 C 41.539062 35.128906 37.257812 35.894531 32 35.894531 C 26.742188 35.894531 22.460938 35.128906 22.035156 34.144531 Z M 22.085938 34.738281 C 22.105469 34.765625 22.128906 34.792969 22.152344 34.820312 C 22.128906 34.792969 22.105469 34.765625 22.085938 34.738281 Z M 41.914062 34.738281 C 41.894531 34.765625 41.871094 34.792969 41.847656 34.820312 C 41.871094 34.792969 41.894531 34.765625 41.914062 34.738281 Z M 22.203125 34.871094 C 22.21875 34.882812 22.230469 34.898438 22.25 34.910156 C 22.230469 34.898438 22.21875 34.882812 22.203125 34.871094 Z M 41.796875 34.871094 C 41.78125 34.882812 41.769531 34.898438 41.75 34.910156 C 41.769531 34.898438 41.78125 34.882812 41.796875 34.871094 Z M 22.324219 34.96875 C 22.355469 34.992188 22.386719 35.015625 22.421875 35.035156 C 22.386719 35.015625 22.355469 34.992188 22.324219 34.96875 Z M 41.675781 34.96875 C 41.644531 34.992188 41.613281 35.015625 41.578125 35.035156 C 41.613281 35.015625 41.644531 34.992188 41.675781 34.96875 Z M 22.46875 35.066406 C 22.511719 35.09375 22.558594 35.117188 22.605469 35.140625 C 22.660156 35.171875 22.71875 35.199219 22.78125 35.230469 C 22.71875 35.199219 22.660156 35.171875 22.605469 35.140625 C 22.558594 35.117188 22.511719 35.09375 22.46875 35.066406 Z M 41.53125 35.066406 C 41.488281 35.09375 41.441406 35.117188 41.394531 35.140625 C 41.339844 35.171875 41.28125 35.199219 41.21875 35.230469 C 41.28125 35.199219 41.339844 35.171875 41.394531 35.140625 C 41.441406 35.117188 41.488281 35.09375 41.53125 35.066406 Z M 22.785156 35.234375 C 22.847656 35.261719 22.914062 35.285156 22.984375 35.3125 C 23.050781 35.34375 23.125 35.371094 23.203125 35.394531 C 23.125 35.371094 23.050781 35.34375 22.984375 35.3125 C 22.914062 35.285156 22.847656 35.261719 22.785156 35.234375 Z M 41.214844 35.234375 C 41.152344 35.261719 41.085938 35.285156 41.015625 35.3125 C 40.949219 35.34375 40.875 35.371094 40.796875 35.394531 C 40.875 35.371094 40.949219 35.34375 41.015625 35.3125 C 41.085938 35.285156 41.152344 35.261719 41.214844 35.234375 Z M 23.441406 35.476562 C 23.777344 35.582031 24.160156 35.679688 24.59375 35.769531 C 24.160156 35.679688 23.777344 35.582031 23.441406 35.476562 Z M 40.558594 35.476562 C 40.222656 35.582031 39.839844 35.679688 39.40625 35.769531 C 39.839844 35.679688 40.222656 35.582031 40.558594 35.476562 Z M 24.921875 35.839844 C 25.488281 35.945312 26.121094 36.042969 26.808594 36.121094 C 27.082031 36.152344 27.363281 36.183594 27.65625 36.207031 C 27.949219 36.234375 28.25 36.261719 28.554688 36.28125 C 28.707031 36.292969 28.863281 36.300781 29.019531 36.3125 C 29.648438 36.347656 30.300781 36.375 30.972656 36.386719 C 31.3125 36.394531 31.652344 36.394531 32 36.394531 C 32.347656 36.394531 32.6875 36.394531 33.027344 36.386719 C 33.699219 36.375 34.351562 36.347656 34.980469 36.3125 C 35.136719 36.300781 35.292969 36.292969 35.445312 36.28125 C 35.75 36.261719 36.050781 36.234375 36.34375 36.207031 C 36.636719 36.183594 36.917969 36.152344 37.191406 36.121094 C 37.878906 36.042969 38.511719 35.945312 39.078125 35.839844 C 38.511719 35.945312 37.878906 36.042969 37.191406 36.121094 C 36.917969 36.152344 36.636719 36.183594 36.34375 36.207031 C 36.050781 36.234375 35.753906 36.261719 35.445312 36.28125 C 35.292969 36.292969 35.136719 36.300781 34.980469 36.3125 C 34.351562 36.347656 33.699219 36.375 33.027344 36.386719 C 32.6875 36.394531 32.347656 36.398438 32 36.398438 C 31.652344 36.398438 31.3125 36.394531 30.972656 36.386719 C 30.300781 36.375 29.648438 36.347656 29.019531 36.3125 C 28.863281 36.300781 28.707031 36.292969 28.554688 36.28125 C 28.246094 36.261719 27.949219 36.234375 27.65625 36.207031 C 27.363281 36.183594 27.082031 36.152344 26.808594 36.121094 C 26.121094 36.042969 25.488281 35.945312 24.921875 35.839844 Z M 22.058594 38.1875 C 22.019531 38.257812 22 38.328125 22 38.394531 L 22 38.574219 C 22 38.625 22.011719 38.679688 22.035156 38.734375 C 22.011719 38.785156 22 38.84375 22 38.898438 L 22 39.074219 C 22 39.132812 22.015625 39.1875 22.039062 39.242188 C 22.042969 39.230469 22.050781 39.21875 22.058594 39.207031 C 22.589844 40.167969 26.824219 40.914062 32 40.914062 C 37.175781 40.914062 41.410156 40.167969 41.941406 39.207031 C 41.949219 39.21875 41.957031 39.230469 41.960938 39.242188 C 41.984375 39.1875 42 39.132812 42 39.074219 L 42 38.898438 C 42 38.84375 41.988281 38.785156 41.964844 38.734375 C 41.988281 38.679688 42 38.625 42 38.574219 L 42 38.394531 C 42 38.328125 41.980469 38.257812 41.941406 38.1875 C 41.410156 39.152344 37.175781 39.894531 32 39.894531 C 26.824219 39.894531 22.589844 39.152344 22.058594 38.1875 Z M 22 42.074219 L 22 43.089844 C 22 44.148438 26.460938 45 32 45 C 37.539062 45 42 44.148438 42 43.089844 L 42 42.074219 C 42 43.132812 37.539062 43.984375 32 43.984375 C 26.460938 43.984375 22 43.132812 22 42.074219 Z M 22 42.074219 "/>
<path style=" stroke:none;fill-rule:nonzero;fill:rgb(74.117649%,74.117649%,74.117649%);fill-opacity:1;" d="M 22 38.585938 L 22 42.085938 C 22 43.148438 26.460938 44 32 44 C 37.539062 44 42 43.148438 42 42.085938 L 42 38.585938 C 42 39.648438 37.539062 40.5 32 40.5 C 26.460938 40.5 22 39.648438 22 38.585938 Z M 22 38.585938 "/>
<path style=" stroke:none;fill-rule:nonzero;fill:rgb(74.117649%,74.117649%,74.117649%);fill-opacity:1;" d="M 22 34.5 L 22 38.414062 C 22 38.34375 22.019531 38.273438 22.058594 38.207031 C 22.589844 39.167969 26.824219 39.914062 32 39.914062 C 37.175781 39.914062 41.410156 39.167969 41.941406 38.207031 C 41.980469 38.273438 42 38.34375 42 38.414062 L 42 34.5 C 42 35.558594 37.539062 36.414062 32 36.414062 C 26.460938 36.414062 22 35.558594 22 34.5 Z M 22 34.5 "/>
<path style=" stroke:none;fill-rule:nonzero;fill:rgb(74.117649%,74.117649%,74.117649%);fill-opacity:1;" d="M 22 30.5 L 22 34.324219 C 22 34.269531 22.011719 34.214844 22.035156 34.160156 C 22.460938 35.144531 26.742188 35.914062 32 35.914062 C 37.257812 35.914062 41.539062 35.144531 41.964844 34.160156 C 41.988281 34.214844 42 34.269531 42 34.324219 L 42 30.5 C 42 31.558594 37.539062 32.410156 32 32.410156 C 26.460938 32.410156 22 31.558594 22 30.5 Z M 22 30.5 "/>
<path style=" stroke:none;fill-rule:nonzero;fill:rgb(74.117649%,74.117649%,74.117649%);fill-opacity:1;" d="M 22 26.585938 L 22 30.324219 C 22 30.285156 22.007812 30.246094 22.019531 30.203125 C 22.332031 31.210938 26.664062 32 32 32 C 37.335938 32 41.667969 31.210938 41.980469 30.203125 C 41.992188 30.246094 42 30.285156 42 30.324219 L 42 26.585938 C 42 27.648438 37.539062 28.5 32 28.5 C 26.460938 28.5 22 27.648438 22 26.585938 Z M 22 26.585938 "/>
<path style=" stroke:none;fill-rule:nonzero;fill:rgb(74.117649%,74.117649%,74.117649%);fill-opacity:1;" d="M 32 24 C 26.460938 24 22 24.851562 22 25.910156 L 22 26.414062 C 22 26.359375 22.015625 26.304688 22.039062 26.253906 C 22.472656 27.234375 26.75 28 32 28 C 37.25 28 41.527344 27.234375 41.964844 26.253906 C 41.984375 26.304688 42 26.359375 42 26.414062 L 42 25.910156 C 42 24.851562 37.539062 24 32 24 Z M 32 24 "/>
<path style=" stroke:none;fill-rule:nonzero;fill:rgb(100%,100%,100%);fill-opacity:0.4;" d="M 22 38.589844 L 22 39.589844 C 22 40.648438 26.460938 41.5 32 41.5 C 37.539062 41.5 42 40.648438 42 39.589844 L 42 38.589844 C 42 39.648438 37.539062 40.5 32 40.5 C 26.460938 40.5 22 39.648438 22 38.589844 Z M 22 38.589844 "/>
<path style=" stroke:none;fill-rule:nonzero;fill:rgb(100%,100%,100%);fill-opacity:0.4;" d="M 22 34.5 L 22 35.5 C 22 36.558594 26.460938 37.410156 32 37.410156 C 37.539062 37.410156 42 36.558594 42 35.5 L 42 34.5 C 42 35.558594 37.539062 36.410156 32 36.410156 C 26.460938 36.410156 22 35.558594 22 34.5 Z M 22 34.5 "/>
<path style=" stroke:none;fill-rule:nonzero;fill:rgb(100%,100%,100%);fill-opacity:0.4;" d="M 22 30.5 L 22 31.5 C 22 32.558594 26.460938 33.410156 32 33.410156 C 37.539062 33.410156 42 32.558594 42 31.5 L 42 30.5 C 42 31.558594 37.539062 32.410156 32 32.410156 C 26.460938 32.410156 22 31.558594 22 30.5 Z M 22 30.5 "/>
<path style=" stroke:none;fill-rule:nonzero;fill:rgb(100%,100%,100%);fill-opacity:0.4;" d="M 22 26.589844 L 22 27.589844 C 22 28.648438 26.460938 29.5 32 29.5 C 37.539062 29.5 42 28.648438 42 27.589844 L 42 26.589844 C 42 27.648438 37.539062 28.5 32 28.5 C 26.460938 28.5 22 27.648438 22 26.589844 Z M 22 26.589844 "/>
<path style=" stroke:none;fill-rule:nonzero;fill:rgb(100%,100%,100%);fill-opacity:0.4;" d="M 32 24 C 26.460938 24 22 24.851562 22 25.910156 L 22 26.410156 C 22 26.359375 22.015625 26.304688 22.035156 26.253906 C 22.074219 26.335938 22.140625 26.421875 22.230469 26.5 C 23.207031 25.640625 27.199219 25 32 25 C 36.800781 25 40.792969 25.640625 41.769531 26.5 C 41.859375 26.421875 41.925781 26.335938 41.964844 26.253906 C 41.984375 26.304688 42 26.359375 42 26.410156 L 42 25.910156 C 42 24.851562 37.539062 24 32 24 Z M 32 24 "/>
<path style=" stroke:none;fill-rule:nonzero;fill:url(#linear0);" d="M 8 4 L 56 4 C 58.210938 4 60 5.789062 60 8 L 60 56 C 60 58.210938 58.210938 60 56 60 L 8 60 C 5.789062 60 4 58.210938 4 56 L 4 8 C 4 5.789062 5.789062 4 8 4 Z M 8 4 "/>
<path style=" stroke:none;fill-rule:nonzero;fill:rgb(87.843138%,87.843138%,87.843138%);fill-opacity:1;" d="M 46.074219 30.53125 C 45.109375 30.542969 44.167969 30.648438 43.257812 30.835938 L 42.277344 35.746094 C 41.464844 36.085938 40.707031 36.523438 40.015625 37.050781 L 35.273438 35.449219 C 34.617188 36.1875 34.023438 37.007812 33.507812 37.898438 C 32.992188 38.792969 32.578125 39.714844 32.265625 40.65625 L 36.035156 43.964844 C 35.980469 44.390625 35.953125 44.824219 35.953125 45.265625 C 35.953125 45.707031 35.980469 46.140625 36.035156 46.566406 L 32.265625 49.875 C 32.578125 50.816406 32.992188 51.738281 33.507812 52.632812 C 34.023438 53.527344 34.617188 54.34375 35.273438 55.085938 L 40.015625 53.480469 C 40.707031 54.007812 41.464844 54.445312 42.277344 54.785156 L 43.257812 59.695312 C 44.230469 59.894531 45.234375 60 46.265625 60 C 47.296875 60 48.304688 59.894531 49.273438 59.695312 L 50.253906 54.785156 C 51.066406 54.445312 51.828125 54.007812 52.515625 53.480469 L 57.257812 55.085938 C 57.917969 54.34375 58.511719 53.527344 59.027344 52.632812 C 59.542969 51.738281 59.953125 50.816406 60.265625 49.875 L 56.5 46.566406 C 56.550781 46.140625 56.582031 45.707031 56.582031 45.265625 C 56.582031 44.824219 56.554688 44.390625 56.5 43.964844 L 60.265625 40.65625 C 59.953125 39.714844 59.542969 38.792969 59.027344 37.898438 C 58.511719 37.007812 57.917969 36.1875 57.257812 35.449219 L 52.515625 37.050781 C 51.828125 36.523438 51.066406 36.085938 50.253906 35.746094 L 49.273438 30.835938 C 48.304688 30.636719 47.296875 30.53125 46.265625 30.53125 C 46.203125 30.53125 46.136719 30.53125 46.074219 30.53125 Z M 46.265625 39.371094 C 49.53125 39.371094 52.160156 42 52.160156 45.265625 C 52.160156 48.53125 49.53125 51.160156 46.265625 51.160156 C 43 51.160156 40.371094 48.53125 40.371094 45.265625 C 40.371094 42 43 39.371094 46.265625 39.371094 Z M 46.265625 39.371094 "/>
<path style=" stroke:none;fill-rule:nonzero;fill:rgb(100%,100%,100%);fill-opacity:0.4;" d="M 46.074219 30.535156 C 45.109375 30.542969 44.167969 30.648438 43.257812 30.835938 L 42.277344 35.746094 C 41.464844 36.085938 40.707031 36.527344 40.015625 37.050781 L 35.273438 35.445312 C 34.613281 36.1875 34.023438 37.003906 33.503906 37.898438 C 32.988281 38.792969 32.578125 39.714844 32.265625 40.65625 L 32.535156 40.890625 C 32.800781 40.203125 33.125 39.527344 33.507812 38.867188 C 34.023438 37.972656 34.613281 37.15625 35.273438 36.414062 L 40.015625 38.015625 C 40.707031 37.492188 41.464844 37.054688 42.277344 36.714844 L 43.261719 31.804688 C 44.167969 31.617188 45.109375 31.511719 46.074219 31.5 C 46.136719 31.5 46.199219 31.5 46.265625 31.5 C 47.296875 31.5 48.304688 31.605469 49.273438 31.804688 L 50.253906 36.714844 C 51.070312 37.054688 51.828125 37.492188 52.515625 38.015625 L 57.257812 36.414062 C 57.917969 37.15625 58.507812 37.972656 59.023438 38.867188 C 59.40625 39.527344 59.730469 40.203125 60 40.886719 L 60.265625 40.65625 C 59.953125 39.714844 59.542969 38.792969 59.023438 37.898438 C 58.507812 37.003906 57.917969 36.1875 57.257812 35.445312 L 52.515625 37.050781 C 51.828125 36.527344 51.070312 36.085938 50.253906 35.746094 L 49.273438 30.835938 C 48.304688 30.636719 47.296875 30.53125 46.265625 30.53125 C 46.199219 30.53125 46.136719 30.53125 46.074219 30.53125 Z M 35.960938 44.871094 C 35.957031 45 35.953125 45.132812 35.953125 45.265625 C 35.953125 45.429688 35.957031 45.589844 35.964844 45.75 C 35.976562 45.476562 36 45.203125 36.03125 44.933594 Z M 56.570312 44.871094 L 56.5 44.933594 C 56.535156 45.203125 56.554688 45.476562 56.570312 45.75 C 56.574219 45.589844 56.582031 45.429688 56.582031 45.265625 C 56.582031 45.132812 56.578125 45.003906 56.570312 44.871094 Z M 40.394531 45.75 C 40.382812 45.910156 40.371094 46.070312 40.371094 46.234375 C 40.371094 49.5 43 52.125 46.265625 52.125 C 49.53125 52.125 52.160156 49.5 52.160156 46.234375 C 52.160156 46.070312 52.152344 45.910156 52.136719 45.75 C 51.894531 48.785156 49.367188 51.160156 46.265625 51.160156 C 43.164062 51.160156 40.640625 48.785156 40.394531 45.75 Z M 56.570312 46.628906 C 56.5625 46.933594 56.539062 47.238281 56.5 47.535156 L 60 50.609375 C 60.09375 50.367188 60.183594 50.125 60.265625 49.878906 Z M 35.960938 46.632812 L 32.265625 49.878906 C 32.347656 50.121094 32.4375 50.367188 32.535156 50.609375 L 36.035156 47.535156 C 35.996094 47.238281 35.972656 46.9375 35.960938 46.632812 Z M 35.960938 46.632812 "/>
<path style=" stroke:none;fill-rule:nonzero;fill:url(#linear1);" d="M 46.074219 30.53125 C 45.109375 30.542969 44.167969 30.648438 43.257812 30.835938 L 42.277344 35.746094 C 41.464844 36.085938 40.707031 36.523438 40.015625 37.050781 L 35.273438 35.449219 C 34.617188 36.1875 34.023438 37.007812 33.507812 37.898438 C 32.992188 38.792969 32.578125 39.714844 32.265625 40.65625 L 36.035156 43.964844 C 35.980469 44.390625 35.953125 44.824219 35.953125 45.265625 C 35.953125 45.707031 35.980469 46.140625 36.035156 46.566406 L 32.265625 49.875 C 32.578125 50.816406 32.992188 51.738281 33.507812 52.632812 C 34.023438 53.527344 34.617188 54.34375 35.273438 55.085938 L 40.015625 53.480469 C 40.707031 54.007812 41.464844 54.445312 42.277344 54.785156 L 43.257812 59.695312 C 44.230469 59.894531 45.234375 60 46.265625 60 C 47.296875 60 48.304688 59.894531 49.273438 59.695312 L 50.253906 54.785156 C 51.066406 54.445312 51.828125 54.007812 52.515625 53.480469 L 57.257812 55.085938 C 57.917969 54.34375 58.511719 53.527344 59.027344 52.632812 C 59.542969 51.738281 59.953125 50.816406 60.265625 49.875 L 56.5 46.566406 C 56.550781 46.140625 56.582031 45.707031 56.582031 45.265625 C 56.582031 44.824219 56.554688 44.390625 56.5 43.964844 L 60.265625 40.65625 C 59.953125 39.714844 59.542969 38.792969 59.027344 37.898438 C 58.511719 37.007812 57.917969 36.1875 57.257812 35.449219 L 52.515625 37.050781 C 51.828125 36.523438 51.066406 36.085938 50.253906 35.746094 L 49.273438 30.835938 C 48.304688 30.636719 47.296875 30.53125 46.265625 30.53125 C 46.203125 30.53125 46.136719 30.53125 46.074219 30.53125 Z M 46.265625 39.371094 C 49.53125 39.371094 52.160156 42 52.160156 45.265625 C 52.160156 48.53125 49.53125 51.160156 46.265625 51.160156 C 43 51.160156 40.371094 48.53125 40.371094 45.265625 C 40.371094 42 43 39.371094 46.265625 39.371094 Z M 46.265625 39.371094 "/>
<path style=" stroke:none;fill-rule:nonzero;fill:rgb(0.784314%,0.784314%,0.784314%);fill-opacity:0.2;" d="M 46.265625 39.386719 C 43 39.386719 40.375 42.011719 40.375 45.277344 C 40.375 45.441406 40.382812 45.601562 40.394531 45.761719 C 40.640625 42.726562 43.164062 40.351562 46.265625 40.351562 C 49.367188 40.351562 51.894531 42.726562 52.140625 45.761719 C 52.152344 45.601562 52.160156 45.441406 52.160156 45.277344 C 52.160156 42.011719 49.53125 39.386719 46.265625 39.386719 Z M 60 40.902344 L 56.5 43.976562 C 56.539062 44.273438 56.5625 44.578125 56.574219 44.882812 L 60 41.871094 Z M 32.53125 40.902344 C 32.4375 41.144531 32.347656 41.390625 32.265625 41.636719 L 35.960938 44.878906 C 35.972656 44.574219 35.996094 44.273438 36.03125 43.976562 Z M 35.964844 45.761719 C 35.957031 45.921875 35.953125 46.082031 35.953125 46.246094 C 35.953125 46.378906 35.957031 46.511719 35.960938 46.640625 L 36.03125 46.578125 C 36 46.308594 35.976562 46.035156 35.964844 45.761719 Z M 56.566406 45.761719 C 56.554688 46.035156 56.535156 46.308594 56.5 46.578125 L 56.574219 46.640625 C 56.578125 46.507812 56.578125 46.378906 56.578125 46.246094 C 56.578125 46.082031 56.574219 45.921875 56.566406 45.761719 Z M 32.53125 50.621094 L 32.265625 50.855469 C 32.578125 51.796875 32.988281 52.71875 33.503906 53.613281 C 34.023438 54.507812 34.613281 55.324219 35.273438 56.0625 L 40.015625 54.460938 C 40.707031 54.984375 41.464844 55.425781 42.277344 55.765625 L 43.125 60 L 45.636719 60 C 44.824219 59.964844 44.03125 59.867188 43.261719 59.707031 L 42.277344 54.796875 C 41.464844 54.457031 40.707031 54.019531 40.015625 53.496094 L 35.273438 55.09375 C 34.613281 54.355469 34.023438 53.539062 33.503906 52.644531 C 33.125 51.984375 32.800781 51.308594 32.53125 50.621094 Z M 60 50.625 C 59.730469 51.308594 59.40625 51.984375 59.027344 52.644531 C 58.507812 53.539062 57.917969 54.355469 57.261719 55.09375 L 52.515625 53.496094 C 51.828125 54.019531 51.070312 54.457031 50.253906 54.796875 L 49.273438 59.707031 C 48.484375 59.871094 47.671875 59.96875 46.84375 60 L 49.40625 60 L 50.253906 55.765625 C 51.070312 55.425781 51.828125 54.984375 52.515625 54.460938 L 57.261719 56.0625 C 57.917969 55.324219 58.507812 54.507812 59.027344 53.613281 C 59.40625 52.953125 59.730469 52.277344 60 51.589844 Z M 60 50.625 "/>
</g>
</svg>
