
<svg xmlns="http://www.w3.org/2000/svg" xmlns:xlink="http://www.w3.org/1999/xlink" width="48" height="48" viewBox="0 0 48 48" version="1.1">
<defs>
<linearGradient id="linear0" gradientUnits="userSpaceOnUse" x1="31.999998" y1="59.999996" x2="31.999998" y2="3.999999" gradientTransform="matrix(0.75,0,0,0.75,0,0.000000000000085265)">
<stop offset="0" style="stop-color:rgb(0%,0%,0%);stop-opacity:0.2;"/>
<stop offset="1" style="stop-color:rgb(100%,100%,100%);stop-opacity:0;"/>
</linearGradient>
</defs>
<g id="surface1">
<path style=" stroke:none;fill-rule:nonzero;fill:rgb(38.039216%,38.039216%,38.039216%);fill-opacity:1;" d="M 43.890625 26.84375 L 40.992188 26.066406 C 40.191406 25.851562 39.371094 26.328125 39.15625 27.128906 L 37.214844 34.371094 C 37 35.171875 37.476562 35.996094 38.277344 36.210938 L 41.171875 36.984375 C 41.972656 37.199219 42.796875 36.726562 43.011719 35.925781 L 44.953125 28.679688 C 45.167969 27.878906 44.691406 27.058594 43.890625 26.84375 Z M 43.890625 26.84375 "/>
<path style=" stroke:none;fill-rule:nonzero;fill:rgb(38.039216%,38.039216%,38.039216%);fill-opacity:1;" d="M 24 4.5 C 14.027344 4.5 6 12.527344 6 22.5 C 6 23.003906 6.027344 23.503906 6.066406 24 L 9.074219 24 C 9.027344 23.507812 9 23.007812 9 22.5 C 9 14.191406 15.691406 7.5 24 7.5 C 32.308594 7.5 39 14.191406 39 22.5 C 39 23.007812 38.972656 23.507812 38.925781 24 L 41.933594 24 C 41.972656 23.503906 42 23.003906 42 22.5 C 42 12.527344 33.972656 4.5 24 4.5 Z M 24 4.5 "/>
<path style=" stroke:none;fill-rule:nonzero;fill:rgb(38.039216%,38.039216%,38.039216%);fill-opacity:1;" d="M 4.113281 26.84375 L 7.007812 26.066406 C 7.808594 25.851562 8.632812 26.328125 8.847656 27.128906 L 10.789062 34.371094 C 11.003906 35.171875 10.527344 35.996094 9.726562 36.210938 L 6.828125 36.984375 C 6.03125 37.199219 5.207031 36.726562 4.992188 35.925781 L 3.050781 28.679688 C 2.835938 27.878906 3.3125 27.058594 4.113281 26.84375 Z M 4.113281 26.84375 "/>
<path style=" stroke:none;fill-rule:nonzero;fill:rgb(0%,0%,0%);fill-opacity:0.4;" d="M 24 6.679688 C 15.691406 6.679688 9 13.371094 9 21.679688 C 9 21.839844 9.003906 22 9.007812 22.160156 C 9.1875 14.007812 15.804688 7.5 24 7.5 C 32.195312 7.5 38.8125 14.007812 38.992188 22.160156 C 38.996094 22 39 21.839844 39 21.679688 C 39 13.371094 32.308594 6.679688 24 6.679688 Z M 6.007812 22.171875 C 6.007812 22.28125 6 22.390625 6 22.5 C 6 23.003906 6.027344 23.503906 6.066406 24 L 9.074219 24 C 9.046875 23.730469 9.03125 23.453125 9.019531 23.179688 L 6.066406 23.179688 C 6.039062 22.84375 6.019531 22.507812 6.007812 22.171875 Z M 41.992188 22.171875 C 41.980469 22.507812 41.960938 22.84375 41.933594 23.179688 L 38.980469 23.179688 C 38.96875 23.453125 38.953125 23.730469 38.925781 24 L 41.933594 24 C 41.972656 23.503906 42 23.003906 42 22.5 C 42 22.390625 41.992188 22.28125 41.992188 22.171875 Z M 3.058594 27.890625 C 2.992188 28.140625 2.980469 28.410156 3.050781 28.679688 L 4.992188 35.925781 C 5.207031 36.726562 6.027344 37.199219 6.828125 36.984375 L 9.726562 36.210938 C 10.53125 35.996094 11.003906 35.175781 10.789062 34.371094 L 10.78125 34.351562 C 10.644531 34.839844 10.257812 35.246094 9.726562 35.390625 L 6.828125 36.164062 C 6.027344 36.378906 5.207031 35.90625 4.992188 35.105469 Z M 44.941406 27.890625 L 43.011719 35.105469 C 42.796875 35.90625 41.976562 36.378906 41.175781 36.164062 L 38.273438 35.390625 C 37.746094 35.246094 37.359375 34.839844 37.21875 34.351562 L 37.214844 34.371094 C 37 35.175781 37.472656 35.996094 38.273438 36.210938 L 41.175781 36.984375 C 41.976562 37.199219 42.796875 36.726562 43.011719 35.925781 L 44.953125 28.679688 C 45.023438 28.410156 45.011719 28.140625 44.941406 27.890625 Z M 44.941406 27.890625 "/>
<path style=" stroke:none;fill-rule:nonzero;fill:rgb(100%,100%,100%);fill-opacity:0.4;" d="M 24 4.5 C 14.027344 4.5 6 12.527344 6 22.5 C 6 22.589844 6.003906 22.679688 6.007812 22.773438 C 6.257812 13.023438 14.1875 5.25 24 5.25 C 33.8125 5.25 41.742188 13.023438 41.996094 22.773438 C 41.996094 22.679688 42 22.589844 42 22.5 C 42 12.527344 33.972656 4.5 24 4.5 Z M 9.007812 22.785156 C 9.003906 22.941406 9 23.09375 9 23.25 C 9 23.5 9.007812 23.75 9.019531 24 L 9.074219 24 C 9.035156 23.601562 9.015625 23.195312 9.007812 22.785156 Z M 38.992188 22.785156 C 38.984375 23.195312 38.964844 23.601562 38.925781 24 L 38.980469 24 C 38.992188 23.75 39 23.5 39 23.25 C 39 23.09375 38.996094 22.941406 38.992188 22.785156 Z M 7.382812 26.015625 C 7.261719 26.015625 7.132812 26.035156 7.007812 26.066406 L 4.113281 26.84375 C 3.316406 27.058594 2.84375 27.867188 3.046875 28.664062 C 3.179688 28.160156 3.570312 27.738281 4.113281 27.59375 L 7.007812 26.816406 C 7.132812 26.78125 7.261719 26.765625 7.382812 26.765625 C 8.054688 26.757812 8.664062 27.199219 8.847656 27.878906 L 10.789062 35.121094 C 10.789062 35.125 10.789062 35.125 10.789062 35.125 C 10.847656 34.886719 10.855469 34.628906 10.789062 34.371094 L 8.847656 27.128906 C 8.664062 26.449219 8.054688 26.007812 7.382812 26.015625 Z M 40.542969 26.015625 C 39.90625 26.039062 39.332031 26.476562 39.15625 27.128906 L 37.214844 34.371094 C 37.144531 34.628906 37.152344 34.886719 37.214844 35.125 C 37.214844 35.125 37.214844 35.125 37.214844 35.121094 L 39.15625 27.878906 C 39.332031 27.226562 39.90625 26.792969 40.542969 26.765625 C 40.691406 26.761719 40.84375 26.777344 40.992188 26.816406 L 43.890625 27.59375 C 44.433594 27.738281 44.824219 28.160156 44.953125 28.664062 C 45.15625 27.867188 44.6875 27.058594 43.890625 26.84375 L 40.992188 26.066406 C 40.84375 26.027344 40.691406 26.011719 40.542969 26.015625 Z M 40.542969 26.015625 "/>
<path style=" stroke:none;fill-rule:nonzero;fill:rgb(74.117649%,74.117649%,74.117649%);fill-opacity:0.996078;" d="M 6.570312 21.527344 L 8.019531 21.136719 C 9.617188 20.710938 11.265625 21.660156 11.691406 23.257812 L 15.1875 36.300781 C 15.617188 37.898438 14.664062 39.542969 13.066406 39.972656 L 11.617188 40.363281 C 10.015625 40.789062 8.371094 39.839844 7.941406 38.242188 L 4.449219 25.199219 C 4.019531 23.601562 4.96875 21.957031 6.570312 21.527344 Z M 6.570312 21.527344 "/>
<path style=" stroke:none;fill-rule:nonzero;fill:rgb(74.117649%,74.117649%,74.117649%);fill-opacity:0.996078;" d="M 41.433594 21.527344 L 39.984375 21.136719 C 38.382812 20.710938 36.738281 21.660156 36.308594 23.257812 L 32.816406 36.300781 C 32.386719 37.898438 33.335938 39.542969 34.9375 39.972656 L 36.386719 40.363281 C 37.988281 40.789062 39.632812 39.839844 40.0625 38.242188 L 43.554688 25.199219 C 43.984375 23.601562 43.035156 21.957031 41.433594 21.527344 Z M 41.433594 21.527344 "/>
<path style=" stroke:none;fill-rule:nonzero;fill:rgb(74.117649%,74.117649%,74.117649%);fill-opacity:1;" d="M 12.90625 12.609375 L 11.09375 9.890625 C 10.765625 9.398438 10.828125 8.652344 11.257812 8.246094 C 18.53125 1.375 29.46875 1.375 36.742188 8.246094 C 37.171875 8.652344 37.234375 9.398438 36.90625 9.890625 L 35.09375 12.609375 C 34.765625 13.101562 34.214844 13.113281 33.808594 12.683594 C 29.121094 7.773438 18.878906 7.773438 14.191406 12.683594 C 13.785156 13.113281 13.234375 13.101562 12.90625 12.609375 Z M 12.90625 12.609375 "/>
<path style=" stroke:none;fill-rule:nonzero;fill:rgb(100%,100%,100%);fill-opacity:0.4;" d="M 8.769531 21.035156 C 8.519531 21.039062 8.269531 21.070312 8.019531 21.136719 L 6.570312 21.527344 C 5.085938 21.925781 4.164062 23.355469 4.375 24.839844 C 4.539062 23.6875 5.371094 22.691406 6.570312 22.371094 L 8.019531 21.984375 C 9.625 21.554688 11.261719 22.5 11.691406 24.105469 L 15.1875 37.144531 C 15.21875 37.265625 15.242188 37.382812 15.257812 37.503906 C 15.316406 37.113281 15.296875 36.707031 15.1875 36.300781 L 11.691406 23.257812 C 11.328125 21.902344 10.105469 21.019531 8.769531 21.035156 Z M 8.769531 21.035156 "/>
<path style=" stroke:none;fill-rule:nonzero;fill:rgb(100%,100%,100%);fill-opacity:0.4;" d="M 39.234375 21.035156 C 37.898438 21.019531 36.671875 21.902344 36.308594 23.257812 L 32.816406 36.300781 C 32.707031 36.707031 32.6875 37.113281 32.742188 37.503906 C 32.761719 37.382812 32.785156 37.265625 32.816406 37.144531 L 36.308594 24.105469 C 36.742188 22.5 38.378906 21.554688 39.984375 21.984375 L 41.433594 22.371094 C 42.632812 22.691406 43.460938 23.6875 43.628906 24.839844 C 43.839844 23.355469 42.917969 21.925781 41.433594 21.527344 L 39.984375 21.136719 C 39.734375 21.070312 39.480469 21.039062 39.234375 21.035156 Z M 39.234375 21.035156 "/>
<path style=" stroke:none;fill-rule:nonzero;fill:rgb(100%,100%,100%);fill-opacity:0.4;" d="M 24 3.09375 C 19.445312 3.09375 14.894531 4.8125 11.257812 8.246094 C 10.90625 8.574219 10.800781 9.132812 10.949219 9.59375 C 11.011719 9.402344 11.113281 9.226562 11.257812 9.089844 C 18.53125 2.222656 29.46875 2.222656 36.742188 9.089844 C 36.886719 9.226562 36.988281 9.402344 37.050781 9.59375 C 37.199219 9.132812 37.09375 8.574219 36.742188 8.246094 C 33.105469 4.8125 28.554688 3.09375 24 3.09375 Z M 24 3.09375 "/>
<path style=" stroke:none;fill-rule:nonzero;fill:rgb(0%,0%,0%);fill-opacity:0.4;" d="M 4.371094 24.027344 C 4.320312 24.410156 4.34375 24.804688 4.449219 25.199219 L 7.941406 38.242188 C 8.371094 39.847656 10.011719 40.792969 11.617188 40.363281 L 13.066406 39.972656 C 14.539062 39.578125 15.457031 38.164062 15.261719 36.691406 C 15.109375 37.859375 14.277344 38.871094 13.066406 39.195312 L 11.617188 39.582031 C 10.011719 40.011719 8.371094 39.066406 7.941406 37.460938 L 4.449219 24.421875 C 4.414062 24.292969 4.386719 24.160156 4.371094 24.027344 Z M 4.371094 24.027344 "/>
<path style=" stroke:none;fill-rule:nonzero;fill:rgb(0%,0%,0%);fill-opacity:0.4;" d="M 43.632812 24.027344 C 43.613281 24.160156 43.589844 24.292969 43.554688 24.421875 L 40.058594 37.460938 C 39.628906 39.066406 37.992188 40.011719 36.386719 39.582031 L 34.9375 39.195312 C 33.726562 38.871094 32.890625 37.859375 32.738281 36.691406 C 32.546875 38.164062 33.464844 39.578125 34.9375 39.972656 L 36.386719 40.363281 C 37.992188 40.792969 39.628906 39.847656 40.058594 38.242188 L 43.554688 25.199219 C 43.660156 24.804688 43.683594 24.410156 43.632812 24.027344 Z M 43.632812 24.027344 "/>
<path style=" stroke:none;fill-rule:nonzero;fill:rgb(0%,0%,0%);fill-opacity:0.4;" d="M 24 8.285156 C 20.265625 8.285156 16.535156 9.515625 14.191406 11.972656 C 13.785156 12.398438 13.234375 12.386719 12.90625 11.894531 L 11.09375 9.175781 C 11.019531 9.0625 10.964844 8.941406 10.933594 8.808594 C 10.835938 9.171875 10.886719 9.582031 11.09375 9.890625 L 12.90625 12.609375 C 13.234375 13.101562 13.785156 13.113281 14.191406 12.683594 C 18.878906 7.773438 29.121094 7.773438 33.808594 12.683594 C 34.214844 13.113281 34.765625 13.101562 35.09375 12.609375 L 36.90625 9.890625 C 37.113281 9.582031 37.164062 9.171875 37.066406 8.808594 C 37.035156 8.941406 36.980469 9.0625 36.90625 9.175781 L 35.09375 11.894531 C 34.765625 12.386719 34.214844 12.398438 33.808594 11.972656 C 31.464844 9.515625 27.734375 8.285156 24 8.285156 Z M 24 8.285156 "/>
<path style=" stroke:none;fill-rule:nonzero;fill:url(#linear0);" d="M 24 3.09375 C 19.445312 3.09375 14.894531 4.8125 11.257812 8.246094 C 10.828125 8.652344 10.765625 9.398438 11.09375 9.890625 L 11.109375 9.917969 C 8.113281 12.988281 6.210938 17.132812 6.019531 21.730469 C 4.757812 22.351562 4.070312 23.789062 4.449219 25.199219 L 4.835938 26.648438 L 4.113281 26.84375 C 3.308594 27.058594 2.835938 27.878906 3.050781 28.679688 L 4.992188 35.925781 C 5.207031 36.726562 6.027344 37.199219 6.828125 36.984375 L 7.554688 36.792969 L 7.941406 38.242188 C 8.371094 39.847656 10.011719 40.792969 11.617188 40.363281 L 13.066406 39.972656 C 14.671875 39.542969 15.617188 37.902344 15.1875 36.300781 L 11.691406 23.257812 C 11.355469 22.007812 10.289062 21.15625 9.070312 21.046875 C 9.382812 17.765625 10.746094 14.796875 12.820312 12.480469 L 12.90625 12.609375 C 13.234375 13.101562 13.785156 13.113281 14.191406 12.683594 C 18.878906 7.773438 29.121094 7.773438 33.808594 12.683594 C 34.214844 13.113281 34.765625 13.101562 35.09375 12.609375 L 35.179688 12.480469 C 37.253906 14.796875 38.617188 17.765625 38.929688 21.046875 C 37.714844 21.160156 36.644531 22.007812 36.308594 23.257812 L 32.816406 36.300781 C 32.386719 37.902344 33.332031 39.542969 34.9375 39.972656 L 36.386719 40.363281 C 37.992188 40.792969 39.628906 39.847656 40.058594 38.242188 L 40.449219 36.792969 L 41.175781 36.984375 C 41.976562 37.199219 42.796875 36.726562 43.011719 35.925781 L 44.953125 28.679688 C 45.167969 27.878906 44.695312 27.058594 43.890625 26.84375 L 43.167969 26.648438 L 43.554688 25.199219 C 43.933594 23.789062 43.246094 22.347656 41.980469 21.730469 C 41.789062 17.128906 39.886719 12.988281 36.890625 9.917969 L 36.90625 9.890625 C 37.234375 9.398438 37.171875 8.652344 36.742188 8.246094 C 33.105469 4.8125 28.554688 3.09375 24 3.09375 Z M 24 3.09375 "/>
<path style=" stroke:none;fill-rule:nonzero;fill:rgb(0%,0%,0%);fill-opacity:0.2;" d="M 24 9 C 20.265625 9 16.535156 10.230469 14.191406 12.6875 C 13.785156 13.113281 13.234375 13.101562 12.90625 12.609375 L 12.820312 12.480469 C 10.746094 14.796875 9.382812 17.765625 9.070312 21.046875 C 9.121094 21.050781 9.171875 21.058594 9.21875 21.066406 C 9.703125 18.222656 10.980469 15.65625 12.820312 13.601562 L 12.90625 13.730469 C 13.234375 14.222656 13.785156 14.230469 14.191406 13.804688 C 18.878906 8.890625 29.121094 8.890625 33.808594 13.804688 C 34.214844 14.230469 34.765625 14.222656 35.09375 13.730469 L 35.179688 13.601562 C 37.019531 15.65625 38.296875 18.222656 38.78125 21.066406 C 38.832031 21.058594 38.878906 21.050781 38.929688 21.046875 C 38.617188 17.765625 37.253906 14.796875 35.179688 12.480469 L 35.09375 12.609375 C 34.765625 13.101562 34.214844 13.113281 33.808594 12.6875 C 31.464844 10.230469 27.734375 9 24 9 Z M 11.003906 9.726562 C 10.945312 9.855469 10.90625 10 10.894531 10.144531 C 10.964844 10.070312 11.039062 9.992188 11.109375 9.917969 L 11.09375 9.890625 C 11.058594 9.835938 11.03125 9.78125 11.003906 9.726562 Z M 36.996094 9.726562 C 36.96875 9.78125 36.941406 9.835938 36.90625 9.890625 L 36.890625 9.917969 C 36.960938 9.992188 37.035156 10.070312 37.105469 10.144531 C 37.09375 10 37.054688 9.855469 36.996094 9.726562 Z M 4.398438 24.980469 C 4.316406 25.410156 4.328125 25.867188 4.449219 26.320312 L 4.558594 26.722656 L 4.835938 26.648438 L 4.449219 25.199219 C 4.429688 25.125 4.414062 25.054688 4.398438 24.980469 Z M 43.605469 24.980469 C 43.589844 25.050781 43.574219 25.128906 43.554688 25.199219 L 43.167969 26.648438 L 43.445312 26.722656 L 43.554688 26.320312 C 43.675781 25.867188 43.6875 25.410156 43.605469 24.980469 Z M 3.101562 28.871094 C 2.992188 29.15625 2.964844 29.476562 3.050781 29.800781 L 4.992188 37.042969 C 5.207031 37.847656 6.027344 38.320312 6.828125 38.105469 L 7.554688 37.910156 L 7.941406 39.359375 C 8.371094 40.964844 10.011719 41.910156 11.617188 41.480469 L 13.066406 41.09375 C 14.597656 40.683594 15.527344 39.167969 15.234375 37.636719 C 15.027344 38.730469 14.21875 39.664062 13.066406 39.972656 L 11.617188 40.363281 C 10.011719 40.792969 8.371094 39.847656 7.941406 38.242188 L 7.554688 36.792969 L 6.828125 36.984375 C 6.027344 37.199219 5.207031 36.726562 4.992188 35.925781 Z M 44.902344 28.871094 L 43.011719 35.925781 C 42.796875 36.726562 41.976562 37.199219 41.175781 36.984375 L 40.449219 36.792969 L 40.058594 38.242188 C 39.628906 39.847656 37.992188 40.792969 36.386719 40.363281 L 34.9375 39.972656 C 33.785156 39.664062 32.976562 38.730469 32.769531 37.636719 C 32.472656 39.167969 33.40625 40.683594 34.9375 41.09375 L 36.386719 41.480469 C 37.992188 41.910156 39.628906 40.964844 40.058594 39.359375 L 40.449219 37.910156 L 41.175781 38.105469 C 41.976562 38.320312 42.796875 37.847656 43.011719 37.042969 L 44.953125 29.800781 C 45.039062 29.476562 45.011719 29.15625 44.902344 28.871094 Z M 44.902344 28.871094 "/>
</g>
</svg>
