
<svg xmlns="http://www.w3.org/2000/svg" xmlns:xlink="http://www.w3.org/1999/xlink" width="32" height="32" viewBox="0 0 32 32" version="1.1">
<defs>
<linearGradient id="linear0" gradientUnits="userSpaceOnUse" x1="13.758332" y1="-206.53334" x2="3.175" y2="-206.53334" gradientTransform="matrix(0.000000000000000116,1.889764,-1.889764,0.000000000000000116,-374.29923,0.000000000000022919)">
<stop offset="0" style="stop-color:rgb(0%,0%,0%);stop-opacity:0.2;"/>
<stop offset="1" style="stop-color:rgb(100%,100%,100%);stop-opacity:0;"/>
</linearGradient>
</defs>
<g id="surface1">
<path style=" stroke:none;fill-rule:nonzero;fill:rgb(93.333334%,93.333334%,93.333334%);fill-opacity:0.996078;" d="M 30 8 L 30 24 C 30 25.105469 29.105469 26 28 26 L 4 26 C 2.894531 26 2 25.105469 2 24 L 2 8 C 2 6.894531 2.894531 6 4 6 L 28 6 C 29.105469 6 30 6.894531 30 8 Z M 30 8 "/>
<path style=" stroke:none;fill-rule:nonzero;fill:rgb(100%,100%,100%);fill-opacity:0.6;" d="M 4 6 C 2.890625 6 2 6.890625 2 8 L 2 8.5 C 2 7.390625 2.890625 6.5 4 6.5 L 28 6.5 C 29.109375 6.5 30 7.390625 30 8.5 L 30 8 C 30 6.890625 29.109375 6 28 6 Z M 4 6 "/>
<path style=" stroke:none;fill-rule:nonzero;fill:rgb(100%,43.137255%,25.882354%);fill-opacity:1;" d="M 30 17.347656 C 23.640625 22.675781 13.988281 24.839844 3.03125 25.75 C 3.148438 25.816406 3.273438 25.867188 3.402344 25.910156 L 28.597656 25.910156 C 29.414062 25.65625 30 24.898438 30 24 Z M 30 17.347656 "/>
<path style=" stroke:none;fill-rule:nonzero;fill:rgb(0.392157%,0.392157%,0.392157%);fill-opacity:0.4;" d="M 4 26 C 2.890625 26 2 25.109375 2 24 L 2 23.5 C 2 24.609375 2.890625 25.5 4 25.5 L 28 25.5 C 29.109375 25.5 30 24.609375 30 23.5 L 30 24 C 30 25.109375 29.109375 26 28 26 Z M 4 26 "/>
<path style=" stroke:none;fill-rule:nonzero;fill:rgb(0.392157%,0.392157%,0.392157%);fill-opacity:0.2;" d="M 2 24 L 2 24.75 C 2 25.859375 2.890625 26.75 4 26.75 L 28 26.75 C 29.109375 26.75 30 25.859375 30 24.75 L 30 24 C 30 25.109375 29.109375 26 28 26 L 4 26 C 2.890625 26 2 25.109375 2 24 Z M 2 24 "/>
<path style=" stroke:none;fill-rule:nonzero;fill:rgb(24.705882%,24.705882%,24.705882%);fill-opacity:1;" d="M 3.542969 13 L 3.542969 17 L 4.683594 17 C 5.289062 17 5.722656 16.855469 6.109375 16.539062 C 6.5625 16.160156 6.835938 15.59375 6.835938 15.003906 C 6.835938 13.824219 5.953125 13 4.6875 13 Z M 4.324219 13.679688 L 4.53125 13.679688 C 5.035156 13.679688 5.34375 13.769531 5.601562 14.003906 C 5.871094 14.246094 6.03125 14.613281 6.03125 14.996094 C 6.03125 15.378906 5.871094 15.765625 5.601562 16.003906 C 5.355469 16.226562 5.035156 16.324219 4.53125 16.324219 L 4.324219 16.324219 Z M 4.324219 13.679688 "/>
<path style=" stroke:none;fill-rule:nonzero;fill:rgb(24.705882%,24.705882%,24.705882%);fill-opacity:1;" d="M 25.324219 13 L 25.324219 17.003906 L 26.105469 17.003906 L 26.105469 15.398438 L 26.207031 15.398438 L 27.289062 17.003906 L 28.25 17.003906 L 26.988281 15.320312 C 27.574219 15.199219 27.902344 14.796875 27.902344 14.183594 C 27.902344 13.433594 27.386719 13 26.484375 13 Z M 26.105469 13.632812 L 26.34375 13.632812 C 26.832031 13.632812 27.097656 13.835938 27.097656 14.226562 C 27.097656 14.628906 26.832031 14.84375 26.335938 14.84375 L 26.105469 14.84375 Z M 26.105469 13.632812 "/>
<path style=" stroke:none;fill-rule:nonzero;fill:rgb(24.705882%,24.705882%,24.705882%);fill-opacity:1;" d="M 22.59375 13 L 22.59375 17.003906 L 24.808594 17.003906 L 24.808594 16.328125 L 23.375 16.328125 L 23.375 15.246094 L 24.757812 15.246094 L 24.757812 14.570312 L 23.375 14.570312 L 23.375 13.679688 L 24.808594 13.679688 L 24.808594 13 Z M 22.59375 13 "/>
<path style=" stroke:none;fill-rule:nonzero;fill:rgb(24.705882%,24.705882%,24.705882%);fill-opacity:1;" d="M 18.480469 13 L 20.132812 17 L 20.542969 17 L 22.226562 13 L 21.402344 13 L 20.351562 15.621094 L 19.3125 13 Z M 18.480469 13 "/>
<path style=" stroke:none;fill-rule:nonzero;fill:rgb(24.705882%,24.705882%,24.705882%);fill-opacity:1;" d="M 7.230469 13 L 7.230469 17 L 8.011719 17 L 8.011719 13 Z M 7.230469 13 "/>
<path style=" stroke:none;fill-rule:nonzero;fill:rgb(24.705882%,24.705882%,24.705882%);fill-opacity:1;" d="M 9.679688 13 C 9.003906 13 8.484375 13.472656 8.484375 14.101562 C 8.484375 14.628906 8.722656 14.902344 9.429688 15.152344 C 9.722656 15.257812 9.871094 15.324219 9.949219 15.371094 C 10.09375 15.472656 10.171875 15.609375 10.171875 15.769531 C 10.171875 16.082031 9.921875 16.3125 9.589844 16.3125 C 9.230469 16.3125 8.941406 16.132812 8.773438 15.800781 L 8.285156 16.265625 C 8.628906 16.769531 9.046875 16.996094 9.617188 16.996094 C 10.394531 16.996094 10.941406 16.476562 10.941406 15.738281 C 10.941406 15.125 10.6875 14.847656 9.839844 14.535156 C 9.386719 14.371094 9.253906 14.261719 9.253906 14.054688 C 9.253906 13.8125 9.492188 13.628906 9.816406 13.628906 C 10.039062 13.628906 10.222656 13.71875 10.417969 13.9375 L 10.808594 13.425781 C 10.488281 13.144531 10.101562 13 9.679688 13 Z M 9.679688 13 "/>
<path style=" stroke:none;fill-rule:nonzero;fill:rgb(24.705882%,24.705882%,24.705882%);fill-opacity:1;" d="M 13.289062 13 C 12.167969 13 11.265625 13.882812 11.265625 14.988281 C 11.265625 16.105469 12.144531 16.972656 13.269531 16.972656 C 13.59375 16.972656 13.863281 16.90625 14.203125 16.75 L 14.203125 15.878906 C 13.90625 16.171875 13.644531 16.292969 13.308594 16.292969 C 12.5625 16.292969 12.03125 15.753906 12.03125 14.984375 C 12.03125 14.253906 12.578125 13.679688 13.269531 13.679688 C 13.628906 13.679688 13.894531 13.804688 14.203125 14.105469 L 14.203125 13.234375 C 13.878906 13.066406 13.609375 13 13.289062 13 Z M 13.289062 13 "/>
<path style=" stroke:none;fill-rule:nonzero;fill:rgb(100%,43.921569%,26.274511%);fill-opacity:0.996078;" d="M 16.5 13 C 17.605469 13 18.5 13.894531 18.5 15 C 18.5 16.105469 17.605469 17 16.5 17 C 15.394531 17 14.5 16.105469 14.5 15 C 14.5 13.894531 15.394531 13 16.5 13 Z M 16.5 13 "/>
<path style=" stroke:none;fill-rule:nonzero;fill:rgb(100%,100%,100%);fill-opacity:0.4;" d="M 3.542969 13 L 3.542969 13.25 L 4.6875 13.25 C 5.898438 13.25 6.757812 14.003906 6.828125 15.101562 C 6.832031 15.070312 6.835938 15.035156 6.835938 15.003906 C 6.835938 13.824219 5.953125 13 4.6875 13 Z M 7.230469 13 L 7.230469 13.25 L 8.011719 13.25 L 8.011719 13 Z M 9.648438 13 C 8.984375 13.015625 8.484375 13.480469 8.484375 14.101562 C 8.484375 14.144531 8.488281 14.183594 8.492188 14.222656 C 8.554688 13.667969 9.03125 13.265625 9.648438 13.25 C 9.660156 13.25 9.667969 13.25 9.679688 13.25 C 10.050781 13.25 10.394531 13.359375 10.691406 13.578125 L 10.808594 13.425781 C 10.488281 13.144531 10.101562 13 9.679688 13 C 9.667969 13 9.660156 13 9.648438 13 Z M 13.289062 13 C 12.167969 13 11.265625 13.882812 11.265625 14.988281 C 11.265625 15.027344 11.269531 15.066406 11.273438 15.105469 C 11.34375 14.0625 12.214844 13.25 13.289062 13.25 C 13.609375 13.25 13.878906 13.316406 14.203125 13.484375 L 14.203125 13.234375 C 13.878906 13.066406 13.609375 13 13.289062 13 Z M 16.5 13 C 15.390625 13 14.5 13.890625 14.5 15 C 14.5 15.035156 14.503906 15.074219 14.507812 15.109375 C 14.578125 14.066406 15.4375 13.25 16.5 13.25 C 17.5625 13.25 18.421875 14.066406 18.492188 15.109375 C 18.496094 15.074219 18.5 15.035156 18.5 15 C 18.5 13.890625 17.609375 13 16.5 13 Z M 18.480469 13 L 18.582031 13.25 L 19.3125 13.25 L 20.351562 15.871094 L 21.402344 13.25 L 22.121094 13.25 L 22.226562 13 L 21.402344 13 L 20.351562 15.621094 L 19.3125 13 Z M 22.59375 13 L 22.59375 13.25 L 24.808594 13.25 L 24.808594 13 Z M 25.324219 13 L 25.324219 13.25 L 26.484375 13.25 C 27.324219 13.25 27.832031 13.628906 27.894531 14.289062 C 27.894531 14.253906 27.898438 14.21875 27.898438 14.183594 C 27.898438 13.433594 27.386719 13 26.484375 13 Z M 9.277344 14.179688 C 9.261719 14.21875 9.253906 14.257812 9.253906 14.304688 C 9.253906 14.511719 9.386719 14.621094 9.835938 14.789062 C 10.625 15.074219 10.898438 15.332031 10.9375 15.851562 C 10.941406 15.816406 10.941406 15.777344 10.941406 15.734375 C 10.941406 15.125 10.6875 14.847656 9.835938 14.539062 C 9.488281 14.410156 9.332031 14.3125 9.277344 14.179688 Z M 27.085938 14.351562 C 27.035156 14.671875 26.78125 14.84375 26.335938 14.84375 L 26.109375 14.84375 L 26.109375 15.09375 L 26.335938 15.09375 C 26.832031 15.09375 27.097656 14.878906 27.097656 14.476562 C 27.097656 14.433594 27.09375 14.390625 27.085938 14.351562 Z M 23.375 14.570312 L 23.375 14.820312 L 24.757812 14.820312 L 24.757812 14.570312 Z M 12.039062 15.109375 C 12.035156 15.152344 12.03125 15.191406 12.03125 15.234375 C 12.03125 16.003906 12.5625 16.542969 13.304688 16.542969 C 13.644531 16.542969 13.90625 16.421875 14.203125 16.128906 L 14.203125 15.878906 C 13.90625 16.171875 13.644531 16.292969 13.304688 16.292969 C 12.601562 16.292969 12.09375 15.8125 12.039062 15.109375 Z M 6.027344 15.117188 C 5.996094 15.460938 5.839844 15.789062 5.601562 16.003906 C 5.355469 16.226562 5.035156 16.324219 4.53125 16.324219 L 4.320312 16.324219 L 4.320312 16.574219 L 4.53125 16.574219 C 5.035156 16.574219 5.355469 16.476562 5.601562 16.253906 C 5.871094 16.015625 6.03125 15.628906 6.03125 15.25 C 6.03125 15.203125 6.03125 15.160156 6.027344 15.117188 Z M 27.148438 15.527344 C 27.097656 15.542969 27.042969 15.558594 26.992188 15.570312 L 28.0625 17.003906 L 28.25 17.003906 Z M 8.773438 15.800781 L 8.285156 16.265625 C 8.320312 16.316406 8.359375 16.363281 8.394531 16.410156 L 8.773438 16.050781 C 8.941406 16.382812 9.230469 16.5625 9.589844 16.5625 C 9.925781 16.5625 10.171875 16.332031 10.171875 16.019531 C 10.171875 15.976562 10.164062 15.9375 10.15625 15.898438 C 10.097656 16.140625 9.875 16.3125 9.589844 16.3125 C 9.230469 16.3125 8.941406 16.132812 8.773438 15.800781 Z M 23.375 16.328125 L 23.375 16.578125 L 24.808594 16.578125 L 24.808594 16.328125 Z M 23.375 16.328125 "/>
<path style=" stroke:none;fill-rule:nonzero;fill:rgb(0%,0%,0%);fill-opacity:0.4;" d="M 18.480469 13.246094 L 20.132812 17.246094 L 20.546875 17.246094 L 22.226562 13.246094 L 22.121094 13.246094 L 20.546875 16.996094 L 20.132812 16.996094 L 18.582031 13.246094 Z M 10.691406 13.578125 L 10.417969 13.933594 C 10.222656 13.714844 10.039062 13.625 9.816406 13.625 C 9.492188 13.625 9.253906 13.808594 9.253906 14.046875 C 9.253906 14.09375 9.261719 14.136719 9.277344 14.175781 C 9.34375 13.996094 9.550781 13.875 9.816406 13.875 C 10.039062 13.875 10.222656 13.964844 10.417969 14.183594 L 10.808594 13.671875 C 10.769531 13.636719 10.730469 13.605469 10.691406 13.578125 Z M 26.109375 13.625 L 26.109375 13.875 L 26.34375 13.875 C 26.78125 13.875 27.035156 14.039062 27.085938 14.351562 C 27.09375 14.308594 27.097656 14.265625 27.097656 14.222656 C 27.097656 13.832031 26.832031 13.625 26.34375 13.625 Z M 13.273438 13.671875 C 12.578125 13.671875 12.03125 14.25 12.03125 14.980469 C 12.03125 15.023438 12.035156 15.066406 12.039062 15.109375 C 12.09375 14.4375 12.617188 13.921875 13.273438 13.921875 C 13.628906 13.921875 13.890625 14.050781 14.203125 14.351562 L 14.203125 14.101562 C 13.890625 13.800781 13.628906 13.671875 13.273438 13.671875 Z M 4.320312 13.675781 L 4.320312 13.925781 L 4.53125 13.925781 C 5.035156 13.925781 5.34375 14.015625 5.601562 14.25 C 5.839844 14.464844 5.996094 14.78125 6.027344 15.117188 C 6.03125 15.078125 6.03125 15.035156 6.03125 14.992188 C 6.03125 14.609375 5.871094 14.242188 5.601562 14 C 5.34375 13.765625 5.035156 13.675781 4.53125 13.675781 Z M 23.375 13.675781 L 23.375 13.925781 L 24.808594 13.925781 L 24.808594 13.675781 Z M 8.492188 14.226562 C 8.488281 14.265625 8.484375 14.304688 8.484375 14.347656 C 8.484375 14.875 8.722656 15.148438 9.429688 15.398438 C 9.722656 15.503906 9.871094 15.570312 9.949219 15.617188 C 10.054688 15.691406 10.125 15.785156 10.15625 15.894531 C 10.164062 15.851562 10.171875 15.808594 10.171875 15.765625 C 10.171875 15.605469 10.09375 15.46875 9.949219 15.367188 C 9.871094 15.320312 9.722656 15.253906 9.429688 15.148438 C 8.785156 14.917969 8.53125 14.671875 8.492188 14.226562 Z M 27.894531 14.304688 C 27.851562 14.847656 27.535156 15.203125 26.992188 15.316406 L 27.148438 15.523438 C 27.632812 15.367188 27.898438 14.984375 27.898438 14.429688 C 27.898438 14.386719 27.898438 14.347656 27.894531 14.304688 Z M 11.273438 15.113281 C 11.269531 15.152344 11.265625 15.195312 11.265625 15.234375 C 11.265625 16.351562 12.144531 17.21875 13.273438 17.21875 C 13.59375 17.21875 13.863281 17.15625 14.203125 16.996094 L 14.203125 16.746094 C 13.863281 16.90625 13.59375 16.96875 13.273438 16.96875 C 12.1875 16.96875 11.335938 16.167969 11.273438 15.113281 Z M 14.503906 15.121094 C 14.503906 15.164062 14.5 15.203125 14.5 15.246094 C 14.5 16.355469 15.390625 17.246094 16.5 17.246094 C 17.609375 17.246094 18.5 16.355469 18.5 15.246094 C 18.5 15.203125 18.496094 15.164062 18.496094 15.121094 C 18.429688 16.171875 17.566406 16.996094 16.5 16.996094 C 15.433594 16.996094 14.570312 16.171875 14.503906 15.121094 Z M 6.832031 15.125 C 6.796875 15.667969 6.53125 16.183594 6.109375 16.535156 C 5.722656 16.851562 5.289062 16.996094 4.6875 16.996094 L 3.542969 16.996094 L 3.542969 17.246094 L 4.6875 17.246094 C 5.289062 17.246094 5.722656 17.101562 6.109375 16.785156 C 6.5625 16.40625 6.835938 15.839844 6.835938 15.25 C 6.835938 15.207031 6.835938 15.164062 6.832031 15.125 Z M 23.375 15.242188 L 23.375 15.492188 L 24.757812 15.492188 L 24.757812 15.242188 Z M 26.109375 15.390625 L 26.109375 15.640625 L 26.210938 15.640625 L 27.289062 17.25 L 28.25 17.25 L 28.0625 17 L 27.289062 17 L 26.210938 15.390625 Z M 10.9375 15.851562 C 10.882812 16.527344 10.355469 16.992188 9.617188 16.992188 C 9.105469 16.992188 8.71875 16.808594 8.394531 16.40625 L 8.285156 16.511719 C 8.628906 17.015625 9.046875 17.242188 9.617188 17.242188 C 10.394531 17.242188 10.941406 16.722656 10.941406 15.984375 C 10.941406 15.9375 10.941406 15.890625 10.9375 15.851562 Z M 7.230469 16.996094 L 7.230469 17.246094 L 8.011719 17.246094 L 8.011719 16.996094 Z M 22.59375 17 L 22.59375 17.25 L 24.808594 17.25 L 24.808594 17 Z M 25.324219 17 L 25.324219 17.25 L 26.109375 17.25 L 26.109375 17 Z M 25.324219 17 "/>
<path style=" stroke:none;fill-rule:nonzero;fill:url(#linear0);" d="M 30 8 L 30 24 C 30 25.105469 29.105469 26 28 26 L 4 26 C 2.894531 26 2 25.105469 2 24 L 2 8 C 2 6.894531 2.894531 6 4 6 L 28 6 C 29.105469 6 30 6.894531 30 8 Z M 30 8 "/>
</g>
</svg>
