
<svg xmlns="http://www.w3.org/2000/svg" xmlns:xlink="http://www.w3.org/1999/xlink" width="48" height="48" viewBox="0 0 48 48" version="1.1">
<defs>
<linearGradient id="linear0" gradientUnits="userSpaceOnUse" x1="31.999998" y1="59.999996" x2="31.999998" y2="3.999999" gradientTransform="matrix(0.75,0,0,0.75,0,0.000000000000085265)">
<stop offset="0" style="stop-color:rgb(0%,0%,0%);stop-opacity:0.2;"/>
<stop offset="1" style="stop-color:rgb(100%,100%,100%);stop-opacity:0;"/>
</linearGradient>
</defs>
<g id="surface1">
<path style=" stroke:none;fill-rule:nonzero;fill:rgb(25.882354%,64.705884%,96.078432%);fill-opacity:1;" d="M 23.992188 4.507812 C 22.46875 4.507812 21.996094 6.183594 21.308594 7.296875 C 15.304688 18.199219 9.269531 29.085938 3.28125 39.996094 C 2.894531 40.800781 2.914062 41.445312 3.25 41.960938 L 3.996094 41.359375 C 9.167969 37.171875 14.410156 32.996094 19.519531 28.796875 C 21.851562 26.902344 24.175781 25.003906 26.507812 23.109375 C 26.550781 23 26.378906 22.078125 26.335938 21.667969 C 25.554688 15.945312 24.777344 10.226562 23.992188 4.507812 Z M 23.992188 4.507812 "/>
<path style=" stroke:none;fill-rule:nonzero;fill:rgb(40.000001%,72.941178%,40.784314%);fill-opacity:1;" d="M 17.472656 30.523438 L 3.25 41.964844 C 3.582031 42.660156 4.277344 43.132812 5.082031 43.132812 L 42.824219 43.132812 C 43.570312 43.132812 44.21875 42.726562 44.570312 42.125 L 22.761719 32.773438 Z M 17.472656 30.523438 "/>
<path style=" stroke:none;fill-rule:nonzero;fill:rgb(93.333334%,31.764707%,30.980393%);fill-opacity:1;" d="M 23.992188 4.5 L 28.085938 35.039062 C 26.3125 34.28125 24.539062 33.527344 22.765625 32.773438 L 44.570312 42.125 C 45.589844 40.730469 44.386719 39.265625 43.742188 38.03125 C 37.710938 27.128906 31.726562 16.195312 25.664062 5.3125 C 25.289062 4.792969 24.617188 4.492188 23.992188 4.5 Z M 17.445312 30.511719 C 12.71875 34.332031 7.976562 38.144531 3.25 41.964844 C 7.988281 38.148438 12.734375 34.335938 17.472656 30.523438 Z M 3.046875 41.046875 L 3.046875 41.105469 Z M 3.046875 41.125 L 3.046875 41.167969 Z M 3.046875 41.183594 L 3.050781 41.222656 Z M 3.054688 41.246094 L 3.054688 41.28125 Z M 3.058594 41.300781 L 3.0625 41.335938 Z M 3.0625 41.359375 L 3.074219 41.402344 Z M 3.074219 41.410156 L 3.085938 41.480469 Z M 3.101562 41.554688 L 3.105469 41.578125 Z M 3.128906 41.65625 L 3.136719 41.679688 Z M 3.164062 41.753906 L 3.171875 41.785156 Z M 3.203125 41.859375 L 3.210938 41.875 Z M 3.238281 41.933594 L 3.25 41.960938 Z M 3.285156 42.027344 L 3.304688 42.066406 Z M 3.324219 42.105469 L 3.347656 42.144531 Z M 44.570312 42.121094 L 44.539062 42.171875 Z M 44.539062 42.175781 L 44.503906 42.226562 Z M 3.371094 42.1875 L 3.410156 42.238281 Z M 44.503906 42.230469 L 44.464844 42.285156 Z M 3.433594 42.28125 L 3.460938 42.316406 Z M 44.464844 42.285156 L 44.425781 42.335938 Z M 44.425781 42.339844 L 44.390625 42.382812 Z M 3.492188 42.351562 L 3.511719 42.382812 Z M 44.382812 42.390625 L 44.347656 42.429688 Z M 3.5625 42.441406 L 3.589844 42.46875 Z M 44.339844 42.441406 L 44.304688 42.480469 Z M 44.296875 42.492188 L 44.257812 42.523438 Z M 3.625 42.503906 L 3.648438 42.535156 Z M 44.25 42.535156 L 44.214844 42.570312 Z M 3.691406 42.574219 L 3.730469 42.605469 Z M 44.203125 42.582031 L 44.167969 42.613281 Z M 44.152344 42.621094 L 44.117188 42.652344 Z M 3.769531 42.636719 L 3.800781 42.664062 Z M 44.101562 42.664062 L 44.0625 42.691406 Z M 3.84375 42.695312 L 3.867188 42.710938 Z M 44.054688 42.699219 L 44.015625 42.726562 Z M 43.996094 42.738281 L 43.964844 42.765625 Z M 3.929688 42.757812 L 3.960938 42.773438 Z M 43.941406 42.777344 L 43.910156 42.804688 Z M 4.007812 42.808594 L 4.03125 42.820312 Z M 43.886719 42.8125 L 43.851562 42.835938 Z M 43.832031 42.847656 L 43.792969 42.863281 Z M 4.101562 42.855469 L 4.125 42.871094 Z M 43.769531 42.878906 L 43.738281 42.894531 Z M 4.183594 42.90625 L 4.214844 42.917969 Z M 43.710938 42.90625 L 43.675781 42.921875 Z M 43.652344 42.933594 L 43.621094 42.949219 Z M 4.273438 42.945312 L 4.296875 42.953125 Z M 43.585938 42.960938 L 43.554688 42.972656 Z M 4.371094 42.984375 L 4.398438 42.988281 Z M 43.53125 42.984375 L 43.496094 42.992188 Z M 43.464844 43.003906 L 43.429688 43.019531 Z M 4.464844 43.011719 L 4.484375 43.019531 Z M 43.402344 43.023438 L 43.367188 43.03125 Z M 43.339844 43.039062 L 43.296875 43.046875 Z M 43.277344 43.050781 L 43.234375 43.0625 Z M 4.660156 43.0625 L 4.683594 43.066406 Z M 43.203125 43.070312 L 43.167969 43.074219 Z M 4.757812 43.078125 L 4.777344 43.082031 Z M 43.128906 43.082031 L 43.105469 43.085938 Z M 43.054688 43.09375 L 43.035156 43.09375 Z M 4.867188 43.09375 L 4.933594 43.101562 Z M 42.984375 43.101562 L 42.960938 43.101562 Z M 4.941406 43.101562 L 4.996094 43.101562 Z M 42.917969 43.101562 L 42.894531 43.101562 Z M 5.015625 43.101562 L 5.082031 43.105469 Z M 5.015625 43.101562 "/>
<path style=" stroke:none;fill-rule:nonzero;fill:rgb(0%,0%,0%);fill-opacity:0.2;" d="M 26.488281 23.121094 C 24.167969 25.011719 21.847656 26.902344 19.519531 28.796875 C 18.242188 29.84375 16.957031 30.894531 15.664062 31.941406 C 16.257812 31.460938 16.851562 30.984375 17.441406 30.507812 L 17.472656 30.519531 L 18.332031 30.886719 C 18.726562 30.5625 19.125 30.238281 19.519531 29.914062 C 21.847656 28.023438 24.167969 26.128906 26.488281 24.238281 L 27.925781 34.96875 C 27.980469 34.988281 28.035156 35.011719 28.085938 35.035156 Z M 10.207031 36.347656 C 8.132812 38.015625 6.058594 39.683594 3.996094 41.355469 L 3.25 41.957031 C 3.179688 41.851562 3.125 41.742188 3.085938 41.625 C 2.921875 42.195312 2.988281 42.675781 3.25 43.078125 L 3.78125 42.644531 C 3.753906 42.625 3.726562 42.601562 3.699219 42.578125 L 3.691406 42.574219 C 3.65625 42.539062 3.621094 42.503906 3.589844 42.464844 L 3.5625 42.441406 C 3.507812 42.375 3.457031 42.308594 3.410156 42.238281 L 3.390625 42.210938 C 3.335938 42.132812 3.289062 42.050781 3.25 41.964844 C 5.566406 40.089844 7.886719 38.21875 10.207031 36.347656 Z M 44.886719 41.492188 C 44.828125 41.703125 44.722656 41.910156 44.574219 42.117188 C 44.21875 42.722656 43.570312 43.128906 42.824219 43.128906 L 5.082031 43.128906 C 4.589844 43.128906 4.136719 42.949219 3.785156 42.652344 C 3.605469 42.792969 3.425781 42.9375 3.25 43.082031 C 3.289062 43.167969 3.335938 43.253906 3.390625 43.332031 L 3.410156 43.355469 C 3.457031 43.425781 3.507812 43.496094 3.5625 43.558594 L 3.589844 43.582031 C 3.621094 43.621094 3.65625 43.65625 3.691406 43.691406 L 3.699219 43.695312 C 4.0625 44.039062 4.550781 44.246094 5.082031 44.246094 L 42.824219 44.246094 C 43.570312 44.246094 44.21875 43.839844 44.574219 43.238281 C 44.992188 42.660156 45.03125 42.074219 44.886719 41.492188 Z M 3.433594 43.394531 L 3.460938 43.429688 Z M 3.433594 43.394531 "/>
<path style=" stroke:none;fill-rule:nonzero;fill:rgb(100%,100%,100%);fill-opacity:0.4;" d="M 23.992188 4.5 L 24.058594 4.992188 C 24.035156 4.832031 24.015625 4.671875 23.992188 4.507812 C 22.46875 4.507812 21.996094 6.183594 21.308594 7.296875 C 15.304688 18.199219 9.269531 29.085938 3.28125 39.996094 C 3.015625 40.554688 2.945312 41.03125 3.035156 41.441406 C 3.078125 41.222656 3.160156 40.988281 3.28125 40.738281 C 9.269531 29.828125 15.304688 18.941406 21.308594 8.039062 C 21.996094 6.925781 22.46875 5.25 23.992188 5.25 C 24.015625 5.410156 24.035156 5.574219 24.058594 5.734375 L 23.992188 5.242188 C 24.617188 5.230469 25.289062 5.535156 25.664062 6.054688 C 31.722656 16.9375 37.710938 27.867188 43.742188 38.773438 C 44.148438 39.554688 44.78125 40.425781 44.929688 41.316406 C 45.144531 40.175781 44.261719 39.03125 43.742188 38.035156 C 37.710938 27.128906 31.722656 16.195312 25.664062 5.3125 C 25.289062 4.792969 24.617188 4.492188 23.992188 4.5 Z M 18.027344 30.761719 C 17.242188 31.402344 16.457031 32.042969 15.664062 32.683594 C 16.257812 32.207031 16.851562 31.730469 17.441406 31.25 L 17.472656 31.265625 L 22.761719 33.511719 L 44.109375 42.664062 L 22.765625 33.511719 C 24.539062 34.269531 26.3125 35.023438 28.085938 35.777344 L 27.984375 35.011719 L 22.761719 32.769531 Z M 22.765625 32.769531 L 27.984375 35.011719 L 27.980469 34.992188 C 26.242188 34.25 24.503906 33.511719 22.765625 32.769531 Z M 10.207031 37.09375 C 8.132812 38.761719 6.058594 40.429688 3.996094 42.097656 L 3.566406 42.445312 L 3.570312 42.449219 C 5.78125 40.664062 7.992188 38.878906 10.207031 37.09375 Z M 3.433594 43.019531 L 3.460938 43.054688 Z M 3.433594 43.019531 "/>
<path style=" stroke:none;fill-rule:nonzero;fill:rgb(0%,0%,0%);fill-opacity:0.4;" d="M 26.488281 22.25 C 24.167969 24.140625 21.847656 26.035156 19.519531 27.925781 C 18.242188 28.976562 16.957031 30.023438 15.664062 31.070312 C 16.257812 30.59375 16.851562 30.113281 17.441406 29.636719 L 17.472656 29.652344 L 18.132812 29.929688 C 18.59375 29.554688 19.058594 29.175781 19.519531 28.800781 C 21.847656 26.90625 24.167969 25.015625 26.488281 23.121094 L 27.960938 34.113281 C 28.003906 34.128906 28.046875 34.148438 28.085938 34.164062 Z M 10.207031 35.480469 C 8.132812 37.148438 6.058594 38.8125 3.996094 40.484375 L 3.25 41.085938 C 3.160156 40.949219 3.09375 40.800781 3.050781 40.644531 C 2.933594 41.15625 3.007812 41.59375 3.25 41.960938 L 3.636719 41.644531 C 3.621094 41.628906 3.605469 41.613281 3.589844 41.597656 L 3.5625 41.570312 C 3.507812 41.507812 3.457031 41.4375 3.410156 41.367188 L 3.390625 41.34375 C 3.335938 41.261719 3.289062 41.179688 3.25 41.09375 C 5.566406 39.222656 7.886719 37.347656 10.207031 35.480469 Z M 44.917969 40.507812 C 44.863281 40.757812 44.75 41.003906 44.574219 41.25 C 44.425781 41.496094 44.230469 41.710938 44 41.878906 C 43.667969 42.117188 43.261719 42.257812 42.824219 42.257812 L 5.082031 42.257812 C 4.550781 42.257812 4.0625 42.050781 3.699219 41.707031 L 3.691406 41.703125 C 3.675781 41.6875 3.660156 41.667969 3.640625 41.648438 C 3.511719 41.753906 3.378906 41.859375 3.25 41.964844 C 3.289062 42.054688 3.335938 42.136719 3.390625 42.214844 L 3.410156 42.238281 C 3.457031 42.308594 3.507812 42.378906 3.5625 42.441406 L 3.589844 42.46875 C 3.621094 42.503906 3.65625 42.542969 3.691406 42.574219 L 3.699219 42.582031 C 4.0625 42.921875 4.550781 43.132812 5.082031 43.132812 L 42.824219 43.132812 C 43.570312 43.132812 44.21875 42.726562 44.574219 42.121094 C 44.960938 41.589844 45.023438 41.046875 44.917969 40.507812 Z M 3.433594 42.28125 L 3.460938 42.316406 Z M 3.492188 42.355469 L 3.511719 42.386719 Z M 3.492188 42.355469 "/>
<path style=" stroke:none;fill-rule:nonzero;fill:url(#linear0);" d="M 23.992188 4.5 L 24.058594 4.992188 C 24.035156 4.832031 24.015625 4.671875 23.992188 4.507812 C 22.46875 4.507812 21.996094 6.183594 21.308594 7.296875 C 15.304688 18.199219 9.269531 29.085938 3.28125 39.996094 C 2.894531 40.804688 2.914062 41.445312 3.25 41.960938 L 3.996094 41.355469 C 6.058594 39.6875 8.132812 38.019531 10.207031 36.351562 C 7.886719 38.222656 5.566406 40.09375 3.25 41.964844 C 3.289062 42.054688 3.335938 42.136719 3.390625 42.214844 L 3.410156 42.238281 C 3.457031 42.308594 3.507812 42.378906 3.5625 42.441406 L 3.589844 42.46875 C 3.621094 42.503906 3.65625 42.542969 3.691406 42.574219 L 3.699219 42.582031 C 4.0625 42.921875 4.550781 43.132812 5.082031 43.132812 L 42.824219 43.132812 C 43.570312 43.132812 44.21875 42.726562 44.574219 42.121094 L 22.761719 32.769531 L 17.472656 30.523438 L 17.441406 30.511719 C 16.851562 30.988281 16.257812 31.464844 15.664062 31.945312 C 16.957031 30.898438 18.242188 29.847656 19.519531 28.800781 C 21.847656 26.90625 24.167969 25.015625 26.488281 23.121094 L 28.085938 35.039062 C 26.3125 34.28125 24.539062 33.527344 22.765625 32.769531 L 44.574219 42.121094 C 45.589844 40.730469 44.386719 39.265625 43.742188 38.035156 C 37.710938 27.128906 31.722656 16.195312 25.664062 5.3125 C 25.289062 4.792969 24.617188 4.492188 23.992188 4.5 Z M 3.433594 42.28125 L 3.460938 42.316406 Z M 3.492188 42.355469 L 3.511719 42.386719 Z M 3.492188 42.355469 "/>
</g>
</svg>
