
<svg xmlns="http://www.w3.org/2000/svg" xmlns:xlink="http://www.w3.org/1999/xlink" width="48" height="48" viewBox="0 0 48 48" version="1.1">
<defs>
<linearGradient id="linear0" gradientUnits="userSpaceOnUse" x1="31.999998" y1="60" x2="31.999998" y2="3.999999" gradientTransform="matrix(0.75,0,0,0.75,0,0.000000000000085265)">
<stop offset="0" style="stop-color:rgb(0%,0%,0%);stop-opacity:0.2;"/>
<stop offset="1" style="stop-color:rgb(100%,100%,100%);stop-opacity:0;"/>
</linearGradient>
</defs>
<g id="surface1">
<path style=" stroke:none;fill-rule:nonzero;fill:rgb(38.039216%,38.039216%,38.039216%);fill-opacity:1;" d="M 21 4.5 L 27 4.5 L 27 7.5 L 21 7.5 Z M 21 4.5 "/>
<path style=" stroke:none;fill-rule:nonzero;fill:rgb(55.29412%,43.137255%,38.82353%);fill-opacity:1;" d="M 6 31.5 L 42 31.5 C 43.65625 31.5 45 32.84375 45 34.5 L 45 42 C 45 43.65625 43.65625 45 42 45 L 6 45 C 4.34375 45 3 43.65625 3 42 L 3 34.5 C 3 32.84375 4.34375 31.5 6 31.5 Z M 6 31.5 "/>
<path style=" stroke:none;fill-rule:nonzero;fill:rgb(87.843138%,87.843138%,87.843138%);fill-opacity:1;" d="M 24 6 C 13.195312 6 4.5 14.695312 4.5 25.5 L 4.5 28.5 L 43.5 28.5 L 43.5 25.5 C 43.5 14.695312 34.804688 6 24 6 Z M 24 6 "/>
<path style=" stroke:none;fill-rule:nonzero;fill:rgb(74.117649%,74.117649%,74.117649%);fill-opacity:1;" d="M 24 3 C 21.507812 3 19.5 3.667969 19.5 4.5 L 19.5 6 L 28.5 6 L 28.5 4.5 C 28.5 3.667969 26.492188 3 24 3 Z M 24 3 "/>
<path style=" stroke:none;fill-rule:nonzero;fill:rgb(38.039216%,38.039216%,38.039216%);fill-opacity:1;" d="M 7.5 28.5 L 40.5 28.5 L 40.5 31.5 L 7.5 31.5 Z M 7.5 28.5 "/>
<path style=" stroke:none;fill-rule:nonzero;fill:rgb(100%,100%,100%);fill-opacity:0.6;" d="M 24 6 C 13.195312 6 4.5 14.695312 4.5 25.5 L 4.5 26.25 C 4.5 15.445312 13.195312 6.75 24 6.75 C 34.804688 6.75 43.5 15.445312 43.5 26.25 L 43.5 25.5 C 43.5 14.695312 34.804688 6 24 6 Z M 24 6 "/>
<path style=" stroke:none;fill-rule:nonzero;fill:rgb(0%,0%,0%);fill-opacity:0.4;" d="M 4.5 27.75 L 4.5 28.5 L 43.5 28.5 L 43.5 27.75 Z M 4.5 27.75 "/>
<path style=" stroke:none;fill-rule:nonzero;fill:rgb(0%,0%,0%);fill-opacity:0.4;" d="M 7.5 28.5 L 7.5 29.25 L 40.5 29.25 L 40.5 28.5 Z M 7.5 28.5 "/>
<path style=" stroke:none;fill-rule:nonzero;fill:rgb(100%,100%,100%);fill-opacity:0.4;" d="M 6 31.5 C 4.339844 31.5 3 32.839844 3 34.5 L 3 35.25 C 3 33.589844 4.339844 32.25 6 32.25 L 42 32.25 C 43.660156 32.25 45 33.589844 45 35.25 L 45 34.5 C 45 32.839844 43.660156 31.5 42 31.5 Z M 6 31.5 "/>
<path style=" stroke:none;fill-rule:nonzero;fill:rgb(0.392157%,0.392157%,0.392157%);fill-opacity:0.4;" d="M 6 45 C 4.339844 45 3 43.660156 3 42 L 3 41.25 C 3 42.910156 4.339844 44.25 6 44.25 L 42 44.25 C 43.660156 44.25 45 42.910156 45 41.25 L 45 42 C 45 43.660156 43.660156 45 42 45 Z M 6 45 "/>
<path style=" stroke:none;fill-rule:nonzero;fill:rgb(0%,0%,0%);fill-opacity:0.2;" d="M 3 42 L 3 43.125 C 3 44.789062 4.339844 46.125 6 46.125 L 42 46.125 C 43.660156 46.125 45 44.789062 45 43.125 L 45 42 C 45 43.660156 43.660156 45 42 45 L 6 45 C 4.339844 45 3 43.660156 3 42 Z M 3 42 "/>
<path style=" stroke:none;fill-rule:nonzero;fill:rgb(74.117649%,74.117649%,74.117649%);fill-opacity:1;" d="M 24 3 C 21.507812 3 19.5 3.667969 19.5 4.5 L 19.5 6 L 28.5 6 L 28.5 4.5 C 28.5 3.667969 26.492188 3 24 3 Z M 24 3 "/>
<path style=" stroke:none;fill-rule:nonzero;fill:rgb(0%,0%,0%);fill-opacity:0.4;" d="M 19.5 5.25 L 19.5 6 L 28.5 6 L 28.5 5.25 Z M 19.5 5.25 "/>
<path style=" stroke:none;fill-rule:nonzero;fill:rgb(100%,100%,100%);fill-opacity:0.4;" d="M 24 3 C 21.507812 3 19.5 3.667969 19.5 4.5 L 19.5 5.25 C 19.5 4.417969 21.507812 3.75 24 3.75 C 26.492188 3.75 28.5 4.417969 28.5 5.25 L 28.5 4.5 C 28.5 3.667969 26.492188 3 24 3 Z M 24 3 "/>
<path style=" stroke:none;fill-rule:nonzero;fill:url(#linear0);" d="M 24 3 C 21.507812 3 19.5 3.667969 19.5 4.5 L 19.5 6 L 21 6 L 21 6.226562 C 11.632812 7.660156 4.5 15.71875 4.5 25.5 L 4.5 28.5 L 7.5 28.5 L 7.5 31.5 L 6 31.5 C 4.339844 31.5 3 32.839844 3 34.5 L 3 42 C 3 43.660156 4.339844 45 6 45 L 42 45 C 42.777344 45 43.484375 44.707031 44.019531 44.222656 C 44.621094 43.675781 45 42.882812 45 42 L 45 34.5 C 45 32.839844 43.660156 31.5 42 31.5 L 40.5 31.5 L 40.5 28.5 L 43.5 28.5 L 43.5 25.5 C 43.5 15.71875 36.367188 7.660156 27 6.226562 L 27 6 L 28.5 6 L 28.5 4.5 C 28.5 3.667969 26.492188 3 24 3 Z M 24 3 "/>
<path style=" stroke:none;fill-rule:nonzero;fill:rgb(100%,100%,100%);fill-opacity:0.4;" d="M 14.324219 13.226562 C 14.90625 13.8125 14.433594 15.238281 13.261719 16.410156 C 12.089844 17.582031 10.664062 18.054688 10.078125 17.46875 C 9.492188 16.882812 9.96875 15.460938 11.140625 14.289062 C 12.3125 13.117188 13.738281 12.640625 14.324219 13.226562 Z M 14.324219 13.226562 "/>
</g>
</svg>
