
<svg xmlns="http://www.w3.org/2000/svg" xmlns:xlink="http://www.w3.org/1999/xlink" width="32" height="32" viewBox="0 0 32 32" version="1.1">
<defs>
<linearGradient id="linear0" gradientUnits="userSpaceOnUse" x1="8.466666" y1="-199.125" x2="8.466666" y2="-213.941666" gradientTransform="matrix(1.889764,0,0,1.889764,-0.00000631431,406.299234)">
<stop offset="0" style="stop-color:rgb(0%,0%,0%);stop-opacity:0.2;"/>
<stop offset="1" style="stop-color:rgb(100%,100%,100%);stop-opacity:0;"/>
</linearGradient>
</defs>
<g id="surface1">
<path style=" stroke:none;fill-rule:nonzero;fill:rgb(47.058824%,56.470591%,61.176473%);fill-opacity:1;" d="M 4 2 L 28 2 C 29.105469 2 30 2.894531 30 4 L 30 28 C 30 29.105469 29.105469 30 28 30 L 4 30 C 2.894531 30 2 29.105469 2 28 L 2 4 C 2 2.894531 2.894531 2 4 2 Z M 4 2 "/>
<path style=" stroke:none;fill-rule:nonzero;fill:rgb(0%,0%,0%);fill-opacity:0.4;" d="M 2 27.5 L 2 28 C 2 29.109375 2.890625 30 4 30 L 28 30 C 29.109375 30 30 29.109375 30 28 L 30 27.5 C 30 28.609375 29.109375 29.5 28 29.5 L 4 29.5 C 2.890625 29.5 2 28.609375 2 27.5 Z M 2 27.5 "/>
<path style=" stroke:none;fill-rule:nonzero;fill:rgb(0%,0%,0%);fill-opacity:0.2;" d="M 2 28 L 2 28.75 C 2 29.859375 2.890625 30.75 4 30.75 L 28 30.75 C 29.109375 30.75 30 29.859375 30 28.75 L 30 28 C 30 29.109375 29.109375 30 28 30 L 4 30 C 2.890625 30 2 29.109375 2 28 Z M 2 28 "/>
<path style=" stroke:none;fill-rule:nonzero;fill:rgb(100%,100%,100%);fill-opacity:0.4;" d="M 4 2 C 2.890625 2 2 2.890625 2 4 L 2 4.492188 C 2 3.382812 2.890625 2.492188 4 2.492188 L 28 2.492188 C 29.109375 2.492188 30 3.382812 30 4.492188 L 30 4 C 30 2.890625 29.109375 2 28 2 Z M 4 2 "/>
<path style=" stroke:none;fill-rule:nonzero;fill:rgb(93.333334%,93.333334%,93.333334%);fill-opacity:1;" d="M 12 26 L 10 26 C 9.449219 26 9 25.550781 9 25 L 9 7 C 9 6.449219 9.449219 6 10 6 L 12 6 C 12.550781 6 13 6.449219 13 7 L 13 25 C 13 25.550781 12.550781 26 12 26 Z M 12 26 "/>
<path style=" stroke:none;fill-rule:nonzero;fill:rgb(93.333334%,93.333334%,93.333334%);fill-opacity:1;" d="M 22 26 L 20 26 C 19.449219 26 19 25.550781 19 25 L 19 7 C 19 6.449219 19.449219 6 20 6 L 22 6 C 22.550781 6 23 6.449219 23 7 L 23 25 C 23 25.550781 22.550781 26 22 26 Z M 22 26 "/>
<path style=" stroke:none;fill-rule:nonzero;fill:rgb(100%,100%,100%);fill-opacity:0.6;" d="M 10 6 C 9.445312 6 9 6.445312 9 7 L 9 7.5 C 9 6.945312 9.445312 6.5 10 6.5 L 12 6.5 C 12.554688 6.5 13 6.945312 13 7.5 L 13 7 C 13 6.445312 12.554688 6 12 6 Z M 20 6 C 19.445312 6 19 6.445312 19 7 L 19 7.5 C 19 6.945312 19.445312 6.5 20 6.5 L 22 6.5 C 22.554688 6.5 23 6.945312 23 7.5 L 23 7 C 23 6.445312 22.554688 6 22 6 Z M 20 6 "/>
<path style=" stroke:none;fill-rule:nonzero;fill:rgb(0.392157%,0.392157%,0.392157%);fill-opacity:0.4;" d="M 10 26.5 C 9.445312 26.5 9 26.054688 9 25.5 L 9 25 C 9 25.554688 9.445312 26 10 26 L 12 26 C 12.554688 26 13 25.554688 13 25 L 13 25.5 C 13 26.054688 12.554688 26.5 12 26.5 Z M 20 26.5 C 19.445312 26.5 19 26.054688 19 25.5 L 19 25 C 19 25.554688 19.445312 26 20 26 L 22 26 C 22.554688 26 23 25.554688 23 25 L 23 25.5 C 23 26.054688 22.554688 26.5 22 26.5 Z M 20 26.5 "/>
<path style=" stroke:none;fill-rule:nonzero;fill:url(#linear0);" d="M 4 2 L 28 2 C 29.105469 2 30 2.894531 30 4 L 30 28 C 30 29.105469 29.105469 30 28 30 L 4 30 C 2.894531 30 2 29.105469 2 28 L 2 4 C 2 2.894531 2.894531 2 4 2 Z M 4 2 "/>
</g>
</svg>
