
<svg xmlns="http://www.w3.org/2000/svg" xmlns:xlink="http://www.w3.org/1999/xlink" width="32" height="32" viewBox="0 0 32 32" version="1.1">
<defs>
<linearGradient id="linear0" gradientUnits="userSpaceOnUse" x1="31.999998" y1="60" x2="31.999998" y2="4" gradientTransform="matrix(0.5,0,0,0.5,-0.00000136063,0)">
<stop offset="0" style="stop-color:rgb(0%,0%,0%);stop-opacity:0.2;"/>
<stop offset="1" style="stop-color:rgb(100%,100%,100%);stop-opacity:0;"/>
</linearGradient>
</defs>
<g id="surface1">
<path style=" stroke:none;fill-rule:nonzero;fill:rgb(100%,65.490198%,14.901961%);fill-opacity:1;" d="M 20 2 L 6.5 2 C 5.667969 2 5 2.667969 5 3.5 L 5 28.5 C 5 29.332031 5.667969 30 6.5 30 L 25.5 30 C 26.332031 30 27 29.332031 27 28.5 L 27 9 Z M 20 2 "/>
<path style=" stroke:none;fill-rule:nonzero;fill:rgb(0%,0%,0%);fill-opacity:0.4;" d="M 20 7.5 L 20 8 C 20 8.832031 20.667969 9.5 21.5 9.5 L 27 9.5 L 26.5 9 L 21.5 9 C 20.667969 9 20 8.332031 20 7.5 Z M 20 7.5 "/>
<path style=" stroke:none;fill-rule:nonzero;fill:rgb(100%,71.764708%,30.19608%);fill-opacity:0.996078;" d="M 27 9 L 20 2 L 20 7.5 C 20 8.332031 20.667969 9 21.5 9 Z M 27 9 "/>
<path style=" stroke:none;fill-rule:nonzero;fill:rgb(100%,100%,100%);fill-opacity:0.4;" d="M 6.5 2 C 5.667969 2 5 2.667969 5 3.5 L 5 4 C 5 3.167969 5.667969 2.5 6.5 2.5 L 20 2.5 L 27 9.5 L 27 9 L 20 2 Z M 6.5 2 "/>
<path style=" stroke:none;fill-rule:nonzero;fill:rgb(0%,0%,0%);fill-opacity:0.2;" d="M 5 28.492188 L 5 29.25 C 5 30.082031 5.667969 30.75 6.5 30.75 L 25.5 30.75 C 26.332031 30.75 27 30.082031 27 29.25 L 27 28.492188 C 27 29.324219 26.332031 29.992188 25.5 29.992188 L 6.5 29.992188 C 5.667969 29.992188 5 29.324219 5 28.492188 Z M 5 28.492188 "/>
<path style=" stroke:none;fill-rule:nonzero;fill:rgb(0%,0%,0%);fill-opacity:0.4;" d="M 5 28.0625 L 5 28.5 C 5 29.332031 5.667969 30 6.5 30 L 25.5 30 C 26.332031 30 27 29.332031 27 28.5 L 27 28.0625 C 27 28.894531 26.332031 29.5625 25.5 29.5625 L 6.5 29.5625 C 5.667969 29.5625 5 28.894531 5 28.0625 Z M 5 28.0625 "/>
<path style=" stroke:none;fill-rule:nonzero;fill:rgb(100%,80.000001%,50.196081%);fill-opacity:0.996078;" d="M 13 12.9375 C 12.9375 12.9375 12.871094 12.964844 12.824219 13.011719 L 9.640625 16.195312 C 9.542969 16.292969 9.542969 16.449219 9.640625 16.546875 L 9.996094 16.902344 C 10.09375 17 10.25 17 10.347656 16.902344 L 13 14.25 L 15.652344 16.902344 C 15.699219 16.949219 15.765625 16.976562 15.828125 16.976562 C 15.890625 16.976562 15.957031 16.949219 16.003906 16.902344 L 16.359375 16.546875 C 16.457031 16.449219 16.457031 16.292969 16.359375 16.195312 L 13.175781 13.011719 C 13.128906 12.964844 13.0625 12.941406 13 12.9375 Z M 19 16.6875 C 18.9375 16.6875 18.871094 16.714844 18.824219 16.761719 L 15.640625 19.945312 C 15.542969 20.042969 15.542969 20.199219 15.640625 20.296875 L 15.996094 20.652344 C 16.09375 20.75 16.25 20.75 16.347656 20.652344 L 19 18 L 21.652344 20.652344 C 21.75 20.75 21.90625 20.75 22.003906 20.652344 L 22.359375 20.296875 C 22.457031 20.199219 22.457031 20.042969 22.359375 19.945312 L 19.175781 16.761719 C 19.128906 16.714844 19.0625 16.691406 19 16.6875 Z M 19 16.6875 "/>
<path style=" stroke:none;fill-rule:nonzero;fill:rgb(100%,80.000001%,50.196081%);fill-opacity:0.996078;" d="M 13 12.9375 C 12.9375 12.9375 12.871094 12.964844 12.824219 13.011719 L 9.640625 16.195312 C 9.542969 16.292969 9.542969 16.449219 9.640625 16.546875 L 9.996094 16.902344 C 10.09375 17 10.25 17 10.347656 16.902344 L 13 14.25 L 15.652344 16.902344 C 15.699219 16.949219 15.765625 16.976562 15.828125 16.976562 C 15.890625 16.976562 15.957031 16.949219 16.003906 16.902344 L 16.359375 16.546875 C 16.457031 16.449219 16.457031 16.292969 16.359375 16.195312 L 13.175781 13.011719 C 13.128906 12.964844 13.0625 12.941406 13 12.9375 Z M 19 16.6875 C 18.9375 16.6875 18.871094 16.714844 18.824219 16.761719 L 15.640625 19.945312 C 15.542969 20.042969 15.542969 20.199219 15.640625 20.296875 L 15.996094 20.652344 C 16.09375 20.75 16.25 20.75 16.347656 20.652344 L 19 18 L 21.652344 20.652344 C 21.75 20.75 21.90625 20.75 22.003906 20.652344 L 22.359375 20.296875 C 22.457031 20.199219 22.457031 20.042969 22.359375 19.945312 L 19.175781 16.761719 C 19.128906 16.714844 19.0625 16.691406 19 16.6875 Z M 19 16.6875 "/>
<path style=" stroke:none;fill-rule:nonzero;fill:rgb(100%,100%,100%);fill-opacity:0.4;" d="M 13 12.9375 C 12.9375 12.9375 12.871094 12.964844 12.824219 13.011719 L 9.640625 16.195312 C 9.550781 16.285156 9.546875 16.425781 9.625 16.523438 C 9.628906 16.519531 9.636719 16.511719 9.640625 16.503906 L 12.46875 13.675781 L 12.824219 13.324219 C 12.871094 13.273438 12.9375 13.25 13 13.25 C 13.0625 13.25 13.128906 13.273438 13.175781 13.324219 L 13.53125 13.675781 L 16.359375 16.503906 C 16.363281 16.511719 16.371094 16.519531 16.375 16.523438 C 16.453125 16.425781 16.449219 16.285156 16.359375 16.195312 L 13.175781 13.011719 C 13.128906 12.964844 13.0625 12.941406 13 12.9375 Z M 19 16.6875 C 18.9375 16.6875 18.871094 16.714844 18.824219 16.761719 L 15.640625 19.945312 C 15.550781 20.035156 15.546875 20.175781 15.625 20.273438 C 15.628906 20.269531 15.636719 20.261719 15.640625 20.253906 L 18.46875 17.425781 L 18.824219 17.074219 C 18.871094 17.023438 18.9375 17 19 17 C 19.0625 17 19.128906 17.023438 19.175781 17.074219 L 19.53125 17.425781 L 22.359375 20.253906 C 22.363281 20.261719 22.371094 20.269531 22.375 20.273438 C 22.453125 20.175781 22.449219 20.035156 22.359375 19.945312 L 19.175781 16.761719 C 19.128906 16.714844 19.0625 16.691406 19 16.6875 Z M 19 16.6875 "/>
<path style=" stroke:none;fill-rule:nonzero;fill:rgb(0%,0%,0%);fill-opacity:0.4;" d="M 13 14.25 L 10.347656 16.902344 C 10.25 17 10.09375 17 9.996094 16.902344 L 9.640625 16.546875 C 9.625 16.53125 9.613281 16.515625 9.601562 16.496094 C 9.546875 16.589844 9.558594 16.714844 9.640625 16.796875 L 9.996094 17.152344 C 10.09375 17.25 10.25 17.25 10.347656 17.152344 L 13 14.5 L 15.652344 17.152344 C 15.699219 17.199219 15.765625 17.226562 15.828125 17.226562 C 15.890625 17.226562 15.957031 17.199219 16.003906 17.152344 L 16.359375 16.796875 C 16.441406 16.714844 16.453125 16.589844 16.398438 16.496094 C 16.386719 16.515625 16.375 16.53125 16.359375 16.546875 L 16.003906 16.902344 C 15.957031 16.949219 15.890625 16.976562 15.828125 16.976562 C 15.765625 16.976562 15.699219 16.949219 15.652344 16.902344 Z M 19 18 L 16.347656 20.652344 C 16.25 20.75 16.09375 20.75 15.996094 20.652344 L 15.640625 20.296875 C 15.625 20.28125 15.613281 20.265625 15.601562 20.246094 C 15.546875 20.339844 15.558594 20.464844 15.640625 20.546875 L 15.996094 20.902344 C 16.09375 21 16.25 21 16.347656 20.902344 L 19 18.25 L 21.652344 20.902344 C 21.75 21 21.90625 21 22.003906 20.902344 L 22.359375 20.546875 C 22.441406 20.464844 22.453125 20.339844 22.398438 20.246094 C 22.386719 20.265625 22.375 20.28125 22.359375 20.296875 L 22.003906 20.652344 C 21.90625 20.75 21.75 20.75 21.652344 20.652344 Z M 19 18 "/>
<path style=" stroke:none;fill-rule:nonzero;fill:url(#linear0);" d="M 20 2 L 6.5 2 C 5.667969 2 5 2.667969 5 3.5 L 5 28.5 C 5 29.332031 5.667969 30 6.5 30 L 25.5 30 C 26.332031 30 27 29.332031 27 28.5 L 27 9 Z M 20 2 "/>
</g>
</svg>
