
<svg xmlns="http://www.w3.org/2000/svg" xmlns:xlink="http://www.w3.org/1999/xlink" width="48" height="48" viewBox="0 0 48 48" version="1.1">
<defs>
<linearGradient id="linear0" gradientUnits="userSpaceOnUse" x1="8.466666" y1="-199.125" x2="8.466666" y2="-213.941666" gradientTransform="matrix(2.834646,0,0,2.834646,-0.00000947146,609.448851)">
<stop offset="0" style="stop-color:rgb(0%,0%,0%);stop-opacity:0.2;"/>
<stop offset="1" style="stop-color:rgb(100%,100%,100%);stop-opacity:0;"/>
</linearGradient>
</defs>
<g id="surface1">
<path style=" stroke:none;fill-rule:nonzero;fill:rgb(100%,43.921569%,26.274511%);fill-opacity:1;" d="M 6 3 L 42 3 C 43.65625 3 45 4.34375 45 6 L 45 42 C 45 43.65625 43.65625 45 42 45 L 6 45 C 4.34375 45 3 43.65625 3 42 L 3 6 C 3 4.34375 4.34375 3 6 3 Z M 6 3 "/>
<path style=" stroke:none;fill-rule:nonzero;fill:rgb(0%,0%,0%);fill-opacity:0.4;" d="M 3 41.25 L 3 42 C 3 43.660156 4.339844 45 6 45 L 42 45 C 43.660156 45 45 43.660156 45 42 L 45 41.25 C 45 42.910156 43.660156 44.25 42 44.25 L 6 44.25 C 4.339844 44.25 3 42.910156 3 41.25 Z M 3 41.25 "/>
<path style=" stroke:none;fill-rule:nonzero;fill:rgb(0%,0%,0%);fill-opacity:0.2;" d="M 3 42 L 3 43.125 C 3 44.785156 4.339844 46.125 6 46.125 L 42 46.125 C 43.660156 46.125 45 44.785156 45 43.125 L 45 42 C 45 43.660156 43.660156 45 42 45 L 6 45 C 4.339844 45 3 43.660156 3 42 Z M 3 42 "/>
<path style=" stroke:none;fill-rule:nonzero;fill:rgb(100%,100%,100%);fill-opacity:0.4;" d="M 6 3 C 4.339844 3 3 4.339844 3 6 L 3 6.738281 C 3 5.078125 4.339844 3.738281 6 3.738281 L 42 3.738281 C 43.660156 3.738281 45 5.078125 45 6.738281 L 45 6 C 45 4.339844 43.660156 3 42 3 Z M 6 3 "/>
<path style=" stroke:none;fill-rule:nonzero;fill:rgb(87.843138%,87.843138%,87.843138%);fill-opacity:1;" d="M 24 7.5 L 24 10.5 C 16.519531 10.5 10.5 16.519531 10.5 24 C 10.5 31.480469 16.519531 37.5 24 37.5 C 31.480469 37.5 37.5 31.480469 37.5 24 L 31.5 24 C 31.5 28.15625 28.15625 31.5 24 31.5 C 19.84375 31.5 16.5 28.15625 16.5 24 C 16.5 19.84375 19.84375 16.5 24 16.5 L 24 19.5 L 31.5 13.5 Z M 24 7.5 "/>
<path style=" stroke:none;fill-rule:nonzero;fill:rgb(100%,100%,100%);fill-opacity:0.6;" d="M 24 7.5 L 24 8.25 L 31.03125 13.875 L 31.5 13.5 Z M 24 10.5 C 16.519531 10.5 10.5 16.519531 10.5 24 C 10.5 24.105469 10.503906 24.207031 10.507812 24.308594 C 10.738281 17.035156 16.667969 11.25 24 11.25 Z M 31.5 24 C 31.5 28.15625 28.15625 31.5 24 31.5 C 19.945312 31.5 16.671875 28.3125 16.515625 24.300781 C 16.507812 24.449219 16.5 24.597656 16.5 24.75 C 16.5 28.90625 19.84375 32.25 24 32.25 C 28.15625 32.25 31.5 28.90625 31.5 24.75 L 37.476562 24.75 C 37.492188 24.5 37.5 24.25 37.5 24 Z M 31.5 24 "/>
<path style=" stroke:none;fill-rule:nonzero;fill:rgb(0%,0%,0%);fill-opacity:0.4;" d="M 31.03125 13.875 L 24 19.5 L 24 20.25 L 31.5 14.25 Z M 24 16.5 C 19.84375 16.5 16.5 19.84375 16.5 24 C 16.5 24.121094 16.503906 24.242188 16.511719 24.363281 C 16.710938 20.390625 19.976562 17.25 24 17.25 Z M 10.503906 24.375 C 10.503906 24.5 10.5 24.625 10.5 24.75 C 10.5 32.230469 16.519531 38.25 24 38.25 C 31.480469 38.25 37.5 32.230469 37.5 24.75 L 37.480469 24.75 C 37.09375 31.878906 31.226562 37.5 24 37.5 C 16.644531 37.5 10.703125 31.679688 10.503906 24.375 Z M 10.503906 24.375 "/>
<path style=" stroke:none;fill-rule:nonzero;fill:url(#linear0);" d="M 6 3 L 42 3 C 43.65625 3 45 4.34375 45 6 L 45 42 C 45 43.65625 43.65625 45 42 45 L 6 45 C 4.34375 45 3 43.65625 3 42 L 3 6 C 3 4.34375 4.34375 3 6 3 Z M 6 3 "/>
</g>
</svg>
