
<svg xmlns="http://www.w3.org/2000/svg" xmlns:xlink="http://www.w3.org/1999/xlink" width="22" height="22" viewBox="0 0 22 22" version="1.1">
<defs>
<linearGradient id="linear0" gradientUnits="userSpaceOnUse" x1="31.999998" y1="60" x2="31.999998" y2="4" gradientTransform="matrix(0.34375,0,0,0.34375,-0.000000259843,0.00000000000003908)">
<stop offset="0" style="stop-color:rgb(0%,0%,0%);stop-opacity:0.2;"/>
<stop offset="1" style="stop-color:rgb(100%,100%,100%);stop-opacity:0;"/>
</linearGradient>
</defs>
<g id="surface1">
<path style=" stroke:none;fill-rule:nonzero;fill:rgb(93.333334%,93.333334%,93.333334%);fill-opacity:1;" d="M 13.75 1.375 L 4.46875 1.375 C 3.898438 1.375 3.4375 1.835938 3.4375 2.40625 L 3.4375 19.59375 C 3.4375 20.164062 3.898438 20.625 4.46875 20.625 L 17.53125 20.625 C 18.101562 20.625 18.5625 20.164062 18.5625 19.59375 L 18.5625 6.1875 Z M 13.75 1.375 "/>
<path style=" stroke:none;fill-rule:nonzero;fill:rgb(45.882353%,45.882353%,45.882353%);fill-opacity:1;" d="M 6.429688 9.960938 C 6.265625 10.054688 6.210938 10.265625 6.304688 10.429688 C 6.398438 10.59375 6.609375 10.648438 6.773438 10.554688 L 12.132812 7.460938 C 12.296875 7.367188 12.351562 7.15625 12.257812 6.992188 C 12.164062 6.828125 11.953125 6.769531 11.789062 6.867188 Z M 7.117188 11.152344 C 6.953125 11.246094 6.898438 11.457031 6.992188 11.621094 C 7.085938 11.785156 7.296875 11.839844 7.460938 11.746094 L 12.820312 8.652344 C 12.984375 8.558594 13.039062 8.347656 12.945312 8.183594 C 12.851562 8.019531 12.640625 7.960938 12.476562 8.058594 Z M 7.804688 12.339844 C 7.640625 12.4375 7.585938 12.644531 7.679688 12.8125 C 7.773438 12.976562 7.984375 13.03125 8.148438 12.9375 L 13.507812 9.84375 C 13.671875 9.746094 13.726562 9.539062 13.632812 9.375 C 13.539062 9.207031 13.328125 9.152344 13.164062 9.246094 Z M 8.492188 13.53125 C 8.328125 13.628906 8.273438 13.835938 8.367188 14 C 8.460938 14.167969 8.671875 14.222656 8.835938 14.128906 L 14.195312 11.035156 C 14.359375 10.9375 14.414062 10.730469 14.320312 10.5625 C 14.226562 10.398438 14.015625 10.34375 13.851562 10.4375 Z M 9.179688 14.722656 C 9.015625 14.816406 8.960938 15.027344 9.054688 15.191406 C 9.148438 15.355469 9.359375 15.414062 9.523438 15.316406 L 14.882812 12.222656 C 15.046875 12.128906 15.101562 11.917969 15.007812 11.753906 C 14.914062 11.589844 14.703125 11.535156 14.539062 11.628906 Z M 9.867188 15.914062 C 9.703125 16.007812 9.648438 16.21875 9.742188 16.382812 C 9.835938 16.546875 10.046875 16.605469 10.210938 16.507812 L 15.570312 13.414062 C 15.734375 13.320312 15.789062 13.109375 15.695312 12.945312 C 15.601562 12.78125 15.390625 12.726562 15.226562 12.820312 Z M 9.867188 15.914062 "/>
<path style=" stroke:none;fill-rule:nonzero;fill:rgb(0%,0%,0%);fill-opacity:0.4;" d="M 13.75 5.15625 L 13.75 5.5 C 13.75 6.070312 14.210938 6.53125 14.78125 6.53125 L 18.5625 6.53125 L 18.21875 6.1875 L 14.78125 6.1875 C 14.210938 6.1875 13.75 5.726562 13.75 5.15625 Z M 13.75 5.15625 "/>
<path style=" stroke:none;fill-rule:nonzero;fill:rgb(25.882354%,64.705884%,96.078432%);fill-opacity:0.996078;" d="M 18.5625 6.1875 L 13.75 1.375 L 13.75 5.15625 C 13.75 5.726562 14.210938 6.1875 14.78125 6.1875 Z M 18.5625 6.1875 "/>
<path style=" stroke:none;fill-rule:nonzero;fill:rgb(100%,100%,100%);fill-opacity:0.4;" d="M 4.46875 1.375 C 3.898438 1.375 3.4375 1.835938 3.4375 2.40625 L 3.4375 2.75 C 3.4375 2.179688 3.898438 1.71875 4.46875 1.71875 L 13.75 1.71875 L 18.5625 6.53125 L 18.5625 6.1875 L 13.75 1.375 Z M 4.46875 1.375 "/>
<path style=" stroke:none;fill-rule:nonzero;fill:rgb(0%,0%,0%);fill-opacity:0.2;" d="M 3.4375 19.589844 L 3.4375 20.109375 C 3.4375 20.679688 3.898438 21.140625 4.46875 21.140625 L 17.53125 21.140625 C 18.101562 21.140625 18.5625 20.679688 18.5625 20.109375 L 18.5625 19.589844 C 18.5625 20.160156 18.101562 20.621094 17.53125 20.621094 L 4.46875 20.621094 C 3.898438 20.621094 3.4375 20.160156 3.4375 19.589844 Z M 3.4375 19.589844 "/>
<path style=" stroke:none;fill-rule:nonzero;fill:rgb(0%,0%,0%);fill-opacity:0.4;" d="M 3.4375 19.292969 L 3.4375 19.59375 C 3.4375 20.164062 3.898438 20.625 4.46875 20.625 L 17.53125 20.625 C 18.101562 20.625 18.5625 20.164062 18.5625 19.59375 L 18.5625 19.292969 C 18.5625 19.863281 18.101562 20.324219 17.53125 20.324219 L 4.46875 20.324219 C 3.898438 20.324219 3.4375 19.863281 3.4375 19.292969 Z M 3.4375 19.292969 "/>
<path style=" stroke:none;fill-rule:nonzero;fill:rgb(100%,100%,100%);fill-opacity:0.4;" d="M 4.46875 1.375 C 3.898438 1.375 3.4375 1.835938 3.4375 2.40625 L 3.4375 2.75 C 3.4375 2.179688 3.898438 1.71875 4.46875 1.71875 L 13.75 1.71875 L 13.75 1.375 Z M 4.46875 1.375 "/>
<path style=" stroke:none;fill-rule:nonzero;fill:rgb(25.882354%,64.705884%,96.078432%);fill-opacity:1;" d="M 3.4375 11.6875 L 18.5625 11.6875 C 18.65625 11.6875 18.734375 11.765625 18.734375 11.859375 L 18.734375 17.015625 C 18.734375 17.109375 18.65625 17.1875 18.5625 17.1875 L 3.4375 17.1875 C 3.34375 17.1875 3.265625 17.109375 3.265625 17.015625 L 3.265625 11.859375 C 3.265625 11.765625 3.34375 11.6875 3.4375 11.6875 Z M 3.4375 11.6875 "/>
<path style=" stroke:none;fill-rule:nonzero;fill:rgb(100%,100%,100%);fill-opacity:0.4;" d="M 3.4375 11.6875 C 3.34375 11.6875 3.265625 11.765625 3.265625 11.859375 L 3.265625 12.203125 C 3.265625 12.109375 3.34375 12.03125 3.4375 12.03125 L 18.5625 12.03125 C 18.65625 12.03125 18.734375 12.109375 18.734375 12.203125 L 18.734375 11.859375 C 18.734375 11.765625 18.65625 11.6875 18.5625 11.6875 Z M 3.4375 11.6875 "/>
<path style=" stroke:none;fill-rule:nonzero;fill:rgb(0.784314%,0.784314%,0.784314%);fill-opacity:0.4;" d="M 3.4375 17.1875 L 3.4375 17.53125 L 18.5625 17.53125 L 18.5625 17.1875 Z M 3.4375 17.1875 "/>
<path style=" stroke:none;fill-rule:nonzero;fill:url(#linear0);" d="M 13.75 1.375 L 4.46875 1.375 C 3.898438 1.375 3.4375 1.835938 3.4375 2.40625 L 3.4375 19.59375 C 3.4375 20.164062 3.898438 20.625 4.46875 20.625 L 17.53125 20.625 C 18.101562 20.625 18.5625 20.164062 18.5625 19.59375 L 18.5625 6.1875 Z M 13.75 1.375 "/>
</g>
</svg>
