
<svg xmlns="http://www.w3.org/2000/svg" xmlns:xlink="http://www.w3.org/1999/xlink" width="48" height="48" viewBox="0 0 48 48" version="1.1">
<defs>
<linearGradient id="linear0" gradientUnits="userSpaceOnUse" x1="38" y1="59.999996" x2="38" y2="3.999999" gradientTransform="matrix(0.75,0,0,0.75,0,0.000000000000085265)">
<stop offset="0" style="stop-color:rgb(0%,0%,0%);stop-opacity:0.2;"/>
<stop offset="1" style="stop-color:rgb(100%,100%,100%);stop-opacity:0;"/>
</linearGradient>
</defs>
<g id="surface1">
<path style=" stroke:none;fill-rule:nonzero;fill:rgb(12.941177%,58.823532%,95.294118%);fill-opacity:1;" d="M 16.5 34.5 L 29.175781 42.105469 C 29.59375 42.355469 30.121094 42.339844 30.523438 42.066406 C 30.925781 41.789062 31.132812 41.304688 31.054688 40.824219 L 30 34.5 Z M 16.5 34.5 "/>
<path style=" stroke:none;fill-rule:nonzero;fill:rgb(0%,0%,0%);fill-opacity:0.4;" d="M 16.5 34.5 L 29.175781 42.105469 C 29.589844 42.355469 30.117188 42.339844 30.519531 42.066406 C 30.925781 41.796875 31.132812 41.3125 31.054688 40.832031 C 30.992188 41.242188 30.726562 41.597656 30.351562 41.773438 C 29.972656 41.953125 29.53125 41.929688 29.175781 41.714844 L 17.148438 34.5 Z M 16.5 34.5 "/>
<path style=" stroke:none;fill-rule:nonzero;fill:rgb(12.941177%,58.823532%,95.294118%);fill-opacity:1;" d="M 16.5 13.5 L 29.175781 5.894531 C 29.59375 5.644531 30.121094 5.660156 30.523438 5.933594 C 30.925781 6.210938 31.132812 6.695312 31.054688 7.175781 L 30 13.5 Z M 16.5 13.5 "/>
<path style=" stroke:none;fill-rule:nonzero;fill:rgb(100%,100%,100%);fill-opacity:0.4;" d="M 29.855469 5.71875 C 29.617188 5.710938 29.378906 5.773438 29.175781 5.894531 L 16.5 13.5 L 17.164062 13.5 L 29.175781 6.292969 C 29.53125 6.082031 29.972656 6.058594 30.347656 6.234375 C 30.726562 6.410156 30.988281 6.761719 31.054688 7.175781 C 31.113281 6.816406 31.015625 6.453125 30.785156 6.171875 C 30.554688 5.894531 30.214844 5.726562 29.855469 5.71875 Z M 29.855469 5.71875 "/>
<path style=" stroke:none;fill-rule:nonzero;fill:rgb(39.215687%,70.980394%,96.470588%);fill-opacity:1;" d="M 44.757812 9 C 44.46875 9.003906 44.042969 9.214844 43.5 9.652344 C 41.4375 11.304688 38.453125 13.644531 35.476562 15.957031 C 32.203125 12.640625 26.949219 10.5 21 10.5 C 11.027344 10.5 3 16.519531 3 24 C 3 31.480469 11.027344 37.5 21 37.5 C 26.90625 37.5 32.128906 35.386719 35.410156 32.109375 L 43.441406 38.421875 C 43.777344 38.6875 44.25 38.695312 44.597656 38.445312 C 44.941406 38.191406 45.082031 37.742188 44.933594 37.339844 L 41.234375 27.160156 C 40.492188 25.117188 40.492188 22.882812 41.234375 20.839844 L 44.933594 10.660156 C 45.332031 9.570312 45.238281 8.996094 44.757812 9 Z M 44.757812 9 "/>
<path style=" stroke:none;fill-rule:nonzero;fill:rgb(25.882354%,64.705884%,96.078432%);fill-opacity:1;" d="M 3 24 C 3 31.480469 11.027344 37.5 21 37.5 C 26.90625 37.5 32.128906 35.386719 35.410156 32.109375 L 43.441406 38.421875 C 44.199219 39.015625 45.265625 38.246094 44.933594 37.339844 L 41.234375 27.160156 C 40.867188 26.148438 40.679688 25.078125 40.679688 24 C 26.925781 29.457031 15.066406 26.246094 3 24 Z M 3 24 "/>
<path style=" stroke:none;fill-rule:nonzero;fill:rgb(56.470591%,79.215688%,97.647059%);fill-opacity:1;" d="M 15.589844 11.117188 C 8.277344 12.832031 3 17.9375 3 24 C 3 30.0625 8.277344 35.167969 15.589844 36.882812 C 18.929688 33.621094 21 29.058594 21 24 C 21 18.941406 18.929688 14.378906 15.589844 11.117188 Z M 15.589844 11.117188 "/>
<path style=" stroke:none;fill-rule:nonzero;fill:rgb(100%,65.490198%,14.901961%);fill-opacity:1;" d="M 10.5 18 C 12.15625 18 13.5 19.34375 13.5 21 C 13.5 22.65625 12.15625 24 10.5 24 C 8.84375 24 7.5 22.65625 7.5 21 C 7.5 19.34375 8.84375 18 10.5 18 Z M 10.5 18 "/>
<path style=" stroke:none;fill-rule:nonzero;fill:rgb(38.039216%,38.039216%,38.039216%);fill-opacity:1;" d="M 9.75 19.5 C 10.578125 19.5 11.25 20.171875 11.25 21 C 11.25 21.828125 10.578125 22.5 9.75 22.5 C 8.921875 22.5 8.25 21.828125 8.25 21 C 8.25 20.171875 8.921875 19.5 9.75 19.5 Z M 9.75 19.5 "/>
<path style=" stroke:none;fill-rule:nonzero;fill:rgb(61.960787%,61.960787%,61.960787%);fill-opacity:1;" d="M 9.1875 19.875 C 9.5 19.875 9.75 20.125 9.75 20.4375 C 9.75 20.75 9.5 21 9.1875 21 C 8.875 21 8.625 20.75 8.625 20.4375 C 8.625 20.125 8.875 19.875 9.1875 19.875 Z M 9.1875 19.875 "/>
<path style=" stroke:none;fill-rule:nonzero;fill:rgb(100%,100%,100%);fill-opacity:0.4;" d="M 44.757812 9 C 44.46875 9.003906 44.042969 9.214844 43.5 9.652344 C 41.4375 11.304688 38.453125 13.644531 35.476562 15.957031 C 32.203125 12.640625 26.949219 10.5 21 10.5 C 11.027344 10.5 3 16.519531 3 24 C 3 24.101562 3.007812 24.199219 3.011719 24.296875 C 3.3125 17.019531 11.21875 11.230469 21 11.230469 C 26.949219 11.230469 32.203125 13.371094 35.476562 16.6875 C 38.453125 14.371094 41.4375 12.03125 43.5 10.382812 C 44.042969 9.945312 44.46875 9.730469 44.757812 9.730469 C 44.941406 9.726562 45.070312 9.8125 45.132812 9.976562 C 45.261719 9.332031 45.125 8.996094 44.757812 9 Z M 40.695312 24.207031 C 40.625 25.457031 40.808594 26.710938 41.234375 27.890625 L 44.910156 38 C 44.996094 37.789062 45.007812 37.554688 44.933594 37.339844 L 41.234375 27.160156 C 40.894531 26.210938 40.714844 25.214844 40.695312 24.207031 Z M 40.695312 24.207031 "/>
<path style=" stroke:none;fill-rule:nonzero;fill:rgb(0%,0%,0%);fill-opacity:0.4;" d="M 45.132812 9.242188 C 45.089844 9.441406 45.027344 9.664062 44.933594 9.917969 L 41.234375 20.09375 C 40.808594 21.277344 40.625 22.53125 40.699219 23.785156 C 40.714844 22.78125 40.898438 21.785156 41.234375 20.839844 L 44.933594 10.660156 C 45.179688 9.984375 45.238281 9.507812 45.132812 9.242188 Z M 3.011719 23.691406 C 3.007812 23.796875 3 23.898438 3 24 C 3 31.480469 11.027344 37.5 21 37.5 C 26.90625 37.5 32.128906 35.386719 35.410156 32.109375 L 43.441406 38.421875 C 43.777344 38.6875 44.25 38.695312 44.597656 38.445312 C 44.941406 38.191406 45.082031 37.742188 44.933594 37.339844 L 44.917969 37.289062 C 44.800781 37.5625 44.5625 37.769531 44.273438 37.847656 C 43.984375 37.925781 43.675781 37.859375 43.441406 37.675781 L 35.410156 31.367188 C 32.128906 34.644531 26.90625 36.753906 21 36.753906 C 11.222656 36.753906 3.316406 30.96875 3.011719 23.691406 Z M 3.011719 23.691406 "/>
<path style=" stroke:none;fill-rule:nonzero;fill:rgb(0%,0%,0%);fill-opacity:0.2;" d="M 30.183594 35.605469 C 27.640625 36.75 24.683594 37.433594 21.515625 37.507812 L 22.664062 38.199219 C 25.445312 38 28.039062 37.332031 30.300781 36.300781 Z M 30.183594 35.605469 "/>
<path style=" stroke:none;fill-rule:nonzero;fill:rgb(100%,100%,100%);fill-opacity:0.4;" d="M 10.5 18 C 8.839844 18 7.5 19.339844 7.5 21 C 7.5 21.0625 7.503906 21.125 7.503906 21.1875 C 7.601562 19.613281 8.902344 18.375 10.5 18.375 C 12.097656 18.375 13.398438 19.613281 13.496094 21.1875 C 13.496094 21.125 13.5 21.0625 13.5 21 C 13.5 19.339844 12.160156 18 10.5 18 Z M 10.5 18 "/>
<path style=" stroke:none;fill-rule:nonzero;fill:rgb(0.392157%,0.392157%,0.392157%);fill-opacity:0.4;" d="M 10.5 24.375 C 8.839844 24.375 7.5 23.035156 7.5 21.375 C 7.5 21.3125 7.503906 21.25 7.507812 21.1875 C 7.601562 22.761719 8.902344 24 10.5 24 C 12.097656 24 13.398438 22.761719 13.496094 21.1875 C 13.496094 21.25 13.5 21.3125 13.5 21.375 C 13.5 23.035156 12.160156 24.375 10.5 24.375 Z M 10.5 24.375 "/>
<path style=" stroke:none;fill-rule:nonzero;fill:rgb(16.078432%,71.372551%,96.470588%);fill-opacity:0.992157;" d="M 9 9 C 9.828125 9 10.5 9.671875 10.5 10.5 C 10.5 11.328125 9.828125 12 9 12 C 8.171875 12 7.5 11.328125 7.5 10.5 C 7.5 9.671875 8.171875 9 9 9 Z M 9 9 "/>
<path style=" stroke:none;fill-rule:nonzero;fill:rgb(16.078432%,71.372551%,96.470588%);fill-opacity:0.992157;" d="M 15 3 C 16.65625 3 18 4.34375 18 6 C 18 7.65625 16.65625 9 15 9 C 13.34375 9 12 7.65625 12 6 C 12 4.34375 13.34375 3 15 3 Z M 15 3 "/>
<path style=" stroke:none;fill-rule:nonzero;fill:rgb(50.588238%,83.137256%,98.039216%);fill-opacity:0.992157;" d="M 14.25 3.75 C 14.871094 3.75 15.375 4.253906 15.375 4.875 C 15.375 5.496094 14.871094 6 14.25 6 C 13.628906 6 13.125 5.496094 13.125 4.875 C 13.125 4.253906 13.628906 3.75 14.25 3.75 Z M 14.25 3.75 "/>
<path style=" stroke:none;fill-rule:nonzero;fill:rgb(50.588238%,83.137256%,98.039216%);fill-opacity:0.992157;" d="M 8.4375 9.375 C 8.75 9.375 9 9.625 9 9.9375 C 9 10.25 8.75 10.5 8.4375 10.5 C 8.125 10.5 7.875 10.25 7.875 9.9375 C 7.875 9.625 8.125 9.375 8.4375 9.375 Z M 8.4375 9.375 "/>
<path style=" stroke:none;fill-rule:nonzero;fill:url(#linear0);" d="M 15 3 C 13.339844 3 12 4.339844 12 6 C 12 7.660156 13.339844 9 15 9 C 16.660156 9 18 7.660156 18 6 C 18 4.339844 16.660156 3 15 3 Z M 29.855469 5.71875 C 29.617188 5.710938 29.378906 5.773438 29.175781 5.894531 L 21.480469 10.511719 C 21.320312 10.507812 21.160156 10.5 21 10.5 C 11.027344 10.5 3 16.519531 3 24 C 3 31.480469 11.027344 37.5 21 37.5 C 21.160156 37.5 21.320312 37.492188 21.480469 37.488281 L 29.175781 42.105469 C 29.59375 42.355469 30.121094 42.339844 30.523438 42.066406 C 30.929688 41.789062 31.136719 41.304688 31.054688 40.824219 L 30.1875 35.621094 C 32.21875 34.714844 33.996094 33.523438 35.410156 32.109375 L 43.441406 38.421875 C 43.777344 38.6875 44.25 38.695312 44.597656 38.445312 C 44.941406 38.191406 45.082031 37.742188 44.933594 37.339844 L 41.234375 27.160156 C 40.492188 25.117188 40.492188 22.882812 41.234375 20.839844 L 44.933594 10.660156 C 45.332031 9.570312 45.238281 8.996094 44.757812 9 C 44.46875 9.003906 44.042969 9.214844 43.5 9.652344 C 41.4375 11.304688 38.453125 13.644531 35.476562 15.957031 C 34.054688 14.515625 32.253906 13.296875 30.1875 12.378906 L 31.054688 7.175781 C 31.113281 6.820312 31.015625 6.453125 30.785156 6.171875 C 30.558594 5.894531 30.21875 5.726562 29.855469 5.71875 Z M 8.960938 9 C 8.148438 9.019531 7.5 9.683594 7.5 10.5 C 7.5 11.332031 8.167969 12 9 12 C 9.832031 12 10.5 11.332031 10.5 10.5 C 10.5 9.667969 9.832031 9 9 9 C 8.988281 9 8.972656 9 8.960938 9 Z M 8.960938 9 "/>
</g>
</svg>
