
<svg xmlns="http://www.w3.org/2000/svg" xmlns:xlink="http://www.w3.org/1999/xlink" width="48" height="48" viewBox="0 0 48 48" version="1.1">
<defs>
<linearGradient id="linear0" gradientUnits="userSpaceOnUse" x1="8.466666" y1="-200.183334" x2="8.466666" y2="-212.883331" gradientTransform="matrix(2.834646,0,0,2.834646,0.0000036767,609.448851)">
<stop offset="0" style="stop-color:rgb(0%,0%,0%);stop-opacity:0.2;"/>
<stop offset="1" style="stop-color:rgb(100%,100%,100%);stop-opacity:0;"/>
</linearGradient>
</defs>
<g id="surface1">
<path style=" stroke:none;fill-rule:nonzero;fill:rgb(93.333334%,93.333334%,93.333334%);fill-opacity:1;" d="M 6 6 L 42 6 C 43.65625 6 45 7.34375 45 9 L 45 39 C 45 40.65625 43.65625 42 42 42 L 6 42 C 4.34375 42 3 40.65625 3 39 L 3 9 C 3 7.34375 4.34375 6 6 6 Z M 6 6 "/>
<path style=" stroke:none;fill-rule:nonzero;fill:rgb(38.039216%,38.039216%,38.039216%);fill-opacity:0.996078;" d="M 3 13.5 L 3 39 C 3 40.660156 4.339844 42 6 42 L 24 42 L 24 13.5 Z M 3 13.5 "/>
<path style=" stroke:none;fill-rule:nonzero;fill:rgb(38.039216%,38.039216%,38.039216%);fill-opacity:1;" d="M 6 6 C 4.339844 6 3 7.339844 3 9 L 3 13.5 L 45 13.5 L 45 9 C 45 7.339844 43.664062 6 42 6 Z M 6 6 "/>
<path style=" stroke:none;fill-rule:nonzero;fill:rgb(93.333334%,93.333334%,93.333334%);fill-opacity:1;" d="M 6 6 C 4.339844 6 3 7.339844 3 9 L 3 13.5 L 24 13.5 L 24 6 Z M 6 6 "/>
<path style=" stroke:none;fill-rule:nonzero;fill:rgb(100%,100%,100%);fill-opacity:0.4;" d="M 6 6 C 4.339844 6 3 7.339844 3 9 L 3 9.75 C 3 8.089844 4.339844 6.75 6 6.75 L 42 6.75 C 43.664062 6.75 45 8.089844 45 9.75 L 45 9 C 45 7.339844 43.664062 6 42 6 Z M 6 6 "/>
<path style=" stroke:none;fill-rule:nonzero;fill:rgb(0%,0%,0%);fill-opacity:0.4;" d="M 3 13.5 L 45 13.5 L 45 14.25 L 3 14.25 Z M 3 13.5 "/>
<path style=" stroke:none;fill-rule:nonzero;fill:rgb(0%,0%,0%);fill-opacity:0.2;" d="M 3 39.03125 L 3 40.152344 C 3 41.8125 4.339844 43.152344 6 43.152344 L 42 43.152344 C 43.660156 43.152344 45 41.8125 45 40.152344 L 45 39.03125 C 45 40.695312 43.660156 42.03125 42 42.03125 L 6 42.03125 C 4.339844 42.03125 3 40.695312 3 39.03125 Z M 3 39.03125 "/>
<path style=" stroke:none;fill-rule:nonzero;fill:rgb(0%,0%,0%);fill-opacity:0.4;" d="M 3 38.253906 L 3 39 C 3 40.660156 4.339844 42 6 42 L 42 42 C 43.660156 42 45 40.660156 45 39 L 45 38.253906 C 45 39.914062 43.660156 41.253906 42 41.253906 L 6 41.253906 C 4.339844 41.253906 3 39.914062 3 38.253906 Z M 3 38.253906 "/>
<path style=" stroke:none;fill-rule:nonzero;fill:rgb(95.686275%,26.274511%,21.176471%);fill-opacity:1;" d="M 42 8.25 C 42.828125 8.25 43.5 8.921875 43.5 9.75 C 43.5 10.578125 42.828125 11.25 42 11.25 C 41.171875 11.25 40.5 10.578125 40.5 9.75 C 40.5 8.921875 41.171875 8.25 42 8.25 Z M 42 8.25 "/>
<path style=" stroke:none;fill-rule:nonzero;fill:rgb(100%,65.490198%,14.901961%);fill-opacity:1;" d="M 37.5 8.25 C 38.328125 8.25 39 8.921875 39 9.75 C 39 10.578125 38.328125 11.25 37.5 11.25 C 36.671875 11.25 36 10.578125 36 9.75 C 36 8.921875 36.671875 8.25 37.5 8.25 Z M 37.5 8.25 "/>
<path style=" stroke:none;fill-rule:nonzero;fill:rgb(40.000001%,73.333335%,41.568628%);fill-opacity:0.988235;" d="M 33 8.25 C 33.828125 8.25 34.5 8.921875 34.5 9.75 C 34.5 10.578125 33.828125 11.25 33 11.25 C 32.171875 11.25 31.5 10.578125 31.5 9.75 C 31.5 8.921875 32.171875 8.25 33 8.25 Z M 33 8.25 "/>
<path style=" stroke:none;fill-rule:nonzero;fill:rgb(100%,100%,100%);fill-opacity:0.4;" d="M 6 6 C 4.339844 6 3 7.339844 3 9 L 3 9.75 C 3 8.089844 4.339844 6.75 6 6.75 L 24 6.75 L 24 6 Z M 6 6 "/>
<path style=" stroke:none;fill-rule:nonzero;fill:rgb(40.000001%,73.333335%,41.568628%);fill-opacity:0.988235;" d="M 33 8.25 C 33.828125 8.25 34.5 8.921875 34.5 9.75 C 34.5 10.578125 33.828125 11.25 33 11.25 C 32.171875 11.25 31.5 10.578125 31.5 9.75 C 31.5 8.921875 32.171875 8.25 33 8.25 Z M 33 8.25 "/>
<path style=" stroke:none;fill-rule:nonzero;fill:rgb(100%,100%,100%);fill-opacity:0.4;" d="M 31.511719 9.933594 C 31.503906 9.996094 31.5 10.058594 31.5 10.125 C 31.5 10.953125 32.167969 11.625 33 11.625 C 33.832031 11.625 34.5 10.953125 34.5 10.125 C 34.5 10.058594 34.496094 9.996094 34.488281 9.933594 C 34.398438 10.675781 33.769531 11.25 33 11.25 C 32.230469 11.25 31.601562 10.675781 31.511719 9.933594 Z M 36.011719 9.933594 C 36.003906 9.996094 36 10.058594 36 10.125 C 36 10.953125 36.667969 11.625 37.5 11.625 C 38.332031 11.625 39 10.953125 39 10.125 C 39 10.058594 38.996094 9.996094 38.988281 9.933594 C 38.898438 10.675781 38.269531 11.25 37.5 11.25 C 36.730469 11.25 36.101562 10.675781 36.011719 9.933594 Z M 40.511719 9.933594 C 40.503906 9.996094 40.5 10.058594 40.5 10.125 C 40.5 10.953125 41.167969 11.625 42 11.625 C 42.832031 11.625 43.5 10.953125 43.5 10.125 C 43.5 10.058594 43.496094 9.996094 43.488281 9.933594 C 43.398438 10.675781 42.769531 11.25 42 11.25 C 41.230469 11.25 40.601562 10.675781 40.511719 9.933594 Z M 40.511719 9.933594 "/>
<path style=" stroke:none;fill-rule:nonzero;fill:rgb(0%,0%,0%);fill-opacity:0.4;" d="M 33 8.25 C 32.167969 8.25 31.5 8.921875 31.5 9.75 C 31.5 9.816406 31.503906 9.878906 31.511719 9.941406 C 31.601562 9.199219 32.230469 8.625 33 8.625 C 33.769531 8.625 34.398438 9.199219 34.488281 9.941406 C 34.496094 9.878906 34.5 9.816406 34.5 9.75 C 34.5 8.921875 33.832031 8.25 33 8.25 Z M 37.5 8.25 C 36.667969 8.25 36 8.921875 36 9.75 C 36 9.816406 36.003906 9.878906 36.011719 9.941406 C 36.101562 9.199219 36.730469 8.625 37.5 8.625 C 38.269531 8.625 38.898438 9.199219 38.988281 9.941406 C 38.996094 9.878906 39 9.816406 39 9.75 C 39 8.921875 38.332031 8.25 37.5 8.25 Z M 42 8.25 C 41.167969 8.25 40.5 8.921875 40.5 9.75 C 40.5 9.816406 40.503906 9.878906 40.511719 9.941406 C 40.601562 9.199219 41.230469 8.625 42 8.625 C 42.769531 8.625 43.398438 9.199219 43.488281 9.941406 C 43.496094 9.878906 43.5 9.816406 43.5 9.75 C 43.5 8.921875 42.832031 8.25 42 8.25 Z M 42 8.25 "/>
<path style=" stroke:none;fill-rule:nonzero;fill:url(#linear0);" d="M 6 6 L 42 6 C 43.65625 6 45 7.34375 45 9 L 45 39 C 45 40.65625 43.65625 42 42 42 L 6 42 C 4.34375 42 3 40.65625 3 39 L 3 9 C 3 7.34375 4.34375 6 6 6 Z M 6 6 "/>
</g>
</svg>
