
<svg xmlns="http://www.w3.org/2000/svg" xmlns:xlink="http://www.w3.org/1999/xlink" width="64" height="64" viewBox="0 0 64 64" version="1.1">
<defs>
<linearGradient id="linear0" gradientUnits="userSpaceOnUse" x1="10.054166" y1="-199.125" x2="10.054166" y2="-213.941666" gradientTransform="matrix(3.779528,0,0,3.779528,-0.00126458,812.598468)">
<stop offset="0" style="stop-color:rgb(0%,0%,0%);stop-opacity:0.2;"/>
<stop offset="1" style="stop-color:rgb(100%,100%,100%);stop-opacity:0;"/>
</linearGradient>
</defs>
<g id="surface1">
<path style=" stroke:none;fill-rule:nonzero;fill:rgb(38.039216%,38.039216%,38.039216%);fill-opacity:1;" d="M 8 4 L 56 4 C 58.210938 4 60 5.789062 60 8 L 60 56 C 60 58.210938 58.210938 60 56 60 L 8 60 C 5.789062 60 4 58.210938 4 56 L 4 8 C 4 5.789062 5.789062 4 8 4 Z M 8 4 "/>
<path style=" stroke:none;fill-rule:nonzero;fill:rgb(0%,0%,0%);fill-opacity:0.4;" d="M 4 55 L 4 56 C 4 58.214844 5.785156 60 8 60 L 56 60 C 58.214844 60 60 58.214844 60 56 L 60 55 C 60 57.214844 58.214844 59 56 59 L 8 59 C 5.785156 59 4 57.214844 4 55 Z M 4 55 "/>
<path style=" stroke:none;fill-rule:nonzero;fill:rgb(0%,0%,0%);fill-opacity:0.2;" d="M 4 56 L 4 57.5 C 4 59.714844 5.785156 61.5 8 61.5 L 56 61.5 C 58.214844 61.5 60 59.714844 60 57.5 L 60 56 C 60 58.214844 58.214844 60 56 60 L 8 60 C 5.785156 60 4 58.214844 4 56 Z M 4 56 "/>
<path style=" stroke:none;fill-rule:nonzero;fill:rgb(100%,100%,100%);fill-opacity:0.4;" d="M 8 4 C 5.785156 4 4 5.785156 4 8 L 4 8.984375 C 4 6.769531 5.785156 4.984375 8 4.984375 L 56 4.984375 C 58.214844 4.984375 60 6.769531 60 8.984375 L 60 8 C 60 5.785156 58.214844 4 56 4 Z M 8 4 "/>
<path style=" stroke:none;fill-rule:nonzero;fill:rgb(14.901961%,65.098041%,60.392159%);fill-opacity:1;" d="M 32 12 C 20.921875 12 12 20.921875 12 32 C 12 37.539062 14.230469 42.539062 17.84375 46.15625 L 23.507812 40.492188 C 21.339844 38.324219 20 35.324219 20 32 C 20 25.351562 25.351562 20 32 20 Z M 32 12 "/>
<path style=" stroke:none;fill-rule:nonzero;fill:rgb(0%,0%,0%);fill-opacity:0.4;" d="M 32 12 C 43.078125 12 52 20.921875 52 32 C 52 37.539062 49.769531 42.539062 46.152344 46.15625 L 40.492188 40.492188 C 42.660156 38.324219 44 35.324219 44 32 C 44 25.351562 38.648438 20 32 20 Z M 32 12 "/>
<path style=" stroke:none;fill-rule:nonzero;fill:rgb(99.607843%,99.607843%,99.607843%);fill-opacity:0.4;" d="M 32 20.019531 C 25.351562 20.019531 20 25.375 20 32.019531 C 20 32.171875 20.003906 32.324219 20.011719 32.472656 C 20.246094 26.039062 25.503906 20.925781 32 20.925781 C 38.496094 20.925781 43.753906 26.039062 43.988281 32.472656 C 43.996094 32.324219 44 32.171875 44 32.019531 C 44 25.375 38.648438 20.019531 32 20.019531 Z M 12.003906 32.472656 C 12.003906 32.625 12 32.777344 12 32.925781 C 12 38.46875 14.230469 43.46875 17.84375 47.082031 L 23.507812 41.421875 C 23.355469 41.269531 23.210938 41.113281 23.066406 40.953125 L 17.84375 46.175781 C 14.328125 42.660156 12.125 37.832031 12.003906 32.472656 Z M 51.996094 32.472656 C 51.875 37.832031 49.671875 42.660156 46.15625 46.175781 L 40.933594 40.953125 C 40.789062 41.113281 40.644531 41.269531 40.492188 41.421875 L 46.15625 47.082031 C 49.769531 43.46875 52 38.46875 52 32.925781 C 52 32.777344 51.996094 32.625 51.996094 32.472656 Z M 51.996094 32.472656 "/>
<path style=" stroke:none;fill-rule:nonzero;fill:rgb(0%,0%,0%);fill-opacity:0.4;" d="M 32 12 C 20.921875 12 12 20.921875 12 32 C 12 32.128906 12.007812 32.257812 12.011719 32.386719 C 12.332031 21.59375 21.125 13 32 13 C 42.875 13 51.667969 21.59375 51.988281 32.386719 C 51.992188 32.257812 52 32.128906 52 32 C 52 20.921875 43.078125 12 32 12 Z M 20.011719 32.476562 C 20.003906 32.648438 20 32.824219 20 33 C 20 36.066406 21.140625 38.859375 23.023438 40.976562 L 23.507812 40.492188 C 21.441406 38.425781 20.132812 35.609375 20.011719 32.476562 Z M 43.988281 32.476562 C 43.867188 35.609375 42.558594 38.425781 40.492188 40.492188 L 40.976562 40.976562 C 42.859375 38.859375 44 36.066406 44 33 C 44 32.824219 43.996094 32.648438 43.988281 32.476562 Z M 43.988281 32.476562 "/>
<path style=" stroke:none;fill-rule:nonzero;fill:url(#linear0);" d="M 8 4 L 56 4 C 58.210938 4 60 5.789062 60 8 L 60 56 C 60 58.210938 58.210938 60 56 60 L 8 60 C 5.789062 60 4 58.210938 4 56 L 4 8 C 4 5.789062 5.789062 4 8 4 Z M 8 4 "/>
</g>
</svg>
