
<svg xmlns="http://www.w3.org/2000/svg" xmlns:xlink="http://www.w3.org/1999/xlink" width="48" height="48" viewBox="0 0 48 48" version="1.1">
<defs>
<linearGradient id="linear0" gradientUnits="userSpaceOnUse" x1="31.999998" y1="60" x2="31.999998" y2="4" gradientTransform="matrix(0.75,0,0,0.75,-0.000000566929,0.000000000000085265)">
<stop offset="0" style="stop-color:rgb(0%,0%,0%);stop-opacity:0.2;"/>
<stop offset="1" style="stop-color:rgb(100%,100%,100%);stop-opacity:0;"/>
</linearGradient>
</defs>
<g id="surface1">
<path style=" stroke:none;fill-rule:nonzero;fill:rgb(36.078432%,41.960785%,75.294119%);fill-opacity:1;" d="M 30 3 L 9.75 3 C 8.503906 3 7.5 4.003906 7.5 5.25 L 7.5 42.75 C 7.5 43.996094 8.503906 45 9.75 45 L 38.25 45 C 39.496094 45 40.5 43.996094 40.5 42.75 L 40.5 13.5 Z M 30 3 "/>
<path style=" stroke:none;fill-rule:nonzero;fill:rgb(0%,0%,0%);fill-opacity:0.4;" d="M 30 11.25 L 30 12 C 30 13.246094 31.003906 14.25 32.25 14.25 L 40.5 14.25 L 39.75 13.5 L 32.25 13.5 C 31.003906 13.5 30 12.496094 30 11.25 Z M 30 11.25 "/>
<path style=" stroke:none;fill-rule:nonzero;fill:rgb(47.450981%,52.549022%,79.607844%);fill-opacity:0.996078;" d="M 40.5 13.5 L 30 3 L 30 11.25 C 30 12.496094 31.003906 13.5 32.25 13.5 Z M 40.5 13.5 "/>
<path style=" stroke:none;fill-rule:nonzero;fill:rgb(100%,100%,100%);fill-opacity:0.4;" d="M 9.75 3 C 8.503906 3 7.5 4.003906 7.5 5.25 L 7.5 6 C 7.5 4.753906 8.503906 3.75 9.75 3.75 L 30 3.75 L 40.5 14.25 L 40.5 13.5 L 30 3 Z M 9.75 3 "/>
<path style=" stroke:none;fill-rule:nonzero;fill:rgb(0%,0%,0%);fill-opacity:0.2;" d="M 7.5 42.738281 L 7.5 43.875 C 7.5 45.121094 8.503906 46.125 9.75 46.125 L 38.25 46.125 C 39.496094 46.125 40.5 45.121094 40.5 43.875 L 40.5 42.738281 C 40.5 43.984375 39.496094 44.988281 38.25 44.988281 L 9.75 44.988281 C 8.503906 44.988281 7.5 43.984375 7.5 42.738281 Z M 7.5 42.738281 "/>
<path style=" stroke:none;fill-rule:nonzero;fill:rgb(0%,0%,0%);fill-opacity:0.4;" d="M 7.5 42.09375 L 7.5 42.75 C 7.5 43.996094 8.503906 45 9.75 45 L 38.25 45 C 39.496094 45 40.5 43.996094 40.5 42.75 L 40.5 42.09375 C 40.5 43.339844 39.496094 44.34375 38.25 44.34375 L 9.75 44.34375 C 8.503906 44.34375 7.5 43.339844 7.5 42.09375 Z M 7.5 42.09375 "/>
<path style=" stroke:none;fill-rule:nonzero;fill:rgb(62.352943%,65.882355%,85.490197%);fill-opacity:1;" d="M 18 18 C 17.167969 18 16.5 18.667969 16.5 19.5 L 16.5 28.5 C 16.5 29.332031 17.167969 30 18 30 L 18 33 L 22.5 30 L 30 30 C 30.832031 30 31.5 29.332031 31.5 28.5 L 31.5 19.5 C 31.5 18.667969 30.832031 18 30 18 Z M 18 18 "/>
<path style=" stroke:none;fill-rule:nonzero;fill:rgb(99.215686%,99.215686%,99.215686%);fill-opacity:0.4;" d="M 18 18 C 17.167969 18 16.5 18.667969 16.5 19.5 L 16.5 19.875 C 16.5 19.042969 17.167969 18.375 18 18.375 L 30 18.375 C 30.832031 18.375 31.5 19.042969 31.5 19.875 L 31.5 19.5 C 31.5 18.667969 30.832031 18 30 18 Z M 18 18 "/>
<path style=" stroke:none;fill-rule:nonzero;fill:rgb(0.784314%,0.784314%,0.784314%);fill-opacity:0.4;" d="M 16.5 28.5 L 16.5 28.875 C 16.5 29.707031 17.167969 30.375 18 30.375 L 18 30 C 17.167969 30 16.5 29.332031 16.5 28.5 Z M 31.5 28.5 C 31.5 29.332031 30.832031 30 30 30 L 22.5 30 L 18 33 L 18 33.375 L 22.5 30.375 L 30 30.375 C 30.832031 30.375 31.5 29.707031 31.5 28.875 Z M 31.5 28.5 "/>
<path style=" stroke:none;fill-rule:nonzero;fill:url(#linear0);" d="M 30 3 L 9.75 3 C 8.503906 3 7.5 4.003906 7.5 5.25 L 7.5 42.75 C 7.5 43.996094 8.503906 45 9.75 45 L 38.25 45 C 39.496094 45 40.5 43.996094 40.5 42.75 L 40.5 13.5 Z M 30 3 "/>
</g>
</svg>
