
<svg xmlns="http://www.w3.org/2000/svg" xmlns:xlink="http://www.w3.org/1999/xlink" width="48" height="48" viewBox="0 0 48 48" version="1.1">
<defs>
<linearGradient id="linear0" gradientUnits="userSpaceOnUse" x1="31.999998" y1="60" x2="31.999998" y2="4" gradientTransform="matrix(0.75,0,0,0.75,-0.000000566929,0.000000000000085265)">
<stop offset="0" style="stop-color:rgb(0%,0%,0%);stop-opacity:0.2;"/>
<stop offset="1" style="stop-color:rgb(100%,100%,100%);stop-opacity:0;"/>
</linearGradient>
</defs>
<g id="surface1">
<path style=" stroke:none;fill-rule:nonzero;fill:rgb(95.686275%,26.274511%,21.176471%);fill-opacity:1;" d="M 30 3 L 9.75 3 C 8.503906 3 7.5 4.003906 7.5 5.25 L 7.5 42.75 C 7.5 43.996094 8.503906 45 9.75 45 L 38.25 45 C 39.496094 45 40.5 43.996094 40.5 42.75 L 40.5 13.5 Z M 30 3 "/>
<path style=" stroke:none;fill-rule:nonzero;fill:rgb(0%,0%,0%);fill-opacity:0.4;" d="M 30 11.25 L 30 12 C 30 13.246094 31.003906 14.25 32.25 14.25 L 40.5 14.25 L 39.75 13.5 L 32.25 13.5 C 31.003906 13.5 30 12.496094 30 11.25 Z M 30 11.25 "/>
<path style=" stroke:none;fill-rule:nonzero;fill:rgb(93.725491%,32.549021%,31.37255%);fill-opacity:0.996078;" d="M 40.5 13.5 L 30 3 L 30 11.25 C 30 12.496094 31.003906 13.5 32.25 13.5 Z M 40.5 13.5 "/>
<path style=" stroke:none;fill-rule:nonzero;fill:rgb(100%,100%,100%);fill-opacity:0.4;" d="M 9.75 3 C 8.503906 3 7.5 4.003906 7.5 5.25 L 7.5 6 C 7.5 4.753906 8.503906 3.75 9.75 3.75 L 30 3.75 L 40.5 14.25 L 40.5 13.5 L 30 3 Z M 9.75 3 "/>
<path style=" stroke:none;fill-rule:nonzero;fill:rgb(0%,0%,0%);fill-opacity:0.2;" d="M 7.5 42.738281 L 7.5 43.875 C 7.5 45.121094 8.503906 46.125 9.75 46.125 L 38.25 46.125 C 39.496094 46.125 40.5 45.121094 40.5 43.875 L 40.5 42.738281 C 40.5 43.984375 39.496094 44.988281 38.25 44.988281 L 9.75 44.988281 C 8.503906 44.988281 7.5 43.984375 7.5 42.738281 Z M 7.5 42.738281 "/>
<path style=" stroke:none;fill-rule:nonzero;fill:rgb(0%,0%,0%);fill-opacity:0.4;" d="M 7.5 42.09375 L 7.5 42.75 C 7.5 43.996094 8.503906 45 9.75 45 L 38.25 45 C 39.496094 45 40.5 43.996094 40.5 42.75 L 40.5 42.09375 C 40.5 43.339844 39.496094 44.34375 38.25 44.34375 L 9.75 44.34375 C 8.503906 44.34375 7.5 43.339844 7.5 42.09375 Z M 7.5 42.09375 "/>
<path style=" stroke:none;fill-rule:nonzero;fill:rgb(93.725491%,60.392159%,60.392159%);fill-opacity:1;" d="M 18 18.75 L 18 20.25 L 19.5 20.25 L 19.5 18.75 Z M 19.5 20.25 L 19.5 21.75 L 21 21.75 L 21 20.25 Z M 21 20.25 L 22.5 20.25 L 22.5 18.75 L 21 18.75 Z M 21 21.75 L 21 23.25 L 22.5 23.25 L 22.5 21.75 Z M 19.5 21.75 L 18 21.75 L 18 23.25 L 19.5 23.25 Z M 25.5 18.75 L 25.5 20.25 L 27 20.25 L 27 18.75 Z M 27 20.25 L 27 21.75 L 28.5 21.75 L 28.5 20.25 Z M 28.5 20.25 L 30 20.25 L 30 18.75 L 28.5 18.75 Z M 28.5 21.75 L 28.5 23.25 L 30 23.25 L 30 21.75 Z M 27 21.75 L 25.5 21.75 L 25.5 23.25 L 27 23.25 Z M 21 27.75 L 21 29.25 L 27 29.25 L 27 27.75 Z M 27 29.25 L 27 30.75 L 28.5 30.75 L 28.5 29.25 Z M 28.5 30.75 L 28.5 32.25 L 30 32.25 L 30 30.75 Z M 21 29.25 L 19.5 29.25 L 19.5 30.75 L 21 30.75 Z M 19.5 30.75 L 18 30.75 L 18 32.25 L 19.5 32.25 Z M 19.5 30.75 "/>
<path style=" stroke:none;fill-rule:nonzero;fill:rgb(100%,100%,100%);fill-opacity:0.4;" d="M 18 18.75 L 18 19.125 L 19.5 19.125 L 19.5 18.75 Z M 21 18.75 L 21 19.125 L 22.5 19.125 L 22.5 18.75 Z M 25.5 18.75 L 25.5 19.125 L 27 19.125 L 27 18.75 Z M 28.5 18.75 L 28.5 19.125 L 30 19.125 L 30 18.75 Z M 19.5 20.25 L 19.5 20.625 L 21 20.625 L 21 20.25 Z M 27 20.25 L 27 20.625 L 28.5 20.625 L 28.5 20.25 Z M 18 21.75 L 18 22.125 L 19.5 22.125 L 19.5 21.75 Z M 21 21.75 L 21 22.125 L 22.5 22.125 L 22.5 21.75 Z M 25.5 21.75 L 25.5 22.125 L 27 22.125 L 27 21.75 Z M 28.5 21.75 L 28.5 22.125 L 30 22.125 L 30 21.75 Z M 21 27.75 L 21 28.125 L 27 28.125 L 27 27.75 Z M 19.5 29.25 L 19.5 29.625 L 21 29.625 L 21 29.25 Z M 27 29.25 L 27 29.625 L 28.5 29.625 L 28.5 29.25 Z M 18 30.75 L 18 31.125 L 19.5 31.125 L 19.5 30.75 Z M 28.5 30.75 L 28.5 31.125 L 30 31.125 L 30 30.75 Z M 28.5 30.75 "/>
<path style=" stroke:none;fill-rule:nonzero;fill:rgb(0%,0%,0%);fill-opacity:0.4;" d="M 18 20.25 L 18 20.625 L 19.5 20.625 L 19.5 20.25 Z M 21 20.25 L 21 20.625 L 22.5 20.625 L 22.5 20.25 Z M 25.5 20.25 L 25.5 20.625 L 27 20.625 L 27 20.25 Z M 28.5 20.25 L 28.5 20.625 L 30 20.625 L 30 20.25 Z M 19.5 21.75 L 19.5 22.125 L 21 22.125 L 21 21.75 Z M 27 21.75 L 27 22.125 L 28.5 22.125 L 28.5 21.75 Z M 18 23.25 L 18 23.625 L 19.5 23.625 L 19.5 23.25 Z M 21 23.25 L 21 23.625 L 22.5 23.625 L 22.5 23.25 Z M 25.5 23.25 L 25.5 23.625 L 27 23.625 L 27 23.25 Z M 28.5 23.25 L 28.5 23.625 L 30 23.625 L 30 23.25 Z M 21 29.25 L 21 29.625 L 27 29.625 L 27 29.25 Z M 19.5 30.75 L 19.5 31.125 L 21 31.125 L 21 30.75 Z M 27 30.75 L 27 31.125 L 28.5 31.125 L 28.5 30.75 Z M 18 32.25 L 18 32.625 L 19.5 32.625 L 19.5 32.25 Z M 28.5 32.25 L 28.5 32.625 L 30 32.625 L 30 32.25 Z M 28.5 32.25 "/>
<path style=" stroke:none;fill-rule:nonzero;fill:url(#linear0);" d="M 30 3 L 9.75 3 C 8.503906 3 7.5 4.003906 7.5 5.25 L 7.5 42.75 C 7.5 43.996094 8.503906 45 9.75 45 L 38.25 45 C 39.496094 45 40.5 43.996094 40.5 42.75 L 40.5 13.5 Z M 30 3 "/>
</g>
</svg>
