
<svg xmlns="http://www.w3.org/2000/svg" xmlns:xlink="http://www.w3.org/1999/xlink" width="32" height="32" viewBox="0 0 32 32" version="1.1">
<defs>
<linearGradient id="linear0" gradientUnits="userSpaceOnUse" x1="8.995832" y1="-199.125" x2="8.995832" y2="-213.941666" gradientTransform="matrix(1.889764,0,0,1.889764,0,406.299234)">
<stop offset="0" style="stop-color:rgb(0%,0%,0%);stop-opacity:0.2;"/>
<stop offset="1" style="stop-color:rgb(100%,100%,100%);stop-opacity:0;"/>
</linearGradient>
</defs>
<g id="surface1">
<path style=" stroke:none;fill-rule:nonzero;fill:rgb(25.882354%,64.705884%,96.078432%);fill-opacity:1;" d="M 24.511719 2 C 19.042969 2 18.019531 10.3125 21.09375 10.3125 C 24.171875 10.3125 29.980469 2 24.511719 2 Z M 16.089844 3.277344 C 16.003906 3.277344 15.910156 3.289062 15.816406 3.292969 C 12.710938 3.683594 13.804688 8.933594 15.453125 9.03125 C 17.046875 9.121094 18.796875 3.285156 16.089844 3.277344 Z M 10.714844 5.214844 C 10.527344 5.199219 10.316406 5.238281 10.085938 5.335938 C 7.59375 6.355469 9.707031 10.582031 11.097656 10.296875 C 12.363281 10.039062 12.546875 5.335938 10.714844 5.214844 Z M 6.652344 8.667969 C 6.433594 8.660156 6.199219 8.734375 5.949219 8.921875 C 3.957031 10.40625 6.625 14.007812 7.796875 13.449219 C 8.820312 12.960938 8.167969 8.722656 6.652344 8.667969 Z M 18.425781 12.101562 C 14.109375 12.023438 8.40625 14.214844 7.4375 18.621094 C 6.382812 23.386719 11.769531 30 17.382812 30 C 20.152344 30 23.335938 27.472656 23.9375 24.273438 C 24.390625 21.832031 18.574219 22.8125 18.78125 24.425781 C 19.035156 26.359375 17.378906 27.316406 15.761719 26.066406 C 10.609375 22.097656 24.296875 20.117188 23.390625 14.691406 C 23.113281 13.003906 21.015625 12.144531 18.421875 12.101562 Z M 18.425781 12.101562 "/>
<path style=" stroke:none;fill-rule:nonzero;fill:rgb(100%,100%,100%);fill-opacity:0.4;" d="M 24.511719 2 C 20.949219 2 19.273438 5.527344 19.390625 7.984375 C 19.503906 5.574219 21.183594 2.5 24.511719 2.5 C 26.007812 2.5 26.660156 3.121094 26.753906 4.023438 C 26.859375 2.859375 26.269531 2 24.511719 2 Z M 16.089844 3.277344 C 16.003906 3.277344 15.914062 3.289062 15.816406 3.296875 C 14.285156 3.488281 13.773438 4.863281 13.851562 6.21875 C 13.914062 5.042969 14.472656 3.964844 15.816406 3.792969 C 15.914062 3.785156 16.003906 3.777344 16.089844 3.777344 C 17.03125 3.78125 17.433594 4.488281 17.492188 5.40625 C 17.558594 4.257812 17.195312 3.28125 16.089844 3.277344 Z M 10.570312 5.214844 C 10.421875 5.222656 10.257812 5.261719 10.085938 5.335938 C 9.15625 5.714844 8.867188 6.542969 8.945312 7.414062 C 9.003906 6.738281 9.335938 6.140625 10.085938 5.835938 C 10.316406 5.734375 10.527344 5.699219 10.714844 5.714844 C 11.601562 5.773438 12.015625 6.902344 12.0625 8.082031 C 12.121094 6.742188 11.726562 5.28125 10.714844 5.214844 C 10.667969 5.210938 10.621094 5.210938 10.570312 5.214844 Z M 6.652344 8.667969 C 6.433594 8.660156 6.199219 8.734375 5.949219 8.921875 C 5.363281 9.359375 5.179688 9.984375 5.246094 10.628906 C 5.300781 10.167969 5.515625 9.746094 5.949219 9.421875 C 6.199219 9.234375 6.433594 9.160156 6.652344 9.164062 C 7.601562 9.199219 8.210938 10.875 8.285156 12.242188 C 8.359375 10.824219 7.71875 8.707031 6.652344 8.667969 Z M 18.019531 12.101562 C 13.757812 12.164062 8.378906 14.351562 7.4375 18.621094 C 7.328125 19.109375 7.289062 19.621094 7.308594 20.136719 C 7.324219 19.792969 7.363281 19.453125 7.4375 19.121094 C 8.40625 14.714844 14.109375 12.523438 18.425781 12.601562 C 21.015625 12.644531 23.113281 13.503906 23.390625 15.191406 C 23.40625 15.277344 23.417969 15.363281 23.421875 15.445312 C 23.445312 15.203125 23.433594 14.949219 23.390625 14.691406 C 23.113281 13.003906 21.015625 12.144531 18.425781 12.101562 L 18.421875 12.101562 C 18.289062 12.097656 18.15625 12.097656 18.019531 12.101562 Z M 21.960938 22.800781 C 20.453125 22.808594 18.664062 23.515625 18.78125 24.425781 C 18.792969 24.503906 18.796875 24.582031 18.804688 24.660156 C 19.175781 23.328125 23.566406 22.59375 23.9375 24.273438 C 24.136719 23.203125 23.132812 22.792969 21.960938 22.800781 Z M 14.625 24.554688 C 14.507812 25.179688 14.820312 25.839844 15.761719 26.566406 C 17.34375 27.785156 18.957031 26.898438 18.796875 25.054688 C 18.652344 26.550781 17.195312 27.171875 15.761719 26.070312 C 15.066406 25.53125 14.714844 25.03125 14.625 24.554688 Z M 14.625 24.554688 "/>
<path style=" stroke:none;fill-rule:nonzero;fill:rgb(0%,0%,0%);fill-opacity:0.4;" d="M 26.753906 3.527344 C 26.53125 5.988281 23.183594 9.816406 21.09375 9.816406 C 20.023438 9.816406 19.449219 8.804688 19.390625 7.484375 C 19.316406 9.039062 19.890625 10.3125 21.09375 10.3125 C 23.332031 10.3125 27.007812 5.925781 26.753906 3.527344 Z M 17.492188 4.90625 C 17.394531 6.566406 16.394531 8.585938 15.453125 8.53125 C 14.617188 8.484375 13.925781 7.113281 13.851562 5.71875 C 13.761719 7.261719 14.519531 8.972656 15.453125 9.03125 C 16.492188 9.089844 17.597656 6.628906 17.492188 4.90625 Z M 8.945312 6.917969 C 8.800781 8.492188 10.125 10.496094 11.101562 10.296875 C 11.753906 10.164062 12.117188 8.84375 12.0625 7.582031 C 12.015625 8.671875 11.667969 9.683594 11.101562 9.800781 C 10.226562 9.976562 9.070312 8.382812 8.945312 6.917969 Z M 5.246094 10.128906 C 5.050781 11.78125 6.878906 13.886719 7.796875 13.445312 C 8.179688 13.265625 8.328125 12.558594 8.285156 11.742188 C 8.253906 12.335938 8.097656 12.808594 7.796875 12.949219 C 6.96875 13.34375 5.402344 11.671875 5.246094 10.128906 Z M 23.421875 14.949219 C 23.085938 19.121094 14.078125 21.171875 14.621094 24.054688 C 15.121094 21.3125 23.78125 19.207031 23.421875 14.949219 Z M 7.308594 19.640625 C 7.132812 24.273438 12.160156 30 17.382812 30 C 20.152344 30 23.335938 27.472656 23.9375 24.273438 C 23.972656 24.085938 23.96875 23.921875 23.9375 23.777344 C 23.335938 26.976562 20.152344 29.5 17.382812 29.5 C 12.34375 29.5 7.488281 24.175781 7.308594 19.640625 Z M 18.804688 24.160156 C 18.777344 24.246094 18.769531 24.335938 18.78125 24.425781 C 18.789062 24.46875 18.792969 24.511719 18.796875 24.554688 C 18.808594 24.429688 18.808594 24.296875 18.804688 24.160156 Z M 18.804688 24.160156 "/>
<path style=" stroke:none;fill-rule:nonzero;fill:rgb(0%,0%,0%);fill-opacity:0.2;" d="M 26.738281 4.160156 C 26.40625 6.625 23.144531 10.3125 21.09375 10.3125 C 20.058594 10.3125 19.488281 9.367188 19.398438 8.117188 C 19.285156 9.722656 19.859375 11.0625 21.09375 11.0625 C 23.367188 11.0625 27.128906 6.53125 26.738281 4.160156 Z M 17.480469 5.535156 C 17.339844 7.167969 16.371094 9.082031 15.453125 9.03125 C 14.644531 8.980469 13.972656 7.695312 13.859375 6.351562 C 13.722656 7.921875 14.492188 9.722656 15.453125 9.78125 C 16.519531 9.839844 17.652344 7.261719 17.480469 5.535156 Z M 8.957031 7.53125 C 8.722656 9.125 10.097656 11.253906 11.101562 11.046875 C 11.777344 10.910156 12.140625 9.5 12.058594 8.203125 C 11.988281 9.246094 11.644531 10.1875 11.101562 10.296875 C 10.25 10.46875 9.132812 8.964844 8.957031 7.53125 Z M 5.265625 10.769531 C 4.96875 12.433594 6.859375 14.644531 7.796875 14.199219 C 8.195312 14.007812 8.339844 13.238281 8.273438 12.371094 C 8.230469 12.902344 8.074219 13.316406 7.796875 13.445312 C 6.992188 13.828125 5.496094 12.269531 5.265625 10.769531 Z M 23.410156 15.570312 C 22.902344 19.71875 13.824219 21.753906 14.652344 24.679688 C 15.398438 21.96875 23.953125 19.847656 23.410156 15.570312 Z M 7.316406 20.265625 C 7.042969 24.921875 12.113281 30.75 17.382812 30.75 C 20.152344 30.75 23.335938 28.222656 23.9375 25.023438 C 23.980469 24.789062 23.964844 24.589844 23.90625 24.414062 C 23.238281 27.546875 20.109375 30 17.382812 30 C 12.394531 30 7.582031 24.773438 7.316406 20.265625 Z M 18.804688 24.902344 C 18.78125 24.988281 18.769531 25.074219 18.78125 25.164062 C 18.792969 25.082031 18.800781 24.992188 18.804688 24.902344 Z M 18.804688 24.902344 "/>
<path style=" stroke:none;fill-rule:nonzero;fill:url(#linear0);" d="M 24.511719 2 C 19.042969 2 18.019531 10.3125 21.09375 10.3125 C 24.171875 10.3125 29.980469 2 24.511719 2 Z M 16.089844 3.277344 C 16.003906 3.277344 15.910156 3.289062 15.816406 3.292969 C 12.710938 3.683594 13.804688 8.933594 15.453125 9.03125 C 17.046875 9.121094 18.796875 3.285156 16.089844 3.277344 Z M 10.714844 5.214844 C 10.527344 5.199219 10.316406 5.238281 10.085938 5.335938 C 7.59375 6.355469 9.707031 10.582031 11.097656 10.296875 C 12.363281 10.039062 12.546875 5.335938 10.714844 5.214844 Z M 6.652344 8.667969 C 6.433594 8.660156 6.199219 8.734375 5.949219 8.921875 C 3.957031 10.40625 6.625 14.007812 7.796875 13.449219 C 8.820312 12.960938 8.167969 8.722656 6.652344 8.667969 Z M 18.425781 12.101562 C 14.109375 12.023438 8.40625 14.214844 7.4375 18.621094 C 6.382812 23.386719 11.769531 30 17.382812 30 C 20.152344 30 23.335938 27.472656 23.9375 24.273438 C 24.390625 21.832031 18.574219 22.8125 18.78125 24.425781 C 19.035156 26.359375 17.378906 27.316406 15.761719 26.066406 C 10.609375 22.097656 24.296875 20.117188 23.390625 14.691406 C 23.113281 13.003906 21.015625 12.144531 18.421875 12.101562 Z M 18.425781 12.101562 "/>
</g>
</svg>
